<?xml version="1.0" encoding="UTF-8"?>
<svg width="340pt" height="500pt" version="1.1" viewBox="0 0 340 500" xmlns="http://www.w3.org/2000/svg">
<g id="a">
<rect width="340" height="500" fill="none"/>
<path d="m131.84 412.37-0.039062 0.76562-0.003907 1.0156 0.14844 1.1445 0.15234 1.1055 0.58984 0.83594 1.3555 0.61328 0.69922 0.94531 0.74609 1.0898 0.78906 1.3086 1.0039 0.33203 1.0938 0.47656 2.3008 0.78125 1.4336 0.74219 1.1094 0.76953 1.2812 0.30469 1.0273 0.34375 1.0586 0.40234 1.7812-0.31641 0.16406 0.99609 0.78125 1.3477 1.3242 0.28125 1.3672-0.62891 0.50391 1.5234 1.5117 0.64062 1.3594 0.035157 2.6484-0.097657 1.793-0.88672 2.4258-0.82422 1.2227-0.20703 1.2695 0.18359 1.7227 0.79688 2.2461 1.2422 1.3984 1.4609 0.69531 1.0469 0.96875 0.78906 2.7148 1.3867 1.4648 0.51562 1.9492 0.89062-0.80859 1.6836-0.87891 1.6328-2.0117 2.168-0.88672 0.97656-0.51172 0.94141 1.168 1.6562-0.19531 1.7188-0.48828 1.1836-1.4961 1.4531-1.5781-0.29297-2.5703-0.16406-0.89844 0.69922-0.46094 0.97266-0.65234 0.91406-0.55469 0.85547-0.67969 0.91406-0.49609 0.96484-0.58984 0.86719-0.63281 1.0039-1.0898 0.46094-1 0.32812-1.0312 0.51172-1.043 0.22266-0.73828 0.67578-0.46484 0.89844-0.44531 1.0586 0.023437 1.0273-0.37109 0.99609-0.17969 1.2422-0.25781 1.0508-0.92578 0.60938-1.1328 0.47266-0.75 0.70703-0.98047 0.64453-0.88672 1.0938 0.027344 1.0078 0.33203 1.2188-0.35547 0.95312 0.023438 1.1016-0.86719 0.64453-0.82422 0.73438-1.1328 0.16016-0.67578 0.92969-0.625 0.85938-1.1094 0.36328-0.99219 0.32422-0.63281 0.81641-1-0.34375-0.91406-0.53125-1.0312-0.050781-0.74609-0.86328-0.85156-1.0234-0.39844-0.92969-0.74609-0.76953-0.91797-0.42578-1.0117-0.10938-1.0508 0.14453-0.98047 0.23047-3.1992-0.89062-1.2695-1.9609 1.3242-0.59375 0.83984-1.125 2.0625-0.28906 1.7773-0.53516 0.48047-1.2969-0.085937-1.0156-0.16016-1.1562 0.95703-0.41406 0.94531 0.36719 1.2461-0.41016 0.09375-1.3477 1.1094-0.37891 1.1133-0.17188 1.3438-0.27734 0.60156-1.0469-0.10547-1.2812-0.74219-0.67188-2.5156-1.1875-2.0117-0.50781 0.003906-1.9922 0.011719-3.7148 0.66797-1.7656-0.71484-0.83203-0.87891-0.83984-5.8945-0.71484-0.40234-1.582-0.53125-0.84766-1.375-0.53516-1.1758 0.074219-1.4102 1.1875-0.51953 1.4102-1.5039-1.3438-0.13672-3.0742-1 0.41406-0.68359 1.0625-1.1367 0.47656-0.98047 0.48828-0.89453 0.67578-0.98828 0.21875-0.99219 0.26562-0.4375-0.94531 0.24219-0.97656 0.27344-0.98047 0.78516-0.93359 0.75781-0.6875 0.078125-1.1172 0.19141-1.8516 0.73438-1.4336-0.003907-1.0273-0.63672-0.85938-0.64062-0.78516-0.70312-0.74609-0.78516-0.72656-0.91797-0.60156-0.79688-0.79688-1.7539-0.80469-0.98047-0.73438-0.30078-1.5508-1.0703-0.45312-0.75-1.3125-0.054688-2.0586-1.0586-4.4844 1 0.078125 1.0859 0.61719 0.77344 0.79297 1.0234 0.34766 1.0273 0.21484 1.0234 0.41406 1.1875-0.33984 0.87109-0.60156 0.91797-0.5625 1.0117 0.21484 0.75 0.72656 1.0156-0.14844 0.57812-0.875 1.1406-0.12109 0.98828-0.36328 0.97656-0.57031 0.96875-1.1641 0.60156-0.90234 0.29297-1.1914 0.84375-0.81641 0.75391-0.98828 0.55469-0.84375 1.2227-0.84375z" fill="#ccc" fill-rule="evenodd"/>
<path d="m131.84 412.37-0.039062 0.76562-0.003907 1.0156 0.14844 1.1445 0.15234 1.1055 0.58984 0.83594 1.3555 0.61328 0.69922 0.94531 0.74609 1.0898 0.78906 1.3086 1.0039 0.33203 1.0938 0.47656 2.3008 0.78125 1.4336 0.74219 1.1094 0.76953 1.2812 0.30469 1.0273 0.34375 1.0586 0.40234 1.7812-0.31641 0.16406 0.99609 0.78125 1.3477 1.3242 0.28125 1.3672-0.62891 0.50391 1.5234 1.5117 0.64062 1.3594 0.035157 2.6484-0.097657 1.793-0.88672 2.4258-0.82422 1.2227-0.20703 1.2695 0.18359 1.7227 0.79688 2.2461 1.2422 1.3984 1.4609 0.69531 1.0469 0.96875 0.78906 2.7148 1.3867 1.4648 0.51562 1.9492 0.89062-0.80859 1.6836-0.87891 1.6328-2.0117 2.168-0.88672 0.97656-0.51172 0.94141 1.168 1.6562-0.19531 1.7188-0.48828 1.1836-1.4961 1.4531-1.5781-0.29297-2.5703-0.16406-0.89844 0.69922-0.46094 0.97266-0.65234 0.91406-0.55469 0.85547-0.67969 0.91406-0.49609 0.96484-0.58984 0.86719-0.63281 1.0039-1.0898 0.46094-1 0.32812-1.0312 0.51172-1.043 0.22266-0.73828 0.67578-0.46484 0.89844-0.44531 1.0586 0.023437 1.0273-0.37109 0.99609-0.17969 1.2422-0.25781 1.0508-0.92578 0.60938-1.1328 0.47266-0.75 0.70703-0.98047 0.64453-0.88672 1.0938 0.027344 1.0078 0.33203 1.2188-0.35547 0.95312 0.023438 1.1016-0.86719 0.64453-0.82422 0.73438-1.1328 0.16016-0.67578 0.92969-0.625 0.85938-1.1094 0.36328-0.99219 0.32422-0.63281 0.81641-1-0.34375-0.91406-0.53125-1.0312-0.050781-0.74609-0.86328-0.85156-1.0234-0.39844-0.92969-0.74609-0.76953-0.91797-0.42578-1.0117-0.10938-1.0508 0.14453-0.98047 0.23047-3.1992-0.89062-1.2695-1.9609 1.3242-0.59375 0.83984-1.125 2.0625-0.28906 1.7773-0.53516 0.48047-1.2969-0.085937-1.0156-0.16016-1.1562 0.95703-0.41406 0.94531 0.36719 1.2461-0.41016 0.09375-1.3477 1.1094-0.37891 1.1133-0.17188 1.3438-0.27734 0.60156-1.0469-0.10547-1.2812-0.74219-0.67188-2.5156-1.1875-2.0117-0.50781 0.003906-1.9922 0.011719-3.7148 0.66797-1.7656-0.71484-0.83203-0.87891-0.83984-5.8945-0.71484-0.40234-1.582-0.53125-0.84766-1.375-0.53516-1.1758 0.074219-1.4102 1.1875-0.51953 1.4102-1.5039-1.3438-0.13672-3.0742-1 0.41406-0.68359 1.0625-1.1367 0.47656-0.98047 0.48828-0.89453 0.67578-0.98828 0.21875-0.99219 0.26562-0.4375-0.94531 0.24219-0.97656 0.27344-0.98047 0.78516-0.93359 0.75781-0.6875 0.078125-1.1172 0.19141-1.8516 0.73438-1.4336-0.003907-1.0273-0.63672-0.85938-0.64062-0.78516-0.70312-0.74609-0.78516-0.72656-0.91797-0.60156-0.79688-0.79688-1.7539-0.80469-0.98047-0.73438-0.30078-1.5508-1.0703-0.45312-0.75-1.3125-0.054688-2.0586-1.0586-4.4844 1 0.078125 1.0859 0.61719 0.77344 0.79297 1.0234 0.34766 1.0273 0.21484 1.0234 0.41406 1.1875-0.33984 0.87109-0.60156 0.91797-0.5625 1.0117 0.21484 0.75 0.72656 1.0156-0.14844 0.57812-0.875 1.1406-0.12109 0.98828-0.36328 0.97656-0.57031 0.96875-1.1641 0.60156-0.90234 0.29297-1.1914 0.84375-0.81641 0.75391-0.98828 0.55469-0.84375 1.2227-0.84375 0.86719 0.21094" fill="none" stroke="#fff" stroke-linecap="round" stroke-linejoin="round" stroke-miterlimit="10" stroke-width="2"/>
<path d="m193.09 429.39-0.20312 0.41016-0.10938 1.1172 0.46094 1.1172 0.87109 1.5 0.41406 1.6836 0.6875 1.1797 0.55078 1 0.097656 1.0938 0.074219 1.4414 0.027344 1.1172 1.2578 1.4297 0.71094 0.91016-0.38281 1.1406-0.83984 0.86719 0.20312 1.2539-0.03125 2.9414 0.25391 1.3164-0.41797 1.1719-1.7148 0.3125-1.3164 0.71875-1.7852-0.023437-1.0625-0.066406-1.3477 0.76562-1.1602 0.49609-1.6875 0.078125-1.8633 0.36328-1.2891 0.27734-1.5469 0.30469-2.707 0.17578-2.2109 0.066406-1.1797 0.23438-0.85156 1.0625-0.60156 1.043-0.69531 0.93359-1.2891 1.9258-2.9219 1.4961-0.91406 1.168-0.42578 1.4414-0.89844 1.4805-2.4961 3.6172-1.6133 2.5-0.80078 1.0742-0.48828 1.0781-0.28906 1.0664-0.28906 1.207-0.11719 1.0352-0.36328 1.3516-0.054688 1.0312-0.027344 1.1484-2.0586 0.72656-0.9375 1.9375-0.76562 1.418-1.207 1.2266-1.0117 0.52734-0.58594 1.3359-1.0156 0.61328-1.3242 0.51953-1.0508 0.76953-0.69531 0.95703-0.92578 0.85938-0.92578 1.2227-0.88672 0.90625-1.0117 0.42188-0.94141 0.33984-0.89062 0.70312-0.48047 0.92578-0.42578 0.91797-0.69141 0.76562-1.0117 0.38281-1.0742-0.066406 0.003906-1.1719-1.0703-1.0703-0.14453-1.8945 0.10938-1.3867-0.40234-1.2266-1.2578-0.5625-1.0156-0.035156-0.92969-0.58984-0.82812-0.63672-0.64844-1.3867-0.9375-1.1602-1.6055-0.96484-2.1836-1.2266-0.79297-0.62109-1.4648-0.92578-1.4727-0.62109-1.0078-0.28906-1.3008-0.73438-1.1484 0.35547-0.96875-0.44922-1.0391-1.1094 0.51953-1.0273 0.60156-0.85156 0.90625-0.62109 0.70703-0.76953 0.74219 0.68359 0.75781 0.70312 0.92969 0.50391 1.1055 0.007813 1.0703-0.42188 0.96094-0.36719 0.80078-0.73828 0.56641-0.88672 0.96094-0.39453 1.1484-0.22266 0.88672-0.48438 0.35938-0.96484 0.99219-0.58203 0.32031-1.0117-0.027343-1.168 0.91406-0.65234 1.1094 0.25 1.0938-0.28125 0.89062 0.46094 0.62891 0.80859 0.63672 1.1797 0.65625 0.98047 1.0195 0.52734 1.082 0.32812 1.1211 0.53516 0.96875-0.34766 0.94141-0.35938 0.80078-0.67188 1.0781-0.87109 0.48828-0.875 1.0859-0.11328 0.96484-0.60547 0.60938-0.84375 0.28125-1.0117 0.40234-1.0742-0.34375-1.0234-0.003906-1.0234 0.57812-0.99609 1.0312-0.53516 0.64453-0.80469 0.64844-0.78125 1.082-0.10547 0.75391-0.9375 0.44141-0.92969 0.25781-1.4609-0.074219-1.0742 0.42969-0.91016 0.35547-1.0391 0.59375-0.82422 1.043-0.44531 1.2031-0.32031 0.91016-0.64453 1.0234 0.34766 0.51953-0.99219 0.63281-1.0977 0.63672-0.82422 0.58594-0.91406 0.49609-1.0078 0.69141-0.73828 0.49609-0.96484 0.60547-0.91406 3.2109-0.29297 1.3984 0.51953 1.6758-1.6797 0.48828-1.1836 0.32031-1.2617-0.90234-1.207-0.09375-1.6094 1.1016-1.2148 2.0117-2.168 0.87891-1.6328 0.67578-1.1328 0.48828-0.88672 1.8633-0.89453 1.207-0.085938 1.0039-0.3125 1.082-0.56641 3.2969-0.23828 1.1523-0.32422 1.3477-0.79297 1.0898-1.7539 2.7539-1.7578z" fill="#ccc" fill-rule="evenodd"/>
<path d="m193.09 429.39-0.20312 0.41016-0.10938 1.1172 0.46094 1.1172 0.87109 1.5 0.41406 1.6836 0.6875 1.1797 0.55078 1 0.097656 1.0938 0.074219 1.4414 0.027344 1.1172 1.2578 1.4297 0.71094 0.91016-0.38281 1.1406-0.83984 0.86719 0.20312 1.2539-0.03125 2.9414 0.25391 1.3164-0.41797 1.1719-1.7148 0.3125-1.3164 0.71875-1.7852-0.023437-1.0625-0.066406-1.3477 0.76562-1.1602 0.49609-1.6875 0.078125-1.8633 0.36328-1.2891 0.27734-1.5469 0.30469-2.707 0.17578-2.2109 0.066406-1.1797 0.23438-0.85156 1.0625-0.60156 1.043-0.69531 0.93359-1.2891 1.9258-2.9219 1.4961-0.91406 1.168-0.42578 1.4414-0.89844 1.4805-2.4961 3.6172-1.6133 2.5-0.80078 1.0742-0.48828 1.0781-0.28906 1.0664-0.28906 1.207-0.11719 1.0352-0.36328 1.3516-0.054688 1.0312-0.027344 1.1484-2.0586 0.72656-0.9375 1.9375-0.76562 1.418-1.207 1.2266-1.0117 0.52734-0.58594 1.3359-1.0156 0.61328-1.3242 0.51953-1.0508 0.76953-0.69531 0.95703-0.92578 0.85938-0.92578 1.2227-0.88672 0.90625-1.0117 0.42188-0.94141 0.33984-0.89062 0.70312-0.48047 0.92578-0.42578 0.91797-0.69141 0.76562-1.0117 0.38281-1.0742-0.066406 0.003906-1.1719-1.0703-1.0703-0.14453-1.8945 0.10938-1.3867-0.40234-1.2266-1.2578-0.5625-1.0156-0.035156-0.92969-0.58984-0.82812-0.63672-0.64844-1.3867-0.9375-1.1602-1.6055-0.96484-2.1836-1.2266-0.79297-0.62109-1.4648-0.92578-1.4727-0.62109-1.0078-0.28906-1.3008-0.73438-1.1484 0.35547-0.96875-0.44922-1.0391-1.1094 0.51953-1.0273 0.60156-0.85156 0.90625-0.62109 0.70703-0.76953 0.74219 0.68359 0.75781 0.70312 0.92969 0.50391 1.1055 0.007813 1.0703-0.42188 0.96094-0.36719 0.80078-0.73828 0.56641-0.88672 0.96094-0.39453 1.1484-0.22266 0.88672-0.48438 0.35938-0.96484 0.99219-0.58203 0.32031-1.0117-0.027343-1.168 0.91406-0.65234 1.1094 0.25 1.0938-0.28125 0.89062 0.46094 0.62891 0.80859 0.63672 1.1797 0.65625 0.98047 1.0195 0.52734 1.082 0.32812 1.1211 0.53516 0.96875-0.34766 0.94141-0.35938 0.80078-0.67188 1.0781-0.87109 0.48828-0.875 1.0859-0.11328 0.96484-0.60547 0.60938-0.84375 0.28125-1.0117 0.40234-1.0742-0.34375-1.0234-0.003906-1.0234 0.57812-0.99609 1.0312-0.53516 0.64453-0.80469 0.64844-0.78125 1.082-0.10547 0.75391-0.9375 0.44141-0.92969 0.25781-1.4609-0.074219-1.0742 0.42969-0.91016 0.35547-1.0391 0.59375-0.82422 1.043-0.44531 1.2031-0.32031 0.91016-0.64453 1.0234 0.34766 0.51953-0.99219 0.63281-1.0977 0.63672-0.82422 0.58594-0.91406 0.49609-1.0078 0.69141-0.73828 0.49609-0.96484 0.60547-0.91406 3.2109-0.29297 1.3984 0.51953 1.6758-1.6797 0.48828-1.1836 0.32031-1.2617-0.90234-1.207-0.09375-1.6094 1.1016-1.2148 2.0117-2.168 0.87891-1.6328 0.67578-1.1328 0.48828-0.88672 1.8633-0.89453 1.207-0.085938 1.0039-0.3125 1.082-0.56641 3.2969-0.23828 1.1523-0.32422 1.3477-0.79297 1.0898-1.7539 2.7539-1.7578 0.035156 0.92969" fill="none" stroke="#fff" stroke-linecap="round" stroke-linejoin="round" stroke-miterlimit="10" stroke-width="2"/>
<path d="m130.43 443.27 0.5625 0.36719 0.53125 0.84766 0.40234 1.582 5.5703 0.62109 1.2031 0.93359 0.71484 0.83203-0.011719 1.2461-0.66797 4.2344-0.003906 1.9922 2.0117 0.50781 1.7695 0.85156 1.1484 0.73828 1.0508 1.1406-0.83984 0.64844-0.73438 0.94531-1.4141 0.17578-1.3477 0.30859-0.39844 1.25-0.73828 0.78125-0.97656-0.23438-1.0469-0.19531-1.2383-0.27734-1.0352-0.39062-1.4805 0.3125-1.3672-0.4375-1.1055-0.39844-1.4727-0.25391-0.92578-0.58594-1.4531-0.074219-1.1406-0.24609-0.25781-1.7227-0.62109-1.125-0.26953-1.1094 1.3594-4.4023-0.15625-3.5859-1.1211-1.7539 0.95703-0.81641 0.78125-0.73438 0.95703-1.5703 1.9922-0.57031z" fill="#ccc" fill-rule="evenodd"/>
<path d="m130.43 443.27 0.5625 0.36719 0.53125 0.84766 0.40234 1.582 5.5703 0.62109 1.2031 0.93359 0.71484 0.83203-0.011719 1.2461-0.66797 4.2344-0.003906 1.9922 2.0117 0.50781 1.7695 0.85156 1.1484 0.73828 1.0508 1.1406-0.83984 0.64844-0.73438 0.94531-1.4141 0.17578-1.3477 0.30859-0.39844 1.25-0.73828 0.78125-0.97656-0.23438-1.0469-0.19531-1.2383-0.27734-1.0352-0.39062-1.4805 0.3125-1.3672-0.4375-1.1055-0.39844-1.4727-0.25391-0.92578-0.58594-1.4531-0.074219-1.1406-0.24609-0.25781-1.7227-0.62109-1.125-0.26953-1.1094 1.3594-4.4023-0.15625-3.5859-1.1211-1.7539 0.95703-0.81641 0.78125-0.73438 0.95703-1.5703 1.9922-0.57031 0.8125 0.16797" fill="none" stroke="#fff" stroke-linecap="round" stroke-linejoin="round" stroke-miterlimit="10" stroke-width="2"/>
<path d="m105.55 398.13 0.43359 0.44141 1.3672 0.46094 1.0742 0.15234 1.3086-0.65234 1.3555 0.5 0.87891 1.0508 1.2891-0.72656 1.3242-0.60547 1.0156-0.19922 1.4336 0.023438 1.1055 0.027344 1.6211 0.61328 1.582 0.52344 1.5508 0.28906 1.4023-1.4336 0.94141 0.40234-0.027344 1.125 0.34766 1.0508 0.71094 0.95312 0.72266 0.71484 0.55859 1.0977 0.5625 1.5039 0.57031 1.3789 0.49219 1.1992 0.65234 1.1562 0.60547 0.84375 0.73828 1.168-0.71875 1.293-1.25 1.3672-0.75391 0.98828-0.84375 0.81641-0.29297 1.1914-0.60156 0.90234-0.77734 0.64453-0.79688 0.91406-1.3594 0.53906-1.1406 0.12109-0.57812 0.875-1.0156 0.14844-0.75-0.72656-1.0117-0.21484-0.91797 0.5625-0.87109 0.60156-0.94141 0.38672-0.95703-0.35938-0.96875-0.25781-1.0234-0.20703-0.80859-0.71094-0.86719-0.58203-1.2734-0.36328 0.34766 3.8633 0.43359 2.1562 0.35547 1.0352 0.59375 1.1406 1.2227 1.6328 0.98047 0.73438 1.5312 0.66406 0.79688 0.72266 0.79688 0.61719 0.80859 0.64844 0.77344 0.74219 0.72266 0.83594 0.80469 1.0898 0.003907 1.0273-0.73438 1.4336 0.078125 1.1406-0.25391 1.0547-0.24219 1.0234-0.82031 0.57812-0.66406 0.90625-0.24219 1.0977-0.23047 0.99609 0.023437 1.1172 0.95703-0.4375 0.99219-0.28516 0.96875-0.42188 0.78906-0.64062 1.082-0.37109 0.94922-0.64453 0.63281-0.99219 0.90234 2.8438 1.5039 1.3438-1.2812 0.43359 0.82031 2.3398 0.15625 3.5859-1.2891 3.5977 0.019531 1.3164 0.625 1.2109 0.32031 1.2539 0.53516 1.0156 1.3555 0.31641 1.1484-0.03125 2.0664 0.83984 1.1055 0.39844 1.1094 0.40234 1.7383-0.27734 1.0352 0.39062 0.64062 1.0039 0.32422 1.8555-0.48047 1.2969-1.7773 0.53516-1.3594 0.035157-1.2695 0.83203-0.64453 0.85156 0.31641 2.25 3.0977 0.99609-0.058594 1.0312-0.27734 1.1367-0.8125 0.68359-0.1875 1.0898-0.95312 0.31641-1.0234 0.36719-1 0.27734-0.65625 0.79297-0.18359 1.0352-1.0234 0.11328-0.89453 0.47266-1.0078-0.097656-0.98438 0.25-0.92188-0.40234-0.83203-0.60547-0.5625-0.98828-1.0703-0.52734-1.1836 0.44141-0.99609-0.75781 0.085937-1.1172-0.48828-1.2266-0.41406-1.1055-1.5156-1.4102-1.2109-0.8125 0.30859-1.4453-0.4375-0.94531-1.3906-1.0156-0.99219-0.71094-1.1641-0.27344-1.3828-0.9375 0.58594-0.94141-0.92969-1.0234-1.3242-0.54297-0.98828-0.57812-1.8359 0.78516-1.0938 0.40625-1.4336-0.17969-1.2891-0.039063-0.625 0.82031-0.097656 1.0234-1.1367-0.21875-1.3398-0.65625-0.99219-0.27344-0.92188-0.64453-0.16797-1.3516 0.64453-0.80078 1.0117-0.86719-0.18359-0.98828-0.63281-0.875-0.75391-1.2422-0.91797-0.90234-0.13672-1.0117 1.1094-0.085938 1.2266-0.14062 0.61719-1.1367 0.21094-0.98047 2.043-0.011719 1.1367-0.47656 0.26562-1.0039 0.52734-0.97656 1.1289-1.082 0.097657-1.1992-1.4102 0.13281 0.074219-1.293-1.0195-0.0625-1.3125 0.023437-1.0586-0.70312-1.3398-0.082031-1.2461 0.21484-0.92969-0.5625 0.30859-1.3086 0.73047-0.6875-0.45312-0.93359-2.043-0.60547 0.97656-0.51562 0.78125-0.97656 1.1094-0.48828 0.93359-0.35547-0.94922-0.47266-1.2266 0.082031-0.99609 0.36719 0.042969-1.1016 0.91016-1.0234-0.15625-1.2383-0.35938-1.1719 0.86719-0.72266 0.68359-0.77734-0.82422-0.87109-1.0742 0.46875-0.29297-1.1797 0.23828-1.0977 0.64062-0.87109 1.1445 0.26953 0.40234 0.94141 1.168-0.5 0.94922-0.40234 0.46875-0.91797-0.21094-1.1719-0.86719-0.52734-1.2148-0.46875-1.1562-0.39844-0.77734-0.67578-0.125-1.0391 1.1016-0.78906 0.98438-0.17969 1.0703-0.5 0.96875-0.52344-0.26953-1.0391-0.82812-0.8125 0.51953-1.4492 0.80078-1.25 0.75-1.0859 0.44922-1.0742-0.79688-0.71875 0.11719-1.6211 0.49609-1.6055 0.12109-1.2109-0.37891-1.3125-0.28906-1.0586-0.41016-1.0078-0.20312-1.125-1.0234-0.94141-0.1875-1.0547-0.64844-0.80469-0.27344-1.2266 0.37891-0.96484 1.1875-0.51953 0.95703-0.93359 0.87109-0.78125 0.87891-0.82422 0.87109-0.91797 0.73047-0.98828z" fill="#ccc" fill-rule="evenodd"/>
<path d="m105.55 398.13 0.43359 0.44141 1.3672 0.46094 1.0742 0.15234 1.3086-0.65234 1.3555 0.5 0.87891 1.0508 1.2891-0.72656 1.3242-0.60547 1.0156-0.19922 1.4336 0.023438 1.1055 0.027344 1.6211 0.61328 1.582 0.52344 1.5508 0.28906 1.4023-1.4336 0.94141 0.40234-0.027344 1.125 0.34766 1.0508 0.71094 0.95312 0.72266 0.71484 0.55859 1.0977 0.5625 1.5039 0.57031 1.3789 0.49219 1.1992 0.65234 1.1562 0.60547 0.84375 0.73828 1.168-0.71875 1.293-1.25 1.3672-0.75391 0.98828-0.84375 0.81641-0.29297 1.1914-0.60156 0.90234-0.77734 0.64453-0.79688 0.91406-1.3594 0.53906-1.1406 0.12109-0.57812 0.875-1.0156 0.14844-0.75-0.72656-1.0117-0.21484-0.91797 0.5625-0.87109 0.60156-0.94141 0.38672-0.95703-0.35938-0.96875-0.25781-1.0234-0.20703-0.80859-0.71094-0.86719-0.58203-1.2734-0.36328 0.34766 3.8633 0.43359 2.1562 0.35547 1.0352 0.59375 1.1406 1.2227 1.6328 0.98047 0.73438 1.5312 0.66406 0.79688 0.72266 0.79688 0.61719 0.80859 0.64844 0.77344 0.74219 0.72266 0.83594 0.80469 1.0898 0.003907 1.0273-0.73438 1.4336 0.078125 1.1406-0.25391 1.0547-0.24219 1.0234-0.82031 0.57812-0.66406 0.90625-0.24219 1.0977-0.23047 0.99609 0.023437 1.1172 0.95703-0.4375 0.99219-0.28516 0.96875-0.42188 0.78906-0.64062 1.082-0.37109 0.94922-0.64453 0.63281-0.99219 0.90234 2.8438 1.5039 1.3438-1.2812 0.43359 0.82031 2.3398 0.15625 3.5859-1.2891 3.5977 0.019531 1.3164 0.625 1.2109 0.32031 1.2539 0.53516 1.0156 1.3555 0.31641 1.1484-0.03125 2.0664 0.83984 1.1055 0.39844 1.1094 0.40234 1.7383-0.27734 1.0352 0.39062 0.64062 1.0039 0.32422 1.8555-0.48047 1.2969-1.7773 0.53516-1.3594 0.035157-1.2695 0.83203-0.64453 0.85156 0.31641 2.25 3.0977 0.99609-0.058594 1.0312-0.27734 1.1367-0.8125 0.68359-0.1875 1.0898-0.95312 0.31641-1.0234 0.36719-1 0.27734-0.65625 0.79297-0.18359 1.0352-1.0234 0.11328-0.89453 0.47266-1.0078-0.097656-0.98438 0.25-0.92188-0.40234-0.83203-0.60547-0.5625-0.98828-1.0703-0.52734-1.1836 0.44141-0.99609-0.75781 0.085937-1.1172-0.48828-1.2266-0.41406-1.1055-1.5156-1.4102-1.2109-0.8125 0.30859-1.4453-0.4375-0.94531-1.3906-1.0156-0.99219-0.71094-1.1641-0.27344-1.3828-0.9375 0.58594-0.94141-0.92969-1.0234-1.3242-0.54297-0.98828-0.57812-1.8359 0.78516-1.0938 0.40625-1.4336-0.17969-1.2891-0.039063-0.625 0.82031-0.097656 1.0234-1.1367-0.21875-1.3398-0.65625-0.99219-0.27344-0.92188-0.64453-0.16797-1.3516 0.64453-0.80078 1.0117-0.86719-0.18359-0.98828-0.63281-0.875-0.75391-1.2422-0.91797-0.90234-0.13672-1.0117 1.1094-0.085938 1.2266-0.14062 0.61719-1.1367 0.21094-0.98047 2.043-0.011719 1.1367-0.47656 0.26562-1.0039 0.52734-0.97656 1.1289-1.082 0.097657-1.1992-1.4102 0.13281 0.074219-1.293-1.0195-0.0625-1.3125 0.023437-1.0586-0.70312-1.3398-0.082031-1.2461 0.21484-0.92969-0.5625 0.30859-1.3086 0.73047-0.6875-0.45312-0.93359-2.043-0.60547 0.97656-0.51562 0.78125-0.97656 1.1094-0.48828 0.93359-0.35547-0.94922-0.47266-1.2266 0.082031-0.99609 0.36719 0.042969-1.1016 0.91016-1.0234-0.15625-1.2383-0.35938-1.1719 0.86719-0.72266 0.68359-0.77734-0.82422-0.87109-1.0742 0.46875-0.29297-1.1797 0.23828-1.0977 0.64062-0.87109 1.1445 0.26953 0.40234 0.94141 1.168-0.5 0.94922-0.40234 0.46875-0.91797-0.21094-1.1719-0.86719-0.52734-1.2148-0.46875-1.1562-0.39844-0.77734-0.67578-0.125-1.0391 1.1016-0.78906 0.98438-0.17969 1.0703-0.5 0.96875-0.52344-0.26953-1.0391-0.82812-0.8125 0.51953-1.4492 0.80078-1.25 0.75-1.0859 0.44922-1.0742-0.79688-0.71875 0.11719-1.6211 0.49609-1.6055 0.12109-1.2109-0.37891-1.3125-0.28906-1.0586-0.41016-1.0078-0.20312-1.125-1.0234-0.94141-0.1875-1.0547-0.64844-0.80469-0.27344-1.2266 0.37891-0.96484 1.1875-0.51953 0.95703-0.93359 0.87109-0.78125 0.87891-0.82422 0.87109-0.91797 0.73047-0.98828 0.82031 0.5" fill="none" stroke="#fff" stroke-linecap="round" stroke-linejoin="round" stroke-miterlimit="10" stroke-width="2"/>
<path d="m137.96 272.63 0.72266 0.066406 1.4688 0.59375 1.2227 0.93359 0.87109 1.2344 1.2773 3.9414 0.13672 1.2344 0.33203 1.5391 1.582 1.1953 1.4805 0.17969 0.92969 0.38281 0.94531 1.5898-0.50781 2.0586-0.35938 2.2578-0.375 2.1328 0.3125 1.3516 1.6328 1.1562 1.25 0.28516 1.2773 0.10938 1.1992 0.25781 1.2148 0.054687 1.6016 0.019531 1.125-0.070312 1.5508 0.32812 1.6719 0.98438 0.90625 0.63672 1.3945 2.6484 2.0781 3.543 0.69531 0.95312 1.8359 1.4258 0.027343 1.043-0.375 1.1367-1.0781 2.5391-0.5625 1.0508 0.90625 2.2422 0.29297 1.9492 0.65234 1.6484 0.28516 1.6289 0.32812 2.1211 0.29688 1.9961 0.44922 1.0625 0.28516 1.3242-0.20312 1.1328-1.5938 1.1875-0.16016 1.4062 0.11328 1.0547 0.55859 1.0586 1.3594 1.4609 1.0938 1.5234 1.168 1.2383 1.4609 0.87891 1.5977 0.70703 0.28906 1.1289 0.5625 2.0742 0.23047 1.8242 0.84375 0.83203 1.4805 0.78125 0.80859 0.625 1.207 0.96484 0.74219 1.6328 0.85938 0.76953 0.83984 1.168 1.1367 1.3125 1.0508 1.6055 0.52734 1.3164 0.4375 2.6016 0.33594 0.96094 0.71484 0.70703 1.2539 1.3242 1.2461 0.97266 0.58203 1.4258 0.79688 1.6758 0.46094 1.4375 1.5039 1.3672 1.5742 1.0078 0.58984 1.7383-0.21484 1.0156-0.70703 1.3711 0.058594 1.2656 0.44531 1.4805 0.60156 1.3945 0.77734 1.2344 0.16797 1.3047 0.21875 1.1523 0.54297 0.92578 0.39453 1.1797 0.054688 1.7617-0.35156 1.9023-1.0781 3.4375-0.42969 1.8594 0.09375 1.1172 0.078125 1.0859 0.31641 2 0.73828 2.1016 0.94531 1.1133 1.5469 1.8555 1.0781 0.98828 1.082 2.5859 0.82422 1.4336 0.52344 0.99219-1.3984 1.0312-1.0508 0.58203-1.25 0.69531-0.33203 0.96094-0.78125 1.332-0.8125 1.3125-0.56641 1.0312-0.54688 0.94531-0.63281 1.375-0.25 1.3203-0.75781 1.4961-0.28906 0.99219-1.0703 1.1055-1.5156 0.60156-1.3047-0.074219-0.73828 0.67188 0.84766 0.60938 0.95312 0.57812 0.82031 0.83984 0.79297 1.5703 0.96484 0.47266 0.70312 1.1562-0.45312 1.6055-0.39062 1.3906-2.0898 1.2422-1.7539 2.2695-1.0078 0.69531-1.4922 0.42188-2.5117-0.003906-1.418 0.57422-1.4531 0.54688-1.207 0.085938-1.0938 0.41016-1.0977 0.85156-1.0898-0.60547-2.3516-0.83203-2.7148-1.3867-0.96875-0.78906-0.69531-1.0469-0.72266-0.75391-2.4727-1.6914-2.1719-1.0547-1.2695-0.18359-1.2227 0.20703-2.4258 0.82422-1.793 0.88672-2.6484 0.097657-1.3594-0.035157-1.1562-0.03125-0.38672-1.5117-0.98438-0.25391-1.6445 0.19531-1.043-0.625-0.4375-1.9336-1.7812 0.31641-1.0586-0.40234-1.0273-0.34375-1.2812-0.30469-1.1094-0.76953-1.4336-0.74219-1.5781-0.49219-1.0156-0.41797-1.3164-0.375-0.93359-1.0938-0.74219-1.1328-0.57812-0.9375-1.3281-0.72656-0.80078-0.70312-0.4375-1.6094-0.14844-1.1445 0.003907-1.0156-0.29688-1.5742-1.0156-1.0508-0.58984-1.2695-0.73047-1.2227-0.49219-1.1992-0.57031-1.3789-0.5625-1.5039-0.55859-1.0977-0.72266-0.71484-0.71094-0.95312-0.34766-1.0508 0.027344-1.125-0.23828-1.043-1.5156 1.7031-1.2461 0.40234-2.4766-0.84375-1.3945-0.59375-1.1797-0.0625-1.0156-0.035156-1.3047 0.18359-1.6055 0.64844-1.0273 0.45703-1.1406-0.78125-1.3555-0.5-1.3086 0.65234-1.0742-0.15234-1.3672-0.46094-0.87109-1.418-0.96094-0.75391-0.86719-0.96484 0.64844-0.87891 1.0352-1.4453 0.82031-0.75391 0.86328-0.76562 0.80859-0.61719 1.3164-0.57422 0.94922-0.54297 1.5117-1.1289 0.98438-0.59766 0.85547-0.54297 1.1797-0.60156 0.95312-0.35938 1.1836-0.55859 0.83594-0.85547 0.375-1.1797 0.34766-1.0195 0.015625-1.3594-0.17969-1.543v-1.1523l-0.082032-1.3125-0.49219-2.3477-0.72266-1.0977-1.0195-0.65625-1.5703-1.0547-0.57812-1.5742 0.035156-1.2148 0.21484-2.0117 0.66797-1.0742 0.52734-1.3359 0.32031-1.4766-0.47266-1.168-1.2578-0.82031-0.71875-1.9961-0.70703-0.75781-0.47266-1.0664-0.53906-1.1055-1.0234-0.94531-1.125-1.1016-1.2891-1.0547-0.74219-0.94922 0.17969-1.2305-0.3125-0.97266-0.78906-0.79688-0.9375-0.46094-1-0.50781-1.043-0.29688-0.90625-0.46094-0.78906-0.85547-0.73828-0.83203-1.1289-1.332-1-1.5391-1.6133-1.8477-1.8281-1.1992-2.4375-1.3477-1.668-0.99609-1.8281-1.6328-1.5391-1.6055-1.1445-1.1758-1.2383-1.293-2.1055-2.1133-1.3594-1.3789-1.2344-1.2969-2.0859-0.96484-2.3398-0.23828-2.0508 0.03125h-1.5391l1.6055-2.8164 0.73828-1.3711 2.0586-5.918 1.0664-2.4375 0.42578-1.0234 0.47656-1.1484 0.71094-2.1133 1.0234-1.6367 0.43359-2.1055 1.1289-1.5508 1.0195-0.78516 1.0664-0.65234-0.49219-1.207 0.45312-1.9297 0.60547-1.2148 0.90234-1.0742 1.2461-0.058594 1.0195 0.011719 1.5938-1.4766-0.21094-1.4062-0.91016-1.0391 1.6289-2.0898-1.3945-1.6953 1.6914-1.793 1.3828 1.2188 0.042969 1.3477 0.99609 1.375 1.1406 1.875 1.1094 1.4141 0.56641 0.86328 1.2383 1.4102 0.34375 1.4922 0.41406 1.75 0.42578 1.4922 0.52344 0.86328 0.55469 1.4688 0.59375 1.0781 0.91797 0.73828 1.2422 0.46875 1.4727 0.27344 1.3711 0.039062 0.91406-0.48438 0.95312-0.73047 1.1094-1.1367 0.74609-1.0273 1.25-1.0234 0.82422-1.25 0.86328-0.58594 1.0156-0.21094 1.0703-0.54688 0.48438-0.94141 0.011719-1.5664 0.23438-1.3047-0.023438-1.75-0.070312-1.1445 0.19922-2.7773 0.71484-1.7695 1.3125-1.4102 0.73828-0.80078 1.6328-0.82031 1.1328-0.41016 2.1055-1.3125 1.1602-0.4375 1.2812-0.67578 1.2812-1.543 0.91016-1.2852 1.1719-0.85938 0.98828-0.23828 1.1211-0.91016 0.16016-1.3594 0.12109-1 0.69922-0.71484 1.5078-0.87109 1.2344-0.39062 1.4727-0.46484 1.0117-0.30859 1.7383-0.42969z" fill="#ccc" fill-rule="evenodd"/>
<path d="m137.96 272.63 0.72266 0.066406 1.4688 0.59375 1.2227 0.93359 0.87109 1.2344 1.2773 3.9414 0.13672 1.2344 0.33203 1.5391 1.582 1.1953 1.4805 0.17969 0.92969 0.38281 0.94531 1.5898-0.50781 2.0586-0.35938 2.2578-0.375 2.1328 0.3125 1.3516 1.6328 1.1562 1.25 0.28516 1.2773 0.10938 1.1992 0.25781 1.2148 0.054687 1.6016 0.019531 1.125-0.070312 1.5508 0.32812 1.6719 0.98438 0.90625 0.63672 1.3945 2.6484 2.0781 3.543 0.69531 0.95312 1.8359 1.4258 0.027343 1.043-0.375 1.1367-1.0781 2.5391-0.5625 1.0508 0.90625 2.2422 0.29297 1.9492 0.65234 1.6484 0.28516 1.6289 0.32812 2.1211 0.29688 1.9961 0.44922 1.0625 0.28516 1.3242-0.20312 1.1328-1.5938 1.1875-0.16016 1.4062 0.11328 1.0547 0.55859 1.0586 1.3594 1.4609 1.0938 1.5234 1.168 1.2383 1.4609 0.87891 1.5977 0.70703 0.28906 1.1289 0.5625 2.0742 0.23047 1.8242 0.84375 0.83203 1.4805 0.78125 0.80859 0.625 1.207 0.96484 0.74219 1.6328 0.85938 0.76953 0.83984 1.168 1.1367 1.3125 1.0508 1.6055 0.52734 1.3164 0.4375 2.6016 0.33594 0.96094 0.71484 0.70703 1.2539 1.3242 1.2461 0.97266 0.58203 1.4258 0.79688 1.6758 0.46094 1.4375 1.5039 1.3672 1.5742 1.0078 0.58984 1.7383-0.21484 1.0156-0.70703 1.3711 0.058594 1.2656 0.44531 1.4805 0.60156 1.3945 0.77734 1.2344 0.16797 1.3047 0.21875 1.1523 0.54297 0.92578 0.39453 1.1797 0.054688 1.7617-0.35156 1.9023-1.0781 3.4375-0.42969 1.8594 0.09375 1.1172 0.078125 1.0859 0.31641 2 0.73828 2.1016 0.94531 1.1133 1.5469 1.8555 1.0781 0.98828 1.082 2.5859 0.82422 1.4336 0.52344 0.99219-1.3984 1.0312-1.0508 0.58203-1.25 0.69531-0.33203 0.96094-0.78125 1.332-0.8125 1.3125-0.56641 1.0312-0.54688 0.94531-0.63281 1.375-0.25 1.3203-0.75781 1.4961-0.28906 0.99219-1.0703 1.1055-1.5156 0.60156-1.3047-0.074219-0.73828 0.67188 0.84766 0.60938 0.95312 0.57812 0.82031 0.83984 0.79297 1.5703 0.96484 0.47266 0.70312 1.1562-0.45312 1.6055-0.39062 1.3906-2.0898 1.2422-1.7539 2.2695-1.0078 0.69531-1.4922 0.42188-2.5117-0.003906-1.418 0.57422-1.4531 0.54688-1.207 0.085938-1.0938 0.41016-1.0977 0.85156-1.0898-0.60547-2.3516-0.83203-2.7148-1.3867-0.96875-0.78906-0.69531-1.0469-0.72266-0.75391-2.4727-1.6914-2.1719-1.0547-1.2695-0.18359-1.2227 0.20703-2.4258 0.82422-1.793 0.88672-2.6484 0.097657-1.3594-0.035157-1.1562-0.03125-0.38672-1.5117-0.98438-0.25391-1.6445 0.19531-1.043-0.625-0.4375-1.9336-1.7812 0.31641-1.0586-0.40234-1.0273-0.34375-1.2812-0.30469-1.1094-0.76953-1.4336-0.74219-1.5781-0.49219-1.0156-0.41797-1.3164-0.375-0.93359-1.0938-0.74219-1.1328-0.57812-0.9375-1.3281-0.72656-0.80078-0.70312-0.4375-1.6094-0.14844-1.1445 0.003907-1.0156-0.29688-1.5742-1.0156-1.0508-0.58984-1.2695-0.73047-1.2227-0.49219-1.1992-0.57031-1.3789-0.5625-1.5039-0.55859-1.0977-0.72266-0.71484-0.71094-0.95312-0.34766-1.0508 0.027344-1.125-0.23828-1.043-1.5156 1.7031-1.2461 0.40234-2.4766-0.84375-1.3945-0.59375-1.1797-0.0625-1.0156-0.035156-1.3047 0.18359-1.6055 0.64844-1.0273 0.45703-1.1406-0.78125-1.3555-0.5-1.3086 0.65234-1.0742-0.15234-1.3672-0.46094-0.87109-1.418-0.96094-0.75391-0.86719-0.96484 0.64844-0.87891 1.0352-1.4453 0.82031-0.75391 0.86328-0.76562 0.80859-0.61719 1.3164-0.57422 0.94922-0.54297 1.5117-1.1289 0.98438-0.59766 0.85547-0.54297 1.1797-0.60156 0.95312-0.35938 1.1836-0.55859 0.83594-0.85547 0.375-1.1797 0.34766-1.0195 0.015625-1.3594-0.17969-1.543v-1.1523l-0.082032-1.3125-0.49219-2.3477-0.72266-1.0977-1.0195-0.65625-1.5703-1.0547-0.57812-1.5742 0.035156-1.2148 0.21484-2.0117 0.66797-1.0742 0.52734-1.3359 0.32031-1.4766-0.47266-1.168-1.2578-0.82031-0.71875-1.9961-0.70703-0.75781-0.47266-1.0664-0.53906-1.1055-1.0234-0.94531-1.125-1.1016-1.2891-1.0547-0.74219-0.94922 0.17969-1.2305-0.3125-0.97266-0.78906-0.79688-0.9375-0.46094-1-0.50781-1.043-0.29688-0.90625-0.46094-0.78906-0.85547-0.73828-0.83203-1.1289-1.332-1-1.5391-1.6133-1.8477-1.8281-1.1992-2.4375-1.3477-1.668-0.99609-1.8281-1.6328-1.5391-1.6055-1.1445-1.1758-1.2383-1.293-2.1055-2.1133-1.3594-1.3789-1.2344-1.2969-2.0859-0.96484-2.3398-0.23828-2.0508 0.03125h-1.5391l1.6055-2.8164 0.73828-1.3711 2.0586-5.918 1.0664-2.4375 0.42578-1.0234 0.47656-1.1484 0.71094-2.1133 1.0234-1.6367 0.43359-2.1055 1.1289-1.5508 1.0195-0.78516 1.0664-0.65234-0.49219-1.207 0.45312-1.9297 0.60547-1.2148 0.90234-1.0742 1.2461-0.058594 1.0195 0.011719 1.5938-1.4766-0.21094-1.4062-0.91016-1.0391 1.6289-2.0898-1.3945-1.6953 1.6914-1.793 1.3828 1.2188 0.042969 1.3477 0.99609 1.375 1.1406 1.875 1.1094 1.4141 0.56641 0.86328 1.2383 1.4102 0.34375 1.4922 0.41406 1.75 0.42578 1.4922 0.52344 0.86328 0.55469 1.4688 0.59375 1.0781 0.91797 0.73828 1.2422 0.46875 1.4727 0.27344 1.3711 0.039062 0.91406-0.48438 0.95312-0.73047 1.1094-1.1367 0.74609-1.0273 1.25-1.0234 0.82422-1.25 0.86328-0.58594 1.0156-0.21094 1.0703-0.54688 0.48438-0.94141 0.011719-1.5664 0.23438-1.3047-0.023438-1.75-0.070312-1.1445 0.19922-2.7773 0.71484-1.7695 1.3125-1.4102 0.73828-0.80078 1.6328-0.82031 1.1328-0.41016 2.1055-1.3125 1.1602-0.4375 1.2812-0.67578 1.2812-1.543 0.91016-1.2852 1.1719-0.85938 0.98828-0.23828 1.1211-0.91016 0.16016-1.3594 0.12109-1 0.69922-0.71484 1.5078-0.87109 1.2344-0.39062 1.4727-0.46484 1.0117-0.30859 1.7383-0.42969 0.39062-0.003906" fill="none" stroke="#fff" stroke-linecap="round" stroke-linejoin="round" stroke-miterlimit="10" stroke-width="2"/>
<path d="m70.758 0.054688 1.0625 0.375 1.1133 1.7812 1.0508 1.3945 0.82812 0.72656 1.3008-0.050781 1.082 0.125 1.0938-0.050781 0.74609-1.0117 1.1719-0.77734 1.0586 0.24219 1.0781 0.85547 0.65625 1.1914 0.26172 1.0469 0.62109 1.2461 0.097656 1.293 0.45703 1.2227 0.6875 0.83984 0.46875 0.98828 0.96484 0.51953 0.82031 0.94922 1.0352 0.375 1.043 0.4375 0.12109 1.3906-0.054687 1.6562 0.20703 1.3203-0.9375 1.1133-1.0039 0.54688-0.11328 1.6445-0.41406 1.1328 0.011719 1.1211-0.55078 0.87109 0.36328 1.4336 0.92578 1.1172 0.21875 1.7227 0.49219 1.5898 0.34375 1.5273 0.039063 1.1133-0.074219 1.0391 0.054688 1.2109-0.38672 1.5039 0.26172 3.0352 0.30859 0.98438 1.0938 0.86719 1.0195 0.21094 1.0508-0.03125 1.0195-0.625 0.21484-1.4453-0.097656-1.0391 0.79297-0.67578 1.3789-0.49609 0.59375-0.94141 0.88672-1.2969 0.88672-0.53906 0.625-0.96094 1.0273-0.89844 0.81641-0.78516 1.0742 0.19922 1.4609 0.44531 1.5977 0.15625 1.5469 1.4062 7.2031 0.49219 3.5586 2.5156 5.9961 5.1016 0.88672 0.6875 1.543 0.51172 0.53516 1.082 0.57422 1.1914 0.71484 1.4297 0.30859 1.0469 0.97656 0.42969 2.0977 2.0977 1.1445 0.80859 0.85547 0.62109 1.0273-0.12109 0.48047 0.94141-0.64453 0.94141 0.76562 1.2969 0.70312 1.2344 0.41406 1.2383 0.058593 1.3516 0.88672 0.96094 1.3086-0.17578 1.3242-0.28906 1.1992-0.37109 1.0742-0.125 1.0742-0.20703 1.8203 0.20703 1.4023 0.52344 1.4609 0.125 1.1484 0.75 1.1953 0.70703 1.4141 0.83984 1.0156 0.046875 1.4609-0.17969 1.1953 1.6367 1.3672 0.53125 0.92969 0.48828 1.2852-0.046875 1.3711-0.13281 1.5-0.44141 1.1523-0.13281h1.0156l0.97266-0.75 1.3281-0.88672 1.2812-0.44141 1.2344-0.29297 2.3477-0.058594 1.8125-0.046875 2.3008 0.089844 1.3281-0.53125 1.2812-0.75 1.1055-0.22266 1.8477 1.5273 1.4688 1.3125 1.3086 1.0859 1.1094 1.4648 1.1445 0.88672 1.2617 1.043 0.25 1.2461-0.039062 2.207 0.60156 0.99219 1.1797 0.30469 1.6719 0.14062 1.125 0.46094 0.91797-0.80469 0.60547-1.0898 1.25-1.7617 1.0781-0.73047 0.92969-0.39844 1.125-0.035157 0.83984 0.81641 1.1328 0.62109 1.1836 0.26562 1.3633 0.42578 1.3242 0.8125 1.5078-0.097657 1.4414-0.51172 0.94531-0.35547 1.7148-0.1875 1.0781 0.44141 0.75781-1.7227 1.5586-1.3789 0.87109-1.0781 0.36719-1.1211 1.3398 0.49219 0.73438 1.0469-0.058594 1.8633 0.23828 1.4414 1.082 2.043 0.78906 0.64453 1.4648 0.78125-0.066406 1.168-0.50391 1.4297-0.6875 0.98047-0.76953 1.4609-0.17969 1.9102-0.37891 1.9453 0.38281 1.1328 1.125 1.5977 0.81641 2.1602 0.082032 1.4336 0.20312 1.1562 1.2734-1.832 1.5195-1.9805 0.87109-2.5898 1.4961-1.2188 1.0508-1.6875 2.9961-3.7695 0.68359-1.0938 0.95703-1.5273 0.66016-1.6328 1.1016-1.9492 0.92188-1.3945 0.75391-1.0312 0.96875-0.66406 0.71484-1.3867 0.74609-0.70703 0.87891-0.80469 1.1094-0.38672 1.9062-0.33984 1.0781-0.375 2.0039-0.69141 2.2383-0.27734 1.2188 0.25391 1.7812 0.62109 1.793 0.21094 1.1797-1.5156 0.71094-0.89062 0.64453-0.80469 1.6797-1.2969 0.99609-1.0273 0.26172-1.043 0.78125-0.95703 1.2656-0.48828 1.7227-0.83984 1.3398 0.074219 1.9141 0.71094 0.55859 0.95312 2.7695 1.9023 0.28516 2.0547-0.85938 1.043-2.207 1.2227-0.69922 1.0312 0.14453 1.6445 0.75781 0.66016 1 0.34766 1.3203-0.52734 0.85156-1.0938 1.6016-0.42969 0.71875 0.83203-0.070312 1.1328 0.0625 1.375 1.0234 0.39844 1.3633-0.78516 0.67188 0.80469 0.83984 1.8008 0.48047 1.2031 0.54297 1.2617 0.27344 1.2969 0.47656 1.8477 0.76562 1.1992 0.20703 1.3555 1.4219 1.5977v1.5l-0.5625 0.96094-0.66797 0.98828-0.55469 1.3867-0.89062 1.6289-0.27344 1.2969 0.019531 1.0234-0.91406 1.7148-0.83203 0.90625-0.019532 1.4531-0.80859 1.7539-0.58203 1.5352-0.33203 1.2148-1.1484 1.2773-0.54688 1.6953-0.94922 1.168-0.84375 2.1289-0.035156 1.1328-1.6172 0.94141-1.0117 0.66406-1.1758 0.67188 1.0703 0.95703 1.1992 1.1992 1.3711 1.2578 0.14844 1.1211 0.78516 1.3906 1.1484 0.63281-0.050781 1.9961 0.15234 1.2578 0.4375 0.98047 0.56641 1.0078-0.33203 1.3672-0.72266 0.76172-1.0781 1.293 0.76562 1.7383 1.2344 2.0391 0.82031 1.4844 1.0586 1.8359 1.0117 1.3242 0.92188 1.8711 1.3867 1.7812 0.71875 1.2422 1.0625 2.2383 0.44922 0.99219-1.8516 0.95703-1.75 1.9883 0.13672 1.3945-0.29297 1.3359-0.125 1.0859 0.125 2.0039 0.33203 1.1289 0.042969 1.043-0.039063 1.3359v1.2109l0.125 1.125 0.20703 1.0859-0.375 1.043-0.66797 1.043-0.875 0.54297-1.1289 0.33594-0.25 1-0.29297 1.0039-0.47266 1.3594-0.44531 1.1016-0.5 0.87891v1l-0.33594 1.6289-0.70703 1.2109-1.3359 0.83203-0.62891 1.1289-0.625 1.168-1.3789 0.66797-1.082 0.042969-0.91016-0.76562-1.0234 0.83594-0.85938 1.2734-0.085937 1.3555-0.17188 1.0117-0.62891 1.4414-0.71484 1.8281 0.085937 1.0195 0.78906 1.7773-0.10156 1.4414 1.0117 1.8906 0.79688 0.90234 0.71094 0.76172 0.50391 0.96484 0.84766 1.0781 1.5078 1.25 1.3164 1.168 0.10156 1.5664-0.39453 1.1406-0.23438 2.5469 0.19531 2.0898 0.84766 1.6953-0.39453 0.95703-0.86719 1.1758-1.2148-0.0625-0.99219-0.24609-2.1758-0.25781-1.1523 0.082032-1.6211-0.042969-1.3984 0.015625-2.4531 0.33594-1.375 0.46875-0.61719 1.5273-0.51562 1.3281-1.2305 0.6875-0.89062 1.1719-0.19531 1.0391-0.085938 2.5156-0.46094 1.7539-1.1211 0.20312-0.90234 1.7852-0.46484 1.3594-0.32812 1.125 0.16406 1.3789 0.31641 1.2344 0.64062 1.1445 0.96094 1.2305 1.1172 1.6055 0.77734 1.9414 2.5859 2.3281 1.0195 1.2422 0.82031 1.6406 1.1445 2.293 1.2344 1.1719 0.90625 0.96484-0.23828 1.832 1.4883-0.55859 1.3047-0.22656 1.6875 0.58594 3.4492 0.46484 2-0.36719 1.5469 0.83984 0.62109 1.1172-0.52344 1.2891-0.67578 0.88281-0.57422 0.875-0.66797 1.0234-1.9727-0.078125-1.6055 0.25391-0.71875 1.1602-0.23047 1.0742-0.87891 2.1875-0.47656 0.88672-0.36719 1.4531 0.51562 1.4648 2.6797 1.4336 1.2383 0.10938 1.5586-0.26562 2.2539 0.8125 1.0391 0.87109 1.2852 0.63672 1.3828 0.79688 1.4102 0.51562 0.67188 0.78906 0.9375 1.9219 1.5898 0.83594 1.6875 0.58203 1.2148 0.38672 0.89062 0.88672 0.68359 0.87891 1.1758 0.67969 1.4883-0.92188 1.7266-0.62109-1.1875 1.6953-0.17969 1.8984-0.10547 1.1094-0.40234 1.6367 0.26953 1.2539 0.94141 2.2812 0.31641 1.0859 0.88672 0.67188 2.8555 1.5391 2.4023-0.55469 0.94141-0.94922 1.707 1.6016 0.20703 1.168-0.47656 1.5859 1.3281 2.8594 0.55859 1.1406 1.9258 2.3633 1.6914 2.5977 0.74609 0.90234 1.0078 0.71484 0.58984 0.80469-1.0859 1.2344-0.57422 1.5117 0.066406 1.7695-0.30078 1.1641-0.99609 0.76562-1.4258 0.75391-0.87891 0.48828 0.027343 1.0586 0.17969 1.0547 0.85547 1.5703-1.0508 1.7539-1.3516 1.6328-1.1758 2.1055-0.13672 1.0547 0.98438 1.3164 0.8125 1.2305 1.6602 2.0078-0.5 1.1328-0.33984 1.543-0.74219 2.1211-0.82422 1.9922-0.38281 1.8828-0.79297 0.96094-0.91797 0.88672-0.85547 1.3359-0.57422 3.3086-0.37891 1.7656-0.23828 1.2578-0.16016 1.0508-1.1836 1.1211-0.9375 0.56641-0.57812 0.83984-0.039062 1.3867-0.90625 1.293-0.73047 1.9062-0.65234 1.6484 0.035156 1.2773-0.058593 1.0391-1.8164 0.82812-2.0039-0.12109-1.2305-0.62891-1.0195-1.1758-1.0742-1.7383-0.94922-0.89062-0.99219-0.20703-0.84375-0.64844-8.7109 3.8828-1.1133 0.48438-0.51953 0.875-0.12109 1.1875 0.38281 1.0742 0.26172 1.0078-0.03125 1.1328-0.39453 1.168-0.32422 1.0625-0.33984 1.043-1.1719 0.76172-1.3125 0.44531-0.70703 0.94531-0.70312 0.92188-0.76562 0.76953-0.44922 1.9492-0.35156 1.2344-0.67188 3.4688-3.668 1.5312-1.0156 2.6055-0.98828 1.0742-0.66406 1.0234-0.25 1.8789-1.2852 0.36719-1.4297 0.46094-0.61328 0.97266-0.71875 0.83203-0.63672 0.89844-0.92969 1.2188-1.9453 0.58203-0.75781 0.90625-1.6484 1.0352-0.60938 1.0117-1.3086 0.70312-1.9141 0.55078-1.1016 0.23047-1.2188 1.5391-1.2773 0.15625-0.058594 1.5859-0.92969 0.72266-1.332 1.0156-0.49609 1.918-0.28906 1.1602-0.32031 1.3047 0.32031 2.0625-1.4375 2.2383-1.2188 1.1406-0.76562 1.0586-1.1406 0.45312-2.1172 0.35938-1.1875 0.58594-1.4766 0.28516-1.2773-0.14453-1.0156 0.085938-1.7109-0.027344-1.4805 0.17188-1.5117-0.63672-1.3867-1.0586-2.0938 1.1758-1.2188 1.332-1.3945 0.72656-0.85938 0.80078-2.6523 0.17969-1.3945 0.34766-1.9805 0.75781-3.6016 0.91016-1.1094-1.1172-0.90234-1.3945-1.2188-2.5586-0.23828-1.1172-0.16016-1.7695-0.089844-1.3164 0.23438-1.2812 1.1172-3.3164 0.26172-1.6445 0.35156-1.8594-0.32031-1.4531-0.77734-1.5117-0.21875-1.1523-0.16797-1.3047-0.77734-1.2344-0.54688-1.2695-0.5-1.6055-0.058594-1.2656 0.47656-1.0938 0.44531-1.293-0.58984-1.7383-0.87109-0.74219-1.9766-1.2148-0.57812-1.6211-0.625-1.3086-0.86719-2.0273-1.0781-0.68359-0.67578-1.0352-0.91016-0.6875-0.88672-1.5586-0.4375-2.6016-0.52734-1.3164-1.0508-1.6055-1.1367-1.3125-0.83984-1.168-0.85938-0.76953-0.74219-1.6328-0.86719-0.69922-1.1484-0.89062-1.4805-0.78125-0.84375-0.83203-0.11719-1.0117-0.55078-2.4258-0.28125-1.3008-1.7305-0.99609-1.4609-0.87891-1.168-1.2383-1.0938-1.5234-1.3594-1.4609-0.55859-1.0586-0.11328-1.0547 0.16016-1.4062 1.0625-0.61328 0.73438-1.707-0.28516-1.3242-0.44922-1.0625-0.26562-1.8086-0.35938-2.3086-0.28516-1.6289-0.65234-1.6484-0.11719-1.5898-0.83594-1.7227 0.31641-1.9297 1.0781-2.5391 0.375-1.1367-0.027343-1.043-1.1914-0.75391-1.3398-1.625-2.0781-3.543-1.0039-2.3008-1.2969-0.98438-1.6719-0.98438-1.5508-0.32812-1.125 0.070312-1.6016-0.019531-1.2148-0.054687-1.1992-0.25781-1.2773-0.10938-1.25-0.28516-0.97656-0.45312-0.95703-1.2578 0.31641-2.0117 0.40625-3.1758 0.50781-2.0586-0.94531-1.5898-0.92969-0.38281-1.4805-0.17969-1.1328-0.61719-0.6875-1.3047-0.23047-2.0469-0.89453-3.0273-0.71875-1.4805-0.9375-1.0898-2.2891-1.1055-1.1133-0.0625-1.7383 0.42969-1.0117 0.30859-1.4727 0.46484-1.2344 0.39062-1.5078 0.87109-0.69922 0.71484-0.12109 1-0.16016 1.3594-1.1211 0.91016-0.98828 0.23828-0.89844 0.46094-0.73438 0.9375-1.1719 1.6914-1.8398 1.2734-1.1602 0.4375-2.1055 1.3125-1.1328 0.41016-1.6328 0.82031-0.73828 0.80078-1.3125 1.4102-0.54688 1.1172-0.32422 2.6133 0.027343 1.9609 0.023438 1.75-0.23438 1.3047-0.011719 1.5664-0.48438 0.94141-1.0703 0.54688-1.0156 0.21094-0.86328 0.58594-0.82422 1.25-1.25 1.0234-0.74609 1.0273-1.1094 1.1367-0.95312 0.73047-0.91406 0.48438-1.3711-0.039062-1.4727-0.27344-1.2422-0.46875-0.91797-0.73828-0.59375-1.0781-0.44141-1.0508-0.63672-1.2812-0.42578-1.4922-0.41406-1.75-0.34375-1.4922-1.2383-1.4102-0.56641-0.86328-0.76172-0.67188-1.4883-2.6172-0.99609-1.375-0.042969-1.3477-1.3828-1.2188-1.6914 1.793 1.3945 1.6953-1.6289 2.0898 0.91016 1.0391 0.058594 1.0195-0.88672 2.0156-1.0625-0.24219-1.1484 0.078125-1.1719 0.58594-0.94531 1.7617-0.29297 1.0977-0.14453 1.1797 0.30859 1.0977-1.4219 0.75-1.2695 1.4727-0.78906 2.6328-0.30859 0.95312-1.4258 2.7969-0.47656 1.1484-0.42578 1.0234-1.0664 2.4375-1.7188 5.2812-1.0781 2.0078-2.3477 2.5625-1.7422-0.089843-1.5078-0.085938-1.7148-0.24609-1.2656-0.63672-0.73047-0.91406-0.83984-1.207-0.84375-1.7148-0.34375-0.95703-0.6875-2.5469-0.49219-1.5742-0.82031-2.4844-0.93359-0.78516-0.97266-0.53125-1.3711-0.88281-1.2773-0.65234-1.0625-0.17969-1.2773-0.41016-1.1992-0.015625-1.0938 0.74609-1.0625 0.054687-1.3203-0.17188-0.92578-0.43359-0.375-1.1992-0.35547-1.1094-0.44531-1.2344-0.30859-0.99219-0.17188-1.0352 0.37891-1.3125 0.25391-1.082 0.22656-1.1641 0.31641-0.98438 0.54297-1.0742-0.48828-0.87891-1.0039-0.85156-0.96484-0.67188-1.1445-0.36328-0.55469-1.1406-0.57031-1.0469-0.61719-1.7344-0.34766-1.8359-0.29297-1.0312-0.17969-1.0742-0.44531-0.97656-0.80859-1.0469-0.26562-0.99219 0.19531-1.4922 0.10938-1.5742-0.39453-1.1406-0.73438-1.0508-0.16797-1.6719-0.23828-1.2852 0.40625-1.0039-0.14062-1.0469-1.1641-0.25391-0.35547-1.2383-0.125-1.2539 0.011719-2.2617-0.066407-1.2266-0.15625-1.0039-0.17969-1.2852-0.15234-1.1445 0.59375-0.96875 1.2344-1.5625 0.35156-1.9688 0.16016-1.0586 0.32031-2.043 0.17578-1.1055-0.085938-1.1016-0.035156-1.4922-0.042969-1.1484 0.25391-1.2031 0.57812-1.2695 0.58984-1.207 0.10156-1.1758-0.023438-1.5234 0.0625-1.3359-0.082031-1.1367 1.0898-0.71875 0.73047-1.2773 0.25-2.293 0.85547-0.94531 1.2539-0.66797 1.1172-0.16406 1.3398-0.37109 0.73047-1.6758 0.29688-1.4766 0.3125-1.0039 0.23438-1.1406-0.125-1.043 1.043-0.27344 1.1797-0.046875 1.5508-0.27344 1.2266-0.82031 0.96875-0.51172 1.0234 0.36328 0.98438-0.51562 1.2852 0.035157 0.41406-1.0859 0.29688-1.0039 0.57422-0.92578 0.82031-1.168 0.58594-1.1602 0.22656-1.4102 0.12891-1.1602 0.53125-1.0234 0.16016-1.3203 0.40625-1.1016 0.88281-0.71875 1.3008-0.4375 0.62109-0.89844-0.070313-1.1758-0.10156-1.3477-0.32422-1-0.52734-1.1016 0.042969-1.2734 0.17578-1.4102 0.13281-1.0977-0.30859-1.1016-0.042969-1.4961-0.61328-0.96484-1.0586-1.4102-0.74609-1.3633-0.30859-1.3164-0.79297-1.3203-0.4375-1.2305 0.52734-2.1133 0.042969-1.7891-0.85547-0.53125h-1.4805l-1.1953-0.058593-1.4805 0.28516-0.96484 0.68359-1.0273-0.73828-0.73828-0.74219-0.79688-0.625-0.57031-1.7656-1.5938-0.17188 0.22656-1.25 0.74219-1.2539 0.96484-0.625 0.23047-1.5938 1.3086-1.3672 1.1367-0.85156 1.4258-1.3125 0.16797-1.6484 0.11719-1.4805 0.33984-1.1367 0.73828-0.91406 0.34375-1.1367 0.33984-1.1953 0.57031-0.96875 0.79688-1.9922 1.3672-1.4805 1.0156-1.5586 0.14844-1.2031 0.71484-1.207 0.56641-0.90234 0.15234-1.0195 0.41406-1.6562 0.26172-1.1289 0.1875-1.0156 0.52734-0.86719 0.11328-1.4297-1.168-0.37891-0.30078-1.2812-0.45312-1.6172-0.074218-1.8086 0.22656-1.2812v-1.2812l0.1875-1.0898 0.37891-2.2969 0.074219-1.7891 1.2422-1.5469 0.94141-0.94141 0.86719-1.168 0.039063-1.0898 0.14844-1.1289 0.71484-1.8477 0.86719-1.0547-0.82812-1.2031-0.79297-1.2812-0.14844-1.7344 0.074219-1.0547-0.30078-1.5781-0.33984-1.4727-1.0156-0.86328-0.1875-1.7344-0.30078-1.2031-0.22656-1.6562 0.26172-1.0195 0.41406-1.0156 0.56641-0.90625 0.67578-1.3906 1.0195-1.1289 1.3945-1.7734 0.97656-0.90234 0.86719-1.3945 0.52734-1.2422 0.98047-1.4688 0.86328-1.4297-1.2031-0.62109-0.71484-0.94141-1.0195-0.94141-0.26172-1.0547-0.98047-0.98047-0.074219-1.582-0.039062-1.4688 0.30078-1.7695 0.71875-1.6211-1.6055-0.875-1.2852 0.35938-1.7617-0.10156-1.3203-0.97266-0.55078-1.0586 0.085938-1.0547 0.14453-1.0352 0.085938-1.457 0.22266-1.1055 0.074219-1.6367 0.27344-1.6055 0.42188-1.2461 0.27734-1.1602 0.44531-1.668 0.60938-0.99219 1.0312-0.65625 1.2891-0.085937 0.42188-1.0117-0.29297-1.0117-0.47656-1.2422-0.12109-1.2383-0.58594-1.2148-0.69531-0.86719-1.1016 0.066406-0.94141-0.52734-0.64844-0.88281 0.55078-1.043 0.21094-1.7969-0.21094-2.4258 0.37109-1.1875 0.89844-1.9023 0.52734-1.082-0.34375-1.082-1.7422-0.97656-0.90625-0.52734-1.7578-2.0078-1.375 0.027344-1.5312 0.79297-0.94531 1.1133-0.83203 0.75-1.0195 1.1172-1.582-0.60547-0.92578-0.79297-0.83203-0.63672-1.043-0.6875-1.5273-0.78516-0.63281-0.89844-0.22266-1.1523-1.8008 0.23828-1.2969 0.007812-1.6445-1.1797-1.2656-1.2109-0.55469-1.0586-0.57422-1.8984-0.875-0.79297-1.1367-0.84375-1.1328-0.69922 0.41016-1.5508 0.56641-0.9375 0.67969-0.98438 1.1055-1.2891 0.78125-1.1797 1.0977-0.98047 1.3281-0.67188 1.043-0.90625 0.89062-0.73828 1.3398-0.40234 0.73828-1.2773 1.207-1.2812 1.2344-0.64062 1.1133 0.52734 1.7227 0.27734 1.1953-0.66797 0.91797-1.3789 0.4375-1.0039 1.1016-0.25 1.1562-0.16797 0.10938-1.3242-0.875-0.82422-0.89062-1.1445-0.25-1.0547-0.39844-1.0234-0.26562-1.332 1.1367-0.91797 0.80078-0.625 0.46484-0.94141-0.16406-1.5469-0.43359-1.1133-0.87891-0.90625 0.74609-2.1797-0.34766-1.3008-1.0703-2.0195-0.25391-1.4023 0.25391-1.3438 0.375-1.418 0.65234-1.1133 1.293-0.98438 1.4141-2.1523 1.1328-1.2109 0.39844-1.125 0.48438-0.94922 0.125-1 0.91797-0.5 0.875-0.5625 1.6758-1.7539 1.2891-0.45312 1.168-0.25 1.1406-0.32812z" fill="#ccc" fill-rule="evenodd"/>
<path d="m70.758 0.054688 1.0625 0.375 1.1133 1.7812 1.0508 1.3945 0.82812 0.72656 1.3008-0.050781 1.082 0.125 1.0938-0.050781 0.74609-1.0117 1.1719-0.77734 1.0586 0.24219 1.0781 0.85547 0.65625 1.1914 0.26172 1.0469 0.62109 1.2461 0.097656 1.293 0.45703 1.2227 0.6875 0.83984 0.46875 0.98828 0.96484 0.51953 0.82031 0.94922 1.0352 0.375 1.043 0.4375 0.12109 1.3906-0.054687 1.6562 0.20703 1.3203-0.9375 1.1133-1.0039 0.54688-0.11328 1.6445-0.41406 1.1328 0.011719 1.1211-0.55078 0.87109 0.36328 1.4336 0.92578 1.1172 0.21875 1.7227 0.49219 1.5898 0.34375 1.5273 0.039063 1.1133-0.074219 1.0391 0.054688 1.2109-0.38672 1.5039 0.26172 3.0352 0.30859 0.98438 1.0938 0.86719 1.0195 0.21094 1.0508-0.03125 1.0195-0.625 0.21484-1.4453-0.097656-1.0391 0.79297-0.67578 1.3789-0.49609 0.59375-0.94141 0.88672-1.2969 0.88672-0.53906 0.625-0.96094 1.0273-0.89844 0.81641-0.78516 1.0742 0.19922 1.4609 0.44531 1.5977 0.15625 1.5469 1.4062 7.2031 0.49219 3.5586 2.5156 5.9961 5.1016 0.88672 0.6875 1.543 0.51172 0.53516 1.082 0.57422 1.1914 0.71484 1.4297 0.30859 1.0469 0.97656 0.42969 2.0977 2.0977 1.1445 0.80859 0.85547 0.62109 1.0273-0.12109 0.48047 0.94141-0.64453 0.94141 0.76562 1.2969 0.70312 1.2344 0.41406 1.2383 0.058593 1.3516 0.88672 0.96094 1.3086-0.17578 1.3242-0.28906 1.1992-0.37109 1.0742-0.125 1.0742-0.20703 1.8203 0.20703 1.4023 0.52344 1.4609 0.125 1.1484 0.75 1.1953 0.70703 1.4141 0.83984 1.0156 0.046875 1.4609-0.17969 1.1953 1.6367 1.3672 0.53125 0.92969 0.48828 1.2852-0.046875 1.3711-0.13281 1.5-0.44141 1.1523-0.13281h1.0156l0.97266-0.75 1.3281-0.88672 1.2812-0.44141 1.2344-0.29297 2.3477-0.058594 1.8125-0.046875 2.3008 0.089844 1.3281-0.53125 1.2812-0.75 1.1055-0.22266 1.8477 1.5273 1.4688 1.3125 1.3086 1.0859 1.1094 1.4648 1.1445 0.88672 1.2617 1.043 0.25 1.2461-0.039062 2.207 0.60156 0.99219 1.1797 0.30469 1.6719 0.14062 1.125 0.46094 0.91797-0.80469 0.60547-1.0898 1.25-1.7617 1.0781-0.73047 0.92969-0.39844 1.125-0.035157 0.83984 0.81641 1.1328 0.62109 1.1836 0.26562 1.3633 0.42578 1.3242 0.8125 1.5078-0.097657 1.4414-0.51172 0.94531-0.35547 1.7148-0.1875 1.0781 0.44141 0.75781-1.7227 1.5586-1.3789 0.87109-1.0781 0.36719-1.1211 1.3398 0.49219 0.73438 1.0469-0.058594 1.8633 0.23828 1.4414 1.082 2.043 0.78906 0.64453 1.4648 0.78125-0.066406 1.168-0.50391 1.4297-0.6875 0.98047-0.76953 1.4609-0.17969 1.9102-0.37891 1.9453 0.38281 1.1328 1.125 1.5977 0.81641 2.1602 0.082032 1.4336 0.20312 1.1562 1.2734-1.832 1.5195-1.9805 0.87109-2.5898 1.4961-1.2188 1.0508-1.6875 2.9961-3.7695 0.68359-1.0938 0.95703-1.5273 0.66016-1.6328 1.1016-1.9492 0.92188-1.3945 0.75391-1.0312 0.96875-0.66406 0.71484-1.3867 0.74609-0.70703 0.87891-0.80469 1.1094-0.38672 1.9062-0.33984 1.0781-0.375 2.0039-0.69141 2.2383-0.27734 1.2188 0.25391 1.7812 0.62109 1.793 0.21094 1.1797-1.5156 0.71094-0.89062 0.64453-0.80469 1.6797-1.2969 0.99609-1.0273 0.26172-1.043 0.78125-0.95703 1.2656-0.48828 1.7227-0.83984 1.3398 0.074219 1.9141 0.71094 0.55859 0.95312 2.7695 1.9023 0.28516 2.0547-0.85938 1.043-2.207 1.2227-0.69922 1.0312 0.14453 1.6445 0.75781 0.66016 1 0.34766 1.3203-0.52734 0.85156-1.0938 1.6016-0.42969 0.71875 0.83203-0.070312 1.1328 0.0625 1.375 1.0234 0.39844 1.3633-0.78516 0.67188 0.80469 0.83984 1.8008 0.48047 1.2031 0.54297 1.2617 0.27344 1.2969 0.47656 1.8477 0.76562 1.1992 0.20703 1.3555 1.4219 1.5977v1.5l-0.5625 0.96094-0.66797 0.98828-0.55469 1.3867-0.89062 1.6289-0.27344 1.2969 0.019531 1.0234-0.91406 1.7148-0.83203 0.90625-0.019532 1.4531-0.80859 1.7539-0.58203 1.5352-0.33203 1.2148-1.1484 1.2773-0.54688 1.6953-0.94922 1.168-0.84375 2.1289-0.035156 1.1328-1.6172 0.94141-1.0117 0.66406-1.1758 0.67188 1.0703 0.95703 1.1992 1.1992 1.3711 1.2578 0.14844 1.1211 0.78516 1.3906 1.1484 0.63281-0.050781 1.9961 0.15234 1.2578 0.4375 0.98047 0.56641 1.0078-0.33203 1.3672-0.72266 0.76172-1.0781 1.293 0.76562 1.7383 1.2344 2.0391 0.82031 1.4844 1.0586 1.8359 1.0117 1.3242 0.92188 1.8711 1.3867 1.7812 0.71875 1.2422 1.0625 2.2383 0.44922 0.99219-1.8516 0.95703-1.75 1.9883 0.13672 1.3945-0.29297 1.3359-0.125 1.0859 0.125 2.0039 0.33203 1.1289 0.042969 1.043-0.039063 1.3359v1.2109l0.125 1.125 0.20703 1.0859-0.375 1.043-0.66797 1.043-0.875 0.54297-1.1289 0.33594-0.25 1-0.29297 1.0039-0.47266 1.3594-0.44531 1.1016-0.5 0.87891v1l-0.33594 1.6289-0.70703 1.2109-1.3359 0.83203-0.62891 1.1289-0.625 1.168-1.3789 0.66797-1.082 0.042969-0.91016-0.76562-1.0234 0.83594-0.85938 1.2734-0.085937 1.3555-0.17188 1.0117-0.62891 1.4414-0.71484 1.8281 0.085937 1.0195 0.78906 1.7773-0.10156 1.4414 1.0117 1.8906 0.79688 0.90234 0.71094 0.76172 0.50391 0.96484 0.84766 1.0781 1.5078 1.25 1.3164 1.168 0.10156 1.5664-0.39453 1.1406-0.23438 2.5469 0.19531 2.0898 0.84766 1.6953-0.39453 0.95703-0.86719 1.1758-1.2148-0.0625-0.99219-0.24609-2.1758-0.25781-1.1523 0.082032-1.6211-0.042969-1.3984 0.015625-2.4531 0.33594-1.375 0.46875-0.61719 1.5273-0.51562 1.3281-1.2305 0.6875-0.89062 1.1719-0.19531 1.0391-0.085938 2.5156-0.46094 1.7539-1.1211 0.20312-0.90234 1.7852-0.46484 1.3594-0.32812 1.125 0.16406 1.3789 0.31641 1.2344 0.64062 1.1445 0.96094 1.2305 1.1172 1.6055 0.77734 1.9414 2.5859 2.3281 1.0195 1.2422 0.82031 1.6406 1.1445 2.293 1.2344 1.1719 0.90625 0.96484-0.23828 1.832 1.4883-0.55859 1.3047-0.22656 1.6875 0.58594 3.4492 0.46484 2-0.36719 1.5469 0.83984 0.62109 1.1172-0.52344 1.2891-0.67578 0.88281-0.57422 0.875-0.66797 1.0234-1.9727-0.078125-1.6055 0.25391-0.71875 1.1602-0.23047 1.0742-0.87891 2.1875-0.47656 0.88672-0.36719 1.4531 0.51562 1.4648 2.6797 1.4336 1.2383 0.10938 1.5586-0.26562 2.2539 0.8125 1.0391 0.87109 1.2852 0.63672 1.3828 0.79688 1.4102 0.51562 0.67188 0.78906 0.9375 1.9219 1.5898 0.83594 1.6875 0.58203 1.2148 0.38672 0.89062 0.88672 0.68359 0.87891 1.1758 0.67969 1.4883-0.92188 1.7266-0.62109-1.1875 1.6953-0.17969 1.8984-0.10547 1.1094-0.40234 1.6367 0.26953 1.2539 0.94141 2.2812 0.31641 1.0859 0.88672 0.67188 2.8555 1.5391 2.4023-0.55469 0.94141-0.94922 1.707 1.6016 0.20703 1.168-0.47656 1.5859 1.3281 2.8594 0.55859 1.1406 1.9258 2.3633 1.6914 2.5977 0.74609 0.90234 1.0078 0.71484 0.58984 0.80469-1.0859 1.2344-0.57422 1.5117 0.066406 1.7695-0.30078 1.1641-0.99609 0.76562-1.4258 0.75391-0.87891 0.48828 0.027343 1.0586 0.17969 1.0547 0.85547 1.5703-1.0508 1.7539-1.3516 1.6328-1.1758 2.1055-0.13672 1.0547 0.98438 1.3164 0.8125 1.2305 1.6602 2.0078-0.5 1.1328-0.33984 1.543-0.74219 2.1211-0.82422 1.9922-0.38281 1.8828-0.79297 0.96094-0.91797 0.88672-0.85547 1.3359-0.57422 3.3086-0.37891 1.7656-0.23828 1.2578-0.16016 1.0508-1.1836 1.1211-0.9375 0.56641-0.57812 0.83984-0.039062 1.3867-0.90625 1.293-0.73047 1.9062-0.65234 1.6484 0.035156 1.2773-0.058593 1.0391-1.8164 0.82812-2.0039-0.12109-1.2305-0.62891-1.0195-1.1758-1.0742-1.7383-0.94922-0.89062-0.99219-0.20703-0.84375-0.64844-8.7109 3.8828-1.1133 0.48438-0.51953 0.875-0.12109 1.1875 0.38281 1.0742 0.26172 1.0078-0.03125 1.1328-0.39453 1.168-0.32422 1.0625-0.33984 1.043-1.1719 0.76172-1.3125 0.44531-0.70703 0.94531-0.70312 0.92188-0.76562 0.76953-0.44922 1.9492-0.35156 1.2344-0.67188 3.4688-3.668 1.5312-1.0156 2.6055-0.98828 1.0742-0.66406 1.0234-0.25 1.8789-1.2852 0.36719-1.4297 0.46094-0.61328 0.97266-0.71875 0.83203-0.63672 0.89844-0.92969 1.2188-1.9453 0.58203-0.75781 0.90625-1.6484 1.0352-0.60938 1.0117-1.3086 0.70312-1.9141 0.55078-1.1016 0.23047-1.2188 1.5391-1.2773 0.15625-0.058594 1.5859-0.92969 0.72266-1.332 1.0156-0.49609 1.918-0.28906 1.1602-0.32031 1.3047 0.32031 2.0625-1.4375 2.2383-1.2188 1.1406-0.76562 1.0586-1.1406 0.45312-2.1172 0.35938-1.1875 0.58594-1.4766 0.28516-1.2773-0.14453-1.0156 0.085938-1.7109-0.027344-1.4805 0.17188-1.5117-0.63672-1.3867-1.0586-2.0938 1.1758-1.2188 1.332-1.3945 0.72656-0.85938 0.80078-2.6523 0.17969-1.3945 0.34766-1.9805 0.75781-3.6016 0.91016-1.1094-1.1172-0.90234-1.3945-1.2188-2.5586-0.23828-1.1172-0.16016-1.7695-0.089844-1.3164 0.23438-1.2812 1.1172-3.3164 0.26172-1.6445 0.35156-1.8594-0.32031-1.4531-0.77734-1.5117-0.21875-1.1523-0.16797-1.3047-0.77734-1.2344-0.54688-1.2695-0.5-1.6055-0.058594-1.2656 0.47656-1.0938 0.44531-1.293-0.58984-1.7383-0.87109-0.74219-1.9766-1.2148-0.57812-1.6211-0.625-1.3086-0.86719-2.0273-1.0781-0.68359-0.67578-1.0352-0.91016-0.6875-0.88672-1.5586-0.4375-2.6016-0.52734-1.3164-1.0508-1.6055-1.1367-1.3125-0.83984-1.168-0.85938-0.76953-0.74219-1.6328-0.86719-0.69922-1.1484-0.89062-1.4805-0.78125-0.84375-0.83203-0.11719-1.0117-0.55078-2.4258-0.28125-1.3008-1.7305-0.99609-1.4609-0.87891-1.168-1.2383-1.0938-1.5234-1.3594-1.4609-0.55859-1.0586-0.11328-1.0547 0.16016-1.4062 1.0625-0.61328 0.73438-1.707-0.28516-1.3242-0.44922-1.0625-0.26562-1.8086-0.35938-2.3086-0.28516-1.6289-0.65234-1.6484-0.11719-1.5898-0.83594-1.7227 0.31641-1.9297 1.0781-2.5391 0.375-1.1367-0.027343-1.043-1.1914-0.75391-1.3398-1.625-2.0781-3.543-1.0039-2.3008-1.2969-0.98438-1.6719-0.98438-1.5508-0.32812-1.125 0.070312-1.6016-0.019531-1.2148-0.054687-1.1992-0.25781-1.2773-0.10938-1.25-0.28516-0.97656-0.45312-0.95703-1.2578 0.31641-2.0117 0.40625-3.1758 0.50781-2.0586-0.94531-1.5898-0.92969-0.38281-1.4805-0.17969-1.1328-0.61719-0.6875-1.3047-0.23047-2.0469-0.89453-3.0273-0.71875-1.4805-0.9375-1.0898-2.2891-1.1055-1.1133-0.0625-1.7383 0.42969-1.0117 0.30859-1.4727 0.46484-1.2344 0.39062-1.5078 0.87109-0.69922 0.71484-0.12109 1-0.16016 1.3594-1.1211 0.91016-0.98828 0.23828-0.89844 0.46094-0.73438 0.9375-1.1719 1.6914-1.8398 1.2734-1.1602 0.4375-2.1055 1.3125-1.1328 0.41016-1.6328 0.82031-0.73828 0.80078-1.3125 1.4102-0.54688 1.1172-0.32422 2.6133 0.027343 1.9609 0.023438 1.75-0.23438 1.3047-0.011719 1.5664-0.48438 0.94141-1.0703 0.54688-1.0156 0.21094-0.86328 0.58594-0.82422 1.25-1.25 1.0234-0.74609 1.0273-1.1094 1.1367-0.95312 0.73047-0.91406 0.48438-1.3711-0.039062-1.4727-0.27344-1.2422-0.46875-0.91797-0.73828-0.59375-1.0781-0.44141-1.0508-0.63672-1.2812-0.42578-1.4922-0.41406-1.75-0.34375-1.4922-1.2383-1.4102-0.56641-0.86328-0.76172-0.67188-1.4883-2.6172-0.99609-1.375-0.042969-1.3477-1.3828-1.2188-1.6914 1.793 1.3945 1.6953-1.6289 2.0898 0.91016 1.0391 0.058594 1.0195-0.88672 2.0156-1.0625-0.24219-1.1484 0.078125-1.1719 0.58594-0.94531 1.7617-0.29297 1.0977-0.14453 1.1797 0.30859 1.0977-1.4219 0.75-1.2695 1.4727-0.78906 2.6328-0.30859 0.95312-1.4258 2.7969-0.47656 1.1484-0.42578 1.0234-1.0664 2.4375-1.7188 5.2812-1.0781 2.0078-2.3477 2.5625-1.7422-0.089843-1.5078-0.085938-1.7148-0.24609-1.2656-0.63672-0.73047-0.91406-0.83984-1.207-0.84375-1.7148-0.34375-0.95703-0.6875-2.5469-0.49219-1.5742-0.82031-2.4844-0.93359-0.78516-0.97266-0.53125-1.3711-0.88281-1.2773-0.65234-1.0625-0.17969-1.2773-0.41016-1.1992-0.015625-1.0938 0.74609-1.0625 0.054687-1.3203-0.17188-0.92578-0.43359-0.375-1.1992-0.35547-1.1094-0.44531-1.2344-0.30859-0.99219-0.17188-1.0352 0.37891-1.3125 0.25391-1.082 0.22656-1.1641 0.31641-0.98438 0.54297-1.0742-0.48828-0.87891-1.0039-0.85156-0.96484-0.67188-1.1445-0.36328-0.55469-1.1406-0.57031-1.0469-0.61719-1.7344-0.34766-1.8359-0.29297-1.0312-0.17969-1.0742-0.44531-0.97656-0.80859-1.0469-0.26562-0.99219 0.19531-1.4922 0.10938-1.5742-0.39453-1.1406-0.73438-1.0508-0.16797-1.6719-0.23828-1.2852 0.40625-1.0039-0.14062-1.0469-1.1641-0.25391-0.35547-1.2383-0.125-1.2539 0.011719-2.2617-0.066407-1.2266-0.15625-1.0039-0.17969-1.2852-0.15234-1.1445 0.59375-0.96875 1.2344-1.5625 0.35156-1.9688 0.16016-1.0586 0.32031-2.043 0.17578-1.1055-0.085938-1.1016-0.035156-1.4922-0.042969-1.1484 0.25391-1.2031 0.57812-1.2695 0.58984-1.207 0.10156-1.1758-0.023438-1.5234 0.0625-1.3359-0.082031-1.1367 1.0898-0.71875 0.73047-1.2773 0.25-2.293 0.85547-0.94531 1.2539-0.66797 1.1172-0.16406 1.3398-0.37109 0.73047-1.6758 0.29688-1.4766 0.3125-1.0039 0.23438-1.1406-0.125-1.043 1.043-0.27344 1.1797-0.046875 1.5508-0.27344 1.2266-0.82031 0.96875-0.51172 1.0234 0.36328 0.98438-0.51562 1.2852 0.035157 0.41406-1.0859 0.29688-1.0039 0.57422-0.92578 0.82031-1.168 0.58594-1.1602 0.22656-1.4102 0.12891-1.1602 0.53125-1.0234 0.16016-1.3203 0.40625-1.1016 0.88281-0.71875 1.3008-0.4375 0.62109-0.89844-0.070313-1.1758-0.10156-1.3477-0.32422-1-0.52734-1.1016 0.042969-1.2734 0.17578-1.4102 0.13281-1.0977-0.30859-1.1016-0.042969-1.4961-0.61328-0.96484-1.0586-1.4102-0.74609-1.3633-0.30859-1.3164-0.79297-1.3203-0.4375-1.2305 0.52734-2.1133 0.042969-1.7891-0.85547-0.53125h-1.4805l-1.1953-0.058593-1.4805 0.28516-0.96484 0.68359-1.0273-0.73828-0.73828-0.74219-0.79688-0.625-0.57031-1.7656-1.5938-0.17188 0.22656-1.25 0.74219-1.2539 0.96484-0.625 0.23047-1.5938 1.3086-1.3672 1.1367-0.85156 1.4258-1.3125 0.16797-1.6484 0.11719-1.4805 0.33984-1.1367 0.73828-0.91406 0.34375-1.1367 0.33984-1.1953 0.57031-0.96875 0.79688-1.9922 1.3672-1.4805 1.0156-1.5586 0.14844-1.2031 0.71484-1.207 0.56641-0.90234 0.15234-1.0195 0.41406-1.6562 0.26172-1.1289 0.1875-1.0156 0.52734-0.86719 0.11328-1.4297-1.168-0.37891-0.30078-1.2812-0.45312-1.6172-0.074218-1.8086 0.22656-1.2812v-1.2812l0.1875-1.0898 0.37891-2.2969 0.074219-1.7891 1.2422-1.5469 0.94141-0.94141 0.86719-1.168 0.039063-1.0898 0.14844-1.1289 0.71484-1.8477 0.86719-1.0547-0.82812-1.2031-0.79297-1.2812-0.14844-1.7344 0.074219-1.0547-0.30078-1.5781-0.33984-1.4727-1.0156-0.86328-0.1875-1.7344-0.30078-1.2031-0.22656-1.6562 0.26172-1.0195 0.41406-1.0156 0.56641-0.90625 0.67578-1.3906 1.0195-1.1289 1.3945-1.7734 0.97656-0.90234 0.86719-1.3945 0.52734-1.2422 0.98047-1.4688 0.86328-1.4297-1.2031-0.62109-0.71484-0.94141-1.0195-0.94141-0.26172-1.0547-0.98047-0.98047-0.074219-1.582-0.039062-1.4688 0.30078-1.7695 0.71875-1.6211-1.6055-0.875-1.2852 0.35938-1.7617-0.10156-1.3203-0.97266-0.55078-1.0586 0.085938-1.0547 0.14453-1.0352 0.085938-1.457 0.22266-1.1055 0.074219-1.6367 0.27344-1.6055 0.42188-1.2461 0.27734-1.1602 0.44531-1.668 0.60938-0.99219 1.0312-0.65625 1.2891-0.085937 0.42188-1.0117-0.29297-1.0117-0.47656-1.2422-0.12109-1.2383-0.58594-1.2148-0.69531-0.86719-1.1016 0.066406-0.94141-0.52734-0.64844-0.88281 0.55078-1.043 0.21094-1.7969-0.21094-2.4258 0.37109-1.1875 0.89844-1.9023 0.52734-1.082-0.34375-1.082-1.7422-0.97656-0.90625-0.52734-1.7578-2.0078-1.375 0.027344-1.5312 0.79297-0.94531 1.1133-0.83203 0.75-1.0195 1.1172-1.582-0.60547-0.92578-0.79297-0.83203-0.63672-1.043-0.6875-1.5273-0.78516-0.63281-0.89844-0.22266-1.1523-1.8008 0.23828-1.2969 0.007812-1.6445-1.1797-1.2656-1.2109-0.55469-1.0586-0.57422-1.8984-0.875-0.79297-1.1367-0.84375-1.1328-0.69922 0.41016-1.5508 0.56641-0.9375 0.67969-0.98438 1.1055-1.2891 0.78125-1.1797 1.0977-0.98047 1.3281-0.67188 1.043-0.90625 0.89062-0.73828 1.3398-0.40234 0.73828-1.2773 1.207-1.2812 1.2344-0.64062 1.1133 0.52734 1.7227 0.27734 1.1953-0.66797 0.91797-1.3789 0.4375-1.0039 1.1016-0.25 1.1562-0.16797 0.10938-1.3242-0.875-0.82422-0.89062-1.1445-0.25-1.0547-0.39844-1.0234-0.26562-1.332 1.1367-0.91797 0.80078-0.625 0.46484-0.94141-0.16406-1.5469-0.43359-1.1133-0.87891-0.90625 0.74609-2.1797-0.34766-1.3008-1.0703-2.0195-0.25391-1.4023 0.25391-1.3438 0.375-1.418 0.65234-1.1133 1.293-0.98438 1.4141-2.1523 1.1328-1.2109 0.39844-1.125 0.48438-0.94922 0.125-1 0.91797-0.5 0.875-0.5625 1.6758-1.7539 1.2891-0.45312 1.168-0.25 1.1406-0.32812 0.80469 0.054688" fill="none" stroke="#fff" stroke-linecap="round" stroke-linejoin="round" stroke-miterlimit="10" stroke-width="2"/>
<path d="m131.84 412.37-0.039062 0.76562-0.003907 1.0156 0.14844 1.1445 0.15234 1.1055 0.58984 0.83594 1.3555 0.61328 0.69922 0.94531 0.74609 1.0898 0.78906 1.3086 1.0039 0.33203 1.0938 0.47656 2.3008 0.78125 1.4336 0.74219 1.1094 0.76953 1.2812 0.30469 1.0273 0.34375 1.0586 0.40234 1.7812-0.31641 0.16406 0.99609 0.78125 1.3477 1.3242 0.28125 1.3672-0.62891 0.50391 1.5234 1.5117 0.64062 1.3594 0.035157 2.6484-0.097657 1.793-0.88672 2.4258-0.82422 1.2227-0.20703 1.2695 0.18359 1.7227 0.79688 2.2461 1.2422 1.3984 1.4609 0.69531 1.0469 0.96875 0.78906 2.7148 1.3867 1.4648 0.51562 1.9492 0.89062-0.80859 1.6836-0.87891 1.6328-2.0117 2.168-0.88672 0.97656-0.51172 0.94141 1.168 1.6562-0.19531 1.7188-0.48828 1.1836-1.4961 1.4531-1.5781-0.29297-2.5703-0.16406-0.89844 0.69922-0.46094 0.97266-0.65234 0.91406-0.55469 0.85547-0.67969 0.91406-0.49609 0.96484-0.58984 0.86719-0.63281 1.0039-1.0898 0.46094-1 0.32812-1.0312 0.51172-1.043 0.22266-0.73828 0.67578-0.46484 0.89844-0.44531 1.0586 0.023437 1.0273-0.37109 0.99609-0.17969 1.2422-0.25781 1.0508-0.92578 0.60938-1.1328 0.47266-0.75 0.70703-0.98047 0.64453-0.88672 1.0938 0.027344 1.0078 0.33203 1.2188-0.35547 0.95312 0.023438 1.1016-0.86719 0.64453-0.82422 0.73438-1.1328 0.16016-0.67578 0.92969-0.625 0.85938-1.1094 0.36328-0.99219 0.32422-0.63281 0.81641-1-0.34375-0.91406-0.53125-1.0312-0.050781-0.74609-0.86328-0.85156-1.0234-0.39844-0.92969-0.74609-0.76953-0.91797-0.42578-1.0117-0.10938-1.0508 0.14453-0.98047 0.23047-3.1992-0.89062-1.2695-1.9609 1.3242-0.59375 0.83984-1.125 2.0625-0.28906 1.7773-0.53516 0.48047-1.2969-0.085937-1.0156-0.16016-1.1562 0.95703-0.41406 0.94531 0.36719 1.2461-0.41016 0.09375-1.3477 1.1094-0.37891 1.1133-0.17188 1.3438-0.27734 0.60156-1.0469-0.10547-1.2812-0.74219-0.67188-2.5156-1.1875-2.0117-0.50781 0.003906-1.9922 0.011719-3.7148 0.66797-1.7656-0.71484-0.83203-0.87891-0.83984-5.8945-0.71484-0.40234-1.582-0.53125-0.84766-1.375-0.53516-1.1758 0.074219-1.4102 1.1875-0.51953 1.4102-1.5039-1.3438-0.13672-3.0742-1 0.41406-0.68359 1.0625-1.1367 0.47656-0.98047 0.48828-0.89453 0.67578-0.98828 0.21875-0.99219 0.26562-0.4375-0.94531 0.24219-0.97656 0.27344-0.98047 0.78516-0.93359 0.75781-0.6875 0.078125-1.1172 0.19141-1.8516 0.73438-1.4336-0.003907-1.0273-0.63672-0.85938-0.64062-0.78516-0.70312-0.74609-0.78516-0.72656-0.91797-0.60156-0.79688-0.79688-1.7539-0.80469-0.98047-0.73438-0.30078-1.5508-1.0703-0.45312-0.75-1.3125-0.054688-2.0586-1.0586-4.4844 1 0.078125 1.0859 0.61719 0.77344 0.79297 1.0234 0.34766 1.0273 0.21484 1.0234 0.41406 1.1875-0.33984 0.87109-0.60156 0.91797-0.5625 1.0117 0.21484 0.75 0.72656 1.0156-0.14844 0.57812-0.875 1.1406-0.12109 0.98828-0.36328 0.97656-0.57031 0.96875-1.1641 0.60156-0.90234 0.29297-1.1914 0.84375-0.81641 0.75391-0.98828 0.55469-0.84375 1.2227-0.84375z" fill="#0a5394" fill-rule="evenodd"/>
<path d="m131.84 412.37-0.039062 0.76562-0.003907 1.0156 0.14844 1.1445 0.15234 1.1055 0.58984 0.83594 1.3555 0.61328 0.69922 0.94531 0.74609 1.0898 0.78906 1.3086 1.0039 0.33203 1.0938 0.47656 2.3008 0.78125 1.4336 0.74219 1.1094 0.76953 1.2812 0.30469 1.0273 0.34375 1.0586 0.40234 1.7812-0.31641 0.16406 0.99609 0.78125 1.3477 1.3242 0.28125 1.3672-0.62891 0.50391 1.5234 1.5117 0.64062 1.3594 0.035157 2.6484-0.097657 1.793-0.88672 2.4258-0.82422 1.2227-0.20703 1.2695 0.18359 1.7227 0.79688 2.2461 1.2422 1.3984 1.4609 0.69531 1.0469 0.96875 0.78906 2.7148 1.3867 1.4648 0.51562 1.9492 0.89062-0.80859 1.6836-0.87891 1.6328-2.0117 2.168-0.88672 0.97656-0.51172 0.94141 1.168 1.6562-0.19531 1.7188-0.48828 1.1836-1.4961 1.4531-1.5781-0.29297-2.5703-0.16406-0.89844 0.69922-0.46094 0.97266-0.65234 0.91406-0.55469 0.85547-0.67969 0.91406-0.49609 0.96484-0.58984 0.86719-0.63281 1.0039-1.0898 0.46094-1 0.32812-1.0312 0.51172-1.043 0.22266-0.73828 0.67578-0.46484 0.89844-0.44531 1.0586 0.023437 1.0273-0.37109 0.99609-0.17969 1.2422-0.25781 1.0508-0.92578 0.60938-1.1328 0.47266-0.75 0.70703-0.98047 0.64453-0.88672 1.0938 0.027344 1.0078 0.33203 1.2188-0.35547 0.95312 0.023438 1.1016-0.86719 0.64453-0.82422 0.73438-1.1328 0.16016-0.67578 0.92969-0.625 0.85938-1.1094 0.36328-0.99219 0.32422-0.63281 0.81641-1-0.34375-0.91406-0.53125-1.0312-0.050781-0.74609-0.86328-0.85156-1.0234-0.39844-0.92969-0.74609-0.76953-0.91797-0.42578-1.0117-0.10938-1.0508 0.14453-0.98047 0.23047-3.1992-0.89062-1.2695-1.9609 1.3242-0.59375 0.83984-1.125 2.0625-0.28906 1.7773-0.53516 0.48047-1.2969-0.085937-1.0156-0.16016-1.1562 0.95703-0.41406 0.94531 0.36719 1.2461-0.41016 0.09375-1.3477 1.1094-0.37891 1.1133-0.17188 1.3438-0.27734 0.60156-1.0469-0.10547-1.2812-0.74219-0.67188-2.5156-1.1875-2.0117-0.50781 0.003906-1.9922 0.011719-3.7148 0.66797-1.7656-0.71484-0.83203-0.87891-0.83984-5.8945-0.71484-0.40234-1.582-0.53125-0.84766-1.375-0.53516-1.1758 0.074219-1.4102 1.1875-0.51953 1.4102-1.5039-1.3438-0.13672-3.0742-1 0.41406-0.68359 1.0625-1.1367 0.47656-0.98047 0.48828-0.89453 0.67578-0.98828 0.21875-0.99219 0.26562-0.4375-0.94531 0.24219-0.97656 0.27344-0.98047 0.78516-0.93359 0.75781-0.6875 0.078125-1.1172 0.19141-1.8516 0.73438-1.4336-0.003907-1.0273-0.63672-0.85938-0.64062-0.78516-0.70312-0.74609-0.78516-0.72656-0.91797-0.60156-0.79688-0.79688-1.7539-0.80469-0.98047-0.73438-0.30078-1.5508-1.0703-0.45312-0.75-1.3125-0.054688-2.0586-1.0586-4.4844 1 0.078125 1.0859 0.61719 0.77344 0.79297 1.0234 0.34766 1.0273 0.21484 1.0234 0.41406 1.1875-0.33984 0.87109-0.60156 0.91797-0.5625 1.0117 0.21484 0.75 0.72656 1.0156-0.14844 0.57812-0.875 1.1406-0.12109 0.98828-0.36328 0.97656-0.57031 0.96875-1.1641 0.60156-0.90234 0.29297-1.1914 0.84375-0.81641 0.75391-0.98828 0.55469-0.84375 1.2227-0.84375 0.86719 0.21094" fill="none" stroke="#fff" stroke-linecap="round" stroke-linejoin="round" stroke-miterlimit="10"/>
<path d="m154.52 449.73c0 3.5898-2.9102 6.5-6.5 6.5-3.5898 0-6.5-2.9102-6.5-6.5s2.9102-6.5 6.5-6.5c3.5898 0 6.5 2.9102 6.5 6.5" fill="#28c028" fill-rule="evenodd" stroke="#000" stroke-linecap="round" stroke-linejoin="round" stroke-miterlimit="10"/>
<path d="m42.832 443.73v-16.328h3.3281v13.547h8.2656v2.7812zm28.797 0h-3.6094l-1.4375-3.7344h-6.5781l-1.3594 3.7344h-3.5312l6.4062-16.469h3.5156zm-6.1094-6.5156-2.2812-6.1094-2.2188 6.1094zm14.266 6.5156v-16.469h5.3438c2.0195 0 3.3359 0.085937 3.9531 0.25 0.9375 0.25 1.7227 0.79297 2.3594 1.625 0.63281 0.82422 0.95312 1.8867 0.95312 3.1875 0 1.0117-0.18359 1.8672-0.54688 2.5625-0.36719 0.6875-0.83594 1.2305-1.4062 1.625-0.5625 0.38672-1.1367 0.64062-1.7188 0.76562-0.79297 0.16797-1.9375 0.25-3.4375 0.25h-2.1719v6.2031zm3.3281-13.672v4.6719h1.8125c1.3125 0 2.1875-0.085938 2.625-0.26562 0.44531-0.17578 0.79688-0.44531 1.0469-0.8125 0.25-0.36328 0.375-0.78906 0.375-1.2812 0-0.59375-0.17969-1.082-0.53125-1.4688-0.35547-0.39453-0.79688-0.64062-1.3281-0.73438-0.39844-0.070313-1.1953-0.10938-2.3906-0.10938zm12.016 13.672v-16.469h12.203v2.7969h-8.875v3.6406h8.2656v2.7812h-8.2656v4.4688h9.2031v2.7812zm25.875-6.0469 3.2344 1.0156c-0.5 1.793-1.3281 3.125-2.4844 4-1.1484 0.875-2.6016 1.3125-4.3594 1.3125-2.1875 0-3.9844-0.74219-5.3906-2.2344-1.4062-1.5-2.1094-3.5469-2.1094-6.1406 0-2.7383 0.70312-4.8633 2.1094-6.375 1.4141-1.5195 3.2812-2.2812 5.5938-2.2812 2.0078 0 3.6445 0.60156 4.9062 1.7969 0.75 0.69922 1.3125 1.7109 1.6875 3.0312l-3.2969 0.78125c-0.19922-0.85156-0.60547-1.5234-1.2188-2.0156-0.61719-0.5-1.3672-0.75-2.25-0.75-1.2188 0-2.2109 0.4375-2.9688 1.3125-0.76172 0.875-1.1406 2.2969-1.1406 4.2656 0 2.0742 0.375 3.5547 1.125 4.4375 0.75 0.88672 1.7227 1.3281 2.9219 1.3281 0.88281 0 1.6445-0.28125 2.2812-0.84375 0.63281-0.5625 1.0859-1.4414 1.3594-2.6406zm20.922 6.0469h-3.6094l-1.4375-3.7344h-6.5781l-1.3594 3.7344h-3.5312l6.4062-16.469h3.5156zm-6.1094-6.5156-2.2812-6.1094-2.2188 6.1094zm0 0" fill="none" stroke="#fff" stroke-linecap="round" stroke-linejoin="round" stroke-miterlimit="10" stroke-width="2"/>
<path d="m42.832 443.73v-16.328h3.3281v13.547h8.2656v2.7812zm28.797 0h-3.6094l-1.4375-3.7344h-6.5781l-1.3594 3.7344h-3.5312l6.4062-16.469h3.5156zm-6.1094-6.5156-2.2812-6.1094-2.2188 6.1094zm14.266 6.5156v-16.469h5.3438c2.0195 0 3.3359 0.085937 3.9531 0.25 0.9375 0.25 1.7227 0.79297 2.3594 1.625 0.63281 0.82422 0.95312 1.8867 0.95312 3.1875 0 1.0117-0.18359 1.8672-0.54688 2.5625-0.36719 0.6875-0.83594 1.2305-1.4062 1.625-0.5625 0.38672-1.1367 0.64062-1.7188 0.76562-0.79297 0.16797-1.9375 0.25-3.4375 0.25h-2.1719v6.2031zm3.3281-13.672v4.6719h1.8125c1.3125 0 2.1875-0.085938 2.625-0.26562 0.44531-0.17578 0.79688-0.44531 1.0469-0.8125 0.25-0.36328 0.375-0.78906 0.375-1.2812 0-0.59375-0.17969-1.082-0.53125-1.4688-0.35547-0.39453-0.79688-0.64062-1.3281-0.73438-0.39844-0.070313-1.1953-0.10938-2.3906-0.10938zm12.016 13.672v-16.469h12.203v2.7969h-8.875v3.6406h8.2656v2.7812h-8.2656v4.4688h9.2031v2.7812zm25.875-6.0469 3.2344 1.0156c-0.5 1.793-1.3281 3.125-2.4844 4-1.1484 0.875-2.6016 1.3125-4.3594 1.3125-2.1875 0-3.9844-0.74219-5.3906-2.2344-1.4062-1.5-2.1094-3.5469-2.1094-6.1406 0-2.7383 0.70312-4.8633 2.1094-6.375 1.4141-1.5195 3.2812-2.2812 5.5938-2.2812 2.0078 0 3.6445 0.60156 4.9062 1.7969 0.75 0.69922 1.3125 1.7109 1.6875 3.0312l-3.2969 0.78125c-0.19922-0.85156-0.60547-1.5234-1.2188-2.0156-0.61719-0.5-1.3672-0.75-2.25-0.75-1.2188 0-2.2109 0.4375-2.9688 1.3125-0.76172 0.875-1.1406 2.2969-1.1406 4.2656 0 2.0742 0.375 3.5547 1.125 4.4375 0.75 0.88672 1.7227 1.3281 2.9219 1.3281 0.88281 0 1.6445-0.28125 2.2812-0.84375 0.63281-0.5625 1.0859-1.4414 1.3594-2.6406zm20.922 6.0469h-3.6094l-1.4375-3.7344h-6.5781l-1.3594 3.7344h-3.5312l6.4062-16.469h3.5156zm-6.1094-6.5156-2.2812-6.1094-2.2188 6.1094z" fill-rule="evenodd"/>
</g>
</svg>
