<?xml version="1.0" encoding="UTF-8"?>
<svg width="315pt" height="500pt" version="1.1" viewBox="0 0 315 500" xmlns="http://www.w3.org/2000/svg">
<g id="a">
<rect width="315" height="500" fill="none"/>
<path d="m217.75 287.26 0.023438 0.003906 1.4531 0.23438 0.98047 0.57422 0.99609 0.39453 1.2422 0.44141 1.2148 0.23828 1.6289-0.035157 1.1758 0.12891 1.4453 0.49219 0.98047 0.53516 1.4375 0.76953 3.1328 1.8984 5.582 3.0664 1.8359 0.74609 1.0273 0.38672 1.293 0.33203 0.99609 0.19141 1.0703 0.17188 1.0117 0.027344 1.4102-0.32422 1.2344-0.17578 1.6484 0.73438 1.3516-0.03125 2 0.23828 1.4141 0.78516 0.96094 1.1562 1.043 0.40625 1.582 0.03125 1.0742 0.5625 0.97656 0.64844 1.2695 0.77344-0.42188 2.9297-0.48047 1.0273-0.71094 0.97656-1.4219 0.51953-1.1055 0.10938-0.71094 1.0234-0.86719 0.73438-1.3359 0.33203-1.0039 0.066407-1.1523 0.074218-1.3516-0.046875-1.1172-0.007812-0.17578 1.2773-0.019531 1.0273-0.91406 0.76172-0.97656 0.57031-0.87109 0.58984-0.25781 1.0234 0.14453 1.3203 0.625 1.8086 0.31641 1.0312 0.11328 1.1602-0.82422 0.58594-0.98047 0.75781-0.11719 1.2305 0.36719 1.3828 0.32812 1.1211-0.70703 1.8398-0.35156 1.3906-0.40625 1.125 0.0625 1.5078-0.34766 1.375-0.37891 1.6523-0.60938 1.1289-0.42188 1.1797-0.91406 1.4961-0.99219 1.2266-1.0625 1.0664-1.1133 1.5352-0.71484 1.2031-1.1797 0.125-1.0469 0.089844-1.5078 0.77344-1.2344 0.92188-0.54688 0.89062-1.168 1.5977-0.62109 1.0938-0.79297 0.92969-0.91406 0.53906-2.0586 1.2891-0.90625 0.49219-0.96875 0.62109-1.0977 1.1328-0.75781 0.77734-1.1016 0.83203-0.50391 1.0859-0.18359 1.125-1.1094 0.80859-0.89844 0.62109-0.97266 1.9062-0.28906 1.8516-0.73047 1.3672 0.36328 1.6055 0.57422 1.2891-0.015625 1.0469 0.19141 1.1758-0.73828 1.0156-0.46875 1.4414-0.26953 1.2656 0.25781 1.2852 0.019531 1.0938-0.79297 1.5273 0.36719 1.3516 0.94141 0.62109-0.46094 1.207 0.007812 1.5625 0.60938 1.4102 0.82812 0.96094 0.23047 1.0391 0.875 0.62109 0.34766 1.0859 1.2188 1.6523 0.19531 1.3555-0.042969 1.1602 0.39453 0.92188 0.85156 1.043 1.4453 1.5508-0.17578 1.1562-0.72656 0.70703-0.25781 1.1836 0.47656 1.1133 0.20703 1.3398 0.25 1.1445 0.1875 1.043 0.55859 1.043-0.76172 0.67188-1.2383 0.53906-0.50781 0.96875-0.72266 1.5781-0.86719 1.3789-0.89844 1.5234-0.72266 1.1523-1 1.0664-1.0664 1.25-0.89453 1.2578-1.207 1.582-0.91797 0.96094-0.99219 1.1055-1.8047 1.7656-0.23047 1.1016 1.1641 0.050781 1.1836 0.42969 0.054687 1.0312-0.078125 1.5039 0.53906 0.92969-1.082 1.2383-0.29688 1.0391-0.25391 1.0508-0.36719 1.1836-0.046875 1.5156 0.53516 0.97266 0.98828 0.30469 1.1445 0.12891 1.1602-1.0586 1.0625 0.48828 1.4336 1.1289 1.1484 0.26953 1.1484 0.054687 1.1406 0.078125 0.82812 0.91406 0.52344 0.96875 0.015625 1.0234 0.99219 1.3125 0.82422 0.59375 0.95312 0.67969 1.8242 1.875-15.812 20.059-27.402 34.758-0.82812-0.77344-1.2109-0.58594-1.2812 0.44141-1.6758-0.007812-1.4258-0.25-1.1562-0.45312-0.73438-1.1836-0.71484-1.0508-1.2188-0.33984-0.61719-1.3516-0.92188-0.81641-1.125-0.40625-1.1562-0.015625-1.1523 0.38672-1.4258 0.63672-0.96094 0.39062-1.4883 0.26562-0.69922 0.80078-0.125 1.0664-0.58203 1.4766 0.55859 1.4766 0.85938 1 0.25 1.1328-0.88672 0.87891-1.3867-0.023437-1.0469-0.36719-1.5117-0.12891-1.3359-1.0078-0.83203-0.90625 0.64453-0.92578-0.53516-1.3984-0.85156-1.4727-0.43359-0.92188-0.32422-1.043-0.57031-1.1211-0.32812-1.0352-1.0977-1.2227-0.87109-0.76562-0.35156-1.3086-0.41016-0.93359 1.0195 0.0625 0.92578-0.41797 0.011719-1.1797 0.52734-1.3789 0.63672-1.0859 0.3125-1.1328 0.86328-0.58984 0.41797-1.4414 0.48438-2.5781 0.90234-1.1328 0.59766-1.4453 0.41797-1.0117 0.37891-1.0781 0.42578-1.3594-0.8125-0.76172-0.79297-1.2344 0.51562-1.9297 0.6875-0.82812 0.53516-0.89062-0.52734-1.3359 0.73047-0.98047 0.93359-0.57812 0.11719-1.4883 0.72266-1.1445-0.69141-1.0273-1.1211-1.6367-1.0938-1.3438-0.96094-2.0352 0.13672-1.3984-0.86719-0.8125-1.3594 0.85156-1.4297-0.81641-0.97266-0.94922-0.48047-1.1602 0.066406-1.4688 0.14844-1.5273 0.60156-0.86328-1.3125 0.55078-1.2695-0.55859-1.0703-0.64844-1.3242-0.48828-0.625-0.91406-0.91797-0.80078-1.0352-0.5625-1.1836-0.76562-1.1445-0.41406-1.4219 0.078125-0.97656-0.47656-0.64844-0.99609 0.38281-1.1016 0.3125-1.0078 0.3125-0.96484 1.168-0.49219 1.0039 0.039062 0.62891-0.96484 0.60938-1.1016-1.0977-0.99609-1.0195 0.1875-1.7539-0.23828-1.5195-0.17969-1.0977-1.1406-1.2109-1.7617-0.93359-1.4648-1.1289-0.83984-0.57812-1.3281-1.0352-1.418-0.48047-1.1172-0.039063-1.1094 0.32812-0.97266 0.45703-0.90625 0.78906-0.85547 0.0625-1.4219 0.55078-1.125 0.81641-0.71094 0.38672-1.0898 1.6641-0.33984 1.3945-0.0625 1.0078-0.03125 1.1055 0.12891 0.97656 0.24219 0.72656-0.92578-0.37109-1.1055-0.097656-1.0625 0.11719-1.293 0.32031-1.1836-0.83984-0.78516-1.1992-1.1836-0.61719-0.87891-0.91797-1.4219-0.34766-1.6367 0.31641-1.4492 0.41016-1.2461 0.29297-1.1328 1.168-0.23828 1.2539-0.35938 0.44531-0.97656 0.86719-0.61719 0.57422-1.082 0.023438-1.1016 0.63672-1.2305 0.29688-1.2539 1.0156-0.44531 0.53125-1.0625-0.16797-1.125 0.019531-1.293-0.19141-1.1055-0.0625-1.0156 0.085937-1.0195 0.94531-1.9336 0.94141-0.48828-0.66016-1.4102-0.91016-1.3594-0.61719-1.0898-0.56641-0.82422-0.57031-0.99219-0.875-1.5117-0.66016-0.99219 0.61328-0.88672 0.71875-0.74609-0.57812-1.0977-0.050781-1.6914-0.875-0.84766-0.29688-0.96484-1.1328-1.1094 0.011719-1.0547 1.0977-0.51562 0.55078-1.8711 0.71094-1.293 0.63672-0.8125 0.46094-1.3984 0.33203-1.2539 0.85938-1.3438 0.24609-1.543 0.73828-1.5352 0.625-0.99219-0.72266-1.5742-0.49609-1.2969-0.3125-1.3242-0.49609-1.1602-0.51953-0.97656-0.070313-1.0547 0.86719-0.89453 0.71484-0.99219 0.94922-1.0898 0.85938-0.83594 0.77734-1.0938 0.23047-1.1445 0.82812-1.3984 0.39453-1.0742 0.13672-1.082 0.082031-1.1055-0.023438-1.1562-0.38672-1.1719 0.57812-1.2617 0.14844-1.2891 0.18359-1.1523 0.03125-1.3477 0.027344-1.2539-0.55469-1.0273-0.39844-0.97656-0.38672-1.2305-0.39062-1.2852-0.41406-0.96094-0.49219-1.0234-0.28906-1.043-0.52734-1.0234 0.51562-1.25 0.37891-1.5078 0.62109-0.92969 1.1406-0.45703 1.2383-0.33594 1.3203-0.49609 0.86719 1.0469 0.21875 1.3555 0.35547 0.96875 0.097656 0.99609 1-0.46484 1.043-0.19922 1.4727-0.16797 1.5664-1.1133 1.2188-0.75781 1.043-0.23828 1.4375-1.2539 0.79688-0.90234 0.71875-1.1172 1.168-1.582 1.043-0.70703 0.375-1.1328 0.69922-0.80469 1.418-0.42969 0.91406-0.96484 0.61328-0.83594 0.99219-1.8164 0.12891-1.1055 0.41016-1.2109 0.4375-1.5195 0.78125-1.1172 0.99609-0.35938 2.0586-0.23828 1.3945-0.53125 0.71484-1.0078 0.64453-1.5234 0.32031-1.1758 0.27734-1.0312 0.67578-0.79297 1.9336-0.87891 1.3711-0.22266 1.0117 0.48047 3.1016 0.62109 1.9453 0.46484 1.875 0.60938 0.97656 0.44141 1.1758 0.33594 1.1445 0.007812 1.5352-0.10938 2.4492-0.22266 2.2656 0.24609 1.418 0.23438 1.2305-0.17969 1.2227-0.43359 1.2383-0.92969 1.1445-1.4961 2.0312-1.4648 1.4922-0.28906 1.2344-0.17188z" fill="#ccc" fill-rule="evenodd"/>
<path d="m217.75 287.26 0.023438 0.003906 1.4531 0.23438 0.98047 0.57422 0.99609 0.39453 1.2422 0.44141 1.2148 0.23828 1.6289-0.035157 1.1758 0.12891 1.4453 0.49219 0.98047 0.53516 1.4375 0.76953 3.1328 1.8984 5.582 3.0664 1.8359 0.74609 1.0273 0.38672 1.293 0.33203 0.99609 0.19141 1.0703 0.17188 1.0117 0.027344 1.4102-0.32422 1.2344-0.17578 1.6484 0.73438 1.3516-0.03125 2 0.23828 1.4141 0.78516 0.96094 1.1562 1.043 0.40625 1.582 0.03125 1.0742 0.5625 0.97656 0.64844 1.2695 0.77344-0.42188 2.9297-0.48047 1.0273-0.71094 0.97656-1.4219 0.51953-1.1055 0.10938-0.71094 1.0234-0.86719 0.73438-1.3359 0.33203-1.0039 0.066407-1.1523 0.074218-1.3516-0.046875-1.1172-0.007812-0.17578 1.2773-0.019531 1.0273-0.91406 0.76172-0.97656 0.57031-0.87109 0.58984-0.25781 1.0234 0.14453 1.3203 0.625 1.8086 0.31641 1.0312 0.11328 1.1602-0.82422 0.58594-0.98047 0.75781-0.11719 1.2305 0.36719 1.3828 0.32812 1.1211-0.70703 1.8398-0.35156 1.3906-0.40625 1.125 0.0625 1.5078-0.34766 1.375-0.37891 1.6523-0.60938 1.1289-0.42188 1.1797-0.91406 1.4961-0.99219 1.2266-1.0625 1.0664-1.1133 1.5352-0.71484 1.2031-1.1797 0.125-1.0469 0.089844-1.5078 0.77344-1.2344 0.92188-0.54688 0.89062-1.168 1.5977-0.62109 1.0938-0.79297 0.92969-0.91406 0.53906-2.0586 1.2891-0.90625 0.49219-0.96875 0.62109-1.0977 1.1328-0.75781 0.77734-1.1016 0.83203-0.50391 1.0859-0.18359 1.125-1.1094 0.80859-0.89844 0.62109-0.97266 1.9062-0.28906 1.8516-0.73047 1.3672 0.36328 1.6055 0.57422 1.2891-0.015625 1.0469 0.19141 1.1758-0.73828 1.0156-0.46875 1.4414-0.26953 1.2656 0.25781 1.2852 0.019531 1.0938-0.79297 1.5273 0.36719 1.3516 0.94141 0.62109-0.46094 1.207 0.007812 1.5625 0.60938 1.4102 0.82812 0.96094 0.23047 1.0391 0.875 0.62109 0.34766 1.0859 1.2188 1.6523 0.19531 1.3555-0.042969 1.1602 0.39453 0.92188 0.85156 1.043 1.4453 1.5508-0.17578 1.1562-0.72656 0.70703-0.25781 1.1836 0.47656 1.1133 0.20703 1.3398 0.25 1.1445 0.1875 1.043 0.55859 1.043-0.76172 0.67188-1.2383 0.53906-0.50781 0.96875-0.72266 1.5781-0.86719 1.3789-0.89844 1.5234-0.72266 1.1523-1 1.0664-1.0664 1.25-0.89453 1.2578-1.207 1.582-0.91797 0.96094-0.99219 1.1055-1.8047 1.7656-0.23047 1.1016 1.1641 0.050781 1.1836 0.42969 0.054687 1.0312-0.078125 1.5039 0.53906 0.92969-1.082 1.2383-0.29688 1.0391-0.25391 1.0508-0.36719 1.1836-0.046875 1.5156 0.53516 0.97266 0.98828 0.30469 1.1445 0.12891 1.1602-1.0586 1.0625 0.48828 1.4336 1.1289 1.1484 0.26953 1.1484 0.054687 1.1406 0.078125 0.82812 0.91406 0.52344 0.96875 0.015625 1.0234 0.99219 1.3125 0.82422 0.59375 0.95312 0.67969 1.8242 1.875-15.812 20.059-27.402 34.758-0.82812-0.77344-1.2109-0.58594-1.2812 0.44141-1.6758-0.007812-1.4258-0.25-1.1562-0.45312-0.73438-1.1836-0.71484-1.0508-1.2188-0.33984-0.61719-1.3516-0.92188-0.81641-1.125-0.40625-1.1562-0.015625-1.1523 0.38672-1.4258 0.63672-0.96094 0.39062-1.4883 0.26562-0.69922 0.80078-0.125 1.0664-0.58203 1.4766 0.55859 1.4766 0.85938 1 0.25 1.1328-0.88672 0.87891-1.3867-0.023437-1.0469-0.36719-1.5117-0.12891-1.3359-1.0078-0.83203-0.90625 0.64453-0.92578-0.53516-1.3984-0.85156-1.4727-0.43359-0.92188-0.32422-1.043-0.57031-1.1211-0.32812-1.0352-1.0977-1.2227-0.87109-0.76562-0.35156-1.3086-0.41016-0.93359 1.0195 0.0625 0.92578-0.41797 0.011719-1.1797 0.52734-1.3789 0.63672-1.0859 0.3125-1.1328 0.86328-0.58984 0.41797-1.4414 0.48438-2.5781 0.90234-1.1328 0.59766-1.4453 0.41797-1.0117 0.37891-1.0781 0.42578-1.3594-0.8125-0.76172-0.79297-1.2344 0.51562-1.9297 0.6875-0.82812 0.53516-0.89062-0.52734-1.3359 0.73047-0.98047 0.93359-0.57812 0.11719-1.4883 0.72266-1.1445-0.69141-1.0273-1.1211-1.6367-1.0938-1.3438-0.96094-2.0352 0.13672-1.3984-0.86719-0.8125-1.3594 0.85156-1.4297-0.81641-0.97266-0.94922-0.48047-1.1602 0.066406-1.4688 0.14844-1.5273 0.60156-0.86328-1.3125 0.55078-1.2695-0.55859-1.0703-0.64844-1.3242-0.48828-0.625-0.91406-0.91797-0.80078-1.0352-0.5625-1.1836-0.76562-1.1445-0.41406-1.4219 0.078125-0.97656-0.47656-0.64844-0.99609 0.38281-1.1016 0.3125-1.0078 0.3125-0.96484 1.168-0.49219 1.0039 0.039062 0.62891-0.96484 0.60938-1.1016-1.0977-0.99609-1.0195 0.1875-1.7539-0.23828-1.5195-0.17969-1.0977-1.1406-1.2109-1.7617-0.93359-1.4648-1.1289-0.83984-0.57812-1.3281-1.0352-1.418-0.48047-1.1172-0.039063-1.1094 0.32812-0.97266 0.45703-0.90625 0.78906-0.85547 0.0625-1.4219 0.55078-1.125 0.81641-0.71094 0.38672-1.0898 1.6641-0.33984 1.3945-0.0625 1.0078-0.03125 1.1055 0.12891 0.97656 0.24219 0.72656-0.92578-0.37109-1.1055-0.097656-1.0625 0.11719-1.293 0.32031-1.1836-0.83984-0.78516-1.1992-1.1836-0.61719-0.87891-0.91797-1.4219-0.34766-1.6367 0.31641-1.4492 0.41016-1.2461 0.29297-1.1328 1.168-0.23828 1.2539-0.35938 0.44531-0.97656 0.86719-0.61719 0.57422-1.082 0.023438-1.1016 0.63672-1.2305 0.29688-1.2539 1.0156-0.44531 0.53125-1.0625-0.16797-1.125 0.019531-1.293-0.19141-1.1055-0.0625-1.0156 0.085937-1.0195 0.94531-1.9336 0.94141-0.48828-0.66016-1.4102-0.91016-1.3594-0.61719-1.0898-0.56641-0.82422-0.57031-0.99219-0.875-1.5117-0.66016-0.99219 0.61328-0.88672 0.71875-0.74609-0.57812-1.0977-0.050781-1.6914-0.875-0.84766-0.29688-0.96484-1.1328-1.1094 0.011719-1.0547 1.0977-0.51562 0.55078-1.8711 0.71094-1.293 0.63672-0.8125 0.46094-1.3984 0.33203-1.2539 0.85938-1.3438 0.24609-1.543 0.73828-1.5352 0.625-0.99219-0.72266-1.5742-0.49609-1.2969-0.3125-1.3242-0.49609-1.1602-0.51953-0.97656-0.070313-1.0547 0.86719-0.89453 0.71484-0.99219 0.94922-1.0898 0.85938-0.83594 0.77734-1.0938 0.23047-1.1445 0.82812-1.3984 0.39453-1.0742 0.13672-1.082 0.082031-1.1055-0.023438-1.1562-0.38672-1.1719 0.57812-1.2617 0.14844-1.2891 0.18359-1.1523 0.03125-1.3477 0.027344-1.2539-0.55469-1.0273-0.39844-0.97656-0.38672-1.2305-0.39062-1.2852-0.41406-0.96094-0.49219-1.0234-0.28906-1.043-0.52734-1.0234 0.51562-1.25 0.37891-1.5078 0.62109-0.92969 1.1406-0.45703 1.2383-0.33594 1.3203-0.49609 0.86719 1.0469 0.21875 1.3555 0.35547 0.96875 0.097656 0.99609 1-0.46484 1.043-0.19922 1.4727-0.16797 1.5664-1.1133 1.2188-0.75781 1.043-0.23828 1.4375-1.2539 0.79688-0.90234 0.71875-1.1172 1.168-1.582 1.043-0.70703 0.375-1.1328 0.69922-0.80469 1.418-0.42969 0.91406-0.96484 0.61328-0.83594 0.99219-1.8164 0.12891-1.1055 0.41016-1.2109 0.4375-1.5195 0.78125-1.1172 0.99609-0.35938 2.0586-0.23828 1.3945-0.53125 0.71484-1.0078 0.64453-1.5234 0.32031-1.1758 0.27734-1.0312 0.67578-0.79297 1.9336-0.87891 1.3711-0.22266 1.0117 0.48047 3.1016 0.62109 1.9453 0.46484 1.875 0.60938 0.97656 0.44141 1.1758 0.33594 1.1445 0.007812 1.5352-0.10938 2.4492-0.22266 2.2656 0.24609 1.418 0.23438 1.2305-0.17969 1.2227-0.43359 1.2383-0.92969 1.1445-1.4961 2.0312-1.4648 1.4922-0.28906 1.2344-0.17188 0.63281 0.058594" fill="none" stroke="#fff" stroke-linecap="round" stroke-linejoin="round" stroke-miterlimit="10" stroke-width="2"/>
<path d="m106.16 81.34 0.4375 0.050781 1.6719 0.66406 1.0703 0.60156 1.0898 0.78125 0.85156 0.76172 1.0742-0.054688 1.0273 0.25391 0.99219 0.61719 1.0234-0.18359 1.0742-0.18359 1.1211-0.16797 0.85938 0.69531 1.0391 0.17188 1.0742 0.60547 1.0977-0.16797 1.2188-0.12109 1.1055 0.20703 1.4023-0.38281 0.71484 0.75391 0.78516 0.66406-0.03125 1.1484-0.22266 1.2188 0.023437 1.2188-0.023437 1.0781-0.25 1.0312 1.4766 1.7695 0.29297 1.2969-0.21875 1.0859 0.19922 1.2773 0.64062 1.793 0.47266 1.2734 0.17578 1.0039 0.03125 1.0039 0.63672 0.78125-0.96094 0.90625 0.26953 1.1172 0.94531 0.50391 1.1133 0.62891 0.51953 0.85938-0.27344 1.5312 0.22656 1.0625-0.82031 0.71875-1.1328 0.37891-1.7109 0.050781-0.74219 0.83203-0.19141 1.1406-0.43359 2.0156-0.65234 0.78906-0.097656 1.3047-0.30859 2.4922 0.16797 1.3438 0.21484 1.0703 0.94141-0.37891 1.2578 0.22266 0.89844 0.69141 0.089843 1.5 0.375 1.1719 0.71094 0.80859 0.42969 1.1367 0.48047 0.92188 0.18359 1.1211 0.23438 1.5352 0.15625 1.0273 0.80469 0.77344 0.84375 0.73438 0.95312 0.69922 0.92188 0.80859 1.0156-0.046875 0.23047 0.98438-0.44141 1.1953 0.054687 1.207 0.38281 1.6406 0.39062 1.0781-0.35547 1.2695-0.23828 1.1914 0.46875 0.94531 0.84375 1.1719 0.96094 0.93359-0.55469 1.2344 0.125 1.1836 0.26172 1.0859-0.15234 1.1445-0.27344 1.5039-0.054687 1.0078-0.22656 1.4531-0.375 0.94531-0.5625 1.0664-0.61719 1.4023-0.28516 1.0859-0.47266 0.89844 0.22266 1.5156 0.14062 1.125 0.64062 0.87109 1.0078 0.22266 0.55469 1.2578 0.34375 0.97266 1.0508 0.003906 1.0469 0.19922 0.60938 0.87891 0.55078 0.94531 0.51172 1.1094 0.98047 0.58594 0.61719 0.89453 1.2773 0.29688 0.98438 0.57031 0.73047 0.75391-0.61719 1.1445-0.73047 1.0273-0.43359 1.1211-1.0742 0.89062-0.98438 0.9375-1.0273 0.96094-0.59375 0.82031-0.9375 1.2148-0.59375 0.91406-0.55078 1.3711 0.39062 1.0977 0.43359 0.91406 0.52344 1.0039 0.48828 1.0234-0.46484 1.0586-0.52344 0.89062 0.17969 1.2344 0.52734 1.1211 1.0508 0.59375 0.75391 1.0039-0.29688 1.1445-0.54688 0.91406-0.13672 1.3242 0.13672 1.0312 0.066406 1.0039 0.09375 1.1445 0.64062 0.79688 0.66016 0.9375 0.32031 1.1445 0.27734 0.98438 0.31641 1.3242 0.39062 1.3047 0.41016 1.1875-0.015625 1.3359 0.34375 1.1328 0.12109 1.0195 0.27344 1.4023 0.19531 1.3516 0.23438 1.1055 0.53906 1.1523 0.25391 1.3672 0.21875 1.1133-0.03125 1.0391 0.36719 0.97266 0.125 1.0508 0.097656 1.2734 0.48828 0.95312 0.10156 1.2344 0.16797 1.4883 0.62109 1.1094 0.125 1.1133 0.39453 1.3438 0.13672 1.3203-0.23828 1.0898 0.085938 1.1367-0.24219 1.0039 0.070313 1.1406-0.070313 1.168-0.14844 1.1836-0.34766 1.4297-0.50391 1.5625-0.25781 0.97656 1.0625 0.33594 1.4805 0.37891 1.1484 0.80859 0.61719 1.082 0.36719 1.2617 0.14453 1.0352-0.11328 1.0547-1.1406 0.87109-1.082 0.09375 0.035156 1.0977 0.67969 1.5-0.13672 1.3008-0.37109 1.3047-0.21484 1.6484 0.14453 1.4023 0.48047 0.88672-0.53125 1.1289-0.23828 1.293-0.17578 1.1641 0.58203 1.1523 0.75781 1.543 0.36328 0.98438 1.1758-0.45312 1.1602 0.48438 0.96094-0.41797 0.89844-0.52344 1.5156 0.28516 1.2422-0.015625 0.875 0.49219 1.3086 0.69141 0.72656 1.0352 1.2266 0.42969 1.0117 0.26562 0.81641 0.71094 1.5039 0.19141 1.0352-0.16797 1.5352-0.1875 1.1914-0.39062 0.76953 0.66406-0.71875 0.74609-0.48047 1.7812-0.44141 1.1094-0.20312 1.5742 0.10156 1.1094-1.4453 0.73047-0.10156 1.0117 0.17969 1.1758-0.1875 1.8438-0.16016 1.1758 0.085937 1.1406-0.28125 1.1523 0.14844 1.418-0.59766 1.1719-0.082031 1.0977 0.14453 1.0234 0.34375 1.2969 0.83203 0.92969 0.21094 1.1211-0.39062 1.457-0.35938 1.3477-0.27344 1.168-0.28516 1.6172-0.25781 1.0742-0.21484 0.98828-0.38281 1.4805-0.46484 1.8477-0.59766 0.90625-0.48438 1.2305-0.54688 0.83984-0.89453 1.0195-0.72656 0.95703-0.91016 0.89062-1.0234 0.83203-1.1445 0.52344-0.86719 1.1836-0.96875 1.082-1.1133 0.45312-0.93359 0.36719-1.1719 0.30859-0.79297 0.63281-0.79688 1.043-0.23438 1.4766 0.070312 1.3164 0.28125 0.96875 0.53125 1.2734 0.57422 1.2578 0.36719 1.0703 0.25781 1.0703 0.55078 1.3516 0.52734 0.86328v1.418l-0.074219 1.0391-0.097656 1.0156 0.019531 1.1094-0.69141 1.2344 0.007812 1 0.27734 1.1875 0.023438 1.2148-0.21484 1.3203-0.19922 1.2734-0.60547 1.1445-0.56641 0.82422-0.28125 1.1133-1.1797 1.2617-0.71094 0.94531-0.66797 0.89062-0.87109 0.83203-0.59766 0.95312-0.90625 0.46875-0.55078-0.90234-0.33203-0.99609-1.2461 0.77344-1.1797 0.089843-0.50391-1.0586 1.1445-1.0234 0.81641-0.76562-0.14453-1.043-1.4102-0.96875-0.85547-0.69922-1.082-0.18359-1.332 0.57422-0.69141 1.0234-1.3867 1.2734-0.6875 0.86328-1.125 0.74609-1.0078-0.34766-2.043-0.039062-0.96484 0.33594-1.5703 0.37891-1.0117 0.60547-0.5625 0.875-1.0547 1.0508-0.85547 1.2969-0.50781 1.2344-0.64453 1.0977-1.7148 2.1484-0.53516 0.85938-1.2031 1.9375-0.76953 1.0078-0.64844 0.92969-0.14453-1.3164-0.41406-1.0977-0.71094-1.0117 0.070312-1.0352 0.15625-1.3008 0.55469-1.0039 0.44141-0.96484-0.5625-0.82812-0.94531-1.0703-0.27344-1.1914-0.03125-1.2227-0.99609-0.50781-0.62891 1.1172-0.78906 0.70312-0.93359 0.64844-1.3555 0.27734-1.2148 0.39062-0.95703-0.49219-1.043-0.30469-0.94531-0.46484-1.0586-0.23047-1.2539 1.0117-0.53125 0.94531-1.0391 0.17578-1.0586-0.097656-0.73047-1.375-0.074219-1.0117-1.0938-0.85156-0.69531-0.875-1.4102-1.2188-0.64844-0.87109-1.2344 0.36328-0.94531 0.49609-1.168-0.046875-1.6875 0.023437-1.0586 0.17969-0.96484 0.40625-0.85547 0.64844-1.1016 0.070313-1.0547 0.26953-1.0586 0.042969-1.168-0.51562-0.60547-0.83203-1.2617 0.066407-1.0547-0.58203-0.85547-0.58594-1.4531-0.32812h-1.4727l-1.1562 0.25-1.3398 0.23828-0.48047-1.1758-0.38672-0.98828-0.57031-0.92969-0.875-1.2109-1.1602-0.99219-0.77734-0.65625-0.72656-1.3086-0.5625-1.1523-1.2188-0.61719-3.0664-2.5859-1.8086-1.2812-3.6641-0.25-0.78125-0.71484-1.2852-0.16797-1.0273-0.125-0.72656 0.74219-0.76953 0.76172-0.58203 1.0156-1.0312 0.42969-0.21484 1.3359-1.1406 0.55078-1.0742-0.54688-0.29297-2.0469 0.17969-1.1641 0.027344-1.1758-0.30859-1.2344-0.14062-1.1133-0.79297-1.1836 0.33594-1.0039 0.23828-1.293 0.70312-0.95703 0.17969-1.0469 0.019531-1.0781-0.79688-0.75391-0.94922-0.68359-0.67188-0.85547-0.45703-1.3398-0.41797-1.1367-0.66016-1.1289-1.0312-0.17188-0.74609 0.8125-1.1055-0.039062-1.0859-0.34375-0.87891-1.3633-1.168-0.46875-1.1758 0.29688-0.5625-1.0508 0.16016-1.2031-0.21484-0.98047 0.27734-1.4258 0.61328-1.332-0.046875-1.2461 0.55859-0.9375 0.89062-0.59375 0.83594-1.8008 0.003906-1.0469 0.44531-1.0156 1.0117-0.39453 1.3828-0.30859 0.94531-0.78516 0.87109-0.69141 0.097656-1.125-0.17969-1.2266-0.26953-1.2344-1.8086 0.59766-1.0938-0.050781-1.0625 0.089844-0.80469 0.82031-0.95703-0.49219-0.91406-1.0898-0.48828-0.96484-0.66016-0.82422-0.097656-1.1211 0.35938-0.94531 0.058593-1.0859 0.054688-1.0586-0.28906-1.1562-0.48828-1.5078-0.95703-1.3828-0.48828-1.1133 0.003906-1.4375 0.29297-1.0391-0.53125-0.94141-0.41406-1.0273 0.72656-1.4258 0.66797-0.91016 0.10547-1.0703 0.18359-1.0664 0.72266-1.0195 0.5625-1.125 1.5781-0.77344 0.85156-0.55469 1.0078-0.23828 0.83203-0.61328-0.03125-1.2148 0.77344-0.74609 0.14062-1.1172 0.46484-1.0352 0.17969-1.1328 0.99609-0.88672 1.0547-0.68359-0.51953-1-0.40625-1.1523-0.29688-1.1641-0.45312-1.1523-0.16016-1.6055 0.24219-1.8555 0.53906-0.89844 0.63281-0.87109 0.76172-0.77734 1.0273-0.027343 0.80469-0.91406 0.89453-0.51953 1.3086-0.625 0.1875-0.98828 0.023438-1.1289-0.21875-1.1914 0.58203-1.0938 0.31641-1.1523-0.14453-1.0508-0.48047-1.2578-0.027343-1.0703-0.52344-1.0352 0.14062-1.1836-0.39062-1.1016 0.24219-0.98438 0.50391-1.3672 0.53906-1.0547 0.45312-1.0312 0.32812-1.1758 0.50391-1.4102 0.96094-0.82031 0.63281-0.94531 0.52344-0.96094 0.80469-0.75 1.0273-0.70703 0.70703-1.0586 0.84375-0.79688 0.44531-1.5352 0.47656-0.89453-0.9375-0.82422-1.5078-0.61719-1.1641-0.70703-1.2891-0.39844-0.98828-0.70312-0.3125-1.207-0.41016-0.91406 0.50391-1.1523 0.35156-0.94141 0.011719-1.1914 0.023438-1.0195 0.29688-1.0625-0.070313-1.1641 0.19141-1.0391-0.5625-1.1211 0.48438-1.0234 0.67578-0.92188 1.1836-0.69531 0.78125-0.77734 0.97656-0.55469 0.91406-0.49609-0.24219-1.2852 0.80078-1.1055 0.82422-0.74219 0.58984-1.2148 0.73438-0.95312 0.52344-1.5859 1.0234-0.28125 1.2852-0.39844 1.1055-0.26172 1.2148 0.003906 1.043-0.097656 1.1406-0.015625 0.96094-0.39844 0.51562-1.1484 0.61719-1.168 0.49219-1.0977 0.5625-0.90625 0.40234-1.0234-0.62891-0.94141-0.51953-0.91797-1.0703-0.43359 0.47266-1.043 0.89062-0.63672 0.43359-0.92188-0.058593-1.1484 0.082031-1.7461 0.19531-1.9492 0.63672-1.0508 0.72266-0.81641 0.32031-1.0234 1.1133-0.054687 0.54297-1.3711-0.10938-1.0859-1.0664-0.21094 0.45312-1.2461 1.1328 0.36719 1.0508-0.035156 0.90234-0.62891 1.1562-0.59766 0.96875-0.32812 0.64062-0.92969 1.0859-0.76562 0.90625-1.2383 0.91797-0.85938 1.0117-1.1406 0.71484-0.92578 0.27734-1.1211 0.39453-1.1953 0.19141-0.98438-0.59375-1.0898-0.98047-0.58984 0.25391-0.98047 0.67969-0.92188 0.54688-0.90234 0.29688-1.1445 0.66016-1.1992 0.37109-0.98828-1.0078-0.47266-1.0352-0.52344-0.98047-1.125-0.92578-0.49219 0.89844-0.92969-0.23828-1.2695 0.0625-1.1523-0.93359-0.50781-0.085938-1.0078v-1.1914l0.57031-1.2305 0.96875-0.53906 0.82812 0.82422 1.3281 0.15625 1.0352-0.20703 0.85156-0.875 0.31641-1.082-0.003906-1.1445-0.83203-0.72656 0.37109-1.1367 0.41406-1.0391-0.77734-1.3906-0.070313-1.2969 1.3789-0.82812 1.0117-0.50781-0.90625-1.5938-0.57422-1.0469-0.64844-0.82422 0.32812-1.2305-0.78125-2.0547 0.93359-0.5 0.55859-0.98828-0.33203-0.97266-0.054687-1.1602 0.33203-1.5781 0.49609-1.1289 0.87109-0.74219 0.11328-1.3906-0.54688-0.88672-0.09375-1.3164 0.97656-0.58594 1.2891-0.64062 0.25-1.1719 1.0664-0.57031 0.27734-1.1719 0.58594-0.92188 0.34766-0.96875-0.19141-1.1211-0.039062-1.4961 0.69141-0.92578 0.375-0.99219 0.63672-0.80078 0.24219-1.1719 0.24219-1.0664 0.054687-1.0625 0.26172-0.98438-0.86719-0.85547-0.11719-1.3125 0.46484-1 0.72656-0.71484 0.83594-0.83203 0.26562-1.0859 0.59375-1.293 0.054687-1.2656 0.14062-1.1328 0.38281-0.92969-0.44922-1.0234-0.57031-0.96094-0.70312-0.91016-0.66797-1.2891-0.41016-0.98047 0.73438-0.85938 0.69531-0.73438 0.87891-0.75781-0.019531-1.0312-0.32031-1.1055z" fill="#ccc" fill-rule="evenodd"/>
<path d="m106.16 81.34 0.4375 0.050781 1.6719 0.66406 1.0703 0.60156 1.0898 0.78125 0.85156 0.76172 1.0742-0.054688 1.0273 0.25391 0.99219 0.61719 1.0234-0.18359 1.0742-0.18359 1.1211-0.16797 0.85938 0.69531 1.0391 0.17188 1.0742 0.60547 1.0977-0.16797 1.2188-0.12109 1.1055 0.20703 1.4023-0.38281 0.71484 0.75391 0.78516 0.66406-0.03125 1.1484-0.22266 1.2188 0.023437 1.2188-0.023437 1.0781-0.25 1.0312 1.4766 1.7695 0.29297 1.2969-0.21875 1.0859 0.19922 1.2773 0.64062 1.793 0.47266 1.2734 0.17578 1.0039 0.03125 1.0039 0.63672 0.78125-0.96094 0.90625 0.26953 1.1172 0.94531 0.50391 1.1133 0.62891 0.51953 0.85938-0.27344 1.5312 0.22656 1.0625-0.82031 0.71875-1.1328 0.37891-1.7109 0.050781-0.74219 0.83203-0.19141 1.1406-0.43359 2.0156-0.65234 0.78906-0.097656 1.3047-0.30859 2.4922 0.16797 1.3438 0.21484 1.0703 0.94141-0.37891 1.2578 0.22266 0.89844 0.69141 0.089843 1.5 0.375 1.1719 0.71094 0.80859 0.42969 1.1367 0.48047 0.92188 0.18359 1.1211 0.23438 1.5352 0.15625 1.0273 0.80469 0.77344 0.84375 0.73438 0.95312 0.69922 0.92188 0.80859 1.0156-0.046875 0.23047 0.98438-0.44141 1.1953 0.054687 1.207 0.38281 1.6406 0.39062 1.0781-0.35547 1.2695-0.23828 1.1914 0.46875 0.94531 0.84375 1.1719 0.96094 0.93359-0.55469 1.2344 0.125 1.1836 0.26172 1.0859-0.15234 1.1445-0.27344 1.5039-0.054687 1.0078-0.22656 1.4531-0.375 0.94531-0.5625 1.0664-0.61719 1.4023-0.28516 1.0859-0.47266 0.89844 0.22266 1.5156 0.14062 1.125 0.64062 0.87109 1.0078 0.22266 0.55469 1.2578 0.34375 0.97266 1.0508 0.003906 1.0469 0.19922 0.60938 0.87891 0.55078 0.94531 0.51172 1.1094 0.98047 0.58594 0.61719 0.89453 1.2773 0.29688 0.98438 0.57031 0.73047 0.75391-0.61719 1.1445-0.73047 1.0273-0.43359 1.1211-1.0742 0.89062-0.98438 0.9375-1.0273 0.96094-0.59375 0.82031-0.9375 1.2148-0.59375 0.91406-0.55078 1.3711 0.39062 1.0977 0.43359 0.91406 0.52344 1.0039 0.48828 1.0234-0.46484 1.0586-0.52344 0.89062 0.17969 1.2344 0.52734 1.1211 1.0508 0.59375 0.75391 1.0039-0.29688 1.1445-0.54688 0.91406-0.13672 1.3242 0.13672 1.0312 0.066406 1.0039 0.09375 1.1445 0.64062 0.79688 0.66016 0.9375 0.32031 1.1445 0.27734 0.98438 0.31641 1.3242 0.39062 1.3047 0.41016 1.1875-0.015625 1.3359 0.34375 1.1328 0.12109 1.0195 0.27344 1.4023 0.19531 1.3516 0.23438 1.1055 0.53906 1.1523 0.25391 1.3672 0.21875 1.1133-0.03125 1.0391 0.36719 0.97266 0.125 1.0508 0.097656 1.2734 0.48828 0.95312 0.10156 1.2344 0.16797 1.4883 0.62109 1.1094 0.125 1.1133 0.39453 1.3438 0.13672 1.3203-0.23828 1.0898 0.085938 1.1367-0.24219 1.0039 0.070313 1.1406-0.070313 1.168-0.14844 1.1836-0.34766 1.4297-0.50391 1.5625-0.25781 0.97656 1.0625 0.33594 1.4805 0.37891 1.1484 0.80859 0.61719 1.082 0.36719 1.2617 0.14453 1.0352-0.11328 1.0547-1.1406 0.87109-1.082 0.09375 0.035156 1.0977 0.67969 1.5-0.13672 1.3008-0.37109 1.3047-0.21484 1.6484 0.14453 1.4023 0.48047 0.88672-0.53125 1.1289-0.23828 1.293-0.17578 1.1641 0.58203 1.1523 0.75781 1.543 0.36328 0.98438 1.1758-0.45312 1.1602 0.48438 0.96094-0.41797 0.89844-0.52344 1.5156 0.28516 1.2422-0.015625 0.875 0.49219 1.3086 0.69141 0.72656 1.0352 1.2266 0.42969 1.0117 0.26562 0.81641 0.71094 1.5039 0.19141 1.0352-0.16797 1.5352-0.1875 1.1914-0.39062 0.76953 0.66406-0.71875 0.74609-0.48047 1.7812-0.44141 1.1094-0.20312 1.5742 0.10156 1.1094-1.4453 0.73047-0.10156 1.0117 0.17969 1.1758-0.1875 1.8438-0.16016 1.1758 0.085937 1.1406-0.28125 1.1523 0.14844 1.418-0.59766 1.1719-0.082031 1.0977 0.14453 1.0234 0.34375 1.2969 0.83203 0.92969 0.21094 1.1211-0.39062 1.457-0.35938 1.3477-0.27344 1.168-0.28516 1.6172-0.25781 1.0742-0.21484 0.98828-0.38281 1.4805-0.46484 1.8477-0.59766 0.90625-0.48438 1.2305-0.54688 0.83984-0.89453 1.0195-0.72656 0.95703-0.91016 0.89062-1.0234 0.83203-1.1445 0.52344-0.86719 1.1836-0.96875 1.082-1.1133 0.45312-0.93359 0.36719-1.1719 0.30859-0.79297 0.63281-0.79688 1.043-0.23438 1.4766 0.070312 1.3164 0.28125 0.96875 0.53125 1.2734 0.57422 1.2578 0.36719 1.0703 0.25781 1.0703 0.55078 1.3516 0.52734 0.86328v1.418l-0.074219 1.0391-0.097656 1.0156 0.019531 1.1094-0.69141 1.2344 0.007812 1 0.27734 1.1875 0.023438 1.2148-0.21484 1.3203-0.19922 1.2734-0.60547 1.1445-0.56641 0.82422-0.28125 1.1133-1.1797 1.2617-0.71094 0.94531-0.66797 0.89062-0.87109 0.83203-0.59766 0.95312-0.90625 0.46875-0.55078-0.90234-0.33203-0.99609-1.2461 0.77344-1.1797 0.089843-0.50391-1.0586 1.1445-1.0234 0.81641-0.76562-0.14453-1.043-1.4102-0.96875-0.85547-0.69922-1.082-0.18359-1.332 0.57422-0.69141 1.0234-1.3867 1.2734-0.6875 0.86328-1.125 0.74609-1.0078-0.34766-2.043-0.039062-0.96484 0.33594-1.5703 0.37891-1.0117 0.60547-0.5625 0.875-1.0547 1.0508-0.85547 1.2969-0.50781 1.2344-0.64453 1.0977-1.7148 2.1484-0.53516 0.85938-1.2031 1.9375-0.76953 1.0078-0.64844 0.92969-0.14453-1.3164-0.41406-1.0977-0.71094-1.0117 0.070312-1.0352 0.15625-1.3008 0.55469-1.0039 0.44141-0.96484-0.5625-0.82812-0.94531-1.0703-0.27344-1.1914-0.03125-1.2227-0.99609-0.50781-0.62891 1.1172-0.78906 0.70312-0.93359 0.64844-1.3555 0.27734-1.2148 0.39062-0.95703-0.49219-1.043-0.30469-0.94531-0.46484-1.0586-0.23047-1.2539 1.0117-0.53125 0.94531-1.0391 0.17578-1.0586-0.097656-0.73047-1.375-0.074219-1.0117-1.0938-0.85156-0.69531-0.875-1.4102-1.2188-0.64844-0.87109-1.2344 0.36328-0.94531 0.49609-1.168-0.046875-1.6875 0.023437-1.0586 0.17969-0.96484 0.40625-0.85547 0.64844-1.1016 0.070313-1.0547 0.26953-1.0586 0.042969-1.168-0.51562-0.60547-0.83203-1.2617 0.066407-1.0547-0.58203-0.85547-0.58594-1.4531-0.32812h-1.4727l-1.1562 0.25-1.3398 0.23828-0.48047-1.1758-0.38672-0.98828-0.57031-0.92969-0.875-1.2109-1.1602-0.99219-0.77734-0.65625-0.72656-1.3086-0.5625-1.1523-1.2188-0.61719-3.0664-2.5859-1.8086-1.2812-3.6641-0.25-0.78125-0.71484-1.2852-0.16797-1.0273-0.125-0.72656 0.74219-0.76953 0.76172-0.58203 1.0156-1.0312 0.42969-0.21484 1.3359-1.1406 0.55078-1.0742-0.54688-0.29297-2.0469 0.17969-1.1641 0.027344-1.1758-0.30859-1.2344-0.14062-1.1133-0.79297-1.1836 0.33594-1.0039 0.23828-1.293 0.70312-0.95703 0.17969-1.0469 0.019531-1.0781-0.79688-0.75391-0.94922-0.68359-0.67188-0.85547-0.45703-1.3398-0.41797-1.1367-0.66016-1.1289-1.0312-0.17188-0.74609 0.8125-1.1055-0.039062-1.0859-0.34375-0.87891-1.3633-1.168-0.46875-1.1758 0.29688-0.5625-1.0508 0.16016-1.2031-0.21484-0.98047 0.27734-1.4258 0.61328-1.332-0.046875-1.2461 0.55859-0.9375 0.89062-0.59375 0.83594-1.8008 0.003906-1.0469 0.44531-1.0156 1.0117-0.39453 1.3828-0.30859 0.94531-0.78516 0.87109-0.69141 0.097656-1.125-0.17969-1.2266-0.26953-1.2344-1.8086 0.59766-1.0938-0.050781-1.0625 0.089844-0.80469 0.82031-0.95703-0.49219-0.91406-1.0898-0.48828-0.96484-0.66016-0.82422-0.097656-1.1211 0.35938-0.94531 0.058593-1.0859 0.054688-1.0586-0.28906-1.1562-0.48828-1.5078-0.95703-1.3828-0.48828-1.1133 0.003906-1.4375 0.29297-1.0391-0.53125-0.94141-0.41406-1.0273 0.72656-1.4258 0.66797-0.91016 0.10547-1.0703 0.18359-1.0664 0.72266-1.0195 0.5625-1.125 1.5781-0.77344 0.85156-0.55469 1.0078-0.23828 0.83203-0.61328-0.03125-1.2148 0.77344-0.74609 0.14062-1.1172 0.46484-1.0352 0.17969-1.1328 0.99609-0.88672 1.0547-0.68359-0.51953-1-0.40625-1.1523-0.29688-1.1641-0.45312-1.1523-0.16016-1.6055 0.24219-1.8555 0.53906-0.89844 0.63281-0.87109 0.76172-0.77734 1.0273-0.027343 0.80469-0.91406 0.89453-0.51953 1.3086-0.625 0.1875-0.98828 0.023438-1.1289-0.21875-1.1914 0.58203-1.0938 0.31641-1.1523-0.14453-1.0508-0.48047-1.2578-0.027343-1.0703-0.52344-1.0352 0.14062-1.1836-0.39062-1.1016 0.24219-0.98438 0.50391-1.3672 0.53906-1.0547 0.45312-1.0312 0.32812-1.1758 0.50391-1.4102 0.96094-0.82031 0.63281-0.94531 0.52344-0.96094 0.80469-0.75 1.0273-0.70703 0.70703-1.0586 0.84375-0.79688 0.44531-1.5352 0.47656-0.89453-0.9375-0.82422-1.5078-0.61719-1.1641-0.70703-1.2891-0.39844-0.98828-0.70312-0.3125-1.207-0.41016-0.91406 0.50391-1.1523 0.35156-0.94141 0.011719-1.1914 0.023438-1.0195 0.29688-1.0625-0.070313-1.1641 0.19141-1.0391-0.5625-1.1211 0.48438-1.0234 0.67578-0.92188 1.1836-0.69531 0.78125-0.77734 0.97656-0.55469 0.91406-0.49609-0.24219-1.2852 0.80078-1.1055 0.82422-0.74219 0.58984-1.2148 0.73438-0.95312 0.52344-1.5859 1.0234-0.28125 1.2852-0.39844 1.1055-0.26172 1.2148 0.003906 1.043-0.097656 1.1406-0.015625 0.96094-0.39844 0.51562-1.1484 0.61719-1.168 0.49219-1.0977 0.5625-0.90625 0.40234-1.0234-0.62891-0.94141-0.51953-0.91797-1.0703-0.43359 0.47266-1.043 0.89062-0.63672 0.43359-0.92188-0.058593-1.1484 0.082031-1.7461 0.19531-1.9492 0.63672-1.0508 0.72266-0.81641 0.32031-1.0234 1.1133-0.054687 0.54297-1.3711-0.10938-1.0859-1.0664-0.21094 0.45312-1.2461 1.1328 0.36719 1.0508-0.035156 0.90234-0.62891 1.1562-0.59766 0.96875-0.32812 0.64062-0.92969 1.0859-0.76562 0.90625-1.2383 0.91797-0.85938 1.0117-1.1406 0.71484-0.92578 0.27734-1.1211 0.39453-1.1953 0.19141-0.98438-0.59375-1.0898-0.98047-0.58984 0.25391-0.98047 0.67969-0.92188 0.54688-0.90234 0.29688-1.1445 0.66016-1.1992 0.37109-0.98828-1.0078-0.47266-1.0352-0.52344-0.98047-1.125-0.92578-0.49219 0.89844-0.92969-0.23828-1.2695 0.0625-1.1523-0.93359-0.50781-0.085938-1.0078v-1.1914l0.57031-1.2305 0.96875-0.53906 0.82812 0.82422 1.3281 0.15625 1.0352-0.20703 0.85156-0.875 0.31641-1.082-0.003906-1.1445-0.83203-0.72656 0.37109-1.1367 0.41406-1.0391-0.77734-1.3906-0.070313-1.2969 1.3789-0.82812 1.0117-0.50781-0.90625-1.5938-0.57422-1.0469-0.64844-0.82422 0.32812-1.2305-0.78125-2.0547 0.93359-0.5 0.55859-0.98828-0.33203-0.97266-0.054687-1.1602 0.33203-1.5781 0.49609-1.1289 0.87109-0.74219 0.11328-1.3906-0.54688-0.88672-0.09375-1.3164 0.97656-0.58594 1.2891-0.64062 0.25-1.1719 1.0664-0.57031 0.27734-1.1719 0.58594-0.92188 0.34766-0.96875-0.19141-1.1211-0.039062-1.4961 0.69141-0.92578 0.375-0.99219 0.63672-0.80078 0.24219-1.1719 0.24219-1.0664 0.054687-1.0625 0.26172-0.98438-0.86719-0.85547-0.11719-1.3125 0.46484-1 0.72656-0.71484 0.83594-0.83203 0.26562-1.0859 0.59375-1.293 0.054687-1.2656 0.14062-1.1328 0.38281-0.92969-0.44922-1.0234-0.57031-0.96094-0.70312-0.91016-0.66797-1.2891-0.41016-0.98047 0.73438-0.85938 0.69531-0.73438 0.87891-0.75781-0.019531-1.0312-0.32031-1.1055 0.77344-0.11328" fill="none" stroke="#fff" stroke-linecap="round" stroke-linejoin="round" stroke-miterlimit="10" stroke-width="2"/>
<path d="m215.63 0.28516-0.43359 0.43359-0.55859 1.2773-0.49609 1.0195 0.5 1.0938 0.27734 0.97656 0.40234 1.125 0.66797 1.3594 1.75 2.6055 0.80469 1.0156 0.64453 1.1367 0.41406 1.7148 0.28906 1.5352-0.10156 1.5977 0.43359 1.0469-0.76953 1.3555-0.59766 1.3516 0.42578 1.1523 0.83594 1.3281 0.48047 1.2891-0.61328 1.1484-0.41016 1.0156 0.56641 4.3633 0.39453 3.1328 0.50781 3.6602 0.46484 2.1641 0.59375 1.1406 0.1875 2.3711-0.34375 4.4883 0.027343 1.3516 0.078125 6.3477-0.23047 3.0234 0.007812 3.8789 0.69531 4.4609 0.24219 2.2148-0.40625 4.1875-0.22266 3.0547 0.14844 1.5547-0.039062 1.0117 0.050781 1.4375 0.18359 1.3867 0.10938 3.2734-0.070313 1.5781 0.3125 1.832 0.34766 1.5273 0.89844 2.5469 0.76172 0.90625 0.33984 0.95312-0.03125 1.2539 0.64844 1.3945 1.1641 0.29297 1.1094 1.793 0.54688 1.082 0.15234 1.0195 0.74609 1.2109 1.8008 1.7656 0.87891 1.1914 0.34375 1.0312 0.97266 0.55078 1.3438 0.88281 0.96484 2.293-0.03125 1.2266-0.8125 1.2656-0.12109 1.3516 1.5156 1.0781 1.9258 1.0195 1.543 0.48828 1.2852 0.67969 1.457 0.96094 1.7383 1.1328 0.76953 0.71875 0.75 0.94141 0.75781 1.2305 0.42188 0.96484 1.0273 2.2148 0.64844 2.2969 0.71875 1.5039 1.2266 0.74219 1.7891 0.066406 1.4062 0.019531 0.87109 0.51172 0.28125 1.1953 0.32422 1.1445-0.36328 1.8281-0.30859 0.99219 0.69141 0.80859-0.67969 0.91016-0.21875 1.0703 0.19531 1.4141 0.51172 1.2852-0.64062 1.4648 0.23438 2.2109 0.16406 1.5391 0.54297 1.1602-0.35938 1-0.87109 1.4648-0.39062 1.1055-0.29688 1.0938-0.085938 1.3438-0.71875 0.98438-1.3281 1.2383-1.1445 0.88672-0.44531 1.1172-0.046875 1.0352-0.79297 2.3906-0.48438 1.0938-0.050782 1.1836 1.2539 1.082 0.63672 0.89062 1.1328 1.7227 0.51172 1.0703 0.24609 1 0.78516 1.1758 1.0469 1.0469 1.75 0.33984 1.1055 0.29688 2.1211 2.1445v1.2969l1.6484 2.1484 1.7227 1.9492 1.8945 1.5156 0.80078 0.71094 1.3984 0.54297-0.77344 0.96875-0.39844 1.1602-0.14844 1.5078 1.0469 1.5234 0.72266 1.1094 0.66797 2.5234 0.87109 1.4258 1.2148 1.6172 0.58203 0.89844 0.49609 1.2305 0.15625 1.2734 0.64453 2.543-0.25 2.582-0.42188 1.7109 0.46484 1.9922 0.16016 2.2578-0.19922 3.7422 0.17188 1.2734-0.48047 3.1875-0.25781 1.5195-0.10938 1.2891-0.19141 1.4805-0.20312 1.8125-0.58984 2.4219-0.21484 1.8867-0.19531 1.4414 0.078125 1.168-0.66797 1.2852-0.51172 1.4297-0.79688 2.0664-0.32422 1.8359-0.25391 1.1328-0.90234 2.2656-0.011719 1.1758-0.69141 1.793 0.29297 1.875-0.49219 1.7969-0.17969 1.0977-0.41406 1.9688-0.37109 1.1602-0.32812 1.293-0.074219 1.9414-0.39844 1.7031-0.41797 1.7227-0.63281 1.5312-0.22656 1.6406 0.37109 2.1641 0.24219 0.98828 0.46094 0.96484-0.23047 2.8594 0.34375 2.2734 0.38281 1.1758 0.30859 1.1758 0.83984 3.332 0.13281 1.5703 0.14062 1.0156 0.44922 1.8711 0.058594 1.0469 0.39062 2.0469 0.097656 1.4219-0.32031 1.6406-0.19531 0.99219 0.61719 1.7031-0.039063 1.0977-0.20312 1.2852-0.32422 1.6094-0.12891 1.6328-1.0742 1.957-0.046875 1.0117-0.40234 1.4922-0.44141 1.0234-0.39453 1.4219-0.25781 1.0312-0.95703-0.33203-1.1914-0.74609-0.87891-0.78516-1.6523-0.19141-1.1719-0.38672-1.1445-0.59375-1.1719-1.2383-1.668-0.44141-1.4023-0.046875-2.0977-0.54297-1.1406-0.125-1.0391 0.25391-1.5352 0.18359-1.4492-0.19531-0.99609-0.19141-1.293-0.33203-0.99219-0.37109-1.3203-0.51172-6.1328-3.3164-3.1328-1.8984-1.0703-0.57031-1.3477-0.73438-1.1211-0.42578-1.5-0.19531-1.4375 0.058594-1.4062-0.26172-1.2422-0.44141-0.99609-0.39453-0.98047-0.57422-1.1289-0.20703-2.2148 0.082031-1.4922 0.28906-2.0312 1.4648-1.1445 1.4961-1.2383 0.92969-1.2227 0.43359-1.2305 0.17969-1.418-0.23438-2.2656-0.24609-1.4883 0.082031-1.7656 0.25391-1.2188-0.007813-1.832-0.33984-0.97656-0.44141-1.875-0.60938-1.3711-0.32812-2.9961-0.53125-1.6914-0.70703-1.3711 0.22266-1.207 0.55078-1.4023 1.1211-0.27734 1.0312-0.32031 1.1758-0.64453 1.5234-0.71484 1.0078-1.3945 0.53125-1.4453 0.17188-1.0234 0.10547-0.82812 0.62109-0.92969 2.1758-0.45703 1.3711-0.12891 1.1055-0.42188 1.043-1.1836 1.6094-0.91406 0.96484-1.1758 0.37109-0.85938 0.57812-0.17188 1.1055-0.74609 0.70312-1.6055 1.6992-0.77344 1.1211-0.625 0.84375-1 1.082-1.7422 0.66406-1.2188 0.75781-1.0391 0.82031-1.0195 0.5625-1.4414-0.058594-1.4727 0.61328-0.20703-0.98828-0.35547-0.96875-0.20312-1.1797-0.51562-1.0312 0.38672-1.043 0.92578-0.89844 0.63281-0.82031 1.0586-0.46094 0.9375-0.875 0.96875-0.94922 1.043-1.3359 0.85547-1.207 0.48438-1.2305 0.59766-0.90625 0.27734-1.0117 0.16406-1.5156 0.48438-0.91797 0.48438-1.2188 0.066406-1.832 0.29297-1.1328 0.070313-1.0312 0.56641-1.4336 0.12891-1.4375-0.48047-0.95312-0.86328-0.91016 0.023438-1.2188-0.10938-1.0938 0.25781-1.1172 0.38672-1.3008-0.14844-1.2812 0.25391-1.0977-0.046875-1.2148 0.35156-2.4258-0.16797-1.3828 0.10156-1.0117 1.4453-0.73047-0.10156-1.1094-0.30078-1.0273 0.74219-0.94141 0.39844-1.625 0.47266-1.0039 0.38672-0.95312-0.96094-0.33594-1.5273 0.28906-1.2422 0.45312-1.3086 0.03125-1.1055-0.35547-0.91797-0.70703-1.0508-0.19531-1.0508-0.66016-1.0781-0.95703-1.0742-0.65625-1.082-0.44531-1.3828 0.14453-1.0234-0.25-0.80859 0.59375-1.1289 0.10938-1.1055-0.089843-1.0625 0.13672-0.34375-1.668-1.043-0.94922 0.015625-1.2148-0.03125-1.2461 0.70312-1.4453-0.4375-1.4883-0.14453-1.4023 0.011719-1.0664 0.33984-1.0625 0.36719-1.293-0.33594-1.582-0.46094-1.1055 1.168-0.83594 0.96875-0.67188 0.28516-1.2539-0.14453-1.0352-0.32812-1.0352-0.35938-0.94531-0.70312-0.73047-1.4023-0.49219-1.0938-0.5-0.53125-1.1406 0.42188-1.2266 0.42969-1.7656 0.14844-1.1836 0.070313-1.168-0.070313-1.1406 0.24219-1.0039-0.085938-1.1367 0.23828-1.0898-0.13672-1.3203-0.39453-1.3438-0.125-1.1133-0.62109-1.1094-0.32422-1.1133 0.16797-1.1602-0.39062-1.0391-0.33594-1.0352-0.03125-1.0039-0.11328-1.0547-0.38281-1.0547v-1.1328l-0.24609-1.4727-0.67188-1.5781-0.23438-1.1055-0.19531-1.3516-0.28125-1.0117 0.023438-1.0195-0.54297-1.043 0.26172-1.1758-0.22656-1.0508-0.55078-1.375-0.32031-1.2344-0.34375-1.1641-0.17969-1.0508-0.57422-0.96094-0.66016-0.82422-0.45703-1.1172-0.046875-1.3047-0.13672-1.418 0.13672-1.3242 0.54688-0.91406 0.45703-0.89062-0.66016-0.91406-0.9375-0.55078-0.6875-0.89062-0.52344-1.168 0.38672-1.1406 0.61719-1.2344-0.32031-1.0078-0.36719-1.0039-0.63672-1.1875-0.39062-1.0977 0.23047-1.1914 0.86719-0.91406 0.59375-1.0273 0.73047-0.89062 0.89453-0.84766 0.70703-0.84375 1.0977-0.80078 0.76562-1.1172 0.69531-1.1016 0.66406-1.0977 0.41016-1.0039-1.1875-0.45703-1.0273-0.52734-1.3945-0.54688-0.57031-0.84766-0.79297-0.78125-0.53516-1.0195-0.375-0.98828-0.99219-0.56641-1.1914 0.16406-0.72266-1.1445-0.48438-1.0078-0.87891-0.48438-0.86719-0.92188-0.14062-1.125-0.074219-1.1602 0.17188-1.0117 0.4375-1.3281 0.61719-1.4023 0.5625-1.0664 0.375-0.94531 0.22656-1.4531 0.054687-1.0078 0.19922-1.168 0.23828-1.0625-0.16016-1.1211-0.21094-1.2031 0.65625-1.1055-0.57031-0.92969-0.94141-0.90234-0.62109-0.91406-0.37891-1.293 0.46484-1.0352 0.39062-1.2578-0.89062-1.9609-0.11719-1.418 0.41406-1.1445-0.046875-1.0859-1.1445-0.12109-0.92188-0.80859-0.95312-0.69922-0.84375-0.73438-0.80469-0.77344-0.15625-1.0273-0.23438-1.5352-0.18359-1.1211-0.48047-0.92188-0.42969-1.1367-0.71094-0.80859-0.375-1.1719-0.089843-1.5-0.89844-0.69141-1.2578-0.22266-0.94141 0.37891-0.21484-1.0703-0.16797-1.3438 0.30859-2.4922 0.097656-1.3047 0.65234-0.78906 0.33594-1.2305 0.30469-1.5117 0.23438-1.0312 1.3984-0.11719 1.9375-0.52734 0.82031-0.71875-0.22656-1.0625 0.35547-1.1406 1.332-1.2266 1.1328-0.67969 0.46484-0.97266 0.73438-0.6875 0.85156 0.65234 1-0.078125 1.0547-0.17188 0.91406-0.77734 1.1875-0.53516 1.2812-0.10938 1.4648-2.043 1.0039 0.058593 1.0156-0.089843 0.99219-0.8125 0.074219-1.2539 0.23828-1.4805-0.39062-0.98438-0.050781-1.0547 0.066406-1.1523-0.88281-1.0391-0.050781-1.2812-0.15234-1.0898-0.18359-1.7266-0.41016-1.0273 0.074219-1.0625-0.75-1-1.0898 0.64062-1.1367-0.28516-1.043 0.37109-1-0.62109-0.40234-0.92969 0.37891-1.2227-0.98828-0.77734-0.80859-0.94922-0.33984-1.6992-0.1875-1.1758v-1.1758l-0.63281-0.87109-0.47656-0.96875 1.2461-0.10938 1.3086-0.90625 1.043-0.48047 0.76562-0.74609 1.1133-0.054688 0.44922-1.0156 0.94141-0.71875 0.84375-0.55469 0.60938-0.97266 0.58984-0.82812 1.5234-0.35547 1.1914-0.058594-0.39453-1.0898 0.32422-1.1914 0.75781-0.92188 0.77344-1.1016 0.72266-0.88281 0.44922-0.91797 0.64844-0.76953 0.97656-0.75781 1.0312-0.67969 0.12891-1.2031 0.89453-0.71094 0.39453-1.0703-0.085937-1.3281 0.94141-0.77344 0.57422-0.9375 0.73828-0.98047 0.32422-1.0273 0.082031-1.0547 0.46484-1.0547 0.60156-1.1758 1.1133-0.57031 1.6094-0.47266 1.0234-0.30469 1.2031-0.24219 0.64062-0.86719 0.44531-0.96094 0.98828-1.4727 0.98828-0.54297 1.1953-0.066406 0.68359-0.97656 0.25391-1.043 0.48828-1.0508 1.043-0.40234 1.2305-0.23438 1.2266-0.26953 1.0859-1.1523 0.60938-1.4688 0.16406-1.1367 0.14844-1.1953 0.68359-1.2812 0.83984-0.74609 0.90234-0.58984 0.78906-0.72266 0.30859-1.0039 1.0938-0.84375 0.77344-0.94141 0.046875-1.0859 0.28906-1.4844 1.207-0.22656 1.1211-0.17188 0.67188-1.6094 0.75-1.2773 0.49609-1.1367 2.0312-1.5234 0.70312-1.4219 0.28906-1.4258 0.21875-1.1562 1.082-1.1875 20.699-11.773-0.92969-2.0938 1.0312-0.375 1.1641-0.38672 2.1602-0.71484 0.96094-0.35156 1.1836-0.37109z" fill="#ccc" fill-rule="evenodd"/>
<path d="m215.63 0.28516-0.43359 0.43359-0.55859 1.2773-0.49609 1.0195 0.5 1.0938 0.27734 0.97656 0.40234 1.125 0.66797 1.3594 1.75 2.6055 0.80469 1.0156 0.64453 1.1367 0.41406 1.7148 0.28906 1.5352-0.10156 1.5977 0.43359 1.0469-0.76953 1.3555-0.59766 1.3516 0.42578 1.1523 0.83594 1.3281 0.48047 1.2891-0.61328 1.1484-0.41016 1.0156 0.56641 4.3633 0.39453 3.1328 0.50781 3.6602 0.46484 2.1641 0.59375 1.1406 0.1875 2.3711-0.34375 4.4883 0.027343 1.3516 0.078125 6.3477-0.23047 3.0234 0.007812 3.8789 0.69531 4.4609 0.24219 2.2148-0.40625 4.1875-0.22266 3.0547 0.14844 1.5547-0.039062 1.0117 0.050781 1.4375 0.18359 1.3867 0.10938 3.2734-0.070313 1.5781 0.3125 1.832 0.34766 1.5273 0.89844 2.5469 0.76172 0.90625 0.33984 0.95312-0.03125 1.2539 0.64844 1.3945 1.1641 0.29297 1.1094 1.793 0.54688 1.082 0.15234 1.0195 0.74609 1.2109 1.8008 1.7656 0.87891 1.1914 0.34375 1.0312 0.97266 0.55078 1.3438 0.88281 0.96484 2.293-0.03125 1.2266-0.8125 1.2656-0.12109 1.3516 1.5156 1.0781 1.9258 1.0195 1.543 0.48828 1.2852 0.67969 1.457 0.96094 1.7383 1.1328 0.76953 0.71875 0.75 0.94141 0.75781 1.2305 0.42188 0.96484 1.0273 2.2148 0.64844 2.2969 0.71875 1.5039 1.2266 0.74219 1.7891 0.066406 1.4062 0.019531 0.87109 0.51172 0.28125 1.1953 0.32422 1.1445-0.36328 1.8281-0.30859 0.99219 0.69141 0.80859-0.67969 0.91016-0.21875 1.0703 0.19531 1.4141 0.51172 1.2852-0.64062 1.4648 0.23438 2.2109 0.16406 1.5391 0.54297 1.1602-0.35938 1-0.87109 1.4648-0.39062 1.1055-0.29688 1.0938-0.085938 1.3438-0.71875 0.98438-1.3281 1.2383-1.1445 0.88672-0.44531 1.1172-0.046875 1.0352-0.79297 2.3906-0.48438 1.0938-0.050782 1.1836 1.2539 1.082 0.63672 0.89062 1.1328 1.7227 0.51172 1.0703 0.24609 1 0.78516 1.1758 1.0469 1.0469 1.75 0.33984 1.1055 0.29688 2.1211 2.1445v1.2969l1.6484 2.1484 1.7227 1.9492 1.8945 1.5156 0.80078 0.71094 1.3984 0.54297-0.77344 0.96875-0.39844 1.1602-0.14844 1.5078 1.0469 1.5234 0.72266 1.1094 0.66797 2.5234 0.87109 1.4258 1.2148 1.6172 0.58203 0.89844 0.49609 1.2305 0.15625 1.2734 0.64453 2.543-0.25 2.582-0.42188 1.7109 0.46484 1.9922 0.16016 2.2578-0.19922 3.7422 0.17188 1.2734-0.48047 3.1875-0.25781 1.5195-0.10938 1.2891-0.19141 1.4805-0.20312 1.8125-0.58984 2.4219-0.21484 1.8867-0.19531 1.4414 0.078125 1.168-0.66797 1.2852-0.51172 1.4297-0.79688 2.0664-0.32422 1.8359-0.25391 1.1328-0.90234 2.2656-0.011719 1.1758-0.69141 1.793 0.29297 1.875-0.49219 1.7969-0.17969 1.0977-0.41406 1.9688-0.37109 1.1602-0.32812 1.293-0.074219 1.9414-0.39844 1.7031-0.41797 1.7227-0.63281 1.5312-0.22656 1.6406 0.37109 2.1641 0.24219 0.98828 0.46094 0.96484-0.23047 2.8594 0.34375 2.2734 0.38281 1.1758 0.30859 1.1758 0.83984 3.332 0.13281 1.5703 0.14062 1.0156 0.44922 1.8711 0.058594 1.0469 0.39062 2.0469 0.097656 1.4219-0.32031 1.6406-0.19531 0.99219 0.61719 1.7031-0.039063 1.0977-0.20312 1.2852-0.32422 1.6094-0.12891 1.6328-1.0742 1.957-0.046875 1.0117-0.40234 1.4922-0.44141 1.0234-0.39453 1.4219-0.25781 1.0312-0.95703-0.33203-1.1914-0.74609-0.87891-0.78516-1.6523-0.19141-1.1719-0.38672-1.1445-0.59375-1.1719-1.2383-1.668-0.44141-1.4023-0.046875-2.0977-0.54297-1.1406-0.125-1.0391 0.25391-1.5352 0.18359-1.4492-0.19531-0.99609-0.19141-1.293-0.33203-0.99219-0.37109-1.3203-0.51172-6.1328-3.3164-3.1328-1.8984-1.0703-0.57031-1.3477-0.73438-1.1211-0.42578-1.5-0.19531-1.4375 0.058594-1.4062-0.26172-1.2422-0.44141-0.99609-0.39453-0.98047-0.57422-1.1289-0.20703-2.2148 0.082031-1.4922 0.28906-2.0312 1.4648-1.1445 1.4961-1.2383 0.92969-1.2227 0.43359-1.2305 0.17969-1.418-0.23438-2.2656-0.24609-1.4883 0.082031-1.7656 0.25391-1.2188-0.007813-1.832-0.33984-0.97656-0.44141-1.875-0.60938-1.3711-0.32812-2.9961-0.53125-1.6914-0.70703-1.3711 0.22266-1.207 0.55078-1.4023 1.1211-0.27734 1.0312-0.32031 1.1758-0.64453 1.5234-0.71484 1.0078-1.3945 0.53125-1.4453 0.17188-1.0234 0.10547-0.82812 0.62109-0.92969 2.1758-0.45703 1.3711-0.12891 1.1055-0.42188 1.043-1.1836 1.6094-0.91406 0.96484-1.1758 0.37109-0.85938 0.57812-0.17188 1.1055-0.74609 0.70312-1.6055 1.6992-0.77344 1.1211-0.625 0.84375-1 1.082-1.7422 0.66406-1.2188 0.75781-1.0391 0.82031-1.0195 0.5625-1.4414-0.058594-1.4727 0.61328-0.20703-0.98828-0.35547-0.96875-0.20312-1.1797-0.51562-1.0312 0.38672-1.043 0.92578-0.89844 0.63281-0.82031 1.0586-0.46094 0.9375-0.875 0.96875-0.94922 1.043-1.3359 0.85547-1.207 0.48438-1.2305 0.59766-0.90625 0.27734-1.0117 0.16406-1.5156 0.48438-0.91797 0.48438-1.2188 0.066406-1.832 0.29297-1.1328 0.070313-1.0312 0.56641-1.4336 0.12891-1.4375-0.48047-0.95312-0.86328-0.91016 0.023438-1.2188-0.10938-1.0938 0.25781-1.1172 0.38672-1.3008-0.14844-1.2812 0.25391-1.0977-0.046875-1.2148 0.35156-2.4258-0.16797-1.3828 0.10156-1.0117 1.4453-0.73047-0.10156-1.1094-0.30078-1.0273 0.74219-0.94141 0.39844-1.625 0.47266-1.0039 0.38672-0.95312-0.96094-0.33594-1.5273 0.28906-1.2422 0.45312-1.3086 0.03125-1.1055-0.35547-0.91797-0.70703-1.0508-0.19531-1.0508-0.66016-1.0781-0.95703-1.0742-0.65625-1.082-0.44531-1.3828 0.14453-1.0234-0.25-0.80859 0.59375-1.1289 0.10938-1.1055-0.089843-1.0625 0.13672-0.34375-1.668-1.043-0.94922 0.015625-1.2148-0.03125-1.2461 0.70312-1.4453-0.4375-1.4883-0.14453-1.4023 0.011719-1.0664 0.33984-1.0625 0.36719-1.293-0.33594-1.582-0.46094-1.1055 1.168-0.83594 0.96875-0.67188 0.28516-1.2539-0.14453-1.0352-0.32812-1.0352-0.35938-0.94531-0.70312-0.73047-1.4023-0.49219-1.0938-0.5-0.53125-1.1406 0.42188-1.2266 0.42969-1.7656 0.14844-1.1836 0.070313-1.168-0.070313-1.1406 0.24219-1.0039-0.085938-1.1367 0.23828-1.0898-0.13672-1.3203-0.39453-1.3438-0.125-1.1133-0.62109-1.1094-0.32422-1.1133 0.16797-1.1602-0.39062-1.0391-0.33594-1.0352-0.03125-1.0039-0.11328-1.0547-0.38281-1.0547v-1.1328l-0.24609-1.4727-0.67188-1.5781-0.23438-1.1055-0.19531-1.3516-0.28125-1.0117 0.023438-1.0195-0.54297-1.043 0.26172-1.1758-0.22656-1.0508-0.55078-1.375-0.32031-1.2344-0.34375-1.1641-0.17969-1.0508-0.57422-0.96094-0.66016-0.82422-0.45703-1.1172-0.046875-1.3047-0.13672-1.418 0.13672-1.3242 0.54688-0.91406 0.45703-0.89062-0.66016-0.91406-0.9375-0.55078-0.6875-0.89062-0.52344-1.168 0.38672-1.1406 0.61719-1.2344-0.32031-1.0078-0.36719-1.0039-0.63672-1.1875-0.39062-1.0977 0.23047-1.1914 0.86719-0.91406 0.59375-1.0273 0.73047-0.89062 0.89453-0.84766 0.70703-0.84375 1.0977-0.80078 0.76562-1.1172 0.69531-1.1016 0.66406-1.0977 0.41016-1.0039-1.1875-0.45703-1.0273-0.52734-1.3945-0.54688-0.57031-0.84766-0.79297-0.78125-0.53516-1.0195-0.375-0.98828-0.99219-0.56641-1.1914 0.16406-0.72266-1.1445-0.48438-1.0078-0.87891-0.48438-0.86719-0.92188-0.14062-1.125-0.074219-1.1602 0.17188-1.0117 0.4375-1.3281 0.61719-1.4023 0.5625-1.0664 0.375-0.94531 0.22656-1.4531 0.054687-1.0078 0.19922-1.168 0.23828-1.0625-0.16016-1.1211-0.21094-1.2031 0.65625-1.1055-0.57031-0.92969-0.94141-0.90234-0.62109-0.91406-0.37891-1.293 0.46484-1.0352 0.39062-1.2578-0.89062-1.9609-0.11719-1.418 0.41406-1.1445-0.046875-1.0859-1.1445-0.12109-0.92188-0.80859-0.95312-0.69922-0.84375-0.73438-0.80469-0.77344-0.15625-1.0273-0.23438-1.5352-0.18359-1.1211-0.48047-0.92188-0.42969-1.1367-0.71094-0.80859-0.375-1.1719-0.089843-1.5-0.89844-0.69141-1.2578-0.22266-0.94141 0.37891-0.21484-1.0703-0.16797-1.3438 0.30859-2.4922 0.097656-1.3047 0.65234-0.78906 0.33594-1.2305 0.30469-1.5117 0.23438-1.0312 1.3984-0.11719 1.9375-0.52734 0.82031-0.71875-0.22656-1.0625 0.35547-1.1406 1.332-1.2266 1.1328-0.67969 0.46484-0.97266 0.73438-0.6875 0.85156 0.65234 1-0.078125 1.0547-0.17188 0.91406-0.77734 1.1875-0.53516 1.2812-0.10938 1.4648-2.043 1.0039 0.058593 1.0156-0.089843 0.99219-0.8125 0.074219-1.2539 0.23828-1.4805-0.39062-0.98438-0.050781-1.0547 0.066406-1.1523-0.88281-1.0391-0.050781-1.2812-0.15234-1.0898-0.18359-1.7266-0.41016-1.0273 0.074219-1.0625-0.75-1-1.0898 0.64062-1.1367-0.28516-1.043 0.37109-1-0.62109-0.40234-0.92969 0.37891-1.2227-0.98828-0.77734-0.80859-0.94922-0.33984-1.6992-0.1875-1.1758v-1.1758l-0.63281-0.87109-0.47656-0.96875 1.2461-0.10938 1.3086-0.90625 1.043-0.48047 0.76562-0.74609 1.1133-0.054688 0.44922-1.0156 0.94141-0.71875 0.84375-0.55469 0.60938-0.97266 0.58984-0.82812 1.5234-0.35547 1.1914-0.058594-0.39453-1.0898 0.32422-1.1914 0.75781-0.92188 0.77344-1.1016 0.72266-0.88281 0.44922-0.91797 0.64844-0.76953 0.97656-0.75781 1.0312-0.67969 0.12891-1.2031 0.89453-0.71094 0.39453-1.0703-0.085937-1.3281 0.94141-0.77344 0.57422-0.9375 0.73828-0.98047 0.32422-1.0273 0.082031-1.0547 0.46484-1.0547 0.60156-1.1758 1.1133-0.57031 1.6094-0.47266 1.0234-0.30469 1.2031-0.24219 0.64062-0.86719 0.44531-0.96094 0.98828-1.4727 0.98828-0.54297 1.1953-0.066406 0.68359-0.97656 0.25391-1.043 0.48828-1.0508 1.043-0.40234 1.2305-0.23438 1.2266-0.26953 1.0859-1.1523 0.60938-1.4688 0.16406-1.1367 0.14844-1.1953 0.68359-1.2812 0.83984-0.74609 0.90234-0.58984 0.78906-0.72266 0.30859-1.0039 1.0938-0.84375 0.77344-0.94141 0.046875-1.0859 0.28906-1.4844 1.207-0.22656 1.1211-0.17188 0.67188-1.6094 0.75-1.2773 0.49609-1.1367 2.0312-1.5234 0.70312-1.4219 0.28906-1.4258 0.21875-1.1562 1.082-1.1875 20.699-11.773-0.92969-2.0938 1.0312-0.375 1.1641-0.38672 2.1602-0.71484 0.96094-0.35156 1.1836-0.37109 0.60547 0.042968" fill="none" stroke="#fff" stroke-linecap="round" stroke-linejoin="round" stroke-miterlimit="10" stroke-width="2"/>
<path d="m106.16 81.34 0.4375 0.050781 1.6719 0.66406 1.0703 0.60156 1.0898 0.78125 0.85156 0.76172 1.0742-0.054688 1.0273 0.25391 0.99219 0.61719 1.0234-0.18359 1.0742-0.18359 1.1211-0.16797 0.85938 0.69531 1.0391 0.17188 1.0742 0.60547 1.0977-0.16797 1.2188-0.12109 1.1055 0.20703 1.4023-0.38281 0.71484 0.75391 0.78516 0.66406-0.03125 1.1484-0.22266 1.2188 0.023437 1.2188-0.023437 1.0781-0.25 1.0312 1.4766 1.7695 0.29297 1.2969-0.21875 1.0859 0.19922 1.2773 0.64062 1.793 0.47266 1.2734 0.17578 1.0039 0.03125 1.0039 0.63672 0.78125-0.96094 0.90625 0.26953 1.1172 0.94531 0.50391 1.1133 0.62891 0.51953 0.85938-0.27344 1.5312 0.22656 1.0625-0.82031 0.71875-1.1328 0.37891-1.7109 0.050781-0.74219 0.83203-0.19141 1.1406-0.43359 2.0156-0.65234 0.78906-0.097656 1.3047-0.30859 2.4922 0.16797 1.3438 0.21484 1.0703 0.94141-0.37891 1.2578 0.22266 0.89844 0.69141 0.089843 1.5 0.375 1.1719 0.71094 0.80859 0.42969 1.1367 0.48047 0.92188 0.18359 1.1211 0.23438 1.5352 0.15625 1.0273 0.80469 0.77344 0.84375 0.73438 0.95312 0.69922 0.92188 0.80859 1.0156-0.046875 0.23047 0.98438-0.44141 1.1953 0.054687 1.207 0.38281 1.6406 0.39062 1.0781-0.35547 1.2695-0.23828 1.1914 0.46875 0.94531 0.84375 1.1719 0.96094 0.93359-0.55469 1.2344 0.125 1.1836 0.26172 1.0859-0.15234 1.1445-0.27344 1.5039-0.054687 1.0078-0.22656 1.4531-0.375 0.94531-0.5625 1.0664-0.61719 1.4023-0.28516 1.0859-0.47266 0.89844 0.22266 1.5156 0.14062 1.125 0.64062 0.87109 1.0078 0.22266 0.55469 1.2578 0.34375 0.97266 1.0508 0.003906 1.0469 0.19922 0.60938 0.87891 0.55078 0.94531 0.51172 1.1094 0.98047 0.58594 0.61719 0.89453 1.2773 0.29688 0.98438 0.57031 0.73047 0.75391-0.61719 1.1445-0.73047 1.0273-0.43359 1.1211-1.0742 0.89062-0.98438 0.9375-1.0273 0.96094-0.59375 0.82031-0.9375 1.2148-0.59375 0.91406-0.55078 1.3711 0.39062 1.0977 0.43359 0.91406 0.52344 1.0039 0.48828 1.0234-0.46484 1.0586-0.52344 0.89062 0.17969 1.2344 0.52734 1.1211 1.0508 0.59375 0.75391 1.0039-0.29688 1.1445-0.54688 0.91406-0.13672 1.3242 0.13672 1.0312 0.066406 1.0039 0.09375 1.1445 0.64062 0.79688 0.66016 0.9375 0.32031 1.1445 0.27734 0.98438 0.31641 1.3242 0.39062 1.3047 0.41016 1.1875-0.015625 1.3359 0.34375 1.1328 0.12109 1.0195 0.27344 1.4023 0.19531 1.3516 0.23438 1.1055 0.53906 1.1523 0.25391 1.3672 0.21875 1.1133-0.03125 1.0391 0.36719 0.97266 0.125 1.0508 0.097656 1.2734 0.48828 0.95312 0.10156 1.2344 0.16797 1.4883 0.62109 1.1094 0.125 1.1133 0.39453 1.3438 0.13672 1.3203-0.23828 1.0898 0.085938 1.1367-0.24219 1.0039 0.070313 1.1406-0.070313 1.168-0.14844 1.1836-0.34766 1.4297-0.50391 1.5625-0.25781 0.97656 1.0625 0.33594 1.4805 0.37891 1.1484 0.80859 0.61719 1.082 0.36719 1.2617 0.14453 1.0352-0.11328 1.0547-1.1406 0.87109-1.082 0.09375 0.035156 1.0977 0.67969 1.5-0.13672 1.3008-0.37109 1.3047-0.21484 1.6484 0.14453 1.4023 0.48047 0.88672-0.53125 1.1289-0.23828 1.293-0.17578 1.1641 0.58203 1.1523 0.75781 1.543 0.36328 0.98438 1.1758-0.45312 1.1602 0.48438 0.96094-0.41797 0.89844-0.52344 1.5156 0.28516 1.2422-0.015625 0.875 0.49219 1.3086 0.69141 0.72656 1.0352 1.2266 0.42969 1.0117 0.26562 0.81641 0.71094 1.5039 0.19141 1.0352-0.16797 1.5352-0.1875 1.1914-0.39062 0.76953 0.66406-0.71875 0.74609-0.48047 1.7812-0.44141 1.1094-0.20312 1.5742 0.10156 1.1094-1.4453 0.73047-0.10156 1.0117 0.17969 1.1758-0.1875 1.8438-0.16016 1.1758 0.085937 1.1406-0.28125 1.1523 0.14844 1.418-0.59766 1.1719-0.082031 1.0977 0.14453 1.0234 0.34375 1.2969 0.83203 0.92969 0.21094 1.1211-0.39062 1.457-0.35938 1.3477-0.27344 1.168-0.28516 1.6172-0.25781 1.0742-0.21484 0.98828-0.38281 1.4805-0.46484 1.8477-0.59766 0.90625-0.48438 1.2305-0.54688 0.83984-0.89453 1.0195-0.72656 0.95703-0.91016 0.89062-1.0234 0.83203-1.1445 0.52344-0.86719 1.1836-0.96875 1.082-1.1133 0.45312-0.93359 0.36719-1.1719 0.30859-0.79297 0.63281-0.79688 1.043-0.23438 1.4766 0.070312 1.3164 0.28125 0.96875 0.53125 1.2734 0.57422 1.2578 0.36719 1.0703 0.25781 1.0703 0.55078 1.3516 0.52734 0.86328v1.418l-0.074219 1.0391-0.097656 1.0156 0.019531 1.1094-0.69141 1.2344 0.007812 1 0.27734 1.1875 0.023438 1.2148-0.21484 1.3203-0.19922 1.2734-0.60547 1.1445-0.56641 0.82422-0.28125 1.1133-1.1797 1.2617-0.71094 0.94531-0.66797 0.89062-0.87109 0.83203-0.59766 0.95312-0.90625 0.46875-0.55078-0.90234-0.33203-0.99609-1.2461 0.77344-1.1797 0.089843-0.50391-1.0586 1.1445-1.0234 0.81641-0.76562-0.14453-1.043-1.4102-0.96875-0.85547-0.69922-1.082-0.18359-1.332 0.57422-0.69141 1.0234-1.3867 1.2734-0.6875 0.86328-1.125 0.74609-1.0078-0.34766-2.043-0.039062-0.96484 0.33594-1.5703 0.37891-1.0117 0.60547-0.5625 0.875-1.0547 1.0508-0.85547 1.2969-0.50781 1.2344-0.64453 1.0977-1.7148 2.1484-0.53516 0.85938-1.2031 1.9375-0.76953 1.0078-0.64844 0.92969-0.14453-1.3164-0.41406-1.0977-0.71094-1.0117 0.070312-1.0352 0.15625-1.3008 0.55469-1.0039 0.44141-0.96484-0.5625-0.82812-0.94531-1.0703-0.27344-1.1914-0.03125-1.2227-0.99609-0.50781-0.62891 1.1172-0.78906 0.70312-0.93359 0.64844-1.3555 0.27734-1.2148 0.39062-0.95703-0.49219-1.043-0.30469-0.94531-0.46484-1.0586-0.23047-1.2539 1.0117-0.53125 0.94531-1.0391 0.17578-1.0586-0.097656-0.73047-1.375-0.074219-1.0117-1.0938-0.85156-0.69531-0.875-1.4102-1.2188-0.64844-0.87109-1.2344 0.36328-0.94531 0.49609-1.168-0.046875-1.6875 0.023437-1.0586 0.17969-0.96484 0.40625-0.85547 0.64844-1.1016 0.070313-1.0547 0.26953-1.0586 0.042969-1.168-0.51562-0.60547-0.83203-1.2617 0.066407-1.0547-0.58203-0.85547-0.58594-1.4531-0.32812h-1.4727l-1.1562 0.25-1.3398 0.23828-0.48047-1.1758-0.38672-0.98828-0.57031-0.92969-0.875-1.2109-1.1602-0.99219-0.77734-0.65625-0.72656-1.3086-0.5625-1.1523-1.2188-0.61719-3.0664-2.5859-1.8086-1.2812-3.6641-0.25-0.78125-0.71484-1.2852-0.16797-1.0273-0.125-0.72656 0.74219-0.76953 0.76172-0.58203 1.0156-1.0312 0.42969-0.21484 1.3359-1.1406 0.55078-1.0742-0.54688-0.29297-2.0469 0.17969-1.1641 0.027344-1.1758-0.30859-1.2344-0.14062-1.1133-0.79297-1.1836 0.33594-1.0039 0.23828-1.293 0.70312-0.95703 0.17969-1.0469 0.019531-1.0781-0.79688-0.75391-0.94922-0.68359-0.67188-0.85547-0.45703-1.3398-0.41797-1.1367-0.66016-1.1289-1.0312-0.17188-0.74609 0.8125-1.1055-0.039062-1.0859-0.34375-0.87891-1.3633-1.168-0.46875-1.1758 0.29688-0.5625-1.0508 0.16016-1.2031-0.21484-0.98047 0.27734-1.4258 0.61328-1.332-0.046875-1.2461 0.55859-0.9375 0.89062-0.59375 0.83594-1.8008 0.003906-1.0469 0.44531-1.0156 1.0117-0.39453 1.3828-0.30859 0.94531-0.78516 0.87109-0.69141 0.097656-1.125-0.17969-1.2266-0.26953-1.2344-1.8086 0.59766-1.0938-0.050781-1.0625 0.089844-0.80469 0.82031-0.95703-0.49219-0.91406-1.0898-0.48828-0.96484-0.66016-0.82422-0.097656-1.1211 0.35938-0.94531 0.058593-1.0859 0.054688-1.0586-0.28906-1.1562-0.48828-1.5078-0.95703-1.3828-0.48828-1.1133 0.003906-1.4375 0.29297-1.0391-0.53125-0.94141-0.41406-1.0273 0.72656-1.4258 0.66797-0.91016 0.10547-1.0703 0.18359-1.0664 0.72266-1.0195 0.5625-1.125 1.5781-0.77344 0.85156-0.55469 1.0078-0.23828 0.83203-0.61328-0.03125-1.2148 0.77344-0.74609 0.14062-1.1172 0.46484-1.0352 0.17969-1.1328 0.99609-0.88672 1.0547-0.68359-0.51953-1-0.40625-1.1523-0.29688-1.1641-0.45312-1.1523-0.16016-1.6055 0.24219-1.8555 0.53906-0.89844 0.63281-0.87109 0.76172-0.77734 1.0273-0.027343 0.80469-0.91406 0.89453-0.51953 1.3086-0.625 0.1875-0.98828 0.023438-1.1289-0.21875-1.1914 0.58203-1.0938 0.31641-1.1523-0.14453-1.0508-0.48047-1.2578-0.027343-1.0703-0.52344-1.0352 0.14062-1.1836-0.39062-1.1016 0.24219-0.98438 0.50391-1.3672 0.53906-1.0547 0.45312-1.0312 0.32812-1.1758 0.50391-1.4102 0.96094-0.82031 0.63281-0.94531 0.52344-0.96094 0.80469-0.75 1.0273-0.70703 0.70703-1.0586 0.84375-0.79688 0.44531-1.5352 0.47656-0.89453-0.9375-0.82422-1.5078-0.61719-1.1641-0.70703-1.2891-0.39844-0.98828-0.70312-0.3125-1.207-0.41016-0.91406 0.50391-1.1523 0.35156-0.94141 0.011719-1.1914 0.023438-1.0195 0.29688-1.0625-0.070313-1.1641 0.19141-1.0391-0.5625-1.1211 0.48438-1.0234 0.67578-0.92188 1.1836-0.69531 0.78125-0.77734 0.97656-0.55469 0.91406-0.49609-0.24219-1.2852 0.80078-1.1055 0.82422-0.74219 0.58984-1.2148 0.73438-0.95312 0.52344-1.5859 1.0234-0.28125 1.2852-0.39844 1.1055-0.26172 1.2148 0.003906 1.043-0.097656 1.1406-0.015625 0.96094-0.39844 0.51562-1.1484 0.61719-1.168 0.49219-1.0977 0.5625-0.90625 0.40234-1.0234-0.62891-0.94141-0.51953-0.91797-1.0703-0.43359 0.47266-1.043 0.89062-0.63672 0.43359-0.92188-0.058593-1.1484 0.082031-1.7461 0.19531-1.9492 0.63672-1.0508 0.72266-0.81641 0.32031-1.0234 1.1133-0.054687 0.54297-1.3711-0.10938-1.0859-1.0664-0.21094 0.45312-1.2461 1.1328 0.36719 1.0508-0.035156 0.90234-0.62891 1.1562-0.59766 0.96875-0.32812 0.64062-0.92969 1.0859-0.76562 0.90625-1.2383 0.91797-0.85938 1.0117-1.1406 0.71484-0.92578 0.27734-1.1211 0.39453-1.1953 0.19141-0.98438-0.59375-1.0898-0.98047-0.58984 0.25391-0.98047 0.67969-0.92188 0.54688-0.90234 0.29688-1.1445 0.66016-1.1992 0.37109-0.98828-1.0078-0.47266-1.0352-0.52344-0.98047-1.125-0.92578-0.49219 0.89844-0.92969-0.23828-1.2695 0.0625-1.1523-0.93359-0.50781-0.085938-1.0078v-1.1914l0.57031-1.2305 0.96875-0.53906 0.82812 0.82422 1.3281 0.15625 1.0352-0.20703 0.85156-0.875 0.31641-1.082-0.003906-1.1445-0.83203-0.72656 0.37109-1.1367 0.41406-1.0391-0.77734-1.3906-0.070313-1.2969 1.3789-0.82812 1.0117-0.50781-0.90625-1.5938-0.57422-1.0469-0.64844-0.82422 0.32812-1.2305-0.78125-2.0547 0.93359-0.5 0.55859-0.98828-0.33203-0.97266-0.054687-1.1602 0.33203-1.5781 0.49609-1.1289 0.87109-0.74219 0.11328-1.3906-0.54688-0.88672-0.09375-1.3164 0.97656-0.58594 1.2891-0.64062 0.25-1.1719 1.0664-0.57031 0.27734-1.1719 0.58594-0.92188 0.34766-0.96875-0.19141-1.1211-0.039062-1.4961 0.69141-0.92578 0.375-0.99219 0.63672-0.80078 0.24219-1.1719 0.24219-1.0664 0.054687-1.0625 0.26172-0.98438-0.86719-0.85547-0.11719-1.3125 0.46484-1 0.72656-0.71484 0.83594-0.83203 0.26562-1.0859 0.59375-1.293 0.054687-1.2656 0.14062-1.1328 0.38281-0.92969-0.44922-1.0234-0.57031-0.96094-0.70312-0.91016-0.66797-1.2891-0.41016-0.98047 0.73438-0.85938 0.69531-0.73438 0.87891-0.75781-0.019531-1.0312-0.32031-1.1055z" fill="#0a5394" fill-rule="evenodd"/>
<path d="m106.16 81.34 0.4375 0.050781 1.6719 0.66406 1.0703 0.60156 1.0898 0.78125 0.85156 0.76172 1.0742-0.054688 1.0273 0.25391 0.99219 0.61719 1.0234-0.18359 1.0742-0.18359 1.1211-0.16797 0.85938 0.69531 1.0391 0.17188 1.0742 0.60547 1.0977-0.16797 1.2188-0.12109 1.1055 0.20703 1.4023-0.38281 0.71484 0.75391 0.78516 0.66406-0.03125 1.1484-0.22266 1.2188 0.023437 1.2188-0.023437 1.0781-0.25 1.0312 1.4766 1.7695 0.29297 1.2969-0.21875 1.0859 0.19922 1.2773 0.64062 1.793 0.47266 1.2734 0.17578 1.0039 0.03125 1.0039 0.63672 0.78125-0.96094 0.90625 0.26953 1.1172 0.94531 0.50391 1.1133 0.62891 0.51953 0.85938-0.27344 1.5312 0.22656 1.0625-0.82031 0.71875-1.1328 0.37891-1.7109 0.050781-0.74219 0.83203-0.19141 1.1406-0.43359 2.0156-0.65234 0.78906-0.097656 1.3047-0.30859 2.4922 0.16797 1.3438 0.21484 1.0703 0.94141-0.37891 1.2578 0.22266 0.89844 0.69141 0.089843 1.5 0.375 1.1719 0.71094 0.80859 0.42969 1.1367 0.48047 0.92188 0.18359 1.1211 0.23438 1.5352 0.15625 1.0273 0.80469 0.77344 0.84375 0.73438 0.95312 0.69922 0.92188 0.80859 1.0156-0.046875 0.23047 0.98438-0.44141 1.1953 0.054687 1.207 0.38281 1.6406 0.39062 1.0781-0.35547 1.2695-0.23828 1.1914 0.46875 0.94531 0.84375 1.1719 0.96094 0.93359-0.55469 1.2344 0.125 1.1836 0.26172 1.0859-0.15234 1.1445-0.27344 1.5039-0.054687 1.0078-0.22656 1.4531-0.375 0.94531-0.5625 1.0664-0.61719 1.4023-0.28516 1.0859-0.47266 0.89844 0.22266 1.5156 0.14062 1.125 0.64062 0.87109 1.0078 0.22266 0.55469 1.2578 0.34375 0.97266 1.0508 0.003906 1.0469 0.19922 0.60938 0.87891 0.55078 0.94531 0.51172 1.1094 0.98047 0.58594 0.61719 0.89453 1.2773 0.29688 0.98438 0.57031 0.73047 0.75391-0.61719 1.1445-0.73047 1.0273-0.43359 1.1211-1.0742 0.89062-0.98438 0.9375-1.0273 0.96094-0.59375 0.82031-0.9375 1.2148-0.59375 0.91406-0.55078 1.3711 0.39062 1.0977 0.43359 0.91406 0.52344 1.0039 0.48828 1.0234-0.46484 1.0586-0.52344 0.89062 0.17969 1.2344 0.52734 1.1211 1.0508 0.59375 0.75391 1.0039-0.29688 1.1445-0.54688 0.91406-0.13672 1.3242 0.13672 1.0312 0.066406 1.0039 0.09375 1.1445 0.64062 0.79688 0.66016 0.9375 0.32031 1.1445 0.27734 0.98438 0.31641 1.3242 0.39062 1.3047 0.41016 1.1875-0.015625 1.3359 0.34375 1.1328 0.12109 1.0195 0.27344 1.4023 0.19531 1.3516 0.23438 1.1055 0.53906 1.1523 0.25391 1.3672 0.21875 1.1133-0.03125 1.0391 0.36719 0.97266 0.125 1.0508 0.097656 1.2734 0.48828 0.95312 0.10156 1.2344 0.16797 1.4883 0.62109 1.1094 0.125 1.1133 0.39453 1.3438 0.13672 1.3203-0.23828 1.0898 0.085938 1.1367-0.24219 1.0039 0.070313 1.1406-0.070313 1.168-0.14844 1.1836-0.34766 1.4297-0.50391 1.5625-0.25781 0.97656 1.0625 0.33594 1.4805 0.37891 1.1484 0.80859 0.61719 1.082 0.36719 1.2617 0.14453 1.0352-0.11328 1.0547-1.1406 0.87109-1.082 0.09375 0.035156 1.0977 0.67969 1.5-0.13672 1.3008-0.37109 1.3047-0.21484 1.6484 0.14453 1.4023 0.48047 0.88672-0.53125 1.1289-0.23828 1.293-0.17578 1.1641 0.58203 1.1523 0.75781 1.543 0.36328 0.98438 1.1758-0.45312 1.1602 0.48438 0.96094-0.41797 0.89844-0.52344 1.5156 0.28516 1.2422-0.015625 0.875 0.49219 1.3086 0.69141 0.72656 1.0352 1.2266 0.42969 1.0117 0.26562 0.81641 0.71094 1.5039 0.19141 1.0352-0.16797 1.5352-0.1875 1.1914-0.39062 0.76953 0.66406-0.71875 0.74609-0.48047 1.7812-0.44141 1.1094-0.20312 1.5742 0.10156 1.1094-1.4453 0.73047-0.10156 1.0117 0.17969 1.1758-0.1875 1.8438-0.16016 1.1758 0.085937 1.1406-0.28125 1.1523 0.14844 1.418-0.59766 1.1719-0.082031 1.0977 0.14453 1.0234 0.34375 1.2969 0.83203 0.92969 0.21094 1.1211-0.39062 1.457-0.35938 1.3477-0.27344 1.168-0.28516 1.6172-0.25781 1.0742-0.21484 0.98828-0.38281 1.4805-0.46484 1.8477-0.59766 0.90625-0.48438 1.2305-0.54688 0.83984-0.89453 1.0195-0.72656 0.95703-0.91016 0.89062-1.0234 0.83203-1.1445 0.52344-0.86719 1.1836-0.96875 1.082-1.1133 0.45312-0.93359 0.36719-1.1719 0.30859-0.79297 0.63281-0.79688 1.043-0.23438 1.4766 0.070312 1.3164 0.28125 0.96875 0.53125 1.2734 0.57422 1.2578 0.36719 1.0703 0.25781 1.0703 0.55078 1.3516 0.52734 0.86328v1.418l-0.074219 1.0391-0.097656 1.0156 0.019531 1.1094-0.69141 1.2344 0.007812 1 0.27734 1.1875 0.023438 1.2148-0.21484 1.3203-0.19922 1.2734-0.60547 1.1445-0.56641 0.82422-0.28125 1.1133-1.1797 1.2617-0.71094 0.94531-0.66797 0.89062-0.87109 0.83203-0.59766 0.95312-0.90625 0.46875-0.55078-0.90234-0.33203-0.99609-1.2461 0.77344-1.1797 0.089843-0.50391-1.0586 1.1445-1.0234 0.81641-0.76562-0.14453-1.043-1.4102-0.96875-0.85547-0.69922-1.082-0.18359-1.332 0.57422-0.69141 1.0234-1.3867 1.2734-0.6875 0.86328-1.125 0.74609-1.0078-0.34766-2.043-0.039062-0.96484 0.33594-1.5703 0.37891-1.0117 0.60547-0.5625 0.875-1.0547 1.0508-0.85547 1.2969-0.50781 1.2344-0.64453 1.0977-1.7148 2.1484-0.53516 0.85938-1.2031 1.9375-0.76953 1.0078-0.64844 0.92969-0.14453-1.3164-0.41406-1.0977-0.71094-1.0117 0.070312-1.0352 0.15625-1.3008 0.55469-1.0039 0.44141-0.96484-0.5625-0.82812-0.94531-1.0703-0.27344-1.1914-0.03125-1.2227-0.99609-0.50781-0.62891 1.1172-0.78906 0.70312-0.93359 0.64844-1.3555 0.27734-1.2148 0.39062-0.95703-0.49219-1.043-0.30469-0.94531-0.46484-1.0586-0.23047-1.2539 1.0117-0.53125 0.94531-1.0391 0.17578-1.0586-0.097656-0.73047-1.375-0.074219-1.0117-1.0938-0.85156-0.69531-0.875-1.4102-1.2188-0.64844-0.87109-1.2344 0.36328-0.94531 0.49609-1.168-0.046875-1.6875 0.023437-1.0586 0.17969-0.96484 0.40625-0.85547 0.64844-1.1016 0.070313-1.0547 0.26953-1.0586 0.042969-1.168-0.51562-0.60547-0.83203-1.2617 0.066407-1.0547-0.58203-0.85547-0.58594-1.4531-0.32812h-1.4727l-1.1562 0.25-1.3398 0.23828-0.48047-1.1758-0.38672-0.98828-0.57031-0.92969-0.875-1.2109-1.1602-0.99219-0.77734-0.65625-0.72656-1.3086-0.5625-1.1523-1.2188-0.61719-3.0664-2.5859-1.8086-1.2812-3.6641-0.25-0.78125-0.71484-1.2852-0.16797-1.0273-0.125-0.72656 0.74219-0.76953 0.76172-0.58203 1.0156-1.0312 0.42969-0.21484 1.3359-1.1406 0.55078-1.0742-0.54688-0.29297-2.0469 0.17969-1.1641 0.027344-1.1758-0.30859-1.2344-0.14062-1.1133-0.79297-1.1836 0.33594-1.0039 0.23828-1.293 0.70312-0.95703 0.17969-1.0469 0.019531-1.0781-0.79688-0.75391-0.94922-0.68359-0.67188-0.85547-0.45703-1.3398-0.41797-1.1367-0.66016-1.1289-1.0312-0.17188-0.74609 0.8125-1.1055-0.039062-1.0859-0.34375-0.87891-1.3633-1.168-0.46875-1.1758 0.29688-0.5625-1.0508 0.16016-1.2031-0.21484-0.98047 0.27734-1.4258 0.61328-1.332-0.046875-1.2461 0.55859-0.9375 0.89062-0.59375 0.83594-1.8008 0.003906-1.0469 0.44531-1.0156 1.0117-0.39453 1.3828-0.30859 0.94531-0.78516 0.87109-0.69141 0.097656-1.125-0.17969-1.2266-0.26953-1.2344-1.8086 0.59766-1.0938-0.050781-1.0625 0.089844-0.80469 0.82031-0.95703-0.49219-0.91406-1.0898-0.48828-0.96484-0.66016-0.82422-0.097656-1.1211 0.35938-0.94531 0.058593-1.0859 0.054688-1.0586-0.28906-1.1562-0.48828-1.5078-0.95703-1.3828-0.48828-1.1133 0.003906-1.4375 0.29297-1.0391-0.53125-0.94141-0.41406-1.0273 0.72656-1.4258 0.66797-0.91016 0.10547-1.0703 0.18359-1.0664 0.72266-1.0195 0.5625-1.125 1.5781-0.77344 0.85156-0.55469 1.0078-0.23828 0.83203-0.61328-0.03125-1.2148 0.77344-0.74609 0.14062-1.1172 0.46484-1.0352 0.17969-1.1328 0.99609-0.88672 1.0547-0.68359-0.51953-1-0.40625-1.1523-0.29688-1.1641-0.45312-1.1523-0.16016-1.6055 0.24219-1.8555 0.53906-0.89844 0.63281-0.87109 0.76172-0.77734 1.0273-0.027343 0.80469-0.91406 0.89453-0.51953 1.3086-0.625 0.1875-0.98828 0.023438-1.1289-0.21875-1.1914 0.58203-1.0938 0.31641-1.1523-0.14453-1.0508-0.48047-1.2578-0.027343-1.0703-0.52344-1.0352 0.14062-1.1836-0.39062-1.1016 0.24219-0.98438 0.50391-1.3672 0.53906-1.0547 0.45312-1.0312 0.32812-1.1758 0.50391-1.4102 0.96094-0.82031 0.63281-0.94531 0.52344-0.96094 0.80469-0.75 1.0273-0.70703 0.70703-1.0586 0.84375-0.79688 0.44531-1.5352 0.47656-0.89453-0.9375-0.82422-1.5078-0.61719-1.1641-0.70703-1.2891-0.39844-0.98828-0.70312-0.3125-1.207-0.41016-0.91406 0.50391-1.1523 0.35156-0.94141 0.011719-1.1914 0.023438-1.0195 0.29688-1.0625-0.070313-1.1641 0.19141-1.0391-0.5625-1.1211 0.48438-1.0234 0.67578-0.92188 1.1836-0.69531 0.78125-0.77734 0.97656-0.55469 0.91406-0.49609-0.24219-1.2852 0.80078-1.1055 0.82422-0.74219 0.58984-1.2148 0.73438-0.95312 0.52344-1.5859 1.0234-0.28125 1.2852-0.39844 1.1055-0.26172 1.2148 0.003906 1.043-0.097656 1.1406-0.015625 0.96094-0.39844 0.51562-1.1484 0.61719-1.168 0.49219-1.0977 0.5625-0.90625 0.40234-1.0234-0.62891-0.94141-0.51953-0.91797-1.0703-0.43359 0.47266-1.043 0.89062-0.63672 0.43359-0.92188-0.058593-1.1484 0.082031-1.7461 0.19531-1.9492 0.63672-1.0508 0.72266-0.81641 0.32031-1.0234 1.1133-0.054687 0.54297-1.3711-0.10938-1.0859-1.0664-0.21094 0.45312-1.2461 1.1328 0.36719 1.0508-0.035156 0.90234-0.62891 1.1562-0.59766 0.96875-0.32812 0.64062-0.92969 1.0859-0.76562 0.90625-1.2383 0.91797-0.85938 1.0117-1.1406 0.71484-0.92578 0.27734-1.1211 0.39453-1.1953 0.19141-0.98438-0.59375-1.0898-0.98047-0.58984 0.25391-0.98047 0.67969-0.92188 0.54688-0.90234 0.29688-1.1445 0.66016-1.1992 0.37109-0.98828-1.0078-0.47266-1.0352-0.52344-0.98047-1.125-0.92578-0.49219 0.89844-0.92969-0.23828-1.2695 0.0625-1.1523-0.93359-0.50781-0.085938-1.0078v-1.1914l0.57031-1.2305 0.96875-0.53906 0.82812 0.82422 1.3281 0.15625 1.0352-0.20703 0.85156-0.875 0.31641-1.082-0.003906-1.1445-0.83203-0.72656 0.37109-1.1367 0.41406-1.0391-0.77734-1.3906-0.070313-1.2969 1.3789-0.82812 1.0117-0.50781-0.90625-1.5938-0.57422-1.0469-0.64844-0.82422 0.32812-1.2305-0.78125-2.0547 0.93359-0.5 0.55859-0.98828-0.33203-0.97266-0.054687-1.1602 0.33203-1.5781 0.49609-1.1289 0.87109-0.74219 0.11328-1.3906-0.54688-0.88672-0.09375-1.3164 0.97656-0.58594 1.2891-0.64062 0.25-1.1719 1.0664-0.57031 0.27734-1.1719 0.58594-0.92188 0.34766-0.96875-0.19141-1.1211-0.039062-1.4961 0.69141-0.92578 0.375-0.99219 0.63672-0.80078 0.24219-1.1719 0.24219-1.0664 0.054687-1.0625 0.26172-0.98438-0.86719-0.85547-0.11719-1.3125 0.46484-1 0.72656-0.71484 0.83594-0.83203 0.26562-1.0859 0.59375-1.293 0.054687-1.2656 0.14062-1.1328 0.38281-0.92969-0.44922-1.0234-0.57031-0.96094-0.70312-0.91016-0.66797-1.2891-0.41016-0.98047 0.73438-0.85938 0.69531-0.73438 0.87891-0.75781-0.019531-1.0312-0.32031-1.1055 0.77344-0.11328" fill="none" stroke="#fff" stroke-linecap="round" stroke-linejoin="round" stroke-miterlimit="10"/>
<path d="m150.41 302c0 3.5898-2.9102 6.5-6.5 6.5-3.5898 0-6.5-2.9102-6.5-6.5 0-3.5898 2.9102-6.5 6.5-6.5 3.5898 0 6.5 2.9102 6.5 6.5" fill="#28c028" fill-rule="evenodd" stroke="#000" stroke-linecap="round" stroke-linejoin="round" stroke-miterlimit="10"/>
<path d="m13.117 296v-16.469h3.3281v6.4844h6.5v-6.4844h3.3281v16.469h-3.3281v-7.2031h-6.5v7.2031zm16.578-16.469h3.3125v8.9219c0 1.418 0.039062 2.3359 0.125 2.75 0.14453 0.67969 0.48438 1.2188 1.0156 1.625 0.53906 0.40625 1.2734 0.60938 2.2031 0.60938 0.9375 0 1.6445-0.19141 2.125-0.57812 0.47656-0.38281 0.76562-0.85938 0.85938-1.4219 0.10156-0.5625 0.15625-1.4922 0.15625-2.7969v-9.1094h3.3281v8.6562c0 1.9688-0.09375 3.3672-0.28125 4.1875-0.17969 0.8125-0.50781 1.5-0.98438 2.0625-0.48047 0.5625-1.125 1.0117-1.9375 1.3438-0.8125 0.33203-1.8711 0.5-3.1719 0.5-1.5742 0-2.7656-0.18359-3.5781-0.54688-0.8125-0.36328-1.4531-0.83203-1.9219-1.4062-0.46875-0.58203-0.77734-1.1914-0.92188-1.8281-0.21875-0.94531-0.32812-2.3438-0.32812-4.1875zm31.469 16.469h-3.6094l-1.4375-3.7344h-6.5781l-1.3594 3.7344h-3.5312l6.4062-16.469h3.5156zm-6.1094-6.5156-2.2812-6.1094-2.2188 6.1094zm7.8281 6.5156v-16.469h4.9844l2.9844 11.234 2.9531-11.234h4.9844v16.469h-3.0938v-12.953l-3.2656 12.953h-3.2031l-3.25-12.953v12.953zm19.203 0v-16.469h5.3438c2.0195 0 3.3359 0.085938 3.9531 0.25 0.9375 0.25 1.7227 0.79297 2.3594 1.625 0.63281 0.82422 0.95312 1.8867 0.95312 3.1875 0 1.0117-0.18359 1.8672-0.54688 2.5625-0.36719 0.6875-0.83594 1.2305-1.4062 1.625-0.5625 0.38672-1.1367 0.64062-1.7188 0.76562-0.79297 0.16797-1.9375 0.25-3.4375 0.25h-2.1719v6.2031zm3.3281-13.672v4.6719h1.8125c1.3125 0 2.1875-0.085937 2.625-0.26562 0.44531-0.17578 0.79688-0.44531 1.0469-0.8125 0.25-0.36328 0.375-0.78906 0.375-1.2812 0-0.59375-0.17969-1.082-0.53125-1.4688-0.35547-0.39453-0.79688-0.64062-1.3281-0.73438-0.39844-0.070312-1.1953-0.10938-2.3906-0.10938zm26.859 13.672h-3.6094l-1.4375-3.7344h-6.5781l-1.3594 3.7344h-3.5312l6.4062-16.469h3.5156zm-6.1094-6.5156-2.2812-6.1094-2.2188 6.1094zm7.8281 6.5156v-16.469h4.9844l2.9844 11.234 2.9531-11.234h4.9844v16.469h-3.0938v-12.953l-3.2656 12.953h-3.2031l-3.25-12.953v12.953zm19.109 0v-16.469h3.3125v16.469zm0 0" fill="none" stroke="#fff" stroke-linecap="round" stroke-linejoin="round" stroke-miterlimit="10" stroke-width="2"/>
<path d="m13.117 296v-16.469h3.3281v6.4844h6.5v-6.4844h3.3281v16.469h-3.3281v-7.2031h-6.5v7.2031zm16.578-16.469h3.3125v8.9219c0 1.418 0.039062 2.3359 0.125 2.75 0.14453 0.67969 0.48438 1.2188 1.0156 1.625 0.53906 0.40625 1.2734 0.60938 2.2031 0.60938 0.9375 0 1.6445-0.19141 2.125-0.57812 0.47656-0.38281 0.76562-0.85938 0.85938-1.4219 0.10156-0.5625 0.15625-1.4922 0.15625-2.7969v-9.1094h3.3281v8.6562c0 1.9688-0.09375 3.3672-0.28125 4.1875-0.17969 0.8125-0.50781 1.5-0.98438 2.0625-0.48047 0.5625-1.125 1.0117-1.9375 1.3438-0.8125 0.33203-1.8711 0.5-3.1719 0.5-1.5742 0-2.7656-0.18359-3.5781-0.54688-0.8125-0.36328-1.4531-0.83203-1.9219-1.4062-0.46875-0.58203-0.77734-1.1914-0.92188-1.8281-0.21875-0.94531-0.32812-2.3438-0.32812-4.1875zm31.469 16.469h-3.6094l-1.4375-3.7344h-6.5781l-1.3594 3.7344h-3.5312l6.4062-16.469h3.5156zm-6.1094-6.5156-2.2812-6.1094-2.2188 6.1094zm7.8281 6.5156v-16.469h4.9844l2.9844 11.234 2.9531-11.234h4.9844v16.469h-3.0938v-12.953l-3.2656 12.953h-3.2031l-3.25-12.953v12.953zm19.203 0v-16.469h5.3438c2.0195 0 3.3359 0.085938 3.9531 0.25 0.9375 0.25 1.7227 0.79297 2.3594 1.625 0.63281 0.82422 0.95312 1.8867 0.95312 3.1875 0 1.0117-0.18359 1.8672-0.54688 2.5625-0.36719 0.6875-0.83594 1.2305-1.4062 1.625-0.5625 0.38672-1.1367 0.64062-1.7188 0.76562-0.79297 0.16797-1.9375 0.25-3.4375 0.25h-2.1719v6.2031zm3.3281-13.672v4.6719h1.8125c1.3125 0 2.1875-0.085937 2.625-0.26562 0.44531-0.17578 0.79688-0.44531 1.0469-0.8125 0.25-0.36328 0.375-0.78906 0.375-1.2812 0-0.59375-0.17969-1.082-0.53125-1.4688-0.35547-0.39453-0.79688-0.64062-1.3281-0.73438-0.39844-0.070312-1.1953-0.10938-2.3906-0.10938zm26.859 13.672h-3.6094l-1.4375-3.7344h-6.5781l-1.3594 3.7344h-3.5312l6.4062-16.469h3.5156zm-6.1094-6.5156-2.2812-6.1094-2.2188 6.1094zm7.8281 6.5156v-16.469h4.9844l2.9844 11.234 2.9531-11.234h4.9844v16.469h-3.0938v-12.953l-3.2656 12.953h-3.2031l-3.25-12.953v12.953zm19.109 0v-16.469h3.3125v16.469z" fill-rule="evenodd"/>
</g>
</svg>
