<?xml version="1.0" encoding="UTF-8"?>
<svg width="345pt" height="500pt" version="1.1" viewBox="0 0 345 500" xmlns="http://www.w3.org/2000/svg">
<g id="a">
<rect width="345" height="500" fill="none"/>
<path d="m196.46 368.88 0.16016 0.023438 1.2734 0.26562 0.82422 0.58984 0.73047 0.72656 0.70312 0.76562 0.42969 0.92969 0.67578 1.1055 1.0117-0.18359 0.98438-0.41016 0.60547 0.88672 0.77344 0.90234 1.0547 0.29297 1.0859 0.98438 1.3359 0.23438 1.3281 0.53125 1.0781-0.46875 1.4922 0.38281 0.98047 0.47266-0.27344 1.3398-0.24609 1.0703 0.5625 0.88281 1.0703 0.21875 0.96484-0.44141 1.0195-0.47266 0.98828 0.86328 0.32422 1.0586 1.0625 0.98438 0.96484 0.26172 0.49609 1.1172 0.83203 0.75781 0.60547 0.98047 0.54297 0.88672 1.0586 0.21094 0.92969 0.55078-0.13672 1.5391-0.25 1.0312 0.023438 1.0469 0.97266 0.90625 0.6875 1.6289-0.32812 1.0859 0.03125 1.0156 1.0625 0.23438 0.40234 1.0156 1.0352 0.65625 0.73047 1.0625-0.14062 1.1367-1.1484 0.31641-0.57422 0.91406-0.65234 0.85547-0.67578 0.85547-1.0664 0.51562-0.81641 0.69922-0.55078 0.89062-0.75391 1.1367-0.78906 0.84766 0.21484 1.0898-0.22266 1.1367-0.56641 0.83594-0.19531 1.1172-0.52344 1.0273-0.83594 0.85938-0.71484 0.74609-0.98438 0.50781-0.92578 0.62891-1.0352-0.46875-1.0273-0.22656-1.0508-0.54297-0.71094-0.86719-0.95703-0.39453-0.87109-0.60156-1.0938 0.22656-0.1875 1.2344-0.0625 1.0156-0.44531 0.92188-0.95703 0.53125-0.93359 0.63672-0.94922 0.53906-0.90234 0.63672-1.0625 0.60547-1 0.5625-1.0234-0.4375-1.0273-0.058594-1.0625-0.050781-0.91797 0.45312-0.51562 0.90625 0.18359 0.99609 0.59375 0.87109-1.3008 0.11328-1.0938 0.57812-0.94922 1.0938-0.99219 0.66406-0.75391 0.6875-0.56641 1.5039 0.11719 1 0.44141 0.98828 0.19922 1.0273-0.23047 1.082 0.16797 1.0742 0.75 0.96094 0.65625 1-0.72266 1.0273 0.44922 1.3516 0.45312 0.94922 0.3125 1.4453-0.29297 0.99219 0.25 1.2773-0.035156 1.2734 0.17578 0.99609-0.035156 1.082 0.32031 1 0.4375 0.94141 1 0.51562 0.65234 0.90234v1.0938l0.49219 0.89062 0.98828 0.27734 1.0078 0.082031 0.78906-0.73438 1.3359 0.16016 1.1562 0.61328 0.11328 1.0664 0.74609 1.2305 1.1836 0.14453 1.0664 0.33203 0.99609 0.30078-0.75391 0.80078-0.82812 0.67188-1.043 0.98438-0.55469 0.875-0.51172 1.1836-0.29297 1.0312-0.61328 0.98047-0.86719 0.58984-0.68359 0.85938-1.1484 0.44141-1.1602-0.015625-0.95312-0.35938-0.82422-0.64844-0.38281-0.9375-0.82812-0.64062-1.4453-1.0586-0.75 0.70703-0.79688 1.4297 0.18359 1.2031 0.34766 1.1445-0.42188 1.043 0.1875 1.2305 0.46484 1.1094-0.43359 1.3242-0.35938 1.1289-0.16016 1.0391 0.007812 1.2461 0.75 0.83594 0.64844 1.5078 0.070312 1.1328 0.30859 1.0273-0.87109 0.55469-1.2617 0.25781-1.1914 0.19531-0.65625 0.80859 0.37891 0.99609 0.84375 1.2188 0.66406 1.1172 0.42969 0.92578 0.55859 0.83594 0.19531 1.0547 0.24219 1.0469 0.38281 0.9375 0.23438 1.1055 0.55859 0.92969 0.53516 1.2383 0.79297 0.67188 1.1562 1.1875-0.58203 1.0938-0.80859 1-1.5312 0.58594-0.8125 0.85938-0.11328 1.0469-0.40625 1.2383-0.72266 0.69922-0.95703 0.58984-1.0352-0.082032-0.64062-0.85547-0.87109-1.3516-1.0859 0.42188-0.49609 0.92188-1.0156 0.83203-1.0938 0.1875-1.1406-0.39062-1.043-0.19922-0.97266-0.27734-0.60938 0.99219-0.32812 1.0586-1.0273 0.29688-0.98438-0.32422-0.95312-0.50391-1.125-0.25-0.91406-0.54688-0.76953 0.88281-0.85156 0.53516-0.71484 0.71875-1.1133 0.12109-1.0312-0.015625-0.89844 0.49609-1.0273 0.20312-0.60156-0.85156-0.94531-0.46094-1.2227-0.15234-0.96875 0.25391-0.97266-0.55469-0.91016-0.46094-0.88672-0.60156-1.0117 0.050782-0.92578 0.42578-0.11719-1.0469 0.19531-0.99609-0.38281-1.0977-0.84375-0.65625-0.8125-0.65625 0.61328-0.80469 0.49219-0.90625 0.53906-0.92188 0.003906-1.0156-0.44922-0.90234 0.10938-1.1211-0.34766-0.97266 0.53125-0.88281-0.13672-1.1016-0.76953-0.83984-1.3086-0.35938-1.0352-0.26172 0.10938-1.0117 0.67578-0.80078 0.75391-0.67578 0.23047-1.0547-0.86719-0.50391 0.35938-0.97656-0.375-0.97266-0.074219-1.0078-0.22266-1.1133 0.13672-1.0352-0.027343-1.0547-1.0156-0.30859 0.097656-1.0547-0.63672-0.80469-0.11719-1.0117 1.0273 0.3125 1.0195-0.15625 1.0273-0.17188 0.71094-0.79688 0.51562-0.88281 0.066406-1.0703 1.0078-0.17969 1.1797-0.10547 1.0859-0.1875 0.99219-0.57812 1.0234 0.011719 0.92578-0.83594 1.0078-0.30078 0.46875-1.0625 1.2383-0.38672 1.1562-0.25 0.82812 0.98828 0.83984 0.63281 0.11719 1.082 1.0273 1.1445 0.19531 1.0156 0.94531 0.39844 1.1406-0.050781 1.0742-0.24219 1.1016-0.14453 1.0039-0.070312 1.0742 0.058593 1.2305 0.51953 0.74219-0.69531 0.70312-0.76953 0.41016-1 0.91406-0.51953 1.0352-0.31641 0.69141-0.90625 0.16406-1.0508-0.03125-1.0039-0.015625-1.0547-0.23438-1.0312 0.28516-1.0039-0.67969-0.76172-0.22656-1.0391-0.62109-0.86328-0.37891-0.9375-0.003906-1.0156 0.21484-1.0273-0.42969-1.0117-0.32031-1.0156-0.57422-1.3281-0.40625-1.0039-0.48828-0.98047-0.10156-1.0664 0.3125-0.97656-0.023437-1.1016-0.4375-1.0234-0.39844-0.95312-0.8125-0.61719-0.55078-0.88672-0.58984-0.85156-0.375-0.94141-0.19141-1.0586-0.50781-0.94922-0.34375-0.94531 0.058594-1.0117 0.23828-1.0078-0.26172-1.1602-0.22266-1.0117-0.75781-0.6875-0.60156-0.92188-0.26953-0.97266 0.5-0.88672-0.40625-0.92578-1.0742-0.125-0.63281-0.84766-0.74609-0.80469-0.67578-0.76953-0.53906-0.85547 0.039063-1.1133-0.60156-0.83594-1.0039 0.078125-0.58984-0.85156-0.5-0.97266-0.38281-0.95312-0.19141-1.0234 0.44141-0.92188-0.45312-0.97656-0.69141-0.75-0.17969-1 0.39453-0.98438-0.0625-1.0391-0.35156-0.9375-0.35156-1.0352-0.14844-1.0234 0.21094-1.0469 0.625-0.79297 0.91016-0.53516 0.84375-0.70703 0.46094-0.90625 0.18359-0.98828 0.52734-0.94531 0.58594-0.82031 0.55469-0.91406 0.007812-1.0195-0.36328-0.96875-0.59375-1.0742 0.17188-1.0352 0.72266-0.82812-0.24219-0.98438 0.18359-1.043 0.19141-0.99609 0.51172-0.87109 0.3125-1.2695-0.070312-1.043 0.16797-1.0508 0.82422-0.625 1.0312-0.15234 0.91016 0.42578 0.70312 0.76562 0.60547 0.80859 0.86719 0.54688 1.0781 0.45703 1.1406 0.31641 0.99609-0.09375 0.98438 0.29297 1.0039-0.27734 1.0664-0.078125 1.0352-0.19922 0.91016-0.45312-0.37109-1.0195-0.45312-0.89844-0.4375-1.2031-0.67188-0.77734-0.21484-1.0117-0.015625-1.1562 0.09375-1.2891-0.16797-1.0117 0.25-1.0078-0.023437-1.0039-0.078125-1 0.9375-0.59375 1.0078 0.21875 0.20312-1.4062 0.46875-0.98438 0.37891-1.0547 0.53906-1.0352 0.67969-1.2422-0.30078-1 0.57812-0.97266 0.83984-0.72656 0.86328-0.58984 1.0078-0.61719 0.80859-0.69141 1.1094-0.085938z" fill="#ccc" fill-rule="evenodd"/>
<path d="m196.46 368.88 0.16016 0.023438 1.2734 0.26562 0.82422 0.58984 0.73047 0.72656 0.70312 0.76562 0.42969 0.92969 0.67578 1.1055 1.0117-0.18359 0.98438-0.41016 0.60547 0.88672 0.77344 0.90234 1.0547 0.29297 1.0859 0.98438 1.3359 0.23438 1.3281 0.53125 1.0781-0.46875 1.4922 0.38281 0.98047 0.47266-0.27344 1.3398-0.24609 1.0703 0.5625 0.88281 1.0703 0.21875 0.96484-0.44141 1.0195-0.47266 0.98828 0.86328 0.32422 1.0586 1.0625 0.98438 0.96484 0.26172 0.49609 1.1172 0.83203 0.75781 0.60547 0.98047 0.54297 0.88672 1.0586 0.21094 0.92969 0.55078-0.13672 1.5391-0.25 1.0312 0.023438 1.0469 0.97266 0.90625 0.6875 1.6289-0.32812 1.0859 0.03125 1.0156 1.0625 0.23438 0.40234 1.0156 1.0352 0.65625 0.73047 1.0625-0.14062 1.1367-1.1484 0.31641-0.57422 0.91406-0.65234 0.85547-0.67578 0.85547-1.0664 0.51562-0.81641 0.69922-0.55078 0.89062-0.75391 1.1367-0.78906 0.84766 0.21484 1.0898-0.22266 1.1367-0.56641 0.83594-0.19531 1.1172-0.52344 1.0273-0.83594 0.85938-0.71484 0.74609-0.98438 0.50781-0.92578 0.62891-1.0352-0.46875-1.0273-0.22656-1.0508-0.54297-0.71094-0.86719-0.95703-0.39453-0.87109-0.60156-1.0938 0.22656-0.1875 1.2344-0.0625 1.0156-0.44531 0.92188-0.95703 0.53125-0.93359 0.63672-0.94922 0.53906-0.90234 0.63672-1.0625 0.60547-1 0.5625-1.0234-0.4375-1.0273-0.058594-1.0625-0.050781-0.91797 0.45312-0.51562 0.90625 0.18359 0.99609 0.59375 0.87109-1.3008 0.11328-1.0938 0.57812-0.94922 1.0938-0.99219 0.66406-0.75391 0.6875-0.56641 1.5039 0.11719 1 0.44141 0.98828 0.19922 1.0273-0.23047 1.082 0.16797 1.0742 0.75 0.96094 0.65625 1-0.72266 1.0273 0.44922 1.3516 0.45312 0.94922 0.3125 1.4453-0.29297 0.99219 0.25 1.2773-0.035156 1.2734 0.17578 0.99609-0.035156 1.082 0.32031 1 0.4375 0.94141 1 0.51562 0.65234 0.90234v1.0938l0.49219 0.89062 0.98828 0.27734 1.0078 0.082031 0.78906-0.73438 1.3359 0.16016 1.1562 0.61328 0.11328 1.0664 0.74609 1.2305 1.1836 0.14453 1.0664 0.33203 0.99609 0.30078-0.75391 0.80078-0.82812 0.67188-1.043 0.98438-0.55469 0.875-0.51172 1.1836-0.29297 1.0312-0.61328 0.98047-0.86719 0.58984-0.68359 0.85938-1.1484 0.44141-1.1602-0.015625-0.95312-0.35938-0.82422-0.64844-0.38281-0.9375-0.82812-0.64062-1.4453-1.0586-0.75 0.70703-0.79688 1.4297 0.18359 1.2031 0.34766 1.1445-0.42188 1.043 0.1875 1.2305 0.46484 1.1094-0.43359 1.3242-0.35938 1.1289-0.16016 1.0391 0.007812 1.2461 0.75 0.83594 0.64844 1.5078 0.070312 1.1328 0.30859 1.0273-0.87109 0.55469-1.2617 0.25781-1.1914 0.19531-0.65625 0.80859 0.37891 0.99609 0.84375 1.2188 0.66406 1.1172 0.42969 0.92578 0.55859 0.83594 0.19531 1.0547 0.24219 1.0469 0.38281 0.9375 0.23438 1.1055 0.55859 0.92969 0.53516 1.2383 0.79297 0.67188 1.1562 1.1875-0.58203 1.0938-0.80859 1-1.5312 0.58594-0.8125 0.85938-0.11328 1.0469-0.40625 1.2383-0.72266 0.69922-0.95703 0.58984-1.0352-0.082032-0.64062-0.85547-0.87109-1.3516-1.0859 0.42188-0.49609 0.92188-1.0156 0.83203-1.0938 0.1875-1.1406-0.39062-1.043-0.19922-0.97266-0.27734-0.60938 0.99219-0.32812 1.0586-1.0273 0.29688-0.98438-0.32422-0.95312-0.50391-1.125-0.25-0.91406-0.54688-0.76953 0.88281-0.85156 0.53516-0.71484 0.71875-1.1133 0.12109-1.0312-0.015625-0.89844 0.49609-1.0273 0.20312-0.60156-0.85156-0.94531-0.46094-1.2227-0.15234-0.96875 0.25391-0.97266-0.55469-0.91016-0.46094-0.88672-0.60156-1.0117 0.050782-0.92578 0.42578-0.11719-1.0469 0.19531-0.99609-0.38281-1.0977-0.84375-0.65625-0.8125-0.65625 0.61328-0.80469 0.49219-0.90625 0.53906-0.92188 0.003906-1.0156-0.44922-0.90234 0.10938-1.1211-0.34766-0.97266 0.53125-0.88281-0.13672-1.1016-0.76953-0.83984-1.3086-0.35938-1.0352-0.26172 0.10938-1.0117 0.67578-0.80078 0.75391-0.67578 0.23047-1.0547-0.86719-0.50391 0.35938-0.97656-0.375-0.97266-0.074219-1.0078-0.22266-1.1133 0.13672-1.0352-0.027343-1.0547-1.0156-0.30859 0.097656-1.0547-0.63672-0.80469-0.11719-1.0117 1.0273 0.3125 1.0195-0.15625 1.0273-0.17188 0.71094-0.79688 0.51562-0.88281 0.066406-1.0703 1.0078-0.17969 1.1797-0.10547 1.0859-0.1875 0.99219-0.57812 1.0234 0.011719 0.92578-0.83594 1.0078-0.30078 0.46875-1.0625 1.2383-0.38672 1.1562-0.25 0.82812 0.98828 0.83984 0.63281 0.11719 1.082 1.0273 1.1445 0.19531 1.0156 0.94531 0.39844 1.1406-0.050781 1.0742-0.24219 1.1016-0.14453 1.0039-0.070312 1.0742 0.058593 1.2305 0.51953 0.74219-0.69531 0.70312-0.76953 0.41016-1 0.91406-0.51953 1.0352-0.31641 0.69141-0.90625 0.16406-1.0508-0.03125-1.0039-0.015625-1.0547-0.23438-1.0312 0.28516-1.0039-0.67969-0.76172-0.22656-1.0391-0.62109-0.86328-0.37891-0.9375-0.003906-1.0156 0.21484-1.0273-0.42969-1.0117-0.32031-1.0156-0.57422-1.3281-0.40625-1.0039-0.48828-0.98047-0.10156-1.0664 0.3125-0.97656-0.023437-1.1016-0.4375-1.0234-0.39844-0.95312-0.8125-0.61719-0.55078-0.88672-0.58984-0.85156-0.375-0.94141-0.19141-1.0586-0.50781-0.94922-0.34375-0.94531 0.058594-1.0117 0.23828-1.0078-0.26172-1.1602-0.22266-1.0117-0.75781-0.6875-0.60156-0.92188-0.26953-0.97266 0.5-0.88672-0.40625-0.92578-1.0742-0.125-0.63281-0.84766-0.74609-0.80469-0.67578-0.76953-0.53906-0.85547 0.039063-1.1133-0.60156-0.83594-1.0039 0.078125-0.58984-0.85156-0.5-0.97266-0.38281-0.95312-0.19141-1.0234 0.44141-0.92188-0.45312-0.97656-0.69141-0.75-0.17969-1 0.39453-0.98438-0.0625-1.0391-0.35156-0.9375-0.35156-1.0352-0.14844-1.0234 0.21094-1.0469 0.625-0.79297 0.91016-0.53516 0.84375-0.70703 0.46094-0.90625 0.18359-0.98828 0.52734-0.94531 0.58594-0.82031 0.55469-0.91406 0.007812-1.0195-0.36328-0.96875-0.59375-1.0742 0.17188-1.0352 0.72266-0.82812-0.24219-0.98438 0.18359-1.043 0.19141-0.99609 0.51172-0.87109 0.3125-1.2695-0.070312-1.043 0.16797-1.0508 0.82422-0.625 1.0312-0.15234 0.91016 0.42578 0.70312 0.76562 0.60547 0.80859 0.86719 0.54688 1.0781 0.45703 1.1406 0.31641 0.99609-0.09375 0.98438 0.29297 1.0039-0.27734 1.0664-0.078125 1.0352-0.19922 0.91016-0.45312-0.37109-1.0195-0.45312-0.89844-0.4375-1.2031-0.67188-0.77734-0.21484-1.0117-0.015625-1.1562 0.09375-1.2891-0.16797-1.0117 0.25-1.0078-0.023437-1.0039-0.078125-1 0.9375-0.59375 1.0078 0.21875 0.20312-1.4062 0.46875-0.98438 0.37891-1.0547 0.53906-1.0352 0.67969-1.2422-0.30078-1 0.57812-0.97266 0.83984-0.72656 0.86328-0.58984 1.0078-0.61719 0.80859-0.69141 1.1094-0.085938 0.82812-0.15625" fill="none" stroke="#fff" stroke-linecap="round" stroke-linejoin="round" stroke-miterlimit="10" stroke-width="2"/>
<path d="m85.082 190.07 0.13281 0.019531 1.0742 0.007813 0.91797-0.47656 0.61328 0.95312 0.36328 1.1602 0.76953 0.8125 0.8125 0.74219 0.050781 1.0586-0.59766 0.80859-0.23828 1.0625 0.37109 1.0508 0.26172 1.3438 0.003907 1.0391-0.039063 1.3984 0.98828 0.64844 0.43359-0.98047 0.85156-0.58203 0.6875-0.84375 0.95703-0.54688 1.0703 0.25781 2.5703 0.51172 1.0977 0.77734 1.8516 1.5742 0.88672 0.55859 0.42578 0.95312 0.69141 0.75 0.96875 0.79297 0.50391 0.94531 0.32422 1.0352 1.1211 0.29688 1.0352-0.21484 0.99219 0.22656 0.96875 0.39062 0.95703 0.36719 1.0234 0.54688 1.1445 0.19141 0.99609-0.20312 1.0234-0.50781 1.0391-0.24609 1.0234-0.011718 1.1172-0.13672 0.96484-0.28125 0.79688 0.85547 0.74219 0.78906 0.84375 0.80469 0.085938 1.082 1.1328 0.28906 0.76562-0.75391 0.86719-0.65234 0.95703 0.43359 1.1953 0.46484 1.1445-0.27344 1.0391-0.21094 0.86328-1.0273 0.73438 0.70312 0.40625 1.0781 0.67578 0.80078-0.46094 0.91406-0.23828 1.0664 0.38672 1.2422 0.27734 1.1094 0.92578-0.82031 0.72656-1.1719 1.25-1.6836 0.60938-0.98828 0.44141-0.92578 0.59766-0.80469 0.66797-0.79688 1.2031-0.47266 0.94922-0.32812 1.0664-0.003906 1.1016 0.25391 0.78516-0.99219 0.82422-0.71484 0.71094-0.76953 1.1875-0.14453 1.375 1.0117-0.40625 1.0977-0.6875 0.85156 1.0156 0.35547 0.9375-0.35156 0.29297 1.043 0.94922 0.55469 0.39844 1.1602 0.38281 0.94141 0.50391 0.91016-0.38281 1.0625-0.44531 0.92969-0.35938 1.2461-0.51172 1.2695-0.42188 0.97266-0.67578 1.1523-0.26953 1.0078-0.95703 0.58984 0.90625 1.1641 0.64062 0.97266 0.03125 1.0039 0.20703 1.0352-0.32031 1.168 0.63672 1.0859 0.63672 0.97656 0.71094 1.125 0.55078 1.0742-0.97266 1.2148-0.085938 1.0234 0.14062 1.1211v1.1055l-0.011719 1.0078-0.82422 0.58984-0.3125 1.0391-0.26562 1.1367-0.76172 0.91797-0.60547 0.84766-1.0195-0.050781-0.41016 0.96094-0.46484 1.3203 0.23828 1.3086 0.55859 0.86328 0.63672 0.86328 0.87109 0.74609-0.13281 1.043 0.03125 1.2227-0.12891 1.1797-1.3516-0.17188-1.1289 0.003906-1.0664 0.13281-0.625 1.0078-0.71484 0.89453-0.058594 1.0703-0.73438 0.85938-0.19141 1.1914 0.58984 1.1133 0.58594 1.0977 0.79688 0.71484 0.56641 0.89062 0.73438 1.0703 1.0664 0.62109 1.5859 0.32422 1.0938 0.14453-0.17578 1.0156-0.99219 0.55859-0.74609 0.70312-0.46094 1.0156 0.27734 1.0508 0.97656 0.32422 1.1758 0.16797 1.1445 0.71094 0.92969 0.99609 1.0117 0.4375 0.82422 0.62891 1.3945-0.23047-0.42578 1.1094-0.070313 1.2344 0.38672 1.0352 1.1562 0.68359 1.0312-0.46484 0.58984 0.85547 0.26172 1.3711 0.76562 1.082 0.58203 0.89453 0.32812 1.0352-0.15625 1.0117-0.83984 0.82812-0.14062 0.99219-0.54297 1.3398-0.40625 0.97656 0.57422 0.94141 0.26953 1.0508-0.51953 1.5039-0.64453 1.1523-0.44141 1.4336-0.23047 1.1914-0.82422 0.74609-0.41797 1.1836-0.32422 1.0156-1.1797 0.75391-1.0273-1.0898-0.85938-0.53906-2.7227 1.1914-0.41797 1.1211-0.050781 1.0195-0.56641 0.88281-0.83984 0.71484-0.45312 1.2227-0.20703 1.0703-1.1289 0.47266-0.62109 1.1328-0.67578 1.0117-0.85156 0.69531-0.71875 0.78906-1.1094 0.64453-1.1836 0.69922-1.1094 0.59375-0.71484 1.0273-0.33984 1.3516-0.34375 1.3242-0.96484 0.82031-1.0195 0.29297-1.1641 0.070313-1.4492-0.15234-1.0742 0.035156-0.80859 0.63281-1.082 0.30469-1.043 0.33984-1.1094 0.28125 0.66797 1.1016 0.3125 0.96094-1.0391 0.5-0.59375 1.1133-0.53906 1.0352-0.40234 1.1719-1.1992 0.50391 0.58203 0.83594 0.76953 0.75391-0.27344 1.1562 0.058594 1.1016 0.39844 0.98438 0.41016 1.0078 0.22266 1.0195 0.17188 1-0.078125 1.4062-0.58203 0.86328-1.1484 0.19531-1.4297 0.41406-1.168 0.24219-1.1172 0.10156-1.0469 0.09375-0.66016 0.9375-1.3008 1.0547-0.54688 0.98438-1.0117 1.5352-0.64844 0.96094-0.32812 1.0352-0.16797 1.1484-0.92969 1.082-0.60938 0.81641-0.80469 0.76562-0.82812 0.66797-0.77344 0.78125-0.92969 0.46875-0.55078 0.89844-1.0547-0.54297-0.007812-1.0078-0.84766-0.57812-0.72266-0.79297-0.78125-0.65625-0.92188-0.57031-0.90625-0.47656-1.0664-0.20703-0.39062-0.96094-0.34375-1.082-0.44531-1.0273-0.58594-0.93359-0.87109-0.82422-0.66406-0.84375-0.94141-0.48047-1.0898 0.40625-0.91406 0.52344-1.0312-0.41406 0.11719-1.0195-0.42969-1.0703 0.66016-0.80859 0.85938-0.52344 0.49609-0.89453-0.16797-1.0039-1.0508-0.13672-1.043-0.066406-0.15234-1.043 0.76172-0.69531-0.97266-0.25781 0.21875-1.168-0.23438-0.98828 0.95312-0.32422 0.65625-0.76562-0.92188-0.52734 0.3125-0.95312 0.22656-1.0547 0.57031-0.92578-0.070312-1.0547 0.13672-1.1094-0.19531-1.0156-0.58984-0.85156 0.26953-0.98047 0.76172-0.67578 0.68359-0.84375-0.22266-1.043 0.80078-0.75 1.0391-0.61328 0.83984-0.54297 1.0234-0.46875 0.48047-0.94141-0.050782-1.2539-0.17578-1.1289-0.77734-0.67188-0.41406-0.97266 0.27344-1.0352 0.11719-1.2266-0.60938-0.86719-0.53125-0.90625-1.0586-0.95703-0.33594-1.0977-1.0977-0.51172-0.75391-0.66016-0.65625-0.88672-1.0625-0.94141-1.2656-0.72266-1.0391-0.99609-0.73438-0.76172-1.0703-1.0781-1.0234-0.69922-1.3555-0.0625-1.2383-0.10547-1.3867-0.30078-0.74609-1.1836-0.31641-1.082-0.40625-1.25-1.0078-0.67969-0.98047-0.33984-0.97656 0.21875-0.98047-0.35547-0.36719-1.25 0.14453-1.0586 0.33594-0.99219-0.76172-0.74219-0.69922-0.78906-0.29688-1.1016-0.37109-1.0508-0.18359-0.98828-0.22266-1.0156-0.21484-1.0586-0.37109-0.95312-0.050781-1.2227-0.125-1.0859 0.51562-1.1328 0.19922-1.2031 0.085938-1.043 0.019531-1.0977 0.42969-1.0195 0.007812-1.0781 0.53516-0.96484 0.34375-1 0.97656-0.29688 0.48438-1.0469 0.18359-1.0273 1.1094-0.14062 0.99609-0.29688 0.85938-0.62109 0.57812-0.96094 0.19922-1.0078 0.33984-1.0625 0.86328-0.63672-0.15234-1.0859-0.09375-1.168-0.066406-1.1367-0.67969-0.98047-0.40625-0.98828 0.027343-1.0312-0.70703-0.71484-0.96875 0.27734-0.94531-0.64844-0.72266-0.73828 0.65234-0.82422 0.47266-0.91406 0.78906-0.66797 0.19531-1.3164 0.4375-1 0.42188-0.91406 0.73438-0.9375 0.44141-1.0234 0.25781-1.1719 0.25391-1.0234-0.59375-1.0078 0.046875-1.3516 0.17578-1.043 0.40625-1.0273 0.57031-0.98828 0.53516-1.2461-0.51172-0.94922-0.10547-1.1641-0.55859-0.97656-0.082031-1.1602 0.47656-1.0469 0.57031-0.87109 0.66406-0.85938 0.66016-1-0.40625-0.98047-0.61719-0.85938-0.023437-1.2227 0.38281-0.97656-1.2344 0.089844-0.85547-0.69531 0.097657-1.0938 0.0625-1.1094 0.32812-0.97656 0.44922-0.91016 0.53516-0.96484-0.32031-1.1133-0.98047-0.40234 0.22266-0.98047 0.050781-1.1172 0.4375-0.91797-0.92188-0.79688-0.79688-0.67578-0.93359 0.65234-1.0586 0.38672-0.86719-0.65234-0.73438-0.875-1.1133-0.050782-0.91016-0.9375-0.60938-1.0078-0.23828-1.0664 0.79297-1.0625 0.93359-0.63281 0.89453-0.53516 0.73047-0.91797 1.0547 0.20312 0.6875-0.78906 0.83203-0.6875-0.625-0.93359 0.14844-1.0117 0.33984-0.95703-0.17578-1.2969-0.4375-1.0234 0.11719-1.2852 1.0352-1.3125 0.62109-1.0117 0.74219-0.78516 0.95703-0.5625 1.0977-0.015625 0.66797 0.98047z" fill="#ccc" fill-rule="evenodd"/>
<path d="m85.082 190.07 0.13281 0.019531 1.0742 0.007813 0.91797-0.47656 0.61328 0.95312 0.36328 1.1602 0.76953 0.8125 0.8125 0.74219 0.050781 1.0586-0.59766 0.80859-0.23828 1.0625 0.37109 1.0508 0.26172 1.3438 0.003907 1.0391-0.039063 1.3984 0.98828 0.64844 0.43359-0.98047 0.85156-0.58203 0.6875-0.84375 0.95703-0.54688 1.0703 0.25781 2.5703 0.51172 1.0977 0.77734 1.8516 1.5742 0.88672 0.55859 0.42578 0.95312 0.69141 0.75 0.96875 0.79297 0.50391 0.94531 0.32422 1.0352 1.1211 0.29688 1.0352-0.21484 0.99219 0.22656 0.96875 0.39062 0.95703 0.36719 1.0234 0.54688 1.1445 0.19141 0.99609-0.20312 1.0234-0.50781 1.0391-0.24609 1.0234-0.011718 1.1172-0.13672 0.96484-0.28125 0.79688 0.85547 0.74219 0.78906 0.84375 0.80469 0.085938 1.082 1.1328 0.28906 0.76562-0.75391 0.86719-0.65234 0.95703 0.43359 1.1953 0.46484 1.1445-0.27344 1.0391-0.21094 0.86328-1.0273 0.73438 0.70312 0.40625 1.0781 0.67578 0.80078-0.46094 0.91406-0.23828 1.0664 0.38672 1.2422 0.27734 1.1094 0.92578-0.82031 0.72656-1.1719 1.25-1.6836 0.60938-0.98828 0.44141-0.92578 0.59766-0.80469 0.66797-0.79688 1.2031-0.47266 0.94922-0.32812 1.0664-0.003906 1.1016 0.25391 0.78516-0.99219 0.82422-0.71484 0.71094-0.76953 1.1875-0.14453 1.375 1.0117-0.40625 1.0977-0.6875 0.85156 1.0156 0.35547 0.9375-0.35156 0.29297 1.043 0.94922 0.55469 0.39844 1.1602 0.38281 0.94141 0.50391 0.91016-0.38281 1.0625-0.44531 0.92969-0.35938 1.2461-0.51172 1.2695-0.42188 0.97266-0.67578 1.1523-0.26953 1.0078-0.95703 0.58984 0.90625 1.1641 0.64062 0.97266 0.03125 1.0039 0.20703 1.0352-0.32031 1.168 0.63672 1.0859 0.63672 0.97656 0.71094 1.125 0.55078 1.0742-0.97266 1.2148-0.085938 1.0234 0.14062 1.1211v1.1055l-0.011719 1.0078-0.82422 0.58984-0.3125 1.0391-0.26562 1.1367-0.76172 0.91797-0.60547 0.84766-1.0195-0.050781-0.41016 0.96094-0.46484 1.3203 0.23828 1.3086 0.55859 0.86328 0.63672 0.86328 0.87109 0.74609-0.13281 1.043 0.03125 1.2227-0.12891 1.1797-1.3516-0.17188-1.1289 0.003906-1.0664 0.13281-0.625 1.0078-0.71484 0.89453-0.058594 1.0703-0.73438 0.85938-0.19141 1.1914 0.58984 1.1133 0.58594 1.0977 0.79688 0.71484 0.56641 0.89062 0.73438 1.0703 1.0664 0.62109 1.5859 0.32422 1.0938 0.14453-0.17578 1.0156-0.99219 0.55859-0.74609 0.70312-0.46094 1.0156 0.27734 1.0508 0.97656 0.32422 1.1758 0.16797 1.1445 0.71094 0.92969 0.99609 1.0117 0.4375 0.82422 0.62891 1.3945-0.23047-0.42578 1.1094-0.070313 1.2344 0.38672 1.0352 1.1562 0.68359 1.0312-0.46484 0.58984 0.85547 0.26172 1.3711 0.76562 1.082 0.58203 0.89453 0.32812 1.0352-0.15625 1.0117-0.83984 0.82812-0.14062 0.99219-0.54297 1.3398-0.40625 0.97656 0.57422 0.94141 0.26953 1.0508-0.51953 1.5039-0.64453 1.1523-0.44141 1.4336-0.23047 1.1914-0.82422 0.74609-0.41797 1.1836-0.32422 1.0156-1.1797 0.75391-1.0273-1.0898-0.85938-0.53906-2.7227 1.1914-0.41797 1.1211-0.050781 1.0195-0.56641 0.88281-0.83984 0.71484-0.45312 1.2227-0.20703 1.0703-1.1289 0.47266-0.62109 1.1328-0.67578 1.0117-0.85156 0.69531-0.71875 0.78906-1.1094 0.64453-1.1836 0.69922-1.1094 0.59375-0.71484 1.0273-0.33984 1.3516-0.34375 1.3242-0.96484 0.82031-1.0195 0.29297-1.1641 0.070313-1.4492-0.15234-1.0742 0.035156-0.80859 0.63281-1.082 0.30469-1.043 0.33984-1.1094 0.28125 0.66797 1.1016 0.3125 0.96094-1.0391 0.5-0.59375 1.1133-0.53906 1.0352-0.40234 1.1719-1.1992 0.50391 0.58203 0.83594 0.76953 0.75391-0.27344 1.1562 0.058594 1.1016 0.39844 0.98438 0.41016 1.0078 0.22266 1.0195 0.17188 1-0.078125 1.4062-0.58203 0.86328-1.1484 0.19531-1.4297 0.41406-1.168 0.24219-1.1172 0.10156-1.0469 0.09375-0.66016 0.9375-1.3008 1.0547-0.54688 0.98438-1.0117 1.5352-0.64844 0.96094-0.32812 1.0352-0.16797 1.1484-0.92969 1.082-0.60938 0.81641-0.80469 0.76562-0.82812 0.66797-0.77344 0.78125-0.92969 0.46875-0.55078 0.89844-1.0547-0.54297-0.007812-1.0078-0.84766-0.57812-0.72266-0.79297-0.78125-0.65625-0.92188-0.57031-0.90625-0.47656-1.0664-0.20703-0.39062-0.96094-0.34375-1.082-0.44531-1.0273-0.58594-0.93359-0.87109-0.82422-0.66406-0.84375-0.94141-0.48047-1.0898 0.40625-0.91406 0.52344-1.0312-0.41406 0.11719-1.0195-0.42969-1.0703 0.66016-0.80859 0.85938-0.52344 0.49609-0.89453-0.16797-1.0039-1.0508-0.13672-1.043-0.066406-0.15234-1.043 0.76172-0.69531-0.97266-0.25781 0.21875-1.168-0.23438-0.98828 0.95312-0.32422 0.65625-0.76562-0.92188-0.52734 0.3125-0.95312 0.22656-1.0547 0.57031-0.92578-0.070312-1.0547 0.13672-1.1094-0.19531-1.0156-0.58984-0.85156 0.26953-0.98047 0.76172-0.67578 0.68359-0.84375-0.22266-1.043 0.80078-0.75 1.0391-0.61328 0.83984-0.54297 1.0234-0.46875 0.48047-0.94141-0.050782-1.2539-0.17578-1.1289-0.77734-0.67188-0.41406-0.97266 0.27344-1.0352 0.11719-1.2266-0.60938-0.86719-0.53125-0.90625-1.0586-0.95703-0.33594-1.0977-1.0977-0.51172-0.75391-0.66016-0.65625-0.88672-1.0625-0.94141-1.2656-0.72266-1.0391-0.99609-0.73438-0.76172-1.0703-1.0781-1.0234-0.69922-1.3555-0.0625-1.2383-0.10547-1.3867-0.30078-0.74609-1.1836-0.31641-1.082-0.40625-1.25-1.0078-0.67969-0.98047-0.33984-0.97656 0.21875-0.98047-0.35547-0.36719-1.25 0.14453-1.0586 0.33594-0.99219-0.76172-0.74219-0.69922-0.78906-0.29688-1.1016-0.37109-1.0508-0.18359-0.98828-0.22266-1.0156-0.21484-1.0586-0.37109-0.95312-0.050781-1.2227-0.125-1.0859 0.51562-1.1328 0.19922-1.2031 0.085938-1.043 0.019531-1.0977 0.42969-1.0195 0.007812-1.0781 0.53516-0.96484 0.34375-1 0.97656-0.29688 0.48438-1.0469 0.18359-1.0273 1.1094-0.14062 0.99609-0.29688 0.85938-0.62109 0.57812-0.96094 0.19922-1.0078 0.33984-1.0625 0.86328-0.63672-0.15234-1.0859-0.09375-1.168-0.066406-1.1367-0.67969-0.98047-0.40625-0.98828 0.027343-1.0312-0.70703-0.71484-0.96875 0.27734-0.94531-0.64844-0.72266-0.73828 0.65234-0.82422 0.47266-0.91406 0.78906-0.66797 0.19531-1.3164 0.4375-1 0.42188-0.91406 0.73438-0.9375 0.44141-1.0234 0.25781-1.1719 0.25391-1.0234-0.59375-1.0078 0.046875-1.3516 0.17578-1.043 0.40625-1.0273 0.57031-0.98828 0.53516-1.2461-0.51172-0.94922-0.10547-1.1641-0.55859-0.97656-0.082031-1.1602 0.47656-1.0469 0.57031-0.87109 0.66406-0.85938 0.66016-1-0.40625-0.98047-0.61719-0.85938-0.023437-1.2227 0.38281-0.97656-1.2344 0.089844-0.85547-0.69531 0.097657-1.0938 0.0625-1.1094 0.32812-0.97656 0.44922-0.91016 0.53516-0.96484-0.32031-1.1133-0.98047-0.40234 0.22266-0.98047 0.050781-1.1172 0.4375-0.91797-0.92188-0.79688-0.79688-0.67578-0.93359 0.65234-1.0586 0.38672-0.86719-0.65234-0.73438-0.875-1.1133-0.050782-0.91016-0.9375-0.60938-1.0078-0.23828-1.0664 0.79297-1.0625 0.93359-0.63281 0.89453-0.53516 0.73047-0.91797 1.0547 0.20312 0.6875-0.78906 0.83203-0.6875-0.625-0.93359 0.14844-1.0117 0.33984-0.95703-0.17578-1.2969-0.4375-1.0234 0.11719-1.2852 1.0352-1.3125 0.62109-1.0117 0.74219-0.78516 0.95703-0.5625 1.0977-0.015625 0.66797 0.98047 0.12109 0.20312" fill="none" stroke="#fff" stroke-linecap="round" stroke-linejoin="round" stroke-miterlimit="10" stroke-width="2"/>
<path d="m196.28 268.69 0.5 0.042969 1.0195 0.59375 0.88672 0.67578 0.42969 0.97656 1.1094 0.625-0.63672 1.207-0.54688 1.2969-0.61328 0.94922-0.88672 0.86328-1.1875 0.30469-1.1836 1.168 0.070312 1.0859 0.60938 1.0859 1 0.88281 1.1875 0.54297 0.88672 0.55078 0.41406 1.0078 0.8125 0.85938 0.43359 1.168-0.011718 1.3281 0.58594 1.5664 0.48438 1.2539-0.027344 1.2148 0.035157 1.4688 0.1875 1.1172 0.082031 1.0859-0.70703 0.77734-0.32422 1.5508-0.54688 1.293-0.96875 1.4414 0.26953 1.1328 0.26562 1.418 0.10547 1.0352-1.3359 0.67188-1.0508 0.14062-1.9844-0.62891-1.2891-0.55469-0.45703 0.91406-0.82422 0.93359-1.1211 0.9375-0.67969 0.86328 0.54688 0.96875 1.5859 1.5234-0.023438 1.0586-1.1914 0.51172-0.92578 0.79297-0.41797 1.0898-0.078125 1.0898 0.55078 0.86719 0.80859 0.78125 0.48047 1.0742-0.33594 1.0703-0.69141 1.2188 0.13672 1.1953 0.45703 0.98438 0.61328 1.0234 0.38281 0.9375 0.33203 0.98828-0.22656 1.1016 0.90234 0.63281 0.49219 0.89453 0.44922 1.3281-0.015625 1.1211-0.23438 1-0.91016 1.1523-0.79688 0.76953 0.10156 1.0312-0.29688 1.1133-0.41406 0.9375-1.2188 1.3594-0.375 1.0508-0.60156 1.0078 0.054687 1.1211-0.12891 1.1523 0.77344 0.83203 0.61719 0.83594 0.54688 0.88672-0.13672 1-0.25391 1.1172-0.82422 0.85547 0.68359 1.5195 0.40625 0.94922-0.89844 0.84766-0.25 1.1641 0.39453 1.2617 0.26172 0.98047 0.089843 1.1914 0.34375 1 0.98047 0.48828 0.76562 0.64453 1.0977 0.42578 0.76953 0.6875 1.332 0.29297 0.99219-0.37891 1.1641 0.14453 1.0391-0.25391 0.95312 0.46484 0.89453 0.70312 0.35156 1.0625-0.20703 1.3867-0.33594 1.0547 1.1797 0.91016 0.72266 0.74609-0.066406 1.1055 0.44922 1.1055 0.17969 1.1328 0.5625 1.2773 0.79297 0.8125-0.28125 0.96875-0.65234 1.6133-1.0742 0.8125-0.59375 0.84375-0.42188 1.0039-0.98438 0.33984-0.75781-0.8125-0.5625-0.98438-0.69531-0.83594-0.85156-0.87109-0.88281-0.65234-1.1836-0.28125-1.0469 0.14453-1.0234 0.066406-0.92578 0.71484-1.0078 0.61719-0.86328 0.58984-0.83984 0.72656-0.54688 0.89844 0.26953 1.0742-0.50391 0.89844-0.60156 1.0117-0.41016 0.95312-0.55078 1.4531 0.003907 1.1875-1.0039-0.12891-1.0039 0.61719-0.066406 1.1055 0.023437 1.0039-0.25 1.0078 0.16797 1.0117-0.078125 1.1797-0.17969 0.99609 0.26172 0.98438 0.71094 0.875 0.51562 0.90625 0.30469 1.0508 0.53906 0.90625-0.60156 0.83594-0.98438 0.18359-1.043 0.085937-1.0508 0.14062-1.1094 0.027344-1.0977-0.007813-0.98828-0.27344-1-0.3125-0.95312-0.46094-0.71875-0.91016-0.72656-0.77734-0.82422-0.57031-1.1094 0.17969-0.89062-0.64453-0.8125-0.63281-0.69922-0.81641-0.32422-1.0273-0.26562-1.0195-0.6875-0.81641-0.90625-0.50781-0.80078-0.78516-0.5-1.0312-0.35547-0.95703-0.82422-0.60938-0.64453-0.77734-0.54688-0.875-0.45312-0.97656-0.48047-0.87891-0.84766-0.59766 0.33984-0.96484-0.57422-0.85938-0.375-0.93359-0.73828-0.78125-0.98828-0.30859-1.0508 0.14844-1.0586 0.26562-0.87891 0.55078-1.3672-0.25-1.2344 0.16797-1.0742-0.007813-1.332 0.12109-1.1172-0.46875-0.70703-0.73828-0.78516-0.62109-0.74609-0.76953 0.035156-1.1055-0.28125-1.043-0.22266-0.98047 0.36719-0.94531-0.46875-0.94531-0.92578 0.41406-1.0273-0.10938-1.0234 0.10938-1.0156-0.16406-1.0117 0.29688-0.76562-0.89844-0.20703-1.0195-0.46875-0.93359 0.88672-0.58203 0.66406-0.76172 0.22656-1.1836 0.34766-0.99609 0.64844-0.76172 0.77344-0.69922 0.27734-0.98828 0.035156-1.0469 0.58203-0.83984-0.42188-0.99219 0.39062-0.9375 0.085938-1.0039 0.4375-0.94531 0.61719-0.85156 0.37109-1.0156 0.55859-0.85938 0.5-0.875-0.72266-0.92578-0.95703-0.69141-0.82422-0.65625 0.035156-1.4219 0.64062-1.0195 1.7109-2.668 0.82031-1.3164 1.0586-1.6602 0.58984-0.91797 0.84375-1.3281 0.96484-1.4961 1.1367-1.7812 1.1562-1.8281 0.76562-1.1719 0.6875-1.082 0.34766-0.95312 0.33984-0.95312 0.83984-0.57031 0.49219-0.875 0.75781-0.69141 0.76562-0.69141-0.17188-1-0.10938-1.0312-0.15234-1-0.11328-1.0117-0.078125-1.0039 0.51562-0.89062-0.22266-0.98828-0.35547-0.95312 1.0625-0.47266 1.0156-0.16797 1.1367-0.73438 1.25-0.48438 0.97656-0.54297 0.85156-0.625 1.0195 0.21875-0.09375-1.5781 0.29688-1.3164-0.29297-1.2422-0.58984-1.0859-0.085937-1.2227-0.015625-1.0391-0.36328-0.96875-1.3359-0.4375-0.19922-1.4961-0.17969-0.99219 26.219-33.266 1.3711 0.62891z" fill="#ccc" fill-rule="evenodd"/>
<path d="m196.28 268.69 0.5 0.042969 1.0195 0.59375 0.88672 0.67578 0.42969 0.97656 1.1094 0.625-0.63672 1.207-0.54688 1.2969-0.61328 0.94922-0.88672 0.86328-1.1875 0.30469-1.1836 1.168 0.070312 1.0859 0.60938 1.0859 1 0.88281 1.1875 0.54297 0.88672 0.55078 0.41406 1.0078 0.8125 0.85938 0.43359 1.168-0.011718 1.3281 0.58594 1.5664 0.48438 1.2539-0.027344 1.2148 0.035157 1.4688 0.1875 1.1172 0.082031 1.0859-0.70703 0.77734-0.32422 1.5508-0.54688 1.293-0.96875 1.4414 0.26953 1.1328 0.26562 1.418 0.10547 1.0352-1.3359 0.67188-1.0508 0.14062-1.9844-0.62891-1.2891-0.55469-0.45703 0.91406-0.82422 0.93359-1.1211 0.9375-0.67969 0.86328 0.54688 0.96875 1.5859 1.5234-0.023438 1.0586-1.1914 0.51172-0.92578 0.79297-0.41797 1.0898-0.078125 1.0898 0.55078 0.86719 0.80859 0.78125 0.48047 1.0742-0.33594 1.0703-0.69141 1.2188 0.13672 1.1953 0.45703 0.98438 0.61328 1.0234 0.38281 0.9375 0.33203 0.98828-0.22656 1.1016 0.90234 0.63281 0.49219 0.89453 0.44922 1.3281-0.015625 1.1211-0.23438 1-0.91016 1.1523-0.79688 0.76953 0.10156 1.0312-0.29688 1.1133-0.41406 0.9375-1.2188 1.3594-0.375 1.0508-0.60156 1.0078 0.054687 1.1211-0.12891 1.1523 0.77344 0.83203 0.61719 0.83594 0.54688 0.88672-0.13672 1-0.25391 1.1172-0.82422 0.85547 0.68359 1.5195 0.40625 0.94922-0.89844 0.84766-0.25 1.1641 0.39453 1.2617 0.26172 0.98047 0.089843 1.1914 0.34375 1 0.98047 0.48828 0.76562 0.64453 1.0977 0.42578 0.76953 0.6875 1.332 0.29297 0.99219-0.37891 1.1641 0.14453 1.0391-0.25391 0.95312 0.46484 0.89453 0.70312 0.35156 1.0625-0.20703 1.3867-0.33594 1.0547 1.1797 0.91016 0.72266 0.74609-0.066406 1.1055 0.44922 1.1055 0.17969 1.1328 0.5625 1.2773 0.79297 0.8125-0.28125 0.96875-0.65234 1.6133-1.0742 0.8125-0.59375 0.84375-0.42188 1.0039-0.98438 0.33984-0.75781-0.8125-0.5625-0.98438-0.69531-0.83594-0.85156-0.87109-0.88281-0.65234-1.1836-0.28125-1.0469 0.14453-1.0234 0.066406-0.92578 0.71484-1.0078 0.61719-0.86328 0.58984-0.83984 0.72656-0.54688 0.89844 0.26953 1.0742-0.50391 0.89844-0.60156 1.0117-0.41016 0.95312-0.55078 1.4531 0.003907 1.1875-1.0039-0.12891-1.0039 0.61719-0.066406 1.1055 0.023437 1.0039-0.25 1.0078 0.16797 1.0117-0.078125 1.1797-0.17969 0.99609 0.26172 0.98438 0.71094 0.875 0.51562 0.90625 0.30469 1.0508 0.53906 0.90625-0.60156 0.83594-0.98438 0.18359-1.043 0.085937-1.0508 0.14062-1.1094 0.027344-1.0977-0.007813-0.98828-0.27344-1-0.3125-0.95312-0.46094-0.71875-0.91016-0.72656-0.77734-0.82422-0.57031-1.1094 0.17969-0.89062-0.64453-0.8125-0.63281-0.69922-0.81641-0.32422-1.0273-0.26562-1.0195-0.6875-0.81641-0.90625-0.50781-0.80078-0.78516-0.5-1.0312-0.35547-0.95703-0.82422-0.60938-0.64453-0.77734-0.54688-0.875-0.45312-0.97656-0.48047-0.87891-0.84766-0.59766 0.33984-0.96484-0.57422-0.85938-0.375-0.93359-0.73828-0.78125-0.98828-0.30859-1.0508 0.14844-1.0586 0.26562-0.87891 0.55078-1.3672-0.25-1.2344 0.16797-1.0742-0.007813-1.332 0.12109-1.1172-0.46875-0.70703-0.73828-0.78516-0.62109-0.74609-0.76953 0.035156-1.1055-0.28125-1.043-0.22266-0.98047 0.36719-0.94531-0.46875-0.94531-0.92578 0.41406-1.0273-0.10938-1.0234 0.10938-1.0156-0.16406-1.0117 0.29688-0.76562-0.89844-0.20703-1.0195-0.46875-0.93359 0.88672-0.58203 0.66406-0.76172 0.22656-1.1836 0.34766-0.99609 0.64844-0.76172 0.77344-0.69922 0.27734-0.98828 0.035156-1.0469 0.58203-0.83984-0.42188-0.99219 0.39062-0.9375 0.085938-1.0039 0.4375-0.94531 0.61719-0.85156 0.37109-1.0156 0.55859-0.85938 0.5-0.875-0.72266-0.92578-0.95703-0.69141-0.82422-0.65625 0.035156-1.4219 0.64062-1.0195 1.7109-2.668 0.82031-1.3164 1.0586-1.6602 0.58984-0.91797 0.84375-1.3281 0.96484-1.4961 1.1367-1.7812 1.1562-1.8281 0.76562-1.1719 0.6875-1.082 0.34766-0.95312 0.33984-0.95312 0.83984-0.57031 0.49219-0.875 0.75781-0.69141 0.76562-0.69141-0.17188-1-0.10938-1.0312-0.15234-1-0.11328-1.0117-0.078125-1.0039 0.51562-0.89062-0.22266-0.98828-0.35547-0.95312 1.0625-0.47266 1.0156-0.16797 1.1367-0.73438 1.25-0.48438 0.97656-0.54297 0.85156-0.625 1.0195 0.21875-0.09375-1.5781 0.29688-1.3164-0.29297-1.2422-0.58984-1.0859-0.085937-1.2227-0.015625-1.0391-0.36328-0.96875-1.3359-0.4375-0.19922-1.4961-0.17969-0.99219 26.219-33.266 1.3711 0.62891 0.83594 0.28125" fill="none" stroke="#fff" stroke-linecap="round" stroke-linejoin="round" stroke-miterlimit="10" stroke-width="2"/>
<path d="m185.74 0.43359-0.15234 0.16797-0.38281 0.93359 0.24609 1.1289 0.35938 0.95312 0.40625 0.97656 1.0664 1.582 0.82031 1.0391 0.30859 1.3047 0.17578 1.4141 0.19922 1.125-0.51562 0.93359-0.31641 0.97656 0.76953 1.2383 0.23438 1.0742-0.53516 0.85938 0.31641 2.8086 0.23828 1.9023 0.30859 2.2188 0.28125 1.3164 0.44141 1.2734 0.003906 1.2148-0.17969 2.3672 0.0625 4.6719-0.14062 1.832 0.007813 2.3516 0.42188 2.7109 0.14844 1.3438-0.25 2.5391-0.13281 1.8555 0.066406 1.5586-0.019531 1.2266 0.14844 1.0898 0.078125 1.3828 0.14844 2.0664 0.30078 1.3438 0.45312 1.1289 0.59375 0.87109 0.058594 1.0195 1.0977 1.0273 0.67578 1.0859 0.42188 1.2734 1.5469 1.8086 0.62109 1.125 1.0547 0.70703 1.0586 1.7773-0.21094 1.0312-0.53125 0.86719 1.0742 1.0898 1.168 0.61719 1.2344 0.39844 0.97266 0.63672 1.4492 0.94531 0.92188 1.0078 0.71484 1.332 0.625 1.3438 0.39453 1.3906 0.43359 0.91406 1.3047 0.52734 1.1055-0.035156 0.88281 0.76172 0.28906 0.98047-0.22266 1.1094 0.14844 1.0156-0.44141 0.99609 0.097657 1.1406 0.22656 1.0898-0.35938 1.1094 0.30469 1.2383 0.32422 1.2109-0.46484 0.90625-0.51953 1.2617-0.23047 1.4766-0.77734 0.99219-0.90234 0.62891-0.52734 0.94531-0.20703 1.1484-0.59766 1.5938 0.73047 1.375 0.64453 0.90625 0.73828 1.3281 0.625 1.3203 0.82422 0.73047 1.082 0.15625 1.75 1.4375 1 2.0898 1.0469 1.1836 0.90234 0.69922 0.86328 0.70703 0.12109 1.0039-0.19922 1.1055 0.62891 1.2969 0.84375 2.2031 0.52734 0.86328 0.73828 0.98438 0.65625 1.293 0.16797 1.0703 0.31641 1.2422-0.15234 1.5664-0.25391 1.0391 0.28125 1.2109 0.097657 1.3711-0.12109 2.2695-0.1875 2.707-0.19922 1.4648-0.14062 1.1367-0.12109 1.1016-0.35938 1.4688-0.13281 1.1445-0.039063 1.3203-0.43359 1.043-0.35156 0.97266-0.44531 1.1484-0.19531 1.1172-0.30469 1.0703-0.39844 0.98828-0.015625 1.0469-0.29297 1-0.23828 1.9844-0.35938 1.8594-0.42578 1.4883-0.042969 1.1797-0.24219 1.0352-0.25391 1.043-0.38281 0.92969-0.13672 0.99609 0.22266 1.3125 0.42578 1.1875-0.14062 1.7344 0.21094 1.3789 0.41797 1.4258 0.50781 2.0234 0.16797 1.5703 0.27344 1.1328 0.27344 1.8789-0.13672 1.8594-0.15234 0.99219 0.38672 1.3086-0.19141 1.0352-0.23047 1.293-0.62891 1.6055-0.12891 1.0469-0.41406 1.0938-0.39453 1.4922-0.53125 1.6641-0.47656 0.94531-1.1094 0.58594-1.1016 0.6875-1.3359 0.64844-1.3086 0.082031-1.0703-0.015625-0.54688 1.3828-1.1484 0.80859-0.68359 0.98047 0.10938 1.0039 0.55078 1.5195-0.26562 0.96875-0.85938 0.8125 0.097657 1.0156 0.35156 0.98828-0.42969 1.1172-0.40625 1.2617-0.015625 1.1797-0.28516 1.0312-0.27734 1.0312-0.38672 1.0312-0.67188 1.0508-0.86328 0.95703-0.56641 0.85547-0.74219 1.0117-1.1055 0.30859-1.3438 0.51953-0.91016 0.89453-0.88281 1.1758-0.54297 1.0469-0.86719 0.50781-1.25 0.78516-0.94531 0.45312-0.85938 0.90625-0.87891 0.80469-0.55859 0.83203-0.53125 1.0586-1.0859 0.98828-0.39453 0.92578-0.42188 1.3477 0.11719 1.3125 0.38281 0.92969 0.074219 1.2031-0.76562 0.99219-0.12891 1.2656 0.16016 1.0664-0.47656 1.3047 0.46875 1.0078-0.011719 1.1172 0.21484 1.3359 0.71875 0.85547 0.67188 1.0078 0.95312 1.6602 0.074219 1.3086 0.37109 0.97266 0.83203 0.75781 0.55078 0.84375-0.65234 0.91016 0.13281 1.3945 0.19531 1.2617 0.42578 1.2617-0.78125 0.79297-0.62891 0.77734-0.4375 0.96094-1.0742 1.7617-0.80859 1-0.60938 0.80859-0.81641 1.0586-0.73438 0.95703-1.1602 1.2539-1.0938 1.0742 1.0703 0.80859 0.14062 1.2148 0.38672 1.0391-0.75781 0.92969-0.23047 1.0898-0.31641 1.1562 0.38672 1.0703 1.2969 0.26562 0.83594-0.78125 0.88672 0.81641 1.0312 0.42578 1.1836 0.082032 0.86719 0.59375 0.31641 1.1562 0.61328 0.84766 0.91797 0.58594 1.2656 1.3242-26.219 33.266-1.2383-0.82422-1.1797 0.30469-1.4805-0.19531-0.97656-0.78906-0.60547-0.83984-0.96484-0.49219-0.71094-1.0312-0.96875-0.32031-1.1133 0.30078-1.2227 0.54688-1.1289 0.23828-0.5 1.1328-0.37891 1.2617 0.64062 0.83594 0.39844 0.98828-0.94141 0.64844-1.0742-0.35156-1.2344-0.23047-0.91797-0.85156 0.19922-1.2656-0.73047-1.1992-0.44141-1.0078-0.51953-1.082-0.71094-1.1523-0.67969-0.77344-0.30859-1.0508 1.0195-0.003906 0.25781-1.1914 0.53906-1.0547 0.55469-1.0391 0.48828-1.0586 0.29297-1.5625 0.79297-0.98438 0.37109-1.1953 0.33594-1.1289-0.35938-0.96875-0.51172-1.1133 0.78125-1.1523 0.058594-1.0234 0.38672-0.92188 0.64062-1.2578 0.49219-0.98438-1.1562-1.3242-0.66406-0.81641-0.58203-1.2344-0.44141-1.3438-1.0312 0.46484-0.88281-0.47266-0.66016-1.2461 0.070313-1.2344 0.42578-1.1094-0.99609 0.47656-0.77344-0.73047-0.96875-0.32422-0.77734-0.85156-1.0703-0.64844-1.1562-0.79688-1.1211 0.12891-0.98438-0.68359 0.38672-1.3477 0.4375-0.94922 1.1055-0.050782 0.58984-0.85938-0.50781-1.0039-1.6797-0.027344-1.3828 0.0625-0.50391-1.0469-0.6875-1.3945-1-0.89062-0.55078-1.1172-0.64062-0.91797-0.046875-1.1562 0.41797-0.96875 0.51562-1.3789 0.64844-0.85547 0.41797-0.92188 1.0078-0.20703 1.1055-0.03125 1.0234 0.054687 1.0352-0.41406-0.25781-1.0273 0.042968-1.0742-0.20312-1.1172-0.83594-0.79688-0.62109-0.8125-0.28125-1.0273-0.050781-1.4258 0.27344-1.1758 0.99219-0.41406 0.82422-0.57812 0.71875-0.71094 0.20703-1.082 0.4375-1.0273 0.78516-0.89062 0.25781-0.98047-0.023438-1.1328-0.12891-1.1719 0.089844-1.043 0.50781-0.86328 0.17188-1.1523-0.67578-0.99609-0.58984-0.98047-0.625-1.1055-0.66016-1.0234 0.77344-0.95703-0.42578-1.207-0.44922-1.0352-0.60547-0.97266-0.023438-1.0781 0.76953-1.2969 0.60156-1.0859 0.49609-1.0391 0.25781-0.98828 0.53125-1.125 0.52734-1.332 0.38281-1.0625-0.50391-0.91016-0.38281-0.94141-0.39844-1.1602-0.89062-0.5625-0.35156-1.0352-0.9375 0.35156-1.0156-0.35547 0.6875-0.85156 0.40625-1.0977-0.85547-0.58984-0.95703-0.55859-1.0273 0.37109-0.74219 0.99609-0.77344 0.71875-0.84375 0.65625-1.1602-0.32031-1.2773 0.28906-1.2969 0.35156-0.71875 0.89453-0.81641 0.95312-0.44141 0.92578-0.60938 0.98828-0.92578 1.1602-0.67188 0.80469-0.84766 1.5039-0.73438-0.90234-0.40234-1.1602 0.25-1.1445 0.46484-0.91797-0.67578-0.80078-0.40625-1.0781-0.62109-1.0469-0.70703 0.95312-1.0117 0.51562-0.97656 0.35547-1.1211-0.30078-0.96094-0.38672-1.082 0.10156-0.58594 0.82031-1.0234 0.18359-0.75-0.84375-0.43359-0.9375-0.69531-0.72656-0.85938-0.73828-1.1406-0.30859-0.98438 0.27344-1.3203 0.011718-1.0391 0.24609-1.0234 0.50781-0.99609 0.20312-1.1445-0.19141-1.0234-0.54688-0.95703-0.36719-0.96875-0.39062-0.99219-0.22656-1.0352 0.21484-1.0664 0.011719-0.26953-1.1797-0.14844-1.0352-1.082-0.51562-0.82422-0.74609-0.61719-1.1641-0.90234-0.70703-1.8633-1.5703-1.0977-0.77734-2.2227-0.14844-0.96875-0.48438-1.0312 0.042969-0.78516 0.74219-0.66016 0.78906-0.44922 0.89844-0.97656 0.28516-0.54297-1.5273 0.078125-1.0195-0.14453-1.1484-0.26953-1.0078-0.089844-0.99609 0.14453-1.0781 0.54297-0.87891-0.097656-1.0352-0.95703-0.53516-0.66406-1.0547-0.27344-0.96875-0.83203-0.85938-0.84766 0.59766-1.0078-0.058594-0.65625-1.0312-1.0625-0.18359-0.69922-0.87891-0.035157-1.0039 0.25781-1.0078 0.34375-0.99609 0.24609-0.99609 0.76953-0.86719 0.35156-0.99219 0.30078-1.0703 1.082-0.10547 0.84766-0.57422 0.60156-0.87891-0.20312-1.1797-1.1836-0.17188-1.1172-0.027344-1.0195 0.35156-0.79688-0.76562-0.69141-1.0859 0.15625-1.2539 0.070312-1.3008-0.28125-1.1133-0.45312-0.96484-0.61719-1.0508 0.09375-1-0.23438-1.0742-0.074219-1.1328 0.65234-0.80469 0.042969-1.0312 0.58984-0.98828 0.55469-0.83594 0.94531-0.40234 0.92578-0.39453 0.44531-0.96484 0.59766-1.0273 0.29297-1.0781 0.69922-1.0234 0.32422-1.0234-0.45312-0.99219-0.24609-1.1133-0.10156-1.3789 0.34766-1.0664 0.76953-1.0352 1.082-0.42969 0.98047-0.70312 0.73828-0.70703-0.082031-1.1602 0.28516-1.1016 0.16406-1.0469-0.35156-1.0547-0.26172-1.0039 0.13281-1.1523-0.21094-1.1016 0.47656-1.2656 0.52734-1.0352 0.35156-1.0312 0.64062-0.83203 0.66016-1.0234 0.90234-0.74609 0.67969-0.91406 0.67188-0.80078 0.25781-1.0078-0.97656-0.78906-1.0742-0.66406-1.1406-0.51953-0.44141-1.0234 0.070312-1.1133 0.29297-1.0117 0.074219-1.0508 0.019531-1.082-0.21094-1.0039 0.26172-1.0469 1.1289-0.98047 0.66016-0.75781 0.96094-0.35156-0.14453-1 0.98438-0.90234 0.64844-0.91406 0.29297-0.96094 0.99609-0.57422 1.0234-0.36328 1.2344-0.023437 1.0625-0.078125 0.89453-0.94141 0.5-1 0.51562-0.92578 0.24219-0.96875-0.69531-0.77734-0.085938-1.0469 0.53906-0.94922-0.17969-1.0234 0.28906-1.1172 0.28906-1.0078 0.60938-0.92969 0.87891-0.51172 0.31641-1.0195-0.83203-0.73438 1.0234-0.38281 0.98828-0.32812 1.3125-0.61719 0.91016-0.73047 0.86328-1.0703 0.87891-0.98438 0.72266-0.78906 0.42969-1.0547 0.10547-1.1328-0.91406-0.74609 0.44141-1 0.38281-0.99219 0.60156-1.2227-0.65625-0.9375-0.95312-0.94922 0.011719-1.0156-0.082031-1.1367-0.54688-0.83594-0.14844-1.1562 0.63672-0.80078 1.043 0.48047 1.0664-0.042969 0.74609-1.0039-0.16797-1.1914 0.074219-1.2773-0.29688-1.0859 0.45312-1.1133 0.95703-0.48438-0.55469-0.96484-0.58594-0.87891 0.046875-1.0039-0.47656-1.25 0.875-0.55078-0.24219-1.0156 0.070312-1.1914 0.55859-0.84375 0.4375-1.0078-0.26172-1.0625 0.19531-1.0195 1.125-0.52344 0.38672-0.92578 0.58203-0.83984 0.63281-0.79688-0.18359-1.0312 0.035156-1.0312 0.58594-1.043 0.39453-0.96484 0.27344-1.1875 0.10938-1.0547-0.55078-0.91406 0.47266-1.0547 0.80859-0.76953 0.42969-0.93359 0.078125-1.0977 0.20312-1.043-0.10938-1.0078-0.49219-0.96484-0.6875-0.95703 0.19531-1.1172 0.6875-0.75781 0.16406-1 1.0586-0.29297 1.2383 0.58203 1.0469 0.84766 1.0117 0.066406 0.99609 0.51562 1.168-0.16406 1.0273 0.035157 0.98438 0.32422 1.0078 0.42188 0.97656-0.22266 1.1094-0.023437 0.93359 0.51953 0.37109 0.95312-0.19141 1.0039 0.054688 1.1328-0.03125 1.0195 0.77734 0.67969 0.20312 1.043-0.039062 1.1758 0.39062 1.0898 0.39062 1.3828 0.38672 1.0156-0.63672 0.85938 0.8125 0.73828 0.95312 0.625 1.1641-0.35938 0.62109-0.80078 1.043-0.09375 1.1211-0.12109 0.84766-0.60156 0.99219-0.30469 1.2266-1.2266 1.0195-0.097656 0.84375-0.57422 0.050781-1.0586-0.13672-1.0352 0.003906-1.1992-0.57422-0.87109 0.11328-1.1094-0.30078-1.2773-0.19141-1.0312-0.54688-0.92188-0.92578 0.46875-1.1484-0.03125-0.68359-0.85938-0.042968-1.1016-0.81641-0.6875-0.20703-1.0312-0.050781-1.2734-0.60938-0.86719 0.82031-0.67969 1.0234-0.53125 0.94141-0.47656 0.94141-0.97656 0.88672-0.72656 0.66797-0.76562 1.3281-0.35938 0.27734-1.3984 0.62891-0.91406 0.73828-0.85156 0.5625-0.89844 0.76172-0.73438 0.625-0.83203 0.75781-0.81641-0.050781-1.0234 0.78516-0.72656 0.51172-0.94141 0.33594-0.99219 0.30078-1.0859 0.70312-0.92188 1.3125-0.42578 1.0703-0.17188 0.79297-0.98438 0.74609-1.1758 1.168-0.34766 0.62109-0.80859 0.40234-1.0781 1-0.36328 1.125-0.18359 0.92188-0.90234 0.16016-1.0234 0.13672-1.082 0.61719-0.95703 0.85547-0.62891 0.57031-0.84375 0.75781-0.71875 0.49609-1.2305 0.25781-0.97656 1.2031-0.078125 0.53516-1.0625 0.43359-0.92578 0.48438-1.0586 1.0742-0.40625 0.51172-1.1602 0.058594-1.1094 0.82031-0.87891 12.559-7.1445-0.5625-1.2734 1.332-0.46094 1.3086-0.43359 1.0352-0.36328z" fill="#ccc" fill-rule="evenodd"/>
<path d="m185.74 0.43359-0.15234 0.16797-0.38281 0.93359 0.24609 1.1289 0.35938 0.95312 0.40625 0.97656 1.0664 1.582 0.82031 1.0391 0.30859 1.3047 0.17578 1.4141 0.19922 1.125-0.51562 0.93359-0.31641 0.97656 0.76953 1.2383 0.23438 1.0742-0.53516 0.85938 0.31641 2.8086 0.23828 1.9023 0.30859 2.2188 0.28125 1.3164 0.44141 1.2734 0.003906 1.2148-0.17969 2.3672 0.0625 4.6719-0.14062 1.832 0.007813 2.3516 0.42188 2.7109 0.14844 1.3438-0.25 2.5391-0.13281 1.8555 0.066406 1.5586-0.019531 1.2266 0.14844 1.0898 0.078125 1.3828 0.14844 2.0664 0.30078 1.3438 0.45312 1.1289 0.59375 0.87109 0.058594 1.0195 1.0977 1.0273 0.67578 1.0859 0.42188 1.2734 1.5469 1.8086 0.62109 1.125 1.0547 0.70703 1.0586 1.7773-0.21094 1.0312-0.53125 0.86719 1.0742 1.0898 1.168 0.61719 1.2344 0.39844 0.97266 0.63672 1.4492 0.94531 0.92188 1.0078 0.71484 1.332 0.625 1.3438 0.39453 1.3906 0.43359 0.91406 1.3047 0.52734 1.1055-0.035156 0.88281 0.76172 0.28906 0.98047-0.22266 1.1094 0.14844 1.0156-0.44141 0.99609 0.097657 1.1406 0.22656 1.0898-0.35938 1.1094 0.30469 1.2383 0.32422 1.2109-0.46484 0.90625-0.51953 1.2617-0.23047 1.4766-0.77734 0.99219-0.90234 0.62891-0.52734 0.94531-0.20703 1.1484-0.59766 1.5938 0.73047 1.375 0.64453 0.90625 0.73828 1.3281 0.625 1.3203 0.82422 0.73047 1.082 0.15625 1.75 1.4375 1 2.0898 1.0469 1.1836 0.90234 0.69922 0.86328 0.70703 0.12109 1.0039-0.19922 1.1055 0.62891 1.2969 0.84375 2.2031 0.52734 0.86328 0.73828 0.98438 0.65625 1.293 0.16797 1.0703 0.31641 1.2422-0.15234 1.5664-0.25391 1.0391 0.28125 1.2109 0.097657 1.3711-0.12109 2.2695-0.1875 2.707-0.19922 1.4648-0.14062 1.1367-0.12109 1.1016-0.35938 1.4688-0.13281 1.1445-0.039063 1.3203-0.43359 1.043-0.35156 0.97266-0.44531 1.1484-0.19531 1.1172-0.30469 1.0703-0.39844 0.98828-0.015625 1.0469-0.29297 1-0.23828 1.9844-0.35938 1.8594-0.42578 1.4883-0.042969 1.1797-0.24219 1.0352-0.25391 1.043-0.38281 0.92969-0.13672 0.99609 0.22266 1.3125 0.42578 1.1875-0.14062 1.7344 0.21094 1.3789 0.41797 1.4258 0.50781 2.0234 0.16797 1.5703 0.27344 1.1328 0.27344 1.8789-0.13672 1.8594-0.15234 0.99219 0.38672 1.3086-0.19141 1.0352-0.23047 1.293-0.62891 1.6055-0.12891 1.0469-0.41406 1.0938-0.39453 1.4922-0.53125 1.6641-0.47656 0.94531-1.1094 0.58594-1.1016 0.6875-1.3359 0.64844-1.3086 0.082031-1.0703-0.015625-0.54688 1.3828-1.1484 0.80859-0.68359 0.98047 0.10938 1.0039 0.55078 1.5195-0.26562 0.96875-0.85938 0.8125 0.097657 1.0156 0.35156 0.98828-0.42969 1.1172-0.40625 1.2617-0.015625 1.1797-0.28516 1.0312-0.27734 1.0312-0.38672 1.0312-0.67188 1.0508-0.86328 0.95703-0.56641 0.85547-0.74219 1.0117-1.1055 0.30859-1.3438 0.51953-0.91016 0.89453-0.88281 1.1758-0.54297 1.0469-0.86719 0.50781-1.25 0.78516-0.94531 0.45312-0.85938 0.90625-0.87891 0.80469-0.55859 0.83203-0.53125 1.0586-1.0859 0.98828-0.39453 0.92578-0.42188 1.3477 0.11719 1.3125 0.38281 0.92969 0.074219 1.2031-0.76562 0.99219-0.12891 1.2656 0.16016 1.0664-0.47656 1.3047 0.46875 1.0078-0.011719 1.1172 0.21484 1.3359 0.71875 0.85547 0.67188 1.0078 0.95312 1.6602 0.074219 1.3086 0.37109 0.97266 0.83203 0.75781 0.55078 0.84375-0.65234 0.91016 0.13281 1.3945 0.19531 1.2617 0.42578 1.2617-0.78125 0.79297-0.62891 0.77734-0.4375 0.96094-1.0742 1.7617-0.80859 1-0.60938 0.80859-0.81641 1.0586-0.73438 0.95703-1.1602 1.2539-1.0938 1.0742 1.0703 0.80859 0.14062 1.2148 0.38672 1.0391-0.75781 0.92969-0.23047 1.0898-0.31641 1.1562 0.38672 1.0703 1.2969 0.26562 0.83594-0.78125 0.88672 0.81641 1.0312 0.42578 1.1836 0.082032 0.86719 0.59375 0.31641 1.1562 0.61328 0.84766 0.91797 0.58594 1.2656 1.3242-26.219 33.266-1.2383-0.82422-1.1797 0.30469-1.4805-0.19531-0.97656-0.78906-0.60547-0.83984-0.96484-0.49219-0.71094-1.0312-0.96875-0.32031-1.1133 0.30078-1.2227 0.54688-1.1289 0.23828-0.5 1.1328-0.37891 1.2617 0.64062 0.83594 0.39844 0.98828-0.94141 0.64844-1.0742-0.35156-1.2344-0.23047-0.91797-0.85156 0.19922-1.2656-0.73047-1.1992-0.44141-1.0078-0.51953-1.082-0.71094-1.1523-0.67969-0.77344-0.30859-1.0508 1.0195-0.003906 0.25781-1.1914 0.53906-1.0547 0.55469-1.0391 0.48828-1.0586 0.29297-1.5625 0.79297-0.98438 0.37109-1.1953 0.33594-1.1289-0.35938-0.96875-0.51172-1.1133 0.78125-1.1523 0.058594-1.0234 0.38672-0.92188 0.64062-1.2578 0.49219-0.98438-1.1562-1.3242-0.66406-0.81641-0.58203-1.2344-0.44141-1.3438-1.0312 0.46484-0.88281-0.47266-0.66016-1.2461 0.070313-1.2344 0.42578-1.1094-0.99609 0.47656-0.77344-0.73047-0.96875-0.32422-0.77734-0.85156-1.0703-0.64844-1.1562-0.79688-1.1211 0.12891-0.98438-0.68359 0.38672-1.3477 0.4375-0.94922 1.1055-0.050782 0.58984-0.85938-0.50781-1.0039-1.6797-0.027344-1.3828 0.0625-0.50391-1.0469-0.6875-1.3945-1-0.89062-0.55078-1.1172-0.64062-0.91797-0.046875-1.1562 0.41797-0.96875 0.51562-1.3789 0.64844-0.85547 0.41797-0.92188 1.0078-0.20703 1.1055-0.03125 1.0234 0.054687 1.0352-0.41406-0.25781-1.0273 0.042968-1.0742-0.20312-1.1172-0.83594-0.79688-0.62109-0.8125-0.28125-1.0273-0.050781-1.4258 0.27344-1.1758 0.99219-0.41406 0.82422-0.57812 0.71875-0.71094 0.20703-1.082 0.4375-1.0273 0.78516-0.89062 0.25781-0.98047-0.023438-1.1328-0.12891-1.1719 0.089844-1.043 0.50781-0.86328 0.17188-1.1523-0.67578-0.99609-0.58984-0.98047-0.625-1.1055-0.66016-1.0234 0.77344-0.95703-0.42578-1.207-0.44922-1.0352-0.60547-0.97266-0.023438-1.0781 0.76953-1.2969 0.60156-1.0859 0.49609-1.0391 0.25781-0.98828 0.53125-1.125 0.52734-1.332 0.38281-1.0625-0.50391-0.91016-0.38281-0.94141-0.39844-1.1602-0.89062-0.5625-0.35156-1.0352-0.9375 0.35156-1.0156-0.35547 0.6875-0.85156 0.40625-1.0977-0.85547-0.58984-0.95703-0.55859-1.0273 0.37109-0.74219 0.99609-0.77344 0.71875-0.84375 0.65625-1.1602-0.32031-1.2773 0.28906-1.2969 0.35156-0.71875 0.89453-0.81641 0.95312-0.44141 0.92578-0.60938 0.98828-0.92578 1.1602-0.67188 0.80469-0.84766 1.5039-0.73438-0.90234-0.40234-1.1602 0.25-1.1445 0.46484-0.91797-0.67578-0.80078-0.40625-1.0781-0.62109-1.0469-0.70703 0.95312-1.0117 0.51562-0.97656 0.35547-1.1211-0.30078-0.96094-0.38672-1.082 0.10156-0.58594 0.82031-1.0234 0.18359-0.75-0.84375-0.43359-0.9375-0.69531-0.72656-0.85938-0.73828-1.1406-0.30859-0.98438 0.27344-1.3203 0.011718-1.0391 0.24609-1.0234 0.50781-0.99609 0.20312-1.1445-0.19141-1.0234-0.54688-0.95703-0.36719-0.96875-0.39062-0.99219-0.22656-1.0352 0.21484-1.0664 0.011719-0.26953-1.1797-0.14844-1.0352-1.082-0.51562-0.82422-0.74609-0.61719-1.1641-0.90234-0.70703-1.8633-1.5703-1.0977-0.77734-2.2227-0.14844-0.96875-0.48438-1.0312 0.042969-0.78516 0.74219-0.66016 0.78906-0.44922 0.89844-0.97656 0.28516-0.54297-1.5273 0.078125-1.0195-0.14453-1.1484-0.26953-1.0078-0.089844-0.99609 0.14453-1.0781 0.54297-0.87891-0.097656-1.0352-0.95703-0.53516-0.66406-1.0547-0.27344-0.96875-0.83203-0.85938-0.84766 0.59766-1.0078-0.058594-0.65625-1.0312-1.0625-0.18359-0.69922-0.87891-0.035157-1.0039 0.25781-1.0078 0.34375-0.99609 0.24609-0.99609 0.76953-0.86719 0.35156-0.99219 0.30078-1.0703 1.082-0.10547 0.84766-0.57422 0.60156-0.87891-0.20312-1.1797-1.1836-0.17188-1.1172-0.027344-1.0195 0.35156-0.79688-0.76562-0.69141-1.0859 0.15625-1.2539 0.070312-1.3008-0.28125-1.1133-0.45312-0.96484-0.61719-1.0508 0.09375-1-0.23438-1.0742-0.074219-1.1328 0.65234-0.80469 0.042969-1.0312 0.58984-0.98828 0.55469-0.83594 0.94531-0.40234 0.92578-0.39453 0.44531-0.96484 0.59766-1.0273 0.29297-1.0781 0.69922-1.0234 0.32422-1.0234-0.45312-0.99219-0.24609-1.1133-0.10156-1.3789 0.34766-1.0664 0.76953-1.0352 1.082-0.42969 0.98047-0.70312 0.73828-0.70703-0.082031-1.1602 0.28516-1.1016 0.16406-1.0469-0.35156-1.0547-0.26172-1.0039 0.13281-1.1523-0.21094-1.1016 0.47656-1.2656 0.52734-1.0352 0.35156-1.0312 0.64062-0.83203 0.66016-1.0234 0.90234-0.74609 0.67969-0.91406 0.67188-0.80078 0.25781-1.0078-0.97656-0.78906-1.0742-0.66406-1.1406-0.51953-0.44141-1.0234 0.070312-1.1133 0.29297-1.0117 0.074219-1.0508 0.019531-1.082-0.21094-1.0039 0.26172-1.0469 1.1289-0.98047 0.66016-0.75781 0.96094-0.35156-0.14453-1 0.98438-0.90234 0.64844-0.91406 0.29297-0.96094 0.99609-0.57422 1.0234-0.36328 1.2344-0.023437 1.0625-0.078125 0.89453-0.94141 0.5-1 0.51562-0.92578 0.24219-0.96875-0.69531-0.77734-0.085938-1.0469 0.53906-0.94922-0.17969-1.0234 0.28906-1.1172 0.28906-1.0078 0.60938-0.92969 0.87891-0.51172 0.31641-1.0195-0.83203-0.73438 1.0234-0.38281 0.98828-0.32812 1.3125-0.61719 0.91016-0.73047 0.86328-1.0703 0.87891-0.98438 0.72266-0.78906 0.42969-1.0547 0.10547-1.1328-0.91406-0.74609 0.44141-1 0.38281-0.99219 0.60156-1.2227-0.65625-0.9375-0.95312-0.94922 0.011719-1.0156-0.082031-1.1367-0.54688-0.83594-0.14844-1.1562 0.63672-0.80078 1.043 0.48047 1.0664-0.042969 0.74609-1.0039-0.16797-1.1914 0.074219-1.2773-0.29688-1.0859 0.45312-1.1133 0.95703-0.48438-0.55469-0.96484-0.58594-0.87891 0.046875-1.0039-0.47656-1.25 0.875-0.55078-0.24219-1.0156 0.070312-1.1914 0.55859-0.84375 0.4375-1.0078-0.26172-1.0625 0.19531-1.0195 1.125-0.52344 0.38672-0.92578 0.58203-0.83984 0.63281-0.79688-0.18359-1.0312 0.035156-1.0312 0.58594-1.043 0.39453-0.96484 0.27344-1.1875 0.10938-1.0547-0.55078-0.91406 0.47266-1.0547 0.80859-0.76953 0.42969-0.93359 0.078125-1.0977 0.20312-1.043-0.10938-1.0078-0.49219-0.96484-0.6875-0.95703 0.19531-1.1172 0.6875-0.75781 0.16406-1 1.0586-0.29297 1.2383 0.58203 1.0469 0.84766 1.0117 0.066406 0.99609 0.51562 1.168-0.16406 1.0273 0.035157 0.98438 0.32422 1.0078 0.42188 0.97656-0.22266 1.1094-0.023437 0.93359 0.51953 0.37109 0.95312-0.19141 1.0039 0.054688 1.1328-0.03125 1.0195 0.77734 0.67969 0.20312 1.043-0.039062 1.1758 0.39062 1.0898 0.39062 1.3828 0.38672 1.0156-0.63672 0.85938 0.8125 0.73828 0.95312 0.625 1.1641-0.35938 0.62109-0.80078 1.043-0.09375 1.1211-0.12109 0.84766-0.60156 0.99219-0.30469 1.2266-1.2266 1.0195-0.097656 0.84375-0.57422 0.050781-1.0586-0.13672-1.0352 0.003906-1.1992-0.57422-0.87109 0.11328-1.1094-0.30078-1.2773-0.19141-1.0312-0.54688-0.92188-0.92578 0.46875-1.1484-0.03125-0.68359-0.85938-0.042968-1.1016-0.81641-0.6875-0.20703-1.0312-0.050781-1.2734-0.60938-0.86719 0.82031-0.67969 1.0234-0.53125 0.94141-0.47656 0.94141-0.97656 0.88672-0.72656 0.66797-0.76562 1.3281-0.35938 0.27734-1.3984 0.62891-0.91406 0.73828-0.85156 0.5625-0.89844 0.76172-0.73438 0.625-0.83203 0.75781-0.81641-0.050781-1.0234 0.78516-0.72656 0.51172-0.94141 0.33594-0.99219 0.30078-1.0859 0.70312-0.92188 1.3125-0.42578 1.0703-0.17188 0.79297-0.98438 0.74609-1.1758 1.168-0.34766 0.62109-0.80859 0.40234-1.0781 1-0.36328 1.125-0.18359 0.92188-0.90234 0.16016-1.0234 0.13672-1.082 0.61719-0.95703 0.85547-0.62891 0.57031-0.84375 0.75781-0.71875 0.49609-1.2305 0.25781-0.97656 1.2031-0.078125 0.53516-1.0625 0.43359-0.92578 0.48438-1.0586 1.0742-0.40625 0.51172-1.1602 0.058594-1.1094 0.82031-0.87891 12.559-7.1445-0.5625-1.2734 1.332-0.46094 1.3086-0.43359 1.0352-0.36328 0.375 0.21094" fill="none" stroke="#fff" stroke-linecap="round" stroke-linejoin="round" stroke-miterlimit="10" stroke-width="2"/>
<path d="m146.06 363.91 0.011719 0.054688 0.26172 1.1406 0.64453 0.87109 0.98438-0.22266 1.0156 0.0625 1.0273 0.03125 1.0938 0.023438 0.95312-0.41406 0.89062 0.47656-0.54297 0.89453-0.32422 1.0586 0.54688 0.84766-0.023438 1.1328 0.32812 0.98047 0.83594 0.63281 0.75 0.82031 0.84766 0.55078 1.1992 0.21484 1.1016-0.17188 1.2227-0.023437 1.2227-0.074219 1.2656 0.31641 0.78125-0.72266 1.0703-0.19922 1.0586-0.09375 0.95703 0.40625 0.72266 0.80859 0.42188 0.96875 0.15234 1.0898 0.45312 0.96094 0.55078 0.85156 0.48047 0.89453 0.55859 1.082 0.72656 0.82812 0.85156 0.65234 0.35547 0.95703 0.5 1.0312 0.70703 0.70703 0.94141 0.49219 0.73438 0.81641 0.25 0.96875 0.33203 0.95312 0.41797 0.94141 0.95703 0.53906 0.21094 1.1328-0.18359 1.0508-0.046875 1.1484-0.12109 1.0625-0.52344 1.0039-0.46094 0.97266-0.14844 1.043 0.27344 0.99219-0.42969 0.91406-0.40234 0.92969 0.41406 0.94141 0.074219 1.0156 0.56641 0.91797-0.44922 0.91797-0.53125 0.85547-0.72266 0.75391-0.20312 0.98828-0.5 0.94531-0.40234 1.1016-0.98438 0.23047-0.66797 0.79297-0.37109 0.94922-0.085938 1.0273 0.074219 1.082 0.57031 0.85547 0.14062 1.0117 0.015625 1.0156-0.18359 1.0586 0.30859 1.0156 0.66406 0.98828-0.44922 0.89453 0.20703 1.0117 0.46484 0.98047 0.33984 0.97266 0.5 0.89453 1.0664 0.12109 0.79297 0.75391-0.070313 1.0117 0.55469 0.875 0.60938 0.87109 0.80469 0.71484 0.47656 0.96094 0.99219-0.12891 0.42969 1.0039-0.046875 1.0234 0.046875 1.0195 0.54297 0.90234 0.74219 0.70703 0.37109 1.0391 0.14844 1-0.10156 1.0859-0.36719 0.95312 0.56641 0.99219 0.36328 0.98047 0.39453 1.082 0.3125 0.99219 0.63672 0.89844 0.55078 0.88672 0.8125 0.61719 0.39844 0.95312 0.41406 1 0.046875 1.125-0.3125 0.97656 0.10156 1.0664 0.48828 0.98047 0.40625 1.0039 0.50391 0.91797 0.35938 0.94141 0.26172 0.98828 0.050781 1.0273-0.054687 1.0508-0.089844 1.0156 0.67188 0.74219 0.56641 0.87109 0.24219 1.0508 0.46484 0.95312-0.25391 0.99609 0.35156 0.98047-0.19141 1.0156 0.10938 1.0664-0.34766 1.0234-1.0703 0.40625-1.0312 0.625-0.73828 1.0742-0.51953 0.87109-0.77344 0.64844-1.1133-0.30469-1.0273-0.28516-1.0898 0.078125-1 0.10547-1.0391 0.34375-1.1055-0.015625-1.1133 0.22656-0.17578-1.0312-0.88281-0.95312-0.41797-1.1797-0.375-0.9375-0.84766-0.5625-0.83203-0.62891-1.3008 0.14062-0.84766 0.625-0.58594 0.86328-1.3711 0.51172-0.82422 0.64062-1.0273 0.38672-1.0273 0.085937-1.1328 0.29688-1.5977 0.17188-0.12891 1-0.49219 0.91406-0.67969 0.86328-1.0039 0.22266-1.0234 0.11328-1.0273-0.15234-0.21094-0.99219-0.27344-1.0586-0.15625-1.1133-0.54297-0.85156-0.21484-1.0352 0.125-1.1367-0.50391-0.94531-0.64453-0.78125-0.94141-0.50781-1.1406-0.38281-0.86328-0.65234 0.33594-1.0664-0.82422-0.62891-1.2188 0.21484-0.66797-0.78125-0.97656-0.58594-0.19531-1.0273 0.17969-1.0117-0.066406-1.1133-0.95703-1.0391-0.20703-0.99219-0.70703-0.77734-0.12891-1.1133 0.51172-0.89062-0.45703-1.082-1.0547-0.625-0.90234-0.58203 0.33594-1.0469-0.35547-0.99609-0.125-1.0859 0.28906-0.96484-0.51562-0.98828-0.58984-0.97656-0.87891-0.59375-0.007812-1.1445-0.78516-0.76562-0.85938-0.54297-0.98828 0.43359-0.24219-0.98438-0.27734-1.0195-0.71875-0.71875-0.6875-0.89453-0.19531-1.0156-1.0469 0.28516-1.1602-0.015625-0.27344-1.0234-0.93359-0.43359-0.16797-1.1172-0.32031-0.98828-0.78125-0.66406-0.76562-0.74219-0.58594-0.89062-0.4375-0.99609-1.0078-0.56641-0.96094-0.61328-1.0312-0.37891-0.73438 0.73047-1.0234-0.22266 0.074218-1.0156-0.625-0.86719-0.68359-0.85938-1.1914 0.19531-0.75391-0.92969-0.92188-0.76953-0.85156-0.60938-1.0273-0.14844-0.73828-0.69922-0.11719-1.0234 0.16406-1.0469-0.11328-1.0352-0.38281-1.0977-0.54297-0.84375-0.51172-0.96094-0.88672-0.61328-0.68359-0.80078-0.046875-1.0312-0.99609-0.47656-0.39062-1.2461-0.015625-1-0.25-0.98438 0.17188-1-0.49609-1.0352-0.77734-0.67969-1.1406-0.21094-1.1289-0.046875-0.33594-1.0078-0.67188-0.79297-1.0117-0.21094-0.47266-0.96094 0.25781-1.1602-0.16016-0.99219 0.98047-0.47266 0.96484-0.3125 0.89453-0.52344 0.78125-0.71484 1.0078-0.11719 1.0312-0.089844 0.125-1.043 0.33203-1.0625 0.13281-1.1016-0.30859-1.0117 0.28906-1.1406 0.09375-1.0234-0.066406-1.043 0.53906-0.92188 0.62891-0.80469 0.94141-0.91406 0.99219-0.60156 1.043-0.21484 0.97266-0.31641 1.1992-0.0625 0.95312 0.42188 1.0195 0.097656 0.37109-0.94922 0.73047-0.71094 0.51953-0.90234 1.1602 0.074219 1.1562 0.019531 0.97656-0.25391 1.1094-0.45312 1.457 0.22266 1.3438-0.046875 1.082 0.21484 0.96484-0.70703 0.46484-0.91406 0.39062-1.0156 1.293-1.1055 1.2617-0.51953 0.99609-0.28516 1.8711-0.94922-0.47656-1.0234-0.44531-1.1289 0.097656-1.1953 0.96484-0.96875 0.41797-1.3125 0.67578-1.0391 1.6328-0.36719 0.13281-1.0508-0.58594-0.83984 0.37891-1.2266 0.54297-0.87891 0.16406-1.0234-0.37109-0.98438 0.44531-0.89844z" fill="#ccc" fill-rule="evenodd"/>
<path d="m146.06 363.91 0.011719 0.054688 0.26172 1.1406 0.64453 0.87109 0.98438-0.22266 1.0156 0.0625 1.0273 0.03125 1.0938 0.023438 0.95312-0.41406 0.89062 0.47656-0.54297 0.89453-0.32422 1.0586 0.54688 0.84766-0.023438 1.1328 0.32812 0.98047 0.83594 0.63281 0.75 0.82031 0.84766 0.55078 1.1992 0.21484 1.1016-0.17188 1.2227-0.023437 1.2227-0.074219 1.2656 0.31641 0.78125-0.72266 1.0703-0.19922 1.0586-0.09375 0.95703 0.40625 0.72266 0.80859 0.42188 0.96875 0.15234 1.0898 0.45312 0.96094 0.55078 0.85156 0.48047 0.89453 0.55859 1.082 0.72656 0.82812 0.85156 0.65234 0.35547 0.95703 0.5 1.0312 0.70703 0.70703 0.94141 0.49219 0.73438 0.81641 0.25 0.96875 0.33203 0.95312 0.41797 0.94141 0.95703 0.53906 0.21094 1.1328-0.18359 1.0508-0.046875 1.1484-0.12109 1.0625-0.52344 1.0039-0.46094 0.97266-0.14844 1.043 0.27344 0.99219-0.42969 0.91406-0.40234 0.92969 0.41406 0.94141 0.074219 1.0156 0.56641 0.91797-0.44922 0.91797-0.53125 0.85547-0.72266 0.75391-0.20312 0.98828-0.5 0.94531-0.40234 1.1016-0.98438 0.23047-0.66797 0.79297-0.37109 0.94922-0.085938 1.0273 0.074219 1.082 0.57031 0.85547 0.14062 1.0117 0.015625 1.0156-0.18359 1.0586 0.30859 1.0156 0.66406 0.98828-0.44922 0.89453 0.20703 1.0117 0.46484 0.98047 0.33984 0.97266 0.5 0.89453 1.0664 0.12109 0.79297 0.75391-0.070313 1.0117 0.55469 0.875 0.60938 0.87109 0.80469 0.71484 0.47656 0.96094 0.99219-0.12891 0.42969 1.0039-0.046875 1.0234 0.046875 1.0195 0.54297 0.90234 0.74219 0.70703 0.37109 1.0391 0.14844 1-0.10156 1.0859-0.36719 0.95312 0.56641 0.99219 0.36328 0.98047 0.39453 1.082 0.3125 0.99219 0.63672 0.89844 0.55078 0.88672 0.8125 0.61719 0.39844 0.95312 0.41406 1 0.046875 1.125-0.3125 0.97656 0.10156 1.0664 0.48828 0.98047 0.40625 1.0039 0.50391 0.91797 0.35938 0.94141 0.26172 0.98828 0.050781 1.0273-0.054687 1.0508-0.089844 1.0156 0.67188 0.74219 0.56641 0.87109 0.24219 1.0508 0.46484 0.95312-0.25391 0.99609 0.35156 0.98047-0.19141 1.0156 0.10938 1.0664-0.34766 1.0234-1.0703 0.40625-1.0312 0.625-0.73828 1.0742-0.51953 0.87109-0.77344 0.64844-1.1133-0.30469-1.0273-0.28516-1.0898 0.078125-1 0.10547-1.0391 0.34375-1.1055-0.015625-1.1133 0.22656-0.17578-1.0312-0.88281-0.95312-0.41797-1.1797-0.375-0.9375-0.84766-0.5625-0.83203-0.62891-1.3008 0.14062-0.84766 0.625-0.58594 0.86328-1.3711 0.51172-0.82422 0.64062-1.0273 0.38672-1.0273 0.085937-1.1328 0.29688-1.5977 0.17188-0.12891 1-0.49219 0.91406-0.67969 0.86328-1.0039 0.22266-1.0234 0.11328-1.0273-0.15234-0.21094-0.99219-0.27344-1.0586-0.15625-1.1133-0.54297-0.85156-0.21484-1.0352 0.125-1.1367-0.50391-0.94531-0.64453-0.78125-0.94141-0.50781-1.1406-0.38281-0.86328-0.65234 0.33594-1.0664-0.82422-0.62891-1.2188 0.21484-0.66797-0.78125-0.97656-0.58594-0.19531-1.0273 0.17969-1.0117-0.066406-1.1133-0.95703-1.0391-0.20703-0.99219-0.70703-0.77734-0.12891-1.1133 0.51172-0.89062-0.45703-1.082-1.0547-0.625-0.90234-0.58203 0.33594-1.0469-0.35547-0.99609-0.125-1.0859 0.28906-0.96484-0.51562-0.98828-0.58984-0.97656-0.87891-0.59375-0.007812-1.1445-0.78516-0.76562-0.85938-0.54297-0.98828 0.43359-0.24219-0.98438-0.27734-1.0195-0.71875-0.71875-0.6875-0.89453-0.19531-1.0156-1.0469 0.28516-1.1602-0.015625-0.27344-1.0234-0.93359-0.43359-0.16797-1.1172-0.32031-0.98828-0.78125-0.66406-0.76562-0.74219-0.58594-0.89062-0.4375-0.99609-1.0078-0.56641-0.96094-0.61328-1.0312-0.37891-0.73438 0.73047-1.0234-0.22266 0.074218-1.0156-0.625-0.86719-0.68359-0.85938-1.1914 0.19531-0.75391-0.92969-0.92188-0.76953-0.85156-0.60938-1.0273-0.14844-0.73828-0.69922-0.11719-1.0234 0.16406-1.0469-0.11328-1.0352-0.38281-1.0977-0.54297-0.84375-0.51172-0.96094-0.88672-0.61328-0.68359-0.80078-0.046875-1.0312-0.99609-0.47656-0.39062-1.2461-0.015625-1-0.25-0.98438 0.17188-1-0.49609-1.0352-0.77734-0.67969-1.1406-0.21094-1.1289-0.046875-0.33594-1.0078-0.67188-0.79297-1.0117-0.21094-0.47266-0.96094 0.25781-1.1602-0.16016-0.99219 0.98047-0.47266 0.96484-0.3125 0.89453-0.52344 0.78125-0.71484 1.0078-0.11719 1.0312-0.089844 0.125-1.043 0.33203-1.0625 0.13281-1.1016-0.30859-1.0117 0.28906-1.1406 0.09375-1.0234-0.066406-1.043 0.53906-0.92188 0.62891-0.80469 0.94141-0.91406 0.99219-0.60156 1.043-0.21484 0.97266-0.31641 1.1992-0.0625 0.95312 0.42188 1.0195 0.097656 0.37109-0.94922 0.73047-0.71094 0.51953-0.90234 1.1602 0.074219 1.1562 0.019531 0.97656-0.25391 1.1094-0.45312 1.457 0.22266 1.3438-0.046875 1.082 0.21484 0.96484-0.70703 0.46484-0.91406 0.39062-1.0156 1.293-1.1055 1.2617-0.51953 0.99609-0.28516 1.8711-0.94922-0.47656-1.0234-0.44531-1.1289 0.097656-1.1953 0.96484-0.96875 0.41797-1.3125 0.67578-1.0391 1.6328-0.36719 0.13281-1.0508-0.58594-0.83984 0.37891-1.2266 0.54297-0.87891 0.16406-1.0234-0.37109-0.98438 0.44531-0.89844 0.67969-0.22656" fill="none" stroke="#fff" stroke-linecap="round" stroke-linejoin="round" stroke-miterlimit="10" stroke-width="2"/>
<path d="m231.59 382.16 0.082031 0.011719 0.78125 0.71484 0.68359 0.75781 0.37891-1.2461 0.93359-0.78125 0.011718-1.0742 1.043-0.21875 1.0664-0.070313 0.89844 0.50781 0.50781 1.3203 0.50391 1.0508 0.8125 0.625-0.13672 1.0938 0.41797 1.0469 1.2031-0.55469 1.1211-0.34375 0.65625 0.90234 0.52344 0.90234 0.42578 1.4414 0.30469 1.1992 0.86328 0.64844 1.2188 0.24609 1.125 0.67969 0.94922 0.60938 0.88281 0.64453 1.3242 0.26172 1.1484 0.375 0.73047 0.75 0.92188-0.42188 1.3828 0.070313 1.0195-0.10938 0.89453 0.96484 0.90625 0.46484 0.94141-0.44531 1.1055 0.058594 0.43359 0.92969 0.92188 0.80859 0.55469 1.1094 0.69922 1.2461-0.90625 0.78125-1.1328 0.83594 0.38672 1.0391 0.36328 1.2266 0.55078 1.0664 0.74609 0.85156 0.58984 0.89844 0.85156 0.74219 1.1953 0.74609 1.0391 0.59766 0.4375 0.94141-0.13672 1 1.1875 0.46484 0.72656 0.76953 0.54297 0.84766 0.68359 0.73438 0.91016 0.65625 0.46484 0.97656 0.089844 1.418 0.10156 1.0977-0.5 1.0195-0.67188 1.1914-0.30859 0.97266-0.60938 0.79688-0.31641 1.0703-0.83984 0.82422-0.625 1.1758-0.97656 0.36719-0.99609-0.27734-1.2461 0.1875-1.1055-0.066406-0.99219-0.46875-1.0391 0.23047-0.95312 0.35938-0.39844-1-0.625-0.85547-0.53906-0.92578-0.83984-0.72266-0.20312-1.1758-0.56641-0.89844-1.0703-0.007812-0.49609-1.0273-1.1445 0.20312-1.3398-0.18359-0.87109 0.50781 0.015625 1.0234 0.21484 1.1289 0.31641 1.1523 0.17578 1.082 0.15234 1.1172 0.55859 0.99609 0.058593 1.4453 0.22266 1.3594-1.043 0.80859-0.94922 0.96875-0.92578 0.41797-0.42969 1.082-0.31641 1.0586-0.25781 1.25-0.74609 0.89844-1.0156 0.48047-0.90234 0.63672-0.26953 1.0234-0.42578 1.1992 0.12891 1.5195-0.24609 1.5273-0.35547 1.0273-0.23828 0.97656-0.52734 1.1406-0.32031 0.94922-0.49219 0.99609-0.75391 1.0664-0.86719 0.74609-1.0352 0.20312-1.0703 0.066406-0.75781 0.76562-0.32031 1.2148-0.625 1.2773-0.21484 1.0195-0.95312 0.36719-1.2695-0.19531-1.5039-0.019531-1.4023 0.0625-0.20312 1.5312 0.67969 1.0703 0.48438 0.98828 0.67969 0.98828 1.2383 0.45312 0.69141 0.77734 0.042969 1.4102 0.95312 1.0273 0.32031 0.96875 0.88672 0.99609 0.33203 0.94922-0.074219 1.168-1.2578 0.33594-0.63672 1.125-0.33594 1.3047-0.95703-0.53516-0.60938-0.94531-0.79688-0.93359-1.1133-0.33984-1.0195-0.40625-0.72656-0.93359-0.83984-0.94531-0.95312-0.53516-1.0469 0.28125-1.2539 0.14062-1.0586-0.57812-0.96875-0.48047-0.99609 0.17578-0.98047-0.44141-0.98047 0.53516-1.25-0.0625-1.3164-0.20703-1.0977-0.11719-0.66406-1.1914-0.80078-0.89453-0.40234-1.1289-0.5-0.875-0.89453-0.55859-1.1211-0.14062-0.79688-0.62891-0.91797-0.66406-0.67969-0.92578-0.99219-0.42969-1.0117-0.019532-1.043-0.125-1.1055-0.53125-0.96484-0.48438-1.1875-0.007812-0.74609-0.76953-0.46484-0.90234-0.31641-1.3672-1.4414-0.16797-1.0352 0.27734-0.80859 0.62891-1.0352-0.42578-1-0.37109-0.21875-1.0078 0.20703-1.1016-1.0039-0.45703-0.97656-0.67969-0.35547-0.96094 0.035156-1.1328-0.39062-1.1406 0.027344-1.0039-0.19531-1.7148 0.12109-1.0898-0.054688-1.2461-0.60156-1.5312-0.24609-1.0703 0.51953-1.3086-0.65625-1-0.75-0.96094-0.16797-1.0742 0.23047-1.082-0.19922-1.0273-0.44141-0.98828-0.11719-1 0.4375-1.1641 0.67969-0.91406 1.1953-0.77734 0.94922-1.0938 0.9375-0.58203 1.0039-0.16797-0.23828-0.97656 0.058593-1.0742 0.66016-0.82031 0.96094-0.30859 1.0586 0.085938 1.0547 0.046875 1.1719 0.40625 0.64453-0.82031 1.2891-0.53906 0.76953-0.70312 1.0312-0.44141 0.99609-0.56641 0.75781-0.84766 0.32031-1.5117 0.10156-1.0859 0.63281-0.85156 0.96484 0.72266 0.97656 0.44141 0.67578 0.77344 0.71875 0.74609 1.0625 0.17578 0.99219 0.26562 0.93359 0.35938 0.99609-0.57812 0.99609-0.69531 0.88281-0.80078 0.72656-1.2227 0.33984-0.94531 0.30469-1.0781 0.64062-0.88281-0.28906-1.0664 0.72656-1.2148 0.39453-0.95312 0.71484-0.99609 0.90625-0.53906 0.83594-0.62891 0.85547-0.91797 0.71875-0.80859 0.54688-0.97656 1.1016-0.49219 0.8125-0.67578-0.64844-0.82422-0.71875-1.0508-0.89453-0.51172-0.65234-0.875-0.92188-0.5625 0.31641-1.0273-0.050781-1.6133-0.69922-1.0781-0.76953-0.67969 0.054687-1.0977 0.097657-1.5898 0.20312-0.98047-1.1641-0.42188-0.86328-0.57422-1.0156-1.4258-0.23828-1.0039 1.7461-0.73828 0.37109-1.0469 0.66406-1.0039 0.55469-0.90234 1.0078-0.28906 1.0312-0.13672 0.375-0.95703-0.070313-1.25 0.75391-0.91797 0.88672-0.5 0.375 1.0508 0.4375 0.94141 0.64062 0.89062 0.89844 0.84766 0.45312 1.1055 0.59375 0.83594z" fill="#ccc" fill-rule="evenodd"/>
<path d="m231.59 382.16 0.082031 0.011719 0.78125 0.71484 0.68359 0.75781 0.37891-1.2461 0.93359-0.78125 0.011718-1.0742 1.043-0.21875 1.0664-0.070313 0.89844 0.50781 0.50781 1.3203 0.50391 1.0508 0.8125 0.625-0.13672 1.0938 0.41797 1.0469 1.2031-0.55469 1.1211-0.34375 0.65625 0.90234 0.52344 0.90234 0.42578 1.4414 0.30469 1.1992 0.86328 0.64844 1.2188 0.24609 1.125 0.67969 0.94922 0.60938 0.88281 0.64453 1.3242 0.26172 1.1484 0.375 0.73047 0.75 0.92188-0.42188 1.3828 0.070313 1.0195-0.10938 0.89453 0.96484 0.90625 0.46484 0.94141-0.44531 1.1055 0.058594 0.43359 0.92969 0.92188 0.80859 0.55469 1.1094 0.69922 1.2461-0.90625 0.78125-1.1328 0.83594 0.38672 1.0391 0.36328 1.2266 0.55078 1.0664 0.74609 0.85156 0.58984 0.89844 0.85156 0.74219 1.1953 0.74609 1.0391 0.59766 0.4375 0.94141-0.13672 1 1.1875 0.46484 0.72656 0.76953 0.54297 0.84766 0.68359 0.73438 0.91016 0.65625 0.46484 0.97656 0.089844 1.418 0.10156 1.0977-0.5 1.0195-0.67188 1.1914-0.30859 0.97266-0.60938 0.79688-0.31641 1.0703-0.83984 0.82422-0.625 1.1758-0.97656 0.36719-0.99609-0.27734-1.2461 0.1875-1.1055-0.066406-0.99219-0.46875-1.0391 0.23047-0.95312 0.35938-0.39844-1-0.625-0.85547-0.53906-0.92578-0.83984-0.72266-0.20312-1.1758-0.56641-0.89844-1.0703-0.007812-0.49609-1.0273-1.1445 0.20312-1.3398-0.18359-0.87109 0.50781 0.015625 1.0234 0.21484 1.1289 0.31641 1.1523 0.17578 1.082 0.15234 1.1172 0.55859 0.99609 0.058593 1.4453 0.22266 1.3594-1.043 0.80859-0.94922 0.96875-0.92578 0.41797-0.42969 1.082-0.31641 1.0586-0.25781 1.25-0.74609 0.89844-1.0156 0.48047-0.90234 0.63672-0.26953 1.0234-0.42578 1.1992 0.12891 1.5195-0.24609 1.5273-0.35547 1.0273-0.23828 0.97656-0.52734 1.1406-0.32031 0.94922-0.49219 0.99609-0.75391 1.0664-0.86719 0.74609-1.0352 0.20312-1.0703 0.066406-0.75781 0.76562-0.32031 1.2148-0.625 1.2773-0.21484 1.0195-0.95312 0.36719-1.2695-0.19531-1.5039-0.019531-1.4023 0.0625-0.20312 1.5312 0.67969 1.0703 0.48438 0.98828 0.67969 0.98828 1.2383 0.45312 0.69141 0.77734 0.042969 1.4102 0.95312 1.0273 0.32031 0.96875 0.88672 0.99609 0.33203 0.94922-0.074219 1.168-1.2578 0.33594-0.63672 1.125-0.33594 1.3047-0.95703-0.53516-0.60938-0.94531-0.79688-0.93359-1.1133-0.33984-1.0195-0.40625-0.72656-0.93359-0.83984-0.94531-0.95312-0.53516-1.0469 0.28125-1.2539 0.14062-1.0586-0.57812-0.96875-0.48047-0.99609 0.17578-0.98047-0.44141-0.98047 0.53516-1.25-0.0625-1.3164-0.20703-1.0977-0.11719-0.66406-1.1914-0.80078-0.89453-0.40234-1.1289-0.5-0.875-0.89453-0.55859-1.1211-0.14062-0.79688-0.62891-0.91797-0.66406-0.67969-0.92578-0.99219-0.42969-1.0117-0.019532-1.043-0.125-1.1055-0.53125-0.96484-0.48438-1.1875-0.007812-0.74609-0.76953-0.46484-0.90234-0.31641-1.3672-1.4414-0.16797-1.0352 0.27734-0.80859 0.62891-1.0352-0.42578-1-0.37109-0.21875-1.0078 0.20703-1.1016-1.0039-0.45703-0.97656-0.67969-0.35547-0.96094 0.035156-1.1328-0.39062-1.1406 0.027344-1.0039-0.19531-1.7148 0.12109-1.0898-0.054688-1.2461-0.60156-1.5312-0.24609-1.0703 0.51953-1.3086-0.65625-1-0.75-0.96094-0.16797-1.0742 0.23047-1.082-0.19922-1.0273-0.44141-0.98828-0.11719-1 0.4375-1.1641 0.67969-0.91406 1.1953-0.77734 0.94922-1.0938 0.9375-0.58203 1.0039-0.16797-0.23828-0.97656 0.058593-1.0742 0.66016-0.82031 0.96094-0.30859 1.0586 0.085938 1.0547 0.046875 1.1719 0.40625 0.64453-0.82031 1.2891-0.53906 0.76953-0.70312 1.0312-0.44141 0.99609-0.56641 0.75781-0.84766 0.32031-1.5117 0.10156-1.0859 0.63281-0.85156 0.96484 0.72266 0.97656 0.44141 0.67578 0.77344 0.71875 0.74609 1.0625 0.17578 0.99219 0.26562 0.93359 0.35938 0.99609-0.57812 0.99609-0.69531 0.88281-0.80078 0.72656-1.2227 0.33984-0.94531 0.30469-1.0781 0.64062-0.88281-0.28906-1.0664 0.72656-1.2148 0.39453-0.95312 0.71484-0.99609 0.90625-0.53906 0.83594-0.62891 0.85547-0.91797 0.71875-0.80859 0.54688-0.97656 1.1016-0.49219 0.8125-0.67578-0.64844-0.82422-0.71875-1.0508-0.89453-0.51172-0.65234-0.875-0.92188-0.5625 0.31641-1.0273-0.050781-1.6133-0.69922-1.0781-0.76953-0.67969 0.054687-1.0977 0.097657-1.5898 0.20312-0.98047-1.1641-0.42188-0.86328-0.57422-1.0156-1.4258-0.23828-1.0039 1.7461-0.73828 0.37109-1.0469 0.66406-1.0039 0.55469-0.90234 1.0078-0.28906 1.0312-0.13672 0.375-0.95703-0.070313-1.25 0.75391-0.91797 0.88672-0.5 0.375 1.0508 0.4375 0.94141 0.64062 0.89062 0.89844 0.84766 0.45312 1.1055 0.59375 0.83594 0.29688 0.59375" fill="none" stroke="#fff" stroke-linecap="round" stroke-linejoin="round" stroke-miterlimit="10" stroke-width="2"/>
<path d="m150.71 296.42v0.22266l0.54688 1.082 0.41016 1.0234 0.44141 0.92188 0.44922 0.99219 0.11328 1.1094 0.8125 0.61328 1.1953 0.17578 1.1992 0.14062 0.47266-1.0273-0.60938-0.80078-0.12891-1.4766 0.23828-1.1289 1.0898-0.43359 1.668-0.67188 0.96875-0.33984 1.1133 0.35938 0.64453 0.78906 1.0312 0.73438 0.60547 0.83984 0.97656 0.78906 1.3164 0.18359 1.1719-0.30078 1.1172 0.51172 0.47266 1.3125-0.14844 1.0312 1.0664 0.64453 0.81641 0.85547 0.19922 1.0039-0.0625 1.082 0.32031 1.0078 0.64062 1.0039-0.097656 1.2578-0.15625 1.5508-0.003906 1.0508-1-0.29297-1.1016 0.75-1.3828 0.68359-0.93359 0.45703-0.91406 0.5-1.1406 0.23828-0.51953 0.86719 0.53906 0.875-0.40234 0.93359-0.11719 1.043 0.082031 1.0352 0.16406 1.0156-0.050781 1.0156 0.17578 1.0078-0.42969 0.90234-0.83984 0.60156-0.60156 0.87109-0.6875 0.80078-0.53516 0.88672-0.36719 1.1289-0.6875 1.082-0.76562 1.1719-0.78906 1.2305-1.2617 1.9766-0.69531 1.1133-1.3555 2.1133-0.58984 0.91797-0.55078 0.88672-1.3281 2.0898-1.3438 2.0977-0.67188 1.0508-0.83594 1.2852 0.90625 0.86328 0.76172 0.90625 1.207 0.38281-0.027344 1.0234-0.55859 0.85938-0.41797 0.93359-0.55859 0.91406-0.53906 0.86719-0.37891 1.0117-0.25781 1.043 0.27344 1.0352 0.10547 1.0391-0.69531 0.76562-0.003906 1.0391-0.62109 0.85938-0.67969 0.74609-0.65625 0.79297-0.039063 1.1055-0.34375 0.94531-0.92969 0.61719-0.32031 0.97266-0.69531 0.73047-0.23828 0.98828 0.33594 0.95312-0.30859 1.0039-0.58984 0.94531 0.17969 1.4922 0.74609 0.83984-1.4844 0.60156-1.1211 0.82031-0.53516 1.0469-0.41406 1.1133-0.97266 1.0703 0.26172 1.0586 0.37891 1.0977-0.73438 1.3086-1.1719 0.44141-1 0.30469-1.5234 0.92188-0.6875 0.75391-0.4375 1.0625-0.56641 0.84766-0.91797 0.60938-1.4102-0.25781-1.3516-0.0625-1.2656 0.003906-1.1719 0.49609-1.1094 0.12891-1.1484 0.035156-1.0938 0.36719-0.66016 0.98047-0.31641 0.95312-1.0898 0.097656-1.0977-0.50391-1.0312 0.054687-1 0.26172-1.043 0.23047-0.92969 0.375-0.83594 0.92969-0.78906 0.72266-0.66797 1.0586 0.046875 1.2461-0.09375 1.0234-0.49609 0.98828 0.37109 0.92969 0.10156 1.1523-0.45312 0.98047 0.019532 1.0703-0.97266 0.28906-1.0234 0.17188-0.84375 0.59766-0.98828 0.625-0.96484 0.3125-0.88672 0.46484-0.96875-0.37891-0.61328-0.87891-0.87891-0.66406-0.37891-1.043-0.94531-0.70703-0.73828-0.67578-0.85547-0.61719-0.61328-0.85938-0.85156-0.79297-0.75391-0.875 0.16406-0.98828-0.38672-1.0898-0.94531-0.52344-1.0391-0.32422-0.10156-1.0352-0.35156-0.97266-1.0742-0.28516-0.28906-0.96094-0.70312-0.74609-1.1602 0.15234-1.293-0.11719-1.0742 0.039063-1.1211-0.19531-1.1055 0.50391-1.1914 0.33594-1.0312 0.12109-1.1211-0.27344-1.1133-1.0352-0.6875-1.125-0.83203-0.72656 0.035156-1.1758-0.16406-1.0508 0.019532-1.1211-0.10547-1.0469-1.0234-0.6875-0.71484-0.96875-0.25391-1.0547-0.46875-0.92969-0.76953-0.83594-0.28906-1.2578-0.89453-0.59766-0.92969-0.72656-0.69141-0.89062-0.042969-1.2227-0.51172-0.90625-0.52734-0.98828-0.24219-1-0.62891-0.94922-0.96484-0.48438-0.23047-1.0898-0.59766-0.96875-0.70703-0.82422 0.40625-1.0508 0.050781-1.0781-0.63672-0.92188 0.12891-1.1992-0.25781-1.2578-0.43359-0.90234-0.92969-0.52734-0.11328-1.1016 0.21875-0.98828 0.40625-1.1992 0.16797-1.2812 0.41016-1.0898 0.57812-0.89844 0.42969-0.94141 0.003906-1.0352 0.066406-1.0898 0.46875-0.95312 1.0469-0.41406 1.1133-0.35938 1.168-0.32812 1.0547-0.32422 0.015625-1.0703-0.36328-1.0586-1.2695-0.0625-0.89453-0.5625-1.0586-0.60547-0.52734-1.1406 0.69531-0.82031 1.3945-0.78516 1.2148-0.58594 1.0898-0.71094 0.29688-1.0547 0.21094-1.1133 0.75781-0.95312 0.71484-0.8125 1.0508-0.39062 0.67188-1.0625 0.23047-1.2109 0.85547-0.66406 0.78906-0.875-0.070313-1.2031 0.30469-1.0469 0.63672-0.78125 0.59375-1.0664 0.24609-0.99609 0.9375-0.58984-0.046875-1.0195 0.47266-0.91406 0.94141-0.46484 0.88281-0.70312 1.2344-0.21094 0.42969 0.94922-0.77734 0.64844 0.42578 0.98047-0.070312 1.0547-1.0195 0.32031 0.21484 1.0703-0.20703 1.0703 1.0078 0.14844-0.84375 0.63281 0.13672 1.0234 1.0078 0.32422 1.0039 0.097657 0.55859 0.83984-0.61719 0.94531-1.0039 0.20312-0.84375 0.72266 0.42578 0.97266-0.23438 1.0117 0.79688 0.88672 0.96484-0.51953 1.0195 0.054687 1.0078-0.007812 0.51172 0.92969 0.96094 0.38281 0.45312 0.94922 0.80078 0.68359 0.30469 1.168 0.98828 0.21875-0.67578 0.78906 0.73828 0.6875 0.99609 0.38672 0.94141 0.59766 0.97266 0.55078 0.70312 0.73438 0.83984 0.56641 0.47656 0.98047 0.40625 0.97266 0.95703-0.3125 0.80859-0.66406 0.77344-0.73047 0.71484-0.70312 0.99219-0.70703 0.94141-1.1289 0.92578-0.82422 0.13672-1.0859 0.21484-1.0234 0.79688-1.293 0.86719-1.2578 0.46094-1.0742 0.97266-0.48438 0.67188-0.89062 0.69922-0.85547 1.7305-0.097657 1.1797-0.23828 1.1484-0.23047 1.1211-0.19141 0.99609-0.32031 0.19141-1.4375 0.24609-1.1445-0.55859-0.83594-0.0625-1.125-0.46484-0.91016-0.44141-0.97656 0.13672-1.168-0.32031-1.1289-0.78906-0.92188 0.83594-0.55859 0.65234-1.1094 0.44141-1.125 0.60547-0.98047 0.69922-0.75781 0.19141-1.1523-0.45703-0.98828 1.5117-0.62891 1.25-0.16016 1.0703-0.88281 1.0742-0.035156 1.4492 0.15234 1.1641-0.070313 1.0195-0.29297 0.96484-0.82031 0.47656-1.0664 0.054688-1.0195 0.5625-0.90234 0.69922-0.76172 1.3086-0.71875 0.96484-0.75 0.96875-0.55469 0.70312-0.91016 1.0273-0.55469 0.58594-1.2266 1.4453-1.2773 0.20703-1.0703 0.26562-1.0117 0.625-0.78906 0.85938-0.57031 0.24219-1.1602-0.16016-1.0078 3.2188-1.6133 0.85938 0.53906 0.64844 0.89844 0.6875 1.2422 0.67969 0.77344z" fill="#ccc" fill-rule="evenodd"/>
<path d="m150.71 296.42v0.22266l0.54688 1.082 0.41016 1.0234 0.44141 0.92188 0.44922 0.99219 0.11328 1.1094 0.8125 0.61328 1.1953 0.17578 1.1992 0.14062 0.47266-1.0273-0.60938-0.80078-0.12891-1.4766 0.23828-1.1289 1.0898-0.43359 1.668-0.67188 0.96875-0.33984 1.1133 0.35938 0.64453 0.78906 1.0312 0.73438 0.60547 0.83984 0.97656 0.78906 1.3164 0.18359 1.1719-0.30078 1.1172 0.51172 0.47266 1.3125-0.14844 1.0312 1.0664 0.64453 0.81641 0.85547 0.19922 1.0039-0.0625 1.082 0.32031 1.0078 0.64062 1.0039-0.097656 1.2578-0.15625 1.5508-0.003906 1.0508-1-0.29297-1.1016 0.75-1.3828 0.68359-0.93359 0.45703-0.91406 0.5-1.1406 0.23828-0.51953 0.86719 0.53906 0.875-0.40234 0.93359-0.11719 1.043 0.082031 1.0352 0.16406 1.0156-0.050781 1.0156 0.17578 1.0078-0.42969 0.90234-0.83984 0.60156-0.60156 0.87109-0.6875 0.80078-0.53516 0.88672-0.36719 1.1289-0.6875 1.082-0.76562 1.1719-0.78906 1.2305-1.2617 1.9766-0.69531 1.1133-1.3555 2.1133-0.58984 0.91797-0.55078 0.88672-1.3281 2.0898-1.3438 2.0977-0.67188 1.0508-0.83594 1.2852 0.90625 0.86328 0.76172 0.90625 1.207 0.38281-0.027344 1.0234-0.55859 0.85938-0.41797 0.93359-0.55859 0.91406-0.53906 0.86719-0.37891 1.0117-0.25781 1.043 0.27344 1.0352 0.10547 1.0391-0.69531 0.76562-0.003906 1.0391-0.62109 0.85938-0.67969 0.74609-0.65625 0.79297-0.039063 1.1055-0.34375 0.94531-0.92969 0.61719-0.32031 0.97266-0.69531 0.73047-0.23828 0.98828 0.33594 0.95312-0.30859 1.0039-0.58984 0.94531 0.17969 1.4922 0.74609 0.83984-1.4844 0.60156-1.1211 0.82031-0.53516 1.0469-0.41406 1.1133-0.97266 1.0703 0.26172 1.0586 0.37891 1.0977-0.73438 1.3086-1.1719 0.44141-1 0.30469-1.5234 0.92188-0.6875 0.75391-0.4375 1.0625-0.56641 0.84766-0.91797 0.60938-1.4102-0.25781-1.3516-0.0625-1.2656 0.003906-1.1719 0.49609-1.1094 0.12891-1.1484 0.035156-1.0938 0.36719-0.66016 0.98047-0.31641 0.95312-1.0898 0.097656-1.0977-0.50391-1.0312 0.054687-1 0.26172-1.043 0.23047-0.92969 0.375-0.83594 0.92969-0.78906 0.72266-0.66797 1.0586 0.046875 1.2461-0.09375 1.0234-0.49609 0.98828 0.37109 0.92969 0.10156 1.1523-0.45312 0.98047 0.019532 1.0703-0.97266 0.28906-1.0234 0.17188-0.84375 0.59766-0.98828 0.625-0.96484 0.3125-0.88672 0.46484-0.96875-0.37891-0.61328-0.87891-0.87891-0.66406-0.37891-1.043-0.94531-0.70703-0.73828-0.67578-0.85547-0.61719-0.61328-0.85938-0.85156-0.79297-0.75391-0.875 0.16406-0.98828-0.38672-1.0898-0.94531-0.52344-1.0391-0.32422-0.10156-1.0352-0.35156-0.97266-1.0742-0.28516-0.28906-0.96094-0.70312-0.74609-1.1602 0.15234-1.293-0.11719-1.0742 0.039063-1.1211-0.19531-1.1055 0.50391-1.1914 0.33594-1.0312 0.12109-1.1211-0.27344-1.1133-1.0352-0.6875-1.125-0.83203-0.72656 0.035156-1.1758-0.16406-1.0508 0.019532-1.1211-0.10547-1.0469-1.0234-0.6875-0.71484-0.96875-0.25391-1.0547-0.46875-0.92969-0.76953-0.83594-0.28906-1.2578-0.89453-0.59766-0.92969-0.72656-0.69141-0.89062-0.042969-1.2227-0.51172-0.90625-0.52734-0.98828-0.24219-1-0.62891-0.94922-0.96484-0.48438-0.23047-1.0898-0.59766-0.96875-0.70703-0.82422 0.40625-1.0508 0.050781-1.0781-0.63672-0.92188 0.12891-1.1992-0.25781-1.2578-0.43359-0.90234-0.92969-0.52734-0.11328-1.1016 0.21875-0.98828 0.40625-1.1992 0.16797-1.2812 0.41016-1.0898 0.57812-0.89844 0.42969-0.94141 0.003906-1.0352 0.066406-1.0898 0.46875-0.95312 1.0469-0.41406 1.1133-0.35938 1.168-0.32812 1.0547-0.32422 0.015625-1.0703-0.36328-1.0586-1.2695-0.0625-0.89453-0.5625-1.0586-0.60547-0.52734-1.1406 0.69531-0.82031 1.3945-0.78516 1.2148-0.58594 1.0898-0.71094 0.29688-1.0547 0.21094-1.1133 0.75781-0.95312 0.71484-0.8125 1.0508-0.39062 0.67188-1.0625 0.23047-1.2109 0.85547-0.66406 0.78906-0.875-0.070313-1.2031 0.30469-1.0469 0.63672-0.78125 0.59375-1.0664 0.24609-0.99609 0.9375-0.58984-0.046875-1.0195 0.47266-0.91406 0.94141-0.46484 0.88281-0.70312 1.2344-0.21094 0.42969 0.94922-0.77734 0.64844 0.42578 0.98047-0.070312 1.0547-1.0195 0.32031 0.21484 1.0703-0.20703 1.0703 1.0078 0.14844-0.84375 0.63281 0.13672 1.0234 1.0078 0.32422 1.0039 0.097657 0.55859 0.83984-0.61719 0.94531-1.0039 0.20312-0.84375 0.72266 0.42578 0.97266-0.23438 1.0117 0.79688 0.88672 0.96484-0.51953 1.0195 0.054687 1.0078-0.007812 0.51172 0.92969 0.96094 0.38281 0.45312 0.94922 0.80078 0.68359 0.30469 1.168 0.98828 0.21875-0.67578 0.78906 0.73828 0.6875 0.99609 0.38672 0.94141 0.59766 0.97266 0.55078 0.70312 0.73438 0.83984 0.56641 0.47656 0.98047 0.40625 0.97266 0.95703-0.3125 0.80859-0.66406 0.77344-0.73047 0.71484-0.70312 0.99219-0.70703 0.94141-1.1289 0.92578-0.82422 0.13672-1.0859 0.21484-1.0234 0.79688-1.293 0.86719-1.2578 0.46094-1.0742 0.97266-0.48438 0.67188-0.89062 0.69922-0.85547 1.7305-0.097657 1.1797-0.23828 1.1484-0.23047 1.1211-0.19141 0.99609-0.32031 0.19141-1.4375 0.24609-1.1445-0.55859-0.83594-0.0625-1.125-0.46484-0.91016-0.44141-0.97656 0.13672-1.168-0.32031-1.1289-0.78906-0.92188 0.83594-0.55859 0.65234-1.1094 0.44141-1.125 0.60547-0.98047 0.69922-0.75781 0.19141-1.1523-0.45703-0.98828 1.5117-0.62891 1.25-0.16016 1.0703-0.88281 1.0742-0.035156 1.4492 0.15234 1.1641-0.070313 1.0195-0.29297 0.96484-0.82031 0.47656-1.0664 0.054688-1.0195 0.5625-0.90234 0.69922-0.76172 1.3086-0.71875 0.96484-0.75 0.96875-0.55469 0.70312-0.91016 1.0273-0.55469 0.58594-1.2266 1.4453-1.2773 0.20703-1.0703 0.26562-1.0117 0.625-0.78906 0.85938-0.57031 0.24219-1.1602-0.16016-1.0078 3.2188-1.6133 0.85938 0.53906 0.64844 0.89844 0.6875 1.2422 0.67969 0.77344 0.66406 0.74609" fill="none" stroke="#fff" stroke-linecap="round" stroke-linejoin="round" stroke-miterlimit="10" stroke-width="2"/>
<path d="m146.06 363.91 0.011719 0.054688 0.26172 1.1406 0.64453 0.87109 0.98438-0.22266 1.0156 0.0625 1.0273 0.03125 1.0938 0.023438 0.95312-0.41406 0.89062 0.47656-0.54297 0.89453-0.32422 1.0586 0.54688 0.84766-0.023438 1.1328 0.32812 0.98047 0.83594 0.63281 0.75 0.82031 0.84766 0.55078 1.1992 0.21484 1.1016-0.17188 1.2227-0.023437 1.2227-0.074219 1.2656 0.31641 0.78125-0.72266 1.0703-0.19922 1.0586-0.09375 0.95703 0.40625 0.72266 0.80859 0.42188 0.96875 0.15234 1.0898 0.45312 0.96094 0.55078 0.85156 0.48047 0.89453 0.55859 1.082 0.72656 0.82812 0.85156 0.65234 0.35547 0.95703 0.5 1.0312 0.70703 0.70703 0.94141 0.49219 0.73438 0.81641 0.25 0.96875 0.33203 0.95312 0.41797 0.94141 0.95703 0.53906 0.21094 1.1328-0.18359 1.0508-0.046875 1.1484-0.12109 1.0625-0.52344 1.0039-0.46094 0.97266-0.14844 1.043 0.27344 0.99219-0.42969 0.91406-0.40234 0.92969 0.41406 0.94141 0.074219 1.0156 0.56641 0.91797-0.44922 0.91797-0.53125 0.85547-0.72266 0.75391-0.20312 0.98828-0.5 0.94531-0.40234 1.1016-0.98438 0.23047-0.66797 0.79297-0.37109 0.94922-0.085938 1.0273 0.074219 1.082 0.57031 0.85547 0.14062 1.0117 0.015625 1.0156-0.18359 1.0586 0.30859 1.0156 0.66406 0.98828-0.44922 0.89453 0.20703 1.0117 0.46484 0.98047 0.33984 0.97266 0.5 0.89453 1.0664 0.12109 0.79297 0.75391-0.070313 1.0117 0.55469 0.875 0.60938 0.87109 0.80469 0.71484 0.47656 0.96094 0.99219-0.12891 0.42969 1.0039-0.046875 1.0234 0.046875 1.0195 0.54297 0.90234 0.74219 0.70703 0.37109 1.0391 0.14844 1-0.10156 1.0859-0.36719 0.95312 0.56641 0.99219 0.36328 0.98047 0.39453 1.082 0.3125 0.99219 0.63672 0.89844 0.55078 0.88672 0.8125 0.61719 0.39844 0.95312 0.41406 1 0.046875 1.125-0.3125 0.97656 0.10156 1.0664 0.48828 0.98047 0.40625 1.0039 0.50391 0.91797 0.35938 0.94141 0.26172 0.98828 0.050781 1.0273-0.054687 1.0508-0.089844 1.0156 0.67188 0.74219 0.56641 0.87109 0.24219 1.0508 0.46484 0.95312-0.25391 0.99609 0.35156 0.98047-0.19141 1.0156 0.10938 1.0664-0.34766 1.0234-1.0703 0.40625-1.0312 0.625-0.73828 1.0742-0.51953 0.87109-0.77344 0.64844-1.1133-0.30469-1.0273-0.28516-1.0898 0.078125-1 0.10547-1.0391 0.34375-1.1055-0.015625-1.1133 0.22656-0.17578-1.0312-0.88281-0.95312-0.41797-1.1797-0.375-0.9375-0.84766-0.5625-0.83203-0.62891-1.3008 0.14062-0.84766 0.625-0.58594 0.86328-1.3711 0.51172-0.82422 0.64062-1.0273 0.38672-1.0273 0.085937-1.1328 0.29688-1.5977 0.17188-0.12891 1-0.49219 0.91406-0.67969 0.86328-1.0039 0.22266-1.0234 0.11328-1.0273-0.15234-0.21094-0.99219-0.27344-1.0586-0.15625-1.1133-0.54297-0.85156-0.21484-1.0352 0.125-1.1367-0.50391-0.94531-0.64453-0.78125-0.94141-0.50781-1.1406-0.38281-0.86328-0.65234 0.33594-1.0664-0.82422-0.62891-1.2188 0.21484-0.66797-0.78125-0.97656-0.58594-0.19531-1.0273 0.17969-1.0117-0.066406-1.1133-0.95703-1.0391-0.20703-0.99219-0.70703-0.77734-0.12891-1.1133 0.51172-0.89062-0.45703-1.082-1.0547-0.625-0.90234-0.58203 0.33594-1.0469-0.35547-0.99609-0.125-1.0859 0.28906-0.96484-0.51562-0.98828-0.58984-0.97656-0.87891-0.59375-0.007812-1.1445-0.78516-0.76562-0.85938-0.54297-0.98828 0.43359-0.24219-0.98438-0.27734-1.0195-0.71875-0.71875-0.6875-0.89453-0.19531-1.0156-1.0469 0.28516-1.1602-0.015625-0.27344-1.0234-0.93359-0.43359-0.16797-1.1172-0.32031-0.98828-0.78125-0.66406-0.76562-0.74219-0.58594-0.89062-0.4375-0.99609-1.0078-0.56641-0.96094-0.61328-1.0312-0.37891-0.73438 0.73047-1.0234-0.22266 0.074218-1.0156-0.625-0.86719-0.68359-0.85938-1.1914 0.19531-0.75391-0.92969-0.92188-0.76953-0.85156-0.60938-1.0273-0.14844-0.73828-0.69922-0.11719-1.0234 0.16406-1.0469-0.11328-1.0352-0.38281-1.0977-0.54297-0.84375-0.51172-0.96094-0.88672-0.61328-0.68359-0.80078-0.046875-1.0312-0.99609-0.47656-0.39062-1.2461-0.015625-1-0.25-0.98438 0.17188-1-0.49609-1.0352-0.77734-0.67969-1.1406-0.21094-1.1289-0.046875-0.33594-1.0078-0.67188-0.79297-1.0117-0.21094-0.47266-0.96094 0.25781-1.1602-0.16016-0.99219 0.98047-0.47266 0.96484-0.3125 0.89453-0.52344 0.78125-0.71484 1.0078-0.11719 1.0312-0.089844 0.125-1.043 0.33203-1.0625 0.13281-1.1016-0.30859-1.0117 0.28906-1.1406 0.09375-1.0234-0.066406-1.043 0.53906-0.92188 0.62891-0.80469 0.94141-0.91406 0.99219-0.60156 1.043-0.21484 0.97266-0.31641 1.1992-0.0625 0.95312 0.42188 1.0195 0.097656 0.37109-0.94922 0.73047-0.71094 0.51953-0.90234 1.1602 0.074219 1.1562 0.019531 0.97656-0.25391 1.1094-0.45312 1.457 0.22266 1.3438-0.046875 1.082 0.21484 0.96484-0.70703 0.46484-0.91406 0.39062-1.0156 1.293-1.1055 1.2617-0.51953 0.99609-0.28516 1.8711-0.94922-0.47656-1.0234-0.44531-1.1289 0.097656-1.1953 0.96484-0.96875 0.41797-1.3125 0.67578-1.0391 1.6328-0.36719 0.13281-1.0508-0.58594-0.83984 0.37891-1.2266 0.54297-0.87891 0.16406-1.0234-0.37109-0.98438 0.44531-0.89844z" fill="#0a5394" fill-rule="evenodd"/>
<path d="m146.06 363.91 0.011719 0.054688 0.26172 1.1406 0.64453 0.87109 0.98438-0.22266 1.0156 0.0625 1.0273 0.03125 1.0938 0.023438 0.95312-0.41406 0.89062 0.47656-0.54297 0.89453-0.32422 1.0586 0.54688 0.84766-0.023438 1.1328 0.32812 0.98047 0.83594 0.63281 0.75 0.82031 0.84766 0.55078 1.1992 0.21484 1.1016-0.17188 1.2227-0.023437 1.2227-0.074219 1.2656 0.31641 0.78125-0.72266 1.0703-0.19922 1.0586-0.09375 0.95703 0.40625 0.72266 0.80859 0.42188 0.96875 0.15234 1.0898 0.45312 0.96094 0.55078 0.85156 0.48047 0.89453 0.55859 1.082 0.72656 0.82812 0.85156 0.65234 0.35547 0.95703 0.5 1.0312 0.70703 0.70703 0.94141 0.49219 0.73438 0.81641 0.25 0.96875 0.33203 0.95312 0.41797 0.94141 0.95703 0.53906 0.21094 1.1328-0.18359 1.0508-0.046875 1.1484-0.12109 1.0625-0.52344 1.0039-0.46094 0.97266-0.14844 1.043 0.27344 0.99219-0.42969 0.91406-0.40234 0.92969 0.41406 0.94141 0.074219 1.0156 0.56641 0.91797-0.44922 0.91797-0.53125 0.85547-0.72266 0.75391-0.20312 0.98828-0.5 0.94531-0.40234 1.1016-0.98438 0.23047-0.66797 0.79297-0.37109 0.94922-0.085938 1.0273 0.074219 1.082 0.57031 0.85547 0.14062 1.0117 0.015625 1.0156-0.18359 1.0586 0.30859 1.0156 0.66406 0.98828-0.44922 0.89453 0.20703 1.0117 0.46484 0.98047 0.33984 0.97266 0.5 0.89453 1.0664 0.12109 0.79297 0.75391-0.070313 1.0117 0.55469 0.875 0.60938 0.87109 0.80469 0.71484 0.47656 0.96094 0.99219-0.12891 0.42969 1.0039-0.046875 1.0234 0.046875 1.0195 0.54297 0.90234 0.74219 0.70703 0.37109 1.0391 0.14844 1-0.10156 1.0859-0.36719 0.95312 0.56641 0.99219 0.36328 0.98047 0.39453 1.082 0.3125 0.99219 0.63672 0.89844 0.55078 0.88672 0.8125 0.61719 0.39844 0.95312 0.41406 1 0.046875 1.125-0.3125 0.97656 0.10156 1.0664 0.48828 0.98047 0.40625 1.0039 0.50391 0.91797 0.35938 0.94141 0.26172 0.98828 0.050781 1.0273-0.054687 1.0508-0.089844 1.0156 0.67188 0.74219 0.56641 0.87109 0.24219 1.0508 0.46484 0.95312-0.25391 0.99609 0.35156 0.98047-0.19141 1.0156 0.10938 1.0664-0.34766 1.0234-1.0703 0.40625-1.0312 0.625-0.73828 1.0742-0.51953 0.87109-0.77344 0.64844-1.1133-0.30469-1.0273-0.28516-1.0898 0.078125-1 0.10547-1.0391 0.34375-1.1055-0.015625-1.1133 0.22656-0.17578-1.0312-0.88281-0.95312-0.41797-1.1797-0.375-0.9375-0.84766-0.5625-0.83203-0.62891-1.3008 0.14062-0.84766 0.625-0.58594 0.86328-1.3711 0.51172-0.82422 0.64062-1.0273 0.38672-1.0273 0.085937-1.1328 0.29688-1.5977 0.17188-0.12891 1-0.49219 0.91406-0.67969 0.86328-1.0039 0.22266-1.0234 0.11328-1.0273-0.15234-0.21094-0.99219-0.27344-1.0586-0.15625-1.1133-0.54297-0.85156-0.21484-1.0352 0.125-1.1367-0.50391-0.94531-0.64453-0.78125-0.94141-0.50781-1.1406-0.38281-0.86328-0.65234 0.33594-1.0664-0.82422-0.62891-1.2188 0.21484-0.66797-0.78125-0.97656-0.58594-0.19531-1.0273 0.17969-1.0117-0.066406-1.1133-0.95703-1.0391-0.20703-0.99219-0.70703-0.77734-0.12891-1.1133 0.51172-0.89062-0.45703-1.082-1.0547-0.625-0.90234-0.58203 0.33594-1.0469-0.35547-0.99609-0.125-1.0859 0.28906-0.96484-0.51562-0.98828-0.58984-0.97656-0.87891-0.59375-0.007812-1.1445-0.78516-0.76562-0.85938-0.54297-0.98828 0.43359-0.24219-0.98438-0.27734-1.0195-0.71875-0.71875-0.6875-0.89453-0.19531-1.0156-1.0469 0.28516-1.1602-0.015625-0.27344-1.0234-0.93359-0.43359-0.16797-1.1172-0.32031-0.98828-0.78125-0.66406-0.76562-0.74219-0.58594-0.89062-0.4375-0.99609-1.0078-0.56641-0.96094-0.61328-1.0312-0.37891-0.73438 0.73047-1.0234-0.22266 0.074218-1.0156-0.625-0.86719-0.68359-0.85938-1.1914 0.19531-0.75391-0.92969-0.92188-0.76953-0.85156-0.60938-1.0273-0.14844-0.73828-0.69922-0.11719-1.0234 0.16406-1.0469-0.11328-1.0352-0.38281-1.0977-0.54297-0.84375-0.51172-0.96094-0.88672-0.61328-0.68359-0.80078-0.046875-1.0312-0.99609-0.47656-0.39062-1.2461-0.015625-1-0.25-0.98438 0.17188-1-0.49609-1.0352-0.77734-0.67969-1.1406-0.21094-1.1289-0.046875-0.33594-1.0078-0.67188-0.79297-1.0117-0.21094-0.47266-0.96094 0.25781-1.1602-0.16016-0.99219 0.98047-0.47266 0.96484-0.3125 0.89453-0.52344 0.78125-0.71484 1.0078-0.11719 1.0312-0.089844 0.125-1.043 0.33203-1.0625 0.13281-1.1016-0.30859-1.0117 0.28906-1.1406 0.09375-1.0234-0.066406-1.043 0.53906-0.92188 0.62891-0.80469 0.94141-0.91406 0.99219-0.60156 1.043-0.21484 0.97266-0.31641 1.1992-0.0625 0.95312 0.42188 1.0195 0.097656 0.37109-0.94922 0.73047-0.71094 0.51953-0.90234 1.1602 0.074219 1.1562 0.019531 0.97656-0.25391 1.1094-0.45312 1.457 0.22266 1.3438-0.046875 1.082 0.21484 0.96484-0.70703 0.46484-0.91406 0.39062-1.0156 1.293-1.1055 1.2617-0.51953 0.99609-0.28516 1.8711-0.94922-0.47656-1.0234-0.44531-1.1289 0.097656-1.1953 0.96484-0.96875 0.41797-1.3125 0.67578-1.0391 1.6328-0.36719 0.13281-1.0508-0.58594-0.83984 0.37891-1.2266 0.54297-0.87891 0.16406-1.0234-0.37109-0.98438 0.44531-0.89844 0.67969-0.22656" fill="none" stroke="#fff" stroke-linecap="round" stroke-linejoin="round" stroke-miterlimit="10"/>
<path d="m174.75 393.27c0 3.5898-2.9102 6.5-6.5 6.5s-6.5-2.9102-6.5-6.5c0-3.5898 2.9102-6.5 6.5-6.5s6.5 2.9102 6.5 6.5" fill="#28c028" fill-rule="evenodd" stroke="#000" stroke-linecap="round" stroke-linejoin="round" stroke-miterlimit="10"/>
<path d="m80.98 387.27v-16.328h3.3281v13.547h8.2656v2.7812zm28.797 0h-3.6094l-1.4375-3.7344h-6.5781l-1.3594 3.7344h-3.5312l6.4062-16.469h3.5156zm-6.1094-6.5156-2.2812-6.1094-2.2188 6.1094zm7.8281 6.5156v-16.469h4.9844l2.9844 11.234 2.9531-11.234h4.9844v16.469h-3.0938v-12.953l-3.2656 12.953h-3.2031l-3.25-12.953v12.953zm19.188-16.469h3.3125v8.9219c0 1.418 0.039062 2.3359 0.125 2.75 0.14453 0.67969 0.48438 1.2188 1.0156 1.625 0.53906 0.40625 1.2734 0.60938 2.2031 0.60938 0.9375 0 1.6445-0.19141 2.125-0.57812 0.47656-0.38281 0.76562-0.85938 0.85938-1.4219 0.10156-0.5625 0.15625-1.4922 0.15625-2.7969v-9.1094h3.3281v8.6562c0 1.9688-0.09375 3.3672-0.28125 4.1875-0.17969 0.8125-0.50781 1.5-0.98438 2.0625-0.48047 0.5625-1.125 1.0117-1.9375 1.3438-0.8125 0.33203-1.8711 0.5-3.1719 0.5-1.5742 0-2.7656-0.18359-3.5781-0.54688-0.8125-0.36328-1.4531-0.83203-1.9219-1.4062-0.46875-0.58203-0.77734-1.1914-0.92188-1.8281-0.21875-0.94531-0.32812-2.3438-0.32812-4.1875zm16.609 0h6.0781c1.375 0 2.4219 0.10547 3.1406 0.3125 0.95703 0.29297 1.7812 0.80469 2.4688 1.5312 0.69531 0.71875 1.2227 1.6055 1.5781 2.6562 0.36328 1.0547 0.54688 2.3516 0.54688 3.8906 0 1.3555-0.17188 2.5234-0.51562 3.5-0.40625 1.1992-0.99219 2.1719-1.75 2.9219-0.58594 0.5625-1.3672 1-2.3438 1.3125-0.73047 0.23047-1.7109 0.34375-2.9375 0.34375h-6.2656zm3.3281 2.7969v10.891h2.4844c0.92578 0 1.5977-0.050782 2.0156-0.15625 0.53125-0.13281 0.97266-0.35938 1.3281-0.67188 0.36328-0.32031 0.65625-0.85156 0.875-1.5938 0.22656-0.73828 0.34375-1.7422 0.34375-3.0156 0-1.2695-0.11719-2.2422-0.34375-2.9219-0.21875-0.6875-0.53125-1.2188-0.9375-1.5938-0.40625-0.38281-0.92188-0.64453-1.5469-0.78125-0.46094-0.10156-1.3672-0.15625-2.7188-0.15625zm0 0" fill="none" stroke="#fff" stroke-linecap="round" stroke-linejoin="round" stroke-miterlimit="10" stroke-width="2"/>
<path d="m80.98 387.27v-16.328h3.3281v13.547h8.2656v2.7812zm28.797 0h-3.6094l-1.4375-3.7344h-6.5781l-1.3594 3.7344h-3.5312l6.4062-16.469h3.5156zm-6.1094-6.5156-2.2812-6.1094-2.2188 6.1094zm7.8281 6.5156v-16.469h4.9844l2.9844 11.234 2.9531-11.234h4.9844v16.469h-3.0938v-12.953l-3.2656 12.953h-3.2031l-3.25-12.953v12.953zm19.188-16.469h3.3125v8.9219c0 1.418 0.039062 2.3359 0.125 2.75 0.14453 0.67969 0.48438 1.2188 1.0156 1.625 0.53906 0.40625 1.2734 0.60938 2.2031 0.60938 0.9375 0 1.6445-0.19141 2.125-0.57812 0.47656-0.38281 0.76562-0.85938 0.85938-1.4219 0.10156-0.5625 0.15625-1.4922 0.15625-2.7969v-9.1094h3.3281v8.6562c0 1.9688-0.09375 3.3672-0.28125 4.1875-0.17969 0.8125-0.50781 1.5-0.98438 2.0625-0.48047 0.5625-1.125 1.0117-1.9375 1.3438-0.8125 0.33203-1.8711 0.5-3.1719 0.5-1.5742 0-2.7656-0.18359-3.5781-0.54688-0.8125-0.36328-1.4531-0.83203-1.9219-1.4062-0.46875-0.58203-0.77734-1.1914-0.92188-1.8281-0.21875-0.94531-0.32812-2.3438-0.32812-4.1875zm16.609 0h6.0781c1.375 0 2.4219 0.10547 3.1406 0.3125 0.95703 0.29297 1.7812 0.80469 2.4688 1.5312 0.69531 0.71875 1.2227 1.6055 1.5781 2.6562 0.36328 1.0547 0.54688 2.3516 0.54688 3.8906 0 1.3555-0.17188 2.5234-0.51562 3.5-0.40625 1.1992-0.99219 2.1719-1.75 2.9219-0.58594 0.5625-1.3672 1-2.3438 1.3125-0.73047 0.23047-1.7109 0.34375-2.9375 0.34375h-6.2656zm3.3281 2.7969v10.891h2.4844c0.92578 0 1.5977-0.050782 2.0156-0.15625 0.53125-0.13281 0.97266-0.35938 1.3281-0.67188 0.36328-0.32031 0.65625-0.85156 0.875-1.5938 0.22656-0.73828 0.34375-1.7422 0.34375-3.0156 0-1.2695-0.11719-2.2422-0.34375-2.9219-0.21875-0.6875-0.53125-1.2188-0.9375-1.5938-0.40625-0.38281-0.92188-0.64453-1.5469-0.78125-0.46094-0.10156-1.3672-0.15625-2.7188-0.15625z" fill-rule="evenodd"/>
</g>
</svg>
