<?xml version="1.0" encoding="UTF-8"?>
<svg width="450pt" height="500pt" version="1.1" viewBox="0 0 450 500" xmlns="http://www.w3.org/2000/svg">
<g id="a">
<rect width="450" height="500" fill="none"/>
<path d="m18.5 243.09-1.3203 0.51562-1.4609 0.51953-0.48828 0.94531-0.60156 1.0312 0.19922 2.2969 0.23047 1.0898 0.14453 1.3203-0.31641 1.2305-0.51562 1.1484-0.60156 1.3789-0.36328 1.2617 0.33203 1.5273-0.14453 1.1797 1.7773 1.9375 1.1758 1.957 0.66016 1.0625 0.027344 1.2812 0.30859 1.0781 1.1406 1.7461 1.2227 1.5312 1.4375 1.793 0.87109 2.6641-0.35938 3.2305 0.61328 1.6914 1.3086 1.4492 1.3438 1.4766 2.7539 2.2305 1.2812 1.2461 1.6055 3.3125 0.88672 0.95312 1.1133 1.4727 0.19531 1.0508 0.24219 1.457 0.71484 1.0547 0.96484 0.48438 0.83984 0.59766 1.3906 0.62891 2.2617 1.1484 1.8672 1.4531 0.80469 0.73438 1.3672 2.0898 2.5898 1.7969 1.0938 0.51172 0.51562 1.5391 0.80859 0.69141 1.2227 0.57422 1.75 2.6094 0.99219 1.1758 1.082 0.94531 5.5195 1.8438 3.4531 0.69141 1.1602 0.16797 1.9844-0.15234 1.0234-0.60156 1.3125-0.066406 1.6797-0.41016 1.1484 0.16797 0.97656 0.71875 1.4141 1.7031 1.3555 1.8711 1.1172 0.33594 1.1992-0.28906 1.0273 0.38672 1.125-0.89453 1.875 0.48047 1.6914 0.48438 1.1875-0.12891 1.543 0.23828 1.3984-0.38281 1.125 0.058594 2.5938-0.25781 3.0273 0.94922 1.3828 0.17578 2.8242 2.4492 1.9609 1.1289 2.0078 1.2148 1.0742 1.1719 2.1133 1.9492 0.8125 0.75 2.582 2.7852 1.0078 1.625 3.3516 5.4102 1.2891 1.4805 0.92969 0.64062 1.5586 0.19922 1.1562-0.26562h1.4766l1.3906 1.2734 0.9375 1.9961 0.9375 1.582 0.97266 3.2266 0.41016 3.418-0.097656 1.0508-0.35938 1.2109 0.25391 1.5703-1.0078 0.73047-1.5156 1.2266-1.1797 2.2891-0.61328 1.7383-2.7617 0.62109-1.0625 0.14844-0.30859 1.5898 0.35938 1.1289-0.25391 1.3359 0.76953 2.0781 0.20703 1.6758-1.2344 1.582-0.71875 1.4883-0.050782 2.9258 0.054688 2.2852-0.62109 1.4844-0.91797 0.82031-0.69531 1.3281-0.92188 0.75781-1.2773 0.12891-0.91797 1.0703-1.2109 0.046875-1.3633 0.40625-1.3711 0.83984-0.98047 0.77344-1.2773 0.23438-0.98047 0.20312-0.98828 0.33984-1.0586 0.28125-1.957 1.2773-0.91406 0.63281-0.98047 0.20703-1.5781 0.27734-0.97656 0.67578-0.97656 0.73438-1.2109 0.18359-1.5-0.027344-0.875 1.0898-1.0859 0.73047-2.1172 0.74609-1.4922 0.71875-0.98438 0.5625-1.2227 0.87891-1.1445 0.50781-0.875 1.082-1.7422 1.5703-1.0391 0.23438-1.4297 0.75391-1.7227 0.37891-2.0898 0.76953-1 0.16016-0.97656-0.53906-1.0625 0.40625-1.0039 0.20703-1.1016 0.46094-2.0586 0.35938-1.1016 0.035156-1.4297-0.09375-0.9375 0.47656-1.2539 0.29297-1.2031-1.3594-0.24609-1.082-0.20312-1.3867-0.99609-0.59375-1.5156-0.625-0.94141-0.62891-1.0352-0.59375-0.94531-1.125-0.68359-1.0742-1.0156-1.0156-0.68359-1.1094-0.5-0.98047-0.36719-1.0508-0.70312-0.94141-0.36719-1.2422 0.089844-1.1836 0.19141-1.5078-0.27344-1.2578-0.9375-0.89844-1.2578-0.035157-1.5117-0.046875-1.0156-0.37109-0.50781-1.1289-0.36328-1.4102-0.26172-1.6211-0.29297-1.8242-0.3125-1.9336-0.59375-1.3164-0.60547-1.3398-0.96094-0.94531-1.5859-0.20703-0.98047-0.25781-0.98047-1.4219-0.35547-1.043-1.9414-0.30078-1.0039-0.58203-0.91016-0.89844-0.96094-0.94922-0.62891-0.90234-0.54297-0.92578-0.28516-1.043 0.26953-1.1758 0.11328-1.3398-0.18359-1.3984-0.24219-1.082-0.33203-0.99609-0.75781-0.77344-0.58984-1.1328-0.66797-1.2852-1.1172-2.1367-0.72656-1.0625-0.59375-1.3438-0.52344-1.1758-0.14062-0.99219-0.19531-1.4023-0.25781-1.0352-0.30469-1.2461-0.77734-1.6133-0.8125-0.78516-0.99609-0.72266-1.1133-0.42188-1.6016-0.73438-1.0039-0.42188-1.2305-1.793-0.015625-1.082-0.0625-1.9297-0.54688-1.0508-0.48047-1.2852-0.46875-0.99609-0.86328-0.99219-0.87891-1.0078-1.2188-1.0703-1.0391-0.91406-0.75391-0.82812-0.23438-0.97656 0.023438-1.0469 0.14844-1.0391 0.41406-1.0078 1.2773-1.7539 0.82812-1.2461 0.29688-1.0977-0.10938-1.3438-0.78125-1.2695-1.2734-0.91797-0.94922-1.8398-0.71484-1.4844-0.26562-1.8398 0.20703-1.2773 0.29688-1.0703 0.35547-1.3359-0.14844-1.0078-0.68359-0.98047-0.20703-1.2461 0.12109-1.1289-0.26953-1.4219-0.17578-1.0977-0.72266-1.3555-0.67578-1.1914-1.6172-1.1016-1.1211-0.48828-1.707-0.82812-0.92578-0.48828-0.67969-0.77734-0.035156-1.0508 0.625-1.625 0.23828-1.6641 0.47656-1.6016 0.30469-1.2227 0.53516-2.2461 0.38672-1.4141 1.1719-2.1953 0.33984-1.3633 0.44141-2.293 0.33984-3.0195 0.25-1.2227 0.85938-1.082 0.17969-1.9297 0.26562-1.3945 0.63672-0.87109 0.66797-1.3906 0.69922-1 0.65234-0.86328 0.95703-0.91016 0.58203-1.0742 0.46484-1.2109-0.023438-1.1406-0.34766-1.0273v-1.1211l0.13281-1.3516 0.23828-1.2773 0.68359-1.4219 0.089843-1.1602-0.56641-1.4258 0.085938-1 0.36328-1.8984 1.0352-1.6719 0.77344-0.83203 1.4766-1.1562 0.95703-0.375 1.0977-0.37109z" fill="#ccc" fill-rule="evenodd"/>
<path d="m18.5 243.09-1.3203 0.51562-1.4609 0.51953-0.48828 0.94531-0.60156 1.0312 0.19922 2.2969 0.23047 1.0898 0.14453 1.3203-0.31641 1.2305-0.51562 1.1484-0.60156 1.3789-0.36328 1.2617 0.33203 1.5273-0.14453 1.1797 1.7773 1.9375 1.1758 1.957 0.66016 1.0625 0.027344 1.2812 0.30859 1.0781 1.1406 1.7461 1.2227 1.5312 1.4375 1.793 0.87109 2.6641-0.35938 3.2305 0.61328 1.6914 1.3086 1.4492 1.3438 1.4766 2.7539 2.2305 1.2812 1.2461 1.6055 3.3125 0.88672 0.95312 1.1133 1.4727 0.19531 1.0508 0.24219 1.457 0.71484 1.0547 0.96484 0.48438 0.83984 0.59766 1.3906 0.62891 2.2617 1.1484 1.8672 1.4531 0.80469 0.73438 1.3672 2.0898 2.5898 1.7969 1.0938 0.51172 0.51562 1.5391 0.80859 0.69141 1.2227 0.57422 1.75 2.6094 0.99219 1.1758 1.082 0.94531 5.5195 1.8438 3.4531 0.69141 1.1602 0.16797 1.9844-0.15234 1.0234-0.60156 1.3125-0.066406 1.6797-0.41016 1.1484 0.16797 0.97656 0.71875 1.4141 1.7031 1.3555 1.8711 1.1172 0.33594 1.1992-0.28906 1.0273 0.38672 1.125-0.89453 1.875 0.48047 1.6914 0.48438 1.1875-0.12891 1.543 0.23828 1.3984-0.38281 1.125 0.058594 2.5938-0.25781 3.0273 0.94922 1.3828 0.17578 2.8242 2.4492 1.9609 1.1289 2.0078 1.2148 1.0742 1.1719 2.1133 1.9492 0.8125 0.75 2.582 2.7852 1.0078 1.625 3.3516 5.4102 1.2891 1.4805 0.92969 0.64062 1.5586 0.19922 1.1562-0.26562h1.4766l1.3906 1.2734 0.9375 1.9961 0.9375 1.582 0.97266 3.2266 0.41016 3.418-0.097656 1.0508-0.35938 1.2109 0.25391 1.5703-1.0078 0.73047-1.5156 1.2266-1.1797 2.2891-0.61328 1.7383-2.7617 0.62109-1.0625 0.14844-0.30859 1.5898 0.35938 1.1289-0.25391 1.3359 0.76953 2.0781 0.20703 1.6758-1.2344 1.582-0.71875 1.4883-0.050782 2.9258 0.054688 2.2852-0.62109 1.4844-0.91797 0.82031-0.69531 1.3281-0.92188 0.75781-1.2773 0.12891-0.91797 1.0703-1.2109 0.046875-1.3633 0.40625-1.3711 0.83984-0.98047 0.77344-1.2773 0.23438-0.98047 0.20312-0.98828 0.33984-1.0586 0.28125-1.957 1.2773-0.91406 0.63281-0.98047 0.20703-1.5781 0.27734-0.97656 0.67578-0.97656 0.73438-1.2109 0.18359-1.5-0.027344-0.875 1.0898-1.0859 0.73047-2.1172 0.74609-1.4922 0.71875-0.98438 0.5625-1.2227 0.87891-1.1445 0.50781-0.875 1.082-1.7422 1.5703-1.0391 0.23438-1.4297 0.75391-1.7227 0.37891-2.0898 0.76953-1 0.16016-0.97656-0.53906-1.0625 0.40625-1.0039 0.20703-1.1016 0.46094-2.0586 0.35938-1.1016 0.035156-1.4297-0.09375-0.9375 0.47656-1.2539 0.29297-1.2031-1.3594-0.24609-1.082-0.20312-1.3867-0.99609-0.59375-1.5156-0.625-0.94141-0.62891-1.0352-0.59375-0.94531-1.125-0.68359-1.0742-1.0156-1.0156-0.68359-1.1094-0.5-0.98047-0.36719-1.0508-0.70312-0.94141-0.36719-1.2422 0.089844-1.1836 0.19141-1.5078-0.27344-1.2578-0.9375-0.89844-1.2578-0.035157-1.5117-0.046875-1.0156-0.37109-0.50781-1.1289-0.36328-1.4102-0.26172-1.6211-0.29297-1.8242-0.3125-1.9336-0.59375-1.3164-0.60547-1.3398-0.96094-0.94531-1.5859-0.20703-0.98047-0.25781-0.98047-1.4219-0.35547-1.043-1.9414-0.30078-1.0039-0.58203-0.91016-0.89844-0.96094-0.94922-0.62891-0.90234-0.54297-0.92578-0.28516-1.043 0.26953-1.1758 0.11328-1.3398-0.18359-1.3984-0.24219-1.082-0.33203-0.99609-0.75781-0.77344-0.58984-1.1328-0.66797-1.2852-1.1172-2.1367-0.72656-1.0625-0.59375-1.3438-0.52344-1.1758-0.14062-0.99219-0.19531-1.4023-0.25781-1.0352-0.30469-1.2461-0.77734-1.6133-0.8125-0.78516-0.99609-0.72266-1.1133-0.42188-1.6016-0.73438-1.0039-0.42188-1.2305-1.793-0.015625-1.082-0.0625-1.9297-0.54688-1.0508-0.48047-1.2852-0.46875-0.99609-0.86328-0.99219-0.87891-1.0078-1.2188-1.0703-1.0391-0.91406-0.75391-0.82812-0.23438-0.97656 0.023438-1.0469 0.14844-1.0391 0.41406-1.0078 1.2773-1.7539 0.82812-1.2461 0.29688-1.0977-0.10938-1.3438-0.78125-1.2695-1.2734-0.91797-0.94922-1.8398-0.71484-1.4844-0.26562-1.8398 0.20703-1.2773 0.29688-1.0703 0.35547-1.3359-0.14844-1.0078-0.68359-0.98047-0.20703-1.2461 0.12109-1.1289-0.26953-1.4219-0.17578-1.0977-0.72266-1.3555-0.67578-1.1914-1.6172-1.1016-1.1211-0.48828-1.707-0.82812-0.92578-0.48828-0.67969-0.77734-0.035156-1.0508 0.625-1.625 0.23828-1.6641 0.47656-1.6016 0.30469-1.2227 0.53516-2.2461 0.38672-1.4141 1.1719-2.1953 0.33984-1.3633 0.44141-2.293 0.33984-3.0195 0.25-1.2227 0.85938-1.082 0.17969-1.9297 0.26562-1.3945 0.63672-0.87109 0.66797-1.3906 0.69922-1 0.65234-0.86328 0.95703-0.91016 0.58203-1.0742 0.46484-1.2109-0.023438-1.1406-0.34766-1.0273v-1.1211l0.13281-1.3516 0.23828-1.2773 0.68359-1.4219 0.089843-1.1602-0.56641-1.4258 0.085938-1 0.36328-1.8984 1.0352-1.6719 0.77344-0.83203 1.4766-1.1562 0.95703-0.375 1.0977-0.37109 1.4297 2.5547" fill="none" stroke="#fff" stroke-linecap="round" stroke-linejoin="round" stroke-miterlimit="10" stroke-width="2"/>
<path d="m102.85 183.7 0.44922 0.25781 1.2734 0.79688 1.2578 0.51562 1.043 0.62109-0.28906 1.0977-0.26562 1.0703 0.62109 0.98047 0.91797 0.40625 1.0664-0.17188 1.0117 0.50391 1.4102 1.0117 1.1016 0.59766 0.875 0.84375 0.61719 1.3477-0.39453 1.0547 0.57812 1.75 1.0977 0.39453 1.4297 1.0898 0.72656 0.91797 0.58594 1.5703 0.26953 1.1953 0.46875 1.0469-0.16797 1.0859 0.46875 0.99219 1.4258-0.19141 1.207-0.34766 1.1992 0.32031 0.039062 1.0234-0.76172 0.76172-1.1953 0.8125-0.77734 0.85547-0.78125 0.875-0.125 1.0039 0.71875 1.1719 2.1289 1.043 1.1602-0.51172 2.3164 1.0547 1.1016 0.32422 1.293 0.40234 1.1328 0.5625 1.1094 0.76953 0.96875 0.54688 1.1328 0.88281 3.1016 1.7383 1.3711 0.79688 0.90625 0.57812 0.75391 0.66016 0.57422 0.98828 1 1.1523-0.085937 1.0195 1.1836 0.69922 1.0508 0.67188 1 0.23438 1.4844 0.14062 1.0156 0.64453 0.42578 1.0352 0.38672 1.4336-0.39453 1.2422-0.16797 1.5352 0.37109 1.1523 1.5234 1.5234-0.32031 1.4648-0.26953 0.96484 0.88672 0.78906 1.1992-0.023438 0.96094 1.1328 0.21094 1.2383 0.78906 0.70312 1.5469-0.38281 1.1055-0.65234 0.90625-0.42188 1 0.84375-0.58594 2.0273-0.22656 1.1484-0.37891 1.0742 0.91797 1.7227 1.4102 0.52344 1.7812 1.2695 1.7422 0.61328 1.375 0.85938 1.6055 0.10156 1.1289 0.19922 1.082 0.4375 1.3164 0.80078 0.9375 0.83984 0.78516 0.86719 1.1367 0.69141 1.0703 1.0273-0.14062 1.5781-0.20703 1.3281 0.54688 1.0156 1.4453 0.51562 1.3828 0.21875 1.0625-0.003906 1.3281-1.4023 1.3359-0.55859 1.0859 0.25391 1.1914-0.007812 1.0156 0.18359 1.4609 0.42578 1.0586 0.18359h1.0391l0.67578 0.80469 1.5078 0.51562 1.3984 1.125 1.2773 0.51953 0.98438 0.31641 1.2539-0.16797 1.0469-0.26172 1.707-0.070312 1.2305 0.027343 1.3203 0.53516 1.1758 0.48828 1.3438-0.22656 1.1562-0.046875 1.1055 0.23047 0.96875 0.69531 0.27344 1.1289 0.91016 0.67969 1.1289 0.12891 0.93359 0.66016 1.8086 1.5312 1.2305 0.25 1.3867 0.30859 1.2852 0.88672 1.293-0.058593 0.97266-0.71484 0.97656 0.52734 0.33203 1.6445 0.27734 0.96094 0.78125 0.66406 1.3086 0.55469 1.2188 0.20312 1.1289 0.17969 0.92188 0.62109 0.82812 0.72656 1.5156 0.15234 1.1328-0.18359 1.1484-0.046875 0.64844 0.84375 1.1445 0.066406 1.0195-0.33594 0.71875-0.87109 0.98438-0.67188 1.168-0.082031 1.2656-0.13281 1.0664-0.33594 1.1133 0.27734 1.6016 0.53516 0.68359 1.043 0.027344 1.1016-0.30469 1.1797 0.46094 0.96875 1.0039 0.71875 0.63281 0.98047 0.3125 1.0352 0.03125 1.0273-0.87109 0.625-0.51562 0.97266 0.34766 1.2734-0.46094 1.0586-0.67188 0.78516 0.33984 1.3672 1.0664 1.3906 0.67188 0.89453 0.94141 0.45703 0.54688 0.92188 0.69922 0.74219-0.0625 1.0781 0.14453 1.0391 0.59766 0.84766-0.36328 1.5078 0.59766 1.0938 0.40234 1.3359 0.55078 0.86328 0.17188 1.457 0.42578 1.1758 0.58203 0.88672 0.79688 1.0781 0.12109 1.125 0.74609 1.1719 0.085938 1.082 0.94922 0.39062 0.96484 0.54297 0.48828 0.95312 0.49609 1.2266-0.0625 1.0625 0.3125 0.95703-0.085937 1.4023-0.77734 0.81641-0.53516 0.90625-0.27344 1.2969v1.2656l0.078125 1.2461 0.48438 1.0508 0.71094 0.79688 0.082031 1.0156-0.03125 1.1562 0.70312 0.83594-0.51562 0.97266-0.39844 1.0781-0.40625 1.4844-0.20703 1.0664-0.26562 0.96484-0.42969 1.0156-0.83203 1.125-0.75391 0.96094-0.60938 0.94141-0.11328 1.2109-0.16016 1.4648-0.34766 1.2344-0.26953 1.1367-0.52734 0.875-0.47656 1.0781-0.74609 0.71484-0.52344 1.0273-0.38281 1.0938-1.0742 1.3281-0.60547 1.0234-0.42188 1.0625-0.60547 1.2812-0.40234 1.2031-0.625 0.85156-0.039062 1.0156-0.52344 1.0703-1.0586 1.0078-1.0664 1.4219-0.65625 1.7891-1.082 1.1094-0.43359 0.95312 0.050781 1.1328-0.37109 1.2344-0.21094 1.8242 0.15234 1.0977 0.63281 0.9375-0.47656 0.95703-0.40625 1.0508-0.41016 1.0352-0.10938 1.1836-0.1875 1.1289 0.054687 1.0625 0.55859 0.86719-0.41406 1.207-1.3164 0.12109-0.34375 1.4648-0.18359 1.6367-0.99219 0.60938 0.36719 0.97656 0.14844 1.5547-0.5 0.97656-0.054688 1.5625-0.37109 0.9375-1.1758 0.13672-0.92969 0.74219-0.69922 1.0039-0.70312 0.85547-1.1992 0.48047-0.86328 0.58203-1.418 1.0664-1.1367 0.87109-1.6797 0.6875-1.1133 0.45312-2.6875 1.3398-1.4727 0.65625-1.0547 0.25391-0.89062-1.9844-0.67578-1.0352-1.4023-0.96094-0.66016-1.1484-0.26953-1.2461-1.7773-0.78516-0.95312-0.57031-0.38281-1.5781-1.2266-1.1523-0.17969-1.4023-0.33594-0.97266-1.2812-1.1953-0.20312-1.3633-0.22656-0.98047-0.78125-0.80859-2.4062-0.16406-1.5156-0.30859-3.8359-0.55859-0.92969-0.38672-0.89844-0.56641-0.83203-0.66406-1.7266-0.50391-2.1289-0.6875-1.7891-0.83984-1.0352-0.72266-1.4727-1.0312-2.1094-0.92969-1.8438-0.13281-2.1328-0.48828-1.1719-0.54297-1.5898-2.1797-0.42578-1.2461-0.39453-1.1602-1.0117-1.7305-1.4492-0.72266-2.2188 0.56641-1.0352-0.21875-1.4375-0.85547-0.94141-0.35547-1.1133-0.59375-1.5508 0.60156-1.0039 0.027344-2.7148-1.25-1.5352-0.13672-0.90625 0.48047-1.6641 0.125-1.4922-0.074219-1.8594-1.168-0.82422-0.72656-1.9023-0.92578-1.2656 1.082-1.2852 1.0078-1.7695 0.87109-0.49219 1.25-0.16797 1.6406-0.38281 1.0117-1.4102-1.2773-0.74219-0.78516-1.1172-1.0625-0.69141-1.8906-1.0703-2.918-0.78516-0.67188-1.5312-0.45703-1.1719 0.44922-0.98438 0.69922-1.0273 0.125-1.25 0.24609-0.87109 0.55859-1.2734 0.027344-1.0859-0.32812-1.4961-0.22266-1.25 0.67969-1.6836 0.69922-0.28906-1.8047 0.35938-1.2109 0.097656-1.0508-0.41016-3.418-0.97266-3.2266-0.65234-1.2812-1.0547-1.5586-1.0898-1.6602-1.1055-0.5-1.5742 0.46875-1.9805-0.25391-0.92969-0.64062-0.83594-0.85156-3.8047-6.0391-1.0078-1.625-2.582-2.7852-0.8125-0.75-2.1133-1.9492-1.0742-1.1719-2.0078-1.2148-1.9609-1.1289-2.8242-2.4492-1.3828-0.17578-3.0273-0.94922-2.5938 0.25781-1.125-0.058594-1.3984 0.38281-1.543-0.23828-1.1875 0.12891-1.3477-0.38672-1.6133-0.46094-1.2422 0.14453-0.78516 0.75781-1.0625-0.67578-1.207 0.4375-2.1328-2.1914-1.4141-1.7031-0.97656-0.71875-1.0977-0.20312-1.2109-3.168-1.2617-2.3672-0.66016-0.94922-0.39844-0.96875 0.042968-3.5586 0.32422-4.582-0.035156-2.9414-0.027344-2.3047 1.0508-1.5391 0.27344-1.1992 1.6992-2.0469 1.5312-1.9023 0.34375-1.2305 0.43359-1.5352 1.375-3.7383 0.28516-1.6172 0.42578-1.2578 0.85156-1.3203 1.2773-1.6914 0.55469-0.89453 1.6289-4.5 1.0938-5.1602 0.089844-3.1406 1.4102-3.7773 0.20312-2.2773-0.51953-2.9375 0.40234-1.0391 0.86719-1.3633 1.2383-1.5195 0.80859-2.4492 0.74609-1.2695 0.46094-1.0352 0.28125-1.1875 0.875-0.74609 0.60547-1.2109-0.26172-1.1797-1.6992-2.0195-1.2461-3.332-0.050782-1.25 0.51953-2.1055 0.44141-1.0508 0.46094-1.9102 0.68359-0.98047-0.35156-2.1016-0.79297-0.94141-4.6836-4.1328-0.69141-1.8086 0.15625-1.75-0.5-1.3281-0.57031-0.94141 0.51562-1.3281 0.90234-0.8125 0.96094-0.60938 4.7773-0.88281 2.0508 0.046875 1.1484 0.10938 2.3906-0.92188 0.87891-0.58984 0.55078-1.1367 1.4375-1.0703 0.91016-1.1484 1.3008-2.0547 1.043-1.4844 0.9375-1.1797 0.42969-1.0977 0.63281-1.2617 0.44141-0.9375 1.7852-3.207 0.25-1.2617 0.007813-1.1172-0.13281-1.4922 0.09375-1.5977 0.050782-1.2422 1.0547-1.4258z" fill="#ccc" fill-rule="evenodd"/>
<path d="m102.85 183.7 0.44922 0.25781 1.2734 0.79688 1.2578 0.51562 1.043 0.62109-0.28906 1.0977-0.26562 1.0703 0.62109 0.98047 0.91797 0.40625 1.0664-0.17188 1.0117 0.50391 1.4102 1.0117 1.1016 0.59766 0.875 0.84375 0.61719 1.3477-0.39453 1.0547 0.57812 1.75 1.0977 0.39453 1.4297 1.0898 0.72656 0.91797 0.58594 1.5703 0.26953 1.1953 0.46875 1.0469-0.16797 1.0859 0.46875 0.99219 1.4258-0.19141 1.207-0.34766 1.1992 0.32031 0.039062 1.0234-0.76172 0.76172-1.1953 0.8125-0.77734 0.85547-0.78125 0.875-0.125 1.0039 0.71875 1.1719 2.1289 1.043 1.1602-0.51172 2.3164 1.0547 1.1016 0.32422 1.293 0.40234 1.1328 0.5625 1.1094 0.76953 0.96875 0.54688 1.1328 0.88281 3.1016 1.7383 1.3711 0.79688 0.90625 0.57812 0.75391 0.66016 0.57422 0.98828 1 1.1523-0.085937 1.0195 1.1836 0.69922 1.0508 0.67188 1 0.23438 1.4844 0.14062 1.0156 0.64453 0.42578 1.0352 0.38672 1.4336-0.39453 1.2422-0.16797 1.5352 0.37109 1.1523 1.5234 1.5234-0.32031 1.4648-0.26953 0.96484 0.88672 0.78906 1.1992-0.023438 0.96094 1.1328 0.21094 1.2383 0.78906 0.70312 1.5469-0.38281 1.1055-0.65234 0.90625-0.42188 1 0.84375-0.58594 2.0273-0.22656 1.1484-0.37891 1.0742 0.91797 1.7227 1.4102 0.52344 1.7812 1.2695 1.7422 0.61328 1.375 0.85938 1.6055 0.10156 1.1289 0.19922 1.082 0.4375 1.3164 0.80078 0.9375 0.83984 0.78516 0.86719 1.1367 0.69141 1.0703 1.0273-0.14062 1.5781-0.20703 1.3281 0.54688 1.0156 1.4453 0.51562 1.3828 0.21875 1.0625-0.003906 1.3281-1.4023 1.3359-0.55859 1.0859 0.25391 1.1914-0.007812 1.0156 0.18359 1.4609 0.42578 1.0586 0.18359h1.0391l0.67578 0.80469 1.5078 0.51562 1.3984 1.125 1.2773 0.51953 0.98438 0.31641 1.2539-0.16797 1.0469-0.26172 1.707-0.070312 1.2305 0.027343 1.3203 0.53516 1.1758 0.48828 1.3438-0.22656 1.1562-0.046875 1.1055 0.23047 0.96875 0.69531 0.27344 1.1289 0.91016 0.67969 1.1289 0.12891 0.93359 0.66016 1.8086 1.5312 1.2305 0.25 1.3867 0.30859 1.2852 0.88672 1.293-0.058593 0.97266-0.71484 0.97656 0.52734 0.33203 1.6445 0.27734 0.96094 0.78125 0.66406 1.3086 0.55469 1.2188 0.20312 1.1289 0.17969 0.92188 0.62109 0.82812 0.72656 1.5156 0.15234 1.1328-0.18359 1.1484-0.046875 0.64844 0.84375 1.1445 0.066406 1.0195-0.33594 0.71875-0.87109 0.98438-0.67188 1.168-0.082031 1.2656-0.13281 1.0664-0.33594 1.1133 0.27734 1.6016 0.53516 0.68359 1.043 0.027344 1.1016-0.30469 1.1797 0.46094 0.96875 1.0039 0.71875 0.63281 0.98047 0.3125 1.0352 0.03125 1.0273-0.87109 0.625-0.51562 0.97266 0.34766 1.2734-0.46094 1.0586-0.67188 0.78516 0.33984 1.3672 1.0664 1.3906 0.67188 0.89453 0.94141 0.45703 0.54688 0.92188 0.69922 0.74219-0.0625 1.0781 0.14453 1.0391 0.59766 0.84766-0.36328 1.5078 0.59766 1.0938 0.40234 1.3359 0.55078 0.86328 0.17188 1.457 0.42578 1.1758 0.58203 0.88672 0.79688 1.0781 0.12109 1.125 0.74609 1.1719 0.085938 1.082 0.94922 0.39062 0.96484 0.54297 0.48828 0.95312 0.49609 1.2266-0.0625 1.0625 0.3125 0.95703-0.085937 1.4023-0.77734 0.81641-0.53516 0.90625-0.27344 1.2969v1.2656l0.078125 1.2461 0.48438 1.0508 0.71094 0.79688 0.082031 1.0156-0.03125 1.1562 0.70312 0.83594-0.51562 0.97266-0.39844 1.0781-0.40625 1.4844-0.20703 1.0664-0.26562 0.96484-0.42969 1.0156-0.83203 1.125-0.75391 0.96094-0.60938 0.94141-0.11328 1.2109-0.16016 1.4648-0.34766 1.2344-0.26953 1.1367-0.52734 0.875-0.47656 1.0781-0.74609 0.71484-0.52344 1.0273-0.38281 1.0938-1.0742 1.3281-0.60547 1.0234-0.42188 1.0625-0.60547 1.2812-0.40234 1.2031-0.625 0.85156-0.039062 1.0156-0.52344 1.0703-1.0586 1.0078-1.0664 1.4219-0.65625 1.7891-1.082 1.1094-0.43359 0.95312 0.050781 1.1328-0.37109 1.2344-0.21094 1.8242 0.15234 1.0977 0.63281 0.9375-0.47656 0.95703-0.40625 1.0508-0.41016 1.0352-0.10938 1.1836-0.1875 1.1289 0.054687 1.0625 0.55859 0.86719-0.41406 1.207-1.3164 0.12109-0.34375 1.4648-0.18359 1.6367-0.99219 0.60938 0.36719 0.97656 0.14844 1.5547-0.5 0.97656-0.054688 1.5625-0.37109 0.9375-1.1758 0.13672-0.92969 0.74219-0.69922 1.0039-0.70312 0.85547-1.1992 0.48047-0.86328 0.58203-1.418 1.0664-1.1367 0.87109-1.6797 0.6875-1.1133 0.45312-2.6875 1.3398-1.4727 0.65625-1.0547 0.25391-0.89062-1.9844-0.67578-1.0352-1.4023-0.96094-0.66016-1.1484-0.26953-1.2461-1.7773-0.78516-0.95312-0.57031-0.38281-1.5781-1.2266-1.1523-0.17969-1.4023-0.33594-0.97266-1.2812-1.1953-0.20312-1.3633-0.22656-0.98047-0.78125-0.80859-2.4062-0.16406-1.5156-0.30859-3.8359-0.55859-0.92969-0.38672-0.89844-0.56641-0.83203-0.66406-1.7266-0.50391-2.1289-0.6875-1.7891-0.83984-1.0352-0.72266-1.4727-1.0312-2.1094-0.92969-1.8438-0.13281-2.1328-0.48828-1.1719-0.54297-1.5898-2.1797-0.42578-1.2461-0.39453-1.1602-1.0117-1.7305-1.4492-0.72266-2.2188 0.56641-1.0352-0.21875-1.4375-0.85547-0.94141-0.35547-1.1133-0.59375-1.5508 0.60156-1.0039 0.027344-2.7148-1.25-1.5352-0.13672-0.90625 0.48047-1.6641 0.125-1.4922-0.074219-1.8594-1.168-0.82422-0.72656-1.9023-0.92578-1.2656 1.082-1.2852 1.0078-1.7695 0.87109-0.49219 1.25-0.16797 1.6406-0.38281 1.0117-1.4102-1.2773-0.74219-0.78516-1.1172-1.0625-0.69141-1.8906-1.0703-2.918-0.78516-0.67188-1.5312-0.45703-1.1719 0.44922-0.98438 0.69922-1.0273 0.125-1.25 0.24609-0.87109 0.55859-1.2734 0.027344-1.0859-0.32812-1.4961-0.22266-1.25 0.67969-1.6836 0.69922-0.28906-1.8047 0.35938-1.2109 0.097656-1.0508-0.41016-3.418-0.97266-3.2266-0.65234-1.2812-1.0547-1.5586-1.0898-1.6602-1.1055-0.5-1.5742 0.46875-1.9805-0.25391-0.92969-0.64062-0.83594-0.85156-3.8047-6.0391-1.0078-1.625-2.582-2.7852-0.8125-0.75-2.1133-1.9492-1.0742-1.1719-2.0078-1.2148-1.9609-1.1289-2.8242-2.4492-1.3828-0.17578-3.0273-0.94922-2.5938 0.25781-1.125-0.058594-1.3984 0.38281-1.543-0.23828-1.1875 0.12891-1.3477-0.38672-1.6133-0.46094-1.2422 0.14453-0.78516 0.75781-1.0625-0.67578-1.207 0.4375-2.1328-2.1914-1.4141-1.7031-0.97656-0.71875-1.0977-0.20312-1.2109-3.168-1.2617-2.3672-0.66016-0.94922-0.39844-0.96875 0.042968-3.5586 0.32422-4.582-0.035156-2.9414-0.027344-2.3047 1.0508-1.5391 0.27344-1.1992 1.6992-2.0469 1.5312-1.9023 0.34375-1.2305 0.43359-1.5352 1.375-3.7383 0.28516-1.6172 0.42578-1.2578 0.85156-1.3203 1.2773-1.6914 0.55469-0.89453 1.6289-4.5 1.0938-5.1602 0.089844-3.1406 1.4102-3.7773 0.20312-2.2773-0.51953-2.9375 0.40234-1.0391 0.86719-1.3633 1.2383-1.5195 0.80859-2.4492 0.74609-1.2695 0.46094-1.0352 0.28125-1.1875 0.875-0.74609 0.60547-1.2109-0.26172-1.1797-1.6992-2.0195-1.2461-3.332-0.050782-1.25 0.51953-2.1055 0.44141-1.0508 0.46094-1.9102 0.68359-0.98047-0.35156-2.1016-0.79297-0.94141-4.6836-4.1328-0.69141-1.8086 0.15625-1.75-0.5-1.3281-0.57031-0.94141 0.51562-1.3281 0.90234-0.8125 0.96094-0.60938 4.7773-0.88281 2.0508 0.046875 1.1484 0.10938 2.3906-0.92188 0.87891-0.58984 0.55078-1.1367 1.4375-1.0703 0.91016-1.1484 1.3008-2.0547 1.043-1.4844 0.9375-1.1797 0.42969-1.0977 0.63281-1.2617 0.44141-0.9375 1.7852-3.207 0.25-1.2617 0.007813-1.1172-0.13281-1.4922 0.09375-1.5977 0.050782-1.2422 1.0547-1.4258 0.30469 0.023438" fill="none" stroke="#fff" stroke-linecap="round" stroke-linejoin="round" stroke-miterlimit="10" stroke-width="2"/>
<path d="m340.57 3.6172 1.4023 0.28906 1.3516 1.2695 1.5234 2.4648 1.4531 1.6719 1.7461 0.89062 1.1367 2.6133 0.28125 2.2227 0.70312 1.4297 2.4375 2.1406 2.5117 2.2031 0.55078 0.86719-0.007813 1.375 0.92188 1.8594 0.72656 0.94141 0.72656 0.9375 0.14062 1.2539 0.56641 2.2969 0.96094 1.7539 0.59375 1.4375 0.73047 2.0039 0.53516 0.85547 1.1094 1.2578 0.98438 1.3906 0.59766 1.6055-0.40625 1.8359-0.875 0.83594-0.59766 0.83203 1.4531 1.7305 0.86719 0.80078 1.7969 1.4297 1.9297 1.3828 1.5195 0.32031 1.6445-0.10547 1.0703 0.14844 1.2812 0.44922 1.6406 0.57422 1.5898 0.55859 2.2852-0.49219 1.3398-1.0352 0.90625-0.91016 0.33984-1.5156-0.40625-1.2617-1.2227-1.9023-1.582-1.793-1.4805-1.6445-0.074219-2.4844 0.94922-2.6641 0.67578-1.4609 0.33984-2.9727 0.17969-1.5547 1.0312-0.59375 2.6367-0.33203 1.2617-0.27734 1.0117-0.22266 1.043-0.35547 1.6445-0.73438 3.9766-1.7852 2.1758-0.73047 1.043-0.34766 1.25-0.48828 1.3164 0.35547 2.4453 0.65234 1.3672 0.65625 1.5469 0.71094 0.92578 1.3086 0.47656 1.6016 0.31641 1.1172 0.63672 1.1289 1.3438 0.45703 2.125 0.59375 1.0977 0.58203 1.0234 1.25 0.20312 1.1914 0.79297 0.9375 0.75781 1.2031 0.50781 1.168 3.2344 1.2656 3.9844 0.70312 2.0859 0.13672 1.8125-0.046875 2.3164-0.61719 1.2617-0.71484 4.1602 1.6641 0.98438 0.69141 1.3359 1.4766 1.1641 2.3125-0.32812 2.2422-0.69922 2.6016 0.011719 1.6211 0.10156 1.3789 1.5039 1.2969 1.7617 0.73828 1.5586 0.082031 1.957 0.55078 0.87109 0.63672 0.68359 1.2188 0.24609 1.5312 0.75 1.7227 0.22656 1.6914-0.0625 1.2031-0.09375 1.875-0.35547 2.3477 0.20312 1.0117 0.68359 1.1016-0.13672 1.168 0.50781 1.5039 2.2109 3.5117 1.1055 1.7383 0.58203 1.9492-0.03125 1.1641-0.98438 2.6758-0.4375 1.1094-0.24609 3.1289-0.042968 2.8945 0.30078 2.4883 0.21875 0.99609-0.54688 1.3555-2.3086-0.26172-1.2578-0.96875-1.0234-0.11719-1.4609 1.1406-2.0742 1.6211-1.5352 0.69531-1.0117 0.45703-1.2969 0.48047-0.65625 0.85938-3.4023 1.3516-1.4336 0.53516-2.8711 1.5703-0.85156 0.99609-1.1406 0.44141-1.2891 0.72266-1.4961 0.10156-2.6719 0.5-2.0117 0.62891-2.1406-0.015625-1.0117 0.46484-0.23438 1.2617 0.38281 1.0391 0.53906 0.92188 0.33594 1.0625 0.039062 1.0938 0.77344 0.64062 0.77734 0.68359 0.625 0.87891 0.22266 1.0547-0.21484 1.0742-0.86719 0.70703-0.33984 1.0781-0.97656 0.53516-0.65625 0.85547-0.30859 1.1016-0.14844 1.1133 0.58984 0.94922 0.40234 1.0391-0.17188 1.1133-0.35547 0.9375 0.21875 1.0234 0.52734 0.91016-0.097657 1.1562-0.12109 1.1641 0.48047 0.99609 0.40234 0.98828 0.14062 1.0742-0.09375 0.99609-0.14844 1.0742-0.050782 1.0234 0.1875 1-0.12109 1.0117-0.078125 1.0312 0.75 0.75391-0.45703 1.0156 0.5625 0.86328 0.57812 1.0547 0.0625 1.0898-0.91797 0.43359-1.0625 0.0625-0.19922 1.0352-0.62109 0.78906-0.60156 0.80469-1.1836 0.46484-1.0039 0.36719-0.73828 0.72656-0.29297 1.0391-0.61719 0.82422-0.78125 0.82422-0.92578 0.55469-0.26953 1.0859-0.25391 1.0742-0.1875 1.1992-0.75 0.79297-0.80078 0.61719-1.168 0.003906-0.99219 0.49219-0.85156 0.57031-0.96484 1.1562 0.023437 1.0078 0.33203 1.3125-0.61328 1.1406-0.21094 1.2656-0.24219 1.375-0.64453 0.94922-1.8906 3.0742-1.2734 1.9219-3.5273 5.3906-3.6289 5.6602-1.6953 2.7461-4.1211 6.3555-1.1094 1.8516-2.0859 3.2773-2.3555 3.6055-3.8867 6.1211-2.7109 4.2344-2.5469 4.0703-1.2422 1.8555-1.0781 1.7188-3.7891 6.0547-1.832 2.8672-4.3438 6.7969-1.6992 2.6133-1.4023 2.2188-1.5391 2.4805-2.3164 3.4414-1.5391 2.3164-0.55078 1.0586 1.8438-0.54297 1.6289-0.042969 2.793 1.1836 0.99219 1.0469 0.76953 1.1016 1.7461 2.0195 2.668 1.1719 2.8867 0.58594 0.95312 0.35938-0.015625 1.6523-0.17188 1.4023-0.69531 0.80078-0.65234 0.89453-0.77344 0.97656-0.44141 1.293-0.51562 0.97656-0.96484 0.84766-1.0352 0.71484-0.31641 0.98047 0.20312 1.2305-0.058594 1.2266-0.1875 1.3633-0.96484 0.96875-0.70703 0.85156-0.83984 0.64844-0.62109 0.79688-0.61328 0.80859-0.48047 1.0469-0.54688 1.0664-0.51172 0.94531-0.37891 1.0391-0.51172 0.91016-0.16016 1.1328-0.60156 1.4297 0.011719 1.1016 0.64062 0.83594-0.44531 0.94141-0.90234 0.81641-0.90234 1.0391-0.41406 1.0742 0.16797 1.1289 0.84375 0.76953 0.75781 0.76953 0.44922 0.97656 0.625 1.4258-0.28906 1.4219 0.69141 1.1328-1.0039 0.55078-1.4531-0.12109-0.67969 0.94141-0.50391 1.3438-0.042968 1.1953-0.042969 1 0.30469 1.1602-0.32812 1.2695 0.19922 1-0.41406 1.0391-0.25 1.1719-0.77734 1.0039-0.87109 0.64844-0.96484 0.625-0.99609 0.81641-0.64062 0.80859-0.71484 0.94922-0.54297 0.90234-0.73438 0.81641-0.90234 0.58984-0.51172 1.293-0.83203 0.74609-0.42188 1.2695-0.16016 1.1992 0.21875 1.7812 0.13672 1.1875-1.0781 1.707-0.125 1.0859-0.33984 1.207-0.35156 1.2383-0.67188 0.74219-1.1289 0.36719-1.168 0.32812-1.293 0.19922-1.0273 0.78125-1.2266 0.23438-1.0078-0.51562-0.48828-1.0039-0.75-0.8125-0.87891-0.87109-0.78906-0.86328-0.95703-0.40234-1.0234-0.28125-0.94141-0.35547-1.0039-0.36719-1.168-0.023438-1.1992-0.42578-1.2109-0.37891-1.0117-0.19922-1.1758 0.37891-1.0938 0.30078-1.0781 0.34375-1.168-0.22656-0.96875-0.29688-1.0352 0.085937-1.1523-0.30469-0.99219-0.12109-1.1328-0.21094-0.96094-0.44922-0.96875 0.36719-1.0508 0.47266-1.0508 0.23438-0.98438 0.73438-1.1797 0.23047-1.0586 0.13281-1.4414 1.1641-1.0391-0.10156-1.1211 0.48047-1.1289-0.11719-0.75-0.70703-1.0391-0.51953-1.0508-0.41797-0.8125-0.75781-0.99609-0.9375-0.53906-0.91797-0.84375-0.61328-1.2188-0.18359-0.69531-0.77734-0.41797-1.1367-0.92578-0.80469-0.96875-0.5-0.99609-0.33594-0.76172-0.67188-0.19531-1.0703-0.26562-1.1367-1.0742-0.625-0.95703-0.63281-0.65625-0.77344-0.66406-0.77734-0.71484-0.90234 0.070313-1.1133-0.16797-1.0234-0.85938-0.61328-1.2109-0.25391-0.85156-0.74609-1-0.28125-1.2031-0.22266-1.0078-0.57422-0.79297-0.74609-1.0742-0.35156-0.72656-0.74219-0.45312-0.99609 0.42188-1.0078 0.5625-0.91016 0.83984-0.62891 0.66016-0.89453-0.15625-1.0664-0.90625-0.51953-0.87109-0.52734-0.75391-0.74609-0.76172-0.86328-2.1719-0.38281-1.0391-0.44922-0.71875-0.89062-0.33203-1.2109-0.52344-0.89062-0.79297-0.69531-0.19922-1.0664-0.83984-0.75391-1.0352-0.1875-1.1328 0.011718-1.2031-1.0469-0.96875-0.60156-1.2031 0.21875-0.94922 0.9375-0.88281 0.625-0.61328 1.1836-0.78906 0.70312-0.63672-0.97266-0.98828-0.61719-0.98828-0.91406-1.0273-0.37891-0.30078-1.0078-0.60156-0.85938-1.5195-1.5078-0.96484-0.74609-1.2383-0.68359-1.3672-0.70312-0.95703-0.33984-1.2812-0.09375-1.2031-0.92578-1.707-0.39062-1.457-0.57031-0.71484-0.75781-0.3125-1.0352-0.63281-0.98047-1.0039-0.71875-0.46094-0.96875 0.30469-1.1797-0.027344-1.1016-0.68359-1.043-1.3984-0.46875-1.1211-0.30469-1.2617 0.29688-1.2656 0.13281-1.168 0.082031-0.89453 0.52734-0.59766 0.84766-0.97266 0.51172-1.1641-0.0625-0.88672-0.85547-1.1484 0.046875-1.1328 0.18359-1.1055 0.011719-1.2383-0.89062-0.92188-0.62109-1.1289-0.17969-1.2188-0.20312-1.3086-0.55469-0.78125-0.66406-0.27734-0.96094-0.33203-1.6445-0.97656-0.52734-0.97266 0.71484-1.0703 0.12109-1.0078-0.75391-1.1758-0.51172-1.2344 0.042969-2.5156-1.8164-0.93359-0.66016-1.1289-0.12891-0.86719-0.52734-0.11719-1-0.76953-0.75-1.0312-0.35938-1.6289-0.050782-1.3438 0.22656-1.1758-0.48828-1.3203-0.53516-1.2305-0.027343-1.6211 0.066406-1.1328 0.26562-1.2539 0.16797-0.98438-0.31641-1.2773-0.51953-1.3984-1.125-1.1016-0.27344-0.86328-0.76172-1.2578-0.28516-1.0586-0.18359-1.0391-0.30469-1.2148-0.26562-1.0156 0.007813-1.4844-0.29297-1.3359 0.55859-0.62109 0.82422-1.1016 0.67969-1.082-0.22656-1.5859-0.14453-1.0859-0.85547-0.38672-1.1094 0.51953-1.4414-0.28906-1.5352-1.4727-0.79688-1.0742-0.86328-1.168-1.207-1.3164-0.80078-1.082-0.4375-1.1289-0.19922-1.3359 0.023437-1.4141-0.89453-1.1719-0.46875-2.0977-1.1445-1.1445-0.51953-1.3984-1.4766 0.10938-1.6836 0.22656-1.1484 0.31641-1.1055 0.15625-1.3203-1.2539-0.15625-0.99219 0.30859-1.6133 0.82422-1.2148-0.46875-0.26953-1.0234-0.73828-1.3555-1.0781-0.19141-1.2188-0.41406 0.15625-1.3164 0.99219 0.39062 1.6953-0.34375 0.95312-0.54297 0.61719-0.83984 0.28125-1.1953 0.73438-0.72266 0.50391-0.94141 0.80469-0.62109 1.2188-0.37109 1.25-0.65234 0.99609-0.32422 0.80078-1.1602 1.3125-1.7383 0.65625-0.98438 1.1992-0.34766 0.44531-1.2461 0.98438-0.65625 1.4102-0.84766 0.98438-0.32812 1.4414-0.875 0.73047-1.2031 0.87891-0.64062 0.65625-0.80078 1.125-0.79688 0.58984-0.94531 1.0859-2.0117 1.0039-2.4844 3.2539-1.3008 0.019532-1.207 0.097656-1.8867 0.51562-1.9258 0.16797-1.4688 0.41016-1.7148 0.41016-1.5156 0.69141-1.5273 1.1406-1.5273 1.8398-2.8945 4-5.7969 0.49609-1.0586 0.77344-1.043 0.60938-2.0469 0.62891-1.3945 4.0859-1.6328 0.73438-0.75781 1.0781-1.8594 0.75-0.875 0.99219-1.3281 0.85156-1.4805 1.2109-1.5078 1.6719-0.33203 2.4805-0.078125 4.5078-0.26953 1.3008-0.21875 1.6211-0.38672 1.1055-0.21484 1.4023-0.27734 1.2461-0.24219 2.3945-0.10938 1.6523-0.70703 0.89844-0.58984 1.0156-0.49609 1.5039 0.09375 1.7461 0.10156 1.9883-0.63672 1.8906-0.55078 1.2188-0.34766 0.96094-0.97266-0.72656-2.5586 0.12891-3.0195-0.085937-1.1641-0.33594-1.3633 0.66406-0.93359 0.89453-1.8164-0.10156-1.1641-1.5898-1.6133-0.87891-1.0625 0.027344-1.0664-0.32812-1.4648 0.15625-1.1016-0.13672-1.5547-0.78125-1.418-0.45703-1.0664-0.91406-1.7109-0.19922-1.2969-0.65234-1.1602-0.58594-0.96875-0.58594-1.0664-0.035156-1.3594 0.41406-1.3281-0.050781-1.3203 0.30078-1.375 0.64453-1.7188 0.25781-1.1602 0.039063-1.0039-1.043-0.64062-1.3672-0.67578-0.87891-0.91797-0.25391-1.3086-1.1602-1.1953-1.3516-0.82031-1.207-0.86719 1.0508-0.95312 1.8516 0.10938 2.1523-0.85547 1.5195-1.5742 0.41406-1.4102 1.0781-2.125 0.35156-1.8711 0.79297-0.85938 0.10547-1.0938 0.77734-1.3438 0.80469-1.4648 0.51953-1.1094 1.4531-1.9492 0.29297-1.4375 1.2734-1.4062 1.6602-0.64844 2.3203-0.88672 0.46875-0.96484-0.74609-1.4062-1.1641-2.0391-1.543-3.6719-0.55859-0.88672-0.96875-0.51562 5.1172-1.2969 2.8086-1.0742 1.9844-0.49609 3.7695-0.25391 1.2188-1.1367 1.9805-1.0312 1.7305-1.8945 1.8555-1.3203 1.1172-0.35156 1.9727 1.5078 2.1445 0.90625 2.1016-0.25 2.4336 0.042968 1.4414-0.125 1.8125 0.20703 2.0977-0.40625 1.6875-0.83203 1.668-0.046875 1.3398-0.46094 1.6211-0.64844 1.0859-1.5039 1.7344-1.6172 1.4219-1.9609 0.61719-1.2188 0.16797-1.7344-0.62109-1.1953 0.45312-1.8555 0.41406-1.6484 0.48438-1.9805 2.1133-2.1797 1.3164-1.0312 0.082031-2.2539 1.8164-0.21875 0.78125-1.2383 0.94922-0.94922 1.5664-0.32812 2.7188-0.78516 1.0352-0.55469 1.6875-1.875 1.7305-1.0312 0.82422-0.69922 0.86719-1.0312 1.6875-0.20703 1.0742-0.61719 0.78125-0.82422 0.53516-0.90625 0.91016-1.2812 1.0195-1.1797 0.87109-1.3789 2.0312-0.65625 1.8281-0.52344 0.35156-2.668 0.94141-1.4531 1.4062-1.5273 1.4453-3.6992 5.207-2.1758 0.95703-4.9258 0.49609-1.7539 0.53906-2.1562 0.61719-1.082 1.0859-0.88281 0.48438-1.0547 0.58984-1.1328 1.1367-0.47266 1.1367-0.36719 1.3047-0.92578 0.69531-0.80859 0.14844-1.1445 0.41016-1.0391-0.03125-1.0312 0.64453-0.78125 0.046875-1.6094-0.24219-1.0898-0.67578-1.8672 0.17188-1.6875 0.45703-1.1367 1.0859-0.29297 13.152-6.0156z" fill="#ccc" fill-rule="evenodd"/>
<path d="m340.57 3.6172 1.4023 0.28906 1.3516 1.2695 1.5234 2.4648 1.4531 1.6719 1.7461 0.89062 1.1367 2.6133 0.28125 2.2227 0.70312 1.4297 2.4375 2.1406 2.5117 2.2031 0.55078 0.86719-0.007813 1.375 0.92188 1.8594 0.72656 0.94141 0.72656 0.9375 0.14062 1.2539 0.56641 2.2969 0.96094 1.7539 0.59375 1.4375 0.73047 2.0039 0.53516 0.85547 1.1094 1.2578 0.98438 1.3906 0.59766 1.6055-0.40625 1.8359-0.875 0.83594-0.59766 0.83203 1.4531 1.7305 0.86719 0.80078 1.7969 1.4297 1.9297 1.3828 1.5195 0.32031 1.6445-0.10547 1.0703 0.14844 1.2812 0.44922 1.6406 0.57422 1.5898 0.55859 2.2852-0.49219 1.3398-1.0352 0.90625-0.91016 0.33984-1.5156-0.40625-1.2617-1.2227-1.9023-1.582-1.793-1.4805-1.6445-0.074219-2.4844 0.94922-2.6641 0.67578-1.4609 0.33984-2.9727 0.17969-1.5547 1.0312-0.59375 2.6367-0.33203 1.2617-0.27734 1.0117-0.22266 1.043-0.35547 1.6445-0.73438 3.9766-1.7852 2.1758-0.73047 1.043-0.34766 1.25-0.48828 1.3164 0.35547 2.4453 0.65234 1.3672 0.65625 1.5469 0.71094 0.92578 1.3086 0.47656 1.6016 0.31641 1.1172 0.63672 1.1289 1.3438 0.45703 2.125 0.59375 1.0977 0.58203 1.0234 1.25 0.20312 1.1914 0.79297 0.9375 0.75781 1.2031 0.50781 1.168 3.2344 1.2656 3.9844 0.70312 2.0859 0.13672 1.8125-0.046875 2.3164-0.61719 1.2617-0.71484 4.1602 1.6641 0.98438 0.69141 1.3359 1.4766 1.1641 2.3125-0.32812 2.2422-0.69922 2.6016 0.011719 1.6211 0.10156 1.3789 1.5039 1.2969 1.7617 0.73828 1.5586 0.082031 1.957 0.55078 0.87109 0.63672 0.68359 1.2188 0.24609 1.5312 0.75 1.7227 0.22656 1.6914-0.0625 1.2031-0.09375 1.875-0.35547 2.3477 0.20312 1.0117 0.68359 1.1016-0.13672 1.168 0.50781 1.5039 2.2109 3.5117 1.1055 1.7383 0.58203 1.9492-0.03125 1.1641-0.98438 2.6758-0.4375 1.1094-0.24609 3.1289-0.042968 2.8945 0.30078 2.4883 0.21875 0.99609-0.54688 1.3555-2.3086-0.26172-1.2578-0.96875-1.0234-0.11719-1.4609 1.1406-2.0742 1.6211-1.5352 0.69531-1.0117 0.45703-1.2969 0.48047-0.65625 0.85938-3.4023 1.3516-1.4336 0.53516-2.8711 1.5703-0.85156 0.99609-1.1406 0.44141-1.2891 0.72266-1.4961 0.10156-2.6719 0.5-2.0117 0.62891-2.1406-0.015625-1.0117 0.46484-0.23438 1.2617 0.38281 1.0391 0.53906 0.92188 0.33594 1.0625 0.039062 1.0938 0.77344 0.64062 0.77734 0.68359 0.625 0.87891 0.22266 1.0547-0.21484 1.0742-0.86719 0.70703-0.33984 1.0781-0.97656 0.53516-0.65625 0.85547-0.30859 1.1016-0.14844 1.1133 0.58984 0.94922 0.40234 1.0391-0.17188 1.1133-0.35547 0.9375 0.21875 1.0234 0.52734 0.91016-0.097657 1.1562-0.12109 1.1641 0.48047 0.99609 0.40234 0.98828 0.14062 1.0742-0.09375 0.99609-0.14844 1.0742-0.050782 1.0234 0.1875 1-0.12109 1.0117-0.078125 1.0312 0.75 0.75391-0.45703 1.0156 0.5625 0.86328 0.57812 1.0547 0.0625 1.0898-0.91797 0.43359-1.0625 0.0625-0.19922 1.0352-0.62109 0.78906-0.60156 0.80469-1.1836 0.46484-1.0039 0.36719-0.73828 0.72656-0.29297 1.0391-0.61719 0.82422-0.78125 0.82422-0.92578 0.55469-0.26953 1.0859-0.25391 1.0742-0.1875 1.1992-0.75 0.79297-0.80078 0.61719-1.168 0.003906-0.99219 0.49219-0.85156 0.57031-0.96484 1.1562 0.023437 1.0078 0.33203 1.3125-0.61328 1.1406-0.21094 1.2656-0.24219 1.375-0.64453 0.94922-1.8906 3.0742-1.2734 1.9219-3.5273 5.3906-3.6289 5.6602-1.6953 2.7461-4.1211 6.3555-1.1094 1.8516-2.0859 3.2773-2.3555 3.6055-3.8867 6.1211-2.7109 4.2344-2.5469 4.0703-1.2422 1.8555-1.0781 1.7188-3.7891 6.0547-1.832 2.8672-4.3438 6.7969-1.6992 2.6133-1.4023 2.2188-1.5391 2.4805-2.3164 3.4414-1.5391 2.3164-0.55078 1.0586 1.8438-0.54297 1.6289-0.042969 2.793 1.1836 0.99219 1.0469 0.76953 1.1016 1.7461 2.0195 2.668 1.1719 2.8867 0.58594 0.95312 0.35938-0.015625 1.6523-0.17188 1.4023-0.69531 0.80078-0.65234 0.89453-0.77344 0.97656-0.44141 1.293-0.51562 0.97656-0.96484 0.84766-1.0352 0.71484-0.31641 0.98047 0.20312 1.2305-0.058594 1.2266-0.1875 1.3633-0.96484 0.96875-0.70703 0.85156-0.83984 0.64844-0.62109 0.79688-0.61328 0.80859-0.48047 1.0469-0.54688 1.0664-0.51172 0.94531-0.37891 1.0391-0.51172 0.91016-0.16016 1.1328-0.60156 1.4297 0.011719 1.1016 0.64062 0.83594-0.44531 0.94141-0.90234 0.81641-0.90234 1.0391-0.41406 1.0742 0.16797 1.1289 0.84375 0.76953 0.75781 0.76953 0.44922 0.97656 0.625 1.4258-0.28906 1.4219 0.69141 1.1328-1.0039 0.55078-1.4531-0.12109-0.67969 0.94141-0.50391 1.3438-0.042968 1.1953-0.042969 1 0.30469 1.1602-0.32812 1.2695 0.19922 1-0.41406 1.0391-0.25 1.1719-0.77734 1.0039-0.87109 0.64844-0.96484 0.625-0.99609 0.81641-0.64062 0.80859-0.71484 0.94922-0.54297 0.90234-0.73438 0.81641-0.90234 0.58984-0.51172 1.293-0.83203 0.74609-0.42188 1.2695-0.16016 1.1992 0.21875 1.7812 0.13672 1.1875-1.0781 1.707-0.125 1.0859-0.33984 1.207-0.35156 1.2383-0.67188 0.74219-1.1289 0.36719-1.168 0.32812-1.293 0.19922-1.0273 0.78125-1.2266 0.23438-1.0078-0.51562-0.48828-1.0039-0.75-0.8125-0.87891-0.87109-0.78906-0.86328-0.95703-0.40234-1.0234-0.28125-0.94141-0.35547-1.0039-0.36719-1.168-0.023438-1.1992-0.42578-1.2109-0.37891-1.0117-0.19922-1.1758 0.37891-1.0938 0.30078-1.0781 0.34375-1.168-0.22656-0.96875-0.29688-1.0352 0.085937-1.1523-0.30469-0.99219-0.12109-1.1328-0.21094-0.96094-0.44922-0.96875 0.36719-1.0508 0.47266-1.0508 0.23438-0.98438 0.73438-1.1797 0.23047-1.0586 0.13281-1.4414 1.1641-1.0391-0.10156-1.1211 0.48047-1.1289-0.11719-0.75-0.70703-1.0391-0.51953-1.0508-0.41797-0.8125-0.75781-0.99609-0.9375-0.53906-0.91797-0.84375-0.61328-1.2188-0.18359-0.69531-0.77734-0.41797-1.1367-0.92578-0.80469-0.96875-0.5-0.99609-0.33594-0.76172-0.67188-0.19531-1.0703-0.26562-1.1367-1.0742-0.625-0.95703-0.63281-0.65625-0.77344-0.66406-0.77734-0.71484-0.90234 0.070313-1.1133-0.16797-1.0234-0.85938-0.61328-1.2109-0.25391-0.85156-0.74609-1-0.28125-1.2031-0.22266-1.0078-0.57422-0.79297-0.74609-1.0742-0.35156-0.72656-0.74219-0.45312-0.99609 0.42188-1.0078 0.5625-0.91016 0.83984-0.62891 0.66016-0.89453-0.15625-1.0664-0.90625-0.51953-0.87109-0.52734-0.75391-0.74609-0.76172-0.86328-2.1719-0.38281-1.0391-0.44922-0.71875-0.89062-0.33203-1.2109-0.52344-0.89062-0.79297-0.69531-0.19922-1.0664-0.83984-0.75391-1.0352-0.1875-1.1328 0.011718-1.2031-1.0469-0.96875-0.60156-1.2031 0.21875-0.94922 0.9375-0.88281 0.625-0.61328 1.1836-0.78906 0.70312-0.63672-0.97266-0.98828-0.61719-0.98828-0.91406-1.0273-0.37891-0.30078-1.0078-0.60156-0.85938-1.5195-1.5078-0.96484-0.74609-1.2383-0.68359-1.3672-0.70312-0.95703-0.33984-1.2812-0.09375-1.2031-0.92578-1.707-0.39062-1.457-0.57031-0.71484-0.75781-0.3125-1.0352-0.63281-0.98047-1.0039-0.71875-0.46094-0.96875 0.30469-1.1797-0.027344-1.1016-0.68359-1.043-1.3984-0.46875-1.1211-0.30469-1.2617 0.29688-1.2656 0.13281-1.168 0.082031-0.89453 0.52734-0.59766 0.84766-0.97266 0.51172-1.1641-0.0625-0.88672-0.85547-1.1484 0.046875-1.1328 0.18359-1.1055 0.011719-1.2383-0.89062-0.92188-0.62109-1.1289-0.17969-1.2188-0.20312-1.3086-0.55469-0.78125-0.66406-0.27734-0.96094-0.33203-1.6445-0.97656-0.52734-0.97266 0.71484-1.0703 0.12109-1.0078-0.75391-1.1758-0.51172-1.2344 0.042969-2.5156-1.8164-0.93359-0.66016-1.1289-0.12891-0.86719-0.52734-0.11719-1-0.76953-0.75-1.0312-0.35938-1.6289-0.050782-1.3438 0.22656-1.1758-0.48828-1.3203-0.53516-1.2305-0.027343-1.6211 0.066406-1.1328 0.26562-1.2539 0.16797-0.98438-0.31641-1.2773-0.51953-1.3984-1.125-1.1016-0.27344-0.86328-0.76172-1.2578-0.28516-1.0586-0.18359-1.0391-0.30469-1.2148-0.26562-1.0156 0.007813-1.4844-0.29297-1.3359 0.55859-0.62109 0.82422-1.1016 0.67969-1.082-0.22656-1.5859-0.14453-1.0859-0.85547-0.38672-1.1094 0.51953-1.4414-0.28906-1.5352-1.4727-0.79688-1.0742-0.86328-1.168-1.207-1.3164-0.80078-1.082-0.4375-1.1289-0.19922-1.3359 0.023437-1.4141-0.89453-1.1719-0.46875-2.0977-1.1445-1.1445-0.51953-1.3984-1.4766 0.10938-1.6836 0.22656-1.1484 0.31641-1.1055 0.15625-1.3203-1.2539-0.15625-0.99219 0.30859-1.6133 0.82422-1.2148-0.46875-0.26953-1.0234-0.73828-1.3555-1.0781-0.19141-1.2188-0.41406 0.15625-1.3164 0.99219 0.39062 1.6953-0.34375 0.95312-0.54297 0.61719-0.83984 0.28125-1.1953 0.73438-0.72266 0.50391-0.94141 0.80469-0.62109 1.2188-0.37109 1.25-0.65234 0.99609-0.32422 0.80078-1.1602 1.3125-1.7383 0.65625-0.98438 1.1992-0.34766 0.44531-1.2461 0.98438-0.65625 1.4102-0.84766 0.98438-0.32812 1.4414-0.875 0.73047-1.2031 0.87891-0.64062 0.65625-0.80078 1.125-0.79688 0.58984-0.94531 1.0859-2.0117 1.0039-2.4844 3.2539-1.3008 0.019532-1.207 0.097656-1.8867 0.51562-1.9258 0.16797-1.4688 0.41016-1.7148 0.41016-1.5156 0.69141-1.5273 1.1406-1.5273 1.8398-2.8945 4-5.7969 0.49609-1.0586 0.77344-1.043 0.60938-2.0469 0.62891-1.3945 4.0859-1.6328 0.73438-0.75781 1.0781-1.8594 0.75-0.875 0.99219-1.3281 0.85156-1.4805 1.2109-1.5078 1.6719-0.33203 2.4805-0.078125 4.5078-0.26953 1.3008-0.21875 1.6211-0.38672 1.1055-0.21484 1.4023-0.27734 1.2461-0.24219 2.3945-0.10938 1.6523-0.70703 0.89844-0.58984 1.0156-0.49609 1.5039 0.09375 1.7461 0.10156 1.9883-0.63672 1.8906-0.55078 1.2188-0.34766 0.96094-0.97266-0.72656-2.5586 0.12891-3.0195-0.085937-1.1641-0.33594-1.3633 0.66406-0.93359 0.89453-1.8164-0.10156-1.1641-1.5898-1.6133-0.87891-1.0625 0.027344-1.0664-0.32812-1.4648 0.15625-1.1016-0.13672-1.5547-0.78125-1.418-0.45703-1.0664-0.91406-1.7109-0.19922-1.2969-0.65234-1.1602-0.58594-0.96875-0.58594-1.0664-0.035156-1.3594 0.41406-1.3281-0.050781-1.3203 0.30078-1.375 0.64453-1.7188 0.25781-1.1602 0.039063-1.0039-1.043-0.64062-1.3672-0.67578-0.87891-0.91797-0.25391-1.3086-1.1602-1.1953-1.3516-0.82031-1.207-0.86719 1.0508-0.95312 1.8516 0.10938 2.1523-0.85547 1.5195-1.5742 0.41406-1.4102 1.0781-2.125 0.35156-1.8711 0.79297-0.85938 0.10547-1.0938 0.77734-1.3438 0.80469-1.4648 0.51953-1.1094 1.4531-1.9492 0.29297-1.4375 1.2734-1.4062 1.6602-0.64844 2.3203-0.88672 0.46875-0.96484-0.74609-1.4062-1.1641-2.0391-1.543-3.6719-0.55859-0.88672-0.96875-0.51562 5.1172-1.2969 2.8086-1.0742 1.9844-0.49609 3.7695-0.25391 1.2188-1.1367 1.9805-1.0312 1.7305-1.8945 1.8555-1.3203 1.1172-0.35156 1.9727 1.5078 2.1445 0.90625 2.1016-0.25 2.4336 0.042968 1.4414-0.125 1.8125 0.20703 2.0977-0.40625 1.6875-0.83203 1.668-0.046875 1.3398-0.46094 1.6211-0.64844 1.0859-1.5039 1.7344-1.6172 1.4219-1.9609 0.61719-1.2188 0.16797-1.7344-0.62109-1.1953 0.45312-1.8555 0.41406-1.6484 0.48438-1.9805 2.1133-2.1797 1.3164-1.0312 0.082031-2.2539 1.8164-0.21875 0.78125-1.2383 0.94922-0.94922 1.5664-0.32812 2.7188-0.78516 1.0352-0.55469 1.6875-1.875 1.7305-1.0312 0.82422-0.69922 0.86719-1.0312 1.6875-0.20703 1.0742-0.61719 0.78125-0.82422 0.53516-0.90625 0.91016-1.2812 1.0195-1.1797 0.87109-1.3789 2.0312-0.65625 1.8281-0.52344 0.35156-2.668 0.94141-1.4531 1.4062-1.5273 1.4453-3.6992 5.207-2.1758 0.95703-4.9258 0.49609-1.7539 0.53906-2.1562 0.61719-1.082 1.0859-0.88281 0.48438-1.0547 0.58984-1.1328 1.1367-0.47266 1.1367-0.36719 1.3047-0.92578 0.69531-0.80859 0.14844-1.1445 0.41016-1.0391-0.03125-1.0312 0.64453-0.78125 0.046875-1.6094-0.24219-1.0898-0.67578-1.8672 0.17188-1.6875 0.45703-1.1367 1.0859-0.29297 13.152-6.0156 1.1992 0.92188" fill="none" stroke="#fff" stroke-linecap="round" stroke-linejoin="round" stroke-miterlimit="10" stroke-width="2"/>
<path d="m171.66 358.51 0.20312 0.37109 1.0117 1.7305 0.39453 1.1602 0.42188 1.2422 1.1484 1.7852 1.0625 0.83984 1.7578 0.32422 1.9727 0.33984 2.9102 0.98828 1.4727 1.0312 1.0352 0.72266 1.5938 0.75 1.457 0.68359 1.8438 0.20312 1.582 1.0586 0.89844 0.56641 0.92969 0.38672 3.7266 0.53906 1.625 0.32812 1.6992 0.042969 1.1797 0.38281 0.51172 1.3594 0.22656 1.5312 0.72656 0.73438 0.85156 0.90625-0.13281 1.4141 1.1797 0.87109 0.5 1.8281 1.0352 1.0625 1.6055 0.42969 0.5 0.92188 0.22266 1.1758 1.9805 1.668 0.67578 1.0352 0.60938 1.3516 0.55469 0.91406 2.0117 0.90625 1.2109 0.17969 1.3125 0.56641 0.78906 1.4219 0.89844 0.47656 1.1094 0.55469 0.30469 1.0977 0.66016 1.2031 1.0117 0.69531 1.1875 0.57031 1.3438 0.63672 1.0117 0.16406 1.1328 0.41406 0.81641 0.66406 1.9727 1.9727 1.0703 0.76953 1.2461 0.98047 0.59375 1.3438 1.2188 1.6719 0.94141 1.0117 1.3398 0.76172 1.6914 0.64844 2.6953 2.6211 1.2695 1.5703 0.66406 1.207 0.63281 1.8008 0.20312 1.0234 0.33203 1.6602 0.30078 2.4102 0.33594 1.2188 1.7383 1.5781-1.0039-0.24609-1.5312-0.41016-1.1016 0.66406-0.88672 1.7109-0.41016 1.7773-0.48828 1.2188-0.98828 0.94531-1.1484 0.58203-1.4648 1.1875 0.14844 2.0078-0.14844 1.1836-0.98828 0.53516-1.125 0.78516-1.3125-0.10156-1.5781-0.76172-1.5898-0.85156-0.89062-0.82812-1.3594-0.5-1.2148-0.14453-1.2461 0.066406-1.6055 0.085937-1.8945 0.10156-2.3398 0.375-2.2812 0.83594-1.3711 0.69922-1.7969 0.33203-1.6328 0.027344-1.4375 0.66016-1.8125 0.41406-1.0234 0.64062-0.92969 1.2734-1.3789 1.7617-1.543 1.2539-1.4258 1.1914-0.80469 0.68359-0.88672 0.68359-1.2031 2.3242-1.2031 1.4609-1.125 1.7578-0.14453 1.0391 0.21875 2 0.082031 2.8008-0.16406 1.832-0.27344 2.8828-0.38281 1.2148-0.82812 0.92188-1.0586 1.7812 0.54297 1.0898 0.86328 0.67578 0.29688 1.5273-0.039063 1.4961 0.52344 0.87109 0.41016 1.543-0.18359 1.1914-0.24609 1.8086-0.99219 1.4609-0.78516 1.1758-0.30078 1.2109 0.09375 1.6992 0.27344 1.3047-0.10938 1.1953-0.17188 1.0234-0.14062 1.0547-1.3125 0.40234-1.1875 0.14453-1.1016-0.16797-1.1055 0.4375-1.625-0.49219-1.3555 0.34766-0.92188 0.57422-1.0391 0.10938-1.1836 0.89062-1.0742 0.74219-1.0234 1.2227-0.92578 0.76172-1.2266 0.81641-0.72266 0.86719-1.6797 0.42969-1.6523 0.16016-1.375 0.17578-1.1523 0.92969-1.1719 0.32812-1.0156 0.20312-0.48438 0.91406-1.0742 0.65625-1.0273 0.23438-1.6445-0.33203-1.6172-0.83984-0.88672-1.1211-0.66797-1.6914-1.3164-1.2422-1.1055-0.96484-0.76562-0.72266-1.9297-0.47656-0.96875-1.4844-0.32422-1.5977 0.058593-1.207-0.51953-1.1953-0.96875-0.8125-1.1289-1.1992-0.92188-0.50391-1.1992-0.67188-1.1016-0.875-1.0273-0.70312-0.6875-0.76953-0.78906-0.79297-0.89453-0.84375-0.83594-0.84766-1.1562-0.91016-1.3398-0.57031-0.99219-0.88672-0.83594-0.91406-1.0195-0.9375-0.51562-1.0039 0.035156-1.4297 0.015625-1.1719-0.40234-1.3867-1.0156-0.25781-1.3594 0.23047-1.2539-0.37109-1.0664-0.40234-0.82812-0.69141-0.75-1.2461-0.83203-1.6797-0.046875-1.5312 0.45312-1.6016 0.34766-1.4141 0.24219-1.0938-0.24219-1.6562-0.82812-1.2344-0.94922-1.0352-1.3008-1.0625-1.2656-0.36328-1.1328-0.55078-1.1406-0.94531-1.5977-0.76953-1.5234 0.007813-1.1836-0.21875-1.0078-0.70703-0.078125-1.2188 0.60156-1.2891 0.023437-1.5586-0.47266-2.3711-0.39453-1.3594-0.94141-1.1641-1.2578-0.09375-1.1797 0.35156-1.1094-0.40625-1.0156-0.67969-0.41016-1.1875-0.27734-1.8672-0.12891-1.332-0.99609-1.1992-1.1289-1.1289-1.0156-0.90625-1.0352 0.058594-1.1836 0.35156-1.1445 0.3125-1.2383-0.16797 0.60547-0.94922 0.050782-1.1484 0.10938-1.0312 0.92969-1.0586 1.9414-1.0977 0.78125-1.0156 0.59766-1.832 0.84375-1.3594 0.94531-1.5391 0.67188-1.6328 1.0977-0.80469 0.86719-0.77344 0.63672-0.96094 0.10938-1.1641 0.88672-1.2109 0.58984-0.92188-0.089844-1.2734 0.91016-1.6328 0.70312-0.84375 0.75781-0.78516 0.29688-1.5234v-1.0859l0.15625-1.375 0.54688-0.94531 0.88281-0.87891 0.82812-0.69922 0.84766-0.81641 0.31641-2.0156 0.57422-1.2734 0.85547-1.2227 0.90234-1.8281 0.64453-1.3906 0.21875-1.043 0.62891-1.5508 0.98438-0.42969 1.2969-0.75391 0.92578-0.55078 1.0547-0.55859 0.80469-0.83594 0.92969-0.75781 1.1797-0.058594 1.0664-0.5625 1.1445-0.60547 1.0039-0.13672 1.1992-0.58594 0.78906-0.75 0.61328-0.97656 0.92969-0.60156 0.46094-1.1445 0.86719-0.76953 0.69922-0.75781 0.28906-1.0078 0.88281-1.0039 1.1836-0.58594 0.82031-0.68359 0.96094-1.0664 1.25-0.44922 0.31641-1.0156 1.0156-0.46484 0.97266-0.60547 1.0273-0.83594 1.9883-0.79297 1.1641-0.20312 0.73047-0.98047 0.45703-1.3789 0.91406-0.67188 1.2852-0.21875 1.0586-0.28516 1.0547-0.74609 1.4062-1.5898 1.0586-1.0703 0.89453-0.66406 1.293-0.95703 1.1367-0.83984 0.82422-0.64844 0.60156-1.2148z" fill="#ccc" fill-rule="evenodd"/>
<path d="m171.66 358.51 0.20312 0.37109 1.0117 1.7305 0.39453 1.1602 0.42188 1.2422 1.1484 1.7852 1.0625 0.83984 1.7578 0.32422 1.9727 0.33984 2.9102 0.98828 1.4727 1.0312 1.0352 0.72266 1.5938 0.75 1.457 0.68359 1.8438 0.20312 1.582 1.0586 0.89844 0.56641 0.92969 0.38672 3.7266 0.53906 1.625 0.32812 1.6992 0.042969 1.1797 0.38281 0.51172 1.3594 0.22656 1.5312 0.72656 0.73438 0.85156 0.90625-0.13281 1.4141 1.1797 0.87109 0.5 1.8281 1.0352 1.0625 1.6055 0.42969 0.5 0.92188 0.22266 1.1758 1.9805 1.668 0.67578 1.0352 0.60938 1.3516 0.55469 0.91406 2.0117 0.90625 1.2109 0.17969 1.3125 0.56641 0.78906 1.4219 0.89844 0.47656 1.1094 0.55469 0.30469 1.0977 0.66016 1.2031 1.0117 0.69531 1.1875 0.57031 1.3438 0.63672 1.0117 0.16406 1.1328 0.41406 0.81641 0.66406 1.9727 1.9727 1.0703 0.76953 1.2461 0.98047 0.59375 1.3438 1.2188 1.6719 0.94141 1.0117 1.3398 0.76172 1.6914 0.64844 2.6953 2.6211 1.2695 1.5703 0.66406 1.207 0.63281 1.8008 0.20312 1.0234 0.33203 1.6602 0.30078 2.4102 0.33594 1.2188 1.7383 1.5781-1.0039-0.24609-1.5312-0.41016-1.1016 0.66406-0.88672 1.7109-0.41016 1.7773-0.48828 1.2188-0.98828 0.94531-1.1484 0.58203-1.4648 1.1875 0.14844 2.0078-0.14844 1.1836-0.98828 0.53516-1.125 0.78516-1.3125-0.10156-1.5781-0.76172-1.5898-0.85156-0.89062-0.82812-1.3594-0.5-1.2148-0.14453-1.2461 0.066406-1.6055 0.085937-1.8945 0.10156-2.3398 0.375-2.2812 0.83594-1.3711 0.69922-1.7969 0.33203-1.6328 0.027344-1.4375 0.66016-1.8125 0.41406-1.0234 0.64062-0.92969 1.2734-1.3789 1.7617-1.543 1.2539-1.4258 1.1914-0.80469 0.68359-0.88672 0.68359-1.2031 2.3242-1.2031 1.4609-1.125 1.7578-0.14453 1.0391 0.21875 2 0.082031 2.8008-0.16406 1.832-0.27344 2.8828-0.38281 1.2148-0.82812 0.92188-1.0586 1.7812 0.54297 1.0898 0.86328 0.67578 0.29688 1.5273-0.039063 1.4961 0.52344 0.87109 0.41016 1.543-0.18359 1.1914-0.24609 1.8086-0.99219 1.4609-0.78516 1.1758-0.30078 1.2109 0.09375 1.6992 0.27344 1.3047-0.10938 1.1953-0.17188 1.0234-0.14062 1.0547-1.3125 0.40234-1.1875 0.14453-1.1016-0.16797-1.1055 0.4375-1.625-0.49219-1.3555 0.34766-0.92188 0.57422-1.0391 0.10938-1.1836 0.89062-1.0742 0.74219-1.0234 1.2227-0.92578 0.76172-1.2266 0.81641-0.72266 0.86719-1.6797 0.42969-1.6523 0.16016-1.375 0.17578-1.1523 0.92969-1.1719 0.32812-1.0156 0.20312-0.48438 0.91406-1.0742 0.65625-1.0273 0.23438-1.6445-0.33203-1.6172-0.83984-0.88672-1.1211-0.66797-1.6914-1.3164-1.2422-1.1055-0.96484-0.76562-0.72266-1.9297-0.47656-0.96875-1.4844-0.32422-1.5977 0.058593-1.207-0.51953-1.1953-0.96875-0.8125-1.1289-1.1992-0.92188-0.50391-1.1992-0.67188-1.1016-0.875-1.0273-0.70312-0.6875-0.76953-0.78906-0.79297-0.89453-0.84375-0.83594-0.84766-1.1562-0.91016-1.3398-0.57031-0.99219-0.88672-0.83594-0.91406-1.0195-0.9375-0.51562-1.0039 0.035156-1.4297 0.015625-1.1719-0.40234-1.3867-1.0156-0.25781-1.3594 0.23047-1.2539-0.37109-1.0664-0.40234-0.82812-0.69141-0.75-1.2461-0.83203-1.6797-0.046875-1.5312 0.45312-1.6016 0.34766-1.4141 0.24219-1.0938-0.24219-1.6562-0.82812-1.2344-0.94922-1.0352-1.3008-1.0625-1.2656-0.36328-1.1328-0.55078-1.1406-0.94531-1.5977-0.76953-1.5234 0.007813-1.1836-0.21875-1.0078-0.70703-0.078125-1.2188 0.60156-1.2891 0.023437-1.5586-0.47266-2.3711-0.39453-1.3594-0.94141-1.1641-1.2578-0.09375-1.1797 0.35156-1.1094-0.40625-1.0156-0.67969-0.41016-1.1875-0.27734-1.8672-0.12891-1.332-0.99609-1.1992-1.1289-1.1289-1.0156-0.90625-1.0352 0.058594-1.1836 0.35156-1.1445 0.3125-1.2383-0.16797 0.60547-0.94922 0.050782-1.1484 0.10938-1.0312 0.92969-1.0586 1.9414-1.0977 0.78125-1.0156 0.59766-1.832 0.84375-1.3594 0.94531-1.5391 0.67188-1.6328 1.0977-0.80469 0.86719-0.77344 0.63672-0.96094 0.10938-1.1641 0.88672-1.2109 0.58984-0.92188-0.089844-1.2734 0.91016-1.6328 0.70312-0.84375 0.75781-0.78516 0.29688-1.5234v-1.0859l0.15625-1.375 0.54688-0.94531 0.88281-0.87891 0.82812-0.69922 0.84766-0.81641 0.31641-2.0156 0.57422-1.2734 0.85547-1.2227 0.90234-1.8281 0.64453-1.3906 0.21875-1.043 0.62891-1.5508 0.98438-0.42969 1.2969-0.75391 0.92578-0.55078 1.0547-0.55859 0.80469-0.83594 0.92969-0.75781 1.1797-0.058594 1.0664-0.5625 1.1445-0.60547 1.0039-0.13672 1.1992-0.58594 0.78906-0.75 0.61328-0.97656 0.92969-0.60156 0.46094-1.1445 0.86719-0.76953 0.69922-0.75781 0.28906-1.0078 0.88281-1.0039 1.1836-0.58594 0.82031-0.68359 0.96094-1.0664 1.25-0.44922 0.31641-1.0156 1.0156-0.46484 0.97266-0.60547 1.0273-0.83594 1.9883-0.79297 1.1641-0.20312 0.73047-0.98047 0.45703-1.3789 0.91406-0.67188 1.2852-0.21875 1.0586-0.28516 1.0547-0.74609 1.4062-1.5898 1.0586-1.0703 0.89453-0.66406 1.293-0.95703 1.1367-0.83984 0.82422-0.64844 0.60156-1.2148 0.89453-0.29688" fill="none" stroke="#fff" stroke-linecap="round" stroke-linejoin="round" stroke-miterlimit="10" stroke-width="2"/>
<path d="m136.33 351.58 0.70312 0.33203 0.78516 0.67188 1.0703 2.918 0.40625 1.3398 1.4023 1.6133 0.74219 0.78516 0.85547 1.1094 0.9375-0.84375 0.16797-1.6406 0.49219-1.25 0.85156-0.82031 1.6719-0.47266 1.1602-1.2695 1.8594 0.33203 1.1328 0.54297 1.5547 1.2773 1.3789 0.30859 1.4922 0.066406 1.3945-0.44531 1.2422-0.24609 2.5234 1.1875 1.8398 0.23047 1.3359-0.57812 1.1758 0.25391 1.2148 0.66797 1.4375 0.85547 1.0352 0.21875 1.2656-0.29688 1.6953-0.24219-0.62891 0.91406-1.1875 1.5703-1.1367 0.83984-1.293 0.95703-0.89453 0.66406-1.0586 1.0703-0.90234 0.91797-0.98047 1.125-1.6367 0.57812-1.2578 0.21875-0.87109 0.54688-0.33984 1.0117-0.60938 1.1289-1.0078 0.41797-1.8906 0.58203-1.0352 0.75391-1.0156 0.8125-1.0273 0.35547-0.59766 1.1289-1.1016 0.32031-1.1602 1.2617-0.86328 0.73047-1.3086 0.68359-0.88281 1.0039-0.28906 1.0078-0.69922 0.75781-0.86719 0.76953-0.46094 1.1406-0.92969 0.60547-0.61328 0.97656-0.78906 0.75-1.1992 0.58594-1.0039 0.13672-1.1445 0.60547-1.0664 0.5625-1.0508-0.070312-0.79297 0.71875-0.92969 0.77344-0.62109 0.80078-1.0977 0.19531-1.1992 0.73828-1.3086 0.47656-0.67969 1.4336-0.34375 1.4727-0.64453 1.3906-0.65234 1.125-0.51172 1.2422-0.88672 1.0977-0.44531 2.1992-0.26562 0.96484-1.2305 0.66406-0.70703 0.96484-0.96094 1.1914-0.22656 1.2344-0.023438 1.457-0.29688 1.5234-0.75781 0.78516-0.70312 0.84375-0.61328 1.0117-0.26562 1.2578-0.53125 1.5586-0.78906 0.88281-0.20703 1.4922-0.63672 0.96094-0.86719 0.77344-0.88281 0.59375-0.88672 1.8438-0.625 0.85547-0.79688 1.4375-0.66016 1.7695-0.74609 1.3555-1.8516 1.1055-0.90234 0.61719-0.5625 1.2812 0.03125 1.0234-0.21484 1.0234-1.1289 0.33594-1.5664-0.56641-1.0703-0.29688-1.0898 0.77734-1.0742 0.33203-1.5156 0.31641-1.0352 0.054688-1.0898-0.039063-1.1992-0.20312-1.6641-0.51562-1.2539-0.32422-1.0273-0.22656-1.8945-0.1875-1.4805-0.11328-1.1836-0.054688-1.2539 0.33203 0.71875 0.98047-0.55469 0.94141-0.96094 1.0352-1.5312 0.53516-1.7188 0.20312-1.1289 0.11328-1.7188-0.074219-1.2734 0.23828-1.5352 0.12891-1.4414 0.09375-1.7188-0.035156-1.4062-0.11328-1.0156-0.16406-2.3477-1.4609-0.97656-0.83203-1.0742-1.0703-0.51562-0.94531-0.92578-0.83203-0.86719-0.90234-1.4062-0.87109-0.98047-0.55469-0.49609-1.2734-0.37109-0.96094 0.019531-1.0547-1.0898-0.90625-1.2383-0.44141-1.1641-1.1094-0.48047-1.4961-0.26172-1.8867 0.058594-1.3477v-1.5352l0.33203-0.96094 0.51562-1.0352 0.14844-1.0352-0.23828-1.7188 0.14453-1.6992 0.29688-1.7383 0.10938-1.5508-1.0156-0.79297-0.55859-0.91406 0.53125-0.86328 1.2852-0.125 1.1445-0.64062 1.4297 0.09375 1.1016-0.035156 1.4492-0.25391 1.3125-0.35938 1.0508-0.32031 1.0742-0.50781 1.0469 0.46484 1.2695-0.078125 1.6875-0.71484 1.4688-0.078125 1.4766-0.96094 1.5117-0.32031 1.8789-1.6328 0.58594-0.84375 1.4336-0.74609 0.80859-0.64844 1.3984-0.79297 1.4922-0.71875 1.3398-0.34766 1.0781-0.55469 1.0391-0.98438 1.1562-0.73047 2.082-0.089844 1.0703-0.75 0.95312-0.67578 1.0039 0.027344 1.5781-0.51172 0.91406-0.63281 1.1484-0.79688 1.8672-0.76172 0.98828-0.33984 0.98047-0.20312 1.0859-0.16797 1.1719-0.83984 1.0234-0.71875 1.4336-0.52344 1.2773 0.17969 0.66016-1.1562 1.4805-0.1875 1.1875-0.84375 0.69531-1.3281 0.91797-0.82031 0.62109-1.4844-0.054688-2.2461-0.050781-2.0938 0.82031-2.3594 1.1523-1.4766-0.125-1.7812-0.61719-1.3086 0.10156-2.1055-0.35938-1.1289-0.023437-1.1289 1.3945-0.60938 2.043-0.28906 1.1562-1.668 1.0742-2.4648 1.7969-1.4531 1.043-0.49609 1.6836-0.69922 1.25-0.67969 1.1055-0.0625 1.2305 0.56641 1.5195 0.019531 0.87109-0.55859 1.25-0.24609 1.0273-0.125 0.98438-0.69922 1.1719-0.44922z" fill="#ccc" fill-rule="evenodd"/>
<path d="m136.33 351.58 0.70312 0.33203 0.78516 0.67188 1.0703 2.918 0.40625 1.3398 1.4023 1.6133 0.74219 0.78516 0.85547 1.1094 0.9375-0.84375 0.16797-1.6406 0.49219-1.25 0.85156-0.82031 1.6719-0.47266 1.1602-1.2695 1.8594 0.33203 1.1328 0.54297 1.5547 1.2773 1.3789 0.30859 1.4922 0.066406 1.3945-0.44531 1.2422-0.24609 2.5234 1.1875 1.8398 0.23047 1.3359-0.57812 1.1758 0.25391 1.2148 0.66797 1.4375 0.85547 1.0352 0.21875 1.2656-0.29688 1.6953-0.24219-0.62891 0.91406-1.1875 1.5703-1.1367 0.83984-1.293 0.95703-0.89453 0.66406-1.0586 1.0703-0.90234 0.91797-0.98047 1.125-1.6367 0.57812-1.2578 0.21875-0.87109 0.54688-0.33984 1.0117-0.60938 1.1289-1.0078 0.41797-1.8906 0.58203-1.0352 0.75391-1.0156 0.8125-1.0273 0.35547-0.59766 1.1289-1.1016 0.32031-1.1602 1.2617-0.86328 0.73047-1.3086 0.68359-0.88281 1.0039-0.28906 1.0078-0.69922 0.75781-0.86719 0.76953-0.46094 1.1406-0.92969 0.60547-0.61328 0.97656-0.78906 0.75-1.1992 0.58594-1.0039 0.13672-1.1445 0.60547-1.0664 0.5625-1.0508-0.070312-0.79297 0.71875-0.92969 0.77344-0.62109 0.80078-1.0977 0.19531-1.1992 0.73828-1.3086 0.47656-0.67969 1.4336-0.34375 1.4727-0.64453 1.3906-0.65234 1.125-0.51172 1.2422-0.88672 1.0977-0.44531 2.1992-0.26562 0.96484-1.2305 0.66406-0.70703 0.96484-0.96094 1.1914-0.22656 1.2344-0.023438 1.457-0.29688 1.5234-0.75781 0.78516-0.70312 0.84375-0.61328 1.0117-0.26562 1.2578-0.53125 1.5586-0.78906 0.88281-0.20703 1.4922-0.63672 0.96094-0.86719 0.77344-0.88281 0.59375-0.88672 1.8438-0.625 0.85547-0.79688 1.4375-0.66016 1.7695-0.74609 1.3555-1.8516 1.1055-0.90234 0.61719-0.5625 1.2812 0.03125 1.0234-0.21484 1.0234-1.1289 0.33594-1.5664-0.56641-1.0703-0.29688-1.0898 0.77734-1.0742 0.33203-1.5156 0.31641-1.0352 0.054688-1.0898-0.039063-1.1992-0.20312-1.6641-0.51562-1.2539-0.32422-1.0273-0.22656-1.8945-0.1875-1.4805-0.11328-1.1836-0.054688-1.2539 0.33203 0.71875 0.98047-0.55469 0.94141-0.96094 1.0352-1.5312 0.53516-1.7188 0.20312-1.1289 0.11328-1.7188-0.074219-1.2734 0.23828-1.5352 0.12891-1.4414 0.09375-1.7188-0.035156-1.4062-0.11328-1.0156-0.16406-2.3477-1.4609-0.97656-0.83203-1.0742-1.0703-0.51562-0.94531-0.92578-0.83203-0.86719-0.90234-1.4062-0.87109-0.98047-0.55469-0.49609-1.2734-0.37109-0.96094 0.019531-1.0547-1.0898-0.90625-1.2383-0.44141-1.1641-1.1094-0.48047-1.4961-0.26172-1.8867 0.058594-1.3477v-1.5352l0.33203-0.96094 0.51562-1.0352 0.14844-1.0352-0.23828-1.7188 0.14453-1.6992 0.29688-1.7383 0.10938-1.5508-1.0156-0.79297-0.55859-0.91406 0.53125-0.86328 1.2852-0.125 1.1445-0.64062 1.4297 0.09375 1.1016-0.035156 1.4492-0.25391 1.3125-0.35938 1.0508-0.32031 1.0742-0.50781 1.0469 0.46484 1.2695-0.078125 1.6875-0.71484 1.4688-0.078125 1.4766-0.96094 1.5117-0.32031 1.8789-1.6328 0.58594-0.84375 1.4336-0.74609 0.80859-0.64844 1.3984-0.79297 1.4922-0.71875 1.3398-0.34766 1.0781-0.55469 1.0391-0.98438 1.1562-0.73047 2.082-0.089844 1.0703-0.75 0.95312-0.67578 1.0039 0.027344 1.5781-0.51172 0.91406-0.63281 1.1484-0.79688 1.8672-0.76172 0.98828-0.33984 0.98047-0.20312 1.0859-0.16797 1.1719-0.83984 1.0234-0.71875 1.4336-0.52344 1.2773 0.17969 0.66016-1.1562 1.4805-0.1875 1.1875-0.84375 0.69531-1.3281 0.91797-0.82031 0.62109-1.4844-0.054688-2.2461-0.050781-2.0938 0.82031-2.3594 1.1523-1.4766-0.125-1.7812-0.61719-1.3086 0.10156-2.1055-0.35938-1.1289-0.023437-1.1289 1.3945-0.60938 2.043-0.28906 1.1562-1.668 1.0742-2.4648 1.7969-1.4531 1.043-0.49609 1.6836-0.69922 1.25-0.67969 1.1055-0.0625 1.2305 0.56641 1.5195 0.019531 0.87109-0.55859 1.25-0.24609 1.0273-0.125 0.98438-0.69922 1.1719-0.44922 0.82812 0.125" fill="none" stroke="#fff" stroke-linecap="round" stroke-linejoin="round" stroke-miterlimit="10" stroke-width="2"/>
<path d="m239.44 279.01 0.28516 0.22656 1.3203 0.54688 1.1016 0.19922 1.2305 0.51953 1.0664 0.73828 1.543 0.10938 1.1641 0.76172 1.7852 0.83203 0.96484 0.74609 1.1758 1.1328 0.875 0.99609 0.25 1.1055 1.1484 0.51953 0.98828 0.91406 0.96094 0.60156 0.44141 0.99609 0.91016-0.46094 0.38281-0.96484 0.82812-0.96875 1.0195-0.42969 0.9375-0.84766 1.0273 0.10156 1.4805 1.3281 0.91797 0.57812 1.4961-0.1875 0.83984 0.75391 0.19922 1.0664 0.79297 0.69531 0.52344 0.89062 0.25 1.0234 0.64062 0.91797 0.98438 0.57422 1.5078-0.003907 0.99219 0.53906 0.80859 0.92969 0.85156 0.82031 1.0859 0.48438 0.69922 0.93359-0.35156 0.94141-0.89844 0.64844-0.66016 0.87891-0.59375 1.0117 0.035157 1.0117 0.64844 0.83984 0.91406 0.49219 1.0039 0.54688 0.80859 0.64844 0.96484 0.38281 1.0977 0.10547 1.0703 0.67578 0.86719 0.53125 1.0664 0.20312 0.78125 0.84766-0.058594 0.99609 0.082031 1.0234 0.79688 0.875 0.69141 0.93359 0.89453 0.84375 1.1133 0.44531 0.63672 0.77344 0.14062 1.1562 0.30859 0.98438 0.92969 0.43359 1 0.33594 0.86328 0.53125 0.83203 0.92188 0.39062 1.0977 0.91406 0.58203 1.2461 0.33594 0.68359 0.77734 0.61719 0.88281 0.91406 0.79297 0.76562 0.72266 1.0391 0.46875 1.0039 0.41016 0.89062 0.74609 1.1641-0.089844 1.0234-0.26562 1.6758-0.78516 1.1367-0.44141 1.2148-0.14062 0.96875-0.40625 0.89062-0.63672 1.0156-0.20312 1.0234-0.50781 1.1094-0.097657 0.99219 0.47656 1.2812 0.089844 0.96875 0.33984 1.0391 0.027344 1.0078 0.10938 1.1641 0.31641 1.0039-0.050781 1.0547-0.41406 1.1133-0.20312 0.94922-0.42188 1.2656 0.61328 1.0781 0.20703 1.0352 0.29688 1.1484 0.10938 1.0078 0.35156 1.0547 0.36328 1.0391 0.30859 0.94922 0.68359 1.1719 1.0898 0.68359 0.84375 0.71094 1.0742 0.14453 1.0586 0.90625 1.0312 0.98828 0.65625 0.11328 1.1328 0.42578 1.0547-0.84375 0.60938-1.4258 0.011718-0.52734 1.0859-0.83203 0.81641 0.0625 1.1016-0.51172 1.0117-0.61328 0.80859 0.003907 1.1992 0.37109 1.0352 0.875 0.67578 0.19531 1.1055 0.14062 1.1016-0.03125 1.2969-0.089844 1.1992-0.21484 1.2031-0.64062 1.043-0.68359 0.94141-0.44141 1.1406-0.64453 0.97266-1.457 2.0742-0.66016 1.6367-0.21094 1.2422 0.035156 1.457 1.668 2.5391 1.0312 1.3359 0.86719 1.1289 0.82422 0.92188 1.0117 0.86328-0.72266 1.1758-2.5859 0.75-3.8281 0.46875-2.3242 0.48047-1.3594 0.74609-1.4883 2.543-0.95703 1.3203-0.66406 0.91406-0.83594 2.5859-0.84766 2.4805-0.25 0.96875-0.80078 1.6836-0.88281 0.66797-1.6836 0.91016-1.0703 1.2031-0.85156 2.1445 0.66406 0.83594 0.070312 1.1953-0.22656 1.1016 0.26953 1.0742 0.48438 0.98047 0.33594 1.7383 0.83984 1.6328 0.51172 1.3711 1.0508 2.293 0.62891 1.043-5.0508 2.6797-3.5586 1.6992-1.8516 0.33594-1.3672 0.45703-1.3711 0.51562-1.8516 0.42578-2.0664 1.5781-1.8867 0.39844-3.0781 2.2656-1.4062 1.5508-0.91797 0.59375-0.83203 1.3438-0.93359 2.582-0.57812 1.4297-0.51172 0.86719-0.59375 1.9375-0.6875 1.1836-1.3203 0.78906-1.1719 0.91797-1.0859 0.66016-1.207 1.1055-1.7031-0.16797-1.832-0.58203-1.4453-0.24219-2.2656-0.074219-1.4648 0.10938-2.457 0.1875-2.3086-0.58984-1.8594-0.53516-1.4258-0.09375-1.1133 0.17578-1.4219 0.46875-1.7852 0.88672-1.9141 0.74609-1.707 0.66406-1.4258 0.25-1.3594 0.24219-2.3086 0.085937-1.9219-0.21484-1.0898 0.046875-1.0234 0.15625-1.2578 0.19141-2.0234-1.1562-0.57031-1.6797-0.23438-2.0625-0.39844-2.0078-0.20312-1.0234-0.54688-1.6445-0.75-1.3633-1.2695-1.5703-1.9688-2.0625-1.5586-0.96094-1.6602-0.63281-1.1523-0.98438-1.1289-1.3828-0.625-1.3438-1.0938-1.25-1.6094-1.1914-1.9727-1.9727-0.81641-0.66406-1.1328-0.41406-1.0117-0.16406-1.3438-0.63672-1.1875-0.57031-1.0117-0.69531-0.66016-1.2031-0.30469-1.0977-1.1094-0.55469-0.89844-0.47656-0.4375-0.92578-0.87109-0.83984-2.0039-0.40234-1.6797-0.64844 1.9219-1.4492 2.6875-1.3398 1.1133-0.45312 1.6797-0.6875 0.97266-0.69922 0.86719-0.69922 0.80859-0.59766 1.2383-0.66406 1.3359-1.0469 0.79688-1.1523 0.92969-0.74219 1.1758-0.13672 0.37109-0.9375 0.085938-1.0273 0.10938-1.0625 0.28125-1.1484-0.33984-1.1602 0.59766-0.83203 0.67578-1.2422-0.39062-1.5273 0.91797-0.75781 0.97656-0.47656 0.38672-0.96094-0.64453-1.0664 0.070313-1.3086 0.13672-1.0586 0.39844-1.3828 0.14062-1 0.71875-0.73047 0.019531-1.0195-0.69141-0.86328 0.33203-1.6367-0.089843-1.3086 0.45312-1.2578-0.085938-1.0898 0.82812-1.1055 1.1016-1.6875 1.2617-2.1836 1.0586-1.0078 0.52344-1.0703 0.039062-1.0156 0.625-0.85156 0.40234-1.2031 0.60547-1.2812 0.42188-1.0625 0.60547-1.0234 0.76953-0.97656 0.45703-0.95703 0.60547-1.125 0.84766-0.92188 0.52344-1.2617 0.52734-0.875 0.26953-0.96875 0.32422-1.2344 0.19922-1.0625 0.09375-1.1602 0.53906-1.0938 0.57031-1.168 0.92188-0.75391 0.25781-1.1328 0.60547-1.4805 0.20703-1.0664 0.40625-1.4844 0.39844-1.0781 0.51562-0.97266-0.70312-0.83594 0.03125-1.1562-0.082031-1.0156-0.71094-0.79688-0.46094-0.9375-0.10156-1.3594-0.039062-1.1562 0.5625-0.83984-0.011719-1.1172 0.88281-0.68359 0.19141-1.207-0.22656-1.6406 0.0625-1.0625-0.47656-0.98438-0.33594-0.95312-0.98438-0.19922-1.0078-0.60938-0.10938-1.1836-0.60938-1.1602-0.21875-1.2734-0.76562-0.66797-0.625-1.1523-0.48047-1.0703-0.16406-1.7227-0.60156-0.97656-0.29688-1.1836-0.82812-0.68359 0.44141-1.1641-0.039062-1.0352-0.54688-1.1367-0.25781-1.0352-0.26562-1.0664-0.5625-1.1133-1.0273-0.52344-0.79297-0.97656-0.80469-0.94141-0.46484-0.91797-0.089843-1.082 0.79688-0.76172 0.26953-1.2344-0.29688-1.1836 0.76953-0.78125 0.5-0.92969z" fill="#ccc" fill-rule="evenodd"/>
<path d="m239.44 279.01 0.28516 0.22656 1.3203 0.54688 1.1016 0.19922 1.2305 0.51953 1.0664 0.73828 1.543 0.10938 1.1641 0.76172 1.7852 0.83203 0.96484 0.74609 1.1758 1.1328 0.875 0.99609 0.25 1.1055 1.1484 0.51953 0.98828 0.91406 0.96094 0.60156 0.44141 0.99609 0.91016-0.46094 0.38281-0.96484 0.82812-0.96875 1.0195-0.42969 0.9375-0.84766 1.0273 0.10156 1.4805 1.3281 0.91797 0.57812 1.4961-0.1875 0.83984 0.75391 0.19922 1.0664 0.79297 0.69531 0.52344 0.89062 0.25 1.0234 0.64062 0.91797 0.98438 0.57422 1.5078-0.003907 0.99219 0.53906 0.80859 0.92969 0.85156 0.82031 1.0859 0.48438 0.69922 0.93359-0.35156 0.94141-0.89844 0.64844-0.66016 0.87891-0.59375 1.0117 0.035157 1.0117 0.64844 0.83984 0.91406 0.49219 1.0039 0.54688 0.80859 0.64844 0.96484 0.38281 1.0977 0.10547 1.0703 0.67578 0.86719 0.53125 1.0664 0.20312 0.78125 0.84766-0.058594 0.99609 0.082031 1.0234 0.79688 0.875 0.69141 0.93359 0.89453 0.84375 1.1133 0.44531 0.63672 0.77344 0.14062 1.1562 0.30859 0.98438 0.92969 0.43359 1 0.33594 0.86328 0.53125 0.83203 0.92188 0.39062 1.0977 0.91406 0.58203 1.2461 0.33594 0.68359 0.77734 0.61719 0.88281 0.91406 0.79297 0.76562 0.72266 1.0391 0.46875 1.0039 0.41016 0.89062 0.74609 1.1641-0.089844 1.0234-0.26562 1.6758-0.78516 1.1367-0.44141 1.2148-0.14062 0.96875-0.40625 0.89062-0.63672 1.0156-0.20312 1.0234-0.50781 1.1094-0.097657 0.99219 0.47656 1.2812 0.089844 0.96875 0.33984 1.0391 0.027344 1.0078 0.10938 1.1641 0.31641 1.0039-0.050781 1.0547-0.41406 1.1133-0.20312 0.94922-0.42188 1.2656 0.61328 1.0781 0.20703 1.0352 0.29688 1.1484 0.10938 1.0078 0.35156 1.0547 0.36328 1.0391 0.30859 0.94922 0.68359 1.1719 1.0898 0.68359 0.84375 0.71094 1.0742 0.14453 1.0586 0.90625 1.0312 0.98828 0.65625 0.11328 1.1328 0.42578 1.0547-0.84375 0.60938-1.4258 0.011718-0.52734 1.0859-0.83203 0.81641 0.0625 1.1016-0.51172 1.0117-0.61328 0.80859 0.003907 1.1992 0.37109 1.0352 0.875 0.67578 0.19531 1.1055 0.14062 1.1016-0.03125 1.2969-0.089844 1.1992-0.21484 1.2031-0.64062 1.043-0.68359 0.94141-0.44141 1.1406-0.64453 0.97266-1.457 2.0742-0.66016 1.6367-0.21094 1.2422 0.035156 1.457 1.668 2.5391 1.0312 1.3359 0.86719 1.1289 0.82422 0.92188 1.0117 0.86328-0.72266 1.1758-2.5859 0.75-3.8281 0.46875-2.3242 0.48047-1.3594 0.74609-1.4883 2.543-0.95703 1.3203-0.66406 0.91406-0.83594 2.5859-0.84766 2.4805-0.25 0.96875-0.80078 1.6836-0.88281 0.66797-1.6836 0.91016-1.0703 1.2031-0.85156 2.1445 0.66406 0.83594 0.070312 1.1953-0.22656 1.1016 0.26953 1.0742 0.48438 0.98047 0.33594 1.7383 0.83984 1.6328 0.51172 1.3711 1.0508 2.293 0.62891 1.043-5.0508 2.6797-3.5586 1.6992-1.8516 0.33594-1.3672 0.45703-1.3711 0.51562-1.8516 0.42578-2.0664 1.5781-1.8867 0.39844-3.0781 2.2656-1.4062 1.5508-0.91797 0.59375-0.83203 1.3438-0.93359 2.582-0.57812 1.4297-0.51172 0.86719-0.59375 1.9375-0.6875 1.1836-1.3203 0.78906-1.1719 0.91797-1.0859 0.66016-1.207 1.1055-1.7031-0.16797-1.832-0.58203-1.4453-0.24219-2.2656-0.074219-1.4648 0.10938-2.457 0.1875-2.3086-0.58984-1.8594-0.53516-1.4258-0.09375-1.1133 0.17578-1.4219 0.46875-1.7852 0.88672-1.9141 0.74609-1.707 0.66406-1.4258 0.25-1.3594 0.24219-2.3086 0.085937-1.9219-0.21484-1.0898 0.046875-1.0234 0.15625-1.2578 0.19141-2.0234-1.1562-0.57031-1.6797-0.23438-2.0625-0.39844-2.0078-0.20312-1.0234-0.54688-1.6445-0.75-1.3633-1.2695-1.5703-1.9688-2.0625-1.5586-0.96094-1.6602-0.63281-1.1523-0.98438-1.1289-1.3828-0.625-1.3438-1.0938-1.25-1.6094-1.1914-1.9727-1.9727-0.81641-0.66406-1.1328-0.41406-1.0117-0.16406-1.3438-0.63672-1.1875-0.57031-1.0117-0.69531-0.66016-1.2031-0.30469-1.0977-1.1094-0.55469-0.89844-0.47656-0.4375-0.92578-0.87109-0.83984-2.0039-0.40234-1.6797-0.64844 1.9219-1.4492 2.6875-1.3398 1.1133-0.45312 1.6797-0.6875 0.97266-0.69922 0.86719-0.69922 0.80859-0.59766 1.2383-0.66406 1.3359-1.0469 0.79688-1.1523 0.92969-0.74219 1.1758-0.13672 0.37109-0.9375 0.085938-1.0273 0.10938-1.0625 0.28125-1.1484-0.33984-1.1602 0.59766-0.83203 0.67578-1.2422-0.39062-1.5273 0.91797-0.75781 0.97656-0.47656 0.38672-0.96094-0.64453-1.0664 0.070313-1.3086 0.13672-1.0586 0.39844-1.3828 0.14062-1 0.71875-0.73047 0.019531-1.0195-0.69141-0.86328 0.33203-1.6367-0.089843-1.3086 0.45312-1.2578-0.085938-1.0898 0.82812-1.1055 1.1016-1.6875 1.2617-2.1836 1.0586-1.0078 0.52344-1.0703 0.039062-1.0156 0.625-0.85156 0.40234-1.2031 0.60547-1.2812 0.42188-1.0625 0.60547-1.0234 0.76953-0.97656 0.45703-0.95703 0.60547-1.125 0.84766-0.92188 0.52344-1.2617 0.52734-0.875 0.26953-0.96875 0.32422-1.2344 0.19922-1.0625 0.09375-1.1602 0.53906-1.0938 0.57031-1.168 0.92188-0.75391 0.25781-1.1328 0.60547-1.4805 0.20703-1.0664 0.40625-1.4844 0.39844-1.0781 0.51562-0.97266-0.70312-0.83594 0.03125-1.1562-0.082031-1.0156-0.71094-0.79688-0.46094-0.9375-0.10156-1.3594-0.039062-1.1562 0.5625-0.83984-0.011719-1.1172 0.88281-0.68359 0.19141-1.207-0.22656-1.6406 0.0625-1.0625-0.47656-0.98438-0.33594-0.95312-0.98438-0.19922-1.0078-0.60938-0.10938-1.1836-0.60938-1.1602-0.21875-1.2734-0.76562-0.66797-0.625-1.1523-0.48047-1.0703-0.16406-1.7227-0.60156-0.97656-0.29688-1.1836-0.82812-0.68359 0.44141-1.1641-0.039062-1.0352-0.54688-1.1367-0.25781-1.0352-0.26562-1.0664-0.5625-1.1133-1.0273-0.52344-0.79297-0.97656-0.80469-0.94141-0.46484-0.91797-0.089843-1.082 0.79688-0.76172 0.26953-1.2344-0.29688-1.1836 0.76953-0.78125 0.5-0.92969 0.48438-0.13672" fill="none" stroke="#fff" stroke-linecap="round" stroke-linejoin="round" stroke-miterlimit="10" stroke-width="2"/>
<path d="m87.641 122.81 1.3555 0.10547 1.4141-0.10547-0.085937 1.0508-0.42578 0.94531-0.3125 1.1133 1.1758 1.1523 0.51172 0.98047-0.8125 0.96484-0.95312 0.33203-1.2578 0.64844-1.3125 0.26172-1.1641 0.16016-0.48828 0.95703 0.078125 1.2266 0.82812 0.95703 1.2266 0.48438 1.3672 0.55859 1.1484 0.44531 1.2305 0.74219 0.52344 0.92969-0.26562 1.1719-0.62109 0.86719-0.99219 0.38281-1.1719 0.85156-0.60547 0.90234-0.21484-1.2695-0.59766-0.91797-0.97266-0.37891-1.3281 0.63281-0.24219 1-0.32812 1.1602-0.085937 1.2656 1.5508-0.13281 1.4141 0.23828 0.042968 1.4336-1.3203 0.69141-0.69141 0.88281 0.51172 1.6641 0.33984 1.2656-0.55859 1.0586-0.85547 0.88672-0.37891 1.0352 0.76562 0.68359 0.96484-0.67578 1.5703-0.16797 1.1172 0.10156 0.28125 1.1094-1.1992 0.019531-1.0156 0.1875-0.87109 1.0508-0.80078 0.84375-1.2148-0.09375 1.3867 1.3398 1.3438 0.34375 0.66016 0.79297-0.6875 1.0664-0.85938 1.2734 0.054687 1.0312 1.3203 0.79688 1.1953-0.070313 1.457-0.33594 1.0195 0.21875 1.5078 1 1.1211 0.35156 1.2305-0.98047 0.96094 0.68359-0.47266 1.2383 0.98828 0.35156 1.0234-0.25781 0.60547 0.9375-0.39062 1.0781-0.97266 0.83594-1.0391 1.3047-0.60938 1.9766-0.63672 0.83984-1.0859 0.074218-1.7891-0.085937-1.1133 0.097656-0.33984 1.1328 0.38281 1.1992-0.92969 0.67578-1.3828 0.097656-1.6133 0.22656-0.97266 0.24609 0.55859 1.1875 1.3008 1.2852 0.80859 1.1523 0.86328 1.4414 0.64844 1.0508-0.35156 1.2852-0.88281 0.69922-0.99609 0.57031-0.29688 1.3242 0.32422 1.1758 1.3086 0.91797 1.4141 0.38672 1.5078 0.71875 0.85938 0.80859 1.1484-0.28125 0.12891-1.293 0.86719-1.3086 1.4414-0.39844 1.1641 0.86328 1.2891-0.17578 1.5586-0.57812 2.0039-0.96875-0.45312 1.2812-0.050782 1.2422-0.09375 1.5977 0.10547 1.3203 0.019531 1.2891-0.25 1.2617-1.7852 3.207-0.44141 0.9375-0.63281 1.2617-0.42969 1.0977-0.9375 1.1797-0.75781 0.91016-1.0195 2.0508-0.72656 1.0898-1.5742 1.0352-1.1641 1.8086-0.87891 0.58984-1.5312 0.75781-2.0078 0.054688-2.0508-0.046875-4.7773 0.88281-0.96094 0.60938-0.90234 0.8125-0.51562 1.3281 0.57031 0.94141 0.5 1.3281-0.15625 1.75 0.61719 1.2734 4.7578 4.668 0.79297 0.94141 0.37109 1.125-0.70312 1.957-0.46094 1.9102-0.44141 1.0508-0.55078 1.3086 0.082032 2.0469 1.2461 3.332 0.94922 1.3828 1.0117 1.8164-0.60547 1.2109-0.78125 0.66406-0.375 1.2695-0.46094 1.0352-0.74609 1.2695-0.54297 1.6445-1.5039 2.3242-0.86719 1.3633-0.40234 1.0391 0.51953 2.9375-0.20312 2.2773-1.4102 3.7773-0.089844 3.1406-1.0938 5.1602-1.6289 4.5-0.55469 0.89453-1.2773 1.6914-0.85156 1.3203-0.42578 1.2578-0.28516 1.6172-1.375 3.7383-0.43359 1.5352-0.34375 1.2305-0.92188 1.1445-2.1641 2.1719-0.41797 1.832-1.0508 1.5391 0.027344 2.3047 0.035156 2.9414-0.32422 4.582-0.097656 2.5703 0.45312 1.957 0.66016 0.94922 1.2617 2.3672 1.2109 3.168-1.1875 0.40234-1.8555 0.10938-1.0234 0.60156-1.6445 0.18359-1.5-0.19922-3.4531-0.69141-5.5156-1.8438-1.0859-0.94531-0.99219-1.1758-1.75-2.6094-1.2227-0.57422-0.80859-0.69141 0.007813-1.125-1.6172-0.92578-2.5898-1.7969-1.3672-2.0898-0.80469-0.73438-1.8672-1.4531-2.2617-1.1484-1.3906-0.62891-0.83984-0.59766-0.96484-0.48438-0.71484-1.0547-0.24219-1.457-0.19531-1.0508-1.1133-1.4727-0.88672-0.95312-1.6055-3.3125-1.2812-1.2461-2.7539-2.2305-1.3438-1.4766-1.3086-1.4492-0.61328-1.6914 0.35938-3.2305-0.87109-2.6641-1.4375-1.793-1.2227-1.5312-0.89844-1.2344-0.55078-1.5898-0.027344-1.2812-0.66016-1.0625-1.1758-1.957-1.5352-1.2734-0.097657-1.8438-0.33203-1.5273 0.36328-1.2617 0.60156-1.3789 0.51562-1.1484 0.31641-1.2305-0.14453-1.3203-0.23047-1.0898-0.28516-1.5195 0.6875-1.8086 0.48828-0.94531 1.4609-0.51953 1.3203-0.51562-1.4297-2.5547 1.5273-0.24609 1.2109-0.20312 1.582-0.17188 1.2109 0.058594 1.1797-0.085938 1.2656-0.17578 0.98047-0.34375 1.6953-0.66016 1.4141-0.66406 1.207-0.57422 1.7344-0.54297 1.5195-0.89844 0.71875-2.043 0.34375-1.0938 0.23047-2.1016-0.054687-1.4375-0.66406-1.8438-0.83203-0.86719-1.4414-0.51562-1.8711 0.058594-1.4961-0.11719-1.0898-0.17969-1.168-0.097656-1.1016-0.50781-1.4531-0.85938-1.5742-1.2148-1.6016-1.3359-1.8398-1.0117-1.4258-0.44531-0.98047-0.5625-0.71094-1.2188-0.74219-2.0469v-1.4258l0.625-1.2734 0.85938-1.1602 1.7227-1.3359 0.88281-0.91406 0.95703-0.51172 2.0742-0.93359 2.4961-1.2617 1.0938-0.95312 1.3398-0.64844 1.5742-0.625 1.6016-0.47266 1.3672-1.0703 0.91797-0.82812 1.3672-0.80469 1.3633-0.5625 0.50391-0.94922 0.59375-1.625 0.25781-2.2891 0.15625-1.2461-0.20703-1.5586 0.28516-1.1992 0.74609-1.1133 0.8125-0.99219 0.85938-0.98828 0.75391-0.67578 1.0664-1.7422 0.44922-1.0391 0.125-1.2734 1.3555-1.2773 1.3477-0.15234 1.3008-0.3125 1.5195-0.42969 1-0.48047 1.0234-0.56641 1.1641-0.91797 0.49219-1.0391 0.3125-1.1445 1.1328-1.7969 0.32812-1.1211 0.070312-1.2578 0.32422-1.6328 0.32812-1.5625 0.79297-1.168 1.2344-0.69922 0.88672-0.60547 1.0273-0.58203 1.3359-0.96094 1.1719-1.25 0.39062-1.1719 1.2734-1.0391 0.35547-1.4336-0.83203-1.7383-0.25-0.99219-0.14062-0.99609-0.28516-1.9141-0.082032-1.1875 0.95703-0.95703 0.8125-0.74609 1.6562-0.60547 0.93359-0.60938 0.21094-1 0.14062-1.3906 0.69922-1.457 1.168-1.0312 0.60156-1.2734 0.25781-1.1445 0.023438-1.2812v-1.1211l0.23438-1.5156 0.88672-0.67578 0.97656-0.95703 1.6094-0.65234 0.88672-0.55859 1.375-1.2109 0.46875-1.2852-0.81641-1.7695-0.41016-0.97656 0.77344-2.1367 0.67969-1.25 0.72656-0.81641 1.4766-1 1.9766-0.79297 1.6094-0.32812 1.3984 0.046875 1.0234-1.4219 0.53516-1.2305 1.1367-1.1133 0.97656-0.5 1.3398-0.13672z" fill="#ccc" fill-rule="evenodd"/>
<path d="m87.641 122.81 1.3555 0.10547 1.4141-0.10547-0.085937 1.0508-0.42578 0.94531-0.3125 1.1133 1.1758 1.1523 0.51172 0.98047-0.8125 0.96484-0.95312 0.33203-1.2578 0.64844-1.3125 0.26172-1.1641 0.16016-0.48828 0.95703 0.078125 1.2266 0.82812 0.95703 1.2266 0.48438 1.3672 0.55859 1.1484 0.44531 1.2305 0.74219 0.52344 0.92969-0.26562 1.1719-0.62109 0.86719-0.99219 0.38281-1.1719 0.85156-0.60547 0.90234-0.21484-1.2695-0.59766-0.91797-0.97266-0.37891-1.3281 0.63281-0.24219 1-0.32812 1.1602-0.085937 1.2656 1.5508-0.13281 1.4141 0.23828 0.042968 1.4336-1.3203 0.69141-0.69141 0.88281 0.51172 1.6641 0.33984 1.2656-0.55859 1.0586-0.85547 0.88672-0.37891 1.0352 0.76562 0.68359 0.96484-0.67578 1.5703-0.16797 1.1172 0.10156 0.28125 1.1094-1.1992 0.019531-1.0156 0.1875-0.87109 1.0508-0.80078 0.84375-1.2148-0.09375 1.3867 1.3398 1.3438 0.34375 0.66016 0.79297-0.6875 1.0664-0.85938 1.2734 0.054687 1.0312 1.3203 0.79688 1.1953-0.070313 1.457-0.33594 1.0195 0.21875 1.5078 1 1.1211 0.35156 1.2305-0.98047 0.96094 0.68359-0.47266 1.2383 0.98828 0.35156 1.0234-0.25781 0.60547 0.9375-0.39062 1.0781-0.97266 0.83594-1.0391 1.3047-0.60938 1.9766-0.63672 0.83984-1.0859 0.074218-1.7891-0.085937-1.1133 0.097656-0.33984 1.1328 0.38281 1.1992-0.92969 0.67578-1.3828 0.097656-1.6133 0.22656-0.97266 0.24609 0.55859 1.1875 1.3008 1.2852 0.80859 1.1523 0.86328 1.4414 0.64844 1.0508-0.35156 1.2852-0.88281 0.69922-0.99609 0.57031-0.29688 1.3242 0.32422 1.1758 1.3086 0.91797 1.4141 0.38672 1.5078 0.71875 0.85938 0.80859 1.1484-0.28125 0.12891-1.293 0.86719-1.3086 1.4414-0.39844 1.1641 0.86328 1.2891-0.17578 1.5586-0.57812 2.0039-0.96875-0.45312 1.2812-0.050782 1.2422-0.09375 1.5977 0.10547 1.3203 0.019531 1.2891-0.25 1.2617-1.7852 3.207-0.44141 0.9375-0.63281 1.2617-0.42969 1.0977-0.9375 1.1797-0.75781 0.91016-1.0195 2.0508-0.72656 1.0898-1.5742 1.0352-1.1641 1.8086-0.87891 0.58984-1.5312 0.75781-2.0078 0.054688-2.0508-0.046875-4.7773 0.88281-0.96094 0.60938-0.90234 0.8125-0.51562 1.3281 0.57031 0.94141 0.5 1.3281-0.15625 1.75 0.61719 1.2734 4.7578 4.668 0.79297 0.94141 0.37109 1.125-0.70312 1.957-0.46094 1.9102-0.44141 1.0508-0.55078 1.3086 0.082032 2.0469 1.2461 3.332 0.94922 1.3828 1.0117 1.8164-0.60547 1.2109-0.78125 0.66406-0.375 1.2695-0.46094 1.0352-0.74609 1.2695-0.54297 1.6445-1.5039 2.3242-0.86719 1.3633-0.40234 1.0391 0.51953 2.9375-0.20312 2.2773-1.4102 3.7773-0.089844 3.1406-1.0938 5.1602-1.6289 4.5-0.55469 0.89453-1.2773 1.6914-0.85156 1.3203-0.42578 1.2578-0.28516 1.6172-1.375 3.7383-0.43359 1.5352-0.34375 1.2305-0.92188 1.1445-2.1641 2.1719-0.41797 1.832-1.0508 1.5391 0.027344 2.3047 0.035156 2.9414-0.32422 4.582-0.097656 2.5703 0.45312 1.957 0.66016 0.94922 1.2617 2.3672 1.2109 3.168-1.1875 0.40234-1.8555 0.10938-1.0234 0.60156-1.6445 0.18359-1.5-0.19922-3.4531-0.69141-5.5156-1.8438-1.0859-0.94531-0.99219-1.1758-1.75-2.6094-1.2227-0.57422-0.80859-0.69141 0.007813-1.125-1.6172-0.92578-2.5898-1.7969-1.3672-2.0898-0.80469-0.73438-1.8672-1.4531-2.2617-1.1484-1.3906-0.62891-0.83984-0.59766-0.96484-0.48438-0.71484-1.0547-0.24219-1.457-0.19531-1.0508-1.1133-1.4727-0.88672-0.95312-1.6055-3.3125-1.2812-1.2461-2.7539-2.2305-1.3438-1.4766-1.3086-1.4492-0.61328-1.6914 0.35938-3.2305-0.87109-2.6641-1.4375-1.793-1.2227-1.5312-0.89844-1.2344-0.55078-1.5898-0.027344-1.2812-0.66016-1.0625-1.1758-1.957-1.5352-1.2734-0.097657-1.8438-0.33203-1.5273 0.36328-1.2617 0.60156-1.3789 0.51562-1.1484 0.31641-1.2305-0.14453-1.3203-0.23047-1.0898-0.28516-1.5195 0.6875-1.8086 0.48828-0.94531 1.4609-0.51953 1.3203-0.51562-1.4297-2.5547 1.5273-0.24609 1.2109-0.20312 1.582-0.17188 1.2109 0.058594 1.1797-0.085938 1.2656-0.17578 0.98047-0.34375 1.6953-0.66016 1.4141-0.66406 1.207-0.57422 1.7344-0.54297 1.5195-0.89844 0.71875-2.043 0.34375-1.0938 0.23047-2.1016-0.054687-1.4375-0.66406-1.8438-0.83203-0.86719-1.4414-0.51562-1.8711 0.058594-1.4961-0.11719-1.0898-0.17969-1.168-0.097656-1.1016-0.50781-1.4531-0.85938-1.5742-1.2148-1.6016-1.3359-1.8398-1.0117-1.4258-0.44531-0.98047-0.5625-0.71094-1.2188-0.74219-2.0469v-1.4258l0.625-1.2734 0.85938-1.1602 1.7227-1.3359 0.88281-0.91406 0.95703-0.51172 2.0742-0.93359 2.4961-1.2617 1.0938-0.95312 1.3398-0.64844 1.5742-0.625 1.6016-0.47266 1.3672-1.0703 0.91797-0.82812 1.3672-0.80469 1.3633-0.5625 0.50391-0.94922 0.59375-1.625 0.25781-2.2891 0.15625-1.2461-0.20703-1.5586 0.28516-1.1992 0.74609-1.1133 0.8125-0.99219 0.85938-0.98828 0.75391-0.67578 1.0664-1.7422 0.44922-1.0391 0.125-1.2734 1.3555-1.2773 1.3477-0.15234 1.3008-0.3125 1.5195-0.42969 1-0.48047 1.0234-0.56641 1.1641-0.91797 0.49219-1.0391 0.3125-1.1445 1.1328-1.7969 0.32812-1.1211 0.070312-1.2578 0.32422-1.6328 0.32812-1.5625 0.79297-1.168 1.2344-0.69922 0.88672-0.60547 1.0273-0.58203 1.3359-0.96094 1.1719-1.25 0.39062-1.1719 1.2734-1.0391 0.35547-1.4336-0.83203-1.7383-0.25-0.99219-0.14062-0.99609-0.28516-1.9141-0.082032-1.1875 0.95703-0.95703 0.8125-0.74609 1.6562-0.60547 0.93359-0.60938 0.21094-1 0.14062-1.3906 0.69922-1.457 1.168-1.0312 0.60156-1.2734 0.25781-1.1445 0.023438-1.2812v-1.1211l0.23438-1.5156 0.88672-0.67578 0.97656-0.95703 1.6094-0.65234 0.88672-0.55859 1.375-1.2109 0.46875-1.2852-0.81641-1.7695-0.41016-0.97656 0.77344-2.1367 0.67969-1.25 0.72656-0.81641 1.4766-1 1.9766-0.79297 1.6094-0.32812 1.3984 0.046875 1.0234-1.4219 0.53516-1.2305 1.1367-1.1133 0.97656-0.5 1.3398-0.13672 1.25 0.023437" fill="none" stroke="#fff" stroke-linecap="round" stroke-linejoin="round" stroke-miterlimit="10" stroke-width="2"/>
<path d="m136.33 351.58 0.70312 0.33203 0.78516 0.67188 1.0703 2.918 0.40625 1.3398 1.4023 1.6133 0.74219 0.78516 0.85547 1.1094 0.9375-0.84375 0.16797-1.6406 0.49219-1.25 0.85156-0.82031 1.6719-0.47266 1.1602-1.2695 1.8594 0.33203 1.1328 0.54297 1.5547 1.2773 1.3789 0.30859 1.4922 0.066406 1.3945-0.44531 1.2422-0.24609 2.5234 1.1875 1.8398 0.23047 1.3359-0.57812 1.1758 0.25391 1.2148 0.66797 1.4375 0.85547 1.0352 0.21875 1.2656-0.29688 1.6953-0.24219-0.62891 0.91406-1.1875 1.5703-1.1367 0.83984-1.293 0.95703-0.89453 0.66406-1.0586 1.0703-0.90234 0.91797-0.98047 1.125-1.6367 0.57812-1.2578 0.21875-0.87109 0.54688-0.33984 1.0117-0.60938 1.1289-1.0078 0.41797-1.8906 0.58203-1.0352 0.75391-1.0156 0.8125-1.0273 0.35547-0.59766 1.1289-1.1016 0.32031-1.1602 1.2617-0.86328 0.73047-1.3086 0.68359-0.88281 1.0039-0.28906 1.0078-0.69922 0.75781-0.86719 0.76953-0.46094 1.1406-0.92969 0.60547-0.61328 0.97656-0.78906 0.75-1.1992 0.58594-1.0039 0.13672-1.1445 0.60547-1.0664 0.5625-1.0508-0.070312-0.79297 0.71875-0.92969 0.77344-0.62109 0.80078-1.0977 0.19531-1.1992 0.73828-1.3086 0.47656-0.67969 1.4336-0.34375 1.4727-0.64453 1.3906-0.65234 1.125-0.51172 1.2422-0.88672 1.0977-0.44531 2.1992-0.26562 0.96484-1.2305 0.66406-0.70703 0.96484-0.96094 1.1914-0.22656 1.2344-0.023438 1.457-0.29688 1.5234-0.75781 0.78516-0.70312 0.84375-0.61328 1.0117-0.26562 1.2578-0.53125 1.5586-0.78906 0.88281-0.20703 1.4922-0.63672 0.96094-0.86719 0.77344-0.88281 0.59375-0.88672 1.8438-0.625 0.85547-0.79688 1.4375-0.66016 1.7695-0.74609 1.3555-1.8516 1.1055-0.90234 0.61719-0.5625 1.2812 0.03125 1.0234-0.21484 1.0234-1.1289 0.33594-1.5664-0.56641-1.0703-0.29688-1.0898 0.77734-1.0742 0.33203-1.5156 0.31641-1.0352 0.054688-1.0898-0.039063-1.1992-0.20312-1.6641-0.51562-1.2539-0.32422-1.0273-0.22656-1.8945-0.1875-1.4805-0.11328-1.1836-0.054688-1.2539 0.33203 0.71875 0.98047-0.55469 0.94141-0.96094 1.0352-1.5312 0.53516-1.7188 0.20312-1.1289 0.11328-1.7188-0.074219-1.2734 0.23828-1.5352 0.12891-1.4414 0.09375-1.7188-0.035156-1.4062-0.11328-1.0156-0.16406-2.3477-1.4609-0.97656-0.83203-1.0742-1.0703-0.51562-0.94531-0.92578-0.83203-0.86719-0.90234-1.4062-0.87109-0.98047-0.55469-0.49609-1.2734-0.37109-0.96094 0.019531-1.0547-1.0898-0.90625-1.2383-0.44141-1.1641-1.1094-0.48047-1.4961-0.26172-1.8867 0.058594-1.3477v-1.5352l0.33203-0.96094 0.51562-1.0352 0.14844-1.0352-0.23828-1.7188 0.14453-1.6992 0.29688-1.7383 0.10938-1.5508-1.0156-0.79297-0.55859-0.91406 0.53125-0.86328 1.2852-0.125 1.1445-0.64062 1.4297 0.09375 1.1016-0.035156 1.4492-0.25391 1.3125-0.35938 1.0508-0.32031 1.0742-0.50781 1.0469 0.46484 1.2695-0.078125 1.6875-0.71484 1.4688-0.078125 1.4766-0.96094 1.5117-0.32031 1.8789-1.6328 0.58594-0.84375 1.4336-0.74609 0.80859-0.64844 1.3984-0.79297 1.4922-0.71875 1.3398-0.34766 1.0781-0.55469 1.0391-0.98438 1.1562-0.73047 2.082-0.089844 1.0703-0.75 0.95312-0.67578 1.0039 0.027344 1.5781-0.51172 0.91406-0.63281 1.1484-0.79688 1.8672-0.76172 0.98828-0.33984 0.98047-0.20312 1.0859-0.16797 1.1719-0.83984 1.0234-0.71875 1.4336-0.52344 1.2773 0.17969 0.66016-1.1562 1.4805-0.1875 1.1875-0.84375 0.69531-1.3281 0.91797-0.82031 0.62109-1.4844-0.054688-2.2461-0.050781-2.0938 0.82031-2.3594 1.1523-1.4766-0.125-1.7812-0.61719-1.3086 0.10156-2.1055-0.35938-1.1289-0.023437-1.1289 1.3945-0.60938 2.043-0.28906 1.1562-1.668 1.0742-2.4648 1.7969-1.4531 1.043-0.49609 1.6836-0.69922 1.25-0.67969 1.1055-0.0625 1.2305 0.56641 1.5195 0.019531 0.87109-0.55859 1.25-0.24609 1.0273-0.125 0.98438-0.69922 1.1719-0.44922z" fill="#0a5394" fill-rule="evenodd"/>
<path d="m136.33 351.58 0.70312 0.33203 0.78516 0.67188 1.0703 2.918 0.40625 1.3398 1.4023 1.6133 0.74219 0.78516 0.85547 1.1094 0.9375-0.84375 0.16797-1.6406 0.49219-1.25 0.85156-0.82031 1.6719-0.47266 1.1602-1.2695 1.8594 0.33203 1.1328 0.54297 1.5547 1.2773 1.3789 0.30859 1.4922 0.066406 1.3945-0.44531 1.2422-0.24609 2.5234 1.1875 1.8398 0.23047 1.3359-0.57812 1.1758 0.25391 1.2148 0.66797 1.4375 0.85547 1.0352 0.21875 1.2656-0.29688 1.6953-0.24219-0.62891 0.91406-1.1875 1.5703-1.1367 0.83984-1.293 0.95703-0.89453 0.66406-1.0586 1.0703-0.90234 0.91797-0.98047 1.125-1.6367 0.57812-1.2578 0.21875-0.87109 0.54688-0.33984 1.0117-0.60938 1.1289-1.0078 0.41797-1.8906 0.58203-1.0352 0.75391-1.0156 0.8125-1.0273 0.35547-0.59766 1.1289-1.1016 0.32031-1.1602 1.2617-0.86328 0.73047-1.3086 0.68359-0.88281 1.0039-0.28906 1.0078-0.69922 0.75781-0.86719 0.76953-0.46094 1.1406-0.92969 0.60547-0.61328 0.97656-0.78906 0.75-1.1992 0.58594-1.0039 0.13672-1.1445 0.60547-1.0664 0.5625-1.0508-0.070312-0.79297 0.71875-0.92969 0.77344-0.62109 0.80078-1.0977 0.19531-1.1992 0.73828-1.3086 0.47656-0.67969 1.4336-0.34375 1.4727-0.64453 1.3906-0.65234 1.125-0.51172 1.2422-0.88672 1.0977-0.44531 2.1992-0.26562 0.96484-1.2305 0.66406-0.70703 0.96484-0.96094 1.1914-0.22656 1.2344-0.023438 1.457-0.29688 1.5234-0.75781 0.78516-0.70312 0.84375-0.61328 1.0117-0.26562 1.2578-0.53125 1.5586-0.78906 0.88281-0.20703 1.4922-0.63672 0.96094-0.86719 0.77344-0.88281 0.59375-0.88672 1.8438-0.625 0.85547-0.79688 1.4375-0.66016 1.7695-0.74609 1.3555-1.8516 1.1055-0.90234 0.61719-0.5625 1.2812 0.03125 1.0234-0.21484 1.0234-1.1289 0.33594-1.5664-0.56641-1.0703-0.29688-1.0898 0.77734-1.0742 0.33203-1.5156 0.31641-1.0352 0.054688-1.0898-0.039063-1.1992-0.20312-1.6641-0.51562-1.2539-0.32422-1.0273-0.22656-1.8945-0.1875-1.4805-0.11328-1.1836-0.054688-1.2539 0.33203 0.71875 0.98047-0.55469 0.94141-0.96094 1.0352-1.5312 0.53516-1.7188 0.20312-1.1289 0.11328-1.7188-0.074219-1.2734 0.23828-1.5352 0.12891-1.4414 0.09375-1.7188-0.035156-1.4062-0.11328-1.0156-0.16406-2.3477-1.4609-0.97656-0.83203-1.0742-1.0703-0.51562-0.94531-0.92578-0.83203-0.86719-0.90234-1.4062-0.87109-0.98047-0.55469-0.49609-1.2734-0.37109-0.96094 0.019531-1.0547-1.0898-0.90625-1.2383-0.44141-1.1641-1.1094-0.48047-1.4961-0.26172-1.8867 0.058594-1.3477v-1.5352l0.33203-0.96094 0.51562-1.0352 0.14844-1.0352-0.23828-1.7188 0.14453-1.6992 0.29688-1.7383 0.10938-1.5508-1.0156-0.79297-0.55859-0.91406 0.53125-0.86328 1.2852-0.125 1.1445-0.64062 1.4297 0.09375 1.1016-0.035156 1.4492-0.25391 1.3125-0.35938 1.0508-0.32031 1.0742-0.50781 1.0469 0.46484 1.2695-0.078125 1.6875-0.71484 1.4688-0.078125 1.4766-0.96094 1.5117-0.32031 1.8789-1.6328 0.58594-0.84375 1.4336-0.74609 0.80859-0.64844 1.3984-0.79297 1.4922-0.71875 1.3398-0.34766 1.0781-0.55469 1.0391-0.98438 1.1562-0.73047 2.082-0.089844 1.0703-0.75 0.95312-0.67578 1.0039 0.027344 1.5781-0.51172 0.91406-0.63281 1.1484-0.79688 1.8672-0.76172 0.98828-0.33984 0.98047-0.20312 1.0859-0.16797 1.1719-0.83984 1.0234-0.71875 1.4336-0.52344 1.2773 0.17969 0.66016-1.1562 1.4805-0.1875 1.1875-0.84375 0.69531-1.3281 0.91797-0.82031 0.62109-1.4844-0.054688-2.2461-0.050781-2.0938 0.82031-2.3594 1.1523-1.4766-0.125-1.7812-0.61719-1.3086 0.10156-2.1055-0.35938-1.1289-0.023437-1.1289 1.3945-0.60938 2.043-0.28906 1.1562-1.668 1.0742-2.4648 1.7969-1.4531 1.043-0.49609 1.6836-0.69922 1.25-0.67969 1.1055-0.0625 1.2305 0.56641 1.5195 0.019531 0.87109-0.55859 1.25-0.24609 1.0273-0.125 0.98438-0.69922 1.1719-0.44922 0.82812 0.125" fill="none" stroke="#fff" stroke-linecap="round" stroke-linejoin="round" stroke-miterlimit="10"/>
<path d="m111.83 417.29c0 3.5898-2.9102 6.5-6.5 6.5-3.5898 0-6.5-2.9102-6.5-6.5 0-3.5898 2.9102-6.5 6.5-6.5 3.5898 0 6.5 2.9102 6.5 6.5" fill="#28c028" fill-rule="evenodd" stroke="#000" stroke-linecap="round" stroke-linejoin="round" stroke-miterlimit="10"/>
<path d="m19.723 411.29v-6.9219l-6.0312-9.5469h3.8906l3.875 6.5156 3.7969-6.5156h3.8281l-6.0469 9.5625v6.9062zm25.859 0h-3.6094l-1.4375-3.7344h-6.5781l-1.3594 3.7344h-3.5312l6.4062-16.469h3.5156zm-6.1094-6.5156-2.2812-6.1094-2.2188 6.1094zm7.8281 6.5156v-16.469h4.9844l2.9844 11.234 2.9531-11.234h4.9844v16.469h-3.0938v-12.953l-3.2656 12.953h-3.2031l-3.25-12.953v12.953zm18.531-8.125c0-1.6758 0.25-3.0859 0.75-4.2344 0.375-0.83203 0.88281-1.582 1.5312-2.25 0.64453-0.66406 1.3516-1.1602 2.125-1.4844 1.0312-0.4375 2.2188-0.65625 3.5625-0.65625 2.4141 0 4.3516 0.75781 5.8125 2.2656 1.457 1.5 2.1875 3.5938 2.1875 6.2812 0 2.6562-0.72656 4.7344-2.1719 6.2344-1.4375 1.5-3.3711 2.25-5.7969 2.25-2.4492 0-4.3984-0.74219-5.8438-2.2344-1.4375-1.5-2.1562-3.5547-2.1562-6.1719zm3.4219-0.125c0 1.8672 0.42969 3.2812 1.2969 4.25 0.86328 0.96094 1.957 1.4375 3.2812 1.4375 1.3203 0 2.4062-0.47266 3.25-1.4219 0.85156-0.95703 1.2812-2.3906 1.2812-4.2969 0-1.8945-0.41797-3.3047-1.25-4.2344-0.82422-0.92578-1.918-1.3906-3.2812-1.3906-1.375 0-2.4844 0.47656-3.3281 1.4219-0.83594 0.9375-1.25 2.3516-1.25 4.2344zm15.172 8.25v-16.469h3.2344l6.75 11v-11h3.0781v16.469h-3.3281l-6.6406-10.734v10.734zm0 0" fill="none" stroke="#fff" stroke-linecap="round" stroke-linejoin="round" stroke-miterlimit="10" stroke-width="2"/>
<path d="m19.723 411.29v-6.9219l-6.0312-9.5469h3.8906l3.875 6.5156 3.7969-6.5156h3.8281l-6.0469 9.5625v6.9062zm25.859 0h-3.6094l-1.4375-3.7344h-6.5781l-1.3594 3.7344h-3.5312l6.4062-16.469h3.5156zm-6.1094-6.5156-2.2812-6.1094-2.2188 6.1094zm7.8281 6.5156v-16.469h4.9844l2.9844 11.234 2.9531-11.234h4.9844v16.469h-3.0938v-12.953l-3.2656 12.953h-3.2031l-3.25-12.953v12.953zm18.531-8.125c0-1.6758 0.25-3.0859 0.75-4.2344 0.375-0.83203 0.88281-1.582 1.5312-2.25 0.64453-0.66406 1.3516-1.1602 2.125-1.4844 1.0312-0.4375 2.2188-0.65625 3.5625-0.65625 2.4141 0 4.3516 0.75781 5.8125 2.2656 1.457 1.5 2.1875 3.5938 2.1875 6.2812 0 2.6562-0.72656 4.7344-2.1719 6.2344-1.4375 1.5-3.3711 2.25-5.7969 2.25-2.4492 0-4.3984-0.74219-5.8438-2.2344-1.4375-1.5-2.1562-3.5547-2.1562-6.1719zm3.4219-0.125c0 1.8672 0.42969 3.2812 1.2969 4.25 0.86328 0.96094 1.957 1.4375 3.2812 1.4375 1.3203 0 2.4062-0.47266 3.25-1.4219 0.85156-0.95703 1.2812-2.3906 1.2812-4.2969 0-1.8945-0.41797-3.3047-1.25-4.2344-0.82422-0.92578-1.918-1.3906-3.2812-1.3906-1.375 0-2.4844 0.47656-3.3281 1.4219-0.83594 0.9375-1.25 2.3516-1.25 4.2344zm15.172 8.25v-16.469h3.2344l6.75 11v-11h3.0781v16.469h-3.3281l-6.6406-10.734v10.734z" fill-rule="evenodd"/>
</g>
</svg>
