<?xml version="1.0" encoding="UTF-8"?>
<svg width="425pt" height="500pt" version="1.1" viewBox="0 0 425 500" xmlns="http://www.w3.org/2000/svg">
<g id="a">
<rect width="425" height="500" fill="none"/>
<path d="m280.29 87.574 0.10547-0.007813 0.96484 0.28516 0.17969 1-0.63281 0.86719-0.035156 1.0039 0.73047 0.85156 0.21094 1.0977 0.57031 1.0195 0.89062 0.72266 0.88672 0.53516-0.17969 1.1094 0.37891 1.1172 0.68359 0.78906 0.53125 0.89844-0.003907 1.0547-0.37891 1.0195-0.14062 1.0664 0.16406 1.0391-0.46094 0.90234-0.20703 1.0078-0.078125 1.0117 0.16797 1.0898 0.76562 0.64844 0.78906 0.68359 1.1445 0.042969 1.25 0.003906 0.99609 0.20312 0.98828 0.41016 0.375 1.043-0.25391 1.0547-0.22656 0.98438 0.47266 0.92188 0.35156 0.98438 0.66406 0.78906 0.24219 0.99219 0.18359 1.0664-0.074219 1.0586 0.69531 0.79297 0.15234 1.1016-0.082032 1.0234 0.18359 1.0117-0.41406 0.97656 0.51953 1.0195 0.82031 0.67969 0.92578 0.61328 0.6875 0.80078 0.97656 0.53516 0.17969 1.125 0.3125 1.1367 0.14062 1.0195-0.40234 0.95703 0.59375 0.88672 0.80859 0.64844 0.90234 0.51953 1.0781 0.51953 0.48828 1.0391 0.59766 0.94141 0.26562 0.97656 0.14062 1.1562 0.29297 0.96875 0.3125 1.1016 0.57812 0.85547 0.83984 0.78906 0.72266 0.80469 0.99219 0.41406 0.78125 0.69141-0.51953 0.87891 0.10938 1.0938 0.25 1.0039 0.83594 0.67188-0.15234 1.0117-0.31641 1.0469 0.45703 0.91797-0.37109 0.94531 0.92969 0.62891 0.51562 0.95703 0.18359 1.0117 0.60547 0.94922 0.71094 0.75391 0.98438-0.25 1.0391-0.019531 0.48438 0.91406 0.75781 0.78516 0.32422 1.0039 0.94531 0.48438 0.039062 1.0586-0.13281 1.0898 0.54688 0.86328 0.95312 0.51562 0.003906 1.1367 0.35547 0.98047 1.0469-0.23047 0.94922 0.67969 1 0.11328 0.49609 0.98047 0.050781 1.0742-0.88672 0.48828-0.5 0.94531 0.95703 0.48047 0.98828 0.48438 1.0156-0.28906 0.96875 0.44531 0.76953 0.71875 1.0039 0.58984 1.0273 0.55078 0.82031 0.76172 0.90234 0.43359 1.0234 0.0625 0.96875 0.32031 1.0391 0.19141 0.97656 0.64453 1.1016 0.28125 0.44922 1.0156-0.16016 1.1758 0.82031 0.65234 0.91406 0.64062 1.0938 0.76172 0.78906 0.73828 0.93359 0.56641 1.0117 0.33594 0.52734 0.93359 0.46094 0.96484 0.58984 0.8125 1.0469 0.53516 0.94141 0.71484 0.55859 0.9375 0.73047 0.74219 0.99609-0.25 1.0625-0.1875 0.54297 1.0156 1.0156-0.0625 1.0078 0.29297 0.87109 0.91406 1.0625 0.25 0.98438-0.25391 1.0469-0.36719 0.91797 0.44531 1.1055 0.35156 0.89844 0.61719 0.66016 0.98438 0.77344 0.86328 0.93359 0.78906 0.62891 0.81641 0.85938 0.64453 0.97266 0.30859 0.84766 0.59375 0.83203 0.5625 0.90234 0.52734 0.97266 0.48438 1.082 0.078125 1.168 0.054687 1.1875-0.035156 1.0273 0.57031 1.0742 0.17969 0.89453 0.59375 1.2891 0.20312 1.043 0.21484 0.50781 0.90234 1.0664 0.19141 1.0312 0.035156 1.1094 0.19922 1.1328 0.39844 0.89844 0.45312 0.21094 1.1992 1.0664 0.55078 0.91406 0.73438 0.91797 0.69922 0.68359 0.74609-0.066407 1.082 0.34766 1.0312 0.60547 0.98438 0.64062 0.76953 0.8125 0.75781 0.77734 0.66016 0.76562 0.90625 0.85156 0.71094 0.48438 0.99219 0.64453 0.87109 0.15625 1.082 0.30078 0.97266 0.35547 1.1719 0.24219 1.0703 0.3125 1.0234-0.23047 1.0195-0.21094 1.1875 0.55078 0.88281 0.19531 1.0156-1.0391 1.0195-0.62109 0.83984-0.66406 0.82031-0.17969 1.0742 0.046875 1.0625-0.39062 1.0039-0.43359 0.98828 0.30078 1.0312-0.19141 1.0156 0.38281 1.1016 0.42969 0.91016-0.23438 0.98828 0.011719 1.1562-0.57422 0.85547-0.76172 0.91797-0.32031 0.94922-0.46875 1.1758-0.49219 0.90625-0.42969 0.92578-0.75781 0.66016-1.1016-0.027344-0.65234-0.86719-0.50391-1.0195-0.6875-0.88672-0.78125-0.91406-0.82812-0.61328-1.1211-1-0.87891-0.62891-1.2539-0.003907-0.93359-0.37891-0.91406-0.56641-0.14062-1.0234-0.19922-1.2266-0.50781-0.91016-0.70703-0.91406-0.55078-1.0742-0.53906-0.94531-0.28516-1.1328-0.39844-0.91797-0.082031-1.0312-0.1875-1.1523-0.375-1.082-1.0234-0.34375-0.95312 0.39844-0.21875 1.0859-0.60156 1.1133-0.29688 1.0312-0.3125 1.1992-1.1992 0.19922-1.2344 0.30469-0.29688 1.1367 0.25781 1.0039 0.26172 0.97266-0.59766 0.94141-1.043 0.60547-0.55859 1.1367-0.75781 0.74219-1.0352 0.39062-0.90625 0.64453-0.20312 1.0039-0.375 1.1719-0.58984 1.125-0.027344 1.1328-0.72656 0.90234-0.67969 0.87109-0.98828 0.14453-0.96484 0.50391-0.55078 1.2344-0.4375 0.96875-0.019531 1.3945-1.0508 0.47266-0.82031 0.85547-0.35547 1.2305 0.074219 1.2539 0.46484 0.89062 0.55078 1.3086 0.11719 1.3164-0.42578 1.0586-0.53906 0.97656-0.80078 1.0156-0.87891 0.63281-0.8125 0.60547-0.074218 1.0039-0.42188 0.93359-0.0625 1.2305 0.59375 0.89844 0.44531 0.90625 0.68359 0.88672 0.55859 0.87109 0.14453 1.043 0.074219 1.0625-0.40234 0.9375 0.16406 0.99609 0.16016 0.99219 0.13281 1.0078-0.70703 1.0781-0.51953 0.91797-0.98047 0.48828-0.78516 0.71484 0.16016 1.0195-0.16797 1.1406-0.082031 1.082-1.5078 0.16016-0.99219 0.32031-1.2148 0.25781-1.1328 0.29297-0.16406 1.2266-0.17188 0.99219-1.1133 0.26562v1.1406l0.16406 1.2578-0.55859 0.89453-0.57812 0.88672-0.94531 0.49219-0.98047 0.57031-0.94141 0.36328-0.72266 0.74219-1.0547-0.22656-1.0156 0.074219-0.75391 0.73047-0.77344 0.67969-0.95703 0.61719-0.87109 0.69141-0.58594 0.91797 0.28906 1.0195 0.20312 1.0781-0.74609 0.68359 0.20703 1.0039 0.82422 0.74219 0.44141 0.92969-0.054687 1.0078 0.55078 0.91406 0.58984 0.83594 0.38672 0.96094 0.32812 0.95312 0.50781 0.89062 0.48828 0.91016 0.32812 0.96094 0.35938 1.0078 0.62109 0.87109 0.89844 0.50391 0.86328 0.79688 0.79297 0.65234 0.63281 0.84766 0.71875 1.0898 0.82812 0.77344 0.87109 0.68359 0.46484 0.89844 0.35156 1.0586 0.89062 0.60938 0.9375 0.46875 0.16406-1.0938-0.23047-0.97656-0.88672-0.58203-0.50781-1.0859 0.046875-1.0391-0.097656-1.0977 0.41406-0.91406 0.52344-0.85547 0.54297-0.85156 1.0039-0.10938 1.043 0.20312 1.2461-0.44922 0.47656-0.96484 0.98438-0.34375 0.98438 0.38281 0.28125 1.0117 0.46484 1.0078 0.45703 0.95312 0.011719 1.1133 0.63281 0.80469 0.80859 0.64453 0.9375 0.96875 0.83594 0.58594 0.41797 1.0039 0.32812 1.0078 0.26172 1.1289 0.97266 0.35938 0.75391 0.88281-0.17578 1.0664 0.023438 1.1094 0.007812 1.0625 0.16016 1.1172 0.20703 1.0469 0.30469 1.043 0.35938 1.1641 0.61719 1.2812 0.64844 0.875 0.85547 0.83203 0.86719 1.1016 0.51953 1.3008 0.35547 1.0391 0.68359 0.92969 0.10156 1.0195-0.13281 1 0.40234 0.96094 0.82422 0.93359 0.875 1.0586 0.33984 1.8828 1.0234 0.60938 0.39062 1.0586 0.61328 0.90625 0.29688 1.0078 0.79297 0.63672 0.28516 1.0938-0.61719 0.89453 0.32031 1.0039 0.44531 1.0234 0.97266 0.64062 0.98828 0.29688 0.53125 0.98438 0.79688 0.83984 0.76172 0.85547 0.51172 0.96875-0.17578 1.1172-0.082032 1.0664-0.32422 1.1641-0.66016 1.0898-0.69141 0.96094 0.0625 1.0234 0.066406 1.2539 0.003907 1.2461 0.085937 1.0391 0.43359 1.0586 1.0469 0.47656 0.33203 1.2734 0.082031 1.0664 0.36328 1.0195-0.089844 1.1133 0.19141 0.99609-0.35156 0.98438 0.21484 1.2383 0.28906 1.082-0.1875 0.98438 0.625 1-0.83203 0.73047-1.1094-0.11719-1.2344-0.050781-1.8984 0.1875-1.3945 0.30469-0.84375 1.6953-0.80078 0.86719-0.96875-0.51953-1.0352-0.4375-1.1211-0.3125-0.97266 0.94141-0.24609 1.2891-0.52344 1.1953-0.72266 0.82422-0.69141-0.76172-1.3359 0.14844-1.0312-0.10156-1.1328 0.32812-1.2188 0.44141-0.49219 1.0312 0.27344 1.0859-0.125 1.1484 0.066406 1.0977 0.28125 0.98438 0.054687 1.1055 0.20312 0.98438-0.23828 1.0352 0.42188 0.94531 0.22656 0.98047-0.42188 1.0547-0.30078 1.0117 0.003907 1.0742 0.49609 0.92188 0.070313 1.0156-0.33984 0.99609-0.48828 0.91016-0.35547 0.94531 0.03125 1.0859 0.375 0.99219 0.83594 0.57422 0.71875 0.73047 0.09375 1.0469 0.23047 1.0742-0.1875 1.0742-0.35938 1.0078 0.09375 1.0352 0.125 1.0234-0.57031 0.84375-1.1211 0.38281-1.1055-0.41406-1.4688 0.25391-1.293 0.30859-0.66797 1.1133-0.91016 0.58203-1.1836 0.20312-0.82812 0.85547-0.95312 0.58984-0.38281 1.0938-1.4102 0.11719-1.0391-0.44531-0.92188-0.71875-0.98047-0.26562-1.0273-0.5-1.0234-0.27734-0.30859-1.4648-1.0312-0.011719-0.24609 1.3203-0.14453 1.3984-0.20312 1.1172-0.69531 1.7305-0.89844 0.76172-0.85938 0.64453-0.45312 1.0898-1.3594 0.60938-0.91016 0.50391-1.0977 0.14062-0.76953 0.80078-1.0703 0.19141-1.1289-0.63281-1.3516-0.29688-0.86328 0.61328-0.23438 1.2344-0.46875 0.91797-0.78516 1.168-1.1055 0.64453-0.55859 1.0312-0.23438 1.2969-1.3555 1.3789-1.3672 1.3047-1.0469 0.86328 0.13672 1.2148-0.36719 1.1094-0.98047 0.43359-0.65625 1.0742-1.1289 0.85156-1.0039 0.92969-0.98828 0.65234-0.32422 1.0469-0.37109 1.0547-0.49219 1.0664-0.91406 0.41797-0.49219 1.1445-1.4492 0.54688-1.6133 0.92188-0.97656 0.75391-0.054688 1.0781-0.34766 1.3203 0.22656 1.1484 0.88672 0.73047 0.46484 1.0078-0.027344 1.1094 0.20703 0.99609-0.27734 1.1094-0.34375 0.99609-0.84375 0.68359-0.91016 0.54688-0.28125 1.125-0.17969 1.1367-0.69531 0.75-0.41016 0.94922-0.27344 1-1.0039 0.53125-0.99219 0.17969-1.1562 0.13281-1.0664-0.15625-1.0625-0.41016-0.63672-0.81641-1.0078-0.39844-1.1172-0.16016-0.91797 0.44141-1.0039-0.035157-1.2539-0.29688-0.97656 0.28516-1.0391 0.49219-1.1133 0.63281-0.039063 1.0977-1.082-0.046875-1.1172-0.28906-1.0312 0.22656-0.96875-0.32031-0.93359 0.64844-0.81641 0.65625-0.98438 0.38281-0.80078 0.74219-0.39453 0.99609-0.39844 1.0234-0.66016 0.90625-0.78125 0.85938-0.77344 0.64062-1.1289-0.007812-1.0078 0.70703-0.54688 1.043-0.87891 0.55859-0.66797 1.0195-0.73828 0.94922-0.69141 1.0625-0.51953 1.1445-0.72266 1.1914-0.85156 0.67578-1.2969-0.26562-0.62109 0.79297-0.47656 0.89453-0.55469 1.0469-0.60156 0.90625-0.92969 0.54297-0.37891 1.1875-0.40625 0.92969-0.53516 1.1055-0.23047 0.98438 0.003907 1.1602 0.88281 1.2812 0.75391 0.69141 1.0781 0.4375-0.44141 1.0938-0.55859 1.1992-1.3281 0.84766-1.2422 0.91406-0.89062 0.46875-1.1914 0.074219-1.1133 0.046875-0.96094-0.6875-1.0352-0.34766-1.0898 0.47266-1.2031 0.16797-0.92188 0.51172-0.75 0.85547-1.1367 0.23047-0.79297 0.82812-1.1562 0.27734-1.5039 0.41016-1.3828 0.26172-1.1523-0.24609-0.71875-0.72266-0.92188-1.1133-0.99609-0.12109-1.1719 0.21875-1.4336 0.21094-1.6484 1.5547-0.91016 0.6875-2.0039 0.73438-0.92188 0.40625-2.3281 1.793-1.3828 1.3008-0.91406 0.98828-1.3711 1.6211-1.3164 0.015625-0.9375-1.1328-1.0508-1.2617-0.48047-1.4102 1.0195-0.71094 0.86328-0.5 1.1445-0.26953 1.0078-0.015625 0.15625-1.3359 0.375-1.1992 0.39453-0.93359 0.63672-0.88281 0.45312-1.0742-0.12891-1.082 0.5625-1.1133 0.11719-1.5117v-1.9375l0.24219-1.8516-0.23047-1.875-0.015625-2.4258-0.38281-0.96875-0.92578-0.5625-0.83984-0.98047 0.35547-1.1953-0.003906-1.1289 0.32422-1.3516-0.085937-1.2539 0.94922-0.37109 0.60938-0.9375 0.070312-1.7578-0.082031-1.1445 0.16797-1.0625-0.33594-1.2305-1.3164-0.36719-1.2891 0.18359-1.2031 0.046875-1.0234 0.62891-0.89062 0.76562-0.92578 0.70703-1.0273 0.53906-1.4297 0.26953-1.5234 0.10156-1.2188-0.75781-0.027344-1.3477 0.17578-1.0547 0.035157-1.0586 0.097656-1.5352-0.11328-1.3359-0.76953-0.74609-0.33203-1.3477-0.10938-1.0586 0.32031-1.5078-0.035157-1.5391-0.27734-0.98438-0.85938 1.0078-1.1914 0.30469-1.1797 0.45312-0.55078 0.83984-0.91016 0.53125-0.84375-0.58203-1.1797 0.22656-1.1055-0.24609-0.96875 0.35938-0.80469 0.80859-1.0273 0.3125-0.87891 0.63672-0.054688 1.4883-1.0391 0.48828-1.0781 0.11328-1.0039 0.84375-1.0898 0.25391-0.82031-0.625-0.92578-1.4375-0.26562-1.1016 0.0625-1.2227-0.35547-1.2617 0.32422-1.2188 0.58984-0.92188 0.85156-0.95703 0.94922-0.70312 1.0703-0.32031 0.46875-1.2305 0.96094-0.58984 1.043 0.14453 0.77734-0.92188-0.22266-1.082-0.023437-1.1133 0.59375-1.3281 0.23828-1.0703 0.38672-0.92969 0.60938-0.80469 0.86328-0.66406 0.65234-0.93359 0.30469-1.1523-0.29688-1.4883 0.375-1.082 0.79297-0.67969 1.1328 0.14062 0.82812-0.65234 1.1562-0.22266 0.39844-1.4336 1.1406-0.48828 1.1406-0.47266 1.0508-0.97266 1.3047 0.57812 1.3516-0.58984 1.0234-0.42188 0.89062-0.67969 0.88281-0.62109 0.75781-0.80859 1.1016-0.75 0.51172-1.0273 0.84375-0.71094-0.21094-1.1641 0.19922-1.3164-0.46484-1.3555-0.69922-0.88281-0.67969-1.2695-0.58594-0.87891-0.88281-0.91797-0.33594-1.1289-0.44531-0.92188-1.25-0.20312-0.74219-0.71875-0.92578 0.69922-0.56641 0.83594-1.1641 1.3594-0.625 1.0117-1.4023-0.21875-1.0117-0.46875-1-0.47266-1.1445-1.0781-0.78125-0.72656-1.0273-0.26172-1.1016-0.69531-1.2109 0.015625-1.3711 0.58984-1.3867-0.10156-0.98828-0.40625-1.0078 0.015625-1.4883 0.15625-1.0742-0.24609-1.1367 0.27734-1.1445-0.21875-0.83203 0.56641 0.019531 1.4297-0.23438 1.375-0.28906 1.0859 0.37891 1.0117 0.22656 1.0625 0.11719 1.043 0.16016 1.1992-0.38672 0.96875-0.15234 1.1211 0.28906 1.0781 0.29688 1.2773-0.13672 1.1172 0.47266 1.0469-0.89844 0.62109-0.61328 1.207-0.17188 1.8359-1.1172 0.27344 0.003906 1.1992-0.082031 1.0508-0.88281 0.47656-0.94531 0.45703-0.74609 1.207-0.91406 0.45312-0.87891 0.84766-0.09375 1.0742-0.30469 1.2227-0.90625 0.64453 0.003906 1.0625 0.95703 0.66016 0.92188 0.67578 0.19531 1.0625 0.50781 1 0.28125 1.2812 0.78125 0.66797 1.0117 0.62891-0.078125 1.3555 0.039063 1.1328-0.33594 0.96484 0.25391 1.0898-0.11719 1.0859-0.10938 1.0273-0.10938 1.0078-0.003906 1.1875 0.53516 1.0898-0.92188 1.1719-0.97266-0.29688-1.125 0.4375-0.45703 1.1055-1.2266 0.44922-1.1797 0.027344-1.0156-0.29297-1.1289-0.34766-0.94531-0.37109-0.89062-0.69531-0.5-0.87891-0.97266-0.57031-1.2383 0.15234-0.89062 0.50391-1.0117 0.53906-1.1445 0.85547-0.69141 0.99609-0.73438 1.3594-0.76953 0.86719-0.75391 0.85547-0.69531 0.76562-1.2539 1.0391-0.48047-1.082-0.68359-1.0156-0.66016-1.0312-0.48047-0.97266-0.71094-1.1172-0.82031-1.207-0.73828-1.0508 0.88672-0.48828 0.52344-0.95312-0.14844-1-0.47266-0.99219-0.73047-1.25-0.76953-0.86328-0.89453-0.94141-0.88672-0.77734-0.75781-0.69141-0.80859-0.62891-0.41797-0.95703-0.67969-0.85547-0.78125-0.95703-0.80469-0.60938-0.92188-0.62109-0.73828-0.75781-0.84766-0.59375-1.0273-0.019531 0.37891-0.96094 0.039062-1.0508-0.23828-1.0625 0.085937-1.0195-0.54688-0.84375-0.76953-0.64844-0.76172-0.73047-0.35938-0.95312-0.22656-0.98828-0.21875-1.0039-0.61328-0.84375-0.78906-0.66016-1.332-0.89062-0.99609-0.17578-0.31641-0.98828-0.92969-0.50781-0.25781-1.0273-0.98047-0.23828-0.13672-1.0078 0.56641-0.84375 1.0117 0.13672 0.35938-0.96875 0.35938-1.1875-0.41406-1.0156-0.55078-0.90625-0.73047-0.75-0.53516-1.125-1.0781-0.83203-1.0195-0.75781-0.91016-0.55469-0.97266-0.34766-0.90625-0.45312-0.73047-0.76562-1.0625-0.29297-0.85547-0.66797 0.027344-1.0273-0.078125-1.0586 0.33203-1.0078-0.050781-1.1289-0.45703-1-0.75-0.77734 0.37109-0.92969 0.082031-1.1289-0.71484-0.9375-1.0391-0.99609-0.86719-0.76953-0.95703-0.79688-1.0898-0.33203-0.67969-0.91016 0.25-1.0195 0.019531-1.0352-0.22266-1.0234 0.61328-0.8125 0.48047-0.98438-1.1602-0.003907-0.054687-1.0195-0.8125-0.67188 0.33203-0.96875 0.27734-1.0352-0.74609-0.84375-0.77344-0.75 0.015625-1.082-0.26172-1.0234-0.46094-0.97266-0.90625-0.63281-0.94922-0.48828-0.63672-0.84375-0.23438-1.0547-0.92188-0.70312-0.27734-1.0391-1.2188-0.066406-0.85547-0.74609-0.88672-0.69141-0.8125-0.62891-1.0078-0.75781-0.88672-0.68359-0.37891-0.94531-0.97266-0.58984-0.60938-0.86719-0.33984-0.99219-0.39844-0.92188-0.39453-0.94922-0.54688-0.90625 0.10547-1.1484-1.0195-0.28125-0.22656-1.0156-0.5-0.92188 0.61328-0.80859 0.90625-0.43359 1.0117-0.023437 0.53906-1.0547-0.085938-1.3047-0.36328-1.0508-0.55078-1.082-0.82812-0.61719 0.33594-0.94531 0.10547-1.3086-0.40625-0.94922 0.042969-1.0039-0.51562-1.0703-0.58203-0.96484-0.57812-0.92969-0.8125-0.70703-0.10938-1.1133-1.0117-0.085937-0.007813-1.0312-0.042968-1.0117 0.41016-1.0547-0.24219-0.98438-0.82422-0.69141-0.22266-1.0117 0.12891-1.0352-0.86328-0.57031-0.53125-0.86719-0.17188-1.0156-0.65625-0.78125-0.90234-0.55078-0.91797-0.50391-0.62109-0.78516-1-0.44141 0.52734-0.85547-0.74609-0.84375 1.0586-0.12891 0.34375-1.1523-0.32422-1.0156 0.54688-1.0117-0.48828-1.2148-0.60938-0.85938 0.60156-0.81641-0.11328-1.0195-0.47656-0.92969-0.42969-1.0195-0.42188-0.96094-0.097656-1.0352-0.85938-0.71484-0.70703-0.74609-0.12891-1.0391 0.28906-1.1328 0.27734-0.98047 1.0898-0.42188-0.31641-1.0625 0.019531-1.0156-0.14453-1.0625 0.78125-0.69922 0.29297-1.0078 0.43359-0.91406 0.20703-1.0352 0.26953-1.0391 0.16016-1.2461-0.03125-1.0234-0.51172-0.98438-0.95703-0.875-0.47656-0.93359-0.79297-0.63281-0.94531-0.45703 0.097656-1.0195-0.78906-0.70703-0.84766-0.64062-0.75391-0.66797-1.0117-0.52734-1.0117-0.019532-0.71094-0.75781-0.44531-0.97266-0.046875-1.0078-0.83594-0.64844-0.97266-0.3125-0.23438-1.0586-0.98047-0.41797-0.59375-0.89453-0.25-1.0273 0.51172-0.88672 0.007812-1.0234-0.70312-0.83594-0.24219-1.0547-0.93359-0.45703-0.10547-0.99609-0.50391-1.082-1.0078 0.10938-0.91016-0.45703-0.16016-0.98828 0.21875-1.3047-0.80078-0.71094-0.47266-1.1836-0.92188-0.78125-1.0117 0.070313 0.26562-1.0664-0.82812-0.5625 0.027343-1.0117-1.0039-0.25391 0.14453-1.0312-0.97266-0.25-0.89453-0.62891-0.75-0.69141-1.0117-0.035156-0.17969 1.0156-0.71484-0.75391 0.84375-0.62109-0.023438-1.0508 0.14453-0.99609-0.35156-1.1602-0.39062-1.0312-0.5-0.88672-0.03125-1.0195 0.5-0.87109 0.25391-0.98438-0.14062-1.0352-0.45703-0.91016-0.007812-1.0195 0.36719-0.94531-0.74609-0.77344-0.63281-0.91016-1.0117-0.375-0.25391-1.1797-0.88281-0.69531-0.875-0.82812 0.83984-0.60156 0.082031-1.0352-0.13281-1.1172-0.65234-0.87109-0.75391-0.72266-0.26172-1.0273 0.45312-0.9375 0.1875-1.0234-0.88672-0.48828-0.042968-1.0078 0.48828-0.89062-1.0625-0.26562-0.29688-1.0234 0.99609 0.13281-0.38281-0.96484 0.63672-0.78516 0.72656-0.85547 0.99609-0.15234 0.97266-0.33203 0.12109-1.2773-0.30078-1.0938-0.58594-1.043-0.80469-0.85156-1.2695-0.64844-0.64453 0.80859-0.90234 0.45312-0.50391-0.95312-0.78906-0.69922-1 0.21484 0.25781-1-1-0.44141-0.65234-0.77344-0.39453-0.95703-0.38281-0.98438 0.39062-1.0547-0.035156-1.0117-0.89453-0.50391-0.29688-1.0234 0.29297-0.96094 0.84375-0.55859 0.49219-0.89844 1.0117-0.29688 1.0977 0.078125 0.67188-1.1094-0.75781-0.67969-1.0234 0.13672-0.88672-0.52734-0.93359-0.375 0.13672-1.0039 0.78906-0.73047-0.42188-0.91016-1.0195 0.25391-0.40234-0.91797-0.87891 0.48047-0.26953-1.0352-0.26562-1.0156-0.98438-0.55859-0.76562 0.73047-0.94141-0.46875-0.29688-0.96875-0.46094-1.082-1.2852-0.16406-1.0117 0.33984-0.14844 1.0469 0.31641 0.98047-0.85547 0.55078-0.44531-0.91406-0.72266-0.8125-0.86328-0.85156-0.65234-0.98047-1.0234 0.16406 0.29688-0.98438-0.50391-0.90234-0.53516-0.95703 0.92188-0.44922-0.15625-1.0117-0.80078-0.92969-1.0586-0.74219-0.86719-0.5-1.0352 0.074219-1.0469-0.15234-0.023438-1.0469 1.0859 0.007812 0.41016-0.94141 0.80469-0.68359 0.625-0.79297 0.99219-0.17578 1.0234 0.13281 0.47656-0.89453 0.55859-0.92969 0.14453-1.0469 0.16797-0.99219 0.36328-1.0391 0.22266-1.1055 0.27734-1.1016-0.36328-0.95312 0.31641-0.97656-0.46875-1.0156-0.79688-0.79688-0.29297-0.96094-0.76953-0.83203-0.97656-0.33594-0.73438-0.73828-0.86719-0.50391-1.0234-0.32422-1.0234-0.15234-1.0273-0.24219-1.0234-0.17969-1.0664-0.039062-1.0508 0.14844-1.0508 0.25391-0.93359 0.38281-0.96875 0.56641-0.64453 0.875-0.066406 1.0469 0.65625 0.80859 0.76562 0.73828 0.09375 1.0117-0.30469 1.0078 0.45703 1.082 0.30859 0.97266 0.42969 0.90625-0.10547 0.99609-0.85938-0.55469-0.92969-0.42188-0.83594-0.55469-0.007813-1.0664-0.875-0.625-0.64062-0.77344 0.1875-1.0156-1.0039 0.097656-0.51562-0.875 0.91406-0.58984-0.71094-0.70703-1.0391 0.12109-0.66406-0.75391-0.85156-0.60156-0.90234-0.48438 0.09375-1.0586-0.80078-0.61328-0.13672-0.99219-0.15234-1.0156-0.73047-0.73828 0.94531 0.35547 1.0039 0.22656 0.90234 0.51172 0.88672-0.49219 1.0156-0.042969 0.17578 1.0078 0.98047 0.20312 1.1289 0.15234 0.8125-0.67969 0.57812-0.875 0.48438-0.94922 0.34375-0.94531 0.25-1.0195 0.11719-1.0625 0.050782-1-0.015625-1.1094-0.21875-0.98047-0.26953-1.0469-0.40234-0.95312-0.44922-0.95703-0.51172-0.95703-0.58984-0.91016-0.61328-0.80859-0.65625-0.80078-0.72656-0.74609-0.80859-0.64062-1.0234-0.51172-1.0039-0.21484-1.1562-0.20703-1.0898 0.87109 0.19531-1.0781-1.1758 0.92969 0.80078-1.0938-1.0391 0.11328-0.86719 0.54688-0.99609-0.16406-0.46875-0.89062-0.53125-0.85938 0.10938-1.1172-0.28125-0.98047-0.48438-0.97656 0.17578-1.1172-0.007812-1.082 0.23438-0.98047 0.34766-1.0078 0.90625-0.47656 0.80859-0.69531 0.14844-1.0312-0.66016-0.8125-0.82422-0.66797-1.0586-0.57031-0.94141-0.59375-1.2383-0.26953-1-0.42969-0.90234-0.5625 0.003907-1.0156 1.0703 0.3125 1.1367-0.74219 0.38672-0.96484-0.046875-1.0039-0.15234-1.0977 1.6016 0.17188 1.168 0.13281 1.0781-0.47266 1.4961-0.84375 1.0273-0.9375 0.94141-0.66797 1.3203-0.84375 1.0742-0.77344 0.33984-0.99219-0.035156-1.7812 0.070312-1.0586 0.76172-0.92188 0.22266-1 0.26953-1.0938 0.55469-0.94531 0.12109-1.2031 0.43359-1.2656-0.27734-1.3477-0.44922-1.0078-0.21875-1.1289-0.32031-1.168-0.77344-0.80469 0.36328-1.0078 0.23438-1.0391 0.55859-1.3203 0.23047-1.1836 0.38281-1.082 0.36328-1.3164 0.63672-1.4062 0.44141-1.0195 0.60547-1.293 0.25781-1.0781 0.48047-1 0.62891-0.78516 0.66016-1.0391 0.76562-0.875 1.1055-0.57812 0.83594-0.5625 1.0352-0.48047 0.9375-0.42578 0.69922-1.0977 0.94141-0.51953 0.92578-0.41016 1.1055-0.0625 1.1797-0.28125 1.0977 0.054687 0.99219-0.22656 1.3125 0.12891 1.0703-0.46094 0.76172-0.66406 1.2461-0.51953 1.1523-0.24219 1.125-0.47266 1.3164-0.12109 0.90234-0.63281 1.0938-0.49609 0.93359-0.57031 1.2422-0.67578 0.71875-0.75391 1.1133-1.0234 0.71875-0.98438 1.1055-0.078125 1.0312-0.74609 0.98047-0.33594 1.0586-0.52344 1.082-0.33203 1.0391-0.63281 0.51953-0.95703 0.75391-0.74609 1.0039-0.57031 0.84766-0.66016 0.76562-0.82031 1.125-0.074219 1.0898 0.49219 1.0234-0.011718 0.36328-1.0625 1.0078-0.42578 0.89844-0.50781 1.082 0.15234 1.1602 0.19141 1.082-0.22266 1.0586-0.29688 0.66406-0.84766 1.0625 0.32031 1.1406 0.035156 0.92969-0.58984 1.1328-0.27734 1.0703 0.050781 0.98828 0.17578 1.0703 0.003906 1.1445 0.20312 1.0039-0.22656 0.88672-0.64844 0.875-0.52734 0.74609-0.69531 0.79688-0.64844 0.95703-0.54688 0.88281-0.60938 1.082-0.45703 0.9375-0.60938 0.69922-0.97266 0.26562-0.98047-0.21094-1.2422 0.62109-0.90234 0.71875-0.89062-0.050782-1.1367-0.32031-1.0547-0.35547-1.082-0.65625-0.80078 0.078125-1.1289-0.69922-0.9375-0.68359-0.85156-1.0938-0.03125-0.050782-1.0195 0.078125-1.1055 0.49609-1 0.10938-1.0391 0.70312-0.76953 0.29297-1 0.51953-0.85547 0.60938-0.89062 0.84375-0.72656 0.57422-0.90234 0.60938-0.91406 1.0352 0.050782 0.89453-0.58594 0.84766-0.57422 0.66016-0.94531-0.070313-1.1523 0.60938-0.84766 1.1445-0.82031 0.63672-0.85547-0.054687-1.1875 0.21094-1.0742 0.44141-1.3398 0.62109-0.80469 0.28125-1.2227 0.54688-0.96094 0.51172-0.94141 0.34375-1.0391 0.41016-0.94531-0.027343-1.0547-0.25391-0.97656 0.38672-0.94141 0.17969-1.2383 0.15234-1.0156-0.007812-1.1055-0.22656-0.98047 0.1875-1.3906-0.15625-1.1172 0.46484-0.94141 0.78125-0.65625 0.91797-0.41797 0.88672-0.6875 0.9375-0.82812 0.19922-1.2422 0.69141-0.73438 0.51562-0.90625-0.61328-0.8125-0.47656-1.0273-0.41016-0.91797-0.79688-0.67578 0.49609-0.94141 0.88281-0.69922 1.0391-0.29297 0.97656-0.38281 0.6875-0.92969 0.63672-0.85156 1.0312-0.47266 0.28906-1.0273 0.73438-0.85156 1.0742-0.30078 1.0195-0.085938 0.97266-0.42188 0.26172-1.1289 1.3125-0.59375 1.0781-0.875 0.8125-0.73828 0.94531-0.51562 1.0703-0.21484 0.26953-1.0273 0.28125-1.0938 0.76953-0.88672 0.69922-0.87109 0.59375-0.94531 0.65625-0.89453 0.97656-0.50781 1.0312 0.019531 1.1016-0.16406 1.207-0.44531 1-0.070313 0.98828-0.42188 0.82422-0.67188 1.082-0.48047 1.0547 0.019531 1.168-0.33594 1.1445-0.070312 0.94141-0.39062 0.96875-0.58203 0.90234-0.54297 1.0625-0.22656 0.027344-1.0938 0.19922-1.0469 0.33984-1.0508 0.050781-1.1484 0.25391-1.0273 0.33203-1.3281 0.33594-1.0039 0.48828-0.95312 0.40234-0.94531 0.39453-1.043 0.027344-1.0078 0.29297-1.0586 0.53516-0.86719 0.64062-0.85156 0.26172-1.0508 0.32422-0.97266 0.28125-1.0859 0.035157-1.2266 0.39844-0.93359 0.24609-1.0391 0.55078-0.96875 0.19531-1.2461 0.14062-1.168 1.0469-0.74609 1.0742 0.44922 1.0938-0.47656 0.85938-0.58594 0.94922-0.38672 0.92578 0.42969 0.86719 1.5312 0.92969 1.0742 0.89062 0.49609 1.0469-0.13281 1.1172 0.097656 1.1836-0.058594 0.95703-0.85156 1.3828-0.125 1.457-0.31641 1.0938 0.375 1.2656 0.16797 0.79688 0.80859 1.3398 0.73828 1.5156-0.23438 1.2148-0.070312 1.043-0.15625 0.98438-0.20312 1.1133 0.30469 1.0312-0.42188 0.75781-0.73438 1.0078 0.21875 1.0508 0.078125 1.0312-0.12891 1.0859 0.22266 1.1953-0.32422 0.98828-0.53906 1.0078-0.32031 1.0469-0.51562 0.94141-0.39844 1.0977 0.24609 1.3359-0.30078 0.98828-0.20312 1.1758-0.31641 0.92578-0.59375 0.96484-0.4375 1.0547-0.28516 0.76562 0.71875-0.042969 1.0078 0.44531 0.92969 1.2148 0.4375 1.0586 0.23047 0.98438 0.5 0.94922 0.47266 0.51172 0.93359-0.32031 1.0938-0.62891 1.1836-0.80078 0.85938-0.78906 0.82812-0.69922 0.83984 0.58594 0.99609 0.89062 0.75 0.94141 0.51172 0.58203 1.0195 0.35156 0.96875 1.043 0.40625 1.1172 0.3125 0.85938 0.66406-0.46484 1.1211-0.73047 0.73828 0.32422 1.0586 0.67578 0.85938 0.91406 0.56641 1.1836 0.38672 1.2109 0.375 1.1875 0.35156 0.96875 0.74219 0.53906 0.94141 0.47656 1.1836 0.52344 0.91797 1.0195 0.78516-0.5 0.92188-0.65234 0.89062-0.87109 0.73047-0.55078 0.88281-0.14844 1.1172 0.023438 1.1797-0.35938 1.0469 0.69141 0.80469 0.96094 0.55859 1.0195 0.25781 1.2969-0.27734 1.1328 0.089844 0.94531 0.5625 1.1562 0.15625 0.98047 0.50391 0.60156 0.89844 0.10938 1.1328-0.12109 1.0547-0.0625 1.1562 0.91797 0.44531 1.3008 0.40625 0.94531 0.34766 1.0586 0.003906 0.625 0.80078 1.0039 0.15625 0.75391 0.66016 0.36328 1.2227 0.26562 0.98047 0.10156 1.2188 0.5625 1.2812 0.39062 1.0156 0.87891 0.49219 0.67578 0.875-0.87891 0.63281 1.0195 1.1914 1.082-0.023438 1.1094 0.25781 0.39453 1.1875 0.21875 1.2812-0.28125 1.2305 0.84375 0.58594 0.32812 0.96484 0.61328 0.95312 0.082031 1.0234-0.007812 1.5117 0.67188 0.92578 0.39453 1.0547 0.71094 1 0.32812 1.2109 0.10938 1.0234-0.20312 1.2266-0.10938 1.1523 0.86328 0.70703 0.73438 0.98828 1.168 0.4375 0.73828 0.76953 0.97656 0.4375 1.1289-0.09375 0.50391 0.97656 0.16406 1.1836 0.66797 0.96094 0.21094 0.99219-0.41406 1.0117-0.097656 1.0234 0.22266 1.1133 0.78125 1.1367 0.97656 0.86719 0.86328 0.56641 1.1602 0.17188 0.93359 0.51953 1.0469 0.36328 0.50391 0.95703 0.55859 0.92969 1.3242 0.39844 0.76562 0.70312 1.0664 0.68359 0.71875 1.0117 0.78125 0.87891 0.85547 0.51562 1.0703-0.69531 1.0078 0.21094z" fill="#0a5394" fill-rule="evenodd"/>
<path d="m280.29 87.574 0.10547-0.007813 0.96484 0.28516 0.17969 1-0.63281 0.86719-0.035156 1.0039 0.73047 0.85156 0.21094 1.0977 0.57031 1.0195 0.89062 0.72266 0.88672 0.53516-0.17969 1.1094 0.37891 1.1172 0.68359 0.78906 0.53125 0.89844-0.003907 1.0547-0.37891 1.0195-0.14062 1.0664 0.16406 1.0391-0.46094 0.90234-0.20703 1.0078-0.078125 1.0117 0.16797 1.0898 0.76562 0.64844 0.78906 0.68359 1.1445 0.042969 1.25 0.003906 0.99609 0.20312 0.98828 0.41016 0.375 1.043-0.25391 1.0547-0.22656 0.98438 0.47266 0.92188 0.35156 0.98438 0.66406 0.78906 0.24219 0.99219 0.18359 1.0664-0.074219 1.0586 0.69531 0.79297 0.15234 1.1016-0.082032 1.0234 0.18359 1.0117-0.41406 0.97656 0.51953 1.0195 0.82031 0.67969 0.92578 0.61328 0.6875 0.80078 0.97656 0.53516 0.17969 1.125 0.3125 1.1367 0.14062 1.0195-0.40234 0.95703 0.59375 0.88672 0.80859 0.64844 0.90234 0.51953 1.0781 0.51953 0.48828 1.0391 0.59766 0.94141 0.26562 0.97656 0.14062 1.1562 0.29297 0.96875 0.3125 1.1016 0.57812 0.85547 0.83984 0.78906 0.72266 0.80469 0.99219 0.41406 0.78125 0.69141-0.51953 0.87891 0.10938 1.0938 0.25 1.0039 0.83594 0.67188-0.15234 1.0117-0.31641 1.0469 0.45703 0.91797-0.37109 0.94531 0.92969 0.62891 0.51562 0.95703 0.18359 1.0117 0.60547 0.94922 0.71094 0.75391 0.98438-0.25 1.0391-0.019531 0.48438 0.91406 0.75781 0.78516 0.32422 1.0039 0.94531 0.48438 0.039062 1.0586-0.13281 1.0898 0.54688 0.86328 0.95312 0.51562 0.003906 1.1367 0.35547 0.98047 1.0469-0.23047 0.94922 0.67969 1 0.11328 0.49609 0.98047 0.050781 1.0742-0.88672 0.48828-0.5 0.94531 0.95703 0.48047 0.98828 0.48438 1.0156-0.28906 0.96875 0.44531 0.76953 0.71875 1.0039 0.58984 1.0273 0.55078 0.82031 0.76172 0.90234 0.43359 1.0234 0.0625 0.96875 0.32031 1.0391 0.19141 0.97656 0.64453 1.1016 0.28125 0.44922 1.0156-0.16016 1.1758 0.82031 0.65234 0.91406 0.64062 1.0938 0.76172 0.78906 0.73828 0.93359 0.56641 1.0117 0.33594 0.52734 0.93359 0.46094 0.96484 0.58984 0.8125 1.0469 0.53516 0.94141 0.71484 0.55859 0.9375 0.73047 0.74219 0.99609-0.25 1.0625-0.1875 0.54297 1.0156 1.0156-0.0625 1.0078 0.29297 0.87109 0.91406 1.0625 0.25 0.98438-0.25391 1.0469-0.36719 0.91797 0.44531 1.1055 0.35156 0.89844 0.61719 0.66016 0.98438 0.77344 0.86328 0.93359 0.78906 0.62891 0.81641 0.85938 0.64453 0.97266 0.30859 0.84766 0.59375 0.83203 0.5625 0.90234 0.52734 0.97266 0.48438 1.082 0.078125 1.168 0.054687 1.1875-0.035156 1.0273 0.57031 1.0742 0.17969 0.89453 0.59375 1.2891 0.20312 1.043 0.21484 0.50781 0.90234 1.0664 0.19141 1.0312 0.035156 1.1094 0.19922 1.1328 0.39844 0.89844 0.45312 0.21094 1.1992 1.0664 0.55078 0.91406 0.73438 0.91797 0.69922 0.68359 0.74609-0.066407 1.082 0.34766 1.0312 0.60547 0.98438 0.64062 0.76953 0.8125 0.75781 0.77734 0.66016 0.76562 0.90625 0.85156 0.71094 0.48438 0.99219 0.64453 0.87109 0.15625 1.082 0.30078 0.97266 0.35547 1.1719 0.24219 1.0703 0.3125 1.0234-0.23047 1.0195-0.21094 1.1875 0.55078 0.88281 0.19531 1.0156-1.0391 1.0195-0.62109 0.83984-0.66406 0.82031-0.17969 1.0742 0.046875 1.0625-0.39062 1.0039-0.43359 0.98828 0.30078 1.0312-0.19141 1.0156 0.38281 1.1016 0.42969 0.91016-0.23438 0.98828 0.011719 1.1562-0.57422 0.85547-0.76172 0.91797-0.32031 0.94922-0.46875 1.1758-0.49219 0.90625-0.42969 0.92578-0.75781 0.66016-1.1016-0.027344-0.65234-0.86719-0.50391-1.0195-0.6875-0.88672-0.78125-0.91406-0.82812-0.61328-1.1211-1-0.87891-0.62891-1.2539-0.003907-0.93359-0.37891-0.91406-0.56641-0.14062-1.0234-0.19922-1.2266-0.50781-0.91016-0.70703-0.91406-0.55078-1.0742-0.53906-0.94531-0.28516-1.1328-0.39844-0.91797-0.082031-1.0312-0.1875-1.1523-0.375-1.082-1.0234-0.34375-0.95312 0.39844-0.21875 1.0859-0.60156 1.1133-0.29688 1.0312-0.3125 1.1992-1.1992 0.19922-1.2344 0.30469-0.29688 1.1367 0.25781 1.0039 0.26172 0.97266-0.59766 0.94141-1.043 0.60547-0.55859 1.1367-0.75781 0.74219-1.0352 0.39062-0.90625 0.64453-0.20312 1.0039-0.375 1.1719-0.58984 1.125-0.027344 1.1328-0.72656 0.90234-0.67969 0.87109-0.98828 0.14453-0.96484 0.50391-0.55078 1.2344-0.4375 0.96875-0.019531 1.3945-1.0508 0.47266-0.82031 0.85547-0.35547 1.2305 0.074219 1.2539 0.46484 0.89062 0.55078 1.3086 0.11719 1.3164-0.42578 1.0586-0.53906 0.97656-0.80078 1.0156-0.87891 0.63281-0.8125 0.60547-0.074218 1.0039-0.42188 0.93359-0.0625 1.2305 0.59375 0.89844 0.44531 0.90625 0.68359 0.88672 0.55859 0.87109 0.14453 1.043 0.074219 1.0625-0.40234 0.9375 0.16406 0.99609 0.16016 0.99219 0.13281 1.0078-0.70703 1.0781-0.51953 0.91797-0.98047 0.48828-0.78516 0.71484 0.16016 1.0195-0.16797 1.1406-0.082031 1.082-1.5078 0.16016-0.99219 0.32031-1.2148 0.25781-1.1328 0.29297-0.16406 1.2266-0.17188 0.99219-1.1133 0.26562v1.1406l0.16406 1.2578-0.55859 0.89453-0.57812 0.88672-0.94531 0.49219-0.98047 0.57031-0.94141 0.36328-0.72266 0.74219-1.0547-0.22656-1.0156 0.074219-0.75391 0.73047-0.77344 0.67969-0.95703 0.61719-0.87109 0.69141-0.58594 0.91797 0.28906 1.0195 0.20312 1.0781-0.74609 0.68359 0.20703 1.0039 0.82422 0.74219 0.44141 0.92969-0.054687 1.0078 0.55078 0.91406 0.58984 0.83594 0.38672 0.96094 0.32812 0.95312 0.50781 0.89062 0.48828 0.91016 0.32812 0.96094 0.35938 1.0078 0.62109 0.87109 0.89844 0.50391 0.86328 0.79688 0.79297 0.65234 0.63281 0.84766 0.71875 1.0898 0.82812 0.77344 0.87109 0.68359 0.46484 0.89844 0.35156 1.0586 0.89062 0.60938 0.9375 0.46875 0.16406-1.0938-0.23047-0.97656-0.88672-0.58203-0.50781-1.0859 0.046875-1.0391-0.097656-1.0977 0.41406-0.91406 0.52344-0.85547 0.54297-0.85156 1.0039-0.10938 1.043 0.20312 1.2461-0.44922 0.47656-0.96484 0.98438-0.34375 0.98438 0.38281 0.28125 1.0117 0.46484 1.0078 0.45703 0.95312 0.011719 1.1133 0.63281 0.80469 0.80859 0.64453 0.9375 0.96875 0.83594 0.58594 0.41797 1.0039 0.32812 1.0078 0.26172 1.1289 0.97266 0.35938 0.75391 0.88281-0.17578 1.0664 0.023438 1.1094 0.007812 1.0625 0.16016 1.1172 0.20703 1.0469 0.30469 1.043 0.35938 1.1641 0.61719 1.2812 0.64844 0.875 0.85547 0.83203 0.86719 1.1016 0.51953 1.3008 0.35547 1.0391 0.68359 0.92969 0.10156 1.0195-0.13281 1 0.40234 0.96094 0.82422 0.93359 0.875 1.0586 0.33984 1.8828 1.0234 0.60938 0.39062 1.0586 0.61328 0.90625 0.29688 1.0078 0.79297 0.63672 0.28516 1.0938-0.61719 0.89453 0.32031 1.0039 0.44531 1.0234 0.97266 0.64062 0.98828 0.29688 0.53125 0.98438 0.79688 0.83984 0.76172 0.85547 0.51172 0.96875-0.17578 1.1172-0.082032 1.0664-0.32422 1.1641-0.66016 1.0898-0.69141 0.96094 0.0625 1.0234 0.066406 1.2539 0.003907 1.2461 0.085937 1.0391 0.43359 1.0586 1.0469 0.47656 0.33203 1.2734 0.082031 1.0664 0.36328 1.0195-0.089844 1.1133 0.19141 0.99609-0.35156 0.98438 0.21484 1.2383 0.28906 1.082-0.1875 0.98438 0.625 1-0.83203 0.73047-1.1094-0.11719-1.2344-0.050781-1.8984 0.1875-1.3945 0.30469-0.84375 1.6953-0.80078 0.86719-0.96875-0.51953-1.0352-0.4375-1.1211-0.3125-0.97266 0.94141-0.24609 1.2891-0.52344 1.1953-0.72266 0.82422-0.69141-0.76172-1.3359 0.14844-1.0312-0.10156-1.1328 0.32812-1.2188 0.44141-0.49219 1.0312 0.27344 1.0859-0.125 1.1484 0.066406 1.0977 0.28125 0.98438 0.054687 1.1055 0.20312 0.98438-0.23828 1.0352 0.42188 0.94531 0.22656 0.98047-0.42188 1.0547-0.30078 1.0117 0.003907 1.0742 0.49609 0.92188 0.070313 1.0156-0.33984 0.99609-0.48828 0.91016-0.35547 0.94531 0.03125 1.0859 0.375 0.99219 0.83594 0.57422 0.71875 0.73047 0.09375 1.0469 0.23047 1.0742-0.1875 1.0742-0.35938 1.0078 0.09375 1.0352 0.125 1.0234-0.57031 0.84375-1.1211 0.38281-1.1055-0.41406-1.4688 0.25391-1.293 0.30859-0.66797 1.1133-0.91016 0.58203-1.1836 0.20312-0.82812 0.85547-0.95312 0.58984-0.38281 1.0938-1.4102 0.11719-1.0391-0.44531-0.92188-0.71875-0.98047-0.26562-1.0273-0.5-1.0234-0.27734-0.30859-1.4648-1.0312-0.011719-0.24609 1.3203-0.14453 1.3984-0.20312 1.1172-0.69531 1.7305-0.89844 0.76172-0.85938 0.64453-0.45312 1.0898-1.3594 0.60938-0.91016 0.50391-1.0977 0.14062-0.76953 0.80078-1.0703 0.19141-1.1289-0.63281-1.3516-0.29688-0.86328 0.61328-0.23438 1.2344-0.46875 0.91797-0.78516 1.168-1.1055 0.64453-0.55859 1.0312-0.23438 1.2969-1.3555 1.3789-1.3672 1.3047-1.0469 0.86328 0.13672 1.2148-0.36719 1.1094-0.98047 0.43359-0.65625 1.0742-1.1289 0.85156-1.0039 0.92969-0.98828 0.65234-0.32422 1.0469-0.37109 1.0547-0.49219 1.0664-0.91406 0.41797-0.49219 1.1445-1.4492 0.54688-1.6133 0.92188-0.97656 0.75391-0.054688 1.0781-0.34766 1.3203 0.22656 1.1484 0.88672 0.73047 0.46484 1.0078-0.027344 1.1094 0.20703 0.99609-0.27734 1.1094-0.34375 0.99609-0.84375 0.68359-0.91016 0.54688-0.28125 1.125-0.17969 1.1367-0.69531 0.75-0.41016 0.94922-0.27344 1-1.0039 0.53125-0.99219 0.17969-1.1562 0.13281-1.0664-0.15625-1.0625-0.41016-0.63672-0.81641-1.0078-0.39844-1.1172-0.16016-0.91797 0.44141-1.0039-0.035157-1.2539-0.29688-0.97656 0.28516-1.0391 0.49219-1.1133 0.63281-0.039063 1.0977-1.082-0.046875-1.1172-0.28906-1.0312 0.22656-0.96875-0.32031-0.93359 0.64844-0.81641 0.65625-0.98438 0.38281-0.80078 0.74219-0.39453 0.99609-0.39844 1.0234-0.66016 0.90625-0.78125 0.85938-0.77344 0.64062-1.1289-0.007812-1.0078 0.70703-0.54688 1.043-0.87891 0.55859-0.66797 1.0195-0.73828 0.94922-0.69141 1.0625-0.51953 1.1445-0.72266 1.1914-0.85156 0.67578-1.2969-0.26562-0.62109 0.79297-0.47656 0.89453-0.55469 1.0469-0.60156 0.90625-0.92969 0.54297-0.37891 1.1875-0.40625 0.92969-0.53516 1.1055-0.23047 0.98438 0.003907 1.1602 0.88281 1.2812 0.75391 0.69141 1.0781 0.4375-0.44141 1.0938-0.55859 1.1992-1.3281 0.84766-1.2422 0.91406-0.89062 0.46875-1.1914 0.074219-1.1133 0.046875-0.96094-0.6875-1.0352-0.34766-1.0898 0.47266-1.2031 0.16797-0.92188 0.51172-0.75 0.85547-1.1367 0.23047-0.79297 0.82812-1.1562 0.27734-1.5039 0.41016-1.3828 0.26172-1.1523-0.24609-0.71875-0.72266-0.92188-1.1133-0.99609-0.12109-1.1719 0.21875-1.4336 0.21094-1.6484 1.5547-0.91016 0.6875-2.0039 0.73438-0.92188 0.40625-2.3281 1.793-1.3828 1.3008-0.91406 0.98828-1.3711 1.6211-1.3164 0.015625-0.9375-1.1328-1.0508-1.2617-0.48047-1.4102 1.0195-0.71094 0.86328-0.5 1.1445-0.26953 1.0078-0.015625 0.15625-1.3359 0.375-1.1992 0.39453-0.93359 0.63672-0.88281 0.45312-1.0742-0.12891-1.082 0.5625-1.1133 0.11719-1.5117v-1.9375l0.24219-1.8516-0.23047-1.875-0.015625-2.4258-0.38281-0.96875-0.92578-0.5625-0.83984-0.98047 0.35547-1.1953-0.003906-1.1289 0.32422-1.3516-0.085937-1.2539 0.94922-0.37109 0.60938-0.9375 0.070312-1.7578-0.082031-1.1445 0.16797-1.0625-0.33594-1.2305-1.3164-0.36719-1.2891 0.18359-1.2031 0.046875-1.0234 0.62891-0.89062 0.76562-0.92578 0.70703-1.0273 0.53906-1.4297 0.26953-1.5234 0.10156-1.2188-0.75781-0.027344-1.3477 0.17578-1.0547 0.035157-1.0586 0.097656-1.5352-0.11328-1.3359-0.76953-0.74609-0.33203-1.3477-0.10938-1.0586 0.32031-1.5078-0.035157-1.5391-0.27734-0.98438-0.85938 1.0078-1.1914 0.30469-1.1797 0.45312-0.55078 0.83984-0.91016 0.53125-0.84375-0.58203-1.1797 0.22656-1.1055-0.24609-0.96875 0.35938-0.80469 0.80859-1.0273 0.3125-0.87891 0.63672-0.054688 1.4883-1.0391 0.48828-1.0781 0.11328-1.0039 0.84375-1.0898 0.25391-0.82031-0.625-0.92578-1.4375-0.26562-1.1016 0.0625-1.2227-0.35547-1.2617 0.32422-1.2188 0.58984-0.92188 0.85156-0.95703 0.94922-0.70312 1.0703-0.32031 0.46875-1.2305 0.96094-0.58984 1.043 0.14453 0.77734-0.92188-0.22266-1.082-0.023437-1.1133 0.59375-1.3281 0.23828-1.0703 0.38672-0.92969 0.60938-0.80469 0.86328-0.66406 0.65234-0.93359 0.30469-1.1523-0.29688-1.4883 0.375-1.082 0.79297-0.67969 1.1328 0.14062 0.82812-0.65234 1.1562-0.22266 0.39844-1.4336 1.1406-0.48828 1.1406-0.47266 1.0508-0.97266 1.3047 0.57812 1.3516-0.58984 1.0234-0.42188 0.89062-0.67969 0.88281-0.62109 0.75781-0.80859 1.1016-0.75 0.51172-1.0273 0.84375-0.71094-0.21094-1.1641 0.19922-1.3164-0.46484-1.3555-0.69922-0.88281-0.67969-1.2695-0.58594-0.87891-0.88281-0.91797-0.33594-1.1289-0.44531-0.92188-1.25-0.20312-0.74219-0.71875-0.92578 0.69922-0.56641 0.83594-1.1641 1.3594-0.625 1.0117-1.4023-0.21875-1.0117-0.46875-1-0.47266-1.1445-1.0781-0.78125-0.72656-1.0273-0.26172-1.1016-0.69531-1.2109 0.015625-1.3711 0.58984-1.3867-0.10156-0.98828-0.40625-1.0078 0.015625-1.4883 0.15625-1.0742-0.24609-1.1367 0.27734-1.1445-0.21875-0.83203 0.56641 0.019531 1.4297-0.23438 1.375-0.28906 1.0859 0.37891 1.0117 0.22656 1.0625 0.11719 1.043 0.16016 1.1992-0.38672 0.96875-0.15234 1.1211 0.28906 1.0781 0.29688 1.2773-0.13672 1.1172 0.47266 1.0469-0.89844 0.62109-0.61328 1.207-0.17188 1.8359-1.1172 0.27344 0.003906 1.1992-0.082031 1.0508-0.88281 0.47656-0.94531 0.45703-0.74609 1.207-0.91406 0.45312-0.87891 0.84766-0.09375 1.0742-0.30469 1.2227-0.90625 0.64453 0.003906 1.0625 0.95703 0.66016 0.92188 0.67578 0.19531 1.0625 0.50781 1 0.28125 1.2812 0.78125 0.66797 1.0117 0.62891-0.078125 1.3555 0.039063 1.1328-0.33594 0.96484 0.25391 1.0898-0.11719 1.0859-0.10938 1.0273-0.10938 1.0078-0.003906 1.1875 0.53516 1.0898-0.92188 1.1719-0.97266-0.29688-1.125 0.4375-0.45703 1.1055-1.2266 0.44922-1.1797 0.027344-1.0156-0.29297-1.1289-0.34766-0.94531-0.37109-0.89062-0.69531-0.5-0.87891-0.97266-0.57031-1.2383 0.15234-0.89062 0.50391-1.0117 0.53906-1.1445 0.85547-0.69141 0.99609-0.73438 1.3594-0.76953 0.86719-0.75391 0.85547-0.69531 0.76562-1.2539 1.0391-0.48047-1.082-0.68359-1.0156-0.66016-1.0312-0.48047-0.97266-0.71094-1.1172-0.82031-1.207-0.73828-1.0508 0.88672-0.48828 0.52344-0.95312-0.14844-1-0.47266-0.99219-0.73047-1.25-0.76953-0.86328-0.89453-0.94141-0.88672-0.77734-0.75781-0.69141-0.80859-0.62891-0.41797-0.95703-0.67969-0.85547-0.78125-0.95703-0.80469-0.60938-0.92188-0.62109-0.73828-0.75781-0.84766-0.59375-1.0273-0.019531 0.37891-0.96094 0.039062-1.0508-0.23828-1.0625 0.085937-1.0195-0.54688-0.84375-0.76953-0.64844-0.76172-0.73047-0.35938-0.95312-0.22656-0.98828-0.21875-1.0039-0.61328-0.84375-0.78906-0.66016-1.332-0.89062-0.99609-0.17578-0.31641-0.98828-0.92969-0.50781-0.25781-1.0273-0.98047-0.23828-0.13672-1.0078 0.56641-0.84375 1.0117 0.13672 0.35938-0.96875 0.35938-1.1875-0.41406-1.0156-0.55078-0.90625-0.73047-0.75-0.53516-1.125-1.0781-0.83203-1.0195-0.75781-0.91016-0.55469-0.97266-0.34766-0.90625-0.45312-0.73047-0.76562-1.0625-0.29297-0.85547-0.66797 0.027344-1.0273-0.078125-1.0586 0.33203-1.0078-0.050781-1.1289-0.45703-1-0.75-0.77734 0.37109-0.92969 0.082031-1.1289-0.71484-0.9375-1.0391-0.99609-0.86719-0.76953-0.95703-0.79688-1.0898-0.33203-0.67969-0.91016 0.25-1.0195 0.019531-1.0352-0.22266-1.0234 0.61328-0.8125 0.48047-0.98438-1.1602-0.003907-0.054687-1.0195-0.8125-0.67188 0.33203-0.96875 0.27734-1.0352-0.74609-0.84375-0.77344-0.75 0.015625-1.082-0.26172-1.0234-0.46094-0.97266-0.90625-0.63281-0.94922-0.48828-0.63672-0.84375-0.23438-1.0547-0.92188-0.70312-0.27734-1.0391-1.2188-0.066406-0.85547-0.74609-0.88672-0.69141-0.8125-0.62891-1.0078-0.75781-0.88672-0.68359-0.37891-0.94531-0.97266-0.58984-0.60938-0.86719-0.33984-0.99219-0.39844-0.92188-0.39453-0.94922-0.54688-0.90625 0.10547-1.1484-1.0195-0.28125-0.22656-1.0156-0.5-0.92188 0.61328-0.80859 0.90625-0.43359 1.0117-0.023437 0.53906-1.0547-0.085938-1.3047-0.36328-1.0508-0.55078-1.082-0.82812-0.61719 0.33594-0.94531 0.10547-1.3086-0.40625-0.94922 0.042969-1.0039-0.51562-1.0703-0.58203-0.96484-0.57812-0.92969-0.8125-0.70703-0.10938-1.1133-1.0117-0.085937-0.007813-1.0312-0.042968-1.0117 0.41016-1.0547-0.24219-0.98438-0.82422-0.69141-0.22266-1.0117 0.12891-1.0352-0.86328-0.57031-0.53125-0.86719-0.17188-1.0156-0.65625-0.78125-0.90234-0.55078-0.91797-0.50391-0.62109-0.78516-1-0.44141 0.52734-0.85547-0.74609-0.84375 1.0586-0.12891 0.34375-1.1523-0.32422-1.0156 0.54688-1.0117-0.48828-1.2148-0.60938-0.85938 0.60156-0.81641-0.11328-1.0195-0.47656-0.92969-0.42969-1.0195-0.42188-0.96094-0.097656-1.0352-0.85938-0.71484-0.70703-0.74609-0.12891-1.0391 0.28906-1.1328 0.27734-0.98047 1.0898-0.42188-0.31641-1.0625 0.019531-1.0156-0.14453-1.0625 0.78125-0.69922 0.29297-1.0078 0.43359-0.91406 0.20703-1.0352 0.26953-1.0391 0.16016-1.2461-0.03125-1.0234-0.51172-0.98438-0.95703-0.875-0.47656-0.93359-0.79297-0.63281-0.94531-0.45703 0.097656-1.0195-0.78906-0.70703-0.84766-0.64062-0.75391-0.66797-1.0117-0.52734-1.0117-0.019532-0.71094-0.75781-0.44531-0.97266-0.046875-1.0078-0.83594-0.64844-0.97266-0.3125-0.23438-1.0586-0.98047-0.41797-0.59375-0.89453-0.25-1.0273 0.51172-0.88672 0.007812-1.0234-0.70312-0.83594-0.24219-1.0547-0.93359-0.45703-0.10547-0.99609-0.50391-1.082-1.0078 0.10938-0.91016-0.45703-0.16016-0.98828 0.21875-1.3047-0.80078-0.71094-0.47266-1.1836-0.92188-0.78125-1.0117 0.070313 0.26562-1.0664-0.82812-0.5625 0.027343-1.0117-1.0039-0.25391 0.14453-1.0312-0.97266-0.25-0.89453-0.62891-0.75-0.69141-1.0117-0.035156-0.17969 1.0156-0.71484-0.75391 0.84375-0.62109-0.023438-1.0508 0.14453-0.99609-0.35156-1.1602-0.39062-1.0312-0.5-0.88672-0.03125-1.0195 0.5-0.87109 0.25391-0.98438-0.14062-1.0352-0.45703-0.91016-0.007812-1.0195 0.36719-0.94531-0.74609-0.77344-0.63281-0.91016-1.0117-0.375-0.25391-1.1797-0.88281-0.69531-0.875-0.82812 0.83984-0.60156 0.082031-1.0352-0.13281-1.1172-0.65234-0.87109-0.75391-0.72266-0.26172-1.0273 0.45312-0.9375 0.1875-1.0234-0.88672-0.48828-0.042968-1.0078 0.48828-0.89062-1.0625-0.26562-0.29688-1.0234 0.99609 0.13281-0.38281-0.96484 0.63672-0.78516 0.72656-0.85547 0.99609-0.15234 0.97266-0.33203 0.12109-1.2773-0.30078-1.0938-0.58594-1.043-0.80469-0.85156-1.2695-0.64844-0.64453 0.80859-0.90234 0.45312-0.50391-0.95312-0.78906-0.69922-1 0.21484 0.25781-1-1-0.44141-0.65234-0.77344-0.39453-0.95703-0.38281-0.98438 0.39062-1.0547-0.035156-1.0117-0.89453-0.50391-0.29688-1.0234 0.29297-0.96094 0.84375-0.55859 0.49219-0.89844 1.0117-0.29688 1.0977 0.078125 0.67188-1.1094-0.75781-0.67969-1.0234 0.13672-0.88672-0.52734-0.93359-0.375 0.13672-1.0039 0.78906-0.73047-0.42188-0.91016-1.0195 0.25391-0.40234-0.91797-0.87891 0.48047-0.26953-1.0352-0.26562-1.0156-0.98438-0.55859-0.76562 0.73047-0.94141-0.46875-0.29688-0.96875-0.46094-1.082-1.2852-0.16406-1.0117 0.33984-0.14844 1.0469 0.31641 0.98047-0.85547 0.55078-0.44531-0.91406-0.72266-0.8125-0.86328-0.85156-0.65234-0.98047-1.0234 0.16406 0.29688-0.98438-0.50391-0.90234-0.53516-0.95703 0.92188-0.44922-0.15625-1.0117-0.80078-0.92969-1.0586-0.74219-0.86719-0.5-1.0352 0.074219-1.0469-0.15234-0.023438-1.0469 1.0859 0.007812 0.41016-0.94141 0.80469-0.68359 0.625-0.79297 0.99219-0.17578 1.0234 0.13281 0.47656-0.89453 0.55859-0.92969 0.14453-1.0469 0.16797-0.99219 0.36328-1.0391 0.22266-1.1055 0.27734-1.1016-0.36328-0.95312 0.31641-0.97656-0.46875-1.0156-0.79688-0.79688-0.29297-0.96094-0.76953-0.83203-0.97656-0.33594-0.73438-0.73828-0.86719-0.50391-1.0234-0.32422-1.0234-0.15234-1.0273-0.24219-1.0234-0.17969-1.0664-0.039062-1.0508 0.14844-1.0508 0.25391-0.93359 0.38281-0.96875 0.56641-0.64453 0.875-0.066406 1.0469 0.65625 0.80859 0.76562 0.73828 0.09375 1.0117-0.30469 1.0078 0.45703 1.082 0.30859 0.97266 0.42969 0.90625-0.10547 0.99609-0.85938-0.55469-0.92969-0.42188-0.83594-0.55469-0.007813-1.0664-0.875-0.625-0.64062-0.77344 0.1875-1.0156-1.0039 0.097656-0.51562-0.875 0.91406-0.58984-0.71094-0.70703-1.0391 0.12109-0.66406-0.75391-0.85156-0.60156-0.90234-0.48438 0.09375-1.0586-0.80078-0.61328-0.13672-0.99219-0.15234-1.0156-0.73047-0.73828 0.94531 0.35547 1.0039 0.22656 0.90234 0.51172 0.88672-0.49219 1.0156-0.042969 0.17578 1.0078 0.98047 0.20312 1.1289 0.15234 0.8125-0.67969 0.57812-0.875 0.48438-0.94922 0.34375-0.94531 0.25-1.0195 0.11719-1.0625 0.050782-1-0.015625-1.1094-0.21875-0.98047-0.26953-1.0469-0.40234-0.95312-0.44922-0.95703-0.51172-0.95703-0.58984-0.91016-0.61328-0.80859-0.65625-0.80078-0.72656-0.74609-0.80859-0.64062-1.0234-0.51172-1.0039-0.21484-1.1562-0.20703-1.0898 0.87109 0.19531-1.0781-1.1758 0.92969 0.80078-1.0938-1.0391 0.11328-0.86719 0.54688-0.99609-0.16406-0.46875-0.89062-0.53125-0.85938 0.10938-1.1172-0.28125-0.98047-0.48438-0.97656 0.17578-1.1172-0.007812-1.082 0.23438-0.98047 0.34766-1.0078 0.90625-0.47656 0.80859-0.69531 0.14844-1.0312-0.66016-0.8125-0.82422-0.66797-1.0586-0.57031-0.94141-0.59375-1.2383-0.26953-1-0.42969-0.90234-0.5625 0.003907-1.0156 1.0703 0.3125 1.1367-0.74219 0.38672-0.96484-0.046875-1.0039-0.15234-1.0977 1.6016 0.17188 1.168 0.13281 1.0781-0.47266 1.4961-0.84375 1.0273-0.9375 0.94141-0.66797 1.3203-0.84375 1.0742-0.77344 0.33984-0.99219-0.035156-1.7812 0.070312-1.0586 0.76172-0.92188 0.22266-1 0.26953-1.0938 0.55469-0.94531 0.12109-1.2031 0.43359-1.2656-0.27734-1.3477-0.44922-1.0078-0.21875-1.1289-0.32031-1.168-0.77344-0.80469 0.36328-1.0078 0.23438-1.0391 0.55859-1.3203 0.23047-1.1836 0.38281-1.082 0.36328-1.3164 0.63672-1.4062 0.44141-1.0195 0.60547-1.293 0.25781-1.0781 0.48047-1 0.62891-0.78516 0.66016-1.0391 0.76562-0.875 1.1055-0.57812 0.83594-0.5625 1.0352-0.48047 0.9375-0.42578 0.69922-1.0977 0.94141-0.51953 0.92578-0.41016 1.1055-0.0625 1.1797-0.28125 1.0977 0.054687 0.99219-0.22656 1.3125 0.12891 1.0703-0.46094 0.76172-0.66406 1.2461-0.51953 1.1523-0.24219 1.125-0.47266 1.3164-0.12109 0.90234-0.63281 1.0938-0.49609 0.93359-0.57031 1.2422-0.67578 0.71875-0.75391 1.1133-1.0234 0.71875-0.98438 1.1055-0.078125 1.0312-0.74609 0.98047-0.33594 1.0586-0.52344 1.082-0.33203 1.0391-0.63281 0.51953-0.95703 0.75391-0.74609 1.0039-0.57031 0.84766-0.66016 0.76562-0.82031 1.125-0.074219 1.0898 0.49219 1.0234-0.011718 0.36328-1.0625 1.0078-0.42578 0.89844-0.50781 1.082 0.15234 1.1602 0.19141 1.082-0.22266 1.0586-0.29688 0.66406-0.84766 1.0625 0.32031 1.1406 0.035156 0.92969-0.58984 1.1328-0.27734 1.0703 0.050781 0.98828 0.17578 1.0703 0.003906 1.1445 0.20312 1.0039-0.22656 0.88672-0.64844 0.875-0.52734 0.74609-0.69531 0.79688-0.64844 0.95703-0.54688 0.88281-0.60938 1.082-0.45703 0.9375-0.60938 0.69922-0.97266 0.26562-0.98047-0.21094-1.2422 0.62109-0.90234 0.71875-0.89062-0.050782-1.1367-0.32031-1.0547-0.35547-1.082-0.65625-0.80078 0.078125-1.1289-0.69922-0.9375-0.68359-0.85156-1.0938-0.03125-0.050782-1.0195 0.078125-1.1055 0.49609-1 0.10938-1.0391 0.70312-0.76953 0.29297-1 0.51953-0.85547 0.60938-0.89062 0.84375-0.72656 0.57422-0.90234 0.60938-0.91406 1.0352 0.050782 0.89453-0.58594 0.84766-0.57422 0.66016-0.94531-0.070313-1.1523 0.60938-0.84766 1.1445-0.82031 0.63672-0.85547-0.054687-1.1875 0.21094-1.0742 0.44141-1.3398 0.62109-0.80469 0.28125-1.2227 0.54688-0.96094 0.51172-0.94141 0.34375-1.0391 0.41016-0.94531-0.027343-1.0547-0.25391-0.97656 0.38672-0.94141 0.17969-1.2383 0.15234-1.0156-0.007812-1.1055-0.22656-0.98047 0.1875-1.3906-0.15625-1.1172 0.46484-0.94141 0.78125-0.65625 0.91797-0.41797 0.88672-0.6875 0.9375-0.82812 0.19922-1.2422 0.69141-0.73438 0.51562-0.90625-0.61328-0.8125-0.47656-1.0273-0.41016-0.91797-0.79688-0.67578 0.49609-0.94141 0.88281-0.69922 1.0391-0.29297 0.97656-0.38281 0.6875-0.92969 0.63672-0.85156 1.0312-0.47266 0.28906-1.0273 0.73438-0.85156 1.0742-0.30078 1.0195-0.085938 0.97266-0.42188 0.26172-1.1289 1.3125-0.59375 1.0781-0.875 0.8125-0.73828 0.94531-0.51562 1.0703-0.21484 0.26953-1.0273 0.28125-1.0938 0.76953-0.88672 0.69922-0.87109 0.59375-0.94531 0.65625-0.89453 0.97656-0.50781 1.0312 0.019531 1.1016-0.16406 1.207-0.44531 1-0.070313 0.98828-0.42188 0.82422-0.67188 1.082-0.48047 1.0547 0.019531 1.168-0.33594 1.1445-0.070312 0.94141-0.39062 0.96875-0.58203 0.90234-0.54297 1.0625-0.22656 0.027344-1.0938 0.19922-1.0469 0.33984-1.0508 0.050781-1.1484 0.25391-1.0273 0.33203-1.3281 0.33594-1.0039 0.48828-0.95312 0.40234-0.94531 0.39453-1.043 0.027344-1.0078 0.29297-1.0586 0.53516-0.86719 0.64062-0.85156 0.26172-1.0508 0.32422-0.97266 0.28125-1.0859 0.035157-1.2266 0.39844-0.93359 0.24609-1.0391 0.55078-0.96875 0.19531-1.2461 0.14062-1.168 1.0469-0.74609 1.0742 0.44922 1.0938-0.47656 0.85938-0.58594 0.94922-0.38672 0.92578 0.42969 0.86719 1.5312 0.92969 1.0742 0.89062 0.49609 1.0469-0.13281 1.1172 0.097656 1.1836-0.058594 0.95703-0.85156 1.3828-0.125 1.457-0.31641 1.0938 0.375 1.2656 0.16797 0.79688 0.80859 1.3398 0.73828 1.5156-0.23438 1.2148-0.070312 1.043-0.15625 0.98438-0.20312 1.1133 0.30469 1.0312-0.42188 0.75781-0.73438 1.0078 0.21875 1.0508 0.078125 1.0312-0.12891 1.0859 0.22266 1.1953-0.32422 0.98828-0.53906 1.0078-0.32031 1.0469-0.51562 0.94141-0.39844 1.0977 0.24609 1.3359-0.30078 0.98828-0.20312 1.1758-0.31641 0.92578-0.59375 0.96484-0.4375 1.0547-0.28516 0.76562 0.71875-0.042969 1.0078 0.44531 0.92969 1.2148 0.4375 1.0586 0.23047 0.98438 0.5 0.94922 0.47266 0.51172 0.93359-0.32031 1.0938-0.62891 1.1836-0.80078 0.85938-0.78906 0.82812-0.69922 0.83984 0.58594 0.99609 0.89062 0.75 0.94141 0.51172 0.58203 1.0195 0.35156 0.96875 1.043 0.40625 1.1172 0.3125 0.85938 0.66406-0.46484 1.1211-0.73047 0.73828 0.32422 1.0586 0.67578 0.85938 0.91406 0.56641 1.1836 0.38672 1.2109 0.375 1.1875 0.35156 0.96875 0.74219 0.53906 0.94141 0.47656 1.1836 0.52344 0.91797 1.0195 0.78516-0.5 0.92188-0.65234 0.89062-0.87109 0.73047-0.55078 0.88281-0.14844 1.1172 0.023438 1.1797-0.35938 1.0469 0.69141 0.80469 0.96094 0.55859 1.0195 0.25781 1.2969-0.27734 1.1328 0.089844 0.94531 0.5625 1.1562 0.15625 0.98047 0.50391 0.60156 0.89844 0.10938 1.1328-0.12109 1.0547-0.0625 1.1562 0.91797 0.44531 1.3008 0.40625 0.94531 0.34766 1.0586 0.003906 0.625 0.80078 1.0039 0.15625 0.75391 0.66016 0.36328 1.2227 0.26562 0.98047 0.10156 1.2188 0.5625 1.2812 0.39062 1.0156 0.87891 0.49219 0.67578 0.875-0.87891 0.63281 1.0195 1.1914 1.082-0.023438 1.1094 0.25781 0.39453 1.1875 0.21875 1.2812-0.28125 1.2305 0.84375 0.58594 0.32812 0.96484 0.61328 0.95312 0.082031 1.0234-0.007812 1.5117 0.67188 0.92578 0.39453 1.0547 0.71094 1 0.32812 1.2109 0.10938 1.0234-0.20312 1.2266-0.10938 1.1523 0.86328 0.70703 0.73438 0.98828 1.168 0.4375 0.73828 0.76953 0.97656 0.4375 1.1289-0.09375 0.50391 0.97656 0.16406 1.1836 0.66797 0.96094 0.21094 0.99219-0.41406 1.0117-0.097656 1.0234 0.22266 1.1133 0.78125 1.1367 0.97656 0.86719 0.86328 0.56641 1.1602 0.17188 0.93359 0.51953 1.0469 0.36328 0.50391 0.95703 0.55859 0.92969 1.3242 0.39844 0.76562 0.70312 1.0664 0.68359 0.71875 1.0117 0.78125 0.87891 0.85547 0.51562 1.0703-0.69531 1.0078 0.21094 0.75-0.070312" fill="none" stroke="#fff" stroke-linecap="round" stroke-linejoin="round" stroke-miterlimit="10"/>
<path d="m248.18 269.77c0 3.5898-2.9102 6.5-6.5 6.5-3.5898 0-6.5-2.9102-6.5-6.5s2.9102-6.5 6.5-6.5c3.5898 0 6.5 2.9102 6.5 6.5" fill="#28c028" fill-rule="evenodd" stroke="#000" stroke-linecap="round" stroke-linejoin="round" stroke-miterlimit="10"/>
<path d="m140.27 263.77v-16.469h3.3281v6.4844h6.5v-6.4844h3.3281v16.469h-3.3281v-7.2031h-6.5v7.2031zm16.578-16.469h3.3125v8.9219c0 1.418 0.039062 2.3359 0.125 2.75 0.14453 0.67969 0.48438 1.2188 1.0156 1.625 0.53906 0.40625 1.2734 0.60938 2.2031 0.60938 0.9375 0 1.6445-0.19141 2.125-0.57812 0.47656-0.38281 0.76562-0.85938 0.85938-1.4219 0.10156-0.5625 0.15625-1.4922 0.15625-2.7969v-9.1094h3.3281v8.6562c0 1.9688-0.09375 3.3672-0.28125 4.1875-0.17969 0.8125-0.50781 1.5-0.98438 2.0625-0.48047 0.5625-1.125 1.0117-1.9375 1.3438s-1.8711 0.5-3.1719 0.5c-1.5742 0-2.7656-0.18359-3.5781-0.54688s-1.4531-0.83203-1.9219-1.4062c-0.46875-0.58203-0.77734-1.1914-0.92188-1.8281-0.21875-0.94531-0.32812-2.3438-0.32812-4.1875zm31.469 16.469h-3.6094l-1.4375-3.7344h-6.5781l-1.3594 3.7344h-3.5312l6.4062-16.469h3.5156zm-6.1094-6.5156-2.2812-6.1094-2.2188 6.1094zm7.8906 6.5156v-16.469h7c1.7578 0 3.0352 0.15234 3.8281 0.45312 0.80078 0.29297 1.4414 0.82031 1.9219 1.5781 0.47656 0.75 0.71875 1.6172 0.71875 2.5938 0 1.2305-0.36719 2.25-1.0938 3.0625-0.73047 0.80469-1.8203 1.3086-3.2656 1.5156 0.71875 0.41797 1.3125 0.88281 1.7812 1.3906 0.46875 0.5 1.0977 1.3867 1.8906 2.6562l2.0156 3.2188h-3.9688l-2.4062-3.5781c-0.85547-1.2812-1.4375-2.0859-1.75-2.4219-0.3125-0.33203-0.64844-0.5625-1-0.6875-0.35547-0.125-0.91406-0.1875-1.6719-0.1875h-0.67188v6.875zm3.3281-9.5h2.4531c1.5938 0 2.5859-0.066406 2.9844-0.20312 0.39453-0.13281 0.70312-0.36328 0.92188-0.6875 0.22656-0.33203 0.34375-0.75 0.34375-1.25 0-0.55078-0.14844-0.99219-0.4375-1.3281-0.29297-0.34375-0.71094-0.5625-1.25-0.65625-0.27344-0.03125-1.0781-0.046875-2.4219-0.046875h-2.5938zm28.109 9.5h-3.6094l-1.4375-3.7344h-6.5781l-1.3594 3.7344h-3.5312l6.4062-16.469h3.5156zm-6.1094-6.5156-2.2812-6.1094-2.2188 6.1094zm6.4531 6.5156v-3l8.6406-10.672h-7.6719v-2.7969h12.062v2.5938l-9.0312 11.094h9.375v2.7812zm0 0" fill="none" stroke="#fff" stroke-linecap="round" stroke-linejoin="round" stroke-miterlimit="10" stroke-width="2"/>
<path d="m140.27 263.77v-16.469h3.3281v6.4844h6.5v-6.4844h3.3281v16.469h-3.3281v-7.2031h-6.5v7.2031zm16.578-16.469h3.3125v8.9219c0 1.418 0.039062 2.3359 0.125 2.75 0.14453 0.67969 0.48438 1.2188 1.0156 1.625 0.53906 0.40625 1.2734 0.60938 2.2031 0.60938 0.9375 0 1.6445-0.19141 2.125-0.57812 0.47656-0.38281 0.76562-0.85938 0.85938-1.4219 0.10156-0.5625 0.15625-1.4922 0.15625-2.7969v-9.1094h3.3281v8.6562c0 1.9688-0.09375 3.3672-0.28125 4.1875-0.17969 0.8125-0.50781 1.5-0.98438 2.0625-0.48047 0.5625-1.125 1.0117-1.9375 1.3438s-1.8711 0.5-3.1719 0.5c-1.5742 0-2.7656-0.18359-3.5781-0.54688s-1.4531-0.83203-1.9219-1.4062c-0.46875-0.58203-0.77734-1.1914-0.92188-1.8281-0.21875-0.94531-0.32812-2.3438-0.32812-4.1875zm31.469 16.469h-3.6094l-1.4375-3.7344h-6.5781l-1.3594 3.7344h-3.5312l6.4062-16.469h3.5156zm-6.1094-6.5156-2.2812-6.1094-2.2188 6.1094zm7.8906 6.5156v-16.469h7c1.7578 0 3.0352 0.15234 3.8281 0.45312 0.80078 0.29297 1.4414 0.82031 1.9219 1.5781 0.47656 0.75 0.71875 1.6172 0.71875 2.5938 0 1.2305-0.36719 2.25-1.0938 3.0625-0.73047 0.80469-1.8203 1.3086-3.2656 1.5156 0.71875 0.41797 1.3125 0.88281 1.7812 1.3906 0.46875 0.5 1.0977 1.3867 1.8906 2.6562l2.0156 3.2188h-3.9688l-2.4062-3.5781c-0.85547-1.2812-1.4375-2.0859-1.75-2.4219-0.3125-0.33203-0.64844-0.5625-1-0.6875-0.35547-0.125-0.91406-0.1875-1.6719-0.1875h-0.67188v6.875zm3.3281-9.5h2.4531c1.5938 0 2.5859-0.066406 2.9844-0.20312 0.39453-0.13281 0.70312-0.36328 0.92188-0.6875 0.22656-0.33203 0.34375-0.75 0.34375-1.25 0-0.55078-0.14844-0.99219-0.4375-1.3281-0.29297-0.34375-0.71094-0.5625-1.25-0.65625-0.27344-0.03125-1.0781-0.046875-2.4219-0.046875h-2.5938zm28.109 9.5h-3.6094l-1.4375-3.7344h-6.5781l-1.3594 3.7344h-3.5312l6.4062-16.469h3.5156zm-6.1094-6.5156-2.2812-6.1094-2.2188 6.1094zm6.4531 6.5156v-3l8.6406-10.672h-7.6719v-2.7969h12.062v2.5938l-9.0312 11.094h9.375v2.7812z" fill-rule="evenodd"/>
</g>
</svg>
