<?xml version="1.0" encoding="UTF-8"?>
<svg width="400pt" height="500pt" version="1.1" viewBox="0 0 400 500" xmlns="http://www.w3.org/2000/svg">
<g id="a">
<rect width="400" height="500" fill="none"/>
<path d="m235.07 55.043 0.48438 0.39062 0.49609 1.0625-0.42969 1.6914-0.042969 1.5625-0.14844 1.5273 0.46094 1.0898 0.62891 1.0039 1.1719 1.3398 1.3867 0.79688 1.3828 0.58984 1.8008 0.62891 1.1328 0.75391 0.67188 0.87891 0.87891 1.7617 1.4258 1.1289 1.5078 0.46484 1.9727 0.33594 1.8438 0.54297 1.9688 0.58594 1.1758 0.63281 1.1328 1.3789 0.87891 1.2188 2.0977 1.9648 1.2578 1.0938 0.75391 1.3828 0.20703 1.5117 0.53906 1.1133 1.0039 0.59766 1.3555 0.38281 1.4492 0.058594 1.7578 0.53516 1.9805 0.97266 1.3203 1.1641 1.5742 1.2227 1.1289 0.78906 1.8555 0.75391 2.2617 0.69141 1.1016 0.3125 2.043 0.47266 1.1328 0.56641 1.2266 0.56641 1.1602 1.582 0.625 0.96094 0.48438 0.91016 0.53906 0.96094 0.31641 1.1328 0.019531 1.6484-0.011719 1.4023-0.10156 1.5898v1.043l0.46875 1.5898 1.0547 1.3945 1.918 2.2383 1.7109 0.46094 0.52344 1.0352 0.38672 2.6133 1.4102 1.4375 1.1836 0.53125 2.2188 0.62891 2.0195 0.78906 1.7695 0.60547 0.85547 0.67188 2.0469 1.1758 1.4883 0.83984 0.62891 1.3477 0.19531 1.5742 0.61328 0.94531 0.76172 0.73047 1.125 0.40234 2.0977 0.12109 1.4883 0.89844 0.96094 1.1094 0.77734 1.0352 0.79688 1.1445 0.39453 0.94531-0.12109 1.9375-0.082031 1.7227 1.0117 0.91797 0.35547 2.8867 1.168 1.043 3.0273 0.57422 2.332 0.11328 3.7461 0.16016 1.7578-0.84766 0.87891-1.1172 1.4062-1.8867 2.2031-0.59375 2.5859-0.13281 1.8789-0.25 1.7852 0.48047 1.1641 1.7539 0.72266 3.0352 1.0586 3.0234 1.2266 1.7734 1.5352 1.4492 1.0078 0.3125 1.1328-0.066407 0.97656-0.29297 1.4922-1.5508 1.2188-1.1523 0.95703-0.39453 2.0703 0.36328 2.2305 1.582 1.1484 0.40234 2.3203 0.078125 1.0391 0.011718 1.6445 1.0625 1.4492 1.5273 1.4531 2.5156 1.8086 2.8203 2.6289 2.7656 0.87891 0.61719v1.0195l-0.023437 1.1094 0.074218 1.6406 0.53125 0.93359 0.17578 1.1602-0.15234 1.0078 0.17578 1.1875 0.55859 1.5391 0.023437 2.043 0.30469 1.1094-0.078125 1.5156-0.15234 1.0859-0.32812 1.3633 0.027344 1.2852-0.22656 1.2617-0.93359 1.4141-0.48047 1.0078-0.46875 2.2188-0.019531 1.7188 0.039062 1.0859-0.039062 1.293-0.67969 1.3867-0.68359 1.3242-0.125 1.0664 0.10156 1.1992 0.30078 1.0312 0.56641 2.3594 0.32812 1.4414 0.40625 1.3164 0.95312 1.9375 0.23047 1.0859-0.40625 1.1094-0.28516 1.2578 0.64453 1.1367 0.71484 0.94922-0.070313 1.4961-0.71094 1.75-0.20312 1.3047-0.1875 2.0234-0.26953 1.2266-0.28906 0.96484-1.0664 0.089843-1.0859 0.10938-1.1641-0.13672-1.3555-0.21875-1.1094-0.21484-1.8672-0.70312-1.8711 0.13281-2.25 0.24609-1.1914 0.35156-1.625 0.73047-1.2109 0.38672-0.98047 0.28906-1.6797 0.92188-0.76172 0.67969-0.78516 0.89062-1.1641 0.65234h-1.3789l-1.0039-0.40625-1.1094-0.625-1.0039-0.56641-1.6523 0.32422-1.0547 1.1914-1.4102 0.54297-1.1094 0.1875-0.35156 0.97656 0.67578 1.6523 0.11719 1.0898-0.73047 0.73047-1.1094 0.20312-0.83203 0.57812-0.96094-0.62891-1.1797-0.32031-1.0391 0.21875-0.83203 0.57812-1.3906-0.074218-1.3594 0.10156-1.0117-0.50391-1.0078 0.125-1.0859-0.027344-1.7148 0.35547-1.4375 0.30078-1.7656-0.46875-1.0859-0.10938h-1.0117l-1.0078 0.15234-1.0859-0.078125-1.2852-0.42969-1.6914 0.40625-0.98438 0.35156-1.625-0.12109-2.082-0.91406-0.80859-0.78125-0.68359-1.3867-0.78125-0.97656-0.93359-0.51172-2.2969-0.027344-1.2109 0.25391-1.7383 0.25391-0.91016-0.60938-1.3867-0.70312-1.0078-0.25391-1.4414-0.80859-1.3359-0.45312-1.6133-0.32812-1.3633-0.30078-1.2109-0.078125-1.1367 0.50391-1.3359-0.32812-1.0156 0.42188-3.0938 2.7812-1.1953 0.71094-3.3477 0.95312-1.7891-0.83203-1.0117 0.37891-1.168 0.45312-2.3789 0.41016-1.0312 0.54688-1.0898 1.1797-1.7109 4.1055-1.1211 1.4688-3.8477 1.8633-1.6797 0.13672-1.832-0.39453-1.957-0.42188-4.5-0.85156-5.6953 1.2578-4.1914 1.4883-3.5195 0.375-1.9688-0.058593-4.1523-1.832-1.8164-0.75781-1.1055-0.57812-1.1055 0.0625-1.832 0.74219-1.7422-0.34766-1.8789 0.55859-1.0156 0.60547-1.1953 1-0.89453 1.6523-0.71094 0.83203-0.91016 0.63672-1.4531 0.48438-0.94141 0.42578-1.7578-0.078125-1.1484 1.1836-0.59375 1.4336-0.81641 1.9727-1.1953 1.7422-1.6367 2.1367-1.2266 1.7578-2.5 0.77344-2.0312 0.57422-1.7578 0.62109-1.0312 0.015625-1.4688-0.31641-1.1289 0.089844-1.8164 0.13281-3.8125-0.55469-3.2891-1.1406-1.7109-1.1445-2.9141-1.668-1.5508-1.25-0.67188-2.1172-0.67188-2.9609-2.1172-3.1484-1.0352-0.9375-0.74219-0.67188-1.0742-2.25-0.60547-0.80469 0.16016-2.0664 2.7266-2.3984 1.7266-1.7578 1.0195-1.0352 1.2148-1.2383 2.0781-0.13672 1.918-0.56641 0.95312-1.0156 2.168-1.168 1.1328-0.49609 2.8281-1.0469 1.4102-0.77344 1.2109-2.0469 1.8438-1.1406 2.6523-1.4102-1.1406-1.3438-1.8125-1.2422-0.92188-2.082-3.1406-3.3906 0.4375-1.1719 0.066407-1.1094-0.57031-1.2773-1.2656-1.6055 1.0312-1.043 1.6758-1.3789 1.0078-0.60156 1.1406-0.33594 4.0039-0.62891 1.5039-1.3516 1.6055-2.1914 1.1562-0.60156 2.0352-0.37891 2.0703-0.82812 2.0234-0.57422 0.87891-0.67969 0.41797-0.97266 1.2617-3.0312 0.74219-3.2031 0.88281-1.6133 0.40234-2.1211-0.18359-2.9219-0.25-3.9375 1.2031-5.3516 1.9062-5.5898 1.8789-4.0273 0.60547-1.4453 0.69922-1.6445 0.94141-0.84375 1.2266-0.23828 1.9766-0.32812 1.5-1.2266 1.6055-2.2109 0.51562-1.6914-0.0625-2.1211-0.32812-1.8086-0.73828-3.1055-0.62109-2.4297-0.58984-2.3008 0.10547-1.4453 1.7422-3.7227 0.55469-1.7227-0.75781-1.6055-1.6523-1.1953-0.92969-0.67188-1.5273-1.2305-1.8477-1.793-1.6562-1.793-1.7617-1.5234-0.070312-1.4922 0.80859-2.3242 5.1602-6.1953 0.94141-0.96875 0.41406-0.97266 0.097656-1.0234-0.45312-2.2617-0.53906-2.1719-0.19531-1.3672-0.36328-2.5352-0.49609-3.4883-0.87109-1.9453-0.81641-1.4844-1.793-3.2734-1.5859-1.8945-2.1484-2.5625-0.99609-0.83984-0.97656-1.207 1.1875-1.3555 1.8203-1.2734 1.1484-1.0469 0.71484-0.86328 0.66406-1.0156 1.4258-1.4688 0.87891-1.3164 0.83203-1.7422 0.27344-1.3789 0.03125-1.1055-0.27344-1.7266 0.19531-1.7109 2-4.1836 2.0625-0.78516 1.8633-0.25781 1.2852-0.28906z" fill="#ccc" fill-rule="evenodd"/>
<path d="m235.07 55.043 0.48438 0.39062 0.49609 1.0625-0.42969 1.6914-0.042969 1.5625-0.14844 1.5273 0.46094 1.0898 0.62891 1.0039 1.1719 1.3398 1.3867 0.79688 1.3828 0.58984 1.8008 0.62891 1.1328 0.75391 0.67188 0.87891 0.87891 1.7617 1.4258 1.1289 1.5078 0.46484 1.9727 0.33594 1.8438 0.54297 1.9688 0.58594 1.1758 0.63281 1.1328 1.3789 0.87891 1.2188 2.0977 1.9648 1.2578 1.0938 0.75391 1.3828 0.20703 1.5117 0.53906 1.1133 1.0039 0.59766 1.3555 0.38281 1.4492 0.058594 1.7578 0.53516 1.9805 0.97266 1.3203 1.1641 1.5742 1.2227 1.1289 0.78906 1.8555 0.75391 2.2617 0.69141 1.1016 0.3125 2.043 0.47266 1.1328 0.56641 1.2266 0.56641 1.1602 1.582 0.625 0.96094 0.48438 0.91016 0.53906 0.96094 0.31641 1.1328 0.019531 1.6484-0.011719 1.4023-0.10156 1.5898v1.043l0.46875 1.5898 1.0547 1.3945 1.918 2.2383 1.7109 0.46094 0.52344 1.0352 0.38672 2.6133 1.4102 1.4375 1.1836 0.53125 2.2188 0.62891 2.0195 0.78906 1.7695 0.60547 0.85547 0.67188 2.0469 1.1758 1.4883 0.83984 0.62891 1.3477 0.19531 1.5742 0.61328 0.94531 0.76172 0.73047 1.125 0.40234 2.0977 0.12109 1.4883 0.89844 0.96094 1.1094 0.77734 1.0352 0.79688 1.1445 0.39453 0.94531-0.12109 1.9375-0.082031 1.7227 1.0117 0.91797 0.35547 2.8867 1.168 1.043 3.0273 0.57422 2.332 0.11328 3.7461 0.16016 1.7578-0.84766 0.87891-1.1172 1.4062-1.8867 2.2031-0.59375 2.5859-0.13281 1.8789-0.25 1.7852 0.48047 1.1641 1.7539 0.72266 3.0352 1.0586 3.0234 1.2266 1.7734 1.5352 1.4492 1.0078 0.3125 1.1328-0.066407 0.97656-0.29297 1.4922-1.5508 1.2188-1.1523 0.95703-0.39453 2.0703 0.36328 2.2305 1.582 1.1484 0.40234 2.3203 0.078125 1.0391 0.011718 1.6445 1.0625 1.4492 1.5273 1.4531 2.5156 1.8086 2.8203 2.6289 2.7656 0.87891 0.61719v1.0195l-0.023437 1.1094 0.074218 1.6406 0.53125 0.93359 0.17578 1.1602-0.15234 1.0078 0.17578 1.1875 0.55859 1.5391 0.023437 2.043 0.30469 1.1094-0.078125 1.5156-0.15234 1.0859-0.32812 1.3633 0.027344 1.2852-0.22656 1.2617-0.93359 1.4141-0.48047 1.0078-0.46875 2.2188-0.019531 1.7188 0.039062 1.0859-0.039062 1.293-0.67969 1.3867-0.68359 1.3242-0.125 1.0664 0.10156 1.1992 0.30078 1.0312 0.56641 2.3594 0.32812 1.4414 0.40625 1.3164 0.95312 1.9375 0.23047 1.0859-0.40625 1.1094-0.28516 1.2578 0.64453 1.1367 0.71484 0.94922-0.070313 1.4961-0.71094 1.75-0.20312 1.3047-0.1875 2.0234-0.26953 1.2266-0.28906 0.96484-1.0664 0.089843-1.0859 0.10938-1.1641-0.13672-1.3555-0.21875-1.1094-0.21484-1.8672-0.70312-1.8711 0.13281-2.25 0.24609-1.1914 0.35156-1.625 0.73047-1.2109 0.38672-0.98047 0.28906-1.6797 0.92188-0.76172 0.67969-0.78516 0.89062-1.1641 0.65234h-1.3789l-1.0039-0.40625-1.1094-0.625-1.0039-0.56641-1.6523 0.32422-1.0547 1.1914-1.4102 0.54297-1.1094 0.1875-0.35156 0.97656 0.67578 1.6523 0.11719 1.0898-0.73047 0.73047-1.1094 0.20312-0.83203 0.57812-0.96094-0.62891-1.1797-0.32031-1.0391 0.21875-0.83203 0.57812-1.3906-0.074218-1.3594 0.10156-1.0117-0.50391-1.0078 0.125-1.0859-0.027344-1.7148 0.35547-1.4375 0.30078-1.7656-0.46875-1.0859-0.10938h-1.0117l-1.0078 0.15234-1.0859-0.078125-1.2852-0.42969-1.6914 0.40625-0.98438 0.35156-1.625-0.12109-2.082-0.91406-0.80859-0.78125-0.68359-1.3867-0.78125-0.97656-0.93359-0.51172-2.2969-0.027344-1.2109 0.25391-1.7383 0.25391-0.91016-0.60938-1.3867-0.70312-1.0078-0.25391-1.4414-0.80859-1.3359-0.45312-1.6133-0.32812-1.3633-0.30078-1.2109-0.078125-1.1367 0.50391-1.3359-0.32812-1.0156 0.42188-3.0938 2.7812-1.1953 0.71094-3.3477 0.95312-1.7891-0.83203-1.0117 0.37891-1.168 0.45312-2.3789 0.41016-1.0312 0.54688-1.0898 1.1797-1.7109 4.1055-1.1211 1.4688-3.8477 1.8633-1.6797 0.13672-1.832-0.39453-1.957-0.42188-4.5-0.85156-5.6953 1.2578-4.1914 1.4883-3.5195 0.375-1.9688-0.058593-4.1523-1.832-1.8164-0.75781-1.1055-0.57812-1.1055 0.0625-1.832 0.74219-1.7422-0.34766-1.8789 0.55859-1.0156 0.60547-1.1953 1-0.89453 1.6523-0.71094 0.83203-0.91016 0.63672-1.4531 0.48438-0.94141 0.42578-1.7578-0.078125-1.1484 1.1836-0.59375 1.4336-0.81641 1.9727-1.1953 1.7422-1.6367 2.1367-1.2266 1.7578-2.5 0.77344-2.0312 0.57422-1.7578 0.62109-1.0312 0.015625-1.4688-0.31641-1.1289 0.089844-1.8164 0.13281-3.8125-0.55469-3.2891-1.1406-1.7109-1.1445-2.9141-1.668-1.5508-1.25-0.67188-2.1172-0.67188-2.9609-2.1172-3.1484-1.0352-0.9375-0.74219-0.67188-1.0742-2.25-0.60547-0.80469 0.16016-2.0664 2.7266-2.3984 1.7266-1.7578 1.0195-1.0352 1.2148-1.2383 2.0781-0.13672 1.918-0.56641 0.95312-1.0156 2.168-1.168 1.1328-0.49609 2.8281-1.0469 1.4102-0.77344 1.2109-2.0469 1.8438-1.1406 2.6523-1.4102-1.1406-1.3438-1.8125-1.2422-0.92188-2.082-3.1406-3.3906 0.4375-1.1719 0.066407-1.1094-0.57031-1.2773-1.2656-1.6055 1.0312-1.043 1.6758-1.3789 1.0078-0.60156 1.1406-0.33594 4.0039-0.62891 1.5039-1.3516 1.6055-2.1914 1.1562-0.60156 2.0352-0.37891 2.0703-0.82812 2.0234-0.57422 0.87891-0.67969 0.41797-0.97266 1.2617-3.0312 0.74219-3.2031 0.88281-1.6133 0.40234-2.1211-0.18359-2.9219-0.25-3.9375 1.2031-5.3516 1.9062-5.5898 1.8789-4.0273 0.60547-1.4453 0.69922-1.6445 0.94141-0.84375 1.2266-0.23828 1.9766-0.32812 1.5-1.2266 1.6055-2.2109 0.51562-1.6914-0.0625-2.1211-0.32812-1.8086-0.73828-3.1055-0.62109-2.4297-0.58984-2.3008 0.10547-1.4453 1.7422-3.7227 0.55469-1.7227-0.75781-1.6055-1.6523-1.1953-0.92969-0.67188-1.5273-1.2305-1.8477-1.793-1.6562-1.793-1.7617-1.5234-0.070312-1.4922 0.80859-2.3242 5.1602-6.1953 0.94141-0.96875 0.41406-0.97266 0.097656-1.0234-0.45312-2.2617-0.53906-2.1719-0.19531-1.3672-0.36328-2.5352-0.49609-3.4883-0.87109-1.9453-0.81641-1.4844-1.793-3.2734-1.5859-1.8945-2.1484-2.5625-0.99609-0.83984-0.97656-1.207 1.1875-1.3555 1.8203-1.2734 1.1484-1.0469 0.71484-0.86328 0.66406-1.0156 1.4258-1.4688 0.87891-1.3164 0.83203-1.7422 0.27344-1.3789 0.03125-1.1055-0.27344-1.7266 0.19531-1.7109 2-4.1836 2.0625-0.78516 1.8633-0.25781 1.2852-0.28906 0.65234 0.16797" fill="none" stroke="#fff" stroke-linecap="round" stroke-linejoin="round" stroke-miterlimit="10" stroke-width="2"/>
<path d="m121.62 56.461 3.9922 1.2109 11.301 3.4297 1.3438 1.3477 0.87109 1.7188 1.7305 2.1289 1.5625 1.5742 1.5352 1.9961 0.53906 1.457 0.14453 1.2188-1.0625 3.1562-0.22656 4.082 0.25 2.9961-0.33984 1.0859-0.75 2.3906-1.6562 6.5859-0.10938 2.375-1.2461 3.4922-0.70703 1.9805 0.21484 3.1484 0.21094 3.0938 0.81641 3.2188 0.72656 1.5742 1.4258 2.4688 0.76953 3.5273-0.5 1.293-0.51172 1.332-1.5508 2.3008-1.1133 0.80859-1.4688 1.0664-0.59375 1.9648 0.82031 0.80859 1.9453 1.2539 8.7578 4.0781 2.1523 1.4648 1.9609 1.8984 2.6836 5.0547 1.8945 1.9688 6.4102 4.2656 6.9766 3.582 2.3008 0.92188 4.3086 2.582 4.9492 2.4844 1.5352 1.2461 2.207 2.3242 0.80078 1.3047 1.168 1.8984 1.5703 2.9805 0.82031 1.5547 0.91797 3.7852 0.73438 3.5781 0.32422 1.5781 0.53906 0.96484 0.90625 0.93359 1.7539 2.1484 1.8555 5.0547-0.58984 1.2148-0.97656 0.22266-1.9805 0.44922-1.4023 0.31641-0.88281 1 0.011718 1.3203 1.9414 1.9492 0.70703 1.3203 0.45703 1.8711 1.2656 1.6055 0.57031 1.2773-0.066407 1.1094-0.4375 1.1719 3.1406 3.3906 0.92188 2.082 1.8125 1.2422 0.89453 1.0508-2.4062 1.7031-1.8438 1.1406-1.2109 2.0469-1.4102 0.77344-1.9805 0.67188-1.9805 0.87109-2.168 1.168-0.95312 1.0156-0.94141 0.50391-3.0547 0.19922-1.2148 1.2383-1.0195 1.0352-1.7266 1.7578-2.7266 2.3984-0.16016 2.0664 0.60547 0.80469 1.0742 2.25 0.74219 0.67188 1.0352 0.9375 2.1172 3.1484 0.67188 2.9609 0.32812 1.4531 2.9336 4.8086 1.7461 1.8633 2.4062 2.9375 1.6992 2.0742 0.78906 1.8828 0.65234 2.9375 1.1406 2.4062 0.85938 1.8047 1.2617 3.7812 1.1836 4.9766 0.41016 3.7109 0.65234 2.3242 1.0195 2.4062 0.24219 1.5938 1.1445 4.9336 0.85547 2.4492 0.089844 1.418 0.074219 1.1914 0.81641 2.1211 0.87891 1.0859 0.71094 0.87109 2.0781 3.0195 0.28516 1.6719-0.62891 2.2773-0.14453 2.5352 0.40625 1.4258 3.0078 3.6016 1.6406 4.3242 2.6992 3.0703-1.4219 0.55859-2.2109 0.046875-2.1641-0.89062-2.3359-0.89844-0.9375-0.62109-0.78906-1.1055-0.69531-1.3789-0.5625-0.92188-0.64844-1.1367-0.83594-0.62109-1.3633-0.80469-1.1641-0.80078-0.86328-1.5469-2.7891-3.0742-1.832-0.98438-3.0117-0.81641-3.6602 0.48828-4.5664 2.2852-1.9883 0.99219-1.1641 0.58594-1.8828 1.8125-1.375 1.4688-1.1445 1.0156-0.96094 0.84766-1.6875 1.1641-0.99609 0.6875-2.4961 1.0234-2.9531 1.4102-3.6641 1.5898-1.4883 1.1055-0.69922 1.0195-0.65625 0.96094-1.3281 1.0117-1.8555 0.60547-0.80078 0.89062-0.92188 0.80859-0.98047 0.69141-1.5234 0.17188-1.3867 0.15625-1.2031 0.13672-1.3828-0.035156-1.8438 0.11719-3.4258 0.34375-2.2734 0.80469-1.5547 1.2969-0.32031 1.4414-0.39062 1.7656-0.5 2.2539-1.3477 2.5586-3.1016 2.1133-3.2344 1.5273-2.4219 0.49219-1.2578-0.94141-1.7812-1.918-1.6523-1.4023-1.5078-0.60938-2.8398-0.16406-1.5078 0.91797-1.9766 0.75391-1.5078 1.2227-1.832 1.0039-2.2656 1.6914-3.8789 4.0938-3.1992 2.2656-4.0938 1.6875-4.1367 0.95703-1.0391-0.16797-2.0469-0.75391-2.5117-0.10156-2.375 0.75-1.3672 0.42969-3.8438 0.64844-2.5508 0.60156-1.8086 0.42969-2.0273 0.35938-1.0508 0.1875-3.0352 0.11719-2.0312-1.625-2.8398-3.3047-0.89844-1.2578-0.64453-4.418 0.070312-2.8047-0.28516-3.0547-0.79297-1.9766-2.5547-0.99219-1.0742-0.33594-1.5195-1.3906-1.3555-1.2305-1.2461-2.2422-0.38672-2.5469-0.91797-1.8555-3.125-6.3281-2.5156-4.1328-0.14062-3.8789-0.75781-1.6523-1.1484-1.332-1.9023-1.6133-1.6172-1.6914-0.96094-0.71875-2.4531-0.82422-1.7266-0.50391-2.7305-1.4375-1.9766-0.68359-2.0469-1.3633-4.0586-4.7812-2.7695-2.9102-1.5508-1.4375 0.64844-2.3555 0.50781-1.4609 0.60547-1.1641 0.82422-0.71484 3.0938-2.6875 1.7617-1.2969 1.5977-1.1797 0.36328-2.6914 1.1797-1.4883 1.4453-1.1094 2.5117-1.332 6.668-1.5508 2-0.019532 1.207-0.44922 1.8203-2.125 0.84766-0.98828 2-2.0742 0.59766-1.4023-0.45703-1.3594-1.5625-1.6641-1.6133-2.4219-1.9258-1.8477-2.6602-3.8984-1.4102-2.0664-0.10938-1.3906 1.168-3.3477-0.30469-1.2109-1.1094-1.1562-1.7773-1.1602-2.8125-0.66016-2.1211-1.1758-0.72266-0.94922-0.67969-0.89453-0.80859-1.0586-1.2422-3.3203-1.1641-1.7422 0.90625-1.9023 2.1914-1.3555 1.2578-1.1289 0.83984-1.0977 1.7734-0.71094-0.41797-2.8359-0.050782-1.668 0.85938-2.043 0.67578-1.6133 0.16016-1.6797-0.62891-1.3281-1.3633-1.5156-1.9531-1.0352-1.5547-0.03125 1.0508-3.3242 0.61328-1.3711 1.4961-0.64453 2.8125-1.2109 2.3047-1.3828 1.0938-1.2852 0.64453-1.582 1.2461-0.89453 1.2852-0.92188 1.2109-0.57031 0.60547-1.418 0.050781-2.3516 1.7695-2.8359 2.0898-1.1484 2.2344-0.28125 5.168 0.62109 3.1914 0.76953 2.8516 0.074219 2.2969-0.27734 1.3828-0.72266 1.6875-1.9688 0.79688-1.4844 0.82812-2.3789 0.17188-4.6602 0.70703-2.8789 0.37109-2.4297 0.30078-2.0078-0.48047-1.1758-0.93359-0.75781-2.2656-1-0.70312-1.1602-0.59375-2.2656-0.53906-1.2344 0.49219-2.9062 0.039063-2.0156 0.55078-1.2891 1.3672-3.2031 0.78906-2.7109 0.28516-2.1797 0.007813-2.3984-0.41797-1.7969-0.44141-1.8945-0.14453-1.2617 0.33203-1.418 0.37891-1.6094-0.88281-2.4609 0.03125-2.7148 0.1875-1.2305 0.50781-1.1367 0.3125-2.332-1.6719-3.1562-1.3242-1.7422-1.0195-0.74609-0.85938-0.625-1.5547-0.92969-1.5938-1.5352-1.1914-1.6953-0.54688-1.0508-1.2305-2.3008-0.86719-2.4453-0.89062-2-0.56641-1.5938 0.22266-1.8398 0.78906-2.4414-0.31641-1.3281-1.0391-1.3789-1.1094-1.4727-1.4922-2.9102-0.32422-1.332 0.44531-1.0508 2-1.5898 2.0977-1.8633 1.7188-1.3711 0.92578-1.1914 0.019532-1.6172 1.5977-0.5625 2.3633 0.32031 2.4766 0.92188 2.5156 0.46094 1.6367-0.58594 1.3867-0.83984 3.1445-0.37891 0.80078-0.62891 0.28516-1.2695 0.59375-0.87109 0.63672-0.93359 1.2461-0.30078 3.5352-0.23828 1.4258-0.34375 2.1641-0.52344 2.6562-0.63672 2.3867-0.87891 2.1016-0.95703 1.2734-0.98438 1.4688-1.1367 1.4961-0.87891 1-0.86328 1.2578-1.9844 0.89453-2.0117 0.66797-1.1094 1.3477-1.5586 2.6211-2.332 1.0273-0.92578 0.74219-1.0898 1.207-1.1875 1.3398-1.1445 0.80469-0.83203 0.74219-1.0781 0.76953-0.84766 0.66797-0.96875 1.3633-0.125 1.1055-0.78125z" fill="#ccc" fill-rule="evenodd"/>
<path d="m121.62 56.461 3.9922 1.2109 11.301 3.4297 1.3438 1.3477 0.87109 1.7188 1.7305 2.1289 1.5625 1.5742 1.5352 1.9961 0.53906 1.457 0.14453 1.2188-1.0625 3.1562-0.22656 4.082 0.25 2.9961-0.33984 1.0859-0.75 2.3906-1.6562 6.5859-0.10938 2.375-1.2461 3.4922-0.70703 1.9805 0.21484 3.1484 0.21094 3.0938 0.81641 3.2188 0.72656 1.5742 1.4258 2.4688 0.76953 3.5273-0.5 1.293-0.51172 1.332-1.5508 2.3008-1.1133 0.80859-1.4688 1.0664-0.59375 1.9648 0.82031 0.80859 1.9453 1.2539 8.7578 4.0781 2.1523 1.4648 1.9609 1.8984 2.6836 5.0547 1.8945 1.9688 6.4102 4.2656 6.9766 3.582 2.3008 0.92188 4.3086 2.582 4.9492 2.4844 1.5352 1.2461 2.207 2.3242 0.80078 1.3047 1.168 1.8984 1.5703 2.9805 0.82031 1.5547 0.91797 3.7852 0.73438 3.5781 0.32422 1.5781 0.53906 0.96484 0.90625 0.93359 1.7539 2.1484 1.8555 5.0547-0.58984 1.2148-0.97656 0.22266-1.9805 0.44922-1.4023 0.31641-0.88281 1 0.011718 1.3203 1.9414 1.9492 0.70703 1.3203 0.45703 1.8711 1.2656 1.6055 0.57031 1.2773-0.066407 1.1094-0.4375 1.1719 3.1406 3.3906 0.92188 2.082 1.8125 1.2422 0.89453 1.0508-2.4062 1.7031-1.8438 1.1406-1.2109 2.0469-1.4102 0.77344-1.9805 0.67188-1.9805 0.87109-2.168 1.168-0.95312 1.0156-0.94141 0.50391-3.0547 0.19922-1.2148 1.2383-1.0195 1.0352-1.7266 1.7578-2.7266 2.3984-0.16016 2.0664 0.60547 0.80469 1.0742 2.25 0.74219 0.67188 1.0352 0.9375 2.1172 3.1484 0.67188 2.9609 0.32812 1.4531 2.9336 4.8086 1.7461 1.8633 2.4062 2.9375 1.6992 2.0742 0.78906 1.8828 0.65234 2.9375 1.1406 2.4062 0.85938 1.8047 1.2617 3.7812 1.1836 4.9766 0.41016 3.7109 0.65234 2.3242 1.0195 2.4062 0.24219 1.5938 1.1445 4.9336 0.85547 2.4492 0.089844 1.418 0.074219 1.1914 0.81641 2.1211 0.87891 1.0859 0.71094 0.87109 2.0781 3.0195 0.28516 1.6719-0.62891 2.2773-0.14453 2.5352 0.40625 1.4258 3.0078 3.6016 1.6406 4.3242 2.6992 3.0703-1.4219 0.55859-2.2109 0.046875-2.1641-0.89062-2.3359-0.89844-0.9375-0.62109-0.78906-1.1055-0.69531-1.3789-0.5625-0.92188-0.64844-1.1367-0.83594-0.62109-1.3633-0.80469-1.1641-0.80078-0.86328-1.5469-2.7891-3.0742-1.832-0.98438-3.0117-0.81641-3.6602 0.48828-4.5664 2.2852-1.9883 0.99219-1.1641 0.58594-1.8828 1.8125-1.375 1.4688-1.1445 1.0156-0.96094 0.84766-1.6875 1.1641-0.99609 0.6875-2.4961 1.0234-2.9531 1.4102-3.6641 1.5898-1.4883 1.1055-0.69922 1.0195-0.65625 0.96094-1.3281 1.0117-1.8555 0.60547-0.80078 0.89062-0.92188 0.80859-0.98047 0.69141-1.5234 0.17188-1.3867 0.15625-1.2031 0.13672-1.3828-0.035156-1.8438 0.11719-3.4258 0.34375-2.2734 0.80469-1.5547 1.2969-0.32031 1.4414-0.39062 1.7656-0.5 2.2539-1.3477 2.5586-3.1016 2.1133-3.2344 1.5273-2.4219 0.49219-1.2578-0.94141-1.7812-1.918-1.6523-1.4023-1.5078-0.60938-2.8398-0.16406-1.5078 0.91797-1.9766 0.75391-1.5078 1.2227-1.832 1.0039-2.2656 1.6914-3.8789 4.0938-3.1992 2.2656-4.0938 1.6875-4.1367 0.95703-1.0391-0.16797-2.0469-0.75391-2.5117-0.10156-2.375 0.75-1.3672 0.42969-3.8438 0.64844-2.5508 0.60156-1.8086 0.42969-2.0273 0.35938-1.0508 0.1875-3.0352 0.11719-2.0312-1.625-2.8398-3.3047-0.89844-1.2578-0.64453-4.418 0.070312-2.8047-0.28516-3.0547-0.79297-1.9766-2.5547-0.99219-1.0742-0.33594-1.5195-1.3906-1.3555-1.2305-1.2461-2.2422-0.38672-2.5469-0.91797-1.8555-3.125-6.3281-2.5156-4.1328-0.14062-3.8789-0.75781-1.6523-1.1484-1.332-1.9023-1.6133-1.6172-1.6914-0.96094-0.71875-2.4531-0.82422-1.7266-0.50391-2.7305-1.4375-1.9766-0.68359-2.0469-1.3633-4.0586-4.7812-2.7695-2.9102-1.5508-1.4375 0.64844-2.3555 0.50781-1.4609 0.60547-1.1641 0.82422-0.71484 3.0938-2.6875 1.7617-1.2969 1.5977-1.1797 0.36328-2.6914 1.1797-1.4883 1.4453-1.1094 2.5117-1.332 6.668-1.5508 2-0.019532 1.207-0.44922 1.8203-2.125 0.84766-0.98828 2-2.0742 0.59766-1.4023-0.45703-1.3594-1.5625-1.6641-1.6133-2.4219-1.9258-1.8477-2.6602-3.8984-1.4102-2.0664-0.10938-1.3906 1.168-3.3477-0.30469-1.2109-1.1094-1.1562-1.7773-1.1602-2.8125-0.66016-2.1211-1.1758-0.72266-0.94922-0.67969-0.89453-0.80859-1.0586-1.2422-3.3203-1.1641-1.7422 0.90625-1.9023 2.1914-1.3555 1.2578-1.1289 0.83984-1.0977 1.7734-0.71094-0.41797-2.8359-0.050782-1.668 0.85938-2.043 0.67578-1.6133 0.16016-1.6797-0.62891-1.3281-1.3633-1.5156-1.9531-1.0352-1.5547-0.03125 1.0508-3.3242 0.61328-1.3711 1.4961-0.64453 2.8125-1.2109 2.3047-1.3828 1.0938-1.2852 0.64453-1.582 1.2461-0.89453 1.2852-0.92188 1.2109-0.57031 0.60547-1.418 0.050781-2.3516 1.7695-2.8359 2.0898-1.1484 2.2344-0.28125 5.168 0.62109 3.1914 0.76953 2.8516 0.074219 2.2969-0.27734 1.3828-0.72266 1.6875-1.9688 0.79688-1.4844 0.82812-2.3789 0.17188-4.6602 0.70703-2.8789 0.37109-2.4297 0.30078-2.0078-0.48047-1.1758-0.93359-0.75781-2.2656-1-0.70312-1.1602-0.59375-2.2656-0.53906-1.2344 0.49219-2.9062 0.039063-2.0156 0.55078-1.2891 1.3672-3.2031 0.78906-2.7109 0.28516-2.1797 0.007813-2.3984-0.41797-1.7969-0.44141-1.8945-0.14453-1.2617 0.33203-1.418 0.37891-1.6094-0.88281-2.4609 0.03125-2.7148 0.1875-1.2305 0.50781-1.1367 0.3125-2.332-1.6719-3.1562-1.3242-1.7422-1.0195-0.74609-0.85938-0.625-1.5547-0.92969-1.5938-1.5352-1.1914-1.6953-0.54688-1.0508-1.2305-2.3008-0.86719-2.4453-0.89062-2-0.56641-1.5938 0.22266-1.8398 0.78906-2.4414-0.31641-1.3281-1.0391-1.3789-1.1094-1.4727-1.4922-2.9102-0.32422-1.332 0.44531-1.0508 2-1.5898 2.0977-1.8633 1.7188-1.3711 0.92578-1.1914 0.019532-1.6172 1.5977-0.5625 2.3633 0.32031 2.4766 0.92188 2.5156 0.46094 1.6367-0.58594 1.3867-0.83984 3.1445-0.37891 0.80078-0.62891 0.28516-1.2695 0.59375-0.87109 0.63672-0.93359 1.2461-0.30078 3.5352-0.23828 1.4258-0.34375 2.1641-0.52344 2.6562-0.63672 2.3867-0.87891 2.1016-0.95703 1.2734-0.98438 1.4688-1.1367 1.4961-0.87891 1-0.86328 1.2578-1.9844 0.89453-2.0117 0.66797-1.1094 1.3477-1.5586 2.6211-2.332 1.0273-0.92578 0.74219-1.0898 1.207-1.1875 1.3398-1.1445 0.80469-0.83203 0.74219-1.0781 0.76953-0.84766 0.66797-0.96875 1.3633-0.125 1.1055-0.78125 3.3164 0.37109" fill="none" stroke="#fff" stroke-linecap="round" stroke-linejoin="round" stroke-miterlimit="10" stroke-width="2"/>
<path d="m312.83 260.43 4.3086 2.0703 2.1953-0.21094 1.2383-0.63281 2.6484-1.3516 1.5625-0.92969 1.4766-0.25391 1.1406 0.33594 1.5625 1.3594 1.9258 2.6094 1.6055 2.168 2.2812 2.1211 2.6523 1.4727 1.4727 1.8359 0.89453 1.3164 0.88672 0.875 1.1328 1.1211 1.4102 0.55469 1.2422 0.48438 0.6875 0.87891 0.015625 1.0664-0.15234 2.1562 0.015625 1.3789 0.76562 1.9336 0.71484 1.4258-0.41016 1.4961-0.40625 1.0195-0.015625 1.168 0.96484 1.8711 0.47656 1.0508 0.49219 1.1875 0.62891 1.3945v1.0859l-0.52734 1.3594-0.25391 1.4258 0.35547 1.1211 0.88281 1.0859-0.054688 1.1953-0.94922 0.96875-1.1875 0.42188-0.87109 1.5859-0.058594 1.0234-0.17188 1.375-0.61719 2.0273-1.25 1.5938-0.57812 1.2969 0.046875 1.1797 0.21484 1.1172 0.29688 1.0586 0.57031 0.85938 0.52734 1.6406-0.19531 1.6133-0.58984 1.1953-0.22656 1.3125 0.10547 1.0117 0.089843 1.0625-0.56641 1.7148-0.14453 1.0938 0.17578 1.5 0.31641 1.0391 0.46094 1.2969 0.25781 1.5-0.085937 1.4688-0.46094 2.1914-0.027343 1.6758v3.457l0.054687 1.2109 0.058594 1.2695 0.03125 1.2422 0.31641 1.5 0.27734 1.0508 0.5 0.96094 0.54297 0.95312 0.30469 1.0352 0.76562 2.4453 0.67969 1.3242 0.21875 1.0195 0.22266 1.207v1l-0.28906 1.5781-0.98438 1.5312-1.1055 0.88281-1.0703 0.23828-1 0.050781-1.3398 0.45703-1.6133 1.0703-0.88281 0.74609-1.1719 1.3945-0.69141 1.2266-1.6367 0.85938-1.0508 0.39062-0.80078 0.62891-0.50781 1.2227 0.085937 1.3398 0.050781 1.293-0.23828 1.4258-0.71484 1.543-0.50781 1.0898 0.11719 1.1719 0.35547 0.96484 0.68359 0.99219v1.0352l-0.023438 1.0352 0.14453 1.0977-0.88672 1.4453-0.18359 1.5 0.16016 1.5195 0.082032 1.1406-0.57031 1.3906-0.44141 1.2227-0.67578 1.5781-0.80078 1.0703-0.73047 1.2227-0.35547 1.1719-0.16797 1.2734-0.20703 1.0039-0.50781 1.1719-0.73047 1.6953-0.69141 1.3594-0.83203 1.3398-0.62891 1.3867-1.0117 1.4883-0.98438 1.2891-1.2109 1.2109-0.78125 0.70312-0.55469 0.85938-0.53125 0.96094-1.4102 1.3867-0.93359 0.55469-1.0352 0.42969-1.2617 0.37891-1.2617 0.19922-1.7656 0.55469-1.8945 1.0859-1.2852 0.73047-1.2109 1.0117-0.91406 0.64844-1.1484 0.64453-1.0508 0.71875-0.71875 0.79688-0.80078 1.5586-0.52344 1.7305-0.19531 2.0039-0.039063 1.1289 0.039063 1.7109-0.15625 1.1289-0.039063 1.0703 0.27344 1.0703 0.039062 1.3047-0.097656 1.5352-0.10938 1.0938-0.80469 1.1055-0.58203 0.95312-0.41016 1.2266 0.078125 2.1953 0.23438 1.4805 0.81641 0.75781 1.1289 0.85547-0.46875 0.97266-0.85547 0.66406-0.75781 1.207-0.60156 1.3398-1.1875 0.81641-0.76172 0.70312-0.73828 1.7305-0.15625 1.0898-0.50391 1.2266-1.1016 0.52734-1.5273 0.36719-0.91406 0.77734-0.5625 1.4609-0.54688 1.1641-1.0117 0.46875-1.1836-0.019531-1.4609-0.37109-1.0898-0.078125-0.99219 1.0117-0.62109 0.86328-0.90625 2.5312-0.47656 0.96484-0.92188 1.0352-1.1641 0.82812-0.92969 1.0703-0.37109 0.98438-0.21484 1.918-0.41406 1.207-1.1562 1.2344-1.4844 0.92578-1.0352 0.9375-2.2227 2.2461-0.52734 1.1602-0.066406 2.5898-0.58984 1.9062-0.28516 1.5156-0.40234 0.94922-0.79688 1.2422-0.62109 0.96094-1.6641 1.6875-0.375 1.2617 0.22656 1.2734 0.73828 1.0195-0.085938 1.7812-1.1875 2.3516-0.78516 0.75781-1.1133-0.42188-0.71094-1.4883-1.2891-1.6328-0.92188-0.39453-1.3203-0.078125-1.5156 0.73047-1.8633 0.52734-2.9375 1.5312-2.1367 1.4102-1.4219 0.62109-2.0469 1.0586-1.1055 0.42578-1.8633 0.55859-1.8008 0.39453-1.2891-0.15234-1.0312-0.28516-0.95312-0.35156-1.2578-1.0586-0.5-0.98438-0.34766-2.2109-0.48438-1.4258-0.69922-1.4102-4.0742-3.0742-1.5-1.5898-1.2578-0.68359-2.4688-0.89062-2.1484-1.3359-1.0469-0.54297-3.1523-0.13672-1.5898-0.46875-1.4219-0.22656-1.1836-0.94141-0.98438-0.74219-2.332-0.30469-2.6836-1.4688-2.0898-1.1055-1.1797-0.55859-4.0469-1.0312-1.0586-0.39453-1.3633-0.25781-1.2422-0.75781-1.0859-0.58203-0.88281-0.47656-3.6836-2.4531-1.8633-1.2891-1.1797-1.0156-0.88672-0.71875-0.59375-1.3359-0.56641-0.97266-1.1992-1.6797-0.75391-0.66406-2.1992-1.3086-3.8086-1.793-1.3398-0.3125-1.2109 0.18359-0.91016-1.2578-1.3477-0.45703-1.0039-0.22656-2.7383-0.62109-2.1055-0.15234-1.3477-0.22656-1.2422-0.37891-1.0586-0.54297-1.168-0.92578-0.92188-1.1211-0.69922-0.72266 1.2656-2.2305 0.83594-0.66406 1.2773-0.23438 1.1562 0.66406 1.2305 1.1211 2.168 1.918h1.4453l1.5195-0.4375 1.0117 0.21875 1.6602 0.65234h1.1602l1.2266 0.57812 1.168-0.10547 2.043-1.6289 1.1094-1.0547 1.3984-0.61719 4.1641 0.44141 5.4297-0.76953 2.6523-0.55859h2.9492l3.2812 1.7656 0.42578 1.5117 0.125 2.1328 0.97266 1.5938 0.38281 2.1133 1.1758 0.8125 1.9883-0.089844 1.8086-0.35938 1.8047 0.17969h1.8984l1.0859-0.63281 1.5352-0.45312 2.5312-0.72266 1.7148-1.3555 0.90625-1.3555 1.625-0.54297 1.1758 0.45312 1.2656 0.8125 0.61328 0.81641 3.0742 1.1992 1.6445-0.57031 2.2578-1.625 1.1758-0.72266 1.5391-0.45312h1.4453l1.2656 0.54297 2.168-0.90234 1.9883-2.5312 0.99219-2.8008 1.0859-1.6289 1.8984-0.72266 1.5352-0.26953 0.63281-0.81641 1.8789 0.125 1.4102 0.25391 1.9336 1.5859 1.3242-0.25781 0.89453-0.65625-0.42188-1.1758-0.79688-1.1484-1.0039-0.83984-0.95312-0.77344-1.0039-0.80859-1.1523-0.91797-1.5156-1.2539-0.42969-1.0977-0.41016-1.1484-0.32812-1.25-0.082031-1.1484-0.007812-1.0625 0.39062-1.2812 0.57812-0.92578 0.40234-1.0508 0.023438-1.2227-0.39844-1.6016-0.30078-1.2773 0.77734-1.4609 1.0352-1.2344 0.84766-0.80859 0.63281-1.168 0.43359-0.96094 0.37109-1.0508 0.53125-1.0664 0.75781-1.0508 1.0273-0.625 1.0078-0.36328 1.1523-0.37891 1.0078-0.5 0.48047-1.1484 0.12109-0.99219 0.09375-1.1289-0.058594-1.3945 0.52344-1.4531 0.73438-1.5273 0.070312-1.1055 0.65625-0.88672 1.0352-0.09375 1.0234-0.21484 0.75391-0.83984 0.90234-0.80469 1.4375-0.019532 1.125 0.30859 0.37109 1.1641 0.58984 0.89453 1.3516-0.019531 1.0547 0.32031 0.97656 0.77734 0.62109 0.97266 0.44922 1.5195 0.68359 1.4883 1.0078 0.34375 0.59375-1.0898 0.050781-1.0078-0.39453-1.0664-0.64062-0.94531-0.30469-1.0078-0.27734-1.2539-0.23047-1.207-0.12109-1.1328 0.22656-1.0156 0.73438-0.73828 1.5508-0.57812 1.1602-0.70703 1.0508-0.80469 1.0234-0.55078 0.89453-0.58594 0.89062-1.5898 0.33594-1.0703-0.011718-1.2109-0.078125-1.1992-0.19922-1.0312-0.23828-1.0625 0.58203-1.0625 1.0664-0.89062 0.82031-0.57812 0.92188-0.44141 1.2188-0.43359 1.0508 0.058594 1.082 0.023437 0.99219-0.57031 0.91406-0.63672 1.1406-0.57031 0.92578-0.46094 0.85938 0.52344 1.1172-0.37891 0.98438-0.34766 1.0469 0.58984 0.77734 0.81641 0.96094 0.70703 1.0273 0.27734 1.4961 0.089844 1.0078-0.21094 0.81641-0.64062 0.94922-0.67578 0.027344-1.0859-1-0.59766-0.25391-1.4531 0.27734-1.2422-0.20703-1.1211-0.56641-1.1211-0.41016-0.94141 0.32422-1.0781 0.34766-1.0938 0.83203-0.68359 0.79297-0.9375 0.47656-1.1328 0.17188-1.0195 0.042969-1.6484-0.007813-1.2031-0.019531-1.5391-0.33594-1.1406 0.5625-0.84375 0.50781-0.98047 0.72656-0.82031 1 0.22656 1.1289-0.17188 1.1016-0.16016 0.98047-0.44922 0.42969-1.0742-0.88672-0.52734-0.82031-0.67578-0.57422-0.85156-0.75-0.83984-0.089844-1.5898 0.16406-1.207-0.03125-1.0117-0.89062-1.1133 0.15625-1.1758 0.60938-1.2148 1.3633-1.9648 1.0547-1.4453 0.64453-1.0469 0.44141-1.043-0.035157-1.207-0.63281-0.90625-0.125-1-0.83984-0.80469-1.3086-0.51953-0.75391-0.89453-0.35156-1.0703-0.53516-1.043-0.75-1.0078-0.99219-1.3164-1.3047-1.5117-1.6484-3.0352-2.9492-3.2969-1.1758-0.89453-2.207-0.83984-1.8945-0.082031-1.6641 0.25391-0.95312 0.60547-0.86719 0.95703-0.97266 0.4375-1.6133-1.8867-2.3555 0.023437-1.1562 0.32812 0.37109-1.8125 0.625-0.87109 0.83594-0.69531 1.7578 0.058594 1.7031-0.28906 1.2109-0.085937 1.0938-0.19922 1.0078-0.20312 1.2148-0.54688 1.5859-0.03125 1.0742 0.1875 1.2891-0.011719-0.28125-1.4258-1-0.48828-0.96484-0.47656-1.5859-0.77734-1.3359-3.0859-1.7734-4.0898-0.054687-1.1289 0.23047-1.6211-0.49219-1.9727-1.3672-2.6797-0.21875-1.4766-1.6211-1.957-0.75-8.5625-0.023438-5.1758-0.56641-2.2656-0.87891-1.7422-0.78516-1.0547-3.3477-0.51953-1.3086 2.4258-0.41797 1.1406-0.55859 1.5312-0.88672 2.2344-0.79688 1.4062-1.3906 2.4648-0.57422 1.0117-1.582 0.83594-2.6367 1.8867-1.3164 1.9336-0.21875 1.1875 0.17578 2.3281-0.70703 1.6836-0.82422 1.2734-1.0312 1.5938-0.77734 1.207-1.3633 2.1094-0.98047 0.90234-3.2812 0.58984-1.8906-0.12891-4.0859-2.418-2.1523-2.0664-1.7344-2.207-2.5781-3.6992-2.3945-2.2578-0.80859-2.0078-1.2383-1.2461 0.9375-1.4609 0.55859-1.332 0.41016-2 0.48438-0.89453 0.9375-0.64844 1.4727-0.5625 2.6328-1.4375 1.8477-0.66797 1.2148-1.0586 0.42188-1.4414 1.1367-1.5 1.3203-0.72656 1.6328-0.015625 1.1992-0.34766 1.3164-0.65234 1.5312-0.62109 2-0.62109 1.332-0.69531 1-0.63672 2.2109-2.5 0.95312-1.7109 1.1836-1.4102 1.0898-1.6055 0.66797-1.2578 1.2695-1.0742 2.2578-0.31641 1.457-0.45703 1.0273-0.4375 1.3789-1.668 1.168-0.92188 1.3633-0.03125 1.3633-0.45703 1.3398-0.63672 0.83984-0.55078 1.0703-0.35156 1.4727 0.14453 3.1172-0.89453 15.984-5.9844z" fill="#ccc" fill-rule="evenodd"/>
<path d="m312.83 260.43 4.3086 2.0703 2.1953-0.21094 1.2383-0.63281 2.6484-1.3516 1.5625-0.92969 1.4766-0.25391 1.1406 0.33594 1.5625 1.3594 1.9258 2.6094 1.6055 2.168 2.2812 2.1211 2.6523 1.4727 1.4727 1.8359 0.89453 1.3164 0.88672 0.875 1.1328 1.1211 1.4102 0.55469 1.2422 0.48438 0.6875 0.87891 0.015625 1.0664-0.15234 2.1562 0.015625 1.3789 0.76562 1.9336 0.71484 1.4258-0.41016 1.4961-0.40625 1.0195-0.015625 1.168 0.96484 1.8711 0.47656 1.0508 0.49219 1.1875 0.62891 1.3945v1.0859l-0.52734 1.3594-0.25391 1.4258 0.35547 1.1211 0.88281 1.0859-0.054688 1.1953-0.94922 0.96875-1.1875 0.42188-0.87109 1.5859-0.058594 1.0234-0.17188 1.375-0.61719 2.0273-1.25 1.5938-0.57812 1.2969 0.046875 1.1797 0.21484 1.1172 0.29688 1.0586 0.57031 0.85938 0.52734 1.6406-0.19531 1.6133-0.58984 1.1953-0.22656 1.3125 0.10547 1.0117 0.089843 1.0625-0.56641 1.7148-0.14453 1.0938 0.17578 1.5 0.31641 1.0391 0.46094 1.2969 0.25781 1.5-0.085937 1.4688-0.46094 2.1914-0.027343 1.6758v3.457l0.054687 1.2109 0.058594 1.2695 0.03125 1.2422 0.31641 1.5 0.27734 1.0508 0.5 0.96094 0.54297 0.95312 0.30469 1.0352 0.76562 2.4453 0.67969 1.3242 0.21875 1.0195 0.22266 1.207v1l-0.28906 1.5781-0.98438 1.5312-1.1055 0.88281-1.0703 0.23828-1 0.050781-1.3398 0.45703-1.6133 1.0703-0.88281 0.74609-1.1719 1.3945-0.69141 1.2266-1.6367 0.85938-1.0508 0.39062-0.80078 0.62891-0.50781 1.2227 0.085937 1.3398 0.050781 1.293-0.23828 1.4258-0.71484 1.543-0.50781 1.0898 0.11719 1.1719 0.35547 0.96484 0.68359 0.99219v1.0352l-0.023438 1.0352 0.14453 1.0977-0.88672 1.4453-0.18359 1.5 0.16016 1.5195 0.082032 1.1406-0.57031 1.3906-0.44141 1.2227-0.67578 1.5781-0.80078 1.0703-0.73047 1.2227-0.35547 1.1719-0.16797 1.2734-0.20703 1.0039-0.50781 1.1719-0.73047 1.6953-0.69141 1.3594-0.83203 1.3398-0.62891 1.3867-1.0117 1.4883-0.98438 1.2891-1.2109 1.2109-0.78125 0.70312-0.55469 0.85938-0.53125 0.96094-1.4102 1.3867-0.93359 0.55469-1.0352 0.42969-1.2617 0.37891-1.2617 0.19922-1.7656 0.55469-1.8945 1.0859-1.2852 0.73047-1.2109 1.0117-0.91406 0.64844-1.1484 0.64453-1.0508 0.71875-0.71875 0.79688-0.80078 1.5586-0.52344 1.7305-0.19531 2.0039-0.039063 1.1289 0.039063 1.7109-0.15625 1.1289-0.039063 1.0703 0.27344 1.0703 0.039062 1.3047-0.097656 1.5352-0.10938 1.0938-0.80469 1.1055-0.58203 0.95312-0.41016 1.2266 0.078125 2.1953 0.23438 1.4805 0.81641 0.75781 1.1289 0.85547-0.46875 0.97266-0.85547 0.66406-0.75781 1.207-0.60156 1.3398-1.1875 0.81641-0.76172 0.70312-0.73828 1.7305-0.15625 1.0898-0.50391 1.2266-1.1016 0.52734-1.5273 0.36719-0.91406 0.77734-0.5625 1.4609-0.54688 1.1641-1.0117 0.46875-1.1836-0.019531-1.4609-0.37109-1.0898-0.078125-0.99219 1.0117-0.62109 0.86328-0.90625 2.5312-0.47656 0.96484-0.92188 1.0352-1.1641 0.82812-0.92969 1.0703-0.37109 0.98438-0.21484 1.918-0.41406 1.207-1.1562 1.2344-1.4844 0.92578-1.0352 0.9375-2.2227 2.2461-0.52734 1.1602-0.066406 2.5898-0.58984 1.9062-0.28516 1.5156-0.40234 0.94922-0.79688 1.2422-0.62109 0.96094-1.6641 1.6875-0.375 1.2617 0.22656 1.2734 0.73828 1.0195-0.085938 1.7812-1.1875 2.3516-0.78516 0.75781-1.1133-0.42188-0.71094-1.4883-1.2891-1.6328-0.92188-0.39453-1.3203-0.078125-1.5156 0.73047-1.8633 0.52734-2.9375 1.5312-2.1367 1.4102-1.4219 0.62109-2.0469 1.0586-1.1055 0.42578-1.8633 0.55859-1.8008 0.39453-1.2891-0.15234-1.0312-0.28516-0.95312-0.35156-1.2578-1.0586-0.5-0.98438-0.34766-2.2109-0.48438-1.4258-0.69922-1.4102-4.0742-3.0742-1.5-1.5898-1.2578-0.68359-2.4688-0.89062-2.1484-1.3359-1.0469-0.54297-3.1523-0.13672-1.5898-0.46875-1.4219-0.22656-1.1836-0.94141-0.98438-0.74219-2.332-0.30469-2.6836-1.4688-2.0898-1.1055-1.1797-0.55859-4.0469-1.0312-1.0586-0.39453-1.3633-0.25781-1.2422-0.75781-1.0859-0.58203-0.88281-0.47656-3.6836-2.4531-1.8633-1.2891-1.1797-1.0156-0.88672-0.71875-0.59375-1.3359-0.56641-0.97266-1.1992-1.6797-0.75391-0.66406-2.1992-1.3086-3.8086-1.793-1.3398-0.3125-1.2109 0.18359-0.91016-1.2578-1.3477-0.45703-1.0039-0.22656-2.7383-0.62109-2.1055-0.15234-1.3477-0.22656-1.2422-0.37891-1.0586-0.54297-1.168-0.92578-0.92188-1.1211-0.69922-0.72266 1.2656-2.2305 0.83594-0.66406 1.2773-0.23438 1.1562 0.66406 1.2305 1.1211 2.168 1.918h1.4453l1.5195-0.4375 1.0117 0.21875 1.6602 0.65234h1.1602l1.2266 0.57812 1.168-0.10547 2.043-1.6289 1.1094-1.0547 1.3984-0.61719 4.1641 0.44141 5.4297-0.76953 2.6523-0.55859h2.9492l3.2812 1.7656 0.42578 1.5117 0.125 2.1328 0.97266 1.5938 0.38281 2.1133 1.1758 0.8125 1.9883-0.089844 1.8086-0.35938 1.8047 0.17969h1.8984l1.0859-0.63281 1.5352-0.45312 2.5312-0.72266 1.7148-1.3555 0.90625-1.3555 1.625-0.54297 1.1758 0.45312 1.2656 0.8125 0.61328 0.81641 3.0742 1.1992 1.6445-0.57031 2.2578-1.625 1.1758-0.72266 1.5391-0.45312h1.4453l1.2656 0.54297 2.168-0.90234 1.9883-2.5312 0.99219-2.8008 1.0859-1.6289 1.8984-0.72266 1.5352-0.26953 0.63281-0.81641 1.8789 0.125 1.4102 0.25391 1.9336 1.5859 1.3242-0.25781 0.89453-0.65625-0.42188-1.1758-0.79688-1.1484-1.0039-0.83984-0.95312-0.77344-1.0039-0.80859-1.1523-0.91797-1.5156-1.2539-0.42969-1.0977-0.41016-1.1484-0.32812-1.25-0.082031-1.1484-0.007812-1.0625 0.39062-1.2812 0.57812-0.92578 0.40234-1.0508 0.023438-1.2227-0.39844-1.6016-0.30078-1.2773 0.77734-1.4609 1.0352-1.2344 0.84766-0.80859 0.63281-1.168 0.43359-0.96094 0.37109-1.0508 0.53125-1.0664 0.75781-1.0508 1.0273-0.625 1.0078-0.36328 1.1523-0.37891 1.0078-0.5 0.48047-1.1484 0.12109-0.99219 0.09375-1.1289-0.058594-1.3945 0.52344-1.4531 0.73438-1.5273 0.070312-1.1055 0.65625-0.88672 1.0352-0.09375 1.0234-0.21484 0.75391-0.83984 0.90234-0.80469 1.4375-0.019532 1.125 0.30859 0.37109 1.1641 0.58984 0.89453 1.3516-0.019531 1.0547 0.32031 0.97656 0.77734 0.62109 0.97266 0.44922 1.5195 0.68359 1.4883 1.0078 0.34375 0.59375-1.0898 0.050781-1.0078-0.39453-1.0664-0.64062-0.94531-0.30469-1.0078-0.27734-1.2539-0.23047-1.207-0.12109-1.1328 0.22656-1.0156 0.73438-0.73828 1.5508-0.57812 1.1602-0.70703 1.0508-0.80469 1.0234-0.55078 0.89453-0.58594 0.89062-1.5898 0.33594-1.0703-0.011718-1.2109-0.078125-1.1992-0.19922-1.0312-0.23828-1.0625 0.58203-1.0625 1.0664-0.89062 0.82031-0.57812 0.92188-0.44141 1.2188-0.43359 1.0508 0.058594 1.082 0.023437 0.99219-0.57031 0.91406-0.63672 1.1406-0.57031 0.92578-0.46094 0.85938 0.52344 1.1172-0.37891 0.98438-0.34766 1.0469 0.58984 0.77734 0.81641 0.96094 0.70703 1.0273 0.27734 1.4961 0.089844 1.0078-0.21094 0.81641-0.64062 0.94922-0.67578 0.027344-1.0859-1-0.59766-0.25391-1.4531 0.27734-1.2422-0.20703-1.1211-0.56641-1.1211-0.41016-0.94141 0.32422-1.0781 0.34766-1.0938 0.83203-0.68359 0.79297-0.9375 0.47656-1.1328 0.17188-1.0195 0.042969-1.6484-0.007813-1.2031-0.019531-1.5391-0.33594-1.1406 0.5625-0.84375 0.50781-0.98047 0.72656-0.82031 1 0.22656 1.1289-0.17188 1.1016-0.16016 0.98047-0.44922 0.42969-1.0742-0.88672-0.52734-0.82031-0.67578-0.57422-0.85156-0.75-0.83984-0.089844-1.5898 0.16406-1.207-0.03125-1.0117-0.89062-1.1133 0.15625-1.1758 0.60938-1.2148 1.3633-1.9648 1.0547-1.4453 0.64453-1.0469 0.44141-1.043-0.035157-1.207-0.63281-0.90625-0.125-1-0.83984-0.80469-1.3086-0.51953-0.75391-0.89453-0.35156-1.0703-0.53516-1.043-0.75-1.0078-0.99219-1.3164-1.3047-1.5117-1.6484-3.0352-2.9492-3.2969-1.1758-0.89453-2.207-0.83984-1.8945-0.082031-1.6641 0.25391-0.95312 0.60547-0.86719 0.95703-0.97266 0.4375-1.6133-1.8867-2.3555 0.023437-1.1562 0.32812 0.37109-1.8125 0.625-0.87109 0.83594-0.69531 1.7578 0.058594 1.7031-0.28906 1.2109-0.085937 1.0938-0.19922 1.0078-0.20312 1.2148-0.54688 1.5859-0.03125 1.0742 0.1875 1.2891-0.011719-0.28125-1.4258-1-0.48828-0.96484-0.47656-1.5859-0.77734-1.3359-3.0859-1.7734-4.0898-0.054687-1.1289 0.23047-1.6211-0.49219-1.9727-1.3672-2.6797-0.21875-1.4766-1.6211-1.957-0.75-8.5625-0.023438-5.1758-0.56641-2.2656-0.87891-1.7422-0.78516-1.0547-3.3477-0.51953-1.3086 2.4258-0.41797 1.1406-0.55859 1.5312-0.88672 2.2344-0.79688 1.4062-1.3906 2.4648-0.57422 1.0117-1.582 0.83594-2.6367 1.8867-1.3164 1.9336-0.21875 1.1875 0.17578 2.3281-0.70703 1.6836-0.82422 1.2734-1.0312 1.5938-0.77734 1.207-1.3633 2.1094-0.98047 0.90234-3.2812 0.58984-1.8906-0.12891-4.0859-2.418-2.1523-2.0664-1.7344-2.207-2.5781-3.6992-2.3945-2.2578-0.80859-2.0078-1.2383-1.2461 0.9375-1.4609 0.55859-1.332 0.41016-2 0.48438-0.89453 0.9375-0.64844 1.4727-0.5625 2.6328-1.4375 1.8477-0.66797 1.2148-1.0586 0.42188-1.4414 1.1367-1.5 1.3203-0.72656 1.6328-0.015625 1.1992-0.34766 1.3164-0.65234 1.5312-0.62109 2-0.62109 1.332-0.69531 1-0.63672 2.2109-2.5 0.95312-1.7109 1.1836-1.4102 1.0898-1.6055 0.66797-1.2578 1.2695-1.0742 2.2578-0.31641 1.457-0.45703 1.0273-0.4375 1.3789-1.668 1.168-0.92188 1.3633-0.03125 1.3633-0.45703 1.3398-0.63672 0.83984-0.55078 1.0703-0.35156 1.4727 0.14453 3.1172-0.89453 15.984-5.9844 1.8828 1.7656" fill="none" stroke="#fff" stroke-linecap="round" stroke-linejoin="round" stroke-miterlimit="10" stroke-width="2"/>
<path d="m147.61 0.078125 0.60938 0.30469 1.5859 1.1992 0.74219 0.76562 0.80469 1.0742 0.93359 1.0234 0.6875 0.78125 0.78125 0.80469 0.76562 0.66797 0.97266 1.4102 0.70703 0.74609 0.875 0.85938 0.99609 0.74609 1.2969 0.74219 1.3906 0.51172 1.1445 0.51953 1.7188 1.1445 1.6016 1.1445 1.1445 0.76562 1.3594 0.79688 1.7539 0.86328 1.6758 0.55078 1.2227 0.23047 1.1289 0.51172 1.7578 1.2812 1.0078 1.1641 0.91797 0.99219 0.62891 1.1836 0.55469 1.1016 0.64844 0.97656 1.3555 0.95703 1.1836 0.57031 1.5039 0.53516 1.6602 0.95312 1.3359 0.89844 1.0508 0.53516 1.1094 0.36328 1.1836 0.37891 1.1602 0.47656 2.2891 0.74609 1.2227 0.24609 2.6914-0.34375 1.1836-0.054688 1.125-0.078125 1.0508 0.15625 1.6211 0.10938 1.0312 0.023438 1.0859-0.058594 1.5469 0.39844 1.1094 1.1289 0.60938 0.91406 0.94531 1.4453 1.8633 0.47656 1.9844-0.28125 1.7188-0.24219 1.2539 0.10938 2.0234 1.0859 1.7188 0.87891 1.6836 1.3672 1.7695 1.0391 1.793 1.0469 2.3555 0.67578 1.2383 0.1875 1.75 0.26172 1.5586 0.22656 1.0898 0.49219 1.1523 0.51953 1.0039 1.0938 0.95312 1.0352 0.95703 1.8945 0.63672 0.90234 0.3125 1.2812-0.066406 1.1328-0.0625 1.1055-0.10938 1.9922-0.42188 1.4453-1.1602 0.074219-1.9375 0.12109-1.8633 0.25781-1.3633 0.28516-2.4844 4.1211-0.41016 1.6211 0.10547 1.668 0.13672 1.8164-0.27344 1.3789-0.83203 1.7422-0.87891 1.3164-1.3359 1.3789-0.75391 1.1055-0.71484 0.86328-1.1484 1.0469-1.8203 1.2734-1.0117 0.95312 0.80078 1.6094 0.99609 0.83984 2.1484 2.5625 1.5859 1.8945 1.793 3.2734 0.81641 1.4844 0.87109 1.9453 0.49609 3.4883 0.24609 1.6992 0.21875 1.5586 0.63281 2.8164 0.45312 1.8203-0.097656 1.4648-0.41406 0.97266-0.94141 0.96875-5.1602 6.1953-0.80859 2.3242 0.070312 1.4922 1.7617 1.5234 1.6562 1.793 1.8477 1.793 1.5273 1.2305 0.92969 0.67188 1.6523 1.1953 0.75781 1.6055-0.55469 1.7227-1.7422 3.7227-0.10547 1.4453 0.58984 2.3008 0.62109 2.4297 0.72656 2.9961 0.33984 1.918 0.0625 2.1211-0.51562 1.6914-1.6055 2.2109-1.5 1.2266-1.9766 0.32812-1.2266 0.23828-0.94141 0.84375-0.69922 1.6445-0.60547 1.4453-1.8789 4.0273-1.9062 5.5898-1.2031 5.3516 0.25 3.9375 0.18359 2.9219-0.40234 2.1211-0.88281 1.6133-0.74219 3.2031-1.2617 3.0312-0.41797 0.97266-0.87891 0.67969-1.2891 0.29297-2.125 0.92188-2.7148 0.56641-1.1562 0.60156-1.6055 2.1914-1.5039 1.3516-4.0039 0.62891-1.1406 0.33594-1.0078 0.60156-1.6758 1.3789-1.0312 1.043-0.45703-1.8711-0.70703-1.3203-1.5352-1.2812-0.41406-1.4297 0.46094-1.082 0.95312-0.59766 2.0938-0.47266 1.7305-0.39453 0.58984-1.2148-1.8555-5.0547-1.1992-1.5781-1.4609-1.5039-0.53906-0.96484-0.32422-1.5781-0.73438-3.5781-0.91797-3.7852-0.82031-1.5547-1.5703-2.9805-1.168-1.8984-0.80078-1.3047-2.0938-2.1875-1.6484-1.3828-4.9492-2.4844-4.3086-2.582-2.3008-0.92188-6.9766-3.582-6.4102-4.2656-1.8945-1.9688-2.6836-5.0547-1.9609-1.8984-2.1523-1.4648-8.7578-4.0781-1.9453-1.2539-0.82031-0.80859 0.59375-1.9648 1.4688-1.0664 1.1133-0.80859 1.5508-2.3008 0.51172-1.332 0.5-1.293-0.76953-3.5273-1.4258-2.4688-0.72656-1.5742-0.80859-3.0938-0.21875-3.2188-0.21484-3.1484 0.70703-1.9805 1.2461-3.4922 0.10938-2.375 1.6562-6.5859 0.75-2.3906 0.33984-1.0859-0.25-2.9961 0.22656-4.082 1.0625-3.1562-0.14453-1.2188-0.53906-1.457-1.5352-1.9961-1.5625-1.5742-1.7305-2.1289-0.87109-1.7188-1.3438-1.3477-11.301-3.4297-3.9922-1.2109-3.1484-0.64844-0.18359-1.1328-0.25781-1.1094-1.7695-2.543-0.74219-1.8633-0.30469-1.2422 0.71094-1.6523-0.21094-2.2109-0.45312-0.91016-0.09375-1.5742-0.26953-1.1367-0.83594-2.043-1.1953-2.0156-0.36328-1.0742-0.34766-1.9727-1.2305-2.8633-0.57422-0.9375-1.0312-1.2109-0.95312-0.87891-0.89453-0.46875-0.22656-1.0938-0.75781-2.6797-0.51562-3.0742-0.64844-2.0312-1.0938-2.3789-0.37891-1.4531-1.1641-2.0469-1.0625-1.4531 28.508-9.332 1.1172 0.15234 1.2422 0.38281 1.3516 0.34766 1.5859 0.91406 1.0508 0.70703 1.1289 0.68359 2 0.60938 0.99219-0.16797 1.6055-0.61328 0.66406-0.76172 0.87891-1.0547 1.168-1.1016 1.0859-1.2031 1.125-0.32422z" fill="#ccc" fill-rule="evenodd"/>
<path d="m147.61 0.078125 0.60938 0.30469 1.5859 1.1992 0.74219 0.76562 0.80469 1.0742 0.93359 1.0234 0.6875 0.78125 0.78125 0.80469 0.76562 0.66797 0.97266 1.4102 0.70703 0.74609 0.875 0.85938 0.99609 0.74609 1.2969 0.74219 1.3906 0.51172 1.1445 0.51953 1.7188 1.1445 1.6016 1.1445 1.1445 0.76562 1.3594 0.79688 1.7539 0.86328 1.6758 0.55078 1.2227 0.23047 1.1289 0.51172 1.7578 1.2812 1.0078 1.1641 0.91797 0.99219 0.62891 1.1836 0.55469 1.1016 0.64844 0.97656 1.3555 0.95703 1.1836 0.57031 1.5039 0.53516 1.6602 0.95312 1.3359 0.89844 1.0508 0.53516 1.1094 0.36328 1.1836 0.37891 1.1602 0.47656 2.2891 0.74609 1.2227 0.24609 2.6914-0.34375 1.1836-0.054688 1.125-0.078125 1.0508 0.15625 1.6211 0.10938 1.0312 0.023438 1.0859-0.058594 1.5469 0.39844 1.1094 1.1289 0.60938 0.91406 0.94531 1.4453 1.8633 0.47656 1.9844-0.28125 1.7188-0.24219 1.2539 0.10938 2.0234 1.0859 1.7188 0.87891 1.6836 1.3672 1.7695 1.0391 1.793 1.0469 2.3555 0.67578 1.2383 0.1875 1.75 0.26172 1.5586 0.22656 1.0898 0.49219 1.1523 0.51953 1.0039 1.0938 0.95312 1.0352 0.95703 1.8945 0.63672 0.90234 0.3125 1.2812-0.066406 1.1328-0.0625 1.1055-0.10938 1.9922-0.42188 1.4453-1.1602 0.074219-1.9375 0.12109-1.8633 0.25781-1.3633 0.28516-2.4844 4.1211-0.41016 1.6211 0.10547 1.668 0.13672 1.8164-0.27344 1.3789-0.83203 1.7422-0.87891 1.3164-1.3359 1.3789-0.75391 1.1055-0.71484 0.86328-1.1484 1.0469-1.8203 1.2734-1.0117 0.95312 0.80078 1.6094 0.99609 0.83984 2.1484 2.5625 1.5859 1.8945 1.793 3.2734 0.81641 1.4844 0.87109 1.9453 0.49609 3.4883 0.24609 1.6992 0.21875 1.5586 0.63281 2.8164 0.45312 1.8203-0.097656 1.4648-0.41406 0.97266-0.94141 0.96875-5.1602 6.1953-0.80859 2.3242 0.070312 1.4922 1.7617 1.5234 1.6562 1.793 1.8477 1.793 1.5273 1.2305 0.92969 0.67188 1.6523 1.1953 0.75781 1.6055-0.55469 1.7227-1.7422 3.7227-0.10547 1.4453 0.58984 2.3008 0.62109 2.4297 0.72656 2.9961 0.33984 1.918 0.0625 2.1211-0.51562 1.6914-1.6055 2.2109-1.5 1.2266-1.9766 0.32812-1.2266 0.23828-0.94141 0.84375-0.69922 1.6445-0.60547 1.4453-1.8789 4.0273-1.9062 5.5898-1.2031 5.3516 0.25 3.9375 0.18359 2.9219-0.40234 2.1211-0.88281 1.6133-0.74219 3.2031-1.2617 3.0312-0.41797 0.97266-0.87891 0.67969-1.2891 0.29297-2.125 0.92188-2.7148 0.56641-1.1562 0.60156-1.6055 2.1914-1.5039 1.3516-4.0039 0.62891-1.1406 0.33594-1.0078 0.60156-1.6758 1.3789-1.0312 1.043-0.45703-1.8711-0.70703-1.3203-1.5352-1.2812-0.41406-1.4297 0.46094-1.082 0.95312-0.59766 2.0938-0.47266 1.7305-0.39453 0.58984-1.2148-1.8555-5.0547-1.1992-1.5781-1.4609-1.5039-0.53906-0.96484-0.32422-1.5781-0.73438-3.5781-0.91797-3.7852-0.82031-1.5547-1.5703-2.9805-1.168-1.8984-0.80078-1.3047-2.0938-2.1875-1.6484-1.3828-4.9492-2.4844-4.3086-2.582-2.3008-0.92188-6.9766-3.582-6.4102-4.2656-1.8945-1.9688-2.6836-5.0547-1.9609-1.8984-2.1523-1.4648-8.7578-4.0781-1.9453-1.2539-0.82031-0.80859 0.59375-1.9648 1.4688-1.0664 1.1133-0.80859 1.5508-2.3008 0.51172-1.332 0.5-1.293-0.76953-3.5273-1.4258-2.4688-0.72656-1.5742-0.80859-3.0938-0.21875-3.2188-0.21484-3.1484 0.70703-1.9805 1.2461-3.4922 0.10938-2.375 1.6562-6.5859 0.75-2.3906 0.33984-1.0859-0.25-2.9961 0.22656-4.082 1.0625-3.1562-0.14453-1.2188-0.53906-1.457-1.5352-1.9961-1.5625-1.5742-1.7305-2.1289-0.87109-1.7188-1.3438-1.3477-11.301-3.4297-3.9922-1.2109-3.1484-0.64844-0.18359-1.1328-0.25781-1.1094-1.7695-2.543-0.74219-1.8633-0.30469-1.2422 0.71094-1.6523-0.21094-2.2109-0.45312-0.91016-0.09375-1.5742-0.26953-1.1367-0.83594-2.043-1.1953-2.0156-0.36328-1.0742-0.34766-1.9727-1.2305-2.8633-0.57422-0.9375-1.0312-1.2109-0.95312-0.87891-0.89453-0.46875-0.22656-1.0938-0.75781-2.6797-0.51562-3.0742-0.64844-2.0312-1.0938-2.3789-0.37891-1.4531-1.1641-2.0469-1.0625-1.4531 28.508-9.332 1.1172 0.15234 1.2422 0.38281 1.3516 0.34766 1.5859 0.91406 1.0508 0.70703 1.1289 0.68359 2 0.60938 0.99219-0.16797 1.6055-0.61328 0.66406-0.76172 0.87891-1.0547 1.168-1.1016 1.0859-1.2031 1.125-0.32422 0.47656 0.078125" fill="none" stroke="#fff" stroke-linecap="round" stroke-linejoin="round" stroke-miterlimit="10" stroke-width="2"/>
<path d="m362.73 211.21 0.47656 0.30859 1.3906 0.39453 1.3555 0.21875 1.1641 0.13672 1.0859-0.10938 1.0664-0.089843-0.074219 1.8281-0.31641 1.1602-1.0547 0.67578-0.40625 1.0391 0.20312 1.7148 0.23828 0.98438 0.21875 1.9531-0.066406 1.6641 0.015625 1.168-0.16797 1.0898-0.51172 1.8672 0.050781 1 0.81641 2.125 1.2227 1.3555 0.98438 1.1055 0.89844 0.98438 0.83203 0.86719 1.0898 1.1523 0.625 1.1562 0.17188 1.0781-0.78125 1.7383-0.68359 1.2852-0.125 1.1367-0.22656 1.0352-0.88281 1.6133-1.5391 1.0352-0.80859 0.75781-1.2188 1.3047-0.75391 1.6641-0.63672 1.3906-0.98047 1.25-1.3203 1.1094-0.87109 0.71484-0.82031 0.9375-0.96875 1.3555-0.73047 1.3242-0.57812 0.98828-1.0508 1.1016-0.78125 0.81641-1.2578 1.3555-0.84766 1.0039-0.86719 1.2578-0.71094 0.96484-0.71484 0.71484-1.543 0.84766-1.5469 0.59375-0.93359 0.51172-0.84766 0.55859-1.4609 1.5977-0.74609 1.7656-0.42578 1.0703-0.81641 1.7305-1.0938 0.80469-1.2422-0.48438-1.4102-0.55469-1.1328-1.1211-0.88672-0.875-0.89453-1.3164-1.4727-1.8359-2.6523-1.4727-2.2812-2.1211-1.6055-2.168-1.9258-2.6094-1.5625-1.3594-1.1406-0.33594-1.4766 0.25391-1.5625 0.92969-2.6484 1.3516-1.2383 0.63281-2.1953 0.21094-4.3086-2.0703-1.8828-1.7656-15.984 5.9844-2.7461 0.79688-1.8438-0.046875-1.0703 0.35156-0.83984 0.55078-1.0898 0.51172-1.6133 0.58203-1.3633 0.03125-1.168 0.92188-1.0586 1.4531-1.3477 0.65234-1.457 0.45703-2.2578 0.31641-1.2695 1.0742-0.66797 1.2578-1.0898 1.6055-1.1836 1.4102-0.95312 1.7109-2.2109 2.5-1 0.63672-1.332 0.69531-2 0.62109-1.2148 0.49219-1.6328 0.78125-1.1992 0.34766-1.6328 0.015625-1.3203 0.72656-0.89453 0.96875-0.42188 1.2891-0.72656 1.3164-2.5781 1.0938-2.6328 1.4375-1.4727 0.5625-0.9375 0.64844-0.48438 0.89453-0.41016 2-0.55859 1.332-0.69922 1.0312-0.51953 0.9375-0.52344 0.94141-1.1055 1.543-1.0469 1.2305-0.66797 0.9375-0.76953 1.6797-2.2266 2.3203-1.1992 0.95312-2.043 2.1836-1.3945 1.1055-0.92578 0.60547-2 0.9375-1.7695 0.57812-1.2734 0.31641-1.2109 0.058593-1.0469-0.074218-1.6055-0.41797-2.4688-0.64062h-1.1523l-2.1523 0.37891-1.6484 0.58984-1.0625 0.67969-1.1797 0.59375-2.7031-3.0703-1.6406-4.3242-3.0078-3.6016-0.40625-1.4258 0.074219-2.3906 0.69922-2.4219-0.28516-1.6719-2.0781-3.0195-0.71094-0.87109-0.87891-1.0859-0.81641-2.1211-0.074219-1.1914-0.089844-1.418-0.85547-2.4492-1.1445-4.9336-0.24219-1.5938-1.0195-2.4062-0.65234-2.3242-0.41016-3.7109-1.1836-4.9766-1.2617-3.7812-0.85938-1.8047-1.1406-2.4062-0.65234-2.9375-0.78906-1.8828-1.6992-2.0742-2.4062-2.9375-1.7461-1.8633-2.5898-4.1445 1.5508 1.25 2.9141 1.668 1.7109 1.1445 3.2891 1.1406 3.8125 0.55469 1.8164-0.13281 1.0391-0.078125 1.5586 0.30469 1.0312-0.015625 1.7578-0.62109 2.0312-0.57422 1.9219-0.68359 1.8047-1.8477 1.6367-2.1367 1.1953-1.7422 0.81641-1.9727 0.59375-1.4336 0.75391-1 1.2891-0.074218 1.8047-0.45703 1.4531-0.48438 0.91016-0.63672 0.71094-0.83203 0.41016-1.0156 1.6797-1.6367 1.0156-0.60547 1.0156-0.51562 2.1953 0.27344 2.2422-0.71094 1.1055-0.0625 1.1055 0.57812 1.8164 0.75781 3.1992 1.5742 2 0.39453 3.8906-0.25781 4.7422-1.6836 5.6953-1.2578 4.5 0.85156 1.957 0.42188 1.832 0.39453 1.6797-0.13672 3.1367-1.2266 1.832-2.1055 1.7109-4.1055 0.74219-0.89453 1.3789-0.83203 2.3789-0.41016 1.168-0.45312 1.0117-0.37891 1.7891 0.83203 3.3477-0.95312 1.1953-0.71094 2.9258-2.5469 0.77734-0.62891 1.0117 0.125 1.3359 0.125 1.0586-0.55469 1.1484 0.28125 2.5117 0.52734 1.3359 0.45312 1.4414 0.80859 1.0078 0.25391 1.3867 0.70312 0.91016 0.60938 1.1992-0.13672 1.75-0.37109 1.4414-0.074219 1.4609 0.40234 0.75781 0.68359 0.42969 1.1094 0.83203 1.2109 1.7148 1.0078 1.7148 0.48047 1.1133-0.17578 1.4375-0.50391 1.6641-0.078125 1.1875 0.37891 1.5117-0.125h1.0117l1.0352 0.10156 1.0586 0.14844 1.4023 0.26562 1.5977-0.33984 1.0938-0.22656 1.0781-0.13281 1.0586 0.20703 1.2109 0.20312 2.3242 0.074218 0.83203-0.57812 1.0391-0.21875 1.1797 0.32031 0.85938 0.78125 0.93359-0.73047 1.1094-0.20312 0.73047-0.73047-0.10156-1.0625-0.69141-0.78516 0.023437-1.4102 0.78906-0.64844 1.4336-0.054687 1.2188-1.3555 1.3555-0.67578 1.7617 0.59375 1.1094 0.625 1.0039 0.40625h1.3789l1.1641-0.65234 0.78516-0.89062 0.76172-0.67969 1.1914-0.78516 1.2461-0.35156 1.4336-0.46094 1.625-0.73047 1.1914-0.35156 2.25-0.24609 1.8711-0.13281z" fill="#ccc" fill-rule="evenodd"/>
<path d="m362.73 211.21 0.47656 0.30859 1.3906 0.39453 1.3555 0.21875 1.1641 0.13672 1.0859-0.10938 1.0664-0.089843-0.074219 1.8281-0.31641 1.1602-1.0547 0.67578-0.40625 1.0391 0.20312 1.7148 0.23828 0.98438 0.21875 1.9531-0.066406 1.6641 0.015625 1.168-0.16797 1.0898-0.51172 1.8672 0.050781 1 0.81641 2.125 1.2227 1.3555 0.98438 1.1055 0.89844 0.98438 0.83203 0.86719 1.0898 1.1523 0.625 1.1562 0.17188 1.0781-0.78125 1.7383-0.68359 1.2852-0.125 1.1367-0.22656 1.0352-0.88281 1.6133-1.5391 1.0352-0.80859 0.75781-1.2188 1.3047-0.75391 1.6641-0.63672 1.3906-0.98047 1.25-1.3203 1.1094-0.87109 0.71484-0.82031 0.9375-0.96875 1.3555-0.73047 1.3242-0.57812 0.98828-1.0508 1.1016-0.78125 0.81641-1.2578 1.3555-0.84766 1.0039-0.86719 1.2578-0.71094 0.96484-0.71484 0.71484-1.543 0.84766-1.5469 0.59375-0.93359 0.51172-0.84766 0.55859-1.4609 1.5977-0.74609 1.7656-0.42578 1.0703-0.81641 1.7305-1.0938 0.80469-1.2422-0.48438-1.4102-0.55469-1.1328-1.1211-0.88672-0.875-0.89453-1.3164-1.4727-1.8359-2.6523-1.4727-2.2812-2.1211-1.6055-2.168-1.9258-2.6094-1.5625-1.3594-1.1406-0.33594-1.4766 0.25391-1.5625 0.92969-2.6484 1.3516-1.2383 0.63281-2.1953 0.21094-4.3086-2.0703-1.8828-1.7656-15.984 5.9844-2.7461 0.79688-1.8438-0.046875-1.0703 0.35156-0.83984 0.55078-1.0898 0.51172-1.6133 0.58203-1.3633 0.03125-1.168 0.92188-1.0586 1.4531-1.3477 0.65234-1.457 0.45703-2.2578 0.31641-1.2695 1.0742-0.66797 1.2578-1.0898 1.6055-1.1836 1.4102-0.95312 1.7109-2.2109 2.5-1 0.63672-1.332 0.69531-2 0.62109-1.2148 0.49219-1.6328 0.78125-1.1992 0.34766-1.6328 0.015625-1.3203 0.72656-0.89453 0.96875-0.42188 1.2891-0.72656 1.3164-2.5781 1.0938-2.6328 1.4375-1.4727 0.5625-0.9375 0.64844-0.48438 0.89453-0.41016 2-0.55859 1.332-0.69922 1.0312-0.51953 0.9375-0.52344 0.94141-1.1055 1.543-1.0469 1.2305-0.66797 0.9375-0.76953 1.6797-2.2266 2.3203-1.1992 0.95312-2.043 2.1836-1.3945 1.1055-0.92578 0.60547-2 0.9375-1.7695 0.57812-1.2734 0.31641-1.2109 0.058593-1.0469-0.074218-1.6055-0.41797-2.4688-0.64062h-1.1523l-2.1523 0.37891-1.6484 0.58984-1.0625 0.67969-1.1797 0.59375-2.7031-3.0703-1.6406-4.3242-3.0078-3.6016-0.40625-1.4258 0.074219-2.3906 0.69922-2.4219-0.28516-1.6719-2.0781-3.0195-0.71094-0.87109-0.87891-1.0859-0.81641-2.1211-0.074219-1.1914-0.089844-1.418-0.85547-2.4492-1.1445-4.9336-0.24219-1.5938-1.0195-2.4062-0.65234-2.3242-0.41016-3.7109-1.1836-4.9766-1.2617-3.7812-0.85938-1.8047-1.1406-2.4062-0.65234-2.9375-0.78906-1.8828-1.6992-2.0742-2.4062-2.9375-1.7461-1.8633-2.5898-4.1445 1.5508 1.25 2.9141 1.668 1.7109 1.1445 3.2891 1.1406 3.8125 0.55469 1.8164-0.13281 1.0391-0.078125 1.5586 0.30469 1.0312-0.015625 1.7578-0.62109 2.0312-0.57422 1.9219-0.68359 1.8047-1.8477 1.6367-2.1367 1.1953-1.7422 0.81641-1.9727 0.59375-1.4336 0.75391-1 1.2891-0.074218 1.8047-0.45703 1.4531-0.48438 0.91016-0.63672 0.71094-0.83203 0.41016-1.0156 1.6797-1.6367 1.0156-0.60547 1.0156-0.51562 2.1953 0.27344 2.2422-0.71094 1.1055-0.0625 1.1055 0.57812 1.8164 0.75781 3.1992 1.5742 2 0.39453 3.8906-0.25781 4.7422-1.6836 5.6953-1.2578 4.5 0.85156 1.957 0.42188 1.832 0.39453 1.6797-0.13672 3.1367-1.2266 1.832-2.1055 1.7109-4.1055 0.74219-0.89453 1.3789-0.83203 2.3789-0.41016 1.168-0.45312 1.0117-0.37891 1.7891 0.83203 3.3477-0.95312 1.1953-0.71094 2.9258-2.5469 0.77734-0.62891 1.0117 0.125 1.3359 0.125 1.0586-0.55469 1.1484 0.28125 2.5117 0.52734 1.3359 0.45312 1.4414 0.80859 1.0078 0.25391 1.3867 0.70312 0.91016 0.60938 1.1992-0.13672 1.75-0.37109 1.4414-0.074219 1.4609 0.40234 0.75781 0.68359 0.42969 1.1094 0.83203 1.2109 1.7148 1.0078 1.7148 0.48047 1.1133-0.17578 1.4375-0.50391 1.6641-0.078125 1.1875 0.37891 1.5117-0.125h1.0117l1.0352 0.10156 1.0586 0.14844 1.4023 0.26562 1.5977-0.33984 1.0938-0.22656 1.0781-0.13281 1.0586 0.20703 1.2109 0.20312 2.3242 0.074218 0.83203-0.57812 1.0391-0.21875 1.1797 0.32031 0.85938 0.78125 0.93359-0.73047 1.1094-0.20312 0.73047-0.73047-0.10156-1.0625-0.69141-0.78516 0.023437-1.4102 0.78906-0.64844 1.4336-0.054687 1.2188-1.3555 1.3555-0.67578 1.7617 0.59375 1.1094 0.625 1.0039 0.40625h1.3789l1.1641-0.65234 0.78516-0.89062 0.76172-0.67969 1.1914-0.78516 1.2461-0.35156 1.4336-0.46094 1.625-0.73047 1.1914-0.35156 2.25-0.24609 1.8711-0.13281 1.1094 0.21484" fill="none" stroke="#fff" stroke-linecap="round" stroke-linejoin="round" stroke-miterlimit="10" stroke-width="2"/>
<path d="m287.05 284.91 0.78516 1.0547 0.87891 1.7422 0.56641 2.2656 0.023438 5.1758 0.75 8.5625 1.6211 1.957 0.21875 1.4766 1.3672 2.6797 0.49219 1.9727-0.23828 1.4023 0.0625 1.3477 1.7734 4.0898 1.3359 3.0859 1.5859 0.77734 0.96484 0.47656 1 0.48828 0.76562 1.0234-1.6953 0.42969-1.1523-0.20312-1.2422-0.11328-0.93359 0.53906-1.6328 0.35547-1.0938 0.19922-1.2109 0.085937-1.0977 0.28906-1.5-0.11328-1.2656 0.23047-1.0039 1.2266-0.28125 1.1211 1.0117 0.52734 2.3555-0.023437 1.5938 1.2305 0.99219 0.21875 0.86719-0.95703 0.95312-0.60547 1.4883-0.24609 1.6562 0.054687 1.9766 0.36328 1.8203 1.3906 2.9492 3.2969 1.6484 3.0352 1.1836 1.1133 0.61328 1.2891 0.97656 0.99219 0.55078 0.93359 0.44141 1 0.33594 1.0312 1.2461 0.77344 0.95703 0.40234 0.49609 1.1953 0.54688 0.85156 0.32422 1.125-0.27734 1.2578-0.85156 1.4062-1.0547 1.4453-1.0938 1.5391-0.65625 1.1055-0.37891 1.7109 0.70703 0.76953 0.21484 1.3555-0.16406 1.207-0.035156 1.0078 0.73438 1.2578 0.71484 1.0156 0.82031 0.67578 0.88672 0.52734-0.42969 1.0742-0.98047 0.44922-1.1016 0.16016-1.1211 0.17188-1.0078-0.22656-0.72656 0.82031-0.4375 0.92578-0.63281 0.89844 0.33594 1.1406 0.015625 1.1016 0.011719 1.6406-0.042969 1.6484-0.16797 1.0078-0.48047 1.1445-0.79297 0.9375-0.83203 0.68359-0.34766 1.0938-0.32422 1.0781 0.41016 0.94141 0.56641 1.1211 0.20703 1.1211-0.27734 1.2422-0.039063 1.125 1.1758 0.84766 0.089844 1.1641-0.94922 0.67578-0.81641 0.64062-1.0078 0.21094-1.2031-0.046875-1.3203-0.32031-0.96094-0.70703-0.77734-0.81641-0.9375-0.57422-1.0938 0.33203-1.0547 0.37109-0.92188-0.51562-0.92578 0.46094-0.94141 0.56641-0.90234 0.47266-0.89844 0.62891-1.3867 0.085938-1.0508-0.058594-1.2188 0.43359-0.92188 0.44141-0.82031 0.57812-1.0664 0.89062-0.57812 0.83594 0.23438 1.2891 0.19922 1.0312 0.078125 1.1992 0.011718 1.2109-0.33594 1.0703-0.54297 0.87891-0.66016 0.98047-0.96484 0.47656-1.6914 1.1953-1.1602 0.70703-1.3594 0.5-0.84766 0.62109-0.30078 1.125 0.11719 1.2188 0.18359 1.0391 0.23047 0.99609 0.28906 1.1328 0.75 1.2461 0.39453 1.0664-0.050781 1.0078-0.40625 0.99609-1.0195 0.10156-0.83984-1.6875-0.36328-1.3594-0.51172-1.043-0.83594-0.78516-0.9375-0.51172-1.1211 0.11719-0.99609-0.46875-0.26562-1.0078-0.59766-0.80469-1.4766-0.29688-1.1055 0.21094-0.96484 1.1055-1.1484 0.57812-1.0273 0.066406-0.91406 0.73438-0.16797 0.99219-0.63672 1.5898-0.57031 1.5898-0.011719 1.0156-0.011719 1.0234-0.1875 1.625-0.38281 1.0391-1.1055 0.60938-1.0117 0.32422-1.0664 0.39062-0.93359 0.48828-0.69141 0.82031-0.54297 0.9375-0.41797 1.0508-0.35156 0.94531-0.53125 1.043-0.54297 0.83984-1.3164 1.2422-0.73438 1.1914-0.32422 1.418 0.48438 1.9258 0.16016 1.0703-0.30469 1.4141-0.75391 1.1445-0.37891 0.92969-0.007812 1.2109 0.085937 1.3516 0.32812 1.25 0.35938 1.0391 0.48047 1.207 1.1641 0.97656 0.90625 0.72266 1.6016 1.2812 0.95312 0.77344 0.83984 0.67969 0.80469 1.0859 0.53125 0.85938-0.84766 1.1953-1.3242 0.25781-1.9336-1.5859-1.4102-0.25391-1.8789-0.125-0.63281 0.81641-1.5352 0.26953-1.8984 0.72266-1.0859 1.6289-0.99219 2.8008-1.9883 2.5312-1.2656 1.082-2.168-0.72266h-1.4453l-1.5391 0.45312-1.1758 0.72266-1.4453 1.2656-1.7148 0.72266-3.6172-0.72266-0.8125-1.0859-1.2656-0.8125-1.1758-0.45312-1.625 0.54297-0.90625 1.3555-1.7148 1.3555-1.8086 0.8125-1.4453-0.089844-1.8984 1.0859h-1.8984l-1.8047-0.17969-1.8086 0.35938-1.9883 0.089844-1.1758-0.8125-0.089844-1.3555-1.2656-2.3516-0.36328-1.2617 0.54297-1.9883-4.0117-2.1602h-2.9492l-2.6523 0.55859-5.4297 0.76953-4.1641-0.44141-1.3984 0.61719-1.1094 1.0547-1.3359 1.2734-1.875 0.46094-1.2266-0.57812h-1.1602l-1.6602-0.65234-1.0117-0.21875-1.5195 0.4375h-1.4453l-1.5117-1.332-1.8867-1.707-1.1562-0.66406-1.2773 0.23438-0.83594 0.66406-1.3242 2.1367-0.92578-0.77344-1.9375-1.0469-1.957-1.6211-2.1953-2.2539-1.5156-1.0781-1.6211-1.7734-0.83203-1.2266-1.0156-2.6328-0.17969-1.1367-0.71484-2.3789 0.015625-1.3047 1.0781-1.7422 1.0117-0.96875 1.668-1.0742 0.91016-0.83203 0.57422-1.0469 0.62109-2.3945-0.36328-1.8477-0.36328-2.9219-0.66797-2.4844-1.3008-2.3203-0.36328-1.1484 0.42188-1.6094 1.1367-1.1484 0.72656-1.6211 1.2578-1.6367 0.44141-1.1953 0.71094-1.8633 0.21094-1.2734 0.0625-1 0.4375-1.5742 0.16797-1.4258-0.27344-2.9102-0.31641-2.3906-0.25781-1.1055-0.60547-1.3477-0.28906-1.4883-0.28906-1.4688-0.53125-2.2422-0.074218-1.0273-0.58984-1.9102-0.65234-0.95312-1.5156-1.8047-0.67969-1-0.72656-0.80078-0.73047-1.0156-4.4062-4.8945-0.92578-1.8906-1.875-3.3359-0.87891-2.4688-0.44141-0.90625-0.4375-1.3516-0.51562-1.0742-0.58984-2.3633 0.042969-1.0898 1.4141-6.0117 0.57031-2.4414 1.2891-2.4688 0.16797-1.0859 0.25391-1.3906 3.332-8.0234 1.4102-6.5 1.4531-5.1719 0.8125-0.89844 0.79297-0.87109 1.5391-1.7031 0.86328-0.95312 1.082-1.6016 0.17188-1.3672-1.0195-2.1953 1.3281-1.0117 0.65625-0.96094 0.69922-1.0195 0.75391-0.66016 4.3984-2.0352 2.9531-1.4102 2.4961-1.0234 0.99609-0.6875 1.6875-1.1641 0.96094-0.84766 1.1445-1.0156 1.375-1.4688 1.8828-1.8125 1.1641-0.58594 1.9883-0.99219 4.5664-2.2852 3.6602-0.48828 3.0078 0.81641 1.5195 0.74219 2.457 2.6055 1.1172 1.4375 1.5586 1.6211 1.3633 0.80469 0.83594 0.62109 0.64844 1.1367 0.5625 0.92188 0.69531 1.3789 0.78906 1.1055 0.9375 0.62109 1.7734 0.62109 1.9531 0.95312 2.4688 0.23047 1.9297-0.61719 1.1914-0.59766 1.0625-0.67969 1.6484-0.58984 2.1523-0.37891h1.1523l2.4688 0.64062 1.6055 0.41797 1.0469 0.074218 1.2109-0.058593 1.2734-0.31641 1.7695-0.57812 1.5586-0.73047 1.3672-0.8125 1.3945-1.1055 1.332-1.5 1.9102-1.6367 1.8164-1.6367 1.1797-2.3633 0.66797-0.9375 1.0469-1.2305 1.1055-1.543 0.52344-0.94141 1.5195 0.73828 0.67578 1.6797 2.5273 2.5859 2.5781 3.6992 1.7344 2.207 2.1523 2.0664 4.0859 2.418 1.8906 0.12891 3.1016-0.49219 1.1602-1 1.3633-2.1094 0.77734-1.207 0.80469-1.2461 1.0508-1.6211 0.70703-1.6836-0.10938-1.4297 0.15234-2.0859 1.3164-1.9336 1.8828-1.3477 2.3359-1.375 0.57422-1.0117 1.3906-2.4648 0.79688-1.4062 0.88672-2.2344 0.55859-1.5312 0.41797-1.1406 1.3086-2.4258z" fill="#ccc" fill-rule="evenodd"/>
<path d="m287.05 284.91 0.78516 1.0547 0.87891 1.7422 0.56641 2.2656 0.023438 5.1758 0.75 8.5625 1.6211 1.957 0.21875 1.4766 1.3672 2.6797 0.49219 1.9727-0.23828 1.4023 0.0625 1.3477 1.7734 4.0898 1.3359 3.0859 1.5859 0.77734 0.96484 0.47656 1 0.48828 0.76562 1.0234-1.6953 0.42969-1.1523-0.20312-1.2422-0.11328-0.93359 0.53906-1.6328 0.35547-1.0938 0.19922-1.2109 0.085937-1.0977 0.28906-1.5-0.11328-1.2656 0.23047-1.0039 1.2266-0.28125 1.1211 1.0117 0.52734 2.3555-0.023437 1.5938 1.2305 0.99219 0.21875 0.86719-0.95703 0.95312-0.60547 1.4883-0.24609 1.6562 0.054687 1.9766 0.36328 1.8203 1.3906 2.9492 3.2969 1.6484 3.0352 1.1836 1.1133 0.61328 1.2891 0.97656 0.99219 0.55078 0.93359 0.44141 1 0.33594 1.0312 1.2461 0.77344 0.95703 0.40234 0.49609 1.1953 0.54688 0.85156 0.32422 1.125-0.27734 1.2578-0.85156 1.4062-1.0547 1.4453-1.0938 1.5391-0.65625 1.1055-0.37891 1.7109 0.70703 0.76953 0.21484 1.3555-0.16406 1.207-0.035156 1.0078 0.73438 1.2578 0.71484 1.0156 0.82031 0.67578 0.88672 0.52734-0.42969 1.0742-0.98047 0.44922-1.1016 0.16016-1.1211 0.17188-1.0078-0.22656-0.72656 0.82031-0.4375 0.92578-0.63281 0.89844 0.33594 1.1406 0.015625 1.1016 0.011719 1.6406-0.042969 1.6484-0.16797 1.0078-0.48047 1.1445-0.79297 0.9375-0.83203 0.68359-0.34766 1.0938-0.32422 1.0781 0.41016 0.94141 0.56641 1.1211 0.20703 1.1211-0.27734 1.2422-0.039063 1.125 1.1758 0.84766 0.089844 1.1641-0.94922 0.67578-0.81641 0.64062-1.0078 0.21094-1.2031-0.046875-1.3203-0.32031-0.96094-0.70703-0.77734-0.81641-0.9375-0.57422-1.0938 0.33203-1.0547 0.37109-0.92188-0.51562-0.92578 0.46094-0.94141 0.56641-0.90234 0.47266-0.89844 0.62891-1.3867 0.085938-1.0508-0.058594-1.2188 0.43359-0.92188 0.44141-0.82031 0.57812-1.0664 0.89062-0.57812 0.83594 0.23438 1.2891 0.19922 1.0312 0.078125 1.1992 0.011718 1.2109-0.33594 1.0703-0.54297 0.87891-0.66016 0.98047-0.96484 0.47656-1.6914 1.1953-1.1602 0.70703-1.3594 0.5-0.84766 0.62109-0.30078 1.125 0.11719 1.2188 0.18359 1.0391 0.23047 0.99609 0.28906 1.1328 0.75 1.2461 0.39453 1.0664-0.050781 1.0078-0.40625 0.99609-1.0195 0.10156-0.83984-1.6875-0.36328-1.3594-0.51172-1.043-0.83594-0.78516-0.9375-0.51172-1.1211 0.11719-0.99609-0.46875-0.26562-1.0078-0.59766-0.80469-1.4766-0.29688-1.1055 0.21094-0.96484 1.1055-1.1484 0.57812-1.0273 0.066406-0.91406 0.73438-0.16797 0.99219-0.63672 1.5898-0.57031 1.5898-0.011719 1.0156-0.011719 1.0234-0.1875 1.625-0.38281 1.0391-1.1055 0.60938-1.0117 0.32422-1.0664 0.39062-0.93359 0.48828-0.69141 0.82031-0.54297 0.9375-0.41797 1.0508-0.35156 0.94531-0.53125 1.043-0.54297 0.83984-1.3164 1.2422-0.73438 1.1914-0.32422 1.418 0.48438 1.9258 0.16016 1.0703-0.30469 1.4141-0.75391 1.1445-0.37891 0.92969-0.007812 1.2109 0.085937 1.3516 0.32812 1.25 0.35938 1.0391 0.48047 1.207 1.1641 0.97656 0.90625 0.72266 1.6016 1.2812 0.95312 0.77344 0.83984 0.67969 0.80469 1.0859 0.53125 0.85938-0.84766 1.1953-1.3242 0.25781-1.9336-1.5859-1.4102-0.25391-1.8789-0.125-0.63281 0.81641-1.5352 0.26953-1.8984 0.72266-1.0859 1.6289-0.99219 2.8008-1.9883 2.5312-1.2656 1.082-2.168-0.72266h-1.4453l-1.5391 0.45312-1.1758 0.72266-1.4453 1.2656-1.7148 0.72266-3.6172-0.72266-0.8125-1.0859-1.2656-0.8125-1.1758-0.45312-1.625 0.54297-0.90625 1.3555-1.7148 1.3555-1.8086 0.8125-1.4453-0.089844-1.8984 1.0859h-1.8984l-1.8047-0.17969-1.8086 0.35938-1.9883 0.089844-1.1758-0.8125-0.089844-1.3555-1.2656-2.3516-0.36328-1.2617 0.54297-1.9883-4.0117-2.1602h-2.9492l-2.6523 0.55859-5.4297 0.76953-4.1641-0.44141-1.3984 0.61719-1.1094 1.0547-1.3359 1.2734-1.875 0.46094-1.2266-0.57812h-1.1602l-1.6602-0.65234-1.0117-0.21875-1.5195 0.4375h-1.4453l-1.5117-1.332-1.8867-1.707-1.1562-0.66406-1.2773 0.23438-0.83594 0.66406-1.3242 2.1367-0.92578-0.77344-1.9375-1.0469-1.957-1.6211-2.1953-2.2539-1.5156-1.0781-1.6211-1.7734-0.83203-1.2266-1.0156-2.6328-0.17969-1.1367-0.71484-2.3789 0.015625-1.3047 1.0781-1.7422 1.0117-0.96875 1.668-1.0742 0.91016-0.83203 0.57422-1.0469 0.62109-2.3945-0.36328-1.8477-0.36328-2.9219-0.66797-2.4844-1.3008-2.3203-0.36328-1.1484 0.42188-1.6094 1.1367-1.1484 0.72656-1.6211 1.2578-1.6367 0.44141-1.1953 0.71094-1.8633 0.21094-1.2734 0.0625-1 0.4375-1.5742 0.16797-1.4258-0.27344-2.9102-0.31641-2.3906-0.25781-1.1055-0.60547-1.3477-0.28906-1.4883-0.28906-1.4688-0.53125-2.2422-0.074218-1.0273-0.58984-1.9102-0.65234-0.95312-1.5156-1.8047-0.67969-1-0.72656-0.80078-0.73047-1.0156-4.4062-4.8945-0.92578-1.8906-1.875-3.3359-0.87891-2.4688-0.44141-0.90625-0.4375-1.3516-0.51562-1.0742-0.58984-2.3633 0.042969-1.0898 1.4141-6.0117 0.57031-2.4414 1.2891-2.4688 0.16797-1.0859 0.25391-1.3906 3.332-8.0234 1.4102-6.5 1.4531-5.1719 0.8125-0.89844 0.79297-0.87109 1.5391-1.7031 0.86328-0.95312 1.082-1.6016 0.17188-1.3672-1.0195-2.1953 1.3281-1.0117 0.65625-0.96094 0.69922-1.0195 0.75391-0.66016 4.3984-2.0352 2.9531-1.4102 2.4961-1.0234 0.99609-0.6875 1.6875-1.1641 0.96094-0.84766 1.1445-1.0156 1.375-1.4688 1.8828-1.8125 1.1641-0.58594 1.9883-0.99219 4.5664-2.2852 3.6602-0.48828 3.0078 0.81641 1.5195 0.74219 2.457 2.6055 1.1172 1.4375 1.5586 1.6211 1.3633 0.80469 0.83594 0.62109 0.64844 1.1367 0.5625 0.92188 0.69531 1.3789 0.78906 1.1055 0.9375 0.62109 1.7734 0.62109 1.9531 0.95312 2.4688 0.23047 1.9297-0.61719 1.1914-0.59766 1.0625-0.67969 1.6484-0.58984 2.1523-0.37891h1.1523l2.4688 0.64062 1.6055 0.41797 1.0469 0.074218 1.2109-0.058593 1.2734-0.31641 1.7695-0.57812 1.5586-0.73047 1.3672-0.8125 1.3945-1.1055 1.332-1.5 1.9102-1.6367 1.8164-1.6367 1.1797-2.3633 0.66797-0.9375 1.0469-1.2305 1.1055-1.543 0.52344-0.94141 1.5195 0.73828 0.67578 1.6797 2.5273 2.5859 2.5781 3.6992 1.7344 2.207 2.1523 2.0664 4.0859 2.418 1.8906 0.12891 3.1016-0.49219 1.1602-1 1.3633-2.1094 0.77734-1.207 0.80469-1.2461 1.0508-1.6211 0.70703-1.6836-0.10938-1.4297 0.15234-2.0859 1.3164-1.9336 1.8828-1.3477 2.3359-1.375 0.57422-1.0117 1.3906-2.4648 0.79688-1.4062 0.88672-2.2344 0.55859-1.5312 0.41797-1.1406 1.3086-2.4258 3.3477 0.51953" fill="none" stroke="#fff" stroke-linecap="round" stroke-linejoin="round" stroke-miterlimit="10" stroke-width="2"/>
<path d="m121.62 56.461 3.9922 1.2109 11.301 3.4297 1.3438 1.3477 0.87109 1.7188 1.7305 2.1289 1.5625 1.5742 1.5352 1.9961 0.53906 1.457 0.14453 1.2188-1.0625 3.1562-0.22656 4.082 0.25 2.9961-0.33984 1.0859-0.75 2.3906-1.6562 6.5859-0.10938 2.375-1.2461 3.4922-0.70703 1.9805 0.21484 3.1484 0.21094 3.0938 0.81641 3.2188 0.72656 1.5742 1.4258 2.4688 0.76953 3.5273-0.5 1.293-0.51172 1.332-1.5508 2.3008-1.1133 0.80859-1.4688 1.0664-0.59375 1.9648 0.82031 0.80859 1.9453 1.2539 8.7578 4.0781 2.1523 1.4648 1.9609 1.8984 2.6836 5.0547 1.8945 1.9688 6.4102 4.2656 6.9766 3.582 2.3008 0.92188 4.3086 2.582 4.9492 2.4844 1.5352 1.2461 2.207 2.3242 0.80078 1.3047 1.168 1.8984 1.5703 2.9805 0.82031 1.5547 0.91797 3.7852 0.73438 3.5781 0.32422 1.5781 0.53906 0.96484 0.90625 0.93359 1.7539 2.1484 1.8555 5.0547-0.58984 1.2148-0.97656 0.22266-1.9805 0.44922-1.4023 0.31641-0.88281 1 0.011718 1.3203 1.9414 1.9492 0.70703 1.3203 0.45703 1.8711 1.2656 1.6055 0.57031 1.2773-0.066407 1.1094-0.4375 1.1719 3.1406 3.3906 0.92188 2.082 1.8125 1.2422 0.89453 1.0508-2.4062 1.7031-1.8438 1.1406-1.2109 2.0469-1.4102 0.77344-1.9805 0.67188-1.9805 0.87109-2.168 1.168-0.95312 1.0156-0.94141 0.50391-3.0547 0.19922-1.2148 1.2383-1.0195 1.0352-1.7266 1.7578-2.7266 2.3984-0.16016 2.0664 0.60547 0.80469 1.0742 2.25 0.74219 0.67188 1.0352 0.9375 2.1172 3.1484 0.67188 2.9609 0.32812 1.4531 2.9336 4.8086 1.7461 1.8633 2.4062 2.9375 1.6992 2.0742 0.78906 1.8828 0.65234 2.9375 1.1406 2.4062 0.85938 1.8047 1.2617 3.7812 1.1836 4.9766 0.41016 3.7109 0.65234 2.3242 1.0195 2.4062 0.24219 1.5938 1.1445 4.9336 0.85547 2.4492 0.089844 1.418 0.074219 1.1914 0.81641 2.1211 0.87891 1.0859 0.71094 0.87109 2.0781 3.0195 0.28516 1.6719-0.62891 2.2773-0.14453 2.5352 0.40625 1.4258 3.0078 3.6016 1.6406 4.3242 2.6992 3.0703-1.4219 0.55859-2.2109 0.046875-2.1641-0.89062-2.3359-0.89844-0.9375-0.62109-0.78906-1.1055-0.69531-1.3789-0.5625-0.92188-0.64844-1.1367-0.83594-0.62109-1.3633-0.80469-1.1641-0.80078-0.86328-1.5469-2.7891-3.0742-1.832-0.98438-3.0117-0.81641-3.6602 0.48828-4.5664 2.2852-1.9883 0.99219-1.1641 0.58594-1.8828 1.8125-1.375 1.4688-1.1445 1.0156-0.96094 0.84766-1.6875 1.1641-0.99609 0.6875-2.4961 1.0234-2.9531 1.4102-3.6641 1.5898-1.4883 1.1055-0.69922 1.0195-0.65625 0.96094-1.3281 1.0117-1.8555 0.60547-0.80078 0.89062-0.92188 0.80859-0.98047 0.69141-1.5234 0.17188-1.3867 0.15625-1.2031 0.13672-1.3828-0.035156-1.8438 0.11719-3.4258 0.34375-2.2734 0.80469-1.5547 1.2969-0.32031 1.4414-0.39062 1.7656-0.5 2.2539-1.3477 2.5586-3.1016 2.1133-3.2344 1.5273-2.4219 0.49219-1.2578-0.94141-1.7812-1.918-1.6523-1.4023-1.5078-0.60938-2.8398-0.16406-1.5078 0.91797-1.9766 0.75391-1.5078 1.2227-1.832 1.0039-2.2656 1.6914-3.8789 4.0938-3.1992 2.2656-4.0938 1.6875-4.1367 0.95703-1.0391-0.16797-2.0469-0.75391-2.5117-0.10156-2.375 0.75-1.3672 0.42969-3.8438 0.64844-2.5508 0.60156-1.8086 0.42969-2.0273 0.35938-1.0508 0.1875-3.0352 0.11719-2.0312-1.625-2.8398-3.3047-0.89844-1.2578-0.64453-4.418 0.070312-2.8047-0.28516-3.0547-0.79297-1.9766-2.5547-0.99219-1.0742-0.33594-1.5195-1.3906-1.3555-1.2305-1.2461-2.2422-0.38672-2.5469-0.91797-1.8555-3.125-6.3281-2.5156-4.1328-0.14062-3.8789-0.75781-1.6523-1.1484-1.332-1.9023-1.6133-1.6172-1.6914-0.96094-0.71875-2.4531-0.82422-1.7266-0.50391-2.7305-1.4375-1.9766-0.68359-2.0469-1.3633-4.0586-4.7812-2.7695-2.9102-1.5508-1.4375 0.64844-2.3555 0.50781-1.4609 0.60547-1.1641 0.82422-0.71484 3.0938-2.6875 1.7617-1.2969 1.5977-1.1797 0.36328-2.6914 1.1797-1.4883 1.4453-1.1094 2.5117-1.332 6.668-1.5508 2-0.019532 1.207-0.44922 1.8203-2.125 0.84766-0.98828 2-2.0742 0.59766-1.4023-0.45703-1.3594-1.5625-1.6641-1.6133-2.4219-1.9258-1.8477-2.6602-3.8984-1.4102-2.0664-0.10938-1.3906 1.168-3.3477-0.30469-1.2109-1.1094-1.1562-1.7773-1.1602-2.8125-0.66016-2.1211-1.1758-0.72266-0.94922-0.67969-0.89453-0.80859-1.0586-1.2422-3.3203-1.1641-1.7422 0.90625-1.9023 2.1914-1.3555 1.2578-1.1289 0.83984-1.0977 1.7734-0.71094-0.41797-2.8359-0.050782-1.668 0.85938-2.043 0.67578-1.6133 0.16016-1.6797-0.62891-1.3281-1.3633-1.5156-1.9531-1.0352-1.5547-0.03125 1.0508-3.3242 0.61328-1.3711 1.4961-0.64453 2.8125-1.2109 2.3047-1.3828 1.0938-1.2852 0.64453-1.582 1.2461-0.89453 1.2852-0.92188 1.2109-0.57031 0.60547-1.418 0.050781-2.3516 1.7695-2.8359 2.0898-1.1484 2.2344-0.28125 5.168 0.62109 3.1914 0.76953 2.8516 0.074219 2.2969-0.27734 1.3828-0.72266 1.6875-1.9688 0.79688-1.4844 0.82812-2.3789 0.17188-4.6602 0.70703-2.8789 0.37109-2.4297 0.30078-2.0078-0.48047-1.1758-0.93359-0.75781-2.2656-1-0.70312-1.1602-0.59375-2.2656-0.53906-1.2344 0.49219-2.9062 0.039063-2.0156 0.55078-1.2891 1.3672-3.2031 0.78906-2.7109 0.28516-2.1797 0.007813-2.3984-0.41797-1.7969-0.44141-1.8945-0.14453-1.2617 0.33203-1.418 0.37891-1.6094-0.88281-2.4609 0.03125-2.7148 0.1875-1.2305 0.50781-1.1367 0.3125-2.332-1.6719-3.1562-1.3242-1.7422-1.0195-0.74609-0.85938-0.625-1.5547-0.92969-1.5938-1.5352-1.1914-1.6953-0.54688-1.0508-1.2305-2.3008-0.86719-2.4453-0.89062-2-0.56641-1.5938 0.22266-1.8398 0.78906-2.4414-0.31641-1.3281-1.0391-1.3789-1.1094-1.4727-1.4922-2.9102-0.32422-1.332 0.44531-1.0508 2-1.5898 2.0977-1.8633 1.7188-1.3711 0.92578-1.1914 0.019532-1.6172 1.5977-0.5625 2.3633 0.32031 2.4766 0.92188 2.5156 0.46094 1.6367-0.58594 1.3867-0.83984 3.1445-0.37891 0.80078-0.62891 0.28516-1.2695 0.59375-0.87109 0.63672-0.93359 1.2461-0.30078 3.5352-0.23828 1.4258-0.34375 2.1641-0.52344 2.6562-0.63672 2.3867-0.87891 2.1016-0.95703 1.2734-0.98438 1.4688-1.1367 1.4961-0.87891 1-0.86328 1.2578-1.9844 0.89453-2.0117 0.66797-1.1094 1.3477-1.5586 2.6211-2.332 1.0273-0.92578 0.74219-1.0898 1.207-1.1875 1.3398-1.1445 0.80469-0.83203 0.74219-1.0781 0.76953-0.84766 0.66797-0.96875 1.3633-0.125 1.1055-0.78125z" fill="#0a5394" fill-rule="evenodd"/>
<path d="m121.62 56.461 3.9922 1.2109 11.301 3.4297 1.3438 1.3477 0.87109 1.7188 1.7305 2.1289 1.5625 1.5742 1.5352 1.9961 0.53906 1.457 0.14453 1.2188-1.0625 3.1562-0.22656 4.082 0.25 2.9961-0.33984 1.0859-0.75 2.3906-1.6562 6.5859-0.10938 2.375-1.2461 3.4922-0.70703 1.9805 0.21484 3.1484 0.21094 3.0938 0.81641 3.2188 0.72656 1.5742 1.4258 2.4688 0.76953 3.5273-0.5 1.293-0.51172 1.332-1.5508 2.3008-1.1133 0.80859-1.4688 1.0664-0.59375 1.9648 0.82031 0.80859 1.9453 1.2539 8.7578 4.0781 2.1523 1.4648 1.9609 1.8984 2.6836 5.0547 1.8945 1.9688 6.4102 4.2656 6.9766 3.582 2.3008 0.92188 4.3086 2.582 4.9492 2.4844 1.5352 1.2461 2.207 2.3242 0.80078 1.3047 1.168 1.8984 1.5703 2.9805 0.82031 1.5547 0.91797 3.7852 0.73438 3.5781 0.32422 1.5781 0.53906 0.96484 0.90625 0.93359 1.7539 2.1484 1.8555 5.0547-0.58984 1.2148-0.97656 0.22266-1.9805 0.44922-1.4023 0.31641-0.88281 1 0.011718 1.3203 1.9414 1.9492 0.70703 1.3203 0.45703 1.8711 1.2656 1.6055 0.57031 1.2773-0.066407 1.1094-0.4375 1.1719 3.1406 3.3906 0.92188 2.082 1.8125 1.2422 0.89453 1.0508-2.4062 1.7031-1.8438 1.1406-1.2109 2.0469-1.4102 0.77344-1.9805 0.67188-1.9805 0.87109-2.168 1.168-0.95312 1.0156-0.94141 0.50391-3.0547 0.19922-1.2148 1.2383-1.0195 1.0352-1.7266 1.7578-2.7266 2.3984-0.16016 2.0664 0.60547 0.80469 1.0742 2.25 0.74219 0.67188 1.0352 0.9375 2.1172 3.1484 0.67188 2.9609 0.32812 1.4531 2.9336 4.8086 1.7461 1.8633 2.4062 2.9375 1.6992 2.0742 0.78906 1.8828 0.65234 2.9375 1.1406 2.4062 0.85938 1.8047 1.2617 3.7812 1.1836 4.9766 0.41016 3.7109 0.65234 2.3242 1.0195 2.4062 0.24219 1.5938 1.1445 4.9336 0.85547 2.4492 0.089844 1.418 0.074219 1.1914 0.81641 2.1211 0.87891 1.0859 0.71094 0.87109 2.0781 3.0195 0.28516 1.6719-0.62891 2.2773-0.14453 2.5352 0.40625 1.4258 3.0078 3.6016 1.6406 4.3242 2.6992 3.0703-1.4219 0.55859-2.2109 0.046875-2.1641-0.89062-2.3359-0.89844-0.9375-0.62109-0.78906-1.1055-0.69531-1.3789-0.5625-0.92188-0.64844-1.1367-0.83594-0.62109-1.3633-0.80469-1.1641-0.80078-0.86328-1.5469-2.7891-3.0742-1.832-0.98438-3.0117-0.81641-3.6602 0.48828-4.5664 2.2852-1.9883 0.99219-1.1641 0.58594-1.8828 1.8125-1.375 1.4688-1.1445 1.0156-0.96094 0.84766-1.6875 1.1641-0.99609 0.6875-2.4961 1.0234-2.9531 1.4102-3.6641 1.5898-1.4883 1.1055-0.69922 1.0195-0.65625 0.96094-1.3281 1.0117-1.8555 0.60547-0.80078 0.89062-0.92188 0.80859-0.98047 0.69141-1.5234 0.17188-1.3867 0.15625-1.2031 0.13672-1.3828-0.035156-1.8438 0.11719-3.4258 0.34375-2.2734 0.80469-1.5547 1.2969-0.32031 1.4414-0.39062 1.7656-0.5 2.2539-1.3477 2.5586-3.1016 2.1133-3.2344 1.5273-2.4219 0.49219-1.2578-0.94141-1.7812-1.918-1.6523-1.4023-1.5078-0.60938-2.8398-0.16406-1.5078 0.91797-1.9766 0.75391-1.5078 1.2227-1.832 1.0039-2.2656 1.6914-3.8789 4.0938-3.1992 2.2656-4.0938 1.6875-4.1367 0.95703-1.0391-0.16797-2.0469-0.75391-2.5117-0.10156-2.375 0.75-1.3672 0.42969-3.8438 0.64844-2.5508 0.60156-1.8086 0.42969-2.0273 0.35938-1.0508 0.1875-3.0352 0.11719-2.0312-1.625-2.8398-3.3047-0.89844-1.2578-0.64453-4.418 0.070312-2.8047-0.28516-3.0547-0.79297-1.9766-2.5547-0.99219-1.0742-0.33594-1.5195-1.3906-1.3555-1.2305-1.2461-2.2422-0.38672-2.5469-0.91797-1.8555-3.125-6.3281-2.5156-4.1328-0.14062-3.8789-0.75781-1.6523-1.1484-1.332-1.9023-1.6133-1.6172-1.6914-0.96094-0.71875-2.4531-0.82422-1.7266-0.50391-2.7305-1.4375-1.9766-0.68359-2.0469-1.3633-4.0586-4.7812-2.7695-2.9102-1.5508-1.4375 0.64844-2.3555 0.50781-1.4609 0.60547-1.1641 0.82422-0.71484 3.0938-2.6875 1.7617-1.2969 1.5977-1.1797 0.36328-2.6914 1.1797-1.4883 1.4453-1.1094 2.5117-1.332 6.668-1.5508 2-0.019532 1.207-0.44922 1.8203-2.125 0.84766-0.98828 2-2.0742 0.59766-1.4023-0.45703-1.3594-1.5625-1.6641-1.6133-2.4219-1.9258-1.8477-2.6602-3.8984-1.4102-2.0664-0.10938-1.3906 1.168-3.3477-0.30469-1.2109-1.1094-1.1562-1.7773-1.1602-2.8125-0.66016-2.1211-1.1758-0.72266-0.94922-0.67969-0.89453-0.80859-1.0586-1.2422-3.3203-1.1641-1.7422 0.90625-1.9023 2.1914-1.3555 1.2578-1.1289 0.83984-1.0977 1.7734-0.71094-0.41797-2.8359-0.050782-1.668 0.85938-2.043 0.67578-1.6133 0.16016-1.6797-0.62891-1.3281-1.3633-1.5156-1.9531-1.0352-1.5547-0.03125 1.0508-3.3242 0.61328-1.3711 1.4961-0.64453 2.8125-1.2109 2.3047-1.3828 1.0938-1.2852 0.64453-1.582 1.2461-0.89453 1.2852-0.92188 1.2109-0.57031 0.60547-1.418 0.050781-2.3516 1.7695-2.8359 2.0898-1.1484 2.2344-0.28125 5.168 0.62109 3.1914 0.76953 2.8516 0.074219 2.2969-0.27734 1.3828-0.72266 1.6875-1.9688 0.79688-1.4844 0.82812-2.3789 0.17188-4.6602 0.70703-2.8789 0.37109-2.4297 0.30078-2.0078-0.48047-1.1758-0.93359-0.75781-2.2656-1-0.70312-1.1602-0.59375-2.2656-0.53906-1.2344 0.49219-2.9062 0.039063-2.0156 0.55078-1.2891 1.3672-3.2031 0.78906-2.7109 0.28516-2.1797 0.007813-2.3984-0.41797-1.7969-0.44141-1.8945-0.14453-1.2617 0.33203-1.418 0.37891-1.6094-0.88281-2.4609 0.03125-2.7148 0.1875-1.2305 0.50781-1.1367 0.3125-2.332-1.6719-3.1562-1.3242-1.7422-1.0195-0.74609-0.85938-0.625-1.5547-0.92969-1.5938-1.5352-1.1914-1.6953-0.54688-1.0508-1.2305-2.3008-0.86719-2.4453-0.89062-2-0.56641-1.5938 0.22266-1.8398 0.78906-2.4414-0.31641-1.3281-1.0391-1.3789-1.1094-1.4727-1.4922-2.9102-0.32422-1.332 0.44531-1.0508 2-1.5898 2.0977-1.8633 1.7188-1.3711 0.92578-1.1914 0.019532-1.6172 1.5977-0.5625 2.3633 0.32031 2.4766 0.92188 2.5156 0.46094 1.6367-0.58594 1.3867-0.83984 3.1445-0.37891 0.80078-0.62891 0.28516-1.2695 0.59375-0.87109 0.63672-0.93359 1.2461-0.30078 3.5352-0.23828 1.4258-0.34375 2.1641-0.52344 2.6562-0.63672 2.3867-0.87891 2.1016-0.95703 1.2734-0.98438 1.4688-1.1367 1.4961-0.87891 1-0.86328 1.2578-1.9844 0.89453-2.0117 0.66797-1.1094 1.3477-1.5586 2.6211-2.332 1.0273-0.92578 0.74219-1.0898 1.207-1.1875 1.3398-1.1445 0.80469-0.83203 0.74219-1.0781 0.76953-0.84766 0.66797-0.96875 1.3633-0.125 1.1055-0.78125 3.3164 0.37109" fill="none" stroke="#fff" stroke-linecap="round" stroke-linejoin="round" stroke-miterlimit="10"/>
<path d="m153.6 162.1c0 3.5898-2.9102 6.5-6.5 6.5-3.5898 0-6.5-2.9102-6.5-6.5 0-3.5898 2.9102-6.5 6.5-6.5 3.5898 0 6.5 2.9102 6.5 6.5" fill="#28c028" fill-rule="evenodd" stroke="#000" stroke-linecap="round" stroke-linejoin="round" stroke-miterlimit="10"/>
<path d="m50.723 156.1v-16.469h4.9844l2.9844 11.234 2.9531-11.234h4.9844v16.469h-3.0938v-12.953l-3.2656 12.953h-3.2031l-3.25-12.953v12.953zm19.109 0v-16.469h3.3125v16.469zm6.5 0v-16.469h7c1.7578 0 3.0352 0.15234 3.8281 0.45312 0.80078 0.29297 1.4414 0.82031 1.9219 1.5781 0.47656 0.75 0.71875 1.6172 0.71875 2.5938 0 1.2305-0.36719 2.25-1.0938 3.0625-0.73047 0.80469-1.8203 1.3086-3.2656 1.5156 0.71875 0.41797 1.3125 0.88281 1.7812 1.3906 0.46875 0.5 1.0977 1.3867 1.8906 2.6562l2.0156 3.2188h-3.9688l-2.4062-3.5781c-0.85547-1.2812-1.4375-2.0859-1.75-2.4219-0.3125-0.33203-0.64844-0.5625-1-0.6875-0.35547-0.125-0.91406-0.1875-1.6719-0.1875h-0.67188v6.875zm3.3281-9.5h2.4531c1.5938 0 2.5859-0.066406 2.9844-0.20312 0.39453-0.13281 0.70312-0.36328 0.92188-0.6875 0.22656-0.33203 0.34375-0.75 0.34375-1.25 0-0.55078-0.14844-0.99219-0.4375-1.3281-0.29297-0.34375-0.71094-0.5625-1.25-0.65625-0.27344-0.03125-1.0781-0.046875-2.4219-0.046875h-2.5938zm20.922 3.4531v-2.7812h7.1719v6.5625c-0.69922 0.66797-1.7109 1.2617-3.0312 1.7812-1.3242 0.50781-2.6641 0.76562-4.0156 0.76562-1.7188 0-3.2188-0.35938-4.5-1.0781-1.2812-0.72656-2.2461-1.7656-2.8906-3.1094-0.64844-1.3438-0.96875-2.8008-0.96875-4.375 0-1.7188 0.35938-3.2422 1.0781-4.5781 0.71875-1.332 1.7695-2.3516 3.1562-3.0625 1.0625-0.55078 2.3789-0.82812 3.9531-0.82812 2.0391 0 3.6328 0.43359 4.7812 1.2969 1.1562 0.85547 1.8945 2.0391 2.2188 3.5469l-3.2969 0.625c-0.23047-0.8125-0.66797-1.4531-1.3125-1.9219-0.63672-0.46875-1.4336-0.70312-2.3906-0.70312-1.4609 0-2.6172 0.46484-3.4688 1.3906-0.85547 0.91797-1.2812 2.2812-1.2812 4.0938 0 1.9609 0.42969 3.4297 1.2969 4.4062 0.86328 0.96875 2.0039 1.4531 3.4219 1.4531 0.6875 0 1.3789-0.13281 2.0781-0.40625 0.70703-0.26953 1.3125-0.60156 1.8125-1v-2.0781zm25.078 6.0469h-3.6094l-1.4375-3.7344h-6.5781l-1.3594 3.7344h-3.5312l6.4062-16.469h3.5156zm-6.1094-6.5156-2.2812-6.1094-2.2188 6.1094zm7.0312 1.1562 3.2344-0.3125c0.19531 1.0859 0.59375 1.8828 1.1875 2.3906 0.59375 0.51172 1.3945 0.76562 2.4062 0.76562 1.0703 0 1.8789-0.22266 2.4219-0.67188 0.53906-0.45703 0.8125-0.98828 0.8125-1.5938 0-0.39453-0.11719-0.72656-0.34375-1-0.23047-0.26953-0.625-0.50391-1.1875-0.70312-0.39844-0.13281-1.2891-0.375-2.6719-0.71875-1.7812-0.44531-3.0312-0.99219-3.75-1.6406-1.0117-0.90625-1.5156-2.0078-1.5156-3.3125 0-0.83203 0.23828-1.6133 0.71875-2.3438 0.47656-0.72656 1.1602-1.2852 2.0469-1.6719 0.89453-0.38281 1.9766-0.57812 3.25-0.57812 2.0625 0 3.6133 0.45312 4.6562 1.3594 1.0508 0.90625 1.6016 2.1172 1.6562 3.625l-3.3281 0.15625c-0.14844-0.84375-0.45312-1.4531-0.92188-1.8281-0.46094-0.375-1.1562-0.5625-2.0938-0.5625-0.96875 0-1.7305 0.20312-2.2812 0.60938-0.34375 0.25-0.51562 0.58984-0.51562 1.0156 0 0.38672 0.16016 0.71875 0.48438 1 0.42578 0.35547 1.4453 0.72656 3.0625 1.1094 1.6133 0.375 2.8047 0.76562 3.5781 1.1719 0.78125 0.40625 1.3906 0.96484 1.8281 1.6719 0.4375 0.71094 0.65625 1.5859 0.65625 2.625 0 0.94922-0.26562 1.8359-0.79688 2.6562-0.52344 0.82422-1.2617 1.4375-2.2188 1.8438-0.96094 0.39453-2.1523 0.59375-3.5781 0.59375-2.0859 0-3.6836-0.47656-4.7969-1.4375-1.1172-0.96875-1.7812-2.375-2-4.2188zm0 0" fill="none" stroke="#fff" stroke-linecap="round" stroke-linejoin="round" stroke-miterlimit="10" stroke-width="2"/>
<path d="m50.723 156.1v-16.469h4.9844l2.9844 11.234 2.9531-11.234h4.9844v16.469h-3.0938v-12.953l-3.2656 12.953h-3.2031l-3.25-12.953v12.953zm19.109 0v-16.469h3.3125v16.469zm6.5 0v-16.469h7c1.7578 0 3.0352 0.15234 3.8281 0.45312 0.80078 0.29297 1.4414 0.82031 1.9219 1.5781 0.47656 0.75 0.71875 1.6172 0.71875 2.5938 0 1.2305-0.36719 2.25-1.0938 3.0625-0.73047 0.80469-1.8203 1.3086-3.2656 1.5156 0.71875 0.41797 1.3125 0.88281 1.7812 1.3906 0.46875 0.5 1.0977 1.3867 1.8906 2.6562l2.0156 3.2188h-3.9688l-2.4062-3.5781c-0.85547-1.2812-1.4375-2.0859-1.75-2.4219-0.3125-0.33203-0.64844-0.5625-1-0.6875-0.35547-0.125-0.91406-0.1875-1.6719-0.1875h-0.67188v6.875zm3.3281-9.5h2.4531c1.5938 0 2.5859-0.066406 2.9844-0.20312 0.39453-0.13281 0.70312-0.36328 0.92188-0.6875 0.22656-0.33203 0.34375-0.75 0.34375-1.25 0-0.55078-0.14844-0.99219-0.4375-1.3281-0.29297-0.34375-0.71094-0.5625-1.25-0.65625-0.27344-0.03125-1.0781-0.046875-2.4219-0.046875h-2.5938zm20.922 3.4531v-2.7812h7.1719v6.5625c-0.69922 0.66797-1.7109 1.2617-3.0312 1.7812-1.3242 0.50781-2.6641 0.76562-4.0156 0.76562-1.7188 0-3.2188-0.35938-4.5-1.0781-1.2812-0.72656-2.2461-1.7656-2.8906-3.1094-0.64844-1.3438-0.96875-2.8008-0.96875-4.375 0-1.7188 0.35938-3.2422 1.0781-4.5781 0.71875-1.332 1.7695-2.3516 3.1562-3.0625 1.0625-0.55078 2.3789-0.82812 3.9531-0.82812 2.0391 0 3.6328 0.43359 4.7812 1.2969 1.1562 0.85547 1.8945 2.0391 2.2188 3.5469l-3.2969 0.625c-0.23047-0.8125-0.66797-1.4531-1.3125-1.9219-0.63672-0.46875-1.4336-0.70312-2.3906-0.70312-1.4609 0-2.6172 0.46484-3.4688 1.3906-0.85547 0.91797-1.2812 2.2812-1.2812 4.0938 0 1.9609 0.42969 3.4297 1.2969 4.4062 0.86328 0.96875 2.0039 1.4531 3.4219 1.4531 0.6875 0 1.3789-0.13281 2.0781-0.40625 0.70703-0.26953 1.3125-0.60156 1.8125-1v-2.0781zm25.078 6.0469h-3.6094l-1.4375-3.7344h-6.5781l-1.3594 3.7344h-3.5312l6.4062-16.469h3.5156zm-6.1094-6.5156-2.2812-6.1094-2.2188 6.1094zm7.0312 1.1562 3.2344-0.3125c0.19531 1.0859 0.59375 1.8828 1.1875 2.3906 0.59375 0.51172 1.3945 0.76562 2.4062 0.76562 1.0703 0 1.8789-0.22266 2.4219-0.67188 0.53906-0.45703 0.8125-0.98828 0.8125-1.5938 0-0.39453-0.11719-0.72656-0.34375-1-0.23047-0.26953-0.625-0.50391-1.1875-0.70312-0.39844-0.13281-1.2891-0.375-2.6719-0.71875-1.7812-0.44531-3.0312-0.99219-3.75-1.6406-1.0117-0.90625-1.5156-2.0078-1.5156-3.3125 0-0.83203 0.23828-1.6133 0.71875-2.3438 0.47656-0.72656 1.1602-1.2852 2.0469-1.6719 0.89453-0.38281 1.9766-0.57812 3.25-0.57812 2.0625 0 3.6133 0.45312 4.6562 1.3594 1.0508 0.90625 1.6016 2.1172 1.6562 3.625l-3.3281 0.15625c-0.14844-0.84375-0.45312-1.4531-0.92188-1.8281-0.46094-0.375-1.1562-0.5625-2.0938-0.5625-0.96875 0-1.7305 0.20312-2.2812 0.60938-0.34375 0.25-0.51562 0.58984-0.51562 1.0156 0 0.38672 0.16016 0.71875 0.48438 1 0.42578 0.35547 1.4453 0.72656 3.0625 1.1094 1.6133 0.375 2.8047 0.76562 3.5781 1.1719 0.78125 0.40625 1.3906 0.96484 1.8281 1.6719 0.4375 0.71094 0.65625 1.5859 0.65625 2.625 0 0.94922-0.26562 1.8359-0.79688 2.6562-0.52344 0.82422-1.2617 1.4375-2.2188 1.8438-0.96094 0.39453-2.1523 0.59375-3.5781 0.59375-2.0859 0-3.6836-0.47656-4.7969-1.4375-1.1172-0.96875-1.7812-2.375-2-4.2188z" fill-rule="evenodd"/>
</g>
</svg>
