<?xml version="1.0" encoding="UTF-8"?>
<svg width="500pt" height="425pt" version="1.1" viewBox="0 0 500 425" xmlns="http://www.w3.org/2000/svg">
<g id="a">
<rect width="500" height="425" fill="none"/>
<path d="m263.64 137.65 2.7344 0.35547 1.1797 1.3633 0.86719 1.0039 1.3438 1.7227 1.8594 1.0898 1.5 1.043 1.2227 0.22656 2.6328-0.45312 2.3125-0.58984 1.4961-0.58984h1.1797l1.1367 2.1758 0.81641 3.1289 0.089844 1.9062-0.63672 2.2695-0.72656 1.7227-0.51953 2.2109 0.18359 1.8281 0.44531 1.8047 0.21484 1.1719 0.42578 3.1094 0.14844 1.6172-0.18359 1.8945-0.30469 1.7969-0.58203 3.1797-0.30078 2.9297-0.13672 1.5312-1.0586 2.1406-1.793 1.9688-1.9648 1.8672-1.9453 1.4688-2.5742 1.9531-2.0742 2.1094-1.1797 2.1211-1.3516 2.9453-0.73438 2.7031-1.6211 3.1836-1.8281 2.5195-0.78125 0.75-1.4102 1.3438-2.5234 2.4102-2.1133 2.9297-0.5 1.0508-1.3438 2.0508-0.41406 1.0156-0.56641 2.3164-1.1641 2.5039-1.1367 0.95703-0.82422 1.5312-0.52734 1.0938-2.6016 3.3906-0.33984 1.2812-1.2422 2.0742-1.9219 1.9961-1.1445 0.96484-4.7344 2.8398-4.1055 0.49219-2.6641-0.10156-1.9727-0.61719-1.3672 0.035156-1.9375 0.39453-2.5156-0.46875-3.5039 0.03125-2.3594-0.26172-1.3945-0.019531-2-0.14062-2.1016 1.4766-3.1016 2.1562-2.1641 0.81641-1.3516 0.79688-1.0977-1.875-1.0664-0.96484-1.5508-1.0781-1.0742-1.3594-1.0859-1.3086-1.2031-0.71484-1.5742-0.78516-1.5352-1.6523 0.19922-2.2656 0.34766-1.4492-0.16406-1.2188-0.12891-1.0547-0.98828-2.9102-0.41406-1.2266-0.17578-1.0547-0.089844-1.0547-0.17188-1.0664-0.83203-1.1719-1.1367-0.74609-1.0352-0.24609-1.4023-0.03125-1.25-0.019531-1.3281 0.26562-1.9258 1.3398-1.332 1.5898-1.7773 1.3398-2.2617 0.28906-1.2227 0.16016-2.3242 0.30078-1.9062 0.097656-1.8438 0.46875-1.7656 0.62891-1.9219 1.1367-1.9609 0.94141-3.0195 0.46875-1.8789-0.11719-2.3008-0.050781-1.6914-0.24609-0.77344 1.3047-0.59766 2.1562-0.18359 1.293 0.19531 1.2617 0.84766 1.4492 0.21875 1.0898 0.51172 1.1172 0.59766 0.86328 0.39062 1.1289 0.35938 1.9609 0.50391 1.0781 0.86719 0.93359-0.042969 1.4141-0.82422 0.9375-1.1328 0.41406-2.0859 0.42969 0.72656 0.78906 0.66406 1.8828 1.2617 0.81641 1.1523-0.17578 2.1445 0.56641 1.6953 1.2852 1.1328 0.41016 1.3047 1.5703 0.52344 0.95703 0.70703 1.0312 0.80078 0.80078-2.5664 1.0977-2.4961 1.3516-2.1523 1.5938-1.1758 1.0117-1.375 0.95312-0.77734 0.85547-0.73047 0.80469-1.2852 1.0898-1.168 1.3242-2.4844 0.78516-0.87109 0.69531-1.2773 1.082-2.2734 2.5312-1.9531 1.918-0.96094 0.59766-1.7031 0.35547-0.94531 1.6953 0.39844 1.3906-0.058593 1.2695-0.60938 2.3828-0.49609 2.6016-0.71875 1-1.0117 1.4062-0.95312 1.3242-0.26953 0.98438 1.2734 1.1367 0.57031 4.0273 0.44531 2.0469-0.36719 2.3359v1.7422l-0.30469 2.1914-1.9414 1.7969-2.5312 0.69531-1.4531 1.3633-0.73828 0.69141-0.50391 1.2383-0.3125 2.1094-0.007813 3.4844-0.23438 1.8008-0.98047 1.7578-0.80078 1.4375-1.0938 1.957 0.12891 1.9844 0.36719 2.7031-1.1445 0.91797-1.7422 0.77734-1.0664 1.0273-0.55859 1.9805-1.1133 2.375-3.082 0.76172-0.85938 0.95703-1.707 2.3867-0.875 0.90625-1.3438 2.7031-1.4922 0.5625-2.4805 0.09375-3.9062 0.14062-2.0039 0.22656-1.4492 0.16016-1.0703 0.57031-1.8828 1.0078-2.0273 1.0898-1.668-0.44922-1.2305-1.3203-1.1875-1.2695-1.1289-1.2109-1.9258-2.0625-1.7969-0.23828-1.9609 0.44922-3.918 2.4141-2.7422 1.0547-1.5391 0.30078-4.1289-0.03125-1.2852-0.56641-1.2148-0.70703-1.4141-0.12891-2.543-0.22656-2.707-0.37891-1.1641 0.20312-1.918 1.2344-1.4375 1.1875-1.2109 0.36328-1.3906-0.26172-1.6914-0.65625-1.2148-0.75781-1.8906-0.80859-3.8164-1.7656-1.2109-0.20312-2.5 0.25391-1.0352-0.65625-0.83203-1.9727-0.83594-1.4883-1.0352-0.60547-1.3867-0.25391-1.5664-0.60547-2.3242-0.62891-3.5078-1.8203-1.2305-0.45703-0.23828-2.1719 1.5195-1.9375 0.36719-1.9609-0.13281-2.4609-0.3125-2.25 0.41797-1.4922-3.4805-4.918-0.39062-1.6484-0.47266-1.3867-1.0977-1.8555-1.5898-1.4219-3.8789-2.9219-2.8242-0.94141-2.2656-1.3984 3.7578-1.8086 4.2969-1.8477 1.6953-1.7344 2.2227-0.64062 2.3008-1.0156 2.0625-2.2852 0.72266-1.6719 0.49219-1.1289 1.1055-1.668 1.0273-0.39453 2.0195-0.57031 1.3867-0.51562 1.957-1.0547 2.2773-0.93359 1.6719-1.8672 0.97656-1.0938 1.5273-0.9375 1.3945-0.55078 1.4688-2.1211 0.48047-2.082-0.39062-1.7773 0.30078-1.957-0.23047-2.1836-0.35547-1.4219-0.50391-1.2266 0.13281-1.3555 0.46484-1.5977 0.49219-1.5547 1.0586-2.0352 0.26953-1.1211 0.12109-1.9023 0.47266-1.7344 0.41797-1.5312 0.48047-2.3516-0.078125-2.0117 1.8203-2.0234 1.0195-0.32812 0.55859-2.4219-0.10547-0.99609-0.20703-1.9883 0.13281-1.7734-0.21484-1.6445 0.49219-1.7812 1.9297-0.78516 2.9805-0.69922 1.8594-0.4375 0.92188-1.6289 0.41797-1.5117 0.38672-1.3945 0.66406-1.1328 0.83984-0.84766 1.0742-1.0859 0.86719-0.57812 4.332-1.8359 1.6367-0.17969 3.5977 0.070312 2.0312 0.035156 1.7188 0.035157 3.2812 1.0234 2.2461 0.5 2.7148 0.73047 2.582 0.88672 1.0625 0.69141 1.6602 0.40234 1.6953-0.30469 2.4805-0.59766 1.3633-0.41016 1.9805-0.35547 1.1758-0.45703 1.1914-0.91406 1.1562 0.37109 1.625 0.23047 2.3711 0.65625 1.9141 0.30859 1.543-0.34766 1.6172-2.3203 2.0625-2.2344 1.5703-0.74219 2.1602 0.34766 1.2969 0.12109 1.418-0.66406 1.5195-0.039063 0.91406 1.582 0.64062 0.97266 1.4961-0.21875 1.1836-0.25 0.94922 0.34375 1.1172 0.015625 1.8711-0.55469 0.70703-0.85938 2.4375-1.7305 2.3828-0.96875 2.375-0.34766 2.043-0.58984 1.7109-0.72656 1.793-1.1016 0.87109-2.5547 0.69922-1.6758 0.51953-2.3516-0.21484-1.4492 0.050781-1.1836 0.13281-1.2734 0.32812-1.6758 0.82422-1.9023 2.1758-1.8945 1.3203-1.5508 2.0664-1.9727 2.6484-0.82812 1.3203-0.13281 1.2539-1.3477 1.4141-0.76172 1.4102-0.76172 1.9805-1.9453 1.6797-1.6523 2.5469-2.5 1.8125-1.7812 1.3203-0.98828 2.6055-1.0547 2.1992-1.5781 2.7812-1.6523 1.7461-2.4102 1.6484-3.5273 0.66016-2.6367 1.3164-0.98828 4.0898-1.3867 1.7891-0.82422 1.5586-1.1875 2.2891-1.7461 2.7695-2.1094 1.2891-0.62891 1.1875 0.13281 1.6992 0.84375 1.4297 1.0039 1.1484 0.80469 1.6875 0.41406 2.1445 0.52734 1.5117 0.066407 1.6523-0.86328 1.5586-1.668 2.1562-2.3008 1.3438-1.168 1.5391-1.3359 3.6211-3.1406 2.3672-2.918 1.9492-1.4727 1.2539-0.40625 2-0.64453 2.6992-0.6875 2.9258-2.125 2.1289-0.77344 3.7656-1.1758 2.5859-0.36328 3.4961-0.68359 2.0391-1.1797 2.3125-0.54297 2.2227-0.36328 1.6797-0.042969z" fill="#ccc" fill-rule="evenodd"/>
<path d="m263.64 137.65 2.7344 0.35547 1.1797 1.3633 0.86719 1.0039 1.3438 1.7227 1.8594 1.0898 1.5 1.043 1.2227 0.22656 2.6328-0.45312 2.3125-0.58984 1.4961-0.58984h1.1797l1.1367 2.1758 0.81641 3.1289 0.089844 1.9062-0.63672 2.2695-0.72656 1.7227-0.51953 2.2109 0.18359 1.8281 0.44531 1.8047 0.21484 1.1719 0.42578 3.1094 0.14844 1.6172-0.18359 1.8945-0.30469 1.7969-0.58203 3.1797-0.30078 2.9297-0.13672 1.5312-1.0586 2.1406-1.793 1.9688-1.9648 1.8672-1.9453 1.4688-2.5742 1.9531-2.0742 2.1094-1.1797 2.1211-1.3516 2.9453-0.73438 2.7031-1.6211 3.1836-1.8281 2.5195-0.78125 0.75-1.4102 1.3438-2.5234 2.4102-2.1133 2.9297-0.5 1.0508-1.3438 2.0508-0.41406 1.0156-0.56641 2.3164-1.1641 2.5039-1.1367 0.95703-0.82422 1.5312-0.52734 1.0938-2.6016 3.3906-0.33984 1.2812-1.2422 2.0742-1.9219 1.9961-1.1445 0.96484-4.7344 2.8398-4.1055 0.49219-2.6641-0.10156-1.9727-0.61719-1.3672 0.035156-1.9375 0.39453-2.5156-0.46875-3.5039 0.03125-2.3594-0.26172-1.3945-0.019531-2-0.14062-2.1016 1.4766-3.1016 2.1562-2.1641 0.81641-1.3516 0.79688-1.0977-1.875-1.0664-0.96484-1.5508-1.0781-1.0742-1.3594-1.0859-1.3086-1.2031-0.71484-1.5742-0.78516-1.5352-1.6523 0.19922-2.2656 0.34766-1.4492-0.16406-1.2188-0.12891-1.0547-0.98828-2.9102-0.41406-1.2266-0.17578-1.0547-0.089844-1.0547-0.17188-1.0664-0.83203-1.1719-1.1367-0.74609-1.0352-0.24609-1.4023-0.03125-1.25-0.019531-1.3281 0.26562-1.9258 1.3398-1.332 1.5898-1.7773 1.3398-2.2617 0.28906-1.2227 0.16016-2.3242 0.30078-1.9062 0.097656-1.8438 0.46875-1.7656 0.62891-1.9219 1.1367-1.9609 0.94141-3.0195 0.46875-1.8789-0.11719-2.3008-0.050781-1.6914-0.24609-0.77344 1.3047-0.59766 2.1562-0.18359 1.293 0.19531 1.2617 0.84766 1.4492 0.21875 1.0898 0.51172 1.1172 0.59766 0.86328 0.39062 1.1289 0.35938 1.9609 0.50391 1.0781 0.86719 0.93359-0.042969 1.4141-0.82422 0.9375-1.1328 0.41406-2.0859 0.42969 0.72656 0.78906 0.66406 1.8828 1.2617 0.81641 1.1523-0.17578 2.1445 0.56641 1.6953 1.2852 1.1328 0.41016 1.3047 1.5703 0.52344 0.95703 0.70703 1.0312 0.80078 0.80078-2.5664 1.0977-2.4961 1.3516-2.1523 1.5938-1.1758 1.0117-1.375 0.95312-0.77734 0.85547-0.73047 0.80469-1.2852 1.0898-1.168 1.3242-2.4844 0.78516-0.87109 0.69531-1.2773 1.082-2.2734 2.5312-1.9531 1.918-0.96094 0.59766-1.7031 0.35547-0.94531 1.6953 0.39844 1.3906-0.058593 1.2695-0.60938 2.3828-0.49609 2.6016-0.71875 1-1.0117 1.4062-0.95312 1.3242-0.26953 0.98438 1.2734 1.1367 0.57031 4.0273 0.44531 2.0469-0.36719 2.3359v1.7422l-0.30469 2.1914-1.9414 1.7969-2.5312 0.69531-1.4531 1.3633-0.73828 0.69141-0.50391 1.2383-0.3125 2.1094-0.007813 3.4844-0.23438 1.8008-0.98047 1.7578-0.80078 1.4375-1.0938 1.957 0.12891 1.9844 0.36719 2.7031-1.1445 0.91797-1.7422 0.77734-1.0664 1.0273-0.55859 1.9805-1.1133 2.375-3.082 0.76172-0.85938 0.95703-1.707 2.3867-0.875 0.90625-1.3438 2.7031-1.4922 0.5625-2.4805 0.09375-3.9062 0.14062-2.0039 0.22656-1.4492 0.16016-1.0703 0.57031-1.8828 1.0078-2.0273 1.0898-1.668-0.44922-1.2305-1.3203-1.1875-1.2695-1.1289-1.2109-1.9258-2.0625-1.7969-0.23828-1.9609 0.44922-3.918 2.4141-2.7422 1.0547-1.5391 0.30078-4.1289-0.03125-1.2852-0.56641-1.2148-0.70703-1.4141-0.12891-2.543-0.22656-2.707-0.37891-1.1641 0.20312-1.918 1.2344-1.4375 1.1875-1.2109 0.36328-1.3906-0.26172-1.6914-0.65625-1.2148-0.75781-1.8906-0.80859-3.8164-1.7656-1.2109-0.20312-2.5 0.25391-1.0352-0.65625-0.83203-1.9727-0.83594-1.4883-1.0352-0.60547-1.3867-0.25391-1.5664-0.60547-2.3242-0.62891-3.5078-1.8203-1.2305-0.45703-0.23828-2.1719 1.5195-1.9375 0.36719-1.9609-0.13281-2.4609-0.3125-2.25 0.41797-1.4922-3.4805-4.918-0.39062-1.6484-0.47266-1.3867-1.0977-1.8555-1.5898-1.4219-3.8789-2.9219-2.8242-0.94141-2.2656-1.3984 3.7578-1.8086 4.2969-1.8477 1.6953-1.7344 2.2227-0.64062 2.3008-1.0156 2.0625-2.2852 0.72266-1.6719 0.49219-1.1289 1.1055-1.668 1.0273-0.39453 2.0195-0.57031 1.3867-0.51562 1.957-1.0547 2.2773-0.93359 1.6719-1.8672 0.97656-1.0938 1.5273-0.9375 1.3945-0.55078 1.4688-2.1211 0.48047-2.082-0.39062-1.7773 0.30078-1.957-0.23047-2.1836-0.35547-1.4219-0.50391-1.2266 0.13281-1.3555 0.46484-1.5977 0.49219-1.5547 1.0586-2.0352 0.26953-1.1211 0.12109-1.9023 0.47266-1.7344 0.41797-1.5312 0.48047-2.3516-0.078125-2.0117 1.8203-2.0234 1.0195-0.32812 0.55859-2.4219-0.10547-0.99609-0.20703-1.9883 0.13281-1.7734-0.21484-1.6445 0.49219-1.7812 1.9297-0.78516 2.9805-0.69922 1.8594-0.4375 0.92188-1.6289 0.41797-1.5117 0.38672-1.3945 0.66406-1.1328 0.83984-0.84766 1.0742-1.0859 0.86719-0.57812 4.332-1.8359 1.6367-0.17969 3.5977 0.070312 2.0312 0.035156 1.7188 0.035157 3.2812 1.0234 2.2461 0.5 2.7148 0.73047 2.582 0.88672 1.0625 0.69141 1.6602 0.40234 1.6953-0.30469 2.4805-0.59766 1.3633-0.41016 1.9805-0.35547 1.1758-0.45703 1.1914-0.91406 1.1562 0.37109 1.625 0.23047 2.3711 0.65625 1.9141 0.30859 1.543-0.34766 1.6172-2.3203 2.0625-2.2344 1.5703-0.74219 2.1602 0.34766 1.2969 0.12109 1.418-0.66406 1.5195-0.039063 0.91406 1.582 0.64062 0.97266 1.4961-0.21875 1.1836-0.25 0.94922 0.34375 1.1172 0.015625 1.8711-0.55469 0.70703-0.85938 2.4375-1.7305 2.3828-0.96875 2.375-0.34766 2.043-0.58984 1.7109-0.72656 1.793-1.1016 0.87109-2.5547 0.69922-1.6758 0.51953-2.3516-0.21484-1.4492 0.050781-1.1836 0.13281-1.2734 0.32812-1.6758 0.82422-1.9023 2.1758-1.8945 1.3203-1.5508 2.0664-1.9727 2.6484-0.82812 1.3203-0.13281 1.2539-1.3477 1.4141-0.76172 1.4102-0.76172 1.9805-1.9453 1.6797-1.6523 2.5469-2.5 1.8125-1.7812 1.3203-0.98828 2.6055-1.0547 2.1992-1.5781 2.7812-1.6523 1.7461-2.4102 1.6484-3.5273 0.66016-2.6367 1.3164-0.98828 4.0898-1.3867 1.7891-0.82422 1.5586-1.1875 2.2891-1.7461 2.7695-2.1094 1.2891-0.62891 1.1875 0.13281 1.6992 0.84375 1.4297 1.0039 1.1484 0.80469 1.6875 0.41406 2.1445 0.52734 1.5117 0.066407 1.6523-0.86328 1.5586-1.668 2.1562-2.3008 1.3438-1.168 1.5391-1.3359 3.6211-3.1406 2.3672-2.918 1.9492-1.4727 1.2539-0.40625 2-0.64453 2.6992-0.6875 2.9258-2.125 2.1289-0.77344 3.7656-1.1758 2.5859-0.36328 3.4961-0.68359 2.0391-1.1797 2.3125-0.54297 2.2227-0.36328 1.6797-0.042969 2.0859 0.089844" fill="none" stroke="#fff" stroke-linecap="round" stroke-linejoin="round" stroke-miterlimit="10" stroke-width="2"/>
<path d="m189.06 213.92h0.085937l1.6211 0.03125 1.5781 0.25781 1.1367 0.74609 0.83203 1.1719 0.17188 1.0664 0.089844 1.0547 0.17578 1.0547 0.41406 1.2266 0.98828 2.9102 0.12891 1.0547 0.16406 1.2188-0.34766 1.4492-0.53516 1.4883 1.8711 2.4297 1.5742 0.78516 1.2031 0.71484 1.0859 1.3086 0.89844 1.2383 1.7266 1.1992 1.0664 0.96484 0.6875 1.0625 0.40625 1.4961-0.33594 1.6992-0.44922 0.94531-0.36719 0.98828-0.94531 1.1484-0.625 1.3008-0.77734 0.66016-2.1523 1.8203-2.8867 1.0195-2.2539 1.0742-1.1406 0.70312-0.51172 1.4531 0.26562 2.3008 0.30078 2.582-0.41016 1.9219-1.8516 0.38281-1.2305-0.21875-1.1211-0.35938-1.3477-0.21484-3.6992 0.054687-1.0898-0.10938-1.2305-0.82812-0.62109-2.0039-1.8828-1.1953-1.8359-0.28125-1.668-0.035157-1.3594-0.39062-1.1211-1.2852-1.0859-0.90234-1.4922-0.48828-1.9453-0.27734-0.85156-0.82422-0.70703-1.0312-0.52344-0.95703-0.80469-1.1875-1.25-0.62109-1.2305-1.0547-2.5469-0.9375-1.5977 0.14453-0.96875-0.27344-0.55469-1.6328-1.1445-1.5781 2.1016-0.43359 1.1328-0.41406 0.82422-0.9375 0.042969-1.4141-0.86719-0.93359-0.50391-1.0781-0.35938-1.9609-0.39062-1.1289-0.59766-0.86328-0.51172-1.1172-0.21875-1.0898-0.67188-1.0117-0.37109-1.6992 0.18359-1.293 0.59766-2.1562 0.71875-1.3164 1.7461 0.25781 2.3008 0.050781 1.8789 0.11719 3.0195-0.46875 1.9609-0.94141 1.9219-1.1367 1.7656-0.62891 1.8438-0.46875 1.9062-0.097656 2.3242-0.30078 1.2227-0.16016 2.2617-0.28906 1.7773-1.3398 1.332-1.5898 1.1875-0.96094 2.0664-0.64453z" fill="#ccc" fill-rule="evenodd"/>
<path d="m189.06 213.92h0.085937l1.6211 0.03125 1.5781 0.25781 1.1367 0.74609 0.83203 1.1719 0.17188 1.0664 0.089844 1.0547 0.17578 1.0547 0.41406 1.2266 0.98828 2.9102 0.12891 1.0547 0.16406 1.2188-0.34766 1.4492-0.53516 1.4883 1.8711 2.4297 1.5742 0.78516 1.2031 0.71484 1.0859 1.3086 0.89844 1.2383 1.7266 1.1992 1.0664 0.96484 0.6875 1.0625 0.40625 1.4961-0.33594 1.6992-0.44922 0.94531-0.36719 0.98828-0.94531 1.1484-0.625 1.3008-0.77734 0.66016-2.1523 1.8203-2.8867 1.0195-2.2539 1.0742-1.1406 0.70312-0.51172 1.4531 0.26562 2.3008 0.30078 2.582-0.41016 1.9219-1.8516 0.38281-1.2305-0.21875-1.1211-0.35938-1.3477-0.21484-3.6992 0.054687-1.0898-0.10938-1.2305-0.82812-0.62109-2.0039-1.8828-1.1953-1.8359-0.28125-1.668-0.035157-1.3594-0.39062-1.1211-1.2852-1.0859-0.90234-1.4922-0.48828-1.9453-0.27734-0.85156-0.82422-0.70703-1.0312-0.52344-0.95703-0.80469-1.1875-1.25-0.62109-1.2305-1.0547-2.5469-0.9375-1.5977 0.14453-0.96875-0.27344-0.55469-1.6328-1.1445-1.5781 2.1016-0.43359 1.1328-0.41406 0.82422-0.9375 0.042969-1.4141-0.86719-0.93359-0.50391-1.0781-0.35938-1.9609-0.39062-1.1289-0.59766-0.86328-0.51172-1.1172-0.21875-1.0898-0.67188-1.0117-0.37109-1.6992 0.18359-1.293 0.59766-2.1562 0.71875-1.3164 1.7461 0.25781 2.3008 0.050781 1.8789 0.11719 3.0195-0.46875 1.9609-0.94141 1.9219-1.1367 1.7656-0.62891 1.8438-0.46875 1.9062-0.097656 2.3242-0.30078 1.2227-0.16016 2.2617-0.28906 1.7773-1.3398 1.332-1.5898 1.1875-0.96094 2.0664-0.64453 0.40234 0.007812" fill="none" stroke="#fff" stroke-linecap="round" stroke-linejoin="round" stroke-miterlimit="10" stroke-width="2"/>
<path d="m145.39 135.98 2.6172 2.4336 2.6641 0.91797 2.5898 1.1602 1.0352 2.1875 1.5703 1.7305 1.4062 0.92188 1.707 0.625 1.5938 0.11328h1.0625l1.9609 0.55469 0.82422 1.2891-0.27344 2.1641-0.95703 1.3086 0.097656 1-0.85938 0.82422-1.8672 0.73828-0.81641 1.1328-0.22266 1.5469 0.31641 1.2969-1.043 2.9141-0.3125 2.8086-1.7578 2.6055-0.38281 1.4023 0.11719 1.5117 0.38281 1.5859 0.20703 1.2969 0.29297 1.1328 0.42578 1.3711 0.65234 1.1406 0.085938 1.1445-0.10938 1.0859-0.95703 1.4375-1.457 0.93359-1.7188 0.52344-1.5039 0.82812-1.0234 0.097657-1.0234-0.28125-1.2812-0.63281-1.3945-0.30469-1.7969 0.03125-1.1289 0.21875-1.6133 1.2422-1.5664 2.0117-1.9688 1.707-1.9375 2.6133-0.96875 1.0352 0.15234 1.0195-1.1953 1.0781-0.76562 1.5391-0.89453-0.79297-1.5234-1.1719-1.3086-1.0156-1.2539-0.72266-2.0312-1.1797-0.84766-0.60156-1.418-0.47656-1.3281-0.44922-1.2422-0.41797-1.7461-0.58984 0.89453-0.67578 1.3867-1.1367 1.5469-1.7344 0.0625-1.5156-0.15234-1.543 0.39844-1.7305 0.33984-2.7812 1.1133-1.8867 0.43359-1.6055 0.09375-3.6602-0.050781-1.5078 0.22266-1.5312 0.64453-1.832 0.88672-1.332 0.46484-2.3711 2.9688-2.9531 1.5195-1.207 0.33203-1.4766 0.53906-1.6836 0.92969-1.5234-0.019531-1.3086-0.015625-1.0195 0.33203-1.6875 0.87109-1.3242 0.89453-2.0898 0.86719-0.80078 1.3867-0.49219 1.1523-1.4258 1.3516-2.457 0.76562-0.89062 0.9375-0.74219z" fill="#ccc" fill-rule="evenodd"/>
<path d="m145.39 135.98 2.6172 2.4336 2.6641 0.91797 2.5898 1.1602 1.0352 2.1875 1.5703 1.7305 1.4062 0.92188 1.707 0.625 1.5938 0.11328h1.0625l1.9609 0.55469 0.82422 1.2891-0.27344 2.1641-0.95703 1.3086 0.097656 1-0.85938 0.82422-1.8672 0.73828-0.81641 1.1328-0.22266 1.5469 0.31641 1.2969-1.043 2.9141-0.3125 2.8086-1.7578 2.6055-0.38281 1.4023 0.11719 1.5117 0.38281 1.5859 0.20703 1.2969 0.29297 1.1328 0.42578 1.3711 0.65234 1.1406 0.085938 1.1445-0.10938 1.0859-0.95703 1.4375-1.457 0.93359-1.7188 0.52344-1.5039 0.82812-1.0234 0.097657-1.0234-0.28125-1.2812-0.63281-1.3945-0.30469-1.7969 0.03125-1.1289 0.21875-1.6133 1.2422-1.5664 2.0117-1.9688 1.707-1.9375 2.6133-0.96875 1.0352 0.15234 1.0195-1.1953 1.0781-0.76562 1.5391-0.89453-0.79297-1.5234-1.1719-1.3086-1.0156-1.2539-0.72266-2.0312-1.1797-0.84766-0.60156-1.418-0.47656-1.3281-0.44922-1.2422-0.41797-1.7461-0.58984 0.89453-0.67578 1.3867-1.1367 1.5469-1.7344 0.0625-1.5156-0.15234-1.543 0.39844-1.7305 0.33984-2.7812 1.1133-1.8867 0.43359-1.6055 0.09375-3.6602-0.050781-1.5078 0.22266-1.5312 0.64453-1.832 0.88672-1.332 0.46484-2.3711 2.9688-2.9531 1.5195-1.207 0.33203-1.4766 0.53906-1.6836 0.92969-1.5234-0.019531-1.3086-0.015625-1.0195 0.33203-1.6875 0.87109-1.3242 0.89453-2.0898 0.86719-0.80078 1.3867-0.49219 1.1523-1.4258 1.3516-2.457 0.76562-0.89062 0.9375-0.74219 0.63672 0.30078" fill="none" stroke="#fff" stroke-linecap="round" stroke-linejoin="round" stroke-miterlimit="10" stroke-width="2"/>
<path d="m181.02 272.93 0.30469 1.6211 0.70703 1.25 0.77344 0.75 0.90234 0.85156 1.6211 0.82422 2.1016 0.45703 1.3359 0.20703 0.77344 0.84766 0.4375 1.4062 0.32422 1.2383 1.6719 1.6211 0.55078 1.0352 0.66406 1.2578 1.0508 2.4023-0.10156 1.0039 0.27344 1.9688 0.57031 1.4258 0.60938 1.1953 0.52734 1.5273 0.84766 1.3086 1.2773 1.4727 0.93359 1.0781 0.98438 0.66016 0.94531 0.33594 0.73047 0.79688 0.60547 1.1172 0.52734 1.6328 0.26953 1.1719 0.57031 1.8984-0.019532 1.2578-0.55078 0.89453-0.60156 1.2148 0.13281 1.5781 0.48047 1.1523 0.87109 1.4141-2.6797 2.4258-1.5117 0.4375-3.6172 1.4492-1.7461 0.69922-0.96094 0.38281-1.5742 1.3359-1.9805 0.89453-1.0508 0.73828-0.91797 0.64062-0.86328 0.60938-2.2109 0.61328-1.207 0.25781-1.0977-0.054688-1.8906-0.097656-1.5156 0.34766-2.2461 1.9961-1.4844 1.8633-1.8672 1.457-1.3828 1.082-0.71484 0.92969-1.1367 1.2227-1.5156 0.55469-1.7227 0.62891-1.3359 1.875-0.72656 1.75-2.4219 1.8359-1.7188 0.29297-4.1133 0.66406-2.4648 0.31641-1.3789-0.050781-1.8164 0.16016-1.625 0.47266-4.4922-0.70703-2.3359-0.47656-4.668-0.53125-1.6719 0.1875-1.0195 0.11328-2.0039 1.7031-1.8477 2.1641-2.3203 1.0547-1.543 0.69922-0.25 1.1914 1.0547 2.1719-0.10547 2.9023-0.37109 2.7422-1.5312 5.1172-1.7305 1.3672-1.5391-0.36328-1.793-1.2656-1.6367-0.79297-3.957-0.63281-4.0117 0.16016-1.3594-2.2344-0.41016-3.043 0.12891-1.1016 0.31641-2.7383-1.8789-2.2227-2.3516-1.8398-1.3281-0.76562-0.75391-0.89844-2.043-3.7422-1.1953-2.1914 2.0117-1.1172 1.8828-1.0078 1.0703-0.57031 1.4492-0.16016 2.0039-0.22656 3.9062-0.14062 2.4805-0.09375 1.4922-0.5625 0.83594-2.2266 1.3828-1.3828 1.707-2.3867 0.85938-0.95703 3.082-0.76172 1.1133-2.375 0.55859-1.9805 1.0664-1.0273 1.7422-0.77734 1.1445-0.91797-0.36719-2.7031-0.12891-1.9844 1.0938-1.957 0.80078-1.4375 0.875-1.5664 0.33984-1.9922 0.007813-3.4844 0.3125-2.1094 0.50391-1.2383 0.73828-0.69141 1.4531-1.3633 2.5312-0.69531 1.9414-1.7969 0.30469-2.1914v-1.7422l0.36719-2.3359-0.44531-2.0469-0.28125-3.3477-1.5625-1.8164 3.0625 0.53125 1.8828-0.79297 1.1523-0.48828 2.1523-0.90625 1.3125-0.55078 1.2773-1.0703 1.1016-1.1445 1.8789-0.22656 2.8867 0.16016 1.4492-0.078125 1.293 0.10156 2.0039-0.19922 1.5898-0.29297 1.6836-0.57422 1.3945-0.035156 2.4375-0.019531 1.4922-1.2188 0.98828-1.5586 0.78516-1.1523 1.1211-1 1.8281-0.56641 2.4453 0.097656 2.4414 0.011719 1.5-0.19922z" fill="#ccc" fill-rule="evenodd"/>
<path d="m181.02 272.93 0.30469 1.6211 0.70703 1.25 0.77344 0.75 0.90234 0.85156 1.6211 0.82422 2.1016 0.45703 1.3359 0.20703 0.77344 0.84766 0.4375 1.4062 0.32422 1.2383 1.6719 1.6211 0.55078 1.0352 0.66406 1.2578 1.0508 2.4023-0.10156 1.0039 0.27344 1.9688 0.57031 1.4258 0.60938 1.1953 0.52734 1.5273 0.84766 1.3086 1.2773 1.4727 0.93359 1.0781 0.98438 0.66016 0.94531 0.33594 0.73047 0.79688 0.60547 1.1172 0.52734 1.6328 0.26953 1.1719 0.57031 1.8984-0.019532 1.2578-0.55078 0.89453-0.60156 1.2148 0.13281 1.5781 0.48047 1.1523 0.87109 1.4141-2.6797 2.4258-1.5117 0.4375-3.6172 1.4492-1.7461 0.69922-0.96094 0.38281-1.5742 1.3359-1.9805 0.89453-1.0508 0.73828-0.91797 0.64062-0.86328 0.60938-2.2109 0.61328-1.207 0.25781-1.0977-0.054688-1.8906-0.097656-1.5156 0.34766-2.2461 1.9961-1.4844 1.8633-1.8672 1.457-1.3828 1.082-0.71484 0.92969-1.1367 1.2227-1.5156 0.55469-1.7227 0.62891-1.3359 1.875-0.72656 1.75-2.4219 1.8359-1.7188 0.29297-4.1133 0.66406-2.4648 0.31641-1.3789-0.050781-1.8164 0.16016-1.625 0.47266-4.4922-0.70703-2.3359-0.47656-4.668-0.53125-1.6719 0.1875-1.0195 0.11328-2.0039 1.7031-1.8477 2.1641-2.3203 1.0547-1.543 0.69922-0.25 1.1914 1.0547 2.1719-0.10547 2.9023-0.37109 2.7422-1.5312 5.1172-1.7305 1.3672-1.5391-0.36328-1.793-1.2656-1.6367-0.79297-3.957-0.63281-4.0117 0.16016-1.3594-2.2344-0.41016-3.043 0.12891-1.1016 0.31641-2.7383-1.8789-2.2227-2.3516-1.8398-1.3281-0.76562-0.75391-0.89844-2.043-3.7422-1.1953-2.1914 2.0117-1.1172 1.8828-1.0078 1.0703-0.57031 1.4492-0.16016 2.0039-0.22656 3.9062-0.14062 2.4805-0.09375 1.4922-0.5625 0.83594-2.2266 1.3828-1.3828 1.707-2.3867 0.85938-0.95703 3.082-0.76172 1.1133-2.375 0.55859-1.9805 1.0664-1.0273 1.7422-0.77734 1.1445-0.91797-0.36719-2.7031-0.12891-1.9844 1.0938-1.957 0.80078-1.4375 0.875-1.5664 0.33984-1.9922 0.007813-3.4844 0.3125-2.1094 0.50391-1.2383 0.73828-0.69141 1.4531-1.3633 2.5312-0.69531 1.9414-1.7969 0.30469-2.1914v-1.7422l0.36719-2.3359-0.44531-2.0469-0.28125-3.3477-1.5625-1.8164 3.0625 0.53125 1.8828-0.79297 1.1523-0.48828 2.1523-0.90625 1.3125-0.55078 1.2773-1.0703 1.1016-1.1445 1.8789-0.22656 2.8867 0.16016 1.4492-0.078125 1.293 0.10156 2.0039-0.19922 1.5898-0.29297 1.6836-0.57422 1.3945-0.035156 2.4375-0.019531 1.4922-1.2188 0.98828-1.5586 0.78516-1.1523 1.1211-1 1.8281-0.56641 2.4453 0.097656 2.4414 0.011719 1.5-0.19922 0.60938 0.71094" fill="none" stroke="#fff" stroke-linecap="round" stroke-linejoin="round" stroke-miterlimit="10" stroke-width="2"/>
<path d="m227.3 287.68 0.39844 0.55469 1.1602 1.6172 3.7305 4.1367 2.582 2.4062 2.0977 1.7305 2.3086 2.7148 1.6562 2.7266 0.64062 0.78906-1.0312 2.3398-1.6016 1.8281-0.875 0.78125-0.67578 0.86328-1.2617 1.5039-1.4688 1.3047-0.79297 1.4375-0.38281 1.5781-0.71875 1.2188-0.87109 0.72656-1.0977 0.69922-1.7656 2.3594-0.62891 0.96875-0.14844 1.207 0.63281 3.6836 0.26562 1.9609-0.36328 2.4648-0.58984 2.418-1.2148 0.03125-1.2461-2.0547-1.6211-1.9688-1.4766-0.98438-1.918-0.48828-1.4609-0.11328-1.5977 0.058594-2.4414 0.51172-2.8984 0.21094-3.9531 0.55469 0.11328-1.5508 0.26172-1.0938-0.29297-1.1406-0.17188-1.2031-0.20703-1.0938-1.168-0.34375-0.81641-0.75781-0.77344-1.3711-0.26953-1.043-0.10156-1.0586-0.003907-1.8164-1.1094-2.1602-0.88281-1.4297-0.48047-1.1523-0.19531-1.1523 0.66406-1.6406 0.55078-0.89453 0.019532-1.2578-0.57031-1.8984-0.26562-1.1484-0.34375-1.1641-0.79297-1.6094-0.73047-0.79688-0.94531-0.33594 2.2734-1.3906 1.2227-1.8906 1.4727-1.3086 2.9375-0.62891 2.2344-0.38672 1.9648-1.7227 3.707-3.1406 2.6992-1.4062 2.6484-1.3867 3.0938-0.90234z" fill="#ccc" fill-rule="evenodd"/>
<path d="m227.3 287.68 0.39844 0.55469 1.1602 1.6172 3.7305 4.1367 2.582 2.4062 2.0977 1.7305 2.3086 2.7148 1.6562 2.7266 0.64062 0.78906-1.0312 2.3398-1.6016 1.8281-0.875 0.78125-0.67578 0.86328-1.2617 1.5039-1.4688 1.3047-0.79297 1.4375-0.38281 1.5781-0.71875 1.2188-0.87109 0.72656-1.0977 0.69922-1.7656 2.3594-0.62891 0.96875-0.14844 1.207 0.63281 3.6836 0.26562 1.9609-0.36328 2.4648-0.58984 2.418-1.2148 0.03125-1.2461-2.0547-1.6211-1.9688-1.4766-0.98438-1.918-0.48828-1.4609-0.11328-1.5977 0.058594-2.4414 0.51172-2.8984 0.21094-3.9531 0.55469 0.11328-1.5508 0.26172-1.0938-0.29297-1.1406-0.17188-1.2031-0.20703-1.0938-1.168-0.34375-0.81641-0.75781-0.77344-1.3711-0.26953-1.043-0.10156-1.0586-0.003907-1.8164-1.1094-2.1602-0.88281-1.4297-0.48047-1.1523-0.19531-1.1523 0.66406-1.6406 0.55078-0.89453 0.019532-1.2578-0.57031-1.8984-0.26562-1.1484-0.34375-1.1641-0.79297-1.6094-0.73047-0.79688-0.94531-0.33594 2.2734-1.3906 1.2227-1.8906 1.4727-1.3086 2.9375-0.62891 2.2344-0.38672 1.9648-1.7227 3.707-3.1406 2.6992-1.4062 2.6484-1.3867 3.0938-0.90234 2.8867 1.5" fill="none" stroke="#fff" stroke-linecap="round" stroke-linejoin="round" stroke-miterlimit="10" stroke-width="2"/>
<path d="m95.414 165.39 0.61719 0.52734 1.0195 1.1133 0.375 1.207 0.054688 1.1641 0.30469 1.0508 0.27344 1.4648 0.53125 1 0.51562 0.96094 0.88281 2.4883 0.20703 2.8516 0.21875 1.5508 1.0938 1.8672 1.0039 2.3516 1.7461 2.3516 0.44141 1.0859-0.76172 1.9609-1.6875 1.6562-0.78906 1.0859-0.4375 1.3906-0.011719 1.2773-0.22656 1.1758-0.56641 1.0664-0.64844 1.0234 0.27734 1.7773 1.543 1.9141 0.54297 1.0508 0.50781 1.1211 0.73047 2.0391 0.18359 1-0.82812 1.2852-1.7539 0.60547-1.0352 1.0469 0.21094 2.2969-0.085938 1.8086-0.29688 1.2461 0.83594 0.60156 1.1406-0.21875 1.0234 0.46094 0.57031 1 0.81641 0.66406 1.2695 0.17578 2.0234 0.60938 1.2188 0.14844 1.0742 0.22266 1.1328 0.35547-1.1914 0.91797-1.1758 0.45703-1.1914 0.21484-2.1523 0.55078-2.4805 0.59766-1.6953 0.30469-1.6602-0.40234-1.0625-0.69141-2.582-0.88672-2.7148-0.73047-2.2461-0.5-3.2812-1.0234-1.7188-0.035157-2.0312-0.035156-3.5977-0.070312-1.6367 0.17969-3.6523 1.3828-1.5469 1.0312-1.0742 1.0859-0.83984 0.84766-0.66406 1.1328-0.38672 1.3945-0.41797 1.5117-0.63672 1.5625-2.1445 0.50391-2.9805 0.69922-1.1172 0.26562-1.3164 1.3008 0.019531 1.918 0.13281 1.7344 0.050782 1.7891 0.20312 1.9609-0.55469 2.3945-1.0234 0.35547-1.7539 1.25 0.011719 2.7852-0.48047 2.3516-0.41797 1.5312-0.47266 1.7344v1.0195l-0.39062 2.0039-0.87891 1.6953-0.61328 1.5352-0.52344 1.957-0.20703 1.0586 0.25 1 0.51953 1.293 0.39453 2.8359-0.30078 1.957 0.39062 1.7773-0.48047 2.082-1.4688 2.1211-1.3945 0.55078-1.0625 0.41797-1.4414 1.6133-1.6719 1.8672-2.2773 0.93359-1.957 1.0547-1.3867 0.51562-1.1641 0.42969-1.8828 0.53516-1.1055 1.668-0.49219 1.1289-0.72266 1.6719-2.0625 2.2852-2.3008 1.0156-2.2227 0.64062-1.6953 1.7344-4.2969 1.8477-3.7578 1.8086-0.82812-1.0078-1.8086-0.91797-1.5391-1.5586-0.88281-1.0273-0.65234-1.2891-1.0078-1.9922-1.3984-1.9727-1.4453-0.75781-2.0625-0.089844-2.1328 0.066406-1.3086-0.6875-0.12891-1.8789-0.18359-1.2891-0.96094-1.2969-0.93359-1.7422-0.23438-1.2461-2.1289-4.1797-0.625-5.375-0.54297-1.9219-0.18359-0.98828 0.17969-1.0508 0.78125-1.4414 2.0352-1.0703 1.5234-1.7852v-3.9453l0.47656-2.5898 0.65234-1.5703 0.55859-0.99609 1.332-2.2852 1.0195-1.5742 0.63281-1.3516 0.60938-0.96875 0.52344-1.2695 0.13672-1.4375 0.64062-1.7148 4.9492-0.21875 2.8867-0.49609 2.1836-0.46875 1.7383-0.60547 1.0781-0.80078 0.25-1.1328 1.6875-0.39844 1.8555-0.18359 1.7422 0.37109 1.6445 0.34766 0.83984 0.78906 0.98047 0.3125 1.2148-0.023437 1.4375-0.027344 1.1875-0.80078 1.1328-0.9375 0.92188-0.93359 2.0312-1.2969 0.85547-1.0039 1.7305-1.3359 2.1406-3.3828 1.1289-1.3008 3.1133-0.48828 1.2148-0.57422 1.2383-0.875 1.3047-0.44922 1.2148-0.41797 1.3008-0.64062 0.92188-1.4805 0.45703-1.2617 1.1289-2.8203 2.0195-3.5234 0.13281-1.6094 0.23438-4.2344 0.5625-3.1875 0.32031-1.2969 0.25391-1.0195 1.2148-2.6289 1.3086-0.82812 0.83594-0.63281 1.2812-2.4297 0.52734-2.8047 1.4609-3.3828 1.6562-1.6758 2.0898-0.95312 4.0703-0.61328 1.5078-0.67969 1.5898-1.1133 0.83594-1.582 0.69922-1.9336 0.12109-3.2109 0.63672-1.6445 1.9844-1.2969 1.3789-0.86328 2.5625-1.9453 0.98438-0.69531 0.69531-0.94922 0.67188-0.91797 0.52734-0.86719 0.95703-1.043 2.2969-1.6406 1.0742-0.76172z" fill="#ccc" fill-rule="evenodd"/>
<path d="m95.414 165.39 0.61719 0.52734 1.0195 1.1133 0.375 1.207 0.054688 1.1641 0.30469 1.0508 0.27344 1.4648 0.53125 1 0.51562 0.96094 0.88281 2.4883 0.20703 2.8516 0.21875 1.5508 1.0938 1.8672 1.0039 2.3516 1.7461 2.3516 0.44141 1.0859-0.76172 1.9609-1.6875 1.6562-0.78906 1.0859-0.4375 1.3906-0.011719 1.2773-0.22656 1.1758-0.56641 1.0664-0.64844 1.0234 0.27734 1.7773 1.543 1.9141 0.54297 1.0508 0.50781 1.1211 0.73047 2.0391 0.18359 1-0.82812 1.2852-1.7539 0.60547-1.0352 1.0469 0.21094 2.2969-0.085938 1.8086-0.29688 1.2461 0.83594 0.60156 1.1406-0.21875 1.0234 0.46094 0.57031 1 0.81641 0.66406 1.2695 0.17578 2.0234 0.60938 1.2188 0.14844 1.0742 0.22266 1.1328 0.35547-1.1914 0.91797-1.1758 0.45703-1.1914 0.21484-2.1523 0.55078-2.4805 0.59766-1.6953 0.30469-1.6602-0.40234-1.0625-0.69141-2.582-0.88672-2.7148-0.73047-2.2461-0.5-3.2812-1.0234-1.7188-0.035157-2.0312-0.035156-3.5977-0.070312-1.6367 0.17969-3.6523 1.3828-1.5469 1.0312-1.0742 1.0859-0.83984 0.84766-0.66406 1.1328-0.38672 1.3945-0.41797 1.5117-0.63672 1.5625-2.1445 0.50391-2.9805 0.69922-1.1172 0.26562-1.3164 1.3008 0.019531 1.918 0.13281 1.7344 0.050782 1.7891 0.20312 1.9609-0.55469 2.3945-1.0234 0.35547-1.7539 1.25 0.011719 2.7852-0.48047 2.3516-0.41797 1.5312-0.47266 1.7344v1.0195l-0.39062 2.0039-0.87891 1.6953-0.61328 1.5352-0.52344 1.957-0.20703 1.0586 0.25 1 0.51953 1.293 0.39453 2.8359-0.30078 1.957 0.39062 1.7773-0.48047 2.082-1.4688 2.1211-1.3945 0.55078-1.0625 0.41797-1.4414 1.6133-1.6719 1.8672-2.2773 0.93359-1.957 1.0547-1.3867 0.51562-1.1641 0.42969-1.8828 0.53516-1.1055 1.668-0.49219 1.1289-0.72266 1.6719-2.0625 2.2852-2.3008 1.0156-2.2227 0.64062-1.6953 1.7344-4.2969 1.8477-3.7578 1.8086-0.82812-1.0078-1.8086-0.91797-1.5391-1.5586-0.88281-1.0273-0.65234-1.2891-1.0078-1.9922-1.3984-1.9727-1.4453-0.75781-2.0625-0.089844-2.1328 0.066406-1.3086-0.6875-0.12891-1.8789-0.18359-1.2891-0.96094-1.2969-0.93359-1.7422-0.23438-1.2461-2.1289-4.1797-0.625-5.375-0.54297-1.9219-0.18359-0.98828 0.17969-1.0508 0.78125-1.4414 2.0352-1.0703 1.5234-1.7852v-3.9453l0.47656-2.5898 0.65234-1.5703 0.55859-0.99609 1.332-2.2852 1.0195-1.5742 0.63281-1.3516 0.60938-0.96875 0.52344-1.2695 0.13672-1.4375 0.64062-1.7148 4.9492-0.21875 2.8867-0.49609 2.1836-0.46875 1.7383-0.60547 1.0781-0.80078 0.25-1.1328 1.6875-0.39844 1.8555-0.18359 1.7422 0.37109 1.6445 0.34766 0.83984 0.78906 0.98047 0.3125 1.2148-0.023437 1.4375-0.027344 1.1875-0.80078 1.1328-0.9375 0.92188-0.93359 2.0312-1.2969 0.85547-1.0039 1.7305-1.3359 2.1406-3.3828 1.1289-1.3008 3.1133-0.48828 1.2148-0.57422 1.2383-0.875 1.3047-0.44922 1.2148-0.41797 1.3008-0.64062 0.92188-1.4805 0.45703-1.2617 1.1289-2.8203 2.0195-3.5234 0.13281-1.6094 0.23438-4.2344 0.5625-3.1875 0.32031-1.2969 0.25391-1.0195 1.2148-2.6289 1.3086-0.82812 0.83594-0.63281 1.2812-2.4297 0.52734-2.8047 1.4609-3.3828 1.6562-1.6758 2.0898-0.95312 4.0703-0.61328 1.5078-0.67969 1.5898-1.1133 0.83594-1.582 0.69922-1.9336 0.12109-3.2109 0.63672-1.6445 1.9844-1.2969 1.3789-0.86328 2.5625-1.9453 0.98438-0.69531 0.69531-0.94922 0.67188-0.91797 0.52734-0.86719 0.95703-1.043 2.2969-1.6406 1.0742-0.76172 0.30859 0.39453" fill="none" stroke="#fff" stroke-linecap="round" stroke-linejoin="round" stroke-miterlimit="10" stroke-width="2"/>
<path d="m282.6 178.71 0.5 0.77344 0.71875 1.3359 0.96875 1.6602 1.5898 2.0742 0.43359 1.2852 0.027344 3.4961-0.11328 1.4844-0.12891 1.6445 0.59766 2.7461 2.125 2.6289 4.5547 2.2148h1.8945l1.4062-0.20312 2.3594-2.1484 1.3203-0.85547 1.2969-1.0117 1.1016-0.26953 1.4609 0.44922 2.125-0.64453 1.0117-0.54688 1.1641-0.77734 1.3984-0.050781 1.2383 0.57031 1.3789 0.95703 1.8672 1.2969 1.375 0.28516 1.2695 0.050781 1.7344 0.23438 1.2305 0.47266 1.3359 0.66797 0.67188 0.77734-0.73047 2.082-0.67969 1.293-0.78125 1.1445-0.69531 2.2188-0.34766 1.3633 0.21484 1.2578 0.46484 1.2109 0.42969 1.957 0.59766 1.9414 1.0156 1.0625 1.9023 0.59375 1.6758 0.31641 1.2812 0.035157 2.0508-0.31641 1.043-0.23438 1.1953-0.34766 1.293-0.11719 1.7148 0.40625 1.1562-0.55078 1.3672-0.35547 1.0938-0.22266 1.2695-0.51953 1.4219-0.41406 1.2344-0.94922 0.71875-0.85156 1.4414-0.77734 2.3672-0.58984 2.3711-0.33203 1.5273-0.40625 1.1953-0.14844 1.418-0.32422 1.2109-0.37891 2.0078 0.58984 1.0859 0.33203 1.207 0.48047 1.7383 0.96484 1.6055 1.1406 1.4805 0.88672 1.4414 0.56641 0.89062 0.625 1.1523 0.66406 1.2305 0.90625 1.2891 0.53125 2.3398 1.0859 1.2773 1.375 1.2461 1.043 1.0039 1.3242 1.7812-0.11328 1.1914-0.19141 1.6367-0.39062 1.2812 0.33594 1.1836 0.17578 2.5664 0.93359 2.2109 0.44141h1.1172l2.0664-0.33594 1.6641 0.070312 1.3242-0.035156 1.0039-0.21094 1.0625-0.41406 1.0117-0.18359 2.3516-1.5703 1.1992-0.70703 2.1367 1.0391 1.3438 1.2148 2.2227 1.7188 1.4883 0.77734 1.7422 0.91016 1.043 0.78125 0.92578 1.3594 1.1367 1.418 0.75781 1.3438 1.0977 1.6875 1.7812 0.88672 2.1367 0.60547 1.0977 0.49219 0.92969 0.60938 1.2695 1.2109 1.25 0.75781 2.5352 0.55859 1.6758 0.050782 1.3555-0.28906 1.6836-0.92578 2.4414-0.53125 0.98438 0.24609 1.0938 1.0195 3.1953 1.1562 1.4375 0.92969 1.0781 0.69531 1.2109 0.78125 1.625 0.64844 1.0312 0.24219 0.94141 0.50391 1.2695 0.55078 1.5078-0.082031 3.7383 2.25 1.4141 0.82422 1.9727 0.70703 0.94922 0.73047 1.457 1.3789 2.1797 1.4023 1.3047 0.54297 2.2109-0.078125 1.0234-0.21484 1.2969-0.27344 1.668-0.64844 0.96875-0.30078 2.1172 0.89062 3.4453 1.668 1.582 1.043 1.4219 0.55469 2.9805 1.5156 3.0352 2.0586 6.3398 2.2227 2.6562 1.1367 0.8125 1.7344-0.078125 3.4258 0.12109 2.207 0.085938 1.5078 0.0625 1.1484 0.53125 1.3711 0.92188 1.0078 3.1367 1.8555 1.4766 1.0352 0.23828 1.8125 0.46094 1.4922 0.44531 0.90625-1.1016 1-1.6484 0.51562-1.8125 0.69531-1.5156 0.51172-1.3125 1.0078-1.2852 1.457-0.51172 0.92188-0.074219 1.5898-0.28906 1.1523-1.3711 1.793-0.4375 1.6211-0.03125 1.5625-0.019531 1.1562-0.21484 1.4844-1.0938 2.1016-0.97656 1.6914-0.73047 0.74609-0.70703 0.72266-0.76562 1.1758-0.38281 1.2227-0.69922 1.168-0.59766 0.89062-1.9141 0.85547-1.6445-0.054687-1.3867-0.125-1.2188-0.25781-1.2773-0.35547-1.7617-1.0898-1.25-0.76953-1.6289-1.3672-1.3945-1.1719-0.97266-1.4219-0.73047-1.5586 0.24609-3.543 0.81641-2.3008 0.76172-1.625-1.1406-1.5898-0.4375-1.1641-0.83594-0.93359-1.4062-1.3945-0.89062-1.3711-0.67578-1.2383-0.55469-0.83984-1.4883-1.0547-0.46875-0.98047 0.25-1.1406-0.20703-1.5898-1.9688-2.9805-2.0234-3.6055-2.4609-3.8711-1.1523-1.2188-2.2227-1.7305-1.4883-0.81641-1.5664-0.70703-2.375-1.2422-2.4453-1.3477-0.99219-0.34766-2.2734-1.7539-1.5352-0.98828-2.0664-1.5039-2.5156-0.82812-1.543-1.0742-1.1211-0.17578-1.0234-0.48828-2.2422-0.74219-1.0781-0.14062-1.3047-0.80469-1.5469 0.074219-1.0547 0.64453-1.2734-0.078125-2.0781-1.1406-1.0781-0.60938-1.1953-0.57812-1.3047-0.66406-1.0469-1.2383-0.5-0.88281-0.78516-0.84766-1.0859-0.054687-0.94531 0.53125-1.6992-0.019531-2.1758-0.71875-2.4492 0.074218-1.4492 0.21875-1.9805-0.15234-0.93359 0.38281-1.7969 0.69531-2.2422 0.60938-1.5664-0.042969-1.2305-0.011719-1.0742 0.23828-2.5703 2.1875-0.94531 0.76172-1.6094 1.4922-1.6016 0.82812-2.8945 1.1641-1.4375 0.23828h-1.6211l-1.75 0.79297-1.0859 0.65625-1.2344 0.37891-1.1641 0.12109-0.97656 0.32422-2.3086 0.55469-1.0898 0.46875-1.9453 0.92578-1.6992 1-1.4023 0.75-2.0156 0.49219-1.9336 1.2188-0.70703 0.70703-1.1445 0.87891-1 0.62109-1.0469 0.33984-1.4141 0.10547-1.0117 0.15234-1.6445 0.64453-1.2617 0.84766-2.6328 0.26172-3.8633 0.64062-1.543 0.74219-1.0664 0.35938-3.0273 1.3477-1.1211 0.63281-2.0781 0.83594-0.94922 0.51562-1.5625 1.0742-1.3164 0.37891-2.0273-0.40234-1.5 0.15234-1.043 0.71875-0.91406 1.1758-3.5508 0.26172-1.2383-0.066407-1.3164-0.15234-1.1758 0.5-2.7734 1.4375-1.5898 1.2617-1.5234 0.77344-1.7422 0.46875-2.9922 2.6328-1.0352 0.60938-1.5977 1.6094-1.3828 1.2734-0.93359 0.37109-1.3281 0.41406-1.2734 0.11719-2.0898 0.34766-1.5039 0.90625-1.2266 1.4883-1.0234 0.71875-1.5039 0.55469-0.87109 1.1992-0.51172 1.207-0.86719 1.0664-1.8945 0.77344-1.1211 0.30469-1.043 0.62891-1.1875 1.1445-0.37109 1.4141-0.042969 1.4688-0.58594 1.043-1.5586 0.14453-1.3789 0.40234-1.1562 0.51953-1.3477 2.1562-1.0117 1.8711-0.65234 1.207-0.90625 0.70703-1.3477 0.37109-1.5664-0.87109-2.0039 0.042969-3.0781 1.4805-1.3711 0.5-0.92578 0.65625-0.89062 1.0117-0.79688 0.76172-1 0.35938-1.6016 0.20703-2.3906 0.20312-1.4062-0.50781-1.0117-0.38281-0.84766-1.4453-1.0898-1.1562-0.57422-0.92578-0.89453-1.8164-1.0859-1.9805-0.60156-1.3477-0.30469-0.95703-0.007812-2.1133 0.097656-1.2617-0.76172-2.7109-0.71875-1.2188-1.3281-0.51172-1.3281-0.89062-1.2109-1.6797-2.2617 2.9492-1.1523 2.7812-0.81641 2.7148-0.74609 2.6445-0.94922 3.3906-2.3047-3.457-2.3086-2.7148-1.3359-1.1016-3.3438-3.0352-3.7305-4.1367-1.1602-1.6172-2.5586-2.1758-3.8203 1.0234-2.6484 1.3867-2.6992 1.4062-3.707 3.1406-1.9648 1.7227-1.793 0.29297-3.3789 0.72266-1.4727 1.3086-1.2227 1.8906-2.2734 1.3906-0.98438-0.66016-0.93359-1.0781-1.2773-1.4727-0.84766-1.3086-0.52734-1.5273-0.60938-1.1953-0.38672-0.97266-0.45703-2.4219 0.10156-1.0039-0.67188-1.6914-1.043-1.9688-0.55078-1.0352-1.625-1.5703-0.37109-1.2891-0.4375-1.4062-0.77344-0.84766-1.3359-0.20703-1.2617-0.14062-2.4609-1.1406-0.90234-0.85156-0.77344-0.75-0.70703-1.25-0.30469-1.6211 0.097656-1.0664-2.207 0.55469-1.875 0.085938-3.0117-0.19531-1.3164 0.26172-1.6328 1.3047-0.67578 0.83594-0.88281 1.3281-1.1953 1.4805-2.0117 0.39062-2.332-0.050782-1.6836 0.57422-1.5898 0.29297-2.0039 0.19922-1.293-0.10156-1.4492 0.078125-2.2734-0.042969-1.6055-0.30078-1.9883 1.5547-1.2773 1.0703-1.3125 0.55078-1.3789 0.58203-1.9258 0.8125-1.1406 0.48047-3.8047-0.21875 0.26953-0.98438 0.95312-1.3242 1.0117-1.4062 0.71875-1 0.49609-2.6016 0.44922-1.7695 0.21875-1.8828-0.39844-1.3906 0.58203-1.3828 2.0664-0.66797 0.96094-0.59766 1.9531-1.918 1.5898-1.8906 1.1797-1.1016 1.6523-1.3164 2.4844-0.78516 1.168-1.3242 1.2852-1.0898 0.73047-0.80469 0.77734-0.85547 1.375-0.95312 1.1758-1.0117 2.1523-1.5938 1.7383-0.95703 3.3398-1.4766 1.9805 0.28516 1.4922 0.48828 1.0859 0.90234 1.1211 1.2852 1.3594 0.39062 1.668 0.035157 1.4023 0.15234 1.8047 0.91406 1.0781 1.5664 0.54688 1.4023 1.8281 0.38281 3.6992-0.054687 1.3477 0.21484 1.1211 0.35938 1.2305 0.21875 1.1328-0.10938 1.1016-1.2695-0.27344-3.5078-0.26562-2.3008 0.51172-1.4531 1.1406-0.70312 2.2539-1.0742 2.8867-1.0195 2.1523-1.8203 0.77734-0.66016 0.625-1.3008 0.84375-0.95703 0.46875-1.1797 0.44922-0.94531 0.32031-0.98047-0.039062-1.3672 1.4102-0.83203 1.4688-0.51172 3.7969-2.4609 1.5117-1.5 1.7969 0.20703 2.1875-0.023438 2.3594 0.26172 2.5273-0.097656 2.5664 0.45703h2.1211l1.1992-0.64062 2.8828 0.90625 2.6641 0.10156 4.1055-0.49219 4.7344-2.8398 1.1445-0.96484 1.9219-1.9961 1.2422-2.0742 0.33984-1.2812 2.6016-3.3906 0.52734-1.0938 0.82422-1.5312 1.1367-0.95703 1.1641-2.5039 0.56641-2.3164 0.41406-1.0156 1.3438-2.0508 0.5-1.0508 2.1133-2.9297 2.5234-2.4102 1.4102-1.3438 0.78125-0.75 1.8281-2.5195 1.6211-3.1836 0.73438-2.7031 1.3516-2.9453 1.1797-2.1211 2.0742-2.1094 2.5742-1.9531 1.9453-1.4688 1.9648-1.8672 1.793-1.9688 0.99609-1.4648z" fill="#ccc" fill-rule="evenodd"/>
<path d="m282.6 178.71 0.5 0.77344 0.71875 1.3359 0.96875 1.6602 1.5898 2.0742 0.43359 1.2852 0.027344 3.4961-0.11328 1.4844-0.12891 1.6445 0.59766 2.7461 2.125 2.6289 4.5547 2.2148h1.8945l1.4062-0.20312 2.3594-2.1484 1.3203-0.85547 1.2969-1.0117 1.1016-0.26953 1.4609 0.44922 2.125-0.64453 1.0117-0.54688 1.1641-0.77734 1.3984-0.050781 1.2383 0.57031 1.3789 0.95703 1.8672 1.2969 1.375 0.28516 1.2695 0.050781 1.7344 0.23438 1.2305 0.47266 1.3359 0.66797 0.67188 0.77734-0.73047 2.082-0.67969 1.293-0.78125 1.1445-0.69531 2.2188-0.34766 1.3633 0.21484 1.2578 0.46484 1.2109 0.42969 1.957 0.59766 1.9414 1.0156 1.0625 1.9023 0.59375 1.6758 0.31641 1.2812 0.035157 2.0508-0.31641 1.043-0.23438 1.1953-0.34766 1.293-0.11719 1.7148 0.40625 1.1562-0.55078 1.3672-0.35547 1.0938-0.22266 1.2695-0.51953 1.4219-0.41406 1.2344-0.94922 0.71875-0.85156 1.4414-0.77734 2.3672-0.58984 2.3711-0.33203 1.5273-0.40625 1.1953-0.14844 1.418-0.32422 1.2109-0.37891 2.0078 0.58984 1.0859 0.33203 1.207 0.48047 1.7383 0.96484 1.6055 1.1406 1.4805 0.88672 1.4414 0.56641 0.89062 0.625 1.1523 0.66406 1.2305 0.90625 1.2891 0.53125 2.3398 1.0859 1.2773 1.375 1.2461 1.043 1.0039 1.3242 1.7812-0.11328 1.1914-0.19141 1.6367-0.39062 1.2812 0.33594 1.1836 0.17578 2.5664 0.93359 2.2109 0.44141h1.1172l2.0664-0.33594 1.6641 0.070312 1.3242-0.035156 1.0039-0.21094 1.0625-0.41406 1.0117-0.18359 2.3516-1.5703 1.1992-0.70703 2.1367 1.0391 1.3438 1.2148 2.2227 1.7188 1.4883 0.77734 1.7422 0.91016 1.043 0.78125 0.92578 1.3594 1.1367 1.418 0.75781 1.3438 1.0977 1.6875 1.7812 0.88672 2.1367 0.60547 1.0977 0.49219 0.92969 0.60938 1.2695 1.2109 1.25 0.75781 2.5352 0.55859 1.6758 0.050782 1.3555-0.28906 1.6836-0.92578 2.4414-0.53125 0.98438 0.24609 1.0938 1.0195 3.1953 1.1562 1.4375 0.92969 1.0781 0.69531 1.2109 0.78125 1.625 0.64844 1.0312 0.24219 0.94141 0.50391 1.2695 0.55078 1.5078-0.082031 3.7383 2.25 1.4141 0.82422 1.9727 0.70703 0.94922 0.73047 1.457 1.3789 2.1797 1.4023 1.3047 0.54297 2.2109-0.078125 1.0234-0.21484 1.2969-0.27344 1.668-0.64844 0.96875-0.30078 2.1172 0.89062 3.4453 1.668 1.582 1.043 1.4219 0.55469 2.9805 1.5156 3.0352 2.0586 6.3398 2.2227 2.6562 1.1367 0.8125 1.7344-0.078125 3.4258 0.12109 2.207 0.085938 1.5078 0.0625 1.1484 0.53125 1.3711 0.92188 1.0078 3.1367 1.8555 1.4766 1.0352 0.23828 1.8125 0.46094 1.4922 0.44531 0.90625-1.1016 1-1.6484 0.51562-1.8125 0.69531-1.5156 0.51172-1.3125 1.0078-1.2852 1.457-0.51172 0.92188-0.074219 1.5898-0.28906 1.1523-1.3711 1.793-0.4375 1.6211-0.03125 1.5625-0.019531 1.1562-0.21484 1.4844-1.0938 2.1016-0.97656 1.6914-0.73047 0.74609-0.70703 0.72266-0.76562 1.1758-0.38281 1.2227-0.69922 1.168-0.59766 0.89062-1.9141 0.85547-1.6445-0.054687-1.3867-0.125-1.2188-0.25781-1.2773-0.35547-1.7617-1.0898-1.25-0.76953-1.6289-1.3672-1.3945-1.1719-0.97266-1.4219-0.73047-1.5586 0.24609-3.543 0.81641-2.3008 0.76172-1.625-1.1406-1.5898-0.4375-1.1641-0.83594-0.93359-1.4062-1.3945-0.89062-1.3711-0.67578-1.2383-0.55469-0.83984-1.4883-1.0547-0.46875-0.98047 0.25-1.1406-0.20703-1.5898-1.9688-2.9805-2.0234-3.6055-2.4609-3.8711-1.1523-1.2188-2.2227-1.7305-1.4883-0.81641-1.5664-0.70703-2.375-1.2422-2.4453-1.3477-0.99219-0.34766-2.2734-1.7539-1.5352-0.98828-2.0664-1.5039-2.5156-0.82812-1.543-1.0742-1.1211-0.17578-1.0234-0.48828-2.2422-0.74219-1.0781-0.14062-1.3047-0.80469-1.5469 0.074219-1.0547 0.64453-1.2734-0.078125-2.0781-1.1406-1.0781-0.60938-1.1953-0.57812-1.3047-0.66406-1.0469-1.2383-0.5-0.88281-0.78516-0.84766-1.0859-0.054687-0.94531 0.53125-1.6992-0.019531-2.1758-0.71875-2.4492 0.074218-1.4492 0.21875-1.9805-0.15234-0.93359 0.38281-1.7969 0.69531-2.2422 0.60938-1.5664-0.042969-1.2305-0.011719-1.0742 0.23828-2.5703 2.1875-0.94531 0.76172-1.6094 1.4922-1.6016 0.82812-2.8945 1.1641-1.4375 0.23828h-1.6211l-1.75 0.79297-1.0859 0.65625-1.2344 0.37891-1.1641 0.12109-0.97656 0.32422-2.3086 0.55469-1.0898 0.46875-1.9453 0.92578-1.6992 1-1.4023 0.75-2.0156 0.49219-1.9336 1.2188-0.70703 0.70703-1.1445 0.87891-1 0.62109-1.0469 0.33984-1.4141 0.10547-1.0117 0.15234-1.6445 0.64453-1.2617 0.84766-2.6328 0.26172-3.8633 0.64062-1.543 0.74219-1.0664 0.35938-3.0273 1.3477-1.1211 0.63281-2.0781 0.83594-0.94922 0.51562-1.5625 1.0742-1.3164 0.37891-2.0273-0.40234-1.5 0.15234-1.043 0.71875-0.91406 1.1758-3.5508 0.26172-1.2383-0.066407-1.3164-0.15234-1.1758 0.5-2.7734 1.4375-1.5898 1.2617-1.5234 0.77344-1.7422 0.46875-2.9922 2.6328-1.0352 0.60938-1.5977 1.6094-1.3828 1.2734-0.93359 0.37109-1.3281 0.41406-1.2734 0.11719-2.0898 0.34766-1.5039 0.90625-1.2266 1.4883-1.0234 0.71875-1.5039 0.55469-0.87109 1.1992-0.51172 1.207-0.86719 1.0664-1.8945 0.77344-1.1211 0.30469-1.043 0.62891-1.1875 1.1445-0.37109 1.4141-0.042969 1.4688-0.58594 1.043-1.5586 0.14453-1.3789 0.40234-1.1562 0.51953-1.3477 2.1562-1.0117 1.8711-0.65234 1.207-0.90625 0.70703-1.3477 0.37109-1.5664-0.87109-2.0039 0.042969-3.0781 1.4805-1.3711 0.5-0.92578 0.65625-0.89062 1.0117-0.79688 0.76172-1 0.35938-1.6016 0.20703-2.3906 0.20312-1.4062-0.50781-1.0117-0.38281-0.84766-1.4453-1.0898-1.1562-0.57422-0.92578-0.89453-1.8164-1.0859-1.9805-0.60156-1.3477-0.30469-0.95703-0.007812-2.1133 0.097656-1.2617-0.76172-2.7109-0.71875-1.2188-1.3281-0.51172-1.3281-0.89062-1.2109-1.6797-2.2617 2.9492-1.1523 2.7812-0.81641 2.7148-0.74609 2.6445-0.94922 3.3906-2.3047-3.457-2.3086-2.7148-1.3359-1.1016-3.3438-3.0352-3.7305-4.1367-1.1602-1.6172-2.5586-2.1758-3.8203 1.0234-2.6484 1.3867-2.6992 1.4062-3.707 3.1406-1.9648 1.7227-1.793 0.29297-3.3789 0.72266-1.4727 1.3086-1.2227 1.8906-2.2734 1.3906-0.98438-0.66016-0.93359-1.0781-1.2773-1.4727-0.84766-1.3086-0.52734-1.5273-0.60938-1.1953-0.38672-0.97266-0.45703-2.4219 0.10156-1.0039-0.67188-1.6914-1.043-1.9688-0.55078-1.0352-1.625-1.5703-0.37109-1.2891-0.4375-1.4062-0.77344-0.84766-1.3359-0.20703-1.2617-0.14062-2.4609-1.1406-0.90234-0.85156-0.77344-0.75-0.70703-1.25-0.30469-1.6211 0.097656-1.0664-2.207 0.55469-1.875 0.085938-3.0117-0.19531-1.3164 0.26172-1.6328 1.3047-0.67578 0.83594-0.88281 1.3281-1.1953 1.4805-2.0117 0.39062-2.332-0.050782-1.6836 0.57422-1.5898 0.29297-2.0039 0.19922-1.293-0.10156-1.4492 0.078125-2.2734-0.042969-1.6055-0.30078-1.9883 1.5547-1.2773 1.0703-1.3125 0.55078-1.3789 0.58203-1.9258 0.8125-1.1406 0.48047-3.8047-0.21875 0.26953-0.98438 0.95312-1.3242 1.0117-1.4062 0.71875-1 0.49609-2.6016 0.44922-1.7695 0.21875-1.8828-0.39844-1.3906 0.58203-1.3828 2.0664-0.66797 0.96094-0.59766 1.9531-1.918 1.5898-1.8906 1.1797-1.1016 1.6523-1.3164 2.4844-0.78516 1.168-1.3242 1.2852-1.0898 0.73047-0.80469 0.77734-0.85547 1.375-0.95312 1.1758-1.0117 2.1523-1.5938 1.7383-0.95703 3.3398-1.4766 1.9805 0.28516 1.4922 0.48828 1.0859 0.90234 1.1211 1.2852 1.3594 0.39062 1.668 0.035157 1.4023 0.15234 1.8047 0.91406 1.0781 1.5664 0.54688 1.4023 1.8281 0.38281 3.6992-0.054687 1.3477 0.21484 1.1211 0.35938 1.2305 0.21875 1.1328-0.10938 1.1016-1.2695-0.27344-3.5078-0.26562-2.3008 0.51172-1.4531 1.1406-0.70312 2.2539-1.0742 2.8867-1.0195 2.1523-1.8203 0.77734-0.66016 0.625-1.3008 0.84375-0.95703 0.46875-1.1797 0.44922-0.94531 0.32031-0.98047-0.039062-1.3672 1.4102-0.83203 1.4688-0.51172 3.7969-2.4609 1.5117-1.5 1.7969 0.20703 2.1875-0.023438 2.3594 0.26172 2.5273-0.097656 2.5664 0.45703h2.1211l1.1992-0.64062 2.8828 0.90625 2.6641 0.10156 4.1055-0.49219 4.7344-2.8398 1.1445-0.96484 1.9219-1.9961 1.2422-2.0742 0.33984-1.2812 2.6016-3.3906 0.52734-1.0938 0.82422-1.5312 1.1367-0.95703 1.1641-2.5039 0.56641-2.3164 0.41406-1.0156 1.3438-2.0508 0.5-1.0508 2.1133-2.9297 2.5234-2.4102 1.4102-1.3438 0.78125-0.75 1.8281-2.5195 1.6211-3.1836 0.73438-2.7031 1.3516-2.9453 1.1797-2.1211 2.0742-2.1094 2.5742-1.9531 1.9453-1.4688 1.9648-1.8672 1.793-1.9688 0.99609-1.4648 0.62109 0.94141" fill="none" stroke="#fff" stroke-linecap="round" stroke-linejoin="round" stroke-miterlimit="10" stroke-width="2"/>
<path d="m408.37 244.44 0.44531 0.24219 1.4023 0.29297 1.6445-0.65234 1.0859 0.054687 0.78516 0.84766 0.5 0.88281 1.0469 1.2383 1.3047 0.66406 1.1953 0.57812 1.0781 0.60938 2.0781 1.1406 1.2734 0.078125 1.0547-0.64453 1.0117-0.23828 1.8398 0.96875 1.0781 0.14062 1.5469 0.48047 1.7188 0.75 1.1211 0.17578 1.3906 0.96875 1.9688 0.65234 2.7656 1.7852 1.5352 0.98828 2.2734 1.7539 0.99219 0.34766 1.7188 1.1328 2.5547 1.2695 2.1133 0.89453 0.98047 0.48828 2.7305 2.0586 1.1523 1.2188 2.4609 3.8711 2.0234 3.6055 1.9688 2.9805 0.20703 1.5898-0.25 1.1406 0.46875 0.98047 1.4883 1.0547 0.55469 0.83984 0.67578 1.2383 0.56641 0.95703 1.7305 1.8086 0.83594 0.93359 0.4375 1.1641 0.83594 0.91406-0.37891 2.0898-0.89453 2.5117-0.24609 3.543 0.73047 1.5586 0.97266 1.4219 1.3945 1.1719 1.6289 1.3672 1.25 0.76953 1.7617 1.0898 1.2773 0.35547 1.2188 0.25781 1.3867 0.125 1.6445 0.054687 1.6211-0.10938 0.53906 1.9062 1.6992 2.9844 0.13672 1.0391 0.015625 1.4961-0.09375 1.5312 0.085938 1.5039 0.089844 1.6172 0.64844 1.1719 0.88281 1.3398 0.54688 2.5781-0.16406 1.8125-0.19141 1.6133-0.67578 2.8359-0.09375 1.6094 0.13281 1.7617 0.19141 0.99219 0.19141 0.98438 0.33203 1.7266 0.58594 1.7812-1.8242 0.17188-1.6641 0.27734-1.5703 0.60547-1.9102 0.99219-1.043 0.22656-1.1094 0.24609-1.5234 0.64062-2.0156 0.45703-1.2188 0.63672-1.0078 0.65625-1.4492 0.45703-1.7539 0.65625-1.3828 0.38672-1.0898 0.125-1.3633 0.15625-1.3047-0.71484-0.56641-1.0078-0.42969-0.93359-1.3594-0.62109-1.2852-0.30859-1.1289-0.8125-1.1328-1.6641-0.81641-0.95312-0.75-0.66797-1.6641-1.3945-1.7695-1.7227-1.6172-0.98828-1.2578-0.84766-1.9531-1.0234-2.0039-0.87109-1.125-0.85547-0.70312-2.0234-0.41797-2.1562-0.21875-1.0156-0.47656-1.4961-1.5312-0.17188-2.2852 1.2578-2.7734 0.76562-1.1836 0.21094h-1.9336l-1.8867 0.19531-1.6328 0.26953-1.6797-0.64844-1.0859-1.2617-0.77734-1.4102-0.95703-0.80859-1.1758-0.99219-0.92969-0.78906-1.793-1.5195-0.97656-0.57422-0.85156-0.625-1.5586-1.4609-1.4492-1.1289-1.3555-1.3242-1.5273-1.3359-0.58594-1.0156-0.63281-0.87891-0.37891-1.9102v-1.4688l0.32031-1.9531 0.29688-1.0273 0.70312-1.2031 0.89453-0.98438-0.027344-1.1484-0.83984-0.60938-4.8477 0.79297-2.2656 1.1562-2.1875 1.3633-2.3047 1.4375-0.92188 1-1.7188 0.81641-3.8555 2.7812-1.3125 0.62109-1.1836-0.027344-2.2695-0.66797-1.0938 0.16016-1.7227-0.27734-2.1133-0.5625-1.7656-0.21875-1.2617-0.15625-1.4648-0.30859-1.6992-0.17188-3.3984 0.52734-1.3398 0.74219-1.0977 0.3125-1.4219-0.16797-2.332-0.67578-1.793-0.75-1.0938-0.79688-1.4648-1.7188-1.4297-0.62109-1.7266 3.4883-0.72266 1.3906-0.95703 0.75-1.2539 0.69531-0.83203 0.57812-2.125 0.82422-1.918-0.13672-1.2031 0.17188-1.5156 0.99609-0.55469 1.9414-1.2109 1.1406-1.1836 0.34766-1.5586 0.72266-2.5742 1.1562-1.375 0.61328-1.0742 1.3359-1.125 0.69531-1.043 0.875-2.7422 0.45703-1.0273-0.078125-1.1289-0.71484-1.4961-1.0938-1.582-1.0273-1.0977-0.39844-1.8086-0.45312-1.1172-0.27734-1.543 0.34766-1.1094 0.99609-0.86328 1.3242-0.86719 1.0312-1.5273 2.3008-1.6836 1.0156-1.8516-0.23828-1.5898-0.20312-1.5938 0.20312-5.293-1.5977-2.5859-0.015625-3.0391 0.33203-2.8008-0.42578-5.4102 0.046875-1.9805 0.17969-1.4062 0.12891-2.2109 0.36719-1.3438 1.1523-0.64453 2.8398-1.3242 0.61328-4.6211 0.12891-7.4961 0.046875-1.582-0.082031-2.7812-0.73828-1.582 0.0625-1.5195 0.80859-2.4648 1.5859-3.9453 3.5625-1.1797 1.4375-1.1328 3.0781-0.35156 1.8125-2.7734 2.8164-1.3672 0.023438-1.457-0.35547-2.1172-0.74609-3.1211-0.49609-1.332-0.72656-1.7695-1.9414-1.2539-0.99609-2.3359-1.2109-2.4609-1.0352-3.1133-0.86719-4.0625-0.17188-2.1914 0.48047 0.58984-2.4258 0.36328-2.4648-0.26562-1.9609-0.54688-3.0547 0.0625-1.8359 0.62891-0.96875 1.7656-2.3594 1.0977-0.69922 0.87109-0.72656 0.71875-1.2188 0.38281-1.5781 0.79297-1.4375 0.70703-0.78125 1.5625-1.3164 1.1133-1.5469 0.89844-0.80859 1.168-1.0469 1.3438-2.4297 1.0781-4.1406 0.74609-2.6445 0.81641-2.7148 1.1523-2.7812 2.2539-2.9531 1.2188 1.6836 1.3281 0.89062 1.0547 0.25391 0.91016 1.3203 0.83203 2.3984-0.097656 1.2227-0.023438 2.2383 0.34766 1.3398 0.60156 1.3477 0.76172 1.1562 1.2188 2.6406 0.57422 0.92578 1.0898 1.1562 0.56641 1.0547 1.293 0.77344 1.4062 0.50781 2.3906-0.20312 1.6016-0.20703 1-0.35938 0.79688-0.76172 0.89062-1.0117 0.92578-0.65625 1.3711-0.5 2.2852-1.1758 2.1328-0.55469 1.7852 0.9375 1.207 0.074219 1.4922-1.0117 0.65234-1.207 0.76172-1.0977 1-2.1758 1.1094-1.0898 1.3516-0.53125 1.9141 0.019532 0.76172-0.73828 0.18359-1.9922 0.37109-1.4141 1.1875-1.1445 1.043-0.62891 1.1211-0.30469 1.4922-0.53516 1.0664-0.82812 0.71484-1.6836 0.87109-1.1992 1.5039-0.55469 1.0234-0.71875 1.2266-1.4883 0.82812-0.64453 2.1562-0.59766 1.0117-0.10938 2.1992-0.43359 0.93359-0.37109 1.3828-1.2734 1.5977-1.6094 1.0352-0.60938 2.3633-2.1758 1.4883-0.85156 1.6016-0.30469 2.3945-1.8047 2.7734-1.4375 1.1758-0.5 1.3164 0.15234 1.2383 0.066407h2.9844l0.82422-0.6875 1.2305-1.207 1.1641-0.43359 2.4062 0.41406 1-0.078125 1.6641-1.0234 1.5898-0.85938 2.0781-0.83594 1.1211-0.63281 3.0273-1.3477 1.0664-0.35938 1.543-0.74219 3.0273-0.72656 2.5352 0.0625 1.5117-0.56641 2.3281-1.1641 1.0117-0.15234 1.4141-0.10547 1.0469-0.33984 1-0.62109 1.1445-0.87891 0.70703-0.70703 1.293-0.90625 2.6562-0.80469 1.4023-0.75 1.0469-0.52344 1.9258-1.1406 1.0977-0.49219 2.9727-0.79297 0.97656-0.32422 1.1641-0.12109 1.2344-0.37891 1.0859-0.65625 0.93359-0.41406 2.4375-0.37891 1.4375-0.23828 2.3828-0.99219 1.7305-0.76172 1.9922-1.7305 0.94531-0.76172 1.8516-1.8047 1.793-0.62109 1.2305 0.011719 1.5664 0.042969 2.2422-0.60938 1.0039-0.32812 1.4453-0.67188 1.4023 0.074218 2.3086-0.21875 2.4492-0.074218z" fill="#ccc" fill-rule="evenodd"/>
<path d="m408.37 244.44 0.44531 0.24219 1.4023 0.29297 1.6445-0.65234 1.0859 0.054687 0.78516 0.84766 0.5 0.88281 1.0469 1.2383 1.3047 0.66406 1.1953 0.57812 1.0781 0.60938 2.0781 1.1406 1.2734 0.078125 1.0547-0.64453 1.0117-0.23828 1.8398 0.96875 1.0781 0.14062 1.5469 0.48047 1.7188 0.75 1.1211 0.17578 1.3906 0.96875 1.9688 0.65234 2.7656 1.7852 1.5352 0.98828 2.2734 1.7539 0.99219 0.34766 1.7188 1.1328 2.5547 1.2695 2.1133 0.89453 0.98047 0.48828 2.7305 2.0586 1.1523 1.2188 2.4609 3.8711 2.0234 3.6055 1.9688 2.9805 0.20703 1.5898-0.25 1.1406 0.46875 0.98047 1.4883 1.0547 0.55469 0.83984 0.67578 1.2383 0.56641 0.95703 1.7305 1.8086 0.83594 0.93359 0.4375 1.1641 0.83594 0.91406-0.37891 2.0898-0.89453 2.5117-0.24609 3.543 0.73047 1.5586 0.97266 1.4219 1.3945 1.1719 1.6289 1.3672 1.25 0.76953 1.7617 1.0898 1.2773 0.35547 1.2188 0.25781 1.3867 0.125 1.6445 0.054687 1.6211-0.10938 0.53906 1.9062 1.6992 2.9844 0.13672 1.0391 0.015625 1.4961-0.09375 1.5312 0.085938 1.5039 0.089844 1.6172 0.64844 1.1719 0.88281 1.3398 0.54688 2.5781-0.16406 1.8125-0.19141 1.6133-0.67578 2.8359-0.09375 1.6094 0.13281 1.7617 0.19141 0.99219 0.19141 0.98438 0.33203 1.7266 0.58594 1.7812-1.8242 0.17188-1.6641 0.27734-1.5703 0.60547-1.9102 0.99219-1.043 0.22656-1.1094 0.24609-1.5234 0.64062-2.0156 0.45703-1.2188 0.63672-1.0078 0.65625-1.4492 0.45703-1.7539 0.65625-1.3828 0.38672-1.0898 0.125-1.3633 0.15625-1.3047-0.71484-0.56641-1.0078-0.42969-0.93359-1.3594-0.62109-1.2852-0.30859-1.1289-0.8125-1.1328-1.6641-0.81641-0.95312-0.75-0.66797-1.6641-1.3945-1.7695-1.7227-1.6172-0.98828-1.2578-0.84766-1.9531-1.0234-2.0039-0.87109-1.125-0.85547-0.70312-2.0234-0.41797-2.1562-0.21875-1.0156-0.47656-1.4961-1.5312-0.17188-2.2852 1.2578-2.7734 0.76562-1.1836 0.21094h-1.9336l-1.8867 0.19531-1.6328 0.26953-1.6797-0.64844-1.0859-1.2617-0.77734-1.4102-0.95703-0.80859-1.1758-0.99219-0.92969-0.78906-1.793-1.5195-0.97656-0.57422-0.85156-0.625-1.5586-1.4609-1.4492-1.1289-1.3555-1.3242-1.5273-1.3359-0.58594-1.0156-0.63281-0.87891-0.37891-1.9102v-1.4688l0.32031-1.9531 0.29688-1.0273 0.70312-1.2031 0.89453-0.98438-0.027344-1.1484-0.83984-0.60938-4.8477 0.79297-2.2656 1.1562-2.1875 1.3633-2.3047 1.4375-0.92188 1-1.7188 0.81641-3.8555 2.7812-1.3125 0.62109-1.1836-0.027344-2.2695-0.66797-1.0938 0.16016-1.7227-0.27734-2.1133-0.5625-1.7656-0.21875-1.2617-0.15625-1.4648-0.30859-1.6992-0.17188-3.3984 0.52734-1.3398 0.74219-1.0977 0.3125-1.4219-0.16797-2.332-0.67578-1.793-0.75-1.0938-0.79688-1.4648-1.7188-1.4297-0.62109-1.7266 3.4883-0.72266 1.3906-0.95703 0.75-1.2539 0.69531-0.83203 0.57812-2.125 0.82422-1.918-0.13672-1.2031 0.17188-1.5156 0.99609-0.55469 1.9414-1.2109 1.1406-1.1836 0.34766-1.5586 0.72266-2.5742 1.1562-1.375 0.61328-1.0742 1.3359-1.125 0.69531-1.043 0.875-2.7422 0.45703-1.0273-0.078125-1.1289-0.71484-1.4961-1.0938-1.582-1.0273-1.0977-0.39844-1.8086-0.45312-1.1172-0.27734-1.543 0.34766-1.1094 0.99609-0.86328 1.3242-0.86719 1.0312-1.5273 2.3008-1.6836 1.0156-1.8516-0.23828-1.5898-0.20312-1.5938 0.20312-5.293-1.5977-2.5859-0.015625-3.0391 0.33203-2.8008-0.42578-5.4102 0.046875-1.9805 0.17969-1.4062 0.12891-2.2109 0.36719-1.3438 1.1523-0.64453 2.8398-1.3242 0.61328-4.6211 0.12891-7.4961 0.046875-1.582-0.082031-2.7812-0.73828-1.582 0.0625-1.5195 0.80859-2.4648 1.5859-3.9453 3.5625-1.1797 1.4375-1.1328 3.0781-0.35156 1.8125-2.7734 2.8164-1.3672 0.023438-1.457-0.35547-2.1172-0.74609-3.1211-0.49609-1.332-0.72656-1.7695-1.9414-1.2539-0.99609-2.3359-1.2109-2.4609-1.0352-3.1133-0.86719-4.0625-0.17188-2.1914 0.48047 0.58984-2.4258 0.36328-2.4648-0.26562-1.9609-0.54688-3.0547 0.0625-1.8359 0.62891-0.96875 1.7656-2.3594 1.0977-0.69922 0.87109-0.72656 0.71875-1.2188 0.38281-1.5781 0.79297-1.4375 0.70703-0.78125 1.5625-1.3164 1.1133-1.5469 0.89844-0.80859 1.168-1.0469 1.3438-2.4297 1.0781-4.1406 0.74609-2.6445 0.81641-2.7148 1.1523-2.7812 2.2539-2.9531 1.2188 1.6836 1.3281 0.89062 1.0547 0.25391 0.91016 1.3203 0.83203 2.3984-0.097656 1.2227-0.023438 2.2383 0.34766 1.3398 0.60156 1.3477 0.76172 1.1562 1.2188 2.6406 0.57422 0.92578 1.0898 1.1562 0.56641 1.0547 1.293 0.77344 1.4062 0.50781 2.3906-0.20312 1.6016-0.20703 1-0.35938 0.79688-0.76172 0.89062-1.0117 0.92578-0.65625 1.3711-0.5 2.2852-1.1758 2.1328-0.55469 1.7852 0.9375 1.207 0.074219 1.4922-1.0117 0.65234-1.207 0.76172-1.0977 1-2.1758 1.1094-1.0898 1.3516-0.53125 1.9141 0.019532 0.76172-0.73828 0.18359-1.9922 0.37109-1.4141 1.1875-1.1445 1.043-0.62891 1.1211-0.30469 1.4922-0.53516 1.0664-0.82812 0.71484-1.6836 0.87109-1.1992 1.5039-0.55469 1.0234-0.71875 1.2266-1.4883 0.82812-0.64453 2.1562-0.59766 1.0117-0.10938 2.1992-0.43359 0.93359-0.37109 1.3828-1.2734 1.5977-1.6094 1.0352-0.60938 2.3633-2.1758 1.4883-0.85156 1.6016-0.30469 2.3945-1.8047 2.7734-1.4375 1.1758-0.5 1.3164 0.15234 1.2383 0.066407h2.9844l0.82422-0.6875 1.2305-1.207 1.1641-0.43359 2.4062 0.41406 1-0.078125 1.6641-1.0234 1.5898-0.85938 2.0781-0.83594 1.1211-0.63281 3.0273-1.3477 1.0664-0.35938 1.543-0.74219 3.0273-0.72656 2.5352 0.0625 1.5117-0.56641 2.3281-1.1641 1.0117-0.15234 1.4141-0.10547 1.0469-0.33984 1-0.62109 1.1445-0.87891 0.70703-0.70703 1.293-0.90625 2.6562-0.80469 1.4023-0.75 1.0469-0.52344 1.9258-1.1406 1.0977-0.49219 2.9727-0.79297 0.97656-0.32422 1.1641-0.12109 1.2344-0.37891 1.0859-0.65625 0.93359-0.41406 2.4375-0.37891 1.4375-0.23828 2.3828-0.99219 1.7305-0.76172 1.9922-1.7305 0.94531-0.76172 1.8516-1.8047 1.793-0.62109 1.2305 0.011719 1.5664 0.042969 2.2422-0.60938 1.0039-0.32812 1.4453-0.67188 1.4023 0.074218 2.3086-0.21875 2.4492-0.074218 1.3281 0.32422" fill="none" stroke="#fff" stroke-linecap="round" stroke-linejoin="round" stroke-miterlimit="10" stroke-width="2"/>
<path d="m260.53 10.211 2.3867 0.027343 2.6367 0.49609 1.5859 0.29688 1.4102 0.78906 0.67188 1.0352 1.2188 1.25 0.62109 0.83984 1.6953 2.8984 0.47656 1.207 0.25 1.9961 0.20703 1.1055 0.71484 1.6328 0.94922 1.0625 1.6797 0.67969 2.3125-1.0234 1.3281-0.54688 1.5234 0.18359 1.8125 0.38672 1.4023 0.52734 0.87109 0.54688 1.1758 1.1445 0.9375 1.3086 1.3438 1.1875 0.69922 0.82031 1.0234 0.67969 2.4844 1.5195 1.3906 0.95312 2.1836 1.3984 1.5664 1.0703 2.0625 1.0664 2.1289 0.54688 2.4688 0.63281 1.4805 0.24219 1.0156-0.14062 1.4453-0.58984 1.7891-0.29688-1.0742 1.1719-1.2773 0.71094-1.1094 0.96484-0.77344 1.8711-1.0195 1.1367-1.1367 0.9375-1.3672 1.8164-0.59375 0.8125-0.73438 1-0.77344 1.0547-0.46875 1.6211-0.12891 1.8164-0.51953 1.3789-1.1289 1.7734-0.37891 1.5-0.35547 1.4102-0.85938 1.6836-0.82812 0.63281-1.9609 0.84375-2.4961-0.12891-1.3125 0.24219-1.0859 0.78516-0.99219 0.71484-0.95312 0.6875-0.95312 0.40625-1.1211 0.76172-1.1172 1.1992-2.043 0.77734-1.1172 1.3789-1.1172 1.6016-0.44531 1.043-0.88672 1.5859-0.66406 1.6992 0.19531 1.0039 0.76172 0.98828 0.015625 1.1367-0.71094 0.97266-1.2656 1.2969-0.40234 1.0117-0.13281 1.1914-0.9375 2.0781-0.94531 1.1797-0.41406 0.91797-0.33984 1.543-0.71094 1.6094-1.543 1.6719-1.4531 1.125-0.71094 0.79297-0.039063 1.5586 0.21875 2.6953-0.027343 1.0625-0.94531 2.0898-0.64844 1.2812-0.24609 1.1797-1.1133 2.9688-0.32422 1.1953-0.66406 1.0352-1.5156 1.1406 0.1875 1.4727 0.62891 0.92578 0.66016 0.97266 0.37891 1.3633 0.16797 1.9297 0.6875 1.6602 0.40234 1.3242 0.98828 2.0781 0.60156 2.5312 0.023438 1.1211-0.63281 2.0625-0.53906 1.1172-0.67969 1.4062-0.39062 2.1641 0.027344 2.375-0.26172 1.3281-0.78125 0.96484-0.36328 1.0195 0.48438 1.4258-2.7344-0.35547-2.0859-0.089844-1.6797 0.042969-2.2227 0.36328-2.3125 0.54297-2.0391 1.1797-3.4961 0.68359-2.5859 0.36328-3.7656 1.1758-2.1289 0.77344-2.9258 2.125-1.8477 0.46875-2.8516 0.86328-1.2539 0.40625-1.9492 1.4727-2.3672 2.918-3.6211 3.1406-1.5391 1.3359-1.3438 1.168-2.1562 2.3008-1.3711 1.4648-1.8398 1.0664-1.5117-0.066407-2.1445-0.52734-1.6875-0.41406-1.1484-0.80469-1.4297-1.0039-1.6992-0.84375-1.1875-0.13281-1.2891 0.62891-2.7695 2.1094-2.2891 1.7461-1.5586 1.1875-1.7891 0.82422-4.0898 1.3867-0.93359 0.69922-1.043 2.9258-1.6484 3.5273-1.7461 2.4102-2.7734 1.6484-2.207 1.582-2.6055 1.0547-1.3203 0.98828-1.8125 1.7812-2.5469 2.5-1.6797 1.6523-1.4297 1.4023-1.9609 1.3047-1.4141 0.76172-1.2539 1.3477-1.3203 0.13281-2.6484 0.82812-2.0664 1.9727-1.3164 1.5508-1.918-0.55469-1.5508-0.77734-1.0391-0.71094-1.3828-0.44922-2.2734-0.60156-1.0117 0.023437-3.0469 0.17578-1.5664-0.066407-1.6211-0.13281-1.5039 0.4375-1.0742 0.15234-1.6758 0.03125-1.3086-0.47656-1.1641 0.03125 0.21875-1.1758 1.1523-0.72656-0.10938-1.3711 0.96875-1.0352 1.4922-2.1562 2.4141-2.1641 1.0664-1.3672 1.332-1.4219 1.9102-0.68359 1.7969-0.03125 1.3945 0.30469 1.2812 0.63281 1.0234 0.28125 1.0234-0.097657 1-0.5 2.2227-0.85156 1.457-0.93359 0.95703-1.4375 0.10938-1.0859-0.085938-1.1445-0.65234-1.1406-0.42578-1.3711-0.29297-1.1328-0.20703-1.2969-0.38281-1.5859-0.11719-1.4922 0.38281-1.4219 1.7578-2.6055 0.3125-2.8086 1.043-2.9141-0.31641-1.2969 0.22266-1.5469 0.81641-1.1328 1.8672-0.73828 0.85938-0.82422-0.097656-1 0.73047-1.0352 2.3047 1.3398 2.6953 1.7656 1.6992 0.97266 1.8516 0.44531 1.2422-0.42188 1.1211-2.0391 0.53906-1.0117 0.97266-1.4062 1.6367-1.9219 4.1367-3.9961 1.4727-2.8047 2.0273-3.4414 1-1 2.4688-2.8047 1.5273-2.457 1.3711-2.9688 1.2344-1.4609 1.1172-1.7305 1.6562-2.3086 1.082-1.6211 0.36328-1.2617 0.60938-2.2734 0.42188-1.8281 1.4062-1.7148 0.73047-1.3398 0.52344-1.6094 0.6875-1.7109 0.47656-2.0117 0.10547-1.8242 0.082031-1.4609 0.25-1.4922 0.52344-1.875 1.0742-7.3125-0.054688-1.3789 0.10938-1.2305-0.10938-1.2812-0.64062-0.85156-0.82031-1.3008-0.72656-1.1445-0.94531-11.676-1.1406-4.8594-0.35547-2.707-1.1523-2.6289-1.8594-2.2461-1.0703-1.293-0.64844-1.0742-0.89062-1.2031-0.78125-0.80469-1.0156-0.6875-1.3984-1.2773-1.293-1.1836-0.71484-1.0938-0.89453-1.7188-0.15625-1.4141 0.64844-1.5312-0.11328-1.3477-0.26562-1.5547 1.1602-2.1992 0.98828-1.2227 0.34375-2.1016 0.30078-1.1406 1.9414-2.457 1.5977-1.5977 0.85547-0.625 0.94531-1.0352 1.6445-1.1445 1.4688-1.1055 1.1484-0.97656 1-0.85156 1.2539-1.0625 0.92969-0.58594 1.1094-0.36719 1.3906-0.078125 1.4297-0.18359 1.8711-0.51172 1.9727-0.85938 1.6406-0.94531 0.75781-0.98438 0.67188-1.1016 1.8867-1.2266 1.0703-1.2305 1.0117-1.4766 1.2148-0.88281 0.89844-0.52344 0.19922-1.3633 0.050781-1.2695 1.5078-0.76953 1.5586-0.19531 1.0586-0.19531 1.1445-0.078125 1.1172-0.074218 1.3594-0.22266 1.2617-0.074218 1.2148-0.46875 1.4609-1.1914 1.1367-0.26953 1.4375-0.050781 1.5586 0.17188 1.6328 0.19922 1.6328 0.64453 1.6602 0.023437 2.5 0.074219 1.9805 0.27344h2.3516l1.6328 0.42188 1.2617 0.32031 2.5234 0.074219 2.75-1.6836 2.2266-1.5078z" fill="#ccc" fill-rule="evenodd"/>
<path d="m260.53 10.211 2.3867 0.027343 2.6367 0.49609 1.5859 0.29688 1.4102 0.78906 0.67188 1.0352 1.2188 1.25 0.62109 0.83984 1.6953 2.8984 0.47656 1.207 0.25 1.9961 0.20703 1.1055 0.71484 1.6328 0.94922 1.0625 1.6797 0.67969 2.3125-1.0234 1.3281-0.54688 1.5234 0.18359 1.8125 0.38672 1.4023 0.52734 0.87109 0.54688 1.1758 1.1445 0.9375 1.3086 1.3438 1.1875 0.69922 0.82031 1.0234 0.67969 2.4844 1.5195 1.3906 0.95312 2.1836 1.3984 1.5664 1.0703 2.0625 1.0664 2.1289 0.54688 2.4688 0.63281 1.4805 0.24219 1.0156-0.14062 1.4453-0.58984 1.7891-0.29688-1.0742 1.1719-1.2773 0.71094-1.1094 0.96484-0.77344 1.8711-1.0195 1.1367-1.1367 0.9375-1.3672 1.8164-0.59375 0.8125-0.73438 1-0.77344 1.0547-0.46875 1.6211-0.12891 1.8164-0.51953 1.3789-1.1289 1.7734-0.37891 1.5-0.35547 1.4102-0.85938 1.6836-0.82812 0.63281-1.9609 0.84375-2.4961-0.12891-1.3125 0.24219-1.0859 0.78516-0.99219 0.71484-0.95312 0.6875-0.95312 0.40625-1.1211 0.76172-1.1172 1.1992-2.043 0.77734-1.1172 1.3789-1.1172 1.6016-0.44531 1.043-0.88672 1.5859-0.66406 1.6992 0.19531 1.0039 0.76172 0.98828 0.015625 1.1367-0.71094 0.97266-1.2656 1.2969-0.40234 1.0117-0.13281 1.1914-0.9375 2.0781-0.94531 1.1797-0.41406 0.91797-0.33984 1.543-0.71094 1.6094-1.543 1.6719-1.4531 1.125-0.71094 0.79297-0.039063 1.5586 0.21875 2.6953-0.027343 1.0625-0.94531 2.0898-0.64844 1.2812-0.24609 1.1797-1.1133 2.9688-0.32422 1.1953-0.66406 1.0352-1.5156 1.1406 0.1875 1.4727 0.62891 0.92578 0.66016 0.97266 0.37891 1.3633 0.16797 1.9297 0.6875 1.6602 0.40234 1.3242 0.98828 2.0781 0.60156 2.5312 0.023438 1.1211-0.63281 2.0625-0.53906 1.1172-0.67969 1.4062-0.39062 2.1641 0.027344 2.375-0.26172 1.3281-0.78125 0.96484-0.36328 1.0195 0.48438 1.4258-2.7344-0.35547-2.0859-0.089844-1.6797 0.042969-2.2227 0.36328-2.3125 0.54297-2.0391 1.1797-3.4961 0.68359-2.5859 0.36328-3.7656 1.1758-2.1289 0.77344-2.9258 2.125-1.8477 0.46875-2.8516 0.86328-1.2539 0.40625-1.9492 1.4727-2.3672 2.918-3.6211 3.1406-1.5391 1.3359-1.3438 1.168-2.1562 2.3008-1.3711 1.4648-1.8398 1.0664-1.5117-0.066407-2.1445-0.52734-1.6875-0.41406-1.1484-0.80469-1.4297-1.0039-1.6992-0.84375-1.1875-0.13281-1.2891 0.62891-2.7695 2.1094-2.2891 1.7461-1.5586 1.1875-1.7891 0.82422-4.0898 1.3867-0.93359 0.69922-1.043 2.9258-1.6484 3.5273-1.7461 2.4102-2.7734 1.6484-2.207 1.582-2.6055 1.0547-1.3203 0.98828-1.8125 1.7812-2.5469 2.5-1.6797 1.6523-1.4297 1.4023-1.9609 1.3047-1.4141 0.76172-1.2539 1.3477-1.3203 0.13281-2.6484 0.82812-2.0664 1.9727-1.3164 1.5508-1.918-0.55469-1.5508-0.77734-1.0391-0.71094-1.3828-0.44922-2.2734-0.60156-1.0117 0.023437-3.0469 0.17578-1.5664-0.066407-1.6211-0.13281-1.5039 0.4375-1.0742 0.15234-1.6758 0.03125-1.3086-0.47656-1.1641 0.03125 0.21875-1.1758 1.1523-0.72656-0.10938-1.3711 0.96875-1.0352 1.4922-2.1562 2.4141-2.1641 1.0664-1.3672 1.332-1.4219 1.9102-0.68359 1.7969-0.03125 1.3945 0.30469 1.2812 0.63281 1.0234 0.28125 1.0234-0.097657 1-0.5 2.2227-0.85156 1.457-0.93359 0.95703-1.4375 0.10938-1.0859-0.085938-1.1445-0.65234-1.1406-0.42578-1.3711-0.29297-1.1328-0.20703-1.2969-0.38281-1.5859-0.11719-1.4922 0.38281-1.4219 1.7578-2.6055 0.3125-2.8086 1.043-2.9141-0.31641-1.2969 0.22266-1.5469 0.81641-1.1328 1.8672-0.73828 0.85938-0.82422-0.097656-1 0.73047-1.0352 2.3047 1.3398 2.6953 1.7656 1.6992 0.97266 1.8516 0.44531 1.2422-0.42188 1.1211-2.0391 0.53906-1.0117 0.97266-1.4062 1.6367-1.9219 4.1367-3.9961 1.4727-2.8047 2.0273-3.4414 1-1 2.4688-2.8047 1.5273-2.457 1.3711-2.9688 1.2344-1.4609 1.1172-1.7305 1.6562-2.3086 1.082-1.6211 0.36328-1.2617 0.60938-2.2734 0.42188-1.8281 1.4062-1.7148 0.73047-1.3398 0.52344-1.6094 0.6875-1.7109 0.47656-2.0117 0.10547-1.8242 0.082031-1.4609 0.25-1.4922 0.52344-1.875 1.0742-7.3125-0.054688-1.3789 0.10938-1.2305-0.10938-1.2812-0.64062-0.85156-0.82031-1.3008-0.72656-1.1445-0.94531-11.676-1.1406-4.8594-0.35547-2.707-1.1523-2.6289-1.8594-2.2461-1.0703-1.293-0.64844-1.0742-0.89062-1.2031-0.78125-0.80469-1.0156-0.6875-1.3984-1.2773-1.293-1.1836-0.71484-1.0938-0.89453-1.7188-0.15625-1.4141 0.64844-1.5312-0.11328-1.3477-0.26562-1.5547 1.1602-2.1992 0.98828-1.2227 0.34375-2.1016 0.30078-1.1406 1.9414-2.457 1.5977-1.5977 0.85547-0.625 0.94531-1.0352 1.6445-1.1445 1.4688-1.1055 1.1484-0.97656 1-0.85156 1.2539-1.0625 0.92969-0.58594 1.1094-0.36719 1.3906-0.078125 1.4297-0.18359 1.8711-0.51172 1.9727-0.85938 1.6406-0.94531 0.75781-0.98438 0.67188-1.1016 1.8867-1.2266 1.0703-1.2305 1.0117-1.4766 1.2148-0.88281 0.89844-0.52344 0.19922-1.3633 0.050781-1.2695 1.5078-0.76953 1.5586-0.19531 1.0586-0.19531 1.1445-0.078125 1.1172-0.074218 1.3594-0.22266 1.2617-0.074218 1.2148-0.46875 1.4609-1.1914 1.1367-0.26953 1.4375-0.050781 1.5586 0.17188 1.6328 0.19922 1.6328 0.64453 1.6602 0.023437 2.5 0.074219 1.9805 0.27344h2.3516l1.6328 0.42188 1.2617 0.32031 2.5234 0.074219 2.75-1.6836 2.2266-1.5078 1.7578-0.375" fill="none" stroke="#fff" stroke-linecap="round" stroke-linejoin="round" stroke-miterlimit="10" stroke-width="2"/>
<path d="m115.36 181.53 1.7656 1.0234 0.83203 0.69141 1.5977 0.83984 2.1094 1.5156 1.7461 0.58984 1.2422 0.41797 1.3281 0.44922 1.418 0.47656 0.84766 0.60156 2.0312 1.1797 1.2539 0.72266 1.3086 1.0156 1.5234 1.1719 0.88672 0.84375 1.0664-0.54297 1.2227 0.30469 2.4141 0.23828 1.0742-0.15234 0.98828-0.28516 1.2969-0.16016 2.4062 0.20703 2.1328-0.15234 1.9258-0.046875 1.7734 0.26172 1.1914 0.56641 1.7305 0.93359 1.5508 0.77734 1.9141 0.55469-2.1758 1.8945-0.75391 1.4805-0.45312 1.2266-0.078125 2.1445-0.050781 1.1836 0.21484 1.4492-0.51953 2.3516-0.69922 1.6758-0.65234 2.25-1.1641 1.1094-2.5586 1.0234-2.043 0.58984-2.375 0.34766-2.1094 0.85938-2.2852 1.3828-1.1328 1.3164-1.8711 0.55469-1.1172-0.015625-0.94922-0.34375-1.1836 0.25-1.0898 0.45703-0.85156-0.66797-0.62891-1.7344-1.3203-0.5625-1.2578 0.54297-2.1367 0.21094-1.5195-0.37109-1.3945 0.21094-2.4062 2.3828-1.5469 2.0469-1.2695 0.97656-2.7305-0.25781-1.5039-0.53125-2.4922-0.35547-1.1562-0.375-1.1328-0.35547-1.0742-0.22266-1.2188-0.14844-1.1484-0.34766-2.1445-0.4375-0.81641-0.66406-0.57031-1-1.0234-0.46094-1.1406 0.21875-0.83594-0.60156 0.29297-1.2188 0.14844-1.168-0.41797-2.0742 0.55469-1.3711 2.0664-1.0625 0.99609-0.69141-0.035156-1.7031-0.73047-2.0391-0.50781-1.1211-0.54297-1.0508-1.543-1.9141-0.27734-1.7773 0.64844-1.0234 0.5-0.90625 0.29297-1.3359 0.011719-1.2617 0.4375-1.4062 0.78906-1.0859 1.0234-0.97266 1.25-1.8242 2.8789-3.6094 1.1445-1.1719 1.5117-1.543 1.1172-0.83594 2.0742-0.86719z" fill="#ccc" fill-rule="evenodd"/>
<path d="m115.36 181.53 1.7656 1.0234 0.83203 0.69141 1.5977 0.83984 2.1094 1.5156 1.7461 0.58984 1.2422 0.41797 1.3281 0.44922 1.418 0.47656 0.84766 0.60156 2.0312 1.1797 1.2539 0.72266 1.3086 1.0156 1.5234 1.1719 0.88672 0.84375 1.0664-0.54297 1.2227 0.30469 2.4141 0.23828 1.0742-0.15234 0.98828-0.28516 1.2969-0.16016 2.4062 0.20703 2.1328-0.15234 1.9258-0.046875 1.7734 0.26172 1.1914 0.56641 1.7305 0.93359 1.5508 0.77734 1.9141 0.55469-2.1758 1.8945-0.75391 1.4805-0.45312 1.2266-0.078125 2.1445-0.050781 1.1836 0.21484 1.4492-0.51953 2.3516-0.69922 1.6758-0.65234 2.25-1.1641 1.1094-2.5586 1.0234-2.043 0.58984-2.375 0.34766-2.1094 0.85938-2.2852 1.3828-1.1328 1.3164-1.8711 0.55469-1.1172-0.015625-0.94922-0.34375-1.1836 0.25-1.0898 0.45703-0.85156-0.66797-0.62891-1.7344-1.3203-0.5625-1.2578 0.54297-2.1367 0.21094-1.5195-0.37109-1.3945 0.21094-2.4062 2.3828-1.5469 2.0469-1.2695 0.97656-2.7305-0.25781-1.5039-0.53125-2.4922-0.35547-1.1562-0.375-1.1328-0.35547-1.0742-0.22266-1.2188-0.14844-1.1484-0.34766-2.1445-0.4375-0.81641-0.66406-0.57031-1-1.0234-0.46094-1.1406 0.21875-0.83594-0.60156 0.29297-1.2188 0.14844-1.168-0.41797-2.0742 0.55469-1.3711 2.0664-1.0625 0.99609-0.69141-0.035156-1.7031-0.73047-2.0391-0.50781-1.1211-0.54297-1.0508-1.543-1.9141-0.27734-1.7773 0.64844-1.0234 0.5-0.90625 0.29297-1.3359 0.011719-1.2617 0.4375-1.4062 0.78906-1.0859 1.0234-0.97266 1.25-1.8242 2.8789-3.6094 1.1445-1.1719 1.5117-1.543 1.1172-0.83594 2.0742-0.86719 2.1055 0.30859" fill="none" stroke="#fff" stroke-linecap="round" stroke-linejoin="round" stroke-miterlimit="10" stroke-width="2"/>
<path d="m204.9 316.07 0.33984 0.91016 0.003907 1.8164 0.10156 1.0586 0.26953 1.043 0.77344 1.3711 0.81641 0.75781 1.168 0.34375 0.20703 1.0938 0.17188 1.2031 0.29297 1.1406-0.26172 1.0938-0.11328 1.5508 0.33594 1.3984 0.63281 2.1367 0.14062 1.7383 0.40234 2.9414 0.33203 1.5078 0.54297 2.4453 0.125 1.0781 0.33203 1.4375 0.4375 2.1562 0.80859 1.3867-1.5234 1.2578-1.207 0.67578-0.95312 0.88672-1.5586 1.6445-2.5 1.1172-1.4805 0.66406-1.4258 0.34766-1.3125 0.51172-0.99219 0.21484-2.9258 0.28516-2.3555 1.0625-1.9844 0.37109-1.3984 0.78125-1.8789 1.7695-1.207 0.94141-0.58203 0.92188-1.5273 1.0781-0.65234 0.79688-2.3945 2.1797-1.0625 1.0312-0.42578 0.9375 0.30078 1.8789-0.015625 1.4336-0.33984 1.0117-0.99219 4.1094-0.85547 1.7383-1.3828 3.0391-1.9961 0.59375-1.3477 0.51562-2.3398 0.38672-1.3672 0.72266-1.1914 0.62891-2.9062 0.14453-1.1328-0.13672-5.168 1.293-1.7266 1.3359-1.4961 1.1914-1.7734 0.55469-1.6055 0.082031-1.5508 0.25-2.5195 0.96875-3.6016 1.6562-1.6602 1.2461-1.1328 2.8984-0.80469 1.8359-0.65625 2.918-0.42578 1.8672-0.058593 1.2812 0.51562 1.6953 1.9062 3.3945-1.0039 1.4727-1.0742 1.1211-2.3867 1.7656-0.83203 1.1758-2.5898-2.0625-1.0898-2.1758-1.4375-3.8516-1.8281-2.7969-2.6055-1.7109-4.043-3.0703-2.5078-0.14844-1.0273-2.3242-1.4805-4.3906-0.066407-1.3086 1.1602-1.4922 0.12109-1.2539-0.55078-1.293-1.5977-0.49609-2.4453 0.11719-1.2773-0.20703-0.73047-0.73047-1.7578-2.2148-0.33984-1.4141-1.4961-1.582-1.4023-0.98438-2.5703-0.28516-2.0508-0.98828-1.4531-1.0117-0.074218-1.0977 1.0391-1.207 1.1211-1.8281 1.0586-2.8789 0.27344-1.8984 0.30859-2.1406 0.19141-1.3086 0.74609-1.1406 1.6289-1.3164 0.91016-1.0742 4.9336-0.48047 3.957 0.63281 1.6367 0.79297 1.793 1.2656 1.5391 0.36328 1.7305-1.3672 1.5312-5.1172 0.37109-2.7422 0.10547-2.9023-1.0547-2.1719 0.25-1.1914 1.543-0.69922 2.3203-1.0547 1.8477-2.1641 2.0039-1.7031 1.0195-0.11328 1.6719-0.1875 4.668 0.53125 2.3359 0.47656 3.543 0.98438 2.5742-0.75 1.8164-0.16016 1.3789 0.050781 2.4648-0.31641 4.1133-0.66406 1.7188-0.29297 1.7188-1.1367 1.4297-2.4492 1.3359-1.875 1.7227-0.62891 1.5156-0.55469 1.1367-1.2227 0.71484-0.92969 1.3828-1.082 1.8672-1.457 1.4844-1.8633 1.6602-1.8086 1.2852-0.40625 2.707-0.03125 1.0977 0.054688 1.207-0.25781 1.4844-0.32031 1.5898-0.90234 0.91797-0.64062 1.0508-0.73828 1.0742-0.48828 2.4805-1.7422 0.96094-0.38281 1.7461-0.69922 3.6172-1.4492 1.5117-0.4375 2.6914-2.4102z" fill="#ccc" fill-rule="evenodd"/>
<path d="m204.9 316.07 0.33984 0.91016 0.003907 1.8164 0.10156 1.0586 0.26953 1.043 0.77344 1.3711 0.81641 0.75781 1.168 0.34375 0.20703 1.0938 0.17188 1.2031 0.29297 1.1406-0.26172 1.0938-0.11328 1.5508 0.33594 1.3984 0.63281 2.1367 0.14062 1.7383 0.40234 2.9414 0.33203 1.5078 0.54297 2.4453 0.125 1.0781 0.33203 1.4375 0.4375 2.1562 0.80859 1.3867-1.5234 1.2578-1.207 0.67578-0.95312 0.88672-1.5586 1.6445-2.5 1.1172-1.4805 0.66406-1.4258 0.34766-1.3125 0.51172-0.99219 0.21484-2.9258 0.28516-2.3555 1.0625-1.9844 0.37109-1.3984 0.78125-1.8789 1.7695-1.207 0.94141-0.58203 0.92188-1.5273 1.0781-0.65234 0.79688-2.3945 2.1797-1.0625 1.0312-0.42578 0.9375 0.30078 1.8789-0.015625 1.4336-0.33984 1.0117-0.99219 4.1094-0.85547 1.7383-1.3828 3.0391-1.9961 0.59375-1.3477 0.51562-2.3398 0.38672-1.3672 0.72266-1.1914 0.62891-2.9062 0.14453-1.1328-0.13672-5.168 1.293-1.7266 1.3359-1.4961 1.1914-1.7734 0.55469-1.6055 0.082031-1.5508 0.25-2.5195 0.96875-3.6016 1.6562-1.6602 1.2461-1.1328 2.8984-0.80469 1.8359-0.65625 2.918-0.42578 1.8672-0.058593 1.2812 0.51562 1.6953 1.9062 3.3945-1.0039 1.4727-1.0742 1.1211-2.3867 1.7656-0.83203 1.1758-2.5898-2.0625-1.0898-2.1758-1.4375-3.8516-1.8281-2.7969-2.6055-1.7109-4.043-3.0703-2.5078-0.14844-1.0273-2.3242-1.4805-4.3906-0.066407-1.3086 1.1602-1.4922 0.12109-1.2539-0.55078-1.293-1.5977-0.49609-2.4453 0.11719-1.2773-0.20703-0.73047-0.73047-1.7578-2.2148-0.33984-1.4141-1.4961-1.582-1.4023-0.98438-2.5703-0.28516-2.0508-0.98828-1.4531-1.0117-0.074218-1.0977 1.0391-1.207 1.1211-1.8281 1.0586-2.8789 0.27344-1.8984 0.30859-2.1406 0.19141-1.3086 0.74609-1.1406 1.6289-1.3164 0.91016-1.0742 4.9336-0.48047 3.957 0.63281 1.6367 0.79297 1.793 1.2656 1.5391 0.36328 1.7305-1.3672 1.5312-5.1172 0.37109-2.7422 0.10547-2.9023-1.0547-2.1719 0.25-1.1914 1.543-0.69922 2.3203-1.0547 1.8477-2.1641 2.0039-1.7031 1.0195-0.11328 1.6719-0.1875 4.668 0.53125 2.3359 0.47656 3.543 0.98438 2.5742-0.75 1.8164-0.16016 1.3789 0.050781 2.4648-0.31641 4.1133-0.66406 1.7188-0.29297 1.7188-1.1367 1.4297-2.4492 1.3359-1.875 1.7227-0.62891 1.5156-0.55469 1.1367-1.2227 0.71484-0.92969 1.3828-1.082 1.8672-1.457 1.4844-1.8633 1.6602-1.8086 1.2852-0.40625 2.707-0.03125 1.0977 0.054688 1.207-0.25781 1.4844-0.32031 1.5898-0.90234 0.91797-0.64062 1.0508-0.73828 1.0742-0.48828 2.4805-1.7422 0.96094-0.38281 1.7461-0.69922 3.6172-1.4492 1.5117-0.4375 2.6914-2.4102 0.76953 1.25" fill="none" stroke="#fff" stroke-linecap="round" stroke-linejoin="round" stroke-miterlimit="10" stroke-width="2"/>
<path d="m95.414 165.39 0.61719 0.52734 1.0195 1.1133 0.375 1.207 0.054688 1.1641 0.30469 1.0508 0.27344 1.4648 0.53125 1 0.51562 0.96094 0.88281 2.4883 0.20703 2.8516 0.21875 1.5508 1.0938 1.8672 1.0039 2.3516 1.7461 2.3516 0.44141 1.0859-0.76172 1.9609-1.6875 1.6562-0.78906 1.0859-0.4375 1.3906-0.011719 1.2773-0.22656 1.1758-0.56641 1.0664-0.64844 1.0234 0.27734 1.7773 1.543 1.9141 0.54297 1.0508 0.50781 1.1211 0.73047 2.0391 0.18359 1-0.82812 1.2852-1.7539 0.60547-1.0352 1.0469 0.21094 2.2969-0.085938 1.8086-0.29688 1.2461 0.83594 0.60156 1.1406-0.21875 1.0234 0.46094 0.57031 1 0.81641 0.66406 1.2695 0.17578 2.0234 0.60938 1.2188 0.14844 1.0742 0.22266 1.1328 0.35547-1.1914 0.91797-1.1758 0.45703-1.1914 0.21484-2.1523 0.55078-2.4805 0.59766-1.6953 0.30469-1.6602-0.40234-1.0625-0.69141-2.582-0.88672-2.7148-0.73047-2.2461-0.5-3.2812-1.0234-1.7188-0.035157-2.0312-0.035156-3.5977-0.070312-1.6367 0.17969-3.6523 1.3828-1.5469 1.0312-1.0742 1.0859-0.83984 0.84766-0.66406 1.1328-0.38672 1.3945-0.41797 1.5117-0.63672 1.5625-2.1445 0.50391-2.9805 0.69922-1.1172 0.26562-1.3164 1.3008 0.019531 1.918 0.13281 1.7344 0.050782 1.7891 0.20312 1.9609-0.55469 2.3945-1.0234 0.35547-1.7539 1.25 0.011719 2.7852-0.48047 2.3516-0.41797 1.5312-0.47266 1.7344v1.0195l-0.39062 2.0039-0.87891 1.6953-0.61328 1.5352-0.52344 1.957-0.20703 1.0586 0.25 1 0.51953 1.293 0.39453 2.8359-0.30078 1.957 0.39062 1.7773-0.48047 2.082-1.4688 2.1211-1.3945 0.55078-1.0625 0.41797-1.4414 1.6133-1.6719 1.8672-2.2773 0.93359-1.957 1.0547-1.3867 0.51562-1.1641 0.42969-1.8828 0.53516-1.1055 1.668-0.49219 1.1289-0.72266 1.6719-2.0625 2.2852-2.3008 1.0156-2.2227 0.64062-1.6953 1.7344-4.2969 1.8477-3.7578 1.8086-0.82812-1.0078-1.8086-0.91797-1.5391-1.5586-0.88281-1.0273-0.65234-1.2891-1.0078-1.9922-1.3984-1.9727-1.4453-0.75781-2.0625-0.089844-2.1328 0.066406-1.3086-0.6875-0.12891-1.8789-0.18359-1.2891-0.96094-1.2969-0.93359-1.7422-0.23438-1.2461-2.1289-4.1797-0.625-5.375-0.54297-1.9219-0.18359-0.98828 0.17969-1.0508 0.78125-1.4414 2.0352-1.0703 1.5234-1.7852v-3.9453l0.47656-2.5898 0.65234-1.5703 0.55859-0.99609 1.332-2.2852 1.0195-1.5742 0.63281-1.3516 0.60938-0.96875 0.52344-1.2695 0.13672-1.4375 0.64062-1.7148 4.9492-0.21875 2.8867-0.49609 2.1836-0.46875 1.7383-0.60547 1.0781-0.80078 0.25-1.1328 1.6875-0.39844 1.8555-0.18359 1.7422 0.37109 1.6445 0.34766 0.83984 0.78906 0.98047 0.3125 1.2148-0.023437 1.4375-0.027344 1.1875-0.80078 1.1328-0.9375 0.92188-0.93359 2.0312-1.2969 0.85547-1.0039 1.7305-1.3359 2.1406-3.3828 1.1289-1.3008 3.1133-0.48828 1.2148-0.57422 1.2383-0.875 1.3047-0.44922 1.2148-0.41797 1.3008-0.64062 0.92188-1.4805 0.45703-1.2617 1.1289-2.8203 2.0195-3.5234 0.13281-1.6094 0.23438-4.2344 0.5625-3.1875 0.32031-1.2969 0.25391-1.0195 1.2148-2.6289 1.3086-0.82812 0.83594-0.63281 1.2812-2.4297 0.52734-2.8047 1.4609-3.3828 1.6562-1.6758 2.0898-0.95312 4.0703-0.61328 1.5078-0.67969 1.5898-1.1133 0.83594-1.582 0.69922-1.9336 0.12109-3.2109 0.63672-1.6445 1.9844-1.2969 1.3789-0.86328 2.5625-1.9453 0.98438-0.69531 0.69531-0.94922 0.67188-0.91797 0.52734-0.86719 0.95703-1.043 2.2969-1.6406 1.0742-0.76172z" fill="#0a5394" fill-rule="evenodd"/>
<path d="m95.414 165.39 0.61719 0.52734 1.0195 1.1133 0.375 1.207 0.054688 1.1641 0.30469 1.0508 0.27344 1.4648 0.53125 1 0.51562 0.96094 0.88281 2.4883 0.20703 2.8516 0.21875 1.5508 1.0938 1.8672 1.0039 2.3516 1.7461 2.3516 0.44141 1.0859-0.76172 1.9609-1.6875 1.6562-0.78906 1.0859-0.4375 1.3906-0.011719 1.2773-0.22656 1.1758-0.56641 1.0664-0.64844 1.0234 0.27734 1.7773 1.543 1.9141 0.54297 1.0508 0.50781 1.1211 0.73047 2.0391 0.18359 1-0.82812 1.2852-1.7539 0.60547-1.0352 1.0469 0.21094 2.2969-0.085938 1.8086-0.29688 1.2461 0.83594 0.60156 1.1406-0.21875 1.0234 0.46094 0.57031 1 0.81641 0.66406 1.2695 0.17578 2.0234 0.60938 1.2188 0.14844 1.0742 0.22266 1.1328 0.35547-1.1914 0.91797-1.1758 0.45703-1.1914 0.21484-2.1523 0.55078-2.4805 0.59766-1.6953 0.30469-1.6602-0.40234-1.0625-0.69141-2.582-0.88672-2.7148-0.73047-2.2461-0.5-3.2812-1.0234-1.7188-0.035157-2.0312-0.035156-3.5977-0.070312-1.6367 0.17969-3.6523 1.3828-1.5469 1.0312-1.0742 1.0859-0.83984 0.84766-0.66406 1.1328-0.38672 1.3945-0.41797 1.5117-0.63672 1.5625-2.1445 0.50391-2.9805 0.69922-1.1172 0.26562-1.3164 1.3008 0.019531 1.918 0.13281 1.7344 0.050782 1.7891 0.20312 1.9609-0.55469 2.3945-1.0234 0.35547-1.7539 1.25 0.011719 2.7852-0.48047 2.3516-0.41797 1.5312-0.47266 1.7344v1.0195l-0.39062 2.0039-0.87891 1.6953-0.61328 1.5352-0.52344 1.957-0.20703 1.0586 0.25 1 0.51953 1.293 0.39453 2.8359-0.30078 1.957 0.39062 1.7773-0.48047 2.082-1.4688 2.1211-1.3945 0.55078-1.0625 0.41797-1.4414 1.6133-1.6719 1.8672-2.2773 0.93359-1.957 1.0547-1.3867 0.51562-1.1641 0.42969-1.8828 0.53516-1.1055 1.668-0.49219 1.1289-0.72266 1.6719-2.0625 2.2852-2.3008 1.0156-2.2227 0.64062-1.6953 1.7344-4.2969 1.8477-3.7578 1.8086-0.82812-1.0078-1.8086-0.91797-1.5391-1.5586-0.88281-1.0273-0.65234-1.2891-1.0078-1.9922-1.3984-1.9727-1.4453-0.75781-2.0625-0.089844-2.1328 0.066406-1.3086-0.6875-0.12891-1.8789-0.18359-1.2891-0.96094-1.2969-0.93359-1.7422-0.23438-1.2461-2.1289-4.1797-0.625-5.375-0.54297-1.9219-0.18359-0.98828 0.17969-1.0508 0.78125-1.4414 2.0352-1.0703 1.5234-1.7852v-3.9453l0.47656-2.5898 0.65234-1.5703 0.55859-0.99609 1.332-2.2852 1.0195-1.5742 0.63281-1.3516 0.60938-0.96875 0.52344-1.2695 0.13672-1.4375 0.64062-1.7148 4.9492-0.21875 2.8867-0.49609 2.1836-0.46875 1.7383-0.60547 1.0781-0.80078 0.25-1.1328 1.6875-0.39844 1.8555-0.18359 1.7422 0.37109 1.6445 0.34766 0.83984 0.78906 0.98047 0.3125 1.2148-0.023437 1.4375-0.027344 1.1875-0.80078 1.1328-0.9375 0.92188-0.93359 2.0312-1.2969 0.85547-1.0039 1.7305-1.3359 2.1406-3.3828 1.1289-1.3008 3.1133-0.48828 1.2148-0.57422 1.2383-0.875 1.3047-0.44922 1.2148-0.41797 1.3008-0.64062 0.92188-1.4805 0.45703-1.2617 1.1289-2.8203 2.0195-3.5234 0.13281-1.6094 0.23438-4.2344 0.5625-3.1875 0.32031-1.2969 0.25391-1.0195 1.2148-2.6289 1.3086-0.82812 0.83594-0.63281 1.2812-2.4297 0.52734-2.8047 1.4609-3.3828 1.6562-1.6758 2.0898-0.95312 4.0703-0.61328 1.5078-0.67969 1.5898-1.1133 0.83594-1.582 0.69922-1.9336 0.12109-3.2109 0.63672-1.6445 1.9844-1.2969 1.3789-0.86328 2.5625-1.9453 0.98438-0.69531 0.69531-0.94922 0.67188-0.91797 0.52734-0.86719 0.95703-1.043 2.2969-1.6406 1.0742-0.76172 0.30859 0.39453" fill="none" stroke="#fff" stroke-linecap="round" stroke-linejoin="round" stroke-miterlimit="10"/>
<path d="m98.961 206.46c0 3.5898-2.9102 6.5-6.5 6.5-3.5898 0-6.5-2.9102-6.5-6.5s2.9102-6.5 6.5-6.5c3.5898 0 6.5 2.9102 6.5 6.5" fill="#28c028" fill-rule="evenodd" stroke="#000" stroke-linecap="round" stroke-linejoin="round" stroke-miterlimit="10"/>
<path d="m110.66 223.45 3.2344 1.0156c-0.5 1.793-1.3281 3.125-2.4844 4-1.1484 0.875-2.6016 1.3125-4.3594 1.3125-2.1875 0-3.9844-0.74219-5.3906-2.2344-1.4062-1.5-2.1094-3.5469-2.1094-6.1406 0-2.7383 0.70312-4.8633 2.1094-6.375 1.4141-1.5195 3.2812-2.2812 5.5938-2.2812 2.0078 0 3.6445 0.60156 4.9062 1.7969 0.75 0.69922 1.3125 1.7109 1.6875 3.0312l-3.2969 0.78125c-0.19922-0.85156-0.60547-1.5234-1.2188-2.0156-0.61719-0.5-1.3672-0.75-2.25-0.75-1.2188 0-2.2109 0.4375-2.9688 1.3125-0.76172 0.875-1.1406 2.2969-1.1406 4.2656 0 2.0742 0.375 3.5547 1.125 4.4375 0.75 0.88672 1.7227 1.3281 2.9219 1.3281 0.88281 0 1.6445-0.28125 2.2812-0.84375 0.63281-0.5625 1.0859-1.4414 1.3594-2.6406zm20.922 6.0469h-3.6094l-1.4375-3.7344h-6.5781l-1.3594 3.7344h-3.5312l6.4062-16.469h3.5156zm-6.1094-6.5156-2.2812-6.1094-2.2188 6.1094zm7.8906 6.5156v-16.469h7c1.7578 0 3.0352 0.15234 3.8281 0.45312 0.80078 0.29297 1.4414 0.82031 1.9219 1.5781 0.47656 0.75 0.71875 1.6172 0.71875 2.5938 0 1.2305-0.36719 2.25-1.0938 3.0625-0.73047 0.80469-1.8203 1.3086-3.2656 1.5156 0.71875 0.41797 1.3125 0.88281 1.7812 1.3906 0.46875 0.5 1.0977 1.3867 1.8906 2.6562l2.0156 3.2188h-3.9688l-2.4062-3.5781c-0.85547-1.2812-1.4375-2.0859-1.75-2.4219-0.3125-0.33203-0.64844-0.5625-1-0.6875-0.35547-0.125-0.91406-0.1875-1.6719-0.1875h-0.67188v6.875zm3.3281-9.5h2.4531c1.5938 0 2.5859-0.066406 2.9844-0.20312 0.39453-0.13281 0.70312-0.36328 0.92188-0.6875 0.22656-0.33203 0.34375-0.75 0.34375-1.25 0-0.55078-0.14844-0.99219-0.4375-1.3281-0.29297-0.34375-0.71094-0.5625-1.25-0.65625-0.27344-0.03125-1.0781-0.046875-2.4219-0.046875h-2.5938zm13.281 9.5v-16.469h3.3281v6.4844h6.5v-6.4844h3.3281v16.469h-3.3281v-7.2031h-6.5v7.2031zm16.578-16.469h3.3125v8.9219c0 1.418 0.039062 2.3359 0.125 2.75 0.14453 0.67969 0.48438 1.2188 1.0156 1.625 0.53906 0.40625 1.2734 0.60938 2.2031 0.60938 0.9375 0 1.6445-0.19141 2.125-0.57812 0.47656-0.38281 0.76562-0.85938 0.85938-1.4219 0.10156-0.5625 0.15625-1.4922 0.15625-2.7969v-9.1094h3.3281v8.6562c0 1.9688-0.09375 3.3672-0.28125 4.1875-0.17969 0.8125-0.50781 1.5-0.98438 2.0625-0.48047 0.5625-1.125 1.0117-1.9375 1.3438s-1.8711 0.5-3.1719 0.5c-1.5742 0-2.7656-0.18359-3.5781-0.54688s-1.4531-0.83203-1.9219-1.4062c-0.46875-0.58203-0.77734-1.1914-0.92188-1.8281-0.21875-0.94531-0.32812-2.3438-0.32812-4.1875zm31.469 16.469h-3.6094l-1.4375-3.7344h-6.5781l-1.3594 3.7344h-3.5312l6.4062-16.469h3.5156zm-6.1094-6.5156-2.2812-6.1094-2.2188 6.1094zm18.406 0.46875 3.2344 1.0156c-0.5 1.793-1.3281 3.125-2.4844 4-1.1484 0.875-2.6016 1.3125-4.3594 1.3125-2.1875 0-3.9844-0.74219-5.3906-2.2344-1.4062-1.5-2.1094-3.5469-2.1094-6.1406 0-2.7383 0.70312-4.8633 2.1094-6.375 1.4141-1.5195 3.2812-2.2812 5.5938-2.2812 2.0078 0 3.6445 0.60156 4.9062 1.7969 0.75 0.69922 1.3125 1.7109 1.6875 3.0312l-3.2969 0.78125c-0.19922-0.85156-0.60547-1.5234-1.2188-2.0156-0.61719-0.5-1.3672-0.75-2.25-0.75-1.2188 0-2.2109 0.4375-2.9688 1.3125-0.76172 0.875-1.1406 2.2969-1.1406 4.2656 0 2.0742 0.375 3.5547 1.125 4.4375 0.75 0.88672 1.7227 1.3281 2.9219 1.3281 0.88281 0 1.6445-0.28125 2.2812-0.84375 0.63281-0.5625 1.0859-1.4414 1.3594-2.6406zm0 0" fill="none" stroke="#fff" stroke-linecap="round" stroke-linejoin="round" stroke-miterlimit="10" stroke-width="2"/>
<path d="m110.66 223.45 3.2344 1.0156c-0.5 1.793-1.3281 3.125-2.4844 4-1.1484 0.875-2.6016 1.3125-4.3594 1.3125-2.1875 0-3.9844-0.74219-5.3906-2.2344-1.4062-1.5-2.1094-3.5469-2.1094-6.1406 0-2.7383 0.70312-4.8633 2.1094-6.375 1.4141-1.5195 3.2812-2.2812 5.5938-2.2812 2.0078 0 3.6445 0.60156 4.9062 1.7969 0.75 0.69922 1.3125 1.7109 1.6875 3.0312l-3.2969 0.78125c-0.19922-0.85156-0.60547-1.5234-1.2188-2.0156-0.61719-0.5-1.3672-0.75-2.25-0.75-1.2188 0-2.2109 0.4375-2.9688 1.3125-0.76172 0.875-1.1406 2.2969-1.1406 4.2656 0 2.0742 0.375 3.5547 1.125 4.4375 0.75 0.88672 1.7227 1.3281 2.9219 1.3281 0.88281 0 1.6445-0.28125 2.2812-0.84375 0.63281-0.5625 1.0859-1.4414 1.3594-2.6406zm20.922 6.0469h-3.6094l-1.4375-3.7344h-6.5781l-1.3594 3.7344h-3.5312l6.4062-16.469h3.5156zm-6.1094-6.5156-2.2812-6.1094-2.2188 6.1094zm7.8906 6.5156v-16.469h7c1.7578 0 3.0352 0.15234 3.8281 0.45312 0.80078 0.29297 1.4414 0.82031 1.9219 1.5781 0.47656 0.75 0.71875 1.6172 0.71875 2.5938 0 1.2305-0.36719 2.25-1.0938 3.0625-0.73047 0.80469-1.8203 1.3086-3.2656 1.5156 0.71875 0.41797 1.3125 0.88281 1.7812 1.3906 0.46875 0.5 1.0977 1.3867 1.8906 2.6562l2.0156 3.2188h-3.9688l-2.4062-3.5781c-0.85547-1.2812-1.4375-2.0859-1.75-2.4219-0.3125-0.33203-0.64844-0.5625-1-0.6875-0.35547-0.125-0.91406-0.1875-1.6719-0.1875h-0.67188v6.875zm3.3281-9.5h2.4531c1.5938 0 2.5859-0.066406 2.9844-0.20312 0.39453-0.13281 0.70312-0.36328 0.92188-0.6875 0.22656-0.33203 0.34375-0.75 0.34375-1.25 0-0.55078-0.14844-0.99219-0.4375-1.3281-0.29297-0.34375-0.71094-0.5625-1.25-0.65625-0.27344-0.03125-1.0781-0.046875-2.4219-0.046875h-2.5938zm13.281 9.5v-16.469h3.3281v6.4844h6.5v-6.4844h3.3281v16.469h-3.3281v-7.2031h-6.5v7.2031zm16.578-16.469h3.3125v8.9219c0 1.418 0.039062 2.3359 0.125 2.75 0.14453 0.67969 0.48438 1.2188 1.0156 1.625 0.53906 0.40625 1.2734 0.60938 2.2031 0.60938 0.9375 0 1.6445-0.19141 2.125-0.57812 0.47656-0.38281 0.76562-0.85938 0.85938-1.4219 0.10156-0.5625 0.15625-1.4922 0.15625-2.7969v-9.1094h3.3281v8.6562c0 1.9688-0.09375 3.3672-0.28125 4.1875-0.17969 0.8125-0.50781 1.5-0.98438 2.0625-0.48047 0.5625-1.125 1.0117-1.9375 1.3438s-1.8711 0.5-3.1719 0.5c-1.5742 0-2.7656-0.18359-3.5781-0.54688s-1.4531-0.83203-1.9219-1.4062c-0.46875-0.58203-0.77734-1.1914-0.92188-1.8281-0.21875-0.94531-0.32812-2.3438-0.32812-4.1875zm31.469 16.469h-3.6094l-1.4375-3.7344h-6.5781l-1.3594 3.7344h-3.5312l6.4062-16.469h3.5156zm-6.1094-6.5156-2.2812-6.1094-2.2188 6.1094zm18.406 0.46875 3.2344 1.0156c-0.5 1.793-1.3281 3.125-2.4844 4-1.1484 0.875-2.6016 1.3125-4.3594 1.3125-2.1875 0-3.9844-0.74219-5.3906-2.2344-1.4062-1.5-2.1094-3.5469-2.1094-6.1406 0-2.7383 0.70312-4.8633 2.1094-6.375 1.4141-1.5195 3.2812-2.2812 5.5938-2.2812 2.0078 0 3.6445 0.60156 4.9062 1.7969 0.75 0.69922 1.3125 1.7109 1.6875 3.0312l-3.2969 0.78125c-0.19922-0.85156-0.60547-1.5234-1.2188-2.0156-0.61719-0.5-1.3672-0.75-2.25-0.75-1.2188 0-2.2109 0.4375-2.9688 1.3125-0.76172 0.875-1.1406 2.2969-1.1406 4.2656 0 2.0742 0.375 3.5547 1.125 4.4375 0.75 0.88672 1.7227 1.3281 2.9219 1.3281 0.88281 0 1.6445-0.28125 2.2812-0.84375 0.63281-0.5625 1.0859-1.4414 1.3594-2.6406z" fill-rule="evenodd"/>
</g>
</svg>
