<?xml version="1.0" encoding="UTF-8"?>
<svg width="415pt" height="500pt" version="1.1" viewBox="0 0 415 500" xmlns="http://www.w3.org/2000/svg">
<g id="a">
<rect width="415" height="500" fill="none"/>
<path d="m120.27 0.011719 0.18359 0.015625 1.0234 0.30859 1.6445-0.26172 1.3945 0.035156 1.7734-0.082031 2 0.23438 0.93359 0.64844 0.74219 0.70312 0.64844 0.95703 0.78516 1.0156 1.3125 0.42578 1.4297 1.0586 0.38672 0.99219 0.89844 0.80469 1.5234 0.28516 1.5312 0.30859 1.5664 0.40234 0.99609 0.35156 0.92578 0.82031 1.4258 0.28516 1.0273 0.51562 1.125 0.44141 1.0977 0.09375 1.1641-0.039063 1.0273 0.40625 0.95312 0.36328 1.0195 0.96484 1.7578 0.13672 1.2695-0.042969 1.8359-0.49219 1.2891 0.19531 1.125 0.28125 1.0898 0.51953 1.4648-0.035157 1.6602-0.33984 1.1562-0.73438 0.72656-0.94922 0.69141-0.89062 0.54688-1.0352 0.9375-0.6875 1.0938 0.50781 1.0742 0.52734 0.125 1.1016-0.16406 1.4766-0.36719 0.96875 0.050781 1.3984-0.17969 1.168-0.43359 1.3438-0.77344 0.72656-0.70312 0.73047-1.043 1.1289-1.6953 0.46875-1.2773 0.050781-1.0195 0.79297-0.95312 0.75781-0.38281 1.0078-0.42188 1.1602-0.17578 1.4766-0.58203 1.2266-0.24219 1.207 0.69141 0.79297 1.3242 0.41406 1.168 0.66016 0.53516 0.96094 0.59766 0.83203 1.1641 1.0859 0.91016 1.4453 0.37109 1.2617 1.2383 1.7695 1.2812 1.7539 2.3516 5.0938 0.42969 0.92188 0.76953 0.79297-0.085938 1.2773 0.039063 1.1914 1 1.6562 1.3594 3.0078 0.61719 0.87109 1.1562 0.53516 1.4766 0.17188 0.78516 1.293 1.1016 0.50781 1.5156 0.42969 0.76562 0.64453 1.2656 0.70312 0.74609 0.78516 1.0273 1.2578 1.0938 1.2422 1.0273 0.75781 0.58594 1.4375 0.66016 0.93359 1.1602 0.64453 1.4727 0.042968 1.2422 0.63281 0.77734 0.77344 0.83594 0.83594 1.0664 1.2344 1.1055 0.71875 1.2461 0.51562 0.85156 0.77734-0.8125 1.1094-1.0117 0.68359-0.95312 0.625-0.49219 0.89844-0.55859 1.0508-1.4453 0.46484-1.0508 0.67969-1.1445 0.69531-0.65234 0.79297-0.36328 1.4609-1 1.4688-0.96875 0.65625-0.87891 0.91797-0.57031 1.3281-0.69141 0.80469-0.77734 1.2539-0.99609 0.20312-1.2266-0.039063-1.5508-0.050781-0.94141 0.54297-1.6953 0.39453-1.4688 0.12109-1.2812 0.17969-1.7734 0.96875-0.71094 0.83984-1.3984 1.2227-1.7031-0.21094-1.4141-0.3125-1.3242-0.18359-0.875-0.66406-1.5664-0.011718-1.3359 0.09375-1.5 0.75-1.2188 0.17578-0.59375 1.582-0.84766 0.92969-1.5117 0.14844-1.0508 0.039063-1.4336-0.058594-1.0312-0.046875-1.2812 1.1172-1.6641-0.23438-1.7617-0.29297-1.1641-0.35547-0.98047-1.4492-0.82812-1.2422-2.332 2.0195-1.4805 0.097656-1.0234-0.10547-1.207-0.12891-1.0508-0.42578-1.0117 0.35156-1.3789-0.25-1.3086-0.40234-1.1836-0.1875-0.45703 1.7383-0.35547 1.1719-0.78516 1.0781-0.98047 0.91797-0.85938 1-1.4883 1.0938-1.6016 0.69531-1.0078 0.27734-0.45312 0.90625-0.69922 1.3555-3.3164 0.84766-1.293 0.48438-2.1953 0.90234-2.5742 0.42969h-1.3047l-1.8555 0.078125-1.0977 0.054688-1.4375 0.67188-0.94531 0.96484-0.51953 1.1133-0.023438 1.332 0.039063 1.1094 0.66016 1.2812 0.50391 0.875 0.33203 1.0117-0.38281 0.99219-0.48828 0.88281-1.2148-0.10938-1.1953 0.82422-0.69922 0.83203-0.45703 0.94141-0.69141 0.96094-0.73047 0.78516-1.082 1.4492-0.14062 1.1016 1.8867 2.0977-0.34766 0.94141-0.55859 2.293-1.3438 1.4219-2.3945 1.6211-1.082 0.59375-1.1875-0.14844-1.0117-0.97266-0.40234-1.7148-0.52344-0.85938-0.94531-0.96875-0.65625-0.90625-1.3555-0.82422-1.957-0.54688-1.5-0.69531-1.9258-0.60156-1.2422 0.13281-1.0273 0.63672-0.64453 1.2305-0.18359 2.0938-0.20312 1 0.12891 1.9492-0.45312 1.3047-2.1836 1.2109-1.0117 0.67969-1.0898 2.082-1.4219 1.9141-2.0664 1.7969-2.2734 1.2539-4.4805 1.8086-2.4336 0.72266-1.9414 1.6953-0.63281 1.5977-0.29297 1.2188-0.042969 1.6875 0.15625 1.8008-0.38281 1.125-0.83203 1.1289-1.7578 0.69531-1.0352 0.69922-1.0625 1.1094-0.51562 2.0312-1.2148 1.207-1.2617 1.0352-0.86328 0.80078-0.0625 1.3555-0.33594 1.2461-1.2578 0.41406-1.875 1.0117-1.5273 0.77734-1.0977 0.51953-1.3828 0.48828-2.3281 1.1797-0.59766-0.8125-1.2812-0.078125-0.10547-1.0234 0.20312-1.0391-0.91797-0.93359-0.44531-1.2227 0.51953-0.94531 0.76172-0.78516-0.80469-0.87891-0.94922-0.48047-1.1133 0.12109-1.1406 0.25-0.69141-1.4141 0.42969-0.90625-0.097656-1.0352-0.11328-1.2383-0.085937-1.1914-0.14062-1.1758-1.0664-0.80078-0.82031-0.70312-0.86719-0.51172-0.73828-0.82422-1.1016-0.046875-0.66016-0.75781-0.72266-0.80469-1.0078 0.070313-0.83594-0.61719-0.94922-0.42969-0.98438 0.27344-0.46094-0.89844 0.92969-0.41406-0.62109-0.80078-0.92969-0.37891-0.95312-0.32422-0.92578-0.39453-0.95312-0.34375-0.10156-1.043 1.0234 0.19141 0.85547-0.54297 1.0156-0.23047-0.39062-0.96484 0.11719-1.0977-1.0039-0.4375-0.87109-0.48828 1.0781-0.27344 0.98828-0.26172 1.0117 0.10938 0.47266-0.90625 0.21484-1.4414-0.066406-1.625-0.23047-1.2188-0.28125-1.1523-1.0117-0.40625-0.67969-0.76172 0.98828-0.32422 1.1328 0.007812 0.48828-0.96094-0.007812-1.1914-0.27344-1.1055-0.50391-1.0117-0.63672-0.82812-0.97266-0.40625-0.85547-0.52344 0.99609-0.24609-0.19922-1.0273-0.79688-0.61328-0.32031-1.0039 0.99219-0.23047 0.80469-0.68359 1.1055-0.27734 0.75781-0.75391-0.4375-1.0156-0.34766-0.96875-0.75-1.1953 0.40625-0.97266-0.92188-0.57422 0.11328-1.1406-0.28906-1.0469-0.79297-0.66406-0.99219-0.1875-1.0352 0.15625-0.57031-1.0938 0.91016-0.71094-0.050782-1.3438-0.79297-0.68359 0.57422-0.96875 0.003907-1.3828-0.77344-0.90625-1.0859-0.54297-0.85156-0.86328-0.55859-0.83984-0.82031-0.85938-0.50781-0.99609-0.49219-0.89453 0.58984-1-0.91016-0.41406 0.69531-0.82812 0.69141-0.94922 0.027344-1.0039-0.55469-1.5 0.5625-1.4141 0.6875-0.97656 1.1523 0.25 1.0352-0.16406 0.83594-1.2344-0.03125-1.1523-0.1875-1.0586-0.71094-0.93359-0.48438-1.0625-0.003906-1.5391 0.90234-0.63672-0.36719-1.0977-0.63281-0.8125 0.21484-1.0195-0.26562-1.0508-0.074219-1.1406 1.1289 0.10156 1.0859 0.28906-0.078125-1.1523-0.92188-0.41797 1.0547-0.058594 1.0273 0.10547 0.39453-1.1367-0.41016-1.0469 0.95312-0.57422 0.27734-1.2109 0.80859-0.68359 0.007813-1.1094 0.39062-0.97656-0.32031-1.0234-0.14453-1.125 0.92188-0.9375-0.80078-2.3555 0.91406-0.48438 0.41016-1.6289-0.625-1.0117-0.20703-1.1016 0.73047-0.92188-0.36719-0.96484 0.55859-2.1641-0.20312-1.9922 1.1094-1.6641 0.41016-1.5508 0.070312-1.8164 1.3359-1.543 1.7969-0.98438 1.2148-1.5664 1.168-1.2852 1.7422-1.9141 1.6211-0.63281 1.1445-0.34375 1.5469-2.0234 1.1719-0.12891 1.7852-0.37109 1.3555-1.207 0.92188-0.71094 1.7188-1.2539 1.1484-0.83203 0.8125-0.58984 1.7109-1.1914 1.707-0.23047 1.5664 0.11719 1.5195-2.2109 0.875-1.6602 0.99609-0.875 1.1094-0.89844 1.0273-0.73438 1.2891-1.7617 0.54297-0.92578 0.88672-1.0781 1.2734-1.3008 0.9375-1.0039 1.2734-1.1836 1.5312-1.2461 1.418-1.6875 0.96484-1.4414 1.2578-0.67969 1.8164-0.35938 1.9805-0.24609 2.8867-0.42578 1.4297-0.14453 3.2305-0.45703 1.4297 0.16797 2.1367 0.64844 1.4844 0.75391 1.4219 0.96094 1.4648 0.96094 1.2578 0.38672 1.5898 0.13672 1.5508 0.003907 1.418 0.11328 1.9492 0.55859 2.2812 0.38281 1.1797-0.14453 1.6211-0.85156 1.6758-0.97656 1.043-0.66016 1.1641-1.0742 0.45312-0.93359 0.42188-1.043 1.5742-2.1914 0.375-1.2578 0.96875-0.67969 0.78125-0.78125 0.1875-1.1719 1.0547-0.27344 0.88281-0.64062 0.53906-0.94531 0.54688-0.91797 1.0156-1.0742 1.4453-1.4609z" fill="#ccc" fill-rule="evenodd"/>
<path d="m120.27 0.011719 0.18359 0.015625 1.0234 0.30859 1.6445-0.26172 1.3945 0.035156 1.7734-0.082031 2 0.23438 0.93359 0.64844 0.74219 0.70312 0.64844 0.95703 0.78516 1.0156 1.3125 0.42578 1.4297 1.0586 0.38672 0.99219 0.89844 0.80469 1.5234 0.28516 1.5312 0.30859 1.5664 0.40234 0.99609 0.35156 0.92578 0.82031 1.4258 0.28516 1.0273 0.51562 1.125 0.44141 1.0977 0.09375 1.1641-0.039063 1.0273 0.40625 0.95312 0.36328 1.0195 0.96484 1.7578 0.13672 1.2695-0.042969 1.8359-0.49219 1.2891 0.19531 1.125 0.28125 1.0898 0.51953 1.4648-0.035157 1.6602-0.33984 1.1562-0.73438 0.72656-0.94922 0.69141-0.89062 0.54688-1.0352 0.9375-0.6875 1.0938 0.50781 1.0742 0.52734 0.125 1.1016-0.16406 1.4766-0.36719 0.96875 0.050781 1.3984-0.17969 1.168-0.43359 1.3438-0.77344 0.72656-0.70312 0.73047-1.043 1.1289-1.6953 0.46875-1.2773 0.050781-1.0195 0.79297-0.95312 0.75781-0.38281 1.0078-0.42188 1.1602-0.17578 1.4766-0.58203 1.2266-0.24219 1.207 0.69141 0.79297 1.3242 0.41406 1.168 0.66016 0.53516 0.96094 0.59766 0.83203 1.1641 1.0859 0.91016 1.4453 0.37109 1.2617 1.2383 1.7695 1.2812 1.7539 2.3516 5.0938 0.42969 0.92188 0.76953 0.79297-0.085938 1.2773 0.039063 1.1914 1 1.6562 1.3594 3.0078 0.61719 0.87109 1.1562 0.53516 1.4766 0.17188 0.78516 1.293 1.1016 0.50781 1.5156 0.42969 0.76562 0.64453 1.2656 0.70312 0.74609 0.78516 1.0273 1.2578 1.0938 1.2422 1.0273 0.75781 0.58594 1.4375 0.66016 0.93359 1.1602 0.64453 1.4727 0.042968 1.2422 0.63281 0.77734 0.77344 0.83594 0.83594 1.0664 1.2344 1.1055 0.71875 1.2461 0.51562 0.85156 0.77734-0.8125 1.1094-1.0117 0.68359-0.95312 0.625-0.49219 0.89844-0.55859 1.0508-1.4453 0.46484-1.0508 0.67969-1.1445 0.69531-0.65234 0.79297-0.36328 1.4609-1 1.4688-0.96875 0.65625-0.87891 0.91797-0.57031 1.3281-0.69141 0.80469-0.77734 1.2539-0.99609 0.20312-1.2266-0.039063-1.5508-0.050781-0.94141 0.54297-1.6953 0.39453-1.4688 0.12109-1.2812 0.17969-1.7734 0.96875-0.71094 0.83984-1.3984 1.2227-1.7031-0.21094-1.4141-0.3125-1.3242-0.18359-0.875-0.66406-1.5664-0.011718-1.3359 0.09375-1.5 0.75-1.2188 0.17578-0.59375 1.582-0.84766 0.92969-1.5117 0.14844-1.0508 0.039063-1.4336-0.058594-1.0312-0.046875-1.2812 1.1172-1.6641-0.23438-1.7617-0.29297-1.1641-0.35547-0.98047-1.4492-0.82812-1.2422-2.332 2.0195-1.4805 0.097656-1.0234-0.10547-1.207-0.12891-1.0508-0.42578-1.0117 0.35156-1.3789-0.25-1.3086-0.40234-1.1836-0.1875-0.45703 1.7383-0.35547 1.1719-0.78516 1.0781-0.98047 0.91797-0.85938 1-1.4883 1.0938-1.6016 0.69531-1.0078 0.27734-0.45312 0.90625-0.69922 1.3555-3.3164 0.84766-1.293 0.48438-2.1953 0.90234-2.5742 0.42969h-1.3047l-1.8555 0.078125-1.0977 0.054688-1.4375 0.67188-0.94531 0.96484-0.51953 1.1133-0.023438 1.332 0.039063 1.1094 0.66016 1.2812 0.50391 0.875 0.33203 1.0117-0.38281 0.99219-0.48828 0.88281-1.2148-0.10938-1.1953 0.82422-0.69922 0.83203-0.45703 0.94141-0.69141 0.96094-0.73047 0.78516-1.082 1.4492-0.14062 1.1016 1.8867 2.0977-0.34766 0.94141-0.55859 2.293-1.3438 1.4219-2.3945 1.6211-1.082 0.59375-1.1875-0.14844-1.0117-0.97266-0.40234-1.7148-0.52344-0.85938-0.94531-0.96875-0.65625-0.90625-1.3555-0.82422-1.957-0.54688-1.5-0.69531-1.9258-0.60156-1.2422 0.13281-1.0273 0.63672-0.64453 1.2305-0.18359 2.0938-0.20312 1 0.12891 1.9492-0.45312 1.3047-2.1836 1.2109-1.0117 0.67969-1.0898 2.082-1.4219 1.9141-2.0664 1.7969-2.2734 1.2539-4.4805 1.8086-2.4336 0.72266-1.9414 1.6953-0.63281 1.5977-0.29297 1.2188-0.042969 1.6875 0.15625 1.8008-0.38281 1.125-0.83203 1.1289-1.7578 0.69531-1.0352 0.69922-1.0625 1.1094-0.51562 2.0312-1.2148 1.207-1.2617 1.0352-0.86328 0.80078-0.0625 1.3555-0.33594 1.2461-1.2578 0.41406-1.875 1.0117-1.5273 0.77734-1.0977 0.51953-1.3828 0.48828-2.3281 1.1797-0.59766-0.8125-1.2812-0.078125-0.10547-1.0234 0.20312-1.0391-0.91797-0.93359-0.44531-1.2227 0.51953-0.94531 0.76172-0.78516-0.80469-0.87891-0.94922-0.48047-1.1133 0.12109-1.1406 0.25-0.69141-1.4141 0.42969-0.90625-0.097656-1.0352-0.11328-1.2383-0.085937-1.1914-0.14062-1.1758-1.0664-0.80078-0.82031-0.70312-0.86719-0.51172-0.73828-0.82422-1.1016-0.046875-0.66016-0.75781-0.72266-0.80469-1.0078 0.070313-0.83594-0.61719-0.94922-0.42969-0.98438 0.27344-0.46094-0.89844 0.92969-0.41406-0.62109-0.80078-0.92969-0.37891-0.95312-0.32422-0.92578-0.39453-0.95312-0.34375-0.10156-1.043 1.0234 0.19141 0.85547-0.54297 1.0156-0.23047-0.39062-0.96484 0.11719-1.0977-1.0039-0.4375-0.87109-0.48828 1.0781-0.27344 0.98828-0.26172 1.0117 0.10938 0.47266-0.90625 0.21484-1.4414-0.066406-1.625-0.23047-1.2188-0.28125-1.1523-1.0117-0.40625-0.67969-0.76172 0.98828-0.32422 1.1328 0.007812 0.48828-0.96094-0.007812-1.1914-0.27344-1.1055-0.50391-1.0117-0.63672-0.82812-0.97266-0.40625-0.85547-0.52344 0.99609-0.24609-0.19922-1.0273-0.79688-0.61328-0.32031-1.0039 0.99219-0.23047 0.80469-0.68359 1.1055-0.27734 0.75781-0.75391-0.4375-1.0156-0.34766-0.96875-0.75-1.1953 0.40625-0.97266-0.92188-0.57422 0.11328-1.1406-0.28906-1.0469-0.79297-0.66406-0.99219-0.1875-1.0352 0.15625-0.57031-1.0938 0.91016-0.71094-0.050782-1.3438-0.79297-0.68359 0.57422-0.96875 0.003907-1.3828-0.77344-0.90625-1.0859-0.54297-0.85156-0.86328-0.55859-0.83984-0.82031-0.85938-0.50781-0.99609-0.49219-0.89453 0.58984-1-0.91016-0.41406 0.69531-0.82812 0.69141-0.94922 0.027344-1.0039-0.55469-1.5 0.5625-1.4141 0.6875-0.97656 1.1523 0.25 1.0352-0.16406 0.83594-1.2344-0.03125-1.1523-0.1875-1.0586-0.71094-0.93359-0.48438-1.0625-0.003906-1.5391 0.90234-0.63672-0.36719-1.0977-0.63281-0.8125 0.21484-1.0195-0.26562-1.0508-0.074219-1.1406 1.1289 0.10156 1.0859 0.28906-0.078125-1.1523-0.92188-0.41797 1.0547-0.058594 1.0273 0.10547 0.39453-1.1367-0.41016-1.0469 0.95312-0.57422 0.27734-1.2109 0.80859-0.68359 0.007813-1.1094 0.39062-0.97656-0.32031-1.0234-0.14453-1.125 0.92188-0.9375-0.80078-2.3555 0.91406-0.48438 0.41016-1.6289-0.625-1.0117-0.20703-1.1016 0.73047-0.92188-0.36719-0.96484 0.55859-2.1641-0.20312-1.9922 1.1094-1.6641 0.41016-1.5508 0.070312-1.8164 1.3359-1.543 1.7969-0.98438 1.2148-1.5664 1.168-1.2852 1.7422-1.9141 1.6211-0.63281 1.1445-0.34375 1.5469-2.0234 1.1719-0.12891 1.7852-0.37109 1.3555-1.207 0.92188-0.71094 1.7188-1.2539 1.1484-0.83203 0.8125-0.58984 1.7109-1.1914 1.707-0.23047 1.5664 0.11719 1.5195-2.2109 0.875-1.6602 0.99609-0.875 1.1094-0.89844 1.0273-0.73438 1.2891-1.7617 0.54297-0.92578 0.88672-1.0781 1.2734-1.3008 0.9375-1.0039 1.2734-1.1836 1.5312-1.2461 1.418-1.6875 0.96484-1.4414 1.2578-0.67969 1.8164-0.35938 1.9805-0.24609 2.8867-0.42578 1.4297-0.14453 3.2305-0.45703 1.4297 0.16797 2.1367 0.64844 1.4844 0.75391 1.4219 0.96094 1.4648 0.96094 1.2578 0.38672 1.5898 0.13672 1.5508 0.003907 1.418 0.11328 1.9492 0.55859 2.2812 0.38281 1.1797-0.14453 1.6211-0.85156 1.6758-0.97656 1.043-0.66016 1.1641-1.0742 0.45312-0.93359 0.42188-1.043 1.5742-2.1914 0.375-1.2578 0.96875-0.67969 0.78125-0.78125 0.1875-1.1719 1.0547-0.27344 0.88281-0.64062 0.53906-0.94531 0.54688-0.91797 1.0156-1.0742 1.4453-1.4609 0.44922-0.019531" fill="none" stroke="#fff" stroke-linecap="round" stroke-linejoin="round" stroke-miterlimit="10" stroke-width="2"/>
<path d="m219.68 66.328 1.4023 0.47656 1.1914 0.85156 0.99609 0.38281 1.207 0.027343 1.6406 0.0625 1.25 0.50391 1.5859 0.25391 1.3711 0.30859 0.80859 0.72266 1.1758 1.8906 0.94141 1.0625 0.59375 1.1836 2.1094 1.6641 0.95312 0.75781 1.1133 0.59766 2.5273 2.1289 1.0938 0.94922 0.50781 1.1211-0.80859 0.76953-1.7539-0.058594-1.3398-0.42188-1.1797 0.20703-1.2188 1.5703 0.51953 0.91016 1.2109 1.082 0.79297 1.0078 0.55469 0.86719-0.078125 1.25 0.50391 1.1719 0.46484 1.4492 0.46875 1.0664 0.76562 1.5 0.80469 2.0859 0.90234 1.2734 0.60547 1.0781 0.64453 1.5117 0.41016 1.1094 0.47656 1.4727 0.046875 1.4375-0.28125 1.3086-0.80469 1.2539-0.58594 0.93359 0.43359 1.3906 0.39453 1.207 0.19141 1.0586 0.37891 1.7891 0.046875 1.2695 0.53125 1.6328 0.41016 1.457-0.015625 1.2812 0.38672 1.0195-0.12891 1.2461-0.30859 1.043-1.4922 0.83594-1.0859 0.85156-0.8125 1.2305-0.82031 1.4297 0.011719 1.1406-0.066406 1.0859-0.70703 1.0391-0.57422 0.90625-0.875 0.77344-0.36328 1.5352-0.25781 1.0664-0.10938 1.3242-0.87109 1.6641-1.2734 1.7422-1.0391 0.73438-0.96484 0.46094-1.0039 0.070312-1.1406 0.30078-0.77344 1.1953 0.027343 1.207 0.019532 1.0977-0.25781 1.0586 0.03125 1.0273-0.23047 1.1289-0.58984 1.1953 0.4375 1.5781 0.26953 1.0234-0.17578 1.0859-0.12109 1.1367 0.28906 1.0898 0.88672-0.63672 1.1172-0.60156 0.51953-1.2031 0.91406-0.88281 0.57812-0.96875 3.0977-1.3555 1.418-0.25781 1.3594-0.37891 1.3867-0.19531 1.1289-0.53516 1.2344 0.11719 1.0273 0.10547 1.2734-0.019532 1.0156 0.31641 1.1211-0.050782 1.4102-0.1875 1.2812-0.082031 1.7734 0.51172 1.0117 0.125 1.707-0.11328 1.3438 0.042968 1.1445-0.24609 1.25 0.050781 1.7305 0.078125 2.0859 0.054687 1.5781 0.64062 1.0977 0.43359 0.98047 0.23828 1.0352 0.56641 1.0938 0.55859 0.98438 0.22656 0.96094 0.61719 0.88672 0.87891 0.50391 1.1523 0.85938 1.832 0.44922 1.1211 0.83984 1.332 0.92188 1.8086 0.17969 1.332 1.2383 1.2891 0.97266 0.86328-0.85938 0.83984-1.3281 0.11328-0.76562 0.96875-0.58984 0.86719-0.63672 0.96484-0.44531 0.95312-0.43359 1.0352-0.42969 1.0195-0.15625 1.4922 0.44922 1.0039 0.59766 1.2969-0.76562 0.86719 0.66406 1.6016 0.71484 1.293 0.6875 1.0156 0.35938 1.6445-0.29297 1.457 0.16797 1.125 0.96484 0.42188 1.8047 0.59766 1.6797 1.2383 1.2344 1.2188 0.72656 1.4688 0.78516 1.5977 0.46875 0.95312 0.85938 1.2617 0.70312 0.82422 0.89844 0.51953 0.76562 0.86328 1.5938-0.42188 1.3359-1.1445 1.3906-0.14062 1.5469-0.054688 1.2773 0.082031 1.1719 0.16406 1.3086 0.51953 1.4492 0.054688 1.5938 1.1289 1.3203 0.59375 1.4688 0.40625 1.332 0.35156 1.2578-0.054687 1.3438 0.72656 1.0156 0.92969 1.4297 0.67969 0.011719 1.1172-0.85547 1.5898-0.85938 0.86719-1.3047 0.92188-0.92188 0.61719-0.90234 0.60938-0.32031 1.1328-0.41016 0.99609-0.61328 1.2539-0.10156 1.1719 0.007812 1.1797 0.097656 1.3086-0.14062 1.0273 0.20703 1.2773 0.44531 1.1914 0.69141 1.625 0.28125 1.4648 0.14062 1.293 0.60547 1.1172 2.3906 1.5859 1.0742 0.94531 0.71484 0.95312 0.65234 0.95312 1.2148 1.0742 1.207 0.69141 0.86719 0.82031 1.0977 1.0469 0.18359 1.207 0.050781 1.625 0.37891 1.2539-0.089843 1.4844 0.29297 1.3086-0.21094 1.5898 0.375 1.918 0.16016 1.7773 0.007813 1.4688 0.003906 1.1719 0.054687 1.4609-0.25781 1.0391-0.14453 1.4648 1.0195 1.4141 1.3398 0.58594 2.3984-0.97266 0.94141-0.58203 1.4609-0.90625 1.1484-0.17188 1.332-0.41797 1.8555 0.28125 1.3047-0.45312 1.5586-0.20703 1.6797 0.36719 1.1094 0.54688 1.0859 0.24219 1.5156 0.70312 1.1133 0.41797 0.73438 0.8125 0.74219 0.78906 0.48438 1.4805 0.13672 1.2812-0.76562 1.3633-1.1992 1.5898-0.26172 3.1289-1.0273 1.8047-0.1875 1.2695-1.375 1.3555-1.0859 0.96875-0.40234 1.1406-0.79297 2.5586-1.4258 1.4648-0.58594 1.1758-0.32031 2.2305-1.1641 3.832-0.35547 2.1562 0.16016 1.6602 0.97656 1.8945 0.15625 1.0078-0.40625 2.3086-1.2422 1.207-1.4336 2.125-0.59375 1.4297 0.32031 1.6953 0.62891 1.793 0.25781 1.3828 0.36719 1.1602-0.085938 1.0859-0.89062 0.82422-1.4805 1.0156-0.97656 1.6055-0.6875 1.1094-1.4453 1.0977-0.91797 0.67578-0.53125 1.2539-0.85547 1.3398-1.2656 1.457-0.53125 0.88281-0.35938 1.0859 0.3125 1.0586 0.625 1.0625 0.73828 1.4492 0.26562 1.4453-0.29297 0.98828-0.50391 1.2305 0.14453 1.75-0.27344 1.0312-0.011719 1.0781 0.10938 0.99609 0.35547 2.5977-0.097656 1.2422-1.0312 2.375-0.42578 1.0859-0.23047 1.4023 0.023437 1.0156-0.19141 1.1172-0.69531 2.0703 0.019532 1.1406-0.41016 2.1914v1.0273l0.89453 1.2188-0.21875 2.168-0.13281 1.3633-0.90234 1.0234-0.95703 0.69531-1.3242 0.73047-2.2188 0.015625-1.8984-0.31641-1.3125-0.35938-1.625-0.83984-1.6836-0.16016-1.3086 0.20312-1.2461 0.67969-1.3047 0.13281-1.8633-0.34766-1.6133 0.1875-0.94531-0.40625-1.2539-0.69922-1.2148-0.55859-0.81641 0.76562-0.71094 0.80469-0.95312 0.36328-1.3125-0.30469-1.125-0.71094-1.5625-0.32031-0.60156 1.0898-1.2109 1.8164-0.082031 1.125 0.84766 0.90234 0.20312 1.3008-0.23047 1.8008-0.47266 2.2812-0.44922 1.082-0.61328 1.3359 0.98047 2.0391 0.32422 1.0391-0.29297 1.7695 0.39844 1.4258 1.168 1.707 0.20312 1.3281-0.75391 1.3047 0.71094 2.3086 0.097656 1.5156-0.66016 0.83594-0.49219 1.2109 0.10156 1.043 0.45703 0.99219-0.58984 0.86328-0.75 1.0039 0.57031 1.8594 0.76953 1.1445-0.17188 1.7422 0.89844 1.6602-0.14062 1.8984-0.26953 1.418 0.097656 1.0977 1.0195 1.4141-0.23828 1.1836-1.7422 0.88281-0.79297 1.1875-0.71094 0.73047-0.71484 2.0312-0.046875 1.7109-0.30078 0.97656-0.13672 2.3438-0.44531 1.293-1.0469 0.66406-1.8477-0.73828-1.2539 0.070312-0.22656 1.668 0.73438 1.0312 0.75781 0.78906 0.71875 1.4844-0.38672 0.95703-1.3984 1.2031-1.793 0.89453-1.4102 0.40625-1.3984 0.94531-1.6953 2.2266-0.51562 1.3555-0.58984 0.83594-1.3438 0.28906-1.4688 0.62109-0.80469 0.74609-1.1094 1.3672-0.55859 1.1953 0.27734 1.9922 0.023438 1.1445-0.52734 1.5703-1.1055 1.9219-1.3867 0.81641-1.4297 0.28125 0.11328 1.0547 0.60938 1.1133 0.4375 1.707 1.6328 0.73438 1.5391 0.81641 0.80469 0.73047 0.99609 0.37891 0.59375 1.1992 0.16016 1.0547 0.12109 1.2773 0.69141 0.85156 0.5625 1.0078 0.24219 1.1055 0.17188 1.6562 0.66016 2.1445 1.0938 1.5273 1.2266 0.44922 1.0547 0.18359 1.0312 0.5 0.91797 1.1875-0.089843 1.4766-0.39453 1.1172 0.25391 1.4219v1.5l0.19922 1.0195-1.1328 3.1953 0.48047 1.7266 0.39453 1.1875-0.41406 1.4648-0.19531 1.5469 0.1875 1.0352-0.42188 1.0508-0.0625 1.3281 0.11719 1.2969-0.57812 1.0664 0.30469 1.3008 0.074219 2.207-0.085938 1.3086 0.23047 1.5 0.69922 1.168 0.57812 1.2969-0.62891 1.2383-1.4961 1-1.3516 0.30469-1.3633-0.27734-1.3398-0.89453-1.418-0.41016-1.0742 0.78125-1.0078 1.2852-0.46094 1.2891 0.53125 1.3242-1.1992 1.2656-0.89453 0.53516-1.1602 0.29688-1.0078 0.039063-1.668 0.36719-2.5586-0.48047-1.2227-0.20703-1.2227-0.5625-1.0508-0.29688-1.1992-0.089844-0.99219-0.53516-1.8438-0.46484-1.5547-0.92969-1.4492-1.2148-0.72656-1.168-0.27344-1.3281-1.1406-0.92188-1.7109-1.2578-1.0469-0.1875-1.0781 0.10547-1.1367-0.066407-1.4219 0.19531-1.2617 0.69141-1.1797 0.89453-0.83594 1.3711-1.5195 0.5625-1.0742-0.16797-2.0391 1.0312-1.5234 1.4453-1.4648 1.957-1.7148 2.625-0.93359 2.0156-0.76562 1.1055-1.2539 1.8164-1.4492 1.5391-0.89062 0.71484-1.0273 1.168-1.2852 1.2305-1.7188 1.6133-1.3438 0.41797-1.0625 0.83203-0.59766 0.87109 0.42578-1.9531-0.52734-1.6953-0.95703-1.4766-1.0781-1.5391-1.0977-1.7891-0.85156-1.2734-0.75781-1.6133-0.67188-1.2656-1.1797-1.5-0.93359-1.8125-0.51172-1.1133-1.9141-2.4688-0.81641-1.1797-0.54688-0.89062-0.82812-1.0469 0.5-0.87109 0.49219-0.88672 1.2109 0.35156 1.0977-0.41016 0.76953-0.85547 0.10938-1.6055-0.14844-1.4727-0.19922-1.2422-1.4883-3.1992-1.0078-1.8242-1.168-1.8789-0.99609-1.1406-0.8125-0.80859-1.6484-1.9102-1.4727-1.4883-1.5-1.3516-1.1289-0.96484-1.4453-1.3203-0.80078-0.72266-0.77734-0.67188-0.98438-0.76562-0.84375-0.75-0.54688-1.4062-0.49219-1.1172-1.2305-0.19531-0.32422-1.4414-0.45703-0.89844-0.55859-0.98828-0.87109-1.1289-0.88672-0.71484-1.75-1.332-1.543-1.3242-1.3789-0.96875-0.82031-0.59375-0.71875-0.83203-1.1055-0.84375-1.6836-1.1367-0.82812-0.63281-0.89062-0.51562-0.67969 0.94141h-1.0039l-0.83594-0.67578 0.41406-1.1523 0.81641-0.75 0.21094-1.0195 0.30078-0.99609-0.21094-1.1797 0.12109-1.0898-0.37109-1.1367-0.23438-1.0703-0.28125-1.0469-0.23828-1.0469 0.67969-0.79688-0.28125-1.0234-0.57422-0.89453-0.55469-0.91797-1.0898-0.875-1.0156 0.26172-0.25781-0.98438-0.21484-1.0625-0.77734-0.69922-0.96484-0.49609-0.19141-1.0508-0.41406-0.96094-0.70312-0.85156-0.40625-1.0039 0.10938-1.1562-0.5625-0.89453-0.21484-0.98047-0.15625-1.0078-0.58203-0.83594 0.070313-1.0078-0.4375-0.9375-0.78125-0.71484-0.71094-0.72266-0.75781-0.71875-0.87109-0.51562-0.82422-0.69531-0.92969-0.51172-0.78516-0.64453-1.8438-1.1875-1.0234 0.074219-0.59766-0.87109-0.99219 0.48047 0.25781-0.97656-0.125-1-0.94141-0.70312-0.58984-0.86328-1.0664 0.33984-0.17969-0.98828-1.0195-0.27734-0.39453-1.2461-0.21875-1.1562-0.64453-0.98438-0.82422-0.85938-1.2148 0.33984-0.92969-0.59766-0.62109-1.1602 0.48828-0.93359 0.53125-1.1484 0.21094-1.1836 1.3594-0.40234 1.4844-0.085938 1.0078 0.39844 0.78906-0.63672 0.16016-1.2422 0.11328-0.99609 1.1211 0.14844 0.26953-1.2344 0.042969-1.2812-0.37109-1.1484-0.53906-1.1484-0.68359-1.8633-1.1016-1.9258-0.59766-0.93359-1.3203-1.1289-0.78125-0.92969 0.085938-1.4883-0.86328-1.0898-0.80469-0.75781-1.875-1.293-1.3203-1.1758-1.3594-1.0312-1.0273-0.70703-1.3555-0.92969-1.2812-0.78906-1.043-0.41016-1.0938-0.050781-1.0352 0.070313-0.20703-0.99219-1.1445-0.13672-1.1797-0.27344-0.57422-1.0234-1.125 0.19531 0.29688-1.1523-0.375-0.92969-0.96484-0.375-1.1953 0.039062-1.0352-0.35156-0.92578-0.55859-0.33984-0.96094-1.1836-0.52344-1.0156-0.49219 0.58594-1.0586-0.45312-0.99219-0.046875-1 0.03125-1.1914-0.019532-1.2656-0.53516-1.1797 0.16797-1.2188 0.5625-0.86328 0.52734-1.0742-0.003907-1.1445-0.28516-1.1406-0.082031-1.0742-0.26953-1.0312-1.0156-0.011718 0.16406-1.2539-0.60938-1.0391-1.0312 0.1875-0.37891-1.0859-0.22266-1.0117-0.23047-1.0547 0.066406-1.1133 1.1172 0.14453 0.84375-1.1172 0.15234-1.2305-0.57812-1.0938-0.85156-0.99219-0.74609-1.1172-2.5664-2.7812-1.0391-0.84375-1.0039-0.96875-1.5703-1.3125-1.0312-0.77734-1.0664-1.0234-0.99609-0.6875-1.5898-0.15625-1.082-0.21875-0.90234-0.86328-0.68359-0.82812-0.69141-0.80859 0.21875-1.168 0.97656-0.25-0.054687-1.1484-0.42969-0.9375 0.40625-1.3281-0.097656-1.2734-0.22266-1.1172-1.0078-0.24219 0.90625-0.46875-0.59766-0.89453 0.33594-1.375 1.1172-0.90234 0.36328-1.1172 0.22266-1.5156 0.98047-0.52344 0.20703-1.0742-0.69141-0.83594-1.3359 0.80469-1.4062 0.21094-0.82031-0.78125-0.44141-1.1055 1.0469-1.0352-0.63672-1.1484-1.1016 0.30078-0.76953-0.66797 0.0625-1.043 0.65234-1.1289 0.42188-1.2812 1.1602-0.93359 0.46484-1.0312-0.96875-0.34375 0.058594-1-0.54688-0.90234-1.082-0.86719-0.92188-0.71484-0.71875-0.78906-1.0586-0.87891-0.082031-1.0312-0.078125-1.5469 0.16406-1.3516-0.16797-1.1328-0.63672-1.5234-0.42188-0.98438-0.50781-1.0312-0.65234-1.207-0.47266-1.0625-1.0547-0.15234-1.0234-0.42969-0.69141-0.75781-0.90625-0.75781-1.1328 0.17578-1.1758-0.39062-0.26953-1.2812-0.68359-1.4531-0.39844-1.2188-0.058594-1.2891-0.71484-1.2422-1.0195-0.027343-1-0.8125-0.089844-1.3398-0.73828-1.7422-1.043-0.32031-1.043 0.38672-1.5234-0.26953-1.2148-0.42188-0.84375-0.67188-0.48438-1.1094-0.51562-0.87109-1.2266-0.48828-0.88672-0.69922-1.0117-0.54297-0.84375-0.57812-0.58203-1.0078-0.99219-0.69531-1.0156 0.023437-0.95312-1.3047-0.82031-0.88672-0.86719-0.92578-1.1875-0.38281 0.40625-1.2148-0.37891-0.96484-0.90234-0.46094-0.85547-0.57812-1.0742-0.91016-1.8242-0.63672-0.81641-0.85547 0.042969-1.0742-0.44531-1.457-0.21094-1.0195-0.94922-0.76172-0.82422-0.73047 0.33984-1.1523-0.30078-1.1445 0.27734-1.082-0.97266-0.83984-0.90625-0.69141-0.29688-1.3125-0.85938-0.75391 0.43359-1.1328 0.46875-1.1211-0.41406-0.92969-0.17969-1.168-0.65625-0.95312-1.2305 0.011719-1.1367 0.55469-0.49609-0.89062-0.62891-0.85938 0.44922-1.2656-1.4453-0.34375-1.2422 0.20312 0.32812-1.3477 0.65234-0.84375-0.28906-1.043 0.51562-0.93359 1.1016-0.3125 0.87109-0.65234 0.95312-0.51172 1.0508 0.19141 0.61328-0.95703 1.1211-0.0625 1.0469-0.078125 1.1719-0.15234 0.69141-1.168 0.48828-1.6094 0.023437-1.543-0.046875-1.3828-0.59375-1.7266-0.21094-1.3477-0.50781-0.98438-0.66016-0.95312-0.65625-1.4727-0.75-1.707-0.76172-1.0352-1.0586 0.23438 0.39062-1.0352-0.10156-1.1328 0.67188-0.87891 0.75781-0.84766 0.054688-1.1719-0.66797-1.7227-0.66406-0.76953-0.17188-1.1953-0.65625-1.1328 0.24609-1.1016-0.050781-1.1289-0.003906-1.9141-0.57031-0.99609-0.73828-0.72656-0.57812-0.94922-1-0.37891 0.39453-1.0469-0.375-1.1758-0.65234-0.86328-1.0078-0.98047-0.83203-1.1211-0.91406-0.80859-1.1562-0.42969-0.94141 0.40234 0.34766-1.0273 0.60938-0.80859 0.65234-0.84766-0.71875-0.98828-1.6055-0.29688-1.125 0.4375-0.84375-0.79297 1.1523-0.19922-0.39453-1.2266-0.20312-1.2344-0.82031-0.78125 0.77734-1.1172-0.085937-1.1094-0.36328-1.0312 0.41406-1.1914 1.1602-0.90234-0.070312-1.1797-0.40234-1.0508-0.52734-0.91406-0.48828-1.0781 1.9375-1.1406 1.6875-0.64453 1.0977-0.51953 1.5273-0.77734 1.1523-0.80859 1.2695-0.20312 1.0391-1.6445 0.070313-1.3711 0.86328-0.80078 1.2617-1.0352 1.2148-1.207 0.27734-1.0898 0.57812-1.6445 1.7578-1.1055 1.125-0.33594 1.4648-1.4883 0.38281-1.125-0.15625-1.8008 0.042969-1.6875 0.29297-1.2188 0.63281-1.5977 1.9414-1.6953 2.4336-0.72266 4.4805-1.8086 2.2734-1.2539 1.5156-1.0508 1.9727-2.6602 1.0898-2.082 1.0117-0.67969 1.6133-0.64062 0.85547-1.0898 0.20312-1.8047-0.10547-1.332 0.30078-2.2695 0.14844-1.0742 1.5508-1.2148 1.2422-0.13281 1.0273 0.18359 2.3984 1.1133 1.1602 0.32422 1.4688 0.35938 0.89453 1.2695 1.1562 1.0078 0.75781 1.1445 0.40234 1.7148 1.0117 0.97266 1.1875 0.14844 1.082-0.59375 1.6055-1.0898 2.1328-1.9531 0.55859-2.293 0.34766-0.94141-1.3242-1.3906-0.55859-1.2344 0.65625-1.2148 1.293-1.5938 0.69141-0.96094 0.45703-0.94141 0.69922-0.83203 1.1953-0.82422 1.2148 0.10938 0.48828-0.88281 0.38281-0.99219-0.33203-1.0117-0.50391-0.875-0.66016-1.2812-0.039063-1.1094 0.023438-1.332 0.51953-1.1133 0.94531-0.96484 1.4375-0.67188 1.0977-0.054688 1.043 0.027344 2.1172-0.10547 1.9609-0.26172 1.8398-0.84766 2.2617-0.70703 2.8477-0.71875 1.1484-0.69531-0.19141-1.25 1.6719-0.72266 1.6016-0.69531 1.4883-1.0938 0.85938-1 0.98047-0.91797 0.78516-1.0781 0.35547-1.1719 0.30469-1.4141 1.3359-0.13672 1.3086 0.40234 1.3789 0.25 1.0117-0.35156 1.0508 0.42578 1.207 0.12891 1.0234 0.10547 1.4805-0.097656 1.5703-1.7383 1.3008 0.18359 0.63281 1.6953 1.2344 0.83594 1.7656 0.16406 1.4062 0.29688 1.3438-0.625 1.3984-0.34766 1.8242 0.078125 1.0508-0.039063 1.5117-0.14844 0.84766-0.92969 0.53125-1.1445 1.2812-0.61328 1.0352-0.42188 0.94141-0.54688 1.5391 0.15234 1.3359 0.48828 1.0508 0.24609 1.4844 0.26953 1.5547 0.34375 1.6094-0.40625 0.81641-1.2852 1.3633-0.85547 1.3477-0.68359h1.5547l1.7734-0.33984 1.3359-0.53125 1.7969-0.10938 1.2266 0.039063 0.99609-0.20312 0.77734-1.2539 0.69141-0.80469 0.57031-1.3281 0.87891-0.91797 0.96875-0.65625 1-1.4688 0.39062-1.0273 0.625-1.2266 1.1445-0.69531 1.0508-0.67969 1.4453-0.46484 0.55859-1.0508 0.49219-0.89844 0.95312-0.625 1.0117-0.68359 0.625-0.78906 1.1719 0.12109 1.4648 0.5625 1.3125 0.77734 1.7383 0.39453 1.1875 0.32422 1.3672 0.007812 1.2891-0.58594 1.0195-0.40625 1.9297-0.76172 1.1133-0.38672 1.207-0.70312 0.94922-0.57812 1.3984-0.60156 0.42188-0.92188 0.60938-1.1172 1.6328-0.17969 2.0391-0.16016z" fill="#ccc" fill-rule="evenodd"/>
<path d="m219.68 66.328 1.4023 0.47656 1.1914 0.85156 0.99609 0.38281 1.207 0.027343 1.6406 0.0625 1.25 0.50391 1.5859 0.25391 1.3711 0.30859 0.80859 0.72266 1.1758 1.8906 0.94141 1.0625 0.59375 1.1836 2.1094 1.6641 0.95312 0.75781 1.1133 0.59766 2.5273 2.1289 1.0938 0.94922 0.50781 1.1211-0.80859 0.76953-1.7539-0.058594-1.3398-0.42188-1.1797 0.20703-1.2188 1.5703 0.51953 0.91016 1.2109 1.082 0.79297 1.0078 0.55469 0.86719-0.078125 1.25 0.50391 1.1719 0.46484 1.4492 0.46875 1.0664 0.76562 1.5 0.80469 2.0859 0.90234 1.2734 0.60547 1.0781 0.64453 1.5117 0.41016 1.1094 0.47656 1.4727 0.046875 1.4375-0.28125 1.3086-0.80469 1.2539-0.58594 0.93359 0.43359 1.3906 0.39453 1.207 0.19141 1.0586 0.37891 1.7891 0.046875 1.2695 0.53125 1.6328 0.41016 1.457-0.015625 1.2812 0.38672 1.0195-0.12891 1.2461-0.30859 1.043-1.4922 0.83594-1.0859 0.85156-0.8125 1.2305-0.82031 1.4297 0.011719 1.1406-0.066406 1.0859-0.70703 1.0391-0.57422 0.90625-0.875 0.77344-0.36328 1.5352-0.25781 1.0664-0.10938 1.3242-0.87109 1.6641-1.2734 1.7422-1.0391 0.73438-0.96484 0.46094-1.0039 0.070312-1.1406 0.30078-0.77344 1.1953 0.027343 1.207 0.019532 1.0977-0.25781 1.0586 0.03125 1.0273-0.23047 1.1289-0.58984 1.1953 0.4375 1.5781 0.26953 1.0234-0.17578 1.0859-0.12109 1.1367 0.28906 1.0898 0.88672-0.63672 1.1172-0.60156 0.51953-1.2031 0.91406-0.88281 0.57812-0.96875 3.0977-1.3555 1.418-0.25781 1.3594-0.37891 1.3867-0.19531 1.1289-0.53516 1.2344 0.11719 1.0273 0.10547 1.2734-0.019532 1.0156 0.31641 1.1211-0.050782 1.4102-0.1875 1.2812-0.082031 1.7734 0.51172 1.0117 0.125 1.707-0.11328 1.3438 0.042968 1.1445-0.24609 1.25 0.050781 1.7305 0.078125 2.0859 0.054687 1.5781 0.64062 1.0977 0.43359 0.98047 0.23828 1.0352 0.56641 1.0938 0.55859 0.98438 0.22656 0.96094 0.61719 0.88672 0.87891 0.50391 1.1523 0.85938 1.832 0.44922 1.1211 0.83984 1.332 0.92188 1.8086 0.17969 1.332 1.2383 1.2891 0.97266 0.86328-0.85938 0.83984-1.3281 0.11328-0.76562 0.96875-0.58984 0.86719-0.63672 0.96484-0.44531 0.95312-0.43359 1.0352-0.42969 1.0195-0.15625 1.4922 0.44922 1.0039 0.59766 1.2969-0.76562 0.86719 0.66406 1.6016 0.71484 1.293 0.6875 1.0156 0.35938 1.6445-0.29297 1.457 0.16797 1.125 0.96484 0.42188 1.8047 0.59766 1.6797 1.2383 1.2344 1.2188 0.72656 1.4688 0.78516 1.5977 0.46875 0.95312 0.85938 1.2617 0.70312 0.82422 0.89844 0.51953 0.76562 0.86328 1.5938-0.42188 1.3359-1.1445 1.3906-0.14062 1.5469-0.054688 1.2773 0.082031 1.1719 0.16406 1.3086 0.51953 1.4492 0.054688 1.5938 1.1289 1.3203 0.59375 1.4688 0.40625 1.332 0.35156 1.2578-0.054687 1.3438 0.72656 1.0156 0.92969 1.4297 0.67969 0.011719 1.1172-0.85547 1.5898-0.85938 0.86719-1.3047 0.92188-0.92188 0.61719-0.90234 0.60938-0.32031 1.1328-0.41016 0.99609-0.61328 1.2539-0.10156 1.1719 0.007812 1.1797 0.097656 1.3086-0.14062 1.0273 0.20703 1.2773 0.44531 1.1914 0.69141 1.625 0.28125 1.4648 0.14062 1.293 0.60547 1.1172 2.3906 1.5859 1.0742 0.94531 0.71484 0.95312 0.65234 0.95312 1.2148 1.0742 1.207 0.69141 0.86719 0.82031 1.0977 1.0469 0.18359 1.207 0.050781 1.625 0.37891 1.2539-0.089843 1.4844 0.29297 1.3086-0.21094 1.5898 0.375 1.918 0.16016 1.7773 0.007813 1.4688 0.003906 1.1719 0.054687 1.4609-0.25781 1.0391-0.14453 1.4648 1.0195 1.4141 1.3398 0.58594 2.3984-0.97266 0.94141-0.58203 1.4609-0.90625 1.1484-0.17188 1.332-0.41797 1.8555 0.28125 1.3047-0.45312 1.5586-0.20703 1.6797 0.36719 1.1094 0.54688 1.0859 0.24219 1.5156 0.70312 1.1133 0.41797 0.73438 0.8125 0.74219 0.78906 0.48438 1.4805 0.13672 1.2812-0.76562 1.3633-1.1992 1.5898-0.26172 3.1289-1.0273 1.8047-0.1875 1.2695-1.375 1.3555-1.0859 0.96875-0.40234 1.1406-0.79297 2.5586-1.4258 1.4648-0.58594 1.1758-0.32031 2.2305-1.1641 3.832-0.35547 2.1562 0.16016 1.6602 0.97656 1.8945 0.15625 1.0078-0.40625 2.3086-1.2422 1.207-1.4336 2.125-0.59375 1.4297 0.32031 1.6953 0.62891 1.793 0.25781 1.3828 0.36719 1.1602-0.085938 1.0859-0.89062 0.82422-1.4805 1.0156-0.97656 1.6055-0.6875 1.1094-1.4453 1.0977-0.91797 0.67578-0.53125 1.2539-0.85547 1.3398-1.2656 1.457-0.53125 0.88281-0.35938 1.0859 0.3125 1.0586 0.625 1.0625 0.73828 1.4492 0.26562 1.4453-0.29297 0.98828-0.50391 1.2305 0.14453 1.75-0.27344 1.0312-0.011719 1.0781 0.10938 0.99609 0.35547 2.5977-0.097656 1.2422-1.0312 2.375-0.42578 1.0859-0.23047 1.4023 0.023437 1.0156-0.19141 1.1172-0.69531 2.0703 0.019532 1.1406-0.41016 2.1914v1.0273l0.89453 1.2188-0.21875 2.168-0.13281 1.3633-0.90234 1.0234-0.95703 0.69531-1.3242 0.73047-2.2188 0.015625-1.8984-0.31641-1.3125-0.35938-1.625-0.83984-1.6836-0.16016-1.3086 0.20312-1.2461 0.67969-1.3047 0.13281-1.8633-0.34766-1.6133 0.1875-0.94531-0.40625-1.2539-0.69922-1.2148-0.55859-0.81641 0.76562-0.71094 0.80469-0.95312 0.36328-1.3125-0.30469-1.125-0.71094-1.5625-0.32031-0.60156 1.0898-1.2109 1.8164-0.082031 1.125 0.84766 0.90234 0.20312 1.3008-0.23047 1.8008-0.47266 2.2812-0.44922 1.082-0.61328 1.3359 0.98047 2.0391 0.32422 1.0391-0.29297 1.7695 0.39844 1.4258 1.168 1.707 0.20312 1.3281-0.75391 1.3047 0.71094 2.3086 0.097656 1.5156-0.66016 0.83594-0.49219 1.2109 0.10156 1.043 0.45703 0.99219-0.58984 0.86328-0.75 1.0039 0.57031 1.8594 0.76953 1.1445-0.17188 1.7422 0.89844 1.6602-0.14062 1.8984-0.26953 1.418 0.097656 1.0977 1.0195 1.4141-0.23828 1.1836-1.7422 0.88281-0.79297 1.1875-0.71094 0.73047-0.71484 2.0312-0.046875 1.7109-0.30078 0.97656-0.13672 2.3438-0.44531 1.293-1.0469 0.66406-1.8477-0.73828-1.2539 0.070312-0.22656 1.668 0.73438 1.0312 0.75781 0.78906 0.71875 1.4844-0.38672 0.95703-1.3984 1.2031-1.793 0.89453-1.4102 0.40625-1.3984 0.94531-1.6953 2.2266-0.51562 1.3555-0.58984 0.83594-1.3438 0.28906-1.4688 0.62109-0.80469 0.74609-1.1094 1.3672-0.55859 1.1953 0.27734 1.9922 0.023438 1.1445-0.52734 1.5703-1.1055 1.9219-1.3867 0.81641-1.4297 0.28125 0.11328 1.0547 0.60938 1.1133 0.4375 1.707 1.6328 0.73438 1.5391 0.81641 0.80469 0.73047 0.99609 0.37891 0.59375 1.1992 0.16016 1.0547 0.12109 1.2773 0.69141 0.85156 0.5625 1.0078 0.24219 1.1055 0.17188 1.6562 0.66016 2.1445 1.0938 1.5273 1.2266 0.44922 1.0547 0.18359 1.0312 0.5 0.91797 1.1875-0.089843 1.4766-0.39453 1.1172 0.25391 1.4219v1.5l0.19922 1.0195-1.1328 3.1953 0.48047 1.7266 0.39453 1.1875-0.41406 1.4648-0.19531 1.5469 0.1875 1.0352-0.42188 1.0508-0.0625 1.3281 0.11719 1.2969-0.57812 1.0664 0.30469 1.3008 0.074219 2.207-0.085938 1.3086 0.23047 1.5 0.69922 1.168 0.57812 1.2969-0.62891 1.2383-1.4961 1-1.3516 0.30469-1.3633-0.27734-1.3398-0.89453-1.418-0.41016-1.0742 0.78125-1.0078 1.2852-0.46094 1.2891 0.53125 1.3242-1.1992 1.2656-0.89453 0.53516-1.1602 0.29688-1.0078 0.039063-1.668 0.36719-2.5586-0.48047-1.2227-0.20703-1.2227-0.5625-1.0508-0.29688-1.1992-0.089844-0.99219-0.53516-1.8438-0.46484-1.5547-0.92969-1.4492-1.2148-0.72656-1.168-0.27344-1.3281-1.1406-0.92188-1.7109-1.2578-1.0469-0.1875-1.0781 0.10547-1.1367-0.066407-1.4219 0.19531-1.2617 0.69141-1.1797 0.89453-0.83594 1.3711-1.5195 0.5625-1.0742-0.16797-2.0391 1.0312-1.5234 1.4453-1.4648 1.957-1.7148 2.625-0.93359 2.0156-0.76562 1.1055-1.2539 1.8164-1.4492 1.5391-0.89062 0.71484-1.0273 1.168-1.2852 1.2305-1.7188 1.6133-1.3438 0.41797-1.0625 0.83203-0.59766 0.87109 0.42578-1.9531-0.52734-1.6953-0.95703-1.4766-1.0781-1.5391-1.0977-1.7891-0.85156-1.2734-0.75781-1.6133-0.67188-1.2656-1.1797-1.5-0.93359-1.8125-0.51172-1.1133-1.9141-2.4688-0.81641-1.1797-0.54688-0.89062-0.82812-1.0469 0.5-0.87109 0.49219-0.88672 1.2109 0.35156 1.0977-0.41016 0.76953-0.85547 0.10938-1.6055-0.14844-1.4727-0.19922-1.2422-1.4883-3.1992-1.0078-1.8242-1.168-1.8789-0.99609-1.1406-0.8125-0.80859-1.6484-1.9102-1.4727-1.4883-1.5-1.3516-1.1289-0.96484-1.4453-1.3203-0.80078-0.72266-0.77734-0.67188-0.98438-0.76562-0.84375-0.75-0.54688-1.4062-0.49219-1.1172-1.2305-0.19531-0.32422-1.4414-0.45703-0.89844-0.55859-0.98828-0.87109-1.1289-0.88672-0.71484-1.75-1.332-1.543-1.3242-1.3789-0.96875-0.82031-0.59375-0.71875-0.83203-1.1055-0.84375-1.6836-1.1367-0.82812-0.63281-0.89062-0.51562-0.67969 0.94141h-1.0039l-0.83594-0.67578 0.41406-1.1523 0.81641-0.75 0.21094-1.0195 0.30078-0.99609-0.21094-1.1797 0.12109-1.0898-0.37109-1.1367-0.23438-1.0703-0.28125-1.0469-0.23828-1.0469 0.67969-0.79688-0.28125-1.0234-0.57422-0.89453-0.55469-0.91797-1.0898-0.875-1.0156 0.26172-0.25781-0.98438-0.21484-1.0625-0.77734-0.69922-0.96484-0.49609-0.19141-1.0508-0.41406-0.96094-0.70312-0.85156-0.40625-1.0039 0.10938-1.1562-0.5625-0.89453-0.21484-0.98047-0.15625-1.0078-0.58203-0.83594 0.070313-1.0078-0.4375-0.9375-0.78125-0.71484-0.71094-0.72266-0.75781-0.71875-0.87109-0.51562-0.82422-0.69531-0.92969-0.51172-0.78516-0.64453-1.8438-1.1875-1.0234 0.074219-0.59766-0.87109-0.99219 0.48047 0.25781-0.97656-0.125-1-0.94141-0.70312-0.58984-0.86328-1.0664 0.33984-0.17969-0.98828-1.0195-0.27734-0.39453-1.2461-0.21875-1.1562-0.64453-0.98438-0.82422-0.85938-1.2148 0.33984-0.92969-0.59766-0.62109-1.1602 0.48828-0.93359 0.53125-1.1484 0.21094-1.1836 1.3594-0.40234 1.4844-0.085938 1.0078 0.39844 0.78906-0.63672 0.16016-1.2422 0.11328-0.99609 1.1211 0.14844 0.26953-1.2344 0.042969-1.2812-0.37109-1.1484-0.53906-1.1484-0.68359-1.8633-1.1016-1.9258-0.59766-0.93359-1.3203-1.1289-0.78125-0.92969 0.085938-1.4883-0.86328-1.0898-0.80469-0.75781-1.875-1.293-1.3203-1.1758-1.3594-1.0312-1.0273-0.70703-1.3555-0.92969-1.2812-0.78906-1.043-0.41016-1.0938-0.050781-1.0352 0.070313-0.20703-0.99219-1.1445-0.13672-1.1797-0.27344-0.57422-1.0234-1.125 0.19531 0.29688-1.1523-0.375-0.92969-0.96484-0.375-1.1953 0.039062-1.0352-0.35156-0.92578-0.55859-0.33984-0.96094-1.1836-0.52344-1.0156-0.49219 0.58594-1.0586-0.45312-0.99219-0.046875-1 0.03125-1.1914-0.019532-1.2656-0.53516-1.1797 0.16797-1.2188 0.5625-0.86328 0.52734-1.0742-0.003907-1.1445-0.28516-1.1406-0.082031-1.0742-0.26953-1.0312-1.0156-0.011718 0.16406-1.2539-0.60938-1.0391-1.0312 0.1875-0.37891-1.0859-0.22266-1.0117-0.23047-1.0547 0.066406-1.1133 1.1172 0.14453 0.84375-1.1172 0.15234-1.2305-0.57812-1.0938-0.85156-0.99219-0.74609-1.1172-2.5664-2.7812-1.0391-0.84375-1.0039-0.96875-1.5703-1.3125-1.0312-0.77734-1.0664-1.0234-0.99609-0.6875-1.5898-0.15625-1.082-0.21875-0.90234-0.86328-0.68359-0.82812-0.69141-0.80859 0.21875-1.168 0.97656-0.25-0.054687-1.1484-0.42969-0.9375 0.40625-1.3281-0.097656-1.2734-0.22266-1.1172-1.0078-0.24219 0.90625-0.46875-0.59766-0.89453 0.33594-1.375 1.1172-0.90234 0.36328-1.1172 0.22266-1.5156 0.98047-0.52344 0.20703-1.0742-0.69141-0.83594-1.3359 0.80469-1.4062 0.21094-0.82031-0.78125-0.44141-1.1055 1.0469-1.0352-0.63672-1.1484-1.1016 0.30078-0.76953-0.66797 0.0625-1.043 0.65234-1.1289 0.42188-1.2812 1.1602-0.93359 0.46484-1.0312-0.96875-0.34375 0.058594-1-0.54688-0.90234-1.082-0.86719-0.92188-0.71484-0.71875-0.78906-1.0586-0.87891-0.082031-1.0312-0.078125-1.5469 0.16406-1.3516-0.16797-1.1328-0.63672-1.5234-0.42188-0.98438-0.50781-1.0312-0.65234-1.207-0.47266-1.0625-1.0547-0.15234-1.0234-0.42969-0.69141-0.75781-0.90625-0.75781-1.1328 0.17578-1.1758-0.39062-0.26953-1.2812-0.68359-1.4531-0.39844-1.2188-0.058594-1.2891-0.71484-1.2422-1.0195-0.027343-1-0.8125-0.089844-1.3398-0.73828-1.7422-1.043-0.32031-1.043 0.38672-1.5234-0.26953-1.2148-0.42188-0.84375-0.67188-0.48438-1.1094-0.51562-0.87109-1.2266-0.48828-0.88672-0.69922-1.0117-0.54297-0.84375-0.57812-0.58203-1.0078-0.99219-0.69531-1.0156 0.023437-0.95312-1.3047-0.82031-0.88672-0.86719-0.92578-1.1875-0.38281 0.40625-1.2148-0.37891-0.96484-0.90234-0.46094-0.85547-0.57812-1.0742-0.91016-1.8242-0.63672-0.81641-0.85547 0.042969-1.0742-0.44531-1.457-0.21094-1.0195-0.94922-0.76172-0.82422-0.73047 0.33984-1.1523-0.30078-1.1445 0.27734-1.082-0.97266-0.83984-0.90625-0.69141-0.29688-1.3125-0.85938-0.75391 0.43359-1.1328 0.46875-1.1211-0.41406-0.92969-0.17969-1.168-0.65625-0.95312-1.2305 0.011719-1.1367 0.55469-0.49609-0.89062-0.62891-0.85938 0.44922-1.2656-1.4453-0.34375-1.2422 0.20312 0.32812-1.3477 0.65234-0.84375-0.28906-1.043 0.51562-0.93359 1.1016-0.3125 0.87109-0.65234 0.95312-0.51172 1.0508 0.19141 0.61328-0.95703 1.1211-0.0625 1.0469-0.078125 1.1719-0.15234 0.69141-1.168 0.48828-1.6094 0.023437-1.543-0.046875-1.3828-0.59375-1.7266-0.21094-1.3477-0.50781-0.98438-0.66016-0.95312-0.65625-1.4727-0.75-1.707-0.76172-1.0352-1.0586 0.23438 0.39062-1.0352-0.10156-1.1328 0.67188-0.87891 0.75781-0.84766 0.054688-1.1719-0.66797-1.7227-0.66406-0.76953-0.17188-1.1953-0.65625-1.1328 0.24609-1.1016-0.050781-1.1289-0.003906-1.9141-0.57031-0.99609-0.73828-0.72656-0.57812-0.94922-1-0.37891 0.39453-1.0469-0.375-1.1758-0.65234-0.86328-1.0078-0.98047-0.83203-1.1211-0.91406-0.80859-1.1562-0.42969-0.94141 0.40234 0.34766-1.0273 0.60938-0.80859 0.65234-0.84766-0.71875-0.98828-1.6055-0.29688-1.125 0.4375-0.84375-0.79297 1.1523-0.19922-0.39453-1.2266-0.20312-1.2344-0.82031-0.78125 0.77734-1.1172-0.085937-1.1094-0.36328-1.0312 0.41406-1.1914 1.1602-0.90234-0.070312-1.1797-0.40234-1.0508-0.52734-0.91406-0.48828-1.0781 1.9375-1.1406 1.6875-0.64453 1.0977-0.51953 1.5273-0.77734 1.1523-0.80859 1.2695-0.20312 1.0391-1.6445 0.070313-1.3711 0.86328-0.80078 1.2617-1.0352 1.2148-1.207 0.27734-1.0898 0.57812-1.6445 1.7578-1.1055 1.125-0.33594 1.4648-1.4883 0.38281-1.125-0.15625-1.8008 0.042969-1.6875 0.29297-1.2188 0.63281-1.5977 1.9414-1.6953 2.4336-0.72266 4.4805-1.8086 2.2734-1.2539 1.5156-1.0508 1.9727-2.6602 1.0898-2.082 1.0117-0.67969 1.6133-0.64062 0.85547-1.0898 0.20312-1.8047-0.10547-1.332 0.30078-2.2695 0.14844-1.0742 1.5508-1.2148 1.2422-0.13281 1.0273 0.18359 2.3984 1.1133 1.1602 0.32422 1.4688 0.35938 0.89453 1.2695 1.1562 1.0078 0.75781 1.1445 0.40234 1.7148 1.0117 0.97266 1.1875 0.14844 1.082-0.59375 1.6055-1.0898 2.1328-1.9531 0.55859-2.293 0.34766-0.94141-1.3242-1.3906-0.55859-1.2344 0.65625-1.2148 1.293-1.5938 0.69141-0.96094 0.45703-0.94141 0.69922-0.83203 1.1953-0.82422 1.2148 0.10938 0.48828-0.88281 0.38281-0.99219-0.33203-1.0117-0.50391-0.875-0.66016-1.2812-0.039063-1.1094 0.023438-1.332 0.51953-1.1133 0.94531-0.96484 1.4375-0.67188 1.0977-0.054688 1.043 0.027344 2.1172-0.10547 1.9609-0.26172 1.8398-0.84766 2.2617-0.70703 2.8477-0.71875 1.1484-0.69531-0.19141-1.25 1.6719-0.72266 1.6016-0.69531 1.4883-1.0938 0.85938-1 0.98047-0.91797 0.78516-1.0781 0.35547-1.1719 0.30469-1.4141 1.3359-0.13672 1.3086 0.40234 1.3789 0.25 1.0117-0.35156 1.0508 0.42578 1.207 0.12891 1.0234 0.10547 1.4805-0.097656 1.5703-1.7383 1.3008 0.18359 0.63281 1.6953 1.2344 0.83594 1.7656 0.16406 1.4062 0.29688 1.3438-0.625 1.3984-0.34766 1.8242 0.078125 1.0508-0.039063 1.5117-0.14844 0.84766-0.92969 0.53125-1.1445 1.2812-0.61328 1.0352-0.42188 0.94141-0.54688 1.5391 0.15234 1.3359 0.48828 1.0508 0.24609 1.4844 0.26953 1.5547 0.34375 1.6094-0.40625 0.81641-1.2852 1.3633-0.85547 1.3477-0.68359h1.5547l1.7734-0.33984 1.3359-0.53125 1.7969-0.10938 1.2266 0.039063 0.99609-0.20312 0.77734-1.2539 0.69141-0.80469 0.57031-1.3281 0.87891-0.91797 0.96875-0.65625 1-1.4688 0.39062-1.0273 0.625-1.2266 1.1445-0.69531 1.0508-0.67969 1.4453-0.46484 0.55859-1.0508 0.49219-0.89844 0.95312-0.625 1.0117-0.68359 0.625-0.78906 1.1719 0.12109 1.4648 0.5625 1.3125 0.77734 1.7383 0.39453 1.1875 0.32422 1.3672 0.007812 1.2891-0.58594 1.0195-0.40625 1.9297-0.76172 1.1133-0.38672 1.207-0.70312 0.94922-0.57812 1.3984-0.60156 0.42188-0.92188 0.60938-1.1172 1.6328-0.17969 2.0391-0.16016 1 0.33984" fill="none" stroke="#fff" stroke-linecap="round" stroke-linejoin="round" stroke-miterlimit="10" stroke-width="2"/>
<path d="m368.77 135.25v0.95312l-0.57812 0.92188-0.86719 0.69922-1.7148 1.5508-2.0547 1.3203-0.95312 1.7109-0.37891 0.98828-0.35938 1.2383 0.34375 1.9062 0.30469 1.6992-0.62891 1.5703-0.41406 1.7773-0.035156 1.5469-0.17969 1.2383-1.4336 0.37891-1.7539 0.33594-1.4141 0.59766-0.23438 1.2578-0.66406 0.80859-0.57422 0.97266-0.82812 1.7969-0.30469 1.6875v1.6914l-0.62891 1.2227-0.89844 1.2734-0.50391 1.1367-0.28906 1.2578-0.47266 1.0352 0.24609 1.7773 0.10156 1.7461-0.25391 1.2422-0.48047 1.1133-0.37109 1.7734 0.12891 1.7539-0.55078 0.95703-1.1367 0.20312-1.3789 0.21094-1.1445-0.23828-1.7969-0.007812-1.1953 0.16016-1.1445 0.19531-1.3125-0.29688-1.5-0.53125-1.3008-0.43359-1.7109 0.078125-1.707 0.042969-1.2695 0.40625-1.2773 0.03125-1.4648-0.51562-1.1523-0.66406-1.5625-0.011719-1.5781 0.37109-1.4375 0.24219-1.0547-0.050782-1.3047 0.12109-1.1289-0.1875-1.4883-0.36328-0.89453-0.69922-1.3047-0.95703-0.86328-0.64844-1.2773-0.30078-1.9375-0.089844-1.0508-0.25781-1.3633 0.34766-1.5586-0.34766-1.5625-0.51562-1.0703-0.55078-1.082 0.26562-1.3867-0.003907-1.3438 0.027344-1.9062 0.57812-1.168-0.28125-1.6172 0.027344-1.5078-1.2539-0.92188-0.48438-0.75-1.0859-0.98828-0.5625-1.4766-0.12891-1.0273-0.10938-1.0312 1.1094-1.3164-0.30859-1.3711-0.50781-1.0664-0.3125-1.0312-0.45312-0.76562-0.98047-0.41797-1.0703-0.60156-1.0234-0.51562-1.1328-0.58203-1.0078-0.92969-0.55469-0.92578-0.51953-1.25 0.26953-1.1484-0.23828-0.33594-1.0195 0.28125-1.5391-1.1055-1.1445-1.2148-1.043-0.49219-1.207-0.50391-1.5625-0.97656-1.7305-0.67188-1.0039-0.92969-2.1953-0.5625-1.375-0.88672-0.87891-0.96094-0.61719 1.7344-0.77734 1.1016-1.0078 1.3359-0.89062 1.5039-1 0.84375-0.73438 2.168-1.9141 2.3086-0.85547 1.6289-1 1.3594-1.0312 1.9805-0.375 1.3359 0.19141 1.168 1.0156 0.97266 0.64844 1.1641 0.39453 1.0156-0.13672 0.87109 0.85938 1.1016 0.78125 0.94531 0.73438 1.8672 0.63672 0.67969 0.74609 1.9258 0.33594 1.1445 0.125 2.1055-2.7148 0.94141-0.34766 1.2617 0.19141 1.2188 0.75781 1.0039 0.57031 1.668 0.16406 1.3125 0.65234 1.5352 0.53516 1.1094 0.27344 1 0.39453 1.4141 0.57812 1.1484 0.027344 1.5039 0.085937 1.0742 0.72266 1.5586 0.48047 1.6367 0.43359 1.5039 0.039063 1.0742 0.29688 1.0977 0.51953 1.3203-0.085938 1.1641 0.25391 1.6094 0.035156 1.3828-0.007813 1.25 0.48047 0.84766 0.58203 1.1758 0.57422 1.0859 0.45312 1.0547 0.51953 1.0898 0.10938 1.5156-0.039062 1.25-0.91797 0.65234-1.0234 0.26953-1.2812 0.78125-0.67969h1.1992l1.2695-0.50781 2.4883-0.3125 1.2383-0.65234 1.1445-0.34375 1.1992 0.074219 0.89844-0.76562 1.0117-0.21875 1.1523-0.62109 0.875-0.59375 0.78516-1.0938 0.98438-0.85156 0.97656-1.2461 0.84766-0.82812 1.375-1.1641 1.3086-1.1094 0.98438-0.80859 1.2734-1.1328 1.0977-0.47266 1.1836-0.26172 1.6445-0.35938 1.0234-0.91016z" fill="#ccc" fill-rule="evenodd"/>
<path d="m368.77 135.25v0.95312l-0.57812 0.92188-0.86719 0.69922-1.7148 1.5508-2.0547 1.3203-0.95312 1.7109-0.37891 0.98828-0.35938 1.2383 0.34375 1.9062 0.30469 1.6992-0.62891 1.5703-0.41406 1.7773-0.035156 1.5469-0.17969 1.2383-1.4336 0.37891-1.7539 0.33594-1.4141 0.59766-0.23438 1.2578-0.66406 0.80859-0.57422 0.97266-0.82812 1.7969-0.30469 1.6875v1.6914l-0.62891 1.2227-0.89844 1.2734-0.50391 1.1367-0.28906 1.2578-0.47266 1.0352 0.24609 1.7773 0.10156 1.7461-0.25391 1.2422-0.48047 1.1133-0.37109 1.7734 0.12891 1.7539-0.55078 0.95703-1.1367 0.20312-1.3789 0.21094-1.1445-0.23828-1.7969-0.007812-1.1953 0.16016-1.1445 0.19531-1.3125-0.29688-1.5-0.53125-1.3008-0.43359-1.7109 0.078125-1.707 0.042969-1.2695 0.40625-1.2773 0.03125-1.4648-0.51562-1.1523-0.66406-1.5625-0.011719-1.5781 0.37109-1.4375 0.24219-1.0547-0.050782-1.3047 0.12109-1.1289-0.1875-1.4883-0.36328-0.89453-0.69922-1.3047-0.95703-0.86328-0.64844-1.2773-0.30078-1.9375-0.089844-1.0508-0.25781-1.3633 0.34766-1.5586-0.34766-1.5625-0.51562-1.0703-0.55078-1.082 0.26562-1.3867-0.003907-1.3438 0.027344-1.9062 0.57812-1.168-0.28125-1.6172 0.027344-1.5078-1.2539-0.92188-0.48438-0.75-1.0859-0.98828-0.5625-1.4766-0.12891-1.0273-0.10938-1.0312 1.1094-1.3164-0.30859-1.3711-0.50781-1.0664-0.3125-1.0312-0.45312-0.76562-0.98047-0.41797-1.0703-0.60156-1.0234-0.51562-1.1328-0.58203-1.0078-0.92969-0.55469-0.92578-0.51953-1.25 0.26953-1.1484-0.23828-0.33594-1.0195 0.28125-1.5391-1.1055-1.1445-1.2148-1.043-0.49219-1.207-0.50391-1.5625-0.97656-1.7305-0.67188-1.0039-0.92969-2.1953-0.5625-1.375-0.88672-0.87891-0.96094-0.61719 1.7344-0.77734 1.1016-1.0078 1.3359-0.89062 1.5039-1 0.84375-0.73438 2.168-1.9141 2.3086-0.85547 1.6289-1 1.3594-1.0312 1.9805-0.375 1.3359 0.19141 1.168 1.0156 0.97266 0.64844 1.1641 0.39453 1.0156-0.13672 0.87109 0.85938 1.1016 0.78125 0.94531 0.73438 1.8672 0.63672 0.67969 0.74609 1.9258 0.33594 1.1445 0.125 2.1055-2.7148 0.94141-0.34766 1.2617 0.19141 1.2188 0.75781 1.0039 0.57031 1.668 0.16406 1.3125 0.65234 1.5352 0.53516 1.1094 0.27344 1 0.39453 1.4141 0.57812 1.1484 0.027344 1.5039 0.085937 1.0742 0.72266 1.5586 0.48047 1.6367 0.43359 1.5039 0.039063 1.0742 0.29688 1.0977 0.51953 1.3203-0.085938 1.1641 0.25391 1.6094 0.035156 1.3828-0.007813 1.25 0.48047 0.84766 0.58203 1.1758 0.57422 1.0859 0.45312 1.0547 0.51953 1.0898 0.10938 1.5156-0.039062 1.25-0.91797 0.65234-1.0234 0.26953-1.2812 0.78125-0.67969h1.1992l1.2695-0.50781 2.4883-0.3125 1.2383-0.65234 1.1445-0.34375 1.1992 0.074219 0.89844-0.76562 1.0117-0.21875 1.1523-0.62109 0.875-0.59375 0.78516-1.0938 0.98438-0.85156 0.97656-1.2461 0.84766-0.82812 1.375-1.1641 1.3086-1.1094 0.98438-0.80859 1.2734-1.1328 1.0977-0.47266 1.1836-0.26172 1.6445-0.35938 1.0234-0.91016 0.37891 0.17969" fill="none" stroke="#fff" stroke-linecap="round" stroke-linejoin="round" stroke-miterlimit="10" stroke-width="2"/>
<path d="m308.16 80.051h0.23828l0.46094 0.98828-0.26562 1.1953 0.41797 1.5352 1.5234 1.3516 1.0703 0.97266 1.1406 0.25391 1.2852 0.76953 1.0195 0.33594 1.043 0.16797 0.82031 0.71094 1.2344 0.42188 1.2031 0.125 1.5898 0.81641 1.7383 0.46484 1.0195 0.29688 0.87109 0.53516 0.87109 0.64062 1.1328 0.66797 1.1328 0.375 0.94141 0.62109 1.3164 0.60938 1.8398 0.75391 1.0273 0.55469 1.5781-0.20312 1.3086-0.13672 1.0938-0.29297 1.3594-0.55859 1.1055-0.48828 1.3867-0.37891 1.0039-0.42578 1.0195-0.69922 1.2305-0.88672 1.0078-0.76953 1.1953 0.46094 1.4219 0.72656 0.87109 0.79688 0.96875-0.58594 1.2852-0.42578 0.91016 0.44141 1.3555 1.1836 0.76953 1.2109 1.4727 1.9141 2.5977 0.46094-1.7031 0.89844-1.1406 1.6484-2.207 1.0273-1.1641 0.21875-1.3672 0.29688-1.6406 0.91406-1.0664 0.59766-1.7539 0.57812-1.0508 0.054688-1.3906 0.33984-1.9805 0.55469-1.3789 0.16016-2.2891 0.26172-2.6211 0.41797-1.0469 0.25391-0.93359 0.72656-0.47656 1.3789-0.80859 0.74609-2.4727 1.4727-0.96484 0.87109-0.71875 0.99609-1.2148 1.0508-0.73047 0.83203-0.30078 1.418-0.41016 1.0781-0.92188 1.25-1.125 0.50781-1.7578 0.15625-1.6953-0.1875-1.1562-0.050781-1.3164 0.097656-1.8516-0.49219-1.6445 0.22266-1.4414-0.375-1.6992-0.33984-1.8242-0.48828-0.67969-0.85547-0.89453-0.46094-1.293-0.69922-1.6172-1.2188-0.88672-0.51562-1.0469-0.085938-1.0625-0.10938-1.0273 0.34766-0.71484 0.72656-1.0977 1.1133-1.25 0.91016-1.918 1.5938-0.86719 0.75781-1.0391 1.1406-1.1289 0.46875-1.2148 0.95703-1.0625 1.0273-1.707 0.57812-1.4648 1.1367-1.0391 1.1484-0.85938 0.875-1.7305-0.27734-1.082 0.10938-0.37109 0.97656-1.168-0.18359-1.207 0.43359-0.60547 1.3828-0.92188 0.43359-0.92188 0.54297-1.293 0.69531-1.1289 0.61719-1.0117 1.1523-0.79297 0.61328-0.36719 1.3477-0.45703 1.2812-1.0625 0.63281-0.77344 0.79297-0.98828-0.16406-1.0117 0.21484-0.85156 0.53906-1.1641 1.625-0.71094 0.98047-1.0977 0.80859-1.125 0.28516-1.1406 0.46094-1.043 0.49219-1.9297 1.8359-0.88281 1.2539-0.38672 0.94141-0.71094 1.8594-0.36719 1.0547-1.2461 0.11328-1.0898-0.054688-1.6328-0.49609-1.2812-0.085938-1.2578 0.25391-1.4961 0.11328-1.3164-0.36328-1.2734 0.019532-1.0273-0.10547-1.2344-0.11719-1.1289 0.53516-1.3867 0.19531-1.1562 0.29688-1.1602 0.23047-2.6992 1.1055-1.0391 0.58203-0.84766 0.94141-0.80469 1.1953-0.40625 0.96875-1.1094 0.45703-0.80078 1.1289-0.15625-1.7109 0.12109-1.1367 0.17578-1.0859-0.26953-1.0234-0.48438-0.91797 0.30078-1.0039 0.32812-1.5703 0.20703-1.4375 0.25781-1.0586-0.019532-1.0977-0.027343-1.207 0.39453-1.0391 1.2656-0.28906 1.2578-0.23828 0.96484-0.46094 1.0391-0.73438 0.77734-0.875 1.2734-2.0469 0.011719-1.2969 0.44922-1.5781 0.14844-1.1562 0.79688-0.79688 0.86719-1.2617 0.70703-1.0391 0.066406-1.0859-0.011719-1.1406 0.82031-1.4297 0.67188-1.0469 0.78906-0.76953 1.2695-0.67578 1.5156-0.67188 0.43359-1.0195 0.89453-0.74219 1.2617-0.66797 1.0898-0.44531 0.82422-0.83203 1.0703-0.41797 1.1523 0.13281 1.4531 0.62109 1.0703 0.054687 1-0.33594 1.0391 0.12891 0.99609 0.45312 1.3672 0.38672 1.0273-0.33203 1.3398 0.027343 1.4609-0.33594 1.3984-0.15234 1.8984-0.83984 0.98828-0.47266 1.168 0.3125 1.0078-0.023437 0.48438-1.0078 0.14844-1.418 0.83594-0.79297 0.72656-1.0273 0.35547-1.0391 0.49219-1.0039-0.23438-0.98438 1.0273-0.43359 0.94922-0.51172 1.8203 0.097656 1.0586-0.16406 0.050781-1.0039 0.089844-1.9961 0.125-1.7734 0.23438-1.1211 0.21875-1.7969 0.11328-1.2617 1.2891-1.4258 0.71484-0.74609 0.98828-0.47656 1.4609-0.74219 0.91016-0.70703 1.1602-0.89062 1.0859-0.21094 0.99219-0.28125 0.74219-0.73828 0.72656-0.86719 0.79297-1.0234 0.48047-1.3789v-1.0508l0.57031-0.875 1.3828-0.76172 0.58203-1.0234 1.332-0.63672 0.89844-0.46875 1.6094-0.066406 1.1133-0.14062 1.1953 0.18359 0.72656-1.0312 1.1172-1.3906 0.64453-1.25 1.1055-0.75 1.5156 0.21484 1.4258-0.17578 1.0547-0.5 1.0898-0.34375z" fill="#ccc" fill-rule="evenodd"/>
<path d="m308.16 80.051h0.23828l0.46094 0.98828-0.26562 1.1953 0.41797 1.5352 1.5234 1.3516 1.0703 0.97266 1.1406 0.25391 1.2852 0.76953 1.0195 0.33594 1.043 0.16797 0.82031 0.71094 1.2344 0.42188 1.2031 0.125 1.5898 0.81641 1.7383 0.46484 1.0195 0.29688 0.87109 0.53516 0.87109 0.64062 1.1328 0.66797 1.1328 0.375 0.94141 0.62109 1.3164 0.60938 1.8398 0.75391 1.0273 0.55469 1.5781-0.20312 1.3086-0.13672 1.0938-0.29297 1.3594-0.55859 1.1055-0.48828 1.3867-0.37891 1.0039-0.42578 1.0195-0.69922 1.2305-0.88672 1.0078-0.76953 1.1953 0.46094 1.4219 0.72656 0.87109 0.79688 0.96875-0.58594 1.2852-0.42578 0.91016 0.44141 1.3555 1.1836 0.76953 1.2109 1.4727 1.9141 2.5977 0.46094-1.7031 0.89844-1.1406 1.6484-2.207 1.0273-1.1641 0.21875-1.3672 0.29688-1.6406 0.91406-1.0664 0.59766-1.7539 0.57812-1.0508 0.054688-1.3906 0.33984-1.9805 0.55469-1.3789 0.16016-2.2891 0.26172-2.6211 0.41797-1.0469 0.25391-0.93359 0.72656-0.47656 1.3789-0.80859 0.74609-2.4727 1.4727-0.96484 0.87109-0.71875 0.99609-1.2148 1.0508-0.73047 0.83203-0.30078 1.418-0.41016 1.0781-0.92188 1.25-1.125 0.50781-1.7578 0.15625-1.6953-0.1875-1.1562-0.050781-1.3164 0.097656-1.8516-0.49219-1.6445 0.22266-1.4414-0.375-1.6992-0.33984-1.8242-0.48828-0.67969-0.85547-0.89453-0.46094-1.293-0.69922-1.6172-1.2188-0.88672-0.51562-1.0469-0.085938-1.0625-0.10938-1.0273 0.34766-0.71484 0.72656-1.0977 1.1133-1.25 0.91016-1.918 1.5938-0.86719 0.75781-1.0391 1.1406-1.1289 0.46875-1.2148 0.95703-1.0625 1.0273-1.707 0.57812-1.4648 1.1367-1.0391 1.1484-0.85938 0.875-1.7305-0.27734-1.082 0.10938-0.37109 0.97656-1.168-0.18359-1.207 0.43359-0.60547 1.3828-0.92188 0.43359-0.92188 0.54297-1.293 0.69531-1.1289 0.61719-1.0117 1.1523-0.79297 0.61328-0.36719 1.3477-0.45703 1.2812-1.0625 0.63281-0.77344 0.79297-0.98828-0.16406-1.0117 0.21484-0.85156 0.53906-1.1641 1.625-0.71094 0.98047-1.0977 0.80859-1.125 0.28516-1.1406 0.46094-1.043 0.49219-1.9297 1.8359-0.88281 1.2539-0.38672 0.94141-0.71094 1.8594-0.36719 1.0547-1.2461 0.11328-1.0898-0.054688-1.6328-0.49609-1.2812-0.085938-1.2578 0.25391-1.4961 0.11328-1.3164-0.36328-1.2734 0.019532-1.0273-0.10547-1.2344-0.11719-1.1289 0.53516-1.3867 0.19531-1.1562 0.29688-1.1602 0.23047-2.6992 1.1055-1.0391 0.58203-0.84766 0.94141-0.80469 1.1953-0.40625 0.96875-1.1094 0.45703-0.80078 1.1289-0.15625-1.7109 0.12109-1.1367 0.17578-1.0859-0.26953-1.0234-0.48438-0.91797 0.30078-1.0039 0.32812-1.5703 0.20703-1.4375 0.25781-1.0586-0.019532-1.0977-0.027343-1.207 0.39453-1.0391 1.2656-0.28906 1.2578-0.23828 0.96484-0.46094 1.0391-0.73438 0.77734-0.875 1.2734-2.0469 0.011719-1.2969 0.44922-1.5781 0.14844-1.1562 0.79688-0.79688 0.86719-1.2617 0.70703-1.0391 0.066406-1.0859-0.011719-1.1406 0.82031-1.4297 0.67188-1.0469 0.78906-0.76953 1.2695-0.67578 1.5156-0.67188 0.43359-1.0195 0.89453-0.74219 1.2617-0.66797 1.0898-0.44531 0.82422-0.83203 1.0703-0.41797 1.1523 0.13281 1.4531 0.62109 1.0703 0.054687 1-0.33594 1.0391 0.12891 0.99609 0.45312 1.3672 0.38672 1.0273-0.33203 1.3398 0.027343 1.4609-0.33594 1.3984-0.15234 1.8984-0.83984 0.98828-0.47266 1.168 0.3125 1.0078-0.023437 0.48438-1.0078 0.14844-1.418 0.83594-0.79297 0.72656-1.0273 0.35547-1.0391 0.49219-1.0039-0.23438-0.98438 1.0273-0.43359 0.94922-0.51172 1.8203 0.097656 1.0586-0.16406 0.050781-1.0039 0.089844-1.9961 0.125-1.7734 0.23438-1.1211 0.21875-1.7969 0.11328-1.2617 1.2891-1.4258 0.71484-0.74609 0.98828-0.47656 1.4609-0.74219 0.91016-0.70703 1.1602-0.89062 1.0859-0.21094 0.99219-0.28125 0.74219-0.73828 0.72656-0.86719 0.79297-1.0234 0.48047-1.3789v-1.0508l0.57031-0.875 1.3828-0.76172 0.58203-1.0234 1.332-0.63672 0.89844-0.46875 1.6094-0.066406 1.1133-0.14062 1.1953 0.18359 0.72656-1.0312 1.1172-1.3906 0.64453-1.25 1.1055-0.75 1.5156 0.21484 1.4258-0.17578 1.0547-0.5 1.0898-0.34375 0.57031 0.085937" fill="none" stroke="#fff" stroke-linecap="round" stroke-linejoin="round" stroke-miterlimit="10" stroke-width="2"/>
<path d="m364.41 92.609 0.48828 0.23438 2.2305 0.47266 1.168 0.77734 0.40625 0.92969 1.6094-0.16016 1.6914 0.15625 2.2305 0.70703 1.2539-0.62109 1.6016 0.19922 0.77344 0.64844 0.92188 0.66016 0.85938 0.68359 0.56641 1.4961 1.4141-0.10938 1.5742 0.17578 1.0469 0.27344 1.3516 0.45312 0.97266-0.35547 0.97656-0.85547 0.83984-0.86719 1.1797-0.16016 1.0586-0.050781 1.1719 0.82031 1.4766 0.86328 0.16406 1.375 0.65234 1.1719 0.39062 1.1719-1.0039 0.92969-0.33984 0.95312-1.2461 1.8047-0.82031 1.4922-0.47656 2.0859-1.0039 0.90625-1.418 0.48047-0.37109 1.4648-0.61328 1.4219h-1.8438l-1.7109 0.875-1.2891 1.2109-0.94531 0.89062-1.6406 1.5469-0.90625 0.94531-0.85156 1.1562-0.4375 1.2305-1.1719 1.7109-0.75781 0.66406-0.078125 1.418-0.67578 0.96484-1.6562 0.72266-0.96484 0.65625 0.11719 1.6914-1.2656 0.92969-1.0352 0.25391-0.55469 1.3281-0.59375 1.0703-0.53906 1.5664-1.0234 0.91016-1.6445 0.35938-1.1836 0.26172-1.0977 0.47266-1.2734 1.1328-0.98438 0.80859-0.76953 0.80859-1.3047 0.88281-0.76562 0.70312-1.0078 1.2695-1.0625 0.89844-0.94922 0.91016-0.65625 1.0586-1.1289 0.52734-1.6719 0.66797-0.78906 0.80078-1.3086-0.10938-1.1445 0.34375-1.2383 0.65234-2.1641 0.11719-0.86719 0.59375h-1.1445l-1.1758 0.39062-0.58203 1.3359-0.72656 1.3672-0.83594 0.77734-1.1406 0.37891-1.0898-0.26953-1.8438-0.55859-1.0859-0.45312-1.1758-0.57422-0.84766-0.58203-0.90234-0.45312-1.0938 0.0625-1.3008-0.058594-1.4492-0.29297-1.3594 0.14844-1.7188-0.60156-1.0742-0.29688-1.043 0.10156-1.457-0.33984-1.4062-0.27734-1.1211-0.87891-1.6172-0.30469-1.0625 0.082031-1.3242-0.26562-1.3555-0.66406-1.5625-0.48828-0.98047-0.44141-1.8672-0.74609-1.125-0.17188-1.2812-0.35156-1.0664-0.80078-1.6797-0.35938-0.94141 0.34766-1.4062 2.3789-1.4102 0.20703-1.5898 0.13281-0.91016-0.76562-1.6758-0.94141-1.0469-0.27734-1.2617-0.92969-0.78516-0.88672-0.9375-0.44922-1.0938 0.11328-1.6758-0.99219-0.74219-0.77344-1.3008-0.44922-1.7734 0.19922-1.3359 0.52344-1.4531 1.2383-2.3438 0.80859-2.3633 1.9141-0.66797 0.80469-1.4766 1.0547-1.6172 0.82031-1.3555 1.2773-1.2383 0.64062-1.207 0.20703-1.1797-0.48047-1.1953-0.64844-1.3125-0.34766-1.0977-0.43359-1.1602-0.52734-1.6836-0.35156-2.3477 0.15625-1.0078-0.14062-1.5898 0.28516-1.3438-0.042968 0.36719-1.0547 0.34375-1.1328 0.59375-1.3359 1.043-1.5859 1.2344-1.5117 1.0547-0.30469 1.2969-0.84375 0.98828-0.27344 1.1836-0.37891 1.2891-1.5508 0.51562-0.92188 1.5-1.2422 1.0117-0.21484 0.98828 0.16406 0.77344-0.79297 0.98828-0.48828 0.53125-1.4258 0.28125-1.0938 0.87891-0.86719 1.0117-1.1523 1.1289-0.61719 1.293-0.69531 0.92188-0.54297 0.92188-0.43359 0.60547-1.3828 0.90234-0.49609 0.98438 0.46875 0.77344-1.0898 1.168-0.21875 1.4297 0.29297 1.1602-0.89062 1.0391-1.1484 0.82031-0.77344 1.9375-0.77344 1.0547-0.73438 0.92969-0.93359 1.4922-0.73047 0.89844-0.75391 0.91797-0.98828 1.625-1.6992 1.2617-0.57031 1.1133-1.0234 0.96875-1.0664 0.88672-0.64844 1.0938-0.046875 1.1719 0.078125 1.3164 0.61719 1.0156 0.76562 1.3125 0.92969 1.4766 0.68359 0.67969 0.85547 1.0312 0.21875 1.5508 0.63672 1.4766 0.046875 1.7266 0.19141 1.918 0.078125 1.1094 0.39453 1.4141-0.24219 1.707 0.24219 1.5039-0.0625 1.6953-0.23828 1.0664-1.1914 0.60547-0.98047 0.09375-1.1211 0.57812-1.2227 1.2969-0.98828 0.66797-0.92969 0.83984-0.93359 2.2344-1.6016 1.5391-1.0625 0.47656-1.3789 0.93359-0.72656 1.0469-0.25391 1.6953-0.22656 3.2148-0.45312 1.3789-0.16016 1.9805-0.55469 1.3906-0.33984 1.0508-0.054688 1.0781-0.44531 1.7422-0.73047 1.6406-0.91406 1.3672-0.29688 1.1641-0.21875 1.4375-0.61328 1.3398-1.4844 1.5117-0.97266 1.4414-0.26953 1.4844-0.69531 1.1406-1.1562 0.74219-1.0977 1.2539-0.87109z" fill="#ccc" fill-rule="evenodd"/>
<path d="m364.41 92.609 0.48828 0.23438 2.2305 0.47266 1.168 0.77734 0.40625 0.92969 1.6094-0.16016 1.6914 0.15625 2.2305 0.70703 1.2539-0.62109 1.6016 0.19922 0.77344 0.64844 0.92188 0.66016 0.85938 0.68359 0.56641 1.4961 1.4141-0.10938 1.5742 0.17578 1.0469 0.27344 1.3516 0.45312 0.97266-0.35547 0.97656-0.85547 0.83984-0.86719 1.1797-0.16016 1.0586-0.050781 1.1719 0.82031 1.4766 0.86328 0.16406 1.375 0.65234 1.1719 0.39062 1.1719-1.0039 0.92969-0.33984 0.95312-1.2461 1.8047-0.82031 1.4922-0.47656 2.0859-1.0039 0.90625-1.418 0.48047-0.37109 1.4648-0.61328 1.4219h-1.8438l-1.7109 0.875-1.2891 1.2109-0.94531 0.89062-1.6406 1.5469-0.90625 0.94531-0.85156 1.1562-0.4375 1.2305-1.1719 1.7109-0.75781 0.66406-0.078125 1.418-0.67578 0.96484-1.6562 0.72266-0.96484 0.65625 0.11719 1.6914-1.2656 0.92969-1.0352 0.25391-0.55469 1.3281-0.59375 1.0703-0.53906 1.5664-1.0234 0.91016-1.6445 0.35938-1.1836 0.26172-1.0977 0.47266-1.2734 1.1328-0.98438 0.80859-0.76953 0.80859-1.3047 0.88281-0.76562 0.70312-1.0078 1.2695-1.0625 0.89844-0.94922 0.91016-0.65625 1.0586-1.1289 0.52734-1.6719 0.66797-0.78906 0.80078-1.3086-0.10938-1.1445 0.34375-1.2383 0.65234-2.1641 0.11719-0.86719 0.59375h-1.1445l-1.1758 0.39062-0.58203 1.3359-0.72656 1.3672-0.83594 0.77734-1.1406 0.37891-1.0898-0.26953-1.8438-0.55859-1.0859-0.45312-1.1758-0.57422-0.84766-0.58203-0.90234-0.45312-1.0938 0.0625-1.3008-0.058594-1.4492-0.29297-1.3594 0.14844-1.7188-0.60156-1.0742-0.29688-1.043 0.10156-1.457-0.33984-1.4062-0.27734-1.1211-0.87891-1.6172-0.30469-1.0625 0.082031-1.3242-0.26562-1.3555-0.66406-1.5625-0.48828-0.98047-0.44141-1.8672-0.74609-1.125-0.17188-1.2812-0.35156-1.0664-0.80078-1.6797-0.35938-0.94141 0.34766-1.4062 2.3789-1.4102 0.20703-1.5898 0.13281-0.91016-0.76562-1.6758-0.94141-1.0469-0.27734-1.2617-0.92969-0.78516-0.88672-0.9375-0.44922-1.0938 0.11328-1.6758-0.99219-0.74219-0.77344-1.3008-0.44922-1.7734 0.19922-1.3359 0.52344-1.4531 1.2383-2.3438 0.80859-2.3633 1.9141-0.66797 0.80469-1.4766 1.0547-1.6172 0.82031-1.3555 1.2773-1.2383 0.64062-1.207 0.20703-1.1797-0.48047-1.1953-0.64844-1.3125-0.34766-1.0977-0.43359-1.1602-0.52734-1.6836-0.35156-2.3477 0.15625-1.0078-0.14062-1.5898 0.28516-1.3438-0.042968 0.36719-1.0547 0.34375-1.1328 0.59375-1.3359 1.043-1.5859 1.2344-1.5117 1.0547-0.30469 1.2969-0.84375 0.98828-0.27344 1.1836-0.37891 1.2891-1.5508 0.51562-0.92188 1.5-1.2422 1.0117-0.21484 0.98828 0.16406 0.77344-0.79297 0.98828-0.48828 0.53125-1.4258 0.28125-1.0938 0.87891-0.86719 1.0117-1.1523 1.1289-0.61719 1.293-0.69531 0.92188-0.54297 0.92188-0.43359 0.60547-1.3828 0.90234-0.49609 0.98438 0.46875 0.77344-1.0898 1.168-0.21875 1.4297 0.29297 1.1602-0.89062 1.0391-1.1484 0.82031-0.77344 1.9375-0.77344 1.0547-0.73438 0.92969-0.93359 1.4922-0.73047 0.89844-0.75391 0.91797-0.98828 1.625-1.6992 1.2617-0.57031 1.1133-1.0234 0.96875-1.0664 0.88672-0.64844 1.0938-0.046875 1.1719 0.078125 1.3164 0.61719 1.0156 0.76562 1.3125 0.92969 1.4766 0.68359 0.67969 0.85547 1.0312 0.21875 1.5508 0.63672 1.4766 0.046875 1.7266 0.19141 1.918 0.078125 1.1094 0.39453 1.4141-0.24219 1.707 0.24219 1.5039-0.0625 1.6953-0.23828 1.0664-1.1914 0.60547-0.98047 0.09375-1.1211 0.57812-1.2227 1.2969-0.98828 0.66797-0.92969 0.83984-0.93359 2.2344-1.6016 1.5391-1.0625 0.47656-1.3789 0.93359-0.72656 1.0469-0.25391 1.6953-0.22656 3.2148-0.45312 1.3789-0.16016 1.9805-0.55469 1.3906-0.33984 1.0508-0.054688 1.0781-0.44531 1.7422-0.73047 1.6406-0.91406 1.3672-0.29688 1.1641-0.21875 1.4375-0.61328 1.3398-1.4844 1.5117-0.97266 1.4414-0.26953 1.4844-0.69531 1.1406-1.1562 0.74219-1.0977 1.2539-0.87109 1.3398-0.36328" fill="none" stroke="#fff" stroke-linecap="round" stroke-linejoin="round" stroke-miterlimit="10" stroke-width="2"/>
<path d="m308.16 80.051h0.23828l0.46094 0.98828-0.26562 1.1953 0.41797 1.5352 1.5234 1.3516 1.0703 0.97266 1.1406 0.25391 1.2852 0.76953 1.0195 0.33594 1.043 0.16797 0.82031 0.71094 1.2344 0.42188 1.2031 0.125 1.5898 0.81641 1.7383 0.46484 1.0195 0.29688 0.87109 0.53516 0.87109 0.64062 1.1328 0.66797 1.1328 0.375 0.94141 0.62109 1.3164 0.60938 1.8398 0.75391 1.0273 0.55469 1.5781-0.20312 1.3086-0.13672 1.0938-0.29297 1.3594-0.55859 1.1055-0.48828 1.3867-0.37891 1.0039-0.42578 1.0195-0.69922 1.2305-0.88672 1.0078-0.76953 1.1953 0.46094 1.4219 0.72656 0.87109 0.79688 0.96875-0.58594 1.2852-0.42578 0.91016 0.44141 1.3555 1.1836 0.76953 1.2109 1.4727 1.9141 2.5977 0.46094-1.7031 0.89844-1.1406 1.6484-2.207 1.0273-1.1641 0.21875-1.3672 0.29688-1.6406 0.91406-1.0664 0.59766-1.7539 0.57812-1.0508 0.054688-1.3906 0.33984-1.9805 0.55469-1.3789 0.16016-2.2891 0.26172-2.6211 0.41797-1.0469 0.25391-0.93359 0.72656-0.47656 1.3789-0.80859 0.74609-2.4727 1.4727-0.96484 0.87109-0.71875 0.99609-1.2148 1.0508-0.73047 0.83203-0.30078 1.418-0.41016 1.0781-0.92188 1.25-1.125 0.50781-1.7578 0.15625-1.6953-0.1875-1.1562-0.050781-1.3164 0.097656-1.8516-0.49219-1.6445 0.22266-1.4414-0.375-1.6992-0.33984-1.8242-0.48828-0.67969-0.85547-0.89453-0.46094-1.293-0.69922-1.6172-1.2188-0.88672-0.51562-1.0469-0.085938-1.0625-0.10938-1.0273 0.34766-0.71484 0.72656-1.0977 1.1133-1.25 0.91016-1.918 1.5938-0.86719 0.75781-1.0391 1.1406-1.1289 0.46875-1.2148 0.95703-1.0625 1.0273-1.707 0.57812-1.4648 1.1367-1.0391 1.1484-0.85938 0.875-1.7305-0.27734-1.082 0.10938-0.37109 0.97656-1.168-0.18359-1.207 0.43359-0.60547 1.3828-0.92188 0.43359-0.92188 0.54297-1.293 0.69531-1.1289 0.61719-1.0117 1.1523-0.79297 0.61328-0.36719 1.3477-0.45703 1.2812-1.0625 0.63281-0.77344 0.79297-0.98828-0.16406-1.0117 0.21484-0.85156 0.53906-1.1641 1.625-0.71094 0.98047-1.0977 0.80859-1.125 0.28516-1.1406 0.46094-1.043 0.49219-1.9297 1.8359-0.88281 1.2539-0.38672 0.94141-0.71094 1.8594-0.36719 1.0547-1.2461 0.11328-1.0898-0.054688-1.6328-0.49609-1.2812-0.085938-1.2578 0.25391-1.4961 0.11328-1.3164-0.36328-1.2734 0.019532-1.0273-0.10547-1.2344-0.11719-1.1289 0.53516-1.3867 0.19531-1.1562 0.29688-1.1602 0.23047-2.6992 1.1055-1.0391 0.58203-0.84766 0.94141-0.80469 1.1953-0.40625 0.96875-1.1094 0.45703-0.80078 1.1289-0.15625-1.7109 0.12109-1.1367 0.17578-1.0859-0.26953-1.0234-0.48438-0.91797 0.30078-1.0039 0.32812-1.5703 0.20703-1.4375 0.25781-1.0586-0.019532-1.0977-0.027343-1.207 0.39453-1.0391 1.2656-0.28906 1.2578-0.23828 0.96484-0.46094 1.0391-0.73438 0.77734-0.875 1.2734-2.0469 0.011719-1.2969 0.44922-1.5781 0.14844-1.1562 0.79688-0.79688 0.86719-1.2617 0.70703-1.0391 0.066406-1.0859-0.011719-1.1406 0.82031-1.4297 0.67188-1.0469 0.78906-0.76953 1.2695-0.67578 1.5156-0.67188 0.43359-1.0195 0.89453-0.74219 1.2617-0.66797 1.0898-0.44531 0.82422-0.83203 1.0703-0.41797 1.1523 0.13281 1.4531 0.62109 1.0703 0.054687 1-0.33594 1.0391 0.12891 0.99609 0.45312 1.3672 0.38672 1.0273-0.33203 1.3398 0.027343 1.4609-0.33594 1.3984-0.15234 1.8984-0.83984 0.98828-0.47266 1.168 0.3125 1.0078-0.023437 0.48438-1.0078 0.14844-1.418 0.83594-0.79297 0.72656-1.0273 0.35547-1.0391 0.49219-1.0039-0.23438-0.98438 1.0273-0.43359 0.94922-0.51172 1.8203 0.097656 1.0586-0.16406 0.050781-1.0039 0.089844-1.9961 0.125-1.7734 0.23438-1.1211 0.21875-1.7969 0.11328-1.2617 1.2891-1.4258 0.71484-0.74609 0.98828-0.47656 1.4609-0.74219 0.91016-0.70703 1.1602-0.89062 1.0859-0.21094 0.99219-0.28125 0.74219-0.73828 0.72656-0.86719 0.79297-1.0234 0.48047-1.3789v-1.0508l0.57031-0.875 1.3828-0.76172 0.58203-1.0234 1.332-0.63672 0.89844-0.46875 1.6094-0.066406 1.1133-0.14062 1.1953 0.18359 0.72656-1.0312 1.1172-1.3906 0.64453-1.25 1.1055-0.75 1.5156 0.21484 1.4258-0.17578 1.0547-0.5 1.0898-0.34375z" fill="#0a5394" fill-rule="evenodd"/>
<path d="m308.16 80.051h0.23828l0.46094 0.98828-0.26562 1.1953 0.41797 1.5352 1.5234 1.3516 1.0703 0.97266 1.1406 0.25391 1.2852 0.76953 1.0195 0.33594 1.043 0.16797 0.82031 0.71094 1.2344 0.42188 1.2031 0.125 1.5898 0.81641 1.7383 0.46484 1.0195 0.29688 0.87109 0.53516 0.87109 0.64062 1.1328 0.66797 1.1328 0.375 0.94141 0.62109 1.3164 0.60938 1.8398 0.75391 1.0273 0.55469 1.5781-0.20312 1.3086-0.13672 1.0938-0.29297 1.3594-0.55859 1.1055-0.48828 1.3867-0.37891 1.0039-0.42578 1.0195-0.69922 1.2305-0.88672 1.0078-0.76953 1.1953 0.46094 1.4219 0.72656 0.87109 0.79688 0.96875-0.58594 1.2852-0.42578 0.91016 0.44141 1.3555 1.1836 0.76953 1.2109 1.4727 1.9141 2.5977 0.46094-1.7031 0.89844-1.1406 1.6484-2.207 1.0273-1.1641 0.21875-1.3672 0.29688-1.6406 0.91406-1.0664 0.59766-1.7539 0.57812-1.0508 0.054688-1.3906 0.33984-1.9805 0.55469-1.3789 0.16016-2.2891 0.26172-2.6211 0.41797-1.0469 0.25391-0.93359 0.72656-0.47656 1.3789-0.80859 0.74609-2.4727 1.4727-0.96484 0.87109-0.71875 0.99609-1.2148 1.0508-0.73047 0.83203-0.30078 1.418-0.41016 1.0781-0.92188 1.25-1.125 0.50781-1.7578 0.15625-1.6953-0.1875-1.1562-0.050781-1.3164 0.097656-1.8516-0.49219-1.6445 0.22266-1.4414-0.375-1.6992-0.33984-1.8242-0.48828-0.67969-0.85547-0.89453-0.46094-1.293-0.69922-1.6172-1.2188-0.88672-0.51562-1.0469-0.085938-1.0625-0.10938-1.0273 0.34766-0.71484 0.72656-1.0977 1.1133-1.25 0.91016-1.918 1.5938-0.86719 0.75781-1.0391 1.1406-1.1289 0.46875-1.2148 0.95703-1.0625 1.0273-1.707 0.57812-1.4648 1.1367-1.0391 1.1484-0.85938 0.875-1.7305-0.27734-1.082 0.10938-0.37109 0.97656-1.168-0.18359-1.207 0.43359-0.60547 1.3828-0.92188 0.43359-0.92188 0.54297-1.293 0.69531-1.1289 0.61719-1.0117 1.1523-0.79297 0.61328-0.36719 1.3477-0.45703 1.2812-1.0625 0.63281-0.77344 0.79297-0.98828-0.16406-1.0117 0.21484-0.85156 0.53906-1.1641 1.625-0.71094 0.98047-1.0977 0.80859-1.125 0.28516-1.1406 0.46094-1.043 0.49219-1.9297 1.8359-0.88281 1.2539-0.38672 0.94141-0.71094 1.8594-0.36719 1.0547-1.2461 0.11328-1.0898-0.054688-1.6328-0.49609-1.2812-0.085938-1.2578 0.25391-1.4961 0.11328-1.3164-0.36328-1.2734 0.019532-1.0273-0.10547-1.2344-0.11719-1.1289 0.53516-1.3867 0.19531-1.1562 0.29688-1.1602 0.23047-2.6992 1.1055-1.0391 0.58203-0.84766 0.94141-0.80469 1.1953-0.40625 0.96875-1.1094 0.45703-0.80078 1.1289-0.15625-1.7109 0.12109-1.1367 0.17578-1.0859-0.26953-1.0234-0.48438-0.91797 0.30078-1.0039 0.32812-1.5703 0.20703-1.4375 0.25781-1.0586-0.019532-1.0977-0.027343-1.207 0.39453-1.0391 1.2656-0.28906 1.2578-0.23828 0.96484-0.46094 1.0391-0.73438 0.77734-0.875 1.2734-2.0469 0.011719-1.2969 0.44922-1.5781 0.14844-1.1562 0.79688-0.79688 0.86719-1.2617 0.70703-1.0391 0.066406-1.0859-0.011719-1.1406 0.82031-1.4297 0.67188-1.0469 0.78906-0.76953 1.2695-0.67578 1.5156-0.67188 0.43359-1.0195 0.89453-0.74219 1.2617-0.66797 1.0898-0.44531 0.82422-0.83203 1.0703-0.41797 1.1523 0.13281 1.4531 0.62109 1.0703 0.054687 1-0.33594 1.0391 0.12891 0.99609 0.45312 1.3672 0.38672 1.0273-0.33203 1.3398 0.027343 1.4609-0.33594 1.3984-0.15234 1.8984-0.83984 0.98828-0.47266 1.168 0.3125 1.0078-0.023437 0.48438-1.0078 0.14844-1.418 0.83594-0.79297 0.72656-1.0273 0.35547-1.0391 0.49219-1.0039-0.23438-0.98438 1.0273-0.43359 0.94922-0.51172 1.8203 0.097656 1.0586-0.16406 0.050781-1.0039 0.089844-1.9961 0.125-1.7734 0.23438-1.1211 0.21875-1.7969 0.11328-1.2617 1.2891-1.4258 0.71484-0.74609 0.98828-0.47656 1.4609-0.74219 0.91016-0.70703 1.1602-0.89062 1.0859-0.21094 0.99219-0.28125 0.74219-0.73828 0.72656-0.86719 0.79297-1.0234 0.48047-1.3789v-1.0508l0.57031-0.875 1.3828-0.76172 0.58203-1.0234 1.332-0.63672 0.89844-0.46875 1.6094-0.066406 1.1133-0.14062 1.1953 0.18359 0.72656-1.0312 1.1172-1.3906 0.64453-1.25 1.1055-0.75 1.5156 0.21484 1.4258-0.17578 1.0547-0.5 1.0898-0.34375 0.57031 0.085937" fill="none" stroke="#fff" stroke-linecap="round" stroke-linejoin="round" stroke-miterlimit="10"/>
<path d="m315.5 100.68c0 3.5898-2.9102 6.5-6.5 6.5s-6.5-2.9102-6.5-6.5 2.9102-6.5 6.5-6.5 6.5 2.9102 6.5 6.5" fill="#28c028" fill-rule="evenodd" stroke="#000" stroke-linecap="round" stroke-linejoin="round" stroke-miterlimit="10"/>
<path d="m206.3 94.684v-16.469h3.3281v6.4844h6.5v-6.4844h3.3281v16.469h-3.3281v-7.2031h-6.5v7.2031zm16.578-16.469h3.3125v8.9219c0 1.418 0.039063 2.3359 0.125 2.75 0.14453 0.67969 0.48438 1.2188 1.0156 1.625 0.53906 0.40625 1.2734 0.60938 2.2031 0.60938 0.9375 0 1.6445-0.19141 2.125-0.57812 0.47656-0.38281 0.76562-0.85938 0.85938-1.4219 0.10156-0.5625 0.15625-1.4922 0.15625-2.7969v-9.1094h3.3281v8.6562c0 1.9688-0.09375 3.3672-0.28125 4.1875-0.17969 0.8125-0.50781 1.5-0.98438 2.0625-0.48047 0.5625-1.125 1.0117-1.9375 1.3438s-1.8711 0.5-3.1719 0.5c-1.5742 0-2.7656-0.18359-3.5781-0.54688s-1.4531-0.83203-1.9219-1.4062c-0.46875-0.58203-0.77734-1.1914-0.92188-1.8281-0.21875-0.94531-0.32812-2.3438-0.32812-4.1875zm31.469 16.469h-3.6094l-1.4375-3.7344h-6.5781l-1.3594 3.7344h-3.5312l6.4062-16.469h3.5156zm-6.1094-6.5156-2.2812-6.1094-2.2188 6.1094zm12.203 6.5156v-6.9219l-6.0312-9.5469h3.8906l3.875 6.5156 3.7969-6.5156h3.8281l-6.0469 9.5625v6.9062zm25.859 0h-3.6094l-1.4375-3.7344h-6.5781l-1.3594 3.7344h-3.5312l6.4062-16.469h3.5156zm-6.1094-6.5156-2.2812-6.1094-2.2188 6.1094zm7.9062 6.5156v-16.469h3.2344l6.75 11v-11h3.0781v16.469h-3.3281l-6.6406-10.734v10.734zm0 0" fill="none" stroke="#fff" stroke-linecap="round" stroke-linejoin="round" stroke-miterlimit="10" stroke-width="2"/>
<path d="m206.3 94.684v-16.469h3.3281v6.4844h6.5v-6.4844h3.3281v16.469h-3.3281v-7.2031h-6.5v7.2031zm16.578-16.469h3.3125v8.9219c0 1.418 0.039063 2.3359 0.125 2.75 0.14453 0.67969 0.48438 1.2188 1.0156 1.625 0.53906 0.40625 1.2734 0.60938 2.2031 0.60938 0.9375 0 1.6445-0.19141 2.125-0.57812 0.47656-0.38281 0.76562-0.85938 0.85938-1.4219 0.10156-0.5625 0.15625-1.4922 0.15625-2.7969v-9.1094h3.3281v8.6562c0 1.9688-0.09375 3.3672-0.28125 4.1875-0.17969 0.8125-0.50781 1.5-0.98438 2.0625-0.48047 0.5625-1.125 1.0117-1.9375 1.3438s-1.8711 0.5-3.1719 0.5c-1.5742 0-2.7656-0.18359-3.5781-0.54688s-1.4531-0.83203-1.9219-1.4062c-0.46875-0.58203-0.77734-1.1914-0.92188-1.8281-0.21875-0.94531-0.32812-2.3438-0.32812-4.1875zm31.469 16.469h-3.6094l-1.4375-3.7344h-6.5781l-1.3594 3.7344h-3.5312l6.4062-16.469h3.5156zm-6.1094-6.5156-2.2812-6.1094-2.2188 6.1094zm12.203 6.5156v-6.9219l-6.0312-9.5469h3.8906l3.875 6.5156 3.7969-6.5156h3.8281l-6.0469 9.5625v6.9062zm25.859 0h-3.6094l-1.4375-3.7344h-6.5781l-1.3594 3.7344h-3.5312l6.4062-16.469h3.5156zm-6.1094-6.5156-2.2812-6.1094-2.2188 6.1094zm7.9062 6.5156v-16.469h3.2344l6.75 11v-11h3.0781v16.469h-3.3281l-6.6406-10.734v10.734z" fill-rule="evenodd"/>
</g>
</svg>
