<?xml version="1.0" encoding="UTF-8"?>
<svg width="500pt" height="405pt" version="1.1" viewBox="0 0 500 405" xmlns="http://www.w3.org/2000/svg">
<g id="a">
<rect width="500" height="405" fill="none"/>
<path d="m293.56 159.95 0.55859 1.2227 0.3125 2.4414 0.70703 1.8594 0.52344 1.3789 1 1.4609 2.4375 2.0547 1.5195 0.48438 2.8047 0.64844 0.80469 0.81641 0.75391 0.76953 0.90625 1.9297 0.77734 1.0195 2.4492 1.0625 1.1094 0.70703 1.6016 1.0195 1.5859 1.1289 0.72656 1.1016 0.71875 1.9023 0.86328 1.7852 0.0625 1.082 0.20312 1.1133-0.62891 1.1602-0.82031 1.2148-0.57812 0.84766-0.44922 1.2656-0.36328 1.0117-0.73828 0.85156-1.1289 1.3047-0.91016 1.0508-1.4609 1.6875-2.6758 2.0234-1.6602 1.7734-1.1953 2.4375-0.86328 2.1836-0.39844 1.0117-0.47656 1.2109-0.67578 0.81641-0.66016 0.79688-0.99609 1.1992-0.83984 1.0156-0.98047 2.8945-0.69922 1.0977-1.6562 1.1016-1.3125 1.1094-0.90234 0.90234-1.6172 2.793-0.60547 0.81641-1.2344 0.30859-1.3828 1.0117-1.2383 0.73047-1.1367 1.3711-0.78906 0.69141-2.3828 1.1836-0.98828 0.66797-1.1016 1.3359-0.53125 2.0195-0.56641 1.9961-1.5312 1.5781-0.97656 0.54688-2.3984 0.20703-1.2109 0.82812-0.56641 0.94141-1.2109 0.78906-2.0977 0.20703-1.0195-0.074219-1.1406-0.36328-1.2539-1.0898-2.2148-3.5898-1.8789-1.5859-1.0742-0.5-0.69531 1.5195-0.32031 2.2266-1.6953 4.3438-0.42188 0.99609-1.7773 2.6719-2.0547 2.6719-1.5078 1.7422-1.3164 2.2031-0.48828 1.5508-0.78906 2.4766-0.58594 1.8516-1.1797 1.7617-0.99219 1.875-4.3906 5.3242-0.84375 2.5781-1.5938-2.0117-0.91406-0.81641-1-0.53125-1-0.86719-1.5195-1.7656-0.83984-0.61719-0.97656-0.86328-0.91406-1.0391-0.40625-1.457-0.43359-2.0742-0.69141-1.0508-3.0391-0.69141-2.3594-1.4336-2.0156-1.1367-1.1484-0.81641-1.0508-0.92578-1.9023-1.1133-2.0742-2.0859-0.73047-1.4453-0.29297-1.25-0.16406-1.4688 0.27344-1.1758-0.60547-1.2227-1.4062-0.78906-1.6211-0.43359-0.83984-0.76562-0.28516-1.0859 0.17578-1.125-1.0898-1.9375-0.875-0.55859-1.457-0.28125-2.6094-2.25-1-1.1992-0.70312-0.97656-1.0508-0.77734-2.0508-1.4805-3.0156-3.0156-0.17188-1.2344 0.92578-1.3125 1.5586-0.8125 1.4062-1.3359 1.582-0.61719 1.0742 0.125 2.9805 0.38281 1.4688-0.33594 0.67969-1.8164 0.50391-1.0977 1.3008-0.86719 0.62891-0.875 1.4336-1.6328 0.88672-0.55469 1.5195 0.27344 1.5938 0.32031 1.3711-0.58203 0.70703-1.6406 0.41797-1.125 1.2734-1.3477 2.0742-1.668 2.9805-2.1719 0.875-0.89062 1.1758-1.4102 0.75-0.76562 2.0781-0.76562 2.2578-1.125 1.5078-0.58984 1.0039-0.70703 0.51562-1.1719 1.0508-1.1875 1.3984-0.875 1.6797-1.457 0.65234-1.0625 1.1016-1.4141 1.1367-1.168 1.332-1.8555 1.5703-1.5078 1.4336-1.2227 0.875-0.66797 1.1484-0.75 0.90234-1.1641 2.0898-1.6914 1.9023-1.3359 0.76562-0.67969 0.76562-0.875 2.3359-1.6562 1.1602-0.38281 1.2344-0.035157 1.1367-0.49609 1.4102-2.457 1.1836-1.2734 0.82812-0.87891 1.1992-0.51562 1.9766 0.26953 1.2617-0.49219 0.92188-1.332 4.2383 0.066406 1.7148-0.59375 1.7852-1.1562 2.582-0.80859 1.3438-0.85547 1.2539-0.63281 1.1602-0.71094 1.0352-0.26953 1.5977-0.67969 1.3438-0.91797 0.98828-0.67578 1.3555-0.35938 1.6953-0.45312z" fill="#ccc" fill-rule="evenodd"/>
<path d="m293.56 159.95 0.55859 1.2227 0.3125 2.4414 0.70703 1.8594 0.52344 1.3789 1 1.4609 2.4375 2.0547 1.5195 0.48438 2.8047 0.64844 0.80469 0.81641 0.75391 0.76953 0.90625 1.9297 0.77734 1.0195 2.4492 1.0625 1.1094 0.70703 1.6016 1.0195 1.5859 1.1289 0.72656 1.1016 0.71875 1.9023 0.86328 1.7852 0.0625 1.082 0.20312 1.1133-0.62891 1.1602-0.82031 1.2148-0.57812 0.84766-0.44922 1.2656-0.36328 1.0117-0.73828 0.85156-1.1289 1.3047-0.91016 1.0508-1.4609 1.6875-2.6758 2.0234-1.6602 1.7734-1.1953 2.4375-0.86328 2.1836-0.39844 1.0117-0.47656 1.2109-0.67578 0.81641-0.66016 0.79688-0.99609 1.1992-0.83984 1.0156-0.98047 2.8945-0.69922 1.0977-1.6562 1.1016-1.3125 1.1094-0.90234 0.90234-1.6172 2.793-0.60547 0.81641-1.2344 0.30859-1.3828 1.0117-1.2383 0.73047-1.1367 1.3711-0.78906 0.69141-2.3828 1.1836-0.98828 0.66797-1.1016 1.3359-0.53125 2.0195-0.56641 1.9961-1.5312 1.5781-0.97656 0.54688-2.3984 0.20703-1.2109 0.82812-0.56641 0.94141-1.2109 0.78906-2.0977 0.20703-1.0195-0.074219-1.1406-0.36328-1.2539-1.0898-2.2148-3.5898-1.8789-1.5859-1.0742-0.5-0.69531 1.5195-0.32031 2.2266-1.6953 4.3438-0.42188 0.99609-1.7773 2.6719-2.0547 2.6719-1.5078 1.7422-1.3164 2.2031-0.48828 1.5508-0.78906 2.4766-0.58594 1.8516-1.1797 1.7617-0.99219 1.875-4.3906 5.3242-0.84375 2.5781-1.5938-2.0117-0.91406-0.81641-1-0.53125-1-0.86719-1.5195-1.7656-0.83984-0.61719-0.97656-0.86328-0.91406-1.0391-0.40625-1.457-0.43359-2.0742-0.69141-1.0508-3.0391-0.69141-2.3594-1.4336-2.0156-1.1367-1.1484-0.81641-1.0508-0.92578-1.9023-1.1133-2.0742-2.0859-0.73047-1.4453-0.29297-1.25-0.16406-1.4688 0.27344-1.1758-0.60547-1.2227-1.4062-0.78906-1.6211-0.43359-0.83984-0.76562-0.28516-1.0859 0.17578-1.125-1.0898-1.9375-0.875-0.55859-1.457-0.28125-2.6094-2.25-1-1.1992-0.70312-0.97656-1.0508-0.77734-2.0508-1.4805-3.0156-3.0156-0.17188-1.2344 0.92578-1.3125 1.5586-0.8125 1.4062-1.3359 1.582-0.61719 1.0742 0.125 2.9805 0.38281 1.4688-0.33594 0.67969-1.8164 0.50391-1.0977 1.3008-0.86719 0.62891-0.875 1.4336-1.6328 0.88672-0.55469 1.5195 0.27344 1.5938 0.32031 1.3711-0.58203 0.70703-1.6406 0.41797-1.125 1.2734-1.3477 2.0742-1.668 2.9805-2.1719 0.875-0.89062 1.1758-1.4102 0.75-0.76562 2.0781-0.76562 2.2578-1.125 1.5078-0.58984 1.0039-0.70703 0.51562-1.1719 1.0508-1.1875 1.3984-0.875 1.6797-1.457 0.65234-1.0625 1.1016-1.4141 1.1367-1.168 1.332-1.8555 1.5703-1.5078 1.4336-1.2227 0.875-0.66797 1.1484-0.75 0.90234-1.1641 2.0898-1.6914 1.9023-1.3359 0.76562-0.67969 0.76562-0.875 2.3359-1.6562 1.1602-0.38281 1.2344-0.035157 1.1367-0.49609 1.4102-2.457 1.1836-1.2734 0.82812-0.87891 1.1992-0.51562 1.9766 0.26953 1.2617-0.49219 0.92188-1.332 4.2383 0.066406 1.7148-0.59375 1.7852-1.1562 2.582-0.80859 1.3438-0.85547 1.2539-0.63281 1.1602-0.71094 1.0352-0.26953 1.5977-0.67969 1.3438-0.91797 0.98828-0.67578 1.3555-0.35938 1.6953-0.45312 0.17188 0.52734" fill="none" stroke="#fff" stroke-linecap="round" stroke-linejoin="round" stroke-miterlimit="10" stroke-width="2"/>
<path d="m353.04 13.781 1.2461-0.023437 1.2969 0.050781 1.6211 0.65234 1.2852 1.2109 1.2578 1.3359 2.3984 2.8906 1.8398 1 1.0625 0.90234 0.875 1.125 1.4844 1.1602 1.0508 0.60547 1.5938 1.6172 1.2852 1.1133 1.3594 0.61719 1.8125 0.011718 1.7188-0.55469 1.3594-0.59375 1.5195-0.125 1.1875 0.27344 1.6914-0.011718 1.6289 0.17188 1.4336 0.023437 0.95312-0.32031 1.7148-0.21094 1.3086-0.058594 1.1016-0.75391 0.66406 1.0391 0.10938 2.1875 0.25 1.043 0.42969 1.582 0.11328 1.2812-1.1016 0.99219-1.2539 0.75391-1.1094 0.51953-0.33594 1.4844 0.60156 1.5117 0.85938 1.6289 0.28906 1.0039-0.3125 1.3672 0.16797 1.3164 0.69531 0.83984 0.91016 0.76953 1.3438 0.8125 1.1992 0.91016 1.0039 0.98438 1.2227 0.86328 1.2461 0.85938 0.88672 0.98438 1.0781 1.3398 0.71875 0.86328 1.7266 0.074219 1.1484 0.64844 0.88672 0.59766 1.7031 1.5078 0.69531 0.98438 0.67188 1.2461 1.3164 1.4375 0.98047 0.88672 1.0312 0.69531 1.2695 0.71484 1.2695 0.55469 1.4414 0.070313 1.1016 0.52734 0.52734 1.0547 0.30859 1.0547-0.14062 1.8945 0.16406 1.2227 0.50391 2.3945 0.36328 1.0781 0.35938 1.0547 0.45312 2.1562 0.35938 1.4141 0.26172 1.2188 0.69531 1.8477 0.52734 2.1992 0.24609 1.4531-0.019531 1.8867 0.1875 1.3867 0.25391 1.8672-0.17578 1.5117-0.76953 1.2656-1.0039 0.38672-1.1055 0.56641 0.3125 1.0625 1 0.51562 1.6172 0.35938 0.33203 1.4219 0.26562 1.1406 0.30078 1.2812 0.28516 1.0977 0.71094 1.6641 1.8906 1.2617 1.2891 0.25781 1.5898 1.2109 0.72656 1.1523 1.4102 1.1406 1.5273 0.33984 1.043 0.37891 1.3945 0.52734 1.6523 0.90234 0.88672 0.58203 0.875 0.63281 1.5156 0.73828 1.0039 0.31641 1.375 0.32812 0.88672 0.70703 0.60547 0.88281 0.71484 1.418 0.50781 1.2383 0.31641 1.7109 0.26953 1.0938 0.46094 1.0195 0.42578 0.91016 0.48438 1.0195 1.3086 1.7812 0.69141 0.8125 0.69141 0.82812 0.89844 1.2734 0.78906 1.4102 0.23047 1.6484-0.011719 1.1797-0.097656 1.1133 0.18359 1.7852 0.35156 1.8086 0.097657 1.1055 0.17969 1.8672 0.12109 1.2852 0.53516 1.5156 0.47266 1.6641 0.39844 1.0312 0.31641 1.1758 0.26953 1.1797 0.26953 0.96875 0.12891 1.082 0.097656 1.1523 0.23438 1.043 0.43359 0.97266 0.47266 1.1641 0.49609 1.0781 1.0195 1.4688 0.82812 1.0938 1.3125 1.8789 0.73828 1.3594 0.60547 0.94531 1.543 1.168 0.95703 0.58203 1.6875 1.4688 0.91016 1.1875 0.59375 0.89844 0.93359 1.25 1.4219 1.9297 0.75 0.71875 1.2031 0.65234 1.0703 0.5 1.4766 0.67578 1.2891 0.51172 1.5508 0.63281 1.3359 0.47266 1.0938 0.59375 1.1758 0.8125 1.1289 1.0312 0.71484 0.71875 0.79297 0.81641 0.625 1.3594-0.027343 1.125-0.51562 1.3555-1.0469 1.2344-1.1406 0.70312-1.0195 0.89062-0.47656 1.0586 0.14062 1.2031 0.44531 1.1523 0.52734 1.5352 0.085938 1.6914-0.089844 1.5-0.87891 0.71094-1.125-0.023437-4.7422-3.0508-1.8164-0.69141h-1.3594l-1.5586 0.91406-1.2578 0.51953-2.2227 0.75391-1.7188 1.2461-2.4102 0.50781-5.2852 0.65234-1.668 0.39844-1.4961 0.45703-1.7305 0.32031-1.4336 0.30859-2.1367-0.44531-1.0742-0.22266-1.2227-0.097656-1.125 0.42969-1.0234 1.1758-1.1875 0.70312-1.0117 0.19922-1.1016 0.42969-0.88672 0.63281-1.793 0.25781-1.4453-0.023437-1.4453-0.50781-1.2461 0.050781-1.2734 0.32031-1.7305 0.65625-3.1758 1.0352-1.1484 0.44531-1.1367 0.69141-0.89062 0.81641-2.3203 1.1484-1.3359 0.48047-0.96094 0.86719-1.1641 1.9141-0.86328 1.0508-0.85156 0.81641-0.89062 0.70312-1.043 0.63672-1.0586 0.64844-2.0586 1.1133-1.0117 0.54688-1.4688 0.19531-1.0156 0.13672-1.3516-0.41406-1.5195-0.46094-1.2031-0.68359-0.92188-0.52344-0.47656-1.9805-1.4883-3-0.97656-1.043-2.5469-3.2891-1.6133-2.082-0.52344-1.1562-1.2422-2.2422-0.6875-0.77344-1.2383-0.63281-0.30469-1.3867-0.19531-1.332-0.69531-3.4609-0.99609-0.8125-1.2227-0.44141-2.6367 0.13672-1.5664 0.28125-1.918 0.69922-2.0977 0.36719-0.83984 1.4297-1.2891 1.1875-0.89844 0.51953-1.3789-0.046875-0.98438-0.29297-1.5469-0.75-2.5312-1.1094-3.4688-1.1094-1.6328 3.4688-0.58984 1.3164-1.5273 0.51172-1.9062 0.64062-1.6992-0.023438-1.9883-0.48438-2.125-0.070312-1.9258-0.36719-1.1992-0.72266-1.5625 2.293-0.47266 1.2461-0.64844 1.707-1.918 2.8555-0.34375-1.1445 0.625-1.5664 0.26562-2.2031-0.59766-1.4648-2.1523-1.3633-1.832-1.1016-1.2891-2.043-1.3242-0.83594-2.6758-0.69531-3.0625-2.3828-1.4766-1.5938-0.91797-1.7227-1.4922-0.53906-1.8633-0.34766-2.1562-0.20312-0.9375 0.37109-1.043 1.2891-1.1992 0.76562-1.3242 0.60938-0.9375 0.72656-1.4102 0.91797-1.7148 0.027344-1.8477-0.44141-0.71875-1.9023-0.72656-1.1016-1.5859-1.1289-1.6016-1.0195-1.1094-0.70703-1.5898-0.69141-1.6367-1.3906-0.90625-1.9297-0.75391-0.76953-0.80469-0.81641-2.8047-0.64844-1.5195-0.48438-1.7812-1.5-1.6562-2.0156-0.52344-1.3789-0.70703-1.8594-0.3125-2.4414-0.55859-1.2227-0.51953-1.5898 0.27734-1.5195 0.41797-2.3008 0.023438-1.5039 0.015625-1.0742-0.8125-1.0859-0.67578-0.76562-0.18359-2.5078-0.09375-1.3164-1.2578-0.47266-1.543-0.03125-2.0703-0.035156-0.16406-3.4648-0.22266-1.3203-0.82422-2.0742-0.41406-1.6523-0.9375-1.3516-0.43359-1.707-0.33984-1.0508-0.60547-1.3242-2.1055-2.707-1.8984-0.22656-2.8359-0.29297-0.80078-0.99219-0.41016-2.3984-0.25-1.4375 0.054688-2.3125-0.50391-1.0312-1.0508-2.0625-1.7266-3.3242-0.55078-1.0625-0.85547-0.98828-1.2422-0.49609-1.543 0.33203-0.82812 1.2109-2.4805 0.63672-1.6289 0.054687-0.96484-0.60547-1.625 0.49609-1.2031 1.9805-1.2461 0.34375-1.207 0.042969-1.7695-0.73438-2.9297 1.6367-1.6484 1.293-1.1094 1.3359-1.7227 1.5078-1.3242 0.84375-2.3633 0.53906-3.0781-0.47656-1.2969-0.44922-3.7109-3.5469-1.4102-2.0352-1.6406-0.5625-1.9922-0.41406-0.99219-0.20703-0.88281-1.0117-0.76562-1.6328-1.2852-1.3828-1.0898-0.53125-1.793 0.21484-1.1172-0.26562-0.4375-1.1875-0.4375-3.1172-0.43359-1.1953-0.4375-1.0664-2.7188-0.51953-3.082-0.027344-1.1523-1.6758-0.83984-3.0508-0.9375-1.5312-1.7891-0.90625-2.0039-0.33984 2.3555-2.5859 2.7266-1.4766 2.1016-1.4961 2.9883-2.6172 1.9531-1 1.2344-0.26172 2.0273-0.18359 1.3203-0.33203 1.1133-0.65625 1.5938-1.6172 1.0742-0.91406 1.332-0.19922 1.0508-0.32031 1-0.58203 0.87891-0.71484 1.6172-1.0391 2-0.38281 1.25-0.69141 0.64062-1.1602 1.1133-0.32422 1.0625-0.78906 0.46875-1.2617 0.79297-1.3203 0.45703-1.668 0.69141-0.96484 1.0625-0.76562 0.97266-0.28125 4.6953-0.64453 1.4336-0.55469 1.6562-1.2227 1.2852-0.90234 1.332-0.77734 1.0391-0.51953 2.2109-1.2969 1.9297-1.3242 1.8867-0.83984 0.95312-0.56641 1.0977-0.90234 0.81641-1.125 2.0391-1.0977 5.3867-0.0625 1.2227-0.23438 0.80469-0.75391 1.0625-0.66797 1.2578-0.48047 1.7461-0.47266 1.0234-0.40625 1.0625-0.96484 1-1.8516 1-1.3828 1.2109-1.4453 1.4688-1.0273 2.2227-1 1.4844-0.85156 1.1875-0.38281 1.7266-0.125 1.3711 0.074218 1.4844 0.42188 1.0977 0.57812 1.2109 0.33594 1.5469-0.074219 0.82422 0.74219 1.5938 0.011718 2.1406-0.66797 2.9648-1.2227 1.8281-1.0742 2.1602-2.0508 0.97656-0.43359 1.2969 0.085937 1.1875-0.16016 1.8164-1.2617 0.62891-1.0117 0.74219-1.2734 1.2461-1.418 1.0742-0.94141 1.6797-2.4336 0.42188-1.332 0.40625-0.95312 0.86719-0.9375 1.2109-0.23438 1.1602-0.38281 1.2852-1.3984 0.8125-0.78906 1.6836-1.4219 2.1484-1.0742 1.0859-0.75391 0.97656-1.1992 1.4336-0.90234 1.4219-0.40625 1.5039-0.92578 1.9922-0.64453 1.3828-0.66406 0.94922-0.57031 0.86719-0.62891 1.8008-1.7539 1.3984-1.1016 2.9023-3.1602 0.90234-0.53125z" fill="#ccc" fill-rule="evenodd"/>
<path d="m353.04 13.781 1.2461-0.023437 1.2969 0.050781 1.6211 0.65234 1.2852 1.2109 1.2578 1.3359 2.3984 2.8906 1.8398 1 1.0625 0.90234 0.875 1.125 1.4844 1.1602 1.0508 0.60547 1.5938 1.6172 1.2852 1.1133 1.3594 0.61719 1.8125 0.011718 1.7188-0.55469 1.3594-0.59375 1.5195-0.125 1.1875 0.27344 1.6914-0.011718 1.6289 0.17188 1.4336 0.023437 0.95312-0.32031 1.7148-0.21094 1.3086-0.058594 1.1016-0.75391 0.66406 1.0391 0.10938 2.1875 0.25 1.043 0.42969 1.582 0.11328 1.2812-1.1016 0.99219-1.2539 0.75391-1.1094 0.51953-0.33594 1.4844 0.60156 1.5117 0.85938 1.6289 0.28906 1.0039-0.3125 1.3672 0.16797 1.3164 0.69531 0.83984 0.91016 0.76953 1.3438 0.8125 1.1992 0.91016 1.0039 0.98438 1.2227 0.86328 1.2461 0.85938 0.88672 0.98438 1.0781 1.3398 0.71875 0.86328 1.7266 0.074219 1.1484 0.64844 0.88672 0.59766 1.7031 1.5078 0.69531 0.98438 0.67188 1.2461 1.3164 1.4375 0.98047 0.88672 1.0312 0.69531 1.2695 0.71484 1.2695 0.55469 1.4414 0.070313 1.1016 0.52734 0.52734 1.0547 0.30859 1.0547-0.14062 1.8945 0.16406 1.2227 0.50391 2.3945 0.36328 1.0781 0.35938 1.0547 0.45312 2.1562 0.35938 1.4141 0.26172 1.2188 0.69531 1.8477 0.52734 2.1992 0.24609 1.4531-0.019531 1.8867 0.1875 1.3867 0.25391 1.8672-0.17578 1.5117-0.76953 1.2656-1.0039 0.38672-1.1055 0.56641 0.3125 1.0625 1 0.51562 1.6172 0.35938 0.33203 1.4219 0.26562 1.1406 0.30078 1.2812 0.28516 1.0977 0.71094 1.6641 1.8906 1.2617 1.2891 0.25781 1.5898 1.2109 0.72656 1.1523 1.4102 1.1406 1.5273 0.33984 1.043 0.37891 1.3945 0.52734 1.6523 0.90234 0.88672 0.58203 0.875 0.63281 1.5156 0.73828 1.0039 0.31641 1.375 0.32812 0.88672 0.70703 0.60547 0.88281 0.71484 1.418 0.50781 1.2383 0.31641 1.7109 0.26953 1.0938 0.46094 1.0195 0.42578 0.91016 0.48438 1.0195 1.3086 1.7812 0.69141 0.8125 0.69141 0.82812 0.89844 1.2734 0.78906 1.4102 0.23047 1.6484-0.011719 1.1797-0.097656 1.1133 0.18359 1.7852 0.35156 1.8086 0.097657 1.1055 0.17969 1.8672 0.12109 1.2852 0.53516 1.5156 0.47266 1.6641 0.39844 1.0312 0.31641 1.1758 0.26953 1.1797 0.26953 0.96875 0.12891 1.082 0.097656 1.1523 0.23438 1.043 0.43359 0.97266 0.47266 1.1641 0.49609 1.0781 1.0195 1.4688 0.82812 1.0938 1.3125 1.8789 0.73828 1.3594 0.60547 0.94531 1.543 1.168 0.95703 0.58203 1.6875 1.4688 0.91016 1.1875 0.59375 0.89844 0.93359 1.25 1.4219 1.9297 0.75 0.71875 1.2031 0.65234 1.0703 0.5 1.4766 0.67578 1.2891 0.51172 1.5508 0.63281 1.3359 0.47266 1.0938 0.59375 1.1758 0.8125 1.1289 1.0312 0.71484 0.71875 0.79297 0.81641 0.625 1.3594-0.027343 1.125-0.51562 1.3555-1.0469 1.2344-1.1406 0.70312-1.0195 0.89062-0.47656 1.0586 0.14062 1.2031 0.44531 1.1523 0.52734 1.5352 0.085938 1.6914-0.089844 1.5-0.87891 0.71094-1.125-0.023437-4.7422-3.0508-1.8164-0.69141h-1.3594l-1.5586 0.91406-1.2578 0.51953-2.2227 0.75391-1.7188 1.2461-2.4102 0.50781-5.2852 0.65234-1.668 0.39844-1.4961 0.45703-1.7305 0.32031-1.4336 0.30859-2.1367-0.44531-1.0742-0.22266-1.2227-0.097656-1.125 0.42969-1.0234 1.1758-1.1875 0.70312-1.0117 0.19922-1.1016 0.42969-0.88672 0.63281-1.793 0.25781-1.4453-0.023437-1.4453-0.50781-1.2461 0.050781-1.2734 0.32031-1.7305 0.65625-3.1758 1.0352-1.1484 0.44531-1.1367 0.69141-0.89062 0.81641-2.3203 1.1484-1.3359 0.48047-0.96094 0.86719-1.1641 1.9141-0.86328 1.0508-0.85156 0.81641-0.89062 0.70312-1.043 0.63672-1.0586 0.64844-2.0586 1.1133-1.0117 0.54688-1.4688 0.19531-1.0156 0.13672-1.3516-0.41406-1.5195-0.46094-1.2031-0.68359-0.92188-0.52344-0.47656-1.9805-1.4883-3-0.97656-1.043-2.5469-3.2891-1.6133-2.082-0.52344-1.1562-1.2422-2.2422-0.6875-0.77344-1.2383-0.63281-0.30469-1.3867-0.19531-1.332-0.69531-3.4609-0.99609-0.8125-1.2227-0.44141-2.6367 0.13672-1.5664 0.28125-1.918 0.69922-2.0977 0.36719-0.83984 1.4297-1.2891 1.1875-0.89844 0.51953-1.3789-0.046875-0.98438-0.29297-1.5469-0.75-2.5312-1.1094-3.4688-1.1094-1.6328 3.4688-0.58984 1.3164-1.5273 0.51172-1.9062 0.64062-1.6992-0.023438-1.9883-0.48438-2.125-0.070312-1.9258-0.36719-1.1992-0.72266-1.5625 2.293-0.47266 1.2461-0.64844 1.707-1.918 2.8555-0.34375-1.1445 0.625-1.5664 0.26562-2.2031-0.59766-1.4648-2.1523-1.3633-1.832-1.1016-1.2891-2.043-1.3242-0.83594-2.6758-0.69531-3.0625-2.3828-1.4766-1.5938-0.91797-1.7227-1.4922-0.53906-1.8633-0.34766-2.1562-0.20312-0.9375 0.37109-1.043 1.2891-1.1992 0.76562-1.3242 0.60938-0.9375 0.72656-1.4102 0.91797-1.7148 0.027344-1.8477-0.44141-0.71875-1.9023-0.72656-1.1016-1.5859-1.1289-1.6016-1.0195-1.1094-0.70703-1.5898-0.69141-1.6367-1.3906-0.90625-1.9297-0.75391-0.76953-0.80469-0.81641-2.8047-0.64844-1.5195-0.48438-1.7812-1.5-1.6562-2.0156-0.52344-1.3789-0.70703-1.8594-0.3125-2.4414-0.55859-1.2227-0.51953-1.5898 0.27734-1.5195 0.41797-2.3008 0.023438-1.5039 0.015625-1.0742-0.8125-1.0859-0.67578-0.76562-0.18359-2.5078-0.09375-1.3164-1.2578-0.47266-1.543-0.03125-2.0703-0.035156-0.16406-3.4648-0.22266-1.3203-0.82422-2.0742-0.41406-1.6523-0.9375-1.3516-0.43359-1.707-0.33984-1.0508-0.60547-1.3242-2.1055-2.707-1.8984-0.22656-2.8359-0.29297-0.80078-0.99219-0.41016-2.3984-0.25-1.4375 0.054688-2.3125-0.50391-1.0312-1.0508-2.0625-1.7266-3.3242-0.55078-1.0625-0.85547-0.98828-1.2422-0.49609-1.543 0.33203-0.82812 1.2109-2.4805 0.63672-1.6289 0.054687-0.96484-0.60547-1.625 0.49609-1.2031 1.9805-1.2461 0.34375-1.207 0.042969-1.7695-0.73438-2.9297 1.6367-1.6484 1.293-1.1094 1.3359-1.7227 1.5078-1.3242 0.84375-2.3633 0.53906-3.0781-0.47656-1.2969-0.44922-3.7109-3.5469-1.4102-2.0352-1.6406-0.5625-1.9922-0.41406-0.99219-0.20703-0.88281-1.0117-0.76562-1.6328-1.2852-1.3828-1.0898-0.53125-1.793 0.21484-1.1172-0.26562-0.4375-1.1875-0.4375-3.1172-0.43359-1.1953-0.4375-1.0664-2.7188-0.51953-3.082-0.027344-1.1523-1.6758-0.83984-3.0508-0.9375-1.5312-1.7891-0.90625-2.0039-0.33984 2.3555-2.5859 2.7266-1.4766 2.1016-1.4961 2.9883-2.6172 1.9531-1 1.2344-0.26172 2.0273-0.18359 1.3203-0.33203 1.1133-0.65625 1.5938-1.6172 1.0742-0.91406 1.332-0.19922 1.0508-0.32031 1-0.58203 0.87891-0.71484 1.6172-1.0391 2-0.38281 1.25-0.69141 0.64062-1.1602 1.1133-0.32422 1.0625-0.78906 0.46875-1.2617 0.79297-1.3203 0.45703-1.668 0.69141-0.96484 1.0625-0.76562 0.97266-0.28125 4.6953-0.64453 1.4336-0.55469 1.6562-1.2227 1.2852-0.90234 1.332-0.77734 1.0391-0.51953 2.2109-1.2969 1.9297-1.3242 1.8867-0.83984 0.95312-0.56641 1.0977-0.90234 0.81641-1.125 2.0391-1.0977 5.3867-0.0625 1.2227-0.23438 0.80469-0.75391 1.0625-0.66797 1.2578-0.48047 1.7461-0.47266 1.0234-0.40625 1.0625-0.96484 1-1.8516 1-1.3828 1.2109-1.4453 1.4688-1.0273 2.2227-1 1.4844-0.85156 1.1875-0.38281 1.7266-0.125 1.3711 0.074218 1.4844 0.42188 1.0977 0.57812 1.2109 0.33594 1.5469-0.074219 0.82422 0.74219 1.5938 0.011718 2.1406-0.66797 2.9648-1.2227 1.8281-1.0742 2.1602-2.0508 0.97656-0.43359 1.2969 0.085937 1.1875-0.16016 1.8164-1.2617 0.62891-1.0117 0.74219-1.2734 1.2461-1.418 1.0742-0.94141 1.6797-2.4336 0.42188-1.332 0.40625-0.95312 0.86719-0.9375 1.2109-0.23438 1.1602-0.38281 1.2852-1.3984 0.8125-0.78906 1.6836-1.4219 2.1484-1.0742 1.0859-0.75391 0.97656-1.1992 1.4336-0.90234 1.4219-0.40625 1.5039-0.92578 1.9922-0.64453 1.3828-0.66406 0.94922-0.57031 0.86719-0.62891 1.8008-1.7539 1.3984-1.1016 2.9023-3.1602 0.90234-0.53125 3.3359 0.34375" fill="none" stroke="#fff" stroke-linecap="round" stroke-linejoin="round" stroke-miterlimit="10" stroke-width="2"/>
<path d="m217.91 104 2.2109 0.42188 0.92188 0.48438 0.45703 1.875 0.24219 2.3125 0.63281 1.9922 1.1172 0.26562 1.793-0.21484 1.0898 0.53125 1.2852 1.3828 0.76562 1.6328 0.88281 1.0117 0.99219 0.20703 1.9922 0.41406 1.0352 0.21484 2.0156 2.3828 2.8984 3.2656 2.1094 0.73047 3.0781 0.47656 2.0117-0.3125 1.6758-1.0703 1.7227-1.5078 1.1094-1.3359 1.6484-1.293 1.9844-1.5508 2.7148 0.64844 1.207-0.042969 1.2461-0.34375 0.76562-1.2617 1.3984-1.1953 1.6289 0.58594 1.6289-0.054687 2.1211-0.46875 1.0156-1.125 1.7148-0.58594 1.2422 0.49609 0.85547 0.98828 0.55078 1.0625 1.7266 3.3242 0.64453 1.2461 0.91016 1.8477-0.035156 1.5625 0.23047 2.1875 0.41016 2.3984 0.80078 0.99219 1.9023 0.35938 2.3164-0.16406 2.043 2.2852 1.1836 2.0703 0.33984 1.0508 0.15625 0.98828 0.83203 1.5156 0.79688 2.207 0.82422 2.0742 0.22266 1.3203v3.0625l2.2344 0.4375 1.543 0.03125 1.2578 0.47266 0.09375 1.3164 0.12109 1.6875 0.73828 1.5859 0.8125 1.0859-0.015625 1.0742-0.023438 1.5039-0.41797 2.3008-0.27734 1.5195 0.34766 1.0625-1.6953 0.45312-1.3555 0.35938-0.98828 0.67578-1.3438 0.91797-1.5977 0.67969-1.0352 0.26953-1.1602 0.71094-1.2539 0.63281-1.3438 0.85547-2.2344 0.58203-1.3984 0.90625-2.4492 1.0703-3.3477-0.11328-1.3242 0.67188-0.85938 1.1016-2.4453-0.16016-1.3867 0.33203-1.0625 1.0508-0.9375 0.87891-1.0391 2.1367-1.1211 1.0117-1.8672 0.23438-1.1602 0.38281-1.9297 1.2852-1.1719 1.2461-0.76562 0.67969-1.9023 1.3359-1.3828 1.0234-1.1523 1.2852-1.6055 1.2969-0.875 0.66797-1.4336 1.2227-1.5703 1.5078-1.332 1.8555-0.79297 0.70312-0.82812 1.1094-0.77734 1.1523-2.1719 2.1367-1.3984 0.875-1.0508 1.1875-0.51562 1.1719-1.0039 0.70703-1.5078 0.58984-1.7266 0.92969-1.793 0.46875-1.5664 1.2578-1.1016 1.3125-0.94922 0.98828-2.2734 1.4688-2.7812 2.3711-0.92578 0.91406-0.76562 1.5586-0.46875 1.3711-0.98828 0.72656-1.5195 0.011719-1.5703-0.58984-1.1484 0.38281-1.3594 1.1836-1.0859 1.6055-1.3008 0.86719-0.50391 1.0977-0.28516 1.3477-0.92578 0.78906-3.918-0.36719-1.0742-0.125-1.1836 0.38281-1.5078 1.4102-1.3086 0.57812-1.3125 1.3242-0.20703 1.0859-0.98828 0.24609-1.9062-1.7305-0.35547-1.1602-2.3867-0.61719-1.3438-1.0742-0.54688-1.2344-0.78906-1.0391-2.2344-0.82812-2.4727-1.7188-1.1836-0.61719-0.98828-0.34766-1.375-0.37891-2.2852-0.90234-1.5-0.86328-1.2148-1.0039-0.54688-1.1367-1.3438-1.9375-0.79297-2.2734-0.66406-0.89062-0.76953-0.67969-2.6562-1.5664-1.457-1.2617-1.1211-0.89062-1.3242-0.62891-1.2344-0.039063-1.5195-0.24609-1.7305-1.5312-1.2734-1.125-1.5781-1.6797-1.125-0.69141-1.25-0.37109-1.4805-0.29688-1.0156 0.21094-1.3438-0.65625-0.75391-1.0352-1.0391-0.87891-0.77734-1-2-4.2852-0.75391-1.0898-0.82812-0.85156-1.3477-1.0117-1.2617-0.59375 0.019531-1.3984 1.5508-2.4805 0.58984-0.94922 2.5898-2.5 1.6562-1.6055 1.4062-1.8867 1.2578-1.6914 1.1836-2.2227 0.82031-2.1641 0.4375-8.0898-0.050781-2.7188-0.09375-2.9609 1.5938-1.7227 1.7305-1.8633 1.5273-1.0078 1.4883-0.38672 1.8398-0.47266 2.293-0.12109 2.6406-0.13672 2.9766-0.15234 1.8516-0.097656 1.5859-0.082032 0.82422-0.96484 1.8125 0.125 1.5742 0.23047 1.375-0.82812 1.6406-0.44531 1.4531-0.58594 2.0742-1.1797 0.82422-0.69922 1.2891-2 0.66797-0.76562 0.91406-0.70703 1.1484-0.51953 1.4336-1.2734 1.4141-1.8555 1.6797-0.69141 1.7461-1.1875 2.1016-1.2109 0.79297-0.625 1.2969-0.65234 0.84375-1.3203 0.16797-1.2773 0.60156-0.83984 1.2734-1.2031 1.3008-1.2266 0.43359-1.0117-0.43359-1.3086 0.89062-2.2031 1.418-3.5117 0.86719-1.6836-0.089844-2.1328 1.0742-2.2188 2.0078-2.7344 2.6836-1.5234 1.1211-0.03125z" fill="#ccc" fill-rule="evenodd"/>
<path d="m217.91 104 2.2109 0.42188 0.92188 0.48438 0.45703 1.875 0.24219 2.3125 0.63281 1.9922 1.1172 0.26562 1.793-0.21484 1.0898 0.53125 1.2852 1.3828 0.76562 1.6328 0.88281 1.0117 0.99219 0.20703 1.9922 0.41406 1.0352 0.21484 2.0156 2.3828 2.8984 3.2656 2.1094 0.73047 3.0781 0.47656 2.0117-0.3125 1.6758-1.0703 1.7227-1.5078 1.1094-1.3359 1.6484-1.293 1.9844-1.5508 2.7148 0.64844 1.207-0.042969 1.2461-0.34375 0.76562-1.2617 1.3984-1.1953 1.6289 0.58594 1.6289-0.054687 2.1211-0.46875 1.0156-1.125 1.7148-0.58594 1.2422 0.49609 0.85547 0.98828 0.55078 1.0625 1.7266 3.3242 0.64453 1.2461 0.91016 1.8477-0.035156 1.5625 0.23047 2.1875 0.41016 2.3984 0.80078 0.99219 1.9023 0.35938 2.3164-0.16406 2.043 2.2852 1.1836 2.0703 0.33984 1.0508 0.15625 0.98828 0.83203 1.5156 0.79688 2.207 0.82422 2.0742 0.22266 1.3203v3.0625l2.2344 0.4375 1.543 0.03125 1.2578 0.47266 0.09375 1.3164 0.12109 1.6875 0.73828 1.5859 0.8125 1.0859-0.015625 1.0742-0.023438 1.5039-0.41797 2.3008-0.27734 1.5195 0.34766 1.0625-1.6953 0.45312-1.3555 0.35938-0.98828 0.67578-1.3438 0.91797-1.5977 0.67969-1.0352 0.26953-1.1602 0.71094-1.2539 0.63281-1.3438 0.85547-2.2344 0.58203-1.3984 0.90625-2.4492 1.0703-3.3477-0.11328-1.3242 0.67188-0.85938 1.1016-2.4453-0.16016-1.3867 0.33203-1.0625 1.0508-0.9375 0.87891-1.0391 2.1367-1.1211 1.0117-1.8672 0.23438-1.1602 0.38281-1.9297 1.2852-1.1719 1.2461-0.76562 0.67969-1.9023 1.3359-1.3828 1.0234-1.1523 1.2852-1.6055 1.2969-0.875 0.66797-1.4336 1.2227-1.5703 1.5078-1.332 1.8555-0.79297 0.70312-0.82812 1.1094-0.77734 1.1523-2.1719 2.1367-1.3984 0.875-1.0508 1.1875-0.51562 1.1719-1.0039 0.70703-1.5078 0.58984-1.7266 0.92969-1.793 0.46875-1.5664 1.2578-1.1016 1.3125-0.94922 0.98828-2.2734 1.4688-2.7812 2.3711-0.92578 0.91406-0.76562 1.5586-0.46875 1.3711-0.98828 0.72656-1.5195 0.011719-1.5703-0.58984-1.1484 0.38281-1.3594 1.1836-1.0859 1.6055-1.3008 0.86719-0.50391 1.0977-0.28516 1.3477-0.92578 0.78906-3.918-0.36719-1.0742-0.125-1.1836 0.38281-1.5078 1.4102-1.3086 0.57812-1.3125 1.3242-0.20703 1.0859-0.98828 0.24609-1.9062-1.7305-0.35547-1.1602-2.3867-0.61719-1.3438-1.0742-0.54688-1.2344-0.78906-1.0391-2.2344-0.82812-2.4727-1.7188-1.1836-0.61719-0.98828-0.34766-1.375-0.37891-2.2852-0.90234-1.5-0.86328-1.2148-1.0039-0.54688-1.1367-1.3438-1.9375-0.79297-2.2734-0.66406-0.89062-0.76953-0.67969-2.6562-1.5664-1.457-1.2617-1.1211-0.89062-1.3242-0.62891-1.2344-0.039063-1.5195-0.24609-1.7305-1.5312-1.2734-1.125-1.5781-1.6797-1.125-0.69141-1.25-0.37109-1.4805-0.29688-1.0156 0.21094-1.3438-0.65625-0.75391-1.0352-1.0391-0.87891-0.77734-1-2-4.2852-0.75391-1.0898-0.82812-0.85156-1.3477-1.0117-1.2617-0.59375 0.019531-1.3984 1.5508-2.4805 0.58984-0.94922 2.5898-2.5 1.6562-1.6055 1.4062-1.8867 1.2578-1.6914 1.1836-2.2227 0.82031-2.1641 0.4375-8.0898-0.050781-2.7188-0.09375-2.9609 1.5938-1.7227 1.7305-1.8633 1.5273-1.0078 1.4883-0.38672 1.8398-0.47266 2.293-0.12109 2.6406-0.13672 2.9766-0.15234 1.8516-0.097656 1.5859-0.082032 0.82422-0.96484 1.8125 0.125 1.5742 0.23047 1.375-0.82812 1.6406-0.44531 1.4531-0.58594 2.0742-1.1797 0.82422-0.69922 1.2891-2 0.66797-0.76562 0.91406-0.70703 1.1484-0.51953 1.4336-1.2734 1.4141-1.8555 1.6797-0.69141 1.7461-1.1875 2.1016-1.2109 0.79297-0.625 1.2969-0.65234 0.84375-1.3203 0.16797-1.2773 0.60156-0.83984 1.2734-1.2031 1.3008-1.2266 0.43359-1.0117-0.43359-1.3086 0.89062-2.2031 1.418-3.5117 0.86719-1.6836-0.089844-2.1328 1.0742-2.2188 2.0078-2.7344 2.6836-1.5234 1.1211-0.03125 3.0859 0.023438" fill="none" stroke="#fff" stroke-linecap="round" stroke-linejoin="round" stroke-miterlimit="10" stroke-width="2"/>
<path d="m387.14 184.66 0.47266 0.11328 1.2188 4.1602 0.19531 1.332 0.30469 1.3867 1.2383 0.63281 0.6875 0.77344 0.85547 1.3828 0.91016 2.0156 1.6133 2.082 2.5469 3.2891 0.97656 1.043 1.2227 2.043 0.20312 2.1211 1.4609 1.3398 1.2031 0.68359 1.5195 0.46094 1.3516 0.41406 1.0156-0.13672 1.4688-0.19531 0.94531-0.50781 2.125-1.1523 1.0586-0.64844 1.043-0.63672 0.84766-0.67188 0.89453-0.84766 0.86328-1.0508 1.1641-1.9141 0.96094-0.86719 1.3359-0.48047 1.8633-0.82812 1.3477-1.1367 1.1367-0.69141 1.1484-0.44531 3.1758-1.0352 1.7305-0.65625 1.2734-0.32031 1.2461-0.050781 1.4453 0.50781 1.4453 0.023437 1.2734-0.14844 1.4062-0.74219 1.1016-0.42969 1.0117-0.19922 1.1875-0.70312 1.0234-1.1758 1.125-0.42969 1.2227 0.097656 1.0742 0.22266 1.5938 0.43359 1.2227-0.085937 2.4844-0.53125 1.4961-0.45703 1.668-0.39844 4.3242-0.44531 2.6914-0.41797 1.7539-1.1992 2.0625-0.89062 2.0625-0.72656 1.5586-0.91406h1.3594l1.8164 0.69141 4.2617 2.8164 0.94922 0.35938 1.0156-0.48047-0.125 1.3047 0.082031 1.3438 0.97266 1.4688 0.71875 0.82422 0.66406 0.80078 1.1562 0.89453 1.1016 0.75 1.1719 0.67578 1.3672 0.94922 0.87109 1.3008 0.25391 1.0898 0.32422 1.6797 0.16406 1.8086-0.48828 1.2656-1.2891 1.0078-1.2617 1.1562-0.60156 1.1484-0.24609 1.3789-0.089844 1.3008 0.007813 1.0195 0.039062 1.1016 0.27734 1.2852 0.92578 1.3477 0.67188 0.80859 0.84766 1.4609 0.39453 1.3086-0.015625 1.7734-0.21875 1.207-0.68359 1.0469-0.94922 0.91406-0.67188 1.043 0.20703 1.1602 0.625 0.90234 1.3008 1.082 1.3203 0.64844 1.6602 0.51953 1.207 0.37109 1.9336 0.625 1.043 0.97656 0.5 1.2148 0.11328 1.8086-0.11328 1.8672-0.011718 1.207-0.17578 1.957-0.30078 1.0586 0.37109 1.1797 1.3789 1.4375 0.74219 0.91797 1.2656 1.5977 0.75 1.5547 0.89453 1.5195 0.87891 1.5508 0.64062 1.3125-0.57812 1.2305-0.94531 2.293-0.33203 1.0977-0.23047 1.2891v1.4297l-0.03125 1.9141-0.14453 1.3789-0.91797 1.875-0.88672 2.125-1.0625 1.1289-1.3633 0.92969-0.64844 0.79297-0.17188 1.4102-0.39062 1.1523-0.73438 1.4844-1.1133 2.2461-1.4062 4.625-1.1094 1.7109-1.2344 0.87891-1.7812 0.35547-1.2461 0.69531-0.69141 0.76562-0.66016 1.0195-0.15234 1.0195-0.28516 1.1406-1.1367 0.89062-1.6562-0.36328-0.95312-0.39844-1.2344 0.011719-1.0273-0.28125-1.2578 0.16016-2.2734 0.8125-0.98828 0.19922-2.2109 0.21094-3.1523 1-1.8633 0.40625-1.1484-0.085937-1.6055-0.53125-1.9023-0.86328-0.82812-0.75391-1.0156-1.1133-1.4922-0.44531-1.9414 0.33594-3.2383 0.91406-1.6055 0.085937-1.1719-0.32031-3.0898-0.23438-1.8281-0.35938-2.0508-1.4102-1.4922-0.89844-2.1523-0.38281-1.3477 0.10938-3.0391 0.074219-1.8711 0.054688-1.1797-0.003907-1.0742-0.0625-1.9648 0.17188-1.5664 0.66797-2.7812-0.13672-1.1719 0.125-1.1641 0.60547-1.457 0.23438-1.2344-0.46875-1.4102 0.12109-1.1719 0.74219-1.3477 0.33203h-1.0117l-1.9141-0.40625-1.8789 0.21094-1.4844 0.49219-2.2461 1.8555-1.3828 1.3086-3.0664 3.5586-1.0859 0.91406-1.793 0.96094-1.0078 0.6875-1.4727 1.3281-0.87891 0.61719-1.0352 0.19922-1.0156-0.35547-2.8789-2.7734-3.2148-4.3789-2.2969-3.6641-1.7383-4.1992-3.0781-4.7188-2.4062-5.3633-1.1758-2.7227-0.54688-0.94531-1.1602-2-1.4375-3.7578-0.62109-1.3945-0.43359-1.4688-0.84766-1.6484-0.79297-1.5469-1.1211-1.1797-1.2266-1.0508-0.96484-1.6562-2.1289-4.2031-1.3125-2.3555-0.97656-2.8008-0.32031-1.6484-0.28906-3.0508-0.71875-0.92188-1.9922-0.73828-1.4258-1.0273-0.51172-1.5742 0.15234-1.707 0.16406-1.8828-0.14453-1.1602-0.55469-1.1758-1.5117-2.0859-0.57031-1.7852 0.074218-2.5625-0.20312-1.1797-0.71875-0.94141-1.4766-1.25-1.5469-1.1797-0.91797-1.0312-0.45312-1.9922-0.050781-1.0469-0.74219-1.4844-0.72656-1.1094-1.8984-2.4844-1.1016-0.98047 0.14453-1.6289 0.76562-1.1094-0.93359-2.8438-0.19531-2.1289 0.46094-1.2461 1.7148-1.7305-0.0625-1.4648 1.2461-2.2109 1.3203-2.3516 0.47266-1.2461 0.70703-1.8594 2.0547 0.28906 1.9258 0.36719 2.125 0.070312 1.9883 0.48438 1.6992 0.023438 1.9062-0.64062 1.5273-0.51172 0.58984-1.3164 0.90234-2.9492 4.1992 0.58984 2.5312 1.1094 1.3516 0.69531 1.1797 0.34766 1.3789 0.046875 0.89844-0.51953 1.0547-0.60547 0.69141-1.6992 2.4805-0.67969 1.5-0.62109 1.9844-0.35938 2.6367-0.13672z" fill="#ccc" fill-rule="evenodd"/>
<path d="m387.14 184.66 0.47266 0.11328 1.2188 4.1602 0.19531 1.332 0.30469 1.3867 1.2383 0.63281 0.6875 0.77344 0.85547 1.3828 0.91016 2.0156 1.6133 2.082 2.5469 3.2891 0.97656 1.043 1.2227 2.043 0.20312 2.1211 1.4609 1.3398 1.2031 0.68359 1.5195 0.46094 1.3516 0.41406 1.0156-0.13672 1.4688-0.19531 0.94531-0.50781 2.125-1.1523 1.0586-0.64844 1.043-0.63672 0.84766-0.67188 0.89453-0.84766 0.86328-1.0508 1.1641-1.9141 0.96094-0.86719 1.3359-0.48047 1.8633-0.82812 1.3477-1.1367 1.1367-0.69141 1.1484-0.44531 3.1758-1.0352 1.7305-0.65625 1.2734-0.32031 1.2461-0.050781 1.4453 0.50781 1.4453 0.023437 1.2734-0.14844 1.4062-0.74219 1.1016-0.42969 1.0117-0.19922 1.1875-0.70312 1.0234-1.1758 1.125-0.42969 1.2227 0.097656 1.0742 0.22266 1.5938 0.43359 1.2227-0.085937 2.4844-0.53125 1.4961-0.45703 1.668-0.39844 4.3242-0.44531 2.6914-0.41797 1.7539-1.1992 2.0625-0.89062 2.0625-0.72656 1.5586-0.91406h1.3594l1.8164 0.69141 4.2617 2.8164 0.94922 0.35938 1.0156-0.48047-0.125 1.3047 0.082031 1.3438 0.97266 1.4688 0.71875 0.82422 0.66406 0.80078 1.1562 0.89453 1.1016 0.75 1.1719 0.67578 1.3672 0.94922 0.87109 1.3008 0.25391 1.0898 0.32422 1.6797 0.16406 1.8086-0.48828 1.2656-1.2891 1.0078-1.2617 1.1562-0.60156 1.1484-0.24609 1.3789-0.089844 1.3008 0.007813 1.0195 0.039062 1.1016 0.27734 1.2852 0.92578 1.3477 0.67188 0.80859 0.84766 1.4609 0.39453 1.3086-0.015625 1.7734-0.21875 1.207-0.68359 1.0469-0.94922 0.91406-0.67188 1.043 0.20703 1.1602 0.625 0.90234 1.3008 1.082 1.3203 0.64844 1.6602 0.51953 1.207 0.37109 1.9336 0.625 1.043 0.97656 0.5 1.2148 0.11328 1.8086-0.11328 1.8672-0.011718 1.207-0.17578 1.957-0.30078 1.0586 0.37109 1.1797 1.3789 1.4375 0.74219 0.91797 1.2656 1.5977 0.75 1.5547 0.89453 1.5195 0.87891 1.5508 0.64062 1.3125-0.57812 1.2305-0.94531 2.293-0.33203 1.0977-0.23047 1.2891v1.4297l-0.03125 1.9141-0.14453 1.3789-0.91797 1.875-0.88672 2.125-1.0625 1.1289-1.3633 0.92969-0.64844 0.79297-0.17188 1.4102-0.39062 1.1523-0.73438 1.4844-1.1133 2.2461-1.4062 4.625-1.1094 1.7109-1.2344 0.87891-1.7812 0.35547-1.2461 0.69531-0.69141 0.76562-0.66016 1.0195-0.15234 1.0195-0.28516 1.1406-1.1367 0.89062-1.6562-0.36328-0.95312-0.39844-1.2344 0.011719-1.0273-0.28125-1.2578 0.16016-2.2734 0.8125-0.98828 0.19922-2.2109 0.21094-3.1523 1-1.8633 0.40625-1.1484-0.085937-1.6055-0.53125-1.9023-0.86328-0.82812-0.75391-1.0156-1.1133-1.4922-0.44531-1.9414 0.33594-3.2383 0.91406-1.6055 0.085937-1.1719-0.32031-3.0898-0.23438-1.8281-0.35938-2.0508-1.4102-1.4922-0.89844-2.1523-0.38281-1.3477 0.10938-3.0391 0.074219-1.8711 0.054688-1.1797-0.003907-1.0742-0.0625-1.9648 0.17188-1.5664 0.66797-2.7812-0.13672-1.1719 0.125-1.1641 0.60547-1.457 0.23438-1.2344-0.46875-1.4102 0.12109-1.1719 0.74219-1.3477 0.33203h-1.0117l-1.9141-0.40625-1.8789 0.21094-1.4844 0.49219-2.2461 1.8555-1.3828 1.3086-3.0664 3.5586-1.0859 0.91406-1.793 0.96094-1.0078 0.6875-1.4727 1.3281-0.87891 0.61719-1.0352 0.19922-1.0156-0.35547-2.8789-2.7734-3.2148-4.3789-2.2969-3.6641-1.7383-4.1992-3.0781-4.7188-2.4062-5.3633-1.1758-2.7227-0.54688-0.94531-1.1602-2-1.4375-3.7578-0.62109-1.3945-0.43359-1.4688-0.84766-1.6484-0.79297-1.5469-1.1211-1.1797-1.2266-1.0508-0.96484-1.6562-2.1289-4.2031-1.3125-2.3555-0.97656-2.8008-0.32031-1.6484-0.28906-3.0508-0.71875-0.92188-1.9922-0.73828-1.4258-1.0273-0.51172-1.5742 0.15234-1.707 0.16406-1.8828-0.14453-1.1602-0.55469-1.1758-1.5117-2.0859-0.57031-1.7852 0.074218-2.5625-0.20312-1.1797-0.71875-0.94141-1.4766-1.25-1.5469-1.1797-0.91797-1.0312-0.45312-1.9922-0.050781-1.0469-0.74219-1.4844-0.72656-1.1094-1.8984-2.4844-1.1016-0.98047 0.14453-1.6289 0.76562-1.1094-0.93359-2.8438-0.19531-2.1289 0.46094-1.2461 1.7148-1.7305-0.0625-1.4648 1.2461-2.2109 1.3203-2.3516 0.47266-1.2461 0.70703-1.8594 2.0547 0.28906 1.9258 0.36719 2.125 0.070312 1.9883 0.48438 1.6992 0.023438 1.9062-0.64062 1.5273-0.51172 0.58984-1.3164 0.90234-2.9492 4.1992 0.58984 2.5312 1.1094 1.3516 0.69531 1.1797 0.34766 1.3789 0.046875 0.89844-0.51953 1.0547-0.60547 0.69141-1.6992 2.4805-0.67969 1.5-0.62109 1.9844-0.35938 2.6367-0.13672 1.2227 0.44141" fill="none" stroke="#fff" stroke-linecap="round" stroke-linejoin="round" stroke-miterlimit="10" stroke-width="2"/>
<path d="m343.67 210.05 0.66016 0.58594 2.3398 2.8789 0.72656 1.1094 0.74219 1.4844 0.050781 1.0469 0.16016 1.2812 1.2109 1.7422 1.5469 1.1797 1.4766 1.25 0.71875 0.94141 0.20312 1.1797-0.074218 2.5625 0.57031 1.7852 1.1133 1.2383 0.95312 2.0234 0.14453 1.1602-0.16406 1.8828-0.15234 1.707 0.43359 1.3359 0.76953 0.95312 2.0078 0.68359 1.4375 1.2891 0.10938 2.1367 0.5 2.5625 0.97656 2.8008 1.3125 2.3555 2.1289 4.2031 0.75 1.4727 1.4414 1.2344 1.1211 1.1797 0.79297 1.5469 0.84766 1.6484 0.43359 1.4688 0.62109 1.3945 0.95703 3.0781 1.6406 2.6797 0.54688 0.94531 1.1758 2.7227 2.4062 5.3633 3.0781 4.7188 1.7383 4.1992 2.2969 3.6641 3.2148 4.3789 2.6992 2.6133-2.2422-0.042969-1.2344 0.011719-1.0234 0.22266-0.97656 0.34766-0.97266 0.42578-2.1406 0.77344-0.96484 0.46875-1.4961 1.4805-1.0469 1.1523-0.96484 0.82422-1.3086 0.73047-1.4336 0.55469-2.1875 0.65625-2.793 0.21094-1.2578 0.71484-0.66797 0.90234-0.73047 1.3086-1.3203 1.0391-0.91406 0.46875-2.9648 0.28516-1.2969 0.21094-1.0156 0.058594-1.9609-0.085938-2.2734-0.26953-1.7695-0.085938-3.3945 2.2109-1.2617 0.24609-1.9141-0.40625-1.7539-0.81641-1.3828-0.24609-1.793 0.10938-1.6172-0.29688-2.0508-0.22266-1.1875 0.039063-1.4453 0.25781-2.6445 0.96484-0.91406 0.60547-0.90234 0.71484-1.2695 0.37109-1.5781-0.011718-3.0977-1.5352-1.5039-1.3633-1.3281-1.2031-1.3281-1.207-0.91406-0.82422-2.6797-4.5547-1.7773-2.1992-2.1328-1.6562-2.1602-1.6797-1.8398-1.3555-1.5-1.5156-1.3047-2.1406-2.3008-2.6641-0.85547-2.6562-1.8125-2.207-2.7148-2.9805-1.9492-2.1367-0.79688-1.7734-0.88281-1.1523-0.17969-1.4609 0.32422-3.6797-0.12891-2.3359-0.078125-1.4609 0.66797-0.86719 1.1094-1.4297 1.5156-1.9688 0.75391-0.97266-2.4805-4.8281-0.45312-2.3555-0.13672-1.9414-0.78125-1.332-0.96484-1.6367-0.089844-1.5781 0.53516-1.2031 2.1562-2.2266 2.0117-2.0781 0.86719-1.7539 0.34766-0.9375 0.097656-2.5391-0.17969-2.0781-0.75-3.3711-0.89453-2.4961 0.61328-1.1797 1.8789-0.44141 1.6875-0.97266 1.1641-0.67188 1.5547-0.67969 0.97266-0.56641 3.6367-0.54688 3.2031-0.11719 3.3594-0.078125 2.5781-0.058594 1.6367-0.82812 1.4688-1.2227 1.6758-1.3906 1.8125-1.0469 2.7266-0.96094 1.7656-0.625 0.87109-1.0781 0.56641-1.6055 0.19531-1.8516 0.15234-1.4258 1.9492-1.4492 0.76562-0.69922 0.85156-1.3164 1.6172-0.99609 2.0547-0.125 2.0938-0.67969z" fill="#ccc" fill-rule="evenodd"/>
<path d="m343.67 210.05 0.66016 0.58594 2.3398 2.8789 0.72656 1.1094 0.74219 1.4844 0.050781 1.0469 0.16016 1.2812 1.2109 1.7422 1.5469 1.1797 1.4766 1.25 0.71875 0.94141 0.20312 1.1797-0.074218 2.5625 0.57031 1.7852 1.1133 1.2383 0.95312 2.0234 0.14453 1.1602-0.16406 1.8828-0.15234 1.707 0.43359 1.3359 0.76953 0.95312 2.0078 0.68359 1.4375 1.2891 0.10938 2.1367 0.5 2.5625 0.97656 2.8008 1.3125 2.3555 2.1289 4.2031 0.75 1.4727 1.4414 1.2344 1.1211 1.1797 0.79297 1.5469 0.84766 1.6484 0.43359 1.4688 0.62109 1.3945 0.95703 3.0781 1.6406 2.6797 0.54688 0.94531 1.1758 2.7227 2.4062 5.3633 3.0781 4.7188 1.7383 4.1992 2.2969 3.6641 3.2148 4.3789 2.6992 2.6133-2.2422-0.042969-1.2344 0.011719-1.0234 0.22266-0.97656 0.34766-0.97266 0.42578-2.1406 0.77344-0.96484 0.46875-1.4961 1.4805-1.0469 1.1523-0.96484 0.82422-1.3086 0.73047-1.4336 0.55469-2.1875 0.65625-2.793 0.21094-1.2578 0.71484-0.66797 0.90234-0.73047 1.3086-1.3203 1.0391-0.91406 0.46875-2.9648 0.28516-1.2969 0.21094-1.0156 0.058594-1.9609-0.085938-2.2734-0.26953-1.7695-0.085938-3.3945 2.2109-1.2617 0.24609-1.9141-0.40625-1.7539-0.81641-1.3828-0.24609-1.793 0.10938-1.6172-0.29688-2.0508-0.22266-1.1875 0.039063-1.4453 0.25781-2.6445 0.96484-0.91406 0.60547-0.90234 0.71484-1.2695 0.37109-1.5781-0.011718-3.0977-1.5352-1.5039-1.3633-1.3281-1.2031-1.3281-1.207-0.91406-0.82422-2.6797-4.5547-1.7773-2.1992-2.1328-1.6562-2.1602-1.6797-1.8398-1.3555-1.5-1.5156-1.3047-2.1406-2.3008-2.6641-0.85547-2.6562-1.8125-2.207-2.7148-2.9805-1.9492-2.1367-0.79688-1.7734-0.88281-1.1523-0.17969-1.4609 0.32422-3.6797-0.12891-2.3359-0.078125-1.4609 0.66797-0.86719 1.1094-1.4297 1.5156-1.9688 0.75391-0.97266-2.4805-4.8281-0.45312-2.3555-0.13672-1.9414-0.78125-1.332-0.96484-1.6367-0.089844-1.5781 0.53516-1.2031 2.1562-2.2266 2.0117-2.0781 0.86719-1.7539 0.34766-0.9375 0.097656-2.5391-0.17969-2.0781-0.75-3.3711-0.89453-2.4961 0.61328-1.1797 1.8789-0.44141 1.6875-0.97266 1.1641-0.67188 1.5547-0.67969 0.97266-0.56641 3.6367-0.54688 3.2031-0.11719 3.3594-0.078125 2.5781-0.058594 1.6367-0.82812 1.4688-1.2227 1.6758-1.3906 1.8125-1.0469 2.7266-0.96094 1.7656-0.625 0.87109-1.0781 0.56641-1.6055 0.19531-1.8516 0.15234-1.4258 1.9492-1.4492 0.76562-0.69922 0.85156-1.3164 1.6172-0.99609 2.0547-0.125 2.0938-0.67969 1.1602 0.39844" fill="none" stroke="#fff" stroke-linecap="round" stroke-linejoin="round" stroke-miterlimit="10" stroke-width="2"/>
<path d="m257.12 298.3 2.875 3.043 2.5938 1.9453 1.3242 0.84766 1.5039 1.1367 1.0898 1.5586 1.543 0.96484 1.3242 0.30078 1.6875 0.80469 1.3281 0.44531 1.2734 0.17578 1.1875 0.16406 1.3906 0.19531 1.582 0.21875 1.0156 0.14062 1.4609 0.20312 1.2812 0.17578 1.1016 0.15234 2.8594 1.5039 0.95312 1.1367 1.6211 1.0977 5.7266 0.33203 2.5859-0.48047-0.62109 1.0352-1.1602 1.4727-0.56641 0.85156-0.88281 2.2422-0.5625 1.1289-0.76562 1.0273-0.97656 0.50391-1.5078-0.34375-1.5078-1.0859-1.3203-0.67969-1.1367 0.046875-1.2109 0.60547-1.2227 1.1367-0.58203 1.0273-0.70312 1.9492-0.44531 0.96484-1.0391 1-1.4062 0.71875-1.2969-0.039062-1.2383-0.55469-1.0469-1-1.5195-0.51953-1.0156-0.085938-2.3086-0.027343-1.1367 0.17578-0.80469 0.72656-0.80078 1.7812-1.1016 1.125-0.70312 0.73828-0.91406 0.50781-1.7031 0.32031-1.1016 0.34766-1.125 0.67969-0.78906 1.0117-0.41016 1.4336-0.035156 1.1836-0.17188 1.4609-0.34766 1.0625-1.8164 1.7891-0.98828 0.70312-1.8906 1.3242-1.3945 1.2109-0.60547 0.82812-0.24609 1.2695 0.37109 1.0391-0.32422 2.3984 0.10547 1.8008-0.19141 1.1133-0.80078 0.65625-1.793-0.1875-1.4805 0.42188-1.2109 0.92578-1.0391 0.45703-1.1719 0.10938-1.1641 0.22266-0.90234 0.44531-0.86328 0.64453-1.0234 1.3945-0.57031 1.6914-1.4336 1.3984-1.6406 0.72656-1.0898 0.29688-1.6406 1.3359-1.1992 1.4922-1.4453 1.0039-2.3594 1.7266-1.1484 1.3477-0.59375 0.85156-1.0117 0.91406-1.0273 0.45703-1.2109 0.38281-2.668 0.96484-0.98828 0.75391-0.81641 1.3203-1.1484 0.87891-1.0859 0.25781-2.9531 0.57031-1.3594-0.1875-0.9375-0.76562-1.0391-0.23438-2.0508 0.13672-2.1602 0.50781-1.0781 0.10938-1.1094-0.035156-3.5586-0.53125-1.5195-0.48438-2.2734-1.0234-1.0234-0.33594-1.0273-0.074219-3.2617 0.26172-1.125-0.57031-1.1094-1.3828-1.0625-0.69141-1.4844-0.011719-1.1602 0.59375-1.543 1.1836-1.668 0.28516-1.0781 0.25781-1.1211 0.41016-1.2852 0.61719-0.94141 0.35938-2.2578 0.48047-1.4336-0.085937-1.25-0.45703-1.6523-0.40625-1.4219-0.55859-0.92578-0.41797-2.0156-1.4727-1.457-0.73828-1.5586-0.41016-1.8516-0.16016-2.0742-0.14844h-1.0898l-1.0352 0.26172-1.6445 0.51562-1.6562 0.66797-1.0117 0.074219-2.3828-0.91406-1.0508-0.21094-2 0.43359-1.1641-0.30859-1.7031-1.4219-1.1016-0.046875-1.1094 0.94922-0.69141 0.85156-0.96484 0.58203-1.9258 0.30859-1.1133 0.38281-1.1758 0.95312-1.7891 0.29688-1.3711 0.26953-0.89062 0.57031-1.4688 0.40625-1.2734-0.30859-1.0625-0.33594-2.7305 0.11328-1.6172 0.23438-1.457 0.83984-1.25 0.43359-1.9023 0.22266-1.5938 0.64844-1.5078 0.4375-1.6055-0.097656-2.1875 1.5312-2.2344 0.92578-1.2344 0.77734-1.2734 0.65625-1.0117 0.19922-1.2383 0.86328-2.4922 1.9531-1.6953 1.2969-0.97656 0.69141-1.1211 0.43359-1.918 0.085938-1.3438 0.55469-1.8281 1.7188-0.98828 1.7148-1.4727 0.57031-1.1992-0.11328-2.1211 0.35938-1.6445 0.29688-1.1875-0.011719-2.5078-0.63281-1.6172 0.027344-1.5938 0.32031-1.3828-0.125-1.9023-0.61719-0.98828-0.53125-2.7188-1.1367-3.7812 0.0625-1.1094-0.42188-1.7305-1.1484-1.4219-0.13281-1.3711 0.45703-1.9883 0.26953-2.9297 0.27344-2.3203-0.25-1.7188-0.070313-1.2578-0.62109-1.1875-1.0625-1.2969-0.65234-1.4102-0.23438-1.2109-0.30859-1.1484-0.14844-0.9375-0.45703-2.0156-1.1992-1.3438-0.42188-1.5938-0.074219-2.25-0.91406-3.6328-1.2344-1.4062-0.50781-4.0898-1.6914-2.1133-1.4453-1.5938-1.2969-2.6445-1.2344-1.0625-0.50781-1.9883-1.8906-1.8047-1.1836-1.9141-0.86719-1.457-1.0117-1.4961-0.57031-1.2695-0.89844-0.94141-1.0391-1.5547-2.5312-0.64453-2.0781 0.27344-2.0625-0.45703-1.5312-0.97656-1.1133-0.011719-1.1719-0.97656-1.0859v-1.9766l-0.24609-1.8164 0.19531-2.6953-0.20703-2.4688 0.18359-2.2109-0.035156-1.375-0.21094-1.6406-0.67969-1.5703-0.17188-1.1484 0.19531-1.4688-0.046875-1.0625-0.66797-1.707-0.61719-1.1211-0.85547-1.2852-0.54297-1.1133-0.61719-0.9375-1.332-3.0898-0.89062-1.5078 0.84766-1.0781h2l2.4102 0.41016 2.7617-0.17578 1.9141-0.61719 1.2617-0.73438 1.3828-0.55859 1.0859-0.67578 1.0078-0.62891 1.9609-1.7852 1.2109-1.1992 0.75781-1.3867 0.26562-3.1562 0.089844-1.0742 0.56641-1.8867 0.55078-3.1992 0.45703-3.918 0.36719-2.1406 2.293 1.5703 2.0625 3.1836 2.4688 1.5312 1.4414 0.9375 1.3789 0.57031 1.6953 0.074219 1.8633-0.47656 1.0391-0.03125 2.375-1.0352 1.8203-1.082 2.1211-0.91016 3.4844-0.76562 1.3789-0.30469h2.6836l4.8359 0.80859 1.8789-0.33594 1.375-1.293 1.9336-0.68359 1.457-0.22266 2.2422-0.33984 1.4062-0.21484 1.5547-0.23438 3.2578 0.76953 1.1758 0.50391 1.3086 1.3086 1.8125 0.20312 3.6914-0.73828 2.25-1.2773 1.1406-0.9375 1.375-0.13672 2.6875 0.64062 1.7383 0.29297 1.7188-0.125 1.8125-0.13672 0.97266 2.082 0.20312 1.5117 0.37109 1.2227 0.99609 0.90625 1.2188 0.82422 1.5742 0.73828 0.94141 0.73828 0.57031 1.5117 0.26953 1.4023 4.1406-5.6914 0.42578-1.1484 1.5625-0.67188 2.0547 0.72266 2.1953 0.77344 2.6875 0.94531 0.89844 0.57031 2.7266 2.0703 1.8164 1.793 1.3477 1.3906 1.7734 0.78906 1.8242 0.38281 1.0586 0.22266 1.4375 0.30469 0.14453-1.4492 0.76172-1.5352 0.84766-0.53125 1.6523-0.35938 0.97656-0.89844 0.78906-0.72266 2.9609-0.046875 1.1016 0.29688 2.3086 1.5898 0.96484 0.78125 1.2227 0.99219 1.2383 0.63281 1.7773 0.54688 1.5078 0.09375 0.76172-0.69141 1.332-1.3555 1.0508-0.46875 1.1406-0.50781 1.4375-0.33594 1.5664 0.3125 1.1172-0.42188 0.59375-1.0703 0.67188-0.74219 1.7227-1.4414 2.7656-1.0898 1.2812-0.55859 0.67969-0.91797 1.2031-0.48438 1.3281-0.71875 2.2227 0.24609 1.7031-0.48047 1.2461-0.035156 1.1914-0.34375h1.1406l1.3555 0.33203 1.5938 0.64453 1.4297 0.76172 1.0703 0.57031 1.0352 0.83594 1.4648-0.33594 2.0039-0.32422 1.332-0.24219 2.3984 0.42188 1.5469-0.59375 1.2578 0.40625 1.4297 1.6641 1.1641 0.73828 0.97656 0.5 0.30859 1.4492-0.26172 1.1445 0.66016 1.8242 0.91016 0.42578 0.99219 0.46094 0.98438 0.95312 0.69141 0.82031 0.76172 1.1602 1.4648 0.27344 1.3516-0.45312 2.1797-0.73047 1.8711 0.11719 1.2344 0.21094 1.6875 0.53906 1.4609 0.29688 1.1172-0.51562 1.5977-0.30469 1.7656 0.12109 1.9141-1.2148 0.94922-1.1836 2.1562-2.6953 0.86719-0.61328 2.0352-0.76172 0.93359 0.60547 1.4336-0.47656 1.168-0.78125 1.9453-1.293 0.86328-1.6289 0.67188-1.2617 1.4453-2.0195 1.0742-0.44531 1.1016-0.058594 1.125 0.28516 1.0977 0.5 1.7109 0.77734 1.8633-0.125 1.0625-0.074219 1.2305-0.45703 1.3828-0.75781 0.91797-0.50781 0.92969-0.50781 1.0469-0.57812 1.3438-0.73828 1.4492-0.79688 1.4141-0.64844 2.2812-0.48828 2.7812 0.22266 2.1133 0.40625 1.4961-0.28906 1.668-0.53125z" fill="#ccc" fill-rule="evenodd"/>
<path d="m257.12 298.3 2.875 3.043 2.5938 1.9453 1.3242 0.84766 1.5039 1.1367 1.0898 1.5586 1.543 0.96484 1.3242 0.30078 1.6875 0.80469 1.3281 0.44531 1.2734 0.17578 1.1875 0.16406 1.3906 0.19531 1.582 0.21875 1.0156 0.14062 1.4609 0.20312 1.2812 0.17578 1.1016 0.15234 2.8594 1.5039 0.95312 1.1367 1.6211 1.0977 5.7266 0.33203 2.5859-0.48047-0.62109 1.0352-1.1602 1.4727-0.56641 0.85156-0.88281 2.2422-0.5625 1.1289-0.76562 1.0273-0.97656 0.50391-1.5078-0.34375-1.5078-1.0859-1.3203-0.67969-1.1367 0.046875-1.2109 0.60547-1.2227 1.1367-0.58203 1.0273-0.70312 1.9492-0.44531 0.96484-1.0391 1-1.4062 0.71875-1.2969-0.039062-1.2383-0.55469-1.0469-1-1.5195-0.51953-1.0156-0.085938-2.3086-0.027343-1.1367 0.17578-0.80469 0.72656-0.80078 1.7812-1.1016 1.125-0.70312 0.73828-0.91406 0.50781-1.7031 0.32031-1.1016 0.34766-1.125 0.67969-0.78906 1.0117-0.41016 1.4336-0.035156 1.1836-0.17188 1.4609-0.34766 1.0625-1.8164 1.7891-0.98828 0.70312-1.8906 1.3242-1.3945 1.2109-0.60547 0.82812-0.24609 1.2695 0.37109 1.0391-0.32422 2.3984 0.10547 1.8008-0.19141 1.1133-0.80078 0.65625-1.793-0.1875-1.4805 0.42188-1.2109 0.92578-1.0391 0.45703-1.1719 0.10938-1.1641 0.22266-0.90234 0.44531-0.86328 0.64453-1.0234 1.3945-0.57031 1.6914-1.4336 1.3984-1.6406 0.72656-1.0898 0.29688-1.6406 1.3359-1.1992 1.4922-1.4453 1.0039-2.3594 1.7266-1.1484 1.3477-0.59375 0.85156-1.0117 0.91406-1.0273 0.45703-1.2109 0.38281-2.668 0.96484-0.98828 0.75391-0.81641 1.3203-1.1484 0.87891-1.0859 0.25781-2.9531 0.57031-1.3594-0.1875-0.9375-0.76562-1.0391-0.23438-2.0508 0.13672-2.1602 0.50781-1.0781 0.10938-1.1094-0.035156-3.5586-0.53125-1.5195-0.48438-2.2734-1.0234-1.0234-0.33594-1.0273-0.074219-3.2617 0.26172-1.125-0.57031-1.1094-1.3828-1.0625-0.69141-1.4844-0.011719-1.1602 0.59375-1.543 1.1836-1.668 0.28516-1.0781 0.25781-1.1211 0.41016-1.2852 0.61719-0.94141 0.35938-2.2578 0.48047-1.4336-0.085937-1.25-0.45703-1.6523-0.40625-1.4219-0.55859-0.92578-0.41797-2.0156-1.4727-1.457-0.73828-1.5586-0.41016-1.8516-0.16016-2.0742-0.14844h-1.0898l-1.0352 0.26172-1.6445 0.51562-1.6562 0.66797-1.0117 0.074219-2.3828-0.91406-1.0508-0.21094-2 0.43359-1.1641-0.30859-1.7031-1.4219-1.1016-0.046875-1.1094 0.94922-0.69141 0.85156-0.96484 0.58203-1.9258 0.30859-1.1133 0.38281-1.1758 0.95312-1.7891 0.29688-1.3711 0.26953-0.89062 0.57031-1.4688 0.40625-1.2734-0.30859-1.0625-0.33594-2.7305 0.11328-1.6172 0.23438-1.457 0.83984-1.25 0.43359-1.9023 0.22266-1.5938 0.64844-1.5078 0.4375-1.6055-0.097656-2.1875 1.5312-2.2344 0.92578-1.2344 0.77734-1.2734 0.65625-1.0117 0.19922-1.2383 0.86328-2.4922 1.9531-1.6953 1.2969-0.97656 0.69141-1.1211 0.43359-1.918 0.085938-1.3438 0.55469-1.8281 1.7188-0.98828 1.7148-1.4727 0.57031-1.1992-0.11328-2.1211 0.35938-1.6445 0.29688-1.1875-0.011719-2.5078-0.63281-1.6172 0.027344-1.5938 0.32031-1.3828-0.125-1.9023-0.61719-0.98828-0.53125-2.7188-1.1367-3.7812 0.0625-1.1094-0.42188-1.7305-1.1484-1.4219-0.13281-1.3711 0.45703-1.9883 0.26953-2.9297 0.27344-2.3203-0.25-1.7188-0.070313-1.2578-0.62109-1.1875-1.0625-1.2969-0.65234-1.4102-0.23438-1.2109-0.30859-1.1484-0.14844-0.9375-0.45703-2.0156-1.1992-1.3438-0.42188-1.5938-0.074219-2.25-0.91406-3.6328-1.2344-1.4062-0.50781-4.0898-1.6914-2.1133-1.4453-1.5938-1.2969-2.6445-1.2344-1.0625-0.50781-1.9883-1.8906-1.8047-1.1836-1.9141-0.86719-1.457-1.0117-1.4961-0.57031-1.2695-0.89844-0.94141-1.0391-1.5547-2.5312-0.64453-2.0781 0.27344-2.0625-0.45703-1.5312-0.97656-1.1133-0.011719-1.1719-0.97656-1.0859v-1.9766l-0.24609-1.8164 0.19531-2.6953-0.20703-2.4688 0.18359-2.2109-0.035156-1.375-0.21094-1.6406-0.67969-1.5703-0.17188-1.1484 0.19531-1.4688-0.046875-1.0625-0.66797-1.707-0.61719-1.1211-0.85547-1.2852-0.54297-1.1133-0.61719-0.9375-1.332-3.0898-0.89062-1.5078 0.84766-1.0781h2l2.4102 0.41016 2.7617-0.17578 1.9141-0.61719 1.2617-0.73438 1.3828-0.55859 1.0859-0.67578 1.0078-0.62891 1.9609-1.7852 1.2109-1.1992 0.75781-1.3867 0.26562-3.1562 0.089844-1.0742 0.56641-1.8867 0.55078-3.1992 0.45703-3.918 0.36719-2.1406 2.293 1.5703 2.0625 3.1836 2.4688 1.5312 1.4414 0.9375 1.3789 0.57031 1.6953 0.074219 1.8633-0.47656 1.0391-0.03125 2.375-1.0352 1.8203-1.082 2.1211-0.91016 3.4844-0.76562 1.3789-0.30469h2.6836l4.8359 0.80859 1.8789-0.33594 1.375-1.293 1.9336-0.68359 1.457-0.22266 2.2422-0.33984 1.4062-0.21484 1.5547-0.23438 3.2578 0.76953 1.1758 0.50391 1.3086 1.3086 1.8125 0.20312 3.6914-0.73828 2.25-1.2773 1.1406-0.9375 1.375-0.13672 2.6875 0.64062 1.7383 0.29297 1.7188-0.125 1.8125-0.13672 0.97266 2.082 0.20312 1.5117 0.37109 1.2227 0.99609 0.90625 1.2188 0.82422 1.5742 0.73828 0.94141 0.73828 0.57031 1.5117 0.26953 1.4023 4.1406-5.6914 0.42578-1.1484 1.5625-0.67188 2.0547 0.72266 2.1953 0.77344 2.6875 0.94531 0.89844 0.57031 2.7266 2.0703 1.8164 1.793 1.3477 1.3906 1.7734 0.78906 1.8242 0.38281 1.0586 0.22266 1.4375 0.30469 0.14453-1.4492 0.76172-1.5352 0.84766-0.53125 1.6523-0.35938 0.97656-0.89844 0.78906-0.72266 2.9609-0.046875 1.1016 0.29688 2.3086 1.5898 0.96484 0.78125 1.2227 0.99219 1.2383 0.63281 1.7773 0.54688 1.5078 0.09375 0.76172-0.69141 1.332-1.3555 1.0508-0.46875 1.1406-0.50781 1.4375-0.33594 1.5664 0.3125 1.1172-0.42188 0.59375-1.0703 0.67188-0.74219 1.7227-1.4414 2.7656-1.0898 1.2812-0.55859 0.67969-0.91797 1.2031-0.48438 1.3281-0.71875 2.2227 0.24609 1.7031-0.48047 1.2461-0.035156 1.1914-0.34375h1.1406l1.3555 0.33203 1.5938 0.64453 1.4297 0.76172 1.0703 0.57031 1.0352 0.83594 1.4648-0.33594 2.0039-0.32422 1.332-0.24219 2.3984 0.42188 1.5469-0.59375 1.2578 0.40625 1.4297 1.6641 1.1641 0.73828 0.97656 0.5 0.30859 1.4492-0.26172 1.1445 0.66016 1.8242 0.91016 0.42578 0.99219 0.46094 0.98438 0.95312 0.69141 0.82031 0.76172 1.1602 1.4648 0.27344 1.3516-0.45312 2.1797-0.73047 1.8711 0.11719 1.2344 0.21094 1.6875 0.53906 1.4609 0.29688 1.1172-0.51562 1.5977-0.30469 1.7656 0.12109 1.9141-1.2148 0.94922-1.1836 2.1562-2.6953 0.86719-0.61328 2.0352-0.76172 0.93359 0.60547 1.4336-0.47656 1.168-0.78125 1.9453-1.293 0.86328-1.6289 0.67188-1.2617 1.4453-2.0195 1.0742-0.44531 1.1016-0.058594 1.125 0.28516 1.0977 0.5 1.7109 0.77734 1.8633-0.125 1.0625-0.074219 1.2305-0.45703 1.3828-0.75781 0.91797-0.50781 0.92969-0.50781 1.0469-0.57812 1.3438-0.73828 1.4492-0.79688 1.4141-0.64844 2.2812-0.48828 2.7812 0.22266 2.1133 0.40625 1.4961-0.28906 1.668-0.53125 1.3242 0.61719" fill="none" stroke="#fff" stroke-linecap="round" stroke-linejoin="round" stroke-miterlimit="10" stroke-width="2"/>
<path d="m35.648 259.25 3.6953 1.6055 5.5781 1.2344 1.9492 1.1289 1.5039 1.7773 0.82422 2.0547 0.47656 3.5234-0.19922 4.3359 0.71875 3.5547 1.0938 1.1445 1.5039 1.5742 1.4023 1.4727 2.5664 1.5391 1.5391 1.1641 1.7812 0.44531 1.6211-0.21875 2.0742-0.73828 1.3008-0.82422 1.6289-0.58594 1.5039-0.21875 2.6289-0.82812 3.2734-1.9414 2.832-2.1094 1.418-0.74219 1.2109-1.0352 0.67969-0.99219 1.8906-1.1484 1.3086-0.44531 0.92969-0.50781 1.6055-1.5938 0.51953-1.0977 1.3945-1.9023 0.90234-0.91406 1.7539-0.87891 1.332-0.97266 0.96484-0.95312 0.87891-0.69141 1.3594-0.58203 2.3438-0.17188h1.0625l2.1016 0.61719 1.7422 0.14844 2.9648 0.44531 1.4102 0.65625 1.8867 0.29297 1.5078 0.64453 0.89062 0.74219 0.66797 0.82812 0.35938 1.6406 0.53125 1 0.82422 0.58203 2.0508 0.21094 1.5938-0.23438 1.125 0.023437 1.2617 0.51953 1.2461-0.38281 0.70312-0.98828 0.85547-0.82812 1-0.28516 1.2227-0.074218 1.6562 0.1875 1.0625-0.0625 1.3594-0.1875 1.0352 0.37109 0.89062 0.49609 1.6914-0.011719 1.6016-0.40625 2.3281-0.33594 1.4453-0.30859 1.4219-0.1875 1.8164-0.30859 0.9375-0.34375 1.3086-0.32422 1.4453 0.3125 1.1016 0.41797 1.418 1.1133 1.4961 0.69141 0.98828 0.75391 0.89062 1.1484 1.1836 1.1367 1.8281 1 1.1875 0.085938 1.2227-0.125 1.6172-0.23438 2.6328-0.78906 1.6172-0.19922 1.2734-1.0469 1.2617-0.71875 2.1719-0.18359 1.3711 0.046875 1.2852 0.11328 1.457 0.54297 1.668 0.13672 1.8047-0.35938 1.5586 0.023437 1.0469 0.25 1.4961 0.10938 1.2617-0.050781 0.97656 0.39844 1.3945 0.023438 1.0742-0.18359 3.707-0.49609 1.5312-0.097656 1.1992-0.28516 1.2852 0.24609 1.1836 0.83984 1.918 0.73047 1.1836 0.13672 1.1367-1.0391 0.69141-1.5195 1.0156-1.2344 1.1719-1.0742 2.0859-0.48438 2.0156-1.5547 2-0.91406 1.7422-1.6055 1.4844 0.085937 1.0117-0.30859 1.25-0.87891 1.0859-0.34375 2.9141 0.074219 1.8281 0.45703 4.5859 2.332 0.78906 0.61719 1.8516 1.4609 0.76953 0.71484 1.1328 1.2109 0.90234 0.64062 1.4961 0.58203 2.1016 0.30859 0.98828 0.32031 1 0.41016 1.5078 0.18359 1.5195-0.25781 1.2227-0.49609 1.457-0.19531 0.96484-0.39844 0.86328-0.83984 0.64062-0.86328 1.1367-1.0117 3.2148-0.14844 1.7422 0.085937 2.582 0.54297 1.4922 0.69141 3.1133 2.4336 1.2109 0.82812 1.3477 0.89062 0.67969 0.76562 0.81641 1.457 0.69141 0.91406 1.0508 0.85156 1.4922 0.44531 1.7539 1.2344 1.3398 1.3398 0.98438 1.1211 1.6445 1.5547 0.83984 0.71875 0.875 0.94922 1.6328 0.92578 3.4688 1.9922 0.81641 0.77734 1.0508 1.3828 0.59375 1.3711 0.73828 1.2109 0.35938 1.457 0.66797 1.25 2.7188 1.7656 1.0859 0.78906 0.9375 0.97656 1.1016 1.0273 1.0742 1.3789 1.1992 1.5352 0.86328 0.65625 1.582 0.45703 1.3477 0.55469 1.2578 1.0742 0.51953 1 0.30859 1.4453 0.22266 1.0273 0.44531 1.4805 0.125 1.1641 0.50391 1.1953 0.66797 0.83984 1.1719 0.98828 1.0898 0.29688-1.6836 0.43359-5.7266-0.33203-1.6211-1.0977-0.95312-1.1367-2.8594-1.5039-1.1016-0.15234-1.2812-0.17578-1.4609-0.20312-1.0156-0.14062-1.582-0.21875-1.3906-0.19531-1.1211-0.15234-1.3398-0.1875-1.3281-0.44531-1.6875-0.80469-1.3242-0.30078-1.543-0.96484-1.0898-1.5586-1.5039-1.1367-1.3242-0.84766-2.5938-1.9453-2.875-3.043-1.3242-0.61719-1.668 0.53125-1.1836 0.23047-2.168-0.32812-3.0391-0.24219-2.2812 0.48828-1.4141 0.64844-1.4492 0.79688-1.3438 0.73828-1.0469 0.57812-0.92969 0.50781-0.91797 0.50781-1.3828 0.75781-1.2305 0.45703-1.0625 0.074219-1.8633 0.125-1.7109-0.77734-1.0977-0.5-1.125-0.28516-1.1016 0.058594-1.0742 0.44531-1.0703 1.3125-1.0469 1.9688-0.86328 1.6289-1.1328 0.75391-1.9805 1.3203-1.1758 0.58594-1.1914-0.71484-1.2422 0.20312-1.6602 1.1719-2.1562 2.6953-0.94922 1.1836-1.4297 1.2227-1.6719-0.14453-1.7812 0.13672-1.0195 0.47266-1.2812 0.10938-1.4453-0.38281-1.3633-0.5-2.6562-0.16406-1.5703 0.52734-1.9609 0.65625-1.4648-0.27344-0.76172-1.1602-0.69141-0.82031-0.98438-0.95312-0.99219-0.46094-0.91016-0.42578-0.66016-1.8242 0.26172-1.1445-0.070313-1.0703-1.2148-0.87891-1.1641-0.73828-1.4297-1.6641-1.2578-0.40625-1.5469 0.59375-2.3984-0.42188-1.332 0.24219-1.4102 0.13281-1.7148 1-1.3789-1.3086-1.0703-0.57031-1.4297-0.76172-1.5938-0.64453-1.3555-0.33203h-1.1406l-1.1914 0.34375-1.2461 0.035156-1.0078 0.33203-2.1719-0.097656-1.4531 0.42188-1.4492 0.58203-1.0547 1.1172-1.2812 0.55859-1.9219 0.65625-2.5664 1.875-0.67188 0.74219-0.59375 1.0703-1.1172 0.42188-1.5664-0.3125-1.4375 0.33594-1.1406 0.50781-1.0508 0.46875-1.332 1.3555-0.76172 0.69141-1.5078-0.09375-1.7773-0.54688-1.2383-0.63281-1.2227-0.99219-0.96484-0.78125-2.3086-1.5898-1.1016-0.29688-2.1406-0.09375-1.6094 0.86328-0.97656 0.89844-1.0352 0.22266-1.4648 0.66797-0.70703 1.3672-0.03125 1.1562-1.0898 0.26562-1.5742-0.33203-1.8242-0.38281-1.7734-0.78906-1.3477-1.3906-1.8164-1.793-2.0781-1.6602-1.5469-0.98047-2.0625-0.72656-2.8203-0.99219-2.0547-0.72266-1.5625 0.67188-0.42578 1.1484-3.2852 5.293-1.125-1.0039-0.57031-1.5117-0.94141-0.73828-1.5742-0.73828-1.2188-0.82422-0.99609-0.90625-0.37109-1.2227-0.20312-1.5117-0.19922-1.4922-2.5859-0.45312-1.7188 0.125-1.7383-0.29297-2.6875-0.64062-1.375 0.13672-1.1406 0.9375-2.25 1.2773-3.6914 0.73828-1.5977-0.17578-1.5234-1.3359-1.1758-0.50391-2.7812-0.65625-2.0312 0.12109-1.4062 0.21484-2.2422 0.33984-1.457 0.22266-1.4414 0.21875-1.8672 1.7578-1.8789 0.33594-4.8359-0.80859h-2.6836l-1.3789 0.30469-2.5352 0.55469-2.2969 0.92188-2.5938 1.2812-1.4688 0.76562-1.9453 0.30078-1.0078 0.40234h-2.5508l-1.3789-0.57031-1.4414-0.9375-2.4688-1.5312-2.0625-3.1836-1.3789-1.2148-0.31641-3.6172 0.17969-1-0.17969-1.4766-0.21875-1.7734-1.043-1.918-1.2461-1.9844-1-1.9023-1.3984-1.6641-1.0977-1.5703-1.8398-1.6016-1.1602-1.3516-2.8281-1.8047-0.88281-1.2383-0.72656-1.7891-0.45312-1.1172-0.60547-2-3.0039-4.6758-0.90625-1.4102-0.67188-1.0469-1.1836-1.5469-1.6992-1.5-1.8828-1.1172 3.3086-0.17969 1.2031 0.17188 1.8008-0.097656 1.4648-0.20312 1.2305 0.38281 0.95703 0.46094 1.7148 0.46875 1.2578 0.69141 1.3633 0.4375 1.75-1.3242 1.707-1.1445 1.1719 0.10938 1.3359 0.12891 2.0273-0.375 1.6406-0.83594 3.5-1.7852 3.457-0.10156z" fill="#ccc" fill-rule="evenodd"/>
<path d="m35.648 259.25 3.6953 1.6055 5.5781 1.2344 1.9492 1.1289 1.5039 1.7773 0.82422 2.0547 0.47656 3.5234-0.19922 4.3359 0.71875 3.5547 1.0938 1.1445 1.5039 1.5742 1.4023 1.4727 2.5664 1.5391 1.5391 1.1641 1.7812 0.44531 1.6211-0.21875 2.0742-0.73828 1.3008-0.82422 1.6289-0.58594 1.5039-0.21875 2.6289-0.82812 3.2734-1.9414 2.832-2.1094 1.418-0.74219 1.2109-1.0352 0.67969-0.99219 1.8906-1.1484 1.3086-0.44531 0.92969-0.50781 1.6055-1.5938 0.51953-1.0977 1.3945-1.9023 0.90234-0.91406 1.7539-0.87891 1.332-0.97266 0.96484-0.95312 0.87891-0.69141 1.3594-0.58203 2.3438-0.17188h1.0625l2.1016 0.61719 1.7422 0.14844 2.9648 0.44531 1.4102 0.65625 1.8867 0.29297 1.5078 0.64453 0.89062 0.74219 0.66797 0.82812 0.35938 1.6406 0.53125 1 0.82422 0.58203 2.0508 0.21094 1.5938-0.23438 1.125 0.023437 1.2617 0.51953 1.2461-0.38281 0.70312-0.98828 0.85547-0.82812 1-0.28516 1.2227-0.074218 1.6562 0.1875 1.0625-0.0625 1.3594-0.1875 1.0352 0.37109 0.89062 0.49609 1.6914-0.011719 1.6016-0.40625 2.3281-0.33594 1.4453-0.30859 1.4219-0.1875 1.8164-0.30859 0.9375-0.34375 1.3086-0.32422 1.4453 0.3125 1.1016 0.41797 1.418 1.1133 1.4961 0.69141 0.98828 0.75391 0.89062 1.1484 1.1836 1.1367 1.8281 1 1.1875 0.085938 1.2227-0.125 1.6172-0.23438 2.6328-0.78906 1.6172-0.19922 1.2734-1.0469 1.2617-0.71875 2.1719-0.18359 1.3711 0.046875 1.2852 0.11328 1.457 0.54297 1.668 0.13672 1.8047-0.35938 1.5586 0.023437 1.0469 0.25 1.4961 0.10938 1.2617-0.050781 0.97656 0.39844 1.3945 0.023438 1.0742-0.18359 3.707-0.49609 1.5312-0.097656 1.1992-0.28516 1.2852 0.24609 1.1836 0.83984 1.918 0.73047 1.1836 0.13672 1.1367-1.0391 0.69141-1.5195 1.0156-1.2344 1.1719-1.0742 2.0859-0.48438 2.0156-1.5547 2-0.91406 1.7422-1.6055 1.4844 0.085937 1.0117-0.30859 1.25-0.87891 1.0859-0.34375 2.9141 0.074219 1.8281 0.45703 4.5859 2.332 0.78906 0.61719 1.8516 1.4609 0.76953 0.71484 1.1328 1.2109 0.90234 0.64062 1.4961 0.58203 2.1016 0.30859 0.98828 0.32031 1 0.41016 1.5078 0.18359 1.5195-0.25781 1.2227-0.49609 1.457-0.19531 0.96484-0.39844 0.86328-0.83984 0.64062-0.86328 1.1367-1.0117 3.2148-0.14844 1.7422 0.085937 2.582 0.54297 1.4922 0.69141 3.1133 2.4336 1.2109 0.82812 1.3477 0.89062 0.67969 0.76562 0.81641 1.457 0.69141 0.91406 1.0508 0.85156 1.4922 0.44531 1.7539 1.2344 1.3398 1.3398 0.98438 1.1211 1.6445 1.5547 0.83984 0.71875 0.875 0.94922 1.6328 0.92578 3.4688 1.9922 0.81641 0.77734 1.0508 1.3828 0.59375 1.3711 0.73828 1.2109 0.35938 1.457 0.66797 1.25 2.7188 1.7656 1.0859 0.78906 0.9375 0.97656 1.1016 1.0273 1.0742 1.3789 1.1992 1.5352 0.86328 0.65625 1.582 0.45703 1.3477 0.55469 1.2578 1.0742 0.51953 1 0.30859 1.4453 0.22266 1.0273 0.44531 1.4805 0.125 1.1641 0.50391 1.1953 0.66797 0.83984 1.1719 0.98828 1.0898 0.29688-1.6836 0.43359-5.7266-0.33203-1.6211-1.0977-0.95312-1.1367-2.8594-1.5039-1.1016-0.15234-1.2812-0.17578-1.4609-0.20312-1.0156-0.14062-1.582-0.21875-1.3906-0.19531-1.1211-0.15234-1.3398-0.1875-1.3281-0.44531-1.6875-0.80469-1.3242-0.30078-1.543-0.96484-1.0898-1.5586-1.5039-1.1367-1.3242-0.84766-2.5938-1.9453-2.875-3.043-1.3242-0.61719-1.668 0.53125-1.1836 0.23047-2.168-0.32812-3.0391-0.24219-2.2812 0.48828-1.4141 0.64844-1.4492 0.79688-1.3438 0.73828-1.0469 0.57812-0.92969 0.50781-0.91797 0.50781-1.3828 0.75781-1.2305 0.45703-1.0625 0.074219-1.8633 0.125-1.7109-0.77734-1.0977-0.5-1.125-0.28516-1.1016 0.058594-1.0742 0.44531-1.0703 1.3125-1.0469 1.9688-0.86328 1.6289-1.1328 0.75391-1.9805 1.3203-1.1758 0.58594-1.1914-0.71484-1.2422 0.20312-1.6602 1.1719-2.1562 2.6953-0.94922 1.1836-1.4297 1.2227-1.6719-0.14453-1.7812 0.13672-1.0195 0.47266-1.2812 0.10938-1.4453-0.38281-1.3633-0.5-2.6562-0.16406-1.5703 0.52734-1.9609 0.65625-1.4648-0.27344-0.76172-1.1602-0.69141-0.82031-0.98438-0.95312-0.99219-0.46094-0.91016-0.42578-0.66016-1.8242 0.26172-1.1445-0.070313-1.0703-1.2148-0.87891-1.1641-0.73828-1.4297-1.6641-1.2578-0.40625-1.5469 0.59375-2.3984-0.42188-1.332 0.24219-1.4102 0.13281-1.7148 1-1.3789-1.3086-1.0703-0.57031-1.4297-0.76172-1.5938-0.64453-1.3555-0.33203h-1.1406l-1.1914 0.34375-1.2461 0.035156-1.0078 0.33203-2.1719-0.097656-1.4531 0.42188-1.4492 0.58203-1.0547 1.1172-1.2812 0.55859-1.9219 0.65625-2.5664 1.875-0.67188 0.74219-0.59375 1.0703-1.1172 0.42188-1.5664-0.3125-1.4375 0.33594-1.1406 0.50781-1.0508 0.46875-1.332 1.3555-0.76172 0.69141-1.5078-0.09375-1.7773-0.54688-1.2383-0.63281-1.2227-0.99219-0.96484-0.78125-2.3086-1.5898-1.1016-0.29688-2.1406-0.09375-1.6094 0.86328-0.97656 0.89844-1.0352 0.22266-1.4648 0.66797-0.70703 1.3672-0.03125 1.1562-1.0898 0.26562-1.5742-0.33203-1.8242-0.38281-1.7734-0.78906-1.3477-1.3906-1.8164-1.793-2.0781-1.6602-1.5469-0.98047-2.0625-0.72656-2.8203-0.99219-2.0547-0.72266-1.5625 0.67188-0.42578 1.1484-3.2852 5.293-1.125-1.0039-0.57031-1.5117-0.94141-0.73828-1.5742-0.73828-1.2188-0.82422-0.99609-0.90625-0.37109-1.2227-0.20312-1.5117-0.19922-1.4922-2.5859-0.45312-1.7188 0.125-1.7383-0.29297-2.6875-0.64062-1.375 0.13672-1.1406 0.9375-2.25 1.2773-3.6914 0.73828-1.5977-0.17578-1.5234-1.3359-1.1758-0.50391-2.7812-0.65625-2.0312 0.12109-1.4062 0.21484-2.2422 0.33984-1.457 0.22266-1.4414 0.21875-1.8672 1.7578-1.8789 0.33594-4.8359-0.80859h-2.6836l-1.3789 0.30469-2.5352 0.55469-2.2969 0.92188-2.5938 1.2812-1.4688 0.76562-1.9453 0.30078-1.0078 0.40234h-2.5508l-1.3789-0.57031-1.4414-0.9375-2.4688-1.5312-2.0625-3.1836-1.3789-1.2148-0.31641-3.6172 0.17969-1-0.17969-1.4766-0.21875-1.7734-1.043-1.918-1.2461-1.9844-1-1.9023-1.3984-1.6641-1.0977-1.5703-1.8398-1.6016-1.1602-1.3516-2.8281-1.8047-0.88281-1.2383-0.72656-1.7891-0.45312-1.1172-0.60547-2-3.0039-4.6758-0.90625-1.4102-0.67188-1.0469-1.1836-1.5469-1.6992-1.5-1.8828-1.1172 3.3086-0.17969 1.2031 0.17188 1.8008-0.097656 1.4648-0.20312 1.2305 0.38281 0.95703 0.46094 1.7148 0.46875 1.2578 0.69141 1.3633 0.4375 1.75-1.3242 1.707-1.1445 1.1719 0.10938 1.3359 0.12891 2.0273-0.375 1.6406-0.83594 3.5-1.7852 3.457-0.10156 4.7578 1.3359" fill="none" stroke="#fff" stroke-linecap="round" stroke-linejoin="round" stroke-miterlimit="10" stroke-width="2"/>
<path d="m327.43 178.89 1.8633 0.34766 1.4922 0.53906 0.91797 1.7227 1.4766 1.5938 3.0625 2.3828 2.6758 0.69531 1.3242 0.83594 1.2891 2.043 1.3438 0.79688 2.6406 1.668 0.59766 1.4648-0.26562 2.2031-0.625 1.5664 0.34375 1.0938 0.0625 1.5156-1.7148 1.7305-0.46094 1.2461 0.19531 2.1289 0.93359 2.8438-0.76562 1.1094-0.64844 0.78516-2.1484 0.98438-1.6836 0.046875-2.2031 0.82031-1.2383 1.7109-0.76562 0.69922-1.9492 1.4492-0.15234 1.4258-0.19531 1.8516-0.56641 1.6055-0.87109 1.0781-1.7656 0.625-2.7266 0.96094-1.8125 1.0469-1.6758 1.3906-1.4688 1.2227-1.6367 0.82812-2.5781 0.058594-3.3594 0.078125-2.5859 0.058594-4.2539 0.60547-0.97266 0.56641-1.5547 0.67969-1.1641 0.67188-1.6875 0.97266-1.8789 0.44141-0.62109 1.0039 0.90234 2.6719 0.75 3.3711 0.17969 2.0781 0.15625 1.8516-0.60156 1.625-0.86719 1.7539-2.0117 2.0781-1.5117 1.5625-1.0703 1.1055-0.019531 2.3398 0.96484 1.6367 0.78125 1.332 0.12109 1.6797 0.46875 2.6172 2.3477 3.9414-0.62109 1.8594-1.5156 1.9688-0.625 0.80469-1.1523 1.4922 0.078125 1.4609 0.12891 2.3359-0.32422 3.6797 0.17969 1.4609 0.88281 1.1523 0.79688 1.7734 1.9492 2.1367 2.7148 2.9805 1.7031 1.8672 0.96484 2.9961 2.3008 2.6641 1.3047 2.1406 1.5 1.5156 1.8398 1.3555 2.1602 1.6797 2.1328 1.6562 1.7773 2.1992 2.6797 4.5547 0.91406 0.82422 1.3281 1.207 1.3281 1.2031 1.5039 1.3633 2.9531 1.5352-1.8477 0.37109-1.3711 0.60547-2.4961 0.085938-1.4102 0.37109-1.1992 0.074219-1.0234-0.49609-1.6055-0.78906-1.2852-0.44531-1.6172 0.023438-1.3008 0.42188-1.1719-0.125-1.8047-0.65234-1.0117-0.16016-1.1875-0.27344-1.6914-0.67969-1.125-0.23438-1.6562-0.0625-1.2812-0.43359-1.6836-0.19531-1.1719 0.074218-0.97656 0.34375-1.0273 0.44531-1.6172 0.49609-1.0352 0.046875-1.0898-0.29688-1.1719-0.98828-0.66797-0.83984-0.50391-1.1953-0.125-1.1641-0.44531-1.4805-0.22266-1.0273-0.30859-1.4453-0.51953-1-1.2578-1.0742-1.3477-0.55469-1.582-0.45703-0.86328-0.65625-1.1992-1.5352-1.0742-1.3789-1.1016-1.0273-0.9375-0.97656-1.0859-0.78906-2.0664-1.2227-1.0586-1.1133-0.48438-1.7656-0.875-1.582-0.59375-1.3711-1.0508-1.3828-0.81641-0.77734-2.5703-1.6836-2.5312-1.2344-0.875-0.94922-0.83984-0.71875-1.6445-1.5547-0.64453-0.77734-1.6797-1.6836-1.4336-1.0859-1.8125-0.59375-1.0508-0.85156-0.69141-0.91406-0.81641-1.457-0.67969-0.76562-1.3477-0.89062-1.2109-0.82812-3.1133-2.4336-1.2852-0.58203-2.7891-0.65234-1.7422-0.085937h-2.2383l0.47266-2.6289 4.3906-5.3242 0.99219-1.875 0.89062-0.84766 0.70312-2.2266 0.79297-2.4766 0.65625-2.0898 1.3164-2.2031 1.5078-1.7422 2.0547-2.6719 1.6289-2.4453 0.57031-1.2227 1.6953-4.3438 0.32031-2.2266 0.69531-1.5195 1.0742 0.5 1.8789 1.5859 2.2148 3.5898 1.2539 1.0898 1.1406 0.36328 1.0195 0.074219 2.0156-0.20312 0.95703-0.52344 0.90234-1.2109 1.2109-0.82812 1.7422-0.074219 1.1133-0.34375 1.7148-1.3359 0.76562-1.9648 0.44531-2 0.73047-1.3203 1.582-1.3125 1.7031-0.77734 1.4688-1.0977 1.1367-1.3711 1.2383-0.73047 0.91406-0.78906 1.2969-0.34766 1.0117-1 1.0859-2.125 1.4336-1.5703 1.3125-1.1094 0.83984-0.55859 1.0234-0.77734 1.4727-3.7578 0.83984-1.0156 0.99609-1.1992 0.66016-0.79688 0.67578-0.81641 0.47656-1.2109 0.39844-1.0117 0.86328-2.1836 1.1953-2.4375 1.6602-1.7734 2.6758-2.0234 1.4609-1.6875 0.91016-1.0508 1.1289-1.3047 0.73828-0.85156 0.36328-1.0117 0.44922-1.2656 0.57812-0.84766 0.82031-1.2148 0.68359-0.84766-0.20312-1.1133-0.11719-1.3945-0.47266-1.0625 1.457-0.28125 1.7148-0.027344 1.0586-0.26953 1.2891-1.375 1.3242-0.60938 1.1992-0.76562 1.043-1.2891 0.9375-0.37109z" fill="#ccc" fill-rule="evenodd"/>
<path d="m327.43 178.89 1.8633 0.34766 1.4922 0.53906 0.91797 1.7227 1.4766 1.5938 3.0625 2.3828 2.6758 0.69531 1.3242 0.83594 1.2891 2.043 1.3438 0.79688 2.6406 1.668 0.59766 1.4648-0.26562 2.2031-0.625 1.5664 0.34375 1.0938 0.0625 1.5156-1.7148 1.7305-0.46094 1.2461 0.19531 2.1289 0.93359 2.8438-0.76562 1.1094-0.64844 0.78516-2.1484 0.98438-1.6836 0.046875-2.2031 0.82031-1.2383 1.7109-0.76562 0.69922-1.9492 1.4492-0.15234 1.4258-0.19531 1.8516-0.56641 1.6055-0.87109 1.0781-1.7656 0.625-2.7266 0.96094-1.8125 1.0469-1.6758 1.3906-1.4688 1.2227-1.6367 0.82812-2.5781 0.058594-3.3594 0.078125-2.5859 0.058594-4.2539 0.60547-0.97266 0.56641-1.5547 0.67969-1.1641 0.67188-1.6875 0.97266-1.8789 0.44141-0.62109 1.0039 0.90234 2.6719 0.75 3.3711 0.17969 2.0781 0.15625 1.8516-0.60156 1.625-0.86719 1.7539-2.0117 2.0781-1.5117 1.5625-1.0703 1.1055-0.019531 2.3398 0.96484 1.6367 0.78125 1.332 0.12109 1.6797 0.46875 2.6172 2.3477 3.9414-0.62109 1.8594-1.5156 1.9688-0.625 0.80469-1.1523 1.4922 0.078125 1.4609 0.12891 2.3359-0.32422 3.6797 0.17969 1.4609 0.88281 1.1523 0.79688 1.7734 1.9492 2.1367 2.7148 2.9805 1.7031 1.8672 0.96484 2.9961 2.3008 2.6641 1.3047 2.1406 1.5 1.5156 1.8398 1.3555 2.1602 1.6797 2.1328 1.6562 1.7773 2.1992 2.6797 4.5547 0.91406 0.82422 1.3281 1.207 1.3281 1.2031 1.5039 1.3633 2.9531 1.5352-1.8477 0.37109-1.3711 0.60547-2.4961 0.085938-1.4102 0.37109-1.1992 0.074219-1.0234-0.49609-1.6055-0.78906-1.2852-0.44531-1.6172 0.023438-1.3008 0.42188-1.1719-0.125-1.8047-0.65234-1.0117-0.16016-1.1875-0.27344-1.6914-0.67969-1.125-0.23438-1.6562-0.0625-1.2812-0.43359-1.6836-0.19531-1.1719 0.074218-0.97656 0.34375-1.0273 0.44531-1.6172 0.49609-1.0352 0.046875-1.0898-0.29688-1.1719-0.98828-0.66797-0.83984-0.50391-1.1953-0.125-1.1641-0.44531-1.4805-0.22266-1.0273-0.30859-1.4453-0.51953-1-1.2578-1.0742-1.3477-0.55469-1.582-0.45703-0.86328-0.65625-1.1992-1.5352-1.0742-1.3789-1.1016-1.0273-0.9375-0.97656-1.0859-0.78906-2.0664-1.2227-1.0586-1.1133-0.48438-1.7656-0.875-1.582-0.59375-1.3711-1.0508-1.3828-0.81641-0.77734-2.5703-1.6836-2.5312-1.2344-0.875-0.94922-0.83984-0.71875-1.6445-1.5547-0.64453-0.77734-1.6797-1.6836-1.4336-1.0859-1.8125-0.59375-1.0508-0.85156-0.69141-0.91406-0.81641-1.457-0.67969-0.76562-1.3477-0.89062-1.2109-0.82812-3.1133-2.4336-1.2852-0.58203-2.7891-0.65234-1.7422-0.085937h-2.2383l0.47266-2.6289 4.3906-5.3242 0.99219-1.875 0.89062-0.84766 0.70312-2.2266 0.79297-2.4766 0.65625-2.0898 1.3164-2.2031 1.5078-1.7422 2.0547-2.6719 1.6289-2.4453 0.57031-1.2227 1.6953-4.3438 0.32031-2.2266 0.69531-1.5195 1.0742 0.5 1.8789 1.5859 2.2148 3.5898 1.2539 1.0898 1.1406 0.36328 1.0195 0.074219 2.0156-0.20312 0.95703-0.52344 0.90234-1.2109 1.2109-0.82812 1.7422-0.074219 1.1133-0.34375 1.7148-1.3359 0.76562-1.9648 0.44531-2 0.73047-1.3203 1.582-1.3125 1.7031-0.77734 1.4688-1.0977 1.1367-1.3711 1.2383-0.73047 0.91406-0.78906 1.2969-0.34766 1.0117-1 1.0859-2.125 1.4336-1.5703 1.3125-1.1094 0.83984-0.55859 1.0234-0.77734 1.4727-3.7578 0.83984-1.0156 0.99609-1.1992 0.66016-0.79688 0.67578-0.81641 0.47656-1.2109 0.39844-1.0117 0.86328-2.1836 1.1953-2.4375 1.6602-1.7734 2.6758-2.0234 1.4609-1.6875 0.91016-1.0508 1.1289-1.3047 0.73828-0.85156 0.36328-1.0117 0.44922-1.2656 0.57812-0.84766 0.82031-1.2148 0.68359-0.84766-0.20312-1.1133-0.11719-1.3945-0.47266-1.0625 1.457-0.28125 1.7148-0.027344 1.0586-0.26953 1.2891-1.375 1.3242-0.60938 1.1992-0.76562 1.043-1.2891 0.9375-0.37109 2.1562 0.20312" fill="none" stroke="#fff" stroke-linecap="round" stroke-linejoin="round" stroke-miterlimit="10" stroke-width="2"/>
<path d="m387.14 184.66 0.47266 0.11328 1.2188 4.1602 0.19531 1.332 0.30469 1.3867 1.2383 0.63281 0.6875 0.77344 0.85547 1.3828 0.91016 2.0156 1.6133 2.082 2.5469 3.2891 0.97656 1.043 1.2227 2.043 0.20312 2.1211 1.4609 1.3398 1.2031 0.68359 1.5195 0.46094 1.3516 0.41406 1.0156-0.13672 1.4688-0.19531 0.94531-0.50781 2.125-1.1523 1.0586-0.64844 1.043-0.63672 0.84766-0.67188 0.89453-0.84766 0.86328-1.0508 1.1641-1.9141 0.96094-0.86719 1.3359-0.48047 1.8633-0.82812 1.3477-1.1367 1.1367-0.69141 1.1484-0.44531 3.1758-1.0352 1.7305-0.65625 1.2734-0.32031 1.2461-0.050781 1.4453 0.50781 1.4453 0.023437 1.2734-0.14844 1.4062-0.74219 1.1016-0.42969 1.0117-0.19922 1.1875-0.70312 1.0234-1.1758 1.125-0.42969 1.2227 0.097656 1.0742 0.22266 1.5938 0.43359 1.2227-0.085937 2.4844-0.53125 1.4961-0.45703 1.668-0.39844 4.3242-0.44531 2.6914-0.41797 1.7539-1.1992 2.0625-0.89062 2.0625-0.72656 1.5586-0.91406h1.3594l1.8164 0.69141 4.2617 2.8164 0.94922 0.35938 1.0156-0.48047-0.125 1.3047 0.082031 1.3438 0.97266 1.4688 0.71875 0.82422 0.66406 0.80078 1.1562 0.89453 1.1016 0.75 1.1719 0.67578 1.3672 0.94922 0.87109 1.3008 0.25391 1.0898 0.32422 1.6797 0.16406 1.8086-0.48828 1.2656-1.2891 1.0078-1.2617 1.1562-0.60156 1.1484-0.24609 1.3789-0.089844 1.3008 0.007813 1.0195 0.039062 1.1016 0.27734 1.2852 0.92578 1.3477 0.67188 0.80859 0.84766 1.4609 0.39453 1.3086-0.015625 1.7734-0.21875 1.207-0.68359 1.0469-0.94922 0.91406-0.67188 1.043 0.20703 1.1602 0.625 0.90234 1.3008 1.082 1.3203 0.64844 1.6602 0.51953 1.207 0.37109 1.9336 0.625 1.043 0.97656 0.5 1.2148 0.11328 1.8086-0.11328 1.8672-0.011718 1.207-0.17578 1.957-0.30078 1.0586 0.37109 1.1797 1.3789 1.4375 0.74219 0.91797 1.2656 1.5977 0.75 1.5547 0.89453 1.5195 0.87891 1.5508 0.64062 1.3125-0.57812 1.2305-0.94531 2.293-0.33203 1.0977-0.23047 1.2891v1.4297l-0.03125 1.9141-0.14453 1.3789-0.91797 1.875-0.88672 2.125-1.0625 1.1289-1.3633 0.92969-0.64844 0.79297-0.17188 1.4102-0.39062 1.1523-0.73438 1.4844-1.1133 2.2461-1.4062 4.625-1.1094 1.7109-1.2344 0.87891-1.7812 0.35547-1.2461 0.69531-0.69141 0.76562-0.66016 1.0195-0.15234 1.0195-0.28516 1.1406-1.1367 0.89062-1.6562-0.36328-0.95312-0.39844-1.2344 0.011719-1.0273-0.28125-1.2578 0.16016-2.2734 0.8125-0.98828 0.19922-2.2109 0.21094-3.1523 1-1.8633 0.40625-1.1484-0.085937-1.6055-0.53125-1.9023-0.86328-0.82812-0.75391-1.0156-1.1133-1.4922-0.44531-1.9414 0.33594-3.2383 0.91406-1.6055 0.085937-1.1719-0.32031-3.0898-0.23438-1.8281-0.35938-2.0508-1.4102-1.4922-0.89844-2.1523-0.38281-1.3477 0.10938-3.0391 0.074219-1.8711 0.054688-1.1797-0.003907-1.0742-0.0625-1.9648 0.17188-1.5664 0.66797-2.7812-0.13672-1.1719 0.125-1.1641 0.60547-1.457 0.23438-1.2344-0.46875-1.4102 0.12109-1.1719 0.74219-1.3477 0.33203h-1.0117l-1.9141-0.40625-1.8789 0.21094-1.4844 0.49219-2.2461 1.8555-1.3828 1.3086-3.0664 3.5586-1.0859 0.91406-1.793 0.96094-1.0078 0.6875-1.4727 1.3281-0.87891 0.61719-1.0352 0.19922-1.0156-0.35547-2.8789-2.7734-3.2148-4.3789-2.2969-3.6641-1.7383-4.1992-3.0781-4.7188-2.4062-5.3633-1.1758-2.7227-0.54688-0.94531-1.1602-2-1.4375-3.7578-0.62109-1.3945-0.43359-1.4688-0.84766-1.6484-0.79297-1.5469-1.1211-1.1797-1.2266-1.0508-0.96484-1.6562-2.1289-4.2031-1.3125-2.3555-0.97656-2.8008-0.32031-1.6484-0.28906-3.0508-0.71875-0.92188-1.9922-0.73828-1.4258-1.0273-0.51172-1.5742 0.15234-1.707 0.16406-1.8828-0.14453-1.1602-0.55469-1.1758-1.5117-2.0859-0.57031-1.7852 0.074218-2.5625-0.20312-1.1797-0.71875-0.94141-1.4766-1.25-1.5469-1.1797-0.91797-1.0312-0.45312-1.9922-0.050781-1.0469-0.74219-1.4844-0.72656-1.1094-1.8984-2.4844-1.1016-0.98047 0.14453-1.6289 0.76562-1.1094-0.93359-2.8438-0.19531-2.1289 0.46094-1.2461 1.7148-1.7305-0.0625-1.4648 1.2461-2.2109 1.3203-2.3516 0.47266-1.2461 0.70703-1.8594 2.0547 0.28906 1.9258 0.36719 2.125 0.070312 1.9883 0.48438 1.6992 0.023438 1.9062-0.64062 1.5273-0.51172 0.58984-1.3164 0.90234-2.9492 4.1992 0.58984 2.5312 1.1094 1.3516 0.69531 1.1797 0.34766 1.3789 0.046875 0.89844-0.51953 1.0547-0.60547 0.69141-1.6992 2.4805-0.67969 1.5-0.62109 1.9844-0.35938 2.6367-0.13672z" fill="#0a5394" fill-rule="evenodd"/>
<path d="m387.14 184.66 0.47266 0.11328 1.2188 4.1602 0.19531 1.332 0.30469 1.3867 1.2383 0.63281 0.6875 0.77344 0.85547 1.3828 0.91016 2.0156 1.6133 2.082 2.5469 3.2891 0.97656 1.043 1.2227 2.043 0.20312 2.1211 1.4609 1.3398 1.2031 0.68359 1.5195 0.46094 1.3516 0.41406 1.0156-0.13672 1.4688-0.19531 0.94531-0.50781 2.125-1.1523 1.0586-0.64844 1.043-0.63672 0.84766-0.67188 0.89453-0.84766 0.86328-1.0508 1.1641-1.9141 0.96094-0.86719 1.3359-0.48047 1.8633-0.82812 1.3477-1.1367 1.1367-0.69141 1.1484-0.44531 3.1758-1.0352 1.7305-0.65625 1.2734-0.32031 1.2461-0.050781 1.4453 0.50781 1.4453 0.023437 1.2734-0.14844 1.4062-0.74219 1.1016-0.42969 1.0117-0.19922 1.1875-0.70312 1.0234-1.1758 1.125-0.42969 1.2227 0.097656 1.0742 0.22266 1.5938 0.43359 1.2227-0.085937 2.4844-0.53125 1.4961-0.45703 1.668-0.39844 4.3242-0.44531 2.6914-0.41797 1.7539-1.1992 2.0625-0.89062 2.0625-0.72656 1.5586-0.91406h1.3594l1.8164 0.69141 4.2617 2.8164 0.94922 0.35938 1.0156-0.48047-0.125 1.3047 0.082031 1.3438 0.97266 1.4688 0.71875 0.82422 0.66406 0.80078 1.1562 0.89453 1.1016 0.75 1.1719 0.67578 1.3672 0.94922 0.87109 1.3008 0.25391 1.0898 0.32422 1.6797 0.16406 1.8086-0.48828 1.2656-1.2891 1.0078-1.2617 1.1562-0.60156 1.1484-0.24609 1.3789-0.089844 1.3008 0.007813 1.0195 0.039062 1.1016 0.27734 1.2852 0.92578 1.3477 0.67188 0.80859 0.84766 1.4609 0.39453 1.3086-0.015625 1.7734-0.21875 1.207-0.68359 1.0469-0.94922 0.91406-0.67188 1.043 0.20703 1.1602 0.625 0.90234 1.3008 1.082 1.3203 0.64844 1.6602 0.51953 1.207 0.37109 1.9336 0.625 1.043 0.97656 0.5 1.2148 0.11328 1.8086-0.11328 1.8672-0.011718 1.207-0.17578 1.957-0.30078 1.0586 0.37109 1.1797 1.3789 1.4375 0.74219 0.91797 1.2656 1.5977 0.75 1.5547 0.89453 1.5195 0.87891 1.5508 0.64062 1.3125-0.57812 1.2305-0.94531 2.293-0.33203 1.0977-0.23047 1.2891v1.4297l-0.03125 1.9141-0.14453 1.3789-0.91797 1.875-0.88672 2.125-1.0625 1.1289-1.3633 0.92969-0.64844 0.79297-0.17188 1.4102-0.39062 1.1523-0.73438 1.4844-1.1133 2.2461-1.4062 4.625-1.1094 1.7109-1.2344 0.87891-1.7812 0.35547-1.2461 0.69531-0.69141 0.76562-0.66016 1.0195-0.15234 1.0195-0.28516 1.1406-1.1367 0.89062-1.6562-0.36328-0.95312-0.39844-1.2344 0.011719-1.0273-0.28125-1.2578 0.16016-2.2734 0.8125-0.98828 0.19922-2.2109 0.21094-3.1523 1-1.8633 0.40625-1.1484-0.085937-1.6055-0.53125-1.9023-0.86328-0.82812-0.75391-1.0156-1.1133-1.4922-0.44531-1.9414 0.33594-3.2383 0.91406-1.6055 0.085937-1.1719-0.32031-3.0898-0.23438-1.8281-0.35938-2.0508-1.4102-1.4922-0.89844-2.1523-0.38281-1.3477 0.10938-3.0391 0.074219-1.8711 0.054688-1.1797-0.003907-1.0742-0.0625-1.9648 0.17188-1.5664 0.66797-2.7812-0.13672-1.1719 0.125-1.1641 0.60547-1.457 0.23438-1.2344-0.46875-1.4102 0.12109-1.1719 0.74219-1.3477 0.33203h-1.0117l-1.9141-0.40625-1.8789 0.21094-1.4844 0.49219-2.2461 1.8555-1.3828 1.3086-3.0664 3.5586-1.0859 0.91406-1.793 0.96094-1.0078 0.6875-1.4727 1.3281-0.87891 0.61719-1.0352 0.19922-1.0156-0.35547-2.8789-2.7734-3.2148-4.3789-2.2969-3.6641-1.7383-4.1992-3.0781-4.7188-2.4062-5.3633-1.1758-2.7227-0.54688-0.94531-1.1602-2-1.4375-3.7578-0.62109-1.3945-0.43359-1.4688-0.84766-1.6484-0.79297-1.5469-1.1211-1.1797-1.2266-1.0508-0.96484-1.6562-2.1289-4.2031-1.3125-2.3555-0.97656-2.8008-0.32031-1.6484-0.28906-3.0508-0.71875-0.92188-1.9922-0.73828-1.4258-1.0273-0.51172-1.5742 0.15234-1.707 0.16406-1.8828-0.14453-1.1602-0.55469-1.1758-1.5117-2.0859-0.57031-1.7852 0.074218-2.5625-0.20312-1.1797-0.71875-0.94141-1.4766-1.25-1.5469-1.1797-0.91797-1.0312-0.45312-1.9922-0.050781-1.0469-0.74219-1.4844-0.72656-1.1094-1.8984-2.4844-1.1016-0.98047 0.14453-1.6289 0.76562-1.1094-0.93359-2.8438-0.19531-2.1289 0.46094-1.2461 1.7148-1.7305-0.0625-1.4648 1.2461-2.2109 1.3203-2.3516 0.47266-1.2461 0.70703-1.8594 2.0547 0.28906 1.9258 0.36719 2.125 0.070312 1.9883 0.48438 1.6992 0.023438 1.9062-0.64062 1.5273-0.51172 0.58984-1.3164 0.90234-2.9492 4.1992 0.58984 2.5312 1.1094 1.3516 0.69531 1.1797 0.34766 1.3789 0.046875 0.89844-0.51953 1.0547-0.60547 0.69141-1.6992 2.4805-0.67969 1.5-0.62109 1.9844-0.35938 2.6367-0.13672 1.2227 0.44141" fill="none" stroke="#fff" stroke-linecap="round" stroke-linejoin="round" stroke-miterlimit="10"/>
<path d="m401.36 259.73c0 3.5898-2.9102 6.5-6.5 6.5s-6.5-2.9102-6.5-6.5 2.9102-6.5 6.5-6.5 6.5 2.9102 6.5 6.5" fill="#28c028" fill-rule="evenodd" stroke="#000" stroke-linecap="round" stroke-linejoin="round" stroke-miterlimit="10"/>
<path d="m207.81 253.73v-16.469h5.3438c2.0195 0 3.3359 0.085938 3.9531 0.25 0.9375 0.25 1.7227 0.79297 2.3594 1.625 0.63281 0.82422 0.95312 1.8867 0.95312 3.1875 0 1.0117-0.18359 1.8672-0.54688 2.5625-0.36719 0.6875-0.83594 1.2305-1.4062 1.625-0.5625 0.38672-1.1367 0.64062-1.7188 0.76562-0.79297 0.16797-1.9375 0.25-3.4375 0.25h-2.1719v6.2031zm3.3281-13.672v4.6719h1.8125c1.3125 0 2.1875-0.085937 2.625-0.26562 0.44531-0.17578 0.79688-0.44531 1.0469-0.8125 0.25-0.36328 0.375-0.78906 0.375-1.2812 0-0.59375-0.17969-1.082-0.53125-1.4688-0.35547-0.39453-0.79688-0.64062-1.3281-0.73438-0.39844-0.070312-1.1953-0.10938-2.3906-0.10938zm26.859 13.672h-3.6094l-1.4375-3.7344h-6.5781l-1.3594 3.7344h-3.5312l6.4062-16.469h3.5156zm-6.1094-6.5156-2.2812-6.1094-2.2188 6.1094zm7.8281 6.5156v-16.469h4.9844l2.9844 11.234 2.9531-11.234h4.9844v16.469h-3.0938v-12.953l-3.2656 12.953h-3.2031l-3.25-12.953v12.953zm19.203 0v-16.469h5.3438c2.0195 0 3.3359 0.085938 3.9531 0.25 0.9375 0.25 1.7227 0.79297 2.3594 1.625 0.63281 0.82422 0.95312 1.8867 0.95312 3.1875 0 1.0117-0.18359 1.8672-0.54688 2.5625-0.36719 0.6875-0.83594 1.2305-1.4062 1.625-0.5625 0.38672-1.1367 0.64062-1.7188 0.76562-0.79297 0.16797-1.9375 0.25-3.4375 0.25h-2.1719v6.2031zm3.3281-13.672v4.6719h1.8125c1.3125 0 2.1875-0.085937 2.625-0.26562 0.44531-0.17578 0.79688-0.44531 1.0469-0.8125 0.25-0.36328 0.375-0.78906 0.375-1.2812 0-0.59375-0.17969-1.082-0.53125-1.4688-0.35547-0.39453-0.79688-0.64062-1.3281-0.73438-0.39844-0.070312-1.1953-0.10938-2.3906-0.10938zm26.859 13.672h-3.6094l-1.4375-3.7344h-6.5781l-1.3594 3.7344h-3.5312l6.4062-16.469h3.5156zm-6.1094-6.5156-2.2812-6.1094-2.2188 6.1094zm18.406 0.46875 3.2344 1.0156c-0.5 1.793-1.3281 3.125-2.4844 4-1.1484 0.875-2.6016 1.3125-4.3594 1.3125-2.1875 0-3.9844-0.74219-5.3906-2.2344-1.4062-1.5-2.1094-3.5469-2.1094-6.1406 0-2.7383 0.70312-4.8633 2.1094-6.375 1.4141-1.5195 3.2812-2.2812 5.5938-2.2812 2.0078 0 3.6445 0.60156 4.9062 1.7969 0.75 0.69922 1.3125 1.7109 1.6875 3.0312l-3.2969 0.78125c-0.19922-0.85156-0.60547-1.5234-1.2188-2.0156-0.61719-0.5-1.3672-0.75-2.25-0.75-1.2188 0-2.2109 0.4375-2.9688 1.3125-0.76172 0.875-1.1406 2.2969-1.1406 4.2656 0 2.0742 0.375 3.5547 1.125 4.4375 0.75 0.88672 1.7227 1.3281 2.9219 1.3281 0.88281 0 1.6445-0.28125 2.2812-0.84375 0.63281-0.5625 1.0859-1.4414 1.3594-2.6406zm6.0938 6.0469v-16.469h3.3281v6.4844h6.5v-6.4844h3.3281v16.469h-3.3281v-7.2031h-6.5v7.2031zm31.438 0h-3.6094l-1.4375-3.7344h-6.5781l-1.3594 3.7344h-3.5312l6.4062-16.469h3.5156zm-6.1094-6.5156-2.2812-6.1094-2.2188 6.1094zm18.406 0.46875 3.2344 1.0156c-0.5 1.793-1.3281 3.125-2.4844 4-1.1484 0.875-2.6016 1.3125-4.3594 1.3125-2.1875 0-3.9844-0.74219-5.3906-2.2344-1.4062-1.5-2.1094-3.5469-2.1094-6.1406 0-2.7383 0.70312-4.8633 2.1094-6.375 1.4141-1.5195 3.2812-2.2812 5.5938-2.2812 2.0078 0 3.6445 0.60156 4.9062 1.7969 0.75 0.69922 1.3125 1.7109 1.6875 3.0312l-3.2969 0.78125c-0.19922-0.85156-0.60547-1.5234-1.2188-2.0156-0.61719-0.5-1.3672-0.75-2.25-0.75-1.2188 0-2.2109 0.4375-2.9688 1.3125-0.76172 0.875-1.1406 2.2969-1.1406 4.2656 0 2.0742 0.375 3.5547 1.125 4.4375 0.75 0.88672 1.7227 1.3281 2.9219 1.3281 0.88281 0 1.6445-0.28125 2.2812-0.84375 0.63281-0.5625 1.0859-1.4414 1.3594-2.6406zm6.0938 6.0469v-16.469h7c1.7578 0 3.0352 0.15234 3.8281 0.45312 0.80078 0.29297 1.4414 0.82031 1.9219 1.5781 0.47656 0.75 0.71875 1.6172 0.71875 2.5938 0 1.2305-0.36719 2.25-1.0938 3.0625-0.73047 0.80469-1.8203 1.3086-3.2656 1.5156 0.71875 0.41797 1.3125 0.88281 1.7812 1.3906 0.46875 0.5 1.0977 1.3867 1.8906 2.6562l2.0156 3.2188h-3.9688l-2.4062-3.5781c-0.85547-1.2812-1.4375-2.0859-1.75-2.4219-0.3125-0.33203-0.64844-0.5625-1-0.6875-0.35547-0.125-0.91406-0.1875-1.6719-0.1875h-0.67188v6.875zm3.3281-9.5h2.4531c1.5938 0 2.5859-0.066406 2.9844-0.20312 0.39453-0.13281 0.70312-0.36328 0.92188-0.6875 0.22656-0.33203 0.34375-0.75 0.34375-1.25 0-0.55078-0.14844-0.99219-0.4375-1.3281-0.29297-0.34375-0.71094-0.5625-1.25-0.65625-0.27344-0.03125-1.0781-0.046875-2.4219-0.046875h-2.5938zm28.109 9.5h-3.6094l-1.4375-3.7344h-6.5781l-1.3594 3.7344h-3.5312l6.4062-16.469h3.5156zm-6.1094-6.5156-2.2812-6.1094-2.2188 6.1094zm0 0" fill="none" stroke="#fff" stroke-linecap="round" stroke-linejoin="round" stroke-miterlimit="10" stroke-width="2"/>
<path d="m207.81 253.73v-16.469h5.3438c2.0195 0 3.3359 0.085938 3.9531 0.25 0.9375 0.25 1.7227 0.79297 2.3594 1.625 0.63281 0.82422 0.95312 1.8867 0.95312 3.1875 0 1.0117-0.18359 1.8672-0.54688 2.5625-0.36719 0.6875-0.83594 1.2305-1.4062 1.625-0.5625 0.38672-1.1367 0.64062-1.7188 0.76562-0.79297 0.16797-1.9375 0.25-3.4375 0.25h-2.1719v6.2031zm3.3281-13.672v4.6719h1.8125c1.3125 0 2.1875-0.085937 2.625-0.26562 0.44531-0.17578 0.79688-0.44531 1.0469-0.8125 0.25-0.36328 0.375-0.78906 0.375-1.2812 0-0.59375-0.17969-1.082-0.53125-1.4688-0.35547-0.39453-0.79688-0.64062-1.3281-0.73438-0.39844-0.070312-1.1953-0.10938-2.3906-0.10938zm26.859 13.672h-3.6094l-1.4375-3.7344h-6.5781l-1.3594 3.7344h-3.5312l6.4062-16.469h3.5156zm-6.1094-6.5156-2.2812-6.1094-2.2188 6.1094zm7.8281 6.5156v-16.469h4.9844l2.9844 11.234 2.9531-11.234h4.9844v16.469h-3.0938v-12.953l-3.2656 12.953h-3.2031l-3.25-12.953v12.953zm19.203 0v-16.469h5.3438c2.0195 0 3.3359 0.085938 3.9531 0.25 0.9375 0.25 1.7227 0.79297 2.3594 1.625 0.63281 0.82422 0.95312 1.8867 0.95312 3.1875 0 1.0117-0.18359 1.8672-0.54688 2.5625-0.36719 0.6875-0.83594 1.2305-1.4062 1.625-0.5625 0.38672-1.1367 0.64062-1.7188 0.76562-0.79297 0.16797-1.9375 0.25-3.4375 0.25h-2.1719v6.2031zm3.3281-13.672v4.6719h1.8125c1.3125 0 2.1875-0.085937 2.625-0.26562 0.44531-0.17578 0.79688-0.44531 1.0469-0.8125 0.25-0.36328 0.375-0.78906 0.375-1.2812 0-0.59375-0.17969-1.082-0.53125-1.4688-0.35547-0.39453-0.79688-0.64062-1.3281-0.73438-0.39844-0.070312-1.1953-0.10938-2.3906-0.10938zm26.859 13.672h-3.6094l-1.4375-3.7344h-6.5781l-1.3594 3.7344h-3.5312l6.4062-16.469h3.5156zm-6.1094-6.5156-2.2812-6.1094-2.2188 6.1094zm18.406 0.46875 3.2344 1.0156c-0.5 1.793-1.3281 3.125-2.4844 4-1.1484 0.875-2.6016 1.3125-4.3594 1.3125-2.1875 0-3.9844-0.74219-5.3906-2.2344-1.4062-1.5-2.1094-3.5469-2.1094-6.1406 0-2.7383 0.70312-4.8633 2.1094-6.375 1.4141-1.5195 3.2812-2.2812 5.5938-2.2812 2.0078 0 3.6445 0.60156 4.9062 1.7969 0.75 0.69922 1.3125 1.7109 1.6875 3.0312l-3.2969 0.78125c-0.19922-0.85156-0.60547-1.5234-1.2188-2.0156-0.61719-0.5-1.3672-0.75-2.25-0.75-1.2188 0-2.2109 0.4375-2.9688 1.3125-0.76172 0.875-1.1406 2.2969-1.1406 4.2656 0 2.0742 0.375 3.5547 1.125 4.4375 0.75 0.88672 1.7227 1.3281 2.9219 1.3281 0.88281 0 1.6445-0.28125 2.2812-0.84375 0.63281-0.5625 1.0859-1.4414 1.3594-2.6406zm6.0938 6.0469v-16.469h3.3281v6.4844h6.5v-6.4844h3.3281v16.469h-3.3281v-7.2031h-6.5v7.2031zm31.438 0h-3.6094l-1.4375-3.7344h-6.5781l-1.3594 3.7344h-3.5312l6.4062-16.469h3.5156zm-6.1094-6.5156-2.2812-6.1094-2.2188 6.1094zm18.406 0.46875 3.2344 1.0156c-0.5 1.793-1.3281 3.125-2.4844 4-1.1484 0.875-2.6016 1.3125-4.3594 1.3125-2.1875 0-3.9844-0.74219-5.3906-2.2344-1.4062-1.5-2.1094-3.5469-2.1094-6.1406 0-2.7383 0.70312-4.8633 2.1094-6.375 1.4141-1.5195 3.2812-2.2812 5.5938-2.2812 2.0078 0 3.6445 0.60156 4.9062 1.7969 0.75 0.69922 1.3125 1.7109 1.6875 3.0312l-3.2969 0.78125c-0.19922-0.85156-0.60547-1.5234-1.2188-2.0156-0.61719-0.5-1.3672-0.75-2.25-0.75-1.2188 0-2.2109 0.4375-2.9688 1.3125-0.76172 0.875-1.1406 2.2969-1.1406 4.2656 0 2.0742 0.375 3.5547 1.125 4.4375 0.75 0.88672 1.7227 1.3281 2.9219 1.3281 0.88281 0 1.6445-0.28125 2.2812-0.84375 0.63281-0.5625 1.0859-1.4414 1.3594-2.6406zm6.0938 6.0469v-16.469h7c1.7578 0 3.0352 0.15234 3.8281 0.45312 0.80078 0.29297 1.4414 0.82031 1.9219 1.5781 0.47656 0.75 0.71875 1.6172 0.71875 2.5938 0 1.2305-0.36719 2.25-1.0938 3.0625-0.73047 0.80469-1.8203 1.3086-3.2656 1.5156 0.71875 0.41797 1.3125 0.88281 1.7812 1.3906 0.46875 0.5 1.0977 1.3867 1.8906 2.6562l2.0156 3.2188h-3.9688l-2.4062-3.5781c-0.85547-1.2812-1.4375-2.0859-1.75-2.4219-0.3125-0.33203-0.64844-0.5625-1-0.6875-0.35547-0.125-0.91406-0.1875-1.6719-0.1875h-0.67188v6.875zm3.3281-9.5h2.4531c1.5938 0 2.5859-0.066406 2.9844-0.20312 0.39453-0.13281 0.70312-0.36328 0.92188-0.6875 0.22656-0.33203 0.34375-0.75 0.34375-1.25 0-0.55078-0.14844-0.99219-0.4375-1.3281-0.29297-0.34375-0.71094-0.5625-1.25-0.65625-0.27344-0.03125-1.0781-0.046875-2.4219-0.046875h-2.5938zm28.109 9.5h-3.6094l-1.4375-3.7344h-6.5781l-1.3594 3.7344h-3.5312l6.4062-16.469h3.5156zm-6.1094-6.5156-2.2812-6.1094-2.2188 6.1094z" fill-rule="evenodd"/>
</g>
</svg>
