<?xml version="1.0" encoding="UTF-8"?>
<svg width="430pt" height="500pt" version="1.1" viewBox="0 0 430 500" xmlns="http://www.w3.org/2000/svg">
<g id="a">
<rect width="430" height="500" fill="none"/>
<path d="m147.3 213.18 2.25 1.668 1.1133 1.0664 1.7734 1.3477 1.4336 0.82422 1.6094 0.65234 2.4609 0.75 1.5352 0.25 2.957-0.57422 1.0039-0.36328 2.0586-1.0898 1.7031-0.011718 1.543 0.40625 1.4961 0.81641 2.7656 2.4766 2.1992 1.6484 2.8047 2.1016 2.2852 2.7617 1.8906 1.8438 1.9766 1.6797 0.54688 1.0039 2.3203 4.2344 0.78125 2.7227-0.003907 1.832 0.78906 1.2812 0.75781 1.043 0.89062 1.5195 0.46875 1.125 0.33984 1.5938 0.39453 1.4727 0.68359 1.1211 0.74219 1.2148 0.69922 1.1484 1.0781 1.2227 1.3203 1.5312 1.5703 1.2578 1.2383 0.63281 1.8906 0.78516 2.2422 1.0273 1.5898 1.1016 1.9648 2.6172v1.7031l1.2422 3.9297 0.66406 0.99609 1.8242 2.7383-0.32812 3.207-2.5195 2.6523-0.35938 1.4688 0.21484 1.4922 1.2461 1.7539 0.60156 1.1328 1.7031 2.7422 3.0078 5.5352 2.3906 1.5508 1.2734 0.33984 2.832 0.75 3.6211 0.71875 1.4805-0.51953 0.35938-1.0977 0.94141-0.78125 1.7539-1.457 1.4141-0.59766 1.4688-2.1055 2.5039-0.97656 1.3789-0.42578 1.3281-0.80078 1.6016-0.12109 2.582-0.65625 1.582-0.85156 1.2266-0.125 1.0977 1.1211 0.71875 0.73828 0.93359 1.2539 1.8086 2.4492 0.75 1.7188 0.45312 1.1641-0.046875 2.0938 0.34766 1.1719 0.59375 0.92969 0.83594 1.3164 0.625 1.3008-0.39453 1.1445-0.33203 1.3359-0.80078 1.0781-1.4023 0.625-0.050781 1.582 0.21875 3.168-0.69531 1.7266 0.11719 1.3477 1.4844 0.47656 1.5039 1.0117 1.4297 0.64062 1.2812 0.21875 2.3555 0.98047 0.89844 1.4688 0.80859 2.9258 1.1055 1.6055-1.082 0.035157-2.5703 1.457-1.9258 2.625-0.76562 1.3906-0.17969 2.7852-0.51953 1.0078-1.6719 3.9727-0.50781 1.25-0.16406 1.2461-0.18359 1.8398-1.2422 1.1758-1.2227 1.1562-0.73828 1.3594-0.23047 1.4062-1.8242 1.1523-2.7773 1.7656-1.1875 0.92578-1.3828 0.44922-2.0703 2.2031-1.375 1.2227-1.1016 0.49609-0.875 0.67969-1.8789 2.6523-0.78906 0.67188-1.3945 0.60156-1.3086 0.92188-1.4688 0.21484-1.4336 0.92188-1.293 0.23828-1.7305-0.40625-1.293 0.3125-1.9102 0.77344-1.7773 0.089843-2.8555 0.14844-2.5312 0.13281-2.1992 0.11328-1.1289 0.29297-2.0625 0.53125-1.4648 0.96484-1.6562 1.7891-1.5312 1.6523 0.089843 2.8398 0.082032 2.5117-0.45312 7.8555-0.78516 2.0703-1.1367 2.1367-1.207 1.6211-0.87891 1.1797-2.0586 2.168-2.4805 2.3984-0.57031 0.91016-1.4844 2.3789-0.019531 1.3086 1.2109 0.60156 1.293 0.96875 0.79297 0.82031 0.72266 1.043 1.6445 3.5234 1.0195 1.5469 0.99609 0.83984 0.6875 0.94531-1.0664 0.003906-1.043 0.25781-1.6094 0.98438-1.1641 0.87891-1.6445 1.418-1.375 1.1875-0.96094 1.0664-2.1328 2.7344-1.4102 1.7422-2.1172 2.0156-1.4609 1.1484-1.1367 0.71094-1.3477 1.6836-2.4297 2.3906-2.582 2.7148-2.0742 1.4336-1.2461 1.1719-1.2656 0.69922-1.1484 1.0547-1.0547 0.74609-3.1406 0.50781-1.4102-0.011718-1.7891 0.57031-1.2539 0.61719-1.2578 1.1602-1.0781 0.81641-1.4219 0.90234-1.207 0.27344-1.8555 0.42188-1.6367 0.03125-1.1328-0.16016-1.0078-0.35938-1.4023-0.49609-1.7969-1.1367-1.3438 0.41406-1.918 0.73047-1.3711 0.30859-1.6133-0.14844-1.2734-0.47656-2.3164-1.1445-1.6836-1.1758-2.8438-0.17969-1.457 0.60938-0.62109 0.85938-0.69531 2.1445-0.67578 1.082-1.1016 0.29688-1.6406-0.027344-1.0859 0.94141-1.2539 1.3711-1.0469 0.78125-2.3164-0.16016-1.5625 0.56641-2.9883 2.7461-1.957 1.582-2.0977 1.6953-1.8789 0.67188-1.1133 0.21875-3.0859-0.03125-1.3438 0.21484-1.1016 0.61719-0.91406 0.51172-1.0508 0.26953-1.7188-1.1289-0.37891-1.0781-0.58984-0.85938-1.2656-1.1719-1.2734-0.89453-1.0273-0.20312-1-0.44531-1.3125-1.1758-1.2422-0.82812-1.8242-0.17188-1.082-0.015625-1.5664 0.1875-1.4102-0.30859-1.1445-0.74609-1.0273-0.67188-1.582 0.082032-1.3125 0.57422-0.73828 0.89844-1.1211 1.832-1.0625 0.76562-2.3398-0.15234-1.3477-0.41797-1.0156-0.31641-1.5-0.21094-1.2695-0.17578-1.3984 0.13281-1.6172 0.76562-1.5078 0.74219-1.0391 0.32812-1.2422 0.39453-2.4297 0.23828-1.4492 0.27344-1.5 0.75781-1.25 0.054688-1.6289-0.14453-1.5 0.125-2.2812 0.40234-0.98047 0.35547-0.67578 0.82812 0.042969 2.1797-0.17969 1.6133-1.5156 1.3477-1.6094 0.93359-1.5742 1.0273-0.96094 0.88281-0.95312 0.5-1.0586 0.69922-0.91016 0.69922-0.95312 0.51953-1.6719 0.91016-1.2461 0.51562-0.97656 0.24219-1.5781 0.13672-0.95703-0.38672-1.6602-0.77734-1.2383-0.41016-1.2383-0.82812-1.4492-1.168-1.1289-0.91016-1.6367-1.9297-1.9297-1.0195-1.3281 0.054687-2.3477 0.089844-3.9688 0.80078-1.8281 0.26562-1.1953 0.39062-1.3828-0.10938-1.1602-0.47266-1.0586 0.035156-1.0938 0.039063-1.6016-0.73047-2-0.54688-0.94531-0.61328-0.10938-1.8984-0.21094-3.582 0.058593-1.2383 0.36719-2.4961 0.10938-1.1641-1.418-1.8555-0.94531-1.7852-0.40234-1.2383-1.793-1.8906 1.8516-0.082031 1.1602-0.17188 1.8789-0.28125 1.0039-0.30078 1.5195-0.45703 1.0352-0.42969 0.85938-0.75781 1.2656-1.7188 0.42969-1.418 0.42969-0.98438 0.074219-1.1875-0.40234-0.98828-0.082031-1.875 0.1875-0.99219 1.2617-2.3438 0.98438-1.7188 0.68359-1.6953 0.73438-1.3906 0.75781-1.1367 0.27734-1.5938-0.21094-1.9023 0.13672-1.3867 0.125-1.2891-0.88672-1.3398 0.035156-2.1758 0.44531-1.3906 0.76172-2.3516-0.73438-1.3633-0.75781-1.2148-0.68359-0.80859-0.37891-1.8477-0.32812-3.2383-1.1133-1.543 0.31641-2.1992 1.0586-1.418 0.87109-0.85547 0.85938-0.55859 1.1914-0.77344 1.3906-0.89844 1.4375-0.93359 0.99219-0.93359 1.7695-1.6719 0.73828-1.5547 0.27344-1.3516 0.30469-1.4922 0.60938-1.1953 0.95703-0.92969 0.42969-0.98438 1.1367-0.8125 1.3477-0.28516 2.8281-0.49609 0.93359-0.48047 0.80859-1.9219 0.20312-1.9727 0.23047-1.1406 0.11719-2.0977-0.066406-1.1133-0.43359-1.4141-0.91016-0.88672-2.4258-2.1484-0.83594-0.66016-0.68359-0.93359-0.48047-1.3672-0.5625-1.0234-0.88672-1.8398-1.0273-1.7383-1.2383-1.1133-0.28906-1.6836-0.15234-2.207-0.089844-1.3203-0.10938-1.543-0.52344-1.2383-0.42969-1.0117-0.007813-1.1406 1.3359-0.9375 0.61719-0.95312 0.9375-1.4453 0.9375-1.4492 0.80859-1.6328 0.80859-1.6445 0.40234-1.1406 0.078125-1.2617-0.60938-2.0234-1.0117-2.25-0.65625-1.1641-0.35156-0.98828 0.21094-0.98828 2.7578-1.1797 1.0117-0.75 2.2891-1.8359 0.50781-1.0859 0.097656-1.1914-0.050781-1.1602-1.0352-0.91016-2.1406-1.0547-0.86719-1.0195-1.7461-2.0508-1.3359-1.2539-1.6484-1.1992-1.2891-0.93359-0.78516-0.9375-0.49609-0.96875-0.48047-1.3711-0.56641-1.6172-1.2812-2.6211 0.45703-1.7617 0.42969-0.94141 1.3984-1.2656 1.6875-0.45703 1.293-0.34766 1.1602-0.87891 1.7227-1.6055 1.9648-0.98438 0.95312-0.74219 0.14844-2.1992-0.39453-2.0352-1.8086-3.7656-1.0703-2.2305 0.09375-1.0156 1.4844-1.0078 2.2891-1.25 2.3359-0.88672 1.1445-2.0586 1.2461-1.0625 1.3125-1.168 1.457-0.77344 1.3984-0.74219 1.1875-0.86328 1.1484-1.4141 0.63672-1.8906 0.92188-1.1875 1.25-0.41797 1.9648-0.027344 1.2188-0.23828 2.1406 0.26562 1.457 0.32812 3.6055-0.76172 1.5508-1.75 0.85938-1.2539 1.4805-2.1562 0.63672-1.6094 1.0078-1.332 1.5742-1.543 2.6211-0.76172 2.0742-1.7773 0.76172-1.0156 2.4336-2.082 1.7539-1.4297 3.2148-2.6211 0.5625-1.6797 0.95703-3.043 0.44922-2.2109 1.2891-1.6133 1.0156-1.2695 1.5273-0.94922 2.0508-0.76172 2.4883-0.58203 2.3398-0.50391 4.4961-0.50391 2.582-2.0703 1.6523-1.6016 2.4023-1.0469 2.7422-1.1992 1.7188 1.2656 1.3086 1.6211 1.0312 0.34375 2.4648-1.7148 1.5898-0.96875 3.2773-0.65234 2.0586-0.1875 1.2773 0.0625 1.5938-0.21875 2.1836-0.59375 1.4141 0.058594 1.1133 0.53516 1.4961 0.71875 2.6523 0.71484 1.8984 1.1445 1.0039 0.60547 1.2773 0.30859 1.9297-1.1367 1.0312-2.1016 0.73828-1.5 0.62891-1.2812 0.47656-1.7148 0.0625-2.2773 0.5625-1.5312 0.90625-0.96484 0.80859-0.65625 1.3438-0.75 1.2773-1.2148 1.2695-0.60547 2.4453-0.89453 0.85547-0.60938z" fill="#ccc" fill-rule="evenodd"/>
<path d="m147.3 213.18 2.25 1.668 1.1133 1.0664 1.7734 1.3477 1.4336 0.82422 1.6094 0.65234 2.4609 0.75 1.5352 0.25 2.957-0.57422 1.0039-0.36328 2.0586-1.0898 1.7031-0.011718 1.543 0.40625 1.4961 0.81641 2.7656 2.4766 2.1992 1.6484 2.8047 2.1016 2.2852 2.7617 1.8906 1.8438 1.9766 1.6797 0.54688 1.0039 2.3203 4.2344 0.78125 2.7227-0.003907 1.832 0.78906 1.2812 0.75781 1.043 0.89062 1.5195 0.46875 1.125 0.33984 1.5938 0.39453 1.4727 0.68359 1.1211 0.74219 1.2148 0.69922 1.1484 1.0781 1.2227 1.3203 1.5312 1.5703 1.2578 1.2383 0.63281 1.8906 0.78516 2.2422 1.0273 1.5898 1.1016 1.9648 2.6172v1.7031l1.2422 3.9297 0.66406 0.99609 1.8242 2.7383-0.32812 3.207-2.5195 2.6523-0.35938 1.4688 0.21484 1.4922 1.2461 1.7539 0.60156 1.1328 1.7031 2.7422 3.0078 5.5352 2.3906 1.5508 1.2734 0.33984 2.832 0.75 3.6211 0.71875 1.4805-0.51953 0.35938-1.0977 0.94141-0.78125 1.7539-1.457 1.4141-0.59766 1.4688-2.1055 2.5039-0.97656 1.3789-0.42578 1.3281-0.80078 1.6016-0.12109 2.582-0.65625 1.582-0.85156 1.2266-0.125 1.0977 1.1211 0.71875 0.73828 0.93359 1.2539 1.8086 2.4492 0.75 1.7188 0.45312 1.1641-0.046875 2.0938 0.34766 1.1719 0.59375 0.92969 0.83594 1.3164 0.625 1.3008-0.39453 1.1445-0.33203 1.3359-0.80078 1.0781-1.4023 0.625-0.050781 1.582 0.21875 3.168-0.69531 1.7266 0.11719 1.3477 1.4844 0.47656 1.5039 1.0117 1.4297 0.64062 1.2812 0.21875 2.3555 0.98047 0.89844 1.4688 0.80859 2.9258 1.1055 1.6055-1.082 0.035157-2.5703 1.457-1.9258 2.625-0.76562 1.3906-0.17969 2.7852-0.51953 1.0078-1.6719 3.9727-0.50781 1.25-0.16406 1.2461-0.18359 1.8398-1.2422 1.1758-1.2227 1.1562-0.73828 1.3594-0.23047 1.4062-1.8242 1.1523-2.7773 1.7656-1.1875 0.92578-1.3828 0.44922-2.0703 2.2031-1.375 1.2227-1.1016 0.49609-0.875 0.67969-1.8789 2.6523-0.78906 0.67188-1.3945 0.60156-1.3086 0.92188-1.4688 0.21484-1.4336 0.92188-1.293 0.23828-1.7305-0.40625-1.293 0.3125-1.9102 0.77344-1.7773 0.089843-2.8555 0.14844-2.5312 0.13281-2.1992 0.11328-1.1289 0.29297-2.0625 0.53125-1.4648 0.96484-1.6562 1.7891-1.5312 1.6523 0.089843 2.8398 0.082032 2.5117-0.45312 7.8555-0.78516 2.0703-1.1367 2.1367-1.207 1.6211-0.87891 1.1797-2.0586 2.168-2.4805 2.3984-0.57031 0.91016-1.4844 2.3789-0.019531 1.3086 1.2109 0.60156 1.293 0.96875 0.79297 0.82031 0.72266 1.043 1.6445 3.5234 1.0195 1.5469 0.99609 0.83984 0.6875 0.94531-1.0664 0.003906-1.043 0.25781-1.6094 0.98438-1.1641 0.87891-1.6445 1.418-1.375 1.1875-0.96094 1.0664-2.1328 2.7344-1.4102 1.7422-2.1172 2.0156-1.4609 1.1484-1.1367 0.71094-1.3477 1.6836-2.4297 2.3906-2.582 2.7148-2.0742 1.4336-1.2461 1.1719-1.2656 0.69922-1.1484 1.0547-1.0547 0.74609-3.1406 0.50781-1.4102-0.011718-1.7891 0.57031-1.2539 0.61719-1.2578 1.1602-1.0781 0.81641-1.4219 0.90234-1.207 0.27344-1.8555 0.42188-1.6367 0.03125-1.1328-0.16016-1.0078-0.35938-1.4023-0.49609-1.7969-1.1367-1.3438 0.41406-1.918 0.73047-1.3711 0.30859-1.6133-0.14844-1.2734-0.47656-2.3164-1.1445-1.6836-1.1758-2.8438-0.17969-1.457 0.60938-0.62109 0.85938-0.69531 2.1445-0.67578 1.082-1.1016 0.29688-1.6406-0.027344-1.0859 0.94141-1.2539 1.3711-1.0469 0.78125-2.3164-0.16016-1.5625 0.56641-2.9883 2.7461-1.957 1.582-2.0977 1.6953-1.8789 0.67188-1.1133 0.21875-3.0859-0.03125-1.3438 0.21484-1.1016 0.61719-0.91406 0.51172-1.0508 0.26953-1.7188-1.1289-0.37891-1.0781-0.58984-0.85938-1.2656-1.1719-1.2734-0.89453-1.0273-0.20312-1-0.44531-1.3125-1.1758-1.2422-0.82812-1.8242-0.17188-1.082-0.015625-1.5664 0.1875-1.4102-0.30859-1.1445-0.74609-1.0273-0.67188-1.582 0.082032-1.3125 0.57422-0.73828 0.89844-1.1211 1.832-1.0625 0.76562-2.3398-0.15234-1.3477-0.41797-1.0156-0.31641-1.5-0.21094-1.2695-0.17578-1.3984 0.13281-1.6172 0.76562-1.5078 0.74219-1.0391 0.32812-1.2422 0.39453-2.4297 0.23828-1.4492 0.27344-1.5 0.75781-1.25 0.054688-1.6289-0.14453-1.5 0.125-2.2812 0.40234-0.98047 0.35547-0.67578 0.82812 0.042969 2.1797-0.17969 1.6133-1.5156 1.3477-1.6094 0.93359-1.5742 1.0273-0.96094 0.88281-0.95312 0.5-1.0586 0.69922-0.91016 0.69922-0.95312 0.51953-1.6719 0.91016-1.2461 0.51562-0.97656 0.24219-1.5781 0.13672-0.95703-0.38672-1.6602-0.77734-1.2383-0.41016-1.2383-0.82812-1.4492-1.168-1.1289-0.91016-1.6367-1.9297-1.9297-1.0195-1.3281 0.054687-2.3477 0.089844-3.9688 0.80078-1.8281 0.26562-1.1953 0.39062-1.3828-0.10938-1.1602-0.47266-1.0586 0.035156-1.0938 0.039063-1.6016-0.73047-2-0.54688-0.94531-0.61328-0.10938-1.8984-0.21094-3.582 0.058593-1.2383 0.36719-2.4961 0.10938-1.1641-1.418-1.8555-0.94531-1.7852-0.40234-1.2383-1.793-1.8906 1.8516-0.082031 1.1602-0.17188 1.8789-0.28125 1.0039-0.30078 1.5195-0.45703 1.0352-0.42969 0.85938-0.75781 1.2656-1.7188 0.42969-1.418 0.42969-0.98438 0.074219-1.1875-0.40234-0.98828-0.082031-1.875 0.1875-0.99219 1.2617-2.3438 0.98438-1.7188 0.68359-1.6953 0.73438-1.3906 0.75781-1.1367 0.27734-1.5938-0.21094-1.9023 0.13672-1.3867 0.125-1.2891-0.88672-1.3398 0.035156-2.1758 0.44531-1.3906 0.76172-2.3516-0.73438-1.3633-0.75781-1.2148-0.68359-0.80859-0.37891-1.8477-0.32812-3.2383-1.1133-1.543 0.31641-2.1992 1.0586-1.418 0.87109-0.85547 0.85938-0.55859 1.1914-0.77344 1.3906-0.89844 1.4375-0.93359 0.99219-0.93359 1.7695-1.6719 0.73828-1.5547 0.27344-1.3516 0.30469-1.4922 0.60938-1.1953 0.95703-0.92969 0.42969-0.98438 1.1367-0.8125 1.3477-0.28516 2.8281-0.49609 0.93359-0.48047 0.80859-1.9219 0.20312-1.9727 0.23047-1.1406 0.11719-2.0977-0.066406-1.1133-0.43359-1.4141-0.91016-0.88672-2.4258-2.1484-0.83594-0.66016-0.68359-0.93359-0.48047-1.3672-0.5625-1.0234-0.88672-1.8398-1.0273-1.7383-1.2383-1.1133-0.28906-1.6836-0.15234-2.207-0.089844-1.3203-0.10938-1.543-0.52344-1.2383-0.42969-1.0117-0.007813-1.1406 1.3359-0.9375 0.61719-0.95312 0.9375-1.4453 0.9375-1.4492 0.80859-1.6328 0.80859-1.6445 0.40234-1.1406 0.078125-1.2617-0.60938-2.0234-1.0117-2.25-0.65625-1.1641-0.35156-0.98828 0.21094-0.98828 2.7578-1.1797 1.0117-0.75 2.2891-1.8359 0.50781-1.0859 0.097656-1.1914-0.050781-1.1602-1.0352-0.91016-2.1406-1.0547-0.86719-1.0195-1.7461-2.0508-1.3359-1.2539-1.6484-1.1992-1.2891-0.93359-0.78516-0.9375-0.49609-0.96875-0.48047-1.3711-0.56641-1.6172-1.2812-2.6211 0.45703-1.7617 0.42969-0.94141 1.3984-1.2656 1.6875-0.45703 1.293-0.34766 1.1602-0.87891 1.7227-1.6055 1.9648-0.98438 0.95312-0.74219 0.14844-2.1992-0.39453-2.0352-1.8086-3.7656-1.0703-2.2305 0.09375-1.0156 1.4844-1.0078 2.2891-1.25 2.3359-0.88672 1.1445-2.0586 1.2461-1.0625 1.3125-1.168 1.457-0.77344 1.3984-0.74219 1.1875-0.86328 1.1484-1.4141 0.63672-1.8906 0.92188-1.1875 1.25-0.41797 1.9648-0.027344 1.2188-0.23828 2.1406 0.26562 1.457 0.32812 3.6055-0.76172 1.5508-1.75 0.85938-1.2539 1.4805-2.1562 0.63672-1.6094 1.0078-1.332 1.5742-1.543 2.6211-0.76172 2.0742-1.7773 0.76172-1.0156 2.4336-2.082 1.7539-1.4297 3.2148-2.6211 0.5625-1.6797 0.95703-3.043 0.44922-2.2109 1.2891-1.6133 1.0156-1.2695 1.5273-0.94922 2.0508-0.76172 2.4883-0.58203 2.3398-0.50391 4.4961-0.50391 2.582-2.0703 1.6523-1.6016 2.4023-1.0469 2.7422-1.1992 1.7188 1.2656 1.3086 1.6211 1.0312 0.34375 2.4648-1.7148 1.5898-0.96875 3.2773-0.65234 2.0586-0.1875 1.2773 0.0625 1.5938-0.21875 2.1836-0.59375 1.4141 0.058594 1.1133 0.53516 1.4961 0.71875 2.6523 0.71484 1.8984 1.1445 1.0039 0.60547 1.2773 0.30859 1.9297-1.1367 1.0312-2.1016 0.73828-1.5 0.62891-1.2812 0.47656-1.7148 0.0625-2.2773 0.5625-1.5312 0.90625-0.96484 0.80859-0.65625 1.3438-0.75 1.2773-1.2148 1.2695-0.60547 2.4453-0.89453 0.85547-0.60938 2.4219 1.3438" fill="none" stroke="#fff" stroke-linecap="round" stroke-linejoin="round" stroke-miterlimit="10" stroke-width="2"/>
<path d="m199.34 405.64 0.49609 0.46094 1.7617-0.035156 1.4258 0.28516 1.1992 0.35547 1.0781 0.66406 1.5156 1.6094 1.2188 1.0781 0.91406 0.98438 2.2031 0.72266 1.1836 0.035157 1.2695 0.60547 1.0781 0.85156 1.3984 1.207 2.5469 1.5039 1.3711 1.5078 0.76172 2.1797 0.76172 1.0977 1.0508 1.8516 1.1602 0.96094 1.4453 0.82812 1.918 0.69922 1.3984 0.46094 1.1367 0.40234 1.1367 0.59375 1.6836 1.125 2.1211 0.9375 1.0078 0.625 0.6875 1.4336 0.86328 1.0898 2.2734 0.47656 0.96094 1.4219 1.3164 1.5273 1.0195 0.4375 3.6602 3.1055 1.9648 1.4219 1.0078 0.74609 0.67578 0.93359 0.96094 1.1523 1.8945 1.8359 2 0.58984 1.6367 1.5781 0.09375 1.5977 0.15625 1.125 0.91016 0.94922 1.5547 0.41406 1.3477 0.75781 0.58203 0.87891-0.26172 1.4219 0.15625 1.4102 0.28125 1.1953 0.69922 1.3867 1.5195 1.5742 2.1094 1.3867 1.1953 0.99609 1.1016 0.78125 1.9297 1.0898 1.707 1.125 2.7266 0.66406 1.2656 0.92188 0.42578 1.4219 0.37891 1.8984 1.0195 1.3984 0.9375 0.82812 2.2617 2.2852 0.96094 0.83203 0.95703 0.50781 0.87891 0.78125 1.0664 1.5508-0.91406 1.1875-0.91016 1.1836-0.83203 0.80469-1.7773 0.45312-1.7148 0.58984-1.457 0.25-1.4453-0.17969-0.96094-0.39062-2.9609-0.60156-1.043-0.35547-1.2578-0.82031-1.0898-1.1602-0.73438-0.6875-1.4805-1.2422-1.0547-0.74609-4.3945-2.2422-1.043-0.33984-3.5078-0.16797-1.043 0.33203-1.1953 0.83984-0.97266 0.29688-1.4219-0.082031-1.0039 0.86328-2.5859 1.5547-1.6914 1.4336-1.375 0.14062-1.9922 1.4102-0.96875 1.1836-0.66406 1.457-0.79297 0.89062-1.4336-0.023438-1.0195-0.29688-1.957-1.207-1.2305-0.23828-1.1484 0.27344-1.4688 0.09375-3.5547 0.47266-1.0312 0.17969-1.3398-0.023437-0.93359-0.37891-1.2109 0.046875-1.4336-0.10938-1.0078-0.23438-1.4922-0.023437-1.1328 0.22266-1.3203 0.13281-1.5508-0.35547-1.9531-0.41406-1.3164-0.050781-1.5391 0.0625-1.7539 0.80469-0.80469 0.74609-1.9688 0.44922-2 0.62891-2.0742 0.35547-1.1719 0.11719-1.1406-0.082032-1.1484-0.42578-1.4453-1.2812-0.76953-1.0312-1.3281-1.1367-1.0898-0.47266-1.3633-1.043-1.0156-0.50781-1.1758-0.34375-1.3594 0.011719-1.3867 0.56641-1.7422 0.29688-1.3633 0.17969-1.3867 0.29297-2.2266 0.32031-1.5391 0.39062-1.625 0.011718-1.8477-0.82812-1.3047 0.17969-1.0156 0.058594-1.5898-0.17969-1.1719 0.070313-1.7773 1.0664-0.67578 0.94922-1.1953 0.36719-1.2109-0.49609-1.0781-0.023437-1.5273 0.22266-1.125 0.023438-1.6328-0.78125-0.51172-0.96094-0.22656-1.0273-0.75781-1.3398-0.85156-0.71094-1.4453-0.61719-1.8125-0.28516-0.97266-0.49609-2.7695-0.48438-1.4336-0.12109-2.0859-0.57812-1.3398-0.13281-2.5469 0.19141-1.3047 0.55469-0.83984 0.66406-0.92578 0.91406-1.2773 0.93359-1.1484 0.46484-1.3984 1.2539-0.85547 1.0898-0.98047 1.7891-1.1523 1.1992-0.83984 0.625-1.6953 0.61719-1.2188 0.61719-0.88672 0.89844-1.1406 1.3398-1.7383 0.89844-2.7148 2.0273-2.9258 1.7305-2.5117 0.85156-1.2734 0.26562-1.957 0.58203-1.2461 0.78516-1.3789 0.49219-2.168 0.42578-1.7031-0.42578-1.4805-1.1133-2.4609-1.4766-1.3438-1.4141-1.4414-1.5117-1.0469-1.0977-0.69141-3.4062 0.19141-4.1562-0.45703-3.3828-0.78906-1.9688-1.4453-1.707-1.8672-1.082-5.3516-1.1797-3.543-1.543-4.5625-1.2812-3.3164 0.10156-3.3555 1.707-1.5703 0.80469-1.0273 0.1875-2.1992 0.050782-1.125-0.10938-1.6406 1.1016-0.95703 0.98828-2.0234-0.14062-1.2109-0.66406-1.6445-0.44922-0.91797-0.44141-1.1758-0.36719-1.4062 0.19141-1.7266 0.097656-1.1523-0.16797-3.1758 0.17188-3.0273-0.98047-2.0664-1.2617-1.1406-0.39453-1.5781 0.046875-1.9219 0.0625-2.0938-0.375-0.97656-0.56641-0.61719-1.1875-0.6875-1.3906-0.62109-1.0234-0.30469-1.1094-0.23438-1.2969-0.41016-0.96094-0.95312-0.62109 0.92969-0.75391 1.3086-0.36328 2.2383-1.1445 0.95312-0.51953 0.91016-0.69922 1.0586-0.69922 0.95312-0.5 0.96094-0.88281 1.5742-1.0273 1.6094-0.93359 0.94922-0.66016 0.74609-2.3008-0.10938-1.6836 0.74219-1.3242 0.98047-0.35547 2.2812-0.40234 1.5-0.125 1.0391 0.09375 1.8398-0.003906 1.0781-0.54297 1.8711-0.48828 1.6484-0.16016 2.0234-0.47266 1.0391-0.32812 1.5078-0.74219 1.2539-0.64062 1.7617-0.25781 1.2695 0.17578 1.5 0.21094 1.0156 0.31641 1.3477 0.41797 1.4922 0.35156 1.9102-0.96484 1.1211-1.832 0.73828-0.89844 1.3125-0.57422 1.582-0.082032 1.0273 0.67188 1.1445 0.74609 1.4102 0.30859 1.5664-0.1875 1.082 0.015625 1.8242 0.17188 1.2422 0.82812 1.3125 1.1758 1 0.44531 1.0273 0.20312 1.2734 0.89453 1.2656 1.1719 0.58984 0.85938 0.37891 1.0781 0.85938 0.69922 1.9102 0.16016 0.91406-0.51172 1.1016-0.61719 1.3438-0.21484 3.0859 0.03125 1.1133-0.21875 1.8789-0.67188 3.8086-3.0781 3.2344-2.9453 1.5625-0.56641 2.0547 0.14062 1.3086-0.76172 1.2539-1.3711 0.68359-0.75391 1.5859-0.16797 1.5586-0.28906 0.67578-1.082 0.69531-2.1445 0.62109-0.85938 1.457-0.60938 2.8438 0.17969 1.6836 1.1758 2.3164 1.1445 1.2734 0.47656 1.6133 0.14844 1.3711-0.30859 1.918-0.73047 1.0391-0.48438 2.1016 1.207 1.4023 0.49609 1.0078 0.35938 1.1328 0.16016 1.6367-0.03125 1.2148-0.27734 1.1641-0.26172 1.4062-0.42969 1.7773-1.4453 1.2578-1.1602 1.168-0.57422 1.875-0.61328 1.4102 0.011718 2.4883-0.28125 1.1719-0.52344 1.207-1.1719 1.7422-1.0312 1.2461-1.1719 1.5508-1.0312 3.1055-3.1172 2.0469-1.8828 1.1758-1.6094 1.6914-1.293 0.94922-0.67578 2.1797-2.0156 1.8594-2.2148 1.4453-2.0703 1.6484-1.7305 1.375-1.1875 1.6445-1.418 1.1641-0.87891 1.6094-0.98438 1.043-0.25781z" fill="#ccc" fill-rule="evenodd"/>
<path d="m199.34 405.64 0.49609 0.46094 1.7617-0.035156 1.4258 0.28516 1.1992 0.35547 1.0781 0.66406 1.5156 1.6094 1.2188 1.0781 0.91406 0.98438 2.2031 0.72266 1.1836 0.035157 1.2695 0.60547 1.0781 0.85156 1.3984 1.207 2.5469 1.5039 1.3711 1.5078 0.76172 2.1797 0.76172 1.0977 1.0508 1.8516 1.1602 0.96094 1.4453 0.82812 1.918 0.69922 1.3984 0.46094 1.1367 0.40234 1.1367 0.59375 1.6836 1.125 2.1211 0.9375 1.0078 0.625 0.6875 1.4336 0.86328 1.0898 2.2734 0.47656 0.96094 1.4219 1.3164 1.5273 1.0195 0.4375 3.6602 3.1055 1.9648 1.4219 1.0078 0.74609 0.67578 0.93359 0.96094 1.1523 1.8945 1.8359 2 0.58984 1.6367 1.5781 0.09375 1.5977 0.15625 1.125 0.91016 0.94922 1.5547 0.41406 1.3477 0.75781 0.58203 0.87891-0.26172 1.4219 0.15625 1.4102 0.28125 1.1953 0.69922 1.3867 1.5195 1.5742 2.1094 1.3867 1.1953 0.99609 1.1016 0.78125 1.9297 1.0898 1.707 1.125 2.7266 0.66406 1.2656 0.92188 0.42578 1.4219 0.37891 1.8984 1.0195 1.3984 0.9375 0.82812 2.2617 2.2852 0.96094 0.83203 0.95703 0.50781 0.87891 0.78125 1.0664 1.5508-0.91406 1.1875-0.91016 1.1836-0.83203 0.80469-1.7773 0.45312-1.7148 0.58984-1.457 0.25-1.4453-0.17969-0.96094-0.39062-2.9609-0.60156-1.043-0.35547-1.2578-0.82031-1.0898-1.1602-0.73438-0.6875-1.4805-1.2422-1.0547-0.74609-4.3945-2.2422-1.043-0.33984-3.5078-0.16797-1.043 0.33203-1.1953 0.83984-0.97266 0.29688-1.4219-0.082031-1.0039 0.86328-2.5859 1.5547-1.6914 1.4336-1.375 0.14062-1.9922 1.4102-0.96875 1.1836-0.66406 1.457-0.79297 0.89062-1.4336-0.023438-1.0195-0.29688-1.957-1.207-1.2305-0.23828-1.1484 0.27344-1.4688 0.09375-3.5547 0.47266-1.0312 0.17969-1.3398-0.023437-0.93359-0.37891-1.2109 0.046875-1.4336-0.10938-1.0078-0.23438-1.4922-0.023437-1.1328 0.22266-1.3203 0.13281-1.5508-0.35547-1.9531-0.41406-1.3164-0.050781-1.5391 0.0625-1.7539 0.80469-0.80469 0.74609-1.9688 0.44922-2 0.62891-2.0742 0.35547-1.1719 0.11719-1.1406-0.082032-1.1484-0.42578-1.4453-1.2812-0.76953-1.0312-1.3281-1.1367-1.0898-0.47266-1.3633-1.043-1.0156-0.50781-1.1758-0.34375-1.3594 0.011719-1.3867 0.56641-1.7422 0.29688-1.3633 0.17969-1.3867 0.29297-2.2266 0.32031-1.5391 0.39062-1.625 0.011718-1.8477-0.82812-1.3047 0.17969-1.0156 0.058594-1.5898-0.17969-1.1719 0.070313-1.7773 1.0664-0.67578 0.94922-1.1953 0.36719-1.2109-0.49609-1.0781-0.023437-1.5273 0.22266-1.125 0.023438-1.6328-0.78125-0.51172-0.96094-0.22656-1.0273-0.75781-1.3398-0.85156-0.71094-1.4453-0.61719-1.8125-0.28516-0.97266-0.49609-2.7695-0.48438-1.4336-0.12109-2.0859-0.57812-1.3398-0.13281-2.5469 0.19141-1.3047 0.55469-0.83984 0.66406-0.92578 0.91406-1.2773 0.93359-1.1484 0.46484-1.3984 1.2539-0.85547 1.0898-0.98047 1.7891-1.1523 1.1992-0.83984 0.625-1.6953 0.61719-1.2188 0.61719-0.88672 0.89844-1.1406 1.3398-1.7383 0.89844-2.7148 2.0273-2.9258 1.7305-2.5117 0.85156-1.2734 0.26562-1.957 0.58203-1.2461 0.78516-1.3789 0.49219-2.168 0.42578-1.7031-0.42578-1.4805-1.1133-2.4609-1.4766-1.3438-1.4141-1.4414-1.5117-1.0469-1.0977-0.69141-3.4062 0.19141-4.1562-0.45703-3.3828-0.78906-1.9688-1.4453-1.707-1.8672-1.082-5.3516-1.1797-3.543-1.543-4.5625-1.2812-3.3164 0.10156-3.3555 1.707-1.5703 0.80469-1.0273 0.1875-2.1992 0.050782-1.125-0.10938-1.6406 1.1016-0.95703 0.98828-2.0234-0.14062-1.2109-0.66406-1.6445-0.44922-0.91797-0.44141-1.1758-0.36719-1.4062 0.19141-1.7266 0.097656-1.1523-0.16797-3.1758 0.17188-3.0273-0.98047-2.0664-1.2617-1.1406-0.39453-1.5781 0.046875-1.9219 0.0625-2.0938-0.375-0.97656-0.56641-0.61719-1.1875-0.6875-1.3906-0.62109-1.0234-0.30469-1.1094-0.23438-1.2969-0.41016-0.96094-0.95312-0.62109 0.92969-0.75391 1.3086-0.36328 2.2383-1.1445 0.95312-0.51953 0.91016-0.69922 1.0586-0.69922 0.95312-0.5 0.96094-0.88281 1.5742-1.0273 1.6094-0.93359 0.94922-0.66016 0.74609-2.3008-0.10938-1.6836 0.74219-1.3242 0.98047-0.35547 2.2812-0.40234 1.5-0.125 1.0391 0.09375 1.8398-0.003906 1.0781-0.54297 1.8711-0.48828 1.6484-0.16016 2.0234-0.47266 1.0391-0.32812 1.5078-0.74219 1.2539-0.64062 1.7617-0.25781 1.2695 0.17578 1.5 0.21094 1.0156 0.31641 1.3477 0.41797 1.4922 0.35156 1.9102-0.96484 1.1211-1.832 0.73828-0.89844 1.3125-0.57422 1.582-0.082032 1.0273 0.67188 1.1445 0.74609 1.4102 0.30859 1.5664-0.1875 1.082 0.015625 1.8242 0.17188 1.2422 0.82812 1.3125 1.1758 1 0.44531 1.0273 0.20312 1.2734 0.89453 1.2656 1.1719 0.58984 0.85938 0.37891 1.0781 0.85938 0.69922 1.9102 0.16016 0.91406-0.51172 1.1016-0.61719 1.3438-0.21484 3.0859 0.03125 1.1133-0.21875 1.8789-0.67188 3.8086-3.0781 3.2344-2.9453 1.5625-0.56641 2.0547 0.14062 1.3086-0.76172 1.2539-1.3711 0.68359-0.75391 1.5859-0.16797 1.5586-0.28906 0.67578-1.082 0.69531-2.1445 0.62109-0.85938 1.457-0.60938 2.8438 0.17969 1.6836 1.1758 2.3164 1.1445 1.2734 0.47656 1.6133 0.14844 1.3711-0.30859 1.918-0.73047 1.0391-0.48438 2.1016 1.207 1.4023 0.49609 1.0078 0.35938 1.1328 0.16016 1.6367-0.03125 1.2148-0.27734 1.1641-0.26172 1.4062-0.42969 1.7773-1.4453 1.2578-1.1602 1.168-0.57422 1.875-0.61328 1.4102 0.011718 2.4883-0.28125 1.1719-0.52344 1.207-1.1719 1.7422-1.0312 1.2461-1.1719 1.5508-1.0312 3.1055-3.1172 2.0469-1.8828 1.1758-1.6094 1.6914-1.293 0.94922-0.67578 2.1797-2.0156 1.8594-2.2148 1.4453-2.0703 1.6484-1.7305 1.375-1.1875 1.6445-1.418 1.1641-0.87891 1.6094-0.98438 1.043-0.25781 1.1016 0.046875" fill="none" stroke="#fff" stroke-linecap="round" stroke-linejoin="round" stroke-miterlimit="10" stroke-width="2"/>
<path d="m287.39 3.5625 0.53516 0.85938 0.92188 1.1602 1.4727 1.0156 1.0195 0.51562 1.1367 0.34766 2.8906 0.47656 3.5508 1.2656 1.75 1.1133 1.7422 1.8633 0.83984 0.79688 0.65234 0.78516 1.6719 0.79688 1.0469 0.03125 1.8398 0.57422 2.3789 3.0469 1.0664 2.1484 0.35156 1.668 0.87109 1.3555 2.3906 1.3945 1.5859 1.1562 1.4375 1.3516 0.82422 1 1.2148 2.2031 0.71094 1.2852 0.96094 0.85938 1.5977 0.94531 0.96094 0.28125 1.3438-0.023437 1.0078-0.61328 1.1797-1.2734 1.0312-0.98438 0.94922-0.49219 2.7695-1.1484 1.4258-0.32422 1.6055 0.23047 1.1875 0.49219 1.6094 0.88672 1.6562 0.042969 1.7891-0.30859 1.3047-0.097656 1.5508-0.066406 1.4336-0.015625 1.4258-0.125 1.2539-0.12891 1.6992 1.5039 0.64844 1.4492 0.55469 1.3672 0.37109 2.7578-0.050781 1.0977-0.77734 2.2227-0.58203 0.83594-0.76953 0.85938-0.95312 0.97266-0.92188 1.1914-1.1133 1.4336-0.57422 1.7539 0.66797 1.8242 0.71875 1.875 0.75391 1.2891 1.1602 1.0625 1.332 0.55078 0.97266 0.84766 0.59375 1.4414-0.59375 1.1758-0.63672 1.2852 0.25391 1.4141 0.64453 1.3438 1.2656 1.2109 0.77734 1.418 1.0742 1.9805 0.62109 0.96094 0.57422 0.88672 0.54297 1.0781 0.53906 1.0039 0.63672 1.1719 0.55078 0.86328 1.1758 1.0156 1.8906 1.0195 1.5547 0.60938 1.1758 0.49219 1.543 0.70703 1.0156 0.56641 1.4688 1.0195 0.89453 1.3984 0.054688 1.4141-0.32422 1.3594-0.625 1.8633-0.44141 1.3359-0.21875 1.7148 0.43359 1.6133 0.75 1.5586 0.48438 0.90625 0.35156 0.94531 0.48047 1.0586 0.86328 1.4141 1.1992 1.2617 0.99219 1.0703 1.3867 1.4023 0.94531 0.82031 1.1445 1.0586 1.1055 1.2031 0.30859 1.793v1.7266l0.30859 1.9648 0.085938 1.0039-0.066407 1.8125-0.39844 1.3008-0.83594 1.793-0.4375 0.90625-0.4375 0.91797-0.45312 1.3867-0.29688 1.625-0.53516 1.6992-0.3125 1.75-0.070312 1.0195 0.042968 1.4961 0.042969 2.5195 0.26562 1.5977 0.3125 1.043 0.36719 1.6406-0.11328 1.4141-0.70703 1.2734-0.96094 1.457-1.1172 1.5664-0.070312 1.0781 0.32422 1.3867 0.64453 1.0156 0.72266 1.418-0.35938 1.2266-0.88672 0.625-1.1875 0.30859-1.2344 1.8086-0.10938 0.99609 0.51953 1.4492 0.39453 1.4297-0.66406 1.4492-0.375 1.4297 0.35547 1.7422 0.45703 1.8438 0.37109 0.99219 0.26953 1.0781 0.55859 1.0156 0.76562 0.68359 1.0156 0.80859 0.95312 0.55859 0.82812 0.72656 1.5156 0.87109 0.72266 0.87109 0.96094 0.98828 0.28906 1.4336-0.41797 1.6797-0.48438 1.4102-0.51953 1.5547-0.54688 1.3125-0.79297 1.4336-1.3281 1.0547-1.2422 0.60547-1.1016 0.40234-1.4102 0.41406-2.3125 0.55859-1.7773 1.1484-1.8125 1.6836-0.98047 1.1602-1.1875 0.75781-1.5273 1.043-0.93359 0.42578-1.1992 0.22656-1.0664 0.65234-1.4336 1.5859-0.76953 1.125-1.1133 1.6016-1.3516 1.4453-1.6211 0.81641-1.4453 0.72266-2.0977 0.86328-1.3867 0.29688-2.0156 0.011718-1.2539 0.33203-2.6406-0.035157-1.5547-0.39062-1.9648-0.4375-1.3984-0.65234-1.6484-1.0195-1.2656-0.33203-0.87891-0.54297-0.81641-1.2109-0.88672-0.76953-1.4102 0.21484-1.4102 0.14062-1.293-0.59375-0.91016-0.89844-1.707-0.83984-1.6016-0.72266-1.4453-0.42969-1.5039 0.10938-1.3125-0.074218-1.0312-0.10547-1.2695-0.011719-1.457-0.011719-1.125 0.37891-1.9648 0.89062-2.4297 0.92188-1.8125 1.0312-1.8477 1.0898-0.90234 0.83984-1.0195 0.72266-1.1367 0.69922-1.293 0.5-2.793 0.76953-1.5195 0.25-1.1719-0.074218-1.4336 0.10938-1.6445 1.0781-1.1406 0.34375-2.2617-0.074219-1.2305 0.23828-0.91406 0.41406-0.76953 0.67578-0.94922 0.91406-1.5742 0.60156-1.125 0.046875-1.8477-1.125-1.4219-0.37891-1.2227 0.13281-2.0234 0.78125-1.4219 0.10547-1.7305 0.53516-1.2539 0.10547-1.3047-0.62891-2.7852-0.41406h-1.5039l-0.86328 0.60547-2.4766 0.66406-1.5664 0.64844-0.81641 0.92578-0.48438 1.2305-1.2344 0.69922-2.0977 0.57031-1.2656 0.59375-1.5508 0.93359-0.96094 0.99609-1.4453 0.56641-1.2188 0.75-1.7305 1.3828-0.89062 1.5938-0.58984 1.9727-1.0078 0.54688-1.4805-0.28516-1.0664 0.47266-0.57812 1.2422-0.51953 0.90625-1.1094 1.3984-1.6289 1.6797-1.2773 1.3125-1.9961 1.3359-1.0625 0.86328-1.0078 0.87891-1.125 1.457-0.33594 3.1094-0.10156 1.0586-1.168 2.4766-0.69141 1.0234-0.86328 1.2812-0.72656 1.0781-1.7227 2.5586-0.86328 1.6719-0.10547 1.7188-0.3125 1.8008-1.7734 1.9883-1.1953 0.79297-1.043 0.69531-1.9727 1.9844-1.0273 1.5742-0.69141 1.0703-0.75 0.76953-1.0508 1.0742-4.2461 0.62891-2.0039 0.71094-1 0.4375-0.70703 0.74219-0.73047 0.76953-0.84375 1.043-1.0625 1.3164-0.72266 1.2578-1.0781 1.1562-2.0977 1.1289-2.6797 1.3125-1.8906-0.78516-1.2383-0.63281-1.5703-1.2578-1.3203-1.5312-1.0781-1.2227-0.69922-1.1484-0.74219-1.2148-0.68359-1.1211-0.39453-1.4727-0.33984-1.5938-0.46875-1.125-0.89062-1.5195-0.75781-1.043-0.78906-1.2812 0.003907-1.832-0.78125-2.7227-2.3203-4.2344-0.54688-1.0039-1.9766-1.6797-1.8906-1.8438-2.2852-2.7617-2.8047-2.1016-2.1992-1.6484-2.7656-2.4766-1.4961-0.81641-1.543-0.40625-1.7031 0.011718-2.0586 1.0898-1.0039 0.36328-2.957 0.57422-1.5352-0.25-2.4609-0.75-1.6094-0.65234-1.4336-0.82422-1.7734-1.3477-1.1133-1.0664-2.25-1.668-2.4219-1.3438-0.82812-1.7891-1.2383-1.5859-1.4766-1.4492-2.5742-1.2461-2.6094-1.5234-3.7891-2.8711-2.9258-3.707-0.86719-1.5-1.1211-1.1875-1.2305-1.2969-1.418-2.7383-0.20312-3.1797-1.3125-6.4023-0.41016-2.8906-0.44141-3.0781-0.13281-1.6875 0.39844-1.8438 0.64844-1 0.79297-1.7188 0.96484-1.2852 0.83594-2.082 0.27344-1.0781-0.57031-1.1914 1.1641-3.0547 0.26953-1.2461-0.21484-1.2422-0.78516-1.2812-0.26953-1.8555-0.26953-1.8672-0.625-1.0547-0.82031-0.65625-0.39453-1.0195-0.46094-1.7578 0.67578-1.1016 1.0547-3.2812 1.0547-3.2695 0.37891-1.8672 0.73047-1.7578v-1.0547l-0.21484-1.2695-0.46094-2.7031v-2.1641l0.29297-1.0469 0.54688-0.95312 0.57812-1.0195 0.58203-1.3906 0.60156-1.4297 0.99609-0.89453 1.2695-0.67578 1.0547-0.875 0.33984-1.7031 0.25-1.2109 0.80859-0.94531 0.92578-1.0508 0.49609-1.1406 0.46875-1.5625-0.52344-1.5781 0.46875-1.2734 0.81641-0.60938 0.91406-1.0273 1.0391-2.1328 0.30469-1.7148 0.55469-1.9258 1-1.8984 0.89453-1.0078 1.3047-1.4688 1.1211-1.2578 0.91406-0.70703 1.4648-1.0391 1.0547-0.85938 1.5352-1.3984 0.98438-1.0508 1.0664-1.3711 1.168-1.9062 0.75391-0.96094 0.66406-0.84375 1.0273-0.88672 1.6172-1.1484 1.2344-1.1875 1.332-0.55078 1.7812-0.46094 1.7891 0.16406 1.0195 0.46094 1.1133 0.76953 2.1914 1.4844 0.67578 0.80469 0.41406 1.5625 0.67578 0.91406 1.3047 0.37891 1.2305-0.40234 1.1133-0.74609 1.7422-1.375 1.0078-0.48828 1.6094-0.16406 1.0898-0.54688 1.2461-0.95703 1.0312-0.65234 0.94531-0.37891 1.6016-1.125 0.61328-0.98438 0.37891-0.9375 0.64062-1.0039 1.1016-0.92578 2.75 0.058594 1.6836-0.60547 1.4922-0.12891 1.6211-0.55469 0.90234-0.80859 0.82812-1.4219 0.92578-1.043 0.32031-2.2852 0.60156-1.6445 0.69922-1.8867 0.75781-1.6797 0.87891-1.1289 1.2188-1.2188 0.65234-1.1953 0.875-1.1875 0.85547-0.96875 0.73438-1.2695 0.91016-1.1953 0.45312-1.1484 2.0703-1.957 0.80859-0.98047 0.76562-0.74219 1.0469-1.2812 1.3047-1.1445 1.418-0.88281 1.4297-0.58984 1.2344-0.36328 1.7383-0.51172 2.1992-1.7617 1.0977-1.5664 1.0547-0.67188 1.8867-0.64453 0.72266-1.2734 0.94531-1.0078 0.97266-0.39062 1.6992-0.60156 1.7852 0.039063 1.1016-0.17188 1.2305-0.71094 0.73438-0.74609 0.53516-0.89062 2.5469-2.5938 0.90234-0.65625 0.83984-0.59766 1.7422-0.80859 1.75-1.1602 0.75-0.94922 1.3711-0.66016 0.97266-1.2812 0.023437-1.7539 0.27344-1.0781 0.82812-0.97266 1.5664-0.74609 1.3359-0.14062 1.5781 0.34375 1.3242 0.60547 1.2695 0.24609 1.6211 0.097657h1.0547l3.1406-1.2344 0.94922-0.62891 1.6719-1.3008 1.3945-1.1406 1.1484-0.57812 2.5703-1.4648 1.625-1.1016 1.0195-0.59766 1.0312-0.92188 1.6797-0.80859 1.2109-0.78125 1.1953-1.1953 1.7305-0.81641 2.5117-1.1992 2.1445-1.3867 1.0469-1.5898 1.5703-2.2109 1.0898-1.1602 0.92578-0.83203 1.5859-1.1133 0.99609-0.57812 0.92578-1.0195z" fill="#ccc" fill-rule="evenodd"/>
<path d="m287.39 3.5625 0.53516 0.85938 0.92188 1.1602 1.4727 1.0156 1.0195 0.51562 1.1367 0.34766 2.8906 0.47656 3.5508 1.2656 1.75 1.1133 1.7422 1.8633 0.83984 0.79688 0.65234 0.78516 1.6719 0.79688 1.0469 0.03125 1.8398 0.57422 2.3789 3.0469 1.0664 2.1484 0.35156 1.668 0.87109 1.3555 2.3906 1.3945 1.5859 1.1562 1.4375 1.3516 0.82422 1 1.2148 2.2031 0.71094 1.2852 0.96094 0.85938 1.5977 0.94531 0.96094 0.28125 1.3438-0.023437 1.0078-0.61328 1.1797-1.2734 1.0312-0.98438 0.94922-0.49219 2.7695-1.1484 1.4258-0.32422 1.6055 0.23047 1.1875 0.49219 1.6094 0.88672 1.6562 0.042969 1.7891-0.30859 1.3047-0.097656 1.5508-0.066406 1.4336-0.015625 1.4258-0.125 1.2539-0.12891 1.6992 1.5039 0.64844 1.4492 0.55469 1.3672 0.37109 2.7578-0.050781 1.0977-0.77734 2.2227-0.58203 0.83594-0.76953 0.85938-0.95312 0.97266-0.92188 1.1914-1.1133 1.4336-0.57422 1.7539 0.66797 1.8242 0.71875 1.875 0.75391 1.2891 1.1602 1.0625 1.332 0.55078 0.97266 0.84766 0.59375 1.4414-0.59375 1.1758-0.63672 1.2852 0.25391 1.4141 0.64453 1.3438 1.2656 1.2109 0.77734 1.418 1.0742 1.9805 0.62109 0.96094 0.57422 0.88672 0.54297 1.0781 0.53906 1.0039 0.63672 1.1719 0.55078 0.86328 1.1758 1.0156 1.8906 1.0195 1.5547 0.60938 1.1758 0.49219 1.543 0.70703 1.0156 0.56641 1.4688 1.0195 0.89453 1.3984 0.054688 1.4141-0.32422 1.3594-0.625 1.8633-0.44141 1.3359-0.21875 1.7148 0.43359 1.6133 0.75 1.5586 0.48438 0.90625 0.35156 0.94531 0.48047 1.0586 0.86328 1.4141 1.1992 1.2617 0.99219 1.0703 1.3867 1.4023 0.94531 0.82031 1.1445 1.0586 1.1055 1.2031 0.30859 1.793v1.7266l0.30859 1.9648 0.085938 1.0039-0.066407 1.8125-0.39844 1.3008-0.83594 1.793-0.4375 0.90625-0.4375 0.91797-0.45312 1.3867-0.29688 1.625-0.53516 1.6992-0.3125 1.75-0.070312 1.0195 0.042968 1.4961 0.042969 2.5195 0.26562 1.5977 0.3125 1.043 0.36719 1.6406-0.11328 1.4141-0.70703 1.2734-0.96094 1.457-1.1172 1.5664-0.070312 1.0781 0.32422 1.3867 0.64453 1.0156 0.72266 1.418-0.35938 1.2266-0.88672 0.625-1.1875 0.30859-1.2344 1.8086-0.10938 0.99609 0.51953 1.4492 0.39453 1.4297-0.66406 1.4492-0.375 1.4297 0.35547 1.7422 0.45703 1.8438 0.37109 0.99219 0.26953 1.0781 0.55859 1.0156 0.76562 0.68359 1.0156 0.80859 0.95312 0.55859 0.82812 0.72656 1.5156 0.87109 0.72266 0.87109 0.96094 0.98828 0.28906 1.4336-0.41797 1.6797-0.48438 1.4102-0.51953 1.5547-0.54688 1.3125-0.79297 1.4336-1.3281 1.0547-1.2422 0.60547-1.1016 0.40234-1.4102 0.41406-2.3125 0.55859-1.7773 1.1484-1.8125 1.6836-0.98047 1.1602-1.1875 0.75781-1.5273 1.043-0.93359 0.42578-1.1992 0.22656-1.0664 0.65234-1.4336 1.5859-0.76953 1.125-1.1133 1.6016-1.3516 1.4453-1.6211 0.81641-1.4453 0.72266-2.0977 0.86328-1.3867 0.29688-2.0156 0.011718-1.2539 0.33203-2.6406-0.035157-1.5547-0.39062-1.9648-0.4375-1.3984-0.65234-1.6484-1.0195-1.2656-0.33203-0.87891-0.54297-0.81641-1.2109-0.88672-0.76953-1.4102 0.21484-1.4102 0.14062-1.293-0.59375-0.91016-0.89844-1.707-0.83984-1.6016-0.72266-1.4453-0.42969-1.5039 0.10938-1.3125-0.074218-1.0312-0.10547-1.2695-0.011719-1.457-0.011719-1.125 0.37891-1.9648 0.89062-2.4297 0.92188-1.8125 1.0312-1.8477 1.0898-0.90234 0.83984-1.0195 0.72266-1.1367 0.69922-1.293 0.5-2.793 0.76953-1.5195 0.25-1.1719-0.074218-1.4336 0.10938-1.6445 1.0781-1.1406 0.34375-2.2617-0.074219-1.2305 0.23828-0.91406 0.41406-0.76953 0.67578-0.94922 0.91406-1.5742 0.60156-1.125 0.046875-1.8477-1.125-1.4219-0.37891-1.2227 0.13281-2.0234 0.78125-1.4219 0.10547-1.7305 0.53516-1.2539 0.10547-1.3047-0.62891-2.7852-0.41406h-1.5039l-0.86328 0.60547-2.4766 0.66406-1.5664 0.64844-0.81641 0.92578-0.48438 1.2305-1.2344 0.69922-2.0977 0.57031-1.2656 0.59375-1.5508 0.93359-0.96094 0.99609-1.4453 0.56641-1.2188 0.75-1.7305 1.3828-0.89062 1.5938-0.58984 1.9727-1.0078 0.54688-1.4805-0.28516-1.0664 0.47266-0.57812 1.2422-0.51953 0.90625-1.1094 1.3984-1.6289 1.6797-1.2773 1.3125-1.9961 1.3359-1.0625 0.86328-1.0078 0.87891-1.125 1.457-0.33594 3.1094-0.10156 1.0586-1.168 2.4766-0.69141 1.0234-0.86328 1.2812-0.72656 1.0781-1.7227 2.5586-0.86328 1.6719-0.10547 1.7188-0.3125 1.8008-1.7734 1.9883-1.1953 0.79297-1.043 0.69531-1.9727 1.9844-1.0273 1.5742-0.69141 1.0703-0.75 0.76953-1.0508 1.0742-4.2461 0.62891-2.0039 0.71094-1 0.4375-0.70703 0.74219-0.73047 0.76953-0.84375 1.043-1.0625 1.3164-0.72266 1.2578-1.0781 1.1562-2.0977 1.1289-2.6797 1.3125-1.8906-0.78516-1.2383-0.63281-1.5703-1.2578-1.3203-1.5312-1.0781-1.2227-0.69922-1.1484-0.74219-1.2148-0.68359-1.1211-0.39453-1.4727-0.33984-1.5938-0.46875-1.125-0.89062-1.5195-0.75781-1.043-0.78906-1.2812 0.003907-1.832-0.78125-2.7227-2.3203-4.2344-0.54688-1.0039-1.9766-1.6797-1.8906-1.8438-2.2852-2.7617-2.8047-2.1016-2.1992-1.6484-2.7656-2.4766-1.4961-0.81641-1.543-0.40625-1.7031 0.011718-2.0586 1.0898-1.0039 0.36328-2.957 0.57422-1.5352-0.25-2.4609-0.75-1.6094-0.65234-1.4336-0.82422-1.7734-1.3477-1.1133-1.0664-2.25-1.668-2.4219-1.3438-0.82812-1.7891-1.2383-1.5859-1.4766-1.4492-2.5742-1.2461-2.6094-1.5234-3.7891-2.8711-2.9258-3.707-0.86719-1.5-1.1211-1.1875-1.2305-1.2969-1.418-2.7383-0.20312-3.1797-1.3125-6.4023-0.41016-2.8906-0.44141-3.0781-0.13281-1.6875 0.39844-1.8438 0.64844-1 0.79297-1.7188 0.96484-1.2852 0.83594-2.082 0.27344-1.0781-0.57031-1.1914 1.1641-3.0547 0.26953-1.2461-0.21484-1.2422-0.78516-1.2812-0.26953-1.8555-0.26953-1.8672-0.625-1.0547-0.82031-0.65625-0.39453-1.0195-0.46094-1.7578 0.67578-1.1016 1.0547-3.2812 1.0547-3.2695 0.37891-1.8672 0.73047-1.7578v-1.0547l-0.21484-1.2695-0.46094-2.7031v-2.1641l0.29297-1.0469 0.54688-0.95312 0.57812-1.0195 0.58203-1.3906 0.60156-1.4297 0.99609-0.89453 1.2695-0.67578 1.0547-0.875 0.33984-1.7031 0.25-1.2109 0.80859-0.94531 0.92578-1.0508 0.49609-1.1406 0.46875-1.5625-0.52344-1.5781 0.46875-1.2734 0.81641-0.60938 0.91406-1.0273 1.0391-2.1328 0.30469-1.7148 0.55469-1.9258 1-1.8984 0.89453-1.0078 1.3047-1.4688 1.1211-1.2578 0.91406-0.70703 1.4648-1.0391 1.0547-0.85938 1.5352-1.3984 0.98438-1.0508 1.0664-1.3711 1.168-1.9062 0.75391-0.96094 0.66406-0.84375 1.0273-0.88672 1.6172-1.1484 1.2344-1.1875 1.332-0.55078 1.7812-0.46094 1.7891 0.16406 1.0195 0.46094 1.1133 0.76953 2.1914 1.4844 0.67578 0.80469 0.41406 1.5625 0.67578 0.91406 1.3047 0.37891 1.2305-0.40234 1.1133-0.74609 1.7422-1.375 1.0078-0.48828 1.6094-0.16406 1.0898-0.54688 1.2461-0.95703 1.0312-0.65234 0.94531-0.37891 1.6016-1.125 0.61328-0.98438 0.37891-0.9375 0.64062-1.0039 1.1016-0.92578 2.75 0.058594 1.6836-0.60547 1.4922-0.12891 1.6211-0.55469 0.90234-0.80859 0.82812-1.4219 0.92578-1.043 0.32031-2.2852 0.60156-1.6445 0.69922-1.8867 0.75781-1.6797 0.87891-1.1289 1.2188-1.2188 0.65234-1.1953 0.875-1.1875 0.85547-0.96875 0.73438-1.2695 0.91016-1.1953 0.45312-1.1484 2.0703-1.957 0.80859-0.98047 0.76562-0.74219 1.0469-1.2812 1.3047-1.1445 1.418-0.88281 1.4297-0.58984 1.2344-0.36328 1.7383-0.51172 2.1992-1.7617 1.0977-1.5664 1.0547-0.67188 1.8867-0.64453 0.72266-1.2734 0.94531-1.0078 0.97266-0.39062 1.6992-0.60156 1.7852 0.039063 1.1016-0.17188 1.2305-0.71094 0.73438-0.74609 0.53516-0.89062 2.5469-2.5938 0.90234-0.65625 0.83984-0.59766 1.7422-0.80859 1.75-1.1602 0.75-0.94922 1.3711-0.66016 0.97266-1.2812 0.023437-1.7539 0.27344-1.0781 0.82812-0.97266 1.5664-0.74609 1.3359-0.14062 1.5781 0.34375 1.3242 0.60547 1.2695 0.24609 1.6211 0.097657h1.0547l3.1406-1.2344 0.94922-0.62891 1.6719-1.3008 1.3945-1.1406 1.1484-0.57812 2.5703-1.4648 1.625-1.1016 1.0195-0.59766 1.0312-0.92188 1.6797-0.80859 1.2109-0.78125 1.1953-1.1953 1.7305-0.81641 2.5117-1.1992 2.1445-1.3867 1.0469-1.5898 1.5703-2.2109 1.0898-1.1602 0.92578-0.83203 1.5859-1.1133 0.99609-0.57812 0.92578-1.0195 0.84375-0.19141" fill="none" stroke="#fff" stroke-linecap="round" stroke-linejoin="round" stroke-miterlimit="10" stroke-width="2"/>
<path d="m381.47 164.71 0.63281 0.53125 2.8281 0.32031 3.3516 0.17578 2.0508 0.0625 2.6602 0.023437 1.5859-0.11328 1.6328-0.019531 2.2344 0.13281 1.1172-0.046875 1.207-0.066406 1.5352 0.15625 2.6211 1.2578 1.5586 0.53516 1.0977 0.125 1.7578 0.48438 1.2891 0.87891 1.3047 1.3203 0.625 1.8125 0.19141 1.2891 0.15625 1.0859 0.89453 1.9297 0.62891 1.3047 0.125 1.1211-0.61328 1.4141-1.2539 1.2852-0.59766 0.89844 0.0625 2.5117-0.48828 1.6953-0.62891 1.3828-0.32812 1.1602 0.1875 1.6641 0.37891 1.5703 0.4375 1.1172 1.0664 1.2109 0.97656 0.89453 0.95703 0.87891 0.21875 1.9141-0.03125 1.6094 0.37891 1.1953 0.75391 0.80078 0.95703 0.5625 1.4297 1.0039 0.81641 0.83594 0.72266 1.5195 0.375 1.2109 0.34766 1.5547 0.53125 0.92578 0.92969 0.75781 0.3125 1.1953-0.36328 1.457-0.42188 1.3281-0.20312 1.2109 0.42188 2.1172 0.50391 1.3047 0.70703 1.5234 0.45703 0.96094 0.59375 1.6016-0.58203 1.2656-0.81641 0.92578-0.21875 1.2227 0.34766 1.793 0.59375 1.1602 0.61328 0.99219 0.97266 1.0977 1.6641 0.86328 1.1172 0.47266 0.75391 0.75391 0.40625 1.3633-0.20312 1.5977-0.10938 1.1445-0.55078 1.9766-0.59766 1.5859-0.375 1.543-0.015625 1.082 0.15625 1.2852 0.30859 1.168-0.80469 0.74219-1.8594 0.28516-1.6484 0.20312-1.9805 0.40234-1.4453-0.28516-1.5273 0.16406-1.6562-0.41406-1.457 0.12109-1.3047 0.56641-1.6484 0.53516-1.0039 0.10547-2.0391-0.71094-1.2344-1.0664-1.0391-1.1953-1.4961-0.9375-1.4219-1.1133-0.72266-0.74609-1.1367-1.1953-1.0898-0.46484-2.9727-3.2695-1.207-1.2773-1.2344-1.1641-1.5508-0.625-1.2461-0.046875-1.1953 0.023437-2.4766-0.41406-1.2656 0.35156-3.1055 3.2734-1.3398 1.0547-1.7305 1.6797-0.82812 0.60547-0.91016 0.54297-1.3281 0.64062-1.9062 0.61719-1.4453 0.88672-1.1133 0.34375-1.293 0.62891-1.2695 1.4336-1.0391 0.72266-2.0625 1.0312-1.6133 1.3633-0.78125 0.75781-0.73438 0.89844-1.0547 0.71094-1.4219 0.22656-0.875 0.60547-0.64062 1.3008-0.40234 1.2812-1.0312 1.7305-1.6133 1.5039-1.1953 1.3633-0.71094 1.2188-0.60156 0.97266-0.98438 0.83984-1.3047 0.48438-1.8359-0.046875-0.9375 0.41406-2.0703 1.9688-1.7539 1.0312-2.0273 0.92188-2.2266 0.57031-1.3984 0.6875-0.92578-0.6875-1.5273-0.41406-1.2656 0.011718-0.96094-0.6875-2.0039-0.52344-1.3125-0.070313-1.1016 0.011719-1.6953 0.47656-1.1484 0.68359-2.4062 1.0938-1.4102 0.98047-1.1602 1.3867-0.96094 1.3281-0.95703 1.7773-1.0195 0.92188-0.98047 0.39062-1.6758 0.45312-1.207 0.46094-1.0195 0.64062-0.76953 0.72266-1.1719 0.22266-4.457-0.082032-2.3086 0.81641-1.1367 1.457-1.0547 0.86719-0.91406 0.54297-1.8125 0.80859-1.8477 1.2656-2.1211 1.2461-0.99219 0.49609-1.2812 0.74609-1.1016 0.75781-1.1484 0.9375-1.3398 0.6875-5.1055 0.80469-1.3516 0.44922-1.2656 1.4805-0.44141 1.6016-0.75781 1.2656-0.44922 1.2109-1.0195 0.75781-1.0664 0.30859-0.61719 1.1133-1.1953 0.66406-1.4805 0.1875-1.2812 0.66406-1.5508 1.1953-0.96094 0.55859-1.0039 0.30859-1.2812 0.1875-1.0312 0.87891-0.93359 1.0039-1.0312 0.86719-1.1484 0.48438-2.6914 0.31641-1.1836 0.25391-1.1484 0.53125-2.9883 2.4531-1.8125 1.4336-2.8086 1.4102-2.8711 2.9727-1.4297-0.64453-1.5039-1.0117-1.4844-0.47656-0.11719-1.3477 0.69531-1.7266-0.21875-3.168 0.050781-1.582 1.4023-0.625 0.80078-1.0781 0.25-1.1016 0.37109-1.0664-0.25-1.1875-1.1055-1.7422-0.59375-0.92969-0.34766-1.1719 0.046875-2.0938-0.45312-1.1641-0.75-1.7188-1.8086-2.4492-0.93359-1.2539-0.71875-0.73828-1.0977-1.1211-1.2266 0.125-1.582 0.85156-2.0547 0.75-1.375-0.25-2.082 1.0781-1.3789 0.42578-2.5039 0.97656-0.92578 1.3281-1.2539 1.0781-2.457 1.7539-0.94141 0.78125-0.35938 1.0977-1.0781 0.59766-4.0234-0.79688-2.832-0.75-1.2734-0.33984-2.3906-1.5508-3.0078-5.5352-1.582-2.5117-0.72266-1.3633-0.73828-1.1445-0.72266-2.1016 0.35938-1.4688 1.8789-1.9727 0.96875-3.8867-1.8242-2.7383-0.66406-0.99609-1.2422-3.9297v-1.7031l-1.9648-2.6172-1.5898-1.1016-2.1758-0.99609 2.6133-1.3438 2.0977-1.1289 1.0781-1.1562 0.72266-1.2578 1.0625-1.3164 0.84375-1.043 0.73047-0.76953 0.70703-0.74219 1-0.4375 1.0781-0.47266 4.2109-0.72266 2.0117-1.2188 0.75-0.76953 0.69141-1.0703 1.0273-1.5742 1.9727-1.9844 1.043-0.69531 1.1953-0.79297 1.7734-1.9883 0.26172-1.0234 0.15625-2.4961 0.86328-1.6719 1.7227-2.5586 0.72656-1.0781 0.86328-1.2812 0.69141-1.0234 1.168-2.4766 0.10156-1.0586-0.085937-2.3047 1.5469-2.2617 1.0078-0.87891 0.76953-0.66797 1.6172-1.082 1.9492-1.7617 1.6289-1.6797 1.1094-1.3945 0.51953-0.91016 0.57812-1.2422 1.0664-0.47266 1.4805 0.28516 1.0078-0.54688 0.35547-1.4102 0.67188-1.6094 2.1836-1.9297 1.2188-0.75 1.4453-0.56641 0.96094-0.99609 1.5508-0.93359 1.2656-0.59375 2.0977-0.57031 0.96094-0.46094 0.75781-1.4688 0.81641-0.92578 1.125-0.50781 2.0625-0.37891 1.5664-0.96094 1.6562-0.070313 2.7852 0.41406 1.3047 0.62891 1.2539-0.10547 1.7305-0.53516 1.4219-0.10547 1.5039-0.51172 1.7422-0.40234 1.418 0.37891 1.082 0.75781 1.3633 0.41797 1.2891-0.30859 1.3047-0.75781 1.2305-1.2227 0.91406-0.41406 1.2305-0.23828 1.3633-0.070313 1.3398 0.10938 1.6797-1.1641 1.3633-0.33203 1.9062 0.074218 1.5195-0.25 2.0117-0.62891 1.4453-0.34375 1.2344-0.66406 1.5508-1.0547 0.90234-0.83984 1.8477-1.0898 1.0312-0.69922 3.2109-1.2539 1.9648-0.89062 1.125-0.37891 1.457 0.011719 1.2695 0.011719 1.0312 0.10547 1.3125 0.074218 1.5039-0.10938 1.4453 0.42969 1.6016 0.72266 1.707 0.83984 0.91016 0.89844 0.91406 0.51172 1.7891-0.058594 1.4102-0.21484 0.88672 0.76953 0.81641 1.2109 0.87891 0.54297 1.2656 0.33203 0.87891 0.50781 2.168 1.1641 1.3633 0.36719 1.6094 0.32031 2.5586 0.25781 1.8828-0.41406 2.0156-0.011718 1.3867-0.29688 2.0977-0.86328 1.2539-0.64062 1.1992-0.47266 1.5625-1.3398 0.97266-1.4805 1.3125-1.7773 0.78125-0.98438 1.1406-0.94531 1.7773-0.53516 0.93359-0.42578 1.5273-1.043 1.1875-0.75781 0.98047-1.1602 1.8125-1.6836 0.92578-0.71094 3.1641-0.99609 1.4102-0.41406 1.1016-0.40234 1.2422-0.60547 1.0195-0.72266 1.1016-1.7656 0.54688-1.3125 0.51953-1.5547 0.48438-1.4102 0.41797-1.6797-0.085937-1.1328z" fill="#ccc" fill-rule="evenodd"/>
<path d="m381.47 164.71 0.63281 0.53125 2.8281 0.32031 3.3516 0.17578 2.0508 0.0625 2.6602 0.023437 1.5859-0.11328 1.6328-0.019531 2.2344 0.13281 1.1172-0.046875 1.207-0.066406 1.5352 0.15625 2.6211 1.2578 1.5586 0.53516 1.0977 0.125 1.7578 0.48438 1.2891 0.87891 1.3047 1.3203 0.625 1.8125 0.19141 1.2891 0.15625 1.0859 0.89453 1.9297 0.62891 1.3047 0.125 1.1211-0.61328 1.4141-1.2539 1.2852-0.59766 0.89844 0.0625 2.5117-0.48828 1.6953-0.62891 1.3828-0.32812 1.1602 0.1875 1.6641 0.37891 1.5703 0.4375 1.1172 1.0664 1.2109 0.97656 0.89453 0.95703 0.87891 0.21875 1.9141-0.03125 1.6094 0.37891 1.1953 0.75391 0.80078 0.95703 0.5625 1.4297 1.0039 0.81641 0.83594 0.72266 1.5195 0.375 1.2109 0.34766 1.5547 0.53125 0.92578 0.92969 0.75781 0.3125 1.1953-0.36328 1.457-0.42188 1.3281-0.20312 1.2109 0.42188 2.1172 0.50391 1.3047 0.70703 1.5234 0.45703 0.96094 0.59375 1.6016-0.58203 1.2656-0.81641 0.92578-0.21875 1.2227 0.34766 1.793 0.59375 1.1602 0.61328 0.99219 0.97266 1.0977 1.6641 0.86328 1.1172 0.47266 0.75391 0.75391 0.40625 1.3633-0.20312 1.5977-0.10938 1.1445-0.55078 1.9766-0.59766 1.5859-0.375 1.543-0.015625 1.082 0.15625 1.2852 0.30859 1.168-0.80469 0.74219-1.8594 0.28516-1.6484 0.20312-1.9805 0.40234-1.4453-0.28516-1.5273 0.16406-1.6562-0.41406-1.457 0.12109-1.3047 0.56641-1.6484 0.53516-1.0039 0.10547-2.0391-0.71094-1.2344-1.0664-1.0391-1.1953-1.4961-0.9375-1.4219-1.1133-0.72266-0.74609-1.1367-1.1953-1.0898-0.46484-2.9727-3.2695-1.207-1.2773-1.2344-1.1641-1.5508-0.625-1.2461-0.046875-1.1953 0.023437-2.4766-0.41406-1.2656 0.35156-3.1055 3.2734-1.3398 1.0547-1.7305 1.6797-0.82812 0.60547-0.91016 0.54297-1.3281 0.64062-1.9062 0.61719-1.4453 0.88672-1.1133 0.34375-1.293 0.62891-1.2695 1.4336-1.0391 0.72266-2.0625 1.0312-1.6133 1.3633-0.78125 0.75781-0.73438 0.89844-1.0547 0.71094-1.4219 0.22656-0.875 0.60547-0.64062 1.3008-0.40234 1.2812-1.0312 1.7305-1.6133 1.5039-1.1953 1.3633-0.71094 1.2188-0.60156 0.97266-0.98438 0.83984-1.3047 0.48438-1.8359-0.046875-0.9375 0.41406-2.0703 1.9688-1.7539 1.0312-2.0273 0.92188-2.2266 0.57031-1.3984 0.6875-0.92578-0.6875-1.5273-0.41406-1.2656 0.011718-0.96094-0.6875-2.0039-0.52344-1.3125-0.070313-1.1016 0.011719-1.6953 0.47656-1.1484 0.68359-2.4062 1.0938-1.4102 0.98047-1.1602 1.3867-0.96094 1.3281-0.95703 1.7773-1.0195 0.92188-0.98047 0.39062-1.6758 0.45312-1.207 0.46094-1.0195 0.64062-0.76953 0.72266-1.1719 0.22266-4.457-0.082032-2.3086 0.81641-1.1367 1.457-1.0547 0.86719-0.91406 0.54297-1.8125 0.80859-1.8477 1.2656-2.1211 1.2461-0.99219 0.49609-1.2812 0.74609-1.1016 0.75781-1.1484 0.9375-1.3398 0.6875-5.1055 0.80469-1.3516 0.44922-1.2656 1.4805-0.44141 1.6016-0.75781 1.2656-0.44922 1.2109-1.0195 0.75781-1.0664 0.30859-0.61719 1.1133-1.1953 0.66406-1.4805 0.1875-1.2812 0.66406-1.5508 1.1953-0.96094 0.55859-1.0039 0.30859-1.2812 0.1875-1.0312 0.87891-0.93359 1.0039-1.0312 0.86719-1.1484 0.48438-2.6914 0.31641-1.1836 0.25391-1.1484 0.53125-2.9883 2.4531-1.8125 1.4336-2.8086 1.4102-2.8711 2.9727-1.4297-0.64453-1.5039-1.0117-1.4844-0.47656-0.11719-1.3477 0.69531-1.7266-0.21875-3.168 0.050781-1.582 1.4023-0.625 0.80078-1.0781 0.25-1.1016 0.37109-1.0664-0.25-1.1875-1.1055-1.7422-0.59375-0.92969-0.34766-1.1719 0.046875-2.0938-0.45312-1.1641-0.75-1.7188-1.8086-2.4492-0.93359-1.2539-0.71875-0.73828-1.0977-1.1211-1.2266 0.125-1.582 0.85156-2.0547 0.75-1.375-0.25-2.082 1.0781-1.3789 0.42578-2.5039 0.97656-0.92578 1.3281-1.2539 1.0781-2.457 1.7539-0.94141 0.78125-0.35938 1.0977-1.0781 0.59766-4.0234-0.79688-2.832-0.75-1.2734-0.33984-2.3906-1.5508-3.0078-5.5352-1.582-2.5117-0.72266-1.3633-0.73828-1.1445-0.72266-2.1016 0.35938-1.4688 1.8789-1.9727 0.96875-3.8867-1.8242-2.7383-0.66406-0.99609-1.2422-3.9297v-1.7031l-1.9648-2.6172-1.5898-1.1016-2.1758-0.99609 2.6133-1.3438 2.0977-1.1289 1.0781-1.1562 0.72266-1.2578 1.0625-1.3164 0.84375-1.043 0.73047-0.76953 0.70703-0.74219 1-0.4375 1.0781-0.47266 4.2109-0.72266 2.0117-1.2188 0.75-0.76953 0.69141-1.0703 1.0273-1.5742 1.9727-1.9844 1.043-0.69531 1.1953-0.79297 1.7734-1.9883 0.26172-1.0234 0.15625-2.4961 0.86328-1.6719 1.7227-2.5586 0.72656-1.0781 0.86328-1.2812 0.69141-1.0234 1.168-2.4766 0.10156-1.0586-0.085937-2.3047 1.5469-2.2617 1.0078-0.87891 0.76953-0.66797 1.6172-1.082 1.9492-1.7617 1.6289-1.6797 1.1094-1.3945 0.51953-0.91016 0.57812-1.2422 1.0664-0.47266 1.4805 0.28516 1.0078-0.54688 0.35547-1.4102 0.67188-1.6094 2.1836-1.9297 1.2188-0.75 1.4453-0.56641 0.96094-0.99609 1.5508-0.93359 1.2656-0.59375 2.0977-0.57031 0.96094-0.46094 0.75781-1.4688 0.81641-0.92578 1.125-0.50781 2.0625-0.37891 1.5664-0.96094 1.6562-0.070313 2.7852 0.41406 1.3047 0.62891 1.2539-0.10547 1.7305-0.53516 1.4219-0.10547 1.5039-0.51172 1.7422-0.40234 1.418 0.37891 1.082 0.75781 1.3633 0.41797 1.2891-0.30859 1.3047-0.75781 1.2305-1.2227 0.91406-0.41406 1.2305-0.23828 1.3633-0.070313 1.3398 0.10938 1.6797-1.1641 1.3633-0.33203 1.9062 0.074218 1.5195-0.25 2.0117-0.62891 1.4453-0.34375 1.2344-0.66406 1.5508-1.0547 0.90234-0.83984 1.8477-1.0898 1.0312-0.69922 3.2109-1.2539 1.9648-0.89062 1.125-0.37891 1.457 0.011719 1.2695 0.011719 1.0312 0.10547 1.3125 0.074218 1.5039-0.10938 1.4453 0.42969 1.6016 0.72266 1.707 0.83984 0.91016 0.89844 0.91406 0.51172 1.7891-0.058594 1.4102-0.21484 0.88672 0.76953 0.81641 1.2109 0.87891 0.54297 1.2656 0.33203 0.87891 0.50781 2.168 1.1641 1.3633 0.36719 1.6094 0.32031 2.5586 0.25781 1.8828-0.41406 2.0156-0.011718 1.3867-0.29688 2.0977-0.86328 1.2539-0.64062 1.1992-0.47266 1.5625-1.3398 0.97266-1.4805 1.3125-1.7773 0.78125-0.98438 1.1406-0.94531 1.7773-0.53516 0.93359-0.42578 1.5273-1.043 1.1875-0.75781 0.98047-1.1602 1.8125-1.6836 0.92578-0.71094 3.1641-0.99609 1.4102-0.41406 1.1016-0.40234 1.2422-0.60547 1.0195-0.72266 1.1016-1.7656 0.54688-1.3125 0.51953-1.5547 0.48438-1.4102 0.41797-1.6797-0.085937-1.1328 1.1641 1.0391" fill="none" stroke="#fff" stroke-linecap="round" stroke-linejoin="round" stroke-miterlimit="10" stroke-width="2"/>
<path d="m381.47 164.71 0.63281 0.53125 2.8281 0.32031 3.3516 0.17578 2.0508 0.0625 2.6602 0.023437 1.5859-0.11328 1.6328-0.019531 2.2344 0.13281 1.1172-0.046875 1.207-0.066406 1.5352 0.15625 2.6211 1.2578 1.5586 0.53516 1.0977 0.125 1.7578 0.48438 1.2891 0.87891 1.3047 1.3203 0.625 1.8125 0.19141 1.2891 0.15625 1.0859 0.89453 1.9297 0.62891 1.3047 0.125 1.1211-0.61328 1.4141-1.2539 1.2852-0.59766 0.89844 0.0625 2.5117-0.48828 1.6953-0.62891 1.3828-0.32812 1.1602 0.1875 1.6641 0.37891 1.5703 0.4375 1.1172 1.0664 1.2109 0.97656 0.89453 0.95703 0.87891 0.21875 1.9141-0.03125 1.6094 0.37891 1.1953 0.75391 0.80078 0.95703 0.5625 1.4297 1.0039 0.81641 0.83594 0.72266 1.5195 0.375 1.2109 0.34766 1.5547 0.53125 0.92578 0.92969 0.75781 0.3125 1.1953-0.36328 1.457-0.42188 1.3281-0.20312 1.2109 0.42188 2.1172 0.50391 1.3047 0.70703 1.5234 0.45703 0.96094 0.59375 1.6016-0.58203 1.2656-0.81641 0.92578-0.21875 1.2227 0.34766 1.793 0.59375 1.1602 0.61328 0.99219 0.97266 1.0977 1.6641 0.86328 1.1172 0.47266 0.75391 0.75391 0.40625 1.3633-0.20312 1.5977-0.10938 1.1445-0.55078 1.9766-0.59766 1.5859-0.375 1.543-0.015625 1.082 0.15625 1.2852 0.30859 1.168-0.80469 0.74219-1.8594 0.28516-1.6484 0.20312-1.9805 0.40234-1.4453-0.28516-1.5273 0.16406-1.6562-0.41406-1.457 0.12109-1.3047 0.56641-1.6484 0.53516-1.0039 0.10547-2.0391-0.71094-1.2344-1.0664-1.0391-1.1953-1.4961-0.9375-1.4219-1.1133-0.72266-0.74609-1.1367-1.1953-1.0898-0.46484-2.9727-3.2695-1.207-1.2773-1.2344-1.1641-1.5508-0.625-1.2461-0.046875-1.1953 0.023437-2.4766-0.41406-1.2656 0.35156-3.1055 3.2734-1.3398 1.0547-1.7305 1.6797-0.82812 0.60547-0.91016 0.54297-1.3281 0.64062-1.9062 0.61719-1.4453 0.88672-1.1133 0.34375-1.293 0.62891-1.2695 1.4336-1.0391 0.72266-2.0625 1.0312-1.6133 1.3633-0.78125 0.75781-0.73438 0.89844-1.0547 0.71094-1.4219 0.22656-0.875 0.60547-0.64062 1.3008-0.40234 1.2812-1.0312 1.7305-1.6133 1.5039-1.1953 1.3633-0.71094 1.2188-0.60156 0.97266-0.98438 0.83984-1.3047 0.48438-1.8359-0.046875-0.9375 0.41406-2.0703 1.9688-1.7539 1.0312-2.0273 0.92188-2.2266 0.57031-1.3984 0.6875-0.92578-0.6875-1.5273-0.41406-1.2656 0.011718-0.96094-0.6875-2.0039-0.52344-1.3125-0.070313-1.1016 0.011719-1.6953 0.47656-1.1484 0.68359-2.4062 1.0938-1.4102 0.98047-1.1602 1.3867-0.96094 1.3281-0.95703 1.7773-1.0195 0.92188-0.98047 0.39062-1.6758 0.45312-1.207 0.46094-1.0195 0.64062-0.76953 0.72266-1.1719 0.22266-4.457-0.082032-2.3086 0.81641-1.1367 1.457-1.0547 0.86719-0.91406 0.54297-1.8125 0.80859-1.8477 1.2656-2.1211 1.2461-0.99219 0.49609-1.2812 0.74609-1.1016 0.75781-1.1484 0.9375-1.3398 0.6875-5.1055 0.80469-1.3516 0.44922-1.2656 1.4805-0.44141 1.6016-0.75781 1.2656-0.44922 1.2109-1.0195 0.75781-1.0664 0.30859-0.61719 1.1133-1.1953 0.66406-1.4805 0.1875-1.2812 0.66406-1.5508 1.1953-0.96094 0.55859-1.0039 0.30859-1.2812 0.1875-1.0312 0.87891-0.93359 1.0039-1.0312 0.86719-1.1484 0.48438-2.6914 0.31641-1.1836 0.25391-1.1484 0.53125-2.9883 2.4531-1.8125 1.4336-2.8086 1.4102-2.8711 2.9727-1.4297-0.64453-1.5039-1.0117-1.4844-0.47656-0.11719-1.3477 0.69531-1.7266-0.21875-3.168 0.050781-1.582 1.4023-0.625 0.80078-1.0781 0.25-1.1016 0.37109-1.0664-0.25-1.1875-1.1055-1.7422-0.59375-0.92969-0.34766-1.1719 0.046875-2.0938-0.45312-1.1641-0.75-1.7188-1.8086-2.4492-0.93359-1.2539-0.71875-0.73828-1.0977-1.1211-1.2266 0.125-1.582 0.85156-2.0547 0.75-1.375-0.25-2.082 1.0781-1.3789 0.42578-2.5039 0.97656-0.92578 1.3281-1.2539 1.0781-2.457 1.7539-0.94141 0.78125-0.35938 1.0977-1.0781 0.59766-4.0234-0.79688-2.832-0.75-1.2734-0.33984-2.3906-1.5508-3.0078-5.5352-1.582-2.5117-0.72266-1.3633-0.73828-1.1445-0.72266-2.1016 0.35938-1.4688 1.8789-1.9727 0.96875-3.8867-1.8242-2.7383-0.66406-0.99609-1.2422-3.9297v-1.7031l-1.9648-2.6172-1.5898-1.1016-2.1758-0.99609 2.6133-1.3438 2.0977-1.1289 1.0781-1.1562 0.72266-1.2578 1.0625-1.3164 0.84375-1.043 0.73047-0.76953 0.70703-0.74219 1-0.4375 1.0781-0.47266 4.2109-0.72266 2.0117-1.2188 0.75-0.76953 0.69141-1.0703 1.0273-1.5742 1.9727-1.9844 1.043-0.69531 1.1953-0.79297 1.7734-1.9883 0.26172-1.0234 0.15625-2.4961 0.86328-1.6719 1.7227-2.5586 0.72656-1.0781 0.86328-1.2812 0.69141-1.0234 1.168-2.4766 0.10156-1.0586-0.085937-2.3047 1.5469-2.2617 1.0078-0.87891 0.76953-0.66797 1.6172-1.082 1.9492-1.7617 1.6289-1.6797 1.1094-1.3945 0.51953-0.91016 0.57812-1.2422 1.0664-0.47266 1.4805 0.28516 1.0078-0.54688 0.35547-1.4102 0.67188-1.6094 2.1836-1.9297 1.2188-0.75 1.4453-0.56641 0.96094-0.99609 1.5508-0.93359 1.2656-0.59375 2.0977-0.57031 0.96094-0.46094 0.75781-1.4688 0.81641-0.92578 1.125-0.50781 2.0625-0.37891 1.5664-0.96094 1.6562-0.070313 2.7852 0.41406 1.3047 0.62891 1.2539-0.10547 1.7305-0.53516 1.4219-0.10547 1.5039-0.51172 1.7422-0.40234 1.418 0.37891 1.082 0.75781 1.3633 0.41797 1.2891-0.30859 1.3047-0.75781 1.2305-1.2227 0.91406-0.41406 1.2305-0.23828 1.3633-0.070313 1.3398 0.10938 1.6797-1.1641 1.3633-0.33203 1.9062 0.074218 1.5195-0.25 2.0117-0.62891 1.4453-0.34375 1.2344-0.66406 1.5508-1.0547 0.90234-0.83984 1.8477-1.0898 1.0312-0.69922 3.2109-1.2539 1.9648-0.89062 1.125-0.37891 1.457 0.011719 1.2695 0.011719 1.0312 0.10547 1.3125 0.074218 1.5039-0.10938 1.4453 0.42969 1.6016 0.72266 1.707 0.83984 0.91016 0.89844 0.91406 0.51172 1.7891-0.058594 1.4102-0.21484 0.88672 0.76953 0.81641 1.2109 0.87891 0.54297 1.2656 0.33203 0.87891 0.50781 2.168 1.1641 1.3633 0.36719 1.6094 0.32031 2.5586 0.25781 1.8828-0.41406 2.0156-0.011718 1.3867-0.29688 2.0977-0.86328 1.2539-0.64062 1.1992-0.47266 1.5625-1.3398 0.97266-1.4805 1.3125-1.7773 0.78125-0.98438 1.1406-0.94531 1.7773-0.53516 0.93359-0.42578 1.5273-1.043 1.1875-0.75781 0.98047-1.1602 1.8125-1.6836 0.92578-0.71094 3.1641-0.99609 1.4102-0.41406 1.1016-0.40234 1.2422-0.60547 1.0195-0.72266 1.1016-1.7656 0.54688-1.3125 0.51953-1.5547 0.48438-1.4102 0.41797-1.6797-0.085937-1.1328z" fill="#0a5394" fill-rule="evenodd"/>
<path d="m381.47 164.71 0.63281 0.53125 2.8281 0.32031 3.3516 0.17578 2.0508 0.0625 2.6602 0.023437 1.5859-0.11328 1.6328-0.019531 2.2344 0.13281 1.1172-0.046875 1.207-0.066406 1.5352 0.15625 2.6211 1.2578 1.5586 0.53516 1.0977 0.125 1.7578 0.48438 1.2891 0.87891 1.3047 1.3203 0.625 1.8125 0.19141 1.2891 0.15625 1.0859 0.89453 1.9297 0.62891 1.3047 0.125 1.1211-0.61328 1.4141-1.2539 1.2852-0.59766 0.89844 0.0625 2.5117-0.48828 1.6953-0.62891 1.3828-0.32812 1.1602 0.1875 1.6641 0.37891 1.5703 0.4375 1.1172 1.0664 1.2109 0.97656 0.89453 0.95703 0.87891 0.21875 1.9141-0.03125 1.6094 0.37891 1.1953 0.75391 0.80078 0.95703 0.5625 1.4297 1.0039 0.81641 0.83594 0.72266 1.5195 0.375 1.2109 0.34766 1.5547 0.53125 0.92578 0.92969 0.75781 0.3125 1.1953-0.36328 1.457-0.42188 1.3281-0.20312 1.2109 0.42188 2.1172 0.50391 1.3047 0.70703 1.5234 0.45703 0.96094 0.59375 1.6016-0.58203 1.2656-0.81641 0.92578-0.21875 1.2227 0.34766 1.793 0.59375 1.1602 0.61328 0.99219 0.97266 1.0977 1.6641 0.86328 1.1172 0.47266 0.75391 0.75391 0.40625 1.3633-0.20312 1.5977-0.10938 1.1445-0.55078 1.9766-0.59766 1.5859-0.375 1.543-0.015625 1.082 0.15625 1.2852 0.30859 1.168-0.80469 0.74219-1.8594 0.28516-1.6484 0.20312-1.9805 0.40234-1.4453-0.28516-1.5273 0.16406-1.6562-0.41406-1.457 0.12109-1.3047 0.56641-1.6484 0.53516-1.0039 0.10547-2.0391-0.71094-1.2344-1.0664-1.0391-1.1953-1.4961-0.9375-1.4219-1.1133-0.72266-0.74609-1.1367-1.1953-1.0898-0.46484-2.9727-3.2695-1.207-1.2773-1.2344-1.1641-1.5508-0.625-1.2461-0.046875-1.1953 0.023437-2.4766-0.41406-1.2656 0.35156-3.1055 3.2734-1.3398 1.0547-1.7305 1.6797-0.82812 0.60547-0.91016 0.54297-1.3281 0.64062-1.9062 0.61719-1.4453 0.88672-1.1133 0.34375-1.293 0.62891-1.2695 1.4336-1.0391 0.72266-2.0625 1.0312-1.6133 1.3633-0.78125 0.75781-0.73438 0.89844-1.0547 0.71094-1.4219 0.22656-0.875 0.60547-0.64062 1.3008-0.40234 1.2812-1.0312 1.7305-1.6133 1.5039-1.1953 1.3633-0.71094 1.2188-0.60156 0.97266-0.98438 0.83984-1.3047 0.48438-1.8359-0.046875-0.9375 0.41406-2.0703 1.9688-1.7539 1.0312-2.0273 0.92188-2.2266 0.57031-1.3984 0.6875-0.92578-0.6875-1.5273-0.41406-1.2656 0.011718-0.96094-0.6875-2.0039-0.52344-1.3125-0.070313-1.1016 0.011719-1.6953 0.47656-1.1484 0.68359-2.4062 1.0938-1.4102 0.98047-1.1602 1.3867-0.96094 1.3281-0.95703 1.7773-1.0195 0.92188-0.98047 0.39062-1.6758 0.45312-1.207 0.46094-1.0195 0.64062-0.76953 0.72266-1.1719 0.22266-4.457-0.082032-2.3086 0.81641-1.1367 1.457-1.0547 0.86719-0.91406 0.54297-1.8125 0.80859-1.8477 1.2656-2.1211 1.2461-0.99219 0.49609-1.2812 0.74609-1.1016 0.75781-1.1484 0.9375-1.3398 0.6875-5.1055 0.80469-1.3516 0.44922-1.2656 1.4805-0.44141 1.6016-0.75781 1.2656-0.44922 1.2109-1.0195 0.75781-1.0664 0.30859-0.61719 1.1133-1.1953 0.66406-1.4805 0.1875-1.2812 0.66406-1.5508 1.1953-0.96094 0.55859-1.0039 0.30859-1.2812 0.1875-1.0312 0.87891-0.93359 1.0039-1.0312 0.86719-1.1484 0.48438-2.6914 0.31641-1.1836 0.25391-1.1484 0.53125-2.9883 2.4531-1.8125 1.4336-2.8086 1.4102-2.8711 2.9727-1.4297-0.64453-1.5039-1.0117-1.4844-0.47656-0.11719-1.3477 0.69531-1.7266-0.21875-3.168 0.050781-1.582 1.4023-0.625 0.80078-1.0781 0.25-1.1016 0.37109-1.0664-0.25-1.1875-1.1055-1.7422-0.59375-0.92969-0.34766-1.1719 0.046875-2.0938-0.45312-1.1641-0.75-1.7188-1.8086-2.4492-0.93359-1.2539-0.71875-0.73828-1.0977-1.1211-1.2266 0.125-1.582 0.85156-2.0547 0.75-1.375-0.25-2.082 1.0781-1.3789 0.42578-2.5039 0.97656-0.92578 1.3281-1.2539 1.0781-2.457 1.7539-0.94141 0.78125-0.35938 1.0977-1.0781 0.59766-4.0234-0.79688-2.832-0.75-1.2734-0.33984-2.3906-1.5508-3.0078-5.5352-1.582-2.5117-0.72266-1.3633-0.73828-1.1445-0.72266-2.1016 0.35938-1.4688 1.8789-1.9727 0.96875-3.8867-1.8242-2.7383-0.66406-0.99609-1.2422-3.9297v-1.7031l-1.9648-2.6172-1.5898-1.1016-2.1758-0.99609 2.6133-1.3438 2.0977-1.1289 1.0781-1.1562 0.72266-1.2578 1.0625-1.3164 0.84375-1.043 0.73047-0.76953 0.70703-0.74219 1-0.4375 1.0781-0.47266 4.2109-0.72266 2.0117-1.2188 0.75-0.76953 0.69141-1.0703 1.0273-1.5742 1.9727-1.9844 1.043-0.69531 1.1953-0.79297 1.7734-1.9883 0.26172-1.0234 0.15625-2.4961 0.86328-1.6719 1.7227-2.5586 0.72656-1.0781 0.86328-1.2812 0.69141-1.0234 1.168-2.4766 0.10156-1.0586-0.085937-2.3047 1.5469-2.2617 1.0078-0.87891 0.76953-0.66797 1.6172-1.082 1.9492-1.7617 1.6289-1.6797 1.1094-1.3945 0.51953-0.91016 0.57812-1.2422 1.0664-0.47266 1.4805 0.28516 1.0078-0.54688 0.35547-1.4102 0.67188-1.6094 2.1836-1.9297 1.2188-0.75 1.4453-0.56641 0.96094-0.99609 1.5508-0.93359 1.2656-0.59375 2.0977-0.57031 0.96094-0.46094 0.75781-1.4688 0.81641-0.92578 1.125-0.50781 2.0625-0.37891 1.5664-0.96094 1.6562-0.070313 2.7852 0.41406 1.3047 0.62891 1.2539-0.10547 1.7305-0.53516 1.4219-0.10547 1.5039-0.51172 1.7422-0.40234 1.418 0.37891 1.082 0.75781 1.3633 0.41797 1.2891-0.30859 1.3047-0.75781 1.2305-1.2227 0.91406-0.41406 1.2305-0.23828 1.3633-0.070313 1.3398 0.10938 1.6797-1.1641 1.3633-0.33203 1.9062 0.074218 1.5195-0.25 2.0117-0.62891 1.4453-0.34375 1.2344-0.66406 1.5508-1.0547 0.90234-0.83984 1.8477-1.0898 1.0312-0.69922 3.2109-1.2539 1.9648-0.89062 1.125-0.37891 1.457 0.011719 1.2695 0.011719 1.0312 0.10547 1.3125 0.074218 1.5039-0.10938 1.4453 0.42969 1.6016 0.72266 1.707 0.83984 0.91016 0.89844 0.91406 0.51172 1.7891-0.058594 1.4102-0.21484 0.88672 0.76953 0.81641 1.2109 0.87891 0.54297 1.2656 0.33203 0.87891 0.50781 2.168 1.1641 1.3633 0.36719 1.6094 0.32031 2.5586 0.25781 1.8828-0.41406 2.0156-0.011718 1.3867-0.29688 2.0977-0.86328 1.2539-0.64062 1.1992-0.47266 1.5625-1.3398 0.97266-1.4805 1.3125-1.7773 0.78125-0.98438 1.1406-0.94531 1.7773-0.53516 0.93359-0.42578 1.5273-1.043 1.1875-0.75781 0.98047-1.1602 1.8125-1.6836 0.92578-0.71094 3.1641-0.99609 1.4102-0.41406 1.1016-0.40234 1.2422-0.60547 1.0195-0.72266 1.1016-1.7656 0.54688-1.3125 0.51953-1.5547 0.48438-1.4102 0.41797-1.6797-0.085937-1.1328 1.1641 1.0391" fill="none" stroke="#fff" stroke-linecap="round" stroke-linejoin="round" stroke-miterlimit="10"/>
<path d="m255.36 228.11c0 3.5898-2.9102 6.5-6.5 6.5s-6.5-2.9102-6.5-6.5 2.9102-6.5 6.5-6.5 6.5 2.9102 6.5 6.5" fill="#28c028" fill-rule="evenodd" stroke="#000" stroke-linecap="round" stroke-linejoin="round" stroke-miterlimit="10"/>
<path d="m81.465 220.01c0.82031 0.58594 1.7109 1.0469 2.6719 1.3906l-1.2344 2.3594c-0.5-0.15625-0.99219-0.36719-1.4688-0.625-0.10547-0.054688-0.84375-0.53906-2.2188-1.4531-1.0742 0.46875-2.2656 0.70312-3.5781 0.70312-2.5312 0-4.5156-0.74219-5.9531-2.2344-1.4297-1.4883-2.1406-3.582-2.1406-6.2812 0-2.6875 0.71875-4.7734 2.1562-6.2656 1.4375-1.5 3.3828-2.25 5.8438-2.25 2.4453 0 4.3828 0.75 5.8125 2.25 1.4258 1.4922 2.1406 3.5781 2.1406 6.2656 0 1.4297-0.19922 2.6797-0.59375 3.75-0.30469 0.82422-0.78125 1.6211-1.4375 2.3906zm-2.6719-1.875c0.42578-0.5 0.74219-1.1016 0.95312-1.8125 0.21875-0.70703 0.32812-1.5234 0.32812-2.4531 0-1.8945-0.42188-3.3125-1.2656-4.25-0.83594-0.94531-1.9297-1.4219-3.2812-1.4219-1.3555 0-2.4531 0.47656-3.2969 1.4219-0.84375 0.9375-1.2656 2.3555-1.2656 4.25 0 1.9297 0.42188 3.3711 1.2656 4.3281 0.84375 0.94922 1.9102 1.4219 3.2031 1.4219 0.47656 0 0.92969-0.078125 1.3594-0.23438-0.67969-0.4375-1.3672-0.78125-2.0625-1.0312l0.9375-1.9062c1.0938 0.375 2.1328 0.9375 3.125 1.6875zm7.2969-12.5h3.3125v8.9219c0 1.418 0.039062 2.3359 0.125 2.75 0.14453 0.67969 0.48438 1.2188 1.0156 1.625 0.53906 0.40625 1.2734 0.60938 2.2031 0.60938 0.9375 0 1.6445-0.19141 2.125-0.57812 0.47656-0.38281 0.76562-0.85938 0.85938-1.4219 0.10156-0.5625 0.15625-1.4922 0.15625-2.7969v-9.1094h3.3281v8.6562c0 1.9688-0.09375 3.3672-0.28125 4.1875-0.17969 0.8125-0.50781 1.5-0.98438 2.0625-0.48047 0.5625-1.125 1.0117-1.9375 1.3438s-1.8711 0.5-3.1719 0.5c-1.5742 0-2.7656-0.18359-3.5781-0.54688s-1.4531-0.83203-1.9219-1.4062c-0.46875-0.58203-0.77734-1.1914-0.92188-1.8281-0.21875-0.94531-0.32812-2.3438-0.32812-4.1875zm16.531 16.469v-16.469h3.3125v16.469zm6.5156 0v-16.469h3.2344l6.75 11v-11h3.0781v16.469h-3.3281l-6.6406-10.734v10.734zm16.562-16.469h3.3125v8.9219c0 1.418 0.039062 2.3359 0.125 2.75 0.14453 0.67969 0.48438 1.2188 1.0156 1.625 0.53906 0.40625 1.2734 0.60938 2.2031 0.60938 0.9375 0 1.6445-0.19141 2.125-0.57812 0.47656-0.38281 0.76562-0.85938 0.85938-1.4219 0.10156-0.5625 0.15625-1.4922 0.15625-2.7969v-9.1094h3.3281v8.6562c0 1.9688-0.09375 3.3672-0.28125 4.1875-0.17969 0.8125-0.50781 1.5-0.98438 2.0625-0.48047 0.5625-1.125 1.0117-1.9375 1.3438s-1.8711 0.5-3.1719 0.5c-1.5742 0-2.7656-0.18359-3.5781-0.54688s-1.4531-0.83203-1.9219-1.4062c-0.46875-0.58203-0.77734-1.1914-0.92188-1.8281-0.21875-0.94531-0.32812-2.3438-0.32812-4.1875zm31.469 16.469h-3.6094l-1.4375-3.7344h-6.5781l-1.3594 3.7344h-3.5312l6.4062-16.469h3.5156zm-6.1094-6.5156-2.2812-6.1094-2.2188 6.1094zm7.8906-9.9531h6.5781c1.3008 0 2.2695 0.058594 2.9062 0.17188 0.64453 0.10547 1.2188 0.32812 1.7188 0.67188 0.50781 0.34375 0.92969 0.80469 1.2656 1.375 0.34375 0.57422 0.51562 1.2188 0.51562 1.9375 0 0.77344-0.21094 1.4805-0.625 2.125-0.41797 0.63672-0.98047 1.1172-1.6875 1.4375 1 0.29297 1.7656 0.79297 2.2969 1.5 0.53906 0.69922 0.8125 1.5273 0.8125 2.4844 0 0.74219-0.17188 1.4648-0.51562 2.1719-0.34375 0.71094-0.82031 1.2773-1.4219 1.7031-0.60547 0.41797-1.3516 0.67969-2.2344 0.78125-0.55469 0.0625-1.8906 0.10156-4.0156 0.10938h-5.5938zm3.3281 2.75v3.7969h2.1719c1.2891 0 2.0977-0.015625 2.4219-0.046875 0.5625-0.070313 1.0039-0.26953 1.3281-0.59375 0.33203-0.32031 0.5-0.75 0.5-1.2812 0-0.50781-0.14062-0.92188-0.42188-1.2344-0.28125-0.32031-0.69922-0.51953-1.25-0.59375-0.33594-0.03125-1.2812-0.046875-2.8438-0.046875zm0 6.5469v4.3906h3.0781c1.1953 0 1.9531-0.03125 2.2656-0.09375 0.5-0.09375 0.90625-0.3125 1.2188-0.65625s0.46875-0.8125 0.46875-1.4062c0-0.48828-0.12109-0.90625-0.35938-1.25-0.24219-0.34375-0.58984-0.59375-1.0469-0.75-0.44922-0.15625-1.4336-0.23438-2.9531-0.23438zm28.109 7.1719h-3.6094l-1.4375-3.7344h-6.5781l-1.3594 3.7344h-3.5312l6.4062-16.469h3.5156zm-6.1094-6.5156-2.2812-6.1094-2.2188 6.1094zm7.8281 6.5156v-16.469h4.9844l2.9844 11.234 2.9531-11.234h4.9844v16.469h-3.0938v-12.953l-3.2656 12.953h-3.2031l-3.25-12.953v12.953zm19.219-16.469h6.5781c1.3008 0 2.2695 0.058594 2.9062 0.17188 0.64453 0.10547 1.2188 0.32812 1.7188 0.67188 0.50781 0.34375 0.92969 0.80469 1.2656 1.375 0.34375 0.57422 0.51562 1.2188 0.51562 1.9375 0 0.77344-0.21094 1.4805-0.625 2.125-0.41797 0.63672-0.98047 1.1172-1.6875 1.4375 1 0.29297 1.7656 0.79297 2.2969 1.5 0.53906 0.69922 0.8125 1.5273 0.8125 2.4844 0 0.74219-0.17188 1.4648-0.51562 2.1719-0.34375 0.71094-0.82031 1.2773-1.4219 1.7031-0.60547 0.41797-1.3516 0.67969-2.2344 0.78125-0.55469 0.0625-1.8906 0.10156-4.0156 0.10938h-5.5938zm3.3281 2.75v3.7969h2.1719c1.2891 0 2.0977-0.015625 2.4219-0.046875 0.5625-0.070313 1.0039-0.26953 1.3281-0.59375 0.33203-0.32031 0.5-0.75 0.5-1.2812 0-0.50781-0.14062-0.92188-0.42188-1.2344-0.28125-0.32031-0.69922-0.51953-1.25-0.59375-0.33594-0.03125-1.2812-0.046875-2.8438-0.046875zm0 6.5469v4.3906h3.0781c1.1953 0 1.9531-0.03125 2.2656-0.09375 0.5-0.09375 0.90625-0.3125 1.2188-0.65625s0.46875-0.8125 0.46875-1.4062c0-0.48828-0.12109-0.90625-0.35938-1.25-0.24219-0.34375-0.58984-0.59375-1.0469-0.75-0.44922-0.15625-1.4336-0.23438-2.9531-0.23438zm28.109 7.1719h-3.6094l-1.4375-3.7344h-6.5781l-1.3594 3.7344h-3.5312l6.4062-16.469h3.5156zm-6.1094-6.5156-2.2812-6.1094-2.2188 6.1094zm0 0" fill="none" stroke="#fff" stroke-linecap="round" stroke-linejoin="round" stroke-miterlimit="10" stroke-width="2"/>
<path d="m81.465 220.01c0.82031 0.58594 1.7109 1.0469 2.6719 1.3906l-1.2344 2.3594c-0.5-0.15625-0.99219-0.36719-1.4688-0.625-0.10547-0.054688-0.84375-0.53906-2.2188-1.4531-1.0742 0.46875-2.2656 0.70312-3.5781 0.70312-2.5312 0-4.5156-0.74219-5.9531-2.2344-1.4297-1.4883-2.1406-3.582-2.1406-6.2812 0-2.6875 0.71875-4.7734 2.1562-6.2656 1.4375-1.5 3.3828-2.25 5.8438-2.25 2.4453 0 4.3828 0.75 5.8125 2.25 1.4258 1.4922 2.1406 3.5781 2.1406 6.2656 0 1.4297-0.19922 2.6797-0.59375 3.75-0.30469 0.82422-0.78125 1.6211-1.4375 2.3906zm-2.6719-1.875c0.42578-0.5 0.74219-1.1016 0.95312-1.8125 0.21875-0.70703 0.32812-1.5234 0.32812-2.4531 0-1.8945-0.42188-3.3125-1.2656-4.25-0.83594-0.94531-1.9297-1.4219-3.2812-1.4219-1.3555 0-2.4531 0.47656-3.2969 1.4219-0.84375 0.9375-1.2656 2.3555-1.2656 4.25 0 1.9297 0.42188 3.3711 1.2656 4.3281 0.84375 0.94922 1.9102 1.4219 3.2031 1.4219 0.47656 0 0.92969-0.078125 1.3594-0.23438-0.67969-0.4375-1.3672-0.78125-2.0625-1.0312l0.9375-1.9062c1.0938 0.375 2.1328 0.9375 3.125 1.6875zm7.2969-12.5h3.3125v8.9219c0 1.418 0.039062 2.3359 0.125 2.75 0.14453 0.67969 0.48438 1.2188 1.0156 1.625 0.53906 0.40625 1.2734 0.60938 2.2031 0.60938 0.9375 0 1.6445-0.19141 2.125-0.57812 0.47656-0.38281 0.76562-0.85938 0.85938-1.4219 0.10156-0.5625 0.15625-1.4922 0.15625-2.7969v-9.1094h3.3281v8.6562c0 1.9688-0.09375 3.3672-0.28125 4.1875-0.17969 0.8125-0.50781 1.5-0.98438 2.0625-0.48047 0.5625-1.125 1.0117-1.9375 1.3438s-1.8711 0.5-3.1719 0.5c-1.5742 0-2.7656-0.18359-3.5781-0.54688s-1.4531-0.83203-1.9219-1.4062c-0.46875-0.58203-0.77734-1.1914-0.92188-1.8281-0.21875-0.94531-0.32812-2.3438-0.32812-4.1875zm16.531 16.469v-16.469h3.3125v16.469zm6.5156 0v-16.469h3.2344l6.75 11v-11h3.0781v16.469h-3.3281l-6.6406-10.734v10.734zm16.562-16.469h3.3125v8.9219c0 1.418 0.039062 2.3359 0.125 2.75 0.14453 0.67969 0.48438 1.2188 1.0156 1.625 0.53906 0.40625 1.2734 0.60938 2.2031 0.60938 0.9375 0 1.6445-0.19141 2.125-0.57812 0.47656-0.38281 0.76562-0.85938 0.85938-1.4219 0.10156-0.5625 0.15625-1.4922 0.15625-2.7969v-9.1094h3.3281v8.6562c0 1.9688-0.09375 3.3672-0.28125 4.1875-0.17969 0.8125-0.50781 1.5-0.98438 2.0625-0.48047 0.5625-1.125 1.0117-1.9375 1.3438s-1.8711 0.5-3.1719 0.5c-1.5742 0-2.7656-0.18359-3.5781-0.54688s-1.4531-0.83203-1.9219-1.4062c-0.46875-0.58203-0.77734-1.1914-0.92188-1.8281-0.21875-0.94531-0.32812-2.3438-0.32812-4.1875zm31.469 16.469h-3.6094l-1.4375-3.7344h-6.5781l-1.3594 3.7344h-3.5312l6.4062-16.469h3.5156zm-6.1094-6.5156-2.2812-6.1094-2.2188 6.1094zm7.8906-9.9531h6.5781c1.3008 0 2.2695 0.058594 2.9062 0.17188 0.64453 0.10547 1.2188 0.32812 1.7188 0.67188 0.50781 0.34375 0.92969 0.80469 1.2656 1.375 0.34375 0.57422 0.51562 1.2188 0.51562 1.9375 0 0.77344-0.21094 1.4805-0.625 2.125-0.41797 0.63672-0.98047 1.1172-1.6875 1.4375 1 0.29297 1.7656 0.79297 2.2969 1.5 0.53906 0.69922 0.8125 1.5273 0.8125 2.4844 0 0.74219-0.17188 1.4648-0.51562 2.1719-0.34375 0.71094-0.82031 1.2773-1.4219 1.7031-0.60547 0.41797-1.3516 0.67969-2.2344 0.78125-0.55469 0.0625-1.8906 0.10156-4.0156 0.10938h-5.5938zm3.3281 2.75v3.7969h2.1719c1.2891 0 2.0977-0.015625 2.4219-0.046875 0.5625-0.070313 1.0039-0.26953 1.3281-0.59375 0.33203-0.32031 0.5-0.75 0.5-1.2812 0-0.50781-0.14062-0.92188-0.42188-1.2344-0.28125-0.32031-0.69922-0.51953-1.25-0.59375-0.33594-0.03125-1.2812-0.046875-2.8438-0.046875zm0 6.5469v4.3906h3.0781c1.1953 0 1.9531-0.03125 2.2656-0.09375 0.5-0.09375 0.90625-0.3125 1.2188-0.65625s0.46875-0.8125 0.46875-1.4062c0-0.48828-0.12109-0.90625-0.35938-1.25-0.24219-0.34375-0.58984-0.59375-1.0469-0.75-0.44922-0.15625-1.4336-0.23438-2.9531-0.23438zm28.109 7.1719h-3.6094l-1.4375-3.7344h-6.5781l-1.3594 3.7344h-3.5312l6.4062-16.469h3.5156zm-6.1094-6.5156-2.2812-6.1094-2.2188 6.1094zm7.8281 6.5156v-16.469h4.9844l2.9844 11.234 2.9531-11.234h4.9844v16.469h-3.0938v-12.953l-3.2656 12.953h-3.2031l-3.25-12.953v12.953zm19.219-16.469h6.5781c1.3008 0 2.2695 0.058594 2.9062 0.17188 0.64453 0.10547 1.2188 0.32812 1.7188 0.67188 0.50781 0.34375 0.92969 0.80469 1.2656 1.375 0.34375 0.57422 0.51562 1.2188 0.51562 1.9375 0 0.77344-0.21094 1.4805-0.625 2.125-0.41797 0.63672-0.98047 1.1172-1.6875 1.4375 1 0.29297 1.7656 0.79297 2.2969 1.5 0.53906 0.69922 0.8125 1.5273 0.8125 2.4844 0 0.74219-0.17188 1.4648-0.51562 2.1719-0.34375 0.71094-0.82031 1.2773-1.4219 1.7031-0.60547 0.41797-1.3516 0.67969-2.2344 0.78125-0.55469 0.0625-1.8906 0.10156-4.0156 0.10938h-5.5938zm3.3281 2.75v3.7969h2.1719c1.2891 0 2.0977-0.015625 2.4219-0.046875 0.5625-0.070313 1.0039-0.26953 1.3281-0.59375 0.33203-0.32031 0.5-0.75 0.5-1.2812 0-0.50781-0.14062-0.92188-0.42188-1.2344-0.28125-0.32031-0.69922-0.51953-1.25-0.59375-0.33594-0.03125-1.2812-0.046875-2.8438-0.046875zm0 6.5469v4.3906h3.0781c1.1953 0 1.9531-0.03125 2.2656-0.09375 0.5-0.09375 0.90625-0.3125 1.2188-0.65625s0.46875-0.8125 0.46875-1.4062c0-0.48828-0.12109-0.90625-0.35938-1.25-0.24219-0.34375-0.58984-0.59375-1.0469-0.75-0.44922-0.15625-1.4336-0.23438-2.9531-0.23438zm28.109 7.1719h-3.6094l-1.4375-3.7344h-6.5781l-1.3594 3.7344h-3.5312l6.4062-16.469h3.5156zm-6.1094-6.5156-2.2812-6.1094-2.2188 6.1094z" fill-rule="evenodd"/>
</g>
</svg>
