<?xml version="1.0" encoding="UTF-8"?>
<svg width="500pt" height="415pt" version="1.1" viewBox="0 0 500 415" xmlns="http://www.w3.org/2000/svg">
<g id="a">
<rect width="500" height="415" fill="none"/>
<path d="m317.55 80.047 1.1875 0.37891 1.0234 0.41406 1.1484 0.30078 1.9688 0.13281 1.2344-0.10156 1.168 0.31641 1.6133 0.55469 1.7891 0.39453 1.168 0.17969 1.7617-0.078125 2.2617 0.17969 2.0273 0.050781 2.7969 0.89844 0.875 0.50391 1.668 1.582 0.027344 1.1094-0.51172 2.1719-0.33594 1.4141 0.011719 1.0547-0.54688 0.99219-0.12109 1.457 0.14062 1.3164-0.20703 0.99219-0.80859 1.4766-0.10938 1.3633 0.73828 1.3516 1.75 0.57812 1.3086 0.6875 0.91406 0.82031-0.30859 1.0273-0.77344 0.95703-0.67969 0.86328-0.80859 1.7812-0.84766 0.57031-1.5625 1.3984-1.293 0.44922-1.332 0.82031-0.87109 0.58594-0.85547 0.91016-0.42969 1.7031 0.015625 1.8242 0.27734 1.1484 0.13672 1.3945 0.035156 1.2891-0.33984 1.3594 0.53516 1.2383 1.4102 1 0.41797 1.668-0.51172 1.1562 0.039063 2.1641 0.58203 0.82812 0.6875 0.9375 1.1836 1.9961 1.7148 3.0742 0.93359 1.1016 1.0469 1.2773 0.88672 0.58594 0.87891 0.91797 0.027344 1.082 0.019531 1.0859 0.47266 1.4805 0.69922 1.5039 0.62109 1.0312 0.33984 1.4414-0.30469 0.98828-1.2031 0.8125-0.65625 0.96094-0.69531 0.80078-0.96094 0.58594-0.70312 0.92969-1.0508 1.0312-1.2383 0.53906-1.2188 0.44531-1.1406 0.23438-1.25 0.066407-1.3242 0.62109-0.81641 0.69141-1.0625 0.90234-0.79297 0.67188-1.2773 0.76562-0.90625 0.98828-1.5977 1.4453-1.2617 1.5977-0.28906 1.5664-0.77344 1.3398-0.66797 0.99219 0.085938 1.4492-0.12891 1.3555-0.11719 1.4375 0.58203 1.1172 1.3047 1.4844 0.91016 0.83203 1.168 0.96875 1.0039 1.4805 0.69531 0.84375 1.207 1.457-0.87109 1.2578-0.57422 0.83203-0.77734 1.2812-0.56641 1.1523-0.62109 1.043-0.23438 1.0469-0.55469 1.3008-1.1133 1.1406-1.9609 1.2031-1.2695 0.94922-2.7852 2.8945-1.5977 0.61719-0.875 0.92578-0.58203 1.082-0.40625 1.6719-0.86719 4.1484-0.73047 1.582-1.0547 0.87109-1.4375 0.73047-1.543 1.2383-2.293 1.5859-1.0977 1.0547-0.98438 0.59375-1.9844 0.91406-1.3711 0.65625-1.0273 0.80859-1.5039 0.43359-1.1797-0.15625-2.1875 0.054688-1-0.30469-2.125-0.078125-1.3711 0.066406-1.0977-0.16406-1.6367-0.078125-1.3672-0.39062-1.0742-0.0625-1.3164 0.53906-1.2188-0.12891-1.5938-0.0625-1.5508 0.078125-1.3516-0.27734-1.3789 0.015625-1.1328 0.24609-1.0859-0.007812 0.18359-1.0898 0.22266-0.99219-1.0195-1.4141-1.4297-1.5586-1.7422-1.4492-2.5312-1.375-1.3438-1.1914-1.2812-0.30859-1.4141-0.41016-1.0117-0.58594-1.3867-1.1992-0.92969-0.61719-1.9219-0.55469-0.57812-0.82422 1.1016-0.54688 1.4961-0.14062 2.6484 0.15234 1.7422 0.78125 1.6406 0.51562 1.0586 0.24609 3.707-3.707 0.67969-1.6367 0.3125-3.1992 0.39844-2.5391-0.20312-1.0898-0.54688-1.0742 0.43359-1.2539 1.7383-1.543 1.6211-0.66406h1.082l2.6055-0.37891 1.7969-0.63281 0.97266-0.67969 1.668-0.67188 1.1484-0.57422 1.7969-0.43359 1.207-0.042969 1.375-0.16797 0.95703-1.4141-1.0156-0.61719-1.3242 0.4375-1.4609-0.035156-1.2578-0.48047-1.0625-0.007812-2.082 0.70312-1.4805 0.21875-1.0625 0.47266-1.3594 1.0352-1.082 0.46094-1.2539 0.14062-2.1719 0.050781-1.4883 0.30469-1.2539 0.61328-2.3477 1.582-1.0352 0.875-1.4727 0.78516-0.87891 0.70312-1.5938 0.007813-1.5898-0.27734-1.5117-0.050781-1.582 0.37891-1.5234 0.57812-1.2969 0.53906-1.1875 0.53906-0.96484 0.31641-1.3242 0.09375-3.9375 3.2266-1.1875 1.3242-0.94922 0.71094-2.0117 1.543-1.0469 0.82031-0.87891 1.125-1.5273 1.6211-0.60938 0.87891-0.57812 0.98828-0.49219 1.0781-1.3516 0.65234-1.1055 0.58594-2.4648 1.1914-0.88281 0.66406-1.8398 2.4219-1.1328 1.2812-0.92969 0.95703-1.7539 1.5508-1.1641 0.74219-0.88281 0.66016-1.0273 0.39062-0.66797-1.0547-0.6875-0.75-2.9531-1.7031-1.2578-0.24219-1.2852-1.9023-0.37891-1.1797 0.71875-0.97656 0.13672-1.168-0.69141-1.0078 0.03125-1.2695-1.0312-1.4492-1.207-0.28516-0.9375-0.375-0.59766-1.457-0.21875-1.3711-0.42188-1.3555-0.097656-1.0352-1.1328-1.5195-0.69531-2.4453 0.42578-2.3555-0.042969-1.0781-0.60938-1.2734-0.55078-1.1211-0.88672-0.80469-1.0273-0.3125-0.44531-2.1445-0.27344-1.457 0.30078-1.0859 0.17188-1.2227-0.57422-1.5312-0.375-1.2656-0.54688-1.1836-0.58594-1.3086-0.84766-1.4727-0.20703-1.2344-0.015625-1.0273-0.30859-0.98047-0.82031-1.043-0.76953-0.78125-0.24219-1.3281-0.32422-1.4102-0.40234-1.0898-0.31641-1.2031-0.39844-0.99609-0.83203-0.86719-1.1289-1.1406 0.25-1.1836 0.75391-0.875-0.82031-1.0234-1.0156-0.94531-0.25-1.5078-0.56641-0.89844-0.78125-0.6875-0.98828-1.5938-0.37109-1.0039-0.71875-0.87109 1.1758-0.42969 2.0664-0.3125 2.8828-1.043 2.1055-0.35938 2.2148-1.3906 1.1875-1.6484 1.0156-1.0781 2.3477-1.2891 1.4336-0.78906 2.0273-0.78516 1.5781-0.39453 1.5703-0.70312 0.95703-0.50781 1.1211-0.40625 1.0078-0.14062 0.87109-1.1016 0.72656-1.6445 1.3711-0.42969 1.7812-0.15625 1.8203 0.42578 2.1406-0.37891 1.418 0.35938 3.0156 2.2578 0.20703 1.7969 1.3672 0.38672 1.3281-1.1836 1.1328-0.19141 1.1094-0.49609 1.3164-0.25 1.5156-1.3516 0.88672-0.66406 1.1914-0.91016 2.918-1.7031 2.6992-1.1445 1.4102-0.59766 3.3984-0.85156 1.4023-0.80859 0.81641-0.80469 0.66406-1.2383 0.78125-1.293 0.79297-0.95312 0.37109-1.3594 0.66016-1.6562 0.50781-1.5312 1.2344-0.9375 1.7656-1.75 0.80469-0.67188 1.2773-1.2773 1.082-0.97266 0.94141-1.1641 0.97656-0.64844 1.043-0.054688 1.4102 0.21094 1.418 0.36719 0.90625 0.46484 1.0938 0.27344 1.0586 0.074218 0.89844-0.51562 0.61328-0.80078 0.75391-1.1836 0.44531-1.0703 0.86719-0.97656 1.0312-0.38281 0.78906-0.65234 0.92969-0.43359 1.1875-0.76562 1.2891-1.2539 0.80469-1.0586 0.45312-1.3633 0.48828-0.95312 1.3945-0.26172 1.1328-0.31641 1.0508-0.63672 1.3789-0.35938 1.0352-0.10938 0.77734-0.82812 0.74219-0.99609 2.4102-0.22266 1.5234-0.32031 1.7422-0.73438 1.2461-0.51953 1.4062-0.71875 0.69531-1.6523 0.44531-2.1211 0.75781-0.99219 0.68359-0.91797 0.57031-0.96484 1.0938-0.58594 1.082-0.14844 1-0.77734 1.0781-0.97266 1.9922 0.042969 1.2539-0.52344 1.2578-0.89844 1.0508-1.0156z" fill="#ccc" fill-rule="evenodd"/>
<path d="m317.55 80.047 1.1875 0.37891 1.0234 0.41406 1.1484 0.30078 1.9688 0.13281 1.2344-0.10156 1.168 0.31641 1.6133 0.55469 1.7891 0.39453 1.168 0.17969 1.7617-0.078125 2.2617 0.17969 2.0273 0.050781 2.7969 0.89844 0.875 0.50391 1.668 1.582 0.027344 1.1094-0.51172 2.1719-0.33594 1.4141 0.011719 1.0547-0.54688 0.99219-0.12109 1.457 0.14062 1.3164-0.20703 0.99219-0.80859 1.4766-0.10938 1.3633 0.73828 1.3516 1.75 0.57812 1.3086 0.6875 0.91406 0.82031-0.30859 1.0273-0.77344 0.95703-0.67969 0.86328-0.80859 1.7812-0.84766 0.57031-1.5625 1.3984-1.293 0.44922-1.332 0.82031-0.87109 0.58594-0.85547 0.91016-0.42969 1.7031 0.015625 1.8242 0.27734 1.1484 0.13672 1.3945 0.035156 1.2891-0.33984 1.3594 0.53516 1.2383 1.4102 1 0.41797 1.668-0.51172 1.1562 0.039063 2.1641 0.58203 0.82812 0.6875 0.9375 1.1836 1.9961 1.7148 3.0742 0.93359 1.1016 1.0469 1.2773 0.88672 0.58594 0.87891 0.91797 0.027344 1.082 0.019531 1.0859 0.47266 1.4805 0.69922 1.5039 0.62109 1.0312 0.33984 1.4414-0.30469 0.98828-1.2031 0.8125-0.65625 0.96094-0.69531 0.80078-0.96094 0.58594-0.70312 0.92969-1.0508 1.0312-1.2383 0.53906-1.2188 0.44531-1.1406 0.23438-1.25 0.066407-1.3242 0.62109-0.81641 0.69141-1.0625 0.90234-0.79297 0.67188-1.2773 0.76562-0.90625 0.98828-1.5977 1.4453-1.2617 1.5977-0.28906 1.5664-0.77344 1.3398-0.66797 0.99219 0.085938 1.4492-0.12891 1.3555-0.11719 1.4375 0.58203 1.1172 1.3047 1.4844 0.91016 0.83203 1.168 0.96875 1.0039 1.4805 0.69531 0.84375 1.207 1.457-0.87109 1.2578-0.57422 0.83203-0.77734 1.2812-0.56641 1.1523-0.62109 1.043-0.23438 1.0469-0.55469 1.3008-1.1133 1.1406-1.9609 1.2031-1.2695 0.94922-2.7852 2.8945-1.5977 0.61719-0.875 0.92578-0.58203 1.082-0.40625 1.6719-0.86719 4.1484-0.73047 1.582-1.0547 0.87109-1.4375 0.73047-1.543 1.2383-2.293 1.5859-1.0977 1.0547-0.98438 0.59375-1.9844 0.91406-1.3711 0.65625-1.0273 0.80859-1.5039 0.43359-1.1797-0.15625-2.1875 0.054688-1-0.30469-2.125-0.078125-1.3711 0.066406-1.0977-0.16406-1.6367-0.078125-1.3672-0.39062-1.0742-0.0625-1.3164 0.53906-1.2188-0.12891-1.5938-0.0625-1.5508 0.078125-1.3516-0.27734-1.3789 0.015625-1.1328 0.24609-1.0859-0.007812 0.18359-1.0898 0.22266-0.99219-1.0195-1.4141-1.4297-1.5586-1.7422-1.4492-2.5312-1.375-1.3438-1.1914-1.2812-0.30859-1.4141-0.41016-1.0117-0.58594-1.3867-1.1992-0.92969-0.61719-1.9219-0.55469-0.57812-0.82422 1.1016-0.54688 1.4961-0.14062 2.6484 0.15234 1.7422 0.78125 1.6406 0.51562 1.0586 0.24609 3.707-3.707 0.67969-1.6367 0.3125-3.1992 0.39844-2.5391-0.20312-1.0898-0.54688-1.0742 0.43359-1.2539 1.7383-1.543 1.6211-0.66406h1.082l2.6055-0.37891 1.7969-0.63281 0.97266-0.67969 1.668-0.67188 1.1484-0.57422 1.7969-0.43359 1.207-0.042969 1.375-0.16797 0.95703-1.4141-1.0156-0.61719-1.3242 0.4375-1.4609-0.035156-1.2578-0.48047-1.0625-0.007812-2.082 0.70312-1.4805 0.21875-1.0625 0.47266-1.3594 1.0352-1.082 0.46094-1.2539 0.14062-2.1719 0.050781-1.4883 0.30469-1.2539 0.61328-2.3477 1.582-1.0352 0.875-1.4727 0.78516-0.87891 0.70312-1.5938 0.007813-1.5898-0.27734-1.5117-0.050781-1.582 0.37891-1.5234 0.57812-1.2969 0.53906-1.1875 0.53906-0.96484 0.31641-1.3242 0.09375-3.9375 3.2266-1.1875 1.3242-0.94922 0.71094-2.0117 1.543-1.0469 0.82031-0.87891 1.125-1.5273 1.6211-0.60938 0.87891-0.57812 0.98828-0.49219 1.0781-1.3516 0.65234-1.1055 0.58594-2.4648 1.1914-0.88281 0.66406-1.8398 2.4219-1.1328 1.2812-0.92969 0.95703-1.7539 1.5508-1.1641 0.74219-0.88281 0.66016-1.0273 0.39062-0.66797-1.0547-0.6875-0.75-2.9531-1.7031-1.2578-0.24219-1.2852-1.9023-0.37891-1.1797 0.71875-0.97656 0.13672-1.168-0.69141-1.0078 0.03125-1.2695-1.0312-1.4492-1.207-0.28516-0.9375-0.375-0.59766-1.457-0.21875-1.3711-0.42188-1.3555-0.097656-1.0352-1.1328-1.5195-0.69531-2.4453 0.42578-2.3555-0.042969-1.0781-0.60938-1.2734-0.55078-1.1211-0.88672-0.80469-1.0273-0.3125-0.44531-2.1445-0.27344-1.457 0.30078-1.0859 0.17188-1.2227-0.57422-1.5312-0.375-1.2656-0.54688-1.1836-0.58594-1.3086-0.84766-1.4727-0.20703-1.2344-0.015625-1.0273-0.30859-0.98047-0.82031-1.043-0.76953-0.78125-0.24219-1.3281-0.32422-1.4102-0.40234-1.0898-0.31641-1.2031-0.39844-0.99609-0.83203-0.86719-1.1289-1.1406 0.25-1.1836 0.75391-0.875-0.82031-1.0234-1.0156-0.94531-0.25-1.5078-0.56641-0.89844-0.78125-0.6875-0.98828-1.5938-0.37109-1.0039-0.71875-0.87109 1.1758-0.42969 2.0664-0.3125 2.8828-1.043 2.1055-0.35938 2.2148-1.3906 1.1875-1.6484 1.0156-1.0781 2.3477-1.2891 1.4336-0.78906 2.0273-0.78516 1.5781-0.39453 1.5703-0.70312 0.95703-0.50781 1.1211-0.40625 1.0078-0.14062 0.87109-1.1016 0.72656-1.6445 1.3711-0.42969 1.7812-0.15625 1.8203 0.42578 2.1406-0.37891 1.418 0.35938 3.0156 2.2578 0.20703 1.7969 1.3672 0.38672 1.3281-1.1836 1.1328-0.19141 1.1094-0.49609 1.3164-0.25 1.5156-1.3516 0.88672-0.66406 1.1914-0.91016 2.918-1.7031 2.6992-1.1445 1.4102-0.59766 3.3984-0.85156 1.4023-0.80859 0.81641-0.80469 0.66406-1.2383 0.78125-1.293 0.79297-0.95312 0.37109-1.3594 0.66016-1.6562 0.50781-1.5312 1.2344-0.9375 1.7656-1.75 0.80469-0.67188 1.2773-1.2773 1.082-0.97266 0.94141-1.1641 0.97656-0.64844 1.043-0.054688 1.4102 0.21094 1.418 0.36719 0.90625 0.46484 1.0938 0.27344 1.0586 0.074218 0.89844-0.51562 0.61328-0.80078 0.75391-1.1836 0.44531-1.0703 0.86719-0.97656 1.0312-0.38281 0.78906-0.65234 0.92969-0.43359 1.1875-0.76562 1.2891-1.2539 0.80469-1.0586 0.45312-1.3633 0.48828-0.95312 1.3945-0.26172 1.1328-0.31641 1.0508-0.63672 1.3789-0.35938 1.0352-0.10938 0.77734-0.82812 0.74219-0.99609 2.4102-0.22266 1.5234-0.32031 1.7422-0.73438 1.2461-0.51953 1.4062-0.71875 0.69531-1.6523 0.44531-2.1211 0.75781-0.99219 0.68359-0.91797 0.57031-0.96484 1.0938-0.58594 1.082-0.14844 1-0.77734 1.0781-0.97266 1.9922 0.042969 1.2539-0.52344 1.2578-0.89844 1.0508-1.0156 0.54688 0.28516" fill="none" stroke="#fff" stroke-linecap="round" stroke-linejoin="round" stroke-miterlimit="10" stroke-width="2"/>
<path d="m241.77 230.43 1.1211 0.51562 1.1562 0.22266 2.3398 0.35547 0.80469 0.67188 0.44922 1.8281-0.30859 1.582-1.3125 2.7656-0.085937 2.5117 0.84766 2.9258-0.61719 1.2812-0.91406 0.45312-1.125 0.74609-0.47656 0.90625-0.69922 1.4922-1.2266 1.0898-1.832 0.60156-0.99609 1.1523-1.207 1.082-1.8125 1.5703-1.3828 1.3164-1.2695 0.80078-1.5117 0.55469-0.99219 0.24219-1.5898 0.51953-2.125 0.53516-2.7344-0.625-2.1172 2.2695-2.4609 0.76562-1.4336 0.85938-1.6953 1.6016-0.85938 0.53516-1.9453 0.26562-1.2617 0.82031-1.8867 0.36328-1.2812 0.62891-0.53516 1.1094-1.4297 1.0117-1.2969 0.60938-1.9648 0.64844-1.2148 0.82812-1.1406 1.1484-0.88672 0.89453-2.0625 1.8984-0.9375 1.0508-1.5469 1.0117-0.61719 1.0742-0.69922 2.3047-0.98047 0.66406-1.9961 0.17578-1.2188 0.74219 0.1875 1.5273 0.13672 2.0039-0.84375 1.4766 0.51172 1.4727 1.5508 0.38281 1.3867 0.69141 3.3867 3.3633 0.53516 0.86719 0.44141 1.7109-0.023437 1.2383-0.21484 2.5547-0.42969 1.3359-0.35938 1.1133-0.66797 0.98438-1.6406 0.69531-0.73828 0.81641-0.94141 1.4688-0.58594 0.91406-0.078125 2.1758-0.59375 1.75-0.89453 1.3047-0.75781 1.3555-1.2891 0.71484-1.1367 0.80859-1.4453 1.5703-0.78125 2.4609-0.33594 1.6367 0.0625 1.2266-0.97656 0.63281-1.5273 0.60938-0.12109 1.0859-0.66406 1.2812-3.5859 1.0508-1.0508 0.30859-1.6328 0.039062-1.3828 0.035157-1.5781 0.19531-1.4961 0.36328-3.043 1.168-1.3008 0.37109-1.4805 0.15234-1.7969 0.18359-0.99219-0.44922-2.5508-0.63672-0.4375 1.0391-0.66406 0.89062-0.92969 1.4023-1.7812 0.22656-1.3516 0.125-0.88672 0.51562-0.51953 0.86328-1 1.582-0.75391 0.75-1.0781 0.48828-1.8516 1.4141-1.4844 1.6328-1.1523 0.80469-1.1367 0.34766-1.6875 0.51953-1.6836 0.58984-1.207 0.72266 0.32422 1.6289 0.33594 1.0234-0.28516 1.4102-1.3555 2.1289-0.90234 0.77734-1.6133 1.3906-0.69141 1.3945-0.32812 1.5938-0.14844 3.6445-0.42578 1.5312-0.87891 1.8281-1.5039 1.1289-1.0781 0.60156-1.2148 0.67969-0.71484 2.2539-0.82812 1.6055-1.3984 1.0742-0.75781 1.1055-1.0039 0.77734-0.82422 1.5547-0.50781 1.3125-0.22266 0.99609-0.25 2.5078-1.2031 1.2031-0.32422 1.3789-0.23438 1.25-0.058594 1.168-0.10938 1.1875-0.3125 1.4922-0.042968 1.7109-0.53516 1.4375-0.69922 1.6562-0.35156 1.0078-0.45312 1.0977-0.51562 0.91797-1.1836 0.70312-0.75781 0.99219-0.31641 0.96094-0.74609 1.2969-1.25 1.4766-0.82422 1.4062-1.2383-0.78906-1.5938-0.54297-1.1172-0.29688-1.7227-1.3555-0.67188-0.78516-0.60156-1.0977-0.30469-1.5352 0.066406-1.2812-1.5664-0.96484-1.082-1.2812-0.71484-0.93359-0.80859-1.1758-0.89062-1.2305-0.46094-1.4453-0.10156-1.5664-0.82812-0.77734-2.0625-1.8672-0.76172-0.78125-1.0703-1.1328-0.83203-0.60156-0.50391-0.9375-1.3086-2.2695-0.70312-2.4492-0.50781-2.4961-0.47266-1.1836-0.35547-1.1016-0.29297-1.4102 1.0078-1.1211 1.2695-0.30469 1.7891 0.13672 1.7109-0.35547 0.85156-0.94531 0.31641-1.0742 0.17578-1.4766 1.3359-1.5859 0.79297-0.66797 0.82031-0.71094 1.1953-1.375 0.69922-1.0586 1.0781-2.0156 0.63672-2.0156 0.43359-1.3828-0.035156-1.1445-0.46875-1.5117 0.48438-1.3594 0.42578-1.4961 0.63672-1.125 1.0625-0.79297 0.74609-1.8906 0.066407-1.082-0.22656-1.2109-0.36328-1.0273 0.68359-1.2227 1.3984-1.6016 0.92188-0.79688 1.082-0.72656 2.2188-1.3984 0.80859-0.89062 2.3516-1.2852 1.5273-0.10547 0.60156-0.89453 0.80078-0.84766 1.582-0.91406 0.45703-1.1445 0.14453-1.4609 0.91406-0.85547 0.80078-1.3984 1.0312-1.2383 1.1133-0.16016 1.1133-0.20312 1.0117-0.71875 1.8477-0.125 1.4258-0.28516 0.8125-1.0078 0.55469-1.7461 0.37891-0.94922 1.8164-0.60547 1.418-1.8086 1.3398-0.64844 1.0234-0.3125 1.2852-0.69922 1.8633-0.39453 1.1211 0.40625 1.2969-0.49219 1.2812-2.6328 2.3398-0.76562 1.2539 0.19141 2.1758 0.87109 2.0156-0.39453 1.3008-0.96875 2.0312 0.36328 1.0352 0.046875 1.2383-0.125 1.832-0.35938 1.8203-1.3711 2.7773-2.8594 2.1602-2.7773 0.64844-0.83594 1.1133-0.67578 1.5547-2.0625-0.28516-1.6523 0.80859-1.6797 3.3672 0.14062 1.9336 0.074218 1.9414 0.55469 0.98047-0.53125 1.6172-2.0508 0.45312-1.1875-0.8125-3.7031-0.023438-2.5547-1.0703-1.3008 0.47266-1.3047 0.84375-1.4922-0.046875-1.0156-1.0078-2.2656-0.64844-0.85156-0.39844-1.0117 0.35156-1.0156 0.23438-1.457 0.40234-1.0195 0.72656-1.4062-0.10156-1.6406-0.25-1.0547-1.1562-0.89453-0.80859-1.0703-0.51172-1.1406-0.78906-0.73438-0.9375-1.1875-0.51172-1.5352-1.0938-1.6133-0.63672-1.1562-2.7305-0.96875-1.1641-0.32812-0.39453-1.4023-0.59375-1.5625 0.89844-0.95312 2.2227-0.72266 1.4727-1.7461 0.33203-1.0117 0.23438-1.2734 0.40625-1.0625 1.1055-0.46094 1.043-0.46875 1.8633-0.36719 1.25 0.14062 1.9609-0.50781 1.8477 1.9102 1.0234 0.95312 1.1484 0.5 1.6172 0.015625 2.3594-1.6641 1.6914-0.82812 0.90625-0.9375 0.46875-1.5117 0.55859-1.0742 1.6797-1.0273 1.2734-0.52344 1.1875-0.68359 2.5391 0.93359 1.2969 0.41797 1.5508 0.25391 2.1133 0.34766 1.7305 0.50781 1.5664 0.058593 1.582-0.19531 1.3906-0.17578 1.418-0.17578 1.3438-0.46875 2.2344-0.38672 1.9727 0.20312 2.4414-0.14062 1.2109-0.67969 1.1484-0.33594 2.1133-1.3633 1.2422-0.85547 1.2031 0.14844 1.4609 0.14844 1.5781 0.12891 1.6133 0.39062 1.5273-0.89453 0.56641-1.0469 3.4609-2.8398 1.5234-1.3555z" fill="#ccc" fill-rule="evenodd"/>
<path d="m241.77 230.43 1.1211 0.51562 1.1562 0.22266 2.3398 0.35547 0.80469 0.67188 0.44922 1.8281-0.30859 1.582-1.3125 2.7656-0.085937 2.5117 0.84766 2.9258-0.61719 1.2812-0.91406 0.45312-1.125 0.74609-0.47656 0.90625-0.69922 1.4922-1.2266 1.0898-1.832 0.60156-0.99609 1.1523-1.207 1.082-1.8125 1.5703-1.3828 1.3164-1.2695 0.80078-1.5117 0.55469-0.99219 0.24219-1.5898 0.51953-2.125 0.53516-2.7344-0.625-2.1172 2.2695-2.4609 0.76562-1.4336 0.85938-1.6953 1.6016-0.85938 0.53516-1.9453 0.26562-1.2617 0.82031-1.8867 0.36328-1.2812 0.62891-0.53516 1.1094-1.4297 1.0117-1.2969 0.60938-1.9648 0.64844-1.2148 0.82812-1.1406 1.1484-0.88672 0.89453-2.0625 1.8984-0.9375 1.0508-1.5469 1.0117-0.61719 1.0742-0.69922 2.3047-0.98047 0.66406-1.9961 0.17578-1.2188 0.74219 0.1875 1.5273 0.13672 2.0039-0.84375 1.4766 0.51172 1.4727 1.5508 0.38281 1.3867 0.69141 3.3867 3.3633 0.53516 0.86719 0.44141 1.7109-0.023437 1.2383-0.21484 2.5547-0.42969 1.3359-0.35938 1.1133-0.66797 0.98438-1.6406 0.69531-0.73828 0.81641-0.94141 1.4688-0.58594 0.91406-0.078125 2.1758-0.59375 1.75-0.89453 1.3047-0.75781 1.3555-1.2891 0.71484-1.1367 0.80859-1.4453 1.5703-0.78125 2.4609-0.33594 1.6367 0.0625 1.2266-0.97656 0.63281-1.5273 0.60938-0.12109 1.0859-0.66406 1.2812-3.5859 1.0508-1.0508 0.30859-1.6328 0.039062-1.3828 0.035157-1.5781 0.19531-1.4961 0.36328-3.043 1.168-1.3008 0.37109-1.4805 0.15234-1.7969 0.18359-0.99219-0.44922-2.5508-0.63672-0.4375 1.0391-0.66406 0.89062-0.92969 1.4023-1.7812 0.22656-1.3516 0.125-0.88672 0.51562-0.51953 0.86328-1 1.582-0.75391 0.75-1.0781 0.48828-1.8516 1.4141-1.4844 1.6328-1.1523 0.80469-1.1367 0.34766-1.6875 0.51953-1.6836 0.58984-1.207 0.72266 0.32422 1.6289 0.33594 1.0234-0.28516 1.4102-1.3555 2.1289-0.90234 0.77734-1.6133 1.3906-0.69141 1.3945-0.32812 1.5938-0.14844 3.6445-0.42578 1.5312-0.87891 1.8281-1.5039 1.1289-1.0781 0.60156-1.2148 0.67969-0.71484 2.2539-0.82812 1.6055-1.3984 1.0742-0.75781 1.1055-1.0039 0.77734-0.82422 1.5547-0.50781 1.3125-0.22266 0.99609-0.25 2.5078-1.2031 1.2031-0.32422 1.3789-0.23438 1.25-0.058594 1.168-0.10938 1.1875-0.3125 1.4922-0.042968 1.7109-0.53516 1.4375-0.69922 1.6562-0.35156 1.0078-0.45312 1.0977-0.51562 0.91797-1.1836 0.70312-0.75781 0.99219-0.31641 0.96094-0.74609 1.2969-1.25 1.4766-0.82422 1.4062-1.2383-0.78906-1.5938-0.54297-1.1172-0.29688-1.7227-1.3555-0.67188-0.78516-0.60156-1.0977-0.30469-1.5352 0.066406-1.2812-1.5664-0.96484-1.082-1.2812-0.71484-0.93359-0.80859-1.1758-0.89062-1.2305-0.46094-1.4453-0.10156-1.5664-0.82812-0.77734-2.0625-1.8672-0.76172-0.78125-1.0703-1.1328-0.83203-0.60156-0.50391-0.9375-1.3086-2.2695-0.70312-2.4492-0.50781-2.4961-0.47266-1.1836-0.35547-1.1016-0.29297-1.4102 1.0078-1.1211 1.2695-0.30469 1.7891 0.13672 1.7109-0.35547 0.85156-0.94531 0.31641-1.0742 0.17578-1.4766 1.3359-1.5859 0.79297-0.66797 0.82031-0.71094 1.1953-1.375 0.69922-1.0586 1.0781-2.0156 0.63672-2.0156 0.43359-1.3828-0.035156-1.1445-0.46875-1.5117 0.48438-1.3594 0.42578-1.4961 0.63672-1.125 1.0625-0.79297 0.74609-1.8906 0.066407-1.082-0.22656-1.2109-0.36328-1.0273 0.68359-1.2227 1.3984-1.6016 0.92188-0.79688 1.082-0.72656 2.2188-1.3984 0.80859-0.89062 2.3516-1.2852 1.5273-0.10547 0.60156-0.89453 0.80078-0.84766 1.582-0.91406 0.45703-1.1445 0.14453-1.4609 0.91406-0.85547 0.80078-1.3984 1.0312-1.2383 1.1133-0.16016 1.1133-0.20312 1.0117-0.71875 1.8477-0.125 1.4258-0.28516 0.8125-1.0078 0.55469-1.7461 0.37891-0.94922 1.8164-0.60547 1.418-1.8086 1.3398-0.64844 1.0234-0.3125 1.2852-0.69922 1.8633-0.39453 1.1211 0.40625 1.2969-0.49219 1.2812-2.6328 2.3398-0.76562 1.2539 0.19141 2.1758 0.87109 2.0156-0.39453 1.3008-0.96875 2.0312 0.36328 1.0352 0.046875 1.2383-0.125 1.832-0.35938 1.8203-1.3711 2.7773-2.8594 2.1602-2.7773 0.64844-0.83594 1.1133-0.67578 1.5547-2.0625-0.28516-1.6523 0.80859-1.6797 3.3672 0.14062 1.9336 0.074218 1.9414 0.55469 0.98047-0.53125 1.6172-2.0508 0.45312-1.1875-0.8125-3.7031-0.023438-2.5547-1.0703-1.3008 0.47266-1.3047 0.84375-1.4922-0.046875-1.0156-1.0078-2.2656-0.64844-0.85156-0.39844-1.0117 0.35156-1.0156 0.23438-1.457 0.40234-1.0195 0.72656-1.4062-0.10156-1.6406-0.25-1.0547-1.1562-0.89453-0.80859-1.0703-0.51172-1.1406-0.78906-0.73438-0.9375-1.1875-0.51172-1.5352-1.0938-1.6133-0.63672-1.1562-2.7305-0.96875-1.1641-0.32812-0.39453-1.4023-0.59375-1.5625 0.89844-0.95312 2.2227-0.72266 1.4727-1.7461 0.33203-1.0117 0.23438-1.2734 0.40625-1.0625 1.1055-0.46094 1.043-0.46875 1.8633-0.36719 1.25 0.14062 1.9609-0.50781 1.8477 1.9102 1.0234 0.95312 1.1484 0.5 1.6172 0.015625 2.3594-1.6641 1.6914-0.82812 0.90625-0.9375 0.46875-1.5117 0.55859-1.0742 1.6797-1.0273 1.2734-0.52344 1.1875-0.68359 2.5391 0.93359 1.2969 0.41797 1.5508 0.25391 2.1133 0.34766 1.7305 0.50781 1.5664 0.058593 1.582-0.19531 1.3906-0.17578 1.418-0.17578 1.3438-0.46875 2.2344-0.38672 1.9727 0.20312 2.4414-0.14062 1.2109-0.67969 1.1484-0.33594 2.1133-1.3633 1.2422-0.85547 1.2031 0.14844 1.4609 0.14844 1.5781 0.12891 1.6133 0.39062 1.5273-0.89453 0.56641-1.0469 3.4609-2.8398 1.5234-1.3555 1.707-0.12891" fill="none" stroke="#fff" stroke-linecap="round" stroke-linejoin="round" stroke-miterlimit="10" stroke-width="2"/>
<path d="m205.19 157.15 0.24219 0.59766 0.34766 1.3281 0.19141 1.1797 0.38672 1.293 0.36328 1.1055 1.1719 1.1289 0.48047 1.2031 0.015625 1.0273 0.20703 1.2344 0.84766 1.4727 0.58594 1.3086 0.54688 1.1836 0.375 1.2656 0.49609 1.0547-0.09375 1.6992-0.30078 1.0859 0.27344 1.457 0.066406 1.3242 0.67188 1.0039 1.2109 0.43359 0.72266 1.2305 0.62891 0.89844 0.26172 0.99219-0.42578 2.4414 0.55859 2.8711 0.98438 1.2812 0.33203 1.3867 0.41797 0.95703 0.27344 1.9961 0.59766 1.457 0.9375 0.375 1.207 0.28516 0.87891 0.90234 0.13672 1.1211 0.17578 1.0586 0.64844 1.1445-0.89453 1.3906 0.26953 1.4336 0.66797 1.3281 1.875 0.81641 2.9531 1.7031 0.6875 0.75 0.44531 0.96875 1.0352-0.14453 1.0977-0.82031 1.0508-0.41016 1.5156 0.16797 1.668 1.5469 1.168 0.8125 1.0273 0.097656 1.0508-0.015625 1.3477-0.125 1.0508-0.058594 0.98438 1.1094 1.0625 0.96484 0.058594 1.4102 0.37891 1.3281-0.027343 1.1602 1.0117 1.4766 0.48047 1.1719-1.3945 1.168-0.87109 0.82812-0.23828 1.0898-0.82422 1.0547-0.58984 0.83203-0.6875 1.4492-0.10547 1.082 0.16406 1.4258 0.59766 1.2695 0.43359 1.3633-1.5234 1.3555-3.0859 2.2734-0.94141 1.6133-1.5273 0.89453-1.6133-0.39062-1.5781-0.12891-1.4609-0.14844-1.2031-0.14844-1.2422 0.85547-1.3438 1.1797-1.918 0.51953-1.2109 0.67969-1.7617 0.48047-2.6523-0.54297-2.2344 0.38672-1.3438 0.46875-1.418 0.17578-1.3906 0.17578-1.582 0.19531-1.5664-0.058593-1.7305-0.50781-2.1133-0.34766-1.1914-0.19531-1.0664-0.28516-2.4805-1.0234-0.94531-0.69531-0.12891-1.7617 0.47266-1.1328 0.52734-0.98438 0.67578-1.2539-0.25391-2.0859-0.03125-2.7617-0.32031-1.3477 0.25781-1.6289 0.82812-1.418 0.015625-1.3945-0.070313-2.332 0.4375-1.1328 1.1953-1.6562 0.10547-2.2344 0.21094-1.543-0.81641-1.1758-0.48828-1.0352-0.14453-1.5781 0.074219-1.1211-0.37891-1.1602-0.44922-2.0508-0.078125-2.1641-0.082031-2.3672 0.23047-1.0039 0.55859-2.2852-0.10547-1.6719-0.21094-1.5859-0.52734-2.6133-0.64844-2.1484 0.40625-2.0977 0.058594-1.5742-0.34375-2.2188 0.47266-1.0156 0.32422-1.0391 0.019531-1.2031-0.68359-2.1367-1.0078-3.1641-0.68359-2.8008-0.39844-2.3906 0.36328-2.1523 0.68359-0.86719 0.95703-1.2109 1.3555-2.082 0.9375-1.1094 0.78516-0.92969 0.51562-0.92969 1.3281-1.8047 0.91016-1.832z" fill="#ccc" fill-rule="evenodd"/>
<path d="m205.19 157.15 0.24219 0.59766 0.34766 1.3281 0.19141 1.1797 0.38672 1.293 0.36328 1.1055 1.1719 1.1289 0.48047 1.2031 0.015625 1.0273 0.20703 1.2344 0.84766 1.4727 0.58594 1.3086 0.54688 1.1836 0.375 1.2656 0.49609 1.0547-0.09375 1.6992-0.30078 1.0859 0.27344 1.457 0.066406 1.3242 0.67188 1.0039 1.2109 0.43359 0.72266 1.2305 0.62891 0.89844 0.26172 0.99219-0.42578 2.4414 0.55859 2.8711 0.98438 1.2812 0.33203 1.3867 0.41797 0.95703 0.27344 1.9961 0.59766 1.457 0.9375 0.375 1.207 0.28516 0.87891 0.90234 0.13672 1.1211 0.17578 1.0586 0.64844 1.1445-0.89453 1.3906 0.26953 1.4336 0.66797 1.3281 1.875 0.81641 2.9531 1.7031 0.6875 0.75 0.44531 0.96875 1.0352-0.14453 1.0977-0.82031 1.0508-0.41016 1.5156 0.16797 1.668 1.5469 1.168 0.8125 1.0273 0.097656 1.0508-0.015625 1.3477-0.125 1.0508-0.058594 0.98438 1.1094 1.0625 0.96484 0.058594 1.4102 0.37891 1.3281-0.027343 1.1602 1.0117 1.4766 0.48047 1.1719-1.3945 1.168-0.87109 0.82812-0.23828 1.0898-0.82422 1.0547-0.58984 0.83203-0.6875 1.4492-0.10547 1.082 0.16406 1.4258 0.59766 1.2695 0.43359 1.3633-1.5234 1.3555-3.0859 2.2734-0.94141 1.6133-1.5273 0.89453-1.6133-0.39062-1.5781-0.12891-1.4609-0.14844-1.2031-0.14844-1.2422 0.85547-1.3438 1.1797-1.918 0.51953-1.2109 0.67969-1.7617 0.48047-2.6523-0.54297-2.2344 0.38672-1.3438 0.46875-1.418 0.17578-1.3906 0.17578-1.582 0.19531-1.5664-0.058593-1.7305-0.50781-2.1133-0.34766-1.1914-0.19531-1.0664-0.28516-2.4805-1.0234-0.94531-0.69531-0.12891-1.7617 0.47266-1.1328 0.52734-0.98438 0.67578-1.2539-0.25391-2.0859-0.03125-2.7617-0.32031-1.3477 0.25781-1.6289 0.82812-1.418 0.015625-1.3945-0.070313-2.332 0.4375-1.1328 1.1953-1.6562 0.10547-2.2344 0.21094-1.543-0.81641-1.1758-0.48828-1.0352-0.14453-1.5781 0.074219-1.1211-0.37891-1.1602-0.44922-2.0508-0.078125-2.1641-0.082031-2.3672 0.23047-1.0039 0.55859-2.2852-0.10547-1.6719-0.21094-1.5859-0.52734-2.6133-0.64844-2.1484 0.40625-2.0977 0.058594-1.5742-0.34375-2.2188 0.47266-1.0156 0.32422-1.0391 0.019531-1.2031-0.68359-2.1367-1.0078-3.1641-0.68359-2.8008-0.39844-2.3906 0.36328-2.1523 0.68359-0.86719 0.95703-1.2109 1.3555-2.082 0.9375-1.1094 0.78516-0.92969 0.51562-0.92969 1.3281-1.8047 0.91016-1.832 0.39844 0.99609" fill="none" stroke="#fff" stroke-linecap="round" stroke-linejoin="round" stroke-miterlimit="10" stroke-width="2"/>
<path d="m331.36 177.6 0.75391 1.7109 0.23047 1.7617 0.74219 3.1602 0.61328 7.5977 1.0078 1.5898 0.52344 0.96875-0.10547 1.2188-0.66406 5.6562-0.34375 1.2188-0.21484 1.9219-0.066407 1.1875-0.30859 1.3086-0.44922 1.1133-0.33984 1.0469-1.0352 1.4844-0.62891 1.6953-0.39844 1.4766-0.94141 1.875-1.0781 1.5039-0.72656 1.125-0.80469 0.94922-0.88672 1.9336-0.99609 1.5977-1.6055 1.8242-1.9727 2.8906-0.95703 1.8242-2.6914 2.6016-1.0625 1.25-0.63281 0.91406-0.86328 1.7305-0.89062 0.51562-1.3438-0.27344-1.1016-0.63281-1.7539-1.1484-1.3555-1.0508 0.18359-1.3945-0.53906-0.85547-1.2773-0.35938-1.7266-0.074218-1.1094-0.40625-0.91797-0.60156-0.85547-0.86719-0.83984-1.6797-1.6836-0.75391-1.4648-0.50391-1.9727-1.6758-1.0234 0.28516-1.3789 2.1758-0.75 0.92969-1.4648 0.83984-0.58203 1.3594-0.56641 0.86328-0.21484 1.0977 0.019531 1.5156-0.60156 0.98828-0.35156 1.0977-1.207 1.7461-1.7109 1.5195-0.26953 1.4023-0.83203 1.4102-0.41797 1.1914-0.14453 0.99609-0.027344 3.3633-0.28125 1.0469-0.72266 1.2227-0.22266 1.8125-0.26172 1.125 0.10156 1.0039-0.60156 1.75-1.3477 1.1055-1.4297-0.23438-1.5664-0.85938-1.6875-1.1172-1.3711-0.19922-1.3516 0.5625-1.3047 1.1367-1.1484 1.1719-1.8711 2.3516-0.17578-1.2422-1.1328-1.5312-0.38672-0.97266-0.98047-1.7695-0.14062-1.0078-0.023438-1.3438-0.6875-2.1328-0.68359-1.2773-0.375-1.6328-0.11328-1.1719-0.77734-1.0391-0.80859-1.0039 0.085937-1.2969 0.27734-1.9336-0.25391-1.0391-0.14062-1.4375-0.17578-2.1211-0.14453-1.2305-0.77734-1.3633-0.92578-0.39453-1.3906-0.37109-0.89453-0.95703-1.0078-0.875-1.3242-0.96875-1.6445-0.94531-1.5625-1.6758-0.95703-0.59766-0.92188-1.4609-0.99219-0.44922-1.4727 0.35938-1.1484-0.046875-1.3945-0.92188-0.96484-0.91016-0.5625-0.96875-0.78906-0.92188-1.0195-0.69141-0.55469-0.92188-0.62891-1.3711-0.54297-1.3203-0.39062-1.4609 0.23438-1.3359 1.5352-0.4375 2.0312 0.13281 1.4219 0.30469 1.6445-0.21875 1.125-0.39453 1.3164-0.60938 1.1758-0.93359 1.4648-1.5586 0.82812-0.60938 1.2422-0.39062 1.125-0.90625 1.2656-1.4062 1.6016-0.76172 1.0938-1.8906 0.26562-1.2539 0.29297-1.4922 1.3828 0.29297 0.015625 1.9727-0.80469 2.0391-0.53516 1.3984-0.46484 2.3281 0.097656 1.5859 0.22656 1.125-0.42578 1.0898-0.375 1.9844 1.1484 0.23828 2.0664-0.93359 1.0547-0.87109 1.957-1.0898 1.2109-0.26953 1.0117-0.16406 1.1406-0.33984 1.8477-0.089844 0.96875-0.44141 1.457-1.0234 2.082 0.18359 0.88672 0.55078 1.5625-0.35156 1.0625 0.070312 2.0039 0.18359 1.5508-0.078125 1.5938 0.0625 1.2188 0.12891 1.0273-0.44531 1.3633-0.03125 1.3672 0.39062 1.6367 0.078125 1.0977 0.16406 1.3711-0.066406 1.6992 0.015625 1.4258 0.36719 1.2109 0.14062 1.2656-0.18359 1.6797-0.003906 1.2539-0.625 1.2656-0.80859 1.707-0.85547 1.8555-0.96875 1.0977-1.0547 2.293-1.5859 0.84766-0.83594 2.1328-1.1328 1.0547-0.87109 0.52344-0.90625 1.0742-4.8242 0.40625-1.6719 0.58203-1.082 0.875-0.92578 1.5977-0.61719 2.7852-2.8945 1.2695-0.94922 1.9609-1.2031 1.1133-1.1406 0.55469-1.3008 0.23438-1.0469 0.62109-1.043 0.56641-1.1523 0.77734-1.2812 0.57422-0.83203 0.87109-1.2578z" fill="#ccc" fill-rule="evenodd"/>
<path d="m331.36 177.6 0.75391 1.7109 0.23047 1.7617 0.74219 3.1602 0.61328 7.5977 1.0078 1.5898 0.52344 0.96875-0.10547 1.2188-0.66406 5.6562-0.34375 1.2188-0.21484 1.9219-0.066407 1.1875-0.30859 1.3086-0.44922 1.1133-0.33984 1.0469-1.0352 1.4844-0.62891 1.6953-0.39844 1.4766-0.94141 1.875-1.0781 1.5039-0.72656 1.125-0.80469 0.94922-0.88672 1.9336-0.99609 1.5977-1.6055 1.8242-1.9727 2.8906-0.95703 1.8242-2.6914 2.6016-1.0625 1.25-0.63281 0.91406-0.86328 1.7305-0.89062 0.51562-1.3438-0.27344-1.1016-0.63281-1.7539-1.1484-1.3555-1.0508 0.18359-1.3945-0.53906-0.85547-1.2773-0.35938-1.7266-0.074218-1.1094-0.40625-0.91797-0.60156-0.85547-0.86719-0.83984-1.6797-1.6836-0.75391-1.4648-0.50391-1.9727-1.6758-1.0234 0.28516-1.3789 2.1758-0.75 0.92969-1.4648 0.83984-0.58203 1.3594-0.56641 0.86328-0.21484 1.0977 0.019531 1.5156-0.60156 0.98828-0.35156 1.0977-1.207 1.7461-1.7109 1.5195-0.26953 1.4023-0.83203 1.4102-0.41797 1.1914-0.14453 0.99609-0.027344 3.3633-0.28125 1.0469-0.72266 1.2227-0.22266 1.8125-0.26172 1.125 0.10156 1.0039-0.60156 1.75-1.3477 1.1055-1.4297-0.23438-1.5664-0.85938-1.6875-1.1172-1.3711-0.19922-1.3516 0.5625-1.3047 1.1367-1.1484 1.1719-1.8711 2.3516-0.17578-1.2422-1.1328-1.5312-0.38672-0.97266-0.98047-1.7695-0.14062-1.0078-0.023438-1.3438-0.6875-2.1328-0.68359-1.2773-0.375-1.6328-0.11328-1.1719-0.77734-1.0391-0.80859-1.0039 0.085937-1.2969 0.27734-1.9336-0.25391-1.0391-0.14062-1.4375-0.17578-2.1211-0.14453-1.2305-0.77734-1.3633-0.92578-0.39453-1.3906-0.37109-0.89453-0.95703-1.0078-0.875-1.3242-0.96875-1.6445-0.94531-1.5625-1.6758-0.95703-0.59766-0.92188-1.4609-0.99219-0.44922-1.4727 0.35938-1.1484-0.046875-1.3945-0.92188-0.96484-0.91016-0.5625-0.96875-0.78906-0.92188-1.0195-0.69141-0.55469-0.92188-0.62891-1.3711-0.54297-1.3203-0.39062-1.4609 0.23438-1.3359 1.5352-0.4375 2.0312 0.13281 1.4219 0.30469 1.6445-0.21875 1.125-0.39453 1.3164-0.60938 1.1758-0.93359 1.4648-1.5586 0.82812-0.60938 1.2422-0.39062 1.125-0.90625 1.2656-1.4062 1.6016-0.76172 1.0938-1.8906 0.26562-1.2539 0.29297-1.4922 1.3828 0.29297 0.015625 1.9727-0.80469 2.0391-0.53516 1.3984-0.46484 2.3281 0.097656 1.5859 0.22656 1.125-0.42578 1.0898-0.375 1.9844 1.1484 0.23828 2.0664-0.93359 1.0547-0.87109 1.957-1.0898 1.2109-0.26953 1.0117-0.16406 1.1406-0.33984 1.8477-0.089844 0.96875-0.44141 1.457-1.0234 2.082 0.18359 0.88672 0.55078 1.5625-0.35156 1.0625 0.070312 2.0039 0.18359 1.5508-0.078125 1.5938 0.0625 1.2188 0.12891 1.0273-0.44531 1.3633-0.03125 1.3672 0.39062 1.6367 0.078125 1.0977 0.16406 1.3711-0.066406 1.6992 0.015625 1.4258 0.36719 1.2109 0.14062 1.2656-0.18359 1.6797-0.003906 1.2539-0.625 1.2656-0.80859 1.707-0.85547 1.8555-0.96875 1.0977-1.0547 2.293-1.5859 0.84766-0.83594 2.1328-1.1328 1.0547-0.87109 0.52344-0.90625 1.0742-4.8242 0.40625-1.6719 0.58203-1.082 0.875-0.92578 1.5977-0.61719 2.7852-2.8945 1.2695-0.94922 1.9609-1.2031 1.1133-1.1406 0.55469-1.3008 0.23438-1.0469 0.62109-1.043 0.56641-1.1523 0.77734-1.2812 0.57422-0.83203 0.87109-1.2578v0.003906" fill="none" stroke="#fff" stroke-linecap="round" stroke-linejoin="round" stroke-miterlimit="10" stroke-width="2"/>
<path d="m160.96 237.66 1.2656 0.33203 1.9492-0.22656 0.91406 0.57812 0.51953 0.97656 0.68359 0.94141 1.5664 0.91016 1.4844 0.26562 2.0938-0.85156 1.0781-0.35156 1.0781-0.023438 0.6875 1.2734v1.8711l0.47266 1.2188-0.14453 2.2383-0.33203 1.0117-0.82422 1.1211-2.8711 1.3477-0.89844 0.95312 0.59375 1.5625-0.22266 1.1055 1.2422 0.47266 2.8359 0.80469 0.69531 0.87891 1.1133 1.3867 0.64844 1.707 0.75 1.1992 1.1953 1.3711 0.51172 1.1406 0.80859 1.0703 1.1562 0.89453 0.25 1.0547 0.17188 1.0742-0.79688 1.9727-0.39062 0.99609-0.14062 1.2812-0.45703 1.2148 0.39844 1.0117 0.64844 0.85156 0.75781 1.3398 0.45312 1.5352-0.60156 1.0547-0.98828 1.7539 1.1875 1.6953 0.023438 2.5547 0.82031 2.8789-0.46094 2.0117-1.6172 2.0508-0.98047 0.53125-1.0234-0.26953-2.8516-0.35938-2.75-0.27344-1.2969 0.92578 0.125 1.6992-0.89062 2.2461-1.332 1.0234-1.0625 1.1445-2.1602 2.7773-2.7773 2.8594-1.8203 1.3711-1.832 0.35938-1.2383 0.125-1.0352-0.046875-1.3633-0.49219-1.9688 1.0977-2.0156 0.39453-2.1758-0.87109-1.2539-0.19141-1.7656 0.28516-1.8555 3.1133-1.2969 0.49219-1.1211-0.40625-1.2109 0.14844-1.4648 0.80078-1.4961 0.45703-0.98438 0.46094-1.0156 1.5547-1.9883 0.80859-0.87109 0.8125-0.33594 1.3633-0.64062 1.3984-1.9102 0.65234h-1.5742l-0.76562 0.76172-1.6328 0.28516-1.1133 0.16016-1.0312 1.2383-0.80078 1.3984-0.91406 0.85547-0.14453 1.4609-0.45703 1.1445-1.0898 0.58203-1.293 1.1797-0.60156 0.89453-1 0.015625-2.3711 0.81641-1.3164 1.4492-1.3398 1.1211-1.9609 1.0039-0.92188 0.79688-0.96875 1.043-1.0469 1.3711 0.29688 1.4375 0.22656 1.2109-0.066407 1.082-0.25391 1.0312-1.0156 1.3164-1.1758 1.4609-0.42578 1.4961-0.48438 1.3594 0.46875 1.5117 0.035156 1.1445-0.43359 1.3828-0.63672 2.0156-0.53125 1.1836-1.2461 1.8906-0.66797 0.76953-1.0078 1.0312-1.1328 0.95312-0.8125 0.85547-0.66406 1.4297-0.35156 1.8516-0.85156 0.94531-1.7109 0.35547-1.7891-0.13672-1.2695 0.30469-1.0078 1.1211 0.066406 2.0898-1.3633 1.4648-1.6484 2.1172-1.168 0.37891-1.2227 0.84375-0.82422 0.83984-0.097656 1.418-1.3711 0.85547-2.2734 1.0078-1.2031 0.60938-0.83984 0.89062-0.54688 1.418-0.57422 1.1523-0.6875 1.6445-0.32031 1.0742-0.75781 0.67969-0.78516 0.66016-0.75 0.67578-1.4023 0.12891-1.0039 0.23438-2.4219 0.24609-1.5859 0.8125-0.95312 0.52344-0.99219 0.48438-1.5 1.0156-0.87109 1.0391-1.0078 1.6992-1.0352 0.48438-0.89453 0.86719-0.98047 1.1445-0.72266 0.83984-0.88281 1.3789-0.80859 0.92188-1.0234 0.54688-1.4922 0.61719-1.1289 0.96484-1.1992 0.68359-1.4062 0.80078-2.9844 1.3516-2.0625-0.29688-1.0547-1.582-1.3516-1.0586-0.85156-0.60547-0.53125-1.1758-0.32422-1.0898-0.59375-0.875-1.3672-0.72656-1.1992-0.37891-1.207-0.48438-1.168-0.3125-0.46094-0.97266-0.84766-0.82031-0.75781-0.73828-0.98828-0.76172-1.2891-0.67188-0.64844-0.91016-0.85156-0.69531-0.78906-0.64453-0.91406-0.84375-0.94531-0.45703-1.5078-0.39062-0.875-0.57031-1.6523-0.61328-1.4922-1.4141-0.62891-0.81641-0.054687-1.9062-0.15625-1.0391v-1.4062l-0.73438-1.2578-1.0547-0.29688-0.13281-1.0234 0.74219-0.74609 1.4414-1.2812 1.168-0.79297 1.3828-1.3516 1.1953-0.95312 1.3086-1.0938 1.0703-0.40625 1.2812-0.94922 0.80859-1.2812 1.0156-0.82422 1.2578-0.039062 1.375-0.92188 1.25-1.4844 1.4609-0.88281 1.043-1.7734 0.67188-0.87891 0.89062-0.86328 0.88672-0.98047 0.66797-1.2383-0.36719-1.5312-0.82812-0.875-1.8906-1.7539-0.94531-1.375-0.67188-1.2383-0.85938-0.75781-1.4258-0.82422-1.5469-1.4961-1.2891-0.46484-1.582-0.13672-1.582-0.42969-1.1875-0.42969-1.668-0.46484-1.0938-0.33203-0.9375-0.41016-0.82031-0.98438-0.58984-1.6797-1.2695-0.51562-1.2578-0.98047-0.89453-0.89453-1.3672-1.1133-0.86719-0.86328-1.5469-0.65234-1.3594-0.87891-0.73828-1.4766-1.8477-2.5586-1.9688-2.7266-1.3438-1.3906-0.48047-1.4609-1.1367-1.4766-1.6836-0.63672-2.6016-0.27734-0.66016-0.91406 0.41016-1.6562 0.49609-1.2891 0.35938-1.0625 0.74609-0.90625 1.3945-0.93359 1.2812-1.2422 0.17578-2.3711-0.40234-1.0977-0.14062-1.1641-0.19531-1.1211 0.42969-3.0391 0.34766-0.98828-0.63672-1.3008-0.31641-1.1719-0.0625-1.4805-0.11328-1.3711-0.78516-0.88281-0.96875-1.5117-1.2188-0.91797-0.81641-0.89844-0.43359-1.3047-0.32812-0.98438 0.10938-2.3477 0.52344-1.125 0.8125-0.96875 1.4258-1.6992 1.0742-1.1367-0.03125-1.7969-0.21484-2.2422 0.066406-1.1367 0.18359-0.98438 0.80859-1.0195 0.45703-1.2891 0.14844-1.2617 0.53516-1.2344 0.6875-0.9375 1.4023-1.5625 0.55469-1.3438 0.17188-3.168 0.35938-1.8047 1.0039-2.0195 1.0273-3.0234 0.60547-1.1523 1.082-1.207 0.90625-0.57422 1.3008-0.21484 2.3516-0.13281 0.73828 0.83984 1.918 0.71094 1.8555-0.13672 1.4062 0.74219 1.3164 0.46094 1.9375 0.6875 1.7109-0.4375 1.3125-0.38672 1.1602 0.10156 1.6094 0.082031 1.2812 0.32422 1.6094 0.03125 1.5-0.09375 2.0625-0.60938 1.4609-0.41016 1.2539-0.72656 0.77344-0.66406 1.3906-0.83203 1.375 0.011719 1.1289 0.25 1.918 0.83203 2.0547 0.078125 2.1523 0.58984 1.0547-0.015625 1.6328-0.29297 1.2852-0.34375 1.2656-0.12109 1.7148-0.63672 1.0859-0.37109 1.3125 1.4414 0.89844 1.2656 0.64844 1.3008 0.55078 0.90625 1.2188 0.52734 1.0938 0.35156 1.6758 0.28125 2.0938-0.027344 1.5 0.72656 0.92578 0.57422 1.6016-0.023437 1.1719-0.69531 0.67578-1.3398 1.207-0.75781 1.0039-0.26172 0.80859-1.2266 2.5469-0.51953 1.3438-0.25 1.3242 0.65234 3.0234-0.40234 4.1562-0.16016 1.9492-0.32422 1.7227 0.003907 0.93359 0.41016 1.9648 2.0625 1.1445 0.58984 1.0156 0.35156 1.7422 0.88672 4.9102 0.42578 2.9961-0.26562 2.5664 0.24219 2.3516 1.4727 1.1875 1.5625 0.98047 1.2969 0.625 1.3398 1.9609-0.31641 0.98438-0.78125 1.2891-0.42969 1.6992 0.81641 1.1953 0.003906 0.59766-1.3633 1.5781-1.3359 1.3672-1.7461 1.2109-0.71094 0.90234-0.49609 0.98047-1.0156 1.0859-0.15625 1.6445-0.097657 1.9141 0.14844 3.6758 0.59766 1.1094 0.19531 1.043-0.097657 1.0117-0.95703 1.2266-2.125 1.0273-0.81641 0.91406-0.63281 1.5352-1.2656 0.99609-0.98438 0.69141-1.2383 0.78906-1.6758 0.75781-1.3242-0.11719-1.0703 0.17578-1.25 0.042968-1.1719-0.066406-1.0781 2.4766-1.9141 0.76562-0.74609 0.98438-0.84375 1.1445-0.64062 0.46094-1.0117-0.0625-1.2148 0.63672-0.87109 0.50781-0.96875 0.97266 0.23828 1.2539-0.78906z" fill="#ccc" fill-rule="evenodd"/>
<path d="m160.96 237.66 1.2656 0.33203 1.9492-0.22656 0.91406 0.57812 0.51953 0.97656 0.68359 0.94141 1.5664 0.91016 1.4844 0.26562 2.0938-0.85156 1.0781-0.35156 1.0781-0.023438 0.6875 1.2734v1.8711l0.47266 1.2188-0.14453 2.2383-0.33203 1.0117-0.82422 1.1211-2.8711 1.3477-0.89844 0.95312 0.59375 1.5625-0.22266 1.1055 1.2422 0.47266 2.8359 0.80469 0.69531 0.87891 1.1133 1.3867 0.64844 1.707 0.75 1.1992 1.1953 1.3711 0.51172 1.1406 0.80859 1.0703 1.1562 0.89453 0.25 1.0547 0.17188 1.0742-0.79688 1.9727-0.39062 0.99609-0.14062 1.2812-0.45703 1.2148 0.39844 1.0117 0.64844 0.85156 0.75781 1.3398 0.45312 1.5352-0.60156 1.0547-0.98828 1.7539 1.1875 1.6953 0.023438 2.5547 0.82031 2.8789-0.46094 2.0117-1.6172 2.0508-0.98047 0.53125-1.0234-0.26953-2.8516-0.35938-2.75-0.27344-1.2969 0.92578 0.125 1.6992-0.89062 2.2461-1.332 1.0234-1.0625 1.1445-2.1602 2.7773-2.7773 2.8594-1.8203 1.3711-1.832 0.35938-1.2383 0.125-1.0352-0.046875-1.3633-0.49219-1.9688 1.0977-2.0156 0.39453-2.1758-0.87109-1.2539-0.19141-1.7656 0.28516-1.8555 3.1133-1.2969 0.49219-1.1211-0.40625-1.2109 0.14844-1.4648 0.80078-1.4961 0.45703-0.98438 0.46094-1.0156 1.5547-1.9883 0.80859-0.87109 0.8125-0.33594 1.3633-0.64062 1.3984-1.9102 0.65234h-1.5742l-0.76562 0.76172-1.6328 0.28516-1.1133 0.16016-1.0312 1.2383-0.80078 1.3984-0.91406 0.85547-0.14453 1.4609-0.45703 1.1445-1.0898 0.58203-1.293 1.1797-0.60156 0.89453-1 0.015625-2.3711 0.81641-1.3164 1.4492-1.3398 1.1211-1.9609 1.0039-0.92188 0.79688-0.96875 1.043-1.0469 1.3711 0.29688 1.4375 0.22656 1.2109-0.066407 1.082-0.25391 1.0312-1.0156 1.3164-1.1758 1.4609-0.42578 1.4961-0.48438 1.3594 0.46875 1.5117 0.035156 1.1445-0.43359 1.3828-0.63672 2.0156-0.53125 1.1836-1.2461 1.8906-0.66797 0.76953-1.0078 1.0312-1.1328 0.95312-0.8125 0.85547-0.66406 1.4297-0.35156 1.8516-0.85156 0.94531-1.7109 0.35547-1.7891-0.13672-1.2695 0.30469-1.0078 1.1211 0.066406 2.0898-1.3633 1.4648-1.6484 2.1172-1.168 0.37891-1.2227 0.84375-0.82422 0.83984-0.097656 1.418-1.3711 0.85547-2.2734 1.0078-1.2031 0.60938-0.83984 0.89062-0.54688 1.418-0.57422 1.1523-0.6875 1.6445-0.32031 1.0742-0.75781 0.67969-0.78516 0.66016-0.75 0.67578-1.4023 0.12891-1.0039 0.23438-2.4219 0.24609-1.5859 0.8125-0.95312 0.52344-0.99219 0.48438-1.5 1.0156-0.87109 1.0391-1.0078 1.6992-1.0352 0.48438-0.89453 0.86719-0.98047 1.1445-0.72266 0.83984-0.88281 1.3789-0.80859 0.92188-1.0234 0.54688-1.4922 0.61719-1.1289 0.96484-1.1992 0.68359-1.4062 0.80078-2.9844 1.3516-2.0625-0.29688-1.0547-1.582-1.3516-1.0586-0.85156-0.60547-0.53125-1.1758-0.32422-1.0898-0.59375-0.875-1.3672-0.72656-1.1992-0.37891-1.207-0.48438-1.168-0.3125-0.46094-0.97266-0.84766-0.82031-0.75781-0.73828-0.98828-0.76172-1.2891-0.67188-0.64844-0.91016-0.85156-0.69531-0.78906-0.64453-0.91406-0.84375-0.94531-0.45703-1.5078-0.39062-0.875-0.57031-1.6523-0.61328-1.4922-1.4141-0.62891-0.81641-0.054687-1.9062-0.15625-1.0391v-1.4062l-0.73438-1.2578-1.0547-0.29688-0.13281-1.0234 0.74219-0.74609 1.4414-1.2812 1.168-0.79297 1.3828-1.3516 1.1953-0.95312 1.3086-1.0938 1.0703-0.40625 1.2812-0.94922 0.80859-1.2812 1.0156-0.82422 1.2578-0.039062 1.375-0.92188 1.25-1.4844 1.4609-0.88281 1.043-1.7734 0.67188-0.87891 0.89062-0.86328 0.88672-0.98047 0.66797-1.2383-0.36719-1.5312-0.82812-0.875-1.8906-1.7539-0.94531-1.375-0.67188-1.2383-0.85938-0.75781-1.4258-0.82422-1.5469-1.4961-1.2891-0.46484-1.582-0.13672-1.582-0.42969-1.1875-0.42969-1.668-0.46484-1.0938-0.33203-0.9375-0.41016-0.82031-0.98438-0.58984-1.6797-1.2695-0.51562-1.2578-0.98047-0.89453-0.89453-1.3672-1.1133-0.86719-0.86328-1.5469-0.65234-1.3594-0.87891-0.73828-1.4766-1.8477-2.5586-1.9688-2.7266-1.3438-1.3906-0.48047-1.4609-1.1367-1.4766-1.6836-0.63672-2.6016-0.27734-0.66016-0.91406 0.41016-1.6562 0.49609-1.2891 0.35938-1.0625 0.74609-0.90625 1.3945-0.93359 1.2812-1.2422 0.17578-2.3711-0.40234-1.0977-0.14062-1.1641-0.19531-1.1211 0.42969-3.0391 0.34766-0.98828-0.63672-1.3008-0.31641-1.1719-0.0625-1.4805-0.11328-1.3711-0.78516-0.88281-0.96875-1.5117-1.2188-0.91797-0.81641-0.89844-0.43359-1.3047-0.32812-0.98438 0.10938-2.3477 0.52344-1.125 0.8125-0.96875 1.4258-1.6992 1.0742-1.1367-0.03125-1.7969-0.21484-2.2422 0.066406-1.1367 0.18359-0.98438 0.80859-1.0195 0.45703-1.2891 0.14844-1.2617 0.53516-1.2344 0.6875-0.9375 1.4023-1.5625 0.55469-1.3438 0.17188-3.168 0.35938-1.8047 1.0039-2.0195 1.0273-3.0234 0.60547-1.1523 1.082-1.207 0.90625-0.57422 1.3008-0.21484 2.3516-0.13281 0.73828 0.83984 1.918 0.71094 1.8555-0.13672 1.4062 0.74219 1.3164 0.46094 1.9375 0.6875 1.7109-0.4375 1.3125-0.38672 1.1602 0.10156 1.6094 0.082031 1.2812 0.32422 1.6094 0.03125 1.5-0.09375 2.0625-0.60938 1.4609-0.41016 1.2539-0.72656 0.77344-0.66406 1.3906-0.83203 1.375 0.011719 1.1289 0.25 1.918 0.83203 2.0547 0.078125 2.1523 0.58984 1.0547-0.015625 1.6328-0.29297 1.2852-0.34375 1.2656-0.12109 1.7148-0.63672 1.0859-0.37109 1.3125 1.4414 0.89844 1.2656 0.64844 1.3008 0.55078 0.90625 1.2188 0.52734 1.0938 0.35156 1.6758 0.28125 2.0938-0.027344 1.5 0.72656 0.92578 0.57422 1.6016-0.023437 1.1719-0.69531 0.67578-1.3398 1.207-0.75781 1.0039-0.26172 0.80859-1.2266 2.5469-0.51953 1.3438-0.25 1.3242 0.65234 3.0234-0.40234 4.1562-0.16016 1.9492-0.32422 1.7227 0.003907 0.93359 0.41016 1.9648 2.0625 1.1445 0.58984 1.0156 0.35156 1.7422 0.88672 4.9102 0.42578 2.9961-0.26562 2.5664 0.24219 2.3516 1.4727 1.1875 1.5625 0.98047 1.2969 0.625 1.3398 1.9609-0.31641 0.98438-0.78125 1.2891-0.42969 1.6992 0.81641 1.1953 0.003906 0.59766-1.3633 1.5781-1.3359 1.3672-1.7461 1.2109-0.71094 0.90234-0.49609 0.98047-1.0156 1.0859-0.15625 1.6445-0.097657 1.9141 0.14844 3.6758 0.59766 1.1094 0.19531 1.043-0.097657 1.0117-0.95703 1.2266-2.125 1.0273-0.81641 0.91406-0.63281 1.5352-1.2656 0.99609-0.98438 0.69141-1.2383 0.78906-1.6758 0.75781-1.3242-0.11719-1.0703 0.17578-1.25 0.042968-1.1719-0.066406-1.0781 2.4766-1.9141 0.76562-0.74609 0.98438-0.84375 1.1445-0.64062 0.46094-1.0117-0.0625-1.2148 0.63672-0.87109 0.50781-0.96875 0.97266 0.23828 1.2539-0.78906 0.97656 0.019531" fill="none" stroke="#fff" stroke-linecap="round" stroke-linejoin="round" stroke-miterlimit="10" stroke-width="2"/>
<path d="m288.2 174.94 0.75781 0.32422 1.9609 0.19141 0.99609-0.23047 1.0078-0.17188 0.125 1.457-2.1211 0.70703-1.207 0.042969-1.7969 0.43359-1.1484 0.57422-1.668 0.67188-0.97266 0.67969-1.7969 0.63281-1.7656 0.16797-1.9219 0.21094-1.6211 0.66406-1.457 1.1641-0.71484 1.6328 0.54688 1.0742 0.20312 1.0898-0.39844 2.5391 0.10938 2.5391-1.0938 2.2734-3.0352 3.543-1.6094-0.015625-1.7695-0.55859-1.7422-0.78125-1.7812 0.089844-1.4922-0.24609-1.3945 0.26172v1.2539l1.5195 0.50391 1.332 0.66797 1.3867 1.1992 1.0117 0.58594 1.1172 0.34375 1.1836 0.21875 1.7383 1.3477 2.5312 1.375 1.1875 0.84375 1.9844 2.1641 1.4141 0.50781-0.50781 1.5664-0.6875 0.94922-1.3438-0.058593-1.8008 0.38281-0.96875 0.82812-1.6289 0.15625-1.9258 0.44531-1.0117 0.16406-1.2109 0.26953-1.332 0.66406-1.6797 1.2969-1.1406 0.6875-2.2852 0.3125 0.58594-2.2891 0.42578-1.0898-0.22656-1.125-0.097656-1.5859 0.46484-2.3281 0.53516-1.3984 0.52734-1.1719 0.42188-1.9883-0.82422-1.3555-0.96094 0.85156-0.31641 2.1055-0.50781 1.1172-2.0312 1.4414-0.84766 0.98438-1.6992 1.4219-1.2422 0.39062-0.82812 0.60938-0.82812 1.1602-1.8125 1.332-1.3164 0.60938-1.125 0.39453-1.6445 0.21875-1.4219-0.30469-1.5938-0.23047-1.6758 0.375-1.6289-1.2305-0.60547-0.98438-1.4297-0.066406-1.3477 0.125-1.0508 0.015625-1.0273-0.097656-0.82812-0.59375-1.125-1.3828-1.4844-0.51562 0.95312-1.918 0.92969-0.95703 0.98828-1.1328 1.9805-2.5664 0.88672-0.66797 2.4648-1.1914 1.1055-0.58594 1.3516-0.65234 0.49219-1.0781 0.57812-0.98828 0.60938-0.87891 1.5273-1.6211 0.87891-1.125 1.0469-0.82031 1.2266-1.0352 1.2734-0.82031 1.6484-1.7227 3.1172-2.6758 1.2891-0.53906 1.8203-0.42188 1.1875-0.53906 1.2969-0.53906 0.99609-0.41016 1.1914-0.38281 1.7266-0.18359 2.293 0.34766 1.2422 0.11328 1.2305-0.82422 1.4727-0.78516 0.80859-0.61328 2.5742-1.8438 1.2539-0.61328 1.4883-0.30469 1.5977 0.046875 1.2617-0.13281 1.6484-0.56641 1.3594-1.0352 1.0625-0.47266 1.4805-0.21875 1.3516-0.49609 1.2188-0.27734z" fill="#ccc" fill-rule="evenodd"/>
<path d="m288.2 174.94 0.75781 0.32422 1.9609 0.19141 0.99609-0.23047 1.0078-0.17188 0.125 1.457-2.1211 0.70703-1.207 0.042969-1.7969 0.43359-1.1484 0.57422-1.668 0.67188-0.97266 0.67969-1.7969 0.63281-1.7656 0.16797-1.9219 0.21094-1.6211 0.66406-1.457 1.1641-0.71484 1.6328 0.54688 1.0742 0.20312 1.0898-0.39844 2.5391 0.10938 2.5391-1.0938 2.2734-3.0352 3.543-1.6094-0.015625-1.7695-0.55859-1.7422-0.78125-1.7812 0.089844-1.4922-0.24609-1.3945 0.26172v1.2539l1.5195 0.50391 1.332 0.66797 1.3867 1.1992 1.0117 0.58594 1.1172 0.34375 1.1836 0.21875 1.7383 1.3477 2.5312 1.375 1.1875 0.84375 1.9844 2.1641 1.4141 0.50781-0.50781 1.5664-0.6875 0.94922-1.3438-0.058593-1.8008 0.38281-0.96875 0.82812-1.6289 0.15625-1.9258 0.44531-1.0117 0.16406-1.2109 0.26953-1.332 0.66406-1.6797 1.2969-1.1406 0.6875-2.2852 0.3125 0.58594-2.2891 0.42578-1.0898-0.22656-1.125-0.097656-1.5859 0.46484-2.3281 0.53516-1.3984 0.52734-1.1719 0.42188-1.9883-0.82422-1.3555-0.96094 0.85156-0.31641 2.1055-0.50781 1.1172-2.0312 1.4414-0.84766 0.98438-1.6992 1.4219-1.2422 0.39062-0.82812 0.60938-0.82812 1.1602-1.8125 1.332-1.3164 0.60938-1.125 0.39453-1.6445 0.21875-1.4219-0.30469-1.5938-0.23047-1.6758 0.375-1.6289-1.2305-0.60547-0.98438-1.4297-0.066406-1.3477 0.125-1.0508 0.015625-1.0273-0.097656-0.82812-0.59375-1.125-1.3828-1.4844-0.51562 0.95312-1.918 0.92969-0.95703 0.98828-1.1328 1.9805-2.5664 0.88672-0.66797 2.4648-1.1914 1.1055-0.58594 1.3516-0.65234 0.49219-1.0781 0.57812-0.98828 0.60938-0.87891 1.5273-1.6211 0.87891-1.125 1.0469-0.82031 1.2266-1.0352 1.2734-0.82031 1.6484-1.7227 3.1172-2.6758 1.2891-0.53906 1.8203-0.42188 1.1875-0.53906 1.2969-0.53906 0.99609-0.41016 1.1914-0.38281 1.7266-0.18359 2.293 0.34766 1.2422 0.11328 1.2305-0.82422 1.4727-0.78516 0.80859-0.61328 2.5742-1.8438 1.2539-0.61328 1.4883-0.30469 1.5977 0.046875 1.2617-0.13281 1.6484-0.56641 1.3594-1.0352 1.0625-0.47266 1.4805-0.21875 1.3516-0.49609 1.2188-0.27734 0.57422 0.078125" fill="none" stroke="#fff" stroke-linecap="round" stroke-linejoin="round" stroke-miterlimit="10" stroke-width="2"/>
<path d="m243.6 219.03v0.003906l1.25 0.94531 0.78906 0.92188 0.5625 0.96875 0.96484 0.91016 1.3945 0.92188 1.1484 0.046875 1.4727-0.35938 0.99219 0.44922 0.92188 1.4609 0.95703 0.59766 1.0117 1.0234 1.293 1.2383 1.6094 0.78906 1.625 1.4141 0.89453 0.95703 0.9375 0.42969 1.0039-0.070312 0.90625 1.168 0.39062 1.832-0.011718 1.1992 0.32812 2.3594 0.25391 1.0391-0.27734 1.9336-0.085937 1.2969-0.54297 0.83984-1.0352 0.64453-1.082 1.1055-0.78125 1.1602-1.0938 1.0703-1.3047 0.91797-1.2578 0.91016-1.0352 0.49219-0.67188 1.418-0.078125 2.0938-0.45312 1.2539-0.54297 1.0312-1.0352 0.72266-0.98047 0.44141-2.4023 0.28906-1.6094 0.73438-1.0742 1.0898-0.76562 1.5898-0.53125 2.4336-0.83203 1.582-0.99219 0.44531-1.1953 2.2148-0.37109 1.5078-0.34766 1.6953-0.17188 3.1367-0.085938 1.0469-1.3125 2.293-0.51172 1.3594-0.52344 1.293-0.59766 0.96094-1.6406 0.69141-1.6523 0.86328-2.6133 0.37109-0.9375 1.168-1.3945 2.1953-1.1211 0.875-1.8828 1.4961-1.332 1.2148-1.7109 0.53906-1.2031 0.023437-0.77344-0.72266-1.0664-0.23047-1.1367-0.24219-1.207 0.12109-1.0977 0.26172-0.86328 1.2578-1.1328 0.39453-1.418 0.30469-1.8789 0.32422-2.6211-0.082031-1.0273 0.69141-0.078125 1.582-0.73438 1.4531-1.0781 1.9062-0.59375 0.92188-0.63672 1.2148-0.42188 1.0195-0.3125 1.6836v2.5703l-0.98828 1.1602-1.3242 0.69531-0.50781 0.9375v1.3281l0.35547 1.25 0.40234 3.4961 1.3867 2.7227 0.76172 1.9414 0.625 0.84375 0.20312 2.0625 2.2383 0.40234 1.3438 0.058594 0.9375 0.49219 0.91016 1.2852 0.65625 1.2969 1 1.5078 1 1.0117 1.1797 0.59766 1.4844 1.3633 2.3633 0.81641 2.5273 1.8984 1.0312 0.92578 0.71484 1.2109 0.5625 1.9727 2.2617 3.2031-0.26953 0.96875 0.20312 1.4648 0.085938 1.5977-0.23828 1.2773-0.98828 1.2617 0.15234 1.4102-0.5625 1.0742-1.1094 1.375-1.2969 0.72656-0.45312 1.1953-0.71484 2.7344-1.1719 1.1172-1.1094 0.71875-0.16797 1.6641-0.84375 1.8398-0.73047 1.6016-0.58984 1.7422-0.10547 1.2734-1.9336-0.29297-2.1172 0.70703-0.71875 0.90625-0.59375 1.2969-0.73047 0.77344 0.050781 1.3125 0.92188 1.2539 0.40234 1.8633 1.0469 1.9844 0.050781 1.0078 0.26562 1.3516 0.56641 1.2344-0.097657 1.4766-0.88672 0.94922-1.3125 0.71875-0.95703 0.39062-0.87109 0.71875 0.16406 1.5039-0.98438 0.25-1.0352 0.0625-2.0938-0.13672-0.85938 0.64453-0.90625 0.5625-1.2188 0.46875-1.2578 0.29297-1.3672 0.21875-1.2461-0.125-1.4492 0.12109-2.5938-0.45312-1.8281-0.39453-2.1289-0.45703-1.2461-0.47656-1.1797-0.12109-1.6602 0.18359-1.3594-0.078125-1.375-0.14453-1.1875 0.027344-1.4648 1.125-1.3203-0.29297-0.6875 0.94141-1.75 0.3125-1.1875-0.30469-1.7227-0.89062-1.082-0.32812-1.3086-0.20312-1.625 0.15625-1.5117 0.14453-1.0703 0.15234-1.7383 0.37109-1.75 0.80859-2.2344 0.48047-1.0742-0.32422-2.7461-1.0547-0.35547-0.98047-0.93359-1.4844-0.88672-1.2578-0.55469-1.4219-0.75-1.3477-0.50781-1.207-0.50391-1.0078-0.91797-0.85938-0.84375-0.69922-0.85938-0.71094-1.2891-1.2305-1.2812-1.082-1.2656-1.0547-1.4102-0.55078-1.3867 0.81641-1.6094 1.5273-1.3438 1.6719-1.2695 1.0273-1.2031 1.0312-0.83984 1.3125-1.5859 0.83984-1.2617 0.32812-0.93359 0.49609-0.75781 0.85547-0.88672 1.3945-1.1055 0.80859-0.94141 0.46484-1.5078 1.1133-1.0742 1.0469-0.96484 1.1328-1.6055 0.17578-1.8711 0.83594-2.2695 1.2031-1.1797 0.57422 0.66016-1.9062 0.68359-1.6094 0.17188-1.2578 0.097656-1.543 0.44531-1.418-0.1875-1.3711 0.31641-1.082 0.14062-1.2734 0.87891-1.3281 0.82422-3.1602 0.22266-0.99609 0.50781-1.3125 0.82422-1.5547 1.0039-0.77734 0.75781-1.1055 1.3984-1.0742 0.68359-0.78906 0.44531-2.5195 1.6289-1.2305 1.0781-0.60156 1.5039-1.1289 0.61328-0.87891 0.69141-2.4805 0.17578-2.707 0.125-1.6797 0.86719-2.2461 1.6133-1.3906 0.90234-0.77734 1.3555-2.1289 0.28516-1.4102-0.33594-1.0234-0.35156-1.0781 0.42969-0.99219 2.4883-0.87109 1.6875-0.51953 1.1367-0.34766 1.1523-0.80469 1.1875-1.3047 2.1484-1.7422 1.0781-0.48828 0.75391-0.75 0.375-0.92969 1.1445-1.5156 0.88672-0.51562 1.3516-0.125 1.0742 0.078125 1.6367-1.707 0.66406-0.89062 0.4375-1.0391 2.0312 0.40234 1.5117 0.68359 1.7969-0.18359 1.4805-0.15234 1.3008-0.37109 2.207-0.78125 2.332-0.75 1.5781-0.19531 1.3828-0.035157 1.6328-0.039062 1.0508-0.30859 3.5859-1.0508 0.70703-1.0664 0.078125-1.3008 1.5273-0.60938 0.97656-0.63281-0.0625-1.2266 0.33594-1.6367 0.78125-2.4609 0.93359-1.0391 1.0117-1.0586 1.332-0.59375 0.85938-1.1484 1.0742-0.98828 0.90625-2.6758 0.097656-1.5234 0.56641-1.5664 0.94141-1.4688 0.73828-0.81641 1.6406-0.69531 0.66797-0.98438 0.35938-1.1133 0.42969-1.3359 0.21484-2.5547 0.023437-1.2383-0.44141-1.7109-0.53516-0.86719-3.3867-3.3633-1.3867-0.69141-1.5508-0.38281-0.8125-1.1953 0.95312-0.875 0.054687-2.8828-0.16406-1.332 1.1953-0.9375 1.9961-0.17578 0.98047-0.66406 0.61328-1.3945 0.11328-1.2227 1.4844-1.1445 1.2461-1.2031 1.957-1.9258 1.3359-1.3438 1.1406-1.1484 1.2148-0.82812 1.3516-0.28125 1.2812-0.76953 1.4102-0.66797 1.1836-1.6602 1.2812-0.62891 1.1797-0.058594 1.4531-0.875 2.4609-0.51562 0.85938-0.53516 1.125-0.93359 2.0039-1.5273 1.8125-0.32422 2.1953-2.4805 3.3047 0.39453 1.2891-0.17188 1.4883-0.57812 1.9297-0.54688 1.0234-0.375 1.1172-0.57812 1.4883-1.1289 1.5508-1.707 1.7266-1.1953 0.64844-1.043 2.457-1.0508 1.2266-1.0898 0.59375-1.0312 0.36328-1.1133 1.2305-0.94141 1.0273-0.51172 0.61719-1.2812-0.84766-2.9258-0.10938-1.7734 1.5078-3.5039 0.30859-1.582-0.44922-1.8281-0.80469-0.67188-2.3398-0.35547-1.1562-0.22266-1.1211-0.51562-1.707 0.12891-0.43359-1.3633-0.59766-1.2695-0.16406-1.4258 0.10547-1.082 0.38672-0.97266 0.82422-1.2188 0.74609-0.72656 0.38281-1.5078 0.87109-0.82812 0.70703-0.79297z" fill="#ccc" fill-rule="evenodd"/>
<path d="m243.6 219.03v0.003906l1.25 0.94531 0.78906 0.92188 0.5625 0.96875 0.96484 0.91016 1.3945 0.92188 1.1484 0.046875 1.4727-0.35938 0.99219 0.44922 0.92188 1.4609 0.95703 0.59766 1.0117 1.0234 1.293 1.2383 1.6094 0.78906 1.625 1.4141 0.89453 0.95703 0.9375 0.42969 1.0039-0.070312 0.90625 1.168 0.39062 1.832-0.011718 1.1992 0.32812 2.3594 0.25391 1.0391-0.27734 1.9336-0.085937 1.2969-0.54297 0.83984-1.0352 0.64453-1.082 1.1055-0.78125 1.1602-1.0938 1.0703-1.3047 0.91797-1.2578 0.91016-1.0352 0.49219-0.67188 1.418-0.078125 2.0938-0.45312 1.2539-0.54297 1.0312-1.0352 0.72266-0.98047 0.44141-2.4023 0.28906-1.6094 0.73438-1.0742 1.0898-0.76562 1.5898-0.53125 2.4336-0.83203 1.582-0.99219 0.44531-1.1953 2.2148-0.37109 1.5078-0.34766 1.6953-0.17188 3.1367-0.085938 1.0469-1.3125 2.293-0.51172 1.3594-0.52344 1.293-0.59766 0.96094-1.6406 0.69141-1.6523 0.86328-2.6133 0.37109-0.9375 1.168-1.3945 2.1953-1.1211 0.875-1.8828 1.4961-1.332 1.2148-1.7109 0.53906-1.2031 0.023437-0.77344-0.72266-1.0664-0.23047-1.1367-0.24219-1.207 0.12109-1.0977 0.26172-0.86328 1.2578-1.1328 0.39453-1.418 0.30469-1.8789 0.32422-2.6211-0.082031-1.0273 0.69141-0.078125 1.582-0.73438 1.4531-1.0781 1.9062-0.59375 0.92188-0.63672 1.2148-0.42188 1.0195-0.3125 1.6836v2.5703l-0.98828 1.1602-1.3242 0.69531-0.50781 0.9375v1.3281l0.35547 1.25 0.40234 3.4961 1.3867 2.7227 0.76172 1.9414 0.625 0.84375 0.20312 2.0625 2.2383 0.40234 1.3438 0.058594 0.9375 0.49219 0.91016 1.2852 0.65625 1.2969 1 1.5078 1 1.0117 1.1797 0.59766 1.4844 1.3633 2.3633 0.81641 2.5273 1.8984 1.0312 0.92578 0.71484 1.2109 0.5625 1.9727 2.2617 3.2031-0.26953 0.96875 0.20312 1.4648 0.085938 1.5977-0.23828 1.2773-0.98828 1.2617 0.15234 1.4102-0.5625 1.0742-1.1094 1.375-1.2969 0.72656-0.45312 1.1953-0.71484 2.7344-1.1719 1.1172-1.1094 0.71875-0.16797 1.6641-0.84375 1.8398-0.73047 1.6016-0.58984 1.7422-0.10547 1.2734-1.9336-0.29297-2.1172 0.70703-0.71875 0.90625-0.59375 1.2969-0.73047 0.77344 0.050781 1.3125 0.92188 1.2539 0.40234 1.8633 1.0469 1.9844 0.050781 1.0078 0.26562 1.3516 0.56641 1.2344-0.097657 1.4766-0.88672 0.94922-1.3125 0.71875-0.95703 0.39062-0.87109 0.71875 0.16406 1.5039-0.98438 0.25-1.0352 0.0625-2.0938-0.13672-0.85938 0.64453-0.90625 0.5625-1.2188 0.46875-1.2578 0.29297-1.3672 0.21875-1.2461-0.125-1.4492 0.12109-2.5938-0.45312-1.8281-0.39453-2.1289-0.45703-1.2461-0.47656-1.1797-0.12109-1.6602 0.18359-1.3594-0.078125-1.375-0.14453-1.1875 0.027344-1.4648 1.125-1.3203-0.29297-0.6875 0.94141-1.75 0.3125-1.1875-0.30469-1.7227-0.89062-1.082-0.32812-1.3086-0.20312-1.625 0.15625-1.5117 0.14453-1.0703 0.15234-1.7383 0.37109-1.75 0.80859-2.2344 0.48047-1.0742-0.32422-2.7461-1.0547-0.35547-0.98047-0.93359-1.4844-0.88672-1.2578-0.55469-1.4219-0.75-1.3477-0.50781-1.207-0.50391-1.0078-0.91797-0.85938-0.84375-0.69922-0.85938-0.71094-1.2891-1.2305-1.2812-1.082-1.2656-1.0547-1.4102-0.55078-1.3867 0.81641-1.6094 1.5273-1.3438 1.6719-1.2695 1.0273-1.2031 1.0312-0.83984 1.3125-1.5859 0.83984-1.2617 0.32812-0.93359 0.49609-0.75781 0.85547-0.88672 1.3945-1.1055 0.80859-0.94141 0.46484-1.5078 1.1133-1.0742 1.0469-0.96484 1.1328-1.6055 0.17578-1.8711 0.83594-2.2695 1.2031-1.1797 0.57422 0.66016-1.9062 0.68359-1.6094 0.17188-1.2578 0.097656-1.543 0.44531-1.418-0.1875-1.3711 0.31641-1.082 0.14062-1.2734 0.87891-1.3281 0.82422-3.1602 0.22266-0.99609 0.50781-1.3125 0.82422-1.5547 1.0039-0.77734 0.75781-1.1055 1.3984-1.0742 0.68359-0.78906 0.44531-2.5195 1.6289-1.2305 1.0781-0.60156 1.5039-1.1289 0.61328-0.87891 0.69141-2.4805 0.17578-2.707 0.125-1.6797 0.86719-2.2461 1.6133-1.3906 0.90234-0.77734 1.3555-2.1289 0.28516-1.4102-0.33594-1.0234-0.35156-1.0781 0.42969-0.99219 2.4883-0.87109 1.6875-0.51953 1.1367-0.34766 1.1523-0.80469 1.1875-1.3047 2.1484-1.7422 1.0781-0.48828 0.75391-0.75 0.375-0.92969 1.1445-1.5156 0.88672-0.51562 1.3516-0.125 1.0742 0.078125 1.6367-1.707 0.66406-0.89062 0.4375-1.0391 2.0312 0.40234 1.5117 0.68359 1.7969-0.18359 1.4805-0.15234 1.3008-0.37109 2.207-0.78125 2.332-0.75 1.5781-0.19531 1.3828-0.035157 1.6328-0.039062 1.0508-0.30859 3.5859-1.0508 0.70703-1.0664 0.078125-1.3008 1.5273-0.60938 0.97656-0.63281-0.0625-1.2266 0.33594-1.6367 0.78125-2.4609 0.93359-1.0391 1.0117-1.0586 1.332-0.59375 0.85938-1.1484 1.0742-0.98828 0.90625-2.6758 0.097656-1.5234 0.56641-1.5664 0.94141-1.4688 0.73828-0.81641 1.6406-0.69531 0.66797-0.98438 0.35938-1.1133 0.42969-1.3359 0.21484-2.5547 0.023437-1.2383-0.44141-1.7109-0.53516-0.86719-3.3867-3.3633-1.3867-0.69141-1.5508-0.38281-0.8125-1.1953 0.95312-0.875 0.054687-2.8828-0.16406-1.332 1.1953-0.9375 1.9961-0.17578 0.98047-0.66406 0.61328-1.3945 0.11328-1.2227 1.4844-1.1445 1.2461-1.2031 1.957-1.9258 1.3359-1.3438 1.1406-1.1484 1.2148-0.82812 1.3516-0.28125 1.2812-0.76953 1.4102-0.66797 1.1836-1.6602 1.2812-0.62891 1.1797-0.058594 1.4531-0.875 2.4609-0.51562 0.85938-0.53516 1.125-0.93359 2.0039-1.5273 1.8125-0.32422 2.1953-2.4805 3.3047 0.39453 1.2891-0.17188 1.4883-0.57812 1.9297-0.54688 1.0234-0.375 1.1172-0.57812 1.4883-1.1289 1.5508-1.707 1.7266-1.1953 0.64844-1.043 2.457-1.0508 1.2266-1.0898 0.59375-1.0312 0.36328-1.1133 1.2305-0.94141 1.0273-0.51172 0.61719-1.2812-0.84766-2.9258-0.10938-1.7734 1.5078-3.5039 0.30859-1.582-0.44922-1.8281-0.80469-0.67188-2.3398-0.35547-1.1562-0.22266-1.1211-0.51562-1.707 0.12891-0.43359-1.3633-0.59766-1.2695-0.16406-1.4258 0.10547-1.082 0.38672-0.97266 0.82422-1.2188 0.74609-0.72656 0.38281-1.5078 0.87109-0.82812 0.70703-0.79297 0.70703-0.34375" fill="none" stroke="#fff" stroke-linecap="round" stroke-linejoin="round" stroke-miterlimit="10" stroke-width="2"/>
<path d="m345.53 13.656 0.58594 0.33594 1.25 0.22266 1.1484-0.035156 1.625 0.20703 1.2344 0.75391 1.8086 0.58594 1.082 0.64453 0.97266 0.85547 0.67578 0.88672 0.90625 1.4102 1.7227 2.6797 0.34766 1.1484 0.67578 1.6641 2.125 1.7422 0.66797 0.77344 1.0508 0.91797 0.63281 0.90234 0.80078 0.95312 0.57031 1.0898 0.71484 1.1367 0.59766 1.1016 0.125 1.0156v1.418l-0.33984 1.8711-0.21094 1.2266-0.26172 2.2422-0.15234 1.3008-0.48828 1.6172-0.20312 2.4258-1.1289 1.4805-0.87109 0.86719-1.4531 0.90234-1.5156 0.74219-1.0977 0.35156-1.582 0.10156-1.3828-0.23438h-1.1445l0.023438 1.4844 0.76562 1.7695 0.66406 1.1758 0.84375 1.3789 0.38281 0.97656-0.085938 1.4531 0.48828 1.5547 0.14062 1.7305-0.10547 1.2656 0.12109 1.418-0.11328 1.543 0.14062 1.0391v1.1328l0.50391 1.0352 0.62109 0.89844 0.10156 1.7188 0.25391 1.2461 1.0117 1.7383 0.91406 0.91016 1.2109 0.52344 0.83594 0.58203 1.0977 0.49609 1.0312 0.67969 0.86328 0.86328 0.88672 0.51172 1.5156 0.70703 0.91406 0.74219 1.2109 0.82812 1.8398 0.85938 1.3086 0.40234 1.6094 0.51562 1.2305 0.61719 1.4453 0.14062 1.9258 0.92969 1.1953 0.34375 1.5 0.3125 1.4258 0.98438 1.1797 0.41016 1.4023 0.12891 1.5938-0.17188 1.6797-0.14062 1.3164-0.27734 1.2734 0.75391 2.2734 0.070313 2.0898 0.78516 1.125 0.50391 0.99609 0.24609 1.2383-0.20703 2.3672 0.34766 1.1328-0.16016 1.1875-0.19922 1.2031 0.054687 1.2344-1.0391 1.0117-1.0781 0.98438-0.49609 1.0977-0.046875 1.2031-0.64453 0.80859-0.625 1.4141-1.0664 0.88672-0.66797 1.3086-0.48828 1.9883-0.97656 0.80078-0.72266 1.0625-0.078125 1.1133-0.24609 0.97656-0.39844 1.0898-0.125 1.2812-0.63281 1.1953-0.23047 1.0352 0.011719 1.1406 0.11328 1.082 0.16406 1-0.54688 1.4062-0.22656 1.0781-0.64453 1.3086-0.27344 0.98438-0.45312 0.81641-0.89453 1.4336 0.44141 1.0586 0.4375 1.1445-0.24609 1.4375 0.51562 1.1133 0.085937 0.94922-0.38281 1.5352-0.44531 1.8125 0.082032 1.0625 0.09375 1.4492 0.48828 1.4297 1.0117 1.3477 0.55859 1.6641 0.49609 2.1172-0.22656 1.2734-0.55859 1.2617-0.38281 1.4844-0.46484 1.0195-0.71875 1.168 0.17188 0.74219 0.79297 0.83203 0.55859 1.8672-0.14844 1.1758 0.23438 1.3047 0.58594 2.9102 0.58203 1.25-0.042968 1.2422-0.28906 1.1719-0.078125 1.1328 0.57422 2.4727-0.21875 0.98438-0.35547 0.76562-1.0547 2.0938-0.98438 1.2812-0.48047 0.92188-1.0156 0.66016-0.76953 1.3516-0.99219 0.82812-0.57422 0.6875-0.85547 0.94141-0.76562 1.2305-0.39453 1.0391-0.81641 0.44141-1.1445 1.082-1.168 1.1836-0.38281 1.2656-0.32812 1.0508-0.70703 1.5195 0.042969-0.4375 0.89844-0.57422 0.87109-0.60938 0.83594-0.95703 1.7422-0.34766 1.0352 0.023437 1.8047 0.33203 1.8477 0.46094 1.6289 0.40234 1.8242 0.14453 1.0352 0.29688 1.0898 0.054688 1.4453v1.2578l-0.51562 1.1641 0.12109 1.2148 0.67969 1.3906 0.40234 1.4414-0.15625 1.0508-0.77734 2.1523-0.18359 1.125-0.60938 1.0273 0.41797 2.1797 0.78516 1.6914 0.4375 1.043-0.027344 1.1328-0.33203 1.2227-0.12109 1.0469 0.30469 1.4609-0.085938 1.2188-0.49609 1.8164-0.035157 1.0625-0.53516 1.3477 0.55859 2.1562-0.22656 1.6367 0.96875 1.2617 0.19141 1.5938 0.58203 0.91016 0.45312 1.9844-0.15625 1.082 0.41016 1.5391 0.43359 1.1016 0.42188 1.1289-1.0664 1.5977-0.85938 0.94141-0.82031 1.2344-1.0781 0.92578-1.1016-0.019531-1.1836-0.12109-1.1055-0.56641-1.0664-0.375-1.6367-0.82422-1.4961-0.79688-1.3164-0.09375-1.3438-0.21875-1.332-0.40234-1.0391-0.59766-0.84375-0.62109-0.69922 0.71484-1.1992-0.22656-1.1602-0.26953-0.91406-0.77734-1.3008-0.53906-1.3125-0.12109-0.93359 0.67188-1.2188-0.59375-1.8672 0.085938-1.4375 0.53906-0.90625 0.53516-1.3242-0.32422-1.5508-0.007813-3.2695-0.16406-1.0078-0.078125-1.8945 0.67578-1.7148 0.42969-1.9258 0.44531-1.6445-0.35938-1.0391-0.085938-1.2188-0.40234-0.82031-0.83594-1.5352-0.48047-1.3906-0.007812-1.3711 0.11328-1.9492 0.27734-1.2305 0.48047-1.0703 0.52344-0.89062 1.1953-0.45312 1.3398 0.42969 1.2891 0.53906 1.3516-0.18359 1.3438-1.0391 1.6523-0.69531 1.2305-0.85156 1.5508-0.56641 1.0273-1.3438 1.6914-0.85547 0.67188-0.74609 0.80078-0.76172 2.1367-0.40625 1.0547-0.57031 1.3555-1.582 0.88281-2.3477-0.24609h-1.1914l-1.9531 1.1602-0.77344 1.5078-0.53125 1.5234-0.64453 1.3672-1.0977 1.1602-1.0625 1.4141-0.92188 0.75781-3.4453 1.2539-3.0586 1.7266-3.8984 1.5781-1.2578 0.22266-2.6836 0.14844-2.0664-0.28906-1.0234-0.035156-1.1641 0.19141-0.94141 0.38281-1.625-0.066407-1.6055-0.41016-1.3867-0.35547-1.3438-0.69531-1.0156-0.69531-1.4219-0.91016-2.0234-1.3867-1.1641-0.66406-0.92188-0.92578-1.0156-1.2305-0.76562-0.74609-1.4805-0.69922-1.1797-0.25-1.8516 0.23438-1.0977 0.66797-1.5039-0.44531-1.082-1.75-0.21484-1.3828-0.39453-1.4219-1.1016-1.8867-0.87109-1.0273-0.76172-1.0039-0.91797-0.51562-1.0312-0.19531-1.7188-0.32031-1.5508-0.015625-1.1445 0.24219-1.4492 0.98047-1.2031 0.81641-1.6445 0.19922-1.4023-0.17969-1.0625-0.27344h-1.5312l-1.2891-0.17578-1.0742-0.14844-1.6289 0.082031-1.0625-0.41797-1.0664-0.12891-1.0117-0.11328-1.6758 0.21094-0.94922 0.77344-1.6133 0.35547-1.6094 0.19141-1.0938 0.14453-1.3555 0.16016-0.98047 0.5-0.5625-0.93359-0.92969-1.6641-0.44922-1.3906-0.24219-1.7266-0.027344-1.082-0.87891-0.91797-0.88672-0.58594-0.82031-0.85547-0.625-1.0625-2.25-3.5352-0.88672-1.0938-0.98438-1.8398-0.58203-0.82812-0.41406-1.2617 0.80859-1.3555-0.09375-1.6055-1.6562-1.7656-0.55859-1.0039 0.24219-0.99219 0.09375-1.4961-0.14453-1.7891-0.27734-1.1484-0.011719-1.3516 0.10547-1.2461 0.85938-1.5078 1.1875-0.91797 1.332-0.82031 1.293-0.44922 1.5625-1.3984 0.84766-0.57031 0.38672-1.1016 0.77344-1.0664 0.70703-1.0234 0.6875-0.79688-0.89844-1.4609-1.3086-0.6875-1.75-0.57812-0.73828-1.3516-0.046875-1.0781 0.55078-0.94922 0.62109-1.8047-0.14062-1.3164 0.12109-1.457 0.54688-0.99219-0.011719-1.0547 0.33594-1.4141 0.30469-1.3008 0.37109-1.5664-1.0781-1.4023-1.6562-1.0977-1.8477-0.8125-2.4688-0.125-2.1758-0.17578-1.8594 0.11328-1.6641-0.23047-1.332-0.21875-1.4492-0.5625-1.3281-0.35938-1.0312-0.078125-2.125-0.027344-1.3984-0.26172-1.2812-0.50391-1.1875-0.37891-0.66797-1.0625-0.51172-1.6328-0.64062-1.4531-0.42578-1.1328-0.61719-1.9023 0.17578-1.9375-0.13281-1.0508-0.54688-1.0586-0.80859-0.70703-0.60547-0.86719 0.35156-1.1602 0.57422-1.0273 0.57422-1.2266 0.48047-1.0156 0.91016-0.91406 0.86719-1.043 0.75781-1.1133 0.58594-1.2617 0.19531-1.9648 0.042969-1.7852-0.44141-1.375 0.72266-0.86328 1.0508-1.25 0.62891-0.99219 0.55078-0.86719 0.60938-1.0742 0.88672-1.1602 0.49219-0.94922 0.66797-0.92578 1.207-1.5781 0.91406-0.48438 1.1797 0.11719 1.1953 0.12109 1.4023 0.046875 1.2305-0.023438 1.043 0.09375 1.0508 0.23438 1.0664-0.25 1.3477-0.49609 0.95312-0.83203 0.5625-1.5469 0.77734-1.3281 1.4141-1.7344 0.75781-0.69141 0.67578-1.4336-0.13281-1.8438 0.066406-1.0039-0.054687-1.582-0.09375-1.0195-0.27344-1.0781-0.44922-1.5078-0.054687-1.3125 0.97266-2.582 0.36719-1.1992 0.75781-1.4531 0.38672-1.375 0.92188-1.5078 0.99609-1.4414 0.64062-0.82031 0.61328-0.96094 0.81641-1.1484z" fill="#ccc" fill-rule="evenodd"/>
<path d="m345.53 13.656 0.58594 0.33594 1.25 0.22266 1.1484-0.035156 1.625 0.20703 1.2344 0.75391 1.8086 0.58594 1.082 0.64453 0.97266 0.85547 0.67578 0.88672 0.90625 1.4102 1.7227 2.6797 0.34766 1.1484 0.67578 1.6641 2.125 1.7422 0.66797 0.77344 1.0508 0.91797 0.63281 0.90234 0.80078 0.95312 0.57031 1.0898 0.71484 1.1367 0.59766 1.1016 0.125 1.0156v1.418l-0.33984 1.8711-0.21094 1.2266-0.26172 2.2422-0.15234 1.3008-0.48828 1.6172-0.20312 2.4258-1.1289 1.4805-0.87109 0.86719-1.4531 0.90234-1.5156 0.74219-1.0977 0.35156-1.582 0.10156-1.3828-0.23438h-1.1445l0.023438 1.4844 0.76562 1.7695 0.66406 1.1758 0.84375 1.3789 0.38281 0.97656-0.085938 1.4531 0.48828 1.5547 0.14062 1.7305-0.10547 1.2656 0.12109 1.418-0.11328 1.543 0.14062 1.0391v1.1328l0.50391 1.0352 0.62109 0.89844 0.10156 1.7188 0.25391 1.2461 1.0117 1.7383 0.91406 0.91016 1.2109 0.52344 0.83594 0.58203 1.0977 0.49609 1.0312 0.67969 0.86328 0.86328 0.88672 0.51172 1.5156 0.70703 0.91406 0.74219 1.2109 0.82812 1.8398 0.85938 1.3086 0.40234 1.6094 0.51562 1.2305 0.61719 1.4453 0.14062 1.9258 0.92969 1.1953 0.34375 1.5 0.3125 1.4258 0.98438 1.1797 0.41016 1.4023 0.12891 1.5938-0.17188 1.6797-0.14062 1.3164-0.27734 1.2734 0.75391 2.2734 0.070313 2.0898 0.78516 1.125 0.50391 0.99609 0.24609 1.2383-0.20703 2.3672 0.34766 1.1328-0.16016 1.1875-0.19922 1.2031 0.054687 1.2344-1.0391 1.0117-1.0781 0.98438-0.49609 1.0977-0.046875 1.2031-0.64453 0.80859-0.625 1.4141-1.0664 0.88672-0.66797 1.3086-0.48828 1.9883-0.97656 0.80078-0.72266 1.0625-0.078125 1.1133-0.24609 0.97656-0.39844 1.0898-0.125 1.2812-0.63281 1.1953-0.23047 1.0352 0.011719 1.1406 0.11328 1.082 0.16406 1-0.54688 1.4062-0.22656 1.0781-0.64453 1.3086-0.27344 0.98438-0.45312 0.81641-0.89453 1.4336 0.44141 1.0586 0.4375 1.1445-0.24609 1.4375 0.51562 1.1133 0.085937 0.94922-0.38281 1.5352-0.44531 1.8125 0.082032 1.0625 0.09375 1.4492 0.48828 1.4297 1.0117 1.3477 0.55859 1.6641 0.49609 2.1172-0.22656 1.2734-0.55859 1.2617-0.38281 1.4844-0.46484 1.0195-0.71875 1.168 0.17188 0.74219 0.79297 0.83203 0.55859 1.8672-0.14844 1.1758 0.23438 1.3047 0.58594 2.9102 0.58203 1.25-0.042968 1.2422-0.28906 1.1719-0.078125 1.1328 0.57422 2.4727-0.21875 0.98438-0.35547 0.76562-1.0547 2.0938-0.98438 1.2812-0.48047 0.92188-1.0156 0.66016-0.76953 1.3516-0.99219 0.82812-0.57422 0.6875-0.85547 0.94141-0.76562 1.2305-0.39453 1.0391-0.81641 0.44141-1.1445 1.082-1.168 1.1836-0.38281 1.2656-0.32812 1.0508-0.70703 1.5195 0.042969-0.4375 0.89844-0.57422 0.87109-0.60938 0.83594-0.95703 1.7422-0.34766 1.0352 0.023437 1.8047 0.33203 1.8477 0.46094 1.6289 0.40234 1.8242 0.14453 1.0352 0.29688 1.0898 0.054688 1.4453v1.2578l-0.51562 1.1641 0.12109 1.2148 0.67969 1.3906 0.40234 1.4414-0.15625 1.0508-0.77734 2.1523-0.18359 1.125-0.60938 1.0273 0.41797 2.1797 0.78516 1.6914 0.4375 1.043-0.027344 1.1328-0.33203 1.2227-0.12109 1.0469 0.30469 1.4609-0.085938 1.2188-0.49609 1.8164-0.035157 1.0625-0.53516 1.3477 0.55859 2.1562-0.22656 1.6367 0.96875 1.2617 0.19141 1.5938 0.58203 0.91016 0.45312 1.9844-0.15625 1.082 0.41016 1.5391 0.43359 1.1016 0.42188 1.1289-1.0664 1.5977-0.85938 0.94141-0.82031 1.2344-1.0781 0.92578-1.1016-0.019531-1.1836-0.12109-1.1055-0.56641-1.0664-0.375-1.6367-0.82422-1.4961-0.79688-1.3164-0.09375-1.3438-0.21875-1.332-0.40234-1.0391-0.59766-0.84375-0.62109-0.69922 0.71484-1.1992-0.22656-1.1602-0.26953-0.91406-0.77734-1.3008-0.53906-1.3125-0.12109-0.93359 0.67188-1.2188-0.59375-1.8672 0.085938-1.4375 0.53906-0.90625 0.53516-1.3242-0.32422-1.5508-0.007813-3.2695-0.16406-1.0078-0.078125-1.8945 0.67578-1.7148 0.42969-1.9258 0.44531-1.6445-0.35938-1.0391-0.085938-1.2188-0.40234-0.82031-0.83594-1.5352-0.48047-1.3906-0.007812-1.3711 0.11328-1.9492 0.27734-1.2305 0.48047-1.0703 0.52344-0.89062 1.1953-0.45312 1.3398 0.42969 1.2891 0.53906 1.3516-0.18359 1.3438-1.0391 1.6523-0.69531 1.2305-0.85156 1.5508-0.56641 1.0273-1.3438 1.6914-0.85547 0.67188-0.74609 0.80078-0.76172 2.1367-0.40625 1.0547-0.57031 1.3555-1.582 0.88281-2.3477-0.24609h-1.1914l-1.9531 1.1602-0.77344 1.5078-0.53125 1.5234-0.64453 1.3672-1.0977 1.1602-1.0625 1.4141-0.92188 0.75781-3.4453 1.2539-3.0586 1.7266-3.8984 1.5781-1.2578 0.22266-2.6836 0.14844-2.0664-0.28906-1.0234-0.035156-1.1641 0.19141-0.94141 0.38281-1.625-0.066407-1.6055-0.41016-1.3867-0.35547-1.3438-0.69531-1.0156-0.69531-1.4219-0.91016-2.0234-1.3867-1.1641-0.66406-0.92188-0.92578-1.0156-1.2305-0.76562-0.74609-1.4805-0.69922-1.1797-0.25-1.8516 0.23438-1.0977 0.66797-1.5039-0.44531-1.082-1.75-0.21484-1.3828-0.39453-1.4219-1.1016-1.8867-0.87109-1.0273-0.76172-1.0039-0.91797-0.51562-1.0312-0.19531-1.7188-0.32031-1.5508-0.015625-1.1445 0.24219-1.4492 0.98047-1.2031 0.81641-1.6445 0.19922-1.4023-0.17969-1.0625-0.27344h-1.5312l-1.2891-0.17578-1.0742-0.14844-1.6289 0.082031-1.0625-0.41797-1.0664-0.12891-1.0117-0.11328-1.6758 0.21094-0.94922 0.77344-1.6133 0.35547-1.6094 0.19141-1.0938 0.14453-1.3555 0.16016-0.98047 0.5-0.5625-0.93359-0.92969-1.6641-0.44922-1.3906-0.24219-1.7266-0.027344-1.082-0.87891-0.91797-0.88672-0.58594-0.82031-0.85547-0.625-1.0625-2.25-3.5352-0.88672-1.0938-0.98438-1.8398-0.58203-0.82812-0.41406-1.2617 0.80859-1.3555-0.09375-1.6055-1.6562-1.7656-0.55859-1.0039 0.24219-0.99219 0.09375-1.4961-0.14453-1.7891-0.27734-1.1484-0.011719-1.3516 0.10547-1.2461 0.85938-1.5078 1.1875-0.91797 1.332-0.82031 1.293-0.44922 1.5625-1.3984 0.84766-0.57031 0.38672-1.1016 0.77344-1.0664 0.70703-1.0234 0.6875-0.79688-0.89844-1.4609-1.3086-0.6875-1.75-0.57812-0.73828-1.3516-0.046875-1.0781 0.55078-0.94922 0.62109-1.8047-0.14062-1.3164 0.12109-1.457 0.54688-0.99219-0.011719-1.0547 0.33594-1.4141 0.30469-1.3008 0.37109-1.5664-1.0781-1.4023-1.6562-1.0977-1.8477-0.8125-2.4688-0.125-2.1758-0.17578-1.8594 0.11328-1.6641-0.23047-1.332-0.21875-1.4492-0.5625-1.3281-0.35938-1.0312-0.078125-2.125-0.027344-1.3984-0.26172-1.2812-0.50391-1.1875-0.37891-0.66797-1.0625-0.51172-1.6328-0.64062-1.4531-0.42578-1.1328-0.61719-1.9023 0.17578-1.9375-0.13281-1.0508-0.54688-1.0586-0.80859-0.70703-0.60547-0.86719 0.35156-1.1602 0.57422-1.0273 0.57422-1.2266 0.48047-1.0156 0.91016-0.91406 0.86719-1.043 0.75781-1.1133 0.58594-1.2617 0.19531-1.9648 0.042969-1.7852-0.44141-1.375 0.72266-0.86328 1.0508-1.25 0.62891-0.99219 0.55078-0.86719 0.60938-1.0742 0.88672-1.1602 0.49219-0.94922 0.66797-0.92578 1.207-1.5781 0.91406-0.48438 1.1797 0.11719 1.1953 0.12109 1.4023 0.046875 1.2305-0.023438 1.043 0.09375 1.0508 0.23438 1.0664-0.25 1.3477-0.49609 0.95312-0.83203 0.5625-1.5469 0.77734-1.3281 1.4141-1.7344 0.75781-0.69141 0.67578-1.4336-0.13281-1.8438 0.066406-1.0039-0.054687-1.582-0.09375-1.0195-0.27344-1.0781-0.44922-1.5078-0.054687-1.3125 0.97266-2.582 0.36719-1.1992 0.75781-1.4531 0.38672-1.375 0.92188-1.5078 0.99609-1.4414 0.64062-0.82031 0.61328-0.96094 0.81641-1.1484v0.003906" fill="none" stroke="#fff" stroke-linecap="round" stroke-linejoin="round" stroke-miterlimit="10" stroke-width="2"/>
<path d="m317.55 80.047 1.1875 0.37891 1.0234 0.41406 1.1484 0.30078 1.9688 0.13281 1.2344-0.10156 1.168 0.31641 1.6133 0.55469 1.7891 0.39453 1.168 0.17969 1.7617-0.078125 2.2617 0.17969 2.0273 0.050781 2.7969 0.89844 0.875 0.50391 1.668 1.582 0.027344 1.1094-0.51172 2.1719-0.33594 1.4141 0.011719 1.0547-0.54688 0.99219-0.12109 1.457 0.14062 1.3164-0.20703 0.99219-0.80859 1.4766-0.10938 1.3633 0.73828 1.3516 1.75 0.57812 1.3086 0.6875 0.91406 0.82031-0.30859 1.0273-0.77344 0.95703-0.67969 0.86328-0.80859 1.7812-0.84766 0.57031-1.5625 1.3984-1.293 0.44922-1.332 0.82031-0.87109 0.58594-0.85547 0.91016-0.42969 1.7031 0.015625 1.8242 0.27734 1.1484 0.13672 1.3945 0.035156 1.2891-0.33984 1.3594 0.53516 1.2383 1.4102 1 0.41797 1.668-0.51172 1.1562 0.039063 2.1641 0.58203 0.82812 0.6875 0.9375 1.1836 1.9961 1.7148 3.0742 0.93359 1.1016 1.0469 1.2773 0.88672 0.58594 0.87891 0.91797 0.027344 1.082 0.019531 1.0859 0.47266 1.4805 0.69922 1.5039 0.62109 1.0312 0.33984 1.4414-0.30469 0.98828-1.2031 0.8125-0.65625 0.96094-0.69531 0.80078-0.96094 0.58594-0.70312 0.92969-1.0508 1.0312-1.2383 0.53906-1.2188 0.44531-1.1406 0.23438-1.25 0.066407-1.3242 0.62109-0.81641 0.69141-1.0625 0.90234-0.79297 0.67188-1.2773 0.76562-0.90625 0.98828-1.5977 1.4453-1.2617 1.5977-0.28906 1.5664-0.77344 1.3398-0.66797 0.99219 0.085938 1.4492-0.12891 1.3555-0.11719 1.4375 0.58203 1.1172 1.3047 1.4844 0.91016 0.83203 1.168 0.96875 1.0039 1.4805 0.69531 0.84375 1.207 1.457-0.87109 1.2578-0.57422 0.83203-0.77734 1.2812-0.56641 1.1523-0.62109 1.043-0.23438 1.0469-0.55469 1.3008-1.1133 1.1406-1.9609 1.2031-1.2695 0.94922-2.7852 2.8945-1.5977 0.61719-0.875 0.92578-0.58203 1.082-0.40625 1.6719-0.86719 4.1484-0.73047 1.582-1.0547 0.87109-1.4375 0.73047-1.543 1.2383-2.293 1.5859-1.0977 1.0547-0.98438 0.59375-1.9844 0.91406-1.3711 0.65625-1.0273 0.80859-1.5039 0.43359-1.1797-0.15625-2.1875 0.054688-1-0.30469-2.125-0.078125-1.3711 0.066406-1.0977-0.16406-1.6367-0.078125-1.3672-0.39062-1.0742-0.0625-1.3164 0.53906-1.2188-0.12891-1.5938-0.0625-1.5508 0.078125-1.3516-0.27734-1.3789 0.015625-1.1328 0.24609-1.0859-0.007812 0.18359-1.0898 0.22266-0.99219-1.0195-1.4141-1.4297-1.5586-1.7422-1.4492-2.5312-1.375-1.3438-1.1914-1.2812-0.30859-1.4141-0.41016-1.0117-0.58594-1.3867-1.1992-0.92969-0.61719-1.9219-0.55469-0.57812-0.82422 1.1016-0.54688 1.4961-0.14062 2.6484 0.15234 1.7422 0.78125 1.6406 0.51562 1.0586 0.24609 3.707-3.707 0.67969-1.6367 0.3125-3.1992 0.39844-2.5391-0.20312-1.0898-0.54688-1.0742 0.43359-1.2539 1.7383-1.543 1.6211-0.66406h1.082l2.6055-0.37891 1.7969-0.63281 0.97266-0.67969 1.668-0.67188 1.1484-0.57422 1.7969-0.43359 1.207-0.042969 1.375-0.16797 0.95703-1.4141-1.0156-0.61719-1.3242 0.4375-1.4609-0.035156-1.2578-0.48047-1.0625-0.007812-2.082 0.70312-1.4805 0.21875-1.0625 0.47266-1.3594 1.0352-1.082 0.46094-1.2539 0.14062-2.1719 0.050781-1.4883 0.30469-1.2539 0.61328-2.3477 1.582-1.0352 0.875-1.4727 0.78516-0.87891 0.70312-1.5938 0.007813-1.5898-0.27734-1.5117-0.050781-1.582 0.37891-1.5234 0.57812-1.2969 0.53906-1.1875 0.53906-0.96484 0.31641-1.3242 0.09375-3.9375 3.2266-1.1875 1.3242-0.94922 0.71094-2.0117 1.543-1.0469 0.82031-0.87891 1.125-1.5273 1.6211-0.60938 0.87891-0.57812 0.98828-0.49219 1.0781-1.3516 0.65234-1.1055 0.58594-2.4648 1.1914-0.88281 0.66406-1.8398 2.4219-1.1328 1.2812-0.92969 0.95703-1.7539 1.5508-1.1641 0.74219-0.88281 0.66016-1.0273 0.39062-0.66797-1.0547-0.6875-0.75-2.9531-1.7031-1.2578-0.24219-1.2852-1.9023-0.37891-1.1797 0.71875-0.97656 0.13672-1.168-0.69141-1.0078 0.03125-1.2695-1.0312-1.4492-1.207-0.28516-0.9375-0.375-0.59766-1.457-0.21875-1.3711-0.42188-1.3555-0.097656-1.0352-1.1328-1.5195-0.69531-2.4453 0.42578-2.3555-0.042969-1.0781-0.60938-1.2734-0.55078-1.1211-0.88672-0.80469-1.0273-0.3125-0.44531-2.1445-0.27344-1.457 0.30078-1.0859 0.17188-1.2227-0.57422-1.5312-0.375-1.2656-0.54688-1.1836-0.58594-1.3086-0.84766-1.4727-0.20703-1.2344-0.015625-1.0273-0.30859-0.98047-0.82031-1.043-0.76953-0.78125-0.24219-1.3281-0.32422-1.4102-0.40234-1.0898-0.31641-1.2031-0.39844-0.99609-0.83203-0.86719-1.1289-1.1406 0.25-1.1836 0.75391-0.875-0.82031-1.0234-1.0156-0.94531-0.25-1.5078-0.56641-0.89844-0.78125-0.6875-0.98828-1.5938-0.37109-1.0039-0.71875-0.87109 1.1758-0.42969 2.0664-0.3125 2.8828-1.043 2.1055-0.35938 2.2148-1.3906 1.1875-1.6484 1.0156-1.0781 2.3477-1.2891 1.4336-0.78906 2.0273-0.78516 1.5781-0.39453 1.5703-0.70312 0.95703-0.50781 1.1211-0.40625 1.0078-0.14062 0.87109-1.1016 0.72656-1.6445 1.3711-0.42969 1.7812-0.15625 1.8203 0.42578 2.1406-0.37891 1.418 0.35938 3.0156 2.2578 0.20703 1.7969 1.3672 0.38672 1.3281-1.1836 1.1328-0.19141 1.1094-0.49609 1.3164-0.25 1.5156-1.3516 0.88672-0.66406 1.1914-0.91016 2.918-1.7031 2.6992-1.1445 1.4102-0.59766 3.3984-0.85156 1.4023-0.80859 0.81641-0.80469 0.66406-1.2383 0.78125-1.293 0.79297-0.95312 0.37109-1.3594 0.66016-1.6562 0.50781-1.5312 1.2344-0.9375 1.7656-1.75 0.80469-0.67188 1.2773-1.2773 1.082-0.97266 0.94141-1.1641 0.97656-0.64844 1.043-0.054688 1.4102 0.21094 1.418 0.36719 0.90625 0.46484 1.0938 0.27344 1.0586 0.074218 0.89844-0.51562 0.61328-0.80078 0.75391-1.1836 0.44531-1.0703 0.86719-0.97656 1.0312-0.38281 0.78906-0.65234 0.92969-0.43359 1.1875-0.76562 1.2891-1.2539 0.80469-1.0586 0.45312-1.3633 0.48828-0.95312 1.3945-0.26172 1.1328-0.31641 1.0508-0.63672 1.3789-0.35938 1.0352-0.10938 0.77734-0.82812 0.74219-0.99609 2.4102-0.22266 1.5234-0.32031 1.7422-0.73438 1.2461-0.51953 1.4062-0.71875 0.69531-1.6523 0.44531-2.1211 0.75781-0.99219 0.68359-0.91797 0.57031-0.96484 1.0938-0.58594 1.082-0.14844 1-0.77734 1.0781-0.97266 1.9922 0.042969 1.2539-0.52344 1.2578-0.89844 1.0508-1.0156z" fill="#0a5394" fill-rule="evenodd"/>
<path d="m317.55 80.047 1.1875 0.37891 1.0234 0.41406 1.1484 0.30078 1.9688 0.13281 1.2344-0.10156 1.168 0.31641 1.6133 0.55469 1.7891 0.39453 1.168 0.17969 1.7617-0.078125 2.2617 0.17969 2.0273 0.050781 2.7969 0.89844 0.875 0.50391 1.668 1.582 0.027344 1.1094-0.51172 2.1719-0.33594 1.4141 0.011719 1.0547-0.54688 0.99219-0.12109 1.457 0.14062 1.3164-0.20703 0.99219-0.80859 1.4766-0.10938 1.3633 0.73828 1.3516 1.75 0.57812 1.3086 0.6875 0.91406 0.82031-0.30859 1.0273-0.77344 0.95703-0.67969 0.86328-0.80859 1.7812-0.84766 0.57031-1.5625 1.3984-1.293 0.44922-1.332 0.82031-0.87109 0.58594-0.85547 0.91016-0.42969 1.7031 0.015625 1.8242 0.27734 1.1484 0.13672 1.3945 0.035156 1.2891-0.33984 1.3594 0.53516 1.2383 1.4102 1 0.41797 1.668-0.51172 1.1562 0.039063 2.1641 0.58203 0.82812 0.6875 0.9375 1.1836 1.9961 1.7148 3.0742 0.93359 1.1016 1.0469 1.2773 0.88672 0.58594 0.87891 0.91797 0.027344 1.082 0.019531 1.0859 0.47266 1.4805 0.69922 1.5039 0.62109 1.0312 0.33984 1.4414-0.30469 0.98828-1.2031 0.8125-0.65625 0.96094-0.69531 0.80078-0.96094 0.58594-0.70312 0.92969-1.0508 1.0312-1.2383 0.53906-1.2188 0.44531-1.1406 0.23438-1.25 0.066407-1.3242 0.62109-0.81641 0.69141-1.0625 0.90234-0.79297 0.67188-1.2773 0.76562-0.90625 0.98828-1.5977 1.4453-1.2617 1.5977-0.28906 1.5664-0.77344 1.3398-0.66797 0.99219 0.085938 1.4492-0.12891 1.3555-0.11719 1.4375 0.58203 1.1172 1.3047 1.4844 0.91016 0.83203 1.168 0.96875 1.0039 1.4805 0.69531 0.84375 1.207 1.457-0.87109 1.2578-0.57422 0.83203-0.77734 1.2812-0.56641 1.1523-0.62109 1.043-0.23438 1.0469-0.55469 1.3008-1.1133 1.1406-1.9609 1.2031-1.2695 0.94922-2.7852 2.8945-1.5977 0.61719-0.875 0.92578-0.58203 1.082-0.40625 1.6719-0.86719 4.1484-0.73047 1.582-1.0547 0.87109-1.4375 0.73047-1.543 1.2383-2.293 1.5859-1.0977 1.0547-0.98438 0.59375-1.9844 0.91406-1.3711 0.65625-1.0273 0.80859-1.5039 0.43359-1.1797-0.15625-2.1875 0.054688-1-0.30469-2.125-0.078125-1.3711 0.066406-1.0977-0.16406-1.6367-0.078125-1.3672-0.39062-1.0742-0.0625-1.3164 0.53906-1.2188-0.12891-1.5938-0.0625-1.5508 0.078125-1.3516-0.27734-1.3789 0.015625-1.1328 0.24609-1.0859-0.007812 0.18359-1.0898 0.22266-0.99219-1.0195-1.4141-1.4297-1.5586-1.7422-1.4492-2.5312-1.375-1.3438-1.1914-1.2812-0.30859-1.4141-0.41016-1.0117-0.58594-1.3867-1.1992-0.92969-0.61719-1.9219-0.55469-0.57812-0.82422 1.1016-0.54688 1.4961-0.14062 2.6484 0.15234 1.7422 0.78125 1.6406 0.51562 1.0586 0.24609 3.707-3.707 0.67969-1.6367 0.3125-3.1992 0.39844-2.5391-0.20312-1.0898-0.54688-1.0742 0.43359-1.2539 1.7383-1.543 1.6211-0.66406h1.082l2.6055-0.37891 1.7969-0.63281 0.97266-0.67969 1.668-0.67188 1.1484-0.57422 1.7969-0.43359 1.207-0.042969 1.375-0.16797 0.95703-1.4141-1.0156-0.61719-1.3242 0.4375-1.4609-0.035156-1.2578-0.48047-1.0625-0.007812-2.082 0.70312-1.4805 0.21875-1.0625 0.47266-1.3594 1.0352-1.082 0.46094-1.2539 0.14062-2.1719 0.050781-1.4883 0.30469-1.2539 0.61328-2.3477 1.582-1.0352 0.875-1.4727 0.78516-0.87891 0.70312-1.5938 0.007813-1.5898-0.27734-1.5117-0.050781-1.582 0.37891-1.5234 0.57812-1.2969 0.53906-1.1875 0.53906-0.96484 0.31641-1.3242 0.09375-3.9375 3.2266-1.1875 1.3242-0.94922 0.71094-2.0117 1.543-1.0469 0.82031-0.87891 1.125-1.5273 1.6211-0.60938 0.87891-0.57812 0.98828-0.49219 1.0781-1.3516 0.65234-1.1055 0.58594-2.4648 1.1914-0.88281 0.66406-1.8398 2.4219-1.1328 1.2812-0.92969 0.95703-1.7539 1.5508-1.1641 0.74219-0.88281 0.66016-1.0273 0.39062-0.66797-1.0547-0.6875-0.75-2.9531-1.7031-1.2578-0.24219-1.2852-1.9023-0.37891-1.1797 0.71875-0.97656 0.13672-1.168-0.69141-1.0078 0.03125-1.2695-1.0312-1.4492-1.207-0.28516-0.9375-0.375-0.59766-1.457-0.21875-1.3711-0.42188-1.3555-0.097656-1.0352-1.1328-1.5195-0.69531-2.4453 0.42578-2.3555-0.042969-1.0781-0.60938-1.2734-0.55078-1.1211-0.88672-0.80469-1.0273-0.3125-0.44531-2.1445-0.27344-1.457 0.30078-1.0859 0.17188-1.2227-0.57422-1.5312-0.375-1.2656-0.54688-1.1836-0.58594-1.3086-0.84766-1.4727-0.20703-1.2344-0.015625-1.0273-0.30859-0.98047-0.82031-1.043-0.76953-0.78125-0.24219-1.3281-0.32422-1.4102-0.40234-1.0898-0.31641-1.2031-0.39844-0.99609-0.83203-0.86719-1.1289-1.1406 0.25-1.1836 0.75391-0.875-0.82031-1.0234-1.0156-0.94531-0.25-1.5078-0.56641-0.89844-0.78125-0.6875-0.98828-1.5938-0.37109-1.0039-0.71875-0.87109 1.1758-0.42969 2.0664-0.3125 2.8828-1.043 2.1055-0.35938 2.2148-1.3906 1.1875-1.6484 1.0156-1.0781 2.3477-1.2891 1.4336-0.78906 2.0273-0.78516 1.5781-0.39453 1.5703-0.70312 0.95703-0.50781 1.1211-0.40625 1.0078-0.14062 0.87109-1.1016 0.72656-1.6445 1.3711-0.42969 1.7812-0.15625 1.8203 0.42578 2.1406-0.37891 1.418 0.35938 3.0156 2.2578 0.20703 1.7969 1.3672 0.38672 1.3281-1.1836 1.1328-0.19141 1.1094-0.49609 1.3164-0.25 1.5156-1.3516 0.88672-0.66406 1.1914-0.91016 2.918-1.7031 2.6992-1.1445 1.4102-0.59766 3.3984-0.85156 1.4023-0.80859 0.81641-0.80469 0.66406-1.2383 0.78125-1.293 0.79297-0.95312 0.37109-1.3594 0.66016-1.6562 0.50781-1.5312 1.2344-0.9375 1.7656-1.75 0.80469-0.67188 1.2773-1.2773 1.082-0.97266 0.94141-1.1641 0.97656-0.64844 1.043-0.054688 1.4102 0.21094 1.418 0.36719 0.90625 0.46484 1.0938 0.27344 1.0586 0.074218 0.89844-0.51562 0.61328-0.80078 0.75391-1.1836 0.44531-1.0703 0.86719-0.97656 1.0312-0.38281 0.78906-0.65234 0.92969-0.43359 1.1875-0.76562 1.2891-1.2539 0.80469-1.0586 0.45312-1.3633 0.48828-0.95312 1.3945-0.26172 1.1328-0.31641 1.0508-0.63672 1.3789-0.35938 1.0352-0.10938 0.77734-0.82812 0.74219-0.99609 2.4102-0.22266 1.5234-0.32031 1.7422-0.73438 1.2461-0.51953 1.4062-0.71875 0.69531-1.6523 0.44531-2.1211 0.75781-0.99219 0.68359-0.91797 0.57031-0.96484 1.0938-0.58594 1.082-0.14844 1-0.77734 1.0781-0.97266 1.9922 0.042969 1.2539-0.52344 1.2578-0.89844 1.0508-1.0156 0.54688 0.28516" fill="none" stroke="#fff" stroke-linecap="round" stroke-linejoin="round" stroke-miterlimit="10"/>
<path d="m231.44 183.36c0 3.5898-2.9102 6.5-6.5 6.5-3.5898 0-6.5-2.9102-6.5-6.5s2.9102-6.5 6.5-6.5c3.5898 0 6.5 2.9102 6.5 6.5" fill="#28c028" fill-rule="evenodd" stroke="#000" stroke-linecap="round" stroke-linejoin="round" stroke-miterlimit="10"/>
<path d="m126.54 177.36v-6.9219l-6.0312-9.5469h3.8906l3.875 6.5156 3.7969-6.5156h3.8281l-6.0469 9.5625v6.9062zm11-16.469h3.3125v8.9219c0 1.418 0.039063 2.3359 0.125 2.75 0.14453 0.67969 0.48438 1.2188 1.0156 1.625 0.53906 0.40625 1.2734 0.60938 2.2031 0.60938 0.9375 0 1.6445-0.19141 2.125-0.57812 0.47656-0.38281 0.76562-0.85938 0.85938-1.4219 0.10156-0.5625 0.15625-1.4922 0.15625-2.7969v-9.1094h3.3281v8.6562c0 1.9688-0.09375 3.3672-0.28125 4.1875-0.17969 0.8125-0.50781 1.5-0.98438 2.0625-0.48047 0.5625-1.125 1.0117-1.9375 1.3438s-1.8711 0.5-3.1719 0.5c-1.5742 0-2.7656-0.18359-3.5781-0.54688s-1.4531-0.83203-1.9219-1.4062c-0.46875-0.58203-0.77734-1.1914-0.92188-1.8281-0.21875-0.94531-0.32812-2.3438-0.32812-4.1875zm16.656 16.469v-16.469h3.2344l6.75 11v-11h3.0781v16.469h-3.3281l-6.6406-10.734v10.734zm24.234-6.0469v-2.7812h7.1719v6.5625c-0.69922 0.66797-1.7109 1.2617-3.0312 1.7812-1.3242 0.50781-2.6641 0.76562-4.0156 0.76562-1.7188 0-3.2188-0.35938-4.5-1.0781-1.2812-0.72656-2.2461-1.7656-2.8906-3.1094-0.64844-1.3438-0.96875-2.8008-0.96875-4.375 0-1.7188 0.35938-3.2422 1.0781-4.5781 0.71875-1.332 1.7695-2.3516 3.1562-3.0625 1.0625-0.55078 2.3789-0.82812 3.9531-0.82812 2.0391 0 3.6328 0.43359 4.7812 1.2969 1.1562 0.85547 1.8945 2.0391 2.2188 3.5469l-3.2969 0.625c-0.23047-0.8125-0.66797-1.4531-1.3125-1.9219-0.63672-0.46875-1.4336-0.70312-2.3906-0.70312-1.4609 0-2.6172 0.46484-3.4688 1.3906-0.85547 0.91797-1.2812 2.2812-1.2812 4.0938 0 1.9609 0.42969 3.4297 1.2969 4.4062 0.86328 0.96875 2.0039 1.4531 3.4219 1.4531 0.6875 0 1.3789-0.13281 2.0781-0.40625 0.70703-0.26953 1.3125-0.60156 1.8125-1v-2.0781zm25.078 6.0469h-3.6094l-1.4375-3.7344h-6.5781l-1.3594 3.7344h-3.5312l6.4062-16.469h3.5156zm-6.1094-6.5156-2.2812-6.1094-2.2188 6.1094zm12.203 6.5156v-6.9219l-6.0312-9.5469h3.8906l3.875 6.5156 3.7969-6.5156h3.8281l-6.0469 9.5625v6.9062zm0 0" fill="none" stroke="#fff" stroke-linecap="round" stroke-linejoin="round" stroke-miterlimit="10" stroke-width="2"/>
<path d="m126.54 177.36v-6.9219l-6.0312-9.5469h3.8906l3.875 6.5156 3.7969-6.5156h3.8281l-6.0469 9.5625v6.9062zm11-16.469h3.3125v8.9219c0 1.418 0.039063 2.3359 0.125 2.75 0.14453 0.67969 0.48438 1.2188 1.0156 1.625 0.53906 0.40625 1.2734 0.60938 2.2031 0.60938 0.9375 0 1.6445-0.19141 2.125-0.57812 0.47656-0.38281 0.76562-0.85938 0.85938-1.4219 0.10156-0.5625 0.15625-1.4922 0.15625-2.7969v-9.1094h3.3281v8.6562c0 1.9688-0.09375 3.3672-0.28125 4.1875-0.17969 0.8125-0.50781 1.5-0.98438 2.0625-0.48047 0.5625-1.125 1.0117-1.9375 1.3438s-1.8711 0.5-3.1719 0.5c-1.5742 0-2.7656-0.18359-3.5781-0.54688s-1.4531-0.83203-1.9219-1.4062c-0.46875-0.58203-0.77734-1.1914-0.92188-1.8281-0.21875-0.94531-0.32812-2.3438-0.32812-4.1875zm16.656 16.469v-16.469h3.2344l6.75 11v-11h3.0781v16.469h-3.3281l-6.6406-10.734v10.734zm24.234-6.0469v-2.7812h7.1719v6.5625c-0.69922 0.66797-1.7109 1.2617-3.0312 1.7812-1.3242 0.50781-2.6641 0.76562-4.0156 0.76562-1.7188 0-3.2188-0.35938-4.5-1.0781-1.2812-0.72656-2.2461-1.7656-2.8906-3.1094-0.64844-1.3438-0.96875-2.8008-0.96875-4.375 0-1.7188 0.35938-3.2422 1.0781-4.5781 0.71875-1.332 1.7695-2.3516 3.1562-3.0625 1.0625-0.55078 2.3789-0.82812 3.9531-0.82812 2.0391 0 3.6328 0.43359 4.7812 1.2969 1.1562 0.85547 1.8945 2.0391 2.2188 3.5469l-3.2969 0.625c-0.23047-0.8125-0.66797-1.4531-1.3125-1.9219-0.63672-0.46875-1.4336-0.70312-2.3906-0.70312-1.4609 0-2.6172 0.46484-3.4688 1.3906-0.85547 0.91797-1.2812 2.2812-1.2812 4.0938 0 1.9609 0.42969 3.4297 1.2969 4.4062 0.86328 0.96875 2.0039 1.4531 3.4219 1.4531 0.6875 0 1.3789-0.13281 2.0781-0.40625 0.70703-0.26953 1.3125-0.60156 1.8125-1v-2.0781zm25.078 6.0469h-3.6094l-1.4375-3.7344h-6.5781l-1.3594 3.7344h-3.5312l6.4062-16.469h3.5156zm-6.1094-6.5156-2.2812-6.1094-2.2188 6.1094zm12.203 6.5156v-6.9219l-6.0312-9.5469h3.8906l3.875 6.5156 3.7969-6.5156h3.8281l-6.0469 9.5625v6.9062z" fill-rule="evenodd"/>
</g>
</svg>
