<?xml version="1.0" encoding="UTF-8"?>
<svg width="345pt" height="500pt" version="1.1" viewBox="0 0 345 500" xmlns="http://www.w3.org/2000/svg">
<g id="a">
<rect width="345" height="500" fill="none"/>
<path d="m301.25 291.91-0.085937 0.42188-0.68359 1.0547-1.0781 0.22266-0.75 0.71875-0.53125 1.4961 0.28125 1.2422 0.875 0.85938 0.36719 1.1758 0.44922 0.94922 0.67969 0.76953 1.0391 0.21875 0.74219 0.75391 0.16797 1.2773 0.20312 1.1172-0.67578 1.1914-1.1992 0.30859-0.26953 1.043 0.44922 1.0977-1.1289 0.79297-0.83984 0.63281 0.12109 1.0664 0.61328 0.82031-0.082031 1.1914-1.793 1.1055-1.3125 0.38281-0.94922 1.043-0.48828 1.5234-0.73047 0.98047-0.92969 0.40625-1.1133 0.72266-1.375 0.82031-0.94141 1.0781-0.84375 0.91406-0.9375 0.84375-1.4414 1.2656-1.0117 0.65625-1.2188 0.23438-1.4141 1.3711-0.44922 1.168-0.23438 2.293-0.75 1.1797-0.83984 0.59375-1.5977 0.40625-0.6875 0.92578 0.42969 1.7383 0.25781 0.99609 0.53125 0.88281 0.78125 1.4531 0.20703 1.2266 0.66797 1.043 0.48438 1.168 0.1875 1.5195 0.54688 0.92969 0.91016 0.51953 0.92578 0.64844 0.65625 0.96875 0.94922 0.8125 0.73438 1.5781 0.125 1.9141 2.0117 1.5039 0.84375 0.78125 0.5 0.97266-1.8125 0.28906-1.0977-0.20703-1.082 0.13281-1.2812 0.70703-1.3867 1.8828-0.89844 1.0195-1.1875 1.8477-0.55469 0.86328-0.76953 0.89453-1.3867 0.52734-0.82812 1.2109-0.30469 1.6523-0.73047 1.4961-0.46875 0.96094-1.1602 1.6523-1.7344 0.91797-1.3594 1.2188-0.94141 0.50781-1.0898 1.2227-1.832 1.707-1.3633 1.5625-0.64062 0.94531-0.62891 1.1992-1.1953 0.64844-1.2109 0.66016-1.4297 0.77734-0.98047 1.3047-0.60156 1.0273-0.98828 0.85547-1.3438 0.58203-1.0391 0.28906-1.2695 0.75781-1.2109 1.3242-1.5977 0.68359-1.1641-0.046875-1.9102-1.1133-0.91406-1.0234-1.4531 0.15234-2.3594 0.52344-1.7812 0.55469-1.1797 0.72656-1.4531 1.3555-1.1797 0.625-1.2773 0.27734-2.332 1.8789-1.0312 1.3828-0.69922 1.2266-0.80469 0.95312-1.5039 1.2812-0.42578 1.043 0.15234 2.2266 0.34766 2.6484-0.14844 1.4141-0.18359 1.2461 0.11719 1.2461-0.058594 1.0117-0.65625 0.99609-1.1133 1.9453-1.1133 1.1797-0.96875 1.0352-1.5312 1.1562-2.0703 1.4609-1.9883 0.26953-0.71484 1.2461 0.21094 3.8594-2.5508 0.94141-1.6289 0.13672-1.8047 0.29297-2.1133 0.52344-1.6719 1.3828-1.1562 0.95312-1.1797 0.77734-0.63281 1.582-0.14453 1.4805-0.22266 1.5547 0.125 2.207-2.6406 0.42969-0.97266 0.47266-1.918 0.71094-0.33984 2.3242-0.83984 0.88672-1.0664 0.11719-1.3047 1.1016-0.90234 1.9844-0.95312 3.0352-1.3047 0.023437-1.0508-0.40234-1.6016 0.23828-1.4062-0.023438-1.2578-0.26562-1.4297-0.30078-1.0781 0.20312-0.30078 3.0586-0.019532 1.0898-0.14844 2.0078-0.33203 2.2578-0.57422 1.3828-0.64844 2.3242-0.98828 2.8516-0.43359 1.0312-0.72266 1.5-0.51562 1.75-0.58203 1.9883-0.75391 2.5586-0.039063 1.0234 0.44141 2.3398 0.46094 2.4609-0.1875 2.2773-0.60156 1.6055-2.2578 1.1055-1.3281 0.39844-2.6602 0.15234h-1.957l-1.7812-0.15625-1.4766 0.10547-1.7578 0.125-1.1055 0.38672-2.7852 2.3711-1.6445 0.96094-1.125 0.23828-1.6836-0.21094-1.1445-0.14453-1.4219-0.074219-1.4883 0.17188-1.543 0.18359-1.6875 0.078125-0.35938 1.4844 0.75391 1.8516 1.0898 2.0234 1.4062 0.67969 0.72266 1.2656-0.52344 0.90234-1 0.95703-1.0234 0.75-1.207 0.21875-1.9648 0.98438-1.7656 0.14062-1.2852-0.20312-1.6445 0.16406-0.73047 1.1289-0.75391 1.2773-1.1836 0.98438-0.39844 1.0703-0.89062 1.2617-0.83594 0.55859-1 0.49219-1.3945 0.68359-1.5859-0.035156-1.082-0.29688-1.6211-0.60938-1.1758-0.27344-0.83203-1.1328-1.3242-0.53516-1.125-1.1523-1.8242-1.7656-2.9023-1.918-1.3242-0.30859-1.8594 0.64844-2.0547 1.0742-4.4062 2.6094-2.1367 0.74219-1.3828-3.5117-0.62109-0.80078-1.125-0.32031-1.4062 0.5-0.86328 0.68359-1.0547-0.51172-0.82812-1.2539 0.19922-1.2656 0.64844-1.6289 0.83594-1.9922-0.25-4.3281-0.23828-4.0547 0.039063-2.0312 0.054687-2.6758 0.023438-1.1836 0.035156-1.9727 0.16016-1.4922 0.22656-2.1133 0.027343-1.5508-0.085937-1.1562-0.39453-1.8594-0.88281-1.2852-0.83594-0.88281-0.28125-1.6641-0.19531-2.9375 0.19531-1.0039 2.0859-0.78906 1.125-0.875-0.082031-1.4375-0.55859-1.5664-1.0391-2.4688-0.375-1.3555-0.0625-1.293 0.13281-1.0469 1.3633-1.1797 0.73438-0.78906 1.0781-1.6094 0.20312-0.99609 2.4219-3.6211 0.53516-1.0508 3.0273-3.875 1.1992-0.55078 0.99609 0.13672 2.2266 0.17188 1.7109-0.92188 1.1172-0.34766 1.3945-0.29297 0.23438-1.0664-2.0898-1.1602-0.53125-0.91797 0.84375-1.9219-0.40625-3.8438-0.46484-0.97656-0.81641-1.3359 0.20312-1.5078-2.0508-0.88672-1.5742-0.80469 1.0391-0.76562 0.60547-1.0273-0.011719-1.1055 0.42188-1.2383 0.66797-0.79297 0.69531-1.3164 1.0938-1.375v-1.0195l-0.46094-1.0273-0.75781-1.1797-0.55469-1.0391 0.78125-1.2031 0.60547-1.1172 0.92969-1.0039 0.98828-0.6875 0.63672-0.94922 0.83984-0.67578 1.7148-0.66406 1.5859-0.27344 1.6445-0.34375 1.2852-1.625 1.332-1.3984 0.76562-0.73047 0.94531-0.89062 2.3594-1.3242 1.2344-0.28516 1.918 0.83594 1.7773 0.6875 1.1328 0.039062 1.3008 0.22266 1.4531-0.50781 1.3438-0.10938 0.53125-1.1055 0.61719-1.0352 0.82422-0.61328-0.003906-1.0039-0.003906-1.0508 0.0625-1.7344 0.64062-1.6133 0.59766-1.5 1.1875-1.2148 1.5469-1.1211 1.4766-0.375 1.1211-0.28906 1.3477-1.3672 2.4688-1.5195 1.1172-0.12891 1.0195-0.023438 2.7539-0.066406 1.1055-1.082 0.87891-1.3242 1.125-1.4766 0.75-1.8516-0.17969-1.4609-0.93359-2.6289 0.085938-1.3555 0.86719-1.2344 0.98828-1.3594 0.24609-1.0039 0.22656-1.0195 0.32031-0.95703 1.3047-1.1797 0.98828-0.98828 1.3555-0.054687 2.1016-0.98828 2.1875-1.2695 1.125-1.0742 0.83203-1.375 1.1797-0.6875 1.5352 0.72266 1.3047 0.37109 2.0273-0.84766 0.97266-0.47656 1.6562-0.44141 1.1289-0.47656 3.0859-0.29688 1.2539-0.54688 0.24609-1.5195 0.94141-1.6602 0.58594-1.125-0.12891-1.0625-0.22266-1.2539-0.82812-1.6484 0.40625-1.2734 0.91016-0.56641 1.5977-1.0977 0.69141-0.84375 0.97266-0.50391 1.3438-0.29297 1.1641-0.050782 1.1914 0.3125 2.3711 1.125 4.0469 0.39062 3.3008 0.67969 1.1914 0.47266 1.2695 0.49609 3.2461 0.47266 1.0625-0.125 1.8828 1.4102 0.94141 0.66016 1.2227-0.21875 1.6289-0.0625 1.7812-0.67969 1.2109-0.26172 1.0195-0.023437 0.875-0.86328 1.6172-1.4258 1.5469-1.3672 1.0703-0.70312 1.7266-2.0391 0.39844-1.4062 0.18359-1.1445 0.39844-0.94141 0.92578-1.3047 0.98047-0.70312 1.2031-0.51953 0.64453-3.0859 0.53516-0.89062 1.8516-0.625 1.7383-1.0195 0.91797-0.96484 0.95312-0.59375-0.046875-1.0625-0.16016-1-0.73438-0.82422-0.43359-1.2031 0.73047-1.5195 0.035156-1.0234-0.81641-1.0234 0.24219-1.7891 1.2344-1.5352 0.86328-1.1797 0.91406-0.51562 1.3047-0.91406 0.60156-1.4414 0.17188-1.3438-0.035156-1.2891-0.22266-1.2383 0.9375-0.91016 0.63281-1.3477 0.92188-1.2656 1.0859-0.38672 1.1719-0.64453 1.4961-0.73047 0.88281-1.6211 1.2656-1.1562 1.6758 0.13672 0.9375 0.61719 1.168 0.67578 1.5547-0.125 0.96094-0.67188 1.3359-0.23438 0.17969 1.1016 0.58203 0.84766 1.5625 0.38672 1.293 0.15234 0.52344 1.418 1.7852 1.0156 1.5703 1.0469 1.293 0.10938 1.2656-0.10938h1.3594l2.0938-0.35938 0.85156-0.69922 1.5742-0.25391 1.4258-0.10938 1.332-0.10156 1.0859-0.085938 1.5-0.16406 1.3867-0.21484 1.0898-0.71875 0.53906-1.2773 0.50781-1.3711 0.74219-0.97266 1.7461-0.50391 1.2969-0.35156 1.668-0.070313 1.6211 0.011719 1.0039-0.019531z" fill="#ccc" fill-rule="evenodd"/>
<path d="m301.25 291.91-0.085937 0.42188-0.68359 1.0547-1.0781 0.22266-0.75 0.71875-0.53125 1.4961 0.28125 1.2422 0.875 0.85938 0.36719 1.1758 0.44922 0.94922 0.67969 0.76953 1.0391 0.21875 0.74219 0.75391 0.16797 1.2773 0.20312 1.1172-0.67578 1.1914-1.1992 0.30859-0.26953 1.043 0.44922 1.0977-1.1289 0.79297-0.83984 0.63281 0.12109 1.0664 0.61328 0.82031-0.082031 1.1914-1.793 1.1055-1.3125 0.38281-0.94922 1.043-0.48828 1.5234-0.73047 0.98047-0.92969 0.40625-1.1133 0.72266-1.375 0.82031-0.94141 1.0781-0.84375 0.91406-0.9375 0.84375-1.4414 1.2656-1.0117 0.65625-1.2188 0.23438-1.4141 1.3711-0.44922 1.168-0.23438 2.293-0.75 1.1797-0.83984 0.59375-1.5977 0.40625-0.6875 0.92578 0.42969 1.7383 0.25781 0.99609 0.53125 0.88281 0.78125 1.4531 0.20703 1.2266 0.66797 1.043 0.48438 1.168 0.1875 1.5195 0.54688 0.92969 0.91016 0.51953 0.92578 0.64844 0.65625 0.96875 0.94922 0.8125 0.73438 1.5781 0.125 1.9141 2.0117 1.5039 0.84375 0.78125 0.5 0.97266-1.8125 0.28906-1.0977-0.20703-1.082 0.13281-1.2812 0.70703-1.3867 1.8828-0.89844 1.0195-1.1875 1.8477-0.55469 0.86328-0.76953 0.89453-1.3867 0.52734-0.82812 1.2109-0.30469 1.6523-0.73047 1.4961-0.46875 0.96094-1.1602 1.6523-1.7344 0.91797-1.3594 1.2188-0.94141 0.50781-1.0898 1.2227-1.832 1.707-1.3633 1.5625-0.64062 0.94531-0.62891 1.1992-1.1953 0.64844-1.2109 0.66016-1.4297 0.77734-0.98047 1.3047-0.60156 1.0273-0.98828 0.85547-1.3438 0.58203-1.0391 0.28906-1.2695 0.75781-1.2109 1.3242-1.5977 0.68359-1.1641-0.046875-1.9102-1.1133-0.91406-1.0234-1.4531 0.15234-2.3594 0.52344-1.7812 0.55469-1.1797 0.72656-1.4531 1.3555-1.1797 0.625-1.2773 0.27734-2.332 1.8789-1.0312 1.3828-0.69922 1.2266-0.80469 0.95312-1.5039 1.2812-0.42578 1.043 0.15234 2.2266 0.34766 2.6484-0.14844 1.4141-0.18359 1.2461 0.11719 1.2461-0.058594 1.0117-0.65625 0.99609-1.1133 1.9453-1.1133 1.1797-0.96875 1.0352-1.5312 1.1562-2.0703 1.4609-1.9883 0.26953-0.71484 1.2461 0.21094 3.8594-2.5508 0.94141-1.6289 0.13672-1.8047 0.29297-2.1133 0.52344-1.6719 1.3828-1.1562 0.95312-1.1797 0.77734-0.63281 1.582-0.14453 1.4805-0.22266 1.5547 0.125 2.207-2.6406 0.42969-0.97266 0.47266-1.918 0.71094-0.33984 2.3242-0.83984 0.88672-1.0664 0.11719-1.3047 1.1016-0.90234 1.9844-0.95312 3.0352-1.3047 0.023437-1.0508-0.40234-1.6016 0.23828-1.4062-0.023438-1.2578-0.26562-1.4297-0.30078-1.0781 0.20312-0.30078 3.0586-0.019532 1.0898-0.14844 2.0078-0.33203 2.2578-0.57422 1.3828-0.64844 2.3242-0.98828 2.8516-0.43359 1.0312-0.72266 1.5-0.51562 1.75-0.58203 1.9883-0.75391 2.5586-0.039063 1.0234 0.44141 2.3398 0.46094 2.4609-0.1875 2.2773-0.60156 1.6055-2.2578 1.1055-1.3281 0.39844-2.6602 0.15234h-1.957l-1.7812-0.15625-1.4766 0.10547-1.7578 0.125-1.1055 0.38672-2.7852 2.3711-1.6445 0.96094-1.125 0.23828-1.6836-0.21094-1.1445-0.14453-1.4219-0.074219-1.4883 0.17188-1.543 0.18359-1.6875 0.078125-0.35938 1.4844 0.75391 1.8516 1.0898 2.0234 1.4062 0.67969 0.72266 1.2656-0.52344 0.90234-1 0.95703-1.0234 0.75-1.207 0.21875-1.9648 0.98438-1.7656 0.14062-1.2852-0.20312-1.6445 0.16406-0.73047 1.1289-0.75391 1.2773-1.1836 0.98438-0.39844 1.0703-0.89062 1.2617-0.83594 0.55859-1 0.49219-1.3945 0.68359-1.5859-0.035156-1.082-0.29688-1.6211-0.60938-1.1758-0.27344-0.83203-1.1328-1.3242-0.53516-1.125-1.1523-1.8242-1.7656-2.9023-1.918-1.3242-0.30859-1.8594 0.64844-2.0547 1.0742-4.4062 2.6094-2.1367 0.74219-1.3828-3.5117-0.62109-0.80078-1.125-0.32031-1.4062 0.5-0.86328 0.68359-1.0547-0.51172-0.82812-1.2539 0.19922-1.2656 0.64844-1.6289 0.83594-1.9922-0.25-4.3281-0.23828-4.0547 0.039063-2.0312 0.054687-2.6758 0.023438-1.1836 0.035156-1.9727 0.16016-1.4922 0.22656-2.1133 0.027343-1.5508-0.085937-1.1562-0.39453-1.8594-0.88281-1.2852-0.83594-0.88281-0.28125-1.6641-0.19531-2.9375 0.19531-1.0039 2.0859-0.78906 1.125-0.875-0.082031-1.4375-0.55859-1.5664-1.0391-2.4688-0.375-1.3555-0.0625-1.293 0.13281-1.0469 1.3633-1.1797 0.73438-0.78906 1.0781-1.6094 0.20312-0.99609 2.4219-3.6211 0.53516-1.0508 3.0273-3.875 1.1992-0.55078 0.99609 0.13672 2.2266 0.17188 1.7109-0.92188 1.1172-0.34766 1.3945-0.29297 0.23438-1.0664-2.0898-1.1602-0.53125-0.91797 0.84375-1.9219-0.40625-3.8438-0.46484-0.97656-0.81641-1.3359 0.20312-1.5078-2.0508-0.88672-1.5742-0.80469 1.0391-0.76562 0.60547-1.0273-0.011719-1.1055 0.42188-1.2383 0.66797-0.79297 0.69531-1.3164 1.0938-1.375v-1.0195l-0.46094-1.0273-0.75781-1.1797-0.55469-1.0391 0.78125-1.2031 0.60547-1.1172 0.92969-1.0039 0.98828-0.6875 0.63672-0.94922 0.83984-0.67578 1.7148-0.66406 1.5859-0.27344 1.6445-0.34375 1.2852-1.625 1.332-1.3984 0.76562-0.73047 0.94531-0.89062 2.3594-1.3242 1.2344-0.28516 1.918 0.83594 1.7773 0.6875 1.1328 0.039062 1.3008 0.22266 1.4531-0.50781 1.3438-0.10938 0.53125-1.1055 0.61719-1.0352 0.82422-0.61328-0.003906-1.0039-0.003906-1.0508 0.0625-1.7344 0.64062-1.6133 0.59766-1.5 1.1875-1.2148 1.5469-1.1211 1.4766-0.375 1.1211-0.28906 1.3477-1.3672 2.4688-1.5195 1.1172-0.12891 1.0195-0.023438 2.7539-0.066406 1.1055-1.082 0.87891-1.3242 1.125-1.4766 0.75-1.8516-0.17969-1.4609-0.93359-2.6289 0.085938-1.3555 0.86719-1.2344 0.98828-1.3594 0.24609-1.0039 0.22656-1.0195 0.32031-0.95703 1.3047-1.1797 0.98828-0.98828 1.3555-0.054687 2.1016-0.98828 2.1875-1.2695 1.125-1.0742 0.83203-1.375 1.1797-0.6875 1.5352 0.72266 1.3047 0.37109 2.0273-0.84766 0.97266-0.47656 1.6562-0.44141 1.1289-0.47656 3.0859-0.29688 1.2539-0.54688 0.24609-1.5195 0.94141-1.6602 0.58594-1.125-0.12891-1.0625-0.22266-1.2539-0.82812-1.6484 0.40625-1.2734 0.91016-0.56641 1.5977-1.0977 0.69141-0.84375 0.97266-0.50391 1.3438-0.29297 1.1641-0.050782 1.1914 0.3125 2.3711 1.125 4.0469 0.39062 3.3008 0.67969 1.1914 0.47266 1.2695 0.49609 3.2461 0.47266 1.0625-0.125 1.8828 1.4102 0.94141 0.66016 1.2227-0.21875 1.6289-0.0625 1.7812-0.67969 1.2109-0.26172 1.0195-0.023437 0.875-0.86328 1.6172-1.4258 1.5469-1.3672 1.0703-0.70312 1.7266-2.0391 0.39844-1.4062 0.18359-1.1445 0.39844-0.94141 0.92578-1.3047 0.98047-0.70312 1.2031-0.51953 0.64453-3.0859 0.53516-0.89062 1.8516-0.625 1.7383-1.0195 0.91797-0.96484 0.95312-0.59375-0.046875-1.0625-0.16016-1-0.73438-0.82422-0.43359-1.2031 0.73047-1.5195 0.035156-1.0234-0.81641-1.0234 0.24219-1.7891 1.2344-1.5352 0.86328-1.1797 0.91406-0.51562 1.3047-0.91406 0.60156-1.4414 0.17188-1.3438-0.035156-1.2891-0.22266-1.2383 0.9375-0.91016 0.63281-1.3477 0.92188-1.2656 1.0859-0.38672 1.1719-0.64453 1.4961-0.73047 0.88281-1.6211 1.2656-1.1562 1.6758 0.13672 0.9375 0.61719 1.168 0.67578 1.5547-0.125 0.96094-0.67188 1.3359-0.23438 0.17969 1.1016 0.58203 0.84766 1.5625 0.38672 1.293 0.15234 0.52344 1.418 1.7852 1.0156 1.5703 1.0469 1.293 0.10938 1.2656-0.10938h1.3594l2.0938-0.35938 0.85156-0.69922 1.5742-0.25391 1.4258-0.10938 1.332-0.10156 1.0859-0.085938 1.5-0.16406 1.3867-0.21484 1.0898-0.71875 0.53906-1.2773 0.50781-1.3711 0.74219-0.97266 1.7461-0.50391 1.2969-0.35156 1.668-0.070313 1.6211 0.011719 1.0039-0.019531 0.43359 0.054687" fill="none" stroke="#fff" stroke-linecap="round" stroke-linejoin="round" stroke-miterlimit="10" stroke-width="2"/>
<path d="m150.02 256.59 0.89844 0.1875 0.94531 0.91406 1.7461 1.3203 1.7422 0.42188 0.94922 0.42188 1.9219 0.85938 0.22656 1.9023-0.23438 1.2695-0.019531 1.5078 0.98438 1.5234 0.70312 1.0547 0.51562 2.0234 1.4531 0.019531 1.6953 0.8125 1 0.76172 1.5742 0.84375 1.3281 0.11328 1.1602 0.125 1.2188 0.51953 0.94531 0.51562 0.87109 0.88281 1.1641 1.3828 0.76172 2.3047 1.2344 1.2188 1.6211 0.43359 1.5859-1.293 0.79297-1.3242 1.9844-1.4297 0.95312-0.94922 0.65625-0.78516 0.22656-3.0859 0.46875-2.082 1.0312-1.3477 0.99609-0.71094 1.2734-0.77344 1.0898-0.55469 1.5078 0.39844 0.82031 0.95312 1.1797 0.78516 1.5703 0.45312 2.2031-0.48828 1.9023-0.32422 3.3047-0.40625 1.793-0.49609 0.8125-0.98438 2.7617-2.2188 1.6914-0.92188 3.0703-0.66406h1.957l1.0586 0.10547 1.7695 0.26562 1.0117 0.1875 1.2109 0.65625 0.51562 2.2109-1.082 0.35156 0.015625 2.6797-1.1602 1.5352-0.85156 0.68359-0.42969 1.4141-0.20703 2.6953-0.097657 1.2461-0.19922 2.5547-0.30078 1.1484-0.17188 1.7461-0.3125 2.5703-0.035156 1.1914 0.10547 1.4336-0.054688 1.1445-0.58203 1.8281-0.68359 1.4766-0.21094 1.6641 0.16016 1.7148-0.19141 1.8633 1.5117 1.3359 2.0742 0.55859 1.125 0.27734 1.1055 0.26953h1.1055l1.3086 0.23438 1.4258 0.49219 1.043 0.67188 1.5234-0.45703 1.7891-0.58984 0.91797 0.61328 0.60938 1.5039-0.15234 1.2656-0.9375 1.8086-0.50391 0.92969 0.089844 1.3398 0.30469 2.1055 0.76172 1.8203 1.3984 2.0703 1.4141 1.6992 1.3398 1.0625 1.3008 0.55469 1.3086 0.30469 1.8711 0.37891 1.4844 0.13672 1.7461 0.16016 2.1836-0.023437 2.8125 0.24219 1.4375-0.13281 1.6562-0.48047 0.92578 0.625 0.73438 0.82422 0.16016 1 0.046875 1.0625-0.95312 0.59375-0.91797 0.96484-0.92578 0.62109-1.7734 0.62891-1.4258 1.2852-0.32422 2.2461-0.66016 1.1211-1.8438 0.94141-0.92578 1.3047-0.39844 0.94141-0.18359 1.1445-0.39844 1.4062-1.7266 2.0391-1.0703 0.70312-1.5469 1.3672-1.6172 1.4258-0.875 0.86328-1.0195 0.023437-1.2109 0.26172-0.87109 0.55469-2.5391 0.1875-1.2227 0.21875-0.94141-0.66016-1.1289-1.2227-1.8164-0.0625-2.4453-0.15625-1.6016-0.62891-0.97266-0.5625-3.9883-0.77344-3.8398-0.36719-2.5781-1.1484-1.1914-0.3125-1.1641 0.050782-1.3438 0.29297-0.97266 0.50391-0.69141 0.84375-1.5977 1.0977-0.91016 0.56641-0.53125 1.0664 0.85938 1.4258 0.24219 1.0938 0.20312 1.6523-0.58594 1.125-0.94141 1.6602-0.24609 1.5195-1.2539 0.54688-3.0859 0.29688-1.1289 0.47656-1.6562 0.44141-0.97266 0.47656-1.2539 0.61328-2.0781-0.13672-1.5352-0.72266-1.1797 0.6875-0.83203 1.375-1.125 1.0742-1.5703 0.83203-2.7188 1.4258-1.3555 0.054687-0.98828 0.98828-0.84766 0.5625-0.53906 0.86719-0.39453 1.1797-0.31641 1.5508-0.98828 1.3594-0.86719 1.2344-0.085938 1.3555 0.93359 2.6289 0.17969 1.4609-0.28516 1.082-1.5898 2.2461-0.87891 1.3242-1.1055 1.082-2.7539 0.066406-1.0195 0.023438-1.1172 0.12891-2.4688 1.5195-1.3477 1.3672-1.1211 0.28906-1.4766 0.375-1.5469 1.1211-1.1875 1.2148-0.59766 1.5-0.64062 1.6133-0.0625 1.7344 0.003906 1.0508 0.003906 1.0039-0.82422 0.61328-0.61719 1.0352-0.53125 1.1055-1.3438 0.10938-1.4531 0.50781-1.3008-0.22266-1.1328-0.039062-1.7773-0.6875-1.4336-0.77344-1.7188 0.22266-2.3594 1.3242-0.94531 0.89062-0.76562 0.73047-1.332 1.3984-1.2852 1.625-1.6445 0.34375-1.5859 0.27344-1.7148 0.66406-0.83984 0.67578-0.63672 0.94922-0.98828 0.6875-0.92969 1.0039-0.60547 1.1172-0.78125 1.2031 0.55469 1.0391 0.75781 1.1797 0.46094 1.0273v1.0195l-0.62109 0.82812-0.75781 1.1406-1.0781 1.5156-0.42188 1.2383 0.011719 1.1055-0.60547 1.0273-1.4492 0.625-1.5625 0.16016-1.9609-0.40234-0.98047-2.6914-0.52734-1.8828-0.4375-1.5742-1.4141-1.9609-1.0156-1.6016-0.98828-1.2695-1.3867-0.54688-1.293 0.14453-1.1445-0.32031-0.29688 1.8203-0.53516 1.7109-0.72266 1.6328-1.332 2.2227-0.375 1.1406-1.9023 0.71875-1.2812-0.078125-2.6875-0.16797-1.8477-0.20703-1.2461-1.3867-0.6875-2.7305-1.4102-1.0742-1.9102 0.71094-1.082 0.62109-1.2617-0.35547-1.2266-0.90625-0.3125-1.8828-0.52344-1.2852-0.28906-1.0742-0.97266-0.73828-1.9961-1.293-1.7734-0.19922h-1.3516l-1.6133-0.30859-0.85547-0.64062-0.99609-1.543-0.71094-0.89844-1.4219-0.64062-0.61328-1.4102-1.3047-1.3477-0.97266-2.8906-0.49219-2.6641-1.0898-1.7344-2.7461-2.3242-0.26172-1.168-0.95312-2.3633-1.0391-1.4414-0.18359-1.0742 0.25-1.3203-0.33203-1.2148-0.72266-1.7383-0.15234-1.3359 0.45703-0.91016-0.875-1.293-0.70703-0.875-0.33594-1.0781-0.31641-1.2266-1.0312-0.26953-1.6484 0.28516-1.043 0.625-1.3125 0.26953-0.94531-1.0938-0.66797-1.2422-1.1484-0.83594-1.875-0.16797-1.3867-0.28125-1.4805-1.6016-1.0664-1.0547-0.91797-0.84375-1.3398-0.86328-1.4766-0.62109-1.1289-0.35547-0.48828-1.3086-0.66016-1.6523-1.2383-1.1797-0.85938-1.4648-0.56641-1.082 0.015625-1.7305 0.85156-1.2617 0.67188-0.97266 1.1328-0.69141 1.4805-0.10156 1.0117 0.10938 0.58594-0.83984 0.48438-1.4453 0.011719-1.1328 0.56641-1.2148 1.1641-0.96094 1.2852-0.80078 1.0352-1.3438 1.1875 0.5625 1.0625 0.47266 0.87891 0.53906 1.4688 0.28516 1.1172 0.24609 1.3125-0.046875 1 0.67578 0.73438 0.75391 1.3984 0.76172 1.6602 0.80078 0.86719 0.58203 0.90234 0.48047 0.89062 0.65234 1.0352 0.3125 1 0.71094 1.2891 0.97266 1.2148 0.39844 1.2891 1.2188 0.91406 0.97266 0.95312 1.1328 1.168 0.90234 1.168 0.43359 1.0156 0.81641 0.41406 1.1211 1.1797 0.59766 1.2188 0.40234 1.6836 0.45703 1.3203 0.35547 1.1992 0.34375 1.8164-0.046875 1.0781 0.28125 1.3711-0.03125 2.1797 0.015625 1.3398-0.22656 4.1094-1.3242 1.793-0.64844 1.3281-1.1875-0.48438-1.7305 0.03125-1.4102-0.34375-1.0234 0.050781-1.8203 0.25391-1.2734 0.97656-1.3125 0.54297-1.1172 0.63281-1.0117 0.76172-0.78516 0.125-1.5078-0.69531-1.0312-0.3125-1.5469-0.23828-1.0117-0.29688-1.0195-0.33203-1 0.53125-0.90625 0.76172-1.1875-0.125-1.2617 0.50391-1.0469 0.58203-1.082 0.92969-0.80078 1.0898-0.16016 1.5469-1.4883 0.13672-1.2969 0.70703-1.0273 1.2266-0.42188 0.99219-0.66797 1.0938-0.44531 0.58594-1.3789 1.5-0.64062 1.2969-0.41016 0.93359-0.44531 1.0664-0.31641 1.1992-0.52344 0.86328-1.0781 1.1094-0.29688 0.50781-0.97656-0.11719-1.0117 1.4492-1.2031 1.7969-1.1055-0.49219-0.89062-0.69531-1.2031-1.668-1.0195-1.9922-0.25391-1.1094-0.96484-1.4492-1.0742-0.9375-0.58594-0.63672-1.125-0.5-1.1133-0.33203-1.7773-0.21875-1.0742-0.32031-1.4961-0.078125-1.7578-0.54297-1.1133-1.3398-0.55469-1.707-0.76172-1.6797-0.97266-0.64844-0.99609-0.10938-1.6797 0.78906-1.7148 0.023438-1.3008 0.12891-1.4961 0.41797-1.6914 0.19531-2.125 0.86719-0.96484 0.85547-1.2539-0.14844-1.0234 0.03125-1.0273-0.51562-1.3164 0.48047-2.2188 0.80469-1.6641 0.83594-1.3516 1.3398 0.60547 1.9648 0.64453 1.625 0.33594 0.93359-0.79297 0.15234-1.1875 0.72656-1.25 1.6523-1.3008 0.78516-0.95312 1.3867-0.84766 0.55859-0.99609-0.77734-1.8789 0.054687-1.7695 0.65625-1.1836 2.0156 0.31641 0.94922-0.56641 1.4023-0.625 1.2695-0.82812 0.74609-0.8125 1.6094 0.23438 1.6602-0.86328 1.0117-0.47266 0.78125-0.82812 0.58984-1.1602 1.4062 0.9375 1.0859 0.42578 1.1328-0.17188 2.1484 0.84766 1.2539 0.89844 1.2891 0.92188 1.6602-0.1875 2.707-0.26172 1.1328-0.29297 0.83594-0.65234 2.0781-2.2031 0.94531-1.1328z" fill="#ccc" fill-rule="evenodd"/>
<path d="m150.02 256.59 0.89844 0.1875 0.94531 0.91406 1.7461 1.3203 1.7422 0.42188 0.94922 0.42188 1.9219 0.85938 0.22656 1.9023-0.23438 1.2695-0.019531 1.5078 0.98438 1.5234 0.70312 1.0547 0.51562 2.0234 1.4531 0.019531 1.6953 0.8125 1 0.76172 1.5742 0.84375 1.3281 0.11328 1.1602 0.125 1.2188 0.51953 0.94531 0.51562 0.87109 0.88281 1.1641 1.3828 0.76172 2.3047 1.2344 1.2188 1.6211 0.43359 1.5859-1.293 0.79297-1.3242 1.9844-1.4297 0.95312-0.94922 0.65625-0.78516 0.22656-3.0859 0.46875-2.082 1.0312-1.3477 0.99609-0.71094 1.2734-0.77344 1.0898-0.55469 1.5078 0.39844 0.82031 0.95312 1.1797 0.78516 1.5703 0.45312 2.2031-0.48828 1.9023-0.32422 3.3047-0.40625 1.793-0.49609 0.8125-0.98438 2.7617-2.2188 1.6914-0.92188 3.0703-0.66406h1.957l1.0586 0.10547 1.7695 0.26562 1.0117 0.1875 1.2109 0.65625 0.51562 2.2109-1.082 0.35156 0.015625 2.6797-1.1602 1.5352-0.85156 0.68359-0.42969 1.4141-0.20703 2.6953-0.097657 1.2461-0.19922 2.5547-0.30078 1.1484-0.17188 1.7461-0.3125 2.5703-0.035156 1.1914 0.10547 1.4336-0.054688 1.1445-0.58203 1.8281-0.68359 1.4766-0.21094 1.6641 0.16016 1.7148-0.19141 1.8633 1.5117 1.3359 2.0742 0.55859 1.125 0.27734 1.1055 0.26953h1.1055l1.3086 0.23438 1.4258 0.49219 1.043 0.67188 1.5234-0.45703 1.7891-0.58984 0.91797 0.61328 0.60938 1.5039-0.15234 1.2656-0.9375 1.8086-0.50391 0.92969 0.089844 1.3398 0.30469 2.1055 0.76172 1.8203 1.3984 2.0703 1.4141 1.6992 1.3398 1.0625 1.3008 0.55469 1.3086 0.30469 1.8711 0.37891 1.4844 0.13672 1.7461 0.16016 2.1836-0.023437 2.8125 0.24219 1.4375-0.13281 1.6562-0.48047 0.92578 0.625 0.73438 0.82422 0.16016 1 0.046875 1.0625-0.95312 0.59375-0.91797 0.96484-0.92578 0.62109-1.7734 0.62891-1.4258 1.2852-0.32422 2.2461-0.66016 1.1211-1.8438 0.94141-0.92578 1.3047-0.39844 0.94141-0.18359 1.1445-0.39844 1.4062-1.7266 2.0391-1.0703 0.70312-1.5469 1.3672-1.6172 1.4258-0.875 0.86328-1.0195 0.023437-1.2109 0.26172-0.87109 0.55469-2.5391 0.1875-1.2227 0.21875-0.94141-0.66016-1.1289-1.2227-1.8164-0.0625-2.4453-0.15625-1.6016-0.62891-0.97266-0.5625-3.9883-0.77344-3.8398-0.36719-2.5781-1.1484-1.1914-0.3125-1.1641 0.050782-1.3438 0.29297-0.97266 0.50391-0.69141 0.84375-1.5977 1.0977-0.91016 0.56641-0.53125 1.0664 0.85938 1.4258 0.24219 1.0938 0.20312 1.6523-0.58594 1.125-0.94141 1.6602-0.24609 1.5195-1.2539 0.54688-3.0859 0.29688-1.1289 0.47656-1.6562 0.44141-0.97266 0.47656-1.2539 0.61328-2.0781-0.13672-1.5352-0.72266-1.1797 0.6875-0.83203 1.375-1.125 1.0742-1.5703 0.83203-2.7188 1.4258-1.3555 0.054687-0.98828 0.98828-0.84766 0.5625-0.53906 0.86719-0.39453 1.1797-0.31641 1.5508-0.98828 1.3594-0.86719 1.2344-0.085938 1.3555 0.93359 2.6289 0.17969 1.4609-0.28516 1.082-1.5898 2.2461-0.87891 1.3242-1.1055 1.082-2.7539 0.066406-1.0195 0.023438-1.1172 0.12891-2.4688 1.5195-1.3477 1.3672-1.1211 0.28906-1.4766 0.375-1.5469 1.1211-1.1875 1.2148-0.59766 1.5-0.64062 1.6133-0.0625 1.7344 0.003906 1.0508 0.003906 1.0039-0.82422 0.61328-0.61719 1.0352-0.53125 1.1055-1.3438 0.10938-1.4531 0.50781-1.3008-0.22266-1.1328-0.039062-1.7773-0.6875-1.4336-0.77344-1.7188 0.22266-2.3594 1.3242-0.94531 0.89062-0.76562 0.73047-1.332 1.3984-1.2852 1.625-1.6445 0.34375-1.5859 0.27344-1.7148 0.66406-0.83984 0.67578-0.63672 0.94922-0.98828 0.6875-0.92969 1.0039-0.60547 1.1172-0.78125 1.2031 0.55469 1.0391 0.75781 1.1797 0.46094 1.0273v1.0195l-0.62109 0.82812-0.75781 1.1406-1.0781 1.5156-0.42188 1.2383 0.011719 1.1055-0.60547 1.0273-1.4492 0.625-1.5625 0.16016-1.9609-0.40234-0.98047-2.6914-0.52734-1.8828-0.4375-1.5742-1.4141-1.9609-1.0156-1.6016-0.98828-1.2695-1.3867-0.54688-1.293 0.14453-1.1445-0.32031-0.29688 1.8203-0.53516 1.7109-0.72266 1.6328-1.332 2.2227-0.375 1.1406-1.9023 0.71875-1.2812-0.078125-2.6875-0.16797-1.8477-0.20703-1.2461-1.3867-0.6875-2.7305-1.4102-1.0742-1.9102 0.71094-1.082 0.62109-1.2617-0.35547-1.2266-0.90625-0.3125-1.8828-0.52344-1.2852-0.28906-1.0742-0.97266-0.73828-1.9961-1.293-1.7734-0.19922h-1.3516l-1.6133-0.30859-0.85547-0.64062-0.99609-1.543-0.71094-0.89844-1.4219-0.64062-0.61328-1.4102-1.3047-1.3477-0.97266-2.8906-0.49219-2.6641-1.0898-1.7344-2.7461-2.3242-0.26172-1.168-0.95312-2.3633-1.0391-1.4414-0.18359-1.0742 0.25-1.3203-0.33203-1.2148-0.72266-1.7383-0.15234-1.3359 0.45703-0.91016-0.875-1.293-0.70703-0.875-0.33594-1.0781-0.31641-1.2266-1.0312-0.26953-1.6484 0.28516-1.043 0.625-1.3125 0.26953-0.94531-1.0938-0.66797-1.2422-1.1484-0.83594-1.875-0.16797-1.3867-0.28125-1.4805-1.6016-1.0664-1.0547-0.91797-0.84375-1.3398-0.86328-1.4766-0.62109-1.1289-0.35547-0.48828-1.3086-0.66016-1.6523-1.2383-1.1797-0.85938-1.4648-0.56641-1.082 0.015625-1.7305 0.85156-1.2617 0.67188-0.97266 1.1328-0.69141 1.4805-0.10156 1.0117 0.10938 0.58594-0.83984 0.48438-1.4453 0.011719-1.1328 0.56641-1.2148 1.1641-0.96094 1.2852-0.80078 1.0352-1.3438 1.1875 0.5625 1.0625 0.47266 0.87891 0.53906 1.4688 0.28516 1.1172 0.24609 1.3125-0.046875 1 0.67578 0.73438 0.75391 1.3984 0.76172 1.6602 0.80078 0.86719 0.58203 0.90234 0.48047 0.89062 0.65234 1.0352 0.3125 1 0.71094 1.2891 0.97266 1.2148 0.39844 1.2891 1.2188 0.91406 0.97266 0.95312 1.1328 1.168 0.90234 1.168 0.43359 1.0156 0.81641 0.41406 1.1211 1.1797 0.59766 1.2188 0.40234 1.6836 0.45703 1.3203 0.35547 1.1992 0.34375 1.8164-0.046875 1.0781 0.28125 1.3711-0.03125 2.1797 0.015625 1.3398-0.22656 4.1094-1.3242 1.793-0.64844 1.3281-1.1875-0.48438-1.7305 0.03125-1.4102-0.34375-1.0234 0.050781-1.8203 0.25391-1.2734 0.97656-1.3125 0.54297-1.1172 0.63281-1.0117 0.76172-0.78516 0.125-1.5078-0.69531-1.0312-0.3125-1.5469-0.23828-1.0117-0.29688-1.0195-0.33203-1 0.53125-0.90625 0.76172-1.1875-0.125-1.2617 0.50391-1.0469 0.58203-1.082 0.92969-0.80078 1.0898-0.16016 1.5469-1.4883 0.13672-1.2969 0.70703-1.0273 1.2266-0.42188 0.99219-0.66797 1.0938-0.44531 0.58594-1.3789 1.5-0.64062 1.2969-0.41016 0.93359-0.44531 1.0664-0.31641 1.1992-0.52344 0.86328-1.0781 1.1094-0.29688 0.50781-0.97656-0.11719-1.0117 1.4492-1.2031 1.7969-1.1055-0.49219-0.89062-0.69531-1.2031-1.668-1.0195-1.9922-0.25391-1.1094-0.96484-1.4492-1.0742-0.9375-0.58594-0.63672-1.125-0.5-1.1133-0.33203-1.7773-0.21875-1.0742-0.32031-1.4961-0.078125-1.7578-0.54297-1.1133-1.3398-0.55469-1.707-0.76172-1.6797-0.97266-0.64844-0.99609-0.10938-1.6797 0.78906-1.7148 0.023438-1.3008 0.12891-1.4961 0.41797-1.6914 0.19531-2.125 0.86719-0.96484 0.85547-1.2539-0.14844-1.0234 0.03125-1.0273-0.51562-1.3164 0.48047-2.2188 0.80469-1.6641 0.83594-1.3516 1.3398 0.60547 1.9648 0.64453 1.625 0.33594 0.93359-0.79297 0.15234-1.1875 0.72656-1.25 1.6523-1.3008 0.78516-0.95312 1.3867-0.84766 0.55859-0.99609-0.77734-1.8789 0.054687-1.7695 0.65625-1.1836 2.0156 0.31641 0.94922-0.56641 1.4023-0.625 1.2695-0.82812 0.74609-0.8125 1.6094 0.23438 1.6602-0.86328 1.0117-0.47266 0.78125-0.82812 0.58984-1.1602 1.4062 0.9375 1.0859 0.42578 1.1328-0.17188 2.1484 0.84766 1.2539 0.89844 1.2891 0.92188 1.6602-0.1875 2.707-0.26172 1.1328-0.29297 0.83594-0.65234 2.0781-2.2031 0.94531-1.1328 1.1523 0.11719" fill="none" stroke="#fff" stroke-linecap="round" stroke-linejoin="round" stroke-miterlimit="10" stroke-width="2"/>
<path d="m281.51 152.39 0.31641 0.15625 1.2656-0.070312 1.0508-0.11328 1.2266 0.69141 1.1055 0.46094 0.96094 0.83594 0.33984 1.0273-0.23828 1.3555 0.56641 1.3242 0.5 1.7422-0.11719 1.2617 0.125 1.0625 0.76953 1.3164 0.19141 1.5625 0.76172 1.0117 0.75 1.2617 0.94922 0.875 1.4609 1.5156 1.2812 1.2773 0.88281 0.48438 0.82422 0.57031 0.84766 0.75 1.1836 0.42188 1.0742 1.1211 0.27344 1.0352 0.56641 1.5391 0.87891 1.0039 0.29688 1.1406 1.125 0.46094 0.89453 0.94531-0.26562 1.582 0.17969 1.0156 0.33984 1.0078-0.10547 1.7422-0.23047 1.0195-0.42578 1.4375-0.31641 1.0312-0.46875 0.92188 0.074219 1.043 0.55469 0.90234 0.25 1.0781-0.019532 1.0703-0.69922 0.84375-0.10156 1.1641 0.13281 1.0508-0.16016 1.293-0.40234 1.4688-0.78125 0.90625-0.44141 0.91797 0.30078 0.96875 1.1367 1.6875 0.73438 0.75-0.39844 1.4023-0.67578 0.85156-0.21094 1.168 0.37891 2.2305 0.24609 2.0273-0.24609 1.4688-0.003906 1.1953 0.71875 1.6797 0.92969 1.6992 0.17969 1.4219 0.39453 1.7383 0.19531 1.0234 0.011719 1.0547-0.0625 1.0273 0.32422 1.0664 0.14453 1.0508 0.36719 1.3125-0.14453 1.0156 0.69531 1.1367 0.15625 1-0.83203 0.88672 0.33203 1.375 0.21094 1.1914-0.8125 1.0625-0.14844 1.3633 0.41797 1.0117 0.89844 0.67578 0.36328 0.97266-0.30078 1.1992-0.71484 1.5117-0.95703 0.67578-1.2383 0.19141-0.75 0.8125-0.0625 1.0312 0.32812 0.98828-0.37109 1.3242-0.85938 1.0312-0.875 0.80469-0.71875 0.9375-0.90234 1.3164-0.12891 1.4688-0.14453 1.0195-0.27344 1.1797 0.42969 0.97266-0.13672 1.0117 0.085937 1.0625 0.14453 1.0117-0.26953 1 0.22656 1.4883-0.14453 1.3242-0.78516 1.2969-0.53906 0.98438-1.043 2.7422-0.38672 1.5547-0.042969 1.1602 0.71875 0.74219 1.3789 1.3125 1.1992 0.73047 0.53125 0.875-0.042968 1.2188-0.36328 1.832-1.2305 1.3477-0.011719 1.1562 1.2344 1.7852 0.25 1.0508 0.58203 1.4375 0.16797 1.1602 0.19531 1.1484 0.94141 1.5312 0.76172 0.91406-0.29688 1.3281-0.92578 0.67969-1.1875 0.089844-1.5195-0.015625-1.3633 0.054687-1.125 0.14062-1.418 0.47266-1.1875 0.48438-0.66016 1.2891-0.46875 1.2734-0.79688 1.1797-2.0586 0.58984-1.5 0.16406-1.0859 0.085938-1.332 0.10156-1.4258 0.10938-1.5742 0.25391-0.85156 0.69922-2.0938 0.35938h-1.3594l-1.2656 0.10938-1.293-0.10938-1.5703-1.0469-1.1133-0.53906-0.90234-0.96875-0.67969-1.0781-2.2148-0.17578-0.83594-1.0586-0.17969-1.1016-1.3359 0.23438-0.96094 0.67188-1.2109 0.18359-1.5117-0.73438-0.9375-0.61719-1.0039-0.20703-1.4297 0.44141-1.0312 2.1328-1.1836 0.50781-1.2969 0.95312-1.2344 0.25781-1.3203 1.582-0.63281 1.3477-0.9375 0.91016 0.22266 1.2383 0.035156 1.2891-0.17188 1.3438-0.27734 1.1328-1.2539 1.0156-1.2891 0.72266-0.86328 1.1797-0.92578 0.66016-0.60156 2.043 0.56641 1.3945 0.26562 1.2734-0.46484 0.96875-0.015625 1.2734-2.3984 0.33594-1.4375 0.13281-2.8125-0.24219-1.4414 0.054687-1.5742-0.066406-2.3984-0.26172-1.8711-0.37891-1.3086-0.30469-1.3008-0.55469-0.85156-0.67578-1.9023-2.0859-1.3984-2.0703-0.76172-1.8203-0.30469-2.1055-0.089844-1.3398 0.50391-0.92969 0.69531-1.2852 0.37109-1.1367-0.30469-1.2852-0.60938-1.4609-1.5547 0.21094-1.7812 0.76953-1.6094-0.62891-1.4258-0.49219-1.3086-0.23438h-1.1055l-1.1055-0.26953-1.125-0.27734-2.0742-0.55859-1.5547-0.41797 0.31641-1.8789-0.24219-2.6172 0.21094-1.6641 0.63281-1.3594 0.63281-1.9453 0.054688-1.1445-0.10547-1.4336 0.035156-1.1914 0.27344-2.3828 0.21094-1.9336 0.30078-1.1484 0.19922-2.5547 0.097657-1.2461 0.20703-2.6953 0.42969-1.4141 0.85156-0.68359 0.85156-0.91016 0.21875-2.8125 1.1562-0.84375 1.0117-0.61328 1.4297-0.64453 0.69141-0.96094 0.43359-1.3047 0.35547-1.3242 1.0352-1.5547 0.76172-1.2773 0.38281-0.96094 0.19922-1.1367 0.5-1.1562 0.71094-0.99219 0.38672-1.2305-0.011719-1.0078 0.30859-1.0547 0.19922-1.0625 0.12891-1.0977 0.46484-1.125-0.039063-1.5781 1.457-0.48438 1.0469-0.015625 0.76953-0.65234v-1.0938l1.2422 0.23438 1.2188-0.03125 1.1797-0.26953 0.94531-0.45703 1.1172 0.023438 0.85156-0.65234 1.1914-0.375 1.082-0.33984 1.0898 0.33984 0.94531 0.5 0.98828 0.35547 0.82422-0.72656 0.85938-0.81641 1.0117-0.5 0.90625 0.47266 0.83984 0.6875 1.0352-0.34766 0.88672-0.49609 1.0938 0.39453 1.3555 0.48047 0.51953-1.0156 1.1719-0.1875 1.0938-0.86328 0.86328-0.79297 0.85547-0.85547 1.1797-0.5 0.98828-0.35156 1.0352-0.31641 1.543 0.20312 0.91797 0.58203 0.51172 0.86328 0.96875 0.35547 1.4375-0.29297 1.082-0.83203 1.2656-1.25 0.84375-0.73438 0.71875-0.88672 0.26953-1.082 1.1562-1.0664 0.32422-1.0703 0.29297-1.1602 0.27344-1.207 0.60156-1.0625 0.51172-0.90625 0.48047-1.1875 0.63281-0.83594 0.53516-0.9375 0.66797-1.0781 0.15234-1.332 0.85547-0.625 0.52344-1.1602-0.0625-1.2188 0.46875-0.96875 0.30078-1.3359 0.82422-1.418-0.17969-1.0938 0.003906-1.5117-0.0625-1.3359 0.21094-1.1641-0.42969-1.0312-0.25391-1.0664-0.67188-1-1.2344-0.17578-0.89844-0.89844-0.83203-0.72266-0.30078-1.0703-0.16016-1.5547 0.03125-1.1797 0.32422-1.1992 0.035156-1.0703 0.40625-0.98047 0.73828-1.2617 0.60547-0.83203 0.96875-0.48438 0.66797-1.1758 0.73828-0.75 1.3281-0.19922 1.0117-2.5156 0.55859-0.87109-0.14453-1.2773-0.375-1.082-0.14844-1.1875-0.14453-1.0508 0.22266-1.5586 0.43359-2.2109-0.058593-1.2695-0.15625-1.6758-0.035157-1.3672-0.52734-1.043-0.79297-1.1562-0.875-0.96094-0.57812-1.3438 0.19141-1.1367 0.09375-1.3242 0.24609-2.5664 0.097656-1.0312 0.64453-1.3242 0.41406-1.4258 0.16797-1.2227-0.21875-1.2617 0.28516-1.1172 0.98828-1.1953 0.98828-0.91797 0.79688-2.1602 0.38672-1.0938-0.16016-1.0938 0.47266-0.88281z" fill="#ccc" fill-rule="evenodd"/>
<path d="m281.51 152.39 0.31641 0.15625 1.2656-0.070312 1.0508-0.11328 1.2266 0.69141 1.1055 0.46094 0.96094 0.83594 0.33984 1.0273-0.23828 1.3555 0.56641 1.3242 0.5 1.7422-0.11719 1.2617 0.125 1.0625 0.76953 1.3164 0.19141 1.5625 0.76172 1.0117 0.75 1.2617 0.94922 0.875 1.4609 1.5156 1.2812 1.2773 0.88281 0.48438 0.82422 0.57031 0.84766 0.75 1.1836 0.42188 1.0742 1.1211 0.27344 1.0352 0.56641 1.5391 0.87891 1.0039 0.29688 1.1406 1.125 0.46094 0.89453 0.94531-0.26562 1.582 0.17969 1.0156 0.33984 1.0078-0.10547 1.7422-0.23047 1.0195-0.42578 1.4375-0.31641 1.0312-0.46875 0.92188 0.074219 1.043 0.55469 0.90234 0.25 1.0781-0.019532 1.0703-0.69922 0.84375-0.10156 1.1641 0.13281 1.0508-0.16016 1.293-0.40234 1.4688-0.78125 0.90625-0.44141 0.91797 0.30078 0.96875 1.1367 1.6875 0.73438 0.75-0.39844 1.4023-0.67578 0.85156-0.21094 1.168 0.37891 2.2305 0.24609 2.0273-0.24609 1.4688-0.003906 1.1953 0.71875 1.6797 0.92969 1.6992 0.17969 1.4219 0.39453 1.7383 0.19531 1.0234 0.011719 1.0547-0.0625 1.0273 0.32422 1.0664 0.14453 1.0508 0.36719 1.3125-0.14453 1.0156 0.69531 1.1367 0.15625 1-0.83203 0.88672 0.33203 1.375 0.21094 1.1914-0.8125 1.0625-0.14844 1.3633 0.41797 1.0117 0.89844 0.67578 0.36328 0.97266-0.30078 1.1992-0.71484 1.5117-0.95703 0.67578-1.2383 0.19141-0.75 0.8125-0.0625 1.0312 0.32812 0.98828-0.37109 1.3242-0.85938 1.0312-0.875 0.80469-0.71875 0.9375-0.90234 1.3164-0.12891 1.4688-0.14453 1.0195-0.27344 1.1797 0.42969 0.97266-0.13672 1.0117 0.085937 1.0625 0.14453 1.0117-0.26953 1 0.22656 1.4883-0.14453 1.3242-0.78516 1.2969-0.53906 0.98438-1.043 2.7422-0.38672 1.5547-0.042969 1.1602 0.71875 0.74219 1.3789 1.3125 1.1992 0.73047 0.53125 0.875-0.042968 1.2188-0.36328 1.832-1.2305 1.3477-0.011719 1.1562 1.2344 1.7852 0.25 1.0508 0.58203 1.4375 0.16797 1.1602 0.19531 1.1484 0.94141 1.5312 0.76172 0.91406-0.29688 1.3281-0.92578 0.67969-1.1875 0.089844-1.5195-0.015625-1.3633 0.054687-1.125 0.14062-1.418 0.47266-1.1875 0.48438-0.66016 1.2891-0.46875 1.2734-0.79688 1.1797-2.0586 0.58984-1.5 0.16406-1.0859 0.085938-1.332 0.10156-1.4258 0.10938-1.5742 0.25391-0.85156 0.69922-2.0938 0.35938h-1.3594l-1.2656 0.10938-1.293-0.10938-1.5703-1.0469-1.1133-0.53906-0.90234-0.96875-0.67969-1.0781-2.2148-0.17578-0.83594-1.0586-0.17969-1.1016-1.3359 0.23438-0.96094 0.67188-1.2109 0.18359-1.5117-0.73438-0.9375-0.61719-1.0039-0.20703-1.4297 0.44141-1.0312 2.1328-1.1836 0.50781-1.2969 0.95312-1.2344 0.25781-1.3203 1.582-0.63281 1.3477-0.9375 0.91016 0.22266 1.2383 0.035156 1.2891-0.17188 1.3438-0.27734 1.1328-1.2539 1.0156-1.2891 0.72266-0.86328 1.1797-0.92578 0.66016-0.60156 2.043 0.56641 1.3945 0.26562 1.2734-0.46484 0.96875-0.015625 1.2734-2.3984 0.33594-1.4375 0.13281-2.8125-0.24219-1.4414 0.054687-1.5742-0.066406-2.3984-0.26172-1.8711-0.37891-1.3086-0.30469-1.3008-0.55469-0.85156-0.67578-1.9023-2.0859-1.3984-2.0703-0.76172-1.8203-0.30469-2.1055-0.089844-1.3398 0.50391-0.92969 0.69531-1.2852 0.37109-1.1367-0.30469-1.2852-0.60938-1.4609-1.5547 0.21094-1.7812 0.76953-1.6094-0.62891-1.4258-0.49219-1.3086-0.23438h-1.1055l-1.1055-0.26953-1.125-0.27734-2.0742-0.55859-1.5547-0.41797 0.31641-1.8789-0.24219-2.6172 0.21094-1.6641 0.63281-1.3594 0.63281-1.9453 0.054688-1.1445-0.10547-1.4336 0.035156-1.1914 0.27344-2.3828 0.21094-1.9336 0.30078-1.1484 0.19922-2.5547 0.097657-1.2461 0.20703-2.6953 0.42969-1.4141 0.85156-0.68359 0.85156-0.91016 0.21875-2.8125 1.1562-0.84375 1.0117-0.61328 1.4297-0.64453 0.69141-0.96094 0.43359-1.3047 0.35547-1.3242 1.0352-1.5547 0.76172-1.2773 0.38281-0.96094 0.19922-1.1367 0.5-1.1562 0.71094-0.99219 0.38672-1.2305-0.011719-1.0078 0.30859-1.0547 0.19922-1.0625 0.12891-1.0977 0.46484-1.125-0.039063-1.5781 1.457-0.48438 1.0469-0.015625 0.76953-0.65234v-1.0938l1.2422 0.23438 1.2188-0.03125 1.1797-0.26953 0.94531-0.45703 1.1172 0.023438 0.85156-0.65234 1.1914-0.375 1.082-0.33984 1.0898 0.33984 0.94531 0.5 0.98828 0.35547 0.82422-0.72656 0.85938-0.81641 1.0117-0.5 0.90625 0.47266 0.83984 0.6875 1.0352-0.34766 0.88672-0.49609 1.0938 0.39453 1.3555 0.48047 0.51953-1.0156 1.1719-0.1875 1.0938-0.86328 0.86328-0.79297 0.85547-0.85547 1.1797-0.5 0.98828-0.35156 1.0352-0.31641 1.543 0.20312 0.91797 0.58203 0.51172 0.86328 0.96875 0.35547 1.4375-0.29297 1.082-0.83203 1.2656-1.25 0.84375-0.73438 0.71875-0.88672 0.26953-1.082 1.1562-1.0664 0.32422-1.0703 0.29297-1.1602 0.27344-1.207 0.60156-1.0625 0.51172-0.90625 0.48047-1.1875 0.63281-0.83594 0.53516-0.9375 0.66797-1.0781 0.15234-1.332 0.85547-0.625 0.52344-1.1602-0.0625-1.2188 0.46875-0.96875 0.30078-1.3359 0.82422-1.418-0.17969-1.0938 0.003906-1.5117-0.0625-1.3359 0.21094-1.1641-0.42969-1.0312-0.25391-1.0664-0.67188-1-1.2344-0.17578-0.89844-0.89844-0.83203-0.72266-0.30078-1.0703-0.16016-1.5547 0.03125-1.1797 0.32422-1.1992 0.035156-1.0703 0.40625-0.98047 0.73828-1.2617 0.60547-0.83203 0.96875-0.48438 0.66797-1.1758 0.73828-0.75 1.3281-0.19922 1.0117-2.5156 0.55859-0.87109-0.14453-1.2773-0.375-1.082-0.14844-1.1875-0.14453-1.0508 0.22266-1.5586 0.43359-2.2109-0.058593-1.2695-0.15625-1.6758-0.035157-1.3672-0.52734-1.043-0.79297-1.1562-0.875-0.96094-0.57812-1.3438 0.19141-1.1367 0.09375-1.3242 0.24609-2.5664 0.097656-1.0312 0.64453-1.3242 0.41406-1.4258 0.16797-1.2227-0.21875-1.2617 0.28516-1.1172 0.98828-1.1953 0.98828-0.91797 0.79688-2.1602 0.38672-1.0938-0.16016-1.0938 0.47266-0.88281 0.37109-0.25391" fill="none" stroke="#fff" stroke-linecap="round" stroke-linejoin="round" stroke-miterlimit="10" stroke-width="2"/>
<path d="m58.516 77.035 1.3633 0.87891 3.6719 1.418 2.0508 1.2305 5.5977 0.87891 3.8438 1.668 4.5273-0.11719 1.2266-0.03125 1.3008 0.089843 0.99219 0.24609 2.0703 1.3555 1.9688 0.83594 1.332 0.78125 3.6055 3.1328 2.9688 3.8125 0.49219 1.7891 0.54297 1.2344 1.6953 1.7812 0.41016 2.4062-0.14844 1.0742-0.53125 1.3359-2.5273 2.8711-1.0273 2.0312-1.3438 1.957-0.14062 1.3438 1.1133 1.0156 1.4336 0.26562 1.6328-0.003907 1.0195-0.14844 2.75 0.050781 4.4023-0.46094 5.4766 0.52344 4.2852 1.2031 3.6562 0.32812 4.5039-0.68359 2.7969-1.3984 1.1562 0.40625 0.54688 1.1875 1.332 1.9336 1.582 0.83984 1.0352 1.0938 0.88672 1.8516 0.66016 0.90625 0.36719 1.8477 1.3008 1.8398 2.3789 1.4492 1.3555 1.3945 0.83594 1.8008 0.1875 1.2812 0.25391 1.1602-0.83203 1.5703 0.1875 2.043 0.035156 1.7109-0.10938 1.1875 0.14453 2.1797 0.38281 1.1641 0.85547 0.94531 0.875 0.83594 1.2227 0.59375 1.1055 0.6875 0.86328 0.98047 1.0312 0.38672 0.87891 0.80078 0.76953 1.3281 0.79297 0.74219-1.5234 2.0703-0.82422 1.7656-0.91406 2.8867-0.046875 1.0938-0.32812 1.8047 0.31641 1.6523 1.0078 2.4297 0.65625 0.75391 2.0547 1.6133 0.71875 0.77734-0.10938 1.6094-1.1523 1.7734-2.043 1.8047-2.918 2.0742-2.1016 0.97656-1.1055 0.22656-2.1445 1.7344-1.4648 1.1875-3.0703 6.3398-0.73828 1.3711-0.73438 1.1719-0.57422 1.6875-0.34766 1.4922-0.63281 1.3281 0.066406 1.0703-0.56641 1.5859 0.023437 1.4375-1.5039 1.1992-0.019531 1.9805-0.65234 2.0234 0.95703 1.1328 0.17188 1.418-0.28125 1.1523 0.19531 1.0898-1.1523 1.2188-0.65234 1.9141-0.35156 1.3516-0.76172 1.2852-0.26172 1.4141-0.17188 1.7656 0.45312 1.125 0.17578 2.3516 1.1133 1.0703-0.32812 1.2656 0.58984 1.1328 1.3711 1.0234 1.2383 0.5 0.56641 0.95703 0.56641 1.2617 1.0039 0.9375-1.1562 0.76172-1.2188 1.6445-0.09375 1.1133 0.070313 2.207-0.15234 2.3555-0.011719 1.2227 0.67578 1.3906 0.63281 1.4141-0.49609 1.5586-0.44141 1.8398 0.55859 1.1797 0.97656 2.6484 0.054688 1.6992 0.0625 1.4375-0.11719 1.8555 0.16016 2.0898-0.32422 1.0938-0.32422 1.207 0.46484 1.8789 0.023437 1.2344 0.47266 1.3438-0.58984 1.1602-0.77734 0.82812-1.0156 0.47266-1.0508 0.73047-1.3203-0.20312-1.6445 0.91406-1.2695 0.82812-1.4023 0.625-0.94922 0.56641-1.0938-0.33594-1.5781 1.2031-0.050781 1.5195 0.50781 1.4336 0.19922 1.0312-1.8789 1.5078-0.78516 0.95312-1.6523 1.3008-0.72656 1.25-0.15234 1.1875-0.93359 0.79297-1.625-0.33594-1.0469-0.45703-1.8008-0.45312-0.93359-0.45703-1.6445-1.2891-0.95703-1.1211-1.6289 0.26172-3.0039 0.13281-1.5117 0.35156-1.4805 0.76172-0.98438 0.55859-1.1719-0.46484-0.85547-1.5625-1.0742-1.2969-0.86328-1.4141-1.7734-0.56641-1.1641 0.023437-2.1211-0.03125-1.3906 0.67578-0.32031 1.3125-0.41016 1.1875-0.3125 1.4453-1.5859 0.67578-1.082 0.15234-1.8281-0.32812-1.1016-0.96484-1.2812-2.6484-0.64844-1.2266-1.0977-0.79688-0.84766-0.97656-0.94922-0.70703 0.19141-1.0664 1.3086-1.5 0.60156-1.207 0.23047-1.1055 0.14453-1.2734 0.76172-1.7695-0.15234-1.8945-0.19141-1.4844-0.34375-1.6172-0.5-1.6211-0.73047-1.1445 0.69531-2.125 0.074219-1.1914-0.03125-1.0391-0.066406-2.1172-0.24219-1.0938-1.0508-1.0234-1.9062-0.84766-1.1758-0.91406-1.8555-1.0469-0.96094-0.49219-0.85547-0.82422-0.97266-0.49219-1.8047 0.089844-1.1602-0.58594-0.69531-0.76172-1.0586-0.60547-1.5742-1.1328-1.3633-0.54688 0.58984-0.96875 0.41016-1.1367 0.6875-0.94922 0.53516-0.96875 0.41797-1.0273-0.26562-1.0781 0.25391-1.1328-0.24219-1.0352-0.36328-1.1055-0.10547-1.2695-0.76953-1.2031-0.78125-0.63281-0.78516-0.65625-0.26172-1.375-0.70703-1.5469-0.5-0.95703 0.10156-1.3789-0.38281-0.94922-0.36328-0.99609-0.56641-1.0273-0.1875-1.1992 0.011719-1.2461-0.66016-0.84766-0.42188-1.2695-0.57812-1.0234-1.3008-0.71875-0.42578-1.0977 0.5625-1.0508 0.5-1.0117 0.0625-1.3672-0.1875-1.2188 0.34375-1.0508-0.28516-1.0312-0.39453-1.2422 0.70703-1.1367-0.11328-1.0234-0.074219-1.4609-0.66406-1.2188 0.44922-0.92578 0.40234-0.95312-0.80078-0.74609-0.36719-1.2734-0.10156-1.0039 0.03125-1.0312 0.82422-0.59375 0.99219-0.875 0.40234-1.293 0.53125-1.0859 0.35547-1.5508 0.20312-1.25 0.0625-1.7656 0.55078-1.168-0.30078-1.3086-0.03125-1.1602-0.77734-0.91016-1.0586-0.82031-0.76172-0.96875-0.39844-0.9375-0.83594-1.0938 0.066407-1.2031-0.34375-0.94922-0.30078-1.082-0.93359-0.79297-0.88672-0.64453-0.71875-1.1562-2.0312-1.0977-1.3359-0.59375-0.86328-0.51172-0.91797-1.2422-1.582-1-0.98438-1.457-0.64453-0.84375-0.51172-1.2344-0.71875-0.72656-0.45703-1.3477 0.16797-1.6562-0.22266-1.168-0.77344-0.72266-0.92188-0.71875-0.11719-1.2773 0.070313-1.2734-0.35156-1.0742 0.16406-1.0742 0.23438-1.2188-0.28906-0.98047 1.2656-1.3164 0.042969-1.5312 0.25781-1.0938-0.015625-1.1484 1.0703-0.69531 0.76953-0.80859-0.20703-1.2305 0.78516-0.77734 0.79297-1.3672 1.1992-1.1367 0.58203-1.043-0.27344-1.0117-0.625-1.9102-0.14844-1.2305 0.14062-1.5117-0.066406-1.1016-0.28906-1.0117-0.13672-1.3164 0.019531-1.293-0.29297-1.2305-0.007812-1.1562-0.21094-1.0859-0.16406-1.0156-0.67578-1.1523-0.87109-1.4805-0.0625-1.6367-0.18359-1.0625 0.55078-2 0.82422-1.0039 0.44922-1.1367 0.94531-1.1758 0.16016-1.4688 0.17578-1.5312 0.33203-1.3047 0.8125-0.86719 0.82422-0.73828 0.23438-1.2031 1.6875-0.046875 1.1133-0.28516 0.89844-1.0859 0.43359-1.0859 0.51562-0.91406 0.62891-1.8008 0.72656-1.3086 0.97656-0.93359 0.89062-0.63672 1.0352-0.59766-0.019532-1.5039-0.10547-1.0547-0.074219-1.3789-0.74609-0.71094 0.48438-0.90625 0.71875-1.1445 1.8086-4.0234 0.875-1.3477z" fill="#ccc" fill-rule="evenodd"/>
<path d="m58.516 77.035 1.3633 0.87891 3.6719 1.418 2.0508 1.2305 5.5977 0.87891 3.8438 1.668 4.5273-0.11719 1.2266-0.03125 1.3008 0.089843 0.99219 0.24609 2.0703 1.3555 1.9688 0.83594 1.332 0.78125 3.6055 3.1328 2.9688 3.8125 0.49219 1.7891 0.54297 1.2344 1.6953 1.7812 0.41016 2.4062-0.14844 1.0742-0.53125 1.3359-2.5273 2.8711-1.0273 2.0312-1.3438 1.957-0.14062 1.3438 1.1133 1.0156 1.4336 0.26562 1.6328-0.003907 1.0195-0.14844 2.75 0.050781 4.4023-0.46094 5.4766 0.52344 4.2852 1.2031 3.6562 0.32812 4.5039-0.68359 2.7969-1.3984 1.1562 0.40625 0.54688 1.1875 1.332 1.9336 1.582 0.83984 1.0352 1.0938 0.88672 1.8516 0.66016 0.90625 0.36719 1.8477 1.3008 1.8398 2.3789 1.4492 1.3555 1.3945 0.83594 1.8008 0.1875 1.2812 0.25391 1.1602-0.83203 1.5703 0.1875 2.043 0.035156 1.7109-0.10938 1.1875 0.14453 2.1797 0.38281 1.1641 0.85547 0.94531 0.875 0.83594 1.2227 0.59375 1.1055 0.6875 0.86328 0.98047 1.0312 0.38672 0.87891 0.80078 0.76953 1.3281 0.79297 0.74219-1.5234 2.0703-0.82422 1.7656-0.91406 2.8867-0.046875 1.0938-0.32812 1.8047 0.31641 1.6523 1.0078 2.4297 0.65625 0.75391 2.0547 1.6133 0.71875 0.77734-0.10938 1.6094-1.1523 1.7734-2.043 1.8047-2.918 2.0742-2.1016 0.97656-1.1055 0.22656-2.1445 1.7344-1.4648 1.1875-3.0703 6.3398-0.73828 1.3711-0.73438 1.1719-0.57422 1.6875-0.34766 1.4922-0.63281 1.3281 0.066406 1.0703-0.56641 1.5859 0.023437 1.4375-1.5039 1.1992-0.019531 1.9805-0.65234 2.0234 0.95703 1.1328 0.17188 1.418-0.28125 1.1523 0.19531 1.0898-1.1523 1.2188-0.65234 1.9141-0.35156 1.3516-0.76172 1.2852-0.26172 1.4141-0.17188 1.7656 0.45312 1.125 0.17578 2.3516 1.1133 1.0703-0.32812 1.2656 0.58984 1.1328 1.3711 1.0234 1.2383 0.5 0.56641 0.95703 0.56641 1.2617 1.0039 0.9375-1.1562 0.76172-1.2188 1.6445-0.09375 1.1133 0.070313 2.207-0.15234 2.3555-0.011719 1.2227 0.67578 1.3906 0.63281 1.4141-0.49609 1.5586-0.44141 1.8398 0.55859 1.1797 0.97656 2.6484 0.054688 1.6992 0.0625 1.4375-0.11719 1.8555 0.16016 2.0898-0.32422 1.0938-0.32422 1.207 0.46484 1.8789 0.023437 1.2344 0.47266 1.3438-0.58984 1.1602-0.77734 0.82812-1.0156 0.47266-1.0508 0.73047-1.3203-0.20312-1.6445 0.91406-1.2695 0.82812-1.4023 0.625-0.94922 0.56641-1.0938-0.33594-1.5781 1.2031-0.050781 1.5195 0.50781 1.4336 0.19922 1.0312-1.8789 1.5078-0.78516 0.95312-1.6523 1.3008-0.72656 1.25-0.15234 1.1875-0.93359 0.79297-1.625-0.33594-1.0469-0.45703-1.8008-0.45312-0.93359-0.45703-1.6445-1.2891-0.95703-1.1211-1.6289 0.26172-3.0039 0.13281-1.5117 0.35156-1.4805 0.76172-0.98438 0.55859-1.1719-0.46484-0.85547-1.5625-1.0742-1.2969-0.86328-1.4141-1.7734-0.56641-1.1641 0.023437-2.1211-0.03125-1.3906 0.67578-0.32031 1.3125-0.41016 1.1875-0.3125 1.4453-1.5859 0.67578-1.082 0.15234-1.8281-0.32812-1.1016-0.96484-1.2812-2.6484-0.64844-1.2266-1.0977-0.79688-0.84766-0.97656-0.94922-0.70703 0.19141-1.0664 1.3086-1.5 0.60156-1.207 0.23047-1.1055 0.14453-1.2734 0.76172-1.7695-0.15234-1.8945-0.19141-1.4844-0.34375-1.6172-0.5-1.6211-0.73047-1.1445 0.69531-2.125 0.074219-1.1914-0.03125-1.0391-0.066406-2.1172-0.24219-1.0938-1.0508-1.0234-1.9062-0.84766-1.1758-0.91406-1.8555-1.0469-0.96094-0.49219-0.85547-0.82422-0.97266-0.49219-1.8047 0.089844-1.1602-0.58594-0.69531-0.76172-1.0586-0.60547-1.5742-1.1328-1.3633-0.54688 0.58984-0.96875 0.41016-1.1367 0.6875-0.94922 0.53516-0.96875 0.41797-1.0273-0.26562-1.0781 0.25391-1.1328-0.24219-1.0352-0.36328-1.1055-0.10547-1.2695-0.76953-1.2031-0.78125-0.63281-0.78516-0.65625-0.26172-1.375-0.70703-1.5469-0.5-0.95703 0.10156-1.3789-0.38281-0.94922-0.36328-0.99609-0.56641-1.0273-0.1875-1.1992 0.011719-1.2461-0.66016-0.84766-0.42188-1.2695-0.57812-1.0234-1.3008-0.71875-0.42578-1.0977 0.5625-1.0508 0.5-1.0117 0.0625-1.3672-0.1875-1.2188 0.34375-1.0508-0.28516-1.0312-0.39453-1.2422 0.70703-1.1367-0.11328-1.0234-0.074219-1.4609-0.66406-1.2188 0.44922-0.92578 0.40234-0.95312-0.80078-0.74609-0.36719-1.2734-0.10156-1.0039 0.03125-1.0312 0.82422-0.59375 0.99219-0.875 0.40234-1.293 0.53125-1.0859 0.35547-1.5508 0.20312-1.25 0.0625-1.7656 0.55078-1.168-0.30078-1.3086-0.03125-1.1602-0.77734-0.91016-1.0586-0.82031-0.76172-0.96875-0.39844-0.9375-0.83594-1.0938 0.066407-1.2031-0.34375-0.94922-0.30078-1.082-0.93359-0.79297-0.88672-0.64453-0.71875-1.1562-2.0312-1.0977-1.3359-0.59375-0.86328-0.51172-0.91797-1.2422-1.582-1-0.98438-1.457-0.64453-0.84375-0.51172-1.2344-0.71875-0.72656-0.45703-1.3477 0.16797-1.6562-0.22266-1.168-0.77344-0.72266-0.92188-0.71875-0.11719-1.2773 0.070313-1.2734-0.35156-1.0742 0.16406-1.0742 0.23438-1.2188-0.28906-0.98047 1.2656-1.3164 0.042969-1.5312 0.25781-1.0938-0.015625-1.1484 1.0703-0.69531 0.76953-0.80859-0.20703-1.2305 0.78516-0.77734 0.79297-1.3672 1.1992-1.1367 0.58203-1.043-0.27344-1.0117-0.625-1.9102-0.14844-1.2305 0.14062-1.5117-0.066406-1.1016-0.28906-1.0117-0.13672-1.3164 0.019531-1.293-0.29297-1.2305-0.007812-1.1562-0.21094-1.0859-0.16406-1.0156-0.67578-1.1523-0.87109-1.4805-0.0625-1.6367-0.18359-1.0625 0.55078-2 0.82422-1.0039 0.44922-1.1367 0.94531-1.1758 0.16016-1.4688 0.17578-1.5312 0.33203-1.3047 0.8125-0.86719 0.82422-0.73828 0.23438-1.2031 1.6875-0.046875 1.1133-0.28516 0.89844-1.0859 0.43359-1.0859 0.51562-0.91406 0.62891-1.8008 0.72656-1.3086 0.97656-0.93359 0.89062-0.63672 1.0352-0.59766-0.019532-1.5039-0.10547-1.0547-0.074219-1.3789-0.74609-0.71094 0.48438-0.90625 0.71875-1.1445 1.8086-4.0234 0.875-1.3477 0.84766 0.83984" fill="none" stroke="#fff" stroke-linecap="round" stroke-linejoin="round" stroke-miterlimit="10" stroke-width="2"/>
<path d="m194.23 40.547-0.0625 0.88672 0.32422 1.2852 0.79297 1.8945 0.22266 1.6875-0.67578 1.0156-1.1602 0.20703-0.80859 0.91016 0.30859 1.0508 0.93359 0.89062 1.6289-0.16406 1.6367 0.66016 0.78906 0.67188 2.2266 0.64844 1.3633 0.007813 1.3516-0.046875 1.6953 0.14062 1.4805 0.81641 1.8789 0.58984 1.2539 0.16016 0.80078 0.72266 0.67188 1.0156 1.3906 1.0039 0.9375 0.58594 1.0195 0.53516 0.80078 1.4883 0.80078 1.082 1.6992 0.86719 0.73047 0.86328 0.39062 1.0742 1.043 1.3555 0.98047 0.4375 0.99609 0.13281 1.0391-0.11328 1.8047-0.023437 0.97266-0.3125 0.96875-0.35156 0.95703-0.32812 1.1016 0.29297 1.6445 0.78516 1.4766 0.39062 1.0703 0.18359 1.0234 0.25391 1.1797 0.49609 0.69922 0.89453 0.77344 1.0938 0.70312 0.76953-0.15625 1.9219 0.12109 1.3086 1.2031 0.78906 0.95703 1.6719 0.77734 0.77344 1.0039 0.53125 1.1211 0.97266 0.60547 1.2422-0.10547 1.0781-0.46094 0.96484 0.58203 1.1992 1.4062 1.457 1.293 1.5391 0.71484 1.3203 0.98828 0.28906 1.0156-0.24609 1.1133 0.30078 1.9805 1.1328 1.4258 0.61328 1.1133 0.29688 0.75781 0.73047 1.4883 1.6953 0.89844 1.332 0.25391 1.1211-0.42578 1.4375 0.38281 1.3711 1.0352 1.0312 0.5625 1.3086 0.57422 1.8203 0.53906 1.2305 0.44922 1.3477-0.24609 1.0508 0.97656 1.0547 0.61328 1.1992 0.45312 0.95703 0.25781 1.7344 0.78125 0.85156 0.57422 0.94922-0.16797 1.125 0.80469 1.1055 1.1055 0.09375 1.0039-0.33203 1.1641 0.44922 0.51953 0.88281 0.56641 1.0586 0.44531 1.0508 0.5 1.082 0.31641 0.98438 0.66797 0.91406v1.6055l0.32031 1.3789 0.625 1.625 0.054687 1.4414 0.30469 1.0586-0.074219 1.2617-0.097656 1.1289 0.42969 1.6992 0.48828 1.1172 0.81641 0.59375 0.20703 0.99609-0.80469 0.85547 0.59375 0.83594 0.56641 0.96094 0.45703 1.3516 0.49219 1.0117 0.67578 0.93359 0.48828 1.2656 0.71484 1.6328 0.79688 0.8125 0.92969 1.7266 1.0312 1.0312 0.52344 0.98047-0.27344 1.0859 0.94141 0.87891 0.625 0.88281-0.27344 1.0859-0.21484 0.98047 0.34766 1.0625-0.52734 1.0977 0.03125 1.1016-0.32422 1.1367-0.32031 1.75-0.89062 1.1484-1.082 0.8125-0.78516 1.5156 0.14062 1.2461-0.14062 1.6523-0.41406 1.4258-0.64453 1.3242-0.097656 1.0312-0.32031 1.6562 0.10547 1.5234-0.41016 1.125 0.375 1.1602 0.64844 1.4922 0.84375 1.0078 0.82422 1.0469 0.48828 1.0312-0.15625 2.1133 0.13672 1.3906-0.44922 1.8555-0.09375 1.2305-0.09375 1.6367 0.11328 1.168 0.4375 0.96484 0.23047 1.6836-0.58984 0.99609-0.25 1.9922-1.5664 0.48047-0.97266 0.67578-0.8125 0.78516-0.35547 1.1367-1.2461 0.54297-0.69141 1.457-0.57031 1.1289-0.035156 1.0703-0.32422 1.1992-0.03125 1.1797 0.16016 1.5547 0.30078 1.0703 0.83203 0.72266 0.89844 0.89844 1.2344 0.17578 0.67188 1 0.25391 1.0664 0.42969 1.0312-0.21094 1.1641 0.0625 1.3359-0.19922 1.1289 0.56641 1.1758-0.54297 1.0352-0.76172 1.0391-0.15625 1.3984-0.19922 1.2305-0.23828 1.3984-1.0117 0.45703-0.26172 1.0938-0.17578 1.1562-0.625 0.79297-0.65234 0.98828-0.64062 0.88672-0.32812 1.043-0.85156 1.0977-0.23828 1.0938-0.39844 1.0547-0.14844 1.1641-1 1.4648-0.63281 0.97656-0.51562 1.2227-1.1836 0.98047-1.0977 1.0312-0.78125 0.82031-1.1602 0.34375-0.99609 0.17969-0.92188-0.66797-0.85156-0.98828-1.1172-0.21094-1.1445-0.16797-1.0352 0.52344-1.2383 0.375-1.0781 0.64453-0.87109 1.0547-1.2031 0.92969-1.0508-0.10547-0.5 1.0078-0.89844 0.52734-1.2422-0.76172-1.2891 0.11328-0.9375 0.47656-1.2305-0.58984-0.90625-0.47266-1.0117 0.5-0.76562 0.66797-0.57031 0.84375-1.0977-0.13672-0.90234-0.60938-1.0547-0.26172-1.3984 0.18359-1.1914 0.375-0.85156 0.65234-1.1172-0.023438-0.94531 0.45703-1.1797 0.26953-1.0625 0.066406-1.0117-0.34766-0.36328 0.97266-0.79297 0.80078-1.0469 0.066407-1.1953 0.0625-0.24219 1.3555-0.35156 1.4961-0.22266 1.3711-0.19922 1.0625-0.30859 1.0547 0.011719 1.0078-0.38672 1.2305-0.71094 0.99219-0.5 1.1562-0.19922 1.1367-0.38281 0.96094-0.76172 1.2773-0.92188 1.2656-0.17188 1.1445-0.63672 0.87891-0.25 1.1875-1.168 0.99219-1.1914 0.58984-1.0586-0.875-0.52344-1.3594-1.7734-0.47656-1.0039-0.1875-1.8242-0.18359h-1.957l-2.4844 0.34375-1.6641 0.90625-2.918 2.0039-1.2695 1.5352-1.0547 0.42188-3.0977 0.31641-2.8477 0.48828-2.2031 0.48828-1.5703-0.45312-0.93359-0.56641-1.0664-1.1719-0.98047-0.32031-1.0586 0.13281-1.832 1.1172-0.99609 0.71094-0.74219 0.82031-0.75781 2.6094 0.042969 2.4688-0.92578 1.4023-0.95312 0.94922-1.9844 1.4297-0.79297 1.3242-0.84375 0.89844-1.5352 0.36719-1.6836-1.1562-0.90625-2.0547-1.1328-1.8008-0.71094-0.79688-1.3711-0.90234-1.2188-0.51953-1.1602-0.125-1.3281-0.11328-1.5742-0.84375-1-0.76172-1-0.55859-1.4219-0.22266-1.2422-2.0742-0.70312-1.0547-0.98438-1.5234 0.019531-1.5078 0.23438-1.2695v-1.4727l-2.1484-1.2891-0.94922-0.42188-1.7422-0.42188-1.7461-1.3203-0.94531-0.91406-2.0508-0.30469-0.94531 1.1328-1.4062 1.6758-1.5078 1.1797-1.1328 0.29297-2.0156 0.13672-1.4062 0.25391-2.2344-0.86328-0.99219-0.71094-1.4805-0.69531-1.5898-0.15234-1.5586-0.44141-1.4062-0.9375-0.47266-1.3438-0.023437-1.2344-0.46484-1.8789 0.32422-1.207 0.32422-1.0938-0.16016-2.0898 0.11719-1.8555-0.0625-1.4375 0.12891-1.2109-1.0039-2.1992-0.71484-2.1172 0.30859-1.2812 0.62891-2.1172-0.63281-1.4141-0.67578-1.3906 0.011719-1.2227 0.15234-2.3555-0.050781-1.5781 0.074218-1.7422 0.5-0.99219 1.5547-1.0352-0.68359-1.3164-0.56641-1.2617-0.56641-0.95703-1.2383-0.5-1.3711-1.0234-0.58984-1.1328 0.32812-1.2656-1.1133-1.0703-0.10156-1.3672-0.52734-2.1094 0.17188-1.7656 0.26172-1.4141 0.76172-1.2852 0.35156-1.3516 0.33203-1.2969 1.2344-1.3789 0.042968-1.5469 0.28125-1.1523 0.078125-1.0469-1.207-0.69531 0.58594-1.875v-2.1328l1.5898-2.0039-0.023437-1.4375 0.56641-1.5859-0.066406-1.0703 0.63281-1.3281 0.34766-1.4922 0.38281-1.1289 0.92578-1.7305 0.73828-1.3711 3.0703-6.3398 1.4648-1.1875 2.1445-1.7344 1.1055-0.22656 2.1016-0.97656 2.918-2.0742 2.043-1.8047 1.1523-1.7734 0.17969-1.1328-0.78906-1.2539-2.0547-1.6133-0.65625-0.75391-1.0078-2.4297-0.31641-1.6523 0.32812-1.8047 0.046875-1.0938 0.91406-2.8867 0.82422-1.7656 1.5234-2.0703 1.0508-0.68359 1.2812-0.87109 0.92969-0.87891 0.85547-0.66797 0.78125-0.84375 0.76172-0.65625 0.58594-1 1.0391-0.70703 0.77344-0.66797 0.89453-0.95312 0.77734-0.91406 0.69531-0.98047 1.2422-1.5234 0.83594-0.58203 0.89062-0.89062 0.65234-1.1016 0.63281-0.99219 0.42969-1.293 1.3008-1.582 0.64453-1.0547 0.34375-1.0352 0.13672-1 0.035157-1.168-0.375-1.1758 0.046875-1.0625-0.3125-1.0547-0.12109-1.3672-0.19141-0.99219 0.1875-1.1641v-1.2109l0.4375-1.5117 0.12891-1.2109 0.29297-1.1758 1.1992-0.89844 0.70703-1.0625 0.25-0.98047 0.60156-0.90625 0.37109-1.1445 0.75781-0.74219 0.87891-0.57031 1.0391-0.58594 1-0.96875 0.5-1.1172 1.9336-0.77344 0.77734-1.4375 1.0312-0.13672 1.1289-0.83203 1.1055-1.0742 0.42969-1.1992 0.51562-1.8047 0.32812-1.1992 0.59375-0.94531 0.6875-1.1836 0.48828-1.957 0.48047-1.0039-0.042969-1.6953-0.058593-1.3438-0.16016-1.2539 0.4375-0.94922 0.94141-1.5508 0.61328-1.1484-0.019531-1.4102v-1.125l0.25781-1.2695 0.37891-1.4922 0.18359-1.2695 0.042969-1.0156 0.5-0.96875 0.85938-1.043-0.0625-1.082-0.45312-1.2656 0.25391-1.6328-0.09375-1.0742-0.054687-1.2812-0.42969-0.9375 0.36719-1.6172-0.48828-1.3242-0.95703-0.58594-0.24219-1.0742-1.1562-1.1758-0.78516-0.625-0.96094-0.61719-0.50781-1.6602-0.16797-1.4492-0.26953-1.4805-0.13672-1.8633 0.28516-1.7031 0.35938-1.0078 0.98047-0.89453 0.98438-0.94141 0.61328-1.3477 1.1367 0.011719 0.875-1.1758 0.84766-0.63672 1.1367-0.24219 0.375-0.98828 0.80859-0.74219 0.42188-1.0273 2.8516-0.83594 1.1055-0.60547 1.3047-0.39844z" fill="#ccc" fill-rule="evenodd"/>
<path d="m194.23 40.547-0.0625 0.88672 0.32422 1.2852 0.79297 1.8945 0.22266 1.6875-0.67578 1.0156-1.1602 0.20703-0.80859 0.91016 0.30859 1.0508 0.93359 0.89062 1.6289-0.16406 1.6367 0.66016 0.78906 0.67188 2.2266 0.64844 1.3633 0.007813 1.3516-0.046875 1.6953 0.14062 1.4805 0.81641 1.8789 0.58984 1.2539 0.16016 0.80078 0.72266 0.67188 1.0156 1.3906 1.0039 0.9375 0.58594 1.0195 0.53516 0.80078 1.4883 0.80078 1.082 1.6992 0.86719 0.73047 0.86328 0.39062 1.0742 1.043 1.3555 0.98047 0.4375 0.99609 0.13281 1.0391-0.11328 1.8047-0.023437 0.97266-0.3125 0.96875-0.35156 0.95703-0.32812 1.1016 0.29297 1.6445 0.78516 1.4766 0.39062 1.0703 0.18359 1.0234 0.25391 1.1797 0.49609 0.69922 0.89453 0.77344 1.0938 0.70312 0.76953-0.15625 1.9219 0.12109 1.3086 1.2031 0.78906 0.95703 1.6719 0.77734 0.77344 1.0039 0.53125 1.1211 0.97266 0.60547 1.2422-0.10547 1.0781-0.46094 0.96484 0.58203 1.1992 1.4062 1.457 1.293 1.5391 0.71484 1.3203 0.98828 0.28906 1.0156-0.24609 1.1133 0.30078 1.9805 1.1328 1.4258 0.61328 1.1133 0.29688 0.75781 0.73047 1.4883 1.6953 0.89844 1.332 0.25391 1.1211-0.42578 1.4375 0.38281 1.3711 1.0352 1.0312 0.5625 1.3086 0.57422 1.8203 0.53906 1.2305 0.44922 1.3477-0.24609 1.0508 0.97656 1.0547 0.61328 1.1992 0.45312 0.95703 0.25781 1.7344 0.78125 0.85156 0.57422 0.94922-0.16797 1.125 0.80469 1.1055 1.1055 0.09375 1.0039-0.33203 1.1641 0.44922 0.51953 0.88281 0.56641 1.0586 0.44531 1.0508 0.5 1.082 0.31641 0.98438 0.66797 0.91406v1.6055l0.32031 1.3789 0.625 1.625 0.054687 1.4414 0.30469 1.0586-0.074219 1.2617-0.097656 1.1289 0.42969 1.6992 0.48828 1.1172 0.81641 0.59375 0.20703 0.99609-0.80469 0.85547 0.59375 0.83594 0.56641 0.96094 0.45703 1.3516 0.49219 1.0117 0.67578 0.93359 0.48828 1.2656 0.71484 1.6328 0.79688 0.8125 0.92969 1.7266 1.0312 1.0312 0.52344 0.98047-0.27344 1.0859 0.94141 0.87891 0.625 0.88281-0.27344 1.0859-0.21484 0.98047 0.34766 1.0625-0.52734 1.0977 0.03125 1.1016-0.32422 1.1367-0.32031 1.75-0.89062 1.1484-1.082 0.8125-0.78516 1.5156 0.14062 1.2461-0.14062 1.6523-0.41406 1.4258-0.64453 1.3242-0.097656 1.0312-0.32031 1.6562 0.10547 1.5234-0.41016 1.125 0.375 1.1602 0.64844 1.4922 0.84375 1.0078 0.82422 1.0469 0.48828 1.0312-0.15625 2.1133 0.13672 1.3906-0.44922 1.8555-0.09375 1.2305-0.09375 1.6367 0.11328 1.168 0.4375 0.96484 0.23047 1.6836-0.58984 0.99609-0.25 1.9922-1.5664 0.48047-0.97266 0.67578-0.8125 0.78516-0.35547 1.1367-1.2461 0.54297-0.69141 1.457-0.57031 1.1289-0.035156 1.0703-0.32422 1.1992-0.03125 1.1797 0.16016 1.5547 0.30078 1.0703 0.83203 0.72266 0.89844 0.89844 1.2344 0.17578 0.67188 1 0.25391 1.0664 0.42969 1.0312-0.21094 1.1641 0.0625 1.3359-0.19922 1.1289 0.56641 1.1758-0.54297 1.0352-0.76172 1.0391-0.15625 1.3984-0.19922 1.2305-0.23828 1.3984-1.0117 0.45703-0.26172 1.0938-0.17578 1.1562-0.625 0.79297-0.65234 0.98828-0.64062 0.88672-0.32812 1.043-0.85156 1.0977-0.23828 1.0938-0.39844 1.0547-0.14844 1.1641-1 1.4648-0.63281 0.97656-0.51562 1.2227-1.1836 0.98047-1.0977 1.0312-0.78125 0.82031-1.1602 0.34375-0.99609 0.17969-0.92188-0.66797-0.85156-0.98828-1.1172-0.21094-1.1445-0.16797-1.0352 0.52344-1.2383 0.375-1.0781 0.64453-0.87109 1.0547-1.2031 0.92969-1.0508-0.10547-0.5 1.0078-0.89844 0.52734-1.2422-0.76172-1.2891 0.11328-0.9375 0.47656-1.2305-0.58984-0.90625-0.47266-1.0117 0.5-0.76562 0.66797-0.57031 0.84375-1.0977-0.13672-0.90234-0.60938-1.0547-0.26172-1.3984 0.18359-1.1914 0.375-0.85156 0.65234-1.1172-0.023438-0.94531 0.45703-1.1797 0.26953-1.0625 0.066406-1.0117-0.34766-0.36328 0.97266-0.79297 0.80078-1.0469 0.066407-1.1953 0.0625-0.24219 1.3555-0.35156 1.4961-0.22266 1.3711-0.19922 1.0625-0.30859 1.0547 0.011719 1.0078-0.38672 1.2305-0.71094 0.99219-0.5 1.1562-0.19922 1.1367-0.38281 0.96094-0.76172 1.2773-0.92188 1.2656-0.17188 1.1445-0.63672 0.87891-0.25 1.1875-1.168 0.99219-1.1914 0.58984-1.0586-0.875-0.52344-1.3594-1.7734-0.47656-1.0039-0.1875-1.8242-0.18359h-1.957l-2.4844 0.34375-1.6641 0.90625-2.918 2.0039-1.2695 1.5352-1.0547 0.42188-3.0977 0.31641-2.8477 0.48828-2.2031 0.48828-1.5703-0.45312-0.93359-0.56641-1.0664-1.1719-0.98047-0.32031-1.0586 0.13281-1.832 1.1172-0.99609 0.71094-0.74219 0.82031-0.75781 2.6094 0.042969 2.4688-0.92578 1.4023-0.95312 0.94922-1.9844 1.4297-0.79297 1.3242-0.84375 0.89844-1.5352 0.36719-1.6836-1.1562-0.90625-2.0547-1.1328-1.8008-0.71094-0.79688-1.3711-0.90234-1.2188-0.51953-1.1602-0.125-1.3281-0.11328-1.5742-0.84375-1-0.76172-1-0.55859-1.4219-0.22266-1.2422-2.0742-0.70312-1.0547-0.98438-1.5234 0.019531-1.5078 0.23438-1.2695v-1.4727l-2.1484-1.2891-0.94922-0.42188-1.7422-0.42188-1.7461-1.3203-0.94531-0.91406-2.0508-0.30469-0.94531 1.1328-1.4062 1.6758-1.5078 1.1797-1.1328 0.29297-2.0156 0.13672-1.4062 0.25391-2.2344-0.86328-0.99219-0.71094-1.4805-0.69531-1.5898-0.15234-1.5586-0.44141-1.4062-0.9375-0.47266-1.3438-0.023437-1.2344-0.46484-1.8789 0.32422-1.207 0.32422-1.0938-0.16016-2.0898 0.11719-1.8555-0.0625-1.4375 0.12891-1.2109-1.0039-2.1992-0.71484-2.1172 0.30859-1.2812 0.62891-2.1172-0.63281-1.4141-0.67578-1.3906 0.011719-1.2227 0.15234-2.3555-0.050781-1.5781 0.074218-1.7422 0.5-0.99219 1.5547-1.0352-0.68359-1.3164-0.56641-1.2617-0.56641-0.95703-1.2383-0.5-1.3711-1.0234-0.58984-1.1328 0.32812-1.2656-1.1133-1.0703-0.10156-1.3672-0.52734-2.1094 0.17188-1.7656 0.26172-1.4141 0.76172-1.2852 0.35156-1.3516 0.33203-1.2969 1.2344-1.3789 0.042968-1.5469 0.28125-1.1523 0.078125-1.0469-1.207-0.69531 0.58594-1.875v-2.1328l1.5898-2.0039-0.023437-1.4375 0.56641-1.5859-0.066406-1.0703 0.63281-1.3281 0.34766-1.4922 0.38281-1.1289 0.92578-1.7305 0.73828-1.3711 3.0703-6.3398 1.4648-1.1875 2.1445-1.7344 1.1055-0.22656 2.1016-0.97656 2.918-2.0742 2.043-1.8047 1.1523-1.7734 0.17969-1.1328-0.78906-1.2539-2.0547-1.6133-0.65625-0.75391-1.0078-2.4297-0.31641-1.6523 0.32812-1.8047 0.046875-1.0938 0.91406-2.8867 0.82422-1.7656 1.5234-2.0703 1.0508-0.68359 1.2812-0.87109 0.92969-0.87891 0.85547-0.66797 0.78125-0.84375 0.76172-0.65625 0.58594-1 1.0391-0.70703 0.77344-0.66797 0.89453-0.95312 0.77734-0.91406 0.69531-0.98047 1.2422-1.5234 0.83594-0.58203 0.89062-0.89062 0.65234-1.1016 0.63281-0.99219 0.42969-1.293 1.3008-1.582 0.64453-1.0547 0.34375-1.0352 0.13672-1 0.035157-1.168-0.375-1.1758 0.046875-1.0625-0.3125-1.0547-0.12109-1.3672-0.19141-0.99219 0.1875-1.1641v-1.2109l0.4375-1.5117 0.12891-1.2109 0.29297-1.1758 1.1992-0.89844 0.70703-1.0625 0.25-0.98047 0.60156-0.90625 0.37109-1.1445 0.75781-0.74219 0.87891-0.57031 1.0391-0.58594 1-0.96875 0.5-1.1172 1.9336-0.77344 0.77734-1.4375 1.0312-0.13672 1.1289-0.83203 1.1055-1.0742 0.42969-1.1992 0.51562-1.8047 0.32812-1.1992 0.59375-0.94531 0.6875-1.1836 0.48828-1.957 0.48047-1.0039-0.042969-1.6953-0.058593-1.3438-0.16016-1.2539 0.4375-0.94922 0.94141-1.5508 0.61328-1.1484-0.019531-1.4102v-1.125l0.25781-1.2695 0.37891-1.4922 0.18359-1.2695 0.042969-1.0156 0.5-0.96875 0.85938-1.043-0.0625-1.082-0.45312-1.2656 0.25391-1.6328-0.09375-1.0742-0.054687-1.2812-0.42969-0.9375 0.36719-1.6172-0.48828-1.3242-0.95703-0.58594-0.24219-1.0742-1.1562-1.1758-0.78516-0.625-0.96094-0.61719-0.50781-1.6602-0.16797-1.4492-0.26953-1.4805-0.13672-1.8633 0.28516-1.7031 0.35938-1.0078 0.98047-0.89453 0.98438-0.94141 0.61328-1.3477 1.1367 0.011719 0.875-1.1758 0.84766-0.63672 1.1367-0.24219 0.375-0.98828 0.80859-0.74219 0.42188-1.0273 2.8516-0.83594 1.1055-0.60547 1.3047-0.39844 0.28125-0.019531" fill="none" stroke="#fff" stroke-linecap="round" stroke-linejoin="round" stroke-miterlimit="10" stroke-width="2"/>
<path d="m88.574 0.015625 0.007812 0.24219 0.71094 1.5273 0.66016 1.1211-0.53516 1.1367-2.4492 1.4336-0.98047 0.82812-0.30078 1.1836 0.38672 1.1133 0.085937 1.2305 0.75 0.9375 1.1016 0.47266 1.5859 0.52734 1.3164 0.37891 0.89453 0.46484 1.625 0.4375 1.0039 0.47266 1.1758 0.35547 1.4922-0.19141 0.98828-0.25 1.1719-0.10156 1.1133-0.41797 1.2617-0.61328 1.1484 0.42578 1.6562 0.80078 1.9297 0.75 1.1758 0.59375 0.74219 0.83594 0.8125 1.5664 1.1445 1.3438 0.87891 0.60547 0.72656 0.86719 1.0117 1.082 1.2734 1.375 0.94922 1.0312 0.99219 0.78516 1.0586 0.625 1.0469 0.28125 0.78906 0.73828 1.6914-0.12109 1.2617-0.023437 1.0938 0.70703 1.2188-0.070313 1.0156 0.12109 1.1641 0.69141 0.875 0.875 0.6875 1.0938 0.99219 1.0156 1.2109 0.71484 0.92578 0.41016 1.7109 0.72656 1.0664 0.24219 1.3945 0.023438 1.1055 0.83203 1.4062 0.60156 1.5742 0.42969 1.4922 0.66406 0.875 0.71094-1.0547 1.4492-0.27734 1.1602 0.28906 1.2695 1.1094 0.78516 1.0195 0.96875 1.1562 0.38672 1.0664-0.28125 0.9375-0.42188 1.4297-0.43359 1.5391-0.42969 0.89453-0.46484 1.1797-0.40234 1.3008-0.63281 0.54297-1.0195-0.0625-1.0586-0.66797-1.2422 0.48047-1.1641 0.90625-0.56641 1.1055-0.80469 1.1914-1.293 0.89844-1.125 1.4297-0.30859 2.5273 0.58594 1.0195 0.050782 1.0742-0.62891 0.66016-1.1016 0.8125-1.7227 0.78516-0.78906 2.2109-0.0625 1.3047 0.20312 1.0391 0.20312 1.7891 0.25781 1.5195-0.43359 1.1094-0.99219 1.0547-0.39453 0.96094 0.34766 1.0625 0.89844-0.14062 1.5 1.3164 1.5977 1.9844 1.3594 1.3594 0.89062 1.0742 0.27344 0.67578-0.875 0.40625-1.1367 0.80859-0.80469 0.76562-0.79297 0.74609 0.68359 0.0625 1.1367-0.35547 0.96875-0.33594 1.4102-0.25391 1.5781 0.52734 1.1562 1.8633 0.74609 1.457 0.64453 1.0625 0.60156 1.4648 1.0117 1.0156 0.39453 1.2344 0.60156 0.28906 1.0039-1.4609 0.56641-1.1055 0.60547-1.9258 0.58984-1.043 0.39062-0.44922 1.125-0.89844 0.73828-0.94531 0.91797-1.1797 0.71094-0.38281 1.0742-1.0352-0.25391-0.78906 0.92969-0.62109 1.1133-1.5273 1.2031-0.59375 1.2891-0.27344 1.4492 0.11328 1.4219 0.14844 1.5625 0.15234 1.4805 0.29297 1.4492 0.57422 1.043 1.5352 0.99219 0.98047 0.96484 0.35547 1.0547 1.0195 0.81641 0.53125 1.0938-0.4375 1.0859 0.45703 1.6992 0.011718 1.1133 0.13672 1.2422-0.25391 1.1992 0.19141 1.1953 0.39453 1.2227-0.48828 0.95703-0.73047 0.89062-0.25391 1.543-0.18359 1.2695-0.37891 1.4922-0.25781 1.2695v1.125l0.0625 1.0117-0.3125 1.0156-0.79297 1.4766-0.85547 1.3359 0.085938 1.4727 0.058593 1.3438 0.050782 1.2188-0.48828 1.4805-0.16797 1.1914-0.66406 1.082-0.42578 1.0234-0.66797 1.1328-0.71094 2.0312-0.085938 1.0273-0.74609 1.2461-1.5547 1.0742-1.0234 0.41797-0.51953 1.1172-1.875 0.66797-0.76562 1.1367-0.51172 1.0547-1.1836 0.35156-0.81641 0.80078-0.96875 0.625-0.58203 0.87891-0.4375 1.125-0.67188 1.1797-0.41406 1.1328-0.96875 0.49609-0.75 1.0156 0.007812 1.1992-0.64844 1.5352-0.019532 1.3945-0.011718 1.2969-0.015625 1.0625-0.078125 1.2539 0.34375 0.98828 0.26562 1.1328 0.089843 1.1992 0.23828 1.0352-0.25 1.707-0.34375 1.0352-0.64453 1.0547-0.77344 0.74609-0.57031 1.2539-0.5 1.0195-0.70703 1.1562-0.69922 0.98047-1.0977 1.1602-1.25 0.76172-0.81641 1.2383-0.71484 1.1055-0.77344 0.79688-0.8125 0.77734-0.85547 0.91797-0.86719 0.59766-0.59375 0.97656-0.78125 0.65625-0.91797 0.97266-1.0859 0.80469-0.60547 0.85156-1.1875 0.53516-1.293 0.28125-1.0703-1.8711-0.81641-0.66406-1.0938-0.52344-0.73047-0.77344-1.2383-0.89453-1.0625-0.47656-0.82812-0.82812-1.0625-1.0703-0.38281-1.1641-0.14453-2.1797 0.10938-1.1875 0.023438-1.2227-0.32031-2.0117 0.59375-1.5039 0.058594-1.7461-0.1875-1.2812-0.51953-1.2461-0.96484-1.3555-2.418-1.3555-1.2266-1.8945-0.94531-1.6562-0.24219-1.2109-1.4258-2.2773-0.75-0.94922-1.4297-0.6875-1.6719-2.1211-0.6875-1.3906-1.1562-0.40625-2.7969 1.3984-4.5039 0.68359-3.6562-0.32812-4.2852-1.2031-5.4766-0.52344-4.4023 0.46094-2.75-0.050781-1.0195 0.14844-1.6328 0.003907-1.4336-0.26562-1.1133-1.0156 0.14062-1.3438 1.3438-1.957 1.0273-2.0312 2.5273-2.8711 0.53125-1.3359 0.14844-1.0742-0.41016-2.4062-1.6953-1.7812-0.54297-1.2344-0.49219-1.7891-2.9688-3.8125-3.6055-3.1328-1.332-0.78125-1.9688-0.83594-2.0703-1.3555-0.99219-0.24609-1.3008-0.089843-1.2266 0.03125-4.5273 0.11719-3.8438-1.668-5.5977-0.87891-2.0508-1.2305-3.6719-1.418-1.3633-0.87891-0.84766-0.83984 1.3594-3.6016-0.058594-5.1289 0.86719-6.5195 0.019531-3.1094 0.37109-2.4219 0.49609-1.8672 0.92578-2.1797 0.34375-2.332 1.043-2.4844 0.60547-2.6328 1.0703-2.5938 0.089843-1.0391-0.98828-0.63672-1.3125-0.96875-0.50391-1.2383 0.84766-0.76172 1.0195-0.36719 0.12891-1.3828 0.089843-1.1094-0.51562-1.1133 0.69531-1.3125 0.79297-1.1289-0.51953-1.7109 0.046875-1.6211 0.42969-1.2227 0.11719-1.1602 1.2266-0.41406 0.76562-0.84766 0.96875-0.76562 0.96484-0.93359 1.0273-2.3555-0.078125-1.293-0.51953-1.5312 0.30469-1.4727 0.55078-0.84375 0.16797-1.0078 1.0742-0.73047 1.168-0.79297 0.83594-0.61328 0.57812-1.2812 0.1875-1.2656 0.11719-1.2383-0.050781-1.3164 0.96875-0.69922 1.1758-0.59375 0.97266-0.98828 1-0.29297 1.0742-0.64844 1.4258-0.32422 1.5742-0.33203 1.1484-0.40625 1.2539 0.17969 1.2188-0.51953 0.96875-0.60547 0.98047-0.34766z" fill="#ccc" fill-rule="evenodd"/>
<path d="m88.574 0.015625 0.007812 0.24219 0.71094 1.5273 0.66016 1.1211-0.53516 1.1367-2.4492 1.4336-0.98047 0.82812-0.30078 1.1836 0.38672 1.1133 0.085937 1.2305 0.75 0.9375 1.1016 0.47266 1.5859 0.52734 1.3164 0.37891 0.89453 0.46484 1.625 0.4375 1.0039 0.47266 1.1758 0.35547 1.4922-0.19141 0.98828-0.25 1.1719-0.10156 1.1133-0.41797 1.2617-0.61328 1.1484 0.42578 1.6562 0.80078 1.9297 0.75 1.1758 0.59375 0.74219 0.83594 0.8125 1.5664 1.1445 1.3438 0.87891 0.60547 0.72656 0.86719 1.0117 1.082 1.2734 1.375 0.94922 1.0312 0.99219 0.78516 1.0586 0.625 1.0469 0.28125 0.78906 0.73828 1.6914-0.12109 1.2617-0.023437 1.0938 0.70703 1.2188-0.070313 1.0156 0.12109 1.1641 0.69141 0.875 0.875 0.6875 1.0938 0.99219 1.0156 1.2109 0.71484 0.92578 0.41016 1.7109 0.72656 1.0664 0.24219 1.3945 0.023438 1.1055 0.83203 1.4062 0.60156 1.5742 0.42969 1.4922 0.66406 0.875 0.71094-1.0547 1.4492-0.27734 1.1602 0.28906 1.2695 1.1094 0.78516 1.0195 0.96875 1.1562 0.38672 1.0664-0.28125 0.9375-0.42188 1.4297-0.43359 1.5391-0.42969 0.89453-0.46484 1.1797-0.40234 1.3008-0.63281 0.54297-1.0195-0.0625-1.0586-0.66797-1.2422 0.48047-1.1641 0.90625-0.56641 1.1055-0.80469 1.1914-1.293 0.89844-1.125 1.4297-0.30859 2.5273 0.58594 1.0195 0.050782 1.0742-0.62891 0.66016-1.1016 0.8125-1.7227 0.78516-0.78906 2.2109-0.0625 1.3047 0.20312 1.0391 0.20312 1.7891 0.25781 1.5195-0.43359 1.1094-0.99219 1.0547-0.39453 0.96094 0.34766 1.0625 0.89844-0.14062 1.5 1.3164 1.5977 1.9844 1.3594 1.3594 0.89062 1.0742 0.27344 0.67578-0.875 0.40625-1.1367 0.80859-0.80469 0.76562-0.79297 0.74609 0.68359 0.0625 1.1367-0.35547 0.96875-0.33594 1.4102-0.25391 1.5781 0.52734 1.1562 1.8633 0.74609 1.457 0.64453 1.0625 0.60156 1.4648 1.0117 1.0156 0.39453 1.2344 0.60156 0.28906 1.0039-1.4609 0.56641-1.1055 0.60547-1.9258 0.58984-1.043 0.39062-0.44922 1.125-0.89844 0.73828-0.94531 0.91797-1.1797 0.71094-0.38281 1.0742-1.0352-0.25391-0.78906 0.92969-0.62109 1.1133-1.5273 1.2031-0.59375 1.2891-0.27344 1.4492 0.11328 1.4219 0.14844 1.5625 0.15234 1.4805 0.29297 1.4492 0.57422 1.043 1.5352 0.99219 0.98047 0.96484 0.35547 1.0547 1.0195 0.81641 0.53125 1.0938-0.4375 1.0859 0.45703 1.6992 0.011718 1.1133 0.13672 1.2422-0.25391 1.1992 0.19141 1.1953 0.39453 1.2227-0.48828 0.95703-0.73047 0.89062-0.25391 1.543-0.18359 1.2695-0.37891 1.4922-0.25781 1.2695v1.125l0.0625 1.0117-0.3125 1.0156-0.79297 1.4766-0.85547 1.3359 0.085938 1.4727 0.058593 1.3438 0.050782 1.2188-0.48828 1.4805-0.16797 1.1914-0.66406 1.082-0.42578 1.0234-0.66797 1.1328-0.71094 2.0312-0.085938 1.0273-0.74609 1.2461-1.5547 1.0742-1.0234 0.41797-0.51953 1.1172-1.875 0.66797-0.76562 1.1367-0.51172 1.0547-1.1836 0.35156-0.81641 0.80078-0.96875 0.625-0.58203 0.87891-0.4375 1.125-0.67188 1.1797-0.41406 1.1328-0.96875 0.49609-0.75 1.0156 0.007812 1.1992-0.64844 1.5352-0.019532 1.3945-0.011718 1.2969-0.015625 1.0625-0.078125 1.2539 0.34375 0.98828 0.26562 1.1328 0.089843 1.1992 0.23828 1.0352-0.25 1.707-0.34375 1.0352-0.64453 1.0547-0.77344 0.74609-0.57031 1.2539-0.5 1.0195-0.70703 1.1562-0.69922 0.98047-1.0977 1.1602-1.25 0.76172-0.81641 1.2383-0.71484 1.1055-0.77344 0.79688-0.8125 0.77734-0.85547 0.91797-0.86719 0.59766-0.59375 0.97656-0.78125 0.65625-0.91797 0.97266-1.0859 0.80469-0.60547 0.85156-1.1875 0.53516-1.293 0.28125-1.0703-1.8711-0.81641-0.66406-1.0938-0.52344-0.73047-0.77344-1.2383-0.89453-1.0625-0.47656-0.82812-0.82812-1.0625-1.0703-0.38281-1.1641-0.14453-2.1797 0.10938-1.1875 0.023438-1.2227-0.32031-2.0117 0.59375-1.5039 0.058594-1.7461-0.1875-1.2812-0.51953-1.2461-0.96484-1.3555-2.418-1.3555-1.2266-1.8945-0.94531-1.6562-0.24219-1.2109-1.4258-2.2773-0.75-0.94922-1.4297-0.6875-1.6719-2.1211-0.6875-1.3906-1.1562-0.40625-2.7969 1.3984-4.5039 0.68359-3.6562-0.32812-4.2852-1.2031-5.4766-0.52344-4.4023 0.46094-2.75-0.050781-1.0195 0.14844-1.6328 0.003907-1.4336-0.26562-1.1133-1.0156 0.14062-1.3438 1.3438-1.957 1.0273-2.0312 2.5273-2.8711 0.53125-1.3359 0.14844-1.0742-0.41016-2.4062-1.6953-1.7812-0.54297-1.2344-0.49219-1.7891-2.9688-3.8125-3.6055-3.1328-1.332-0.78125-1.9688-0.83594-2.0703-1.3555-0.99219-0.24609-1.3008-0.089843-1.2266 0.03125-4.5273 0.11719-3.8438-1.668-5.5977-0.87891-2.0508-1.2305-3.6719-1.418-1.3633-0.87891-0.84766-0.83984 1.3594-3.6016-0.058594-5.1289 0.86719-6.5195 0.019531-3.1094 0.37109-2.4219 0.49609-1.8672 0.92578-2.1797 0.34375-2.332 1.043-2.4844 0.60547-2.6328 1.0703-2.5938 0.089843-1.0391-0.98828-0.63672-1.3125-0.96875-0.50391-1.2383 0.84766-0.76172 1.0195-0.36719 0.12891-1.3828 0.089843-1.1094-0.51562-1.1133 0.69531-1.3125 0.79297-1.1289-0.51953-1.7109 0.046875-1.6211 0.42969-1.2227 0.11719-1.1602 1.2266-0.41406 0.76562-0.84766 0.96875-0.76562 0.96484-0.93359 1.0273-2.3555-0.078125-1.293-0.51953-1.5312 0.30469-1.4727 0.55078-0.84375 0.16797-1.0078 1.0742-0.73047 1.168-0.79297 0.83594-0.61328 0.57812-1.2812 0.1875-1.2656 0.11719-1.2383-0.050781-1.3164 0.96875-0.69922 1.1758-0.59375 0.97266-0.98828 1-0.29297 1.0742-0.64844 1.4258-0.32422 1.5742-0.33203 1.1484-0.40625 1.2539 0.17969 1.2188-0.51953 0.96875-0.60547 0.98047-0.34766 0.39453-0.25391" fill="none" stroke="#fff" stroke-linecap="round" stroke-linejoin="round" stroke-miterlimit="10" stroke-width="2"/>
<path d="m301.25 291.91-0.085937 0.42188-0.68359 1.0547-1.0781 0.22266-0.75 0.71875-0.53125 1.4961 0.28125 1.2422 0.875 0.85938 0.36719 1.1758 0.44922 0.94922 0.67969 0.76953 1.0391 0.21875 0.74219 0.75391 0.16797 1.2773 0.20312 1.1172-0.67578 1.1914-1.1992 0.30859-0.26953 1.043 0.44922 1.0977-1.1289 0.79297-0.83984 0.63281 0.12109 1.0664 0.61328 0.82031-0.082031 1.1914-1.793 1.1055-1.3125 0.38281-0.94922 1.043-0.48828 1.5234-0.73047 0.98047-0.92969 0.40625-1.1133 0.72266-1.375 0.82031-0.94141 1.0781-0.84375 0.91406-0.9375 0.84375-1.4414 1.2656-1.0117 0.65625-1.2188 0.23438-1.4141 1.3711-0.44922 1.168-0.23438 2.293-0.75 1.1797-0.83984 0.59375-1.5977 0.40625-0.6875 0.92578 0.42969 1.7383 0.25781 0.99609 0.53125 0.88281 0.78125 1.4531 0.20703 1.2266 0.66797 1.043 0.48438 1.168 0.1875 1.5195 0.54688 0.92969 0.91016 0.51953 0.92578 0.64844 0.65625 0.96875 0.94922 0.8125 0.73438 1.5781 0.125 1.9141 2.0117 1.5039 0.84375 0.78125 0.5 0.97266-1.8125 0.28906-1.0977-0.20703-1.082 0.13281-1.2812 0.70703-1.3867 1.8828-0.89844 1.0195-1.1875 1.8477-0.55469 0.86328-0.76953 0.89453-1.3867 0.52734-0.82812 1.2109-0.30469 1.6523-0.73047 1.4961-0.46875 0.96094-1.1602 1.6523-1.7344 0.91797-1.3594 1.2188-0.94141 0.50781-1.0898 1.2227-1.832 1.707-1.3633 1.5625-0.64062 0.94531-0.62891 1.1992-1.1953 0.64844-1.2109 0.66016-1.4297 0.77734-0.98047 1.3047-0.60156 1.0273-0.98828 0.85547-1.3438 0.58203-1.0391 0.28906-1.2695 0.75781-1.2109 1.3242-1.5977 0.68359-1.1641-0.046875-1.9102-1.1133-0.91406-1.0234-1.4531 0.15234-2.3594 0.52344-1.7812 0.55469-1.1797 0.72656-1.4531 1.3555-1.1797 0.625-1.2773 0.27734-2.332 1.8789-1.0312 1.3828-0.69922 1.2266-0.80469 0.95312-1.5039 1.2812-0.42578 1.043 0.15234 2.2266 0.34766 2.6484-0.14844 1.4141-0.18359 1.2461 0.11719 1.2461-0.058594 1.0117-0.65625 0.99609-1.1133 1.9453-1.1133 1.1797-0.96875 1.0352-1.5312 1.1562-2.0703 1.4609-1.9883 0.26953-0.71484 1.2461 0.21094 3.8594-2.5508 0.94141-1.6289 0.13672-1.8047 0.29297-2.1133 0.52344-1.6719 1.3828-1.1562 0.95312-1.1797 0.77734-0.63281 1.582-0.14453 1.4805-0.22266 1.5547 0.125 2.207-2.6406 0.42969-0.97266 0.47266-1.918 0.71094-0.33984 2.3242-0.83984 0.88672-1.0664 0.11719-1.3047 1.1016-0.90234 1.9844-0.95312 3.0352-1.3047 0.023437-1.0508-0.40234-1.6016 0.23828-1.4062-0.023438-1.2578-0.26562-1.4297-0.30078-1.0781 0.20312-0.30078 3.0586-0.019532 1.0898-0.14844 2.0078-0.33203 2.2578-0.57422 1.3828-0.64844 2.3242-0.98828 2.8516-0.43359 1.0312-0.72266 1.5-0.51562 1.75-0.58203 1.9883-0.75391 2.5586-0.039063 1.0234 0.44141 2.3398 0.46094 2.4609-0.1875 2.2773-0.60156 1.6055-2.2578 1.1055-1.3281 0.39844-2.6602 0.15234h-1.957l-1.7812-0.15625-1.4766 0.10547-1.7578 0.125-1.1055 0.38672-2.7852 2.3711-1.6445 0.96094-1.125 0.23828-1.6836-0.21094-1.1445-0.14453-1.4219-0.074219-1.4883 0.17188-1.543 0.18359-1.6875 0.078125-0.35938 1.4844 0.75391 1.8516 1.0898 2.0234 1.4062 0.67969 0.72266 1.2656-0.52344 0.90234-1 0.95703-1.0234 0.75-1.207 0.21875-1.9648 0.98438-1.7656 0.14062-1.2852-0.20312-1.6445 0.16406-0.73047 1.1289-0.75391 1.2773-1.1836 0.98438-0.39844 1.0703-0.89062 1.2617-0.83594 0.55859-1 0.49219-1.3945 0.68359-1.5859-0.035156-1.082-0.29688-1.6211-0.60938-1.1758-0.27344-0.83203-1.1328-1.3242-0.53516-1.125-1.1523-1.8242-1.7656-2.9023-1.918-1.3242-0.30859-1.8594 0.64844-2.0547 1.0742-4.4062 2.6094-2.1367 0.74219-1.3828-3.5117-0.62109-0.80078-1.125-0.32031-1.4062 0.5-0.86328 0.68359-1.0547-0.51172-0.82812-1.2539 0.19922-1.2656 0.64844-1.6289 0.83594-1.9922-0.25-4.3281-0.23828-4.0547 0.039063-2.0312 0.054687-2.6758 0.023438-1.1836 0.035156-1.9727 0.16016-1.4922 0.22656-2.1133 0.027343-1.5508-0.085937-1.1562-0.39453-1.8594-0.88281-1.2852-0.83594-0.88281-0.28125-1.6641-0.19531-2.9375 0.19531-1.0039 2.0859-0.78906 1.125-0.875-0.082031-1.4375-0.55859-1.5664-1.0391-2.4688-0.375-1.3555-0.0625-1.293 0.13281-1.0469 1.3633-1.1797 0.73438-0.78906 1.0781-1.6094 0.20312-0.99609 2.4219-3.6211 0.53516-1.0508 3.0273-3.875 1.1992-0.55078 0.99609 0.13672 2.2266 0.17188 1.7109-0.92188 1.1172-0.34766 1.3945-0.29297 0.23438-1.0664-2.0898-1.1602-0.53125-0.91797 0.84375-1.9219-0.40625-3.8438-0.46484-0.97656-0.81641-1.3359 0.20312-1.5078-2.0508-0.88672-1.5742-0.80469 1.0391-0.76562 0.60547-1.0273-0.011719-1.1055 0.42188-1.2383 0.66797-0.79297 0.69531-1.3164 1.0938-1.375v-1.0195l-0.46094-1.0273-0.75781-1.1797-0.55469-1.0391 0.78125-1.2031 0.60547-1.1172 0.92969-1.0039 0.98828-0.6875 0.63672-0.94922 0.83984-0.67578 1.7148-0.66406 1.5859-0.27344 1.6445-0.34375 1.2852-1.625 1.332-1.3984 0.76562-0.73047 0.94531-0.89062 2.3594-1.3242 1.2344-0.28516 1.918 0.83594 1.7773 0.6875 1.1328 0.039062 1.3008 0.22266 1.4531-0.50781 1.3438-0.10938 0.53125-1.1055 0.61719-1.0352 0.82422-0.61328-0.003906-1.0039-0.003906-1.0508 0.0625-1.7344 0.64062-1.6133 0.59766-1.5 1.1875-1.2148 1.5469-1.1211 1.4766-0.375 1.1211-0.28906 1.3477-1.3672 2.4688-1.5195 1.1172-0.12891 1.0195-0.023438 2.7539-0.066406 1.1055-1.082 0.87891-1.3242 1.125-1.4766 0.75-1.8516-0.17969-1.4609-0.93359-2.6289 0.085938-1.3555 0.86719-1.2344 0.98828-1.3594 0.24609-1.0039 0.22656-1.0195 0.32031-0.95703 1.3047-1.1797 0.98828-0.98828 1.3555-0.054687 2.1016-0.98828 2.1875-1.2695 1.125-1.0742 0.83203-1.375 1.1797-0.6875 1.5352 0.72266 1.3047 0.37109 2.0273-0.84766 0.97266-0.47656 1.6562-0.44141 1.1289-0.47656 3.0859-0.29688 1.2539-0.54688 0.24609-1.5195 0.94141-1.6602 0.58594-1.125-0.12891-1.0625-0.22266-1.2539-0.82812-1.6484 0.40625-1.2734 0.91016-0.56641 1.5977-1.0977 0.69141-0.84375 0.97266-0.50391 1.3438-0.29297 1.1641-0.050782 1.1914 0.3125 2.3711 1.125 4.0469 0.39062 3.3008 0.67969 1.1914 0.47266 1.2695 0.49609 3.2461 0.47266 1.0625-0.125 1.8828 1.4102 0.94141 0.66016 1.2227-0.21875 1.6289-0.0625 1.7812-0.67969 1.2109-0.26172 1.0195-0.023437 0.875-0.86328 1.6172-1.4258 1.5469-1.3672 1.0703-0.70312 1.7266-2.0391 0.39844-1.4062 0.18359-1.1445 0.39844-0.94141 0.92578-1.3047 0.98047-0.70312 1.2031-0.51953 0.64453-3.0859 0.53516-0.89062 1.8516-0.625 1.7383-1.0195 0.91797-0.96484 0.95312-0.59375-0.046875-1.0625-0.16016-1-0.73438-0.82422-0.43359-1.2031 0.73047-1.5195 0.035156-1.0234-0.81641-1.0234 0.24219-1.7891 1.2344-1.5352 0.86328-1.1797 0.91406-0.51562 1.3047-0.91406 0.60156-1.4414 0.17188-1.3438-0.035156-1.2891-0.22266-1.2383 0.9375-0.91016 0.63281-1.3477 0.92188-1.2656 1.0859-0.38672 1.1719-0.64453 1.4961-0.73047 0.88281-1.6211 1.2656-1.1562 1.6758 0.13672 0.9375 0.61719 1.168 0.67578 1.5547-0.125 0.96094-0.67188 1.3359-0.23438 0.17969 1.1016 0.58203 0.84766 1.5625 0.38672 1.293 0.15234 0.52344 1.418 1.7852 1.0156 1.5703 1.0469 1.293 0.10938 1.2656-0.10938h1.3594l2.0938-0.35938 0.85156-0.69922 1.5742-0.25391 1.4258-0.10938 1.332-0.10156 1.0859-0.085938 1.5-0.16406 1.3867-0.21484 1.0898-0.71875 0.53906-1.2773 0.50781-1.3711 0.74219-0.97266 1.7461-0.50391 1.2969-0.35156 1.668-0.070313 1.6211 0.011719 1.0039-0.019531z" fill="#0a5394" fill-rule="evenodd"/>
<path d="m301.25 291.91-0.085937 0.42188-0.68359 1.0547-1.0781 0.22266-0.75 0.71875-0.53125 1.4961 0.28125 1.2422 0.875 0.85938 0.36719 1.1758 0.44922 0.94922 0.67969 0.76953 1.0391 0.21875 0.74219 0.75391 0.16797 1.2773 0.20312 1.1172-0.67578 1.1914-1.1992 0.30859-0.26953 1.043 0.44922 1.0977-1.1289 0.79297-0.83984 0.63281 0.12109 1.0664 0.61328 0.82031-0.082031 1.1914-1.793 1.1055-1.3125 0.38281-0.94922 1.043-0.48828 1.5234-0.73047 0.98047-0.92969 0.40625-1.1133 0.72266-1.375 0.82031-0.94141 1.0781-0.84375 0.91406-0.9375 0.84375-1.4414 1.2656-1.0117 0.65625-1.2188 0.23438-1.4141 1.3711-0.44922 1.168-0.23438 2.293-0.75 1.1797-0.83984 0.59375-1.5977 0.40625-0.6875 0.92578 0.42969 1.7383 0.25781 0.99609 0.53125 0.88281 0.78125 1.4531 0.20703 1.2266 0.66797 1.043 0.48438 1.168 0.1875 1.5195 0.54688 0.92969 0.91016 0.51953 0.92578 0.64844 0.65625 0.96875 0.94922 0.8125 0.73438 1.5781 0.125 1.9141 2.0117 1.5039 0.84375 0.78125 0.5 0.97266-1.8125 0.28906-1.0977-0.20703-1.082 0.13281-1.2812 0.70703-1.3867 1.8828-0.89844 1.0195-1.1875 1.8477-0.55469 0.86328-0.76953 0.89453-1.3867 0.52734-0.82812 1.2109-0.30469 1.6523-0.73047 1.4961-0.46875 0.96094-1.1602 1.6523-1.7344 0.91797-1.3594 1.2188-0.94141 0.50781-1.0898 1.2227-1.832 1.707-1.3633 1.5625-0.64062 0.94531-0.62891 1.1992-1.1953 0.64844-1.2109 0.66016-1.4297 0.77734-0.98047 1.3047-0.60156 1.0273-0.98828 0.85547-1.3438 0.58203-1.0391 0.28906-1.2695 0.75781-1.2109 1.3242-1.5977 0.68359-1.1641-0.046875-1.9102-1.1133-0.91406-1.0234-1.4531 0.15234-2.3594 0.52344-1.7812 0.55469-1.1797 0.72656-1.4531 1.3555-1.1797 0.625-1.2773 0.27734-2.332 1.8789-1.0312 1.3828-0.69922 1.2266-0.80469 0.95312-1.5039 1.2812-0.42578 1.043 0.15234 2.2266 0.34766 2.6484-0.14844 1.4141-0.18359 1.2461 0.11719 1.2461-0.058594 1.0117-0.65625 0.99609-1.1133 1.9453-1.1133 1.1797-0.96875 1.0352-1.5312 1.1562-2.0703 1.4609-1.9883 0.26953-0.71484 1.2461 0.21094 3.8594-2.5508 0.94141-1.6289 0.13672-1.8047 0.29297-2.1133 0.52344-1.6719 1.3828-1.1562 0.95312-1.1797 0.77734-0.63281 1.582-0.14453 1.4805-0.22266 1.5547 0.125 2.207-2.6406 0.42969-0.97266 0.47266-1.918 0.71094-0.33984 2.3242-0.83984 0.88672-1.0664 0.11719-1.3047 1.1016-0.90234 1.9844-0.95312 3.0352-1.3047 0.023437-1.0508-0.40234-1.6016 0.23828-1.4062-0.023438-1.2578-0.26562-1.4297-0.30078-1.0781 0.20312-0.30078 3.0586-0.019532 1.0898-0.14844 2.0078-0.33203 2.2578-0.57422 1.3828-0.64844 2.3242-0.98828 2.8516-0.43359 1.0312-0.72266 1.5-0.51562 1.75-0.58203 1.9883-0.75391 2.5586-0.039063 1.0234 0.44141 2.3398 0.46094 2.4609-0.1875 2.2773-0.60156 1.6055-2.2578 1.1055-1.3281 0.39844-2.6602 0.15234h-1.957l-1.7812-0.15625-1.4766 0.10547-1.7578 0.125-1.1055 0.38672-2.7852 2.3711-1.6445 0.96094-1.125 0.23828-1.6836-0.21094-1.1445-0.14453-1.4219-0.074219-1.4883 0.17188-1.543 0.18359-1.6875 0.078125-0.35938 1.4844 0.75391 1.8516 1.0898 2.0234 1.4062 0.67969 0.72266 1.2656-0.52344 0.90234-1 0.95703-1.0234 0.75-1.207 0.21875-1.9648 0.98438-1.7656 0.14062-1.2852-0.20312-1.6445 0.16406-0.73047 1.1289-0.75391 1.2773-1.1836 0.98438-0.39844 1.0703-0.89062 1.2617-0.83594 0.55859-1 0.49219-1.3945 0.68359-1.5859-0.035156-1.082-0.29688-1.6211-0.60938-1.1758-0.27344-0.83203-1.1328-1.3242-0.53516-1.125-1.1523-1.8242-1.7656-2.9023-1.918-1.3242-0.30859-1.8594 0.64844-2.0547 1.0742-4.4062 2.6094-2.1367 0.74219-1.3828-3.5117-0.62109-0.80078-1.125-0.32031-1.4062 0.5-0.86328 0.68359-1.0547-0.51172-0.82812-1.2539 0.19922-1.2656 0.64844-1.6289 0.83594-1.9922-0.25-4.3281-0.23828-4.0547 0.039063-2.0312 0.054687-2.6758 0.023438-1.1836 0.035156-1.9727 0.16016-1.4922 0.22656-2.1133 0.027343-1.5508-0.085937-1.1562-0.39453-1.8594-0.88281-1.2852-0.83594-0.88281-0.28125-1.6641-0.19531-2.9375 0.19531-1.0039 2.0859-0.78906 1.125-0.875-0.082031-1.4375-0.55859-1.5664-1.0391-2.4688-0.375-1.3555-0.0625-1.293 0.13281-1.0469 1.3633-1.1797 0.73438-0.78906 1.0781-1.6094 0.20312-0.99609 2.4219-3.6211 0.53516-1.0508 3.0273-3.875 1.1992-0.55078 0.99609 0.13672 2.2266 0.17188 1.7109-0.92188 1.1172-0.34766 1.3945-0.29297 0.23438-1.0664-2.0898-1.1602-0.53125-0.91797 0.84375-1.9219-0.40625-3.8438-0.46484-0.97656-0.81641-1.3359 0.20312-1.5078-2.0508-0.88672-1.5742-0.80469 1.0391-0.76562 0.60547-1.0273-0.011719-1.1055 0.42188-1.2383 0.66797-0.79297 0.69531-1.3164 1.0938-1.375v-1.0195l-0.46094-1.0273-0.75781-1.1797-0.55469-1.0391 0.78125-1.2031 0.60547-1.1172 0.92969-1.0039 0.98828-0.6875 0.63672-0.94922 0.83984-0.67578 1.7148-0.66406 1.5859-0.27344 1.6445-0.34375 1.2852-1.625 1.332-1.3984 0.76562-0.73047 0.94531-0.89062 2.3594-1.3242 1.2344-0.28516 1.918 0.83594 1.7773 0.6875 1.1328 0.039062 1.3008 0.22266 1.4531-0.50781 1.3438-0.10938 0.53125-1.1055 0.61719-1.0352 0.82422-0.61328-0.003906-1.0039-0.003906-1.0508 0.0625-1.7344 0.64062-1.6133 0.59766-1.5 1.1875-1.2148 1.5469-1.1211 1.4766-0.375 1.1211-0.28906 1.3477-1.3672 2.4688-1.5195 1.1172-0.12891 1.0195-0.023438 2.7539-0.066406 1.1055-1.082 0.87891-1.3242 1.125-1.4766 0.75-1.8516-0.17969-1.4609-0.93359-2.6289 0.085938-1.3555 0.86719-1.2344 0.98828-1.3594 0.24609-1.0039 0.22656-1.0195 0.32031-0.95703 1.3047-1.1797 0.98828-0.98828 1.3555-0.054687 2.1016-0.98828 2.1875-1.2695 1.125-1.0742 0.83203-1.375 1.1797-0.6875 1.5352 0.72266 1.3047 0.37109 2.0273-0.84766 0.97266-0.47656 1.6562-0.44141 1.1289-0.47656 3.0859-0.29688 1.2539-0.54688 0.24609-1.5195 0.94141-1.6602 0.58594-1.125-0.12891-1.0625-0.22266-1.2539-0.82812-1.6484 0.40625-1.2734 0.91016-0.56641 1.5977-1.0977 0.69141-0.84375 0.97266-0.50391 1.3438-0.29297 1.1641-0.050782 1.1914 0.3125 2.3711 1.125 4.0469 0.39062 3.3008 0.67969 1.1914 0.47266 1.2695 0.49609 3.2461 0.47266 1.0625-0.125 1.8828 1.4102 0.94141 0.66016 1.2227-0.21875 1.6289-0.0625 1.7812-0.67969 1.2109-0.26172 1.0195-0.023437 0.875-0.86328 1.6172-1.4258 1.5469-1.3672 1.0703-0.70312 1.7266-2.0391 0.39844-1.4062 0.18359-1.1445 0.39844-0.94141 0.92578-1.3047 0.98047-0.70312 1.2031-0.51953 0.64453-3.0859 0.53516-0.89062 1.8516-0.625 1.7383-1.0195 0.91797-0.96484 0.95312-0.59375-0.046875-1.0625-0.16016-1-0.73438-0.82422-0.43359-1.2031 0.73047-1.5195 0.035156-1.0234-0.81641-1.0234 0.24219-1.7891 1.2344-1.5352 0.86328-1.1797 0.91406-0.51562 1.3047-0.91406 0.60156-1.4414 0.17188-1.3438-0.035156-1.2891-0.22266-1.2383 0.9375-0.91016 0.63281-1.3477 0.92188-1.2656 1.0859-0.38672 1.1719-0.64453 1.4961-0.73047 0.88281-1.6211 1.2656-1.1562 1.6758 0.13672 0.9375 0.61719 1.168 0.67578 1.5547-0.125 0.96094-0.67188 1.3359-0.23438 0.17969 1.1016 0.58203 0.84766 1.5625 0.38672 1.293 0.15234 0.52344 1.418 1.7852 1.0156 1.5703 1.0469 1.293 0.10938 1.2656-0.10938h1.3594l2.0938-0.35938 0.85156-0.69922 1.5742-0.25391 1.4258-0.10938 1.332-0.10156 1.0859-0.085938 1.5-0.16406 1.3867-0.21484 1.0898-0.71875 0.53906-1.2773 0.50781-1.3711 0.74219-0.97266 1.7461-0.50391 1.2969-0.35156 1.668-0.070313 1.6211 0.011719 1.0039-0.019531 0.43359 0.054687" fill="none" stroke="#fff" stroke-linecap="round" stroke-linejoin="round" stroke-miterlimit="10"/>
<path d="m226.82 357.46c0 3.5898-2.9102 6.5-6.5 6.5s-6.5-2.9102-6.5-6.5c0-3.5898 2.9102-6.5 6.5-6.5s6.5 2.9102 6.5 6.5" fill="#28c028" fill-rule="evenodd" stroke="#000" stroke-linecap="round" stroke-linejoin="round" stroke-miterlimit="10"/>
<path d="m108.68 351.46v-16.469h3.3281v6.4844h6.5v-6.4844h3.3281v16.469h-3.3281v-7.2031h-6.5v7.2031zm31.438 0h-3.6094l-1.4375-3.7344h-6.5781l-1.3594 3.7344h-3.5312l6.4062-16.469h3.5156zm-6.1094-6.5156-2.2812-6.1094-2.2188 6.1094zm21.125 4.4219c0.82031 0.58594 1.7109 1.0469 2.6719 1.3906l-1.2344 2.3594c-0.5-0.15625-0.99219-0.36719-1.4688-0.625-0.10547-0.054687-0.84375-0.53906-2.2188-1.4531-1.0742 0.46875-2.2656 0.70312-3.5781 0.70312-2.5312 0-4.5156-0.74219-5.9531-2.2344-1.4297-1.4883-2.1406-3.582-2.1406-6.2812 0-2.6875 0.71875-4.7734 2.1562-6.2656 1.4375-1.5 3.3828-2.25 5.8438-2.25 2.4453 0 4.3828 0.75 5.8125 2.25 1.4258 1.4922 2.1406 3.5781 2.1406 6.2656 0 1.4297-0.19922 2.6797-0.59375 3.75-0.30469 0.82422-0.78125 1.6211-1.4375 2.3906zm-2.6719-1.875c0.42578-0.5 0.74219-1.1016 0.95312-1.8125 0.21875-0.70703 0.32812-1.5234 0.32812-2.4531 0-1.8945-0.42188-3.3125-1.2656-4.25-0.83594-0.94531-1.9297-1.4219-3.2812-1.4219-1.3555 0-2.4531 0.47656-3.2969 1.4219-0.84375 0.9375-1.2656 2.3555-1.2656 4.25 0 1.9297 0.42188 3.3711 1.2656 4.3281 0.84375 0.94922 1.9102 1.4219 3.2031 1.4219 0.47656 0 0.92969-0.078125 1.3594-0.23438-0.67969-0.4375-1.3672-0.78125-2.0625-1.0312l0.9375-1.9062c1.0938 0.375 2.1328 0.9375 3.125 1.6875zm7.2969-12.5h3.3125v8.9219c0 1.418 0.039062 2.3359 0.125 2.75 0.14453 0.67969 0.48438 1.2188 1.0156 1.625 0.53906 0.40625 1.2734 0.60938 2.2031 0.60938 0.9375 0 1.6445-0.19141 2.125-0.57812 0.47656-0.38281 0.76562-0.85938 0.85938-1.4219 0.10156-0.5625 0.15625-1.4922 0.15625-2.7969v-9.1094h3.3281v8.6562c0 1.9688-0.09375 3.3672-0.28125 4.1875-0.17969 0.8125-0.50781 1.5-0.98438 2.0625-0.48047 0.5625-1.125 1.0117-1.9375 1.3438-0.8125 0.33203-1.8711 0.5-3.1719 0.5-1.5742 0-2.7656-0.18359-3.5781-0.54688-0.8125-0.36328-1.4531-0.83203-1.9219-1.4062-0.46875-0.58203-0.77734-1.1914-0.92188-1.8281-0.21875-0.94531-0.32812-2.3438-0.32812-4.1875zm16.531 16.469v-16.469h3.3125v16.469zm6.5 0v-16.469h7c1.7578 0 3.0352 0.15234 3.8281 0.45312 0.80078 0.29297 1.4414 0.82031 1.9219 1.5781 0.47656 0.75 0.71875 1.6172 0.71875 2.5938 0 1.2305-0.36719 2.25-1.0938 3.0625-0.73047 0.80469-1.8203 1.3086-3.2656 1.5156 0.71875 0.41797 1.3125 0.88281 1.7812 1.3906 0.46875 0.5 1.0977 1.3867 1.8906 2.6562l2.0156 3.2188h-3.9688l-2.4062-3.5781c-0.85547-1.2812-1.4375-2.0859-1.75-2.4219-0.3125-0.33203-0.64844-0.5625-1-0.6875-0.35547-0.125-0.91406-0.1875-1.6719-0.1875h-0.67188v6.875zm3.3281-9.5h2.4531c1.5938 0 2.5859-0.066406 2.9844-0.20312 0.39453-0.13281 0.70312-0.36328 0.92188-0.6875 0.22656-0.33203 0.34375-0.75 0.34375-1.25 0-0.55078-0.14844-0.99219-0.4375-1.3281-0.29297-0.34375-0.71094-0.5625-1.25-0.65625-0.27344-0.03125-1.0781-0.046875-2.4219-0.046875h-2.5938zm28.109 9.5h-3.6094l-1.4375-3.7344h-6.5781l-1.3594 3.7344h-3.5312l6.4062-16.469h3.5156zm-6.1094-6.5156-2.2812-6.1094-2.2188 6.1094zm0 0" fill="none" stroke="#fff" stroke-linecap="round" stroke-linejoin="round" stroke-miterlimit="10" stroke-width="2"/>
<path d="m108.68 351.46v-16.469h3.3281v6.4844h6.5v-6.4844h3.3281v16.469h-3.3281v-7.2031h-6.5v7.2031zm31.438 0h-3.6094l-1.4375-3.7344h-6.5781l-1.3594 3.7344h-3.5312l6.4062-16.469h3.5156zm-6.1094-6.5156-2.2812-6.1094-2.2188 6.1094zm21.125 4.4219c0.82031 0.58594 1.7109 1.0469 2.6719 1.3906l-1.2344 2.3594c-0.5-0.15625-0.99219-0.36719-1.4688-0.625-0.10547-0.054687-0.84375-0.53906-2.2188-1.4531-1.0742 0.46875-2.2656 0.70312-3.5781 0.70312-2.5312 0-4.5156-0.74219-5.9531-2.2344-1.4297-1.4883-2.1406-3.582-2.1406-6.2812 0-2.6875 0.71875-4.7734 2.1562-6.2656 1.4375-1.5 3.3828-2.25 5.8438-2.25 2.4453 0 4.3828 0.75 5.8125 2.25 1.4258 1.4922 2.1406 3.5781 2.1406 6.2656 0 1.4297-0.19922 2.6797-0.59375 3.75-0.30469 0.82422-0.78125 1.6211-1.4375 2.3906zm-2.6719-1.875c0.42578-0.5 0.74219-1.1016 0.95312-1.8125 0.21875-0.70703 0.32812-1.5234 0.32812-2.4531 0-1.8945-0.42188-3.3125-1.2656-4.25-0.83594-0.94531-1.9297-1.4219-3.2812-1.4219-1.3555 0-2.4531 0.47656-3.2969 1.4219-0.84375 0.9375-1.2656 2.3555-1.2656 4.25 0 1.9297 0.42188 3.3711 1.2656 4.3281 0.84375 0.94922 1.9102 1.4219 3.2031 1.4219 0.47656 0 0.92969-0.078125 1.3594-0.23438-0.67969-0.4375-1.3672-0.78125-2.0625-1.0312l0.9375-1.9062c1.0938 0.375 2.1328 0.9375 3.125 1.6875zm7.2969-12.5h3.3125v8.9219c0 1.418 0.039062 2.3359 0.125 2.75 0.14453 0.67969 0.48438 1.2188 1.0156 1.625 0.53906 0.40625 1.2734 0.60938 2.2031 0.60938 0.9375 0 1.6445-0.19141 2.125-0.57812 0.47656-0.38281 0.76562-0.85938 0.85938-1.4219 0.10156-0.5625 0.15625-1.4922 0.15625-2.7969v-9.1094h3.3281v8.6562c0 1.9688-0.09375 3.3672-0.28125 4.1875-0.17969 0.8125-0.50781 1.5-0.98438 2.0625-0.48047 0.5625-1.125 1.0117-1.9375 1.3438-0.8125 0.33203-1.8711 0.5-3.1719 0.5-1.5742 0-2.7656-0.18359-3.5781-0.54688-0.8125-0.36328-1.4531-0.83203-1.9219-1.4062-0.46875-0.58203-0.77734-1.1914-0.92188-1.8281-0.21875-0.94531-0.32812-2.3438-0.32812-4.1875zm16.531 16.469v-16.469h3.3125v16.469zm6.5 0v-16.469h7c1.7578 0 3.0352 0.15234 3.8281 0.45312 0.80078 0.29297 1.4414 0.82031 1.9219 1.5781 0.47656 0.75 0.71875 1.6172 0.71875 2.5938 0 1.2305-0.36719 2.25-1.0938 3.0625-0.73047 0.80469-1.8203 1.3086-3.2656 1.5156 0.71875 0.41797 1.3125 0.88281 1.7812 1.3906 0.46875 0.5 1.0977 1.3867 1.8906 2.6562l2.0156 3.2188h-3.9688l-2.4062-3.5781c-0.85547-1.2812-1.4375-2.0859-1.75-2.4219-0.3125-0.33203-0.64844-0.5625-1-0.6875-0.35547-0.125-0.91406-0.1875-1.6719-0.1875h-0.67188v6.875zm3.3281-9.5h2.4531c1.5938 0 2.5859-0.066406 2.9844-0.20312 0.39453-0.13281 0.70312-0.36328 0.92188-0.6875 0.22656-0.33203 0.34375-0.75 0.34375-1.25 0-0.55078-0.14844-0.99219-0.4375-1.3281-0.29297-0.34375-0.71094-0.5625-1.25-0.65625-0.27344-0.03125-1.0781-0.046875-2.4219-0.046875h-2.5938zm28.109 9.5h-3.6094l-1.4375-3.7344h-6.5781l-1.3594 3.7344h-3.5312l6.4062-16.469h3.5156zm-6.1094-6.5156-2.2812-6.1094-2.2188 6.1094z" fill-rule="evenodd"/>
</g>
</svg>
