<?xml version="1.0" encoding="UTF-8"?>
<svg width="500pt" height="460pt" version="1.1" viewBox="0 0 500 460" xmlns="http://www.w3.org/2000/svg">
<g id="a">
<rect width="500" height="460" fill="none"/>
<path d="m211.12 188.3 0.074219 0.19531 0.43359 1.5469 0.8125 0.72266 1.1094 0.39453 1.7383 0.49609 1.0117-0.027343 1.0078 1.082 1 0.65234 1.2734 0.3125 2.4922 1.1367 1.4336 0.82031 1.3711 0.51953 1.7773 0.99219 1.5781 0.39062 1.1992 0.51562 1.4688-0.23828 0.69141 0.87891 0.80859 0.94922 0.83203 2.2539 0.66016 1.4883 1.5312 1.0469 0.78516 0.66016 1.1406 0.48047 1.2695 0.69922 1.2266 0.83203 1.4883 0.91797 1.1836 0.61328 0.69922 0.78906 0.87109 0.65625 2.9766 2.7148 0.87891 0.65625 1.2266 1.793 0.39062 1.5352 0.4375 2.0586 0.59375 0.97266 0.41406 1.2109 0.75391 1.0195 0.070313 1.0664 0.96094 0.32422 0.85938 0.51562 0.5 1.3203-1.0273 0.83203-0.83594 0.76562-0.67578 0.84766-0.51562 0.92969-0.35156 1.0898-1.2148 0.12109-0.95312-0.72656-1.2578 0.42578-0.65234 0.90625-0.86328 0.84766-0.67578 0.96484-0.43359 1.0625-0.30859 0.96094-0.32812 0.99219-0.82031 0.71484-1.0547 0.62891-0.81641 0.76562-1.3516 1.5938-0.53516 1.0352-0.085937 1.1914-0.25781 1.1484 0.25391 1.0195 0.5625 0.85938 0.31641 1.2422 1.1445 0.74609 0.22266 1.1484-0.21875 1.3359-0.45703 1.3359-0.74219 1.0156-1.2852 0.52734-1.0703 0.54297-1.2422 1.0273-0.56641 1.0625-1.0547 1.2305-0.79688 0.88281-0.23047 0.97656-1.2031 1.1367-0.45703 0.96484-0.37109 0.94141-0.42188 0.92188-0.52344 0.96484-0.41016 0.98438-0.52734 1.3828-0.79688 0.89453-0.84766 0.78516-0.89844 0.74609-0.55078 0.85156-0.64062 1.043-0.51562 0.98438-0.23828 1.1211-0.089844 1.0977-0.36328 1.0352 0.57031 0.82422-0.21484 1.0234-0.46484 1.0078-0.48047 1.0898 0.066406 1.1055 0.125 1.3711-0.25 1.1758-0.42188 1.1523-0.72656 1.4844 0.089844 1.3945-0.23047 0.98438-0.47656 1.2188 0.21094 1.1719 0.11328 1.1875-0.40625 1.2695 0.19922 1.168 1.1914 0.94531 1.6992 0.41406 1.125 0.4375 0.75781-0.91797 0.34375-1.793 0.4375-0.91797 1.0312-1.2383 0.94141-0.66797 0.53125 1.8398 0.11328 1.1445 0.27344 1.5391 0.16016 1.332-0.45703 1.6094-0.62109 1.7461 0.09375 1.1914 0.36719 1.5586 0.46094 1.6211 0.48047 1.1094 0.058594 1.2969-0.31641 1-0.72266 0.75781-0.64062 1.8789-0.48438 1.4297-0.62109 1.3516 0.082031 2.4297-0.54297 1.2969-0.48438 0.97266-0.21484 1.0273 0.48828 1.1172 0.14844 1.2227 0.5625 1.0352 1.0312 0.57422 1.0312-0.55859 1.043-0.19531 1.3086 0.18359 1.0664 0.20312 2.6133 0.38281 2.125 0.89844 2.3281 0.33984 1.043 0.20312 0.67188 0.89844-0.14844 1.9492-0.15234 1.4531-0.082031 1.1992-0.16016 1.9727 0.011719 1.4219-0.039062 1.7305 0.0625 3.3984-1.5547-0.59375-0.96875-0.3125-1.3242-0.47656-2.0312-0.82031-1.1016-0.32812-1.6172-0.69141-2.1953-0.80859-1.4141-0.5625-1.0938-0.57031-0.99609-0.31641-1.1172-0.54688-1.4102-0.72266-1.1719-0.66016-1.0352-0.45312-1-0.41016-0.98828-0.62891-1.3047-0.97656-0.86328-0.66797-2.0703-1.4688-0.99219-0.81641-0.97656-0.55469-1.1914-0.94141-2.1992-1.8672-1.0117-0.58203-0.76562-0.97656-0.92578-0.83594-0.84375-0.8125-1.0078-0.74219-0.99219-0.85938-0.75391-0.65234-0.71094-0.70703-1-0.80859-1.0234-0.81641-0.82812-0.55859-0.90234-1.1133-0.95703-0.73438-1.2109-1.1445-0.79688-0.82812-1.3047-1.2773-1.1289-1.1016-1.1641-0.82031-0.87109-0.82422-1.8711-1.5156-0.80859-0.79297-0.99219-0.73047-0.89453-0.64453-1.1641-0.82812-1.5977-1.1562-0.92578-0.63281-1-0.76172-1.3945-0.97266-1.1094-0.76953-1.4258-0.875-1.2695-1.0391-0.97266-0.55469-0.85938-0.74219-0.95312-0.63281-1.5547-1.0312-0.95312-0.63672-0.94141-0.52734-1.207-0.6875-0.96875-0.62891-1.5156-0.85156-0.96094-0.48828-1.1055-0.79297-1.0078-0.57422-0.94922-0.53516-0.92578-0.55078-1.2539-0.8125-0.85547-0.58984-1.125-0.37109-0.73438-0.71484-1.1172-0.56641-1.4766-0.36719-1.0508 0.52734-0.99609 0.25781-1.0742-0.003907-1.1211-0.69922-1.0898-0.046875-1.4297-0.46094-1.0078 0.03125-0.88281-0.6875-1.1602 0.35547-1.0664 0.015625-1.1797-0.49609-0.70703 0.73047-1.2539-0.14062-0.98047-0.20703-1.1523-0.027344-1.0352 0.37109-0.58984 0.83203-1.1406-0.33984-1.0586-0.77734-0.70312 0.79297-1.0469-0.23828-0.24609-1.2344-1.1133 0.078125-1.0547 0.26953-0.73828 0.83984-1.1328 0.125-1.0352-0.23828-1.0664-0.19922-0.62891-0.92578-0.79688-0.83203-1.3359-0.54297-1.1953 0.11328-0.94531-0.72656-0.98828-0.625-0.87109-0.59766-0.79297 0.73438-0.82422 0.60156-0.99219 0.57422-1.0859-0.17188-0.76953-0.71875-0.097657-1.0898 0.37891-1.2695 0.68359-1.2148 1.168-0.78516 1.2734-0.12109 0.60156-1.25 0.83594-0.67188 0.96484-0.79297 1.0742-0.71484 1.5195-0.62109 1.4727-1.1328 1.6289-0.92969 1.0547-0.52344 1.0273-0.35938 0.90234-0.74219 1.4961-1.9961 0.54688-1.1953 0.78906-1.9492 0.97656-1.0078 1.0391-1.4531 1.707-1.1641 0.85938-1.0938 0.13672-1.0625 1.0586-1.1953 0.89062-0.95703 0.066406-1.3359 0.75391-1.4688 0.82031-1.3672 1.0234-0.75391 1.0469-0.73047 0.875-1.2539 0.58203-0.83984 0.92578-0.96484 0.78906-1.2773 0.23828-1.0977 0.95703-0.89844 1.0781-0.72266 0.95703-0.98828 0.69141-1.4375 0.77734-1.2891 1.2266-0.35938 1.1094-0.86719 1.5312-1.5 0.62891-1.168 0.57031-1.0391-0.019531-1.1094-0.50391-1.5898-0.03125-1.1797 0.51953-1.0703 1.2773-0.98828 1.3633-0.72266 0.375-1.2773-0.69531-0.89844-1.043-0.69531 14.535-13.27 9.5352-5.5078 19.34-9.7344 6.2383-3.1367z" fill="#ccc" fill-rule="evenodd"/>
<path d="m211.12 188.3 0.074219 0.19531 0.43359 1.5469 0.8125 0.72266 1.1094 0.39453 1.7383 0.49609 1.0117-0.027343 1.0078 1.082 1 0.65234 1.2734 0.3125 2.4922 1.1367 1.4336 0.82031 1.3711 0.51953 1.7773 0.99219 1.5781 0.39062 1.1992 0.51562 1.4688-0.23828 0.69141 0.87891 0.80859 0.94922 0.83203 2.2539 0.66016 1.4883 1.5312 1.0469 0.78516 0.66016 1.1406 0.48047 1.2695 0.69922 1.2266 0.83203 1.4883 0.91797 1.1836 0.61328 0.69922 0.78906 0.87109 0.65625 2.9766 2.7148 0.87891 0.65625 1.2266 1.793 0.39062 1.5352 0.4375 2.0586 0.59375 0.97266 0.41406 1.2109 0.75391 1.0195 0.070313 1.0664 0.96094 0.32422 0.85938 0.51562 0.5 1.3203-1.0273 0.83203-0.83594 0.76562-0.67578 0.84766-0.51562 0.92969-0.35156 1.0898-1.2148 0.12109-0.95312-0.72656-1.2578 0.42578-0.65234 0.90625-0.86328 0.84766-0.67578 0.96484-0.43359 1.0625-0.30859 0.96094-0.32812 0.99219-0.82031 0.71484-1.0547 0.62891-0.81641 0.76562-1.3516 1.5938-0.53516 1.0352-0.085937 1.1914-0.25781 1.1484 0.25391 1.0195 0.5625 0.85938 0.31641 1.2422 1.1445 0.74609 0.22266 1.1484-0.21875 1.3359-0.45703 1.3359-0.74219 1.0156-1.2852 0.52734-1.0703 0.54297-1.2422 1.0273-0.56641 1.0625-1.0547 1.2305-0.79688 0.88281-0.23047 0.97656-1.2031 1.1367-0.45703 0.96484-0.37109 0.94141-0.42188 0.92188-0.52344 0.96484-0.41016 0.98438-0.52734 1.3828-0.79688 0.89453-0.84766 0.78516-0.89844 0.74609-0.55078 0.85156-0.64062 1.043-0.51562 0.98438-0.23828 1.1211-0.089844 1.0977-0.36328 1.0352 0.57031 0.82422-0.21484 1.0234-0.46484 1.0078-0.48047 1.0898 0.066406 1.1055 0.125 1.3711-0.25 1.1758-0.42188 1.1523-0.72656 1.4844 0.089844 1.3945-0.23047 0.98438-0.47656 1.2188 0.21094 1.1719 0.11328 1.1875-0.40625 1.2695 0.19922 1.168 1.1914 0.94531 1.6992 0.41406 1.125 0.4375 0.75781-0.91797 0.34375-1.793 0.4375-0.91797 1.0312-1.2383 0.94141-0.66797 0.53125 1.8398 0.11328 1.1445 0.27344 1.5391 0.16016 1.332-0.45703 1.6094-0.62109 1.7461 0.09375 1.1914 0.36719 1.5586 0.46094 1.6211 0.48047 1.1094 0.058594 1.2969-0.31641 1-0.72266 0.75781-0.64062 1.8789-0.48438 1.4297-0.62109 1.3516 0.082031 2.4297-0.54297 1.2969-0.48438 0.97266-0.21484 1.0273 0.48828 1.1172 0.14844 1.2227 0.5625 1.0352 1.0312 0.57422 1.0312-0.55859 1.043-0.19531 1.3086 0.18359 1.0664 0.20312 2.6133 0.38281 2.125 0.89844 2.3281 0.33984 1.043 0.20312 0.67188 0.89844-0.14844 1.9492-0.15234 1.4531-0.082031 1.1992-0.16016 1.9727 0.011719 1.4219-0.039062 1.7305 0.0625 3.3984-1.5547-0.59375-0.96875-0.3125-1.3242-0.47656-2.0312-0.82031-1.1016-0.32812-1.6172-0.69141-2.1953-0.80859-1.4141-0.5625-1.0938-0.57031-0.99609-0.31641-1.1172-0.54688-1.4102-0.72266-1.1719-0.66016-1.0352-0.45312-1-0.41016-0.98828-0.62891-1.3047-0.97656-0.86328-0.66797-2.0703-1.4688-0.99219-0.81641-0.97656-0.55469-1.1914-0.94141-2.1992-1.8672-1.0117-0.58203-0.76562-0.97656-0.92578-0.83594-0.84375-0.8125-1.0078-0.74219-0.99219-0.85938-0.75391-0.65234-0.71094-0.70703-1-0.80859-1.0234-0.81641-0.82812-0.55859-0.90234-1.1133-0.95703-0.73438-1.2109-1.1445-0.79688-0.82812-1.3047-1.2773-1.1289-1.1016-1.1641-0.82031-0.87109-0.82422-1.8711-1.5156-0.80859-0.79297-0.99219-0.73047-0.89453-0.64453-1.1641-0.82812-1.5977-1.1562-0.92578-0.63281-1-0.76172-1.3945-0.97266-1.1094-0.76953-1.4258-0.875-1.2695-1.0391-0.97266-0.55469-0.85938-0.74219-0.95312-0.63281-1.5547-1.0312-0.95312-0.63672-0.94141-0.52734-1.207-0.6875-0.96875-0.62891-1.5156-0.85156-0.96094-0.48828-1.1055-0.79297-1.0078-0.57422-0.94922-0.53516-0.92578-0.55078-1.2539-0.8125-0.85547-0.58984-1.125-0.37109-0.73438-0.71484-1.1172-0.56641-1.4766-0.36719-1.0508 0.52734-0.99609 0.25781-1.0742-0.003907-1.1211-0.69922-1.0898-0.046875-1.4297-0.46094-1.0078 0.03125-0.88281-0.6875-1.1602 0.35547-1.0664 0.015625-1.1797-0.49609-0.70703 0.73047-1.2539-0.14062-0.98047-0.20703-1.1523-0.027344-1.0352 0.37109-0.58984 0.83203-1.1406-0.33984-1.0586-0.77734-0.70312 0.79297-1.0469-0.23828-0.24609-1.2344-1.1133 0.078125-1.0547 0.26953-0.73828 0.83984-1.1328 0.125-1.0352-0.23828-1.0664-0.19922-0.62891-0.92578-0.79688-0.83203-1.3359-0.54297-1.1953 0.11328-0.94531-0.72656-0.98828-0.625-0.87109-0.59766-0.79297 0.73438-0.82422 0.60156-0.99219 0.57422-1.0859-0.17188-0.76953-0.71875-0.097657-1.0898 0.37891-1.2695 0.68359-1.2148 1.168-0.78516 1.2734-0.12109 0.60156-1.25 0.83594-0.67188 0.96484-0.79297 1.0742-0.71484 1.5195-0.62109 1.4727-1.1328 1.6289-0.92969 1.0547-0.52344 1.0273-0.35938 0.90234-0.74219 1.4961-1.9961 0.54688-1.1953 0.78906-1.9492 0.97656-1.0078 1.0391-1.4531 1.707-1.1641 0.85938-1.0938 0.13672-1.0625 1.0586-1.1953 0.89062-0.95703 0.066406-1.3359 0.75391-1.4688 0.82031-1.3672 1.0234-0.75391 1.0469-0.73047 0.875-1.2539 0.58203-0.83984 0.92578-0.96484 0.78906-1.2773 0.23828-1.0977 0.95703-0.89844 1.0781-0.72266 0.95703-0.98828 0.69141-1.4375 0.77734-1.2891 1.2266-0.35938 1.1094-0.86719 1.5312-1.5 0.62891-1.168 0.57031-1.0391-0.019531-1.1094-0.50391-1.5898-0.03125-1.1797 0.51953-1.0703 1.2773-0.98828 1.3633-0.72266 0.375-1.2773-0.69531-0.89844-1.043-0.69531 14.535-13.27 9.5352-5.5078 19.34-9.7344 6.2383-3.1367 0.82422-0.039062" fill="none" stroke="#fff" stroke-linecap="round" stroke-linejoin="round" stroke-miterlimit="10" stroke-width="2"/>
<path d="m243.51 319.37 0.64453 0.17969 1.457 0.007813 0.79688 0.63281 1.7656-0.47656 1.4453-0.003907 1.3047-0.14062-0.003906 1.6211 1.0508-0.26562 1.2695-0.21484 0.21875 2.1094 0.28516 1.0039-0.027344 1.1758 0.13281 1.875-0.023438 1.0859-0.44531 1.0352-0.35938 0.96484-0.35547 1.2305 0.050781 1.6953-0.11719 1.1992-0.25 1.0938-0.042969 1.1914-0.082031 1.0156-1.6523 0.28125-2.7617-0.61328-1.3789-0.53906-0.97266-0.33984-1.1602-0.082031-1.2461-0.375-0.29688-3.4844 0.035156-1.2891-0.007813-1.8633 0.16016-1.9727 0.082031-1.1992 0.15234-1.4531 0.39062-1.3008-0.082032-1.2656-0.88281-0.625 0.42578-1.5742z" fill="#ccc" fill-rule="evenodd"/>
<path d="m243.51 319.37 0.64453 0.17969 1.457 0.007813 0.79688 0.63281 1.7656-0.47656 1.4453-0.003907 1.3047-0.14062-0.003906 1.6211 1.0508-0.26562 1.2695-0.21484 0.21875 2.1094 0.28516 1.0039-0.027344 1.1758 0.13281 1.875-0.023438 1.0859-0.44531 1.0352-0.35938 0.96484-0.35547 1.2305 0.050781 1.6953-0.11719 1.1992-0.25 1.0938-0.042969 1.1914-0.082031 1.0156-1.6523 0.28125-2.7617-0.61328-1.3789-0.53906-0.97266-0.33984-1.1602-0.082031-1.2461-0.375-0.29688-3.4844 0.035156-1.2891-0.007813-1.8633 0.16016-1.9727 0.082031-1.1992 0.15234-1.4531 0.39062-1.3008-0.082032-1.2656-0.88281-0.625 0.42578-1.5742 0.48047-0.32031" fill="none" stroke="#fff" stroke-linecap="round" stroke-linejoin="round" stroke-miterlimit="10" stroke-width="2"/>
<path d="m233.88 304.67 0.60547 0.46094 0.90234 0.69141 1.0781 0.09375 0.97266-0.28516 1.0117 0.3125 1.0625 0.10547 1.2891-0.070312 0.45703 1.7891 0.73828 0.92188 1.0195 0.33984 0.84375 0.66406 2.625-0.41797 1.1133-0.27344 0.10547 1.0781 0.51953 0.92578 0.55859 0.92578-0.13281 1.0898-0.65625 1.6367 0.19531 1.5547 0.39453 1.0859-0.58984 0.8125-0.94531 0.96875-0.46094 1.0547-0.97656-0.58203-1.457-0.007813-1.0508-0.43359-0.45312 1.9219-1.0391 0.36719-2.3281-0.33984-2.125-0.89844-2.6133-0.38281-1.0664-0.20312-1.3086-0.18359-1.043 0.19531-1.0312 0.55859-1.0312-0.57422-0.5625-1.0352v-1.0469l-0.66406-0.89062 0.24219-1.4297 0.48438-0.97266 0.54297-1.2969v-1.6211l0.050781-1.4297 0.75781-1.3789 0.36328-1.7969 0.86328-1.1016 0.53516-0.89062 1.2383-0.38672z" fill="#ccc" fill-rule="evenodd"/>
<path d="m233.88 304.67 0.60547 0.46094 0.90234 0.69141 1.0781 0.09375 0.97266-0.28516 1.0117 0.3125 1.0625 0.10547 1.2891-0.070312 0.45703 1.7891 0.73828 0.92188 1.0195 0.33984 0.84375 0.66406 2.625-0.41797 1.1133-0.27344 0.10547 1.0781 0.51953 0.92578 0.55859 0.92578-0.13281 1.0898-0.65625 1.6367 0.19531 1.5547 0.39453 1.0859-0.58984 0.8125-0.94531 0.96875-0.46094 1.0547-0.97656-0.58203-1.457-0.007813-1.0508-0.43359-0.45312 1.9219-1.0391 0.36719-2.3281-0.33984-2.125-0.89844-2.6133-0.38281-1.0664-0.20312-1.3086-0.18359-1.043 0.19531-1.0312 0.55859-1.0312-0.57422-0.5625-1.0352v-1.0469l-0.66406-0.89062 0.24219-1.4297 0.48438-0.97266 0.54297-1.2969v-1.6211l0.050781-1.4297 0.75781-1.3789 0.36328-1.7969 0.86328-1.1016 0.53516-0.89062 1.2383-0.38672 0.96484 0.375" fill="none" stroke="#fff" stroke-linecap="round" stroke-linejoin="round" stroke-miterlimit="10" stroke-width="2"/>
<path d="m25.496 4.0234 0.59766 0.30859 1.0742 0.54688 1.2148 0.082032 1.3867 0.4375 1.0508-0.16406 1.2422-0.38281 1.4023 1.1367 0.78906 1 0.79297 0.68359 1.5898 0.26172 2.6133-0.19141 0.88672 0.98438 0.73828 1.0859 1.168 1.2148 0.60938 1.2148 1.1719 1.0625 0.17188 1.1289-0.51953 1.1445 0.63281 1.2773 0.89844 0.51562 1.2148 0.72656 0.92578 0.37891 1.168 0.53125 1.2773 0.71484 1.2109 0.82031 0.68359 1.0156 0.30469 1.3359 0.65234 1.2734 0.69922 2.2031-0.42578 1.168 0.30469 1.3945 0.36328 0.98828 0.074219 1.1836 0.76953 1.4453 1.0156 1.5312 0.66406 1.1406-0.13672 1.543-0.16016 1.5781 0.074219 1.1641 0.5625 1.5469 1.0312 1.4297 0.92188 1.1641 0.51562 1.0078 0.54297 0.90234 0.16016 1.0312 0.44141 1.5195 0.33984 0.96875-0.26172 1.2422-0.50391 1.1641-0.73828 0.80469-0.55859 0.90625-1.3984 0.3125-1.6836 0.53125-1.5703 0.16406-1.2734 0.77344-0.93359 1.168-1.0664 0.94531-0.79297 0.92578-0.058594 1.2305 0.50391 1.4961 1.0742 1.0508 0.95703 0.4375 0.69141 0.83203 0.78906 0.97266 0.29297 1.168 0.56641 1.0312 1.3516-0.52734 1.1992-0.24219 1.418-1.0781 1.4922-1.1055 1.2227-0.91797 1.2266-0.48828 0.72656-0.74609 0.98438-0.52344 1.3398-0.41406 1.2852 0.3125 1.3086 0.42969 3.2695 1.8477 0.78906 0.64453 0.17578-1.1719 0.75391-1.4102 0.82031-1.0195 0.31641-1.9297 1.0469-1.5234 1.0195-0.48047 1.2422-0.73438 0.70703-1.3242 0.76562-0.98438 1.4922 0.80078 1.0977 1.4531 1.2109 1.1172 1.1523 0.89453 1.7891 0.64453 1.6758 1.8672-0.011719 1.5352 0.84766 0.55859 2.4805 0.44531 1.6562-0.19922 1.2773 1.418 1.2539 0.82422 0.86328 0.58594 1.0625 0.80078 1.3125 0.17188 1.6641-0.48047 1.1406-0.69141 1.0156 0.47656 1.4961 0.27734 1.25-0.16797 1.3867 0.23047 1.6211 0.046875 1.543-0.30859 1.2031-0.19922 0.92578-0.38672 1.0625-0.046875 1.1328 0.37891 1.1797 0.48438 1.2148 0.49609 0.99219 0.22656 1.2344-0.16016 1.6953-0.12891 1.2344 0.22266 1.1523 0.25781 1.0742 0.078125 2.8359-0.29297 1.25 0.1875 1.2422 0.30469 1.3555 0.59766 1.1953 0.23047-0.36719 1.3438-0.67188 1.2656-0.8125 1.2227-0.95703 0.9375-0.92188 0.875-0.26172 1.0469-0.36719 1.1836-0.34375 1.3477v1.3086l-0.72266 1.1953-0.77734 0.91406-0.78516 0.83984-0.39844 0.94922-0.67578 0.86328-0.28906 1.3516-0.64844 1.082-0.75 1.1914-0.86328 0.77344-0.30469 1.8242 0.015625 1.8281-0.36719 1.1758-0.40234 0.95312 0.16797 1.0586 0.32812 1.1914-0.89062 1.0078-0.68359 1.0586-0.89453 0.875-0.62891 0.83984-0.86719 0.69141-0.22656 1.3086-0.32031 1.0625 0.54297 1.0469-0.33594 1.0469-0.30859 0.97656-1.3359 0.75-1.0273 0.78516-0.52734 1.8398-0.16016 1.0586-0.61719 1.75-0.39062 1.1328-0.26562 1.0898-0.65234 0.90625 0.38281 1.0703-0.52734 1.1445-1.0352 0.59766-0.625 1.3086-0.082031 1.2539 0.46875 1.0859-0.097657 1.4023 0.085938 1.2148-0.066406 1.0977-0.050782 1.0703-0.20312 1.6367-0.57422 0.98438-0.86328 1.3047-0.76172 1.0586 0.15234 1.4297 0.09375 1.1055-1.1172 0.46875-2.4023 0.82422-1.2422 0.47656-1.0938 0.26172-1.7461 1.0312-2.0938 0.65234-3.4961 0.14062-2.4922 0.1875-1.582 0.53906-0.88672 0.53516-0.90625 0.45703-0.94141 0.69531-0.82812 1.207-1.3984 1.0977-1.6875 0.77734-1.5117 0.66016-1.1406 0.46875-0.83594 1.1602-0.84375 1.3164-0.27344 1.2383-0.77734 1.1289-0.91406 0.56641-0.70703 0.90234-0.75781 1.1602-0.53516 1.0156-0.87109 1.2422-0.72656 0.84375-0.97266 0.91406-0.875 0.62891-0.88281 0.68359-0.95703 1.1016-1.3047 0.035156-1.3125-0.085937-1.4258-0.14453-1.1328-0.20312-1.0977 0.11328-1.0977-0.30859-1.2812-0.25781-1.2617 0.67969-1.0781 1.1016-1.0195 0.43359-1.0117 0.38672-1.0195 0.39844-1.5039-0.10156-1.0156-0.097656-1.3828-0.41016-1.043-0.64844-1.0703-0.38281-1.5859-0.5625-1.1055-0.67969-0.90234-1.1367-0.71484-1.3789-0.95312-1.1445-1.7266-0.79688-2.0195-0.46484 0.054688-1.2266 0.015625-1.2695 0.22266-2.1211-0.15234-1.1133-0.19141-1.1367-0.47266-1.7695-0.49609-1.8672-0.58984-1.457-0.69922-1.4258-0.69141-1.9766 0.38281-1.1797 0.21094-1.5234-0.17578-1.6328-0.87109-1.1211-0.050781-1.6094 0.55469-1.4688 0.58203-1.4453 0.16797-1.082 0.21484-1.4648-0.625-1.3359-1.6367-1.6211-0.71875-0.97266-0.35156-1.1797-0.39062-1.457-0.78125-1.3828-0.64453-1.5781-0.78125-0.69531-0.62109-0.82812-0.30469-1.3828-0.44922-1.3242-0.81641-1.2812-0.10156-1.4258 0.44922-1.4648-0.019531-1.4883-0.10156-1.0391-0.42969-1.1797-0.28125-2.0391 0.058593-1.0156 0.24219-1.2617-0.17969-1.5078-0.0625-1.4648v-1.3672l-0.23047-1.4648-0.52734-1.6875 0.10156-1.7188 0.36328-0.98047-0.035157-1.0352 0.12109-1.1172-0.57031-1.1523-0.6875-1.2031-1.1484-0.73828-0.89453-0.80859 0.19141-1.0117 0.32422-1.2031-0.85938-1.0938-0.32812-1.3594-0.26172-1.0586-0.015625-1.0859-0.39844-1.0469 0.58203-0.94531 0.28125-1.0586 0.12891-1.6719-0.53125-1.4375-0.37109-1.1328 0.19141-1.3008-0.56641-1.3281-0.20703-1.2383-0.12109-1.0312-0.58203-0.98828-0.48047-0.96875-0.58203-0.98438-0.32422-1.418-0.035156-1.1367 1.2734-0.77734 1-0.39844 1.1836 0.38281 1.1016 0.13281 1.3125-0.35938 0.80078-0.87109 0.72656-0.69531 0.92188-0.45312-0.32031-1.1406-1.3672-1.7188-0.14844-1.0742 0.46484-1.043 0.082031-1.6367 0.03125-1.4648 0.23047-1.6016 0.12891-2.1953-0.55859-1.3086-0.78516-0.6875-0.62109-1.1484-0.42578-1.0156-0.19531-3.1875 0.48828-2.3164 0.56641-1.6914 0.53906-1.625 0.25391-0.98047v-1.2344l-0.30078-0.97266-0.87891-0.52734-0.5625-1.0195-0.12109-1.4609-0.082032-1.1055-0.32031-1.0391-0.4375-0.96484-0.84766-0.83984-0.97266-0.88281 0.51953-1.5859 0.023437-1.2695 0.42969-1.4922 0.25-1.293-0.13672-1.2422 0.77344-1.4727 0.65625-1.3125-0.43359-2.1055-0.36328-1.0664-0.69922-1.1523z" fill="#ccc" fill-rule="evenodd"/>
<path d="m25.496 4.0234 0.59766 0.30859 1.0742 0.54688 1.2148 0.082032 1.3867 0.4375 1.0508-0.16406 1.2422-0.38281 1.4023 1.1367 0.78906 1 0.79297 0.68359 1.5898 0.26172 2.6133-0.19141 0.88672 0.98438 0.73828 1.0859 1.168 1.2148 0.60938 1.2148 1.1719 1.0625 0.17188 1.1289-0.51953 1.1445 0.63281 1.2773 0.89844 0.51562 1.2148 0.72656 0.92578 0.37891 1.168 0.53125 1.2773 0.71484 1.2109 0.82031 0.68359 1.0156 0.30469 1.3359 0.65234 1.2734 0.69922 2.2031-0.42578 1.168 0.30469 1.3945 0.36328 0.98828 0.074219 1.1836 0.76953 1.4453 1.0156 1.5312 0.66406 1.1406-0.13672 1.543-0.16016 1.5781 0.074219 1.1641 0.5625 1.5469 1.0312 1.4297 0.92188 1.1641 0.51562 1.0078 0.54297 0.90234 0.16016 1.0312 0.44141 1.5195 0.33984 0.96875-0.26172 1.2422-0.50391 1.1641-0.73828 0.80469-0.55859 0.90625-1.3984 0.3125-1.6836 0.53125-1.5703 0.16406-1.2734 0.77344-0.93359 1.168-1.0664 0.94531-0.79297 0.92578-0.058594 1.2305 0.50391 1.4961 1.0742 1.0508 0.95703 0.4375 0.69141 0.83203 0.78906 0.97266 0.29297 1.168 0.56641 1.0312 1.3516-0.52734 1.1992-0.24219 1.418-1.0781 1.4922-1.1055 1.2227-0.91797 1.2266-0.48828 0.72656-0.74609 0.98438-0.52344 1.3398-0.41406 1.2852 0.3125 1.3086 0.42969 3.2695 1.8477 0.78906 0.64453 0.17578-1.1719 0.75391-1.4102 0.82031-1.0195 0.31641-1.9297 1.0469-1.5234 1.0195-0.48047 1.2422-0.73438 0.70703-1.3242 0.76562-0.98438 1.4922 0.80078 1.0977 1.4531 1.2109 1.1172 1.1523 0.89453 1.7891 0.64453 1.6758 1.8672-0.011719 1.5352 0.84766 0.55859 2.4805 0.44531 1.6562-0.19922 1.2773 1.418 1.2539 0.82422 0.86328 0.58594 1.0625 0.80078 1.3125 0.17188 1.6641-0.48047 1.1406-0.69141 1.0156 0.47656 1.4961 0.27734 1.25-0.16797 1.3867 0.23047 1.6211 0.046875 1.543-0.30859 1.2031-0.19922 0.92578-0.38672 1.0625-0.046875 1.1328 0.37891 1.1797 0.48438 1.2148 0.49609 0.99219 0.22656 1.2344-0.16016 1.6953-0.12891 1.2344 0.22266 1.1523 0.25781 1.0742 0.078125 2.8359-0.29297 1.25 0.1875 1.2422 0.30469 1.3555 0.59766 1.1953 0.23047-0.36719 1.3438-0.67188 1.2656-0.8125 1.2227-0.95703 0.9375-0.92188 0.875-0.26172 1.0469-0.36719 1.1836-0.34375 1.3477v1.3086l-0.72266 1.1953-0.77734 0.91406-0.78516 0.83984-0.39844 0.94922-0.67578 0.86328-0.28906 1.3516-0.64844 1.082-0.75 1.1914-0.86328 0.77344-0.30469 1.8242 0.015625 1.8281-0.36719 1.1758-0.40234 0.95312 0.16797 1.0586 0.32812 1.1914-0.89062 1.0078-0.68359 1.0586-0.89453 0.875-0.62891 0.83984-0.86719 0.69141-0.22656 1.3086-0.32031 1.0625 0.54297 1.0469-0.33594 1.0469-0.30859 0.97656-1.3359 0.75-1.0273 0.78516-0.52734 1.8398-0.16016 1.0586-0.61719 1.75-0.39062 1.1328-0.26562 1.0898-0.65234 0.90625 0.38281 1.0703-0.52734 1.1445-1.0352 0.59766-0.625 1.3086-0.082031 1.2539 0.46875 1.0859-0.097657 1.4023 0.085938 1.2148-0.066406 1.0977-0.050782 1.0703-0.20312 1.6367-0.57422 0.98438-0.86328 1.3047-0.76172 1.0586 0.15234 1.4297 0.09375 1.1055-1.1172 0.46875-2.4023 0.82422-1.2422 0.47656-1.0938 0.26172-1.7461 1.0312-2.0938 0.65234-3.4961 0.14062-2.4922 0.1875-1.582 0.53906-0.88672 0.53516-0.90625 0.45703-0.94141 0.69531-0.82812 1.207-1.3984 1.0977-1.6875 0.77734-1.5117 0.66016-1.1406 0.46875-0.83594 1.1602-0.84375 1.3164-0.27344 1.2383-0.77734 1.1289-0.91406 0.56641-0.70703 0.90234-0.75781 1.1602-0.53516 1.0156-0.87109 1.2422-0.72656 0.84375-0.97266 0.91406-0.875 0.62891-0.88281 0.68359-0.95703 1.1016-1.3047 0.035156-1.3125-0.085937-1.4258-0.14453-1.1328-0.20312-1.0977 0.11328-1.0977-0.30859-1.2812-0.25781-1.2617 0.67969-1.0781 1.1016-1.0195 0.43359-1.0117 0.38672-1.0195 0.39844-1.5039-0.10156-1.0156-0.097656-1.3828-0.41016-1.043-0.64844-1.0703-0.38281-1.5859-0.5625-1.1055-0.67969-0.90234-1.1367-0.71484-1.3789-0.95312-1.1445-1.7266-0.79688-2.0195-0.46484 0.054688-1.2266 0.015625-1.2695 0.22266-2.1211-0.15234-1.1133-0.19141-1.1367-0.47266-1.7695-0.49609-1.8672-0.58984-1.457-0.69922-1.4258-0.69141-1.9766 0.38281-1.1797 0.21094-1.5234-0.17578-1.6328-0.87109-1.1211-0.050781-1.6094 0.55469-1.4688 0.58203-1.4453 0.16797-1.082 0.21484-1.4648-0.625-1.3359-1.6367-1.6211-0.71875-0.97266-0.35156-1.1797-0.39062-1.457-0.78125-1.3828-0.64453-1.5781-0.78125-0.69531-0.62109-0.82812-0.30469-1.3828-0.44922-1.3242-0.81641-1.2812-0.10156-1.4258 0.44922-1.4648-0.019531-1.4883-0.10156-1.0391-0.42969-1.1797-0.28125-2.0391 0.058593-1.0156 0.24219-1.2617-0.17969-1.5078-0.0625-1.4648v-1.3672l-0.23047-1.4648-0.52734-1.6875 0.10156-1.7188 0.36328-0.98047-0.035157-1.0352 0.12109-1.1172-0.57031-1.1523-0.6875-1.2031-1.1484-0.73828-0.89453-0.80859 0.19141-1.0117 0.32422-1.2031-0.85938-1.0938-0.32812-1.3594-0.26172-1.0586-0.015625-1.0859-0.39844-1.0469 0.58203-0.94531 0.28125-1.0586 0.12891-1.6719-0.53125-1.4375-0.37109-1.1328 0.19141-1.3008-0.56641-1.3281-0.20703-1.2383-0.12109-1.0312-0.58203-0.98828-0.48047-0.96875-0.58203-0.98438-0.32422-1.418-0.035156-1.1367 1.2734-0.77734 1-0.39844 1.1836 0.38281 1.1016 0.13281 1.3125-0.35938 0.80078-0.87109 0.72656-0.69531 0.92188-0.45312-0.32031-1.1406-1.3672-1.7188-0.14844-1.0742 0.46484-1.043 0.082031-1.6367 0.03125-1.4648 0.23047-1.6016 0.12891-2.1953-0.55859-1.3086-0.78516-0.6875-0.62109-1.1484-0.42578-1.0156-0.19531-3.1875 0.48828-2.3164 0.56641-1.6914 0.53906-1.625 0.25391-0.98047v-1.2344l-0.30078-0.97266-0.87891-0.52734-0.5625-1.0195-0.12109-1.4609-0.082032-1.1055-0.32031-1.0391-0.4375-0.96484-0.84766-0.83984-0.97266-0.88281 0.51953-1.5859 0.023437-1.2695 0.42969-1.4922 0.25-1.293-0.13672-1.2422 0.77344-1.4727 0.65625-1.3125-0.43359-2.1055-0.36328-1.0664-0.69922-1.1523 0.39453-0.3125" fill="none" stroke="#fff" stroke-linecap="round" stroke-linejoin="round" stroke-miterlimit="10" stroke-width="2"/>
<path d="m347.11 210.91 0.16797 0.11328 0.09375 1.3047 0.046875 1.1914 0.67188 1.0117 0.39062 1.0078 0.70703 0.92188 1.0586 0.24609 0.37891 0.96875 0.90625 1.3633 2.2461 3.0117-1.4609 1.2539-1.2891 6.3789-1.1367 4.7461-0.40234 1.0156-0.78125 4.3945-1.5195 6.0469-1.2812 5.2852-3.7422 6.5859-3.1875 5.4336-4.75 5.2695-9.2109 0.74609-2.5898 5.9141-1.0469 0.57812-1 0.42578-0.66797 1.3281-11.039-0.13672-4.3555 2.9219-4.0234 3.2695-3.2539 2.4648-2.5664 2.1094-1.0312-0.65234-0.78125-0.91406-1.125-0.44141-1.0742-0.28516-1.2344 0.47656-1.1445-0.17969-0.91406 0.63281-1.2344 0.83594-0.93359 0.41797-0.79297 0.97266-1.2969 0.4375-1.5039 0.26953-0.98438 0.26953-0.95312 0.39453-1.293 0.66016-1.0586 0.16016-1.3477 0.34375-1.3477 1.2422-0.84766 1.0312-1.1289 0.27344-1.1953-0.24609-1.3516 0.71484-1.4648 0.40234-1.4062 0.38281-1.0742 0.41406-0.89453 1.2266-0.82812 1.0078-0.51172 1.0469-0.011719 1.3672-0.53906 1.4023-0.5625 0.99219-0.28906 1.1328-0.40234 1.1289-0.23438 1.0195-0.94922 0.57812-1.2812 0.33203-1.6953 0.38672-1.3672 0.37109-1.1016 1.2812-1.9688 0.92578-1.1641 0.19922-1.2031-0.53906-0.22266 1.4336-1.6602 0.20703-0.99219-0.65625-0.46094-1.5078-1.125 0.24609-2.0117 0.57031-1.1719-0.65234-1.3047-0.50391-0.77344-0.64062 0.011718-1.4062-0.97266-0.54688-1.5625-0.085937-1.1133-0.38281-1.1211 0.28906-1.0781-0.09375-0.90234-0.69141-1.5703-0.83594-1.0586 0.30469-0.089844-1.3047-0.49609-1.6484-0.46094-1.6211-0.11328-1.0742-0.34766-1.0352 0.30078-1.6992 0.71094-1.4453v-1.6328l-0.36719-2.0898-0.11328-1.1445-0.18359-1.5391-1.2891 0.36719-1.0312 1.2383-0.4375 0.91797-0.32031 1.332-0.4375 1.2188-1.0117-0.046875-1.1953-0.39062-1.4648-0.48047-0.65234-1.1875-0.1875-1.082 0.42578-1.3906-0.33203-0.95703 0.20703-1.2773 0.32422-1.1133 0.046875-1.207 0.11719-1.6016 0.62109-1.0273 0.53516-1.2227 0.13281-1.2617-0.15625-1.2227 0.13281-1.3906 0.41797-1.0469 0.46484-0.91016-0.48828-1.4492 0.36328-1.0352 0.089844-1.0977 0.23828-1.1211 0.51562-0.98438 0.64062-1.043 0.55078-0.85156 0.89844-0.74609 0.84766-0.78516 0.79688-0.89453 0.40625-0.94922 0.44531-1.1484 0.41797-0.95703 0.61328-1.1992 0.37109-0.94141 0.45703-0.96484 1.0039-0.69922 0.32422-1.1523 0.78125-1.0117 0.89062-0.89844 0.52734-1.1016 0.83984-0.78906 0.96875-0.85156 1.2891-0.40625 1.0938-0.80469 0.67188-1.1641 0.33984-1.4492 0.082032-1.5-0.81641-0.73438-0.64844-0.89844-0.42578-0.91406-0.59766-1.0391 0.30469-1.0547 0.0625-1.3477 0.36328-1.3242 0.73828-1.5586 1.0938-0.55859 0.78125-0.80859 1.0117-0.47656 0.66797-0.79297 0.31641-0.96875 0.53906-1.1211 0.58594-1.1914 0.51562-0.87109 0.80859-1.0898 1.1211-0.57422 1.4023 0.48438 1.1328 0.097656 0.44141-1.0664 0.52734-0.98047 0.78125-0.97266 0.83594-0.76562 0.99219-0.28906-0.30469-1.6406-1.043-0.34375-0.9375-0.71875-0.070313-1.0664-0.66797-0.75-0.14844-1.0156 0.58984 1.0352 1.957 1.4688 0.53906 1.1992 0.91797 1.6211 1.1875 0.4375 1.7422 0.83203 1.7539 1.4023 1.6641 1.6602 1.2227 1.7539 0.61719 1.2266 0.83203 1.4219 0.76562 1.9922 0.76562 1.5078 0.375 0.94141 0.64062 0.96484 1.0039 0.24219 1.3672 0.50781 0.99219 0.58984 0.32812 0.94922 2.5039 1.8203 1.0156 0.63281 1.1914 0.21094 0.91797 0.83594 1.0312 0.52344 1.0703 1.0781 0.42578 1.4727 0.5625 1.0703 1.043 0.50391 1.3242 0.15234 1.7852 1.3086 1.2734 0.61328 1.1758 0.9375 0.9375 0.51953 1.1211-0.48828 1.043-0.29297 1.1836 0.35156 1.1641 0.42969 1.0781 0.65625 1.1797 0.10938 0.83984 0.77344 0.97656 0.51953 0.94922-1.9727 0.71875-1.0039 0.375-1.0977 0.74609-1.9102-0.03125-1.4922-0.14844-1.125 0.0625-1.2734-0.007813-1.1641 1.4961-2.3945 0.91406-0.50391h1.125l0.83984-0.64844 1.1133-1.6641 0.85156-0.83594 1.0625 0.10156 1.1055-0.097656 1.0234-0.23828 1.1016-0.80469-0.054688-1.6211 0.0625-1.0977 0.42188-0.91406 0.875-0.89453 0.64062-1.0312 0.52734-0.92969 0.82031-0.90234 0.86328-0.76172 0.90625-0.86328 1.0117-0.64062 1.125 0.011719 1.2852-0.0625 1.1133 0.25391 1.1719 0.41016 0.90234 0.79297 1.3789 1.1719 0.97266 0.58984 0.76953 0.84375 0.9375 0.63281 0.90625 0.85156 1.1953 0.027344 1.2422-0.125 1.0312-0.003906 1.0508 0.21484 0.75391-0.79688 0.039062-1.2539 0.75-1.0156 1.3477-0.53125 1.082-0.45312 0.9375-0.42969 1.1758-1.1641 1.0195-1.25 0.082032-1.1055 0.63281-0.99219-0.32031-1.0156 0.23438-1.0781 0.96094-0.68359 0.30469-1.0234 0.007812-1.0586 0.83594-0.65625 1.0977-0.82422 0.46094-0.90625 0.87891-0.48828 1.3477-1.6289 1.0273-1.7891 0.91406-1.0469 0.78906-0.87891 0.80078-0.63672z" fill="#ccc" fill-rule="evenodd"/>
<path d="m347.11 210.91 0.16797 0.11328 0.09375 1.3047 0.046875 1.1914 0.67188 1.0117 0.39062 1.0078 0.70703 0.92188 1.0586 0.24609 0.37891 0.96875 0.90625 1.3633 2.2461 3.0117-1.4609 1.2539-1.2891 6.3789-1.1367 4.7461-0.40234 1.0156-0.78125 4.3945-1.5195 6.0469-1.2812 5.2852-3.7422 6.5859-3.1875 5.4336-4.75 5.2695-9.2109 0.74609-2.5898 5.9141-1.0469 0.57812-1 0.42578-0.66797 1.3281-11.039-0.13672-4.3555 2.9219-4.0234 3.2695-3.2539 2.4648-2.5664 2.1094-1.0312-0.65234-0.78125-0.91406-1.125-0.44141-1.0742-0.28516-1.2344 0.47656-1.1445-0.17969-0.91406 0.63281-1.2344 0.83594-0.93359 0.41797-0.79297 0.97266-1.2969 0.4375-1.5039 0.26953-0.98438 0.26953-0.95312 0.39453-1.293 0.66016-1.0586 0.16016-1.3477 0.34375-1.3477 1.2422-0.84766 1.0312-1.1289 0.27344-1.1953-0.24609-1.3516 0.71484-1.4648 0.40234-1.4062 0.38281-1.0742 0.41406-0.89453 1.2266-0.82812 1.0078-0.51172 1.0469-0.011719 1.3672-0.53906 1.4023-0.5625 0.99219-0.28906 1.1328-0.40234 1.1289-0.23438 1.0195-0.94922 0.57812-1.2812 0.33203-1.6953 0.38672-1.3672 0.37109-1.1016 1.2812-1.9688 0.92578-1.1641 0.19922-1.2031-0.53906-0.22266 1.4336-1.6602 0.20703-0.99219-0.65625-0.46094-1.5078-1.125 0.24609-2.0117 0.57031-1.1719-0.65234-1.3047-0.50391-0.77344-0.64062 0.011718-1.4062-0.97266-0.54688-1.5625-0.085937-1.1133-0.38281-1.1211 0.28906-1.0781-0.09375-0.90234-0.69141-1.5703-0.83594-1.0586 0.30469-0.089844-1.3047-0.49609-1.6484-0.46094-1.6211-0.11328-1.0742-0.34766-1.0352 0.30078-1.6992 0.71094-1.4453v-1.6328l-0.36719-2.0898-0.11328-1.1445-0.18359-1.5391-1.2891 0.36719-1.0312 1.2383-0.4375 0.91797-0.32031 1.332-0.4375 1.2188-1.0117-0.046875-1.1953-0.39062-1.4648-0.48047-0.65234-1.1875-0.1875-1.082 0.42578-1.3906-0.33203-0.95703 0.20703-1.2773 0.32422-1.1133 0.046875-1.207 0.11719-1.6016 0.62109-1.0273 0.53516-1.2227 0.13281-1.2617-0.15625-1.2227 0.13281-1.3906 0.41797-1.0469 0.46484-0.91016-0.48828-1.4492 0.36328-1.0352 0.089844-1.0977 0.23828-1.1211 0.51562-0.98438 0.64062-1.043 0.55078-0.85156 0.89844-0.74609 0.84766-0.78516 0.79688-0.89453 0.40625-0.94922 0.44531-1.1484 0.41797-0.95703 0.61328-1.1992 0.37109-0.94141 0.45703-0.96484 1.0039-0.69922 0.32422-1.1523 0.78125-1.0117 0.89062-0.89844 0.52734-1.1016 0.83984-0.78906 0.96875-0.85156 1.2891-0.40625 1.0938-0.80469 0.67188-1.1641 0.33984-1.4492 0.082032-1.5-0.81641-0.73438-0.64844-0.89844-0.42578-0.91406-0.59766-1.0391 0.30469-1.0547 0.0625-1.3477 0.36328-1.3242 0.73828-1.5586 1.0938-0.55859 0.78125-0.80859 1.0117-0.47656 0.66797-0.79297 0.31641-0.96875 0.53906-1.1211 0.58594-1.1914 0.51562-0.87109 0.80859-1.0898 1.1211-0.57422 1.4023 0.48438 1.1328 0.097656 0.44141-1.0664 0.52734-0.98047 0.78125-0.97266 0.83594-0.76562 0.99219-0.28906-0.30469-1.6406-1.043-0.34375-0.9375-0.71875-0.070313-1.0664-0.66797-0.75-0.14844-1.0156 0.58984 1.0352 1.957 1.4688 0.53906 1.1992 0.91797 1.6211 1.1875 0.4375 1.7422 0.83203 1.7539 1.4023 1.6641 1.6602 1.2227 1.7539 0.61719 1.2266 0.83203 1.4219 0.76562 1.9922 0.76562 1.5078 0.375 0.94141 0.64062 0.96484 1.0039 0.24219 1.3672 0.50781 0.99219 0.58984 0.32812 0.94922 2.5039 1.8203 1.0156 0.63281 1.1914 0.21094 0.91797 0.83594 1.0312 0.52344 1.0703 1.0781 0.42578 1.4727 0.5625 1.0703 1.043 0.50391 1.3242 0.15234 1.7852 1.3086 1.2734 0.61328 1.1758 0.9375 0.9375 0.51953 1.1211-0.48828 1.043-0.29297 1.1836 0.35156 1.1641 0.42969 1.0781 0.65625 1.1797 0.10938 0.83984 0.77344 0.97656 0.51953 0.94922-1.9727 0.71875-1.0039 0.375-1.0977 0.74609-1.9102-0.03125-1.4922-0.14844-1.125 0.0625-1.2734-0.007813-1.1641 1.4961-2.3945 0.91406-0.50391h1.125l0.83984-0.64844 1.1133-1.6641 0.85156-0.83594 1.0625 0.10156 1.1055-0.097656 1.0234-0.23828 1.1016-0.80469-0.054688-1.6211 0.0625-1.0977 0.42188-0.91406 0.875-0.89453 0.64062-1.0312 0.52734-0.92969 0.82031-0.90234 0.86328-0.76172 0.90625-0.86328 1.0117-0.64062 1.125 0.011719 1.2852-0.0625 1.1133 0.25391 1.1719 0.41016 0.90234 0.79297 1.3789 1.1719 0.97266 0.58984 0.76953 0.84375 0.9375 0.63281 0.90625 0.85156 1.1953 0.027344 1.2422-0.125 1.0312-0.003906 1.0508 0.21484 0.75391-0.79688 0.039062-1.2539 0.75-1.0156 1.3477-0.53125 1.082-0.45312 0.9375-0.42969 1.1758-1.1641 1.0195-1.25 0.082032-1.1055 0.63281-0.99219-0.32031-1.0156 0.23438-1.0781 0.96094-0.68359 0.30469-1.0234 0.007812-1.0586 0.83594-0.65625 1.0977-0.82422 0.46094-0.90625 0.87891-0.48828 1.3477-1.6289 1.0273-1.7891 0.91406-1.0469 0.78906-0.87891 0.80078-0.63672 0.44141 0.019531" fill="none" stroke="#fff" stroke-linecap="round" stroke-linejoin="round" stroke-miterlimit="10" stroke-width="2"/>
<path d="m131.55 67.738 0.72266 0.57812 0.94141 0.37109 1.918 0.30078 2.8477 1.4883 1.0156 0.71484 1.0781 0.69141 1.0664 0.003906 1.2109 0.73047 1.1562 0.42578 1.0234-0.29297 1.0039 0.20312 1.0469 0.070313 1.5234 0.050781 1.6758 0.23438 1.1289 0.27344 0.85938-0.91797 1-0.72656 1.6133-0.54297 1.3828-0.23047 1.1523-0.039063 1.2852 0.10938 1.3008-0.14844 1.6367-0.078125 1.2188-0.25 0.60547 0.83984 0.90625 0.79688 1.293-0.17188 1.0156 0.21875 0.87109 0.78125 1.2344 0.95312 0.64062 0.80859 1.3594 1.4883 0.76172 0.77734 0.96484 0.5 1.1562 0.035156 1.3516 0.23047 0.91016 0.42578 0.85156 0.68359 0.5625 1.1797 0.41406 0.94922 0.70312 0.91797 0.51172 1.1016 0.47656 1.0195 0.37109 1.0039 0.32422 1.2773 0.17188 1.3906 0.67578 1.0234 0.42969 1.1562 0.35938 1.0703 0.38281 1.4062 0.76562 1.1758 0.054687 1.1992 0.81641 1.2266 0.96094 1.4375 0.97656 0.83594 0.64062 0.82422-0.039062 1.1094 0.80859 1.125 0.43359 1.0742 0.58984 1.6094 0.57422 1.2266 0.42969 0.96875 0.70703 1.2422 0.90234 1.3242 0.72656 0.76562 0.86719 0.65234 0.26953 1.3516-0.4375 1.082-0.50391 1.5898-0.33203 1.082 0.27344 1.2188 0.80859 0.64844-0.23828 1.8906 0.16797 1.4531-0.26172 1.1016 0.20703 1.082 0.73828 0.79297-0.58984 1.3555-0.027344 1.6758 0.34766 1.5859 0.14844 2.1133 0.37109 1.1055 0.25391 1.0352 0.94531 0.92188 1.0664 0.67578 0.89062 0.72266 1.0469 1.582 1.3711 1.6758 0.85547 1.0352 0.98047 1.4453 1.0742 1.1797 0.50391 0.91797 0.65234 0.96094 0.9375 1.082 0.30859 1.0625 0.55078 0.91016 0.14453 1.4531-0.16406 1.2227 0.30469 1.0391 0.76562 0.80078 0.42578 1.168 0.73828 0.94141 0.10156 1.0352 0.054687 1.0703 0.13281 1.0859-0.13672 1.1172 0.16797 2.1055-0.19141 0.98438 0.11719 1.1094-0.078125 1.0469 0.39453 1.0586 0.34375 1.2148 0.58594 1.3203-0.15625 1.0664 0.027344 1.2031-0.12891 1.1484 0.089844 1.0781-0.53516 0.88281-0.29297 1.082-0.17969 1.0898 0.63281 0.98828 0.55859 0.98438 0.65625 1.1289 0.30859 1.1719 0.23047 1.082 0.35547 1.4844 0.32031 0.99219 0.24219 1.3828 0.42188 1.0156 0.47266 0.94531-0.40625 0.97266 0.82031 0.94141-0.30078 0.98828-7.0391 3.3242-19.34 9.7344-9.5352 5.5078-14.535 13.27 1.043 0.69531 0.69531 0.89844-0.375 1.2773-1.3633 0.72266-1.0742 0.55078-0.55078 1.0156-0.19531 1.0352 0.27734 1.2695 0.40234 1.5078-0.61328 1.0898-0.6875 1.6758-0.8125 0.80859-1.4336 1.1992-1.1719 0.57031-0.80859 0.75-0.77734 1.3789-0.77734 1.1367-0.89844 0.89844-1.2305 0.66016-0.51172 1.2266-0.42578 1.125-1.0703 1.2266-0.94531 1.2617-0.875 1.2539-1.0469 0.73047-1.0234 0.75391-0.82031 1.3672-0.61719 0.92188-0.035156 1.3008-1.0586 1.5391-1.0586 1.1953-0.13672 1.0625-0.85938 1.0938-1.707 1.1641-1.0391 1.4531-0.97656 1.0078-0.44531 1.0586-0.89062 2.0859-1.1094 1.3945-1.2891 1.3438-1.0273 0.35938-1.0547 0.52344-0.83984 0.625-2.2617 1.4375-0.9375 0.45703-1.6562 0.87891-0.96484 0.79297-0.83594 0.67188-0.31641 1.082-1.2695 0.23828-0.94531 0.35547-0.89062 0.91016-0.58203 1.4961-0.19922 1.5352-1.1328-0.29297-0.95312-0.625-0.80078-0.70703-1.0273-0.38281-0.99609-0.90234-1.1523-0.035156-0.94531 0.38672-0.80859-0.85156-0.83984-0.78906-1.1328 0.12109-1.1172 0.085938-1.2422-0.41797-1.1523-0.14062-0.90625 0.67578-0.95312-0.54688-1.1133-0.42969-0.25781-1.0781 0.050781-1.0586 0.042969-1.4766-0.73828-0.76562-0.97266-0.44531-0.68359-0.83984-1-0.35938-0.89453-0.76953-1.2969 0.19922-1.0273-0.039063-0.26172-1.0977-0.78125-0.83594-1.2266-0.39844-1.0625-0.6875-1.3359-0.78516-1.6445-0.97266-1.5977-1.1992-1.1875-0.82422-0.91797-0.92578-0.83984-0.71875-1.0625-0.88672-0.87891-0.91016-2.0469-1.5664-1.2422-0.66406-1.6875-0.58203-1.0273 0.97266-1.1367-0.15234-1.4062-0.03125-0.94922-0.48438-0.80078-0.83594-0.99219-0.30859-1.082 0.20703-1.0547 0.16797-0.94922-0.42969-0.69531-0.78516-1.0938-0.76953-0.62109-0.94922-1.1367 0.003906-0.70312-0.91406-1.3125-1.1719-1.3672-0.085938-0.49609-1.2812-0.58203-1.2695-0.089843-1.1016-0.58984-0.88672-0.59766-0.80859-0.94922-0.78125-0.1875-1.0078-1.1562-1.0078-1.1289-0.35938-1.0078-0.42578-1.0352-0.23047-1.1953-0.078125-0.63672 0.85938-1.082 0.23828-0.99609-0.39844-0.81641-1.0664-1.1914 0.29688-0.64062-1.0312-1.2266-0.035157-1.0898 0.46484-1.0195-0.30859-1.0117-0.64453-0.94922-0.57422-0.95703-0.40234-0.28125-1.0156-0.74219-0.82422-0.96484-0.58203-0.63281-0.84375-0.95703-0.61719-1.5664-0.79688-1.7344 0.042969-1.1758-0.14062-1.2188 0.42969-0.94531 0.68359-0.54297 0.92578 0.65625 1.0352-0.96094 0.51953-0.40234 1.1016-0.47656 1.0156-1.0547-0.38672-1.1367 0.19531-1.0859 0.23828-1.1484 0.23828 0.050781-1.0391-0.91016-0.69531-1.1758-0.6875-1.2734-0.41406-1.3594-0.50781-1.0117 0.59766-0.55078 0.89453-1.0547-0.26172-0.96094-0.35938-0.84766 0.76172-0.92188-0.47266-1.0273 0.097656-0.03125-1.4648 0.046875-1.6641-0.99609-0.59766-1.1602-0.35156-1.0977-0.015625-1.082 0.25781-0.74609-0.91406-1.1953 0.62109-1.1211 0.039062-1.0195 0.29688-0.92969 0.43359-1.0352 0.12891-0.92969 0.60156-1.1367 0.58984-0.90625 0.53516 0.56641-0.83594 1.207-1.0469 0.75391-0.81641 0.46094-0.89844 0.39844-0.98047 0.10156-1.4805 0.44141-1.0977 0.24219-1.082-0.44141-1.1406 0.57422-1.0586 0.83203-0.80859 0.32422-1.1367 1.0195-1.0742 0.74609-1.3984 0.90625-0.67188 1.4453-0.53516 1.293-0.69531 1.8242-0.97656 1.2812-0.625 1.2617-0.03125 1.4883-0.30469 1.0117-0.38281 0.73438-0.80078 0.69531-1.0703 1.4297-0.19141 1.293-0.61328 0.60156-1 0.51562-1.2773 0.23828-1.1758 0.38672-1.5781 0.23047-1.4258 0.0625-1.4141-0.12891-1.2539 0.30078-1.1406 0.67578-1.1875 0.84766-1.1133 0.57422-0.99219 0.33594-1.0508 0.0625-1.3867 0.36719-1.2891 0.1875-1.5625-0.32422-1.5547-0.066406-1.1641 1.0156-0.41797 1.0312-0.082032 0.46875-1.0508 0.19922-1.2812 1.3477-0.39844 0.5-0.86719-0.23438-1.168-0.14844-1.332 0.53125-0.92969 0.93359-0.58594 1.3984 0.28516 1.2148 0.066407 1.918-0.44922 1.082-0.46484 1.0977-0.70312 0.96484-0.53125 1.0352-0.80078 0.011719-1.0938v-1.2461l-0.39062-1.5547 0.082031-1.3203-0.039063-1.6328v-1.2461l-0.36328-1.9688-0.28125-1.8984-0.23828-1.5508-0.25-1.207-0.48047-1.2227-0.18359-1.3008 0.09375-1.0781-0.49219-1.0195 0.035156-1.4844 0.09375-2.1094 0.42188-0.98828-0.089844-1.5547 1.9531-0.22656 1.8984 0.66016 1.3008 0.93359 0.64062 1.3203 0.79297 1.375 1.168 0.90625 1.1953 0.41016 1.3672 0.55859 1.2539 0.62109 0.94141 0.52344 1.3672 0.19922 1.0078 0.13672 1.625-0.17578 1.1211-0.60938 1.2852-0.44531 0.96484-0.79297 0.58594-0.91406 1.2461 0.070313 1.3438 0.39844 1.4219-0.085937 1.1328 0.15625 1.6797 0.1875 1.3125 0.085937 1.0195 0.054688 0.88281-0.60547 0.60547-0.89844 1.5117-1 0.97266-0.91406 0.72656-0.84375 0.76172-1.0352 0.64453-1.2227 0.75781-1.1602 0.70703-0.90234 0.91406-0.56641 0.77734-1.1289 0.18359-0.98438 0.42969-0.96094 0.82422-1.418 1.0234-0.55859 1.3398-0.59766 2.4922-1.1016 0.99609-0.5625 0.69531-1.125 1.4766-1.3125 0.90625-0.45703 0.88672-0.53516 1.582-0.53906 2.4922-0.1875 3.4961-0.14062 1.4883-0.41406 1.4961-0.875 1.6016-0.61719 1.5898-0.51562 1.4922-0.46094 2.0195-0.76172-0.027344-1.0117-0.32031-1.2852 0.87109-1.3672 0.86328-1.3047 0.57422-0.98438 0.12891-1.3047 0.125-1.4023 0.066406-1.0977-0.085938-1.2148 0.097657-1.4023-0.46875-1.0859 0.082031-1.2539 0.34766-0.96875 1.0078-0.59375 0.48828-0.95703-0.027344-1.4414 0.63281-0.87109 0.050781-1.0703 0.46875-0.9375 0.55859-1.3242 0.36328-1.8945 0.3125-1.082 0.45703-1.0977 1.3555-0.77344 0.99219-0.89844 0.41797-1.5469-0.57422-0.875 0.42578-0.9375 0.019531-1.3398 1-0.95703 0.62891-0.83984 0.89453-0.875 0.51953-0.92578 0.90234-0.60938 0.12109-1.0703-0.44922-1.1992 0.10938-1.043 0.64844-1.1484-0.19141-1.5352 0.26172-2.0117 0.71484-1.0352 0.81641-0.85547 0.76172-1.1758 0.23047-1.0938 0.55469-1.0391 0.44531-0.95703 0.58203-0.95703 0.77344-0.80859 0.93359-1.1992 0.4375-0.98828-0.13672-1.4492 0.61719-1.1914 0.20312-1.0039 0.52344-0.95312 0.98047-1.1016 1.1797-1.1211 0.40625-1.0742 0.71094-1.3008z" fill="#ccc" fill-rule="evenodd"/>
<path d="m131.55 67.738 0.72266 0.57812 0.94141 0.37109 1.918 0.30078 2.8477 1.4883 1.0156 0.71484 1.0781 0.69141 1.0664 0.003906 1.2109 0.73047 1.1562 0.42578 1.0234-0.29297 1.0039 0.20312 1.0469 0.070313 1.5234 0.050781 1.6758 0.23438 1.1289 0.27344 0.85938-0.91797 1-0.72656 1.6133-0.54297 1.3828-0.23047 1.1523-0.039063 1.2852 0.10938 1.3008-0.14844 1.6367-0.078125 1.2188-0.25 0.60547 0.83984 0.90625 0.79688 1.293-0.17188 1.0156 0.21875 0.87109 0.78125 1.2344 0.95312 0.64062 0.80859 1.3594 1.4883 0.76172 0.77734 0.96484 0.5 1.1562 0.035156 1.3516 0.23047 0.91016 0.42578 0.85156 0.68359 0.5625 1.1797 0.41406 0.94922 0.70312 0.91797 0.51172 1.1016 0.47656 1.0195 0.37109 1.0039 0.32422 1.2773 0.17188 1.3906 0.67578 1.0234 0.42969 1.1562 0.35938 1.0703 0.38281 1.4062 0.76562 1.1758 0.054687 1.1992 0.81641 1.2266 0.96094 1.4375 0.97656 0.83594 0.64062 0.82422-0.039062 1.1094 0.80859 1.125 0.43359 1.0742 0.58984 1.6094 0.57422 1.2266 0.42969 0.96875 0.70703 1.2422 0.90234 1.3242 0.72656 0.76562 0.86719 0.65234 0.26953 1.3516-0.4375 1.082-0.50391 1.5898-0.33203 1.082 0.27344 1.2188 0.80859 0.64844-0.23828 1.8906 0.16797 1.4531-0.26172 1.1016 0.20703 1.082 0.73828 0.79297-0.58984 1.3555-0.027344 1.6758 0.34766 1.5859 0.14844 2.1133 0.37109 1.1055 0.25391 1.0352 0.94531 0.92188 1.0664 0.67578 0.89062 0.72266 1.0469 1.582 1.3711 1.6758 0.85547 1.0352 0.98047 1.4453 1.0742 1.1797 0.50391 0.91797 0.65234 0.96094 0.9375 1.082 0.30859 1.0625 0.55078 0.91016 0.14453 1.4531-0.16406 1.2227 0.30469 1.0391 0.76562 0.80078 0.42578 1.168 0.73828 0.94141 0.10156 1.0352 0.054687 1.0703 0.13281 1.0859-0.13672 1.1172 0.16797 2.1055-0.19141 0.98438 0.11719 1.1094-0.078125 1.0469 0.39453 1.0586 0.34375 1.2148 0.58594 1.3203-0.15625 1.0664 0.027344 1.2031-0.12891 1.1484 0.089844 1.0781-0.53516 0.88281-0.29297 1.082-0.17969 1.0898 0.63281 0.98828 0.55859 0.98438 0.65625 1.1289 0.30859 1.1719 0.23047 1.082 0.35547 1.4844 0.32031 0.99219 0.24219 1.3828 0.42188 1.0156 0.47266 0.94531-0.40625 0.97266 0.82031 0.94141-0.30078 0.98828-7.0391 3.3242-19.34 9.7344-9.5352 5.5078-14.535 13.27 1.043 0.69531 0.69531 0.89844-0.375 1.2773-1.3633 0.72266-1.0742 0.55078-0.55078 1.0156-0.19531 1.0352 0.27734 1.2695 0.40234 1.5078-0.61328 1.0898-0.6875 1.6758-0.8125 0.80859-1.4336 1.1992-1.1719 0.57031-0.80859 0.75-0.77734 1.3789-0.77734 1.1367-0.89844 0.89844-1.2305 0.66016-0.51172 1.2266-0.42578 1.125-1.0703 1.2266-0.94531 1.2617-0.875 1.2539-1.0469 0.73047-1.0234 0.75391-0.82031 1.3672-0.61719 0.92188-0.035156 1.3008-1.0586 1.5391-1.0586 1.1953-0.13672 1.0625-0.85938 1.0938-1.707 1.1641-1.0391 1.4531-0.97656 1.0078-0.44531 1.0586-0.89062 2.0859-1.1094 1.3945-1.2891 1.3438-1.0273 0.35938-1.0547 0.52344-0.83984 0.625-2.2617 1.4375-0.9375 0.45703-1.6562 0.87891-0.96484 0.79297-0.83594 0.67188-0.31641 1.082-1.2695 0.23828-0.94531 0.35547-0.89062 0.91016-0.58203 1.4961-0.19922 1.5352-1.1328-0.29297-0.95312-0.625-0.80078-0.70703-1.0273-0.38281-0.99609-0.90234-1.1523-0.035156-0.94531 0.38672-0.80859-0.85156-0.83984-0.78906-1.1328 0.12109-1.1172 0.085938-1.2422-0.41797-1.1523-0.14062-0.90625 0.67578-0.95312-0.54688-1.1133-0.42969-0.25781-1.0781 0.050781-1.0586 0.042969-1.4766-0.73828-0.76562-0.97266-0.44531-0.68359-0.83984-1-0.35938-0.89453-0.76953-1.2969 0.19922-1.0273-0.039063-0.26172-1.0977-0.78125-0.83594-1.2266-0.39844-1.0625-0.6875-1.3359-0.78516-1.6445-0.97266-1.5977-1.1992-1.1875-0.82422-0.91797-0.92578-0.83984-0.71875-1.0625-0.88672-0.87891-0.91016-2.0469-1.5664-1.2422-0.66406-1.6875-0.58203-1.0273 0.97266-1.1367-0.15234-1.4062-0.03125-0.94922-0.48438-0.80078-0.83594-0.99219-0.30859-1.082 0.20703-1.0547 0.16797-0.94922-0.42969-0.69531-0.78516-1.0938-0.76953-0.62109-0.94922-1.1367 0.003906-0.70312-0.91406-1.3125-1.1719-1.3672-0.085938-0.49609-1.2812-0.58203-1.2695-0.089843-1.1016-0.58984-0.88672-0.59766-0.80859-0.94922-0.78125-0.1875-1.0078-1.1562-1.0078-1.1289-0.35938-1.0078-0.42578-1.0352-0.23047-1.1953-0.078125-0.63672 0.85938-1.082 0.23828-0.99609-0.39844-0.81641-1.0664-1.1914 0.29688-0.64062-1.0312-1.2266-0.035157-1.0898 0.46484-1.0195-0.30859-1.0117-0.64453-0.94922-0.57422-0.95703-0.40234-0.28125-1.0156-0.74219-0.82422-0.96484-0.58203-0.63281-0.84375-0.95703-0.61719-1.5664-0.79688-1.7344 0.042969-1.1758-0.14062-1.2188 0.42969-0.94531 0.68359-0.54297 0.92578 0.65625 1.0352-0.96094 0.51953-0.40234 1.1016-0.47656 1.0156-1.0547-0.38672-1.1367 0.19531-1.0859 0.23828-1.1484 0.23828 0.050781-1.0391-0.91016-0.69531-1.1758-0.6875-1.2734-0.41406-1.3594-0.50781-1.0117 0.59766-0.55078 0.89453-1.0547-0.26172-0.96094-0.35938-0.84766 0.76172-0.92188-0.47266-1.0273 0.097656-0.03125-1.4648 0.046875-1.6641-0.99609-0.59766-1.1602-0.35156-1.0977-0.015625-1.082 0.25781-0.74609-0.91406-1.1953 0.62109-1.1211 0.039062-1.0195 0.29688-0.92969 0.43359-1.0352 0.12891-0.92969 0.60156-1.1367 0.58984-0.90625 0.53516 0.56641-0.83594 1.207-1.0469 0.75391-0.81641 0.46094-0.89844 0.39844-0.98047 0.10156-1.4805 0.44141-1.0977 0.24219-1.082-0.44141-1.1406 0.57422-1.0586 0.83203-0.80859 0.32422-1.1367 1.0195-1.0742 0.74609-1.3984 0.90625-0.67188 1.4453-0.53516 1.293-0.69531 1.8242-0.97656 1.2812-0.625 1.2617-0.03125 1.4883-0.30469 1.0117-0.38281 0.73438-0.80078 0.69531-1.0703 1.4297-0.19141 1.293-0.61328 0.60156-1 0.51562-1.2773 0.23828-1.1758 0.38672-1.5781 0.23047-1.4258 0.0625-1.4141-0.12891-1.2539 0.30078-1.1406 0.67578-1.1875 0.84766-1.1133 0.57422-0.99219 0.33594-1.0508 0.0625-1.3867 0.36719-1.2891 0.1875-1.5625-0.32422-1.5547-0.066406-1.1641 1.0156-0.41797 1.0312-0.082032 0.46875-1.0508 0.19922-1.2812 1.3477-0.39844 0.5-0.86719-0.23438-1.168-0.14844-1.332 0.53125-0.92969 0.93359-0.58594 1.3984 0.28516 1.2148 0.066407 1.918-0.44922 1.082-0.46484 1.0977-0.70312 0.96484-0.53125 1.0352-0.80078 0.011719-1.0938v-1.2461l-0.39062-1.5547 0.082031-1.3203-0.039063-1.6328v-1.2461l-0.36328-1.9688-0.28125-1.8984-0.23828-1.5508-0.25-1.207-0.48047-1.2227-0.18359-1.3008 0.09375-1.0781-0.49219-1.0195 0.035156-1.4844 0.09375-2.1094 0.42188-0.98828-0.089844-1.5547 1.9531-0.22656 1.8984 0.66016 1.3008 0.93359 0.64062 1.3203 0.79297 1.375 1.168 0.90625 1.1953 0.41016 1.3672 0.55859 1.2539 0.62109 0.94141 0.52344 1.3672 0.19922 1.0078 0.13672 1.625-0.17578 1.1211-0.60938 1.2852-0.44531 0.96484-0.79297 0.58594-0.91406 1.2461 0.070313 1.3438 0.39844 1.4219-0.085937 1.1328 0.15625 1.6797 0.1875 1.3125 0.085937 1.0195 0.054688 0.88281-0.60547 0.60547-0.89844 1.5117-1 0.97266-0.91406 0.72656-0.84375 0.76172-1.0352 0.64453-1.2227 0.75781-1.1602 0.70703-0.90234 0.91406-0.56641 0.77734-1.1289 0.18359-0.98438 0.42969-0.96094 0.82422-1.418 1.0234-0.55859 1.3398-0.59766 2.4922-1.1016 0.99609-0.5625 0.69531-1.125 1.4766-1.3125 0.90625-0.45703 0.88672-0.53516 1.582-0.53906 2.4922-0.1875 3.4961-0.14062 1.4883-0.41406 1.4961-0.875 1.6016-0.61719 1.5898-0.51562 1.4922-0.46094 2.0195-0.76172-0.027344-1.0117-0.32031-1.2852 0.87109-1.3672 0.86328-1.3047 0.57422-0.98438 0.12891-1.3047 0.125-1.4023 0.066406-1.0977-0.085938-1.2148 0.097657-1.4023-0.46875-1.0859 0.082031-1.2539 0.34766-0.96875 1.0078-0.59375 0.48828-0.95703-0.027344-1.4414 0.63281-0.87109 0.050781-1.0703 0.46875-0.9375 0.55859-1.3242 0.36328-1.8945 0.3125-1.082 0.45703-1.0977 1.3555-0.77344 0.99219-0.89844 0.41797-1.5469-0.57422-0.875 0.42578-0.9375 0.019531-1.3398 1-0.95703 0.62891-0.83984 0.89453-0.875 0.51953-0.92578 0.90234-0.60938 0.12109-1.0703-0.44922-1.1992 0.10938-1.043 0.64844-1.1484-0.19141-1.5352 0.26172-2.0117 0.71484-1.0352 0.81641-0.85547 0.76172-1.1758 0.23047-1.0938 0.55469-1.0391 0.44531-0.95703 0.58203-0.95703 0.77344-0.80859 0.93359-1.1992 0.4375-0.98828-0.13672-1.4492 0.61719-1.1914 0.20312-1.0039 0.52344-0.95312 0.98047-1.1016 1.1797-1.1211 0.40625-1.0742 0.71094-1.3008 0.6875-0.60156" fill="none" stroke="#fff" stroke-linecap="round" stroke-linejoin="round" stroke-miterlimit="10" stroke-width="2"/>
<path d="m468.38 255.4 0.12109 0.80469-0.027344 2.1914 1.2344 0.14844-0.28125 1.2109-0.54297 1.1172-0.38281 1.4727 0.62891 1.3281 0.90234 0.88281-0.77734 2.5039-0.29688 1.418-0.94141 1.5195-1.4219 1.625-1.4375 1.2266-1.0586 0.79297-0.86328 1.4805-0.14062 1.2109-0.86719 2.3242-1.168 1.4727-0.54297 0.96875-0.85938 1-3.3398 4.4375-0.70312 0.78516-1.6367 2.3945-2.0078 2.582-0.74609 1.8906-0.91406 2.8086-0.74609 1.4922-2.0078 2.1797-0.86328 1.2617-1.5469 2.3516-1.6055 1.7773-0.75391 0.88281-1.4102 1.1875-0.78125 1.043-0.71484 1.3984-0.58984 1.0352-0.73047 1.1445-0.69922 1.0938-0.6875 0.94922-0.96875 0.55859-0.0625 1.5039-0.45703 0.96484-0.97266 0.75781-0.76172 1.1016-0.48047 1.0625-0.34375 1.0898-0.54297 1.8477-0.15234 1.0664 0.34766 1.3008-0.29688 1.5586-0.1875 1.418-0.011719 1.0352 0.070312 1.3438 0.85156 2.0078 1.0859 2.2852 0.65625 0.97656 0.69922 1.5469 0.67578 1.0586 1.125 0.22266 0.71875 0.73047 1.168 0.011719 1.3281 0.36328 1.25 0.58984 0.72266 1 0.94531 0.84375 1.1719 0.54688 0.95703 0.38672 1.4336 0.29297 1.1992 0.066406 1.1172-0.23047 1.3008-0.53125 1.1758-0.03125 1.2461-0.13672 1.2305-0.21484 1.125 0.36328 1.1992 0.92578 0.60547 1.0195 1.3555 1.5703 1.6523 0.91797 1.3594 0.24609 1.4766 0.91406 1.2734 1.2266 0.86719 0.71484 1.0273 0.71484 1.1406 0.20312 1.1172 0.10938 1.2188 0.11328 0.58984 1.4766-0.17188 1.6719-0.78125 1.3672 0.042968 1.4102 0.94141 1.418 1.4688 0.90234 1.7695 0.50781 1.5195 0.042969 1.0195 0.070312 1.3281 0.48438 0.85547 0.60547 1.1055 0.6875 0.46875 1.1719 0.92188 0.90625 1.125 0.21484 0.58984 0.95312 0.59375 1.3477 0.25391 1.3281 0.80078 1.0234 0.25781 1.2969 1.4453 0.51953 0.96094 0.40234 0.50391 0.90234 0.52734 0.89844 1.2969 0.82031 0.89062 0.75 1.0391 1.1797 1.7109 0.26562 1.1328-0.023438 1.1172-0.082031 1.1992-0.20312 0.83594 0.79688 0.19531 1.1133-0.32812 1.0078 0.14453 1.0586 1.1055 0.69922 0.69922 0.91797-0.45312 1.0195-0.46875 0.91016-0.81641 1.0859-0.22266 1.0664-0.47656 1.1016 0.16797 1.1797-0.69531 0.89453-0.97266 0.80469-0.45312 0.96094-1.0078 1.1562-1.3633 0.96484-0.66797 1.0664-0.83203 1.0898-1.1641 1.0938-0.93359 1.1797-0.66797 0.875-1.1055-0.20703-1.1836 0.0625-1.1406 0.37109-0.94531 0.625-1.0664 0.035156-0.95312-1.043-1.1328-0.10938-0.90625 0.60156-1.1758 0.37891-1.2422 0.30859-1.2617-0.19531-0.64844-1.1445-1.0938 0.027344-0.75 0.99219-0.99219 0.32031-0.90625 0.61328-1.4844 0.046875-1.3281-0.19531-1.1758 0.42969-1.0195 0.035157-1.0312-0.011719-0.64844 1.0547-1.0781 0.56641-0.88672 0.77344-0.78516 0.63672-0.71094 0.87109 0.0625 1.1172 0.61328 1.25 0.67188 0.89453 0.74219 0.71094-1.3164 0.25781-1.1758 0.78516-0.96875 1.1172-0.46484 1.082 0.027344 1.1445-0.38281 1.1016-0.92969 0.93359-0.19922 1.1328 1.1289 0.50781 1.3164 0.011719 1.3125 0.65625 1.5352 0.28516 1.207 0.070312 1.0234 0.42578 0.80859 1.3086 0.75391 0.73828 1.2227-0.19922 1.2383-0.34375 1.082 0.14062 1.2969 0.55078 1.1016 0.35547 1.332-0.050781 0.99219 0.35547 1.2109 0.65625 1.6523 0.24219 1.7539 0.46484 1.5547 1.0898 0.84375 0.79688 0.65625 1.1211 0.26562 1.0156 1.2617 0.67969 0.97656 0.33203 0.78516 1.2656 0.34375 1.0469 0.64062 1.043 0.97656 0.41016 0.89844 0.51172 0.65234 0.88281 0.88281 0.58984 0.25 1.1484-0.007812 1.2812-0.79297 1.0625-1.1289 0.9375-1 0.34375-0.75 0.79297-2.6836 0.34375-1.1836 0.26562-0.75391 0.75-0.70703 0.72266-0.47656 1.1328-0.36328 1.1836-0.88281 0.98438-1.0977 1.2188-0.98828 0.90625-0.15625 1.25-0.30469 1.0977 0.38281 1.3203-0.03125 1.0977-0.80469 0.6875-0.76953 0.88281-0.86719 0.78516-0.59766 0.87891-1 0.23828-0.71094 0.88672-0.96094-0.40625-1.0273-0.10547-1.0469 0.48438 0.48438-1.0195-0.74609-0.74609-0.54297-0.94141-1.1641-0.20312-0.70703-0.71875 0.40234-1.1875-0.12891-1.1992-0.78906 0.89453-0.96875-0.25-0.60547-1.2539 0.26172-1.1016-1.1094-1.0391-0.78125-0.65625-0.64453-0.83594-1.25 0.039063-0.99609-0.42969-1.0547-0.21484-0.87891-0.58594-0.95703-0.50391-1.0312-0.30859-0.58203-1-0.59766 1-0.86328 0.73828-0.97656 0.28516-0.91406-0.5625-0.95312-0.82812-1.1836-0.67969 0.18359-1.1328-1.0078 0.003906-0.26953-1.0977-0.91406-0.71484-1.1055-0.78125-0.96484-0.41797-1.0195-0.33203-0.92969 0.51953-1.0078-0.039062-0.14062-1.0234-0.92969 0.41016-1.168 0.44922-0.94922-0.40625-0.95312-0.58594-1.1094-0.48438-0.87109-0.875-0.70312-0.79297-0.52344-1.0742-0.99609-0.125-0.34375-1.0273-1.0273 0.69141-1.418-0.53516-1.0664-0.18359-0.17969 1.0234-1.1602-0.17969-0.60938-1.2031-0.32422-1.1797-0.44141-0.97266-0.44531-0.91797 0.36719-1.0938 0.70703-0.76172-0.085938-1.0156-1.4453-0.36328-0.50781-1.0547-0.22656-1.2305-0.51172-1.0547-0.19922-1.0781-0.003906-1.1641 0.52734-0.90625 1.0195-0.50391 1.4727 0.074218-1.4492-0.75391-0.03125-1.0391 1.0117-0.015625-0.90234-0.54688-0.84766-0.95312-0.039062-1.2188-0.67578-0.78125 1.2227-0.25781-0.92188-0.57812 0.23438-1.0039-1.0078 0.29297-1.2031-0.16797-0.75391-0.83984-0.70312-0.75391 0.03125-1.1445-1.0273 0.22656-0.19141-1.0273-1.1055-0.60938-1.1523-0.49219-0.57812-0.86719 0.71875-0.80469-0.12109-1.0156-0.45312-0.91797-0.83203-1.0156-1.3711 0.007813-0.90234-0.51953-1.1406-0.0625-1.0234 0.27734-0.98047-0.32031-0.68359-0.94141-0.40625-1.1641 0.66406-0.78125-1.1602-0.15234-0.83594-0.57812 0.86328-0.57422 0.30078-0.98047-1.043-0.23438-0.33203-1.1797-1.0312-0.27734-0.33594-1.3867-0.73047 0.74219-0.9375-0.60547-1.2188-0.53125 1.0078-0.10547-0.86328-0.66406-0.98828-0.4375-0.69141-0.77344-0.13281-1.1016-0.44141-1.0234-1.3906-0.15625-0.82031-0.6875-0.21484-1.1172-1.168-0.17578-0.73828-0.68359-0.90234-0.92969-0.94531-0.55859-0.98828-0.82422-1.0742 0.25-1.043 0.25391-1.2695-0.15625-0.73047-0.75 0.089843-1.0234 0.60156-0.80859 0.066406-1.0117-0.96094-0.44141-0.79688 0.88672-0.98828 0.66797-1.0352-0.019532-0.69531-0.82031-0.75-0.74609-0.97266-0.78906-1.082 0.29297-0.97266 0.24609-1.1719-0.066406-1.043 0.46094-0.94922-0.34375-0.84766-0.73047-0.35938-0.94141-0.72656-0.88672-0.16016-1.2812-0.29297-1.0234-0.83984-1.1211-1.2148-0.55078-1.4023-0.09375-1.0391 0.48047-0.25-1.0352-0.88672-0.66406-0.38281-1.0273-0.39453-1.2383-1.0352-1.0664-0.91797-0.80469-1.1953-0.69531-1.2031-0.71094-1.332-0.49219-0.12109-1.0859-1.1602 0.53125-0.49609-0.95703-0.17969-1.0234-0.94141-0.64062-1.2188-0.64062-0.98047-0.21094-0.70703-0.80469 0.51562-0.95312-0.80078-0.69922-1.1562-0.51953-1.1016 0.22266-1.0156-0.066406-0.5625-0.96094-1.1289-0.46875-1.3984-0.14453-1.957-0.5625-1.2422-0.12109-1.8672-0.41797-1.4609-0.39453-1.2773-0.36328-1.5664-0.51172-0.98828-0.38672-0.98438-0.19531-2.2617-0.70703-1.9141-0.50391-1.2695-0.097656-1.3867-0.23047-1.25-0.4375-1.2969-0.34766-1.7734-0.54297-0.98828-0.21875-1.457-0.47656-1.1875-0.29297-1.3203-0.28906-1.2305-0.375-1.6641-0.51953-1.0312-0.26953-1.957-0.35547-1.4492-0.54688-2.0703-0.41016-1.1602-0.22656-1.4727-0.17578-1.2383-0.36328-1.3477-0.25781-1.2734-0.35938-1.0938 0.089843-1.0625-0.039062-1.0117-0.27344-0.98438 0.17969-1.2734-0.46484-0.96484-0.51562-1.043-0.16016-1.0078-0.48438-1.3047-0.23828-1.5703-0.40234-1.4648-0.4375-1.4805-0.16016-2.8828-0.53125-1.457-0.30469-1.2227-0.27734-1.2656-0.18359-0.55469-1.0312-0.76953-0.67188-0.54688-1.0859 0.17578-1.1406 0.44922-1.1484-0.25-1.3164-0.58594-0.83984-0.72266-1.2539-0.78906-1.3242-0.34766-1.4688-0.015625-1.1367 0.011718-1.4805-0.12891-1.1367 0.51172-1.8555 0.47656-1.0039 0.085938-1.4609-0.40234-1.2148 0.30859-1.0508-0.20703-1.0078-0.35938-1.543 0.19531-1.2227 0.10938-1.2969-0.48828-0.90625 0.13672-1 1.0391-0.74219 0.71094-0.76562 1.1055-1.457 0.53125-0.92188 0.54297-1.1875 0.5-1.2773-0.042969-1.0039-0.21484-0.97656 0.30859-1.5234 0.20703-1.918 0.80859-1.0898 1.0234-1.0117 0.9375-0.6875 0.33984-1.1055 1.0664-1.3047 0.99609-0.66797 1.0469-0.73047 1.4219 0.10156 0.60938-0.80078 0.75391-1.4922 0.73828-1.9688 0.23828-1.6719 0.22266 1.0898 0.30859 1.6523 0.25 1.2812 0.44531 2.4766 0.40234 1.4609 1.4648 0.22266 1.5273 0.36328 1.0469 0.75 1.2656 0.44531 0.98438-0.20703 0.33594 1.3203 0.29297 1.2656 0.26562 1.2695 1.1797 0.48438 0.97656-0.40234 1.8945-1.0156 0.75-1.1289 1.1484-1.0859 1.1875-0.42188 1.1367-0.22266 2.2461 0.48047 0.99609 0.23828 1.6133 0.23828 1.4727-0.28516 1.1211 0.20703 0.94922-0.66406 0.28516 1.2656-0.0625 1.0273 0.46875 1.0273 0.48047 0.91797 0.75391 0.73047 0.97656-0.43359 1.0508-1.3984 1.2734-0.5 2.2969 0.67578 1.8984 0.074219 1.9492-0.058594 1.0234 0.015625 0.63672-1.1523 0.19531-2.0625 0.23828-1.2227 0.65234-0.92969 1.0156-0.58594 1.2383-0.13672 1.2812 0.74219 0.27344 1.625 1.0586 0.83203 1.125 0.11328 1.3555-0.25 1.4609-0.33594 1.8242-0.60938 1.4453-0.22656 1.3242-0.19922 1.6484-0.78906 1.2617-1.1953 1.1719 0.96875 0.41797 1.4688 0.26953 1.0391 0.40234 1.9648 0.17578 1.1719-0.23047 1.0977-0.55859 1.3477-0.34766 1.4062-0.78906 1.5977-0.32422 1.2109 0.44141 1.8672 0.71094 1.7305 0.55469 1.3203 1.3828 0.16016 0.92188-0.44141 1.207-0.76562 1.1094 0.49219 1.0234 1.2227 0.64844 0.94531 0.92578 0.85156 1.2422 0.62891 1.8516-0.10156 1.2305-0.35547 1.5625 0.21094 1.1328 0.24609 1.0977-0.27344 1.2812-0.67578 1.6367-0.34766 1.1094 0.1875 0.49219 0.92578 0.24219 1.125 0.70312 1 1.3281-0.50781 1.1562 0.19141 0.83984 0.66797 1.3984 0.050781 2.1328-0.41016 1.0859-0.48828 1.6445-0.22266 1.3125-0.26172 1.9062-0.85938 0.47656-0.87891 1.2617-1.2031 0.47656-1.0117 0.67188-0.89453 0.15625-1.0586 0.47656-0.94141 0.77344-0.78516 1.0352-0.34766 1.3906-0.30078 1.5078-0.011719 0.89844 0.44922 1.3125 0.32812 1.6484 0.33203 1.0859 0.47656 0.97266 0.50391 1.5938-0.24219 1.3516-0.125 1.1016-0.16797 1.0078 1.0312 0.84766 1.168 0.10156 1.1445v1.6445l0.11328 1 1.1445 0.42188 1.2656-0.29297 0.73828-0.92578 0.58203-0.99609 0.066407-1.0547-0.089844-1.0508 0.37109-1.3203 0.88281-0.55078 1.1016-0.84375 0.70312-1.7891 0.38281-1.2812 1.6484-0.31641 7.3164 1.1523 14.062-21.559 0.71875-1.0742 6.3047 0.35547 0.80469-0.69922 0.95312-0.81641 1.0195-0.63672 0.91406-0.76172 0.10547-1.3945 0.375-0.96094 0.98828-0.45312 0.64062-0.80469 1.1914-0.31641 0.52344-0.94922 0.23828-1.0234 1.2188-0.43359-0.10938-1.0859 0.82031-0.65625 0.47656-0.92188 0.29688-1-0.28516-1.0742 0.82422-0.69141 1.2383-0.55859 0.11328-1 0.80469-0.66797 1 0.125 0.71484-0.71094 0.36719-1.1016 0.74219-0.73438-0.007813-1.0469 0.82031-0.57031 0.27344-10.449z" fill="#ccc" fill-rule="evenodd"/>
<path d="m468.38 255.4 0.12109 0.80469-0.027344 2.1914 1.2344 0.14844-0.28125 1.2109-0.54297 1.1172-0.38281 1.4727 0.62891 1.3281 0.90234 0.88281-0.77734 2.5039-0.29688 1.418-0.94141 1.5195-1.4219 1.625-1.4375 1.2266-1.0586 0.79297-0.86328 1.4805-0.14062 1.2109-0.86719 2.3242-1.168 1.4727-0.54297 0.96875-0.85938 1-3.3398 4.4375-0.70312 0.78516-1.6367 2.3945-2.0078 2.582-0.74609 1.8906-0.91406 2.8086-0.74609 1.4922-2.0078 2.1797-0.86328 1.2617-1.5469 2.3516-1.6055 1.7773-0.75391 0.88281-1.4102 1.1875-0.78125 1.043-0.71484 1.3984-0.58984 1.0352-0.73047 1.1445-0.69922 1.0938-0.6875 0.94922-0.96875 0.55859-0.0625 1.5039-0.45703 0.96484-0.97266 0.75781-0.76172 1.1016-0.48047 1.0625-0.34375 1.0898-0.54297 1.8477-0.15234 1.0664 0.34766 1.3008-0.29688 1.5586-0.1875 1.418-0.011719 1.0352 0.070312 1.3438 0.85156 2.0078 1.0859 2.2852 0.65625 0.97656 0.69922 1.5469 0.67578 1.0586 1.125 0.22266 0.71875 0.73047 1.168 0.011719 1.3281 0.36328 1.25 0.58984 0.72266 1 0.94531 0.84375 1.1719 0.54688 0.95703 0.38672 1.4336 0.29297 1.1992 0.066406 1.1172-0.23047 1.3008-0.53125 1.1758-0.03125 1.2461-0.13672 1.2305-0.21484 1.125 0.36328 1.1992 0.92578 0.60547 1.0195 1.3555 1.5703 1.6523 0.91797 1.3594 0.24609 1.4766 0.91406 1.2734 1.2266 0.86719 0.71484 1.0273 0.71484 1.1406 0.20312 1.1172 0.10938 1.2188 0.11328 0.58984 1.4766-0.17188 1.6719-0.78125 1.3672 0.042968 1.4102 0.94141 1.418 1.4688 0.90234 1.7695 0.50781 1.5195 0.042969 1.0195 0.070312 1.3281 0.48438 0.85547 0.60547 1.1055 0.6875 0.46875 1.1719 0.92188 0.90625 1.125 0.21484 0.58984 0.95312 0.59375 1.3477 0.25391 1.3281 0.80078 1.0234 0.25781 1.2969 1.4453 0.51953 0.96094 0.40234 0.50391 0.90234 0.52734 0.89844 1.2969 0.82031 0.89062 0.75 1.0391 1.1797 1.7109 0.26562 1.1328-0.023438 1.1172-0.082031 1.1992-0.20312 0.83594 0.79688 0.19531 1.1133-0.32812 1.0078 0.14453 1.0586 1.1055 0.69922 0.69922 0.91797-0.45312 1.0195-0.46875 0.91016-0.81641 1.0859-0.22266 1.0664-0.47656 1.1016 0.16797 1.1797-0.69531 0.89453-0.97266 0.80469-0.45312 0.96094-1.0078 1.1562-1.3633 0.96484-0.66797 1.0664-0.83203 1.0898-1.1641 1.0938-0.93359 1.1797-0.66797 0.875-1.1055-0.20703-1.1836 0.0625-1.1406 0.37109-0.94531 0.625-1.0664 0.035156-0.95312-1.043-1.1328-0.10938-0.90625 0.60156-1.1758 0.37891-1.2422 0.30859-1.2617-0.19531-0.64844-1.1445-1.0938 0.027344-0.75 0.99219-0.99219 0.32031-0.90625 0.61328-1.4844 0.046875-1.3281-0.19531-1.1758 0.42969-1.0195 0.035157-1.0312-0.011719-0.64844 1.0547-1.0781 0.56641-0.88672 0.77344-0.78516 0.63672-0.71094 0.87109 0.0625 1.1172 0.61328 1.25 0.67188 0.89453 0.74219 0.71094-1.3164 0.25781-1.1758 0.78516-0.96875 1.1172-0.46484 1.082 0.027344 1.1445-0.38281 1.1016-0.92969 0.93359-0.19922 1.1328 1.1289 0.50781 1.3164 0.011719 1.3125 0.65625 1.5352 0.28516 1.207 0.070312 1.0234 0.42578 0.80859 1.3086 0.75391 0.73828 1.2227-0.19922 1.2383-0.34375 1.082 0.14062 1.2969 0.55078 1.1016 0.35547 1.332-0.050781 0.99219 0.35547 1.2109 0.65625 1.6523 0.24219 1.7539 0.46484 1.5547 1.0898 0.84375 0.79688 0.65625 1.1211 0.26562 1.0156 1.2617 0.67969 0.97656 0.33203 0.78516 1.2656 0.34375 1.0469 0.64062 1.043 0.97656 0.41016 0.89844 0.51172 0.65234 0.88281 0.88281 0.58984 0.25 1.1484-0.007812 1.2812-0.79297 1.0625-1.1289 0.9375-1 0.34375-0.75 0.79297-2.6836 0.34375-1.1836 0.26562-0.75391 0.75-0.70703 0.72266-0.47656 1.1328-0.36328 1.1836-0.88281 0.98438-1.0977 1.2188-0.98828 0.90625-0.15625 1.25-0.30469 1.0977 0.38281 1.3203-0.03125 1.0977-0.80469 0.6875-0.76953 0.88281-0.86719 0.78516-0.59766 0.87891-1 0.23828-0.71094 0.88672-0.96094-0.40625-1.0273-0.10547-1.0469 0.48438 0.48438-1.0195-0.74609-0.74609-0.54297-0.94141-1.1641-0.20312-0.70703-0.71875 0.40234-1.1875-0.12891-1.1992-0.78906 0.89453-0.96875-0.25-0.60547-1.2539 0.26172-1.1016-1.1094-1.0391-0.78125-0.65625-0.64453-0.83594-1.25 0.039063-0.99609-0.42969-1.0547-0.21484-0.87891-0.58594-0.95703-0.50391-1.0312-0.30859-0.58203-1-0.59766 1-0.86328 0.73828-0.97656 0.28516-0.91406-0.5625-0.95312-0.82812-1.1836-0.67969 0.18359-1.1328-1.0078 0.003906-0.26953-1.0977-0.91406-0.71484-1.1055-0.78125-0.96484-0.41797-1.0195-0.33203-0.92969 0.51953-1.0078-0.039062-0.14062-1.0234-0.92969 0.41016-1.168 0.44922-0.94922-0.40625-0.95312-0.58594-1.1094-0.48438-0.87109-0.875-0.70312-0.79297-0.52344-1.0742-0.99609-0.125-0.34375-1.0273-1.0273 0.69141-1.418-0.53516-1.0664-0.18359-0.17969 1.0234-1.1602-0.17969-0.60938-1.2031-0.32422-1.1797-0.44141-0.97266-0.44531-0.91797 0.36719-1.0938 0.70703-0.76172-0.085938-1.0156-1.4453-0.36328-0.50781-1.0547-0.22656-1.2305-0.51172-1.0547-0.19922-1.0781-0.003906-1.1641 0.52734-0.90625 1.0195-0.50391 1.4727 0.074218-1.4492-0.75391-0.03125-1.0391 1.0117-0.015625-0.90234-0.54688-0.84766-0.95312-0.039062-1.2188-0.67578-0.78125 1.2227-0.25781-0.92188-0.57812 0.23438-1.0039-1.0078 0.29297-1.2031-0.16797-0.75391-0.83984-0.70312-0.75391 0.03125-1.1445-1.0273 0.22656-0.19141-1.0273-1.1055-0.60938-1.1523-0.49219-0.57812-0.86719 0.71875-0.80469-0.12109-1.0156-0.45312-0.91797-0.83203-1.0156-1.3711 0.007813-0.90234-0.51953-1.1406-0.0625-1.0234 0.27734-0.98047-0.32031-0.68359-0.94141-0.40625-1.1641 0.66406-0.78125-1.1602-0.15234-0.83594-0.57812 0.86328-0.57422 0.30078-0.98047-1.043-0.23438-0.33203-1.1797-1.0312-0.27734-0.33594-1.3867-0.73047 0.74219-0.9375-0.60547-1.2188-0.53125 1.0078-0.10547-0.86328-0.66406-0.98828-0.4375-0.69141-0.77344-0.13281-1.1016-0.44141-1.0234-1.3906-0.15625-0.82031-0.6875-0.21484-1.1172-1.168-0.17578-0.73828-0.68359-0.90234-0.92969-0.94531-0.55859-0.98828-0.82422-1.0742 0.25-1.043 0.25391-1.2695-0.15625-0.73047-0.75 0.089843-1.0234 0.60156-0.80859 0.066406-1.0117-0.96094-0.44141-0.79688 0.88672-0.98828 0.66797-1.0352-0.019532-0.69531-0.82031-0.75-0.74609-0.97266-0.78906-1.082 0.29297-0.97266 0.24609-1.1719-0.066406-1.043 0.46094-0.94922-0.34375-0.84766-0.73047-0.35938-0.94141-0.72656-0.88672-0.16016-1.2812-0.29297-1.0234-0.83984-1.1211-1.2148-0.55078-1.4023-0.09375-1.0391 0.48047-0.25-1.0352-0.88672-0.66406-0.38281-1.0273-0.39453-1.2383-1.0352-1.0664-0.91797-0.80469-1.1953-0.69531-1.2031-0.71094-1.332-0.49219-0.12109-1.0859-1.1602 0.53125-0.49609-0.95703-0.17969-1.0234-0.94141-0.64062-1.2188-0.64062-0.98047-0.21094-0.70703-0.80469 0.51562-0.95312-0.80078-0.69922-1.1562-0.51953-1.1016 0.22266-1.0156-0.066406-0.5625-0.96094-1.1289-0.46875-1.3984-0.14453-1.957-0.5625-1.2422-0.12109-1.8672-0.41797-1.4609-0.39453-1.2773-0.36328-1.5664-0.51172-0.98828-0.38672-0.98438-0.19531-2.2617-0.70703-1.9141-0.50391-1.2695-0.097656-1.3867-0.23047-1.25-0.4375-1.2969-0.34766-1.7734-0.54297-0.98828-0.21875-1.457-0.47656-1.1875-0.29297-1.3203-0.28906-1.2305-0.375-1.6641-0.51953-1.0312-0.26953-1.957-0.35547-1.4492-0.54688-2.0703-0.41016-1.1602-0.22656-1.4727-0.17578-1.2383-0.36328-1.3477-0.25781-1.2734-0.35938-1.0938 0.089843-1.0625-0.039062-1.0117-0.27344-0.98438 0.17969-1.2734-0.46484-0.96484-0.51562-1.043-0.16016-1.0078-0.48438-1.3047-0.23828-1.5703-0.40234-1.4648-0.4375-1.4805-0.16016-2.8828-0.53125-1.457-0.30469-1.2227-0.27734-1.2656-0.18359-0.55469-1.0312-0.76953-0.67188-0.54688-1.0859 0.17578-1.1406 0.44922-1.1484-0.25-1.3164-0.58594-0.83984-0.72266-1.2539-0.78906-1.3242-0.34766-1.4688-0.015625-1.1367 0.011718-1.4805-0.12891-1.1367 0.51172-1.8555 0.47656-1.0039 0.085938-1.4609-0.40234-1.2148 0.30859-1.0508-0.20703-1.0078-0.35938-1.543 0.19531-1.2227 0.10938-1.2969-0.48828-0.90625 0.13672-1 1.0391-0.74219 0.71094-0.76562 1.1055-1.457 0.53125-0.92188 0.54297-1.1875 0.5-1.2773-0.042969-1.0039-0.21484-0.97656 0.30859-1.5234 0.20703-1.918 0.80859-1.0898 1.0234-1.0117 0.9375-0.6875 0.33984-1.1055 1.0664-1.3047 0.99609-0.66797 1.0469-0.73047 1.4219 0.10156 0.60938-0.80078 0.75391-1.4922 0.73828-1.9688 0.23828-1.6719 0.22266 1.0898 0.30859 1.6523 0.25 1.2812 0.44531 2.4766 0.40234 1.4609 1.4648 0.22266 1.5273 0.36328 1.0469 0.75 1.2656 0.44531 0.98438-0.20703 0.33594 1.3203 0.29297 1.2656 0.26562 1.2695 1.1797 0.48438 0.97656-0.40234 1.8945-1.0156 0.75-1.1289 1.1484-1.0859 1.1875-0.42188 1.1367-0.22266 2.2461 0.48047 0.99609 0.23828 1.6133 0.23828 1.4727-0.28516 1.1211 0.20703 0.94922-0.66406 0.28516 1.2656-0.0625 1.0273 0.46875 1.0273 0.48047 0.91797 0.75391 0.73047 0.97656-0.43359 1.0508-1.3984 1.2734-0.5 2.2969 0.67578 1.8984 0.074219 1.9492-0.058594 1.0234 0.015625 0.63672-1.1523 0.19531-2.0625 0.23828-1.2227 0.65234-0.92969 1.0156-0.58594 1.2383-0.13672 1.2812 0.74219 0.27344 1.625 1.0586 0.83203 1.125 0.11328 1.3555-0.25 1.4609-0.33594 1.8242-0.60938 1.4453-0.22656 1.3242-0.19922 1.6484-0.78906 1.2617-1.1953 1.1719 0.96875 0.41797 1.4688 0.26953 1.0391 0.40234 1.9648 0.17578 1.1719-0.23047 1.0977-0.55859 1.3477-0.34766 1.4062-0.78906 1.5977-0.32422 1.2109 0.44141 1.8672 0.71094 1.7305 0.55469 1.3203 1.3828 0.16016 0.92188-0.44141 1.207-0.76562 1.1094 0.49219 1.0234 1.2227 0.64844 0.94531 0.92578 0.85156 1.2422 0.62891 1.8516-0.10156 1.2305-0.35547 1.5625 0.21094 1.1328 0.24609 1.0977-0.27344 1.2812-0.67578 1.6367-0.34766 1.1094 0.1875 0.49219 0.92578 0.24219 1.125 0.70312 1 1.3281-0.50781 1.1562 0.19141 0.83984 0.66797 1.3984 0.050781 2.1328-0.41016 1.0859-0.48828 1.6445-0.22266 1.3125-0.26172 1.9062-0.85938 0.47656-0.87891 1.2617-1.2031 0.47656-1.0117 0.67188-0.89453 0.15625-1.0586 0.47656-0.94141 0.77344-0.78516 1.0352-0.34766 1.3906-0.30078 1.5078-0.011719 0.89844 0.44922 1.3125 0.32812 1.6484 0.33203 1.0859 0.47656 0.97266 0.50391 1.5938-0.24219 1.3516-0.125 1.1016-0.16797 1.0078 1.0312 0.84766 1.168 0.10156 1.1445v1.6445l0.11328 1 1.1445 0.42188 1.2656-0.29297 0.73828-0.92578 0.58203-0.99609 0.066407-1.0547-0.089844-1.0508 0.37109-1.3203 0.88281-0.55078 1.1016-0.84375 0.70312-1.7891 0.38281-1.2812 1.6484-0.31641 7.3164 1.1523 14.062-21.559 0.71875-1.0742 6.3047 0.35547 0.80469-0.69922 0.95312-0.81641 1.0195-0.63672 0.91406-0.76172 0.10547-1.3945 0.375-0.96094 0.98828-0.45312 0.64062-0.80469 1.1914-0.31641 0.52344-0.94922 0.23828-1.0234 1.2188-0.43359-0.10938-1.0859 0.82031-0.65625 0.47656-0.92188 0.29688-1-0.28516-1.0742 0.82422-0.69141 1.2383-0.55859 0.11328-1 0.80469-0.66797 1 0.125 0.71484-0.71094 0.36719-1.1016 0.74219-0.73438-0.007813-1.0469 0.82031-0.57031 0.27344-10.449 0.29297-0.027343" fill="none" stroke="#fff" stroke-linecap="round" stroke-linejoin="round" stroke-miterlimit="10" stroke-width="2"/>
<path d="m290.91 285.87 0.62109 0.20312 1.125 0.44141 0.78125 0.91406 1.0312 0.65234 1.3867 0.62109 1.9375 0.70312 1.6719 0.69922 1.2695 0.10156 1.4062-0.53125-0.23828 1.6719-0.38672 1.168-0.84766 1.7344-0.54688 1.0234-1.0078 0.41797-1.0781-0.097656-0.88672 0.84766-1.6406 1.293-0.36719 1.1406-1.1484 1.1289-0.83203 0.82031-0.85938 1.0039-0.13672 1.5039-0.28516 1.4336-0.17969 1.2305 0.22266 1.082-0.29297 1.3203-0.55469 1-0.44141 0.9375-0.81641 1.3789-0.84766 0.76562-0.66797 0.86328-1.0938 0.77734 0.45312 1.332 0.28125 1.1094-0.38281 1.1133 0.046875 1.3555 0.44141 1.3672-0.19531 1.1094 0.32812 1.6133-0.035156 1.2734-0.52734 1.1914-0.45703 1.0508-0.085938 1.2344 0.21484 1.1953-0.14453 1.3594 0.32422 1.5234 0.46484 1.6875 1.0352 1.3281 0.65234 1.043 0.38672 0.94141-0.24219 1.0547-0.40234 1.0898 0.09375 1.2812 0.86719 0.72656 0.78125 0.89844-1.4531 0.26172-1.6133-0.27734-1.168-0.10547-1.4141-0.29297-1.3906-0.11719-2.4141-0.20703-1.9062 0.066406-1.2734-0.1875-1.4805-0.19141-1.5469-0.30859-1.6719-0.26562-2.582-0.13281-1.3672 0.039062-1.0898-0.15234-1.5742-0.003906-2.3438-0.45703-1.332-0.34766-1.293-0.089844-1.6719-0.19141-1.625-0.21094-1.3086-0.43359-1.2656-0.027343-2.4023-0.22266-1.7695-0.27344 0.085937-1.1523 0.11328-1.543 0.25-1.0938 0.11719-1.1992-0.050781-1.6953 0.25391-1.0117 0.46094-1.1836 0.44531-1.0352 0.023438-1.0859-0.11719-1.1406 0.042969-1.1484-0.31641-1.7656-0.074219-1.5352-1.4141-0.35938-1.0508 0.26562 0.32422-1.6797-1 0.19531-1.1055-0.007812-2.0117 0.26172 0.32422-1.2812 0.76562-0.76172 0.20312-1.1016-0.42578-2.1523-0.089844-1.0156 0.90234-0.77734-0.13281-1.1641 1.7266-1.0625 0.12109-1.1406 1.1562 0.52734 1.6367-0.13281 1.25-0.45703 1.2578-1.0312 0.96484-0.84375 2.0781-0.4375 1.1055-0.35938 1.3906-0.44141 0.55078-1.3242 0.40234-1.1289 0.28906-1.1328 0.5625-0.99219 0.53906-1.4023 0.011719-1.3672 0.51172-1.0469 0.82812-1.0078 0.70312-1.0195 1.2656-0.62109 1.4062-0.38281 1.4648-0.40234 0.94922-0.64453 1.5977 0.17578 1.1289-0.27344 0.84766-1.0312 0.92578-0.76562 0.89844-0.60938 1.9297-0.37109 0.89844-0.5 1.3477-0.55469 0.98438-0.26953 1.1289-0.20703 1.0742-0.19922 1.0898-0.93359 1.2344-0.75781 0.875-0.59375 0.95312-0.71875 1.1445 0.011718 1.0039-0.41797z" fill="#ccc" fill-rule="evenodd"/>
<path d="m290.91 285.87 0.62109 0.20312 1.125 0.44141 0.78125 0.91406 1.0312 0.65234 1.3867 0.62109 1.9375 0.70312 1.6719 0.69922 1.2695 0.10156 1.4062-0.53125-0.23828 1.6719-0.38672 1.168-0.84766 1.7344-0.54688 1.0234-1.0078 0.41797-1.0781-0.097656-0.88672 0.84766-1.6406 1.293-0.36719 1.1406-1.1484 1.1289-0.83203 0.82031-0.85938 1.0039-0.13672 1.5039-0.28516 1.4336-0.17969 1.2305 0.22266 1.082-0.29297 1.3203-0.55469 1-0.44141 0.9375-0.81641 1.3789-0.84766 0.76562-0.66797 0.86328-1.0938 0.77734 0.45312 1.332 0.28125 1.1094-0.38281 1.1133 0.046875 1.3555 0.44141 1.3672-0.19531 1.1094 0.32812 1.6133-0.035156 1.2734-0.52734 1.1914-0.45703 1.0508-0.085938 1.2344 0.21484 1.1953-0.14453 1.3594 0.32422 1.5234 0.46484 1.6875 1.0352 1.3281 0.65234 1.043 0.38672 0.94141-0.24219 1.0547-0.40234 1.0898 0.09375 1.2812 0.86719 0.72656 0.78125 0.89844-1.4531 0.26172-1.6133-0.27734-1.168-0.10547-1.4141-0.29297-1.3906-0.11719-2.4141-0.20703-1.9062 0.066406-1.2734-0.1875-1.4805-0.19141-1.5469-0.30859-1.6719-0.26562-2.582-0.13281-1.3672 0.039062-1.0898-0.15234-1.5742-0.003906-2.3438-0.45703-1.332-0.34766-1.293-0.089844-1.6719-0.19141-1.625-0.21094-1.3086-0.43359-1.2656-0.027343-2.4023-0.22266-1.7695-0.27344 0.085937-1.1523 0.11328-1.543 0.25-1.0938 0.11719-1.1992-0.050781-1.6953 0.25391-1.0117 0.46094-1.1836 0.44531-1.0352 0.023438-1.0859-0.11719-1.1406 0.042969-1.1484-0.31641-1.7656-0.074219-1.5352-1.4141-0.35938-1.0508 0.26562 0.32422-1.6797-1 0.19531-1.1055-0.007812-2.0117 0.26172 0.32422-1.2812 0.76562-0.76172 0.20312-1.1016-0.42578-2.1523-0.089844-1.0156 0.90234-0.77734-0.13281-1.1641 1.7266-1.0625 0.12109-1.1406 1.1562 0.52734 1.6367-0.13281 1.25-0.45703 1.2578-1.0312 0.96484-0.84375 2.0781-0.4375 1.1055-0.35938 1.3906-0.44141 0.55078-1.3242 0.40234-1.1289 0.28906-1.1328 0.5625-0.99219 0.53906-1.4023 0.011719-1.3672 0.51172-1.0469 0.82812-1.0078 0.70312-1.0195 1.2656-0.62109 1.4062-0.38281 1.4648-0.40234 0.94922-0.64453 1.5977 0.17578 1.1289-0.27344 0.84766-1.0312 0.92578-0.76562 0.89844-0.60938 1.9297-0.37109 0.89844-0.5 1.3477-0.55469 0.98438-0.26953 1.1289-0.20703 1.0742-0.19922 1.0898-0.93359 1.2344-0.75781 0.875-0.59375 0.95312-0.71875 1.1445 0.011718 1.0039-0.41797 1.0039 0.035156" fill="none" stroke="#fff" stroke-linecap="round" stroke-linejoin="round" stroke-miterlimit="10" stroke-width="2"/>
<path d="m468.38 255.4 0.12109 0.80469-0.027344 2.1914 1.2344 0.14844-0.28125 1.2109-0.54297 1.1172-0.38281 1.4727 0.62891 1.3281 0.90234 0.88281-0.77734 2.5039-0.29688 1.418-0.94141 1.5195-1.4219 1.625-1.4375 1.2266-1.0586 0.79297-0.86328 1.4805-0.14062 1.2109-0.86719 2.3242-1.168 1.4727-0.54297 0.96875-0.85938 1-3.3398 4.4375-0.70312 0.78516-1.6367 2.3945-2.0078 2.582-0.74609 1.8906-0.91406 2.8086-0.74609 1.4922-2.0078 2.1797-0.86328 1.2617-1.5469 2.3516-1.6055 1.7773-0.75391 0.88281-1.4102 1.1875-0.78125 1.043-0.71484 1.3984-0.58984 1.0352-0.73047 1.1445-0.69922 1.0938-0.6875 0.94922-0.96875 0.55859-0.0625 1.5039-0.45703 0.96484-0.97266 0.75781-0.76172 1.1016-0.48047 1.0625-0.34375 1.0898-0.54297 1.8477-0.15234 1.0664 0.34766 1.3008-0.29688 1.5586-0.1875 1.418-0.011719 1.0352 0.070312 1.3438 0.85156 2.0078 1.0859 2.2852 0.65625 0.97656 0.69922 1.5469 0.67578 1.0586 1.125 0.22266 0.71875 0.73047 1.168 0.011719 1.3281 0.36328 1.25 0.58984 0.72266 1 0.94531 0.84375 1.1719 0.54688 0.95703 0.38672 1.4336 0.29297 1.1992 0.066406 1.1172-0.23047 1.3008-0.53125 1.1758-0.03125 1.2461-0.13672 1.2305-0.21484 1.125 0.36328 1.1992 0.92578 0.60547 1.0195 1.3555 1.5703 1.6523 0.91797 1.3594 0.24609 1.4766 0.91406 1.2734 1.2266 0.86719 0.71484 1.0273 0.71484 1.1406 0.20312 1.1172 0.10938 1.2188 0.11328 0.58984 1.4766-0.17188 1.6719-0.78125 1.3672 0.042968 1.4102 0.94141 1.418 1.4688 0.90234 1.7695 0.50781 1.5195 0.042969 1.0195 0.070312 1.3281 0.48438 0.85547 0.60547 1.1055 0.6875 0.46875 1.1719 0.92188 0.90625 1.125 0.21484 0.58984 0.95312 0.59375 1.3477 0.25391 1.3281 0.80078 1.0234 0.25781 1.2969 1.4453 0.51953 0.96094 0.40234 0.50391 0.90234 0.52734 0.89844 1.2969 0.82031 0.89062 0.75 1.0391 1.1797 1.7109 0.26562 1.1328-0.023438 1.1172-0.082031 1.1992-0.20312 0.83594 0.79688 0.19531 1.1133-0.32812 1.0078 0.14453 1.0586 1.1055 0.69922 0.69922 0.91797-0.45312 1.0195-0.46875 0.91016-0.81641 1.0859-0.22266 1.0664-0.47656 1.1016 0.16797 1.1797-0.69531 0.89453-0.97266 0.80469-0.45312 0.96094-1.0078 1.1562-1.3633 0.96484-0.66797 1.0664-0.83203 1.0898-1.1641 1.0938-0.93359 1.1797-0.66797 0.875-1.1055-0.20703-1.1836 0.0625-1.1406 0.37109-0.94531 0.625-1.0664 0.035156-0.95312-1.043-1.1328-0.10938-0.90625 0.60156-1.1758 0.37891-1.2422 0.30859-1.2617-0.19531-0.64844-1.1445-1.0938 0.027344-0.75 0.99219-0.99219 0.32031-0.90625 0.61328-1.4844 0.046875-1.3281-0.19531-1.1758 0.42969-1.0195 0.035157-1.0312-0.011719-0.64844 1.0547-1.0781 0.56641-0.88672 0.77344-0.78516 0.63672-0.71094 0.87109 0.0625 1.1172 0.61328 1.25 0.67188 0.89453 0.74219 0.71094-1.3164 0.25781-1.1758 0.78516-0.96875 1.1172-0.46484 1.082 0.027344 1.1445-0.38281 1.1016-0.92969 0.93359-0.19922 1.1328 1.1289 0.50781 1.3164 0.011719 1.3125 0.65625 1.5352 0.28516 1.207 0.070312 1.0234 0.42578 0.80859 1.3086 0.75391 0.73828 1.2227-0.19922 1.2383-0.34375 1.082 0.14062 1.2969 0.55078 1.1016 0.35547 1.332-0.050781 0.99219 0.35547 1.2109 0.65625 1.6523 0.24219 1.7539 0.46484 1.5547 1.0898 0.84375 0.79688 0.65625 1.1211 0.26562 1.0156 1.2617 0.67969 0.97656 0.33203 0.78516 1.2656 0.34375 1.0469 0.64062 1.043 0.97656 0.41016 0.89844 0.51172 0.65234 0.88281 0.88281 0.58984 0.25 1.1484-0.007812 1.2812-0.79297 1.0625-1.1289 0.9375-1 0.34375-0.75 0.79297-2.6836 0.34375-1.1836 0.26562-0.75391 0.75-0.70703 0.72266-0.47656 1.1328-0.36328 1.1836-0.88281 0.98438-1.0977 1.2188-0.98828 0.90625-0.15625 1.25-0.30469 1.0977 0.38281 1.3203-0.03125 1.0977-0.80469 0.6875-0.76953 0.88281-0.86719 0.78516-0.59766 0.87891-1 0.23828-0.71094 0.88672-0.96094-0.40625-1.0273-0.10547-1.0469 0.48438 0.48438-1.0195-0.74609-0.74609-0.54297-0.94141-1.1641-0.20312-0.70703-0.71875 0.40234-1.1875-0.12891-1.1992-0.78906 0.89453-0.96875-0.25-0.60547-1.2539 0.26172-1.1016-1.1094-1.0391-0.78125-0.65625-0.64453-0.83594-1.25 0.039063-0.99609-0.42969-1.0547-0.21484-0.87891-0.58594-0.95703-0.50391-1.0312-0.30859-0.58203-1-0.59766 1-0.86328 0.73828-0.97656 0.28516-0.91406-0.5625-0.95312-0.82812-1.1836-0.67969 0.18359-1.1328-1.0078 0.003906-0.26953-1.0977-0.91406-0.71484-1.1055-0.78125-0.96484-0.41797-1.0195-0.33203-0.92969 0.51953-1.0078-0.039062-0.14062-1.0234-0.92969 0.41016-1.168 0.44922-0.94922-0.40625-0.95312-0.58594-1.1094-0.48438-0.87109-0.875-0.70312-0.79297-0.52344-1.0742-0.99609-0.125-0.34375-1.0273-1.0273 0.69141-1.418-0.53516-1.0664-0.18359-0.17969 1.0234-1.1602-0.17969-0.60938-1.2031-0.32422-1.1797-0.44141-0.97266-0.44531-0.91797 0.36719-1.0938 0.70703-0.76172-0.085938-1.0156-1.4453-0.36328-0.50781-1.0547-0.22656-1.2305-0.51172-1.0547-0.19922-1.0781-0.003906-1.1641 0.52734-0.90625 1.0195-0.50391 1.4727 0.074218-1.4492-0.75391-0.03125-1.0391 1.0117-0.015625-0.90234-0.54688-0.84766-0.95312-0.039062-1.2188-0.67578-0.78125 1.2227-0.25781-0.92188-0.57812 0.23438-1.0039-1.0078 0.29297-1.2031-0.16797-0.75391-0.83984-0.70312-0.75391 0.03125-1.1445-1.0273 0.22656-0.19141-1.0273-1.1055-0.60938-1.1523-0.49219-0.57812-0.86719 0.71875-0.80469-0.12109-1.0156-0.45312-0.91797-0.83203-1.0156-1.3711 0.007813-0.90234-0.51953-1.1406-0.0625-1.0234 0.27734-0.98047-0.32031-0.68359-0.94141-0.40625-1.1641 0.66406-0.78125-1.1602-0.15234-0.83594-0.57812 0.86328-0.57422 0.30078-0.98047-1.043-0.23438-0.33203-1.1797-1.0312-0.27734-0.33594-1.3867-0.73047 0.74219-0.9375-0.60547-1.2188-0.53125 1.0078-0.10547-0.86328-0.66406-0.98828-0.4375-0.69141-0.77344-0.13281-1.1016-0.44141-1.0234-1.3906-0.15625-0.82031-0.6875-0.21484-1.1172-1.168-0.17578-0.73828-0.68359-0.90234-0.92969-0.94531-0.55859-0.98828-0.82422-1.0742 0.25-1.043 0.25391-1.2695-0.15625-0.73047-0.75 0.089843-1.0234 0.60156-0.80859 0.066406-1.0117-0.96094-0.44141-0.79688 0.88672-0.98828 0.66797-1.0352-0.019532-0.69531-0.82031-0.75-0.74609-0.97266-0.78906-1.082 0.29297-0.97266 0.24609-1.1719-0.066406-1.043 0.46094-0.94922-0.34375-0.84766-0.73047-0.35938-0.94141-0.72656-0.88672-0.16016-1.2812-0.29297-1.0234-0.83984-1.1211-1.2148-0.55078-1.4023-0.09375-1.0391 0.48047-0.25-1.0352-0.88672-0.66406-0.38281-1.0273-0.39453-1.2383-1.0352-1.0664-0.91797-0.80469-1.1953-0.69531-1.2031-0.71094-1.332-0.49219-0.12109-1.0859-1.1602 0.53125-0.49609-0.95703-0.17969-1.0234-0.94141-0.64062-1.2188-0.64062-0.98047-0.21094-0.70703-0.80469 0.51562-0.95312-0.80078-0.69922-1.1562-0.51953-1.1016 0.22266-1.0156-0.066406-0.5625-0.96094-1.1289-0.46875-1.3984-0.14453-1.957-0.5625-1.2422-0.12109-1.8672-0.41797-1.4609-0.39453-1.2773-0.36328-1.5664-0.51172-0.98828-0.38672-0.98438-0.19531-2.2617-0.70703-1.9141-0.50391-1.2695-0.097656-1.3867-0.23047-1.25-0.4375-1.2969-0.34766-1.7734-0.54297-0.98828-0.21875-1.457-0.47656-1.1875-0.29297-1.3203-0.28906-1.2305-0.375-1.6641-0.51953-1.0312-0.26953-1.957-0.35547-1.4492-0.54688-2.0703-0.41016-1.1602-0.22656-1.4727-0.17578-1.2383-0.36328-1.3477-0.25781-1.2734-0.35938-1.0938 0.089843-1.0625-0.039062-1.0117-0.27344-0.98438 0.17969-1.2734-0.46484-0.96484-0.51562-1.043-0.16016-1.0078-0.48438-1.3047-0.23828-1.5703-0.40234-1.4648-0.4375-1.4805-0.16016-2.8828-0.53125-1.457-0.30469-1.2227-0.27734-1.2656-0.18359-0.55469-1.0312-0.76953-0.67188-0.54688-1.0859 0.17578-1.1406 0.44922-1.1484-0.25-1.3164-0.58594-0.83984-0.72266-1.2539-0.78906-1.3242-0.34766-1.4688-0.015625-1.1367 0.011718-1.4805-0.12891-1.1367 0.51172-1.8555 0.47656-1.0039 0.085938-1.4609-0.40234-1.2148 0.30859-1.0508-0.20703-1.0078-0.35938-1.543 0.19531-1.2227 0.10938-1.2969-0.48828-0.90625 0.13672-1 1.0391-0.74219 0.71094-0.76562 1.1055-1.457 0.53125-0.92188 0.54297-1.1875 0.5-1.2773-0.042969-1.0039-0.21484-0.97656 0.30859-1.5234 0.20703-1.918 0.80859-1.0898 1.0234-1.0117 0.9375-0.6875 0.33984-1.1055 1.0664-1.3047 0.99609-0.66797 1.0469-0.73047 1.4219 0.10156 0.60938-0.80078 0.75391-1.4922 0.73828-1.9688 0.23828-1.6719 0.22266 1.0898 0.30859 1.6523 0.25 1.2812 0.44531 2.4766 0.40234 1.4609 1.4648 0.22266 1.5273 0.36328 1.0469 0.75 1.2656 0.44531 0.98438-0.20703 0.33594 1.3203 0.29297 1.2656 0.26562 1.2695 1.1797 0.48438 0.97656-0.40234 1.8945-1.0156 0.75-1.1289 1.1484-1.0859 1.1875-0.42188 1.1367-0.22266 2.2461 0.48047 0.99609 0.23828 1.6133 0.23828 1.4727-0.28516 1.1211 0.20703 0.94922-0.66406 0.28516 1.2656-0.0625 1.0273 0.46875 1.0273 0.48047 0.91797 0.75391 0.73047 0.97656-0.43359 1.0508-1.3984 1.2734-0.5 2.2969 0.67578 1.8984 0.074219 1.9492-0.058594 1.0234 0.015625 0.63672-1.1523 0.19531-2.0625 0.23828-1.2227 0.65234-0.92969 1.0156-0.58594 1.2383-0.13672 1.2812 0.74219 0.27344 1.625 1.0586 0.83203 1.125 0.11328 1.3555-0.25 1.4609-0.33594 1.8242-0.60938 1.4453-0.22656 1.3242-0.19922 1.6484-0.78906 1.2617-1.1953 1.1719 0.96875 0.41797 1.4688 0.26953 1.0391 0.40234 1.9648 0.17578 1.1719-0.23047 1.0977-0.55859 1.3477-0.34766 1.4062-0.78906 1.5977-0.32422 1.2109 0.44141 1.8672 0.71094 1.7305 0.55469 1.3203 1.3828 0.16016 0.92188-0.44141 1.207-0.76562 1.1094 0.49219 1.0234 1.2227 0.64844 0.94531 0.92578 0.85156 1.2422 0.62891 1.8516-0.10156 1.2305-0.35547 1.5625 0.21094 1.1328 0.24609 1.0977-0.27344 1.2812-0.67578 1.6367-0.34766 1.1094 0.1875 0.49219 0.92578 0.24219 1.125 0.70312 1 1.3281-0.50781 1.1562 0.19141 0.83984 0.66797 1.3984 0.050781 2.1328-0.41016 1.0859-0.48828 1.6445-0.22266 1.3125-0.26172 1.9062-0.85938 0.47656-0.87891 1.2617-1.2031 0.47656-1.0117 0.67188-0.89453 0.15625-1.0586 0.47656-0.94141 0.77344-0.78516 1.0352-0.34766 1.3906-0.30078 1.5078-0.011719 0.89844 0.44922 1.3125 0.32812 1.6484 0.33203 1.0859 0.47656 0.97266 0.50391 1.5938-0.24219 1.3516-0.125 1.1016-0.16797 1.0078 1.0312 0.84766 1.168 0.10156 1.1445v1.6445l0.11328 1 1.1445 0.42188 1.2656-0.29297 0.73828-0.92578 0.58203-0.99609 0.066407-1.0547-0.089844-1.0508 0.37109-1.3203 0.88281-0.55078 1.1016-0.84375 0.70312-1.7891 0.38281-1.2812 1.6484-0.31641 7.3164 1.1523 14.062-21.559 0.71875-1.0742 6.3047 0.35547 0.80469-0.69922 0.95312-0.81641 1.0195-0.63672 0.91406-0.76172 0.10547-1.3945 0.375-0.96094 0.98828-0.45312 0.64062-0.80469 1.1914-0.31641 0.52344-0.94922 0.23828-1.0234 1.2188-0.43359-0.10938-1.0859 0.82031-0.65625 0.47656-0.92188 0.29688-1-0.28516-1.0742 0.82422-0.69141 1.2383-0.55859 0.11328-1 0.80469-0.66797 1 0.125 0.71484-0.71094 0.36719-1.1016 0.74219-0.73438-0.007813-1.0469 0.82031-0.57031 0.27344-10.449z" fill="#0a5394" fill-rule="evenodd"/>
<path d="m468.38 255.4 0.12109 0.80469-0.027344 2.1914 1.2344 0.14844-0.28125 1.2109-0.54297 1.1172-0.38281 1.4727 0.62891 1.3281 0.90234 0.88281-0.77734 2.5039-0.29688 1.418-0.94141 1.5195-1.4219 1.625-1.4375 1.2266-1.0586 0.79297-0.86328 1.4805-0.14062 1.2109-0.86719 2.3242-1.168 1.4727-0.54297 0.96875-0.85938 1-3.3398 4.4375-0.70312 0.78516-1.6367 2.3945-2.0078 2.582-0.74609 1.8906-0.91406 2.8086-0.74609 1.4922-2.0078 2.1797-0.86328 1.2617-1.5469 2.3516-1.6055 1.7773-0.75391 0.88281-1.4102 1.1875-0.78125 1.043-0.71484 1.3984-0.58984 1.0352-0.73047 1.1445-0.69922 1.0938-0.6875 0.94922-0.96875 0.55859-0.0625 1.5039-0.45703 0.96484-0.97266 0.75781-0.76172 1.1016-0.48047 1.0625-0.34375 1.0898-0.54297 1.8477-0.15234 1.0664 0.34766 1.3008-0.29688 1.5586-0.1875 1.418-0.011719 1.0352 0.070312 1.3438 0.85156 2.0078 1.0859 2.2852 0.65625 0.97656 0.69922 1.5469 0.67578 1.0586 1.125 0.22266 0.71875 0.73047 1.168 0.011719 1.3281 0.36328 1.25 0.58984 0.72266 1 0.94531 0.84375 1.1719 0.54688 0.95703 0.38672 1.4336 0.29297 1.1992 0.066406 1.1172-0.23047 1.3008-0.53125 1.1758-0.03125 1.2461-0.13672 1.2305-0.21484 1.125 0.36328 1.1992 0.92578 0.60547 1.0195 1.3555 1.5703 1.6523 0.91797 1.3594 0.24609 1.4766 0.91406 1.2734 1.2266 0.86719 0.71484 1.0273 0.71484 1.1406 0.20312 1.1172 0.10938 1.2188 0.11328 0.58984 1.4766-0.17188 1.6719-0.78125 1.3672 0.042968 1.4102 0.94141 1.418 1.4688 0.90234 1.7695 0.50781 1.5195 0.042969 1.0195 0.070312 1.3281 0.48438 0.85547 0.60547 1.1055 0.6875 0.46875 1.1719 0.92188 0.90625 1.125 0.21484 0.58984 0.95312 0.59375 1.3477 0.25391 1.3281 0.80078 1.0234 0.25781 1.2969 1.4453 0.51953 0.96094 0.40234 0.50391 0.90234 0.52734 0.89844 1.2969 0.82031 0.89062 0.75 1.0391 1.1797 1.7109 0.26562 1.1328-0.023438 1.1172-0.082031 1.1992-0.20312 0.83594 0.79688 0.19531 1.1133-0.32812 1.0078 0.14453 1.0586 1.1055 0.69922 0.69922 0.91797-0.45312 1.0195-0.46875 0.91016-0.81641 1.0859-0.22266 1.0664-0.47656 1.1016 0.16797 1.1797-0.69531 0.89453-0.97266 0.80469-0.45312 0.96094-1.0078 1.1562-1.3633 0.96484-0.66797 1.0664-0.83203 1.0898-1.1641 1.0938-0.93359 1.1797-0.66797 0.875-1.1055-0.20703-1.1836 0.0625-1.1406 0.37109-0.94531 0.625-1.0664 0.035156-0.95312-1.043-1.1328-0.10938-0.90625 0.60156-1.1758 0.37891-1.2422 0.30859-1.2617-0.19531-0.64844-1.1445-1.0938 0.027344-0.75 0.99219-0.99219 0.32031-0.90625 0.61328-1.4844 0.046875-1.3281-0.19531-1.1758 0.42969-1.0195 0.035157-1.0312-0.011719-0.64844 1.0547-1.0781 0.56641-0.88672 0.77344-0.78516 0.63672-0.71094 0.87109 0.0625 1.1172 0.61328 1.25 0.67188 0.89453 0.74219 0.71094-1.3164 0.25781-1.1758 0.78516-0.96875 1.1172-0.46484 1.082 0.027344 1.1445-0.38281 1.1016-0.92969 0.93359-0.19922 1.1328 1.1289 0.50781 1.3164 0.011719 1.3125 0.65625 1.5352 0.28516 1.207 0.070312 1.0234 0.42578 0.80859 1.3086 0.75391 0.73828 1.2227-0.19922 1.2383-0.34375 1.082 0.14062 1.2969 0.55078 1.1016 0.35547 1.332-0.050781 0.99219 0.35547 1.2109 0.65625 1.6523 0.24219 1.7539 0.46484 1.5547 1.0898 0.84375 0.79688 0.65625 1.1211 0.26562 1.0156 1.2617 0.67969 0.97656 0.33203 0.78516 1.2656 0.34375 1.0469 0.64062 1.043 0.97656 0.41016 0.89844 0.51172 0.65234 0.88281 0.88281 0.58984 0.25 1.1484-0.007812 1.2812-0.79297 1.0625-1.1289 0.9375-1 0.34375-0.75 0.79297-2.6836 0.34375-1.1836 0.26562-0.75391 0.75-0.70703 0.72266-0.47656 1.1328-0.36328 1.1836-0.88281 0.98438-1.0977 1.2188-0.98828 0.90625-0.15625 1.25-0.30469 1.0977 0.38281 1.3203-0.03125 1.0977-0.80469 0.6875-0.76953 0.88281-0.86719 0.78516-0.59766 0.87891-1 0.23828-0.71094 0.88672-0.96094-0.40625-1.0273-0.10547-1.0469 0.48438 0.48438-1.0195-0.74609-0.74609-0.54297-0.94141-1.1641-0.20312-0.70703-0.71875 0.40234-1.1875-0.12891-1.1992-0.78906 0.89453-0.96875-0.25-0.60547-1.2539 0.26172-1.1016-1.1094-1.0391-0.78125-0.65625-0.64453-0.83594-1.25 0.039063-0.99609-0.42969-1.0547-0.21484-0.87891-0.58594-0.95703-0.50391-1.0312-0.30859-0.58203-1-0.59766 1-0.86328 0.73828-0.97656 0.28516-0.91406-0.5625-0.95312-0.82812-1.1836-0.67969 0.18359-1.1328-1.0078 0.003906-0.26953-1.0977-0.91406-0.71484-1.1055-0.78125-0.96484-0.41797-1.0195-0.33203-0.92969 0.51953-1.0078-0.039062-0.14062-1.0234-0.92969 0.41016-1.168 0.44922-0.94922-0.40625-0.95312-0.58594-1.1094-0.48438-0.87109-0.875-0.70312-0.79297-0.52344-1.0742-0.99609-0.125-0.34375-1.0273-1.0273 0.69141-1.418-0.53516-1.0664-0.18359-0.17969 1.0234-1.1602-0.17969-0.60938-1.2031-0.32422-1.1797-0.44141-0.97266-0.44531-0.91797 0.36719-1.0938 0.70703-0.76172-0.085938-1.0156-1.4453-0.36328-0.50781-1.0547-0.22656-1.2305-0.51172-1.0547-0.19922-1.0781-0.003906-1.1641 0.52734-0.90625 1.0195-0.50391 1.4727 0.074218-1.4492-0.75391-0.03125-1.0391 1.0117-0.015625-0.90234-0.54688-0.84766-0.95312-0.039062-1.2188-0.67578-0.78125 1.2227-0.25781-0.92188-0.57812 0.23438-1.0039-1.0078 0.29297-1.2031-0.16797-0.75391-0.83984-0.70312-0.75391 0.03125-1.1445-1.0273 0.22656-0.19141-1.0273-1.1055-0.60938-1.1523-0.49219-0.57812-0.86719 0.71875-0.80469-0.12109-1.0156-0.45312-0.91797-0.83203-1.0156-1.3711 0.007813-0.90234-0.51953-1.1406-0.0625-1.0234 0.27734-0.98047-0.32031-0.68359-0.94141-0.40625-1.1641 0.66406-0.78125-1.1602-0.15234-0.83594-0.57812 0.86328-0.57422 0.30078-0.98047-1.043-0.23438-0.33203-1.1797-1.0312-0.27734-0.33594-1.3867-0.73047 0.74219-0.9375-0.60547-1.2188-0.53125 1.0078-0.10547-0.86328-0.66406-0.98828-0.4375-0.69141-0.77344-0.13281-1.1016-0.44141-1.0234-1.3906-0.15625-0.82031-0.6875-0.21484-1.1172-1.168-0.17578-0.73828-0.68359-0.90234-0.92969-0.94531-0.55859-0.98828-0.82422-1.0742 0.25-1.043 0.25391-1.2695-0.15625-0.73047-0.75 0.089843-1.0234 0.60156-0.80859 0.066406-1.0117-0.96094-0.44141-0.79688 0.88672-0.98828 0.66797-1.0352-0.019532-0.69531-0.82031-0.75-0.74609-0.97266-0.78906-1.082 0.29297-0.97266 0.24609-1.1719-0.066406-1.043 0.46094-0.94922-0.34375-0.84766-0.73047-0.35938-0.94141-0.72656-0.88672-0.16016-1.2812-0.29297-1.0234-0.83984-1.1211-1.2148-0.55078-1.4023-0.09375-1.0391 0.48047-0.25-1.0352-0.88672-0.66406-0.38281-1.0273-0.39453-1.2383-1.0352-1.0664-0.91797-0.80469-1.1953-0.69531-1.2031-0.71094-1.332-0.49219-0.12109-1.0859-1.1602 0.53125-0.49609-0.95703-0.17969-1.0234-0.94141-0.64062-1.2188-0.64062-0.98047-0.21094-0.70703-0.80469 0.51562-0.95312-0.80078-0.69922-1.1562-0.51953-1.1016 0.22266-1.0156-0.066406-0.5625-0.96094-1.1289-0.46875-1.3984-0.14453-1.957-0.5625-1.2422-0.12109-1.8672-0.41797-1.4609-0.39453-1.2773-0.36328-1.5664-0.51172-0.98828-0.38672-0.98438-0.19531-2.2617-0.70703-1.9141-0.50391-1.2695-0.097656-1.3867-0.23047-1.25-0.4375-1.2969-0.34766-1.7734-0.54297-0.98828-0.21875-1.457-0.47656-1.1875-0.29297-1.3203-0.28906-1.2305-0.375-1.6641-0.51953-1.0312-0.26953-1.957-0.35547-1.4492-0.54688-2.0703-0.41016-1.1602-0.22656-1.4727-0.17578-1.2383-0.36328-1.3477-0.25781-1.2734-0.35938-1.0938 0.089843-1.0625-0.039062-1.0117-0.27344-0.98438 0.17969-1.2734-0.46484-0.96484-0.51562-1.043-0.16016-1.0078-0.48438-1.3047-0.23828-1.5703-0.40234-1.4648-0.4375-1.4805-0.16016-2.8828-0.53125-1.457-0.30469-1.2227-0.27734-1.2656-0.18359-0.55469-1.0312-0.76953-0.67188-0.54688-1.0859 0.17578-1.1406 0.44922-1.1484-0.25-1.3164-0.58594-0.83984-0.72266-1.2539-0.78906-1.3242-0.34766-1.4688-0.015625-1.1367 0.011718-1.4805-0.12891-1.1367 0.51172-1.8555 0.47656-1.0039 0.085938-1.4609-0.40234-1.2148 0.30859-1.0508-0.20703-1.0078-0.35938-1.543 0.19531-1.2227 0.10938-1.2969-0.48828-0.90625 0.13672-1 1.0391-0.74219 0.71094-0.76562 1.1055-1.457 0.53125-0.92188 0.54297-1.1875 0.5-1.2773-0.042969-1.0039-0.21484-0.97656 0.30859-1.5234 0.20703-1.918 0.80859-1.0898 1.0234-1.0117 0.9375-0.6875 0.33984-1.1055 1.0664-1.3047 0.99609-0.66797 1.0469-0.73047 1.4219 0.10156 0.60938-0.80078 0.75391-1.4922 0.73828-1.9688 0.23828-1.6719 0.22266 1.0898 0.30859 1.6523 0.25 1.2812 0.44531 2.4766 0.40234 1.4609 1.4648 0.22266 1.5273 0.36328 1.0469 0.75 1.2656 0.44531 0.98438-0.20703 0.33594 1.3203 0.29297 1.2656 0.26562 1.2695 1.1797 0.48438 0.97656-0.40234 1.8945-1.0156 0.75-1.1289 1.1484-1.0859 1.1875-0.42188 1.1367-0.22266 2.2461 0.48047 0.99609 0.23828 1.6133 0.23828 1.4727-0.28516 1.1211 0.20703 0.94922-0.66406 0.28516 1.2656-0.0625 1.0273 0.46875 1.0273 0.48047 0.91797 0.75391 0.73047 0.97656-0.43359 1.0508-1.3984 1.2734-0.5 2.2969 0.67578 1.8984 0.074219 1.9492-0.058594 1.0234 0.015625 0.63672-1.1523 0.19531-2.0625 0.23828-1.2227 0.65234-0.92969 1.0156-0.58594 1.2383-0.13672 1.2812 0.74219 0.27344 1.625 1.0586 0.83203 1.125 0.11328 1.3555-0.25 1.4609-0.33594 1.8242-0.60938 1.4453-0.22656 1.3242-0.19922 1.6484-0.78906 1.2617-1.1953 1.1719 0.96875 0.41797 1.4688 0.26953 1.0391 0.40234 1.9648 0.17578 1.1719-0.23047 1.0977-0.55859 1.3477-0.34766 1.4062-0.78906 1.5977-0.32422 1.2109 0.44141 1.8672 0.71094 1.7305 0.55469 1.3203 1.3828 0.16016 0.92188-0.44141 1.207-0.76562 1.1094 0.49219 1.0234 1.2227 0.64844 0.94531 0.92578 0.85156 1.2422 0.62891 1.8516-0.10156 1.2305-0.35547 1.5625 0.21094 1.1328 0.24609 1.0977-0.27344 1.2812-0.67578 1.6367-0.34766 1.1094 0.1875 0.49219 0.92578 0.24219 1.125 0.70312 1 1.3281-0.50781 1.1562 0.19141 0.83984 0.66797 1.3984 0.050781 2.1328-0.41016 1.0859-0.48828 1.6445-0.22266 1.3125-0.26172 1.9062-0.85938 0.47656-0.87891 1.2617-1.2031 0.47656-1.0117 0.67188-0.89453 0.15625-1.0586 0.47656-0.94141 0.77344-0.78516 1.0352-0.34766 1.3906-0.30078 1.5078-0.011719 0.89844 0.44922 1.3125 0.32812 1.6484 0.33203 1.0859 0.47656 0.97266 0.50391 1.5938-0.24219 1.3516-0.125 1.1016-0.16797 1.0078 1.0312 0.84766 1.168 0.10156 1.1445v1.6445l0.11328 1 1.1445 0.42188 1.2656-0.29297 0.73828-0.92578 0.58203-0.99609 0.066407-1.0547-0.089844-1.0508 0.37109-1.3203 0.88281-0.55078 1.1016-0.84375 0.70312-1.7891 0.38281-1.2812 1.6484-0.31641 7.3164 1.1523 14.062-21.559 0.71875-1.0742 6.3047 0.35547 0.80469-0.69922 0.95312-0.81641 1.0195-0.63672 0.91406-0.76172 0.10547-1.3945 0.375-0.96094 0.98828-0.45312 0.64062-0.80469 1.1914-0.31641 0.52344-0.94922 0.23828-1.0234 1.2188-0.43359-0.10938-1.0859 0.82031-0.65625 0.47656-0.92188 0.29688-1-0.28516-1.0742 0.82422-0.69141 1.2383-0.55859 0.11328-1 0.80469-0.66797 1 0.125 0.71484-0.71094 0.36719-1.1016 0.74219-0.73438-0.007813-1.0469 0.82031-0.57031 0.27344-10.449 0.29297-0.027343" fill="none" stroke="#fff" stroke-linecap="round" stroke-linejoin="round" stroke-miterlimit="10"/>
<path d="m377.74 365.16c0 3.5898-2.9102 6.5-6.5 6.5-3.5898 0-6.5-2.9102-6.5-6.5s2.9102-6.5 6.5-6.5c3.5898 0 6.5 2.9102 6.5 6.5" fill="#28c028" fill-rule="evenodd" stroke="#000" stroke-linecap="round" stroke-linejoin="round" stroke-miterlimit="10"/>
<path d="m292 357.06c0.82031 0.58594 1.7109 1.0469 2.6719 1.3906l-1.2344 2.3594c-0.5-0.15625-0.99219-0.36719-1.4688-0.625-0.10547-0.054687-0.84375-0.53906-2.2188-1.4531-1.0742 0.46875-2.2656 0.70312-3.5781 0.70312-2.5312 0-4.5156-0.74219-5.9531-2.2344-1.4297-1.4883-2.1406-3.582-2.1406-6.2812 0-2.6875 0.71875-4.7734 2.1562-6.2656 1.4375-1.5 3.3828-2.25 5.8438-2.25 2.4453 0 4.3828 0.75 5.8125 2.25 1.4258 1.4922 2.1406 3.5781 2.1406 6.2656 0 1.4297-0.19922 2.6797-0.59375 3.75-0.30469 0.82422-0.78125 1.6211-1.4375 2.3906zm-2.6719-1.875c0.42578-0.5 0.74219-1.1016 0.95312-1.8125 0.21875-0.70703 0.32812-1.5234 0.32812-2.4531 0-1.8945-0.42188-3.3125-1.2656-4.25-0.83594-0.94531-1.9297-1.4219-3.2812-1.4219-1.3555 0-2.4531 0.47656-3.2969 1.4219-0.84375 0.9375-1.2656 2.3555-1.2656 4.25 0 1.9297 0.42188 3.3711 1.2656 4.3281 0.84375 0.94922 1.9102 1.4219 3.2031 1.4219 0.47656 0 0.92969-0.078125 1.3594-0.23438-0.67969-0.4375-1.3672-0.78125-2.0625-1.0312l0.9375-1.9062c1.0938 0.375 2.1328 0.9375 3.125 1.6875zm7.2969-12.5h3.3125v8.9219c0 1.418 0.039063 2.3359 0.125 2.75 0.14453 0.67969 0.48438 1.2188 1.0156 1.625 0.53906 0.40625 1.2734 0.60938 2.2031 0.60938 0.9375 0 1.6445-0.19141 2.125-0.57812 0.47656-0.38281 0.76562-0.85938 0.85938-1.4219 0.10156-0.5625 0.15625-1.4922 0.15625-2.7969v-9.1094h3.3281v8.6562c0 1.9688-0.09375 3.3672-0.28125 4.1875-0.17969 0.8125-0.50781 1.5-0.98438 2.0625-0.48047 0.5625-1.125 1.0117-1.9375 1.3438s-1.8711 0.5-3.1719 0.5c-1.5742 0-2.7656-0.18359-3.5781-0.54688s-1.4531-0.83203-1.9219-1.4062c-0.46875-0.58203-0.77734-1.1914-0.92188-1.8281-0.21875-0.94531-0.32812-2.3438-0.32812-4.1875zm16.531 16.469v-16.469h3.3125v16.469zm6.5781 0v-16.328h3.3281v13.547h8.2656v2.7812zm24.484-6.0469 3.2344 1.0156c-0.5 1.793-1.3281 3.125-2.4844 4-1.1484 0.875-2.6016 1.3125-4.3594 1.3125-2.1875 0-3.9844-0.74219-5.3906-2.2344-1.4062-1.5-2.1094-3.5469-2.1094-6.1406 0-2.7383 0.70312-4.8633 2.1094-6.375 1.4141-1.5195 3.2812-2.2812 5.5938-2.2812 2.0078 0 3.6445 0.60156 4.9062 1.7969 0.75 0.69922 1.3125 1.7109 1.6875 3.0312l-3.2969 0.78125c-0.19922-0.85156-0.60547-1.5234-1.2188-2.0156-0.61719-0.5-1.3672-0.75-2.25-0.75-1.2188 0-2.2109 0.4375-2.9688 1.3125-0.76172 0.875-1.1406 2.2969-1.1406 4.2656 0 2.0742 0.375 3.5547 1.125 4.4375 0.75 0.88672 1.7227 1.3281 2.9219 1.3281 0.88281 0 1.6445-0.28125 2.2812-0.84375 0.63281-0.5625 1.0859-1.4414 1.3594-2.6406zm20.922 6.0469h-3.6094l-1.4375-3.7344h-6.5781l-1.3594 3.7344h-3.5312l6.4062-16.469h3.5156zm-6.1094-6.5156-2.2812-6.1094-2.2188 6.1094zm0 0" fill="none" stroke="#fff" stroke-linecap="round" stroke-linejoin="round" stroke-miterlimit="10" stroke-width="2"/>
<path d="m292 357.06c0.82031 0.58594 1.7109 1.0469 2.6719 1.3906l-1.2344 2.3594c-0.5-0.15625-0.99219-0.36719-1.4688-0.625-0.10547-0.054687-0.84375-0.53906-2.2188-1.4531-1.0742 0.46875-2.2656 0.70312-3.5781 0.70312-2.5312 0-4.5156-0.74219-5.9531-2.2344-1.4297-1.4883-2.1406-3.582-2.1406-6.2812 0-2.6875 0.71875-4.7734 2.1562-6.2656 1.4375-1.5 3.3828-2.25 5.8438-2.25 2.4453 0 4.3828 0.75 5.8125 2.25 1.4258 1.4922 2.1406 3.5781 2.1406 6.2656 0 1.4297-0.19922 2.6797-0.59375 3.75-0.30469 0.82422-0.78125 1.6211-1.4375 2.3906zm-2.6719-1.875c0.42578-0.5 0.74219-1.1016 0.95312-1.8125 0.21875-0.70703 0.32812-1.5234 0.32812-2.4531 0-1.8945-0.42188-3.3125-1.2656-4.25-0.83594-0.94531-1.9297-1.4219-3.2812-1.4219-1.3555 0-2.4531 0.47656-3.2969 1.4219-0.84375 0.9375-1.2656 2.3555-1.2656 4.25 0 1.9297 0.42188 3.3711 1.2656 4.3281 0.84375 0.94922 1.9102 1.4219 3.2031 1.4219 0.47656 0 0.92969-0.078125 1.3594-0.23438-0.67969-0.4375-1.3672-0.78125-2.0625-1.0312l0.9375-1.9062c1.0938 0.375 2.1328 0.9375 3.125 1.6875zm7.2969-12.5h3.3125v8.9219c0 1.418 0.039063 2.3359 0.125 2.75 0.14453 0.67969 0.48438 1.2188 1.0156 1.625 0.53906 0.40625 1.2734 0.60938 2.2031 0.60938 0.9375 0 1.6445-0.19141 2.125-0.57812 0.47656-0.38281 0.76562-0.85938 0.85938-1.4219 0.10156-0.5625 0.15625-1.4922 0.15625-2.7969v-9.1094h3.3281v8.6562c0 1.9688-0.09375 3.3672-0.28125 4.1875-0.17969 0.8125-0.50781 1.5-0.98438 2.0625-0.48047 0.5625-1.125 1.0117-1.9375 1.3438s-1.8711 0.5-3.1719 0.5c-1.5742 0-2.7656-0.18359-3.5781-0.54688s-1.4531-0.83203-1.9219-1.4062c-0.46875-0.58203-0.77734-1.1914-0.92188-1.8281-0.21875-0.94531-0.32812-2.3438-0.32812-4.1875zm16.531 16.469v-16.469h3.3125v16.469zm6.5781 0v-16.328h3.3281v13.547h8.2656v2.7812zm24.484-6.0469 3.2344 1.0156c-0.5 1.793-1.3281 3.125-2.4844 4-1.1484 0.875-2.6016 1.3125-4.3594 1.3125-2.1875 0-3.9844-0.74219-5.3906-2.2344-1.4062-1.5-2.1094-3.5469-2.1094-6.1406 0-2.7383 0.70312-4.8633 2.1094-6.375 1.4141-1.5195 3.2812-2.2812 5.5938-2.2812 2.0078 0 3.6445 0.60156 4.9062 1.7969 0.75 0.69922 1.3125 1.7109 1.6875 3.0312l-3.2969 0.78125c-0.19922-0.85156-0.60547-1.5234-1.2188-2.0156-0.61719-0.5-1.3672-0.75-2.25-0.75-1.2188 0-2.2109 0.4375-2.9688 1.3125-0.76172 0.875-1.1406 2.2969-1.1406 4.2656 0 2.0742 0.375 3.5547 1.125 4.4375 0.75 0.88672 1.7227 1.3281 2.9219 1.3281 0.88281 0 1.6445-0.28125 2.2812-0.84375 0.63281-0.5625 1.0859-1.4414 1.3594-2.6406zm20.922 6.0469h-3.6094l-1.4375-3.7344h-6.5781l-1.3594 3.7344h-3.5312l6.4062-16.469h3.5156zm-6.1094-6.5156-2.2812-6.1094-2.2188 6.1094z" fill-rule="evenodd"/>
</g>
</svg>
