<?xml version="1.0" encoding="UTF-8"?>
<svg width="500pt" height="370pt" version="1.1" viewBox="0 0 500 370" xmlns="http://www.w3.org/2000/svg">
<g id="a">
<rect width="500" height="370" fill="none"/>
<path d="m170.6 19.996 0.8125 0.83203 1.1484 1.0625 0.91016 0.92969 2.4648 2.5312 1.0469 1.1641 0.95312 0.74219 1.7305 1.7539 1.9336 1.8906 0.82031 0.77734 1.8516 1.7188 1.0039 1 1.8047 1.7773 1.4258 1.4414 0.83594 0.75781 0.77734 0.77734 0.73047 0.71484 0.34766 1.6602 0.023437 1.2031 0.12891 1.8125 0.027344 2.1406 0.078125 2.1602 0.058594 1.2578 0.089844 1.3906 0.011718 1.5859-0.023437 1.5938-0.046875 1.6445 0.0625 2.2734 0.09375 2.0586 0.03125 1.5703 0.14844 1.5469 0.050782 1.4844 0.015625 2.0039 0.007812 1.4453-0.11328 2.6875-0.09375 1.0039-0.03125 1.5977 0.085937 1.5703 0.054688 1.4922 0.011719 1.7422 56.445-41.449 2.7148-1.7383 2.9336-2.1719 1.7266-0.71875 1.9531-0.79297 1.9531-0.046875 1.4297 0.55078 1.4453 0.47266 1.8398 0.19141 1.2539 0.027344 2.9297-0.23828 1.8906-0.1875 1.5664 0.03125 2.2422-0.054687 1.4805-0.10547 2.3555-0.074219 2.3164-0.24219 1.1602-0.10547 2.6602 0.17578 1.7734 0.35156 2.25 0.53516 2.9375 1.1602h1.4297l1.7773-0.20312 1.4336 0.61328 1.2148 0.15234 0.97656 0.70703 1.1406 0.046875 0.96875-0.28516-1.0039-0.61328 1.3984-0.17188 1.0547-0.84766 0.28125 1.2461-0.089844 1.582-0.35547 0.96875-0.8125 1.2109-1.3359 0.91406-0.37891 0.96484 0.66016 1.1836 0.68359 0.96875 0.40234 1.3711 0.58984 0.82422-0.070312 1.1328-0.61719 0.96484-1.2266 1.1172-0.25781 1.0625-0.027343 1.0156-0.14062 1.1328-0.56641 1.4883-0.82422 1.2539-0.23438 1.25-0.027344 1.6055-0.71094 1.6758-0.32812 1.5352-0.33203 1.6328-0.49609 0.89453-0.21094 1.3477v1.7227l0.28125 1.8672 0.38281 1.7969-0.027343 1.9102-0.39844 1.4648-0.41016 1.2344-0.26562 1.0312 0.41406 1.5 0.3125 1.3438 0.28125 1.0039-0.25391 1.5898-0.75781 1.4258-0.61328 0.95703-0.29297 1.2383-1 0.96094-0.30859 1.0234-0.94922 1.168-0.92578 1.0664-1.1484 0.10156-1.1133 0.57422-1.168 0.82031-0.97656 0.60156-0.69922 1.2109-0.21094 1.3984 0.09375 1.0938-0.19141 1.293-0.89453 1.5156-0.10547 1.5547 0.3125 1.3086 0.070313 1.4375-0.28125 1.3086-0.81641 1.2617-0.24609 1.0469v1.668l0.050781 1.3125-0.50781 1.9688-0.042969 1.4922-0.60938 0.80078-0.17188 1.8789-0.45703 1.0938-0.58984 1.0742-0.73047 0.875 0.10547 1.1211 0.35938 1.1445 0.20312 1.0586 0.56641 1.1094-0.015625 1.1406 0.34766 0.96094 0.66016 0.86328 0.33594 1.0391 0.49219 1.2344 1.3164 1.0859 0.21094 1.2969 0.22656 1.168 0.18359 1.0195 0.52734 1.043 0.085938 1.4375 0.62109 1.3672 0.71484 1.3203 0.44531 1.1406-0.77344 0.69531 0.42578 1.2305-0.53516 1.3477-0.19531 1.4336-0.011719 1.0469-1.4961 0.64844-1.207-0.37891-1.5547-0.32031-1.1797-0.21484-1.2617-0.45703-0.007812-1-0.64844-0.77344-1.6758-0.25781-1-0.16016-1.0742-0.30859-1.2812-0.66016-1.5195-0.32422-2.1953-0.61328-1.1914-0.12891-2.6172-0.74219-1.5938-1.5195-0.53516-1.4492-0.375-1.0195-0.80859-1.1016-1.3906-0.42969-1.2305-0.45312-1.2266-1.0977-1.293-0.99609-1.7461 0.12891-1.2227 0.70703-1.6484 1.2266-0.83594 0.55078-1.2617 1.0977-0.64453 1.2891-0.51562 1.0352-0.77344 0.77344-1.0312 1.1289-0.71094 0.74219-0.64844 0.90234-0.44922 1-1.1602 0.90234-1.3555 0.74609-0.90625 0.80469-1.1328 0.67969-2.3438 2.1992-3.2344 2.2422-1.7773 1.2891-1.3828-0.78516-0.76562-0.80469-1.7148 0.22656h-1.8164l-0.84766-0.69922-0.99219-1.5078-1-0.77734-0.89453-1.4922-0.71094-1.5703-0.39062-1.0586-1.5664-0.92969-1.8203-0.92578-0.90625-0.58203-0.99219-1.1328-0.10547-1.0977-0.019531-1.4648-0.82422-1.6094-1.2188-1.0977-1.1367-1.5273-0.57812-0.86719-1.1562-1.0117-1.4492-0.125-1.2148-0.67969-1.6758-0.58203-1.0938-0.039063-1.4648-0.22656-1.3438-0.0625-1.6133-0.72266-1.4531-0.53906-0.69922-1.6406-0.73438 0.75781-0.51172 0.99609-1.2109 0.69922-1.0859 0.15234-0.050781 1.1797-0.53906 1.2227-0.89844 0.48828-0.82031 0.71875-0.25391 1.2031-1.3203 1.082-1.332 0.375-1.3008 0.78906-0.73047 0.78125-0.69922 1.207-2.5 1.3164-0.88281 1.0977-0.13672 1.1875 1.0312 0.55078 0.62891 0.87891 1.1719 1.8672 0.99609 0.63281 0.32812 1.3477-1.1289 1.7812-0.84766 0.75781-0.51172 1.3008 0.42969 1.3438 1.168 0.91406 0.35938 1.0156-0.35938 1.5391-0.17578 1.5 0.32422 1.1367 0.93359 0.75781 0.57422 1.1055 0.76562 0.99609 1.2812 0.5625 0.82422 0.92188 0.99219 1.3984 0.046875 1.1484 0.38672 0.97656 0.81641 1.1875 0.82812 0.64453 1.2617 0.78906 1.3125 0.96094 0.64062 1.207-0.11719 1.0977-0.058594 1.1523 0.59375 0.86719 0.19922 1.3594-0.30859 1.2461-0.19922 1.1055-0.125 1.6914-0.64844 1.0195-0.57031 0.92188-0.72266 0.88281-1.8359 0.49609-1.2852 0.035156-1.2461-0.0625-1.2812 0.082032-1.2031 0.8125-0.46875 1.457-0.49609 1.1758-0.40625 0.96094-1.2539 0.73047-1.8867 0.96094-0.85547 0.70703-0.26172 1.0742-0.49609 1.1836-0.92578 0.9375-0.42969 0.96484-0.65234 0.83203-0.58984 1.3555 0.039062 1-0.82422 0.78125-1.0078 0.25-0.63672 0.9375-0.14062 1.2852-0.47266 0.93359-0.39453 1.7148-0.88281 0.99219-0.44922 1.1367-0.82812 0.75391-0.23438 1.1523-0.44141 1.1055-1.0742 0.91797-0.99219 1.625-1.0977 0.57031-1.1367-0.12109-0.5 1.4609-1.1133 0.35547-1.4609 0.75-1.0195 0.8125-0.92969 0.36719-0.80078 0.75-0.5 1.0859-0.55859 1.1914-1.3516 0.34375-1.0859 1.0117-0.91406 0.48828-1.082 0.58203-0.96484 0.65234-0.875 0.88672-0.20312 1.0391-0.35938 0.99219-0.36328 1.5312-0.96875 0.80078-1.0234 0.14844-0.875 0.55469-1.1797 0.6875-0.86719 0.51562-0.78906 1.4961 0.011718 1.207-0.16406 0.98828-1.2812 0.88672-1.0508 0.72656-0.81641 0.64453-1.0078 0.55859-0.96484-0.60156-0.91016-0.55859-0.98047-0.66797-0.86328-0.53906-0.96484-0.56641-1.0273-0.65234-0.85938-0.53516-0.92188-0.50781-0.93359-0.54688-0.96484-0.55078-0.88672-0.56641-1.1445-0.62109-1.168-0.60547-0.90234-0.57812-0.94141-0.50391-0.93359-0.49609-0.87891-0.53125-0.96094-0.42578-0.92188-0.53906-0.91406-0.45703-0.94141-0.5-0.92188-0.49609-0.97266-0.52344-0.96094-0.51172-0.91016-0.48438-0.90625-0.46094-0.88672-0.52344-0.91797-0.46484-1.0156-0.5-0.90234-0.49219-0.9375-0.45703-0.96875-0.52734-0.99219-0.4375-0.98047-0.45312-0.90234-0.47266-0.92188-0.39844-1.0117-0.078125-1.0039 0.23047-0.75781-0.67578 0.37891-0.93359-0.32422-0.97656-0.98047-0.22266-0.76953-0.65625-0.99219-0.17969-0.0625-1.0156-0.15625-1.0078-1.0977-0.21094-1-0.09375-0.84766 0.67188-0.99219 0.14453-0.91016-0.80078-1.1445 0.19922-0.64453-0.96875 0.13281-1.0938-0.96875-0.42578-0.90625 0.84766-0.44141-1.0039-0.89453-0.46484-1 0.4375-0.97656 0.35938-1.1289 0.0625-0.71484-0.78125-0.53906-1.0117-0.82031-1.1602-0.14062-1.1172 0.55469-1.1211 0.14453-1.168-0.085938-1.0195 0.74609-1.1367 0.78125-0.92969 0.003906-1.0664-0.58594-1.1445-0.97656-0.28906-0.21484-1.0938 0.078125-1.6094-0.24609-1.0039 0.054687-1.1992-0.34375-1.0625-0.67969-0.99609-0.66406-0.95312-0.55469-1.0547 0.027343-1.4141-0.69141-0.76953-0.24219-1.0547 0.24219-1.0938-0.12891-1.3594 0.83984-1.0234 0.64453-0.92188 0.41406-1.5-0.67188-1.9961 0.10547-1.1016 0.19922-1.5039 0.054687-1.5742-0.70312-1.6992 0.089844-1.1641-0.17188-1.4492-0.92188-0.55078-0.058594-1.1211 0.87891-0.75781 0.93359-0.76172 0.24609-1.4258 0.16016-1.2734 0.93359-0.58984 0.32422-0.95312-0.43359-1.0547-0.64453-0.83203 0.40234-1.2539 0.66797-1.0234 1.0039 0.23438-0.10938-1.5977 0.25391-1.043 0.43359-1.2852 0.52734-1.1055 1.418-1.6133 0.64844-1.2227 0.18359-1.3828 0.33594-1.4102 0.65234-0.80859 0.24219-1.0625 0.83984-2.418 0.46094-0.94141 0.125-2.0312 0.46875-0.88281 0.9375-0.82422 0.70703-1.0938 1.0938-0.92578 2.3125-1.375 0.6875-1.1914-0.23047-1.2656-0.17188-1.0977 0.76953-2.2227 1.1758-3.5391 0.86719-2.5195 1.375-4.207 1.1289-3.2891 1.9297-5.793 1.375-4.0742 0.98438-2.9766 1.0273-3.0781 0.54297-1.6367 0.60156-1.2148 0.59766-1.2539 0.8125-0.8125 0.78125-0.67188 1.0664-1.5625 0.72656-1.0938 0.75391-1.2539 0.55078-0.91406 1.2266-1.9883 1-1.6602 0.79297-1.332 0.83203-1.207 1.2656-1.6836 0.86719-1.2383 2.0664-2.8477 1.1445-1.7578 0.87109-1.2266 0.86328-1.2383 2.4727-3.4102 2.0234-2.6445 0.62109-0.79297 0.91797-1.3984 0.69141-0.85156 0.89844-1.2188 0.76953-1.1602 1.1836-1.75 0.83594-1.293 1.832-2.5 1.5898-2.2539 1.2422-1.7422 2.1797-3.3477 1.7852-2.4961 1.5039-2 0.95703-1.2734 0.71875-0.85938 0.98828-1.3906 1.668-2.2734 2.1328-3.0469 2.3555-3.0586 1.0273-1.3281 0.73047-1.0586 1.2188-2.0781 1.207-2 0.69141-1.2266z" fill="#ccc" fill-rule="evenodd"/>
<path d="m170.6 19.996 0.8125 0.83203 1.1484 1.0625 0.91016 0.92969 2.4648 2.5312 1.0469 1.1641 0.95312 0.74219 1.7305 1.7539 1.9336 1.8906 0.82031 0.77734 1.8516 1.7188 1.0039 1 1.8047 1.7773 1.4258 1.4414 0.83594 0.75781 0.77734 0.77734 0.73047 0.71484 0.34766 1.6602 0.023437 1.2031 0.12891 1.8125 0.027344 2.1406 0.078125 2.1602 0.058594 1.2578 0.089844 1.3906 0.011718 1.5859-0.023437 1.5938-0.046875 1.6445 0.0625 2.2734 0.09375 2.0586 0.03125 1.5703 0.14844 1.5469 0.050782 1.4844 0.015625 2.0039 0.007812 1.4453-0.11328 2.6875-0.09375 1.0039-0.03125 1.5977 0.085937 1.5703 0.054688 1.4922 0.011719 1.7422 56.445-41.449 2.7148-1.7383 2.9336-2.1719 1.7266-0.71875 1.9531-0.79297 1.9531-0.046875 1.4297 0.55078 1.4453 0.47266 1.8398 0.19141 1.2539 0.027344 2.9297-0.23828 1.8906-0.1875 1.5664 0.03125 2.2422-0.054687 1.4805-0.10547 2.3555-0.074219 2.3164-0.24219 1.1602-0.10547 2.6602 0.17578 1.7734 0.35156 2.25 0.53516 2.9375 1.1602h1.4297l1.7773-0.20312 1.4336 0.61328 1.2148 0.15234 0.97656 0.70703 1.1406 0.046875 0.96875-0.28516-1.0039-0.61328 1.3984-0.17188 1.0547-0.84766 0.28125 1.2461-0.089844 1.582-0.35547 0.96875-0.8125 1.2109-1.3359 0.91406-0.37891 0.96484 0.66016 1.1836 0.68359 0.96875 0.40234 1.3711 0.58984 0.82422-0.070312 1.1328-0.61719 0.96484-1.2266 1.1172-0.25781 1.0625-0.027343 1.0156-0.14062 1.1328-0.56641 1.4883-0.82422 1.2539-0.23438 1.25-0.027344 1.6055-0.71094 1.6758-0.32812 1.5352-0.33203 1.6328-0.49609 0.89453-0.21094 1.3477v1.7227l0.28125 1.8672 0.38281 1.7969-0.027343 1.9102-0.39844 1.4648-0.41016 1.2344-0.26562 1.0312 0.41406 1.5 0.3125 1.3438 0.28125 1.0039-0.25391 1.5898-0.75781 1.4258-0.61328 0.95703-0.29297 1.2383-1 0.96094-0.30859 1.0234-0.94922 1.168-0.92578 1.0664-1.1484 0.10156-1.1133 0.57422-1.168 0.82031-0.97656 0.60156-0.69922 1.2109-0.21094 1.3984 0.09375 1.0938-0.19141 1.293-0.89453 1.5156-0.10547 1.5547 0.3125 1.3086 0.070313 1.4375-0.28125 1.3086-0.81641 1.2617-0.24609 1.0469v1.668l0.050781 1.3125-0.50781 1.9688-0.042969 1.4922-0.60938 0.80078-0.17188 1.8789-0.45703 1.0938-0.58984 1.0742-0.73047 0.875 0.10547 1.1211 0.35938 1.1445 0.20312 1.0586 0.56641 1.1094-0.015625 1.1406 0.34766 0.96094 0.66016 0.86328 0.33594 1.0391 0.49219 1.2344 1.3164 1.0859 0.21094 1.2969 0.22656 1.168 0.18359 1.0195 0.52734 1.043 0.085938 1.4375 0.62109 1.3672 0.71484 1.3203 0.44531 1.1406-0.77344 0.69531 0.42578 1.2305-0.53516 1.3477-0.19531 1.4336-0.011719 1.0469-1.4961 0.64844-1.207-0.37891-1.5547-0.32031-1.1797-0.21484-1.2617-0.45703-0.007812-1-0.64844-0.77344-1.6758-0.25781-1-0.16016-1.0742-0.30859-1.2812-0.66016-1.5195-0.32422-2.1953-0.61328-1.1914-0.12891-2.6172-0.74219-1.5938-1.5195-0.53516-1.4492-0.375-1.0195-0.80859-1.1016-1.3906-0.42969-1.2305-0.45312-1.2266-1.0977-1.293-0.99609-1.7461 0.12891-1.2227 0.70703-1.6484 1.2266-0.83594 0.55078-1.2617 1.0977-0.64453 1.2891-0.51562 1.0352-0.77344 0.77344-1.0312 1.1289-0.71094 0.74219-0.64844 0.90234-0.44922 1-1.1602 0.90234-1.3555 0.74609-0.90625 0.80469-1.1328 0.67969-2.3438 2.1992-3.2344 2.2422-1.7773 1.2891-1.3828-0.78516-0.76562-0.80469-1.7148 0.22656h-1.8164l-0.84766-0.69922-0.99219-1.5078-1-0.77734-0.89453-1.4922-0.71094-1.5703-0.39062-1.0586-1.5664-0.92969-1.8203-0.92578-0.90625-0.58203-0.99219-1.1328-0.10547-1.0977-0.019531-1.4648-0.82422-1.6094-1.2188-1.0977-1.1367-1.5273-0.57812-0.86719-1.1562-1.0117-1.4492-0.125-1.2148-0.67969-1.6758-0.58203-1.0938-0.039063-1.4648-0.22656-1.3438-0.0625-1.6133-0.72266-1.4531-0.53906-0.69922-1.6406-0.73438 0.75781-0.51172 0.99609-1.2109 0.69922-1.0859 0.15234-0.050781 1.1797-0.53906 1.2227-0.89844 0.48828-0.82031 0.71875-0.25391 1.2031-1.3203 1.082-1.332 0.375-1.3008 0.78906-0.73047 0.78125-0.69922 1.207-2.5 1.3164-0.88281 1.0977-0.13672 1.1875 1.0312 0.55078 0.62891 0.87891 1.1719 1.8672 0.99609 0.63281 0.32812 1.3477-1.1289 1.7812-0.84766 0.75781-0.51172 1.3008 0.42969 1.3438 1.168 0.91406 0.35938 1.0156-0.35938 1.5391-0.17578 1.5 0.32422 1.1367 0.93359 0.75781 0.57422 1.1055 0.76562 0.99609 1.2812 0.5625 0.82422 0.92188 0.99219 1.3984 0.046875 1.1484 0.38672 0.97656 0.81641 1.1875 0.82812 0.64453 1.2617 0.78906 1.3125 0.96094 0.64062 1.207-0.11719 1.0977-0.058594 1.1523 0.59375 0.86719 0.19922 1.3594-0.30859 1.2461-0.19922 1.1055-0.125 1.6914-0.64844 1.0195-0.57031 0.92188-0.72266 0.88281-1.8359 0.49609-1.2852 0.035156-1.2461-0.0625-1.2812 0.082032-1.2031 0.8125-0.46875 1.457-0.49609 1.1758-0.40625 0.96094-1.2539 0.73047-1.8867 0.96094-0.85547 0.70703-0.26172 1.0742-0.49609 1.1836-0.92578 0.9375-0.42969 0.96484-0.65234 0.83203-0.58984 1.3555 0.039062 1-0.82422 0.78125-1.0078 0.25-0.63672 0.9375-0.14062 1.2852-0.47266 0.93359-0.39453 1.7148-0.88281 0.99219-0.44922 1.1367-0.82812 0.75391-0.23438 1.1523-0.44141 1.1055-1.0742 0.91797-0.99219 1.625-1.0977 0.57031-1.1367-0.12109-0.5 1.4609-1.1133 0.35547-1.4609 0.75-1.0195 0.8125-0.92969 0.36719-0.80078 0.75-0.5 1.0859-0.55859 1.1914-1.3516 0.34375-1.0859 1.0117-0.91406 0.48828-1.082 0.58203-0.96484 0.65234-0.875 0.88672-0.20312 1.0391-0.35938 0.99219-0.36328 1.5312-0.96875 0.80078-1.0234 0.14844-0.875 0.55469-1.1797 0.6875-0.86719 0.51562-0.78906 1.4961 0.011718 1.207-0.16406 0.98828-1.2812 0.88672-1.0508 0.72656-0.81641 0.64453-1.0078 0.55859-0.96484-0.60156-0.91016-0.55859-0.98047-0.66797-0.86328-0.53906-0.96484-0.56641-1.0273-0.65234-0.85938-0.53516-0.92188-0.50781-0.93359-0.54688-0.96484-0.55078-0.88672-0.56641-1.1445-0.62109-1.168-0.60547-0.90234-0.57812-0.94141-0.50391-0.93359-0.49609-0.87891-0.53125-0.96094-0.42578-0.92188-0.53906-0.91406-0.45703-0.94141-0.5-0.92188-0.49609-0.97266-0.52344-0.96094-0.51172-0.91016-0.48438-0.90625-0.46094-0.88672-0.52344-0.91797-0.46484-1.0156-0.5-0.90234-0.49219-0.9375-0.45703-0.96875-0.52734-0.99219-0.4375-0.98047-0.45312-0.90234-0.47266-0.92188-0.39844-1.0117-0.078125-1.0039 0.23047-0.75781-0.67578 0.37891-0.93359-0.32422-0.97656-0.98047-0.22266-0.76953-0.65625-0.99219-0.17969-0.0625-1.0156-0.15625-1.0078-1.0977-0.21094-1-0.09375-0.84766 0.67188-0.99219 0.14453-0.91016-0.80078-1.1445 0.19922-0.64453-0.96875 0.13281-1.0938-0.96875-0.42578-0.90625 0.84766-0.44141-1.0039-0.89453-0.46484-1 0.4375-0.97656 0.35938-1.1289 0.0625-0.71484-0.78125-0.53906-1.0117-0.82031-1.1602-0.14062-1.1172 0.55469-1.1211 0.14453-1.168-0.085938-1.0195 0.74609-1.1367 0.78125-0.92969 0.003906-1.0664-0.58594-1.1445-0.97656-0.28906-0.21484-1.0938 0.078125-1.6094-0.24609-1.0039 0.054687-1.1992-0.34375-1.0625-0.67969-0.99609-0.66406-0.95312-0.55469-1.0547 0.027343-1.4141-0.69141-0.76953-0.24219-1.0547 0.24219-1.0938-0.12891-1.3594 0.83984-1.0234 0.64453-0.92188 0.41406-1.5-0.67188-1.9961 0.10547-1.1016 0.19922-1.5039 0.054687-1.5742-0.70312-1.6992 0.089844-1.1641-0.17188-1.4492-0.92188-0.55078-0.058594-1.1211 0.87891-0.75781 0.93359-0.76172 0.24609-1.4258 0.16016-1.2734 0.93359-0.58984 0.32422-0.95312-0.43359-1.0547-0.64453-0.83203 0.40234-1.2539 0.66797-1.0234 1.0039 0.23438-0.10938-1.5977 0.25391-1.043 0.43359-1.2852 0.52734-1.1055 1.418-1.6133 0.64844-1.2227 0.18359-1.3828 0.33594-1.4102 0.65234-0.80859 0.24219-1.0625 0.83984-2.418 0.46094-0.94141 0.125-2.0312 0.46875-0.88281 0.9375-0.82422 0.70703-1.0938 1.0938-0.92578 2.3125-1.375 0.6875-1.1914-0.23047-1.2656-0.17188-1.0977 0.76953-2.2227 1.1758-3.5391 0.86719-2.5195 1.375-4.207 1.1289-3.2891 1.9297-5.793 1.375-4.0742 0.98438-2.9766 1.0273-3.0781 0.54297-1.6367 0.60156-1.2148 0.59766-1.2539 0.8125-0.8125 0.78125-0.67188 1.0664-1.5625 0.72656-1.0938 0.75391-1.2539 0.55078-0.91406 1.2266-1.9883 1-1.6602 0.79297-1.332 0.83203-1.207 1.2656-1.6836 0.86719-1.2383 2.0664-2.8477 1.1445-1.7578 0.87109-1.2266 0.86328-1.2383 2.4727-3.4102 2.0234-2.6445 0.62109-0.79297 0.91797-1.3984 0.69141-0.85156 0.89844-1.2188 0.76953-1.1602 1.1836-1.75 0.83594-1.293 1.832-2.5 1.5898-2.2539 1.2422-1.7422 2.1797-3.3477 1.7852-2.4961 1.5039-2 0.95703-1.2734 0.71875-0.85938 0.98828-1.3906 1.668-2.2734 2.1328-3.0469 2.3555-3.0586 1.0273-1.3281 0.73047-1.0586 1.2188-2.0781 1.207-2 0.69141-1.2266h1.1445" fill="none" stroke="#fff" stroke-linecap="round" stroke-linejoin="round" stroke-miterlimit="10" stroke-width="2"/>
<path d="m327.26 23.168 0.34766 0.11719 1.0273 0.42969 1.2461-0.035156 1.2461 0.070312 1.0859 0.4375 1.0195-0.125 0.99219-0.29688 1.1602 0.58594 0.47656 0.91406 1.1094 0.17578 1.1562 0.70312 1.1914-0.10156 1.4023-0.44922 1.6055 0.58984 1.2305 0.61328 1.2969 0.66406 0.94531 0.48438 1.1094 0.40234 0.87891 0.71875 1.7734 0.93359 1 0.41016 1.1367 0.52344 0.30859 1.5664 1.1719 0.10547 0.97266-0.78516 0.74609-0.67188 1.2461-0.42188 1.0078-0.71875 0.71875-0.76562 0.76953-0.94922 0.94531-1.2148 0.87891-0.83984 0.94141-0.93359 0.70312-0.78906 1.5625 0.51953 1.0469 0.73438 1.9453 0.76562 1.6641 1.4023 0.78516 1.0195 0.77344 1.4297 1.125 1.0039 1.3594 1.1992 0.47656 1.3672 0.19141 1.8086 0.058593 1.2266 0.17188 1.5039 0.95703 0.67188 0.94141 0.52344 0.16797 1.2109 0.41406 1.2383-0.30078 1.0938-0.12891 1.0352-0.19531 0.99219-0.16016 1.4531-0.007813 1.6484 0.30859 1.0469 0.50391 1.3633 0.75391 0.88281 1.0195 0.19141 1.2891 0.042969 1.3398 0.41016 1.2891 0.98047 0.76562 0.73438 1.1367 0.61328 0.68359 0.91797 0.73438 1.1484 0.18359 1.3086-0.35156 0.95703-0.46094 1.0781-0.29297 1.125 1.1953 0.90625 0.38672 1.125 0.64844 0.99219 1.1914 0.64453 1.2188 0.84375 0.88672 0.9375 0.54297 0.9375 0.64453 0.84766 1.0156 0.55078 1.2617 0.0625 1.1328 0.3125 1.5898 0.35156 1.3359-0.66406 1.207-0.3125 1.1211-0.35156 1.1836-0.38281 1.0117-0.39453 1.1289 0.29297 0.99609 0.097657 1.5664-0.066407 0.96484-0.33594 0.98828-0.625 0.98047-0.24609 1.25 0.13672 1.1484-0.10938 0.70312-1.0156 0.69141-1.2891 0.85938-0.87891 1.082 0.09375 1.1211 0.84766 1.1406-0.5 0.71875-1.4688 0.17578-1.1758 0.51562-1.2344 0.40625-0.98438-0.13672-1.1094-0.73438-0.71875-0.76953-0.79688-0.27344-1 0.32812-0.94531 0.69141-1.5039 0.14844-1.0781 0.96484-1.3711 1.3281-0.33984 1.3398-0.46094 1.7031-0.046875 1.6094-0.40234 1.1797 0.40234 0.99219 0.99219 1.1758 0.80078 1.1367 0.82812 1.0859 0.82422 0.94922 0.71875 0.57031 1.0508 0.64453 1.2578-0.57031 1.582-0.42188 1.2383-0.51953 1.0508-0.30469 0.97266 0.14062 1.2617-0.41016 1.2812-0.10938 1.9805 0.61719 1.2734 0.27734 1.3047 0.20703 1.1953-0.23047 1.3047 0.125 1.0625-0.44922 1.625-0.84375 0.96094-0.60156 1.1016-0.56641 0.92578-0.26172 1.0781 0.50781 1.4648-0.27344 1.5664-0.41797 1.2188-0.95312 0.6875-0.47656 1.5586-0.019531 1.082-0.61328 0.85156-0.89844 0.63281-1 0.90234-0.91406 1.4805-0.40625 1.3555 0.14844 1.1484-0.26953 1.3945 0.13672 1.2695-0.29297 1.5 0.042969 1.0039 0.52344 1.4023 0.058594 1.6719 0.035156 1.332 0.375 1.2266 0.38672 0.96875 1.168 0.43359 0.46094 0.94922 0.94922 1.0156 0.70703 1.0703-0.95703 0.91406-1.1602 0.99219-0.5625 0.97656-0.17969 1.5898 0.17188 2.1367-0.16016 2.1055 0.074219 1.375 0.17578 1.0508-0.16406 1.3945-0.13672 1.0703 0.87891 2.8867 0.50781 1.2852 0.27734 1.4414 0.86328 1.6016 0.28125 1.1523 0.19141 1.0273 0.71875 1.3516 0.5625 1.2227 0.64062 1.3672 0.78125 1.1875 1.5547 1.1836 1.4375 1.0391 0.74219 0.96484 0.52734 0.88672 0.035156 1.0312-0.42578 1.5-0.63672 1.1172-0.28516 1.4883-0.14453 0.99609 0.070313 1.4375-0.11328 1.3125 0.042968 1.0391 0.34375 1.0078 0.20703 1.4531-0.61719 1.4688-1.3789 1-0.69141 1.1406-1.1562 0.95703-1.7422 0.65234-1.5586-0.03125-1.293-0.074219-1.1641 0.72266 0.27344 1.6953-1.2148 0.16797-1.2656-0.042969-1.1523-0.24609-1.0234 0.43359-1.5781 0.042969-1.4805 0.48828-1.5898 1.2812-0.99219 0.97656 0.011718 1.6562 0.03125 1.4609-1.082 1.0312-1.0625 1.1367-0.91406 1.4492 0.21484 1.2578 0.55469 1.2773 0.48828 1.0938 0.96094 1.1133 0.96094 0.65625 1.2969 0.066406 1.1758 0.085938 1.332-0.1875 1.5312-0.22656 1.0547-0.46484 1.1562-0.90625 0.82422-0.65234 1.3242 0.066406 1.7266 0.46094 1.0781 0.56641 0.73047 0.68359 1.5039 0.49219 1.5625-0.24609 1.3945-0.80078 1.832-1.2344 1.0352-0.66016 1.5508-0.14062 1.6055 0.054687 0.97656 0.43359 1.5781-0.46094 1.1484-0.10938 0.97656 0.31641 0.99219 0.31641 1.1953 0.97656 0.69922 0.94922 0.32031 1.0781-0.48047 1.957-0.023438 1.2266 0.35156 0.9375 1.2266 0.74609 0.98438 0.61328 1.4258 0.83203 0.96484 0.82812 0.65234 0.89844 0.78516 0.99609-0.046875 1.3086-0.77344 0.95703-0.96484 0.95312-0.71094 0.96094 0.25391 1.2461 0.30078 1.3945-0.25 1.1836 0.26562 1.043 0.18359 1 0.56641 0.82812 0.89844 0.59375 0.91406 1.0703 0.41016 1.4336 0.058594 1.293 0.32031 1.4258 0.28125 1.0039 0.17188 1.3008-0.03125 1.0938 0.68359 1.0195 0.17969 1.2695 0.65625 0.92578 1.1016-0.15234 2.0234-0.22266 1.3906-0.13281 1.3164-0.48438 1.168-0.55859 0.35547-1.125 1.1055-0.46875 1.2344-0.53125 0.96094 0.39062-0.13672 1.418 0.69531 1.1992 1.1406 0.98828 1.1875 0.99219 1.2383 0.44531 1.1094 0.19531 1.3164 0.33203 1.5508-0.12109 1.8438-0.67188 1.4727-0.74609 1.2656-0.47266 1.1289 0.078125 1.0938 1.3086 0.625 1.5234 1.0938 1.5391 0.97656 1.1953 3.3281 2.4609 3.1953 1.8594 0.71484 0.77734 0.046875 1.4922-2.8906 4.375-0.81641 2.2227-0.71875 1.3086-1.3828 0.4375-1.3867 0.16797-1.3438 1.0938-0.87891 0.90234-0.94531 0.67188-0.96875 0.39844-1.4453 0.35547-1.4297-0.33594-0.67188-0.81641-1.3008-0.60938-0.98438-0.1875-0.88281 1.1523-1.5117 1.4297-1.6797 1.3203-1.4297 0.44141-1.2578 0.79688-1.9766 0.51172-1.8047-0.14062-1.1367 0.035156-1.1641 0.54297-0.66797 0.81641-1.9727 1.5273-1.2266 0.66797-1.7461 0.66797-2.0469 0.51953-1.375 1.0781-2.043 0.85547-1.3711 0.55859-1.4883 1.2266-1.2266 1.1523-0.78125 0.74219-1.0039 0.33594-2.082 1.5977-1.0781 1.3008-1.043 1.7852-1.0391 1.9336-0.78125 0.625-1.5703 0.27734-1.4492-0.64453-1.6719-1.332-2.5977-0.82812-1.3867-0.67969-1.0352-0.44922-0.96875-0.65234-1.2383-0.93359-0.72656-1.1367-1.0703-0.625-2.1016-0.10156-2.7656-0.86328-1.2031-0.55078-2.1406-0.48438-1.2461-0.035156-2.1172 0.03125-1.2891-0.20312-1.3438-0.29297-2.9688-2.5352-1.9062-0.64062-0.96484-0.66016-0.74609-1.3555-0.80078-0.91016-1.1602 0.19141-1.6484 1.8086-1.043 0.74219-1.5312 0.46875-2.2695-0.71094-1.4023 0.25781-1.8203-0.070313-1.8398-0.39844-1.8359-0.29688-1.7461-0.44922-1.3906-0.44531-4.625-0.54297-4.8047-0.21875-2.5078-0.35156-1.9727-0.41406-2.2305-0.24609-2.6367-0.054687-3.8555 0.32031-2.0664-0.007812-1.3242-0.8125-0.80859-0.61719-0.88281-0.64453-1.2344-0.50781-1.6055-0.32031-1.9336-0.16406-2.0898-0.34766-1.4375-0.44141-1.4609 0.42969-1.2227 0.79297-0.83203 0.60156-1.5039 0.87891-1.4609 1.3281-0.875 1.3711-0.71094 1.0469-0.18359 1.0117-0.79297 1.0781-3.9258 0.45312-4.3008 0.11328-1.6484 0.14844-2.3945 0.67578-1.5703 0.93359-0.93359 0.71094-1.4609 0.63672-2.1875 0.0625-2.0039 0.03125-1.1055-0.14844-1.918-0.26953h-1.4102l-1.668 0.20703-1.2305-0.058594-1.1094-0.98828-0.72266-1.3984-1.5195-0.57422-1.1797 0.37891-1.0898 0.80859-0.60156 1.3047-0.57031 1.2148-1.6445 1.7188-1.2695 0.71484-0.77344 0.95703-1.1562 0.58594-1.4141 0.67188-1.0078 0.36719-1.0742 0.21875-1.5586-0.51953-2.2305-1.5625-1.1094-0.45312-1.5273 0.32031-1.9609-0.33594-1.4961-0.015625-1.1562-0.11719-1.0586-0.4375-1.5703-0.39844-1.4453-0.48047-1.4023 0.28125-0.97656 0.56641-1.7578 0.80859-1.1641 0.99219-1.0898 1.293-0.22266 2.1445-0.16016 1.2812-0.48047 1.2383-0.71094 1.0234-0.85547-0.99219-0.125-1.0117-0.96875 0.58984 0.035156 1.1133-0.53516 0.85156-1.082-0.92969-1.7578-0.16797-1.9727 0.17969-2.1836 0.21875-1.0781 0.37891-1.3203 1.2305-0.64062 0.97266-1.4961 1.0117-1.668 0.51953-1.3438 0.21094-2.9219-0.82812-2.8008-0.83594-1.7188-0.53516-1.6797-0.65234-2.25-0.73828-2.168-0.98047-1.5547-0.53125-1.4688-0.85938-0.52344-1.0547-0.57031-1.375-0.23047-1.0195-0.83984-1.332-1.4453-0.71875-1.5391-0.64062-0.88672-1.1562 0.41406-1.3203 0.60547-1.9297 0.10156-1.0195 0.24219-1.6172 0.27734-1.0664 0.48438-1.0352 0.62109-1.8086 0.58594-1.7109 0.82031-1.3242 1.0898-1.2227 0.90234-1.7422 0.25391-0.97266 0.10156-2.0273-0.21875-0.98828-0.50391-1.4414-0.17969-1.5391-0.15625-1.375-0.71875-1.3242-0.28516-1.1875-0.31641-1.0234-0.53516-1.3242-0.58984-1.4414-0.58594-1.3203-0.15234-1.0078-0.066406-1.0547-0.60156-1.1211-1.1172-0.22656-1.4102 0.058594-1.2734 0.88672-1.0586-0.11719-1.2539-0.3125-1.4102 0.14453-1.5078 0.48828-1.1016 0.23438-1.8828-0.26953-1.5234-0.65625-1.2539-0.21484-1.1094-0.10156-1.0195-0.11719-1.0391-0.11719-1.9609 0.13281-1.6758-0.30078-0.39062-1.1992-0.67188-1.5469-0.44922-1.0391-0.32812-1.6758 0.38281-1.5742 0.88281-0.54688 0.88672-0.57812 0.58984-1.375 0.17188-1.0273 0.81641-1.0469 0.34766-1.1875 0.22656-1.5352 0.023437-1.3555-0.54688-1.1172 0.71484-0.97656-0.41016-1.0859-0.49609-0.96484 0.6875-0.875 1.1328-0.40234 1.0508-0.44922 1.207-0.39844 1.0156-0.41016 0.75-0.78516 0.55078-1.0117 0.60547-1.2227 0.63672-1.7852 0.10938-1.1875-1.207-0.94531-1.3008-1.2266-0.52344-0.85547-0.50781-1.3242-0.52344-0.90234-1.7266-0.23828-1.4766 0.046875-1.8633-0.38672-1.4414-0.33594-1.5156-0.60547-1.2969-0.85156-1.0742-0.46094-1.168-0.14844-1.3438-0.58984-1.3867-0.77734-1.4492-0.125-0.95312 0.38672-0.61328-1.3203 0.039063-1.0898-0.71484-0.99219-0.078125-1.207 0.25781-1.1836-0.36328-1.1328-0.99609-0.72656-1.9453-1.3359-0.82812-0.64453-0.70312-0.8125-0.46484-1.1523-0.082031-1.3477-0.59766-1.0469-0.91797-0.78516-0.80469-0.62109-1.0312-0.85547-0.72266-0.91016-1.0391-1.1641-0.58203-1.4961 0.10547-1.2383 0.32031-1.1758-0.042969-1.332-1.0742-0.92969-0.59766-1.0078 0.085937-1.4531 1.1406-1.2344 0.78516-1.0234 0.32422-1.3828-0.86328-1.0312-1.6133-2.1914-0.62891-0.87891-0.98047-0.39844-0.054688-1.0039 0.80859-1.1797 2.0898-0.84375 1.0039-1.4688 1.0508-1.2461 1.3008-0.78906 1.332-0.375 0.87891-0.73047 0.64453-0.82031 0.21875-1.0234 1.1641-0.65625 0.87891-1.1914-0.058594-1.2852 1.2422-0.33984 1.1289-0.44922 0.59375-1.2461 0.73438-0.75781 0.32031 1.2969 1.832 0.88281 1.6133 0.72266 1.3438 0.0625 1.4648 0.22656 1.0938 0.039063 1.6758 0.58203 1.2148 0.67969 1.4492 0.125 1.1562 1.0117 0.57812 0.86719 0.45312 0.99219 1.3438 0.99219 1.1367 1.4414 0.26562 1.3438 0.10547 2.0273 0.99219 1.1328 0.90625 0.58203 1.1797 0.53516 1.6523 0.92969 0.94531 1.4492 0.71094 1.5703 0.5625 1.1953 1.082 0.82031 0.78906 1.1602 1.3008 1.3008 1.0664 0.15234 1.4922-0.48047 1.7383 0.90625 0.84375 0.64062 2.3164-1.1445 3.2344-2.2422 2.3438-2.1992 1.1328-0.67969 0.90625-0.80469 1.3555-0.74609 1.1602-0.90234 0.44922-1 0.64844-0.90234 0.71094-0.74219 1.0312-1.1289 0.77344-0.77344 0.51562-1.0352 0.64453-1.2891 1.2617-1.0977 0.83594-0.55078 1-0.71094 1.1953-0.77344 1.4883-0.64453 1.9023 0.38672 0.90234 1.3242 1.6484 0.90234 1.3008 0.21875 1.1289 1.3125 0.375 1.0195 0.53516 1.4492 0.88672 1.0352 2.5195 1.2266 1.9961 0.12891h1.457l1.4141 0.77344 1.3164 0.41016 1.8828 0.72266 1 0.16016 1.0664 0.22656 1 0.25391 0.18359 1.2305 1.1016 0.77734 1.4219 0.21484 1.5547 0.32031 1.207 0.37891h1.0469l0.44531-1.2344 0.10156-1.1836 0.60938-1.0742-0.35547-1.5898 0.40625-1.1445 0.019531-1.0547-0.40234-1.0195-0.87891-0.98438-0.19922-1.9766-0.43359-1.0273-0.21484-1.0039-0.32031-1.2812-0.10938-1.3047-1.0859-1.0234-0.86719-1.6133-0.33594-1.0391-0.66016-0.86328-0.34766-0.96094 0.015625-1.1406-0.56641-1.1094-0.20312-1.0586-0.35938-1.1445-0.10547-1.1211 0.73047-0.875 0.52734-0.96875 0.51953-1.1992 0.089844-1.3789 0.59375-1.0742 0.097656-1.4023 0.44141-1.3203 0.11328-1.9648-0.10547-1.2344 0.12891-1.1641 0.43359-1.1523 0.71484-1.0898 0.10156-1.8672-0.36719-1.8359-0.050781-1.1484 0.67188-1.0508 0.33203-1.4219 0.28516-1.3047-0.22656-1.1406 0.37891-1.3359 1.1875-0.89453 0.85938-0.60547 1.332-1.1055 1.293-0.035156 1.2773-1.1875 0.94922-1.168 0.30859-1.0234 0.80469-0.75 0.48828-1.4492 0.61328-0.95703 0.74219-0.89453 0.042969-1.2891 0.16797-1.2734-0.42188-1.3164-0.44141-1.5352 0.14844-1.4727 0.44141-1.3477 0.39844-1.4648 0.097656-1.0859-0.28516-1.8164-0.40234-1.9375-0.046875-2.457 0.21094-1.3477 0.49609-0.89453 0.33203-1.6328 0.32812-1.5352 0.71094-1.6758 0.027344-1.6055 0.23438-1.25 0.82422-1.2539 0.56641-1.4883 0.14062-1.1328 0.027343-1.0156 0.25781-1.0625 1.1328-1.0391 0.71094-1.043 0.070312-1.1328-0.58984-0.82422-0.40234-1.3711-0.68359-0.96875-0.61328-0.94531 0.33203-1.2031 1.0586-0.66016 1.0898-1.4648 0.35547-0.96875 0.089844-1.582-0.28125-1.2461 1.3516-0.11328h1.7422l1.1484-0.28906 1.3828-0.66797 0.98438-0.24219 1.1016-0.91016 0.52734-0.98047 1.3203-0.41406 1.375 0.40625 1.1719 1.1016 1.2109 0.99609 0.64062 0.96094-0.070312 1.8477 1.3555-0.17578 0.30469-1.5273 0.074219-1.082 0.63281-0.89453 0.89844-1.1328 0.70703-0.77344 0.77344-0.83984 0.45312-1.125 0.1875-1.1289 0.64062-1.2773 0.39453-0.99609 1.0352-0.67578 1.3438-0.17578 1.0156-0.35547 1.082-0.20312z" fill="#ccc" fill-rule="evenodd"/>
<path d="m327.26 23.168 0.34766 0.11719 1.0273 0.42969 1.2461-0.035156 1.2461 0.070312 1.0859 0.4375 1.0195-0.125 0.99219-0.29688 1.1602 0.58594 0.47656 0.91406 1.1094 0.17578 1.1562 0.70312 1.1914-0.10156 1.4023-0.44922 1.6055 0.58984 1.2305 0.61328 1.2969 0.66406 0.94531 0.48438 1.1094 0.40234 0.87891 0.71875 1.7734 0.93359 1 0.41016 1.1367 0.52344 0.30859 1.5664 1.1719 0.10547 0.97266-0.78516 0.74609-0.67188 1.2461-0.42188 1.0078-0.71875 0.71875-0.76562 0.76953-0.94922 0.94531-1.2148 0.87891-0.83984 0.94141-0.93359 0.70312-0.78906 1.5625 0.51953 1.0469 0.73438 1.9453 0.76562 1.6641 1.4023 0.78516 1.0195 0.77344 1.4297 1.125 1.0039 1.3594 1.1992 0.47656 1.3672 0.19141 1.8086 0.058593 1.2266 0.17188 1.5039 0.95703 0.67188 0.94141 0.52344 0.16797 1.2109 0.41406 1.2383-0.30078 1.0938-0.12891 1.0352-0.19531 0.99219-0.16016 1.4531-0.007813 1.6484 0.30859 1.0469 0.50391 1.3633 0.75391 0.88281 1.0195 0.19141 1.2891 0.042969 1.3398 0.41016 1.2891 0.98047 0.76562 0.73438 1.1367 0.61328 0.68359 0.91797 0.73438 1.1484 0.18359 1.3086-0.35156 0.95703-0.46094 1.0781-0.29297 1.125 1.1953 0.90625 0.38672 1.125 0.64844 0.99219 1.1914 0.64453 1.2188 0.84375 0.88672 0.9375 0.54297 0.9375 0.64453 0.84766 1.0156 0.55078 1.2617 0.0625 1.1328 0.3125 1.5898 0.35156 1.3359-0.66406 1.207-0.3125 1.1211-0.35156 1.1836-0.38281 1.0117-0.39453 1.1289 0.29297 0.99609 0.097657 1.5664-0.066407 0.96484-0.33594 0.98828-0.625 0.98047-0.24609 1.25 0.13672 1.1484-0.10938 0.70312-1.0156 0.69141-1.2891 0.85938-0.87891 1.082 0.09375 1.1211 0.84766 1.1406-0.5 0.71875-1.4688 0.17578-1.1758 0.51562-1.2344 0.40625-0.98438-0.13672-1.1094-0.73438-0.71875-0.76953-0.79688-0.27344-1 0.32812-0.94531 0.69141-1.5039 0.14844-1.0781 0.96484-1.3711 1.3281-0.33984 1.3398-0.46094 1.7031-0.046875 1.6094-0.40234 1.1797 0.40234 0.99219 0.99219 1.1758 0.80078 1.1367 0.82812 1.0859 0.82422 0.94922 0.71875 0.57031 1.0508 0.64453 1.2578-0.57031 1.582-0.42188 1.2383-0.51953 1.0508-0.30469 0.97266 0.14062 1.2617-0.41016 1.2812-0.10938 1.9805 0.61719 1.2734 0.27734 1.3047 0.20703 1.1953-0.23047 1.3047 0.125 1.0625-0.44922 1.625-0.84375 0.96094-0.60156 1.1016-0.56641 0.92578-0.26172 1.0781 0.50781 1.4648-0.27344 1.5664-0.41797 1.2188-0.95312 0.6875-0.47656 1.5586-0.019531 1.082-0.61328 0.85156-0.89844 0.63281-1 0.90234-0.91406 1.4805-0.40625 1.3555 0.14844 1.1484-0.26953 1.3945 0.13672 1.2695-0.29297 1.5 0.042969 1.0039 0.52344 1.4023 0.058594 1.6719 0.035156 1.332 0.375 1.2266 0.38672 0.96875 1.168 0.43359 0.46094 0.94922 0.94922 1.0156 0.70703 1.0703-0.95703 0.91406-1.1602 0.99219-0.5625 0.97656-0.17969 1.5898 0.17188 2.1367-0.16016 2.1055 0.074219 1.375 0.17578 1.0508-0.16406 1.3945-0.13672 1.0703 0.87891 2.8867 0.50781 1.2852 0.27734 1.4414 0.86328 1.6016 0.28125 1.1523 0.19141 1.0273 0.71875 1.3516 0.5625 1.2227 0.64062 1.3672 0.78125 1.1875 1.5547 1.1836 1.4375 1.0391 0.74219 0.96484 0.52734 0.88672 0.035156 1.0312-0.42578 1.5-0.63672 1.1172-0.28516 1.4883-0.14453 0.99609 0.070313 1.4375-0.11328 1.3125 0.042968 1.0391 0.34375 1.0078 0.20703 1.4531-0.61719 1.4688-1.3789 1-0.69141 1.1406-1.1562 0.95703-1.7422 0.65234-1.5586-0.03125-1.293-0.074219-1.1641 0.72266 0.27344 1.6953-1.2148 0.16797-1.2656-0.042969-1.1523-0.24609-1.0234 0.43359-1.5781 0.042969-1.4805 0.48828-1.5898 1.2812-0.99219 0.97656 0.011718 1.6562 0.03125 1.4609-1.082 1.0312-1.0625 1.1367-0.91406 1.4492 0.21484 1.2578 0.55469 1.2773 0.48828 1.0938 0.96094 1.1133 0.96094 0.65625 1.2969 0.066406 1.1758 0.085938 1.332-0.1875 1.5312-0.22656 1.0547-0.46484 1.1562-0.90625 0.82422-0.65234 1.3242 0.066406 1.7266 0.46094 1.0781 0.56641 0.73047 0.68359 1.5039 0.49219 1.5625-0.24609 1.3945-0.80078 1.832-1.2344 1.0352-0.66016 1.5508-0.14062 1.6055 0.054687 0.97656 0.43359 1.5781-0.46094 1.1484-0.10938 0.97656 0.31641 0.99219 0.31641 1.1953 0.97656 0.69922 0.94922 0.32031 1.0781-0.48047 1.957-0.023438 1.2266 0.35156 0.9375 1.2266 0.74609 0.98438 0.61328 1.4258 0.83203 0.96484 0.82812 0.65234 0.89844 0.78516 0.99609-0.046875 1.3086-0.77344 0.95703-0.96484 0.95312-0.71094 0.96094 0.25391 1.2461 0.30078 1.3945-0.25 1.1836 0.26562 1.043 0.18359 1 0.56641 0.82812 0.89844 0.59375 0.91406 1.0703 0.41016 1.4336 0.058594 1.293 0.32031 1.4258 0.28125 1.0039 0.17188 1.3008-0.03125 1.0938 0.68359 1.0195 0.17969 1.2695 0.65625 0.92578 1.1016-0.15234 2.0234-0.22266 1.3906-0.13281 1.3164-0.48438 1.168-0.55859 0.35547-1.125 1.1055-0.46875 1.2344-0.53125 0.96094 0.39062-0.13672 1.418 0.69531 1.1992 1.1406 0.98828 1.1875 0.99219 1.2383 0.44531 1.1094 0.19531 1.3164 0.33203 1.5508-0.12109 1.8438-0.67188 1.4727-0.74609 1.2656-0.47266 1.1289 0.078125 1.0938 1.3086 0.625 1.5234 1.0938 1.5391 0.97656 1.1953 3.3281 2.4609 3.1953 1.8594 0.71484 0.77734 0.046875 1.4922-2.8906 4.375-0.81641 2.2227-0.71875 1.3086-1.3828 0.4375-1.3867 0.16797-1.3438 1.0938-0.87891 0.90234-0.94531 0.67188-0.96875 0.39844-1.4453 0.35547-1.4297-0.33594-0.67188-0.81641-1.3008-0.60938-0.98438-0.1875-0.88281 1.1523-1.5117 1.4297-1.6797 1.3203-1.4297 0.44141-1.2578 0.79688-1.9766 0.51172-1.8047-0.14062-1.1367 0.035156-1.1641 0.54297-0.66797 0.81641-1.9727 1.5273-1.2266 0.66797-1.7461 0.66797-2.0469 0.51953-1.375 1.0781-2.043 0.85547-1.3711 0.55859-1.4883 1.2266-1.2266 1.1523-0.78125 0.74219-1.0039 0.33594-2.082 1.5977-1.0781 1.3008-1.043 1.7852-1.0391 1.9336-0.78125 0.625-1.5703 0.27734-1.4492-0.64453-1.6719-1.332-2.5977-0.82812-1.3867-0.67969-1.0352-0.44922-0.96875-0.65234-1.2383-0.93359-0.72656-1.1367-1.0703-0.625-2.1016-0.10156-2.7656-0.86328-1.2031-0.55078-2.1406-0.48438-1.2461-0.035156-2.1172 0.03125-1.2891-0.20312-1.3438-0.29297-2.9688-2.5352-1.9062-0.64062-0.96484-0.66016-0.74609-1.3555-0.80078-0.91016-1.1602 0.19141-1.6484 1.8086-1.043 0.74219-1.5312 0.46875-2.2695-0.71094-1.4023 0.25781-1.8203-0.070313-1.8398-0.39844-1.8359-0.29688-1.7461-0.44922-1.3906-0.44531-4.625-0.54297-4.8047-0.21875-2.5078-0.35156-1.9727-0.41406-2.2305-0.24609-2.6367-0.054687-3.8555 0.32031-2.0664-0.007812-1.3242-0.8125-0.80859-0.61719-0.88281-0.64453-1.2344-0.50781-1.6055-0.32031-1.9336-0.16406-2.0898-0.34766-1.4375-0.44141-1.4609 0.42969-1.2227 0.79297-0.83203 0.60156-1.5039 0.87891-1.4609 1.3281-0.875 1.3711-0.71094 1.0469-0.18359 1.0117-0.79297 1.0781-3.9258 0.45312-4.3008 0.11328-1.6484 0.14844-2.3945 0.67578-1.5703 0.93359-0.93359 0.71094-1.4609 0.63672-2.1875 0.0625-2.0039 0.03125-1.1055-0.14844-1.918-0.26953h-1.4102l-1.668 0.20703-1.2305-0.058594-1.1094-0.98828-0.72266-1.3984-1.5195-0.57422-1.1797 0.37891-1.0898 0.80859-0.60156 1.3047-0.57031 1.2148-1.6445 1.7188-1.2695 0.71484-0.77344 0.95703-1.1562 0.58594-1.4141 0.67188-1.0078 0.36719-1.0742 0.21875-1.5586-0.51953-2.2305-1.5625-1.1094-0.45312-1.5273 0.32031-1.9609-0.33594-1.4961-0.015625-1.1562-0.11719-1.0586-0.4375-1.5703-0.39844-1.4453-0.48047-1.4023 0.28125-0.97656 0.56641-1.7578 0.80859-1.1641 0.99219-1.0898 1.293-0.22266 2.1445-0.16016 1.2812-0.48047 1.2383-0.71094 1.0234-0.85547-0.99219-0.125-1.0117-0.96875 0.58984 0.035156 1.1133-0.53516 0.85156-1.082-0.92969-1.7578-0.16797-1.9727 0.17969-2.1836 0.21875-1.0781 0.37891-1.3203 1.2305-0.64062 0.97266-1.4961 1.0117-1.668 0.51953-1.3438 0.21094-2.9219-0.82812-2.8008-0.83594-1.7188-0.53516-1.6797-0.65234-2.25-0.73828-2.168-0.98047-1.5547-0.53125-1.4688-0.85938-0.52344-1.0547-0.57031-1.375-0.23047-1.0195-0.83984-1.332-1.4453-0.71875-1.5391-0.64062-0.88672-1.1562 0.41406-1.3203 0.60547-1.9297 0.10156-1.0195 0.24219-1.6172 0.27734-1.0664 0.48438-1.0352 0.62109-1.8086 0.58594-1.7109 0.82031-1.3242 1.0898-1.2227 0.90234-1.7422 0.25391-0.97266 0.10156-2.0273-0.21875-0.98828-0.50391-1.4414-0.17969-1.5391-0.15625-1.375-0.71875-1.3242-0.28516-1.1875-0.31641-1.0234-0.53516-1.3242-0.58984-1.4414-0.58594-1.3203-0.15234-1.0078-0.066406-1.0547-0.60156-1.1211-1.1172-0.22656-1.4102 0.058594-1.2734 0.88672-1.0586-0.11719-1.2539-0.3125-1.4102 0.14453-1.5078 0.48828-1.1016 0.23438-1.8828-0.26953-1.5234-0.65625-1.2539-0.21484-1.1094-0.10156-1.0195-0.11719-1.0391-0.11719-1.9609 0.13281-1.6758-0.30078-0.39062-1.1992-0.67188-1.5469-0.44922-1.0391-0.32812-1.6758 0.38281-1.5742 0.88281-0.54688 0.88672-0.57812 0.58984-1.375 0.17188-1.0273 0.81641-1.0469 0.34766-1.1875 0.22656-1.5352 0.023437-1.3555-0.54688-1.1172 0.71484-0.97656-0.41016-1.0859-0.49609-0.96484 0.6875-0.875 1.1328-0.40234 1.0508-0.44922 1.207-0.39844 1.0156-0.41016 0.75-0.78516 0.55078-1.0117 0.60547-1.2227 0.63672-1.7852 0.10938-1.1875-1.207-0.94531-1.3008-1.2266-0.52344-0.85547-0.50781-1.3242-0.52344-0.90234-1.7266-0.23828-1.4766 0.046875-1.8633-0.38672-1.4414-0.33594-1.5156-0.60547-1.2969-0.85156-1.0742-0.46094-1.168-0.14844-1.3438-0.58984-1.3867-0.77734-1.4492-0.125-0.95312 0.38672-0.61328-1.3203 0.039063-1.0898-0.71484-0.99219-0.078125-1.207 0.25781-1.1836-0.36328-1.1328-0.99609-0.72656-1.9453-1.3359-0.82812-0.64453-0.70312-0.8125-0.46484-1.1523-0.082031-1.3477-0.59766-1.0469-0.91797-0.78516-0.80469-0.62109-1.0312-0.85547-0.72266-0.91016-1.0391-1.1641-0.58203-1.4961 0.10547-1.2383 0.32031-1.1758-0.042969-1.332-1.0742-0.92969-0.59766-1.0078 0.085937-1.4531 1.1406-1.2344 0.78516-1.0234 0.32422-1.3828-0.86328-1.0312-1.6133-2.1914-0.62891-0.87891-0.98047-0.39844-0.054688-1.0039 0.80859-1.1797 2.0898-0.84375 1.0039-1.4688 1.0508-1.2461 1.3008-0.78906 1.332-0.375 0.87891-0.73047 0.64453-0.82031 0.21875-1.0234 1.1641-0.65625 0.87891-1.1914-0.058594-1.2852 1.2422-0.33984 1.1289-0.44922 0.59375-1.2461 0.73438-0.75781 0.32031 1.2969 1.832 0.88281 1.6133 0.72266 1.3438 0.0625 1.4648 0.22656 1.0938 0.039063 1.6758 0.58203 1.2148 0.67969 1.4492 0.125 1.1562 1.0117 0.57812 0.86719 0.45312 0.99219 1.3438 0.99219 1.1367 1.4414 0.26562 1.3438 0.10547 2.0273 0.99219 1.1328 0.90625 0.58203 1.1797 0.53516 1.6523 0.92969 0.94531 1.4492 0.71094 1.5703 0.5625 1.1953 1.082 0.82031 0.78906 1.1602 1.3008 1.3008 1.0664 0.15234 1.4922-0.48047 1.7383 0.90625 0.84375 0.64062 2.3164-1.1445 3.2344-2.2422 2.3438-2.1992 1.1328-0.67969 0.90625-0.80469 1.3555-0.74609 1.1602-0.90234 0.44922-1 0.64844-0.90234 0.71094-0.74219 1.0312-1.1289 0.77344-0.77344 0.51562-1.0352 0.64453-1.2891 1.2617-1.0977 0.83594-0.55078 1-0.71094 1.1953-0.77344 1.4883-0.64453 1.9023 0.38672 0.90234 1.3242 1.6484 0.90234 1.3008 0.21875 1.1289 1.3125 0.375 1.0195 0.53516 1.4492 0.88672 1.0352 2.5195 1.2266 1.9961 0.12891h1.457l1.4141 0.77344 1.3164 0.41016 1.8828 0.72266 1 0.16016 1.0664 0.22656 1 0.25391 0.18359 1.2305 1.1016 0.77734 1.4219 0.21484 1.5547 0.32031 1.207 0.37891h1.0469l0.44531-1.2344 0.10156-1.1836 0.60938-1.0742-0.35547-1.5898 0.40625-1.1445 0.019531-1.0547-0.40234-1.0195-0.87891-0.98438-0.19922-1.9766-0.43359-1.0273-0.21484-1.0039-0.32031-1.2812-0.10938-1.3047-1.0859-1.0234-0.86719-1.6133-0.33594-1.0391-0.66016-0.86328-0.34766-0.96094 0.015625-1.1406-0.56641-1.1094-0.20312-1.0586-0.35938-1.1445-0.10547-1.1211 0.73047-0.875 0.52734-0.96875 0.51953-1.1992 0.089844-1.3789 0.59375-1.0742 0.097656-1.4023 0.44141-1.3203 0.11328-1.9648-0.10547-1.2344 0.12891-1.1641 0.43359-1.1523 0.71484-1.0898 0.10156-1.8672-0.36719-1.8359-0.050781-1.1484 0.67188-1.0508 0.33203-1.4219 0.28516-1.3047-0.22656-1.1406 0.37891-1.3359 1.1875-0.89453 0.85938-0.60547 1.332-1.1055 1.293-0.035156 1.2773-1.1875 0.94922-1.168 0.30859-1.0234 0.80469-0.75 0.48828-1.4492 0.61328-0.95703 0.74219-0.89453 0.042969-1.2891 0.16797-1.2734-0.42188-1.3164-0.44141-1.5352 0.14844-1.4727 0.44141-1.3477 0.39844-1.4648 0.097656-1.0859-0.28516-1.8164-0.40234-1.9375-0.046875-2.457 0.21094-1.3477 0.49609-0.89453 0.33203-1.6328 0.32812-1.5352 0.71094-1.6758 0.027344-1.6055 0.23438-1.25 0.82422-1.2539 0.56641-1.4883 0.14062-1.1328 0.027343-1.0156 0.25781-1.0625 1.1328-1.0391 0.71094-1.043 0.070312-1.1328-0.58984-0.82422-0.40234-1.3711-0.68359-0.96875-0.61328-0.94531 0.33203-1.2031 1.0586-0.66016 1.0898-1.4648 0.35547-0.96875 0.089844-1.582-0.28125-1.2461 1.3516-0.11328h1.7422l1.1484-0.28906 1.3828-0.66797 0.98438-0.24219 1.1016-0.91016 0.52734-0.98047 1.3203-0.41406 1.375 0.40625 1.1719 1.1016 1.2109 0.99609 0.64062 0.96094-0.070312 1.8477 1.3555-0.17578 0.30469-1.5273 0.074219-1.082 0.63281-0.89453 0.89844-1.1328 0.70703-0.77344 0.77344-0.83984 0.45312-1.125 0.1875-1.1289 0.64062-1.2773 0.39453-0.99609 1.0352-0.67578 1.3438-0.17578 1.0156-0.35547 1.082-0.20312 0.96094 0.074219" fill="none" stroke="#fff" stroke-linecap="round" stroke-linejoin="round" stroke-miterlimit="10" stroke-width="2"/>
<path d="m214.04 212.14 0.98438 0.13281 1.0742-0.11719 1.9258 0.10156 1.0195 0.11719 1.1094 0.10156 1.2539 0.21484 1.5234 0.65625 1.8828 0.26953 1.1016-0.23438 1.0469-0.27734 1.082-0.3125 1.3906 0.070312 1.0898 0.28516 1.1367-0.20312 1.5078-0.65234 1.2734 0.03125 0.99219 0.55469 0.17969 1.7578 0.15234 1.0078 0.58594 1.3203 0.58984 1.4414 0.53516 1.3242 0.31641 1.0234 0.28516 1.1875 0.71875 1.3242 0.15625 1.375 0.17969 1.5391 0.50391 1.4414 0.21875 0.98828-0.015625 1.1406-0.33984 1.8594-0.51562 1.1211-0.9375 1.2422-0.95703 1.1875-0.98828 2.4492-0.32031 1.0352-0.54688 1.3047-0.51562 1.5703-0.24219 1.6172-0.10156 1.0195-0.28516 1.1055-0.60547 1.2422 0.066406 1.4531 1.4414 1.0078 1.5078 0.57031 1.2422 0.85547 0.55469 1.8828 0.57031 1.375 0.52344 1.0547 1.4688 0.85938 1.5547 0.53125 2.168 0.98047 2.25 0.73828 1.6797 0.65234 1.7188 0.53516 2.0039 0.55469-0.25391 1.8164-1.1719 1.1055-0.84766 0.92969-1.6484 1.7695-1.168 1.0898-0.91797 0.63281-1.6094 0.96484-0.98438 0.48047-1.5312 0.30078-1.5781 0.023438-0.91797 0.79297-0.82031 0.625-0.96484 0.48047-1.6055 0.69531-1.0703 0.26953-1.4453 0.58594-1.5781 0.86719-1.2227 0.33594-0.63672 1.5-0.98047 1.207-0.83594 0.57031-1.3594 1.1172-1.4141 0.77344-1.1172 0.15234-1.3984-0.52734-1.0469-0.32031-1.125-0.45703-1.1523 1.2617-1.1992 1.0156-1.0234 0.082031h-1.0938l-1.043 0.39844-0.75 1.3945-1.5273 0.98828-1.5234 0.42969-1.6094-0.40234-1.1484-1.043-1.2578 0.58984-0.13281 1.5508 0.26953 1.4727 0.39844 1.2852 0.48047 0.96094-1.7266-0.29297-0.88281-0.77734-1.4336-0.8125-2.1914-0.82812-1.3867-1.3125-1.8281-1.3633-0.98438-0.59375-2.4297-2.1719-0.86719-0.94922-0.94141-0.68359-0.73047-0.79688-0.92188-0.58984-0.85156-1.1211-0.75781-0.77344-1.0898-1.0391-0.83203-0.93359-1.5117-1.3438-0.66797-0.75391-0.71875-1.0469-1.4492-1.375-1.5742-1.3867-0.70703-0.85938-0.80469-0.60938-0.80078-0.72266-0.74219-0.71094-0.46875-0.89062 2.5977-2.1914 1.875-1.543 0.79688-0.65625-0.40625-1.125-0.18359-1.0781 0.41406-1.9062 1.3867-1.6758 0.75391-1.1055 0.39844-1.7617 0.11328-1.7188 0.55859-1.1055-0.67578-0.9375-1.3086-1.6133-0.64453-1.6719-0.79297-0.99219-0.54297-1.082 0.33594-1.3906 0.91797-0.61328 1.6172-0.88281 0.78516-0.78516-0.058593-1.5312-0.44531-1.3008-0.058594-1.1562 0.31641-0.95312 0.49609-1.1953 1.1758-0.54297 1.2812-0.14453 1.9766-0.82031 0.95312-0.46875 1.0469-0.72266 0.62891-0.80859 0.34766-1.0977 0.41406-1.0234 0.32422-1.1445-0.14062-1.2344-0.089844-1.1836 1.3438-1.2422 1.1016-0.92969 1.0312-0.76562 1.1172-0.51562 1.3516-0.21875 0.87891-0.90234 0.54688-0.94922 1.3594-0.84766 1.0703-0.41016 1.375-0.30078 1.375-0.71094 1.3633-0.46875 1.1445-0.41406 1.3984-0.38281 1.0742-0.26953z" fill="#ccc" fill-rule="evenodd"/>
<path d="m214.04 212.14 0.98438 0.13281 1.0742-0.11719 1.9258 0.10156 1.0195 0.11719 1.1094 0.10156 1.2539 0.21484 1.5234 0.65625 1.8828 0.26953 1.1016-0.23438 1.0469-0.27734 1.082-0.3125 1.3906 0.070312 1.0898 0.28516 1.1367-0.20312 1.5078-0.65234 1.2734 0.03125 0.99219 0.55469 0.17969 1.7578 0.15234 1.0078 0.58594 1.3203 0.58984 1.4414 0.53516 1.3242 0.31641 1.0234 0.28516 1.1875 0.71875 1.3242 0.15625 1.375 0.17969 1.5391 0.50391 1.4414 0.21875 0.98828-0.015625 1.1406-0.33984 1.8594-0.51562 1.1211-0.9375 1.2422-0.95703 1.1875-0.98828 2.4492-0.32031 1.0352-0.54688 1.3047-0.51562 1.5703-0.24219 1.6172-0.10156 1.0195-0.28516 1.1055-0.60547 1.2422 0.066406 1.4531 1.4414 1.0078 1.5078 0.57031 1.2422 0.85547 0.55469 1.8828 0.57031 1.375 0.52344 1.0547 1.4688 0.85938 1.5547 0.53125 2.168 0.98047 2.25 0.73828 1.6797 0.65234 1.7188 0.53516 2.0039 0.55469-0.25391 1.8164-1.1719 1.1055-0.84766 0.92969-1.6484 1.7695-1.168 1.0898-0.91797 0.63281-1.6094 0.96484-0.98438 0.48047-1.5312 0.30078-1.5781 0.023438-0.91797 0.79297-0.82031 0.625-0.96484 0.48047-1.6055 0.69531-1.0703 0.26953-1.4453 0.58594-1.5781 0.86719-1.2227 0.33594-0.63672 1.5-0.98047 1.207-0.83594 0.57031-1.3594 1.1172-1.4141 0.77344-1.1172 0.15234-1.3984-0.52734-1.0469-0.32031-1.125-0.45703-1.1523 1.2617-1.1992 1.0156-1.0234 0.082031h-1.0938l-1.043 0.39844-0.75 1.3945-1.5273 0.98828-1.5234 0.42969-1.6094-0.40234-1.1484-1.043-1.2578 0.58984-0.13281 1.5508 0.26953 1.4727 0.39844 1.2852 0.48047 0.96094-1.7266-0.29297-0.88281-0.77734-1.4336-0.8125-2.1914-0.82812-1.3867-1.3125-1.8281-1.3633-0.98438-0.59375-2.4297-2.1719-0.86719-0.94922-0.94141-0.68359-0.73047-0.79688-0.92188-0.58984-0.85156-1.1211-0.75781-0.77344-1.0898-1.0391-0.83203-0.93359-1.5117-1.3438-0.66797-0.75391-0.71875-1.0469-1.4492-1.375-1.5742-1.3867-0.70703-0.85938-0.80469-0.60938-0.80078-0.72266-0.74219-0.71094-0.46875-0.89062 2.5977-2.1914 1.875-1.543 0.79688-0.65625-0.40625-1.125-0.18359-1.0781 0.41406-1.9062 1.3867-1.6758 0.75391-1.1055 0.39844-1.7617 0.11328-1.7188 0.55859-1.1055-0.67578-0.9375-1.3086-1.6133-0.64453-1.6719-0.79297-0.99219-0.54297-1.082 0.33594-1.3906 0.91797-0.61328 1.6172-0.88281 0.78516-0.78516-0.058593-1.5312-0.44531-1.3008-0.058594-1.1562 0.31641-0.95312 0.49609-1.1953 1.1758-0.54297 1.2812-0.14453 1.9766-0.82031 0.95312-0.46875 1.0469-0.72266 0.62891-0.80859 0.34766-1.0977 0.41406-1.0234 0.32422-1.1445-0.14062-1.2344-0.089844-1.1836 1.3438-1.2422 1.1016-0.92969 1.0312-0.76562 1.1172-0.51562 1.3516-0.21875 0.87891-0.90234 0.54688-0.94922 1.3594-0.84766 1.0703-0.41016 1.375-0.30078 1.375-0.71094 1.3633-0.46875 1.1445-0.41406 1.3984-0.38281 1.0742-0.26953 0.97266 0.050781" fill="none" stroke="#fff" stroke-linecap="round" stroke-linejoin="round" stroke-miterlimit="10" stroke-width="2"/>
<path d="m204.15 173.86 0.33594 0.14453 0.89453 0.65625 0.98438 0.48828 1.1094 0.28516 1.1797 0.15234 1.7461 1.0625 1.8711 0.78906 1.4414 0.33594 1.8633 0.38672 1.0078 0.015625 1.3164-0.082032 1.1406 0.67969 0.48047 1.1484 0.8125 1.5117 0.83203 0.79688 1.0117 0.68359 0.71484 1.1836-0.55078 1.6523-0.72656 1.7969-0.67578 1.2656-0.75 0.78516-1.0156 0.41016-1.207 0.39844-1.0508 0.44922-1.0156 0.34375-0.80469 0.93359 0.49609 0.96484 0.41016 1.0859-0.75781 0.73828 0.58984 1.3555-0.023437 1.3555-0.22656 1.5352-0.34766 1.1875-0.66797 0.76562-0.32031 1.3086-0.33984 1.0938-1.1367 0.85938-0.88281 0.54688-0.38281 1.5742 0.32812 1.6758 0.44922 1.0391 0.64062 1.4453 0.42188 1.3008-1.3555 0.38672-1.3984 0.38281-1.1445 0.41406-1.3633 0.46875-0.9375 0.52734-1.1367 0.30469-1.7461 0.58984-0.97266 0.52734-0.93359 1.2695-0.87891 0.90234-1.3516 0.21875-1.1172 0.51562-1.0312 0.76562-1.1016 0.92969-1.1797 1-0.13672 0.99219 0.20312 1.668-0.32422 1.1445-0.41406 1.0234-0.34766 1.0977-0.62891 0.80859-1.0469 0.72266-0.95312 0.46875-1.0859 0.64062-1.457 0.17969-1.3398 0.26562-0.76953 0.94141-0.48438 1.1445-0.16406 0.98828 0.29688 1.1719 0.39062 1.3711-0.14062 1.2656-1.4961 0.91797-1.1719 0.69141-0.88672 1.0273 0.12891 1.3711 1.1758 1.4141 0.64453 1.6719 0.55469 1.375 1.1094 0.47656 0.28906 1-0.54297 1.7344-0.11719 1.8086-1.0117 1.668-1.5078 1.8555-0.41406 1.9062 0.18359 1.0781 0.45312 0.89844-0.84375 0.88281-1.875 1.543-1.8906 1.4883-0.74219 0.67578-0.81641-0.60156-0.57031-0.87109-0.82031-0.79688-0.65234-0.85156-0.61719-0.80469-0.67578-0.80078-0.62109-0.83594-0.71094-0.77344-0.60156-0.80078-0.63672-0.87109-0.74219-0.88281-0.76562-0.79297-0.66406-0.75391-0.53906-1.2539-0.68359-0.85156-0.78516-0.91016-0.75-0.79688-0.67578-0.83203-0.83594-0.82422-0.6875-0.86328-0.71094-0.76953-0.89062-1.1836-0.79688-1.1328-1.3086-1.2031-0.90234-0.72656-1.0469-0.92188-0.83984-0.83984-0.90625-0.4375-0.90625-0.93359-0.86719-0.52734-1.5508-1.2461-1.9844-1.2617-0.83594-0.72266-2.1016-1.4844-0.14062-1.1133 0.81641-0.64453 1.0508-0.72656 1.2812-0.88672 0.16406-0.98828-0.011718-1.207 0.28906-1.2539 1.3672-0.75781 1.1797-0.6875 0.875-0.55469 1.0234-0.14844 0.96875-0.80078 0.15234-1.0195 0.625-0.85938-0.125-1.1172 1.1484-1.4531 0.96484-0.65234 1.082-0.58203 0.91406-0.48828 1.0859-1.0117 1.3516-0.34375 0.49219-0.89844 0.48438-1.2227 1.0273-0.31641 0.21094-0.98438 1.4141-0.53906 0.74219-0.70703 1.6289-0.28516 0.50781-1.2031 1.0586-0.38281 1.2891-0.62891 0.38672-1.2188 1.3828-0.80078 0.72656-1.125 0.44922-1.1992 0.70703-1.0273 0.29688-0.97656 0.92188-0.73828 0.45312-1.5781 0.50391-1.4141 0.32031-1.2109 0.125-1.0938 1.207-0.29297 1.0117-0.78906 0.10938-1.1758 0.26562-1.0273 0.92578-0.83984 0.28125-1.0586 1.125-1.1641 0.68359-0.76172-0.14453-1.1484 1.0742-1.0547 1.1562-0.55859 1.1953-0.69141 1.125-0.90625 0.30469-1.0234 0.35547-1.2656 0.90625-1.4102 1.9531-0.32422 1.2461 0.0625 1.2852-0.035156 1.1211-0.23828 1-0.48828 0.62109-0.99609 0.70703-1.1211 0.42578-1.1719 0.039062-1.1484 1.0781-0.64453 0.95312-0.38672z" fill="#ccc" fill-rule="evenodd"/>
<path d="m204.15 173.86 0.33594 0.14453 0.89453 0.65625 0.98438 0.48828 1.1094 0.28516 1.1797 0.15234 1.7461 1.0625 1.8711 0.78906 1.4414 0.33594 1.8633 0.38672 1.0078 0.015625 1.3164-0.082032 1.1406 0.67969 0.48047 1.1484 0.8125 1.5117 0.83203 0.79688 1.0117 0.68359 0.71484 1.1836-0.55078 1.6523-0.72656 1.7969-0.67578 1.2656-0.75 0.78516-1.0156 0.41016-1.207 0.39844-1.0508 0.44922-1.0156 0.34375-0.80469 0.93359 0.49609 0.96484 0.41016 1.0859-0.75781 0.73828 0.58984 1.3555-0.023437 1.3555-0.22656 1.5352-0.34766 1.1875-0.66797 0.76562-0.32031 1.3086-0.33984 1.0938-1.1367 0.85938-0.88281 0.54688-0.38281 1.5742 0.32812 1.6758 0.44922 1.0391 0.64062 1.4453 0.42188 1.3008-1.3555 0.38672-1.3984 0.38281-1.1445 0.41406-1.3633 0.46875-0.9375 0.52734-1.1367 0.30469-1.7461 0.58984-0.97266 0.52734-0.93359 1.2695-0.87891 0.90234-1.3516 0.21875-1.1172 0.51562-1.0312 0.76562-1.1016 0.92969-1.1797 1-0.13672 0.99219 0.20312 1.668-0.32422 1.1445-0.41406 1.0234-0.34766 1.0977-0.62891 0.80859-1.0469 0.72266-0.95312 0.46875-1.0859 0.64062-1.457 0.17969-1.3398 0.26562-0.76953 0.94141-0.48438 1.1445-0.16406 0.98828 0.29688 1.1719 0.39062 1.3711-0.14062 1.2656-1.4961 0.91797-1.1719 0.69141-0.88672 1.0273 0.12891 1.3711 1.1758 1.4141 0.64453 1.6719 0.55469 1.375 1.1094 0.47656 0.28906 1-0.54297 1.7344-0.11719 1.8086-1.0117 1.668-1.5078 1.8555-0.41406 1.9062 0.18359 1.0781 0.45312 0.89844-0.84375 0.88281-1.875 1.543-1.8906 1.4883-0.74219 0.67578-0.81641-0.60156-0.57031-0.87109-0.82031-0.79688-0.65234-0.85156-0.61719-0.80469-0.67578-0.80078-0.62109-0.83594-0.71094-0.77344-0.60156-0.80078-0.63672-0.87109-0.74219-0.88281-0.76562-0.79297-0.66406-0.75391-0.53906-1.2539-0.68359-0.85156-0.78516-0.91016-0.75-0.79688-0.67578-0.83203-0.83594-0.82422-0.6875-0.86328-0.71094-0.76953-0.89062-1.1836-0.79688-1.1328-1.3086-1.2031-0.90234-0.72656-1.0469-0.92188-0.83984-0.83984-0.90625-0.4375-0.90625-0.93359-0.86719-0.52734-1.5508-1.2461-1.9844-1.2617-0.83594-0.72266-2.1016-1.4844-0.14062-1.1133 0.81641-0.64453 1.0508-0.72656 1.2812-0.88672 0.16406-0.98828-0.011718-1.207 0.28906-1.2539 1.3672-0.75781 1.1797-0.6875 0.875-0.55469 1.0234-0.14844 0.96875-0.80078 0.15234-1.0195 0.625-0.85938-0.125-1.1172 1.1484-1.4531 0.96484-0.65234 1.082-0.58203 0.91406-0.48828 1.0859-1.0117 1.3516-0.34375 0.49219-0.89844 0.48438-1.2227 1.0273-0.31641 0.21094-0.98438 1.4141-0.53906 0.74219-0.70703 1.6289-0.28516 0.50781-1.2031 1.0586-0.38281 1.2891-0.62891 0.38672-1.2188 1.3828-0.80078 0.72656-1.125 0.44922-1.1992 0.70703-1.0273 0.29688-0.97656 0.92188-0.73828 0.45312-1.5781 0.50391-1.4141 0.32031-1.2109 0.125-1.0938 1.207-0.29297 1.0117-0.78906 0.10938-1.1758 0.26562-1.0273 0.92578-0.83984 0.28125-1.0586 1.125-1.1641 0.68359-0.76172-0.14453-1.1484 1.0742-1.0547 1.1562-0.55859 1.1953-0.69141 1.125-0.90625 0.30469-1.0234 0.35547-1.2656 0.90625-1.4102 1.9531-0.32422 1.2461 0.0625 1.2852-0.035156 1.1211-0.23828 1-0.48828 0.62109-0.99609 0.70703-1.1211 0.42578-1.1719 0.039062-1.1484 1.0781-0.64453 0.95312-0.38672 1.1133-0.019532" fill="none" stroke="#fff" stroke-linecap="round" stroke-linejoin="round" stroke-miterlimit="10" stroke-width="2"/>
<path d="m486.49 226.49 0.11719 0.56641 0.34766 1.2578 1.2188 0.67578 1.1094 0.41797 0.91016 0.44531 1.418 0.80859 0.20312 1.0156 0.44531 1.0938 0.44531 1.2617-0.042968 1.418-0.57031 1.4531-0.32812 0.97266 0.95703 0.92188 1.0469 0.13672 1.1094 0.52734 0.44531 1.5703 0.13672 1.2031 0.03125 1.1328 1.3555 1.2266 1.1211 0.79688 1.0312 0.73828-0.32031 1.918-1.0977 2.2148-0.52734 1.1797-0.62109 0.88672-1.8906 1.5664-1.125 0.91406-0.15234 1.3984-0.87109 0.70703-0.82422 0.72266 0.082031 1.2852 0.79297 0.67578 0.015625 1.2031-0.55469 1.3711-1.4414 1.2344-1.1328 0.47656-1.2734 1.2344-0.67969 1.0703-0.28906 1.2148-1.4844 1.8086-1.4219 0.92969-1.7734 0.92578-1.957 0.90234-2.1484 0.94141-2.3477 0.99609-1.707 0.35547-1.8633 0.86719-2.1211 2.0898-2.2539 2.7344-1.0586 1.6094-2.5938 4.4961-2.2812 3.5586-3.4297 3.5586-2.2148 2.6875-3.9648 3.1562-1.3438 1.0781-0.94141 1.0742-1.3945 1.8789-1.5156 1.3516-1.8789 1.1523-1.6797 1.0977-2.2969 2.1914-1.2305 1.5781-0.99609 2.9805-1.3008 2.9492-2.3945 3.9023-0.73828 1.4648-1.418 1.7109-0.93359 0.75391-1.0273 0.75391-1.6172 0.6875-0.93359 0.46875-0.93359 0.55469-1.5781 0.80859-0.73828 1.1094-0.66406 1.4141-0.59766 0.98047-0.86719 0.79688-1.1836 0.17188-1.2344 0.13672-1.2578 0.30078-1.5352-0.14844-1.4023-0.32422-1.8672-0.046875-2.207 0.43359-2.1836 0.83203-1.332 1.3125-0.52734 0.94922-0.21484 1.3008-0.66406 1.6484-0.96484 1.0742-1.2227 0.43359-1.0586 0.8125-1.4609 1.0117-0.53906 0.98047-0.375 0.96875-0.61328 1.0117-0.70703 1.1445-0.375 1.0977-1.1328 0.92578-0.84766 0.85156-1.6328 0.99219-0.92969-0.39844h-1.293l-0.68359-0.74219-0.44141-0.99609-1.1797-0.10938-1.0508-0.015625-1.0078 0.10938-0.28125-1.0742-0.050781-1.0234-0.59766-0.84375-0.4375-1.3984-0.45703-1.0625-0.86719-0.65625-0.75-0.66797-1.1562-0.34766-0.99609-0.48438-1.418-0.60938-1.5234-0.38672-0.83594 0.75781-1.2227-0.41016-1.0234-0.13281-0.10156 1.3633-1.0469 0.84766-0.69531 0.76562-0.96094-1.2422v-1.418l-0.28516-1.1719-0.26562-1.6758-1.0977-1.125-0.27344-1.1641-1.3789-0.82812-0.94531-0.51953-1.0547-0.16797-0.75781 0.71094-0.90234-0.51172-0.69531 1.0234-0.38672 1.3242-1.1484 0.019531-0.95703 0.43359-0.83203-0.62109-0.79297 0.69531-0.98438-0.56641-0.92188-0.70703-0.92969-0.53906-0.69922 0.78516-1.0508 0.53516-0.39844 0.95312-1.0234-0.17188-0.71094 0.77734-1.2539-0.69141-1.0352-0.88281-0.60547-0.85547-0.44531-1.4336-1.2344-0.23047-1.5391-0.16797-1.1094-0.32812-1.6289-0.33984-1.1406-0.38281-1.1133-0.1875-1.2891-0.71875-1.9961-0.55078-1.2344-0.51562-0.85938 0.53906-0.97656-0.35547-0.66797-0.83594-1.2461-0.67578-1.5469-0.46094-1.7188-0.59766-1.4727-0.50781-1.0898-0.52344-1.1289-0.61719-1.3164-0.46094-1.0938-0.39453-1.293-0.58594-0.9375-0.375-1.4883-0.69922-1.1133-0.39844-1.375-0.66406-1.6914-0.71875-2.1055-0.60938-1.6133-0.76562-1.1797-0.34766-1.4336-0.60156-0.92969-0.43359-1.7812-0.69922-1.0078-0.29688-0.99609-0.46484-1.2891-0.34766-1.3242-0.28516-1.3008-0.44922-0.89062-0.49609-1.043-0.46094-1.0977-0.42578-1.3828-0.44531-1.1602-0.43359-1.1562-0.41797-0.94141-0.33984-1.6289-0.32422-1.8125-0.69141-1.0039-0.17578-1.2773-0.39453-1.2383-0.5625-1.4453-0.23438-0.88281-0.52734-1.2266-0.34375-2.4258-0.61719-1.2305-0.35156-1.1992-0.23047-1.668-0.51172-1.4727-0.19531-1.2266-0.33203-1.2266-0.10938-1.5391-0.59375-1.5234-0.078125-1.4688-0.30469-1.0312-0.16797-2.4648-0.80469-1.1562-0.46875-1.2695-0.14844-1.4414-0.085938-2.2148-0.52734-1.543-0.14062-1.2539-0.3125-1.0234-0.058594-1.082-0.19922-1.3789-0.27344-1.3672-0.27734-1.5078-0.26953-1.4805-0.23438-1.7969-0.32812-0.97656-0.36328-1.0391 0.042969-1.082-0.085937-1.1133-0.42188-1.0547-0.042969-1.0703-0.22656-1.2539-0.20703-1.6211-0.35938-1.0742-0.33594-1.8398-0.56641-1.3789-0.078125-1.2227-0.46484-1.2812-0.10938-1.5508-0.42188-1.7305-0.50391-1.082-0.44141-1.3477-0.26562-1.7539-0.57031-1.1289-0.49609-1.1133-0.40234-1.1133-0.54297-1.3828-0.42188-1.7695-0.85547-1.6719-0.76172-1.0898-0.35938-0.96484-0.29688-2.0664-0.91797-1.582-0.66797-1.4297-0.72656-0.82812-0.76953-1.0195-0.91406-0.78516-1.1055-1.0234-1.1172-0.39844-1.2852-0.26953-1.4727 0.13281-1.5508 1.2578-0.58984 1.1484 1.043 0.88672 0.50781 1.3906-0.13281 1.7148-0.9375 1.0938-1.1484 0.58984-0.99219 1.8711-0.10547 1.0234-0.082031 0.85938-0.51562 0.79688-1.1172 1.1797-0.61328 0.96875 0.52734 1.8672 0.70312 1.3672-0.10938 1.4141-0.77344 1.3594-1.1172 0.83594-0.57031 0.98047-1.207 0.25781-1.2188 1.6016-0.61719 1.043-0.51562 1.1523-0.75 1.8984-0.45703 1.2227-0.51172 1.3477-0.66406 0.82031-0.625 0.91797-0.79297 1.5547-0.027344 1.5547-0.29688 0.98438-0.48047 1.6094-0.96484 0.91797-0.63281 1.168-1.0898 1.6484-1.7695 0.84766-0.92969 0.91016-0.76953 0.98828-1.5273 2.6875 0.61719 1.9023-0.34375 1.0547-0.27734 1.5234-0.72656 1.2266-1.5 0.64844-0.76562 0.95312-0.58203 2.9805-0.48047 1.9727-0.17969 1.7578 0.16797 1.082 0.92969 0.53516-0.85156-0.035156-1.1133 0.28516-1.0938 0.72266 1.082 0.27344 0.99219 1.1211-0.0625 0.46484-1.0664 0.43359-1.9805 0.13672-1.8516 0.59766-0.99609 1.3906-1.2852 1.2656-0.65625 1.5078-0.83984 1.3203-0.44922 1.1289 0.32031 2.2812 0.55078 1.0586 0.4375 1.1562 0.11719 1.4961 0.015625 1.2227 0.33594 1.5586-0.23438 1.8164 0.36719 1.4219 1.0078 1.4492 0.83984 1.3086 0.20312 1.6914-0.55469 1.4141-0.67188 1.1562-0.58594 0.77344-0.95703 1.2695-0.71484 1.0039-0.98438 1.2109-1.9492 0.60156-1.3047 1.0898-0.80859 1.1797-0.37891 1.0508 0.19141 0.80469 0.89062 0.77734 1.4883 1.9492 0.44922 1.668-0.20703h1.4102l1.918 0.26953 1.1055 0.14844 1.2266 0.03125 2.0312 0.023438 2.3945-0.78516 0.93359-0.71094 0.89453-0.71094 3.0703-0.89844 1.6484-0.14844 4.3008-0.11328 3.0312-0.1875 1.457-0.67188 0.26562-1.1602 0.37109-1.0078 0.87109-1.1406 1.3945-1.6289 2.0625-1.3711 0.83203-0.60156 1.2227-0.79297 0.90234-0.47266 1.9961 0.48438 2.0898 0.34766 1.9336 0.16406 1.6055 0.32031 1.2344 0.50781 0.88281 0.64453 0.80859 0.61719 1.2656 0.77734 2.125 0.042969 3.8555-0.32031 2.6367 0.054687 1.4062 0.24219 2.7969 0.41797 2.5078 0.35156 4.8047 0.21875 4.625 0.54297 1.3906 0.44531 1.7461 0.44922 1.8359 0.29688 1.8398 0.39844 1.8203 0.070313 1.4023-0.25781 1.707 0.70703 2.0938-0.46484 1.043-0.74219 0.93359-1.2031 1.1289-0.76953 1.2422 0.52734 0.63672 0.88281 0.57812 1.1289 2.707 1 2.1836 2.0469 1.5078 0.75 1.2656 0.21875 2.7617-0.015625 1.2461 0.035156 1.2773 0.13672 2.0664 0.89844 1.7969 0.65625 2.1055 0.30859 1.6914 0.27734 0.58594 0.93359 1.207 0.92969 1.4844 1.207 1.0352 0.44922 1.3867 0.67969 2.5977 0.82812 1.6719 1.332 1.4492 0.64453 1.5703-0.27734 0.78125-0.625 1.0391-1.9336 1.043-1.7852 1.0781-1.3008 1.1914-1.2266 1.8945-0.70703 0.78125-0.74219 1.2266-1.1523 1.4883-1.2266 1.3711-0.55859 2.043-0.85547 1.0781-1.0781 2.3438-0.51953 1.7461-0.66797 1.2266-0.66797 1.9727-1.5273 0.66797-0.81641 1.1641-0.54297 1.1367-0.035156 1.8047 0.14062 1.0742-0.19531 2.1602-1.1133 1.4297-0.44141 1.1719-0.73438 2.0195-2.0156 0.71484-1.0703 1.1523 0.10547 1.3008 0.60938 0.67188 0.81641 1.4297 0.33594 1.4453-0.35547 0.96875-0.39844 0.94531-0.67188 0.87891-0.90234 1.3438-1.0938 1.3867-0.16797 1.3828-0.4375 0.71875-1.3086z" fill="#ccc" fill-rule="evenodd"/>
<path d="m486.49 226.49 0.11719 0.56641 0.34766 1.2578 1.2188 0.67578 1.1094 0.41797 0.91016 0.44531 1.418 0.80859 0.20312 1.0156 0.44531 1.0938 0.44531 1.2617-0.042968 1.418-0.57031 1.4531-0.32812 0.97266 0.95703 0.92188 1.0469 0.13672 1.1094 0.52734 0.44531 1.5703 0.13672 1.2031 0.03125 1.1328 1.3555 1.2266 1.1211 0.79688 1.0312 0.73828-0.32031 1.918-1.0977 2.2148-0.52734 1.1797-0.62109 0.88672-1.8906 1.5664-1.125 0.91406-0.15234 1.3984-0.87109 0.70703-0.82422 0.72266 0.082031 1.2852 0.79297 0.67578 0.015625 1.2031-0.55469 1.3711-1.4414 1.2344-1.1328 0.47656-1.2734 1.2344-0.67969 1.0703-0.28906 1.2148-1.4844 1.8086-1.4219 0.92969-1.7734 0.92578-1.957 0.90234-2.1484 0.94141-2.3477 0.99609-1.707 0.35547-1.8633 0.86719-2.1211 2.0898-2.2539 2.7344-1.0586 1.6094-2.5938 4.4961-2.2812 3.5586-3.4297 3.5586-2.2148 2.6875-3.9648 3.1562-1.3438 1.0781-0.94141 1.0742-1.3945 1.8789-1.5156 1.3516-1.8789 1.1523-1.6797 1.0977-2.2969 2.1914-1.2305 1.5781-0.99609 2.9805-1.3008 2.9492-2.3945 3.9023-0.73828 1.4648-1.418 1.7109-0.93359 0.75391-1.0273 0.75391-1.6172 0.6875-0.93359 0.46875-0.93359 0.55469-1.5781 0.80859-0.73828 1.1094-0.66406 1.4141-0.59766 0.98047-0.86719 0.79688-1.1836 0.17188-1.2344 0.13672-1.2578 0.30078-1.5352-0.14844-1.4023-0.32422-1.8672-0.046875-2.207 0.43359-2.1836 0.83203-1.332 1.3125-0.52734 0.94922-0.21484 1.3008-0.66406 1.6484-0.96484 1.0742-1.2227 0.43359-1.0586 0.8125-1.4609 1.0117-0.53906 0.98047-0.375 0.96875-0.61328 1.0117-0.70703 1.1445-0.375 1.0977-1.1328 0.92578-0.84766 0.85156-1.6328 0.99219-0.92969-0.39844h-1.293l-0.68359-0.74219-0.44141-0.99609-1.1797-0.10938-1.0508-0.015625-1.0078 0.10938-0.28125-1.0742-0.050781-1.0234-0.59766-0.84375-0.4375-1.3984-0.45703-1.0625-0.86719-0.65625-0.75-0.66797-1.1562-0.34766-0.99609-0.48438-1.418-0.60938-1.5234-0.38672-0.83594 0.75781-1.2227-0.41016-1.0234-0.13281-0.10156 1.3633-1.0469 0.84766-0.69531 0.76562-0.96094-1.2422v-1.418l-0.28516-1.1719-0.26562-1.6758-1.0977-1.125-0.27344-1.1641-1.3789-0.82812-0.94531-0.51953-1.0547-0.16797-0.75781 0.71094-0.90234-0.51172-0.69531 1.0234-0.38672 1.3242-1.1484 0.019531-0.95703 0.43359-0.83203-0.62109-0.79297 0.69531-0.98438-0.56641-0.92188-0.70703-0.92969-0.53906-0.69922 0.78516-1.0508 0.53516-0.39844 0.95312-1.0234-0.17188-0.71094 0.77734-1.2539-0.69141-1.0352-0.88281-0.60547-0.85547-0.44531-1.4336-1.2344-0.23047-1.5391-0.16797-1.1094-0.32812-1.6289-0.33984-1.1406-0.38281-1.1133-0.1875-1.2891-0.71875-1.9961-0.55078-1.2344-0.51562-0.85938 0.53906-0.97656-0.35547-0.66797-0.83594-1.2461-0.67578-1.5469-0.46094-1.7188-0.59766-1.4727-0.50781-1.0898-0.52344-1.1289-0.61719-1.3164-0.46094-1.0938-0.39453-1.293-0.58594-0.9375-0.375-1.4883-0.69922-1.1133-0.39844-1.375-0.66406-1.6914-0.71875-2.1055-0.60938-1.6133-0.76562-1.1797-0.34766-1.4336-0.60156-0.92969-0.43359-1.7812-0.69922-1.0078-0.29688-0.99609-0.46484-1.2891-0.34766-1.3242-0.28516-1.3008-0.44922-0.89062-0.49609-1.043-0.46094-1.0977-0.42578-1.3828-0.44531-1.1602-0.43359-1.1562-0.41797-0.94141-0.33984-1.6289-0.32422-1.8125-0.69141-1.0039-0.17578-1.2773-0.39453-1.2383-0.5625-1.4453-0.23438-0.88281-0.52734-1.2266-0.34375-2.4258-0.61719-1.2305-0.35156-1.1992-0.23047-1.668-0.51172-1.4727-0.19531-1.2266-0.33203-1.2266-0.10938-1.5391-0.59375-1.5234-0.078125-1.4688-0.30469-1.0312-0.16797-2.4648-0.80469-1.1562-0.46875-1.2695-0.14844-1.4414-0.085938-2.2148-0.52734-1.543-0.14062-1.2539-0.3125-1.0234-0.058594-1.082-0.19922-1.3789-0.27344-1.3672-0.27734-1.5078-0.26953-1.4805-0.23438-1.7969-0.32812-0.97656-0.36328-1.0391 0.042969-1.082-0.085937-1.1133-0.42188-1.0547-0.042969-1.0703-0.22656-1.2539-0.20703-1.6211-0.35938-1.0742-0.33594-1.8398-0.56641-1.3789-0.078125-1.2227-0.46484-1.2812-0.10938-1.5508-0.42188-1.7305-0.50391-1.082-0.44141-1.3477-0.26562-1.7539-0.57031-1.1289-0.49609-1.1133-0.40234-1.1133-0.54297-1.3828-0.42188-1.7695-0.85547-1.6719-0.76172-1.0898-0.35938-0.96484-0.29688-2.0664-0.91797-1.582-0.66797-1.4297-0.72656-0.82812-0.76953-1.0195-0.91406-0.78516-1.1055-1.0234-1.1172-0.39844-1.2852-0.26953-1.4727 0.13281-1.5508 1.2578-0.58984 1.1484 1.043 0.88672 0.50781 1.3906-0.13281 1.7148-0.9375 1.0938-1.1484 0.58984-0.99219 1.8711-0.10547 1.0234-0.082031 0.85938-0.51562 0.79688-1.1172 1.1797-0.61328 0.96875 0.52734 1.8672 0.70312 1.3672-0.10938 1.4141-0.77344 1.3594-1.1172 0.83594-0.57031 0.98047-1.207 0.25781-1.2188 1.6016-0.61719 1.043-0.51562 1.1523-0.75 1.8984-0.45703 1.2227-0.51172 1.3477-0.66406 0.82031-0.625 0.91797-0.79297 1.5547-0.027344 1.5547-0.29688 0.98438-0.48047 1.6094-0.96484 0.91797-0.63281 1.168-1.0898 1.6484-1.7695 0.84766-0.92969 0.91016-0.76953 0.98828-1.5273 2.6875 0.61719 1.9023-0.34375 1.0547-0.27734 1.5234-0.72656 1.2266-1.5 0.64844-0.76562 0.95312-0.58203 2.9805-0.48047 1.9727-0.17969 1.7578 0.16797 1.082 0.92969 0.53516-0.85156-0.035156-1.1133 0.28516-1.0938 0.72266 1.082 0.27344 0.99219 1.1211-0.0625 0.46484-1.0664 0.43359-1.9805 0.13672-1.8516 0.59766-0.99609 1.3906-1.2852 1.2656-0.65625 1.5078-0.83984 1.3203-0.44922 1.1289 0.32031 2.2812 0.55078 1.0586 0.4375 1.1562 0.11719 1.4961 0.015625 1.2227 0.33594 1.5586-0.23438 1.8164 0.36719 1.4219 1.0078 1.4492 0.83984 1.3086 0.20312 1.6914-0.55469 1.4141-0.67188 1.1562-0.58594 0.77344-0.95703 1.2695-0.71484 1.0039-0.98438 1.2109-1.9492 0.60156-1.3047 1.0898-0.80859 1.1797-0.37891 1.0508 0.19141 0.80469 0.89062 0.77734 1.4883 1.9492 0.44922 1.668-0.20703h1.4102l1.918 0.26953 1.1055 0.14844 1.2266 0.03125 2.0312 0.023438 2.3945-0.78516 0.93359-0.71094 0.89453-0.71094 3.0703-0.89844 1.6484-0.14844 4.3008-0.11328 3.0312-0.1875 1.457-0.67188 0.26562-1.1602 0.37109-1.0078 0.87109-1.1406 1.3945-1.6289 2.0625-1.3711 0.83203-0.60156 1.2227-0.79297 0.90234-0.47266 1.9961 0.48438 2.0898 0.34766 1.9336 0.16406 1.6055 0.32031 1.2344 0.50781 0.88281 0.64453 0.80859 0.61719 1.2656 0.77734 2.125 0.042969 3.8555-0.32031 2.6367 0.054687 1.4062 0.24219 2.7969 0.41797 2.5078 0.35156 4.8047 0.21875 4.625 0.54297 1.3906 0.44531 1.7461 0.44922 1.8359 0.29688 1.8398 0.39844 1.8203 0.070313 1.4023-0.25781 1.707 0.70703 2.0938-0.46484 1.043-0.74219 0.93359-1.2031 1.1289-0.76953 1.2422 0.52734 0.63672 0.88281 0.57812 1.1289 2.707 1 2.1836 2.0469 1.5078 0.75 1.2656 0.21875 2.7617-0.015625 1.2461 0.035156 1.2773 0.13672 2.0664 0.89844 1.7969 0.65625 2.1055 0.30859 1.6914 0.27734 0.58594 0.93359 1.207 0.92969 1.4844 1.207 1.0352 0.44922 1.3867 0.67969 2.5977 0.82812 1.6719 1.332 1.4492 0.64453 1.5703-0.27734 0.78125-0.625 1.0391-1.9336 1.043-1.7852 1.0781-1.3008 1.1914-1.2266 1.8945-0.70703 0.78125-0.74219 1.2266-1.1523 1.4883-1.2266 1.3711-0.55859 2.043-0.85547 1.0781-1.0781 2.3438-0.51953 1.7461-0.66797 1.2266-0.66797 1.9727-1.5273 0.66797-0.81641 1.1641-0.54297 1.1367-0.035156 1.8047 0.14062 1.0742-0.19531 2.1602-1.1133 1.4297-0.44141 1.1719-0.73438 2.0195-2.0156 0.71484-1.0703 1.1523 0.10547 1.3008 0.60938 0.67188 0.81641 1.4297 0.33594 1.4453-0.35547 0.96875-0.39844 0.94531-0.67188 0.87891-0.90234 1.3438-1.0938 1.3867-0.16797 1.3828-0.4375 0.71875-1.3086 0.25391 0.64062" fill="none" stroke="#fff" stroke-linecap="round" stroke-linejoin="round" stroke-miterlimit="10" stroke-width="2"/>
<path d="m49.984 69.121 0.5625 0.074219 1.0352 0.64844 1.1523 0.51953 0.58594 0.92188 0.30469 1.5547 0.33594 1.4766 1.2148 1.4219 1.4766 0.28516 1.0078-0.33594 0.83594-0.64062 1.2461-0.39062 1.0391-0.12109 1.1484-0.28125 0.60547-0.88281 0.44141-1.082 0.77734-0.75781 1.2539-0.57812 1.1992-0.27734 1.2383-0.035156 0.73047-0.74609 1.0625-0.35547 1.1602 0.046875 1.0781 0.33203 1.1641 0.097656 1.2539 0.64844 1.1367-0.21094 1.4414 0.5 0.72266 0.96484 0.52344 1 1.2656 0.98047 1.2188 0.54688 1.4766 0.38281 1.2891 0.57422 0.69531 1.0781 0.78125 0.63672-0.007813 1.3281 1.4258-0.82812 1.168-1.1055h1.2383l1.3789-0.24219 1.1289 0.070313 1.1094 0.50391 1.3359-0.55859 0.94531-0.35156 1.2852 0.28906 1.2031 0.8125 1.0586 0.24609 1.1758 0.41797 1.0117 0.64062 0.71094 0.91016 0.050782 1.0312-0.24609 1.5 0.023437 1.043 1.0547 0.039062 1.6992-0.58984 1.1836-0.074219 0.98047 0.24609 1.2773-0.023438 1.3828 0.3125 1.4062-0.046875 1.3281 0.35156 1.0117 0.57812 1.0664 1.1875 1.1211 0.8125 1.3555-0.19922 1.0156-0.0625 2.3438 0.10938 1.2539-0.34766 1.2617 0.26172 1.0547 0.86719 0.41016 1.0664-1.4336 2.0977-0.8125 0.71484-0.8125 0.8125-0.59766 1.2539-0.60156 1.2148-0.54297 1.6367-1.0273 3.0781-0.98438 2.9766-1.375 4.0742-1.9297 5.793-1.1289 3.2891-1.375 4.207-0.86719 2.5195-1.1758 3.5391-0.76953 2.2227 0.17188 1.0977 0.23047 1.2656-0.48828 1.0273-1.707 1.1484-1.7617 1.0586-0.69141 0.77344-0.48828 0.99609-1.0703 1.2891-0.21875 1.0625-0.36719 1.9102-0.42969 1.6836-0.5625 1.2773-0.61719 0.93359-0.17188 1.0586-0.51172 1.1328-0.14844 1.5469-1.1055 1.6953-1.0508 0.86719-0.37891 1.1914-0.66016 1.0273 0.38281 1.8047-0.54688 0.94141-1.2109-0.15625-0.29688 1.3711 0.45312 1.4492 0.43359 1.0547-0.32422 0.95312-0.87109 0.49219-0.22266 1.3711-0.023437 1.0078-0.63281 0.88672-1.1523 0.71094-0.51953 0.89844 0.77344 0.67578 0.48047 1.418 0.070313 1.3125 0.30078 1.1289 0.28125 1.8555 0.015625 1.5156-0.30469 0.99609 0.77344 1.8828-0.51953 1.5586-0.23828 1.1016-0.56641 0.82031-0.67969 1.2344 0.14844 1.3516-0.13672 1.2656 0.6875 0.84375 0.17578 1.3984 0.53516 1.4336 0.66406 0.95312 0.67969 0.99609 0.34375 1.0625-0.046875 1.0664 0.23828 1.1367 0.23828 1.0547-0.26562 0.99219 0.86719 0.74219 0.85938 1.3477-0.003906 1.0664-0.78125 0.92969-0.74609 1.1367 0.085938 1.0195-0.14453 1.168-0.55469 1.1211 0.14062 1.1172 0.82031 1.1602 0.16016 1.2617-0.14062 1.1172-1.0156 0.12891-1.1875-0.71875-0.76953-0.78906 0.058594 1.1484-1.1719-0.35547-1.4375 0.59766-1.1562-0.375-0.94141-0.96875 0.24219 1.1797-0.10547 1.0078-1.0273-0.011719-1.0508 0.49219-0.99219-0.21875-1.043-0.24219-1.0586-0.27344-0.68359 0.94141-0.94141-0.46094-1.0938-0.66016-0.64453-1.0664-0.90234-0.49609-0.71094-0.71875-1.2109 0.65234-0.83203-0.80469-1.0391-0.44531-0.54297-1.1758-1.0781 0.125-1.4961-0.16016-1.3633-0.33594-0.89062 0.51172-0.87109 0.71875-0.89062 0.50391-0.875-0.51953-1 0.26562-0.41406 0.92188-1.0898-0.49609-0.98047-0.47266-1.0352-0.027344-0.125 1.0078-1.0547-0.375-0.46094-1.1055 0.64453-0.89844-0.38672-1.1484 0.14453-1.1055-0.30469-0.96484 1.0664-0.17969 1.0156-0.39844-0.35547-1.0234 0.44531-1.3594 0.88672-0.88281 1.8047-0.89844-0.34375-1.0703-1.1875-0.79297-0.83984-0.92188-0.79688-0.72266-0.35938-1.2539-0.9375 0.6875-1.2148-0.14453 0.042969-1.2812-0.72656-0.82031-0.14453-1.1562-1.1914-0.75781-0.89844-0.55469-0.76562-0.86719-0.71094-0.73047 0.59766-0.83594-1-0.074218-0.19531-1.0234 0.80078-0.64453 0.80469-1.0586 0.69922-0.77344-1.1367-0.18359-1.0703 0.082031-1.0352-0.14062-0.89453-1.168-1.2734 0.21484-1.1328 0.078125 0.13281 1.0273-1.0977 0.058594-1.5391-0.28125-0.32422-1.0312 0.37109-1.1914-0.98828-0.51953-1.0508 0.003906-0.51562 0.96484-1.0625-0.019531-0.85547-0.57422-0.80859-0.80859-1.3008-0.57031-0.19922-1.0664 0.74609-0.85938 0.85547-0.60547-1.0859-0.79297-1.1562 0.09375-1.0391-0.40234-0.99219 0.71875-0.019531-1.0352-0.31641-1.4961-1.0664 0.19141-0.99219-0.24609-1.1836-0.26172-1.0664-0.050781-0.20312-1.0664-0.72656-0.76562-0.19922-0.98047-1.0156-0.37109 0.95312-0.67188 0.38281-1.4258-0.09375-1.1953-0.62109-0.82422-1.3008 0.23828-1.1328-0.16797-0.97266 0.84766-1.0156 0.42578-1.0859-0.73047-0.73828-0.69531-0.48828-1.1484-1.0859-0.33203-0.73438-0.85547-0.85156-0.82422-0.10156 1.0742-0.82031 0.85547-0.42188-1.2031-0.03125-1.0352-0.23828-1.0859 0.1875-1.0156 0.41797-0.94531 0.24609-1.043 0.75781-1.1094 0.85547-0.73828 0.89844-1.0234 0.94141-0.92969 0.54688-1.2891-0.45703-1.2344 0.16016-1.332 0.074218-1.3203 0.19922-1.1289 1.2461-1.1406 1.3906-1.5391 0.76562-0.70312 0.44531-1.0977 0.35938-0.9375 0.59375-0.98438 0.5625-1.1875 0.94531-0.75781 0.96094-0.51562 3.4141-0.25391 1.1016-0.78906 1.7695-0.91016 1.625-1.2852 0.86328-0.90625 0.078125-1.0039 0.066406-1.0508-0.082031-1.207-1.1172-0.49609-0.82422-1.4141-1.3672-0.83594-1.2305-0.51953-0.70312-1-0.46094-1.0508-0.29688-1.4062-0.77344-0.78125-1.2344-0.41797-1.2031-0.47266-0.56641-1.1484-0.38672-0.98828-0.60547-0.94922-1.0664-1.0078-1.0664-0.75781-0.89453-0.61719-1.0938-0.42188-1.1211-0.16797-1.207-0.082032-1.5078-0.49219-0.89844-0.55859-1.2578-0.44922-1.2109-0.023437-1.8594-0.35938-0.96484-0.46875-1.3906-0.33594-1.25 0.058594-0.96484 0.30469-0.98828 0.23438-1.1641-0.48438-0.95312-1.2031-0.69922-1.0938-1.0039-0.32422-1.0078-0.10547-1.4531 0.015625-1.0039-0.35938-0.97266-0.75391-1.1133-0.054688-1.2344-0.035156-0.96484-0.42969-0.78906-0.71484 0.57812-0.92578 0.71094-0.76953 0.91406-0.875-0.054687-1.6953 0.015625-1.1406 0.625-0.90234 0.91406-0.97266 0.72656-0.76172 1.0703-0.66797 1.4414-0.18359-0.71484-1.0391-0.71094-0.74219-0.77734-1.1172-0.1875-1.1914-0.027343-1.0703 0.89453-1.1016 0.99219-0.80469 1.1211-0.97656 1.3633-0.71094 0.58594-0.89844 0.94531-0.55859 0.99219 0.21484 1.1953-0.26172 1.1758-0.40234 1.207 0.0625 1.1484 0.29297 1.1914-0.17188 1.1445-0.77344 1.2578-0.40234 0.94531-1.2539 1.3789-0.03125 0.51172 0.98828 1.1172 0.83984 1.3281-0.32422 1.0273-0.20312 1.4844-0.48047 0.78906-0.62109 1.0391-0.19922 1.1797 0.52344 0.77344 0.99609 1.3477-0.046875 1.1914-0.79297 0.98047-0.43359 1.125 0.074219 1.0703-0.14844 1.1562 0.22266 0.84766-1.1055 1.1758-1.4883 0.9375-0.84766 0.90234-0.88281 0.67969-1.0273 0.84766-1.3438 0.99219-0.60547 1.2656-1.125 0.73047-0.95312 0.57422-1.2109 1.2305-1.0156 0.77734-0.80859-0.066406-1.1641 0.16797-1.0938z" fill="#ccc" fill-rule="evenodd"/>
<path d="m49.984 69.121 0.5625 0.074219 1.0352 0.64844 1.1523 0.51953 0.58594 0.92188 0.30469 1.5547 0.33594 1.4766 1.2148 1.4219 1.4766 0.28516 1.0078-0.33594 0.83594-0.64062 1.2461-0.39062 1.0391-0.12109 1.1484-0.28125 0.60547-0.88281 0.44141-1.082 0.77734-0.75781 1.2539-0.57812 1.1992-0.27734 1.2383-0.035156 0.73047-0.74609 1.0625-0.35547 1.1602 0.046875 1.0781 0.33203 1.1641 0.097656 1.2539 0.64844 1.1367-0.21094 1.4414 0.5 0.72266 0.96484 0.52344 1 1.2656 0.98047 1.2188 0.54688 1.4766 0.38281 1.2891 0.57422 0.69531 1.0781 0.78125 0.63672-0.007813 1.3281 1.4258-0.82812 1.168-1.1055h1.2383l1.3789-0.24219 1.1289 0.070313 1.1094 0.50391 1.3359-0.55859 0.94531-0.35156 1.2852 0.28906 1.2031 0.8125 1.0586 0.24609 1.1758 0.41797 1.0117 0.64062 0.71094 0.91016 0.050782 1.0312-0.24609 1.5 0.023437 1.043 1.0547 0.039062 1.6992-0.58984 1.1836-0.074219 0.98047 0.24609 1.2773-0.023438 1.3828 0.3125 1.4062-0.046875 1.3281 0.35156 1.0117 0.57812 1.0664 1.1875 1.1211 0.8125 1.3555-0.19922 1.0156-0.0625 2.3438 0.10938 1.2539-0.34766 1.2617 0.26172 1.0547 0.86719 0.41016 1.0664-1.4336 2.0977-0.8125 0.71484-0.8125 0.8125-0.59766 1.2539-0.60156 1.2148-0.54297 1.6367-1.0273 3.0781-0.98438 2.9766-1.375 4.0742-1.9297 5.793-1.1289 3.2891-1.375 4.207-0.86719 2.5195-1.1758 3.5391-0.76953 2.2227 0.17188 1.0977 0.23047 1.2656-0.48828 1.0273-1.707 1.1484-1.7617 1.0586-0.69141 0.77344-0.48828 0.99609-1.0703 1.2891-0.21875 1.0625-0.36719 1.9102-0.42969 1.6836-0.5625 1.2773-0.61719 0.93359-0.17188 1.0586-0.51172 1.1328-0.14844 1.5469-1.1055 1.6953-1.0508 0.86719-0.37891 1.1914-0.66016 1.0273 0.38281 1.8047-0.54688 0.94141-1.2109-0.15625-0.29688 1.3711 0.45312 1.4492 0.43359 1.0547-0.32422 0.95312-0.87109 0.49219-0.22266 1.3711-0.023437 1.0078-0.63281 0.88672-1.1523 0.71094-0.51953 0.89844 0.77344 0.67578 0.48047 1.418 0.070313 1.3125 0.30078 1.1289 0.28125 1.8555 0.015625 1.5156-0.30469 0.99609 0.77344 1.8828-0.51953 1.5586-0.23828 1.1016-0.56641 0.82031-0.67969 1.2344 0.14844 1.3516-0.13672 1.2656 0.6875 0.84375 0.17578 1.3984 0.53516 1.4336 0.66406 0.95312 0.67969 0.99609 0.34375 1.0625-0.046875 1.0664 0.23828 1.1367 0.23828 1.0547-0.26562 0.99219 0.86719 0.74219 0.85938 1.3477-0.003906 1.0664-0.78125 0.92969-0.74609 1.1367 0.085938 1.0195-0.14453 1.168-0.55469 1.1211 0.14062 1.1172 0.82031 1.1602 0.16016 1.2617-0.14062 1.1172-1.0156 0.12891-1.1875-0.71875-0.76953-0.78906 0.058594 1.1484-1.1719-0.35547-1.4375 0.59766-1.1562-0.375-0.94141-0.96875 0.24219 1.1797-0.10547 1.0078-1.0273-0.011719-1.0508 0.49219-0.99219-0.21875-1.043-0.24219-1.0586-0.27344-0.68359 0.94141-0.94141-0.46094-1.0938-0.66016-0.64453-1.0664-0.90234-0.49609-0.71094-0.71875-1.2109 0.65234-0.83203-0.80469-1.0391-0.44531-0.54297-1.1758-1.0781 0.125-1.4961-0.16016-1.3633-0.33594-0.89062 0.51172-0.87109 0.71875-0.89062 0.50391-0.875-0.51953-1 0.26562-0.41406 0.92188-1.0898-0.49609-0.98047-0.47266-1.0352-0.027344-0.125 1.0078-1.0547-0.375-0.46094-1.1055 0.64453-0.89844-0.38672-1.1484 0.14453-1.1055-0.30469-0.96484 1.0664-0.17969 1.0156-0.39844-0.35547-1.0234 0.44531-1.3594 0.88672-0.88281 1.8047-0.89844-0.34375-1.0703-1.1875-0.79297-0.83984-0.92188-0.79688-0.72266-0.35938-1.2539-0.9375 0.6875-1.2148-0.14453 0.042969-1.2812-0.72656-0.82031-0.14453-1.1562-1.1914-0.75781-0.89844-0.55469-0.76562-0.86719-0.71094-0.73047 0.59766-0.83594-1-0.074218-0.19531-1.0234 0.80078-0.64453 0.80469-1.0586 0.69922-0.77344-1.1367-0.18359-1.0703 0.082031-1.0352-0.14062-0.89453-1.168-1.2734 0.21484-1.1328 0.078125 0.13281 1.0273-1.0977 0.058594-1.5391-0.28125-0.32422-1.0312 0.37109-1.1914-0.98828-0.51953-1.0508 0.003906-0.51562 0.96484-1.0625-0.019531-0.85547-0.57422-0.80859-0.80859-1.3008-0.57031-0.19922-1.0664 0.74609-0.85938 0.85547-0.60547-1.0859-0.79297-1.1562 0.09375-1.0391-0.40234-0.99219 0.71875-0.019531-1.0352-0.31641-1.4961-1.0664 0.19141-0.99219-0.24609-1.1836-0.26172-1.0664-0.050781-0.20312-1.0664-0.72656-0.76562-0.19922-0.98047-1.0156-0.37109 0.95312-0.67188 0.38281-1.4258-0.09375-1.1953-0.62109-0.82422-1.3008 0.23828-1.1328-0.16797-0.97266 0.84766-1.0156 0.42578-1.0859-0.73047-0.73828-0.69531-0.48828-1.1484-1.0859-0.33203-0.73438-0.85547-0.85156-0.82422-0.10156 1.0742-0.82031 0.85547-0.42188-1.2031-0.03125-1.0352-0.23828-1.0859 0.1875-1.0156 0.41797-0.94531 0.24609-1.043 0.75781-1.1094 0.85547-0.73828 0.89844-1.0234 0.94141-0.92969 0.54688-1.2891-0.45703-1.2344 0.16016-1.332 0.074218-1.3203 0.19922-1.1289 1.2461-1.1406 1.3906-1.5391 0.76562-0.70312 0.44531-1.0977 0.35938-0.9375 0.59375-0.98438 0.5625-1.1875 0.94531-0.75781 0.96094-0.51562 3.4141-0.25391 1.1016-0.78906 1.7695-0.91016 1.625-1.2852 0.86328-0.90625 0.078125-1.0039 0.066406-1.0508-0.082031-1.207-1.1172-0.49609-0.82422-1.4141-1.3672-0.83594-1.2305-0.51953-0.70312-1-0.46094-1.0508-0.29688-1.4062-0.77344-0.78125-1.2344-0.41797-1.2031-0.47266-0.56641-1.1484-0.38672-0.98828-0.60547-0.94922-1.0664-1.0078-1.0664-0.75781-0.89453-0.61719-1.0938-0.42188-1.1211-0.16797-1.207-0.082032-1.5078-0.49219-0.89844-0.55859-1.2578-0.44922-1.2109-0.023437-1.8594-0.35938-0.96484-0.46875-1.3906-0.33594-1.25 0.058594-0.96484 0.30469-0.98828 0.23438-1.1641-0.48438-0.95312-1.2031-0.69922-1.0938-1.0039-0.32422-1.0078-0.10547-1.4531 0.015625-1.0039-0.35938-0.97266-0.75391-1.1133-0.054688-1.2344-0.035156-0.96484-0.42969-0.78906-0.71484 0.57812-0.92578 0.71094-0.76953 0.91406-0.875-0.054687-1.6953 0.015625-1.1406 0.625-0.90234 0.91406-0.97266 0.72656-0.76172 1.0703-0.66797 1.4414-0.18359-0.71484-1.0391-0.71094-0.74219-0.77734-1.1172-0.1875-1.1914-0.027343-1.0703 0.89453-1.1016 0.99219-0.80469 1.1211-0.97656 1.3633-0.71094 0.58594-0.89844 0.94531-0.55859 0.99219 0.21484 1.1953-0.26172 1.1758-0.40234 1.207 0.0625 1.1484 0.29297 1.1914-0.17188 1.1445-0.77344 1.2578-0.40234 0.94531-1.2539 1.3789-0.03125 0.51172 0.98828 1.1172 0.83984 1.3281-0.32422 1.0273-0.20312 1.4844-0.48047 0.78906-0.62109 1.0391-0.19922 1.1797 0.52344 0.77344 0.99609 1.3477-0.046875 1.1914-0.79297 0.98047-0.43359 1.125 0.074219 1.0703-0.14844 1.1562 0.22266 0.84766-1.1055 1.1758-1.4883 0.9375-0.84766 0.90234-0.88281 0.67969-1.0273 0.84766-1.3438 0.99219-0.60547 1.2656-1.125 0.73047-0.95312 0.57422-1.2109 1.2305-1.0156 0.77734-0.80859-0.066406-1.1641 0.16797-1.0938 0.73828-0.5" fill="none" stroke="#fff" stroke-linecap="round" stroke-linejoin="round" stroke-miterlimit="10" stroke-width="2"/>
<path d="m204.15 173.86 0.33594 0.14453 0.89453 0.65625 0.98438 0.48828 1.1094 0.28516 1.1797 0.15234 1.7461 1.0625 1.8711 0.78906 1.4414 0.33594 1.8633 0.38672 1.0078 0.015625 1.3164-0.082032 1.1406 0.67969 0.48047 1.1484 0.8125 1.5117 0.83203 0.79688 1.0117 0.68359 0.71484 1.1836-0.55078 1.6523-0.72656 1.7969-0.67578 1.2656-0.75 0.78516-1.0156 0.41016-1.207 0.39844-1.0508 0.44922-1.0156 0.34375-0.80469 0.93359 0.49609 0.96484 0.41016 1.0859-0.75781 0.73828 0.58984 1.3555-0.023437 1.3555-0.22656 1.5352-0.34766 1.1875-0.66797 0.76562-0.32031 1.3086-0.33984 1.0938-1.1367 0.85938-0.88281 0.54688-0.38281 1.5742 0.32812 1.6758 0.44922 1.0391 0.64062 1.4453 0.42188 1.3008-1.3555 0.38672-1.3984 0.38281-1.1445 0.41406-1.3633 0.46875-0.9375 0.52734-1.1367 0.30469-1.7461 0.58984-0.97266 0.52734-0.93359 1.2695-0.87891 0.90234-1.3516 0.21875-1.1172 0.51562-1.0312 0.76562-1.1016 0.92969-1.1797 1-0.13672 0.99219 0.20312 1.668-0.32422 1.1445-0.41406 1.0234-0.34766 1.0977-0.62891 0.80859-1.0469 0.72266-0.95312 0.46875-1.0859 0.64062-1.457 0.17969-1.3398 0.26562-0.76953 0.94141-0.48438 1.1445-0.16406 0.98828 0.29688 1.1719 0.39062 1.3711-0.14062 1.2656-1.4961 0.91797-1.1719 0.69141-0.88672 1.0273 0.12891 1.3711 1.1758 1.4141 0.64453 1.6719 0.55469 1.375 1.1094 0.47656 0.28906 1-0.54297 1.7344-0.11719 1.8086-1.0117 1.668-1.5078 1.8555-0.41406 1.9062 0.18359 1.0781 0.45312 0.89844-0.84375 0.88281-1.875 1.543-1.8906 1.4883-0.74219 0.67578-0.81641-0.60156-0.57031-0.87109-0.82031-0.79688-0.65234-0.85156-0.61719-0.80469-0.67578-0.80078-0.62109-0.83594-0.71094-0.77344-0.60156-0.80078-0.63672-0.87109-0.74219-0.88281-0.76562-0.79297-0.66406-0.75391-0.53906-1.2539-0.68359-0.85156-0.78516-0.91016-0.75-0.79688-0.67578-0.83203-0.83594-0.82422-0.6875-0.86328-0.71094-0.76953-0.89062-1.1836-0.79688-1.1328-1.3086-1.2031-0.90234-0.72656-1.0469-0.92188-0.83984-0.83984-0.90625-0.4375-0.90625-0.93359-0.86719-0.52734-1.5508-1.2461-1.9844-1.2617-0.83594-0.72266-2.1016-1.4844-0.14062-1.1133 0.81641-0.64453 1.0508-0.72656 1.2812-0.88672 0.16406-0.98828-0.011718-1.207 0.28906-1.2539 1.3672-0.75781 1.1797-0.6875 0.875-0.55469 1.0234-0.14844 0.96875-0.80078 0.15234-1.0195 0.625-0.85938-0.125-1.1172 1.1484-1.4531 0.96484-0.65234 1.082-0.58203 0.91406-0.48828 1.0859-1.0117 1.3516-0.34375 0.49219-0.89844 0.48438-1.2227 1.0273-0.31641 0.21094-0.98438 1.4141-0.53906 0.74219-0.70703 1.6289-0.28516 0.50781-1.2031 1.0586-0.38281 1.2891-0.62891 0.38672-1.2188 1.3828-0.80078 0.72656-1.125 0.44922-1.1992 0.70703-1.0273 0.29688-0.97656 0.92188-0.73828 0.45312-1.5781 0.50391-1.4141 0.32031-1.2109 0.125-1.0938 1.207-0.29297 1.0117-0.78906 0.10938-1.1758 0.26562-1.0273 0.92578-0.83984 0.28125-1.0586 1.125-1.1641 0.68359-0.76172-0.14453-1.1484 1.0742-1.0547 1.1562-0.55859 1.1953-0.69141 1.125-0.90625 0.30469-1.0234 0.35547-1.2656 0.90625-1.4102 1.9531-0.32422 1.2461 0.0625 1.2852-0.035156 1.1211-0.23828 1-0.48828 0.62109-0.99609 0.70703-1.1211 0.42578-1.1719 0.039062-1.1484 1.0781-0.64453 0.95312-0.38672z" fill="#0a5394" fill-rule="evenodd"/>
<path d="m204.15 173.86 0.33594 0.14453 0.89453 0.65625 0.98438 0.48828 1.1094 0.28516 1.1797 0.15234 1.7461 1.0625 1.8711 0.78906 1.4414 0.33594 1.8633 0.38672 1.0078 0.015625 1.3164-0.082032 1.1406 0.67969 0.48047 1.1484 0.8125 1.5117 0.83203 0.79688 1.0117 0.68359 0.71484 1.1836-0.55078 1.6523-0.72656 1.7969-0.67578 1.2656-0.75 0.78516-1.0156 0.41016-1.207 0.39844-1.0508 0.44922-1.0156 0.34375-0.80469 0.93359 0.49609 0.96484 0.41016 1.0859-0.75781 0.73828 0.58984 1.3555-0.023437 1.3555-0.22656 1.5352-0.34766 1.1875-0.66797 0.76562-0.32031 1.3086-0.33984 1.0938-1.1367 0.85938-0.88281 0.54688-0.38281 1.5742 0.32812 1.6758 0.44922 1.0391 0.64062 1.4453 0.42188 1.3008-1.3555 0.38672-1.3984 0.38281-1.1445 0.41406-1.3633 0.46875-0.9375 0.52734-1.1367 0.30469-1.7461 0.58984-0.97266 0.52734-0.93359 1.2695-0.87891 0.90234-1.3516 0.21875-1.1172 0.51562-1.0312 0.76562-1.1016 0.92969-1.1797 1-0.13672 0.99219 0.20312 1.668-0.32422 1.1445-0.41406 1.0234-0.34766 1.0977-0.62891 0.80859-1.0469 0.72266-0.95312 0.46875-1.0859 0.64062-1.457 0.17969-1.3398 0.26562-0.76953 0.94141-0.48438 1.1445-0.16406 0.98828 0.29688 1.1719 0.39062 1.3711-0.14062 1.2656-1.4961 0.91797-1.1719 0.69141-0.88672 1.0273 0.12891 1.3711 1.1758 1.4141 0.64453 1.6719 0.55469 1.375 1.1094 0.47656 0.28906 1-0.54297 1.7344-0.11719 1.8086-1.0117 1.668-1.5078 1.8555-0.41406 1.9062 0.18359 1.0781 0.45312 0.89844-0.84375 0.88281-1.875 1.543-1.8906 1.4883-0.74219 0.67578-0.81641-0.60156-0.57031-0.87109-0.82031-0.79688-0.65234-0.85156-0.61719-0.80469-0.67578-0.80078-0.62109-0.83594-0.71094-0.77344-0.60156-0.80078-0.63672-0.87109-0.74219-0.88281-0.76562-0.79297-0.66406-0.75391-0.53906-1.2539-0.68359-0.85156-0.78516-0.91016-0.75-0.79688-0.67578-0.83203-0.83594-0.82422-0.6875-0.86328-0.71094-0.76953-0.89062-1.1836-0.79688-1.1328-1.3086-1.2031-0.90234-0.72656-1.0469-0.92188-0.83984-0.83984-0.90625-0.4375-0.90625-0.93359-0.86719-0.52734-1.5508-1.2461-1.9844-1.2617-0.83594-0.72266-2.1016-1.4844-0.14062-1.1133 0.81641-0.64453 1.0508-0.72656 1.2812-0.88672 0.16406-0.98828-0.011718-1.207 0.28906-1.2539 1.3672-0.75781 1.1797-0.6875 0.875-0.55469 1.0234-0.14844 0.96875-0.80078 0.15234-1.0195 0.625-0.85938-0.125-1.1172 1.1484-1.4531 0.96484-0.65234 1.082-0.58203 0.91406-0.48828 1.0859-1.0117 1.3516-0.34375 0.49219-0.89844 0.48438-1.2227 1.0273-0.31641 0.21094-0.98438 1.4141-0.53906 0.74219-0.70703 1.6289-0.28516 0.50781-1.2031 1.0586-0.38281 1.2891-0.62891 0.38672-1.2188 1.3828-0.80078 0.72656-1.125 0.44922-1.1992 0.70703-1.0273 0.29688-0.97656 0.92188-0.73828 0.45312-1.5781 0.50391-1.4141 0.32031-1.2109 0.125-1.0938 1.207-0.29297 1.0117-0.78906 0.10938-1.1758 0.26562-1.0273 0.92578-0.83984 0.28125-1.0586 1.125-1.1641 0.68359-0.76172-0.14453-1.1484 1.0742-1.0547 1.1562-0.55859 1.1953-0.69141 1.125-0.90625 0.30469-1.0234 0.35547-1.2656 0.90625-1.4102 1.9531-0.32422 1.2461 0.0625 1.2852-0.035156 1.1211-0.23828 1-0.48828 0.62109-0.99609 0.70703-1.1211 0.42578-1.1719 0.039062-1.1484 1.0781-0.64453 0.95312-0.38672 1.1133-0.019532" fill="none" stroke="#fff" stroke-linecap="round" stroke-linejoin="round" stroke-miterlimit="10"/>
<path d="m177.8 250.11c0 3.5898-2.9102 6.5-6.5 6.5-3.5898 0-6.5-2.9102-6.5-6.5s2.9102-6.5 6.5-6.5c3.5898 0 6.5 2.9102 6.5 6.5" fill="#28c028" fill-rule="evenodd" stroke="#000" stroke-linecap="round" stroke-linejoin="round" stroke-miterlimit="10"/>
<path d="m96.633 244.11v-16.469h4.9844l2.9844 11.234 2.9531-11.234h4.9844v16.469h-3.0938v-12.953l-3.2656 12.953h-3.2031l-3.25-12.953v12.953zm19.203 0v-16.469h12.203v2.7969h-8.875v3.6406h8.2656v2.7812h-8.2656v4.4688h9.2031v2.7812zm21.281-16.469h3.3125v10.422c0 1.3672-0.12109 2.418-0.35938 3.1562-0.32422 0.96094-0.90625 1.7305-1.75 2.3125-0.84375 0.57422-1.9609 0.85938-3.3438 0.85938-1.625 0-2.875-0.45312-3.75-1.3594-0.875-0.91406-1.3203-2.2539-1.3281-4.0156l3.1406-0.35938c0.03125 0.94922 0.16406 1.6172 0.40625 2 0.36328 0.59375 0.91016 0.89062 1.6406 0.89062 0.73828 0 1.2578-0.20703 1.5625-0.625 0.3125-0.42578 0.46875-1.3047 0.46875-2.6406zm6.7656 16.469v-16.469h3.3125v16.469zm21.328 0h-3.6094l-1.4375-3.7344h-6.5781l-1.3594 3.7344h-3.5312l6.4062-16.469h3.5156zm-6.1094-6.5156-2.2812-6.1094-2.2188 6.1094zm0 0" fill="none" stroke="#fff" stroke-linecap="round" stroke-linejoin="round" stroke-miterlimit="10" stroke-width="2"/>
<path d="m96.633 244.11v-16.469h4.9844l2.9844 11.234 2.9531-11.234h4.9844v16.469h-3.0938v-12.953l-3.2656 12.953h-3.2031l-3.25-12.953v12.953zm19.203 0v-16.469h12.203v2.7969h-8.875v3.6406h8.2656v2.7812h-8.2656v4.4688h9.2031v2.7812zm21.281-16.469h3.3125v10.422c0 1.3672-0.12109 2.418-0.35938 3.1562-0.32422 0.96094-0.90625 1.7305-1.75 2.3125-0.84375 0.57422-1.9609 0.85938-3.3438 0.85938-1.625 0-2.875-0.45312-3.75-1.3594-0.875-0.91406-1.3203-2.2539-1.3281-4.0156l3.1406-0.35938c0.03125 0.94922 0.16406 1.6172 0.40625 2 0.36328 0.59375 0.91016 0.89062 1.6406 0.89062 0.73828 0 1.2578-0.20703 1.5625-0.625 0.3125-0.42578 0.46875-1.3047 0.46875-2.6406zm6.7656 16.469v-16.469h3.3125v16.469zm21.328 0h-3.6094l-1.4375-3.7344h-6.5781l-1.3594 3.7344h-3.5312l6.4062-16.469h3.5156zm-6.1094-6.5156-2.2812-6.1094-2.2188 6.1094z" fill-rule="evenodd"/>
</g>
</svg>
