<?xml version="1.0" encoding="UTF-8"?>
<svg width="500pt" height="370pt" version="1.1" viewBox="0 0 500 370" xmlns="http://www.w3.org/2000/svg">
<g id="a">
<rect width="500" height="370" fill="none"/>
<path d="m308.67 193.57 0.59375 0.26953 0.81641 1.7422 0.55859 1.7422 0.48438 1.5078 0.76562 3.957 0.17578 1.0977 0.19922 1.7617 0.48828 2.8008 0.625 1.5703 0.92188 0.85156 1.5352 0.68359 1.1836-0.46484 1.2617 0.28125 1.3984 2.5977 1.2109 1.2305 0.98047 0.5 1.2773 0.92188 1.8125-0.42188 1.3516-0.70312 1.0195-0.77734 0.68359-0.86328 0.72656 0.79688-0.10938 1.7617 0.45312 1.2969 1.0508 0.33203 1.2383 0.46484 0.19922 4.0156 0.14453 1.8711 0.41406 1.668 0.94922 2.7266 0.45703 1.5547 0.23047 1.6289 0.19531 1.3125 1.2969 0.94531 0.52344 1.0977 0.375 1.168 0.41406 4.2852 0.72266 0.70312 0.85156 0.83203 0.74219 1.4453 0.50781 1.4883 0.98047 1.1914 1.3203 0.87891 0.87891 2.8672 0.57422 1.5664 0.90234 0.50781 0.44922 1.0039 0.46484 0.92188 0.19141 1.6289-0.21875 1.0273-0.042969 1.1406 1.3672 1.0781 1.5391 0.83984 1.0664 0.37109 0.98047 0.33984 0.85547 0.87891-1.1914 0.50781-1.082 0.41016-0.54688 1.4531-0.64453 0.86328-0.90625 1-1.0547 0.20312-1.1094-0.50391-1.0391 0.09375-1.0156 0.19141-1.1094 0.53516-1.4258 0.37109-1 0.50391-1.1641-0.14844-1.5664-0.52734-1.3359-0.52734-1.6016-1.0156-1.2617-0.75391-1.0703-0.86328-1.0195-0.097657-1.0195 0.87891-0.66797 1.3906 0.26172 1.7656 0.31641 1.0195-0.28906 1.1992-1.2852 1.3906-1.0352 0.57422-0.57422 1.0352 0.34766 2.5664 0.25391 1.6055 0.98438 1.1641-1.1602 1.1562-1.5625 0.23047-0.83984-0.64062-1.0703-1.2109-1.1094-0.74219-0.92969-1.1719-1.125-2.0742-0.9375-0.51953-1.0117 0.33984-0.85938 0.52734-0.625 1-1.125 0.89844-1.1992 0.44922-1.3359 0.32031-0.90234 0.47656-1.3672 0.58594-1.3398 0.48438-2.0273 0.73438-1.4766 0.68359-1.0977 0.64062-1.4453 0.84766-2.3047 0.91016-1.1719 0.46484-1.0352 0.15625-1.0938-0.027344-1.0508-0.03125-1.1641 0.4375-1.7891-0.30469-1.2227-0.039063-1.1992 0.070313-1.0391 0.054687-1.3086-0.054687-1.1992 0.09375-1.1016 0.070312-1.043 0.16406-1.3164 0.62109-1.0977 0.47266-0.98438 0.32031-1.0664-0.34375-2.0859 0.41406-1.7188 0.66016-1.7188-0.39453-0.92578-0.4375-1.5859-0.88672-1.5859-0.45703h-1.1211l-1.0586-0.20312-1.2617-0.0625-1.5859-0.46875-1.7812-0.52734-1.4531-0.0625-1.1914 0.39844-1.8281-0.03125-1.0586 0.27734-0.86328 0.84766-0.94922 0.82422-0.81641 0.93359-0.90234 0.48438-1.0547 0.55859-0.78125 0.65625-0.76953 0.83203-1.1172 0.73047-0.78125 0.67578-0.94922 0.61328-0.92969 0.66406-1.2461 0.03125-1.2539 0.26172-1.1562 0.32031-0.94141 0.49609-1.2852 0.65625-1.2539 0.80078-0.97656 0.53516-1.0273 0.36719-1.0273 0.18359-1.0664 0.13281-0.73047 0.70312-0.82812 0.69531-1.4453-0.60547-0.51953-1.1953-0.61719-1.0547-1.5117-3.0586-1.207-1.1094-2.875-3.9062-0.34766-1.0234-0.89844-2.2734-0.84766-1.5586-1.2031-1.3633-1.9727-1.2617-1.3008-0.77734-0.99609-0.79297-0.76953-0.66797-0.78516-0.83984-0.94141-0.66797-0.83203-0.83203-0.47266-1.082-0.64844-0.82031-1.0156-0.62891-0.86328-0.66797-0.74219-0.87109-1.0078-0.68359-1.0742-0.46094-1.3711-1.4648-1.6797-2.7109-0.51172-0.87109-0.22656-1.0117-0.42188-0.99609-0.68359-0.95703-0.44141-0.96484-0.67969-1.0156-0.37891-0.95703-0.32812-0.95703-0.46484-0.95703-0.59375-0.96484-0.26172-1.1992 0.015625-1.1875 0.125-1.1914-0.32812-0.96484-0.44531-0.95703-0.34766-0.96484-0.38281-0.94922-0.79297-0.66016-0.63672-0.99609-0.72266-1.1523-0.64844-1.4688-0.37109-0.94141-0.20312-0.98047-0.46484-1.2852-1.1992-3.6055-0.40625-1.1211-0.34766-1.1992-0.015625-1.1055 0.070312-1.1562 0.48438-1.0625 0.78906-1.0469 1.1211 0.14844 1.3398 0.45703 1.5469 0.03125 2.0312-0.16016 3.0312-0.078125 1.3789 0.26953 1.5547 0.23438 1.2422-0.13281 1.8125-0.054687 1.2383-0.007813 1.8359 0.070313 1.1992-0.22266 1.2031-0.53906 1.0508-0.32031 1.0352-0.12109 1.4531-0.070313 0.86328-0.59375 0.93359-0.45703 1.2383-0.96484 0.80859-0.68359 0.94141-0.79297 1.3828-0.86328 1.0273-0.26562 1.3242-0.52344 1.0664-0.76172 1.3828-0.28516 1.375-0.60938 0.61719-0.83984 0.76172-0.99609 0.93359-0.62891 1.2578-0.30469 1.1992-0.18359 1.2461-1.4102 0.59766-0.94922 0.69141-0.75391 1.0352-0.83984 0.75391-1.4609 0.77734-0.99609 0.91797-0.82422 0.80078-0.76172 1.1914-0.97266 1.3086-0.28125 1.1719 0.17969 1.1523 0.20312 2.1484 0.22266 1.2266-0.070313 1.3555-0.10547 1.6094-0.28125 1.0977-0.32812 1.0117-0.87109 0.66016-0.93359 1.1445-0.52734 0.97656-0.65234 0.40625-1.3086 0.79297-0.77734 1.0352 0.45703 1.0508 0.21875 1.1797-0.21875 0.94141-0.58984 1.0352-0.39062 1.2461-0.16016 1.2734-0.3125 1.0664-0.28125 1.9688 0.046875 1.332 0.27344 0.97656 0.38281 1.7266 0.13281 2.4883-0.82031 1.3008-1.1016 1.3633-1.1562 1.5508-1.7266 1.4258-1.6797 0.57422 1.2852 0.3125 1 1.2969 1.0352 1.4727 0.89844 1.043 0.11719 1.418-0.29688 1.1445-0.039062 1.3047-0.42188 0.96484-0.68359 0.79688-0.94531 1.5156-0.86719 1.0117-1.1055 0.80078-1.5078 1.9062-0.16406 1.9336 1.8164 1.1758 0.32812 1.0938-0.48047-0.12891-2.0156 1.5-0.46484 1.6445-0.16406z" fill="#ccc" fill-rule="evenodd"/>
<path d="m308.67 193.57 0.59375 0.26953 0.81641 1.7422 0.55859 1.7422 0.48438 1.5078 0.76562 3.957 0.17578 1.0977 0.19922 1.7617 0.48828 2.8008 0.625 1.5703 0.92188 0.85156 1.5352 0.68359 1.1836-0.46484 1.2617 0.28125 1.3984 2.5977 1.2109 1.2305 0.98047 0.5 1.2773 0.92188 1.8125-0.42188 1.3516-0.70312 1.0195-0.77734 0.68359-0.86328 0.72656 0.79688-0.10938 1.7617 0.45312 1.2969 1.0508 0.33203 1.2383 0.46484 0.19922 4.0156 0.14453 1.8711 0.41406 1.668 0.94922 2.7266 0.45703 1.5547 0.23047 1.6289 0.19531 1.3125 1.2969 0.94531 0.52344 1.0977 0.375 1.168 0.41406 4.2852 0.72266 0.70312 0.85156 0.83203 0.74219 1.4453 0.50781 1.4883 0.98047 1.1914 1.3203 0.87891 0.87891 2.8672 0.57422 1.5664 0.90234 0.50781 0.44922 1.0039 0.46484 0.92188 0.19141 1.6289-0.21875 1.0273-0.042969 1.1406 1.3672 1.0781 1.5391 0.83984 1.0664 0.37109 0.98047 0.33984 0.85547 0.87891-1.1914 0.50781-1.082 0.41016-0.54688 1.4531-0.64453 0.86328-0.90625 1-1.0547 0.20312-1.1094-0.50391-1.0391 0.09375-1.0156 0.19141-1.1094 0.53516-1.4258 0.37109-1 0.50391-1.1641-0.14844-1.5664-0.52734-1.3359-0.52734-1.6016-1.0156-1.2617-0.75391-1.0703-0.86328-1.0195-0.097657-1.0195 0.87891-0.66797 1.3906 0.26172 1.7656 0.31641 1.0195-0.28906 1.1992-1.2852 1.3906-1.0352 0.57422-0.57422 1.0352 0.34766 2.5664 0.25391 1.6055 0.98438 1.1641-1.1602 1.1562-1.5625 0.23047-0.83984-0.64062-1.0703-1.2109-1.1094-0.74219-0.92969-1.1719-1.125-2.0742-0.9375-0.51953-1.0117 0.33984-0.85938 0.52734-0.625 1-1.125 0.89844-1.1992 0.44922-1.3359 0.32031-0.90234 0.47656-1.3672 0.58594-1.3398 0.48438-2.0273 0.73438-1.4766 0.68359-1.0977 0.64062-1.4453 0.84766-2.3047 0.91016-1.1719 0.46484-1.0352 0.15625-1.0938-0.027344-1.0508-0.03125-1.1641 0.4375-1.7891-0.30469-1.2227-0.039063-1.1992 0.070313-1.0391 0.054687-1.3086-0.054687-1.1992 0.09375-1.1016 0.070312-1.043 0.16406-1.3164 0.62109-1.0977 0.47266-0.98438 0.32031-1.0664-0.34375-2.0859 0.41406-1.7188 0.66016-1.7188-0.39453-0.92578-0.4375-1.5859-0.88672-1.5859-0.45703h-1.1211l-1.0586-0.20312-1.2617-0.0625-1.5859-0.46875-1.7812-0.52734-1.4531-0.0625-1.1914 0.39844-1.8281-0.03125-1.0586 0.27734-0.86328 0.84766-0.94922 0.82422-0.81641 0.93359-0.90234 0.48438-1.0547 0.55859-0.78125 0.65625-0.76953 0.83203-1.1172 0.73047-0.78125 0.67578-0.94922 0.61328-0.92969 0.66406-1.2461 0.03125-1.2539 0.26172-1.1562 0.32031-0.94141 0.49609-1.2852 0.65625-1.2539 0.80078-0.97656 0.53516-1.0273 0.36719-1.0273 0.18359-1.0664 0.13281-0.73047 0.70312-0.82812 0.69531-1.4453-0.60547-0.51953-1.1953-0.61719-1.0547-1.5117-3.0586-1.207-1.1094-2.875-3.9062-0.34766-1.0234-0.89844-2.2734-0.84766-1.5586-1.2031-1.3633-1.9727-1.2617-1.3008-0.77734-0.99609-0.79297-0.76953-0.66797-0.78516-0.83984-0.94141-0.66797-0.83203-0.83203-0.47266-1.082-0.64844-0.82031-1.0156-0.62891-0.86328-0.66797-0.74219-0.87109-1.0078-0.68359-1.0742-0.46094-1.3711-1.4648-1.6797-2.7109-0.51172-0.87109-0.22656-1.0117-0.42188-0.99609-0.68359-0.95703-0.44141-0.96484-0.67969-1.0156-0.37891-0.95703-0.32812-0.95703-0.46484-0.95703-0.59375-0.96484-0.26172-1.1992 0.015625-1.1875 0.125-1.1914-0.32812-0.96484-0.44531-0.95703-0.34766-0.96484-0.38281-0.94922-0.79297-0.66016-0.63672-0.99609-0.72266-1.1523-0.64844-1.4688-0.37109-0.94141-0.20312-0.98047-0.46484-1.2852-1.1992-3.6055-0.40625-1.1211-0.34766-1.1992-0.015625-1.1055 0.070312-1.1562 0.48438-1.0625 0.78906-1.0469 1.1211 0.14844 1.3398 0.45703 1.5469 0.03125 2.0312-0.16016 3.0312-0.078125 1.3789 0.26953 1.5547 0.23438 1.2422-0.13281 1.8125-0.054687 1.2383-0.007813 1.8359 0.070313 1.1992-0.22266 1.2031-0.53906 1.0508-0.32031 1.0352-0.12109 1.4531-0.070313 0.86328-0.59375 0.93359-0.45703 1.2383-0.96484 0.80859-0.68359 0.94141-0.79297 1.3828-0.86328 1.0273-0.26562 1.3242-0.52344 1.0664-0.76172 1.3828-0.28516 1.375-0.60938 0.61719-0.83984 0.76172-0.99609 0.93359-0.62891 1.2578-0.30469 1.1992-0.18359 1.2461-1.4102 0.59766-0.94922 0.69141-0.75391 1.0352-0.83984 0.75391-1.4609 0.77734-0.99609 0.91797-0.82422 0.80078-0.76172 1.1914-0.97266 1.3086-0.28125 1.1719 0.17969 1.1523 0.20312 2.1484 0.22266 1.2266-0.070313 1.3555-0.10547 1.6094-0.28125 1.0977-0.32812 1.0117-0.87109 0.66016-0.93359 1.1445-0.52734 0.97656-0.65234 0.40625-1.3086 0.79297-0.77734 1.0352 0.45703 1.0508 0.21875 1.1797-0.21875 0.94141-0.58984 1.0352-0.39062 1.2461-0.16016 1.2734-0.3125 1.0664-0.28125 1.9688 0.046875 1.332 0.27344 0.97656 0.38281 1.7266 0.13281 2.4883-0.82031 1.3008-1.1016 1.3633-1.1562 1.5508-1.7266 1.4258-1.6797 0.57422 1.2852 0.3125 1 1.2969 1.0352 1.4727 0.89844 1.043 0.11719 1.418-0.29688 1.1445-0.039062 1.3047-0.42188 0.96484-0.68359 0.79688-0.94531 1.5156-0.86719 1.0117-1.1055 0.80078-1.5078 1.9062-0.16406 1.9336 1.8164 1.1758 0.32812 1.0938-0.48047-0.12891-2.0156 1.5-0.46484 1.6445-0.16406 0.98047 0.097656" fill="none" stroke="#fff" stroke-linecap="round" stroke-linejoin="round" stroke-miterlimit="10" stroke-width="2"/>
<path d="m84.371 45.254 1.2773 0.67578 1.3438 0.56641 3.0547 0.71875 2.7617 0.64062 1.2148 0.30859 1.3867-0.09375 1.4648-0.27734 1.4609 0.10938 1.2617 0.61328 1.1406 0.67969 1.5312 0.25781 1.1016-0.089844 1.1016 0.31641 1.3164 0.97656 0.96875 0.60547 1.3125 0.13672 1.7539-0.21484 2.8438 0.11719 1.8203 0.35938 1.4023 0.50781 1.6172 1.0938 1.2656 0.18359 2.3633 0.34766 2.0391 0.45312 1.3086 0.48438 1.1406 0.32422 1.1445 0.41406-0.15234 1.0156-0.066407 1.3242 0.10938 1.4648 0.86328 1.5234 0.89453 1.4219 0.58203 1.7734-0.027344 1.6953-0.015625 1.2461-0.42188 1.3164-0.88281 1.1406-0.29688 1.1367 1.1055 2.5352 1.4961 1.1875 1.8164 1.8633 2.3867 1.2383 1.0664 0.21484 1.1211-0.039062 1.6328-0.019531 1.3516 1.125 0.87109 1.0547 0.57422 1.5312 0.5625 1.3906-0.027344 1.0859 1.2891 2.1016 0.92578 0.85156 0.89453 0.67578 1.5664 2.1562 0.71094 1.4727 1.2383 1.4453 0.60156 0.80078 0.92188 1.0977 0.98047 0.88672 1.7891 1.7617 4.0859 3.4648 1.1172 0.60547 1.5117 0.97266 1.2969 1.1562 0.17188 1.9414-0.16016 1.0859 0.25391 1.2188 1.6211 2.25 1.1719 0.90234 1.4141 0.41016 1.5938 0.17578 0.92578 1.6719-0.24219 1.4219-0.18359 1.8125 1.5898 0.53125 0.96484-0.35156 1.5352-0.55859 0.92578-0.5 1.2344-0.45312 1.3281 0.45703 2.4766 1.5 0.92578 0.44141 0.37109 1.3438 0.79297 1.2266 2.2227-1.0977 1.1133 0.28125 0.52734 1.8008 0.98828 1.5352 1.1758 0.55078 1.9688 1.0703 1.8516-0.22656 1.125-0.40234 1.5 0.54688 0.88281 1.1523 0.35547 0.94922-1.7461 1.3711-1.3359 0.61719-1.4766-0.17188-1.2734-0.66016-3.0664-0.66797-1.3672 0.054687-0.54297 1.1523-0.27734 1.0234-1.207 0.87109-1.7227 0.90234-1.0195 1.6406 0.16016 1.3789 0.99219 1.0742-0.17969 1.6406-0.070313 1.625-0.53906 1.3242-0.023438 1.125 0.69531 0.77344 0.16797 1.5938-0.11719 1.3594 1.0703 1.5352 0.45703 0.95703-0.24609 1.5586-1.2422 1.6523-0.89453 2.957-0.20312 2.4219-0.80469 0.96875-0.98828 0.30859 0.93359 0.74219 1.1992 0.73047-0.074219 1.1875-0.45703 1.1914-0.39844 0.98047-0.78516 0.71484-0.36328 1.1914-0.83984 0.64453-0.78906 0.65234-0.27734 1.043-0.39844 0.92578-1.25 0.20312-0.82031 0.61328 0.14062 1.2305 0.77734 0.90234 0.5625 0.90234-0.78516 0.94922 0.50391 0.87109-0.085938 1.2578 0.007813 1.3008-0.039063 1.0586-0.94141 0.99609-1.5156 0.53516-0.76172 0.98047-0.78516 0.86328-0.13281 1.1836 0.37891 1.0273-0.058594 1.1016-1.0586 0.91797 0.10938 1.1367 1.1953 0.42969 1.0352 0.78516 0.81641 0.74609 0.67578 0.75391-0.48828 0.92578-0.53516 0.94922 0.49609 1.1367 1.1992 0.039062 1.1953-0.10938 1.1992-0.26562 0.95703-0.35156 0.98828-0.44141 1.082 0.16406 3.4102 2.4453 0.83984 1.2109 0.94141 0.86328 2.0469 1.5547 0.52344 1.2344 0.56641 1.4414 0.625 0.87891 1.3672 1.8008 0.88281 2.707 0.51562 1.0234 0.625 0.81641 0.95312 0.64844 1.0938 1.668-0.09375 1.2266-0.52344 0.875-0.33984 1.0586-0.14062 1.3984 0.31641 2.0352 0.40625 1.1289 0.99219 1.4453 0.48047 1.0312 0.17969 1.0039 0.55469 0.83594 0.70703 1.1602 1.2461 1.1289 0.53125 1.3594 0.33203 1.7539 0.14844 0.99219 0.19531 1.082-0.375 1.0039-0.68359 0.89453-0.56641 0.89453-0.070313 1.1602-0.039062 1.0273 0.25 1.0273 0.30859 1.0078 1.2773 3.5078 0.51953 1.6289 0.29688 1.4141 0.37109 0.94141 0.64844 1.4688 0.62109 0.89453 0.73828 1.2539 0.79297 0.66016 0.38281 0.94922 0.34766 0.96484 0.39062 0.93359 0.38281 0.98828-0.125 1.1914-0.015625 1.1875 0.26172 1.1992 0.59375 0.96484 0.46484 0.95703 0.32812 0.95703 0.37891 0.95703 0.67969 1.0156 0.44141 0.96484 0.68359 0.95703 0.42188 0.99609 0.22656 1.0117-0.86719 0.82031-1.0195 0.32422-1.0859 0.38281-1.2891 0.27734h-1.2891l-1.1641-0.41406-1.918-0.92969-1.0664 1.3008-0.42578 1.1641-0.74219 1.0352-0.48047 0.94141-0.79688 0.68359-1.2617 0.19141-1 0.125-1.8633 0.63281-1.9727 1.2734-1.1836 0.84766-0.68359 1.3008 0.32031 2.1094 0.26172 1.0039 0.38281 1.2344 0.41797 1.1992 0.41797 0.91016 0.16406 1.0898-0.35547 1.0781-0.83594 0.83984 0.59766 0.8125 0.25391 1.2773-0.25391 1.1992-0.53125 0.85156-1.9336 0.76953-1.4648 1.3477-1.0117 0.93359-0.55859 1.0781-0.27344 1.4258-0.69531 1.0312-1.2617 0.38281-1.082 0.41797-1.418 0.69922-1.3633 0.09375-1.3594-0.60547-1.0977 0.33594-0.75781 0.92188-0.49219 0.90234-0.64453 1.0352-0.62891 1.5625-1.1133 1.875-0.94922 2.1797-0.80859 1.0234-0.64453 0.96875-0.66406 1.0547-0.71094 1.0508-0.83203 1.2422-0.80078 1.082-1.7148 1.0586-1.2266 0.19141-0.96875-0.33984-0.72656-0.87891-0.96875-0.64062-1.1094 0.46094-1.4219 0.90234-1.4883 1.1602-1.3594 0.60938-1.7266 0.71484-1.7969 0.24609-1.4883 1.0547-0.47656 1.3477 0.33984 2.207 0.027343 1.0898-0.32031 1.4336-0.95312 0.82031-1.168 0.53125-1.0938 0.35547-1.8242 0.57422-1.0586 0.22656-2.2344-0.007812-1.5664-0.35156-1.1836-0.039062-2.7539-0.82422-1.293-0.023437-1.2227-0.51953-1.832-1.2461-0.70703-1.2344-1.7969 0.11328-1.125 1.9961-0.007813 1.1133 0.86719 2.2031 0.94531 1.3281 0.69141 1.793 0.85938 1.3594 1.0742 0.9375 1.0625 0.92578 0.39844 0.98828 0.63672 1.2227-0.29688 1.0195-1.6719 1.332-1.3828 0.76562-0.70703 1.0781 0.14062 1.3984 1.0781 1.7422 1.0859 2.1133 0.43359 1.1641 0.13281 1.0312-0.83594 0.87109-1.0898-0.019531-1.1797 0.054688-1.0586 0.17578-0.84375 0.73828-0.51172 0.86328-0.52734 1.2305-0.47266 0.96875-1.25 0.035156-0.80469-1.7305-0.65625-1.2656-2.1289-1.043-1.3555-0.39844-1.4297-0.34766-1.1094-0.070312-2.125 0.29688-2.582-0.83984-1.5625-0.88281-1.4492-0.47656-1.0195-0.15625-0.90234 0.71094-0.72656 1.0625-1.4219-0.007812-1-0.64453-0.79297-0.78125-1.4023-0.45312-1.5742 0.44141-1.3633 0.16016-1.4531-0.57031-1.1406-0.19141-1.8516 0.0625-1.625-0.25781-1.3594 0.65234-2.3945 0.082031-1.5586-0.60938-1.3242-0.035156-1.043-0.98438-1.1016-1.4648-2.0703-1.7305-1.3281-0.35547-1.7539-0.54688-0.82031-1.4023-0.49219-1.5625-0.3125-1.0586v-2.9062l0.074219-1.1758 0.26953-1.6172 0.46094-1.1211 0.30859-1.3516 0.0625-1.3242-0.30078-0.95703 0.023438-1.7617 1.0078-0.69922 1.8711-0.73828 1.7227-1.7656 0.35547-1.6016-1.0703-1.1094-2.3203-1.3516-1.3281-0.34766-1.2969-0.46484-0.37891-2.3008-0.41797-1.1523-1.9062-1.6016-0.88672-1.3633-1.2188-0.92969-1.4102 0.14844-1.25 0.1875-1.5156 0.007813-1.2188-0.81641-0.27734-0.96484-1.0273-1.1836-0.70312-1.207-0.61719-0.98438-0.83984-0.92969-0.74609-0.95703-0.63672-1.1602-1.0859-0.39844-1.25 1.1562-0.73828 1.1016-1.3984 1.0195-1.2539 0.011719-1.0664 0.74219-0.19531 1.0039-1.1992 0.42969-1.457 0.15625-0.89453-0.48438-0.40625-1.3359-0.57812-1.4531-1.543-0.83984-1.0234-0.38672-1.2422 0.36328-1.1641 0.30859-1.125 0.22656-1.0312 0.21875-1-0.20703-0.96484 0.41797-1.0312 0.035156-1.082-1.7422-0.76562-0.66406-0.90234-1.0156-0.59375-2.0586-0.55859-1.2188-2.0273-0.875-0.94531-0.60156-3.1602-1.8438-1.8242-0.23047-1.625-0.19531-0.55469-0.95312-0.55469-2.4531-0.4375-2.1758-0.83984-2.2734-0.42969-1.1758-0.46094-0.89453-1.582 0.058593-1.0625 0.36328-1.7773-0.48438-0.98047-2.9688-0.26172-1.6406 1.082-2.0977 1.0312-0.88281 0.20703-1.5-0.58594-1.2461-1.332-2.3594-0.86328-1.2969-0.32031-1.7695 0.32812-2.7812-0.14844-3.2266-1.3594-0.87109-1.7188-0.48828-3.6172 1.0625-2.3477 0.074219-1.0625-1.5-2.207-2.1133-1.3711-0.99219-0.86328-1.2969-0.59766-0.89453-0.53125-1.0625-0.57422-1.4492-0.76562-1.2539 0.14844-1.043 1.2148-0.68359 0.96094-0.71875 1.082-1.25 0.65234-1.2578-0.14453-1.6016-0.71484-2.7031-0.007812-1.0117 1.3125-0.93359-0.13672-1.5117-0.20312-1.1602-0.90234-2.2305-0.68359-2.0039-0.046875-2.8633-0.070312-1.1094-0.39453-1.0664-0.050782-1.0469 1.0078-2.1758 0.13672-1.5156 0.23438-1.2734 3.6133-0.14062 1.3594 0.082031 2.5195-1.2109 1.5273-1.2969 1.0039-1.3047 1.6211-1.8867 0.72266-1.1445 0.089844-1.2188 0.80859-2.0273 0.125-1.1172 0.63281-1.332 0.77734-1.1484 0.70703-0.91797 0.96875-1.3555-0.125-1.6055 0.28125-1.2148-0.40234-2.2227-1.0781-1.8359-0.29688-2.0273-0.33594-0.96875 0.33594-2.4844-0.17969-1.957-0.70312-2.6992-2.293-3.0312-0.88281-1.3242-0.19141-1.3203 0.31641-1.7812 0.37109-1.2695 0.26172-1.1641 1.8359-1.6406 0.52734-1.5156-0.75781-1.4648v-1.9023l0.89844-1.7305 1.0586-1.3047 0.80859-0.67578 2.0039-1.0234 0.83203-0.97266 0.29688-1.6055-0.23828-1.1719-0.53516-1.1836 0.070312-1.1992 1.1133-0.28516 1.0508-0.10156 1.0938-0.73047 0.18359-1.5625 0.5625-1.0117 1.3516 0.30078 1.1602-0.11719 1.0234-0.51172 1.7109-1.2305 1.3438-0.77734 1.1562-0.29297 1.6289 0.32031 2.0391 0.59766 1.2266 0.34766 1.25-0.20703 1.2227 0.17969 2.0039-0.13281 0.96875 0.48047 1.6992-2.2539 0.85938-1.8672 0.1875-0.99609-2.0547-1.4922-0.92969-1.3398-1.3477-1.7266-2.2266-0.88281-4.0273-0.84375-1.9375-0.96875-1.0078-0.45703-0.70703-1.0586-1.3242-1.7617-1.4062-2.832-1.8125-2.4062-2.1836-3.3516-1.0312-3.0742-0.65234-7.3086 0.089844-3.4805-0.10938-1.4609-0.51953-0.90625-0.34375-1.6914 0.4375-1.1797 0.10547-1.832 0.097656-1.2422-0.023438-2.0039 0.058594-1.1055-1.1289 0.10938 0.42969-1.0586-0.75391-0.69922 0.79688-1.082 0.40625-1.1836 1.8086-2.1445 2.2891-1.4375 0.85938-1.6602 0.49609-0.95312 0.86719-2.5391-0.31641-2.957 0.14453-3.3789 0.17578-2.2578 0.09375-1.207-1.1016-1.2422-2.5312-0.875-2.3281-0.57422-2.2109-0.50391-1.0312-1.3789-0.32031-1.0117-0.28906-1.5625-0.16797-2.0547 0.003906-1.3008 0.070313-1.3906-0.30859-1.9102 0.75 1.0117 6.6875 1.3906 1.8516-0.375 0.75-0.69531 1.4492-1.1875 1.0117-0.15234 1.418 0.066407 1.9297 0.76953 1.7227-0.17188 3.2344-0.48047 1.5938-0.37891 1.4453-1.332 2.4375-1.8438 1.6445-0.29688 3.9414-0.71094 3.8711-2.2969h1.3906l2.6133 0.28906 2.0312-0.63672 1.457-0.65625 1.6719-0.75 1.1094-0.76562 1.7109-2.5742 1.418-3.5039 1.1562-1.9375 1.2617-1.0469 1.2891-0.35156 1.5-0.10547 1.6953-0.16016 1.0664-0.10156 1.9102-0.31641 2.7578-1.0664z" fill="#ccc" fill-rule="evenodd"/>
<path d="m84.371 45.254 1.2773 0.67578 1.3438 0.56641 3.0547 0.71875 2.7617 0.64062 1.2148 0.30859 1.3867-0.09375 1.4648-0.27734 1.4609 0.10938 1.2617 0.61328 1.1406 0.67969 1.5312 0.25781 1.1016-0.089844 1.1016 0.31641 1.3164 0.97656 0.96875 0.60547 1.3125 0.13672 1.7539-0.21484 2.8438 0.11719 1.8203 0.35938 1.4023 0.50781 1.6172 1.0938 1.2656 0.18359 2.3633 0.34766 2.0391 0.45312 1.3086 0.48438 1.1406 0.32422 1.1445 0.41406-0.15234 1.0156-0.066407 1.3242 0.10938 1.4648 0.86328 1.5234 0.89453 1.4219 0.58203 1.7734-0.027344 1.6953-0.015625 1.2461-0.42188 1.3164-0.88281 1.1406-0.29688 1.1367 1.1055 2.5352 1.4961 1.1875 1.8164 1.8633 2.3867 1.2383 1.0664 0.21484 1.1211-0.039062 1.6328-0.019531 1.3516 1.125 0.87109 1.0547 0.57422 1.5312 0.5625 1.3906-0.027344 1.0859 1.2891 2.1016 0.92578 0.85156 0.89453 0.67578 1.5664 2.1562 0.71094 1.4727 1.2383 1.4453 0.60156 0.80078 0.92188 1.0977 0.98047 0.88672 1.7891 1.7617 4.0859 3.4648 1.1172 0.60547 1.5117 0.97266 1.2969 1.1562 0.17188 1.9414-0.16016 1.0859 0.25391 1.2188 1.6211 2.25 1.1719 0.90234 1.4141 0.41016 1.5938 0.17578 0.92578 1.6719-0.24219 1.4219-0.18359 1.8125 1.5898 0.53125 0.96484-0.35156 1.5352-0.55859 0.92578-0.5 1.2344-0.45312 1.3281 0.45703 2.4766 1.5 0.92578 0.44141 0.37109 1.3438 0.79297 1.2266 2.2227-1.0977 1.1133 0.28125 0.52734 1.8008 0.98828 1.5352 1.1758 0.55078 1.9688 1.0703 1.8516-0.22656 1.125-0.40234 1.5 0.54688 0.88281 1.1523 0.35547 0.94922-1.7461 1.3711-1.3359 0.61719-1.4766-0.17188-1.2734-0.66016-3.0664-0.66797-1.3672 0.054687-0.54297 1.1523-0.27734 1.0234-1.207 0.87109-1.7227 0.90234-1.0195 1.6406 0.16016 1.3789 0.99219 1.0742-0.17969 1.6406-0.070313 1.625-0.53906 1.3242-0.023438 1.125 0.69531 0.77344 0.16797 1.5938-0.11719 1.3594 1.0703 1.5352 0.45703 0.95703-0.24609 1.5586-1.2422 1.6523-0.89453 2.957-0.20312 2.4219-0.80469 0.96875-0.98828 0.30859 0.93359 0.74219 1.1992 0.73047-0.074219 1.1875-0.45703 1.1914-0.39844 0.98047-0.78516 0.71484-0.36328 1.1914-0.83984 0.64453-0.78906 0.65234-0.27734 1.043-0.39844 0.92578-1.25 0.20312-0.82031 0.61328 0.14062 1.2305 0.77734 0.90234 0.5625 0.90234-0.78516 0.94922 0.50391 0.87109-0.085938 1.2578 0.007813 1.3008-0.039063 1.0586-0.94141 0.99609-1.5156 0.53516-0.76172 0.98047-0.78516 0.86328-0.13281 1.1836 0.37891 1.0273-0.058594 1.1016-1.0586 0.91797 0.10938 1.1367 1.1953 0.42969 1.0352 0.78516 0.81641 0.74609 0.67578 0.75391-0.48828 0.92578-0.53516 0.94922 0.49609 1.1367 1.1992 0.039062 1.1953-0.10938 1.1992-0.26562 0.95703-0.35156 0.98828-0.44141 1.082 0.16406 3.4102 2.4453 0.83984 1.2109 0.94141 0.86328 2.0469 1.5547 0.52344 1.2344 0.56641 1.4414 0.625 0.87891 1.3672 1.8008 0.88281 2.707 0.51562 1.0234 0.625 0.81641 0.95312 0.64844 1.0938 1.668-0.09375 1.2266-0.52344 0.875-0.33984 1.0586-0.14062 1.3984 0.31641 2.0352 0.40625 1.1289 0.99219 1.4453 0.48047 1.0312 0.17969 1.0039 0.55469 0.83594 0.70703 1.1602 1.2461 1.1289 0.53125 1.3594 0.33203 1.7539 0.14844 0.99219 0.19531 1.082-0.375 1.0039-0.68359 0.89453-0.56641 0.89453-0.070313 1.1602-0.039062 1.0273 0.25 1.0273 0.30859 1.0078 1.2773 3.5078 0.51953 1.6289 0.29688 1.4141 0.37109 0.94141 0.64844 1.4688 0.62109 0.89453 0.73828 1.2539 0.79297 0.66016 0.38281 0.94922 0.34766 0.96484 0.39062 0.93359 0.38281 0.98828-0.125 1.1914-0.015625 1.1875 0.26172 1.1992 0.59375 0.96484 0.46484 0.95703 0.32812 0.95703 0.37891 0.95703 0.67969 1.0156 0.44141 0.96484 0.68359 0.95703 0.42188 0.99609 0.22656 1.0117-0.86719 0.82031-1.0195 0.32422-1.0859 0.38281-1.2891 0.27734h-1.2891l-1.1641-0.41406-1.918-0.92969-1.0664 1.3008-0.42578 1.1641-0.74219 1.0352-0.48047 0.94141-0.79688 0.68359-1.2617 0.19141-1 0.125-1.8633 0.63281-1.9727 1.2734-1.1836 0.84766-0.68359 1.3008 0.32031 2.1094 0.26172 1.0039 0.38281 1.2344 0.41797 1.1992 0.41797 0.91016 0.16406 1.0898-0.35547 1.0781-0.83594 0.83984 0.59766 0.8125 0.25391 1.2773-0.25391 1.1992-0.53125 0.85156-1.9336 0.76953-1.4648 1.3477-1.0117 0.93359-0.55859 1.0781-0.27344 1.4258-0.69531 1.0312-1.2617 0.38281-1.082 0.41797-1.418 0.69922-1.3633 0.09375-1.3594-0.60547-1.0977 0.33594-0.75781 0.92188-0.49219 0.90234-0.64453 1.0352-0.62891 1.5625-1.1133 1.875-0.94922 2.1797-0.80859 1.0234-0.64453 0.96875-0.66406 1.0547-0.71094 1.0508-0.83203 1.2422-0.80078 1.082-1.7148 1.0586-1.2266 0.19141-0.96875-0.33984-0.72656-0.87891-0.96875-0.64062-1.1094 0.46094-1.4219 0.90234-1.4883 1.1602-1.3594 0.60938-1.7266 0.71484-1.7969 0.24609-1.4883 1.0547-0.47656 1.3477 0.33984 2.207 0.027343 1.0898-0.32031 1.4336-0.95312 0.82031-1.168 0.53125-1.0938 0.35547-1.8242 0.57422-1.0586 0.22656-2.2344-0.007812-1.5664-0.35156-1.1836-0.039062-2.7539-0.82422-1.293-0.023437-1.2227-0.51953-1.832-1.2461-0.70703-1.2344-1.7969 0.11328-1.125 1.9961-0.007813 1.1133 0.86719 2.2031 0.94531 1.3281 0.69141 1.793 0.85938 1.3594 1.0742 0.9375 1.0625 0.92578 0.39844 0.98828 0.63672 1.2227-0.29688 1.0195-1.6719 1.332-1.3828 0.76562-0.70703 1.0781 0.14062 1.3984 1.0781 1.7422 1.0859 2.1133 0.43359 1.1641 0.13281 1.0312-0.83594 0.87109-1.0898-0.019531-1.1797 0.054688-1.0586 0.17578-0.84375 0.73828-0.51172 0.86328-0.52734 1.2305-0.47266 0.96875-1.25 0.035156-0.80469-1.7305-0.65625-1.2656-2.1289-1.043-1.3555-0.39844-1.4297-0.34766-1.1094-0.070312-2.125 0.29688-2.582-0.83984-1.5625-0.88281-1.4492-0.47656-1.0195-0.15625-0.90234 0.71094-0.72656 1.0625-1.4219-0.007812-1-0.64453-0.79297-0.78125-1.4023-0.45312-1.5742 0.44141-1.3633 0.16016-1.4531-0.57031-1.1406-0.19141-1.8516 0.0625-1.625-0.25781-1.3594 0.65234-2.3945 0.082031-1.5586-0.60938-1.3242-0.035156-1.043-0.98438-1.1016-1.4648-2.0703-1.7305-1.3281-0.35547-1.7539-0.54688-0.82031-1.4023-0.49219-1.5625-0.3125-1.0586v-2.9062l0.074219-1.1758 0.26953-1.6172 0.46094-1.1211 0.30859-1.3516 0.0625-1.3242-0.30078-0.95703 0.023438-1.7617 1.0078-0.69922 1.8711-0.73828 1.7227-1.7656 0.35547-1.6016-1.0703-1.1094-2.3203-1.3516-1.3281-0.34766-1.2969-0.46484-0.37891-2.3008-0.41797-1.1523-1.9062-1.6016-0.88672-1.3633-1.2188-0.92969-1.4102 0.14844-1.25 0.1875-1.5156 0.007813-1.2188-0.81641-0.27734-0.96484-1.0273-1.1836-0.70312-1.207-0.61719-0.98438-0.83984-0.92969-0.74609-0.95703-0.63672-1.1602-1.0859-0.39844-1.25 1.1562-0.73828 1.1016-1.3984 1.0195-1.2539 0.011719-1.0664 0.74219-0.19531 1.0039-1.1992 0.42969-1.457 0.15625-0.89453-0.48438-0.40625-1.3359-0.57812-1.4531-1.543-0.83984-1.0234-0.38672-1.2422 0.36328-1.1641 0.30859-1.125 0.22656-1.0312 0.21875-1-0.20703-0.96484 0.41797-1.0312 0.035156-1.082-1.7422-0.76562-0.66406-0.90234-1.0156-0.59375-2.0586-0.55859-1.2188-2.0273-0.875-0.94531-0.60156-3.1602-1.8438-1.8242-0.23047-1.625-0.19531-0.55469-0.95312-0.55469-2.4531-0.4375-2.1758-0.83984-2.2734-0.42969-1.1758-0.46094-0.89453-1.582 0.058593-1.0625 0.36328-1.7773-0.48438-0.98047-2.9688-0.26172-1.6406 1.082-2.0977 1.0312-0.88281 0.20703-1.5-0.58594-1.2461-1.332-2.3594-0.86328-1.2969-0.32031-1.7695 0.32812-2.7812-0.14844-3.2266-1.3594-0.87109-1.7188-0.48828-3.6172 1.0625-2.3477 0.074219-1.0625-1.5-2.207-2.1133-1.3711-0.99219-0.86328-1.2969-0.59766-0.89453-0.53125-1.0625-0.57422-1.4492-0.76562-1.2539 0.14844-1.043 1.2148-0.68359 0.96094-0.71875 1.082-1.25 0.65234-1.2578-0.14453-1.6016-0.71484-2.7031-0.007812-1.0117 1.3125-0.93359-0.13672-1.5117-0.20312-1.1602-0.90234-2.2305-0.68359-2.0039-0.046875-2.8633-0.070312-1.1094-0.39453-1.0664-0.050782-1.0469 1.0078-2.1758 0.13672-1.5156 0.23438-1.2734 3.6133-0.14062 1.3594 0.082031 2.5195-1.2109 1.5273-1.2969 1.0039-1.3047 1.6211-1.8867 0.72266-1.1445 0.089844-1.2188 0.80859-2.0273 0.125-1.1172 0.63281-1.332 0.77734-1.1484 0.70703-0.91797 0.96875-1.3555-0.125-1.6055 0.28125-1.2148-0.40234-2.2227-1.0781-1.8359-0.29688-2.0273-0.33594-0.96875 0.33594-2.4844-0.17969-1.957-0.70312-2.6992-2.293-3.0312-0.88281-1.3242-0.19141-1.3203 0.31641-1.7812 0.37109-1.2695 0.26172-1.1641 1.8359-1.6406 0.52734-1.5156-0.75781-1.4648v-1.9023l0.89844-1.7305 1.0586-1.3047 0.80859-0.67578 2.0039-1.0234 0.83203-0.97266 0.29688-1.6055-0.23828-1.1719-0.53516-1.1836 0.070312-1.1992 1.1133-0.28516 1.0508-0.10156 1.0938-0.73047 0.18359-1.5625 0.5625-1.0117 1.3516 0.30078 1.1602-0.11719 1.0234-0.51172 1.7109-1.2305 1.3438-0.77734 1.1562-0.29297 1.6289 0.32031 2.0391 0.59766 1.2266 0.34766 1.25-0.20703 1.2227 0.17969 2.0039-0.13281 0.96875 0.48047 1.6992-2.2539 0.85938-1.8672 0.1875-0.99609-2.0547-1.4922-0.92969-1.3398-1.3477-1.7266-2.2266-0.88281-4.0273-0.84375-1.9375-0.96875-1.0078-0.45703-0.70703-1.0586-1.3242-1.7617-1.4062-2.832-1.8125-2.4062-2.1836-3.3516-1.0312-3.0742-0.65234-7.3086 0.089844-3.4805-0.10938-1.4609-0.51953-0.90625-0.34375-1.6914 0.4375-1.1797 0.10547-1.832 0.097656-1.2422-0.023438-2.0039 0.058594-1.1055-1.1289 0.10938 0.42969-1.0586-0.75391-0.69922 0.79688-1.082 0.40625-1.1836 1.8086-2.1445 2.2891-1.4375 0.85938-1.6602 0.49609-0.95312 0.86719-2.5391-0.31641-2.957 0.14453-3.3789 0.17578-2.2578 0.09375-1.207-1.1016-1.2422-2.5312-0.875-2.3281-0.57422-2.2109-0.50391-1.0312-1.3789-0.32031-1.0117-0.28906-1.5625-0.16797-2.0547 0.003906-1.3008 0.070313-1.3906-0.30859-1.9102 0.75 1.0117 6.6875 1.3906 1.8516-0.375 0.75-0.69531 1.4492-1.1875 1.0117-0.15234 1.418 0.066407 1.9297 0.76953 1.7227-0.17188 3.2344-0.48047 1.5938-0.37891 1.4453-1.332 2.4375-1.8438 1.6445-0.29688 3.9414-0.71094 3.8711-2.2969h1.3906l2.6133 0.28906 2.0312-0.63672 1.457-0.65625 1.6719-0.75 1.1094-0.76562 1.7109-2.5742 1.418-3.5039 1.1562-1.9375 1.2617-1.0469 1.2891-0.35156 1.5-0.10547 1.6953-0.16016 1.0664-0.10156 1.9102-0.31641 2.7578-1.0664 2.3594 0.8125" fill="none" stroke="#fff" stroke-linecap="round" stroke-linejoin="round" stroke-miterlimit="10" stroke-width="2"/>
<path d="m231.14 107.16 0.53516 0.17969 1.0664 0.65625 1.0195 0.61328 2.3711 0.94141 0.35938 1.7031 0.62891 0.82422 1.7031 0.21094 1.5156 0.55078 2.6445 0.25 1.6875 0.37891 2.3047 0.98047 1.1523 0.3125 1.8594-0.125 3.5703 0.15625 1.25 0.66016 1.2383 0.4375 1.0273-0.46875 0.76172-0.66016 1.0977 0.72656 1.5156 0.46094 0.98438 0.90625 0.92188 0.98047 1.2031 0.27734 1.5273 0.35547 2.0469 0.29297 1.5352 0.59375 2.0547 0.23828 1.3867 0.41016 1.3906 2.1445 0.69922 1.1367 1.168 1.2109 1.7422 1.2617 1.293 2.0547 0.82031 1.5586 0.8125 1.4961 2.3477 3.832 0.51953 1.1641 0.27734 1.4453-1.5742 2.0547-1.9062 2.6289-1.5547 0.71875-0.78516 1.8477-0.18359 1.0234-0.14062 1.1484 0.40625 1.9961 0.50391 2-0.65234 1.9258-0.75781 0.90625-0.074219 2.2031 0.53516 2.0898 0.29688 2.7227v1.8867l-0.35156 1.5742 0.019531 1.293-0.43359 1.3242-1.2109 1.8008-2.7422 2.5391-0.72656 1.4375-0.14453 1.7109 0.11328 1.8672 0.36719 1.9453 0.74609 2.9766 0.03125 2.2969 0.16797 1.2969 0.57422 1.4453 1.5547 2.4023 1.1836 1.1328 1.4258 0.84766 0.81641 0.83594 0.64453 0.98047 0.79688 0.68359 1.668 0.37109 1.3125 0.035157 1.1641 0.99219 0.46875 1.2891-1.2617 2.293-1.5508 1.7266-1.3633 1.1562-1.3008 1.1016-2.4883 0.82031-1.25 0.082031-1.082-0.42578-1.1133-0.32031-1.7656-0.16406-1.2266 0.023437-1.2305 0.375-1.0117 0.26562-1.0977 0.10547-1.1406 0.61719-1.3945 0.54297-1.4844-0.20312-1.0352-0.45703-0.79297 0.77734-0.28906 0.96484-0.76172 0.91016-1.2266 0.41016-0.77344 0.8125-0.41797 0.96875-1.3398 0.39062-1.3359 0.33594-1.2305 0.19922-1.3047 0.03125-2.3125 0.023438-1.0781-0.27734-1.3242-0.17188-1.375 0.039063-1.0039 0.54297-0.94922 0.77734-1.457 1.3555-0.77734 0.99609-0.49609 1.0781-0.83203 0.77344-0.87109 0.90234-0.87891 1.25-0.54688 0.91016-0.98047 0.53906-1.5 0.16016-1.1211 0.61719-0.96484 0.72266-0.53516 0.98047-1.1211 0.85547-1.2891 0.22656-1.0664 0.45703-1.4609 0.87891-1.0273 0.32031-1.5703 0.73047-0.82812 0.62109-0.86328 0.61719-0.90234 1.0469-1.1953 0.55469-1.0273 0.73047-1.2852 0.22656-1.1172 0.054688-1.4961 0.42578-1.2031 0.53906-1.1992 0.22266-1.0508 0.015625-1.3203-0.085938-2.5156 0.0625-1.2422 0.13281-1.5547-0.23438-1.3789-0.26953-2.1289 0.085937-1.9688 0.12891-1.6172 0.0625-1.543-0.21484-0.95703-0.39844-0.48047-1.0664-0.16406-0.98828-0.17969-1.0859-0.33203-1.7539-0.53125-1.3594-0.71094-0.74219-0.87891-0.8125-0.91797-1.5703-0.17969-1.0039-0.48047-1.0312-0.99219-1.4453-0.40625-1.1289-0.31641-2.0352 0.054688-1.0039 0.21484-1.1289 0.73438-1.1992 0.09375-1.2266-0.42188-0.99609-1.625-1.3203-0.625-0.81641-0.51562-1.0234-0.88281-2.707-1.1523-1.4688-0.66016-0.86328-0.63672-1.4766-0.28906-1.0312-2.3906-2.0703-0.94141-0.86328-0.83984-1.2109-2.7344-2.1602-1.1289-0.52734-1.0195 0.28906-1.0742 0.41016-0.96094 0.32812-1.1992 0.16406-1.1992 0.13672-0.95703-0.30078-0.16797-1.2227 0.66016-0.92578 0.007812-1.082-1.2227-1.1016-0.76953-0.66406-1.1602-0.40234-0.65234-0.98828 0.84766-0.73828 0.59766-0.80859-0.19922-1.1914-0.38281-0.92578 0.54297-1.1055 0.58594-0.95703 1.3477-0.86328 1.4531-0.83984 0.39453-1.0898-0.070313-1.1641 0.44531-1.0508-0.625-0.81641 0.03125-1.0195 0.54688-0.94922-0.83203-1.0195-0.65234-0.90234 0.12891-1.1055 0.99609-0.44141 1.1055-0.4375 0.30469-0.98438 0.63672-1.1914 1.0195-0.58984 0.34766-1.1914 0.90234-0.76953 0.48438-1.1914 0.45703-1.1914 0.1875-1.0469-0.90625-0.71875-1-0.30859 0.64844-0.89453 0.69141-0.76562 0.31641-2.625 0.89453-2.957 1.2422-1.6523 0.24609-1.5586-0.45703-0.95703-0.78125-1.1133-0.28906-0.99609-0.035156-1.4297-0.10938-1.1289-0.74219-1.0664 0.52344-1.2852 0.25-2.3164 0.17969-1.6406-0.99219-1.0742-0.16016-1.3789 1.0195-1.6406 0.82031-0.65234 1.3633-0.46484 0.91406-1.1367 0.25391-1.2578 0.99609-0.57812 2.8516 0.70312 2.2578 0.71094 1.4766 0.17188 1.3359-0.61719 1.7461-1.3711 1.0391 0.33984 0.92188 0.73047 1.0703 0.80078 1.8242-0.61719 1.3398 0.21094 1.2305-0.078125 0.3125-1.4922 0.35156-1.0547 0.38672-2.3711 0.67188-1.957 0.76562-1.0312 1.0469-1.2695 0.80078-1.4219 1.6055-0.90625 1.1211 0.011719 2.4922-1.1211 1.5391-0.73047 0.99609-0.42188 1.3516-0.81641 1.207-0.37891 1.293 0.015625 2.8359 0.37109 0.59375-1.2188 1.2266-0.88672 1.0586 0.28516 1.1367 0.41406 0.80859-1.5469 0.75391-0.67188 1.0742-0.33984 2.3867 1.0117 1.6797-1.3086 0.42188-0.98828z" fill="#ccc" fill-rule="evenodd"/>
<path d="m231.14 107.16 0.53516 0.17969 1.0664 0.65625 1.0195 0.61328 2.3711 0.94141 0.35938 1.7031 0.62891 0.82422 1.7031 0.21094 1.5156 0.55078 2.6445 0.25 1.6875 0.37891 2.3047 0.98047 1.1523 0.3125 1.8594-0.125 3.5703 0.15625 1.25 0.66016 1.2383 0.4375 1.0273-0.46875 0.76172-0.66016 1.0977 0.72656 1.5156 0.46094 0.98438 0.90625 0.92188 0.98047 1.2031 0.27734 1.5273 0.35547 2.0469 0.29297 1.5352 0.59375 2.0547 0.23828 1.3867 0.41016 1.3906 2.1445 0.69922 1.1367 1.168 1.2109 1.7422 1.2617 1.293 2.0547 0.82031 1.5586 0.8125 1.4961 2.3477 3.832 0.51953 1.1641 0.27734 1.4453-1.5742 2.0547-1.9062 2.6289-1.5547 0.71875-0.78516 1.8477-0.18359 1.0234-0.14062 1.1484 0.40625 1.9961 0.50391 2-0.65234 1.9258-0.75781 0.90625-0.074219 2.2031 0.53516 2.0898 0.29688 2.7227v1.8867l-0.35156 1.5742 0.019531 1.293-0.43359 1.3242-1.2109 1.8008-2.7422 2.5391-0.72656 1.4375-0.14453 1.7109 0.11328 1.8672 0.36719 1.9453 0.74609 2.9766 0.03125 2.2969 0.16797 1.2969 0.57422 1.4453 1.5547 2.4023 1.1836 1.1328 1.4258 0.84766 0.81641 0.83594 0.64453 0.98047 0.79688 0.68359 1.668 0.37109 1.3125 0.035157 1.1641 0.99219 0.46875 1.2891-1.2617 2.293-1.5508 1.7266-1.3633 1.1562-1.3008 1.1016-2.4883 0.82031-1.25 0.082031-1.082-0.42578-1.1133-0.32031-1.7656-0.16406-1.2266 0.023437-1.2305 0.375-1.0117 0.26562-1.0977 0.10547-1.1406 0.61719-1.3945 0.54297-1.4844-0.20312-1.0352-0.45703-0.79297 0.77734-0.28906 0.96484-0.76172 0.91016-1.2266 0.41016-0.77344 0.8125-0.41797 0.96875-1.3398 0.39062-1.3359 0.33594-1.2305 0.19922-1.3047 0.03125-2.3125 0.023438-1.0781-0.27734-1.3242-0.17188-1.375 0.039063-1.0039 0.54297-0.94922 0.77734-1.457 1.3555-0.77734 0.99609-0.49609 1.0781-0.83203 0.77344-0.87109 0.90234-0.87891 1.25-0.54688 0.91016-0.98047 0.53906-1.5 0.16016-1.1211 0.61719-0.96484 0.72266-0.53516 0.98047-1.1211 0.85547-1.2891 0.22656-1.0664 0.45703-1.4609 0.87891-1.0273 0.32031-1.5703 0.73047-0.82812 0.62109-0.86328 0.61719-0.90234 1.0469-1.1953 0.55469-1.0273 0.73047-1.2852 0.22656-1.1172 0.054688-1.4961 0.42578-1.2031 0.53906-1.1992 0.22266-1.0508 0.015625-1.3203-0.085938-2.5156 0.0625-1.2422 0.13281-1.5547-0.23438-1.3789-0.26953-2.1289 0.085937-1.9688 0.12891-1.6172 0.0625-1.543-0.21484-0.95703-0.39844-0.48047-1.0664-0.16406-0.98828-0.17969-1.0859-0.33203-1.7539-0.53125-1.3594-0.71094-0.74219-0.87891-0.8125-0.91797-1.5703-0.17969-1.0039-0.48047-1.0312-0.99219-1.4453-0.40625-1.1289-0.31641-2.0352 0.054688-1.0039 0.21484-1.1289 0.73438-1.1992 0.09375-1.2266-0.42188-0.99609-1.625-1.3203-0.625-0.81641-0.51562-1.0234-0.88281-2.707-1.1523-1.4688-0.66016-0.86328-0.63672-1.4766-0.28906-1.0312-2.3906-2.0703-0.94141-0.86328-0.83984-1.2109-2.7344-2.1602-1.1289-0.52734-1.0195 0.28906-1.0742 0.41016-0.96094 0.32812-1.1992 0.16406-1.1992 0.13672-0.95703-0.30078-0.16797-1.2227 0.66016-0.92578 0.007812-1.082-1.2227-1.1016-0.76953-0.66406-1.1602-0.40234-0.65234-0.98828 0.84766-0.73828 0.59766-0.80859-0.19922-1.1914-0.38281-0.92578 0.54297-1.1055 0.58594-0.95703 1.3477-0.86328 1.4531-0.83984 0.39453-1.0898-0.070313-1.1641 0.44531-1.0508-0.625-0.81641 0.03125-1.0195 0.54688-0.94922-0.83203-1.0195-0.65234-0.90234 0.12891-1.1055 0.99609-0.44141 1.1055-0.4375 0.30469-0.98438 0.63672-1.1914 1.0195-0.58984 0.34766-1.1914 0.90234-0.76953 0.48438-1.1914 0.45703-1.1914 0.1875-1.0469-0.90625-0.71875-1-0.30859 0.64844-0.89453 0.69141-0.76562 0.31641-2.625 0.89453-2.957 1.2422-1.6523 0.24609-1.5586-0.45703-0.95703-0.78125-1.1133-0.28906-0.99609-0.035156-1.4297-0.10938-1.1289-0.74219-1.0664 0.52344-1.2852 0.25-2.3164 0.17969-1.6406-0.99219-1.0742-0.16016-1.3789 1.0195-1.6406 0.82031-0.65234 1.3633-0.46484 0.91406-1.1367 0.25391-1.2578 0.99609-0.57812 2.8516 0.70312 2.2578 0.71094 1.4766 0.17188 1.3359-0.61719 1.7461-1.3711 1.0391 0.33984 0.92188 0.73047 1.0703 0.80078 1.8242-0.61719 1.3398 0.21094 1.2305-0.078125 0.3125-1.4922 0.35156-1.0547 0.38672-2.3711 0.67188-1.957 0.76562-1.0312 1.0469-1.2695 0.80078-1.4219 1.6055-0.90625 1.1211 0.011719 2.4922-1.1211 1.5391-0.73047 0.99609-0.42188 1.3516-0.81641 1.207-0.37891 1.293 0.015625 2.8359 0.37109 0.59375-1.2188 1.2266-0.88672 1.0586 0.28516 1.1367 0.41406 0.80859-1.5469 0.75391-0.67188 1.0742-0.33984 2.3867 1.0117 1.6797-1.3086 0.42188-0.98828 1.1367-0.23438" fill="none" stroke="#fff" stroke-linecap="round" stroke-linejoin="round" stroke-miterlimit="10" stroke-width="2"/>
<path d="m360.27 21.355 0.60938 0.46875 0.98438 0.51953 0.93359 0.67578 0.44531 1.2656 0.75 0.69531 1.0703 0.42188 0.63281 1.3555 0.15234 1.0078 0.49609 1.2852 1.0781 0.36719 2.1367 0.44922 1.4688 0.28125 1.2812 0.62109 1.2031 1.1758 0.92969 0.77344 1.3203 0.62109 1.1602 0.90625 1.2773 0.48438 1.0664 0.18359 1.7031 0.53516 1.1016 0.34375 1.0742-0.26172 1.3789 0.039063 1.4297 0.63281 1.1328 0.41016 1.3359 0.51953 1.5391-0.25781 1.3203-0.28516 0.95703-0.91016 0.85547-1.0898 1.9453-0.29688 1.7109-0.23438 1.8438-0.054688 1.0078-0.17969 1.6719-0.51172 1.3281-0.10938 1.293 0.60547 0.94531 0.33984 1.3477-0.41406 1.0938-0.80859 1.3789-0.51562 2.0898 0.22266 1.0273 0.10156 1.1953-0.45703 2.1172-0.57422 1.1758-0.44922 0.94531-0.63281 1.1562-0.50781 1.043-0.4375 1.3633-0.13281 1.3867-0.57031 1.2031-0.63672 1.2305-0.54297 0.92578-0.42578 1.7734-0.36328 1.0977-0.96484 0.51953-1.0117 1.2773-0.73438 0.86719 1.4453 0.89062 1.7148 0.98047 1.707 0.64453 1.5234 0.13281 1.3203 0.32031 1.25 0.47656 1.2773 0.20703 1.332 0.78906 1.6172 0.46094 1.2461 0.83594 1.3047 0.26562 1.0469-1.8633 1.4062-0.64453 0.78906-0.66406 1.2461-0.17969 1.0938 0.10547 1.3281-0.03125 1.2773 1.2969 1.2188 1.0703 1.0977 0.76953 0.88672 0.85938 0.90234 1.4492 1.793 0.82031 1.3086 1.168 1.293 0.77734 1.0195 0.88672 1.5547 1.0312 0.59766 2.2812 1.0117 1.2891 0.46875 1.1289 0.54688 1.1094 0.67969 1.2227 1.2891 0.34766 1.2539 0.47266 1.3203 1.1289 0.97266 1.7891 0.44141 2.6094 0.72266 1.3516 0.44141 1.2539 0.34375 1.082 0.54297 1.1953 0.78516 1.1875 0.45312 1.1875 0.85547 3.1875 1.0039 2.5703 4.2422 0.99609 1.2461 1.3242 0.76953 1.3945 0.22656 1.1094-0.054688 0.69141 1.2695-0.46875 1.4453-0.75391 0.81641-0.62891 0.94141-0.34375 1.7617 0.5625 1.7578 0.44141 1.1953 0.72266 1.0977 0.59766 0.94141 1.2852 1.0703 0.76562 1.2422 0.050782 1.3438 0.023437 1.4531 0.58594 1.0195 1.8633 0.38672 3-0.089844 1.0938-0.41797 1.6992-0.37109 1.0078 0.28906 0.94141 0.73438 0.9375 1.9883 1.6523 3.1406 1.1719 2.3555 0.51562 0.95703 0.39844 0.94531 0.80859 1.1875 0.26562 1.5391 0.23438 0.97656 1.0898 2.4531 0.69922 1.793 1.1953 0.92969 1.707 1.3672-0.10156 1.2188-0.15625 1.0742-0.625 2.0078-1.5312 2.5625-1.043 0.85547-0.12891 1.9805-0.80078 0.69531-1.2031 0.12109-1.1758-0.71094-1.293-0.14453-1.5625-0.13281-1.0742 0.19141-1.4844-0.17969-1.0781-0.40625-1.625-0.11719-1.4023 0.51172-1.0117 0.25781-1.2539 0.56641-1.5508 0.88672-1 0.26562-1.168 0.23047-0.72266 0.88672-1.0742 0.58594-0.91016 0.99609-0.75391 0.74609-1.8516 1.3906-0.74609 1.2617-1.1836 0.93359-0.9375 0.85547-1.4336 0.52734-1.3516 1.0352-0.73438 1.3516-0.84766 0.76562-0.86328 1.2109-1.2891 0.40625-1.418 0.88672-0.89062 0.63672-1.3945 0.46094-2.0586 0.59375-1.4453 0.011719-1.3281 0.48828-2.2305 0.5-1.1758-0.27344-1.0547-0.17969-1.5195 0.49219-1.5312 0.40234-1.1914 0.32031-1.5859 0.23438-1.1445 0.56641-1.6016 1.0195-1.3672 0.72266-1.0742 0.28906-0.91016 0.51172-1.1367 0.22656-1.1758 0.5625-1.2188 0.089843-1.082 0.20703-1.2617 0.54688-0.97656 0.28516-1.4961 0.50391-1.0547-0.023437-1.2031 0.015625-1.1445 0.28125-1.3828 0.73047-1.3125 0.19922-2.4297 0.55469-0.92188 0.39062-0.78516 0.63281-0.48438 0.92578-0.69922 0.92578-0.91016 0.51562-1.1992 0.92578-1.0273 0.0625-1.1719 0.69922-1.625 0.76953-1.0586 1.0273-1.1836 0.78516-1.1367 1.75-0.52734 2.0547-0.77734 0.66797-0.70703 0.88672-0.32031 1.2148-0.45703 1.0234-0.5625 0.93359 0.28906 1.8047 0.25781 1.0273 0.21484 1.7969 0.21094 1.0898-0.59766 1.5391 0.007813 1.1836-0.10156 1.1836 0.21094 1.1719 0.16016 2.3047-0.074219 1.0391-0.48438 1.0117-0.55859 1.2539-0.21094 1.0977-0.59766 0.80078-0.63672 0.95312-0.57031 1.4727 0.007813 1.6172-0.375 1.3945 0.125 1.125-0.37891 1.875-0.69531 1.6953-0.054687 1.5195-0.20703 1.4219 0.24609 1.9375 0.35156 1.6406-0.56641 1.3711-0.03125 1.1094-0.84766 0.98047-0.58203 0.82031-1.9844 0.55078-0.99609-0.14844-2.0625-0.17969-0.82422 0.87891-0.80078 0.85547-1.5195 0.42969-1.0156 0.33984-1.0508 0.054687-2.0312 0.40625-1.0664-0.22656-1.5078-0.10938-2.2773 0.73828-1.0977 0.21094-0.99609 0.54297-1.0898 0.28906-1.0664 0.34375-1.1406 1.0664-1.75 0.51172-1.0742 0.38281-0.91797 0.50391-1.1055 0.21094-1.4609 1.1406-2.5898 0.70312-1.6445-0.1875-1.1953 0.48828-0.76953 0.64844-1.1562 0.23047-1.0312 0.19531-2.3086 0.13281-1.2305 0.34375-0.78516 0.76562 0.94141 0.59766 0.88281 1.0391 0.66406 1.1641 0.46094 1.2422 0.41797 1.5508 0.30078 1.1133 0.33594 1.2422 0.03125 1.2188 0.3125 0.95312 0.9375 1.3516 0.47266 1.2812-0.13672 1.4336 0.92969 1.832 0.54688 1.0508 0.83594 1.5117-0.18359 1.1367-1.3281 0.92969-1.0156 0.375-1.5938 0.43359-1.4375 0.375-0.82031 1.0234-0.35156 0.98047-1.0508 1.1719-1.2539 1.0352-1.1367 1.0391-0.17969 1.0273-1.7383 0.98828-1.6797-0.09375-0.96484 0.3125-1.3398 0.88281-1.5195 0.41016-1.8516-0.023437-1.4609 0.375-1.4688-0.26953-0.57422-1.5664-0.50781-2.0938-0.92188-1.0742-1.75-1.7695-0.50781-1.4883-0.74219-1.4453-0.85156-0.83203-0.72266-0.70312-0.20312-3.4102-0.39844-1.6523-0.71094-1.4883-1.2969-0.94531-0.20312-1 0.03125-1.0898-0.71094-2.4062-0.78125-2.1094-0.5625-2.0703-0.16406-2.0859 0.17969-3.3008-0.96484-1.0195-1.3086-0.17578-0.83203-1.0703 0.14062-1.4336-0.1875-1.2031-1.2695 0.39844-1.0195 0.77734-1.3516 0.70312-1.3203 0.42578-1.1211-0.37109-1.6289-1.0547-0.94531-0.73828-1.6641-3.0898-0.90234-0.60156-0.89453 0.65625-1.3906-0.003907-1.7148-1.3984-0.625-1.5742-0.48828-2.8008-0.19141-1.0859-0.11719-1.4258-0.83203-4.3047-0.48438-1.5078-0.55859-1.7422-0.42578-1.3711-0.98438-0.64062-2.625 0.066406-1.3906 0.058594 0.12891 1.8867-1.2031 1.0156-1.1758-0.32812-1.9336-1.8164-1.0352-0.25781-1.5 1.6992-0.62891 0.83594-1.5742 1.0156-1.293 1.2969-0.96484 0.68359-1.1094 0.40625-1.3398 0.054687-1.418 0.29688-1.043-0.11719-1.4727-0.89844-1.2969-1.0352-0.3125-1-0.57422-1.2852-0.63281-1.9023-0.66016-0.88281-1.8164-0.14453-1.668-0.37109-0.79688-0.68359-0.64453-0.98047-0.81641-0.83594-1.4258-0.84766-1.1836-1.1328-1.1562-1.7852-0.97266-2.0625-0.16797-1.2969 0.09375-1.6836-0.57422-3.0156-0.66406-2.5195-0.11328-1.8672 0.14453-1.7109 0.72656-1.4375 2.7422-2.5391 0.69922-0.98047 0.94531-2.1445-0.019531-1.293 0.28516-1.2695 0.066406-2.1914-0.29688-2.7227-0.53516-2.0898-0.039063-1.3516 0.87109-1.7578 0.60547-1.168-0.45703-2.7578-0.40625-1.9961 0.14062-1.1484 0.18359-1.0195 0.23047-1.293 2.1094-1.2773 1.9062-2.6289 1.4258-1.2969 0.042969-1.3047-0.69141-2.0625-2.3477-3.832-0.8125-1.4961-0.82031-1.5586-0.73828-1.3867-2.2031-1.832-1.2617-1.3086-0.69922-1.1367-0.89062-1.6289-1.8867-0.92578-2.0547-0.23828-1.5352-0.59375-2.0469-0.29297-1.5273-0.35547-1.2031-0.27734-0.92188-0.98047-0.98438-0.90625-1.5156-0.46094-1.0977-0.72656 1.9844-2.6758 1.0078-0.35156 1.7891-1.0703 0.75-0.67188 1.3203-0.67578 1.0195-0.27344 1.7812 0.03125 1.4219 0.39844 1.0039-0.1875 1.457-0.085937 1.8477 0.28125 1.4258 0.11719 1.5234 0.37891 2.8867 0.45312 1.9453 0.97266 2.2305 1.8047 1.7383 0.82031 1.7148-0.26172 1.668-1.2383 0.88672-1.0625 1.3594-1.5195 1.0352-0.80078 1.7734-2.0156 1.2656-0.76172 1.1055-2.0664-0.015625-1.6289-0.11719-1.6562 1.0586-1.0625 0.94141-0.85938 0.45312-0.95312-0.24219-1.4727-0.17969-1.4375-0.29688-1.6641-0.019532-1.375 1.1758-1.0586 0.75-0.86328-0.16016-1.082-0.24219-1.2305 0.41016-1.1406 0.37891-1.3672 0.16016-1.0312 0.11719-1.6211 0.28906-1.6562 0.47266-1.0781 0.60547-0.84766 0.61328-1.1406 1.0977-0.90625 0.84766-0.63281 1.043-0.84375 1.7422-1.0586 1.1406-1.0352 0.95703-1.0898 0.17188-1.4062-0.11328-1.1328 0.53516-1.4805 0.027344-1.4766 0.52344-1.4688 0.40625-1.2031 0.58203-0.83594 0.72266-1.3477 0.28125-0.99219 0.23828-1.1289-0.29297-0.98047-0.25781-1.6914-0.22266-1.375-0.011718-1.4375 1.2734-0.19531 0.91797-0.54297 0.89062-1.2227 0.76172-0.67188 0.92188-0.64453 0.66016-1.1094 0.65234-1.1016 0.55859-1.0312 0.73438-1.1133-0.53906-1.6055 0.80078-1.2188 1.2539-0.25781 1.1641-0.37109 1.1094-1.0195 1.1562-0.19922 1.3633 0.14062 1.793-0.64062 1.0234 0.39062 0.78516-1.2773 0.6875-0.87891 0.54297-0.91016 1.4336-0.90625 1.1445-1.3516 0.70312-0.88281 0.32422-1.0273 0.58594-0.87891 1.2656-0.88281 0.49609-1.0859-0.63281-1.0742-0.36328-1.0117 0.98828-1.1328 1.4609-1.0391 0.84375-1.4688 0.625-1.2852 0.89062-0.79297 1.1875-0.29297 0.89453-0.67188 1.1133-0.47266 1.2969 0.51953 1.3359-0.16016 1.0508-0.13672 1.2422 0.13672 1.2617 0.64844 1.7422-0.5 1.0586-0.43359 1.0234 0.66406 1.0391-1.2344 2.2148-0.64844 1.3984 0.03125 0.99219-0.21875 1.082-0.29297z" fill="#ccc" fill-rule="evenodd"/>
<path d="m360.27 21.355 0.60938 0.46875 0.98438 0.51953 0.93359 0.67578 0.44531 1.2656 0.75 0.69531 1.0703 0.42188 0.63281 1.3555 0.15234 1.0078 0.49609 1.2852 1.0781 0.36719 2.1367 0.44922 1.4688 0.28125 1.2812 0.62109 1.2031 1.1758 0.92969 0.77344 1.3203 0.62109 1.1602 0.90625 1.2773 0.48438 1.0664 0.18359 1.7031 0.53516 1.1016 0.34375 1.0742-0.26172 1.3789 0.039063 1.4297 0.63281 1.1328 0.41016 1.3359 0.51953 1.5391-0.25781 1.3203-0.28516 0.95703-0.91016 0.85547-1.0898 1.9453-0.29688 1.7109-0.23438 1.8438-0.054688 1.0078-0.17969 1.6719-0.51172 1.3281-0.10938 1.293 0.60547 0.94531 0.33984 1.3477-0.41406 1.0938-0.80859 1.3789-0.51562 2.0898 0.22266 1.0273 0.10156 1.1953-0.45703 2.1172-0.57422 1.1758-0.44922 0.94531-0.63281 1.1562-0.50781 1.043-0.4375 1.3633-0.13281 1.3867-0.57031 1.2031-0.63672 1.2305-0.54297 0.92578-0.42578 1.7734-0.36328 1.0977-0.96484 0.51953-1.0117 1.2773-0.73438 0.86719 1.4453 0.89062 1.7148 0.98047 1.707 0.64453 1.5234 0.13281 1.3203 0.32031 1.25 0.47656 1.2773 0.20703 1.332 0.78906 1.6172 0.46094 1.2461 0.83594 1.3047 0.26562 1.0469-1.8633 1.4062-0.64453 0.78906-0.66406 1.2461-0.17969 1.0938 0.10547 1.3281-0.03125 1.2773 1.2969 1.2188 1.0703 1.0977 0.76953 0.88672 0.85938 0.90234 1.4492 1.793 0.82031 1.3086 1.168 1.293 0.77734 1.0195 0.88672 1.5547 1.0312 0.59766 2.2812 1.0117 1.2891 0.46875 1.1289 0.54688 1.1094 0.67969 1.2227 1.2891 0.34766 1.2539 0.47266 1.3203 1.1289 0.97266 1.7891 0.44141 2.6094 0.72266 1.3516 0.44141 1.2539 0.34375 1.082 0.54297 1.1953 0.78516 1.1875 0.45312 1.1875 0.85547 3.1875 1.0039 2.5703 4.2422 0.99609 1.2461 1.3242 0.76953 1.3945 0.22656 1.1094-0.054688 0.69141 1.2695-0.46875 1.4453-0.75391 0.81641-0.62891 0.94141-0.34375 1.7617 0.5625 1.7578 0.44141 1.1953 0.72266 1.0977 0.59766 0.94141 1.2852 1.0703 0.76562 1.2422 0.050782 1.3438 0.023437 1.4531 0.58594 1.0195 1.8633 0.38672 3-0.089844 1.0938-0.41797 1.6992-0.37109 1.0078 0.28906 0.94141 0.73438 0.9375 1.9883 1.6523 3.1406 1.1719 2.3555 0.51562 0.95703 0.39844 0.94531 0.80859 1.1875 0.26562 1.5391 0.23438 0.97656 1.0898 2.4531 0.69922 1.793 1.1953 0.92969 1.707 1.3672-0.10156 1.2188-0.15625 1.0742-0.625 2.0078-1.5312 2.5625-1.043 0.85547-0.12891 1.9805-0.80078 0.69531-1.2031 0.12109-1.1758-0.71094-1.293-0.14453-1.5625-0.13281-1.0742 0.19141-1.4844-0.17969-1.0781-0.40625-1.625-0.11719-1.4023 0.51172-1.0117 0.25781-1.2539 0.56641-1.5508 0.88672-1 0.26562-1.168 0.23047-0.72266 0.88672-1.0742 0.58594-0.91016 0.99609-0.75391 0.74609-1.8516 1.3906-0.74609 1.2617-1.1836 0.93359-0.9375 0.85547-1.4336 0.52734-1.3516 1.0352-0.73438 1.3516-0.84766 0.76562-0.86328 1.2109-1.2891 0.40625-1.418 0.88672-0.89062 0.63672-1.3945 0.46094-2.0586 0.59375-1.4453 0.011719-1.3281 0.48828-2.2305 0.5-1.1758-0.27344-1.0547-0.17969-1.5195 0.49219-1.5312 0.40234-1.1914 0.32031-1.5859 0.23438-1.1445 0.56641-1.6016 1.0195-1.3672 0.72266-1.0742 0.28906-0.91016 0.51172-1.1367 0.22656-1.1758 0.5625-1.2188 0.089843-1.082 0.20703-1.2617 0.54688-0.97656 0.28516-1.4961 0.50391-1.0547-0.023437-1.2031 0.015625-1.1445 0.28125-1.3828 0.73047-1.3125 0.19922-2.4297 0.55469-0.92188 0.39062-0.78516 0.63281-0.48438 0.92578-0.69922 0.92578-0.91016 0.51562-1.1992 0.92578-1.0273 0.0625-1.1719 0.69922-1.625 0.76953-1.0586 1.0273-1.1836 0.78516-1.1367 1.75-0.52734 2.0547-0.77734 0.66797-0.70703 0.88672-0.32031 1.2148-0.45703 1.0234-0.5625 0.93359 0.28906 1.8047 0.25781 1.0273 0.21484 1.7969 0.21094 1.0898-0.59766 1.5391 0.007813 1.1836-0.10156 1.1836 0.21094 1.1719 0.16016 2.3047-0.074219 1.0391-0.48438 1.0117-0.55859 1.2539-0.21094 1.0977-0.59766 0.80078-0.63672 0.95312-0.57031 1.4727 0.007813 1.6172-0.375 1.3945 0.125 1.125-0.37891 1.875-0.69531 1.6953-0.054687 1.5195-0.20703 1.4219 0.24609 1.9375 0.35156 1.6406-0.56641 1.3711-0.03125 1.1094-0.84766 0.98047-0.58203 0.82031-1.9844 0.55078-0.99609-0.14844-2.0625-0.17969-0.82422 0.87891-0.80078 0.85547-1.5195 0.42969-1.0156 0.33984-1.0508 0.054687-2.0312 0.40625-1.0664-0.22656-1.5078-0.10938-2.2773 0.73828-1.0977 0.21094-0.99609 0.54297-1.0898 0.28906-1.0664 0.34375-1.1406 1.0664-1.75 0.51172-1.0742 0.38281-0.91797 0.50391-1.1055 0.21094-1.4609 1.1406-2.5898 0.70312-1.6445-0.1875-1.1953 0.48828-0.76953 0.64844-1.1562 0.23047-1.0312 0.19531-2.3086 0.13281-1.2305 0.34375-0.78516 0.76562 0.94141 0.59766 0.88281 1.0391 0.66406 1.1641 0.46094 1.2422 0.41797 1.5508 0.30078 1.1133 0.33594 1.2422 0.03125 1.2188 0.3125 0.95312 0.9375 1.3516 0.47266 1.2812-0.13672 1.4336 0.92969 1.832 0.54688 1.0508 0.83594 1.5117-0.18359 1.1367-1.3281 0.92969-1.0156 0.375-1.5938 0.43359-1.4375 0.375-0.82031 1.0234-0.35156 0.98047-1.0508 1.1719-1.2539 1.0352-1.1367 1.0391-0.17969 1.0273-1.7383 0.98828-1.6797-0.09375-0.96484 0.3125-1.3398 0.88281-1.5195 0.41016-1.8516-0.023437-1.4609 0.375-1.4688-0.26953-0.57422-1.5664-0.50781-2.0938-0.92188-1.0742-1.75-1.7695-0.50781-1.4883-0.74219-1.4453-0.85156-0.83203-0.72266-0.70312-0.20312-3.4102-0.39844-1.6523-0.71094-1.4883-1.2969-0.94531-0.20312-1 0.03125-1.0898-0.71094-2.4062-0.78125-2.1094-0.5625-2.0703-0.16406-2.0859 0.17969-3.3008-0.96484-1.0195-1.3086-0.17578-0.83203-1.0703 0.14062-1.4336-0.1875-1.2031-1.2695 0.39844-1.0195 0.77734-1.3516 0.70312-1.3203 0.42578-1.1211-0.37109-1.6289-1.0547-0.94531-0.73828-1.6641-3.0898-0.90234-0.60156-0.89453 0.65625-1.3906-0.003907-1.7148-1.3984-0.625-1.5742-0.48828-2.8008-0.19141-1.0859-0.11719-1.4258-0.83203-4.3047-0.48438-1.5078-0.55859-1.7422-0.42578-1.3711-0.98438-0.64062-2.625 0.066406-1.3906 0.058594 0.12891 1.8867-1.2031 1.0156-1.1758-0.32812-1.9336-1.8164-1.0352-0.25781-1.5 1.6992-0.62891 0.83594-1.5742 1.0156-1.293 1.2969-0.96484 0.68359-1.1094 0.40625-1.3398 0.054687-1.418 0.29688-1.043-0.11719-1.4727-0.89844-1.2969-1.0352-0.3125-1-0.57422-1.2852-0.63281-1.9023-0.66016-0.88281-1.8164-0.14453-1.668-0.37109-0.79688-0.68359-0.64453-0.98047-0.81641-0.83594-1.4258-0.84766-1.1836-1.1328-1.1562-1.7852-0.97266-2.0625-0.16797-1.2969 0.09375-1.6836-0.57422-3.0156-0.66406-2.5195-0.11328-1.8672 0.14453-1.7109 0.72656-1.4375 2.7422-2.5391 0.69922-0.98047 0.94531-2.1445-0.019531-1.293 0.28516-1.2695 0.066406-2.1914-0.29688-2.7227-0.53516-2.0898-0.039063-1.3516 0.87109-1.7578 0.60547-1.168-0.45703-2.7578-0.40625-1.9961 0.14062-1.1484 0.18359-1.0195 0.23047-1.293 2.1094-1.2773 1.9062-2.6289 1.4258-1.2969 0.042969-1.3047-0.69141-2.0625-2.3477-3.832-0.8125-1.4961-0.82031-1.5586-0.73828-1.3867-2.2031-1.832-1.2617-1.3086-0.69922-1.1367-0.89062-1.6289-1.8867-0.92578-2.0547-0.23828-1.5352-0.59375-2.0469-0.29297-1.5273-0.35547-1.2031-0.27734-0.92188-0.98047-0.98438-0.90625-1.5156-0.46094-1.0977-0.72656 1.9844-2.6758 1.0078-0.35156 1.7891-1.0703 0.75-0.67188 1.3203-0.67578 1.0195-0.27344 1.7812 0.03125 1.4219 0.39844 1.0039-0.1875 1.457-0.085937 1.8477 0.28125 1.4258 0.11719 1.5234 0.37891 2.8867 0.45312 1.9453 0.97266 2.2305 1.8047 1.7383 0.82031 1.7148-0.26172 1.668-1.2383 0.88672-1.0625 1.3594-1.5195 1.0352-0.80078 1.7734-2.0156 1.2656-0.76172 1.1055-2.0664-0.015625-1.6289-0.11719-1.6562 1.0586-1.0625 0.94141-0.85938 0.45312-0.95312-0.24219-1.4727-0.17969-1.4375-0.29688-1.6641-0.019532-1.375 1.1758-1.0586 0.75-0.86328-0.16016-1.082-0.24219-1.2305 0.41016-1.1406 0.37891-1.3672 0.16016-1.0312 0.11719-1.6211 0.28906-1.6562 0.47266-1.0781 0.60547-0.84766 0.61328-1.1406 1.0977-0.90625 0.84766-0.63281 1.043-0.84375 1.7422-1.0586 1.1406-1.0352 0.95703-1.0898 0.17188-1.4062-0.11328-1.1328 0.53516-1.4805 0.027344-1.4766 0.52344-1.4688 0.40625-1.2031 0.58203-0.83594 0.72266-1.3477 0.28125-0.99219 0.23828-1.1289-0.29297-0.98047-0.25781-1.6914-0.22266-1.375-0.011718-1.4375 1.2734-0.19531 0.91797-0.54297 0.89062-1.2227 0.76172-0.67188 0.92188-0.64453 0.66016-1.1094 0.65234-1.1016 0.55859-1.0312 0.73438-1.1133-0.53906-1.6055 0.80078-1.2188 1.2539-0.25781 1.1641-0.37109 1.1094-1.0195 1.1562-0.19922 1.3633 0.14062 1.793-0.64062 1.0234 0.39062 0.78516-1.2773 0.6875-0.87891 0.54297-0.91016 1.4336-0.90625 1.1445-1.3516 0.70312-0.88281 0.32422-1.0273 0.58594-0.87891 1.2656-0.88281 0.49609-1.0859-0.63281-1.0742-0.36328-1.0117 0.98828-1.1328 1.4609-1.0391 0.84375-1.4688 0.625-1.2852 0.89062-0.79297 1.1875-0.29297 0.89453-0.67188 1.1133-0.47266 1.2969 0.51953 1.3359-0.16016 1.0508-0.13672 1.2422 0.13672 1.2617 0.64844 1.7422-0.5 1.0586-0.43359 1.0234 0.66406 1.0391-1.2344 2.2148-0.64844 1.3984 0.03125 0.99219-0.21875 1.082-0.29297 0.71094 0.16797" fill="none" stroke="#fff" stroke-linecap="round" stroke-linejoin="round" stroke-miterlimit="10" stroke-width="2"/>
<path d="m308.67 193.57 0.59375 0.26953 0.81641 1.7422 0.55859 1.7422 0.48438 1.5078 0.76562 3.957 0.17578 1.0977 0.19922 1.7617 0.48828 2.8008 0.625 1.5703 0.92188 0.85156 1.5352 0.68359 1.1836-0.46484 1.2617 0.28125 1.3984 2.5977 1.2109 1.2305 0.98047 0.5 1.2773 0.92188 1.8125-0.42188 1.3516-0.70312 1.0195-0.77734 0.68359-0.86328 0.72656 0.79688-0.10938 1.7617 0.45312 1.2969 1.0508 0.33203 1.2383 0.46484 0.19922 4.0156 0.14453 1.8711 0.41406 1.668 0.94922 2.7266 0.45703 1.5547 0.23047 1.6289 0.19531 1.3125 1.2969 0.94531 0.52344 1.0977 0.375 1.168 0.41406 4.2852 0.72266 0.70312 0.85156 0.83203 0.74219 1.4453 0.50781 1.4883 0.98047 1.1914 1.3203 0.87891 0.87891 2.8672 0.57422 1.5664 0.90234 0.50781 0.44922 1.0039 0.46484 0.92188 0.19141 1.6289-0.21875 1.0273-0.042969 1.1406 1.3672 1.0781 1.5391 0.83984 1.0664 0.37109 0.98047 0.33984 0.85547 0.87891-1.1914 0.50781-1.082 0.41016-0.54688 1.4531-0.64453 0.86328-0.90625 1-1.0547 0.20312-1.1094-0.50391-1.0391 0.09375-1.0156 0.19141-1.1094 0.53516-1.4258 0.37109-1 0.50391-1.1641-0.14844-1.5664-0.52734-1.3359-0.52734-1.6016-1.0156-1.2617-0.75391-1.0703-0.86328-1.0195-0.097657-1.0195 0.87891-0.66797 1.3906 0.26172 1.7656 0.31641 1.0195-0.28906 1.1992-1.2852 1.3906-1.0352 0.57422-0.57422 1.0352 0.34766 2.5664 0.25391 1.6055 0.98438 1.1641-1.1602 1.1562-1.5625 0.23047-0.83984-0.64062-1.0703-1.2109-1.1094-0.74219-0.92969-1.1719-1.125-2.0742-0.9375-0.51953-1.0117 0.33984-0.85938 0.52734-0.625 1-1.125 0.89844-1.1992 0.44922-1.3359 0.32031-0.90234 0.47656-1.3672 0.58594-1.3398 0.48438-2.0273 0.73438-1.4766 0.68359-1.0977 0.64062-1.4453 0.84766-2.3047 0.91016-1.1719 0.46484-1.0352 0.15625-1.0938-0.027344-1.0508-0.03125-1.1641 0.4375-1.7891-0.30469-1.2227-0.039063-1.1992 0.070313-1.0391 0.054687-1.3086-0.054687-1.1992 0.09375-1.1016 0.070312-1.043 0.16406-1.3164 0.62109-1.0977 0.47266-0.98438 0.32031-1.0664-0.34375-2.0859 0.41406-1.7188 0.66016-1.7188-0.39453-0.92578-0.4375-1.5859-0.88672-1.5859-0.45703h-1.1211l-1.0586-0.20312-1.2617-0.0625-1.5859-0.46875-1.7812-0.52734-1.4531-0.0625-1.1914 0.39844-1.8281-0.03125-1.0586 0.27734-0.86328 0.84766-0.94922 0.82422-0.81641 0.93359-0.90234 0.48438-1.0547 0.55859-0.78125 0.65625-0.76953 0.83203-1.1172 0.73047-0.78125 0.67578-0.94922 0.61328-0.92969 0.66406-1.2461 0.03125-1.2539 0.26172-1.1562 0.32031-0.94141 0.49609-1.2852 0.65625-1.2539 0.80078-0.97656 0.53516-1.0273 0.36719-1.0273 0.18359-1.0664 0.13281-0.73047 0.70312-0.82812 0.69531-1.4453-0.60547-0.51953-1.1953-0.61719-1.0547-1.5117-3.0586-1.207-1.1094-2.875-3.9062-0.34766-1.0234-0.89844-2.2734-0.84766-1.5586-1.2031-1.3633-1.9727-1.2617-1.3008-0.77734-0.99609-0.79297-0.76953-0.66797-0.78516-0.83984-0.94141-0.66797-0.83203-0.83203-0.47266-1.082-0.64844-0.82031-1.0156-0.62891-0.86328-0.66797-0.74219-0.87109-1.0078-0.68359-1.0742-0.46094-1.3711-1.4648-1.6797-2.7109-0.51172-0.87109-0.22656-1.0117-0.42188-0.99609-0.68359-0.95703-0.44141-0.96484-0.67969-1.0156-0.37891-0.95703-0.32812-0.95703-0.46484-0.95703-0.59375-0.96484-0.26172-1.1992 0.015625-1.1875 0.125-1.1914-0.32812-0.96484-0.44531-0.95703-0.34766-0.96484-0.38281-0.94922-0.79297-0.66016-0.63672-0.99609-0.72266-1.1523-0.64844-1.4688-0.37109-0.94141-0.20312-0.98047-0.46484-1.2852-1.1992-3.6055-0.40625-1.1211-0.34766-1.1992-0.015625-1.1055 0.070312-1.1562 0.48438-1.0625 0.78906-1.0469 1.1211 0.14844 1.3398 0.45703 1.5469 0.03125 2.0312-0.16016 3.0312-0.078125 1.3789 0.26953 1.5547 0.23438 1.2422-0.13281 1.8125-0.054687 1.2383-0.007813 1.8359 0.070313 1.1992-0.22266 1.2031-0.53906 1.0508-0.32031 1.0352-0.12109 1.4531-0.070313 0.86328-0.59375 0.93359-0.45703 1.2383-0.96484 0.80859-0.68359 0.94141-0.79297 1.3828-0.86328 1.0273-0.26562 1.3242-0.52344 1.0664-0.76172 1.3828-0.28516 1.375-0.60938 0.61719-0.83984 0.76172-0.99609 0.93359-0.62891 1.2578-0.30469 1.1992-0.18359 1.2461-1.4102 0.59766-0.94922 0.69141-0.75391 1.0352-0.83984 0.75391-1.4609 0.77734-0.99609 0.91797-0.82422 0.80078-0.76172 1.1914-0.97266 1.3086-0.28125 1.1719 0.17969 1.1523 0.20312 2.1484 0.22266 1.2266-0.070313 1.3555-0.10547 1.6094-0.28125 1.0977-0.32812 1.0117-0.87109 0.66016-0.93359 1.1445-0.52734 0.97656-0.65234 0.40625-1.3086 0.79297-0.77734 1.0352 0.45703 1.0508 0.21875 1.1797-0.21875 0.94141-0.58984 1.0352-0.39062 1.2461-0.16016 1.2734-0.3125 1.0664-0.28125 1.9688 0.046875 1.332 0.27344 0.97656 0.38281 1.7266 0.13281 2.4883-0.82031 1.3008-1.1016 1.3633-1.1562 1.5508-1.7266 1.4258-1.6797 0.57422 1.2852 0.3125 1 1.2969 1.0352 1.4727 0.89844 1.043 0.11719 1.418-0.29688 1.1445-0.039062 1.3047-0.42188 0.96484-0.68359 0.79688-0.94531 1.5156-0.86719 1.0117-1.1055 0.80078-1.5078 1.9062-0.16406 1.9336 1.8164 1.1758 0.32812 1.0938-0.48047-0.12891-2.0156 1.5-0.46484 1.6445-0.16406z" fill="#0a5394" fill-rule="evenodd"/>
<path d="m308.67 193.57 0.59375 0.26953 0.81641 1.7422 0.55859 1.7422 0.48438 1.5078 0.76562 3.957 0.17578 1.0977 0.19922 1.7617 0.48828 2.8008 0.625 1.5703 0.92188 0.85156 1.5352 0.68359 1.1836-0.46484 1.2617 0.28125 1.3984 2.5977 1.2109 1.2305 0.98047 0.5 1.2773 0.92188 1.8125-0.42188 1.3516-0.70312 1.0195-0.77734 0.68359-0.86328 0.72656 0.79688-0.10938 1.7617 0.45312 1.2969 1.0508 0.33203 1.2383 0.46484 0.19922 4.0156 0.14453 1.8711 0.41406 1.668 0.94922 2.7266 0.45703 1.5547 0.23047 1.6289 0.19531 1.3125 1.2969 0.94531 0.52344 1.0977 0.375 1.168 0.41406 4.2852 0.72266 0.70312 0.85156 0.83203 0.74219 1.4453 0.50781 1.4883 0.98047 1.1914 1.3203 0.87891 0.87891 2.8672 0.57422 1.5664 0.90234 0.50781 0.44922 1.0039 0.46484 0.92188 0.19141 1.6289-0.21875 1.0273-0.042969 1.1406 1.3672 1.0781 1.5391 0.83984 1.0664 0.37109 0.98047 0.33984 0.85547 0.87891-1.1914 0.50781-1.082 0.41016-0.54688 1.4531-0.64453 0.86328-0.90625 1-1.0547 0.20312-1.1094-0.50391-1.0391 0.09375-1.0156 0.19141-1.1094 0.53516-1.4258 0.37109-1 0.50391-1.1641-0.14844-1.5664-0.52734-1.3359-0.52734-1.6016-1.0156-1.2617-0.75391-1.0703-0.86328-1.0195-0.097657-1.0195 0.87891-0.66797 1.3906 0.26172 1.7656 0.31641 1.0195-0.28906 1.1992-1.2852 1.3906-1.0352 0.57422-0.57422 1.0352 0.34766 2.5664 0.25391 1.6055 0.98438 1.1641-1.1602 1.1562-1.5625 0.23047-0.83984-0.64062-1.0703-1.2109-1.1094-0.74219-0.92969-1.1719-1.125-2.0742-0.9375-0.51953-1.0117 0.33984-0.85938 0.52734-0.625 1-1.125 0.89844-1.1992 0.44922-1.3359 0.32031-0.90234 0.47656-1.3672 0.58594-1.3398 0.48438-2.0273 0.73438-1.4766 0.68359-1.0977 0.64062-1.4453 0.84766-2.3047 0.91016-1.1719 0.46484-1.0352 0.15625-1.0938-0.027344-1.0508-0.03125-1.1641 0.4375-1.7891-0.30469-1.2227-0.039063-1.1992 0.070313-1.0391 0.054687-1.3086-0.054687-1.1992 0.09375-1.1016 0.070312-1.043 0.16406-1.3164 0.62109-1.0977 0.47266-0.98438 0.32031-1.0664-0.34375-2.0859 0.41406-1.7188 0.66016-1.7188-0.39453-0.92578-0.4375-1.5859-0.88672-1.5859-0.45703h-1.1211l-1.0586-0.20312-1.2617-0.0625-1.5859-0.46875-1.7812-0.52734-1.4531-0.0625-1.1914 0.39844-1.8281-0.03125-1.0586 0.27734-0.86328 0.84766-0.94922 0.82422-0.81641 0.93359-0.90234 0.48438-1.0547 0.55859-0.78125 0.65625-0.76953 0.83203-1.1172 0.73047-0.78125 0.67578-0.94922 0.61328-0.92969 0.66406-1.2461 0.03125-1.2539 0.26172-1.1562 0.32031-0.94141 0.49609-1.2852 0.65625-1.2539 0.80078-0.97656 0.53516-1.0273 0.36719-1.0273 0.18359-1.0664 0.13281-0.73047 0.70312-0.82812 0.69531-1.4453-0.60547-0.51953-1.1953-0.61719-1.0547-1.5117-3.0586-1.207-1.1094-2.875-3.9062-0.34766-1.0234-0.89844-2.2734-0.84766-1.5586-1.2031-1.3633-1.9727-1.2617-1.3008-0.77734-0.99609-0.79297-0.76953-0.66797-0.78516-0.83984-0.94141-0.66797-0.83203-0.83203-0.47266-1.082-0.64844-0.82031-1.0156-0.62891-0.86328-0.66797-0.74219-0.87109-1.0078-0.68359-1.0742-0.46094-1.3711-1.4648-1.6797-2.7109-0.51172-0.87109-0.22656-1.0117-0.42188-0.99609-0.68359-0.95703-0.44141-0.96484-0.67969-1.0156-0.37891-0.95703-0.32812-0.95703-0.46484-0.95703-0.59375-0.96484-0.26172-1.1992 0.015625-1.1875 0.125-1.1914-0.32812-0.96484-0.44531-0.95703-0.34766-0.96484-0.38281-0.94922-0.79297-0.66016-0.63672-0.99609-0.72266-1.1523-0.64844-1.4688-0.37109-0.94141-0.20312-0.98047-0.46484-1.2852-1.1992-3.6055-0.40625-1.1211-0.34766-1.1992-0.015625-1.1055 0.070312-1.1562 0.48438-1.0625 0.78906-1.0469 1.1211 0.14844 1.3398 0.45703 1.5469 0.03125 2.0312-0.16016 3.0312-0.078125 1.3789 0.26953 1.5547 0.23438 1.2422-0.13281 1.8125-0.054687 1.2383-0.007813 1.8359 0.070313 1.1992-0.22266 1.2031-0.53906 1.0508-0.32031 1.0352-0.12109 1.4531-0.070313 0.86328-0.59375 0.93359-0.45703 1.2383-0.96484 0.80859-0.68359 0.94141-0.79297 1.3828-0.86328 1.0273-0.26562 1.3242-0.52344 1.0664-0.76172 1.3828-0.28516 1.375-0.60938 0.61719-0.83984 0.76172-0.99609 0.93359-0.62891 1.2578-0.30469 1.1992-0.18359 1.2461-1.4102 0.59766-0.94922 0.69141-0.75391 1.0352-0.83984 0.75391-1.4609 0.77734-0.99609 0.91797-0.82422 0.80078-0.76172 1.1914-0.97266 1.3086-0.28125 1.1719 0.17969 1.1523 0.20312 2.1484 0.22266 1.2266-0.070313 1.3555-0.10547 1.6094-0.28125 1.0977-0.32812 1.0117-0.87109 0.66016-0.93359 1.1445-0.52734 0.97656-0.65234 0.40625-1.3086 0.79297-0.77734 1.0352 0.45703 1.0508 0.21875 1.1797-0.21875 0.94141-0.58984 1.0352-0.39062 1.2461-0.16016 1.2734-0.3125 1.0664-0.28125 1.9688 0.046875 1.332 0.27344 0.97656 0.38281 1.7266 0.13281 2.4883-0.82031 1.3008-1.1016 1.3633-1.1562 1.5508-1.7266 1.4258-1.6797 0.57422 1.2852 0.3125 1 1.2969 1.0352 1.4727 0.89844 1.043 0.11719 1.418-0.29688 1.1445-0.039062 1.3047-0.42188 0.96484-0.68359 0.79688-0.94531 1.5156-0.86719 1.0117-1.1055 0.80078-1.5078 1.9062-0.16406 1.9336 1.8164 1.1758 0.32812 1.0938-0.48047-0.12891-2.0156 1.5-0.46484 1.6445-0.16406 0.98047 0.097656" fill="none" stroke="#fff" stroke-linecap="round" stroke-linejoin="round" stroke-miterlimit="10"/>
<path d="m268.5 238.63c0 3.5898-2.9102 6.5-6.5 6.5-3.5898 0-6.5-2.9102-6.5-6.5 0-3.5898 2.9102-6.5 6.5-6.5 3.5898 0 6.5 2.9102 6.5 6.5" fill="#28c028" fill-rule="evenodd" stroke="#000" stroke-linecap="round" stroke-linejoin="round" stroke-miterlimit="10"/>
<path d="m119.99 226.59 3.2344 1.0156c-0.5 1.793-1.3281 3.125-2.4844 4-1.1484 0.875-2.6016 1.3125-4.3594 1.3125-2.1875 0-3.9844-0.74219-5.3906-2.2344-1.4062-1.5-2.1094-3.5469-2.1094-6.1406 0-2.7383 0.70312-4.8633 2.1094-6.375 1.4141-1.5195 3.2812-2.2812 5.5938-2.2812 2.0078 0 3.6445 0.60156 4.9062 1.7969 0.75 0.69922 1.3125 1.7109 1.6875 3.0312l-3.2969 0.78125c-0.19922-0.85156-0.60547-1.5234-1.2188-2.0156-0.61719-0.5-1.3672-0.75-2.25-0.75-1.2188 0-2.2109 0.4375-2.9688 1.3125-0.76172 0.875-1.1406 2.2969-1.1406 4.2656 0 2.0742 0.375 3.5547 1.125 4.4375 0.75 0.88672 1.7227 1.3281 2.9219 1.3281 0.88281 0 1.6445-0.28125 2.2812-0.84375 0.63281-0.5625 1.0859-1.4414 1.3594-2.6406zm20.922 6.0469h-3.6094l-1.4375-3.7344h-6.5781l-1.3594 3.7344h-3.5312l6.4062-16.469h3.5156zm-6.1094-6.5156-2.2812-6.1094-2.2188 6.1094zm13.812-9.9531h3.3125v10.422c0 1.3672-0.12109 2.418-0.35938 3.1562-0.32422 0.96094-0.90625 1.7305-1.75 2.3125-0.84375 0.57422-1.9609 0.85938-3.3438 0.85938-1.625 0-2.875-0.45312-3.75-1.3594-0.875-0.91406-1.3203-2.2539-1.3281-4.0156l3.1406-0.35938c0.03125 0.94922 0.16406 1.6172 0.40625 2 0.36328 0.59375 0.91016 0.89062 1.6406 0.89062 0.73828 0 1.2578-0.20703 1.5625-0.625 0.3125-0.42578 0.46875-1.3047 0.46875-2.6406zm21.703 16.469h-3.6094l-1.4375-3.7344h-6.5781l-1.3594 3.7344h-3.5312l6.4062-16.469h3.5156zm-6.1094-6.5156-2.2812-6.1094-2.2188 6.1094zm7.8906-9.9531h6.5781c1.3008 0 2.2695 0.058593 2.9062 0.17188 0.64453 0.10547 1.2188 0.32812 1.7188 0.67188 0.50781 0.34375 0.92969 0.80469 1.2656 1.375 0.34375 0.57422 0.51562 1.2188 0.51562 1.9375 0 0.77344-0.21094 1.4805-0.625 2.125-0.41797 0.63672-0.98047 1.1172-1.6875 1.4375 1 0.29297 1.7656 0.79297 2.2969 1.5 0.53906 0.69922 0.8125 1.5273 0.8125 2.4844 0 0.74219-0.17188 1.4648-0.51562 2.1719-0.34375 0.71094-0.82031 1.2773-1.4219 1.7031-0.60547 0.41797-1.3516 0.67969-2.2344 0.78125-0.55469 0.0625-1.8906 0.10156-4.0156 0.10938h-5.5938zm3.3281 2.75v3.7969h2.1719c1.2891 0 2.0977-0.015625 2.4219-0.046875 0.5625-0.070313 1.0039-0.26953 1.3281-0.59375 0.33203-0.32031 0.5-0.75 0.5-1.2812 0-0.50781-0.14062-0.92188-0.42188-1.2344-0.28125-0.32031-0.69922-0.51953-1.25-0.59375-0.33594-0.03125-1.2812-0.046875-2.8438-0.046875zm0 6.5469v4.3906h3.0781c1.1953 0 1.9531-0.03125 2.2656-0.09375 0.5-0.09375 0.90625-0.3125 1.2188-0.65625s0.46875-0.8125 0.46875-1.4062c0-0.48828-0.12109-0.90625-0.35938-1.25-0.24219-0.34375-0.58984-0.59375-1.0469-0.75-0.44922-0.15625-1.4336-0.23438-2.9531-0.23438zm28.109 7.1719h-3.6094l-1.4375-3.7344h-6.5781l-1.3594 3.7344h-3.5312l6.4062-16.469h3.5156zm-6.1094-6.5156-2.2812-6.1094-2.2188 6.1094zm7.8281 6.5156v-16.469h4.9844l2.9844 11.234 2.9531-11.234h4.9844v16.469h-3.0938v-12.953l-3.2656 12.953h-3.2031l-3.25-12.953v12.953zm19.219-16.469h6.5781c1.3008 0 2.2695 0.058593 2.9062 0.17188 0.64453 0.10547 1.2188 0.32812 1.7188 0.67188 0.50781 0.34375 0.92969 0.80469 1.2656 1.375 0.34375 0.57422 0.51562 1.2188 0.51562 1.9375 0 0.77344-0.21094 1.4805-0.625 2.125-0.41797 0.63672-0.98047 1.1172-1.6875 1.4375 1 0.29297 1.7656 0.79297 2.2969 1.5 0.53906 0.69922 0.8125 1.5273 0.8125 2.4844 0 0.74219-0.17188 1.4648-0.51562 2.1719-0.34375 0.71094-0.82031 1.2773-1.4219 1.7031-0.60547 0.41797-1.3516 0.67969-2.2344 0.78125-0.55469 0.0625-1.8906 0.10156-4.0156 0.10938h-5.5938zm3.3281 2.75v3.7969h2.1719c1.2891 0 2.0977-0.015625 2.4219-0.046875 0.5625-0.070313 1.0039-0.26953 1.3281-0.59375 0.33203-0.32031 0.5-0.75 0.5-1.2812 0-0.50781-0.14062-0.92188-0.42188-1.2344-0.28125-0.32031-0.69922-0.51953-1.25-0.59375-0.33594-0.03125-1.2812-0.046875-2.8438-0.046875zm0 6.5469v4.3906h3.0781c1.1953 0 1.9531-0.03125 2.2656-0.09375 0.5-0.09375 0.90625-0.3125 1.2188-0.65625s0.46875-0.8125 0.46875-1.4062c0-0.48828-0.12109-0.90625-0.35938-1.25-0.24219-0.34375-0.58984-0.59375-1.0469-0.75-0.44922-0.15625-1.4336-0.23438-2.9531-0.23438zm28.109 7.1719h-3.6094l-1.4375-3.7344h-6.5781l-1.3594 3.7344h-3.5312l6.4062-16.469h3.5156zm-6.1094-6.5156-2.2812-6.1094-2.2188 6.1094zm0 0" fill="none" stroke="#fff" stroke-linecap="round" stroke-linejoin="round" stroke-miterlimit="10" stroke-width="2"/>
<path d="m119.99 226.59 3.2344 1.0156c-0.5 1.793-1.3281 3.125-2.4844 4-1.1484 0.875-2.6016 1.3125-4.3594 1.3125-2.1875 0-3.9844-0.74219-5.3906-2.2344-1.4062-1.5-2.1094-3.5469-2.1094-6.1406 0-2.7383 0.70312-4.8633 2.1094-6.375 1.4141-1.5195 3.2812-2.2812 5.5938-2.2812 2.0078 0 3.6445 0.60156 4.9062 1.7969 0.75 0.69922 1.3125 1.7109 1.6875 3.0312l-3.2969 0.78125c-0.19922-0.85156-0.60547-1.5234-1.2188-2.0156-0.61719-0.5-1.3672-0.75-2.25-0.75-1.2188 0-2.2109 0.4375-2.9688 1.3125-0.76172 0.875-1.1406 2.2969-1.1406 4.2656 0 2.0742 0.375 3.5547 1.125 4.4375 0.75 0.88672 1.7227 1.3281 2.9219 1.3281 0.88281 0 1.6445-0.28125 2.2812-0.84375 0.63281-0.5625 1.0859-1.4414 1.3594-2.6406zm20.922 6.0469h-3.6094l-1.4375-3.7344h-6.5781l-1.3594 3.7344h-3.5312l6.4062-16.469h3.5156zm-6.1094-6.5156-2.2812-6.1094-2.2188 6.1094zm13.812-9.9531h3.3125v10.422c0 1.3672-0.12109 2.418-0.35938 3.1562-0.32422 0.96094-0.90625 1.7305-1.75 2.3125-0.84375 0.57422-1.9609 0.85938-3.3438 0.85938-1.625 0-2.875-0.45312-3.75-1.3594-0.875-0.91406-1.3203-2.2539-1.3281-4.0156l3.1406-0.35938c0.03125 0.94922 0.16406 1.6172 0.40625 2 0.36328 0.59375 0.91016 0.89062 1.6406 0.89062 0.73828 0 1.2578-0.20703 1.5625-0.625 0.3125-0.42578 0.46875-1.3047 0.46875-2.6406zm21.703 16.469h-3.6094l-1.4375-3.7344h-6.5781l-1.3594 3.7344h-3.5312l6.4062-16.469h3.5156zm-6.1094-6.5156-2.2812-6.1094-2.2188 6.1094zm7.8906-9.9531h6.5781c1.3008 0 2.2695 0.058593 2.9062 0.17188 0.64453 0.10547 1.2188 0.32812 1.7188 0.67188 0.50781 0.34375 0.92969 0.80469 1.2656 1.375 0.34375 0.57422 0.51562 1.2188 0.51562 1.9375 0 0.77344-0.21094 1.4805-0.625 2.125-0.41797 0.63672-0.98047 1.1172-1.6875 1.4375 1 0.29297 1.7656 0.79297 2.2969 1.5 0.53906 0.69922 0.8125 1.5273 0.8125 2.4844 0 0.74219-0.17188 1.4648-0.51562 2.1719-0.34375 0.71094-0.82031 1.2773-1.4219 1.7031-0.60547 0.41797-1.3516 0.67969-2.2344 0.78125-0.55469 0.0625-1.8906 0.10156-4.0156 0.10938h-5.5938zm3.3281 2.75v3.7969h2.1719c1.2891 0 2.0977-0.015625 2.4219-0.046875 0.5625-0.070313 1.0039-0.26953 1.3281-0.59375 0.33203-0.32031 0.5-0.75 0.5-1.2812 0-0.50781-0.14062-0.92188-0.42188-1.2344-0.28125-0.32031-0.69922-0.51953-1.25-0.59375-0.33594-0.03125-1.2812-0.046875-2.8438-0.046875zm0 6.5469v4.3906h3.0781c1.1953 0 1.9531-0.03125 2.2656-0.09375 0.5-0.09375 0.90625-0.3125 1.2188-0.65625s0.46875-0.8125 0.46875-1.4062c0-0.48828-0.12109-0.90625-0.35938-1.25-0.24219-0.34375-0.58984-0.59375-1.0469-0.75-0.44922-0.15625-1.4336-0.23438-2.9531-0.23438zm28.109 7.1719h-3.6094l-1.4375-3.7344h-6.5781l-1.3594 3.7344h-3.5312l6.4062-16.469h3.5156zm-6.1094-6.5156-2.2812-6.1094-2.2188 6.1094zm7.8281 6.5156v-16.469h4.9844l2.9844 11.234 2.9531-11.234h4.9844v16.469h-3.0938v-12.953l-3.2656 12.953h-3.2031l-3.25-12.953v12.953zm19.219-16.469h6.5781c1.3008 0 2.2695 0.058593 2.9062 0.17188 0.64453 0.10547 1.2188 0.32812 1.7188 0.67188 0.50781 0.34375 0.92969 0.80469 1.2656 1.375 0.34375 0.57422 0.51562 1.2188 0.51562 1.9375 0 0.77344-0.21094 1.4805-0.625 2.125-0.41797 0.63672-0.98047 1.1172-1.6875 1.4375 1 0.29297 1.7656 0.79297 2.2969 1.5 0.53906 0.69922 0.8125 1.5273 0.8125 2.4844 0 0.74219-0.17188 1.4648-0.51562 2.1719-0.34375 0.71094-0.82031 1.2773-1.4219 1.7031-0.60547 0.41797-1.3516 0.67969-2.2344 0.78125-0.55469 0.0625-1.8906 0.10156-4.0156 0.10938h-5.5938zm3.3281 2.75v3.7969h2.1719c1.2891 0 2.0977-0.015625 2.4219-0.046875 0.5625-0.070313 1.0039-0.26953 1.3281-0.59375 0.33203-0.32031 0.5-0.75 0.5-1.2812 0-0.50781-0.14062-0.92188-0.42188-1.2344-0.28125-0.32031-0.69922-0.51953-1.25-0.59375-0.33594-0.03125-1.2812-0.046875-2.8438-0.046875zm0 6.5469v4.3906h3.0781c1.1953 0 1.9531-0.03125 2.2656-0.09375 0.5-0.09375 0.90625-0.3125 1.2188-0.65625s0.46875-0.8125 0.46875-1.4062c0-0.48828-0.12109-0.90625-0.35938-1.25-0.24219-0.34375-0.58984-0.59375-1.0469-0.75-0.44922-0.15625-1.4336-0.23438-2.9531-0.23438zm28.109 7.1719h-3.6094l-1.4375-3.7344h-6.5781l-1.3594 3.7344h-3.5312l6.4062-16.469h3.5156zm-6.1094-6.5156-2.2812-6.1094-2.2188 6.1094z" fill-rule="evenodd"/>
</g>
</svg>
