<?xml version="1.0" encoding="UTF-8"?>
<svg width="500pt" height="360pt" version="1.1" viewBox="0 0 500 360" xmlns="http://www.w3.org/2000/svg">
<g id="a">
<rect width="500" height="360" fill="none"/>
<path d="m410.13 49.988 0.48438 0.30078 1.2422-0.33203 1.2578 0.21484 1.2266 0.17188 0.83203 0.65625 1.4453-0.14453 1.543-0.035156 1.0078 0.30469 1.0586 0.74609 1.0469 0.058594 1.3594 0.58984 1.0352 0.19922 1.1172 1.1875 1.2773 0.65625 1.0703 1.2656 1.0703 0.22266 1.1406 0.40625 1.5703 0.046875 1.2266 0.65625 1.3711 0.87109 0.72266 0.82812 0.41016 0.91797 0.68359 0.89062 0.78906 1.2031 1.5469 0.77344 1.0625 0.125 1.1211-0.51172 1.543-0.44141 1.2188-0.12891 2.1133 0.45312 0.98438 0.73438 0.66797 0.92188 0.95312 0.30859 0.89062 0.50781 1.2461-0.019531 1.6094 0.69531 1.5625 1.3047 1.3125 0.51172 1.1055 0.94531 1.1094 0.42578 1.3867 0.41406 1.3633 0.070313 1.2734-0.019532 1.1523 0.64844 1.3086 0.40234 1.1602 0.6875 2.3086 1.0117 1.3047-0.18359 1.8906-0.085938 1.3242 0.26172 1.3516 0.09375 1.6484 0.51562 1.2188 1.5898 0.17969 1.1523 1.2109 0.78125 1.6875 1.207 0.34766 0.94141 1.3828 0.96875 0.76953 0.875 0.94922 0.83203 0.55859 1.1289 1.0234 0.62109 0.99609 0.9375 0.97266 0.69141 1.4961-0.35547 1.7578-0.26953 1.1367 0.039063 1.168-0.33984 0.89844 0.66406 1.293 0.078125 1.6914 0.58203 1.1406 0.15234 1.2188 0.55859 1.1562 0.49609 0.97266 0.83984-0.47266 1.2266-1.0508-0.070312-1.2305 0.14844-1.5938 0.75391-1.1992 0.76562-1.0039 0.64062-0.98047 0.77344-0.83984 0.57812-1.1484 1.4453-0.51562 0.94141-0.88672 1.168-0.62109 1.0039-0.48828 1.1094-1.1758 1.9883-0.5 1.1055-1.0664 3.8711-0.51953 1.5039 0.22266 1.2734-0.68359 1.8555-0.83984 1.0273-0.85547 0.91797-0.41797 0.91406-0.23828 1.25 0.71094 1.1094 0.80078 1.0508 1.332 1.5859 0.65625 1.1016 1.0078 0.6875 1.082 1.0664-0.89453 3.043-2.0703 1.2383-0.51953 1.1172-0.38672 1.4648-0.33203 1.0742-1.875 1.8359-0.82422 1.9297-0.42578 1.5195-0.80469 0.82031-1.2188 0.42578-2.0234-0.015625-1.8164 0.75781-1.3086-0.058594-1.5312 0.14062-0.33594 0.98047-1.2031 2.0859-0.50391 0.99609-0.58594 1.5078-1.7383 1.082-0.87109 1.5195-0.11328 1.6523-0.011719 1.0117-0.58984 1.7891-1.082 1.0586-0.60156 2.8438-0.89844 1.6406-3.4375 2.1836-1.0586 0.67188-1.6367 0.097656-1.1758 0.070313-0.96094 1.2266-0.91016 1.8281-0.42969 1.1523-0.20703 2.3711-0.23828 2.3203-0.91406 1.5898-1.1758 0.66797-0.41797 0.91406-0.94141 0.96484-1.5352 1.3164-0.6875 0.73438-1.2578 1.2305-0.82031 0.73828-1.3789 1.2148-0.70312 0.89844-1.207 0.92188-0.98828 0.23438-1.0781-0.57031-1.8906 0.011719-1.0469-0.71484-1.2812-0.32812-1.4688-0.03125-1.207-0.52734-1.0312-1.043-1.7656 0.82812-1.2266 0.14453-0.87109 0.67578-0.92578 0.53516-0.82422 0.57422-0.63281 1.1133-1.207 0.88672-1.0547 0.57812-1.4453 0.22266-1.3359 0.98438-1.1758 0.28125-1.1953 0.34766-1.2461-0.31641-1.0117-0.10547-1.4219-0.5-0.75781-0.95703-0.89453-1.1289-1.082-1.8086-0.39844-1.5469-0.10938-1.4375-0.72266-1.1484-1.7852-0.5625-2.3789-0.53906-1.4727-0.57812-1.2344-0.48828-0.92578-0.51953-1.3594-0.53125-0.96875 0.62109-0.54688 1.8359-0.19141 1.3242-0.73438 0.71875-1.5195-0.12109-1.9883 0.72266-1.5352 0.82812-0.95312 0.44531-1.2383 1.3516-1.0312 0.96484-0.96875 0.47266-0.23047 1.2305-0.30859 1.5547-0.84375 1.4492-0.90234 0.75-1.1641-0.34375-0.40234-1.1367-0.11328-1.1055-0.26562-1.0703-0.26562-1.1484-1.1289-2.2461-0.23047-1.3906 0.73047-1-0.035156-1.0742 0.79297-1.9688-0.15234-1.332-0.48047-1.1289-0.69141-1.4023-0.59766-1.0078-0.80078-1.0156-0.99609-0.30078-1.3242 0.34766-1.5078 0.67188-1.1523 0.96875-0.97266 1.5-1.4648 0.78906-0.89844 0.70703-0.88281 1.1445-0.16016 2.1602 0.16016 1.2891-0.30859 1.9414-0.32812 1.4922-0.24219 1.6055-0.14844 0.99609-1.082 0.63281-1.6797 0.51172-1.3164 0.89844-2.4727-0.26562-1.9805-0.023437-2.418-0.007813-1.3711-0.125-1.1094-0.1875-1.6953-0.28516-1.3477-0.30078-1.7031-0.375-1.1719-0.16016-2.4688-0.32812-1.5664-0.46875-1.8477-0.19141-1.6875 0.18359-1.8555 0.51953-2.168 1.0547-1.6289 1.1641-0.95312 0.67969-1.2188 0.76172-0.91406 0.48828-0.23438 1.7031-0.71875-1.5352 0.14062-1.5078 0.1875-1.0547 0.48828-0.92578-0.67188-0.77344 0.15234-2.4414 0.027344-1.3867 0.13672-1.0625 0.17578-1.0742-0.59375-0.82422-0.43359-1.2734-0.17578-1.6523-0.066407-1.4336 0.14844-1.125-0.089844-1.4492-0.90625-1.3438-0.29297-1.7695-0.45703-1.2812-0.71875-0.88672-0.46484-0.99609-0.62109-0.97656-0.63281-1.7461-0.77734-1.2109-0.63281-2.0391 0.085937-1.2305 0.10156-1.4219 1.3516-0.77734 1.0938-0.76172 1.4141-0.67188 3.8789-1.832 1.918-0.67578 1.1602-0.37891 1.3711-0.42188 1.4102-0.47656 0.36328-1.0039 0.77734-1.4102 2.8008-2.1641 1.8242-1.8359 1.0352-0.51562 1.5664-0.32812 1.4609-0.82422 0.89844-1.3047 0.79297-1.1523 0.80859-0.63672 0.73828-1.5195 0.88672-1.7461-0.35938-1.2656 0.75781-2.2695 0.55469-1.3633 0.41406-3.332-0.26562-1.3867 0.13672-1.1328 2.1992-1.4453-1.6289-3.0156-1.3398-1.9141-0.74219-1.0117 0.16797-1.8594 0.34375-0.98438 0.9375-1.4609 0.35547-1.9453 0.57812-1.1797 0.96094-0.47266 0.48438-1.4727 0.90234-0.92969 2.2422-2.3008 2.1055-0.40625 1.0859-0.23438 1.8672-0.20703 1.5039-0.70312 1.0547-0.54297 1.3281-0.4375 1.7461-0.30859 1.2812 0.042969 1.2969-1.0586 0.80859-1.0312 0.75-0.84375 1.3125-0.8125 2.4609-1.2773 2.4258-1.6094 1.3984-0.64062 1.5625-0.46094 1.2383-0.054687 1.3008 0.20312-0.089844 2.4492-0.17969 2.7031-0.46875 1.7461 0.53125 1.6094 0.85547 1.3438 0.90625 1.0117 2.2031 1 0.94922-0.51562 0.375-1.0898 0.65625-1.0156 1.5469-0.85938 2.1523-0.67188 1.3555-1.3672 0.56641-1.0352 1.0469-1.1094 1.082-1.5273 1.0508-1.0312 2.3516-2.0234 1.1406-1.8438 0.74609-1.4141 0.25781-1.1641 0.15625-1.7227 0.65625-0.84375 0.88672-0.72266 0.40625-1.5547 0.80078-1.6992-0.28906-1.418-1.2188-0.57812-0.46094-1.2461 0.14453-1.4102-0.52344-2.25-0.27734-1.0234-0.13672-1.1953 0.84375-0.6875 0.36719-1.0352-1.207-1.0586-0.78516-0.71484-0.09375-1.7109 0.007813-1.418-0.13281-1.3984 0.57812-0.90234 0.71484-0.78125-0.51172-1.4844-0.41016-1.9727 0.17578-1.3711 0.52344-1.7734 0.27734-1.9727 0.30078-1.0781z" fill="#ccc" fill-rule="evenodd"/>
<path d="m410.13 49.988 0.48438 0.30078 1.2422-0.33203 1.2578 0.21484 1.2266 0.17188 0.83203 0.65625 1.4453-0.14453 1.543-0.035156 1.0078 0.30469 1.0586 0.74609 1.0469 0.058594 1.3594 0.58984 1.0352 0.19922 1.1172 1.1875 1.2773 0.65625 1.0703 1.2656 1.0703 0.22266 1.1406 0.40625 1.5703 0.046875 1.2266 0.65625 1.3711 0.87109 0.72266 0.82812 0.41016 0.91797 0.68359 0.89062 0.78906 1.2031 1.5469 0.77344 1.0625 0.125 1.1211-0.51172 1.543-0.44141 1.2188-0.12891 2.1133 0.45312 0.98438 0.73438 0.66797 0.92188 0.95312 0.30859 0.89062 0.50781 1.2461-0.019531 1.6094 0.69531 1.5625 1.3047 1.3125 0.51172 1.1055 0.94531 1.1094 0.42578 1.3867 0.41406 1.3633 0.070313 1.2734-0.019532 1.1523 0.64844 1.3086 0.40234 1.1602 0.6875 2.3086 1.0117 1.3047-0.18359 1.8906-0.085938 1.3242 0.26172 1.3516 0.09375 1.6484 0.51562 1.2188 1.5898 0.17969 1.1523 1.2109 0.78125 1.6875 1.207 0.34766 0.94141 1.3828 0.96875 0.76953 0.875 0.94922 0.83203 0.55859 1.1289 1.0234 0.62109 0.99609 0.9375 0.97266 0.69141 1.4961-0.35547 1.7578-0.26953 1.1367 0.039063 1.168-0.33984 0.89844 0.66406 1.293 0.078125 1.6914 0.58203 1.1406 0.15234 1.2188 0.55859 1.1562 0.49609 0.97266 0.83984-0.47266 1.2266-1.0508-0.070312-1.2305 0.14844-1.5938 0.75391-1.1992 0.76562-1.0039 0.64062-0.98047 0.77344-0.83984 0.57812-1.1484 1.4453-0.51562 0.94141-0.88672 1.168-0.62109 1.0039-0.48828 1.1094-1.1758 1.9883-0.5 1.1055-1.0664 3.8711-0.51953 1.5039 0.22266 1.2734-0.68359 1.8555-0.83984 1.0273-0.85547 0.91797-0.41797 0.91406-0.23828 1.25 0.71094 1.1094 0.80078 1.0508 1.332 1.5859 0.65625 1.1016 1.0078 0.6875 1.082 1.0664-0.89453 3.043-2.0703 1.2383-0.51953 1.1172-0.38672 1.4648-0.33203 1.0742-1.875 1.8359-0.82422 1.9297-0.42578 1.5195-0.80469 0.82031-1.2188 0.42578-2.0234-0.015625-1.8164 0.75781-1.3086-0.058594-1.5312 0.14062-0.33594 0.98047-1.2031 2.0859-0.50391 0.99609-0.58594 1.5078-1.7383 1.082-0.87109 1.5195-0.11328 1.6523-0.011719 1.0117-0.58984 1.7891-1.082 1.0586-0.60156 2.8438-0.89844 1.6406-3.4375 2.1836-1.0586 0.67188-1.6367 0.097656-1.1758 0.070313-0.96094 1.2266-0.91016 1.8281-0.42969 1.1523-0.20703 2.3711-0.23828 2.3203-0.91406 1.5898-1.1758 0.66797-0.41797 0.91406-0.94141 0.96484-1.5352 1.3164-0.6875 0.73438-1.2578 1.2305-0.82031 0.73828-1.3789 1.2148-0.70312 0.89844-1.207 0.92188-0.98828 0.23438-1.0781-0.57031-1.8906 0.011719-1.0469-0.71484-1.2812-0.32812-1.4688-0.03125-1.207-0.52734-1.0312-1.043-1.7656 0.82812-1.2266 0.14453-0.87109 0.67578-0.92578 0.53516-0.82422 0.57422-0.63281 1.1133-1.207 0.88672-1.0547 0.57812-1.4453 0.22266-1.3359 0.98438-1.1758 0.28125-1.1953 0.34766-1.2461-0.31641-1.0117-0.10547-1.4219-0.5-0.75781-0.95703-0.89453-1.1289-1.082-1.8086-0.39844-1.5469-0.10938-1.4375-0.72266-1.1484-1.7852-0.5625-2.3789-0.53906-1.4727-0.57812-1.2344-0.48828-0.92578-0.51953-1.3594-0.53125-0.96875 0.62109-0.54688 1.8359-0.19141 1.3242-0.73438 0.71875-1.5195-0.12109-1.9883 0.72266-1.5352 0.82812-0.95312 0.44531-1.2383 1.3516-1.0312 0.96484-0.96875 0.47266-0.23047 1.2305-0.30859 1.5547-0.84375 1.4492-0.90234 0.75-1.1641-0.34375-0.40234-1.1367-0.11328-1.1055-0.26562-1.0703-0.26562-1.1484-1.1289-2.2461-0.23047-1.3906 0.73047-1-0.035156-1.0742 0.79297-1.9688-0.15234-1.332-0.48047-1.1289-0.69141-1.4023-0.59766-1.0078-0.80078-1.0156-0.99609-0.30078-1.3242 0.34766-1.5078 0.67188-1.1523 0.96875-0.97266 1.5-1.4648 0.78906-0.89844 0.70703-0.88281 1.1445-0.16016 2.1602 0.16016 1.2891-0.30859 1.9414-0.32812 1.4922-0.24219 1.6055-0.14844 0.99609-1.082 0.63281-1.6797 0.51172-1.3164 0.89844-2.4727-0.26562-1.9805-0.023437-2.418-0.007813-1.3711-0.125-1.1094-0.1875-1.6953-0.28516-1.3477-0.30078-1.7031-0.375-1.1719-0.16016-2.4688-0.32812-1.5664-0.46875-1.8477-0.19141-1.6875 0.18359-1.8555 0.51953-2.168 1.0547-1.6289 1.1641-0.95312 0.67969-1.2188 0.76172-0.91406 0.48828-0.23438 1.7031-0.71875-1.5352 0.14062-1.5078 0.1875-1.0547 0.48828-0.92578-0.67188-0.77344 0.15234-2.4414 0.027344-1.3867 0.13672-1.0625 0.17578-1.0742-0.59375-0.82422-0.43359-1.2734-0.17578-1.6523-0.066407-1.4336 0.14844-1.125-0.089844-1.4492-0.90625-1.3438-0.29297-1.7695-0.45703-1.2812-0.71875-0.88672-0.46484-0.99609-0.62109-0.97656-0.63281-1.7461-0.77734-1.2109-0.63281-2.0391 0.085937-1.2305 0.10156-1.4219 1.3516-0.77734 1.0938-0.76172 1.4141-0.67188 3.8789-1.832 1.918-0.67578 1.1602-0.37891 1.3711-0.42188 1.4102-0.47656 0.36328-1.0039 0.77734-1.4102 2.8008-2.1641 1.8242-1.8359 1.0352-0.51562 1.5664-0.32812 1.4609-0.82422 0.89844-1.3047 0.79297-1.1523 0.80859-0.63672 0.73828-1.5195 0.88672-1.7461-0.35938-1.2656 0.75781-2.2695 0.55469-1.3633 0.41406-3.332-0.26562-1.3867 0.13672-1.1328 2.1992-1.4453-1.6289-3.0156-1.3398-1.9141-0.74219-1.0117 0.16797-1.8594 0.34375-0.98438 0.9375-1.4609 0.35547-1.9453 0.57812-1.1797 0.96094-0.47266 0.48438-1.4727 0.90234-0.92969 2.2422-2.3008 2.1055-0.40625 1.0859-0.23438 1.8672-0.20703 1.5039-0.70312 1.0547-0.54297 1.3281-0.4375 1.7461-0.30859 1.2812 0.042969 1.2969-1.0586 0.80859-1.0312 0.75-0.84375 1.3125-0.8125 2.4609-1.2773 2.4258-1.6094 1.3984-0.64062 1.5625-0.46094 1.2383-0.054687 1.3008 0.20312-0.089844 2.4492-0.17969 2.7031-0.46875 1.7461 0.53125 1.6094 0.85547 1.3438 0.90625 1.0117 2.2031 1 0.94922-0.51562 0.375-1.0898 0.65625-1.0156 1.5469-0.85938 2.1523-0.67188 1.3555-1.3672 0.56641-1.0352 1.0469-1.1094 1.082-1.5273 1.0508-1.0312 2.3516-2.0234 1.1406-1.8438 0.74609-1.4141 0.25781-1.1641 0.15625-1.7227 0.65625-0.84375 0.88672-0.72266 0.40625-1.5547 0.80078-1.6992-0.28906-1.418-1.2188-0.57812-0.46094-1.2461 0.14453-1.4102-0.52344-2.25-0.27734-1.0234-0.13672-1.1953 0.84375-0.6875 0.36719-1.0352-1.207-1.0586-0.78516-0.71484-0.09375-1.7109 0.007813-1.418-0.13281-1.3984 0.57812-0.90234 0.71484-0.78125-0.51172-1.4844-0.41016-1.9727 0.17578-1.3711 0.52344-1.7734 0.27734-1.9727 0.30078-1.0781 0.78125 0.96484" fill="none" stroke="#fff" stroke-linecap="round" stroke-linejoin="round" stroke-miterlimit="10" stroke-width="2"/>
<path d="m232.07 21.316 0.16016 0.035157 1.043 0.32031 1.0664 0.15234 1.1836-0.30469 1.3828 0.70312 1.332-0.03125 1.1094 0.64844 0.55859 1.0703 1.3906 1.582 0.96875 0.62891 1.0391 0.21484 2.3984 0.11328 1.0703-0.074219 1.0547 0.33594 0.67578 1.1211 1.0664 0.86719 0.70703 0.70703 1.1016 0.51953 1.1016-0.097656 1.25 0.007813 1.0547-0.074219 1.0664-0.22656 1.5391-0.24609 1.1211-0.75391 1.6523 0.32031 1.2383 0.074219 1.2891-0.007813 1.4023 0.51953 1.332 0.37109 1.418-0.69922 1.2109-0.44531 1.5234-1.4375 1.3711-0.16406 0.82031 0.90234-0.097657 1.0898-1.1016 0.41406-0.75391 1.2734-1.7734 0.87891-1.75 1.5859-0.93359 1.3516-0.82422 1.2969-1.1602 1.8164-0.89062 1.4102-0.41797 1.7656-0.40234 1.1211-0.85156 0.63672-0.76562 0.73828-0.49219 1.2734 0.46875 3.0586 0.28125 1.3711-0.44922 1.3477-0.27734 1.0703-0.90234 1.7539-0.83203 1.1016-1.3789 2.25-0.5625 1.0273 0.54688 1.832 0.35938 1.4805-0.011719 1.0117-0.40625 2.1094-0.019531 1.6445-0.027344 1.8945-0.24219 1.5508-0.32031 2.0234-0.34375 1.1055-1.2578 0.80859-1.1289 1-0.96484 1.4961-0.91797 1.4219-0.98047 1.1523-0.62891 1.0898-1.1875 1.6289-0.47266 0.90234-1.1758 0.93359-2.2852-0.93359-1.1328-1.0391-0.78125-0.71484-2.125-2.4609-0.23828-1.4297-1.1016-1.0938-1.8359-0.68359-0.85156-0.83984-1.0312-0.74609-1.5703-0.82422-1.9883-0.039062-1.4844 0.58203-1.4805 0.23828-1.5352 0.87109-1.4883 0.61719-1.5664 0.78906-1.1758 0.36328-0.45703 1.3906 0.011719 1.9531 0.28516 3.0977-1.9531 0.78125-1.1328 0.10156-2.3984-0.0625-2.0664 0.11328-1.3125-0.17969-1.2773 0.63672-0.15234 1.0352-0.34375 1.25-0.73828 0.85156-1.3008 0.35938-1.8359 0.96875-2.4531 0.95312-1.0781 0.88281-0.69141 1.2109-1.4023 1.1602-0.73828 1.0586-1.0703 0.47266-1.7344 1.1602-0.91797 0.61328-3.5508 0.89844-1.375 0.34766-2.5703 0.65234-1.2891 0.43359-1.3516-0.38672-1.6562 1.1016-1.0469 0.81641-0.78906 0.91797-1.1562 0.53516-2.4258 2.1445-1.3164 1.668-0.63672 1.5547-1.7344 1.5625-1.4375 0.9375 0.60938 2.7148 2.6641 2.5117 0.98047 0.86719 1.0859 1.668 0.34375 1.0742 0.70312 1.4258-0.24219 1.4258 0.36719 1.582-0.089843 1.3789-0.97266 1.5039-1.0547 1.625-1.0703 1.2969-1.4258 2.6133-1.2383 2.5508-1.5312 1.7188-1.6836 0.87891-1.6641 0.52734-2.1836 0.67188-1.4023 0.625-1.2148 0.28516-2.625 0.37891-1.7891 0.51172-3.0703 1.0938-1.7656 1.0273-0.98828 0.31641-1.25-0.27344-1.5273 0.47266-2.1133 0.71094-1.6602 0.18359-1.3711-0.16797-1.2578-0.15234-1.4492-0.17188-1.2773 0.31641-1.5195 1.168-0.95703 0.5625-2.2031-1.0195-1.582-0.26953-1.8477 0.625-1.6211-0.17578-1.3008 0.035156-1.582 0.30859-2.1133 1.0312-1.0078 0.85547-0.90625 1.5273-0.89062 1.1484-1.4062 2.0391-0.96875 0.53906-1.4258 0.19141-1.0469 0.32031-0.90234 0.55078-1.0469 0.40625-1.9297 0.18359-2.1211-0.20312-1.0195-1.5898-0.69531-0.73828-1.5469-0.3125-1.0156 0.15625-0.92578 0.67188-0.45703 1.7461-1.0312 0.91406-1.082 0.011719-1.3438 0.33203-1.1719 1.1797-1.0312 0.84375-2.4844 1.3086-1.3086 0.16016-1.5781 0.023438-1.1094 0.33594-1.0508 0.65234-1.5039 0.83594-1.5781 0.72656-1.3867 0.44531-1.0234 0.59766-0.86328 0.70312-1.4648 0.023437-1.7734-0.86719-1.2383-0.67578-1.2461-1.0469-1.4414-0.34375-1.2148 0.20312-1.1328 0.26562-1.3398-1.1211-1.9258-0.67188-1.2031-0.27344-1.3398-0.62109-1.793-0.63281-1.1953-0.71484-1.2031-0.78516-0.66406-0.98828-0.89844-1.8398-0.81641-1.4297-0.59766-0.85938-1.7969-1.4336-1.7266-0.89844-1.4375-0.5625-1.4336-0.875-0.65625-0.79297-0.55859-0.98047-0.94141-1.2109-1.0977-1.2773-0.47266-1.3516 0.011718-1.3359 0.15234-1.7188-0.36719-1.2617-1.3047-1.1992-1.1094-0.28906-1.1094-0.023438-1.3008-0.22656-1.2305-0.30078-1.4531-0.42188-1.6914 0.60938-1.0039 1.3906-1.1953 0.94141-0.94141 0.62891-1.125 0.38281-1.082-0.35156-1.3438 1.332-0.98438 0.96094-1.3477 0.58594-1.4453-0.19531-0.92578 0.83984-1.293 0.85547-1.2539 0.1875-1.3672-0.6875-1.043-0.72266-1.2578-0.80469-0.60938-0.99219-1.4258-0.007813-1.4492 0.23828-1.2031 0.23438-1.082-0.074219-0.97656-0.30859-1.875-1.2773-0.87891-1.2695-1.0469-1.6055-0.60547-0.93359-0.79297-1.125-0.74219-0.96875-1.5234-2.0664-0.91406-0.74219-0.82422-0.98047-1.1133-0.96875-2.0391-0.21094-1.125 0.30469-1.1914-0.27734-2.5391-0.83984-3.7344-1.0859-1.4844-0.66016-0.73047-1.1406-0.22656-1.3281-0.089843-1.4883-1.3711-1.4844 1.0586 0.17188 1.0938 0.37109 1.125 0.015625 1.0039-0.40234 1.1719 0.20312 1.2266 0.375 1.4844-0.99219 1.3516-0.60938 1.4727-0.37891 1.1445-0.078125 0.97656-0.69141 0.91797-0.42578 1.8359-0.84766 1-0.91797 0.92188-0.8125 1.0039-0.44531 1-0.89453 0.64844-0.96094 1.0508-0.65625 1.1914-0.17969 1.1562-0.28906 1.8047-0.85938 1.75-0.65625 1.6484-1.4531 1.4688-0.92188 0.71484-0.71875 1.0625-1.3398 0.73828-0.95703 0.8125-0.78906 0.26562-1.1016 1.5703-0.96484 0.60156-0.92578-0.14844-1.2656 0.75391-1.3047 0.89844-0.8125 1.8828-2.8945 1.3008-1.1016 1.7617-0.35938 1.9844-1.1484 1.1133-0.36328 1.0508 0.18359 1.1016 0.20312 1.1094-0.46484 1.2148-1.2266 1.2266-0.32812 1.2969 0.12109 0.88281-0.46484 0.87109-0.6875 0.92188-0.66797 1.3516-0.47266 1.0195 0.23047 1.2188 0.69531 0.61719 0.79297 1.0352 0.75391 1.207-0.33203 0.74219-0.99219 1.6719 0.66797 1.1367 0.43359 0.45312-1.3047 0.25781-1.5703 0.054688-1.6797-0.23047-1.3945-0.5625-2.1523-0.80469-0.83203-0.35547-1.2812-0.039063-1.0547v-1.0508l-0.27734-1.1484-0.85156-0.95703-1.0391-1.7852-0.62109-0.78906-0.93359-0.85938-0.69531-1.0195-0.70312-1.0742 0.25391-1.7148 0.38281-1.0234 0.94141-0.84766 0.64453-0.82031 0.71094-0.84766 0.51172-1.2461 0.39453-1.4922-0.21484-1.3281 0.33203-1.1875 0.96094-1.8164 0.98828-0.40625 0.23047-1.0586-0.95703-0.36719-1.2461-1.543-0.34375-1.4883-0.054687-1.0234-0.55859-1.2578-0.33203-1.0938 0.36719-0.94531 2.0977-0.11328 1.2734-1.0352 0.72266-0.76562 1.6641-1.3359 0.96875-0.47656 0.74219-1.1484 0.29688-1.5312 0.31641-1.1523 1.0273-0.13281 1.1484 0.28516 0.99219-0.67578 1.2656-1.5898 0.91797-0.52734 0.90234-0.46094 1.1523-1.1797 2.5117-0.48047 1.1328 0.085937 1.6094-0.55078 1.1641-0.62109 0.80469-0.85156 0.91797 0.44922 2.668 1.4688 1.043 0.078125 1.1406-0.26953 2.3047-0.41016 1.7188-0.40234 0.99219-0.27734 1.1992-0.23828 1.1992 0.96875 2.5117-0.003906 1.8633-0.1875 2.5664-0.86719 1.1055-0.67969 2.1953-1.1562 1.4844-1.5039 0.51953-1.4219 0.79297-0.67188 2.543 0.24609 5.0898 1.9609 1.1133 0.16406 1.4883-0.86719 0.85938-0.83203 1.3125-0.20312 2.332 0.81641 2.0312 1.2695 1.1055 1.1523 1.7227 0.87109 1.3555-0.089844 1.6602-0.80469 1.1094-0.53906 1.5391-1.2852 1.5117-0.63672 1.418-0.49609 1.2891-0.41016 2.1133 1.375 3.4336 2.3594 0.82422 0.56641 1.3516 0.63281 1.207-0.58203 1.9883-1.4648 1.0195-0.64844 1.5508-0.66016 1.6328-0.44922 0.67578-2.0117 0.24609-0.98047 0.39062-0.99219 1.0078-0.59766 1.1211-0.24219 1.5195-0.011718 0.92969 0.61719 0.78906 1.4531 1.1133 0.23438 1.0195 0.22656 1.6172 1.7969 0.90625 1.0195 0.85156 0.625 0.98438 0.71875 0.96484 0.70703 1.1211 0.57031 1.7422 0.14062 0.95703 1.3359 1.1562 2.6445 1.0391 1.2305 1.0273 1.3867 0.60547 1.0273 1.8359 1.707 0.38281 1.043-0.0625 1.5273-0.55469 1.5664 0.015625 1.0117 0.97656 1.1953 0.98828 0.29297 0.89844 0.65625 1.0898 0.9375 1.2695 0.51172 0.77344 0.79688 0.20312 1.4492-0.10156 1.4023-0.078125 1.0781 0.10156 1.3867 0.089844 1.1523 0.097656 1.293 0.51953 1.7891 0.74609 1.3242 0.21484 1.0156-0.4375 1.957-0.33203 1.8242 0.47656 1.9258 0.83203 1.4609 0.91797 1.3164 1.1289-0.15234 1.5039-0.027344 1.0039 0.085937 1.0156-0.19531 0.99609-0.54688 0.60547-0.91016 0.84766-1.0234 0.53516-0.85938 0.70312-0.91797 1.3242-1.1367 1.293-0.54297 1.0586-0.32031 0.78516-0.625 1.207-0.54297 1.293-0.46094 0.70312-0.8125-0.13281-1.1641-0.64844-0.98828-0.37891-1.0586 0.20312-1.1641 0.45703-1.1875 1.25-0.57031 0.78516-0.68359 0.89062-0.57812 0.039063-1.168-0.75391-1.0312-0.33203-0.99609 0.63281-1.2148 0.65625-1.0664-0.37891-1.3398-0.15234-1.0312 0.41406-1.0156 0.95703-0.64844-0.042969-1.1094 0.49219-0.95703 0.26172-1.1172 0.83984-0.80859 1.043-0.85938 1.2461-0.85156 0.34766-1.1289 0.24219-1.1602 0.38672-1.207 0.32031-1.8906 0.5-0.91016 1.2656-0.007812 1.082-0.13281 1.1055-0.79297 0.75391-0.78125 1.0078-2.3555v-1.0547l0.91406-0.54297 1.2266 0.078125 1.1211-0.09375 1.832-0.71484 0.95703-0.35547 0.92969-0.46484 0.98047-0.35156 1.0234-0.39453 1.0078-0.55859 0.78125-0.83984 1.0781-0.96484 1.2773-0.36719z" fill="#ccc" fill-rule="evenodd"/>
<path d="m232.07 21.316 0.16016 0.035157 1.043 0.32031 1.0664 0.15234 1.1836-0.30469 1.3828 0.70312 1.332-0.03125 1.1094 0.64844 0.55859 1.0703 1.3906 1.582 0.96875 0.62891 1.0391 0.21484 2.3984 0.11328 1.0703-0.074219 1.0547 0.33594 0.67578 1.1211 1.0664 0.86719 0.70703 0.70703 1.1016 0.51953 1.1016-0.097656 1.25 0.007813 1.0547-0.074219 1.0664-0.22656 1.5391-0.24609 1.1211-0.75391 1.6523 0.32031 1.2383 0.074219 1.2891-0.007813 1.4023 0.51953 1.332 0.37109 1.418-0.69922 1.2109-0.44531 1.5234-1.4375 1.3711-0.16406 0.82031 0.90234-0.097657 1.0898-1.1016 0.41406-0.75391 1.2734-1.7734 0.87891-1.75 1.5859-0.93359 1.3516-0.82422 1.2969-1.1602 1.8164-0.89062 1.4102-0.41797 1.7656-0.40234 1.1211-0.85156 0.63672-0.76562 0.73828-0.49219 1.2734 0.46875 3.0586 0.28125 1.3711-0.44922 1.3477-0.27734 1.0703-0.90234 1.7539-0.83203 1.1016-1.3789 2.25-0.5625 1.0273 0.54688 1.832 0.35938 1.4805-0.011719 1.0117-0.40625 2.1094-0.019531 1.6445-0.027344 1.8945-0.24219 1.5508-0.32031 2.0234-0.34375 1.1055-1.2578 0.80859-1.1289 1-0.96484 1.4961-0.91797 1.4219-0.98047 1.1523-0.62891 1.0898-1.1875 1.6289-0.47266 0.90234-1.1758 0.93359-2.2852-0.93359-1.1328-1.0391-0.78125-0.71484-2.125-2.4609-0.23828-1.4297-1.1016-1.0938-1.8359-0.68359-0.85156-0.83984-1.0312-0.74609-1.5703-0.82422-1.9883-0.039062-1.4844 0.58203-1.4805 0.23828-1.5352 0.87109-1.4883 0.61719-1.5664 0.78906-1.1758 0.36328-0.45703 1.3906 0.011719 1.9531 0.28516 3.0977-1.9531 0.78125-1.1328 0.10156-2.3984-0.0625-2.0664 0.11328-1.3125-0.17969-1.2773 0.63672-0.15234 1.0352-0.34375 1.25-0.73828 0.85156-1.3008 0.35938-1.8359 0.96875-2.4531 0.95312-1.0781 0.88281-0.69141 1.2109-1.4023 1.1602-0.73828 1.0586-1.0703 0.47266-1.7344 1.1602-0.91797 0.61328-3.5508 0.89844-1.375 0.34766-2.5703 0.65234-1.2891 0.43359-1.3516-0.38672-1.6562 1.1016-1.0469 0.81641-0.78906 0.91797-1.1562 0.53516-2.4258 2.1445-1.3164 1.668-0.63672 1.5547-1.7344 1.5625-1.4375 0.9375 0.60938 2.7148 2.6641 2.5117 0.98047 0.86719 1.0859 1.668 0.34375 1.0742 0.70312 1.4258-0.24219 1.4258 0.36719 1.582-0.089843 1.3789-0.97266 1.5039-1.0547 1.625-1.0703 1.2969-1.4258 2.6133-1.2383 2.5508-1.5312 1.7188-1.6836 0.87891-1.6641 0.52734-2.1836 0.67188-1.4023 0.625-1.2148 0.28516-2.625 0.37891-1.7891 0.51172-3.0703 1.0938-1.7656 1.0273-0.98828 0.31641-1.25-0.27344-1.5273 0.47266-2.1133 0.71094-1.6602 0.18359-1.3711-0.16797-1.2578-0.15234-1.4492-0.17188-1.2773 0.31641-1.5195 1.168-0.95703 0.5625-2.2031-1.0195-1.582-0.26953-1.8477 0.625-1.6211-0.17578-1.3008 0.035156-1.582 0.30859-2.1133 1.0312-1.0078 0.85547-0.90625 1.5273-0.89062 1.1484-1.4062 2.0391-0.96875 0.53906-1.4258 0.19141-1.0469 0.32031-0.90234 0.55078-1.0469 0.40625-1.9297 0.18359-2.1211-0.20312-1.0195-1.5898-0.69531-0.73828-1.5469-0.3125-1.0156 0.15625-0.92578 0.67188-0.45703 1.7461-1.0312 0.91406-1.082 0.011719-1.3438 0.33203-1.1719 1.1797-1.0312 0.84375-2.4844 1.3086-1.3086 0.16016-1.5781 0.023438-1.1094 0.33594-1.0508 0.65234-1.5039 0.83594-1.5781 0.72656-1.3867 0.44531-1.0234 0.59766-0.86328 0.70312-1.4648 0.023437-1.7734-0.86719-1.2383-0.67578-1.2461-1.0469-1.4414-0.34375-1.2148 0.20312-1.1328 0.26562-1.3398-1.1211-1.9258-0.67188-1.2031-0.27344-1.3398-0.62109-1.793-0.63281-1.1953-0.71484-1.2031-0.78516-0.66406-0.98828-0.89844-1.8398-0.81641-1.4297-0.59766-0.85938-1.7969-1.4336-1.7266-0.89844-1.4375-0.5625-1.4336-0.875-0.65625-0.79297-0.55859-0.98047-0.94141-1.2109-1.0977-1.2773-0.47266-1.3516 0.011718-1.3359 0.15234-1.7188-0.36719-1.2617-1.3047-1.1992-1.1094-0.28906-1.1094-0.023438-1.3008-0.22656-1.2305-0.30078-1.4531-0.42188-1.6914 0.60938-1.0039 1.3906-1.1953 0.94141-0.94141 0.62891-1.125 0.38281-1.082-0.35156-1.3438 1.332-0.98438 0.96094-1.3477 0.58594-1.4453-0.19531-0.92578 0.83984-1.293 0.85547-1.2539 0.1875-1.3672-0.6875-1.043-0.72266-1.2578-0.80469-0.60938-0.99219-1.4258-0.007813-1.4492 0.23828-1.2031 0.23438-1.082-0.074219-0.97656-0.30859-1.875-1.2773-0.87891-1.2695-1.0469-1.6055-0.60547-0.93359-0.79297-1.125-0.74219-0.96875-1.5234-2.0664-0.91406-0.74219-0.82422-0.98047-1.1133-0.96875-2.0391-0.21094-1.125 0.30469-1.1914-0.27734-2.5391-0.83984-3.7344-1.0859-1.4844-0.66016-0.73047-1.1406-0.22656-1.3281-0.089843-1.4883-1.3711-1.4844 1.0586 0.17188 1.0938 0.37109 1.125 0.015625 1.0039-0.40234 1.1719 0.20312 1.2266 0.375 1.4844-0.99219 1.3516-0.60938 1.4727-0.37891 1.1445-0.078125 0.97656-0.69141 0.91797-0.42578 1.8359-0.84766 1-0.91797 0.92188-0.8125 1.0039-0.44531 1-0.89453 0.64844-0.96094 1.0508-0.65625 1.1914-0.17969 1.1562-0.28906 1.8047-0.85938 1.75-0.65625 1.6484-1.4531 1.4688-0.92188 0.71484-0.71875 1.0625-1.3398 0.73828-0.95703 0.8125-0.78906 0.26562-1.1016 1.5703-0.96484 0.60156-0.92578-0.14844-1.2656 0.75391-1.3047 0.89844-0.8125 1.8828-2.8945 1.3008-1.1016 1.7617-0.35938 1.9844-1.1484 1.1133-0.36328 1.0508 0.18359 1.1016 0.20312 1.1094-0.46484 1.2148-1.2266 1.2266-0.32812 1.2969 0.12109 0.88281-0.46484 0.87109-0.6875 0.92188-0.66797 1.3516-0.47266 1.0195 0.23047 1.2188 0.69531 0.61719 0.79297 1.0352 0.75391 1.207-0.33203 0.74219-0.99219 1.6719 0.66797 1.1367 0.43359 0.45312-1.3047 0.25781-1.5703 0.054688-1.6797-0.23047-1.3945-0.5625-2.1523-0.80469-0.83203-0.35547-1.2812-0.039063-1.0547v-1.0508l-0.27734-1.1484-0.85156-0.95703-1.0391-1.7852-0.62109-0.78906-0.93359-0.85938-0.69531-1.0195-0.70312-1.0742 0.25391-1.7148 0.38281-1.0234 0.94141-0.84766 0.64453-0.82031 0.71094-0.84766 0.51172-1.2461 0.39453-1.4922-0.21484-1.3281 0.33203-1.1875 0.96094-1.8164 0.98828-0.40625 0.23047-1.0586-0.95703-0.36719-1.2461-1.543-0.34375-1.4883-0.054687-1.0234-0.55859-1.2578-0.33203-1.0938 0.36719-0.94531 2.0977-0.11328 1.2734-1.0352 0.72266-0.76562 1.6641-1.3359 0.96875-0.47656 0.74219-1.1484 0.29688-1.5312 0.31641-1.1523 1.0273-0.13281 1.1484 0.28516 0.99219-0.67578 1.2656-1.5898 0.91797-0.52734 0.90234-0.46094 1.1523-1.1797 2.5117-0.48047 1.1328 0.085937 1.6094-0.55078 1.1641-0.62109 0.80469-0.85156 0.91797 0.44922 2.668 1.4688 1.043 0.078125 1.1406-0.26953 2.3047-0.41016 1.7188-0.40234 0.99219-0.27734 1.1992-0.23828 1.1992 0.96875 2.5117-0.003906 1.8633-0.1875 2.5664-0.86719 1.1055-0.67969 2.1953-1.1562 1.4844-1.5039 0.51953-1.4219 0.79297-0.67188 2.543 0.24609 5.0898 1.9609 1.1133 0.16406 1.4883-0.86719 0.85938-0.83203 1.3125-0.20312 2.332 0.81641 2.0312 1.2695 1.1055 1.1523 1.7227 0.87109 1.3555-0.089844 1.6602-0.80469 1.1094-0.53906 1.5391-1.2852 1.5117-0.63672 1.418-0.49609 1.2891-0.41016 2.1133 1.375 3.4336 2.3594 0.82422 0.56641 1.3516 0.63281 1.207-0.58203 1.9883-1.4648 1.0195-0.64844 1.5508-0.66016 1.6328-0.44922 0.67578-2.0117 0.24609-0.98047 0.39062-0.99219 1.0078-0.59766 1.1211-0.24219 1.5195-0.011718 0.92969 0.61719 0.78906 1.4531 1.1133 0.23438 1.0195 0.22656 1.6172 1.7969 0.90625 1.0195 0.85156 0.625 0.98438 0.71875 0.96484 0.70703 1.1211 0.57031 1.7422 0.14062 0.95703 1.3359 1.1562 2.6445 1.0391 1.2305 1.0273 1.3867 0.60547 1.0273 1.8359 1.707 0.38281 1.043-0.0625 1.5273-0.55469 1.5664 0.015625 1.0117 0.97656 1.1953 0.98828 0.29297 0.89844 0.65625 1.0898 0.9375 1.2695 0.51172 0.77344 0.79688 0.20312 1.4492-0.10156 1.4023-0.078125 1.0781 0.10156 1.3867 0.089844 1.1523 0.097656 1.293 0.51953 1.7891 0.74609 1.3242 0.21484 1.0156-0.4375 1.957-0.33203 1.8242 0.47656 1.9258 0.83203 1.4609 0.91797 1.3164 1.1289-0.15234 1.5039-0.027344 1.0039 0.085937 1.0156-0.19531 0.99609-0.54688 0.60547-0.91016 0.84766-1.0234 0.53516-0.85938 0.70312-0.91797 1.3242-1.1367 1.293-0.54297 1.0586-0.32031 0.78516-0.625 1.207-0.54297 1.293-0.46094 0.70312-0.8125-0.13281-1.1641-0.64844-0.98828-0.37891-1.0586 0.20312-1.1641 0.45703-1.1875 1.25-0.57031 0.78516-0.68359 0.89062-0.57812 0.039063-1.168-0.75391-1.0312-0.33203-0.99609 0.63281-1.2148 0.65625-1.0664-0.37891-1.3398-0.15234-1.0312 0.41406-1.0156 0.95703-0.64844-0.042969-1.1094 0.49219-0.95703 0.26172-1.1172 0.83984-0.80859 1.043-0.85938 1.2461-0.85156 0.34766-1.1289 0.24219-1.1602 0.38672-1.207 0.32031-1.8906 0.5-0.91016 1.2656-0.007812 1.082-0.13281 1.1055-0.79297 0.75391-0.78125 1.0078-2.3555v-1.0547l0.91406-0.54297 1.2266 0.078125 1.1211-0.09375 1.832-0.71484 0.95703-0.35547 0.92969-0.46484 0.98047-0.35156 1.0234-0.39453 1.0078-0.55859 0.78125-0.83984 1.0781-0.96484 1.2773-0.36719 0.24219 0.011718" fill="none" stroke="#fff" stroke-linecap="round" stroke-linejoin="round" stroke-miterlimit="10" stroke-width="2"/>
<path d="m387.43 44.645 0.9375 0.26953 1.2539 0.56641 1.1953 0.64453 1.1953 0.5625 1.7266-0.14844 1.1875-0.17969 1.7422-0.74609 1.293-0.34375 2.3125-0.15625 0.84375 0.91406 1.1602 0.91016 1.2422-0.55859 2.5195 1.1562 1.0547 0.87109 1.4688-0.49219 0.71094 0.92578-0.22266 1.2617-0.007812 1.3555-0.41406 1.7734-0.40625 1.4805 0.019532 1.7578 0.70312 1.5977-0.42578 1.3242-0.78906 0.62891 0.17969 1.293-0.082031 1.8633-0.21484 1.0703 0.66406 0.75781 1.25 1.168 0.42969 0.94141-1.2539 1.2695 0.13672 1.1953 0.27734 1.0234 0.14844 1.332 0.23047 2.3281 0.46094 1.2461 1.2188 0.57812 0.28906 1.418-0.78125 1.6523-0.42578 1.6016-0.88672 0.72266-0.65625 0.84375-0.18359 1.0898-0.027344 1.3672-0.82031 1.3945-1.2695 2.293-1.793 1.5273-1.6094 1.5273-1.082 1.5273-1.0469 1.1094-0.56641 1.0352-0.77734 0.94531-1.9141 0.83984-2.3633 1.1133-0.65625 1.0156-0.375 1.0898-0.94922 0.51562-1.9609-0.88672-1.1484-1.125-0.85547-1.3438-0.55469-0.97266 0.49219-2.3828 0.17969-2.7031 0.51172-2.1055-1.0664-0.5625-1.8945 0.070312-1.5625 0.46094-1.3984 0.64062-1.5469 1.1562-3.3398 1.7305-1.3125 0.8125-0.75 0.84375-0.80859 1.0312-0.8125 0.74609-1.0312 0.29297-1.625 0.17578-1.4961 0.26562-1.2461 0.59375-1.4492 0.67578-1.5664 0.37109-1.9375 0.32812-1.3867 0.20312-7.4102 0.125-3.4844-1.1953-1.1562-0.027344-5.2031-1.0273-4.5234-0.55859-2.7617-0.33984-2.2227-0.54688-1.4414-0.87109-1.0312-1.3203-0.61328-1.6016v-2.2891l-1.0117-0.60156-2.5117 1.0078-1.0039 0.18359-1.2891 0.59766-1.0039 0.32812-0.71484 1.1406-0.007812 1.0195-0.082031 1.1133-0.73438 1.1172-0.89453 1.3633-1.293 0.86719-1.3438 0.87891-1.7188 0.34766-1.2148 0.46484-1-0.03125-0.63281-0.89453-0.066406-1.0352-1.0078-0.18359-1.2617-0.71094-1.3828-1.082-1.082-0.30078-0.56641-0.83203-0.21484-1.4336-0.32422-1.1445-0.0625-1.0781 0.49219-1.7461 0.33984-1.6523-0.63672-0.80469 0.10547-1.8203-1.4062-0.32812-1.1133-0.42578-0.22266-1.75 0.085938-1.2266-0.75-1.082-0.39844-1.2031-0.63672-0.8125-0.69531-1.5898 0.23047-1.0859-0.10156-1.3516-0.49609-1.1484 0.37109-0.94531 0.45703-1.4531 0.35938-1.1406 0.75391-0.77344 0.12891-1.4375 0.10547-1.1289-0.62891-1.2305-1.0625-1.3633-0.44531-0.93359-0.69141-1.168-0.66016-1.3047-0.82031-0.91797-0.38672-1.457-0.09375-1.4883 0.86719-1.7148 0.78906-1.0898 0.74609-1.4336-0.050781-1.1289-0.57812-1.0703 0.9375 0.5 0.64453 2.0117 0.79688 0.76172 0.73047 0.6875 0.92578 0.67188 1.3633 0.26172 1.1875-0.058594 1.7461-0.23047 0.89062-0.48438 1.793-0.69531 1.5078-0.57812 1.3789-0.23047 1.4102-0.011719 2.1758-0.27734 0.82812-0.71484 1.4883-0.57031 2.1328-0.5 0.99609-0.87891 1.1641-0.35156 1.0273 0.20703 1.4922 0.73047 0.91406 0.45312 1.4609 0.60938 1.0859 0.14844 1.0898 0.11328 2.0273 0.40625 1.8711 0.13672 1.1602-0.67969 1.2539-0.68359 1.2773 0.19141 1.8906-1.7266 1.1172-0.57031 2.0859 0.007813 0.94531 1.1133 0.89844 1.2461 0.71484 1.7148 0.94531 0.58203 0.96875 0.27734 0.76172-0.73438 0.98438-0.31641 1.9219-0.25781 2.0078 0.48047 1.082-0.007812 2.4219-0.85156 1.3516-0.79297 1.1094-0.25 1.0742 0.67578 0.99609 0.28125 1.8711 0.046875 1.8984-0.60547 1.0469-0.11719 1.0039-0.33203 1.6094 0.039063 1.5273-0.375 1.2383-0.58594 1.2305-1.1133 1.082-0.32812 0.96875-1.1406 1.1094-0.39453 1.8555-1.0039 1.2266-0.14453 1.0312-0.32812z" fill="#ccc" fill-rule="evenodd"/>
<path d="m387.43 44.645 0.9375 0.26953 1.2539 0.56641 1.1953 0.64453 1.1953 0.5625 1.7266-0.14844 1.1875-0.17969 1.7422-0.74609 1.293-0.34375 2.3125-0.15625 0.84375 0.91406 1.1602 0.91016 1.2422-0.55859 2.5195 1.1562 1.0547 0.87109 1.4688-0.49219 0.71094 0.92578-0.22266 1.2617-0.007812 1.3555-0.41406 1.7734-0.40625 1.4805 0.019532 1.7578 0.70312 1.5977-0.42578 1.3242-0.78906 0.62891 0.17969 1.293-0.082031 1.8633-0.21484 1.0703 0.66406 0.75781 1.25 1.168 0.42969 0.94141-1.2539 1.2695 0.13672 1.1953 0.27734 1.0234 0.14844 1.332 0.23047 2.3281 0.46094 1.2461 1.2188 0.57812 0.28906 1.418-0.78125 1.6523-0.42578 1.6016-0.88672 0.72266-0.65625 0.84375-0.18359 1.0898-0.027344 1.3672-0.82031 1.3945-1.2695 2.293-1.793 1.5273-1.6094 1.5273-1.082 1.5273-1.0469 1.1094-0.56641 1.0352-0.77734 0.94531-1.9141 0.83984-2.3633 1.1133-0.65625 1.0156-0.375 1.0898-0.94922 0.51562-1.9609-0.88672-1.1484-1.125-0.85547-1.3438-0.55469-0.97266 0.49219-2.3828 0.17969-2.7031 0.51172-2.1055-1.0664-0.5625-1.8945 0.070312-1.5625 0.46094-1.3984 0.64062-1.5469 1.1562-3.3398 1.7305-1.3125 0.8125-0.75 0.84375-0.80859 1.0312-0.8125 0.74609-1.0312 0.29297-1.625 0.17578-1.4961 0.26562-1.2461 0.59375-1.4492 0.67578-1.5664 0.37109-1.9375 0.32812-1.3867 0.20312-7.4102 0.125-3.4844-1.1953-1.1562-0.027344-5.2031-1.0273-4.5234-0.55859-2.7617-0.33984-2.2227-0.54688-1.4414-0.87109-1.0312-1.3203-0.61328-1.6016v-2.2891l-1.0117-0.60156-2.5117 1.0078-1.0039 0.18359-1.2891 0.59766-1.0039 0.32812-0.71484 1.1406-0.007812 1.0195-0.082031 1.1133-0.73438 1.1172-0.89453 1.3633-1.293 0.86719-1.3438 0.87891-1.7188 0.34766-1.2148 0.46484-1-0.03125-0.63281-0.89453-0.066406-1.0352-1.0078-0.18359-1.2617-0.71094-1.3828-1.082-1.082-0.30078-0.56641-0.83203-0.21484-1.4336-0.32422-1.1445-0.0625-1.0781 0.49219-1.7461 0.33984-1.6523-0.63672-0.80469 0.10547-1.8203-1.4062-0.32812-1.1133-0.42578-0.22266-1.75 0.085938-1.2266-0.75-1.082-0.39844-1.2031-0.63672-0.8125-0.69531-1.5898 0.23047-1.0859-0.10156-1.3516-0.49609-1.1484 0.37109-0.94531 0.45703-1.4531 0.35938-1.1406 0.75391-0.77344 0.12891-1.4375 0.10547-1.1289-0.62891-1.2305-1.0625-1.3633-0.44531-0.93359-0.69141-1.168-0.66016-1.3047-0.82031-0.91797-0.38672-1.457-0.09375-1.4883 0.86719-1.7148 0.78906-1.0898 0.74609-1.4336-0.050781-1.1289-0.57812-1.0703 0.9375 0.5 0.64453 2.0117 0.79688 0.76172 0.73047 0.6875 0.92578 0.67188 1.3633 0.26172 1.1875-0.058594 1.7461-0.23047 0.89062-0.48438 1.793-0.69531 1.5078-0.57812 1.3789-0.23047 1.4102-0.011719 2.1758-0.27734 0.82812-0.71484 1.4883-0.57031 2.1328-0.5 0.99609-0.87891 1.1641-0.35156 1.0273 0.20703 1.4922 0.73047 0.91406 0.45312 1.4609 0.60938 1.0859 0.14844 1.0898 0.11328 2.0273 0.40625 1.8711 0.13672 1.1602-0.67969 1.2539-0.68359 1.2773 0.19141 1.8906-1.7266 1.1172-0.57031 2.0859 0.007813 0.94531 1.1133 0.89844 1.2461 0.71484 1.7148 0.94531 0.58203 0.96875 0.27734 0.76172-0.73438 0.98438-0.31641 1.9219-0.25781 2.0078 0.48047 1.082-0.007812 2.4219-0.85156 1.3516-0.79297 1.1094-0.25 1.0742 0.67578 0.99609 0.28125 1.8711 0.046875 1.8984-0.60547 1.0469-0.11719 1.0039-0.33203 1.6094 0.039063 1.5273-0.375 1.2383-0.58594 1.2305-1.1133 1.082-0.32812 0.96875-1.1406 1.1094-0.39453 1.8555-1.0039 1.2266-0.14453 1.0312-0.32812 1.2969-0.0625" fill="none" stroke="#fff" stroke-linecap="round" stroke-linejoin="round" stroke-miterlimit="10" stroke-width="2"/>
<path d="m333.54 88.965 0.32812 0.41406v2.2891l0.61328 1.6016 1.0312 1.3203 1.4414 0.87109 2.2227 0.54688 2.7617 0.33984 4.0977 0.50391 5.6289 1.082 1.1562 0.027344 3.2227 1.1992 6.9531 0.074219-1.6992 1.7422-1.2383 1.1055-0.34766 1.3164-1.3047 1.0117-0.57812 1.1797-0.35547 1.9453-0.73047 1.1875-0.55078 1.2578-0.089843 1v1.2422l2.0039 2.543 1.4023 2.2734-1.2969 1.8828-0.8125 1.4375 0.26562 1.3867v2.5078l-0.96875 2.1875-0.67969 1.6719 0.32812 1.3555-0.76562 1.4453-0.44531 1.6875-1.2695 1.2773-0.79297 1.1523-0.89844 1.3047-1.4609 0.82422-1.5664 0.32812-1.0352 0.51562-1.8242 1.8359-2.8008 2.1641-0.77734 1.4102-0.36328 1.0039-1.4102 0.47656-1.3711 0.42188-1.1602 0.37891-1.0664 0.27344-4.4922 2.125-1.6523 0.78125-1.0938 0.76172-1.2344 0.26562-0.77734-3.6758-0.26562-1.3984-0.46484-0.9375-1.3789-1.1484-1.5352 0.16406-2.4023 0.25781-2.1875 0.64062-2.0156 1.0234-1.1992-0.058594-1.168-0.61328-0.91406-1.1055-0.64453-1.4297-2.1875-0.97656-0.52734-0.87891-2.3398-2.0352-0.019531-1.0156 4.3711-5.1133-0.41797-1.5859-1.4258-1.5-0.75-0.84375-0.75781-1.4609-1.4023-1.2617-0.52344-0.85547-0.36719-0.98828-0.42578-1.1406-0.55078-1.4883-3.582-0.81641-0.92578-0.65625-0.65234-1.0898-0.85156-1.2188-1.082-0.75391-1.9648-1.375 4.043-3.5234 1.1914-0.9375 1.1055-0.61719 1.332-0.74609 1.3672-0.91016 1.5312-1.375 0.92578-1.293 1.2695-1.5742 1.457-1.6172 0.91797-0.61719 2.1914-1.7734 1.0977-0.3125 2.0938-0.082031 2.207-0.44531 1.7188-0.34766 1.3438-0.87891 1.293-0.86719 0.58594-1.0508 1.043-1.4297 0.082031-1.1133 0.007812-1.0195 0.71484-1.1406 0.95703-0.3125 1.3359-0.61328 1.0039-0.18359 1.7305-0.90234z" fill="#ccc" fill-rule="evenodd"/>
<path d="m333.54 88.965 0.32812 0.41406v2.2891l0.61328 1.6016 1.0312 1.3203 1.4414 0.87109 2.2227 0.54688 2.7617 0.33984 4.0977 0.50391 5.6289 1.082 1.1562 0.027344 3.2227 1.1992 6.9531 0.074219-1.6992 1.7422-1.2383 1.1055-0.34766 1.3164-1.3047 1.0117-0.57812 1.1797-0.35547 1.9453-0.73047 1.1875-0.55078 1.2578-0.089843 1v1.2422l2.0039 2.543 1.4023 2.2734-1.2969 1.8828-0.8125 1.4375 0.26562 1.3867v2.5078l-0.96875 2.1875-0.67969 1.6719 0.32812 1.3555-0.76562 1.4453-0.44531 1.6875-1.2695 1.2773-0.79297 1.1523-0.89844 1.3047-1.4609 0.82422-1.5664 0.32812-1.0352 0.51562-1.8242 1.8359-2.8008 2.1641-0.77734 1.4102-0.36328 1.0039-1.4102 0.47656-1.3711 0.42188-1.1602 0.37891-1.0664 0.27344-4.4922 2.125-1.6523 0.78125-1.0938 0.76172-1.2344 0.26562-0.77734-3.6758-0.26562-1.3984-0.46484-0.9375-1.3789-1.1484-1.5352 0.16406-2.4023 0.25781-2.1875 0.64062-2.0156 1.0234-1.1992-0.058594-1.168-0.61328-0.91406-1.1055-0.64453-1.4297-2.1875-0.97656-0.52734-0.87891-2.3398-2.0352-0.019531-1.0156 4.3711-5.1133-0.41797-1.5859-1.4258-1.5-0.75-0.84375-0.75781-1.4609-1.4023-1.2617-0.52344-0.85547-0.36719-0.98828-0.42578-1.1406-0.55078-1.4883-3.582-0.81641-0.92578-0.65625-0.65234-1.0898-0.85156-1.2188-1.082-0.75391-1.9648-1.375 4.043-3.5234 1.1914-0.9375 1.1055-0.61719 1.332-0.74609 1.3672-0.91016 1.5312-1.375 0.92578-1.293 1.2695-1.5742 1.457-1.6172 0.91797-0.61719 2.1914-1.7734 1.0977-0.3125 2.0938-0.082031 2.207-0.44531 1.7188-0.34766 1.3438-0.87891 1.293-0.86719 0.58594-1.0508 1.043-1.4297 0.082031-1.1133 0.007812-1.0195 0.71484-1.1406 0.95703-0.3125 1.3359-0.61328 1.0039-0.18359 1.7305-0.90234 1.4648 0.082031" fill="none" stroke="#fff" stroke-linecap="round" stroke-linejoin="round" stroke-miterlimit="10" stroke-width="2"/>
<path d="m272.11 28.895 0.38281 0.61719-0.43359 0.92578-0.6875 0.74219 0.50391 1.3047 1.3047 0.53125 1.8711 0.54297 0.69531 0.83984 1.1797 0.95312 1.2734 1.5234 0.625 1.1328 1.0156 0.41406 1.1484-0.44531 1.1797-0.13281 1.293 0.25781 1.1797-0.98047 1.082-0.39844 1.6758 0.91797 1.2852 0.38672 1.7852 1.4844 0.79297 0.87891 0.98438 0.30078 0.91016 1.2422 1.2734 0.46484 1.2148 0.60938 0.98438 0.47266 1.1875 0.050781 0.68359 0.89453 0.71875 0.92188 0.046875 1.1836 1.7383 0.92578 0.91406 0.78516 1.5586 0.097656 1.0039 0.66406 1.1484 0.61719 0.42578 1.1953-0.77734 2.0898-0.78906 1.0898-0.78125 1.3242 0.007812 1.8789 0.3125 0.96875 0.41406 1 0.67578 0.93359 0.72266 1.5 0.87891 1.3789 1.0625 1.3633 0.58984 1.1211-0.066406 1.2383 0.015625 1.2305-0.89844 0.98047-0.35938 1.1406-0.45703 1.4531-0.37109 0.94531 0.49609 1.1484 0.10156 1.3516-0.23047 1.0859 0.47266 0.91406 0.85938 1.4883 0.39844 1.2031 0.60547 0.82422 0.058594 1.4844 0.19531 1.1875 1.1406 0.98828 1.0781-0.023437 0.41797 1.4141-0.078125 1.125 0.69141 1.332-1.0039 2.5039 0.0625 1.0781 0.32422 1.1445 0.21484 1.4336 0.56641 0.83203 1.082 0.30078 1.1328 0.9375 1.207 0.29688 0.98047 0.52344 0.38672 1.1289 0.60547 0.98047-1.1523 0.019531-1.9922 0.42578-2.1914 1.7734-0.91797 0.61719-1.457 1.6172-0.69141 0.76562-0.98828 1.3828-1.5742 1.6719-1.8398 1.332-1.332 0.74609-1.1055 0.61719-1.1914 0.9375-3.9727 2.5703-1 0.86328-1.1055 1.7539-1.0547 0.65234-1.6406 0.66406-1.0195 0.47266-2.125 2.3008-1.2383 1.5938-1.0469 0.87109-1.3789 1.0117-1.1094 0.80859-0.44141 0.94141-0.44531 0.93359-1.9023 0.70703-1.5312 0.69141-2.7773 1.543-2.7539 2.7188-0.89844 1.3867-4.668 0.019531-2.2852-0.32031-3.2891 0.023437-1.3633-0.082031-2.7461-0.0625-1.1172 0.11328-1.5234-0.03125-1.6562-0.57031-1.168-0.54297-1.4102-0.65234-0.35547-1.8867 0.26562-1.5352 0.57031-2.0312-0.082032-1.1641-0.37891-1.6836-0.41797-1.2812-0.91797-2.1445-0.87109-1.1562-1.9414-1.1094-1-0.5-0.78125-0.76172-1.8906-1.5273-1.3789-1.1172 0.23828-1.5039 0.54297-1.9648 0.16016-1.0625 0.042968-1.4844-0.28125-1.043 0.28125-1.7031 1.0234-1.6914 1.3047-1.957 0.35547-1.0508 0.37891-1.8867 0.0625-1.0703-1.2227-1.4609-1.3828-0.71484-2.8398-1.0977-0.96875-0.69531-0.67969-0.92188-0.44141-1.3633-2.7656-1.0391-1.4023-0.32422-1.0625-1.082-1.2109-0.66797-1.0742-0.11328-1.8164-0.1875-1.1719-0.29688-2.0703-0.52344-0.60938-1.3867-0.94531-1.3516-0.95703-0.50391-1.1953-0.63281-1.0977-0.6875-0.22656-2.457-0.18359-2.0039 0.18359-1.8281 1.4922-0.75 0.98828-0.69531 1.3711-0.35938 1.4648-0.74609 1.3789-0.61328 2.3984-0.71875 1.5312-0.16406 1.1562 0.57031 1.9023 1.2031 0.85156 0.83984 1.2969 0.47656 1.6406 1.3008 0.1875 1.3711 2.1758 2.5195 0.78125 0.71484 1.1328 1.0391 2.2852 0.93359 1.1758-0.93359 0.47266-0.90234 1.1875-1.6289 0.62891-1.0898 0.98047-1.1523 0.91797-1.4219 0.96484-1.4961 1.1289-1 1.2578-0.80859 0.34375-1.1055 0.32031-2.0234 0.24219-1.5508 0.027344-1.8945 0.019531-1.6445 0.22266-1.1602 0.29688-1.5312-0.46094-1.9102-0.49219-1.1055 0.50781-1.7539 1.0352-1.6875 1.1758-1.6641 0.69141-0.91016 0.48828-1.9141 0.44922-1.3477-0.28125-1.3711-0.46875-3.0586 0.49219-1.2734 0.76562-0.73828 0.85156-0.63672 0.40234-1.1211 0.41797-1.7656 0.89062-1.4102 1.1094-1.7344 0.875-1.3789 0.93359-1.3516 1.3906-1.3477 1.7383-0.48828 0.65625-1.3125 0.89844-0.80078 0.92578-0.82031z" fill="#ccc" fill-rule="evenodd"/>
<path d="m272.11 28.895 0.38281 0.61719-0.43359 0.92578-0.6875 0.74219 0.50391 1.3047 1.3047 0.53125 1.8711 0.54297 0.69531 0.83984 1.1797 0.95312 1.2734 1.5234 0.625 1.1328 1.0156 0.41406 1.1484-0.44531 1.1797-0.13281 1.293 0.25781 1.1797-0.98047 1.082-0.39844 1.6758 0.91797 1.2852 0.38672 1.7852 1.4844 0.79297 0.87891 0.98438 0.30078 0.91016 1.2422 1.2734 0.46484 1.2148 0.60938 0.98438 0.47266 1.1875 0.050781 0.68359 0.89453 0.71875 0.92188 0.046875 1.1836 1.7383 0.92578 0.91406 0.78516 1.5586 0.097656 1.0039 0.66406 1.1484 0.61719 0.42578 1.1953-0.77734 2.0898-0.78906 1.0898-0.78125 1.3242 0.007812 1.8789 0.3125 0.96875 0.41406 1 0.67578 0.93359 0.72266 1.5 0.87891 1.3789 1.0625 1.3633 0.58984 1.1211-0.066406 1.2383 0.015625 1.2305-0.89844 0.98047-0.35938 1.1406-0.45703 1.4531-0.37109 0.94531 0.49609 1.1484 0.10156 1.3516-0.23047 1.0859 0.47266 0.91406 0.85938 1.4883 0.39844 1.2031 0.60547 0.82422 0.058594 1.4844 0.19531 1.1875 1.1406 0.98828 1.0781-0.023437 0.41797 1.4141-0.078125 1.125 0.69141 1.332-1.0039 2.5039 0.0625 1.0781 0.32422 1.1445 0.21484 1.4336 0.56641 0.83203 1.082 0.30078 1.1328 0.9375 1.207 0.29688 0.98047 0.52344 0.38672 1.1289 0.60547 0.98047-1.1523 0.019531-1.9922 0.42578-2.1914 1.7734-0.91797 0.61719-1.457 1.6172-0.69141 0.76562-0.98828 1.3828-1.5742 1.6719-1.8398 1.332-1.332 0.74609-1.1055 0.61719-1.1914 0.9375-3.9727 2.5703-1 0.86328-1.1055 1.7539-1.0547 0.65234-1.6406 0.66406-1.0195 0.47266-2.125 2.3008-1.2383 1.5938-1.0469 0.87109-1.3789 1.0117-1.1094 0.80859-0.44141 0.94141-0.44531 0.93359-1.9023 0.70703-1.5312 0.69141-2.7773 1.543-2.7539 2.7188-0.89844 1.3867-4.668 0.019531-2.2852-0.32031-3.2891 0.023437-1.3633-0.082031-2.7461-0.0625-1.1172 0.11328-1.5234-0.03125-1.6562-0.57031-1.168-0.54297-1.4102-0.65234-0.35547-1.8867 0.26562-1.5352 0.57031-2.0312-0.082032-1.1641-0.37891-1.6836-0.41797-1.2812-0.91797-2.1445-0.87109-1.1562-1.9414-1.1094-1-0.5-0.78125-0.76172-1.8906-1.5273-1.3789-1.1172 0.23828-1.5039 0.54297-1.9648 0.16016-1.0625 0.042968-1.4844-0.28125-1.043 0.28125-1.7031 1.0234-1.6914 1.3047-1.957 0.35547-1.0508 0.37891-1.8867 0.0625-1.0703-1.2227-1.4609-1.3828-0.71484-2.8398-1.0977-0.96875-0.69531-0.67969-0.92188-0.44141-1.3633-2.7656-1.0391-1.4023-0.32422-1.0625-1.082-1.2109-0.66797-1.0742-0.11328-1.8164-0.1875-1.1719-0.29688-2.0703-0.52344-0.60938-1.3867-0.94531-1.3516-0.95703-0.50391-1.1953-0.63281-1.0977-0.6875-0.22656-2.457-0.18359-2.0039 0.18359-1.8281 1.4922-0.75 0.98828-0.69531 1.3711-0.35938 1.4648-0.74609 1.3789-0.61328 2.3984-0.71875 1.5312-0.16406 1.1562 0.57031 1.9023 1.2031 0.85156 0.83984 1.2969 0.47656 1.6406 1.3008 0.1875 1.3711 2.1758 2.5195 0.78125 0.71484 1.1328 1.0391 2.2852 0.93359 1.1758-0.93359 0.47266-0.90234 1.1875-1.6289 0.62891-1.0898 0.98047-1.1523 0.91797-1.4219 0.96484-1.4961 1.1289-1 1.2578-0.80859 0.34375-1.1055 0.32031-2.0234 0.24219-1.5508 0.027344-1.8945 0.019531-1.6445 0.22266-1.1602 0.29688-1.5312-0.46094-1.9102-0.49219-1.1055 0.50781-1.7539 1.0352-1.6875 1.1758-1.6641 0.69141-0.91016 0.48828-1.9141 0.44922-1.3477-0.28125-1.3711-0.46875-3.0586 0.49219-1.2734 0.76562-0.73828 0.85156-0.63672 0.40234-1.1211 0.41797-1.7656 0.89062-1.4102 1.1094-1.7344 0.875-1.3789 0.93359-1.3516 1.3906-1.3477 1.7383-0.48828 0.65625-1.3125 0.89844-0.80078 0.92578-0.82031 0.20703 0.45312" fill="none" stroke="#fff" stroke-linecap="round" stroke-linejoin="round" stroke-miterlimit="10" stroke-width="2"/>
<path d="m297.53 114.57 1.3594 0.94922 1.6875 1.1797 0.59766 0.85547 0.90625 1.4531 0.92578 0.65625 2.6758 0.60938 1.457 1.6953 0.42578 1.1406 0.36719 0.98828 0.52344 0.85547 1.4023 1.2617 0.75781 1.4609 0.75 0.84375 1.2617 1.168 0.53516 1.0859-4.3242 5.9453 0.019531 1.0156 1.9531 1.3906 0.91406 1.5234 1.5039 0.69531 1.3281 1.7109 0.91406 1.1055 1.168 0.61328 1.1992 0.058594 2.0156-1.0234 1.2773-0.54297 3.3125-0.35547 1.5352-0.16406 1.3789 1.1484 0.46484 0.9375 0.26562 1.3984 0.77734 3.6758-0.16406 1.1719-0.14062 1.9922 0.21875 1.2031 0.91797 1.5117 0.44531 1.5547 1.082 1.7031-0.17578 1.3438-0.69922 1.1211-1.1562 1.0625-0.45703 0.99219-0.71484 1.5625-1.9102-1.3789-0.85547-1.3203-0.72266-1.1211-0.59375-1.3828-0.25-1.7188-2.0078-1.4805-0.98828-0.72656-1.2344-0.92188-1.6172-0.88281-1.1289-0.14844-0.78125 2.1797-1.1406 0.39062-1.0625 0.25-1.375 0.65234-1.9805 0.625-1.3477 0.38281-3.8516 1.1328-1.3906 0.66797-2.6055 0.70312h-3.0977l-1.3281 0.14062-1.1094 0.5-1.4102-0.62109-1.0625-0.45703-1.3594-0.99609-0.60938-0.82422-0.78125-0.98828-1.75 0.25-1.2227 1.0352-0.85547 0.54297-1.207 0.55859-1.9844 0.41406-0.92578 0.69531-0.82812 0.64453-1.0781 0.085937-1.0469-0.71875-1.7695-0.34375-1.1133-0.15234-1.4609 0.03125-1.1758-0.32812-2.6562-2.9492-1.1875-1.1445-1.6758-1.1719-0.90625-0.52734-1.293-0.58984-0.60938-1.7344 0.0625-1.1992 0.1875-1.2734 0.66406-1.0977 0.98828-0.47656 1.043-0.71094 1.0039-0.68359 0.51953-1.4414 0.28125-1.1641 0.58203-1.2031 1.1406-1.0625 0.58203-1.9023 0.082031-1.6641-0.78516-1.4219 0.12109-1.1445 0.26172-1.0195 1.7227-1.3828 0.89844-1.3867 2.6875-2.6602 2.8438-1.6016 1.5312-0.69141 1.2812-0.35547 1.0664-1.2852 0.44141-0.94141 1.1094-0.80859 1.3789-1.0117 0.85156-0.625 1.4336-1.8398 1.5156-1.7969 1.6289-0.97656 1.6406-0.66406 1.0547-0.65234 1.1055-1.7539z" fill="#ccc" fill-rule="evenodd"/>
<path d="m297.53 114.57 1.3594 0.94922 1.6875 1.1797 0.59766 0.85547 0.90625 1.4531 0.92578 0.65625 2.6758 0.60938 1.457 1.6953 0.42578 1.1406 0.36719 0.98828 0.52344 0.85547 1.4023 1.2617 0.75781 1.4609 0.75 0.84375 1.2617 1.168 0.53516 1.0859-4.3242 5.9453 0.019531 1.0156 1.9531 1.3906 0.91406 1.5234 1.5039 0.69531 1.3281 1.7109 0.91406 1.1055 1.168 0.61328 1.1992 0.058594 2.0156-1.0234 1.2773-0.54297 3.3125-0.35547 1.5352-0.16406 1.3789 1.1484 0.46484 0.9375 0.26562 1.3984 0.77734 3.6758-0.16406 1.1719-0.14062 1.9922 0.21875 1.2031 0.91797 1.5117 0.44531 1.5547 1.082 1.7031-0.17578 1.3438-0.69922 1.1211-1.1562 1.0625-0.45703 0.99219-0.71484 1.5625-1.9102-1.3789-0.85547-1.3203-0.72266-1.1211-0.59375-1.3828-0.25-1.7188-2.0078-1.4805-0.98828-0.72656-1.2344-0.92188-1.6172-0.88281-1.1289-0.14844-0.78125 2.1797-1.1406 0.39062-1.0625 0.25-1.375 0.65234-1.9805 0.625-1.3477 0.38281-3.8516 1.1328-1.3906 0.66797-2.6055 0.70312h-3.0977l-1.3281 0.14062-1.1094 0.5-1.4102-0.62109-1.0625-0.45703-1.3594-0.99609-0.60938-0.82422-0.78125-0.98828-1.75 0.25-1.2227 1.0352-0.85547 0.54297-1.207 0.55859-1.9844 0.41406-0.92578 0.69531-0.82812 0.64453-1.0781 0.085937-1.0469-0.71875-1.7695-0.34375-1.1133-0.15234-1.4609 0.03125-1.1758-0.32812-2.6562-2.9492-1.1875-1.1445-1.6758-1.1719-0.90625-0.52734-1.293-0.58984-0.60938-1.7344 0.0625-1.1992 0.1875-1.2734 0.66406-1.0977 0.98828-0.47656 1.043-0.71094 1.0039-0.68359 0.51953-1.4414 0.28125-1.1641 0.58203-1.2031 1.1406-1.0625 0.58203-1.9023 0.082031-1.6641-0.78516-1.4219 0.12109-1.1445 0.26172-1.0195 1.7227-1.3828 0.89844-1.3867 2.6875-2.6602 2.8438-1.6016 1.5312-0.69141 1.2812-0.35547 1.0664-1.2852 0.44141-0.94141 1.1094-0.80859 1.3789-1.0117 0.85156-0.625 1.4336-1.8398 1.5156-1.7969 1.6289-0.97656 1.6406-0.66406 1.0547-0.65234 1.1055-1.7539 0.92969 0.089843" fill="none" stroke="#fff" stroke-linecap="round" stroke-linejoin="round" stroke-miterlimit="10" stroke-width="2"/>
<path d="m264.77 154.11 0.57812 0.13281 2.2266 0.45703 0.90625 0.52734 0.95703 0.67188 1.9062 1.6445 2.6562 2.9492 1.1758 0.32812 1.4609-0.03125 1.1133 0.15234 1.3711 0.18359 0.94141 0.46484 0.96484 0.64453 1.25-0.82812 1.1211-0.82812 1.3672-0.12891 0.95312-0.44141 1.7266-0.94531 1.2227-1.0352 1.75-0.25 0.78125 0.98828 0.60938 0.82422 1.3594 0.99609 1.0625 0.45703 1.4102 0.62109 0.94531-0.37891 1.4922-0.26172h3.0977l2.6055-0.70312 1.3906-0.66797 3.8516-1.1328 1.3477-0.38281 1.2227-0.38281 2.1328-0.89453 1.0625-0.25 1.1406-0.39062 0.41016-1.6797 1.5-0.35156 0.92578 0.53516 1.4375 0.91406 1.4766 1.082 1.5 0.73047 0.75781 2.4688 0.59375 1.3828 0.72266 1.1211 0.85547 1.3203 1.6523 1.543 0.66406-0.92969 0.76562-1.7891 1.1562-1.0625 0.69922-1.1211 1.3594 0.53906 0.45703 1.2812 0.30469 1.2148 0.89453 1.8984 0.089844 1.4492-0.14844 1.125 0.066407 1.4336 0.17578 1.6523 0.43359 1.2734 0.59375 0.82422-0.17578 1.0742-0.13672 1.0625-0.027344 1.3867-0.23438 1.75 0.60938 1.1875-0.25391 1.1172-0.27734 1.1406-0.14062 1.5078 0.71875 1.5352 0.23438-1.7031 0.91406-0.48828 0.92578-0.55078 1.2461-0.89062 1.6289-1.1641 2.168-1.0547 1.8555-0.51953 1.6875-0.18359 1.8477 0.19141 1.5664 0.46875 2.4688 0.32812 1.1719 0.16016 1.7031 0.375 1.3477 0.30078 1.6953 0.28516 1.1094 0.1875 1.3711 0.125 2.418 0.007813 1.0234 0.011718 2.9336 0.81641-0.69531 0.94141-0.75 0.67578-1.1367 0.375-1.4883 0.10156-1.9609-0.23828-1.4727 0.57422-1.0859 0.76172-1.1211 0.48438-0.90234 1.0781-1.0742 0.57812-1.0625 0.65625-0.96875 0.41797-0.83984 1.1328-1.3906 0.69531-0.80469 0.66797-1.0195-0.050781-1.293 0.21484-1.0781 0.3125-0.8125 1.3516 0.20703 1.0898-0.14453 1.2773-0.92188 1.2148-0.89844 0.94922-1.3008 0.4375-0.4375 1.2031 0.39062 1.2188-0.45703 1.4531-1.8828 1.3438-1.2695 0.42578-1.4297 0.58203-1.4375 0.69141-1.1133 1.0117-1.4453 1.3164-0.80859 0.85156-0.90234 0.77344-1.4414 1.2383-1.2891 1.1016-2.1445 0.50391-1.5664 0.70312-1.3828 0.625-1.5508 1.0859-0.6875 1.4922-0.55859 1.625-1.3789 1.3125-0.84375 0.57812-0.82422 0.69141-0.67969 1.0234-0.48047 0.95703 0.36719 1.2422 0.91406 0.62109 1.5586 1.6484 1.9766 0.69141 2.8281 0.24219 0.98438 0.44141 1.2109 0.53906 2.1797 1.1641 1.4609 1.2969 1.2969 0.71875 1.0938 0.61328 1.2422 1.5117 0.44531 1.4258 0.61328 0.97266 0.51172 1.1055-0.61719 1.4414 0.042968 1.7617 0.62109 1.7695 0.88281 1.293 0.58203 0.97266 1.0977 0.76953 1.3555 2.1641 0.28516 1.1562-1.0508 0.58594-1.6875 0.74219-1.1328 0.59375-1.2734 1.0859-0.93359 0.79297-0.41797 1.9219-1.5547 0.61719-1.1211 0.023437-1.6992-0.16016-1.6055-0.22656-1.6328-0.027344-1.1328 0.074219-1.4531 0.89453-1.1016 0.38672-1.0977 0.17969-1.3047 0.89453-1.0078 0.30078-1.0156-0.94531-1.0938-0.21875-1.4922 0.64453-1.1602 0.33203-1.0156 0.55469-1.2656 0.63672-1.1562 0.36719-1.082 0.94141-0.73438 0.71484-0.94922 0.36719-1.5195 1.0664-0.64453 0.875-0.95312 0.43359-1.2344 1.4375-1.1016 0.98828-1.1016 0.58984-0.83594 0.99219-0.91016 0.55078-0.078125 1.543-0.17969 1.0938-0.36328 1.332-0.29297 1.3086-0.71875 1.0859-0.91406 1.0273-0.875 1.0781-0.72656 0.90625-1.5039 0.46484-0.99219 0.77734-1.0898 1.2422-1.0547 0.53125-0.54297 0.98828-1.6719 1.6172-0.91406 0.625-0.42578 1.3594-0.67188 1.6289-0.85156 0.61328-0.81641 0.96094-0.10156 1.7852 0.10547 2.1445-0.38281 1.2383 0.042969 1.6211-0.27344 1.2969-1.0898 1.1211-1.375 0.68359-1.6523 0.60156-1.3008 0.375 0.12109 1.4844 0.64844 0.92969 0.082031 1.1953-0.11328 1.4102 0.09375 1.0039 0.53516 0.92969v1.4062l-0.21484 1.0664-0.72656 1.6797-0.42969 2.1797 0.10156 1.5586 0.82422 1.1445 0.49219 2.8945-0.48047 0.96094-0.49219 0.96484-0.78516 2.0898-0.625 1.2461-1.1016 1.168-0.87891 1.0586-0.73438 0.77344-0.88672 1.2578-0.48438 1.4102 0.12891 1.0312-0.33984 1.2344-0.65625 1.4414-0.83203 0.99219-1.2031 0.70312-0.93359 0.6875-0.57031 0.84766-0.82031 1.4492-0.97656 1.1562-1.2969 0.21484-1.0039-0.085937-1.6953 0.49219-1.0312 0.26562-1.0234 0.10156-1.1992 0.24609-1.3398-0.03125-1.4961 0.17188-1.6016 0.050781-1.1875-0.18359-1.1133-0.17188-1.8945-0.28906-1.0312-0.050782-2.0117 0.75391-1.1797 0.1875-1.1016-0.46875-1.0352-0.90234-1.25-1.6289-0.59766-1.0508-0.625-1.1016-1.0195-0.84375-1.2578-1.1016-0.83203-1.4297-0.78516-1.0078-0.89844-0.77344-0.42969-0.94141-0.375-0.94531-0.12891-1.2461-1.0742-0.72656-0.88672-0.84375-1.2695-0.87109-0.92578-0.83203-0.31641-1.1406-1.0898-0.76172-1.1172-1.0391-0.33594-1.2656-1.4805-0.375-1.582-0.60156-1.1641-0.91406-0.90625-0.47656-0.37109-0.95703-1.0547-1.25-0.63281-1.3398 0.18359-1.5508 0.26172-1.1641-1.0859-0.875-1.0586-0.67969-0.72656-1.2031-0.60156-2.75-0.10547-1.543-0.11328-1.0547-1.5703-0.24609-1.207-0.76562-0.92188-0.83984-0.74609-0.96484 0.16406-1.7891 0.023437-1.5234-0.30469-1.5234-0.85156-1.25-0.62891-1.2734 0.60156-1.9883 1.2344-1.6133 0.57812-1.2344 0.32031-1.0508v-1.1602l0.43359-2.5234 0.082031-1.3633 0.14844-1.1406 0.13281-0.99219-0.097656-1.0039-0.16797-2.1328-0.035156-1.2109-0.92578-0.45703-0.98438-0.35547-1.2031-0.50391-1.0586-0.71094-0.98047-1.2617-0.77344-0.98047-1.7344-1.4727-1.2344-0.75391-1.1758-0.75-0.83203-0.62109-1.375-0.59766-1.1172-0.89453-0.57812-1.1055-0.40234-1.082-0.33594-1.2656-0.066406-1.6953 0.36328-1.3008 0.4375-1.4258 0.37109-1.3672 0.59375-0.98828 1.0898-0.85938-0.027344-1.7266-1.0742-0.55469-1.4062-1.1133-0.62891-1.0117-1.3242-0.60547-0.97656-0.71875-0.29297-1.0977 0.078125-1.2734 0.14844-2.4844-0.20312-1.3008-1.4883-1.207-1.0078-1.3008-0.55469-0.96094-0.8125-1.0391 0.09375-2.0352 0.16016-1.8359-0.046875-1.2461 0.24609-2.0625 0.35938-2.2891-0.042969-1.0781 0.17969-1.6211 0.3125-1.1367 0.5-1.1758-0.10938-1.6172 0.88672-2.4141 0.5625-1.1758 0.84766-1.0117 0.48828-1.0508 1.4062-1.4883 1.2031-0.50781 0.69922-0.84375 0.15625-2.043 0.25-1.2148 0.26172-1.2891 0.082031-2.0391-0.30469-1.2695 1.1719-2.0195 1.0195-0.26953 1.0469-0.85156 0.55469-1.6289 0.86328-0.76953 0.54688-0.91016 1.5117-1.7969 0.85547-2.0703 0.37109-2.7227 0.78516-0.83984 2.8398 0.625 1.332 0.21484 1.168 0.003906 1.0938-0.12109 1.9648-0.92188 1.1094-0.1875 1.6523-0.29688 1.5703-3.1719 1.0312-1.207 0.66016-1.3438 0.8125-0.72656 1.5469-0.91016 1.5977-1.4609 2.043-0.80078 2.1797-1.6797 0.15234-2.1367 1.957-2.5 2.7344 0.32031 1.9102-1.4453 1.543-1.2305 1.043-0.94531 0.91016-1.7852 2.6406-4.1719 0.82812-1.8164 0.49219-0.94922 1.2305-1.3359 1.1953-0.56641 1.1992-0.14062 1.0195-0.5625 1.0547-0.73828 1.4453 0.42188 1.1602 0.35156 1.0039-0.375 0.91406-0.71875 1.0352-0.99219 1.1523-0.55859 0.99609-0.67578 1.1133 0.19922 0.23828-1.1523z" fill="#ccc" fill-rule="evenodd"/>
<path d="m264.77 154.11 0.57812 0.13281 2.2266 0.45703 0.90625 0.52734 0.95703 0.67188 1.9062 1.6445 2.6562 2.9492 1.1758 0.32812 1.4609-0.03125 1.1133 0.15234 1.3711 0.18359 0.94141 0.46484 0.96484 0.64453 1.25-0.82812 1.1211-0.82812 1.3672-0.12891 0.95312-0.44141 1.7266-0.94531 1.2227-1.0352 1.75-0.25 0.78125 0.98828 0.60938 0.82422 1.3594 0.99609 1.0625 0.45703 1.4102 0.62109 0.94531-0.37891 1.4922-0.26172h3.0977l2.6055-0.70312 1.3906-0.66797 3.8516-1.1328 1.3477-0.38281 1.2227-0.38281 2.1328-0.89453 1.0625-0.25 1.1406-0.39062 0.41016-1.6797 1.5-0.35156 0.92578 0.53516 1.4375 0.91406 1.4766 1.082 1.5 0.73047 0.75781 2.4688 0.59375 1.3828 0.72266 1.1211 0.85547 1.3203 1.6523 1.543 0.66406-0.92969 0.76562-1.7891 1.1562-1.0625 0.69922-1.1211 1.3594 0.53906 0.45703 1.2812 0.30469 1.2148 0.89453 1.8984 0.089844 1.4492-0.14844 1.125 0.066407 1.4336 0.17578 1.6523 0.43359 1.2734 0.59375 0.82422-0.17578 1.0742-0.13672 1.0625-0.027344 1.3867-0.23438 1.75 0.60938 1.1875-0.25391 1.1172-0.27734 1.1406-0.14062 1.5078 0.71875 1.5352 0.23438-1.7031 0.91406-0.48828 0.92578-0.55078 1.2461-0.89062 1.6289-1.1641 2.168-1.0547 1.8555-0.51953 1.6875-0.18359 1.8477 0.19141 1.5664 0.46875 2.4688 0.32812 1.1719 0.16016 1.7031 0.375 1.3477 0.30078 1.6953 0.28516 1.1094 0.1875 1.3711 0.125 2.418 0.007813 1.0234 0.011718 2.9336 0.81641-0.69531 0.94141-0.75 0.67578-1.1367 0.375-1.4883 0.10156-1.9609-0.23828-1.4727 0.57422-1.0859 0.76172-1.1211 0.48438-0.90234 1.0781-1.0742 0.57812-1.0625 0.65625-0.96875 0.41797-0.83984 1.1328-1.3906 0.69531-0.80469 0.66797-1.0195-0.050781-1.293 0.21484-1.0781 0.3125-0.8125 1.3516 0.20703 1.0898-0.14453 1.2773-0.92188 1.2148-0.89844 0.94922-1.3008 0.4375-0.4375 1.2031 0.39062 1.2188-0.45703 1.4531-1.8828 1.3438-1.2695 0.42578-1.4297 0.58203-1.4375 0.69141-1.1133 1.0117-1.4453 1.3164-0.80859 0.85156-0.90234 0.77344-1.4414 1.2383-1.2891 1.1016-2.1445 0.50391-1.5664 0.70312-1.3828 0.625-1.5508 1.0859-0.6875 1.4922-0.55859 1.625-1.3789 1.3125-0.84375 0.57812-0.82422 0.69141-0.67969 1.0234-0.48047 0.95703 0.36719 1.2422 0.91406 0.62109 1.5586 1.6484 1.9766 0.69141 2.8281 0.24219 0.98438 0.44141 1.2109 0.53906 2.1797 1.1641 1.4609 1.2969 1.2969 0.71875 1.0938 0.61328 1.2422 1.5117 0.44531 1.4258 0.61328 0.97266 0.51172 1.1055-0.61719 1.4414 0.042968 1.7617 0.62109 1.7695 0.88281 1.293 0.58203 0.97266 1.0977 0.76953 1.3555 2.1641 0.28516 1.1562-1.0508 0.58594-1.6875 0.74219-1.1328 0.59375-1.2734 1.0859-0.93359 0.79297-0.41797 1.9219-1.5547 0.61719-1.1211 0.023437-1.6992-0.16016-1.6055-0.22656-1.6328-0.027344-1.1328 0.074219-1.4531 0.89453-1.1016 0.38672-1.0977 0.17969-1.3047 0.89453-1.0078 0.30078-1.0156-0.94531-1.0938-0.21875-1.4922 0.64453-1.1602 0.33203-1.0156 0.55469-1.2656 0.63672-1.1562 0.36719-1.082 0.94141-0.73438 0.71484-0.94922 0.36719-1.5195 1.0664-0.64453 0.875-0.95312 0.43359-1.2344 1.4375-1.1016 0.98828-1.1016 0.58984-0.83594 0.99219-0.91016 0.55078-0.078125 1.543-0.17969 1.0938-0.36328 1.332-0.29297 1.3086-0.71875 1.0859-0.91406 1.0273-0.875 1.0781-0.72656 0.90625-1.5039 0.46484-0.99219 0.77734-1.0898 1.2422-1.0547 0.53125-0.54297 0.98828-1.6719 1.6172-0.91406 0.625-0.42578 1.3594-0.67188 1.6289-0.85156 0.61328-0.81641 0.96094-0.10156 1.7852 0.10547 2.1445-0.38281 1.2383 0.042969 1.6211-0.27344 1.2969-1.0898 1.1211-1.375 0.68359-1.6523 0.60156-1.3008 0.375 0.12109 1.4844 0.64844 0.92969 0.082031 1.1953-0.11328 1.4102 0.09375 1.0039 0.53516 0.92969v1.4062l-0.21484 1.0664-0.72656 1.6797-0.42969 2.1797 0.10156 1.5586 0.82422 1.1445 0.49219 2.8945-0.48047 0.96094-0.49219 0.96484-0.78516 2.0898-0.625 1.2461-1.1016 1.168-0.87891 1.0586-0.73438 0.77344-0.88672 1.2578-0.48438 1.4102 0.12891 1.0312-0.33984 1.2344-0.65625 1.4414-0.83203 0.99219-1.2031 0.70312-0.93359 0.6875-0.57031 0.84766-0.82031 1.4492-0.97656 1.1562-1.2969 0.21484-1.0039-0.085937-1.6953 0.49219-1.0312 0.26562-1.0234 0.10156-1.1992 0.24609-1.3398-0.03125-1.4961 0.17188-1.6016 0.050781-1.1875-0.18359-1.1133-0.17188-1.8945-0.28906-1.0312-0.050782-2.0117 0.75391-1.1797 0.1875-1.1016-0.46875-1.0352-0.90234-1.25-1.6289-0.59766-1.0508-0.625-1.1016-1.0195-0.84375-1.2578-1.1016-0.83203-1.4297-0.78516-1.0078-0.89844-0.77344-0.42969-0.94141-0.375-0.94531-0.12891-1.2461-1.0742-0.72656-0.88672-0.84375-1.2695-0.87109-0.92578-0.83203-0.31641-1.1406-1.0898-0.76172-1.1172-1.0391-0.33594-1.2656-1.4805-0.375-1.582-0.60156-1.1641-0.91406-0.90625-0.47656-0.37109-0.95703-1.0547-1.25-0.63281-1.3398 0.18359-1.5508 0.26172-1.1641-1.0859-0.875-1.0586-0.67969-0.72656-1.2031-0.60156-2.75-0.10547-1.543-0.11328-1.0547-1.5703-0.24609-1.207-0.76562-0.92188-0.83984-0.74609-0.96484 0.16406-1.7891 0.023437-1.5234-0.30469-1.5234-0.85156-1.25-0.62891-1.2734 0.60156-1.9883 1.2344-1.6133 0.57812-1.2344 0.32031-1.0508v-1.1602l0.43359-2.5234 0.082031-1.3633 0.14844-1.1406 0.13281-0.99219-0.097656-1.0039-0.16797-2.1328-0.035156-1.2109-0.92578-0.45703-0.98438-0.35547-1.2031-0.50391-1.0586-0.71094-0.98047-1.2617-0.77344-0.98047-1.7344-1.4727-1.2344-0.75391-1.1758-0.75-0.83203-0.62109-1.375-0.59766-1.1172-0.89453-0.57812-1.1055-0.40234-1.082-0.33594-1.2656-0.066406-1.6953 0.36328-1.3008 0.4375-1.4258 0.37109-1.3672 0.59375-0.98828 1.0898-0.85938-0.027344-1.7266-1.0742-0.55469-1.4062-1.1133-0.62891-1.0117-1.3242-0.60547-0.97656-0.71875-0.29297-1.0977 0.078125-1.2734 0.14844-2.4844-0.20312-1.3008-1.4883-1.207-1.0078-1.3008-0.55469-0.96094-0.8125-1.0391 0.09375-2.0352 0.16016-1.8359-0.046875-1.2461 0.24609-2.0625 0.35938-2.2891-0.042969-1.0781 0.17969-1.6211 0.3125-1.1367 0.5-1.1758-0.10938-1.6172 0.88672-2.4141 0.5625-1.1758 0.84766-1.0117 0.48828-1.0508 1.4062-1.4883 1.2031-0.50781 0.69922-0.84375 0.15625-2.043 0.25-1.2148 0.26172-1.2891 0.082031-2.0391-0.30469-1.2695 1.1719-2.0195 1.0195-0.26953 1.0469-0.85156 0.55469-1.6289 0.86328-0.76953 0.54688-0.91016 1.5117-1.7969 0.85547-2.0703 0.37109-2.7227 0.78516-0.83984 2.8398 0.625 1.332 0.21484 1.168 0.003906 1.0938-0.12109 1.9648-0.92188 1.1094-0.1875 1.6523-0.29688 1.5703-3.1719 1.0312-1.207 0.66016-1.3438 0.8125-0.72656 1.5469-0.91016 1.5977-1.4609 2.043-0.80078 2.1797-1.6797 0.15234-2.1367 1.957-2.5 2.7344 0.32031 1.9102-1.4453 1.543-1.2305 1.043-0.94531 0.91016-1.7852 2.6406-4.1719 0.82812-1.8164 0.49219-0.94922 1.2305-1.3359 1.1953-0.56641 1.1992-0.14062 1.0195-0.5625 1.0547-0.73828 1.4453 0.42188 1.1602 0.35156 1.0039-0.375 0.91406-0.71875 1.0352-0.99219 1.1523-0.55859 0.99609-0.67578 1.1133 0.19922 0.23828-1.1523 0.95312 0.31641" fill="none" stroke="#fff" stroke-linecap="round" stroke-linejoin="round" stroke-miterlimit="10" stroke-width="2"/>
<path d="m223.2 82.316 0.8125 0.42578 1.1953 0.63281 0.95703 0.50391 0.94531 1.3516 0.25 1.0273 2.4297 0.88281 1.1719 0.29688 1.8164 0.1875 1.0742 0.11328 1.2109 0.66797 1.0625 1.082 1.4023 0.32422 2.0586 0.46875 1.1484 1.9336 0.67969 0.92188 0.80078 0.60938 2.9492 1.1562 1.4414 0.74219 1.0039 0.85938 0.15625 1.6719-0.37891 1.8867-0.35547 1.0508-1.0078 1.6445-1.0352 1.0898-0.52734 1.6953 0.24219 1.9648-0.042968 1.4844-0.16016 1.0625-0.25781 1.043-0.5625 1.8242 0.65234 1.0977 2.1562 1.5469 1.2812 1.3633 1 0.5 1.9414 1.1094 0.87109 1.1562 0.91797 2.1445 0.41797 1.2812 0.38281 1.5469 0.078125 1.3008-0.43359 1.2695-0.40625 1.5586 0.015625 1.8438 0.92969 1.0508 1.9922 0.92578 1.6562 0.57031 1.5234 0.03125 1.1172-0.11328 2.7461 0.0625 1.3633 0.082031 2.2969-0.019531 3.2773 0.31641 4.207-0.16016-0.83984 0.98047-0.68359 1.5625-0.12109 1.1445 0.78516 1.4219-0.082031 1.6641-0.26172 1.4414-1.4609 1.5234-0.58203 1.2031-0.28125 1.1641-0.51953 1.4414-1.0039 0.68359-1.043 0.71094-0.98828 0.47656-0.66406 1.0977-0.1875 1.2734-0.0625 1.1992 0.64844 1.2969-0.97266 0.57031-1.3711-0.57031-0.16016 1.0352-1.3516 0.039063-0.99609 0.67578-1.1523 0.55859-1.0352 0.99219-0.91406 0.71875-1.0039 0.375-1.1602-0.35156-1.4453-0.42188-1.0547 0.73828-1.0195 0.5625-1.1992 0.14062-1.1953 0.56641-0.98438 0.91406-0.73828 1.3711-0.77734 1.7383-2.25 3.6094-1.3516 2.4258-1.043 0.94531-1.543 1.2305-1.4297 1.3789-2.6953-0.28516-2.8203 1.7148 0.57422 2.043-2.5625 2.5898-2.043 0.80078-1.5977 1.4609-1.5469 0.91016-0.8125 0.72656-0.66016 1.3438-1.0312 1.207-1.1562 2.5742-1.1094 0.88281-1.1914 0.050781-2.0039 0.67969-1.9297 0.51172-1.168-0.003906-1.332-0.21484-2.8398-0.625-0.77344 0.66016-0.16016 1.9297-1.0781 3.043-1.5117 1.7969-0.54688 0.91016-0.86328 0.76953-0.26953 1.207-1.332 1.2734-1.0195 0.26953-1.1445 1.5703 0.27734 1.7188-0.082031 2.0391-0.26172 1.2891-0.25 1.2148-0.15625 2.043-0.69922 0.84375-1.2031 0.50781-1.4062 1.4883-4.3867-1.6875-1.1719-0.63281-7.8867-4.25-1.6797-0.90234-1.668-0.89844-1.9648-1.0586-16.48-9.4141-2.7969-1.1953-17.578-1.0312-2.0781-0.16797-1.1602-0.44922-0.14844-1.1602 0.17188-1.2617-0.47266-1.2422-0.53906-1.3516-0.17578-1.0469-0.47656-1.3516-1.0547-0.83594-0.57031-1.2734-0.53906-1.6445-0.57031-1.0039-0.40234-1.4453-0.9375-0.71875-1.1914-1.3242-1.7422-0.95703-1.2578-2.0625-1.0781-0.61719-1.6797-0.23438-1.082-0.65625-1.1875-1.0742-1.6055-1.3203-0.60938-1.25-0.33594-1.6016-0.88281-0.56641-1.082-0.34766-1.9492-0.87891-0.70312-1.457 0.070313-1.5586 0.32031-2.1133 0.38672-1.0273 0.21875-1.0977-0.035156-1.1758-0.33594-1.6875 0.10156-1.3906 0.40625-1.4883 1.5703-0.98047 0.90234-0.55078 1.0469-0.32031 1.4258-0.19141 0.96875-0.53906 1.4062-2.0391 0.89062-1.1484 0.90625-1.5273 1.0078-0.85547 1.2617-0.52344 2.4336-0.81641 1.3008-0.035156 1.6211 0.17578 1.2109-0.38281 1.543-0.15234 2.1016 0.90625 1.0312 0.24219 2.2227-1.6797 1.2773-0.31641 1.4492 0.17188 1.2578 0.15234 1.3711 0.16797 1.6602-0.18359 2.1133-0.71094 1.0391-0.32031 1.7383 0.12109 0.98828-0.31641 1.7656-1.0273 2.5781-0.95703 2.2812-0.64844 2.3086-0.33203 1.5312-0.33203 1.4023-0.625 1.375-0.42188 2.0664-0.69922 2.0898-0.95703 1.5312-1.7188 1.2383-2.5508 1.0039-1.9141 1.4922-1.9961 0.80469-1.2422 1.2227-1.8867 0.089843-1.3789-0.36719-1.582 0.24219-1.4258-0.70312-1.4258-0.34375-1.0742-1.0859-1.668-0.98047-0.86719-2.3594-1.6367-1.0938-3.1445 1.6172-1.3828 1.7344-1.5625 0.63672-1.5547 0.90625-1.3008 1.7578-1.5586 1.0781-0.95312 1.1562-0.53516 0.78906-0.91797 0.95703-0.74609 0.99219-0.9375 1.75 0.050782 1.6445-0.33203 1.8086-0.38281 2.1367-0.61719 2.6523-0.67188 1.4844-0.61719 2.0664-1.3828 1.0703-0.47266 0.73828-1.0586 1.4023-1.1602 0.69141-1.2109 1.0781-0.88281 1.6992-0.66016 2.5898-1.2617 1.3008-0.35938 0.73828-0.85156 0.34375-1.25 0.15234-1.0352 1.2773-0.63672 1.3125 0.17969 1.3398 0.039063 3.125-0.089844 1.1328-0.10156 1.9766-0.51172z" fill="#ccc" fill-rule="evenodd"/>
<path d="m223.2 82.316 0.8125 0.42578 1.1953 0.63281 0.95703 0.50391 0.94531 1.3516 0.25 1.0273 2.4297 0.88281 1.1719 0.29688 1.8164 0.1875 1.0742 0.11328 1.2109 0.66797 1.0625 1.082 1.4023 0.32422 2.0586 0.46875 1.1484 1.9336 0.67969 0.92188 0.80078 0.60938 2.9492 1.1562 1.4414 0.74219 1.0039 0.85938 0.15625 1.6719-0.37891 1.8867-0.35547 1.0508-1.0078 1.6445-1.0352 1.0898-0.52734 1.6953 0.24219 1.9648-0.042968 1.4844-0.16016 1.0625-0.25781 1.043-0.5625 1.8242 0.65234 1.0977 2.1562 1.5469 1.2812 1.3633 1 0.5 1.9414 1.1094 0.87109 1.1562 0.91797 2.1445 0.41797 1.2812 0.38281 1.5469 0.078125 1.3008-0.43359 1.2695-0.40625 1.5586 0.015625 1.8438 0.92969 1.0508 1.9922 0.92578 1.6562 0.57031 1.5234 0.03125 1.1172-0.11328 2.7461 0.0625 1.3633 0.082031 2.2969-0.019531 3.2773 0.31641 4.207-0.16016-0.83984 0.98047-0.68359 1.5625-0.12109 1.1445 0.78516 1.4219-0.082031 1.6641-0.26172 1.4414-1.4609 1.5234-0.58203 1.2031-0.28125 1.1641-0.51953 1.4414-1.0039 0.68359-1.043 0.71094-0.98828 0.47656-0.66406 1.0977-0.1875 1.2734-0.0625 1.1992 0.64844 1.2969-0.97266 0.57031-1.3711-0.57031-0.16016 1.0352-1.3516 0.039063-0.99609 0.67578-1.1523 0.55859-1.0352 0.99219-0.91406 0.71875-1.0039 0.375-1.1602-0.35156-1.4453-0.42188-1.0547 0.73828-1.0195 0.5625-1.1992 0.14062-1.1953 0.56641-0.98438 0.91406-0.73828 1.3711-0.77734 1.7383-2.25 3.6094-1.3516 2.4258-1.043 0.94531-1.543 1.2305-1.4297 1.3789-2.6953-0.28516-2.8203 1.7148 0.57422 2.043-2.5625 2.5898-2.043 0.80078-1.5977 1.4609-1.5469 0.91016-0.8125 0.72656-0.66016 1.3438-1.0312 1.207-1.1562 2.5742-1.1094 0.88281-1.1914 0.050781-2.0039 0.67969-1.9297 0.51172-1.168-0.003906-1.332-0.21484-2.8398-0.625-0.77344 0.66016-0.16016 1.9297-1.0781 3.043-1.5117 1.7969-0.54688 0.91016-0.86328 0.76953-0.26953 1.207-1.332 1.2734-1.0195 0.26953-1.1445 1.5703 0.27734 1.7188-0.082031 2.0391-0.26172 1.2891-0.25 1.2148-0.15625 2.043-0.69922 0.84375-1.2031 0.50781-1.4062 1.4883-4.3867-1.6875-1.1719-0.63281-7.8867-4.25-1.6797-0.90234-1.668-0.89844-1.9648-1.0586-16.48-9.4141-2.7969-1.1953-17.578-1.0312-2.0781-0.16797-1.1602-0.44922-0.14844-1.1602 0.17188-1.2617-0.47266-1.2422-0.53906-1.3516-0.17578-1.0469-0.47656-1.3516-1.0547-0.83594-0.57031-1.2734-0.53906-1.6445-0.57031-1.0039-0.40234-1.4453-0.9375-0.71875-1.1914-1.3242-1.7422-0.95703-1.2578-2.0625-1.0781-0.61719-1.6797-0.23438-1.082-0.65625-1.1875-1.0742-1.6055-1.3203-0.60938-1.25-0.33594-1.6016-0.88281-0.56641-1.082-0.34766-1.9492-0.87891-0.70312-1.457 0.070313-1.5586 0.32031-2.1133 0.38672-1.0273 0.21875-1.0977-0.035156-1.1758-0.33594-1.6875 0.10156-1.3906 0.40625-1.4883 1.5703-0.98047 0.90234-0.55078 1.0469-0.32031 1.4258-0.19141 0.96875-0.53906 1.4062-2.0391 0.89062-1.1484 0.90625-1.5273 1.0078-0.85547 1.2617-0.52344 2.4336-0.81641 1.3008-0.035156 1.6211 0.17578 1.2109-0.38281 1.543-0.15234 2.1016 0.90625 1.0312 0.24219 2.2227-1.6797 1.2773-0.31641 1.4492 0.17188 1.2578 0.15234 1.3711 0.16797 1.6602-0.18359 2.1133-0.71094 1.0391-0.32031 1.7383 0.12109 0.98828-0.31641 1.7656-1.0273 2.5781-0.95703 2.2812-0.64844 2.3086-0.33203 1.5312-0.33203 1.4023-0.625 1.375-0.42188 2.0664-0.69922 2.0898-0.95703 1.5312-1.7188 1.2383-2.5508 1.0039-1.9141 1.4922-1.9961 0.80469-1.2422 1.2227-1.8867 0.089843-1.3789-0.36719-1.582 0.24219-1.4258-0.70312-1.4258-0.34375-1.0742-1.0859-1.668-0.98047-0.86719-2.3594-1.6367-1.0938-3.1445 1.6172-1.3828 1.7344-1.5625 0.63672-1.5547 0.90625-1.3008 1.7578-1.5586 1.0781-0.95312 1.1562-0.53516 0.78906-0.91797 0.95703-0.74609 0.99219-0.9375 1.75 0.050782 1.6445-0.33203 1.8086-0.38281 2.1367-0.61719 2.6523-0.67188 1.4844-0.61719 2.0664-1.3828 1.0703-0.47266 0.73828-1.0586 1.4023-1.1602 0.69141-1.2109 1.0781-0.88281 1.6992-0.66016 2.5898-1.2617 1.3008-0.35938 0.73828-0.85156 0.34375-1.25 0.15234-1.0352 1.2773-0.63672 1.3125 0.17969 1.3398 0.039063 3.125-0.089844 1.1328-0.10156 1.9766-0.51172 0.28516 0.26172" fill="none" stroke="#fff" stroke-linecap="round" stroke-linejoin="round" stroke-miterlimit="10" stroke-width="2"/>
<path d="m333.54 88.965 0.32812 0.41406v2.2891l0.61328 1.6016 1.0312 1.3203 1.4414 0.87109 2.2227 0.54688 2.7617 0.33984 4.0977 0.50391 5.6289 1.082 1.1562 0.027344 3.2227 1.1992 6.9531 0.074219-1.6992 1.7422-1.2383 1.1055-0.34766 1.3164-1.3047 1.0117-0.57812 1.1797-0.35547 1.9453-0.73047 1.1875-0.55078 1.2578-0.089843 1v1.2422l2.0039 2.543 1.4023 2.2734-1.2969 1.8828-0.8125 1.4375 0.26562 1.3867v2.5078l-0.96875 2.1875-0.67969 1.6719 0.32812 1.3555-0.76562 1.4453-0.44531 1.6875-1.2695 1.2773-0.79297 1.1523-0.89844 1.3047-1.4609 0.82422-1.5664 0.32812-1.0352 0.51562-1.8242 1.8359-2.8008 2.1641-0.77734 1.4102-0.36328 1.0039-1.4102 0.47656-1.3711 0.42188-1.1602 0.37891-1.0664 0.27344-4.4922 2.125-1.6523 0.78125-1.0938 0.76172-1.2344 0.26562-0.77734-3.6758-0.26562-1.3984-0.46484-0.9375-1.3789-1.1484-1.5352 0.16406-2.4023 0.25781-2.1875 0.64062-2.0156 1.0234-1.1992-0.058594-1.168-0.61328-0.91406-1.1055-0.64453-1.4297-2.1875-0.97656-0.52734-0.87891-2.3398-2.0352-0.019531-1.0156 4.3711-5.1133-0.41797-1.5859-1.4258-1.5-0.75-0.84375-0.75781-1.4609-1.4023-1.2617-0.52344-0.85547-0.36719-0.98828-0.42578-1.1406-0.55078-1.4883-3.582-0.81641-0.92578-0.65625-0.65234-1.0898-0.85156-1.2188-1.082-0.75391-1.9648-1.375 4.043-3.5234 1.1914-0.9375 1.1055-0.61719 1.332-0.74609 1.3672-0.91016 1.5312-1.375 0.92578-1.293 1.2695-1.5742 1.457-1.6172 0.91797-0.61719 2.1914-1.7734 1.0977-0.3125 2.0938-0.082031 2.207-0.44531 1.7188-0.34766 1.3438-0.87891 1.293-0.86719 0.58594-1.0508 1.043-1.4297 0.082031-1.1133 0.007812-1.0195 0.71484-1.1406 0.95703-0.3125 1.3359-0.61328 1.0039-0.18359 1.7305-0.90234z" fill="#0a5394" fill-rule="evenodd"/>
<path d="m333.54 88.965 0.32812 0.41406v2.2891l0.61328 1.6016 1.0312 1.3203 1.4414 0.87109 2.2227 0.54688 2.7617 0.33984 4.0977 0.50391 5.6289 1.082 1.1562 0.027344 3.2227 1.1992 6.9531 0.074219-1.6992 1.7422-1.2383 1.1055-0.34766 1.3164-1.3047 1.0117-0.57812 1.1797-0.35547 1.9453-0.73047 1.1875-0.55078 1.2578-0.089843 1v1.2422l2.0039 2.543 1.4023 2.2734-1.2969 1.8828-0.8125 1.4375 0.26562 1.3867v2.5078l-0.96875 2.1875-0.67969 1.6719 0.32812 1.3555-0.76562 1.4453-0.44531 1.6875-1.2695 1.2773-0.79297 1.1523-0.89844 1.3047-1.4609 0.82422-1.5664 0.32812-1.0352 0.51562-1.8242 1.8359-2.8008 2.1641-0.77734 1.4102-0.36328 1.0039-1.4102 0.47656-1.3711 0.42188-1.1602 0.37891-1.0664 0.27344-4.4922 2.125-1.6523 0.78125-1.0938 0.76172-1.2344 0.26562-0.77734-3.6758-0.26562-1.3984-0.46484-0.9375-1.3789-1.1484-1.5352 0.16406-2.4023 0.25781-2.1875 0.64062-2.0156 1.0234-1.1992-0.058594-1.168-0.61328-0.91406-1.1055-0.64453-1.4297-2.1875-0.97656-0.52734-0.87891-2.3398-2.0352-0.019531-1.0156 4.3711-5.1133-0.41797-1.5859-1.4258-1.5-0.75-0.84375-0.75781-1.4609-1.4023-1.2617-0.52344-0.85547-0.36719-0.98828-0.42578-1.1406-0.55078-1.4883-3.582-0.81641-0.92578-0.65625-0.65234-1.0898-0.85156-1.2188-1.082-0.75391-1.9648-1.375 4.043-3.5234 1.1914-0.9375 1.1055-0.61719 1.332-0.74609 1.3672-0.91016 1.5312-1.375 0.92578-1.293 1.2695-1.5742 1.457-1.6172 0.91797-0.61719 2.1914-1.7734 1.0977-0.3125 2.0938-0.082031 2.207-0.44531 1.7188-0.34766 1.3438-0.87891 1.293-0.86719 0.58594-1.0508 1.043-1.4297 0.082031-1.1133 0.007812-1.0195 0.71484-1.1406 0.95703-0.3125 1.3359-0.61328 1.0039-0.18359 1.7305-0.90234 1.4648 0.082031" fill="none" stroke="#fff" stroke-linecap="round" stroke-linejoin="round" stroke-miterlimit="10"/>
<path d="m355.84 130.12c0 3.5898-2.9102 6.5-6.5 6.5s-6.5-2.9102-6.5-6.5c0-3.5898 2.9102-6.5 6.5-6.5s6.5 2.9102 6.5 6.5" fill="#28c028" fill-rule="evenodd" stroke="#000" stroke-linecap="round" stroke-linejoin="round" stroke-miterlimit="10"/>
<path d="m194.68 95.758 3.2344-0.3125c0.19531 1.0859 0.59375 1.8828 1.1875 2.3906 0.59375 0.51172 1.3945 0.76562 2.4062 0.76562 1.0703 0 1.8789-0.22266 2.4219-0.67188 0.53906-0.45703 0.8125-0.98828 0.8125-1.5938 0-0.39453-0.11719-0.72656-0.34375-1-0.23047-0.26953-0.625-0.50391-1.1875-0.70312-0.39844-0.13281-1.2891-0.375-2.6719-0.71875-1.7812-0.44531-3.0312-0.99219-3.75-1.6406-1.0117-0.90625-1.5156-2.0078-1.5156-3.3125 0-0.83203 0.23828-1.6133 0.71875-2.3438 0.47656-0.72656 1.1602-1.2852 2.0469-1.6719 0.89453-0.38281 1.9766-0.57812 3.25-0.57812 2.0625 0 3.6133 0.45312 4.6562 1.3594 1.0508 0.90625 1.6016 2.1172 1.6562 3.625l-3.3281 0.15625c-0.14844-0.84375-0.45312-1.4531-0.92188-1.8281-0.46094-0.375-1.1562-0.5625-2.0938-0.5625-0.96875 0-1.7305 0.20312-2.2812 0.60938-0.34375 0.25-0.51562 0.58984-0.51562 1.0156 0 0.38672 0.16016 0.71875 0.48438 1 0.42578 0.35547 1.4453 0.72656 3.0625 1.1094 1.6133 0.375 2.8047 0.76562 3.5781 1.1719 0.78125 0.40625 1.3906 0.96484 1.8281 1.6719 0.4375 0.71094 0.65625 1.5859 0.65625 2.625 0 0.94922-0.26562 1.8359-0.79688 2.6562-0.52344 0.82422-1.2617 1.4375-2.2188 1.8438-0.96094 0.39453-2.1523 0.59375-3.5781 0.59375-2.0859 0-3.6836-0.47656-4.7969-1.4375-1.1172-0.96875-1.7812-2.375-2-4.2188zm31.031 5.3594h-3.6094l-1.4375-3.7344h-6.5781l-1.3594 3.7344h-3.5312l6.4062-16.469h3.5156zm-6.1094-6.5156-2.2812-6.1094-2.2188 6.1094zm7.9062 6.5156v-16.469h3.2344l6.75 11v-11h3.0781v16.469h-3.3281l-6.6406-10.734v10.734zm20.281 0v-13.672h-4.875v-2.7969h13.078v2.7969h-4.875v13.672zm25.188 0h-3.6094l-1.4375-3.7344h-6.5781l-1.3594 3.7344h-3.5312l6.4062-16.469h3.5156zm-6.1094-6.5156-2.2812-6.1094-2.2188 6.1094zm24.797 0.46875 3.2344 1.0156c-0.5 1.793-1.3281 3.125-2.4844 4-1.1484 0.875-2.6016 1.3125-4.3594 1.3125-2.1875 0-3.9844-0.74219-5.3906-2.2344-1.4062-1.5-2.1094-3.5469-2.1094-6.1406 0-2.7383 0.70312-4.8633 2.1094-6.375 1.4141-1.5195 3.2812-2.2812 5.5938-2.2812 2.0078 0 3.6445 0.60156 4.9062 1.7969 0.75 0.69922 1.3125 1.7109 1.6875 3.0312l-3.2969 0.78125c-0.19922-0.85156-0.60547-1.5234-1.2188-2.0156-0.61719-0.5-1.3672-0.75-2.25-0.75-1.2188 0-2.2109 0.4375-2.9688 1.3125-0.76172 0.875-1.1406 2.2969-1.1406 4.2656 0 2.0742 0.375 3.5547 1.125 4.4375 0.75 0.88672 1.7227 1.3281 2.9219 1.3281 0.88281 0 1.6445-0.28125 2.2812-0.84375 0.63281-0.5625 1.0859-1.4414 1.3594-2.6406zm6.0938 6.0469v-16.469h7c1.7578 0 3.0352 0.15234 3.8281 0.45312 0.80078 0.29297 1.4414 0.82031 1.9219 1.5781 0.47656 0.75 0.71875 1.6172 0.71875 2.5938 0 1.2305-0.36719 2.25-1.0938 3.0625-0.73047 0.80469-1.8203 1.3086-3.2656 1.5156 0.71875 0.41797 1.3125 0.88281 1.7812 1.3906 0.46875 0.5 1.0977 1.3867 1.8906 2.6562l2.0156 3.2188h-3.9688l-2.4062-3.5781c-0.85547-1.2812-1.4375-2.0859-1.75-2.4219-0.3125-0.33203-0.64844-0.5625-1-0.6875-0.35547-0.125-0.91406-0.1875-1.6719-0.1875h-0.67188v6.875zm3.3281-9.5h2.4531c1.5938 0 2.5859-0.066407 2.9844-0.20312 0.39453-0.13281 0.70312-0.36328 0.92188-0.6875 0.22656-0.33203 0.34375-0.75 0.34375-1.25 0-0.55078-0.14844-0.99219-0.4375-1.3281-0.29297-0.34375-0.71094-0.5625-1.25-0.65625-0.27344-0.03125-1.0781-0.046875-2.4219-0.046875h-2.5938zm13.25-6.9688h3.3125v8.9219c0 1.418 0.039062 2.3359 0.125 2.75 0.14453 0.67969 0.48438 1.2188 1.0156 1.625 0.53906 0.40625 1.2734 0.60938 2.2031 0.60938 0.9375 0 1.6445-0.19141 2.125-0.57812 0.47656-0.38281 0.76562-0.85938 0.85938-1.4219 0.10156-0.5625 0.15625-1.4922 0.15625-2.7969v-9.1094h3.3281v8.6562c0 1.9688-0.09375 3.3672-0.28125 4.1875-0.17969 0.8125-0.50781 1.5-0.98438 2.0625-0.48047 0.5625-1.125 1.0117-1.9375 1.3438-0.8125 0.33203-1.8711 0.5-3.1719 0.5-1.5742 0-2.7656-0.18359-3.5781-0.54688-0.8125-0.36328-1.4531-0.83203-1.9219-1.4062-0.46875-0.58203-0.77734-1.1914-0.92188-1.8281-0.21875-0.94531-0.32812-2.3438-0.32812-4.1875zm15.203 16.469v-3l8.6406-10.672h-7.6719v-2.7969h12.062v2.5938l-9.0312 11.094h9.375v2.7812zm-134.03 6.5312h6.0781c1.375 0 2.4219 0.10547 3.1406 0.3125 0.95703 0.29297 1.7812 0.80469 2.4688 1.5312 0.69531 0.71875 1.2227 1.6055 1.5781 2.6562 0.36328 1.0547 0.54688 2.3516 0.54688 3.8906 0 1.3555-0.17188 2.5234-0.51562 3.5-0.40625 1.1992-0.99219 2.1719-1.75 2.9219-0.58594 0.5625-1.3672 1-2.3438 1.3125-0.73047 0.23047-1.7109 0.34375-2.9375 0.34375h-6.2656zm3.3281 2.7969v10.891h2.4844c0.92578 0 1.5977-0.050782 2.0156-0.15625 0.53125-0.13281 0.97266-0.35938 1.3281-0.67188 0.36328-0.32031 0.65625-0.85156 0.875-1.5938 0.22656-0.73828 0.34375-1.7422 0.34375-3.0156 0-1.2695-0.11719-2.2422-0.34375-2.9219-0.21875-0.6875-0.53125-1.2188-0.9375-1.5938-0.40625-0.38281-0.92188-0.64453-1.5469-0.78125-0.46094-0.10156-1.3672-0.15625-2.7188-0.15625zm13.297 13.672v-16.469h12.203v2.7969h-8.875v3.6406h8.2656v2.7812h-8.2656v4.4688h9.2031v2.7812zm25.438 0v-13.672h-4.875v-2.7969h13.078v2.7969h-4.875v13.672zm9.6719-8.125c0-1.6758 0.25-3.0859 0.75-4.2344 0.375-0.83203 0.88281-1.582 1.5312-2.25 0.64453-0.66406 1.3516-1.1602 2.125-1.4844 1.0312-0.4375 2.2188-0.65625 3.5625-0.65625 2.4141 0 4.3516 0.75781 5.8125 2.2656 1.457 1.5 2.1875 3.5938 2.1875 6.2812 0 2.6562-0.72656 4.7344-2.1719 6.2344-1.4375 1.5-3.3711 2.25-5.7969 2.25-2.4492 0-4.3984-0.74219-5.8438-2.2344-1.4375-1.5-2.1562-3.5547-2.1562-6.1719zm3.4219-0.125c0 1.8672 0.42969 3.2812 1.2969 4.25 0.86328 0.96094 1.957 1.4375 3.2812 1.4375 1.3203 0 2.4062-0.47266 3.25-1.4219 0.85156-0.95703 1.2812-2.3906 1.2812-4.2969 0-1.8945-0.41797-3.3047-1.25-4.2344-0.82422-0.92578-1.918-1.3906-3.2812-1.3906-1.375 0-2.4844 0.47656-3.3281 1.4219-0.83594 0.9375-1.25 2.3516-1.25 4.2344zm15.234 8.25v-16.328h3.3281v13.547h8.2656v2.7812zm13.953 0v-16.469h12.203v2.7969h-8.875v3.6406h8.2656v2.7812h-8.2656v4.4688h9.2031v2.7812zm15.328-16.469h6.0781c1.375 0 2.4219 0.10547 3.1406 0.3125 0.95703 0.29297 1.7812 0.80469 2.4688 1.5312 0.69531 0.71875 1.2227 1.6055 1.5781 2.6562 0.36328 1.0547 0.54688 2.3516 0.54688 3.8906 0 1.3555-0.17188 2.5234-0.51562 3.5-0.40625 1.1992-0.99219 2.1719-1.75 2.9219-0.58594 0.5625-1.3672 1-2.3438 1.3125-0.73047 0.23047-1.7109 0.34375-2.9375 0.34375h-6.2656zm3.3281 2.7969v10.891h2.4844c0.92578 0 1.5977-0.050782 2.0156-0.15625 0.53125-0.13281 0.97266-0.35938 1.3281-0.67188 0.36328-0.32031 0.65625-0.85156 0.875-1.5938 0.22656-0.73828 0.34375-1.7422 0.34375-3.0156 0-1.2695-0.11719-2.2422-0.34375-2.9219-0.21875-0.6875-0.53125-1.2188-0.9375-1.5938-0.40625-0.38281-0.92188-0.64453-1.5469-0.78125-0.46094-0.10156-1.3672-0.15625-2.7188-0.15625zm0 0" fill="none" stroke="#fff" stroke-linecap="round" stroke-linejoin="round" stroke-miterlimit="10" stroke-width="2"/>
<path d="m194.68 95.758 3.2344-0.3125c0.19531 1.0859 0.59375 1.8828 1.1875 2.3906 0.59375 0.51172 1.3945 0.76562 2.4062 0.76562 1.0703 0 1.8789-0.22266 2.4219-0.67188 0.53906-0.45703 0.8125-0.98828 0.8125-1.5938 0-0.39453-0.11719-0.72656-0.34375-1-0.23047-0.26953-0.625-0.50391-1.1875-0.70312-0.39844-0.13281-1.2891-0.375-2.6719-0.71875-1.7812-0.44531-3.0312-0.99219-3.75-1.6406-1.0117-0.90625-1.5156-2.0078-1.5156-3.3125 0-0.83203 0.23828-1.6133 0.71875-2.3438 0.47656-0.72656 1.1602-1.2852 2.0469-1.6719 0.89453-0.38281 1.9766-0.57812 3.25-0.57812 2.0625 0 3.6133 0.45312 4.6562 1.3594 1.0508 0.90625 1.6016 2.1172 1.6562 3.625l-3.3281 0.15625c-0.14844-0.84375-0.45312-1.4531-0.92188-1.8281-0.46094-0.375-1.1562-0.5625-2.0938-0.5625-0.96875 0-1.7305 0.20312-2.2812 0.60938-0.34375 0.25-0.51562 0.58984-0.51562 1.0156 0 0.38672 0.16016 0.71875 0.48438 1 0.42578 0.35547 1.4453 0.72656 3.0625 1.1094 1.6133 0.375 2.8047 0.76562 3.5781 1.1719 0.78125 0.40625 1.3906 0.96484 1.8281 1.6719 0.4375 0.71094 0.65625 1.5859 0.65625 2.625 0 0.94922-0.26562 1.8359-0.79688 2.6562-0.52344 0.82422-1.2617 1.4375-2.2188 1.8438-0.96094 0.39453-2.1523 0.59375-3.5781 0.59375-2.0859 0-3.6836-0.47656-4.7969-1.4375-1.1172-0.96875-1.7812-2.375-2-4.2188zm31.031 5.3594h-3.6094l-1.4375-3.7344h-6.5781l-1.3594 3.7344h-3.5312l6.4062-16.469h3.5156zm-6.1094-6.5156-2.2812-6.1094-2.2188 6.1094zm7.9062 6.5156v-16.469h3.2344l6.75 11v-11h3.0781v16.469h-3.3281l-6.6406-10.734v10.734zm20.281 0v-13.672h-4.875v-2.7969h13.078v2.7969h-4.875v13.672zm25.188 0h-3.6094l-1.4375-3.7344h-6.5781l-1.3594 3.7344h-3.5312l6.4062-16.469h3.5156zm-6.1094-6.5156-2.2812-6.1094-2.2188 6.1094zm24.797 0.46875 3.2344 1.0156c-0.5 1.793-1.3281 3.125-2.4844 4-1.1484 0.875-2.6016 1.3125-4.3594 1.3125-2.1875 0-3.9844-0.74219-5.3906-2.2344-1.4062-1.5-2.1094-3.5469-2.1094-6.1406 0-2.7383 0.70312-4.8633 2.1094-6.375 1.4141-1.5195 3.2812-2.2812 5.5938-2.2812 2.0078 0 3.6445 0.60156 4.9062 1.7969 0.75 0.69922 1.3125 1.7109 1.6875 3.0312l-3.2969 0.78125c-0.19922-0.85156-0.60547-1.5234-1.2188-2.0156-0.61719-0.5-1.3672-0.75-2.25-0.75-1.2188 0-2.2109 0.4375-2.9688 1.3125-0.76172 0.875-1.1406 2.2969-1.1406 4.2656 0 2.0742 0.375 3.5547 1.125 4.4375 0.75 0.88672 1.7227 1.3281 2.9219 1.3281 0.88281 0 1.6445-0.28125 2.2812-0.84375 0.63281-0.5625 1.0859-1.4414 1.3594-2.6406zm6.0938 6.0469v-16.469h7c1.7578 0 3.0352 0.15234 3.8281 0.45312 0.80078 0.29297 1.4414 0.82031 1.9219 1.5781 0.47656 0.75 0.71875 1.6172 0.71875 2.5938 0 1.2305-0.36719 2.25-1.0938 3.0625-0.73047 0.80469-1.8203 1.3086-3.2656 1.5156 0.71875 0.41797 1.3125 0.88281 1.7812 1.3906 0.46875 0.5 1.0977 1.3867 1.8906 2.6562l2.0156 3.2188h-3.9688l-2.4062-3.5781c-0.85547-1.2812-1.4375-2.0859-1.75-2.4219-0.3125-0.33203-0.64844-0.5625-1-0.6875-0.35547-0.125-0.91406-0.1875-1.6719-0.1875h-0.67188v6.875zm3.3281-9.5h2.4531c1.5938 0 2.5859-0.066407 2.9844-0.20312 0.39453-0.13281 0.70312-0.36328 0.92188-0.6875 0.22656-0.33203 0.34375-0.75 0.34375-1.25 0-0.55078-0.14844-0.99219-0.4375-1.3281-0.29297-0.34375-0.71094-0.5625-1.25-0.65625-0.27344-0.03125-1.0781-0.046875-2.4219-0.046875h-2.5938zm13.25-6.9688h3.3125v8.9219c0 1.418 0.039062 2.3359 0.125 2.75 0.14453 0.67969 0.48438 1.2188 1.0156 1.625 0.53906 0.40625 1.2734 0.60938 2.2031 0.60938 0.9375 0 1.6445-0.19141 2.125-0.57812 0.47656-0.38281 0.76562-0.85938 0.85938-1.4219 0.10156-0.5625 0.15625-1.4922 0.15625-2.7969v-9.1094h3.3281v8.6562c0 1.9688-0.09375 3.3672-0.28125 4.1875-0.17969 0.8125-0.50781 1.5-0.98438 2.0625-0.48047 0.5625-1.125 1.0117-1.9375 1.3438-0.8125 0.33203-1.8711 0.5-3.1719 0.5-1.5742 0-2.7656-0.18359-3.5781-0.54688-0.8125-0.36328-1.4531-0.83203-1.9219-1.4062-0.46875-0.58203-0.77734-1.1914-0.92188-1.8281-0.21875-0.94531-0.32812-2.3438-0.32812-4.1875zm15.203 16.469v-3l8.6406-10.672h-7.6719v-2.7969h12.062v2.5938l-9.0312 11.094h9.375v2.7812zm-134.03 6.5312h6.0781c1.375 0 2.4219 0.10547 3.1406 0.3125 0.95703 0.29297 1.7812 0.80469 2.4688 1.5312 0.69531 0.71875 1.2227 1.6055 1.5781 2.6562 0.36328 1.0547 0.54688 2.3516 0.54688 3.8906 0 1.3555-0.17188 2.5234-0.51562 3.5-0.40625 1.1992-0.99219 2.1719-1.75 2.9219-0.58594 0.5625-1.3672 1-2.3438 1.3125-0.73047 0.23047-1.7109 0.34375-2.9375 0.34375h-6.2656zm3.3281 2.7969v10.891h2.4844c0.92578 0 1.5977-0.050782 2.0156-0.15625 0.53125-0.13281 0.97266-0.35938 1.3281-0.67188 0.36328-0.32031 0.65625-0.85156 0.875-1.5938 0.22656-0.73828 0.34375-1.7422 0.34375-3.0156 0-1.2695-0.11719-2.2422-0.34375-2.9219-0.21875-0.6875-0.53125-1.2188-0.9375-1.5938-0.40625-0.38281-0.92188-0.64453-1.5469-0.78125-0.46094-0.10156-1.3672-0.15625-2.7188-0.15625zm13.297 13.672v-16.469h12.203v2.7969h-8.875v3.6406h8.2656v2.7812h-8.2656v4.4688h9.2031v2.7812zm25.438 0v-13.672h-4.875v-2.7969h13.078v2.7969h-4.875v13.672zm9.6719-8.125c0-1.6758 0.25-3.0859 0.75-4.2344 0.375-0.83203 0.88281-1.582 1.5312-2.25 0.64453-0.66406 1.3516-1.1602 2.125-1.4844 1.0312-0.4375 2.2188-0.65625 3.5625-0.65625 2.4141 0 4.3516 0.75781 5.8125 2.2656 1.457 1.5 2.1875 3.5938 2.1875 6.2812 0 2.6562-0.72656 4.7344-2.1719 6.2344-1.4375 1.5-3.3711 2.25-5.7969 2.25-2.4492 0-4.3984-0.74219-5.8438-2.2344-1.4375-1.5-2.1562-3.5547-2.1562-6.1719zm3.4219-0.125c0 1.8672 0.42969 3.2812 1.2969 4.25 0.86328 0.96094 1.957 1.4375 3.2812 1.4375 1.3203 0 2.4062-0.47266 3.25-1.4219 0.85156-0.95703 1.2812-2.3906 1.2812-4.2969 0-1.8945-0.41797-3.3047-1.25-4.2344-0.82422-0.92578-1.918-1.3906-3.2812-1.3906-1.375 0-2.4844 0.47656-3.3281 1.4219-0.83594 0.9375-1.25 2.3516-1.25 4.2344zm15.234 8.25v-16.328h3.3281v13.547h8.2656v2.7812zm13.953 0v-16.469h12.203v2.7969h-8.875v3.6406h8.2656v2.7812h-8.2656v4.4688h9.2031v2.7812zm15.328-16.469h6.0781c1.375 0 2.4219 0.10547 3.1406 0.3125 0.95703 0.29297 1.7812 0.80469 2.4688 1.5312 0.69531 0.71875 1.2227 1.6055 1.5781 2.6562 0.36328 1.0547 0.54688 2.3516 0.54688 3.8906 0 1.3555-0.17188 2.5234-0.51562 3.5-0.40625 1.1992-0.99219 2.1719-1.75 2.9219-0.58594 0.5625-1.3672 1-2.3438 1.3125-0.73047 0.23047-1.7109 0.34375-2.9375 0.34375h-6.2656zm3.3281 2.7969v10.891h2.4844c0.92578 0 1.5977-0.050782 2.0156-0.15625 0.53125-0.13281 0.97266-0.35938 1.3281-0.67188 0.36328-0.32031 0.65625-0.85156 0.875-1.5938 0.22656-0.73828 0.34375-1.7422 0.34375-3.0156 0-1.2695-0.11719-2.2422-0.34375-2.9219-0.21875-0.6875-0.53125-1.2188-0.9375-1.5938-0.40625-0.38281-0.92188-0.64453-1.5469-0.78125-0.46094-0.10156-1.3672-0.15625-2.7188-0.15625z" fill-rule="evenodd"/>
</g>
</svg>
