<?xml version="1.0" encoding="UTF-8"?>
<svg width="500pt" height="420pt" version="1.1" viewBox="0 0 500 420" xmlns="http://www.w3.org/2000/svg">
<g id="a">
<rect width="500" height="420" fill="none"/>
<path d="m430.46 10.281 0.011719 0.039063 0.14844 1.0938-0.60156 0.94922-0.41797 1.4844-0.67188 1.0664 0.34766 1.207 0.74219 1.2188 0.50781 1.375-0.30078 1.3203-0.09375 1.043-0.19922 1.2656-0.37109 0.97266 1.1719 0.89062 1.0195 1.1836 0.25781 1.3203v1.0898l1.8281 0.48438 1.4375 1.0664 1.9492 0.625 0.99609 1.2969 0.46094 0.92969 0.74219 0.85547 0.046875 1.1133 0.55469 1.4141 2.1094 0.20703 1.8086 0.64844 1.2891 1.4336 1.1211 1.7422 1.25 1.3438 1.4141 1.5547 0.97266 1.5742 0.58203 1.5742 0.82422 1.0117 0.79688 0.82031 1.9219 1.1133 1.4688 1.0781 1.7305 1.2383 0.84766 1.0195 0.71094 0.95703 1.0391 1.0234 0.42578 1.1016 1.3594 1.7227 0.23438 1.4883 1.3711 2.3828 0.54297 1.4141 1.4766 1.8008 0.66406 1.8516 0.80078 0.95703 0.42578 1.8125 1.0781 1.6719 0.67188 0.83984 0.54297 1.3242 0.63672 0.94531 0.81641 1.9922 0.46484 1 0.57422 1.1211 0.82422 1.543 1.6328 2.1523 1.8125 1.4883 0.6875 1.6719 0.28516 1.5938 0.91797 1.4766 0.81641 1.8242 0.19531 1.5664-0.39062 1.9062-0.17969 1.668-0.63672 2.0859-0.25781 1.8789-0.49219 1.1797-0.15625 1.2031-0.90625 2.1484-1.1406 2.0469v1.1914l-0.23047 3.1484 0.17969 1.7344 0.46875 1.2188 0.91797 1.2812 0.55469 1.0508 0.40234 1.4375 0.44141 1.1641 1.125 2.2539 0.50781 1.5273 2.4453 0.53125 1.0898 0.42578 0.94531 1.207 1.0234 0.75 1.7227 1.3711 1.668 2.1523 1.3086 1.2422 1.0898 1.2812 1.0469 2.4375 0.81641 0.91797 0.63672 1.0898 0.83984 2.1758 0.54297 3.3672-0.33594 2.0977-0.80078 2.0195-0.054688 1.5156 0.59375 2.5625 1.1953 3.1992 1.0234 1.4141 0.050781 1.2031 0.39062 1.918 0.050782 1.5391 0.42578 1.4648 1.4375 1.7891 0.39062 1.4492 0.078125 2.1758-0.58594 2.6523-0.4375 1.6719-0.22266 1.8672-0.4375 2.2383-0.44141 1.2969-0.48047 0.89062-0.33594 1.1094-0.59375 0.8125-0.99219 0.16797-0.89844 0.83203-4.5781 4.5508-4.1719 4.7578-1.9258 2.1953-2.9492 4.7852-2.3789 4.7188-1.3281 3.2773-4.0156 4.6406-0.84766 1.8594-1.5703 3.4453 0.93359 1.5586 0.11719 1.2891-0.27344 5.0312-0.46875 1.6367-0.027343 3.6875-0.007813 1.2266 0.30859 4.293 0.70312 2.1836 1.4453 1.9492 1.9883 1.9883 0.54688 2.6133-0.54688 2.1055 0.039062 2.1484 0.3125 3.9375-0.50781 1.0156-0.9375 2.6523-0.35156 2.3008 0.11328 2.5625 0.12109 2.7422 1.6406 6.0039 1.2852 3.1992 3.4336 4.4453 4.1328 5.6953 0.54688 2.1836-0.66406 2.8867-3.5117 8.543 0.9375 5.4062 0.65234 4.5156 1.1758 1.5703 1.2734 1.6953 1.6875 2.832 0.125 2.3477-0.11719 1.7188-1.832 4.0938-1.7148 2.2227-1.6328 1.4844-2.5938 1.1094-3.0117 2.1016-3.2109 2.7734-0.60156 2.2891 0.054688 2.5586 0.87109 1.6328 1.9883 1.7734 0.76562 1.2812 0.88672 1.8672 0.30859 1.6445-0.16406 1.5312-0.78516 1.0586-4.207 1.4805-4.5156 1.2539-3.1328 0.83203-3.5117 0.97656-2.875-0.33984-3.5586-1.3164-7.9023-4.1797-1.2461-0.24609-0.80078 2.8633 0.67969 2.0352 1.5469 3.1523-0.77734 0.70312-0.75 1.3594-0.84375 1.0352-0.50391 1.4766-1.0117 1.1914-1.4062 0.94531-0.67969 1.0742-1.7734 1.3633-1.0742 0.86719-0.79297 0.83984 0.19141 1.9336 0.10547 4.8047-2.1641 1.4141-0.99219 0.18359-1.4609 0.27344-3.4727-0.015625-8.6758-0.73438-7.6133-0.28906-1.707-0.125-1.0781-0.64062-1.2188-1.2617-0.52344-1.9062 0.57031-4.3906 0.42188-3.2266-0.25781-1.1484-1.418-0.53516-1.6016 0.39453-1.8125-0.32031-2.6797-0.47266-1.8008-1.0781-0.91406-1.1484-0.69922-2.7109-1.7109-10.25-0.30078-1.0586-1.2188-4.3008-1.0078-2.0156-2.4805-1.3789-3.9297-1.0781-2.7773-1.0547-1.4766-0.5625-5.082-2.1953-4.1914-1.5195-1.5-0.125-1.5859-0.12891-2.7188 0.089843-1.8711 0.58203-1.0977 0.070312-1.9688-0.39453-1.1445 0.27734-2.7891 0.14453-4.4531 1.6641-1.8516 1.8203-0.55859 3.2969 0.039062 2.9102-0.28906 2.4141-0.875 1.7891-2.4141 3.3281-2.1719 2.3711-1.4883 1.6211-1.6797 2.707-1.0625-0.50781-1.5273-0.32422-1.2461-0.73828-1.1094-0.46484-1.3438 0.14062-1.332 0.77734-2.2539 0.11719-0.98438-0.36328-0.83984-0.64844-0.89453-0.99609-0.89453-0.45312-1.4258-0.23438-1.3438-0.074218-0.98438-0.62109-0.78516-0.92578-1.4336-1.3398-0.60156-1.1562-0.92578-0.87891-1.3398-1.3398-1.3398-1.6641-0.69141-1.5234-0.55859-1.7578-0.50781-1.4336-1.1992-2.0312-0.41797-1.7109-0.69141-1.0195-0.97266-1.0625-0.96875-0.96875-1.1094-1.0664-0.92578-1.1992-0.27734-1.2969-0.23438-0.97266 0.050781-2.9531 0.59766-1.4336 0.09375-2.7266 0.41797-1.4336 1.0625-1.2031-0.14062-1.9414 0.23047-1.1094 1.1094-1.1562 0.55469-0.87891 0.53906-0.98438 0.58203-1.8242 0.25781-1.5039-0.54297-2.0586-0.16797-2.3047-0.54297-2.2266-0.027344-1.1289 0.046875-1.3438 0.10938-2.9688-0.57031-1.7344-0.81641-1.4883-0.97266-0.94531-1.6055-1.1406-0.95703-1.1641-2.0195-2.707-0.97266-1.5703-0.46484-1.5898-0.90625-1.3359-1.4141-2.2031-1.0078-1.2812-0.53125-1.7227 0.17969-1.1133-0.40234-1.6836-0.68359-1.2422-0.39062-1.0234-0.23438-1.0742-0.20703-2.1523 0.078125-1.0586 0.45312-1.1797 1.0742-0.59766 1.1133 0.16016-1.2344-1.4766-1.7734-1.1953-2.0781-1-1.3398-1.3711-1.6641-0.71094-2.3516-1-0.84766-0.76953-0.98828-1.7773-1.2109-9.1484-0.007812-1.0039-1.9414-4.1016-1.3242-0.86719-2.5117-1.6406-3.9766-3.543-1.7461-4.4297-1.5664-1.543-0.74609-0.73438-1.0938-1.0625-0.79297-0.76953-0.50781-1.1953-1.5234-3.5898-0.85547-2.8828-0.66406-2.5938-1.7188-3.0508-5.1602-4.8281-0.24609-2.1797-0.20312-1.8125 1.5586-3.0234 4.1836-8.1133 0.48047-3.8516-1.1094-1.8789-3.2227-2.5508-3.1641-3.5391-0.82812-0.92969-1.7266-3.2656-0.48047-1.3867-1.3086-3.7891-0.25781-1.2539 1.6328-1.2422 4.5586-2.2031 1.8906-0.77734 1.0234-0.59766 1.4102-0.89062-0.21094-1.0664-0.82031-1.6367-1.8867-1.6172-1.8125-0.50781-2.4258-0.6875-4.8203-1.0117-1.4922-0.3125-0.97266-0.40234-1.9648-0.8125-2.1523-0.88672-2.1953-0.88672-2.543-0.5-2.3789 0.14062-2.2539-0.86328-1.707-0.47266-2.7656 0.16406-3.6133 1.0469-1.5625 0.19922-1.2109-0.24609-3.7852-2.918-3.3906-2.7656-2.6797-2.7344-1.8867-1.0078-1.1406-0.60938-1.3516-0.47656-2.8281-0.99219-1.9414-1.6289-1.3359-2.1016-1.3477-1.4102-1.2852-0.19531-2.3008 1.0547-1.7109 1.6484-1.3398 0.97656-2.1289 0.074219-2.1523-0.65234-4.2461-0.8125-2.3906-1.332-0.70703-0.86328 2.168-4.5664 0.75781-1.5586 0.72266-1.4883 0.38281-1.0938 1.4961-1.4062 0.79688-1.1211 0.51562-1.082 0.90234-1.0195 1.2461-0.54297 1.5273-0.30078 1.625 0.10156 1.4492-0.30078 2.1484-1.1875 1.6875-0.58594 0.86328-0.51562 0.62109-1.2656 0.37109-1.0312 1.3125-1.75 2.3281-2.3906 2.4062-0.67188 3.6836-0.78516 3.6367-0.16406 2.9844-0.13281 3.6484-0.73828 2.0742-0.90625 3.2578-2.5 2.9766-3.2617 2.707-4.1328 2.2734-4.8203 1.418-1.5469 0.76562-0.83594 0.79297-0.86328 0.9375-1.918 0.57812-0.87891 1.8281-0.39453 2.7617 0.066406 1.1523-0.41406 2.293-3.2188 1.8672-4.3477 0.94531-1.5312 1.5625-0.60547 1.2227-0.47656 3.8711-4.2031 1.7461-2.6602 1.5-3.3711 0.76953-0.94141 2.8906-2.5117 4.8672-1.832 5.6172-1.1211 2.6602-0.082031 2.832 1.2891 2.4531 3.8281 1.3281 2.0703 6.4102 5.5 7.2383 3.4961 3.4297 0.64453 2.9766 0.80859 4.1172-0.039062 2.7305-0.68359 1.957-0.49219 2.6367-1.8633 1.582-0.5 9.6094-3.8672 3.2852-1.0391 1.9141-0.042968 2.7461-0.058594 2.1992-3.2109 1.0859-2.1328 1.0234-2.0117 0.47266-0.92969 1.5-5.1758 3.0039-5.9414 1.0078-0.83203 1.543-0.60547 1.2031-0.37891 1.1406-0.54297 1.8281 0.18359 1.332 0.72266 2.0586 0.039063 1.4648-0.81641 1.2539-1.6172 0.88281-0.54297 1.9805-1.8516 2.6133-4.8125 0.82031-1.2227 0.77734-0.71484 2.1602-1.3867 1.3867-0.50391 3.1875-1.5664 2.0586-1.4766 0.86719-0.99609 0.64844-1.0508 1.2305-0.71094 1.3867-0.50781 0.82812-0.78906 1.4375-0.26953 1.1758 0.25781 1.0195-0.12109 1.9727-1.4609 0.60938-0.83984 1.2812-0.86719 1.1406-0.20703 1.0117-0.63672 1.8125-1.668 0.91016-0.79297 1.0859-1.0859 4.4414-3.9648 0.63281-1.1367 1.0117-0.33984 2.8359 0.93359 2.4727 1.1641 1.0898 0.60938 0.76172 0.73828 1.4531 0.90625 2.4961 1.1797 1.1289 0.90625 0.91797 0.84375 1.6445 1.5898 1.1406 1.9297 0.48047 0.92188 0.87891 0.86719 1.6719 1.8242 1.2812 0.49219 0.91797-0.54297 0.57031-1.5352 1.3906-1.3672 0.67188-1.3672v-2.4336l0.53125-1.3203-0.39062-1.2773-0.11719-1.1562 0.90234-1.0898 0.39453-0.94922 0.76562-1.3242 0.41797-1.1328z" fill="#ccc" fill-rule="evenodd"/>
<path d="m430.46 10.281 0.011719 0.039063 0.14844 1.0938-0.60156 0.94922-0.41797 1.4844-0.67188 1.0664 0.34766 1.207 0.74219 1.2188 0.50781 1.375-0.30078 1.3203-0.09375 1.043-0.19922 1.2656-0.37109 0.97266 1.1719 0.89062 1.0195 1.1836 0.25781 1.3203v1.0898l1.8281 0.48438 1.4375 1.0664 1.9492 0.625 0.99609 1.2969 0.46094 0.92969 0.74219 0.85547 0.046875 1.1133 0.55469 1.4141 2.1094 0.20703 1.8086 0.64844 1.2891 1.4336 1.1211 1.7422 1.25 1.3438 1.4141 1.5547 0.97266 1.5742 0.58203 1.5742 0.82422 1.0117 0.79688 0.82031 1.9219 1.1133 1.4688 1.0781 1.7305 1.2383 0.84766 1.0195 0.71094 0.95703 1.0391 1.0234 0.42578 1.1016 1.3594 1.7227 0.23438 1.4883 1.3711 2.3828 0.54297 1.4141 1.4766 1.8008 0.66406 1.8516 0.80078 0.95703 0.42578 1.8125 1.0781 1.6719 0.67188 0.83984 0.54297 1.3242 0.63672 0.94531 0.81641 1.9922 0.46484 1 0.57422 1.1211 0.82422 1.543 1.6328 2.1523 1.8125 1.4883 0.6875 1.6719 0.28516 1.5938 0.91797 1.4766 0.81641 1.8242 0.19531 1.5664-0.39062 1.9062-0.17969 1.668-0.63672 2.0859-0.25781 1.8789-0.49219 1.1797-0.15625 1.2031-0.90625 2.1484-1.1406 2.0469v1.1914l-0.23047 3.1484 0.17969 1.7344 0.46875 1.2188 0.91797 1.2812 0.55469 1.0508 0.40234 1.4375 0.44141 1.1641 1.125 2.2539 0.50781 1.5273 2.4453 0.53125 1.0898 0.42578 0.94531 1.207 1.0234 0.75 1.7227 1.3711 1.668 2.1523 1.3086 1.2422 1.0898 1.2812 1.0469 2.4375 0.81641 0.91797 0.63672 1.0898 0.83984 2.1758 0.54297 3.3672-0.33594 2.0977-0.80078 2.0195-0.054688 1.5156 0.59375 2.5625 1.1953 3.1992 1.0234 1.4141 0.050781 1.2031 0.39062 1.918 0.050782 1.5391 0.42578 1.4648 1.4375 1.7891 0.39062 1.4492 0.078125 2.1758-0.58594 2.6523-0.4375 1.6719-0.22266 1.8672-0.4375 2.2383-0.44141 1.2969-0.48047 0.89062-0.33594 1.1094-0.59375 0.8125-0.99219 0.16797-0.89844 0.83203-4.5781 4.5508-4.1719 4.7578-1.9258 2.1953-2.9492 4.7852-2.3789 4.7188-1.3281 3.2773-4.0156 4.6406-0.84766 1.8594-1.5703 3.4453 0.93359 1.5586 0.11719 1.2891-0.27344 5.0312-0.46875 1.6367-0.027343 3.6875-0.007813 1.2266 0.30859 4.293 0.70312 2.1836 1.4453 1.9492 1.9883 1.9883 0.54688 2.6133-0.54688 2.1055 0.039062 2.1484 0.3125 3.9375-0.50781 1.0156-0.9375 2.6523-0.35156 2.3008 0.11328 2.5625 0.12109 2.7422 1.6406 6.0039 1.2852 3.1992 3.4336 4.4453 4.1328 5.6953 0.54688 2.1836-0.66406 2.8867-3.5117 8.543 0.9375 5.4062 0.65234 4.5156 1.1758 1.5703 1.2734 1.6953 1.6875 2.832 0.125 2.3477-0.11719 1.7188-1.832 4.0938-1.7148 2.2227-1.6328 1.4844-2.5938 1.1094-3.0117 2.1016-3.2109 2.7734-0.60156 2.2891 0.054688 2.5586 0.87109 1.6328 1.9883 1.7734 0.76562 1.2812 0.88672 1.8672 0.30859 1.6445-0.16406 1.5312-0.78516 1.0586-4.207 1.4805-4.5156 1.2539-3.1328 0.83203-3.5117 0.97656-2.875-0.33984-3.5586-1.3164-7.9023-4.1797-1.2461-0.24609-0.80078 2.8633 0.67969 2.0352 1.5469 3.1523-0.77734 0.70312-0.75 1.3594-0.84375 1.0352-0.50391 1.4766-1.0117 1.1914-1.4062 0.94531-0.67969 1.0742-1.7734 1.3633-1.0742 0.86719-0.79297 0.83984 0.19141 1.9336 0.10547 4.8047-2.1641 1.4141-0.99219 0.18359-1.4609 0.27344-3.4727-0.015625-8.6758-0.73438-7.6133-0.28906-1.707-0.125-1.0781-0.64062-1.2188-1.2617-0.52344-1.9062 0.57031-4.3906 0.42188-3.2266-0.25781-1.1484-1.418-0.53516-1.6016 0.39453-1.8125-0.32031-2.6797-0.47266-1.8008-1.0781-0.91406-1.1484-0.69922-2.7109-1.7109-10.25-0.30078-1.0586-1.2188-4.3008-1.0078-2.0156-2.4805-1.3789-3.9297-1.0781-2.7773-1.0547-1.4766-0.5625-5.082-2.1953-4.1914-1.5195-1.5-0.125-1.5859-0.12891-2.7188 0.089843-1.8711 0.58203-1.0977 0.070312-1.9688-0.39453-1.1445 0.27734-2.7891 0.14453-4.4531 1.6641-1.8516 1.8203-0.55859 3.2969 0.039062 2.9102-0.28906 2.4141-0.875 1.7891-2.4141 3.3281-2.1719 2.3711-1.4883 1.6211-1.6797 2.707-1.0625-0.50781-1.5273-0.32422-1.2461-0.73828-1.1094-0.46484-1.3438 0.14062-1.332 0.77734-2.2539 0.11719-0.98438-0.36328-0.83984-0.64844-0.89453-0.99609-0.89453-0.45312-1.4258-0.23438-1.3438-0.074218-0.98438-0.62109-0.78516-0.92578-1.4336-1.3398-0.60156-1.1562-0.92578-0.87891-1.3398-1.3398-1.3398-1.6641-0.69141-1.5234-0.55859-1.7578-0.50781-1.4336-1.1992-2.0312-0.41797-1.7109-0.69141-1.0195-0.97266-1.0625-0.96875-0.96875-1.1094-1.0664-0.92578-1.1992-0.27734-1.2969-0.23438-0.97266 0.050781-2.9531 0.59766-1.4336 0.09375-2.7266 0.41797-1.4336 1.0625-1.2031-0.14062-1.9414 0.23047-1.1094 1.1094-1.1562 0.55469-0.87891 0.53906-0.98438 0.58203-1.8242 0.25781-1.5039-0.54297-2.0586-0.16797-2.3047-0.54297-2.2266-0.027344-1.1289 0.046875-1.3438 0.10938-2.9688-0.57031-1.7344-0.81641-1.4883-0.97266-0.94531-1.6055-1.1406-0.95703-1.1641-2.0195-2.707-0.97266-1.5703-0.46484-1.5898-0.90625-1.3359-1.4141-2.2031-1.0078-1.2812-0.53125-1.7227 0.17969-1.1133-0.40234-1.6836-0.68359-1.2422-0.39062-1.0234-0.23438-1.0742-0.20703-2.1523 0.078125-1.0586 0.45312-1.1797 1.0742-0.59766 1.1133 0.16016-1.2344-1.4766-1.7734-1.1953-2.0781-1-1.3398-1.3711-1.6641-0.71094-2.3516-1-0.84766-0.76953-0.98828-1.7773-1.2109-9.1484-0.007812-1.0039-1.9414-4.1016-1.3242-0.86719-2.5117-1.6406-3.9766-3.543-1.7461-4.4297-1.5664-1.543-0.74609-0.73438-1.0938-1.0625-0.79297-0.76953-0.50781-1.1953-1.5234-3.5898-0.85547-2.8828-0.66406-2.5938-1.7188-3.0508-5.1602-4.8281-0.24609-2.1797-0.20312-1.8125 1.5586-3.0234 4.1836-8.1133 0.48047-3.8516-1.1094-1.8789-3.2227-2.5508-3.1641-3.5391-0.82812-0.92969-1.7266-3.2656-0.48047-1.3867-1.3086-3.7891-0.25781-1.2539 1.6328-1.2422 4.5586-2.2031 1.8906-0.77734 1.0234-0.59766 1.4102-0.89062-0.21094-1.0664-0.82031-1.6367-1.8867-1.6172-1.8125-0.50781-2.4258-0.6875-4.8203-1.0117-1.4922-0.3125-0.97266-0.40234-1.9648-0.8125-2.1523-0.88672-2.1953-0.88672-2.543-0.5-2.3789 0.14062-2.2539-0.86328-1.707-0.47266-2.7656 0.16406-3.6133 1.0469-1.5625 0.19922-1.2109-0.24609-3.7852-2.918-3.3906-2.7656-2.6797-2.7344-1.8867-1.0078-1.1406-0.60938-1.3516-0.47656-2.8281-0.99219-1.9414-1.6289-1.3359-2.1016-1.3477-1.4102-1.2852-0.19531-2.3008 1.0547-1.7109 1.6484-1.3398 0.97656-2.1289 0.074219-2.1523-0.65234-4.2461-0.8125-2.3906-1.332-0.70703-0.86328 2.168-4.5664 0.75781-1.5586 0.72266-1.4883 0.38281-1.0938 1.4961-1.4062 0.79688-1.1211 0.51562-1.082 0.90234-1.0195 1.2461-0.54297 1.5273-0.30078 1.625 0.10156 1.4492-0.30078 2.1484-1.1875 1.6875-0.58594 0.86328-0.51562 0.62109-1.2656 0.37109-1.0312 1.3125-1.75 2.3281-2.3906 2.4062-0.67188 3.6836-0.78516 3.6367-0.16406 2.9844-0.13281 3.6484-0.73828 2.0742-0.90625 3.2578-2.5 2.9766-3.2617 2.707-4.1328 2.2734-4.8203 1.418-1.5469 0.76562-0.83594 0.79297-0.86328 0.9375-1.918 0.57812-0.87891 1.8281-0.39453 2.7617 0.066406 1.1523-0.41406 2.293-3.2188 1.8672-4.3477 0.94531-1.5312 1.5625-0.60547 1.2227-0.47656 3.8711-4.2031 1.7461-2.6602 1.5-3.3711 0.76953-0.94141 2.8906-2.5117 4.8672-1.832 5.6172-1.1211 2.6602-0.082031 2.832 1.2891 2.4531 3.8281 1.3281 2.0703 6.4102 5.5 7.2383 3.4961 3.4297 0.64453 2.9766 0.80859 4.1172-0.039062 2.7305-0.68359 1.957-0.49219 2.6367-1.8633 1.582-0.5 9.6094-3.8672 3.2852-1.0391 1.9141-0.042968 2.7461-0.058594 2.1992-3.2109 1.0859-2.1328 1.0234-2.0117 0.47266-0.92969 1.5-5.1758 3.0039-5.9414 1.0078-0.83203 1.543-0.60547 1.2031-0.37891 1.1406-0.54297 1.8281 0.18359 1.332 0.72266 2.0586 0.039063 1.4648-0.81641 1.2539-1.6172 0.88281-0.54297 1.9805-1.8516 2.6133-4.8125 0.82031-1.2227 0.77734-0.71484 2.1602-1.3867 1.3867-0.50391 3.1875-1.5664 2.0586-1.4766 0.86719-0.99609 0.64844-1.0508 1.2305-0.71094 1.3867-0.50781 0.82812-0.78906 1.4375-0.26953 1.1758 0.25781 1.0195-0.12109 1.9727-1.4609 0.60938-0.83984 1.2812-0.86719 1.1406-0.20703 1.0117-0.63672 1.8125-1.668 0.91016-0.79297 1.0859-1.0859 4.4414-3.9648 0.63281-1.1367 1.0117-0.33984 2.8359 0.93359 2.4727 1.1641 1.0898 0.60938 0.76172 0.73828 1.4531 0.90625 2.4961 1.1797 1.1289 0.90625 0.91797 0.84375 1.6445 1.5898 1.1406 1.9297 0.48047 0.92188 0.87891 0.86719 1.6719 1.8242 1.2812 0.49219 0.91797-0.54297 0.57031-1.5352 1.3906-1.3672 0.67188-1.3672v-2.4336l0.53125-1.3203-0.39062-1.2773-0.11719-1.1562 0.90234-1.0898 0.39453-0.94922 0.76562-1.3242 0.41797-1.1328 0.51172 0.046875" fill="none" stroke="#fff" stroke-linecap="round" stroke-linejoin="round" stroke-miterlimit="10" stroke-width="2"/>
<path d="m179.93 131.33 4.6172 0.875 4.0781-0.56641 1.3672 0.41797 2.3906 1.332 4 0.76562 2.3984 0.69922 2.1289-0.074219 1.3398-0.97656 1.7109-1.6484 2.3008-1.0547 1.2852 0.19531 1.0273 0.91016 1.6562 2.6016 1.9414 1.6289 2.8281 0.99219 1.3516 0.47656 1.1406 0.60938 1.8867 1.0078 2.6797 2.7344 3.3906 2.7656 3.4531 2.6641 1.543 0.5 1.5625-0.19922 2.8789-0.83594 2.6367-0.32422 2.5703 0.42188 2.2539 0.86328 1.543-0.089843 3.3789 0.44922 2.1953 0.88672 2.1523 0.88672 1.6953 0.69922 1.2422 0.51562 1.4922 0.3125 4.8203 1.0117 2.4258 0.6875 1.8125 0.50781 1.8867 1.6172 0.73047 1.1953 0.30078 1.5078-1.4102 0.89062-1.0234 0.59766-1.8906 0.77734-4.5586 2.2031-1.2969 0.95703-0.078125 1.5391 1.3086 3.7891 0.48047 1.3867 1.7266 3.2656 0.82812 0.92969 3.1641 3.5391 3.2227 2.5508 1.1094 1.8789-0.48047 3.8516-4.1836 8.1133-1.5586 3.0234 0.20312 1.8125 0.14453 1.2656 5.2617 5.7422 1.7188 3.0508 0.60547 2.3711 0.61719 2.4023 1.8203 4.293 0.50781 1.1953 0.79297 0.76953 1.0938 1.0625 0.74609 0.73438 1.1758 1.1562 2.1367 4.8164 3.9766 3.543 2.5117 1.6406 1.3242 0.86719 1.9414 4.1016 0.007812 1.0039 1.2109 9.1484 0.98828 1.7773 0.84766 0.76953 1.7422 0.74219 2.2734 0.96875 1.3398 1.3711 2.0781 1 1.7734 1.1953 1.4688 1.5117-1.3477-0.19531-1.0742 0.59766-0.45312 1.1797-0.078125 1.0586 0.20703 2.1523 0.23438 1.0742 0.39062 1.0234 0.68359 1.2422 0.40234 1.6836-0.17969 1.1133 0.53125 1.7227 1.0078 1.2812 1.4141 2.2031 0.66016 0.80469 0.38672 1.3594 1.2969 2.332 2.0195 2.707 0.95703 1.1641 1.6055 1.1406 0.97266 0.94531 0.81641 1.4883 0.42578 1.0859 0.035156 3.6172-0.046875 1.3398 0.027344 1.1328 0.54297 2.2266 0.16797 2.3047 0.54297 2.0586-0.25781 1.5039-0.58203 1.8242-0.53906 0.98438-0.55469 0.87891-1.1094 1.1562-0.23047 1.1094 0.14062 1.0625-0.37109 1.4336-1.1094 2.082-0.09375 2.7266-0.59766 1.4336-0.09375 2.7734-0.64844 0.96875-0.60156 1.1562-1.4297 1.1562-0.74219 1.293-0.60156 1.7578-0.64453 1.7109-0.41797 1.0625-0.98828 0.73438-0.76562 0.92969-0.87891 0.50781-0.87891 1.5273-0.69531 1.293-1.0625 1.4336-0.83203 1.4336-0.60156 1.1094-0.27734 1.1094-0.96875 2.0781-0.69531 0.83203-1.707 0.50781-1.0195 0.92578-1.5703 0.64844-0.97266 0.32031-0.96875 0.41797-1.5039 1.7969-1.0898 1.2188-0.82812 1.707-1.3477 1.5938-0.33594 1.168 0.30859 2.4844-0.95703 2.0078-1.6562 1.9805-2.3984 1.6836-2.4336 0.15625-2.9141 1.3477-1.6445 0.21875-1.4375 0.3125-1.0234-0.24609-1.5781 0.10156-0.88672 1.0039-0.69141 1.5742-0.78906 0.83203-1.3867 1.293-1.1523 1.293-0.69531 1.0625-1.293 1.6641-0.87891 1.4336-0.92578 1.0625-1.9414 1.3867-1.5703 1.1562-1.1094 1.2031-1.5742 1.0703-0.93359 0.48047-2.2148 0.375-1.6172 0.63281-0.81641 0.58203-0.92188 0.50781-1.5508 0.53125-2.707 0.45312-1.1406 0.41406-1.9961 0.32422-1.0625 0.32422-1.3828 0.69922-1.9062 1.332-1.1523 0.27344-2.1484 1.2539-1.3359 0.66016-1.0078 0.96094-0.6875 2.3047-1.125 3.0156-0.40234 1.543-0.78906 1.7109-0.94922 1.4492-0.75391 1.9297-0.56641 1.9883-1.6992 3.9453-2.5039 2.9688-3.6797 0.85938-0.40234-1.3672-0.75391-0.69531-1.6758-0.39062-3-1.543-1.9297-2.1562-0.80469-3.5586-0.035156-1.3789-0.042969-1.6992 0.875-2.5859 0.09375-2.1758-2.4102-0.4375-2.2188-0.17188-5.4453-2.582-0.74609-1.8672-0.32031-1.2773 0.26562-1.3633 0.98047-1.6992 0.21484-1.1172 0.0625-4.1055 0.85547-3.0703 1.1562-2.3086 2.1445-4.2891-0.078125-1.3672-0.78125-0.97266-10.363-4.3086-1.8164-0.39453-1.7227-0.36328-2.0547-0.51172-1.4492-0.36328-2.2969-1.0078-0.90234-1.2773-0.19531-1.4492 0.38672-2.2852 1.7695-4.0742 0.39062-2.7227-0.46484-1.1328-1.2188-1.3047-2.4922-1.7969-1.625-1.6836-1.6875-2.7656-1.1719-2.6602-0.22656-1.7852 0.73047-0.97266 3.4922 0.074218 1.7773-0.30859 0.64844-0.89453 0.79297-3.7695 0.53906-1.6484 0.97266-2.2148 0.14453-1.1523-0.35938-2.1367-0.52734-2.1875 0.16797-3.168-0.26562-1.6328-0.91406-1.2227-1.4883-0.91406-1.3906-0.69531-3.2891-3.3594-1.4648-1.1055-1.4883-1.8984-0.24219-1.4375-0.67188-1.2266-2.4961-1.8242-0.86328-0.98438-0.21484-4.3438-0.38672-1.2266-2.3281-0.98438-2.1836-0.23828-1.6602-1.1133-1.7031-1.1406-1.3281-0.97656-1.0703-0.72656-1.7773 0.32812-1.1016 0.33203-1.4453 0.17578-2.6172-0.48047-2.0234-0.96484-1.6016-1.8438-1.1992-2.1602-1.2227-1.6602-1.4648-0.98438-2.1953-0.48828-1.8398-0.10938-1.0234-0.28125-3.4883-2.4102-1.8984-1.2227-1.4414-0.60156-1.1641-0.83203-1.0898-0.36719-2.1016-0.70703-1.5195-0.51172-5.3594-0.89453-1.7305-0.28906-1.582-0.74219-0.83203-0.96875-1.0898-2.25-1.0078-1.3672-1.6992-1.6836-1.543-1.2969-5.0273-4.4375-1.9336-3.3125-0.35547-1.0742-0.92969-2.8281 3.3867-1.4219 2.4961-1.7734 1.1641-1.9219 0.89844-1.4844 1.2695-0.57422 1.2695 0.50391 1.2148 0.007812 1.207-0.17578 1.8906-1.5742 1.1562-0.89844 3.0469-1.9219 1.918-1.457 1.918-1.4609 0.71875-2.2109 0.35938-1.1016 0.92578-0.91406 0.53906-1.0039 2.4922-4.6523 2.1055-0.32031 5.4688 0.41797 1.0703-0.24609 3.1484-0.73438 2.0586-0.85938 1.3672-0.57422 1.5625-0.99609 1.2812-1.918v-2.0469l-0.51172-1.6172-2.7656-4.3945-3.0898-4.9141-0.73438-0.89453-0.67188-0.82031-1.3359-1.6289-2.4883-3.0391-1.1406-0.79688-1.0273-0.71875-1.3945-1.625-0.74219-0.86328 0.46875-3.7109 0.98047-1.9609 1.6211-0.59766 2.832 0.10156 2.668-0.65625 1.2344-1.2773 1.0234-3.9648 0.76562-1.2773 2.5664-2.0742 4.3008-2.4453 1.1484-1.8359 0.38281-4.5156-1.7852-7.875 2.3633 0.11328 3.375-1.0898 0.85938-0.69531 2.1133-1.707 1.7461-3.1172 0.054687-5.6055 0.03125-2.7969 0.82812-3.1992 2.3906-4.2227 2.4375-5.0195 3.5781-6.4883 1.6719-1.1172 2.0703-0.67188z" fill="#ccc" fill-rule="evenodd"/>
<path d="m179.93 131.33 4.6172 0.875 4.0781-0.56641 1.3672 0.41797 2.3906 1.332 4 0.76562 2.3984 0.69922 2.1289-0.074219 1.3398-0.97656 1.7109-1.6484 2.3008-1.0547 1.2852 0.19531 1.0273 0.91016 1.6562 2.6016 1.9414 1.6289 2.8281 0.99219 1.3516 0.47656 1.1406 0.60938 1.8867 1.0078 2.6797 2.7344 3.3906 2.7656 3.4531 2.6641 1.543 0.5 1.5625-0.19922 2.8789-0.83594 2.6367-0.32422 2.5703 0.42188 2.2539 0.86328 1.543-0.089843 3.3789 0.44922 2.1953 0.88672 2.1523 0.88672 1.6953 0.69922 1.2422 0.51562 1.4922 0.3125 4.8203 1.0117 2.4258 0.6875 1.8125 0.50781 1.8867 1.6172 0.73047 1.1953 0.30078 1.5078-1.4102 0.89062-1.0234 0.59766-1.8906 0.77734-4.5586 2.2031-1.2969 0.95703-0.078125 1.5391 1.3086 3.7891 0.48047 1.3867 1.7266 3.2656 0.82812 0.92969 3.1641 3.5391 3.2227 2.5508 1.1094 1.8789-0.48047 3.8516-4.1836 8.1133-1.5586 3.0234 0.20312 1.8125 0.14453 1.2656 5.2617 5.7422 1.7188 3.0508 0.60547 2.3711 0.61719 2.4023 1.8203 4.293 0.50781 1.1953 0.79297 0.76953 1.0938 1.0625 0.74609 0.73438 1.1758 1.1562 2.1367 4.8164 3.9766 3.543 2.5117 1.6406 1.3242 0.86719 1.9414 4.1016 0.007812 1.0039 1.2109 9.1484 0.98828 1.7773 0.84766 0.76953 1.7422 0.74219 2.2734 0.96875 1.3398 1.3711 2.0781 1 1.7734 1.1953 1.4688 1.5117-1.3477-0.19531-1.0742 0.59766-0.45312 1.1797-0.078125 1.0586 0.20703 2.1523 0.23438 1.0742 0.39062 1.0234 0.68359 1.2422 0.40234 1.6836-0.17969 1.1133 0.53125 1.7227 1.0078 1.2812 1.4141 2.2031 0.66016 0.80469 0.38672 1.3594 1.2969 2.332 2.0195 2.707 0.95703 1.1641 1.6055 1.1406 0.97266 0.94531 0.81641 1.4883 0.42578 1.0859 0.035156 3.6172-0.046875 1.3398 0.027344 1.1328 0.54297 2.2266 0.16797 2.3047 0.54297 2.0586-0.25781 1.5039-0.58203 1.8242-0.53906 0.98438-0.55469 0.87891-1.1094 1.1562-0.23047 1.1094 0.14062 1.0625-0.37109 1.4336-1.1094 2.082-0.09375 2.7266-0.59766 1.4336-0.09375 2.7734-0.64844 0.96875-0.60156 1.1562-1.4297 1.1562-0.74219 1.293-0.60156 1.7578-0.64453 1.7109-0.41797 1.0625-0.98828 0.73438-0.76562 0.92969-0.87891 0.50781-0.87891 1.5273-0.69531 1.293-1.0625 1.4336-0.83203 1.4336-0.60156 1.1094-0.27734 1.1094-0.96875 2.0781-0.69531 0.83203-1.707 0.50781-1.0195 0.92578-1.5703 0.64844-0.97266 0.32031-0.96875 0.41797-1.5039 1.7969-1.0898 1.2188-0.82812 1.707-1.3477 1.5938-0.33594 1.168 0.30859 2.4844-0.95703 2.0078-1.6562 1.9805-2.3984 1.6836-2.4336 0.15625-2.9141 1.3477-1.6445 0.21875-1.4375 0.3125-1.0234-0.24609-1.5781 0.10156-0.88672 1.0039-0.69141 1.5742-0.78906 0.83203-1.3867 1.293-1.1523 1.293-0.69531 1.0625-1.293 1.6641-0.87891 1.4336-0.92578 1.0625-1.9414 1.3867-1.5703 1.1562-1.1094 1.2031-1.5742 1.0703-0.93359 0.48047-2.2148 0.375-1.6172 0.63281-0.81641 0.58203-0.92188 0.50781-1.5508 0.53125-2.707 0.45312-1.1406 0.41406-1.9961 0.32422-1.0625 0.32422-1.3828 0.69922-1.9062 1.332-1.1523 0.27344-2.1484 1.2539-1.3359 0.66016-1.0078 0.96094-0.6875 2.3047-1.125 3.0156-0.40234 1.543-0.78906 1.7109-0.94922 1.4492-0.75391 1.9297-0.56641 1.9883-1.6992 3.9453-2.5039 2.9688-3.6797 0.85938-0.40234-1.3672-0.75391-0.69531-1.6758-0.39062-3-1.543-1.9297-2.1562-0.80469-3.5586-0.035156-1.3789-0.042969-1.6992 0.875-2.5859 0.09375-2.1758-2.4102-0.4375-2.2188-0.17188-5.4453-2.582-0.74609-1.8672-0.32031-1.2773 0.26562-1.3633 0.98047-1.6992 0.21484-1.1172 0.0625-4.1055 0.85547-3.0703 1.1562-2.3086 2.1445-4.2891-0.078125-1.3672-0.78125-0.97266-10.363-4.3086-1.8164-0.39453-1.7227-0.36328-2.0547-0.51172-1.4492-0.36328-2.2969-1.0078-0.90234-1.2773-0.19531-1.4492 0.38672-2.2852 1.7695-4.0742 0.39062-2.7227-0.46484-1.1328-1.2188-1.3047-2.4922-1.7969-1.625-1.6836-1.6875-2.7656-1.1719-2.6602-0.22656-1.7852 0.73047-0.97266 3.4922 0.074218 1.7773-0.30859 0.64844-0.89453 0.79297-3.7695 0.53906-1.6484 0.97266-2.2148 0.14453-1.1523-0.35938-2.1367-0.52734-2.1875 0.16797-3.168-0.26562-1.6328-0.91406-1.2227-1.4883-0.91406-1.3906-0.69531-3.2891-3.3594-1.4648-1.1055-1.4883-1.8984-0.24219-1.4375-0.67188-1.2266-2.4961-1.8242-0.86328-0.98438-0.21484-4.3438-0.38672-1.2266-2.3281-0.98438-2.1836-0.23828-1.6602-1.1133-1.7031-1.1406-1.3281-0.97656-1.0703-0.72656-1.7773 0.32812-1.1016 0.33203-1.4453 0.17578-2.6172-0.48047-2.0234-0.96484-1.6016-1.8438-1.1992-2.1602-1.2227-1.6602-1.4648-0.98438-2.1953-0.48828-1.8398-0.10938-1.0234-0.28125-3.4883-2.4102-1.8984-1.2227-1.4414-0.60156-1.1641-0.83203-1.0898-0.36719-2.1016-0.70703-1.5195-0.51172-5.3594-0.89453-1.7305-0.28906-1.582-0.74219-0.83203-0.96875-1.0898-2.25-1.0078-1.3672-1.6992-1.6836-1.543-1.2969-5.0273-4.4375-1.9336-3.3125-0.35547-1.0742-0.92969-2.8281 3.3867-1.4219 2.4961-1.7734 1.1641-1.9219 0.89844-1.4844 1.2695-0.57422 1.2695 0.50391 1.2148 0.007812 1.207-0.17578 1.8906-1.5742 1.1562-0.89844 3.0469-1.9219 1.918-1.457 1.918-1.4609 0.71875-2.2109 0.35938-1.1016 0.92578-0.91406 0.53906-1.0039 2.4922-4.6523 2.1055-0.32031 5.4688 0.41797 1.0703-0.24609 3.1484-0.73438 2.0586-0.85938 1.3672-0.57422 1.5625-0.99609 1.2812-1.918v-2.0469l-0.51172-1.6172-2.7656-4.3945-3.0898-4.9141-0.73438-0.89453-0.67188-0.82031-1.3359-1.6289-2.4883-3.0391-1.1406-0.79688-1.0273-0.71875-1.3945-1.625-0.74219-0.86328 0.46875-3.7109 0.98047-1.9609 1.6211-0.59766 2.832 0.10156 2.668-0.65625 1.2344-1.2773 1.0234-3.9648 0.76562-1.2773 2.5664-2.0742 4.3008-2.4453 1.1484-1.8359 0.38281-4.5156-1.7852-7.875 2.3633 0.11328 3.375-1.0898 0.85938-0.69531 2.1133-1.707 1.7461-3.1172 0.054687-5.6055 0.03125-2.7969 0.82812-3.1992 2.3906-4.2227 2.4375-5.0195 3.5781-6.4883 1.6719-1.1172 2.0703-0.67188 3.9961 0.375" fill="none" stroke="#fff" stroke-linecap="round" stroke-linejoin="round" stroke-miterlimit="10" stroke-width="2"/>
<path d="m33.625 96.379 1.9922 0.59766 2.2812 1.1016 1.8516 0.54297 1.0352 0.44141 2.7969 1.7734 1.1914 0.41406 1.4375 0.98438 1.4766 0.27344 2.1758 1.8359 1.8789 0.64844 2.5508-0.87891 2.2266-0.80469 1.1797-1.1172 2.3516-1.9297 1.0742-0.40234 1.4453 0.47266 3.9336 5.3086 1.0312 0.38281 2.7695-0.058594 1.6406 0.78125 1.0508 1.1289 0.75 1.6523 2.2969 5.0586 0.84375 1.0625 1.0742 0.17188 4.1914-0.18359 1.2891 0.42188 2.582 1.7617 4.1758 2.8477 2.1836 1.3281 6.2383 2.418 1.0391 0.82422 0.80859 0.64453 7.5859 3.7383 2.7148 2.3086 8.582 7.6758 3.0586 1.6211 4.0039 0.42188 4.6367 1.1406 6.0273 0.71094 3.5781 0.14453 2.9961 1.125 1.2461 2.9531 1.707 3.2031 1.293 2.4258-0.085938 4.3125-0.91406 2.6211 0.082031 2.832 0.97656 2.1758 1.6016 1.0273 1.7461 0.20312 1.1055 0.050781 1.7891 7.875-0.38281 4.5156-1.1484 1.8359-3.5391 1.832-3.3281 2.6875-0.76562 1.2773-1.0234 3.9648-1.2344 1.2773-2.668 0.65625-1.9414-0.070313-1.8359-0.0625-1.6562 2.5898-0.46875 3.7109 0.74219 0.86328 1.3945 1.625 1.0273 0.71875 1.1406 0.79688 2.4883 3.0391 1.3359 1.6289 0.67188 0.82031 0.73438 0.89453 3.0898 4.9141 2.7656 4.3945 0.51172 1.6172v2.0469l-1.2812 1.918-1.5625 0.99609-1.3672 0.57422-2.0586 0.85938-3.1484 0.73438-1.0703 0.24609-5.4688-0.41797-1.457-0.11328-3.1406 5.0859-0.53906 1.0039-0.92578 0.91406-0.35938 1.1016-0.71875 2.2109-1.918 1.4609-1.918 1.457-2.3281 1.5859-1.3047 0.70312-1.668 1.5508-2 0.73047-1.2148-0.007812-1.2695-0.50391-1.2695 0.57422-0.89844 1.4844-1.1641 1.9219-2.4961 1.7734-3.3867 1.4219-1.3086-2.4375-0.83984-0.57422-1.4648-0.72266-1.9453-0.67188-1.1055 0.21484-1.2852 1.2109-0.99219 1.3828-1.5898 1.1406-1.3281 1.5352-1.2617 1.4531-1.5586 1.8008-1.8242 1.418-1.8008 0.67188-2.4023 0.21484-1.7617-0.51562-1.1289-1.1602-1.2734-1.8633-2.7461-2.4062-5.4688-4.5508-1.2812-1.1406-2.6445-2.3516-1.0508-0.93359-4.7773-7.0625-0.90234-3.6602 0.61328-4.9141-0.73438-1.1836-1.5078-1.6445-0.67969-0.74219-1.1133-1.6094-0.20312-1.4297 0.37891-2.957 0.84766-2.8945-0.58594-2.0195-0.4375-2.2539-1.5195-1.3203-2.6055-0.10938-2.1055-0.55859-3.1289-2.5742-5.5898-5.3242-3.8594-3.3633-1.5195-2.3672-0.76172-2.5469-0.78906-1.2852-2.3398-1.9336-0.76172-2.25v-1.3477l-0.35156-1.6953-1.0625-1.6133-1.543-1.1641-1.9297-1.4648-0.67188-1.082-0.23438-1.8125-0.625-1.3555-0.82812-1.3711-0.91406-1.2812-2.5469-2.1367-1.0742-2.1641-0.82812-3.1875-0.61328-2.3711-0.35156-1.3438-0.80078-1.5586-1.1562-2.8008-0.9375-1.9609-3.0703-4.2969-2.168-4.6836-3.1289-3.9492-1.8711-5.4688-1.375-3.5391-2.0859-2.0117-0.81641-0.78906-1.0469-2.2891 0.058594-1.1719 1.2578-2.7461 0.49609-1.5508 0.70312-1.1719 0.94531-0.86719 0.89453-1.2188 1.0469-0.8125 1.5273-0.54688 1.1406-0.78906 0.94531-1.4492 1.6719-0.84375 0.67188-0.86719-0.42578-1.8008 0.11719-1.4883 0.91797-1.0117 0.80078-1.5078 0.21094-1.4688 0.26953-1.0586 0.45312-1.0547 0.71484-0.87891 1.2617-0.22656 1.4688-0.03125 1.2852 0.078125 2.043 0.19141h1.0391l1.8906-1.2305 0.92969-0.41406 1.4648-0.50391 1.6562-0.82812 0.92188-0.50781 1.3594-1.125 0.72656-0.99609 1.3203-1.207 1.1406-0.67188z" fill="#ccc" fill-rule="evenodd"/>
<path d="m33.625 96.379 1.9922 0.59766 2.2812 1.1016 1.8516 0.54297 1.0352 0.44141 2.7969 1.7734 1.1914 0.41406 1.4375 0.98438 1.4766 0.27344 2.1758 1.8359 1.8789 0.64844 2.5508-0.87891 2.2266-0.80469 1.1797-1.1172 2.3516-1.9297 1.0742-0.40234 1.4453 0.47266 3.9336 5.3086 1.0312 0.38281 2.7695-0.058594 1.6406 0.78125 1.0508 1.1289 0.75 1.6523 2.2969 5.0586 0.84375 1.0625 1.0742 0.17188 4.1914-0.18359 1.2891 0.42188 2.582 1.7617 4.1758 2.8477 2.1836 1.3281 6.2383 2.418 1.0391 0.82422 0.80859 0.64453 7.5859 3.7383 2.7148 2.3086 8.582 7.6758 3.0586 1.6211 4.0039 0.42188 4.6367 1.1406 6.0273 0.71094 3.5781 0.14453 2.9961 1.125 1.2461 2.9531 1.707 3.2031 1.293 2.4258-0.085938 4.3125-0.91406 2.6211 0.082031 2.832 0.97656 2.1758 1.6016 1.0273 1.7461 0.20312 1.1055 0.050781 1.7891 7.875-0.38281 4.5156-1.1484 1.8359-3.5391 1.832-3.3281 2.6875-0.76562 1.2773-1.0234 3.9648-1.2344 1.2773-2.668 0.65625-1.9414-0.070313-1.8359-0.0625-1.6562 2.5898-0.46875 3.7109 0.74219 0.86328 1.3945 1.625 1.0273 0.71875 1.1406 0.79688 2.4883 3.0391 1.3359 1.6289 0.67188 0.82031 0.73438 0.89453 3.0898 4.9141 2.7656 4.3945 0.51172 1.6172v2.0469l-1.2812 1.918-1.5625 0.99609-1.3672 0.57422-2.0586 0.85938-3.1484 0.73438-1.0703 0.24609-5.4688-0.41797-1.457-0.11328-3.1406 5.0859-0.53906 1.0039-0.92578 0.91406-0.35938 1.1016-0.71875 2.2109-1.918 1.4609-1.918 1.457-2.3281 1.5859-1.3047 0.70312-1.668 1.5508-2 0.73047-1.2148-0.007812-1.2695-0.50391-1.2695 0.57422-0.89844 1.4844-1.1641 1.9219-2.4961 1.7734-3.3867 1.4219-1.3086-2.4375-0.83984-0.57422-1.4648-0.72266-1.9453-0.67188-1.1055 0.21484-1.2852 1.2109-0.99219 1.3828-1.5898 1.1406-1.3281 1.5352-1.2617 1.4531-1.5586 1.8008-1.8242 1.418-1.8008 0.67188-2.4023 0.21484-1.7617-0.51562-1.1289-1.1602-1.2734-1.8633-2.7461-2.4062-5.4688-4.5508-1.2812-1.1406-2.6445-2.3516-1.0508-0.93359-4.7773-7.0625-0.90234-3.6602 0.61328-4.9141-0.73438-1.1836-1.5078-1.6445-0.67969-0.74219-1.1133-1.6094-0.20312-1.4297 0.37891-2.957 0.84766-2.8945-0.58594-2.0195-0.4375-2.2539-1.5195-1.3203-2.6055-0.10938-2.1055-0.55859-3.1289-2.5742-5.5898-5.3242-3.8594-3.3633-1.5195-2.3672-0.76172-2.5469-0.78906-1.2852-2.3398-1.9336-0.76172-2.25v-1.3477l-0.35156-1.6953-1.0625-1.6133-1.543-1.1641-1.9297-1.4648-0.67188-1.082-0.23438-1.8125-0.625-1.3555-0.82812-1.3711-0.91406-1.2812-2.5469-2.1367-1.0742-2.1641-0.82812-3.1875-0.61328-2.3711-0.35156-1.3438-0.80078-1.5586-1.1562-2.8008-0.9375-1.9609-3.0703-4.2969-2.168-4.6836-3.1289-3.9492-1.8711-5.4688-1.375-3.5391-2.0859-2.0117-0.81641-0.78906-1.0469-2.2891 0.058594-1.1719 1.2578-2.7461 0.49609-1.5508 0.70312-1.1719 0.94531-0.86719 0.89453-1.2188 1.0469-0.8125 1.5273-0.54688 1.1406-0.78906 0.94531-1.4492 1.6719-0.84375 0.67188-0.86719-0.42578-1.8008 0.11719-1.4883 0.91797-1.0117 0.80078-1.5078 0.21094-1.4688 0.26953-1.0586 0.45312-1.0547 0.71484-0.87891 1.2617-0.22656 1.4688-0.03125 1.2852 0.078125 2.043 0.19141h1.0391l1.8906-1.2305 0.92969-0.41406 1.4648-0.50391 1.6562-0.82812 0.92188-0.50781 1.3594-1.125 0.72656-0.99609 1.3203-1.207 1.1406-0.67188 0.69922-0.10547" fill="none" stroke="#fff" stroke-linecap="round" stroke-linejoin="round" stroke-miterlimit="10" stroke-width="2"/>
<path d="m179.93 131.33 4.6172 0.875 4.0781-0.56641 1.3672 0.41797 2.3906 1.332 4 0.76562 2.3984 0.69922 2.1289-0.074219 1.3398-0.97656 1.7109-1.6484 2.3008-1.0547 1.2852 0.19531 1.0273 0.91016 1.6562 2.6016 1.9414 1.6289 2.8281 0.99219 1.3516 0.47656 1.1406 0.60938 1.8867 1.0078 2.6797 2.7344 3.3906 2.7656 3.4531 2.6641 1.543 0.5 1.5625-0.19922 2.8789-0.83594 2.6367-0.32422 2.5703 0.42188 2.2539 0.86328 1.543-0.089843 3.3789 0.44922 2.1953 0.88672 2.1523 0.88672 1.6953 0.69922 1.2422 0.51562 1.4922 0.3125 4.8203 1.0117 2.4258 0.6875 1.8125 0.50781 1.8867 1.6172 0.73047 1.1953 0.30078 1.5078-1.4102 0.89062-1.0234 0.59766-1.8906 0.77734-4.5586 2.2031-1.2969 0.95703-0.078125 1.5391 1.3086 3.7891 0.48047 1.3867 1.7266 3.2656 0.82812 0.92969 3.1641 3.5391 3.2227 2.5508 1.1094 1.8789-0.48047 3.8516-4.1836 8.1133-1.5586 3.0234 0.20312 1.8125 0.14453 1.2656 5.2617 5.7422 1.7188 3.0508 0.60547 2.3711 0.61719 2.4023 1.8203 4.293 0.50781 1.1953 0.79297 0.76953 1.0938 1.0625 0.74609 0.73438 1.1758 1.1562 2.1367 4.8164 3.9766 3.543 2.5117 1.6406 1.3242 0.86719 1.9414 4.1016 0.007812 1.0039 1.2109 9.1484 0.98828 1.7773 0.84766 0.76953 1.7422 0.74219 2.2734 0.96875 1.3398 1.3711 2.0781 1 1.7734 1.1953 1.4688 1.5117-1.3477-0.19531-1.0742 0.59766-0.45312 1.1797-0.078125 1.0586 0.20703 2.1523 0.23438 1.0742 0.39062 1.0234 0.68359 1.2422 0.40234 1.6836-0.17969 1.1133 0.53125 1.7227 1.0078 1.2812 1.4141 2.2031 0.66016 0.80469 0.38672 1.3594 1.2969 2.332 2.0195 2.707 0.95703 1.1641 1.6055 1.1406 0.97266 0.94531 0.81641 1.4883 0.42578 1.0859 0.035156 3.6172-0.046875 1.3398 0.027344 1.1328 0.54297 2.2266 0.16797 2.3047 0.54297 2.0586-0.25781 1.5039-0.58203 1.8242-0.53906 0.98438-0.55469 0.87891-1.1094 1.1562-0.23047 1.1094 0.14062 1.0625-0.37109 1.4336-1.1094 2.082-0.09375 2.7266-0.59766 1.4336-0.09375 2.7734-0.64844 0.96875-0.60156 1.1562-1.4297 1.1562-0.74219 1.293-0.60156 1.7578-0.64453 1.7109-0.41797 1.0625-0.98828 0.73438-0.76562 0.92969-0.87891 0.50781-0.87891 1.5273-0.69531 1.293-1.0625 1.4336-0.83203 1.4336-0.60156 1.1094-0.27734 1.1094-0.96875 2.0781-0.69531 0.83203-1.707 0.50781-1.0195 0.92578-1.5703 0.64844-0.97266 0.32031-0.96875 0.41797-1.5039 1.7969-1.0898 1.2188-0.82812 1.707-1.3477 1.5938-0.33594 1.168 0.30859 2.4844-0.95703 2.0078-1.6562 1.9805-2.3984 1.6836-2.4336 0.15625-2.9141 1.3477-1.6445 0.21875-1.4375 0.3125-1.0234-0.24609-1.5781 0.10156-0.88672 1.0039-0.69141 1.5742-0.78906 0.83203-1.3867 1.293-1.1523 1.293-0.69531 1.0625-1.293 1.6641-0.87891 1.4336-0.92578 1.0625-1.9414 1.3867-1.5703 1.1562-1.1094 1.2031-1.5742 1.0703-0.93359 0.48047-2.2148 0.375-1.6172 0.63281-0.81641 0.58203-0.92188 0.50781-1.5508 0.53125-2.707 0.45312-1.1406 0.41406-1.9961 0.32422-1.0625 0.32422-1.3828 0.69922-1.9062 1.332-1.1523 0.27344-2.1484 1.2539-1.3359 0.66016-1.0078 0.96094-0.6875 2.3047-1.125 3.0156-0.40234 1.543-0.78906 1.7109-0.94922 1.4492-0.75391 1.9297-0.56641 1.9883-1.6992 3.9453-2.5039 2.9688-3.6797 0.85938-0.40234-1.3672-0.75391-0.69531-1.6758-0.39062-3-1.543-1.9297-2.1562-0.80469-3.5586-0.035156-1.3789-0.042969-1.6992 0.875-2.5859 0.09375-2.1758-2.4102-0.4375-2.2188-0.17188-5.4453-2.582-0.74609-1.8672-0.32031-1.2773 0.26562-1.3633 0.98047-1.6992 0.21484-1.1172 0.0625-4.1055 0.85547-3.0703 1.1562-2.3086 2.1445-4.2891-0.078125-1.3672-0.78125-0.97266-10.363-4.3086-1.8164-0.39453-1.7227-0.36328-2.0547-0.51172-1.4492-0.36328-2.2969-1.0078-0.90234-1.2773-0.19531-1.4492 0.38672-2.2852 1.7695-4.0742 0.39062-2.7227-0.46484-1.1328-1.2188-1.3047-2.4922-1.7969-1.625-1.6836-1.6875-2.7656-1.1719-2.6602-0.22656-1.7852 0.73047-0.97266 3.4922 0.074218 1.7773-0.30859 0.64844-0.89453 0.79297-3.7695 0.53906-1.6484 0.97266-2.2148 0.14453-1.1523-0.35938-2.1367-0.52734-2.1875 0.16797-3.168-0.26562-1.6328-0.91406-1.2227-1.4883-0.91406-1.3906-0.69531-3.2891-3.3594-1.4648-1.1055-1.4883-1.8984-0.24219-1.4375-0.67188-1.2266-2.4961-1.8242-0.86328-0.98438-0.21484-4.3438-0.38672-1.2266-2.3281-0.98438-2.1836-0.23828-1.6602-1.1133-1.7031-1.1406-1.3281-0.97656-1.0703-0.72656-1.7773 0.32812-1.1016 0.33203-1.4453 0.17578-2.6172-0.48047-2.0234-0.96484-1.6016-1.8438-1.1992-2.1602-1.2227-1.6602-1.4648-0.98438-2.1953-0.48828-1.8398-0.10938-1.0234-0.28125-3.4883-2.4102-1.8984-1.2227-1.4414-0.60156-1.1641-0.83203-1.0898-0.36719-2.1016-0.70703-1.5195-0.51172-5.3594-0.89453-1.7305-0.28906-1.582-0.74219-0.83203-0.96875-1.0898-2.25-1.0078-1.3672-1.6992-1.6836-1.543-1.2969-5.0273-4.4375-1.9336-3.3125-0.35547-1.0742-0.92969-2.8281 3.3867-1.4219 2.4961-1.7734 1.1641-1.9219 0.89844-1.4844 1.2695-0.57422 1.2695 0.50391 1.2148 0.007812 1.207-0.17578 1.8906-1.5742 1.1562-0.89844 3.0469-1.9219 1.918-1.457 1.918-1.4609 0.71875-2.2109 0.35938-1.1016 0.92578-0.91406 0.53906-1.0039 2.4922-4.6523 2.1055-0.32031 5.4688 0.41797 1.0703-0.24609 3.1484-0.73438 2.0586-0.85938 1.3672-0.57422 1.5625-0.99609 1.2812-1.918v-2.0469l-0.51172-1.6172-2.7656-4.3945-3.0898-4.9141-0.73438-0.89453-0.67188-0.82031-1.3359-1.6289-2.4883-3.0391-1.1406-0.79688-1.0273-0.71875-1.3945-1.625-0.74219-0.86328 0.46875-3.7109 0.98047-1.9609 1.6211-0.59766 2.832 0.10156 2.668-0.65625 1.2344-1.2773 1.0234-3.9648 0.76562-1.2773 2.5664-2.0742 4.3008-2.4453 1.1484-1.8359 0.38281-4.5156-1.7852-7.875 2.3633 0.11328 3.375-1.0898 0.85938-0.69531 2.1133-1.707 1.7461-3.1172 0.054687-5.6055 0.03125-2.7969 0.82812-3.1992 2.3906-4.2227 2.4375-5.0195 3.5781-6.4883 1.6719-1.1172 2.0703-0.67188z" fill="#0a5394" fill-rule="evenodd"/>
<path d="m179.93 131.33 4.6172 0.875 4.0781-0.56641 1.3672 0.41797 2.3906 1.332 4 0.76562 2.3984 0.69922 2.1289-0.074219 1.3398-0.97656 1.7109-1.6484 2.3008-1.0547 1.2852 0.19531 1.0273 0.91016 1.6562 2.6016 1.9414 1.6289 2.8281 0.99219 1.3516 0.47656 1.1406 0.60938 1.8867 1.0078 2.6797 2.7344 3.3906 2.7656 3.4531 2.6641 1.543 0.5 1.5625-0.19922 2.8789-0.83594 2.6367-0.32422 2.5703 0.42188 2.2539 0.86328 1.543-0.089843 3.3789 0.44922 2.1953 0.88672 2.1523 0.88672 1.6953 0.69922 1.2422 0.51562 1.4922 0.3125 4.8203 1.0117 2.4258 0.6875 1.8125 0.50781 1.8867 1.6172 0.73047 1.1953 0.30078 1.5078-1.4102 0.89062-1.0234 0.59766-1.8906 0.77734-4.5586 2.2031-1.2969 0.95703-0.078125 1.5391 1.3086 3.7891 0.48047 1.3867 1.7266 3.2656 0.82812 0.92969 3.1641 3.5391 3.2227 2.5508 1.1094 1.8789-0.48047 3.8516-4.1836 8.1133-1.5586 3.0234 0.20312 1.8125 0.14453 1.2656 5.2617 5.7422 1.7188 3.0508 0.60547 2.3711 0.61719 2.4023 1.8203 4.293 0.50781 1.1953 0.79297 0.76953 1.0938 1.0625 0.74609 0.73438 1.1758 1.1562 2.1367 4.8164 3.9766 3.543 2.5117 1.6406 1.3242 0.86719 1.9414 4.1016 0.007812 1.0039 1.2109 9.1484 0.98828 1.7773 0.84766 0.76953 1.7422 0.74219 2.2734 0.96875 1.3398 1.3711 2.0781 1 1.7734 1.1953 1.4688 1.5117-1.3477-0.19531-1.0742 0.59766-0.45312 1.1797-0.078125 1.0586 0.20703 2.1523 0.23438 1.0742 0.39062 1.0234 0.68359 1.2422 0.40234 1.6836-0.17969 1.1133 0.53125 1.7227 1.0078 1.2812 1.4141 2.2031 0.66016 0.80469 0.38672 1.3594 1.2969 2.332 2.0195 2.707 0.95703 1.1641 1.6055 1.1406 0.97266 0.94531 0.81641 1.4883 0.42578 1.0859 0.035156 3.6172-0.046875 1.3398 0.027344 1.1328 0.54297 2.2266 0.16797 2.3047 0.54297 2.0586-0.25781 1.5039-0.58203 1.8242-0.53906 0.98438-0.55469 0.87891-1.1094 1.1562-0.23047 1.1094 0.14062 1.0625-0.37109 1.4336-1.1094 2.082-0.09375 2.7266-0.59766 1.4336-0.09375 2.7734-0.64844 0.96875-0.60156 1.1562-1.4297 1.1562-0.74219 1.293-0.60156 1.7578-0.64453 1.7109-0.41797 1.0625-0.98828 0.73438-0.76562 0.92969-0.87891 0.50781-0.87891 1.5273-0.69531 1.293-1.0625 1.4336-0.83203 1.4336-0.60156 1.1094-0.27734 1.1094-0.96875 2.0781-0.69531 0.83203-1.707 0.50781-1.0195 0.92578-1.5703 0.64844-0.97266 0.32031-0.96875 0.41797-1.5039 1.7969-1.0898 1.2188-0.82812 1.707-1.3477 1.5938-0.33594 1.168 0.30859 2.4844-0.95703 2.0078-1.6562 1.9805-2.3984 1.6836-2.4336 0.15625-2.9141 1.3477-1.6445 0.21875-1.4375 0.3125-1.0234-0.24609-1.5781 0.10156-0.88672 1.0039-0.69141 1.5742-0.78906 0.83203-1.3867 1.293-1.1523 1.293-0.69531 1.0625-1.293 1.6641-0.87891 1.4336-0.92578 1.0625-1.9414 1.3867-1.5703 1.1562-1.1094 1.2031-1.5742 1.0703-0.93359 0.48047-2.2148 0.375-1.6172 0.63281-0.81641 0.58203-0.92188 0.50781-1.5508 0.53125-2.707 0.45312-1.1406 0.41406-1.9961 0.32422-1.0625 0.32422-1.3828 0.69922-1.9062 1.332-1.1523 0.27344-2.1484 1.2539-1.3359 0.66016-1.0078 0.96094-0.6875 2.3047-1.125 3.0156-0.40234 1.543-0.78906 1.7109-0.94922 1.4492-0.75391 1.9297-0.56641 1.9883-1.6992 3.9453-2.5039 2.9688-3.6797 0.85938-0.40234-1.3672-0.75391-0.69531-1.6758-0.39062-3-1.543-1.9297-2.1562-0.80469-3.5586-0.035156-1.3789-0.042969-1.6992 0.875-2.5859 0.09375-2.1758-2.4102-0.4375-2.2188-0.17188-5.4453-2.582-0.74609-1.8672-0.32031-1.2773 0.26562-1.3633 0.98047-1.6992 0.21484-1.1172 0.0625-4.1055 0.85547-3.0703 1.1562-2.3086 2.1445-4.2891-0.078125-1.3672-0.78125-0.97266-10.363-4.3086-1.8164-0.39453-1.7227-0.36328-2.0547-0.51172-1.4492-0.36328-2.2969-1.0078-0.90234-1.2773-0.19531-1.4492 0.38672-2.2852 1.7695-4.0742 0.39062-2.7227-0.46484-1.1328-1.2188-1.3047-2.4922-1.7969-1.625-1.6836-1.6875-2.7656-1.1719-2.6602-0.22656-1.7852 0.73047-0.97266 3.4922 0.074218 1.7773-0.30859 0.64844-0.89453 0.79297-3.7695 0.53906-1.6484 0.97266-2.2148 0.14453-1.1523-0.35938-2.1367-0.52734-2.1875 0.16797-3.168-0.26562-1.6328-0.91406-1.2227-1.4883-0.91406-1.3906-0.69531-3.2891-3.3594-1.4648-1.1055-1.4883-1.8984-0.24219-1.4375-0.67188-1.2266-2.4961-1.8242-0.86328-0.98438-0.21484-4.3438-0.38672-1.2266-2.3281-0.98438-2.1836-0.23828-1.6602-1.1133-1.7031-1.1406-1.3281-0.97656-1.0703-0.72656-1.7773 0.32812-1.1016 0.33203-1.4453 0.17578-2.6172-0.48047-2.0234-0.96484-1.6016-1.8438-1.1992-2.1602-1.2227-1.6602-1.4648-0.98438-2.1953-0.48828-1.8398-0.10938-1.0234-0.28125-3.4883-2.4102-1.8984-1.2227-1.4414-0.60156-1.1641-0.83203-1.0898-0.36719-2.1016-0.70703-1.5195-0.51172-5.3594-0.89453-1.7305-0.28906-1.582-0.74219-0.83203-0.96875-1.0898-2.25-1.0078-1.3672-1.6992-1.6836-1.543-1.2969-5.0273-4.4375-1.9336-3.3125-0.35547-1.0742-0.92969-2.8281 3.3867-1.4219 2.4961-1.7734 1.1641-1.9219 0.89844-1.4844 1.2695-0.57422 1.2695 0.50391 1.2148 0.007812 1.207-0.17578 1.8906-1.5742 1.1562-0.89844 3.0469-1.9219 1.918-1.457 1.918-1.4609 0.71875-2.2109 0.35938-1.1016 0.92578-0.91406 0.53906-1.0039 2.4922-4.6523 2.1055-0.32031 5.4688 0.41797 1.0703-0.24609 3.1484-0.73438 2.0586-0.85938 1.3672-0.57422 1.5625-0.99609 1.2812-1.918v-2.0469l-0.51172-1.6172-2.7656-4.3945-3.0898-4.9141-0.73438-0.89453-0.67188-0.82031-1.3359-1.6289-2.4883-3.0391-1.1406-0.79688-1.0273-0.71875-1.3945-1.625-0.74219-0.86328 0.46875-3.7109 0.98047-1.9609 1.6211-0.59766 2.832 0.10156 2.668-0.65625 1.2344-1.2773 1.0234-3.9648 0.76562-1.2773 2.5664-2.0742 4.3008-2.4453 1.1484-1.8359 0.38281-4.5156-1.7852-7.875 2.3633 0.11328 3.375-1.0898 0.85938-0.69531 2.1133-1.707 1.7461-3.1172 0.054687-5.6055 0.03125-2.7969 0.82812-3.1992 2.3906-4.2227 2.4375-5.0195 3.5781-6.4883 1.6719-1.1172 2.0703-0.67188 3.9961 0.375" fill="none" stroke="#fff" stroke-linecap="round" stroke-linejoin="round" stroke-miterlimit="10"/>
<path d="m215.69 275.56c0 3.5898-2.9102 6.5-6.5 6.5s-6.5-2.9102-6.5-6.5 2.9102-6.5 6.5-6.5 6.5 2.9102 6.5 6.5" fill="#28c028" fill-rule="evenodd" stroke="#000" stroke-linecap="round" stroke-linejoin="round" stroke-miterlimit="10"/>
<path d="m56.656 269.56v-16.469h3.3281v6.4844h6.5v-6.4844h3.3281v16.469h-3.3281v-7.2031h-6.5v7.2031zm16.578-16.469h3.3125v8.9219c0 1.418 0.039063 2.3359 0.125 2.75 0.14453 0.67969 0.48438 1.2188 1.0156 1.625 0.53906 0.40625 1.2734 0.60938 2.2031 0.60938 0.9375 0 1.6445-0.19141 2.125-0.57812 0.47656-0.38281 0.76562-0.85938 0.85938-1.4219 0.10156-0.5625 0.15625-1.4922 0.15625-2.7969v-9.1094h3.3281v8.6562c0 1.9688-0.09375 3.3672-0.28125 4.1875-0.17969 0.8125-0.50781 1.5-0.98438 2.0625-0.48047 0.5625-1.125 1.0117-1.9375 1.3438s-1.8711 0.5-3.1719 0.5c-1.5742 0-2.7656-0.18359-3.5781-0.54688s-1.4531-0.83203-1.9219-1.4062c-0.46875-0.58203-0.77734-1.1914-0.92188-1.8281-0.21875-0.94531-0.32812-2.3438-0.32812-4.1875zm31.469 16.469h-3.6094l-1.4375-3.7344h-6.5781l-1.3594 3.7344h-3.5312l6.4062-16.469h3.5156zm-6.1094-6.5156-2.2812-6.1094-2.2188 6.1094zm7.9688 6.5156v-16.328h3.3281v13.547h8.2656v2.7812zm21.609-6.0469v-2.7812h7.1719v6.5625c-0.69922 0.66797-1.7109 1.2617-3.0312 1.7812-1.3242 0.50781-2.6641 0.76562-4.0156 0.76562-1.7188 0-3.2188-0.35938-4.5-1.0781-1.2812-0.72656-2.2461-1.7656-2.8906-3.1094-0.64844-1.3438-0.96875-2.8008-0.96875-4.375 0-1.7188 0.35938-3.2422 1.0781-4.5781 0.71875-1.332 1.7695-2.3516 3.1562-3.0625 1.0625-0.55078 2.3789-0.82812 3.9531-0.82812 2.0391 0 3.6328 0.43359 4.7812 1.2969 1.1562 0.85547 1.8945 2.0391 2.2188 3.5469l-3.2969 0.625c-0.23047-0.8125-0.66797-1.4531-1.3125-1.9219-0.63672-0.46875-1.4336-0.70312-2.3906-0.70312-1.4609 0-2.6172 0.46484-3.4688 1.3906-0.85547 0.91797-1.2812 2.2812-1.2812 4.0938 0 1.9609 0.42969 3.4297 1.2969 4.4062 0.86328 0.96875 2.0039 1.4531 3.4219 1.4531 0.6875 0 1.3789-0.13281 2.0781-0.40625 0.70703-0.26953 1.3125-0.60156 1.8125-1v-2.0781zm25.078 6.0469h-3.6094l-1.4375-3.7344h-6.5781l-1.3594 3.7344h-3.5312l6.4062-16.469h3.5156zm-6.1094-6.5156-2.2812-6.1094-2.2188 6.1094zm12.203 6.5156v-6.9219l-6.0312-9.5469h3.8906l3.875 6.5156 3.7969-6.5156h3.8281l-6.0469 9.5625v6.9062zm10.344-8.125c0-1.6758 0.25-3.0859 0.75-4.2344 0.375-0.83203 0.88281-1.582 1.5312-2.25 0.64453-0.66406 1.3516-1.1602 2.125-1.4844 1.0312-0.4375 2.2188-0.65625 3.5625-0.65625 2.4141 0 4.3516 0.75781 5.8125 2.2656 1.457 1.5 2.1875 3.5938 2.1875 6.2812 0 2.6562-0.72656 4.7344-2.1719 6.2344-1.4375 1.5-3.3711 2.25-5.7969 2.25-2.4492 0-4.3984-0.74219-5.8438-2.2344-1.4375-1.5-2.1562-3.5547-2.1562-6.1719zm3.4219-0.125c0 1.8672 0.42969 3.2812 1.2969 4.25 0.86328 0.96094 1.957 1.4375 3.2812 1.4375 1.3203 0 2.4062-0.47266 3.25-1.4219 0.85156-0.95703 1.2812-2.3906 1.2812-4.2969 0-1.8945-0.41797-3.3047-1.25-4.2344-0.82422-0.92578-1.918-1.3906-3.2812-1.3906-1.375 0-2.4844 0.47656-3.3281 1.4219-0.83594 0.9375-1.25 2.3516-1.25 4.2344zm25.672 2.2031 3.2344 1.0156c-0.5 1.793-1.3281 3.125-2.4844 4-1.1484 0.875-2.6016 1.3125-4.3594 1.3125-2.1875 0-3.9844-0.74219-5.3906-2.2344-1.4062-1.5-2.1094-3.5469-2.1094-6.1406 0-2.7383 0.70312-4.8633 2.1094-6.375 1.4141-1.5195 3.2812-2.2812 5.5938-2.2812 2.0078 0 3.6445 0.60156 4.9062 1.7969 0.75 0.69922 1.3125 1.7109 1.6875 3.0312l-3.2969 0.78125c-0.19922-0.85156-0.60547-1.5234-1.2188-2.0156-0.61719-0.5-1.3672-0.75-2.25-0.75-1.2188 0-2.2109 0.4375-2.9688 1.3125-0.76172 0.875-1.1406 2.2969-1.1406 4.2656 0 2.0742 0.375 3.5547 1.125 4.4375 0.75 0.88672 1.7227 1.3281 2.9219 1.3281 0.88281 0 1.6445-0.28125 2.2812-0.84375 0.63281-0.5625 1.0859-1.4414 1.3594-2.6406zm0 0" fill="none" stroke="#fff" stroke-linecap="round" stroke-linejoin="round" stroke-miterlimit="10" stroke-width="2"/>
<path d="m56.656 269.56v-16.469h3.3281v6.4844h6.5v-6.4844h3.3281v16.469h-3.3281v-7.2031h-6.5v7.2031zm16.578-16.469h3.3125v8.9219c0 1.418 0.039063 2.3359 0.125 2.75 0.14453 0.67969 0.48438 1.2188 1.0156 1.625 0.53906 0.40625 1.2734 0.60938 2.2031 0.60938 0.9375 0 1.6445-0.19141 2.125-0.57812 0.47656-0.38281 0.76562-0.85938 0.85938-1.4219 0.10156-0.5625 0.15625-1.4922 0.15625-2.7969v-9.1094h3.3281v8.6562c0 1.9688-0.09375 3.3672-0.28125 4.1875-0.17969 0.8125-0.50781 1.5-0.98438 2.0625-0.48047 0.5625-1.125 1.0117-1.9375 1.3438s-1.8711 0.5-3.1719 0.5c-1.5742 0-2.7656-0.18359-3.5781-0.54688s-1.4531-0.83203-1.9219-1.4062c-0.46875-0.58203-0.77734-1.1914-0.92188-1.8281-0.21875-0.94531-0.32812-2.3438-0.32812-4.1875zm31.469 16.469h-3.6094l-1.4375-3.7344h-6.5781l-1.3594 3.7344h-3.5312l6.4062-16.469h3.5156zm-6.1094-6.5156-2.2812-6.1094-2.2188 6.1094zm7.9688 6.5156v-16.328h3.3281v13.547h8.2656v2.7812zm21.609-6.0469v-2.7812h7.1719v6.5625c-0.69922 0.66797-1.7109 1.2617-3.0312 1.7812-1.3242 0.50781-2.6641 0.76562-4.0156 0.76562-1.7188 0-3.2188-0.35938-4.5-1.0781-1.2812-0.72656-2.2461-1.7656-2.8906-3.1094-0.64844-1.3438-0.96875-2.8008-0.96875-4.375 0-1.7188 0.35938-3.2422 1.0781-4.5781 0.71875-1.332 1.7695-2.3516 3.1562-3.0625 1.0625-0.55078 2.3789-0.82812 3.9531-0.82812 2.0391 0 3.6328 0.43359 4.7812 1.2969 1.1562 0.85547 1.8945 2.0391 2.2188 3.5469l-3.2969 0.625c-0.23047-0.8125-0.66797-1.4531-1.3125-1.9219-0.63672-0.46875-1.4336-0.70312-2.3906-0.70312-1.4609 0-2.6172 0.46484-3.4688 1.3906-0.85547 0.91797-1.2812 2.2812-1.2812 4.0938 0 1.9609 0.42969 3.4297 1.2969 4.4062 0.86328 0.96875 2.0039 1.4531 3.4219 1.4531 0.6875 0 1.3789-0.13281 2.0781-0.40625 0.70703-0.26953 1.3125-0.60156 1.8125-1v-2.0781zm25.078 6.0469h-3.6094l-1.4375-3.7344h-6.5781l-1.3594 3.7344h-3.5312l6.4062-16.469h3.5156zm-6.1094-6.5156-2.2812-6.1094-2.2188 6.1094zm12.203 6.5156v-6.9219l-6.0312-9.5469h3.8906l3.875 6.5156 3.7969-6.5156h3.8281l-6.0469 9.5625v6.9062zm10.344-8.125c0-1.6758 0.25-3.0859 0.75-4.2344 0.375-0.83203 0.88281-1.582 1.5312-2.25 0.64453-0.66406 1.3516-1.1602 2.125-1.4844 1.0312-0.4375 2.2188-0.65625 3.5625-0.65625 2.4141 0 4.3516 0.75781 5.8125 2.2656 1.457 1.5 2.1875 3.5938 2.1875 6.2812 0 2.6562-0.72656 4.7344-2.1719 6.2344-1.4375 1.5-3.3711 2.25-5.7969 2.25-2.4492 0-4.3984-0.74219-5.8438-2.2344-1.4375-1.5-2.1562-3.5547-2.1562-6.1719zm3.4219-0.125c0 1.8672 0.42969 3.2812 1.2969 4.25 0.86328 0.96094 1.957 1.4375 3.2812 1.4375 1.3203 0 2.4062-0.47266 3.25-1.4219 0.85156-0.95703 1.2812-2.3906 1.2812-4.2969 0-1.8945-0.41797-3.3047-1.25-4.2344-0.82422-0.92578-1.918-1.3906-3.2812-1.3906-1.375 0-2.4844 0.47656-3.3281 1.4219-0.83594 0.9375-1.25 2.3516-1.25 4.2344zm25.672 2.2031 3.2344 1.0156c-0.5 1.793-1.3281 3.125-2.4844 4-1.1484 0.875-2.6016 1.3125-4.3594 1.3125-2.1875 0-3.9844-0.74219-5.3906-2.2344-1.4062-1.5-2.1094-3.5469-2.1094-6.1406 0-2.7383 0.70312-4.8633 2.1094-6.375 1.4141-1.5195 3.2812-2.2812 5.5938-2.2812 2.0078 0 3.6445 0.60156 4.9062 1.7969 0.75 0.69922 1.3125 1.7109 1.6875 3.0312l-3.2969 0.78125c-0.19922-0.85156-0.60547-1.5234-1.2188-2.0156-0.61719-0.5-1.3672-0.75-2.25-0.75-1.2188 0-2.2109 0.4375-2.9688 1.3125-0.76172 0.875-1.1406 2.2969-1.1406 4.2656 0 2.0742 0.375 3.5547 1.125 4.4375 0.75 0.88672 1.7227 1.3281 2.9219 1.3281 0.88281 0 1.6445-0.28125 2.2812-0.84375 0.63281-0.5625 1.0859-1.4414 1.3594-2.6406z" fill-rule="evenodd"/>
</g>
</svg>
