<?xml version="1.0" encoding="UTF-8"?>
<svg width="500pt" height="435pt" version="1.1" viewBox="0 0 500 435" xmlns="http://www.w3.org/2000/svg">
<g id="a">
<rect width="500" height="435" fill="none"/>
<path d="m210.62 323.45 4.4609 0.035156 5.2188 0.57422 5.4531 0.97656 5.9648 2.6953h2.1797l4.4766-1.4336 1.1875 0.58594 0.015625 2.3398 0.66797 1.9062 1.5703 1.0781 2.5273 0.91797 1.5469 1.2617 0.21094 1.6719-0.78125 1.4062-0.51953 0.9375-0.91797 2.582-0.054688 1.082-0.10547 2.043 2.2852 1.3516 2.4648 0.57422 2.9258 1.0898 1.0391 0.63672 1.4922 0.91406 0.73438 0.95703 0.85938 1.9531 0.1875 1.6953 0.22266 1.9922 0.64062 1.8711 1.418 1.293 1.5547 1.2539 1.8359 1.1445 1.3086 1.9023 0.58594 0.85156 1.1445 1.0898 0.87891 0.49609 1.7617 0.99609 2.5234 1.8359 3.9023 2.3555 4.9336 4.3008 1.2578 1.6562 0.25781 1.4648-0.25 1.1875-2.043 4.4883-1.4531 1.6836-0.98828 2.3203-2.0664 2.0234-2.582 1.6797-1.375 2.1523-0.47656 1.4297-5.1992-1.3516-30.391-7.9062-6.7188-1.75-4.6172-2.2695-12.43-6.1055-15.93-7.8203-9.7031-2.6289-13.715-2.043-6.332-2.6016-3.1523-0.97266-19.824-5.4883-21.902-6.0625 1.0859-2.1133 1.2031-1.1367 1.1797-1.1562 1.8555-1.2852 2.7656-0.97266 1.9648-0.82812 2.125-0.79688 2.2266-0.91016 1.0273-0.42188 3.7305-2.4609 0.85547-0.8125 1.4414-2.5977 0.50781-1.1328 0.76562-0.9375 1.5742-0.28125 2.918-0.21875 4.6914 1.5117 1.2539 0.40234 1.6133 0.35938 1.4961 0.027344 1.4297-0.20703h6.25l5.9375 0.66016 1.5117 0.16797 2.8828 0.375 0.98047-0.23828 1.3359-1.2422 2.7031-1.5078 2.5039-0.9375 1.6523-0.54688 1.1641-1.5352 0.125-1.0664 1.625 0.44531 1.7969-0.23047 1.1445 0.34375 0.83984 0.76953 1.2812 0.49609 3.6094 0.019531 5.5742-1.5156 1.875-0.50781 0.99609-0.26953 2.7695-1.0078 4.6289-1.0117z" fill="#ccc" fill-rule="evenodd"/>
<path d="m210.62 323.45 4.4609 0.035156 5.2188 0.57422 5.4531 0.97656 5.9648 2.6953h2.1797l4.4766-1.4336 1.1875 0.58594 0.015625 2.3398 0.66797 1.9062 1.5703 1.0781 2.5273 0.91797 1.5469 1.2617 0.21094 1.6719-0.78125 1.4062-0.51953 0.9375-0.91797 2.582-0.054688 1.082-0.10547 2.043 2.2852 1.3516 2.4648 0.57422 2.9258 1.0898 1.0391 0.63672 1.4922 0.91406 0.73438 0.95703 0.85938 1.9531 0.1875 1.6953 0.22266 1.9922 0.64062 1.8711 1.418 1.293 1.5547 1.2539 1.8359 1.1445 1.3086 1.9023 0.58594 0.85156 1.1445 1.0898 0.87891 0.49609 1.7617 0.99609 2.5234 1.8359 3.9023 2.3555 4.9336 4.3008 1.2578 1.6562 0.25781 1.4648-0.25 1.1875-2.043 4.4883-1.4531 1.6836-0.98828 2.3203-2.0664 2.0234-2.582 1.6797-1.375 2.1523-0.47656 1.4297-5.1992-1.3516-30.391-7.9062-6.7188-1.75-4.6172-2.2695-12.43-6.1055-15.93-7.8203-9.7031-2.6289-13.715-2.043-6.332-2.6016-3.1523-0.97266-19.824-5.4883-21.902-6.0625 1.0859-2.1133 1.2031-1.1367 1.1797-1.1562 1.8555-1.2852 2.7656-0.97266 1.9648-0.82812 2.125-0.79688 2.2266-0.91016 1.0273-0.42188 3.7305-2.4609 0.85547-0.8125 1.4414-2.5977 0.50781-1.1328 0.76562-0.9375 1.5742-0.28125 2.918-0.21875 4.6914 1.5117 1.2539 0.40234 1.6133 0.35938 1.4961 0.027344 1.4297-0.20703h6.25l5.9375 0.66016 1.5117 0.16797 2.8828 0.375 0.98047-0.23828 1.3359-1.2422 2.7031-1.5078 2.5039-0.9375 1.6523-0.54688 1.1641-1.5352 0.125-1.0664 1.625 0.44531 1.7969-0.23047 1.1445 0.34375 0.83984 0.76953 1.2812 0.49609 3.6094 0.019531 5.5742-1.5156 1.875-0.50781 0.99609-0.26953 2.7695-1.0078 4.6289-1.0117 0.93359 0.007813" fill="none" stroke="#fff" stroke-linecap="round" stroke-linejoin="round" stroke-miterlimit="10" stroke-width="2"/>
<path d="m107.1 338.64 4.1719 3.2461 7.5195 5.8633 21.902 6.0625 19.824 5.4883 2.4258 0.67188 7.0586 2.9023 13.715 2.043 9.7031 2.6289 15.93 7.8203 12.43 6.1055 4.6172 2.2695 6.7188 1.75 30.391 7.9062 5.1992 1.3516-0.35156 1.2539-0.28516 1.6523 0.5 2.293 0.50391 1.1719 0.45703 1.0703 1.0117 2.0352 0.82422 1.6523 1.0273 1.1016 1.3867 1.2891 1.7461 0.91016-0.98438 0.85547-1.0469 0.53906-1.8789-0.5-1.6172-0.85547-3.4688-0.14844-1.1406-0.050781-2.4023 0.16016-1.4883-0.40234-2.9727-1.2656-2.1797-0.49219-2.3906-0.16016-1.0234-0.16016-1.9609-0.71484-1.3281-0.019531-1.6875-1.3164-0.097656-1.7695-2.6016-1.4453-1.2891-0.35156-0.85156-0.64453-1.3789-0.84375-1.4844-0.25-0.86719 0.95312-1.3438 1.9922-1.1758 0.33984-2.543-1.0742-1.0156-0.21094-0.91406 0.42188-0.97266 0.86328-0.5625 1.5156-1.2852 0.38281-1.3594-0.76172-1.2734 0.28906-0.98438 0.81641-0.48438 1.3828-2.832-0.046875-1.1172-0.24219-1.5273-0.039063-1.4258 0.37109-1.2344 0.95312-0.97656 0.32031-1.0938 0.46484-0.98438 0.25-1.0039 0.69141-2.1992 1.168-1.0156 0.28125-1.4492-0.015625-1.5078 0.51953-1.2031 1.8008-1.168 1.6406-1.0703 1.3438-1.168 2.1328-0.20312 1.0664-0.066407 2.2031-0.88281 2.2266-0.14844 1.3555-0.58984 0.91797-1.2578-0.24609-1.1523-0.42578-1.9492 0.98047-1.4453-0.1875-0.91797-0.86719-1.1992-0.95703-1.3398-0.4375-0.45703-1.2227-0.53906-0.93359-1.6055-1.0039-2.3906 0.26172-1.5195 0.36328-2.457-1.2656-1.3047-0.35156-1.1719-0.54688-0.74219-0.86719-0.53125-1.1172-0.082031-1.1875-0.59766-1.1367-1.4375-0.36328-1.9883 1.2969-1.3867-0.32812-0.52344-1.1328-0.47656-1.7383-1.1953-0.57031-3.1992-1.9375-1.7148-0.58984-1.5938 0.58594-1.1953 0.64453-1.9883 0.72266-1.2422 0.45312-1.1758-0.019532-0.87891-0.66406-0.085938-1.3086 0.32422-1.0352 0.30859-1.8359-0.57031-1.5039-1.8672-1.0547-1.5039 0.17188-1.1367-0.53125-1.5117-1.1641-1.6289-2.2617-0.77734-1.4609 0.19141-2.1602 0.070313-1.6094-0.98047-1.6914-0.99219-0.69922-1.9492-1.2578-1.4414-0.78125-5.0977-4.2812-2.4922-2.4727-1.2656-1.1445-1.1914-1.418-0.77734-1.0352-0.82031-0.95312-0.78125-0.91016-0.91406-1.9023-2.0234-2.7852-1.1562-0.875-1.1992-1.0977-1.2852-1.793-0.33984-2.3242-0.72656-1.7969-0.1875-1.0273-0.55469-0.95312-1.1289-1.3633-0.82812-1.0039-0.91797-0.44922-1.0547-0.10156-1.0547 0.12891-1.3438 0.078125-1.4805-0.30469-2.1094-0.92578-0.97266-0.67188-1.5117-1.5508-0.83594-0.85547-1.9297-1.5391-1.4297-3.2734 0.38281-1.4688 1.1445-1.4688 0.54297-1.7031 0.03125-1.543 0.03125-1.7188-0.023438-1.9609-0.73438-0.86328-1.1602-1.8359-0.55469-0.98438z" fill="#ccc" fill-rule="evenodd"/>
<path d="m107.1 338.64 4.1719 3.2461 7.5195 5.8633 21.902 6.0625 19.824 5.4883 2.4258 0.67188 7.0586 2.9023 13.715 2.043 9.7031 2.6289 15.93 7.8203 12.43 6.1055 4.6172 2.2695 6.7188 1.75 30.391 7.9062 5.1992 1.3516-0.35156 1.2539-0.28516 1.6523 0.5 2.293 0.50391 1.1719 0.45703 1.0703 1.0117 2.0352 0.82422 1.6523 1.0273 1.1016 1.3867 1.2891 1.7461 0.91016-0.98438 0.85547-1.0469 0.53906-1.8789-0.5-1.6172-0.85547-3.4688-0.14844-1.1406-0.050781-2.4023 0.16016-1.4883-0.40234-2.9727-1.2656-2.1797-0.49219-2.3906-0.16016-1.0234-0.16016-1.9609-0.71484-1.3281-0.019531-1.6875-1.3164-0.097656-1.7695-2.6016-1.4453-1.2891-0.35156-0.85156-0.64453-1.3789-0.84375-1.4844-0.25-0.86719 0.95312-1.3438 1.9922-1.1758 0.33984-2.543-1.0742-1.0156-0.21094-0.91406 0.42188-0.97266 0.86328-0.5625 1.5156-1.2852 0.38281-1.3594-0.76172-1.2734 0.28906-0.98438 0.81641-0.48438 1.3828-2.832-0.046875-1.1172-0.24219-1.5273-0.039063-1.4258 0.37109-1.2344 0.95312-0.97656 0.32031-1.0938 0.46484-0.98438 0.25-1.0039 0.69141-2.1992 1.168-1.0156 0.28125-1.4492-0.015625-1.5078 0.51953-1.2031 1.8008-1.168 1.6406-1.0703 1.3438-1.168 2.1328-0.20312 1.0664-0.066407 2.2031-0.88281 2.2266-0.14844 1.3555-0.58984 0.91797-1.2578-0.24609-1.1523-0.42578-1.9492 0.98047-1.4453-0.1875-0.91797-0.86719-1.1992-0.95703-1.3398-0.4375-0.45703-1.2227-0.53906-0.93359-1.6055-1.0039-2.3906 0.26172-1.5195 0.36328-2.457-1.2656-1.3047-0.35156-1.1719-0.54688-0.74219-0.86719-0.53125-1.1172-0.082031-1.1875-0.59766-1.1367-1.4375-0.36328-1.9883 1.2969-1.3867-0.32812-0.52344-1.1328-0.47656-1.7383-1.1953-0.57031-3.1992-1.9375-1.7148-0.58984-1.5938 0.58594-1.1953 0.64453-1.9883 0.72266-1.2422 0.45312-1.1758-0.019532-0.87891-0.66406-0.085938-1.3086 0.32422-1.0352 0.30859-1.8359-0.57031-1.5039-1.8672-1.0547-1.5039 0.17188-1.1367-0.53125-1.5117-1.1641-1.6289-2.2617-0.77734-1.4609 0.19141-2.1602 0.070313-1.6094-0.98047-1.6914-0.99219-0.69922-1.9492-1.2578-1.4414-0.78125-5.0977-4.2812-2.4922-2.4727-1.2656-1.1445-1.1914-1.418-0.77734-1.0352-0.82031-0.95312-0.78125-0.91016-0.91406-1.9023-2.0234-2.7852-1.1562-0.875-1.1992-1.0977-1.2852-1.793-0.33984-2.3242-0.72656-1.7969-0.1875-1.0273-0.55469-0.95312-1.1289-1.3633-0.82812-1.0039-0.91797-0.44922-1.0547-0.10156-1.0547 0.12891-1.3438 0.078125-1.4805-0.30469-2.1094-0.92578-0.97266-0.67188-1.5117-1.5508-0.83594-0.85547-1.9297-1.5391-1.4297-3.2734 0.38281-1.4688 1.1445-1.4688 0.54297-1.7031 0.03125-1.543 0.03125-1.7188-0.023438-1.9609-0.73438-0.86328-1.1602-1.8359-0.55469-0.98438 0.45312 0.14453" fill="none" stroke="#fff" stroke-linecap="round" stroke-linejoin="round" stroke-miterlimit="10" stroke-width="2"/>
<path d="m376.52 8.375 1.3516 1.0742 1.1133 0.81641 0.54297 1.1719 0.10938 1.3711-1.1406 3.8867-0.74219 3.3242 0.30469 1.9219 1.0078 1.3555 0.95703 1.1289 2.1914 1.9102 1.3125 1.4727 1.5352 1.7578 0.96094 1.0547 0.70312 1.4727 0.03125 1.1523 0.035157 1.5352v1.7617l0.32031 1.8203 0.47656 1.4219 0.83984 1.3555 1.6562 1.5703 2.418 1.6953 1.3242 1.0586 2.207 1.6211 1.1562 1.2539 0.73047 1.6641 0.23438 2.3555 0.11719 1.8984 0.51562 3.6836-0.53516 2.5078v2.0117l0.86719 1.6406 0.11719 1.4297 0.25 1.2461 0.34766 1.4531 0.19141 4.0781 1.1992 5.4062 0.65234 2.4922 0.20312 1.7227 0.10938 1.2383-0.35938 1.9414-0.22656 1.6914 0.22266 1.2539-0.20703 2.043-0.30859 1.5781 0.078125 1.3828 0.14062 1.0781-0.13672 1.7148-0.070312 1.0195 0.51953 1.5742 1.125 1.3203 1.8125 1.5859 2.1133 1.2539 1.8125 0.95703 1.5859 0.75781 1.0898 0.26562 1.1211 0.03125 1.3984 0.21875 1.5469 0.49609 0.94922 0.375 1.2344 0.60938 0.84375 0.83984 0.64453 0.89453 0.82422 0.64453 1.1992 0.64453 1.7031 0.91406 1.6289-0.09375 1.8203-0.5625 1.0391-0.13672 1.7695 0.52734 0.71484 1.5v1.3945l-0.23828 1.1719-0.80469 1.793-0.011719 1.332 0.32031 1.1211-0.066406 1.8477-0.30469 1.7969-0.070313 1.4688 0.5 1.9688 0.66406 1.1094 1.0391 0.66406 1.3047 0.58984 1.0938 0.30469 1.3438-0.10938 1.4805-0.10156 2.3711 0.24219 0.96094 0.32031 0.83203 0.84766 0.015625 3.5234 0.42578 1.293 0.91797 1.0273 1.1367 0.57031 1.7461 0.66406 1.0508 0.90234 0.69531 0.81641 0.52734 1.4805-0.80078 1.457-1.0703 1.3359-0.52734 1.207 0.25391 1.7891 0.58203 1.4023 0.49219 2.1328 0.52344 2.2539 0.14844 1.1055 0.085938 1.4453-0.19531 1.625-0.58984 1.8086 0.10938 1.0898-0.51953 0.85938-0.59375 1.9688-0.089843 1.0234 0.28906 0.98438 0.80469 1.7188 1.1094 0.83984 1.3984 0.71484 1.1328 0.42969 1.9766 1.0508 1.3867 0.69922 1.625 0.82812 1.3867 1.3516 1.2383 1.6953 1.5273 0.55469 1.1406-0.50391 1.3633-0.66406 0.92188-0.50781 1.1133-0.61719 1.25 0.21484 1.1445 1.5664 1.5117 1.5781 2.5039 1.2148 1.6562 0.20703 1.3594-0.41406 1.4688 0.62891 0.80469 0.84375 0.89844 0.875 1.3242 1.3594 1.1016 0.51172 0.58203 0.99219-0.19922 1.2695-0.76953 1.7031-0.75 0.71484-0.92969 0.57812-1.0273 0.61328-1.3359 0.79688-1.3633 1.3047-0.82031 1.3906-0.55859 1.0625 0.089843 1.6484-0.125 1.3438-0.67969 1.2695-1.0039 1.5742-0.37891 1.6211-0.38672 1.2891-0.16797 1.0547 0.09375 1.3906v1.1641l0.050781 1.0391 0.14453 1.5195-0.14453 1.3984v2.0391l-0.14453 1.2891 0.15625 1.1523 0.37109 0.98047 0.60938 0.94922 1.832 0.92578 1.2422 0.59375 0.75 1.3242 0.25 1.3086-0.015625 1.0391-0.5 1.3945-0.64844 1.625-0.87891 2.1562-0.26953 1.3516-0.13672 2.3008 0.26172 1.3203 0.85547 0.90625 1.1211 1.082 1.1367 1.1758 1.3047 0.015625 1.6172-0.79688 1.5352 0.41797 1.3867 0.39453 1.0898-0.066406 1.043 0.30469 1.4648 0.73828 1.1211 0.42578 1.4922 0.99609 1.4961 1.4766 0.85156 1.3633 0.16016 2.1289-0.019532 1.7383 0.074219 1.5586 0.26562 1.1641 0.62891 1.3398 1.1094 1.5781 1.0391 0.78516 0.91016 0.51562 1.0234 0.61328 0.82422 1.0039 0.25 2.1992 1.1484 1.8828 0.72656 2.0117 0.03125 1.3555-0.45703 1.0352-0.21484 1.4141-0.33984 1.3438-0.39453 1.0938-0.42969 1.3242-0.94922 1.4141-1.0742 0.94922-0.10547 1.1797 0.57031 1.2109 0.42969 0.97266-0.089844 1.1992-1.1094 0.68359-1.5195 0.48047-0.28906 1.0391 0.46875 1.7734 0.41016 0.92969 0.55469 1.8789-0.21484 1.2891-0.375 1.0938-0.44922 0.98438-0.39453 1.2695-0.35547 1.1289-0.41406 1.7188-0.58984 1.0742-0.054687 1.3984 1.1914 0.80469 2.9414 0.44531 1.4414-0.035157 1.4102 0.17969 1.2891 0.51953 1.2148 1.3984-0.33984 1.4297-0.32031 1.0391-0.97266 0.75-0.85547 0.87109-0.67188 1.3047-0.76172 1.0586-2.2891 0.32812-0.89844 0.45703-0.95312 0.42578-1.1445 0.58594-1.0117 0.48438-0.99219 0.45312-1.7891 0.73828-0.98828 0.20703-1.3867 0.125-1.7188 1.0391-1.3203 0.42969-1.9453 0.94922-1.582 0.57031-0.99219 0.18359-1.2656 0.57812-1.7461-0.09375-1.4492-0.27734-1.25-0.011718-1.043 0.22266-1.4297 1.0938-1.7422 0.79297-1.9414-0.29688-0.83203-0.57812-2.0625-0.10547-1.9766 0.3125-1.0234 0.60156-2.1797-0.070312-1.0625 0.14453-2.3008 0.31641-1.3984 0.11328-1.1133 0.26953-0.90625 1.0469-0.99609 1.1172-1.0312 0.62891-1.1172 0.16016-1.1133 0.52344-1.9531-0.60547-1.4453-0.54688-1.7305-0.66016-2.0352-0.46875-1.1367 0.18359-1.9297-0.19141-1.5273-0.41406-0.94141-0.35156-1.3789-0.24219-1.6445-0.62109-1.3867-1.1172-1.8164-0.85547-1.2031-1-1.3477-1.1445-0.6875-0.75391-1.1758-0.42188-1.8984-0.36328-1.957-0.35156-1.1289-0.33594-1.0664-0.37109-0.55859-1.3555-0.14062-1.0625-0.75391-2.0508-0.94922-0.46484-1.1562-0.69531-0.85547-1.7148-0.46094-0.92188-1.7695-0.67969-1.1992-0.98828-1.6562-0.14453-1.1953 0.45703-2.5547 0.089844-1.7227 0.24609-1.1367 0.58984-0.45703 0.92188-0.88672 0.67578-0.99219-0.87109-1.1602 0.25781-1.5898 0.74609-1.1914 0.21094-1.6328-0.83594-1.6055-0.17969-1.3555 0.17969-1.7266 0.20703-1.0586-0.54297-1.0859-0.10547-0.96875 0.58594-1.1562 0.87109-1.5312 0.375-1.0547 0.76953-0.90625 1.918-0.54688 1.0195-1.1602 0.035157-1.5781-0.875-1.1641-1.1367-1.0547-1.9961-1.0977-0.66406-1.5156-0.86328-1.1367-0.36328-1.5742-0.75391-1.3164-0.66406-1.5781-0.35938-1.2461-0.44141-1.3555-1.7383-1.2578-1.5898-1.2031-1.5078-1.0352-0.5625-1.668-1.1133-1.0547-1.8281-1.5273-1.5664-0.58594-0.94531-1.0039-1.0742-1.2031-1.0977-1.6172-0.050782-2.7227-0.44141-1.4102-1.3242-1.1445-0.86719-1.7188-0.96094-1.7266-0.88672-1.125-0.75391-1.0156-0.32031-1.8672-0.38281-2.1016-1.043-1.0859-0.34375-1.4453-0.12109-1.2773 0.0625-1.5039-0.3125-0.79688-0.92188-0.60938-0.95703-1.2461-0.12109-1.0273 0.058594-1.1133-0.55859-0.92578-0.46875-1.8164 0.015625-0.90625 0.64453-0.78906 1.0547-1.4609 1.5859-0.8125 0.63281-1.0977 1.0469-1.0742 0.76172-1.207 1.2148-1.0547 0.73438-1.3242 1.2148-1.8398 1.3789-1.1445 0.61328-0.66406 1.1445-0.82422 1.0039-0.99219 0.19141-1.0039 0.38281-1.2266-0.79688-2.5039-0.95312-1.1133-0.50391-1.125-0.98438-2.2734-1.6367-2.6992-2.6211-1.5977-2.2695-0.82422-0.57422-1.0469-1.707-0.80078-1.0781-1.4375-1.4062-1.125-1.375-1.0273-0.97266-1.457-1.1758-2.6914-1.8086-0.97266-0.46484-1.2266-0.62109-1.0273-0.51172-1.0742-1.0781-1.3867-1.2617-0.69922-0.97656-0.87109-0.97656-0.82422-1.0156-0.75391-1.1523 0.1875-1.168 1.7266-2.1445 1.5898-3.5977 2.375-1.75 0.9375-1.3867 0.15625-1.3828-0.66797-1.2695-1.168-1.2148-1.2109-2.7578-0.89844-3.2266-0.47266-1.2266-1.4297-1.1797-1.2109-1.8867-0.69141-1.5586 0.42578-1.6562 0.46484-0.99219 0.44531-1.582-0.47266-1.4453-0.64453-0.82031-2.8789-0.125-1.8711-0.17188-1.2891-0.61328-0.81641-1.1797-0.96094-1.9375-2.8555-2.2734-0.24609-2.0664 0.41406-1.8164 0.39062-1.7188 0.19922-3.4883 0.21875-1.8516-0.49219-1.6172-0.91797-0.73047-1.7344-0.28906-1.3086 0.33984-2.043-0.42578-0.81641-0.73047-1.4609-2.0586-0.61328-1.6953-0.30469-1.168-0.62891-1.543 0.34375-1.1797 1.6797-1 0.5-1.6523-0.19531-1.7266-0.27734-2.2461-0.33594-1.3594 0.38672-1.1797 0.70312-2.0547-0.23828-1.0859-1.293-2.0938-0.44141-1.0703-3.2148-3.5703-1.0547-2.3164-0.55469-1.0859-0.99219-1.9414-0.95312-0.94922-1.5234-0.95312-1.5039-0.52734-0.90234-2.875-0.70703-2.0508-0.68359-1.2266-1.2422-1.8086-0.71484-2.0742-0.28906-1.1406-0.78516-1.5273-1.9219-2.1953-1.2266-2.2422-0.28516-1.9609-0.14453-1.0039-1.082-2.6328-0.60156-2.1797-0.19922-1.6523-0.24219-2.0664-1.25-1.7852-0.43359-1.8086 0.71484-4.5352 0.6875-0.96484 1.3945-0.39062 0.066407-1.5664-0.45312-1.9219-0.70312-1.4258-1.4258-1.8633-2.4453-1.9141-0.96875-1.3555-0.36328-3.4375-0.72656-1-1.1992 0.03125-1.5 0.042969-1.7422-0.81641-0.92188-0.65234 0.58203-2.3477 0.19531-0.99219-1.0469-1.4453-3.5547-1.7031-3.2539-1.5586-1.2461-0.59375-1.332-1.7188-0.33984-1.4297v-2.7109l-0.26562-2.0312-0.85547-1.832 0.88672-0.69531 1.0625-1.3906 0.14453-2.3594 0.078125-1.3164 0.33984-2.0664 0.89844-1.6016 0.69141-1.2344 1.3789-2.0391 1.1953-1.4492 0.78125-1.6562 1.9609-1.9688 0.92578-0.43359 1.5664-0.35938 2.5898 0.45312 1.5508 0.48047 1.5469 0.86328 1.1328 0.19922 0.98438 0.26172 1.7383 0.019531 1.1758 0.14062 2.1992 0.48438 1.8711 0.15234 2.7539 0.67969 1.0547 0.53516 1.5977 0.097656 3.0508 0.12109 1.0078-0.019532 1.707-0.51172 3.0625-2.0703 1.0664-1.2148 2.4609-0.22266 2.7031 2.0312 1.668 0.50391 1.6484 1.0547 2.25 0.25 1.4375 0.33984 1.4453 0.17188 1.1953 0.66406 1.3867 1.5859 1.4766-1.2031 1.3359-1.1367 1.0156-0.60156 1.3984-0.25391 1.0039-0.30859 1.2344-1.1836 0.99609-0.81641 1.1758-0.52344 1.7266-1.4453 0.66406-1.0273 1.1328-0.48047 1.2891-0.95703 1.8164-2.1484 1.0742-0.70312 1.8711-1.1562 1.3672 0.03125 1.3242-0.44141 1.2461-1.8594 0.92578-2.4414 0.85156-1.1367 0.76562-1.0234-0.13281-1.125 0.97266-1.0156 0.91797 0.46094 1.9492-0.92188 1.2656-0.54297 0.94531-0.60156 1.0547-0.43359 1.2852-1.6484 0.54297-2.6523 0.30078-1.0625 1.8906-2.6523 1.043-1.2188 1.2656-1.9688 0.66406-0.83203 1.1133-1.1367 2.7734-0.64453 1.3984-0.70312 0.79297-0.66016 1.0156-0.37109 1.0234-0.19141 2.0195-1.0352 1.0156-0.36328 0.88281-1.3047 0.33203-1.0039 0.60156-1.125 1.8711-1.5273 2.2344-0.94922 1.4102-0.19922 2.0703-0.37891 2.7422-1.0273 1.2773-0.75391 1.1562-0.16406 3.1758-1.1797 1.3047-0.86328 1.125-0.51562 1.2266-0.019531 1.8477-0.58203 2.1797-0.72266 1.7188-0.44141 1.1484-0.64844 2.0977-0.23828 0.97656-0.68359 1.082-0.80469 1.3164-1.043 2.1406-1.0234 1.5664-0.86719 1.0352-0.24219 1.0547-0.49219 1.3867-0.49219 1.5391-0.90234 1.3242-0.53516 1.0273-0.5 1.3438-0.59375 1.5195-0.33203 2.5508-2.168 1.7773-1.0547 0.98438-0.98438 1.543-0.98828 0.49609-1.0156z" fill="#ccc" fill-rule="evenodd"/>
<path d="m376.52 8.375 1.3516 1.0742 1.1133 0.81641 0.54297 1.1719 0.10938 1.3711-1.1406 3.8867-0.74219 3.3242 0.30469 1.9219 1.0078 1.3555 0.95703 1.1289 2.1914 1.9102 1.3125 1.4727 1.5352 1.7578 0.96094 1.0547 0.70312 1.4727 0.03125 1.1523 0.035157 1.5352v1.7617l0.32031 1.8203 0.47656 1.4219 0.83984 1.3555 1.6562 1.5703 2.418 1.6953 1.3242 1.0586 2.207 1.6211 1.1562 1.2539 0.73047 1.6641 0.23438 2.3555 0.11719 1.8984 0.51562 3.6836-0.53516 2.5078v2.0117l0.86719 1.6406 0.11719 1.4297 0.25 1.2461 0.34766 1.4531 0.19141 4.0781 1.1992 5.4062 0.65234 2.4922 0.20312 1.7227 0.10938 1.2383-0.35938 1.9414-0.22656 1.6914 0.22266 1.2539-0.20703 2.043-0.30859 1.5781 0.078125 1.3828 0.14062 1.0781-0.13672 1.7148-0.070312 1.0195 0.51953 1.5742 1.125 1.3203 1.8125 1.5859 2.1133 1.2539 1.8125 0.95703 1.5859 0.75781 1.0898 0.26562 1.1211 0.03125 1.3984 0.21875 1.5469 0.49609 0.94922 0.375 1.2344 0.60938 0.84375 0.83984 0.64453 0.89453 0.82422 0.64453 1.1992 0.64453 1.7031 0.91406 1.6289-0.09375 1.8203-0.5625 1.0391-0.13672 1.7695 0.52734 0.71484 1.5v1.3945l-0.23828 1.1719-0.80469 1.793-0.011719 1.332 0.32031 1.1211-0.066406 1.8477-0.30469 1.7969-0.070313 1.4688 0.5 1.9688 0.66406 1.1094 1.0391 0.66406 1.3047 0.58984 1.0938 0.30469 1.3438-0.10938 1.4805-0.10156 2.3711 0.24219 0.96094 0.32031 0.83203 0.84766 0.015625 3.5234 0.42578 1.293 0.91797 1.0273 1.1367 0.57031 1.7461 0.66406 1.0508 0.90234 0.69531 0.81641 0.52734 1.4805-0.80078 1.457-1.0703 1.3359-0.52734 1.207 0.25391 1.7891 0.58203 1.4023 0.49219 2.1328 0.52344 2.2539 0.14844 1.1055 0.085938 1.4453-0.19531 1.625-0.58984 1.8086 0.10938 1.0898-0.51953 0.85938-0.59375 1.9688-0.089843 1.0234 0.28906 0.98438 0.80469 1.7188 1.1094 0.83984 1.3984 0.71484 1.1328 0.42969 1.9766 1.0508 1.3867 0.69922 1.625 0.82812 1.3867 1.3516 1.2383 1.6953 1.5273 0.55469 1.1406-0.50391 1.3633-0.66406 0.92188-0.50781 1.1133-0.61719 1.25 0.21484 1.1445 1.5664 1.5117 1.5781 2.5039 1.2148 1.6562 0.20703 1.3594-0.41406 1.4688 0.62891 0.80469 0.84375 0.89844 0.875 1.3242 1.3594 1.1016 0.51172 0.58203 0.99219-0.19922 1.2695-0.76953 1.7031-0.75 0.71484-0.92969 0.57812-1.0273 0.61328-1.3359 0.79688-1.3633 1.3047-0.82031 1.3906-0.55859 1.0625 0.089843 1.6484-0.125 1.3438-0.67969 1.2695-1.0039 1.5742-0.37891 1.6211-0.38672 1.2891-0.16797 1.0547 0.09375 1.3906v1.1641l0.050781 1.0391 0.14453 1.5195-0.14453 1.3984v2.0391l-0.14453 1.2891 0.15625 1.1523 0.37109 0.98047 0.60938 0.94922 1.832 0.92578 1.2422 0.59375 0.75 1.3242 0.25 1.3086-0.015625 1.0391-0.5 1.3945-0.64844 1.625-0.87891 2.1562-0.26953 1.3516-0.13672 2.3008 0.26172 1.3203 0.85547 0.90625 1.1211 1.082 1.1367 1.1758 1.3047 0.015625 1.6172-0.79688 1.5352 0.41797 1.3867 0.39453 1.0898-0.066406 1.043 0.30469 1.4648 0.73828 1.1211 0.42578 1.4922 0.99609 1.4961 1.4766 0.85156 1.3633 0.16016 2.1289-0.019532 1.7383 0.074219 1.5586 0.26562 1.1641 0.62891 1.3398 1.1094 1.5781 1.0391 0.78516 0.91016 0.51562 1.0234 0.61328 0.82422 1.0039 0.25 2.1992 1.1484 1.8828 0.72656 2.0117 0.03125 1.3555-0.45703 1.0352-0.21484 1.4141-0.33984 1.3438-0.39453 1.0938-0.42969 1.3242-0.94922 1.4141-1.0742 0.94922-0.10547 1.1797 0.57031 1.2109 0.42969 0.97266-0.089844 1.1992-1.1094 0.68359-1.5195 0.48047-0.28906 1.0391 0.46875 1.7734 0.41016 0.92969 0.55469 1.8789-0.21484 1.2891-0.375 1.0938-0.44922 0.98438-0.39453 1.2695-0.35547 1.1289-0.41406 1.7188-0.58984 1.0742-0.054687 1.3984 1.1914 0.80469 2.9414 0.44531 1.4414-0.035157 1.4102 0.17969 1.2891 0.51953 1.2148 1.3984-0.33984 1.4297-0.32031 1.0391-0.97266 0.75-0.85547 0.87109-0.67188 1.3047-0.76172 1.0586-2.2891 0.32812-0.89844 0.45703-0.95312 0.42578-1.1445 0.58594-1.0117 0.48438-0.99219 0.45312-1.7891 0.73828-0.98828 0.20703-1.3867 0.125-1.7188 1.0391-1.3203 0.42969-1.9453 0.94922-1.582 0.57031-0.99219 0.18359-1.2656 0.57812-1.7461-0.09375-1.4492-0.27734-1.25-0.011718-1.043 0.22266-1.4297 1.0938-1.7422 0.79297-1.9414-0.29688-0.83203-0.57812-2.0625-0.10547-1.9766 0.3125-1.0234 0.60156-2.1797-0.070312-1.0625 0.14453-2.3008 0.31641-1.3984 0.11328-1.1133 0.26953-0.90625 1.0469-0.99609 1.1172-1.0312 0.62891-1.1172 0.16016-1.1133 0.52344-1.9531-0.60547-1.4453-0.54688-1.7305-0.66016-2.0352-0.46875-1.1367 0.18359-1.9297-0.19141-1.5273-0.41406-0.94141-0.35156-1.3789-0.24219-1.6445-0.62109-1.3867-1.1172-1.8164-0.85547-1.2031-1-1.3477-1.1445-0.6875-0.75391-1.1758-0.42188-1.8984-0.36328-1.957-0.35156-1.1289-0.33594-1.0664-0.37109-0.55859-1.3555-0.14062-1.0625-0.75391-2.0508-0.94922-0.46484-1.1562-0.69531-0.85547-1.7148-0.46094-0.92188-1.7695-0.67969-1.1992-0.98828-1.6562-0.14453-1.1953 0.45703-2.5547 0.089844-1.7227 0.24609-1.1367 0.58984-0.45703 0.92188-0.88672 0.67578-0.99219-0.87109-1.1602 0.25781-1.5898 0.74609-1.1914 0.21094-1.6328-0.83594-1.6055-0.17969-1.3555 0.17969-1.7266 0.20703-1.0586-0.54297-1.0859-0.10547-0.96875 0.58594-1.1562 0.87109-1.5312 0.375-1.0547 0.76953-0.90625 1.918-0.54688 1.0195-1.1602 0.035157-1.5781-0.875-1.1641-1.1367-1.0547-1.9961-1.0977-0.66406-1.5156-0.86328-1.1367-0.36328-1.5742-0.75391-1.3164-0.66406-1.5781-0.35938-1.2461-0.44141-1.3555-1.7383-1.2578-1.5898-1.2031-1.5078-1.0352-0.5625-1.668-1.1133-1.0547-1.8281-1.5273-1.5664-0.58594-0.94531-1.0039-1.0742-1.2031-1.0977-1.6172-0.050782-2.7227-0.44141-1.4102-1.3242-1.1445-0.86719-1.7188-0.96094-1.7266-0.88672-1.125-0.75391-1.0156-0.32031-1.8672-0.38281-2.1016-1.043-1.0859-0.34375-1.4453-0.12109-1.2773 0.0625-1.5039-0.3125-0.79688-0.92188-0.60938-0.95703-1.2461-0.12109-1.0273 0.058594-1.1133-0.55859-0.92578-0.46875-1.8164 0.015625-0.90625 0.64453-0.78906 1.0547-1.4609 1.5859-0.8125 0.63281-1.0977 1.0469-1.0742 0.76172-1.207 1.2148-1.0547 0.73438-1.3242 1.2148-1.8398 1.3789-1.1445 0.61328-0.66406 1.1445-0.82422 1.0039-0.99219 0.19141-1.0039 0.38281-1.2266-0.79688-2.5039-0.95312-1.1133-0.50391-1.125-0.98438-2.2734-1.6367-2.6992-2.6211-1.5977-2.2695-0.82422-0.57422-1.0469-1.707-0.80078-1.0781-1.4375-1.4062-1.125-1.375-1.0273-0.97266-1.457-1.1758-2.6914-1.8086-0.97266-0.46484-1.2266-0.62109-1.0273-0.51172-1.0742-1.0781-1.3867-1.2617-0.69922-0.97656-0.87109-0.97656-0.82422-1.0156-0.75391-1.1523 0.1875-1.168 1.7266-2.1445 1.5898-3.5977 2.375-1.75 0.9375-1.3867 0.15625-1.3828-0.66797-1.2695-1.168-1.2148-1.2109-2.7578-0.89844-3.2266-0.47266-1.2266-1.4297-1.1797-1.2109-1.8867-0.69141-1.5586 0.42578-1.6562 0.46484-0.99219 0.44531-1.582-0.47266-1.4453-0.64453-0.82031-2.8789-0.125-1.8711-0.17188-1.2891-0.61328-0.81641-1.1797-0.96094-1.9375-2.8555-2.2734-0.24609-2.0664 0.41406-1.8164 0.39062-1.7188 0.19922-3.4883 0.21875-1.8516-0.49219-1.6172-0.91797-0.73047-1.7344-0.28906-1.3086 0.33984-2.043-0.42578-0.81641-0.73047-1.4609-2.0586-0.61328-1.6953-0.30469-1.168-0.62891-1.543 0.34375-1.1797 1.6797-1 0.5-1.6523-0.19531-1.7266-0.27734-2.2461-0.33594-1.3594 0.38672-1.1797 0.70312-2.0547-0.23828-1.0859-1.293-2.0938-0.44141-1.0703-3.2148-3.5703-1.0547-2.3164-0.55469-1.0859-0.99219-1.9414-0.95312-0.94922-1.5234-0.95312-1.5039-0.52734-0.90234-2.875-0.70703-2.0508-0.68359-1.2266-1.2422-1.8086-0.71484-2.0742-0.28906-1.1406-0.78516-1.5273-1.9219-2.1953-1.2266-2.2422-0.28516-1.9609-0.14453-1.0039-1.082-2.6328-0.60156-2.1797-0.19922-1.6523-0.24219-2.0664-1.25-1.7852-0.43359-1.8086 0.71484-4.5352 0.6875-0.96484 1.3945-0.39062 0.066407-1.5664-0.45312-1.9219-0.70312-1.4258-1.4258-1.8633-2.4453-1.9141-0.96875-1.3555-0.36328-3.4375-0.72656-1-1.1992 0.03125-1.5 0.042969-1.7422-0.81641-0.92188-0.65234 0.58203-2.3477 0.19531-0.99219-1.0469-1.4453-3.5547-1.7031-3.2539-1.5586-1.2461-0.59375-1.332-1.7188-0.33984-1.4297v-2.7109l-0.26562-2.0312-0.85547-1.832 0.88672-0.69531 1.0625-1.3906 0.14453-2.3594 0.078125-1.3164 0.33984-2.0664 0.89844-1.6016 0.69141-1.2344 1.3789-2.0391 1.1953-1.4492 0.78125-1.6562 1.9609-1.9688 0.92578-0.43359 1.5664-0.35938 2.5898 0.45312 1.5508 0.48047 1.5469 0.86328 1.1328 0.19922 0.98438 0.26172 1.7383 0.019531 1.1758 0.14062 2.1992 0.48438 1.8711 0.15234 2.7539 0.67969 1.0547 0.53516 1.5977 0.097656 3.0508 0.12109 1.0078-0.019532 1.707-0.51172 3.0625-2.0703 1.0664-1.2148 2.4609-0.22266 2.7031 2.0312 1.668 0.50391 1.6484 1.0547 2.25 0.25 1.4375 0.33984 1.4453 0.17188 1.1953 0.66406 1.3867 1.5859 1.4766-1.2031 1.3359-1.1367 1.0156-0.60156 1.3984-0.25391 1.0039-0.30859 1.2344-1.1836 0.99609-0.81641 1.1758-0.52344 1.7266-1.4453 0.66406-1.0273 1.1328-0.48047 1.2891-0.95703 1.8164-2.1484 1.0742-0.70312 1.8711-1.1562 1.3672 0.03125 1.3242-0.44141 1.2461-1.8594 0.92578-2.4414 0.85156-1.1367 0.76562-1.0234-0.13281-1.125 0.97266-1.0156 0.91797 0.46094 1.9492-0.92188 1.2656-0.54297 0.94531-0.60156 1.0547-0.43359 1.2852-1.6484 0.54297-2.6523 0.30078-1.0625 1.8906-2.6523 1.043-1.2188 1.2656-1.9688 0.66406-0.83203 1.1133-1.1367 2.7734-0.64453 1.3984-0.70312 0.79297-0.66016 1.0156-0.37109 1.0234-0.19141 2.0195-1.0352 1.0156-0.36328 0.88281-1.3047 0.33203-1.0039 0.60156-1.125 1.8711-1.5273 2.2344-0.94922 1.4102-0.19922 2.0703-0.37891 2.7422-1.0273 1.2773-0.75391 1.1562-0.16406 3.1758-1.1797 1.3047-0.86328 1.125-0.51562 1.2266-0.019531 1.8477-0.58203 2.1797-0.72266 1.7188-0.44141 1.1484-0.64844 2.0977-0.23828 0.97656-0.68359 1.082-0.80469 1.3164-1.043 2.1406-1.0234 1.5664-0.86719 1.0352-0.24219 1.0547-0.49219 1.3867-0.49219 1.5391-0.90234 1.3242-0.53516 1.0273-0.5 1.3438-0.59375 1.5195-0.33203 2.5508-2.168 1.7773-1.0547 0.98438-0.98438 1.543-0.98828 0.49609-1.0156 0.33203 0.30859" fill="none" stroke="#fff" stroke-linecap="round" stroke-linejoin="round" stroke-miterlimit="10" stroke-width="2"/>
<path d="m253.8 189.81 0.69531 0.63672 0.61328 1.4727 0.32031 1.2383 0.61328 1.6953 1.4609 2.0586 0.81641 0.73047 1.0547 0.41016 2.2969-0.32422 1.7344 0.28906 0.91797 0.73047 0.49219 1.6172-0.21875 1.8516-0.19922 3.4883-0.39062 1.7188-0.41406 1.8164 0.24609 2.0664 2.8555 2.2734 0.96094 1.9375 0.81641 1.1797 1.2891 0.61328 1.8711 0.17188 2.2031-0.09375 1.3203 1.0391 0.47266 1.4453-0.44531 1.582-0.46484 0.99219-0.42578 1.6562 0.69141 1.5586 1.2109 1.8867 1.4297 1.1797 0.47266 1.2266 0.89844 3.2266-2.375 1.3359-1.375 0.55469-1.0625 0.042968-1.0547 0.10938-1.1602 0.66797-1.3281 1.25-0.78516 0.73828-0.95703 0.89844-2.5156 1.4336-1.6523 0.69141-2.0742 0.31641-1.8438 0.14062-2.2344 0.17188-3.1445 0.85156-1.7969 0.84375-3.3398 1.5742-1.8438 1.4492-0.8125 2.0391-1.0312 1.0586-1.0312 1.2773-0.71484 1.8672-0.36719 2.582-0.76172 1.6445 0.51562 2.582-0.074219 1.4258 0.12109 1.7695 0.16406 1.2266 0.47656 1.625 1.082 0.51562 0.56641 0.90625-0.10156 1.8711-0.36328 2.3438 0.48828 1.6367 1.668 3.5977 0.55469 1.1953 0.86328 1.8594 0.85938 4.1914 1.5 3.6445 0.33984 1.7539-0.1875 1.2578-0.85938 1.75 0.03125 1.293 0.80078 1.0742 1.9023 1.0742 1.1992 1.1367 0.76953 1.875 0.45312 1.8398 0.22656 2.0273 0.55469 1.4844 0.78516 1.0195 1.1094 2.2812 0.26953 1.6523 0.085937 5.1328-1.082-1.0859-1.5156-1.5156-3.1406-1.9141-2.4805-0.44531-2.3906 0.089844-2.1797 0.26953-4.9258 0.19922-1.6484-0.24219-1.207-0.28906-1.6055 0.37891-1.6797 0.11328-1.0625 0.089843-1.2148 0.23047-1.3398-0.12891-1.0742-0.58594-2.3711-0.42969-2.1172-1.3672-1.0781-1.1055-1.1289 0.25-1.9141 0.86719-2.5 0.16797-2.4414-0.42188-3.8477 0.50391-1.3867-0.29297-0.70312-0.88281-0.79688-1.4062-0.72266-1.4688 0.011718-1.2344-1.2578-0.92578-1.5977-0.79297-0.90234-0.46094-1.75-0.76562-0.91406-0.42969-2.3789-0.74609-1.4883-0.51172-1.5469-0.53125-1.0352-0.5625-1.0039 0.45312-1.9805-0.71484-1.5664-0.082032-0.57422-0.93359-0.99219 0.17188-0.89453-0.59375-1.2969-0.19922-1.2148-0.92578-1.3164 0.5625-1.4883-0.90234-1.4648-0.019531-0.89453-0.60547-1.6484-1.5078-0.97656-1.1836-0.60938-1.2461 0.027343 1.3047-0.097656 1.2305-0.09375 1.8945 1.1055 2.7656 0.45312 0.89062 0.33984 1.5508 0.375 1.2148 1.0234 0.95312 0.44141 1.9805 0.46094 1.1055 1.207 1.0234 0.17969 1.5156 0.42188 1.6914 0.52344 1.2227 0.33203 1.1562v1.2148l-0.35156 1.0469 0.089844 2.832-0.52344 1.3477 0.03125 1.7461-1.043 2.1406-0.54297 1.6094 0.21094 1.9062-0.21875 1.9102-0.125 1.0664-0.77734 1.2539-1.1094 0.48047-3.4336 1.2852-2.7031 1.5078-1.3359 1.2422-0.98047 0.23828-2.1641-0.29297-2.2305-0.25-5.9375-0.66016h-6.25l-1.4297 0.20703-1.4961-0.027344-1.6133-0.35938-1.2539-0.40234-4.6914-1.5117-2.2109 0.089844-2.2812 0.41016-0.76562 0.9375-0.50781 1.1328-1.1641 2.0977-1.1328 1.3125-3.7305 2.4609-1.0273 0.42188-2.2266 0.91016-1.375 0.51562-2.7148 1.1094-2.7656 0.97266-1.8555 1.2852-1.1797 1.1562-1.2031 1.1367-1.0859 2.1133-7.5195-5.8633-4.1719-3.2461-1.0078-1.1289-0.003906-1.0039-0.29297-1.8594 0.4375-1.7109-1.4805-0.87891-1.4727-0.41797-1.6914-0.625-2.6328-0.58594-2.9062-0.42578-1.7812-0.25781-2.0859-1.418-1.8125-0.65625-1.8281-0.4375-4.1992-0.17578-2.2656 0.28125-1.0586-0.058594-1.8867-0.90234-1.25-1.0547-0.99609-0.45703-2.2969-0.042968-1.9805-0.33203-1.4727-0.875-1.6289-0.79688-1.3008-0.097656-2.4805 0.31641-1.0977 0.30078-2.2617-0.57812-2.6445-0.67578-3.7617-0.61719-1.1055-0.46484-1.7383-0.73047-1.6484-0.875-3.0469-1.0469 1.2227-2.3633 0.078125-2.1289 0.046875-1.3867 0.12109-3.3242 0.30078-2.8438 0.51562-1.4609-1.5469-1.1055-1.1445-0.26172-1.1133-0.16016-1.3906-0.19922-2.0508-0.66016-3.4766-1.1211-5.3828-2.3945-3.5508-1.3086-3.8125-2.3906-2.5039-1.7188-1.9062-1.5703-1.9062-3.6641-1.3828-1.7188-1.8711-0.71094-2.3906-0.33594-2.7344 0.48828-1.043 0.59375-0.67188 1.9062-1.457 1.9453-1.1953 1.0078-1.2109 0.17188-4.1719-1.2539-2.2852-1.2695-0.50391-1.4961 0.62109-1.1211 1.0977-0.73828 1.4805-0.53516 1.2891-0.46484 1.4023-0.50781 1.7695-1.8164 2.3359-1.0781 1.0586-0.48828 5.2734-1.8477 2.0352-0.67578 2.9648-0.37109 1.5742-0.011719 3.2852-0.027343 2.3359-0.61719 2.4648-1.1836 2.7891-1.3398 1.6328-0.78125 2.4023-1.1523 0.93359-1.2031v-1.3477l-1.4922-1.7188 0.14844-2.3555 0.69922-2.2812 1.0195-1.7539 2.7305-2.3555 3.3164-5.0352 1.0586-2.2539 1.1172-2.3945 1.3281-2.832 1.3633-2.5508 1.1211-2.0938 2.9219-4.543 1.3555 0.875 1.7695 0.14062 1.0469 0.63281 1.8867 1.7891 1.1367 2.8633 0.44141 1.082 0.41016 3.0469 0.54297 1.0625 1.0703 0.63281 1.1602 0.41016 1.8359 0.70703 1.0352 0.91016 2.3047 2.1016 1.3555 1.2969 3.0352 1.0664 3.5469 1.4336 0.95312 0.38281 1.1797 0.21094 1.3711 0.035156 1.3086 0.39062 1.2148 0.60156 1.2461 0.26172 1.3984 0.27734 1.0273 0.47266 0.85938 1.25 1.1836 1.4062 1.0273-1.8906 1.0352-1.2969 1.7969-1.1758 1.8281-1.5664 0.67578-0.875 2.0078-2.0703 1.1758-0.85156 3.9883-1.5195 1.0547-0.83203 0.77344-1.7188 0.32031-1.7266 0.80469-2.7656 0.27734-1.7852-0.17578-1.4883-0.5-0.88281 3.5898 0.035156 2.9883 0.10938 15.988 0.62891 1.1953 0.046875 1.707 0.066406 2.3203 0.089844 4.0664 0.16016 8.0469 0.31641 9.8125 0.38281 1.1445-0.29688 5.4648-2.8359 1.543-0.79688 3.6992-2.4375 1.7266-0.003906h2.4648l1.1289-0.44141 2.7109-2.6406 3.2109-2.5781 1.8438-4.043 0.85156-1.8711 1-2.1914 2.1289-6.4414 1.5625-2.3086 1.7539-0.87891 3.7891-1.1992 1.1289-0.25 1.5195-0.089844 5.1602 0.84766 3.332-0.58984 1.2578-0.15234 2.5312-0.28516 1.5234-0.16406 1.1055-0.21094 1.1523-0.21875 2.8516-0.54688 0.93359-0.40625 0.89062-0.8125 0.26953-1-0.30469-1.2266-0.26953-1.0898-0.10938-2.2578 0.55078-1.6758 1.2773-1.6211 0.875-0.60938 1.0391-0.10938 2.418 0.45312 2.9531 1.5195 1.3281-0.18359 3.6328-0.36719 3.2109 0.38281 1.4219 0.16797 1.1562 0.33594 1.4414-0.125 1.5547-1.1094 1.4492-1.9023 1.1602-1.7227 1.4102-1.7305 1.0625-0.74219 1.4883-0.48047 2.7383-0.87891 3.3984-1.3477 1.7891-1.3906 1.0352-0.58203z" fill="#ccc" fill-rule="evenodd"/>
<path d="m253.8 189.81 0.69531 0.63672 0.61328 1.4727 0.32031 1.2383 0.61328 1.6953 1.4609 2.0586 0.81641 0.73047 1.0547 0.41016 2.2969-0.32422 1.7344 0.28906 0.91797 0.73047 0.49219 1.6172-0.21875 1.8516-0.19922 3.4883-0.39062 1.7188-0.41406 1.8164 0.24609 2.0664 2.8555 2.2734 0.96094 1.9375 0.81641 1.1797 1.2891 0.61328 1.8711 0.17188 2.2031-0.09375 1.3203 1.0391 0.47266 1.4453-0.44531 1.582-0.46484 0.99219-0.42578 1.6562 0.69141 1.5586 1.2109 1.8867 1.4297 1.1797 0.47266 1.2266 0.89844 3.2266-2.375 1.3359-1.375 0.55469-1.0625 0.042968-1.0547 0.10938-1.1602 0.66797-1.3281 1.25-0.78516 0.73828-0.95703 0.89844-2.5156 1.4336-1.6523 0.69141-2.0742 0.31641-1.8438 0.14062-2.2344 0.17188-3.1445 0.85156-1.7969 0.84375-3.3398 1.5742-1.8438 1.4492-0.8125 2.0391-1.0312 1.0586-1.0312 1.2773-0.71484 1.8672-0.36719 2.582-0.76172 1.6445 0.51562 2.582-0.074219 1.4258 0.12109 1.7695 0.16406 1.2266 0.47656 1.625 1.082 0.51562 0.56641 0.90625-0.10156 1.8711-0.36328 2.3438 0.48828 1.6367 1.668 3.5977 0.55469 1.1953 0.86328 1.8594 0.85938 4.1914 1.5 3.6445 0.33984 1.7539-0.1875 1.2578-0.85938 1.75 0.03125 1.293 0.80078 1.0742 1.9023 1.0742 1.1992 1.1367 0.76953 1.875 0.45312 1.8398 0.22656 2.0273 0.55469 1.4844 0.78516 1.0195 1.1094 2.2812 0.26953 1.6523 0.085937 5.1328-1.082-1.0859-1.5156-1.5156-3.1406-1.9141-2.4805-0.44531-2.3906 0.089844-2.1797 0.26953-4.9258 0.19922-1.6484-0.24219-1.207-0.28906-1.6055 0.37891-1.6797 0.11328-1.0625 0.089843-1.2148 0.23047-1.3398-0.12891-1.0742-0.58594-2.3711-0.42969-2.1172-1.3672-1.0781-1.1055-1.1289 0.25-1.9141 0.86719-2.5 0.16797-2.4414-0.42188-3.8477 0.50391-1.3867-0.29297-0.70312-0.88281-0.79688-1.4062-0.72266-1.4688 0.011718-1.2344-1.2578-0.92578-1.5977-0.79297-0.90234-0.46094-1.75-0.76562-0.91406-0.42969-2.3789-0.74609-1.4883-0.51172-1.5469-0.53125-1.0352-0.5625-1.0039 0.45312-1.9805-0.71484-1.5664-0.082032-0.57422-0.93359-0.99219 0.17188-0.89453-0.59375-1.2969-0.19922-1.2148-0.92578-1.3164 0.5625-1.4883-0.90234-1.4648-0.019531-0.89453-0.60547-1.6484-1.5078-0.97656-1.1836-0.60938-1.2461 0.027343 1.3047-0.097656 1.2305-0.09375 1.8945 1.1055 2.7656 0.45312 0.89062 0.33984 1.5508 0.375 1.2148 1.0234 0.95312 0.44141 1.9805 0.46094 1.1055 1.207 1.0234 0.17969 1.5156 0.42188 1.6914 0.52344 1.2227 0.33203 1.1562v1.2148l-0.35156 1.0469 0.089844 2.832-0.52344 1.3477 0.03125 1.7461-1.043 2.1406-0.54297 1.6094 0.21094 1.9062-0.21875 1.9102-0.125 1.0664-0.77734 1.2539-1.1094 0.48047-3.4336 1.2852-2.7031 1.5078-1.3359 1.2422-0.98047 0.23828-2.1641-0.29297-2.2305-0.25-5.9375-0.66016h-6.25l-1.4297 0.20703-1.4961-0.027344-1.6133-0.35938-1.2539-0.40234-4.6914-1.5117-2.2109 0.089844-2.2812 0.41016-0.76562 0.9375-0.50781 1.1328-1.1641 2.0977-1.1328 1.3125-3.7305 2.4609-1.0273 0.42188-2.2266 0.91016-1.375 0.51562-2.7148 1.1094-2.7656 0.97266-1.8555 1.2852-1.1797 1.1562-1.2031 1.1367-1.0859 2.1133-7.5195-5.8633-4.1719-3.2461-1.0078-1.1289-0.003906-1.0039-0.29297-1.8594 0.4375-1.7109-1.4805-0.87891-1.4727-0.41797-1.6914-0.625-2.6328-0.58594-2.9062-0.42578-1.7812-0.25781-2.0859-1.418-1.8125-0.65625-1.8281-0.4375-4.1992-0.17578-2.2656 0.28125-1.0586-0.058594-1.8867-0.90234-1.25-1.0547-0.99609-0.45703-2.2969-0.042968-1.9805-0.33203-1.4727-0.875-1.6289-0.79688-1.3008-0.097656-2.4805 0.31641-1.0977 0.30078-2.2617-0.57812-2.6445-0.67578-3.7617-0.61719-1.1055-0.46484-1.7383-0.73047-1.6484-0.875-3.0469-1.0469 1.2227-2.3633 0.078125-2.1289 0.046875-1.3867 0.12109-3.3242 0.30078-2.8438 0.51562-1.4609-1.5469-1.1055-1.1445-0.26172-1.1133-0.16016-1.3906-0.19922-2.0508-0.66016-3.4766-1.1211-5.3828-2.3945-3.5508-1.3086-3.8125-2.3906-2.5039-1.7188-1.9062-1.5703-1.9062-3.6641-1.3828-1.7188-1.8711-0.71094-2.3906-0.33594-2.7344 0.48828-1.043 0.59375-0.67188 1.9062-1.457 1.9453-1.1953 1.0078-1.2109 0.17188-4.1719-1.2539-2.2852-1.2695-0.50391-1.4961 0.62109-1.1211 1.0977-0.73828 1.4805-0.53516 1.2891-0.46484 1.4023-0.50781 1.7695-1.8164 2.3359-1.0781 1.0586-0.48828 5.2734-1.8477 2.0352-0.67578 2.9648-0.37109 1.5742-0.011719 3.2852-0.027343 2.3359-0.61719 2.4648-1.1836 2.7891-1.3398 1.6328-0.78125 2.4023-1.1523 0.93359-1.2031v-1.3477l-1.4922-1.7188 0.14844-2.3555 0.69922-2.2812 1.0195-1.7539 2.7305-2.3555 3.3164-5.0352 1.0586-2.2539 1.1172-2.3945 1.3281-2.832 1.3633-2.5508 1.1211-2.0938 2.9219-4.543 1.3555 0.875 1.7695 0.14062 1.0469 0.63281 1.8867 1.7891 1.1367 2.8633 0.44141 1.082 0.41016 3.0469 0.54297 1.0625 1.0703 0.63281 1.1602 0.41016 1.8359 0.70703 1.0352 0.91016 2.3047 2.1016 1.3555 1.2969 3.0352 1.0664 3.5469 1.4336 0.95312 0.38281 1.1797 0.21094 1.3711 0.035156 1.3086 0.39062 1.2148 0.60156 1.2461 0.26172 1.3984 0.27734 1.0273 0.47266 0.85938 1.25 1.1836 1.4062 1.0273-1.8906 1.0352-1.2969 1.7969-1.1758 1.8281-1.5664 0.67578-0.875 2.0078-2.0703 1.1758-0.85156 3.9883-1.5195 1.0547-0.83203 0.77344-1.7188 0.32031-1.7266 0.80469-2.7656 0.27734-1.7852-0.17578-1.4883-0.5-0.88281 3.5898 0.035156 2.9883 0.10938 15.988 0.62891 1.1953 0.046875 1.707 0.066406 2.3203 0.089844 4.0664 0.16016 8.0469 0.31641 9.8125 0.38281 1.1445-0.29688 5.4648-2.8359 1.543-0.79688 3.6992-2.4375 1.7266-0.003906h2.4648l1.1289-0.44141 2.7109-2.6406 3.2109-2.5781 1.8438-4.043 0.85156-1.8711 1-2.1914 2.1289-6.4414 1.5625-2.3086 1.7539-0.87891 3.7891-1.1992 1.1289-0.25 1.5195-0.089844 5.1602 0.84766 3.332-0.58984 1.2578-0.15234 2.5312-0.28516 1.5234-0.16406 1.1055-0.21094 1.1523-0.21875 2.8516-0.54688 0.93359-0.40625 0.89062-0.8125 0.26953-1-0.30469-1.2266-0.26953-1.0898-0.10938-2.2578 0.55078-1.6758 1.2773-1.6211 0.875-0.60938 1.0391-0.10938 2.418 0.45312 2.9531 1.5195 1.3281-0.18359 3.6328-0.36719 3.2109 0.38281 1.4219 0.16797 1.1562 0.33594 1.4414-0.125 1.5547-1.1094 1.4492-1.9023 1.1602-1.7227 1.4102-1.7305 1.0625-0.74219 1.4883-0.48047 2.7383-0.87891 3.3984-1.3477 1.7891-1.3906 1.0352-0.58203 0.85156 0.078125" fill="none" stroke="#fff" stroke-linecap="round" stroke-linejoin="round" stroke-miterlimit="10" stroke-width="2"/>
<path d="m280.2 235.94 1.168 1.2148 0.66797 1.2695-0.15625 1.3828-0.9375 1.3867-2.375 1.75-1.5898 3.5977-1.7266 2.1445-0.1875 1.168 0.75391 1.1523 0.82422 1.0156 0.87109 0.97656 0.69922 0.97656 0.76172 0.74609 1.582 1.3516 1.1445 0.75391 1.0234 0.42969 1.1758 0.65625 2.0898 1.4023 2.0586 1.582 1.0273 0.97266 1.125 1.375 1.1328 0.99609 1.1055 1.4883 0.21094 1.293 1.6602 0.98828 1.5977 2.2695 2.6992 2.6211 2.2734 1.6367 1.125 0.98438 1.1133 0.50391 2.1016 0.70312 0.84375 0.8125 1.2188 0.066406 1.5625-0.40625 0.82422-1.0039 0.66406-1.1445 1.1445-0.61328 1.5195-0.97656 1.543-1.5234 1.1562-0.82812 1.207-1.2148 1.0742-0.76172 1.0977-1.0469 0.8125-0.63281 1.4609-1.5859 0.75781-1.0078 0.9375-0.69141 1.8164-0.015625 0.92578 0.46875 1.1133 0.55859 1.0273-0.058594 1.2461 0.12109 0.60938 0.95703 0.79688 0.92188 1.3438 0.37109 1.4375-0.12109 1.4453 0.12109 1.0859 0.34375 2.1016 1.043 1.1133 0.30078 1.7695 0.40234 1.0625 0.70703 0.89844 0.53906 2.0664 1.1562 1.0547 0.49219 1.6602 1.6797 2.2812 0.65234 1.5859-0.082031 2.0586 1.2383 1.0039 1.0742 0.58594 0.94531 0.77344 0.97266 1.2539 1.6094 2.2227 1.9258 1.0352 0.5625 1.2031 1.5078 0.94531 0.86328 1.0156 1.8398 1.8984 1.0664 1.5781 0.35938 1.3164 0.66406 1.5742 0.75391 1.1367 0.36328 1.5156 0.86328 1.0977 0.66406 1.0547 1.9961 1.1641 1.1367 1.0977 0.8125 1.4141 0.011718-1.3594 1.6367-0.84375 0.59766-1.0078 0.92969v1.4805l0.60547 1.0625 0.41797 1.2891-0.64453 0.79688-1.6328 1.1406-0.75781 1.1367-0.41797 1.3281-0.91016 1.1367-0.72266 0.98828-0.75781 0.75781-0.79688 0.67969-1.0547 0.49219-0.69922 1.1719-0.82031 0.90625-0.32422 1.1016-0.75391 0.78125-0.93359-0.48438-1.4961 0.46094-1.2109 0.34766-1.375-0.17969-1.2812-0.015625-2.0312 1.5859-0.90625 0.60547-1.2031-0.54297-1.0156 0.75-0.92188 1.0352 0.20703 1.8125 0.37891 1.4062-0.94922 0.83203-0.71875 1.3281-0.84375 1.4297-0.79688 0.73828-0.65234 1.2852-1 0.50391-1.0859 1.3008-0.64062 0.88281-0.85547 0.67578-1.3242-0.41797-0.74609 1.7188 0.30469 1.6992 0.32812 1.9766 0.09375 1.1211 0.38281 1.2617 0.070313 1.0039-0.49219 1.0391-0.71094 1.5547-0.47656 0.88281-0.75 1.0781-0.52734 1.5547-0.69922 0.98828v1.8984l-0.41016 2.1641-0.32422 1.0156 0.17969 1.0547 0.054688 1.4414-0.84375 1.082-0.66797 0.76172-0.78125 0.97266-1.9883 1.3594-0.95703 0.37109-0.96484 0.80859-1.4766 1.0977-1.418 1.1719-0.78125 1.4414-1.0234 0.21094-1.3281-0.12891-0.88281-0.75391-0.79297-0.64453-0.83594-0.86328-1.3242 0.49219-1.5898 0.28125-2.5117-0.33203-1.1133-0.03125-0.82422-0.88281-1.6367-0.19141-0.79297-1.2148-0.90625-1.2773-0.50391-1.1445-1.0312-0.53125-1.0078 0.62109-0.87109-1.4375-1.1953-0.019531-1.0977-0.48047-0.66406-1.0352-1.5273-0.83203-1.2148-0.042968-1.4766-0.51172-1.3867 0.44141-2.2305-1.4766-0.74219-1.0742-0.85547-1.1641-1.082-0.53516-1.3164 0.54297-0.98438 0.54297-1.5586-0.50391-1.1641-0.058593-0.78516 1.4375-1.1367 0.21094-1.7188-1.3984-0.95312-0.44141-1.0039-0.71094-0.86328-0.84766-1.418-1.5938-1.4375-0.14062-1.0742-0.23438-1.7578-1.2227-1.0781-2.1953 1.2656-2.8906 0.003906-2.4844-0.23047-1.7383-1.8047-3.8906-0.83594-4.2578-0.80078-1.8906-1.2617-1.0938-1.4922-0.85938-2.7539-0.85938-2.8125-1.7227-1.2617-1.2031-1.2617-0.86328-1.7812-0.6875-2.1797-1.4922-2.5234-0.85938-1.7344-1.5039-0.085937-5.1328-0.26953-1.6523-1.0078-2.1484-0.88672-1.1523-0.55469-1.4844-0.22656-2.0273-0.45312-1.8398-0.76953-1.875-1.1992-1.1367-1.4805-0.83594-1.2227-1.3125-0.03125-1.293 0.85938-1.75 0.1875-1.2578-0.33984-1.7539-1.1406-2.7695-1.2188-5.0664-0.76172-1.6406-0.65625-1.4141-1.668-3.5977-0.48828-1.6367 0.36328-2.3438 0.10156-1.8711-0.56641-0.90625-1.082-0.51562-0.47656-1.625-0.16406-1.2266-0.12109-1.7695 0.074219-1.4258-0.6875-1.6484 0.93359-2.5781 0.36719-2.582 0.71484-1.8672 1.0312-1.2773 1.0312-1.0586 0.8125-2.0391 1.8438-1.4492 3.3398-1.5742 1.7969-0.84375 3.1445-0.85156 2.2344-0.17188 1.8438-0.14062 2.0742-0.31641 1.6523-0.69141 2.5156-1.4336 0.95703-0.89844 0.78516-0.73828 1.3281-1.25 1.1602-0.66797 1.0547-0.10938 1.0625-0.042968 1.375-0.55469 2.375-1.3359z" fill="#ccc" fill-rule="evenodd"/>
<path d="m280.2 235.94 1.168 1.2148 0.66797 1.2695-0.15625 1.3828-0.9375 1.3867-2.375 1.75-1.5898 3.5977-1.7266 2.1445-0.1875 1.168 0.75391 1.1523 0.82422 1.0156 0.87109 0.97656 0.69922 0.97656 0.76172 0.74609 1.582 1.3516 1.1445 0.75391 1.0234 0.42969 1.1758 0.65625 2.0898 1.4023 2.0586 1.582 1.0273 0.97266 1.125 1.375 1.1328 0.99609 1.1055 1.4883 0.21094 1.293 1.6602 0.98828 1.5977 2.2695 2.6992 2.6211 2.2734 1.6367 1.125 0.98438 1.1133 0.50391 2.1016 0.70312 0.84375 0.8125 1.2188 0.066406 1.5625-0.40625 0.82422-1.0039 0.66406-1.1445 1.1445-0.61328 1.5195-0.97656 1.543-1.5234 1.1562-0.82812 1.207-1.2148 1.0742-0.76172 1.0977-1.0469 0.8125-0.63281 1.4609-1.5859 0.75781-1.0078 0.9375-0.69141 1.8164-0.015625 0.92578 0.46875 1.1133 0.55859 1.0273-0.058594 1.2461 0.12109 0.60938 0.95703 0.79688 0.92188 1.3438 0.37109 1.4375-0.12109 1.4453 0.12109 1.0859 0.34375 2.1016 1.043 1.1133 0.30078 1.7695 0.40234 1.0625 0.70703 0.89844 0.53906 2.0664 1.1562 1.0547 0.49219 1.6602 1.6797 2.2812 0.65234 1.5859-0.082031 2.0586 1.2383 1.0039 1.0742 0.58594 0.94531 0.77344 0.97266 1.2539 1.6094 2.2227 1.9258 1.0352 0.5625 1.2031 1.5078 0.94531 0.86328 1.0156 1.8398 1.8984 1.0664 1.5781 0.35938 1.3164 0.66406 1.5742 0.75391 1.1367 0.36328 1.5156 0.86328 1.0977 0.66406 1.0547 1.9961 1.1641 1.1367 1.0977 0.8125 1.4141 0.011718-1.3594 1.6367-0.84375 0.59766-1.0078 0.92969v1.4805l0.60547 1.0625 0.41797 1.2891-0.64453 0.79688-1.6328 1.1406-0.75781 1.1367-0.41797 1.3281-0.91016 1.1367-0.72266 0.98828-0.75781 0.75781-0.79688 0.67969-1.0547 0.49219-0.69922 1.1719-0.82031 0.90625-0.32422 1.1016-0.75391 0.78125-0.93359-0.48438-1.4961 0.46094-1.2109 0.34766-1.375-0.17969-1.2812-0.015625-2.0312 1.5859-0.90625 0.60547-1.2031-0.54297-1.0156 0.75-0.92188 1.0352 0.20703 1.8125 0.37891 1.4062-0.94922 0.83203-0.71875 1.3281-0.84375 1.4297-0.79688 0.73828-0.65234 1.2852-1 0.50391-1.0859 1.3008-0.64062 0.88281-0.85547 0.67578-1.3242-0.41797-0.74609 1.7188 0.30469 1.6992 0.32812 1.9766 0.09375 1.1211 0.38281 1.2617 0.070313 1.0039-0.49219 1.0391-0.71094 1.5547-0.47656 0.88281-0.75 1.0781-0.52734 1.5547-0.69922 0.98828v1.8984l-0.41016 2.1641-0.32422 1.0156 0.17969 1.0547 0.054688 1.4414-0.84375 1.082-0.66797 0.76172-0.78125 0.97266-1.9883 1.3594-0.95703 0.37109-0.96484 0.80859-1.4766 1.0977-1.418 1.1719-0.78125 1.4414-1.0234 0.21094-1.3281-0.12891-0.88281-0.75391-0.79297-0.64453-0.83594-0.86328-1.3242 0.49219-1.5898 0.28125-2.5117-0.33203-1.1133-0.03125-0.82422-0.88281-1.6367-0.19141-0.79297-1.2148-0.90625-1.2773-0.50391-1.1445-1.0312-0.53125-1.0078 0.62109-0.87109-1.4375-1.1953-0.019531-1.0977-0.48047-0.66406-1.0352-1.5273-0.83203-1.2148-0.042968-1.4766-0.51172-1.3867 0.44141-2.2305-1.4766-0.74219-1.0742-0.85547-1.1641-1.082-0.53516-1.3164 0.54297-0.98438 0.54297-1.5586-0.50391-1.1641-0.058593-0.78516 1.4375-1.1367 0.21094-1.7188-1.3984-0.95312-0.44141-1.0039-0.71094-0.86328-0.84766-1.418-1.5938-1.4375-0.14062-1.0742-0.23438-1.7578-1.2227-1.0781-2.1953 1.2656-2.8906 0.003906-2.4844-0.23047-1.7383-1.8047-3.8906-0.83594-4.2578-0.80078-1.8906-1.2617-1.0938-1.4922-0.85938-2.7539-0.85938-2.8125-1.7227-1.2617-1.2031-1.2617-0.86328-1.7812-0.6875-2.1797-1.4922-2.5234-0.85938-1.7344-1.5039-0.085937-5.1328-0.26953-1.6523-1.0078-2.1484-0.88672-1.1523-0.55469-1.4844-0.22656-2.0273-0.45312-1.8398-0.76953-1.875-1.1992-1.1367-1.4805-0.83594-1.2227-1.3125-0.03125-1.293 0.85938-1.75 0.1875-1.2578-0.33984-1.7539-1.1406-2.7695-1.2188-5.0664-0.76172-1.6406-0.65625-1.4141-1.668-3.5977-0.48828-1.6367 0.36328-2.3438 0.10156-1.8711-0.56641-0.90625-1.082-0.51562-0.47656-1.625-0.16406-1.2266-0.12109-1.7695 0.074219-1.4258-0.6875-1.6484 0.93359-2.5781 0.36719-2.582 0.71484-1.8672 1.0312-1.2773 1.0312-1.0586 0.8125-2.0391 1.8438-1.4492 3.3398-1.5742 1.7969-0.84375 3.1445-0.85156 2.2344-0.17188 1.8438-0.14062 2.0742-0.31641 1.6523-0.69141 2.5156-1.4336 0.95703-0.89844 0.78516-0.73828 1.3281-1.25 1.1602-0.66797 1.0547-0.10938 1.0625-0.042968 1.375-0.55469 2.375-1.3359 1.2109 2.7578" fill="none" stroke="#fff" stroke-linecap="round" stroke-linejoin="round" stroke-miterlimit="10" stroke-width="2"/>
<path d="m210.07 88.359 2.0391 1.7305 0.85547 1.832 0.26562 2.0312v2.7109l0.33984 1.4297 1.332 1.7188 0.91016 0.43359 3.5898 1.7188 3.5547 1.7031 1.0469 1.4453-0.19531 0.99219-0.72656 1.8398 1.0664 1.1602 1.7422 0.81641 1.5-0.042969 1.1992-0.03125 0.72656 1 0.36328 3.4375 0.96875 1.3555 2.4453 1.9141 1.4258 1.8633 0.70312 1.4258 0.45312 1.9219-0.066407 1.5664-1.3945 0.39062-0.6875 0.96484-0.71484 4.5352 0.43359 1.8086 1.25 1.7852 0.24219 2.0664 0.19922 1.6523 0.60156 2.1797 1.082 2.6328 0.14453 1.0039 0.16406 1.1211 1.3477 3.082 1.9219 2.1953 0.78516 1.5273 0.28906 1.1406 0.34766 1.375 1.6094 2.5078 0.68359 1.2266 0.63672 1.8438 0.66797 2.5195 1.8086 1.0898 1.5234 0.95312 0.95312 0.94922 0.82812 1.625 0.71875 1.4023 1.0547 2.3164 2.6523 2.7891 1.0039 1.8516 1.293 2.0938 0.23828 1.0859-0.40625 1.5-0.68359 1.7344 0.33594 1.3594 0.21875 1.7227 0.16406 1.4531-0.03125 1.6836-2.0586 1.7656-1.0391 0.54297-1.8867 0.50391-1.7891 1.3906-3.3984 1.3477-2.7383 0.87891-1.4883 0.48047-1.0625 0.74219-1.4102 1.7305-0.93359 1.3867-0.98438 1.543-2.2461 1.8047-1.4414 0.125-1.1562-0.33594-1.4219-0.16797-3.2109-0.38281-3.6328 0.36719-1.3281 0.18359-2.9531-1.5195-2.418-0.45312-1.0391 0.10938-0.875 0.60938-1.2773 1.6211-0.35938 1.0938-0.082031 2.8398 0.26953 1.0898 0.25781 1.0312-0.22266 1.1953-0.89062 0.8125-0.93359 0.40625-2.8516 0.54688-1.1523 0.21875-1.1055 0.21094-1.5234 0.16406-1.8594 0.20703-1.7422 0.19922-3.5195 0.62109-5.1602-0.84766-1.5195 0.089844-1.1289 0.25-3.7891 1.1992-1.7539 0.87891-1.332 1.5898-2.168 6.7383-1.1914 2.6133-0.85156 1.8711-1.8438 4.043-3.2109 2.5781-2.7109 2.6406-1.1289 0.44141h-2.4648l-1.7266 0.003906-2.9883 2.0703-2.2539 1.1641-5.4648 2.8359-1.1445 0.29688-9.8125-0.38281-7.9609-0.3125-3.8086-0.15234-1.7305-0.066406-2.2812-0.089844-1.2188-0.046875-16.324-0.64062-2.543-0.10156-0.52734-0.86328-0.82031-2.3008-1.2344-2.6484-3.1523-7.457-1.0117-2.3867-0.93359-1.957-0.52734-1.4961-2.0547-4.5508-1.4102-3.5078-1.2266-2.6953-1.1719-2.5742-1.1328-2.6992-1.1328-2.7148-4.5-10.801-2.0195-5.8477-0.43359-1.2539-0.71094-1.082-1.0664-1.8633-2.793-1.0234-1.1172 0.007812-1.6367 0.48438-0.99219-0.96484-0.96484-0.30078-1.3867-1.1172-1.4688-0.089844 0.65234-1.1328-0.1875-1.4688 0.17969-1.8789 0.78125-1.4883 1.2891-1.7656 2.0195-4.1992 0.83203-1.2773 0.46094-1.1641 0.69531-2.2812 0.51172-0.95703 0.49219-1.3555 0.98438-2.0586 1.8516-4.668 0.73047-1.8438 0.53125-0.92969 1.4297-0.83203 2.0508-0.48047 1.7539-0.46094 1.5703-0.55859 3.3125-3.3438 1.543-1.6836 0.83203-0.63672 3.3633-2.5977 2.3281-2.8125 1.5117-1.8203 1.3125-1.5859 2.4258-1.5977 5.0391-4.4453 3.9023-3.4453 3.2188-2.0586 3.7812-2.4141 1.6172-3.4688-0.40625-3.4688 0.20703-1.0078 1.9062-0.96094 1.9844 0.09375 2.5391-1.9219 1.2227-1.0664 1.3008-1.25 0.6875-0.75 0.17188-1.1719-0.71094-2.4648-0.67969-1.4844 3.293-4.8438 2.4219-2.5469 1.3398-0.82031 2.9531 0.19531 1.2422-0.44531 1.3828-1.1523 2.1602-1.0625 1.2422-0.39844 1.1289-0.007813 0.87891 0.50391 1.2148 0.69531 3.6484 2.0898 5.1836 2.9688 1.4023 0.33203 1.9648-0.10938 7.0469-0.40234 2.9766-0.46094 6.5312-2.3516 3.8789-1.3945 3.3242-1.1992h2.1289l2.2148 0.53125 1.5508 0.62109 5.8047-1.2422 5.7188-2.6133z" fill="#ccc" fill-rule="evenodd"/>
<path d="m210.07 88.359 2.0391 1.7305 0.85547 1.832 0.26562 2.0312v2.7109l0.33984 1.4297 1.332 1.7188 0.91016 0.43359 3.5898 1.7188 3.5547 1.7031 1.0469 1.4453-0.19531 0.99219-0.72656 1.8398 1.0664 1.1602 1.7422 0.81641 1.5-0.042969 1.1992-0.03125 0.72656 1 0.36328 3.4375 0.96875 1.3555 2.4453 1.9141 1.4258 1.8633 0.70312 1.4258 0.45312 1.9219-0.066407 1.5664-1.3945 0.39062-0.6875 0.96484-0.71484 4.5352 0.43359 1.8086 1.25 1.7852 0.24219 2.0664 0.19922 1.6523 0.60156 2.1797 1.082 2.6328 0.14453 1.0039 0.16406 1.1211 1.3477 3.082 1.9219 2.1953 0.78516 1.5273 0.28906 1.1406 0.34766 1.375 1.6094 2.5078 0.68359 1.2266 0.63672 1.8438 0.66797 2.5195 1.8086 1.0898 1.5234 0.95312 0.95312 0.94922 0.82812 1.625 0.71875 1.4023 1.0547 2.3164 2.6523 2.7891 1.0039 1.8516 1.293 2.0938 0.23828 1.0859-0.40625 1.5-0.68359 1.7344 0.33594 1.3594 0.21875 1.7227 0.16406 1.4531-0.03125 1.6836-2.0586 1.7656-1.0391 0.54297-1.8867 0.50391-1.7891 1.3906-3.3984 1.3477-2.7383 0.87891-1.4883 0.48047-1.0625 0.74219-1.4102 1.7305-0.93359 1.3867-0.98438 1.543-2.2461 1.8047-1.4414 0.125-1.1562-0.33594-1.4219-0.16797-3.2109-0.38281-3.6328 0.36719-1.3281 0.18359-2.9531-1.5195-2.418-0.45312-1.0391 0.10938-0.875 0.60938-1.2773 1.6211-0.35938 1.0938-0.082031 2.8398 0.26953 1.0898 0.25781 1.0312-0.22266 1.1953-0.89062 0.8125-0.93359 0.40625-2.8516 0.54688-1.1523 0.21875-1.1055 0.21094-1.5234 0.16406-1.8594 0.20703-1.7422 0.19922-3.5195 0.62109-5.1602-0.84766-1.5195 0.089844-1.1289 0.25-3.7891 1.1992-1.7539 0.87891-1.332 1.5898-2.168 6.7383-1.1914 2.6133-0.85156 1.8711-1.8438 4.043-3.2109 2.5781-2.7109 2.6406-1.1289 0.44141h-2.4648l-1.7266 0.003906-2.9883 2.0703-2.2539 1.1641-5.4648 2.8359-1.1445 0.29688-9.8125-0.38281-7.9609-0.3125-3.8086-0.15234-1.7305-0.066406-2.2812-0.089844-1.2188-0.046875-16.324-0.64062-2.543-0.10156-0.52734-0.86328-0.82031-2.3008-1.2344-2.6484-3.1523-7.457-1.0117-2.3867-0.93359-1.957-0.52734-1.4961-2.0547-4.5508-1.4102-3.5078-1.2266-2.6953-1.1719-2.5742-1.1328-2.6992-1.1328-2.7148-4.5-10.801-2.0195-5.8477-0.43359-1.2539-0.71094-1.082-1.0664-1.8633-2.793-1.0234-1.1172 0.007812-1.6367 0.48438-0.99219-0.96484-0.96484-0.30078-1.3867-1.1172-1.4688-0.089844 0.65234-1.1328-0.1875-1.4688 0.17969-1.8789 0.78125-1.4883 1.2891-1.7656 2.0195-4.1992 0.83203-1.2773 0.46094-1.1641 0.69531-2.2812 0.51172-0.95703 0.49219-1.3555 0.98438-2.0586 1.8516-4.668 0.73047-1.8438 0.53125-0.92969 1.4297-0.83203 2.0508-0.48047 1.7539-0.46094 1.5703-0.55859 3.3125-3.3438 1.543-1.6836 0.83203-0.63672 3.3633-2.5977 2.3281-2.8125 1.5117-1.8203 1.3125-1.5859 2.4258-1.5977 5.0391-4.4453 3.9023-3.4453 3.2188-2.0586 3.7812-2.4141 1.6172-3.4688-0.40625-3.4688 0.20703-1.0078 1.9062-0.96094 1.9844 0.09375 2.5391-1.9219 1.2227-1.0664 1.3008-1.25 0.6875-0.75 0.17188-1.1719-0.71094-2.4648-0.67969-1.4844 3.293-4.8438 2.4219-2.5469 1.3398-0.82031 2.9531 0.19531 1.2422-0.44531 1.3828-1.1523 2.1602-1.0625 1.2422-0.39844 1.1289-0.007813 0.87891 0.50391 1.2148 0.69531 3.6484 2.0898 5.1836 2.9688 1.4023 0.33203 1.9648-0.10938 7.0469-0.40234 2.9766-0.46094 6.5312-2.3516 3.8789-1.3945 3.3242-1.1992h2.1289l2.2148 0.53125 1.5508 0.62109 5.8047-1.2422 5.7188-2.6133 1.9492 0.26562" fill="none" stroke="#fff" stroke-linecap="round" stroke-linejoin="round" stroke-miterlimit="10" stroke-width="2"/>
<path d="m179.8 289.9 0.97656 1.1836 1.6484 1.5078 0.89453 0.60547 1.4648 0.019531 1.4883 0.90234 1.3164-0.5625 1.2148 0.92578 1.2969 0.19922 0.89453 0.59375 0.99219-0.17188 0.57422 0.93359 1.5664 0.082032 1.5156 0.63281 1.0469-0.30078 1.457 0.49219 1.0234 0.10156 1.1953 0.42188 2.3828 0.74219 1.7266 0.95312 1.1445 0.16406 1.1172 0.76172 1.5078 0.60156 0.96484 1.1367 0.76172 1.5156 0.72266 1.4688 0.79688 1.4062 0.70312 0.88281 1.2344 0.26172 4-0.47266 2.4414 0.42188h1.6055l2.8047-1.0352 1.1328-0.25 1.0781 1.1055 1.707 1.1836 2.7812 0.61328 1.0742 0.58594 1.3398 0.12891 1.2148-0.23047 1.0625-0.089843 1.0156 0.078125 1.6797-0.30859 1.457-0.16406 1.9883 0.43359 4.9258-0.19922 2.1797-0.26953 2.3906-0.089844 2.4805 0.44531 3.1406 1.9141 1.5156 1.5156 1.082 1.0859 1.7344 1.5039 2.5234 0.85938 2.1797 1.4922 1.7812 0.6875 1.2617 0.86328 1.2617 1.2031 2.8125 1.7227 1.8047 0.5625 2.4414 1.1562 1.2617 1.0938 0.80078 1.8906 0.66406 3.3828 1.9766 4.7656 0.23047 1.7383-0.003906 2.4844-1.2656 2.8906 0.51562 1.6016 2.3203 1.8164 1.0742 0.23438 1.4375 0.14062 1.418 1.5938 0.80078 0.78516 1.0664 0.77344 0.95312 0.44141 1.0586 0.85547 1.0742 0.73438 0.96484-1.3789 1.043-0.32031 1.6172 0.10938 1.0352-0.007813 1.3789-0.74609 1.5742 0.51562 0.85547 1.1641 0.74219 1.0742 1.668 1.2969 1.1055 0.21875 2.3203 0.03125 1.2148 0.042968 1.5273 0.83203 0.66406 1.0352 1.0977 0.48047 1.1953 0.019531 0.28906 1.0078 1.5898-0.19141 1.0312 0.53125 0.50391 1.1445 0.73438 0.95703 0.96484 1.5352h1.3047l1.1562 1.0742 1.1133 0.03125 2.5117 0.33203 1.5898-0.28125 1.0938-0.45312 1.0664 0.82422 0.79297 0.64453 0.88281 0.75391 0.99609 0.10938 1.0977-0.10938-0.53516 1.043-0.60547 1.3945-0.37891 2.1406-0.15234 2.0898-0.18359 1.0625-0.17578 1.4727-0.60938 1.1445-0.078125 1.7969 0.34375 1.4258-0.28516 1.2344-1.4922 1.0195-0.70703 0.88672 0.023438 1.7734 0.26172 1.4648 0.23047 1.3711 0.12109 1.1719 0.3125 1.9023-0.41797 1.0273-0.67969 0.84766-1.7266 1.1055-0.42188 1.8398 0.23047 1.0352 0.011719 1.4453-1.0156 2.8867-1.418 0.96094-2.9141 3.0664-1.3359 1.0352-1.0234 1.2852-1.5078 1.5977-1.5859 1.6367-0.93359 0.41406-2.1719 0.35156-1.2539-0.40234-1.0352-0.67188-2.8867-2.332-2.5117-1.2578-3.0742-0.55078-2.6211-0.52344-1.8398-0.14844-1.625-0.3125-2.6445 0.058594-1.293 0.24219-1.8398-0.51172-2.3008-0.042968-1.3164 0.35547-1.707 0.87109-0.96484 0.86328-1.5391 1.0469-1.6875 0.58203-1.9492 3.1133-1.0039 0.55469-1.7461-0.91016-1.3867-1.2891-1.0273-1.1016-0.82422-1.6523-1.0117-2.0352-0.45703-1.0703-0.50391-1.1719-0.40234-1.3242 0.1875-2.6211 0.35156-1.2539 0.47656-1.4297 1.375-2.1523 2.582-1.6797 2.0664-2.0234 0.98828-2.3203 1.4531-1.6836 1.8633-3.6094 0.42969-2.0664-0.25781-1.4648-1.2578-1.6562-4.9336-4.3008-3.9023-2.3555-2.5234-1.8359-1.7617-0.99609-0.87891-0.49609-1.1055-1.0508-0.625-0.89062-1.3086-1.9023-1.8359-1.1445-1.5547-1.2539-1.3477-1.082-0.71094-2.082-0.22266-1.9922-0.1875-1.6953-0.85938-1.9531-0.73438-0.95703-1.4922-0.91406-1.0391-0.63672-2.9258-1.0898-2.4648-0.57422-2.0391-0.67969-0.14062-2.7148 0.054688-1.082 0.91797-2.582 0.51953-0.9375 0.78125-1.4062-0.21094-1.6719-1.5469-1.2617-2.5273-0.91797-1.5703-1.0781-0.66797-1.9062-0.015625-2.3398-1.1875-0.58594-4.4766 1.4336h-2.1797l-5.9648-2.6953-5.4531-0.97656-5.2188-0.57422-4.4609-0.035156-5.5625 1.0039-2.4492 0.89062-1.3164 0.38672-1.875 0.50781-5.5742 1.5156-3.6094-0.019531-1.2812-0.49609-0.83984-0.76953-1.1445-0.34375-1.7969 0.23047-1.625-0.44531 0.21875-1.9102-0.21094-1.9062 0.54297-1.6094 1.043-2.1406-0.03125-1.7461 0.52344-1.3477-0.089844-2.832 0.35156-1.0469v-1.2148l-0.33203-1.1562-0.52344-1.2227-0.42188-1.6914-0.17969-1.5156-1.207-1.0234-0.46094-1.1055-0.039062-1.3164-1.4258-1.6172-0.375-1.2148-0.33984-1.5508-0.45312-0.89062-1.1055-2.7656 0.11328-1.375 0.078125-1.75-0.027343-1.3047z" fill="#ccc" fill-rule="evenodd"/>
<path d="m179.8 289.9 0.97656 1.1836 1.6484 1.5078 0.89453 0.60547 1.4648 0.019531 1.4883 0.90234 1.3164-0.5625 1.2148 0.92578 1.2969 0.19922 0.89453 0.59375 0.99219-0.17188 0.57422 0.93359 1.5664 0.082032 1.5156 0.63281 1.0469-0.30078 1.457 0.49219 1.0234 0.10156 1.1953 0.42188 2.3828 0.74219 1.7266 0.95312 1.1445 0.16406 1.1172 0.76172 1.5078 0.60156 0.96484 1.1367 0.76172 1.5156 0.72266 1.4688 0.79688 1.4062 0.70312 0.88281 1.2344 0.26172 4-0.47266 2.4414 0.42188h1.6055l2.8047-1.0352 1.1328-0.25 1.0781 1.1055 1.707 1.1836 2.7812 0.61328 1.0742 0.58594 1.3398 0.12891 1.2148-0.23047 1.0625-0.089843 1.0156 0.078125 1.6797-0.30859 1.457-0.16406 1.9883 0.43359 4.9258-0.19922 2.1797-0.26953 2.3906-0.089844 2.4805 0.44531 3.1406 1.9141 1.5156 1.5156 1.082 1.0859 1.7344 1.5039 2.5234 0.85938 2.1797 1.4922 1.7812 0.6875 1.2617 0.86328 1.2617 1.2031 2.8125 1.7227 1.8047 0.5625 2.4414 1.1562 1.2617 1.0938 0.80078 1.8906 0.66406 3.3828 1.9766 4.7656 0.23047 1.7383-0.003906 2.4844-1.2656 2.8906 0.51562 1.6016 2.3203 1.8164 1.0742 0.23438 1.4375 0.14062 1.418 1.5938 0.80078 0.78516 1.0664 0.77344 0.95312 0.44141 1.0586 0.85547 1.0742 0.73438 0.96484-1.3789 1.043-0.32031 1.6172 0.10938 1.0352-0.007813 1.3789-0.74609 1.5742 0.51562 0.85547 1.1641 0.74219 1.0742 1.668 1.2969 1.1055 0.21875 2.3203 0.03125 1.2148 0.042968 1.5273 0.83203 0.66406 1.0352 1.0977 0.48047 1.1953 0.019531 0.28906 1.0078 1.5898-0.19141 1.0312 0.53125 0.50391 1.1445 0.73438 0.95703 0.96484 1.5352h1.3047l1.1562 1.0742 1.1133 0.03125 2.5117 0.33203 1.5898-0.28125 1.0938-0.45312 1.0664 0.82422 0.79297 0.64453 0.88281 0.75391 0.99609 0.10938 1.0977-0.10938-0.53516 1.043-0.60547 1.3945-0.37891 2.1406-0.15234 2.0898-0.18359 1.0625-0.17578 1.4727-0.60938 1.1445-0.078125 1.7969 0.34375 1.4258-0.28516 1.2344-1.4922 1.0195-0.70703 0.88672 0.023438 1.7734 0.26172 1.4648 0.23047 1.3711 0.12109 1.1719 0.3125 1.9023-0.41797 1.0273-0.67969 0.84766-1.7266 1.1055-0.42188 1.8398 0.23047 1.0352 0.011719 1.4453-1.0156 2.8867-1.418 0.96094-2.9141 3.0664-1.3359 1.0352-1.0234 1.2852-1.5078 1.5977-1.5859 1.6367-0.93359 0.41406-2.1719 0.35156-1.2539-0.40234-1.0352-0.67188-2.8867-2.332-2.5117-1.2578-3.0742-0.55078-2.6211-0.52344-1.8398-0.14844-1.625-0.3125-2.6445 0.058594-1.293 0.24219-1.8398-0.51172-2.3008-0.042968-1.3164 0.35547-1.707 0.87109-0.96484 0.86328-1.5391 1.0469-1.6875 0.58203-1.9492 3.1133-1.0039 0.55469-1.7461-0.91016-1.3867-1.2891-1.0273-1.1016-0.82422-1.6523-1.0117-2.0352-0.45703-1.0703-0.50391-1.1719-0.40234-1.3242 0.1875-2.6211 0.35156-1.2539 0.47656-1.4297 1.375-2.1523 2.582-1.6797 2.0664-2.0234 0.98828-2.3203 1.4531-1.6836 1.8633-3.6094 0.42969-2.0664-0.25781-1.4648-1.2578-1.6562-4.9336-4.3008-3.9023-2.3555-2.5234-1.8359-1.7617-0.99609-0.87891-0.49609-1.1055-1.0508-0.625-0.89062-1.3086-1.9023-1.8359-1.1445-1.5547-1.2539-1.3477-1.082-0.71094-2.082-0.22266-1.9922-0.1875-1.6953-0.85938-1.9531-0.73438-0.95703-1.4922-0.91406-1.0391-0.63672-2.9258-1.0898-2.4648-0.57422-2.0391-0.67969-0.14062-2.7148 0.054688-1.082 0.91797-2.582 0.51953-0.9375 0.78125-1.4062-0.21094-1.6719-1.5469-1.2617-2.5273-0.91797-1.5703-1.0781-0.66797-1.9062-0.015625-2.3398-1.1875-0.58594-4.4766 1.4336h-2.1797l-5.9648-2.6953-5.4531-0.97656-5.2188-0.57422-4.4609-0.035156-5.5625 1.0039-2.4492 0.89062-1.3164 0.38672-1.875 0.50781-5.5742 1.5156-3.6094-0.019531-1.2812-0.49609-0.83984-0.76953-1.1445-0.34375-1.7969 0.23047-1.625-0.44531 0.21875-1.9102-0.21094-1.9062 0.54297-1.6094 1.043-2.1406-0.03125-1.7461 0.52344-1.3477-0.089844-2.832 0.35156-1.0469v-1.2148l-0.33203-1.1562-0.52344-1.2227-0.42188-1.6914-0.17969-1.5156-1.207-1.0234-0.46094-1.1055-0.039062-1.3164-1.4258-1.6172-0.375-1.2148-0.33984-1.5508-0.45312-0.89062-1.1055-2.7656 0.11328-1.375 0.078125-1.75-0.027343-1.3047 0.60938 1.2461" fill="none" stroke="#fff" stroke-linecap="round" stroke-linejoin="round" stroke-miterlimit="10" stroke-width="2"/>
<path d="m280.2 235.94 1.168 1.2148 0.66797 1.2695-0.15625 1.3828-0.9375 1.3867-2.375 1.75-1.5898 3.5977-1.7266 2.1445-0.1875 1.168 0.75391 1.1523 0.82422 1.0156 0.87109 0.97656 0.69922 0.97656 0.76172 0.74609 1.582 1.3516 1.1445 0.75391 1.0234 0.42969 1.1758 0.65625 2.0898 1.4023 2.0586 1.582 1.0273 0.97266 1.125 1.375 1.1328 0.99609 1.1055 1.4883 0.21094 1.293 1.6602 0.98828 1.5977 2.2695 2.6992 2.6211 2.2734 1.6367 1.125 0.98438 1.1133 0.50391 2.1016 0.70312 0.84375 0.8125 1.2188 0.066406 1.5625-0.40625 0.82422-1.0039 0.66406-1.1445 1.1445-0.61328 1.5195-0.97656 1.543-1.5234 1.1562-0.82812 1.207-1.2148 1.0742-0.76172 1.0977-1.0469 0.8125-0.63281 1.4609-1.5859 0.75781-1.0078 0.9375-0.69141 1.8164-0.015625 0.92578 0.46875 1.1133 0.55859 1.0273-0.058594 1.2461 0.12109 0.60938 0.95703 0.79688 0.92188 1.3438 0.37109 1.4375-0.12109 1.4453 0.12109 1.0859 0.34375 2.1016 1.043 1.1133 0.30078 1.7695 0.40234 1.0625 0.70703 0.89844 0.53906 2.0664 1.1562 1.0547 0.49219 1.6602 1.6797 2.2812 0.65234 1.5859-0.082031 2.0586 1.2383 1.0039 1.0742 0.58594 0.94531 0.77344 0.97266 1.2539 1.6094 2.2227 1.9258 1.0352 0.5625 1.2031 1.5078 0.94531 0.86328 1.0156 1.8398 1.8984 1.0664 1.5781 0.35938 1.3164 0.66406 1.5742 0.75391 1.1367 0.36328 1.5156 0.86328 1.0977 0.66406 1.0547 1.9961 1.1641 1.1367 1.0977 0.8125 1.4141 0.011718-1.3594 1.6367-0.84375 0.59766-1.0078 0.92969v1.4805l0.60547 1.0625 0.41797 1.2891-0.64453 0.79688-1.6328 1.1406-0.75781 1.1367-0.41797 1.3281-0.91016 1.1367-0.72266 0.98828-0.75781 0.75781-0.79688 0.67969-1.0547 0.49219-0.69922 1.1719-0.82031 0.90625-0.32422 1.1016-0.75391 0.78125-0.93359-0.48438-1.4961 0.46094-1.2109 0.34766-1.375-0.17969-1.2812-0.015625-2.0312 1.5859-0.90625 0.60547-1.2031-0.54297-1.0156 0.75-0.92188 1.0352 0.20703 1.8125 0.37891 1.4062-0.94922 0.83203-0.71875 1.3281-0.84375 1.4297-0.79688 0.73828-0.65234 1.2852-1 0.50391-1.0859 1.3008-0.64062 0.88281-0.85547 0.67578-1.3242-0.41797-0.74609 1.7188 0.30469 1.6992 0.32812 1.9766 0.09375 1.1211 0.38281 1.2617 0.070313 1.0039-0.49219 1.0391-0.71094 1.5547-0.47656 0.88281-0.75 1.0781-0.52734 1.5547-0.69922 0.98828v1.8984l-0.41016 2.1641-0.32422 1.0156 0.17969 1.0547 0.054688 1.4414-0.84375 1.082-0.66797 0.76172-0.78125 0.97266-1.9883 1.3594-0.95703 0.37109-0.96484 0.80859-1.4766 1.0977-1.418 1.1719-0.78125 1.4414-1.0234 0.21094-1.3281-0.12891-0.88281-0.75391-0.79297-0.64453-0.83594-0.86328-1.3242 0.49219-1.5898 0.28125-2.5117-0.33203-1.1133-0.03125-0.82422-0.88281-1.6367-0.19141-0.79297-1.2148-0.90625-1.2773-0.50391-1.1445-1.0312-0.53125-1.0078 0.62109-0.87109-1.4375-1.1953-0.019531-1.0977-0.48047-0.66406-1.0352-1.5273-0.83203-1.2148-0.042968-1.4766-0.51172-1.3867 0.44141-2.2305-1.4766-0.74219-1.0742-0.85547-1.1641-1.082-0.53516-1.3164 0.54297-0.98438 0.54297-1.5586-0.50391-1.1641-0.058593-0.78516 1.4375-1.1367 0.21094-1.7188-1.3984-0.95312-0.44141-1.0039-0.71094-0.86328-0.84766-1.418-1.5938-1.4375-0.14062-1.0742-0.23438-1.7578-1.2227-1.0781-2.1953 1.2656-2.8906 0.003906-2.4844-0.23047-1.7383-1.8047-3.8906-0.83594-4.2578-0.80078-1.8906-1.2617-1.0938-1.4922-0.85938-2.7539-0.85938-2.8125-1.7227-1.2617-1.2031-1.2617-0.86328-1.7812-0.6875-2.1797-1.4922-2.5234-0.85938-1.7344-1.5039-0.085937-5.1328-0.26953-1.6523-1.0078-2.1484-0.88672-1.1523-0.55469-1.4844-0.22656-2.0273-0.45312-1.8398-0.76953-1.875-1.1992-1.1367-1.4805-0.83594-1.2227-1.3125-0.03125-1.293 0.85938-1.75 0.1875-1.2578-0.33984-1.7539-1.1406-2.7695-1.2188-5.0664-0.76172-1.6406-0.65625-1.4141-1.668-3.5977-0.48828-1.6367 0.36328-2.3438 0.10156-1.8711-0.56641-0.90625-1.082-0.51562-0.47656-1.625-0.16406-1.2266-0.12109-1.7695 0.074219-1.4258-0.6875-1.6484 0.93359-2.5781 0.36719-2.582 0.71484-1.8672 1.0312-1.2773 1.0312-1.0586 0.8125-2.0391 1.8438-1.4492 3.3398-1.5742 1.7969-0.84375 3.1445-0.85156 2.2344-0.17188 1.8438-0.14062 2.0742-0.31641 1.6523-0.69141 2.5156-1.4336 0.95703-0.89844 0.78516-0.73828 1.3281-1.25 1.1602-0.66797 1.0547-0.10938 1.0625-0.042968 1.375-0.55469 2.375-1.3359z" fill="#0a5394" fill-rule="evenodd"/>
<path d="m280.2 235.94 1.168 1.2148 0.66797 1.2695-0.15625 1.3828-0.9375 1.3867-2.375 1.75-1.5898 3.5977-1.7266 2.1445-0.1875 1.168 0.75391 1.1523 0.82422 1.0156 0.87109 0.97656 0.69922 0.97656 0.76172 0.74609 1.582 1.3516 1.1445 0.75391 1.0234 0.42969 1.1758 0.65625 2.0898 1.4023 2.0586 1.582 1.0273 0.97266 1.125 1.375 1.1328 0.99609 1.1055 1.4883 0.21094 1.293 1.6602 0.98828 1.5977 2.2695 2.6992 2.6211 2.2734 1.6367 1.125 0.98438 1.1133 0.50391 2.1016 0.70312 0.84375 0.8125 1.2188 0.066406 1.5625-0.40625 0.82422-1.0039 0.66406-1.1445 1.1445-0.61328 1.5195-0.97656 1.543-1.5234 1.1562-0.82812 1.207-1.2148 1.0742-0.76172 1.0977-1.0469 0.8125-0.63281 1.4609-1.5859 0.75781-1.0078 0.9375-0.69141 1.8164-0.015625 0.92578 0.46875 1.1133 0.55859 1.0273-0.058594 1.2461 0.12109 0.60938 0.95703 0.79688 0.92188 1.3438 0.37109 1.4375-0.12109 1.4453 0.12109 1.0859 0.34375 2.1016 1.043 1.1133 0.30078 1.7695 0.40234 1.0625 0.70703 0.89844 0.53906 2.0664 1.1562 1.0547 0.49219 1.6602 1.6797 2.2812 0.65234 1.5859-0.082031 2.0586 1.2383 1.0039 1.0742 0.58594 0.94531 0.77344 0.97266 1.2539 1.6094 2.2227 1.9258 1.0352 0.5625 1.2031 1.5078 0.94531 0.86328 1.0156 1.8398 1.8984 1.0664 1.5781 0.35938 1.3164 0.66406 1.5742 0.75391 1.1367 0.36328 1.5156 0.86328 1.0977 0.66406 1.0547 1.9961 1.1641 1.1367 1.0977 0.8125 1.4141 0.011718-1.3594 1.6367-0.84375 0.59766-1.0078 0.92969v1.4805l0.60547 1.0625 0.41797 1.2891-0.64453 0.79688-1.6328 1.1406-0.75781 1.1367-0.41797 1.3281-0.91016 1.1367-0.72266 0.98828-0.75781 0.75781-0.79688 0.67969-1.0547 0.49219-0.69922 1.1719-0.82031 0.90625-0.32422 1.1016-0.75391 0.78125-0.93359-0.48438-1.4961 0.46094-1.2109 0.34766-1.375-0.17969-1.2812-0.015625-2.0312 1.5859-0.90625 0.60547-1.2031-0.54297-1.0156 0.75-0.92188 1.0352 0.20703 1.8125 0.37891 1.4062-0.94922 0.83203-0.71875 1.3281-0.84375 1.4297-0.79688 0.73828-0.65234 1.2852-1 0.50391-1.0859 1.3008-0.64062 0.88281-0.85547 0.67578-1.3242-0.41797-0.74609 1.7188 0.30469 1.6992 0.32812 1.9766 0.09375 1.1211 0.38281 1.2617 0.070313 1.0039-0.49219 1.0391-0.71094 1.5547-0.47656 0.88281-0.75 1.0781-0.52734 1.5547-0.69922 0.98828v1.8984l-0.41016 2.1641-0.32422 1.0156 0.17969 1.0547 0.054688 1.4414-0.84375 1.082-0.66797 0.76172-0.78125 0.97266-1.9883 1.3594-0.95703 0.37109-0.96484 0.80859-1.4766 1.0977-1.418 1.1719-0.78125 1.4414-1.0234 0.21094-1.3281-0.12891-0.88281-0.75391-0.79297-0.64453-0.83594-0.86328-1.3242 0.49219-1.5898 0.28125-2.5117-0.33203-1.1133-0.03125-0.82422-0.88281-1.6367-0.19141-0.79297-1.2148-0.90625-1.2773-0.50391-1.1445-1.0312-0.53125-1.0078 0.62109-0.87109-1.4375-1.1953-0.019531-1.0977-0.48047-0.66406-1.0352-1.5273-0.83203-1.2148-0.042968-1.4766-0.51172-1.3867 0.44141-2.2305-1.4766-0.74219-1.0742-0.85547-1.1641-1.082-0.53516-1.3164 0.54297-0.98438 0.54297-1.5586-0.50391-1.1641-0.058593-0.78516 1.4375-1.1367 0.21094-1.7188-1.3984-0.95312-0.44141-1.0039-0.71094-0.86328-0.84766-1.418-1.5938-1.4375-0.14062-1.0742-0.23438-1.7578-1.2227-1.0781-2.1953 1.2656-2.8906 0.003906-2.4844-0.23047-1.7383-1.8047-3.8906-0.83594-4.2578-0.80078-1.8906-1.2617-1.0938-1.4922-0.85938-2.7539-0.85938-2.8125-1.7227-1.2617-1.2031-1.2617-0.86328-1.7812-0.6875-2.1797-1.4922-2.5234-0.85938-1.7344-1.5039-0.085937-5.1328-0.26953-1.6523-1.0078-2.1484-0.88672-1.1523-0.55469-1.4844-0.22656-2.0273-0.45312-1.8398-0.76953-1.875-1.1992-1.1367-1.4805-0.83594-1.2227-1.3125-0.03125-1.293 0.85938-1.75 0.1875-1.2578-0.33984-1.7539-1.1406-2.7695-1.2188-5.0664-0.76172-1.6406-0.65625-1.4141-1.668-3.5977-0.48828-1.6367 0.36328-2.3438 0.10156-1.8711-0.56641-0.90625-1.082-0.51562-0.47656-1.625-0.16406-1.2266-0.12109-1.7695 0.074219-1.4258-0.6875-1.6484 0.93359-2.5781 0.36719-2.582 0.71484-1.8672 1.0312-1.2773 1.0312-1.0586 0.8125-2.0391 1.8438-1.4492 3.3398-1.5742 1.7969-0.84375 3.1445-0.85156 2.2344-0.17188 1.8438-0.14062 2.0742-0.31641 1.6523-0.69141 2.5156-1.4336 0.95703-0.89844 0.78516-0.73828 1.3281-1.25 1.1602-0.66797 1.0547-0.10938 1.0625-0.042968 1.375-0.55469 2.375-1.3359 1.2109 2.7578" fill="none" stroke="#fff" stroke-linecap="round" stroke-linejoin="round" stroke-miterlimit="10"/>
<path d="m285.61 294.1c0 3.5898-2.9102 6.5-6.5 6.5s-6.5-2.9102-6.5-6.5c0-3.5898 2.9102-6.5 6.5-6.5s6.5 2.9102 6.5 6.5" fill="#28c028" fill-rule="evenodd" stroke="#000" stroke-linecap="round" stroke-linejoin="round" stroke-miterlimit="10"/>
<path d="m185.77 282.74 3.2344-0.3125c0.19531 1.0859 0.59375 1.8828 1.1875 2.3906 0.59375 0.51172 1.3945 0.76562 2.4062 0.76562 1.0703 0 1.8789-0.22266 2.4219-0.67188 0.53906-0.45703 0.8125-0.98828 0.8125-1.5938 0-0.39453-0.11719-0.72656-0.34375-1-0.23047-0.26953-0.625-0.50391-1.1875-0.70312-0.39844-0.13281-1.2891-0.375-2.6719-0.71875-1.7812-0.44531-3.0312-0.99219-3.75-1.6406-1.0117-0.90625-1.5156-2.0078-1.5156-3.3125 0-0.83203 0.23828-1.6133 0.71875-2.3438 0.47656-0.72656 1.1602-1.2852 2.0469-1.6719 0.89453-0.38281 1.9766-0.57812 3.25-0.57812 2.0625 0 3.6133 0.45312 4.6562 1.3594 1.0508 0.90625 1.6016 2.1172 1.6562 3.625l-3.3281 0.15625c-0.14844-0.84375-0.45312-1.4531-0.92188-1.8281-0.46094-0.375-1.1562-0.5625-2.0938-0.5625-0.96875 0-1.7305 0.20312-2.2812 0.60938-0.34375 0.25-0.51562 0.58984-0.51562 1.0156 0 0.38672 0.16016 0.71875 0.48438 1 0.42578 0.35547 1.4453 0.72656 3.0625 1.1094 1.6133 0.375 2.8047 0.76562 3.5781 1.1719 0.78125 0.40625 1.3906 0.96484 1.8281 1.6719 0.4375 0.71094 0.65625 1.5859 0.65625 2.625 0 0.94922-0.26562 1.8359-0.79688 2.6562-0.52344 0.82422-1.2617 1.4375-2.2188 1.8438-0.96094 0.39453-2.1523 0.59375-3.5781 0.59375-2.0859 0-3.6836-0.47656-4.7969-1.4375-1.1172-0.96875-1.7812-2.375-2-4.2188zm16.203 5.3594v-16.469h3.3281v6.4844h6.5v-6.4844h3.3281v16.469h-3.3281v-7.2031h-6.5v7.2031zm16.5 0v-16.469h3.3125v16.469zm6.5 0v-16.469h7c1.7578 0 3.0352 0.15234 3.8281 0.45312 0.80078 0.29297 1.4414 0.82031 1.9219 1.5781 0.47656 0.75 0.71875 1.6172 0.71875 2.5938 0 1.2305-0.36719 2.25-1.0938 3.0625-0.73047 0.80469-1.8203 1.3086-3.2656 1.5156 0.71875 0.41797 1.3125 0.88281 1.7812 1.3906 0.46875 0.5 1.0977 1.3867 1.8906 2.6562l2.0156 3.2188h-3.9688l-2.4062-3.5781c-0.85547-1.2812-1.4375-2.0859-1.75-2.4219-0.3125-0.33203-0.64844-0.5625-1-0.6875-0.35547-0.125-0.91406-0.1875-1.6719-0.1875h-0.67188v6.875zm3.3281-9.5h2.4531c1.5938 0 2.5859-0.066406 2.9844-0.20312 0.39453-0.13281 0.70312-0.36328 0.92188-0.6875 0.22656-0.33203 0.34375-0.75 0.34375-1.25 0-0.55078-0.14844-0.99219-0.4375-1.3281-0.29297-0.34375-0.71094-0.5625-1.25-0.65625-0.27344-0.03125-1.0781-0.046875-2.4219-0.046875h-2.5938zm28.109 9.5h-3.6094l-1.4375-3.7344h-6.5781l-1.3594 3.7344h-3.5312l6.4062-16.469h3.5156zm-6.1094-6.5156-2.2812-6.1094-2.2188 6.1094zm18.406 0.46875 3.2344 1.0156c-0.5 1.793-1.3281 3.125-2.4844 4-1.1484 0.875-2.6016 1.3125-4.3594 1.3125-2.1875 0-3.9844-0.74219-5.3906-2.2344-1.4062-1.5-2.1094-3.5469-2.1094-6.1406 0-2.7383 0.70312-4.8633 2.1094-6.375 1.4141-1.5195 3.2812-2.2812 5.5938-2.2812 2.0078 0 3.6445 0.60156 4.9062 1.7969 0.75 0.69922 1.3125 1.7109 1.6875 3.0312l-3.2969 0.78125c-0.19922-0.85156-0.60547-1.5234-1.2188-2.0156-0.61719-0.5-1.3672-0.75-2.25-0.75-1.2188 0-2.2109 0.4375-2.9688 1.3125-0.76172 0.875-1.1406 2.2969-1.1406 4.2656 0 2.0742 0.375 3.5547 1.125 4.4375 0.75 0.88672 1.7227 1.3281 2.9219 1.3281 0.88281 0 1.6445-0.28125 2.2812-0.84375 0.63281-0.5625 1.0859-1.4414 1.3594-2.6406zm0 0" fill="none" stroke="#fff" stroke-linecap="round" stroke-linejoin="round" stroke-miterlimit="10" stroke-width="2"/>
<path d="m185.77 282.74 3.2344-0.3125c0.19531 1.0859 0.59375 1.8828 1.1875 2.3906 0.59375 0.51172 1.3945 0.76562 2.4062 0.76562 1.0703 0 1.8789-0.22266 2.4219-0.67188 0.53906-0.45703 0.8125-0.98828 0.8125-1.5938 0-0.39453-0.11719-0.72656-0.34375-1-0.23047-0.26953-0.625-0.50391-1.1875-0.70312-0.39844-0.13281-1.2891-0.375-2.6719-0.71875-1.7812-0.44531-3.0312-0.99219-3.75-1.6406-1.0117-0.90625-1.5156-2.0078-1.5156-3.3125 0-0.83203 0.23828-1.6133 0.71875-2.3438 0.47656-0.72656 1.1602-1.2852 2.0469-1.6719 0.89453-0.38281 1.9766-0.57812 3.25-0.57812 2.0625 0 3.6133 0.45312 4.6562 1.3594 1.0508 0.90625 1.6016 2.1172 1.6562 3.625l-3.3281 0.15625c-0.14844-0.84375-0.45312-1.4531-0.92188-1.8281-0.46094-0.375-1.1562-0.5625-2.0938-0.5625-0.96875 0-1.7305 0.20312-2.2812 0.60938-0.34375 0.25-0.51562 0.58984-0.51562 1.0156 0 0.38672 0.16016 0.71875 0.48438 1 0.42578 0.35547 1.4453 0.72656 3.0625 1.1094 1.6133 0.375 2.8047 0.76562 3.5781 1.1719 0.78125 0.40625 1.3906 0.96484 1.8281 1.6719 0.4375 0.71094 0.65625 1.5859 0.65625 2.625 0 0.94922-0.26562 1.8359-0.79688 2.6562-0.52344 0.82422-1.2617 1.4375-2.2188 1.8438-0.96094 0.39453-2.1523 0.59375-3.5781 0.59375-2.0859 0-3.6836-0.47656-4.7969-1.4375-1.1172-0.96875-1.7812-2.375-2-4.2188zm16.203 5.3594v-16.469h3.3281v6.4844h6.5v-6.4844h3.3281v16.469h-3.3281v-7.2031h-6.5v7.2031zm16.5 0v-16.469h3.3125v16.469zm6.5 0v-16.469h7c1.7578 0 3.0352 0.15234 3.8281 0.45312 0.80078 0.29297 1.4414 0.82031 1.9219 1.5781 0.47656 0.75 0.71875 1.6172 0.71875 2.5938 0 1.2305-0.36719 2.25-1.0938 3.0625-0.73047 0.80469-1.8203 1.3086-3.2656 1.5156 0.71875 0.41797 1.3125 0.88281 1.7812 1.3906 0.46875 0.5 1.0977 1.3867 1.8906 2.6562l2.0156 3.2188h-3.9688l-2.4062-3.5781c-0.85547-1.2812-1.4375-2.0859-1.75-2.4219-0.3125-0.33203-0.64844-0.5625-1-0.6875-0.35547-0.125-0.91406-0.1875-1.6719-0.1875h-0.67188v6.875zm3.3281-9.5h2.4531c1.5938 0 2.5859-0.066406 2.9844-0.20312 0.39453-0.13281 0.70312-0.36328 0.92188-0.6875 0.22656-0.33203 0.34375-0.75 0.34375-1.25 0-0.55078-0.14844-0.99219-0.4375-1.3281-0.29297-0.34375-0.71094-0.5625-1.25-0.65625-0.27344-0.03125-1.0781-0.046875-2.4219-0.046875h-2.5938zm28.109 9.5h-3.6094l-1.4375-3.7344h-6.5781l-1.3594 3.7344h-3.5312l6.4062-16.469h3.5156zm-6.1094-6.5156-2.2812-6.1094-2.2188 6.1094zm18.406 0.46875 3.2344 1.0156c-0.5 1.793-1.3281 3.125-2.4844 4-1.1484 0.875-2.6016 1.3125-4.3594 1.3125-2.1875 0-3.9844-0.74219-5.3906-2.2344-1.4062-1.5-2.1094-3.5469-2.1094-6.1406 0-2.7383 0.70312-4.8633 2.1094-6.375 1.4141-1.5195 3.2812-2.2812 5.5938-2.2812 2.0078 0 3.6445 0.60156 4.9062 1.7969 0.75 0.69922 1.3125 1.7109 1.6875 3.0312l-3.2969 0.78125c-0.19922-0.85156-0.60547-1.5234-1.2188-2.0156-0.61719-0.5-1.3672-0.75-2.25-0.75-1.2188 0-2.2109 0.4375-2.9688 1.3125-0.76172 0.875-1.1406 2.2969-1.1406 4.2656 0 2.0742 0.375 3.5547 1.125 4.4375 0.75 0.88672 1.7227 1.3281 2.9219 1.3281 0.88281 0 1.6445-0.28125 2.2812-0.84375 0.63281-0.5625 1.0859-1.4414 1.3594-2.6406z" fill-rule="evenodd"/>
</g>
</svg>
