<?xml version="1.0" encoding="UTF-8"?>
<svg width="305pt" height="500pt" version="1.1" viewBox="0 0 305 500" xmlns="http://www.w3.org/2000/svg">
<g id="a">
<rect width="305" height="500" fill="none"/>
<path d="m146.65 0.70312 0.32812 0.015625 1.207 0.17969 0.94531 0.50781 1.0117-0.71094 0.57422 0.85547 0.82812 1.1914 0.71875-1.1953 0.66016-1.2031 1.2578 0.03125 0.85156 0.88281 1.2617-0.003907 1.2109 0.39844 1.1758 0.25 0.62891 0.80469 1.0938-0.011718 1.3984-0.91797 1.7617 1.8594 0.74219 1.8242 1.043 2.4922 6.8164 7.8867 1.5391 1.6992 1.9688 2.2461 1.3633 1.4062 5.4766 4.3672-1.8828 2.3594 2.0469 2.4648 2.9492 2.0156-2.0547 7.4062-0.082032 1.3867 2.6602 3.2188-1.1094 1.1602-3.7109 3.8125-1.3438 1.3828-1.8984 2.3047-1.0273 2.5703-0.6875 1.5273-1.793 1.8203-2.7305 1.0664-1.5039 0.54297-2.1875 0.23828-2.2188-0.23438-1.207 0.0625-1.5547 0.35547-1.3516 0.92969-1.5391 1.5-1.6523 1.6289-0.96484 1.3516-0.66016 1.6562-1.125 10.234-0.042969 1.3359 0.22266 1.1484 1.3203 1.9805 0.76953 1.0117 1.6797-0.35938 9.3516-4.5898 0.074219 2.668-0.78516 4.543 1.1133-0.007813 0.33203 2.8242 0.125 1.7266 3.6797-0.43359 0.26953-1.5039 0.64062-0.97266 0.9375-0.62109 0.23438-1.1836 1.0273-0.52734 1.2109-0.64062 0.71875-0.96875 1.4805-0.35938 1.0938-0.89453 0.50781-1.0352 0.45312-1.1758 1.3164-1.2578 0.99219-0.70703 1.3594-0.52344 0.10938-1.332 0.67969-0.74609 0.86719-0.92578 0.92969-0.49219 0.93359-0.42578 0.53125-1.0391 0.18359-1.0586 0.92188-0.42969 0.42188-1.207 0.74609-0.67578 1.0352-0.35156 0.45703-0.94922 1.3867-0.12109 1.5078 0.375 0.64453 1.0859 0.9375 1.2422 0.96484 0.53516 0.77344 0.69922 1.3477 0.85938 0.59375 0.83594-0.27734 1.6016-0.75391 1.4805 0.82812 1.7109 0.79688 0.625-0.027344 1.543 0.86328 1.1094-0.28906 1.875-0.046875 1.0469 0.20312 1.3242-0.66797 0.82031-0.96484 1.0703-0.89844 1.1328-0.23047 1.1641-0.36719 1.3125-0.18359 0.99219 0.67188 1.0547 0.82031 1.0117 0.57031 1.0117 0.78125 0.70703 1.0312 0.50391 0.89062 0.58594 1.0117 1.0312 0.98047 0.69141 1.1719-0.28906 1.3828 0.30859 1.3984 0.34766 1.4453 0.089844 1.0508-0.21094 1.1914-0.57422 1.457 0.22656 1.7891 1.1562 1.1602 0.6875 0.96484 0.41406 0.96875 2.043 0.90625 0.89062 1.125 1.5234 0.41797 1.1055 0.51172 1.1562 0.5625 0.97656 0.14062 1.125 0.33203 1.375 0.24219 1.4609-0.3125 1.3047 0.19922 1.4102 0.17188 1.2109 0.91406 1.1094 0.67969 1.2461 0.45312 1.0469 0.19141 1.707 0.25391 1.3125 0.78516 1.207-0.089844 1.5469-0.17188 1 0.375 1.2656 0.31641 1.543-0.023438 1.0156 0.089844 1.5898 0.015625 1.2227-0.17578 1.207-0.35547 1.1992-0.50391 1.7852-1.0586 1.0781 0.046875 1.293 1.7656 2.543 0.70703 1.0234 1.0195 1.2188 0.88672 1.2891 0.0625 1.2812-0.73828 0.94141 0.17969 1.3555 0.91406 0.85547 0.71094 0.72656 1.3008 1.5508 0.5625 0.95312 0.19141 1.2109-0.36719 1.75-0.89062 1.7773-0.80859 1.4492-0.85547 1.1758-1.0039 1.3203-0.73047 0.85547-0.69141 1-0.39453 3.0234-0.48828 2.0195-0.46875 1.3984-0.46094 1.0078 0.10547 1.0547 0.011719 1.3242-0.14062 1.0234-0.53906 1.0273-1.207 1.3984-0.99219 0.73438-1 2.1055-0.23047 1.293 0.019531 2.0039-0.43359 1.0547-1.4961 1.7227-0.89062 0.52344-1.1875 0.21094-0.875 0.70312 0.61328 1.957 0.63672 1.3164 0.53906 2.1094-0.28906 1.5586-0.79297 2.168-0.23828 1.6367-0.03125 1.1758 0.25 2.1094-0.64453 1.8555-1.0781 0.6875-1.1133 0.24609-0.96875 0.33984-0.91797 1.0391-1.5938 0.65625-1.3242 1.3047-0.89844 0.79297-1.3516 0.71875-0.26172 1.4609-0.13672 1.5469 0.19531 1.6133 0.058594 1.2891 0.027343 1.3164-0.94922 1.0586-0.59375 0.9375-0.054688 1.1445 0.5625 1.0078 0.007813 1.7344-0.33984 0.98047-1.4258 0.94922 1.3672 0.88672 0.92578 0.85938 0.60938 1.2539 0.44141 1.1875 1.6016 0.94141 1.6953 0.42969 1.3008 0.23438 0.75781 1.0195 0.5 1.5156 1.2812 0.73438 0.86328 1.2266 0.066406 1.2461-0.050781 1.2344 0.17188 2.0078 0.58203 1.1133 0.99609 0.70312 0.96094 0.5 1.0156 0.39453 1.4922 0.62891 0.11328 1.1641-1.1445 1.4727-0.44922 1.5938-0.050781 1.2344-0.45703 1.1914 0.95312 0.75 0.96875 0.58203-1.4102 0.97266-1.125 0.11328h-1.0977l-1.2812-0.12109-1.3672-0.19141-1.6914-0.0625-2.1719-0.26172-1.8516-0.47266-2.0703-0.30859-1.4258-0.20312-1.8359-0.20703-1.3945-0.19141-1.5977-0.36719-1.25-0.35156-1.5859-0.39453-1.5703-0.76562-1.7148-0.83594-0.98438-0.42578-1.5273-0.57422-1.1914-0.46875-1.4648-0.32031-1.4844-0.28125-1.5273-0.5-1.4336 0.058594-1.125 0.24609-1.1836-0.046875-1.3008 0.054688-0.61328-0.88281-0.97266-0.57031-0.98438-0.40234-1.2539-0.10547-1.0547-0.21484-1.2109-0.51953-1.2266 0.042969-1.1719 0.33203-0.59766-0.83203-0.82812-0.94141-1.0117-0.16016-0.88281-0.84766-0.83594-0.69531-1.1484-1.1758-0.57422-0.88672-0.27734-1.0156-0.55469-0.91016-0.47656-0.92578-0.43359-1.4844-0.79297-0.92969-1.0273-0.16016-1.5664-0.1875-0.98438-0.40625-1.0898-0.78516-0.75781-0.73047-0.82812-1.0078-1.3906-1-1.0156-0.46875-1.0078-0.21875-0.97266 0.28125-0.81641 0.60938-1.3359 1.0859-0.85938 0.58203-0.94922 0.37109-1.457 0.38672-1.0117 0.28906-1.1445 0.33594-1.9219 0.38281-3.793 0.19922-1.418 0.089843-0.32812-1.4141-0.56641-1.7578-0.48828-1.3867-0.3125-1.1953-0.48047-0.92188-0.46484-0.92578-0.16797-1.1719-0.90625-0.5 1.4219-0.25 0.125-1.1758-0.0625-1-0.050781-1.1328-0.027344-1.1289-0.20312-1.1562-0.15625-1.0195-0.39453-1.8281-0.44531-1.5039-0.32812-1.082-0.22656-1.0195-0.26953-1.543-0.35156-1.707-0.39453-1.6172-0.26172-1.1289-0.12891-1-0.30078-1.0938-0.33594-0.99219-0.41406-0.95703-0.1875-1-1.0508-0.17969 0.6875-0.79688-0.10547-1.1172-0.51172-1.2461-0.26172-0.98438-0.27734-1.0586-0.48828-1.0391-0.41406-1.082-0.37109-0.97656-0.51562-1.0625-0.30078-1.082-0.38281-0.95312-0.35156-1.0391-0.19141-1.0039-0.32812-1.0117-0.45312-1-0.41406-1.0039-0.13672-1.0078-0.46875-0.98438-0.42188-1.082 0.67969-0.83984-0.26172-1.0859-0.57422-1.0742-0.96094-0.40625-0.96094-0.41016-0.28906-1.0234 0.39453-0.98047-0.13672-0.98828-0.13672-1.0859-1.0586-0.35547 0.64844-0.76562 0.78125-0.82812 0.73047-0.73047 0.89844-0.46094-0.19531-1-0.94531-0.52734-0.054687-1.0508 0.375-0.96484-0.45703-1.0352-0.17578-0.99609-0.21094-1.125-0.097656-1.2734-0.39453-0.96875-0.48047-0.90234-0.39062-1.0195-0.38281-0.99219-0.52344-0.92578-0.49609-1.0898-0.35938-1.0195-0.51562-0.99219-0.41797-1.0703-0.69141-0.93359-0.66406-0.86719-0.53906-0.99219-0.51953-0.90625-0.51562-0.91797-0.54688-0.94922-0.47656-0.99609-0.5625-1.0508-0.55859-1.0039-0.40625-1.1016-0.32422-0.96875-0.38672-1.0508-0.45312-0.89453-0.49609-1.0703-0.39062-0.98438-0.35156-1.0078-0.28125-1.0898-0.29297-1.1328-0.32031-1.0234-0.35547-1.1016-0.30469-1.1016-0.4375-1.0742-0.25-0.98047-0.16406-1.0742-0.13281-1.0508-0.33984-1.0469-0.38281-1.1055-0.14844-1.293-0.25-1.2305-0.57422-1.75-0.32422-0.97656-0.33984-1.082-0.40625-1.5859-0.34375-1.1719-0.37891-1.1211-0.33984-0.98828-0.39844-0.95312-0.38672-1.0195-0.30078-1.1055-0.35938-1.1406-0.38672-1.1875-0.47266-1.0625-0.46094-1.0273-0.44922-1.2656-0.44922-1.3789-0.36719-0.9375-0.47266-0.9375-0.45703-1.1484-0.48828-1.0938-0.33984-1.0352-0.55859-1.0898-0.44922-0.95312-0.39062-0.94922-0.72266-1.1133-0.41406-0.92969-0.43359-0.96094-0.4375-0.92969-0.59375-1.1758-0.49219-0.88672-0.40234-0.94141-0.69922-1.0508-0.50781-1.0312-0.52734-1.1719-0.53516-0.98438-0.51172-0.90625-0.64844-1.0391-0.55469-0.92969-0.625-0.90625-0.51562-0.87891-0.62891-1.1133-0.64062-1.1367-0.58984-1.0234-0.5-1.0195-0.78125-0.98047-0.74609-0.98047-0.59375-0.85938-0.62109-1.3203-0.48438-1.1445-1.1562 0.089843-0.83984 0.57031 0.69531-0.88281 0.92969-0.63281-0.64453-1.0391-0.66016-0.75-0.66406-0.92188-0.55078-1.125-0.53906-1.1914-0.71094-1.0586-0.69141-0.91797-0.72656-0.83203-0.72656-1.0703-0.71094-0.83984-0.77344-0.83203-0.47656-1.0586-0.47266-0.92969-0.59766-0.89844-0.96094-0.75-0.625-0.82031-0.79688-0.73828-0.67188-0.80078-1.0781-0.61328-1.0781-0.18359-1.0391 0.36719-0.60938 0.89844-1.1211 0.23828-0.074219-1.0195-0.86328-0.52344-1.0039-0.046875-0.72266 0.73047-1.0703-0.4375-0.98047 0.66016-1.0586 0.38281-0.76953-0.71875-0.97656 0.65234-0.98047 0.41797-1.0195 0.33984-0.46875-0.99219-0.82031-0.83203-0.77734-0.62891-0.88672 0.50391-1.1523 0.23438-1.0625-0.42578-0.62891-1.0117 0.39844-0.95312 1.0781-0.09375 0.96094-0.33594-0.36328-1.1875 0.94531-0.53516 0.97266-0.45703-0.35156-1.0977-0.070313-1.1133-0.44922-0.90625-1.1445 0.074219-1.0312-0.10156-1.0977 0.20312-1.043-0.046875-1.1016 0.21875-1.1602-0.38281-0.79688-0.66797 0.65625-0.76953-0.99609-0.69141 0.23047-1.0391 0.76172-0.70312 0.66406-0.90625 1.0352-0.66016 1.0469-0.23047 0.17188-1.0078-0.12109-1.2305-0.38672-1.0234-0.5-1.3906-0.58594-1-0.41797-1.0898-0.32031-1.1602-0.35938-1.2344-0.21875-1.1367-0.99219-0.34375-0.78125-0.72656-0.13281-1.0078 0.73438-0.71484 0.64844-0.8125 0.4375-0.91016-0.56641-0.86719-0.58984-0.80859-0.85938-0.53906-1 0.22656 0.085938-1.0039 0.92969-1.25 0.98047-0.95703 1.5469-1.125 0.95703-0.51562 1.125-0.34375 1.0547 0.51562 0.66406 1.125 0.80859 1.0547 0.34375 1.0078 1.0547 0.85547 1.4688 0.22266 1.3008-0.26953 1.1289-0.39453 1.4219 0.074219 2.2734 0.97266 1.3594 0.57812 1.293-0.03125 1.1094-0.58984 0.28906-0.99219-0.75391-2.1367 0.80859-0.9375 1.7109-0.68359 0.94531-0.5 2.0859-0.10156 1.9453 0.25391 1.0742 0.28125 1.1094 0.46875 1.3594 0.46875 1.3438 0.49609 1.043 0.35938 1.1602-0.32812 1.1953-1.332 1.0156-0.53125 1.0898 0.375 1.3438 1.0273 2.168 0.57031 1.9531 0.39062 1.4258-0.21484 1.2812 0.0625 0.69141-1.2578 0.027344-2.3984 1.4297-0.17188 1.4727 0.035157 8.7383 1.8438 0.37891-1.5195 0.70312-1.0938 0.91406-2.4375 0.75-1.3789 1.5195-0.078125 1.3945-0.28125 0.87891-1.2227 0.69531-0.76172 1.1602-0.25 1.3945-0.10156 1.2305 0.074218 1.5352 1.1602 1.2305 0.125 0.99219-0.23828 1.2344-1.168 0.3125-2.0078 0.60547-1.1562 1.2539-0.15625 1.3359 0.33594 1.3281 0.63672 1.3477 0.43359 1.2227 0.60938 0.58594 0.9375 1.3125 0.46094 1.6172-0.074219 1.7148-0.66016 1.1406-0.86719 1.0078-0.22266 1.0859-0.54688 0.8125-1.5547 0.36719-1.418 8.2812-0.79297z" fill="#ccc" fill-rule="evenodd"/>
<path d="m146.65 0.70312 0.32812 0.015625 1.207 0.17969 0.94531 0.50781 1.0117-0.71094 0.57422 0.85547 0.82812 1.1914 0.71875-1.1953 0.66016-1.2031 1.2578 0.03125 0.85156 0.88281 1.2617-0.003907 1.2109 0.39844 1.1758 0.25 0.62891 0.80469 1.0938-0.011718 1.3984-0.91797 1.7617 1.8594 0.74219 1.8242 1.043 2.4922 6.8164 7.8867 1.5391 1.6992 1.9688 2.2461 1.3633 1.4062 5.4766 4.3672-1.8828 2.3594 2.0469 2.4648 2.9492 2.0156-2.0547 7.4062-0.082032 1.3867 2.6602 3.2188-1.1094 1.1602-3.7109 3.8125-1.3438 1.3828-1.8984 2.3047-1.0273 2.5703-0.6875 1.5273-1.793 1.8203-2.7305 1.0664-1.5039 0.54297-2.1875 0.23828-2.2188-0.23438-1.207 0.0625-1.5547 0.35547-1.3516 0.92969-1.5391 1.5-1.6523 1.6289-0.96484 1.3516-0.66016 1.6562-1.125 10.234-0.042969 1.3359 0.22266 1.1484 1.3203 1.9805 0.76953 1.0117 1.6797-0.35938 9.3516-4.5898 0.074219 2.668-0.78516 4.543 1.1133-0.007813 0.33203 2.8242 0.125 1.7266 3.6797-0.43359 0.26953-1.5039 0.64062-0.97266 0.9375-0.62109 0.23438-1.1836 1.0273-0.52734 1.2109-0.64062 0.71875-0.96875 1.4805-0.35938 1.0938-0.89453 0.50781-1.0352 0.45312-1.1758 1.3164-1.2578 0.99219-0.70703 1.3594-0.52344 0.10938-1.332 0.67969-0.74609 0.86719-0.92578 0.92969-0.49219 0.93359-0.42578 0.53125-1.0391 0.18359-1.0586 0.92188-0.42969 0.42188-1.207 0.74609-0.67578 1.0352-0.35156 0.45703-0.94922 1.3867-0.12109 1.5078 0.375 0.64453 1.0859 0.9375 1.2422 0.96484 0.53516 0.77344 0.69922 1.3477 0.85938 0.59375 0.83594-0.27734 1.6016-0.75391 1.4805 0.82812 1.7109 0.79688 0.625-0.027344 1.543 0.86328 1.1094-0.28906 1.875-0.046875 1.0469 0.20312 1.3242-0.66797 0.82031-0.96484 1.0703-0.89844 1.1328-0.23047 1.1641-0.36719 1.3125-0.18359 0.99219 0.67188 1.0547 0.82031 1.0117 0.57031 1.0117 0.78125 0.70703 1.0312 0.50391 0.89062 0.58594 1.0117 1.0312 0.98047 0.69141 1.1719-0.28906 1.3828 0.30859 1.3984 0.34766 1.4453 0.089844 1.0508-0.21094 1.1914-0.57422 1.457 0.22656 1.7891 1.1562 1.1602 0.6875 0.96484 0.41406 0.96875 2.043 0.90625 0.89062 1.125 1.5234 0.41797 1.1055 0.51172 1.1562 0.5625 0.97656 0.14062 1.125 0.33203 1.375 0.24219 1.4609-0.3125 1.3047 0.19922 1.4102 0.17188 1.2109 0.91406 1.1094 0.67969 1.2461 0.45312 1.0469 0.19141 1.707 0.25391 1.3125 0.78516 1.207-0.089844 1.5469-0.17188 1 0.375 1.2656 0.31641 1.543-0.023438 1.0156 0.089844 1.5898 0.015625 1.2227-0.17578 1.207-0.35547 1.1992-0.50391 1.7852-1.0586 1.0781 0.046875 1.293 1.7656 2.543 0.70703 1.0234 1.0195 1.2188 0.88672 1.2891 0.0625 1.2812-0.73828 0.94141 0.17969 1.3555 0.91406 0.85547 0.71094 0.72656 1.3008 1.5508 0.5625 0.95312 0.19141 1.2109-0.36719 1.75-0.89062 1.7773-0.80859 1.4492-0.85547 1.1758-1.0039 1.3203-0.73047 0.85547-0.69141 1-0.39453 3.0234-0.48828 2.0195-0.46875 1.3984-0.46094 1.0078 0.10547 1.0547 0.011719 1.3242-0.14062 1.0234-0.53906 1.0273-1.207 1.3984-0.99219 0.73438-1 2.1055-0.23047 1.293 0.019531 2.0039-0.43359 1.0547-1.4961 1.7227-0.89062 0.52344-1.1875 0.21094-0.875 0.70312 0.61328 1.957 0.63672 1.3164 0.53906 2.1094-0.28906 1.5586-0.79297 2.168-0.23828 1.6367-0.03125 1.1758 0.25 2.1094-0.64453 1.8555-1.0781 0.6875-1.1133 0.24609-0.96875 0.33984-0.91797 1.0391-1.5938 0.65625-1.3242 1.3047-0.89844 0.79297-1.3516 0.71875-0.26172 1.4609-0.13672 1.5469 0.19531 1.6133 0.058594 1.2891 0.027343 1.3164-0.94922 1.0586-0.59375 0.9375-0.054688 1.1445 0.5625 1.0078 0.007813 1.7344-0.33984 0.98047-1.4258 0.94922 1.3672 0.88672 0.92578 0.85938 0.60938 1.2539 0.44141 1.1875 1.6016 0.94141 1.6953 0.42969 1.3008 0.23438 0.75781 1.0195 0.5 1.5156 1.2812 0.73438 0.86328 1.2266 0.066406 1.2461-0.050781 1.2344 0.17188 2.0078 0.58203 1.1133 0.99609 0.70312 0.96094 0.5 1.0156 0.39453 1.4922 0.62891 0.11328 1.1641-1.1445 1.4727-0.44922 1.5938-0.050781 1.2344-0.45703 1.1914 0.95312 0.75 0.96875 0.58203-1.4102 0.97266-1.125 0.11328h-1.0977l-1.2812-0.12109-1.3672-0.19141-1.6914-0.0625-2.1719-0.26172-1.8516-0.47266-2.0703-0.30859-1.4258-0.20312-1.8359-0.20703-1.3945-0.19141-1.5977-0.36719-1.25-0.35156-1.5859-0.39453-1.5703-0.76562-1.7148-0.83594-0.98438-0.42578-1.5273-0.57422-1.1914-0.46875-1.4648-0.32031-1.4844-0.28125-1.5273-0.5-1.4336 0.058594-1.125 0.24609-1.1836-0.046875-1.3008 0.054688-0.61328-0.88281-0.97266-0.57031-0.98438-0.40234-1.2539-0.10547-1.0547-0.21484-1.2109-0.51953-1.2266 0.042969-1.1719 0.33203-0.59766-0.83203-0.82812-0.94141-1.0117-0.16016-0.88281-0.84766-0.83594-0.69531-1.1484-1.1758-0.57422-0.88672-0.27734-1.0156-0.55469-0.91016-0.47656-0.92578-0.43359-1.4844-0.79297-0.92969-1.0273-0.16016-1.5664-0.1875-0.98438-0.40625-1.0898-0.78516-0.75781-0.73047-0.82812-1.0078-1.3906-1-1.0156-0.46875-1.0078-0.21875-0.97266 0.28125-0.81641 0.60938-1.3359 1.0859-0.85938 0.58203-0.94922 0.37109-1.457 0.38672-1.0117 0.28906-1.1445 0.33594-1.9219 0.38281-3.793 0.19922-1.418 0.089843-0.32812-1.4141-0.56641-1.7578-0.48828-1.3867-0.3125-1.1953-0.48047-0.92188-0.46484-0.92578-0.16797-1.1719-0.90625-0.5 1.4219-0.25 0.125-1.1758-0.0625-1-0.050781-1.1328-0.027344-1.1289-0.20312-1.1562-0.15625-1.0195-0.39453-1.8281-0.44531-1.5039-0.32812-1.082-0.22656-1.0195-0.26953-1.543-0.35156-1.707-0.39453-1.6172-0.26172-1.1289-0.12891-1-0.30078-1.0938-0.33594-0.99219-0.41406-0.95703-0.1875-1-1.0508-0.17969 0.6875-0.79688-0.10547-1.1172-0.51172-1.2461-0.26172-0.98438-0.27734-1.0586-0.48828-1.0391-0.41406-1.082-0.37109-0.97656-0.51562-1.0625-0.30078-1.082-0.38281-0.95312-0.35156-1.0391-0.19141-1.0039-0.32812-1.0117-0.45312-1-0.41406-1.0039-0.13672-1.0078-0.46875-0.98438-0.42188-1.082 0.67969-0.83984-0.26172-1.0859-0.57422-1.0742-0.96094-0.40625-0.96094-0.41016-0.28906-1.0234 0.39453-0.98047-0.13672-0.98828-0.13672-1.0859-1.0586-0.35547 0.64844-0.76562 0.78125-0.82812 0.73047-0.73047 0.89844-0.46094-0.19531-1-0.94531-0.52734-0.054687-1.0508 0.375-0.96484-0.45703-1.0352-0.17578-0.99609-0.21094-1.125-0.097656-1.2734-0.39453-0.96875-0.48047-0.90234-0.39062-1.0195-0.38281-0.99219-0.52344-0.92578-0.49609-1.0898-0.35938-1.0195-0.51562-0.99219-0.41797-1.0703-0.69141-0.93359-0.66406-0.86719-0.53906-0.99219-0.51953-0.90625-0.51562-0.91797-0.54688-0.94922-0.47656-0.99609-0.5625-1.0508-0.55859-1.0039-0.40625-1.1016-0.32422-0.96875-0.38672-1.0508-0.45312-0.89453-0.49609-1.0703-0.39062-0.98438-0.35156-1.0078-0.28125-1.0898-0.29297-1.1328-0.32031-1.0234-0.35547-1.1016-0.30469-1.1016-0.4375-1.0742-0.25-0.98047-0.16406-1.0742-0.13281-1.0508-0.33984-1.0469-0.38281-1.1055-0.14844-1.293-0.25-1.2305-0.57422-1.75-0.32422-0.97656-0.33984-1.082-0.40625-1.5859-0.34375-1.1719-0.37891-1.1211-0.33984-0.98828-0.39844-0.95312-0.38672-1.0195-0.30078-1.1055-0.35938-1.1406-0.38672-1.1875-0.47266-1.0625-0.46094-1.0273-0.44922-1.2656-0.44922-1.3789-0.36719-0.9375-0.47266-0.9375-0.45703-1.1484-0.48828-1.0938-0.33984-1.0352-0.55859-1.0898-0.44922-0.95312-0.39062-0.94922-0.72266-1.1133-0.41406-0.92969-0.43359-0.96094-0.4375-0.92969-0.59375-1.1758-0.49219-0.88672-0.40234-0.94141-0.69922-1.0508-0.50781-1.0312-0.52734-1.1719-0.53516-0.98438-0.51172-0.90625-0.64844-1.0391-0.55469-0.92969-0.625-0.90625-0.51562-0.87891-0.62891-1.1133-0.64062-1.1367-0.58984-1.0234-0.5-1.0195-0.78125-0.98047-0.74609-0.98047-0.59375-0.85938-0.62109-1.3203-0.48438-1.1445-1.1562 0.089843-0.83984 0.57031 0.69531-0.88281 0.92969-0.63281-0.64453-1.0391-0.66016-0.75-0.66406-0.92188-0.55078-1.125-0.53906-1.1914-0.71094-1.0586-0.69141-0.91797-0.72656-0.83203-0.72656-1.0703-0.71094-0.83984-0.77344-0.83203-0.47656-1.0586-0.47266-0.92969-0.59766-0.89844-0.96094-0.75-0.625-0.82031-0.79688-0.73828-0.67188-0.80078-1.0781-0.61328-1.0781-0.18359-1.0391 0.36719-0.60938 0.89844-1.1211 0.23828-0.074219-1.0195-0.86328-0.52344-1.0039-0.046875-0.72266 0.73047-1.0703-0.4375-0.98047 0.66016-1.0586 0.38281-0.76953-0.71875-0.97656 0.65234-0.98047 0.41797-1.0195 0.33984-0.46875-0.99219-0.82031-0.83203-0.77734-0.62891-0.88672 0.50391-1.1523 0.23438-1.0625-0.42578-0.62891-1.0117 0.39844-0.95312 1.0781-0.09375 0.96094-0.33594-0.36328-1.1875 0.94531-0.53516 0.97266-0.45703-0.35156-1.0977-0.070313-1.1133-0.44922-0.90625-1.1445 0.074219-1.0312-0.10156-1.0977 0.20312-1.043-0.046875-1.1016 0.21875-1.1602-0.38281-0.79688-0.66797 0.65625-0.76953-0.99609-0.69141 0.23047-1.0391 0.76172-0.70312 0.66406-0.90625 1.0352-0.66016 1.0469-0.23047 0.17188-1.0078-0.12109-1.2305-0.38672-1.0234-0.5-1.3906-0.58594-1-0.41797-1.0898-0.32031-1.1602-0.35938-1.2344-0.21875-1.1367-0.99219-0.34375-0.78125-0.72656-0.13281-1.0078 0.73438-0.71484 0.64844-0.8125 0.4375-0.91016-0.56641-0.86719-0.58984-0.80859-0.85938-0.53906-1 0.22656 0.085938-1.0039 0.92969-1.25 0.98047-0.95703 1.5469-1.125 0.95703-0.51562 1.125-0.34375 1.0547 0.51562 0.66406 1.125 0.80859 1.0547 0.34375 1.0078 1.0547 0.85547 1.4688 0.22266 1.3008-0.26953 1.1289-0.39453 1.4219 0.074219 2.2734 0.97266 1.3594 0.57812 1.293-0.03125 1.1094-0.58984 0.28906-0.99219-0.75391-2.1367 0.80859-0.9375 1.7109-0.68359 0.94531-0.5 2.0859-0.10156 1.9453 0.25391 1.0742 0.28125 1.1094 0.46875 1.3594 0.46875 1.3438 0.49609 1.043 0.35938 1.1602-0.32812 1.1953-1.332 1.0156-0.53125 1.0898 0.375 1.3438 1.0273 2.168 0.57031 1.9531 0.39062 1.4258-0.21484 1.2812 0.0625 0.69141-1.2578 0.027344-2.3984 1.4297-0.17188 1.4727 0.035157 8.7383 1.8438 0.37891-1.5195 0.70312-1.0938 0.91406-2.4375 0.75-1.3789 1.5195-0.078125 1.3945-0.28125 0.87891-1.2227 0.69531-0.76172 1.1602-0.25 1.3945-0.10156 1.2305 0.074218 1.5352 1.1602 1.2305 0.125 0.99219-0.23828 1.2344-1.168 0.3125-2.0078 0.60547-1.1562 1.2539-0.15625 1.3359 0.33594 1.3281 0.63672 1.3477 0.43359 1.2227 0.60938 0.58594 0.9375 1.3125 0.46094 1.6172-0.074219 1.7148-0.66016 1.1406-0.86719 1.0078-0.22266 1.0859-0.54688 0.8125-1.5547 0.36719-1.418 8.2812-0.79297 0.10156 0.69141" fill="none" stroke="#fff" stroke-linecap="round" stroke-linejoin="round" stroke-miterlimit="10" stroke-width="2"/>
<path d="m204.94 468.09 0.10547 0.49219 0.21094 1.1562 0.19531 1.0508 0.24609 1.2266 0.25 1.2227 0.17969 1.5547-0.003906 1.0039-0.074219 1.0352-0.23047 1.6914-0.49609 2.0625-0.25781 1.0586-0.20703 1.0938-0.49219 1.3086-0.64844 1.2578-0.83984 1.9453-0.58984 1.6016-2.9961-1.1641-0.65234 1.1172-0.67188 1.1484-0.57812 0.99219-0.56641 0.97266-0.65625 1.1445-0.90234 0.80078-0.55859 0.96875-0.99609-0.11328-0.36328 0.94922-0.45703 1.1992-0.58203 1.3359-1.1914 0.51562-1.457-0.79688-1.0508-0.53516-0.9375-0.37109-0.92969-0.41406-1.1523-0.51172-1.4375-0.62109-0.90625-0.48828-1.4141-0.59375-1.1992-0.44141-1.2305-0.66406-1.2578-0.54297-1.1367-0.48438-1.2383-0.52344-1.457-0.64844-1.6211-0.67188-1.2422-0.43359-1.0195-0.4375-1.125-0.47266-1.3945-0.55469-1.0703-0.46094-0.98047-0.40234-0.89062-0.47656-1.1172-0.51953-1.1602-0.52734-1.0234-0.45312-0.96484-0.46094-1.0273-0.47656-1.3516-0.48828-1.293-0.56641-1.0977-0.41406-1.5039-0.56641-1.293-0.42969-1.4805-0.42969-0.46875-2.5195-0.32031-1.6836 1.9922-1.1523 1.8281-0.33594 1.1484-0.21094 1.0234-0.17969 1.8828-0.35156 2.582-0.47656 1.6211-0.29688 2.0859-0.38281 1.0859-0.19922 2-0.36719 2.6445-0.48438 2.5938-0.47656 2.4844-0.45312 0.92578 0.62891 0.98828-0.20312 1.7227-1.0391 2.0469-0.36719 1.6328-0.28906 1.4883-0.26172 2.2227-0.39453 1.0117-0.18359 1.4492-0.25781 1.0938-0.19922 2.0117-0.35547 1.1172-0.19922 1.668-0.29688 2.0508-0.33203 2.5078-0.35547 2.5938 0.074219 2.1641-0.14844z" fill="#ccc" fill-rule="evenodd"/>
<path d="m204.94 468.09 0.10547 0.49219 0.21094 1.1562 0.19531 1.0508 0.24609 1.2266 0.25 1.2227 0.17969 1.5547-0.003906 1.0039-0.074219 1.0352-0.23047 1.6914-0.49609 2.0625-0.25781 1.0586-0.20703 1.0938-0.49219 1.3086-0.64844 1.2578-0.83984 1.9453-0.58984 1.6016-2.9961-1.1641-0.65234 1.1172-0.67188 1.1484-0.57812 0.99219-0.56641 0.97266-0.65625 1.1445-0.90234 0.80078-0.55859 0.96875-0.99609-0.11328-0.36328 0.94922-0.45703 1.1992-0.58203 1.3359-1.1914 0.51562-1.457-0.79688-1.0508-0.53516-0.9375-0.37109-0.92969-0.41406-1.1523-0.51172-1.4375-0.62109-0.90625-0.48828-1.4141-0.59375-1.1992-0.44141-1.2305-0.66406-1.2578-0.54297-1.1367-0.48438-1.2383-0.52344-1.457-0.64844-1.6211-0.67188-1.2422-0.43359-1.0195-0.4375-1.125-0.47266-1.3945-0.55469-1.0703-0.46094-0.98047-0.40234-0.89062-0.47656-1.1172-0.51953-1.1602-0.52734-1.0234-0.45312-0.96484-0.46094-1.0273-0.47656-1.3516-0.48828-1.293-0.56641-1.0977-0.41406-1.5039-0.56641-1.293-0.42969-1.4805-0.42969-0.46875-2.5195-0.32031-1.6836 1.9922-1.1523 1.8281-0.33594 1.1484-0.21094 1.0234-0.17969 1.8828-0.35156 2.582-0.47656 1.6211-0.29688 2.0859-0.38281 1.0859-0.19922 2-0.36719 2.6445-0.48438 2.5938-0.47656 2.4844-0.45312 0.92578 0.62891 0.98828-0.20312 1.7227-1.0391 2.0469-0.36719 1.6328-0.28906 1.4883-0.26172 2.2227-0.39453 1.0117-0.18359 1.4492-0.25781 1.0938-0.19922 2.0117-0.35547 1.1172-0.19922 1.668-0.29688 2.0508-0.33203 2.5078-0.35547 2.5938 0.074219 2.1641-0.14844h0.40625" fill="none" stroke="#fff" stroke-linecap="round" stroke-linejoin="round" stroke-miterlimit="10" stroke-width="2"/>
<path d="m246.49 419.18 0.078125 0.60156 0.18359 1.4336-0.86328 0.96094 0.007812 1.1172 0.12891 1.3672 0.11328 1.2344 0.13281 1.4258 0.15234 1.6133 0.19922 2.1367 0.11328 1.25 1.8164 0.6875 0.17969 2.1367 0.13281 1.6562-1.207 0.23828-3.1016 0.26953-1.582 0.14062-1.3047 0.11328-5.4766 0.47656-4.6367 0.40625-5.8828 0.51172-0.99609 0.089843-1.375 0.11719-6.1289 0.53516-0.51172-2.1953-0.17578-1.9336-0.13672-1.5234-0.16797-1.8242-0.19922-2.1797-0.12109-1.3516-0.089844-1.0039-0.097656-1.043-0.10938-1.2344-0.11719-1.2617-0.20312-1.0586 2.1992-0.73047 1.5703-0.30078 1.5703-0.23438 1.7578-0.33594 1.4922-0.28906 1.3125-0.47656 1.0039-0.007813 1.2891-0.29297 1.8984-0.28125 1.9062-0.42188 2.1719-0.44531 1.6719-0.30859 1.4102-0.35156 1.1367-0.10156 1.6992-0.32031 1.8633-0.41406 3.25-0.74219 1.7266-0.36719 0.12891 1.0312 0.16016 1.2227z" fill="#ccc" fill-rule="evenodd"/>
<path d="m246.49 419.18 0.078125 0.60156 0.18359 1.4336-0.86328 0.96094 0.007812 1.1172 0.12891 1.3672 0.11328 1.2344 0.13281 1.4258 0.15234 1.6133 0.19922 2.1367 0.11328 1.25 1.8164 0.6875 0.17969 2.1367 0.13281 1.6562-1.207 0.23828-3.1016 0.26953-1.582 0.14062-1.3047 0.11328-5.4766 0.47656-4.6367 0.40625-5.8828 0.51172-0.99609 0.089843-1.375 0.11719-6.1289 0.53516-0.51172-2.1953-0.17578-1.9336-0.13672-1.5234-0.16797-1.8242-0.19922-2.1797-0.12109-1.3516-0.089844-1.0039-0.097656-1.043-0.10938-1.2344-0.11719-1.2617-0.20312-1.0586 2.1992-0.73047 1.5703-0.30078 1.5703-0.23438 1.7578-0.33594 1.4922-0.28906 1.3125-0.47656 1.0039-0.007813 1.2891-0.29297 1.8984-0.28125 1.9062-0.42188 2.1719-0.44531 1.6719-0.30859 1.4102-0.35156 1.1367-0.10156 1.6992-0.32031 1.8633-0.41406 3.25-0.74219 1.7266-0.36719 0.12891 1.0312 0.16016 1.2227 0.027343 0.25781" fill="none" stroke="#fff" stroke-linecap="round" stroke-linejoin="round" stroke-miterlimit="10" stroke-width="2"/>
<path d="m156.7 226.93 0.09375 0.015625 0.97656 0.35938 1.3789 0.81641 0.13281 1.1875 0.32031 1.1406 0.57812 0.97656 0.097656 1.0352 0.32422 0.95703 0.42578 1.168-0.007812 1.3906 0.054687 1.168 0.28125 1.2266 0.87891 1.1055 0.35547 1.0156 0.6875 1.0234 0.39062 1.0117 0.58984 0.82422 0.78125 1.043 0.59766 0.91797 1.1719-0.23828 1.1797 0.51953 0.97266 0.53516 0.67578 1.1016 0.75391 1.2578 0.70312 0.97656 0.88672 0.78516 0.88281 0.61328 1.2422 1.0469 0.73828 1.1602 0.30859 1.1016-0.80469 0.87109-0.089844 1.2109 0.097656 1.1211 0.18359 1.1172 0.67188 2.0156 1.1133 0.54688 0.71094 0.86328 0.69141 0.83594 0.79297 0.89844 0.60547 1.0547-0.054687 1.3125-0.34375 1.043 0.17188 1.2148-0.16016 1.2031-0.625 1.0312 0.11328 1.1602 0.125 1.0547 0.81641 0.81641 0.089844 0.99609 0.76172 0.71094 0.19922 1.1172-0.45312 0.94531-0.63281 0.87109 0.57031 1.1836 0.39844 0.92969 0.83984 1.0898 0.36719 0.93359 0.10547 1.2266-0.24609 1.1953 0.10547 1.1445-0.070313 1.0664-0.26172 1.2656-0.48828 0.9375-0.23047 1.043-0.29688 1.4219 1.3984 0.67969 1.1992-0.21875 0.89844-0.58203 0.91797 0.87109 0.39453 1.1016 1.0703 0.95312 1.7227 0.42578 1.6094 0.77344 0.86328 0.72656 0.52344 1.0352 0.99219 1.2344 0.85938 1.1055 0.79688 1 1.0195-0.15234 1.0625 1.3281-1.668 1.9102-1.5039 1.7461-2.1875 2.5234-0.3125 1.4805-0.26562 1.0156 0.17969 1.0469 0.17578 1.0664-0.65625 1.4062-1.168 1.1875-0.99609 1.5195-0.95703 1.375-0.51172 0.98047-0.47656 0.92969-0.52344 0.91016-0.67578 1.0508-0.10547 1.3125-0.32422 1.1328-0.51562 0.93359-0.57031 1.5508-0.80469 1.1602-0.40625 1.0039-0.78516 0.74609-1.1836 1.1094-0.48047 1.1094-0.011718 1.0117 0.078125 1.0273 0.31641 1.168 0.42188 0.95312 0.015625 1.0195 1.125-0.097656 0.38672 1.0352 1.5898 0.86328 0.96094 0.35938 1.2812 0.51172 1.0977 0.4375 2.8477 1.1289 1.2266-0.46875 1.0156-1.0898 1.6992-1.8359 1.6562-1.7891 1.0586 0.96094 0.73438 0.76953 0.60547 1.168 0.58203 1.125 0.56641 1.1094 0.46094 0.89062 0.71875 1.3906 0.90234 1.707 0.83203 0.78125 1.7852 0.66406 1.0898 0.39453 1.0078 0.44531 0.80469-0.59766 0.59766-1.8594 0.84766-2.6055 1.0742 1.2031 0.41016 0.92188 0.50781 1.1523 0.64453 1.0898 0.46484 0.91797 1.4414 3.0078 0.46875 0.98047 0.91797 1.918 0.4375 0.91016 0.5 1.0469 1.4688-0.14062 1.0195 0.078125 1.1445 0.25391-0.45312 0.99609 0.97656 1.1016 1.5078-0.070313 0.92188-0.4375 1.2461-0.73047 1.1016 0.61719 0.9375 1.5391 1.3164-0.54297-0.36719 1.0977 0.3125 1.6406 0.49219 1.1602-0.55078 0.95703 0.40234 1.3203 0.5 0.96875 0.875 0.50391 1.1562-0.53516 1.8594-0.11719 0.17188 1.3906 0.80078 1.5938 0.73828 1.418 1.2305-0.15625 1.0117 0.007813 1.1055 1.168 1.1016 1.7031 0.82031 1.207 0.82812 1.3398 0.31641 1.1016 0.28906 1.1133-0.86719 0.85938-0.95312 1.1055-0.66797 1-0.49219 0.92969-1.2773 2.0312-0.59766 0.96094-0.56641 0.96094-0.34375 1.168-0.53516 1.1094-0.60547 1.2422-0.54688 1.0391 0.87109 1.375-0.52734 1.2266-0.85156 1.6914-1.3008 2.6016-0.99609 1.9492-1.0586 2.3164-0.57422 1.3828-0.94922 2.2695-0.97266 0.29297-3.3008 6.6758 2.3594 1.0195-0.12109 2.1992-0.10938 2.2617 3.1758-0.53906-0.26953 2.3945 0.33203 1.793-1 0.03125-1.4062 0.47656-1.0938 0.21094-2.1562 0.41406-1.5 0.22266-1.2422 0.23438-1.668 0.53125-0.91406 0.46875 0.25391 1.5938 0.22656 2.4922 0.12109 1.3242 0.12109 1.3438 0.11328 1.2266 0.25391 2.7852 0.13672 1.5234 0.12891 1.4219 0.19141 2.0703 6.4961 0.10156 1.375-0.11719 0.99609-0.089843 5.8828-0.51172 4.6367-0.40625 5.4141-0.47266 1.3672-0.11719 1.0742-0.09375 3.0586-0.26953 1.7422-0.14844 1.2031-0.10938 5.8125-0.51562 0.38281 4.0156-0.52344 1.2461-0.1875 1.2539-0.99219 0.17969-2.4961 0.44922-2.1797 0.39062-3.1914 0.57031-1.5547 0.27344-0.98438 0.16797-2.4688 0.42969-2.3867 0.42188-1.9336 0.34375-4.1445 0.73828-1.2578 0.22266-3.9102 0.69922-2.7383 0.48828-1.043 0.18359-2.4961 0.44531-2.6445 0.47266-1.3672 0.24219-1.668 0.26953-2.3477 0.37891-3.3203 0.63672-3.9961 0.80078-1.2656 0.25391-0.98047 0.19531-1.1406 0.23047-1.1133 0.23047-1.3867 0.29297-1.418 0.30078-1.9609 0.41797-1.1055 0.23438-1.418 0.30078-1.3438 0.28516-3.7227 0.78906-1.4688 0.30859-1.3281 0.27734-1.1641 0.23828-1.4453 0.3125-1.5312 0.32812-2.5352 0.54297-2.7148 0.58203-2.8047 0.55469-1.2266 0.17578-1.1836 0.14062-2.1523 0.25391-1.4336 0.17188-3.7383 0.44141-4.0391 0.48047-1.0273 0.10547-3.082 0.32031-2.1523 0.21875-1.6523 0.17188-2.3164 0.23828-2.1094 0.21484 0.14844 1.0156 0.17969 1.2031 0.16016 1.0977 0.24609 1.6602 0.14844 1.0039 0.23438 1.5664 0.14844 1.0156 0.18359 1.2578 0.17578 1.2227 0.15234 1.0352 0.22656 1.6406 0.17969 1.0273 0.27734 1.1211 0.21875 2.0859 0.51953 2.6367-1.0625-0.29297-1.1562-0.35938-1.2344-0.52344-1.6211-0.49219-1.75-0.48828-1.2344-0.3125-1.7109-0.42969-1.2188-0.19531-1.0703-0.22266-1.5586-0.38672-2.0234-0.39844-1.7539-0.22656-1.9023-0.39844-1.0078-0.22266-1.3984-0.21094-1.0391-0.14844-1.5-0.17578-1.7695 0.011718-0.83203 0.625-0.066406 1.0391-0.058594 1.0508-1.4609 0.21484 1.0898-0.13672 0.13281-1.2109-0.125-0.99609-1.1797-0.67188-1.082-0.35156-1.1172 0.10938-0.94141 0.47266-0.37109 1.3242 0.77344 0.78906-2.2422-0.046875 1.1016-0.12109 0.1875-1.3359-0.65234-0.82031-1.168-0.73438-1.3203-0.32422-1.4805 0.35938-1.1328 0.83594-0.54688 0.88281 1.6562 0.95703-2.7617 0.19922 0.85938-1.875-1.0352-0.83594-1.0547-0.25-1.3203 0.019531-1.3594 0.15625-1.0352 0.1875-0.88281 1.0586-1.0234-0.082031-0.97266-0.24219-0.91797-0.67969-0.64844-1.0742-0.45703-1.4492 0.73047 0.69922 0.85547-0.77344 1.1562-0.85938 1.1211-0.73828 0.85938-0.66406-0.78516-1.707 1.5117 1.25 0.92578-0.98828 0.95703-0.85547 1.082-0.83984 0.85547-0.64062 1.3359-0.83984 1.0078-0.47266 0.98828-0.75391 0.85938-0.77344 0.99219-1.0977-0.30078-1.2461 0.79297-1.5039 0.38672-1.0312-0.23438 1.1602-0.60156 0.96875 0.70703 0.81641 0.84375-0.83984 0.53516-0.9375-0.83984-0.63281 1.125 0.28516 0.77734-0.82031 1.2227-0.5-0.41016-1.5625-0.63281 0.80078 0.56641-0.92188-2.5664-2.5898-1.4531-0.26953-0.55859-1.0156-4.1367-3.5664 1.2617-1.5898-0.14844-1.1367-1.5195-2.2734-1.8398-2.6797-0.79297-0.69922 0.88281 0.58984 1.8633 2.6797 1.7656 2.6211 0.66016-1.1211 1.1602-0.32031 6.1406 5.0039 2.6172 2.1328 2.5039-2.9883 1.8047-2.1289 0.68359-0.92578 0.15234-0.98828-3.207-0.29688 3.2969-0.16016 0.125-1.6445-3.2578-0.26172 0.097656-1.4805 3.2227 0.21875 0.10938-1.5195-3.1484-0.28906 0.082031-1.4805 3.1836 0.21094 0.14844-1.543-3.1875-0.21094 3.2031-0.28906-2.3633-3.5352-2.0352-2.4648 2.4297-2.0039 2.1016 2.293 2.457 2.8945 0.33203 1.0195 0.83984 0.86328 1.1953-0.14844 1.3008-1.8203-0.94141 1.0469 0.59375-0.8125-0.82031-0.76562 0.55078-1.957-0.011719-1.0234 0.25-1.3438 0.30859-0.98438-0.55469-1.4766-1.0469 0.52734-1.8438 0.80078 4.7578-2.6602-0.77344-1.4258 1.8242-1.4922 0.92969-0.46484-6.2266 2.6094 2.4258-1.5 1.0352-0.58203-0.32031-1.2266-5.5312 2.8594 5.4453-3.0781-0.5625-1.1133-2.9688 1.4453 2.8789-1.7031-3.582-1.4062-7.1758 3.6133-1.1094-2.0625-0.9375 1.6758-0.82812 1.4805-0.49609 0.98438-0.42969 1.0117 0.16406-1.1289 0.69531-0.92188 0.82031-1.457 0.66406-1.1953-1.9023 0.61719-1.3359 1.4492-1.1484 1.2695-0.88672 0.98047-1.3672 1.5039-0.23828 1.668-0.22656 1.5078-0.015625 1.0977-0.30469 1.125 0.12891-1.1445 0.003907-1.0859 0.32422-1.3594 0.26172-1.8398 1.418-1.5625 1.3633-1.5117 1.9688-2.1484 1.9023-1.125-1.1094 0.42578-1.0195 0.41797-0.83203 0.71484-0.82031 0.85938-1.0039 1.1445-2.3594 2.7344-2.4414 2.8164-3.7461 4.2539-1.6484 1.9805 2.0273-2.6484 2.4141-2.7227 1.4023-1.5742 0.90625-1.1211 0.77734-0.87109 2.0117-2.2773 0.70703-0.88281 1.3164-1.4844 0.69531-0.80078 1.4648-1.1172 0.95703-0.4375 0.35547-1.0391-0.13672-1.125 0.011718-1.0273-0.21484-1.6406-0.14844-1.125-0.30469-1.1367 0.21484-2.3867-0.82422-0.88672-0.37891-1.5156-0.17969-1.2305 1.5938-0.33594 3.0938 0.83594 0.74219-0.9375 0.11719-1.2031 0.73438-1.9336 0.26172-0.96875v-1.082l0.26562-1.7891 0.35156-1.875 0.5-1.7031 0.37891-1.375 0.58594-2.5508 0.38281-1.9648 0.17578-1.3477 0.23438-1.8477 1.0547-1.2031 1.1719-1.7305 0.46875-1.1406 0.58984-1.293 0.67188-1.1406 1.1133-2.1992 1.4688-3.8711 0.90625-3.2812 1.2305-3.375 1.0859-3.75 0.76172-2.9023 0.58594-3.8711 0.41016-2.5508 0.38281-1.4062-0.027343-1.2617 0.41016-1.7891 0.23438-1.7812-1.7773-0.21094 1.7773 0.019531 0.20312-1.8086 0.11719-2.1406v-1.3477l-0.23438-1.8477 0.23438-1.8164 0.058594-3.0664 0.03125-1.793-0.03125-1.9688-0.085937-1.3945 1.3984-2.6797 1.1406-1.3945 0.76953-1.2266 0.19922-1.1406 0.53906-1.168 0.45703-1.3398 0.33984-1.1094 0.54297-1.7969 0.14453-1.2812-1.3672-0.32422 1.4414 0.027343 0.29297-1.7539 0.19922-1.5 0.089844-1.1836 0.38281-1.7461 0.11719-1.8945 0.18359-1.2734 0.078125-2.0156 0.019532-1.0859 0.089843-2.3633 0.023438-1.1953-0.11328-1.043-0.058594-1.1641-0.082031-1.8242 0.023437-1.3828-0.0625-1.082-0.03125-1.4141-0.078125-1.1836 0.039063-1.1133-0.14844-1.5547-0.12109-2.0352-0.089843-1.7969-0.10156-1.043-0.12891-1.2344-0.21094-1.3633-0.25-3.0195-0.18359-1.5117-0.16016-1.2461-0.16016-1.2109-0.16016-1.0547-0.16797-1.582-0.10156-1.9766-0.19922-1.1641-0.11328-1.0508-0.27734-1.1836-4.2031 0.80078-2.0469 1.4727-1.3242 0.49219 0.92188-0.69141 2.418-1.4023 4.2305-0.8125-0.20703-1.875-0.21094-1.4258-7.5039 1.5039 7.2031-2.5156-0.78516-4.1133-0.42969-2.043-0.91016-4.1562-0.50781-2.8984-0.32031-1.7148-0.20703-1.7031-0.3125-1.0742-0.15625-1.0156-0.27344-2.1133-0.60547-2.2266-0.37109-1.1562-0.29297-2.0703-0.21484-1.1133-0.46875-1.3125-0.23438-1.1719 0.4375-0.95703 4.5039-0.23047 1.6758-0.30469 1.4648-0.40625 1.1602-0.33203 1.2734-0.33984 1.1328-0.41797 0.85938-0.58203 1.3359-1.0859 0.81641-0.60938 0.97266-0.28125z" fill="#ccc" fill-rule="evenodd"/>
<path d="m156.7 226.93 0.09375 0.015625 0.97656 0.35938 1.3789 0.81641 0.13281 1.1875 0.32031 1.1406 0.57812 0.97656 0.097656 1.0352 0.32422 0.95703 0.42578 1.168-0.007812 1.3906 0.054687 1.168 0.28125 1.2266 0.87891 1.1055 0.35547 1.0156 0.6875 1.0234 0.39062 1.0117 0.58984 0.82422 0.78125 1.043 0.59766 0.91797 1.1719-0.23828 1.1797 0.51953 0.97266 0.53516 0.67578 1.1016 0.75391 1.2578 0.70312 0.97656 0.88672 0.78516 0.88281 0.61328 1.2422 1.0469 0.73828 1.1602 0.30859 1.1016-0.80469 0.87109-0.089844 1.2109 0.097656 1.1211 0.18359 1.1172 0.67188 2.0156 1.1133 0.54688 0.71094 0.86328 0.69141 0.83594 0.79297 0.89844 0.60547 1.0547-0.054687 1.3125-0.34375 1.043 0.17188 1.2148-0.16016 1.2031-0.625 1.0312 0.11328 1.1602 0.125 1.0547 0.81641 0.81641 0.089844 0.99609 0.76172 0.71094 0.19922 1.1172-0.45312 0.94531-0.63281 0.87109 0.57031 1.1836 0.39844 0.92969 0.83984 1.0898 0.36719 0.93359 0.10547 1.2266-0.24609 1.1953 0.10547 1.1445-0.070313 1.0664-0.26172 1.2656-0.48828 0.9375-0.23047 1.043-0.29688 1.4219 1.3984 0.67969 1.1992-0.21875 0.89844-0.58203 0.91797 0.87109 0.39453 1.1016 1.0703 0.95312 1.7227 0.42578 1.6094 0.77344 0.86328 0.72656 0.52344 1.0352 0.99219 1.2344 0.85938 1.1055 0.79688 1 1.0195-0.15234 1.0625 1.3281-1.668 1.9102-1.5039 1.7461-2.1875 2.5234-0.3125 1.4805-0.26562 1.0156 0.17969 1.0469 0.17578 1.0664-0.65625 1.4062-1.168 1.1875-0.99609 1.5195-0.95703 1.375-0.51172 0.98047-0.47656 0.92969-0.52344 0.91016-0.67578 1.0508-0.10547 1.3125-0.32422 1.1328-0.51562 0.93359-0.57031 1.5508-0.80469 1.1602-0.40625 1.0039-0.78516 0.74609-1.1836 1.1094-0.48047 1.1094-0.011718 1.0117 0.078125 1.0273 0.31641 1.168 0.42188 0.95312 0.015625 1.0195 1.125-0.097656 0.38672 1.0352 1.5898 0.86328 0.96094 0.35938 1.2812 0.51172 1.0977 0.4375 2.8477 1.1289 1.2266-0.46875 1.0156-1.0898 1.6992-1.8359 1.6562-1.7891 1.0586 0.96094 0.73438 0.76953 0.60547 1.168 0.58203 1.125 0.56641 1.1094 0.46094 0.89062 0.71875 1.3906 0.90234 1.707 0.83203 0.78125 1.7852 0.66406 1.0898 0.39453 1.0078 0.44531 0.80469-0.59766 0.59766-1.8594 0.84766-2.6055 1.0742 1.2031 0.41016 0.92188 0.50781 1.1523 0.64453 1.0898 0.46484 0.91797 1.4414 3.0078 0.46875 0.98047 0.91797 1.918 0.4375 0.91016 0.5 1.0469 1.4688-0.14062 1.0195 0.078125 1.1445 0.25391-0.45312 0.99609 0.97656 1.1016 1.5078-0.070313 0.92188-0.4375 1.2461-0.73047 1.1016 0.61719 0.9375 1.5391 1.3164-0.54297-0.36719 1.0977 0.3125 1.6406 0.49219 1.1602-0.55078 0.95703 0.40234 1.3203 0.5 0.96875 0.875 0.50391 1.1562-0.53516 1.8594-0.11719 0.17188 1.3906 0.80078 1.5938 0.73828 1.418 1.2305-0.15625 1.0117 0.007813 1.1055 1.168 1.1016 1.7031 0.82031 1.207 0.82812 1.3398 0.31641 1.1016 0.28906 1.1133-0.86719 0.85938-0.95312 1.1055-0.66797 1-0.49219 0.92969-1.2773 2.0312-0.59766 0.96094-0.56641 0.96094-0.34375 1.168-0.53516 1.1094-0.60547 1.2422-0.54688 1.0391 0.87109 1.375-0.52734 1.2266-0.85156 1.6914-1.3008 2.6016-0.99609 1.9492-1.0586 2.3164-0.57422 1.3828-0.94922 2.2695-0.97266 0.29297-3.3008 6.6758 2.3594 1.0195-0.12109 2.1992-0.10938 2.2617 3.1758-0.53906-0.26953 2.3945 0.33203 1.793-1 0.03125-1.4062 0.47656-1.0938 0.21094-2.1562 0.41406-1.5 0.22266-1.2422 0.23438-1.668 0.53125-0.91406 0.46875 0.25391 1.5938 0.22656 2.4922 0.12109 1.3242 0.12109 1.3438 0.11328 1.2266 0.25391 2.7852 0.13672 1.5234 0.12891 1.4219 0.19141 2.0703 6.4961 0.10156 1.375-0.11719 0.99609-0.089843 5.8828-0.51172 4.6367-0.40625 5.4141-0.47266 1.3672-0.11719 1.0742-0.09375 3.0586-0.26953 1.7422-0.14844 1.2031-0.10938 5.8125-0.51562 0.38281 4.0156-0.52344 1.2461-0.1875 1.2539-0.99219 0.17969-2.4961 0.44922-2.1797 0.39062-3.1914 0.57031-1.5547 0.27344-0.98438 0.16797-2.4688 0.42969-2.3867 0.42188-1.9336 0.34375-4.1445 0.73828-1.2578 0.22266-3.9102 0.69922-2.7383 0.48828-1.043 0.18359-2.4961 0.44531-2.6445 0.47266-1.3672 0.24219-1.668 0.26953-2.3477 0.37891-3.3203 0.63672-3.9961 0.80078-1.2656 0.25391-0.98047 0.19531-1.1406 0.23047-1.1133 0.23047-1.3867 0.29297-1.418 0.30078-1.9609 0.41797-1.1055 0.23438-1.418 0.30078-1.3438 0.28516-3.7227 0.78906-1.4688 0.30859-1.3281 0.27734-1.1641 0.23828-1.4453 0.3125-1.5312 0.32812-2.5352 0.54297-2.7148 0.58203-2.8047 0.55469-1.2266 0.17578-1.1836 0.14062-2.1523 0.25391-1.4336 0.17188-3.7383 0.44141-4.0391 0.48047-1.0273 0.10547-3.082 0.32031-2.1523 0.21875-1.6523 0.17188-2.3164 0.23828-2.1094 0.21484 0.14844 1.0156 0.17969 1.2031 0.16016 1.0977 0.24609 1.6602 0.14844 1.0039 0.23438 1.5664 0.14844 1.0156 0.18359 1.2578 0.17578 1.2227 0.15234 1.0352 0.22656 1.6406 0.17969 1.0273 0.27734 1.1211 0.21875 2.0859 0.51953 2.6367-1.0625-0.29297-1.1562-0.35938-1.2344-0.52344-1.6211-0.49219-1.75-0.48828-1.2344-0.3125-1.7109-0.42969-1.2188-0.19531-1.0703-0.22266-1.5586-0.38672-2.0234-0.39844-1.7539-0.22656-1.9023-0.39844-1.0078-0.22266-1.3984-0.21094-1.0391-0.14844-1.5-0.17578-1.7695 0.011718-0.83203 0.625-0.066406 1.0391-0.058594 1.0508-1.4609 0.21484 1.0898-0.13672 0.13281-1.2109-0.125-0.99609-1.1797-0.67188-1.082-0.35156-1.1172 0.10938-0.94141 0.47266-0.37109 1.3242 0.77344 0.78906-2.2422-0.046875 1.1016-0.12109 0.1875-1.3359-0.65234-0.82031-1.168-0.73438-1.3203-0.32422-1.4805 0.35938-1.1328 0.83594-0.54688 0.88281 1.6562 0.95703-2.7617 0.19922 0.85938-1.875-1.0352-0.83594-1.0547-0.25-1.3203 0.019531-1.3594 0.15625-1.0352 0.1875-0.88281 1.0586-1.0234-0.082031-0.97266-0.24219-0.91797-0.67969-0.64844-1.0742-0.45703-1.4492 0.73047 0.69922 0.85547-0.77344 1.1562-0.85938 1.1211-0.73828 0.85938-0.66406-0.78516-1.707 1.5117 1.25 0.92578-0.98828 0.95703-0.85547 1.082-0.83984 0.85547-0.64062 1.3359-0.83984 1.0078-0.47266 0.98828-0.75391 0.85938-0.77344 0.99219-1.0977-0.30078-1.2461 0.79297-1.5039 0.38672-1.0312-0.23438 1.1602-0.60156 0.96875 0.70703 0.81641 0.84375-0.83984 0.53516-0.9375-0.83984-0.63281 1.125 0.28516 0.77734-0.82031 1.2227-0.5-0.41016-1.5625-0.63281 0.80078 0.56641-0.92188-2.5664-2.5898-1.4531-0.26953-0.55859-1.0156-4.1367-3.5664 1.2617-1.5898-0.14844-1.1367-1.5195-2.2734-1.8398-2.6797-0.79297-0.69922 0.88281 0.58984 1.8633 2.6797 1.7656 2.6211 0.66016-1.1211 1.1602-0.32031 6.1406 5.0039 2.6172 2.1328 2.5039-2.9883 1.8047-2.1289 0.68359-0.92578 0.15234-0.98828-3.207-0.29688 3.2969-0.16016 0.125-1.6445-3.2578-0.26172 0.097656-1.4805 3.2227 0.21875 0.10938-1.5195-3.1484-0.28906 0.082031-1.4805 3.1836 0.21094 0.14844-1.543-3.1875-0.21094 3.2031-0.28906-2.3633-3.5352-2.0352-2.4648 2.4297-2.0039 2.1016 2.293 2.457 2.8945 0.33203 1.0195 0.83984 0.86328 1.1953-0.14844 1.3008-1.8203-0.94141 1.0469 0.59375-0.8125-0.82031-0.76562 0.55078-1.957-0.011719-1.0234 0.25-1.3438 0.30859-0.98438-0.55469-1.4766-1.0469 0.52734-1.8438 0.80078 4.7578-2.6602-0.77344-1.4258 1.8242-1.4922 0.92969-0.46484-6.2266 2.6094 2.4258-1.5 1.0352-0.58203-0.32031-1.2266-5.5312 2.8594 5.4453-3.0781-0.5625-1.1133-2.9688 1.4453 2.8789-1.7031-3.582-1.4062-7.1758 3.6133-1.1094-2.0625-0.9375 1.6758-0.82812 1.4805-0.49609 0.98438-0.42969 1.0117 0.16406-1.1289 0.69531-0.92188 0.82031-1.457 0.66406-1.1953-1.9023 0.61719-1.3359 1.4492-1.1484 1.2695-0.88672 0.98047-1.3672 1.5039-0.23828 1.668-0.22656 1.5078-0.015625 1.0977-0.30469 1.125 0.12891-1.1445 0.003907-1.0859 0.32422-1.3594 0.26172-1.8398 1.418-1.5625 1.3633-1.5117 1.9688-2.1484 1.9023-1.125-1.1094 0.42578-1.0195 0.41797-0.83203 0.71484-0.82031 0.85938-1.0039 1.1445-2.3594 2.7344-2.4414 2.8164-3.7461 4.2539-1.6484 1.9805 2.0273-2.6484 2.4141-2.7227 1.4023-1.5742 0.90625-1.1211 0.77734-0.87109 2.0117-2.2773 0.70703-0.88281 1.3164-1.4844 0.69531-0.80078 1.4648-1.1172 0.95703-0.4375 0.35547-1.0391-0.13672-1.125 0.011718-1.0273-0.21484-1.6406-0.14844-1.125-0.30469-1.1367 0.21484-2.3867-0.82422-0.88672-0.37891-1.5156-0.17969-1.2305 1.5938-0.33594 3.0938 0.83594 0.74219-0.9375 0.11719-1.2031 0.73438-1.9336 0.26172-0.96875v-1.082l0.26562-1.7891 0.35156-1.875 0.5-1.7031 0.37891-1.375 0.58594-2.5508 0.38281-1.9648 0.17578-1.3477 0.23438-1.8477 1.0547-1.2031 1.1719-1.7305 0.46875-1.1406 0.58984-1.293 0.67188-1.1406 1.1133-2.1992 1.4688-3.8711 0.90625-3.2812 1.2305-3.375 1.0859-3.75 0.76172-2.9023 0.58594-3.8711 0.41016-2.5508 0.38281-1.4062-0.027343-1.2617 0.41016-1.7891 0.23438-1.7812-1.7773-0.21094 1.7773 0.019531 0.20312-1.8086 0.11719-2.1406v-1.3477l-0.23438-1.8477 0.23438-1.8164 0.058594-3.0664 0.03125-1.793-0.03125-1.9688-0.085937-1.3945 1.3984-2.6797 1.1406-1.3945 0.76953-1.2266 0.19922-1.1406 0.53906-1.168 0.45703-1.3398 0.33984-1.1094 0.54297-1.7969 0.14453-1.2812-1.3672-0.32422 1.4414 0.027343 0.29297-1.7539 0.19922-1.5 0.089844-1.1836 0.38281-1.7461 0.11719-1.8945 0.18359-1.2734 0.078125-2.0156 0.019532-1.0859 0.089843-2.3633 0.023438-1.1953-0.11328-1.043-0.058594-1.1641-0.082031-1.8242 0.023437-1.3828-0.0625-1.082-0.03125-1.4141-0.078125-1.1836 0.039063-1.1133-0.14844-1.5547-0.12109-2.0352-0.089843-1.7969-0.10156-1.043-0.12891-1.2344-0.21094-1.3633-0.25-3.0195-0.18359-1.5117-0.16016-1.2461-0.16016-1.2109-0.16016-1.0547-0.16797-1.582-0.10156-1.9766-0.19922-1.1641-0.11328-1.0508-0.27734-1.1836-4.2031 0.80078-2.0469 1.4727-1.3242 0.49219 0.92188-0.69141 2.418-1.4023 4.2305-0.8125-0.20703-1.875-0.21094-1.4258-7.5039 1.5039 7.2031-2.5156-0.78516-4.1133-0.42969-2.043-0.91016-4.1562-0.50781-2.8984-0.32031-1.7148-0.20703-1.7031-0.3125-1.0742-0.15625-1.0156-0.27344-2.1133-0.60547-2.2266-0.37109-1.1562-0.29297-2.0703-0.21484-1.1133-0.46875-1.3125-0.23438-1.1719 0.4375-0.95703 4.5039-0.23047 1.6758-0.30469 1.4648-0.40625 1.1602-0.33203 1.2734-0.33984 1.1328-0.41797 0.85938-0.58203 1.3359-1.0859 0.81641-0.60938 0.97266-0.28125 0.29297 0.003906" fill="none" stroke="#fff" stroke-linecap="round" stroke-linejoin="round" stroke-miterlimit="10" stroke-width="2"/>
<path d="m237.32 446.41-0.019531 0.15625-0.14844 1.4141-0.23047 2.1797-0.19141 1.5898-0.10938 1.1289-0.19922 1.6875-0.19531 1.7656-0.17969 1.7344-0.16016 1.2617 0.64844 1.1484v1.2148l-0.28125 1.2344 0.61719 0.84375 0.85156 0.57031-1.3516 0.55078-2.7852 0.27734-2.3164 0.22656-7.2188 0.69531-2.6914 0.23438-1.9062 0.21094-1.4883 0.22266-2.4688 0.25-2.8594 0.28516-3.6406 0.35156-2.582 0.25781-1.4727 0.14844-2.2773 0.16797-2.2852-0.066406-2.4805 0.23438-2.3164 0.39844-2.0312 0.36328-1.1172 0.19922-1.207 0.21484-1.8984 0.33984-1.4492 0.25781-1.0117 0.18359-2.2227 0.39453-1.293 0.22656-1.8281 0.32422-2.0469 0.36719-1.4922 0.26562-0.48438 0.96094-1.0078-0.10156-3.1367-0.058594-2.1328 0.39062-3.0508 0.55859-2.0547 0.37891-1.0859 0.19922-2.0859 0.38281-1.6211 0.29688-2.582 0.47656-1.8359 0.33594-1.0703 0.19531-1.1484 0.21094-1.1328 0.20703-2.6055 0.45312-0.36328-1.1211-0.25781-1.6875-0.14453-1.0078-0.16797-1.1562-0.20312-1.4141-0.23828-1.625-0.16016-1.0703-0.17969-1.207-0.15234-1.0508-0.15234-1.0117-0.17969-1.2109-0.17578-1.1797 1.1914-0.94922 2.2422-0.23047 2.5273-0.26172 2.1523-0.21875 3.082-0.32031 1.0273-0.10547 4.0391-0.48047 3.5781-0.42188 1.2734-0.15234 2.4727-0.29297 0.99609-0.12109 1.4141-0.19531 2-0.38281 2.9727-0.63672 2.2266-0.47656 2.3867-0.51172 1.4375-0.30859 1.1719-0.24219 1.3281-0.27734 1.4688-0.30859 3.7227-0.78906 1.3438-0.28516 1.418-0.30078 1.1055-0.23438 1.8047-0.38281 1.5742-0.33594 1.3867-0.29297 1.1133-0.23047 1.0078-0.20312 1.1133-0.22266 1.2656-0.25391 3.8438-0.76953 2.6094-0.52344 3.2109-0.52344 1.4961-0.24219 1.5391-0.26953 2.6445-0.47266 1.5859-0.28125 1.1641-0.20703 2.6406-0.47266 4.2617-0.75781 1.707-0.30469 3.4609-0.61719z" fill="#ccc" fill-rule="evenodd"/>
<path d="m237.32 446.41-0.019531 0.15625-0.14844 1.4141-0.23047 2.1797-0.19141 1.5898-0.10938 1.1289-0.19922 1.6875-0.19531 1.7656-0.17969 1.7344-0.16016 1.2617 0.64844 1.1484v1.2148l-0.28125 1.2344 0.61719 0.84375 0.85156 0.57031-1.3516 0.55078-2.7852 0.27734-2.3164 0.22656-7.2188 0.69531-2.6914 0.23438-1.9062 0.21094-1.4883 0.22266-2.4688 0.25-2.8594 0.28516-3.6406 0.35156-2.582 0.25781-1.4727 0.14844-2.2773 0.16797-2.2852-0.066406-2.4805 0.23438-2.3164 0.39844-2.0312 0.36328-1.1172 0.19922-1.207 0.21484-1.8984 0.33984-1.4492 0.25781-1.0117 0.18359-2.2227 0.39453-1.293 0.22656-1.8281 0.32422-2.0469 0.36719-1.4922 0.26562-0.48438 0.96094-1.0078-0.10156-3.1367-0.058594-2.1328 0.39062-3.0508 0.55859-2.0547 0.37891-1.0859 0.19922-2.0859 0.38281-1.6211 0.29688-2.582 0.47656-1.8359 0.33594-1.0703 0.19531-1.1484 0.21094-1.1328 0.20703-2.6055 0.45312-0.36328-1.1211-0.25781-1.6875-0.14453-1.0078-0.16797-1.1562-0.20312-1.4141-0.23828-1.625-0.16016-1.0703-0.17969-1.207-0.15234-1.0508-0.15234-1.0117-0.17969-1.2109-0.17578-1.1797 1.1914-0.94922 2.2422-0.23047 2.5273-0.26172 2.1523-0.21875 3.082-0.32031 1.0273-0.10547 4.0391-0.48047 3.5781-0.42188 1.2734-0.15234 2.4727-0.29297 0.99609-0.12109 1.4141-0.19531 2-0.38281 2.9727-0.63672 2.2266-0.47656 2.3867-0.51172 1.4375-0.30859 1.1719-0.24219 1.3281-0.27734 1.4688-0.30859 3.7227-0.78906 1.3438-0.28516 1.418-0.30078 1.1055-0.23438 1.8047-0.38281 1.5742-0.33594 1.3867-0.29297 1.1133-0.23047 1.0078-0.20312 1.1133-0.22266 1.2656-0.25391 3.8438-0.76953 2.6094-0.52344 3.2109-0.52344 1.4961-0.24219 1.5391-0.26953 2.6445-0.47266 1.5859-0.28125 1.1641-0.20703 2.6406-0.47266 4.2617-0.75781 1.707-0.30469 3.4609-0.61719 0.73828 0.21094" fill="none" stroke="#fff" stroke-linecap="round" stroke-linejoin="round" stroke-miterlimit="10" stroke-width="2"/>
<path d="m101.71 474.17 0.054687 0.0625 0.88281 0.62109 0.5625 0.9375 0.76953 0.85156 0.76953 0.73438 0.79688-0.64844-0.28516 2.1914-0.62891 1.3242-0.65625 1.3828-0.47266 1.2188-0.10547 1.0195 0.52344 1.1484 1.0703 0.13281-1.4258 0.95312-0.82031 0.75-0.5625 0.82812-0.70703 1.0234-7.4219 2.2578-1.0039 0.16406-2.2891-1.2188-1.4766-0.41797-1.0859 0.60938-0.38672-1.1016-1.418-0.18359-1.2734 0.082031-1.9766 0.22266-1.1133 0.25391-1.0391 0.19141-0.43359-0.96484-0.74609-0.85156-0.023437-1.0391-0.69922-0.94922-0.40234-0.9375 1.3984 0.015625 1.3086-0.84766 1.2188-0.875 0.24219-1.2734 0.27734-1.5195 0.3125-1.5312 1.0664-1.0703 0.92188-0.51953 0.74219-0.80859-0.59375 0.90625-1.1484 0.69141-0.83594 1.0742-0.21484 1.1055-0.23828 1.5 0.13281 1.0078 0.14453 1.0312 3.3672-1.2188 0.38281-1.2969-0.59375-0.85547 0.039063-1.0195-0.26562-1.0234 1.0352 2.9141 1.5156-0.039062 1.1875-0.39844 0.97656-0.41406 1.2422-0.57031 1.1641-0.39844 0.10938-1.0195 0.76172 0.67188 1.0273-0.32422 0.99609-0.44531-0.12891-1.5117 0.70312 1.1641 1.0625-0.48438 0.32812-0.97266 1.1602 0.22266 1.0352-0.79297 0.90234-0.73047-0.066406-1.0742z" fill="#ccc" fill-rule="evenodd"/>
<path d="m101.71 474.17 0.054687 0.0625 0.88281 0.62109 0.5625 0.9375 0.76953 0.85156 0.76953 0.73438 0.79688-0.64844-0.28516 2.1914-0.62891 1.3242-0.65625 1.3828-0.47266 1.2188-0.10547 1.0195 0.52344 1.1484 1.0703 0.13281-1.4258 0.95312-0.82031 0.75-0.5625 0.82812-0.70703 1.0234-7.4219 2.2578-1.0039 0.16406-2.2891-1.2188-1.4766-0.41797-1.0859 0.60938-0.38672-1.1016-1.418-0.18359-1.2734 0.082031-1.9766 0.22266-1.1133 0.25391-1.0391 0.19141-0.43359-0.96484-0.74609-0.85156-0.023437-1.0391-0.69922-0.94922-0.40234-0.9375 1.3984 0.015625 1.3086-0.84766 1.2188-0.875 0.24219-1.2734 0.27734-1.5195 0.3125-1.5312 1.0664-1.0703 0.92188-0.51953 0.74219-0.80859-0.59375 0.90625-1.1484 0.69141-0.83594 1.0742-0.21484 1.1055-0.23828 1.5 0.13281 1.0078 0.14453 1.0312 3.3672-1.2188 0.38281-1.2969-0.59375-0.85547 0.039063-1.0195-0.26562-1.0234 1.0352 2.9141 1.5156-0.039062 1.1875-0.39844 0.97656-0.41406 1.2422-0.57031 1.1641-0.39844 0.10938-1.0195 0.76172 0.67188 1.0273-0.32422 0.99609-0.44531-0.12891-1.5117 0.70312 1.1641 1.0625-0.48438 0.32812-0.97266 1.1602 0.22266 1.0352-0.79297 0.90234-0.73047-0.066406-1.0742 0.34766 0.082031" fill="none" stroke="#fff" stroke-linecap="round" stroke-linejoin="round" stroke-miterlimit="10" stroke-width="2"/>
<path d="m186.16 46.617 0.29297-0.28125 0.87891 0.74609 1.0352 0.875 0.03125 2.2773-0.27734 1.5312-0.066407 1.0039 0.082032 1.0156 0.44922 1.3203 0.49219 1.6211-1.2891 0.86328-1.6602-0.89062-1.5469-0.67969-1.2695 1.082 0.66016 1.0078-1.082 0.60156 0.98438 1.4414 0.92969 0.89062 1.3477 1.4336 1.0664 1.2734 0.69141-0.86719 0.97266-0.42969 0.86719-0.50391 1.0586 0.23438 0.91797 0.42578 0.69531 0.77734 0.38672 0.94922-0.09375 1.1367-0.23438 0.98047 0.20312 0.99219 0.48828 0.98828-0.65625 0.9375-0.875 0.51562-0.29297 1.0078-0.85547 0.74219-0.30078 1.0312-0.64453 0.96484-0.99219 0.66797-0.92969 0.49219-0.86719 0.92578-0.67969 0.74609-0.14062 1.0742-0.87109 0.55078-1.0859 0.70312-1.0312 0.8125-0.80078 0.97266-0.41016 1.1875-0.78516 1.1562-1.3516 0.51172-1.2227 0.82422-0.64453 0.79688-1.4531 0.54297-0.63281 0.96484-0.625 0.94922-0.85156 0.8125-0.46875 1.2773-3.0586 1.082-0.13281-1.2969-0.92188-3.3359-1.1133 0.007813-0.10938-4.5195 0.82031-2.6914-9.3711 4.2383-1.6602 0.71094-0.76953-1.0117-1.0781-1.4102-0.38281-1.0625-0.11328-1.1406 1.1992-11.086 0.66016-1.6562 0.96484-1.3516 1.6523-1.6289 1.5391-1.5 1.3516-0.92969 1.5547-0.35547 1.207-0.0625 2.2188 0.23438 1.3633-0.007813 2.3281-0.77344 2.7305-1.0664 1.1836-1.0508 1.2969-2.2969 0.77344-2.1992 2.1523-2.6758 1.3438-1.3828 3.7109-3.8125z" fill="#ccc" fill-rule="evenodd"/>
<path d="m186.16 46.617 0.29297-0.28125 0.87891 0.74609 1.0352 0.875 0.03125 2.2773-0.27734 1.5312-0.066407 1.0039 0.082032 1.0156 0.44922 1.3203 0.49219 1.6211-1.2891 0.86328-1.6602-0.89062-1.5469-0.67969-1.2695 1.082 0.66016 1.0078-1.082 0.60156 0.98438 1.4414 0.92969 0.89062 1.3477 1.4336 1.0664 1.2734 0.69141-0.86719 0.97266-0.42969 0.86719-0.50391 1.0586 0.23438 0.91797 0.42578 0.69531 0.77734 0.38672 0.94922-0.09375 1.1367-0.23438 0.98047 0.20312 0.99219 0.48828 0.98828-0.65625 0.9375-0.875 0.51562-0.29297 1.0078-0.85547 0.74219-0.30078 1.0312-0.64453 0.96484-0.99219 0.66797-0.92969 0.49219-0.86719 0.92578-0.67969 0.74609-0.14062 1.0742-0.87109 0.55078-1.0859 0.70312-1.0312 0.8125-0.80078 0.97266-0.41016 1.1875-0.78516 1.1562-1.3516 0.51172-1.2227 0.82422-0.64453 0.79688-1.4531 0.54297-0.63281 0.96484-0.625 0.94922-0.85156 0.8125-0.46875 1.2773-3.0586 1.082-0.13281-1.2969-0.92188-3.3359-1.1133 0.007813-0.10938-4.5195 0.82031-2.6914-9.3711 4.2383-1.6602 0.71094-0.76953-1.0117-1.0781-1.4102-0.38281-1.0625-0.11328-1.1406 1.1992-11.086 0.66016-1.6562 0.96484-1.3516 1.6523-1.6289 1.5391-1.5 1.3516-0.92969 1.5547-0.35547 1.207-0.0625 2.2188 0.23438 1.3633-0.007813 2.3281-0.77344 2.7305-1.0664 1.1836-1.0508 1.2969-2.2969 0.77344-2.1992 2.1523-2.6758 1.3438-1.3828 3.7109-3.8125 1.1172 1.0469" fill="none" stroke="#fff" stroke-linecap="round" stroke-linejoin="round" stroke-miterlimit="10" stroke-width="2"/>
<path d="m186.16 46.617 0.29297-0.28125 0.87891 0.74609 1.0352 0.875 0.03125 2.2773-0.27734 1.5312-0.066407 1.0039 0.082032 1.0156 0.44922 1.3203 0.49219 1.6211-1.2891 0.86328-1.6602-0.89062-1.5469-0.67969-1.2695 1.082 0.66016 1.0078-1.082 0.60156 0.98438 1.4414 0.92969 0.89062 1.3477 1.4336 1.0664 1.2734 0.69141-0.86719 0.97266-0.42969 0.86719-0.50391 1.0586 0.23438 0.91797 0.42578 0.69531 0.77734 0.38672 0.94922-0.09375 1.1367-0.23438 0.98047 0.20312 0.99219 0.48828 0.98828-0.65625 0.9375-0.875 0.51562-0.29297 1.0078-0.85547 0.74219-0.30078 1.0312-0.64453 0.96484-0.99219 0.66797-0.92969 0.49219-0.86719 0.92578-0.67969 0.74609-0.14062 1.0742-0.87109 0.55078-1.0859 0.70312-1.0312 0.8125-0.80078 0.97266-0.41016 1.1875-0.78516 1.1562-1.3516 0.51172-1.2227 0.82422-0.64453 0.79688-1.4531 0.54297-0.63281 0.96484-0.625 0.94922-0.85156 0.8125-0.46875 1.2773-3.0586 1.082-0.13281-1.2969-0.92188-3.3359-1.1133 0.007813-0.10938-4.5195 0.82031-2.6914-9.3711 4.2383-1.6602 0.71094-0.76953-1.0117-1.0781-1.4102-0.38281-1.0625-0.11328-1.1406 1.1992-11.086 0.66016-1.6562 0.96484-1.3516 1.6523-1.6289 1.5391-1.5 1.3516-0.92969 1.5547-0.35547 1.207-0.0625 2.2188 0.23438 1.3633-0.007813 2.3281-0.77344 2.7305-1.0664 1.1836-1.0508 1.2969-2.2969 0.77344-2.1992 2.1523-2.6758 1.3438-1.3828 3.7109-3.8125z" fill="#0a5394" fill-rule="evenodd"/>
<path d="m186.16 46.617 0.29297-0.28125 0.87891 0.74609 1.0352 0.875 0.03125 2.2773-0.27734 1.5312-0.066407 1.0039 0.082032 1.0156 0.44922 1.3203 0.49219 1.6211-1.2891 0.86328-1.6602-0.89062-1.5469-0.67969-1.2695 1.082 0.66016 1.0078-1.082 0.60156 0.98438 1.4414 0.92969 0.89062 1.3477 1.4336 1.0664 1.2734 0.69141-0.86719 0.97266-0.42969 0.86719-0.50391 1.0586 0.23438 0.91797 0.42578 0.69531 0.77734 0.38672 0.94922-0.09375 1.1367-0.23438 0.98047 0.20312 0.99219 0.48828 0.98828-0.65625 0.9375-0.875 0.51562-0.29297 1.0078-0.85547 0.74219-0.30078 1.0312-0.64453 0.96484-0.99219 0.66797-0.92969 0.49219-0.86719 0.92578-0.67969 0.74609-0.14062 1.0742-0.87109 0.55078-1.0859 0.70312-1.0312 0.8125-0.80078 0.97266-0.41016 1.1875-0.78516 1.1562-1.3516 0.51172-1.2227 0.82422-0.64453 0.79688-1.4531 0.54297-0.63281 0.96484-0.625 0.94922-0.85156 0.8125-0.46875 1.2773-3.0586 1.082-0.13281-1.2969-0.92188-3.3359-1.1133 0.007813-0.10938-4.5195 0.82031-2.6914-9.3711 4.2383-1.6602 0.71094-0.76953-1.0117-1.0781-1.4102-0.38281-1.0625-0.11328-1.1406 1.1992-11.086 0.66016-1.6562 0.96484-1.3516 1.6523-1.6289 1.5391-1.5 1.3516-0.92969 1.5547-0.35547 1.207-0.0625 2.2188 0.23438 1.3633-0.007813 2.3281-0.77344 2.7305-1.0664 1.1836-1.0508 1.2969-2.2969 0.77344-2.1992 2.1523-2.6758 1.3438-1.3828 3.7109-3.8125 1.1172 1.0469" fill="none" stroke="#fff" stroke-linecap="round" stroke-linejoin="round" stroke-miterlimit="10"/>
<path d="m172.69 71.035c0 3.5898-2.9102 6.5-6.5 6.5s-6.5-2.9102-6.5-6.5c0-3.5898 2.9102-6.5 6.5-6.5s6.5 2.9102 6.5 6.5" fill="#28c028" fill-rule="evenodd" stroke="#000" stroke-linecap="round" stroke-linejoin="round" stroke-miterlimit="10"/>
<path d="m65.969 65.035v-16.469h4.9844l2.9844 11.234 2.9531-11.234h4.9844v16.469h-3.0938v-12.953l-3.2656 12.953h-3.2031l-3.25-12.953v12.953zm19.109 0v-16.469h3.3125v16.469zm12.875 0v-16.469h5.3438c2.0195 0 3.3359 0.085938 3.9531 0.25 0.9375 0.25 1.7227 0.79297 2.3594 1.625 0.63281 0.82422 0.95312 1.8867 0.95312 3.1875 0 1.0117-0.18359 1.8672-0.54688 2.5625-0.36719 0.6875-0.83594 1.2305-1.4062 1.625-0.5625 0.38672-1.1367 0.64062-1.7188 0.76562-0.79297 0.16797-1.9375 0.25-3.4375 0.25h-2.1719v6.2031zm3.3281-13.672v4.6719h1.8125c1.3125 0 2.1875-0.085937 2.625-0.26562 0.44531-0.17578 0.79688-0.44531 1.0469-0.8125 0.25-0.36328 0.375-0.78906 0.375-1.2812 0-0.59375-0.17969-1.082-0.53125-1.4688-0.35547-0.39453-0.79688-0.64062-1.3281-0.73438-0.39844-0.070312-1.1953-0.10938-2.3906-0.10938zm12.016 13.672v-16.469h12.203v2.7969h-8.875v3.6406h8.2656v2.7812h-8.2656v4.4688h9.2031v2.7812zm15.359 0v-16.469h7c1.7578 0 3.0352 0.15234 3.8281 0.45312 0.80078 0.29297 1.4414 0.82031 1.9219 1.5781 0.47656 0.75 0.71875 1.6172 0.71875 2.5938 0 1.2305-0.36719 2.25-1.0938 3.0625-0.73047 0.80469-1.8203 1.3086-3.2656 1.5156 0.71875 0.41797 1.3125 0.88281 1.7812 1.3906 0.46875 0.5 1.0977 1.3867 1.8906 2.6562l2.0156 3.2188h-3.9688l-2.4062-3.5781c-0.85547-1.2812-1.4375-2.0859-1.75-2.4219-0.3125-0.33203-0.64844-0.5625-1-0.6875-0.35547-0.125-0.91406-0.1875-1.6719-0.1875h-0.67188v6.875zm3.3281-9.5h2.4531c1.5938 0 2.5859-0.066406 2.9844-0.20312 0.39453-0.13281 0.70312-0.36328 0.92188-0.6875 0.22656-0.33203 0.34375-0.75 0.34375-1.25 0-0.55078-0.14844-0.99219-0.4375-1.3281-0.29297-0.34375-0.71094-0.5625-1.25-0.65625-0.27344-0.03125-1.0781-0.046875-2.4219-0.046875h-2.5938zm13.25-6.9688h3.3125v8.9219c0 1.418 0.039063 2.3359 0.125 2.75 0.14453 0.67969 0.48438 1.2188 1.0156 1.625 0.53906 0.40625 1.2734 0.60938 2.2031 0.60938 0.9375 0 1.6445-0.19141 2.125-0.57812 0.47656-0.38281 0.76562-0.85938 0.85938-1.4219 0.10156-0.5625 0.15625-1.4922 0.15625-2.7969v-9.1094h3.3281v8.6562c0 1.9688-0.09375 3.3672-0.28125 4.1875-0.17969 0.8125-0.50781 1.5-0.98438 2.0625-0.48047 0.5625-1.125 1.0117-1.9375 1.3438-0.8125 0.33203-1.8711 0.5-3.1719 0.5-1.5742 0-2.7656-0.18359-3.5781-0.54688-0.8125-0.36328-1.4531-0.83203-1.9219-1.4062-0.46875-0.58203-0.77734-1.1914-0.92188-1.8281-0.21875-0.94531-0.32812-2.3438-0.32812-4.1875zm0 0" fill="none" stroke="#fff" stroke-linecap="round" stroke-linejoin="round" stroke-miterlimit="10" stroke-width="2"/>
<path d="m65.969 65.035v-16.469h4.9844l2.9844 11.234 2.9531-11.234h4.9844v16.469h-3.0938v-12.953l-3.2656 12.953h-3.2031l-3.25-12.953v12.953zm19.109 0v-16.469h3.3125v16.469zm12.875 0v-16.469h5.3438c2.0195 0 3.3359 0.085938 3.9531 0.25 0.9375 0.25 1.7227 0.79297 2.3594 1.625 0.63281 0.82422 0.95312 1.8867 0.95312 3.1875 0 1.0117-0.18359 1.8672-0.54688 2.5625-0.36719 0.6875-0.83594 1.2305-1.4062 1.625-0.5625 0.38672-1.1367 0.64062-1.7188 0.76562-0.79297 0.16797-1.9375 0.25-3.4375 0.25h-2.1719v6.2031zm3.3281-13.672v4.6719h1.8125c1.3125 0 2.1875-0.085937 2.625-0.26562 0.44531-0.17578 0.79688-0.44531 1.0469-0.8125 0.25-0.36328 0.375-0.78906 0.375-1.2812 0-0.59375-0.17969-1.082-0.53125-1.4688-0.35547-0.39453-0.79688-0.64062-1.3281-0.73438-0.39844-0.070312-1.1953-0.10938-2.3906-0.10938zm12.016 13.672v-16.469h12.203v2.7969h-8.875v3.6406h8.2656v2.7812h-8.2656v4.4688h9.2031v2.7812zm15.359 0v-16.469h7c1.7578 0 3.0352 0.15234 3.8281 0.45312 0.80078 0.29297 1.4414 0.82031 1.9219 1.5781 0.47656 0.75 0.71875 1.6172 0.71875 2.5938 0 1.2305-0.36719 2.25-1.0938 3.0625-0.73047 0.80469-1.8203 1.3086-3.2656 1.5156 0.71875 0.41797 1.3125 0.88281 1.7812 1.3906 0.46875 0.5 1.0977 1.3867 1.8906 2.6562l2.0156 3.2188h-3.9688l-2.4062-3.5781c-0.85547-1.2812-1.4375-2.0859-1.75-2.4219-0.3125-0.33203-0.64844-0.5625-1-0.6875-0.35547-0.125-0.91406-0.1875-1.6719-0.1875h-0.67188v6.875zm3.3281-9.5h2.4531c1.5938 0 2.5859-0.066406 2.9844-0.20312 0.39453-0.13281 0.70312-0.36328 0.92188-0.6875 0.22656-0.33203 0.34375-0.75 0.34375-1.25 0-0.55078-0.14844-0.99219-0.4375-1.3281-0.29297-0.34375-0.71094-0.5625-1.25-0.65625-0.27344-0.03125-1.0781-0.046875-2.4219-0.046875h-2.5938zm13.25-6.9688h3.3125v8.9219c0 1.418 0.039063 2.3359 0.125 2.75 0.14453 0.67969 0.48438 1.2188 1.0156 1.625 0.53906 0.40625 1.2734 0.60938 2.2031 0.60938 0.9375 0 1.6445-0.19141 2.125-0.57812 0.47656-0.38281 0.76562-0.85938 0.85938-1.4219 0.10156-0.5625 0.15625-1.4922 0.15625-2.7969v-9.1094h3.3281v8.6562c0 1.9688-0.09375 3.3672-0.28125 4.1875-0.17969 0.8125-0.50781 1.5-0.98438 2.0625-0.48047 0.5625-1.125 1.0117-1.9375 1.3438-0.8125 0.33203-1.8711 0.5-3.1719 0.5-1.5742 0-2.7656-0.18359-3.5781-0.54688-0.8125-0.36328-1.4531-0.83203-1.9219-1.4062-0.46875-0.58203-0.77734-1.1914-0.92188-1.8281-0.21875-0.94531-0.32812-2.3438-0.32812-4.1875z" fill-rule="evenodd"/>
</g>
</svg>
