<?xml version="1.0" encoding="UTF-8"?>
<svg width="500pt" height="350pt" version="1.1" viewBox="0 0 500 350" xmlns="http://www.w3.org/2000/svg">
<g id="a">
<rect width="500" height="350" fill="none"/>
<path d="m146.3 158.85 0.95312 0.58984 1.5078 0.46094 1.1133-0.03125 1.4766 1.0156 0.85156 0.91797 0.85156 0.75391 1.1172 0.29297 0.98047 0.26172 1.2148 0.42969 1.0469 0.75391 0.42578 1.2109-0.16406 1.1133 0.26562 0.98438-0.29688 1.6719 0.28906 2.207 0.42969 1.3789 0.69141 0.73047 1.332 0.90625 0.77734 0.98828 0.55859 1.4648 0.17188 1.0352 0.38672 1.6797 0.47266 1.7617 0.47656 1.8516 0.51562 1.4219 1.4648 1.6797 2.0234 2.3242 0.64453 1.8945-0.042969 2.6289 0.085937 1.0742 1.4219 2.1953 1.9375 1.3359 1.5039 0.55859 2.2422 0.64844 2.1953 1.0312 1.8516 0.64844 1.6797 0.42969 0.90234-0.5625 0.25391-1.1875 0.96484-0.625 1.6016-1.2891 1.9648-0.18359 0.92188 0.61328 0.92188 1.293 0.92578 0.98047 2.0273 1.293 1.5352 1.1055 0.61719 1.4141 0.12109 1.168 0.125 1.293 0.79688 1.4766 0.80078 1.043 1.6602 0.73828 1.9688 0.85938 0.18359 2.1523 0.12109 1.168-0.23828 1.1445v1.2305l1.3828 1 1.8477 1 0.92188 0.92188 0.76562 1.9961 0.57812 1.4219 0.86719 2.5 1.4297 2.957 2.5 0.35938 1.0195 0.20312 1.3242 2.4492 0.71484 1.9883 0.10156 1.2227v1.0703l0.15625 1.0742 0.40625 1.3242 0.65234 1.7578 0.44141 1.2617 0.51172 1.3945 1.125 1.9414 1.293 1.7031 0.64844 1.0898 0.98438 0.98438 1.3984 0.78516 1.7695 0.27344 2.2461 0.44141 1.1562 0.44141 1.4648 1.125 0.71484 0.88672 0.73828 1.2266 1.1914 0.34375 1.3984 0.027344 3.6641-1.0078 2.7227-2.043 2.4258-1.2344 1.3203-0.33984 1.832 0.21094 1.5312 0.76562 1.6172 0.85156 1.5312 1.5742 0.59766 1.1953 0.63672 1.0625 0.12891 1.1484-0.80859 2-0.46875 1.832-0.38281 1.8711-0.085937 1.3633 1.3477 2.0156 2.0742 1.6992 1.1172 1.543-0.046875 2.7656-2.1797 0.19922-3.3789-0.63672-2.1094 0.84766h-2.4297l-2.8516-0.74219-2.1133-0.42188h-1.582l-1.7969 0.53125-1.8867 1.2344-5.2383 2.0664-4.0703 1.5-1.2266 0.42578-3.0312 0.26562-1.6484 0.050782-1.9688 0.53516h-2.1289l-1.5938-0.015625-3.2461-0.30469-2.9805-0.48047-3.6172 0.48047-1.4336 0.42578-1.0117 0.79688-1.2227 1.7031-1.2227 2.0195-1.7031 1.2773-1.1172 0.375-1.2773 0.53125-2.0234 1.8594-0.6875 1.2578-3.2969 3.0078-1.9102 2.0469-1.0703 0.82422-1.7188 1.1797-1.7969 1.4844-1.9648 1.5898-1.4961 1.5391-1.5938 1.8672-0.78125 1.1953-0.79688 1.4844-0.69922 0.73828-0.82422 0.85156-2.5977 0.90625-1.0156 1.8008 0.20703 1.0703 0.82422 2.1562-0.74219 0.75391-1.0039 0.20703-4.5156 0.63281-2.6094 1.0859-2.2383 1.4961-1.7578 0.86328-1.332 0.19531-1.4844-0.30469-2.9375-0.76953-2.9102 0.48047-2.3242 1.1133-1.0547 0.37109-2.1836 0.86719-1.0312 0.30078-0.50781 0.91797-1.5508 1.0469-1.4414 1.0547-1.7734 0.89453-0.76953 0.78125-1.4414 0.75391-1.5938-0.12109-1.4258 0.09375-1.2656 0.23438-1.0273-0.19141-1.0312-0.027344-1.4688-0.44141-1.3867-0.89062-1.6484-0.10938-2.3086 1.0156-1.0977-0.24609-0.98828 0.37109-2.7734-0.26172-1.25-0.38672-1.0703 0.042968-1.2773 0.15234-3.2969 1.125-0.93359 0.60547-1.0039 0.96094-1.4258 0.34375-2.0469-1.5391-0.97656-0.60547-1.2344-0.21875-1.8398-1.3867-1.4844-0.49609-1.9766-0.14844-1.5508-0.23438-1.2227-0.55078-0.94922-0.6875-1.4531-1.4531-0.82422-1.0156-1.1953-1.0742-0.75391-0.78125-1.0742-0.72656-1.3711-0.66016-1.1133-0.69922-1.5664-1.3047-3.6523-3.8047-1.0977-1.5391-0.64453-1.5078-0.54688-1.6641-0.83594-1.1133-0.035157-1.6641 0.64453-1.3281-0.17969-1.0391-1.4336-0.92969-1.793-0.17969-1.0742 0.92969-0.71484 0.89844-1.4336 1.3594-1.1484 1.5781-0.89453 2.1484-0.28516 1.1094-1.1133 1.3984-0.75 0.75391-0.93359 1.0391 0.39453 1.0742-1.2539 1.0039-3.0117 0.53516-1.9688-0.32031-1.3242-0.14453-1.7227 1.0742-1.0742 0.25391-1.0039 0.21484-1.4336 0.28516-1.2891-0.10938-1.0156-0.86328-0.45312-1.7344-0.24609-1.4883-0.25-3.2227-0.28906-1.6953-1.1133-1.8398-0.625-0.96094 0.20312-2.1289-0.25391-1.875-0.35547-2.6875-0.30469-1.0664-2.5859-2.6328-1.418-0.66016-4.3594-0.91016-2.5312-1.4219-1.5195-1.2656-1.0664-1.0625-1.3672-1.5234-1.1172-1.1641-0.91016-0.86328-1.1172-0.45312-1.2656-0.71094-1.1641-1.2188-1.4219-2.5312-1.6719-1.5703-1.6719-1.2188-2.5859-1.1133-2.332-0.60938-2.4805-0.55859-2.1289-0.10156-1.2812-0.074218-1.5078-0.78516-1.9258-1.3672-0.77734-0.94531-0.39062-1.2305 0.066406-1.9141 0.58203-1.7188-0.03125-1.6875v-3.0156l-0.61719-1.4609-0.29297-1.1992-0.77734-1.7852-0.875-1.75-1.0391-0.91016-0.90625-0.51562-0.8125-1.0078 0.03125-1.1328 0.23047-1.1094 0.39453-1.5742 0.24219-1.0352 0.79688-1.25 0.68359-2.6211-0.089843-1.6445-0.25391-0.97656-1.1562-1.7148-0.31641-2.543 0.050781-1.75 0.21094-1.75 0.53125-1.2734 0.74219-1.5898 0.84766-2.1211 1.8047-3.0742 0.95312-2.8086 0.90234-2.332 0.74219-1.1172 2.1758-1.5234 0.96484-0.51562 0.89844-0.83203 1.0117-1.5391 0.71484-1.6914-0.10156-1.4375-0.10547-1.3359 0.15625-1.0781 1.1797-3.3906 0.46484-2.5703 0.050782-1.7969-0.25781-1.7969-0.82031-1.2852-1.3867-1.8984-1.4258-2.0703-1.3906-2.7148-0.14062-1.2539 0.48828-1.8828 0.90625-2.1562 2.0195-2.7188 4.3164-3.4805 1.3945-1.1836 2.8555-1.5352 2.8555-2.2266 1.6523-0.82812 1.168-0.22656 2.1172-0.054687 2.0078 0.44531 2.0039 0.78125 1.3398 0.33594 1.2266 0.27734 1.6719 0.22266 1.2227-0.22266 1.2266-0.054687 1.8398 0.89062 1.0039 0.33594 1.4492 0.72266 2.2891 1.2305 1.0703 0.89062 1.1133 1.25 1.8281 1.9609 0.75781 0.98047 1.0234 1.3398 0.76172 1.1562 1.1133 0.84766 1.2031 0.71484 2.1836 0.80078 1.5156 0.66797 0.89062 0.66797 2.4102 1.6055 1.6016 0.66797 2.1406 0.80469 2.2734 0.84766 1.3398 0.26562 1.5586 0.089844 1.4727-0.089844 1.7812-0.22266 1.3828-0.625 1.4688-0.53516 2.0078 0.35938 1.4688 1.8281 1.4297 1.2461 1.9609 0.80078 1.3828 0.3125 1.1133-0.22266 1.0234-0.35547 1.4727-0.3125 0.75781-0.84766 0.3125-1.293 0.80078-1.5156 1.6484-2.3164 1.6523-1.2031 1.5586-0.3125 1.293-0.49219 1.6055-1.4258 0.48828-1.6055 0.35938-1.0234 0.89062-1.0703 0.80078-1.9141 0.35938-0.98438 0.75781-2.0938 0.17578-1.25 0.89062-1.1562 1.25-1.25 2.3516-1.4961 0.92969-0.86328 1.5273-0.93359 1.9258-0.39844 2.0625-0.39844 2.1211-0.78516 1.8359-2.0312 2.1289-2.418 1.1602-1.5469 1.2539-0.87109 1.2266-0.78906 1.168 0.13672 1.1406 0.28516 1.4258 0.21484 1.3555 0.49609h1.9258l1.4375 0.40234 1.8359 0.52344 2.0312-0.75391 1.4414-0.65625 1.7383-0.49219 1.4414-0.35938 2.1016-0.29297 1.5391-0.19922 1.6055-0.066406z" fill="#ccc" fill-rule="evenodd"/>
<path d="m146.3 158.85 0.95312 0.58984 1.5078 0.46094 1.1133-0.03125 1.4766 1.0156 0.85156 0.91797 0.85156 0.75391 1.1172 0.29297 0.98047 0.26172 1.2148 0.42969 1.0469 0.75391 0.42578 1.2109-0.16406 1.1133 0.26562 0.98438-0.29688 1.6719 0.28906 2.207 0.42969 1.3789 0.69141 0.73047 1.332 0.90625 0.77734 0.98828 0.55859 1.4648 0.17188 1.0352 0.38672 1.6797 0.47266 1.7617 0.47656 1.8516 0.51562 1.4219 1.4648 1.6797 2.0234 2.3242 0.64453 1.8945-0.042969 2.6289 0.085937 1.0742 1.4219 2.1953 1.9375 1.3359 1.5039 0.55859 2.2422 0.64844 2.1953 1.0312 1.8516 0.64844 1.6797 0.42969 0.90234-0.5625 0.25391-1.1875 0.96484-0.625 1.6016-1.2891 1.9648-0.18359 0.92188 0.61328 0.92188 1.293 0.92578 0.98047 2.0273 1.293 1.5352 1.1055 0.61719 1.4141 0.12109 1.168 0.125 1.293 0.79688 1.4766 0.80078 1.043 1.6602 0.73828 1.9688 0.85938 0.18359 2.1523 0.12109 1.168-0.23828 1.1445v1.2305l1.3828 1 1.8477 1 0.92188 0.92188 0.76562 1.9961 0.57812 1.4219 0.86719 2.5 1.4297 2.957 2.5 0.35938 1.0195 0.20312 1.3242 2.4492 0.71484 1.9883 0.10156 1.2227v1.0703l0.15625 1.0742 0.40625 1.3242 0.65234 1.7578 0.44141 1.2617 0.51172 1.3945 1.125 1.9414 1.293 1.7031 0.64844 1.0898 0.98438 0.98438 1.3984 0.78516 1.7695 0.27344 2.2461 0.44141 1.1562 0.44141 1.4648 1.125 0.71484 0.88672 0.73828 1.2266 1.1914 0.34375 1.3984 0.027344 3.6641-1.0078 2.7227-2.043 2.4258-1.2344 1.3203-0.33984 1.832 0.21094 1.5312 0.76562 1.6172 0.85156 1.5312 1.5742 0.59766 1.1953 0.63672 1.0625 0.12891 1.1484-0.80859 2-0.46875 1.832-0.38281 1.8711-0.085937 1.3633 1.3477 2.0156 2.0742 1.6992 1.1172 1.543-0.046875 2.7656-2.1797 0.19922-3.3789-0.63672-2.1094 0.84766h-2.4297l-2.8516-0.74219-2.1133-0.42188h-1.582l-1.7969 0.53125-1.8867 1.2344-5.2383 2.0664-4.0703 1.5-1.2266 0.42578-3.0312 0.26562-1.6484 0.050782-1.9688 0.53516h-2.1289l-1.5938-0.015625-3.2461-0.30469-2.9805-0.48047-3.6172 0.48047-1.4336 0.42578-1.0117 0.79688-1.2227 1.7031-1.2227 2.0195-1.7031 1.2773-1.1172 0.375-1.2773 0.53125-2.0234 1.8594-0.6875 1.2578-3.2969 3.0078-1.9102 2.0469-1.0703 0.82422-1.7188 1.1797-1.7969 1.4844-1.9648 1.5898-1.4961 1.5391-1.5938 1.8672-0.78125 1.1953-0.79688 1.4844-0.69922 0.73828-0.82422 0.85156-2.5977 0.90625-1.0156 1.8008 0.20703 1.0703 0.82422 2.1562-0.74219 0.75391-1.0039 0.20703-4.5156 0.63281-2.6094 1.0859-2.2383 1.4961-1.7578 0.86328-1.332 0.19531-1.4844-0.30469-2.9375-0.76953-2.9102 0.48047-2.3242 1.1133-1.0547 0.37109-2.1836 0.86719-1.0312 0.30078-0.50781 0.91797-1.5508 1.0469-1.4414 1.0547-1.7734 0.89453-0.76953 0.78125-1.4414 0.75391-1.5938-0.12109-1.4258 0.09375-1.2656 0.23438-1.0273-0.19141-1.0312-0.027344-1.4688-0.44141-1.3867-0.89062-1.6484-0.10938-2.3086 1.0156-1.0977-0.24609-0.98828 0.37109-2.7734-0.26172-1.25-0.38672-1.0703 0.042968-1.2773 0.15234-3.2969 1.125-0.93359 0.60547-1.0039 0.96094-1.4258 0.34375-2.0469-1.5391-0.97656-0.60547-1.2344-0.21875-1.8398-1.3867-1.4844-0.49609-1.9766-0.14844-1.5508-0.23438-1.2227-0.55078-0.94922-0.6875-1.4531-1.4531-0.82422-1.0156-1.1953-1.0742-0.75391-0.78125-1.0742-0.72656-1.3711-0.66016-1.1133-0.69922-1.5664-1.3047-3.6523-3.8047-1.0977-1.5391-0.64453-1.5078-0.54688-1.6641-0.83594-1.1133-0.035157-1.6641 0.64453-1.3281-0.17969-1.0391-1.4336-0.92969-1.793-0.17969-1.0742 0.92969-0.71484 0.89844-1.4336 1.3594-1.1484 1.5781-0.89453 2.1484-0.28516 1.1094-1.1133 1.3984-0.75 0.75391-0.93359 1.0391 0.39453 1.0742-1.2539 1.0039-3.0117 0.53516-1.9688-0.32031-1.3242-0.14453-1.7227 1.0742-1.0742 0.25391-1.0039 0.21484-1.4336 0.28516-1.2891-0.10938-1.0156-0.86328-0.45312-1.7344-0.24609-1.4883-0.25-3.2227-0.28906-1.6953-1.1133-1.8398-0.625-0.96094 0.20312-2.1289-0.25391-1.875-0.35547-2.6875-0.30469-1.0664-2.5859-2.6328-1.418-0.66016-4.3594-0.91016-2.5312-1.4219-1.5195-1.2656-1.0664-1.0625-1.3672-1.5234-1.1172-1.1641-0.91016-0.86328-1.1172-0.45312-1.2656-0.71094-1.1641-1.2188-1.4219-2.5312-1.6719-1.5703-1.6719-1.2188-2.5859-1.1133-2.332-0.60938-2.4805-0.55859-2.1289-0.10156-1.2812-0.074218-1.5078-0.78516-1.9258-1.3672-0.77734-0.94531-0.39062-1.2305 0.066406-1.9141 0.58203-1.7188-0.03125-1.6875v-3.0156l-0.61719-1.4609-0.29297-1.1992-0.77734-1.7852-0.875-1.75-1.0391-0.91016-0.90625-0.51562-0.8125-1.0078 0.03125-1.1328 0.23047-1.1094 0.39453-1.5742 0.24219-1.0352 0.79688-1.25 0.68359-2.6211-0.089843-1.6445-0.25391-0.97656-1.1562-1.7148-0.31641-2.543 0.050781-1.75 0.21094-1.75 0.53125-1.2734 0.74219-1.5898 0.84766-2.1211 1.8047-3.0742 0.95312-2.8086 0.90234-2.332 0.74219-1.1172 2.1758-1.5234 0.96484-0.51562 0.89844-0.83203 1.0117-1.5391 0.71484-1.6914-0.10156-1.4375-0.10547-1.3359 0.15625-1.0781 1.1797-3.3906 0.46484-2.5703 0.050782-1.7969-0.25781-1.7969-0.82031-1.2852-1.3867-1.8984-1.4258-2.0703-1.3906-2.7148-0.14062-1.2539 0.48828-1.8828 0.90625-2.1562 2.0195-2.7188 4.3164-3.4805 1.3945-1.1836 2.8555-1.5352 2.8555-2.2266 1.6523-0.82812 1.168-0.22656 2.1172-0.054687 2.0078 0.44531 2.0039 0.78125 1.3398 0.33594 1.2266 0.27734 1.6719 0.22266 1.2227-0.22266 1.2266-0.054687 1.8398 0.89062 1.0039 0.33594 1.4492 0.72266 2.2891 1.2305 1.0703 0.89062 1.1133 1.25 1.8281 1.9609 0.75781 0.98047 1.0234 1.3398 0.76172 1.1562 1.1133 0.84766 1.2031 0.71484 2.1836 0.80078 1.5156 0.66797 0.89062 0.66797 2.4102 1.6055 1.6016 0.66797 2.1406 0.80469 2.2734 0.84766 1.3398 0.26562 1.5586 0.089844 1.4727-0.089844 1.7812-0.22266 1.3828-0.625 1.4688-0.53516 2.0078 0.35938 1.4688 1.8281 1.4297 1.2461 1.9609 0.80078 1.3828 0.3125 1.1133-0.22266 1.0234-0.35547 1.4727-0.3125 0.75781-0.84766 0.3125-1.293 0.80078-1.5156 1.6484-2.3164 1.6523-1.2031 1.5586-0.3125 1.293-0.49219 1.6055-1.4258 0.48828-1.6055 0.35938-1.0234 0.89062-1.0703 0.80078-1.9141 0.35938-0.98438 0.75781-2.0938 0.17578-1.25 0.89062-1.1562 1.25-1.25 2.3516-1.4961 0.92969-0.86328 1.5273-0.93359 1.9258-0.39844 2.0625-0.39844 2.1211-0.78516 1.8359-2.0312 2.1289-2.418 1.1602-1.5469 1.2539-0.87109 1.2266-0.78906 1.168 0.13672 1.1406 0.28516 1.4258 0.21484 1.3555 0.49609h1.9258l1.4375 0.40234 1.8359 0.52344 2.0312-0.75391 1.4414-0.65625 1.7383-0.49219 1.4414-0.35938 2.1016-0.29297 1.5391-0.19922 1.6055-0.066406 0.85156 0.16406" fill="none" stroke="#fff" stroke-linecap="round" stroke-linejoin="round" stroke-miterlimit="10" stroke-width="2"/>
<path d="m249.2 151.49 0.12109 0.027344 1.0312 0.28125 1.125 0.27344 1.0273 0.25391 1.4688 0.35547 1.0586 0.25391 1.0508 0.25391 1.2148 0.29297 2.3828 0.59766 1.1523 0.29688 1.8945 0.55078 2.0703 0.63672 1.3828 0.43359 1.1641 0.36719 1.0508 0.36719 1.2891 0.88281 1.2031 1 0.78516 1.4453 0.54297 1.0938 0.67188 1.1523 0.60938 0.99609 0.875 1.6641 0.71875 1.0898 0.75 1.0391 1.0625 0.17969 1.0391 0.32812 0.95703 0.30859 0.97656 0.26953 1.3398 0.36719 1.3203 0.36328 1.2695 0.38672 0.98828 0.48047 0.90234 0.95703 0.73438 0.71875 1.0547-0.027344 0.80469-0.75391 0.94531-0.41016 1.3555 0.53906 1.3867 0.79688 0.91016 0.42578 0.10547 1.4961 0.32422 0.95312 0.37891 1.0117-0.23438 1.0977-0.76562 0.97656-0.77344 1.1055-1.207 1.7695-0.49219 0.92969-0.61719 0.99219-0.43359 1.2695-0.74609 2.1367-1.332 1.8945-1.4648 0.20703-3.2422-0.41797h-2.5078l-2.0938 0.31641-2.6172 1.043-1.4609 1.7812 0.015625 2.0195 0.56641 1.1328 0.52344 1.0938 0.40625 2.2617-0.039062 1.2539-0.16406 1.2148-0.20312 1.5352-0.72656 1.418 0.40625 1.5742 0.36719 0.94531-0.53125 1.4844 0.40625 1.1289 1.4531 1.2578 1.1133 0.85547 0.90625 0.92969 2.0703 1.1406 0.62109 0.90625 0.80078 1.2148 0.85547 1.6562 0.54297 1.0078 1.3984 1.8125 0.80078 0.82812 0.75 1.0117 0.93359 0.85156 1.7852 0.69922 1.0625 0.62109 0.59375 0.85547 0.64844 0.87891 1.2422 1.2422 1.1641 0.98438 0.90625 0.62109 1.2695 0.82812 0.95703 0.4375 1.9141 0.96094 1.6562 1.0586 0.78516 1.2383 0.57812 1.1602 1.2109 2.4727 2.2109 2 1.8438 1.4727 2.4727 1.3164 1.2109 1.5273 0.73438 0.94531 3.4219 2.1055 1.8945 1.4219 1.4219 0.94531 1.3672 0.68359 1.1055 0.42188 2 1.1055 2.4727 1.5781 2.582 1.8438 1.3125 1.2109 1.1055 0.52734 1.2109 0.47266 0.84375 1.1562 1.3672 1.7891 1.2109 0.73828 1.5273 0.52734 1.5 1.2969 0.42188 0.98047 0.14062 1.5391 0.09375 1.8242-0.32812 2.4297-0.70312 1.6328-1.2148 1.1211-1.3516 0.70312-1.4492 0.60547-2.2422 1.4023-0.93359 1.2617-0.51562 1.6328-0.046875 1.2148-0.42188 2.3828-1.0742 0.28125-1.168-0.32812-1.2148-0.88672-1.4922-1.2617-0.88672-0.98047-1.918-0.69922-1.3086 0.1875-1.2148 0.88672-2.5195 0.046875-1.9648-0.84375-1.0273-0.32422-0.98047-0.23438-2.0547-0.60938-2.3359 0.9375-3.7852 3.7812-0.88672 1.2617-0.88672 1.4961-1.0781 0.60547-1.3984 0.375-1.1055 0.097656-2.4258-1.0508-2.1836-2.3438-0.88672-0.89062-1.293-0.40234-1.6992 0.32422-1.5352 0.24219h-1.375l-0.89062-1.6172 0.80859-1.6172-0.24219-1.0508-1.0508-1.375-1.375-1.0508-2.0234-0.40625-2.668-0.72656-2.1719-0.32031-3.1641 0.64453-2.9102 0.5625-2.832 0.73047-1.9414 0.64453-1.5352 0.40625-2.3438-0.48438-1.6992-0.32422-1.7773-0.72656-1.5391-0.40625h-1.6953l-1.2148 0.32422-1.0508 0.24219-1.7773-0.72656-0.79297-0.66797 0.25781-1.9648-0.74609-1.6484-2.6562-2.3945-0.96484-1.168-0.29688-2.2109 0.38281-1.8711 0.46875-1.832 0.80859-2-0.12891-1.1484-0.63672-1.0625-0.59766-1.1953-0.9375-1.0195-2.2109-1.4062-1.5312-0.76562-1.832-0.21094-1.3203 0.33984-2.4258 1.2344-2.7227 2.043-3.0195 1.0195-2.043-0.039062-1.1914-0.34375-0.73828-1.2266-0.71484-0.88672-1.4609-1.1211-1.1602-0.44531-2.2461-0.44141-1.7695-0.27344-1.3984-0.78516-0.98438-0.98438-0.64844-1.0898-1.293-1.7031-1.125-1.9414-0.51172-1.3945-0.44141-1.2617-0.65234-1.7578-0.40625-1.3242-0.15625-1.0742v-1.0703l-0.10156-1.2227-0.35547-1.2227-1.1211-2.5-1.582-0.91797-1.7344 0.050781-2.1953-3.3672-0.86719-2.5-0.57812-1.4219-0.76562-1.9961-0.92188-0.92188-1.8477-1-1.3828-1v-1.2305l0.23828-1.1445-0.12109-1.168-0.125-1.2305 0.24219-4.0156 0.44141-1.6172 0.79688-3.0156 0.082031-1.043 0.15234-2.2656 0.15625-2.2188-0.25391-1.8516 0.44141-1.4219 1.0781-1.4688 2.0469-0.96484 0.72656-0.97656 0.75391-1.2734 1.1797-0.80859 1.668-1.5664 1.9102-2.8945 3.2852-4.6094 1.8125-4.168 2.7852 0.027343 2.6992 0.38672 1.4102-0.25781 1.6289-1.0703 0.90234-1.0703 0.98438-1.0742 1.1133-0.68359 1.8438-0.56641 0.82422-0.94922 1.0703-1.1406 0.71484-1.1797 1.2227-1.7852 1-1.457 0.78125-0.83594 1.0312-0.69531 0.96875-0.67578 0.76953-0.76562 0.64844-1.125 0.69922-1.1406 0.52734-0.91406 1.1758-1.1562 0.63281-0.94141 0.54688-0.92969 0.98828-0.19922 1.0742-0.55469 0.98047-1.0312 1.1914-0.76562 0.88672-0.48438 0.93359-0.50781 1.1758-0.42188z" fill="#ccc" fill-rule="evenodd"/>
<path d="m249.2 151.49 0.12109 0.027344 1.0312 0.28125 1.125 0.27344 1.0273 0.25391 1.4688 0.35547 1.0586 0.25391 1.0508 0.25391 1.2148 0.29297 2.3828 0.59766 1.1523 0.29688 1.8945 0.55078 2.0703 0.63672 1.3828 0.43359 1.1641 0.36719 1.0508 0.36719 1.2891 0.88281 1.2031 1 0.78516 1.4453 0.54297 1.0938 0.67188 1.1523 0.60938 0.99609 0.875 1.6641 0.71875 1.0898 0.75 1.0391 1.0625 0.17969 1.0391 0.32812 0.95703 0.30859 0.97656 0.26953 1.3398 0.36719 1.3203 0.36328 1.2695 0.38672 0.98828 0.48047 0.90234 0.95703 0.73438 0.71875 1.0547-0.027344 0.80469-0.75391 0.94531-0.41016 1.3555 0.53906 1.3867 0.79688 0.91016 0.42578 0.10547 1.4961 0.32422 0.95312 0.37891 1.0117-0.23438 1.0977-0.76562 0.97656-0.77344 1.1055-1.207 1.7695-0.49219 0.92969-0.61719 0.99219-0.43359 1.2695-0.74609 2.1367-1.332 1.8945-1.4648 0.20703-3.2422-0.41797h-2.5078l-2.0938 0.31641-2.6172 1.043-1.4609 1.7812 0.015625 2.0195 0.56641 1.1328 0.52344 1.0938 0.40625 2.2617-0.039062 1.2539-0.16406 1.2148-0.20312 1.5352-0.72656 1.418 0.40625 1.5742 0.36719 0.94531-0.53125 1.4844 0.40625 1.1289 1.4531 1.2578 1.1133 0.85547 0.90625 0.92969 2.0703 1.1406 0.62109 0.90625 0.80078 1.2148 0.85547 1.6562 0.54297 1.0078 1.3984 1.8125 0.80078 0.82812 0.75 1.0117 0.93359 0.85156 1.7852 0.69922 1.0625 0.62109 0.59375 0.85547 0.64844 0.87891 1.2422 1.2422 1.1641 0.98438 0.90625 0.62109 1.2695 0.82812 0.95703 0.4375 1.9141 0.96094 1.6562 1.0586 0.78516 1.2383 0.57812 1.1602 1.2109 2.4727 2.2109 2 1.8438 1.4727 2.4727 1.3164 1.2109 1.5273 0.73438 0.94531 3.4219 2.1055 1.8945 1.4219 1.4219 0.94531 1.3672 0.68359 1.1055 0.42188 2 1.1055 2.4727 1.5781 2.582 1.8438 1.3125 1.2109 1.1055 0.52734 1.2109 0.47266 0.84375 1.1562 1.3672 1.7891 1.2109 0.73828 1.5273 0.52734 1.5 1.2969 0.42188 0.98047 0.14062 1.5391 0.09375 1.8242-0.32812 2.4297-0.70312 1.6328-1.2148 1.1211-1.3516 0.70312-1.4492 0.60547-2.2422 1.4023-0.93359 1.2617-0.51562 1.6328-0.046875 1.2148-0.42188 2.3828-1.0742 0.28125-1.168-0.32812-1.2148-0.88672-1.4922-1.2617-0.88672-0.98047-1.918-0.69922-1.3086 0.1875-1.2148 0.88672-2.5195 0.046875-1.9648-0.84375-1.0273-0.32422-0.98047-0.23438-2.0547-0.60938-2.3359 0.9375-3.7852 3.7812-0.88672 1.2617-0.88672 1.4961-1.0781 0.60547-1.3984 0.375-1.1055 0.097656-2.4258-1.0508-2.1836-2.3438-0.88672-0.89062-1.293-0.40234-1.6992 0.32422-1.5352 0.24219h-1.375l-0.89062-1.6172 0.80859-1.6172-0.24219-1.0508-1.0508-1.375-1.375-1.0508-2.0234-0.40625-2.668-0.72656-2.1719-0.32031-3.1641 0.64453-2.9102 0.5625-2.832 0.73047-1.9414 0.64453-1.5352 0.40625-2.3438-0.48438-1.6992-0.32422-1.7773-0.72656-1.5391-0.40625h-1.6953l-1.2148 0.32422-1.0508 0.24219-1.7773-0.72656-0.79297-0.66797 0.25781-1.9648-0.74609-1.6484-2.6562-2.3945-0.96484-1.168-0.29688-2.2109 0.38281-1.8711 0.46875-1.832 0.80859-2-0.12891-1.1484-0.63672-1.0625-0.59766-1.1953-0.9375-1.0195-2.2109-1.4062-1.5312-0.76562-1.832-0.21094-1.3203 0.33984-2.4258 1.2344-2.7227 2.043-3.0195 1.0195-2.043-0.039062-1.1914-0.34375-0.73828-1.2266-0.71484-0.88672-1.4609-1.1211-1.1602-0.44531-2.2461-0.44141-1.7695-0.27344-1.3984-0.78516-0.98438-0.98438-0.64844-1.0898-1.293-1.7031-1.125-1.9414-0.51172-1.3945-0.44141-1.2617-0.65234-1.7578-0.40625-1.3242-0.15625-1.0742v-1.0703l-0.10156-1.2227-0.35547-1.2227-1.1211-2.5-1.582-0.91797-1.7344 0.050781-2.1953-3.3672-0.86719-2.5-0.57812-1.4219-0.76562-1.9961-0.92188-0.92188-1.8477-1-1.3828-1v-1.2305l0.23828-1.1445-0.12109-1.168-0.125-1.2305 0.24219-4.0156 0.44141-1.6172 0.79688-3.0156 0.082031-1.043 0.15234-2.2656 0.15625-2.2188-0.25391-1.8516 0.44141-1.4219 1.0781-1.4688 2.0469-0.96484 0.72656-0.97656 0.75391-1.2734 1.1797-0.80859 1.668-1.5664 1.9102-2.8945 3.2852-4.6094 1.8125-4.168 2.7852 0.027343 2.6992 0.38672 1.4102-0.25781 1.6289-1.0703 0.90234-1.0703 0.98438-1.0742 1.1133-0.68359 1.8438-0.56641 0.82422-0.94922 1.0703-1.1406 0.71484-1.1797 1.2227-1.7852 1-1.457 0.78125-0.83594 1.0312-0.69531 0.96875-0.67578 0.76953-0.76562 0.64844-1.125 0.69922-1.1406 0.52734-0.91406 1.1758-1.1562 0.63281-0.94141 0.54688-0.92969 0.98828-0.19922 1.0742-0.55469 0.98047-1.0312 1.1914-0.76562 0.88672-0.48438 0.93359-0.50781 1.1758-0.42188 0.54688 0.13281" fill="none" stroke="#fff" stroke-linecap="round" stroke-linejoin="round" stroke-miterlimit="10" stroke-width="2"/>
<path d="m267.28 147.69 0.058594 0.007813 1.7344 0.25 1.9766 0.35156 1.5234 0.27344 1.1719 0.18359 1.1133 0.29297 1.5391 0.42188 1.0156 0.29297 1.3828 0.41797 1.6914 0.52344 1.2617 0.39062 1.4375 0.44141 1.043 0.32422 1.1094 0.33984 1.1055 0.34375 2.1172 0.65234 1.3711 0.42188 1.0938 0.33984 1.1641 0.35938 1.1172 0.34766 1.0508 0.32422 0.97656 0.30469 1.6055 0.49609 1.4336 0.44531 1.3672 0.41797 1.2734 0.39062 1.293 0.39844 1.1055 0.31641 1.2852 0.25391 1.1016 0.15234 2.5234 0.28125 1.1641 0.14453 1.2852 0.16406 0.72656 0.83594 0.5 1.0781 0.83594 0.83203 0.84766 0.65625 0.78516 0.8125 0.36328 1.293 0.56641 1.3008 0.64062 0.78516 0.97266 0.73047 1.0859 0.19922 1.3633 0.14062 1.707 0.12109 1.0703 0.03125 1.1484 0.007812 1.668-0.039062 1.1094 0.042969 1.3242 0.13281 1.2461 0.11719 1.2969-0.09375 1.0859-0.042969 1.4688 0.089844 1.2969 0.039062 1.1523-0.0625 1.125 0.15625 1.0586 0.39062 1.1289-0.35547 1.0273 0.36328 1.418 0.22266 0.96875 1.1328 0.24219 0.99219 0.007813 1.0078-0.34375 1.1641-0.88672 0.94141-0.8125 0.87109-1.0352 0.09375-1.4805-0.28125-1.5195-0.14844-1.2617-0.070312-1.3086-0.14844-1.4414-0.14062-1.5039-0.15625-2.4297-0.28125-1.1875-0.085937-1.3906-0.12891-1.5781-0.14453-1.0586-0.089843-1.0977-0.21094-0.99609 0.10938-1.4648 0.21484-1.3125 0.48828-1.3125 0.67578-1.5312 0.65625-1.1992 0.75781-1.0742 0.49609-1.2148 0.054687-1.3203-0.25781-1.2305-0.30078-1.2344-0.19141-1.7539-0.33203-1.25-0.24609-1.0273-0.40234-1.0234-0.46484-1.3789-0.29688-1.1562-0.14062-1.0469-0.17969-1.4414-0.75-1.1523-0.33984-1.1016-0.015625-1.0078-0.30859-1.168-0.019532-1.293-0.46875-1.3867-0.79688-1.0391-0.48828-1.0508 0.18359-0.91406 0.875-1.1562 0.082031-0.73438-0.71875-0.65234-0.80859-1.2383-0.62891-0.98047-0.3125-1.1328-0.30078-1.0938-0.3125-1.0508-0.27734-1.1289-0.32812-1.3555-0.42578-0.99609-0.27734-0.97656-1.0078-0.71875-1.0898-0.60547-0.89062-0.87891-1.7695-0.67188-1.1523-0.54297-1.0938-0.57031-0.96875-0.61719-1.0938-0.60938-0.89453-0.97656-1.4648-0.44922-0.92578-0.90234-3.5742-0.73828-2.9297z" fill="#ccc" fill-rule="evenodd"/>
<path d="m267.28 147.69 0.058594 0.007813 1.7344 0.25 1.9766 0.35156 1.5234 0.27344 1.1719 0.18359 1.1133 0.29297 1.5391 0.42188 1.0156 0.29297 1.3828 0.41797 1.6914 0.52344 1.2617 0.39062 1.4375 0.44141 1.043 0.32422 1.1094 0.33984 1.1055 0.34375 2.1172 0.65234 1.3711 0.42188 1.0938 0.33984 1.1641 0.35938 1.1172 0.34766 1.0508 0.32422 0.97656 0.30469 1.6055 0.49609 1.4336 0.44531 1.3672 0.41797 1.2734 0.39062 1.293 0.39844 1.1055 0.31641 1.2852 0.25391 1.1016 0.15234 2.5234 0.28125 1.1641 0.14453 1.2852 0.16406 0.72656 0.83594 0.5 1.0781 0.83594 0.83203 0.84766 0.65625 0.78516 0.8125 0.36328 1.293 0.56641 1.3008 0.64062 0.78516 0.97266 0.73047 1.0859 0.19922 1.3633 0.14062 1.707 0.12109 1.0703 0.03125 1.1484 0.007812 1.668-0.039062 1.1094 0.042969 1.3242 0.13281 1.2461 0.11719 1.2969-0.09375 1.0859-0.042969 1.4688 0.089844 1.2969 0.039062 1.1523-0.0625 1.125 0.15625 1.0586 0.39062 1.1289-0.35547 1.0273 0.36328 1.418 0.22266 0.96875 1.1328 0.24219 0.99219 0.007813 1.0078-0.34375 1.1641-0.88672 0.94141-0.8125 0.87109-1.0352 0.09375-1.4805-0.28125-1.5195-0.14844-1.2617-0.070312-1.3086-0.14844-1.4414-0.14062-1.5039-0.15625-2.4297-0.28125-1.1875-0.085937-1.3906-0.12891-1.5781-0.14453-1.0586-0.089843-1.0977-0.21094-0.99609 0.10938-1.4648 0.21484-1.3125 0.48828-1.3125 0.67578-1.5312 0.65625-1.1992 0.75781-1.0742 0.49609-1.2148 0.054687-1.3203-0.25781-1.2305-0.30078-1.2344-0.19141-1.7539-0.33203-1.25-0.24609-1.0273-0.40234-1.0234-0.46484-1.3789-0.29688-1.1562-0.14062-1.0469-0.17969-1.4414-0.75-1.1523-0.33984-1.1016-0.015625-1.0078-0.30859-1.168-0.019532-1.293-0.46875-1.3867-0.79688-1.0391-0.48828-1.0508 0.18359-0.91406 0.875-1.1562 0.082031-0.73438-0.71875-0.65234-0.80859-1.2383-0.62891-0.98047-0.3125-1.1328-0.30078-1.0938-0.3125-1.0508-0.27734-1.1289-0.32812-1.3555-0.42578-0.99609-0.27734-0.97656-1.0078-0.71875-1.0898-0.60547-0.89062-0.87891-1.7695-0.67188-1.1523-0.54297-1.0938-0.57031-0.96875-0.61719-1.0938-0.60938-0.89453-0.97656-1.4648-0.44922-0.92578-0.90234-3.5742-0.73828-2.9297 0.46484-0.51562" fill="none" stroke="#fff" stroke-linecap="round" stroke-linejoin="round" stroke-miterlimit="10" stroke-width="2"/>
<path d="m199.37 90.34 0.15625 2.2188 0.45703 1.2617-0.46094 2.0352 0.82422 1.9062 1.2344 1.7461 0.51172 0.98828 0.27344 1.0977-0.027343 1.2617-1.332 1.25-1.1406 0.87891-0.6875 1.457 0.26172 0.97656 0.98828 0.65625-0.41016 1.4844-0.53516 0.86328-0.75781 0.9375-0.71484 0.76562-1.082 1.2773-2.0898 2.6641-0.37109 0.94922-0.4375 1.9766-0.52344 1.4844-0.78516 0.98438-1.5938 0.38672-0.75391 1.0469-1.3203 1.3438-1.2773 0.54688-1.2734 0.93359-1.8672 1.1602-2.0078 1.1602-2.0195 2.4727-1.5352 2.2969-0.86328 1.5547-0.60156 2.3203-0.15625 4.1211v2.6562l-0.12109 1.3086-0.85938 2.2852-1.1484 2.0508-0.94531 1.2773-2.168 1.2812-2.6133 1.5547-2.9258 0.90625-1.3281 0.41797-1.1758-0.11328-1.7852 0.23047-1.25 0.79688-1.293 1.2891-0.64453 0.79688-1.2148 1.3281-0.11328 1.5938-0.33984 1.5586-0.79297 1.6758-1.5742-0.58984-0.98047-0.26172-1.1172-0.29297-0.85156-0.75391-0.85156-0.91797-0.78906-0.6875-1.8008-0.29688-1.5078-0.46094-0.95312-0.58984-0.35547-1.0859-0.34375-1.7891-0.34375-1.8555 0.48438-3.1641 0.6875-2.6133 0.61719-4.8125 0.75781-2.1992 1.0977-3.1641 0.82812-2.8867 0.41016-1.4453 1.3086-4.0547 0.48047-1.9961 1.9258-0.89453 1.9258-0.96094 1.4414-1.9258 1.0312-2.4062 0.75781-1.1016 0.20703-1.8555 0.34375-3.0938 0.066407-4.125 0.13672-3.1641 0.11719-1.082 0.69922-0.9375 1.2969 0.51953 1.6484 0.30859 1.0547 0.050781 1.4688-1.3984 1.0859-1.1562 0.83594-0.78125 0.5625-1.1523 0.19141-1.293v-1.3438l0.37109-1.25 0.97656-1.4297 1.4414-1.3164 2.1992-1.4688 1.6875-0.96484 0.79688-0.68359 0.71484-1.0312 0.85156-1.1797 1.125-0.45312 1.6875-0.34375 1.0312 0.066406 2.0742 0.83984 1.1797-0.042969 1.6211-0.94531 1.8672-0.49609 1.4688 0.027343 1.1445 0.027344 1.5977 0.10938 2.1484 0.60547 1.6602-0.33984 1.2812-0.50391 1.0312-0.42969z" fill="#ccc" fill-rule="evenodd"/>
<path d="m199.37 90.34 0.15625 2.2188 0.45703 1.2617-0.46094 2.0352 0.82422 1.9062 1.2344 1.7461 0.51172 0.98828 0.27344 1.0977-0.027343 1.2617-1.332 1.25-1.1406 0.87891-0.6875 1.457 0.26172 0.97656 0.98828 0.65625-0.41016 1.4844-0.53516 0.86328-0.75781 0.9375-0.71484 0.76562-1.082 1.2773-2.0898 2.6641-0.37109 0.94922-0.4375 1.9766-0.52344 1.4844-0.78516 0.98438-1.5938 0.38672-0.75391 1.0469-1.3203 1.3438-1.2773 0.54688-1.2734 0.93359-1.8672 1.1602-2.0078 1.1602-2.0195 2.4727-1.5352 2.2969-0.86328 1.5547-0.60156 2.3203-0.15625 4.1211v2.6562l-0.12109 1.3086-0.85938 2.2852-1.1484 2.0508-0.94531 1.2773-2.168 1.2812-2.6133 1.5547-2.9258 0.90625-1.3281 0.41797-1.1758-0.11328-1.7852 0.23047-1.25 0.79688-1.293 1.2891-0.64453 0.79688-1.2148 1.3281-0.11328 1.5938-0.33984 1.5586-0.79297 1.6758-1.5742-0.58984-0.98047-0.26172-1.1172-0.29297-0.85156-0.75391-0.85156-0.91797-0.78906-0.6875-1.8008-0.29688-1.5078-0.46094-0.95312-0.58984-0.35547-1.0859-0.34375-1.7891-0.34375-1.8555 0.48438-3.1641 0.6875-2.6133 0.61719-4.8125 0.75781-2.1992 1.0977-3.1641 0.82812-2.8867 0.41016-1.4453 1.3086-4.0547 0.48047-1.9961 1.9258-0.89453 1.9258-0.96094 1.4414-1.9258 1.0312-2.4062 0.75781-1.1016 0.20703-1.8555 0.34375-3.0938 0.066407-4.125 0.13672-3.1641 0.11719-1.082 0.69922-0.9375 1.2969 0.51953 1.6484 0.30859 1.0547 0.050781 1.4688-1.3984 1.0859-1.1562 0.83594-0.78125 0.5625-1.1523 0.19141-1.293v-1.3438l0.37109-1.25 0.97656-1.4297 1.4414-1.3164 2.1992-1.4688 1.6875-0.96484 0.79688-0.68359 0.71484-1.0312 0.85156-1.1797 1.125-0.45312 1.6875-0.34375 1.0312 0.066406 2.0742 0.83984 1.1797-0.042969 1.6211-0.94531 1.8672-0.49609 1.4688 0.027343 1.1445 0.027344 1.5977 0.10938 2.1484 0.60547 1.6602-0.33984 1.2812-0.50391 1.0312-0.42969 0.67969 1.5547" fill="none" stroke="#fff" stroke-linecap="round" stroke-linejoin="round" stroke-miterlimit="10" stroke-width="2"/>
<path d="m437.83 102.26 1.7461 0.27344 1.1914-0.36719 1.3398 0.56641 0.78125 1.0195 1.4531 2.1953 0.98047 0.90234 1.1758 0.66797 1.5273 0.50781 1.2578 0.66797 1.1953 0.44531 1.4023 0.78125 1.1562 0.625 0.97656 0.32812 1.7344-0.125 1.5312 0.35156 1.2031 0.32422 1.7812 0.72656 1.6328 0.67969 0.97656 0.65234 1.082 0.35156 1.6797 0.42578 1.3789 0.32812 1.4062 1.0781 0.98047 1.457 1.707 2.7344 1.2031 1.1016 0.92969 0.57812 1.2031 0.45312 1.3789 0.19922 1.1055-0.125 1.3555 0.50391 0.92969 0.92578 1.7461 0.64062 1.3242 0.33203 1.5742 1.6562 1.3125 1.9062h-2.1367l-1.875 0.074219-1.7305 0.625-2.1328 1.2148-1.8398 1.8359-1.4336 1.5117-2.0625 3.3086-1.8398 4.1211-0.66016 1.0664-0.69922 1.3984-0.625 1.5469-1.8047 0.99219-0.95703 0.48047-0.88281 0.69922-0.69922 0.91797-0.69922 2.0586-0.76953 3.2383-1.2891 2.5039-0.73438 1.2852-0.92188 0.73828-1.7305 0.73438-1.3594 0.55078-1.5078 0.88672-0.69922 0.84375 0.25781 1.3633 0.69922 1.0273 0.69922 1.6211 0.10938 1.3242 0.10938 1.25-0.29297 1.0312-0.80859 0.73438-1.6953 1.1406-1.3594 1.2891-0.67188 0.76562-1.0039 1.6172-1.2734 1.6211-1.293 1.6484-0.87891 1.5508-1.8125 2.2656-1.0312 0.99219-3.5586 1.8125-1.9766 0.4375-1.0156 0.32812-1.1523 0.76953-0.92188 1.8672-1.1523 3.8594-1.0156 2.3359-1.1406 1.7969-0.53516 1.0039-0.41406 1.2344-1.0156-0.58984-0.96094-0.93359-1.8789-2.5547-0.89453-0.69922-1.0859-0.49609-3.707 0.03125-0.65625 1.0156 0.011719 1.2344 0.4375 1.3477-0.011719 1.7852 1.0703 2.3477 0.71484 1.8945 1.3047 1.6758 0.76953 0.82422 2.0039 0.41016 1.125-0.15234 1.6484-0.066406 1.5781 0.80859 1.4844 1.6367 1.8125 2.9492 0.42578 0.94922 1.4805 2.4648 0.53906 1.793v1.3906l0.13281 2.2891 0.046875 1.4336 0.35938 1.168 0.98438 1.3477 0.85547 1.0312 0.85156 1.1211 0.53906 1.3477 0.85156 1.3008 1.0312 1.2109 1.8203 1.6875 1.1914 0.88672 0.95312 1.0078 1.1211 1.3477 0.28906 1.125-0.4375 0.96484 0.058594 1.3164 0.58594 1.0195 0.61328 1.0508 0.64062 1.2578 0.26172 1.2852 0.14844 1.1992 0.34766 0.96094 1.1992 1.0234 0.99219 0.17578 2.6406 0.17578 1.2266 0.054687 0.97656 0.6875 1.5078 1.0234 2.8203 2.4297 1.9922 0.92578 1.3164 1.9453 0.77734 1.2617 1.3945 0.85547 0.5625 1.3242 1.2383 0.80469 0.89062 0.78125 1.4336 1 1.5234 1.1953 1.2148 1.4102 0.32422 1.1523 1.1094 2.7578 1.2383 2.1719 1.3672 1.5234-0.82422 0.84766-1.1523 1.043-1.1602 0.94141-3.8555 2.2812-1.793 1.2227-1.707 1.168-1.2461 1.7266-0.98438 1.5625-0.54297 0.94922-0.78125 1.6641-0.95312 2.6133-1.3555 2.207-0.88281 1.2539-1.7305 0.30469-1.0859-0.20312-2.0391 0.10156-1.0508 0.98438-1.4258 2.5469-1.4609 2.5469-0.64453 1.1523-0.98438 1.0859-2.5781 2.0391-1.3711 1.1992-4.3086-1.2617-1.9648-1.2422-1.9688-1.207-1.5195-0.48438-3.2148-1.4688-4.0078-3.0352-1.6055-1.6602-1.832-2.3477-3.207-4.6992-2.9805-3.3203-2.0039-1.1484-3.0938-0.17188-2.1211-0.57031-2.9922-0.71875-4.2266-0.42969-2.0625-0.57031-1.2578-0.80469-2.1758-1.6016-2.0078-0.97656-2.4062-1.6016-1.0859-0.63281-1.2617-0.6875-0.91797-0.57031-1.3164-0.91797-1.4336-0.34375-1.2578-0.34375-3.0352-1.4297-2.293-1.2617-2.75-0.74609-1.4883-0.51562-1.3203-0.80078-1.4297-0.51562-1.8906 0.058594-1.6602 0.17188h-1.6641l-0.6875-0.74609-2.7422-1.3359-2.293-0.82422-1.6484-0.59375-2.8867-1.332-0.82422-0.77734-0.59766-1.832 0.27344-2.1094 0.37109-2.2266 0.10547-1.0234 0.25-1.2891 0.40625-1.6836 0.4375-1.3164 0.50391-1.2773 0.10156-1.4844 0.14062-1.1055 0.078125-1.2148 0.53906-0.91406 0.80859-1.1328 1.2383-0.78125 0.67578-0.96875 0.89062-1.1055 1.3438-1.6992 0.59375-1.4258 0.33203-1.2812 0.23438-1.3086-1.2617-0.53906-1.2773-0.058594-1.7305-0.41797-2.1797-0.5625-1.1172-0.37109-1.3164-0.55469-1.3711-0.51953-0.6875-0.85156-0.79688-0.90625-1.1133-0.61719-1.4258-0.31641-1.4688-0.10938-1.6914-1.3047-1.3594-0.66016-2.0312-0.57812-1.5234-0.26172-0.97656-0.28516-1.2617-1.7852-0.42578-1.582 0.23438-1.7695 0.5625-2.1289-0.082031-2.3906-0.20703-1.5508 0.10938-1.4961-0.027344-1.0859 0.27344-3.4062 1.0977-1.5781 0.64844-2.2109 0.85156-2.1016 1.3164-2.6094 1.4453-1.7461-0.34375-1.0117 0.65625-0.90234 0.64453-0.78125 0.53125-0.91406 0.91406-0.67969 0.93359-0.65234 0.74219-1.0859 1.0938-0.097657 0.46875-0.88672-0.050782-1.0273 0.23438-1.0078 0.69531-0.91797 0.76172-0.76172 0.87109-0.55469 1.0742-0.4375 1.3477-0.53516 0.42578-0.98438 1.0391-1.1445 1.0195-0.37109-0.60156-0.87109-0.90234-0.79297-0.18359-1.3164-0.5-1.3867-0.47266-1.0625-0.85156-0.55078 0.29297-1.2188 0.54297-1.1953 0.51953-1.1523 0.41797-0.92578 0.48828-1.082 0.41797-0.98438 0.47656-1.0234 0.57031-1.1328 0.8125-1.4453 0.48438-0.91797 0.69141-0.875 1.1523-0.98828 1.0039-1.1211 0.875-0.67578 1.0898-0.44922 1.9531-0.90625 1.0469-0.63281 1.0273-1.7852 0.75391-0.91016 0.88281-1.2578 0.69922-0.76953 1.7305-2.0859 0.39844-0.97656 0.38281-1.3047 0.23438-1.2891 0.37109-0.94922 0.39844-1.8672 2.4414-3.6992 1.6406-2.7383 0.042968-1.7344 0.88672-2.0938 1.0625-0.74219 1.625-1.3125 1.1367-1.207 0.76562-1.4102 0.039062-1.6133-0.16016-1.4141 0.50391-1.0273 1.0898-1.4688 0.82422-1.0898 0.36328-0.94922 0.28516-1.4102 0.86719-0.53125 0.95312-0.375h1.0508l1.0508-0.027344 1.6523 0.16797 1.2422 0.62109 1.2695 0.57422 1.1719 0.59766 1.0508 0.43359 1.0039 0.023437 1.5078-0.33594 1.2695 0.097656 2.582-0.38281 1.625 0.070313 1.1016-0.23828 2.0078-0.074219 1.4375-0.66797 0.71094-1.418 0.78516-0.63672 1.7188-0.52344 1.6055-0.11328 1.2344-0.89453 1.4375-0.98828 1.0078 0.14062 1.5156 0.50391 1.375-0.09375 1.1953 0.23047 1.332 0.50391 1.332 0.09375 0.96484-1.0547 1.3281-1.0117 0.79297-0.77734 2.4219-0.14062 1.3789-0.6875 0.87109-1.0586-0.55078-1.8359-0.6875-1.8828-1.1055-2.293-0.41016-1.1484 1.6523-1.0117z" fill="#ccc" fill-rule="evenodd"/>
<path d="m437.83 102.26 1.7461 0.27344 1.1914-0.36719 1.3398 0.56641 0.78125 1.0195 1.4531 2.1953 0.98047 0.90234 1.1758 0.66797 1.5273 0.50781 1.2578 0.66797 1.1953 0.44531 1.4023 0.78125 1.1562 0.625 0.97656 0.32812 1.7344-0.125 1.5312 0.35156 1.2031 0.32422 1.7812 0.72656 1.6328 0.67969 0.97656 0.65234 1.082 0.35156 1.6797 0.42578 1.3789 0.32812 1.4062 1.0781 0.98047 1.457 1.707 2.7344 1.2031 1.1016 0.92969 0.57812 1.2031 0.45312 1.3789 0.19922 1.1055-0.125 1.3555 0.50391 0.92969 0.92578 1.7461 0.64062 1.3242 0.33203 1.5742 1.6562 1.3125 1.9062h-2.1367l-1.875 0.074219-1.7305 0.625-2.1328 1.2148-1.8398 1.8359-1.4336 1.5117-2.0625 3.3086-1.8398 4.1211-0.66016 1.0664-0.69922 1.3984-0.625 1.5469-1.8047 0.99219-0.95703 0.48047-0.88281 0.69922-0.69922 0.91797-0.69922 2.0586-0.76953 3.2383-1.2891 2.5039-0.73438 1.2852-0.92188 0.73828-1.7305 0.73438-1.3594 0.55078-1.5078 0.88672-0.69922 0.84375 0.25781 1.3633 0.69922 1.0273 0.69922 1.6211 0.10938 1.3242 0.10938 1.25-0.29297 1.0312-0.80859 0.73438-1.6953 1.1406-1.3594 1.2891-0.67188 0.76562-1.0039 1.6172-1.2734 1.6211-1.293 1.6484-0.87891 1.5508-1.8125 2.2656-1.0312 0.99219-3.5586 1.8125-1.9766 0.4375-1.0156 0.32812-1.1523 0.76953-0.92188 1.8672-1.1523 3.8594-1.0156 2.3359-1.1406 1.7969-0.53516 1.0039-0.41406 1.2344-1.0156-0.58984-0.96094-0.93359-1.8789-2.5547-0.89453-0.69922-1.0859-0.49609-3.707 0.03125-0.65625 1.0156 0.011719 1.2344 0.4375 1.3477-0.011719 1.7852 1.0703 2.3477 0.71484 1.8945 1.3047 1.6758 0.76953 0.82422 2.0039 0.41016 1.125-0.15234 1.6484-0.066406 1.5781 0.80859 1.4844 1.6367 1.8125 2.9492 0.42578 0.94922 1.4805 2.4648 0.53906 1.793v1.3906l0.13281 2.2891 0.046875 1.4336 0.35938 1.168 0.98438 1.3477 0.85547 1.0312 0.85156 1.1211 0.53906 1.3477 0.85156 1.3008 1.0312 1.2109 1.8203 1.6875 1.1914 0.88672 0.95312 1.0078 1.1211 1.3477 0.28906 1.125-0.4375 0.96484 0.058594 1.3164 0.58594 1.0195 0.61328 1.0508 0.64062 1.2578 0.26172 1.2852 0.14844 1.1992 0.34766 0.96094 1.1992 1.0234 0.99219 0.17578 2.6406 0.17578 1.2266 0.054687 0.97656 0.6875 1.5078 1.0234 2.8203 2.4297 1.9922 0.92578 1.3164 1.9453 0.77734 1.2617 1.3945 0.85547 0.5625 1.3242 1.2383 0.80469 0.89062 0.78125 1.4336 1 1.5234 1.1953 1.2148 1.4102 0.32422 1.1523 1.1094 2.7578 1.2383 2.1719 1.3672 1.5234-0.82422 0.84766-1.1523 1.043-1.1602 0.94141-3.8555 2.2812-1.793 1.2227-1.707 1.168-1.2461 1.7266-0.98438 1.5625-0.54297 0.94922-0.78125 1.6641-0.95312 2.6133-1.3555 2.207-0.88281 1.2539-1.7305 0.30469-1.0859-0.20312-2.0391 0.10156-1.0508 0.98438-1.4258 2.5469-1.4609 2.5469-0.64453 1.1523-0.98438 1.0859-2.5781 2.0391-1.3711 1.1992-4.3086-1.2617-1.9648-1.2422-1.9688-1.207-1.5195-0.48438-3.2148-1.4688-4.0078-3.0352-1.6055-1.6602-1.832-2.3477-3.207-4.6992-2.9805-3.3203-2.0039-1.1484-3.0938-0.17188-2.1211-0.57031-2.9922-0.71875-4.2266-0.42969-2.0625-0.57031-1.2578-0.80469-2.1758-1.6016-2.0078-0.97656-2.4062-1.6016-1.0859-0.63281-1.2617-0.6875-0.91797-0.57031-1.3164-0.91797-1.4336-0.34375-1.2578-0.34375-3.0352-1.4297-2.293-1.2617-2.75-0.74609-1.4883-0.51562-1.3203-0.80078-1.4297-0.51562-1.8906 0.058594-1.6602 0.17188h-1.6641l-0.6875-0.74609-2.7422-1.3359-2.293-0.82422-1.6484-0.59375-2.8867-1.332-0.82422-0.77734-0.59766-1.832 0.27344-2.1094 0.37109-2.2266 0.10547-1.0234 0.25-1.2891 0.40625-1.6836 0.4375-1.3164 0.50391-1.2773 0.10156-1.4844 0.14062-1.1055 0.078125-1.2148 0.53906-0.91406 0.80859-1.1328 1.2383-0.78125 0.67578-0.96875 0.89062-1.1055 1.3438-1.6992 0.59375-1.4258 0.33203-1.2812 0.23438-1.3086-1.2617-0.53906-1.2773-0.058594-1.7305-0.41797-2.1797-0.5625-1.1172-0.37109-1.3164-0.55469-1.3711-0.51953-0.6875-0.85156-0.79688-0.90625-1.1133-0.61719-1.4258-0.31641-1.4688-0.10938-1.6914-1.3047-1.3594-0.66016-2.0312-0.57812-1.5234-0.26172-0.97656-0.28516-1.2617-1.7852-0.42578-1.582 0.23438-1.7695 0.5625-2.1289-0.082031-2.3906-0.20703-1.5508 0.10938-1.4961-0.027344-1.0859 0.27344-3.4062 1.0977-1.5781 0.64844-2.2109 0.85156-2.1016 1.3164-2.6094 1.4453-1.7461-0.34375-1.0117 0.65625-0.90234 0.64453-0.78125 0.53125-0.91406 0.91406-0.67969 0.93359-0.65234 0.74219-1.0859 1.0938-0.097657 0.46875-0.88672-0.050782-1.0273 0.23438-1.0078 0.69531-0.91797 0.76172-0.76172 0.87109-0.55469 1.0742-0.4375 1.3477-0.53516 0.42578-0.98438 1.0391-1.1445 1.0195-0.37109-0.60156-0.87109-0.90234-0.79297-0.18359-1.3164-0.5-1.3867-0.47266-1.0625-0.85156-0.55078 0.29297-1.2188 0.54297-1.1953 0.51953-1.1523 0.41797-0.92578 0.48828-1.082 0.41797-0.98438 0.47656-1.0234 0.57031-1.1328 0.8125-1.4453 0.48438-0.91797 0.69141-0.875 1.1523-0.98828 1.0039-1.1211 0.875-0.67578 1.0898-0.44922 1.9531-0.90625 1.0469-0.63281 1.0273-1.7852 0.75391-0.91016 0.88281-1.2578 0.69922-0.76953 1.7305-2.0859 0.39844-0.97656 0.38281-1.3047 0.23438-1.2891 0.37109-0.94922 0.39844-1.8672 2.4414-3.6992 1.6406-2.7383 0.042968-1.7344 0.88672-2.0938 1.0625-0.74219 1.625-1.3125 1.1367-1.207 0.76562-1.4102 0.039062-1.6133-0.16016-1.4141 0.50391-1.0273 1.0898-1.4688 0.82422-1.0898 0.36328-0.94922 0.28516-1.4102 0.86719-0.53125 0.95312-0.375h1.0508l1.0508-0.027344 1.6523 0.16797 1.2422 0.62109 1.2695 0.57422 1.1719 0.59766 1.0508 0.43359 1.0039 0.023437 1.5078-0.33594 1.2695 0.097656 2.582-0.38281 1.625 0.070313 1.1016-0.23828 2.0078-0.074219 1.4375-0.66797 0.71094-1.418 0.78516-0.63672 1.7188-0.52344 1.6055-0.11328 1.2344-0.89453 1.4375-0.98828 1.0078 0.14062 1.5156 0.50391 1.375-0.09375 1.1953 0.23047 1.332 0.50391 1.332 0.09375 0.96484-1.0547 1.3281-1.0117 0.79297-0.77734 2.4219-0.14062 1.3789-0.6875 0.87109-1.0586-0.55078-1.8359-0.6875-1.8828-1.1055-2.293-0.41016-1.1484 1.6523-1.0117 1.6523 0.27734" fill="none" stroke="#fff" stroke-linecap="round" stroke-linejoin="round" stroke-miterlimit="10" stroke-width="2"/>
<path d="m485.17 128.03 0.019531 0.015625 1.082 0.82812 1.9883 1.4727h2.3906l2.1328-0.035156 1.0312 0.18359 1.1406 0.074218 1.3242 0.18359 1.4727 0.625 1.25 0.44141-0.84375 1.5938-1.4648 0.70312-3.0391 0.97656-3.8555 2.1172-2.6016 2.0078-1.4648 0.92578-1.4688 0.79688-1.8008 0.58984-2.9102 1.6055-0.71484 0.74219-0.48047 1.0977-0.82422 1.1953-0.8125 1.9492-0.10156 1.1875 0.035156 1.0391 0.83594 3.0352 1.2109 2.7461-0.042969 1.3164-0.011719 1.1953 0.35547 1.5273 0.49609 2.25 0.65625 1.1406 0.41406 1.6758 0.30078 1.8398 0.15234 1.4805 0.49219 1.2109 1.6211 2.0039 1.0039 0.79688-0.45312 3.4336-0.33203 1.125-1.3984 1.6758-1.2344 0.82422 0.50781 1.4844 0.46484 0.94531 0.070313 1.4141 0.76953 1.6484 1.2461 1.7852 0.92188 0.93359 0.38672 1.2617-0.25 1.1133-0.48047 1.582 0.46875 1.7422-1.0586 1.375-0.53516 0.86328-0.71484 1.4688-0.37109 1.0742-1.168 1.4531-0.39844 1.0586 0.38672 1.8672 0.26562 1.6211 0.33594 1.4688 0.78516 1.9492 0.57422 0.90625 1.293 1.332 0.79688 1.2773 0.66016 2.707-1.7188 0.64453-1.125-0.28906-1.0039-0.53516-1.3125 0.76562 0.72266 1.9531 0.45312 1.168 0.63281 1.4961 0.39844 1.5508 0.51953 1.1289 0.33203 1.0391 0.21094 1.1172-0.28125 1.1875-1.2891 1.5312-1.1875 1.2227-1.0781 0.97656-1.1523 0.90625-2.2812 0.75-0.96094 0.64844-2.5703 2.1133-1.2344 0.80859-2.3633 1.332-1.6055 1.4141-1.9375 0.97656-1.3867 0.19141-2.6914 1.6484-1.0508 0.83594-1.168 1.1328-0.76562 0.98438-1.0625 1.3906-0.80078 0.80078-1.0352 0.21484-2.3359 0.058594-1.957-0.32031-1.1992-1.0234-0.34766-0.96094-0.14844-1.1992-0.26172-1.2852-0.64062-1.2578-0.61328-1.0508-0.58594-1.0195-0.058594-1.3164 0.4375-0.96484-0.28906-1.125-1.1211-1.3477-0.95312-1.0078-1.1914-0.88672-1.8203-1.6875-1.0312-1.2109-0.85156-1.3008-0.53906-1.3477-0.85156-1.1211-0.85547-1.0312-0.98438-1.3477-0.35938-1.168-0.046875-1.4336-0.13281-2.2891v-1.3906l-0.53906-1.793-1.4805-2.4648-0.42578-0.94922-1.8125-2.9492-1.043-1.2773-2.0195-1.168-1.6484 0.066406-1.125 0.15234-1.7695-0.28906-1.0039-0.94531-0.58984-0.98828-1.4297-2.582-0.89062-1.4297-0.10938-2.0312-0.49609-2.0195-0.011719-1.2344 0.65625-1.0156 3.0078-0.14062 1.7852 0.60547 0.89453 0.69922 1.6445 1.7734 0.67578 1.4961 1.5352 0.80859 0.41406-1.2344 0.53516-1.0039 1.1406-1.7969 1.0156-2.3359 1.1523-3.8594 0.92188-1.8672 1.1523-0.76953 1.0156-0.32812 1.9766-0.4375 2.8047-1.2227 1.7852-1.582 1.8125-2.2656 0.87891-1.5508 1.293-1.6484 1.2734-1.6211 1.0039-1.6172 0.67188-0.76562 1.3594-1.2891 0.95703-0.58984 1.5469-1.2852 0.29297-1.0312-0.10938-1.25-0.10938-1.3242-0.44141-0.99219-0.95703-1.6562-0.25781-1.3633 0.69922-0.84375 1.5078-0.88672 1.3594-0.55078 1.7305-0.73438 0.92188-0.73828 0.73438-1.2852 1.2891-2.5039 0.76953-2.4258 0.69922-2.8711 0.69922-0.91797 0.88281-0.69922 0.95703-0.48047 1.2148-0.47656 0.95703-1.2891 0.95703-2.1719 0.66016-1.0664 1.8398-4.1211 2.0625-3.3086 1.4336-1.5117 1.8398-1.8359 1.25-0.8125 1.7656-0.88281 2.7227-0.21875 1.2148-0.18359z" fill="#ccc" fill-rule="evenodd"/>
<path d="m485.17 128.03 0.019531 0.015625 1.082 0.82812 1.9883 1.4727h2.3906l2.1328-0.035156 1.0312 0.18359 1.1406 0.074218 1.3242 0.18359 1.4727 0.625 1.25 0.44141-0.84375 1.5938-1.4648 0.70312-3.0391 0.97656-3.8555 2.1172-2.6016 2.0078-1.4648 0.92578-1.4688 0.79688-1.8008 0.58984-2.9102 1.6055-0.71484 0.74219-0.48047 1.0977-0.82422 1.1953-0.8125 1.9492-0.10156 1.1875 0.035156 1.0391 0.83594 3.0352 1.2109 2.7461-0.042969 1.3164-0.011719 1.1953 0.35547 1.5273 0.49609 2.25 0.65625 1.1406 0.41406 1.6758 0.30078 1.8398 0.15234 1.4805 0.49219 1.2109 1.6211 2.0039 1.0039 0.79688-0.45312 3.4336-0.33203 1.125-1.3984 1.6758-1.2344 0.82422 0.50781 1.4844 0.46484 0.94531 0.070313 1.4141 0.76953 1.6484 1.2461 1.7852 0.92188 0.93359 0.38672 1.2617-0.25 1.1133-0.48047 1.582 0.46875 1.7422-1.0586 1.375-0.53516 0.86328-0.71484 1.4688-0.37109 1.0742-1.168 1.4531-0.39844 1.0586 0.38672 1.8672 0.26562 1.6211 0.33594 1.4688 0.78516 1.9492 0.57422 0.90625 1.293 1.332 0.79688 1.2773 0.66016 2.707-1.7188 0.64453-1.125-0.28906-1.0039-0.53516-1.3125 0.76562 0.72266 1.9531 0.45312 1.168 0.63281 1.4961 0.39844 1.5508 0.51953 1.1289 0.33203 1.0391 0.21094 1.1172-0.28125 1.1875-1.2891 1.5312-1.1875 1.2227-1.0781 0.97656-1.1523 0.90625-2.2812 0.75-0.96094 0.64844-2.5703 2.1133-1.2344 0.80859-2.3633 1.332-1.6055 1.4141-1.9375 0.97656-1.3867 0.19141-2.6914 1.6484-1.0508 0.83594-1.168 1.1328-0.76562 0.98438-1.0625 1.3906-0.80078 0.80078-1.0352 0.21484-2.3359 0.058594-1.957-0.32031-1.1992-1.0234-0.34766-0.96094-0.14844-1.1992-0.26172-1.2852-0.64062-1.2578-0.61328-1.0508-0.58594-1.0195-0.058594-1.3164 0.4375-0.96484-0.28906-1.125-1.1211-1.3477-0.95312-1.0078-1.1914-0.88672-1.8203-1.6875-1.0312-1.2109-0.85156-1.3008-0.53906-1.3477-0.85156-1.1211-0.85547-1.0312-0.98438-1.3477-0.35938-1.168-0.046875-1.4336-0.13281-2.2891v-1.3906l-0.53906-1.793-1.4805-2.4648-0.42578-0.94922-1.8125-2.9492-1.043-1.2773-2.0195-1.168-1.6484 0.066406-1.125 0.15234-1.7695-0.28906-1.0039-0.94531-0.58984-0.98828-1.4297-2.582-0.89062-1.4297-0.10938-2.0312-0.49609-2.0195-0.011719-1.2344 0.65625-1.0156 3.0078-0.14062 1.7852 0.60547 0.89453 0.69922 1.6445 1.7734 0.67578 1.4961 1.5352 0.80859 0.41406-1.2344 0.53516-1.0039 1.1406-1.7969 1.0156-2.3359 1.1523-3.8594 0.92188-1.8672 1.1523-0.76953 1.0156-0.32812 1.9766-0.4375 2.8047-1.2227 1.7852-1.582 1.8125-2.2656 0.87891-1.5508 1.293-1.6484 1.2734-1.6211 1.0039-1.6172 0.67188-0.76562 1.3594-1.2891 0.95703-0.58984 1.5469-1.2852 0.29297-1.0312-0.10938-1.25-0.10938-1.3242-0.44141-0.99219-0.95703-1.6562-0.25781-1.3633 0.69922-0.84375 1.5078-0.88672 1.3594-0.55078 1.7305-0.73438 0.92188-0.73828 0.73438-1.2852 1.2891-2.5039 0.76953-2.4258 0.69922-2.8711 0.69922-0.91797 0.88281-0.69922 0.95703-0.48047 1.2148-0.47656 0.95703-1.2891 0.95703-2.1719 0.66016-1.0664 1.8398-4.1211 2.0625-3.3086 1.4336-1.5117 1.8398-1.8359 1.25-0.8125 1.7656-0.88281 2.7227-0.21875 1.2148-0.18359 0.92188 0.18359" fill="none" stroke="#fff" stroke-linecap="round" stroke-linejoin="round" stroke-miterlimit="10" stroke-width="2"/>
<path d="m259.04 24.668 1.3086 1.3672 1.668 1.1289 1.3672 0.71484 1.6094 0.83203 1.4258 0.89453 2.1328 1.7969 1.2617 0.82031 1.8438 0.83594 2.7383 0.47266 2.6758 0.0625 1.4883 0.35547 1.0703 0.89453 2.0234 2.1406 1.3125 0.71484 1.6641 0.17969 1.4297-0.0625 1.9023 0.0625 1.7852 0.35547 1.1914 0.53516 1.0117 0.29688 1.6055-0.058593 1.7266-0.23828 1.0742-0.035156 2.0469-0.10156 1.332-0.066407 1.1953 0.375 1.5352 0.035157 0.99219 0.20312 2.2188 0.27344 2.8672 1.2617 2.3906 0.68359 1.3633 0.23828h2.3906l2.3555-1.8086 0.89062-0.78516 1.5703-1.1602 2.5234-1.5703 1.707-1.2305 0.85547-1.0234 1.9453-1.0586 1.3477-0.31641 0.85156 1.2031 0.41406 1.4258 0.62891 1.6133-0.089844 1.4336 0.26953 1.9727 0.44922 1.7031 0.17969 2.4219-0.62891 2.6914 0.71875 2.957 1.1641 3.2305 0.62891 2.5977 0.89453 2.8711 1.0781 2.8672v2.9609l-2.2969 2.543-1.7383 1.582-0.80859 0.89453-1.5234 1.5273-1.5234 2.418-2.0195 2.3828-1.7422 0.58203-1.1758 0.6875-0.93359 0.88281-2.3047 2.4023-0.88281 1.1758-0.58594 1.7148-0.88281 2.3047-1.1758 2.1562-0.53906 1.4727-0.88281 1.3711-1.1289 0.097656-1.8633-0.097656-1.6641 0.24609-2.0117 0.44141-1.1875-0.09375-1.1641-0.058594-0.49219 1.9609 0.49219 1.4688 0.24219 2.7578 0.73828 4.1055 0.36719 2.207 0.36719 3.2461 0.30469 2.6367-0.12109 2.2656-0.12109 1.9609 0.55078 2.5742 0.058594 1.2891-0.42578 1.1016-0.61328 0.98047-0.79688 1.1641-0.61328 1.1641 0.91797 3.25 1.9023 3.125 0.79688 1.2227 1.1016 2.3906 1.3477 1.5938 1.3789 1.0352 0.77344 0.94141-0.92578 2.7422-1.043 1.9609-1.8984 3.125-0.85938 1.5938-1.6523 2.6953-1.1406 1.0703 0.49609 0.875 0.65625 0.78906 0.48828 1.0703 0.96875 1.2656 0.62109 0.96094 0.64453 0.84375 0.69531 0.73047 0.78516 0.78906 0.50781 1.6367-0.54297 0.85156-1.2812-0.17969-2.5469-0.26953-1.3398-0.16016-1.0859-0.18359-1.1523-0.26562-1.0273-0.31641-1.4727-0.45312-1.7734-0.54688-1.0312-0.31641-1.8008-0.55859-1.2852-0.39844-1.2656-0.39062-1.0117-0.3125-1.0078-0.3125-1.3281-0.41406-2.7656-0.85156-1.3047-0.40234-1.332-0.41016-1.3711-0.42578-1.1641-0.35938-1.5352-0.47266-1.6914-0.52344-1.1367-0.35156-1.0391-0.29688-1.0508-0.29688-1.4258-0.375-1.1602-0.22656-1.9336-0.33594-1.0859-0.19141-1.8867-0.30469-1.4141-0.20312 0.89062 3.5352 0.67969 2.6953 0.33594 1.1836 0.94922 1.543 0.97266 1.4375-1.7266-1.0586-1.0352-0.44922-1.1602-0.37109-1.7617-0.55469-1.2266-0.38672-2.0117-0.58984-0.99609-0.28125-2.707-0.6875-1.3594-0.32812-1.4688-0.35547-0.99609-0.24219-1.3438-0.32031-1.2148-0.30078-1.125-0.27344-1.0312-0.28125-1.0898 0.066406-1.0938 0.38672-0.95312 0.51172-1.0742 0.58594-1.0273 0.78516-1.3555 1.2734-1.0664 0.027344-0.66406 0.75781-0.75391 1.2812-1.1758 1.1562-0.52734 0.91406-0.57031 0.91406-0.625 1.0938-0.92188 1.0234-0.96875 0.67578-1.0312 0.69531-0.78125 0.83594-0.84375 1.2305-1.2617 1.8359-0.57422 0.92969-0.875 0.92188-1.2773 1.5938-1.8438 0.56641-1.1133 0.68359-0.98438 1.0742-0.90234 1.0703-0.94141 0.72656-2.0977 0.60156-2.6992-0.38672-1.8008-0.042968-2.7969 4.1836-3.2852 4.6094-1.9102 2.8945-1.668 1.5664-1.1797 0.80859-0.75391 1.2734-0.72656 0.97656-1.3125 0.42188-1.3711 1.3242-0.88281 2.1094 0.125 1.1484-0.027344 2.9219-0.15234 2.2656-0.082031 1.043-0.79688 3.0156-0.44141 1.6172-0.30078 3.0938-1.9688-0.85938-1.6602-0.73828-0.80078-1.043-0.79688-1.4766-0.125-1.293-0.12109-1.168-0.61719-1.4141-1.5352-1.1055-2.0273-1.293-0.92578-0.98047-0.92188-1.293-0.92188-0.61328-1.1055-0.1875-2.4609 1.6602-0.96484 0.625-0.25391 1.1875-0.90234 0.5625-1.6797-0.42969-1.8516-0.64844-2.1953-1.0312-2.2383-0.64844-1.5078-0.55859-1.3359-0.81641-1.6367-1.8516-0.47266-1.9375 0.042969-2.6289-0.25781-1.2891-2.4102-2.9297-1.4648-1.6797-0.51562-1.4219-0.47656-1.8516-0.47266-1.7617-0.38672-1.6797-0.17188-1.0352-0.55859-1.4648-0.77734-0.98828-1.332-0.90625-0.69141-0.73047-0.42969-1.3789-0.32031-1.418 0.26172-1.7383-0.13281-1.3789 0.097656-1.4414-0.42578-1.2109-0.23828-1.4336 0.68359-2.3945 0.11328-1.5938 1.2148-1.3281 0.64453-0.79688 1.293-1.2891 1.25-0.79688 1.7852-0.23047 1.1758 0.11328 1.3281-0.41797 2.9258-0.90625 2.6133-1.5547 2.168-1.2812 0.94531-1.2773 0.86719-1.6445 1.1406-2.6914 0.12109-1.3086v-2.6562l0.16406-3.6758 0.55859-2.7188 0.89844-1.6016 1.5352-2.2969 1.8242-2.3008 2.2031-1.332 1.8672-1.1602 1.2734-0.93359 1.2773-0.54688 1.0469-0.73047 0.44141-1.2188 1.4492-0.73828 1.5156-1.0742 0.52344-1.4844 0.17969-1.5781 0.62891-1.3477 1.5664-1.8789 1.4297-1.7852 0.89062-1.043 0.75781-0.9375 0.53516-0.86328 0.46484-1.0586-1.043-1.082-0.26172-0.97656 0.6875-1.457 0.80859-0.73828 1.332-0.90625 0.35938-1.7461-0.27344-1.0977-0.51172-0.98828-1.2344-1.7461-0.82422-1.9062 0.46094-2.0352-0.45703-1.2617-0.15625-2.2188-0.61719-1.582 1.375-0.45703 2.0117-0.64062 2.5156-1.0078 1.0977-0.73047 1.3242-1.7383 0.73438-1.2812 1.0977-2.2383 0.36328-1.4648 0.6875-0.86719 2.0586-1.375 2.2852-1.1406 2.0117-1.418 1.875-1.6484 2.0117-1.875 0.55078-1.5547 0.54688-3.8398 0.41406-1.1914 0.22656-1.2773 1.3516-1.3633 0.79688-0.65234 1.2812-2.1914 0.32031-1.0547 0.50391-1.5078 0.73047-1.3398 0.47266-1.418 1.0391-1.3203 1.2266-1.6016 0.75391-1.5117 0.27734-1.6562v-1.8516l-0.8125-1.9141 1.3594-0.4375 1.9688-0.34375 2.2305-1.1133 3.0859-0.94531 3.3438-0.59766 2.2305-1.2031 2.3125-3.0859 2.832-2.8281 2.1406-1.8008 1.7148-1.3711 0.85938-1.543 0.59766-1.457 1.1172-1.6289 2.2031-1.6172z" fill="#ccc" fill-rule="evenodd"/>
<path d="m259.04 24.668 1.3086 1.3672 1.668 1.1289 1.3672 0.71484 1.6094 0.83203 1.4258 0.89453 2.1328 1.7969 1.2617 0.82031 1.8438 0.83594 2.7383 0.47266 2.6758 0.0625 1.4883 0.35547 1.0703 0.89453 2.0234 2.1406 1.3125 0.71484 1.6641 0.17969 1.4297-0.0625 1.9023 0.0625 1.7852 0.35547 1.1914 0.53516 1.0117 0.29688 1.6055-0.058593 1.7266-0.23828 1.0742-0.035156 2.0469-0.10156 1.332-0.066407 1.1953 0.375 1.5352 0.035157 0.99219 0.20312 2.2188 0.27344 2.8672 1.2617 2.3906 0.68359 1.3633 0.23828h2.3906l2.3555-1.8086 0.89062-0.78516 1.5703-1.1602 2.5234-1.5703 1.707-1.2305 0.85547-1.0234 1.9453-1.0586 1.3477-0.31641 0.85156 1.2031 0.41406 1.4258 0.62891 1.6133-0.089844 1.4336 0.26953 1.9727 0.44922 1.7031 0.17969 2.4219-0.62891 2.6914 0.71875 2.957 1.1641 3.2305 0.62891 2.5977 0.89453 2.8711 1.0781 2.8672v2.9609l-2.2969 2.543-1.7383 1.582-0.80859 0.89453-1.5234 1.5273-1.5234 2.418-2.0195 2.3828-1.7422 0.58203-1.1758 0.6875-0.93359 0.88281-2.3047 2.4023-0.88281 1.1758-0.58594 1.7148-0.88281 2.3047-1.1758 2.1562-0.53906 1.4727-0.88281 1.3711-1.1289 0.097656-1.8633-0.097656-1.6641 0.24609-2.0117 0.44141-1.1875-0.09375-1.1641-0.058594-0.49219 1.9609 0.49219 1.4688 0.24219 2.7578 0.73828 4.1055 0.36719 2.207 0.36719 3.2461 0.30469 2.6367-0.12109 2.2656-0.12109 1.9609 0.55078 2.5742 0.058594 1.2891-0.42578 1.1016-0.61328 0.98047-0.79688 1.1641-0.61328 1.1641 0.91797 3.25 1.9023 3.125 0.79688 1.2227 1.1016 2.3906 1.3477 1.5938 1.3789 1.0352 0.77344 0.94141-0.92578 2.7422-1.043 1.9609-1.8984 3.125-0.85938 1.5938-1.6523 2.6953-1.1406 1.0703 0.49609 0.875 0.65625 0.78906 0.48828 1.0703 0.96875 1.2656 0.62109 0.96094 0.64453 0.84375 0.69531 0.73047 0.78516 0.78906 0.50781 1.6367-0.54297 0.85156-1.2812-0.17969-2.5469-0.26953-1.3398-0.16016-1.0859-0.18359-1.1523-0.26562-1.0273-0.31641-1.4727-0.45312-1.7734-0.54688-1.0312-0.31641-1.8008-0.55859-1.2852-0.39844-1.2656-0.39062-1.0117-0.3125-1.0078-0.3125-1.3281-0.41406-2.7656-0.85156-1.3047-0.40234-1.332-0.41016-1.3711-0.42578-1.1641-0.35938-1.5352-0.47266-1.6914-0.52344-1.1367-0.35156-1.0391-0.29688-1.0508-0.29688-1.4258-0.375-1.1602-0.22656-1.9336-0.33594-1.0859-0.19141-1.8867-0.30469-1.4141-0.20312 0.89062 3.5352 0.67969 2.6953 0.33594 1.1836 0.94922 1.543 0.97266 1.4375-1.7266-1.0586-1.0352-0.44922-1.1602-0.37109-1.7617-0.55469-1.2266-0.38672-2.0117-0.58984-0.99609-0.28125-2.707-0.6875-1.3594-0.32812-1.4688-0.35547-0.99609-0.24219-1.3438-0.32031-1.2148-0.30078-1.125-0.27344-1.0312-0.28125-1.0898 0.066406-1.0938 0.38672-0.95312 0.51172-1.0742 0.58594-1.0273 0.78516-1.3555 1.2734-1.0664 0.027344-0.66406 0.75781-0.75391 1.2812-1.1758 1.1562-0.52734 0.91406-0.57031 0.91406-0.625 1.0938-0.92188 1.0234-0.96875 0.67578-1.0312 0.69531-0.78125 0.83594-0.84375 1.2305-1.2617 1.8359-0.57422 0.92969-0.875 0.92188-1.2773 1.5938-1.8438 0.56641-1.1133 0.68359-0.98438 1.0742-0.90234 1.0703-0.94141 0.72656-2.0977 0.60156-2.6992-0.38672-1.8008-0.042968-2.7969 4.1836-3.2852 4.6094-1.9102 2.8945-1.668 1.5664-1.1797 0.80859-0.75391 1.2734-0.72656 0.97656-1.3125 0.42188-1.3711 1.3242-0.88281 2.1094 0.125 1.1484-0.027344 2.9219-0.15234 2.2656-0.082031 1.043-0.79688 3.0156-0.44141 1.6172-0.30078 3.0938-1.9688-0.85938-1.6602-0.73828-0.80078-1.043-0.79688-1.4766-0.125-1.293-0.12109-1.168-0.61719-1.4141-1.5352-1.1055-2.0273-1.293-0.92578-0.98047-0.92188-1.293-0.92188-0.61328-1.1055-0.1875-2.4609 1.6602-0.96484 0.625-0.25391 1.1875-0.90234 0.5625-1.6797-0.42969-1.8516-0.64844-2.1953-1.0312-2.2383-0.64844-1.5078-0.55859-1.3359-0.81641-1.6367-1.8516-0.47266-1.9375 0.042969-2.6289-0.25781-1.2891-2.4102-2.9297-1.4648-1.6797-0.51562-1.4219-0.47656-1.8516-0.47266-1.7617-0.38672-1.6797-0.17188-1.0352-0.55859-1.4648-0.77734-0.98828-1.332-0.90625-0.69141-0.73047-0.42969-1.3789-0.32031-1.418 0.26172-1.7383-0.13281-1.3789 0.097656-1.4414-0.42578-1.2109-0.23828-1.4336 0.68359-2.3945 0.11328-1.5938 1.2148-1.3281 0.64453-0.79688 1.293-1.2891 1.25-0.79688 1.7852-0.23047 1.1758 0.11328 1.3281-0.41797 2.9258-0.90625 2.6133-1.5547 2.168-1.2812 0.94531-1.2773 0.86719-1.6445 1.1406-2.6914 0.12109-1.3086v-2.6562l0.16406-3.6758 0.55859-2.7188 0.89844-1.6016 1.5352-2.2969 1.8242-2.3008 2.2031-1.332 1.8672-1.1602 1.2734-0.93359 1.2773-0.54688 1.0469-0.73047 0.44141-1.2188 1.4492-0.73828 1.5156-1.0742 0.52344-1.4844 0.17969-1.5781 0.62891-1.3477 1.5664-1.8789 1.4297-1.7852 0.89062-1.043 0.75781-0.9375 0.53516-0.86328 0.46484-1.0586-1.043-1.082-0.26172-0.97656 0.6875-1.457 0.80859-0.73828 1.332-0.90625 0.35938-1.7461-0.27344-1.0977-0.51172-0.98828-1.2344-1.7461-0.82422-1.9062 0.46094-2.0352-0.45703-1.2617-0.15625-2.2188-0.61719-1.582 1.375-0.45703 2.0117-0.64062 2.5156-1.0078 1.0977-0.73047 1.3242-1.7383 0.73438-1.2812 1.0977-2.2383 0.36328-1.4648 0.6875-0.86719 2.0586-1.375 2.2852-1.1406 2.0117-1.418 1.875-1.6484 2.0117-1.875 0.55078-1.5547 0.54688-3.8398 0.41406-1.1914 0.22656-1.2773 1.3516-1.3633 0.79688-0.65234 1.2812-2.1914 0.32031-1.0547 0.50391-1.5078 0.73047-1.3398 0.47266-1.418 1.0391-1.3203 1.2266-1.6016 0.75391-1.5117 0.27734-1.6562v-1.8516l-0.8125-1.9141 1.3594-0.4375 1.9688-0.34375 2.2305-1.1133 3.0859-0.94531 3.3438-0.59766 2.2305-1.2031 2.3125-3.0859 2.832-2.8281 2.1406-1.8008 1.7148-1.3711 0.85938-1.543 0.59766-1.457 1.1172-1.6289 2.2031-1.6172 1.168 1.0117" fill="none" stroke="#fff" stroke-linecap="round" stroke-linejoin="round" stroke-miterlimit="10" stroke-width="2"/>
<path d="m326.26 76.957 0.74609 1.4961 0.57422 0.85938 1.0352 0.80469 1.0312 0.63281 1.7812 0.28516 1.7812 0.28906 1.6641 0.17188 1.4922 0.22656 1.6641 0.40234 1.418 0.76172 1.4531 1.0781 1.3242 1.0898 2.0664 1.0352 3.3867 1.6055 1.5508 0.46094 2.1797 0.57422 1.8398 1.1484 2.7266 1.7773 1.9336 1.2695 1.9883 0.9375 1.5977 0.16797 1.2422 0.71875 1.4648 0.99219 1.7109 1.2695 1.8516 1.1602 2.8164 1.9336 0.82812 0.60547 0.91016 1.2148 0.99219 1.4922 0.77344 0.85547 1.8516 1.0508 1.0469 0.6875 1.7695 1.7969 1.4883 1.6836 1.1797 0.64844 1.5117 0.77344 1.2148 1.125 0.73828 1.0391 0.74219 1.2734 1.3359 1.2148 1.4219 0.89062 0.94922 0.44141 0.96484 0.5625 1.1484 0.40234-0.30469 1.6719-0.36328 0.94922-0.82422 1.0898-0.72656 1.1289-0.76562 0.94531 0.058593 1.8359-0.039062 1.6133-0.76562 1.4102-0.60547 0.82422-2.1562 1.6953-1.0625 0.74219-0.88672 2.0938-0.042968 1.7344-1.6406 2.7383-2.4414 3.6992-0.39844 1.8672-0.37109 0.94922-0.23438 1.2891-0.38281 1.3047-0.39844 0.97656-1.2227 1.3711-1.207 1.4844-0.88281 1.2578-0.75391 0.91016-0.45312 0.97656-1.6211 1.4414-1.2578 0.77734-1.0039 0.4375-1.0938 0.17969-1.3164 1.4766-0.78906 0.74219-1.0078 0.94141-0.74609 1.3125-0.84766 1.5117-0.57031 1.1328-0.47656 1.0234-0.41797 0.98438-0.48438 1.0664-0.42188 0.94141-0.51953 1.1523-0.54297 1.1953-0.28906 1.1797 0.84766 0.58984 0.47266 1.0625 0.45312 1.0977 0.18359 1.2734 0.94922 1.125 0.94531 0.53125-1.0586 0.375-0.69141 0.76562-0.74609 0.89453-0.86328 0.99219-0.99219 0.41797-1.0273 0.44141-0.85156 0.53125-0.83594 1.0352-0.78516 0.69922 0.16016 1.1328-0.21094 0.98047-0.66406 0.77344-1.043 0.33594-0.64453 0.99219-0.88672 0.53125-0.90625 0.71094-0.44922 0.91406-0.61328 0.78906-0.18359 1.0078-1.5547 2.5195-1.3164 2.6094-0.85156 2.1016-0.64844 2.2109-1.0977 1.5781-0.27344 3.4062 0.027344 1.0859-0.10938 1.4961 0.20703 1.5508 0.082031 2.3906-0.5625 2.1289-0.23438 1.7695 0.42578 1.582 1.2617 1.7852 0.97656 0.28516 1.5234 0.26172 2.0312 0.57812 1.3594 0.66016 1.2109 1.0273 1.9492 0.38672 1.4258 0.31641 1.1133 0.61719 0.79688 0.90625 0.6875 0.85156 1.3711 0.51953 0.92188 0.46875 1.5117 0.45703 1.3047 0.35938 2.1484 0.53516 1.0234 0.13672 1.4961 0.019531 0.24219 1.8359-0.33203 1.2812-0.59375 1.4258-1.3438 1.6992-0.89062 1.1055-0.67578 0.96875-1.2383 0.78125-0.80859 1.1328-0.53906 0.91406-0.078125 1.2148-0.14062 1.1055-0.10156 1.4844-0.50391 1.2773-0.4375 1.3164-0.40625 1.6836-0.25 1.2891-0.10547 1.0234-1.4727 0.21094-2.3164-0.085937h-1.6445l-1.5977-0.085938-2.1055-0.082031-1.6836-0.58984-1.0547-0.21094-1.3047-0.16797-1.0508 0.50391 0.33594 2.5703 0.33594 1.6406-0.21094 1.6406-0.29297 1.8984-0.42188 1.0508-0.63281 1.0508-1.3047 1.0547-1.5977-0.16797-1.0977-0.33594-1.0938-0.29688-1.3047-0.37891-1.3906-0.16797-2.2773-0.66797-1.2109-0.73828-1.1055-0.89453-0.63281-1.6289-1.6836-0.89453-1.1055-0.52734-1.3125-1.2109-2.582-1.8438-2.4727-1.5781-2-1.1055-1.1055-0.42188-1.3672-0.68359-1.4219-0.94531-1.8945-1.4219-2.7891-1.7891-1.3672-1.2617-1.2109-1.5273-2.4727-1.3164-1.8438-1.4727-2.2109-2-1.2109-2.4727-0.57812-1.1602-0.78516-1.2383-1.6562-1.0586-1.9141-0.96094-0.95703-0.4375-1.2695-0.82812-0.90625-0.62109-1.1641-0.98438-1.2422-1.2422-0.64844-0.87891-0.59375-0.85547-1.0625-0.62109-1.0078-0.28516-1.7109-1.2656-0.75-1.0117-0.80078-0.82812-1.3984-1.8125-0.54297-1.0078-0.85547-1.6562-0.80078-1.2148-0.62109-0.90625-1.293-0.77734-1.6836-1.293-1.1133-0.85547-1.0078-0.77734-0.76953-0.92188 0.12109-1.418 0.28125-1.2539-0.6875-1.0508 0.28516-1.6562 0.48438-1.6172 0.28516-1.8633 0.039062-1.2539-0.24219-1.375-0.6875-1.9805-0.56641-1.1328-0.039063-1.1719 1.4844-2.6289 2.6172-1.043 2.0938-0.31641h2.5078l3.2422 0.41797 1.4648-0.20703 0.92578-1.082 0.80859-2.0508 0.77734-2.168 0.61719-0.99219 0.49219-0.92969 0.75-1.0117 1-1.6445 0.67969-0.79297 0.89062-1.1289-0.85547-0.74219-0.15234-0.99609-0.027344-1.4102 0.94531-0.66016 0.99609 0.24609 1.3828 0.10938 1.375 0.34766 1.4414 0.75 1.0469 0.17969 1.1562 0.14062 1.1172 0.23047 1.2852 0.53125 1.0273 0.40234 1.25 0.24609 1.1055 0.23438 1.1562 0.17969 1.5391 0.35547 0.98047 0.22266 1.0234 0.015625 1.543-0.14062 1.1797-0.82031 1.5352-0.74609 1.0195-0.48438 1.3867-0.64062 1.375-0.31641 1.8008-0.23047 1.0977 0.21094 1.0586 0.089843 1.5781 0.14453 1.3906 0.12891 1.1875 0.085937 1.6523 0.1875 1.3867 0.16797 1.6602 0.15625 1.2227 0.125 1.5625 0.14062 1.0586 0.082031 1.4375 0.16016 1.2227 0.29688 1.0078-0.35156 0.98828-1.0742 0.69922-0.96484 0.15625-1.0234-0.13672-1.1289-0.26172-1.3008-1.5078-0.47656-0.98047-0.40625-1.125-0.007812-1.2422 0.19922-0.81641-0.61328-1.3164 0.17188-1.1602-0.058594-1.418-0.023437-1.4492-0.11328-1.3438 0.17578-1.3555-0.09375-1.1953-0.10156-1.6797-0.10156-1.2031-0.066406-1.6133 0.097656-1.0703-0.03125-1.1719-0.054688-1.0898-0.12891-1.1484-0.14453-1.0508-0.16406-0.6875-0.73047-0.97656-1.2539-0.375-1.5938-0.57031-0.97656-0.86328-0.63672-0.74609-0.90234-0.70703-0.71484-0.41406-1.0859-0.40234-0.96875-0.35938-1.0547-0.26172-1.0391-0.87891-0.82031-0.76562-0.83594-0.71094-1.0312-0.68359-1.0859-0.71094-0.96484-0.50781-0.86719-1-1.0664 0.69922-1.2031 2.0586-3.0898 0.85938-1.5938 1.8984-3.125 1.043-1.9609 0.79688-1.8984-0.64453-1.7852-1.3789-1.0352-1.3477-1.5938-1.1016-2.3906-0.79688-1.2227-1.9023-3.125-0.79688-2.332 0.49219-2.082 0.79688-1.1641 0.61328-0.98047 0.42578-1.1016-0.058594-1.2891-0.55078-2.5742 0.12109-1.9609 0.12109-2.2656-0.30469-2.6367-0.36719-3.2461-0.28906-1.7344-0.81641-4.5781-0.24219-2.7578-0.49219-1.4688 0.24609-1.1055 1.4102-0.79688 1.1875 0.09375 2.0117-0.44141 1.6641-0.24609 1.8633 0.097656 1.1289-0.097656 0.88281-1.3711 0.53906-1.4727 1.1758-2.1562 0.88281-2.3047 0.58594-1.7148 0.88281-1.1758 2.3047-2.4023 0.93359-0.88281 1.1758-0.6875 1.7422-0.58203z" fill="#ccc" fill-rule="evenodd"/>
<path d="m326.26 76.957 0.74609 1.4961 0.57422 0.85938 1.0352 0.80469 1.0312 0.63281 1.7812 0.28516 1.7812 0.28906 1.6641 0.17188 1.4922 0.22656 1.6641 0.40234 1.418 0.76172 1.4531 1.0781 1.3242 1.0898 2.0664 1.0352 3.3867 1.6055 1.5508 0.46094 2.1797 0.57422 1.8398 1.1484 2.7266 1.7773 1.9336 1.2695 1.9883 0.9375 1.5977 0.16797 1.2422 0.71875 1.4648 0.99219 1.7109 1.2695 1.8516 1.1602 2.8164 1.9336 0.82812 0.60547 0.91016 1.2148 0.99219 1.4922 0.77344 0.85547 1.8516 1.0508 1.0469 0.6875 1.7695 1.7969 1.4883 1.6836 1.1797 0.64844 1.5117 0.77344 1.2148 1.125 0.73828 1.0391 0.74219 1.2734 1.3359 1.2148 1.4219 0.89062 0.94922 0.44141 0.96484 0.5625 1.1484 0.40234-0.30469 1.6719-0.36328 0.94922-0.82422 1.0898-0.72656 1.1289-0.76562 0.94531 0.058593 1.8359-0.039062 1.6133-0.76562 1.4102-0.60547 0.82422-2.1562 1.6953-1.0625 0.74219-0.88672 2.0938-0.042968 1.7344-1.6406 2.7383-2.4414 3.6992-0.39844 1.8672-0.37109 0.94922-0.23438 1.2891-0.38281 1.3047-0.39844 0.97656-1.2227 1.3711-1.207 1.4844-0.88281 1.2578-0.75391 0.91016-0.45312 0.97656-1.6211 1.4414-1.2578 0.77734-1.0039 0.4375-1.0938 0.17969-1.3164 1.4766-0.78906 0.74219-1.0078 0.94141-0.74609 1.3125-0.84766 1.5117-0.57031 1.1328-0.47656 1.0234-0.41797 0.98438-0.48438 1.0664-0.42188 0.94141-0.51953 1.1523-0.54297 1.1953-0.28906 1.1797 0.84766 0.58984 0.47266 1.0625 0.45312 1.0977 0.18359 1.2734 0.94922 1.125 0.94531 0.53125-1.0586 0.375-0.69141 0.76562-0.74609 0.89453-0.86328 0.99219-0.99219 0.41797-1.0273 0.44141-0.85156 0.53125-0.83594 1.0352-0.78516 0.69922 0.16016 1.1328-0.21094 0.98047-0.66406 0.77344-1.043 0.33594-0.64453 0.99219-0.88672 0.53125-0.90625 0.71094-0.44922 0.91406-0.61328 0.78906-0.18359 1.0078-1.5547 2.5195-1.3164 2.6094-0.85156 2.1016-0.64844 2.2109-1.0977 1.5781-0.27344 3.4062 0.027344 1.0859-0.10938 1.4961 0.20703 1.5508 0.082031 2.3906-0.5625 2.1289-0.23438 1.7695 0.42578 1.582 1.2617 1.7852 0.97656 0.28516 1.5234 0.26172 2.0312 0.57812 1.3594 0.66016 1.2109 1.0273 1.9492 0.38672 1.4258 0.31641 1.1133 0.61719 0.79688 0.90625 0.6875 0.85156 1.3711 0.51953 0.92188 0.46875 1.5117 0.45703 1.3047 0.35938 2.1484 0.53516 1.0234 0.13672 1.4961 0.019531 0.24219 1.8359-0.33203 1.2812-0.59375 1.4258-1.3438 1.6992-0.89062 1.1055-0.67578 0.96875-1.2383 0.78125-0.80859 1.1328-0.53906 0.91406-0.078125 1.2148-0.14062 1.1055-0.10156 1.4844-0.50391 1.2773-0.4375 1.3164-0.40625 1.6836-0.25 1.2891-0.10547 1.0234-1.4727 0.21094-2.3164-0.085937h-1.6445l-1.5977-0.085938-2.1055-0.082031-1.6836-0.58984-1.0547-0.21094-1.3047-0.16797-1.0508 0.50391 0.33594 2.5703 0.33594 1.6406-0.21094 1.6406-0.29297 1.8984-0.42188 1.0508-0.63281 1.0508-1.3047 1.0547-1.5977-0.16797-1.0977-0.33594-1.0938-0.29688-1.3047-0.37891-1.3906-0.16797-2.2773-0.66797-1.2109-0.73828-1.1055-0.89453-0.63281-1.6289-1.6836-0.89453-1.1055-0.52734-1.3125-1.2109-2.582-1.8438-2.4727-1.5781-2-1.1055-1.1055-0.42188-1.3672-0.68359-1.4219-0.94531-1.8945-1.4219-2.7891-1.7891-1.3672-1.2617-1.2109-1.5273-2.4727-1.3164-1.8438-1.4727-2.2109-2-1.2109-2.4727-0.57812-1.1602-0.78516-1.2383-1.6562-1.0586-1.9141-0.96094-0.95703-0.4375-1.2695-0.82812-0.90625-0.62109-1.1641-0.98438-1.2422-1.2422-0.64844-0.87891-0.59375-0.85547-1.0625-0.62109-1.0078-0.28516-1.7109-1.2656-0.75-1.0117-0.80078-0.82812-1.3984-1.8125-0.54297-1.0078-0.85547-1.6562-0.80078-1.2148-0.62109-0.90625-1.293-0.77734-1.6836-1.293-1.1133-0.85547-1.0078-0.77734-0.76953-0.92188 0.12109-1.418 0.28125-1.2539-0.6875-1.0508 0.28516-1.6562 0.48438-1.6172 0.28516-1.8633 0.039062-1.2539-0.24219-1.375-0.6875-1.9805-0.56641-1.1328-0.039063-1.1719 1.4844-2.6289 2.6172-1.043 2.0938-0.31641h2.5078l3.2422 0.41797 1.4648-0.20703 0.92578-1.082 0.80859-2.0508 0.77734-2.168 0.61719-0.99219 0.49219-0.92969 0.75-1.0117 1-1.6445 0.67969-0.79297 0.89062-1.1289-0.85547-0.74219-0.15234-0.99609-0.027344-1.4102 0.94531-0.66016 0.99609 0.24609 1.3828 0.10938 1.375 0.34766 1.4414 0.75 1.0469 0.17969 1.1562 0.14062 1.1172 0.23047 1.2852 0.53125 1.0273 0.40234 1.25 0.24609 1.1055 0.23438 1.1562 0.17969 1.5391 0.35547 0.98047 0.22266 1.0234 0.015625 1.543-0.14062 1.1797-0.82031 1.5352-0.74609 1.0195-0.48438 1.3867-0.64062 1.375-0.31641 1.8008-0.23047 1.0977 0.21094 1.0586 0.089843 1.5781 0.14453 1.3906 0.12891 1.1875 0.085937 1.6523 0.1875 1.3867 0.16797 1.6602 0.15625 1.2227 0.125 1.5625 0.14062 1.0586 0.082031 1.4375 0.16016 1.2227 0.29688 1.0078-0.35156 0.98828-1.0742 0.69922-0.96484 0.15625-1.0234-0.13672-1.1289-0.26172-1.3008-1.5078-0.47656-0.98047-0.40625-1.125-0.007812-1.2422 0.19922-0.81641-0.61328-1.3164 0.17188-1.1602-0.058594-1.418-0.023437-1.4492-0.11328-1.3438 0.17578-1.3555-0.09375-1.1953-0.10156-1.6797-0.10156-1.2031-0.066406-1.6133 0.097656-1.0703-0.03125-1.1719-0.054688-1.0898-0.12891-1.1484-0.14453-1.0508-0.16406-0.6875-0.73047-0.97656-1.2539-0.375-1.5938-0.57031-0.97656-0.86328-0.63672-0.74609-0.90234-0.70703-0.71484-0.41406-1.0859-0.40234-0.96875-0.35938-1.0547-0.26172-1.0391-0.87891-0.82031-0.76562-0.83594-0.71094-1.0312-0.68359-1.0859-0.71094-0.96484-0.50781-0.86719-1-1.0664 0.69922-1.2031 2.0586-3.0898 0.85938-1.5938 1.8984-3.125 1.043-1.9609 0.79688-1.8984-0.64453-1.7852-1.3789-1.0352-1.3477-1.5938-1.1016-2.3906-0.79688-1.2227-1.9023-3.125-0.79688-2.332 0.49219-2.082 0.79688-1.1641 0.61328-0.98047 0.42578-1.1016-0.058594-1.2891-0.55078-2.5742 0.12109-1.9609 0.12109-2.2656-0.30469-2.6367-0.36719-3.2461-0.28906-1.7344-0.81641-4.5781-0.24219-2.7578-0.49219-1.4688 0.24609-1.1055 1.4102-0.79688 1.1875 0.09375 2.0117-0.44141 1.6641-0.24609 1.8633 0.097656 1.1289-0.097656 0.88281-1.3711 0.53906-1.4727 1.1758-2.1562 0.88281-2.3047 0.58594-1.7148 0.88281-1.1758 2.3047-2.4023 0.93359-0.88281 1.1758-0.6875 1.7422-0.58203 1.7227 0.97656" fill="none" stroke="#fff" stroke-linecap="round" stroke-linejoin="round" stroke-miterlimit="10" stroke-width="2"/>
<path d="m437.83 102.26 1.7461 0.27344 1.1914-0.36719 1.3398 0.56641 0.78125 1.0195 1.4531 2.1953 0.98047 0.90234 1.1758 0.66797 1.5273 0.50781 1.2578 0.66797 1.1953 0.44531 1.4023 0.78125 1.1562 0.625 0.97656 0.32812 1.7344-0.125 1.5312 0.35156 1.2031 0.32422 1.7812 0.72656 1.6328 0.67969 0.97656 0.65234 1.082 0.35156 1.6797 0.42578 1.3789 0.32812 1.4062 1.0781 0.98047 1.457 1.707 2.7344 1.2031 1.1016 0.92969 0.57812 1.2031 0.45312 1.3789 0.19922 1.1055-0.125 1.3555 0.50391 0.92969 0.92578 1.7461 0.64062 1.3242 0.33203 1.5742 1.6562 1.3125 1.9062h-2.1367l-1.875 0.074219-1.7305 0.625-2.1328 1.2148-1.8398 1.8359-1.4336 1.5117-2.0625 3.3086-1.8398 4.1211-0.66016 1.0664-0.69922 1.3984-0.625 1.5469-1.8047 0.99219-0.95703 0.48047-0.88281 0.69922-0.69922 0.91797-0.69922 2.0586-0.76953 3.2383-1.2891 2.5039-0.73438 1.2852-0.92188 0.73828-1.7305 0.73438-1.3594 0.55078-1.5078 0.88672-0.69922 0.84375 0.25781 1.3633 0.69922 1.0273 0.69922 1.6211 0.10938 1.3242 0.10938 1.25-0.29297 1.0312-0.80859 0.73438-1.6953 1.1406-1.3594 1.2891-0.67188 0.76562-1.0039 1.6172-1.2734 1.6211-1.293 1.6484-0.87891 1.5508-1.8125 2.2656-1.0312 0.99219-3.5586 1.8125-1.9766 0.4375-1.0156 0.32812-1.1523 0.76953-0.92188 1.8672-1.1523 3.8594-1.0156 2.3359-1.1406 1.7969-0.53516 1.0039-0.41406 1.2344-1.0156-0.58984-0.96094-0.93359-1.8789-2.5547-0.89453-0.69922-1.0859-0.49609-3.707 0.03125-0.65625 1.0156 0.011719 1.2344 0.4375 1.3477-0.011719 1.7852 1.0703 2.3477 0.71484 1.8945 1.3047 1.6758 0.76953 0.82422 2.0039 0.41016 1.125-0.15234 1.6484-0.066406 1.5781 0.80859 1.4844 1.6367 1.8125 2.9492 0.42578 0.94922 1.4805 2.4648 0.53906 1.793v1.3906l0.13281 2.2891 0.046875 1.4336 0.35938 1.168 0.98438 1.3477 0.85547 1.0312 0.85156 1.1211 0.53906 1.3477 0.85156 1.3008 1.0312 1.2109 1.8203 1.6875 1.1914 0.88672 0.95312 1.0078 1.1211 1.3477 0.28906 1.125-0.4375 0.96484 0.058594 1.3164 0.58594 1.0195 0.61328 1.0508 0.64062 1.2578 0.26172 1.2852 0.14844 1.1992 0.34766 0.96094 1.1992 1.0234 0.99219 0.17578 2.6406 0.17578 1.2266 0.054687 0.97656 0.6875 1.5078 1.0234 2.8203 2.4297 1.9922 0.92578 1.3164 1.9453 0.77734 1.2617 1.3945 0.85547 0.5625 1.3242 1.2383 0.80469 0.89062 0.78125 1.4336 1 1.5234 1.1953 1.2148 1.4102 0.32422 1.1523 1.1094 2.7578 1.2383 2.1719 1.3672 1.5234-0.82422 0.84766-1.1523 1.043-1.1602 0.94141-3.8555 2.2812-1.793 1.2227-1.707 1.168-1.2461 1.7266-0.98438 1.5625-0.54297 0.94922-0.78125 1.6641-0.95312 2.6133-1.3555 2.207-0.88281 1.2539-1.7305 0.30469-1.0859-0.20312-2.0391 0.10156-1.0508 0.98438-1.4258 2.5469-1.4609 2.5469-0.64453 1.1523-0.98438 1.0859-2.5781 2.0391-1.3711 1.1992-4.3086-1.2617-1.9648-1.2422-1.9688-1.207-1.5195-0.48438-3.2148-1.4688-4.0078-3.0352-1.6055-1.6602-1.832-2.3477-3.207-4.6992-2.9805-3.3203-2.0039-1.1484-3.0938-0.17188-2.1211-0.57031-2.9922-0.71875-4.2266-0.42969-2.0625-0.57031-1.2578-0.80469-2.1758-1.6016-2.0078-0.97656-2.4062-1.6016-1.0859-0.63281-1.2617-0.6875-0.91797-0.57031-1.3164-0.91797-1.4336-0.34375-1.2578-0.34375-3.0352-1.4297-2.293-1.2617-2.75-0.74609-1.4883-0.51562-1.3203-0.80078-1.4297-0.51562-1.8906 0.058594-1.6602 0.17188h-1.6641l-0.6875-0.74609-2.7422-1.3359-2.293-0.82422-1.6484-0.59375-2.8867-1.332-0.82422-0.77734-0.59766-1.832 0.27344-2.1094 0.37109-2.2266 0.10547-1.0234 0.25-1.2891 0.40625-1.6836 0.4375-1.3164 0.50391-1.2773 0.10156-1.4844 0.14062-1.1055 0.078125-1.2148 0.53906-0.91406 0.80859-1.1328 1.2383-0.78125 0.67578-0.96875 0.89062-1.1055 1.3438-1.6992 0.59375-1.4258 0.33203-1.2812 0.23438-1.3086-1.2617-0.53906-1.2773-0.058594-1.7305-0.41797-2.1797-0.5625-1.1172-0.37109-1.3164-0.55469-1.3711-0.51953-0.6875-0.85156-0.79688-0.90625-1.1133-0.61719-1.4258-0.31641-1.4688-0.10938-1.6914-1.3047-1.3594-0.66016-2.0312-0.57812-1.5234-0.26172-0.97656-0.28516-1.2617-1.7852-0.42578-1.582 0.23438-1.7695 0.5625-2.1289-0.082031-2.3906-0.20703-1.5508 0.10938-1.4961-0.027344-1.0859 0.27344-3.4062 1.0977-1.5781 0.64844-2.2109 0.85156-2.1016 1.3164-2.6094 1.4453-1.7461-0.34375-1.0117 0.65625-0.90234 0.64453-0.78125 0.53125-0.91406 0.91406-0.67969 0.93359-0.65234 0.74219-1.0859 1.0938-0.097657 0.46875-0.88672-0.050782-1.0273 0.23438-1.0078 0.69531-0.91797 0.76172-0.76172 0.87109-0.55469 1.0742-0.4375 1.3477-0.53516 0.42578-0.98438 1.0391-1.1445 1.0195-0.37109-0.60156-0.87109-0.90234-0.79297-0.18359-1.3164-0.5-1.3867-0.47266-1.0625-0.85156-0.55078 0.29297-1.2188 0.54297-1.1953 0.51953-1.1523 0.41797-0.92578 0.48828-1.082 0.41797-0.98438 0.47656-1.0234 0.57031-1.1328 0.8125-1.4453 0.48438-0.91797 0.69141-0.875 1.1523-0.98828 1.0039-1.1211 0.875-0.67578 1.0898-0.44922 1.9531-0.90625 1.0469-0.63281 1.0273-1.7852 0.75391-0.91016 0.88281-1.2578 0.69922-0.76953 1.7305-2.0859 0.39844-0.97656 0.38281-1.3047 0.23438-1.2891 0.37109-0.94922 0.39844-1.8672 2.4414-3.6992 1.6406-2.7383 0.042968-1.7344 0.88672-2.0938 1.0625-0.74219 1.625-1.3125 1.1367-1.207 0.76562-1.4102 0.039062-1.6133-0.16016-1.4141 0.50391-1.0273 1.0898-1.4688 0.82422-1.0898 0.36328-0.94922 0.28516-1.4102 0.86719-0.53125 0.95312-0.375h1.0508l1.0508-0.027344 1.6523 0.16797 1.2422 0.62109 1.2695 0.57422 1.1719 0.59766 1.0508 0.43359 1.0039 0.023437 1.5078-0.33594 1.2695 0.097656 2.582-0.38281 1.625 0.070313 1.1016-0.23828 2.0078-0.074219 1.4375-0.66797 0.71094-1.418 0.78516-0.63672 1.7188-0.52344 1.6055-0.11328 1.2344-0.89453 1.4375-0.98828 1.0078 0.14062 1.5156 0.50391 1.375-0.09375 1.1953 0.23047 1.332 0.50391 1.332 0.09375 0.96484-1.0547 1.3281-1.0117 0.79297-0.77734 2.4219-0.14062 1.3789-0.6875 0.87109-1.0586-0.55078-1.8359-0.6875-1.8828-1.1055-2.293-0.41016-1.1484 1.6523-1.0117z" fill="#0a5394" fill-rule="evenodd"/>
<path d="m437.83 102.26 1.7461 0.27344 1.1914-0.36719 1.3398 0.56641 0.78125 1.0195 1.4531 2.1953 0.98047 0.90234 1.1758 0.66797 1.5273 0.50781 1.2578 0.66797 1.1953 0.44531 1.4023 0.78125 1.1562 0.625 0.97656 0.32812 1.7344-0.125 1.5312 0.35156 1.2031 0.32422 1.7812 0.72656 1.6328 0.67969 0.97656 0.65234 1.082 0.35156 1.6797 0.42578 1.3789 0.32812 1.4062 1.0781 0.98047 1.457 1.707 2.7344 1.2031 1.1016 0.92969 0.57812 1.2031 0.45312 1.3789 0.19922 1.1055-0.125 1.3555 0.50391 0.92969 0.92578 1.7461 0.64062 1.3242 0.33203 1.5742 1.6562 1.3125 1.9062h-2.1367l-1.875 0.074219-1.7305 0.625-2.1328 1.2148-1.8398 1.8359-1.4336 1.5117-2.0625 3.3086-1.8398 4.1211-0.66016 1.0664-0.69922 1.3984-0.625 1.5469-1.8047 0.99219-0.95703 0.48047-0.88281 0.69922-0.69922 0.91797-0.69922 2.0586-0.76953 3.2383-1.2891 2.5039-0.73438 1.2852-0.92188 0.73828-1.7305 0.73438-1.3594 0.55078-1.5078 0.88672-0.69922 0.84375 0.25781 1.3633 0.69922 1.0273 0.69922 1.6211 0.10938 1.3242 0.10938 1.25-0.29297 1.0312-0.80859 0.73438-1.6953 1.1406-1.3594 1.2891-0.67188 0.76562-1.0039 1.6172-1.2734 1.6211-1.293 1.6484-0.87891 1.5508-1.8125 2.2656-1.0312 0.99219-3.5586 1.8125-1.9766 0.4375-1.0156 0.32812-1.1523 0.76953-0.92188 1.8672-1.1523 3.8594-1.0156 2.3359-1.1406 1.7969-0.53516 1.0039-0.41406 1.2344-1.0156-0.58984-0.96094-0.93359-1.8789-2.5547-0.89453-0.69922-1.0859-0.49609-3.707 0.03125-0.65625 1.0156 0.011719 1.2344 0.4375 1.3477-0.011719 1.7852 1.0703 2.3477 0.71484 1.8945 1.3047 1.6758 0.76953 0.82422 2.0039 0.41016 1.125-0.15234 1.6484-0.066406 1.5781 0.80859 1.4844 1.6367 1.8125 2.9492 0.42578 0.94922 1.4805 2.4648 0.53906 1.793v1.3906l0.13281 2.2891 0.046875 1.4336 0.35938 1.168 0.98438 1.3477 0.85547 1.0312 0.85156 1.1211 0.53906 1.3477 0.85156 1.3008 1.0312 1.2109 1.8203 1.6875 1.1914 0.88672 0.95312 1.0078 1.1211 1.3477 0.28906 1.125-0.4375 0.96484 0.058594 1.3164 0.58594 1.0195 0.61328 1.0508 0.64062 1.2578 0.26172 1.2852 0.14844 1.1992 0.34766 0.96094 1.1992 1.0234 0.99219 0.17578 2.6406 0.17578 1.2266 0.054687 0.97656 0.6875 1.5078 1.0234 2.8203 2.4297 1.9922 0.92578 1.3164 1.9453 0.77734 1.2617 1.3945 0.85547 0.5625 1.3242 1.2383 0.80469 0.89062 0.78125 1.4336 1 1.5234 1.1953 1.2148 1.4102 0.32422 1.1523 1.1094 2.7578 1.2383 2.1719 1.3672 1.5234-0.82422 0.84766-1.1523 1.043-1.1602 0.94141-3.8555 2.2812-1.793 1.2227-1.707 1.168-1.2461 1.7266-0.98438 1.5625-0.54297 0.94922-0.78125 1.6641-0.95312 2.6133-1.3555 2.207-0.88281 1.2539-1.7305 0.30469-1.0859-0.20312-2.0391 0.10156-1.0508 0.98438-1.4258 2.5469-1.4609 2.5469-0.64453 1.1523-0.98438 1.0859-2.5781 2.0391-1.3711 1.1992-4.3086-1.2617-1.9648-1.2422-1.9688-1.207-1.5195-0.48438-3.2148-1.4688-4.0078-3.0352-1.6055-1.6602-1.832-2.3477-3.207-4.6992-2.9805-3.3203-2.0039-1.1484-3.0938-0.17188-2.1211-0.57031-2.9922-0.71875-4.2266-0.42969-2.0625-0.57031-1.2578-0.80469-2.1758-1.6016-2.0078-0.97656-2.4062-1.6016-1.0859-0.63281-1.2617-0.6875-0.91797-0.57031-1.3164-0.91797-1.4336-0.34375-1.2578-0.34375-3.0352-1.4297-2.293-1.2617-2.75-0.74609-1.4883-0.51562-1.3203-0.80078-1.4297-0.51562-1.8906 0.058594-1.6602 0.17188h-1.6641l-0.6875-0.74609-2.7422-1.3359-2.293-0.82422-1.6484-0.59375-2.8867-1.332-0.82422-0.77734-0.59766-1.832 0.27344-2.1094 0.37109-2.2266 0.10547-1.0234 0.25-1.2891 0.40625-1.6836 0.4375-1.3164 0.50391-1.2773 0.10156-1.4844 0.14062-1.1055 0.078125-1.2148 0.53906-0.91406 0.80859-1.1328 1.2383-0.78125 0.67578-0.96875 0.89062-1.1055 1.3438-1.6992 0.59375-1.4258 0.33203-1.2812 0.23438-1.3086-1.2617-0.53906-1.2773-0.058594-1.7305-0.41797-2.1797-0.5625-1.1172-0.37109-1.3164-0.55469-1.3711-0.51953-0.6875-0.85156-0.79688-0.90625-1.1133-0.61719-1.4258-0.31641-1.4688-0.10938-1.6914-1.3047-1.3594-0.66016-2.0312-0.57812-1.5234-0.26172-0.97656-0.28516-1.2617-1.7852-0.42578-1.582 0.23438-1.7695 0.5625-2.1289-0.082031-2.3906-0.20703-1.5508 0.10938-1.4961-0.027344-1.0859 0.27344-3.4062 1.0977-1.5781 0.64844-2.2109 0.85156-2.1016 1.3164-2.6094 1.4453-1.7461-0.34375-1.0117 0.65625-0.90234 0.64453-0.78125 0.53125-0.91406 0.91406-0.67969 0.93359-0.65234 0.74219-1.0859 1.0938-0.097657 0.46875-0.88672-0.050782-1.0273 0.23438-1.0078 0.69531-0.91797 0.76172-0.76172 0.87109-0.55469 1.0742-0.4375 1.3477-0.53516 0.42578-0.98438 1.0391-1.1445 1.0195-0.37109-0.60156-0.87109-0.90234-0.79297-0.18359-1.3164-0.5-1.3867-0.47266-1.0625-0.85156-0.55078 0.29297-1.2188 0.54297-1.1953 0.51953-1.1523 0.41797-0.92578 0.48828-1.082 0.41797-0.98438 0.47656-1.0234 0.57031-1.1328 0.8125-1.4453 0.48438-0.91797 0.69141-0.875 1.1523-0.98828 1.0039-1.1211 0.875-0.67578 1.0898-0.44922 1.9531-0.90625 1.0469-0.63281 1.0273-1.7852 0.75391-0.91016 0.88281-1.2578 0.69922-0.76953 1.7305-2.0859 0.39844-0.97656 0.38281-1.3047 0.23438-1.2891 0.37109-0.94922 0.39844-1.8672 2.4414-3.6992 1.6406-2.7383 0.042968-1.7344 0.88672-2.0938 1.0625-0.74219 1.625-1.3125 1.1367-1.207 0.76562-1.4102 0.039062-1.6133-0.16016-1.4141 0.50391-1.0273 1.0898-1.4688 0.82422-1.0898 0.36328-0.94922 0.28516-1.4102 0.86719-0.53125 0.95312-0.375h1.0508l1.0508-0.027344 1.6523 0.16797 1.2422 0.62109 1.2695 0.57422 1.1719 0.59766 1.0508 0.43359 1.0039 0.023437 1.5078-0.33594 1.2695 0.097656 2.582-0.38281 1.625 0.070313 1.1016-0.23828 2.0078-0.074219 1.4375-0.66797 0.71094-1.418 0.78516-0.63672 1.7188-0.52344 1.6055-0.11328 1.2344-0.89453 1.4375-0.98828 1.0078 0.14062 1.5156 0.50391 1.375-0.09375 1.1953 0.23047 1.332 0.50391 1.332 0.09375 0.96484-1.0547 1.3281-1.0117 0.79297-0.77734 2.4219-0.14062 1.3789-0.6875 0.87109-1.0586-0.55078-1.8359-0.6875-1.8828-1.1055-2.293-0.41016-1.1484 1.6523-1.0117 1.6523 0.27734" fill="none" stroke="#fff" stroke-linecap="round" stroke-linejoin="round" stroke-miterlimit="10"/>
<path d="m397.07 181.51c0 3.5898-2.9102 6.5-6.5 6.5-3.5898 0-6.5-2.9102-6.5-6.5s2.9102-6.5 6.5-6.5c3.5898 0 6.5 2.9102 6.5 6.5" fill="#28c028" fill-rule="evenodd" stroke="#000" stroke-linecap="round" stroke-linejoin="round" stroke-miterlimit="10"/>
<path d="m207.76 170.15 3.2344-0.3125c0.19531 1.0859 0.59375 1.8828 1.1875 2.3906 0.59375 0.51172 1.3945 0.76562 2.4062 0.76562 1.0703 0 1.8789-0.22266 2.4219-0.67188 0.53906-0.45703 0.8125-0.98828 0.8125-1.5938 0-0.39453-0.11719-0.72656-0.34375-1-0.23047-0.26953-0.625-0.50391-1.1875-0.70312-0.39844-0.13281-1.2891-0.375-2.6719-0.71875-1.7812-0.44531-3.0312-0.99219-3.75-1.6406-1.0117-0.90625-1.5156-2.0078-1.5156-3.3125 0-0.83203 0.23828-1.6133 0.71875-2.3438 0.47656-0.72656 1.1602-1.2852 2.0469-1.6719 0.89453-0.38281 1.9766-0.57812 3.25-0.57812 2.0625 0 3.6133 0.45312 4.6562 1.3594 1.0508 0.90625 1.6016 2.1172 1.6562 3.625l-3.3281 0.15625c-0.14844-0.84375-0.45312-1.4531-0.92188-1.8281-0.46094-0.375-1.1562-0.5625-2.0938-0.5625-0.96875 0-1.7305 0.20312-2.2812 0.60938-0.34375 0.25-0.51562 0.58984-0.51562 1.0156 0 0.38672 0.16016 0.71875 0.48438 1 0.42578 0.35547 1.4453 0.72656 3.0625 1.1094 1.6133 0.375 2.8047 0.76562 3.5781 1.1719 0.78125 0.40625 1.3906 0.96484 1.8281 1.6719 0.4375 0.71094 0.65625 1.5859 0.65625 2.625 0 0.94922-0.26562 1.8359-0.79688 2.6562-0.52344 0.82422-1.2617 1.4375-2.2188 1.8438-0.96094 0.39453-2.1523 0.59375-3.5781 0.59375-2.0859 0-3.6836-0.47656-4.7969-1.4375-1.1172-0.96875-1.7812-2.375-2-4.2188zm31.031 5.3594h-3.6094l-1.4375-3.7344h-6.5781l-1.3594 3.7344h-3.5312l6.4062-16.469h3.5156zm-6.1094-6.5156-2.2812-6.1094-2.2188 6.1094zm7.9062 6.5156v-16.469h3.2344l6.75 11v-11h3.0781v16.469h-3.3281l-6.6406-10.734v10.734zm28.906-16.469h3.3125v10.422c0 1.3672-0.12109 2.418-0.35938 3.1562-0.32422 0.96094-0.90625 1.7305-1.75 2.3125-0.84375 0.57422-1.9609 0.85938-3.3438 0.85938-1.625 0-2.875-0.45312-3.75-1.3594-0.875-0.91406-1.3203-2.2539-1.3281-4.0156l3.1406-0.35938c0.03125 0.94922 0.16406 1.6172 0.40625 2 0.36328 0.59375 0.91016 0.89062 1.6406 0.89062 0.73828 0 1.2578-0.20703 1.5625-0.625 0.3125-0.42578 0.46875-1.3047 0.46875-2.6406zm6.8594 16.469v-16.469h12.203v2.7969h-8.875v3.6406h8.2656v2.7812h-8.2656v4.4688h9.2031v2.7812zm15.359 0v-16.469h7c1.7578 0 3.0352 0.15234 3.8281 0.45312 0.80078 0.29297 1.4414 0.82031 1.9219 1.5781 0.47656 0.75 0.71875 1.6172 0.71875 2.5938 0 1.2305-0.36719 2.25-1.0938 3.0625-0.73047 0.80469-1.8203 1.3086-3.2656 1.5156 0.71875 0.41797 1.3125 0.88281 1.7812 1.3906 0.46875 0.5 1.0977 1.3867 1.8906 2.6562l2.0156 3.2188h-3.9688l-2.4062-3.5781c-0.85547-1.2812-1.4375-2.0859-1.75-2.4219-0.3125-0.33203-0.64844-0.5625-1-0.6875-0.35547-0.125-0.91406-0.1875-1.6719-0.1875h-0.67188v6.875zm3.3281-9.5h2.4531c1.5938 0 2.5859-0.066406 2.9844-0.20312 0.39453-0.13281 0.70312-0.36328 0.92188-0.6875 0.22656-0.33203 0.34375-0.75 0.34375-1.25 0-0.55078-0.14844-0.99219-0.4375-1.3281-0.29297-0.34375-0.71094-0.5625-1.25-0.65625-0.27344-0.03125-1.0781-0.046875-2.4219-0.046875h-2.5938zm12.594 1.375c0-1.6758 0.25-3.0859 0.75-4.2344 0.375-0.83203 0.88281-1.582 1.5312-2.25 0.64453-0.66406 1.3516-1.1602 2.125-1.4844 1.0312-0.4375 2.2188-0.65625 3.5625-0.65625 2.4141 0 4.3516 0.75781 5.8125 2.2656 1.457 1.5 2.1875 3.5938 2.1875 6.2812 0 2.6562-0.72656 4.7344-2.1719 6.2344-1.4375 1.5-3.3711 2.25-5.7969 2.25-2.4492 0-4.3984-0.74219-5.8438-2.2344-1.4375-1.5-2.1562-3.5547-2.1562-6.1719zm3.4219-0.125c0 1.8672 0.42969 3.2812 1.2969 4.25 0.86328 0.96094 1.957 1.4375 3.2812 1.4375 1.3203 0 2.4062-0.47266 3.25-1.4219 0.85156-0.95703 1.2812-2.3906 1.2812-4.2969 0-1.8945-0.41797-3.3047-1.25-4.2344-0.82422-0.92578-1.918-1.3906-3.2812-1.3906-1.375 0-2.4844 0.47656-3.3281 1.4219-0.83594 0.9375-1.25 2.3516-1.25 4.2344zm15.172 8.25v-16.469h3.2344l6.75 11v-11h3.0781v16.469h-3.3281l-6.6406-10.734v10.734zm16.484 0v-16.469h3.3125v16.469zm6.4375 0v-16.469h4.9844l2.9844 11.234 2.9531-11.234h4.9844v16.469h-3.0938v-12.953l-3.2656 12.953h-3.2031l-3.25-12.953v12.953zm18.531-8.125c0-1.6758 0.25-3.0859 0.75-4.2344 0.375-0.83203 0.88281-1.582 1.5312-2.25 0.64453-0.66406 1.3516-1.1602 2.125-1.4844 1.0312-0.4375 2.2188-0.65625 3.5625-0.65625 2.4141 0 4.3516 0.75781 5.8125 2.2656 1.457 1.5 2.1875 3.5938 2.1875 6.2812 0 2.6562-0.72656 4.7344-2.1719 6.2344-1.4375 1.5-3.3711 2.25-5.7969 2.25-2.4492 0-4.3984-0.74219-5.8438-2.2344-1.4375-1.5-2.1562-3.5547-2.1562-6.1719zm3.4219-0.125c0 1.8672 0.42969 3.2812 1.2969 4.25 0.86328 0.96094 1.957 1.4375 3.2812 1.4375 1.3203 0 2.4062-0.47266 3.25-1.4219 0.85156-0.95703 1.2812-2.3906 1.2812-4.2969 0-1.8945-0.41797-3.3047-1.25-4.2344-0.82422-0.92578-1.918-1.3906-3.2812-1.3906-1.375 0-2.4844 0.47656-3.3281 1.4219-0.83594 0.9375-1.25 2.3516-1.25 4.2344zm0 0" fill="none" stroke="#fff" stroke-linecap="round" stroke-linejoin="round" stroke-miterlimit="10" stroke-width="2"/>
<path d="m207.76 170.15 3.2344-0.3125c0.19531 1.0859 0.59375 1.8828 1.1875 2.3906 0.59375 0.51172 1.3945 0.76562 2.4062 0.76562 1.0703 0 1.8789-0.22266 2.4219-0.67188 0.53906-0.45703 0.8125-0.98828 0.8125-1.5938 0-0.39453-0.11719-0.72656-0.34375-1-0.23047-0.26953-0.625-0.50391-1.1875-0.70312-0.39844-0.13281-1.2891-0.375-2.6719-0.71875-1.7812-0.44531-3.0312-0.99219-3.75-1.6406-1.0117-0.90625-1.5156-2.0078-1.5156-3.3125 0-0.83203 0.23828-1.6133 0.71875-2.3438 0.47656-0.72656 1.1602-1.2852 2.0469-1.6719 0.89453-0.38281 1.9766-0.57812 3.25-0.57812 2.0625 0 3.6133 0.45312 4.6562 1.3594 1.0508 0.90625 1.6016 2.1172 1.6562 3.625l-3.3281 0.15625c-0.14844-0.84375-0.45312-1.4531-0.92188-1.8281-0.46094-0.375-1.1562-0.5625-2.0938-0.5625-0.96875 0-1.7305 0.20312-2.2812 0.60938-0.34375 0.25-0.51562 0.58984-0.51562 1.0156 0 0.38672 0.16016 0.71875 0.48438 1 0.42578 0.35547 1.4453 0.72656 3.0625 1.1094 1.6133 0.375 2.8047 0.76562 3.5781 1.1719 0.78125 0.40625 1.3906 0.96484 1.8281 1.6719 0.4375 0.71094 0.65625 1.5859 0.65625 2.625 0 0.94922-0.26562 1.8359-0.79688 2.6562-0.52344 0.82422-1.2617 1.4375-2.2188 1.8438-0.96094 0.39453-2.1523 0.59375-3.5781 0.59375-2.0859 0-3.6836-0.47656-4.7969-1.4375-1.1172-0.96875-1.7812-2.375-2-4.2188zm31.031 5.3594h-3.6094l-1.4375-3.7344h-6.5781l-1.3594 3.7344h-3.5312l6.4062-16.469h3.5156zm-6.1094-6.5156-2.2812-6.1094-2.2188 6.1094zm7.9062 6.5156v-16.469h3.2344l6.75 11v-11h3.0781v16.469h-3.3281l-6.6406-10.734v10.734zm28.906-16.469h3.3125v10.422c0 1.3672-0.12109 2.418-0.35938 3.1562-0.32422 0.96094-0.90625 1.7305-1.75 2.3125-0.84375 0.57422-1.9609 0.85938-3.3438 0.85938-1.625 0-2.875-0.45312-3.75-1.3594-0.875-0.91406-1.3203-2.2539-1.3281-4.0156l3.1406-0.35938c0.03125 0.94922 0.16406 1.6172 0.40625 2 0.36328 0.59375 0.91016 0.89062 1.6406 0.89062 0.73828 0 1.2578-0.20703 1.5625-0.625 0.3125-0.42578 0.46875-1.3047 0.46875-2.6406zm6.8594 16.469v-16.469h12.203v2.7969h-8.875v3.6406h8.2656v2.7812h-8.2656v4.4688h9.2031v2.7812zm15.359 0v-16.469h7c1.7578 0 3.0352 0.15234 3.8281 0.45312 0.80078 0.29297 1.4414 0.82031 1.9219 1.5781 0.47656 0.75 0.71875 1.6172 0.71875 2.5938 0 1.2305-0.36719 2.25-1.0938 3.0625-0.73047 0.80469-1.8203 1.3086-3.2656 1.5156 0.71875 0.41797 1.3125 0.88281 1.7812 1.3906 0.46875 0.5 1.0977 1.3867 1.8906 2.6562l2.0156 3.2188h-3.9688l-2.4062-3.5781c-0.85547-1.2812-1.4375-2.0859-1.75-2.4219-0.3125-0.33203-0.64844-0.5625-1-0.6875-0.35547-0.125-0.91406-0.1875-1.6719-0.1875h-0.67188v6.875zm3.3281-9.5h2.4531c1.5938 0 2.5859-0.066406 2.9844-0.20312 0.39453-0.13281 0.70312-0.36328 0.92188-0.6875 0.22656-0.33203 0.34375-0.75 0.34375-1.25 0-0.55078-0.14844-0.99219-0.4375-1.3281-0.29297-0.34375-0.71094-0.5625-1.25-0.65625-0.27344-0.03125-1.0781-0.046875-2.4219-0.046875h-2.5938zm12.594 1.375c0-1.6758 0.25-3.0859 0.75-4.2344 0.375-0.83203 0.88281-1.582 1.5312-2.25 0.64453-0.66406 1.3516-1.1602 2.125-1.4844 1.0312-0.4375 2.2188-0.65625 3.5625-0.65625 2.4141 0 4.3516 0.75781 5.8125 2.2656 1.457 1.5 2.1875 3.5938 2.1875 6.2812 0 2.6562-0.72656 4.7344-2.1719 6.2344-1.4375 1.5-3.3711 2.25-5.7969 2.25-2.4492 0-4.3984-0.74219-5.8438-2.2344-1.4375-1.5-2.1562-3.5547-2.1562-6.1719zm3.4219-0.125c0 1.8672 0.42969 3.2812 1.2969 4.25 0.86328 0.96094 1.957 1.4375 3.2812 1.4375 1.3203 0 2.4062-0.47266 3.25-1.4219 0.85156-0.95703 1.2812-2.3906 1.2812-4.2969 0-1.8945-0.41797-3.3047-1.25-4.2344-0.82422-0.92578-1.918-1.3906-3.2812-1.3906-1.375 0-2.4844 0.47656-3.3281 1.4219-0.83594 0.9375-1.25 2.3516-1.25 4.2344zm15.172 8.25v-16.469h3.2344l6.75 11v-11h3.0781v16.469h-3.3281l-6.6406-10.734v10.734zm16.484 0v-16.469h3.3125v16.469zm6.4375 0v-16.469h4.9844l2.9844 11.234 2.9531-11.234h4.9844v16.469h-3.0938v-12.953l-3.2656 12.953h-3.2031l-3.25-12.953v12.953zm18.531-8.125c0-1.6758 0.25-3.0859 0.75-4.2344 0.375-0.83203 0.88281-1.582 1.5312-2.25 0.64453-0.66406 1.3516-1.1602 2.125-1.4844 1.0312-0.4375 2.2188-0.65625 3.5625-0.65625 2.4141 0 4.3516 0.75781 5.8125 2.2656 1.457 1.5 2.1875 3.5938 2.1875 6.2812 0 2.6562-0.72656 4.7344-2.1719 6.2344-1.4375 1.5-3.3711 2.25-5.7969 2.25-2.4492 0-4.3984-0.74219-5.8438-2.2344-1.4375-1.5-2.1562-3.5547-2.1562-6.1719zm3.4219-0.125c0 1.8672 0.42969 3.2812 1.2969 4.25 0.86328 0.96094 1.957 1.4375 3.2812 1.4375 1.3203 0 2.4062-0.47266 3.25-1.4219 0.85156-0.95703 1.2812-2.3906 1.2812-4.2969 0-1.8945-0.41797-3.3047-1.25-4.2344-0.82422-0.92578-1.918-1.3906-3.2812-1.3906-1.375 0-2.4844 0.47656-3.3281 1.4219-0.83594 0.9375-1.25 2.3516-1.25 4.2344z" fill-rule="evenodd"/>
</g>
</svg>
