<?xml version="1.0" encoding="UTF-8"?>
<svg width="430pt" height="500pt" version="1.1" viewBox="0 0 430 500" xmlns="http://www.w3.org/2000/svg">
<g id="a">
<rect width="430" height="500" fill="none"/>
<path d="m144.5 134.76 0.56641 0.35938 1.1055 0.82422 1.0586 0.4375 1.1836 0.51562 1.082 1.1836 0.92578 0.61719 1.7773 0.49219 1.1328 0.15234 1.1875 0.10547 2.1875-0.25781 1.4688 0.35938 1.0547 0.85156 1.2617 0.76953 1.3164 0.10547 1.0273-0.20703 1.7539-0.38672 3.1172-0.59375 3.707-1.3359 3.0664-1.0586 1.1055-0.48828 2.2148-0.69531 1.6992-0.050781 1.7266 0.61719 1.9062 0.46484 1.1836 0.51562 1.6992 0.82031 1.2891 0.41406 1.4961 0.25781 1.7773-0.35938 1.2852-0.87891 1.4688-0.125 1.1328 0.20312 1.3164 0.51562 1.707-0.085937 1.5586-0.40234 1.207 0.25 1.7617-0.19922 1.9609 0.5 1.6133 1.3594 1.3555 1.5078 1.5117 1.2578 1.3047 2.2148 0.65625 1.1055 0.80469 1.6602 0.75391 1.4609 1.1055 1.3555 0.80469 1.3594 0.80469 1.7617 0.45312 1.0039 0.52734 1.5273 0.35938 1.1914 0.15625 1.8203 0.35938 1.5938 0.47266 1.5078-0.58594 1.0781-1.3906 0.58203-0.94531 0.78906-1.0547 0.85156-0.60938 0.96875-0.25781 1.8398 0.042968 1.4961 0.042969 1.5352 0.12891 1.7969 0.042969 1.582 0.17188 1.793 0.55469 2.5234 0.72656 1.668 1.3789 2.7539 1.5 1.7188 0.99609 1.1406 1.5703 3.0352 0.30078 2.6328-0.050781 3.1367 0.76172 1.8242 0.75781 2.0234 1.8711 5.1094 2.7852 4.5547 2.7812 4.0977 0.71094 1.8242 1.9219 2.3789 1.418 1.3438 0.60938 1.3984-0.27734 1.1406-1.2344 1.9453-0.40234 0.95703-0.86328 1.3242-0.0625 1.0195-0.30859 1.8828 0.14844 2.1562-1.0039 0.61719-0.65625 1.6602-0.46094 1.5391-0.42578 1.3516-0.19141 1.043-0.50391 2.9688-1.0781 1.5039-1.4648 0.42578h-1.9297l-1.4648 0.38672-0.38672 1.3477 1.543 1.1562 1.1172 1.0039 1.3516 1.543 0.5 1.1953 0.57812 2.082-0.19141 1.3516-1.1172 0.88672-1.8906 0.23047-1.1562 0.30859-1.2148 0.53516-0.8125 0.58984-0.77734 1.0391-1.293 2.7734-1.2969 1.8867-0.73828 1.2969-1.1133 2.1445 0.11328 1.2852 0.18359 1.5273 0.48047 2.5156 0.72266 1.9336 0.14844 1.2969 0.82812 2.2305 0.91406 1.5898 0.24609 1.0586-0.71875 0.96484-0.71875 0.89844 0.15625 1.168 1.5742 2.6523 0.96875 1.5039 1.7266 2.2266 0.51953 0.875 0.3125 1.0117 0.49609 1.1016 0.58984 0.87891-1.0469 0.64844-1.8047 0.88672-1.0273 0.70703-2.6523 1.9453-1.4883 1.3477-0.88672 1.2383-0.74219 0.70703-0.8125 0.70703-1.0977 0.46094-0.92188 0.88281-0.98828 1.168-1.168 1.418-2.1602 0.63672-1.0742 0.17969-1.25 0.71484-1.1914 1.1914-1.832 1.9961-1.3555 1.7734-0.9375 0.94141-1.1484 0.51953-2.4883 1.8555-1.1367-1.4922-0.73047-1.418-0.90234-1.1172-1.1602-0.51562-0.90234-0.6875-1.2891-0.55859-1.8242-1.5195-0.77734-0.95312-0.96875-1.3477-1.543-0.48047-1.5039 0.53906-1.5781 2.082-1.6914 1.6367-1.1172 0.60156-1.9336 0.47266-1.0781-0.25781-0.38672-0.94531-0.90234-1.418-0.73047-1.2031 0.34375-1.4219 0.085938-1.332-0.98438-2.1484-1-0.77734-0.83594-0.89062-1.168-1.3945-0.78125-1.168-1.0547-0.77734-1.2266-0.33594-1.1094-0.95703-1.4688-1.4688-0.84766-1.1445-1.0039-1.8047-0.40234-1.207-0.40234-1.6055-0.30078-2.2109-0.39062-3.6719-0.17188-1.1836-0.25-1.0117-1.2148-1.5391-1.2383-1.4453-2.6641-2.0938-0.80078-0.62891-1.0078-1.5117-3.2891-1.6172-0.75-0.71484-0.93359-0.56641-1.2695-0.22656-1.4648 0.074218-2.4219-0.71484-1.5312-1.043-0.17969-1.0703-0.22656-0.98047-0.30078-1.0898-0.1875-1.1719 0.56641-1.2422 1.3555-1.0938 0.64062-1.1328v-1.168l-0.67969-1.4336-0.78906-1.6953-0.41406-1.6211 0.52734-1.3945 1.1289-1.0938 1.207-0.90625 0.71875-1.3555-0.19141-1.207-1.5078-1.2422-1.2812-0.64062-1.8867-1.6211-0.90234-0.56641-0.94141-0.56641-0.79297-1.207-0.039063-1.582 0.15234-1.3203-0.30078-2.4141-0.30469-1.0547-0.30078-1.8086-0.22656-1.6211-1.2422-1.6992-1.5078-1.6953-1.0195-0.48828-1.5078-0.94531-1.0977-0.79688-1.1641-1.5391-0.64062-2.8008-0.23047-1.3828-0.53125-1.2461-1.4766-1.1953-2.2188-1.3633-2.7227-1.3945-1.0586-0.96484-0.69141-1.1523-1.2656-2.9961-1.0938-2.7031-1.2695-2.2461-0.46094-1.3281-0.46094-1.3789 0.23047-1.6719 0.28906-1.957-0.097657-1.4141-2.1758-2.9844-2.0703-2.8828 1.2109-0.64062 5.6914-2.9531 1.2656-0.86719 1.4531-0.53906 1.0078 0.09375 1.0078-0.070312 1.1445-0.1875 0.72656-1.1719 0.75-1.6133 1.0078-0.98438 0.65625-1.2422 0.1875-1.0078-0.53906-2.6016-0.046875-1.7812 0.14062-1.125v-2.2461l0.11719-1.0312-0.070313-1.9688-0.1875-2.3438 0.023438-1.3594-0.070313-1.1719-0.58594-0.84375-0.49219-0.91406-0.49219-1.5664 0.25781-1.7812-0.1875-1.8047 0.46875-2.0391 0.375-1.0547-0.070312-1.4531-0.42188-1.4062-0.28125-2.5273-0.17969-1.7812 0.25781-1.1523 0.96094-0.67188 1.1523-0.83203 1.2188-0.92969 0.54297-1.1211 0.066406-1.0586 0.44922-1.3438 0.76562-0.89844 0.80078-0.70312 1.5391-0.83203 1.8984 0.20703 1.1055 0.3125 0.94141 0.95703 1.3164 0.28125 1.1211-0.54688 1.4023-0.78906 1.0703-0.70703 1.8516-0.71875 1.5469-0.25781z" fill="#ccc" fill-rule="evenodd"/>
<path d="m144.5 134.76 0.56641 0.35938 1.1055 0.82422 1.0586 0.4375 1.1836 0.51562 1.082 1.1836 0.92578 0.61719 1.7773 0.49219 1.1328 0.15234 1.1875 0.10547 2.1875-0.25781 1.4688 0.35938 1.0547 0.85156 1.2617 0.76953 1.3164 0.10547 1.0273-0.20703 1.7539-0.38672 3.1172-0.59375 3.707-1.3359 3.0664-1.0586 1.1055-0.48828 2.2148-0.69531 1.6992-0.050781 1.7266 0.61719 1.9062 0.46484 1.1836 0.51562 1.6992 0.82031 1.2891 0.41406 1.4961 0.25781 1.7773-0.35938 1.2852-0.87891 1.4688-0.125 1.1328 0.20312 1.3164 0.51562 1.707-0.085937 1.5586-0.40234 1.207 0.25 1.7617-0.19922 1.9609 0.5 1.6133 1.3594 1.3555 1.5078 1.5117 1.2578 1.3047 2.2148 0.65625 1.1055 0.80469 1.6602 0.75391 1.4609 1.1055 1.3555 0.80469 1.3594 0.80469 1.7617 0.45312 1.0039 0.52734 1.5273 0.35938 1.1914 0.15625 1.8203 0.35938 1.5938 0.47266 1.5078-0.58594 1.0781-1.3906 0.58203-0.94531 0.78906-1.0547 0.85156-0.60938 0.96875-0.25781 1.8398 0.042968 1.4961 0.042969 1.5352 0.12891 1.7969 0.042969 1.582 0.17188 1.793 0.55469 2.5234 0.72656 1.668 1.3789 2.7539 1.5 1.7188 0.99609 1.1406 1.5703 3.0352 0.30078 2.6328-0.050781 3.1367 0.76172 1.8242 0.75781 2.0234 1.8711 5.1094 2.7852 4.5547 2.7812 4.0977 0.71094 1.8242 1.9219 2.3789 1.418 1.3438 0.60938 1.3984-0.27734 1.1406-1.2344 1.9453-0.40234 0.95703-0.86328 1.3242-0.0625 1.0195-0.30859 1.8828 0.14844 2.1562-1.0039 0.61719-0.65625 1.6602-0.46094 1.5391-0.42578 1.3516-0.19141 1.043-0.50391 2.9688-1.0781 1.5039-1.4648 0.42578h-1.9297l-1.4648 0.38672-0.38672 1.3477 1.543 1.1562 1.1172 1.0039 1.3516 1.543 0.5 1.1953 0.57812 2.082-0.19141 1.3516-1.1172 0.88672-1.8906 0.23047-1.1562 0.30859-1.2148 0.53516-0.8125 0.58984-0.77734 1.0391-1.293 2.7734-1.2969 1.8867-0.73828 1.2969-1.1133 2.1445 0.11328 1.2852 0.18359 1.5273 0.48047 2.5156 0.72266 1.9336 0.14844 1.2969 0.82812 2.2305 0.91406 1.5898 0.24609 1.0586-0.71875 0.96484-0.71875 0.89844 0.15625 1.168 1.5742 2.6523 0.96875 1.5039 1.7266 2.2266 0.51953 0.875 0.3125 1.0117 0.49609 1.1016 0.58984 0.87891-1.0469 0.64844-1.8047 0.88672-1.0273 0.70703-2.6523 1.9453-1.4883 1.3477-0.88672 1.2383-0.74219 0.70703-0.8125 0.70703-1.0977 0.46094-0.92188 0.88281-0.98828 1.168-1.168 1.418-2.1602 0.63672-1.0742 0.17969-1.25 0.71484-1.1914 1.1914-1.832 1.9961-1.3555 1.7734-0.9375 0.94141-1.1484 0.51953-2.4883 1.8555-1.1367-1.4922-0.73047-1.418-0.90234-1.1172-1.1602-0.51562-0.90234-0.6875-1.2891-0.55859-1.8242-1.5195-0.77734-0.95312-0.96875-1.3477-1.543-0.48047-1.5039 0.53906-1.5781 2.082-1.6914 1.6367-1.1172 0.60156-1.9336 0.47266-1.0781-0.25781-0.38672-0.94531-0.90234-1.418-0.73047-1.2031 0.34375-1.4219 0.085938-1.332-0.98438-2.1484-1-0.77734-0.83594-0.89062-1.168-1.3945-0.78125-1.168-1.0547-0.77734-1.2266-0.33594-1.1094-0.95703-1.4688-1.4688-0.84766-1.1445-1.0039-1.8047-0.40234-1.207-0.40234-1.6055-0.30078-2.2109-0.39062-3.6719-0.17188-1.1836-0.25-1.0117-1.2148-1.5391-1.2383-1.4453-2.6641-2.0938-0.80078-0.62891-1.0078-1.5117-3.2891-1.6172-0.75-0.71484-0.93359-0.56641-1.2695-0.22656-1.4648 0.074218-2.4219-0.71484-1.5312-1.043-0.17969-1.0703-0.22656-0.98047-0.30078-1.0898-0.1875-1.1719 0.56641-1.2422 1.3555-1.0938 0.64062-1.1328v-1.168l-0.67969-1.4336-0.78906-1.6953-0.41406-1.6211 0.52734-1.3945 1.1289-1.0938 1.207-0.90625 0.71875-1.3555-0.19141-1.207-1.5078-1.2422-1.2812-0.64062-1.8867-1.6211-0.90234-0.56641-0.94141-0.56641-0.79297-1.207-0.039063-1.582 0.15234-1.3203-0.30078-2.4141-0.30469-1.0547-0.30078-1.8086-0.22656-1.6211-1.2422-1.6992-1.5078-1.6953-1.0195-0.48828-1.5078-0.94531-1.0977-0.79688-1.1641-1.5391-0.64062-2.8008-0.23047-1.3828-0.53125-1.2461-1.4766-1.1953-2.2188-1.3633-2.7227-1.3945-1.0586-0.96484-0.69141-1.1523-1.2656-2.9961-1.0938-2.7031-1.2695-2.2461-0.46094-1.3281-0.46094-1.3789 0.23047-1.6719 0.28906-1.957-0.097657-1.4141-2.1758-2.9844-2.0703-2.8828 1.2109-0.64062 5.6914-2.9531 1.2656-0.86719 1.4531-0.53906 1.0078 0.09375 1.0078-0.070312 1.1445-0.1875 0.72656-1.1719 0.75-1.6133 1.0078-0.98438 0.65625-1.2422 0.1875-1.0078-0.53906-2.6016-0.046875-1.7812 0.14062-1.125v-2.2461l0.11719-1.0312-0.070313-1.9688-0.1875-2.3438 0.023438-1.3594-0.070313-1.1719-0.58594-0.84375-0.49219-0.91406-0.49219-1.5664 0.25781-1.7812-0.1875-1.8047 0.46875-2.0391 0.375-1.0547-0.070312-1.4531-0.42188-1.4062-0.28125-2.5273-0.17969-1.7812 0.25781-1.1523 0.96094-0.67188 1.1523-0.83203 1.2188-0.92969 0.54297-1.1211 0.066406-1.0586 0.44922-1.3438 0.76562-0.89844 0.80078-0.70312 1.5391-0.83203 1.8984 0.20703 1.1055 0.3125 0.94141 0.95703 1.3164 0.28125 1.1211-0.54688 1.4023-0.78906 1.0703-0.70703 1.8516-0.71875 1.5469-0.25781 0.38672 0.12891" fill="none" stroke="#fff" stroke-linecap="round" stroke-linejoin="round" stroke-miterlimit="10" stroke-width="2"/>
<path d="m371.25 315.98 0.87109 0.74609 0.73438 1.5312-0.25391 2.0117v1.4062l0.35156 1.5977 0.12891 1.1484-0.097656 1.5625 0.19141 1.1523-0.35156 1.8516-0.19141 1.3086 0.60547 1.3398 0.48047 0.89453v1.0547l0.097656 1.5 1.1797 1.3086 1.0547 0.76562 0.79688 1.375-0.12891 1.1797-1.1484 0.92578-1.1797 1.0547-0.42188 0.91016 0.35547 1.707 0.67188 0.95703 1 1.7148 0.80859 0.9375 1.7461 0.49609 1.375 0.375 1.8672 0.9375 0.72266 1.5234-0.17969 1.1523 0.45703 1.5547 0.21875 1.5508-0.29297 2.0312-0.29688 1.1055-0.14844 1.1445 0.039063 1.5508 1.4766 2.625 0.40625 1.0703 0.66406 1.4414 0.96484 1.5156 1.0156 1.6172 0.96875 1.1992 1.8008 0.83203 0.96875 0.69141 0.60156 0.87891 0.875 0.875 1.25 0.55469 2.1211 1.0156 1.707 0.55469 2.4023 0.64453 1.4297 0.55469 1.0156 0.27734 1.2031 0.046875 2.3047 0.83203 1.8945 0.875 1.5234 1.0156 1.1992 1.1562 1.3906 1.7188 1.4336 1.3477 0.85938 0.61719 1.1992 0.55078-0.51562 1.1914-0.76172 1.1445-0.78906 1.4648-0.98438 1.5117-1.2969 0.76562-1.4609 1.0078-1.418 1.418-0.83984 1.0547-1.4141 1.125-1.8477 0.83984-2.6367 0.16797-1.3672 0.12109-1.1992 0.074219-1.1758 0.76562-0.13672 2.1133-0.28906 3.3516-1.1758 2.0547-0.53125 1.5508 1.2656 1.3867 0.33984 1.1875 0.44922 1.9219-0.28125 1.5273-2.0352 0.79297-1.6406 0.5625-1.5234 0.67969-0.84766 0.56641-3.2227 1.1289-1.4141 0.62109-2.2617 1.6953-1.5273 0.90625-2.1562 1.5-1.6875 1.3828-1.1875 1.3008-0.73438 1.4688-0.78906 0.90625-1.2812 2.0234-2.3398 2.2617-1.793 1.2461-2.6523 0.78125-2.8867 0.46875-1.25 0.39062-2.418-0.46875-1.4805-0.39062-1.7969 1.3281-1.3242 1.0898-1.1719 0.78125-1.5586 1.25-1.25-0.23438-1.2461-0.70312-1.25-0.9375-1.0898-0.85547-1.6406-0.3125-1.0117 0.62109-1.25 0.078125-1.6445-0.17578-1.3242 0.66016-1.2266-0.042969-1.1172 0.023437-1.5977-0.69531-1.2578-0.30469-1.3555 0.15234-1.9727-0.65625-1.4375-0.46484-1.3789-0.32422-2.082-0.035157-2.5312-0.32812-1.625-0.59766-2.3633-0.69141-1.2344-0.67969-1.2344-0.61719-1.6094-0.92578-1.0469-0.55859-1.3008-0.30859-1.1094-0.24609-1.9766-0.55469 2.7773-0.74219 1.4219-0.30859 1.9141 0.18359 2.2266-0.42969 1.8516-0.25 1.543-0.24609 2.5078-1.3086 1.1523-1 1.1094-0.91016 1.2266-0.67188 1.6992-0.23828 0.75-0.71094 0.39844-1.8594-0.039063-1.7773-0.082031-1.1875 0.082031-1.4258v-1.2266l-0.67578-1.9375-0.67188-1.1055-1.0664-1.4258-0.58984-1.3516-0.082031-1.1797 0.078125-1.5391-0.039063-1.0703-0.31641-1.1055 0.27734-1.7422 1.1055-1.4609 0.71484-0.75391 0.67188-0.86719 0.43359-0.91016 0.23828-2.1758-0.039062-1.5039-0.12109-1.8164-0.78906-1.5039-1.3047-1.7812-0.59375-0.87109-0.87109-0.51172-1.8984-1.1875-1.7773-1.3828-1.2266-1.5039-2.0195-1.6992-1.2656-0.87109-1.1836-0.67188-2.5703-0.23828-1.9375-0.19531-1.3477-0.67578-0.59375-0.86719-0.82812-1.1875-1.0273-2.0156-0.39844-1.0703-0.77344-1.6719-0.13672-1.0859 0.20312-1.6914 0.47656-1.082 0.67578-1.8984 1.0156-1.2188 0.57812-1.3242-0.27734-1.5273 0.32422-1.1289 1.1562-1.8203 0.75391-1.0625 0.62109-1.332-0.95312-0.71875-1.293 0.62109-1.1875-0.42969-0.88672-0.85156-0.10547-2.1289-0.42578-0.98828-0.96875-0.375-2.3008 0.015625-1.4414 0.13672-1.1289-0.18359-1.5508-1.3125-1.0039-1.5-1.0352-2.5039-0.18359-1.8359-0.19531-2.1992-0.99219-0.57812-0.34766-1.5938 48.086-4.2656 1.0625-1.7734 0.95703-1.2422 1.168-0.80859 1.707-0.097656 1.3242-0.14062 0.97656-0.68359 1.1055-0.59766 1.3047-0.72656 1.0508-0.94531 1.3594-0.45703 1.0508-1.1719 1.043-0.45703 1.3047-0.15234 0.74609-0.92188 0.84766-1.6406 0.79297-1.5391 0.32422-1.207 0.66406-1.0859 0.60938-1.0625 0.63672-1.293 0.83594-1.2773 0.70703-1.3047z" fill="#ccc" fill-rule="evenodd"/>
<path d="m371.25 315.98 0.87109 0.74609 0.73438 1.5312-0.25391 2.0117v1.4062l0.35156 1.5977 0.12891 1.1484-0.097656 1.5625 0.19141 1.1523-0.35156 1.8516-0.19141 1.3086 0.60547 1.3398 0.48047 0.89453v1.0547l0.097656 1.5 1.1797 1.3086 1.0547 0.76562 0.79688 1.375-0.12891 1.1797-1.1484 0.92578-1.1797 1.0547-0.42188 0.91016 0.35547 1.707 0.67188 0.95703 1 1.7148 0.80859 0.9375 1.7461 0.49609 1.375 0.375 1.8672 0.9375 0.72266 1.5234-0.17969 1.1523 0.45703 1.5547 0.21875 1.5508-0.29297 2.0312-0.29688 1.1055-0.14844 1.1445 0.039063 1.5508 1.4766 2.625 0.40625 1.0703 0.66406 1.4414 0.96484 1.5156 1.0156 1.6172 0.96875 1.1992 1.8008 0.83203 0.96875 0.69141 0.60156 0.87891 0.875 0.875 1.25 0.55469 2.1211 1.0156 1.707 0.55469 2.4023 0.64453 1.4297 0.55469 1.0156 0.27734 1.2031 0.046875 2.3047 0.83203 1.8945 0.875 1.5234 1.0156 1.1992 1.1562 1.3906 1.7188 1.4336 1.3477 0.85938 0.61719 1.1992 0.55078-0.51562 1.1914-0.76172 1.1445-0.78906 1.4648-0.98438 1.5117-1.2969 0.76562-1.4609 1.0078-1.418 1.418-0.83984 1.0547-1.4141 1.125-1.8477 0.83984-2.6367 0.16797-1.3672 0.12109-1.1992 0.074219-1.1758 0.76562-0.13672 2.1133-0.28906 3.3516-1.1758 2.0547-0.53125 1.5508 1.2656 1.3867 0.33984 1.1875 0.44922 1.9219-0.28125 1.5273-2.0352 0.79297-1.6406 0.5625-1.5234 0.67969-0.84766 0.56641-3.2227 1.1289-1.4141 0.62109-2.2617 1.6953-1.5273 0.90625-2.1562 1.5-1.6875 1.3828-1.1875 1.3008-0.73438 1.4688-0.78906 0.90625-1.2812 2.0234-2.3398 2.2617-1.793 1.2461-2.6523 0.78125-2.8867 0.46875-1.25 0.39062-2.418-0.46875-1.4805-0.39062-1.7969 1.3281-1.3242 1.0898-1.1719 0.78125-1.5586 1.25-1.25-0.23438-1.2461-0.70312-1.25-0.9375-1.0898-0.85547-1.6406-0.3125-1.0117 0.62109-1.25 0.078125-1.6445-0.17578-1.3242 0.66016-1.2266-0.042969-1.1172 0.023437-1.5977-0.69531-1.2578-0.30469-1.3555 0.15234-1.9727-0.65625-1.4375-0.46484-1.3789-0.32422-2.082-0.035157-2.5312-0.32812-1.625-0.59766-2.3633-0.69141-1.2344-0.67969-1.2344-0.61719-1.6094-0.92578-1.0469-0.55859-1.3008-0.30859-1.1094-0.24609-1.9766-0.55469 2.7773-0.74219 1.4219-0.30859 1.9141 0.18359 2.2266-0.42969 1.8516-0.25 1.543-0.24609 2.5078-1.3086 1.1523-1 1.1094-0.91016 1.2266-0.67188 1.6992-0.23828 0.75-0.71094 0.39844-1.8594-0.039063-1.7773-0.082031-1.1875 0.082031-1.4258v-1.2266l-0.67578-1.9375-0.67188-1.1055-1.0664-1.4258-0.58984-1.3516-0.082031-1.1797 0.078125-1.5391-0.039063-1.0703-0.31641-1.1055 0.27734-1.7422 1.1055-1.4609 0.71484-0.75391 0.67188-0.86719 0.43359-0.91016 0.23828-2.1758-0.039062-1.5039-0.12109-1.8164-0.78906-1.5039-1.3047-1.7812-0.59375-0.87109-0.87109-0.51172-1.8984-1.1875-1.7773-1.3828-1.2266-1.5039-2.0195-1.6992-1.2656-0.87109-1.1836-0.67188-2.5703-0.23828-1.9375-0.19531-1.3477-0.67578-0.59375-0.86719-0.82812-1.1875-1.0273-2.0156-0.39844-1.0703-0.77344-1.6719-0.13672-1.0859 0.20312-1.6914 0.47656-1.082 0.67578-1.8984 1.0156-1.2188 0.57812-1.3242-0.27734-1.5273 0.32422-1.1289 1.1562-1.8203 0.75391-1.0625 0.62109-1.332-0.95312-0.71875-1.293 0.62109-1.1875-0.42969-0.88672-0.85156-0.10547-2.1289-0.42578-0.98828-0.96875-0.375-2.3008 0.015625-1.4414 0.13672-1.1289-0.18359-1.5508-1.3125-1.0039-1.5-1.0352-2.5039-0.18359-1.8359-0.19531-2.1992-0.99219-0.57812-0.34766-1.5938 48.086-4.2656 1.0625-1.7734 0.95703-1.2422 1.168-0.80859 1.707-0.097656 1.3242-0.14062 0.97656-0.68359 1.1055-0.59766 1.3047-0.72656 1.0508-0.94531 1.3594-0.45703 1.0508-1.1719 1.043-0.45703 1.3047-0.15234 0.74609-0.92188 0.84766-1.6406 0.79297-1.5391 0.32422-1.207 0.66406-1.0859 0.60938-1.0625 0.63672-1.293 0.83594-1.2773 0.70703-1.3047 1.3672 0.23438" fill="none" stroke="#fff" stroke-linecap="round" stroke-linejoin="round" stroke-miterlimit="10" stroke-width="2"/>
<path d="m85.543 165.8 1.2305 0.52344 1.4414 0.85547 1.5742 1.4297 0.81641 1.1094 0.99609 1.1133 0.70312 1.0234 1.0234 1.0859 1.4922 0.46875 1.3477 0.55469 1.4922-0.058594 1.2891 0.23438 0.64062 1.5781 0.5 0.91016 1.1719 0.875 0.52344 1.4062 0.87109 1.832 1.0781 1.7773 2.1562 2.2148 2.2148 1.9414 1.5078 1.7266 0.62891 1.0195 2.0703 2.8828 1.8086 2.3594 0.44141 1.3281-0.26562 2.668-0.23047 1.6719 0.46094 1.3789 0.46094 1.3281 1.2695 2.2461 1.0938 2.7031 1.2656 2.9961 0.69141 1.1523 1.0586 0.96484 2.7227 1.3945 2.2188 1.3633 1.0938 0.81641 0.91406 1.625 0.23047 1.3828 0.26172 1.8945 1.1719 2.1133 1.4688 1.1289 1.5078 0.94531 1.0195 0.48828 1.5078 1.6953 1.2422 1.6992 0.22656 1.6211 0.30078 1.8086 0.30469 1.0547 0.26172 1.4727-0.11328 2.2617 0.039063 1.582 0.79297 1.207 0.94141 0.56641 0.90234 0.56641 1.3203 1.1289 1.8477 1.1328 1.5078 1.2422 0.19141 1.207-0.71875 1.3555-1.207 0.90625-1.1289 1.0938-0.52734 1.3945 0.41406 1.6211 0.45312 1.0195 0.67578 1.4336 0.45312 1.3945-0.75391 1.582-1.3555 1.0938-0.56641 1.2422 0.1875 1.1719 0.30078 1.0898 0.22656 0.98047 0.17969 1.0703 1.5312 1.043 1.4766 0.51172 2.4102 0.12891 1.2695 0.22656 0.93359 0.56641 0.75 0.71484 2.9648 1.2812 0.88672 1.3477 1.2461 1.1289 2.6641 2.0938 1.2383 1.4453 0.72656 0.70312 0.73828 1.8477 0.17188 1.1836 0.39062 3.6719 0.30078 2.2109 0.40234 1.6055 0.40234 1.207 1.0039 1.8047 0.84375 1.1406 1.4727 1.4727 1.1094 0.95703 1.2266 0.33594 1.0547 0.77734 0.78125 1.168 1.168 1.3945 0.83594 0.89062 1 0.77734 0.68359 1.2656 0.30078 1.6133-0.38672 1.5938 0.6875 1.6328 0.60156 0.85938 0.6875 1.5039 1.0781 0.25781 1.0312-0.17188 1.6328-0.60156 2.0781-1.9375 1.5781-2.082 1.5039-0.53906 1.543 0.48047 0.96875 1.3477 0.77734 0.95312 1.8242 1.5195 1.2891 0.55859 0.90234 0.6875 1.1602 0.51562 0.90234 1.1172 0.73047 1.418 1.1367 1.4922 0.91406 1.332 0.61719 1.4023 0.28906 1.4922 0.11719 1.2539v1.4648l-0.26172 1.2852-0.55469 0.96484-1.1406 1.1367-1.2852 0.84766-0.9375 1.1992-1.1094 1.2852-1.375 1.668-1.3438 1.7812-0.64062 1.4609-0.9375 2.457-1.1406 2.6875-1.1094 2.543-1.3438 3.5664-0.4375 2.8047-0.14844 1.1094 0.14844 1.1133-0.73047 2.4844-0.32422 1.4609-0.32031 1.8711-0.64062 0.90234-0.67578 1.082-0.58203 0.96484-0.82031 0.87891-0.55469 1.4297-0.20312 1.1406 0.13672 2.8438-0.11328 1.457-0.72656 1.5703-1.2891 0.28125-1.5156-0.39453-1.2656-0.54688-1.1523-0.55078-2.4961-0.78125-1.6602-0.046875-1.6836-0.53125-2.2695-1.3789-1.9766-1.6797-1.8125-1.0547-2.4961-1.9102-1.8867-0.60938-1.1758-0.72656-1.2148-0.75-2.082-0.47656-1.4141 0.066406-2.0273-0.34766-3.7891 0.10938-1.9648 0.42188-1.2617 0.15234-1.625 1.0508-0.85938 0.88281-0.58594 1.0391-0.73828 1.043-4.6445 2.0742-1.4453 0.12891-2.1836-0.30469-2.5938-0.39062-2.2031 0.31641-1.1953 0.67188-1.1758 0.49609-1.3203 0.125-0.66016-1.1289 0.5-4.2227 0.62891-1.6953 0.48828-1.3359 0.21484-1.0195-0.36719-2.5195-0.21875-1.4531 0.41406-2.1602-0.10938-1.1602-1.1836-2.3555-0.26953-1-0.10938-1.9531 0.15234-2.3242-0.03125-1.1602-0.44531-1.3594-0.87109-1.043-0.76953-3.2422 0.47656-1.3242 0.68359-0.96875-0.14062-1.0078-0.50781-1.3477-0.51172-2.1289-0.18359-1.3125-0.56641-0.96484-0.62891-1.207-0.62891-0.96484-0.42578-1.043 0.054688-1.1367 0.58594-1.6641 0.33984-1.1055 0.39844-1.3789-0.36719-2.5625-0.59766-1.3008-0.42188-1.4766-0.32812-1.3594-0.16016-1.2578-0.51172-1.0195-0.82422-1.0234-1.4102-0.78125-1.2617-1.3242-0.97656-0.86719-1.0078-0.51172-1.3477-0.95703-0.96484-0.71484-0.72656-0.82422-0.96875-0.80078-0.85547-0.53516-0.75-1.1367-1.0859-0.44531-0.8125-0.62891-0.87109-0.98047-0.47656-1.9297-0.68359-1.4336-0.90234-1.1602-1.2148-0.83594-2.1914-1.043-0.73047-0.71875-0.96094-0.67188-1.4922-0.91016-1.1797-0.46875-1.6523-1.9961-1.4453-1.043-0.80859-0.73047-0.81641-0.75781-1.1562-0.67188-1.3125-0.070313-1.1445 0.4375-1.9648-0.13672-0.94922-0.58984-1.3242-1.3125-0.94141-0.62891-1.2695-0.73828-0.87109-1.2383-0.36719-1.4102-0.57812-1.0117-0.99609-0.64844-0.93359-1.7148-1.3125-0.92578-1.543-0.61719-1.4219-0.23828-1.2695-0.52344-2.0195-0.43359-1.3789-0.70312-2.2812-2.8555-0.40234-1.4219 0.12109-1.0664 0.51172-0.91016 0.46484-1.7891 0.042969-1.0664-0.54297-1.2969-0.38281-1.2109 0.046875-1.2578-0.015625-1.0977-0.35156-1.7383-0.31641-1.1445 0.19141-1.3867 0.11328-1.1484-0.29297-1.1914-0.90625-1.4492-0.1875-1.4336-0.26172-1.3086-0.035156-1.3008 0.078125-1.2188 1.2422-0.80859 0.67969-0.76953 0.60547-1.4648-0.13672-1.3789-0.47266-1.6875-0.23828-1.4336-0.70703-1.1445-1.082-0.97656-1.9453-0.69141-1.25-0.53125-0.94531-1.082-0.61328-1-0.13672-1.3906-1.0586-1.1133-1.1094-0.52734-1.1797-0.28125-1.4688-0.37891-1.0156-0.40234-1.2109-0.13281-1.8633-0.26172-1.418-0.51562-0.9375-0.76172-2.1055-1.6406-1.8242-0.5-1.0664 0.15234-1.1172 0.46875-0.91016 0.46484-1.0977 0.48828-1.2188-0.089844-1.2969-0.39844-0.96875-0.67188-1.6406-0.44531-1.1602-0.72656-0.62891-0.80078-0.48828-1.1641-0.20312-1.8398-0.52344-1.5156-0.62109-1.1602 0.25-1.7266 1-2.5391 0.48828-1.5234 0.48828-1.6484 1.3984-2.7148 0.5-3.2109-0.18359-1.707-0.58594-0.94141-0.44531-1.1836 0.26172-2.0977 1.2344-1.2461 1.5977-0.18359 2.082 1.8008 1.1562 0.51562 2.2344-0.51562 0.42188-0.96484-0.10938-1.0312 0.90625-1.4727 0.24609-1.1562-1.5273-1.7539 1.168 0.039063 1.543-0.37109 1.1172-1.0742 0.69531-0.93359 0.69531-0.8125 0.94141-0.51953 1.8672-0.011718 2.5508-0.54297 3.1836 0.79297 1.4844-0.078125 1.9883-0.14062 1.0625 1.1094 0.58594 1.0195 2.0742 1.8867 0.86719 0.52344 2.1094-0.54297 1.332 0.074219 1.1523 0.48828 1.043 0.023438 1.1172-0.76953 2.4297-1.0781 1.75-0.61719 1.1406-0.33594 1.3438-1.0117 0.79297-1.0312 1.5508-1.0508 1.1328-0.58594 0.49219-1.0391 0.66797-1.0898 0.43359-1.293 0.34766-1.8672 0.23828-1.5078 0.67188-1.6289 0.73047-0.86719 0.57031-1.3438 0.99219-0.96484 1.9805-1.2539 1.0508-0.67188z" fill="#ccc" fill-rule="evenodd"/>
<path d="m85.543 165.8 1.2305 0.52344 1.4414 0.85547 1.5742 1.4297 0.81641 1.1094 0.99609 1.1133 0.70312 1.0234 1.0234 1.0859 1.4922 0.46875 1.3477 0.55469 1.4922-0.058594 1.2891 0.23438 0.64062 1.5781 0.5 0.91016 1.1719 0.875 0.52344 1.4062 0.87109 1.832 1.0781 1.7773 2.1562 2.2148 2.2148 1.9414 1.5078 1.7266 0.62891 1.0195 2.0703 2.8828 1.8086 2.3594 0.44141 1.3281-0.26562 2.668-0.23047 1.6719 0.46094 1.3789 0.46094 1.3281 1.2695 2.2461 1.0938 2.7031 1.2656 2.9961 0.69141 1.1523 1.0586 0.96484 2.7227 1.3945 2.2188 1.3633 1.0938 0.81641 0.91406 1.625 0.23047 1.3828 0.26172 1.8945 1.1719 2.1133 1.4688 1.1289 1.5078 0.94531 1.0195 0.48828 1.5078 1.6953 1.2422 1.6992 0.22656 1.6211 0.30078 1.8086 0.30469 1.0547 0.26172 1.4727-0.11328 2.2617 0.039063 1.582 0.79297 1.207 0.94141 0.56641 0.90234 0.56641 1.3203 1.1289 1.8477 1.1328 1.5078 1.2422 0.19141 1.207-0.71875 1.3555-1.207 0.90625-1.1289 1.0938-0.52734 1.3945 0.41406 1.6211 0.45312 1.0195 0.67578 1.4336 0.45312 1.3945-0.75391 1.582-1.3555 1.0938-0.56641 1.2422 0.1875 1.1719 0.30078 1.0898 0.22656 0.98047 0.17969 1.0703 1.5312 1.043 1.4766 0.51172 2.4102 0.12891 1.2695 0.22656 0.93359 0.56641 0.75 0.71484 2.9648 1.2812 0.88672 1.3477 1.2461 1.1289 2.6641 2.0938 1.2383 1.4453 0.72656 0.70312 0.73828 1.8477 0.17188 1.1836 0.39062 3.6719 0.30078 2.2109 0.40234 1.6055 0.40234 1.207 1.0039 1.8047 0.84375 1.1406 1.4727 1.4727 1.1094 0.95703 1.2266 0.33594 1.0547 0.77734 0.78125 1.168 1.168 1.3945 0.83594 0.89062 1 0.77734 0.68359 1.2656 0.30078 1.6133-0.38672 1.5938 0.6875 1.6328 0.60156 0.85938 0.6875 1.5039 1.0781 0.25781 1.0312-0.17188 1.6328-0.60156 2.0781-1.9375 1.5781-2.082 1.5039-0.53906 1.543 0.48047 0.96875 1.3477 0.77734 0.95312 1.8242 1.5195 1.2891 0.55859 0.90234 0.6875 1.1602 0.51562 0.90234 1.1172 0.73047 1.418 1.1367 1.4922 0.91406 1.332 0.61719 1.4023 0.28906 1.4922 0.11719 1.2539v1.4648l-0.26172 1.2852-0.55469 0.96484-1.1406 1.1367-1.2852 0.84766-0.9375 1.1992-1.1094 1.2852-1.375 1.668-1.3438 1.7812-0.64062 1.4609-0.9375 2.457-1.1406 2.6875-1.1094 2.543-1.3438 3.5664-0.4375 2.8047-0.14844 1.1094 0.14844 1.1133-0.73047 2.4844-0.32422 1.4609-0.32031 1.8711-0.64062 0.90234-0.67578 1.082-0.58203 0.96484-0.82031 0.87891-0.55469 1.4297-0.20312 1.1406 0.13672 2.8438-0.11328 1.457-0.72656 1.5703-1.2891 0.28125-1.5156-0.39453-1.2656-0.54688-1.1523-0.55078-2.4961-0.78125-1.6602-0.046875-1.6836-0.53125-2.2695-1.3789-1.9766-1.6797-1.8125-1.0547-2.4961-1.9102-1.8867-0.60938-1.1758-0.72656-1.2148-0.75-2.082-0.47656-1.4141 0.066406-2.0273-0.34766-3.7891 0.10938-1.9648 0.42188-1.2617 0.15234-1.625 1.0508-0.85938 0.88281-0.58594 1.0391-0.73828 1.043-4.6445 2.0742-1.4453 0.12891-2.1836-0.30469-2.5938-0.39062-2.2031 0.31641-1.1953 0.67188-1.1758 0.49609-1.3203 0.125-0.66016-1.1289 0.5-4.2227 0.62891-1.6953 0.48828-1.3359 0.21484-1.0195-0.36719-2.5195-0.21875-1.4531 0.41406-2.1602-0.10938-1.1602-1.1836-2.3555-0.26953-1-0.10938-1.9531 0.15234-2.3242-0.03125-1.1602-0.44531-1.3594-0.87109-1.043-0.76953-3.2422 0.47656-1.3242 0.68359-0.96875-0.14062-1.0078-0.50781-1.3477-0.51172-2.1289-0.18359-1.3125-0.56641-0.96484-0.62891-1.207-0.62891-0.96484-0.42578-1.043 0.054688-1.1367 0.58594-1.6641 0.33984-1.1055 0.39844-1.3789-0.36719-2.5625-0.59766-1.3008-0.42188-1.4766-0.32812-1.3594-0.16016-1.2578-0.51172-1.0195-0.82422-1.0234-1.4102-0.78125-1.2617-1.3242-0.97656-0.86719-1.0078-0.51172-1.3477-0.95703-0.96484-0.71484-0.72656-0.82422-0.96875-0.80078-0.85547-0.53516-0.75-1.1367-1.0859-0.44531-0.8125-0.62891-0.87109-0.98047-0.47656-1.9297-0.68359-1.4336-0.90234-1.1602-1.2148-0.83594-2.1914-1.043-0.73047-0.71875-0.96094-0.67188-1.4922-0.91016-1.1797-0.46875-1.6523-1.9961-1.4453-1.043-0.80859-0.73047-0.81641-0.75781-1.1562-0.67188-1.3125-0.070313-1.1445 0.4375-1.9648-0.13672-0.94922-0.58984-1.3242-1.3125-0.94141-0.62891-1.2695-0.73828-0.87109-1.2383-0.36719-1.4102-0.57812-1.0117-0.99609-0.64844-0.93359-1.7148-1.3125-0.92578-1.543-0.61719-1.4219-0.23828-1.2695-0.52344-2.0195-0.43359-1.3789-0.70312-2.2812-2.8555-0.40234-1.4219 0.12109-1.0664 0.51172-0.91016 0.46484-1.7891 0.042969-1.0664-0.54297-1.2969-0.38281-1.2109 0.046875-1.2578-0.015625-1.0977-0.35156-1.7383-0.31641-1.1445 0.19141-1.3867 0.11328-1.1484-0.29297-1.1914-0.90625-1.4492-0.1875-1.4336-0.26172-1.3086-0.035156-1.3008 0.078125-1.2188 1.2422-0.80859 0.67969-0.76953 0.60547-1.4648-0.13672-1.3789-0.47266-1.6875-0.23828-1.4336-0.70703-1.1445-1.082-0.97656-1.9453-0.69141-1.25-0.53125-0.94531-1.082-0.61328-1-0.13672-1.3906-1.0586-1.1133-1.1094-0.52734-1.1797-0.28125-1.4688-0.37891-1.0156-0.40234-1.2109-0.13281-1.8633-0.26172-1.418-0.51562-0.9375-0.76172-2.1055-1.6406-1.8242-0.5-1.0664 0.15234-1.1172 0.46875-0.91016 0.46484-1.0977 0.48828-1.2188-0.089844-1.2969-0.39844-0.96875-0.67188-1.6406-0.44531-1.1602-0.72656-0.62891-0.80078-0.48828-1.1641-0.20312-1.8398-0.52344-1.5156-0.62109-1.1602 0.25-1.7266 1-2.5391 0.48828-1.5234 0.48828-1.6484 1.3984-2.7148 0.5-3.2109-0.18359-1.707-0.58594-0.94141-0.44531-1.1836 0.26172-2.0977 1.2344-1.2461 1.5977-0.18359 2.082 1.8008 1.1562 0.51562 2.2344-0.51562 0.42188-0.96484-0.10938-1.0312 0.90625-1.4727 0.24609-1.1562-1.5273-1.7539 1.168 0.039063 1.543-0.37109 1.1172-1.0742 0.69531-0.93359 0.69531-0.8125 0.94141-0.51953 1.8672-0.011718 2.5508-0.54297 3.1836 0.79297 1.4844-0.078125 1.9883-0.14062 1.0625 1.1094 0.58594 1.0195 2.0742 1.8867 0.86719 0.52344 2.1094-0.54297 1.332 0.074219 1.1523 0.48828 1.043 0.023438 1.1172-0.76953 2.4297-1.0781 1.75-0.61719 1.1406-0.33594 1.3438-1.0117 0.79297-1.0312 1.5508-1.0508 1.1328-0.58594 0.49219-1.0391 0.66797-1.0898 0.43359-1.293 0.34766-1.8672 0.23828-1.5078 0.67188-1.6289 0.73047-0.86719 0.57031-1.3438 0.99219-0.96484 1.9805-1.2539 1.0508-0.67188 1.668 0.26562" fill="none" stroke="#fff" stroke-linecap="round" stroke-linejoin="round" stroke-miterlimit="10" stroke-width="2"/>
<path d="m415.04 386.45 0.20703 1.5312 0.83203 0.58594 1.6211 0.15234 1.0508 0.44531 0.81641 1.4648-0.29297 1.3359-0.55469 1.5977 0.20703 2.125 0.87891 1.4023 0.60547 1.5508 0.19531 1.4453-0.097656 1.1719 0.85938 1.3789 0.48828 1.2578 1.3008 1.2617 2 0.98438 0.8125 1.4883 2.5742 2.0742 0.42188 1.3477-0.28125 2.0078 0.22656 3.082-0.20703 1.543-0.47656 0.91016-0.70312 1.0312-0.67578 1.293-0.96484 0.78125-0.75 0.75781-0.89844 1.75-0.035156 1.4531 0.47656 1.5 0.12109 1.2266-0.29297 1.0312-0.51953 0.86719-0.5 0.95312-0.085937 1.5547 0.32422 2.2031 0.47656 1.1602 0.69531 0.92578 1.4883 0.11719 0.54297 1.1641-0.089843 2.8438 0.38281 1.0625 0.1875 1.9609-0.32422 0.98438-1.582 1.7461-0.92969 0.70703-1.3633 0.21875-1.0078-0.10938-1.5547-0.10938-1.7461 0.10938-1.0195 0.082031-1.625 0.027344-1.8281-0.54688-1.6094-0.70703-1.6094-0.98438-1.0391-0.10547-1.8242 1.0625-1.0391 0.73438-1.2266 0.71094-1.0625 0.92578 0.21875 1.5547 0.625 1.1211 0.51953 1.0898 0.54688 1.0898 0.40625 1.3906 0.019532 2.543-0.26562 2.0625-1.3008 2.5-2.4492 2.9688-4.7031 4.7812-3.3477 1.7539-1.9922 1.3555-4.9414 2.3906-4.8594 1.9141-6.7773 1.7539-4.7812 1.1133-1.9922 0.082032-1.6797-0.48438-1.668-1.5898-5.1758-9.2891-1.5-2.457-0.67969-1.6367-0.75-0.95312-1.6367-1.2461-1.8008-1.2461-3.1055 0.34766-1.0938-0.30469-2.1406-0.875-1.3594-0.83203-1.418-1.3125-0.91797-0.85156-4.5859-3.5312-3.0781-3.0117-2.4844-1.6094-1.6445-1.0117-2.0273-1.9258-1.4688-0.91016-1.1562-1.3281-0.73438-1.1562-0.91016-0.69922-0.98047-0.73438-0.59375-1.7148-1.0156-1.6445-0.59375-0.875-0.73438-0.83984-1.8906-1.1172-2.9492-3.0234-1.7227-1.3594-1.5742-1.2188-1.543-1.3594 1.4219 0.0625 1.1094 0.24609 1.3008 0.30859 1.0469 0.55859 1.6094 0.92578 1.2344 0.61719 1.2344 0.67969 2.3633 0.69141 1.625 0.59766 1.6953 0.30469 2.918 0.058594 1.3789 0.32422 1.4375 0.46484 1.0898 0.42969 2.2383 0.074218 1.2578 0.30469 1.2617 0.66406 1.1172-0.066406 1.043 0.28125 1.8438-0.82422 1.6445 0.17578 1.25-0.078125 1.0117-0.62109 1.6406 0.3125 1.0898 0.85547 1.25 0.9375 1.2461 0.70312 1.25 0.23438 1.5586-1.25 1.1719-0.78125 1.3242-1.0898 1.7969-1.3281 1.4805 0.39062 1.4844 0.46875 2.1836-0.39062 2.8867-0.46875 2.6523-0.78125 1.793-1.2461 2.3398-2.2617 1.2812-2.0234 0.78906-0.90625 0.73438-1.4688 1.1875-1.3008 1.2461-1.0742 2.5977-1.8086 1.5273-0.90625 2.2617-1.6953 1.4141-0.62109 3.2227-1.1289 0.84766-0.56641 1.5234-0.67969 1.6406-0.5625 1.3555-0.22656 0.73828-1.1875-0.11328-1.8672-0.45312-2.1484-0.67969-0.78906-0.45312-1.4141 1.5742-2.7891 0.28906-3.3516-0.007812-1.2031 0.64844-1.4141 1.8711-0.33594 1.3672-0.12109 2.6367-0.16797 1.8477-0.83984 0.86328-0.62109 1.3906-1.5586 1.418-1.418 1.4609-1.0078 1.2969-0.76562 0.57422-0.96094 1.1992-2.0156 0.76172-1.1445 0.51562-1.1914z" fill="#ccc" fill-rule="evenodd"/>
<path d="m415.04 386.45 0.20703 1.5312 0.83203 0.58594 1.6211 0.15234 1.0508 0.44531 0.81641 1.4648-0.29297 1.3359-0.55469 1.5977 0.20703 2.125 0.87891 1.4023 0.60547 1.5508 0.19531 1.4453-0.097656 1.1719 0.85938 1.3789 0.48828 1.2578 1.3008 1.2617 2 0.98438 0.8125 1.4883 2.5742 2.0742 0.42188 1.3477-0.28125 2.0078 0.22656 3.082-0.20703 1.543-0.47656 0.91016-0.70312 1.0312-0.67578 1.293-0.96484 0.78125-0.75 0.75781-0.89844 1.75-0.035156 1.4531 0.47656 1.5 0.12109 1.2266-0.29297 1.0312-0.51953 0.86719-0.5 0.95312-0.085937 1.5547 0.32422 2.2031 0.47656 1.1602 0.69531 0.92578 1.4883 0.11719 0.54297 1.1641-0.089843 2.8438 0.38281 1.0625 0.1875 1.9609-0.32422 0.98438-1.582 1.7461-0.92969 0.70703-1.3633 0.21875-1.0078-0.10938-1.5547-0.10938-1.7461 0.10938-1.0195 0.082031-1.625 0.027344-1.8281-0.54688-1.6094-0.70703-1.6094-0.98438-1.0391-0.10547-1.8242 1.0625-1.0391 0.73438-1.2266 0.71094-1.0625 0.92578 0.21875 1.5547 0.625 1.1211 0.51953 1.0898 0.54688 1.0898 0.40625 1.3906 0.019532 2.543-0.26562 2.0625-1.3008 2.5-2.4492 2.9688-4.7031 4.7812-3.3477 1.7539-1.9922 1.3555-4.9414 2.3906-4.8594 1.9141-6.7773 1.7539-4.7812 1.1133-1.9922 0.082032-1.6797-0.48438-1.668-1.5898-5.1758-9.2891-1.5-2.457-0.67969-1.6367-0.75-0.95312-1.6367-1.2461-1.8008-1.2461-3.1055 0.34766-1.0938-0.30469-2.1406-0.875-1.3594-0.83203-1.418-1.3125-0.91797-0.85156-4.5859-3.5312-3.0781-3.0117-2.4844-1.6094-1.6445-1.0117-2.0273-1.9258-1.4688-0.91016-1.1562-1.3281-0.73438-1.1562-0.91016-0.69922-0.98047-0.73438-0.59375-1.7148-1.0156-1.6445-0.59375-0.875-0.73438-0.83984-1.8906-1.1172-2.9492-3.0234-1.7227-1.3594-1.5742-1.2188-1.543-1.3594 1.4219 0.0625 1.1094 0.24609 1.3008 0.30859 1.0469 0.55859 1.6094 0.92578 1.2344 0.61719 1.2344 0.67969 2.3633 0.69141 1.625 0.59766 1.6953 0.30469 2.918 0.058594 1.3789 0.32422 1.4375 0.46484 1.0898 0.42969 2.2383 0.074218 1.2578 0.30469 1.2617 0.66406 1.1172-0.066406 1.043 0.28125 1.8438-0.82422 1.6445 0.17578 1.25-0.078125 1.0117-0.62109 1.6406 0.3125 1.0898 0.85547 1.25 0.9375 1.2461 0.70312 1.25 0.23438 1.5586-1.25 1.1719-0.78125 1.3242-1.0898 1.7969-1.3281 1.4805 0.39062 1.4844 0.46875 2.1836-0.39062 2.8867-0.46875 2.6523-0.78125 1.793-1.2461 2.3398-2.2617 1.2812-2.0234 0.78906-0.90625 0.73438-1.4688 1.1875-1.3008 1.2461-1.0742 2.5977-1.8086 1.5273-0.90625 2.2617-1.6953 1.4141-0.62109 3.2227-1.1289 0.84766-0.56641 1.5234-0.67969 1.6406-0.5625 1.3555-0.22656 0.73828-1.1875-0.11328-1.8672-0.45312-2.1484-0.67969-0.78906-0.45312-1.4141 1.5742-2.7891 0.28906-3.3516-0.007812-1.2031 0.64844-1.4141 1.8711-0.33594 1.3672-0.12109 2.6367-0.16797 1.8477-0.83984 0.86328-0.62109 1.3906-1.5586 1.418-1.418 1.4609-1.0078 1.2969-0.76562 0.57422-0.96094 1.1992-2.0156 0.76172-1.1445 0.51562-1.1914 0.054688 0.60547" fill="none" stroke="#fff" stroke-linecap="round" stroke-linejoin="round" stroke-miterlimit="10" stroke-width="2"/>
<path d="m240.33 275.87 0.51953 0.25 1.2578 1.1289 1.4453 0.72656 0.62891 1.1719 0.41406 1.1719-0.14062 1.0117 0.50781 1.1602 0.72656 1.8438 0.48047 0.95703 1.0742 0.82422 0.69531 0.85938 0.5625 0.98828 0.70703 1.1172 1.2695 1.2461 0.94531-1.0977 0.48828-0.96484 0.95312-1.5508 0.035156-1.7891 0.34766-1.5859-0.32812-1.1719-0.25781-1.1289 0.25-1.8125 1.0391-0.48828 1.75 0.78906 1.7383 0.75 2.1641 0.38281 2.1602 0.38281 1.2734 0.44141 1.082 0.19141 1.2695 0.25391 2.207 1.4258 1.3086 1.1211 1.2617 1.0273 1.3984 2.0547 0.98047 1.4023 0.98047 0.65234 1.6836 1.5898 0.14062 1.1641-1.0742 0.75-0.89062 0.51172-1.1172 0.09375-1.1211-0.14062-1.2227 0.10547-1.9453 0.58203-0.42969 1.4648 1.7422 1.8438 0.93359 1.2617-0.55469 1.6719-0.88672 1.0352-0.74219 1.2812-0.097656 1.5781 1.0352 2.1211v1.7266l-0.64062 1.4766 0.39453 1.5469 0.87891 0.58984 1.4766 0.24609 1.4023 0.15234 1.3125 0.046875 1.2891-0.17578 1.5781-0.67969 1.2266-1.1367 1.1367-1.1406 1.0938-0.93359 0.92969-0.82031 1.0039 0.078125 1.3242 0.8125 1.1992 0.085938 1.793 0.55469 1.0703 0.42969 1.4102 1.0234 1.2422 0.47266 1.6523 0.85547 0.68359 1.1719 0.64062 1.0742-0.17578 1.1055 0.48828 1.5 0.52344 1.5742-0.45703 1.5625 1.1172 2.0859 0.5 1.1172-0.074219 1.3242 0.37109 2.1953 0.65234 3.832 0.43359 2.6641 0.1875 1.6133 1.6719 2.293 0.92969 2.1719 0.33984 1.1211 0.73438 1.543 0.93359 0.85547 0.3125 1.6094 0.36719 2.6484 1.0352 2.5039 0.55859 0.96875 1.3516 1.3516 0.90625 0.59766 2.3086-0.058593 2.3008-0.015625 0.96875 0.375 0.42578 0.98828 0.10547 2.1289 0.88672 0.85156 1.1875 0.42969 1.293-0.62109 0.95312 0.71875-0.62109 1.332-0.75391 1.0625-0.53516 1.043-0.94531 1.9062 0.27734 1.5273-0.57812 1.3242-1.0156 1.2188-0.67578 1.8984-0.47656 1.082-0.20312 1.6914 0.13672 1.0859 0.77344 1.6719 0.39844 1.0703 1.0273 2.0156 0.82812 1.1875 0.59375 0.86719 1.3477 0.67578 1.9375 0.19531 1.6211 0.16016 2.1328 0.75 1.2656 0.87109 2.0195 1.6992 1.2266 1.5039 1.7773 1.3828 1.8984 1.1875 0.87109 0.51172 0.59375 0.87109 0.82812 1.1094 0.94922 1.543 0.4375 2.4492 0.039062 1.5039-0.23828 2.1758-0.43359 0.91016-0.67188 0.86719-0.71484 0.75391-0.67188 0.98828-0.63281 1.3438 0.23828 1.9766 0.039063 1.0703-0.078125 1.5391 0.082031 1.1797 0.58984 1.3516 1.0664 1.4258 0.67188 1.1055 0.47656 1.0312 0.19922 2.1328-0.082031 1.4258 0.082031 1.1875 0.15625 0.98828-0.23828 1.8555-0.59375 1.3086-1.3047 0.31641-1.5 0.43359-1.1484 0.63281-1.0273 1.1484-3.1484 1.793-1.543 0.24609-1.8516 0.25-2.2266 0.42969-1.9141-0.18359-1.4219 0.30859-2.7773 0.74219-1.0508-0.61719-1.2969-0.99219-1.2344-0.61719-1.5234-1.4141-1.9258-1.6836-1.6836-0.83984-1.6289-0.74219-1.6836-0.39453-1.2031 0.83203-0.82031 2.0352-0.59375 1.3359-1.1367 1.1875-0.94141 0.49219-2.668 1.6797-4.6484 2.4219-1.9766 1.3359-2.2734 0.82031-0.48438 0.89062-0.82031 1.2305-0.75391 1.3672-0.88672 0.68359-1.2344 0.27344-1.1602 0.20703-2.3281 1.0938-1.8438 0.61328-2.4648 0.68359-0.95703 0.75391-0.20703 1.7109 0.6875 1.5742 0.13672 2.3242 0.33984 1.0938-0.54688 1.0938-1.1641 1.0938-1.8438 1.7812-0.82422 1.3008-0.95703 1.4336-0.49219 1.3633-0.4375 1.0586-0.28906 1.1172-0.33984 1.4531-0.039062 1.9219-1.3516 3.7852-0.43359 1.043-0.43359 1.3906-0.48828 0.93359-0.78516 1.9297-1.168 3.2812-0.51172 1.0508-0.79297 1.6836-0.054687 1.3047 0.26172 1.4102 0.19531 1.7148 0.074219 1.7695-0.78906 2.1055-0.25 2.9102 0.65234 2.457 0.47656 1.668-0.56641 1.2148-1.3008 0.29297-1.4883-0.011719-1.543 0.035156-1.5508 0.92188-1.1523 0.33594-1.1055 0.097656-0.89453 0.875-0.3125 1.0781-0.78125 0.71875-0.97266 0.39844-1.0117 0.21875-1.0117-0.03125-1.1914-0.29297-1.543-0.54297-1.5859-1.1641-1.6602-1.6055-0.79297-1.0078-0.87891-0.95703-0.57422-0.89062-0.43359-0.95312-0.35938-1.25-0.39062-1.0977-1.4336-1.0625-1.3125-0.70703-0.86719-0.50781-1.5-1.543-1.2383-1.7266-1.2578-1.6914-0.75-0.87891-0.71484-0.73828-0.90234-0.51172-2.2266-0.20703-1.5195-0.15234-1.5195-0.14062-1.6055 0.10938-1.5312 0.27344-1.5391-0.1875-1.5547-0.66016-1.5312-1.0977-1.4961-0.90234-1.5547-0.16016-1.5625 0.019531-1.5508-0.23828-1.5547-0.019531-1.5391-0.80469-1.5195-1.1953-0.75-0.75781-0.54297-0.94531-0.65234-0.86719-0.86719-0.85938-1.4883-0.41016h-1.4766l-1.5078-0.24219-1.0977-0.32422-0.83594-0.60938-1.1836-0.74609-1.4648-0.023437-1.582-0.097657-1.043-0.21875-1.293-0.91016-0.76953-0.79297-1.0195-0.89844-0.82812-0.67578-1.3672-0.33594-1.1914-0.29297-1.5117-0.75781-1.0508-0.40234-2.3555-0.48828-1.25-0.85938-2.8203-1.0625-2.1953-0.83594-1.5625-0.52344-3.7891 0.20703-1.2148 0.085938-2.6836 0.25-1.0391-0.042969-1.6953-0.28125-2.8633 0.42188-1.0859-0.007813-1.2031-0.21094-1.1094-0.19141-2.0078-0.57812-1.7188-0.007813-1.3242-0.28516-1.3125-0.78906-1.0938-1.3242-0.57812-0.94531-0.84766-2.7461-0.14844-2.6094 0.042969-3.125 0.25-3.7422-0.52344-3.4531-1.0625-3.4531-0.41406-1.3672-0.33203-1.8555-0.67578-1.7383-0.64062-2.8086-0.39062-2.0664-0.37109-1.5938-0.42188-1.2383-0.34766-2.0742-0.75-1.6289-0.48828-1.7461-0.19531-1.4648-0.72656-1.4102-1.5078-1.4883-0.93359-1.1719-1.043-1.5312-0.73828-0.94531-1.2578-1.3906-0.89062-1.7695-0.29297-1.7461 0.085938-1.9336-0.34766-1.4844-1.5508-1.6289-1.1289-1.1641-0.58594-1.4961-0.45703-1.0742-0.29297-1.0195-0.31641-1.8242-0.11719-1.5117-0.64062-4.0898-0.57812-2.0625-0.29297-1.4648-0.28125-0.97656-0.15234-1.043-0.019531-1.1953 0.23828-1.3125 0.15234-1.8906-0.86719-2.2891-0.51172-1.3633 0.21484-1.2539-0.007813-1.4102-0.54297-1.7148-0.48047-1.2578-0.35547-0.9375-0.31641-1.3555-0.17188-1.3125-0.58984-1.8359-0.25-1.0078 1.2305-0.089843 1.625-0.62891 1.1953-0.67188 1.3672-0.12891 2.6719-0.097656 2.9414 0.60547 1.4453-0.12891 4.1445-1.5312 0.80469-1.1289 1.0195-1.4961 0.85938-0.88281 1.625-1.0508 1.2617-0.15234 1.9648-0.42188 2.8125-0.21875 2.2227 0.42188 1.2812-0.0625 2.3906 0.3125 1.0391 0.65234 1.957 1.0195 1.3984 0.39062 2.9844 2.1289 1.8125 1.0547 1.9766 1.6797 2.2695 1.3789 1.6836 0.53125 1.6602 0.046875 1.7148 0.25781 1.9336 1.0742 1.2656 0.54688 1.5156 0.39453 1.2891-0.28125 0.72656-1.5703 0.11328-1.457-0.25391-2.1992 0.32031-1.7852 0.55469-1.4297 0.82031-0.87891 0.58203-0.96484 0.67578-1.082 0.64062-0.90234 0.32031-1.8711 0.32422-1.4609 0.67188-1.5508-0.089844-2.0469 0.14844-1.1094 0.26172-1.8984 1.5195-4.4727 1.1094-2.543 1.1406-2.6875 0.61328-1.6094 0.82031-1.6367 1.4883-2.4531 1.375-1.668 1.1094-1.2852 0.9375-1.1992 1.2852-0.84766 1.1406-1.1367 0.55469-0.96484 0.26172-1.2852v-1.4648l-0.11719-1.2539-0.28906-1.4922-0.61719-1.4023-0.91406-1.332 2.4883-1.8555 1.1484-0.51953 0.9375-0.94141 1.3555-1.7734 1.832-1.9961 1.1914-1.1914 1.25-0.71484 1.0742-0.17969 1.4883-0.29688 1.3789-0.87109 0.84766-1.5586 1.0977-0.98828 1.5234-0.85156 0.8125-0.70703 0.74219-0.70703 0.88672-1.2383 1.4883-1.3477 2.6523-1.9453 1.0273-0.70703 1.8047-0.88672 1.0469-0.64844 0.85938-1.1406 0.84766-1.6172 1.3984-0.78125 0.80469-0.72656 1.3789-0.8125 0.64844-1.1094 1.1719-0.76953 1.0547-0.51172 1.9414-1.1484 1.4258-0.70703 0.35547-1.1523 1.4648-2.125 0.85938-0.52344 0.67188-1.0742 1.9648-0.3125z" fill="#ccc" fill-rule="evenodd"/>
<path d="m240.33 275.87 0.51953 0.25 1.2578 1.1289 1.4453 0.72656 0.62891 1.1719 0.41406 1.1719-0.14062 1.0117 0.50781 1.1602 0.72656 1.8438 0.48047 0.95703 1.0742 0.82422 0.69531 0.85938 0.5625 0.98828 0.70703 1.1172 1.2695 1.2461 0.94531-1.0977 0.48828-0.96484 0.95312-1.5508 0.035156-1.7891 0.34766-1.5859-0.32812-1.1719-0.25781-1.1289 0.25-1.8125 1.0391-0.48828 1.75 0.78906 1.7383 0.75 2.1641 0.38281 2.1602 0.38281 1.2734 0.44141 1.082 0.19141 1.2695 0.25391 2.207 1.4258 1.3086 1.1211 1.2617 1.0273 1.3984 2.0547 0.98047 1.4023 0.98047 0.65234 1.6836 1.5898 0.14062 1.1641-1.0742 0.75-0.89062 0.51172-1.1172 0.09375-1.1211-0.14062-1.2227 0.10547-1.9453 0.58203-0.42969 1.4648 1.7422 1.8438 0.93359 1.2617-0.55469 1.6719-0.88672 1.0352-0.74219 1.2812-0.097656 1.5781 1.0352 2.1211v1.7266l-0.64062 1.4766 0.39453 1.5469 0.87891 0.58984 1.4766 0.24609 1.4023 0.15234 1.3125 0.046875 1.2891-0.17578 1.5781-0.67969 1.2266-1.1367 1.1367-1.1406 1.0938-0.93359 0.92969-0.82031 1.0039 0.078125 1.3242 0.8125 1.1992 0.085938 1.793 0.55469 1.0703 0.42969 1.4102 1.0234 1.2422 0.47266 1.6523 0.85547 0.68359 1.1719 0.64062 1.0742-0.17578 1.1055 0.48828 1.5 0.52344 1.5742-0.45703 1.5625 1.1172 2.0859 0.5 1.1172-0.074219 1.3242 0.37109 2.1953 0.65234 3.832 0.43359 2.6641 0.1875 1.6133 1.6719 2.293 0.92969 2.1719 0.33984 1.1211 0.73438 1.543 0.93359 0.85547 0.3125 1.6094 0.36719 2.6484 1.0352 2.5039 0.55859 0.96875 1.3516 1.3516 0.90625 0.59766 2.3086-0.058593 2.3008-0.015625 0.96875 0.375 0.42578 0.98828 0.10547 2.1289 0.88672 0.85156 1.1875 0.42969 1.293-0.62109 0.95312 0.71875-0.62109 1.332-0.75391 1.0625-0.53516 1.043-0.94531 1.9062 0.27734 1.5273-0.57812 1.3242-1.0156 1.2188-0.67578 1.8984-0.47656 1.082-0.20312 1.6914 0.13672 1.0859 0.77344 1.6719 0.39844 1.0703 1.0273 2.0156 0.82812 1.1875 0.59375 0.86719 1.3477 0.67578 1.9375 0.19531 1.6211 0.16016 2.1328 0.75 1.2656 0.87109 2.0195 1.6992 1.2266 1.5039 1.7773 1.3828 1.8984 1.1875 0.87109 0.51172 0.59375 0.87109 0.82812 1.1094 0.94922 1.543 0.4375 2.4492 0.039062 1.5039-0.23828 2.1758-0.43359 0.91016-0.67188 0.86719-0.71484 0.75391-0.67188 0.98828-0.63281 1.3438 0.23828 1.9766 0.039063 1.0703-0.078125 1.5391 0.082031 1.1797 0.58984 1.3516 1.0664 1.4258 0.67188 1.1055 0.47656 1.0312 0.19922 2.1328-0.082031 1.4258 0.082031 1.1875 0.15625 0.98828-0.23828 1.8555-0.59375 1.3086-1.3047 0.31641-1.5 0.43359-1.1484 0.63281-1.0273 1.1484-3.1484 1.793-1.543 0.24609-1.8516 0.25-2.2266 0.42969-1.9141-0.18359-1.4219 0.30859-2.7773 0.74219-1.0508-0.61719-1.2969-0.99219-1.2344-0.61719-1.5234-1.4141-1.9258-1.6836-1.6836-0.83984-1.6289-0.74219-1.6836-0.39453-1.2031 0.83203-0.82031 2.0352-0.59375 1.3359-1.1367 1.1875-0.94141 0.49219-2.668 1.6797-4.6484 2.4219-1.9766 1.3359-2.2734 0.82031-0.48438 0.89062-0.82031 1.2305-0.75391 1.3672-0.88672 0.68359-1.2344 0.27344-1.1602 0.20703-2.3281 1.0938-1.8438 0.61328-2.4648 0.68359-0.95703 0.75391-0.20703 1.7109 0.6875 1.5742 0.13672 2.3242 0.33984 1.0938-0.54688 1.0938-1.1641 1.0938-1.8438 1.7812-0.82422 1.3008-0.95703 1.4336-0.49219 1.3633-0.4375 1.0586-0.28906 1.1172-0.33984 1.4531-0.039062 1.9219-1.3516 3.7852-0.43359 1.043-0.43359 1.3906-0.48828 0.93359-0.78516 1.9297-1.168 3.2812-0.51172 1.0508-0.79297 1.6836-0.054687 1.3047 0.26172 1.4102 0.19531 1.7148 0.074219 1.7695-0.78906 2.1055-0.25 2.9102 0.65234 2.457 0.47656 1.668-0.56641 1.2148-1.3008 0.29297-1.4883-0.011719-1.543 0.035156-1.5508 0.92188-1.1523 0.33594-1.1055 0.097656-0.89453 0.875-0.3125 1.0781-0.78125 0.71875-0.97266 0.39844-1.0117 0.21875-1.0117-0.03125-1.1914-0.29297-1.543-0.54297-1.5859-1.1641-1.6602-1.6055-0.79297-1.0078-0.87891-0.95703-0.57422-0.89062-0.43359-0.95312-0.35938-1.25-0.39062-1.0977-1.4336-1.0625-1.3125-0.70703-0.86719-0.50781-1.5-1.543-1.2383-1.7266-1.2578-1.6914-0.75-0.87891-0.71484-0.73828-0.90234-0.51172-2.2266-0.20703-1.5195-0.15234-1.5195-0.14062-1.6055 0.10938-1.5312 0.27344-1.5391-0.1875-1.5547-0.66016-1.5312-1.0977-1.4961-0.90234-1.5547-0.16016-1.5625 0.019531-1.5508-0.23828-1.5547-0.019531-1.5391-0.80469-1.5195-1.1953-0.75-0.75781-0.54297-0.94531-0.65234-0.86719-0.86719-0.85938-1.4883-0.41016h-1.4766l-1.5078-0.24219-1.0977-0.32422-0.83594-0.60938-1.1836-0.74609-1.4648-0.023437-1.582-0.097657-1.043-0.21875-1.293-0.91016-0.76953-0.79297-1.0195-0.89844-0.82812-0.67578-1.3672-0.33594-1.1914-0.29297-1.5117-0.75781-1.0508-0.40234-2.3555-0.48828-1.25-0.85938-2.8203-1.0625-2.1953-0.83594-1.5625-0.52344-3.7891 0.20703-1.2148 0.085938-2.6836 0.25-1.0391-0.042969-1.6953-0.28125-2.8633 0.42188-1.0859-0.007813-1.2031-0.21094-1.1094-0.19141-2.0078-0.57812-1.7188-0.007813-1.3242-0.28516-1.3125-0.78906-1.0938-1.3242-0.57812-0.94531-0.84766-2.7461-0.14844-2.6094 0.042969-3.125 0.25-3.7422-0.52344-3.4531-1.0625-3.4531-0.41406-1.3672-0.33203-1.8555-0.67578-1.7383-0.64062-2.8086-0.39062-2.0664-0.37109-1.5938-0.42188-1.2383-0.34766-2.0742-0.75-1.6289-0.48828-1.7461-0.19531-1.4648-0.72656-1.4102-1.5078-1.4883-0.93359-1.1719-1.043-1.5312-0.73828-0.94531-1.2578-1.3906-0.89062-1.7695-0.29297-1.7461 0.085938-1.9336-0.34766-1.4844-1.5508-1.6289-1.1289-1.1641-0.58594-1.4961-0.45703-1.0742-0.29297-1.0195-0.31641-1.8242-0.11719-1.5117-0.64062-4.0898-0.57812-2.0625-0.29297-1.4648-0.28125-0.97656-0.15234-1.043-0.019531-1.1953 0.23828-1.3125 0.15234-1.8906-0.86719-2.2891-0.51172-1.3633 0.21484-1.2539-0.007813-1.4102-0.54297-1.7148-0.48047-1.2578-0.35547-0.9375-0.31641-1.3555-0.17188-1.3125-0.58984-1.8359-0.25-1.0078 1.2305-0.089843 1.625-0.62891 1.1953-0.67188 1.3672-0.12891 2.6719-0.097656 2.9414 0.60547 1.4453-0.12891 4.1445-1.5312 0.80469-1.1289 1.0195-1.4961 0.85938-0.88281 1.625-1.0508 1.2617-0.15234 1.9648-0.42188 2.8125-0.21875 2.2227 0.42188 1.2812-0.0625 2.3906 0.3125 1.0391 0.65234 1.957 1.0195 1.3984 0.39062 2.9844 2.1289 1.8125 1.0547 1.9766 1.6797 2.2695 1.3789 1.6836 0.53125 1.6602 0.046875 1.7148 0.25781 1.9336 1.0742 1.2656 0.54688 1.5156 0.39453 1.2891-0.28125 0.72656-1.5703 0.11328-1.457-0.25391-2.1992 0.32031-1.7852 0.55469-1.4297 0.82031-0.87891 0.58203-0.96484 0.67578-1.082 0.64062-0.90234 0.32031-1.8711 0.32422-1.4609 0.67188-1.5508-0.089844-2.0469 0.14844-1.1094 0.26172-1.8984 1.5195-4.4727 1.1094-2.543 1.1406-2.6875 0.61328-1.6094 0.82031-1.6367 1.4883-2.4531 1.375-1.668 1.1094-1.2852 0.9375-1.1992 1.2852-0.84766 1.1406-1.1367 0.55469-0.96484 0.26172-1.2852v-1.4648l-0.11719-1.2539-0.28906-1.4922-0.61719-1.4023-0.91406-1.332 2.4883-1.8555 1.1484-0.51953 0.9375-0.94141 1.3555-1.7734 1.832-1.9961 1.1914-1.1914 1.25-0.71484 1.0742-0.17969 1.4883-0.29688 1.3789-0.87109 0.84766-1.5586 1.0977-0.98828 1.5234-0.85156 0.8125-0.70703 0.74219-0.70703 0.88672-1.2383 1.4883-1.3477 2.6523-1.9453 1.0273-0.70703 1.8047-0.88672 1.0469-0.64844 0.85938-1.1406 0.84766-1.6172 1.3984-0.78125 0.80469-0.72656 1.3789-0.8125 0.64844-1.1094 1.1719-0.76953 1.0547-0.51172 1.9414-1.1484 1.4258-0.70703 0.35547-1.1523 1.4648-2.125 0.85938-0.52344 0.67188-1.0742 1.9648-0.3125 0.81641 0.23828" fill="none" stroke="#fff" stroke-linecap="round" stroke-linejoin="round" stroke-miterlimit="10" stroke-width="2"/>
<path d="m55.379 1.3281 1.5664 0.88281 1.3125 0.85156 1.1094 0.71875 3.9492 1.6211 1.8984 0.58594 2.4102 1.0938 2.4062 1.0234 1.8242 1.4609 2.543 1.8203 0.94531 0.98438 1.2188 1.0625 2.793 0.86719 1.7305 0.19531 1.6133 0.55078 1.7344 0.47266 1.8086 0.35156 1.8477 0.35547h1.9297l3.418-0.42188 0.56641 1.9688 0.69531 1.2461 0.89844 1.9414 0.79688 1.5938 0.44531 1.0938 0.10156 1.1953-0.10156 1.3906-0.44531 1.4648-0.3125 1.0703-0.44531 1.043-0.49219 1.5391 0.30078 1.832 1.168 1.0664 1.332 1.5977 1.332 1.1367 2.5078 2.0781 0.9375 0.86719 1.1016 1.5352 0.60156 0.96875 0.76562 1.0352 0.73438 0.70312 1.0703 0.43359 1.2344-0.33594 1.1367-0.5 1.8008-0.33203 1.1016-0.40234 0.53516-1.3672 0.60156-0.90234 0.93359-0.36719 1.5703-0.13281 1.2344 0.66797 1.4375 1.7344 0.73438 0.90234 1.0664 0.86719 1.3359 1.2695 1.6367 1 1.5352 1.1367 1.4023 0.60156 1.3359 0.53516 1.1016 0.33203 2.0039 0.70312 1.1367 1.0352 0.13281 1.9336-0.19922 1.8359 0.96875 1.2031 0.93359 0.70312 1.5352 1.5 0.70312 0.80078 0.53125 0.87109 1.5664 2.3789 1.2852 2.6719 1.2305 1.5391 1.1328 1.2852 0.66406 1.4375-0.25391 2.1562-0.56641 1.6953-0.71875 1.7969 0.25781 2 0.71875 1.8516 0.76953 1.0273 0.76953 1.1289 0.66797 1.6953 0.050781 2.1016 0.050782 2.6211 0.10547 1.7969-0.042968 1.2891 0.64062 1.4102-0.22266 1.793 0.19141 2.0195 0.03125 2.1445-0.38281 1.5391 0.097656 1.375 0.63672 1.0586 0.57812 0.89844 1.25 1.2812 0.67188 1.0234 0.76953 0.96094 0.73828 0.83203 1.1211 1.4102-1.0586 1.25-1.1523 0.60938-1.2812 1.0586-1.6367 0.03125-1.6016 0.19141-0.73438 0.80078-1.0273 1.6328-0.83203 1.3125v1.1562l-0.25391 1.2812-0.89844 0.89453-0.89844 1.3477-1.1211 1.375-0.92969 1.0586-0.16016 1.5391 0.44922 0.99219-0.57422 0.86328-0.89844 1.3477-0.19141 1.6641 0.03125 1.1875-0.54297 1.375-0.64062 1.0898-1.2188 0.83203-0.76953 0.70703 0.066406 1.4727-1.2852 1.0586-1.6016 1.1836-0.76562 0.89844-0.44922 1.3438-0.066406 1.0586-0.54297 1.1211-1.2188 0.92969-1.1523 0.83203-0.96094 0.67188-0.25781 1.1523 0.17969 1.7812 0.30469 1.7539 0.070313 1.5703 0.49219 1.2188-0.46875 1.8984-0.60938 1.2656 0.35156 1.8047-0.14062 1.7578-0.023438 1.4766 0.86719 1.8008 0.58594 0.84375 0.070313 1.1719-0.023438 1.3594 0.09375 1.5234 0.21094 1.8281-0.16406 1.9922v2.2461l-0.14062 1.125 0.046875 1.7812 0.44531 1.6406 0.070312 1.4297-0.58594 1.2422-0.82031 1.0078-0.82031 1.2188-0.75 1.707-0.98047 0.5625-1.5 0.070312-1.0078-0.09375-1.4531 0.53906-1.2656 0.86719-5.6914 2.9531-1.2109 0.64062-0.62891-1.0195-0.86328-1.0273-2.8594-2.6406-2.1562-2.2148-1.0781-1.7773-0.57812-0.95312-0.4375-1.4648-0.9375-1.2266-0.96484-0.87891-0.26562-1.2578-0.93359-0.9375h-1.7266l-1.3477-0.41016-1.3164-0.29297-1.1406-0.78906-1.0273-1.2305-1.375-1.582-0.81641-1.1094-0.9375-0.87891-1.3477-1.0234-1.9609-0.90625-1.668-0.26562-1.0508 0.67188-1.3672 0.78125-1.1289 0.89453-0.64844 1.0195-1.1289 1.7344-0.5625 0.90234-0.14062 1.6055-0.25 1.6523-0.57422 1.9844-0.73047 1.0195-0.59375 1.2617-1.1328 0.58594-1.5508 1.0508-0.79297 1.0312-1.3438 1.0117-1.1406 0.33594-1.75 0.61719-1.6797 0.84766-1.8672 1-1.043-0.023438-1.1523-0.48828-1.332-0.074219-1.2383 0.39062-1.7383-0.37109-1.3672-1.3672-0.97656-0.86719-1.0195-1.5625-1.3711-0.21875-2.4609 0.21875-2.5859-0.67969-3.1484 0.42969-1.3789 0.007812-1.4297 0.52344-0.69531 0.8125-0.69531 0.93359-1.1172 1.0742-1.543 0.37109-1.1602-0.042969-0.95703-0.78125-1.1289-1.2852-0.78125-1.0781-0.4375-1.9141 0.089844-1.2578 0.58203-1.0742 1.1172-0.64062 1.3438-0.96484 0.050782-1.1094-0.59766-1.332-0.14453-1.0039 0.23047-1.4414-0.0625-2.1094-0.62109-1.2344-0.62891-0.93359-0.51562-0.94141-1.25-0.62891-1.3867-0.48047-0.30859-0.98828-0.042968-1.1094-0.28516-2.8438 0.20703-1.8789-0.14453-1.668-0.60156-0.87109-2-1.2695-1.25-1.8047 1.293-0.91016 1.0938-0.42578 0.46875-0.91016 0.64062-0.96875-0.20312-1.125-0.64844-0.98438-0.53516-1.707 0.015625-1.2344-0.53516-0.90625-1.6406-0.43359-1.9219-1.0742-1.1836-1.3086-0.82031-1.5898-0.45312-0.99609-1.0547-1.2617-0.875-0.58594-0.86328-0.68359-0.89453-0.54297-1.4336-0.60938-1.4023-0.0625-1.0312-0.17578-0.91016-0.43359-1.9648-1.3477-1.8359-0.83594-1.4102-0.32422-1.6914-0.03125-1.3477 0.36719-1.1523-0.27734-1.0508-1.1133-2.0195-1.5742-2.0977-2.3594 0.375-4.0859 0.86328-2.7422 0.96484-2.043 0.48438-3.332v-2.4727l-0.375-2.5273 0.53516-1.6133 0.48438-1.668 0.53906-3.1719 0.73828-2.5469 0.98047-2.668 0.16406-1.5039-0.55469-1.6602-0.25391-1.0469 0.32422-1.0039 0.54688-1.1211 1.3008-0.95703 1.0195-0.37109 1.9805-1.8555 0.61719-0.96094 0.55859-1.668 0.55469-1.2695 0.71094-0.96094 1.0234-1.1445 0.33984-1.082 0.03125-2.3203 0.43359-2.5039 0.64844-1.5469 1.2383-1.5156 0.89453-0.71094 1.0859-1.207 1.3359-2.1445 0.62109-0.86719 0.29688-2.0508-0.19922-1.4375-0.41797-1.582-0.54688-1.3867 0.097656-1.3125 0.14844-1.1328 0.41016-1.3164 0.69141-0.84375 0.90625-0.55469 1.5-0.90625 0.67188-0.98828 0.85938-2.3359 1.1133-1.9922 0.85156-1.3398 0.40234-1.4531 0.91016-1.4531 0.83984-1.7734 0.10156-1.9102 0.085938-1.2227-0.085938-1.3516 0.29688-1.0156 1.6875-0.71484 1.6055-0.76172 0.63281-0.80078 0.97656-0.95703 0.94531-0.71094 0.70703-0.80859 0.64062-3.0078 0.23828-1.0469 0.50781-1.3828 0.80859-1.1484 1.0977-0.87109 1.2852-1.0117 1.082-1.0156 1.7734-1.9336 0.39453-1.3203-0.20312-2.5938-0.23047-2.4492 0.20312-1.8828 0.42578-1.6523 0.54297-1.168 0.79688-1.8242 1.3672-2.4219 1.082-2.25 0.99219-1.3438 1.7461-0.082031 1.9648-0.19922 1.0547-0.54297 1.0703-0.74219z" fill="#ccc" fill-rule="evenodd"/>
<path d="m55.379 1.3281 1.5664 0.88281 1.3125 0.85156 1.1094 0.71875 3.9492 1.6211 1.8984 0.58594 2.4102 1.0938 2.4062 1.0234 1.8242 1.4609 2.543 1.8203 0.94531 0.98438 1.2188 1.0625 2.793 0.86719 1.7305 0.19531 1.6133 0.55078 1.7344 0.47266 1.8086 0.35156 1.8477 0.35547h1.9297l3.418-0.42188 0.56641 1.9688 0.69531 1.2461 0.89844 1.9414 0.79688 1.5938 0.44531 1.0938 0.10156 1.1953-0.10156 1.3906-0.44531 1.4648-0.3125 1.0703-0.44531 1.043-0.49219 1.5391 0.30078 1.832 1.168 1.0664 1.332 1.5977 1.332 1.1367 2.5078 2.0781 0.9375 0.86719 1.1016 1.5352 0.60156 0.96875 0.76562 1.0352 0.73438 0.70312 1.0703 0.43359 1.2344-0.33594 1.1367-0.5 1.8008-0.33203 1.1016-0.40234 0.53516-1.3672 0.60156-0.90234 0.93359-0.36719 1.5703-0.13281 1.2344 0.66797 1.4375 1.7344 0.73438 0.90234 1.0664 0.86719 1.3359 1.2695 1.6367 1 1.5352 1.1367 1.4023 0.60156 1.3359 0.53516 1.1016 0.33203 2.0039 0.70312 1.1367 1.0352 0.13281 1.9336-0.19922 1.8359 0.96875 1.2031 0.93359 0.70312 1.5352 1.5 0.70312 0.80078 0.53125 0.87109 1.5664 2.3789 1.2852 2.6719 1.2305 1.5391 1.1328 1.2852 0.66406 1.4375-0.25391 2.1562-0.56641 1.6953-0.71875 1.7969 0.25781 2 0.71875 1.8516 0.76953 1.0273 0.76953 1.1289 0.66797 1.6953 0.050781 2.1016 0.050782 2.6211 0.10547 1.7969-0.042968 1.2891 0.64062 1.4102-0.22266 1.793 0.19141 2.0195 0.03125 2.1445-0.38281 1.5391 0.097656 1.375 0.63672 1.0586 0.57812 0.89844 1.25 1.2812 0.67188 1.0234 0.76953 0.96094 0.73828 0.83203 1.1211 1.4102-1.0586 1.25-1.1523 0.60938-1.2812 1.0586-1.6367 0.03125-1.6016 0.19141-0.73438 0.80078-1.0273 1.6328-0.83203 1.3125v1.1562l-0.25391 1.2812-0.89844 0.89453-0.89844 1.3477-1.1211 1.375-0.92969 1.0586-0.16016 1.5391 0.44922 0.99219-0.57422 0.86328-0.89844 1.3477-0.19141 1.6641 0.03125 1.1875-0.54297 1.375-0.64062 1.0898-1.2188 0.83203-0.76953 0.70703 0.066406 1.4727-1.2852 1.0586-1.6016 1.1836-0.76562 0.89844-0.44922 1.3438-0.066406 1.0586-0.54297 1.1211-1.2188 0.92969-1.1523 0.83203-0.96094 0.67188-0.25781 1.1523 0.17969 1.7812 0.30469 1.7539 0.070313 1.5703 0.49219 1.2188-0.46875 1.8984-0.60938 1.2656 0.35156 1.8047-0.14062 1.7578-0.023438 1.4766 0.86719 1.8008 0.58594 0.84375 0.070313 1.1719-0.023438 1.3594 0.09375 1.5234 0.21094 1.8281-0.16406 1.9922v2.2461l-0.14062 1.125 0.046875 1.7812 0.44531 1.6406 0.070312 1.4297-0.58594 1.2422-0.82031 1.0078-0.82031 1.2188-0.75 1.707-0.98047 0.5625-1.5 0.070312-1.0078-0.09375-1.4531 0.53906-1.2656 0.86719-5.6914 2.9531-1.2109 0.64062-0.62891-1.0195-0.86328-1.0273-2.8594-2.6406-2.1562-2.2148-1.0781-1.7773-0.57812-0.95312-0.4375-1.4648-0.9375-1.2266-0.96484-0.87891-0.26562-1.2578-0.93359-0.9375h-1.7266l-1.3477-0.41016-1.3164-0.29297-1.1406-0.78906-1.0273-1.2305-1.375-1.582-0.81641-1.1094-0.9375-0.87891-1.3477-1.0234-1.9609-0.90625-1.668-0.26562-1.0508 0.67188-1.3672 0.78125-1.1289 0.89453-0.64844 1.0195-1.1289 1.7344-0.5625 0.90234-0.14062 1.6055-0.25 1.6523-0.57422 1.9844-0.73047 1.0195-0.59375 1.2617-1.1328 0.58594-1.5508 1.0508-0.79297 1.0312-1.3438 1.0117-1.1406 0.33594-1.75 0.61719-1.6797 0.84766-1.8672 1-1.043-0.023438-1.1523-0.48828-1.332-0.074219-1.2383 0.39062-1.7383-0.37109-1.3672-1.3672-0.97656-0.86719-1.0195-1.5625-1.3711-0.21875-2.4609 0.21875-2.5859-0.67969-3.1484 0.42969-1.3789 0.007812-1.4297 0.52344-0.69531 0.8125-0.69531 0.93359-1.1172 1.0742-1.543 0.37109-1.1602-0.042969-0.95703-0.78125-1.1289-1.2852-0.78125-1.0781-0.4375-1.9141 0.089844-1.2578 0.58203-1.0742 1.1172-0.64062 1.3438-0.96484 0.050782-1.1094-0.59766-1.332-0.14453-1.0039 0.23047-1.4414-0.0625-2.1094-0.62109-1.2344-0.62891-0.93359-0.51562-0.94141-1.25-0.62891-1.3867-0.48047-0.30859-0.98828-0.042968-1.1094-0.28516-2.8438 0.20703-1.8789-0.14453-1.668-0.60156-0.87109-2-1.2695-1.25-1.8047 1.293-0.91016 1.0938-0.42578 0.46875-0.91016 0.64062-0.96875-0.20312-1.125-0.64844-0.98438-0.53516-1.707 0.015625-1.2344-0.53516-0.90625-1.6406-0.43359-1.9219-1.0742-1.1836-1.3086-0.82031-1.5898-0.45312-0.99609-1.0547-1.2617-0.875-0.58594-0.86328-0.68359-0.89453-0.54297-1.4336-0.60938-1.4023-0.0625-1.0312-0.17578-0.91016-0.43359-1.9648-1.3477-1.8359-0.83594-1.4102-0.32422-1.6914-0.03125-1.3477 0.36719-1.1523-0.27734-1.0508-1.1133-2.0195-1.5742-2.0977-2.3594 0.375-4.0859 0.86328-2.7422 0.96484-2.043 0.48438-3.332v-2.4727l-0.375-2.5273 0.53516-1.6133 0.48438-1.668 0.53906-3.1719 0.73828-2.5469 0.98047-2.668 0.16406-1.5039-0.55469-1.6602-0.25391-1.0469 0.32422-1.0039 0.54688-1.1211 1.3008-0.95703 1.0195-0.37109 1.9805-1.8555 0.61719-0.96094 0.55859-1.668 0.55469-1.2695 0.71094-0.96094 1.0234-1.1445 0.33984-1.082 0.03125-2.3203 0.43359-2.5039 0.64844-1.5469 1.2383-1.5156 0.89453-0.71094 1.0859-1.207 1.3359-2.1445 0.62109-0.86719 0.29688-2.0508-0.19922-1.4375-0.41797-1.582-0.54688-1.3867 0.097656-1.3125 0.14844-1.1328 0.41016-1.3164 0.69141-0.84375 0.90625-0.55469 1.5-0.90625 0.67188-0.98828 0.85938-2.3359 1.1133-1.9922 0.85156-1.3398 0.40234-1.4531 0.91016-1.4531 0.83984-1.7734 0.10156-1.9102 0.085938-1.2227-0.085938-1.3516 0.29688-1.0156 1.6875-0.71484 1.6055-0.76172 0.63281-0.80078 0.97656-0.95703 0.94531-0.71094 0.70703-0.80859 0.64062-3.0078 0.23828-1.0469 0.50781-1.3828 0.80859-1.1484 1.0977-0.87109 1.2852-1.0117 1.082-1.0156 1.7734-1.9336 0.39453-1.3203-0.20312-2.5938-0.23047-2.4492 0.20312-1.8828 0.42578-1.6523 0.54297-1.168 0.79688-1.8242 1.3672-2.4219 1.082-2.25 0.99219-1.3438 1.7461-0.082031 1.9648-0.19922 1.0547-0.54297 1.0703-0.74219 1.0391 0.085937" fill="none" stroke="#fff" stroke-linecap="round" stroke-linejoin="round" stroke-miterlimit="10" stroke-width="2"/>
<path d="m237.19 218.73 0.83984 0.35547 1.457 0.66016 0.88281 1.1953 0.79688 0.61719 1.1484 0.35547 0.88281 1.0156 0.66406 1.5 1.3672 1.0156 1.7695-0.30859 2.25 1.0156 1.9883 1.1484 1.5547 0.87891 2.2852 0.13281 1.2422-0.52344 2.8086-0.58594 1.957-0.32812 1.7617-0.58594 1.1133-0.58984 0.91406-0.98047 0.73438-0.80469 2.0664 0.29297 1.1445 0.18359 1.5859-0.36719 1.293 0.36719 1.1797-0.21875 1.2891-0.22266 1.1094 0.29688 0.84766 0.625 1.6602 1.4766 1.4766 1.0352 1.8828 0.55078 1.2773 0.35547 1.4336-0.25781 1.6445-0.33203 1.1523-0.21094 1.3867-0.72656 2.2539-1.2461 1.2227-0.30469 0.91797 0.5625 1.0312 1.2695 1.2695 0.89062 0.070312 1.3633 0.30859 1.5508 0.84375 1.2461 0.16406 1.2695-0.28125 1.3633 0.046875 1.1289 1.2461 1.2461 1.0117 1.3867 0.64062 0.85938 0.20312 1.418 0.25391 2.2773 0.55469 1.2617 0.26953 0.98828-1.9375 0.22656-2.1758-0.10156-3.1914-0.40234-1.6172 0.55469-1.0625 1.4688-0.14062 2.4922 0.96484 4.8438 0.77344 1.0078 0.98828 1.2227 0.75 1.1992 1.9062 1.5742 0.9375 0.54297 1.9062 1.0312 0.96094 0.47266 1.6914 0.63281 1.7422 0.98828 1.3164 1.0078 1.1484 0.66016 1.1523 0.70312 1.0586 0.58984 1.8555 1.5273 1.293 2.0664 0.94141 0.89453 1.2227 0.16406 1.4336 0.1875 2.0898 0.75391 1.1953-0.16797 0.5-2.0859 0.26562-1.5273 1.0859-1.0273 1.9961-0.38281 1.1484-0.20703 0.87891 0.70703 0.35156 1.7031 1.1484 1.5859 1.0547 0.91016 0.73438 1.0859 1.1172 0.38281 1.2656 1.0859 0.85156 0.97266 0.14453 1.2891-0.70312 0.94141-0.26562 1.2344 0.41016 1.2344 0.29688 1.0859 0.23438 1.1758 0.58594 1.2031 0.79297 1.8203 0.67578 0.94141 0.91016 1.4688 0.67578 1.0586 0.17578 1.1445 1.4414 1.9375 1.2344 0.73438 1.6445 0.32422 2.2305-0.52734 1.707 0.11719 0.9375 0.46875 1.0586 0.96875 0.87891 1.4102 0.050781 1.7148-0.32422 1.4766-0.38672 1.1133 0.097656 1.0898-0.074219 1.043-0.53125 1.2852 0.070313 2.0117 0.21875 1.0195 0.50781 1.8203 0.80078 1.3086 1.1875 0.58203 0.80078 1.4297 0.53516 0.99219 0.82422 0.65625 1.0898 0.21875 1.043 0.023437 1.0664 0.50781 1.1406 0.29297 2.0508 0.64844 1.668 0.68359 1.8984 0.37891 1.5938 0.34375 0.98438 0.33984 1.1406 0.34375h1.6289l1.6328 0.035156 1.5547 0.15234 1.1133-0.17578 1.918-0.42969-0.62891 0.98828-0.47656 1.0195-1.0234 1.4883-0.50781 1.1719-0.96875 1.5195-0.32422 1.207-0.79297 1.5391-0.62891 1.1953-0.61719 1.0312-1.0117 0.40234-1.3242 0.30469-0.87891 0.89844-1.1172 0.81641-1.0977 0.43359-1.6719 1.1602-0.94531 0.66406-0.92188 0.48828-1.0742 0.5625-2.5312 0.035156-0.95312 0.60547-0.80469 0.76172-1.4297 2.457-48.652 3.5742-1.332-3.0508-1.6719-2.293-0.1875-1.6133-0.43359-2.6641-0.65234-3.832-0.37109-2.1953 0.074219-1.3242-0.5-1.1172-1.1484-1.8477 0.36719-1.0625-0.20703-1.4766-0.44531-1.4336-0.0625-2.0078-0.64062-1.0742-0.68359-1.1719-1.6523-0.85547-1.2422-0.47266-0.85547-0.59766-1.625-0.85547-1.793-0.55469-1.1992-0.085938-1.3242-0.8125-1.0039-0.078125-0.92969 0.82031-1.0938 0.93359-1.1367 1.1406-0.92188 0.76562-1.0273 0.69922-2.1445 0.52734-1.3125-0.046875-1.4023-0.15234-1.4727-0.24609-0.88281-0.58984-0.44141-1.1016 0.34375-1.1328 0.54297-1.875-1.2344-2.7617 0.097656-1.5781 0.74219-1.2812 0.88672-1.0352 0.53125-1.3438-0.91016-1.5898-1.3359-1.3125-0.48047-1.2891 1.7422-1.1367 1.9297-0.25781 1.1211 0.14062 1.1172-0.09375 0.89062-0.51172 1.0742-0.75-0.14062-1.1641-1.0273-0.9375-1.6367-1.3047-0.98047-1.4023-1.3984-2.0547-1.2617-1.0273-1.3086-1.1211-1.5859-1.0742-1.8906-0.60547-1.082-0.19141-1.2734-0.44141-2.1602-0.38281-2.1641-0.38281-1.7383-0.75-1.75-0.78906-1.0391 0.48828-0.25 1.8125 0.25781 1.1289 0.32812 1.1719-0.34766 1.5859-0.035156 1.7891-0.95312 1.5508-0.48828 0.96484-0.94531 1.0977-1.2695-1.2461-0.53125-0.96484-0.73828-1.1406-0.69531-0.85938-1.0742-0.82422-0.46875-0.93359-0.34766-1.1953-0.57031-1.0859-0.40625-1.2031-0.03125-1.0859-0.47656-1.0078-0.98828-1.2617-2.0312-1.3984-1.3359-0.48828-1.1914 0.10547-1.0234 0.6875-0.80078 0.73828-1.9453 2.5039-0.35547 1.1523-1.4258 0.70703-1.4844 1.1055-1.1406 0.27344-1.543 1.0508-0.64844 1.1094-0.92578 0.43359-1.0625 0.83594-0.87891 0.8125-1.3672 1.4844-0.64062 1.0781-1.0039-0.44531-0.49609-1.1016-0.3125-1.0117-0.51953-0.875-1.7266-2.2266-0.96875-1.5039-1.5742-2.6523-0.15625-1.168 0.71875-0.89844 0.71875-0.96484-0.24609-1.0586-0.91406-1.5898-0.82812-2.2305-0.14844-1.2969-0.57422-1.4883-0.44141-2.1836-0.29688-1.3711-0.1875-1.8867 0.77734-1.7383 1.0742-2.0352 1.2188-1.7734 1.3711-2.8867 0.77734-1.0391 0.8125-0.58984 1.2148-0.53516 1.1562-0.30859 1.0039-0.11328 1.7734-0.69531 0.42188-1.6602-0.57812-2.082-0.5-1.1953-1.3516-1.543-1.1172-1.0039-1.543-1.1562 0.38672-1.3477 1.4648-0.38672h1.9297l1.4648-0.42578 0.76953-0.69531 0.68359-3.2812 0.32031-1.5391 0.42578-1.3516 0.46094-1.5391 0.26953-1.3516 1.4297-0.5-0.1875-2.582 0.30859-1.8828 0.0625-1.0195 0.86328-1.3242 0.40234-0.95703 0.74219-1.3594 0.83203-1.2969-0.27734-0.98438 0.93359-0.79688 1.8555-0.22266z" fill="#ccc" fill-rule="evenodd"/>
<path d="m237.19 218.73 0.83984 0.35547 1.457 0.66016 0.88281 1.1953 0.79688 0.61719 1.1484 0.35547 0.88281 1.0156 0.66406 1.5 1.3672 1.0156 1.7695-0.30859 2.25 1.0156 1.9883 1.1484 1.5547 0.87891 2.2852 0.13281 1.2422-0.52344 2.8086-0.58594 1.957-0.32812 1.7617-0.58594 1.1133-0.58984 0.91406-0.98047 0.73438-0.80469 2.0664 0.29297 1.1445 0.18359 1.5859-0.36719 1.293 0.36719 1.1797-0.21875 1.2891-0.22266 1.1094 0.29688 0.84766 0.625 1.6602 1.4766 1.4766 1.0352 1.8828 0.55078 1.2773 0.35547 1.4336-0.25781 1.6445-0.33203 1.1523-0.21094 1.3867-0.72656 2.2539-1.2461 1.2227-0.30469 0.91797 0.5625 1.0312 1.2695 1.2695 0.89062 0.070312 1.3633 0.30859 1.5508 0.84375 1.2461 0.16406 1.2695-0.28125 1.3633 0.046875 1.1289 1.2461 1.2461 1.0117 1.3867 0.64062 0.85938 0.20312 1.418 0.25391 2.2773 0.55469 1.2617 0.26953 0.98828-1.9375 0.22656-2.1758-0.10156-3.1914-0.40234-1.6172 0.55469-1.0625 1.4688-0.14062 2.4922 0.96484 4.8438 0.77344 1.0078 0.98828 1.2227 0.75 1.1992 1.9062 1.5742 0.9375 0.54297 1.9062 1.0312 0.96094 0.47266 1.6914 0.63281 1.7422 0.98828 1.3164 1.0078 1.1484 0.66016 1.1523 0.70312 1.0586 0.58984 1.8555 1.5273 1.293 2.0664 0.94141 0.89453 1.2227 0.16406 1.4336 0.1875 2.0898 0.75391 1.1953-0.16797 0.5-2.0859 0.26562-1.5273 1.0859-1.0273 1.9961-0.38281 1.1484-0.20703 0.87891 0.70703 0.35156 1.7031 1.1484 1.5859 1.0547 0.91016 0.73438 1.0859 1.1172 0.38281 1.2656 1.0859 0.85156 0.97266 0.14453 1.2891-0.70312 0.94141-0.26562 1.2344 0.41016 1.2344 0.29688 1.0859 0.23438 1.1758 0.58594 1.2031 0.79297 1.8203 0.67578 0.94141 0.91016 1.4688 0.67578 1.0586 0.17578 1.1445 1.4414 1.9375 1.2344 0.73438 1.6445 0.32422 2.2305-0.52734 1.707 0.11719 0.9375 0.46875 1.0586 0.96875 0.87891 1.4102 0.050781 1.7148-0.32422 1.4766-0.38672 1.1133 0.097656 1.0898-0.074219 1.043-0.53125 1.2852 0.070313 2.0117 0.21875 1.0195 0.50781 1.8203 0.80078 1.3086 1.1875 0.58203 0.80078 1.4297 0.53516 0.99219 0.82422 0.65625 1.0898 0.21875 1.043 0.023437 1.0664 0.50781 1.1406 0.29297 2.0508 0.64844 1.668 0.68359 1.8984 0.37891 1.5938 0.34375 0.98438 0.33984 1.1406 0.34375h1.6289l1.6328 0.035156 1.5547 0.15234 1.1133-0.17578 1.918-0.42969-0.62891 0.98828-0.47656 1.0195-1.0234 1.4883-0.50781 1.1719-0.96875 1.5195-0.32422 1.207-0.79297 1.5391-0.62891 1.1953-0.61719 1.0312-1.0117 0.40234-1.3242 0.30469-0.87891 0.89844-1.1172 0.81641-1.0977 0.43359-1.6719 1.1602-0.94531 0.66406-0.92188 0.48828-1.0742 0.5625-2.5312 0.035156-0.95312 0.60547-0.80469 0.76172-1.4297 2.457-48.652 3.5742-1.332-3.0508-1.6719-2.293-0.1875-1.6133-0.43359-2.6641-0.65234-3.832-0.37109-2.1953 0.074219-1.3242-0.5-1.1172-1.1484-1.8477 0.36719-1.0625-0.20703-1.4766-0.44531-1.4336-0.0625-2.0078-0.64062-1.0742-0.68359-1.1719-1.6523-0.85547-1.2422-0.47266-0.85547-0.59766-1.625-0.85547-1.793-0.55469-1.1992-0.085938-1.3242-0.8125-1.0039-0.078125-0.92969 0.82031-1.0938 0.93359-1.1367 1.1406-0.92188 0.76562-1.0273 0.69922-2.1445 0.52734-1.3125-0.046875-1.4023-0.15234-1.4727-0.24609-0.88281-0.58984-0.44141-1.1016 0.34375-1.1328 0.54297-1.875-1.2344-2.7617 0.097656-1.5781 0.74219-1.2812 0.88672-1.0352 0.53125-1.3438-0.91016-1.5898-1.3359-1.3125-0.48047-1.2891 1.7422-1.1367 1.9297-0.25781 1.1211 0.14062 1.1172-0.09375 0.89062-0.51172 1.0742-0.75-0.14062-1.1641-1.0273-0.9375-1.6367-1.3047-0.98047-1.4023-1.3984-2.0547-1.2617-1.0273-1.3086-1.1211-1.5859-1.0742-1.8906-0.60547-1.082-0.19141-1.2734-0.44141-2.1602-0.38281-2.1641-0.38281-1.7383-0.75-1.75-0.78906-1.0391 0.48828-0.25 1.8125 0.25781 1.1289 0.32812 1.1719-0.34766 1.5859-0.035156 1.7891-0.95312 1.5508-0.48828 0.96484-0.94531 1.0977-1.2695-1.2461-0.53125-0.96484-0.73828-1.1406-0.69531-0.85938-1.0742-0.82422-0.46875-0.93359-0.34766-1.1953-0.57031-1.0859-0.40625-1.2031-0.03125-1.0859-0.47656-1.0078-0.98828-1.2617-2.0312-1.3984-1.3359-0.48828-1.1914 0.10547-1.0234 0.6875-0.80078 0.73828-1.9453 2.5039-0.35547 1.1523-1.4258 0.70703-1.4844 1.1055-1.1406 0.27344-1.543 1.0508-0.64844 1.1094-0.92578 0.43359-1.0625 0.83594-0.87891 0.8125-1.3672 1.4844-0.64062 1.0781-1.0039-0.44531-0.49609-1.1016-0.3125-1.0117-0.51953-0.875-1.7266-2.2266-0.96875-1.5039-1.5742-2.6523-0.15625-1.168 0.71875-0.89844 0.71875-0.96484-0.24609-1.0586-0.91406-1.5898-0.82812-2.2305-0.14844-1.2969-0.57422-1.4883-0.44141-2.1836-0.29688-1.3711-0.1875-1.8867 0.77734-1.7383 1.0742-2.0352 1.2188-1.7734 1.3711-2.8867 0.77734-1.0391 0.8125-0.58984 1.2148-0.53516 1.1562-0.30859 1.0039-0.11328 1.7734-0.69531 0.42188-1.6602-0.57812-2.082-0.5-1.1953-1.3516-1.543-1.1172-1.0039-1.543-1.1562 0.38672-1.3477 1.4648-0.38672h1.9297l1.4648-0.42578 0.76953-0.69531 0.68359-3.2812 0.32031-1.5391 0.42578-1.3516 0.46094-1.5391 0.26953-1.3516 1.4297-0.5-0.1875-2.582 0.30859-1.8828 0.0625-1.0195 0.86328-1.3242 0.40234-0.95703 0.74219-1.3594 0.83203-1.2969-0.27734-0.98438 0.93359-0.79688 1.8555-0.22266 1.4102 0.17578" fill="none" stroke="#fff" stroke-linecap="round" stroke-linejoin="round" stroke-miterlimit="10" stroke-width="2"/>
<path d="m55.379 1.3281 1.5664 0.88281 1.3125 0.85156 1.1094 0.71875 3.9492 1.6211 1.8984 0.58594 2.4102 1.0938 2.4062 1.0234 1.8242 1.4609 2.543 1.8203 0.94531 0.98438 1.2188 1.0625 2.793 0.86719 1.7305 0.19531 1.6133 0.55078 1.7344 0.47266 1.8086 0.35156 1.8477 0.35547h1.9297l3.418-0.42188 0.56641 1.9688 0.69531 1.2461 0.89844 1.9414 0.79688 1.5938 0.44531 1.0938 0.10156 1.1953-0.10156 1.3906-0.44531 1.4648-0.3125 1.0703-0.44531 1.043-0.49219 1.5391 0.30078 1.832 1.168 1.0664 1.332 1.5977 1.332 1.1367 2.5078 2.0781 0.9375 0.86719 1.1016 1.5352 0.60156 0.96875 0.76562 1.0352 0.73438 0.70312 1.0703 0.43359 1.2344-0.33594 1.1367-0.5 1.8008-0.33203 1.1016-0.40234 0.53516-1.3672 0.60156-0.90234 0.93359-0.36719 1.5703-0.13281 1.2344 0.66797 1.4375 1.7344 0.73438 0.90234 1.0664 0.86719 1.3359 1.2695 1.6367 1 1.5352 1.1367 1.4023 0.60156 1.3359 0.53516 1.1016 0.33203 2.0039 0.70312 1.1367 1.0352 0.13281 1.9336-0.19922 1.8359 0.96875 1.2031 0.93359 0.70312 1.5352 1.5 0.70312 0.80078 0.53125 0.87109 1.5664 2.3789 1.2852 2.6719 1.2305 1.5391 1.1328 1.2852 0.66406 1.4375-0.25391 2.1562-0.56641 1.6953-0.71875 1.7969 0.25781 2 0.71875 1.8516 0.76953 1.0273 0.76953 1.1289 0.66797 1.6953 0.050781 2.1016 0.050782 2.6211 0.10547 1.7969-0.042968 1.2891 0.64062 1.4102-0.22266 1.793 0.19141 2.0195 0.03125 2.1445-0.38281 1.5391 0.097656 1.375 0.63672 1.0586 0.57812 0.89844 1.25 1.2812 0.67188 1.0234 0.76953 0.96094 0.73828 0.83203 1.1211 1.4102-1.0586 1.25-1.1523 0.60938-1.2812 1.0586-1.6367 0.03125-1.6016 0.19141-0.73438 0.80078-1.0273 1.6328-0.83203 1.3125v1.1562l-0.25391 1.2812-0.89844 0.89453-0.89844 1.3477-1.1211 1.375-0.92969 1.0586-0.16016 1.5391 0.44922 0.99219-0.57422 0.86328-0.89844 1.3477-0.19141 1.6641 0.03125 1.1875-0.54297 1.375-0.64062 1.0898-1.2188 0.83203-0.76953 0.70703 0.066406 1.4727-1.2852 1.0586-1.6016 1.1836-0.76562 0.89844-0.44922 1.3438-0.066406 1.0586-0.54297 1.1211-1.2188 0.92969-1.1523 0.83203-0.96094 0.67188-0.25781 1.1523 0.17969 1.7812 0.30469 1.7539 0.070313 1.5703 0.49219 1.2188-0.46875 1.8984-0.60938 1.2656 0.35156 1.8047-0.14062 1.7578-0.023438 1.4766 0.86719 1.8008 0.58594 0.84375 0.070313 1.1719-0.023438 1.3594 0.09375 1.5234 0.21094 1.8281-0.16406 1.9922v2.2461l-0.14062 1.125 0.046875 1.7812 0.44531 1.6406 0.070312 1.4297-0.58594 1.2422-0.82031 1.0078-0.82031 1.2188-0.75 1.707-0.98047 0.5625-1.5 0.070312-1.0078-0.09375-1.4531 0.53906-1.2656 0.86719-5.6914 2.9531-1.2109 0.64062-0.62891-1.0195-0.86328-1.0273-2.8594-2.6406-2.1562-2.2148-1.0781-1.7773-0.57812-0.95312-0.4375-1.4648-0.9375-1.2266-0.96484-0.87891-0.26562-1.2578-0.93359-0.9375h-1.7266l-1.3477-0.41016-1.3164-0.29297-1.1406-0.78906-1.0273-1.2305-1.375-1.582-0.81641-1.1094-0.9375-0.87891-1.3477-1.0234-1.9609-0.90625-1.668-0.26562-1.0508 0.67188-1.3672 0.78125-1.1289 0.89453-0.64844 1.0195-1.1289 1.7344-0.5625 0.90234-0.14062 1.6055-0.25 1.6523-0.57422 1.9844-0.73047 1.0195-0.59375 1.2617-1.1328 0.58594-1.5508 1.0508-0.79297 1.0312-1.3438 1.0117-1.1406 0.33594-1.75 0.61719-1.6797 0.84766-1.8672 1-1.043-0.023438-1.1523-0.48828-1.332-0.074219-1.2383 0.39062-1.7383-0.37109-1.3672-1.3672-0.97656-0.86719-1.0195-1.5625-1.3711-0.21875-2.4609 0.21875-2.5859-0.67969-3.1484 0.42969-1.3789 0.007812-1.4297 0.52344-0.69531 0.8125-0.69531 0.93359-1.1172 1.0742-1.543 0.37109-1.1602-0.042969-0.95703-0.78125-1.1289-1.2852-0.78125-1.0781-0.4375-1.9141 0.089844-1.2578 0.58203-1.0742 1.1172-0.64062 1.3438-0.96484 0.050782-1.1094-0.59766-1.332-0.14453-1.0039 0.23047-1.4414-0.0625-2.1094-0.62109-1.2344-0.62891-0.93359-0.51562-0.94141-1.25-0.62891-1.3867-0.48047-0.30859-0.98828-0.042968-1.1094-0.28516-2.8438 0.20703-1.8789-0.14453-1.668-0.60156-0.87109-2-1.2695-1.25-1.8047 1.293-0.91016 1.0938-0.42578 0.46875-0.91016 0.64062-0.96875-0.20312-1.125-0.64844-0.98438-0.53516-1.707 0.015625-1.2344-0.53516-0.90625-1.6406-0.43359-1.9219-1.0742-1.1836-1.3086-0.82031-1.5898-0.45312-0.99609-1.0547-1.2617-0.875-0.58594-0.86328-0.68359-0.89453-0.54297-1.4336-0.60938-1.4023-0.0625-1.0312-0.17578-0.91016-0.43359-1.9648-1.3477-1.8359-0.83594-1.4102-0.32422-1.6914-0.03125-1.3477 0.36719-1.1523-0.27734-1.0508-1.1133-2.0195-1.5742-2.0977-2.3594 0.375-4.0859 0.86328-2.7422 0.96484-2.043 0.48438-3.332v-2.4727l-0.375-2.5273 0.53516-1.6133 0.48438-1.668 0.53906-3.1719 0.73828-2.5469 0.98047-2.668 0.16406-1.5039-0.55469-1.6602-0.25391-1.0469 0.32422-1.0039 0.54688-1.1211 1.3008-0.95703 1.0195-0.37109 1.9805-1.8555 0.61719-0.96094 0.55859-1.668 0.55469-1.2695 0.71094-0.96094 1.0234-1.1445 0.33984-1.082 0.03125-2.3203 0.43359-2.5039 0.64844-1.5469 1.2383-1.5156 0.89453-0.71094 1.0859-1.207 1.3359-2.1445 0.62109-0.86719 0.29688-2.0508-0.19922-1.4375-0.41797-1.582-0.54688-1.3867 0.097656-1.3125 0.14844-1.1328 0.41016-1.3164 0.69141-0.84375 0.90625-0.55469 1.5-0.90625 0.67188-0.98828 0.85938-2.3359 1.1133-1.9922 0.85156-1.3398 0.40234-1.4531 0.91016-1.4531 0.83984-1.7734 0.10156-1.9102 0.085938-1.2227-0.085938-1.3516 0.29688-1.0156 1.6875-0.71484 1.6055-0.76172 0.63281-0.80078 0.97656-0.95703 0.94531-0.71094 0.70703-0.80859 0.64062-3.0078 0.23828-1.0469 0.50781-1.3828 0.80859-1.1484 1.0977-0.87109 1.2852-1.0117 1.082-1.0156 1.7734-1.9336 0.39453-1.3203-0.20312-2.5938-0.23047-2.4492 0.20312-1.8828 0.42578-1.6523 0.54297-1.168 0.79688-1.8242 1.3672-2.4219 1.082-2.25 0.99219-1.3438 1.7461-0.082031 1.9648-0.19922 1.0547-0.54297 1.0703-0.74219z" fill="#0a5394" fill-rule="evenodd"/>
<path d="m55.379 1.3281 1.5664 0.88281 1.3125 0.85156 1.1094 0.71875 3.9492 1.6211 1.8984 0.58594 2.4102 1.0938 2.4062 1.0234 1.8242 1.4609 2.543 1.8203 0.94531 0.98438 1.2188 1.0625 2.793 0.86719 1.7305 0.19531 1.6133 0.55078 1.7344 0.47266 1.8086 0.35156 1.8477 0.35547h1.9297l3.418-0.42188 0.56641 1.9688 0.69531 1.2461 0.89844 1.9414 0.79688 1.5938 0.44531 1.0938 0.10156 1.1953-0.10156 1.3906-0.44531 1.4648-0.3125 1.0703-0.44531 1.043-0.49219 1.5391 0.30078 1.832 1.168 1.0664 1.332 1.5977 1.332 1.1367 2.5078 2.0781 0.9375 0.86719 1.1016 1.5352 0.60156 0.96875 0.76562 1.0352 0.73438 0.70312 1.0703 0.43359 1.2344-0.33594 1.1367-0.5 1.8008-0.33203 1.1016-0.40234 0.53516-1.3672 0.60156-0.90234 0.93359-0.36719 1.5703-0.13281 1.2344 0.66797 1.4375 1.7344 0.73438 0.90234 1.0664 0.86719 1.3359 1.2695 1.6367 1 1.5352 1.1367 1.4023 0.60156 1.3359 0.53516 1.1016 0.33203 2.0039 0.70312 1.1367 1.0352 0.13281 1.9336-0.19922 1.8359 0.96875 1.2031 0.93359 0.70312 1.5352 1.5 0.70312 0.80078 0.53125 0.87109 1.5664 2.3789 1.2852 2.6719 1.2305 1.5391 1.1328 1.2852 0.66406 1.4375-0.25391 2.1562-0.56641 1.6953-0.71875 1.7969 0.25781 2 0.71875 1.8516 0.76953 1.0273 0.76953 1.1289 0.66797 1.6953 0.050781 2.1016 0.050782 2.6211 0.10547 1.7969-0.042968 1.2891 0.64062 1.4102-0.22266 1.793 0.19141 2.0195 0.03125 2.1445-0.38281 1.5391 0.097656 1.375 0.63672 1.0586 0.57812 0.89844 1.25 1.2812 0.67188 1.0234 0.76953 0.96094 0.73828 0.83203 1.1211 1.4102-1.0586 1.25-1.1523 0.60938-1.2812 1.0586-1.6367 0.03125-1.6016 0.19141-0.73438 0.80078-1.0273 1.6328-0.83203 1.3125v1.1562l-0.25391 1.2812-0.89844 0.89453-0.89844 1.3477-1.1211 1.375-0.92969 1.0586-0.16016 1.5391 0.44922 0.99219-0.57422 0.86328-0.89844 1.3477-0.19141 1.6641 0.03125 1.1875-0.54297 1.375-0.64062 1.0898-1.2188 0.83203-0.76953 0.70703 0.066406 1.4727-1.2852 1.0586-1.6016 1.1836-0.76562 0.89844-0.44922 1.3438-0.066406 1.0586-0.54297 1.1211-1.2188 0.92969-1.1523 0.83203-0.96094 0.67188-0.25781 1.1523 0.17969 1.7812 0.30469 1.7539 0.070313 1.5703 0.49219 1.2188-0.46875 1.8984-0.60938 1.2656 0.35156 1.8047-0.14062 1.7578-0.023438 1.4766 0.86719 1.8008 0.58594 0.84375 0.070313 1.1719-0.023438 1.3594 0.09375 1.5234 0.21094 1.8281-0.16406 1.9922v2.2461l-0.14062 1.125 0.046875 1.7812 0.44531 1.6406 0.070312 1.4297-0.58594 1.2422-0.82031 1.0078-0.82031 1.2188-0.75 1.707-0.98047 0.5625-1.5 0.070312-1.0078-0.09375-1.4531 0.53906-1.2656 0.86719-5.6914 2.9531-1.2109 0.64062-0.62891-1.0195-0.86328-1.0273-2.8594-2.6406-2.1562-2.2148-1.0781-1.7773-0.57812-0.95312-0.4375-1.4648-0.9375-1.2266-0.96484-0.87891-0.26562-1.2578-0.93359-0.9375h-1.7266l-1.3477-0.41016-1.3164-0.29297-1.1406-0.78906-1.0273-1.2305-1.375-1.582-0.81641-1.1094-0.9375-0.87891-1.3477-1.0234-1.9609-0.90625-1.668-0.26562-1.0508 0.67188-1.3672 0.78125-1.1289 0.89453-0.64844 1.0195-1.1289 1.7344-0.5625 0.90234-0.14062 1.6055-0.25 1.6523-0.57422 1.9844-0.73047 1.0195-0.59375 1.2617-1.1328 0.58594-1.5508 1.0508-0.79297 1.0312-1.3438 1.0117-1.1406 0.33594-1.75 0.61719-1.6797 0.84766-1.8672 1-1.043-0.023438-1.1523-0.48828-1.332-0.074219-1.2383 0.39062-1.7383-0.37109-1.3672-1.3672-0.97656-0.86719-1.0195-1.5625-1.3711-0.21875-2.4609 0.21875-2.5859-0.67969-3.1484 0.42969-1.3789 0.007812-1.4297 0.52344-0.69531 0.8125-0.69531 0.93359-1.1172 1.0742-1.543 0.37109-1.1602-0.042969-0.95703-0.78125-1.1289-1.2852-0.78125-1.0781-0.4375-1.9141 0.089844-1.2578 0.58203-1.0742 1.1172-0.64062 1.3438-0.96484 0.050782-1.1094-0.59766-1.332-0.14453-1.0039 0.23047-1.4414-0.0625-2.1094-0.62109-1.2344-0.62891-0.93359-0.51562-0.94141-1.25-0.62891-1.3867-0.48047-0.30859-0.98828-0.042968-1.1094-0.28516-2.8438 0.20703-1.8789-0.14453-1.668-0.60156-0.87109-2-1.2695-1.25-1.8047 1.293-0.91016 1.0938-0.42578 0.46875-0.91016 0.64062-0.96875-0.20312-1.125-0.64844-0.98438-0.53516-1.707 0.015625-1.2344-0.53516-0.90625-1.6406-0.43359-1.9219-1.0742-1.1836-1.3086-0.82031-1.5898-0.45312-0.99609-1.0547-1.2617-0.875-0.58594-0.86328-0.68359-0.89453-0.54297-1.4336-0.60938-1.4023-0.0625-1.0312-0.17578-0.91016-0.43359-1.9648-1.3477-1.8359-0.83594-1.4102-0.32422-1.6914-0.03125-1.3477 0.36719-1.1523-0.27734-1.0508-1.1133-2.0195-1.5742-2.0977-2.3594 0.375-4.0859 0.86328-2.7422 0.96484-2.043 0.48438-3.332v-2.4727l-0.375-2.5273 0.53516-1.6133 0.48438-1.668 0.53906-3.1719 0.73828-2.5469 0.98047-2.668 0.16406-1.5039-0.55469-1.6602-0.25391-1.0469 0.32422-1.0039 0.54688-1.1211 1.3008-0.95703 1.0195-0.37109 1.9805-1.8555 0.61719-0.96094 0.55859-1.668 0.55469-1.2695 0.71094-0.96094 1.0234-1.1445 0.33984-1.082 0.03125-2.3203 0.43359-2.5039 0.64844-1.5469 1.2383-1.5156 0.89453-0.71094 1.0859-1.207 1.3359-2.1445 0.62109-0.86719 0.29688-2.0508-0.19922-1.4375-0.41797-1.582-0.54688-1.3867 0.097656-1.3125 0.14844-1.1328 0.41016-1.3164 0.69141-0.84375 0.90625-0.55469 1.5-0.90625 0.67188-0.98828 0.85938-2.3359 1.1133-1.9922 0.85156-1.3398 0.40234-1.4531 0.91016-1.4531 0.83984-1.7734 0.10156-1.9102 0.085938-1.2227-0.085938-1.3516 0.29688-1.0156 1.6875-0.71484 1.6055-0.76172 0.63281-0.80078 0.97656-0.95703 0.94531-0.71094 0.70703-0.80859 0.64062-3.0078 0.23828-1.0469 0.50781-1.3828 0.80859-1.1484 1.0977-0.87109 1.2852-1.0117 1.082-1.0156 1.7734-1.9336 0.39453-1.3203-0.20312-2.5938-0.23047-2.4492 0.20312-1.8828 0.42578-1.6523 0.54297-1.168 0.79688-1.8242 1.3672-2.4219 1.082-2.25 0.99219-1.3438 1.7461-0.082031 1.9648-0.19922 1.0547-0.54297 1.0703-0.74219 1.0391 0.085937" fill="none" stroke="#fff" stroke-linecap="round" stroke-linejoin="round" stroke-miterlimit="10"/>
<path d="m63.34 90.734c0 3.5898-2.9102 6.5-6.5 6.5s-6.5-2.9102-6.5-6.5 2.9102-6.5 6.5-6.5 6.5 2.9102 6.5 6.5" fill="#28c028" fill-rule="evenodd" stroke="#000" stroke-linecap="round" stroke-linejoin="round" stroke-miterlimit="10"/>
<path d="m64.527 113.77v-16.469h7c1.7578 0 3.0352 0.15234 3.8281 0.45312 0.80078 0.29297 1.4414 0.82031 1.9219 1.5781 0.47656 0.75 0.71875 1.6172 0.71875 2.5938 0 1.2305-0.36719 2.25-1.0938 3.0625-0.73047 0.80469-1.8203 1.3086-3.2656 1.5156 0.71875 0.41797 1.3125 0.88281 1.7812 1.3906 0.46875 0.5 1.0977 1.3867 1.8906 2.6562l2.0156 3.2188h-3.9688l-2.4062-3.5781c-0.85547-1.2812-1.4375-2.0859-1.75-2.4219-0.3125-0.33203-0.64844-0.5625-1-0.6875-0.35547-0.125-0.91406-0.1875-1.6719-0.1875h-0.67188v6.875zm3.3281-9.5h2.4531c1.5938 0 2.5859-0.066406 2.9844-0.20312 0.39453-0.13281 0.70312-0.36328 0.92188-0.6875 0.22656-0.33203 0.34375-0.75 0.34375-1.25 0-0.55078-0.14844-0.99219-0.4375-1.3281-0.29297-0.34375-0.71094-0.5625-1.25-0.65625-0.27344-0.03125-1.0781-0.046875-2.4219-0.046875h-2.5938zm12.594 1.375c0-1.6758 0.25-3.0859 0.75-4.2344 0.375-0.83203 0.88281-1.582 1.5312-2.25 0.64453-0.66406 1.3516-1.1602 2.125-1.4844 1.0312-0.4375 2.2188-0.65625 3.5625-0.65625 2.4141 0 4.3516 0.75781 5.8125 2.2656 1.457 1.5 2.1875 3.5938 2.1875 6.2812 0 2.6562-0.72656 4.7344-2.1719 6.2344-1.4375 1.5-3.3711 2.25-5.7969 2.25-2.4492 0-4.3984-0.74219-5.8438-2.2344-1.4375-1.5-2.1562-3.5547-2.1562-6.1719zm3.4219-0.125c0 1.8672 0.42969 3.2812 1.2969 4.25 0.86328 0.96094 1.957 1.4375 3.2812 1.4375 1.3203 0 2.4062-0.47266 3.25-1.4219 0.85156-0.95703 1.2812-2.3906 1.2812-4.2969 0-1.8945-0.41797-3.3047-1.25-4.2344-0.82422-0.92578-1.918-1.3906-3.2812-1.3906-1.375 0-2.4844 0.47656-3.3281 1.4219-0.83594 0.9375-1.25 2.3516-1.25 4.2344zm15.172 8.25v-16.469h3.2344l6.75 11v-11h3.0781v16.469h-3.3281l-6.6406-10.734v10.734zm16.562-16.469h6.0781c1.375 0 2.4219 0.10547 3.1406 0.3125 0.95703 0.29297 1.7812 0.80469 2.4688 1.5312 0.69531 0.71875 1.2227 1.6055 1.5781 2.6562 0.36328 1.0547 0.54688 2.3516 0.54688 3.8906 0 1.3555-0.17188 2.5234-0.51562 3.5-0.40625 1.1992-0.99219 2.1719-1.75 2.9219-0.58594 0.5625-1.3672 1-2.3438 1.3125-0.73047 0.23047-1.7109 0.34375-2.9375 0.34375h-6.2656zm3.3281 2.7969v10.891h2.4844c0.92578 0 1.5977-0.050781 2.0156-0.15625 0.53125-0.13281 0.97266-0.35938 1.3281-0.67188 0.36328-0.32031 0.65625-0.85156 0.875-1.5938 0.22656-0.73828 0.34375-1.7422 0.34375-3.0156 0-1.2695-0.11719-2.2422-0.34375-2.9219-0.21875-0.6875-0.53125-1.2188-0.9375-1.5938-0.40625-0.38281-0.92188-0.64453-1.5469-0.78125-0.46094-0.10156-1.3672-0.15625-2.7188-0.15625zm12.625 5.5469c0-1.6758 0.25-3.0859 0.75-4.2344 0.375-0.83203 0.88281-1.582 1.5312-2.25 0.64453-0.66406 1.3516-1.1602 2.125-1.4844 1.0312-0.4375 2.2188-0.65625 3.5625-0.65625 2.4141 0 4.3516 0.75781 5.8125 2.2656 1.457 1.5 2.1875 3.5938 2.1875 6.2812 0 2.6562-0.72656 4.7344-2.1719 6.2344-1.4375 1.5-3.3711 2.25-5.7969 2.25-2.4492 0-4.3984-0.74219-5.8438-2.2344-1.4375-1.5-2.1562-3.5547-2.1562-6.1719zm3.4219-0.125c0 1.8672 0.42969 3.2812 1.2969 4.25 0.86328 0.96094 1.957 1.4375 3.2812 1.4375 1.3203 0 2.4062-0.47266 3.25-1.4219 0.85156-0.95703 1.2812-2.3906 1.2812-4.2969 0-1.8945-0.41797-3.3047-1.25-4.2344-0.82422-0.92578-1.918-1.3906-3.2812-1.3906-1.375 0-2.4844 0.47656-3.3281 1.4219-0.83594 0.9375-1.25 2.3516-1.25 4.2344zm25.672 2.2031 3.2344 1.0156c-0.5 1.793-1.3281 3.125-2.4844 4-1.1484 0.875-2.6016 1.3125-4.3594 1.3125-2.1875 0-3.9844-0.74219-5.3906-2.2344-1.4062-1.5-2.1094-3.5469-2.1094-6.1406 0-2.7383 0.70312-4.8633 2.1094-6.375 1.4141-1.5195 3.2812-2.2812 5.5938-2.2812 2.0078 0 3.6445 0.60156 4.9062 1.7969 0.75 0.69922 1.3125 1.7109 1.6875 3.0312l-3.2969 0.78125c-0.19922-0.85156-0.60547-1.5234-1.2188-2.0156-0.61719-0.5-1.3672-0.75-2.25-0.75-1.2188 0-2.2109 0.4375-2.9688 1.3125-0.76172 0.875-1.1406 2.2969-1.1406 4.2656 0 2.0742 0.375 3.5547 1.125 4.4375 0.75 0.88672 1.7227 1.3281 2.9219 1.3281 0.88281 0 1.6445-0.28125 2.2812-0.84375 0.63281-0.5625 1.0859-1.4414 1.3594-2.6406zm20.922 6.0469h-3.6094l-1.4375-3.7344h-6.5781l-1.3594 3.7344h-3.5312l6.4062-16.469h3.5156zm-6.1094-6.5156-2.2812-6.1094-2.2188 6.1094zm7.9062 6.5156v-16.469h3.2344l6.75 11v-11h3.0781v16.469h-3.3281l-6.6406-10.734v10.734zm0 0" fill="none" stroke="#fff" stroke-linecap="round" stroke-linejoin="round" stroke-miterlimit="10" stroke-width="2"/>
<path d="m64.527 113.77v-16.469h7c1.7578 0 3.0352 0.15234 3.8281 0.45312 0.80078 0.29297 1.4414 0.82031 1.9219 1.5781 0.47656 0.75 0.71875 1.6172 0.71875 2.5938 0 1.2305-0.36719 2.25-1.0938 3.0625-0.73047 0.80469-1.8203 1.3086-3.2656 1.5156 0.71875 0.41797 1.3125 0.88281 1.7812 1.3906 0.46875 0.5 1.0977 1.3867 1.8906 2.6562l2.0156 3.2188h-3.9688l-2.4062-3.5781c-0.85547-1.2812-1.4375-2.0859-1.75-2.4219-0.3125-0.33203-0.64844-0.5625-1-0.6875-0.35547-0.125-0.91406-0.1875-1.6719-0.1875h-0.67188v6.875zm3.3281-9.5h2.4531c1.5938 0 2.5859-0.066406 2.9844-0.20312 0.39453-0.13281 0.70312-0.36328 0.92188-0.6875 0.22656-0.33203 0.34375-0.75 0.34375-1.25 0-0.55078-0.14844-0.99219-0.4375-1.3281-0.29297-0.34375-0.71094-0.5625-1.25-0.65625-0.27344-0.03125-1.0781-0.046875-2.4219-0.046875h-2.5938zm12.594 1.375c0-1.6758 0.25-3.0859 0.75-4.2344 0.375-0.83203 0.88281-1.582 1.5312-2.25 0.64453-0.66406 1.3516-1.1602 2.125-1.4844 1.0312-0.4375 2.2188-0.65625 3.5625-0.65625 2.4141 0 4.3516 0.75781 5.8125 2.2656 1.457 1.5 2.1875 3.5938 2.1875 6.2812 0 2.6562-0.72656 4.7344-2.1719 6.2344-1.4375 1.5-3.3711 2.25-5.7969 2.25-2.4492 0-4.3984-0.74219-5.8438-2.2344-1.4375-1.5-2.1562-3.5547-2.1562-6.1719zm3.4219-0.125c0 1.8672 0.42969 3.2812 1.2969 4.25 0.86328 0.96094 1.957 1.4375 3.2812 1.4375 1.3203 0 2.4062-0.47266 3.25-1.4219 0.85156-0.95703 1.2812-2.3906 1.2812-4.2969 0-1.8945-0.41797-3.3047-1.25-4.2344-0.82422-0.92578-1.918-1.3906-3.2812-1.3906-1.375 0-2.4844 0.47656-3.3281 1.4219-0.83594 0.9375-1.25 2.3516-1.25 4.2344zm15.172 8.25v-16.469h3.2344l6.75 11v-11h3.0781v16.469h-3.3281l-6.6406-10.734v10.734zm16.562-16.469h6.0781c1.375 0 2.4219 0.10547 3.1406 0.3125 0.95703 0.29297 1.7812 0.80469 2.4688 1.5312 0.69531 0.71875 1.2227 1.6055 1.5781 2.6562 0.36328 1.0547 0.54688 2.3516 0.54688 3.8906 0 1.3555-0.17188 2.5234-0.51562 3.5-0.40625 1.1992-0.99219 2.1719-1.75 2.9219-0.58594 0.5625-1.3672 1-2.3438 1.3125-0.73047 0.23047-1.7109 0.34375-2.9375 0.34375h-6.2656zm3.3281 2.7969v10.891h2.4844c0.92578 0 1.5977-0.050781 2.0156-0.15625 0.53125-0.13281 0.97266-0.35938 1.3281-0.67188 0.36328-0.32031 0.65625-0.85156 0.875-1.5938 0.22656-0.73828 0.34375-1.7422 0.34375-3.0156 0-1.2695-0.11719-2.2422-0.34375-2.9219-0.21875-0.6875-0.53125-1.2188-0.9375-1.5938-0.40625-0.38281-0.92188-0.64453-1.5469-0.78125-0.46094-0.10156-1.3672-0.15625-2.7188-0.15625zm12.625 5.5469c0-1.6758 0.25-3.0859 0.75-4.2344 0.375-0.83203 0.88281-1.582 1.5312-2.25 0.64453-0.66406 1.3516-1.1602 2.125-1.4844 1.0312-0.4375 2.2188-0.65625 3.5625-0.65625 2.4141 0 4.3516 0.75781 5.8125 2.2656 1.457 1.5 2.1875 3.5938 2.1875 6.2812 0 2.6562-0.72656 4.7344-2.1719 6.2344-1.4375 1.5-3.3711 2.25-5.7969 2.25-2.4492 0-4.3984-0.74219-5.8438-2.2344-1.4375-1.5-2.1562-3.5547-2.1562-6.1719zm3.4219-0.125c0 1.8672 0.42969 3.2812 1.2969 4.25 0.86328 0.96094 1.957 1.4375 3.2812 1.4375 1.3203 0 2.4062-0.47266 3.25-1.4219 0.85156-0.95703 1.2812-2.3906 1.2812-4.2969 0-1.8945-0.41797-3.3047-1.25-4.2344-0.82422-0.92578-1.918-1.3906-3.2812-1.3906-1.375 0-2.4844 0.47656-3.3281 1.4219-0.83594 0.9375-1.25 2.3516-1.25 4.2344zm25.672 2.2031 3.2344 1.0156c-0.5 1.793-1.3281 3.125-2.4844 4-1.1484 0.875-2.6016 1.3125-4.3594 1.3125-2.1875 0-3.9844-0.74219-5.3906-2.2344-1.4062-1.5-2.1094-3.5469-2.1094-6.1406 0-2.7383 0.70312-4.8633 2.1094-6.375 1.4141-1.5195 3.2812-2.2812 5.5938-2.2812 2.0078 0 3.6445 0.60156 4.9062 1.7969 0.75 0.69922 1.3125 1.7109 1.6875 3.0312l-3.2969 0.78125c-0.19922-0.85156-0.60547-1.5234-1.2188-2.0156-0.61719-0.5-1.3672-0.75-2.25-0.75-1.2188 0-2.2109 0.4375-2.9688 1.3125-0.76172 0.875-1.1406 2.2969-1.1406 4.2656 0 2.0742 0.375 3.5547 1.125 4.4375 0.75 0.88672 1.7227 1.3281 2.9219 1.3281 0.88281 0 1.6445-0.28125 2.2812-0.84375 0.63281-0.5625 1.0859-1.4414 1.3594-2.6406zm20.922 6.0469h-3.6094l-1.4375-3.7344h-6.5781l-1.3594 3.7344h-3.5312l6.4062-16.469h3.5156zm-6.1094-6.5156-2.2812-6.1094-2.2188 6.1094zm7.9062 6.5156v-16.469h3.2344l6.75 11v-11h3.0781v16.469h-3.3281l-6.6406-10.734v10.734z" fill-rule="evenodd"/>
</g>
</svg>
