<?xml version="1.0" encoding="UTF-8"?>
<svg width="500pt" height="330pt" version="1.1" viewBox="0 0 500 330" xmlns="http://www.w3.org/2000/svg">
<g id="a">
<rect width="500" height="330" fill="none"/>
<path d="m414.5 93.652 1.1914 0.37891 1.5117 0.80859 1.3555 0.85547 1.1016 0.83594 1.1836 0.59375 1.1094 0.44141 1.0742 0.48047 1.3711 1.1133 0.4375 1.6641-0.95703 1.4062-0.65625 1.2656 0.67578 1.1602 0.26172 1.4766 0.34766 1.043 0.60938 1.1289 0.43359 1.5039 0.34766 1.3047 1.6484 1.4766 0.89844 0.86719 0.23438 1.0742 2.9219 2.3711 0.75391 0.69531-1.6719 3.0234-0.61328 1.1523-0.76953 1.1719-0.99609 0.61719-0.78125 1.1797-0.61328 1.7148-0.32031 1.3711-0.44141 1.6172-0.66016 1.1289-0.95703 1.25-0.83203 1.25-0.95703 1.0547-1.1523 0.95703-1.0312 0.24219-1.2227 0.41797-1.1797 0.85938-0.88281 1.125-0.097657 1.1055 0.70312 0.74219 0.42188 1.0938 0.38672 0.94531 0.91406 0.61328 0.87109 0.5625 0.96094 0.59375 0.45703 1.4648-0.27734 1.5078-0.17969 1.0977-0.050781 1.6523 0.050781 1.1289-0.24219 1.2734-0.054687 1.1133 0.57031 1.1914 0.29688 1.0859 0.48828 1.168 0.48828 1.3008 1.0586 1.4375 0.54297 1.0586 0.75781 0.8125 1.5195 1.0859 1.8711 1.3281 1.2578 0.55859 0.98047 0.26953 1.0859 0.30859 0.19141 1.3164 0.57031 0.99609 0.066407 1.1445 0.52734 0.95703 1.0625 0.44141 1.0586 0.55859 1.1211 0.56641 1.3359 0.46484 1.9297 0.40234 0.94922 0.69922 0.5625 1.1562 0.53125 0.89453 0.76172 0.96094 0.19922 1.5547 0.89453 1.7891 0.71484 1.0898 0.39062 1.1367 1.582 1.2852 1.0078 0.85547 0.97656 0.69922-1.168 0.78125-1.5469 1.8633-0.86328 0.95703-0.99609 0.36719-1.875 0.375-1.1562 0.84375-1.1055 0.70703-1.0039 1.1289-0.29297 1.1758-0.69141 1.7617-0.58984 0.98438-0.60547 1.2773-0.98438 0.37891-1.1953 0.375-1.0898 1.4258-0.52344 1.3203-1.0508 0.54688-1.0039 0.26953-1.5742-0.52344-1.0664-1.1953-1.2383-0.41797-1.3398 0.54297-1.5312 0.14844-1.3633-0.16797-1.0664-0.39844-1.0078-0.375-1.8867-1.0703-1.1289-0.62891-1.0273-0.37891-1.0898-0.73047-0.83984-1.1758-1.2148-1.3828-1.0273-1.0078-1.0781-0.57812-1.1523-0.49609-1.4414-0.39453h-1.3594l-1.207-0.28906-0.94141-0.36328-1.9414-0.18359-1.3242 0.49219-1.3438 1.0469-1.3438 0.72266-2.6836 2.1953-0.94922 1.2773-0.42578 1.0117-0.16406 1.4766 0.65234 1.2773 0.67188 0.97266 0.65234 0.89062 0.50391 1.4492-0.14453 1.5938-0.65234 2.0547-0.023437 1.1328-0.023438 1.1133-0.73828 1.082-0.875 0.63672-1.0273 0.71484-0.76953 1.6211-0.44922 1.3203-0.84766 1.4453-0.39844 1-0.55078 1.0938-1.082-0.023438-0.86719-0.64844-0.3125-1.1562-0.49219-1.7148-1.1289-1.3242-1.0273-1.3359-1.543-0.87109-0.98828-1.0508-0.84375-1.2734-0.64844-1.1016-1.0898-1.4805-1.0117-1.0547-0.92969-0.80078-1.3906-1.9844-0.80078-1.6445-0.84375-0.71875-1.3516-0.71875-1.4336-0.71484-0.88672-0.59375-2.5742 0.085938-2.2812-0.16797-1.0938-0.085937-1.4375-0.46484-1.7305-0.46484-1.6016-0.67188-0.71875-0.76172-0.50781-0.92969 0.21484-1.3047 0.32422-1.2266-1.5547-0.67188-1.1445-0.90234-0.57422-0.96094-1.3516-1.1016-1.8398-0.49219-1.0234-0.22656-1.3125-0.35156-1.2227-0.56641-0.89844-0.49219-2.3125-0.73438-1.3086 0.039062-1.3906 0.0625-2.8633-0.22656h-1.9609l-1.043 0.14453-1.3125-0.16406-1.2461-0.51172-1-0.92188-0.67578-0.87891-0.91016-1.2188h1.125l1.625-0.35547 1.3945-1 1.0664-0.46484 1.1875-0.89062 0.85156-0.92578 1.1484-1.7422 0.035156-1.0352 0.26172-1.4453 0.77734-1.7422 0.99219-0.77344 0.88672-1.6211 0.36719-1.5469 0.8125-1.5508 0.14844-1.8789 0.29297-2.1406 0.60156-1.9805 1.2031-0.28125 1.3203 0.17969 0.96875 0.3125 1.0352-0.13281 1.0078-0.42578 1.75-0.58203 1.3008-0.47656 1.3945-0.69141 1.25-0.64844 1.4492-0.75391 1.0391-0.59766 0.97656-0.69141 1.0859 0.36719 1.1211 0.12109 0.95703 0.31641 0.83984-0.66406 1.1406-0.40625 0.94531-0.82031 0.70312-0.76172 0.12891-1.3828-0.21484-1.0508 0.33203-1.2188 0.48828-0.87891-0.36719-1.0547-0.79297-1.0391 0.0625-1.1992 1.0977-5.8555 1.0898-4.1797 0.35547-1.375 0.089844-1.0547-0.30859-1.5391-0.46094-1.1875 0.30859-1.2539 0.41797-1.0352 0.46094-1.3594 0.8125-0.75 0.85547-0.96484 0.61719-0.92578 0.83594-1.0781 0.17578-1.2734-0.15625-1.0547-0.32812-1.0117 1.0547 0.57031 1.3203 0.24219 1.1641-0.61328 1.3203-0.39844 1.2539-0.21875 0.59375-0.96875 0.76562-0.94531 1.2773-1.0742 1.0977-0.57422 1.1016-0.92188 1.3164-0.17578 1.4961 0.6875 1.4023 0.43359 1.5469-0.82031 0.57812-1.5977 0.097656-1.0625-0.097656-1.4492 0.72656-1.5977 1.0625-0.72266 0.38672-1.3047-0.63672-1.7344-0.23047-1.0781 1.3828-2.5352 2.3008-1.3047 2.3047-1 2.4609-0.99609 1.918-1.1523 0.83594-1.1445h1.2812l1.6641-0.054687 2.0742-0.60156 1.7109-0.58984 2-0.42969z" fill="#ccc" fill-rule="evenodd"/>
<path d="m414.5 93.652 1.1914 0.37891 1.5117 0.80859 1.3555 0.85547 1.1016 0.83594 1.1836 0.59375 1.1094 0.44141 1.0742 0.48047 1.3711 1.1133 0.4375 1.6641-0.95703 1.4062-0.65625 1.2656 0.67578 1.1602 0.26172 1.4766 0.34766 1.043 0.60938 1.1289 0.43359 1.5039 0.34766 1.3047 1.6484 1.4766 0.89844 0.86719 0.23438 1.0742 2.9219 2.3711 0.75391 0.69531-1.6719 3.0234-0.61328 1.1523-0.76953 1.1719-0.99609 0.61719-0.78125 1.1797-0.61328 1.7148-0.32031 1.3711-0.44141 1.6172-0.66016 1.1289-0.95703 1.25-0.83203 1.25-0.95703 1.0547-1.1523 0.95703-1.0312 0.24219-1.2227 0.41797-1.1797 0.85938-0.88281 1.125-0.097657 1.1055 0.70312 0.74219 0.42188 1.0938 0.38672 0.94531 0.91406 0.61328 0.87109 0.5625 0.96094 0.59375 0.45703 1.4648-0.27734 1.5078-0.17969 1.0977-0.050781 1.6523 0.050781 1.1289-0.24219 1.2734-0.054687 1.1133 0.57031 1.1914 0.29688 1.0859 0.48828 1.168 0.48828 1.3008 1.0586 1.4375 0.54297 1.0586 0.75781 0.8125 1.5195 1.0859 1.8711 1.3281 1.2578 0.55859 0.98047 0.26953 1.0859 0.30859 0.19141 1.3164 0.57031 0.99609 0.066407 1.1445 0.52734 0.95703 1.0625 0.44141 1.0586 0.55859 1.1211 0.56641 1.3359 0.46484 1.9297 0.40234 0.94922 0.69922 0.5625 1.1562 0.53125 0.89453 0.76172 0.96094 0.19922 1.5547 0.89453 1.7891 0.71484 1.0898 0.39062 1.1367 1.582 1.2852 1.0078 0.85547 0.97656 0.69922-1.168 0.78125-1.5469 1.8633-0.86328 0.95703-0.99609 0.36719-1.875 0.375-1.1562 0.84375-1.1055 0.70703-1.0039 1.1289-0.29297 1.1758-0.69141 1.7617-0.58984 0.98438-0.60547 1.2773-0.98438 0.37891-1.1953 0.375-1.0898 1.4258-0.52344 1.3203-1.0508 0.54688-1.0039 0.26953-1.5742-0.52344-1.0664-1.1953-1.2383-0.41797-1.3398 0.54297-1.5312 0.14844-1.3633-0.16797-1.0664-0.39844-1.0078-0.375-1.8867-1.0703-1.1289-0.62891-1.0273-0.37891-1.0898-0.73047-0.83984-1.1758-1.2148-1.3828-1.0273-1.0078-1.0781-0.57812-1.1523-0.49609-1.4414-0.39453h-1.3594l-1.207-0.28906-0.94141-0.36328-1.9414-0.18359-1.3242 0.49219-1.3438 1.0469-1.3438 0.72266-2.6836 2.1953-0.94922 1.2773-0.42578 1.0117-0.16406 1.4766 0.65234 1.2773 0.67188 0.97266 0.65234 0.89062 0.50391 1.4492-0.14453 1.5938-0.65234 2.0547-0.023437 1.1328-0.023438 1.1133-0.73828 1.082-0.875 0.63672-1.0273 0.71484-0.76953 1.6211-0.44922 1.3203-0.84766 1.4453-0.39844 1-0.55078 1.0938-1.082-0.023438-0.86719-0.64844-0.3125-1.1562-0.49219-1.7148-1.1289-1.3242-1.0273-1.3359-1.543-0.87109-0.98828-1.0508-0.84375-1.2734-0.64844-1.1016-1.0898-1.4805-1.0117-1.0547-0.92969-0.80078-1.3906-1.9844-0.80078-1.6445-0.84375-0.71875-1.3516-0.71875-1.4336-0.71484-0.88672-0.59375-2.5742 0.085938-2.2812-0.16797-1.0938-0.085937-1.4375-0.46484-1.7305-0.46484-1.6016-0.67188-0.71875-0.76172-0.50781-0.92969 0.21484-1.3047 0.32422-1.2266-1.5547-0.67188-1.1445-0.90234-0.57422-0.96094-1.3516-1.1016-1.8398-0.49219-1.0234-0.22656-1.3125-0.35156-1.2227-0.56641-0.89844-0.49219-2.3125-0.73438-1.3086 0.039062-1.3906 0.0625-2.8633-0.22656h-1.9609l-1.043 0.14453-1.3125-0.16406-1.2461-0.51172-1-0.92188-0.67578-0.87891-0.91016-1.2188h1.125l1.625-0.35547 1.3945-1 1.0664-0.46484 1.1875-0.89062 0.85156-0.92578 1.1484-1.7422 0.035156-1.0352 0.26172-1.4453 0.77734-1.7422 0.99219-0.77344 0.88672-1.6211 0.36719-1.5469 0.8125-1.5508 0.14844-1.8789 0.29297-2.1406 0.60156-1.9805 1.2031-0.28125 1.3203 0.17969 0.96875 0.3125 1.0352-0.13281 1.0078-0.42578 1.75-0.58203 1.3008-0.47656 1.3945-0.69141 1.25-0.64844 1.4492-0.75391 1.0391-0.59766 0.97656-0.69141 1.0859 0.36719 1.1211 0.12109 0.95703 0.31641 0.83984-0.66406 1.1406-0.40625 0.94531-0.82031 0.70312-0.76172 0.12891-1.3828-0.21484-1.0508 0.33203-1.2188 0.48828-0.87891-0.36719-1.0547-0.79297-1.0391 0.0625-1.1992 1.0977-5.8555 1.0898-4.1797 0.35547-1.375 0.089844-1.0547-0.30859-1.5391-0.46094-1.1875 0.30859-1.2539 0.41797-1.0352 0.46094-1.3594 0.8125-0.75 0.85547-0.96484 0.61719-0.92578 0.83594-1.0781 0.17578-1.2734-0.15625-1.0547-0.32812-1.0117 1.0547 0.57031 1.3203 0.24219 1.1641-0.61328 1.3203-0.39844 1.2539-0.21875 0.59375-0.96875 0.76562-0.94531 1.2773-1.0742 1.0977-0.57422 1.1016-0.92188 1.3164-0.17578 1.4961 0.6875 1.4023 0.43359 1.5469-0.82031 0.57812-1.5977 0.097656-1.0625-0.097656-1.4492 0.72656-1.5977 1.0625-0.72266 0.38672-1.3047-0.63672-1.7344-0.23047-1.0781 1.3828-2.5352 2.3008-1.3047 2.3047-1 2.4609-0.99609 1.918-1.1523 0.83594-1.1445h1.2812l1.6641-0.054687 2.0742-0.60156 1.7109-0.58984 2-0.42969 1.4609 0.32422" fill="none" stroke="#fff" stroke-linecap="round" stroke-linejoin="round" stroke-miterlimit="10" stroke-width="2"/>
<path d="m146.72 57.168 0.27734 0.16406 0.99609 0.79688 0.73047 0.85938 0.24609 1.5547 0.10547 1.1602 0.24609 1.3359 0.35938 0.99219 1.0938 0.94922 1.4375 1.2656 0.65625 0.75391 0.55859 0.97266 0.074219 1.1445-0.48438 1.1445-1.0391 1.4531-0.82031 1.3242-0.64062 1.5586-0.3125 1.1484-0.42969 1.2656-0.097657 1.168 0.097657 1.0938 0.91797 0.67578 1.3203 0.85547 1.0352 0.95703 0.81641 0.60156 1.1875 0.52734 1.4219-0.29297 1.0312-0.44922 1.5781-0.36719 1.2656-0.37109 1.2266 0.058594 1.7109 0.85547 1.5391 0.44922 1.6367 0.69922 1.3984-0.25391 1.3828-0.48438 0.97266 0.25391 0.95703-0.50781 0.097656-1.6367 0.58203-1.2266 1.2461-0.67969 1.1875-0.73828 1.168 0.13672 1.1484 0.34766 1.1094 0.17578 1.1875 0.11719 1.0117 0.62109 1.0547 0.19141 1.0234 0.39453 1.2383-0.39062 1.3594-0.28906 1.1016-0.54297 1.3516-0.10938 1.0586-0.09375 1.4648-0.55469 2.0664-0.71875 1.1055-0.91406 1.1055-1.2266 1.1523-0.16797 1.3047 0.25781 1.0625 0.57031 0.58203 1.1523 0.89453 0.73828 1.168-0.0625 0.88281-0.63281 1.3164-1.0273 1.1523-0.69141h1.1094l1.5977 0.92188 1.2305-0.09375 0.69141-0.78125 0.55469-1.1406 0.80078-0.75391 1.0273-0.79688 1.0625-0.72266 0.875-0.72266 0.44922-0.96875 0.23047-1.1094-0.76953-1.3984-0.37109-0.98438 0.67969-1.293 0.015625-1.0469 1.2266-0.27344 1.4766-0.15625 1.0938 0.98438 0.96875 0.37109 1.6133-0.35547 1.7852 0.015625 0.90625 0.69141 0.83203 1 1.1523 0.58594 1.3398-0.0625 1.2305-0.27734 1.2578 0.046875 1.4922-0.30859 1.168-0.30859 0.98438-0.21484 0.67969-0.89062 1.3203-0.42969 1.0156-0.27734 1.1094 0.12109 0.99609 0.84766 1.4336-0.03125 0.96875 1.0469 0.9375 1.1836 0.61328 0.82812 1.293 0.92578 1.1992 0.41406 1.1562 0.23438 1.1719 1.0586 0.82422 0.67578 0.96875 1.1562 1.2461 1.5156 0.53906 0.85938 0.99609 0.80078 0.80469 0.6875 1.3398 0.81641 1.4453 0.15234 1.1016-0.57031 1.8164-0.48828 1.5742-0.40234 1.0938-0.79297 0.51172 0.98047 0.039063 1.4766 0.62109 0.90625 1.1172 1.2305 0.83984 0.91797 0.90234 0.8125 0.082031 1.043-0.1875 1.6055-0.20703 1.1914-0.54688 1.2383-0.5 0.92578 1.5 0.94141 1.0703 0.5 1 1.5703 0.98047 1.1914 1.3906 0.66797 1.5078 0.61328 1.1953 0.44531 2.1484-0.16797 1.3633 0.33594 1.2539 0.94531 1.4219 0.53125 0.92188 0.64062-0.42188 1.3984-1.2773 1.082-0.89453 0.52344-1.2344 0.71875-0.96875 0.28906-1.2383 0.85156-0.87891 0.81641-0.89062 0.82422-0.85938 0.67188-0.73828 1.1953-0.77344 0.99219-0.84375 1.5977-0.49219 1.3086-0.65234 1.3164-0.47266 1.1523-0.10156 1.5156-0.36328 0.95703-0.19141 1.082 0.078125 1.2812v1.3398l0.0625 1.5703-0.75391 1.2188-0.32422 1.4805-0.40625 1.2578-0.13672 1.3125 0.67969 0.87109 0.98047 0.37109 1.3555 0.1875 1.4453 0.55469 0.70312 2.0312-0.058594 1.2852-0.03125 1.0039-0.67969 2.0703-1.0508 1.6641-1.3008 1.4141-1.832 0.32812-1.0547 0.11328-1.1406-0.027344-1.0859 0.058594-1.0234 0.48438-0.42969 1.2266 0.058594 1.1094 0.054687 1.3711-0.53906 1.5391-0.54297 1.5117 0.25781 1.5078 1.2227 1.3438 0.82422 0.96094 1.2383 1.4414 0.98047 1.3594 1.5195 0.58203 0.94141 0.41016 0.8125 1.3008-0.70312 1.1953-0.10938 1.0117 0.011719 1.1797 0.10938 1.0547-0.33203 0.96094-0.64844 1.4023-0.36719 1.1797-0.28516 1.293-1.082 1.7539-0.81641 1.2539-0.80469 0.90234-1.0938 0.078125-0.98047 0.33594-1.0078 0.49609-0.66797 0.80859-0.73047 1.0234 0.58984 0.95703 0.84766 0.55469 3.0742 1.2109 2.1289 0.71875 1.5664 0.50391 2.2891 0.42969 1.9336 1.2422 1.9844 0.19922 1.0898 0.27734 2.0117 0.61328 1.7383 0.50781 1.043 0.49219 2.1953 1.3203 1.4922 0.70703 2.0117 0.28516 1.875 0.17578 1.2617 0.41016-0.34375 1.2969h-2.6094l-1.9102 0.44141-0.90625 0.82422-0.28125 1.3203-0.80078 0.85156-0.18359 1.3945-0.15234 1.0352-0.62109 0.85156-0.67188 1.8086-0.49219 1.4219 0.51953 1.5508-0.10547 1.1367-0.30859 0.95312-1.0859 0.80469-0.92969 0.47656-0.47656 1.8203-0.80859 1.2266-1.8594 0.84375-1.2109 0.55078-0.56641 1.4883 0.49609 1.6914 0.25 1.0391 0.51953 1.0352 0.47266 0.92578-0.85938 1.3086-0.29297 1.0586 0.33984 1.4219 0.089843 1.2422-1.1953 1.2188-1.0273 1.1836-0.13281 1.2383-0.12891 1.1094-0.23828 1.6797-1.0625 1.4023-1.0859 1.3828-0.71875 1.2969 0.48438 1.2227 0.94922 0.71484 0.50781 1.0156-0.18359 1.293 0.18359 1.1797 0.20703 1.5703-0.73828 1.6406-0.37109 1.2461-0.36719 1.6602-0.85547 0.80859-1.0391-0.13672-1.5469-0.67188-1.293 0.16406-0.94922 0.32422-1.6133 0.62109-0.78516 0.76172-1.2266 1.5938-0.76172 1.25-0.69531 0.96875-0.66797 1.1719-0.81641 1.2656-0.34766 1.1094-0.53516 1.0078-0.63281 1.4531-0.92188 0.85938-0.63281 0.79297-0.82031 0.8125-0.64844 0.87891-0.71484 0.85156-1.0469 0.85938-0.91797 0.58203-1.1797-0.011718-1.0195 0.41797-0.92969 0.44531-1 0.34375-0.99609-0.8125-0.66797-0.87109-0.76562-0.85156-0.28125-1.2852-0.35156-1.0391-0.54297-1.082-1.5352-1.168-0.59375-0.85938-1.6016-1.125-1.7148-1.3086-1.0469-0.75-1.3359-0.42969-0.70703-0.90625 0.10156-1.0508-0.34375-1.3398-0.62891-1.3359-0.55859-0.85938-0.75391-0.76562-1.0859-0.14453-1.1797 0.21875-1.2188 0.058594-1.1133-0.44141-0.88281-0.63281-1.7812 0.21875-1.1367 0.29688-1.5586 0.074219-1.1328-0.26562-1.2305-0.64844-1.0898-0.60156-1.3242-0.69922-2.0664-0.58984-1.4219-0.375-1.707-0.75391-0.94922-0.625-1.2266-1.0469-1.1875-0.83203-0.79297-0.99219-0.21875-1.5977-0.82422-0.90625-1.2148-0.16797-1.1641-0.83203-0.95312-0.35938-1.0977 0.10156-1.0977-0.17188-1.4648 0.32812-1.168 0.33594-1.0547-0.23828-1.2812-0.078125-1.2266 0.32422-0.90625 0.53125-1.6172 0.23438-1.1523 0.41797-0.84766 0.71875-1.2617 0.19141-1.0703-0.26562-0.75781-0.91016-0.11328-1.2305-0.35938-1.9453-0.058594-1.0898-0.68359-1.0586-0.87109-1.0703-1.1055-0.86328-1.2891-0.13281-1.543-0.56641-1.1094-0.77344-0.91406-1.0625-1.1562-0.55078-1.0156-0.03125-1.2773 0.21875-1.2773 0.027344-1.1445-0.16406-1.793-0.47656-1.3984-0.61719-1.4062-0.80078-0.49609-1.2031-0.16797-1.1953-1.1875-0.53516-1.1484-0.17969-1.2266 0.35156-1.5625 1.1758-0.76172 0.64844-1.0078 0.63281-1.1016 0.75781-1.168 0.33594-1.0273-0.28125-0.64062-0.95703 0.019531-1.7148-0.91797-0.90234-1.0742-0.51172-1.1133-1.2734-0.41797-1.2891-0.10938-1.5625-0.50781-0.91016-1.1445-0.62109-1.2383-0.36719 0.21875-0.98438 0.875-1.082 1.0664-1.0742 1.0078-0.82031 0.89844-0.79297 1.0312-0.54297 1.0078-0.63672 1.0469-0.70703 1.5234-1.0039 0.98828-0.43359 1.2305-0.74219 1.5273-0.66797 2.4961-0.65625 1.6875-0.17969 1-0.49219 0.65625-0.94922 0.78906-1.2734 0.57031-1.3867 0.32031-1.0156 0.17578-1.1289 1.2656-0.91406 0.87891-0.5 0.91406-0.93359 1.4492-1.4883 1.3867-1.1992 0.64062-0.83203 0.015625-1.4219-1.2773-1.4727 0.066406-1.4766-0.015625-1.0742 0.74609-1.1289 0.22266-1.0781 0.31641-1.4023-0.003906-1.082 0.023438-2.2812-0.14844-1.5859 0.10938-1.1055-0.21875-1.1797-0.050781-1.5078-1.2344-1.9297-0.25-1.4727-0.75-1.8438-0.042969-1.1875-0.60156-1.2812-0.48438-1.0117-0.98828-0.64844-0.80078-0.8125-0.69141-1.5547-0.32812-1.2539-0.13672-1.0977-0.64062-1.1797-1.2969-0.92969-1.0469-0.84766-1.2578-1.6602-1.0703-1.0195-1.1953-1.2305-0.19531-0.99609-0.49609-0.91016-0.019531-1.1367-0.019531-1.168-0.15234-1.1875-0.52344-0.96484-0.74219-0.83594-0.48438-1.332-0.69922-1.125-1.1367-0.53906-0.77344-0.66016-1.3711-0.54297-0.875-0.48438-0.86719-0.83984-1.1602-0.46484-0.89062-1.1172-0.92969-1.3984-0.99609-0.73047-0.89062-1.0508-0.68359-1.0977-0.83594-0.65234-1.3398-1.3047-0.90625-1.4805-1.2578-1.1875-1.1367-0.54297-1.3945-1.1875-0.78906-1.8867-1.3672-1.1797-0.77344-1.0664-0.74219-0.73438-0.47266-0.89062-0.125-1.0195-0.81641-0.62891-0.64062-1.8438-0.48438-0.94922-0.10156-1.3242-0.48047-1.2266-0.13281-1.5-0.17578-1.2383-0.51172-1.4062-0.78125-1.7383-0.31641-1.1484 0.078125-1.1562-0.31641-1.0586-0.042969-1.0781 0.66406-1.0664 1.2891-0.88281 1.3711-2.2227 0.85156-1.0859 0.77344-2.4531 0.55469-1.2578 0.89453-1.2734 0.93359-1.2578 1.2852-1.4531 1.1758-1.2344 0.78906-0.65625 0.79297-1.2656 0.19531-1.7891-0.16797-1.0078-0.23047-1.957-0.10547-1.0781 0.20703-1.707 0.38672-1.2539 0.51953-1.2227 0.94141-2.0195 1.8125-2.543 0.76562-1.0117 0.41797-1.2891 0.35156-1.4297z" fill="#ccc" fill-rule="evenodd"/>
<path d="m146.72 57.168 0.27734 0.16406 0.99609 0.79688 0.73047 0.85938 0.24609 1.5547 0.10547 1.1602 0.24609 1.3359 0.35938 0.99219 1.0938 0.94922 1.4375 1.2656 0.65625 0.75391 0.55859 0.97266 0.074219 1.1445-0.48438 1.1445-1.0391 1.4531-0.82031 1.3242-0.64062 1.5586-0.3125 1.1484-0.42969 1.2656-0.097657 1.168 0.097657 1.0938 0.91797 0.67578 1.3203 0.85547 1.0352 0.95703 0.81641 0.60156 1.1875 0.52734 1.4219-0.29297 1.0312-0.44922 1.5781-0.36719 1.2656-0.37109 1.2266 0.058594 1.7109 0.85547 1.5391 0.44922 1.6367 0.69922 1.3984-0.25391 1.3828-0.48438 0.97266 0.25391 0.95703-0.50781 0.097656-1.6367 0.58203-1.2266 1.2461-0.67969 1.1875-0.73828 1.168 0.13672 1.1484 0.34766 1.1094 0.17578 1.1875 0.11719 1.0117 0.62109 1.0547 0.19141 1.0234 0.39453 1.2383-0.39062 1.3594-0.28906 1.1016-0.54297 1.3516-0.10938 1.0586-0.09375 1.4648-0.55469 2.0664-0.71875 1.1055-0.91406 1.1055-1.2266 1.1523-0.16797 1.3047 0.25781 1.0625 0.57031 0.58203 1.1523 0.89453 0.73828 1.168-0.0625 0.88281-0.63281 1.3164-1.0273 1.1523-0.69141h1.1094l1.5977 0.92188 1.2305-0.09375 0.69141-0.78125 0.55469-1.1406 0.80078-0.75391 1.0273-0.79688 1.0625-0.72266 0.875-0.72266 0.44922-0.96875 0.23047-1.1094-0.76953-1.3984-0.37109-0.98438 0.67969-1.293 0.015625-1.0469 1.2266-0.27344 1.4766-0.15625 1.0938 0.98438 0.96875 0.37109 1.6133-0.35547 1.7852 0.015625 0.90625 0.69141 0.83203 1 1.1523 0.58594 1.3398-0.0625 1.2305-0.27734 1.2578 0.046875 1.4922-0.30859 1.168-0.30859 0.98438-0.21484 0.67969-0.89062 1.3203-0.42969 1.0156-0.27734 1.1094 0.12109 0.99609 0.84766 1.4336-0.03125 0.96875 1.0469 0.9375 1.1836 0.61328 0.82812 1.293 0.92578 1.1992 0.41406 1.1562 0.23438 1.1719 1.0586 0.82422 0.67578 0.96875 1.1562 1.2461 1.5156 0.53906 0.85938 0.99609 0.80078 0.80469 0.6875 1.3398 0.81641 1.4453 0.15234 1.1016-0.57031 1.8164-0.48828 1.5742-0.40234 1.0938-0.79297 0.51172 0.98047 0.039063 1.4766 0.62109 0.90625 1.1172 1.2305 0.83984 0.91797 0.90234 0.8125 0.082031 1.043-0.1875 1.6055-0.20703 1.1914-0.54688 1.2383-0.5 0.92578 1.5 0.94141 1.0703 0.5 1 1.5703 0.98047 1.1914 1.3906 0.66797 1.5078 0.61328 1.1953 0.44531 2.1484-0.16797 1.3633 0.33594 1.2539 0.94531 1.4219 0.53125 0.92188 0.64062-0.42188 1.3984-1.2773 1.082-0.89453 0.52344-1.2344 0.71875-0.96875 0.28906-1.2383 0.85156-0.87891 0.81641-0.89062 0.82422-0.85938 0.67188-0.73828 1.1953-0.77344 0.99219-0.84375 1.5977-0.49219 1.3086-0.65234 1.3164-0.47266 1.1523-0.10156 1.5156-0.36328 0.95703-0.19141 1.082 0.078125 1.2812v1.3398l0.0625 1.5703-0.75391 1.2188-0.32422 1.4805-0.40625 1.2578-0.13672 1.3125 0.67969 0.87109 0.98047 0.37109 1.3555 0.1875 1.4453 0.55469 0.70312 2.0312-0.058594 1.2852-0.03125 1.0039-0.67969 2.0703-1.0508 1.6641-1.3008 1.4141-1.832 0.32812-1.0547 0.11328-1.1406-0.027344-1.0859 0.058594-1.0234 0.48438-0.42969 1.2266 0.058594 1.1094 0.054687 1.3711-0.53906 1.5391-0.54297 1.5117 0.25781 1.5078 1.2227 1.3438 0.82422 0.96094 1.2383 1.4414 0.98047 1.3594 1.5195 0.58203 0.94141 0.41016 0.8125 1.3008-0.70312 1.1953-0.10938 1.0117 0.011719 1.1797 0.10938 1.0547-0.33203 0.96094-0.64844 1.4023-0.36719 1.1797-0.28516 1.293-1.082 1.7539-0.81641 1.2539-0.80469 0.90234-1.0938 0.078125-0.98047 0.33594-1.0078 0.49609-0.66797 0.80859-0.73047 1.0234 0.58984 0.95703 0.84766 0.55469 3.0742 1.2109 2.1289 0.71875 1.5664 0.50391 2.2891 0.42969 1.9336 1.2422 1.9844 0.19922 1.0898 0.27734 2.0117 0.61328 1.7383 0.50781 1.043 0.49219 2.1953 1.3203 1.4922 0.70703 2.0117 0.28516 1.875 0.17578 1.2617 0.41016-0.34375 1.2969h-2.6094l-1.9102 0.44141-0.90625 0.82422-0.28125 1.3203-0.80078 0.85156-0.18359 1.3945-0.15234 1.0352-0.62109 0.85156-0.67188 1.8086-0.49219 1.4219 0.51953 1.5508-0.10547 1.1367-0.30859 0.95312-1.0859 0.80469-0.92969 0.47656-0.47656 1.8203-0.80859 1.2266-1.8594 0.84375-1.2109 0.55078-0.56641 1.4883 0.49609 1.6914 0.25 1.0391 0.51953 1.0352 0.47266 0.92578-0.85938 1.3086-0.29297 1.0586 0.33984 1.4219 0.089843 1.2422-1.1953 1.2188-1.0273 1.1836-0.13281 1.2383-0.12891 1.1094-0.23828 1.6797-1.0625 1.4023-1.0859 1.3828-0.71875 1.2969 0.48438 1.2227 0.94922 0.71484 0.50781 1.0156-0.18359 1.293 0.18359 1.1797 0.20703 1.5703-0.73828 1.6406-0.37109 1.2461-0.36719 1.6602-0.85547 0.80859-1.0391-0.13672-1.5469-0.67188-1.293 0.16406-0.94922 0.32422-1.6133 0.62109-0.78516 0.76172-1.2266 1.5938-0.76172 1.25-0.69531 0.96875-0.66797 1.1719-0.81641 1.2656-0.34766 1.1094-0.53516 1.0078-0.63281 1.4531-0.92188 0.85938-0.63281 0.79297-0.82031 0.8125-0.64844 0.87891-0.71484 0.85156-1.0469 0.85938-0.91797 0.58203-1.1797-0.011718-1.0195 0.41797-0.92969 0.44531-1 0.34375-0.99609-0.8125-0.66797-0.87109-0.76562-0.85156-0.28125-1.2852-0.35156-1.0391-0.54297-1.082-1.5352-1.168-0.59375-0.85938-1.6016-1.125-1.7148-1.3086-1.0469-0.75-1.3359-0.42969-0.70703-0.90625 0.10156-1.0508-0.34375-1.3398-0.62891-1.3359-0.55859-0.85938-0.75391-0.76562-1.0859-0.14453-1.1797 0.21875-1.2188 0.058594-1.1133-0.44141-0.88281-0.63281-1.7812 0.21875-1.1367 0.29688-1.5586 0.074219-1.1328-0.26562-1.2305-0.64844-1.0898-0.60156-1.3242-0.69922-2.0664-0.58984-1.4219-0.375-1.707-0.75391-0.94922-0.625-1.2266-1.0469-1.1875-0.83203-0.79297-0.99219-0.21875-1.5977-0.82422-0.90625-1.2148-0.16797-1.1641-0.83203-0.95312-0.35938-1.0977 0.10156-1.0977-0.17188-1.4648 0.32812-1.168 0.33594-1.0547-0.23828-1.2812-0.078125-1.2266 0.32422-0.90625 0.53125-1.6172 0.23438-1.1523 0.41797-0.84766 0.71875-1.2617 0.19141-1.0703-0.26562-0.75781-0.91016-0.11328-1.2305-0.35938-1.9453-0.058594-1.0898-0.68359-1.0586-0.87109-1.0703-1.1055-0.86328-1.2891-0.13281-1.543-0.56641-1.1094-0.77344-0.91406-1.0625-1.1562-0.55078-1.0156-0.03125-1.2773 0.21875-1.2773 0.027344-1.1445-0.16406-1.793-0.47656-1.3984-0.61719-1.4062-0.80078-0.49609-1.2031-0.16797-1.1953-1.1875-0.53516-1.1484-0.17969-1.2266 0.35156-1.5625 1.1758-0.76172 0.64844-1.0078 0.63281-1.1016 0.75781-1.168 0.33594-1.0273-0.28125-0.64062-0.95703 0.019531-1.7148-0.91797-0.90234-1.0742-0.51172-1.1133-1.2734-0.41797-1.2891-0.10938-1.5625-0.50781-0.91016-1.1445-0.62109-1.2383-0.36719 0.21875-0.98438 0.875-1.082 1.0664-1.0742 1.0078-0.82031 0.89844-0.79297 1.0312-0.54297 1.0078-0.63672 1.0469-0.70703 1.5234-1.0039 0.98828-0.43359 1.2305-0.74219 1.5273-0.66797 2.4961-0.65625 1.6875-0.17969 1-0.49219 0.65625-0.94922 0.78906-1.2734 0.57031-1.3867 0.32031-1.0156 0.17578-1.1289 1.2656-0.91406 0.87891-0.5 0.91406-0.93359 1.4492-1.4883 1.3867-1.1992 0.64062-0.83203 0.015625-1.4219-1.2773-1.4727 0.066406-1.4766-0.015625-1.0742 0.74609-1.1289 0.22266-1.0781 0.31641-1.4023-0.003906-1.082 0.023438-2.2812-0.14844-1.5859 0.10938-1.1055-0.21875-1.1797-0.050781-1.5078-1.2344-1.9297-0.25-1.4727-0.75-1.8438-0.042969-1.1875-0.60156-1.2812-0.48438-1.0117-0.98828-0.64844-0.80078-0.8125-0.69141-1.5547-0.32812-1.2539-0.13672-1.0977-0.64062-1.1797-1.2969-0.92969-1.0469-0.84766-1.2578-1.6602-1.0703-1.0195-1.1953-1.2305-0.19531-0.99609-0.49609-0.91016-0.019531-1.1367-0.019531-1.168-0.15234-1.1875-0.52344-0.96484-0.74219-0.83594-0.48438-1.332-0.69922-1.125-1.1367-0.53906-0.77344-0.66016-1.3711-0.54297-0.875-0.48438-0.86719-0.83984-1.1602-0.46484-0.89062-1.1172-0.92969-1.3984-0.99609-0.73047-0.89062-1.0508-0.68359-1.0977-0.83594-0.65234-1.3398-1.3047-0.90625-1.4805-1.2578-1.1875-1.1367-0.54297-1.3945-1.1875-0.78906-1.8867-1.3672-1.1797-0.77344-1.0664-0.74219-0.73438-0.47266-0.89062-0.125-1.0195-0.81641-0.62891-0.64062-1.8438-0.48438-0.94922-0.10156-1.3242-0.48047-1.2266-0.13281-1.5-0.17578-1.2383-0.51172-1.4062-0.78125-1.7383-0.31641-1.1484 0.078125-1.1562-0.31641-1.0586-0.042969-1.0781 0.66406-1.0664 1.2891-0.88281 1.3711-2.2227 0.85156-1.0859 0.77344-2.4531 0.55469-1.2578 0.89453-1.2734 0.93359-1.2578 1.2852-1.4531 1.1758-1.2344 0.78906-0.65625 0.79297-1.2656 0.19531-1.7891-0.16797-1.0078-0.23047-1.957-0.10547-1.0781 0.20703-1.707 0.38672-1.2539 0.51953-1.2227 0.94141-2.0195 1.8125-2.543 0.76562-1.0117 0.41797-1.2891 0.35156-1.4297 0.71484-0.52734" fill="none" stroke="#fff" stroke-linecap="round" stroke-linejoin="round" stroke-miterlimit="10" stroke-width="2"/>
<path d="m146 57.695-0.14062 0.55859-0.38281 1.4961-1.0117 1.6758-1.1484 1.8086-1.2227 2.2305-0.90234 1.7461-0.38672 1.2539-0.20703 1.707 0.10547 1.0781 0.25 1.1367 0.14844 1.8281 0.011719 1.0469-0.49609 1.3438-1.293 1.3203-0.71484 0.70703-1.2109 1.4961-1.0898 1.0859-1.2734 1.9297-0.55469 1.2578-0.37891 1.6133-0.90625 1.4492-1.1523 1.9727-1.4531 1.2617-0.77734 0.8125-0.35547 1.2734 0.37109 1.1914-0.015625 1.4297 0.31641 1.1484 0.78125 1.7383 0.51172 1.4062 0.17578 1.2383 0.13281 1.5 0.48047 1.2266 0.10156 1.3242 0.48438 0.94922 0.19531 1.1602 1.0391 0.92188 0.26172 1.0273 0.55859 1.2734 0.74219 0.73438 0.77344 1.0664 1.0977 0.84766 0.60156 1.3867 1.0703 1.4961 1.3164 0.73047 1.3945 0.99609 1.125 1.6758 1.5859 1.6367 0.83594 0.65234 0.68359 1.0977 0.89062 1.0508 0.99609 0.73047 0.92969 1.3984 0.89062 1.1172 1.1602 0.46484 0.86719 0.83984 0.875 0.48438 1.2109 0.42188 0.72266 0.70312 1.3477 0.61719 0.69922 1.125 0.48438 1.332 0.74219 0.83594 0.52344 0.96484 0.15234 1.1875 0.019531 1.168 0.019531 1.1367 0.49609 0.91016 0.19531 0.99609 0.70312 0.88281 1.5625 1.3672 0.85938 1.0586 0.78125 0.96484 1.5352 0.99219 0.84766 1.0352 0.23828 0.98047 0.44531 1.9375 0.69141 1.5547 0.80078 0.8125 0.98828 0.64844 0.48438 1.0117 0.60156 1.2812 0.042969 1.1875 0.74219 1.6523-0.042968 1.1953 1.2461 1.4766 0.33984 2.4297 0.21875 1.1797-0.10938 1.1055 0.14844 1.5859-0.12109 1.3438 0.19922 1.1641-0.375 1.7852-0.10938 1.2109-0.61328 0.86328-0.22656 1.0586-0.25781 1.7422 0.89062 1.0547 0.62109 1.6641-0.74219 1.3633-1.3867 1.1992-0.9375 1.0273-1.1094 1.1445-0.83594 0.56641-1.625 1.0977-0.17578 1.1289-0.32031 1.0156-0.57031 1.3867-0.78906 1.2734-0.65625 0.94922-1 0.49219-1.1133 0.10156-2.3672 0.46484-1.4102 0.69141-1.2773 0.43359-1.0664 0.70312-1.5273 0.78125-1.375 0.85156-1.3711 1-1.0312 0.54297-0.89844 0.79297-1.0078 0.82031-1.0664 1.0742-0.875 1.082-0.79297 0.71094-1.0547-0.59375-1.0742-0.52734-1.0352 0.003907-1.6719 0.007812-1.4219-0.79688-1.7266-0.81641-1.0781-0.24219-1.1562 0.23828-0.76562 0.96875-0.12109 1.0469-1.4531 1.3164-0.64844 0.87109-0.74219 1.082-1.1953 0.89453-1.3711 0.44922-1.043 0.45312-2.625-0.85547-1.7148-0.25781-1.6211 0.58984-1.0117-0.68359-0.97266-0.32812-1.3555 0.76953-1.3125 0.16797-1.0586 0.21094-0.375-1.1914 0.62109-0.80859-0.49219-1.4062-0.4375-1.082-0.14062-1.3867-0.67188-1.5664-0.78906-0.78906-1.1289-0.13672-0.78516-1.5117-0.45703-1.1328-0.94922-0.60156-1.7305 0.16016-2.0195-0.24609-1.4141 0.19141-1.0625 0.75-1.1055 0.35156-0.28906-1.0391-0.35156-1.1875-0.94141-0.85938-0.91797-0.50391-1.1406-0.40625-0.98047 0.62891-1.9727-1.6484-0.88672-1.293-0.99609-0.58594-1.4141 0.44141-1.2188 0.82422-0.80859 0.88672-0.73047 1.2812-1.3125 0.67969-1.1797 0.25781-1.6875-1.1016-0.84766-0.53516-0.53516-0.87109-0.40625-1.2773-0.16797-0.99609 0.16797-1.207-0.32812-1.2812-1.1914-1.2695-1.0078-1.0234-1.3008-0.89453-0.65625-1.0547 0.28125-1.0312 0.46875-2.1367-0.70312-0.96484-1.3008 0.14062-1.1797-0.60938-0.97656-1.4883-0.89062-0.89062-1.1094 0.14453-1.3125 1.0391-1.957 0.87109-1.168 0.32031-1.9258 0.03125-0.95703 0.44141-0.37109 1.5117-0.99609 1.0625-1.2734-0.15234-0.99609-0.45703-1.0742-0.55859-0.51562-1.1523-0.64844-1.1094-0.84766-0.82422-1.1055-0.3125-1.1719 0.24219-1.2227-0.027343-1.7578-1.1094-1.0391-0.55859-1.4414-0.75-1.1719-0.44141-1.6562-0.23828-1.1172-0.57812-1.0391-1.0547-0.44922-1.1016-0.79297-0.77734-0.73438-1.2539-1.125-0.48828-1.4805 0.058594-1.5273-0.43359-0.78125-1.0234-0.35938-1.7188-0.92188-1.75-1.2383-1.1719-0.98828-1.0234-0.83594-0.57812-1.5156-0.42969-1.5742-0.039063-1.1914 0.39844-1 0.67188-1.2227 0.32031-1.0859-0.074219-0.97266-0.73828-0.27344-0.98828-0.45703-1.6602-1.0547-1.4727-1.2305-0.40625-1.3828-0.26562-1.1914-0.10156-2.6914 0.21484-1.1875-0.10547-1.2578-0.45312-1.3906-0.85547-1.1992-1.8828-0.39844-1.0391-0.16016-1.293 0.046875-1.0938-0.59375-0.91406-0.85938-1.0625-0.88281-0.96875-1.0156-1.2578-0.76562-1.2773-0.88281-1.1562-0.95703-0.95703-0.98828-0.65234-1.0508-0.43359-0.98828-0.79688-1.0352-1.0977-0.80469-0.72266-1.207-0.58984-0.36719-0.94141 0.11328-1.3047-0.38281-0.99219-1.3711-0.38281 0.64844-0.98047 0.8125-0.88672 0.76172-0.76562 0.67188-0.99609 0.92969-0.98047 0.26562-1.1641 0.61719-1.0781 0.51953-0.92188 0.83984-1.7539 0.63672-1.125 0.38672-1.0977 0.73828-1.2266 1.9883-2.0039 1.1094-1.3203 0.85156-1.1328 2.293-1.3945 1.3242-1.0781 0.84766-0.93359 1.1484-0.64844 0.98828-0.16797 1.7148 0.32422 1.8281 0.027343 2.2812-0.53125 1.7031-0.83984 1.3867-0.82422 0.96875-1.0469 1.3438-1.0273 1.0703-1.6797 0.84766-0.87109 1.0547-0.34766 1.1133 0.11719 1.5 1.2227 1.3633 1.4102 1.3164 1.3398 0.73828 0.96875 1.3164 1.7305 1.1562 0.32422 1.4922 0.63672 0.98828 0.47656 1.582 0.33984 1.0195 0.35156 1.7773 0.58594 1.8281 0.79297 1.2773 0.14062 0.14453-1.0156 0.82812-1.6445 0.87109-1.3555 0.37109-1.0664 0.57422-0.88672 1.0938-1.2109 1.168-1.5664 0.75391-0.67969 1.375-0.69531 1.0352-0.58984 2.4258-0.94531 1.2266-0.20703 1.6406-0.015625 1.6328 0.16797 1.3984 0.19531 1.3242-0.39453 1.2695-0.84375 1.0977-0.60938 1.1992-0.33984 1.3438-0.64453 1.793-0.53906 2.0781-0.83984 1.2031-1.1641 1.4141-1.793 0.96875-1.0742 1.418-0.91406 1.0195-0.84375 0.89453-0.87891 1.543-1.668 0.57422-0.98438 0.28906-1.2031 1.1875-0.71484 1.1641-0.21484 0.97266-0.51562 0.96094-1.0469 0.83203-0.82031 1.0195 0.21484 1.2188 1.4219 1.1172 0.73047 0.98828 0.40234 0.94531 0.34375 1.25 0.40234 1.2617 0.65625 1.0898 0.30469 0.83203 0.88672 0.78516-1.0312 1.0625-1.9375 1.4062-1.5625 1.1836-1.6758 0.89453-1.0195 0.73047-0.71484 0.90234-1.25 0.76172-0.75781 0.96094-0.93359 1.0586-0.84375 1.1641-0.42969 1.3594-0.38672 0.73438-1.0039 0.47266-0.89062 1.1602-0.15625 1.0195 0.11328h1.4883l1.8203 0.34375 1.3359 0.47266 1.7344-0.36328 1.1055-0.023437 0.89062-0.52734 0.57812-1.1797 0.61719-0.98438 0.6875-0.77734 1.2109-1.2109 0.89062-0.59375 1.4844-0.50391 1.5742-0.82031 1.2109-0.75391 0.57031-0.9375 0.52734-1.0508 0.38672-1.3008 0.32031-1.1875 0.89062-1.8984 0.57031-1.3008 0.98438-1.1875 0.91016-0.57031 1.3945-0.77734 1.7578-0.59375 1.8516-0.34375 1.7305-0.28516z" fill="#ccc" fill-rule="evenodd"/>
<path d="m146 57.695-0.14062 0.55859-0.38281 1.4961-1.0117 1.6758-1.1484 1.8086-1.2227 2.2305-0.90234 1.7461-0.38672 1.2539-0.20703 1.707 0.10547 1.0781 0.25 1.1367 0.14844 1.8281 0.011719 1.0469-0.49609 1.3438-1.293 1.3203-0.71484 0.70703-1.2109 1.4961-1.0898 1.0859-1.2734 1.9297-0.55469 1.2578-0.37891 1.6133-0.90625 1.4492-1.1523 1.9727-1.4531 1.2617-0.77734 0.8125-0.35547 1.2734 0.37109 1.1914-0.015625 1.4297 0.31641 1.1484 0.78125 1.7383 0.51172 1.4062 0.17578 1.2383 0.13281 1.5 0.48047 1.2266 0.10156 1.3242 0.48438 0.94922 0.19531 1.1602 1.0391 0.92188 0.26172 1.0273 0.55859 1.2734 0.74219 0.73438 0.77344 1.0664 1.0977 0.84766 0.60156 1.3867 1.0703 1.4961 1.3164 0.73047 1.3945 0.99609 1.125 1.6758 1.5859 1.6367 0.83594 0.65234 0.68359 1.0977 0.89062 1.0508 0.99609 0.73047 0.92969 1.3984 0.89062 1.1172 1.1602 0.46484 0.86719 0.83984 0.875 0.48438 1.2109 0.42188 0.72266 0.70312 1.3477 0.61719 0.69922 1.125 0.48438 1.332 0.74219 0.83594 0.52344 0.96484 0.15234 1.1875 0.019531 1.168 0.019531 1.1367 0.49609 0.91016 0.19531 0.99609 0.70312 0.88281 1.5625 1.3672 0.85938 1.0586 0.78125 0.96484 1.5352 0.99219 0.84766 1.0352 0.23828 0.98047 0.44531 1.9375 0.69141 1.5547 0.80078 0.8125 0.98828 0.64844 0.48438 1.0117 0.60156 1.2812 0.042969 1.1875 0.74219 1.6523-0.042968 1.1953 1.2461 1.4766 0.33984 2.4297 0.21875 1.1797-0.10938 1.1055 0.14844 1.5859-0.12109 1.3438 0.19922 1.1641-0.375 1.7852-0.10938 1.2109-0.61328 0.86328-0.22656 1.0586-0.25781 1.7422 0.89062 1.0547 0.62109 1.6641-0.74219 1.3633-1.3867 1.1992-0.9375 1.0273-1.1094 1.1445-0.83594 0.56641-1.625 1.0977-0.17578 1.1289-0.32031 1.0156-0.57031 1.3867-0.78906 1.2734-0.65625 0.94922-1 0.49219-1.1133 0.10156-2.3672 0.46484-1.4102 0.69141-1.2773 0.43359-1.0664 0.70312-1.5273 0.78125-1.375 0.85156-1.3711 1-1.0312 0.54297-0.89844 0.79297-1.0078 0.82031-1.0664 1.0742-0.875 1.082-0.79297 0.71094-1.0547-0.59375-1.0742-0.52734-1.0352 0.003907-1.6719 0.007812-1.4219-0.79688-1.7266-0.81641-1.0781-0.24219-1.1562 0.23828-0.76562 0.96875-0.12109 1.0469-1.4531 1.3164-0.64844 0.87109-0.74219 1.082-1.1953 0.89453-1.3711 0.44922-1.043 0.45312-2.625-0.85547-1.7148-0.25781-1.6211 0.58984-1.0117-0.68359-0.97266-0.32812-1.3555 0.76953-1.3125 0.16797-1.0586 0.21094-0.375-1.1914 0.62109-0.80859-0.49219-1.4062-0.4375-1.082-0.14062-1.3867-0.67188-1.5664-0.78906-0.78906-1.1289-0.13672-0.78516-1.5117-0.45703-1.1328-0.94922-0.60156-1.7305 0.16016-2.0195-0.24609-1.4141 0.19141-1.0625 0.75-1.1055 0.35156-0.28906-1.0391-0.35156-1.1875-0.94141-0.85938-0.91797-0.50391-1.1406-0.40625-0.98047 0.62891-1.9727-1.6484-0.88672-1.293-0.99609-0.58594-1.4141 0.44141-1.2188 0.82422-0.80859 0.88672-0.73047 1.2812-1.3125 0.67969-1.1797 0.25781-1.6875-1.1016-0.84766-0.53516-0.53516-0.87109-0.40625-1.2773-0.16797-0.99609 0.16797-1.207-0.32812-1.2812-1.1914-1.2695-1.0078-1.0234-1.3008-0.89453-0.65625-1.0547 0.28125-1.0312 0.46875-2.1367-0.70312-0.96484-1.3008 0.14062-1.1797-0.60938-0.97656-1.4883-0.89062-0.89062-1.1094 0.14453-1.3125 1.0391-1.957 0.87109-1.168 0.32031-1.9258 0.03125-0.95703 0.44141-0.37109 1.5117-0.99609 1.0625-1.2734-0.15234-0.99609-0.45703-1.0742-0.55859-0.51562-1.1523-0.64844-1.1094-0.84766-0.82422-1.1055-0.3125-1.1719 0.24219-1.2227-0.027343-1.7578-1.1094-1.0391-0.55859-1.4414-0.75-1.1719-0.44141-1.6562-0.23828-1.1172-0.57812-1.0391-1.0547-0.44922-1.1016-0.79297-0.77734-0.73438-1.2539-1.125-0.48828-1.4805 0.058594-1.5273-0.43359-0.78125-1.0234-0.35938-1.7188-0.92188-1.75-1.2383-1.1719-0.98828-1.0234-0.83594-0.57812-1.5156-0.42969-1.5742-0.039063-1.1914 0.39844-1 0.67188-1.2227 0.32031-1.0859-0.074219-0.97266-0.73828-0.27344-0.98828-0.45703-1.6602-1.0547-1.4727-1.2305-0.40625-1.3828-0.26562-1.1914-0.10156-2.6914 0.21484-1.1875-0.10547-1.2578-0.45312-1.3906-0.85547-1.1992-1.8828-0.39844-1.0391-0.16016-1.293 0.046875-1.0938-0.59375-0.91406-0.85938-1.0625-0.88281-0.96875-1.0156-1.2578-0.76562-1.2773-0.88281-1.1562-0.95703-0.95703-0.98828-0.65234-1.0508-0.43359-0.98828-0.79688-1.0352-1.0977-0.80469-0.72266-1.207-0.58984-0.36719-0.94141 0.11328-1.3047-0.38281-0.99219-1.3711-0.38281 0.64844-0.98047 0.8125-0.88672 0.76172-0.76562 0.67188-0.99609 0.92969-0.98047 0.26562-1.1641 0.61719-1.0781 0.51953-0.92188 0.83984-1.7539 0.63672-1.125 0.38672-1.0977 0.73828-1.2266 1.9883-2.0039 1.1094-1.3203 0.85156-1.1328 2.293-1.3945 1.3242-1.0781 0.84766-0.93359 1.1484-0.64844 0.98828-0.16797 1.7148 0.32422 1.8281 0.027343 2.2812-0.53125 1.7031-0.83984 1.3867-0.82422 0.96875-1.0469 1.3438-1.0273 1.0703-1.6797 0.84766-0.87109 1.0547-0.34766 1.1133 0.11719 1.5 1.2227 1.3633 1.4102 1.3164 1.3398 0.73828 0.96875 1.3164 1.7305 1.1562 0.32422 1.4922 0.63672 0.98828 0.47656 1.582 0.33984 1.0195 0.35156 1.7773 0.58594 1.8281 0.79297 1.2773 0.14062 0.14453-1.0156 0.82812-1.6445 0.87109-1.3555 0.37109-1.0664 0.57422-0.88672 1.0938-1.2109 1.168-1.5664 0.75391-0.67969 1.375-0.69531 1.0352-0.58984 2.4258-0.94531 1.2266-0.20703 1.6406-0.015625 1.6328 0.16797 1.3984 0.19531 1.3242-0.39453 1.2695-0.84375 1.0977-0.60938 1.1992-0.33984 1.3438-0.64453 1.793-0.53906 2.0781-0.83984 1.2031-1.1641 1.4141-1.793 0.96875-1.0742 1.418-0.91406 1.0195-0.84375 0.89453-0.87891 1.543-1.668 0.57422-0.98438 0.28906-1.2031 1.1875-0.71484 1.1641-0.21484 0.97266-0.51562 0.96094-1.0469 0.83203-0.82031 1.0195 0.21484 1.2188 1.4219 1.1172 0.73047 0.98828 0.40234 0.94531 0.34375 1.25 0.40234 1.2617 0.65625 1.0898 0.30469 0.83203 0.88672 0.78516-1.0312 1.0625-1.9375 1.4062-1.5625 1.1836-1.6758 0.89453-1.0195 0.73047-0.71484 0.90234-1.25 0.76172-0.75781 0.96094-0.93359 1.0586-0.84375 1.1641-0.42969 1.3594-0.38672 0.73438-1.0039 0.47266-0.89062 1.1602-0.15625 1.0195 0.11328h1.4883l1.8203 0.34375 1.3359 0.47266 1.7344-0.36328 1.1055-0.023437 0.89062-0.52734 0.57812-1.1797 0.61719-0.98438 0.6875-0.77734 1.2109-1.2109 0.89062-0.59375 1.4844-0.50391 1.5742-0.82031 1.2109-0.75391 0.57031-0.9375 0.52734-1.0508 0.38672-1.3008 0.32031-1.1875 0.89062-1.8984 0.57031-1.3008 0.98438-1.1875 0.91016-0.57031 1.3945-0.77734 1.7578-0.59375 1.8516-0.34375 1.7305-0.28516-0.03125 0.89453" fill="none" stroke="#fff" stroke-linecap="round" stroke-linejoin="round" stroke-miterlimit="10" stroke-width="2"/>
<path d="m265.88 26.129 0.63281 0.26562 1.1016 0.50781 0.98828 0.89062 0.44922 1.6094 1.0391 1.1328 1.3047 0.96875 1.0898 0.85156 1.0508 0.90625 0.69531 0.78516 0.39844 1.1992 0.39844 1.1562 0.25391 1 0.22656 1.1289-0.054687 1.0273 0.12109 0.99609 0.59766 1.2773 1.0508 0.66797 1.3398 0.32031 1.2109 1.293 1.4297 0.8125 1.043 0.34375 3.2422 0.21484 1.3164-0.14453 0.82812-0.67188 1.1562-0.75391 0.98438-0.23047 0.82812-0.60156 0.94531-0.74219 0.8125-0.64062 0.94531-0.37109 1.043-0.24609 1.0273-0.3125 1.2188-0.074218 0.38281 1.0195-0.33594 1.2852-0.17578 1.1289 1.1836 0.60156 0.85547 0.5625 1.0469 0.63281 1.1406 0.46875 1.2734 0.34766 1.2305 0.40234 1.2773 0.13281 1.1094-0.66797 1.7852 0.050781 1.2852-0.078125 1.1562-0.58984 1.1094-0.85938 1.0742-0.21484 0.875-0.61328 1.1367-0.82031 1.207 0.082031 1.4492 0.66406 0.97266 0.70703 1.1836 0.82031 0.83203 0.96094 0.75781 1.3086 0.82422 0.57031 0.95312 0.89062 0.69922 1.0156 0.82812 1.3047 1.2383 1.0781 0.66797 1.0195 0.50781 0.95312 0.95312 0.57031h1.1094l1.5273-0.47656 1.3008-0.63672 0.98828-0.53906 1.2383 0.22266 1.1758-0.09375 1.6211-0.44531 1.9766-0.42188 1.0703 0.17969 2.2148 0.32812 1.1367 0.48438 1.0742 0.55469 1.2031 0.61719 1.5312 0.45703 1.332 0.30859 1.2383-0.65234 0.58203-1.1016 1.6875-0.73828 1.0195-0.37109 1.6367-0.26172 1.2461-0.16406 1.7266-0.039063 1.3203 0.41016 1.6484 1.0234 1.0625 0.44531 1.4062 0.89453 0.3125 1.3047-0.007813 1.0195-0.16016 1.043-0.72656 1.0352-0.89062 1.1953-0.46875 1.3594-0.30469 1.4531 0.20312 1.0391 0.22656 1.4805 0.42969 1.1406 0.19922 1.4258-0.3125 1.168 0.59766 1.2578 0.79688 1.2266 0.6875 0.99609-0.82812 1.1641 0.054687 1.2305 0.20312 1.457 0.71094 0.96875 0.88281 0.54297 2.082 1.2695 0.92969 0.39844 1.2148 0.60547 2.0898 1.3125 0.91016 0.76562 1.3867 1.332 1.3359 0.40234 1.332-0.29297 0.85547-0.53125 0.91797 0.61328 0.64844 0.78516 1.2617 1.0586 2.4531 1.0547 2.2188 0.98828 0.98828 0.58203 0.375 1.4648-0.14062 1.3008 0.76562 1.2266 1.1172 0.89844 1.3359 0.68359 1.2812 0.51953 2.2656 0.70703 1.8828 0.27344 1.9102 0.054687 2.2891-0.70703 1.9375-0.38281 2.1016-0.19141 1.0898-0.054687 1.7188-0.054688-0.83594 1.1445-1.918 1.1523-2.4609 0.99609-2.3047 1-2.3008 1.3047-1.3086 1.6133 0.15625 2 0.39453 1.1055 0.19531 1.2578-1.4023 1.3984-0.72656 1.5977 0.097656 1.4492-0.097656 1.0625-0.57812 1.5977-1.5469 0.82031-1.4023-0.43359-0.98828-0.44531-0.96875-0.375-1.2539 0.79297-1.3164 0.70312-1.0547 0.79297-1.0117 0.74609-0.61719 1.2305-0.92188 0.63672-2.0898 0.50781-0.96484 0.41797-1.2539 0.21875-0.70312-0.85938-0.28906 1.0352 0.15625 1.0547-0.17578 1.2734-0.83594 1.0781-0.61719 0.92578-0.85547 0.96484-0.8125 0.75-0.46094 1.3594-0.41797 1.0352-0.30859 1.2539 0.46094 1.1875 0.30859 1.5391-0.089844 1.0547-0.35547 1.375-1.0898 4.1797-0.85156 4.8945-0.79297-0.60938-0.55078-0.98828-0.71484-0.875-1.207-0.58203-1.1055-0.87109-0.69141-0.96875-1.0195-1.4141-1.2188-1.9531-0.73828-0.99609-1.2148-1.3633-0.92188-0.66406-1.1797-0.69922-1.082-0.42578-1.3828-0.51953-0.95312-1.3828-0.25781-1.9883-0.17578-2.7305-0.10938-0.99609-1.8633-1.3164-1.4336-0.35156-1.0117-0.62109-1.0781-1.2656-1.1484-0.89062-1.0078-0.74609-0.88672-0.72656-1.0078-0.46875-1.0312-0.9375-0.39844-1.6172 0.21094-1.2422-0.72656-1.1016-1.1953-0.46875-1.3125-0.51562-0.82031-1.2148-1.0312-0.42188-1.6602 0.11719-0.9375 0.69922-1.0078 0.60938-1.8203 1.1836-1.207 0.42969-1.1602-0.75391-1.3164-1.1133-0.93359-0.42969-1.1719 0.48828-1.5078 1.0898-0.69141 1.2188-0.80078 0.64844-1.2461 0.66797-0.96875 0.48047-1.1484 0.22656-1.207-0.68359-1.4922-0.14844-1.1055-0.16406-1.2109 0.089844-1.9023-0.11719-1.5664-0.15234-1.0469-0.15625-0.16797-1.3672-0.76953-1.3672-1.9688-1.668-5.6406-5.4258-5.7266 0.38281-1.0859-0.77344-1.6484-3.2852-1.0703-2.8242-1.8359-2.3477-3.207-1.8398-1.1094-0.64062-1.4609-0.054688-1.3672-0.10938-1.2031-0.30078-1.2031 0.16406-0.65625 0.76562-1.0977 1.1758-1.0117 1.5352-0.87109 0.97656-1.0156-0.82422-1.1992-0.44531-1.8672-1.2266-1.3633-0.33594-1.2812 0.30859-1.3945-0.33594-1.4766-0.61328-1.4492-0.5-1.1797-0.9375-0.98438-1.4414-0.62109-0.98047-1.8203-0.70312-0.64062-0.84375 0.99219-1.2539 0.19531-1.2266 0.30859-2.1953-0.082031-1.043-0.90234-0.8125-0.77734-0.69922-1.1797-1.4492-0.62109-0.90625-0.039063-1.4766 0.10938-1.3945 0.86719-0.79297 0.46484-1.168-1.2383-0.91016-0.53516-1.5391-0.67578-1.1445-0.46875-1.168-0.14062-2.0078 0.14062-1.1172-0.16406-1.1445 0.27734-1.168-0.90625-0.43359-1.7852 0.14062-1.0078 0.33984-1.1445 0.066406-0.35547-0.99219-0.39453-1.2539-0.13281-1.3594-0.20312-1.1758-0.63672-0.94922 0.38672-0.93359 0.49609-1.0117 0.19922-1.1602 0.44531-0.93359 0.50781-1.082-0.61328-1.0977-1.082-0.67188-0.46094-1.293-0.35938-1.0703 0.48047-0.91016 0.59375-0.99219 0.45312-1.1523 0.054687-1.1328-0.65625-1.5781-0.32422-1.5859-0.94531-1.0391-0.57422-0.94531 0.34375-0.96484 1.3984-1.4023 1.2266-0.67188 1.1328-0.26562 1.3242 0.23047 0.51953-1.1328 0.61328-1.2852 1.1133-1.4766 0.74609-0.78906 0.82812-1.4961 1.0156-1.1914 1.0547-0.84375 0.80469-0.82422 1.3047-0.67188 1-0.26953z" fill="#ccc" fill-rule="evenodd"/>
<path d="m265.88 26.129 0.63281 0.26562 1.1016 0.50781 0.98828 0.89062 0.44922 1.6094 1.0391 1.1328 1.3047 0.96875 1.0898 0.85156 1.0508 0.90625 0.69531 0.78516 0.39844 1.1992 0.39844 1.1562 0.25391 1 0.22656 1.1289-0.054687 1.0273 0.12109 0.99609 0.59766 1.2773 1.0508 0.66797 1.3398 0.32031 1.2109 1.293 1.4297 0.8125 1.043 0.34375 3.2422 0.21484 1.3164-0.14453 0.82812-0.67188 1.1562-0.75391 0.98438-0.23047 0.82812-0.60156 0.94531-0.74219 0.8125-0.64062 0.94531-0.37109 1.043-0.24609 1.0273-0.3125 1.2188-0.074218 0.38281 1.0195-0.33594 1.2852-0.17578 1.1289 1.1836 0.60156 0.85547 0.5625 1.0469 0.63281 1.1406 0.46875 1.2734 0.34766 1.2305 0.40234 1.2773 0.13281 1.1094-0.66797 1.7852 0.050781 1.2852-0.078125 1.1562-0.58984 1.1094-0.85938 1.0742-0.21484 0.875-0.61328 1.1367-0.82031 1.207 0.082031 1.4492 0.66406 0.97266 0.70703 1.1836 0.82031 0.83203 0.96094 0.75781 1.3086 0.82422 0.57031 0.95312 0.89062 0.69922 1.0156 0.82812 1.3047 1.2383 1.0781 0.66797 1.0195 0.50781 0.95312 0.95312 0.57031h1.1094l1.5273-0.47656 1.3008-0.63672 0.98828-0.53906 1.2383 0.22266 1.1758-0.09375 1.6211-0.44531 1.9766-0.42188 1.0703 0.17969 2.2148 0.32812 1.1367 0.48438 1.0742 0.55469 1.2031 0.61719 1.5312 0.45703 1.332 0.30859 1.2383-0.65234 0.58203-1.1016 1.6875-0.73828 1.0195-0.37109 1.6367-0.26172 1.2461-0.16406 1.7266-0.039063 1.3203 0.41016 1.6484 1.0234 1.0625 0.44531 1.4062 0.89453 0.3125 1.3047-0.007813 1.0195-0.16016 1.043-0.72656 1.0352-0.89062 1.1953-0.46875 1.3594-0.30469 1.4531 0.20312 1.0391 0.22656 1.4805 0.42969 1.1406 0.19922 1.4258-0.3125 1.168 0.59766 1.2578 0.79688 1.2266 0.6875 0.99609-0.82812 1.1641 0.054687 1.2305 0.20312 1.457 0.71094 0.96875 0.88281 0.54297 2.082 1.2695 0.92969 0.39844 1.2148 0.60547 2.0898 1.3125 0.91016 0.76562 1.3867 1.332 1.3359 0.40234 1.332-0.29297 0.85547-0.53125 0.91797 0.61328 0.64844 0.78516 1.2617 1.0586 2.4531 1.0547 2.2188 0.98828 0.98828 0.58203 0.375 1.4648-0.14062 1.3008 0.76562 1.2266 1.1172 0.89844 1.3359 0.68359 1.2812 0.51953 2.2656 0.70703 1.8828 0.27344 1.9102 0.054687 2.2891-0.70703 1.9375-0.38281 2.1016-0.19141 1.0898-0.054687 1.7188-0.054688-0.83594 1.1445-1.918 1.1523-2.4609 0.99609-2.3047 1-2.3008 1.3047-1.3086 1.6133 0.15625 2 0.39453 1.1055 0.19531 1.2578-1.4023 1.3984-0.72656 1.5977 0.097656 1.4492-0.097656 1.0625-0.57812 1.5977-1.5469 0.82031-1.4023-0.43359-0.98828-0.44531-0.96875-0.375-1.2539 0.79297-1.3164 0.70312-1.0547 0.79297-1.0117 0.74609-0.61719 1.2305-0.92188 0.63672-2.0898 0.50781-0.96484 0.41797-1.2539 0.21875-0.70312-0.85938-0.28906 1.0352 0.15625 1.0547-0.17578 1.2734-0.83594 1.0781-0.61719 0.92578-0.85547 0.96484-0.8125 0.75-0.46094 1.3594-0.41797 1.0352-0.30859 1.2539 0.46094 1.1875 0.30859 1.5391-0.089844 1.0547-0.35547 1.375-1.0898 4.1797-0.85156 4.8945-0.79297-0.60938-0.55078-0.98828-0.71484-0.875-1.207-0.58203-1.1055-0.87109-0.69141-0.96875-1.0195-1.4141-1.2188-1.9531-0.73828-0.99609-1.2148-1.3633-0.92188-0.66406-1.1797-0.69922-1.082-0.42578-1.3828-0.51953-0.95312-1.3828-0.25781-1.9883-0.17578-2.7305-0.10938-0.99609-1.8633-1.3164-1.4336-0.35156-1.0117-0.62109-1.0781-1.2656-1.1484-0.89062-1.0078-0.74609-0.88672-0.72656-1.0078-0.46875-1.0312-0.9375-0.39844-1.6172 0.21094-1.2422-0.72656-1.1016-1.1953-0.46875-1.3125-0.51562-0.82031-1.2148-1.0312-0.42188-1.6602 0.11719-0.9375 0.69922-1.0078 0.60938-1.8203 1.1836-1.207 0.42969-1.1602-0.75391-1.3164-1.1133-0.93359-0.42969-1.1719 0.48828-1.5078 1.0898-0.69141 1.2188-0.80078 0.64844-1.2461 0.66797-0.96875 0.48047-1.1484 0.22656-1.207-0.68359-1.4922-0.14844-1.1055-0.16406-1.2109 0.089844-1.9023-0.11719-1.5664-0.15234-1.0469-0.15625-0.16797-1.3672-0.76953-1.3672-1.9688-1.668-5.6406-5.4258-5.7266 0.38281-1.0859-0.77344-1.6484-3.2852-1.0703-2.8242-1.8359-2.3477-3.207-1.8398-1.1094-0.64062-1.4609-0.054688-1.3672-0.10938-1.2031-0.30078-1.2031 0.16406-0.65625 0.76562-1.0977 1.1758-1.0117 1.5352-0.87109 0.97656-1.0156-0.82422-1.1992-0.44531-1.8672-1.2266-1.3633-0.33594-1.2812 0.30859-1.3945-0.33594-1.4766-0.61328-1.4492-0.5-1.1797-0.9375-0.98438-1.4414-0.62109-0.98047-1.8203-0.70312-0.64062-0.84375 0.99219-1.2539 0.19531-1.2266 0.30859-2.1953-0.082031-1.043-0.90234-0.8125-0.77734-0.69922-1.1797-1.4492-0.62109-0.90625-0.039063-1.4766 0.10938-1.3945 0.86719-0.79297 0.46484-1.168-1.2383-0.91016-0.53516-1.5391-0.67578-1.1445-0.46875-1.168-0.14062-2.0078 0.14062-1.1172-0.16406-1.1445 0.27734-1.168-0.90625-0.43359-1.7852 0.14062-1.0078 0.33984-1.1445 0.066406-0.35547-0.99219-0.39453-1.2539-0.13281-1.3594-0.20312-1.1758-0.63672-0.94922 0.38672-0.93359 0.49609-1.0117 0.19922-1.1602 0.44531-0.93359 0.50781-1.082-0.61328-1.0977-1.082-0.67188-0.46094-1.293-0.35938-1.0703 0.48047-0.91016 0.59375-0.99219 0.45312-1.1523 0.054687-1.1328-0.65625-1.5781-0.32422-1.5859-0.94531-1.0391-0.57422-0.94531 0.34375-0.96484 1.3984-1.4023 1.2266-0.67188 1.1328-0.26562 1.3242 0.23047 0.51953-1.1328 0.61328-1.2852 1.1133-1.4766 0.74609-0.78906 0.82812-1.4961 1.0156-1.1914 1.0547-0.84375 0.80469-0.82422 1.3047-0.67188 1-0.26953 1.5547 0.19531" fill="none" stroke="#fff" stroke-linecap="round" stroke-linejoin="round" stroke-miterlimit="10" stroke-width="2"/>
<path d="m429.73 123.79 0.73047 0.65625 0.62109 1.4219 0.875 1.3516 1.6758 1.4219 1.5703 1.2773 1.2773 1.0547 1.457 1.2422 1.2031 0.58203 1.0586 0.36719 1.5312 1.2734 0.29297 1.2422-0.73047 2.0039-0.69141 1.7891 0.17969 1.0938 0.91406 0.69531 1.3867 0.58203 1.75 0.074219 1.7148 0.17969 0.96484 0.47266 0.80859 1.0117 0.45703 0.9375 0.48047 1.4688 0.17969 1.1133-0.20312 1.2188-1.0391 0.85938-0.88672 0.92578-0.99609 1.1875-1.6055 1.7461-1.293 1.3594-1.293 1.7461-0.3125 0.97656 1.8164 1.1875 1.0781 0.54297 1.1133 0.16406 0.89453 0.55859 1.0586 1.2305 0.44922 1.0586 1.6172 0.44531 1.0586 0.11328 2.0664 0.33203 1.1719 0.50391 0.89062 0.50391 1.3398 0.83594 1.6758 0.5 1.0586 0.78125 0.66797 1.0039 2.1953 1.4258-0.83984 2.8438-0.58203 2.0391-0.51562 1.4844-0.35547 1.0352-0.29297 2.2656-0.32031 1.2266-0.22656 1.4883 0.32031 1.7109-0.98828 0.46875-1.7109 0.23047-1.4922 0.39844-1.6367 0.66406-1.1562-0.42969-1.2852-0.003906-1.3086-0.33594-1.0859-0.19922-0.97656-0.69922-1.0078-0.85547-1.207-0.96875-0.63281-0.80078-0.35547-1.2109-1.125-1.5234-0.32812-1.8555-0.89453-1.457-0.53125-0.89453-0.5625-1.1562-0.94922-0.69922-1.2305-0.29688-1.2305-0.23047-1.5469-0.69922-1.0352-0.55078-0.91406-0.55078-1.0391-0.67969-0.039062-1.0156-0.46875-1.1445-0.125-1.2305-1.3203-0.75781-0.98047-0.26953-1.2578-0.55859-1.168-0.65234-1.5703-1.4922-1.0859-0.59375-0.67969-1.0586-0.92188-1.3828-0.78516-1.4648-0.19141-1.0039-0.62109-1.6289-0.57031-1.1914 0.054687-1.1133 0.24219-1.2734-0.050781-1.1289-0.042969-1.0117 0.27344-1.7383 0.27734-1.5078-0.45703-1.4648-0.96094-0.59375-0.87109-0.5625-0.91406-0.61328-0.38672-0.94531-0.42188-1.0938-0.70312-0.74219 0.097657-1.1055 0.88281-1.125 1.1797-0.85938 1.2227-0.41797 1.0312-0.24219 1.1523-0.95703 0.95703-1.0547 0.83203-1.25 0.95703-1.25 0.66016-1.1289 0.44141-1.6172 0.32031-1.3711 0.61328-1.7148 0.78125-1.1797 0.99609-0.61719z" fill="#ccc" fill-rule="evenodd"/>
<path d="m429.73 123.79 0.73047 0.65625 0.62109 1.4219 0.875 1.3516 1.6758 1.4219 1.5703 1.2773 1.2773 1.0547 1.457 1.2422 1.2031 0.58203 1.0586 0.36719 1.5312 1.2734 0.29297 1.2422-0.73047 2.0039-0.69141 1.7891 0.17969 1.0938 0.91406 0.69531 1.3867 0.58203 1.75 0.074219 1.7148 0.17969 0.96484 0.47266 0.80859 1.0117 0.45703 0.9375 0.48047 1.4688 0.17969 1.1133-0.20312 1.2188-1.0391 0.85938-0.88672 0.92578-0.99609 1.1875-1.6055 1.7461-1.293 1.3594-1.293 1.7461-0.3125 0.97656 1.8164 1.1875 1.0781 0.54297 1.1133 0.16406 0.89453 0.55859 1.0586 1.2305 0.44922 1.0586 1.6172 0.44531 1.0586 0.11328 2.0664 0.33203 1.1719 0.50391 0.89062 0.50391 1.3398 0.83594 1.6758 0.5 1.0586 0.78125 0.66797 1.0039 2.1953 1.4258-0.83984 2.8438-0.58203 2.0391-0.51562 1.4844-0.35547 1.0352-0.29297 2.2656-0.32031 1.2266-0.22656 1.4883 0.32031 1.7109-0.98828 0.46875-1.7109 0.23047-1.4922 0.39844-1.6367 0.66406-1.1562-0.42969-1.2852-0.003906-1.3086-0.33594-1.0859-0.19922-0.97656-0.69922-1.0078-0.85547-1.207-0.96875-0.63281-0.80078-0.35547-1.2109-1.125-1.5234-0.32812-1.8555-0.89453-1.457-0.53125-0.89453-0.5625-1.1562-0.94922-0.69922-1.2305-0.29688-1.2305-0.23047-1.5469-0.69922-1.0352-0.55078-0.91406-0.55078-1.0391-0.67969-0.039062-1.0156-0.46875-1.1445-0.125-1.2305-1.3203-0.75781-0.98047-0.26953-1.2578-0.55859-1.168-0.65234-1.5703-1.4922-1.0859-0.59375-0.67969-1.0586-0.92188-1.3828-0.78516-1.4648-0.19141-1.0039-0.62109-1.6289-0.57031-1.1914 0.054687-1.1133 0.24219-1.2734-0.050781-1.1289-0.042969-1.0117 0.27344-1.7383 0.27734-1.5078-0.45703-1.4648-0.96094-0.59375-0.87109-0.5625-0.91406-0.61328-0.38672-0.94531-0.42188-1.0938-0.70312-0.74219 0.097657-1.1055 0.88281-1.125 1.1797-0.85938 1.2227-0.41797 1.0312-0.24219 1.1523-0.95703 0.95703-1.0547 0.83203-1.25 0.95703-1.25 0.66016-1.1289 0.44141-1.6172 0.32031-1.3711 0.61328-1.7148 0.78125-1.1797 0.99609-0.61719 0.43359 0.84766" fill="none" stroke="#fff" stroke-linecap="round" stroke-linejoin="round" stroke-miterlimit="10" stroke-width="2"/>
<path d="m337.83 109.46 0.51562 0.1875 0.72656 0.86328 1.3594 0.89062 1.1484 0.32812 1.125 0.89062 0.1875 1.1484-0.046875 1.6641 0.82031 1.1953 1.4766 0.82031 0.88672 0.72656 1.0078 0.74609 1.1484 0.89062 1.0781 1.2656 1.0117 0.62109 1.4336 0.35156 1.2852 0.77344 0.6875 1.5391 0.17578 2.7305 0.25781 1.9883 0.95312 1.3828 1.3828 0.51953 1.082 0.42578 1.1797 0.69922 0.92188 0.66406 1.2148 1.3633 0.73828 0.99609 0.66406 1.1445 1.1445 1.4453 0.52734 0.99609 1.207 1.207 0.96094 0.68359 1.0938 0.79297 0.67578 0.80078 0.36328 0.96875 0.375 0.95703-0.13672 1.168 0.8125 1.0586 0.48438 0.98047-0.50781 1.1914-0.33203 0.99219 0.21484 1.2773-0.125 1.3672-0.70703 0.77734-0.94531 0.82031-1.043 0.25391-0.75781 0.80469-1.1367-0.30469-1.1211-0.12109-1.0859-0.36719-0.97656 0.69141-1.0391 0.59766-1.4492 0.75391-1.25 0.64844-1.1328 0.66406-1.043 0.35547-1.5078 0.58203-1.2734 0.4375-1.3945 0.24219-1.1055-0.28516-1.3203-0.17969-1.1758 0.27344-0.62891 1.9883-0.29297 2.1406-0.14844 1.8789-0.8125 1.5508-0.36719 1.5469-0.88672 1.6211-0.99219 0.77344-0.41016 1-0.58984 1.3711-0.074219 1.8516-0.44531 1.0391-1.5547 1.6289-1.1875 0.89062-1.0664 0.46484-1.0703 0.85547-0.98438 0.30469-2.0898 0.19531-1.5352-0.26562-0.92969-0.71484-0.30469-1.2344-0.14453-1.7852-1.1172-0.72656-1.7305 0.16797-1.5898 0.14062-1.5078 0.44531-1.3945 0.16797-0.67188-1.0039-0.16797-1.1992 0.44922-1.0039 0.52734-1.2305 0.54297-1.3984 0.035156-1.2539v-1.0117l0.035156-1.293 0.34766-1.1172 0.34766-1.7422 0.24609-1.3242-0.21094-2.0586-0.27734-1.1523-0.55859-0.97656-0.98828-0.91016-0.94531-0.76562 1.25-5.2266 0.65625-2.0508 0.38672-2.4219 0.96875-2.3828-0.84766-1.9375-1.8984-1.5742-1.0898-0.80859-0.80859-1.0938-0.72656-2.5039-0.76953-4.8477-0.52344-3.0273-0.44531-2.668 0.24219-2.668 0.48438-2.4648 0.40625-2.3008 0.28125-1.8984 0.28516-1.7656 1.1484-0.22656 0.96875-0.48047 1.2461-0.66797 0.80078-0.64844 0.69141-1.2188 1.5078-1.0898 1.1719-0.48828 0.93359 0.42969 0.78906 0.89844 1.1602 0.61719 0.96875 0.44531 1.6758-1.3008 1.1914-0.5 1.125-0.95703 1.5938-0.51562z" fill="#ccc" fill-rule="evenodd"/>
<path d="m337.83 109.46 0.51562 0.1875 0.72656 0.86328 1.3594 0.89062 1.1484 0.32812 1.125 0.89062 0.1875 1.1484-0.046875 1.6641 0.82031 1.1953 1.4766 0.82031 0.88672 0.72656 1.0078 0.74609 1.1484 0.89062 1.0781 1.2656 1.0117 0.62109 1.4336 0.35156 1.2852 0.77344 0.6875 1.5391 0.17578 2.7305 0.25781 1.9883 0.95312 1.3828 1.3828 0.51953 1.082 0.42578 1.1797 0.69922 0.92188 0.66406 1.2148 1.3633 0.73828 0.99609 0.66406 1.1445 1.1445 1.4453 0.52734 0.99609 1.207 1.207 0.96094 0.68359 1.0938 0.79297 0.67578 0.80078 0.36328 0.96875 0.375 0.95703-0.13672 1.168 0.8125 1.0586 0.48438 0.98047-0.50781 1.1914-0.33203 0.99219 0.21484 1.2773-0.125 1.3672-0.70703 0.77734-0.94531 0.82031-1.043 0.25391-0.75781 0.80469-1.1367-0.30469-1.1211-0.12109-1.0859-0.36719-0.97656 0.69141-1.0391 0.59766-1.4492 0.75391-1.25 0.64844-1.1328 0.66406-1.043 0.35547-1.5078 0.58203-1.2734 0.4375-1.3945 0.24219-1.1055-0.28516-1.3203-0.17969-1.1758 0.27344-0.62891 1.9883-0.29297 2.1406-0.14844 1.8789-0.8125 1.5508-0.36719 1.5469-0.88672 1.6211-0.99219 0.77344-0.41016 1-0.58984 1.3711-0.074219 1.8516-0.44531 1.0391-1.5547 1.6289-1.1875 0.89062-1.0664 0.46484-1.0703 0.85547-0.98438 0.30469-2.0898 0.19531-1.5352-0.26562-0.92969-0.71484-0.30469-1.2344-0.14453-1.7852-1.1172-0.72656-1.7305 0.16797-1.5898 0.14062-1.5078 0.44531-1.3945 0.16797-0.67188-1.0039-0.16797-1.1992 0.44922-1.0039 0.52734-1.2305 0.54297-1.3984 0.035156-1.2539v-1.0117l0.035156-1.293 0.34766-1.1172 0.34766-1.7422 0.24609-1.3242-0.21094-2.0586-0.27734-1.1523-0.55859-0.97656-0.98828-0.91016-0.94531-0.76562 1.25-5.2266 0.65625-2.0508 0.38672-2.4219 0.96875-2.3828-0.84766-1.9375-1.8984-1.5742-1.0898-0.80859-0.80859-1.0938-0.72656-2.5039-0.76953-4.8477-0.52344-3.0273-0.44531-2.668 0.24219-2.668 0.48438-2.4648 0.40625-2.3008 0.28125-1.8984 0.28516-1.7656 1.1484-0.22656 0.96875-0.48047 1.2461-0.66797 0.80078-0.64844 0.69141-1.2188 1.5078-1.0898 1.1719-0.48828 0.93359 0.42969 0.78906 0.89844 1.1602 0.61719 0.96875 0.44531 1.6758-1.3008 1.1914-0.5 1.125-0.95703 1.5938-0.51562 0.60547 0.14062" fill="none" stroke="#fff" stroke-linecap="round" stroke-linejoin="round" stroke-miterlimit="10" stroke-width="2"/>
<path d="m282.46 92.074 1.2031 0.30078 1.3672 0.10938 1.4609 0.054688 1.1094 0.64062 3.207 1.8398 1.8359 2.3477 1.0703 2.8242 1.6484 3.2852 1.0859 0.77344 5.3633-0.41016 6.0039 5.4531 1.9688 1.668 0.76953 1.3672 0.16797 1.3672 1.0469 0.15625 1.5664 0.15234 1.0781 0.027344h1.4492l1.1953 0.10547 1.1016-0.042969 1.4023 0.58594 0.40625 2.1133-0.28125 1.8984-0.40625 2.3008-0.48438 2.4648-0.24219 2.668 0.44531 2.668 0.52344 3.0273 0.76953 4.8477 0.72656 2.5039 0.80859 1.0938 1.0898 0.80859 1.293 0.88672 1.293 2.0195-0.80859 2.9883-0.38672 2.4219-0.65625 2.0508-1.5391 4.8281 0.72656 0.72656 1.1836 0.82422 0.87109 1.5 0.27734 1.1523 0.070313 1.1484 0.070312 1.5703-0.55859 1.5352-0.3125 1.9883-0.035156 1.293v1.0117l-0.035156 1.2539-19.469 5.3633-3.0703 0.78516-16.125 2.6211-1.0625-0.19531-1.6133-0.58203-1.875-0.17578-1.4297-0.11328-1.3047-0.46094-2.2734-1.3828-1.7344-0.84766-1.7383-0.50781-2.0117-0.61328-1.0898-0.27734-1.4609-0.18359-1.5977-0.84375-3.1484-0.84375-1.5664-0.50391-2.1289-0.71875-3.0742-1.2109-0.84766-0.55469-0.58984-0.95703 0.61719-0.84375 0.59375-0.91016 1.0469-0.49609 1.0273-0.38672 1.1953-0.10547 0.80469-0.90234 0.81641-1.2539 0.86328-1.3477 0.42188-0.98828 0.44922-1.8906 0.40625-1.0078 0.57422-1.3555-0.10938-1.0547-0.011719-1.1797 0.10938-1.0117 0.70312-1.1953-0.53516-0.88672-1.2188-0.82422-1.5195-0.58203-0.73438-0.73438-1.4844-2.0664-0.82422-0.96094-1.2227-1.3438-0.25781-1.5078 0.54297-1.5117 0.48438-0.96875 0.054687-1.2266-0.11328-1.8242 0.42969-1.2266 1.0234-0.48438 1.0859-0.058594 1.1406 0.027344 1.0547-0.11328 1.2539-0.054687 1.8789-1.6875 0.88672-1.1758 0.625-1.6094 0.25-1.9531 0.058594-1.2852-0.36719-1.2695-1.1953-1.2266-1.4609-0.21875-1.3125-0.074219-0.68359-0.89844-0.16406-1.0781 0.47266-1.168 0.0625-1.2344 0.79688-1.3555 0.28906-2.0586-0.042969-1.6133-0.078125-1.2812 0.19141-1.082 0.36328-0.95703 0.050781-1.3086 0.41406-1.043 0.69141-1.4883 0.5625-1.4531 0.65625-1.3242 0.65234-0.8125 1.0469-1.6484 0.85938-0.67188 0.89062-0.82422 0.87891-0.81641 1.082-0.70703 1.125-0.43359 1.2344-0.71875 0.89453-0.52344 1.2773-1.082 0.875-0.73828 0.90234-1.2578 1.0117-1.5352 1.0977-1.1758 0.65625-0.76562z" fill="#ccc" fill-rule="evenodd"/>
<path d="m282.46 92.074 1.2031 0.30078 1.3672 0.10938 1.4609 0.054688 1.1094 0.64062 3.207 1.8398 1.8359 2.3477 1.0703 2.8242 1.6484 3.2852 1.0859 0.77344 5.3633-0.41016 6.0039 5.4531 1.9688 1.668 0.76953 1.3672 0.16797 1.3672 1.0469 0.15625 1.5664 0.15234 1.0781 0.027344h1.4492l1.1953 0.10547 1.1016-0.042969 1.4023 0.58594 0.40625 2.1133-0.28125 1.8984-0.40625 2.3008-0.48438 2.4648-0.24219 2.668 0.44531 2.668 0.52344 3.0273 0.76953 4.8477 0.72656 2.5039 0.80859 1.0938 1.0898 0.80859 1.293 0.88672 1.293 2.0195-0.80859 2.9883-0.38672 2.4219-0.65625 2.0508-1.5391 4.8281 0.72656 0.72656 1.1836 0.82422 0.87109 1.5 0.27734 1.1523 0.070313 1.1484 0.070312 1.5703-0.55859 1.5352-0.3125 1.9883-0.035156 1.293v1.0117l-0.035156 1.2539-19.469 5.3633-3.0703 0.78516-16.125 2.6211-1.0625-0.19531-1.6133-0.58203-1.875-0.17578-1.4297-0.11328-1.3047-0.46094-2.2734-1.3828-1.7344-0.84766-1.7383-0.50781-2.0117-0.61328-1.0898-0.27734-1.4609-0.18359-1.5977-0.84375-3.1484-0.84375-1.5664-0.50391-2.1289-0.71875-3.0742-1.2109-0.84766-0.55469-0.58984-0.95703 0.61719-0.84375 0.59375-0.91016 1.0469-0.49609 1.0273-0.38672 1.1953-0.10547 0.80469-0.90234 0.81641-1.2539 0.86328-1.3477 0.42188-0.98828 0.44922-1.8906 0.40625-1.0078 0.57422-1.3555-0.10938-1.0547-0.011719-1.1797 0.10938-1.0117 0.70312-1.1953-0.53516-0.88672-1.2188-0.82422-1.5195-0.58203-0.73438-0.73438-1.4844-2.0664-0.82422-0.96094-1.2227-1.3438-0.25781-1.5078 0.54297-1.5117 0.48438-0.96875 0.054687-1.2266-0.11328-1.8242 0.42969-1.2266 1.0234-0.48438 1.0859-0.058594 1.1406 0.027344 1.0547-0.11328 1.2539-0.054687 1.8789-1.6875 0.88672-1.1758 0.625-1.6094 0.25-1.9531 0.058594-1.2852-0.36719-1.2695-1.1953-1.2266-1.4609-0.21875-1.3125-0.074219-0.68359-0.89844-0.16406-1.0781 0.47266-1.168 0.0625-1.2344 0.79688-1.3555 0.28906-2.0586-0.042969-1.6133-0.078125-1.2812 0.19141-1.082 0.36328-0.95703 0.050781-1.3086 0.41406-1.043 0.69141-1.4883 0.5625-1.4531 0.65625-1.3242 0.65234-0.8125 1.0469-1.6484 0.85938-0.67188 0.89062-0.82422 0.87891-0.81641 1.082-0.70703 1.125-0.43359 1.2344-0.71875 0.89453-0.52344 1.2773-1.082 0.875-0.73828 0.90234-1.2578 1.0117-1.5352 1.0977-1.1758 0.65625-0.76562 1.2031-0.16406" fill="none" stroke="#fff" stroke-linecap="round" stroke-linejoin="round" stroke-miterlimit="10" stroke-width="2"/>
<path d="m433.08 118.04 0.78516 0.69141 1.418 1.625 1.2578 0.44922 1.0508-0.17188h1.0469l1.668 0.34766 4.043 0.64062 4.5039 0.48828 1.3789 0.64844 1.8672 1.0547 1.7031 1.2578 1.3398 2.0273 0.57422 1.0352 1.0898 1.6016 1.3789 1.6211 1.582 1.8672 0.89453 0.5625 1.7227 0.12891 1.6055 0.67188 1.0273 0.24219 1.2852 0.14062 1.5938-0.26562 1.1797-0.14453 1.7773-0.19141 1.2148-0.039062 1.6914-1.2305 1.1445-1.0625 1.3047-0.98438 1.3164-0.45312 1.457-0.28516 1.0156-0.16016 2.2852-0.27734 1.3945 0.003906 1-0.16016 0.63281-0.92969 0.86328-1.4141 0.63672-1 0.66016-0.97656 1.0312-0.019531 1.1797 0.45312 1.1289 0.94531 2.0703 0.50781 2.2734-0.35547 1.2539 0.34766 0.99609 0.51953 1.2109 0.95312 0.38281 1.7695-0.48438 1.4883-1.0664 1.375-0.56641 1.2969-0.38672 1.2031-0.60156 1.0352-0.79297 0.66406-0.51953 1.4414-0.25781 1.8047-1.2031 1.6133-0.87891 0.77344-0.94922 0.66797-1.0742 0.53906-0.96875 0.64453-0.49219 1.0977-0.51562 1.0508-0.96875 1.4219-1.6992 0.81641-1.5898 0.51562-1.1172 0.44922-1.7812-0.12109-1.3008-0.066406-1.1719 0.046875-1.1562 0.62109-1.5312-0.375-1.2773 0.12891-0.92969 0.76562-0.71094 0.80859-1.8281 1.1445-0.89062 0.92578-0.41797 0.95312-0.09375 1.2383-0.65625 0.91016-0.91797 0.97656-1.2266 0.19141-0.9375-0.37891-0.38281 0.94922-0.066406 1.4844-0.03125 1.9414-0.16016 1.4531-0.45312 1.3906-0.48438 1.1328-0.67969 0.90625-0.90625 0.45312-3.1016-1.0078-0.66797-1.0039-1.0586-0.78125-1.6758-0.5-1.3398-0.83594-0.89062-0.50391-1.1719-0.50391-2.0664-0.33203-1.0586-0.11328-1.0039-0.16797-1.0625-1.3359-1.0586-1.2305-0.89453-0.55859-1.1133-0.16406-1.0781-0.54297-1.0117-0.69531-0.875-0.73438 1.6758-2.4805 1.293-1.3594 1.6055-1.7461 0.99609-1.1875 0.88672-0.92578 1.0391-0.85938 0.20312-1.2188-0.17969-1.1133-0.48047-1.4688-0.45703-0.9375-0.80859-1.0117-0.96484-0.47266-1.0234-0.17969-1.6484 0.085938-2.1797-0.74219-0.91406-0.69531-0.17969-1.0938 0.36328-0.98438 0.875-1.8594 0.14844-1.6445-1.0586-1.457-1.7891-0.73047-1.2031-0.58203-1.457-1.2422-1.2773-1.0547-1.5703-1.2773-1.6758-1.4219-0.875-1.3516-0.62109-1.4219-1.1641-1.5039 0.76953-1.1719 0.61328-1.1523 1.3984-2.6953z" fill="#ccc" fill-rule="evenodd"/>
<path d="m433.08 118.04 0.78516 0.69141 1.418 1.625 1.2578 0.44922 1.0508-0.17188h1.0469l1.668 0.34766 4.043 0.64062 4.5039 0.48828 1.3789 0.64844 1.8672 1.0547 1.7031 1.2578 1.3398 2.0273 0.57422 1.0352 1.0898 1.6016 1.3789 1.6211 1.582 1.8672 0.89453 0.5625 1.7227 0.12891 1.6055 0.67188 1.0273 0.24219 1.2852 0.14062 1.5938-0.26562 1.1797-0.14453 1.7773-0.19141 1.2148-0.039062 1.6914-1.2305 1.1445-1.0625 1.3047-0.98438 1.3164-0.45312 1.457-0.28516 1.0156-0.16016 2.2852-0.27734 1.3945 0.003906 1-0.16016 0.63281-0.92969 0.86328-1.4141 0.63672-1 0.66016-0.97656 1.0312-0.019531 1.1797 0.45312 1.1289 0.94531 2.0703 0.50781 2.2734-0.35547 1.2539 0.34766 0.99609 0.51953 1.2109 0.95312 0.38281 1.7695-0.48438 1.4883-1.0664 1.375-0.56641 1.2969-0.38672 1.2031-0.60156 1.0352-0.79297 0.66406-0.51953 1.4414-0.25781 1.8047-1.2031 1.6133-0.87891 0.77344-0.94922 0.66797-1.0742 0.53906-0.96875 0.64453-0.49219 1.0977-0.51562 1.0508-0.96875 1.4219-1.6992 0.81641-1.5898 0.51562-1.1172 0.44922-1.7812-0.12109-1.3008-0.066406-1.1719 0.046875-1.1562 0.62109-1.5312-0.375-1.2773 0.12891-0.92969 0.76562-0.71094 0.80859-1.8281 1.1445-0.89062 0.92578-0.41797 0.95312-0.09375 1.2383-0.65625 0.91016-0.91797 0.97656-1.2266 0.19141-0.9375-0.37891-0.38281 0.94922-0.066406 1.4844-0.03125 1.9414-0.16016 1.4531-0.45312 1.3906-0.48438 1.1328-0.67969 0.90625-0.90625 0.45312-3.1016-1.0078-0.66797-1.0039-1.0586-0.78125-1.6758-0.5-1.3398-0.83594-0.89062-0.50391-1.1719-0.50391-2.0664-0.33203-1.0586-0.11328-1.0039-0.16797-1.0625-1.3359-1.0586-1.2305-0.89453-0.55859-1.1133-0.16406-1.0781-0.54297-1.0117-0.69531-0.875-0.73438 1.6758-2.4805 1.293-1.3594 1.6055-1.7461 0.99609-1.1875 0.88672-0.92578 1.0391-0.85938 0.20312-1.2188-0.17969-1.1133-0.48047-1.4688-0.45703-0.9375-0.80859-1.0117-0.96484-0.47266-1.0234-0.17969-1.6484 0.085938-2.1797-0.74219-0.91406-0.69531-0.17969-1.0938 0.36328-0.98438 0.875-1.8594 0.14844-1.6445-1.0586-1.457-1.7891-0.73047-1.2031-0.58203-1.457-1.2422-1.2773-1.0547-1.5703-1.2773-1.6758-1.4219-0.875-1.3516-0.62109-1.4219-1.1641-1.5039 0.76953-1.1719 0.61328-1.1523 1.3984-2.6953 0.99609 0.10938" fill="none" stroke="#fff" stroke-linecap="round" stroke-linejoin="round" stroke-miterlimit="10" stroke-width="2"/>
<path d="m323.92 171.14-0.089844 0.52734-0.52734 1.2305-0.44922 1.0039 0.16797 1.1992 0.67188 1.0039 1.3945-0.16797 1.5078-0.44531 1.5898-0.14062 1.1172-0.16797 1.0312 0.085938 0.71875 1.4805 0.17969 1.5 0.69531 1.2148 2.0195 0.44531 0.91016 1.2188 0.67578 0.87891 1 0.92188 1.2461 0.51172 1.3125 0.16406 1.043-0.14453h1.9609l1.9023 0.18359 2.3516-0.019532 1.3086-0.039062 1.4727 0.32422 1.7383 0.90234 1.2227 0.56641 1.3125 0.35156 1.0234 0.22656 1.043 0.10156 1.4922 0.79688 1.2305 1.6562 1.1445 0.90234 1.3477 0.42969-0.11719 1.4688-0.21484 1.3047 0.50781 0.92969 0.71875 0.76172 1.6016 0.67188 1.7305 0.46484 1.4375 0.46484 1.0938 0.085937 1.6094 0.28516 2.3164-0.45312 1.8164 0.84375 1.4336 0.71484 1.3516 0.71875 0.84375 0.71875 0.54688 1.0117 1.0117 1.8984 1.5625 1.5195 1.0117 1.0547 1.0898 1.4805 0.64844 1.1016 0.84375 1.2734 0.57031 0.91016 1.3516 0.54297 1.0898 1.0781 1.0781 1.4141 0.89453 1.4688 0.30078 1.6758 0.71094 0.85547 1.3984 0.42969-0.125 1.6445 0.14844 1.1992 0.66406 1.2656-0.28125 2.0039-0.48828 1.0742-0.26172 1.0312 0.13672 1.0977 0.96094 0.51953 0.5625 1.1133 0.50391 1.4023 0.30469 1.0977-0.015625 1.0078-0.13672 1.2031-0.15234 1.2969 0.55078 1.0234 0.90625 0.64453 1.3086 0.40234 1 0.050781 1.168 0.26172 1.0977 0.28516 1.2148 0.52344 1.5742 1.3125 0.66406 1.1914 1.1445 0.90234 0.95312 0.62109 1.168 1.2617 1.2148 1.0977 0.97656 0.54688 2.2656 0.55078 1.6211 1.1641 0.57031 2.1445 0.070313 1.5039 0.59766 1.3086 0.30859 1.1875 0.11719 1.5156 0.17578 1.1445-0.38672 1.168-1.0312 1.1445-1.7695 0.62109-1.0859 0.33203-0.91016 0.58203-2.0312 0.39453-1.293-0.027344-1.5039-0.31641-1.0273-0.42188-0.87109 0.58203-0.76562 0.89844-1.3711 0.33984-1.2695 0.082032-1.3164 0.31641-1.2422 0.78906-1.3164 0.027344-1.6133-0.34375-1.1875 0.52734-1.3164 1.1875-0.6875 1.0547-1.1328 1.2695-0.6875 0.87109-2.0039 0.87109-1.5312 1.2109-1.2148 1.1602-1.9531 0.95312-1.6328 1.6094-0.87109 0.78906-1.1367 0.66016-0.76562 1.3984-0.5 1.3477-0.16016 1.5547-0.5 1.293-0.94922 1.0547-0.71094 1.082-0.23828 1.2422-0.71484 1.3438-1.5039 0.60938-1.6602 1.0547-0.60938 0.84375-0.63281 1.2656-1.7266 1.3516-1.2578 1.2305-1.2617 0.77734-1.5586 0.24219-0.62891 0.86719-0.51172 0.96094-0.78125 0.87109-1.2891 1.1992-1.3477 0.87109-0.36328 1.2578 0.09375 1.3516-1.1719 1.2891-0.83984 0.60156-0.92969 1.0195-1.293 1.2305-1.5156 1.082-1.5781-1.2109-0.33594-2.2656 0.058593-1.3633-0.95312-1.082-1.7969-0.69531-1.5117-1.043-1.1016-0.62109-1.5039-0.66797-1.6211-0.58594-0.79688-0.75 0.20703-2.2617 0.35156-1.457 0.36719-1.0039-0.066406-1.1758-0.77344-0.70312-0.78906 0.82031-0.83984 0.82812-0.41406 1.1758-0.69922 0.90625-1.1094-0.28125-1.4102-0.92188-1.3398-0.82812-1.7578-1.3398 0.10547-1.6328-0.59766-1.168-1.3789-0.83594-1.4766 0.31641-1.1484 1.0273-1.168 0.41016-1.5039-0.082031-1.8203-0.35938-1.3477-0.20703-1.3555 0.050781-1.2969 0.17969-0.87109 1.8164-0.74609 1.2539-0.83594 0.88672-1.6797 0.21094-1.8008-0.40625-1.6445-0.24609-1.0469 0.76562-1.0508 1.4297-1.2539 1.0938-1.5312 0.98828-0.49609 1.2031 0.64453 1.1992 0.11328 1.1836-0.5625 1.0508-0.89844 0.5-1.2109 0.33984-0.98047 0.54297-1.9883 0.61328-1.4805 0.44531-0.96875 0.4375-1.1016 0.29297-1.1953-0.40234-0.69141-0.77344-1.5117-1.0391-0.35547-0.96875 0.34375-1.543 0.90234-1.0781-0.27734-0.97656-1.0273-0.51562-0.95312-0.34766-1.2969-0.29297-1.0977-0.42578-1.1953-0.91406-1.4297-0.28516-1.3164-0.10547-1.5352-0.73438-1.4805-0.51172-1.3945-0.84375-1.0234-1.0547-0.71094-1.1289-0.90625-0.90234-1.0078-0.62891-1-0.26953-1.1406 0.27734-0.87891-0.50781-0.95703-0.48438-1.8789 0.37891-1.1875-0.625-1.543-0.54297-1.0898-0.64453-1.0273-0.81641-0.98047-1.0625-0.71094-0.96484-0.97656-0.92188-1.1992-1.2773-0.87109-0.69922-0.91016-0.82422-1.0859-2.0938-0.85156-0.94141-0.85156-0.54297-1.6797-0.65234-1.7383-0.83203-1.5352-0.80078-1.3672 0.25781-1.1172 0.62109-1.3125 0.23828-1.4023 0.26953-1.1406 0.19531-1.2461-0.12891-1.4102-0.72266-1.6758-0.45312-0.92578-0.47656-1.3594-0.39453-1.6406-0.54297-1.1055-0.47266-0.80469-0.98828-0.09375-1.2695-0.39844-1.1484 0.21094-1.0547 1.1133-1.0273 1.7227-0.96875 1.1367-0.87109 0.10156-1.1758-1.1484-1.6523-0.15234-0.99219 0.62109-1.3867-0.37109-1.625-0.027344-1.4492-0.34375-1.0469 1.25-0.22656 0.92969-0.44531 1.0195-0.41797 1.0312 0.042968 1.0664-0.61328 0.92188-0.73047 0.71094-0.82422 0.77734-1.0352 0.82031-0.8125 0.63281-0.79297 0.92188-0.85938 0.63281-1.4531 0.53516-1.0078 0.34766-1.1094 0.60156-0.91797 0.64453-0.96094 0.60547-0.85547 0.67578-1.1602 1.1094-1.8008 0.99219-1.1094 1.9375-0.82812 0.94922-0.32422 1.293-0.16406 1.5469 0.67188 1.0391 0.13672 0.85547-0.80859 0.32031-1.1055 0.09375-1.0859 0.96875-1.4805 0.046875-1.6133-0.27734-1.5273 0.11719-1.7773-0.50781-1.0156-0.94922-0.71484-0.66797-0.94531 0.41406-0.94922 1.0625-1.3867 1.0547-1.2852 0.72266-1.4609 0.16406-2.0664 0.13281-1.2383 1.0273-1.1836 0.94922-0.85938 0.22266-1.0586-0.24609-1.0156-0.11328-1.3555 0.72266-1.1484 0.31641-1.1289-0.8125-1.375-0.36328-1.3086-0.49609-1.6914 0.27344-1.1055 0.76562-0.67578 1.7031-0.69922 1.3555-0.76172 0.46094-1.9648 0.62109-0.96875 1.2148-0.41406 0.85156-1.5742 0.10547-1.1367-0.41406-0.98438 0.10156-1.082 0.57031-1.9922 0.75-1.2148 0.41016-1.3945 0.054687-1.0859 0.92969-1.1602 0.28125-1.3203 0.90625-0.82422 0.95703-0.3125 2.582-0.050782 1.7578-0.59375 0.98047-0.41406 16.125-2.6211 3.0703-0.78516 19.121-4.875z" fill="#ccc" fill-rule="evenodd"/>
<path d="m323.92 171.14-0.089844 0.52734-0.52734 1.2305-0.44922 1.0039 0.16797 1.1992 0.67188 1.0039 1.3945-0.16797 1.5078-0.44531 1.5898-0.14062 1.1172-0.16797 1.0312 0.085938 0.71875 1.4805 0.17969 1.5 0.69531 1.2148 2.0195 0.44531 0.91016 1.2188 0.67578 0.87891 1 0.92188 1.2461 0.51172 1.3125 0.16406 1.043-0.14453h1.9609l1.9023 0.18359 2.3516-0.019532 1.3086-0.039062 1.4727 0.32422 1.7383 0.90234 1.2227 0.56641 1.3125 0.35156 1.0234 0.22656 1.043 0.10156 1.4922 0.79688 1.2305 1.6562 1.1445 0.90234 1.3477 0.42969-0.11719 1.4688-0.21484 1.3047 0.50781 0.92969 0.71875 0.76172 1.6016 0.67188 1.7305 0.46484 1.4375 0.46484 1.0938 0.085937 1.6094 0.28516 2.3164-0.45312 1.8164 0.84375 1.4336 0.71484 1.3516 0.71875 0.84375 0.71875 0.54688 1.0117 1.0117 1.8984 1.5625 1.5195 1.0117 1.0547 1.0898 1.4805 0.64844 1.1016 0.84375 1.2734 0.57031 0.91016 1.3516 0.54297 1.0898 1.0781 1.0781 1.4141 0.89453 1.4688 0.30078 1.6758 0.71094 0.85547 1.3984 0.42969-0.125 1.6445 0.14844 1.1992 0.66406 1.2656-0.28125 2.0039-0.48828 1.0742-0.26172 1.0312 0.13672 1.0977 0.96094 0.51953 0.5625 1.1133 0.50391 1.4023 0.30469 1.0977-0.015625 1.0078-0.13672 1.2031-0.15234 1.2969 0.55078 1.0234 0.90625 0.64453 1.3086 0.40234 1 0.050781 1.168 0.26172 1.0977 0.28516 1.2148 0.52344 1.5742 1.3125 0.66406 1.1914 1.1445 0.90234 0.95312 0.62109 1.168 1.2617 1.2148 1.0977 0.97656 0.54688 2.2656 0.55078 1.6211 1.1641 0.57031 2.1445 0.070313 1.5039 0.59766 1.3086 0.30859 1.1875 0.11719 1.5156 0.17578 1.1445-0.38672 1.168-1.0312 1.1445-1.7695 0.62109-1.0859 0.33203-0.91016 0.58203-2.0312 0.39453-1.293-0.027344-1.5039-0.31641-1.0273-0.42188-0.87109 0.58203-0.76562 0.89844-1.3711 0.33984-1.2695 0.082032-1.3164 0.31641-1.2422 0.78906-1.3164 0.027344-1.6133-0.34375-1.1875 0.52734-1.3164 1.1875-0.6875 1.0547-1.1328 1.2695-0.6875 0.87109-2.0039 0.87109-1.5312 1.2109-1.2148 1.1602-1.9531 0.95312-1.6328 1.6094-0.87109 0.78906-1.1367 0.66016-0.76562 1.3984-0.5 1.3477-0.16016 1.5547-0.5 1.293-0.94922 1.0547-0.71094 1.082-0.23828 1.2422-0.71484 1.3438-1.5039 0.60938-1.6602 1.0547-0.60938 0.84375-0.63281 1.2656-1.7266 1.3516-1.2578 1.2305-1.2617 0.77734-1.5586 0.24219-0.62891 0.86719-0.51172 0.96094-0.78125 0.87109-1.2891 1.1992-1.3477 0.87109-0.36328 1.2578 0.09375 1.3516-1.1719 1.2891-0.83984 0.60156-0.92969 1.0195-1.293 1.2305-1.5156 1.082-1.5781-1.2109-0.33594-2.2656 0.058593-1.3633-0.95312-1.082-1.7969-0.69531-1.5117-1.043-1.1016-0.62109-1.5039-0.66797-1.6211-0.58594-0.79688-0.75 0.20703-2.2617 0.35156-1.457 0.36719-1.0039-0.066406-1.1758-0.77344-0.70312-0.78906 0.82031-0.83984 0.82812-0.41406 1.1758-0.69922 0.90625-1.1094-0.28125-1.4102-0.92188-1.3398-0.82812-1.7578-1.3398 0.10547-1.6328-0.59766-1.168-1.3789-0.83594-1.4766 0.31641-1.1484 1.0273-1.168 0.41016-1.5039-0.082031-1.8203-0.35938-1.3477-0.20703-1.3555 0.050781-1.2969 0.17969-0.87109 1.8164-0.74609 1.2539-0.83594 0.88672-1.6797 0.21094-1.8008-0.40625-1.6445-0.24609-1.0469 0.76562-1.0508 1.4297-1.2539 1.0938-1.5312 0.98828-0.49609 1.2031 0.64453 1.1992 0.11328 1.1836-0.5625 1.0508-0.89844 0.5-1.2109 0.33984-0.98047 0.54297-1.9883 0.61328-1.4805 0.44531-0.96875 0.4375-1.1016 0.29297-1.1953-0.40234-0.69141-0.77344-1.5117-1.0391-0.35547-0.96875 0.34375-1.543 0.90234-1.0781-0.27734-0.97656-1.0273-0.51562-0.95312-0.34766-1.2969-0.29297-1.0977-0.42578-1.1953-0.91406-1.4297-0.28516-1.3164-0.10547-1.5352-0.73438-1.4805-0.51172-1.3945-0.84375-1.0234-1.0547-0.71094-1.1289-0.90625-0.90234-1.0078-0.62891-1-0.26953-1.1406 0.27734-0.87891-0.50781-0.95703-0.48438-1.8789 0.37891-1.1875-0.625-1.543-0.54297-1.0898-0.64453-1.0273-0.81641-0.98047-1.0625-0.71094-0.96484-0.97656-0.92188-1.1992-1.2773-0.87109-0.69922-0.91016-0.82422-1.0859-2.0938-0.85156-0.94141-0.85156-0.54297-1.6797-0.65234-1.7383-0.83203-1.5352-0.80078-1.3672 0.25781-1.1172 0.62109-1.3125 0.23828-1.4023 0.26953-1.1406 0.19531-1.2461-0.12891-1.4102-0.72266-1.6758-0.45312-0.92578-0.47656-1.3594-0.39453-1.6406-0.54297-1.1055-0.47266-0.80469-0.98828-0.09375-1.2695-0.39844-1.1484 0.21094-1.0547 1.1133-1.0273 1.7227-0.96875 1.1367-0.87109 0.10156-1.1758-1.1484-1.6523-0.15234-0.99219 0.62109-1.3867-0.37109-1.625-0.027344-1.4492-0.34375-1.0469 1.25-0.22656 0.92969-0.44531 1.0195-0.41797 1.0312 0.042968 1.0664-0.61328 0.92188-0.73047 0.71094-0.82422 0.77734-1.0352 0.82031-0.8125 0.63281-0.79297 0.92188-0.85938 0.63281-1.4531 0.53516-1.0078 0.34766-1.1094 0.60156-0.91797 0.64453-0.96094 0.60547-0.85547 0.67578-1.1602 1.1094-1.8008 0.99219-1.1094 1.9375-0.82812 0.94922-0.32422 1.293-0.16406 1.5469 0.67188 1.0391 0.13672 0.85547-0.80859 0.32031-1.1055 0.09375-1.0859 0.96875-1.4805 0.046875-1.6133-0.27734-1.5273 0.11719-1.7773-0.50781-1.0156-0.94922-0.71484-0.66797-0.94531 0.41406-0.94922 1.0625-1.3867 1.0547-1.2852 0.72266-1.4609 0.16406-2.0664 0.13281-1.2383 1.0273-1.1836 0.94922-0.85938 0.22266-1.0586-0.24609-1.0156-0.11328-1.3555 0.72266-1.1484 0.31641-1.1289-0.8125-1.375-0.36328-1.3086-0.49609-1.6914 0.27344-1.1055 0.76562-0.67578 1.7031-0.69922 1.3555-0.76172 0.46094-1.9648 0.62109-0.96875 1.2148-0.41406 0.85156-1.5742 0.10547-1.1367-0.41406-0.98438 0.10156-1.082 0.57031-1.9922 0.75-1.2148 0.41016-1.3945 0.054687-1.0859 0.92969-1.1602 0.28125-1.3203 0.90625-0.82422 0.95703-0.3125 2.582-0.050782 1.7578-0.59375 0.98047-0.41406 16.125-2.6211 3.0703-0.78516 19.121-4.875-0.10547 0.38281" fill="none" stroke="#fff" stroke-linecap="round" stroke-linejoin="round" stroke-miterlimit="10" stroke-width="2"/>
<path d="m146.72 57.168 0.27734 0.16406 0.99609 0.79688 0.73047 0.85938 0.24609 1.5547 0.10547 1.1602 0.24609 1.3359 0.35938 0.99219 1.0938 0.94922 1.4375 1.2656 0.65625 0.75391 0.55859 0.97266 0.074219 1.1445-0.48438 1.1445-1.0391 1.4531-0.82031 1.3242-0.64062 1.5586-0.3125 1.1484-0.42969 1.2656-0.097657 1.168 0.097657 1.0938 0.91797 0.67578 1.3203 0.85547 1.0352 0.95703 0.81641 0.60156 1.1875 0.52734 1.4219-0.29297 1.0312-0.44922 1.5781-0.36719 1.2656-0.37109 1.2266 0.058594 1.7109 0.85547 1.5391 0.44922 1.6367 0.69922 1.3984-0.25391 1.3828-0.48438 0.97266 0.25391 0.95703-0.50781 0.097656-1.6367 0.58203-1.2266 1.2461-0.67969 1.1875-0.73828 1.168 0.13672 1.1484 0.34766 1.1094 0.17578 1.1875 0.11719 1.0117 0.62109 1.0547 0.19141 1.0234 0.39453 1.2383-0.39062 1.3594-0.28906 1.1016-0.54297 1.3516-0.10938 1.0586-0.09375 1.4648-0.55469 2.0664-0.71875 1.1055-0.91406 1.1055-1.2266 1.1523-0.16797 1.3047 0.25781 1.0625 0.57031 0.58203 1.1523 0.89453 0.73828 1.168-0.0625 0.88281-0.63281 1.3164-1.0273 1.1523-0.69141h1.1094l1.5977 0.92188 1.2305-0.09375 0.69141-0.78125 0.55469-1.1406 0.80078-0.75391 1.0273-0.79688 1.0625-0.72266 0.875-0.72266 0.44922-0.96875 0.23047-1.1094-0.76953-1.3984-0.37109-0.98438 0.67969-1.293 0.015625-1.0469 1.2266-0.27344 1.4766-0.15625 1.0938 0.98438 0.96875 0.37109 1.6133-0.35547 1.7852 0.015625 0.90625 0.69141 0.83203 1 1.1523 0.58594 1.3398-0.0625 1.2305-0.27734 1.2578 0.046875 1.4922-0.30859 1.168-0.30859 0.98438-0.21484 0.67969-0.89062 1.3203-0.42969 1.0156-0.27734 1.1094 0.12109 0.99609 0.84766 1.4336-0.03125 0.96875 1.0469 0.9375 1.1836 0.61328 0.82812 1.293 0.92578 1.1992 0.41406 1.1562 0.23438 1.1719 1.0586 0.82422 0.67578 0.96875 1.1562 1.2461 1.5156 0.53906 0.85938 0.99609 0.80078 0.80469 0.6875 1.3398 0.81641 1.4453 0.15234 1.1016-0.57031 1.8164-0.48828 1.5742-0.40234 1.0938-0.79297 0.51172 0.98047 0.039063 1.4766 0.62109 0.90625 1.1172 1.2305 0.83984 0.91797 0.90234 0.8125 0.082031 1.043-0.1875 1.6055-0.20703 1.1914-0.54688 1.2383-0.5 0.92578 1.5 0.94141 1.0703 0.5 1 1.5703 0.98047 1.1914 1.3906 0.66797 1.5078 0.61328 1.1953 0.44531 2.1484-0.16797 1.3633 0.33594 1.2539 0.94531 1.4219 0.53125 0.92188 0.64062-0.42188 1.3984-1.2773 1.082-0.89453 0.52344-1.2344 0.71875-0.96875 0.28906-1.2383 0.85156-0.87891 0.81641-0.89062 0.82422-0.85938 0.67188-0.73828 1.1953-0.77344 0.99219-0.84375 1.5977-0.49219 1.3086-0.65234 1.3164-0.47266 1.1523-0.10156 1.5156-0.36328 0.95703-0.19141 1.082 0.078125 1.2812v1.3398l0.0625 1.5703-0.75391 1.2188-0.32422 1.4805-0.40625 1.2578-0.13672 1.3125 0.67969 0.87109 0.98047 0.37109 1.3555 0.1875 1.4453 0.55469 0.70312 2.0312-0.058594 1.2852-0.03125 1.0039-0.67969 2.0703-1.0508 1.6641-1.3008 1.4141-1.832 0.32812-1.0547 0.11328-1.1406-0.027344-1.0859 0.058594-1.0234 0.48438-0.42969 1.2266 0.058594 1.1094 0.054687 1.3711-0.53906 1.5391-0.54297 1.5117 0.25781 1.5078 1.2227 1.3438 0.82422 0.96094 1.2383 1.4414 0.98047 1.3594 1.5195 0.58203 0.94141 0.41016 0.8125 1.3008-0.70312 1.1953-0.10938 1.0117 0.011719 1.1797 0.10938 1.0547-0.33203 0.96094-0.64844 1.4023-0.36719 1.1797-0.28516 1.293-1.082 1.7539-0.81641 1.2539-0.80469 0.90234-1.0938 0.078125-0.98047 0.33594-1.0078 0.49609-0.66797 0.80859-0.73047 1.0234 0.58984 0.95703 0.84766 0.55469 3.0742 1.2109 2.1289 0.71875 1.5664 0.50391 2.2891 0.42969 1.9336 1.2422 1.9844 0.19922 1.0898 0.27734 2.0117 0.61328 1.7383 0.50781 1.043 0.49219 2.1953 1.3203 1.4922 0.70703 2.0117 0.28516 1.875 0.17578 1.2617 0.41016-0.34375 1.2969h-2.6094l-1.9102 0.44141-0.90625 0.82422-0.28125 1.3203-0.80078 0.85156-0.18359 1.3945-0.15234 1.0352-0.62109 0.85156-0.67188 1.8086-0.49219 1.4219 0.51953 1.5508-0.10547 1.1367-0.30859 0.95312-1.0859 0.80469-0.92969 0.47656-0.47656 1.8203-0.80859 1.2266-1.8594 0.84375-1.2109 0.55078-0.56641 1.4883 0.49609 1.6914 0.25 1.0391 0.51953 1.0352 0.47266 0.92578-0.85938 1.3086-0.29297 1.0586 0.33984 1.4219 0.089843 1.2422-1.1953 1.2188-1.0273 1.1836-0.13281 1.2383-0.12891 1.1094-0.23828 1.6797-1.0625 1.4023-1.0859 1.3828-0.71875 1.2969 0.48438 1.2227 0.94922 0.71484 0.50781 1.0156-0.18359 1.293 0.18359 1.1797 0.20703 1.5703-0.73828 1.6406-0.37109 1.2461-0.36719 1.6602-0.85547 0.80859-1.0391-0.13672-1.5469-0.67188-1.293 0.16406-0.94922 0.32422-1.6133 0.62109-0.78516 0.76172-1.2266 1.5938-0.76172 1.25-0.69531 0.96875-0.66797 1.1719-0.81641 1.2656-0.34766 1.1094-0.53516 1.0078-0.63281 1.4531-0.92188 0.85938-0.63281 0.79297-0.82031 0.8125-0.64844 0.87891-0.71484 0.85156-1.0469 0.85938-0.91797 0.58203-1.1797-0.011718-1.0195 0.41797-0.92969 0.44531-1 0.34375-0.99609-0.8125-0.66797-0.87109-0.76562-0.85156-0.28125-1.2852-0.35156-1.0391-0.54297-1.082-1.5352-1.168-0.59375-0.85938-1.6016-1.125-1.7148-1.3086-1.0469-0.75-1.3359-0.42969-0.70703-0.90625 0.10156-1.0508-0.34375-1.3398-0.62891-1.3359-0.55859-0.85938-0.75391-0.76562-1.0859-0.14453-1.1797 0.21875-1.2188 0.058594-1.1133-0.44141-0.88281-0.63281-1.7812 0.21875-1.1367 0.29688-1.5586 0.074219-1.1328-0.26562-1.2305-0.64844-1.0898-0.60156-1.3242-0.69922-2.0664-0.58984-1.4219-0.375-1.707-0.75391-0.94922-0.625-1.2266-1.0469-1.1875-0.83203-0.79297-0.99219-0.21875-1.5977-0.82422-0.90625-1.2148-0.16797-1.1641-0.83203-0.95312-0.35938-1.0977 0.10156-1.0977-0.17188-1.4648 0.32812-1.168 0.33594-1.0547-0.23828-1.2812-0.078125-1.2266 0.32422-0.90625 0.53125-1.6172 0.23438-1.1523 0.41797-0.84766 0.71875-1.2617 0.19141-1.0703-0.26562-0.75781-0.91016-0.11328-1.2305-0.35938-1.9453-0.058594-1.0898-0.68359-1.0586-0.87109-1.0703-1.1055-0.86328-1.2891-0.13281-1.543-0.56641-1.1094-0.77344-0.91406-1.0625-1.1562-0.55078-1.0156-0.03125-1.2773 0.21875-1.2773 0.027344-1.1445-0.16406-1.793-0.47656-1.3984-0.61719-1.4062-0.80078-0.49609-1.2031-0.16797-1.1953-1.1875-0.53516-1.1484-0.17969-1.2266 0.35156-1.5625 1.1758-0.76172 0.64844-1.0078 0.63281-1.1016 0.75781-1.168 0.33594-1.0273-0.28125-0.64062-0.95703 0.019531-1.7148-0.91797-0.90234-1.0742-0.51172-1.1133-1.2734-0.41797-1.2891-0.10938-1.5625-0.50781-0.91016-1.1445-0.62109-1.2383-0.36719 0.21875-0.98438 0.875-1.082 1.0664-1.0742 1.0078-0.82031 0.89844-0.79297 1.0312-0.54297 1.0078-0.63672 1.0469-0.70703 1.5234-1.0039 0.98828-0.43359 1.2305-0.74219 1.5273-0.66797 2.4961-0.65625 1.6875-0.17969 1-0.49219 0.65625-0.94922 0.78906-1.2734 0.57031-1.3867 0.32031-1.0156 0.17578-1.1289 1.2656-0.91406 0.87891-0.5 0.91406-0.93359 1.4492-1.4883 1.3867-1.1992 0.64062-0.83203 0.015625-1.4219-1.2773-1.4727 0.066406-1.4766-0.015625-1.0742 0.74609-1.1289 0.22266-1.0781 0.31641-1.4023-0.003906-1.082 0.023438-2.2812-0.14844-1.5859 0.10938-1.1055-0.21875-1.1797-0.050781-1.5078-1.2344-1.9297-0.25-1.4727-0.75-1.8438-0.042969-1.1875-0.60156-1.2812-0.48438-1.0117-0.98828-0.64844-0.80078-0.8125-0.69141-1.5547-0.32812-1.2539-0.13672-1.0977-0.64062-1.1797-1.2969-0.92969-1.0469-0.84766-1.2578-1.6602-1.0703-1.0195-1.1953-1.2305-0.19531-0.99609-0.49609-0.91016-0.019531-1.1367-0.019531-1.168-0.15234-1.1875-0.52344-0.96484-0.74219-0.83594-0.48438-1.332-0.69922-1.125-1.1367-0.53906-0.77344-0.66016-1.3711-0.54297-0.875-0.48438-0.86719-0.83984-1.1602-0.46484-0.89062-1.1172-0.92969-1.3984-0.99609-0.73047-0.89062-1.0508-0.68359-1.0977-0.83594-0.65234-1.3398-1.3047-0.90625-1.4805-1.2578-1.1875-1.1367-0.54297-1.3945-1.1875-0.78906-1.8867-1.3672-1.1797-0.77344-1.0664-0.74219-0.73438-0.47266-0.89062-0.125-1.0195-0.81641-0.62891-0.64062-1.8438-0.48438-0.94922-0.10156-1.3242-0.48047-1.2266-0.13281-1.5-0.17578-1.2383-0.51172-1.4062-0.78125-1.7383-0.31641-1.1484 0.078125-1.1562-0.31641-1.0586-0.042969-1.0781 0.66406-1.0664 1.2891-0.88281 1.3711-2.2227 0.85156-1.0859 0.77344-2.4531 0.55469-1.2578 0.89453-1.2734 0.93359-1.2578 1.2852-1.4531 1.1758-1.2344 0.78906-0.65625 0.79297-1.2656 0.19531-1.7891-0.16797-1.0078-0.23047-1.957-0.10547-1.0781 0.20703-1.707 0.38672-1.2539 0.51953-1.2227 0.94141-2.0195 1.8125-2.543 0.76562-1.0117 0.41797-1.2891 0.35156-1.4297z" fill="#0a5394" fill-rule="evenodd"/>
<path d="m146.72 57.168 0.27734 0.16406 0.99609 0.79688 0.73047 0.85938 0.24609 1.5547 0.10547 1.1602 0.24609 1.3359 0.35938 0.99219 1.0938 0.94922 1.4375 1.2656 0.65625 0.75391 0.55859 0.97266 0.074219 1.1445-0.48438 1.1445-1.0391 1.4531-0.82031 1.3242-0.64062 1.5586-0.3125 1.1484-0.42969 1.2656-0.097657 1.168 0.097657 1.0938 0.91797 0.67578 1.3203 0.85547 1.0352 0.95703 0.81641 0.60156 1.1875 0.52734 1.4219-0.29297 1.0312-0.44922 1.5781-0.36719 1.2656-0.37109 1.2266 0.058594 1.7109 0.85547 1.5391 0.44922 1.6367 0.69922 1.3984-0.25391 1.3828-0.48438 0.97266 0.25391 0.95703-0.50781 0.097656-1.6367 0.58203-1.2266 1.2461-0.67969 1.1875-0.73828 1.168 0.13672 1.1484 0.34766 1.1094 0.17578 1.1875 0.11719 1.0117 0.62109 1.0547 0.19141 1.0234 0.39453 1.2383-0.39062 1.3594-0.28906 1.1016-0.54297 1.3516-0.10938 1.0586-0.09375 1.4648-0.55469 2.0664-0.71875 1.1055-0.91406 1.1055-1.2266 1.1523-0.16797 1.3047 0.25781 1.0625 0.57031 0.58203 1.1523 0.89453 0.73828 1.168-0.0625 0.88281-0.63281 1.3164-1.0273 1.1523-0.69141h1.1094l1.5977 0.92188 1.2305-0.09375 0.69141-0.78125 0.55469-1.1406 0.80078-0.75391 1.0273-0.79688 1.0625-0.72266 0.875-0.72266 0.44922-0.96875 0.23047-1.1094-0.76953-1.3984-0.37109-0.98438 0.67969-1.293 0.015625-1.0469 1.2266-0.27344 1.4766-0.15625 1.0938 0.98438 0.96875 0.37109 1.6133-0.35547 1.7852 0.015625 0.90625 0.69141 0.83203 1 1.1523 0.58594 1.3398-0.0625 1.2305-0.27734 1.2578 0.046875 1.4922-0.30859 1.168-0.30859 0.98438-0.21484 0.67969-0.89062 1.3203-0.42969 1.0156-0.27734 1.1094 0.12109 0.99609 0.84766 1.4336-0.03125 0.96875 1.0469 0.9375 1.1836 0.61328 0.82812 1.293 0.92578 1.1992 0.41406 1.1562 0.23438 1.1719 1.0586 0.82422 0.67578 0.96875 1.1562 1.2461 1.5156 0.53906 0.85938 0.99609 0.80078 0.80469 0.6875 1.3398 0.81641 1.4453 0.15234 1.1016-0.57031 1.8164-0.48828 1.5742-0.40234 1.0938-0.79297 0.51172 0.98047 0.039063 1.4766 0.62109 0.90625 1.1172 1.2305 0.83984 0.91797 0.90234 0.8125 0.082031 1.043-0.1875 1.6055-0.20703 1.1914-0.54688 1.2383-0.5 0.92578 1.5 0.94141 1.0703 0.5 1 1.5703 0.98047 1.1914 1.3906 0.66797 1.5078 0.61328 1.1953 0.44531 2.1484-0.16797 1.3633 0.33594 1.2539 0.94531 1.4219 0.53125 0.92188 0.64062-0.42188 1.3984-1.2773 1.082-0.89453 0.52344-1.2344 0.71875-0.96875 0.28906-1.2383 0.85156-0.87891 0.81641-0.89062 0.82422-0.85938 0.67188-0.73828 1.1953-0.77344 0.99219-0.84375 1.5977-0.49219 1.3086-0.65234 1.3164-0.47266 1.1523-0.10156 1.5156-0.36328 0.95703-0.19141 1.082 0.078125 1.2812v1.3398l0.0625 1.5703-0.75391 1.2188-0.32422 1.4805-0.40625 1.2578-0.13672 1.3125 0.67969 0.87109 0.98047 0.37109 1.3555 0.1875 1.4453 0.55469 0.70312 2.0312-0.058594 1.2852-0.03125 1.0039-0.67969 2.0703-1.0508 1.6641-1.3008 1.4141-1.832 0.32812-1.0547 0.11328-1.1406-0.027344-1.0859 0.058594-1.0234 0.48438-0.42969 1.2266 0.058594 1.1094 0.054687 1.3711-0.53906 1.5391-0.54297 1.5117 0.25781 1.5078 1.2227 1.3438 0.82422 0.96094 1.2383 1.4414 0.98047 1.3594 1.5195 0.58203 0.94141 0.41016 0.8125 1.3008-0.70312 1.1953-0.10938 1.0117 0.011719 1.1797 0.10938 1.0547-0.33203 0.96094-0.64844 1.4023-0.36719 1.1797-0.28516 1.293-1.082 1.7539-0.81641 1.2539-0.80469 0.90234-1.0938 0.078125-0.98047 0.33594-1.0078 0.49609-0.66797 0.80859-0.73047 1.0234 0.58984 0.95703 0.84766 0.55469 3.0742 1.2109 2.1289 0.71875 1.5664 0.50391 2.2891 0.42969 1.9336 1.2422 1.9844 0.19922 1.0898 0.27734 2.0117 0.61328 1.7383 0.50781 1.043 0.49219 2.1953 1.3203 1.4922 0.70703 2.0117 0.28516 1.875 0.17578 1.2617 0.41016-0.34375 1.2969h-2.6094l-1.9102 0.44141-0.90625 0.82422-0.28125 1.3203-0.80078 0.85156-0.18359 1.3945-0.15234 1.0352-0.62109 0.85156-0.67188 1.8086-0.49219 1.4219 0.51953 1.5508-0.10547 1.1367-0.30859 0.95312-1.0859 0.80469-0.92969 0.47656-0.47656 1.8203-0.80859 1.2266-1.8594 0.84375-1.2109 0.55078-0.56641 1.4883 0.49609 1.6914 0.25 1.0391 0.51953 1.0352 0.47266 0.92578-0.85938 1.3086-0.29297 1.0586 0.33984 1.4219 0.089843 1.2422-1.1953 1.2188-1.0273 1.1836-0.13281 1.2383-0.12891 1.1094-0.23828 1.6797-1.0625 1.4023-1.0859 1.3828-0.71875 1.2969 0.48438 1.2227 0.94922 0.71484 0.50781 1.0156-0.18359 1.293 0.18359 1.1797 0.20703 1.5703-0.73828 1.6406-0.37109 1.2461-0.36719 1.6602-0.85547 0.80859-1.0391-0.13672-1.5469-0.67188-1.293 0.16406-0.94922 0.32422-1.6133 0.62109-0.78516 0.76172-1.2266 1.5938-0.76172 1.25-0.69531 0.96875-0.66797 1.1719-0.81641 1.2656-0.34766 1.1094-0.53516 1.0078-0.63281 1.4531-0.92188 0.85938-0.63281 0.79297-0.82031 0.8125-0.64844 0.87891-0.71484 0.85156-1.0469 0.85938-0.91797 0.58203-1.1797-0.011718-1.0195 0.41797-0.92969 0.44531-1 0.34375-0.99609-0.8125-0.66797-0.87109-0.76562-0.85156-0.28125-1.2852-0.35156-1.0391-0.54297-1.082-1.5352-1.168-0.59375-0.85938-1.6016-1.125-1.7148-1.3086-1.0469-0.75-1.3359-0.42969-0.70703-0.90625 0.10156-1.0508-0.34375-1.3398-0.62891-1.3359-0.55859-0.85938-0.75391-0.76562-1.0859-0.14453-1.1797 0.21875-1.2188 0.058594-1.1133-0.44141-0.88281-0.63281-1.7812 0.21875-1.1367 0.29688-1.5586 0.074219-1.1328-0.26562-1.2305-0.64844-1.0898-0.60156-1.3242-0.69922-2.0664-0.58984-1.4219-0.375-1.707-0.75391-0.94922-0.625-1.2266-1.0469-1.1875-0.83203-0.79297-0.99219-0.21875-1.5977-0.82422-0.90625-1.2148-0.16797-1.1641-0.83203-0.95312-0.35938-1.0977 0.10156-1.0977-0.17188-1.4648 0.32812-1.168 0.33594-1.0547-0.23828-1.2812-0.078125-1.2266 0.32422-0.90625 0.53125-1.6172 0.23438-1.1523 0.41797-0.84766 0.71875-1.2617 0.19141-1.0703-0.26562-0.75781-0.91016-0.11328-1.2305-0.35938-1.9453-0.058594-1.0898-0.68359-1.0586-0.87109-1.0703-1.1055-0.86328-1.2891-0.13281-1.543-0.56641-1.1094-0.77344-0.91406-1.0625-1.1562-0.55078-1.0156-0.03125-1.2773 0.21875-1.2773 0.027344-1.1445-0.16406-1.793-0.47656-1.3984-0.61719-1.4062-0.80078-0.49609-1.2031-0.16797-1.1953-1.1875-0.53516-1.1484-0.17969-1.2266 0.35156-1.5625 1.1758-0.76172 0.64844-1.0078 0.63281-1.1016 0.75781-1.168 0.33594-1.0273-0.28125-0.64062-0.95703 0.019531-1.7148-0.91797-0.90234-1.0742-0.51172-1.1133-1.2734-0.41797-1.2891-0.10938-1.5625-0.50781-0.91016-1.1445-0.62109-1.2383-0.36719 0.21875-0.98438 0.875-1.082 1.0664-1.0742 1.0078-0.82031 0.89844-0.79297 1.0312-0.54297 1.0078-0.63672 1.0469-0.70703 1.5234-1.0039 0.98828-0.43359 1.2305-0.74219 1.5273-0.66797 2.4961-0.65625 1.6875-0.17969 1-0.49219 0.65625-0.94922 0.78906-1.2734 0.57031-1.3867 0.32031-1.0156 0.17578-1.1289 1.2656-0.91406 0.87891-0.5 0.91406-0.93359 1.4492-1.4883 1.3867-1.1992 0.64062-0.83203 0.015625-1.4219-1.2773-1.4727 0.066406-1.4766-0.015625-1.0742 0.74609-1.1289 0.22266-1.0781 0.31641-1.4023-0.003906-1.082 0.023438-2.2812-0.14844-1.5859 0.10938-1.1055-0.21875-1.1797-0.050781-1.5078-1.2344-1.9297-0.25-1.4727-0.75-1.8438-0.042969-1.1875-0.60156-1.2812-0.48438-1.0117-0.98828-0.64844-0.80078-0.8125-0.69141-1.5547-0.32812-1.2539-0.13672-1.0977-0.64062-1.1797-1.2969-0.92969-1.0469-0.84766-1.2578-1.6602-1.0703-1.0195-1.1953-1.2305-0.19531-0.99609-0.49609-0.91016-0.019531-1.1367-0.019531-1.168-0.15234-1.1875-0.52344-0.96484-0.74219-0.83594-0.48438-1.332-0.69922-1.125-1.1367-0.53906-0.77344-0.66016-1.3711-0.54297-0.875-0.48438-0.86719-0.83984-1.1602-0.46484-0.89062-1.1172-0.92969-1.3984-0.99609-0.73047-0.89062-1.0508-0.68359-1.0977-0.83594-0.65234-1.3398-1.3047-0.90625-1.4805-1.2578-1.1875-1.1367-0.54297-1.3945-1.1875-0.78906-1.8867-1.3672-1.1797-0.77344-1.0664-0.74219-0.73438-0.47266-0.89062-0.125-1.0195-0.81641-0.62891-0.64062-1.8438-0.48438-0.94922-0.10156-1.3242-0.48047-1.2266-0.13281-1.5-0.17578-1.2383-0.51172-1.4062-0.78125-1.7383-0.31641-1.1484 0.078125-1.1562-0.31641-1.0586-0.042969-1.0781 0.66406-1.0664 1.2891-0.88281 1.3711-2.2227 0.85156-1.0859 0.77344-2.4531 0.55469-1.2578 0.89453-1.2734 0.93359-1.2578 1.2852-1.4531 1.1758-1.2344 0.78906-0.65625 0.79297-1.2656 0.19531-1.7891-0.16797-1.0078-0.23047-1.957-0.10547-1.0781 0.20703-1.707 0.38672-1.2539 0.51953-1.2227 0.94141-2.0195 1.8125-2.543 0.76562-1.0117 0.41797-1.2891 0.35156-1.4297 0.71484-0.52734" fill="none" stroke="#fff" stroke-linecap="round" stroke-linejoin="round" stroke-miterlimit="10"/>
<path d="m219.55 151.72c0 3.5898-2.9102 6.5-6.5 6.5s-6.5-2.9102-6.5-6.5c0-3.5898 2.9102-6.5 6.5-6.5s6.5 2.9102 6.5 6.5" fill="#28c028" fill-rule="evenodd" stroke="#000" stroke-linecap="round" stroke-linejoin="round" stroke-miterlimit="10"/>
<path d="m68.297 145.72v-16.328h3.3281v13.547h8.2656v2.7812zm13.859 0v-16.469h3.3125v16.469zm6.4375 0v-16.469h4.9844l2.9844 11.234 2.9531-11.234h4.9844v16.469h-3.0938v-12.953l-3.2656 12.953h-3.2031l-3.25-12.953v12.953zm34.047 0h-3.6094l-1.4375-3.7344h-6.5781l-1.3594 3.7344h-3.5312l6.4062-16.469h3.5156zm-6.1094-6.5156-2.2812-6.1094-2.2188 6.1094zm11.578 6.5156v-13.672h-4.875v-2.7969h13.078v2.7969h-4.875v13.672zm25.188 0h-3.6094l-1.4375-3.7344h-6.5781l-1.3594 3.7344h-3.5312l6.4062-16.469h3.5156zm-6.1094-6.5156-2.2812-6.1094-2.2188 6.1094zm7.8281 6.5156v-16.469h4.9844l2.9844 11.234 2.9531-11.234h4.9844v16.469h-3.0938v-12.953l-3.2656 12.953h-3.2031l-3.25-12.953v12.953zm19.219-16.469h6.5781c1.3008 0 2.2695 0.058594 2.9062 0.17188 0.64453 0.10547 1.2188 0.32812 1.7188 0.67188 0.50781 0.34375 0.92969 0.80469 1.2656 1.375 0.34375 0.57422 0.51562 1.2188 0.51562 1.9375 0 0.77344-0.21094 1.4805-0.625 2.125-0.41797 0.63672-0.98047 1.1172-1.6875 1.4375 1 0.29297 1.7656 0.79297 2.2969 1.5 0.53906 0.69922 0.8125 1.5273 0.8125 2.4844 0 0.74219-0.17188 1.4648-0.51562 2.1719-0.34375 0.71094-0.82031 1.2773-1.4219 1.7031-0.60547 0.41797-1.3516 0.67969-2.2344 0.78125-0.55469 0.0625-1.8906 0.10156-4.0156 0.10938h-5.5938zm3.3281 2.75v3.7969h2.1719c1.2891 0 2.0977-0.015625 2.4219-0.046875 0.5625-0.070312 1.0039-0.26953 1.3281-0.59375 0.33203-0.32031 0.5-0.75 0.5-1.2812 0-0.50781-0.14062-0.92188-0.42188-1.2344-0.28125-0.32031-0.69922-0.51953-1.25-0.59375-0.33594-0.03125-1.2812-0.046875-2.8438-0.046875zm0 6.5469v4.3906h3.0781c1.1953 0 1.9531-0.03125 2.2656-0.09375 0.5-0.09375 0.90625-0.3125 1.2188-0.65625s0.46875-0.8125 0.46875-1.4062c0-0.48828-0.12109-0.90625-0.35938-1.25-0.24219-0.34375-0.58984-0.59375-1.0469-0.75-0.44922-0.15625-1.4336-0.23438-2.9531-0.23438zm12.594-0.95312c0-1.6758 0.25-3.0859 0.75-4.2344 0.375-0.83203 0.88281-1.582 1.5312-2.25 0.64453-0.66406 1.3516-1.1602 2.125-1.4844 1.0312-0.4375 2.2188-0.65625 3.5625-0.65625 2.4141 0 4.3516 0.75781 5.8125 2.2656 1.457 1.5 2.1875 3.5938 2.1875 6.2812 0 2.6562-0.72656 4.7344-2.1719 6.2344-1.4375 1.5-3.3711 2.25-5.7969 2.25-2.4492 0-4.3984-0.74219-5.8438-2.2344-1.4375-1.5-2.1562-3.5547-2.1562-6.1719zm3.4219-0.125c0 1.8672 0.42969 3.2812 1.2969 4.25 0.86328 0.96094 1.957 1.4375 3.2812 1.4375 1.3203 0 2.4062-0.47266 3.25-1.4219 0.85156-0.95703 1.2812-2.3906 1.2812-4.2969 0-1.8945-0.41797-3.3047-1.25-4.2344-0.82422-0.92578-1.918-1.3906-3.2812-1.3906-1.375 0-2.4844 0.47656-3.3281 1.4219-0.83594 0.9375-1.25 2.3516-1.25 4.2344zm0 0" fill="none" stroke="#fff" stroke-linecap="round" stroke-linejoin="round" stroke-miterlimit="10" stroke-width="2"/>
<path d="m68.297 145.72v-16.328h3.3281v13.547h8.2656v2.7812zm13.859 0v-16.469h3.3125v16.469zm6.4375 0v-16.469h4.9844l2.9844 11.234 2.9531-11.234h4.9844v16.469h-3.0938v-12.953l-3.2656 12.953h-3.2031l-3.25-12.953v12.953zm34.047 0h-3.6094l-1.4375-3.7344h-6.5781l-1.3594 3.7344h-3.5312l6.4062-16.469h3.5156zm-6.1094-6.5156-2.2812-6.1094-2.2188 6.1094zm11.578 6.5156v-13.672h-4.875v-2.7969h13.078v2.7969h-4.875v13.672zm25.188 0h-3.6094l-1.4375-3.7344h-6.5781l-1.3594 3.7344h-3.5312l6.4062-16.469h3.5156zm-6.1094-6.5156-2.2812-6.1094-2.2188 6.1094zm7.8281 6.5156v-16.469h4.9844l2.9844 11.234 2.9531-11.234h4.9844v16.469h-3.0938v-12.953l-3.2656 12.953h-3.2031l-3.25-12.953v12.953zm19.219-16.469h6.5781c1.3008 0 2.2695 0.058594 2.9062 0.17188 0.64453 0.10547 1.2188 0.32812 1.7188 0.67188 0.50781 0.34375 0.92969 0.80469 1.2656 1.375 0.34375 0.57422 0.51562 1.2188 0.51562 1.9375 0 0.77344-0.21094 1.4805-0.625 2.125-0.41797 0.63672-0.98047 1.1172-1.6875 1.4375 1 0.29297 1.7656 0.79297 2.2969 1.5 0.53906 0.69922 0.8125 1.5273 0.8125 2.4844 0 0.74219-0.17188 1.4648-0.51562 2.1719-0.34375 0.71094-0.82031 1.2773-1.4219 1.7031-0.60547 0.41797-1.3516 0.67969-2.2344 0.78125-0.55469 0.0625-1.8906 0.10156-4.0156 0.10938h-5.5938zm3.3281 2.75v3.7969h2.1719c1.2891 0 2.0977-0.015625 2.4219-0.046875 0.5625-0.070312 1.0039-0.26953 1.3281-0.59375 0.33203-0.32031 0.5-0.75 0.5-1.2812 0-0.50781-0.14062-0.92188-0.42188-1.2344-0.28125-0.32031-0.69922-0.51953-1.25-0.59375-0.33594-0.03125-1.2812-0.046875-2.8438-0.046875zm0 6.5469v4.3906h3.0781c1.1953 0 1.9531-0.03125 2.2656-0.09375 0.5-0.09375 0.90625-0.3125 1.2188-0.65625s0.46875-0.8125 0.46875-1.4062c0-0.48828-0.12109-0.90625-0.35938-1.25-0.24219-0.34375-0.58984-0.59375-1.0469-0.75-0.44922-0.15625-1.4336-0.23438-2.9531-0.23438zm12.594-0.95312c0-1.6758 0.25-3.0859 0.75-4.2344 0.375-0.83203 0.88281-1.582 1.5312-2.25 0.64453-0.66406 1.3516-1.1602 2.125-1.4844 1.0312-0.4375 2.2188-0.65625 3.5625-0.65625 2.4141 0 4.3516 0.75781 5.8125 2.2656 1.457 1.5 2.1875 3.5938 2.1875 6.2812 0 2.6562-0.72656 4.7344-2.1719 6.2344-1.4375 1.5-3.3711 2.25-5.7969 2.25-2.4492 0-4.3984-0.74219-5.8438-2.2344-1.4375-1.5-2.1562-3.5547-2.1562-6.1719zm3.4219-0.125c0 1.8672 0.42969 3.2812 1.2969 4.25 0.86328 0.96094 1.957 1.4375 3.2812 1.4375 1.3203 0 2.4062-0.47266 3.25-1.4219 0.85156-0.95703 1.2812-2.3906 1.2812-4.2969 0-1.8945-0.41797-3.3047-1.25-4.2344-0.82422-0.92578-1.918-1.3906-3.2812-1.3906-1.375 0-2.4844 0.47656-3.3281 1.4219-0.83594 0.9375-1.25 2.3516-1.25 4.2344z" fill-rule="evenodd"/>
</g>
</svg>
