<?xml version="1.0" encoding="UTF-8"?>
<svg width="365pt" height="500pt" version="1.1" viewBox="0 0 365 500" xmlns="http://www.w3.org/2000/svg">
<g id="a">
<rect width="365" height="500" fill="none"/>
<path d="m196.05 193.48 0.42188 0.28516 0.99609 0.65625 0.92969 0.60938-0.35547 1.8906-0.57422 1.3828-0.15234 1.0469-0.18359 1.0469-0.77344 1.2539-0.011719 1.0742 1.4727 0.80859 1.0117 0.26172 0.92578 0.77734 0.68359 0.90234 0.54688 0.95703 0.60547 0.90234 1.0508 0.042968 1.0586-0.84375 0.097656-1.3203 0.34766-0.96875 0.51562-0.96484 1.0898 0.12109 1.0742 1.0508 1.5234 1.3203 0.86328 0.55469 1.3398 1.1719 0.92578 0.78516 1.1953 1.1719 0.67969 0.86719 0.88281 0.80078 0.96875 0.94922 1.0117 0.76172 1.1211 0.30078-0.94141 0.67578-0.25391 0.98438 0.73828 1.3398-0.31641 0.99219-1.2383 0.35547-0.95703 0.62891-0.70703 0.75781 0.73047 1.3125 1.2109 0.60938 1.0625 0.88281 1.0117-0.42969 1.0586-1.1367 1.2148-0.32812 1.6133 0.27734 0.91016 0.55469 0.78516 1.1875 0.62891 0.98438 0.078125 1.1367-0.35547 1.332-0.78906 1.0898 0.96875 0.87109 2.2617 0.20312 0.99219 0.24219 2.0195 0.86719 1.6797 0.625 1.1719 1.0742 1.0703 1.1914-0.019531 1.25 0.039062 1.2148 0.78906 1.1719 1.0078 0.24219 1.0117 0.26172 0.625 0.78906 1.2148 0.44531 1.2695 0.22266 1.0508 0.42188 1.6992 0.38672h2.2031l0.91016 0.5625 0.58594 1.1953 0.96875 0.48438 0.24219 1.3516-0.51953 1.6797-0.65625 0.83203-0.77734 1.1406 0.96484 0.67578 1.2344 0.042969 0.91797 0.47266-0.37891 1.1211 0.37891 1.2773 0.49609 1.4336 0.79297 1.5156 1.2266 0.5625 1.1211 0.38281 0.52344 1.3672 1.4648 0.64844 1.1055 0.47656 0.45703 0.91406 0.28516 1.0898-0.32422 1.332 0.11719 1.2969 0.41016 1.2188-0.26172 1.5977-0.046875 1.0273 0.046875 1.4062-0.16797 1.168 0.19141 1.1211 0.93359 1.1445-1.1562 1.207-0.44141 1.0469 0.71875 0.86719 0.52344 1.043-0.23047 1.2188 0.60938 0.89844 1.3477 0.70703 1.125 0.30469 1.0117 0.67578-0.24219 1.0273-0.61719 1.2305-0.94531 0.50391-0.77344 0.79297-0.48828 0.99609 0.44141 1.5078 0.96875 0.34375 0.47656 0.98438 0.86719 0.85156 1.5742 0.52734 0.87109 0.83594 1.1641 0.45703 0.85156 0.57422 1 0.93359 1.1133 0.67578 0.85547 0.67188-0.23047 1.2266 0.57422 1.0039-0.21875 0.98047 0.54688 1-0.51562 1.1562-0.98438 0.55469-0.61328 0.92578-1.043 0.20312-0.89453 0.66016-1.1016 0.76562-0.68359 1.0391-0.027344 1.0938-1.1172 0.45312-1.0156 0.44922-0.53516 1.0938 0.75391 1.207 0.046875 1.1094 0.33984 0.98047 0.66016 1 0.15625 1.0312 0.625 1.0781-0.097656 1.3555 0.12109 1.0312 0.85547 0.84766 0.45703 1.1914-0.60547 1.5-0.21094 1.082 0.73438 0.94531 0.14062 1.5391-1.1953 0.19922-1.1992 0.23438-0.76172 0.65625-0.70703 1.1602-1.2891-0.36328-0.87109-0.85156-1.2344-0.32812-1.2305 0.14062-0.79688-0.64844-0.38672-1.0586-0.89062-1.3086-0.80078-0.98047-0.27734-1.1367-0.46484-1.1484-1.0664 0.18359-1.0508 0.33984-1.2461-0.39453-1.25-0.82031-1.1719-0.41406-1.4414-0.17578-1.168-0.37891-0.96484-0.77734-1.1133 0.15625-1.2227 0.1875-1.4648 0.80078-1.3008 0.56641-0.56641 0.98438-0.44531 1.0703-1.168 0.51172-0.44141 0.97266-0.015625 1.1953-0.35938 1.207 0.44141 0.91797-0.375 0.95703-0.77734 1.1523-0.90234 0.625-1.3555 0.14062-0.88672 0.75781-0.93359 1.0625-0.51953 1.0352-0.35156 0.94922v1.4922l-0.55859 1.207-0.625 0.90234-1.3203 0.19141-1.0117 0.125-1.0312-0.55469-1.6016-0.32031-0.89453-0.47656-0.96094-0.39062-0.98828-0.26172-1.5547-0.15234-1.2148-0.046875-1.2695-0.054687-1-0.16797-0.55859 0.96484-0.88672 0.50391-0.65625 0.80078-0.77344 0.75781-0.96484 0.46875h-1.0391l-1.2383-0.625-0.67578-0.78516-0.8125-0.71875-0.9375-0.59766-1.2461-0.074219-0.93359-0.36328-0.90625-0.66406-1.0898 0.035156-0.97656-0.34375-1.125 0.53906-0.91406-0.55469-1.1367-1.5-1.2734-0.79688-0.375-1.043-0.94141-0.48828-1.0273 0.57031-1.207 0.73438-1.1719 0.015625-1.2852-0.16406-1.3867-0.046875-1.3672 0.046875-1.4492-0.12891-1.6602 0.16016-1.2539-0.015625 0.19531 1.2383 0.45312 0.89453-0.63281 1.0234-1.0938 0.61328-1.1367 0.84375-1.5273 0.90234-1.1016 0.80469-1.457 0.97656-1.4766-0.36719-0.9375-0.85547-1.0508-0.27734-1.2148-0.59766-1.0195-0.9375-1.457-0.48828-1.0703-0.24219-0.45312-1.1953-0.51562-1.0859-1.1758-0.96094-1.0234-0.78906-0.86719-1.0078-1.1797-0.10547-0.99609-0.28516-0.09375-1.0703-1.3047-0.24219-1.3828-0.61328-1.3438-0.69141-1.4688-0.28516-0.875 0.48828-1.0195 0.26562-1.2266-0.29297-1.3281-0.19531-1.082 0.039062-1.3672 0.44531-1.2656 0.078125-1.0039-0.33984-1.9531 0.51953-1.6562 0.32812-1.1367 0.039063-1.0547-0.84766-1.1602-0.60156-1.082-0.078125-0.10938-1.2852-0.19531-1.2461 0.074219-1.0039-1.0898-0.15234-1.2617-0.03125-1.4609-0.18359-0.94922-0.95312-0.72656-1.0391 0.25-1.332 0.054687-1.0977-0.54297-0.84375 0.09375-1.0586-0.35547-0.96875 0.33203-1.0586-0.59375-1.1641 0.19922-1.2305 0.78125-0.6875-0.42578-0.96094-0.10156-1.0586-0.32422-1.1992-0.25-1.0586-0.41797-1.0898-0.35547-1.2891 0.30078-1.043-0.71875-1.2617-0.81641-0.83203-1.332-1.0391-0.98438-0.49219-1.1914-0.70312-0.49219-0.89844 0.36328-1.3203 0.23438-1.0234 0.25391-1.0039-0.80859-1.1094-0.875-1.6211-0.27734-1.2812-0.91797-0.70312-1.6836-0.29688-1.0898 0.10547-1.0664-0.0625-1.1719-0.76953-0.76953-0.8125-0.32031-1.3438-0.78906-1.5352-1.2656-0.91406-0.91016-0.67578-1.2148-0.45312-0.070312-1.4531 1.2734-1.5156 1.0391-1.5039 0.26953-1.6953 0.65625-2.1602 0.23047-1 0.85156-1.082 0.53906-1.1172-0.50391-1.5391-0.53906-1.6992-0.81641-1.0039 1.4336-0.84375 1.0039-0.61719 0.61719-0.84766 0.46094-1.082 0.42578-2.3516 0.42188-1.2695 0.92578-2.043 0.46094-2.1602 0.73438-2.1953 0.30859-2.5078 0.23047-1.8867 1.6484-0.078125 1.7852-0.16016 1.1992-0.48047 2.1094-0.85156 1.5703-0.90625 1.0938-0.24219h1.6016l1.0938-0.23828 1.1445-0.027344 1.1758 0.32031 0.87891-0.93359 1.0391-0.66797 1.2812-0.45312 1.2773 0.054687 0.98828 0.66797 0.66797 1.0117 1.332-0.37109 0.55859-1.0156 0.1875-1.3867 0.48047-1.4375 0.054688-1.3359-0.13672-1.3047 0.34766-1.1211 0.21484-1.5977 0.21094-1.2031 1.4961-1.5195 1.1445-1.2266 1.1719-0.64062 1.1758-0.37109 1.3594-0.1875 1.707-0.10547 1.2266-0.53516 1.4922 0.48047 0.98828 0.42578h1.2773l1.3359-0.42578 1.0664-0.29297 0.71875-1.0664 0.85156-2.668 1.1133-1.9609 0.69141-1.2734 0.60156-1.0117 0.41797-1.1406 0.33203-1.2695 0.27734-1.043 0.33594-0.97266 0.61328-1.4102 0.94922-1.6641 1.457-1.6641 0.66797-0.87109 0.87109-0.53906 1.457-0.97266 1.2578-0.82031 0.99609-0.64062 1.3867-0.25391 1.1758-0.38672 1.2539-0.64062 0.69141-0.97266 1.207-0.074218 1.0742-0.4375 0.79297-1.2031 1.1797-0.5625 1.0234 0.25391 0.98828 0.33203 1.6211-0.16797 1.0781-0.49219-0.28516-1.6875-0.035156-1.2148 0.99609-0.65625 1.1797-0.25391 1.082-0.050781 1.5352-0.16797 1.1641-0.50781z" fill="#ccc" fill-rule="evenodd"/>
<path d="m196.05 193.48 0.42188 0.28516 0.99609 0.65625 0.92969 0.60938-0.35547 1.8906-0.57422 1.3828-0.15234 1.0469-0.18359 1.0469-0.77344 1.2539-0.011719 1.0742 1.4727 0.80859 1.0117 0.26172 0.92578 0.77734 0.68359 0.90234 0.54688 0.95703 0.60547 0.90234 1.0508 0.042968 1.0586-0.84375 0.097656-1.3203 0.34766-0.96875 0.51562-0.96484 1.0898 0.12109 1.0742 1.0508 1.5234 1.3203 0.86328 0.55469 1.3398 1.1719 0.92578 0.78516 1.1953 1.1719 0.67969 0.86719 0.88281 0.80078 0.96875 0.94922 1.0117 0.76172 1.1211 0.30078-0.94141 0.67578-0.25391 0.98438 0.73828 1.3398-0.31641 0.99219-1.2383 0.35547-0.95703 0.62891-0.70703 0.75781 0.73047 1.3125 1.2109 0.60938 1.0625 0.88281 1.0117-0.42969 1.0586-1.1367 1.2148-0.32812 1.6133 0.27734 0.91016 0.55469 0.78516 1.1875 0.62891 0.98438 0.078125 1.1367-0.35547 1.332-0.78906 1.0898 0.96875 0.87109 2.2617 0.20312 0.99219 0.24219 2.0195 0.86719 1.6797 0.625 1.1719 1.0742 1.0703 1.1914-0.019531 1.25 0.039062 1.2148 0.78906 1.1719 1.0078 0.24219 1.0117 0.26172 0.625 0.78906 1.2148 0.44531 1.2695 0.22266 1.0508 0.42188 1.6992 0.38672h2.2031l0.91016 0.5625 0.58594 1.1953 0.96875 0.48438 0.24219 1.3516-0.51953 1.6797-0.65625 0.83203-0.77734 1.1406 0.96484 0.67578 1.2344 0.042969 0.91797 0.47266-0.37891 1.1211 0.37891 1.2773 0.49609 1.4336 0.79297 1.5156 1.2266 0.5625 1.1211 0.38281 0.52344 1.3672 1.4648 0.64844 1.1055 0.47656 0.45703 0.91406 0.28516 1.0898-0.32422 1.332 0.11719 1.2969 0.41016 1.2188-0.26172 1.5977-0.046875 1.0273 0.046875 1.4062-0.16797 1.168 0.19141 1.1211 0.93359 1.1445-1.1562 1.207-0.44141 1.0469 0.71875 0.86719 0.52344 1.043-0.23047 1.2188 0.60938 0.89844 1.3477 0.70703 1.125 0.30469 1.0117 0.67578-0.24219 1.0273-0.61719 1.2305-0.94531 0.50391-0.77344 0.79297-0.48828 0.99609 0.44141 1.5078 0.96875 0.34375 0.47656 0.98438 0.86719 0.85156 1.5742 0.52734 0.87109 0.83594 1.1641 0.45703 0.85156 0.57422 1 0.93359 1.1133 0.67578 0.85547 0.67188-0.23047 1.2266 0.57422 1.0039-0.21875 0.98047 0.54688 1-0.51562 1.1562-0.98438 0.55469-0.61328 0.92578-1.043 0.20312-0.89453 0.66016-1.1016 0.76562-0.68359 1.0391-0.027344 1.0938-1.1172 0.45312-1.0156 0.44922-0.53516 1.0938 0.75391 1.207 0.046875 1.1094 0.33984 0.98047 0.66016 1 0.15625 1.0312 0.625 1.0781-0.097656 1.3555 0.12109 1.0312 0.85547 0.84766 0.45703 1.1914-0.60547 1.5-0.21094 1.082 0.73438 0.94531 0.14062 1.5391-1.1953 0.19922-1.1992 0.23438-0.76172 0.65625-0.70703 1.1602-1.2891-0.36328-0.87109-0.85156-1.2344-0.32812-1.2305 0.14062-0.79688-0.64844-0.38672-1.0586-0.89062-1.3086-0.80078-0.98047-0.27734-1.1367-0.46484-1.1484-1.0664 0.18359-1.0508 0.33984-1.2461-0.39453-1.25-0.82031-1.1719-0.41406-1.4414-0.17578-1.168-0.37891-0.96484-0.77734-1.1133 0.15625-1.2227 0.1875-1.4648 0.80078-1.3008 0.56641-0.56641 0.98438-0.44531 1.0703-1.168 0.51172-0.44141 0.97266-0.015625 1.1953-0.35938 1.207 0.44141 0.91797-0.375 0.95703-0.77734 1.1523-0.90234 0.625-1.3555 0.14062-0.88672 0.75781-0.93359 1.0625-0.51953 1.0352-0.35156 0.94922v1.4922l-0.55859 1.207-0.625 0.90234-1.3203 0.19141-1.0117 0.125-1.0312-0.55469-1.6016-0.32031-0.89453-0.47656-0.96094-0.39062-0.98828-0.26172-1.5547-0.15234-1.2148-0.046875-1.2695-0.054687-1-0.16797-0.55859 0.96484-0.88672 0.50391-0.65625 0.80078-0.77344 0.75781-0.96484 0.46875h-1.0391l-1.2383-0.625-0.67578-0.78516-0.8125-0.71875-0.9375-0.59766-1.2461-0.074219-0.93359-0.36328-0.90625-0.66406-1.0898 0.035156-0.97656-0.34375-1.125 0.53906-0.91406-0.55469-1.1367-1.5-1.2734-0.79688-0.375-1.043-0.94141-0.48828-1.0273 0.57031-1.207 0.73438-1.1719 0.015625-1.2852-0.16406-1.3867-0.046875-1.3672 0.046875-1.4492-0.12891-1.6602 0.16016-1.2539-0.015625 0.19531 1.2383 0.45312 0.89453-0.63281 1.0234-1.0938 0.61328-1.1367 0.84375-1.5273 0.90234-1.1016 0.80469-1.457 0.97656-1.4766-0.36719-0.9375-0.85547-1.0508-0.27734-1.2148-0.59766-1.0195-0.9375-1.457-0.48828-1.0703-0.24219-0.45312-1.1953-0.51562-1.0859-1.1758-0.96094-1.0234-0.78906-0.86719-1.0078-1.1797-0.10547-0.99609-0.28516-0.09375-1.0703-1.3047-0.24219-1.3828-0.61328-1.3438-0.69141-1.4688-0.28516-0.875 0.48828-1.0195 0.26562-1.2266-0.29297-1.3281-0.19531-1.082 0.039062-1.3672 0.44531-1.2656 0.078125-1.0039-0.33984-1.9531 0.51953-1.6562 0.32812-1.1367 0.039063-1.0547-0.84766-1.1602-0.60156-1.082-0.078125-0.10938-1.2852-0.19531-1.2461 0.074219-1.0039-1.0898-0.15234-1.2617-0.03125-1.4609-0.18359-0.94922-0.95312-0.72656-1.0391 0.25-1.332 0.054687-1.0977-0.54297-0.84375 0.09375-1.0586-0.35547-0.96875 0.33203-1.0586-0.59375-1.1641 0.19922-1.2305 0.78125-0.6875-0.42578-0.96094-0.10156-1.0586-0.32422-1.1992-0.25-1.0586-0.41797-1.0898-0.35547-1.2891 0.30078-1.043-0.71875-1.2617-0.81641-0.83203-1.332-1.0391-0.98438-0.49219-1.1914-0.70312-0.49219-0.89844 0.36328-1.3203 0.23438-1.0234 0.25391-1.0039-0.80859-1.1094-0.875-1.6211-0.27734-1.2812-0.91797-0.70312-1.6836-0.29688-1.0898 0.10547-1.0664-0.0625-1.1719-0.76953-0.76953-0.8125-0.32031-1.3438-0.78906-1.5352-1.2656-0.91406-0.91016-0.67578-1.2148-0.45312-0.070312-1.4531 1.2734-1.5156 1.0391-1.5039 0.26953-1.6953 0.65625-2.1602 0.23047-1 0.85156-1.082 0.53906-1.1172-0.50391-1.5391-0.53906-1.6992-0.81641-1.0039 1.4336-0.84375 1.0039-0.61719 0.61719-0.84766 0.46094-1.082 0.42578-2.3516 0.42188-1.2695 0.92578-2.043 0.46094-2.1602 0.73438-2.1953 0.30859-2.5078 0.23047-1.8867 1.6484-0.078125 1.7852-0.16016 1.1992-0.48047 2.1094-0.85156 1.5703-0.90625 1.0938-0.24219h1.6016l1.0938-0.23828 1.1445-0.027344 1.1758 0.32031 0.87891-0.93359 1.0391-0.66797 1.2812-0.45312 1.2773 0.054687 0.98828 0.66797 0.66797 1.0117 1.332-0.37109 0.55859-1.0156 0.1875-1.3867 0.48047-1.4375 0.054688-1.3359-0.13672-1.3047 0.34766-1.1211 0.21484-1.5977 0.21094-1.2031 1.4961-1.5195 1.1445-1.2266 1.1719-0.64062 1.1758-0.37109 1.3594-0.1875 1.707-0.10547 1.2266-0.53516 1.4922 0.48047 0.98828 0.42578h1.2773l1.3359-0.42578 1.0664-0.29297 0.71875-1.0664 0.85156-2.668 1.1133-1.9609 0.69141-1.2734 0.60156-1.0117 0.41797-1.1406 0.33203-1.2695 0.27734-1.043 0.33594-0.97266 0.61328-1.4102 0.94922-1.6641 1.457-1.6641 0.66797-0.87109 0.87109-0.53906 1.457-0.97266 1.2578-0.82031 0.99609-0.64062 1.3867-0.25391 1.1758-0.38672 1.2539-0.64062 0.69141-0.97266 1.207-0.074218 1.0742-0.4375 0.79297-1.2031 1.1797-0.5625 1.0234 0.25391 0.98828 0.33203 1.6211-0.16797 1.0781-0.49219-0.28516-1.6875-0.035156-1.2148 0.99609-0.65625 1.1797-0.25391 1.082-0.050781 1.5352-0.16797 1.1641-0.50781 0.25391 0.070313" fill="none" stroke="#fff" stroke-linecap="round" stroke-linejoin="round" stroke-miterlimit="10" stroke-width="2"/>
<path d="m173.19 0.058594 0.38672 0.10938 1.1094 0.28906 1.4258 0.17969 1.2344 0.48828 1.2773 1.293 0.16016 1.6719-0.10938 1.5469 0.96094 1.0664 1.918 0.37109 1.0938 0.1875 0.82812 0.72266 1.332 0.79688 1.5195-0.10547 1.2266-0.32031 1.8672 0.87891 1.0938 1.4688 1.0117 1.4375 2.0547 2.5352 1.0664 1.1719 1.1211 1.0938 1.0117 1.4414 1.4922 0.53125 0.88281 1.8125-0.054687 3.0391 0.027343 1.3672 1.293 1.668 1.0234 0.87891 1.1875 1.7461 0.74609 0.74219 1.1562 1.0781 1.1289 0.92188 0.75 0.95703 1.043 0.125 1.043-0.51953 1.0234 0.45703 0.98047 0.83594 1.0664 0.48047-0.10547 1.6484-0.082031 1.3594 0.0625 1.293-0.48047 1.2539-0.375 1.0625-0.042969 2.1523v1.1055l-0.25 1.043-0.1875 1.4609 0.6875 1.1289 1.1289 0.71094 1.2539-0.125 1.0781 0.14844 1.7188 0.45312 0.875-0.48828 1.1367 0.39844 1.0938 1.2891 0.20703 1.5352-0.70703 1.0078 0.11328 1.1875 0.015625 1.5195 0.24219 1.4727 0.24609 1.418 0.95312 1.1094 0.9375 0.99219 0.6875 0.92969 1.0742 0.21484-0.45312 1.3906-0.25781 1.2461 0.51562 1.3672 0.14453 1.6875 0.37109 1.1133-0.83594 1.4141-1.2305 0.86719-1.6211 0.60938-1.0898 0.39062-1.207 0.42188-0.36328 1.0039 0.38672 1.2383-0.33203 1.1094-0.46484 1.5742-0.62109 0.87891-0.77344 0.74609-0.86328 0.53125-0.91797 0.82422-0.15234 1.0703-0.23438 1.0586 0.80078 0.76172 1.7812 0.90234 0.95312 0.50391 0.78906 0.92969 0.8125 1.0938 1.2891 0.78906 1.8047 0.070312 1.1953 0.058594 0.98438-0.58203 1.0195-0.76172 1.1758-0.10156 1.3555 0.21875 1.5859 0.76172 0.78516 0.65625 1.2266 0.45312 1.2383 0.28516 1.2383 0.39844 1.2148 0.29688 1.5586 0.51562 1.1992 0.46484 1.3164-0.30859 1.2383-0.25781 1.4453 0.15234 0.69531 0.77344 0.33594 1.4492-0.24219 1.4805-0.41406 1.0195-0.30469 1 0.21094 1.2383 0.25781 1.1797-0.33984 0.96875 0.30469 1.5156 1.0664 0.88672 1.4492 0.53125 1 0.53125 1.4531 0.71094 0.83594 1 1.4961 1.3906 0.99609 1.2891-0.039062 1.293-0.73047 1.2227-0.73438 0.76953-1.0234 0.45703-0.96484 0.50391-1.457 0.046875-0.53125 0.91797-0.027344 1.0391-0.31641 1.0938-1.4414 0.75-1.2812-0.16016-1.0508 0.015625 0.61719 1.5977 1.3672 0.82031 0.99609 0.31641 1.2188 0.78125 1.293 0.50781 1.125 0.58984 0.47656 1.5469-0.10938 1.0586 0.44922 1.5 0.64844 0.90625 1.4062 0.67188 1.4336 0.62109 1.1836 0.70312 0.42188 0.95703-0.39453 1.2344 0.25391 1.0703 0.47656 1.3789 0.76172 0.84375 1.207 0.53516 1.4922 0.30859 0.98438 0.98438 0.78906 0.89844 1.4062 0.30859 0.16797 1.2695-0.50781 0.95312-1.0391 0.84375-1.0703 0.62109-0.81641 1.0977-1.0117 0.39062-1.0117 0.33984-1.1523 0.61719-1.125 1.3516-0.53516 2.4453 0.027344 1.6875 0.50781 0.98438 0.73047 1.5469 0.17188 1.0234-0.64844 0.94531 0.94141 1.3359 1.1523 0.625 1.2266 0.36719 0.8125 0.75781 1.3867 1.125 1.0469 0.5 1.0469 0.28516 0.99219 1.125 0.33984 1.0977-0.027344 1.3359-0.12891 1.0977-0.4375 1.9102-0.19141 1.5703-0.12891 1.4648 0.023438 1.4375 0.52344 1.0195 1.4648 1.5703 1.5195 0.39453 1.4297 0.60547 0.58203 1.4336 0.61328 1.4102-0.082031 2.0781-0.77344 1.0391 0.16016 1.1719 0.82031 1.3125 1.1797 0.30469 1.3281 0.11719 1.4961 0.59766 1.0234 0.71094 0.89062 1.0352 0.64453 1.3047 0.63281 1.3906 0.85156 1.0859 1.0625 0.69922-0.20703 1.1133 0.12891 1.4258 0.54297 1.1094 0.52734 1.4648 0.19922 0.99609 0.75 0.82812 1.3711 0.23438 1.3711-0.51953 1.8672 0.36328 0.77344 0.69922 0.1875 1.1641 0.73047 1.3203 1.082 1.3203-0.0625 1.2734-0.89062 1.2578-0.91016 0.66797-0.054688 1.6602-0.25 1.9727-0.09375 1.5625 0.15625 1.6289 0.0625 1.3477-0.4375 1.0312-0.625 0.9375-0.87891 0.97266-0.94922 0.86719-1.1992-0.20312-1.3008-0.25781-1.457 0.015625-0.94141 0.53125-0.64453 1.543-0.55859 1.0391-0.26172 1.3359-0.38281 1.3711 0.046875 1.3672 0.03125 1.3789-0.15234 1.6836-0.375 1.2266-1.0898 0.71484-1.8242 0.32812-1.8633 1.2188-1.6562 1.0195-1.832 0.78906-1.0625 0.21094-1.8945-0.48828-1.8086-0.76562-1.1914 0.14844-0.70312 0.76562-0.38281 0.95703-0.40234 1.1289-0.95703 0.38281-0.83203 0.78516-0.74219 1.6602-0.91797 0.80859-0.5 0.88281-0.91016 0.87109-0.83984 1.3008-0.53906 1.3203-1.4375 1.1992-1.0273 0.35938-1.4492 0.60156-1.3945-0.26562-0.58594-0.86719-1.1523-1.0898h-2.2031l-1.0117-0.32422-1.0273-0.20312-1.4766-0.48438-1.293-0.14062-0.70703-1.0312-1.3555-0.34375-1.0078-0.24219-0.78906-1.1719-0.039062-1.2148 0.019531-1.25-1.0703-1.1914-0.78906-0.80859-1.1719-0.56641-2.2656-0.87109-1.6367-0.5625-1.3516-0.12109-1.3359-0.18359-0.38281-1.2734 0.99219-0.92969-0.085937-1.3164-0.32812-1.4141-0.75781-1.1367-0.75781-0.78125-1.2852-0.35547-1.5664-0.023437-0.96094 0.58203-0.96094 1.1328-1.0352-0.17578-0.91016-0.98438-1.4141-0.68359-0.15234-1.2109 1.0391-0.78125 0.95703-0.40625 1.125-0.58203-0.26953-1.1719-0.39844-1.3711 0.94141-0.84375-0.9375-0.55078-1.0117-0.76172-0.96875-0.94922-0.88281-0.80078-0.67969-0.86719-0.90625-0.86328-1.2148-1.0938-0.82422-0.76172-1.3789-0.96484-0.90625-0.80469-0.98828-0.88672-1.1328-0.73828-1.0703 0.51172-0.45312 1.3594-0.097656 1.3203-0.80859 0.70312-1.0742 0.25781-0.83203-1.0625-0.54688-0.95703-0.68359-0.90234-0.92578-0.77734-1.0117-0.26172-1.2891-0.59375-0.30859-1.0469 0.65625-1.1094 0.38672-0.96094 0.13672-1.0977 0.26953-1.0117 0.77344-1.6875-0.45312-1.3516-0.98047-0.58984-0.96094-0.60547-1.418 0.4375-1.5352 0.16797-1.082 0.050781-1.1797 0.25391-0.99609 0.65625 0.035156 1.2148 0.32031 1.2656-1.1133 0.91406-1.1328 0.16797-1.4766-0.33203-1.0234-0.25391-1.1797 0.5625-0.79297 1.2031-1.0742 0.4375-1.0508-0.28125-0.71875 1.0742-1.125 0.64062-1.4336 0.64062-1.3867 0.25391-0.99609 0.64062-1.2578 0.82031-1.457 0.97266-0.87109 0.53906-0.66797 0.87109-1.0234 1.1016-1.0508 1.6367-0.61328 1.1016-0.66797 1.8711-0.27734 1.0391-0.33203 1.2734-0.41797 1.1406-0.60156 1.0117-0.69141 1.2734-0.67578 1.1562-1.0234 2.8047-0.58594 1.5195-1.4648 0.50781-1.3359 0.42578h-1.2773l-0.98828-0.42578-0.90625-0.42578-1.1484 0.375-1.7031 0.15625-1.1484 0.027344-2.0547 0.58594-1.1719 0.64062-0.80078 0.66797-1.3594 1.332-0.61328 1.1992-0.027344 1.4688-0.53125 1.5195 0.054688 1.7852-0.054688 1.3359-0.48047 1.4375-0.34766 0.96094-0.39844 1.4414-1.332 0.37109-0.66797-1.0117-0.98828-0.66797-1.2773-0.054687-1.2812 0.45312-1.0391 0.66797-0.87891 0.93359-1.1758-0.32031-1.1445 0.027344-1.0938 0.23828-1.1992-0.13281-1.043 0.21484-2.0234 1.0664-1.1484 0.61328-1.4922 0.37109-1.4688 0.61328-1.8125-0.53125-1.1406 0.027343-0.91016-0.53516-2.3984-1.2539-1.2266-0.77344-0.48047-0.98438 0.13281-1.0664 0.054688-1.4922-0.53125-1.2031-1.3633-0.69141-1.0664-0.082031-1.0117 0.10938-1.4414-0.054687-1.1445-0.1875-1.3594-0.34375-1.0938-0.375-1.2266-0.58594-1.332-1.3867-1.2266-0.8125-1.7344-0.30469-1.0469-0.86328-0.52344-1.4141-0.52344-1.0195 0.52344-1.1289 0.097656-1.0039-0.042968-1.1914-0.33984-1.2734-0.46484-1.2305-0.69531-1.1992-0.53516-1.2461 0.19531-1.1758 0.59766-0.94531-0.28516-1.0898-1.2734-0.86328-0.80469-0.62109 0.070312-1.1484 0.49609-1.0898-1.0469-0.57812-0.86328-0.56641-0.41016-1.0625-1.1875-0.37891-1.2461 0.28125-1.0742 0.41016-0.90625-0.69141-0.59375-0.82031-1.0742-0.52344-1.2031 0.14062-1.1055 0.15625-1.8516-0.58203-1.3008-0.76172-0.99219-1.1055-1.2031-0.80469-1.2422-0.51172-1.1055-0.21094-1.2578-0.042969-1.2188 0.18359-1.0586-0.097657-0.26953-1.0195-0.46875-0.98828-1.0859-0.33984-1.3164-0.26953-0.90625 0.72266-0.82812 0.61328-1.1445-0.53516-0.93359-0.96094-0.74609-0.85156-0.48047-0.90625-0.37109-0.96094-1.4141 0.58594-1.043 1.043-0.98438 0.47656-1.2539-0.74609-0.85156-0.77344-0.72266-1.0938-0.93359-0.58594-1.1445-0.55859-0.96094-0.42578-1.5469-0.21484-1.0117-0.61328-0.21484-1.5469-0.39844-1.0391-0.90625-0.71875-1.6016-0.58594-0.95703-0.85547 0.42578-1.2539-0.93359-1.0391-0.1875-1.0938-0.078125-1.5977-1.4141-1.043-0.96094-1.1992-0.26562-1.5703-1.1016-1.4609-0.83594-0.85156-0.96094-0.85547-0.12109-1.0625-0.25781-1.1758-0.50391-0.98828-0.77734-0.68359 0.011719-1.543 0.29688-1.4102 1.0742-1.9688 0.62891-1.4453-0.92578-1.0391-1.5586-2.0039-1.0742-0.55469-1.8242-0.40625-0.68359-1.3008-0.97266-1.9766-0.79688-0.76953-0.97656-0.29297-0.97266-0.65234-0.50391-1.3594 0.12109-1.0039 0.050781-1.4375-0.89844-1.0938-0.64844-1.5078-0.96094-1.4648-0.53516-1.1758-0.29297-1.3047 0.61328-1.3867-0.078125-1.8672-0.13281-2.6133v-1.6523l0.078125-1.1992 0.1875-1.1211 1.0117-1.7578 0.1875-1.2266 0.86328-1.4727 0.55078-1.7266-0.375-1.0703-0.82422-0.61328-0.48047-0.87891-1.8945-1.0664-1.0117-0.98438 0.050781-1.0664 0.32031-1.1484 0.054687-1.1992-0.71875-1.8672-0.16016-1.2539 0.39844-2.1836 0.74609-1.3086 0.45312-1.4922-0.027343-1.6016-0.023438-1.0391-0.10156-1.2617-0.11328-1.3398 0.30469-2.5234-0.38281-1.5312-0.11328-1.418 0.34375-1.6055 0.19141-1.3047-0.21094-3.6406 0.59375-1.8672 1.1836-3.7539 0.61328-1.3008 1.2656-2.2188 0.76172-0.91797 0.92188-1.1875-0.26953-2.2969-0.53516-1.0312 1.2227-0.61328h1.1133l1.2227-0.34375 1.875-0.34375 0.95703-1.1484 0.80469-1.1133 1.1875-0.87891 1.375-0.42188 1.1875-0.91797 0.9375-0.54297 1.0664-0.53125 1.2227-0.76172 0.42578-0.92578-2.4102-1.4453-1.2812-0.6875-0.95703-0.66016-1.9609-1.7891-0.88281-0.70312-1.3477-0.18359-1.1406-0.15234-1.0273-0.17578-1.3047 0.050781-1.1016-0.65625-0.98828-0.35938-0.6875-0.92188-0.85547-0.84766-1.375-0.89844-1.1172-0.76953-1.25-0.64844-0.94141-1.0312-1.793-2.0312 0.69141-2.0586 0.42188-0.94922 0.83203-0.83203 1.9453 0.30469 1.7578 0.35156h1.5469l1.4766-0.14062 1.0938 0.53125 1.7539 0.62891 2.1797 0.42188 1.4414-0.66797 1.1602-0.035156 0.5625 1.0547 2.2148 1.6172 2.2852 2.0391 3.6211 2.25 1.125 0.49219 1.2266 0.24219 1.5391 0.4375 2.7617 0.21484 1.6523 0.36328 1.7969 0.53516 1.0078 0.14844 1.6914 0.12891 1.8398 0.47266 2.3555 0.019531 1.0664-0.066406 1.0312-0.66406 1.1875 0.12891 1.1562 0.015625 1.0898-0.36719 0.78516 0.66406 0.95312 0.42578 2.2539 0.64062 1.4648 0.45312 1.0195 0.050781 1.7148 0.16797h1.4141l2.9922 0.17969 1.8125 0.22266 1.1094 0.50391 1.2773 0.74219 0.94531 0.59766 1.6758 0.67969 2.5547-0.035156 1.5586-0.37891 1.6016-0.42578 1.3789-0.70703 1.4453-0.50391 1.0391-0.47266 0.77344-0.97266 1.0781-0.64062 1.8555 0.25391 1.0859 0.24609 1.4922 0.71094 1.625-0.35547 1.5703-0.31641 0.94141-0.64062 0.90625-1.1055 0.53906-1.8164 0.70312-0.82812 1.9492-0.58594 1.1797-0.76953 1.1758-0.64062 1.0391-0.64453 1.4453-0.36328 1.9492-0.46875 1.5156-1.2461 1.0391-0.50391 1.5469-1.0078 2.8906-2.5195 1.7148-1.2109 1.0078-1.3125 1.0781-1.207 0.60938-1.0938 0.23047-1.1953-0.60547-1.0742 0.93359-1.6914 0.65625-1.8242 0.46875-1.9023 0.26953-1.125 0.62109-1.707 0.46484-1.0898 0.15625-1.2031 0.66016-0.77344 1.2031-1.7109 0.3125-1.5898 1.4727-1.7461 0.11719-1.125 0.19531-1.2422 0.15234-2.293-0.15234-1.6289-0.42969-2.0938-0.11328-2.2539-0.58203-1.9023-0.73828-1.125 0.62109-0.8125 1.4727-0.73828 1.9414-1.125 2.2695-1.7188 0.64062-1.1172 0.77734-1.2812 0.3125-0.96875 1.3516-0.875 1.2383-1.0195 1.7734-0.86719 1.4805-1.5898 1.1641-1.6602 0.40625-1.0352 1.3711-1.2461 2.1641-0.03125 1.2305 1.0625 0.89844 0.53516 1.0352-0.46875 1.4648-0.42969 0.9375-1.0469 0.66406-0.94531 0.37891-1.0938 1.125-0.64844 1.0117-0.85156z" fill="#ccc" fill-rule="evenodd"/>
<path d="m173.19 0.058594 0.38672 0.10938 1.1094 0.28906 1.4258 0.17969 1.2344 0.48828 1.2773 1.293 0.16016 1.6719-0.10938 1.5469 0.96094 1.0664 1.918 0.37109 1.0938 0.1875 0.82812 0.72266 1.332 0.79688 1.5195-0.10547 1.2266-0.32031 1.8672 0.87891 1.0938 1.4688 1.0117 1.4375 2.0547 2.5352 1.0664 1.1719 1.1211 1.0938 1.0117 1.4414 1.4922 0.53125 0.88281 1.8125-0.054687 3.0391 0.027343 1.3672 1.293 1.668 1.0234 0.87891 1.1875 1.7461 0.74609 0.74219 1.1562 1.0781 1.1289 0.92188 0.75 0.95703 1.043 0.125 1.043-0.51953 1.0234 0.45703 0.98047 0.83594 1.0664 0.48047-0.10547 1.6484-0.082031 1.3594 0.0625 1.293-0.48047 1.2539-0.375 1.0625-0.042969 2.1523v1.1055l-0.25 1.043-0.1875 1.4609 0.6875 1.1289 1.1289 0.71094 1.2539-0.125 1.0781 0.14844 1.7188 0.45312 0.875-0.48828 1.1367 0.39844 1.0938 1.2891 0.20703 1.5352-0.70703 1.0078 0.11328 1.1875 0.015625 1.5195 0.24219 1.4727 0.24609 1.418 0.95312 1.1094 0.9375 0.99219 0.6875 0.92969 1.0742 0.21484-0.45312 1.3906-0.25781 1.2461 0.51562 1.3672 0.14453 1.6875 0.37109 1.1133-0.83594 1.4141-1.2305 0.86719-1.6211 0.60938-1.0898 0.39062-1.207 0.42188-0.36328 1.0039 0.38672 1.2383-0.33203 1.1094-0.46484 1.5742-0.62109 0.87891-0.77344 0.74609-0.86328 0.53125-0.91797 0.82422-0.15234 1.0703-0.23438 1.0586 0.80078 0.76172 1.7812 0.90234 0.95312 0.50391 0.78906 0.92969 0.8125 1.0938 1.2891 0.78906 1.8047 0.070312 1.1953 0.058594 0.98438-0.58203 1.0195-0.76172 1.1758-0.10156 1.3555 0.21875 1.5859 0.76172 0.78516 0.65625 1.2266 0.45312 1.2383 0.28516 1.2383 0.39844 1.2148 0.29688 1.5586 0.51562 1.1992 0.46484 1.3164-0.30859 1.2383-0.25781 1.4453 0.15234 0.69531 0.77344 0.33594 1.4492-0.24219 1.4805-0.41406 1.0195-0.30469 1 0.21094 1.2383 0.25781 1.1797-0.33984 0.96875 0.30469 1.5156 1.0664 0.88672 1.4492 0.53125 1 0.53125 1.4531 0.71094 0.83594 1 1.4961 1.3906 0.99609 1.2891-0.039062 1.293-0.73047 1.2227-0.73438 0.76953-1.0234 0.45703-0.96484 0.50391-1.457 0.046875-0.53125 0.91797-0.027344 1.0391-0.31641 1.0938-1.4414 0.75-1.2812-0.16016-1.0508 0.015625 0.61719 1.5977 1.3672 0.82031 0.99609 0.31641 1.2188 0.78125 1.293 0.50781 1.125 0.58984 0.47656 1.5469-0.10938 1.0586 0.44922 1.5 0.64844 0.90625 1.4062 0.67188 1.4336 0.62109 1.1836 0.70312 0.42188 0.95703-0.39453 1.2344 0.25391 1.0703 0.47656 1.3789 0.76172 0.84375 1.207 0.53516 1.4922 0.30859 0.98438 0.98438 0.78906 0.89844 1.4062 0.30859 0.16797 1.2695-0.50781 0.95312-1.0391 0.84375-1.0703 0.62109-0.81641 1.0977-1.0117 0.39062-1.0117 0.33984-1.1523 0.61719-1.125 1.3516-0.53516 2.4453 0.027344 1.6875 0.50781 0.98438 0.73047 1.5469 0.17188 1.0234-0.64844 0.94531 0.94141 1.3359 1.1523 0.625 1.2266 0.36719 0.8125 0.75781 1.3867 1.125 1.0469 0.5 1.0469 0.28516 0.99219 1.125 0.33984 1.0977-0.027344 1.3359-0.12891 1.0977-0.4375 1.9102-0.19141 1.5703-0.12891 1.4648 0.023438 1.4375 0.52344 1.0195 1.4648 1.5703 1.5195 0.39453 1.4297 0.60547 0.58203 1.4336 0.61328 1.4102-0.082031 2.0781-0.77344 1.0391 0.16016 1.1719 0.82031 1.3125 1.1797 0.30469 1.3281 0.11719 1.4961 0.59766 1.0234 0.71094 0.89062 1.0352 0.64453 1.3047 0.63281 1.3906 0.85156 1.0859 1.0625 0.69922-0.20703 1.1133 0.12891 1.4258 0.54297 1.1094 0.52734 1.4648 0.19922 0.99609 0.75 0.82812 1.3711 0.23438 1.3711-0.51953 1.8672 0.36328 0.77344 0.69922 0.1875 1.1641 0.73047 1.3203 1.082 1.3203-0.0625 1.2734-0.89062 1.2578-0.91016 0.66797-0.054688 1.6602-0.25 1.9727-0.09375 1.5625 0.15625 1.6289 0.0625 1.3477-0.4375 1.0312-0.625 0.9375-0.87891 0.97266-0.94922 0.86719-1.1992-0.20312-1.3008-0.25781-1.457 0.015625-0.94141 0.53125-0.64453 1.543-0.55859 1.0391-0.26172 1.3359-0.38281 1.3711 0.046875 1.3672 0.03125 1.3789-0.15234 1.6836-0.375 1.2266-1.0898 0.71484-1.8242 0.32812-1.8633 1.2188-1.6562 1.0195-1.832 0.78906-1.0625 0.21094-1.8945-0.48828-1.8086-0.76562-1.1914 0.14844-0.70312 0.76562-0.38281 0.95703-0.40234 1.1289-0.95703 0.38281-0.83203 0.78516-0.74219 1.6602-0.91797 0.80859-0.5 0.88281-0.91016 0.87109-0.83984 1.3008-0.53906 1.3203-1.4375 1.1992-1.0273 0.35938-1.4492 0.60156-1.3945-0.26562-0.58594-0.86719-1.1523-1.0898h-2.2031l-1.0117-0.32422-1.0273-0.20312-1.4766-0.48438-1.293-0.14062-0.70703-1.0312-1.3555-0.34375-1.0078-0.24219-0.78906-1.1719-0.039062-1.2148 0.019531-1.25-1.0703-1.1914-0.78906-0.80859-1.1719-0.56641-2.2656-0.87109-1.6367-0.5625-1.3516-0.12109-1.3359-0.18359-0.38281-1.2734 0.99219-0.92969-0.085937-1.3164-0.32812-1.4141-0.75781-1.1367-0.75781-0.78125-1.2852-0.35547-1.5664-0.023437-0.96094 0.58203-0.96094 1.1328-1.0352-0.17578-0.91016-0.98438-1.4141-0.68359-0.15234-1.2109 1.0391-0.78125 0.95703-0.40625 1.125-0.58203-0.26953-1.1719-0.39844-1.3711 0.94141-0.84375-0.9375-0.55078-1.0117-0.76172-0.96875-0.94922-0.88281-0.80078-0.67969-0.86719-0.90625-0.86328-1.2148-1.0938-0.82422-0.76172-1.3789-0.96484-0.90625-0.80469-0.98828-0.88672-1.1328-0.73828-1.0703 0.51172-0.45312 1.3594-0.097656 1.3203-0.80859 0.70312-1.0742 0.25781-0.83203-1.0625-0.54688-0.95703-0.68359-0.90234-0.92578-0.77734-1.0117-0.26172-1.2891-0.59375-0.30859-1.0469 0.65625-1.1094 0.38672-0.96094 0.13672-1.0977 0.26953-1.0117 0.77344-1.6875-0.45312-1.3516-0.98047-0.58984-0.96094-0.60547-1.418 0.4375-1.5352 0.16797-1.082 0.050781-1.1797 0.25391-0.99609 0.65625 0.035156 1.2148 0.32031 1.2656-1.1133 0.91406-1.1328 0.16797-1.4766-0.33203-1.0234-0.25391-1.1797 0.5625-0.79297 1.2031-1.0742 0.4375-1.0508-0.28125-0.71875 1.0742-1.125 0.64062-1.4336 0.64062-1.3867 0.25391-0.99609 0.64062-1.2578 0.82031-1.457 0.97266-0.87109 0.53906-0.66797 0.87109-1.0234 1.1016-1.0508 1.6367-0.61328 1.1016-0.66797 1.8711-0.27734 1.0391-0.33203 1.2734-0.41797 1.1406-0.60156 1.0117-0.69141 1.2734-0.67578 1.1562-1.0234 2.8047-0.58594 1.5195-1.4648 0.50781-1.3359 0.42578h-1.2773l-0.98828-0.42578-0.90625-0.42578-1.1484 0.375-1.7031 0.15625-1.1484 0.027344-2.0547 0.58594-1.1719 0.64062-0.80078 0.66797-1.3594 1.332-0.61328 1.1992-0.027344 1.4688-0.53125 1.5195 0.054688 1.7852-0.054688 1.3359-0.48047 1.4375-0.34766 0.96094-0.39844 1.4414-1.332 0.37109-0.66797-1.0117-0.98828-0.66797-1.2773-0.054687-1.2812 0.45312-1.0391 0.66797-0.87891 0.93359-1.1758-0.32031-1.1445 0.027344-1.0938 0.23828-1.1992-0.13281-1.043 0.21484-2.0234 1.0664-1.1484 0.61328-1.4922 0.37109-1.4688 0.61328-1.8125-0.53125-1.1406 0.027343-0.91016-0.53516-2.3984-1.2539-1.2266-0.77344-0.48047-0.98438 0.13281-1.0664 0.054688-1.4922-0.53125-1.2031-1.3633-0.69141-1.0664-0.082031-1.0117 0.10938-1.4414-0.054687-1.1445-0.1875-1.3594-0.34375-1.0938-0.375-1.2266-0.58594-1.332-1.3867-1.2266-0.8125-1.7344-0.30469-1.0469-0.86328-0.52344-1.4141-0.52344-1.0195 0.52344-1.1289 0.097656-1.0039-0.042968-1.1914-0.33984-1.2734-0.46484-1.2305-0.69531-1.1992-0.53516-1.2461 0.19531-1.1758 0.59766-0.94531-0.28516-1.0898-1.2734-0.86328-0.80469-0.62109 0.070312-1.1484 0.49609-1.0898-1.0469-0.57812-0.86328-0.56641-0.41016-1.0625-1.1875-0.37891-1.2461 0.28125-1.0742 0.41016-0.90625-0.69141-0.59375-0.82031-1.0742-0.52344-1.2031 0.14062-1.1055 0.15625-1.8516-0.58203-1.3008-0.76172-0.99219-1.1055-1.2031-0.80469-1.2422-0.51172-1.1055-0.21094-1.2578-0.042969-1.2188 0.18359-1.0586-0.097657-0.26953-1.0195-0.46875-0.98828-1.0859-0.33984-1.3164-0.26953-0.90625 0.72266-0.82812 0.61328-1.1445-0.53516-0.93359-0.96094-0.74609-0.85156-0.48047-0.90625-0.37109-0.96094-1.4141 0.58594-1.043 1.043-0.98438 0.47656-1.2539-0.74609-0.85156-0.77344-0.72266-1.0938-0.93359-0.58594-1.1445-0.55859-0.96094-0.42578-1.5469-0.21484-1.0117-0.61328-0.21484-1.5469-0.39844-1.0391-0.90625-0.71875-1.6016-0.58594-0.95703-0.85547 0.42578-1.2539-0.93359-1.0391-0.1875-1.0938-0.078125-1.5977-1.4141-1.043-0.96094-1.1992-0.26562-1.5703-1.1016-1.4609-0.83594-0.85156-0.96094-0.85547-0.12109-1.0625-0.25781-1.1758-0.50391-0.98828-0.77734-0.68359 0.011719-1.543 0.29688-1.4102 1.0742-1.9688 0.62891-1.4453-0.92578-1.0391-1.5586-2.0039-1.0742-0.55469-1.8242-0.40625-0.68359-1.3008-0.97266-1.9766-0.79688-0.76953-0.97656-0.29297-0.97266-0.65234-0.50391-1.3594 0.12109-1.0039 0.050781-1.4375-0.89844-1.0938-0.64844-1.5078-0.96094-1.4648-0.53516-1.1758-0.29297-1.3047 0.61328-1.3867-0.078125-1.8672-0.13281-2.6133v-1.6523l0.078125-1.1992 0.1875-1.1211 1.0117-1.7578 0.1875-1.2266 0.86328-1.4727 0.55078-1.7266-0.375-1.0703-0.82422-0.61328-0.48047-0.87891-1.8945-1.0664-1.0117-0.98438 0.050781-1.0664 0.32031-1.1484 0.054687-1.1992-0.71875-1.8672-0.16016-1.2539 0.39844-2.1836 0.74609-1.3086 0.45312-1.4922-0.027343-1.6016-0.023438-1.0391-0.10156-1.2617-0.11328-1.3398 0.30469-2.5234-0.38281-1.5312-0.11328-1.418 0.34375-1.6055 0.19141-1.3047-0.21094-3.6406 0.59375-1.8672 1.1836-3.7539 0.61328-1.3008 1.2656-2.2188 0.76172-0.91797 0.92188-1.1875-0.26953-2.2969-0.53516-1.0312 1.2227-0.61328h1.1133l1.2227-0.34375 1.875-0.34375 0.95703-1.1484 0.80469-1.1133 1.1875-0.87891 1.375-0.42188 1.1875-0.91797 0.9375-0.54297 1.0664-0.53125 1.2227-0.76172 0.42578-0.92578-2.4102-1.4453-1.2812-0.6875-0.95703-0.66016-1.9609-1.7891-0.88281-0.70312-1.3477-0.18359-1.1406-0.15234-1.0273-0.17578-1.3047 0.050781-1.1016-0.65625-0.98828-0.35938-0.6875-0.92188-0.85547-0.84766-1.375-0.89844-1.1172-0.76953-1.25-0.64844-0.94141-1.0312-1.793-2.0312 0.69141-2.0586 0.42188-0.94922 0.83203-0.83203 1.9453 0.30469 1.7578 0.35156h1.5469l1.4766-0.14062 1.0938 0.53125 1.7539 0.62891 2.1797 0.42188 1.4414-0.66797 1.1602-0.035156 0.5625 1.0547 2.2148 1.6172 2.2852 2.0391 3.6211 2.25 1.125 0.49219 1.2266 0.24219 1.5391 0.4375 2.7617 0.21484 1.6523 0.36328 1.7969 0.53516 1.0078 0.14844 1.6914 0.12891 1.8398 0.47266 2.3555 0.019531 1.0664-0.066406 1.0312-0.66406 1.1875 0.12891 1.1562 0.015625 1.0898-0.36719 0.78516 0.66406 0.95312 0.42578 2.2539 0.64062 1.4648 0.45312 1.0195 0.050781 1.7148 0.16797h1.4141l2.9922 0.17969 1.8125 0.22266 1.1094 0.50391 1.2773 0.74219 0.94531 0.59766 1.6758 0.67969 2.5547-0.035156 1.5586-0.37891 1.6016-0.42578 1.3789-0.70703 1.4453-0.50391 1.0391-0.47266 0.77344-0.97266 1.0781-0.64062 1.8555 0.25391 1.0859 0.24609 1.4922 0.71094 1.625-0.35547 1.5703-0.31641 0.94141-0.64062 0.90625-1.1055 0.53906-1.8164 0.70312-0.82812 1.9492-0.58594 1.1797-0.76953 1.1758-0.64062 1.0391-0.64453 1.4453-0.36328 1.9492-0.46875 1.5156-1.2461 1.0391-0.50391 1.5469-1.0078 2.8906-2.5195 1.7148-1.2109 1.0078-1.3125 1.0781-1.207 0.60938-1.0938 0.23047-1.1953-0.60547-1.0742 0.93359-1.6914 0.65625-1.8242 0.46875-1.9023 0.26953-1.125 0.62109-1.707 0.46484-1.0898 0.15625-1.2031 0.66016-0.77344 1.2031-1.7109 0.3125-1.5898 1.4727-1.7461 0.11719-1.125 0.19531-1.2422 0.15234-2.293-0.15234-1.6289-0.42969-2.0938-0.11328-2.2539-0.58203-1.9023-0.73828-1.125 0.62109-0.8125 1.4727-0.73828 1.9414-1.125 2.2695-1.7188 0.64062-1.1172 0.77734-1.2812 0.3125-0.96875 1.3516-0.875 1.2383-1.0195 1.7734-0.86719 1.4805-1.5898 1.1641-1.6602 0.40625-1.0352 1.3711-1.2461 2.1641-0.03125 1.2305 1.0625 0.89844 0.53516 1.0352-0.46875 1.4648-0.42969 0.9375-1.0469 0.66406-0.94531 0.37891-1.0938 1.125-0.64844 1.0117-0.85156h0.78906" fill="none" stroke="#fff" stroke-linecap="round" stroke-linejoin="round" stroke-miterlimit="10" stroke-width="2"/>
<path d="m241.39 309.88 0.25391 0.14453 1.1797 0.85547 1.1875 0.30859 1.3906 0.039063 1.332 0.90625 1.332 0.59375 1.1328-0.027344 1.1055-0.36719 0.87891 0.73438 0.22656 1.0508 0.52734 1.0977 0.78516 0.98438 0.70703 1.3359 0.39844 0.96875 1.0625 0.12109 1.2148-0.027344 1.2891 0.82031 1.3438 0.69141 0.96094-1.2695 0.76172-0.65625 1.1992-0.23438 1.2344-0.054688 0.94141 0.58203 1.0352 0.83594 0.21484 1.3672 0.92578 0.46094 1.7227 0.32031 0.99609 1.0156 0.71094 1.082-0.054688 1.1367 0.46094 1.0508 0.67578 0.80078 0.14453 1.2422-0.60547 1.0664-0.69141 0.92578-0.17969 1.3125-0.51562 1.0508-0.51562 0.99609-0.56641 0.88672-0.375 1.0469-0.71094 0.71094 0.49609 1.3516 0.83594 0.58594 0.78125 0.71094 0.625 1.2109-0.39062 1.1523 0.14062 1.1758 0.92578 0.69141 1.0117 0.16016 0.90625 0.81641 0.81641 1.5117 0.57031 1.2461 0.72656 0.78125-0.30078 1.1367-0.85156 0.62109 1.1172 1.0156 0.66016 0.76172 0.33984 1.6211 0.88281 1.625-0.30078 1.2656-1.3984 0.47266-1.4297-0.12891-0.97656-0.48828-0.78125 0.94922-0.86328 0.91016-0.80859 0.67578-1.0938 0.11719-1.4297-0.10156-1.0352-0.10156-1.3125 0.10156-1.3711 0.35938-1.0352 0.375-1.4297-0.11328-1.4688-0.62109-1.1406-0.49219-1.1953 0.10156-0.9375 0.51953-0.96484 0.35938-1.0078 0.76562-0.69141 0.90625-1.0977 0.83594-0.80469 0.70703 0.027344 1.082-0.66406 0.86328-0.99219 0.41797-1.0117 0.80859-0.51953 1.0508-1.0508 1.3008-0.80859 1.0352-0.92188 0.50391-1.5117 1.0547-0.42969 0.96094-0.625 1.4023-0.85547 1.0898-0.73828 1.0117-0.85938 0.82031-1.2852 0.99219-0.90625 0.90625-1.0938 1.4961-0.58984 1.0117-0.44531 1.2617-0.0625 1.0742-0.52734 1.1172-0.52344 1.2227-0.10547 1.0547-0.94922 0.75391-0.10547 1.1406-0.019531 1.3477 0.42188 1.2852 0.33594 1.3281 0.019531 1.0508-0.42188 1.0977-0.27344 0.96875-0.47656 1.8086 0.18359 1.1602 0.71484 0.86328 0.78125 1.0508 1.0078 0.21094 0.25391 0.98047-0.92969 0.74219-0.46094 1.3164-0.85938 1.0234-0.89844 0.88281-0.73047 0.79688-0.83594 0.78906-0.99609 0.91016-0.60547 0.89062-0.33203 1.0312-0.61328 1.2227-0.76953 0.93359-0.64844 0.96484-0.73047 0.87109-0.43359 0.95312-0.91797 0.94141-0.88672 1.2031-0.27344 1.2109-0.40234 0.92578-1.1172 1.0938-0.91797 0.87109-0.77344 1.082-2.1289-0.13281-1.2578 0.19531-1.3125 0.089844 0.27344-1.2422 0.52734-1.3672 0.33594-1.6328-0.62891-0.93359-0.78125-0.96484-0.51562-1.2539-0.46094-0.97656-0.55469-0.98438 0.29688-1.0117 0.10156-1.2305-0.90625-0.77344-1.0117-0.45703-1.1602-0.19531-1.0859 0.14453-0.80469-0.70703-0.15625-1.4258-0.20703-1.9141-0.56641-1.3672-0.68359-0.79688-0.61719-0.91406-0.77344-1.0703-0.36328-0.95703-0.18359-1.0234-0.59375-1.0469-1.0938-1.3906-1.1602-0.73047-0.91016-0.84375-0.33203-1.0273-0.47266-0.92578-0.64844-0.88672-1.0078-1.1797-0.65234-0.98828-0.09375-1.0234-0.45312-1.457-0.53125-1.0625-0.55078-1.3008-0.86719-1.1406-0.78906-1.0039-0.76562-0.66797-0.86719-1.0664-0.86719-0.82422-1.1602-0.84375-1.0273-0.45312-0.97266 0.26172-0.41797 1.1016-0.74609 0.82031-0.98047-0.3125-0.65234-0.97656 0.078125 1.1133 0.25781 1.1719-1.1602 0.64062-1.0156-0.77344-1.0273-1.4805-0.70703-1.3867-0.10938-1.1016 0.34375-1.5898 0.41797-1.1602-0.41797-0.97656-0.48828-1.1367-0.54297-0.88672-0.50391-1.7891-0.47266-1.8711-0.20312-1.4336 0.082031-1.293 0.042969-1.0977-0.16797-1.0703-0.27734-1.0547 0.16016-1.1641-0.17969-1.1094-0.23438-1.207 0.14453-1.1133-0.12109-1.293-0.64062-1.0625-0.61719-0.83203-0.15625-1.2148 0.38281-1.0273 0.21094-1.168-1.0156-0.625-0.59375-0.91016-0.74219-0.95703-0.74219-0.79297 0.43359-1.1797-0.50781-0.875-0.78906-0.71875 0.23438-1.3359-0.41406-1.0586v-1.0586l0.17969-1.2617-0.60156-0.89453-0.44141-1.0391-0.375-0.97656 0.53906-1.2695-0.29297-1.0586 0.17188-1.4883-0.35156-1.1289-0.52344-0.95312 1.7617-0.70312 1.7539-1.2305 1.2539-0.55078 1.4102-1.1953 1.0938-0.61328 0.63281-1.0234-0.45312-0.89453-0.41016-1.1406 1.0938-0.082031 1.0898-0.03125 1.4492-0.066406 2.3125 0.019531 1.3867 0.046875 1.2852 0.16406 1.1719-0.015625 1.207-0.73438 1.0273-0.57031 0.94141 0.48828 0.375 1.043 1.2734 0.79688 1.1367 1.5 0.91406 0.55469 0.94531-0.53906 1.1562 0.34375 1.0898-0.035156 0.83203 0.62109 1.0078 0.40625 1.2461 0.074219 0.9375 0.59766 0.8125 0.71875 0.67578 0.78516 0.89453 0.72656 1.3828-0.10156 0.96484-0.46875 0.77344-0.75781 0.65625-0.80078 0.88672-0.50391 0.41406-0.91797 1.1445 0.12109 1.2695 0.054687 1.2148 0.046875 1.5547 0.15234 0.98828 0.26172 0.96094 0.39062 0.89453 0.47656 1.6016 0.32031 1.0312 0.55469 1.0117-0.125 1.0273-0.058594 0.71484-0.69531 0.67969-1.0039 0.082031-2.0352 0.35156-0.94922 0.51953-1.0352 0.82422-0.78125 0.69531-0.84375 1.4336-0.25391 1.125-0.70703 0.77734-1.1523 0.375-0.95703-0.44141-0.91797 0.35938-1.207 0.015625-1.1953 0.44141-0.97266 1.168-0.51172 0.5-0.875 0.27734-1.0156 1.5352-0.73047 1.1016-0.63281 1.1875-0.28125 1.1758-0.29688z" fill="#ccc" fill-rule="evenodd"/>
<path d="m241.39 309.88 0.25391 0.14453 1.1797 0.85547 1.1875 0.30859 1.3906 0.039063 1.332 0.90625 1.332 0.59375 1.1328-0.027344 1.1055-0.36719 0.87891 0.73438 0.22656 1.0508 0.52734 1.0977 0.78516 0.98438 0.70703 1.3359 0.39844 0.96875 1.0625 0.12109 1.2148-0.027344 1.2891 0.82031 1.3438 0.69141 0.96094-1.2695 0.76172-0.65625 1.1992-0.23438 1.2344-0.054688 0.94141 0.58203 1.0352 0.83594 0.21484 1.3672 0.92578 0.46094 1.7227 0.32031 0.99609 1.0156 0.71094 1.082-0.054688 1.1367 0.46094 1.0508 0.67578 0.80078 0.14453 1.2422-0.60547 1.0664-0.69141 0.92578-0.17969 1.3125-0.51562 1.0508-0.51562 0.99609-0.56641 0.88672-0.375 1.0469-0.71094 0.71094 0.49609 1.3516 0.83594 0.58594 0.78125 0.71094 0.625 1.2109-0.39062 1.1523 0.14062 1.1758 0.92578 0.69141 1.0117 0.16016 0.90625 0.81641 0.81641 1.5117 0.57031 1.2461 0.72656 0.78125-0.30078 1.1367-0.85156 0.62109 1.1172 1.0156 0.66016 0.76172 0.33984 1.6211 0.88281 1.625-0.30078 1.2656-1.3984 0.47266-1.4297-0.12891-0.97656-0.48828-0.78125 0.94922-0.86328 0.91016-0.80859 0.67578-1.0938 0.11719-1.4297-0.10156-1.0352-0.10156-1.3125 0.10156-1.3711 0.35938-1.0352 0.375-1.4297-0.11328-1.4688-0.62109-1.1406-0.49219-1.1953 0.10156-0.9375 0.51953-0.96484 0.35938-1.0078 0.76562-0.69141 0.90625-1.0977 0.83594-0.80469 0.70703 0.027344 1.082-0.66406 0.86328-0.99219 0.41797-1.0117 0.80859-0.51953 1.0508-1.0508 1.3008-0.80859 1.0352-0.92188 0.50391-1.5117 1.0547-0.42969 0.96094-0.625 1.4023-0.85547 1.0898-0.73828 1.0117-0.85938 0.82031-1.2852 0.99219-0.90625 0.90625-1.0938 1.4961-0.58984 1.0117-0.44531 1.2617-0.0625 1.0742-0.52734 1.1172-0.52344 1.2227-0.10547 1.0547-0.94922 0.75391-0.10547 1.1406-0.019531 1.3477 0.42188 1.2852 0.33594 1.3281 0.019531 1.0508-0.42188 1.0977-0.27344 0.96875-0.47656 1.8086 0.18359 1.1602 0.71484 0.86328 0.78125 1.0508 1.0078 0.21094 0.25391 0.98047-0.92969 0.74219-0.46094 1.3164-0.85938 1.0234-0.89844 0.88281-0.73047 0.79688-0.83594 0.78906-0.99609 0.91016-0.60547 0.89062-0.33203 1.0312-0.61328 1.2227-0.76953 0.93359-0.64844 0.96484-0.73047 0.87109-0.43359 0.95312-0.91797 0.94141-0.88672 1.2031-0.27344 1.2109-0.40234 0.92578-1.1172 1.0938-0.91797 0.87109-0.77344 1.082-2.1289-0.13281-1.2578 0.19531-1.3125 0.089844 0.27344-1.2422 0.52734-1.3672 0.33594-1.6328-0.62891-0.93359-0.78125-0.96484-0.51562-1.2539-0.46094-0.97656-0.55469-0.98438 0.29688-1.0117 0.10156-1.2305-0.90625-0.77344-1.0117-0.45703-1.1602-0.19531-1.0859 0.14453-0.80469-0.70703-0.15625-1.4258-0.20703-1.9141-0.56641-1.3672-0.68359-0.79688-0.61719-0.91406-0.77344-1.0703-0.36328-0.95703-0.18359-1.0234-0.59375-1.0469-1.0938-1.3906-1.1602-0.73047-0.91016-0.84375-0.33203-1.0273-0.47266-0.92578-0.64844-0.88672-1.0078-1.1797-0.65234-0.98828-0.09375-1.0234-0.45312-1.457-0.53125-1.0625-0.55078-1.3008-0.86719-1.1406-0.78906-1.0039-0.76562-0.66797-0.86719-1.0664-0.86719-0.82422-1.1602-0.84375-1.0273-0.45312-0.97266 0.26172-0.41797 1.1016-0.74609 0.82031-0.98047-0.3125-0.65234-0.97656 0.078125 1.1133 0.25781 1.1719-1.1602 0.64062-1.0156-0.77344-1.0273-1.4805-0.70703-1.3867-0.10938-1.1016 0.34375-1.5898 0.41797-1.1602-0.41797-0.97656-0.48828-1.1367-0.54297-0.88672-0.50391-1.7891-0.47266-1.8711-0.20312-1.4336 0.082031-1.293 0.042969-1.0977-0.16797-1.0703-0.27734-1.0547 0.16016-1.1641-0.17969-1.1094-0.23438-1.207 0.14453-1.1133-0.12109-1.293-0.64062-1.0625-0.61719-0.83203-0.15625-1.2148 0.38281-1.0273 0.21094-1.168-1.0156-0.625-0.59375-0.91016-0.74219-0.95703-0.74219-0.79297 0.43359-1.1797-0.50781-0.875-0.78906-0.71875 0.23438-1.3359-0.41406-1.0586v-1.0586l0.17969-1.2617-0.60156-0.89453-0.44141-1.0391-0.375-0.97656 0.53906-1.2695-0.29297-1.0586 0.17188-1.4883-0.35156-1.1289-0.52344-0.95312 1.7617-0.70312 1.7539-1.2305 1.2539-0.55078 1.4102-1.1953 1.0938-0.61328 0.63281-1.0234-0.45312-0.89453-0.41016-1.1406 1.0938-0.082031 1.0898-0.03125 1.4492-0.066406 2.3125 0.019531 1.3867 0.046875 1.2852 0.16406 1.1719-0.015625 1.207-0.73438 1.0273-0.57031 0.94141 0.48828 0.375 1.043 1.2734 0.79688 1.1367 1.5 0.91406 0.55469 0.94531-0.53906 1.1562 0.34375 1.0898-0.035156 0.83203 0.62109 1.0078 0.40625 1.2461 0.074219 0.9375 0.59766 0.8125 0.71875 0.67578 0.78516 0.89453 0.72656 1.3828-0.10156 0.96484-0.46875 0.77344-0.75781 0.65625-0.80078 0.88672-0.50391 0.41406-0.91797 1.1445 0.12109 1.2695 0.054687 1.2148 0.046875 1.5547 0.15234 0.98828 0.26172 0.96094 0.39062 0.89453 0.47656 1.6016 0.32031 1.0312 0.55469 1.0117-0.125 1.0273-0.058594 0.71484-0.69531 0.67969-1.0039 0.082031-2.0352 0.35156-0.94922 0.51953-1.0352 0.82422-0.78125 0.69531-0.84375 1.4336-0.25391 1.125-0.70703 0.77734-1.1523 0.375-0.95703-0.44141-0.91797 0.35938-1.207 0.015625-1.1953 0.44141-0.97266 1.168-0.51172 0.5-0.875 0.27734-1.0156 1.5352-0.73047 1.1016-0.63281 1.1875-0.28125 1.1758-0.29688 0.33594 0.066406" fill="none" stroke="#fff" stroke-linecap="round" stroke-linejoin="round" stroke-miterlimit="10" stroke-width="2"/>
<path d="m276.48 354.76 0.050781 0.03125 1.0859 0.31641 0.81641 1.125 0.41016 1.2578-0.042968 1.0117 1.0625 0.9375 1.1953 0.39844 1.0078 0.48047 0.24609 1.1016-0.082031 1.1562-0.49219 1.2773 0.011718 1.1719-0.64453 1.0547-0.63281 0.82812-0.71484 1.3945-0.81641 1.4062-0.43359 1.1016 0.84766 0.57812 0.96875 0.85938 0.98438 1.0039 1.0039 0.39453 1.168 1.2891 0.66406 0.91797 0.41406 0.96094 0.125 1.1289-0.49219 1.1523-1.043 0.18359-0.99219 0.10938-0.6875 0.91016-0.71484 1.1055-0.28125 0.98047v1.0195l0.57812 0.95703-0.94531 0.75-1.1875 0.57812-1.2891 0.50391-1.1133 0.36719h-1.0625v1.1133l0.015625 1.3594 0.76562 0.95703 0.47266 0.94141-0.22656 1.0117-0.80078 0.94141-0.80469 0.76562-1.2344 0.94141-0.97656 1.0977-0.92578 0.41797-1.3594-0.20703-1.0273 0.015625-0.99219 0.45312-1.2383 0.33203-1.0781 0.19141-1.2031-0.12109-0.76953 0.87109-0.97266 0.69531-1.1172 0.61328-0.85547 1.0273-0.74219 1.1328-1.1016 0.34766-1.1875 0.33203-1.1484-0.019531-1.1523-0.20703-1.0273 0.13672-1.0117 0.55859-0.90625 0.96094-0.94141 0.50391-1.3906 0.20703-1.5508 0.35156-1.832 0.58984-0.88672 1.0664-0.21094 0.99219-0.73047 0.88672-0.71484 0.90625-0.54297 1.0312-1.0273 0.46875-1.3594 0.14062-0.69531-0.78516-0.62891-0.97656-0.55859-1.0469 0.38672-1.4102-0.089844-1.3945-0.32812-0.99219-0.089844-1.0625-0.66016-0.92578-0.62891-1.0625-0.89062-1.0273-1.1172-0.35938-0.9375-0.50781-1.2656-1.1367-0.71484-0.86328-0.18359-1.1602 0.28906-1.1992 0.31641-1.0938 0.41797-1.0352 0.27734-0.98828-0.10547-1.0938-0.75781-1.3906v-1.0977l-0.023438-1.4727 0.69531-0.90625 0.37891-1.2227 0.60938-1.5586 0.52734-1.1172 0.0625-1.0742 0.44531-1.2617 0.58984-1.0117 1.0938-1.4961 0.90625-0.90625 1.2852-0.99219 0.85938-0.82031 0.73828-1.0117 0.85547-1.0898 0.625-1.4023 0.42969-0.96094 1.5117-1.0547 0.92188-0.50391 0.80859-1.0352 0.64844-1.0391 0.69141-0.89453 0.58984-0.82031 1.1836-0.69141 0.99609-0.50781 0.14453-1.0781 0.32812-1.0117 0.96875-0.35938 0.91797-1.0859 0.94141-0.91797 0.92188-0.69141 1.3828-0.51953 1.1953-0.10156 1.1406 0.49219 1.2695 0.58984 1.6289 0.14453 1.0352-0.375 1.3711-0.35938 1.3125-0.10156 1.0352 0.10156 1.4297 0.10156 1.0938-0.11719 0.80859-0.67578 0.86328-0.91016 0.40625-1.0078 1.3516 0.54688 1.4297 0.12891 1.3789-0.45703z" fill="#ccc" fill-rule="evenodd"/>
<path d="m276.48 354.76 0.050781 0.03125 1.0859 0.31641 0.81641 1.125 0.41016 1.2578-0.042968 1.0117 1.0625 0.9375 1.1953 0.39844 1.0078 0.48047 0.24609 1.1016-0.082031 1.1562-0.49219 1.2773 0.011718 1.1719-0.64453 1.0547-0.63281 0.82812-0.71484 1.3945-0.81641 1.4062-0.43359 1.1016 0.84766 0.57812 0.96875 0.85938 0.98438 1.0039 1.0039 0.39453 1.168 1.2891 0.66406 0.91797 0.41406 0.96094 0.125 1.1289-0.49219 1.1523-1.043 0.18359-0.99219 0.10938-0.6875 0.91016-0.71484 1.1055-0.28125 0.98047v1.0195l0.57812 0.95703-0.94531 0.75-1.1875 0.57812-1.2891 0.50391-1.1133 0.36719h-1.0625v1.1133l0.015625 1.3594 0.76562 0.95703 0.47266 0.94141-0.22656 1.0117-0.80078 0.94141-0.80469 0.76562-1.2344 0.94141-0.97656 1.0977-0.92578 0.41797-1.3594-0.20703-1.0273 0.015625-0.99219 0.45312-1.2383 0.33203-1.0781 0.19141-1.2031-0.12109-0.76953 0.87109-0.97266 0.69531-1.1172 0.61328-0.85547 1.0273-0.74219 1.1328-1.1016 0.34766-1.1875 0.33203-1.1484-0.019531-1.1523-0.20703-1.0273 0.13672-1.0117 0.55859-0.90625 0.96094-0.94141 0.50391-1.3906 0.20703-1.5508 0.35156-1.832 0.58984-0.88672 1.0664-0.21094 0.99219-0.73047 0.88672-0.71484 0.90625-0.54297 1.0312-1.0273 0.46875-1.3594 0.14062-0.69531-0.78516-0.62891-0.97656-0.55859-1.0469 0.38672-1.4102-0.089844-1.3945-0.32812-0.99219-0.089844-1.0625-0.66016-0.92578-0.62891-1.0625-0.89062-1.0273-1.1172-0.35938-0.9375-0.50781-1.2656-1.1367-0.71484-0.86328-0.18359-1.1602 0.28906-1.1992 0.31641-1.0938 0.41797-1.0352 0.27734-0.98828-0.10547-1.0938-0.75781-1.3906v-1.0977l-0.023438-1.4727 0.69531-0.90625 0.37891-1.2227 0.60938-1.5586 0.52734-1.1172 0.0625-1.0742 0.44531-1.2617 0.58984-1.0117 1.0938-1.4961 0.90625-0.90625 1.2852-0.99219 0.85938-0.82031 0.73828-1.0117 0.85547-1.0898 0.625-1.4023 0.42969-0.96094 1.5117-1.0547 0.92188-0.50391 0.80859-1.0352 0.64844-1.0391 0.69141-0.89453 0.58984-0.82031 1.1836-0.69141 0.99609-0.50781 0.14453-1.0781 0.32812-1.0117 0.96875-0.35938 0.91797-1.0859 0.94141-0.91797 0.92188-0.69141 1.3828-0.51953 1.1953-0.10156 1.1406 0.49219 1.2695 0.58984 1.6289 0.14453 1.0352-0.375 1.3711-0.35938 1.3125-0.10156 1.0352 0.10156 1.4297 0.10156 1.0938-0.11719 0.80859-0.67578 0.86328-0.91016 0.40625-1.0078 1.3516 0.54688 1.4297 0.12891 1.3789-0.45703 1-0.48047" fill="none" stroke="#fff" stroke-linecap="round" stroke-linejoin="round" stroke-miterlimit="10" stroke-width="2"/>
<path d="m270.02 395.9h0.36328l1.082 0.14062 0.92188 0.83594 0.53125 1.0742v1.3711l-0.10547 1.293-0.57422 0.82422-1.0156 0.70703-0.51562 0.87109 0.19141 1.1172-0.042969 1.0898-0.16016 1.0312-0.92969 0.54297-0.62109 1.0508-0.71875 1.4414-0.80469 1.5508-0.5 1.7734-0.027344 1.082-0.96875 0.77734-1.3594 0.13672-1.3164 0.34375-1.0781-0.25781-1.0352 0.10938-1.1367-0.33594-1.2773 0.089844-1.0781 0.85156-1.0352 1.125-0.88281 0.53125-1.0312 0.97266-1.6406 1.6445-0.13281 0.98828 1.0703 0.98047 1.4883 0.58984 0.95312 0.69531 1.1328 1.0312 0.72266 0.70703 1.7148 0.20312-1.7578 1.3203-0.90234 0.98047-0.40625 2.0664-0.24219 1.3867-0.3125 1.6406-0.21484 1.0273-0.17188 1.4336-0.83203 0.87891-1.2656-0.57812-1.0039-0.38672-0.75-0.875-1.2422-0.55859-1.1328-0.19141-1.2188-0.76953-1.4766-0.23828-1.3281-0.44922-1.2188-0.12891-0.9375 0.64062-1.125 0.66797-1.2852 0.26953-1.4688 0.72266-1.2578 0.48047-1.043-0.054687-0.99219-0.26562-1.1484 0.1875-0.95312 0.70703-1.4375 0.95312-0.83594 0.66406-0.80078 0.61328-1.2773-0.082031-1.5117-0.60156-1.0312-0.15234-1.2656-0.20703-1.1484 0.054688-1.5 0.11328-1.3555-0.40234h-1.1328l-1.0117-0.30469-0.6875-0.72656-1.7812-0.44531-1.5547-0.44531-1.1562-0.89062-1.0312-0.58594-1.0312-0.62891-0.84375-0.80859 0.90625-0.63281 0.59375-0.875 1.0117-0.94531 0.55078-1.1211 0.30078-1.0664 0.21094-1.7305-0.054688-1.207 0.10156-1.0117 0.24219-1.0195 0.82812-0.63672 1.2617-0.10156 2.2188 0.078125 1.0273-0.38281 0.8125-0.95703 0.92969-1.2852 1.0156-0.80078 0.26953-1.2227 0.51953-1.1328 0.84766-1.0469 0.75391-0.89062 0.91797-1.2656 0.78516-1.1992 0.74219-0.75391 0.38281-0.97266 0.54688-0.96875 0.33594-1.0312 0.78906-0.9375 1.3555-1.1133 0.73047-0.79688 0.89844-0.88281 0.85938-1.0234 0.36719-1.1289 0.97656-0.78906 0.79688-0.64062 0.94531 0.59375 0.75 1.2539 0.69922 1.0273 0.46875 1.0469 0.26172 1.4102 0.089844 1.3945-0.38672 1.4102 0.55859 1.0469 0.62891 0.97656 0.69531 0.78516 1.0977-0.14062 1.2891-0.46875 0.54297-1.0312 0.71484-0.90625 0.73047-0.88672 0.21094-0.99219 0.88672-1.0664 1.0625-0.29297 1.7617-0.55859 1.043-0.14062 1.2227-0.29688 0.90625-0.57422 0.97656-0.94141 1.1133-0.45312 1.2188 0.070312 1.1172 0.10547 1.7266-0.33203 1.1016-0.34766 0.74219-1.1328 0.85547-1.0273 1.1172-0.61328 0.97266-0.69531 0.76953-0.87109 1.2031 0.12109 1.0781-0.19141 1.2383-0.33203 0.99219-0.45312z" fill="#ccc" fill-rule="evenodd"/>
<path d="m270.02 395.9h0.36328l1.082 0.14062 0.92188 0.83594 0.53125 1.0742v1.3711l-0.10547 1.293-0.57422 0.82422-1.0156 0.70703-0.51562 0.87109 0.19141 1.1172-0.042969 1.0898-0.16016 1.0312-0.92969 0.54297-0.62109 1.0508-0.71875 1.4414-0.80469 1.5508-0.5 1.7734-0.027344 1.082-0.96875 0.77734-1.3594 0.13672-1.3164 0.34375-1.0781-0.25781-1.0352 0.10938-1.1367-0.33594-1.2773 0.089844-1.0781 0.85156-1.0352 1.125-0.88281 0.53125-1.0312 0.97266-1.6406 1.6445-0.13281 0.98828 1.0703 0.98047 1.4883 0.58984 0.95312 0.69531 1.1328 1.0312 0.72266 0.70703 1.7148 0.20312-1.7578 1.3203-0.90234 0.98047-0.40625 2.0664-0.24219 1.3867-0.3125 1.6406-0.21484 1.0273-0.17188 1.4336-0.83203 0.87891-1.2656-0.57812-1.0039-0.38672-0.75-0.875-1.2422-0.55859-1.1328-0.19141-1.2188-0.76953-1.4766-0.23828-1.3281-0.44922-1.2188-0.12891-0.9375 0.64062-1.125 0.66797-1.2852 0.26953-1.4688 0.72266-1.2578 0.48047-1.043-0.054687-0.99219-0.26562-1.1484 0.1875-0.95312 0.70703-1.4375 0.95312-0.83594 0.66406-0.80078 0.61328-1.2773-0.082031-1.5117-0.60156-1.0312-0.15234-1.2656-0.20703-1.1484 0.054688-1.5 0.11328-1.3555-0.40234h-1.1328l-1.0117-0.30469-0.6875-0.72656-1.7812-0.44531-1.5547-0.44531-1.1562-0.89062-1.0312-0.58594-1.0312-0.62891-0.84375-0.80859 0.90625-0.63281 0.59375-0.875 1.0117-0.94531 0.55078-1.1211 0.30078-1.0664 0.21094-1.7305-0.054688-1.207 0.10156-1.0117 0.24219-1.0195 0.82812-0.63672 1.2617-0.10156 2.2188 0.078125 1.0273-0.38281 0.8125-0.95703 0.92969-1.2852 1.0156-0.80078 0.26953-1.2227 0.51953-1.1328 0.84766-1.0469 0.75391-0.89062 0.91797-1.2656 0.78516-1.1992 0.74219-0.75391 0.38281-0.97266 0.54688-0.96875 0.33594-1.0312 0.78906-0.9375 1.3555-1.1133 0.73047-0.79688 0.89844-0.88281 0.85938-1.0234 0.36719-1.1289 0.97656-0.78906 0.79688-0.64062 0.94531 0.59375 0.75 1.2539 0.69922 1.0273 0.46875 1.0469 0.26172 1.4102 0.089844 1.3945-0.38672 1.4102 0.55859 1.0469 0.62891 0.97656 0.69531 0.78516 1.0977-0.14062 1.2891-0.46875 0.54297-1.0312 0.71484-0.90625 0.73047-0.88672 0.21094-0.99219 0.88672-1.0664 1.0625-0.29297 1.7617-0.55859 1.043-0.14062 1.2227-0.29688 0.90625-0.57422 0.97656-0.94141 1.1133-0.45312 1.2188 0.070312 1.1172 0.10547 1.7266-0.33203 1.1016-0.34766 0.74219-1.1328 0.85547-1.0273 1.1172-0.61328 0.97266-0.69531 0.76953-0.87109 1.2031 0.12109 1.0781-0.19141 1.2383-0.33203 0.99219-0.45312 0.66406-0.015625" fill="none" stroke="#fff" stroke-linecap="round" stroke-linejoin="round" stroke-miterlimit="10" stroke-width="2"/>
<path d="m295.62 377.14 1.0625 0.12891 1.4258 0.73828 1.2305 1.5117 0.45703 1.2109 0.55859 1.3203 0.32422 1.0781 0.75781 1.4727 0.085937 1.4453 0.97266 2.0781 1.5938 2.3242 1.5312 1.3945 0.92188 0.44141 1.1719 0.77344 1.668 1.2188 0.69531 0.71875 1.1523 0.87891 1.5312 0.72266 1.0117 0.85547 0.58594 1.0586 1.082 1.2383 1.125 0.69922 0.8125 0.65234 0.53906 1.082 0.96875 1.5547 0.81641 1.7812 0.085937 1.0977 0.95703 0.87109 1.293 0.81641 1.0156 0.76172 1.043 1.0156 0.53125 0.87109 0.22656 1.125 0.48047 0.98828 1.0391 0.75781 0.59375 1.4922 0.78906 1.6641 0.50391 0.95703 0.78906 0.84375 0.73438 0.84375 0.14062 1.2109-0.62109 1.4922 0.44922 1.0117 1.0156 1.1836 0.47656 1.1562 0.19922 0.98438-2-0.027343-1.4922-0.027344-2.0273 0.25h-1.1836l-1.4336-0.53125-1.4375 0.36328-1.0117 0.67578-0.67578 0.90234-0.76172 1.0977-0.87109 1.125-1 1.1328-1.1055-0.070313-0.61328-0.79297-1.125-0.4375 0.15625-1.1406-0.5625-0.91406-1.1055 0.17578-1.1055-0.19531-1.5469-0.31641-1.4766-0.40234-1.457-0.070313-1.1055 1-1.2656 0.6875-1.0195 0.57812-1.3516 0.4375-1.1055 0.75781-0.42188 1.2812-0.17578 1.2812 0.35156 1.4414 0.40234 1.457 0.089843 1.125-1.418 0.75-0.78906 0.66797-0.98828 0.79688-1.2617-0.56641-0.99219-0.25-0.5-0.89844-1.1328-1.3281-1.0117-0.66406-1.1602-0.67969-1.0078-0.34375-1.0508-1.0234-0.77734-0.68359-0.92578 0.56641-0.55078 0.89844-0.75 0.92969-1.043 0.66406-1.0156 0.79688-1.0391 0.61328-1.1016 0.40625-1.0859 0.17188-0.88672 0.62891-1.3438 0.22266-1.043 0.34766-0.84375 0.94141-0.41406 0.92578-0.68359 1.3359-1.0312 1.2695-0.8125 0.75391-1.207 0.66016-1.0156 0.55469-1.0938 0.67188 0.19922-1.4844 0.53906-1.1367 0.17969-1.0469-0.44531-1.1055-0.41016-1.0156-0.36328-0.94141-0.62109-1.1094-0.30469-1.2461-0.21484-1.3359-0.45312-0.92578 0.28906-1.3203-0.77734-1.0938-0.5-1.0938-0.62109-1.0195-0.24609-0.97266-0.48438-1.1992-0.33594-1.5039-1.1445-0.37891-1.6641-0.16406-1.6094-0.29688-1.0195-0.45703-0.99609-0.63672-1.5703-0.32031-1.1602-0.34766-1.043-1.0312-1.1445-0.94141-1.0078-0.53906-1.5-0.88281-0.83984-0.95703 1.543-1.4375 0.95703-1.2617 1.1719-0.47266 0.85156-0.83594 0.87891-1.0781 1.082-0.57812 1.2578 0.15234 1.4766 0.13672 1.0469 0.10547 1.4102-0.085938 1.2734-0.11328 1.1094-0.71875 0.30469-1.332 0.35938-1.2461 0.60938-1.5234 0.76562-1.4102 0.64844-1.3867 0.94141-0.57422 0.38281-1.0312 0.070313-1.3086-0.19141-1.1172 0.51562-0.87109 0.82422-0.63281 0.76562-0.89844 0.10547-1.293v-1.3711l-0.53125-1.0742 0.28125-1.1875 0.97656-1.0977 1.2344-0.94141 0.80469-0.76562 0.80078-0.94141 0.22656-1.0117-0.47266-0.94141-0.76562-0.95703-0.10547-1.0117-0.050782-1.2344 1.2031-0.22656 1.1133-0.36719 1.2891-0.50391 0.92969-0.64062 1.2031-0.6875-0.57812-0.95703v-1.0195l0.28125-0.98047 0.50391-0.89844 0.89844-1.1172 0.99219-0.10938 1.043-0.18359 1.3711-0.078125 1.1875 0.5625 1.4727-0.73828 1.9023-0.83984 1.2734-0.43359 1.082-0.19531 0.97266-0.28125 1.0391-0.0625z" fill="#ccc" fill-rule="evenodd"/>
<path d="m295.62 377.14 1.0625 0.12891 1.4258 0.73828 1.2305 1.5117 0.45703 1.2109 0.55859 1.3203 0.32422 1.0781 0.75781 1.4727 0.085937 1.4453 0.97266 2.0781 1.5938 2.3242 1.5312 1.3945 0.92188 0.44141 1.1719 0.77344 1.668 1.2188 0.69531 0.71875 1.1523 0.87891 1.5312 0.72266 1.0117 0.85547 0.58594 1.0586 1.082 1.2383 1.125 0.69922 0.8125 0.65234 0.53906 1.082 0.96875 1.5547 0.81641 1.7812 0.085937 1.0977 0.95703 0.87109 1.293 0.81641 1.0156 0.76172 1.043 1.0156 0.53125 0.87109 0.22656 1.125 0.48047 0.98828 1.0391 0.75781 0.59375 1.4922 0.78906 1.6641 0.50391 0.95703 0.78906 0.84375 0.73438 0.84375 0.14062 1.2109-0.62109 1.4922 0.44922 1.0117 1.0156 1.1836 0.47656 1.1562 0.19922 0.98438-2-0.027343-1.4922-0.027344-2.0273 0.25h-1.1836l-1.4336-0.53125-1.4375 0.36328-1.0117 0.67578-0.67578 0.90234-0.76172 1.0977-0.87109 1.125-1 1.1328-1.1055-0.070313-0.61328-0.79297-1.125-0.4375 0.15625-1.1406-0.5625-0.91406-1.1055 0.17578-1.1055-0.19531-1.5469-0.31641-1.4766-0.40234-1.457-0.070313-1.1055 1-1.2656 0.6875-1.0195 0.57812-1.3516 0.4375-1.1055 0.75781-0.42188 1.2812-0.17578 1.2812 0.35156 1.4414 0.40234 1.457 0.089843 1.125-1.418 0.75-0.78906 0.66797-0.98828 0.79688-1.2617-0.56641-0.99219-0.25-0.5-0.89844-1.1328-1.3281-1.0117-0.66406-1.1602-0.67969-1.0078-0.34375-1.0508-1.0234-0.77734-0.68359-0.92578 0.56641-0.55078 0.89844-0.75 0.92969-1.043 0.66406-1.0156 0.79688-1.0391 0.61328-1.1016 0.40625-1.0859 0.17188-0.88672 0.62891-1.3438 0.22266-1.043 0.34766-0.84375 0.94141-0.41406 0.92578-0.68359 1.3359-1.0312 1.2695-0.8125 0.75391-1.207 0.66016-1.0156 0.55469-1.0938 0.67188 0.19922-1.4844 0.53906-1.1367 0.17969-1.0469-0.44531-1.1055-0.41016-1.0156-0.36328-0.94141-0.62109-1.1094-0.30469-1.2461-0.21484-1.3359-0.45312-0.92578 0.28906-1.3203-0.77734-1.0938-0.5-1.0938-0.62109-1.0195-0.24609-0.97266-0.48438-1.1992-0.33594-1.5039-1.1445-0.37891-1.6641-0.16406-1.6094-0.29688-1.0195-0.45703-0.99609-0.63672-1.5703-0.32031-1.1602-0.34766-1.043-1.0312-1.1445-0.94141-1.0078-0.53906-1.5-0.88281-0.83984-0.95703 1.543-1.4375 0.95703-1.2617 1.1719-0.47266 0.85156-0.83594 0.87891-1.0781 1.082-0.57812 1.2578 0.15234 1.4766 0.13672 1.0469 0.10547 1.4102-0.085938 1.2734-0.11328 1.1094-0.71875 0.30469-1.332 0.35938-1.2461 0.60938-1.5234 0.76562-1.4102 0.64844-1.3867 0.94141-0.57422 0.38281-1.0312 0.070313-1.3086-0.19141-1.1172 0.51562-0.87109 0.82422-0.63281 0.76562-0.89844 0.10547-1.293v-1.3711l-0.53125-1.0742 0.28125-1.1875 0.97656-1.0977 1.2344-0.94141 0.80469-0.76562 0.80078-0.94141 0.22656-1.0117-0.47266-0.94141-0.76562-0.95703-0.10547-1.0117-0.050782-1.2344 1.2031-0.22656 1.1133-0.36719 1.2891-0.50391 0.92969-0.64062 1.2031-0.6875-0.57812-0.95703v-1.0195l0.28125-0.98047 0.50391-0.89844 0.89844-1.1172 0.99219-0.10938 1.043-0.18359 1.3711-0.078125 1.1875 0.5625 1.4727-0.73828 1.9023-0.83984 1.2734-0.43359 1.082-0.19531 0.97266-0.28125 1.0391-0.0625 1.1211 0.10547" fill="none" stroke="#fff" stroke-linecap="round" stroke-linejoin="round" stroke-miterlimit="10" stroke-width="2"/>
<path d="m308.77 427.44 0.29688 0.089844 1.125 0.33203 1.1094 0.16016 1.1406 0.22656 1.1953 0.19531 1.0859 0.035157 0.089844 1.0703 0.5625 1.0195 0.84375 0.75391 1.1562 0.44141 0.84375 0.91016 1.1406-0.46484 1.1719-0.33594 1.2812 1.1719 0.76953 1.2773 0.58594 0.87891 0.30859 1.1094 0.37109 1.3594 0.35156 1.0156 1.1445 0.03125 1.1562 0.43359 1.0938 0.66016 0.84766 0.81641 0.91016 1.2188 0.90625 0.95703 0.6875 0.86328-1.6328 0.84766-1.1445 0.82031-1.2266 0.53125-0.86328 0.53516 0.98828 0.73828 1.4141 1.0859 0.89844 0.97266 0.42188 1.1328-0.28125 1.1797-0.61328 0.81641-1.3984-0.09375-1.3047 0.09375-0.94531 0.47266 0.31641 1.1484 0.66016 1.0664 0.66016 0.75391 0.55078 1.1641 0.78516 0.66016 0.67578 0.73828 0.98828 1.0547 0.56641 1.2383 0.26562 1.3984-0.10156 1.1797 0.19922 1.5117-0.15625 1.082 0.39062 1.2148 0.15625 1.0625v2.2578l0.097656 1.2383 0.21875 1.2773 0.53125 1.4531 0.42969 1.5352 0.31641 1.3359 0.37109 1.0391 0.078125 1.5312-0.0625 2.8203 0.23438 1.5703 0.22266 2.207 0.15234 1.0156-0.5625 1.332-0.56641 0.85547-0.60156 1.0195-1.2539 0.33203-1.1211 0.36719-1.1523 0.50391-1.0703 0.66797-0.56641 1.3359-0.71875 1.1367-0.43359 1.0352-0.88672 1.2539-0.80078 0.66797-0.98438 0.67969-0.95312 0.40625-1.1211-0.44141-0.42578-1.4492-0.32422-1.8086-0.25-1.7344-0.87109-1.2461-1.0547-0.56641-1.0859-1.2891-1.1445-1.418-0.95703-1.4023-1.1133-0.83984-1.1133-0.42188-1.7656-0.55078-0.78516-1.0859-0.57422-1.3242-0.55469-1.4922-0.16797-1.1562-0.64844-0.87891-0.74219-1.1211-0.89844-1.4102-0.48047-1-1.0117-1.168-1.0273-0.71094-1.2969-0.70703-1.3438-0.94531-0.96484-0.87109-0.92188-0.51562-1.082-0.86328-0.99609-1.082-0.89844-0.51562-0.97266-0.86719-1.0391-0.32422-1.3164-0.41016-1.1875-0.15234-1.1992 0.050782-1.0156-0.53906-0.82031-0.93359-0.98438-0.67578-0.91016-0.53516-1.3047-0.19531-1.1367-0.72656-0.57812-0.92969-0.8125-0.86328-1.0391-0.25391-1.2578-0.57031-1.0156-0.35938-1.1055-0.078125-1.2031-0.58984-1.3555-0.55078-1.2266-1.2812-0.69141-0.95703-0.14062-1.0938 0.90625-1.2344 1.1406-1.0117 0.65625-1.2969-0.15625-1.1406-0.78125-0.89062-0.51562-1.0117-0.125-1.4844-1.0938 0.125-1.7148-0.95312 0.23438-1.0742 1.0352-0.48047 1.5625-0.88672 0.8125-0.75391 0.93359-0.95703 0.69141-1.5156 0.47656-1.0156 0.78906-0.93359 0.95312-0.35156 0.9375-0.34375 1.0039-0.27734 1.5469-0.44922 1.1016-0.40625 1.0391-0.61328 0.75391-0.67188 1.0664-0.59766 0.82031-0.9375 0.41406-0.92578 0.87109-0.65625 1.1367 0.61719 1.0508 1.0234 1.0078 0.34375 1.1602 0.67969 1.0117 0.66406 1.0078 0.80078 0.32031 0.98438 0.88281 0.63281 1.0508 0.60938 1.1289-0.41797 1.2734-1.0312 0.99609-0.41797 0.47266-0.94531-0.4375-1.5117-0.33594-1.3164-0.035156-1.4062 0.28125-1.2305 0.52734-0.98438 1.5977-0.5625 1.582-0.73438 1.2656-0.6875 0.63281-0.78906 1.1758-0.26562z" fill="#ccc" fill-rule="evenodd"/>
<path d="m308.77 427.44 0.29688 0.089844 1.125 0.33203 1.1094 0.16016 1.1406 0.22656 1.1953 0.19531 1.0859 0.035157 0.089844 1.0703 0.5625 1.0195 0.84375 0.75391 1.1562 0.44141 0.84375 0.91016 1.1406-0.46484 1.1719-0.33594 1.2812 1.1719 0.76953 1.2773 0.58594 0.87891 0.30859 1.1094 0.37109 1.3594 0.35156 1.0156 1.1445 0.03125 1.1562 0.43359 1.0938 0.66016 0.84766 0.81641 0.91016 1.2188 0.90625 0.95703 0.6875 0.86328-1.6328 0.84766-1.1445 0.82031-1.2266 0.53125-0.86328 0.53516 0.98828 0.73828 1.4141 1.0859 0.89844 0.97266 0.42188 1.1328-0.28125 1.1797-0.61328 0.81641-1.3984-0.09375-1.3047 0.09375-0.94531 0.47266 0.31641 1.1484 0.66016 1.0664 0.66016 0.75391 0.55078 1.1641 0.78516 0.66016 0.67578 0.73828 0.98828 1.0547 0.56641 1.2383 0.26562 1.3984-0.10156 1.1797 0.19922 1.5117-0.15625 1.082 0.39062 1.2148 0.15625 1.0625v2.2578l0.097656 1.2383 0.21875 1.2773 0.53125 1.4531 0.42969 1.5352 0.31641 1.3359 0.37109 1.0391 0.078125 1.5312-0.0625 2.8203 0.23438 1.5703 0.22266 2.207 0.15234 1.0156-0.5625 1.332-0.56641 0.85547-0.60156 1.0195-1.2539 0.33203-1.1211 0.36719-1.1523 0.50391-1.0703 0.66797-0.56641 1.3359-0.71875 1.1367-0.43359 1.0352-0.88672 1.2539-0.80078 0.66797-0.98438 0.67969-0.95312 0.40625-1.1211-0.44141-0.42578-1.4492-0.32422-1.8086-0.25-1.7344-0.87109-1.2461-1.0547-0.56641-1.0859-1.2891-1.1445-1.418-0.95703-1.4023-1.1133-0.83984-1.1133-0.42188-1.7656-0.55078-0.78516-1.0859-0.57422-1.3242-0.55469-1.4922-0.16797-1.1562-0.64844-0.87891-0.74219-1.1211-0.89844-1.4102-0.48047-1-1.0117-1.168-1.0273-0.71094-1.2969-0.70703-1.3438-0.94531-0.96484-0.87109-0.92188-0.51562-1.082-0.86328-0.99609-1.082-0.89844-0.51562-0.97266-0.86719-1.0391-0.32422-1.3164-0.41016-1.1875-0.15234-1.1992 0.050782-1.0156-0.53906-0.82031-0.93359-0.98438-0.67578-0.91016-0.53516-1.3047-0.19531-1.1367-0.72656-0.57812-0.92969-0.8125-0.86328-1.0391-0.25391-1.2578-0.57031-1.0156-0.35938-1.1055-0.078125-1.2031-0.58984-1.3555-0.55078-1.2266-1.2812-0.69141-0.95703-0.14062-1.0938 0.90625-1.2344 1.1406-1.0117 0.65625-1.2969-0.15625-1.1406-0.78125-0.89062-0.51562-1.0117-0.125-1.4844-1.0938 0.125-1.7148-0.95312 0.23438-1.0742 1.0352-0.48047 1.5625-0.88672 0.8125-0.75391 0.93359-0.95703 0.69141-1.5156 0.47656-1.0156 0.78906-0.93359 0.95312-0.35156 0.9375-0.34375 1.0039-0.27734 1.5469-0.44922 1.1016-0.40625 1.0391-0.61328 0.75391-0.67188 1.0664-0.59766 0.82031-0.9375 0.41406-0.92578 0.87109-0.65625 1.1367 0.61719 1.0508 1.0234 1.0078 0.34375 1.1602 0.67969 1.0117 0.66406 1.0078 0.80078 0.32031 0.98438 0.88281 0.63281 1.0508 0.60938 1.1289-0.41797 1.2734-1.0312 0.99609-0.41797 0.47266-0.94531-0.4375-1.5117-0.33594-1.3164-0.035156-1.4062 0.28125-1.2305 0.52734-0.98438 1.5977-0.5625 1.582-0.73438 1.2656-0.6875 0.63281-0.78906 1.1758-0.26562 0.45703 0.035156" fill="none" stroke="#fff" stroke-linecap="round" stroke-linejoin="round" stroke-miterlimit="10" stroke-width="2"/>
<path d="m260.45 424.92 0.19141 0.058594 0.96094 0.51562 0.99609 0.70312 1.207 0.23438 1.7266 0.18359 1.043 0.13281 1.0352 0.875 0.37109 1.4297 0.42188 1.125 0.51562 1.1836 0.48438 1.0625 0.59375 0.86719 0.37891 1.0469v1.4258l0.45703 1.2617-0.09375 1.0312 0.71484 1.3555 0.53125 0.92578 0.45703 1.1523 0.35938 1.1016 0.089844 1.1445-0.53906 1.0742-0.34766 0.94531 0.50781 1.4414 1.2344 0.95312 1.043-0.45312 0.53125 1.3906 0.64062 1.4336 0.78125 0.89062 0.15625 1.1406-0.65625 1.2969-1.1406 1.0117-0.80859 0.78906 0.058594 1.0234-0.44922 1.0625-1.1562-0.1875-0.046875 1.5117 0.40625 1.0156-0.75 0.84375-1.0938 0.3125-0.78125 0.69922-1.3086-0.27734-1.1562-0.1875-1.0781 0.63672-1.1328 0.21875-0.69531 0.82812-1.3594 0.20312-1.1367 0.12891-1.2344 0.058594-1.0977-0.35938-1.0898-0.48828-1.043 0.035157-1.0039 0.082031-1.1328-0.64453-0.70703-0.84766-1.0078-0.875-1.0781-0.91406-0.95703-0.84766-0.89062-0.64453-0.64844-0.92188-1.2383-0.86328-1.2109-0.82812-0.92188-0.58203-1.2188-0.375-1.5859-1.0352-1.0703-0.52734-1.9727-0.76172-1.1523-0.72266-0.97656-0.625-1.0742-0.21484-1.1719-0.15625-0.95703-0.3125-0.80078-1.0742 0.10156-1.1406 1.0391-1.3398 0.86328-0.84375 0.78125-0.86328v-1.0078l-0.36719-0.97656-0.30469-0.97266-0.60938-1.9844-0.24219-1.0039 0.15234-1.7383-0.24609-1.25-0.18359-1.0391 0.26172-0.97266 0.99219 0.26562 1.043 0.054687 1.2578-0.48047 1.4688-0.72266 1.2852-0.26953 1.125-0.66797 0.9375-0.64062h1.0273l1.5195 0.57812 1.4766 0.23828 1.2188 0.76953 1.1328 0.19141 1.2422 0.55859 0.75 0.875 1.0039 0.38672 0.85938 0.55469 1.1094-0.25781 0.23828-1.2812 0.14844-1.2227 0.30469-1.4922 0.27734-1.4922 0.25391-1.7812 0.46875-1.168 2.4453-2.0156z" fill="#ccc" fill-rule="evenodd"/>
<path d="m260.45 424.92 0.19141 0.058594 0.96094 0.51562 0.99609 0.70312 1.207 0.23438 1.7266 0.18359 1.043 0.13281 1.0352 0.875 0.37109 1.4297 0.42188 1.125 0.51562 1.1836 0.48438 1.0625 0.59375 0.86719 0.37891 1.0469v1.4258l0.45703 1.2617-0.09375 1.0312 0.71484 1.3555 0.53125 0.92578 0.45703 1.1523 0.35938 1.1016 0.089844 1.1445-0.53906 1.0742-0.34766 0.94531 0.50781 1.4414 1.2344 0.95312 1.043-0.45312 0.53125 1.3906 0.64062 1.4336 0.78125 0.89062 0.15625 1.1406-0.65625 1.2969-1.1406 1.0117-0.80859 0.78906 0.058594 1.0234-0.44922 1.0625-1.1562-0.1875-0.046875 1.5117 0.40625 1.0156-0.75 0.84375-1.0938 0.3125-0.78125 0.69922-1.3086-0.27734-1.1562-0.1875-1.0781 0.63672-1.1328 0.21875-0.69531 0.82812-1.3594 0.20312-1.1367 0.12891-1.2344 0.058594-1.0977-0.35938-1.0898-0.48828-1.043 0.035157-1.0039 0.082031-1.1328-0.64453-0.70703-0.84766-1.0078-0.875-1.0781-0.91406-0.95703-0.84766-0.89062-0.64453-0.64844-0.92188-1.2383-0.86328-1.2109-0.82812-0.92188-0.58203-1.2188-0.375-1.5859-1.0352-1.0703-0.52734-1.9727-0.76172-1.1523-0.72266-0.97656-0.625-1.0742-0.21484-1.1719-0.15625-0.95703-0.3125-0.80078-1.0742 0.10156-1.1406 1.0391-1.3398 0.86328-0.84375 0.78125-0.86328v-1.0078l-0.36719-0.97656-0.30469-0.97266-0.60938-1.9844-0.24219-1.0039 0.15234-1.7383-0.24609-1.25-0.18359-1.0391 0.26172-0.97266 0.99219 0.26562 1.043 0.054687 1.2578-0.48047 1.4688-0.72266 1.2852-0.26953 1.125-0.66797 0.9375-0.64062h1.0273l1.5195 0.57812 1.4766 0.23828 1.2188 0.76953 1.1328 0.19141 1.2422 0.55859 0.75 0.875 1.0039 0.38672 0.85938 0.55469 1.1094-0.25781 0.23828-1.2812 0.14844-1.2227 0.30469-1.4922 0.27734-1.4922 0.25391-1.7812 0.46875-1.168 2.4453-2.0156 0.24609 0.035156" fill="none" stroke="#fff" stroke-linecap="round" stroke-linejoin="round" stroke-miterlimit="10" stroke-width="2"/>
<path d="m241.39 309.88 0.25391 0.14453 1.1797 0.85547 1.1875 0.30859 1.3906 0.039063 1.332 0.90625 1.332 0.59375 1.1328-0.027344 1.1055-0.36719 0.87891 0.73438 0.22656 1.0508 0.52734 1.0977 0.78516 0.98438 0.70703 1.3359 0.39844 0.96875 1.0625 0.12109 1.2148-0.027344 1.2891 0.82031 1.3438 0.69141 0.96094-1.2695 0.76172-0.65625 1.1992-0.23438 1.2344-0.054688 0.94141 0.58203 1.0352 0.83594 0.21484 1.3672 0.92578 0.46094 1.7227 0.32031 0.99609 1.0156 0.71094 1.082-0.054688 1.1367 0.46094 1.0508 0.67578 0.80078 0.14453 1.2422-0.60547 1.0664-0.69141 0.92578-0.17969 1.3125-0.51562 1.0508-0.51562 0.99609-0.56641 0.88672-0.375 1.0469-0.71094 0.71094 0.49609 1.3516 0.83594 0.58594 0.78125 0.71094 0.625 1.2109-0.39062 1.1523 0.14062 1.1758 0.92578 0.69141 1.0117 0.16016 0.90625 0.81641 0.81641 1.5117 0.57031 1.2461 0.72656 0.78125-0.30078 1.1367-0.85156 0.62109 1.1172 1.0156 0.66016 0.76172 0.33984 1.6211 0.88281 1.625-0.30078 1.2656-1.3984 0.47266-1.4297-0.12891-0.97656-0.48828-0.78125 0.94922-0.86328 0.91016-0.80859 0.67578-1.0938 0.11719-1.4297-0.10156-1.0352-0.10156-1.3125 0.10156-1.3711 0.35938-1.0352 0.375-1.4297-0.11328-1.4688-0.62109-1.1406-0.49219-1.1953 0.10156-0.9375 0.51953-0.96484 0.35938-1.0078 0.76562-0.69141 0.90625-1.0977 0.83594-0.80469 0.70703 0.027344 1.082-0.66406 0.86328-0.99219 0.41797-1.0117 0.80859-0.51953 1.0508-1.0508 1.3008-0.80859 1.0352-0.92188 0.50391-1.5117 1.0547-0.42969 0.96094-0.625 1.4023-0.85547 1.0898-0.73828 1.0117-0.85938 0.82031-1.2852 0.99219-0.90625 0.90625-1.0938 1.4961-0.58984 1.0117-0.44531 1.2617-0.0625 1.0742-0.52734 1.1172-0.52344 1.2227-0.10547 1.0547-0.94922 0.75391-0.10547 1.1406-0.019531 1.3477 0.42188 1.2852 0.33594 1.3281 0.019531 1.0508-0.42188 1.0977-0.27344 0.96875-0.47656 1.8086 0.18359 1.1602 0.71484 0.86328 0.78125 1.0508 1.0078 0.21094 0.25391 0.98047-0.92969 0.74219-0.46094 1.3164-0.85938 1.0234-0.89844 0.88281-0.73047 0.79688-0.83594 0.78906-0.99609 0.91016-0.60547 0.89062-0.33203 1.0312-0.61328 1.2227-0.76953 0.93359-0.64844 0.96484-0.73047 0.87109-0.43359 0.95312-0.91797 0.94141-0.88672 1.2031-0.27344 1.2109-0.40234 0.92578-1.1172 1.0938-0.91797 0.87109-0.77344 1.082-2.1289-0.13281-1.2578 0.19531-1.3125 0.089844 0.27344-1.2422 0.52734-1.3672 0.33594-1.6328-0.62891-0.93359-0.78125-0.96484-0.51562-1.2539-0.46094-0.97656-0.55469-0.98438 0.29688-1.0117 0.10156-1.2305-0.90625-0.77344-1.0117-0.45703-1.1602-0.19531-1.0859 0.14453-0.80469-0.70703-0.15625-1.4258-0.20703-1.9141-0.56641-1.3672-0.68359-0.79688-0.61719-0.91406-0.77344-1.0703-0.36328-0.95703-0.18359-1.0234-0.59375-1.0469-1.0938-1.3906-1.1602-0.73047-0.91016-0.84375-0.33203-1.0273-0.47266-0.92578-0.64844-0.88672-1.0078-1.1797-0.65234-0.98828-0.09375-1.0234-0.45312-1.457-0.53125-1.0625-0.55078-1.3008-0.86719-1.1406-0.78906-1.0039-0.76562-0.66797-0.86719-1.0664-0.86719-0.82422-1.1602-0.84375-1.0273-0.45312-0.97266 0.26172-0.41797 1.1016-0.74609 0.82031-0.98047-0.3125-0.65234-0.97656 0.078125 1.1133 0.25781 1.1719-1.1602 0.64062-1.0156-0.77344-1.0273-1.4805-0.70703-1.3867-0.10938-1.1016 0.34375-1.5898 0.41797-1.1602-0.41797-0.97656-0.48828-1.1367-0.54297-0.88672-0.50391-1.7891-0.47266-1.8711-0.20312-1.4336 0.082031-1.293 0.042969-1.0977-0.16797-1.0703-0.27734-1.0547 0.16016-1.1641-0.17969-1.1094-0.23438-1.207 0.14453-1.1133-0.12109-1.293-0.64062-1.0625-0.61719-0.83203-0.15625-1.2148 0.38281-1.0273 0.21094-1.168-1.0156-0.625-0.59375-0.91016-0.74219-0.95703-0.74219-0.79297 0.43359-1.1797-0.50781-0.875-0.78906-0.71875 0.23438-1.3359-0.41406-1.0586v-1.0586l0.17969-1.2617-0.60156-0.89453-0.44141-1.0391-0.375-0.97656 0.53906-1.2695-0.29297-1.0586 0.17188-1.4883-0.35156-1.1289-0.52344-0.95312 1.7617-0.70312 1.7539-1.2305 1.2539-0.55078 1.4102-1.1953 1.0938-0.61328 0.63281-1.0234-0.45312-0.89453-0.41016-1.1406 1.0938-0.082031 1.0898-0.03125 1.4492-0.066406 2.3125 0.019531 1.3867 0.046875 1.2852 0.16406 1.1719-0.015625 1.207-0.73438 1.0273-0.57031 0.94141 0.48828 0.375 1.043 1.2734 0.79688 1.1367 1.5 0.91406 0.55469 0.94531-0.53906 1.1562 0.34375 1.0898-0.035156 0.83203 0.62109 1.0078 0.40625 1.2461 0.074219 0.9375 0.59766 0.8125 0.71875 0.67578 0.78516 0.89453 0.72656 1.3828-0.10156 0.96484-0.46875 0.77344-0.75781 0.65625-0.80078 0.88672-0.50391 0.41406-0.91797 1.1445 0.12109 1.2695 0.054687 1.2148 0.046875 1.5547 0.15234 0.98828 0.26172 0.96094 0.39062 0.89453 0.47656 1.6016 0.32031 1.0312 0.55469 1.0117-0.125 1.0273-0.058594 0.71484-0.69531 0.67969-1.0039 0.082031-2.0352 0.35156-0.94922 0.51953-1.0352 0.82422-0.78125 0.69531-0.84375 1.4336-0.25391 1.125-0.70703 0.77734-1.1523 0.375-0.95703-0.44141-0.91797 0.35938-1.207 0.015625-1.1953 0.44141-0.97266 1.168-0.51172 0.5-0.875 0.27734-1.0156 1.5352-0.73047 1.1016-0.63281 1.1875-0.28125 1.1758-0.29688z" fill="#0a5394" fill-rule="evenodd"/>
<path d="m241.39 309.88 0.25391 0.14453 1.1797 0.85547 1.1875 0.30859 1.3906 0.039063 1.332 0.90625 1.332 0.59375 1.1328-0.027344 1.1055-0.36719 0.87891 0.73438 0.22656 1.0508 0.52734 1.0977 0.78516 0.98438 0.70703 1.3359 0.39844 0.96875 1.0625 0.12109 1.2148-0.027344 1.2891 0.82031 1.3438 0.69141 0.96094-1.2695 0.76172-0.65625 1.1992-0.23438 1.2344-0.054688 0.94141 0.58203 1.0352 0.83594 0.21484 1.3672 0.92578 0.46094 1.7227 0.32031 0.99609 1.0156 0.71094 1.082-0.054688 1.1367 0.46094 1.0508 0.67578 0.80078 0.14453 1.2422-0.60547 1.0664-0.69141 0.92578-0.17969 1.3125-0.51562 1.0508-0.51562 0.99609-0.56641 0.88672-0.375 1.0469-0.71094 0.71094 0.49609 1.3516 0.83594 0.58594 0.78125 0.71094 0.625 1.2109-0.39062 1.1523 0.14062 1.1758 0.92578 0.69141 1.0117 0.16016 0.90625 0.81641 0.81641 1.5117 0.57031 1.2461 0.72656 0.78125-0.30078 1.1367-0.85156 0.62109 1.1172 1.0156 0.66016 0.76172 0.33984 1.6211 0.88281 1.625-0.30078 1.2656-1.3984 0.47266-1.4297-0.12891-0.97656-0.48828-0.78125 0.94922-0.86328 0.91016-0.80859 0.67578-1.0938 0.11719-1.4297-0.10156-1.0352-0.10156-1.3125 0.10156-1.3711 0.35938-1.0352 0.375-1.4297-0.11328-1.4688-0.62109-1.1406-0.49219-1.1953 0.10156-0.9375 0.51953-0.96484 0.35938-1.0078 0.76562-0.69141 0.90625-1.0977 0.83594-0.80469 0.70703 0.027344 1.082-0.66406 0.86328-0.99219 0.41797-1.0117 0.80859-0.51953 1.0508-1.0508 1.3008-0.80859 1.0352-0.92188 0.50391-1.5117 1.0547-0.42969 0.96094-0.625 1.4023-0.85547 1.0898-0.73828 1.0117-0.85938 0.82031-1.2852 0.99219-0.90625 0.90625-1.0938 1.4961-0.58984 1.0117-0.44531 1.2617-0.0625 1.0742-0.52734 1.1172-0.52344 1.2227-0.10547 1.0547-0.94922 0.75391-0.10547 1.1406-0.019531 1.3477 0.42188 1.2852 0.33594 1.3281 0.019531 1.0508-0.42188 1.0977-0.27344 0.96875-0.47656 1.8086 0.18359 1.1602 0.71484 0.86328 0.78125 1.0508 1.0078 0.21094 0.25391 0.98047-0.92969 0.74219-0.46094 1.3164-0.85938 1.0234-0.89844 0.88281-0.73047 0.79688-0.83594 0.78906-0.99609 0.91016-0.60547 0.89062-0.33203 1.0312-0.61328 1.2227-0.76953 0.93359-0.64844 0.96484-0.73047 0.87109-0.43359 0.95312-0.91797 0.94141-0.88672 1.2031-0.27344 1.2109-0.40234 0.92578-1.1172 1.0938-0.91797 0.87109-0.77344 1.082-2.1289-0.13281-1.2578 0.19531-1.3125 0.089844 0.27344-1.2422 0.52734-1.3672 0.33594-1.6328-0.62891-0.93359-0.78125-0.96484-0.51562-1.2539-0.46094-0.97656-0.55469-0.98438 0.29688-1.0117 0.10156-1.2305-0.90625-0.77344-1.0117-0.45703-1.1602-0.19531-1.0859 0.14453-0.80469-0.70703-0.15625-1.4258-0.20703-1.9141-0.56641-1.3672-0.68359-0.79688-0.61719-0.91406-0.77344-1.0703-0.36328-0.95703-0.18359-1.0234-0.59375-1.0469-1.0938-1.3906-1.1602-0.73047-0.91016-0.84375-0.33203-1.0273-0.47266-0.92578-0.64844-0.88672-1.0078-1.1797-0.65234-0.98828-0.09375-1.0234-0.45312-1.457-0.53125-1.0625-0.55078-1.3008-0.86719-1.1406-0.78906-1.0039-0.76562-0.66797-0.86719-1.0664-0.86719-0.82422-1.1602-0.84375-1.0273-0.45312-0.97266 0.26172-0.41797 1.1016-0.74609 0.82031-0.98047-0.3125-0.65234-0.97656 0.078125 1.1133 0.25781 1.1719-1.1602 0.64062-1.0156-0.77344-1.0273-1.4805-0.70703-1.3867-0.10938-1.1016 0.34375-1.5898 0.41797-1.1602-0.41797-0.97656-0.48828-1.1367-0.54297-0.88672-0.50391-1.7891-0.47266-1.8711-0.20312-1.4336 0.082031-1.293 0.042969-1.0977-0.16797-1.0703-0.27734-1.0547 0.16016-1.1641-0.17969-1.1094-0.23438-1.207 0.14453-1.1133-0.12109-1.293-0.64062-1.0625-0.61719-0.83203-0.15625-1.2148 0.38281-1.0273 0.21094-1.168-1.0156-0.625-0.59375-0.91016-0.74219-0.95703-0.74219-0.79297 0.43359-1.1797-0.50781-0.875-0.78906-0.71875 0.23438-1.3359-0.41406-1.0586v-1.0586l0.17969-1.2617-0.60156-0.89453-0.44141-1.0391-0.375-0.97656 0.53906-1.2695-0.29297-1.0586 0.17188-1.4883-0.35156-1.1289-0.52344-0.95312 1.7617-0.70312 1.7539-1.2305 1.2539-0.55078 1.4102-1.1953 1.0938-0.61328 0.63281-1.0234-0.45312-0.89453-0.41016-1.1406 1.0938-0.082031 1.0898-0.03125 1.4492-0.066406 2.3125 0.019531 1.3867 0.046875 1.2852 0.16406 1.1719-0.015625 1.207-0.73438 1.0273-0.57031 0.94141 0.48828 0.375 1.043 1.2734 0.79688 1.1367 1.5 0.91406 0.55469 0.94531-0.53906 1.1562 0.34375 1.0898-0.035156 0.83203 0.62109 1.0078 0.40625 1.2461 0.074219 0.9375 0.59766 0.8125 0.71875 0.67578 0.78516 0.89453 0.72656 1.3828-0.10156 0.96484-0.46875 0.77344-0.75781 0.65625-0.80078 0.88672-0.50391 0.41406-0.91797 1.1445 0.12109 1.2695 0.054687 1.2148 0.046875 1.5547 0.15234 0.98828 0.26172 0.96094 0.39062 0.89453 0.47656 1.6016 0.32031 1.0312 0.55469 1.0117-0.125 1.0273-0.058594 0.71484-0.69531 0.67969-1.0039 0.082031-2.0352 0.35156-0.94922 0.51953-1.0352 0.82422-0.78125 0.69531-0.84375 1.4336-0.25391 1.125-0.70703 0.77734-1.1523 0.375-0.95703-0.44141-0.91797 0.35938-1.207 0.015625-1.1953 0.44141-0.97266 1.168-0.51172 0.5-0.875 0.27734-1.0156 1.5352-0.73047 1.1016-0.63281 1.1875-0.28125 1.1758-0.29688 0.33594 0.066406" fill="none" stroke="#fff" stroke-linecap="round" stroke-linejoin="round" stroke-miterlimit="10"/>
<path d="m230.07 380.28c0 3.5898-2.9102 6.5-6.5 6.5s-6.5-2.9102-6.5-6.5 2.9102-6.5 6.5-6.5 6.5 2.9102 6.5 6.5" fill="#28c028" fill-rule="evenodd" stroke="#000" stroke-linecap="round" stroke-linejoin="round" stroke-miterlimit="10"/>
<path d="m149.29 368.23 3.2344 1.0156c-0.5 1.793-1.3281 3.125-2.4844 4-1.1484 0.875-2.6016 1.3125-4.3594 1.3125-2.1875 0-3.9844-0.74219-5.3906-2.2344-1.4062-1.5-2.1094-3.5469-2.1094-6.1406 0-2.7383 0.70312-4.8633 2.1094-6.375 1.4141-1.5195 3.2812-2.2812 5.5938-2.2812 2.0078 0 3.6445 0.60156 4.9062 1.7969 0.75 0.69922 1.3125 1.7109 1.6875 3.0312l-3.2969 0.78125c-0.19922-0.85156-0.60547-1.5234-1.2188-2.0156-0.61719-0.5-1.3672-0.75-2.25-0.75-1.2188 0-2.2109 0.4375-2.9688 1.3125-0.76172 0.875-1.1406 2.2969-1.1406 4.2656 0 2.0742 0.375 3.5547 1.125 4.4375 0.75 0.88672 1.7227 1.3281 2.9219 1.3281 0.88281 0 1.6445-0.28125 2.2812-0.84375 0.63281-0.5625 1.0859-1.4414 1.3594-2.6406zm20.922 6.0469h-3.6094l-1.4375-3.7344h-6.5781l-1.3594 3.7344h-3.5312l6.4062-16.469h3.5156zm-6.1094-6.5156-2.2812-6.1094-2.2188 6.1094zm7.9688 6.5156v-16.328h3.3281v13.547h8.2656v2.7812zm24.484-6.0469 3.2344 1.0156c-0.5 1.793-1.3281 3.125-2.4844 4-1.1484 0.875-2.6016 1.3125-4.3594 1.3125-2.1875 0-3.9844-0.74219-5.3906-2.2344-1.4062-1.5-2.1094-3.5469-2.1094-6.1406 0-2.7383 0.70312-4.8633 2.1094-6.375 1.4141-1.5195 3.2812-2.2812 5.5938-2.2812 2.0078 0 3.6445 0.60156 4.9062 1.7969 0.75 0.69922 1.3125 1.7109 1.6875 3.0312l-3.2969 0.78125c-0.19922-0.85156-0.60547-1.5234-1.2188-2.0156-0.61719-0.5-1.3672-0.75-2.25-0.75-1.2188 0-2.2109 0.4375-2.9688 1.3125-0.76172 0.875-1.1406 2.2969-1.1406 4.2656 0 2.0742 0.375 3.5547 1.125 4.4375 0.75 0.88672 1.7227 1.3281 2.9219 1.3281 0.88281 0 1.6445-0.28125 2.2812-0.84375 0.63281-0.5625 1.0859-1.4414 1.3594-2.6406zm20.922 6.0469h-3.6094l-1.4375-3.7344h-6.5781l-1.3594 3.7344h-3.5312l6.4062-16.469h3.5156zm-6.1094-6.5156-2.2812-6.1094-2.2188 6.1094zm0 0" fill="none" stroke="#fff" stroke-linecap="round" stroke-linejoin="round" stroke-miterlimit="10" stroke-width="2"/>
<path d="m149.29 368.23 3.2344 1.0156c-0.5 1.793-1.3281 3.125-2.4844 4-1.1484 0.875-2.6016 1.3125-4.3594 1.3125-2.1875 0-3.9844-0.74219-5.3906-2.2344-1.4062-1.5-2.1094-3.5469-2.1094-6.1406 0-2.7383 0.70312-4.8633 2.1094-6.375 1.4141-1.5195 3.2812-2.2812 5.5938-2.2812 2.0078 0 3.6445 0.60156 4.9062 1.7969 0.75 0.69922 1.3125 1.7109 1.6875 3.0312l-3.2969 0.78125c-0.19922-0.85156-0.60547-1.5234-1.2188-2.0156-0.61719-0.5-1.3672-0.75-2.25-0.75-1.2188 0-2.2109 0.4375-2.9688 1.3125-0.76172 0.875-1.1406 2.2969-1.1406 4.2656 0 2.0742 0.375 3.5547 1.125 4.4375 0.75 0.88672 1.7227 1.3281 2.9219 1.3281 0.88281 0 1.6445-0.28125 2.2812-0.84375 0.63281-0.5625 1.0859-1.4414 1.3594-2.6406zm20.922 6.0469h-3.6094l-1.4375-3.7344h-6.5781l-1.3594 3.7344h-3.5312l6.4062-16.469h3.5156zm-6.1094-6.5156-2.2812-6.1094-2.2188 6.1094zm7.9688 6.5156v-16.328h3.3281v13.547h8.2656v2.7812zm24.484-6.0469 3.2344 1.0156c-0.5 1.793-1.3281 3.125-2.4844 4-1.1484 0.875-2.6016 1.3125-4.3594 1.3125-2.1875 0-3.9844-0.74219-5.3906-2.2344-1.4062-1.5-2.1094-3.5469-2.1094-6.1406 0-2.7383 0.70312-4.8633 2.1094-6.375 1.4141-1.5195 3.2812-2.2812 5.5938-2.2812 2.0078 0 3.6445 0.60156 4.9062 1.7969 0.75 0.69922 1.3125 1.7109 1.6875 3.0312l-3.2969 0.78125c-0.19922-0.85156-0.60547-1.5234-1.2188-2.0156-0.61719-0.5-1.3672-0.75-2.25-0.75-1.2188 0-2.2109 0.4375-2.9688 1.3125-0.76172 0.875-1.1406 2.2969-1.1406 4.2656 0 2.0742 0.375 3.5547 1.125 4.4375 0.75 0.88672 1.7227 1.3281 2.9219 1.3281 0.88281 0 1.6445-0.28125 2.2812-0.84375 0.63281-0.5625 1.0859-1.4414 1.3594-2.6406zm20.922 6.0469h-3.6094l-1.4375-3.7344h-6.5781l-1.3594 3.7344h-3.5312l6.4062-16.469h3.5156zm-6.1094-6.5156-2.2812-6.1094-2.2188 6.1094z" fill-rule="evenodd"/>
</g>
</svg>
