<?xml version="1.0" encoding="UTF-8"?>
<svg width="425pt" height="500pt" version="1.1" viewBox="0 0 425 500" xmlns="http://www.w3.org/2000/svg">
<g id="a">
<rect width="425" height="500" fill="none"/>
<path d="m373.42 43.977 0.085938-0.48828-0.71875-0.82812-1 0.24219-0.96094 0.72266-1.1016 0.60938-1.0938 0.10938-1.0234 0.61328-1.1055-0.33984-1.0664 0.28125-0.0625 1.0195-0.83203 0.6875-0.75781 0.68359-0.35156 0.98047 0.38672 1.0195 0.70703 0.88672 0.78125 0.98828 0.13672 1.0352 0.57031 0.83594 0.12891 1.2344-0.046875 1.0508 0.28125 1.3555-0.59375 0.98828-0.79688 0.88281-0.77344 0.73438-0.5 1.1484-0.55078 0.9375-0.73438 0.75-0.12109 1.125 0.3125 1.0352 0.79297 0.80469 0.90234 0.83594-0.078125 1.0938-1.0039 0.50781-0.9375 1.0117-0.6875 0.86328-0.98828 0.71094-1.1953 0.88672-0.59766 0.82812-0.375 1.0469-1.0781 1.3516-1.25 0.33203-1.543 0.023438-1.3203-0.36719-0.77734-1.4062-0.62891-1.2031-0.027344-1.5273-0.64062-1.3555-0.47266-1.1055-1.3438-0.90625-1.582-0.31641-0.89453 0.83203-2.5586-0.39844-1.25 0.19141-1.7148 1.0469-1.25 0.054687-0.70703 0.83203-0.1875 1.3125-0.61719 0.93359-0.80078 1.0469-0.44531 1.3516-0.79297 1.3438-0.44531 1.2461h-1.0391l-1.0859-0.24609-0.41797-0.99219-1.1055-0.61328-0.89062-0.49219-1.0352-0.37891-1.1172-1.2734-1.0859-0.29297-1.0977-0.22656-1.1406-0.71094-0.98438-0.5-0.94531 0.625-0.43359 1.4531-0.87109 0.71094-0.67969 0.89453-0.72656 0.87891-0.80469 0.81641-0.32031 1.3594-0.35938 0.95312-1.0273 0.54688-0.125 1.332-0.11328 1.0742 0.51953 0.99609 0.42578 1.125 0.35938 1.1523 0.16797 1.7109-0.007812 1.1172-0.066406 2.4062 1.043 0.0625 0.51562-1.0547 0.47266-0.98438 0.98047 0.4375 0.8125 0.72266 0.61328 0.80859 0.76953 0.67188 1 0.55469 0.039062 1.0703 0.058594 1.0508 0.875 0.57422 0.60938 0.83984 0.57812 0.95703-0.0625 1.1758 0.54688 0.91406 0.37109 1.1875 1.0352 0.80469 1.0195-0.39844 0.94141-0.37109 0.57812 0.94531 0.53516 1.2031 0.042969 1.0742 0.050781 1.0781-0.40234 1.1836-0.70703 0.77734 0.71094 0.80859 0.89453 0.6875 1.1836 0.62109 0.6875 0.75391 0.99609 0.44141 1.0195-0.76172 2.3477-0.15625 1.043-0.26953 1.3906 0.011719 1.4414-0.19922 1.1719 0.19141 1.3164 0.26953 1.0195-0.33203 1.0703-0.046875 1.0391 0.71484 1.2539 0.21094 0.94922-0.33984 1.0078 0.17188 1.1367-0.40625 1.0625 0.003906 1.3008 0.52344 1.3438 0.53125 1.0039 0.91797 0.53125 1.0703 0.38281 0.98828 0.74219 0.80469-0.30469 1.207-0.75781 1.2109-1.1133 0.58984-0.38672 1.4844-0.58594 1.1016 0.27734 1.0938 0.91016 0.54297 0.9375-0.42578 1.0078 0.57812 0.59375 0.85156 0.082031 1.7617 0.30469 1 0.039062 1.0273-0.53906 0.99219 0.44531 1.2734 0.78516 0.71875 0.74609 1.2617 1.1211 1.082 0.51172 1.6758 0.09375 1.4961-0.085938 1.082-0.73047 1.2227 0.55859 1.0898 0.89844 0.49219 1.9102 0.59375 0.99609 0.11328 0.57422 1.082-0.55078 0.84375 0.33203 1.668 0.66406 0.79688 0.89453 0.45703 1.1836 0.21875 1.4766 0.46094 0.97266 0.33203 1.3516 0.74219 1.0312 0.21484 1.0625 0.35547 0.875-0.62891 0.54688 1.1016-0.24219 1.0742-0.85156 0.74219-1.5625 0.011718-0.86719 0.52734-0.23828 1.0117-0.46875 1.3945 0.23438 1.5195 0.55078 1.0352 0.80469 0.76953 0.77734 1.0195 0.042969 1.0469-0.15625 1.1289 0.625 0.85547 0.39844 1.0781-0.035156 1.0625 0.066406 1.207 0.10156 1.4375-0.61719 1.0469-0.76172 0.91406-1.1719-0.035156-0.75781 0.91406-0.32812 1.2773-0.45703 0.98828-0.38672 0.94922-0.35156 1.0469-0.30078 1.0586 0.53516 1.1641 1.2773 1.2305 0.082031 1.2109 0.88281 0.84375 0.91406 0.48438 0.1875 1.0547 0.97656 0.74609 1.1367-0.039063 0.875-0.82422 0.73047-0.71094 1.0859 0.023437 0.88672 0.48438 0.57422 0.875 1.2812 1.0273 0.97656 0.32812 0.89453 1.1797 0.66797 0.85938-0.14062 1.1367-0.76953 0.74609 0.49609 1.0938 0.87109 0.52734 0.27734 0.96484-0.44531 0.91797 0.52344 0.96094 0.03125 1.3281-0.023438 1.0078 0.03125 1.0195-1.1992 0.32422-1-0.51953-0.58203 0.99609-0.066406 1.0859 0.625 0.94531 0.17578 1.1289 0.023438 1.0312 0.39453 0.97656-0.48438 1.0273-1.3164 0.074219-0.92578-0.4375-1.1484 0.23438-0.40625 0.97656-1.25 0.46875-1.3047-0.55469-1.3711 0.32031-0.60938 1.0664-0.0625 1.0312-0.47266 1.0898-0.039063 1.25 0.097656 1.0391 0.46875 0.94531 0.58594 0.90234 0.45312 1.5312 0.52344 1.0078 0.58984 0.94141 0.42188 1.0234-0.03125 1.2148-0.16797 1.3594-0.58203 1.1719-0.60938 1.0156-0.21094 1.3828-0.83594 0.67578 0.23438 1.2617 0.089844 1.0547 0.34766 1.0703 1.0195 0.17188 1.0977-0.097656 1.0039 0.23828 0.96875-0.38672 1.1484 0.12109 1.2578 0.76953 0.71484 0.79688-0.18359 1.168-0.48047 0.90234-0.046875 1.1328-0.019531 1.3086 0.16797 1.082 0.11719 1.2305 0.51562 1.1328 0.51562 1.125 0.17969 1.6797 0.14844 1.125 0.42969 0.94531 0.58594 0.85156 0.70703 1.1445 0.82812 0.74609 0.64062 1.0703 0.60156 1.1992 0.56641 1.0938 0.51562 1.4219 0.17188 1.1797-0.39844 1.5273-0.34375 1.207-0.050782 1.2266 0.058594 1.3359 0.058594 1.6289 0.35938 0.96094 0.019531 1.0117-0.76953 1.0742-0.91797 0.58203-0.97266-0.25781-0.73047-0.89062-0.68359-0.82031-0.99219-0.29688-1.0234-0.11328-0.94531-0.4375-1.1289-0.35547-1.0938-0.37109-0.73438-0.82422-0.91406-0.625-0.96094-0.67188-0.85156-0.79297-1.1641-0.72656-0.45703-0.94922-0.86719-1.5625-1.0977-0.91797-0.96094-0.60938-1.0547-0.066406-0.99219-0.15625-1.125-0.046875-0.95703-0.50781-1.0234-0.30859-0.93359 0.44531-0.96484 0.52344-1.0078 0.058594-0.86328 0.72656-0.95703 1.0898-0.37891 1.3516-0.17969 1.0078-0.72266 0.74219-0.64062 0.85156-0.80859 0.69922-0.49219 0.99609-0.53125 1.1914-0.53125 0.95703 0.019531 1.1133-0.4375 0.98828-0.62891 0.79688 0.42969 0.98438-0.11719 1.1172-0.47266 1 0.41016 1.168-0.16797 1.0234 0.039062 1.1758-0.089843 1.1094 0.16406 1.1328 0.13281 1.0156 1.1094 0.21875 1.1367 0.42969 1.0195 0.42188 1.0195 0.12109 0.63281 0.77734-0.15234 1.082 0.015625 1.3633-0.14453 1.0938 0.10547 1.0625-0.38281 0.96094-0.85547 0.71094-0.82422 0.86719 0.22656 1.0547-1.3047 0.33594-1.1094-1.125-1.6797-0.33203-1.2695-0.125-2.1797 0.91797-0.69922 1.0547-1.1602 0.61328-1.0469 0.92188-1.625 0.93359-1.1055 1.4883-0.83984 0.96094-1.1445 0.16797-0.94141-0.42969-1.1055 0.25781-1.0703 0.58984-1.4023 0.19531-1-0.40234-1.3164-0.82812-1.1797 0.11328-1.2617 0.875-1.0234 0.56641-1.2656-0.03125-1.1094 0.67578-1.082-1.1758-0.91016-0.47266-0.76953 0.67188-0.80859 0.78125-1.2891 0.11328-0.99219 0.96875-0.9375-0.9375-0.69531-0.77344-0.65234-0.78516-0.81641-0.69141-0.92578-0.38672-1.3203 0.21094-1.082-0.25781-1.0625 1.0781-1.1094 0.59375-0.082031 1.3125-0.32812 1.0117-0.99219 0.65625-0.050781 1.0195-1.7852 0.48047-1.457 1.4531-0.52734 0.97656 0.24219 1.0508-0.94922 0.6875-0.87109 0.70703-1.375 1.293-0.91016 0.89062-0.91797 0.52734-0.86719 1.3438-0.69922 1.2734-0.76172 1.1836-1.2461 0.75781-1.0234 1.5117-0.625 0.94141-1.1367-0.039062-0.92188-0.78906-1.3828 0.30469-2.3086 0.54297-1.043 0.63672-0.89453 1.0859-0.9375 0.53516-0.89453 0.44922 1.1094 1.3477 0.86328 0.64844 0.31641 1.0273 0.49609 1.3281 0.61719 0.91797-0.089844 1.3164 0.64453 1.0117 0.62891 0.98047-0.26562 1.0938 0.80859 0.6875 1.0039 0.53906 1.0781 0.32812 1.0156-0.13672 0.83984 0.60938 1.0312 0.51172 1.0156 0.6875 0.88672 0.54688-0.80859 0.58984-1.0742 0.63672-1.043 0.46875-1.1055-0.011719-1.0352-0.066406-0.78906 0.67578-1.7109-0.078125-1.1055-0.35547-1.0625-0.097656-1.0781 0.027344-0.94922 0.33203-1.0508 0.23047-0.58594 0.89062-0.80859 0.60547-0.85547 0.69141-1.25 0.20703h-1.0117l-1.0625-0.22266-1.2227 0.16016-0.96484-0.30469-1.3672-0.066406-0.86328-0.69922-1.043-0.92969-0.32031-1.4766 0.26562-1.0469-0.53125-1.1094-1.4336-0.33984-0.89062-0.94531-0.56641-0.94531-0.70312-0.73828-1.1953-0.40625-0.83594 0.69922-0.25391 1.0977 0.058594 1.5586-0.59375 0.91016-0.8125 0.67969-1.1641 0.22266-1.3945 0.23828-1.0508-0.019531-1.1641 0.38281-0.91406 0.44922-1.3242 0.35156-0.93359 0.54688-1.0195 0.39453-1.2656-0.066406-0.93359-0.40234-0.96484 0.26953-1.3594 0.039063-1.1445-0.050781-1.0078-0.35547-1.0625-0.019531-1.0234-0.26172-1.0156 0.015625-1.1641 0.28906-0.94922 0.36719-0.875 0.64844-1.2188 0.11719-0.80078 1.0391-0.65234 0.8125-0.58203 0.86719-0.62891 0.80469-0.91797 0.65234-0.89062 0.64844-0.49609 1.1602-0.85938 0.97656-0.74609 0.9375 0.21094 0.98828 0.34766 1.0195 0.25781 1.3242 0.125 0.99609-0.50781 1.0586-0.19531 1.0469-0.90234 1.0742-0.86328 0.77344-0.11719 1.0859 0.35938 1.0742 0.16406 1.0195 0.16406 1.0352 0.31641 1.0977-0.62109 1.0508-0.12891 1.1016 0.20703 1.1367 0.96484 0.59766 1.2617 0.20312 0.91797 0.4375 0.83203 0.60156 1.0312 0.085937 1.0312-0.058594 1 0.27344 0.85547 0.83984 0.98828 0.42969 0.78516 0.64844 0.85547 0.8125 0.40234 1.0547 0.4375 1.0625 1.0156 0.41406 0.35156 1.0156 0.32812 0.95703 0.70312 0.74609 0.875 0.64453-0.023437 1.0039-0.097656 1.0469 0.66016 0.82031 0.92578 0.45312 0.23047 1.0312 0.68359 0.74219 1.0859 0.26562 1.0703 0.23828 0.95312-0.31641 0.91016 0.60547 0.61719 0.80469 0.82422 0.61719 0.92578 0.50391 0.73047 0.74609 0.75391 0.73047 0.49609 0.96484 0.41406 0.91406 0.054687 1.0352 0.55078 0.88672 0.61328 0.85547 0.48828 0.91797 0.92188 1.2852 0.68359 1.5156 0.28906 1.1523 0.15234 1.2852 0.625 1.0469 0.29297 1.5039-0.21484 1.2109-0.47266 1.0859-0.77734 1.0469-0.12891 1.2812 0.72656 1.6602-0.65625 0.87109-0.61719 0.93359-0.10547 1.4141 0.46094 1.0352 0.17969 1.9141 0.625 1.082 0.32812 1.0664-0.097656 1.1406v1.2148l0.32812 1.3242-0.16406 1.1641-0.25391 1.6328-0.15234 2.2812 0.39453 1.4922 0.80469 0.71484 0.92969 0.40625 1.3633 1.2031 0.76562 0.75391 0.625 0.87891-0.0625 1.2227-0.90625 1.3789-0.61328 0.85547 0.20703 1.3125 0.035156 1.2773-1.3242 2.1211-0.054687 1.3906 0.8125 1.207-0.64062 1.0117-1.8125-0.11719-1.0391-0.30078-0.26172 1.9688 0.55859 2.0977 1.3477 1.8867 0.82031 1.4766 0.64453 1.8086 0.77344 1.4219 0.039062 2.1055-0.19531 1.5234-0.16016 1.668-0.73047 1.4922-0.24609 1.3359-0.48438 1.0273-1.2578 0.91797-1.1367 1.1094-0.93359 0.57031-0.53516 2.1328 0.39844 1.3828 1.3516 0.61328-0.007813 2.0039-1.1094 2.2539-0.63672 1.2578-0.17578 1.9023 0.53906 1.4414 0.72656 1.543 0.72656 1.1484 0.32031 1.2383 0.10156 1.4414 0.31641 1.4883 0.43359 1.168 0.92578 1.5234-0.03125 1.3594-1.4609 0.51172-1.0078-0.39844-0.99219 0.86719-0.45703 0.96875 1.168 1.1211 0.30859 1.4531-0.25391 1.2422-0.61719 1.4062-0.26953 0.98438 0.60547 1.6914 0.67578 1.2461 0.082031 1.0625 0.32812 1.0781 0.60938 1.3672 1.2539-0.019531 0.28125 2.4844 0.44922 2.0859-0.050781 1.7695 0.79688 1.0352 0.75 0.8125-0.9375 1.082-1.6797 1.25-1.1406-0.15625-1.1445 0.24219-1.0508-0.66406-1.1172-0.14062-1.168 0.48828-1.0586-0.49609-1.7344 0.55859-2.0547 0.082031-0.89453 0.53516-1.4102 0.12891-1.3398-1.8086-1.1758-1.4062-1.0312-0.83984-1.457-0.0625-1.082 0.37109-0.98828-0.22266-0.72656-1.4531-1.918 0.81641-1.0391 0.53906-1.0859 0.13281-0.64453 1.0547-1.0469 0.74219-0.87109 1.125-1.332 2.3242-0.58203 1.2227-0.98828-0.25-0.32812-1.1445-0.88672-0.64453-1.2266-0.5625-1.0664 0.53906-1.1445 0.43359-1.0703 0.76562-1.3086-0.88281-0.64844-0.78125-1.418-0.011718-0.84766 0.5625-0.82422-1.0273-1.1016-0.90234-1.2617 0.035156-1.0703-0.58203-0.88281-0.66406-1.4766-0.82812-0.77344-0.66016-1.9961 0.058594-1.0273-0.26172-1.043-0.042968-1.0859-0.37891-1.2031-0.007812-1.9219-0.51562-1.1133-0.16406-1.1602 0.49609-1.0781 0.24609-1.1641-0.089844-0.27344 1.0078 0.19141 1.0234-0.33594 0.98047-0.45703 0.91406-0.48047 1.0352-0.35938 1.082-1.0039 0.53125-0.89453 0.49609-0.33594 0.98828-0.74609 0.80078-0.69531 0.82422-0.54688 0.92969 0.050781 1.2305-0.13672 1.0742-0.9375 0.49609 0.33984-1.0664-0.16016-0.99609-0.33984-1.2148-0.28125-1.0703-0.25391-1.4414 0.13281-1.2148-0.16797-1.3047-0.3125-1.2773-0.63672-0.90625-0.77344-1.0859-4.3945 0.40234-1.8281-3.5508-1.7734-3.6875-0.60547-2.1875-0.35547-1.2773-1.5156 0.26953-1.4102 1.1367-0.89062 1.2266-0.52734 0.92969-4.5391 2.7461-4.5078 2.293-3.9531-3.8242-0.91016-0.46094-1.1758-0.27344-4.1992-0.53516-2.2109-0.39844-9.1484-1.3398-0.24609-1.2344 0.875-0.92188 1.0117-0.70703 0.76562-1.1289 1.0312-0.89844 0.89844-0.78516 0.78516-1.0117 0.39453-0.96094 0.55469-1.0352-0.98047-0.54688-1-0.44141-1.1133-0.34766-1.0938-0.44141-0.96484 0.35938-1.1484 0.82422-1.0117 0.57031-0.89062 0.51172-0.90234 0.57422-1.0898-0.43359-1.2461 0.35156-1.2031 0.38281-1.1328 0.078125-1.1211 0.18359-1.2188 0.23828-0.99219 0.37891-1.2617 0.17188-1.1094 0.49609-1.1523 0.21484-1.0117-0.30078-1.1992-0.16016-1.1406-0.73438-0.82812-0.67188-1.0469-0.76172-0.9375-0.71484-0.62891-1.0586-0.86719-0.70312 0.089844-1.0117-0.39453-0.96484-0.64844-0.92969-0.35156-0.96094 0.13672-1-0.03125-1.1367-1.0742-0.47266-1.0039-0.42969-1.2109-0.42969-1.0469-0.29688-1.3086-0.85156-0.46484-0.95703-0.60547-0.85156-0.56641-0.82422-0.80859-0.78125-0.98828-0.32812-1.1367 0.03125-0.86328-0.78906-0.42578-0.97266-0.89844-0.50781-0.53125-0.87109-0.24609-1.0352-0.80469-0.69141-1.3906-0.62109-0.69922-0.83594-1.0586-0.71484-1.1094-0.27344-1.0781-0.097657-0.78906-0.78516-1.0117-0.47266-1.125-0.035156-1.0352-0.042969-1.0703-0.046875-0.66797 0.75781-1.168 0.27344-1.0781 0.035156-1.0312-0.25-1.0273-0.39062-0.87109-0.72266-0.88281-0.63281-1.0273-0.55859-1.0703 0.16016-0.43359-0.91797-1.1289-0.44141-0.73828-0.86719-0.92969-0.64453-0.97266-0.62891-1.0781-0.29688-1.0469 0.03125-1.0469 0.38672-1.0508 0.35156-1 0.078125-1.0117 0.12891-0.77734-0.67188 0.10156-1.0117-0.83594-0.55469-0.78906-0.66016-0.53516-0.94531-0.3125-1.0508 0.24219-1.0352-0.78516-0.90234-0.41406-0.92188-0.36328-1.0781 0.36328-0.96094 0.007812-1.0234 0.87109-0.60547 1.1797-0.058593 0.89062-0.48047 0.9375-0.41016 0.99219-0.1875 0.63281-0.78906 0.92578-0.42578 0.29297-1.0859 0.70703-0.75391 1-0.25391 0.74609-0.73047 0.003907-1.1133-0.089844-1.1406-0.125-1.1719-0.3125-0.95312-0.65625-0.76172-1.0391-0.25391-0.91406-0.4375-0.32812-1.0156-0.25391-1.043 0.46875-1.0391 0.03125-1.0195-0.16406-1.0312 0.40234-0.94531-0.19531-1.2695-0.87891-0.5-1.0078-0.26562-0.82812-0.60547-0.82812-1.1641 0.80469-0.69922 0.76172-0.73047 1.2383 0.027344 1.0078 0.38281 1.2148-0.50391 0.62891-0.85156 0.24219-1.0234-0.078125-1.1562 0.51953-1.0938 0.37109-0.96484 1.0508-0.52734 0.41797-0.91406 0.22656-1.0352 0.21094-1.0508-0.066406-1.0039 0.25-1.0312 0.62109-0.94531 0.77734-0.77344 0.53906-0.93359 1.1758 0.16406 0.57422-0.89844 0.37891-1.082 0.42578-1.0703 1.3359 0.058593 0.6875-0.78516 0.34766-1.1562 0.085938-1.0234 0.1875-1.1562 0.097656-1.1289-0.59375-0.86719-0.16797-1.1328-0.58594-0.83594-0.41406-0.98828-0.78125-0.67578-0.87891-0.75-1.0234-0.76172-0.85156-0.92578-1.0273-0.69531-0.70312-0.87891-0.54688-0.86719-0.26172-1.0195-0.22656-0.98828 0.58203-1.1211 0.95703-0.66406 0.45703-1.082 0.28125-5.8359 1.0859-0.046875 0.91797 0.44922 1.1055 0.046875 0.62891-1.2148 0.75781-1.7383 0.80859-1.7773 1.9414-4.4102-1.0273-0.41797-1.1406-0.3125-1.0938-0.16016 0.39062-0.95312 1.0312-0.44922 0.63281-0.93359-0.25391-1.0977 0.070312-1.0781 0.60156-0.84766 0.62891-1.2422 0.73047-0.8125-0.0625-1.0039 0.97266-0.53125 0.57812-0.94531-0.40234-0.94531 0.25781-1.1797-0.5-1.2812-0.16797-1.1836 0.21484-1.0156-0.058594-1.0039 0.30859-0.97656 0.27734-1.0312 0.14062-1.1914 0.62109-0.92188-0.11328-1.1289-0.80469-0.62891-0.99219-0.44141-1.4141-1.207-0.52734-0.85547-0.71094-0.77734-0.097656-1.0352-0.44141-1.1055-0.19141-1.0312-0.44922-0.97656-0.85547-0.66406-0.89844-0.64062 0.46484-1.0664 0.60547-0.91406 0.5-1.0273-0.82812-0.74609-0.1875-1.1406-0.26172-1.3984-0.36328-1.0391-0.375-0.97656-0.63672 0.83594 0.15625 1.7695-0.53906 1.375-0.82031 0.76953-1.1797 1.2461-0.64062 1.2578-0.92578 0.96875-1.043 0.32031-1.0742-0.46875-0.74609 0.69922-0.38281 1.0898-0.44531 1.1562-0.91406 0.61328-1.1016-0.14062-0.90234 0.53516-1.2812-0.24219-0.96875-0.59766h-1.2031l-1.1797-0.046875-1.0039-0.042969-1.082 0.21484-1.1445-0.13281-0.99609-0.50781-0.78125-0.79297-0.78516-0.98828-1.0156-0.73438-0.91016 0.98047-0.50391 0.875-0.66016 1.1367-0.64844 0.78125-0.80078 0.65234-0.13281 1.0703-0.48438 0.88672-0.99219-0.20703-0.98438-0.43359-1.082 0.10156-0.86328-0.5625-0.78906 0.66016-0.875 0.54688-0.98438 0.58203-0.85156 0.76953-0.77344 0.77734-1.0703 0.18359-1.3203-0.066406-0.99609 0.69141-1.0898 0.023438-1.0742-0.13281-1.1016 0.32031-0.57812 0.96875-1.043 0.54688-1.0195 0.19531-1.0742-0.71875-0.63672-1.0898-0.80469-1.1016-0.28906-1.0273-1.082 0.17969-0.76172-1.0859-1.0156-0.34766-0.65625-0.76562-1.1406 0.10547-1.0078-0.29297-1.2266-0.33984-1.0039-0.40625-0.66797-0.77344-1.0078-0.19141-0.89062 0.59375-0.51172 0.89062-1.0352 0.59766-1.0938-0.125-1.1484-0.035156-0.83984-0.64453-1.1211 0.09375-1.1484-0.29688-0.97656-0.54688-1.0508-0.16016-0.97266-0.52734-1.1758-0.066406-1.3711-0.17969-1-0.38281-0.62891-0.82422-0.10156-1.1094-0.039063-1.1367 0.34375-0.94922 1.2539-0.51172 0.46875-1.0547 0.22266-1.1602 0.53125-1.0352 0.32812-1.0078 0.19922-1.1523 0.17188-0.98828 0.3125-1.0625 0.44141-1.043 0.30469-1.0039 0.58203-1.1328 0.61328-0.875 1.0078-0.38281 0.71875-0.95312 1.1172-0.42969 0.84766-0.63672 0.875-0.5 1.0234-0.61719 0.30859-1.043 0.97266-0.71484 1.0078 0.41406 1.2539 0.42578 1.1055-0.11328 1.6328-0.46484 1.1953-0.52734 0.84375-0.71094 0.86719-1.0859 0.82812-0.71094 0.94531-0.75781 0.76562-0.90625 0.86328-0.67969 0.27344-1.0547 0.30078-1.1484-0.25781-1.2148 0.25781-1.0508-0.078125-1.0039 0.003906-1.0117-0.011718-1.3477-0.15625-1.0117-0.003907-1.0352 0.98828-0.69531 0.023437-1.1914-0.17578-1.2734-0.26172-1.1172 0.59375-0.89844 0.67969-0.96484 0.96484-0.60156 0.89844-0.47266-0.48047-1.332-0.71094-0.87109-0.87109-1.0273-0.56641-1.1328-0.69531-0.98828-0.70703-0.83984 0.33203-1.1797 0.40234-1.1875 0.76172-1.0547-0.13672-1.1211 0.46484-1.2266 0.82422-0.91406-0.43359-1.1094 0.52734-1-0.16406-1.0312-0.77734-0.73438-1.2031-0.042969-0.58594-1.0742-0.375-1.0234-0.39062-1.3203-0.20312-1.2656-0.29297-1.0039-0.57422-0.91016-0.94141-0.37891 0.19141-1.0352 0.62891-0.81641 0.65625-1.043 0.42578-1.3125 0.8125-1.2109 0.38672-1.0859 0.015625-1.0117 1.3125-0.54297 0.96875-0.61328 0.23047-1.3867-0.11719-1.0273-0.3125-1.0117 0.23047-1.0859 0.33984-1.043 0.57031-0.92578 1-0.89844 1.0273-0.55859 1.0859 0.27344 0.37109 1.2109-0.47266 1.1719 0.64453 1.0117 1.2969 0.8125 1.1484 0.9375 1.0703 0.28516 0.91797 0.57031 0.84375 0.66406 1.0039-0.58203 0.92578-0.59375 0.92188-0.67188 0.98047-0.23828 0.89062-0.63672 0.80078-0.63672-0.28516-1.0703-0.74219-0.96484-0.72656-0.83984-0.5-1.1133-0.20312-1.0859 0.17188-0.99219 0.85547-0.68359 1.0586-0.58203 0.46875-1.0469 1.0547-0.125 0.85547-0.57812 0.5625-1.1641 0.88281-0.5625 0.92578-0.65625 0.33594-0.94922-0.40625-1.0781 0.40625-1.2109 0.36719-1.293 0.82422-0.8125 0.16406-1.0312-0.52734-1.1406-0.71484-1.082-0.77734-0.77344-0.59375-0.95312-0.10156-1.1055-0.74609-1.207-1.0586-0.60547 0.90625-0.89453-0.050781-1-0.89062-0.45703-1.0234-0.71875-0.23828-1.1992-0.26172-1.2617-0.98438-1.0117-0.35938-1.0156 0.003907-1.043 0.88281-0.88281 0.058594-1.375 0.48438-1.3203 1.0898-1.043 0.63672-1.1875 0.86328-2.0352 0.67188-1.8398 0.30469-0.98828 0.23047-1.2695 1.2695-1.1836 1.0195-0.066406 1.1602-0.10156 1.0781-0.84766 1.4141-0.20703 1.4961-0.87109 1.1445-0.44922 1.1172-0.61328 0.99609-1.2695 0.25-1.0195 0.77734-0.84766 0.19922-1.9062 0.5-1.0117 1.2383 0.54688 1.0078 0.80859 1.2031-0.22656 0.60156-1.0898 0.96875 0.4375 1.1641 0.75 1.0664-1.3398 0.71875-1.4492 0.50781-0.91016 0.11328-1.4375-0.007813-1.4766 0.3125-0.98047 1.0781-0.26953 1.0195-0.32812 0.57422-1.1641 0.34375-1.1016-0.96875-0.52344-1.0391-0.78516-0.57812-0.85938-1.4922-0.85938-0.79688-0.61719-0.93359-0.77344-0.71875-0.72266-0.86328-0.78906-0.95703-0.31641-0.94922-0.78125-0.875-0.8125-0.5625-1.2539-0.48047-0.89453-1.4766-0.52734-0.87109-0.60156-0.85547-0.65625-0.76953-1.0312-0.59375-0.95312 0.79688-1.4531 1.9023-0.78516 1.5117-0.41406 0.83594-0.55078-0.33203-1.5039 0.046875-1.5312 0.48438-1.0781 0.22656-1.1914-0.89453-0.75781-1.1562-0.10547-0.36328-1.0078 0.84766-0.73828-0.32031-0.98438-0.82031-0.76172-1.1133-0.16016-1.2773-0.49609-0.72266-1-0.33203-0.95312 0.14453-1.0703-0.37891-0.92578 0.66406-1.1602 0.97656-0.32031 0.75781-0.82812 1.125-0.13672 1.1289-0.38281 0.77734-0.76562 0.89062-0.82812 1.0039 0.23828 1.3867-0.60938 1.3281-0.18359 1.1562-0.078125 1.0469-0.5 1.0234 0.69531 0.78516 0.67969 0.76562 0.70312 0.68359 0.97266 0.87109 0.70312 1.1367 0.28906 1.1562 0.5 0.21094 1.1172 1.125 0.51562 0.82031 1.0703 0.34766 1.4688-0.28906 0.99609 0.41016 0.92969 0.56641 1.3633 0.25781 1.2617 1.0195 0.22656 1.0703 0.42188 1.0078 0.57031 1.6836-0.31641 1.0195-1.2266 0.19922-1.2383 0.33203-1.0117 0.50781-1.1172 0.28125-1.0039-0.68359-1.0312-0.019531-1.1758-0.41016-1.0234-0.11719-1.0039-0.63281-0.99609 0.625-0.83203 0.56641-0.91797 0.70312-0.78906 0.84766-0.57422 1.0156-0.32812 1.207-0.10938 0.97656 0.77344 0.91406 0.85156 1.0039 0.38281 1.1055-0.29297 0.98828 0.53125 0.91406-0.4375 0.73438-1.1328 0.32031-0.99609-0.003906-1.1562-0.22266-1.0234-0.1875-1.2891 0.69141-1.0938-0.066406-1.2227 0.03125-1.1289 0.85547-0.89844 1.5078-0.14844 0.86328-0.96094 1.0938-0.82031 0.37891-1.0703 0.80469-0.66016 0.89453-1.0117 0.61719-1.2852 0.80859-0.63672 1.2773-1.1328 0.40625-1.2617 0.81641-0.73438 0.90625-0.50781 1.5781-0.41406 1.1406-0.4375 0.8125-0.67969 1.0352-1.0977 0.59766-0.84375 1.2148-0.71484 1.0234-0.72266 1.4258-0.47656 1.0195-0.76172-0.011719-1.3164-0.32031-1.9922-0.61328-0.94922-0.35547-1.3281 1.2383-0.80859 1-0.14453 0.85156-0.87109 0.99609-0.085937 1.0664-0.007813 0.22266 1.1367 1.293-0.72656 1-1.0703 1.0039-0.66016 1.1016-0.13672 0.82812-0.89844 0.56641-0.90625 1.0469 0.20312 1.375-0.027343 1.4805-0.59766 1.082-0.25391 1.418-0.19141 1.0039 0.14453 1.0156 1.2109 1.2227 0.29688 0.53516 0.92969 1.1992 0.25 0.71484-0.93359 0.55078-1.0586 0.98828-0.29297 0.87109-0.97266 0.19141-1.0703-0.41406-1.0391-0.80078-0.74219-1.2031-2.2266 0.48438-1.4453 0.66016-0.94531 0.5-1.043 0.57812-2.4258-0.35156-1.0703-0.51953-1.0742 0.3125-0.98438 0.46875-0.98047-0.91797-0.92969 0.87109-1.1875 1.543-0.84375 0.77734-0.88672 0.78125-0.77344 0.71484-0.82422 0.85156-0.98047 0.91016-0.45312 0.98047-0.20703 0.47656-1.0039 0.94141 0.44141 0.33984 1.0352 0.60547 1.0234 0.75391 0.83594 0.71094 0.76172 0.46484 0.92969 0.64062 1.1406 0.875 0.75781 1.25 0.83984 1.2734 0.32422 1.0547-0.29688 0.71094-0.71094 0.48438-1.1367 0.89844-0.83984 0.72266-0.95703 0.21875-1.2188-0.078125-1.0742-0.13281-1.1367-0.30469-1.0469v-1.0273l-0.22656-1.1445-0.55859-1.0508-0.39844-0.94531 0.55078-0.96484 0.82422-0.67969 1.0156 0.054687 0.054687-1.0156 0.32422-1.125 0.60938-1.0352 0.58203-1.4453 0.44922-1.0391 0.60547-0.82422 1.3008-0.58594 1.0469-0.83203 1.125-1.4375 0.70312-1.3828 0.57422-1.2969-1.2188-1.0117-0.25391-1.0508-0.050781-1.4414 0.60938-1.7539 0.46875-1.5195 0.53125-0.87109 1.207-0.058594 0.035157-1.1367 0.52344-1 1.0312-0.98047 1.1875-0.53516 1.0664 0.12109 1.0547-0.019531 0.35156-1.2383 0.625-0.91016 1-1.1758 0.77734-2.082 0.14453-1.4375 1.0156-0.10156 1.1719-0.64844-0.27734-1.0625-0.38281-1.3281-0.26953-1.0781 0.3125-1.0234 0.33203-1.0703 0.25-1.0391 0.35547-1.207-0.52344-0.90234-1.1797 0.027344-0.92969-0.53516-1.375-0.60938-1.1992-0.44141-0.85547-0.64062-0.24609-1.3477-0.32422-1.1641 0.96875-0.57031 1.2578-0.058594 0.92578-1.4375-0.82031-1.3945-0.14844-1.1367 0.23438-1.1914 0.32031-1.0859-1.0547-0.16016 0.12891-1.3398-0.23047-1.0938 0.042968-1.2461 0.95312-1.1445-0.003906-1.0195-0.67578-0.8125-0.29688-1.0547 0.13281-1.125-0.35547-1.043-0.65234-0.78906-0.046875-1.3203-0.92578-0.97266-1.1641-0.4375-0.78516-0.71094 0.83984-0.84766 0.79297-0.94922 0.44922-1.0117 0.62109-0.90625 0.98047-0.31641 0.68359-1.0312 0.33984-1.0547 0.88281-0.8125 0.98828-1.0742 1.0625-0.96484 1.25-0.77734-0.007813-1.1445-0.25781-1.6953 1.2422-0.34375 1.8203 0.20703 0.94141 0.61719 1.0469 0.054687 1.0781 0.59766 0.35547 1.0586 0.95312 0.64453 1.0898-0.19531 0.42188 0.98828 1.1016 0.55078 1.0859 0.21094 0.84375 0.55078 0.98828-0.61328 1.1328-0.25391 1.2773 0.33203 1.0156 0.16797 0.77734 0.69531 0.98828 0.17188 0.96875 0.32812 1.0742-0.30859 1.0742-0.43359 0.92969-1.1641 0.96875 0.35938 1.0312-0.042969h1.043l0.94141 0.62109 1.3828 0.50391 0.70312 1.0352 0.84375 0.66016 0.94531 0.68359 1.1602 0.39453 1.1211 0.22656 0.91406 0.80078 0.79297 0.98047 0.99609 0.90625 0.9375 0.59375 1.0273 0.30078 1.0312 0.57812 1.125 0.058593 0.76953 0.90625 0.78125 0.67578 0.67969 1.1094 1.1367 0.15234 1.4375 0.074219 1.3242 0.42578 1.1211 0.44531 1.2344 0.078125 1.1602 0.097656 1.0859-0.28516 0.72656-0.89062 0.86328-1.0938 1.1094-0.86328 0.96094-0.84375 0.95703 0.3125 1.0508 0.29688 1.1836 0.10156 1.5977 0.3125 1.7734-0.097656 1.0391-0.25781 1.1602-0.68359 1.2109-0.19141 1.0859 0.042969 1.1367-0.27344 1.3984-0.035157 1.0938-1 0.94531-0.77344 0.85547-0.61328 1.0547-0.089844 1.1094 0.48438 0.875 0.51562 1.0508 0.39062 0.88281 0.76562 0.95312 0.64453 0.62109 0.89844 1.1992 0.41406 0.95703-0.33594 0.98828-1.0156 0.83594-1.0391 0.82031-0.92969 1.0742-0.57422 1.0547-0.22266 0.92969-0.48438 0.96484-1.2344 0.15234-1.043 0.57031-1.0781-0.09375-1.3633 1.0781-0.61328 0.85938-0.86719 1.375-1.1094 1.1055-0.875 0.11328-1.1016 0.28516-1.0742 0.91797-0.42578 0.88672 0.53516 0.90625-0.58984 0.99219-0.83594 1.2695-0.32812 1.2617-0.44531 1.7812-0.035156 0.71484 0.88281 1.1445 0.082031 1.2148 0.027344 0.70312 1.1875 0.45312 0.89844 1.0312 0.17578 0.98438-0.59766 1.0586-0.25781-0.125-1.1914 0.55859-0.87109 1.3008-0.050781 1.1367 0.13281 1.2188-0.38281 0.92969 0.41016 0.25391 1.1289 0.48828 1.0625 1.1172 0.27344 0.92578 0.60547 1.0938 0.046875 0.58203-0.8125 1.1172 0.28516 1.0938 0.52344 0.76953 1.0664 0.97266 0.90234 0.86719 0.78906 0.82031 0.71484 1.0781 0.0625 0.94922 0.35156 1.0156 0.23438 0.89062 0.63281 1.0664-0.13672 1.1953 0.10938 0.73047 1.0586 0.82422 0.64844 1.0156 0.23828 0.39453 0.9375 1.0039-0.10938 0.42969-0.97266 1.1016 0.1875 0.99219-0.33594 1.0195 0.23438 0.78516 1.1523 1.2148 0.28906 1.0898-0.35547 0.63672 0.89062 0.17188 1.1445-0.29688 1.1523 0.92578 0.38281 0.78906-0.72266 1.0391 0.80078 0.39844 1.1641 0.27344 1.3047 0.62109 1.0859 0.46094 0.97266 0.94141 0.61328 1.0625-0.69141 1.0391-0.13672 0.56641 0.90625 0.88672 0.96484 0.035156 1.0469-0.32031 1.207-0.77344 0.66016-0.082031 1.0547 0.37109 0.96875 0.84375 0.61719 0.69141 0.78125 0.40625 0.94922 1.0234-0.25391 0.87891-0.64062 1.1523 0.73438 0.85547 0.99219 0.98828 0.60938 0.91797 0.70312 1.1641 0.80469 0.85547 1.2539 1.4492 1.2305 0.82422 0.76172 0.61719 0.9375 1.1055-0.16797 1.0352-0.37109 0.67188 0.89062-0.20312 1.0938-0.13281 0.99609-1.1523 0.050782-0.65625 0.80859-0.082031 1.0312 0.55859 0.92188 0.74609 0.80859 1.1602 0.17578 0.98047 0.21484 0.66406 0.81641z" fill="#0a5394" fill-rule="evenodd"/>
<path d="m373.42 43.977 0.085938-0.48828-0.71875-0.82812-1 0.24219-0.96094 0.72266-1.1016 0.60938-1.0938 0.10938-1.0234 0.61328-1.1055-0.33984-1.0664 0.28125-0.0625 1.0195-0.83203 0.6875-0.75781 0.68359-0.35156 0.98047 0.38672 1.0195 0.70703 0.88672 0.78125 0.98828 0.13672 1.0352 0.57031 0.83594 0.12891 1.2344-0.046875 1.0508 0.28125 1.3555-0.59375 0.98828-0.79688 0.88281-0.77344 0.73438-0.5 1.1484-0.55078 0.9375-0.73438 0.75-0.12109 1.125 0.3125 1.0352 0.79297 0.80469 0.90234 0.83594-0.078125 1.0938-1.0039 0.50781-0.9375 1.0117-0.6875 0.86328-0.98828 0.71094-1.1953 0.88672-0.59766 0.82812-0.375 1.0469-1.0781 1.3516-1.25 0.33203-1.543 0.023438-1.3203-0.36719-0.77734-1.4062-0.62891-1.2031-0.027344-1.5273-0.64062-1.3555-0.47266-1.1055-1.3438-0.90625-1.582-0.31641-0.89453 0.83203-2.5586-0.39844-1.25 0.19141-1.7148 1.0469-1.25 0.054687-0.70703 0.83203-0.1875 1.3125-0.61719 0.93359-0.80078 1.0469-0.44531 1.3516-0.79297 1.3438-0.44531 1.2461h-1.0391l-1.0859-0.24609-0.41797-0.99219-1.1055-0.61328-0.89062-0.49219-1.0352-0.37891-1.1172-1.2734-1.0859-0.29297-1.0977-0.22656-1.1406-0.71094-0.98438-0.5-0.94531 0.625-0.43359 1.4531-0.87109 0.71094-0.67969 0.89453-0.72656 0.87891-0.80469 0.81641-0.32031 1.3594-0.35938 0.95312-1.0273 0.54688-0.125 1.332-0.11328 1.0742 0.51953 0.99609 0.42578 1.125 0.35938 1.1523 0.16797 1.7109-0.007812 1.1172-0.066406 2.4062 1.043 0.0625 0.51562-1.0547 0.47266-0.98438 0.98047 0.4375 0.8125 0.72266 0.61328 0.80859 0.76953 0.67188 1 0.55469 0.039062 1.0703 0.058594 1.0508 0.875 0.57422 0.60938 0.83984 0.57812 0.95703-0.0625 1.1758 0.54688 0.91406 0.37109 1.1875 1.0352 0.80469 1.0195-0.39844 0.94141-0.37109 0.57812 0.94531 0.53516 1.2031 0.042969 1.0742 0.050781 1.0781-0.40234 1.1836-0.70703 0.77734 0.71094 0.80859 0.89453 0.6875 1.1836 0.62109 0.6875 0.75391 0.99609 0.44141 1.0195-0.76172 2.3477-0.15625 1.043-0.26953 1.3906 0.011719 1.4414-0.19922 1.1719 0.19141 1.3164 0.26953 1.0195-0.33203 1.0703-0.046875 1.0391 0.71484 1.2539 0.21094 0.94922-0.33984 1.0078 0.17188 1.1367-0.40625 1.0625 0.003906 1.3008 0.52344 1.3438 0.53125 1.0039 0.91797 0.53125 1.0703 0.38281 0.98828 0.74219 0.80469-0.30469 1.207-0.75781 1.2109-1.1133 0.58984-0.38672 1.4844-0.58594 1.1016 0.27734 1.0938 0.91016 0.54297 0.9375-0.42578 1.0078 0.57812 0.59375 0.85156 0.082031 1.7617 0.30469 1 0.039062 1.0273-0.53906 0.99219 0.44531 1.2734 0.78516 0.71875 0.74609 1.2617 1.1211 1.082 0.51172 1.6758 0.09375 1.4961-0.085938 1.082-0.73047 1.2227 0.55859 1.0898 0.89844 0.49219 1.9102 0.59375 0.99609 0.11328 0.57422 1.082-0.55078 0.84375 0.33203 1.668 0.66406 0.79688 0.89453 0.45703 1.1836 0.21875 1.4766 0.46094 0.97266 0.33203 1.3516 0.74219 1.0312 0.21484 1.0625 0.35547 0.875-0.62891 0.54688 1.1016-0.24219 1.0742-0.85156 0.74219-1.5625 0.011718-0.86719 0.52734-0.23828 1.0117-0.46875 1.3945 0.23438 1.5195 0.55078 1.0352 0.80469 0.76953 0.77734 1.0195 0.042969 1.0469-0.15625 1.1289 0.625 0.85547 0.39844 1.0781-0.035156 1.0625 0.066406 1.207 0.10156 1.4375-0.61719 1.0469-0.76172 0.91406-1.1719-0.035156-0.75781 0.91406-0.32812 1.2773-0.45703 0.98828-0.38672 0.94922-0.35156 1.0469-0.30078 1.0586 0.53516 1.1641 1.2773 1.2305 0.082031 1.2109 0.88281 0.84375 0.91406 0.48438 0.1875 1.0547 0.97656 0.74609 1.1367-0.039063 0.875-0.82422 0.73047-0.71094 1.0859 0.023437 0.88672 0.48438 0.57422 0.875 1.2812 1.0273 0.97656 0.32812 0.89453 1.1797 0.66797 0.85938-0.14062 1.1367-0.76953 0.74609 0.49609 1.0938 0.87109 0.52734 0.27734 0.96484-0.44531 0.91797 0.52344 0.96094 0.03125 1.3281-0.023438 1.0078 0.03125 1.0195-1.1992 0.32422-1-0.51953-0.58203 0.99609-0.066406 1.0859 0.625 0.94531 0.17578 1.1289 0.023438 1.0312 0.39453 0.97656-0.48438 1.0273-1.3164 0.074219-0.92578-0.4375-1.1484 0.23438-0.40625 0.97656-1.25 0.46875-1.3047-0.55469-1.3711 0.32031-0.60938 1.0664-0.0625 1.0312-0.47266 1.0898-0.039063 1.25 0.097656 1.0391 0.46875 0.94531 0.58594 0.90234 0.45312 1.5312 0.52344 1.0078 0.58984 0.94141 0.42188 1.0234-0.03125 1.2148-0.16797 1.3594-0.58203 1.1719-0.60938 1.0156-0.21094 1.3828-0.83594 0.67578 0.23438 1.2617 0.089844 1.0547 0.34766 1.0703 1.0195 0.17188 1.0977-0.097656 1.0039 0.23828 0.96875-0.38672 1.1484 0.12109 1.2578 0.76953 0.71484 0.79688-0.18359 1.168-0.48047 0.90234-0.046875 1.1328-0.019531 1.3086 0.16797 1.082 0.11719 1.2305 0.51562 1.1328 0.51562 1.125 0.17969 1.6797 0.14844 1.125 0.42969 0.94531 0.58594 0.85156 0.70703 1.1445 0.82812 0.74609 0.64062 1.0703 0.60156 1.1992 0.56641 1.0938 0.51562 1.4219 0.17188 1.1797-0.39844 1.5273-0.34375 1.207-0.050782 1.2266 0.058594 1.3359 0.058594 1.6289 0.35938 0.96094 0.019531 1.0117-0.76953 1.0742-0.91797 0.58203-0.97266-0.25781-0.73047-0.89062-0.68359-0.82031-0.99219-0.29688-1.0234-0.11328-0.94531-0.4375-1.1289-0.35547-1.0938-0.37109-0.73438-0.82422-0.91406-0.625-0.96094-0.67188-0.85156-0.79297-1.1641-0.72656-0.45703-0.94922-0.86719-1.5625-1.0977-0.91797-0.96094-0.60938-1.0547-0.066406-0.99219-0.15625-1.125-0.046875-0.95703-0.50781-1.0234-0.30859-0.93359 0.44531-0.96484 0.52344-1.0078 0.058594-0.86328 0.72656-0.95703 1.0898-0.37891 1.3516-0.17969 1.0078-0.72266 0.74219-0.64062 0.85156-0.80859 0.69922-0.49219 0.99609-0.53125 1.1914-0.53125 0.95703 0.019531 1.1133-0.4375 0.98828-0.62891 0.79688 0.42969 0.98438-0.11719 1.1172-0.47266 1 0.41016 1.168-0.16797 1.0234 0.039062 1.1758-0.089843 1.1094 0.16406 1.1328 0.13281 1.0156 1.1094 0.21875 1.1367 0.42969 1.0195 0.42188 1.0195 0.12109 0.63281 0.77734-0.15234 1.082 0.015625 1.3633-0.14453 1.0938 0.10547 1.0625-0.38281 0.96094-0.85547 0.71094-0.82422 0.86719 0.22656 1.0547-1.3047 0.33594-1.1094-1.125-1.6797-0.33203-1.2695-0.125-2.1797 0.91797-0.69922 1.0547-1.1602 0.61328-1.0469 0.92188-1.625 0.93359-1.1055 1.4883-0.83984 0.96094-1.1445 0.16797-0.94141-0.42969-1.1055 0.25781-1.0703 0.58984-1.4023 0.19531-1-0.40234-1.3164-0.82812-1.1797 0.11328-1.2617 0.875-1.0234 0.56641-1.2656-0.03125-1.1094 0.67578-1.082-1.1758-0.91016-0.47266-0.76953 0.67188-0.80859 0.78125-1.2891 0.11328-0.99219 0.96875-0.9375-0.9375-0.69531-0.77344-0.65234-0.78516-0.81641-0.69141-0.92578-0.38672-1.3203 0.21094-1.082-0.25781-1.0625 1.0781-1.1094 0.59375-0.082031 1.3125-0.32812 1.0117-0.99219 0.65625-0.050781 1.0195-1.7852 0.48047-1.457 1.4531-0.52734 0.97656 0.24219 1.0508-0.94922 0.6875-0.87109 0.70703-1.375 1.293-0.91016 0.89062-0.91797 0.52734-0.86719 1.3438-0.69922 1.2734-0.76172 1.1836-1.2461 0.75781-1.0234 1.5117-0.625 0.94141-1.1367-0.039062-0.92188-0.78906-1.3828 0.30469-2.3086 0.54297-1.043 0.63672-0.89453 1.0859-0.9375 0.53516-0.89453 0.44922 1.1094 1.3477 0.86328 0.64844 0.31641 1.0273 0.49609 1.3281 0.61719 0.91797-0.089844 1.3164 0.64453 1.0117 0.62891 0.98047-0.26562 1.0938 0.80859 0.6875 1.0039 0.53906 1.0781 0.32812 1.0156-0.13672 0.83984 0.60938 1.0312 0.51172 1.0156 0.6875 0.88672 0.54688-0.80859 0.58984-1.0742 0.63672-1.043 0.46875-1.1055-0.011719-1.0352-0.066406-0.78906 0.67578-1.7109-0.078125-1.1055-0.35547-1.0625-0.097656-1.0781 0.027344-0.94922 0.33203-1.0508 0.23047-0.58594 0.89062-0.80859 0.60547-0.85547 0.69141-1.25 0.20703h-1.0117l-1.0625-0.22266-1.2227 0.16016-0.96484-0.30469-1.3672-0.066406-0.86328-0.69922-1.043-0.92969-0.32031-1.4766 0.26562-1.0469-0.53125-1.1094-1.4336-0.33984-0.89062-0.94531-0.56641-0.94531-0.70312-0.73828-1.1953-0.40625-0.83594 0.69922-0.25391 1.0977 0.058594 1.5586-0.59375 0.91016-0.8125 0.67969-1.1641 0.22266-1.3945 0.23828-1.0508-0.019531-1.1641 0.38281-0.91406 0.44922-1.3242 0.35156-0.93359 0.54688-1.0195 0.39453-1.2656-0.066406-0.93359-0.40234-0.96484 0.26953-1.3594 0.039063-1.1445-0.050781-1.0078-0.35547-1.0625-0.019531-1.0234-0.26172-1.0156 0.015625-1.1641 0.28906-0.94922 0.36719-0.875 0.64844-1.2188 0.11719-0.80078 1.0391-0.65234 0.8125-0.58203 0.86719-0.62891 0.80469-0.91797 0.65234-0.89062 0.64844-0.49609 1.1602-0.85938 0.97656-0.74609 0.9375 0.21094 0.98828 0.34766 1.0195 0.25781 1.3242 0.125 0.99609-0.50781 1.0586-0.19531 1.0469-0.90234 1.0742-0.86328 0.77344-0.11719 1.0859 0.35938 1.0742 0.16406 1.0195 0.16406 1.0352 0.31641 1.0977-0.62109 1.0508-0.12891 1.1016 0.20703 1.1367 0.96484 0.59766 1.2617 0.20312 0.91797 0.4375 0.83203 0.60156 1.0312 0.085937 1.0312-0.058594 1 0.27344 0.85547 0.83984 0.98828 0.42969 0.78516 0.64844 0.85547 0.8125 0.40234 1.0547 0.4375 1.0625 1.0156 0.41406 0.35156 1.0156 0.32812 0.95703 0.70312 0.74609 0.875 0.64453-0.023437 1.0039-0.097656 1.0469 0.66016 0.82031 0.92578 0.45312 0.23047 1.0312 0.68359 0.74219 1.0859 0.26562 1.0703 0.23828 0.95312-0.31641 0.91016 0.60547 0.61719 0.80469 0.82422 0.61719 0.92578 0.50391 0.73047 0.74609 0.75391 0.73047 0.49609 0.96484 0.41406 0.91406 0.054687 1.0352 0.55078 0.88672 0.61328 0.85547 0.48828 0.91797 0.92188 1.2852 0.68359 1.5156 0.28906 1.1523 0.15234 1.2852 0.625 1.0469 0.29297 1.5039-0.21484 1.2109-0.47266 1.0859-0.77734 1.0469-0.12891 1.2812 0.72656 1.6602-0.65625 0.87109-0.61719 0.93359-0.10547 1.4141 0.46094 1.0352 0.17969 1.9141 0.625 1.082 0.32812 1.0664-0.097656 1.1406v1.2148l0.32812 1.3242-0.16406 1.1641-0.25391 1.6328-0.15234 2.2812 0.39453 1.4922 0.80469 0.71484 0.92969 0.40625 1.3633 1.2031 0.76562 0.75391 0.625 0.87891-0.0625 1.2227-0.90625 1.3789-0.61328 0.85547 0.20703 1.3125 0.035156 1.2773-1.3242 2.1211-0.054687 1.3906 0.8125 1.207-0.64062 1.0117-1.8125-0.11719-1.0391-0.30078-0.26172 1.9688 0.55859 2.0977 1.3477 1.8867 0.82031 1.4766 0.64453 1.8086 0.77344 1.4219 0.039062 2.1055-0.19531 1.5234-0.16016 1.668-0.73047 1.4922-0.24609 1.3359-0.48438 1.0273-1.2578 0.91797-1.1367 1.1094-0.93359 0.57031-0.53516 2.1328 0.39844 1.3828 1.3516 0.61328-0.007813 2.0039-1.1094 2.2539-0.63672 1.2578-0.17578 1.9023 0.53906 1.4414 0.72656 1.543 0.72656 1.1484 0.32031 1.2383 0.10156 1.4414 0.31641 1.4883 0.43359 1.168 0.92578 1.5234-0.03125 1.3594-1.4609 0.51172-1.0078-0.39844-0.99219 0.86719-0.45703 0.96875 1.168 1.1211 0.30859 1.4531-0.25391 1.2422-0.61719 1.4062-0.26953 0.98438 0.60547 1.6914 0.67578 1.2461 0.082031 1.0625 0.32812 1.0781 0.60938 1.3672 1.2539-0.019531 0.28125 2.4844 0.44922 2.0859-0.050781 1.7695 0.79688 1.0352 0.75 0.8125-0.9375 1.082-1.6797 1.25-1.1406-0.15625-1.1445 0.24219-1.0508-0.66406-1.1172-0.14062-1.168 0.48828-1.0586-0.49609-1.7344 0.55859-2.0547 0.082031-0.89453 0.53516-1.4102 0.12891-1.3398-1.8086-1.1758-1.4062-1.0312-0.83984-1.457-0.0625-1.082 0.37109-0.98828-0.22266-0.72656-1.4531-1.918 0.81641-1.0391 0.53906-1.0859 0.13281-0.64453 1.0547-1.0469 0.74219-0.87109 1.125-1.332 2.3242-0.58203 1.2227-0.98828-0.25-0.32812-1.1445-0.88672-0.64453-1.2266-0.5625-1.0664 0.53906-1.1445 0.43359-1.0703 0.76562-1.3086-0.88281-0.64844-0.78125-1.418-0.011718-0.84766 0.5625-0.82422-1.0273-1.1016-0.90234-1.2617 0.035156-1.0703-0.58203-0.88281-0.66406-1.4766-0.82812-0.77344-0.66016-1.9961 0.058594-1.0273-0.26172-1.043-0.042968-1.0859-0.37891-1.2031-0.007812-1.9219-0.51562-1.1133-0.16406-1.1602 0.49609-1.0781 0.24609-1.1641-0.089844-0.27344 1.0078 0.19141 1.0234-0.33594 0.98047-0.45703 0.91406-0.48047 1.0352-0.35938 1.082-1.0039 0.53125-0.89453 0.49609-0.33594 0.98828-0.74609 0.80078-0.69531 0.82422-0.54688 0.92969 0.050781 1.2305-0.13672 1.0742-0.9375 0.49609 0.33984-1.0664-0.16016-0.99609-0.33984-1.2148-0.28125-1.0703-0.25391-1.4414 0.13281-1.2148-0.16797-1.3047-0.3125-1.2773-0.63672-0.90625-0.77344-1.0859-4.3945 0.40234-1.8281-3.5508-1.7734-3.6875-0.60547-2.1875-0.35547-1.2773-1.5156 0.26953-1.4102 1.1367-0.89062 1.2266-0.52734 0.92969-4.5391 2.7461-4.5078 2.293-3.9531-3.8242-0.91016-0.46094-1.1758-0.27344-4.1992-0.53516-2.2109-0.39844-9.1484-1.3398-0.24609-1.2344 0.875-0.92188 1.0117-0.70703 0.76562-1.1289 1.0312-0.89844 0.89844-0.78516 0.78516-1.0117 0.39453-0.96094 0.55469-1.0352-0.98047-0.54688-1-0.44141-1.1133-0.34766-1.0938-0.44141-0.96484 0.35938-1.1484 0.82422-1.0117 0.57031-0.89062 0.51172-0.90234 0.57422-1.0898-0.43359-1.2461 0.35156-1.2031 0.38281-1.1328 0.078125-1.1211 0.18359-1.2188 0.23828-0.99219 0.37891-1.2617 0.17188-1.1094 0.49609-1.1523 0.21484-1.0117-0.30078-1.1992-0.16016-1.1406-0.73438-0.82812-0.67188-1.0469-0.76172-0.9375-0.71484-0.62891-1.0586-0.86719-0.70312 0.089844-1.0117-0.39453-0.96484-0.64844-0.92969-0.35156-0.96094 0.13672-1-0.03125-1.1367-1.0742-0.47266-1.0039-0.42969-1.2109-0.42969-1.0469-0.29688-1.3086-0.85156-0.46484-0.95703-0.60547-0.85156-0.56641-0.82422-0.80859-0.78125-0.98828-0.32812-1.1367 0.03125-0.86328-0.78906-0.42578-0.97266-0.89844-0.50781-0.53125-0.87109-0.24609-1.0352-0.80469-0.69141-1.3906-0.62109-0.69922-0.83594-1.0586-0.71484-1.1094-0.27344-1.0781-0.097657-0.78906-0.78516-1.0117-0.47266-1.125-0.035156-1.0352-0.042969-1.0703-0.046875-0.66797 0.75781-1.168 0.27344-1.0781 0.035156-1.0312-0.25-1.0273-0.39062-0.87109-0.72266-0.88281-0.63281-1.0273-0.55859-1.0703 0.16016-0.43359-0.91797-1.1289-0.44141-0.73828-0.86719-0.92969-0.64453-0.97266-0.62891-1.0781-0.29688-1.0469 0.03125-1.0469 0.38672-1.0508 0.35156-1 0.078125-1.0117 0.12891-0.77734-0.67188 0.10156-1.0117-0.83594-0.55469-0.78906-0.66016-0.53516-0.94531-0.3125-1.0508 0.24219-1.0352-0.78516-0.90234-0.41406-0.92188-0.36328-1.0781 0.36328-0.96094 0.007812-1.0234 0.87109-0.60547 1.1797-0.058593 0.89062-0.48047 0.9375-0.41016 0.99219-0.1875 0.63281-0.78906 0.92578-0.42578 0.29297-1.0859 0.70703-0.75391 1-0.25391 0.74609-0.73047 0.003907-1.1133-0.089844-1.1406-0.125-1.1719-0.3125-0.95312-0.65625-0.76172-1.0391-0.25391-0.91406-0.4375-0.32812-1.0156-0.25391-1.043 0.46875-1.0391 0.03125-1.0195-0.16406-1.0312 0.40234-0.94531-0.19531-1.2695-0.87891-0.5-1.0078-0.26562-0.82812-0.60547-0.82812-1.1641 0.80469-0.69922 0.76172-0.73047 1.2383 0.027344 1.0078 0.38281 1.2148-0.50391 0.62891-0.85156 0.24219-1.0234-0.078125-1.1562 0.51953-1.0938 0.37109-0.96484 1.0508-0.52734 0.41797-0.91406 0.22656-1.0352 0.21094-1.0508-0.066406-1.0039 0.25-1.0312 0.62109-0.94531 0.77734-0.77344 0.53906-0.93359 1.1758 0.16406 0.57422-0.89844 0.37891-1.082 0.42578-1.0703 1.3359 0.058593 0.6875-0.78516 0.34766-1.1562 0.085938-1.0234 0.1875-1.1562 0.097656-1.1289-0.59375-0.86719-0.16797-1.1328-0.58594-0.83594-0.41406-0.98828-0.78125-0.67578-0.87891-0.75-1.0234-0.76172-0.85156-0.92578-1.0273-0.69531-0.70312-0.87891-0.54688-0.86719-0.26172-1.0195-0.22656-0.98828 0.58203-1.1211 0.95703-0.66406 0.45703-1.082 0.28125-5.8359 1.0859-0.046875 0.91797 0.44922 1.1055 0.046875 0.62891-1.2148 0.75781-1.7383 0.80859-1.7773 1.9414-4.4102-1.0273-0.41797-1.1406-0.3125-1.0938-0.16016 0.39062-0.95312 1.0312-0.44922 0.63281-0.93359-0.25391-1.0977 0.070312-1.0781 0.60156-0.84766 0.62891-1.2422 0.73047-0.8125-0.0625-1.0039 0.97266-0.53125 0.57812-0.94531-0.40234-0.94531 0.25781-1.1797-0.5-1.2812-0.16797-1.1836 0.21484-1.0156-0.058594-1.0039 0.30859-0.97656 0.27734-1.0312 0.14062-1.1914 0.62109-0.92188-0.11328-1.1289-0.80469-0.62891-0.99219-0.44141-1.4141-1.207-0.52734-0.85547-0.71094-0.77734-0.097656-1.0352-0.44141-1.1055-0.19141-1.0312-0.44922-0.97656-0.85547-0.66406-0.89844-0.64062 0.46484-1.0664 0.60547-0.91406 0.5-1.0273-0.82812-0.74609-0.1875-1.1406-0.26172-1.3984-0.36328-1.0391-0.375-0.97656-0.63672 0.83594 0.15625 1.7695-0.53906 1.375-0.82031 0.76953-1.1797 1.2461-0.64062 1.2578-0.92578 0.96875-1.043 0.32031-1.0742-0.46875-0.74609 0.69922-0.38281 1.0898-0.44531 1.1562-0.91406 0.61328-1.1016-0.14062-0.90234 0.53516-1.2812-0.24219-0.96875-0.59766h-1.2031l-1.1797-0.046875-1.0039-0.042969-1.082 0.21484-1.1445-0.13281-0.99609-0.50781-0.78125-0.79297-0.78516-0.98828-1.0156-0.73438-0.91016 0.98047-0.50391 0.875-0.66016 1.1367-0.64844 0.78125-0.80078 0.65234-0.13281 1.0703-0.48438 0.88672-0.99219-0.20703-0.98438-0.43359-1.082 0.10156-0.86328-0.5625-0.78906 0.66016-0.875 0.54688-0.98438 0.58203-0.85156 0.76953-0.77344 0.77734-1.0703 0.18359-1.3203-0.066406-0.99609 0.69141-1.0898 0.023438-1.0742-0.13281-1.1016 0.32031-0.57812 0.96875-1.043 0.54688-1.0195 0.19531-1.0742-0.71875-0.63672-1.0898-0.80469-1.1016-0.28906-1.0273-1.082 0.17969-0.76172-1.0859-1.0156-0.34766-0.65625-0.76562-1.1406 0.10547-1.0078-0.29297-1.2266-0.33984-1.0039-0.40625-0.66797-0.77344-1.0078-0.19141-0.89062 0.59375-0.51172 0.89062-1.0352 0.59766-1.0938-0.125-1.1484-0.035156-0.83984-0.64453-1.1211 0.09375-1.1484-0.29688-0.97656-0.54688-1.0508-0.16016-0.97266-0.52734-1.1758-0.066406-1.3711-0.17969-1-0.38281-0.62891-0.82422-0.10156-1.1094-0.039063-1.1367 0.34375-0.94922 1.2539-0.51172 0.46875-1.0547 0.22266-1.1602 0.53125-1.0352 0.32812-1.0078 0.19922-1.1523 0.17188-0.98828 0.3125-1.0625 0.44141-1.043 0.30469-1.0039 0.58203-1.1328 0.61328-0.875 1.0078-0.38281 0.71875-0.95312 1.1172-0.42969 0.84766-0.63672 0.875-0.5 1.0234-0.61719 0.30859-1.043 0.97266-0.71484 1.0078 0.41406 1.2539 0.42578 1.1055-0.11328 1.6328-0.46484 1.1953-0.52734 0.84375-0.71094 0.86719-1.0859 0.82812-0.71094 0.94531-0.75781 0.76562-0.90625 0.86328-0.67969 0.27344-1.0547 0.30078-1.1484-0.25781-1.2148 0.25781-1.0508-0.078125-1.0039 0.003906-1.0117-0.011718-1.3477-0.15625-1.0117-0.003907-1.0352 0.98828-0.69531 0.023437-1.1914-0.17578-1.2734-0.26172-1.1172 0.59375-0.89844 0.67969-0.96484 0.96484-0.60156 0.89844-0.47266-0.48047-1.332-0.71094-0.87109-0.87109-1.0273-0.56641-1.1328-0.69531-0.98828-0.70703-0.83984 0.33203-1.1797 0.40234-1.1875 0.76172-1.0547-0.13672-1.1211 0.46484-1.2266 0.82422-0.91406-0.43359-1.1094 0.52734-1-0.16406-1.0312-0.77734-0.73438-1.2031-0.042969-0.58594-1.0742-0.375-1.0234-0.39062-1.3203-0.20312-1.2656-0.29297-1.0039-0.57422-0.91016-0.94141-0.37891 0.19141-1.0352 0.62891-0.81641 0.65625-1.043 0.42578-1.3125 0.8125-1.2109 0.38672-1.0859 0.015625-1.0117 1.3125-0.54297 0.96875-0.61328 0.23047-1.3867-0.11719-1.0273-0.3125-1.0117 0.23047-1.0859 0.33984-1.043 0.57031-0.92578 1-0.89844 1.0273-0.55859 1.0859 0.27344 0.37109 1.2109-0.47266 1.1719 0.64453 1.0117 1.2969 0.8125 1.1484 0.9375 1.0703 0.28516 0.91797 0.57031 0.84375 0.66406 1.0039-0.58203 0.92578-0.59375 0.92188-0.67188 0.98047-0.23828 0.89062-0.63672 0.80078-0.63672-0.28516-1.0703-0.74219-0.96484-0.72656-0.83984-0.5-1.1133-0.20312-1.0859 0.17188-0.99219 0.85547-0.68359 1.0586-0.58203 0.46875-1.0469 1.0547-0.125 0.85547-0.57812 0.5625-1.1641 0.88281-0.5625 0.92578-0.65625 0.33594-0.94922-0.40625-1.0781 0.40625-1.2109 0.36719-1.293 0.82422-0.8125 0.16406-1.0312-0.52734-1.1406-0.71484-1.082-0.77734-0.77344-0.59375-0.95312-0.10156-1.1055-0.74609-1.207-1.0586-0.60547 0.90625-0.89453-0.050781-1-0.89062-0.45703-1.0234-0.71875-0.23828-1.1992-0.26172-1.2617-0.98438-1.0117-0.35938-1.0156 0.003907-1.043 0.88281-0.88281 0.058594-1.375 0.48438-1.3203 1.0898-1.043 0.63672-1.1875 0.86328-2.0352 0.67188-1.8398 0.30469-0.98828 0.23047-1.2695 1.2695-1.1836 1.0195-0.066406 1.1602-0.10156 1.0781-0.84766 1.4141-0.20703 1.4961-0.87109 1.1445-0.44922 1.1172-0.61328 0.99609-1.2695 0.25-1.0195 0.77734-0.84766 0.19922-1.9062 0.5-1.0117 1.2383 0.54688 1.0078 0.80859 1.2031-0.22656 0.60156-1.0898 0.96875 0.4375 1.1641 0.75 1.0664-1.3398 0.71875-1.4492 0.50781-0.91016 0.11328-1.4375-0.007813-1.4766 0.3125-0.98047 1.0781-0.26953 1.0195-0.32812 0.57422-1.1641 0.34375-1.1016-0.96875-0.52344-1.0391-0.78516-0.57812-0.85938-1.4922-0.85938-0.79688-0.61719-0.93359-0.77344-0.71875-0.72266-0.86328-0.78906-0.95703-0.31641-0.94922-0.78125-0.875-0.8125-0.5625-1.2539-0.48047-0.89453-1.4766-0.52734-0.87109-0.60156-0.85547-0.65625-0.76953-1.0312-0.59375-0.95312 0.79688-1.4531 1.9023-0.78516 1.5117-0.41406 0.83594-0.55078-0.33203-1.5039 0.046875-1.5312 0.48438-1.0781 0.22656-1.1914-0.89453-0.75781-1.1562-0.10547-0.36328-1.0078 0.84766-0.73828-0.32031-0.98438-0.82031-0.76172-1.1133-0.16016-1.2773-0.49609-0.72266-1-0.33203-0.95312 0.14453-1.0703-0.37891-0.92578 0.66406-1.1602 0.97656-0.32031 0.75781-0.82812 1.125-0.13672 1.1289-0.38281 0.77734-0.76562 0.89062-0.82812 1.0039 0.23828 1.3867-0.60938 1.3281-0.18359 1.1562-0.078125 1.0469-0.5 1.0234 0.69531 0.78516 0.67969 0.76562 0.70312 0.68359 0.97266 0.87109 0.70312 1.1367 0.28906 1.1562 0.5 0.21094 1.1172 1.125 0.51562 0.82031 1.0703 0.34766 1.4688-0.28906 0.99609 0.41016 0.92969 0.56641 1.3633 0.25781 1.2617 1.0195 0.22656 1.0703 0.42188 1.0078 0.57031 1.6836-0.31641 1.0195-1.2266 0.19922-1.2383 0.33203-1.0117 0.50781-1.1172 0.28125-1.0039-0.68359-1.0312-0.019531-1.1758-0.41016-1.0234-0.11719-1.0039-0.63281-0.99609 0.625-0.83203 0.56641-0.91797 0.70312-0.78906 0.84766-0.57422 1.0156-0.32812 1.207-0.10938 0.97656 0.77344 0.91406 0.85156 1.0039 0.38281 1.1055-0.29297 0.98828 0.53125 0.91406-0.4375 0.73438-1.1328 0.32031-0.99609-0.003906-1.1562-0.22266-1.0234-0.1875-1.2891 0.69141-1.0938-0.066406-1.2227 0.03125-1.1289 0.85547-0.89844 1.5078-0.14844 0.86328-0.96094 1.0938-0.82031 0.37891-1.0703 0.80469-0.66016 0.89453-1.0117 0.61719-1.2852 0.80859-0.63672 1.2773-1.1328 0.40625-1.2617 0.81641-0.73438 0.90625-0.50781 1.5781-0.41406 1.1406-0.4375 0.8125-0.67969 1.0352-1.0977 0.59766-0.84375 1.2148-0.71484 1.0234-0.72266 1.4258-0.47656 1.0195-0.76172-0.011719-1.3164-0.32031-1.9922-0.61328-0.94922-0.35547-1.3281 1.2383-0.80859 1-0.14453 0.85156-0.87109 0.99609-0.085937 1.0664-0.007813 0.22266 1.1367 1.293-0.72656 1-1.0703 1.0039-0.66016 1.1016-0.13672 0.82812-0.89844 0.56641-0.90625 1.0469 0.20312 1.375-0.027343 1.4805-0.59766 1.082-0.25391 1.418-0.19141 1.0039 0.14453 1.0156 1.2109 1.2227 0.29688 0.53516 0.92969 1.1992 0.25 0.71484-0.93359 0.55078-1.0586 0.98828-0.29297 0.87109-0.97266 0.19141-1.0703-0.41406-1.0391-0.80078-0.74219-1.2031-2.2266 0.48438-1.4453 0.66016-0.94531 0.5-1.043 0.57812-2.4258-0.35156-1.0703-0.51953-1.0742 0.3125-0.98438 0.46875-0.98047-0.91797-0.92969 0.87109-1.1875 1.543-0.84375 0.77734-0.88672 0.78125-0.77344 0.71484-0.82422 0.85156-0.98047 0.91016-0.45312 0.98047-0.20703 0.47656-1.0039 0.94141 0.44141 0.33984 1.0352 0.60547 1.0234 0.75391 0.83594 0.71094 0.76172 0.46484 0.92969 0.64062 1.1406 0.875 0.75781 1.25 0.83984 1.2734 0.32422 1.0547-0.29688 0.71094-0.71094 0.48438-1.1367 0.89844-0.83984 0.72266-0.95703 0.21875-1.2188-0.078125-1.0742-0.13281-1.1367-0.30469-1.0469v-1.0273l-0.22656-1.1445-0.55859-1.0508-0.39844-0.94531 0.55078-0.96484 0.82422-0.67969 1.0156 0.054687 0.054687-1.0156 0.32422-1.125 0.60938-1.0352 0.58203-1.4453 0.44922-1.0391 0.60547-0.82422 1.3008-0.58594 1.0469-0.83203 1.125-1.4375 0.70312-1.3828 0.57422-1.2969-1.2188-1.0117-0.25391-1.0508-0.050781-1.4414 0.60938-1.7539 0.46875-1.5195 0.53125-0.87109 1.207-0.058594 0.035157-1.1367 0.52344-1 1.0312-0.98047 1.1875-0.53516 1.0664 0.12109 1.0547-0.019531 0.35156-1.2383 0.625-0.91016 1-1.1758 0.77734-2.082 0.14453-1.4375 1.0156-0.10156 1.1719-0.64844-0.27734-1.0625-0.38281-1.3281-0.26953-1.0781 0.3125-1.0234 0.33203-1.0703 0.25-1.0391 0.35547-1.207-0.52344-0.90234-1.1797 0.027344-0.92969-0.53516-1.375-0.60938-1.1992-0.44141-0.85547-0.64062-0.24609-1.3477-0.32422-1.1641 0.96875-0.57031 1.2578-0.058594 0.92578-1.4375-0.82031-1.3945-0.14844-1.1367 0.23438-1.1914 0.32031-1.0859-1.0547-0.16016 0.12891-1.3398-0.23047-1.0938 0.042968-1.2461 0.95312-1.1445-0.003906-1.0195-0.67578-0.8125-0.29688-1.0547 0.13281-1.125-0.35547-1.043-0.65234-0.78906-0.046875-1.3203-0.92578-0.97266-1.1641-0.4375-0.78516-0.71094 0.83984-0.84766 0.79297-0.94922 0.44922-1.0117 0.62109-0.90625 0.98047-0.31641 0.68359-1.0312 0.33984-1.0547 0.88281-0.8125 0.98828-1.0742 1.0625-0.96484 1.25-0.77734-0.007813-1.1445-0.25781-1.6953 1.2422-0.34375 1.8203 0.20703 0.94141 0.61719 1.0469 0.054687 1.0781 0.59766 0.35547 1.0586 0.95312 0.64453 1.0898-0.19531 0.42188 0.98828 1.1016 0.55078 1.0859 0.21094 0.84375 0.55078 0.98828-0.61328 1.1328-0.25391 1.2773 0.33203 1.0156 0.16797 0.77734 0.69531 0.98828 0.17188 0.96875 0.32812 1.0742-0.30859 1.0742-0.43359 0.92969-1.1641 0.96875 0.35938 1.0312-0.042969h1.043l0.94141 0.62109 1.3828 0.50391 0.70312 1.0352 0.84375 0.66016 0.94531 0.68359 1.1602 0.39453 1.1211 0.22656 0.91406 0.80078 0.79297 0.98047 0.99609 0.90625 0.9375 0.59375 1.0273 0.30078 1.0312 0.57812 1.125 0.058593 0.76953 0.90625 0.78125 0.67578 0.67969 1.1094 1.1367 0.15234 1.4375 0.074219 1.3242 0.42578 1.1211 0.44531 1.2344 0.078125 1.1602 0.097656 1.0859-0.28516 0.72656-0.89062 0.86328-1.0938 1.1094-0.86328 0.96094-0.84375 0.95703 0.3125 1.0508 0.29688 1.1836 0.10156 1.5977 0.3125 1.7734-0.097656 1.0391-0.25781 1.1602-0.68359 1.2109-0.19141 1.0859 0.042969 1.1367-0.27344 1.3984-0.035157 1.0938-1 0.94531-0.77344 0.85547-0.61328 1.0547-0.089844 1.1094 0.48438 0.875 0.51562 1.0508 0.39062 0.88281 0.76562 0.95312 0.64453 0.62109 0.89844 1.1992 0.41406 0.95703-0.33594 0.98828-1.0156 0.83594-1.0391 0.82031-0.92969 1.0742-0.57422 1.0547-0.22266 0.92969-0.48438 0.96484-1.2344 0.15234-1.043 0.57031-1.0781-0.09375-1.3633 1.0781-0.61328 0.85938-0.86719 1.375-1.1094 1.1055-0.875 0.11328-1.1016 0.28516-1.0742 0.91797-0.42578 0.88672 0.53516 0.90625-0.58984 0.99219-0.83594 1.2695-0.32812 1.2617-0.44531 1.7812-0.035156 0.71484 0.88281 1.1445 0.082031 1.2148 0.027344 0.70312 1.1875 0.45312 0.89844 1.0312 0.17578 0.98438-0.59766 1.0586-0.25781-0.125-1.1914 0.55859-0.87109 1.3008-0.050781 1.1367 0.13281 1.2188-0.38281 0.92969 0.41016 0.25391 1.1289 0.48828 1.0625 1.1172 0.27344 0.92578 0.60547 1.0938 0.046875 0.58203-0.8125 1.1172 0.28516 1.0938 0.52344 0.76953 1.0664 0.97266 0.90234 0.86719 0.78906 0.82031 0.71484 1.0781 0.0625 0.94922 0.35156 1.0156 0.23438 0.89062 0.63281 1.0664-0.13672 1.1953 0.10938 0.73047 1.0586 0.82422 0.64844 1.0156 0.23828 0.39453 0.9375 1.0039-0.10938 0.42969-0.97266 1.1016 0.1875 0.99219-0.33594 1.0195 0.23438 0.78516 1.1523 1.2148 0.28906 1.0898-0.35547 0.63672 0.89062 0.17188 1.1445-0.29688 1.1523 0.92578 0.38281 0.78906-0.72266 1.0391 0.80078 0.39844 1.1641 0.27344 1.3047 0.62109 1.0859 0.46094 0.97266 0.94141 0.61328 1.0625-0.69141 1.0391-0.13672 0.56641 0.90625 0.88672 0.96484 0.035156 1.0469-0.32031 1.207-0.77344 0.66016-0.082031 1.0547 0.37109 0.96875 0.84375 0.61719 0.69141 0.78125 0.40625 0.94922 1.0234-0.25391 0.87891-0.64062 1.1523 0.73438 0.85547 0.99219 0.98828 0.60938 0.91797 0.70312 1.1641 0.80469 0.85547 1.2539 1.4492 1.2305 0.82422 0.76172 0.61719 0.9375 1.1055-0.16797 1.0352-0.37109 0.67188 0.89062-0.20312 1.0938-0.13281 0.99609-1.1523 0.050782-0.65625 0.80859-0.082031 1.0312 0.55859 0.92188 0.74609 0.80859 1.1602 0.17578 0.98047 0.21484 0.66406 0.81641-0.61719 1.082" fill="none" stroke="#fff" stroke-linecap="round" stroke-linejoin="round" stroke-miterlimit="10"/>
<path d="m234.45 186.63c0 3.5898-2.9102 6.5-6.5 6.5s-6.5-2.9102-6.5-6.5c0-3.5898 2.9102-6.5 6.5-6.5s6.5 2.9102 6.5 6.5" fill="#28c028" fill-rule="evenodd" stroke="#000" stroke-linecap="round" stroke-linejoin="round" stroke-miterlimit="10"/>
<path d="m39.641 180.63v-16.469h3.3281v6.4844h6.5v-6.4844h3.3281v16.469h-3.3281v-7.2031h-6.5v7.2031zm16.578-16.469h3.3125v8.9219c0 1.418 0.039063 2.3359 0.125 2.75 0.14453 0.67969 0.48438 1.2188 1.0156 1.625 0.53906 0.40625 1.2734 0.60938 2.2031 0.60938 0.9375 0 1.6445-0.19141 2.125-0.57812 0.47656-0.38281 0.76562-0.85938 0.85938-1.4219 0.10156-0.5625 0.15625-1.4922 0.15625-2.7969v-9.1094h3.3281v8.6562c0 1.9688-0.09375 3.3672-0.28125 4.1875-0.17969 0.8125-0.50781 1.5-0.98438 2.0625-0.48047 0.5625-1.125 1.0117-1.9375 1.3438-0.8125 0.33203-1.8711 0.5-3.1719 0.5-1.5742 0-2.7656-0.18359-3.5781-0.54688-0.8125-0.36328-1.4531-0.83203-1.9219-1.4062-0.46875-0.58203-0.77734-1.1914-0.92188-1.8281-0.21875-0.94531-0.32812-2.3438-0.32812-4.1875zm31.469 16.469h-3.6094l-1.4375-3.7344h-6.5781l-1.3594 3.7344h-3.5312l6.4062-16.469h3.5156zm-6.1094-6.5156-2.2812-6.1094-2.2188 6.1094zm7.9062 6.5156v-16.469h3.2344l6.75 11v-11h3.0781v16.469h-3.3281l-6.6406-10.734v10.734zm27.109-6.0469 3.2344 1.0156c-0.5 1.793-1.3281 3.125-2.4844 4-1.1484 0.875-2.6016 1.3125-4.3594 1.3125-2.1875 0-3.9844-0.74219-5.3906-2.2344-1.4062-1.5-2.1094-3.5469-2.1094-6.1406 0-2.7383 0.70312-4.8633 2.1094-6.375 1.4141-1.5195 3.2812-2.2812 5.5938-2.2812 2.0078 0 3.6445 0.60156 4.9062 1.7969 0.75 0.69922 1.3125 1.7109 1.6875 3.0312l-3.2969 0.78125c-0.19922-0.85156-0.60547-1.5234-1.2188-2.0156-0.61719-0.5-1.3672-0.75-2.25-0.75-1.2188 0-2.2109 0.4375-2.9688 1.3125-0.76172 0.875-1.1406 2.2969-1.1406 4.2656 0 2.0742 0.375 3.5547 1.125 4.4375 0.75 0.88672 1.7227 1.3281 2.9219 1.3281 0.88281 0 1.6445-0.28125 2.2812-0.84375 0.63281-0.5625 1.0859-1.4414 1.3594-2.6406zm20.922 6.0469h-3.6094l-1.4375-3.7344h-6.5781l-1.3594 3.7344h-3.5312l6.4062-16.469h3.5156zm-6.1094-6.5156-2.2812-6.1094-2.2188 6.1094zm12.078 6.5156-5.8906-16.469h3.6094l4.1719 12.188 4.0312-12.188h3.5156l-5.8906 16.469zm11.141 0v-16.469h12.203v2.7969h-8.875v3.6406h8.2656v2.7812h-8.2656v4.4688h9.2031v2.7812zm15.438 0v-16.328h3.3281v13.547h8.2656v2.7812zm13.859 0v-16.469h3.3125v16.469zm17.016-6.0469 3.2344 1.0156c-0.5 1.793-1.3281 3.125-2.4844 4-1.1484 0.875-2.6016 1.3125-4.3594 1.3125-2.1875 0-3.9844-0.74219-5.3906-2.2344-1.4062-1.5-2.1094-3.5469-2.1094-6.1406 0-2.7383 0.70312-4.8633 2.1094-6.375 1.4141-1.5195 3.2812-2.2812 5.5938-2.2812 2.0078 0 3.6445 0.60156 4.9062 1.7969 0.75 0.69922 1.3125 1.7109 1.6875 3.0312l-3.2969 0.78125c-0.19922-0.85156-0.60547-1.5234-1.2188-2.0156-0.61719-0.5-1.3672-0.75-2.25-0.75-1.2188 0-2.2109 0.4375-2.9688 1.3125-0.76172 0.875-1.1406 2.2969-1.1406 4.2656 0 2.0742 0.375 3.5547 1.125 4.4375 0.75 0.88672 1.7227 1.3281 2.9219 1.3281 0.88281 0 1.6445-0.28125 2.2812-0.84375 0.63281-0.5625 1.0859-1.4414 1.3594-2.6406zm20.922 6.0469h-3.6094l-1.4375-3.7344h-6.5781l-1.3594 3.7344h-3.5312l6.4062-16.469h3.5156zm-6.1094-6.5156-2.2812-6.1094-2.2188 6.1094zm0 0" fill="none" stroke="#fff" stroke-linecap="round" stroke-linejoin="round" stroke-miterlimit="10" stroke-width="2"/>
<path d="m39.641 180.63v-16.469h3.3281v6.4844h6.5v-6.4844h3.3281v16.469h-3.3281v-7.2031h-6.5v7.2031zm16.578-16.469h3.3125v8.9219c0 1.418 0.039063 2.3359 0.125 2.75 0.14453 0.67969 0.48438 1.2188 1.0156 1.625 0.53906 0.40625 1.2734 0.60938 2.2031 0.60938 0.9375 0 1.6445-0.19141 2.125-0.57812 0.47656-0.38281 0.76562-0.85938 0.85938-1.4219 0.10156-0.5625 0.15625-1.4922 0.15625-2.7969v-9.1094h3.3281v8.6562c0 1.9688-0.09375 3.3672-0.28125 4.1875-0.17969 0.8125-0.50781 1.5-0.98438 2.0625-0.48047 0.5625-1.125 1.0117-1.9375 1.3438-0.8125 0.33203-1.8711 0.5-3.1719 0.5-1.5742 0-2.7656-0.18359-3.5781-0.54688-0.8125-0.36328-1.4531-0.83203-1.9219-1.4062-0.46875-0.58203-0.77734-1.1914-0.92188-1.8281-0.21875-0.94531-0.32812-2.3438-0.32812-4.1875zm31.469 16.469h-3.6094l-1.4375-3.7344h-6.5781l-1.3594 3.7344h-3.5312l6.4062-16.469h3.5156zm-6.1094-6.5156-2.2812-6.1094-2.2188 6.1094zm7.9062 6.5156v-16.469h3.2344l6.75 11v-11h3.0781v16.469h-3.3281l-6.6406-10.734v10.734zm27.109-6.0469 3.2344 1.0156c-0.5 1.793-1.3281 3.125-2.4844 4-1.1484 0.875-2.6016 1.3125-4.3594 1.3125-2.1875 0-3.9844-0.74219-5.3906-2.2344-1.4062-1.5-2.1094-3.5469-2.1094-6.1406 0-2.7383 0.70312-4.8633 2.1094-6.375 1.4141-1.5195 3.2812-2.2812 5.5938-2.2812 2.0078 0 3.6445 0.60156 4.9062 1.7969 0.75 0.69922 1.3125 1.7109 1.6875 3.0312l-3.2969 0.78125c-0.19922-0.85156-0.60547-1.5234-1.2188-2.0156-0.61719-0.5-1.3672-0.75-2.25-0.75-1.2188 0-2.2109 0.4375-2.9688 1.3125-0.76172 0.875-1.1406 2.2969-1.1406 4.2656 0 2.0742 0.375 3.5547 1.125 4.4375 0.75 0.88672 1.7227 1.3281 2.9219 1.3281 0.88281 0 1.6445-0.28125 2.2812-0.84375 0.63281-0.5625 1.0859-1.4414 1.3594-2.6406zm20.922 6.0469h-3.6094l-1.4375-3.7344h-6.5781l-1.3594 3.7344h-3.5312l6.4062-16.469h3.5156zm-6.1094-6.5156-2.2812-6.1094-2.2188 6.1094zm12.078 6.5156-5.8906-16.469h3.6094l4.1719 12.188 4.0312-12.188h3.5156l-5.8906 16.469zm11.141 0v-16.469h12.203v2.7969h-8.875v3.6406h8.2656v2.7812h-8.2656v4.4688h9.2031v2.7812zm15.438 0v-16.328h3.3281v13.547h8.2656v2.7812zm13.859 0v-16.469h3.3125v16.469zm17.016-6.0469 3.2344 1.0156c-0.5 1.793-1.3281 3.125-2.4844 4-1.1484 0.875-2.6016 1.3125-4.3594 1.3125-2.1875 0-3.9844-0.74219-5.3906-2.2344-1.4062-1.5-2.1094-3.5469-2.1094-6.1406 0-2.7383 0.70312-4.8633 2.1094-6.375 1.4141-1.5195 3.2812-2.2812 5.5938-2.2812 2.0078 0 3.6445 0.60156 4.9062 1.7969 0.75 0.69922 1.3125 1.7109 1.6875 3.0312l-3.2969 0.78125c-0.19922-0.85156-0.60547-1.5234-1.2188-2.0156-0.61719-0.5-1.3672-0.75-2.25-0.75-1.2188 0-2.2109 0.4375-2.9688 1.3125-0.76172 0.875-1.1406 2.2969-1.1406 4.2656 0 2.0742 0.375 3.5547 1.125 4.4375 0.75 0.88672 1.7227 1.3281 2.9219 1.3281 0.88281 0 1.6445-0.28125 2.2812-0.84375 0.63281-0.5625 1.0859-1.4414 1.3594-2.6406zm20.922 6.0469h-3.6094l-1.4375-3.7344h-6.5781l-1.3594 3.7344h-3.5312l6.4062-16.469h3.5156zm-6.1094-6.5156-2.2812-6.1094-2.2188 6.1094z" fill-rule="evenodd"/>
</g>
</svg>
