<?xml version="1.0" encoding="UTF-8"?>
<svg width="500pt" height="420pt" version="1.1" viewBox="0 0 500 420" xmlns="http://www.w3.org/2000/svg">
<g id="a">
<rect width="500" height="420" fill="none"/>
<path d="m319.38 217.77 0.58594 1.2148 1.3203 1.4883 0.29297 0.96484 0.98438 2.125 0.55469 1.1836 1.1836 0.35547 1.0703 0.17578 1.5703-0.09375 1.7266-0.99609 1.332-0.10156 0.97266 0.375 1.7188 1.5 0.99219 1.2969 1.1211 2.1172 0.87891 1.2031 0.72266 0.77344 1.5625 1.1016 2.2812 0.30078 1.6133 0.87109 1.6016 1.6875 1.1641 1.3711 1.0469 0.59766 2.1875-0.085937 1.9062 0.19922 1.0469-0.11328 1.0898-0.79688 0.51172-1.3203 0.87109-0.51172-0.125 1.1914 1.7266 2.0859 0.56641 1.1094 0.86719 2.5742 0.22266 1.2695v2.293l0.62891 1.9258-0.11719 1.6367 0.42969 1.5156-0.13672 1.918-0.74219 2.125-0.13672 1.957-0.90234 1.457-0.41797 1.1094-1.0977 1.3633-0.28516 1.5586-0.33594 1.2891 0.19922 1.5078 1.1328 2.9102 0.0625 2.3906-0.36719 1.9141 0.0625 2.6602 0.13672 1.9258-0.23047 1.0703-0.32422 2.8359 0.69141 3.207 0.70312 2.1445 0.19922 1.5-0.59766 2.5117-0.42969 1.3203-0.26172 1.5898 0.26172 1.1016 0.074219 1.1289 1.3398 2.4922 1.5898 1.668 1.9805 1.1836 2.1055-0.19141 1.1094 0.10547 0.89062 0.60938 0.75 1.8281 0.5 1.8711 1.1172 2.4102 1.1836 1.5078 1.1875 1.2969 0.79297 0.86328 0.25 1.2578 0.14453 1.0781v2.8398l0.61328 2.0117 1.1133 1.8711 0.17969 1.3672 0.14453 2.4102 0.070313 3.0195-0.21484 2.1211-0.25391 1.1875-1.4375 1.4023-1.1484 1.1484-0.50391 1.4766-0.46875 1.6172-0.035156 1.1484-0.21484 1.3672 0.070313 1.1875 0.43359 1.3203-0.43359 1.0781-0.89844 1.6172 0.070313 1.6914 0.57812 0.96875 0.46484 1.043 0.17969 1.5469 0.14453 1.3672-0.035156 1.6875-0.25 1.9766-0.16016 1.9297 0.32422 1.5781 0.18359 1.0234-0.089844 1.1133-0.51172 1.2578-0.65234 1.0664-0.51172 1.2578-0.18359 1.0664-0.23438 1.6758 0.1875 1.7656 0.37109 1.9531 0.51172 1.0195 0.32422 1.9062-0.60547 1.3008-0.50781 0.92969 0.88281 2.2812 0.51953 1.1836 0.73438 1.2344 0.55859 1.6758 0.046875 1.9492-0.46484 1.3477-0.73828 1.543-1.2266 1.8555-0.71875 0.98438-0.95703 1.5586-1.0156 0.41797-0.82031 0.67188-0.61719 1.3242-0.14062 1.1797 0.56641 1.5625 0.09375 1.75-0.28125 1.4648-0.23828 1.5117 0.51953 1.2773 1.043 1.5586 0.43359 1.1016 0.65234 1.1016 0.125 1.8984-2.3555 0.14453-2.7109 0.27344-1.5-0.30469-0.81641-0.82422-0.73047-1.3008-1.2812-0.92969-1.2461-0.26172-0.75391-1.2695-1.5625-1.3281-1.1172-0.42969-1.0156-0.85938-0.71094-0.95312-1.4258-1.7695-1.7188-1.7188-0.4375-1.3203-0.92188-1.6836-1.5703-1.875-0.64062-0.90234-0.0625-1.3164 0.0625-1.082 0.36719-1.2656-0.15625-1.1953-0.56641-1.0859-1.0273-1.0586-1.0859-0.58594-0.65234-1.0156-0.13281-1.4062-0.53516-2.7617-0.61719-1.0391-1.3633-1.7383-0.41797-1.1523-0.33594-1.8086-0.41797-1.4141-0.74219-1.2383-1.332-0.59766-1.1641-0.16406-1.5703-0.10547-2.3438-0.32422-2.0117-1.7188-2.1367-1.0352-1.4961-0.83984-1.3008-0.47266-1.4023-0.375-4.0742-0.67188-1.582-0.34375-3.6445-0.32422-1.3398 0.050782-1.5156 0.28516-1.0156 0.58594-1.082-0.59766 0.33594-1.1016 1.1211-1.1602 0.33594-0.96484 0.20703-1.1211 0.52734-1.2148 0.35547-1.1602 0.73047-1.4766 0.49219-1.4141-0.13672-1.4766-0.77344-1.5391-1.2148-1.1953 0.09375-1.6016 0.03125-1.2344-0.89844-1.0078-0.16797-1.3516-0.125-1.2031-0.23047-1.2461 0.57422-2.2617 0.19922-1.3633 0.26172-1.0156 0.125-1.0977 0.41016-1.3398 0.09375-1.5-0.03125-2.3242-0.35547-1.4961-0.0625-1.1523 0.3125-1.2969 0.27344-1.7734 0.26953-0.97266 0.85938-1.4883 0.46094-1.9258 1.207-1.7891 1.0469-1.7695 0.98438-0.91406 0.63672-0.89844 0.92578-1.1992 1.082-0.50391 1.8867-0.55469 1.3906-0.6875 1.0039-0.94922 0.97656-1.6133 0.027344-1.4258-0.26172-0.98047-0.63672-1.6641-0.47656-1.0312-0.21094-1.9297 0.23828-1.3984-0.44922-1.668 0.027343-2.0586 0.96094-1.1562 0.60938-1.2773-0.042969-1.7656-0.089844-1.2891v-1.3477l0.17969-2.4688 0.089844-2.7383-0.22656-2.1562-0.44922-0.98828-1.168-0.85156-1.3008-0.62891-1.168-0.76172-0.80859-0.71875-2.3359-1.4844-0.80469-0.76172-2.3828-1.4375-0.62891-0.85156-0.62891-1.3477-0.76172-1.9297-0.074219-1.0352-1.3828-0.76953-1.0586-2.418-1.3477-1.3633-0.74609-1.0156 0.35547-3.1406 0.74609-2.0625 0.14453-1.3008-0.0625-1.0352 0.074219-1.0273-0.17969-1.0547-0.83594-1.1328-1.5078-0.96484-1.4141-0.46094 0.03125-1.4961-0.59766-1.3945-1.0664-0.5625-1.3516-0.16797 0.78516-3.3828 0.25-1.3828 0.55469-1.3086 0.45312-2.0547 0.73047-1.4648 1.0898-1.2578 1.0703-0.55469 0.23828-1.707-0.52344-1.5273 0.054688-1.4258 1.1094-0.86719 0.87891-1.3945 1.8945-1.1523 0.91016-1.4844 0.60938-1.3008 1.2656-0.78516 0.76562-0.69141 0.74219-2.5117 0.71484-1.1094 1.5078-0.19141 1.4766 0.085937 1.2148-0.27344 1.2852-1.457 1.1328-0.91797z" fill="#ccc" fill-rule="evenodd"/>
<path d="m319.38 217.77 0.58594 1.2148 1.3203 1.4883 0.29297 0.96484 0.98438 2.125 0.55469 1.1836 1.1836 0.35547 1.0703 0.17578 1.5703-0.09375 1.7266-0.99609 1.332-0.10156 0.97266 0.375 1.7188 1.5 0.99219 1.2969 1.1211 2.1172 0.87891 1.2031 0.72266 0.77344 1.5625 1.1016 2.2812 0.30078 1.6133 0.87109 1.6016 1.6875 1.1641 1.3711 1.0469 0.59766 2.1875-0.085937 1.9062 0.19922 1.0469-0.11328 1.0898-0.79688 0.51172-1.3203 0.87109-0.51172-0.125 1.1914 1.7266 2.0859 0.56641 1.1094 0.86719 2.5742 0.22266 1.2695v2.293l0.62891 1.9258-0.11719 1.6367 0.42969 1.5156-0.13672 1.918-0.74219 2.125-0.13672 1.957-0.90234 1.457-0.41797 1.1094-1.0977 1.3633-0.28516 1.5586-0.33594 1.2891 0.19922 1.5078 1.1328 2.9102 0.0625 2.3906-0.36719 1.9141 0.0625 2.6602 0.13672 1.9258-0.23047 1.0703-0.32422 2.8359 0.69141 3.207 0.70312 2.1445 0.19922 1.5-0.59766 2.5117-0.42969 1.3203-0.26172 1.5898 0.26172 1.1016 0.074219 1.1289 1.3398 2.4922 1.5898 1.668 1.9805 1.1836 2.1055-0.19141 1.1094 0.10547 0.89062 0.60938 0.75 1.8281 0.5 1.8711 1.1172 2.4102 1.1836 1.5078 1.1875 1.2969 0.79297 0.86328 0.25 1.2578 0.14453 1.0781v2.8398l0.61328 2.0117 1.1133 1.8711 0.17969 1.3672 0.14453 2.4102 0.070313 3.0195-0.21484 2.1211-0.25391 1.1875-1.4375 1.4023-1.1484 1.1484-0.50391 1.4766-0.46875 1.6172-0.035156 1.1484-0.21484 1.3672 0.070313 1.1875 0.43359 1.3203-0.43359 1.0781-0.89844 1.6172 0.070313 1.6914 0.57812 0.96875 0.46484 1.043 0.17969 1.5469 0.14453 1.3672-0.035156 1.6875-0.25 1.9766-0.16016 1.9297 0.32422 1.5781 0.18359 1.0234-0.089844 1.1133-0.51172 1.2578-0.65234 1.0664-0.51172 1.2578-0.18359 1.0664-0.23438 1.6758 0.1875 1.7656 0.37109 1.9531 0.51172 1.0195 0.32422 1.9062-0.60547 1.3008-0.50781 0.92969 0.88281 2.2812 0.51953 1.1836 0.73438 1.2344 0.55859 1.6758 0.046875 1.9492-0.46484 1.3477-0.73828 1.543-1.2266 1.8555-0.71875 0.98438-0.95703 1.5586-1.0156 0.41797-0.82031 0.67188-0.61719 1.3242-0.14062 1.1797 0.56641 1.5625 0.09375 1.75-0.28125 1.4648-0.23828 1.5117 0.51953 1.2773 1.043 1.5586 0.43359 1.1016 0.65234 1.1016 0.125 1.8984-2.3555 0.14453-2.7109 0.27344-1.5-0.30469-0.81641-0.82422-0.73047-1.3008-1.2812-0.92969-1.2461-0.26172-0.75391-1.2695-1.5625-1.3281-1.1172-0.42969-1.0156-0.85938-0.71094-0.95312-1.4258-1.7695-1.7188-1.7188-0.4375-1.3203-0.92188-1.6836-1.5703-1.875-0.64062-0.90234-0.0625-1.3164 0.0625-1.082 0.36719-1.2656-0.15625-1.1953-0.56641-1.0859-1.0273-1.0586-1.0859-0.58594-0.65234-1.0156-0.13281-1.4062-0.53516-2.7617-0.61719-1.0391-1.3633-1.7383-0.41797-1.1523-0.33594-1.8086-0.41797-1.4141-0.74219-1.2383-1.332-0.59766-1.1641-0.16406-1.5703-0.10547-2.3438-0.32422-2.0117-1.7188-2.1367-1.0352-1.4961-0.83984-1.3008-0.47266-1.4023-0.375-4.0742-0.67188-1.582-0.34375-3.6445-0.32422-1.3398 0.050782-1.5156 0.28516-1.0156 0.58594-1.082-0.59766 0.33594-1.1016 1.1211-1.1602 0.33594-0.96484 0.20703-1.1211 0.52734-1.2148 0.35547-1.1602 0.73047-1.4766 0.49219-1.4141-0.13672-1.4766-0.77344-1.5391-1.2148-1.1953 0.09375-1.6016 0.03125-1.2344-0.89844-1.0078-0.16797-1.3516-0.125-1.2031-0.23047-1.2461 0.57422-2.2617 0.19922-1.3633 0.26172-1.0156 0.125-1.0977 0.41016-1.3398 0.09375-1.5-0.03125-2.3242-0.35547-1.4961-0.0625-1.1523 0.3125-1.2969 0.27344-1.7734 0.26953-0.97266 0.85938-1.4883 0.46094-1.9258 1.207-1.7891 1.0469-1.7695 0.98438-0.91406 0.63672-0.89844 0.92578-1.1992 1.082-0.50391 1.8867-0.55469 1.3906-0.6875 1.0039-0.94922 0.97656-1.6133 0.027344-1.4258-0.26172-0.98047-0.63672-1.6641-0.47656-1.0312-0.21094-1.9297 0.23828-1.3984-0.44922-1.668 0.027343-2.0586 0.96094-1.1562 0.60938-1.2773-0.042969-1.7656-0.089844-1.2891v-1.3477l0.17969-2.4688 0.089844-2.7383-0.22656-2.1562-0.44922-0.98828-1.168-0.85156-1.3008-0.62891-1.168-0.76172-0.80859-0.71875-2.3359-1.4844-0.80469-0.76172-2.3828-1.4375-0.62891-0.85156-0.62891-1.3477-0.76172-1.9297-0.074219-1.0352-1.3828-0.76953-1.0586-2.418-1.3477-1.3633-0.74609-1.0156 0.35547-3.1406 0.74609-2.0625 0.14453-1.3008-0.0625-1.0352 0.074219-1.0273-0.17969-1.0547-0.83594-1.1328-1.5078-0.96484-1.4141-0.46094 0.03125-1.4961-0.59766-1.3945-1.0664-0.5625-1.3516-0.16797 0.78516-3.3828 0.25-1.3828 0.55469-1.3086 0.45312-2.0547 0.73047-1.4648 1.0898-1.2578 1.0703-0.55469 0.23828-1.707-0.52344-1.5273 0.054688-1.4258 1.1094-0.86719 0.87891-1.3945 1.8945-1.1523 0.91016-1.4844 0.60938-1.3008 1.2656-0.78516 0.76562-0.69141 0.74219-2.5117 0.71484-1.1094 1.5078-0.19141 1.4766 0.085937 1.2148-0.27344 1.2852-1.457 1.1328-0.91797 0.87891 0.40625" fill="none" stroke="#fff" stroke-linecap="round" stroke-linejoin="round" stroke-miterlimit="10" stroke-width="2"/>
<path d="m53.34 39.301 0.76172 0.25391 1.3086 0.57031 1.0117 0.57031 1.418 1.0977 0.73828 0.90625 1.1797 1.2461 0.27734 1.4766 0.71875 1.5625 0.66797 1.3633 0.21484 1.5039 0.42969 0.98828 0.38672 1.1133 1.9297 0.12891 1.375-0.55469 1.0625-0.46484 0.99609-0.09375 2.6211-0.042969 1.7578-0.085937 1.2031 0.64453 0.90234 1.1992 1.3281 0.98828 1.418-0.17188 1.1602-0.21484 1.1172-0.55859 1.3281 0.17188 2.125 0.92188 1.5664 1.0117 0.90234 0.73047 0.81641 0.89844 1.2031 1.8906 0.81641 1.0586 0.45312 1.1367 0.49219 1.1914 0.070312 1.7695 0.15625 1.1367 0.89453 1.4961 0.32812 1.9688-0.21875 1.4492 0.82031 0.92969 0.98438 0.41016 1.0664 1.5859 0.71094 1.3398-0.30078 1.7539-0.57422 1.2305-0.22656 1.3008 1.1953 1.332 1.1992 2.1562 0.71484 0.85156 1.2305 0.82031 1.1641 1.4375 0.75 1.8125 1.1289 1.7422 1.0938 1.2305 1.0625 1.332 1.9805 0.41016 2.0859-0.41016 1.1289-0.066406 2.8008 0.41016 1.5742-0.039063 1.2969-0.23438 1.2656-0.13672h1.1641l1.2773 1.7461 0.6875 0.89062 1.1641 0.61719 1.0977 0.30859 1.4727 0.17188 1.1641 0.03125 1.2344 0.78906 1.4023 1.1328 1.4375 0.89062 1.4062 1.3008 2.3633 0.71875 1.2695 0.17188 0.80078 1.2539 0.27734 1.1953 0.76562 0.85938 1.3828 1.3203 0.64453 1.2305 0.03125 1.5352-1.6875 1.0117-0.85938 1.2578-0.80078 1.1367-0.61328 1.1055-0.55078 1.2266-0.40234 1.1055v1.3828l1.168 1.3203 0.89062 0.79688 0.92578 1.4531-0.24219 2.5586-0.33594 1-1 2.1562-0.35547 1.0469 0.17969 1.332 0.19922 1.7266-0.38672 1.3945 0.61719 1.0352 1.0586 0.36719h1.8828l1.8633 0.0625 1.2461 0.44922-0.019531 1.1016 0.73438 0.71094 1.2227 0.47266 0.97656 0.51172 1.4219 0.21875 1.5391 0.53516 0.92188 0.67188 0.57812 1.4531 0.83594 1.0156 1.2891 1.2148 0.3125 1.0703 0.31641 1.2578 0.60547 0.83594 0.0625 1.2773-0.24219 2.3789 0.17969 1.2461-0.19922 0.99219-0.14453 1.2773-0.29297 1.2891 0.5625 1.0391 0.48438 1.3906 0.011719 1.4648 0.67969 0.98438 0.91016 1.7188 0.59766 0.89062 1.1094 0.59766 0.61719 1.2656 0.054687 1.4023-0.25391 3.5-0.75391 1.1914-0.33594 1.7812-0.80469 1.5-0.28125 1.5898-1.2266 1.4336-0.30469 1.1953-0.55469 1.6953-0.40625 1.4453-0.30469 1.1094-0.09375 1.6992-0.99609 1.0586-1.5703 1.2461-1.0156 0.66797-1.4453-0.26172-1.0273 0.27344-0.96484-0.49219-0.62891 0.83984-0.62109 0.8125-0.027343 1.2266-0.52344 0.98438-1.1211 0.93359-2 0.15625-1.5078-0.94141-1.0859-0.14844-0.78516 0.74219-1.3125 0.53516-0.59375 1.332-0.55859 1.0859-1.543 1.6875-0.53906 0.96484 0.33594 0.96094-0.085938 1.207-0.53125 1.3828-1.2578 0.67969-1.2578 0.54297-0.66016 0.78516-1.1719 0.89062-1.6328 0.60938-1.6133 0.17578-1.6758 0.16797-1.8125 0.36719-1.2773-0.03125-0.98438 0.26172-2.9531 0.62891-0.73438 0.75391 0.75391 1.8828 0.16016 1.0469-0.42969 0.98438 0.14453 1.0156-0.10547 1.832-0.38672 1.5312-0.94141-0.62891-1.0156 0.47266-1.2344 0.75391-1.1523 1.4023-1.6328 1.0781-1.0391 0.77734-1.6211-0.22266-1.1523-0.10156-0.89062 1.1484-1.4883 0.91406-0.99609-0.28516-1.1719 1.0898-0.78516 0.93359-0.97266 0.49219-1.0781 0.48047-0.96484-0.36719-0.87109 1.0703-0.30078 1.2461-1.0898 0.61719-0.67969 1.6016-0.94531 2.0195-0.83594 0.76562-0.050781 1.1836-0.41016 1.1328-1.6016 0.73047-1.207 0.69141-0.64062 0.77344 0.32031 1.7695 0.46094 1.3906 0.22266 1.9102 0.054687 1.375-0.35156 1.6719-0.089844 3.4219v2.4062l-0.042969 1.2461-0.085937 1.0312-0.25781 1.2031-1.6758 1.8047-2.0234 2.0664-0.64453 1.2031-0.12891 1.2031-0.34375 1.2031-0.51562 1.5039-0.64453 2.0195-2.1484 3.2266-0.6875 0.94531-0.6875 1.332-2.7969 2.3633-1.332 1.6758-1.8711 2.9453-1.4609-1.1719-1.6641-1.6992-1.3008-1.668-0.93359-1.7656-0.53516-1.8984-0.36328-1.0664-1.4688-0.93359-1.4648-0.43359-1.4688-0.16797-1.1992 0.10156h-1.6016l-1.0508-0.74609-0.29297-1.9883 0.23438-2.3789-0.074219-1.4844-0.45703-1.6758-0.60938-1.375-1.1055-2.4375-1.4102-2.9727-0.60938-1.8281-0.60938-1.4492-0.078125-2.8945 0.15234-2.5547-0.83594-1.3711-1.207-0.96484-1.1016 0.050781-1.3203 0.75-2.1094 0.88672-1.6562 0.30469-2.8516 0.51562-3.5469 0.94531-1.832 0.69922-3.418 0.94531-1.707 0.12891-1.5781-1.0742-2.0273-0.94922-1.4531-0.25391-1.832 0.125-2.6562-0.31641-2.2773-0.44141-2.0898-1.0117-1.3281-1.3906-1.707-1.3906-0.94922-0.69922-1.7695-1.1367-3.3516-2.2773-2.4648-1.3281-1.582-1.4531-0.75781-1.582-0.19141-1.2656 0.44141-2.1484 1.707-1.582 2.0898-0.69531 1.7031-0.60156 1.6484-0.85156 1.5156-1.0781 1.0781-0.82031v-1.0117l-0.50781-1.2031-0.63281-1.1992-0.125-1.2031-0.50781-3.4141-0.1875-2.7852 0.56641-2.7891 0.63281-1.5781 1.0117-1.5195 2.2148-1.582 1.1367-2.0234-0.125-2.0234-0.75781-2.4648-0.0625-2.5938 0.44141-1.2656 2.2148-3.543 0.69531-1.7695 1.4531-4.4883v-2.6562l-0.25391-2.7852 0.76172-2.0859 0.69531-2.0234 0.50391-2.7188-0.50391-1.6445-0.37891-1.582 0.0625-1.6445 0.25-1.7695 0.61328-3.4531 1.1875-2.0977 1.9492-2.7812 2.1016-2.7773 0.95703-1.9531 0.35547-1.5195 0.44922-2.0547-0.089843-1.5195-0.80469-1.4336-2.0039-3.0078-0.09375-2.2227-0.11719-1.3398 0.35156-1.9219 0.46484-3.1445 0.875-3.5547 2.5039-3.9609 0.81641-1.8672 0.29297-2.5039 0.28906-3.2031 0.058594-2.9141 0.58203-2.1562 0.35156-2.9141-0.11719-1.0469-0.81641-1.6328-1.1055-1.5156-1.75-1.2812-2.4453-0.98828-3.3789-0.93359-1.2812-1.3398-0.50391-2.8828 0.23438-4.3828 0.046875-1.957 0.1875-2.1914-0.09375-2.6094 0.1875-1.8633-0.14062-1.7734-0.98047-1.7695-0.18359-1.2578 0.27734-1.168 0.93359-1.9102 2.0234-1.3906 0.6875-1.5508-0.30078-1.7031-0.59375-1.7891-0.53906-1.1328-1.0742-1.0156-0.53516-1.5195-0.63281-1.8438-0.23047-1.4102 0.023437-1.0195 0.33203-2.5742 0.55859-2.0469 1.3086-1.3203 1.5312-1.418 1.3516-1.1211 1.2539-0.79297 0.98828-0.16406 1.8164 1.1875 0.95703 0.59375 1.0234 0.66016 0.89062 0.79297 1.9141-0.5625 1.2852-0.69141 0.92188-0.95703 1.0234-0.82422 1.1875-0.66016 1.3867 0.23047 1.0234 1.6484 0.95703 1.0234 1.5156-0.16406 1.0234-0.29688 0.92578-0.70312 0.39453-1.0781 0.69141-0.99219 0.62891-1.3516 0.98828-1.2539 1.7812-1.418 1.6875-1.5195 1.2461-0.58984 0.88672-0.58984 1.1836-0.71875z" fill="#ccc" fill-rule="evenodd"/>
<path d="m53.34 39.301 0.76172 0.25391 1.3086 0.57031 1.0117 0.57031 1.418 1.0977 0.73828 0.90625 1.1797 1.2461 0.27734 1.4766 0.71875 1.5625 0.66797 1.3633 0.21484 1.5039 0.42969 0.98828 0.38672 1.1133 1.9297 0.12891 1.375-0.55469 1.0625-0.46484 0.99609-0.09375 2.6211-0.042969 1.7578-0.085937 1.2031 0.64453 0.90234 1.1992 1.3281 0.98828 1.418-0.17188 1.1602-0.21484 1.1172-0.55859 1.3281 0.17188 2.125 0.92188 1.5664 1.0117 0.90234 0.73047 0.81641 0.89844 1.2031 1.8906 0.81641 1.0586 0.45312 1.1367 0.49219 1.1914 0.070312 1.7695 0.15625 1.1367 0.89453 1.4961 0.32812 1.9688-0.21875 1.4492 0.82031 0.92969 0.98438 0.41016 1.0664 1.5859 0.71094 1.3398-0.30078 1.7539-0.57422 1.2305-0.22656 1.3008 1.1953 1.332 1.1992 2.1562 0.71484 0.85156 1.2305 0.82031 1.1641 1.4375 0.75 1.8125 1.1289 1.7422 1.0938 1.2305 1.0625 1.332 1.9805 0.41016 2.0859-0.41016 1.1289-0.066406 2.8008 0.41016 1.5742-0.039063 1.2969-0.23438 1.2656-0.13672h1.1641l1.2773 1.7461 0.6875 0.89062 1.1641 0.61719 1.0977 0.30859 1.4727 0.17188 1.1641 0.03125 1.2344 0.78906 1.4023 1.1328 1.4375 0.89062 1.4062 1.3008 2.3633 0.71875 1.2695 0.17188 0.80078 1.2539 0.27734 1.1953 0.76562 0.85938 1.3828 1.3203 0.64453 1.2305 0.03125 1.5352-1.6875 1.0117-0.85938 1.2578-0.80078 1.1367-0.61328 1.1055-0.55078 1.2266-0.40234 1.1055v1.3828l1.168 1.3203 0.89062 0.79688 0.92578 1.4531-0.24219 2.5586-0.33594 1-1 2.1562-0.35547 1.0469 0.17969 1.332 0.19922 1.7266-0.38672 1.3945 0.61719 1.0352 1.0586 0.36719h1.8828l1.8633 0.0625 1.2461 0.44922-0.019531 1.1016 0.73438 0.71094 1.2227 0.47266 0.97656 0.51172 1.4219 0.21875 1.5391 0.53516 0.92188 0.67188 0.57812 1.4531 0.83594 1.0156 1.2891 1.2148 0.3125 1.0703 0.31641 1.2578 0.60547 0.83594 0.0625 1.2773-0.24219 2.3789 0.17969 1.2461-0.19922 0.99219-0.14453 1.2773-0.29297 1.2891 0.5625 1.0391 0.48438 1.3906 0.011719 1.4648 0.67969 0.98438 0.91016 1.7188 0.59766 0.89062 1.1094 0.59766 0.61719 1.2656 0.054687 1.4023-0.25391 3.5-0.75391 1.1914-0.33594 1.7812-0.80469 1.5-0.28125 1.5898-1.2266 1.4336-0.30469 1.1953-0.55469 1.6953-0.40625 1.4453-0.30469 1.1094-0.09375 1.6992-0.99609 1.0586-1.5703 1.2461-1.0156 0.66797-1.4453-0.26172-1.0273 0.27344-0.96484-0.49219-0.62891 0.83984-0.62109 0.8125-0.027343 1.2266-0.52344 0.98438-1.1211 0.93359-2 0.15625-1.5078-0.94141-1.0859-0.14844-0.78516 0.74219-1.3125 0.53516-0.59375 1.332-0.55859 1.0859-1.543 1.6875-0.53906 0.96484 0.33594 0.96094-0.085938 1.207-0.53125 1.3828-1.2578 0.67969-1.2578 0.54297-0.66016 0.78516-1.1719 0.89062-1.6328 0.60938-1.6133 0.17578-1.6758 0.16797-1.8125 0.36719-1.2773-0.03125-0.98438 0.26172-2.9531 0.62891-0.73438 0.75391 0.75391 1.8828 0.16016 1.0469-0.42969 0.98438 0.14453 1.0156-0.10547 1.832-0.38672 1.5312-0.94141-0.62891-1.0156 0.47266-1.2344 0.75391-1.1523 1.4023-1.6328 1.0781-1.0391 0.77734-1.6211-0.22266-1.1523-0.10156-0.89062 1.1484-1.4883 0.91406-0.99609-0.28516-1.1719 1.0898-0.78516 0.93359-0.97266 0.49219-1.0781 0.48047-0.96484-0.36719-0.87109 1.0703-0.30078 1.2461-1.0898 0.61719-0.67969 1.6016-0.94531 2.0195-0.83594 0.76562-0.050781 1.1836-0.41016 1.1328-1.6016 0.73047-1.207 0.69141-0.64062 0.77344 0.32031 1.7695 0.46094 1.3906 0.22266 1.9102 0.054687 1.375-0.35156 1.6719-0.089844 3.4219v2.4062l-0.042969 1.2461-0.085937 1.0312-0.25781 1.2031-1.6758 1.8047-2.0234 2.0664-0.64453 1.2031-0.12891 1.2031-0.34375 1.2031-0.51562 1.5039-0.64453 2.0195-2.1484 3.2266-0.6875 0.94531-0.6875 1.332-2.7969 2.3633-1.332 1.6758-1.8711 2.9453-1.4609-1.1719-1.6641-1.6992-1.3008-1.668-0.93359-1.7656-0.53516-1.8984-0.36328-1.0664-1.4688-0.93359-1.4648-0.43359-1.4688-0.16797-1.1992 0.10156h-1.6016l-1.0508-0.74609-0.29297-1.9883 0.23438-2.3789-0.074219-1.4844-0.45703-1.6758-0.60938-1.375-1.1055-2.4375-1.4102-2.9727-0.60938-1.8281-0.60938-1.4492-0.078125-2.8945 0.15234-2.5547-0.83594-1.3711-1.207-0.96484-1.1016 0.050781-1.3203 0.75-2.1094 0.88672-1.6562 0.30469-2.8516 0.51562-3.5469 0.94531-1.832 0.69922-3.418 0.94531-1.707 0.12891-1.5781-1.0742-2.0273-0.94922-1.4531-0.25391-1.832 0.125-2.6562-0.31641-2.2773-0.44141-2.0898-1.0117-1.3281-1.3906-1.707-1.3906-0.94922-0.69922-1.7695-1.1367-3.3516-2.2773-2.4648-1.3281-1.582-1.4531-0.75781-1.582-0.19141-1.2656 0.44141-2.1484 1.707-1.582 2.0898-0.69531 1.7031-0.60156 1.6484-0.85156 1.5156-1.0781 1.0781-0.82031v-1.0117l-0.50781-1.2031-0.63281-1.1992-0.125-1.2031-0.50781-3.4141-0.1875-2.7852 0.56641-2.7891 0.63281-1.5781 1.0117-1.5195 2.2148-1.582 1.1367-2.0234-0.125-2.0234-0.75781-2.4648-0.0625-2.5938 0.44141-1.2656 2.2148-3.543 0.69531-1.7695 1.4531-4.4883v-2.6562l-0.25391-2.7852 0.76172-2.0859 0.69531-2.0234 0.50391-2.7188-0.50391-1.6445-0.37891-1.582 0.0625-1.6445 0.25-1.7695 0.61328-3.4531 1.1875-2.0977 1.9492-2.7812 2.1016-2.7773 0.95703-1.9531 0.35547-1.5195 0.44922-2.0547-0.089843-1.5195-0.80469-1.4336-2.0039-3.0078-0.09375-2.2227-0.11719-1.3398 0.35156-1.9219 0.46484-3.1445 0.875-3.5547 2.5039-3.9609 0.81641-1.8672 0.29297-2.5039 0.28906-3.2031 0.058594-2.9141 0.58203-2.1562 0.35156-2.9141-0.11719-1.0469-0.81641-1.6328-1.1055-1.5156-1.75-1.2812-2.4453-0.98828-3.3789-0.93359-1.2812-1.3398-0.50391-2.8828 0.23438-4.3828 0.046875-1.957 0.1875-2.1914-0.09375-2.6094 0.1875-1.8633-0.14062-1.7734-0.98047-1.7695-0.18359-1.2578 0.27734-1.168 0.93359-1.9102 2.0234-1.3906 0.6875-1.5508-0.30078-1.7031-0.59375-1.7891-0.53906-1.1328-1.0742-1.0156-0.53516-1.5195-0.63281-1.8438-0.23047-1.4102 0.023437-1.0195 0.33203-2.5742 0.55859-2.0469 1.3086-1.3203 1.5312-1.418 1.3516-1.1211 1.2539-0.79297 0.98828-0.16406 1.8164 1.1875 0.95703 0.59375 1.0234 0.66016 0.89062 0.79297 1.9141-0.5625 1.2852-0.69141 0.92188-0.95703 1.0234-0.82422 1.1875-0.66016 1.3867 0.23047 1.0234 1.6484 0.95703 1.0234 1.5156-0.16406 1.0234-0.29688 0.92578-0.70312 0.39453-1.0781 0.69141-0.99219 0.62891-1.3516 0.98828-1.2539 1.7812-1.418 1.6875-1.5195 1.2461-0.58984 0.88672-0.58984 1.1836-0.71875h0.90625" fill="none" stroke="#fff" stroke-linecap="round" stroke-linejoin="round" stroke-miterlimit="10" stroke-width="2"/>
<path d="m216.2 118.01 0.078125 0.011719 1.1875 0.26562 1.6211 0.5 1.4453 1.0781 0.71094 0.90234 0.91406 0.41797 1.4766 0.67969 2.7305 0.54688 2.7812 0.40625 1.9766 0.36719 0.91797 0.87891-0.74219 0.93359 0.042969 1.3203 1.1836 1.0352 1.4961 0.71094 1.7383 0.32812 1.1523 0.59375 1.8125 0.14844 2.6719 1.0469 0.53125 1.3203 0.75391 2.125 0.57812 0.93359 1.2344 0.58594 1.6328 0.66016 1.0469 0.59375 1.082 2.3281 0.96094 1.4453 0.75391 1.0547 0.59766 1.3633 0.89062 1.2578 1.3906 1.0664 1.1523 0.3125h1.375l1.4219-1.1797 1.1211-0.64062 1.0469 0.69141-0.53516 1.1641-0.81641 1.3164 0.86719 1.6953 2.3594 1.793 2.293 1.2891 0.76562 1.3594 0.082031 2.0312-0.25 1.4688 0.57422 1.5078 1.0781 0.44922 0.65234 0.89453 0.51172 1.0312 0.34375 1.0938 0.34766 1.082 0.70312 1.6797 0.125 1.2266-0.57812 2.4922-0.26172 1.5898 0.79688 1.625 0.41016 1.2969-1.1641 0.64844-1.2461-0.007813-1.2578 0.38672 0.36719 1.3086 1.1094 0.74219 1.2773 0.38672 1.2148 0.32812-0.91797 1.043-1.0078 0.74609-1.0469 1.5703-0.77344 1.0391-0.65234 1.1094-0.51172 1.1211-0.95312 0.86719-2.4922 1.3516-0.87109 0.79688-0.55469 0.92188 0.22266 3.2148 0.67969 1.8945 0.050781 1.9492 0.19141 1.8398-0.27344 1.2461-1.1719 1.8984-0.625 2.1016-0.72656 1.1758-0.48828 0.97656-0.49609 2.1406-1.1016 2.375-0.55078 3.2617-0.29688 1.0156-0.93359 1.2734-1.4414 0.71875-1.0586-0.042968-0.89062-1.4688-0.66016-1.7383-0.91016-2.2344-0.82812-1.6562-2.1523-0.57812-1.9883 0.33203-1.4062-0.16797-1.6562-1.0742-1.7383-0.99609-1.9102-2.3164-1.3516-1.3125-1.4609-1.0234-0.91406-0.4375-1.6797-1.8633-1.5703-3.6875-0.54688-2.5586-0.36328-1.4219-1.6094-3.3984-2.3711-3.3945-1.8633-1.7891-1.207-1.6094-1.4961-3.25-0.98828-0.76562-1.3867-0.36328-0.80078 1.8594 0.69141 2.3398 0.51172 2.5547 0.40234 2.3359 0.25391 1.6445 0.58594 1.0586 2.3008 3.0312 0.41797 0.96875 0.93359 1.3711 0.98438 1.4609 0.29297 1.3516 0.29297 1.6055 0.36328 2.8477-0.17969 3.543-0.29297 3.9062-0.87891 2.1562-0.61719 2.4102 0.36328 1.2031 0.21875 1.1328-1.8984 0.55078-2.7539 0.82422-1.9648-0.43359-1.2656-0.46484-1.3359-0.23438-2.3633-0.23438-1.7695 0.23438-1.5625 1.3672-1 1.7305-1.0664 1.3672-2.3672-0.066406-1.0352-0.36719-2.4336-0.19922-1.2656 0.23438-1.6641 0.30078-1.0664-0.13672-1.1328-0.03125-1 0.066407-2.0352 0.10156-1.4336 0.23047-1 0.30078-1.332 0.35547-1.4961 0.39062-1.0273-0.24219-1.2852 0.30469-1.5938-1.1289-0.24219-1.5078-1.1172-1.582-1.3906-1.2109-0.92578-0.68359-1.4023-0.54688-1.5195-0.81641-1.1289-1.2031-1.1836-0.75391-1.5703-0.49219-0.87109-0.97656-1.2773 0.042969-1.2773 0.44922-1.1328 0.23047-1.1094 0.10547-0.97266 0.53516-0.91016 0.96094-1.8438 0.66797-1.7734-0.26953-1.1875-0.11328-1.1641-0.65234-0.79688-1.1641-0.65234-1.2812-0.39844-0.96484-0.37109-1.7617-0.36719-1.1367-1.0156-1.168-1.5273-0.5h-1.2461l-2.5586 0.71094-2.5078 1.0664-3.6367 0.69531-1.543 0.078125-1.168-0.5-0.88672-0.60938-1.1094-1.3867-0.66797-1.1133-0.12891-1.168 0.51953-3.0508 0.054687-1.3867-0.054687-2.8281v-2l0.8125-1.2656 1.1641-1.3672 0.58203-1.2422-0.41406-1.5391-0.97656-0.67578-0.91016-0.91016 1.1602-1.3633 0.96484 0.49219 1.0273-0.27344 1.0664 0.26172 1.3945-0.66797 1.0352-0.82031 1.0078-0.73047 0.61719-2.4531 0.30469-1.1094 0.28125-1.1719 0.1875-1.1719 0.67188-1.7305 1.0234-1.0234 0.42969-1.8008 0.94531-1.6758 0.20703-1.4258 0.72266-1.3828 0.39844-3.1719v-2.1797l-0.61719-1.2656-1.1094-0.59766-0.59766-0.89062-0.28125-1.0664-1.3086-1.6367-0.27344-1.0469 0.34375-1.0781-1.1602-1.3711 0.23828-1.0352 0.41016-1.1211v-1.4883l-0.17969-1.2031 0.11719-2.0625 0.42969-1.0156 2.125-0.12891 2.168 0.66016 1.0977 0.72266 1.2461 0.51562 1.875-0.03125 1.4766-0.074219 2.4219-0.28516 1.2188-0.50781 1.7969-1.1875 1.0156-1.5273 0.40625-0.96094 1.0234-1.4453 1.9219-0.60547 1.8672 0.21875 1.3711 0.33203 4.9453-0.22266 2.25-0.21875 2.3008-0.33984 2.2617-0.48438 1.9219-0.93359 1.5391-1.0977 1.4805-1.207 0.76953-1.0469 0.44141-1.043 0.32812-1.3711-0.054688-2.1992 0.60547-1.207 1.5898-1.3203 1.9219-0.21875 2.1211-0.13672 3.2109-0.35547 1.5156-0.007812 1.043-0.3125 1.3594-0.76562 1.3555-0.52344 1.3203-0.035156 1.3594-0.066406 1.1133-0.28125 1.4961-0.51953 1.1484-0.52344 0.97266-0.83594 0.85938-0.62109 0.74609-0.78906 0.40625-1.0352 0.67578-1.4609z" fill="#ccc" fill-rule="evenodd"/>
<path d="m216.2 118.01 0.078125 0.011719 1.1875 0.26562 1.6211 0.5 1.4453 1.0781 0.71094 0.90234 0.91406 0.41797 1.4766 0.67969 2.7305 0.54688 2.7812 0.40625 1.9766 0.36719 0.91797 0.87891-0.74219 0.93359 0.042969 1.3203 1.1836 1.0352 1.4961 0.71094 1.7383 0.32812 1.1523 0.59375 1.8125 0.14844 2.6719 1.0469 0.53125 1.3203 0.75391 2.125 0.57812 0.93359 1.2344 0.58594 1.6328 0.66016 1.0469 0.59375 1.082 2.3281 0.96094 1.4453 0.75391 1.0547 0.59766 1.3633 0.89062 1.2578 1.3906 1.0664 1.1523 0.3125h1.375l1.4219-1.1797 1.1211-0.64062 1.0469 0.69141-0.53516 1.1641-0.81641 1.3164 0.86719 1.6953 2.3594 1.793 2.293 1.2891 0.76562 1.3594 0.082031 2.0312-0.25 1.4688 0.57422 1.5078 1.0781 0.44922 0.65234 0.89453 0.51172 1.0312 0.34375 1.0938 0.34766 1.082 0.70312 1.6797 0.125 1.2266-0.57812 2.4922-0.26172 1.5898 0.79688 1.625 0.41016 1.2969-1.1641 0.64844-1.2461-0.007813-1.2578 0.38672 0.36719 1.3086 1.1094 0.74219 1.2773 0.38672 1.2148 0.32812-0.91797 1.043-1.0078 0.74609-1.0469 1.5703-0.77344 1.0391-0.65234 1.1094-0.51172 1.1211-0.95312 0.86719-2.4922 1.3516-0.87109 0.79688-0.55469 0.92188 0.22266 3.2148 0.67969 1.8945 0.050781 1.9492 0.19141 1.8398-0.27344 1.2461-1.1719 1.8984-0.625 2.1016-0.72656 1.1758-0.48828 0.97656-0.49609 2.1406-1.1016 2.375-0.55078 3.2617-0.29688 1.0156-0.93359 1.2734-1.4414 0.71875-1.0586-0.042968-0.89062-1.4688-0.66016-1.7383-0.91016-2.2344-0.82812-1.6562-2.1523-0.57812-1.9883 0.33203-1.4062-0.16797-1.6562-1.0742-1.7383-0.99609-1.9102-2.3164-1.3516-1.3125-1.4609-1.0234-0.91406-0.4375-1.6797-1.8633-1.5703-3.6875-0.54688-2.5586-0.36328-1.4219-1.6094-3.3984-2.3711-3.3945-1.8633-1.7891-1.207-1.6094-1.4961-3.25-0.98828-0.76562-1.3867-0.36328-0.80078 1.8594 0.69141 2.3398 0.51172 2.5547 0.40234 2.3359 0.25391 1.6445 0.58594 1.0586 2.3008 3.0312 0.41797 0.96875 0.93359 1.3711 0.98438 1.4609 0.29297 1.3516 0.29297 1.6055 0.36328 2.8477-0.17969 3.543-0.29297 3.9062-0.87891 2.1562-0.61719 2.4102 0.36328 1.2031 0.21875 1.1328-1.8984 0.55078-2.7539 0.82422-1.9648-0.43359-1.2656-0.46484-1.3359-0.23438-2.3633-0.23438-1.7695 0.23438-1.5625 1.3672-1 1.7305-1.0664 1.3672-2.3672-0.066406-1.0352-0.36719-2.4336-0.19922-1.2656 0.23438-1.6641 0.30078-1.0664-0.13672-1.1328-0.03125-1 0.066407-2.0352 0.10156-1.4336 0.23047-1 0.30078-1.332 0.35547-1.4961 0.39062-1.0273-0.24219-1.2852 0.30469-1.5938-1.1289-0.24219-1.5078-1.1172-1.582-1.3906-1.2109-0.92578-0.68359-1.4023-0.54688-1.5195-0.81641-1.1289-1.2031-1.1836-0.75391-1.5703-0.49219-0.87109-0.97656-1.2773 0.042969-1.2773 0.44922-1.1328 0.23047-1.1094 0.10547-0.97266 0.53516-0.91016 0.96094-1.8438 0.66797-1.7734-0.26953-1.1875-0.11328-1.1641-0.65234-0.79688-1.1641-0.65234-1.2812-0.39844-0.96484-0.37109-1.7617-0.36719-1.1367-1.0156-1.168-1.5273-0.5h-1.2461l-2.5586 0.71094-2.5078 1.0664-3.6367 0.69531-1.543 0.078125-1.168-0.5-0.88672-0.60938-1.1094-1.3867-0.66797-1.1133-0.12891-1.168 0.51953-3.0508 0.054687-1.3867-0.054687-2.8281v-2l0.8125-1.2656 1.1641-1.3672 0.58203-1.2422-0.41406-1.5391-0.97656-0.67578-0.91016-0.91016 1.1602-1.3633 0.96484 0.49219 1.0273-0.27344 1.0664 0.26172 1.3945-0.66797 1.0352-0.82031 1.0078-0.73047 0.61719-2.4531 0.30469-1.1094 0.28125-1.1719 0.1875-1.1719 0.67188-1.7305 1.0234-1.0234 0.42969-1.8008 0.94531-1.6758 0.20703-1.4258 0.72266-1.3828 0.39844-3.1719v-2.1797l-0.61719-1.2656-1.1094-0.59766-0.59766-0.89062-0.28125-1.0664-1.3086-1.6367-0.27344-1.0469 0.34375-1.0781-1.1602-1.3711 0.23828-1.0352 0.41016-1.1211v-1.4883l-0.17969-1.2031 0.11719-2.0625 0.42969-1.0156 2.125-0.12891 2.168 0.66016 1.0977 0.72266 1.2461 0.51562 1.875-0.03125 1.4766-0.074219 2.4219-0.28516 1.2188-0.50781 1.7969-1.1875 1.0156-1.5273 0.40625-0.96094 1.0234-1.4453 1.9219-0.60547 1.8672 0.21875 1.3711 0.33203 4.9453-0.22266 2.25-0.21875 2.3008-0.33984 2.2617-0.48438 1.9219-0.93359 1.5391-1.0977 1.4805-1.207 0.76953-1.0469 0.44141-1.043 0.32812-1.3711-0.054688-2.1992 0.60547-1.207 1.5898-1.3203 1.9219-0.21875 2.1211-0.13672 3.2109-0.35547 1.5156-0.007812 1.043-0.3125 1.3594-0.76562 1.3555-0.52344 1.3203-0.035156 1.3594-0.066406 1.1133-0.28125 1.4961-0.51953 1.1484-0.52344 0.97266-0.83594 0.85938-0.62109 0.74609-0.78906 0.40625-1.0352 0.67578-1.4609 0.83203-0.35547" fill="none" stroke="#fff" stroke-linecap="round" stroke-linejoin="round" stroke-miterlimit="10" stroke-width="2"/>
<path d="m114.41 12.102 0.082031 0.039062 1.6055 0.71094 2.293 0.085937 1.5469 0.30078 2.3281 0.054688 1.6523 0.42969 1.0703 0.10547 1.0352-0.22266 2.1797-0.007813 0.83594 0.59375-0.17578 1.0156-0.75391 0.75391-0.62891 0.85938 0.10547 1.5 1.0352 1.9062 0.92188 1.5078 1.6133 1.957 0.75391 0.67188 1.1523 0.73047 1.3398 0.48438 1.3398 1.2031 0.57422 0.92969 0.69141 1.3945 0.49219 1.1406 0.73438 1.2031 0.86719 1.7812 1.1211 1.5938 0.76562 1.1406 0.87109 2.4805 1.0156 1.832 1.1602 0.74609 2.0625 0.20703 1.1328 0.042969 2.2734 0.93359 0.66797 0.78516 1.4141 2.9727 0.80859 1.875 1.0469 1.4648 0.25 1.3516-0.35547 0.94531 0.03125 1.5273 0.21875 1.2578-0.19922 1.8086 1.793 1.1016 1.1523 0.27344 1.6641 0.0625 1.3906 0.26172 1.1016 0.98438 0.33594 1.0977 0.52344 1.0781 1.0234 3.1328 0.44141 1.0664 0.10547 1.4766 0.14453 1.6562-0.070313 1.3516 0.16797 1.1523 1.1914 1.5703 2.3359 1.2344 1.3086-0.15625 1.1523-1.8516 0.56641-0.93359 2.5039 0.125 1.3789-0.25 1.3945 0.92188 0.66016 1.9766 0.49219 1.332 0.1875 2.668-0.09375 1.2695-0.23047 1.3906 0.94141 0.95312 1.2461 0.17969 0.90234-0.82812 1.9805 1.6875 0.54297 1.0664 0.50391 1.9062 0.66797 1.3086 1.4258 1.2266 0.82812 0.78516 0.82422 1.4648 1.1133 1.7188 0.82422 2.7344 1.1211 2.3555 0.73438 0.80469 0.95312 0.69141 0.89062 0.52344 0.84766 0.60938 1.0273 0.69922 0.69922 0.78906 1.0273 0.97266 0.94141 0.87891 1.0391 1.3945 1.2969 1.1406 1.457 0.13672 2.1992-0.88281 1.2852-1.0039 2.7344-2.3359 1.6328-0.29297 1.957 0.26953 1.2812 0.57812 1.9922 1.4258 1.2109 0.79688 0.61719 0.82422 0.24219 2.0117 0.46094 2.5547-0.39844 1.5078 0.11719 1.4062 0.29297 1.0781 0.039062 1.2227-0.30078 0.99609-0.76562 0.83984 0.26172 1.4219 1.457 0.19922-1.2031 1.0664-0.66797 1.793-0.74609 0.78906-0.85938 0.62109-0.97266 0.83594-1.1484 0.52344-1.4961 0.51953-1.1133 0.28125-1.3594 0.066406-1.3203 0.035156-1.3555 0.52344-1.3594 0.76562-1.043 0.3125-1.5156 0.007812-3.2109 0.35547-2.1211 0.13672-1.9219 0.21875-1.5898 1.3203-0.60547 1.207 0.054688 2.1992-0.32812 1.3711-0.44141 1.043-0.76953 1.0469-1.4805 1.207-1.5391 1.0977-1.9219 0.93359-2.2617 0.48438-2.3008 0.33984-2.25 0.21875-4.9453 0.22266-1.3711-0.33203-1.8672-0.21875-1.9219 0.60547-0.80078 0.92969-0.62891 1.4766-0.74609 1.2891-2 1.3906-1.1211 0.53516-1.8008 0.019532-1.4648 0.41016-2.6719-0.03125-1.2461-0.51562-1.0977-0.72266-1.9805-0.60156-1.875-0.12109-0.78516-0.74219-0.60547-0.83594-0.31641-1.2578-0.3125-1.0703-1.2891-1.2148-0.83594-1.0156-0.34766-0.97266-1.1523-1.1523-1.5391-0.53516-1.4219-0.21875-0.97656-0.51172-1.2227-0.47266-0.73438-0.71094 0.019531-1.1016-1.2461-0.44922-1.2227 0.011718-1.8867 0.14453-1.6211-0.55469-0.70312-0.78516 0.30469-1.1719-0.074219-1.5-0.21094-1.1602 0.35547-1.9492 0.71094-1.2891 0.625-1.8672 0.35547-1.6016-0.55469-1.8242-0.76172-0.83203-1.4102-0.98047-0.49219-1.4453 0.52344-1.9336 0.55078-1.2266 0.61328-1.1055 0.80078-1.1367 0.85938-1.2578 1.0117-0.33984 0.73828-1.4414-0.37109-1.4102-1.0742-1.3203-1.4414-1.4453-0.27734-1.1953-0.25391-1.082-1.0625-0.24219-2.293-0.41016-2.2305-1.7109-1.4375-0.89062-1.4023-1.1328-1.2344-0.78906-1.1641-0.03125-1.4727-0.17188-1.0977-0.30859-1.1641-0.61719-0.6875-0.89062-0.82031-1.2656-0.90234-0.61719-1.9844 0.27344-1.2969 0.23438-1.5742 0.039063-2.8008-0.41016-1.1289 0.066406-1.4375 0.17188-2.6289-0.17188-1.0625-1.332-1.0938-1.2305-0.68359-0.95703-0.64844-1.7773-1.1953-1.6406-1.7461-1.4375-0.71484-0.85156-1.1992-2.1562-0.68359-0.75-0.66797-0.98047 0.95703-2.1328 0.38281-1.3438-0.30078-0.95703-1.0664-1.8047-1.4766-0.98438-0.82031-0.92969 0.21875-1.4492-0.21875-1.1211-0.71094-1.7773-0.44922-1.7031-0.019531-1.1562-0.22656-1.3125-0.59375-0.83984-0.21875-1.5898 2.1875-1.2031 0.85938-1.5039 1.2422-0.98438 2.2344-1.7617 1.375-1.2891 0.8125-1.5 0.77344-0.64453 1.0742-0.60156 2.4023-0.81641 2.3203-1.3281 1.2031-0.77344 1.543-0.73047 1.418-1.5898 1.6328-0.38672 2.4883-0.38672 1.418-0.85547v-2.0625l-0.042969-1.1172 0.51172-1.8008 0.12891-1.7188 0.003906-2.3555 0.35938-2.1641 0.54688-1.0312 0.65234-1.7852 0.72266-1.4062 0.53125-1.5547 0.60156-1.5703-0.17188-1.5117-1.2344-1.1328-1.4766-2.0273-0.55078-2.0938 0.24219-1.1367 0.30859-1.5078 0.20703-1.1367 0.03125-1.043z" fill="#ccc" fill-rule="evenodd"/>
<path d="m114.41 12.102 0.082031 0.039062 1.6055 0.71094 2.293 0.085937 1.5469 0.30078 2.3281 0.054688 1.6523 0.42969 1.0703 0.10547 1.0352-0.22266 2.1797-0.007813 0.83594 0.59375-0.17578 1.0156-0.75391 0.75391-0.62891 0.85938 0.10547 1.5 1.0352 1.9062 0.92188 1.5078 1.6133 1.957 0.75391 0.67188 1.1523 0.73047 1.3398 0.48438 1.3398 1.2031 0.57422 0.92969 0.69141 1.3945 0.49219 1.1406 0.73438 1.2031 0.86719 1.7812 1.1211 1.5938 0.76562 1.1406 0.87109 2.4805 1.0156 1.832 1.1602 0.74609 2.0625 0.20703 1.1328 0.042969 2.2734 0.93359 0.66797 0.78516 1.4141 2.9727 0.80859 1.875 1.0469 1.4648 0.25 1.3516-0.35547 0.94531 0.03125 1.5273 0.21875 1.2578-0.19922 1.8086 1.793 1.1016 1.1523 0.27344 1.6641 0.0625 1.3906 0.26172 1.1016 0.98438 0.33594 1.0977 0.52344 1.0781 1.0234 3.1328 0.44141 1.0664 0.10547 1.4766 0.14453 1.6562-0.070313 1.3516 0.16797 1.1523 1.1914 1.5703 2.3359 1.2344 1.3086-0.15625 1.1523-1.8516 0.56641-0.93359 2.5039 0.125 1.3789-0.25 1.3945 0.92188 0.66016 1.9766 0.49219 1.332 0.1875 2.668-0.09375 1.2695-0.23047 1.3906 0.94141 0.95312 1.2461 0.17969 0.90234-0.82812 1.9805 1.6875 0.54297 1.0664 0.50391 1.9062 0.66797 1.3086 1.4258 1.2266 0.82812 0.78516 0.82422 1.4648 1.1133 1.7188 0.82422 2.7344 1.1211 2.3555 0.73438 0.80469 0.95312 0.69141 0.89062 0.52344 0.84766 0.60938 1.0273 0.69922 0.69922 0.78906 1.0273 0.97266 0.94141 0.87891 1.0391 1.3945 1.2969 1.1406 1.457 0.13672 2.1992-0.88281 1.2852-1.0039 2.7344-2.3359 1.6328-0.29297 1.957 0.26953 1.2812 0.57812 1.9922 1.4258 1.2109 0.79688 0.61719 0.82422 0.24219 2.0117 0.46094 2.5547-0.39844 1.5078 0.11719 1.4062 0.29297 1.0781 0.039062 1.2227-0.30078 0.99609-0.76562 0.83984 0.26172 1.4219 1.457 0.19922-1.2031 1.0664-0.66797 1.793-0.74609 0.78906-0.85938 0.62109-0.97266 0.83594-1.1484 0.52344-1.4961 0.51953-1.1133 0.28125-1.3594 0.066406-1.3203 0.035156-1.3555 0.52344-1.3594 0.76562-1.043 0.3125-1.5156 0.007812-3.2109 0.35547-2.1211 0.13672-1.9219 0.21875-1.5898 1.3203-0.60547 1.207 0.054688 2.1992-0.32812 1.3711-0.44141 1.043-0.76953 1.0469-1.4805 1.207-1.5391 1.0977-1.9219 0.93359-2.2617 0.48438-2.3008 0.33984-2.25 0.21875-4.9453 0.22266-1.3711-0.33203-1.8672-0.21875-1.9219 0.60547-0.80078 0.92969-0.62891 1.4766-0.74609 1.2891-2 1.3906-1.1211 0.53516-1.8008 0.019532-1.4648 0.41016-2.6719-0.03125-1.2461-0.51562-1.0977-0.72266-1.9805-0.60156-1.875-0.12109-0.78516-0.74219-0.60547-0.83594-0.31641-1.2578-0.3125-1.0703-1.2891-1.2148-0.83594-1.0156-0.34766-0.97266-1.1523-1.1523-1.5391-0.53516-1.4219-0.21875-0.97656-0.51172-1.2227-0.47266-0.73438-0.71094 0.019531-1.1016-1.2461-0.44922-1.2227 0.011718-1.8867 0.14453-1.6211-0.55469-0.70312-0.78516 0.30469-1.1719-0.074219-1.5-0.21094-1.1602 0.35547-1.9492 0.71094-1.2891 0.625-1.8672 0.35547-1.6016-0.55469-1.8242-0.76172-0.83203-1.4102-0.98047-0.49219-1.4453 0.52344-1.9336 0.55078-1.2266 0.61328-1.1055 0.80078-1.1367 0.85938-1.2578 1.0117-0.33984 0.73828-1.4414-0.37109-1.4102-1.0742-1.3203-1.4414-1.4453-0.27734-1.1953-0.25391-1.082-1.0625-0.24219-2.293-0.41016-2.2305-1.7109-1.4375-0.89062-1.4023-1.1328-1.2344-0.78906-1.1641-0.03125-1.4727-0.17188-1.0977-0.30859-1.1641-0.61719-0.6875-0.89062-0.82031-1.2656-0.90234-0.61719-1.9844 0.27344-1.2969 0.23438-1.5742 0.039063-2.8008-0.41016-1.1289 0.066406-1.4375 0.17188-2.6289-0.17188-1.0625-1.332-1.0938-1.2305-0.68359-0.95703-0.64844-1.7773-1.1953-1.6406-1.7461-1.4375-0.71484-0.85156-1.1992-2.1562-0.68359-0.75-0.66797-0.98047 0.95703-2.1328 0.38281-1.3438-0.30078-0.95703-1.0664-1.8047-1.4766-0.98438-0.82031-0.92969 0.21875-1.4492-0.21875-1.1211-0.71094-1.7773-0.44922-1.7031-0.019531-1.1562-0.22656-1.3125-0.59375-0.83984-0.21875-1.5898 2.1875-1.2031 0.85938-1.5039 1.2422-0.98438 2.2344-1.7617 1.375-1.2891 0.8125-1.5 0.77344-0.64453 1.0742-0.60156 2.4023-0.81641 2.3203-1.3281 1.2031-0.77344 1.543-0.73047 1.418-1.5898 1.6328-0.38672 2.4883-0.38672 1.418-0.85547v-2.0625l-0.042969-1.1172 0.51172-1.8008 0.12891-1.7188 0.003906-2.3555 0.35938-2.1641 0.54688-1.0312 0.65234-1.7852 0.72266-1.4062 0.53125-1.5547 0.60156-1.5703-0.17188-1.5117-1.2344-1.1328-1.4766-2.0273-0.55078-2.0938 0.24219-1.1367 0.30859-1.5078 0.20703-1.1367 0.03125-1.043 0.011719 0.003907" fill="none" stroke="#fff" stroke-linecap="round" stroke-linejoin="round" stroke-miterlimit="10" stroke-width="2"/>
<path d="m140.16 184.44 0.24609 0.30078 0.90234 0.52734 0.80469 1.2969-0.22266 1.332-0.80078 1.2852-1.1445 1.0898-0.33203 2.8594 0.054687 2.8281-0.054687 1.3867-0.51953 3.0508 0.12891 1.168 0.66797 1.1133 1.1094 1.3867 0.88672 0.60938 1.168 0.5 1.543-0.078125 2.7305-0.30859 3.4141-1.4531 1.6719-0.64062 2.1328-0.070312 1.0625 0.10547 1.4805 1.5625 0.36719 1.1367 0.37109 1.7617 0.39844 0.96484 0.65234 1.2812 0.79688 1.1641 1.1641 0.65234 1.1875 0.11328 1.7734 0.26953 1.0469-0.20312 1.707-1.4258 0.97266-0.53516 1.1094-0.10547 1.1328-0.23047 1.2773-0.44922 1.0039-0.17969 1.1445 1.1133 1.5703 0.49219 1.1836 0.75391 0.625 0.79297 1.4062 0.73438 1.2656 0.69141 1.2891 0.69141 1.7812 1.5508 0.69922 1.0977 0.61719 1.1211 0.69141 1.6953 1.3828 0.26172 1.4453-0.19922 0.67969 0.85938-0.050782 2.2539 0.57422 1.4023 0.12891 1.2656-0.23047 1.1641 0.51172 1.0156-0.90234 3.3828-1.4766 0.85938-0.34375 1.1406-0.33594 1.6953-0.37891 1.2617-0.13281 1-0.054688 1.1211 0.51562 1.2031 0.050782 1.082 0.41797 1.3594 1.2383 0.78516 1.2461 0.67188 1.4961 0.1875 1.2266 1.1211 0.16797 1.0586 0.23828 1.3281-0.050782 1.3086-0.67969 1.0469-0.03125 2.7344-0.23047 0.97266 0.050781 1.1641-0.81641 0.91016 0.62891 1.1328-0.14844 2.3438-0.32812 1.9766-0.63672 1.9883-0.12109 1.4805 0.15625 1.1562 0.20312 1.6484 0.14062 1.6562v1.3125l-0.10547 1.4023-0.34375 1.4336 0.54297 1.3945 0.52344 1.9688-0.03125 3.4141 0.55469 1.2031-0.30078 1.1289v1.8047l-0.84766 1.2227 0.015625 1.2578-0.32031-1.0039-0.90234-1.457-1.1094-1.5625-1.625-1.8008-0.84766-0.5625-1.2148-0.23047-1.1719-0.87109-1.3594-0.66016-1.2695-0.89844-1.0469-0.03125-1.0469 0.60547-1.3086 0.69141-1.4883 0.34375-1.4531 1.3125-1.0078 1.3164-2.3555 0.65234-0.96484 0.53125-0.52344 0.99609 0.35547 1.9492-0.14453 1.3086 0.03125 1.1094-0.09375 1.6953-0.82812 1.2266-0.52344 1.1289-0.16797 1.2266-0.21094 1.0781-1.1602 2.0234-0.47266 1.6328-1.6328 1.1953-0.44141 1.9023-1.2656 1.9922-0.03125 1.0156-0.15625 1.1836-0.29297 1.6133-2.3789 1.8633-1.0977 0.89062-1.0703 1.0977-0.79688 1.2383-1.0156 0.91797-1.0352 1.4062-0.92188 2.0625-0.15625 1.0469-0.375 0.96484-2.0039 2.1875-2.293 1.4258-1.2461 0.98438-0.80469 0.82422-0.59766 0.80859-1.1523 0.78516-1.7383 0.92969-1.6016 1.3125-3.0156 1.4414-0.94531 0.72266-0.74219 1.3008-0.95312 1.1094-1.0781 0.74219-2.25 1.4453-0.81641 0.73438-1.3125 0.56641-1.0547 0.11328-1.0469 0.28516-1.1758-0.11719-1.2227-0.64844-2.4922 0.46094-1.1523 0.79688-0.98438 0.40234 0.074219-1.3984 0.83203-1.1406 0.52734-1.0547 0.58984-1.043 1.4922-2.2773 0.78516-1.2266 1.2383-1.668 0.57812-1.4805 0.48047-1.1992 0.53906-1.4922 0.99609-2.4492 1.5156-1.1992 1.4336-1.3164 1.7344-2.3906 1.4961-2.8125 0.71875-2.5703 0.29688-1.1992 0.23828-1.0742 0.60156-1.0781 1.5977-1.0078 1.3516-0.34766 1.2461-0.57422 0.85938-1.3477 0.73438-1.5742 0.83984-2.0859 1.5742-3.7188 0.98047-1.6953 1.4688-2.5781 0.69531-0.87891-1.4492-0.69141-2.5156-0.30859-1.5508-0.59375-1.25-1.043-0.57031-1.3281-0.65625-1.4297-0.34766-1.082-0.44922-1.2695-0.22266-1.2031 0.28516-2.5352-0.039062-1.3711-0.45312-0.89453-0.85547-1.1094-0.49219-1.3047-1.4492-2.3945-0.90234-1.0625-0.75391-0.9375-0.94141-0.85938-1.0234-0.47266-1.7773-0.57031-1.082-1.0234-0.75781-0.96094-0.65234-1.4688-0.49219-0.96094-0.55078-0.94141-0.49219-1.207 0.066406-1.2773-0.015625-1.0156-3.3789-1.918-1.1445-0.58594-1.3711 0.09375-0.39062 1.1211-0.72266 1.0586-1.4961 0.51172-1.2461 0.70312-1.3281 1.0664-0.90234 0.94141-0.52344 0.91406-0.99609 0.78516-0.85938 0.89062-1.3789 1.7148-0.22266 1.582-0.52344 1.1953-0.41797 1.1914-0.91016 1.3516-1.5078 0.64844-1.2461 0.042969-1.0156 0.125-1.4062 0.023437-0.35547 0.99219-0.36719 1.5508-1.4102 0.94141-0.57812 1.2461-0.86719 0.53516-1.082 0.007813-2.1055 0.18359-2.457 0.6875-1.9062 0.22266-2.0352 0.13281h-2.1055l-5.4375-0.73438-2.3008-0.34375-3.8242-0.49219-2.3516-0.53516-2.3477-1.4219-3.9414-4.2305 1.8711-2.9453 1.332-1.6758 2.7969-2.3633 0.6875-1.332 0.6875-0.94531 2.1484-3.2266 0.64453-2.0195 0.51562-1.5039 0.34375-1.2031 0.12891-1.2031 0.64453-1.2031 2.0234-2.0664 1.2891-1.0312 0.64453-1.9766 0.085937-1.0312 0.042969-1.2461v-2.4062l0.089844-3.4219 0.35156-1.6719-0.054687-1.375-0.22266-1.9102-0.46094-1.3906-0.32031-1.7695 0.64062-0.77344 1.207-0.69141 1.3516-0.38672 0.66016-1.4766 0.050781-1.1836 0.83594-0.76562 0.94531-2.0195 0.23828-1.1406 0.93359-0.50391 0.61719-1.5078 0.94141-0.56641 1.1758-0.44922 1.0781-0.48047 0.97266-0.49219 0.78516-0.93359 1.1719-1.0898 0.99609 0.28516 1.4883-0.91406 0.89062-1.1484 1.1523 0.10156 1.0234 0.30469 1.1328-0.61719 2.1367-1.3203 0.53125-0.89844 1.8125-1.2578 1.0586-0.47266 0.91016 0.59766 0.44141-1.1719-0.09375-1.2695 0.03125-1.6445 0.42969-1.2461-0.16016-1.0469-0.79297-0.98438 0.77344-1.6523 2.1055-0.57812 1.832-0.3125 1.2773 0.03125 1.1641-0.1875 1.3594-0.13672 2.1992-0.26172 1.207-0.55469 1.4219-0.51562 0.78516-1.0156 1.1758-0.73047 1.2656-0.23047 0.66016-1.2891 0.46094-1.1406-0.32422-1.1953 0.38672-1.3398 1.0898-1.0586 0.62891-1.1836 0.89844-1.7266 1.5312-0.80859 0.78516-0.74219 1.0859 0.14844 0.88281 0.59375 1.7891 0.49219 1.3711-0.89844 0.87891-0.66016 0.25391-1.5977z" fill="#ccc" fill-rule="evenodd"/>
<path d="m140.16 184.44 0.24609 0.30078 0.90234 0.52734 0.80469 1.2969-0.22266 1.332-0.80078 1.2852-1.1445 1.0898-0.33203 2.8594 0.054687 2.8281-0.054687 1.3867-0.51953 3.0508 0.12891 1.168 0.66797 1.1133 1.1094 1.3867 0.88672 0.60938 1.168 0.5 1.543-0.078125 2.7305-0.30859 3.4141-1.4531 1.6719-0.64062 2.1328-0.070312 1.0625 0.10547 1.4805 1.5625 0.36719 1.1367 0.37109 1.7617 0.39844 0.96484 0.65234 1.2812 0.79688 1.1641 1.1641 0.65234 1.1875 0.11328 1.7734 0.26953 1.0469-0.20312 1.707-1.4258 0.97266-0.53516 1.1094-0.10547 1.1328-0.23047 1.2773-0.44922 1.0039-0.17969 1.1445 1.1133 1.5703 0.49219 1.1836 0.75391 0.625 0.79297 1.4062 0.73438 1.2656 0.69141 1.2891 0.69141 1.7812 1.5508 0.69922 1.0977 0.61719 1.1211 0.69141 1.6953 1.3828 0.26172 1.4453-0.19922 0.67969 0.85938-0.050782 2.2539 0.57422 1.4023 0.12891 1.2656-0.23047 1.1641 0.51172 1.0156-0.90234 3.3828-1.4766 0.85938-0.34375 1.1406-0.33594 1.6953-0.37891 1.2617-0.13281 1-0.054688 1.1211 0.51562 1.2031 0.050782 1.082 0.41797 1.3594 1.2383 0.78516 1.2461 0.67188 1.4961 0.1875 1.2266 1.1211 0.16797 1.0586 0.23828 1.3281-0.050782 1.3086-0.67969 1.0469-0.03125 2.7344-0.23047 0.97266 0.050781 1.1641-0.81641 0.91016 0.62891 1.1328-0.14844 2.3438-0.32812 1.9766-0.63672 1.9883-0.12109 1.4805 0.15625 1.1562 0.20312 1.6484 0.14062 1.6562v1.3125l-0.10547 1.4023-0.34375 1.4336 0.54297 1.3945 0.52344 1.9688-0.03125 3.4141 0.55469 1.2031-0.30078 1.1289v1.8047l-0.84766 1.2227 0.015625 1.2578-0.32031-1.0039-0.90234-1.457-1.1094-1.5625-1.625-1.8008-0.84766-0.5625-1.2148-0.23047-1.1719-0.87109-1.3594-0.66016-1.2695-0.89844-1.0469-0.03125-1.0469 0.60547-1.3086 0.69141-1.4883 0.34375-1.4531 1.3125-1.0078 1.3164-2.3555 0.65234-0.96484 0.53125-0.52344 0.99609 0.35547 1.9492-0.14453 1.3086 0.03125 1.1094-0.09375 1.6953-0.82812 1.2266-0.52344 1.1289-0.16797 1.2266-0.21094 1.0781-1.1602 2.0234-0.47266 1.6328-1.6328 1.1953-0.44141 1.9023-1.2656 1.9922-0.03125 1.0156-0.15625 1.1836-0.29297 1.6133-2.3789 1.8633-1.0977 0.89062-1.0703 1.0977-0.79688 1.2383-1.0156 0.91797-1.0352 1.4062-0.92188 2.0625-0.15625 1.0469-0.375 0.96484-2.0039 2.1875-2.293 1.4258-1.2461 0.98438-0.80469 0.82422-0.59766 0.80859-1.1523 0.78516-1.7383 0.92969-1.6016 1.3125-3.0156 1.4414-0.94531 0.72266-0.74219 1.3008-0.95312 1.1094-1.0781 0.74219-2.25 1.4453-0.81641 0.73438-1.3125 0.56641-1.0547 0.11328-1.0469 0.28516-1.1758-0.11719-1.2227-0.64844-2.4922 0.46094-1.1523 0.79688-0.98438 0.40234 0.074219-1.3984 0.83203-1.1406 0.52734-1.0547 0.58984-1.043 1.4922-2.2773 0.78516-1.2266 1.2383-1.668 0.57812-1.4805 0.48047-1.1992 0.53906-1.4922 0.99609-2.4492 1.5156-1.1992 1.4336-1.3164 1.7344-2.3906 1.4961-2.8125 0.71875-2.5703 0.29688-1.1992 0.23828-1.0742 0.60156-1.0781 1.5977-1.0078 1.3516-0.34766 1.2461-0.57422 0.85938-1.3477 0.73438-1.5742 0.83984-2.0859 1.5742-3.7188 0.98047-1.6953 1.4688-2.5781 0.69531-0.87891-1.4492-0.69141-2.5156-0.30859-1.5508-0.59375-1.25-1.043-0.57031-1.3281-0.65625-1.4297-0.34766-1.082-0.44922-1.2695-0.22266-1.2031 0.28516-2.5352-0.039062-1.3711-0.45312-0.89453-0.85547-1.1094-0.49219-1.3047-1.4492-2.3945-0.90234-1.0625-0.75391-0.9375-0.94141-0.85938-1.0234-0.47266-1.7773-0.57031-1.082-1.0234-0.75781-0.96094-0.65234-1.4688-0.49219-0.96094-0.55078-0.94141-0.49219-1.207 0.066406-1.2773-0.015625-1.0156-3.3789-1.918-1.1445-0.58594-1.3711 0.09375-0.39062 1.1211-0.72266 1.0586-1.4961 0.51172-1.2461 0.70312-1.3281 1.0664-0.90234 0.94141-0.52344 0.91406-0.99609 0.78516-0.85938 0.89062-1.3789 1.7148-0.22266 1.582-0.52344 1.1953-0.41797 1.1914-0.91016 1.3516-1.5078 0.64844-1.2461 0.042969-1.0156 0.125-1.4062 0.023437-0.35547 0.99219-0.36719 1.5508-1.4102 0.94141-0.57812 1.2461-0.86719 0.53516-1.082 0.007813-2.1055 0.18359-2.457 0.6875-1.9062 0.22266-2.0352 0.13281h-2.1055l-5.4375-0.73438-2.3008-0.34375-3.8242-0.49219-2.3516-0.53516-2.3477-1.4219-3.9414-4.2305 1.8711-2.9453 1.332-1.6758 2.7969-2.3633 0.6875-1.332 0.6875-0.94531 2.1484-3.2266 0.64453-2.0195 0.51562-1.5039 0.34375-1.2031 0.12891-1.2031 0.64453-1.2031 2.0234-2.0664 1.2891-1.0312 0.64453-1.9766 0.085937-1.0312 0.042969-1.2461v-2.4062l0.089844-3.4219 0.35156-1.6719-0.054687-1.375-0.22266-1.9102-0.46094-1.3906-0.32031-1.7695 0.64062-0.77344 1.207-0.69141 1.3516-0.38672 0.66016-1.4766 0.050781-1.1836 0.83594-0.76562 0.94531-2.0195 0.23828-1.1406 0.93359-0.50391 0.61719-1.5078 0.94141-0.56641 1.1758-0.44922 1.0781-0.48047 0.97266-0.49219 0.78516-0.93359 1.1719-1.0898 0.99609 0.28516 1.4883-0.91406 0.89062-1.1484 1.1523 0.10156 1.0234 0.30469 1.1328-0.61719 2.1367-1.3203 0.53125-0.89844 1.8125-1.2578 1.0586-0.47266 0.91016 0.59766 0.44141-1.1719-0.09375-1.2695 0.03125-1.6445 0.42969-1.2461-0.16016-1.0469-0.79297-0.98438 0.77344-1.6523 2.1055-0.57812 1.832-0.3125 1.2773 0.03125 1.1641-0.1875 1.3594-0.13672 2.1992-0.26172 1.207-0.55469 1.4219-0.51562 0.78516-1.0156 1.1758-0.73047 1.2656-0.23047 0.66016-1.2891 0.46094-1.1406-0.32422-1.1953 0.38672-1.3398 1.0898-1.0586 0.62891-1.1836 0.89844-1.7266 1.5312-0.80859 0.78516-0.74219 1.0859 0.14844 0.88281 0.59375 1.7891 0.49219 1.3711-0.89844 0.87891-0.66016 0.25391-1.5977 0.38281-0.26953" fill="none" stroke="#fff" stroke-linecap="round" stroke-linejoin="round" stroke-miterlimit="10" stroke-width="2"/>
<path d="m303.32 230.92-0.32422 0.5-0.10547 1.0469 0.46094 1.4453 0.14453 1.2461-1.3398 1.4766-1.0898 1.2578-0.73047 1.4648-0.42188 1.1953-0.13281 1.3203-0.59766 1.3398-1.1523 3.3828 0.66797 1.0039 2.0117 0.61719 0.58594 1.1523-0.019531 1.7383 1.4141 0.46094 1.5078 0.96484 0.83594 1.1328 0.17969 1.0547-0.074219 1.0273 0.0625 1.0352-0.14453 1.3008-0.58594 1.4766-0.51562 3.7266 0.74609 1.0156 0.87891 0.59766 0.91016 2.3984 2 1.5547 0.074219 1.0352 0.76172 1.9297 0.62891 1.3477 0.62891 0.85156 1.5742 0.89844 1.6133 1.3008 2.3359 1.4844 0.80859 0.71875 1.168 0.76172 1.3008 0.62891 1.168 0.85156 0.44922 0.98828 0.22656 2.1562-0.089844 2.7383-0.17969 2.4688v1.3477l0.089844 1.2891v1.1367l0.089844 1.168-1.6172 1.8945-0.13281 1.2422 0.37109 1.7969 0.15625 1.2148-0.26172 1.875 0.73828 1.957 0.44922 1.0859 0.44922 1.5586-0.027344 1.4258-0.39453 0.92578-1.5859 1.6367-1.3906 0.6875-1.1445 0.34375-1.8242 0.71484-0.92578 1.1992-0.63672 0.89844-0.98438 0.91406-1.0469 1.7695-0.97656 1.0469-0.41797 2.168-0.62891 1.2031-0.77344 1.7578-0.27344 1.7734-0.3125 1.2969 0.0625 1.1523 0.35547 1.4961-0.10547 1.4883 0.17969 1.6133-0.54688 2.0625-0.125 1.0977-0.26172 1.0156-0.19922 1.3633-0.57422 2.2617 0.23047 1.2461 0.125 1.2031 0.16797 1.3516 0.76172 0.73438 0.12109 1.3477-0.25391 1.0195 0.77344 1.3906 1.0039 1.2773 0.49219 2.2852-0.49219 1.4141-0.73047 1.4766-0.35547 1.1602-0.52734 1.2148-0.20703 1.1211-0.33594 0.96484-0.90234 1.1094-1.0742 0.37891-0.58984-0.88281 0.011719-1.2852-0.48047-0.95312-0.042969-1.0078-1.0781-1.0898-1.3516-0.53125-1.4453-1.1328-1.2773-0.35547-0.76562-1.0039-1.1914-0.57812-1.3633-0.44922-0.97266-0.46094-1.1758-0.21094-1.6328 0.10547-1.0664-0.38672-0.83984-0.83984-0.48047-0.91016-1.1016-1.5391-0.32422-1.5391-1.6094-1.2773-1.5508-0.47266-1.0391-1.4844-1.2031-0.99609-1.1406-0.3125-1.8867-0.097657-1.2969-0.14453-1.7812-1.5078-1.1406-0.30469-0.74609-0.71094-0.92969-0.61719-1.3203-0.85156-1.8008-0.26953-1.3281 0.074219-1.2773-0.28516-1.4258-0.64844-1.0469-0.125-0.44141-1.207-0.33594-1.5391-0.36328-1.5156 0.007812-2.4102-0.51172-0.91016-0.03125-1.582-0.76562-1.8555-0.62891-0.98438-2.2188-0.79297-1.0898-1.1953-0.81641-0.64844-0.89062-1.3086-0.25-1.1523-0.38672-1.8867-0.30469-1.832 0.125-1.6445-0.35547-1.2656-0.085937-1.1836-0.44922-1.7383 0.44922-1.0039 0.023437-1.2695 0.13672-1.0352-0.26953-0.96875 0.10547-1.0781-0.027343-1.1602-0.13672-1.1562-0.19141-2.0938-0.14062-2.4219 0.5625-1.6445 0.55469-1.0664 0.74219-1.7578 0.83203-2.1289 1.5273-2.2227 2.1328-4.5859 0.36719-1.7109-0.55469-3.1953-0.27734-1.2031-0.13672-1.25-0.69531-1.3867-0.92578-1.2969-0.1875-1.668 0.51172-1.3398 1.1562-1.3438 1.1562-0.74219 1.4805-0.87891 2.4023-0.99609 2.3203-1.2266 1.1133-0.73828 1.1094-1.0195 0.80078-0.99219 1.6797-1.668 1.2539-1.3398 0.5-1.9648 1.0898-1.2812 0.5625-0.85938 0.14453-1.1836 0.29688-1.5156v-1.9375l0.74219-1.875 0.74609-1.0859 0.36328-1.4766-0.050781-1.3203 0.10547-1.8242 0.79688-1.7695 1.3164-0.36719 0.62109-1.6016 0.51172-1.1914 0.66016-1.3516 1.8945 0.11328 1.2891 0.39844 1.5391 0.074219 1.3281 0.13672 1.1328-0.50391 1.2461-0.80469 1.0352-0.41016 1.5508-1.0664 0.91016-0.51562 1.0586-0.14453 1.2695-0.19141 1.5781 0.13672 1.4883-0.75391 1.1016-1.5898z" fill="#ccc" fill-rule="evenodd"/>
<path d="m303.32 230.92-0.32422 0.5-0.10547 1.0469 0.46094 1.4453 0.14453 1.2461-1.3398 1.4766-1.0898 1.2578-0.73047 1.4648-0.42188 1.1953-0.13281 1.3203-0.59766 1.3398-1.1523 3.3828 0.66797 1.0039 2.0117 0.61719 0.58594 1.1523-0.019531 1.7383 1.4141 0.46094 1.5078 0.96484 0.83594 1.1328 0.17969 1.0547-0.074219 1.0273 0.0625 1.0352-0.14453 1.3008-0.58594 1.4766-0.51562 3.7266 0.74609 1.0156 0.87891 0.59766 0.91016 2.3984 2 1.5547 0.074219 1.0352 0.76172 1.9297 0.62891 1.3477 0.62891 0.85156 1.5742 0.89844 1.6133 1.3008 2.3359 1.4844 0.80859 0.71875 1.168 0.76172 1.3008 0.62891 1.168 0.85156 0.44922 0.98828 0.22656 2.1562-0.089844 2.7383-0.17969 2.4688v1.3477l0.089844 1.2891v1.1367l0.089844 1.168-1.6172 1.8945-0.13281 1.2422 0.37109 1.7969 0.15625 1.2148-0.26172 1.875 0.73828 1.957 0.44922 1.0859 0.44922 1.5586-0.027344 1.4258-0.39453 0.92578-1.5859 1.6367-1.3906 0.6875-1.1445 0.34375-1.8242 0.71484-0.92578 1.1992-0.63672 0.89844-0.98438 0.91406-1.0469 1.7695-0.97656 1.0469-0.41797 2.168-0.62891 1.2031-0.77344 1.7578-0.27344 1.7734-0.3125 1.2969 0.0625 1.1523 0.35547 1.4961-0.10547 1.4883 0.17969 1.6133-0.54688 2.0625-0.125 1.0977-0.26172 1.0156-0.19922 1.3633-0.57422 2.2617 0.23047 1.2461 0.125 1.2031 0.16797 1.3516 0.76172 0.73438 0.12109 1.3477-0.25391 1.0195 0.77344 1.3906 1.0039 1.2773 0.49219 2.2852-0.49219 1.4141-0.73047 1.4766-0.35547 1.1602-0.52734 1.2148-0.20703 1.1211-0.33594 0.96484-0.90234 1.1094-1.0742 0.37891-0.58984-0.88281 0.011719-1.2852-0.48047-0.95312-0.042969-1.0078-1.0781-1.0898-1.3516-0.53125-1.4453-1.1328-1.2773-0.35547-0.76562-1.0039-1.1914-0.57812-1.3633-0.44922-0.97266-0.46094-1.1758-0.21094-1.6328 0.10547-1.0664-0.38672-0.83984-0.83984-0.48047-0.91016-1.1016-1.5391-0.32422-1.5391-1.6094-1.2773-1.5508-0.47266-1.0391-1.4844-1.2031-0.99609-1.1406-0.3125-1.8867-0.097657-1.2969-0.14453-1.7812-1.5078-1.1406-0.30469-0.74609-0.71094-0.92969-0.61719-1.3203-0.85156-1.8008-0.26953-1.3281 0.074219-1.2773-0.28516-1.4258-0.64844-1.0469-0.125-0.44141-1.207-0.33594-1.5391-0.36328-1.5156 0.007812-2.4102-0.51172-0.91016-0.03125-1.582-0.76562-1.8555-0.62891-0.98438-2.2188-0.79297-1.0898-1.1953-0.81641-0.64844-0.89062-1.3086-0.25-1.1523-0.38672-1.8867-0.30469-1.832 0.125-1.6445-0.35547-1.2656-0.085937-1.1836-0.44922-1.7383 0.44922-1.0039 0.023437-1.2695 0.13672-1.0352-0.26953-0.96875 0.10547-1.0781-0.027343-1.1602-0.13672-1.1562-0.19141-2.0938-0.14062-2.4219 0.5625-1.6445 0.55469-1.0664 0.74219-1.7578 0.83203-2.1289 1.5273-2.2227 2.1328-4.5859 0.36719-1.7109-0.55469-3.1953-0.27734-1.2031-0.13672-1.25-0.69531-1.3867-0.92578-1.2969-0.1875-1.668 0.51172-1.3398 1.1562-1.3438 1.1562-0.74219 1.4805-0.87891 2.4023-0.99609 2.3203-1.2266 1.1133-0.73828 1.1094-1.0195 0.80078-0.99219 1.6797-1.668 1.2539-1.3398 0.5-1.9648 1.0898-1.2812 0.5625-0.85938 0.14453-1.1836 0.29688-1.5156v-1.9375l0.74219-1.875 0.74609-1.0859 0.36328-1.4766-0.050781-1.3203 0.10547-1.8242 0.79688-1.7695 1.3164-0.36719 0.62109-1.6016 0.51172-1.1914 0.66016-1.3516 1.8945 0.11328 1.2891 0.39844 1.5391 0.074219 1.3281 0.13672 1.1328-0.50391 1.2461-0.80469 1.0352-0.41016 1.5508-1.0664 0.91016-0.51562 1.0586-0.14453 1.2695-0.19141 1.5781 0.13672 1.4883-0.75391 1.1016-1.5898 1.5703-0.61719" fill="none" stroke="#fff" stroke-linecap="round" stroke-linejoin="round" stroke-miterlimit="10" stroke-width="2"/>
<path d="m219.37 175.18 0.98828 0.76562 1.4961 3.25 1.207 1.6094 1.8633 1.7891 2.3711 3.3945 1.6094 3.3984 0.36328 1.4219 0.54688 2.5586 1.5703 3.6875 0.94922 1.207 1.6445 1.0938 0.98828 0.69531 1.8242 1.6406 1.2422 1.6445 2.4062 1.668 1.6562 1.0742 1.4062 0.16797 1.9883-0.33203 1.5703 0.082032 1.4102 2.1523 0.91016 2.2344 0.66016 1.7383 0.48828 1.0312 1.4609 0.48047 1.4414-0.71875 0.93359-1.2734 0.29688-1.0156 0.16797-2.375 1.4844-3.2617 0.49219-2.1328 0.49219-0.98438 0.63672-0.94141 0.52344-1.3945 1.3633-2.8398 0.27344-1.2461-0.19141-1.8398-0.050781-1.9492-0.19922-1.1094-0.72266-3.2148 0.57422-1.707 0.87109-0.79688 2.4922-1.3516 0.95312-0.86719 0.51172-1.1211 0.65234-1.1094 0.77344-1.0391 1.0469-1.5703 0.87109-0.52344 0.71094-1.1523 1.832 0.53516 1.8867 2.1758 0.86719 0.95312 1.3945 0.85938 0.85938 0.97656-0.035156 1.0664-0.32422 1.0352 0.011719 1.1953 1.9062 1.4336 2.8281-0.019531 1.0781 0.29297 1.0273 0.85938 1.3086 1.4336 0.92969 1.5391 0.46094 1.3086 0.92188 0.62109 1.1641 0.54297 0.99609 0.77344 1.8711 1.0469 0.97656 0.27344 2.8672-0.36719 1.793 0.75391 1.6523 1.2773 2.3984 0.76562 0.85938 0.94141 0.52344 1.4258 1.1719 0.47266 1.5195 0.039063 1.9883-0.19922 1.6445 0.0625 2.3867 0.72266 1.5195 0.71484-0.1875 0.99219-0.83594 0.68359-0.70312 0.99219-0.83594 0.78516 0.36328 1.1758 1.1836 1.2969 0.62891 1.5703-0.15625 2.7148 0.23047 1.8984-0.13672 1.5547-0.56641 1.4141-0.83594 0.89062-0.79688 0.67969 1.1328 0.77734 1.6445 0.46875 1.0664 0.17578-0.70312 1.5547-0.21875 1.7383-1.2891 1.4648-1.2656 0.78516-0.58984 1.2539-0.30078 1.0625-2.1055 1.1094-1.0352 1.6055-0.94141 0.63672-1.1328 0.3125-1.6445 1.9258-0.97266 0.64062-1.207 0.125-1.9023-0.0625-1.3125 0.25-0.91016 0.51562-1.5508 1.0664-1.0352 0.41016-1.2461 0.80469-1.1328 0.50391-1.3281-0.13672-1.5391-0.074219-1.2891-0.39844-1.5195-0.23047-0.79297 0.71484-0.75391 1.9453-0.37891 1.3203-1.0977 0.36719-0.78516 1.2461-0.62891 1.8516-0.10547 1.4141 0.1875 1.332-0.73828 1.3242-0.78906 1.8047-0.30469 2.5977-0.24219 1.0781-0.050781 1.0352-0.71094 1.4453-1.0898 1.2812-0.5 1.9648-1.2539 1.3398-1.4609 1.1328-1.0195 1.5273-1.1094 1.0195-1.1133 0.73828-1.6211 0.74219-3.1016 1.4805-1.4805 0.87891-1.1562 0.74219-1.1562 1.3438-0.51172 1.3398v1.0664l0.64844 1.2969 1.1602 1.9883 0.13672 1.25 0.27734 1.2031 0.51172 2.4062-0.32422 2.5-2.1328 4.5859-1.5273 2.2227-0.69531 1.7773-0.87891 2.1094-0.55469 1.0664-0.41406 0.96875 0.046875 2.3281-0.19531 2.0391 0.46875 1.9805 0.027343 1.1602-0.10547 1.0781 0.26953 0.96875-0.13672 1.0352-0.023437 1.2695-0.44922 1.0039 0.25 1.1914 0.19922 1.1523 0.37891 1.457-0.0625 2.0312 0.30469 1.832 0.007813 1.0391 0.62891 2 0.44141 0.95312 0.89844 0.55469 0.68359 1.1094 2.1875 0.95312 1.2891 1.0156 1.0234 1.2969-0.19922 2.0547 0.49219 1.0156-0.007812 2.0742 0.17578 1.3086 0.45312 1.8828 0.30078 1.3203-1.6133 0.29297-1.4648-0.40625-2.2422-1.2773-2.1992 0.0625-1.0977-0.25391-1.3828-0.69141-1.1211-0.81641-0.77344-0.69922-1.9609-0.69141-1.4336-0.48438-1.2148 0.14844-0.76562 1.707 0.11719 1.1328-0.1875 1.9766 0.19922 1.625-0.28516 1.2227-0.75391 0.89062-0.63672 0.87109-1.0898 0.38672-1.918-0.77344-1.6133 0.039063-0.78516 0.68359-0.16797 1.9258-0.60938 1.3672-0.78125 1.5312-0.93359 0.96484-1.5898 0.95312-0.042969 1.5938-0.48047 0.98438-0.79688 0.78516-1.5898 0.59375-1.3008 1.0391-1.2031 0.074219-2.5547-2.7344-0.90234-2.1992-0.50391-1.2266 0.10547-1.2969 0.49219-0.91016 0.28516-1.8984-0.24219-1.1836-0.59766-0.94141-0.61719-1.1523-0.49219-1.3398-0.44922-1.832-0.76562-1.4766-1.4336-0.83984-1.625-0.61719-1.832-0.007812-1.2891-0.39844-1.0234-0.79688-1.1328-0.30469-2.0195 0.37891-1.4375 0.15625-1.1836 0.11328-0.61719-1.0469-1.3906-0.87891-0.90234-1.2344-0.24219-2.0859-0.42578-1.0391-1.1523-0.63672-1.0898-0.92188-0.76562-1.3789-0.95312-2.2852-0.80469-0.74219-1.1328 0.074219-1.0273-1.1133-0.1875-1.2031 0.011719-1.3594-0.34766-1.3203 0.69141-1.1523-0.17578-1.6133-0.57812-1.0898-0.082032-1.832 0.019532-1.6758 0.49219-1.0664-0.57422-0.88281-1.1094-0.72266-1.5508-0.81641-0.91016-0.80469-0.56641-1.1523-0.29297-1.1094-1.0977-1.0898-1.0508-1.4883-0.4375-1.2227-0.60938-0.90234-1.7812-0.86719-0.61719-1.0469-0.050781-1.4688-0.59766-1.5508-0.37891-1.4844 0.042969-1.4062-0.23047-1.5156-0.22266-1.0938 0.86328-2.0156-0.16016-1.0508 0.39062-1.3789-0.10547-1.1328-0.34766-3.6406-0.48047-1.3867-0.49219-1.6523 0.13672-1.3945 0.21875-2.1133v-1.3125l-0.13281-1.2773-0.023438-1.1836-0.14453-1.1016 0.035156-1.4492 0.12109-2.0977 0.75391-2.0273 0.125-3.1055-0.59766-0.87891 0.53516-0.92188 0.23047-1.1914 0.19922-1.1953 0.027344-2.3828 0.68359-1.3984 0.050782-1.3086-0.23828-1.3281-0.16797-1.0586-1.2266-1.1211-1.4961-0.1875-1.2461-0.67188-1.2383-0.78516-0.41797-1.3594-0.050782-1.082-0.51562-1.2031 0.054688-1.1211 0.13281-1 0.37891-1.2617 0.13672-1.0039 0.15625-1.4023 1.4453-0.98438 1.3945-3.0391-0.47266-1.3516 0.11719-1.4766-0.12891-1.2656-0.57422-1.4023 0.042969-1.6992-0.24219-1.2344 1.4961-0.39062 1.332-0.35547 1-0.30078 1.4336-0.23047 2.0352-0.10156 1-0.066407 1.1328 0.03125 1.0664 0.13672 1.1641-0.10156 1.168-0.46484 3.0312 0.23047 1.0352 0.36719 1.3984 0.23438 1.6016-0.66797 1.4336-2.5977 0.69922-0.93359 2.6328-0.66797 1.6641 0.13281 2.0352 0.33594 1.2656 0.46484 1.168 0.46875 2.9648-0.53125 1.9727-0.51172 0.51172-1.1328-0.58203-1.5703 0.61719-2.4102 0.87891-2.1562 0.29297-3.9062 0.17969-3.543-0.36328-2.8477-0.29297-1.6055-0.29297-1.3516-0.98438-1.4609-0.93359-1.3711-0.41797-0.96875-2.3008-3.0312-0.58594-1.0586-0.25391-1.6445-0.40234-2.3359-0.51172-2.5547-0.69141-2.3398 0.10938-1.2773z" fill="#ccc" fill-rule="evenodd"/>
<path d="m219.37 175.18 0.98828 0.76562 1.4961 3.25 1.207 1.6094 1.8633 1.7891 2.3711 3.3945 1.6094 3.3984 0.36328 1.4219 0.54688 2.5586 1.5703 3.6875 0.94922 1.207 1.6445 1.0938 0.98828 0.69531 1.8242 1.6406 1.2422 1.6445 2.4062 1.668 1.6562 1.0742 1.4062 0.16797 1.9883-0.33203 1.5703 0.082032 1.4102 2.1523 0.91016 2.2344 0.66016 1.7383 0.48828 1.0312 1.4609 0.48047 1.4414-0.71875 0.93359-1.2734 0.29688-1.0156 0.16797-2.375 1.4844-3.2617 0.49219-2.1328 0.49219-0.98438 0.63672-0.94141 0.52344-1.3945 1.3633-2.8398 0.27344-1.2461-0.19141-1.8398-0.050781-1.9492-0.19922-1.1094-0.72266-3.2148 0.57422-1.707 0.87109-0.79688 2.4922-1.3516 0.95312-0.86719 0.51172-1.1211 0.65234-1.1094 0.77344-1.0391 1.0469-1.5703 0.87109-0.52344 0.71094-1.1523 1.832 0.53516 1.8867 2.1758 0.86719 0.95312 1.3945 0.85938 0.85938 0.97656-0.035156 1.0664-0.32422 1.0352 0.011719 1.1953 1.9062 1.4336 2.8281-0.019531 1.0781 0.29297 1.0273 0.85938 1.3086 1.4336 0.92969 1.5391 0.46094 1.3086 0.92188 0.62109 1.1641 0.54297 0.99609 0.77344 1.8711 1.0469 0.97656 0.27344 2.8672-0.36719 1.793 0.75391 1.6523 1.2773 2.3984 0.76562 0.85938 0.94141 0.52344 1.4258 1.1719 0.47266 1.5195 0.039063 1.9883-0.19922 1.6445 0.0625 2.3867 0.72266 1.5195 0.71484-0.1875 0.99219-0.83594 0.68359-0.70312 0.99219-0.83594 0.78516 0.36328 1.1758 1.1836 1.2969 0.62891 1.5703-0.15625 2.7148 0.23047 1.8984-0.13672 1.5547-0.56641 1.4141-0.83594 0.89062-0.79688 0.67969 1.1328 0.77734 1.6445 0.46875 1.0664 0.17578-0.70312 1.5547-0.21875 1.7383-1.2891 1.4648-1.2656 0.78516-0.58984 1.2539-0.30078 1.0625-2.1055 1.1094-1.0352 1.6055-0.94141 0.63672-1.1328 0.3125-1.6445 1.9258-0.97266 0.64062-1.207 0.125-1.9023-0.0625-1.3125 0.25-0.91016 0.51562-1.5508 1.0664-1.0352 0.41016-1.2461 0.80469-1.1328 0.50391-1.3281-0.13672-1.5391-0.074219-1.2891-0.39844-1.5195-0.23047-0.79297 0.71484-0.75391 1.9453-0.37891 1.3203-1.0977 0.36719-0.78516 1.2461-0.62891 1.8516-0.10547 1.4141 0.1875 1.332-0.73828 1.3242-0.78906 1.8047-0.30469 2.5977-0.24219 1.0781-0.050781 1.0352-0.71094 1.4453-1.0898 1.2812-0.5 1.9648-1.2539 1.3398-1.4609 1.1328-1.0195 1.5273-1.1094 1.0195-1.1133 0.73828-1.6211 0.74219-3.1016 1.4805-1.4805 0.87891-1.1562 0.74219-1.1562 1.3438-0.51172 1.3398v1.0664l0.64844 1.2969 1.1602 1.9883 0.13672 1.25 0.27734 1.2031 0.51172 2.4062-0.32422 2.5-2.1328 4.5859-1.5273 2.2227-0.69531 1.7773-0.87891 2.1094-0.55469 1.0664-0.41406 0.96875 0.046875 2.3281-0.19531 2.0391 0.46875 1.9805 0.027343 1.1602-0.10547 1.0781 0.26953 0.96875-0.13672 1.0352-0.023437 1.2695-0.44922 1.0039 0.25 1.1914 0.19922 1.1523 0.37891 1.457-0.0625 2.0312 0.30469 1.832 0.007813 1.0391 0.62891 2 0.44141 0.95312 0.89844 0.55469 0.68359 1.1094 2.1875 0.95312 1.2891 1.0156 1.0234 1.2969-0.19922 2.0547 0.49219 1.0156-0.007812 2.0742 0.17578 1.3086 0.45312 1.8828 0.30078 1.3203-1.6133 0.29297-1.4648-0.40625-2.2422-1.2773-2.1992 0.0625-1.0977-0.25391-1.3828-0.69141-1.1211-0.81641-0.77344-0.69922-1.9609-0.69141-1.4336-0.48438-1.2148 0.14844-0.76562 1.707 0.11719 1.1328-0.1875 1.9766 0.19922 1.625-0.28516 1.2227-0.75391 0.89062-0.63672 0.87109-1.0898 0.38672-1.918-0.77344-1.6133 0.039063-0.78516 0.68359-0.16797 1.9258-0.60938 1.3672-0.78125 1.5312-0.93359 0.96484-1.5898 0.95312-0.042969 1.5938-0.48047 0.98438-0.79688 0.78516-1.5898 0.59375-1.3008 1.0391-1.2031 0.074219-2.5547-2.7344-0.90234-2.1992-0.50391-1.2266 0.10547-1.2969 0.49219-0.91016 0.28516-1.8984-0.24219-1.1836-0.59766-0.94141-0.61719-1.1523-0.49219-1.3398-0.44922-1.832-0.76562-1.4766-1.4336-0.83984-1.625-0.61719-1.832-0.007812-1.2891-0.39844-1.0234-0.79688-1.1328-0.30469-2.0195 0.37891-1.4375 0.15625-1.1836 0.11328-0.61719-1.0469-1.3906-0.87891-0.90234-1.2344-0.24219-2.0859-0.42578-1.0391-1.1523-0.63672-1.0898-0.92188-0.76562-1.3789-0.95312-2.2852-0.80469-0.74219-1.1328 0.074219-1.0273-1.1133-0.1875-1.2031 0.011719-1.3594-0.34766-1.3203 0.69141-1.1523-0.17578-1.6133-0.57812-1.0898-0.082032-1.832 0.019532-1.6758 0.49219-1.0664-0.57422-0.88281-1.1094-0.72266-1.5508-0.81641-0.91016-0.80469-0.56641-1.1523-0.29297-1.1094-1.0977-1.0898-1.0508-1.4883-0.4375-1.2227-0.60938-0.90234-1.7812-0.86719-0.61719-1.0469-0.050781-1.4688-0.59766-1.5508-0.37891-1.4844 0.042969-1.4062-0.23047-1.5156-0.22266-1.0938 0.86328-2.0156-0.16016-1.0508 0.39062-1.3789-0.10547-1.1328-0.34766-3.6406-0.48047-1.3867-0.49219-1.6523 0.13672-1.3945 0.21875-2.1133v-1.3125l-0.13281-1.2773-0.023438-1.1836-0.14453-1.1016 0.035156-1.4492 0.12109-2.0977 0.75391-2.0273 0.125-3.1055-0.59766-0.87891 0.53516-0.92188 0.23047-1.1914 0.19922-1.1953 0.027344-2.3828 0.68359-1.3984 0.050782-1.3086-0.23828-1.3281-0.16797-1.0586-1.2266-1.1211-1.4961-0.1875-1.2461-0.67188-1.2383-0.78516-0.41797-1.3594-0.050782-1.082-0.51562-1.2031 0.054688-1.1211 0.13281-1 0.37891-1.2617 0.13672-1.0039 0.15625-1.4023 1.4453-0.98438 1.3945-3.0391-0.47266-1.3516 0.11719-1.4766-0.12891-1.2656-0.57422-1.4023 0.042969-1.6992-0.24219-1.2344 1.4961-0.39062 1.332-0.35547 1-0.30078 1.4336-0.23047 2.0352-0.10156 1-0.066407 1.1328 0.03125 1.0664 0.13672 1.1641-0.10156 1.168-0.46484 3.0312 0.23047 1.0352 0.36719 1.3984 0.23438 1.6016-0.66797 1.4336-2.5977 0.69922-0.93359 2.6328-0.66797 1.6641 0.13281 2.0352 0.33594 1.2656 0.46484 1.168 0.46875 2.9648-0.53125 1.9727-0.51172 0.51172-1.1328-0.58203-1.5703 0.61719-2.4102 0.87891-2.1562 0.29297-3.9062 0.17969-3.543-0.36328-2.8477-0.29297-1.6055-0.29297-1.3516-0.98438-1.4609-0.93359-1.3711-0.41797-0.96875-2.3008-3.0312-0.58594-1.0586-0.25391-1.6445-0.40234-2.3359-0.51172-2.5547-0.69141-2.3398 0.10938-1.2773 2.0781-0.21875" fill="none" stroke="#fff" stroke-linecap="round" stroke-linejoin="round" stroke-miterlimit="10" stroke-width="2"/>
<path d="m371.45 231.47 0.625 0.09375 1.7812 0.59766 1.0898 0.51562 1.0898 0.51953 1.0352 0.38672 2.5664 0.87109 1.1641 0.49219 2.0312 0.51172 2.543 0.84766 1.3086 0.31641 1.9766-0.058594 1.8281-0.73828 1.0469-0.21094 1.1719-0.039063 1.75-0.054687 1.6758 0.59766 2.2617 2.0195 1.5586 1.9297 1.0469 1.5898 1.0391 0.74609 0.98438 0.51172 0.94141 0.36719 1.6328-0.39844 1.3633 0.32422 1.1914 0.84766 1.7031 0.76953 1.5352-0.20312 1.2227-0.83984 1.1211-1.2539 0.91016-0.84766 0.92188-1.3203 1.2891-0.67969 1.1211-1.1758 0.98438 0.62891 0.83594 1.1328 1.5938 0.54297 2.3125-0.25 1.375-0.125 0.64844 0.84766-0.94531 0.75391-0.33203 1.0156 0.15625 3.4766 0.55469 0.96094 1.4258 0.49219 1.0977-0.125 0.83984-0.76172 1.0352-1.1953 0.99609-0.16797 1.1719 0.24219 1.0781 0.53125 1.6641 0.79688 1.1094 0.10547 1.668 0.69141 1.2148 0.1875 0.82812 0.80859 0.125 1.6836 0.23828 1.0586 0.023437 1.3086 0.62891 0.92188 2.3555 1.7578 1.8438 1.9062 0.625 0.91406 1.5938 2.9297 0.90234 1.1523 2.6992 1.2148 1.2031 1.1016 0.47266 1.0352 0.59766 0.92188 1.2266 0.82812 1.1289 0.5 2.1172-0.09375 1.2852-0.66016 1.1328-0.3125 1.4766-0.15625 1.5078 0.13672 1.4648-0.023438 1.1445-0.21875 1.2227-0.23047 1.3633-0.050782 1.0781 0.019532 1.3281 0.30469 1.0078 0.53125 0.92188 0.62891 0.61719 0.87891 1.1523 0.64062 1.418 0.65625 1.5352 0.43359 1.0117 0.011719 1.168-0.4375 2.6719-1.2852 1.5898-0.47266 1.9766-0.35156 1.5703-0.66016 2.0625-1.1562 1.1953-0.67578 1.2461-0.39844 1.707 0.21094 1.4453 0.60547-1.6719 0.51562-2.7305 1.5234-1.2383 1.207-0.89844 1.5469-0.58984 1.9531 0.23828 2.0508-0.46094 1.9375-0.15625 1.0273-0.21094 1.1602-0.54297 0.93359-0.62891 1.625-0.66016 0.88672-0.47266 2.5078-0.066406 1.2695 0.35156 1.875 0.57422 1.543 0.40234 0.99609-0.11719 1.3281 0.49609 2.9531 1.1914 2.1016 0.92578 1.2383 1.1172 1.9023 0.60156 0.9375 0.21875 1.1055-0.14453 1.3242 0.054687 1.3555 0.44922 1.0156 1.457 2.082 0.82031 1.6875 0.82422 1.6914 0.72266 1.1523 0.87891 1.3008 0.52344 1.3086 0.94141 1.1836 0.54297 1.1836 0.16016 1.6953 0.95312 1.5156 0.69141 1.0391-0.12891 1.6016-0.41797 0.92188-1.1836 1.5-1.1914 0.59766-1.0391 1.6406-1.6094 1.2773-1.3711 1.2578-0.29688 0.98828-0.62109 0.93359-0.86328 1.625-2.1445 1.0703-1.332 0.83203-1.625 1.0352-1.4883 1.1758-1.1562 1.1602-0.84766 2.1094-0.66016 2.1797-0.66406 0.82031-1.1758 0.10547-1.1836-0.19141-2.375 0.96484-1.3633 0.24219-1.6211 0.03125-1.4258 0.46875-1.2461 0.89062-0.87891 0.51562-1.9062 0.88672-1.3281 0.28516-2.2109 0.95312-0.99609 0.73047-0.96094 1.3945-0.17969 1.0156-0.042968 1.5078-0.36719 1.0469-0.60547 0.91016-1.2031 1.0273-1.6055 1.1523-3.2227 1.5195-0.94531 0.38672-1.6523 1.4141-0.92188 1.5195-1.3203 1.5273-1.7695 0.41797-0.95312 0.37891-0.96484 0.89062-1.8008 2.1055-1.2656 1.4336-0.91016 1.8516-0.09375 1.0586-0.57812 1.3008-1.0781 0.44922-1.0039 0.27344-1.2695 0.21875-0.97266-0.25391-3.0156 0.80859-1.0469 0.1875-1.457 0.37891-2.7539 1.2148-1.2891 0.21875-1.0352-0.50391-0.92188-0.86719-0.98438-0.62891-2 0.85938-0.76562 1.3711-1.4336 1.3281-0.97266 0.47266-1.1445 0.66016-2.082 0.91016-0.94922 0.33984-1.2383 0.44531-1.4258 0.14844-1.75 0.52344-1.3828 0.21875-1.0156 0.019531-1.3203-0.25-1.2852-0.46094-1.1836 0.011719-1.6562 0.55469-2.25 1.7812-1.918 1.6445-1.8633 0.73047-2.2305 0.48438-2.3984 0.17578-1.875 0.35547-1.0977 0.023438-1.7812 0.66016-1.4883 0.97266-1.1914 1.0469-1.5039 0.29688-1.4414-0.19141-1.2344 0.074219-1.2344 1.2344-2.2539 2.1484-1.6523 1.0898-1.293 0.89453-0.70703 0.87109-0.48438 2.1367-0.59766 2.0625-0.60547 0.85156-0.94141 0.97266-1.1523 0.38672-0.99609-0.16797-0.84766-0.58594-1.2148 0.050781-0.75391 1.0273-0.039063 1.0391-1.2422-1.5664-0.43359-1.1016-1.043-1.5586-0.51953-1.2773 0.23828-1.5117 0.28125-1.4648-0.09375-1.75-0.56641-1.5625 0.14062-1.1797 0.61719-1.3242 0.82031-0.67188 1.0156-0.41797 0.95703-1.5586 0.71875-0.98438 1.2266-1.8555 0.73828-1.543 0.46484-1.3477-0.046875-1.9492-0.55859-1.6758-0.73438-1.2344-0.51953-1.1836-0.74609-1.7227 0.37109-1.4883 0.60547-1.3008 0.14062-1.0703-0.97656-1.8555-0.1875-1.1172-0.37109-2.6016 0.23438-1.6758 0.18359-1.0664 0.51172-1.2578 0.65234-1.0664 0.51172-1.2578 0.089844-1.1133-0.18359-1.0234-0.32422-1.5781 0.085937-1.0664 0.32422-2.8398 0.035156-1.6875-0.14453-1.3672-0.17969-1.5469-0.46484-1.043-0.57812-0.96875-0.070313-1.6914 0.89844-1.6172 0.43359-1.0781-0.43359-1.3203-0.070313-1.1875 0.21484-1.3672 0.035156-1.1484 0.35938-1.0078 0.32422-1.6523 0.75391-1.0078 1.6211-1.1523 0.75391-2.0117 0.21484-2.1211-0.070313-3.0195-0.14453-2.4102-0.17969-1.3672-0.75781-1.0781-0.78906-2.0117-0.17969-3.6328-0.14453-1.0781-0.25-1.2578-0.79297-0.86328-1.1875-1.2969-1.1836-1.5078-1.1172-2.4102-0.5-1.8711-0.39453-0.98047-0.74219-1.1836-1.0156-0.36719-1.9492 0.23047-2.7344-1.2344-0.96094-0.89062-1.9688-3.2695-0.074219-1.1289-0.26172-1.1016 0.16406-0.99219 0.52734-1.918 0.59766-2.5117-0.19922-1.5-0.48438-1.4961-0.91016-3.8555 0.019531-1.9258 0.45312-1.6133-0.16797-1.6328 0.050782-3.3203 0.36719-1.9141 0.050781-1.6367-0.75391-2.8164-0.69141-1.4141 0.33594-2.2305 0.28516-1.5586 1.0977-1.3633 0.41797-1.1094 0.73438-1.0664 0.30469-2.3477 0.74219-2.125 0.1875-1.3711-0.36328-1.3945v-2.3047l-0.62891-1.9258v-2.293l-0.22266-1.2695-0.86719-2.5742-0.56641-1.1094-1.3711-1.2266-0.32422-1.2461 1.0898-0.83594 1.1836 0.25 1.2461 0.81641 1.0664-0.13672 1.2969-0.81641 2.1367-0.32422 1.2383-0.46094 1.0977-0.77344 1.1836-1.3398 1.8633-0.31641 1.2148 0.074218 2.4531-0.14844z" fill="#ccc" fill-rule="evenodd"/>
<path d="m371.45 231.47 0.625 0.09375 1.7812 0.59766 1.0898 0.51562 1.0898 0.51953 1.0352 0.38672 2.5664 0.87109 1.1641 0.49219 2.0312 0.51172 2.543 0.84766 1.3086 0.31641 1.9766-0.058594 1.8281-0.73828 1.0469-0.21094 1.1719-0.039063 1.75-0.054687 1.6758 0.59766 2.2617 2.0195 1.5586 1.9297 1.0469 1.5898 1.0391 0.74609 0.98438 0.51172 0.94141 0.36719 1.6328-0.39844 1.3633 0.32422 1.1914 0.84766 1.7031 0.76953 1.5352-0.20312 1.2227-0.83984 1.1211-1.2539 0.91016-0.84766 0.92188-1.3203 1.2891-0.67969 1.1211-1.1758 0.98438 0.62891 0.83594 1.1328 1.5938 0.54297 2.3125-0.25 1.375-0.125 0.64844 0.84766-0.94531 0.75391-0.33203 1.0156 0.15625 3.4766 0.55469 0.96094 1.4258 0.49219 1.0977-0.125 0.83984-0.76172 1.0352-1.1953 0.99609-0.16797 1.1719 0.24219 1.0781 0.53125 1.6641 0.79688 1.1094 0.10547 1.668 0.69141 1.2148 0.1875 0.82812 0.80859 0.125 1.6836 0.23828 1.0586 0.023437 1.3086 0.62891 0.92188 2.3555 1.7578 1.8438 1.9062 0.625 0.91406 1.5938 2.9297 0.90234 1.1523 2.6992 1.2148 1.2031 1.1016 0.47266 1.0352 0.59766 0.92188 1.2266 0.82812 1.1289 0.5 2.1172-0.09375 1.2852-0.66016 1.1328-0.3125 1.4766-0.15625 1.5078 0.13672 1.4648-0.023438 1.1445-0.21875 1.2227-0.23047 1.3633-0.050782 1.0781 0.019532 1.3281 0.30469 1.0078 0.53125 0.92188 0.62891 0.61719 0.87891 1.1523 0.64062 1.418 0.65625 1.5352 0.43359 1.0117 0.011719 1.168-0.4375 2.6719-1.2852 1.5898-0.47266 1.9766-0.35156 1.5703-0.66016 2.0625-1.1562 1.1953-0.67578 1.2461-0.39844 1.707 0.21094 1.4453 0.60547-1.6719 0.51562-2.7305 1.5234-1.2383 1.207-0.89844 1.5469-0.58984 1.9531 0.23828 2.0508-0.46094 1.9375-0.15625 1.0273-0.21094 1.1602-0.54297 0.93359-0.62891 1.625-0.66016 0.88672-0.47266 2.5078-0.066406 1.2695 0.35156 1.875 0.57422 1.543 0.40234 0.99609-0.11719 1.3281 0.49609 2.9531 1.1914 2.1016 0.92578 1.2383 1.1172 1.9023 0.60156 0.9375 0.21875 1.1055-0.14453 1.3242 0.054687 1.3555 0.44922 1.0156 1.457 2.082 0.82031 1.6875 0.82422 1.6914 0.72266 1.1523 0.87891 1.3008 0.52344 1.3086 0.94141 1.1836 0.54297 1.1836 0.16016 1.6953 0.95312 1.5156 0.69141 1.0391-0.12891 1.6016-0.41797 0.92188-1.1836 1.5-1.1914 0.59766-1.0391 1.6406-1.6094 1.2773-1.3711 1.2578-0.29688 0.98828-0.62109 0.93359-0.86328 1.625-2.1445 1.0703-1.332 0.83203-1.625 1.0352-1.4883 1.1758-1.1562 1.1602-0.84766 2.1094-0.66016 2.1797-0.66406 0.82031-1.1758 0.10547-1.1836-0.19141-2.375 0.96484-1.3633 0.24219-1.6211 0.03125-1.4258 0.46875-1.2461 0.89062-0.87891 0.51562-1.9062 0.88672-1.3281 0.28516-2.2109 0.95312-0.99609 0.73047-0.96094 1.3945-0.17969 1.0156-0.042968 1.5078-0.36719 1.0469-0.60547 0.91016-1.2031 1.0273-1.6055 1.1523-3.2227 1.5195-0.94531 0.38672-1.6523 1.4141-0.92188 1.5195-1.3203 1.5273-1.7695 0.41797-0.95312 0.37891-0.96484 0.89062-1.8008 2.1055-1.2656 1.4336-0.91016 1.8516-0.09375 1.0586-0.57812 1.3008-1.0781 0.44922-1.0039 0.27344-1.2695 0.21875-0.97266-0.25391-3.0156 0.80859-1.0469 0.1875-1.457 0.37891-2.7539 1.2148-1.2891 0.21875-1.0352-0.50391-0.92188-0.86719-0.98438-0.62891-2 0.85938-0.76562 1.3711-1.4336 1.3281-0.97266 0.47266-1.1445 0.66016-2.082 0.91016-0.94922 0.33984-1.2383 0.44531-1.4258 0.14844-1.75 0.52344-1.3828 0.21875-1.0156 0.019531-1.3203-0.25-1.2852-0.46094-1.1836 0.011719-1.6562 0.55469-2.25 1.7812-1.918 1.6445-1.8633 0.73047-2.2305 0.48438-2.3984 0.17578-1.875 0.35547-1.0977 0.023438-1.7812 0.66016-1.4883 0.97266-1.1914 1.0469-1.5039 0.29688-1.4414-0.19141-1.2344 0.074219-1.2344 1.2344-2.2539 2.1484-1.6523 1.0898-1.293 0.89453-0.70703 0.87109-0.48438 2.1367-0.59766 2.0625-0.60547 0.85156-0.94141 0.97266-1.1523 0.38672-0.99609-0.16797-0.84766-0.58594-1.2148 0.050781-0.75391 1.0273-0.039063 1.0391-1.2422-1.5664-0.43359-1.1016-1.043-1.5586-0.51953-1.2773 0.23828-1.5117 0.28125-1.4648-0.09375-1.75-0.56641-1.5625 0.14062-1.1797 0.61719-1.3242 0.82031-0.67188 1.0156-0.41797 0.95703-1.5586 0.71875-0.98438 1.2266-1.8555 0.73828-1.543 0.46484-1.3477-0.046875-1.9492-0.55859-1.6758-0.73438-1.2344-0.51953-1.1836-0.74609-1.7227 0.37109-1.4883 0.60547-1.3008 0.14062-1.0703-0.97656-1.8555-0.1875-1.1172-0.37109-2.6016 0.23438-1.6758 0.18359-1.0664 0.51172-1.2578 0.65234-1.0664 0.51172-1.2578 0.089844-1.1133-0.18359-1.0234-0.32422-1.5781 0.085937-1.0664 0.32422-2.8398 0.035156-1.6875-0.14453-1.3672-0.17969-1.5469-0.46484-1.043-0.57812-0.96875-0.070313-1.6914 0.89844-1.6172 0.43359-1.0781-0.43359-1.3203-0.070313-1.1875 0.21484-1.3672 0.035156-1.1484 0.35938-1.0078 0.32422-1.6523 0.75391-1.0078 1.6211-1.1523 0.75391-2.0117 0.21484-2.1211-0.070313-3.0195-0.14453-2.4102-0.17969-1.3672-0.75781-1.0781-0.78906-2.0117-0.17969-3.6328-0.14453-1.0781-0.25-1.2578-0.79297-0.86328-1.1875-1.2969-1.1836-1.5078-1.1172-2.4102-0.5-1.8711-0.39453-0.98047-0.74219-1.1836-1.0156-0.36719-1.9492 0.23047-2.7344-1.2344-0.96094-0.89062-1.9688-3.2695-0.074219-1.1289-0.26172-1.1016 0.16406-0.99219 0.52734-1.918 0.59766-2.5117-0.19922-1.5-0.48438-1.4961-0.91016-3.8555 0.019531-1.9258 0.45312-1.6133-0.16797-1.6328 0.050782-3.3203 0.36719-1.9141 0.050781-1.6367-0.75391-2.8164-0.69141-1.4141 0.33594-2.2305 0.28516-1.5586 1.0977-1.3633 0.41797-1.1094 0.73438-1.0664 0.30469-2.3477 0.74219-2.125 0.1875-1.3711-0.36328-1.3945v-2.3047l-0.62891-1.9258v-2.293l-0.22266-1.2695-0.86719-2.5742-0.56641-1.1094-1.3711-1.2266-0.32422-1.2461 1.0898-0.83594 1.1836 0.25 1.2461 0.81641 1.0664-0.13672 1.2969-0.81641 2.1367-0.32422 1.2383-0.46094 1.0977-0.77344 1.1836-1.3398 1.8633-0.31641 1.2148 0.074218 2.4531-0.14844 1.1836 0.023437" fill="none" stroke="#fff" stroke-linecap="round" stroke-linejoin="round" stroke-miterlimit="10" stroke-width="2"/>
<path d="m371.45 231.47 0.625 0.09375 1.7812 0.59766 1.0898 0.51562 1.0898 0.51953 1.0352 0.38672 2.5664 0.87109 1.1641 0.49219 2.0312 0.51172 2.543 0.84766 1.3086 0.31641 1.9766-0.058594 1.8281-0.73828 1.0469-0.21094 1.1719-0.039063 1.75-0.054687 1.6758 0.59766 2.2617 2.0195 1.5586 1.9297 1.0469 1.5898 1.0391 0.74609 0.98438 0.51172 0.94141 0.36719 1.6328-0.39844 1.3633 0.32422 1.1914 0.84766 1.7031 0.76953 1.5352-0.20312 1.2227-0.83984 1.1211-1.2539 0.91016-0.84766 0.92188-1.3203 1.2891-0.67969 1.1211-1.1758 0.98438 0.62891 0.83594 1.1328 1.5938 0.54297 2.3125-0.25 1.375-0.125 0.64844 0.84766-0.94531 0.75391-0.33203 1.0156 0.15625 3.4766 0.55469 0.96094 1.4258 0.49219 1.0977-0.125 0.83984-0.76172 1.0352-1.1953 0.99609-0.16797 1.1719 0.24219 1.0781 0.53125 1.6641 0.79688 1.1094 0.10547 1.668 0.69141 1.2148 0.1875 0.82812 0.80859 0.125 1.6836 0.23828 1.0586 0.023437 1.3086 0.62891 0.92188 2.3555 1.7578 1.8438 1.9062 0.625 0.91406 1.5938 2.9297 0.90234 1.1523 2.6992 1.2148 1.2031 1.1016 0.47266 1.0352 0.59766 0.92188 1.2266 0.82812 1.1289 0.5 2.1172-0.09375 1.2852-0.66016 1.1328-0.3125 1.4766-0.15625 1.5078 0.13672 1.4648-0.023438 1.1445-0.21875 1.2227-0.23047 1.3633-0.050782 1.0781 0.019532 1.3281 0.30469 1.0078 0.53125 0.92188 0.62891 0.61719 0.87891 1.1523 0.64062 1.418 0.65625 1.5352 0.43359 1.0117 0.011719 1.168-0.4375 2.6719-1.2852 1.5898-0.47266 1.9766-0.35156 1.5703-0.66016 2.0625-1.1562 1.1953-0.67578 1.2461-0.39844 1.707 0.21094 1.4453 0.60547-1.6719 0.51562-2.7305 1.5234-1.2383 1.207-0.89844 1.5469-0.58984 1.9531 0.23828 2.0508-0.46094 1.9375-0.15625 1.0273-0.21094 1.1602-0.54297 0.93359-0.62891 1.625-0.66016 0.88672-0.47266 2.5078-0.066406 1.2695 0.35156 1.875 0.57422 1.543 0.40234 0.99609-0.11719 1.3281 0.49609 2.9531 1.1914 2.1016 0.92578 1.2383 1.1172 1.9023 0.60156 0.9375 0.21875 1.1055-0.14453 1.3242 0.054687 1.3555 0.44922 1.0156 1.457 2.082 0.82031 1.6875 0.82422 1.6914 0.72266 1.1523 0.87891 1.3008 0.52344 1.3086 0.94141 1.1836 0.54297 1.1836 0.16016 1.6953 0.95312 1.5156 0.69141 1.0391-0.12891 1.6016-0.41797 0.92188-1.1836 1.5-1.1914 0.59766-1.0391 1.6406-1.6094 1.2773-1.3711 1.2578-0.29688 0.98828-0.62109 0.93359-0.86328 1.625-2.1445 1.0703-1.332 0.83203-1.625 1.0352-1.4883 1.1758-1.1562 1.1602-0.84766 2.1094-0.66016 2.1797-0.66406 0.82031-1.1758 0.10547-1.1836-0.19141-2.375 0.96484-1.3633 0.24219-1.6211 0.03125-1.4258 0.46875-1.2461 0.89062-0.87891 0.51562-1.9062 0.88672-1.3281 0.28516-2.2109 0.95312-0.99609 0.73047-0.96094 1.3945-0.17969 1.0156-0.042968 1.5078-0.36719 1.0469-0.60547 0.91016-1.2031 1.0273-1.6055 1.1523-3.2227 1.5195-0.94531 0.38672-1.6523 1.4141-0.92188 1.5195-1.3203 1.5273-1.7695 0.41797-0.95312 0.37891-0.96484 0.89062-1.8008 2.1055-1.2656 1.4336-0.91016 1.8516-0.09375 1.0586-0.57812 1.3008-1.0781 0.44922-1.0039 0.27344-1.2695 0.21875-0.97266-0.25391-3.0156 0.80859-1.0469 0.1875-1.457 0.37891-2.7539 1.2148-1.2891 0.21875-1.0352-0.50391-0.92188-0.86719-0.98438-0.62891-2 0.85938-0.76562 1.3711-1.4336 1.3281-0.97266 0.47266-1.1445 0.66016-2.082 0.91016-0.94922 0.33984-1.2383 0.44531-1.4258 0.14844-1.75 0.52344-1.3828 0.21875-1.0156 0.019531-1.3203-0.25-1.2852-0.46094-1.1836 0.011719-1.6562 0.55469-2.25 1.7812-1.918 1.6445-1.8633 0.73047-2.2305 0.48438-2.3984 0.17578-1.875 0.35547-1.0977 0.023438-1.7812 0.66016-1.4883 0.97266-1.1914 1.0469-1.5039 0.29688-1.4414-0.19141-1.2344 0.074219-1.2344 1.2344-2.2539 2.1484-1.6523 1.0898-1.293 0.89453-0.70703 0.87109-0.48438 2.1367-0.59766 2.0625-0.60547 0.85156-0.94141 0.97266-1.1523 0.38672-0.99609-0.16797-0.84766-0.58594-1.2148 0.050781-0.75391 1.0273-0.039063 1.0391-1.2422-1.5664-0.43359-1.1016-1.043-1.5586-0.51953-1.2773 0.23828-1.5117 0.28125-1.4648-0.09375-1.75-0.56641-1.5625 0.14062-1.1797 0.61719-1.3242 0.82031-0.67188 1.0156-0.41797 0.95703-1.5586 0.71875-0.98438 1.2266-1.8555 0.73828-1.543 0.46484-1.3477-0.046875-1.9492-0.55859-1.6758-0.73438-1.2344-0.51953-1.1836-0.74609-1.7227 0.37109-1.4883 0.60547-1.3008 0.14062-1.0703-0.97656-1.8555-0.1875-1.1172-0.37109-2.6016 0.23438-1.6758 0.18359-1.0664 0.51172-1.2578 0.65234-1.0664 0.51172-1.2578 0.089844-1.1133-0.18359-1.0234-0.32422-1.5781 0.085937-1.0664 0.32422-2.8398 0.035156-1.6875-0.14453-1.3672-0.17969-1.5469-0.46484-1.043-0.57812-0.96875-0.070313-1.6914 0.89844-1.6172 0.43359-1.0781-0.43359-1.3203-0.070313-1.1875 0.21484-1.3672 0.035156-1.1484 0.35938-1.0078 0.32422-1.6523 0.75391-1.0078 1.6211-1.1523 0.75391-2.0117 0.21484-2.1211-0.070313-3.0195-0.14453-2.4102-0.17969-1.3672-0.75781-1.0781-0.78906-2.0117-0.17969-3.6328-0.14453-1.0781-0.25-1.2578-0.79297-0.86328-1.1875-1.2969-1.1836-1.5078-1.1172-2.4102-0.5-1.8711-0.39453-0.98047-0.74219-1.1836-1.0156-0.36719-1.9492 0.23047-2.7344-1.2344-0.96094-0.89062-1.9688-3.2695-0.074219-1.1289-0.26172-1.1016 0.16406-0.99219 0.52734-1.918 0.59766-2.5117-0.19922-1.5-0.48438-1.4961-0.91016-3.8555 0.019531-1.9258 0.45312-1.6133-0.16797-1.6328 0.050782-3.3203 0.36719-1.9141 0.050781-1.6367-0.75391-2.8164-0.69141-1.4141 0.33594-2.2305 0.28516-1.5586 1.0977-1.3633 0.41797-1.1094 0.73438-1.0664 0.30469-2.3477 0.74219-2.125 0.1875-1.3711-0.36328-1.3945v-2.3047l-0.62891-1.9258v-2.293l-0.22266-1.2695-0.86719-2.5742-0.56641-1.1094-1.3711-1.2266-0.32422-1.2461 1.0898-0.83594 1.1836 0.25 1.2461 0.81641 1.0664-0.13672 1.2969-0.81641 2.1367-0.32422 1.2383-0.46094 1.0977-0.77344 1.1836-1.3398 1.8633-0.31641 1.2148 0.074218 2.4531-0.14844z" fill="#0a5394" fill-rule="evenodd"/>
<path d="m371.45 231.47 0.625 0.09375 1.7812 0.59766 1.0898 0.51562 1.0898 0.51953 1.0352 0.38672 2.5664 0.87109 1.1641 0.49219 2.0312 0.51172 2.543 0.84766 1.3086 0.31641 1.9766-0.058594 1.8281-0.73828 1.0469-0.21094 1.1719-0.039063 1.75-0.054687 1.6758 0.59766 2.2617 2.0195 1.5586 1.9297 1.0469 1.5898 1.0391 0.74609 0.98438 0.51172 0.94141 0.36719 1.6328-0.39844 1.3633 0.32422 1.1914 0.84766 1.7031 0.76953 1.5352-0.20312 1.2227-0.83984 1.1211-1.2539 0.91016-0.84766 0.92188-1.3203 1.2891-0.67969 1.1211-1.1758 0.98438 0.62891 0.83594 1.1328 1.5938 0.54297 2.3125-0.25 1.375-0.125 0.64844 0.84766-0.94531 0.75391-0.33203 1.0156 0.15625 3.4766 0.55469 0.96094 1.4258 0.49219 1.0977-0.125 0.83984-0.76172 1.0352-1.1953 0.99609-0.16797 1.1719 0.24219 1.0781 0.53125 1.6641 0.79688 1.1094 0.10547 1.668 0.69141 1.2148 0.1875 0.82812 0.80859 0.125 1.6836 0.23828 1.0586 0.023437 1.3086 0.62891 0.92188 2.3555 1.7578 1.8438 1.9062 0.625 0.91406 1.5938 2.9297 0.90234 1.1523 2.6992 1.2148 1.2031 1.1016 0.47266 1.0352 0.59766 0.92188 1.2266 0.82812 1.1289 0.5 2.1172-0.09375 1.2852-0.66016 1.1328-0.3125 1.4766-0.15625 1.5078 0.13672 1.4648-0.023438 1.1445-0.21875 1.2227-0.23047 1.3633-0.050782 1.0781 0.019532 1.3281 0.30469 1.0078 0.53125 0.92188 0.62891 0.61719 0.87891 1.1523 0.64062 1.418 0.65625 1.5352 0.43359 1.0117 0.011719 1.168-0.4375 2.6719-1.2852 1.5898-0.47266 1.9766-0.35156 1.5703-0.66016 2.0625-1.1562 1.1953-0.67578 1.2461-0.39844 1.707 0.21094 1.4453 0.60547-1.6719 0.51562-2.7305 1.5234-1.2383 1.207-0.89844 1.5469-0.58984 1.9531 0.23828 2.0508-0.46094 1.9375-0.15625 1.0273-0.21094 1.1602-0.54297 0.93359-0.62891 1.625-0.66016 0.88672-0.47266 2.5078-0.066406 1.2695 0.35156 1.875 0.57422 1.543 0.40234 0.99609-0.11719 1.3281 0.49609 2.9531 1.1914 2.1016 0.92578 1.2383 1.1172 1.9023 0.60156 0.9375 0.21875 1.1055-0.14453 1.3242 0.054687 1.3555 0.44922 1.0156 1.457 2.082 0.82031 1.6875 0.82422 1.6914 0.72266 1.1523 0.87891 1.3008 0.52344 1.3086 0.94141 1.1836 0.54297 1.1836 0.16016 1.6953 0.95312 1.5156 0.69141 1.0391-0.12891 1.6016-0.41797 0.92188-1.1836 1.5-1.1914 0.59766-1.0391 1.6406-1.6094 1.2773-1.3711 1.2578-0.29688 0.98828-0.62109 0.93359-0.86328 1.625-2.1445 1.0703-1.332 0.83203-1.625 1.0352-1.4883 1.1758-1.1562 1.1602-0.84766 2.1094-0.66016 2.1797-0.66406 0.82031-1.1758 0.10547-1.1836-0.19141-2.375 0.96484-1.3633 0.24219-1.6211 0.03125-1.4258 0.46875-1.2461 0.89062-0.87891 0.51562-1.9062 0.88672-1.3281 0.28516-2.2109 0.95312-0.99609 0.73047-0.96094 1.3945-0.17969 1.0156-0.042968 1.5078-0.36719 1.0469-0.60547 0.91016-1.2031 1.0273-1.6055 1.1523-3.2227 1.5195-0.94531 0.38672-1.6523 1.4141-0.92188 1.5195-1.3203 1.5273-1.7695 0.41797-0.95312 0.37891-0.96484 0.89062-1.8008 2.1055-1.2656 1.4336-0.91016 1.8516-0.09375 1.0586-0.57812 1.3008-1.0781 0.44922-1.0039 0.27344-1.2695 0.21875-0.97266-0.25391-3.0156 0.80859-1.0469 0.1875-1.457 0.37891-2.7539 1.2148-1.2891 0.21875-1.0352-0.50391-0.92188-0.86719-0.98438-0.62891-2 0.85938-0.76562 1.3711-1.4336 1.3281-0.97266 0.47266-1.1445 0.66016-2.082 0.91016-0.94922 0.33984-1.2383 0.44531-1.4258 0.14844-1.75 0.52344-1.3828 0.21875-1.0156 0.019531-1.3203-0.25-1.2852-0.46094-1.1836 0.011719-1.6562 0.55469-2.25 1.7812-1.918 1.6445-1.8633 0.73047-2.2305 0.48438-2.3984 0.17578-1.875 0.35547-1.0977 0.023438-1.7812 0.66016-1.4883 0.97266-1.1914 1.0469-1.5039 0.29688-1.4414-0.19141-1.2344 0.074219-1.2344 1.2344-2.2539 2.1484-1.6523 1.0898-1.293 0.89453-0.70703 0.87109-0.48438 2.1367-0.59766 2.0625-0.60547 0.85156-0.94141 0.97266-1.1523 0.38672-0.99609-0.16797-0.84766-0.58594-1.2148 0.050781-0.75391 1.0273-0.039063 1.0391-1.2422-1.5664-0.43359-1.1016-1.043-1.5586-0.51953-1.2773 0.23828-1.5117 0.28125-1.4648-0.09375-1.75-0.56641-1.5625 0.14062-1.1797 0.61719-1.3242 0.82031-0.67188 1.0156-0.41797 0.95703-1.5586 0.71875-0.98438 1.2266-1.8555 0.73828-1.543 0.46484-1.3477-0.046875-1.9492-0.55859-1.6758-0.73438-1.2344-0.51953-1.1836-0.74609-1.7227 0.37109-1.4883 0.60547-1.3008 0.14062-1.0703-0.97656-1.8555-0.1875-1.1172-0.37109-2.6016 0.23438-1.6758 0.18359-1.0664 0.51172-1.2578 0.65234-1.0664 0.51172-1.2578 0.089844-1.1133-0.18359-1.0234-0.32422-1.5781 0.085937-1.0664 0.32422-2.8398 0.035156-1.6875-0.14453-1.3672-0.17969-1.5469-0.46484-1.043-0.57812-0.96875-0.070313-1.6914 0.89844-1.6172 0.43359-1.0781-0.43359-1.3203-0.070313-1.1875 0.21484-1.3672 0.035156-1.1484 0.35938-1.0078 0.32422-1.6523 0.75391-1.0078 1.6211-1.1523 0.75391-2.0117 0.21484-2.1211-0.070313-3.0195-0.14453-2.4102-0.17969-1.3672-0.75781-1.0781-0.78906-2.0117-0.17969-3.6328-0.14453-1.0781-0.25-1.2578-0.79297-0.86328-1.1875-1.2969-1.1836-1.5078-1.1172-2.4102-0.5-1.8711-0.39453-0.98047-0.74219-1.1836-1.0156-0.36719-1.9492 0.23047-2.7344-1.2344-0.96094-0.89062-1.9688-3.2695-0.074219-1.1289-0.26172-1.1016 0.16406-0.99219 0.52734-1.918 0.59766-2.5117-0.19922-1.5-0.48438-1.4961-0.91016-3.8555 0.019531-1.9258 0.45312-1.6133-0.16797-1.6328 0.050782-3.3203 0.36719-1.9141 0.050781-1.6367-0.75391-2.8164-0.69141-1.4141 0.33594-2.2305 0.28516-1.5586 1.0977-1.3633 0.41797-1.1094 0.73438-1.0664 0.30469-2.3477 0.74219-2.125 0.1875-1.3711-0.36328-1.3945v-2.3047l-0.62891-1.9258v-2.293l-0.22266-1.2695-0.86719-2.5742-0.56641-1.1094-1.3711-1.2266-0.32422-1.2461 1.0898-0.83594 1.1836 0.25 1.2461 0.81641 1.0664-0.13672 1.2969-0.81641 2.1367-0.32422 1.2383-0.46094 1.0977-0.77344 1.1836-1.3398 1.8633-0.31641 1.2148 0.074218 2.4531-0.14844 1.1836 0.023437" fill="none" stroke="#fff" stroke-linecap="round" stroke-linejoin="round" stroke-miterlimit="10"/>
<path d="m422.81 326.77c0 3.5898-2.9102 6.5-6.5 6.5s-6.5-2.9102-6.5-6.5 2.9102-6.5 6.5-6.5 6.5 2.9102 6.5 6.5" fill="#28c028" fill-rule="evenodd" stroke="#000" stroke-linecap="round" stroke-linejoin="round" stroke-miterlimit="10"/>
<path d="m311 320.77v-16.469h4.9844l2.9844 11.234 2.9531-11.234h4.9844v16.469h-3.0938v-12.953l-3.2656 12.953h-3.2031l-3.25-12.953v12.953zm34.047 0h-3.6094l-1.4375-3.7344h-6.5781l-1.3594 3.7344h-3.5312l6.4062-16.469h3.5156zm-6.1094-6.5156-2.2812-6.1094-2.2188 6.1094zm7.8906 6.5156v-16.469h7c1.7578 0 3.0352 0.15234 3.8281 0.45312 0.80078 0.29297 1.4414 0.82031 1.9219 1.5781 0.47656 0.75 0.71875 1.6172 0.71875 2.5938 0 1.2305-0.36719 2.25-1.0938 3.0625-0.73047 0.80469-1.8203 1.3086-3.2656 1.5156 0.71875 0.41797 1.3125 0.88281 1.7812 1.3906 0.46875 0.5 1.0977 1.3867 1.8906 2.6562l2.0156 3.2188h-3.9688l-2.4062-3.5781c-0.85547-1.2812-1.4375-2.0859-1.75-2.4219-0.3125-0.33203-0.64844-0.5625-1-0.6875-0.35547-0.125-0.91406-0.1875-1.6719-0.1875h-0.67188v6.875zm3.3281-9.5h2.4531c1.5938 0 2.5859-0.066406 2.9844-0.20312 0.39453-0.13281 0.70312-0.36328 0.92188-0.6875 0.22656-0.33203 0.34375-0.75 0.34375-1.25 0-0.55078-0.14844-0.99219-0.4375-1.3281-0.29297-0.34375-0.71094-0.5625-1.25-0.65625-0.27344-0.03125-1.0781-0.046875-2.4219-0.046875h-2.5938zm23.797 3.4531 3.2344 1.0156c-0.5 1.793-1.3281 3.125-2.4844 4-1.1484 0.875-2.6016 1.3125-4.3594 1.3125-2.1875 0-3.9844-0.74219-5.3906-2.2344-1.4062-1.5-2.1094-3.5469-2.1094-6.1406 0-2.7383 0.70312-4.8633 2.1094-6.375 1.4141-1.5195 3.2812-2.2812 5.5938-2.2812 2.0078 0 3.6445 0.60156 4.9062 1.7969 0.75 0.69922 1.3125 1.7109 1.6875 3.0312l-3.2969 0.78125c-0.19922-0.85156-0.60547-1.5234-1.2188-2.0156-0.61719-0.5-1.3672-0.75-2.25-0.75-1.2188 0-2.2109 0.4375-2.9688 1.3125-0.76172 0.875-1.1406 2.2969-1.1406 4.2656 0 2.0742 0.375 3.5547 1.125 4.4375 0.75 0.88672 1.7227 1.3281 2.9219 1.3281 0.88281 0 1.6445-0.28125 2.2812-0.84375 0.63281-0.5625 1.0859-1.4414 1.3594-2.6406zm20.922 6.0469h-3.6094l-1.4375-3.7344h-6.5781l-1.3594 3.7344h-3.5312l6.4062-16.469h3.5156zm-6.1094-6.5156-2.2812-6.1094-2.2188 6.1094zm7.0312 1.1562 3.2344-0.3125c0.19531 1.0859 0.59375 1.8828 1.1875 2.3906 0.59375 0.51172 1.3945 0.76562 2.4062 0.76562 1.0703 0 1.8789-0.22266 2.4219-0.67188 0.53906-0.45703 0.8125-0.98828 0.8125-1.5938 0-0.39453-0.11719-0.72656-0.34375-1-0.23047-0.26953-0.625-0.50391-1.1875-0.70312-0.39844-0.13281-1.2891-0.375-2.6719-0.71875-1.7812-0.44531-3.0312-0.99219-3.75-1.6406-1.0117-0.90625-1.5156-2.0078-1.5156-3.3125 0-0.83203 0.23828-1.6133 0.71875-2.3438 0.47656-0.72656 1.1602-1.2852 2.0469-1.6719 0.89453-0.38281 1.9766-0.57812 3.25-0.57812 2.0625 0 3.6133 0.45312 4.6562 1.3594 1.0508 0.90625 1.6016 2.1172 1.6562 3.625l-3.3281 0.15625c-0.14844-0.84375-0.45312-1.4531-0.92188-1.8281-0.46094-0.375-1.1562-0.5625-2.0938-0.5625-0.96875 0-1.7305 0.20312-2.2812 0.60938-0.34375 0.25-0.51562 0.58984-0.51562 1.0156 0 0.38672 0.16016 0.71875 0.48438 1 0.42578 0.35547 1.4453 0.72656 3.0625 1.1094 1.6133 0.375 2.8047 0.76562 3.5781 1.1719 0.78125 0.40625 1.3906 0.96484 1.8281 1.6719 0.4375 0.71094 0.65625 1.5859 0.65625 2.625 0 0.94922-0.26562 1.8359-0.79688 2.6562-0.52344 0.82422-1.2617 1.4375-2.2188 1.8438-0.96094 0.39453-2.1523 0.59375-3.5781 0.59375-2.0859 0-3.6836-0.47656-4.7969-1.4375-1.1172-0.96875-1.7812-2.375-2-4.2188zm0 0" fill="none" stroke="#fff" stroke-linecap="round" stroke-linejoin="round" stroke-miterlimit="10" stroke-width="2"/>
<path d="m311 320.77v-16.469h4.9844l2.9844 11.234 2.9531-11.234h4.9844v16.469h-3.0938v-12.953l-3.2656 12.953h-3.2031l-3.25-12.953v12.953zm34.047 0h-3.6094l-1.4375-3.7344h-6.5781l-1.3594 3.7344h-3.5312l6.4062-16.469h3.5156zm-6.1094-6.5156-2.2812-6.1094-2.2188 6.1094zm7.8906 6.5156v-16.469h7c1.7578 0 3.0352 0.15234 3.8281 0.45312 0.80078 0.29297 1.4414 0.82031 1.9219 1.5781 0.47656 0.75 0.71875 1.6172 0.71875 2.5938 0 1.2305-0.36719 2.25-1.0938 3.0625-0.73047 0.80469-1.8203 1.3086-3.2656 1.5156 0.71875 0.41797 1.3125 0.88281 1.7812 1.3906 0.46875 0.5 1.0977 1.3867 1.8906 2.6562l2.0156 3.2188h-3.9688l-2.4062-3.5781c-0.85547-1.2812-1.4375-2.0859-1.75-2.4219-0.3125-0.33203-0.64844-0.5625-1-0.6875-0.35547-0.125-0.91406-0.1875-1.6719-0.1875h-0.67188v6.875zm3.3281-9.5h2.4531c1.5938 0 2.5859-0.066406 2.9844-0.20312 0.39453-0.13281 0.70312-0.36328 0.92188-0.6875 0.22656-0.33203 0.34375-0.75 0.34375-1.25 0-0.55078-0.14844-0.99219-0.4375-1.3281-0.29297-0.34375-0.71094-0.5625-1.25-0.65625-0.27344-0.03125-1.0781-0.046875-2.4219-0.046875h-2.5938zm23.797 3.4531 3.2344 1.0156c-0.5 1.793-1.3281 3.125-2.4844 4-1.1484 0.875-2.6016 1.3125-4.3594 1.3125-2.1875 0-3.9844-0.74219-5.3906-2.2344-1.4062-1.5-2.1094-3.5469-2.1094-6.1406 0-2.7383 0.70312-4.8633 2.1094-6.375 1.4141-1.5195 3.2812-2.2812 5.5938-2.2812 2.0078 0 3.6445 0.60156 4.9062 1.7969 0.75 0.69922 1.3125 1.7109 1.6875 3.0312l-3.2969 0.78125c-0.19922-0.85156-0.60547-1.5234-1.2188-2.0156-0.61719-0.5-1.3672-0.75-2.25-0.75-1.2188 0-2.2109 0.4375-2.9688 1.3125-0.76172 0.875-1.1406 2.2969-1.1406 4.2656 0 2.0742 0.375 3.5547 1.125 4.4375 0.75 0.88672 1.7227 1.3281 2.9219 1.3281 0.88281 0 1.6445-0.28125 2.2812-0.84375 0.63281-0.5625 1.0859-1.4414 1.3594-2.6406zm20.922 6.0469h-3.6094l-1.4375-3.7344h-6.5781l-1.3594 3.7344h-3.5312l6.4062-16.469h3.5156zm-6.1094-6.5156-2.2812-6.1094-2.2188 6.1094zm7.0312 1.1562 3.2344-0.3125c0.19531 1.0859 0.59375 1.8828 1.1875 2.3906 0.59375 0.51172 1.3945 0.76562 2.4062 0.76562 1.0703 0 1.8789-0.22266 2.4219-0.67188 0.53906-0.45703 0.8125-0.98828 0.8125-1.5938 0-0.39453-0.11719-0.72656-0.34375-1-0.23047-0.26953-0.625-0.50391-1.1875-0.70312-0.39844-0.13281-1.2891-0.375-2.6719-0.71875-1.7812-0.44531-3.0312-0.99219-3.75-1.6406-1.0117-0.90625-1.5156-2.0078-1.5156-3.3125 0-0.83203 0.23828-1.6133 0.71875-2.3438 0.47656-0.72656 1.1602-1.2852 2.0469-1.6719 0.89453-0.38281 1.9766-0.57812 3.25-0.57812 2.0625 0 3.6133 0.45312 4.6562 1.3594 1.0508 0.90625 1.6016 2.1172 1.6562 3.625l-3.3281 0.15625c-0.14844-0.84375-0.45312-1.4531-0.92188-1.8281-0.46094-0.375-1.1562-0.5625-2.0938-0.5625-0.96875 0-1.7305 0.20312-2.2812 0.60938-0.34375 0.25-0.51562 0.58984-0.51562 1.0156 0 0.38672 0.16016 0.71875 0.48438 1 0.42578 0.35547 1.4453 0.72656 3.0625 1.1094 1.6133 0.375 2.8047 0.76562 3.5781 1.1719 0.78125 0.40625 1.3906 0.96484 1.8281 1.6719 0.4375 0.71094 0.65625 1.5859 0.65625 2.625 0 0.94922-0.26562 1.8359-0.79688 2.6562-0.52344 0.82422-1.2617 1.4375-2.2188 1.8438-0.96094 0.39453-2.1523 0.59375-3.5781 0.59375-2.0859 0-3.6836-0.47656-4.7969-1.4375-1.1172-0.96875-1.7812-2.375-2-4.2188z" fill-rule="evenodd"/>
</g>
</svg>
