<?xml version="1.0" encoding="UTF-8"?>
<svg width="500pt" height="415pt" version="1.1" viewBox="0 0 500 415" xmlns="http://www.w3.org/2000/svg">
<g id="a">
<rect width="500" height="415" fill="none"/>
<path d="m238.14 14.082 0.066407 0.042969-0.17188 1.043 0.51172 1.1406 0.96875 0.84375 0.57422 0.84375 0.42188 1.5156 0.55859 0.94141 0.84766 1.0664 0.36719 1.0508 0.91016 1.3047 0.55078 1.125 0.49219 0.92188 0.39453 1.1328 0.44141 0.99609-0.003906 1.7031 0.058594 1.1602 0.070312 1.0078 0.56641 1.0156-0.94141 0.66797-1.0312 0.91016-0.66016 0.92188-0.50781 0.98828-0.78125 0.67188-0.14062 1.0391 0.085938 1.1172 0.15234 1.0781 0.32031 1.1836 0.85547 0.75781 0.14453 1.0781 0.23828 1.0391 0.078125 1.0859-0.30859 1-1.2188 0.21094-1.0703 0.78125-0.30469 1.0469 0.29297 1.0078 0.089844 1.1836 0.13672 1.0586 0.25781 1.375-0.023437 1.1289-0.77344 0.88281-0.003906 1.0781 0.54297 1.1016 0.25781 1.0859-0.058593 1.0312 0.20312 1.0781-0.027344 1.25-0.55078 1.0469-0.60547 0.82812-0.058594 1.0547-0.046875 1.3398-0.5625 1.0977-0.40234 1.0977-0.23047 1.1914-0.003907 1.0156 0.36328 1.0586-0.26953 1.1133 0.33594 1.1641 0.57812 1.1758 0.85547 1.1211 0.22656 1.1406 0.14062 1.1016 0.18359 1.1289 0.12891 1.0156 0.50391 1.0312 0.90625 0.48438 1.4805 1.2695 0.60547 1.2422 0.03125 1.2305 0.058594 1.0195 0.35156 1.1172 0.38672 1.0078 0.32031 0.98828 0.14062 1.0078 0.63672 1.2031 0.88672 1.0586 0.78125 1.1523 0.42969 0.96484 0.27344 1.0078-0.042969 1.0234-0.23438 1.0391-0.44922 1.1602-0.11719 0.99609-0.066406 1.457-0.33203 1.2227-0.16797 1.1484 0.10156 1.0586 0.019531 1.0039 0.12891 1.0117 0.42969 0.97656 0.44141 1.9414 0.32812 1.2852 0.52344 1.5195 0.60547 0.9375 0.63672 0.79297 0.070313 1.1719 0.42188 0.93359 0.78125 1.0703 0.98047 0.64062 0.66797 0.97656 0.64062 1.0273 0.32422 1.293 0.47266 1.1133-0.10547 1.1406 0.20312 1.0781 0.75781 0.87891 0.75781 0.82031 0.29688 1.3867 0.33594 1.293 0.027344 1.1406-0.39453 1.1094-0.20703 1.1289-0.19922 1.4141-0.38672 1.5391 0.625 1.5938 0.31641 1.4844 0.80469 1.1289 0.90625 0.99219 1.3438 1.3984 0.94922 0.82422 1.332 0.74609 0.53516 0.9375 0.28906 1.1719 0.45312 1.0273-0.003906 1.2148 0.16406 1.1445 0.92578 1.5117 1.043 0.16406 0.73047 1.1094 0.58984 0.99219 0.83594 0.67188 0.66797 1.4375 0.73438 1.1875 0.30859 1.3359-0.14844 1.6641 0.097656 1.2773 0.56641 1.3359 0.3125 1 0.039063 1.3711 0.015625 1.0273 0.46094 1.457 0.39844 1.1016 1.4258 0.78125 0.92969 1.2266 0.58984 1 0.74219 1.0117 0.46484 1.2852 0.25391 1.2617 0.20312 1.125 0.53906 0.87109 0.54297 0.86719 0.80469 1.4609 0.97266 1.1641 0.85547 0.83594 1.1992 0.81641 1.1484 0.875 0.73047 1.0078 1.207 2.5742 0.61719 1.6055 0.61719 1.2852 0.37109 0.96875 0.96094 2.0664 0.63672 1.2344 0.60938 1.3828 0.89844 1.1406 0.81641 0.83594 0.55859 0.86328 0.30469 1.0195 0.21875 1.1328 0.30859 1.1484 0.78516 0.83594 0.62109 1.0273 0.91797 0.77344 0.37891 0.95703-0.20703 1.1328 1.2109 0.37109 1.1172-0.007812 1.1797-0.03125 1.2422-0.44922 1.0898-0.15234 1.5391 0.22266 1.1211 0.125 1.0234 0.10156 1.1094 0.023438 1.0039-0.070313 1.6445 0.023438 1.2617 0.33203 2.207 0.1875 1.375-0.10938 1.5156 0.30859 1.3438-0.12891 1.0469-0.25781 1.0664-0.28516 1.0352-0.71875 0.85156-0.65625 1.1914-0.32812 1.0977-0.32812 1.543-0.76562 1.3047-0.14453 1.2461-0.38281 1.2422-0.67578 0.82812-0.95312 0.44531-1.0078 1.1094-1.8164 0.66016-0.80859 0.55078-0.91406 0.76562-0.83984 0.85156-1.1914 0.625-1.0078 0.18359-1.2188 0.1875-1.0156 0.34375-1.1328-0.070312-1.0469 0.62109-0.95312 1.5508 0.082031 1.457 0.042969 1.168-0.23438 1.2188-0.5 1.0781 0.29688 1.043 0.17578 1.1367-0.050781 1.168 0.003906 1.0859 0.56641 0.82812 0.97656 0.84375 0.55469 1.0352 0.42969 1.0859-0.28516 1.6133-0.082031 1.0039-0.35547 1.1992-0.26562 1.0625-0.082031 1.0039 0.14453 0.80078-1.1289 1.5469 0.054688 1.2227 0.41797 1.5781 0.68359 0.91016 0.55469 1.1797 0.51562 1.043 0.34766 1.0547-0.42969 0.3125-0.95703 0.57031-0.87109 0.30859-0.96484 0.81641-1.3242 0.82031-1.4375 0.60938-1.1719 1.1602-0.82031 1.1758-0.41016 1.0781-0.60547 0.70312-0.96484 0.98438-0.85938 0.68359-0.77344 0.90625-0.76562 0.87109-0.67969 0.89844-0.89062 0.95312-0.53516 0.50781-1.0469 0.52734-1.0273 0.53906-1.5508v-1.0039l-0.25781-1.0312-0.58984-1.0156-0.44531-1.0781-0.058594-1.3047-0.011719-1.0898-0.30859-1.0078 0.16797-1.375-0.91016-1.4688-0.61719-0.89453-0.55078-1.0039-1.0312-0.9375-0.41406-1.2227-0.24609-1.2305-0.20703-1.1016-0.52344-1.0586 0.35938-1.3125 1.3242-0.125 1.1172 0.125 0.96094-0.34766 1.1445-0.070312 0.58984-0.8125 0.42578-1.0781 0.89844-0.64453 1.1367 0.13281 0.95312-0.55469 0.84375-0.72656 0.76953-1.1641 0.9375-0.90234 0.3125-1.1914 1.1875-1.0977 0.57031-1.0898 0.70312-0.82031 0.48438-0.90234 0.72266-1.1406 0.14453-1.4375 0.085937-1.0391-0.25781-1.1602-0.24609-2.082 1.0781-1.5508 0.45312-1.6133-0.11328-1.4141-0.007813-1.1094 0.62891-0.87109 0.99219-0.69922 1.4141-1.2305 0.58984-1.2227 0.99219-0.6875 1.3203-1.4883 0.60938-0.95312 0.96875-0.61328 1.1484-0.88281 0.9375-0.37109 1.3438-0.54297 1.2695-0.27734 1.2188-0.88281 2.1367-0.99609 1.8164-0.16016 1.3906 0.36719 1.1992 0.49219 0.98047 0.35156 1.2266 0.33594 1.0859 0.125 0.77344 0.92188 1.4844 1.4492 1.1406 1.0938 0.78516 1.4453 0.30859 1.1367 1.0508 0.61328 1.0547-0.20703 0.83594-1.0859 1.0859-0.96484 1.2969-0.046875 1.1445-0.42188 1.1055-0.28516 1.043 0.19141 0.91406-0.86719 0.33594-1.0078 0.46094-1.7656-0.17188-1.5547-0.66406-1.6445-1.1289-0.47656-1.0352-1.0156-0.47266-1.6055-0.80469-3.8281 1.5859 0.019531 1.0039-0.32422 0.95312-1.1094 4.0234-4.7969 0.89062-1.25 1.0898-1.168 0.80078-0.89453 0.9375-0.63281 1.9688-1.5703 1.3945-1.1523 1.1328-0.89844 0.74219-0.86328 0.73438-1.0547 0.74609-1.043 0.37109-1.082 0.10156-1.707v-1.8398l-0.082031-1.5156 0.054687-1.0156 0.27734-1.0156 0.42188-0.91406-0.39062-1.918 0.125-1.9336 0.4375-0.92188 0.71094-0.8125-0.0625-1.0508-0.73828-0.82031-0.19531-1.2656 8.8672-5.8984 11.785-5.6719 6.9844-3.3594 0.99219-0.49609 2.3203-1.6797 1.7539-1.2695 1.8125-0.72266 1.7539-0.66406 2.4766-0.66797 2.2383-0.30078 3.0195-0.058594 1.4023 0.039063 1.8008 0.44141 0.96875 0.48438 1.5703 1.3906 2.1172 2.0547 1.75 2.0547 0.55859 1.5039 0.46875 2.7891 0.94141 3.8047 1.4883 14.492 0.16406 2.2969 0.14844 2.4297 0.125 2.1289-0.22266 1.0117-0.32031 1.0664-0.57031 1.6602-0.10547 1.0547-1.7578 0.76172-1.4688 0.39844-4.0469 1.7891-0.73828 1.4375-1.9805 2.1367-3.7227 1.3555-1.3203 1.3789-0.75 2.3203-0.22266 1.5586-0.089844 2.832-0.15234 2.707-0.19922 1.4453-0.85156 1.7148-0.94922 1.7656-0.97266 1.0391-0.82031 0.85156-0.21875 1.4766-0.3125 1.9727-0.38672 4.5078-0.23828 1.4062-0.34766 1.5039 0.88281 1.7852-0.015625 1.1055-1.2383 0.97266-1.2344 0.46875-0.49219 0.98828-0.44531 0.9375-0.39453 1.0117 0.66797 1.6016 0.61719 1.2578 0.69141 0.86328 0.97656 0.64844-0.046875 1.1328-0.74219 3.1328-1.0156 1.3008-0.875 1.0078-0.91406 0.82812-0.95312 1.4102 0.25781 1.5859 0.85547 1.3633 1.0703 0.26953 1.9805 0.32031 2.5156 0.84375 0.74609 1.2422-0.52734 1.3281-0.26562 1.582 0.125 1.3867 0.066406 1.2852 0.68359 2.8984 1.6289 4.3047 0.44531 3.3086 1.4023 2.6406 0.23828 1.3672 0.87891 0.71875 0.4375 0.94531 0.93359 0.51172 0.47266 1.0078 0.88281 0.92188 0.93359 1.1094 0.03125 1.2148-0.24219 1.1562-0.015625 1.3984 0.71875 1.3086-0.33203 1.0234-0.62891 1.1016-0.82031 0.67969-0.74609 0.67969-0.75 0.91016-0.5625 0.83203-0.45703 1.1758-0.49609 1.0391-0.84766 1.0195-0.69922 0.875-0.57812 0.98828-0.23828 1.0039-0.035156 1.0391-0.96875 0.50781-1.0039 0.27344-0.88281-0.49219-1.2422 0.13672-1.0742 0.54297-0.375 1.3945-0.30469 1.1914-1.0391 0.54297-1.2188 0.21094-0.58984 1.0859-0.58984 1.125-0.70312 1.0586-1.1797 0.53516-0.86719 0.53516-0.53516 0.86719-1.043-0.22266-0.61719 0.80078 0.41016 1.0703 0.70703 1.0273 0.98438 0.30078 1.1094 0.039063 0.83984 0.625 0.94531 0.75-0.92969 0.65234-1.2695 0.03125-0.96875 0.74609-1.0352 0.36719-0.83203 0.55859-1.0469 0.16016-0.82031 0.85156-0.78125 0.98047-0.9375 0.79688-0.61328 1.0469-0.19531 1.3555-0.38672 0.99609-0.77344 0.91797-0.33984 0.94531-0.15625 1.0781 0.066407 1.0039-0.42969 1.0234-0.92578 0.66797-0.027344 1.2383 0.15625 1.2227-0.082031 1.0547 0.55859 1.1758 0.38281 1.1328 0.48438 0.94141 0.30859 1.293 0.57031 1.0156-0.62891 0.87109-1.1367 0.25-1.2695 0.53906-0.77344 0.86719 0.22266 1.0547-0.22656 1.0352 0.15234 1.1602-1.3164-0.10156-0.97656 0.51953-0.65234 0.78125 0.82422 1.4883 0.67578 1.1719-0.10547 1.1523-0.51172 1.082-0.85547 0.55469-0.76953 0.88281-0.96094 1.0352-0.88281 2.0625-1.1875 0.32031-1.2344 0.074218-0.87891 0.76172-0.60156 0.80859-1.1211-0.68359-1.1211 0.65625-0.027344 1.1484 0.57422 1.2578-0.62891 1.4766-1.0586 0.67969 0.15625 1.1523 0.62109 1.4062-0.074219 1.1914 0.38281 1.5703 0.875 0.51953-1.0156 1.0742-1.3008 0.82031-1.1289 0.4375-1.4531 0.45312 0.019531 1.1953 0.51953 0.92578 0.11328 1.1992-0.61328 0.88281-0.30469 0.98047-0.16016 1.0039 0.80469 0.65234 1.0195-0.33984 1.0586-0.46484 1.2109 0.36719 0.92578 1.0117-0.88281 1.7617-0.39062 0.95312-0.14844 1.207-0.019531 1.1289-1 0.24609-0.83594 0.63672 0.25391 0.99219 0.76562 0.64844-0.44141 0.96875-0.11719 1.043-0.80859 0.73828-1.1328 0.10156-1.1094-0.10156-1.043-0.51562-0.90625-0.47656-0.41797-0.96484-0.86328-0.58594-0.50781-1.1992-0.85156-0.96875-1.0273-0.41016-1.0078 0.28125-0.76953 0.86719-0.71484 0.92969-1.2773 0.54297-8.6133 4.5586-6.0625 0.74219-1.4414-4.3359-1.0898-0.10547-1.0898-0.34766-1.3008 0.14844-0.94531-0.40625-0.59766-0.875-1.0938 0.070312-1.0977-0.03125-0.87109-0.56641-0.67969-0.83594-1.3711 0.027344-1.0273-0.57031-1.2578 0.33594-0.48828 0.91797-0.84375 0.57422-0.96875 0.73438-0.73828 0.82031-1.1875 0.48047-1.375 0.46484-1.4492 0.25391-1.0391 0.0625-1.1836-0.24609-1.4297-0.73828-2.1758-0.38281h-1.4023l-1.0195 0.35547-2.0352-0.10938-0.94922-0.40625-0.79688-0.66016-1.2812-0.55078-0.92188-0.58594-1.1289-0.64453-1.0156-0.65625-1.4961-0.89453-2.3125-2.0195-1.1797-0.91016-0.83984-0.65234-2.3164-1.6016-1.6836-0.74219-0.96875-0.57422-1.0703 0.16797-1.2891-0.0625-1.0781 0.09375-1.0547-0.16406-0.90234-0.5625-1.8086 0.27344-1.8633-0.19922 0.41016 1.2812 0.57031 0.88672 0.40625 1.0117 0.25 1.3555 0.39844 1.082 0.046875 1.125 0.75 1.1016 0.89453 1.2891 0.69922 1.2891 0.32422 1.1602 0.29297 1.1719 0.14453 1.168-0.72266 0.83984-0.35938 1.0117-0.89062 0.52344-1.2305 0.61719-1.1562 0.23828-1.9492 0.27344-0.98438 0.38281-1.4414 0.14453-2.4062-0.51953-1.293 0.082032-1.375-0.19141-1.1016-0.28516-1.3984-0.15234-1.0625 0.16797-1.1055 0.097656-1.7578 0.33203-1.1055 0.39844-1.0742 0.60547-0.73828 0.84766-0.87109 0.52344-0.066406 1.1328 0.21094 1.1953 0.94531 0.57422 1.0898 0.5625 0.53906 1.0391-0.53516 0.95312-0.67578 0.80469-0.33984 1.0547-0.98828 0.45703-0.65234 0.88281-0.85547 0.94141-1.1172 0.32422-1.1367-0.375-0.89062-0.54688-1.0625-0.30078-0.94141 0.53125-0.63281 0.77734-0.30469 1.1445-0.25781 1.0312-0.96094 0.32812-0.79297 1.0312-0.21094 1.0977-0.25391 1.1445-0.35547 0.94141 0.17969 1.2852-1.0977 0.63672-0.80469-0.69531-0.75391-0.73828-0.97266-0.33203-1.1289-0.375-1.4766-0.14062-1.0781-0.003906-1.1992 0.26172-1.0391 0.17578-1.5273-0.09375-1.1562-0.13281-1.0898 0.12891-0.99219 0.65234-0.88672-0.81641-0.86719-0.88281-0.66406-0.90625 0.0625-1.0703-1.543-0.50391-1.3008-0.42188-1.0156-0.074219-1.1641-0.37891-0.67578-0.79688-0.86328 0.56641-0.058594 1.0625 0.40625 1.0234-0.42578 0.98828 0.085937 1.0391 0.35547 0.98828-0.023438 1.3281-0.42969 0.94141 0.22656 1.0117 0.14453 1.1406-0.22266 0.97266-0.42969 1.0039-0.48047 0.88281-1.0234-0.13672-0.92969 0.37109-1.0938 0.046875-1.0898-0.21875-0.97656 0.42188-1.0156-0.10547-1.1484 0.035156-0.94141 0.48438-0.82812 0.92578-0.75781 0.73828-0.61719 0.85156-0.9375 0.44922-1.0664 0.19922-0.64062 0.88672-0.33984 0.99219-0.14062 1.0898-0.78906 0.76172 0.097656 1.0195-0.21094 1.0859-0.32812 1.0664-0.30859 1.0312-0.86719 0.57422 0.21875 1.0039-0.55469 0.87891 0.32422 0.96875 0.28125 1.0742-0.44531 0.97266-0.95703 0.50391-0.64453 0.83594-0.015625 1.0859-0.39844 0.96484 0.18359 1.0898-0.11328 1.0469-0.45312 0.89062 0.40625 1.0508 0.50391 0.99609 0.17969 1-0.31641 0.98828-0.003906 1.0625-0.003907 1.1562v1.0312l-0.41797 0.99219-0.60938 1.082-0.5625 0.95312-0.80469 0.59375-0.67578 0.8125-0.73828 0.70312-0.82422 0.60547-0.85547 0.54297-1.0078-0.23047-0.95703 0.35938-0.85156 0.58984-0.98828 0.30078-1.0391-0.375-1.1719 0.74219-1.0391 0.64453-1.0078 0.625-0.97266 0.39453-1.2109 0.019531-1.0703-0.058593-1-0.24609-0.96484-0.3125-0.84375-0.59766-1.0156 0.31641-0.96484 0.41016-1.0039 0.22656-0.80859 0.65625-0.92578 0.52344-0.50781 0.90625-0.64453 0.8125-0.035156 1.0156-0.23047 1.0234-0.46484 0.90625-0.10156 1.043-0.54297 0.99219-0.55469 0.86328-0.74609 0.66406-0.83594 0.67188-0.89062 0.50781-0.90625 0.4375-0.92969 0.39453-0.88672 0.79297-0.84375 0.66406-0.91406 0.44922-0.82031 0.75781-0.72656 0.80078-0.60938 0.83594-0.58203 0.85156-0.75781 0.66797-0.76562 0.70703-0.66406 0.75391-0.72656 0.72656-0.37109 0.94531-0.76562 0.75-0.36719 0.9375 0.082031 1.2422 0.22266 1.0039 0.31641 0.98047 0.51172 0.96094 0.33203 0.98828-0.30078 0.99609-0.34766 0.99609-0.46875 0.91797-0.91406 0.80078-0.74609 0.70312-0.64844 0.77344-0.50781 0.875-0.57031 0.83594-0.60156 0.82422-0.38672 0.94922-0.37891 0.98047-0.55078 0.84766-0.69531 0.89453-0.57812 0.87109-0.92969 0.51172-0.37891 1.0156-1.082 0.15625-0.80078 0.69531-1.1016 0.22656-1.0547 0.35156-0.83984-0.69141-0.53125-0.90625-0.23438-1.0234-0.31641-1.0586-0.10938-1.0234-0.16797-0.99609-0.97656 0.57422-0.99609 0.44922-0.44531 0.89844-1.1406-0.58984-0.10547-1.0234-0.93359-0.39062-1.0195 0.11328-1.0039 0.20312-0.42578 1.0117-0.94141 0.57812-0.81641-0.59766-1.6133-0.97656-0.62891-0.78125-1.0352-0.078125 0.23438-1.0508 0.47656-0.91406-0.48438-1.0078-1.1055-0.19141-1.0703-0.64844-1.0469-0.18359-0.73828 0.80078-1.1133 0.17969-0.63281-0.92188-0.98438-0.32031-1.0586-0.25781-1.1094 0.5-0.78125-0.73438-0.375-1.1094-0.9375-0.40234-0.35156-0.98828-0.875-0.58984-1.2148 0.023438-0.89453 0.62109-1.1016 0.38281-1.0312-0.21094-1.0352-0.51562-0.9375-0.66797-0.42969-0.99219-0.54297-0.90234-1.2773-0.36719-1.0391-0.57422-1.1406-0.17969-0.17578-1.043 0.60938-0.91406-1.1016-0.25391-1.6094-0.10156-0.99609-0.24219-0.94531-0.46875-0.28906 1.0469 0.3125 1.1562 0.17188 1.0078 0.35938 1.0469-0.97266-0.45703-0.39844-0.91797-1.168-0.24609-0.92188-0.65625-0.88281-0.60938-1.1758-0.89062-1.0078-0.53516-1.0391-0.57031-0.73047 0.85938-0.20312 1.1445-0.17578 1.0469-0.41016 1.0703-0.29688 0.98828 0.54297 0.91016-0.73047 0.76953-0.60547 0.83594-0.55469 0.89062-1.1172-0.29297-0.85547-0.60938-1.1836 0.18359-0.85938-0.66406-0.28125-1.0547 0.0625-1.1055-0.41797-1.1484-0.25-1.0156-0.43359-0.91016-0.53516-0.90625-0.14062-1.0273-0.24219-1.0859-0.56641-0.83984 0.57812-0.99609 0.21094-1 0.38672-1.0078-0.32812-1.0508-0.28125-1.0039-0.50391-0.96094-0.64062-0.82031-0.75391-0.89062 0.50781-0.95703 0.21094-0.98047-0.73047-0.83594-0.38281-1.0469-0.44531-1.1367-1.0547-0.14844-0.83594 0.5625-0.57031 0.85938-0.88672 0.55859-1.0078 0.17578-1.0586 0.15625-0.78125-0.6875-1.1914-0.29688-1-0.35938-0.99219-0.26953-0.56641 0.86719-0.48047 0.96484-0.71484 0.71875-0.63672 0.82812-1.0703 0.26953-0.92969 0.42969-0.97266 0.4375-0.82031 0.60156-1.0977 0.16016-1.1562-0.085938-1.2383 0.19922-0.95312-0.34375-0.9375-0.46484-1.0742 0.15234-0.95703-0.40625-0.90625-0.52734-1.1406-0.10938-0.99609 0.28906-1.2031-0.16797-1.0742-0.125 0.79688 0.96484 0.78516 0.87109 0.26172 0.99219 0.80469 0.92578 0.88281 0.71094-0.35547 1.168-0.29297 0.98828-1.0664 0.42188-0.34766 1.0391-0.03125 1.2461-0.73047 1.125-0.375 0.99219-0.47656 1.0078-1.0547-0.15234-1.0391 0.22656-1.0078 0.16016-1.0273-0.11328-0.89453-0.52344-0.70703 0.76562-0.90234 0.82812-1.1523-0.18359-1.1055 0.17969-1.082-0.37109-0.73828 0.73047-0.63281 0.81641-0.78906-0.63672-0.92188-0.96875-0.82422-0.82422-0.67969-0.77344-1.0234 0.60156-0.34766 0.98047-1.0156 0.042968-0.83594 0.90234 0.10547 1.2695-0.51953 0.93359-0.99219 0.16016-0.93359 0.40625-0.76172 0.65234-0.87109 0.57422-0.96094 0.62109-1.1016-0.14062-1.0039 0.13672-1.1016-0.16016-1.0156 0.074219-0.91797 0.46484-0.86328 0.51953-0.83984 0.60156-0.35547 0.9375-0.16406 0.99609-0.74609 0.73828-1.1133 0.027344-1.1875-0.22656-0.97656 0.55078-1.0234 0.15625-1.1016 0.26172-0.22656 1.0859 0.22266 0.98047-0.50781 0.92969-1.0117 0.23828-1.082 0.11328-0.98828 0.50391-0.54688 0.91797-0.67969 1.1445 0.21484 1.125-0.98828-0.44922-0.30859-1.0156-0.91016-0.41406-0.60547-0.80859-1.0352 0.082031-1.1328-0.25781-1.1172-0.10547-1.1406-0.25781-1.125 0.0625-0.48828-0.91016-0.65625-0.83203-0.42969-0.91797-0.80859-0.83594-0.71875-0.8125-0.95703-0.35156-1.0156 0.22266-0.58594-0.90234-0.19531-0.98828 0.32812-0.96875 0.078125-1.0391-0.62109-1.0273-0.1875-1.0469-0.32031-0.99219 0.30078-0.96875-0.90625-0.49609-1.1367 0.011719-1.0898 0.019531-1.0859-0.375-0.97266-0.53906-0.36328-1.1602-0.37109-0.96484-0.16797-1.0117-0.21484-1.0156-0.71875 0.97266-1.25 0.5625-0.875 0.72656-1.0508-0.33203-0.67969-0.76562 0.54688-0.88281-0.45312-0.90234-0.55078-0.84375-0.66406-0.92578-0.55469-1.0625 0.47656-0.98438 0.078125-1-0.042969-1.0703-0.38281-1.0117-0.35156-1.0273-0.53906-0.85938-0.73828-0.76172-1.0234-0.16797-0.86719-0.51562 0.25391-1.0234 0.089844-1.1172-0.66016-0.85547-0.91797-0.50781-0.48438-0.95312-0.34766-1.0352 0.03125-1.1836-0.14453-1 0.14844-1.0312 0.44922-1.0117-0.28906-1.0312-0.003906-1.0195-0.65625-0.86328-0.87109-0.49609-0.45703-0.92578 0.003906-1.0078 0.32812-1.0117 0.42969-1.0312 0.35938-1.0312-0.070313-0.99609-0.48828-0.90625-0.003906-1.0547 0.29688-0.99219 0.41016-1.0312-0.23047-1.0547-0.42969-0.95703 0.23047-0.98828-0.21094-1.0508-0.046875-1.0586-0.27734-1.0117-0.085937-1.0547 0.042969-1.2422-0.20312-1.1719 0.90625-0.83594 1.1211-0.19531 1.0703-0.33203 1.2266-0.015625 1.0195 0.035156 0.85938 0.60938 0.54297-1.1172 0.52344-1.1641 0.19141-1.2852 1.0352-0.49219 1.0547 0.32422 1.0039 0.46875 1.1953 0.14844 0.69922-1.8945 0.92188-0.50391 1.9609-0.17969 1.4102-0.19922 1.0508 0.23438 1.0195-0.015625 0.28125-0.97656-0.53516-1.1289 0.15625-1.043-0.30469-1.0312 0.25-1.0859-0.17969-1.0078 0.17969-1.0586-0.1875-1.1445-0.21875-0.98047-0.30469-1.0977-0.54688-0.97656-0.87891-0.61719-0.14062-1.082 0.003906-1.2383 0.14844-0.99609-0.36328-0.96875 0.26953-1.2617 0.74609-0.81641 0.28906-1 0.48047-0.94922 0.0625-1.1484-0.042969-1.0508-0.48438-0.96484-0.80859-0.88672-0.71484-0.89844-0.625-0.88672-1.1758-0.34375-0.83594-0.75391-0.37891-0.99219-0.003907-1.0312 0.35547-1.1797-0.80078-0.64453-0.3125-1.0781-0.53516-1.0312-0.32031-0.96484-0.99609-0.53906-0.24219-1.2578-0.51953-1.3398-0.82422-0.74609-0.66016-0.80469 0.082031-1.043-0.35547-1.0547-0.40625-1.0352-0.55078-1.0469-0.40234-1.3984-0.80469-1.3398-0.91016-0.82031-0.65625-0.77344-0.57812-1.0273-0.45312-1.2031-0.29688-1.082-0.25-1.1367-0.15234-1-0.046875-1.1445-0.039063-1.0195 0.28516-1.082-0.41797-0.92969-0.97266-0.29688-0.42969-1.0078-0.46484-1.0117-0.41406-0.96875-0.64062-0.88281-1.0391-0.54688-0.68359-0.91406-0.80859-0.77344-0.10547-1.0898-0.30469-1-0.52344-0.92969-0.26172-1.0273-0.79688-0.76172-1.0156 0.33594-0.54297 0.9375-1.1211 0.55859-1.2461-0.085938-1.0977 0.20703-0.51172 0.9375-0.625 0.91016-0.09375 1.0586-0.003906 1.082 0.25 0.99219 0.44531 1.0938 0.73828 0.76953 0.49219 0.99609-0.98047 0.39062-0.82812-0.67188-0.76562-0.67188-0.16406-0.99219-0.73828-0.875-0.76953-0.64453-0.85156-1.1445-0.70312-0.77734-0.84766-0.94141-0.60938-0.83594-1.0352-0.39062-0.82031-0.67578-0.45312-0.96484-0.10156-1.0352-0.56641-0.85156-0.55078-1.0391-0.27344-0.98438-0.49609-1.0586-0.56641-0.84375-0.58984-0.96094 0.039063-1.0469-0.52734-0.91016-0.74219-0.79297-0.042969-1.0078 0.63672-1.0781-0.50781-0.91016 0.26562-1.1992 0.95312-0.69141 0.78906-0.67578 0.83594-0.58203 0.35938-0.9375 0.99219-0.41797 1.0508 0.52344 0.91797-0.64453 1.0078-0.41797 0.95312-0.43359 1.0273-0.30469 0.65625-0.78906 0.64844-0.85938-0.066406-1.1641-0.15625-1.0703 0.82031-0.71094 0.60156-0.87109 0.046875-1.0938 0.83984-0.64453 1.5469-0.22656 0.97656-0.3125 1.1797 0.058594 0.38672-0.95312 0.21094-1.1914-0.39062-1.0391 0.94922-0.91406 0.95703-0.47656 0.51172-0.89844 0.71875-0.80859-0.21094-1.0391-0.023437-1.0078-0.19531-1.0117 0.35156-1.0508-0.074219-1.0391-0.14062-1.0234-0.54688-0.85547-0.67188-0.86719-0.71484-1.1406-0.41797-0.91406 0.26953-1.1289 0.38672-0.96484 0.13672-1.0625 1.0859-0.46094 0.76172-1.0312 0.62109-0.79688 0.60938-0.85156 0.25781-1.1914-0.35156-1.4141-0.67578-1.1172-0.24219-1.1836 0.12891-1.2969 0.69141-0.78516 0.99219-0.44922 0.3125-1.043 0.18359-1.0781 0.55078-1.0625 0.4375-0.98828 1.0469-0.27734 0.92578-0.39453 0.72656-0.80469 0.45703-1.1094 0.11719-1.0156 0.66016-1.2969 0.28125-0.96484 0.47266-0.99609 0.90234-0.46094 1.0195-0.50781 0.44531-1.2773 1.0156-0.58203 0.73438-0.84375 0.43359-0.9375-0.69531-0.78906 0.24219-1.2188 0.87891-0.70703 1.3359-0.011719 0.64453-0.93359-0.125-1.0352 0.81641-0.94922 0.11328-1.082 0.64844-0.94531 1.1367 0.074219 0.79297 0.77734 0.12109 1.2422 0.16016 1.0312 0.30078 1.0234 0.33203 1.2148 0.49609 0.94141 0.59375 1.1562 0.69141 0.89844 0.5 0.89453 0.16406 1.0352 0.15234 0.98828 0.82422 0.67969 1.0039 0.42969h1.2266l0.86719 0.61719 0.65625 0.80469 0.98438 0.54297 0.82422 0.71875 0.53906 0.94922 0.66406 1.0078 0.41406 0.95703 0.77344 0.71094 0.83984-0.55078 0.83594-0.94141 0.38281-0.97656 0.50781-0.99609 0.36719-0.95703 0.44141-1.0117 0.78125-0.67578 0.24219-1.0312 0.15625-1.0703-0.089843-1.0938-0.30078-1.0469-0.25781-1.1094-0.25391-0.97656 0.51172-0.9375 0.32422-1.0352-0.019531-1.2344 0.17578-1.1523 0.69531-0.87109 0.60938-0.82031 0.92188-0.85156-0.09375-1.1445-0.53906-0.86719 0.20703-1.1641 0.22266-1-0.30469-1.0039-0.23828-1.0508-0.29297-1.0273-0.34766-0.95312-0.09375-1.0156-0.69531-1.0195-0.47266-0.97266-0.83594-0.69531-0.75-0.89062-0.87109-0.75-0.77344-0.78125-0.65625-0.78516-0.625-1.082-0.17969-1.0273-0.09375-1.0273-0.95703-0.69922-0.85156-0.57812-0.74609-0.76562-0.99219-0.57031-0.097656-1.0312-1.125-0.51953-0.96875-0.28125-1.082-0.20703-1.082-0.007812-0.94922-0.34375-0.57812-0.82812-1.1953-0.10938-0.99609-0.23047-0.89844-0.46875-1.0547-0.33594-1.125-0.53125-1.1289 0.019531-1.0039-0.003906-1.1953-0.11328-0.97266-0.63281-1.1055-0.65625-0.92188-0.625-0.99219-0.33203-0.96484-0.44141-0.51172-0.97656-0.6875-0.79688-0.88672-0.64844-0.6875-0.74219-0.60547-0.87109-1.0117-0.33984-0.95703-0.51953-1.0195 0.039063-1.1133 0.33984-1.1289 0.11328-0.72266-0.87109-0.92578-0.45703-1.0508 0.15625-0.71875-0.76172-0.87891-0.57422-0.88281 0.53125-1.0234-0.070312-0.30078-1.0859-0.80469-0.625-0.78125-0.67969-0.90234-0.46094-0.65234-0.87109-0.32031-1.043-0.64453-0.78906-0.99219-0.35547-0.95312-0.46875-0.85156-0.94922-1.0586-0.55469-0.875-0.66016-0.57031-0.93359 0.14844-1.0508-0.71875-0.85156-1.0273-0.28125-0.99609-0.52734-0.96875-0.40625-1.0195-0.058594-1.0117-0.17969-0.92578-0.45312-0.72656-0.85156-0.92578-0.40234-0.97656-0.57031-0.79297-0.82812-1 0.03125-1.0664-0.16406-0.95312-0.32812-0.17969-1.0469 0.80469-0.64062-0.050781-1.0156-0.33984-0.94922-1.0352-0.30469-0.8125-0.63281-1.0195 0.19922-0.46875-0.96875-0.007813-1.1172-0.93359-0.50391-0.53516-0.84375 0.12891-1.0703-0.039062-1.0391-0.92578-0.47656-0.31641-0.98047-0.74609-0.76953-0.47266-0.89844-1.0156 0.019532-1.1055 0.16797-0.625-0.78516-0.64844-0.94141-0.054687-1.0156-0.68359-0.83203-0.64453-0.77734 0.15234-1.0234-0.32422-1.0859 0.5625-0.85938-0.43359-0.98828-0.77734-0.66406 0.023438-1.0117 0.32031-1.0547-0.34375-0.99609-0.92969-0.4375-0.85547-0.64844-0.73828-0.78125-0.72656-0.92969-0.39844-0.99609-0.26953-1.0273-0.18359-1.0977-0.16016-1.0312-0.58984-0.82812-0.38672-1.0664-0.90625-0.52344-0.94141-0.39453-0.89844-0.63672-0.35156-0.94531-0.023438-1.0625-0.11328-1.0156-0.29688-1.0742-0.18359-1.1055-0.85547-0.57422-0.67969-0.76172-0.89453-0.53516-0.78516-0.72656-0.57812-0.87109 0.13672-0.99609 0.027344-1.0273 0.015625-1.0938 0.089844-1.0156-0.86328-0.80469 0.10547-1.0273-0.30859-0.95703-0.16797-1.125-0.59766-0.80859-0.33203-0.95703-0.53906-0.88672 0.22266-1.0391 0.25-1.0312-0.37109-1.0195-0.96875-0.40625-1.3125-0.21484-1.1992 0.003907-1.0273-0.15234-0.8125-0.72266-0.63281-0.91406 0.015625-1.0547 0.49219-0.89844-0.078125-1.043 0.16797-1.0312-0.042968-1 0.23828-0.97266 0.33203-1.0156-0.16406-1.0625-0.78516-0.75391-0.57812-0.98438 0.082032-1.0781-0.57812-0.92969-0.91797-0.44531-0.60156-0.97266-0.56641-0.89844-0.19922-0.98438-0.55469-0.88672 0.62109-0.99219 0.15625-1.043-0.84375-0.61328 0.53906-1.0469 0.91016-0.51953 1.0312-0.035157 0.85547-0.54688 0.92969-0.46875 0.67969-1.0547 0.9375-0.65625 0.44922-1.0273 0.57422-0.88672-0.015625-1.0195 0.57812-0.90625 0.32812-1.1211 0.58203-0.82031 0.70312-0.86719 1.0781 0.29297 1.1133 0.29688 1.0469 0.20703 1.0195 0.40625 0.94922 0.42969 1.1367 0.070312 1.0859 0.32422 1 0.22266 1.0352 0.39453 1.0391 0.21875 1.0156-0.11719 0.99609-0.58203 1.1445-0.21875 1.0781-0.082031 0.69922-0.72266 0.81641-0.80859 1.0234-0.36719 0.97656-0.42188 0.74609-0.74609 0.87891-0.60156 0.85156-0.67578 0.87891-0.48047 0.73828-0.82812 0.78906-0.64453 0.78906 0.82812-0.007812 1.0312-0.41406 1.1172-0.66016 0.76172-0.33594 1.0156-0.63672 0.90234 0.51172 0.91406 0.99609 0.25781 1.1797 0.17969 1.1562 0.003906 0.94531-0.58594 1 0.039062 1.0312 0.49609 0.53906 0.96094 0.94141-0.41406 0.84375-0.5625 1.1406 0.59766 0.83203 0.6875 0.066406 1.0586-0.65234 0.82812-0.25 1.0273-0.45703 0.96094-0.76172 0.82031 0.62891 0.95703 0.70312 0.72656 1.0195 0.089843 0.52344 1.0391 0.69531 0.78125 1.0117-0.019531 0.98438 0.42188 0.21875 0.98828 0.58984 1.0039 0.88281 0.56641 1.2539 0.066407 1.0195 0.046875 0.42578-1.0898 0.64062-1.0469 1.1445 0.16797 1.207-0.40234 1.0156-0.26562 0.92188 0.47266 0.91797 0.80469 1.0117 1.1094 0.85547 0.75 1.0078 0.097656 1.3984 0.5 1.2227 0.13672 0.99609-0.14844 0.48828-0.94531 0.94141-0.37891 0.65234-1.1758 1.1602 0.011719 0.99609 0.80469 0.14844 1.0156 0.80859 0.98828 0.35547 1 1.0352 0.10547 1.0625 0.30078 1.418 0.16406 1.0273-0.32812 1.1992-0.44922 0.91797 0.50391 0.43359-1.0469 0.79688-0.79688 0.79688-0.62891 0.84766 0.69531 1.0586-0.22266 0.78516 0.81641 1.043 0.75391 0.61719-0.94922-0.023437-1.2695 1.0859-0.39844 1.2969-0.5 0.53906-1.1055 0.14844-1.1016 0.57422-0.92578 0.015625-1.0781 1.0195-0.55469 0.72656-0.83984 1.1602-0.070313 1.3711 0.11328 0.97266-0.46875 1.1758-0.6875 1.0156-0.058594 0.98828 0.21484 0.52734 1.3906 0.76562 0.78125 1.0664-0.10547 1.0586-0.26953 0.8125 0.62109 1.0625-0.058593 0.89453-0.54297 0.97266-0.36328 1.0508 0.074218 1.0117 0.39844 0.97266-0.26953 0.90625-0.55859 0.88672-0.57031 1.0039 0.57812 1.1953 0.84766 0.73047 0.85547 1.2383 0.54688 0.98438 0.21484 1.0469-0.015625 1.0312-0.17578 0.90234-0.44141 0.57031-0.87891 1.1328-0.39844 0.90625 0.54297 1.0391 0.097656 1-0.26562 1.207-0.28125 1.1914 0.31641 0.76172-0.79297 0.82422-0.64062 1.0078-0.31641 0.97266-0.24219 1.0664 0.078125 0.92969-0.42969 1.0547 0.35938 1.0391-0.16016 1.1875-0.52734 1.0273-0.007812 1.2539 0.125 0.96094-0.41797 0.97656 0.23828 1.0273-0.28906 0.99609-0.36719 0.99609-0.67188 0.93359-0.50391 0.46094 0.90625 0.55859 0.92188 0.49609 0.87109 0.94141 0.41797 0.84375 0.61328 0.6875 0.73047 0.75 0.67188 0.8125 0.73438 0.78906 0.71094 1.0195 0.18359 1.0039 0.8125 0.48438 0.95703 0.77734 0.81641-0.26953 1.0117-0.50391 1.2617 0.49609 0.99219 0.11719 0.99609 1.1797 0.089844 1.1172-0.33984 1.0352-0.12109 1.2266-0.15234 0.52734-0.91406-0.19531-1.1328 0.62891-1.2422 0.59766-0.88281 0.57812-1.1055 0.42578-1.1367-0.21484-1.0664 0.51953-1.1953 0.74219-0.9375 0.03125-1.0039 0.45703-1.0859 0.3125-0.99219 0.11719-1.1875 0.39062-1.1445 0.60156-0.98438 0.45312-0.95703 0.035156-1.0273 0.85938-0.72656 0.80078-0.99219 0.30469-1.2109 0.95312-0.97266 0.54688-0.95703 1.0781-0.23047 1.207-0.44141 0.94922-0.64844 0.96484-1.3086 0.89062-0.50391 1.3555-0.27734 0.95312-0.87891 0.51953-0.90234 1.0312-0.50781 0.98047 0.87109 0.66016 1.2812 1.2891 0.35547 1.3398-0.18359 1.0781 0.29688 0.70703 0.77344 0.21484 1.0547-0.20312 1.1133 0.58594 1.2305 0.28906 1.1914-0.042969 1.0156 0.83984 0.75781 0.15234 1.2266-0.89844 0.61328 0.57812 2.1016 0.39062 0.98828 1.1289 0.60156 0.72656 1.043-0.78125 1.0039-0.75 0.87109-0.42578 1.0703-0.23047 1.0039 0.91016 0.62109 0.80078 1.0742 0.18359 1.2227 0.29688 0.96875 0.95703 0.82031 0.75781 0.98828 0.43359 1.0625-0.35547 1.2266 0.90234 0.72656 0.92969-0.73828 1.25 0.11719 0.98828 0.86719-0.44922 1.0938-0.67969 0.95312 0.94141 0.72266 0.90625 0.48828 0.72656 0.8125-0.37109 0.94922 0.46484 0.94141 0.97656 0.64844 0.59766 0.9375-0.82422 0.79688-0.60938 1.0117 0.37109 1.1367 0.88672 0.625-0.55469 1.0312-0.48438 0.90234 0.14062 1.0938 1 0.62891 0.92578 0.48438 0.71484 0.85547 0.47656 1.1641 0.35938 1.2773 0.17969 1.2305-1.0234 0.1875-0.89453-0.61328-1.207-0.125-0.60156 0.94922 0.89453 0.53906 0.92578-0.44531 0.60938 1.1562-0.19531 1.3008-0.38672 1.0234 1.0156 0.70703 1.1055 0.8125 0.61719 0.79688 0.13672 1.0977 0.32422 1.0195 0.88672 0.97656 0.81641 0.79688 0.10938 1.0469-1.0625 0.37891-0.99219-0.27344-0.33203 0.97266 1.4727 0.42188 0.53125 0.85547-0.97266 0.33984-0.66797 0.76562 0.73438 0.83203 0.73828 0.80469-0.003906 1.0625-0.50391 1.0898 0.35547 1.1172 1.0117-0.16016 0.90625-0.71484 0.97266-0.39844 0.54688-0.89453 0.054687-1.0781 1.1406-0.39844 1.1719-0.55859 0.37891-1.1836 0.0625-1.2031 1.0156 0.054687 1.0547 0.37891 0.88281-0.53516 1.168 0.21094 0.97266-0.33594 0.80859-0.65234 0.21484-1.1211-0.22656-0.98828 0.39062-0.97266 0.28125-0.97656 0.93359 0.39062 0.57422-1.0352 0.25781-0.99219 0.70703-0.74609 0.42969-0.97656-0.90625-0.49219 0.74609-0.70703-0.15625-1.0664 0.27344-1.0469 0.070313-1.0352 0.41797-0.94922 0.66797-0.84375 0.125-1.125-0.011718-1.0352 0.97656-0.42578 0.30859-0.98828 1-0.26172 0.94531-0.41797 0.84375 0.63281 0.58203-0.8125 0.92188-0.56641 0.03125-1.0078-0.40625-0.98047-0.85938-0.63672-1.0547-0.03125 0.003906-1.1133-0.69141-0.73828 0.65234-0.88281-0.49609-0.91797 0.42578-0.96875-0.64453-0.82812 0.28125-1.0586 0.1875-1.1562-0.47656-0.96875-0.47656-0.89453-0.99219-0.93359-0.31641-0.95312-0.003906-1.0156 0.51562-0.86719 0.21875-1.0508 0.44141-1.043 0.16406-1.0039-0.027344-1.0977-0.38281-1.0078 0.12891-1.0391 0.21875-1.0352 0.15625-1.0469 0.042969-1.0664 0.027343-1.2031-0.16797-1.0273-0.32031-1.0664-0.10547-1.0703-0.11328-1.2109-0.023437-1.2031 0.44922-0.91797-0.13281-1.0156 0.36719-1.0039 0.52344-0.92188 0.81641-0.63672 0.20312-1.1992-0.18359-1.3984 0.67188-1.1992 1.0078-1.0547 0.019531-1.4102-0.12109-1.2539 0.23828-1.2109-0.375-1.1055-0.44531-1.0156 0.72656-0.82812 0.84766-0.5625 0.46875-0.96484 0.75-0.99219 0.15625-1.2109 0.18359-1.0156 0.73047-1.6836 0.64453-1.0273 1.1055-0.16016 0.92578 0.42969 1.1875-0.17188 0.81641-0.79297 0.87109-0.61328 1.1836-0.039063 0.8125 1.3672 1.0312 0.62891 0.35156-0.95312 0.64062-0.99609 1.3672-0.23047 0.87891-0.66797 1.1133-0.21094 1.0586-0.054687 1.0312-0.19531 0.92969-0.42188 0.23828-1.0859 1.0312 0.59766 0.91406 0.67969z" fill="#0a5394" fill-rule="evenodd"/>
<path d="m238.14 14.082 0.066407 0.042969-0.17188 1.043 0.51172 1.1406 0.96875 0.84375 0.57422 0.84375 0.42188 1.5156 0.55859 0.94141 0.84766 1.0664 0.36719 1.0508 0.91016 1.3047 0.55078 1.125 0.49219 0.92188 0.39453 1.1328 0.44141 0.99609-0.003906 1.7031 0.058594 1.1602 0.070312 1.0078 0.56641 1.0156-0.94141 0.66797-1.0312 0.91016-0.66016 0.92188-0.50781 0.98828-0.78125 0.67188-0.14062 1.0391 0.085938 1.1172 0.15234 1.0781 0.32031 1.1836 0.85547 0.75781 0.14453 1.0781 0.23828 1.0391 0.078125 1.0859-0.30859 1-1.2188 0.21094-1.0703 0.78125-0.30469 1.0469 0.29297 1.0078 0.089844 1.1836 0.13672 1.0586 0.25781 1.375-0.023437 1.1289-0.77344 0.88281-0.003906 1.0781 0.54297 1.1016 0.25781 1.0859-0.058593 1.0312 0.20312 1.0781-0.027344 1.25-0.55078 1.0469-0.60547 0.82812-0.058594 1.0547-0.046875 1.3398-0.5625 1.0977-0.40234 1.0977-0.23047 1.1914-0.003907 1.0156 0.36328 1.0586-0.26953 1.1133 0.33594 1.1641 0.57812 1.1758 0.85547 1.1211 0.22656 1.1406 0.14062 1.1016 0.18359 1.1289 0.12891 1.0156 0.50391 1.0312 0.90625 0.48438 1.4805 1.2695 0.60547 1.2422 0.03125 1.2305 0.058594 1.0195 0.35156 1.1172 0.38672 1.0078 0.32031 0.98828 0.14062 1.0078 0.63672 1.2031 0.88672 1.0586 0.78125 1.1523 0.42969 0.96484 0.27344 1.0078-0.042969 1.0234-0.23438 1.0391-0.44922 1.1602-0.11719 0.99609-0.066406 1.457-0.33203 1.2227-0.16797 1.1484 0.10156 1.0586 0.019531 1.0039 0.12891 1.0117 0.42969 0.97656 0.44141 1.9414 0.32812 1.2852 0.52344 1.5195 0.60547 0.9375 0.63672 0.79297 0.070313 1.1719 0.42188 0.93359 0.78125 1.0703 0.98047 0.64062 0.66797 0.97656 0.64062 1.0273 0.32422 1.293 0.47266 1.1133-0.10547 1.1406 0.20312 1.0781 0.75781 0.87891 0.75781 0.82031 0.29688 1.3867 0.33594 1.293 0.027344 1.1406-0.39453 1.1094-0.20703 1.1289-0.19922 1.4141-0.38672 1.5391 0.625 1.5938 0.31641 1.4844 0.80469 1.1289 0.90625 0.99219 1.3438 1.3984 0.94922 0.82422 1.332 0.74609 0.53516 0.9375 0.28906 1.1719 0.45312 1.0273-0.003906 1.2148 0.16406 1.1445 0.92578 1.5117 1.043 0.16406 0.73047 1.1094 0.58984 0.99219 0.83594 0.67188 0.66797 1.4375 0.73438 1.1875 0.30859 1.3359-0.14844 1.6641 0.097656 1.2773 0.56641 1.3359 0.3125 1 0.039063 1.3711 0.015625 1.0273 0.46094 1.457 0.39844 1.1016 1.4258 0.78125 0.92969 1.2266 0.58984 1 0.74219 1.0117 0.46484 1.2852 0.25391 1.2617 0.20312 1.125 0.53906 0.87109 0.54297 0.86719 0.80469 1.4609 0.97266 1.1641 0.85547 0.83594 1.1992 0.81641 1.1484 0.875 0.73047 1.0078 1.207 2.5742 0.61719 1.6055 0.61719 1.2852 0.37109 0.96875 0.96094 2.0664 0.63672 1.2344 0.60938 1.3828 0.89844 1.1406 0.81641 0.83594 0.55859 0.86328 0.30469 1.0195 0.21875 1.1328 0.30859 1.1484 0.78516 0.83594 0.62109 1.0273 0.91797 0.77344 0.37891 0.95703-0.20703 1.1328 1.2109 0.37109 1.1172-0.007812 1.1797-0.03125 1.2422-0.44922 1.0898-0.15234 1.5391 0.22266 1.1211 0.125 1.0234 0.10156 1.1094 0.023438 1.0039-0.070313 1.6445 0.023438 1.2617 0.33203 2.207 0.1875 1.375-0.10938 1.5156 0.30859 1.3438-0.12891 1.0469-0.25781 1.0664-0.28516 1.0352-0.71875 0.85156-0.65625 1.1914-0.32812 1.0977-0.32812 1.543-0.76562 1.3047-0.14453 1.2461-0.38281 1.2422-0.67578 0.82812-0.95312 0.44531-1.0078 1.1094-1.8164 0.66016-0.80859 0.55078-0.91406 0.76562-0.83984 0.85156-1.1914 0.625-1.0078 0.18359-1.2188 0.1875-1.0156 0.34375-1.1328-0.070312-1.0469 0.62109-0.95312 1.5508 0.082031 1.457 0.042969 1.168-0.23438 1.2188-0.5 1.0781 0.29688 1.043 0.17578 1.1367-0.050781 1.168 0.003906 1.0859 0.56641 0.82812 0.97656 0.84375 0.55469 1.0352 0.42969 1.0859-0.28516 1.6133-0.082031 1.0039-0.35547 1.1992-0.26562 1.0625-0.082031 1.0039 0.14453 0.80078-1.1289 1.5469 0.054688 1.2227 0.41797 1.5781 0.68359 0.91016 0.55469 1.1797 0.51562 1.043 0.34766 1.0547-0.42969 0.3125-0.95703 0.57031-0.87109 0.30859-0.96484 0.81641-1.3242 0.82031-1.4375 0.60938-1.1719 1.1602-0.82031 1.1758-0.41016 1.0781-0.60547 0.70312-0.96484 0.98438-0.85938 0.68359-0.77344 0.90625-0.76562 0.87109-0.67969 0.89844-0.89062 0.95312-0.53516 0.50781-1.0469 0.52734-1.0273 0.53906-1.5508v-1.0039l-0.25781-1.0312-0.58984-1.0156-0.44531-1.0781-0.058594-1.3047-0.011719-1.0898-0.30859-1.0078 0.16797-1.375-0.91016-1.4688-0.61719-0.89453-0.55078-1.0039-1.0312-0.9375-0.41406-1.2227-0.24609-1.2305-0.20703-1.1016-0.52344-1.0586 0.35938-1.3125 1.3242-0.125 1.1172 0.125 0.96094-0.34766 1.1445-0.070312 0.58984-0.8125 0.42578-1.0781 0.89844-0.64453 1.1367 0.13281 0.95312-0.55469 0.84375-0.72656 0.76953-1.1641 0.9375-0.90234 0.3125-1.1914 1.1875-1.0977 0.57031-1.0898 0.70312-0.82031 0.48438-0.90234 0.72266-1.1406 0.14453-1.4375 0.085937-1.0391-0.25781-1.1602-0.24609-2.082 1.0781-1.5508 0.45312-1.6133-0.11328-1.4141-0.007813-1.1094 0.62891-0.87109 0.99219-0.69922 1.4141-1.2305 0.58984-1.2227 0.99219-0.6875 1.3203-1.4883 0.60938-0.95312 0.96875-0.61328 1.1484-0.88281 0.9375-0.37109 1.3438-0.54297 1.2695-0.27734 1.2188-0.88281 2.1367-0.99609 1.8164-0.16016 1.3906 0.36719 1.1992 0.49219 0.98047 0.35156 1.2266 0.33594 1.0859 0.125 0.77344 0.92188 1.4844 1.4492 1.1406 1.0938 0.78516 1.4453 0.30859 1.1367 1.0508 0.61328 1.0547-0.20703 0.83594-1.0859 1.0859-0.96484 1.2969-0.046875 1.1445-0.42188 1.1055-0.28516 1.043 0.19141 0.91406-0.86719 0.33594-1.0078 0.46094-1.7656-0.17188-1.5547-0.66406-1.6445-1.1289-0.47656-1.0352-1.0156-0.47266-1.6055-0.80469-3.8281 1.5859 0.019531 1.0039-0.32422 0.95312-1.1094 4.0234-4.7969 0.89062-1.25 1.0898-1.168 0.80078-0.89453 0.9375-0.63281 1.9688-1.5703 1.3945-1.1523 1.1328-0.89844 0.74219-0.86328 0.73438-1.0547 0.74609-1.043 0.37109-1.082 0.10156-1.707v-1.8398l-0.082031-1.5156 0.054687-1.0156 0.27734-1.0156 0.42188-0.91406-0.39062-1.918 0.125-1.9336 0.4375-0.92188 0.71094-0.8125-0.0625-1.0508-0.73828-0.82031-0.19531-1.2656 8.8672-5.8984 11.785-5.6719 6.9844-3.3594 0.99219-0.49609 2.3203-1.6797 1.7539-1.2695 1.8125-0.72266 1.7539-0.66406 2.4766-0.66797 2.2383-0.30078 3.0195-0.058594 1.4023 0.039063 1.8008 0.44141 0.96875 0.48438 1.5703 1.3906 2.1172 2.0547 1.75 2.0547 0.55859 1.5039 0.46875 2.7891 0.94141 3.8047 1.4883 14.492 0.16406 2.2969 0.14844 2.4297 0.125 2.1289-0.22266 1.0117-0.32031 1.0664-0.57031 1.6602-0.10547 1.0547-1.7578 0.76172-1.4688 0.39844-4.0469 1.7891-0.73828 1.4375-1.9805 2.1367-3.7227 1.3555-1.3203 1.3789-0.75 2.3203-0.22266 1.5586-0.089844 2.832-0.15234 2.707-0.19922 1.4453-0.85156 1.7148-0.94922 1.7656-0.97266 1.0391-0.82031 0.85156-0.21875 1.4766-0.3125 1.9727-0.38672 4.5078-0.23828 1.4062-0.34766 1.5039 0.88281 1.7852-0.015625 1.1055-1.2383 0.97266-1.2344 0.46875-0.49219 0.98828-0.44531 0.9375-0.39453 1.0117 0.66797 1.6016 0.61719 1.2578 0.69141 0.86328 0.97656 0.64844-0.046875 1.1328-0.74219 3.1328-1.0156 1.3008-0.875 1.0078-0.91406 0.82812-0.95312 1.4102 0.25781 1.5859 0.85547 1.3633 1.0703 0.26953 1.9805 0.32031 2.5156 0.84375 0.74609 1.2422-0.52734 1.3281-0.26562 1.582 0.125 1.3867 0.066406 1.2852 0.68359 2.8984 1.6289 4.3047 0.44531 3.3086 1.4023 2.6406 0.23828 1.3672 0.87891 0.71875 0.4375 0.94531 0.93359 0.51172 0.47266 1.0078 0.88281 0.92188 0.93359 1.1094 0.03125 1.2148-0.24219 1.1562-0.015625 1.3984 0.71875 1.3086-0.33203 1.0234-0.62891 1.1016-0.82031 0.67969-0.74609 0.67969-0.75 0.91016-0.5625 0.83203-0.45703 1.1758-0.49609 1.0391-0.84766 1.0195-0.69922 0.875-0.57812 0.98828-0.23828 1.0039-0.035156 1.0391-0.96875 0.50781-1.0039 0.27344-0.88281-0.49219-1.2422 0.13672-1.0742 0.54297-0.375 1.3945-0.30469 1.1914-1.0391 0.54297-1.2188 0.21094-0.58984 1.0859-0.58984 1.125-0.70312 1.0586-1.1797 0.53516-0.86719 0.53516-0.53516 0.86719-1.043-0.22266-0.61719 0.80078 0.41016 1.0703 0.70703 1.0273 0.98438 0.30078 1.1094 0.039063 0.83984 0.625 0.94531 0.75-0.92969 0.65234-1.2695 0.03125-0.96875 0.74609-1.0352 0.36719-0.83203 0.55859-1.0469 0.16016-0.82031 0.85156-0.78125 0.98047-0.9375 0.79688-0.61328 1.0469-0.19531 1.3555-0.38672 0.99609-0.77344 0.91797-0.33984 0.94531-0.15625 1.0781 0.066407 1.0039-0.42969 1.0234-0.92578 0.66797-0.027344 1.2383 0.15625 1.2227-0.082031 1.0547 0.55859 1.1758 0.38281 1.1328 0.48438 0.94141 0.30859 1.293 0.57031 1.0156-0.62891 0.87109-1.1367 0.25-1.2695 0.53906-0.77344 0.86719 0.22266 1.0547-0.22656 1.0352 0.15234 1.1602-1.3164-0.10156-0.97656 0.51953-0.65234 0.78125 0.82422 1.4883 0.67578 1.1719-0.10547 1.1523-0.51172 1.082-0.85547 0.55469-0.76953 0.88281-0.96094 1.0352-0.88281 2.0625-1.1875 0.32031-1.2344 0.074218-0.87891 0.76172-0.60156 0.80859-1.1211-0.68359-1.1211 0.65625-0.027344 1.1484 0.57422 1.2578-0.62891 1.4766-1.0586 0.67969 0.15625 1.1523 0.62109 1.4062-0.074219 1.1914 0.38281 1.5703 0.875 0.51953-1.0156 1.0742-1.3008 0.82031-1.1289 0.4375-1.4531 0.45312 0.019531 1.1953 0.51953 0.92578 0.11328 1.1992-0.61328 0.88281-0.30469 0.98047-0.16016 1.0039 0.80469 0.65234 1.0195-0.33984 1.0586-0.46484 1.2109 0.36719 0.92578 1.0117-0.88281 1.7617-0.39062 0.95312-0.14844 1.207-0.019531 1.1289-1 0.24609-0.83594 0.63672 0.25391 0.99219 0.76562 0.64844-0.44141 0.96875-0.11719 1.043-0.80859 0.73828-1.1328 0.10156-1.1094-0.10156-1.043-0.51562-0.90625-0.47656-0.41797-0.96484-0.86328-0.58594-0.50781-1.1992-0.85156-0.96875-1.0273-0.41016-1.0078 0.28125-0.76953 0.86719-0.71484 0.92969-1.2773 0.54297-8.6133 4.5586-6.0625 0.74219-1.4414-4.3359-1.0898-0.10547-1.0898-0.34766-1.3008 0.14844-0.94531-0.40625-0.59766-0.875-1.0938 0.070312-1.0977-0.03125-0.87109-0.56641-0.67969-0.83594-1.3711 0.027344-1.0273-0.57031-1.2578 0.33594-0.48828 0.91797-0.84375 0.57422-0.96875 0.73438-0.73828 0.82031-1.1875 0.48047-1.375 0.46484-1.4492 0.25391-1.0391 0.0625-1.1836-0.24609-1.4297-0.73828-2.1758-0.38281h-1.4023l-1.0195 0.35547-2.0352-0.10938-0.94922-0.40625-0.79688-0.66016-1.2812-0.55078-0.92188-0.58594-1.1289-0.64453-1.0156-0.65625-1.4961-0.89453-2.3125-2.0195-1.1797-0.91016-0.83984-0.65234-2.3164-1.6016-1.6836-0.74219-0.96875-0.57422-1.0703 0.16797-1.2891-0.0625-1.0781 0.09375-1.0547-0.16406-0.90234-0.5625-1.8086 0.27344-1.8633-0.19922 0.41016 1.2812 0.57031 0.88672 0.40625 1.0117 0.25 1.3555 0.39844 1.082 0.046875 1.125 0.75 1.1016 0.89453 1.2891 0.69922 1.2891 0.32422 1.1602 0.29297 1.1719 0.14453 1.168-0.72266 0.83984-0.35938 1.0117-0.89062 0.52344-1.2305 0.61719-1.1562 0.23828-1.9492 0.27344-0.98438 0.38281-1.4414 0.14453-2.4062-0.51953-1.293 0.082032-1.375-0.19141-1.1016-0.28516-1.3984-0.15234-1.0625 0.16797-1.1055 0.097656-1.7578 0.33203-1.1055 0.39844-1.0742 0.60547-0.73828 0.84766-0.87109 0.52344-0.066406 1.1328 0.21094 1.1953 0.94531 0.57422 1.0898 0.5625 0.53906 1.0391-0.53516 0.95312-0.67578 0.80469-0.33984 1.0547-0.98828 0.45703-0.65234 0.88281-0.85547 0.94141-1.1172 0.32422-1.1367-0.375-0.89062-0.54688-1.0625-0.30078-0.94141 0.53125-0.63281 0.77734-0.30469 1.1445-0.25781 1.0312-0.96094 0.32812-0.79297 1.0312-0.21094 1.0977-0.25391 1.1445-0.35547 0.94141 0.17969 1.2852-1.0977 0.63672-0.80469-0.69531-0.75391-0.73828-0.97266-0.33203-1.1289-0.375-1.4766-0.14062-1.0781-0.003906-1.1992 0.26172-1.0391 0.17578-1.5273-0.09375-1.1562-0.13281-1.0898 0.12891-0.99219 0.65234-0.88672-0.81641-0.86719-0.88281-0.66406-0.90625 0.0625-1.0703-1.543-0.50391-1.3008-0.42188-1.0156-0.074219-1.1641-0.37891-0.67578-0.79688-0.86328 0.56641-0.058594 1.0625 0.40625 1.0234-0.42578 0.98828 0.085937 1.0391 0.35547 0.98828-0.023438 1.3281-0.42969 0.94141 0.22656 1.0117 0.14453 1.1406-0.22266 0.97266-0.42969 1.0039-0.48047 0.88281-1.0234-0.13672-0.92969 0.37109-1.0938 0.046875-1.0898-0.21875-0.97656 0.42188-1.0156-0.10547-1.1484 0.035156-0.94141 0.48438-0.82812 0.92578-0.75781 0.73828-0.61719 0.85156-0.9375 0.44922-1.0664 0.19922-0.64062 0.88672-0.33984 0.99219-0.14062 1.0898-0.78906 0.76172 0.097656 1.0195-0.21094 1.0859-0.32812 1.0664-0.30859 1.0312-0.86719 0.57422 0.21875 1.0039-0.55469 0.87891 0.32422 0.96875 0.28125 1.0742-0.44531 0.97266-0.95703 0.50391-0.64453 0.83594-0.015625 1.0859-0.39844 0.96484 0.18359 1.0898-0.11328 1.0469-0.45312 0.89062 0.40625 1.0508 0.50391 0.99609 0.17969 1-0.31641 0.98828-0.003906 1.0625-0.003907 1.1562v1.0312l-0.41797 0.99219-0.60938 1.082-0.5625 0.95312-0.80469 0.59375-0.67578 0.8125-0.73828 0.70312-0.82422 0.60547-0.85547 0.54297-1.0078-0.23047-0.95703 0.35938-0.85156 0.58984-0.98828 0.30078-1.0391-0.375-1.1719 0.74219-1.0391 0.64453-1.0078 0.625-0.97266 0.39453-1.2109 0.019531-1.0703-0.058593-1-0.24609-0.96484-0.3125-0.84375-0.59766-1.0156 0.31641-0.96484 0.41016-1.0039 0.22656-0.80859 0.65625-0.92578 0.52344-0.50781 0.90625-0.64453 0.8125-0.035156 1.0156-0.23047 1.0234-0.46484 0.90625-0.10156 1.043-0.54297 0.99219-0.55469 0.86328-0.74609 0.66406-0.83594 0.67188-0.89062 0.50781-0.90625 0.4375-0.92969 0.39453-0.88672 0.79297-0.84375 0.66406-0.91406 0.44922-0.82031 0.75781-0.72656 0.80078-0.60938 0.83594-0.58203 0.85156-0.75781 0.66797-0.76562 0.70703-0.66406 0.75391-0.72656 0.72656-0.37109 0.94531-0.76562 0.75-0.36719 0.9375 0.082031 1.2422 0.22266 1.0039 0.31641 0.98047 0.51172 0.96094 0.33203 0.98828-0.30078 0.99609-0.34766 0.99609-0.46875 0.91797-0.91406 0.80078-0.74609 0.70312-0.64844 0.77344-0.50781 0.875-0.57031 0.83594-0.60156 0.82422-0.38672 0.94922-0.37891 0.98047-0.55078 0.84766-0.69531 0.89453-0.57812 0.87109-0.92969 0.51172-0.37891 1.0156-1.082 0.15625-0.80078 0.69531-1.1016 0.22656-1.0547 0.35156-0.83984-0.69141-0.53125-0.90625-0.23438-1.0234-0.31641-1.0586-0.10938-1.0234-0.16797-0.99609-0.97656 0.57422-0.99609 0.44922-0.44531 0.89844-1.1406-0.58984-0.10547-1.0234-0.93359-0.39062-1.0195 0.11328-1.0039 0.20312-0.42578 1.0117-0.94141 0.57812-0.81641-0.59766-1.6133-0.97656-0.62891-0.78125-1.0352-0.078125 0.23438-1.0508 0.47656-0.91406-0.48438-1.0078-1.1055-0.19141-1.0703-0.64844-1.0469-0.18359-0.73828 0.80078-1.1133 0.17969-0.63281-0.92188-0.98438-0.32031-1.0586-0.25781-1.1094 0.5-0.78125-0.73438-0.375-1.1094-0.9375-0.40234-0.35156-0.98828-0.875-0.58984-1.2148 0.023438-0.89453 0.62109-1.1016 0.38281-1.0312-0.21094-1.0352-0.51562-0.9375-0.66797-0.42969-0.99219-0.54297-0.90234-1.2773-0.36719-1.0391-0.57422-1.1406-0.17969-0.17578-1.043 0.60938-0.91406-1.1016-0.25391-1.6094-0.10156-0.99609-0.24219-0.94531-0.46875-0.28906 1.0469 0.3125 1.1562 0.17188 1.0078 0.35938 1.0469-0.97266-0.45703-0.39844-0.91797-1.168-0.24609-0.92188-0.65625-0.88281-0.60938-1.1758-0.89062-1.0078-0.53516-1.0391-0.57031-0.73047 0.85938-0.20312 1.1445-0.17578 1.0469-0.41016 1.0703-0.29688 0.98828 0.54297 0.91016-0.73047 0.76953-0.60547 0.83594-0.55469 0.89062-1.1172-0.29297-0.85547-0.60938-1.1836 0.18359-0.85938-0.66406-0.28125-1.0547 0.0625-1.1055-0.41797-1.1484-0.25-1.0156-0.43359-0.91016-0.53516-0.90625-0.14062-1.0273-0.24219-1.0859-0.56641-0.83984 0.57812-0.99609 0.21094-1 0.38672-1.0078-0.32812-1.0508-0.28125-1.0039-0.50391-0.96094-0.64062-0.82031-0.75391-0.89062 0.50781-0.95703 0.21094-0.98047-0.73047-0.83594-0.38281-1.0469-0.44531-1.1367-1.0547-0.14844-0.83594 0.5625-0.57031 0.85938-0.88672 0.55859-1.0078 0.17578-1.0586 0.15625-0.78125-0.6875-1.1914-0.29688-1-0.35938-0.99219-0.26953-0.56641 0.86719-0.48047 0.96484-0.71484 0.71875-0.63672 0.82812-1.0703 0.26953-0.92969 0.42969-0.97266 0.4375-0.82031 0.60156-1.0977 0.16016-1.1562-0.085938-1.2383 0.19922-0.95312-0.34375-0.9375-0.46484-1.0742 0.15234-0.95703-0.40625-0.90625-0.52734-1.1406-0.10938-0.99609 0.28906-1.2031-0.16797-1.0742-0.125 0.79688 0.96484 0.78516 0.87109 0.26172 0.99219 0.80469 0.92578 0.88281 0.71094-0.35547 1.168-0.29297 0.98828-1.0664 0.42188-0.34766 1.0391-0.03125 1.2461-0.73047 1.125-0.375 0.99219-0.47656 1.0078-1.0547-0.15234-1.0391 0.22656-1.0078 0.16016-1.0273-0.11328-0.89453-0.52344-0.70703 0.76562-0.90234 0.82812-1.1523-0.18359-1.1055 0.17969-1.082-0.37109-0.73828 0.73047-0.63281 0.81641-0.78906-0.63672-0.92188-0.96875-0.82422-0.82422-0.67969-0.77344-1.0234 0.60156-0.34766 0.98047-1.0156 0.042968-0.83594 0.90234 0.10547 1.2695-0.51953 0.93359-0.99219 0.16016-0.93359 0.40625-0.76172 0.65234-0.87109 0.57422-0.96094 0.62109-1.1016-0.14062-1.0039 0.13672-1.1016-0.16016-1.0156 0.074219-0.91797 0.46484-0.86328 0.51953-0.83984 0.60156-0.35547 0.9375-0.16406 0.99609-0.74609 0.73828-1.1133 0.027344-1.1875-0.22656-0.97656 0.55078-1.0234 0.15625-1.1016 0.26172-0.22656 1.0859 0.22266 0.98047-0.50781 0.92969-1.0117 0.23828-1.082 0.11328-0.98828 0.50391-0.54688 0.91797-0.67969 1.1445 0.21484 1.125-0.98828-0.44922-0.30859-1.0156-0.91016-0.41406-0.60547-0.80859-1.0352 0.082031-1.1328-0.25781-1.1172-0.10547-1.1406-0.25781-1.125 0.0625-0.48828-0.91016-0.65625-0.83203-0.42969-0.91797-0.80859-0.83594-0.71875-0.8125-0.95703-0.35156-1.0156 0.22266-0.58594-0.90234-0.19531-0.98828 0.32812-0.96875 0.078125-1.0391-0.62109-1.0273-0.1875-1.0469-0.32031-0.99219 0.30078-0.96875-0.90625-0.49609-1.1367 0.011719-1.0898 0.019531-1.0859-0.375-0.97266-0.53906-0.36328-1.1602-0.37109-0.96484-0.16797-1.0117-0.21484-1.0156-0.71875 0.97266-1.25 0.5625-0.875 0.72656-1.0508-0.33203-0.67969-0.76562 0.54688-0.88281-0.45312-0.90234-0.55078-0.84375-0.66406-0.92578-0.55469-1.0625 0.47656-0.98438 0.078125-1-0.042969-1.0703-0.38281-1.0117-0.35156-1.0273-0.53906-0.85938-0.73828-0.76172-1.0234-0.16797-0.86719-0.51562 0.25391-1.0234 0.089844-1.1172-0.66016-0.85547-0.91797-0.50781-0.48438-0.95312-0.34766-1.0352 0.03125-1.1836-0.14453-1 0.14844-1.0312 0.44922-1.0117-0.28906-1.0312-0.003906-1.0195-0.65625-0.86328-0.87109-0.49609-0.45703-0.92578 0.003906-1.0078 0.32812-1.0117 0.42969-1.0312 0.35938-1.0312-0.070313-0.99609-0.48828-0.90625-0.003906-1.0547 0.29688-0.99219 0.41016-1.0312-0.23047-1.0547-0.42969-0.95703 0.23047-0.98828-0.21094-1.0508-0.046875-1.0586-0.27734-1.0117-0.085937-1.0547 0.042969-1.2422-0.20312-1.1719 0.90625-0.83594 1.1211-0.19531 1.0703-0.33203 1.2266-0.015625 1.0195 0.035156 0.85938 0.60938 0.54297-1.1172 0.52344-1.1641 0.19141-1.2852 1.0352-0.49219 1.0547 0.32422 1.0039 0.46875 1.1953 0.14844 0.69922-1.8945 0.92188-0.50391 1.9609-0.17969 1.4102-0.19922 1.0508 0.23438 1.0195-0.015625 0.28125-0.97656-0.53516-1.1289 0.15625-1.043-0.30469-1.0312 0.25-1.0859-0.17969-1.0078 0.17969-1.0586-0.1875-1.1445-0.21875-0.98047-0.30469-1.0977-0.54688-0.97656-0.87891-0.61719-0.14062-1.082 0.003906-1.2383 0.14844-0.99609-0.36328-0.96875 0.26953-1.2617 0.74609-0.81641 0.28906-1 0.48047-0.94922 0.0625-1.1484-0.042969-1.0508-0.48438-0.96484-0.80859-0.88672-0.71484-0.89844-0.625-0.88672-1.1758-0.34375-0.83594-0.75391-0.37891-0.99219-0.003907-1.0312 0.35547-1.1797-0.80078-0.64453-0.3125-1.0781-0.53516-1.0312-0.32031-0.96484-0.99609-0.53906-0.24219-1.2578-0.51953-1.3398-0.82422-0.74609-0.66016-0.80469 0.082031-1.043-0.35547-1.0547-0.40625-1.0352-0.55078-1.0469-0.40234-1.3984-0.80469-1.3398-0.91016-0.82031-0.65625-0.77344-0.57812-1.0273-0.45312-1.2031-0.29688-1.082-0.25-1.1367-0.15234-1-0.046875-1.1445-0.039063-1.0195 0.28516-1.082-0.41797-0.92969-0.97266-0.29688-0.42969-1.0078-0.46484-1.0117-0.41406-0.96875-0.64062-0.88281-1.0391-0.54688-0.68359-0.91406-0.80859-0.77344-0.10547-1.0898-0.30469-1-0.52344-0.92969-0.26172-1.0273-0.79688-0.76172-1.0156 0.33594-0.54297 0.9375-1.1211 0.55859-1.2461-0.085938-1.0977 0.20703-0.51172 0.9375-0.625 0.91016-0.09375 1.0586-0.003906 1.082 0.25 0.99219 0.44531 1.0938 0.73828 0.76953 0.49219 0.99609-0.98047 0.39062-0.82812-0.67188-0.76562-0.67188-0.16406-0.99219-0.73828-0.875-0.76953-0.64453-0.85156-1.1445-0.70312-0.77734-0.84766-0.94141-0.60938-0.83594-1.0352-0.39062-0.82031-0.67578-0.45312-0.96484-0.10156-1.0352-0.56641-0.85156-0.55078-1.0391-0.27344-0.98438-0.49609-1.0586-0.56641-0.84375-0.58984-0.96094 0.039063-1.0469-0.52734-0.91016-0.74219-0.79297-0.042969-1.0078 0.63672-1.0781-0.50781-0.91016 0.26562-1.1992 0.95312-0.69141 0.78906-0.67578 0.83594-0.58203 0.35938-0.9375 0.99219-0.41797 1.0508 0.52344 0.91797-0.64453 1.0078-0.41797 0.95312-0.43359 1.0273-0.30469 0.65625-0.78906 0.64844-0.85938-0.066406-1.1641-0.15625-1.0703 0.82031-0.71094 0.60156-0.87109 0.046875-1.0938 0.83984-0.64453 1.5469-0.22656 0.97656-0.3125 1.1797 0.058594 0.38672-0.95312 0.21094-1.1914-0.39062-1.0391 0.94922-0.91406 0.95703-0.47656 0.51172-0.89844 0.71875-0.80859-0.21094-1.0391-0.023437-1.0078-0.19531-1.0117 0.35156-1.0508-0.074219-1.0391-0.14062-1.0234-0.54688-0.85547-0.67188-0.86719-0.71484-1.1406-0.41797-0.91406 0.26953-1.1289 0.38672-0.96484 0.13672-1.0625 1.0859-0.46094 0.76172-1.0312 0.62109-0.79688 0.60938-0.85156 0.25781-1.1914-0.35156-1.4141-0.67578-1.1172-0.24219-1.1836 0.12891-1.2969 0.69141-0.78516 0.99219-0.44922 0.3125-1.043 0.18359-1.0781 0.55078-1.0625 0.4375-0.98828 1.0469-0.27734 0.92578-0.39453 0.72656-0.80469 0.45703-1.1094 0.11719-1.0156 0.66016-1.2969 0.28125-0.96484 0.47266-0.99609 0.90234-0.46094 1.0195-0.50781 0.44531-1.2773 1.0156-0.58203 0.73438-0.84375 0.43359-0.9375-0.69531-0.78906 0.24219-1.2188 0.87891-0.70703 1.3359-0.011719 0.64453-0.93359-0.125-1.0352 0.81641-0.94922 0.11328-1.082 0.64844-0.94531 1.1367 0.074219 0.79297 0.77734 0.12109 1.2422 0.16016 1.0312 0.30078 1.0234 0.33203 1.2148 0.49609 0.94141 0.59375 1.1562 0.69141 0.89844 0.5 0.89453 0.16406 1.0352 0.15234 0.98828 0.82422 0.67969 1.0039 0.42969h1.2266l0.86719 0.61719 0.65625 0.80469 0.98438 0.54297 0.82422 0.71875 0.53906 0.94922 0.66406 1.0078 0.41406 0.95703 0.77344 0.71094 0.83984-0.55078 0.83594-0.94141 0.38281-0.97656 0.50781-0.99609 0.36719-0.95703 0.44141-1.0117 0.78125-0.67578 0.24219-1.0312 0.15625-1.0703-0.089843-1.0938-0.30078-1.0469-0.25781-1.1094-0.25391-0.97656 0.51172-0.9375 0.32422-1.0352-0.019531-1.2344 0.17578-1.1523 0.69531-0.87109 0.60938-0.82031 0.92188-0.85156-0.09375-1.1445-0.53906-0.86719 0.20703-1.1641 0.22266-1-0.30469-1.0039-0.23828-1.0508-0.29297-1.0273-0.34766-0.95312-0.09375-1.0156-0.69531-1.0195-0.47266-0.97266-0.83594-0.69531-0.75-0.89062-0.87109-0.75-0.77344-0.78125-0.65625-0.78516-0.625-1.082-0.17969-1.0273-0.09375-1.0273-0.95703-0.69922-0.85156-0.57812-0.74609-0.76562-0.99219-0.57031-0.097656-1.0312-1.125-0.51953-0.96875-0.28125-1.082-0.20703-1.082-0.007812-0.94922-0.34375-0.57812-0.82812-1.1953-0.10938-0.99609-0.23047-0.89844-0.46875-1.0547-0.33594-1.125-0.53125-1.1289 0.019531-1.0039-0.003906-1.1953-0.11328-0.97266-0.63281-1.1055-0.65625-0.92188-0.625-0.99219-0.33203-0.96484-0.44141-0.51172-0.97656-0.6875-0.79688-0.88672-0.64844-0.6875-0.74219-0.60547-0.87109-1.0117-0.33984-0.95703-0.51953-1.0195 0.039063-1.1133 0.33984-1.1289 0.11328-0.72266-0.87109-0.92578-0.45703-1.0508 0.15625-0.71875-0.76172-0.87891-0.57422-0.88281 0.53125-1.0234-0.070312-0.30078-1.0859-0.80469-0.625-0.78125-0.67969-0.90234-0.46094-0.65234-0.87109-0.32031-1.043-0.64453-0.78906-0.99219-0.35547-0.95312-0.46875-0.85156-0.94922-1.0586-0.55469-0.875-0.66016-0.57031-0.93359 0.14844-1.0508-0.71875-0.85156-1.0273-0.28125-0.99609-0.52734-0.96875-0.40625-1.0195-0.058594-1.0117-0.17969-0.92578-0.45312-0.72656-0.85156-0.92578-0.40234-0.97656-0.57031-0.79297-0.82812-1 0.03125-1.0664-0.16406-0.95312-0.32812-0.17969-1.0469 0.80469-0.64062-0.050781-1.0156-0.33984-0.94922-1.0352-0.30469-0.8125-0.63281-1.0195 0.19922-0.46875-0.96875-0.007813-1.1172-0.93359-0.50391-0.53516-0.84375 0.12891-1.0703-0.039062-1.0391-0.92578-0.47656-0.31641-0.98047-0.74609-0.76953-0.47266-0.89844-1.0156 0.019532-1.1055 0.16797-0.625-0.78516-0.64844-0.94141-0.054687-1.0156-0.68359-0.83203-0.64453-0.77734 0.15234-1.0234-0.32422-1.0859 0.5625-0.85938-0.43359-0.98828-0.77734-0.66406 0.023438-1.0117 0.32031-1.0547-0.34375-0.99609-0.92969-0.4375-0.85547-0.64844-0.73828-0.78125-0.72656-0.92969-0.39844-0.99609-0.26953-1.0273-0.18359-1.0977-0.16016-1.0312-0.58984-0.82812-0.38672-1.0664-0.90625-0.52344-0.94141-0.39453-0.89844-0.63672-0.35156-0.94531-0.023438-1.0625-0.11328-1.0156-0.29688-1.0742-0.18359-1.1055-0.85547-0.57422-0.67969-0.76172-0.89453-0.53516-0.78516-0.72656-0.57812-0.87109 0.13672-0.99609 0.027344-1.0273 0.015625-1.0938 0.089844-1.0156-0.86328-0.80469 0.10547-1.0273-0.30859-0.95703-0.16797-1.125-0.59766-0.80859-0.33203-0.95703-0.53906-0.88672 0.22266-1.0391 0.25-1.0312-0.37109-1.0195-0.96875-0.40625-1.3125-0.21484-1.1992 0.003907-1.0273-0.15234-0.8125-0.72266-0.63281-0.91406 0.015625-1.0547 0.49219-0.89844-0.078125-1.043 0.16797-1.0312-0.042968-1 0.23828-0.97266 0.33203-1.0156-0.16406-1.0625-0.78516-0.75391-0.57812-0.98438 0.082032-1.0781-0.57812-0.92969-0.91797-0.44531-0.60156-0.97266-0.56641-0.89844-0.19922-0.98438-0.55469-0.88672 0.62109-0.99219 0.15625-1.043-0.84375-0.61328 0.53906-1.0469 0.91016-0.51953 1.0312-0.035157 0.85547-0.54688 0.92969-0.46875 0.67969-1.0547 0.9375-0.65625 0.44922-1.0273 0.57422-0.88672-0.015625-1.0195 0.57812-0.90625 0.32812-1.1211 0.58203-0.82031 0.70312-0.86719 1.0781 0.29297 1.1133 0.29688 1.0469 0.20703 1.0195 0.40625 0.94922 0.42969 1.1367 0.070312 1.0859 0.32422 1 0.22266 1.0352 0.39453 1.0391 0.21875 1.0156-0.11719 0.99609-0.58203 1.1445-0.21875 1.0781-0.082031 0.69922-0.72266 0.81641-0.80859 1.0234-0.36719 0.97656-0.42188 0.74609-0.74609 0.87891-0.60156 0.85156-0.67578 0.87891-0.48047 0.73828-0.82812 0.78906-0.64453 0.78906 0.82812-0.007812 1.0312-0.41406 1.1172-0.66016 0.76172-0.33594 1.0156-0.63672 0.90234 0.51172 0.91406 0.99609 0.25781 1.1797 0.17969 1.1562 0.003906 0.94531-0.58594 1 0.039062 1.0312 0.49609 0.53906 0.96094 0.94141-0.41406 0.84375-0.5625 1.1406 0.59766 0.83203 0.6875 0.066406 1.0586-0.65234 0.82812-0.25 1.0273-0.45703 0.96094-0.76172 0.82031 0.62891 0.95703 0.70312 0.72656 1.0195 0.089843 0.52344 1.0391 0.69531 0.78125 1.0117-0.019531 0.98438 0.42188 0.21875 0.98828 0.58984 1.0039 0.88281 0.56641 1.2539 0.066407 1.0195 0.046875 0.42578-1.0898 0.64062-1.0469 1.1445 0.16797 1.207-0.40234 1.0156-0.26562 0.92188 0.47266 0.91797 0.80469 1.0117 1.1094 0.85547 0.75 1.0078 0.097656 1.3984 0.5 1.2227 0.13672 0.99609-0.14844 0.48828-0.94531 0.94141-0.37891 0.65234-1.1758 1.1602 0.011719 0.99609 0.80469 0.14844 1.0156 0.80859 0.98828 0.35547 1 1.0352 0.10547 1.0625 0.30078 1.418 0.16406 1.0273-0.32812 1.1992-0.44922 0.91797 0.50391 0.43359-1.0469 0.79688-0.79688 0.79688-0.62891 0.84766 0.69531 1.0586-0.22266 0.78516 0.81641 1.043 0.75391 0.61719-0.94922-0.023437-1.2695 1.0859-0.39844 1.2969-0.5 0.53906-1.1055 0.14844-1.1016 0.57422-0.92578 0.015625-1.0781 1.0195-0.55469 0.72656-0.83984 1.1602-0.070313 1.3711 0.11328 0.97266-0.46875 1.1758-0.6875 1.0156-0.058594 0.98828 0.21484 0.52734 1.3906 0.76562 0.78125 1.0664-0.10547 1.0586-0.26953 0.8125 0.62109 1.0625-0.058593 0.89453-0.54297 0.97266-0.36328 1.0508 0.074218 1.0117 0.39844 0.97266-0.26953 0.90625-0.55859 0.88672-0.57031 1.0039 0.57812 1.1953 0.84766 0.73047 0.85547 1.2383 0.54688 0.98438 0.21484 1.0469-0.015625 1.0312-0.17578 0.90234-0.44141 0.57031-0.87891 1.1328-0.39844 0.90625 0.54297 1.0391 0.097656 1-0.26562 1.207-0.28125 1.1914 0.31641 0.76172-0.79297 0.82422-0.64062 1.0078-0.31641 0.97266-0.24219 1.0664 0.078125 0.92969-0.42969 1.0547 0.35938 1.0391-0.16016 1.1875-0.52734 1.0273-0.007812 1.2539 0.125 0.96094-0.41797 0.97656 0.23828 1.0273-0.28906 0.99609-0.36719 0.99609-0.67188 0.93359-0.50391 0.46094 0.90625 0.55859 0.92188 0.49609 0.87109 0.94141 0.41797 0.84375 0.61328 0.6875 0.73047 0.75 0.67188 0.8125 0.73438 0.78906 0.71094 1.0195 0.18359 1.0039 0.8125 0.48438 0.95703 0.77734 0.81641-0.26953 1.0117-0.50391 1.2617 0.49609 0.99219 0.11719 0.99609 1.1797 0.089844 1.1172-0.33984 1.0352-0.12109 1.2266-0.15234 0.52734-0.91406-0.19531-1.1328 0.62891-1.2422 0.59766-0.88281 0.57812-1.1055 0.42578-1.1367-0.21484-1.0664 0.51953-1.1953 0.74219-0.9375 0.03125-1.0039 0.45703-1.0859 0.3125-0.99219 0.11719-1.1875 0.39062-1.1445 0.60156-0.98438 0.45312-0.95703 0.035156-1.0273 0.85938-0.72656 0.80078-0.99219 0.30469-1.2109 0.95312-0.97266 0.54688-0.95703 1.0781-0.23047 1.207-0.44141 0.94922-0.64844 0.96484-1.3086 0.89062-0.50391 1.3555-0.27734 0.95312-0.87891 0.51953-0.90234 1.0312-0.50781 0.98047 0.87109 0.66016 1.2812 1.2891 0.35547 1.3398-0.18359 1.0781 0.29688 0.70703 0.77344 0.21484 1.0547-0.20312 1.1133 0.58594 1.2305 0.28906 1.1914-0.042969 1.0156 0.83984 0.75781 0.15234 1.2266-0.89844 0.61328 0.57812 2.1016 0.39062 0.98828 1.1289 0.60156 0.72656 1.043-0.78125 1.0039-0.75 0.87109-0.42578 1.0703-0.23047 1.0039 0.91016 0.62109 0.80078 1.0742 0.18359 1.2227 0.29688 0.96875 0.95703 0.82031 0.75781 0.98828 0.43359 1.0625-0.35547 1.2266 0.90234 0.72656 0.92969-0.73828 1.25 0.11719 0.98828 0.86719-0.44922 1.0938-0.67969 0.95312 0.94141 0.72266 0.90625 0.48828 0.72656 0.8125-0.37109 0.94922 0.46484 0.94141 0.97656 0.64844 0.59766 0.9375-0.82422 0.79688-0.60938 1.0117 0.37109 1.1367 0.88672 0.625-0.55469 1.0312-0.48438 0.90234 0.14062 1.0938 1 0.62891 0.92578 0.48438 0.71484 0.85547 0.47656 1.1641 0.35938 1.2773 0.17969 1.2305-1.0234 0.1875-0.89453-0.61328-1.207-0.125-0.60156 0.94922 0.89453 0.53906 0.92578-0.44531 0.60938 1.1562-0.19531 1.3008-0.38672 1.0234 1.0156 0.70703 1.1055 0.8125 0.61719 0.79688 0.13672 1.0977 0.32422 1.0195 0.88672 0.97656 0.81641 0.79688 0.10938 1.0469-1.0625 0.37891-0.99219-0.27344-0.33203 0.97266 1.4727 0.42188 0.53125 0.85547-0.97266 0.33984-0.66797 0.76562 0.73438 0.83203 0.73828 0.80469-0.003906 1.0625-0.50391 1.0898 0.35547 1.1172 1.0117-0.16016 0.90625-0.71484 0.97266-0.39844 0.54688-0.89453 0.054687-1.0781 1.1406-0.39844 1.1719-0.55859 0.37891-1.1836 0.0625-1.2031 1.0156 0.054687 1.0547 0.37891 0.88281-0.53516 1.168 0.21094 0.97266-0.33594 0.80859-0.65234 0.21484-1.1211-0.22656-0.98828 0.39062-0.97266 0.28125-0.97656 0.93359 0.39062 0.57422-1.0352 0.25781-0.99219 0.70703-0.74609 0.42969-0.97656-0.90625-0.49219 0.74609-0.70703-0.15625-1.0664 0.27344-1.0469 0.070313-1.0352 0.41797-0.94922 0.66797-0.84375 0.125-1.125-0.011718-1.0352 0.97656-0.42578 0.30859-0.98828 1-0.26172 0.94531-0.41797 0.84375 0.63281 0.58203-0.8125 0.92188-0.56641 0.03125-1.0078-0.40625-0.98047-0.85938-0.63672-1.0547-0.03125 0.003906-1.1133-0.69141-0.73828 0.65234-0.88281-0.49609-0.91797 0.42578-0.96875-0.64453-0.82812 0.28125-1.0586 0.1875-1.1562-0.47656-0.96875-0.47656-0.89453-0.99219-0.93359-0.31641-0.95312-0.003906-1.0156 0.51562-0.86719 0.21875-1.0508 0.44141-1.043 0.16406-1.0039-0.027344-1.0977-0.38281-1.0078 0.12891-1.0391 0.21875-1.0352 0.15625-1.0469 0.042969-1.0664 0.027343-1.2031-0.16797-1.0273-0.32031-1.0664-0.10547-1.0703-0.11328-1.2109-0.023437-1.2031 0.44922-0.91797-0.13281-1.0156 0.36719-1.0039 0.52344-0.92188 0.81641-0.63672 0.20312-1.1992-0.18359-1.3984 0.67188-1.1992 1.0078-1.0547 0.019531-1.4102-0.12109-1.2539 0.23828-1.2109-0.375-1.1055-0.44531-1.0156 0.72656-0.82812 0.84766-0.5625 0.46875-0.96484 0.75-0.99219 0.15625-1.2109 0.18359-1.0156 0.73047-1.6836 0.64453-1.0273 1.1055-0.16016 0.92578 0.42969 1.1875-0.17188 0.81641-0.79297 0.87109-0.61328 1.1836-0.039063 0.8125 1.3672 1.0312 0.62891 0.35156-0.95312 0.64062-0.99609 1.3672-0.23047 0.87891-0.66797 1.1133-0.21094 1.0586-0.054687 1.0312-0.19531 0.92969-0.42188 0.23828-1.0859 1.0312 0.59766 0.91406 0.67969 0.92969 0.078125" fill="none" stroke="#fff" stroke-linecap="round" stroke-linejoin="round" stroke-miterlimit="10"/>
<path d="m199.09 301.45c0 3.5898-2.9102 6.5-6.5 6.5s-6.5-2.9102-6.5-6.5c0-3.5898 2.9102-6.5 6.5-6.5s6.5 2.9102 6.5 6.5" fill="#28c028" fill-rule="evenodd" stroke="#000" stroke-linecap="round" stroke-linejoin="round" stroke-miterlimit="10"/>
<path d="m70.73 295.45v-16.469h3.3281v6.4844h6.5v-6.4844h3.3281v16.469h-3.3281v-7.2031h-6.5v7.2031zm16.578-16.469h3.3125v8.9219c0 1.418 0.039062 2.3359 0.125 2.75 0.14453 0.67969 0.48438 1.2188 1.0156 1.625 0.53906 0.40625 1.2734 0.60938 2.2031 0.60938 0.9375 0 1.6445-0.19141 2.125-0.57812 0.47656-0.38281 0.76562-0.85938 0.85938-1.4219 0.10156-0.5625 0.15625-1.4922 0.15625-2.7969v-9.1094h3.3281v8.6562c0 1.9688-0.09375 3.3672-0.28125 4.1875-0.17969 0.8125-0.50781 1.5-0.98438 2.0625-0.48047 0.5625-1.125 1.0117-1.9375 1.3438-0.8125 0.33203-1.8711 0.5-3.1719 0.5-1.5742 0-2.7656-0.18359-3.5781-0.54688-0.8125-0.36328-1.4531-0.83203-1.9219-1.4062-0.46875-0.58203-0.77734-1.1914-0.92188-1.8281-0.21875-0.94531-0.32812-2.3438-0.32812-4.1875zm31.469 16.469h-3.6094l-1.4375-3.7344h-6.5781l-1.3594 3.7344h-3.5312l6.4062-16.469h3.5156zm-6.1094-6.5156-2.2812-6.1094-2.2188 6.1094zm7.9062 6.5156v-16.469h3.2344l6.75 11v-11h3.0781v16.469h-3.3281l-6.6406-10.734v10.734zm16.562-16.469h3.3125v8.9219c0 1.418 0.039062 2.3359 0.125 2.75 0.14453 0.67969 0.48438 1.2188 1.0156 1.625 0.53906 0.40625 1.2734 0.60938 2.2031 0.60938 0.9375 0 1.6445-0.19141 2.125-0.57812 0.47656-0.38281 0.76562-0.85938 0.85938-1.4219 0.10156-0.5625 0.15625-1.4922 0.15625-2.7969v-9.1094h3.3281v8.6562c0 1.9688-0.09375 3.3672-0.28125 4.1875-0.17969 0.8125-0.50781 1.5-0.98438 2.0625-0.48047 0.5625-1.125 1.0117-1.9375 1.3438-0.8125 0.33203-1.8711 0.5-3.1719 0.5-1.5742 0-2.7656-0.18359-3.5781-0.54688-0.8125-0.36328-1.4531-0.83203-1.9219-1.4062-0.46875-0.58203-0.77734-1.1914-0.92188-1.8281-0.21875-0.94531-0.32812-2.3438-0.32812-4.1875zm27.156 10.422 3.2344 1.0156c-0.5 1.793-1.3281 3.125-2.4844 4-1.1484 0.875-2.6016 1.3125-4.3594 1.3125-2.1875 0-3.9844-0.74219-5.3906-2.2344-1.4062-1.5-2.1094-3.5469-2.1094-6.1406 0-2.7383 0.70312-4.8633 2.1094-6.375 1.4141-1.5195 3.2812-2.2812 5.5938-2.2812 2.0078 0 3.6445 0.60156 4.9062 1.7969 0.75 0.69922 1.3125 1.7109 1.6875 3.0312l-3.2969 0.78125c-0.19922-0.85156-0.60547-1.5234-1.2188-2.0156-0.61719-0.5-1.3672-0.75-2.25-0.75-1.2188 0-2.2109 0.4375-2.9688 1.3125-0.76172 0.875-1.1406 2.2969-1.1406 4.2656 0 2.0742 0.375 3.5547 1.125 4.4375 0.75 0.88672 1.7227 1.3281 2.9219 1.3281 0.88281 0 1.6445-0.28125 2.2812-0.84375 0.63281-0.5625 1.0859-1.4414 1.3594-2.6406zm5.4062-2.0781c0-1.6758 0.25-3.0859 0.75-4.2344 0.375-0.83203 0.88281-1.582 1.5312-2.25 0.64453-0.66406 1.3516-1.1602 2.125-1.4844 1.0312-0.4375 2.2188-0.65625 3.5625-0.65625 2.4141 0 4.3516 0.75781 5.8125 2.2656 1.457 1.5 2.1875 3.5938 2.1875 6.2812 0 2.6562-0.72656 4.7344-2.1719 6.2344-1.4375 1.5-3.3711 2.25-5.7969 2.25-2.4492 0-4.3984-0.74219-5.8438-2.2344-1.4375-1.5-2.1562-3.5547-2.1562-6.1719zm3.4219-0.125c0 1.8672 0.42969 3.2812 1.2969 4.25 0.86328 0.96094 1.957 1.4375 3.2812 1.4375 1.3203 0 2.4062-0.47266 3.25-1.4219 0.85156-0.95703 1.2812-2.3906 1.2812-4.2969 0-1.8945-0.41797-3.3047-1.25-4.2344-0.82422-0.92578-1.918-1.3906-3.2812-1.3906-1.375 0-2.4844 0.47656-3.3281 1.4219-0.83594 0.9375-1.25 2.3516-1.25 4.2344zm0 0" fill="none" stroke="#fff" stroke-linecap="round" stroke-linejoin="round" stroke-miterlimit="10" stroke-width="2"/>
<path d="m70.73 295.45v-16.469h3.3281v6.4844h6.5v-6.4844h3.3281v16.469h-3.3281v-7.2031h-6.5v7.2031zm16.578-16.469h3.3125v8.9219c0 1.418 0.039062 2.3359 0.125 2.75 0.14453 0.67969 0.48438 1.2188 1.0156 1.625 0.53906 0.40625 1.2734 0.60938 2.2031 0.60938 0.9375 0 1.6445-0.19141 2.125-0.57812 0.47656-0.38281 0.76562-0.85938 0.85938-1.4219 0.10156-0.5625 0.15625-1.4922 0.15625-2.7969v-9.1094h3.3281v8.6562c0 1.9688-0.09375 3.3672-0.28125 4.1875-0.17969 0.8125-0.50781 1.5-0.98438 2.0625-0.48047 0.5625-1.125 1.0117-1.9375 1.3438-0.8125 0.33203-1.8711 0.5-3.1719 0.5-1.5742 0-2.7656-0.18359-3.5781-0.54688-0.8125-0.36328-1.4531-0.83203-1.9219-1.4062-0.46875-0.58203-0.77734-1.1914-0.92188-1.8281-0.21875-0.94531-0.32812-2.3438-0.32812-4.1875zm31.469 16.469h-3.6094l-1.4375-3.7344h-6.5781l-1.3594 3.7344h-3.5312l6.4062-16.469h3.5156zm-6.1094-6.5156-2.2812-6.1094-2.2188 6.1094zm7.9062 6.5156v-16.469h3.2344l6.75 11v-11h3.0781v16.469h-3.3281l-6.6406-10.734v10.734zm16.562-16.469h3.3125v8.9219c0 1.418 0.039062 2.3359 0.125 2.75 0.14453 0.67969 0.48438 1.2188 1.0156 1.625 0.53906 0.40625 1.2734 0.60938 2.2031 0.60938 0.9375 0 1.6445-0.19141 2.125-0.57812 0.47656-0.38281 0.76562-0.85938 0.85938-1.4219 0.10156-0.5625 0.15625-1.4922 0.15625-2.7969v-9.1094h3.3281v8.6562c0 1.9688-0.09375 3.3672-0.28125 4.1875-0.17969 0.8125-0.50781 1.5-0.98438 2.0625-0.48047 0.5625-1.125 1.0117-1.9375 1.3438-0.8125 0.33203-1.8711 0.5-3.1719 0.5-1.5742 0-2.7656-0.18359-3.5781-0.54688-0.8125-0.36328-1.4531-0.83203-1.9219-1.4062-0.46875-0.58203-0.77734-1.1914-0.92188-1.8281-0.21875-0.94531-0.32812-2.3438-0.32812-4.1875zm27.156 10.422 3.2344 1.0156c-0.5 1.793-1.3281 3.125-2.4844 4-1.1484 0.875-2.6016 1.3125-4.3594 1.3125-2.1875 0-3.9844-0.74219-5.3906-2.2344-1.4062-1.5-2.1094-3.5469-2.1094-6.1406 0-2.7383 0.70312-4.8633 2.1094-6.375 1.4141-1.5195 3.2812-2.2812 5.5938-2.2812 2.0078 0 3.6445 0.60156 4.9062 1.7969 0.75 0.69922 1.3125 1.7109 1.6875 3.0312l-3.2969 0.78125c-0.19922-0.85156-0.60547-1.5234-1.2188-2.0156-0.61719-0.5-1.3672-0.75-2.25-0.75-1.2188 0-2.2109 0.4375-2.9688 1.3125-0.76172 0.875-1.1406 2.2969-1.1406 4.2656 0 2.0742 0.375 3.5547 1.125 4.4375 0.75 0.88672 1.7227 1.3281 2.9219 1.3281 0.88281 0 1.6445-0.28125 2.2812-0.84375 0.63281-0.5625 1.0859-1.4414 1.3594-2.6406zm5.4062-2.0781c0-1.6758 0.25-3.0859 0.75-4.2344 0.375-0.83203 0.88281-1.582 1.5312-2.25 0.64453-0.66406 1.3516-1.1602 2.125-1.4844 1.0312-0.4375 2.2188-0.65625 3.5625-0.65625 2.4141 0 4.3516 0.75781 5.8125 2.2656 1.457 1.5 2.1875 3.5938 2.1875 6.2812 0 2.6562-0.72656 4.7344-2.1719 6.2344-1.4375 1.5-3.3711 2.25-5.7969 2.25-2.4492 0-4.3984-0.74219-5.8438-2.2344-1.4375-1.5-2.1562-3.5547-2.1562-6.1719zm3.4219-0.125c0 1.8672 0.42969 3.2812 1.2969 4.25 0.86328 0.96094 1.957 1.4375 3.2812 1.4375 1.3203 0 2.4062-0.47266 3.25-1.4219 0.85156-0.95703 1.2812-2.3906 1.2812-4.2969 0-1.8945-0.41797-3.3047-1.25-4.2344-0.82422-0.92578-1.918-1.3906-3.2812-1.3906-1.375 0-2.4844 0.47656-3.3281 1.4219-0.83594 0.9375-1.25 2.3516-1.25 4.2344z" fill-rule="evenodd"/>
</g>
</svg>
