<?xml version="1.0" encoding="UTF-8"?>
<svg width="500pt" height="435pt" version="1.1" viewBox="0 0 500 435" xmlns="http://www.w3.org/2000/svg">
<g id="a">
<rect width="500" height="435" fill="none"/>
<path d="m130.41 142.19 0.22266 0.40234 0.59766 1.8906 0.64062 1.8203 0.80078 1.1328 0.77734 1.0352 0.57812 0.82422 0.24609 1.3672 0.52734 1.5391 0.37109 0.98047 0.63672 1.1289 0.10156 1.0195-0.30469 1.3945 0.0625 1.1055 0.26562 1.4844 0.34375 1 0.62891 1.0273 1.5703 0.015625 1.4648-0.48828 0.92969-0.88281 0.21875-1.125-0.20312-1.7383-0.089844-1.3711-0.027344-1.3438 0.12891-1.3164 0.58203-1.0156 0.90625-1.1953 1.6992-1.1523 1.1719-0.94141 1.5-1.1836 0.74219 0.74609 0.054687 1.0039 0.41016 1.4219 0.78125 0.83984 0.53125 0.85156 0.09375 1.418 0.49219 1.2734 1.4219 1.5586 0.78516 1.3203 0.60938 1.2656 0.60547 1.9492 0.16406 1.0312 0.51562 1.0391-0.89453 1.3945-0.72656 1.0977-0.34766 1.082 0.1875 1.7773 0.30859 1.0312-0.11328 1.1953-0.72266 1.0508-0.49219 1.1758-0.32031 1.1719-0.35156 0.94531 0.56641 1.8672-0.38672 1.1719-0.78516 0.80078-0.36719 1.1445 0.96484 0.99219 0.83984 0.92969 0.67188 1.3359 0.28906 1.9023 0.42578 0.95312-1.6055-0.30859-1.2734-0.007812-1.1328 0.44141-1.0469 1.207-0.66797 1.1992-1.0625 0.78125-1.1094 0.95312-0.125 1.2656-0.14844 1.6836 0.44922 1.3867 0.87109 1.3672 0.09375 1.1875-0.57812 1.3789-0.49609 1.1133-0.27734 1.043-0.10938 1.2422 0.015625 1.1719-0.19531 1.3281 0.1875 1.1328 0.66016 0.77734-0.125 1-1.3359 1.4336-0.19922 1.2578-0.90625 0.49609-1.332 1.3438-1.5391 2.0938-0.91797 0.48047-1.1367 0.34375-1.1289 0.44531-1.1797-0.023437-2.0273 0.87891-1.4062 1.2383-0.87891 0.75391-0.98828 0.47266-0.93359 0.42188-1.1641 0.42578-1.1328 0.75781-0.82812 0.82812-0.61719 1.1133-0.39453 1.4258-0.76562 1.0312-0.51953 1.4336-0.5625 0.87891-0.66016 1.6094 0.29688 1.0625-0.046875 1.4727 0.34375 1.7734-0.070313 1.4805-0.53516 0.875-0.35156 1.2461 0.67969 0.76953-0.25391 1.1562-0.88672 0.9375-0.64844 0.98047-0.58594 0.90625-1.25 0.49219-1.3008 0.35547-1.4727-0.003907-1.0078 0.15625-0.44531-0.98828-0.28516-1.0391-0.34766-1.2969-0.39844-0.96094-0.26953-1.2383-1.0234-1.1016-0.875-0.83984-1.2656-0.8125-1.1875-0.60547-0.87109-0.69922-1.0352-0.47656-1.7461-0.65625-0.88672-0.86328-1.1562-0.75-0.92188-0.49609-0.65234-0.76953-0.32031-1.0195-0.71094-0.94922-0.98828-0.56641-1.7617 0.035156-0.28516 1.3555 0.019531 1.5625-0.09375 1.2617-0.57422 1.2695-2.1016-0.18359-1.2969-0.33203-1.668 0.95703-0.58594 0.92578-1.2852 0.75781-1.3984 0.54688-1.3633 0.94141-1.0781-0.050781-1.1328 1.1719-0.79688 0.625-1.2852 0.75391-0.94531 0.4375-0.35156 1.0664 0.74609 1.0703 0.57031 1.2305-1.7109 0.44531-1.1953 0.57031-1.1719 0.35547-1.3984 0.66016-1.3594 0.49609 0.11328 1.3047 0.83984 1.707-0.96094 0.76562-1.625 0.75781-1.2148 0.77734-1.1562 1.582-0.66406 0.90234-1.0742 0.21094-1.0898 0.125-1.0781 0.003906-0.57422-1.1523-0.35156-0.96484-0.875-0.80469-0.65625-0.9375-0.3125-1.4258-0.19531-1.0039-1.1797 0.070312-1.6719 0.72266-1.1484 0.29297-1.6133 0.14844-1.5664-0.46875-1.0039-0.37891-1.1523-0.019532-1.4805 0.11719-1.043-0.80078-0.97266-0.82812-1.3633-0.26172-1.0859-0.45703-1.4492 0.007812 0.44531 1.1484 0.70312 1.0703 0.84375 1.0312 0.52734 0.95312 0.91406 0.77734 1.2734 0.5625 0.80469 0.96875 0.60156 1.5039 0.125 1.3828 0.4375 1.3906 0.30078 1.3672 0.79297 1.832 0.54297 1.8203 0.09375 1.4648 0.58984 2.0781 0.16016 1.2227 0.19531 1.2266 0.42188 1.8125 0.33594 1.5859 0.089844 1.7227-0.81641 0.74219-1.8594 0.71094-1.3164 0.48047-1.3125 0.67969-1.3438 0.92578-0.53125 1.0234-0.34766 1.4375-0.67969 1.043-1-0.21094-0.91797-1.4219-1.043-0.75391-1.2969-0.19531-0.82031 0.81641-0.48047 1.0703-0.17578 2.8672 0.14453 2.1445-0.14453 1.5234 0.375 1.7539v1.1719l0.22266 3.1836-0.89844 2.1914-0.625 0.99609-0.30469 0.95703-0.95703 1.0938-1.3711 1.6055-2.4844 2.3906-0.73047-0.71094-0.76172-0.85938-0.96094-1.3164-0.66016-1.0117-0.92578-1.3555-0.55859-1.4727-0.51953-1.1484-0.62109-1.5859-0.41016-1.332-0.30469-1.1055-0.53125-1.8242-0.42188-1.5234-0.30078-0.99609-0.25-1.3672-0.16406-1.2734-0.42578-1.6094-0.125-1.1172-0.22656-1.5977-0.09375-1.0156-0.29297-1.3242 0.26172-1.3086-0.15625-1.1172 0.019532-1.1953 0.125-1.1719-0.26953-1.5195 0.20703-1.1836 0.80859-1.3789v-1.4219l-0.65234-1.3555-0.77734-1.5742-1.0664-0.71875-1.1094-0.24609-0.98438-0.23047-1.5156 0.34375-0.51953-1.3281 0.22266-1.4766-0.25-1.2148-0.67578-1.1016-0.78906-1.3164-0.27344-1.3633-0.38672-1.3359-0.61719-1.0664-0.53516-1.2031-0.37891-1.3984-0.5-1.1289-1.0508-0.5625-1.5039-0.45312-1.6133-0.44531-0.84766-0.55859-0.96875-2.5352-0.88672-1.1172-1.0664-0.53906-1.0117-0.70312-0.97656-0.90234-1.0352-1.2734-0.41406-1.2773-0.074219-1.3438 0.097656-1.4531 0.070313-1.3516-0.13672-1.1055-0.76953-0.92969-0.78906-0.85938-0.70703-1.1133-0.57031-1.3125-0.29688-0.95703-0.57031-1.3945-0.20703-1.1953-0.15234-1.0703-0.88672-0.78125-1.3125-0.89062-0.70312-0.89844-0.17969-1.1406-0.19531-1.1562-0.14062-1.6523 0.26953-1.043 0.46484-1.3164-0.43359-1.4688-0.62891-1.3711-0.66406-1.875-0.11719-1.0117 0.054688-1.2461 0.49219-0.98828 0.73828-0.6875 1.1328 0.28906 1.0039-0.0625 1.2227-0.57422 1.3945 0.10547 1.2031 0.25391 1.3359 0.23828 1.1055 0.17188 0.98828 0.50781 1.1758 1.4844 1.8203 0.47656 1.2148-0.11328 0.92578 0.65625 1.0977 1.0117 0.99219 0.42578 1.1562 0.38281 1.0078 0.20703 1.2852-0.48828 0.87891-1.3828 0.76953-1.2266 0.38281-0.97656 0.39453-1.3477-0.019532-1.2227-0.22266-1.1055-0.32812-1.1445-0.3125-1.2344-0.17969-1.3984-0.089844-1 0.32031-1.0742 0.1875-1.0547 0.19141-1.1055 0.88281-0.80078 0.34375-1.3984 0.011719-1.9727 0.36328-1.6016 0.84375-1.332 1.1367-0.41797 0.98438 0.33203 1.3125 0.98047 1.0195 0.24609 1.0703 0.19141 1.4688 0.16016 1.3008 0.0625 0.91016 1.4258 0.81641 1.4258 0.10547 1.6992-0.015625 1.5664-0.34766 1.7695 0.17578 1.1094 0.75391 1.0859 0.61328 1.1523 0.86328 0.71875 1.4102-0.45312 1.1016-0.75391 1.3516-1.0508 0.79688-1.2109 0.84766-0.73438 1.4297 1.1602 1.3984 1.0977 1.6719 1.4297 1.3398 0.92188 1.2266 0.33203 1.3945-0.92188 1.3945-1.0586 0.83984-0.75391 0.70703-1.2109 0.25391-1.4141 0.50391-0.89844 0.62109-1.1797 1.0781-0.34375 1.375 0.71094 0.75781 0.82422 1.3047 0.94141 1.3008 0.45703 1.543 0.089843 0.95312-0.40234 0.63281-0.89453-0.21094-1.3633 0.027344-1.5-0.23047-1.0977-0.9375-1.168-0.95312-1.1445-0.73828-0.85938-0.61328-0.92578-0.78516-1.293-0.60938-1.125-0.67969-1.418-0.64453-1.0703-0.79297-1.2891-0.34375-1.0156 1.0547-0.56641 1.3125-0.46484 1.1992-0.46875 1.168-0.48438 1.3711-0.45703 1.3633-0.57422 1.1484-0.45703 1.168-0.22656 1.8789-0.027343 1.4688-0.10938 1.1289-0.46484 0.51172-1.1406 0.19922-1.5703 0.37891-1.3711 0.42969-0.94141 1.3984-1.7891 0.60938-0.96094 0.93359 0.75781 0.6875 1.0391 0.79297 0.80859 1.0391 0.5625 1.0742 0.14453 1.3203-0.015625 0.58203 0.92969 0.82812 0.83594 1.1211 0.20312 1.1445-0.85156 1.2969-0.60547 1.8086-1.0664 1.6641-0.12891 1.1953-0.33984 1.4531-0.42578 0.47266-1.1562-0.03125-1.0508-1.1406-2.7188-0.22266-1.8359 0.14062-1 0.33594-1.4062 0.73438-1.0977 1.3203 0.71094 1.2109 0.625 1.4023 0.55469 1.7812 0.46094 1.0273 0.011719 1.7812 0.027344 1.168-0.011719 1.3906 0.046875 1.375 0.078125 1.4453 0.64062 2.1562 1.625 1.9609 0.42969 1-0.10938 1.7109-0.58594 1.4727-0.83203 1.6289-0.039063 0.99609 0.17578 1.6289 0.33594 1.2383-0.097656 1.582-0.054688 1.6445-0.30469 1.25-1.043 0.69922-1.4688 0.41016-1.1875 0.22266-2.1406 0.015625-1.2656 0.29297-2.1133 0.23438-1.0977 0.44531-1.8789 0.39062-2.0273 0.57031-1.1992 0.59766-1.4727 0.22266-1.6953 0.38672-1.2383 0.78125-0.70703z" fill="#ccc" fill-rule="evenodd"/>
<path d="m130.41 142.19 0.22266 0.40234 0.59766 1.8906 0.64062 1.8203 0.80078 1.1328 0.77734 1.0352 0.57812 0.82422 0.24609 1.3672 0.52734 1.5391 0.37109 0.98047 0.63672 1.1289 0.10156 1.0195-0.30469 1.3945 0.0625 1.1055 0.26562 1.4844 0.34375 1 0.62891 1.0273 1.5703 0.015625 1.4648-0.48828 0.92969-0.88281 0.21875-1.125-0.20312-1.7383-0.089844-1.3711-0.027344-1.3438 0.12891-1.3164 0.58203-1.0156 0.90625-1.1953 1.6992-1.1523 1.1719-0.94141 1.5-1.1836 0.74219 0.74609 0.054687 1.0039 0.41016 1.4219 0.78125 0.83984 0.53125 0.85156 0.09375 1.418 0.49219 1.2734 1.4219 1.5586 0.78516 1.3203 0.60938 1.2656 0.60547 1.9492 0.16406 1.0312 0.51562 1.0391-0.89453 1.3945-0.72656 1.0977-0.34766 1.082 0.1875 1.7773 0.30859 1.0312-0.11328 1.1953-0.72266 1.0508-0.49219 1.1758-0.32031 1.1719-0.35156 0.94531 0.56641 1.8672-0.38672 1.1719-0.78516 0.80078-0.36719 1.1445 0.96484 0.99219 0.83984 0.92969 0.67188 1.3359 0.28906 1.9023 0.42578 0.95312-1.6055-0.30859-1.2734-0.007812-1.1328 0.44141-1.0469 1.207-0.66797 1.1992-1.0625 0.78125-1.1094 0.95312-0.125 1.2656-0.14844 1.6836 0.44922 1.3867 0.87109 1.3672 0.09375 1.1875-0.57812 1.3789-0.49609 1.1133-0.27734 1.043-0.10938 1.2422 0.015625 1.1719-0.19531 1.3281 0.1875 1.1328 0.66016 0.77734-0.125 1-1.3359 1.4336-0.19922 1.2578-0.90625 0.49609-1.332 1.3438-1.5391 2.0938-0.91797 0.48047-1.1367 0.34375-1.1289 0.44531-1.1797-0.023437-2.0273 0.87891-1.4062 1.2383-0.87891 0.75391-0.98828 0.47266-0.93359 0.42188-1.1641 0.42578-1.1328 0.75781-0.82812 0.82812-0.61719 1.1133-0.39453 1.4258-0.76562 1.0312-0.51953 1.4336-0.5625 0.87891-0.66016 1.6094 0.29688 1.0625-0.046875 1.4727 0.34375 1.7734-0.070313 1.4805-0.53516 0.875-0.35156 1.2461 0.67969 0.76953-0.25391 1.1562-0.88672 0.9375-0.64844 0.98047-0.58594 0.90625-1.25 0.49219-1.3008 0.35547-1.4727-0.003907-1.0078 0.15625-0.44531-0.98828-0.28516-1.0391-0.34766-1.2969-0.39844-0.96094-0.26953-1.2383-1.0234-1.1016-0.875-0.83984-1.2656-0.8125-1.1875-0.60547-0.87109-0.69922-1.0352-0.47656-1.7461-0.65625-0.88672-0.86328-1.1562-0.75-0.92188-0.49609-0.65234-0.76953-0.32031-1.0195-0.71094-0.94922-0.98828-0.56641-1.7617 0.035156-0.28516 1.3555 0.019531 1.5625-0.09375 1.2617-0.57422 1.2695-2.1016-0.18359-1.2969-0.33203-1.668 0.95703-0.58594 0.92578-1.2852 0.75781-1.3984 0.54688-1.3633 0.94141-1.0781-0.050781-1.1328 1.1719-0.79688 0.625-1.2852 0.75391-0.94531 0.4375-0.35156 1.0664 0.74609 1.0703 0.57031 1.2305-1.7109 0.44531-1.1953 0.57031-1.1719 0.35547-1.3984 0.66016-1.3594 0.49609 0.11328 1.3047 0.83984 1.707-0.96094 0.76562-1.625 0.75781-1.2148 0.77734-1.1562 1.582-0.66406 0.90234-1.0742 0.21094-1.0898 0.125-1.0781 0.003906-0.57422-1.1523-0.35156-0.96484-0.875-0.80469-0.65625-0.9375-0.3125-1.4258-0.19531-1.0039-1.1797 0.070312-1.6719 0.72266-1.1484 0.29297-1.6133 0.14844-1.5664-0.46875-1.0039-0.37891-1.1523-0.019532-1.4805 0.11719-1.043-0.80078-0.97266-0.82812-1.3633-0.26172-1.0859-0.45703-1.4492 0.007812 0.44531 1.1484 0.70312 1.0703 0.84375 1.0312 0.52734 0.95312 0.91406 0.77734 1.2734 0.5625 0.80469 0.96875 0.60156 1.5039 0.125 1.3828 0.4375 1.3906 0.30078 1.3672 0.79297 1.832 0.54297 1.8203 0.09375 1.4648 0.58984 2.0781 0.16016 1.2227 0.19531 1.2266 0.42188 1.8125 0.33594 1.5859 0.089844 1.7227-0.81641 0.74219-1.8594 0.71094-1.3164 0.48047-1.3125 0.67969-1.3438 0.92578-0.53125 1.0234-0.34766 1.4375-0.67969 1.043-1-0.21094-0.91797-1.4219-1.043-0.75391-1.2969-0.19531-0.82031 0.81641-0.48047 1.0703-0.17578 2.8672 0.14453 2.1445-0.14453 1.5234 0.375 1.7539v1.1719l0.22266 3.1836-0.89844 2.1914-0.625 0.99609-0.30469 0.95703-0.95703 1.0938-1.3711 1.6055-2.4844 2.3906-0.73047-0.71094-0.76172-0.85938-0.96094-1.3164-0.66016-1.0117-0.92578-1.3555-0.55859-1.4727-0.51953-1.1484-0.62109-1.5859-0.41016-1.332-0.30469-1.1055-0.53125-1.8242-0.42188-1.5234-0.30078-0.99609-0.25-1.3672-0.16406-1.2734-0.42578-1.6094-0.125-1.1172-0.22656-1.5977-0.09375-1.0156-0.29297-1.3242 0.26172-1.3086-0.15625-1.1172 0.019532-1.1953 0.125-1.1719-0.26953-1.5195 0.20703-1.1836 0.80859-1.3789v-1.4219l-0.65234-1.3555-0.77734-1.5742-1.0664-0.71875-1.1094-0.24609-0.98438-0.23047-1.5156 0.34375-0.51953-1.3281 0.22266-1.4766-0.25-1.2148-0.67578-1.1016-0.78906-1.3164-0.27344-1.3633-0.38672-1.3359-0.61719-1.0664-0.53516-1.2031-0.37891-1.3984-0.5-1.1289-1.0508-0.5625-1.5039-0.45312-1.6133-0.44531-0.84766-0.55859-0.96875-2.5352-0.88672-1.1172-1.0664-0.53906-1.0117-0.70312-0.97656-0.90234-1.0352-1.2734-0.41406-1.2773-0.074219-1.3438 0.097656-1.4531 0.070313-1.3516-0.13672-1.1055-0.76953-0.92969-0.78906-0.85938-0.70703-1.1133-0.57031-1.3125-0.29688-0.95703-0.57031-1.3945-0.20703-1.1953-0.15234-1.0703-0.88672-0.78125-1.3125-0.89062-0.70312-0.89844-0.17969-1.1406-0.19531-1.1562-0.14062-1.6523 0.26953-1.043 0.46484-1.3164-0.43359-1.4688-0.62891-1.3711-0.66406-1.875-0.11719-1.0117 0.054688-1.2461 0.49219-0.98828 0.73828-0.6875 1.1328 0.28906 1.0039-0.0625 1.2227-0.57422 1.3945 0.10547 1.2031 0.25391 1.3359 0.23828 1.1055 0.17188 0.98828 0.50781 1.1758 1.4844 1.8203 0.47656 1.2148-0.11328 0.92578 0.65625 1.0977 1.0117 0.99219 0.42578 1.1562 0.38281 1.0078 0.20703 1.2852-0.48828 0.87891-1.3828 0.76953-1.2266 0.38281-0.97656 0.39453-1.3477-0.019532-1.2227-0.22266-1.1055-0.32812-1.1445-0.3125-1.2344-0.17969-1.3984-0.089844-1 0.32031-1.0742 0.1875-1.0547 0.19141-1.1055 0.88281-0.80078 0.34375-1.3984 0.011719-1.9727 0.36328-1.6016 0.84375-1.332 1.1367-0.41797 0.98438 0.33203 1.3125 0.98047 1.0195 0.24609 1.0703 0.19141 1.4688 0.16016 1.3008 0.0625 0.91016 1.4258 0.81641 1.4258 0.10547 1.6992-0.015625 1.5664-0.34766 1.7695 0.17578 1.1094 0.75391 1.0859 0.61328 1.1523 0.86328 0.71875 1.4102-0.45312 1.1016-0.75391 1.3516-1.0508 0.79688-1.2109 0.84766-0.73438 1.4297 1.1602 1.3984 1.0977 1.6719 1.4297 1.3398 0.92188 1.2266 0.33203 1.3945-0.92188 1.3945-1.0586 0.83984-0.75391 0.70703-1.2109 0.25391-1.4141 0.50391-0.89844 0.62109-1.1797 1.0781-0.34375 1.375 0.71094 0.75781 0.82422 1.3047 0.94141 1.3008 0.45703 1.543 0.089843 0.95312-0.40234 0.63281-0.89453-0.21094-1.3633 0.027344-1.5-0.23047-1.0977-0.9375-1.168-0.95312-1.1445-0.73828-0.85938-0.61328-0.92578-0.78516-1.293-0.60938-1.125-0.67969-1.418-0.64453-1.0703-0.79297-1.2891-0.34375-1.0156 1.0547-0.56641 1.3125-0.46484 1.1992-0.46875 1.168-0.48438 1.3711-0.45703 1.3633-0.57422 1.1484-0.45703 1.168-0.22656 1.8789-0.027343 1.4688-0.10938 1.1289-0.46484 0.51172-1.1406 0.19922-1.5703 0.37891-1.3711 0.42969-0.94141 1.3984-1.7891 0.60938-0.96094 0.93359 0.75781 0.6875 1.0391 0.79297 0.80859 1.0391 0.5625 1.0742 0.14453 1.3203-0.015625 0.58203 0.92969 0.82812 0.83594 1.1211 0.20312 1.1445-0.85156 1.2969-0.60547 1.8086-1.0664 1.6641-0.12891 1.1953-0.33984 1.4531-0.42578 0.47266-1.1562-0.03125-1.0508-1.1406-2.7188-0.22266-1.8359 0.14062-1 0.33594-1.4062 0.73438-1.0977 1.3203 0.71094 1.2109 0.625 1.4023 0.55469 1.7812 0.46094 1.0273 0.011719 1.7812 0.027344 1.168-0.011719 1.3906 0.046875 1.375 0.078125 1.4453 0.64062 2.1562 1.625 1.9609 0.42969 1-0.10938 1.7109-0.58594 1.4727-0.83203 1.6289-0.039063 0.99609 0.17578 1.6289 0.33594 1.2383-0.097656 1.582-0.054688 1.6445-0.30469 1.25-1.043 0.69922-1.4688 0.41016-1.1875 0.22266-2.1406 0.015625-1.2656 0.29297-2.1133 0.23438-1.0977 0.44531-1.8789 0.39062-2.0273 0.57031-1.1992 0.59766-1.4727 0.22266-1.6953 0.38672-1.2383 0.78125-0.70703 0.28906 0.125" fill="none" stroke="#fff" stroke-linecap="round" stroke-linejoin="round" stroke-miterlimit="10" stroke-width="2"/>
<path d="m192.68 155.09 0.21484 0.10938 1.4531 0.4375 1.3789 0.55469 1.4141 0.36719 1.2305 0.125 1.1055 0.55469 2.582 1.1602 1.2773 0.61719 1.6289 0.12891 1.6055-0.12891 1.0977-0.046875 1.4219 0.24609 1.6445-0.22656 1.0273 0.042969 1.2383 0.070312 1.1719-0.24609 1.4727-0.53906 1.5859-0.36719 1.3203 0.089843 0.98828-0.26953 1.332-0.17969 1.5-0.83203 1.5703-0.43359 1.2617 0.27344 1.6367 0.37891 1.4492 0.27344 1.0234 0.16797 1.5156-0.12109 1.5234-0.22656 1.2852-0.43359 1.6211-0.11719 1.4922 0.22656 1.2852-0.23438 1.4414-0.55469 1.2656 0.44141 1.8711 0.78516 0.96094 0.49219 1.1133 0.96094 1.3047 0.45312 1.2148 0.16016 1.4531 0.26172 1-0.035157 1.6641-0.12109 1.1016-0.15234 1.5469 0.066406 1.0586 0.27344 1.0859 0.44141 1.1875 0.83984 1.1367 0.35156 0.80078 0.64062 0.80469 1.1172 0.45703 1.4922 0.59766 0.82422 0.66406 0.89453 0.98828 0.87109 1.0508 1.2617 0.6875 1.1719 0.52734 1.2109 1.0117 0.39062 1.582 0.20703 1.3516-0.046875 1.3984 0.03125 1.7812 1.5156 0.74219 0.83984 0.066406 1.625 0.78125 1.4688 0.52734 1.5352 0.34375 1.5586-0.023437 1.125-0.35156 1.3359-0.16797 1.3125-0.22266 1.0117-1.207 0.97266-0.39844 1.125 0.28125 1.0352-0.30078 1.0273 0.45703 1.4219 0.78516 1.0938 1.6406 0.14844 1.7734 0.80469 1.0586 0.74219 1.5898 0.42188 1.1016 0.44922-0.77344 0.91797-1.1562 0.71484-0.97266 1.1992-0.85938 0.79688-1.1719 0.47266-0.85547 1.0859-0.28516 1.1758-0.375 1.0273-1.0898-0.23828-1.0469-0.33984-1.3086 0.38281-2.0547 0.79297-1.3711 0.92188-0.89062 0.53125-0.87891 0.85547-1.1484 0.18359-1.3555 0.003906-1.1914 0.28906-1.0117 0.34375-1.6289 0.6875-1.3711-0.18359-1.3203-0.17969-3.9219-0.36719-1.0312-0.125-1.7695-0.61328-1.9375-0.56641-1.1289-0.23828-1.1758-0.31641-0.98828-0.58594-1-1.3164-1.0078-0.58594-1.3398-0.35156-1.1992-0.16406-1.3867-0.1875-1.9258-0.25781-2.2578-0.73047-1.3867-0.023437-1.1016 0.28125-0.91797 0.49609-1.3164 1.125-0.96094 0.66016-1.1523 0.72656-2.1875 0.66016-1.5 0.09375-1.707-0.011718-1.0039-0.41797-0.27344-1.2422-0.77734-0.6875-1.3086 0.41016-1.1953 0.60156-0.78516 0.62891-1.0273 0.66406-0.96484 1.1719-1.3867 1.207-0.92578 1.1055-1 0.88672-1.0156 0.28125-1.2109-0.14062-1.3789 0.17969-1.7266 0.22266-0.87891 0.52344-1.5586 0.22266-0.98828 0.41797-1.8867-0.039063-1.2852-0.62109-0.69922-0.84375-1.4219-0.5-1.2656-0.76172-1.1836-0.32422-1.0859-0.34766-1.6094-0.82031-1.1328-0.35156-1.1055-1.0938-0.76562-1.0391-1.1523 0.11328-1.2383 0.55078-1.0195 0.87891-1.5195 0.57422-1.2734 0.51953-0.89453 0.83203-1.0195 1.0352-0.87891 0.72656-1.1875 0.66406-1.0039 1.0195-1.1211 1.7461-0.71875 1.4609-0.5625 1.625-0.53125 1.1875-0.89453 1.3242-1.6836 1-0.65234 0.76172-1.9531-0.73438-1.1328-0.57812-0.82031-0.76172-0.94531-0.35938-0.96875-1.0117-1.4648-0.82031-0.94531-0.69922-0.82812-2.418-0.75781-0.98828-0.82812-0.70703-0.95312-1.3125-0.84766-0.83203-0.84375-0.55469-1.2266-1.043-0.625-0.83594-0.52344-1.0312-1.2109-0.60547-0.44531-1.5-0.37891-1.168-0.30078-1.125-0.007813-2.0469-0.49219-1.3516-0.47266-1.1367 0.23828-1.457 0.21484-1.5391-0.42969-1.5391 0.12109-1.418 0.011718-1.2227-0.48438-1.0234-0.42578-0.95312-0.22266-1.1953-0.3125-1.418-0.86328-1.1523-0.85547-0.78125-0.56641-0.87891 1.207-1.6797 0.38672-1.1719-0.48047-1.3477-0.007813-1.0664 0.59375-1.5703 0.35547-0.94922 0.66406-0.89062 0.3125-0.95312-0.13672-1.3203-0.27734-1.5898 0.085938-1.1172 0.48438-1.1172 0.95703-1.0078 0.28906-1.1172 1.9961-0.90234 1.5156-0.42578 1.4453-0.26562 1.1133-0.046875 0.89844-0.54688 1.5664 0.46484 1.1211 0.1875 1.1836 0.5 1.1094 0.21484 1.2305-0.34766 1.0352-0.027344 1.0508-0.1875 1.3125-0.63672 1.1289-0.64844 1.4766-0.8125 1.2812-0.54688 1.1992-0.26562 1.3789 0.058593 1.2539 0.007813 1.0586-0.019531 0.93359-0.6875 1.2109-0.3125 1.0078-0.11328 1.0781 0.039063 0.73438-0.70703 1.2656-0.56641 1.0742-0.52344 1.293-0.32031 1.5703-0.24219 1.6211-0.085938 1.0781-0.13281z" fill="#ccc" fill-rule="evenodd"/>
<path d="m192.68 155.09 0.21484 0.10938 1.4531 0.4375 1.3789 0.55469 1.4141 0.36719 1.2305 0.125 1.1055 0.55469 2.582 1.1602 1.2773 0.61719 1.6289 0.12891 1.6055-0.12891 1.0977-0.046875 1.4219 0.24609 1.6445-0.22656 1.0273 0.042969 1.2383 0.070312 1.1719-0.24609 1.4727-0.53906 1.5859-0.36719 1.3203 0.089843 0.98828-0.26953 1.332-0.17969 1.5-0.83203 1.5703-0.43359 1.2617 0.27344 1.6367 0.37891 1.4492 0.27344 1.0234 0.16797 1.5156-0.12109 1.5234-0.22656 1.2852-0.43359 1.6211-0.11719 1.4922 0.22656 1.2852-0.23438 1.4414-0.55469 1.2656 0.44141 1.8711 0.78516 0.96094 0.49219 1.1133 0.96094 1.3047 0.45312 1.2148 0.16016 1.4531 0.26172 1-0.035157 1.6641-0.12109 1.1016-0.15234 1.5469 0.066406 1.0586 0.27344 1.0859 0.44141 1.1875 0.83984 1.1367 0.35156 0.80078 0.64062 0.80469 1.1172 0.45703 1.4922 0.59766 0.82422 0.66406 0.89453 0.98828 0.87109 1.0508 1.2617 0.6875 1.1719 0.52734 1.2109 1.0117 0.39062 1.582 0.20703 1.3516-0.046875 1.3984 0.03125 1.7812 1.5156 0.74219 0.83984 0.066406 1.625 0.78125 1.4688 0.52734 1.5352 0.34375 1.5586-0.023437 1.125-0.35156 1.3359-0.16797 1.3125-0.22266 1.0117-1.207 0.97266-0.39844 1.125 0.28125 1.0352-0.30078 1.0273 0.45703 1.4219 0.78516 1.0938 1.6406 0.14844 1.7734 0.80469 1.0586 0.74219 1.5898 0.42188 1.1016 0.44922-0.77344 0.91797-1.1562 0.71484-0.97266 1.1992-0.85938 0.79688-1.1719 0.47266-0.85547 1.0859-0.28516 1.1758-0.375 1.0273-1.0898-0.23828-1.0469-0.33984-1.3086 0.38281-2.0547 0.79297-1.3711 0.92188-0.89062 0.53125-0.87891 0.85547-1.1484 0.18359-1.3555 0.003906-1.1914 0.28906-1.0117 0.34375-1.6289 0.6875-1.3711-0.18359-1.3203-0.17969-3.9219-0.36719-1.0312-0.125-1.7695-0.61328-1.9375-0.56641-1.1289-0.23828-1.1758-0.31641-0.98828-0.58594-1-1.3164-1.0078-0.58594-1.3398-0.35156-1.1992-0.16406-1.3867-0.1875-1.9258-0.25781-2.2578-0.73047-1.3867-0.023437-1.1016 0.28125-0.91797 0.49609-1.3164 1.125-0.96094 0.66016-1.1523 0.72656-2.1875 0.66016-1.5 0.09375-1.707-0.011718-1.0039-0.41797-0.27344-1.2422-0.77734-0.6875-1.3086 0.41016-1.1953 0.60156-0.78516 0.62891-1.0273 0.66406-0.96484 1.1719-1.3867 1.207-0.92578 1.1055-1 0.88672-1.0156 0.28125-1.2109-0.14062-1.3789 0.17969-1.7266 0.22266-0.87891 0.52344-1.5586 0.22266-0.98828 0.41797-1.8867-0.039063-1.2852-0.62109-0.69922-0.84375-1.4219-0.5-1.2656-0.76172-1.1836-0.32422-1.0859-0.34766-1.6094-0.82031-1.1328-0.35156-1.1055-1.0938-0.76562-1.0391-1.1523 0.11328-1.2383 0.55078-1.0195 0.87891-1.5195 0.57422-1.2734 0.51953-0.89453 0.83203-1.0195 1.0352-0.87891 0.72656-1.1875 0.66406-1.0039 1.0195-1.1211 1.7461-0.71875 1.4609-0.5625 1.625-0.53125 1.1875-0.89453 1.3242-1.6836 1-0.65234 0.76172-1.9531-0.73438-1.1328-0.57812-0.82031-0.76172-0.94531-0.35938-0.96875-1.0117-1.4648-0.82031-0.94531-0.69922-0.82812-2.418-0.75781-0.98828-0.82812-0.70703-0.95312-1.3125-0.84766-0.83203-0.84375-0.55469-1.2266-1.043-0.625-0.83594-0.52344-1.0312-1.2109-0.60547-0.44531-1.5-0.37891-1.168-0.30078-1.125-0.007813-2.0469-0.49219-1.3516-0.47266-1.1367 0.23828-1.457 0.21484-1.5391-0.42969-1.5391 0.12109-1.418 0.011718-1.2227-0.48438-1.0234-0.42578-0.95312-0.22266-1.1953-0.3125-1.418-0.86328-1.1523-0.85547-0.78125-0.56641-0.87891 1.207-1.6797 0.38672-1.1719-0.48047-1.3477-0.007813-1.0664 0.59375-1.5703 0.35547-0.94922 0.66406-0.89062 0.3125-0.95312-0.13672-1.3203-0.27734-1.5898 0.085938-1.1172 0.48438-1.1172 0.95703-1.0078 0.28906-1.1172 1.9961-0.90234 1.5156-0.42578 1.4453-0.26562 1.1133-0.046875 0.89844-0.54688 1.5664 0.46484 1.1211 0.1875 1.1836 0.5 1.1094 0.21484 1.2305-0.34766 1.0352-0.027344 1.0508-0.1875 1.3125-0.63672 1.1289-0.64844 1.4766-0.8125 1.2812-0.54688 1.1992-0.26562 1.3789 0.058593 1.2539 0.007813 1.0586-0.019531 0.93359-0.6875 1.2109-0.3125 1.0078-0.11328 1.0781 0.039063 0.73438-0.70703 1.2656-0.56641 1.0742-0.52344 1.293-0.32031 1.5703-0.24219 1.6211-0.085938 1.0781-0.13281 0.56641-0.082031" fill="none" stroke="#fff" stroke-linecap="round" stroke-linejoin="round" stroke-miterlimit="10" stroke-width="2"/>
<path d="m50.078 244.16 0.26172 0.10938 1.0859 0.45703 1.3633 0.26172 0.97266 0.82812 1.043 0.80078h1.125l1.1172-0.17578 1.3945 0.45703 1.207 0.42969 1.9727-0.10938 1.1484-0.29297 1.6719-0.72266 1.0547-0.17969 0.32031 1.1133 0.20703 1.0078 0.58203 1.2031 1.0547 0.95703 0.35156 0.96484 0.38281 1.0625 0.44141 0.91406 0.84766 1.0469 0.88281 1.0859 0.53125 0.96094-0.089843 1.7305 0.12891 1.0664-0.19922 1.0938 0.027344 1.1094 0.49609 1.2148 0.61328 0.94141 0.20703 1.332 0.03125 1.043 1.4062 0.28516 1.5391 0.34375 1.5195-0.14062 1.1055-0.003906 1.2461-0.78125 1.1602 0.55859 0.58594 1.4531 0.058594 1.6523 0.44141 1.1953 0.77344 0.64453 1.0391 1.9805 0.85938 0.72656 1.1328 0.90625 0.9375 0.45312 1.043-0.19141 1.125-0.046875 1.5586 0.39844 1.2148-0.32031 1.332-0.52734 1.0781-0.070313 0.86719-0.70312 0.65625-1.0586 0.30859 1.7773 0.40234 1.7734 0.16406 1.4688-0.023438 1.2109-0.49609 0.96094-0.050781 1.1602 0.11328 1.1719 0.91016 0.55469 0.98047 1.5234 0.51953 1.0625 0.34766 0.98438 0.52734 1.1445 0.097656 1.1797 0.65625 0.92188 0.23828 2.1914 0.011719 1.2461-0.21094 1.8398-0.46094 1.1797-0.15234 1.0742-0.1875 1.2852-0.5 1.0586-0.27344 1.1992-0.35156 1.0352-0.35938 1.2188-0.45312 1.2109-0.023437 1.1406-0.69141 1.1875-0.65234 1.2734-0.26562 1.1328-0.66016 1.1797-1.1406 0.51172-0.66016 1.0938-0.48047 1.1445-1.1055 0.44141-1.1406 0.85156-1.1602 0.42188-1.0625 0.71875-1.2148 0.10547-1.5938 1.3555-1.5508 0.33203-1.7461 0.82031-1.2461 0.10547-1.3789 0.83203-2.7734 1.2148-1.8281 0.51953-1.4375 0.23047-1.1445 0.007813-1.3594 0.51953-1.1289 0.44141-1.5117 0.41406-1.0078 0.66016-1.457 0.25781-1.6875 0.10156-1.1445 0.011719-1.1953-0.53125-1.4375-0.86719-1.3086-0.39453-1.0391 0.035156-0.83984 0.57812-1.1523 0.33203-0.97266 0.35547-1.7539 1.2344-1.2344-1.0078-0.82031-1.3516-0.17578-1.0195-0.17969-1.2227-0.023438-1.4844-0.75391-0.73438-1.2695-1.2344-0.48047-1.4336-0.85547-1.6445-0.27344-1.2188-1.2383-3.9922-0.82031-1.6992-2.1758-3.3008-1-0.72266-0.86719-0.88281-0.80469-0.67578-0.71875-0.77734 2.4844-2.3906 1.3711-1.6055 0.95703-1.0938 0.30469-0.95703 0.625-0.99609 0.89844-2.1914 0.007812-2.5977-0.23047-1.7578-0.375-1.7539 0.14453-1.5234-0.14453-2.1445 0.17578-2.8672 0.48047-1.0703 0.82031-0.81641 1.2969 0.19531 1.043 0.75391 0.58594 1.1484 1.332 0.48438 0.67969-1.043 0.34766-1.4375 0.53125-1.0234 1.3438-0.92578 1.3125-0.67969 1.3164-0.48047 1.2852-0.47656 1.1445-0.47656 0.30469-1.4219-0.48438-2.3867-0.21094-0.98047-0.28516-1.3945-0.10547-1.3867-0.76562-2.5781-0.09375-1.4648-0.32422-1.0703-0.49219-1.7344-0.73828-1.4883-0.34375-1.4102-0.17578-1.3789-0.21875-1.3789-0.84766-1.3672-0.95703-0.68359-1.2578-0.58984-0.70312-0.96094-0.52734-0.93359-0.81641-0.94531-0.85547-1.1055 0.77344-0.89844z" fill="#ccc" fill-rule="evenodd"/>
<path d="m50.078 244.16 0.26172 0.10938 1.0859 0.45703 1.3633 0.26172 0.97266 0.82812 1.043 0.80078h1.125l1.1172-0.17578 1.3945 0.45703 1.207 0.42969 1.9727-0.10938 1.1484-0.29297 1.6719-0.72266 1.0547-0.17969 0.32031 1.1133 0.20703 1.0078 0.58203 1.2031 1.0547 0.95703 0.35156 0.96484 0.38281 1.0625 0.44141 0.91406 0.84766 1.0469 0.88281 1.0859 0.53125 0.96094-0.089843 1.7305 0.12891 1.0664-0.19922 1.0938 0.027344 1.1094 0.49609 1.2148 0.61328 0.94141 0.20703 1.332 0.03125 1.043 1.4062 0.28516 1.5391 0.34375 1.5195-0.14062 1.1055-0.003906 1.2461-0.78125 1.1602 0.55859 0.58594 1.4531 0.058594 1.6523 0.44141 1.1953 0.77344 0.64453 1.0391 1.9805 0.85938 0.72656 1.1328 0.90625 0.9375 0.45312 1.043-0.19141 1.125-0.046875 1.5586 0.39844 1.2148-0.32031 1.332-0.52734 1.0781-0.070313 0.86719-0.70312 0.65625-1.0586 0.30859 1.7773 0.40234 1.7734 0.16406 1.4688-0.023438 1.2109-0.49609 0.96094-0.050781 1.1602 0.11328 1.1719 0.91016 0.55469 0.98047 1.5234 0.51953 1.0625 0.34766 0.98438 0.52734 1.1445 0.097656 1.1797 0.65625 0.92188 0.23828 2.1914 0.011719 1.2461-0.21094 1.8398-0.46094 1.1797-0.15234 1.0742-0.1875 1.2852-0.5 1.0586-0.27344 1.1992-0.35156 1.0352-0.35938 1.2188-0.45312 1.2109-0.023437 1.1406-0.69141 1.1875-0.65234 1.2734-0.26562 1.1328-0.66016 1.1797-1.1406 0.51172-0.66016 1.0938-0.48047 1.1445-1.1055 0.44141-1.1406 0.85156-1.1602 0.42188-1.0625 0.71875-1.2148 0.10547-1.5938 1.3555-1.5508 0.33203-1.7461 0.82031-1.2461 0.10547-1.3789 0.83203-2.7734 1.2148-1.8281 0.51953-1.4375 0.23047-1.1445 0.007813-1.3594 0.51953-1.1289 0.44141-1.5117 0.41406-1.0078 0.66016-1.457 0.25781-1.6875 0.10156-1.1445 0.011719-1.1953-0.53125-1.4375-0.86719-1.3086-0.39453-1.0391 0.035156-0.83984 0.57812-1.1523 0.33203-0.97266 0.35547-1.7539 1.2344-1.2344-1.0078-0.82031-1.3516-0.17578-1.0195-0.17969-1.2227-0.023438-1.4844-0.75391-0.73438-1.2695-1.2344-0.48047-1.4336-0.85547-1.6445-0.27344-1.2188-1.2383-3.9922-0.82031-1.6992-2.1758-3.3008-1-0.72266-0.86719-0.88281-0.80469-0.67578-0.71875-0.77734 2.4844-2.3906 1.3711-1.6055 0.95703-1.0938 0.30469-0.95703 0.625-0.99609 0.89844-2.1914 0.007812-2.5977-0.23047-1.7578-0.375-1.7539 0.14453-1.5234-0.14453-2.1445 0.17578-2.8672 0.48047-1.0703 0.82031-0.81641 1.2969 0.19531 1.043 0.75391 0.58594 1.1484 1.332 0.48438 0.67969-1.043 0.34766-1.4375 0.53125-1.0234 1.3438-0.92578 1.3125-0.67969 1.3164-0.48047 1.2852-0.47656 1.1445-0.47656 0.30469-1.4219-0.48438-2.3867-0.21094-0.98047-0.28516-1.3945-0.10547-1.3867-0.76562-2.5781-0.09375-1.4648-0.32422-1.0703-0.49219-1.7344-0.73828-1.4883-0.34375-1.4102-0.17578-1.3789-0.21875-1.3789-0.84766-1.3672-0.95703-0.68359-1.2578-0.58984-0.70312-0.96094-0.52734-0.93359-0.81641-0.94531-0.85547-1.1055 0.77344-0.89844 0.35938 0.019532" fill="none" stroke="#fff" stroke-linecap="round" stroke-linejoin="round" stroke-miterlimit="10" stroke-width="2"/>
<path d="m100 226.36 0.98828 0.56641 0.71094 0.94922 0.32031 1.0195 0.65234 0.76953 0.92188 0.49609 1.1562 0.75 0.88672 0.86328 1.1445 0.54297 1.6367 0.58984 0.87109 0.69922 1.1875 0.60547 1.2656 0.8125 0.875 0.83984 1.0234 1.1016 0.26953 1.2383 0.39844 0.96094 0.23047 1.1055 0.44141 1.0469 0.23438 0.99219-0.72656 1.5117-0.55859 1.2734-0.75391 0.93359-1.1523 0.89062-1.1406 0.96875-0.76562 0.67188-1.4219 1.8711-0.5 1.1133-0.8125 1.1406-0.25781 1.1523-0.66016 0.76172-1.0742 1.1992-0.75391 0.75391-1.4648 0.35156-1.4922 0.93359-1.3516 0.63281-1.2617 0.55078-1.1797 1.1328-0.68359 1.4336 0.089844 1.0078-0.73828 0.79297 0.066406 1.6797-0.30078 2.5195-0.11328 1.25-0.49219 1.0156-0.40625 0.91797-0.37891 1.1719 0.03125 1.0469-0.8125 1.0156-1.0938 0.46484-1.1055 0.074219-1.9102 0.79688-1.7539-0.42969-1.125 0.046875-1.043 0.19141-0.9375-0.45312-0.78125-0.69922-0.95312-0.60547-0.79688-1.9414-1.0195-0.69141-0.69531-1.5156-0.097656-1.1992-0.42969-1.4102-0.52344-1.4336-1.207 0.70703-1.1719 0.52734-1.5273 0.039062-1.5391-0.12109-2.1055 0.054687-0.019531-1.0664-0.089844-1.1406-0.38672-1.1094-0.59766-1.043-0.35156-1.2812 0.17188-1.0039-0.019531-1.1875 0.14844-2.0469-0.62109-1.1445-0.88281-1.0859-0.84766-1.0469-0.44141-0.91016 1.2695 0.082031 1.0898-0.125 1.0742-0.21094 0.66406-0.90234 0.51172-0.95312 1.8594-1.4062 1.1875-0.4375 1.0352-0.50391 0.078125-1.5156-0.69531-1.082 1.3867-1.4922 1.3984-0.66016 1.1719-0.35547 1.1953-0.57031 1.2656-0.17969 0.26953-1.0508-0.71484-1.0859-0.51953-0.93359 1.3906-1 1.2852-0.75391 0.79688-0.625 0.64062-0.79297 1.1523-0.28516 1.0625-0.49219 1.6602-0.85156 1.3633-0.62109 0.96484-1.25 0.95312-1.0156 2.0117 0.39062 1.3281 0.18359 1.1445-0.33203 0.29688-1.5977-0.019531-2.1641 0.15234-1.2617 1.0703-0.29297z" fill="#ccc" fill-rule="evenodd"/>
<path d="m100 226.36 0.98828 0.56641 0.71094 0.94922 0.32031 1.0195 0.65234 0.76953 0.92188 0.49609 1.1562 0.75 0.88672 0.86328 1.1445 0.54297 1.6367 0.58984 0.87109 0.69922 1.1875 0.60547 1.2656 0.8125 0.875 0.83984 1.0234 1.1016 0.26953 1.2383 0.39844 0.96094 0.23047 1.1055 0.44141 1.0469 0.23438 0.99219-0.72656 1.5117-0.55859 1.2734-0.75391 0.93359-1.1523 0.89062-1.1406 0.96875-0.76562 0.67188-1.4219 1.8711-0.5 1.1133-0.8125 1.1406-0.25781 1.1523-0.66016 0.76172-1.0742 1.1992-0.75391 0.75391-1.4648 0.35156-1.4922 0.93359-1.3516 0.63281-1.2617 0.55078-1.1797 1.1328-0.68359 1.4336 0.089844 1.0078-0.73828 0.79297 0.066406 1.6797-0.30078 2.5195-0.11328 1.25-0.49219 1.0156-0.40625 0.91797-0.37891 1.1719 0.03125 1.0469-0.8125 1.0156-1.0938 0.46484-1.1055 0.074219-1.9102 0.79688-1.7539-0.42969-1.125 0.046875-1.043 0.19141-0.9375-0.45312-0.78125-0.69922-0.95312-0.60547-0.79688-1.9414-1.0195-0.69141-0.69531-1.5156-0.097656-1.1992-0.42969-1.4102-0.52344-1.4336-1.207 0.70703-1.1719 0.52734-1.5273 0.039062-1.5391-0.12109-2.1055 0.054687-0.019531-1.0664-0.089844-1.1406-0.38672-1.1094-0.59766-1.043-0.35156-1.2812 0.17188-1.0039-0.019531-1.1875 0.14844-2.0469-0.62109-1.1445-0.88281-1.0859-0.84766-1.0469-0.44141-0.91016 1.2695 0.082031 1.0898-0.125 1.0742-0.21094 0.66406-0.90234 0.51172-0.95312 1.8594-1.4062 1.1875-0.4375 1.0352-0.50391 0.078125-1.5156-0.69531-1.082 1.3867-1.4922 1.3984-0.66016 1.1719-0.35547 1.1953-0.57031 1.2656-0.17969 0.26953-1.0508-0.71484-1.0859-0.51953-0.93359 1.3906-1 1.2852-0.75391 0.79688-0.625 0.64062-0.79297 1.1523-0.28516 1.0625-0.49219 1.6602-0.85156 1.3633-0.62109 0.96484-1.25 0.95312-1.0156 2.0117 0.39062 1.3281 0.18359 1.1445-0.33203 0.29688-1.5977-0.019531-2.1641 0.15234-1.2617 1.0703-0.29297 0.82422 0.16406" fill="none" stroke="#fff" stroke-linecap="round" stroke-linejoin="round" stroke-miterlimit="10" stroke-width="2"/>
<path d="m433.56 9.6094h0.11719l1.2305 0.65234 2.0781 0.65625 1.2734 0.35156 1.5352 0.73047 1.8438 1.4219 1.1562 0.23438 0.96484-0.72266 1.3906-0.26172 1.043 0.42578 1.3789 0.26953 1.2383 0.42969 1 0.15234 1.3477 0.27344 1.2305 0.12109 1 0.30859 1.5781 0.69531 1.2695 0.80859 2.1172 1.1562 1.1953 0.5 1.2305 0.88672 0.60547 0.88281 1.0391 0.80469 1.0039 0.50391 0.91797 0.92188 1.1953 1.1523 1.3828 0.69141 1.2305 0.15625 1.2734 0.61719 0.84375 0.84766 1.0352 0.88281 0.88672 0.65625 0.98047 0.97656 0.84375 0.73047 0.78516 0.82422 1 1.1523 0.56641 1.0469 0.55859 1.2227 0.83203 1.7812 0.61328 0.85938 1.0586 0.94531 1.1641 1.4492 0.91797 0.88672 0.91797 0.50391 0.91797 0.44531 1.1133 0.55469 1.1953 0.52734 1.1133 0.41797 1 0.19531 1.0859 0.55469 1.418 1.1406 1.25 0.75 0.86328 0.78125 0.72266 0.94531 0.64062 0.85938 1.3047 1.3906 1.1406 1.4766 0.69531 1.4453 0.44922 0.91797 0.35938 1.8086-0.19531 1.2773-0.16406 1.3906-0.13672 1.6758 0.125 1.5156 0.074219 1.0039 0.32422 2.4297 0.29297 1.3438 0.62109 1.7461 0.35547 1.0703-0.32422 0.95703-0.20312 1.4727-0.10938 1.2109-0.35156 0.94531-0.17578 1.0039 0.13672 1.1719-0.10547 1.0586-0.57812 0.82812-0.59766 1.0039-0.39453 0.94531-0.50391 1.168 0.26953 1.1172 0.1875 1.2969-0.76172 1.4688-1.0195 0.66016-1.0352-0.16016-0.95312 0.33984-0.19141 1.293-0.27734 1.6055-0.80078 1.207-0.83203 0.92188-0.94141 0.61328h-1.6602l-1.2969-0.53516-1.1484 0.23438-1.0586 0.49219-1.1055 0.25391-1.1758 0.25781h-2.1484l-1.3359-0.25781-0.97266 0.23438-1.3438 0.45312-1.1758 0.45703-0.87891 1.2148-1.6914 0.33984-1.0469 0.19141-1.8125 1.1328-1.1523 0.88281-0.90234 0.52344-0.94922 1.7617-1.1016 0.94531-1.0781 0.29297-1.1211-0.007812-1.9922 0.77344-1.5664 0.17969-1.1211 0.26172-2.3164 0.32422-1.0742-0.050781-1.4531 0.050781-1.7305 0.082032-1.1016 0.98047-1.4531 0.3125-2.0508-0.17969-2.2461 0.078125-2.0312-0.070313-1.4883-0.16016-1.0117-0.35547-1.625-1.7383-0.92188-0.45312-1.2656 0.36719-1.125-0.16016-1.1758-0.55859-1.5039-0.41406-1.0273-0.085937-1.5547-0.15625-2.9297-0.77734-1.7539-0.26172-1.5781-0.53125-1.4375-0.41016-1.3633 0.54297-1.1797 0.18359-1.8789 0.75391-1.6523 0.58594-1.1797 1.207-0.82422 0.63281-1.3594 0.10938-0.98828 0.18359-1.6445 0.97266-1.5781 0.44922-1.1406 0.77344-1.2617 0.31641-0.94531 0.38281-1.0781 1.1055-1.1484 0.48047-0.90625 1.2734-0.97266 0.67969-1.4062 1.6719-1.3164 0.49219-0.98047 0.79297-0.62109 1.0469-0.60156 0.91797-0.67969 0.80078-1.5977 0.95312-0.95312 0.32812-0.35547 1.2266-1.2031 0.8125-0.60156 0.99219 0.64844 1.2461 0.03125 1.5273-0.46484 1.9727-0.15234 1.0703-0.054687 1.2344-0.13281 1.5977 0.011719 1.0156 0.46875 1.2031-0.19922 1.5195-0.95703 1.1406-1.0195 1.3281-1.1055 0.63281-0.050781 1.1914-0.38281 1.3594 0.23438 1 0.1875 1.1172-0.62109 0.98047-0.91406 0.94141-1.0508 1.0781-0.70703 1.2148-0.92578 0.73828-0.6875 0.74609-0.84766 0.84766-0.59766 1.2305-0.90625 0.92188-0.94141 1.0938-1.1992 0.33984-1.0977 0.57031-1.625 1.375-0.66797 0.97266-0.75781 0.79297-0.74609 1.7852-0.32812 1.0742-0.91406 0.96484-1.3203 0.1875-1.4375 0.61328-1.1758 0.57812-1.457 1.1055-0.79297 1.1367-0.48828 1.125-1.3633 1.2656-0.3125 1.4648-0.77344 1.2891-0.93359 1.6914-0.74219 0.82031-1.0586 1.2539-0.3125 1.7383-0.98828 0.6875-0.91016 1.1719 0.99219 0.98047-0.89844 1.543-0.8125 0.79688-0.73438 1.3984-0.67188 2.4453-0.70312 0.77734 0.25781 1.1055 0.58203 0.99219-0.17578 2.5078 0.41016 2.2734 0.40625 2.332-0.69922 1.2812 0.17578 2.043 0.75781 1.2227-0.40625 1.2227-0.52734 1.457-1.2227 2.2188-1.168 0.69922-0.8125 0.58203-1.8672-0.41016-1.0508-0.23047-1.8047 0.17578-0.875 1.0469-1.2266 1.8086-0.52344 2.0391-0.17578 1.3984-0.40625 0.99219-0.99219 1.3984v1.5742l-0.058594 1.168 0.17578 1.8047-0.40625 1.0508-0.42188 1.0312-0.9375 1.3008v1.0625l-0.63672 0.94141-1 1.8203-0.55078 1.3398-0.60547 1.1758-0.44531 1.2148-1.3633-0.60547-0.98828-0.69141-1.9062-0.91406-1.0117 0.023438-0.94141 1.457-0.85547 0.98047-0.72656 0.98047h-1.0898l-1.2852-0.37891-1.7578-0.67969-1.6289-0.14453-1.0898 0.14453-1.0938 0.37891-1-0.59766-0.70312-1.1055-0.82031-0.73828-1.2578-0.43359-1.0938-0.52344-0.11719-1.082 0.082031-1.4141-0.40234-0.94531-0.54297-1.3672-0.65625-0.92578 0.73438-0.95703 0.60938-0.92578 0.5625-0.99219 0.13672-1.0898 0.25781-1.4141-1.2344-1.168-0.50391-0.97266-0.77734-0.67578-0.86719-1.1172-0.94922-0.90625-0.75781-1.0547-0.57031-1.0977-1.0156 0.20703-1.543-0.027344-1.0781-0.11328-1.293 0.15625-0.87891 0.76172-0.50391 1.3125-0.67188 0.85938-1.0195 0.94141-1.1797 0.023438-1.3477 0.050781-1.8203-1.7266-0.87891-1.4805-1.0312-1.25-1.7227 0.49609-0.99219 0.71484-1.3867-0.80078-0.98828-0.96484-1.375 0.082031-1.0391 0.13281-0.94141 0.71875-1.1797 0.95703-1.1836 0.23828-0.98828-0.28906-0.20703-1.457-0.69531-0.95312-0.65625-1.2891-0.50781-1.1211-1.0586-0.14844-1.2695-0.31641-1.457-0.52734-1.082-1.0859-0.91016-0.69531-1.5664-0.37109-1.7773-0.99219-0.86719-0.68359-1.6641-0.058594-1.3633-0.75781-0.63672-1.1211v-1.2734l-0.058594-1.1172 0.17578-1.3398 0.87891-0.97266 0.75-0.69531-0.046875-1.0312 0.49609-1.5977 0.20703-1.2617-0.34375-1.0977-0.32031-1.7656-0.73438-1.375-0.57422-1.6055v-1.1953l-2.4062-2.0078-1.3984-0.03125-1.3516 0.046875-1.2383-0.18359-1.3555-0.41406-0.52734-1.2109-0.6875-1.1719-0.77734-0.96484-0.87109-0.82422-0.89453-0.89453-0.48047-0.91406-0.73438-1.7461-0.80469-1.1172-0.80078-0.64062-1.1367-0.35156-1.1875-0.83984-1.0859-0.44141-1.0586-0.27344-1.2031-0.09375-1.043 0.039063-1.5195 0.28125-1.043 0.027343-1.25-0.17969-1.2461-0.074219-1.6797-0.44531-0.71875-0.80859-1.6562-0.83203-1.332-0.4375-1.0859-0.47656-1.4336-0.125-1.0898 0.49219-1.4727-0.10547-1.6875 0.1875-2.1602 0.35156-1.5234 0.22656-1.5156 0.12109-1.0234-0.16797-1.4492-0.27344-1.2305-0.14062-1.0352-0.51172-1.332 0.20703-1.6133 0.75781-1.1992 0.34766-1.207 0.33984-1.457-0.12109-1.1406 0.31641-2.4531 0.68359-1.1719 0.24609-1.2383-0.070312-1.0273-0.042969-1.6445 0.22656-1.4219-0.24609-1.0977 0.046875-1.6055 0.12891-1.2266-0.007812-1.207-0.46484-2.2539-1.1016-1.1914-0.54688-1.1992-0.45312-1.2148-0.13281-1.5391-0.39453-1.5938-0.42969-0.85938-0.52344-1.6445 0.21484-1.6211 0.085938-1.5703 0.24219-1.293 0.32031-1.0742 0.52344-1.2656 0.56641-0.73438 0.70703-1.0781-0.039063-1.0078 0.11328-1.2109 0.3125-0.93359 0.6875-1.0586 0.019531-1.2539-0.007813-1.3789-0.058593-1.1992 0.26562-1.2812 0.54688-1.4766 0.8125-1.1289 0.64844-1.0664 0.55078-1.2969 0.27344-1.0352 0.027344-1.2305 0.34766-1.1094-0.21484-1.1836-0.5-1.1211-0.1875-0.87109-0.51172-1.3672 0.39453-1.0742 0.25781-1.2852 0.12109-0.96484 0.41797-2.6094 0.48047-0.92578-0.56641-0.41797-2.0625-0.42578-1.2227 1.1719-0.32031 0.78906-0.66406 0.91406-0.875 1.082-0.95703 0.66797-0.87109 0.78906-0.66797 0.62109-0.78906 2.4961-1.4961 1.1328-0.67188 0.73828-0.86719 1.207-0.91406 2.1211 0.039062 1.8711 0.125 1.2031 0.042969 1.9258-0.58594 1.0273-0.30859 1.1836-0.76562 1.9023-1.9492 2.9492-1.3398 1.1211-1.2227 0.69531-1.1797 1.3438-1.3438 1.1641-0.89844 0.84766-0.5625 1.2891-1.1016 1.1367-1.2344 0.6875-0.78906 0.68359-0.73828 0.88281-0.75391 0.95312-0.32031 1.1523-0.48438 1.1289-0.35938 1.2188-0.73828 1.1445-0.44531 1.6758-0.51953 1.0586-0.42969 1.168-0.61719 1.3008-0.56641 1.5703-0.66797 0.92578-0.39062 0.89844-0.46875 1.168-0.46875 1.4062-0.41797 1.6055-0.5625 1.0625-0.74609 0.86328-0.91797 1.1797-0.49609 1.4336-0.62891 1.2578-0.80859 1.0898-0.76172 1.8516-0.58984 1.0078-0.32422 1.5547-0.25391 1.0117 0.015625 1.0273 0.19141 1.4375-0.33984 0.85938-0.61719 1.2031-0.91406 1.2891-0.63281 0.93359-0.92578 0.42578-1.0781 1.1016-0.35156 1.2305-0.58594 0.94531-0.59375 1.1484-0.47656 1.9414-0.83203 0.98828-0.37109 1.4922-0.44922 1.6836 0.49609 1.3828 0.38672 1.0703 0.65625 1.5 1.4219 1.6133 1.1953 1 0.36719 1.2305-0.60156 1.1094-0.48047 1.2227-0.25391 1.1055-0.67188 0.48828-1.0898 0.92578-1.1523 1.0898-0.625 1.3242-0.34766 1.3203-1.0039 1.5391-0.43359 0.97266-0.48828 1.1445-0.45703 1.2734-0.14844 0.96484-0.45703 2.3867 0.011719 1.4219 0.50781 1.0469-0.23047 1.1836 0.35547 0.92578 0.82031 1.0156-0.54297 1.4922-0.57031 1.4648-0.03125 1.2305-0.1875 0.99219-0.79688 0.875-0.92578 0.63672-0.91797 0.92578-0.57031 0.82422-0.66797 0.89062-1.1055 1.1602-0.53125 1.3164-0.78516 1.3867-0.25781 1.168-0.64844 0.59375-0.87891 1.2383-0.60547 1.9727-0.078125 1.1016-0.03125 1.2148 0.27344 1.2891 0.88672 1.4023 1.1406 0.57812 0.83594 0.25391 0.99609 1.2109-0.082031 1.3125-0.10156 1.5664-0.51953 0.69141-0.94531 1-0.65234 0.67969-0.88281 0.50781-0.86719 0.66016-0.95703 1.1953 0.1875h1.0078l0.93359 0.8125 1.1602-0.60156 0.28516-1.2812 0.36328-1.25 0.72266-0.89844 0.18359-1.3594 0.25781-1.1133 0.13281-1.0938 0.61328-0.87109 0.63281-0.87891 0.12109-1.2461 0.25781-1.3281 1.1055-1.1562 0.94141-0.49609 1.5195-0.16406 1.3555-0.050781 1.0156 0.21484 1.5273 0.12109 1.5625 0.125 1.5742-0.39453 1.707-0.47656 1.0977-0.92578 1.0859-0.77734 0.73047-0.75391 0.78516-0.98828 0.99609-0.21484 1.2461-0.10938 1.2422-0.67578 1.3633-0.26953 0.94922 0.42578 0.48828 1.2148 0.24219 0.98047 1.1055 0.67969 1.2891 0.76172 1.25 0.80078 1.3125 0.011719 1.0352 0.29688 1.2305-0.12109 1.5547-0.30078 0.81641-0.61719 0.97656-0.82031 1.3633-0.46875 1.1992 0.32422 1.6914 0.94141 1.4766 0.87109 0.91797 0.52734 1.043-0.10938 1.7148-0.63281 0.79688-1.2617 1.4219-0.32422 1.8711-0.95312 1.3711-0.69141 0.76172-0.66797 1.1562-0.20703 1.2891-0.10156 1.0469 0.37109 1.0508 0.17578 1.1289-0.015625 1.0156 0.078125 1.2852-0.34766 0.94531-0.63281 1.168-0.21484 1.1172-0.046875 1.3008 0.058594 1.5742 0.13281 1.9297-0.21484 1.1914-0.5625 1.4805-0.39062 1.0703-0.40625 1.1797-0.78906 1.0977-0.46094 0.30859-0.98828 0.125-1.0859 1.0586-0.71484 0.91016-0.55859 0.40234-1.0703 0.13672-1.2227 0.050781-1.2344 0.46875-1.7734 0.59375-1.6562-0.10156-1.1094-0.03125-1.2188 0.16406-1.3008 0.10156-1.1719 0.24219-1.7188 0.74219-1.4336 0.42969-1.0977 0.46484-1.418 0.28516-0.98047 0.13281-1.0352-0.33984-1.1758-0.52344-1.2031-0.57812-1.3047 0.19922-1.332 0.66016-1.0703 0.62109-1.4141 0.15625-1.2227 0.007812-1.6055 0.39062-1.1094 1.082-0.64844 3.0977-3.125 1-0.53125 1.3516-0.53125 1.5859-1.2578 0.85156-0.95312 0.8125-0.91406 1.3555-0.68359 0.92969-0.72266 1.6602-1.2188 1.0078-1.2227 1.1172-0.79688 1.0117-0.46094 1.0703 0.19922 1.1641 1.0312 0.88672 0.64453 1.1562 0.046875 0.98438-0.48047 0.89062-1.125 0.91406-1.0938 0.91406-0.52734 1.6133-0.26172 1.0859-0.22656 1.1523-0.49219 0.73828-0.72656 1.2344-0.18359 1.2305 0.65234 1.3477 0.23438 0.90625-0.66016 1.2031-1.3281 1.4648 0.23047 1.5234 0.63672 1.0781 0.035157 0.52734-1.1328-0.070312-1.2539-0.12109-1.4297 0.085937-1.0078-0.37109-1.4336-0.93359-0.6875-0.58594-0.95703 0.55078-1.3789 0.12109-1.5898-0.49609-1.3945-0.40625-0.99219-0.21094-2.5156 0.62109-1.0703 1.082-0.76172 1.1953-0.33984 1.2227-0.54297 1.4297 0.37109 1.3945 0.35156 1.3789-0.15625 0.88281-0.74219 1.5391-1.0625 1.0352-0.24609z" fill="#ccc" fill-rule="evenodd"/>
<path d="m433.56 9.6094h0.11719l1.2305 0.65234 2.0781 0.65625 1.2734 0.35156 1.5352 0.73047 1.8438 1.4219 1.1562 0.23438 0.96484-0.72266 1.3906-0.26172 1.043 0.42578 1.3789 0.26953 1.2383 0.42969 1 0.15234 1.3477 0.27344 1.2305 0.12109 1 0.30859 1.5781 0.69531 1.2695 0.80859 2.1172 1.1562 1.1953 0.5 1.2305 0.88672 0.60547 0.88281 1.0391 0.80469 1.0039 0.50391 0.91797 0.92188 1.1953 1.1523 1.3828 0.69141 1.2305 0.15625 1.2734 0.61719 0.84375 0.84766 1.0352 0.88281 0.88672 0.65625 0.98047 0.97656 0.84375 0.73047 0.78516 0.82422 1 1.1523 0.56641 1.0469 0.55859 1.2227 0.83203 1.7812 0.61328 0.85938 1.0586 0.94531 1.1641 1.4492 0.91797 0.88672 0.91797 0.50391 0.91797 0.44531 1.1133 0.55469 1.1953 0.52734 1.1133 0.41797 1 0.19531 1.0859 0.55469 1.418 1.1406 1.25 0.75 0.86328 0.78125 0.72266 0.94531 0.64062 0.85938 1.3047 1.3906 1.1406 1.4766 0.69531 1.4453 0.44922 0.91797 0.35938 1.8086-0.19531 1.2773-0.16406 1.3906-0.13672 1.6758 0.125 1.5156 0.074219 1.0039 0.32422 2.4297 0.29297 1.3438 0.62109 1.7461 0.35547 1.0703-0.32422 0.95703-0.20312 1.4727-0.10938 1.2109-0.35156 0.94531-0.17578 1.0039 0.13672 1.1719-0.10547 1.0586-0.57812 0.82812-0.59766 1.0039-0.39453 0.94531-0.50391 1.168 0.26953 1.1172 0.1875 1.2969-0.76172 1.4688-1.0195 0.66016-1.0352-0.16016-0.95312 0.33984-0.19141 1.293-0.27734 1.6055-0.80078 1.207-0.83203 0.92188-0.94141 0.61328h-1.6602l-1.2969-0.53516-1.1484 0.23438-1.0586 0.49219-1.1055 0.25391-1.1758 0.25781h-2.1484l-1.3359-0.25781-0.97266 0.23438-1.3438 0.45312-1.1758 0.45703-0.87891 1.2148-1.6914 0.33984-1.0469 0.19141-1.8125 1.1328-1.1523 0.88281-0.90234 0.52344-0.94922 1.7617-1.1016 0.94531-1.0781 0.29297-1.1211-0.007812-1.9922 0.77344-1.5664 0.17969-1.1211 0.26172-2.3164 0.32422-1.0742-0.050781-1.4531 0.050781-1.7305 0.082032-1.1016 0.98047-1.4531 0.3125-2.0508-0.17969-2.2461 0.078125-2.0312-0.070313-1.4883-0.16016-1.0117-0.35547-1.625-1.7383-0.92188-0.45312-1.2656 0.36719-1.125-0.16016-1.1758-0.55859-1.5039-0.41406-1.0273-0.085937-1.5547-0.15625-2.9297-0.77734-1.7539-0.26172-1.5781-0.53125-1.4375-0.41016-1.3633 0.54297-1.1797 0.18359-1.8789 0.75391-1.6523 0.58594-1.1797 1.207-0.82422 0.63281-1.3594 0.10938-0.98828 0.18359-1.6445 0.97266-1.5781 0.44922-1.1406 0.77344-1.2617 0.31641-0.94531 0.38281-1.0781 1.1055-1.1484 0.48047-0.90625 1.2734-0.97266 0.67969-1.4062 1.6719-1.3164 0.49219-0.98047 0.79297-0.62109 1.0469-0.60156 0.91797-0.67969 0.80078-1.5977 0.95312-0.95312 0.32812-0.35547 1.2266-1.2031 0.8125-0.60156 0.99219 0.64844 1.2461 0.03125 1.5273-0.46484 1.9727-0.15234 1.0703-0.054687 1.2344-0.13281 1.5977 0.011719 1.0156 0.46875 1.2031-0.19922 1.5195-0.95703 1.1406-1.0195 1.3281-1.1055 0.63281-0.050781 1.1914-0.38281 1.3594 0.23438 1 0.1875 1.1172-0.62109 0.98047-0.91406 0.94141-1.0508 1.0781-0.70703 1.2148-0.92578 0.73828-0.6875 0.74609-0.84766 0.84766-0.59766 1.2305-0.90625 0.92188-0.94141 1.0938-1.1992 0.33984-1.0977 0.57031-1.625 1.375-0.66797 0.97266-0.75781 0.79297-0.74609 1.7852-0.32812 1.0742-0.91406 0.96484-1.3203 0.1875-1.4375 0.61328-1.1758 0.57812-1.457 1.1055-0.79297 1.1367-0.48828 1.125-1.3633 1.2656-0.3125 1.4648-0.77344 1.2891-0.93359 1.6914-0.74219 0.82031-1.0586 1.2539-0.3125 1.7383-0.98828 0.6875-0.91016 1.1719 0.99219 0.98047-0.89844 1.543-0.8125 0.79688-0.73438 1.3984-0.67188 2.4453-0.70312 0.77734 0.25781 1.1055 0.58203 0.99219-0.17578 2.5078 0.41016 2.2734 0.40625 2.332-0.69922 1.2812 0.17578 2.043 0.75781 1.2227-0.40625 1.2227-0.52734 1.457-1.2227 2.2188-1.168 0.69922-0.8125 0.58203-1.8672-0.41016-1.0508-0.23047-1.8047 0.17578-0.875 1.0469-1.2266 1.8086-0.52344 2.0391-0.17578 1.3984-0.40625 0.99219-0.99219 1.3984v1.5742l-0.058594 1.168 0.17578 1.8047-0.40625 1.0508-0.42188 1.0312-0.9375 1.3008v1.0625l-0.63672 0.94141-1 1.8203-0.55078 1.3398-0.60547 1.1758-0.44531 1.2148-1.3633-0.60547-0.98828-0.69141-1.9062-0.91406-1.0117 0.023438-0.94141 1.457-0.85547 0.98047-0.72656 0.98047h-1.0898l-1.2852-0.37891-1.7578-0.67969-1.6289-0.14453-1.0898 0.14453-1.0938 0.37891-1-0.59766-0.70312-1.1055-0.82031-0.73828-1.2578-0.43359-1.0938-0.52344-0.11719-1.082 0.082031-1.4141-0.40234-0.94531-0.54297-1.3672-0.65625-0.92578 0.73438-0.95703 0.60938-0.92578 0.5625-0.99219 0.13672-1.0898 0.25781-1.4141-1.2344-1.168-0.50391-0.97266-0.77734-0.67578-0.86719-1.1172-0.94922-0.90625-0.75781-1.0547-0.57031-1.0977-1.0156 0.20703-1.543-0.027344-1.0781-0.11328-1.293 0.15625-0.87891 0.76172-0.50391 1.3125-0.67188 0.85938-1.0195 0.94141-1.1797 0.023438-1.3477 0.050781-1.8203-1.7266-0.87891-1.4805-1.0312-1.25-1.7227 0.49609-0.99219 0.71484-1.3867-0.80078-0.98828-0.96484-1.375 0.082031-1.0391 0.13281-0.94141 0.71875-1.1797 0.95703-1.1836 0.23828-0.98828-0.28906-0.20703-1.457-0.69531-0.95312-0.65625-1.2891-0.50781-1.1211-1.0586-0.14844-1.2695-0.31641-1.457-0.52734-1.082-1.0859-0.91016-0.69531-1.5664-0.37109-1.7773-0.99219-0.86719-0.68359-1.6641-0.058594-1.3633-0.75781-0.63672-1.1211v-1.2734l-0.058594-1.1172 0.17578-1.3398 0.87891-0.97266 0.75-0.69531-0.046875-1.0312 0.49609-1.5977 0.20703-1.2617-0.34375-1.0977-0.32031-1.7656-0.73438-1.375-0.57422-1.6055v-1.1953l-2.4062-2.0078-1.3984-0.03125-1.3516 0.046875-1.2383-0.18359-1.3555-0.41406-0.52734-1.2109-0.6875-1.1719-0.77734-0.96484-0.87109-0.82422-0.89453-0.89453-0.48047-0.91406-0.73438-1.7461-0.80469-1.1172-0.80078-0.64062-1.1367-0.35156-1.1875-0.83984-1.0859-0.44141-1.0586-0.27344-1.2031-0.09375-1.043 0.039063-1.5195 0.28125-1.043 0.027343-1.25-0.17969-1.2461-0.074219-1.6797-0.44531-0.71875-0.80859-1.6562-0.83203-1.332-0.4375-1.0859-0.47656-1.4336-0.125-1.0898 0.49219-1.4727-0.10547-1.6875 0.1875-2.1602 0.35156-1.5234 0.22656-1.5156 0.12109-1.0234-0.16797-1.4492-0.27344-1.2305-0.14062-1.0352-0.51172-1.332 0.20703-1.6133 0.75781-1.1992 0.34766-1.207 0.33984-1.457-0.12109-1.1406 0.31641-2.4531 0.68359-1.1719 0.24609-1.2383-0.070312-1.0273-0.042969-1.6445 0.22656-1.4219-0.24609-1.0977 0.046875-1.6055 0.12891-1.2266-0.007812-1.207-0.46484-2.2539-1.1016-1.1914-0.54688-1.1992-0.45312-1.2148-0.13281-1.5391-0.39453-1.5938-0.42969-0.85938-0.52344-1.6445 0.21484-1.6211 0.085938-1.5703 0.24219-1.293 0.32031-1.0742 0.52344-1.2656 0.56641-0.73438 0.70703-1.0781-0.039063-1.0078 0.11328-1.2109 0.3125-0.93359 0.6875-1.0586 0.019531-1.2539-0.007813-1.3789-0.058593-1.1992 0.26562-1.2812 0.54688-1.4766 0.8125-1.1289 0.64844-1.0664 0.55078-1.2969 0.27344-1.0352 0.027344-1.2305 0.34766-1.1094-0.21484-1.1836-0.5-1.1211-0.1875-0.87109-0.51172-1.3672 0.39453-1.0742 0.25781-1.2852 0.12109-0.96484 0.41797-2.6094 0.48047-0.92578-0.56641-0.41797-2.0625-0.42578-1.2227 1.1719-0.32031 0.78906-0.66406 0.91406-0.875 1.082-0.95703 0.66797-0.87109 0.78906-0.66797 0.62109-0.78906 2.4961-1.4961 1.1328-0.67188 0.73828-0.86719 1.207-0.91406 2.1211 0.039062 1.8711 0.125 1.2031 0.042969 1.9258-0.58594 1.0273-0.30859 1.1836-0.76562 1.9023-1.9492 2.9492-1.3398 1.1211-1.2227 0.69531-1.1797 1.3438-1.3438 1.1641-0.89844 0.84766-0.5625 1.2891-1.1016 1.1367-1.2344 0.6875-0.78906 0.68359-0.73828 0.88281-0.75391 0.95312-0.32031 1.1523-0.48438 1.1289-0.35938 1.2188-0.73828 1.1445-0.44531 1.6758-0.51953 1.0586-0.42969 1.168-0.61719 1.3008-0.56641 1.5703-0.66797 0.92578-0.39062 0.89844-0.46875 1.168-0.46875 1.4062-0.41797 1.6055-0.5625 1.0625-0.74609 0.86328-0.91797 1.1797-0.49609 1.4336-0.62891 1.2578-0.80859 1.0898-0.76172 1.8516-0.58984 1.0078-0.32422 1.5547-0.25391 1.0117 0.015625 1.0273 0.19141 1.4375-0.33984 0.85938-0.61719 1.2031-0.91406 1.2891-0.63281 0.93359-0.92578 0.42578-1.0781 1.1016-0.35156 1.2305-0.58594 0.94531-0.59375 1.1484-0.47656 1.9414-0.83203 0.98828-0.37109 1.4922-0.44922 1.6836 0.49609 1.3828 0.38672 1.0703 0.65625 1.5 1.4219 1.6133 1.1953 1 0.36719 1.2305-0.60156 1.1094-0.48047 1.2227-0.25391 1.1055-0.67188 0.48828-1.0898 0.92578-1.1523 1.0898-0.625 1.3242-0.34766 1.3203-1.0039 1.5391-0.43359 0.97266-0.48828 1.1445-0.45703 1.2734-0.14844 0.96484-0.45703 2.3867 0.011719 1.4219 0.50781 1.0469-0.23047 1.1836 0.35547 0.92578 0.82031 1.0156-0.54297 1.4922-0.57031 1.4648-0.03125 1.2305-0.1875 0.99219-0.79688 0.875-0.92578 0.63672-0.91797 0.92578-0.57031 0.82422-0.66797 0.89062-1.1055 1.1602-0.53125 1.3164-0.78516 1.3867-0.25781 1.168-0.64844 0.59375-0.87891 1.2383-0.60547 1.9727-0.078125 1.1016-0.03125 1.2148 0.27344 1.2891 0.88672 1.4023 1.1406 0.57812 0.83594 0.25391 0.99609 1.2109-0.082031 1.3125-0.10156 1.5664-0.51953 0.69141-0.94531 1-0.65234 0.67969-0.88281 0.50781-0.86719 0.66016-0.95703 1.1953 0.1875h1.0078l0.93359 0.8125 1.1602-0.60156 0.28516-1.2812 0.36328-1.25 0.72266-0.89844 0.18359-1.3594 0.25781-1.1133 0.13281-1.0938 0.61328-0.87109 0.63281-0.87891 0.12109-1.2461 0.25781-1.3281 1.1055-1.1562 0.94141-0.49609 1.5195-0.16406 1.3555-0.050781 1.0156 0.21484 1.5273 0.12109 1.5625 0.125 1.5742-0.39453 1.707-0.47656 1.0977-0.92578 1.0859-0.77734 0.73047-0.75391 0.78516-0.98828 0.99609-0.21484 1.2461-0.10938 1.2422-0.67578 1.3633-0.26953 0.94922 0.42578 0.48828 1.2148 0.24219 0.98047 1.1055 0.67969 1.2891 0.76172 1.25 0.80078 1.3125 0.011719 1.0352 0.29688 1.2305-0.12109 1.5547-0.30078 0.81641-0.61719 0.97656-0.82031 1.3633-0.46875 1.1992 0.32422 1.6914 0.94141 1.4766 0.87109 0.91797 0.52734 1.043-0.10938 1.7148-0.63281 0.79688-1.2617 1.4219-0.32422 1.8711-0.95312 1.3711-0.69141 0.76172-0.66797 1.1562-0.20703 1.2891-0.10156 1.0469 0.37109 1.0508 0.17578 1.1289-0.015625 1.0156 0.078125 1.2852-0.34766 0.94531-0.63281 1.168-0.21484 1.1172-0.046875 1.3008 0.058594 1.5742 0.13281 1.9297-0.21484 1.1914-0.5625 1.4805-0.39062 1.0703-0.40625 1.1797-0.78906 1.0977-0.46094 0.30859-0.98828 0.125-1.0859 1.0586-0.71484 0.91016-0.55859 0.40234-1.0703 0.13672-1.2227 0.050781-1.2344 0.46875-1.7734 0.59375-1.6562-0.10156-1.1094-0.03125-1.2188 0.16406-1.3008 0.10156-1.1719 0.24219-1.7188 0.74219-1.4336 0.42969-1.0977 0.46484-1.418 0.28516-0.98047 0.13281-1.0352-0.33984-1.1758-0.52344-1.2031-0.57812-1.3047 0.19922-1.332 0.66016-1.0703 0.62109-1.4141 0.15625-1.2227 0.007812-1.6055 0.39062-1.1094 1.082-0.64844 3.0977-3.125 1-0.53125 1.3516-0.53125 1.5859-1.2578 0.85156-0.95312 0.8125-0.91406 1.3555-0.68359 0.92969-0.72266 1.6602-1.2188 1.0078-1.2227 1.1172-0.79688 1.0117-0.46094 1.0703 0.19922 1.1641 1.0312 0.88672 0.64453 1.1562 0.046875 0.98438-0.48047 0.89062-1.125 0.91406-1.0938 0.91406-0.52734 1.6133-0.26172 1.0859-0.22656 1.1523-0.49219 0.73828-0.72656 1.2344-0.18359 1.2305 0.65234 1.3477 0.23438 0.90625-0.66016 1.2031-1.3281 1.4648 0.23047 1.5234 0.63672 1.0781 0.035157 0.52734-1.1328-0.070312-1.2539-0.12109-1.4297 0.085937-1.0078-0.37109-1.4336-0.93359-0.6875-0.58594-0.95703 0.55078-1.3789 0.12109-1.5898-0.49609-1.3945-0.40625-0.99219-0.21094-2.5156 0.62109-1.0703 1.082-0.76172 1.1953-0.33984 1.2227-0.54297 1.4297 0.37109 1.3945 0.35156 1.3789-0.15625 0.88281-0.74219 1.5391-1.0625 1.0352-0.24609 0.14062 0.074219" fill="none" stroke="#fff" stroke-linecap="round" stroke-linejoin="round" stroke-miterlimit="10" stroke-width="2"/>
<path d="m150.87 186.02 0.23047 0.015625 1.6055 0.30859 0.48438 1.0234-0.011718 1.2227-0.12109 1.418 0.42969 1.5391-0.027343 1.0312-0.26953 1.168-0.078125 1.0664 0.88672 2.2188 0.10156 1.0859-0.074219 1.3086 0.56641 1.5586 0.14453 1.0039 0.69922 1.168 1.082 0.57422 0.54688 1.0703 1.6523 1.5859 0.84375 0.55469 0.84766 0.83203 0.625 0.96094 1.1562 1.0586 0.47266 0.94531-0.875 0.56641-0.82422 0.56641-1.3945 0.6875-1.0664 0.47266-1.1836 0.875-0.79297 0.74609-1.2617 0.57422-1.207 1.0859-0.75391 0.67969-1.5625 1.0391-1.2539 1.1602-0.66016 0.81641-0.17188 1.3594 0.089844 1.1602-0.042969 1 0.13672 1.1953 0.72656 1.1641 0.46094 1.6133 0.71875 0.99219 0.61328 0.83203 0.70703 1.0352 1.375 1.4648 0.42578 1.6719 0.13281 1.5859 0.66016 0.88672 1.3438 0.74219 1.0859 0.63281 1.0078 0.80078 1.2188 0.97656 0.91406 0.90625 0.98047 0.66016 0.91016 1.332 0.49609 1.0273-0.082032 1.2266-0.32812 1.3906 0.26562 1.1484 0.30859 1.1445-0.28516 1.1953-1.875 0.57031-1.0312 0.12109-2.3242 0.60938-0.89453 0.57031-0.95312 0.40625-1.8633 0.03125-1.375-0.078125-1.2461 0.39453-1 0.51953-1.8438 0.066406-1.3359 0.11328-1.125 0.046875-1.9648 0.375-1.293-0.31641-1.707-0.097656-0.99609-0.53125-1.043-0.68359-0.92578-0.39062-1.5938-1.0078-0.97266-1-0.37109-1.2539-0.88281-1.1914-1.4258-1.3516-1.332-0.63281-0.78125-0.64844-0.75-0.95312-0.66406-0.79688-0.875-0.78125-1.168-0.71875-1.0078-0.76953-0.90625-0.76172-1.9844-0.70312-1.0273-0.37109-0.77344-0.875 0.12109-1.3047 0.69531-1.1406 0.089844-1.2266-0.36328-2.0273 0.046875-1.4727-0.29688-1.0625 0.52344-1.3867 0.69922-1.1016 0.51953-1.4336 0.76562-1.0312 0.39453-1.4258 0.61719-1.1133 0.82812-0.82812 1.1328-0.75781 1.1641-0.42578 0.93359-0.42188 0.98828-0.47266 0.87891-0.75391 0.71094-0.78516 1.8555-1.0977 1.1719-0.23438 1.125 0.007812 1.5664-0.73438 1.0273 0.007813 1.2773-2.1953 1.5547-1.3242 1.0742-0.80859 0.33984-1.125 0.73828-1.0977 0.74609-0.73438-0.078125-1.0117-0.56641-1.1133-0.16016-1.0352 0.18359-2.1172 0.10938-1.2422 0.27734-1.043 0.49609-1.1133 0.36328-0.99609 0.20703-1.2188-0.47266-0.91016-0.89062-1.8555-0.019531-1.0508 0.089844-1.7461 1.0078-1.3086 1.0117-0.48438 0.60938-1.1719 1.0117-0.98828 0.62109-0.85938 1.3633-0.3125z" fill="#ccc" fill-rule="evenodd"/>
<path d="m150.87 186.02 0.23047 0.015625 1.6055 0.30859 0.48438 1.0234-0.011718 1.2227-0.12109 1.418 0.42969 1.5391-0.027343 1.0312-0.26953 1.168-0.078125 1.0664 0.88672 2.2188 0.10156 1.0859-0.074219 1.3086 0.56641 1.5586 0.14453 1.0039 0.69922 1.168 1.082 0.57422 0.54688 1.0703 1.6523 1.5859 0.84375 0.55469 0.84766 0.83203 0.625 0.96094 1.1562 1.0586 0.47266 0.94531-0.875 0.56641-0.82422 0.56641-1.3945 0.6875-1.0664 0.47266-1.1836 0.875-0.79297 0.74609-1.2617 0.57422-1.207 1.0859-0.75391 0.67969-1.5625 1.0391-1.2539 1.1602-0.66016 0.81641-0.17188 1.3594 0.089844 1.1602-0.042969 1 0.13672 1.1953 0.72656 1.1641 0.46094 1.6133 0.71875 0.99219 0.61328 0.83203 0.70703 1.0352 1.375 1.4648 0.42578 1.6719 0.13281 1.5859 0.66016 0.88672 1.3438 0.74219 1.0859 0.63281 1.0078 0.80078 1.2188 0.97656 0.91406 0.90625 0.98047 0.66016 0.91016 1.332 0.49609 1.0273-0.082032 1.2266-0.32812 1.3906 0.26562 1.1484 0.30859 1.1445-0.28516 1.1953-1.875 0.57031-1.0312 0.12109-2.3242 0.60938-0.89453 0.57031-0.95312 0.40625-1.8633 0.03125-1.375-0.078125-1.2461 0.39453-1 0.51953-1.8438 0.066406-1.3359 0.11328-1.125 0.046875-1.9648 0.375-1.293-0.31641-1.707-0.097656-0.99609-0.53125-1.043-0.68359-0.92578-0.39062-1.5938-1.0078-0.97266-1-0.37109-1.2539-0.88281-1.1914-1.4258-1.3516-1.332-0.63281-0.78125-0.64844-0.75-0.95312-0.66406-0.79688-0.875-0.78125-1.168-0.71875-1.0078-0.76953-0.90625-0.76172-1.9844-0.70312-1.0273-0.37109-0.77344-0.875 0.12109-1.3047 0.69531-1.1406 0.089844-1.2266-0.36328-2.0273 0.046875-1.4727-0.29688-1.0625 0.52344-1.3867 0.69922-1.1016 0.51953-1.4336 0.76562-1.0312 0.39453-1.4258 0.61719-1.1133 0.82812-0.82812 1.1328-0.75781 1.1641-0.42578 0.93359-0.42188 0.98828-0.47266 0.87891-0.75391 0.71094-0.78516 1.8555-1.0977 1.1719-0.23438 1.125 0.007812 1.5664-0.73438 1.0273 0.007813 1.2773-2.1953 1.5547-1.3242 1.0742-0.80859 0.33984-1.125 0.73828-1.0977 0.74609-0.73438-0.078125-1.0117-0.56641-1.1133-0.16016-1.0352 0.18359-2.1172 0.10938-1.2422 0.27734-1.043 0.49609-1.1133 0.36328-0.99609 0.20703-1.2188-0.47266-0.91016-0.89062-1.8555-0.019531-1.0508 0.089844-1.7461 1.0078-1.3086 1.0117-0.48438 0.60938-1.1719 1.0117-0.98828 0.62109-0.85938 1.3633-0.3125 0.59766 0.042968" fill="none" stroke="#fff" stroke-linecap="round" stroke-linejoin="round" stroke-miterlimit="10" stroke-width="2"/>
<path d="m218.5 115.42 0.46094 0.20703 0.96094 0.57031 1.7031 0.019531 1.0234-0.10156 1.1797 0.11719 1.375 0.65234 0.78906 0.82422-0.42578 1.0781-0.93359 0.92578-1.2891 0.63281-1.2031 0.91406-0.85938 0.61719-1.4375 0.33984-1.0273-0.19141-1.0117-0.015625-1.5547 0.25391-1.0078 0.32422-1.0703 0.30859-1.3438 0.58984-1.1484 0.90234-1.4531 0.71875-1.2617 0.51172-0.90234 0.67578-0.85938 0.88281-1.457 0.61328-1.8398 0.61719-1.0039 0.36328-1.0195 0.58984-1.3828 0.48438-1.5703 0.66797-1.3008 0.56641-1.168 0.61719-1.0586 0.42969-1.6758 0.51953-1.1445 0.44531-1.2188 0.73828-1.1289 0.35938-1.1523 0.48438-0.95312 0.32031-0.88281 0.75391-0.68359 0.73828-0.6875 0.78906-1.1367 1.2344-1.2891 1.1016-0.84766 0.5625-1.1641 0.89844-1.1562 1.0078-0.88281 1.5156-1.1211 1.2227-2.9492 1.3398-1.9023 1.9492-1.1836 0.76562-1.0273 0.30859-1.9258 0.58594-1.2031-0.042969-1.8711-0.125-1.1641-0.039062-1.6211 0.41406-1.2812 1.3672-1.1328 0.67188-1.7891 0.87109-1.3281 1.4141-0.78906 0.66797-0.66797 0.87109-1.082 0.95703-0.91406 0.875-0.78906 0.66406-1.1719 0.32031-0.71484-1.1836-1.3047-1.668-0.89453-1.0547-0.1875-1.7227-0.29688-1.0742-0.84766-0.73438-0.67969-1.5898-0.066406-1.2734-0.73828-0.74609-1.0898-0.375-1.043-0.58594-1.2422-0.71484-0.87891-0.79688-0.55859-0.95312-1.4688-1.6719-0.90625-0.57422-0.96094-0.33594-1.0508-0.625-0.56641-1.4336 0.15234-1.3867-0.76953-1.5859 0.99609-0.41016 2.0625-0.60156 1.5391-0.24609 1.6641-0.93359 1.0078-0.30078 0.79297-0.63672 1.8906-0.83984 0.92188-0.46875 1.2266-0.14062 1.3984-0.45312 1.7773-0.37109 1.7227-0.33984 1.1641-0.27344 1.207-0.125 1.3008-0.58203 1.0234-0.44922 1.4453-1.0781 1.4844-0.79297 1.0781-0.79688 1.5195-1.4844 1.1602-0.89844 0.85547-0.71484 0.76562-0.65625 0.94141-0.65234 1.1094-0.007813 0.98047 0.26953 1.293 0.51953 0.63281 0.86719 1.0625 0.39844 1.25-0.085938 1.0117 0.29297 1.0117-0.023438 1.25 0.125 1.4609-0.03125 0.88281-0.73438 1.5742 0.12109 1.0977 0.23828 1.2422-0.19922 0.83594-0.55859 1.4297-0.37891 1.0625-0.62109 1.2891-1.4336 1.0039-1.0039 1.0664-0.69531 1.6172-0.53516 1.1641-0.17969 1.4141 0.40625 1.2422 0.56641 1.6875 0.52734 1.1133 0.35938 1.082-0.80078 1.957-0.33594 2.3125 0.011719 1.3906-0.45312 1.0391-0.10938 1.2773-0.24219 0.73438-0.71875 1.0391-0.039062 0.97266-0.42578 1.1133-0.19141 1.1055-0.082031 1.5039-0.625 1.2148-0.36328 1.2656-0.32422 0.98828-0.35547z" fill="#ccc" fill-rule="evenodd"/>
<path d="m218.5 115.42 0.46094 0.20703 0.96094 0.57031 1.7031 0.019531 1.0234-0.10156 1.1797 0.11719 1.375 0.65234 0.78906 0.82422-0.42578 1.0781-0.93359 0.92578-1.2891 0.63281-1.2031 0.91406-0.85938 0.61719-1.4375 0.33984-1.0273-0.19141-1.0117-0.015625-1.5547 0.25391-1.0078 0.32422-1.0703 0.30859-1.3438 0.58984-1.1484 0.90234-1.4531 0.71875-1.2617 0.51172-0.90234 0.67578-0.85938 0.88281-1.457 0.61328-1.8398 0.61719-1.0039 0.36328-1.0195 0.58984-1.3828 0.48438-1.5703 0.66797-1.3008 0.56641-1.168 0.61719-1.0586 0.42969-1.6758 0.51953-1.1445 0.44531-1.2188 0.73828-1.1289 0.35938-1.1523 0.48438-0.95312 0.32031-0.88281 0.75391-0.68359 0.73828-0.6875 0.78906-1.1367 1.2344-1.2891 1.1016-0.84766 0.5625-1.1641 0.89844-1.1562 1.0078-0.88281 1.5156-1.1211 1.2227-2.9492 1.3398-1.9023 1.9492-1.1836 0.76562-1.0273 0.30859-1.9258 0.58594-1.2031-0.042969-1.8711-0.125-1.1641-0.039062-1.6211 0.41406-1.2812 1.3672-1.1328 0.67188-1.7891 0.87109-1.3281 1.4141-0.78906 0.66797-0.66797 0.87109-1.082 0.95703-0.91406 0.875-0.78906 0.66406-1.1719 0.32031-0.71484-1.1836-1.3047-1.668-0.89453-1.0547-0.1875-1.7227-0.29688-1.0742-0.84766-0.73438-0.67969-1.5898-0.066406-1.2734-0.73828-0.74609-1.0898-0.375-1.043-0.58594-1.2422-0.71484-0.87891-0.79688-0.55859-0.95312-1.4688-1.6719-0.90625-0.57422-0.96094-0.33594-1.0508-0.625-0.56641-1.4336 0.15234-1.3867-0.76953-1.5859 0.99609-0.41016 2.0625-0.60156 1.5391-0.24609 1.6641-0.93359 1.0078-0.30078 0.79297-0.63672 1.8906-0.83984 0.92188-0.46875 1.2266-0.14062 1.3984-0.45312 1.7773-0.37109 1.7227-0.33984 1.1641-0.27344 1.207-0.125 1.3008-0.58203 1.0234-0.44922 1.4453-1.0781 1.4844-0.79297 1.0781-0.79688 1.5195-1.4844 1.1602-0.89844 0.85547-0.71484 0.76562-0.65625 0.94141-0.65234 1.1094-0.007813 0.98047 0.26953 1.293 0.51953 0.63281 0.86719 1.0625 0.39844 1.25-0.085938 1.0117 0.29297 1.0117-0.023438 1.25 0.125 1.4609-0.03125 0.88281-0.73438 1.5742 0.12109 1.0977 0.23828 1.2422-0.19922 0.83594-0.55859 1.4297-0.37891 1.0625-0.62109 1.2891-1.4336 1.0039-1.0039 1.0664-0.69531 1.6172-0.53516 1.1641-0.17969 1.4141 0.40625 1.2422 0.56641 1.6875 0.52734 1.1133 0.35938 1.082-0.80078 1.957-0.33594 2.3125 0.011719 1.3906-0.45312 1.0391-0.10938 1.2773-0.24219 0.73438-0.71875 1.0391-0.039062 0.97266-0.42578 1.1133-0.19141 1.1055-0.082031 1.5039-0.625 1.2148-0.36328 1.2656-0.32422 0.98828-0.35547 1.4023-0.050781" fill="none" stroke="#fff" stroke-linecap="round" stroke-linejoin="round" stroke-miterlimit="10" stroke-width="2"/>
<path d="m98.102 285.57 0.38281 0.15234 1.0195 0.19531 1.7891 0.47656 1.5547 1.2266 1.4297 1.8594 3.3906 1.1992 1.2578 0.58594 1.0586 0.71484 0.92188 0.72266 0.30078 1.3086-0.085937 1.0117-0.26953 2.0469-0.69141 1.9531-1.3945 3.2148 0.30469 1.5273 0.29688 1.0586-0.45703 0.91406 0.5 0.97266-0.75781 1.2734-0.38281 1.043-0.51953 0.85938 0.37891 1.8594 0.11328 1.9336 0.55469 1.7305 0.011719 1.0508-0.42578 0.90625 1.207 0.75781 1.293-0.027344 1.0195 0.039063 0.85156 0.52734 0.85547 0.83984 0.88672 0.54688 0.99219 0.21484-0.13281 1.0781 0.99219 0.54688 0.67188 0.80469 0.57422 0.92188 0.24609 1.2656 1.0859 0.82031 0.46875 0.95703 1.0781 1.1094 0.84766 0.81641 0.97656 0.42969 1.5078-0.19922 1.5781-0.57422 1.5078-0.28125 2.1914-0.61328 1.4805-0.98047 1.1641-0.66406 1.1289-0.10938 1.4805 0.46094 1.3047 0.039062 1.1758 0.058594 0.54688 1.4062 0.25 1.2812 0.35938 1.4805 0.91406 0.57031 1.4102 0.60938 0.99219 0.72656 0.57422 0.875 0.64844 1.3008 1.5273 1.5234 1.8711 1.1094 1.0312 0.87891 0.6875 1.5625 0.875 2.5195 0.99219 1.1055 0.34375 1.8711-0.22656 1.1445 0.33984 1.0312 0.95703 0.87891 0.57031 1.0312-0.34375 1.3047-0.94141 1.1523-0.97266 0.96875-0.36328 0.96875-0.91406 1.1133-0.89844 0.44922-1.0234 0.69922-1.168 1.1094-1.4492 1.1094-0.71094 1.4766 0.45703 0.91016 0.22656 2.0781 0.85156 0.85156 0.88281 0.625-1.0273 1.4609-0.83984 0.66016-0.63672 0.83594-0.51172 2.0938-0.25781 1.0469-0.46484 1.1719-0.28125 1.0312-0.10938 1.2461-1.4219 0.78125-1.9141 0.80078-1.0273 0.41016-0.51562 0.97656-0.94922 1.3359-0.84766 0.69531-1.043 1.1016-1.2539 0.41797-1.6055 0.15625-0.80469-0.83203-0.64062-0.96484-0.64453-0.76953-0.50781-1.0859-1.0859-0.62891-1.4492 0.49609-1.6602 0.80469-1.5586 2.5742-0.50781 0.94922-0.45703 0.91406-0.33203 1.1562-1.1445 2.1367-0.53125 1.3672-1.6328 0.41797-0.72266 0.91016-0.94922 0.45703-1.4805 0.22656-1.3672-0.22656-1.0273 0.41797 0.11328 1.2148 0.51172 1.4414 0.36328 0.95703 0.27734 1.5156 0.64062 0.95703 0.51172 0.89844-0.066407 1.0234-0.35938 1.0859-0.23438 1.3633 0.12891 1.4688-0.054688 1.3359-0.78906 0.75-0.19922 1.3945 0.47656 1.4883 0.37109 1.0586 0.39453 2.0977 0.57422 1.4883 0.39453 0.94922 0.6875 1.1562 0.72656 1.043-0.94922 0.72656-1.3242 0.64844-1.0039 0.63281-1.0078 0.19922-1.1641 0.74609-1.207 1.0469-1.0078 0.51562-0.90234 1.1133-1.4766 1.3047-1.3086 0.51172-1.418 0.39844-1.0078 0.1875-1.2148 0.23438-1.8906-0.29688-1.332 0.32812-0.85547-1.0352-0.58984-0.88672-0.97656-0.88672-1.4492 0.058594-0.91797 1.1523-1.2969 0.67969-1.2734 0.50391-1.0898 0.17578-1.5391-0.11719-0.76953 0.67969-0.85547 0.64844-0.79688 1.1562-1.2617 0.26953-1.1836 0.55078-1.2773-0.6875-0.066407-1.0039 0.55078-1.8594v-1.0312l-0.16016-1.0625 0.50391-2.0703 0.29297-1.1953-0.13281-1.2969-1.0117-0.98047-0.47656-1.6484-0.16016-1.1133 0.39844-0.98047 0.95703-1.6875 0.79688-0.83984 0.78516-0.99219 1.2031-1.2031 0.78906-1.2031 0.41406-1.5742-0.15625-1.1602 0.4375-0.96484 0.10938-1.207 0.80469-0.92969 0.82422-0.83984 0.38281-1.1328-0.67578-1.1875 0.16406-1.3516 0.62109-1.1836 0.18359-1.0078-0.56641-1.2773-0.87891-0.875-0.29297-0.96875-0.63672-1.0586-0.40234-1.1484-0.80469-0.93359-0.91016-0.76562-0.73047-0.91406-1.4531-1.5625-1-0.82812-0.76953-1.6523-0.85156-1.3164-0.71484-0.99219-0.76562-1.0039-1.4375-0.24219-1.1484-0.074219-0.90625-0.51562-0.90234-0.44141-1.6641-0.94141-1.4531-1.875-0.69141-1.4883-0.16016-1.3281-0.54688-0.88672-0.35547-1.5039 0.089844-1.5078 0.47656-1.1875 0.95703-0.84766 0.69141-1.082-0.55859-2.1094-0.44922-1.3945-0.86719-0.51953-1.2773 0.054687-0.52344-1.2109-0.42188-1.4336-0.61328-1.9297-0.28125-0.97656-0.55859-0.91406-0.55859-1.0156-0.59766-0.92578-0.47656-1.1484 0.30078-1.4219-1.0117-1.0391-0.76562-0.71094-1.0117-0.55078-0.90625-0.54688-1.0391-0.19141-0.77344-0.9375-0.125-3.7617-1.1211-3.1289-0.8125-1.8672-2.3945-2.0078-0.68359-0.76953-1.3672-0.59766-0.88672-1.0742-0.20312-1.3359-0.84375-0.95703-0.67969-0.83984-0.16797-1.0117 1.3086-0.80469 1.1406-0.63281 1.5625-1.1172 1.2227-0.375 0.88281-0.51172 1.2539-0.59375 1.2852-0.13281 0.98828 0.26562 1.2656 0.66016 1.1719 0.69531 1.0156 0.19922 1.4453-0.19531 1.4258 0.089844 1.4922-0.72266 1.1445-0.49219 1.9297-0.59375 1.0117-0.47266 1.2539 0.007812 1.6758-0.29297 1.0938-0.19922 2.793-1.1094 1.3398-0.94531 1.1523-0.38672 1.6914-0.46484 1.5742-0.35938 1.9062-1.375 1.4453-0.39844 1.1875-0.63281 1.1055-0.375 0.91406-0.75391 1.4336-0.58984 0.63281-0.94141 0.27734-1.0977 1.2461-0.61328 0.85547-1.1484 0.35938-1.3906 0.65234-1.2734 0.62109-0.88672 0.09375-1.4414 0.45312-1.2109 0.35938-1.2188 0.35156-1.0352 0.27344-1.1992 0.5-1.0586 0.1875-1.2852 0.15234-1.0742 0.46094-1.1797 0.058594-1.1602 0.19922-1.0664-0.070313-2.3438-0.71484-1.168-0.11328-1.207-0.54688-1.2305-0.44922-1.2656z" fill="#ccc" fill-rule="evenodd"/>
<path d="m98.102 285.57 0.38281 0.15234 1.0195 0.19531 1.7891 0.47656 1.5547 1.2266 1.4297 1.8594 3.3906 1.1992 1.2578 0.58594 1.0586 0.71484 0.92188 0.72266 0.30078 1.3086-0.085937 1.0117-0.26953 2.0469-0.69141 1.9531-1.3945 3.2148 0.30469 1.5273 0.29688 1.0586-0.45703 0.91406 0.5 0.97266-0.75781 1.2734-0.38281 1.043-0.51953 0.85938 0.37891 1.8594 0.11328 1.9336 0.55469 1.7305 0.011719 1.0508-0.42578 0.90625 1.207 0.75781 1.293-0.027344 1.0195 0.039063 0.85156 0.52734 0.85547 0.83984 0.88672 0.54688 0.99219 0.21484-0.13281 1.0781 0.99219 0.54688 0.67188 0.80469 0.57422 0.92188 0.24609 1.2656 1.0859 0.82031 0.46875 0.95703 1.0781 1.1094 0.84766 0.81641 0.97656 0.42969 1.5078-0.19922 1.5781-0.57422 1.5078-0.28125 2.1914-0.61328 1.4805-0.98047 1.1641-0.66406 1.1289-0.10938 1.4805 0.46094 1.3047 0.039062 1.1758 0.058594 0.54688 1.4062 0.25 1.2812 0.35938 1.4805 0.91406 0.57031 1.4102 0.60938 0.99219 0.72656 0.57422 0.875 0.64844 1.3008 1.5273 1.5234 1.8711 1.1094 1.0312 0.87891 0.6875 1.5625 0.875 2.5195 0.99219 1.1055 0.34375 1.8711-0.22656 1.1445 0.33984 1.0312 0.95703 0.87891 0.57031 1.0312-0.34375 1.3047-0.94141 1.1523-0.97266 0.96875-0.36328 0.96875-0.91406 1.1133-0.89844 0.44922-1.0234 0.69922-1.168 1.1094-1.4492 1.1094-0.71094 1.4766 0.45703 0.91016 0.22656 2.0781 0.85156 0.85156 0.88281 0.625-1.0273 1.4609-0.83984 0.66016-0.63672 0.83594-0.51172 2.0938-0.25781 1.0469-0.46484 1.1719-0.28125 1.0312-0.10938 1.2461-1.4219 0.78125-1.9141 0.80078-1.0273 0.41016-0.51562 0.97656-0.94922 1.3359-0.84766 0.69531-1.043 1.1016-1.2539 0.41797-1.6055 0.15625-0.80469-0.83203-0.64062-0.96484-0.64453-0.76953-0.50781-1.0859-1.0859-0.62891-1.4492 0.49609-1.6602 0.80469-1.5586 2.5742-0.50781 0.94922-0.45703 0.91406-0.33203 1.1562-1.1445 2.1367-0.53125 1.3672-1.6328 0.41797-0.72266 0.91016-0.94922 0.45703-1.4805 0.22656-1.3672-0.22656-1.0273 0.41797 0.11328 1.2148 0.51172 1.4414 0.36328 0.95703 0.27734 1.5156 0.64062 0.95703 0.51172 0.89844-0.066407 1.0234-0.35938 1.0859-0.23438 1.3633 0.12891 1.4688-0.054688 1.3359-0.78906 0.75-0.19922 1.3945 0.47656 1.4883 0.37109 1.0586 0.39453 2.0977 0.57422 1.4883 0.39453 0.94922 0.6875 1.1562 0.72656 1.043-0.94922 0.72656-1.3242 0.64844-1.0039 0.63281-1.0078 0.19922-1.1641 0.74609-1.207 1.0469-1.0078 0.51562-0.90234 1.1133-1.4766 1.3047-1.3086 0.51172-1.418 0.39844-1.0078 0.1875-1.2148 0.23438-1.8906-0.29688-1.332 0.32812-0.85547-1.0352-0.58984-0.88672-0.97656-0.88672-1.4492 0.058594-0.91797 1.1523-1.2969 0.67969-1.2734 0.50391-1.0898 0.17578-1.5391-0.11719-0.76953 0.67969-0.85547 0.64844-0.79688 1.1562-1.2617 0.26953-1.1836 0.55078-1.2773-0.6875-0.066407-1.0039 0.55078-1.8594v-1.0312l-0.16016-1.0625 0.50391-2.0703 0.29297-1.1953-0.13281-1.2969-1.0117-0.98047-0.47656-1.6484-0.16016-1.1133 0.39844-0.98047 0.95703-1.6875 0.79688-0.83984 0.78516-0.99219 1.2031-1.2031 0.78906-1.2031 0.41406-1.5742-0.15625-1.1602 0.4375-0.96484 0.10938-1.207 0.80469-0.92969 0.82422-0.83984 0.38281-1.1328-0.67578-1.1875 0.16406-1.3516 0.62109-1.1836 0.18359-1.0078-0.56641-1.2773-0.87891-0.875-0.29297-0.96875-0.63672-1.0586-0.40234-1.1484-0.80469-0.93359-0.91016-0.76562-0.73047-0.91406-1.4531-1.5625-1-0.82812-0.76953-1.6523-0.85156-1.3164-0.71484-0.99219-0.76562-1.0039-1.4375-0.24219-1.1484-0.074219-0.90625-0.51562-0.90234-0.44141-1.6641-0.94141-1.4531-1.875-0.69141-1.4883-0.16016-1.3281-0.54688-0.88672-0.35547-1.5039 0.089844-1.5078 0.47656-1.1875 0.95703-0.84766 0.69141-1.082-0.55859-2.1094-0.44922-1.3945-0.86719-0.51953-1.2773 0.054687-0.52344-1.2109-0.42188-1.4336-0.61328-1.9297-0.28125-0.97656-0.55859-0.91406-0.55859-1.0156-0.59766-0.92578-0.47656-1.1484 0.30078-1.4219-1.0117-1.0391-0.76562-0.71094-1.0117-0.55078-0.90625-0.54688-1.0391-0.19141-0.77344-0.9375-0.125-3.7617-1.1211-3.1289-0.8125-1.8672-2.3945-2.0078-0.68359-0.76953-1.3672-0.59766-0.88672-1.0742-0.20312-1.3359-0.84375-0.95703-0.67969-0.83984-0.16797-1.0117 1.3086-0.80469 1.1406-0.63281 1.5625-1.1172 1.2227-0.375 0.88281-0.51172 1.2539-0.59375 1.2852-0.13281 0.98828 0.26562 1.2656 0.66016 1.1719 0.69531 1.0156 0.19922 1.4453-0.19531 1.4258 0.089844 1.4922-0.72266 1.1445-0.49219 1.9297-0.59375 1.0117-0.47266 1.2539 0.007812 1.6758-0.29297 1.0938-0.19922 2.793-1.1094 1.3398-0.94531 1.1523-0.38672 1.6914-0.46484 1.5742-0.35938 1.9062-1.375 1.4453-0.39844 1.1875-0.63281 1.1055-0.375 0.91406-0.75391 1.4336-0.58984 0.63281-0.94141 0.27734-1.0977 1.2461-0.61328 0.85547-1.1484 0.35938-1.3906 0.65234-1.2734 0.62109-0.88672 0.09375-1.4414 0.45312-1.2109 0.35938-1.2188 0.35156-1.0352 0.27344-1.1992 0.5-1.0586 0.1875-1.2852 0.15234-1.0742 0.46094-1.1797 0.058594-1.1602 0.19922-1.0664-0.070313-2.3438-0.71484-1.168-0.11328-1.207-0.54688-1.2305-0.44922-1.2656 0.25 0.21094" fill="none" stroke="#fff" stroke-linecap="round" stroke-linejoin="round" stroke-miterlimit="10" stroke-width="2"/>
<path d="m123.61 237.94 0.11719 0.054688 1.4336 0.60156 1.1992 0.58984 0.77344 0.875 1.4648 0.85156 0.80078 0.74219 1.1875 1.1836 0.75 0.95312 0.78125 0.64844 1.0586 0.46484 1.1289 0.89844 0.96484 1.2461 0.60156 1.2461 0.89062 1.2695 1.1953 0.92578 1.5195 0.70703 1.1875 0.75391 1.0977 0.90234 0.60547 0.97266 0.027344 1.4883-0.14844 2.4102-0.33984 1.25-0.23047 1.4453-0.054688 1.1992 0.25781 1.2852-0.18359 1.0117 0.003906 1.1992 0.29297 1.0898 0.26953 1.2188 0.37891 1.5117 0.33203 1.1055-0.3125 1.2539-0.74609 1.4258-0.56641 1.2109-0.007813 1.1406 0.039063 1.3203-0.015625 1.0234-0.46875 1.7031-0.92578 1.5195-0.22656 1.3789-0.73438 1.4258-0.69141 1.2852-0.30859 1.3867-0.65234 1.2266-0.074219 1.0469-0.21875 1.2109-0.82031 1.5391-0.19141 1.3086-0.65625 1.2852-0.39844 0.96484-0.76562 1.6797-0.72656 2.3125 0.17969 1.2461 0.14844 1.5547-0.62109 1.2383-0.78125 1.0352-0.56641 1.0664-0.30469 2.0586 0.27344 1.0664-0.43359 1.2344-1.0703 0.89062-2.3008 0.72266-0.87891 0.60938-0.41797 1.0508 0.66406 0.90625 0.46875 1.1758 0.625 1.2969 1.0508 1.2031 1.4727 1.4453 0.5 0.97266 0.75781 1.7266 1.0586 0.36719 1.3711 0.94922 0.6875 0.87109 0.92188 1.0039 0.50391 1.3711-1.1758 0.33984-1.3047-0.039062-1.2617-0.37891-1.3477 0.027344-1.1641 0.66406-1.0469 0.78906-2.1445 0.72656-1.1211 0.28516-1.5039 0.36719-1.4883 0.34766-1.1328 0.085937-1-0.54688-1.0508-1.082-0.80078-0.92578-0.94141-1.2383-0.59766-1.1133-0.56641-1.125-0.56641-0.97266-1.1211-0.54688 0.007812-1.1523-0.99219-0.21484-0.88672-0.54688-0.85547-0.83984-0.85156-0.52734-1.0195-0.039063-1.0859 0.039063-1.3281-0.69141 0.33984-0.98438-0.011719-1.0508-0.058594-1.1953-0.99609-1.6406 0.22656-1.9531-0.17188-1.1719 0.74609-0.89453 0.35938-1.0977 0.5-0.87891-0.42578-1.0117 0.38281-1.1016-0.44531-1.3711 1.2461-4.0703 0.69141-1.9531 0.26953-2.0469 0.085937-1.0117 0.054688-1.0742-0.94922-0.55078-1.3867-1.1211-1.2578-0.58594-3.3906-1.1992-1.4297-1.8594-1.5547-1.2266-1.1992-0.35938-1.6094-0.3125-0.82812-0.94531-0.94141-1.1836-0.52734-1.0156-0.89062-0.63281-0.035156-1.6797 0.53906-1.2656 0.066407-1.3516-0.050782-1.1133-0.21484-1.2852-0.34766-1.8945-0.3125-1.0977 0.36719-1.4883 0.40625-0.91797 0.49219-1.0156 0.11328-1.25 0.0625-1.7617 0.125-1.4844 0.24609-1.3008 0.57422-0.82031 0.046875-1.4297 1.0938-1.0898 1.8594-1.2305 1.3516-0.63281 1.1211-0.56641 0.89062-0.62109 1.1133-0.16016 1.168-1.3594 0.84375-0.78516 0.41406-1.2539 0.56641-0.91797 0.55859-1.1211 1.4414-2.1523 1.0859-1.0117 1.1406-0.96875 1.1523-0.89062 0.75391-0.93359 0.55859-1.2734 0.67188-0.85938 1.2344-0.62891 1.4727 0.003907 1.3008-0.35547 1.25-0.49219 0.58594-0.90625 0.55469-0.83984 0.98047-1.0781 0.73828-0.79297z" fill="#ccc" fill-rule="evenodd"/>
<path d="m123.61 237.94 0.11719 0.054688 1.4336 0.60156 1.1992 0.58984 0.77344 0.875 1.4648 0.85156 0.80078 0.74219 1.1875 1.1836 0.75 0.95312 0.78125 0.64844 1.0586 0.46484 1.1289 0.89844 0.96484 1.2461 0.60156 1.2461 0.89062 1.2695 1.1953 0.92578 1.5195 0.70703 1.1875 0.75391 1.0977 0.90234 0.60547 0.97266 0.027344 1.4883-0.14844 2.4102-0.33984 1.25-0.23047 1.4453-0.054688 1.1992 0.25781 1.2852-0.18359 1.0117 0.003906 1.1992 0.29297 1.0898 0.26953 1.2188 0.37891 1.5117 0.33203 1.1055-0.3125 1.2539-0.74609 1.4258-0.56641 1.2109-0.007813 1.1406 0.039063 1.3203-0.015625 1.0234-0.46875 1.7031-0.92578 1.5195-0.22656 1.3789-0.73438 1.4258-0.69141 1.2852-0.30859 1.3867-0.65234 1.2266-0.074219 1.0469-0.21875 1.2109-0.82031 1.5391-0.19141 1.3086-0.65625 1.2852-0.39844 0.96484-0.76562 1.6797-0.72656 2.3125 0.17969 1.2461 0.14844 1.5547-0.62109 1.2383-0.78125 1.0352-0.56641 1.0664-0.30469 2.0586 0.27344 1.0664-0.43359 1.2344-1.0703 0.89062-2.3008 0.72266-0.87891 0.60938-0.41797 1.0508 0.66406 0.90625 0.46875 1.1758 0.625 1.2969 1.0508 1.2031 1.4727 1.4453 0.5 0.97266 0.75781 1.7266 1.0586 0.36719 1.3711 0.94922 0.6875 0.87109 0.92188 1.0039 0.50391 1.3711-1.1758 0.33984-1.3047-0.039062-1.2617-0.37891-1.3477 0.027344-1.1641 0.66406-1.0469 0.78906-2.1445 0.72656-1.1211 0.28516-1.5039 0.36719-1.4883 0.34766-1.1328 0.085937-1-0.54688-1.0508-1.082-0.80078-0.92578-0.94141-1.2383-0.59766-1.1133-0.56641-1.125-0.56641-0.97266-1.1211-0.54688 0.007812-1.1523-0.99219-0.21484-0.88672-0.54688-0.85547-0.83984-0.85156-0.52734-1.0195-0.039063-1.0859 0.039063-1.3281-0.69141 0.33984-0.98438-0.011719-1.0508-0.058594-1.1953-0.99609-1.6406 0.22656-1.9531-0.17188-1.1719 0.74609-0.89453 0.35938-1.0977 0.5-0.87891-0.42578-1.0117 0.38281-1.1016-0.44531-1.3711 1.2461-4.0703 0.69141-1.9531 0.26953-2.0469 0.085937-1.0117 0.054688-1.0742-0.94922-0.55078-1.3867-1.1211-1.2578-0.58594-3.3906-1.1992-1.4297-1.8594-1.5547-1.2266-1.1992-0.35938-1.6094-0.3125-0.82812-0.94531-0.94141-1.1836-0.52734-1.0156-0.89062-0.63281-0.035156-1.6797 0.53906-1.2656 0.066407-1.3516-0.050782-1.1133-0.21484-1.2852-0.34766-1.8945-0.3125-1.0977 0.36719-1.4883 0.40625-0.91797 0.49219-1.0156 0.11328-1.25 0.0625-1.7617 0.125-1.4844 0.24609-1.3008 0.57422-0.82031 0.046875-1.4297 1.0938-1.0898 1.8594-1.2305 1.3516-0.63281 1.1211-0.56641 0.89062-0.62109 1.1133-0.16016 1.168-1.3594 0.84375-0.78516 0.41406-1.2539 0.56641-0.91797 0.55859-1.1211 1.4414-2.1523 1.0859-1.0117 1.1406-0.96875 1.1523-0.89062 0.75391-0.93359 0.55859-1.2734 0.67188-0.85938 1.2344-0.62891 1.4727 0.003907 1.3008-0.35547 1.25-0.49219 0.58594-0.90625 0.55469-0.83984 0.98047-1.0781 0.73828-0.79297 0.33594 0.070312" fill="none" stroke="#fff" stroke-linecap="round" stroke-linejoin="round" stroke-miterlimit="10" stroke-width="2"/>
<path d="m218.5 115.42 0.46094 0.20703 0.96094 0.57031 1.7031 0.019531 1.0234-0.10156 1.1797 0.11719 1.375 0.65234 0.78906 0.82422-0.42578 1.0781-0.93359 0.92578-1.2891 0.63281-1.2031 0.91406-0.85938 0.61719-1.4375 0.33984-1.0273-0.19141-1.0117-0.015625-1.5547 0.25391-1.0078 0.32422-1.0703 0.30859-1.3438 0.58984-1.1484 0.90234-1.4531 0.71875-1.2617 0.51172-0.90234 0.67578-0.85938 0.88281-1.457 0.61328-1.8398 0.61719-1.0039 0.36328-1.0195 0.58984-1.3828 0.48438-1.5703 0.66797-1.3008 0.56641-1.168 0.61719-1.0586 0.42969-1.6758 0.51953-1.1445 0.44531-1.2188 0.73828-1.1289 0.35938-1.1523 0.48438-0.95312 0.32031-0.88281 0.75391-0.68359 0.73828-0.6875 0.78906-1.1367 1.2344-1.2891 1.1016-0.84766 0.5625-1.1641 0.89844-1.1562 1.0078-0.88281 1.5156-1.1211 1.2227-2.9492 1.3398-1.9023 1.9492-1.1836 0.76562-1.0273 0.30859-1.9258 0.58594-1.2031-0.042969-1.8711-0.125-1.1641-0.039062-1.6211 0.41406-1.2812 1.3672-1.1328 0.67188-1.7891 0.87109-1.3281 1.4141-0.78906 0.66797-0.66797 0.87109-1.082 0.95703-0.91406 0.875-0.78906 0.66406-1.1719 0.32031-0.71484-1.1836-1.3047-1.668-0.89453-1.0547-0.1875-1.7227-0.29688-1.0742-0.84766-0.73438-0.67969-1.5898-0.066406-1.2734-0.73828-0.74609-1.0898-0.375-1.043-0.58594-1.2422-0.71484-0.87891-0.79688-0.55859-0.95312-1.4688-1.6719-0.90625-0.57422-0.96094-0.33594-1.0508-0.625-0.56641-1.4336 0.15234-1.3867-0.76953-1.5859 0.99609-0.41016 2.0625-0.60156 1.5391-0.24609 1.6641-0.93359 1.0078-0.30078 0.79297-0.63672 1.8906-0.83984 0.92188-0.46875 1.2266-0.14062 1.3984-0.45312 1.7773-0.37109 1.7227-0.33984 1.1641-0.27344 1.207-0.125 1.3008-0.58203 1.0234-0.44922 1.4453-1.0781 1.4844-0.79297 1.0781-0.79688 1.5195-1.4844 1.1602-0.89844 0.85547-0.71484 0.76562-0.65625 0.94141-0.65234 1.1094-0.007813 0.98047 0.26953 1.293 0.51953 0.63281 0.86719 1.0625 0.39844 1.25-0.085938 1.0117 0.29297 1.0117-0.023438 1.25 0.125 1.4609-0.03125 0.88281-0.73438 1.5742 0.12109 1.0977 0.23828 1.2422-0.19922 0.83594-0.55859 1.4297-0.37891 1.0625-0.62109 1.2891-1.4336 1.0039-1.0039 1.0664-0.69531 1.6172-0.53516 1.1641-0.17969 1.4141 0.40625 1.2422 0.56641 1.6875 0.52734 1.1133 0.35938 1.082-0.80078 1.957-0.33594 2.3125 0.011719 1.3906-0.45312 1.0391-0.10938 1.2773-0.24219 0.73438-0.71875 1.0391-0.039062 0.97266-0.42578 1.1133-0.19141 1.1055-0.082031 1.5039-0.625 1.2148-0.36328 1.2656-0.32422 0.98828-0.35547z" fill="#0a5394" fill-rule="evenodd"/>
<path d="m218.5 115.42 0.46094 0.20703 0.96094 0.57031 1.7031 0.019531 1.0234-0.10156 1.1797 0.11719 1.375 0.65234 0.78906 0.82422-0.42578 1.0781-0.93359 0.92578-1.2891 0.63281-1.2031 0.91406-0.85938 0.61719-1.4375 0.33984-1.0273-0.19141-1.0117-0.015625-1.5547 0.25391-1.0078 0.32422-1.0703 0.30859-1.3438 0.58984-1.1484 0.90234-1.4531 0.71875-1.2617 0.51172-0.90234 0.67578-0.85938 0.88281-1.457 0.61328-1.8398 0.61719-1.0039 0.36328-1.0195 0.58984-1.3828 0.48438-1.5703 0.66797-1.3008 0.56641-1.168 0.61719-1.0586 0.42969-1.6758 0.51953-1.1445 0.44531-1.2188 0.73828-1.1289 0.35938-1.1523 0.48438-0.95312 0.32031-0.88281 0.75391-0.68359 0.73828-0.6875 0.78906-1.1367 1.2344-1.2891 1.1016-0.84766 0.5625-1.1641 0.89844-1.1562 1.0078-0.88281 1.5156-1.1211 1.2227-2.9492 1.3398-1.9023 1.9492-1.1836 0.76562-1.0273 0.30859-1.9258 0.58594-1.2031-0.042969-1.8711-0.125-1.1641-0.039062-1.6211 0.41406-1.2812 1.3672-1.1328 0.67188-1.7891 0.87109-1.3281 1.4141-0.78906 0.66797-0.66797 0.87109-1.082 0.95703-0.91406 0.875-0.78906 0.66406-1.1719 0.32031-0.71484-1.1836-1.3047-1.668-0.89453-1.0547-0.1875-1.7227-0.29688-1.0742-0.84766-0.73438-0.67969-1.5898-0.066406-1.2734-0.73828-0.74609-1.0898-0.375-1.043-0.58594-1.2422-0.71484-0.87891-0.79688-0.55859-0.95312-1.4688-1.6719-0.90625-0.57422-0.96094-0.33594-1.0508-0.625-0.56641-1.4336 0.15234-1.3867-0.76953-1.5859 0.99609-0.41016 2.0625-0.60156 1.5391-0.24609 1.6641-0.93359 1.0078-0.30078 0.79297-0.63672 1.8906-0.83984 0.92188-0.46875 1.2266-0.14062 1.3984-0.45312 1.7773-0.37109 1.7227-0.33984 1.1641-0.27344 1.207-0.125 1.3008-0.58203 1.0234-0.44922 1.4453-1.0781 1.4844-0.79297 1.0781-0.79688 1.5195-1.4844 1.1602-0.89844 0.85547-0.71484 0.76562-0.65625 0.94141-0.65234 1.1094-0.007813 0.98047 0.26953 1.293 0.51953 0.63281 0.86719 1.0625 0.39844 1.25-0.085938 1.0117 0.29297 1.0117-0.023438 1.25 0.125 1.4609-0.03125 0.88281-0.73438 1.5742 0.12109 1.0977 0.23828 1.2422-0.19922 0.83594-0.55859 1.4297-0.37891 1.0625-0.62109 1.2891-1.4336 1.0039-1.0039 1.0664-0.69531 1.6172-0.53516 1.1641-0.17969 1.4141 0.40625 1.2422 0.56641 1.6875 0.52734 1.1133 0.35938 1.082-0.80078 1.957-0.33594 2.3125 0.011719 1.3906-0.45312 1.0391-0.10938 1.2773-0.24219 0.73438-0.71875 1.0391-0.039062 0.97266-0.42578 1.1133-0.19141 1.1055-0.082031 1.5039-0.625 1.2148-0.36328 1.2656-0.32422 0.98828-0.35547 1.4023-0.050781" fill="none" stroke="#fff" stroke-linecap="round" stroke-linejoin="round" stroke-miterlimit="10"/>
<path d="m154.39 150.45c0 3.5898-2.9102 6.5-6.5 6.5s-6.5-2.9102-6.5-6.5 2.9102-6.5 6.5-6.5 6.5 2.9102 6.5 6.5" fill="#28c028" fill-rule="evenodd" stroke="#000" stroke-linecap="round" stroke-linejoin="round" stroke-miterlimit="10"/>
<path d="m49.48 142.36c0.82031 0.58594 1.7109 1.0469 2.6719 1.3906l-1.2344 2.3594c-0.5-0.15625-0.99219-0.36719-1.4688-0.625-0.10547-0.054688-0.84375-0.53906-2.2188-1.4531-1.0742 0.46875-2.2656 0.70312-3.5781 0.70312-2.5312 0-4.5156-0.74219-5.9531-2.2344-1.4297-1.4883-2.1406-3.582-2.1406-6.2812 0-2.6875 0.71875-4.7734 2.1562-6.2656 1.4375-1.5 3.3828-2.25 5.8438-2.25 2.4453 0 4.3828 0.75 5.8125 2.25 1.4258 1.4922 2.1406 3.5781 2.1406 6.2656 0 1.4297-0.19922 2.6797-0.59375 3.75-0.30469 0.82422-0.78125 1.6211-1.4375 2.3906zm-2.6719-1.875c0.42578-0.5 0.74219-1.1016 0.95312-1.8125 0.21875-0.70703 0.32812-1.5234 0.32812-2.4531 0-1.8945-0.42188-3.3125-1.2656-4.25-0.83594-0.94531-1.9297-1.4219-3.2812-1.4219-1.3555 0-2.4531 0.47656-3.2969 1.4219-0.84375 0.9375-1.2656 2.3555-1.2656 4.25 0 1.9297 0.42188 3.3711 1.2656 4.3281 0.84375 0.94922 1.9102 1.4219 3.2031 1.4219 0.47656 0 0.92969-0.078125 1.3594-0.23438-0.67969-0.4375-1.3672-0.78125-2.0625-1.0312l0.9375-1.9062c1.0938 0.375 2.1328 0.9375 3.125 1.6875zm7.2969-12.5h3.3125v8.9219c0 1.418 0.039062 2.3359 0.125 2.75 0.14453 0.67969 0.48438 1.2188 1.0156 1.625 0.53906 0.40625 1.2734 0.60938 2.2031 0.60938 0.9375 0 1.6445-0.19141 2.125-0.57812 0.47656-0.38281 0.76562-0.85938 0.85938-1.4219 0.10156-0.5625 0.15625-1.4922 0.15625-2.7969v-9.1094h3.3281v8.6562c0 1.9688-0.09375 3.3672-0.28125 4.1875-0.17969 0.8125-0.50781 1.5-0.98438 2.0625-0.48047 0.5625-1.125 1.0117-1.9375 1.3438s-1.8711 0.5-3.1719 0.5c-1.5742 0-2.7656-0.18359-3.5781-0.54688s-1.4531-0.83203-1.9219-1.4062c-0.46875-0.58203-0.77734-1.1914-0.92188-1.8281-0.21875-0.94531-0.32812-2.3438-0.32812-4.1875zm16.531 16.469v-16.469h3.3125v16.469zm10.688 0-5.8906-16.469h3.6094l4.1719 12.188 4.0312-12.188h3.5156l-5.8906 16.469zm11.047 0v-16.469h3.3125v16.469zm6.5781 0v-16.328h3.3281v13.547h8.2656v2.7812zm14.047 0v-16.328h3.3281v13.547h8.2656v2.7812zm28.797 0h-3.6094l-1.4375-3.7344h-6.5781l-1.3594 3.7344h-3.5312l6.4062-16.469h3.5156zm-6.1094-6.5156-2.2812-6.1094-2.2188 6.1094zm0 0" fill="none" stroke="#fff" stroke-linecap="round" stroke-linejoin="round" stroke-miterlimit="10" stroke-width="2"/>
<path d="m49.48 142.36c0.82031 0.58594 1.7109 1.0469 2.6719 1.3906l-1.2344 2.3594c-0.5-0.15625-0.99219-0.36719-1.4688-0.625-0.10547-0.054688-0.84375-0.53906-2.2188-1.4531-1.0742 0.46875-2.2656 0.70312-3.5781 0.70312-2.5312 0-4.5156-0.74219-5.9531-2.2344-1.4297-1.4883-2.1406-3.582-2.1406-6.2812 0-2.6875 0.71875-4.7734 2.1562-6.2656 1.4375-1.5 3.3828-2.25 5.8438-2.25 2.4453 0 4.3828 0.75 5.8125 2.25 1.4258 1.4922 2.1406 3.5781 2.1406 6.2656 0 1.4297-0.19922 2.6797-0.59375 3.75-0.30469 0.82422-0.78125 1.6211-1.4375 2.3906zm-2.6719-1.875c0.42578-0.5 0.74219-1.1016 0.95312-1.8125 0.21875-0.70703 0.32812-1.5234 0.32812-2.4531 0-1.8945-0.42188-3.3125-1.2656-4.25-0.83594-0.94531-1.9297-1.4219-3.2812-1.4219-1.3555 0-2.4531 0.47656-3.2969 1.4219-0.84375 0.9375-1.2656 2.3555-1.2656 4.25 0 1.9297 0.42188 3.3711 1.2656 4.3281 0.84375 0.94922 1.9102 1.4219 3.2031 1.4219 0.47656 0 0.92969-0.078125 1.3594-0.23438-0.67969-0.4375-1.3672-0.78125-2.0625-1.0312l0.9375-1.9062c1.0938 0.375 2.1328 0.9375 3.125 1.6875zm7.2969-12.5h3.3125v8.9219c0 1.418 0.039062 2.3359 0.125 2.75 0.14453 0.67969 0.48438 1.2188 1.0156 1.625 0.53906 0.40625 1.2734 0.60938 2.2031 0.60938 0.9375 0 1.6445-0.19141 2.125-0.57812 0.47656-0.38281 0.76562-0.85938 0.85938-1.4219 0.10156-0.5625 0.15625-1.4922 0.15625-2.7969v-9.1094h3.3281v8.6562c0 1.9688-0.09375 3.3672-0.28125 4.1875-0.17969 0.8125-0.50781 1.5-0.98438 2.0625-0.48047 0.5625-1.125 1.0117-1.9375 1.3438s-1.8711 0.5-3.1719 0.5c-1.5742 0-2.7656-0.18359-3.5781-0.54688s-1.4531-0.83203-1.9219-1.4062c-0.46875-0.58203-0.77734-1.1914-0.92188-1.8281-0.21875-0.94531-0.32812-2.3438-0.32812-4.1875zm16.531 16.469v-16.469h3.3125v16.469zm10.688 0-5.8906-16.469h3.6094l4.1719 12.188 4.0312-12.188h3.5156l-5.8906 16.469zm11.047 0v-16.469h3.3125v16.469zm6.5781 0v-16.328h3.3281v13.547h8.2656v2.7812zm14.047 0v-16.328h3.3281v13.547h8.2656v2.7812zm28.797 0h-3.6094l-1.4375-3.7344h-6.5781l-1.3594 3.7344h-3.5312l6.4062-16.469h3.5156zm-6.1094-6.5156-2.2812-6.1094-2.2188 6.1094z" fill-rule="evenodd"/>
</g>
</svg>
