<?xml version="1.0" encoding="UTF-8"?>
<svg width="500pt" height="320pt" version="1.1" viewBox="0 0 500 320" xmlns="http://www.w3.org/2000/svg">
<g id="a">
<rect width="500" height="320" fill="none"/>
<path d="m202.5 65.957 0.16797 0.53906 0.59375 1.5391 0.78906 0.875 1.2539 0.40625 1.9922-0.33594 1.6328-0.011719 1.1719 0.51172 1.2539 0.71484 1.1953 0.42969 1.2344 0.070313 1.1562-0.039063 1.1055 0.29297 0.75781 0.8125 0.69922 1.3125 1.1641 1.0195 1.6484 0.65234 0.97266 1.1133 0.046875 1.1484 0.25391 1.1758 0.71484 0.74609 0.63281 1.2695 0.69531 1.2148 0.65625 0.90625 0.91797-0.79297 0.95703-1.0078 0.85156-0.76562h1.3438l1.3945 0.38672 0.85156 0.85547 0.65234 1.5547 0.73828 1.6836 0.46875 0.95312 0.77344 1.1016 0.61719 1.5195 0.80078 0.74219 0.96875 0.96484 0.73828 0.81641 0.79297 1.3438 0.70312 1.1406 0.96094 0.54688 0.91797-0.48047 0.40234-1.0078 0.23438-1.0898 0.94531-0.69922 0.78516-0.75 1.0898-1.3008 0.80469-1.2539 1.2969-0.36719 1.1367 0.65234 1.0117 0.83984 0.66016 0.87109 0.92578 1.5312 1.0234 1.0195 0.77734 1.2422 0.49219 0.92969 0.90234 0.82031 0.62891 1.2188-0.35547 1.2891-0.82422 0.94141 0.48828 1.2031 0.24609 1.2344 0.71484 1.0234 0.91406 0.84375 1.2383 0.55859 0.625 0.82031-0.089844 1.332 0.12891 1.0273 0.875 0.52344 0.33203 1.1445-0.29297 1.1445 0.050781 1.0273 1.1016-0.054688 1.4062-0.20703 1.7227 0.94922 0.91016 0.53516 1.0234 0.79297 0.55078 0.9375 0.1875 1.0469-0.30469 1.2734 0.066407 1.3242 0.57031 1.3242 0.71484 1.1602 0.8125 0.66406 2.5703 0.33984 1.2656-0.046875 1.3594-0.023437 1.25 0.46875 0.53516 0.91406 0.67188 1.5625-0.55859 1.6602-0.87109 0.73828-0.19922 1.3828 1.0273 1.0039 4.5234 8.8359 3.5547 4.1289 0.86719 2.4102 0.72266 1.1055 1.8242 1.5938 1.6562 1.75 1.0469 1.2852 0.60938 1.1914-3.0586 1.2031-0.74609 0.85938-0.83594 0.64453-1.2148 0.13281-0.77344 0.69141-0.21875 1.0312-1.1602 0.26953-0.70312-0.89844-1.1523 0.042968-0.96875 0.45312-0.98047 0.46484-1.1406 0.26562-0.96484-0.35938-0.60156 0.92578-0.31641 1.1367-1.2227 0.64453-1.2227 0.46094-1.2305 0.51953-0.76562 1.0078-0.51562 0.96484-0.61719 0.85938-1.0508 1.1641-0.89062 0.77734-0.94531 0.35547-0.99609 0.78906-0.71484 0.93359-0.73438 0.75391-0.93359 0.59766-1.0898 0.16016-1.25 0.40625-1.457 0.28516-0.81641 0.58594-1.2383 0.50391-1.1875 0.29297-1.2383 0.17969-1.1211 0.03125-0.79688-0.66016-0.66016-1.125-1.1562-0.40625-1.2266-0.10547-1.0586 0.03125-1.2188-0.55469-1.0586-0.54688-1.082-0.79688-1.1016-0.57812-0.96484-0.35547-1.25-0.42188-1.0898-0.67969-1.2578-0.26172-1.0078 0.15625-1.2188 0.011719-1.2148-0.24219-1.5938 0.21875-1.0508 0.35547-1.3516 0.011719-1.3242 0.39844-1.3203 0.74609-1.2383 0.30469-1.418 0.15625-0.89062 0.72266-0.69141 0.76562-1.0625 0.054687-1.0156-0.39844-1.2266-0.11719-1.1133 0.042969-1.082 0.35547-0.92188 0.55859-1.2695 0.14453-1.0898-0.64062-1.0625-0.72266-1.4141 0.68359-1.0508 0.87891-1.3945 0.042968-1.2812-0.41016-1.0547-0.23047-1.125-0.011718-1.1719 0.42969-0.74609 0.71484-1.1328 0.70312-1.1875 0.28125-1.2695 0.28516-1.3711-0.32422-1.375-0.47266-1.2383-0.16797-1.1758-0.21094-1.0898-0.39844-0.83984-0.56641-1.1016-0.59766-1.0078 0.25-1.0391-0.26172-1.1953-0.44922-1.0273-0.73438-0.78906-1.1016-1.1953-0.85156-1.3633-0.36719-1.1406 0.1875-1.3711-0.25781-1.0625-0.30859-1.2969-0.015625-0.88672 0.99609-0.27734 1.375-0.58594 1.7188-0.66797 1.1641-0.80078 1.0352-0.92188 0.66406-0.89062 0.85938-0.61328 1.1484-0.94922 0.91406-1.1055 0.58203-0.94141 0.71875-1.6211 0.30859-1.0586 0.12109-0.82422 0.78906-0.34375 1.0156-0.61719 1.0312-1.1328 0.76953-1.0234 0.52734-0.91016 0.60938-0.75781 1.0195-0.78516 0.78516-0.76953 1.0469-0.83203 0.78906-1.0195 0.64062-1.0625 0.73438-0.77734 0.77734-0.94141 0.58984-0.75781 0.88281-0.60938 0.87109-0.81641 0.58203-0.91016 0.48047-1.0938 0.64844-0.91016 0.54297-0.65625 0.86328-0.94141 0.51562-1.3438 0.13672-1.0391-0.10938-1.0312 0.60156-0.85547 0.95703-0.24609 1.0352 0.078125 1.1172 0.11719 1.0117-0.56641 1.4258-0.57031 0.90625-0.82422 1.1914-0.51953 0.91406-1.1562-0.011719-1.5234-0.17188-1.3711-0.69922-0.97266-0.57422-0.99609-0.74609-0.98047-0.23438-1.082 0.34766-1.3516 0.52344-1.1641 0.32812-1.0898 0.62891-1.1992 0.12109-1.332 0.125-1.1055 0.32422-1.2422-1.1602-0.66016-1.0234-0.52734-0.91797-1.125-0.94141-1.2227-0.03125-1.2305-0.72266-1.1016 0.011718-0.98438 0.98438-1.1367 0.015625-1.0039-1.1719-0.38672-1.1016-0.26172-1.1055-0.71875-0.78125-1.0352 0.0625-1.5195 0.125-0.73438 0.82422-0.96094 0.71484-1.3633-0.058594-1.9492-0.25-0.39844-1.1289-0.49219-1.2617-0.10156-1.0469-0.92188-1.1992-0.95703-0.34766-1.0352-0.43359-0.28516-1.207-1.3594-0.76172-1.1211-0.63672-1.5391-0.51562-0.94531-0.71875-0.21875-1.1602-1.4336-1.1484-0.55078-1.082 0.039063-1.4688-0.12109-1.0117-0.60156-1.0312-0.86719-0.78125-1.1562-0.37891-1.2227-0.36719-1.0859-0.55859-1.0547-0.87109-1.3594-0.54688-1.0195-0.16016-0.63672-1.1719-0.73438-0.90234-0.76172-0.71484-0.73047-0.94531-1.1445-0.44141-1.3867-0.32031-1.0703-0.58203-0.5625-0.96094-1.0664-0.50391-1.0078-0.5-0.65625-0.85547-0.097656-1.5195 0.63281-1.1055 0.82031 0.96875 1.582 1.0898 1.2812-0.34766 0.46094-1.5898 0.24219-1.043 0.12891-1.4219 0.085938-1.543 0.36719-1.0547 0.57422-0.83203 0.52344-0.89062 1.3945-1.0547 0.85547-0.98047 0.53125-0.88281 0.64062-0.90625 0.53906-0.95312 1.3672-0.5625 1.4297-0.65625 0.90234-0.60156 1.0586-1.0195 0.76562-0.8125 1.0586-0.64453 1.4766-0.16797 0.95703-0.48828 1-0.6875 1.1016-0.23047 0.69922-0.89453 0.89844-0.53516 0.98438-0.46875 1.1406-0.085937 0.91797-0.89062 0.6875-1.0195 0.89453-0.82031 1.2734-0.15625 1.1992-0.375 0.90625-0.60547 1.2227-0.47656 1.4883-0.77344 1.1875-0.40625 1.3867-0.17969 1.0859-0.039063 1.207 0.17188 1.0273 0.035156 1.1523 0.089844 1.0117 0.16016 1.1328 0.12891 1.1367-0.53906 1.0078-0.4375 1.25-0.011719 0.99609-0.13281 0.85938-0.55078 0.97656-0.26953 0.49219-1.1016 0.94531-0.47266 1.0078-0.09375 1.2617-0.10547 1.1133-0.40234 1.0039-0.70312 1.2383-0.55469 1.3828-0.84766 1.0703-0.40234 0.46484-1.1406 0.68359-0.90625 0.75781-1.3125 0.42578-1.0742 0.84766-1.3867 0.41797-0.98047 0.5-0.98438 0.50391-1.1797-0.34766-1.2969 0.44531-1.3164 0.49609-1.1562 0.50781-1.1562-0.10547-1.1523 0.089843-1.4883 0.23047-1.0039 1.3477-0.91406 1.5664-1.0039 1.0039-0.39844 1.2656-0.94141 1.3438-0.60938 0.52734-0.90625 2.4141-1.668 1.1758-0.53125 0.95312-0.88672 0.1875-1.168-0.027343-1.1992-0.42969-2.0195-0.40234-1.7227-0.27734-3.4453 0.10156-1.293 0.91797-0.85938 0.89844-0.50781 1.0586-0.53125 0.46484-0.94922-0.58203-1.1016-0.37109-1.0156-0.69531-1.0273-0.83203-0.83203-0.45703-1.1406-0.058594-1.5-0.13281-1.5781 0.53125-1.1016 0.70312-0.99609 1.4297 0.45312 0.99219 0.14844 1.6328 0.11719h1.5078l1.2852-0.26172 1.0195-0.15625 1.4023 0.28516 1.3516 0.097656 1.625 0.054687 1.0898 0.19141 1.0664 0.33594 1.0547 0.30078 1.4219 0.17188 1.0586 0.45703 1.0469-0.56641 0.80859-1.0039 0.003907-1.1016-0.16406-1.082-0.36719-1.0586 0.67969-1.0938 0.089844-1.4336 0.70312-0.74609 1.4062-0.23828 1.2344-0.40234 0.97656-0.34375 1.2031-0.39844 1.4062-0.11719 1.1445-0.33594 1.4805-0.60547 0.64062-1.0469 1.4844-0.4375 1.0117-0.13672 1.4492-0.46875 1.043-0.87891 1.25-1.1445 0.80469-1.043 1.5859-1.2812 1.3477-0.50781h2.1914l1.1133-0.67188 1.4492-0.16797z" fill="#ccc" fill-rule="evenodd"/>
<path d="m202.5 65.957 0.16797 0.53906 0.59375 1.5391 0.78906 0.875 1.2539 0.40625 1.9922-0.33594 1.6328-0.011719 1.1719 0.51172 1.2539 0.71484 1.1953 0.42969 1.2344 0.070313 1.1562-0.039063 1.1055 0.29297 0.75781 0.8125 0.69922 1.3125 1.1641 1.0195 1.6484 0.65234 0.97266 1.1133 0.046875 1.1484 0.25391 1.1758 0.71484 0.74609 0.63281 1.2695 0.69531 1.2148 0.65625 0.90625 0.91797-0.79297 0.95703-1.0078 0.85156-0.76562h1.3438l1.3945 0.38672 0.85156 0.85547 0.65234 1.5547 0.73828 1.6836 0.46875 0.95312 0.77344 1.1016 0.61719 1.5195 0.80078 0.74219 0.96875 0.96484 0.73828 0.81641 0.79297 1.3438 0.70312 1.1406 0.96094 0.54688 0.91797-0.48047 0.40234-1.0078 0.23438-1.0898 0.94531-0.69922 0.78516-0.75 1.0898-1.3008 0.80469-1.2539 1.2969-0.36719 1.1367 0.65234 1.0117 0.83984 0.66016 0.87109 0.92578 1.5312 1.0234 1.0195 0.77734 1.2422 0.49219 0.92969 0.90234 0.82031 0.62891 1.2188-0.35547 1.2891-0.82422 0.94141 0.48828 1.2031 0.24609 1.2344 0.71484 1.0234 0.91406 0.84375 1.2383 0.55859 0.625 0.82031-0.089844 1.332 0.12891 1.0273 0.875 0.52344 0.33203 1.1445-0.29297 1.1445 0.050781 1.0273 1.1016-0.054688 1.4062-0.20703 1.7227 0.94922 0.91016 0.53516 1.0234 0.79297 0.55078 0.9375 0.1875 1.0469-0.30469 1.2734 0.066407 1.3242 0.57031 1.3242 0.71484 1.1602 0.8125 0.66406 2.5703 0.33984 1.2656-0.046875 1.3594-0.023437 1.25 0.46875 0.53516 0.91406 0.67188 1.5625-0.55859 1.6602-0.87109 0.73828-0.19922 1.3828 1.0273 1.0039 4.5234 8.8359 3.5547 4.1289 0.86719 2.4102 0.72266 1.1055 1.8242 1.5938 1.6562 1.75 1.0469 1.2852 0.60938 1.1914-3.0586 1.2031-0.74609 0.85938-0.83594 0.64453-1.2148 0.13281-0.77344 0.69141-0.21875 1.0312-1.1602 0.26953-0.70312-0.89844-1.1523 0.042968-0.96875 0.45312-0.98047 0.46484-1.1406 0.26562-0.96484-0.35938-0.60156 0.92578-0.31641 1.1367-1.2227 0.64453-1.2227 0.46094-1.2305 0.51953-0.76562 1.0078-0.51562 0.96484-0.61719 0.85938-1.0508 1.1641-0.89062 0.77734-0.94531 0.35547-0.99609 0.78906-0.71484 0.93359-0.73438 0.75391-0.93359 0.59766-1.0898 0.16016-1.25 0.40625-1.457 0.28516-0.81641 0.58594-1.2383 0.50391-1.1875 0.29297-1.2383 0.17969-1.1211 0.03125-0.79688-0.66016-0.66016-1.125-1.1562-0.40625-1.2266-0.10547-1.0586 0.03125-1.2188-0.55469-1.0586-0.54688-1.082-0.79688-1.1016-0.57812-0.96484-0.35547-1.25-0.42188-1.0898-0.67969-1.2578-0.26172-1.0078 0.15625-1.2188 0.011719-1.2148-0.24219-1.5938 0.21875-1.0508 0.35547-1.3516 0.011719-1.3242 0.39844-1.3203 0.74609-1.2383 0.30469-1.418 0.15625-0.89062 0.72266-0.69141 0.76562-1.0625 0.054687-1.0156-0.39844-1.2266-0.11719-1.1133 0.042969-1.082 0.35547-0.92188 0.55859-1.2695 0.14453-1.0898-0.64062-1.0625-0.72266-1.4141 0.68359-1.0508 0.87891-1.3945 0.042968-1.2812-0.41016-1.0547-0.23047-1.125-0.011718-1.1719 0.42969-0.74609 0.71484-1.1328 0.70312-1.1875 0.28125-1.2695 0.28516-1.3711-0.32422-1.375-0.47266-1.2383-0.16797-1.1758-0.21094-1.0898-0.39844-0.83984-0.56641-1.1016-0.59766-1.0078 0.25-1.0391-0.26172-1.1953-0.44922-1.0273-0.73438-0.78906-1.1016-1.1953-0.85156-1.3633-0.36719-1.1406 0.1875-1.3711-0.25781-1.0625-0.30859-1.2969-0.015625-0.88672 0.99609-0.27734 1.375-0.58594 1.7188-0.66797 1.1641-0.80078 1.0352-0.92188 0.66406-0.89062 0.85938-0.61328 1.1484-0.94922 0.91406-1.1055 0.58203-0.94141 0.71875-1.6211 0.30859-1.0586 0.12109-0.82422 0.78906-0.34375 1.0156-0.61719 1.0312-1.1328 0.76953-1.0234 0.52734-0.91016 0.60938-0.75781 1.0195-0.78516 0.78516-0.76953 1.0469-0.83203 0.78906-1.0195 0.64062-1.0625 0.73438-0.77734 0.77734-0.94141 0.58984-0.75781 0.88281-0.60938 0.87109-0.81641 0.58203-0.91016 0.48047-1.0938 0.64844-0.91016 0.54297-0.65625 0.86328-0.94141 0.51562-1.3438 0.13672-1.0391-0.10938-1.0312 0.60156-0.85547 0.95703-0.24609 1.0352 0.078125 1.1172 0.11719 1.0117-0.56641 1.4258-0.57031 0.90625-0.82422 1.1914-0.51953 0.91406-1.1562-0.011719-1.5234-0.17188-1.3711-0.69922-0.97266-0.57422-0.99609-0.74609-0.98047-0.23438-1.082 0.34766-1.3516 0.52344-1.1641 0.32812-1.0898 0.62891-1.1992 0.12109-1.332 0.125-1.1055 0.32422-1.2422-1.1602-0.66016-1.0234-0.52734-0.91797-1.125-0.94141-1.2227-0.03125-1.2305-0.72266-1.1016 0.011718-0.98438 0.98438-1.1367 0.015625-1.0039-1.1719-0.38672-1.1016-0.26172-1.1055-0.71875-0.78125-1.0352 0.0625-1.5195 0.125-0.73438 0.82422-0.96094 0.71484-1.3633-0.058594-1.9492-0.25-0.39844-1.1289-0.49219-1.2617-0.10156-1.0469-0.92188-1.1992-0.95703-0.34766-1.0352-0.43359-0.28516-1.207-1.3594-0.76172-1.1211-0.63672-1.5391-0.51562-0.94531-0.71875-0.21875-1.1602-1.4336-1.1484-0.55078-1.082 0.039063-1.4688-0.12109-1.0117-0.60156-1.0312-0.86719-0.78125-1.1562-0.37891-1.2227-0.36719-1.0859-0.55859-1.0547-0.87109-1.3594-0.54688-1.0195-0.16016-0.63672-1.1719-0.73438-0.90234-0.76172-0.71484-0.73047-0.94531-1.1445-0.44141-1.3867-0.32031-1.0703-0.58203-0.5625-0.96094-1.0664-0.50391-1.0078-0.5-0.65625-0.85547-0.097656-1.5195 0.63281-1.1055 0.82031 0.96875 1.582 1.0898 1.2812-0.34766 0.46094-1.5898 0.24219-1.043 0.12891-1.4219 0.085938-1.543 0.36719-1.0547 0.57422-0.83203 0.52344-0.89062 1.3945-1.0547 0.85547-0.98047 0.53125-0.88281 0.64062-0.90625 0.53906-0.95312 1.3672-0.5625 1.4297-0.65625 0.90234-0.60156 1.0586-1.0195 0.76562-0.8125 1.0586-0.64453 1.4766-0.16797 0.95703-0.48828 1-0.6875 1.1016-0.23047 0.69922-0.89453 0.89844-0.53516 0.98438-0.46875 1.1406-0.085937 0.91797-0.89062 0.6875-1.0195 0.89453-0.82031 1.2734-0.15625 1.1992-0.375 0.90625-0.60547 1.2227-0.47656 1.4883-0.77344 1.1875-0.40625 1.3867-0.17969 1.0859-0.039063 1.207 0.17188 1.0273 0.035156 1.1523 0.089844 1.0117 0.16016 1.1328 0.12891 1.1367-0.53906 1.0078-0.4375 1.25-0.011719 0.99609-0.13281 0.85938-0.55078 0.97656-0.26953 0.49219-1.1016 0.94531-0.47266 1.0078-0.09375 1.2617-0.10547 1.1133-0.40234 1.0039-0.70312 1.2383-0.55469 1.3828-0.84766 1.0703-0.40234 0.46484-1.1406 0.68359-0.90625 0.75781-1.3125 0.42578-1.0742 0.84766-1.3867 0.41797-0.98047 0.5-0.98438 0.50391-1.1797-0.34766-1.2969 0.44531-1.3164 0.49609-1.1562 0.50781-1.1562-0.10547-1.1523 0.089843-1.4883 0.23047-1.0039 1.3477-0.91406 1.5664-1.0039 1.0039-0.39844 1.2656-0.94141 1.3438-0.60938 0.52734-0.90625 2.4141-1.668 1.1758-0.53125 0.95312-0.88672 0.1875-1.168-0.027343-1.1992-0.42969-2.0195-0.40234-1.7227-0.27734-3.4453 0.10156-1.293 0.91797-0.85938 0.89844-0.50781 1.0586-0.53125 0.46484-0.94922-0.58203-1.1016-0.37109-1.0156-0.69531-1.0273-0.83203-0.83203-0.45703-1.1406-0.058594-1.5-0.13281-1.5781 0.53125-1.1016 0.70312-0.99609 1.4297 0.45312 0.99219 0.14844 1.6328 0.11719h1.5078l1.2852-0.26172 1.0195-0.15625 1.4023 0.28516 1.3516 0.097656 1.625 0.054687 1.0898 0.19141 1.0664 0.33594 1.0547 0.30078 1.4219 0.17188 1.0586 0.45703 1.0469-0.56641 0.80859-1.0039 0.003907-1.1016-0.16406-1.082-0.36719-1.0586 0.67969-1.0938 0.089844-1.4336 0.70312-0.74609 1.4062-0.23828 1.2344-0.40234 0.97656-0.34375 1.2031-0.39844 1.4062-0.11719 1.1445-0.33594 1.4805-0.60547 0.64062-1.0469 1.4844-0.4375 1.0117-0.13672 1.4492-0.46875 1.043-0.87891 1.25-1.1445 0.80469-1.043 1.5859-1.2812 1.3477-0.50781h2.1914l1.1133-0.67188 1.4492-0.16797 1.3125 0.16797" fill="none" stroke="#fff" stroke-linecap="round" stroke-linejoin="round" stroke-miterlimit="10" stroke-width="2"/>
<path d="m42.418 29.695 0.25 0.066406 0.77734 0.82031 1.0625 0.94922 0.62891 0.78516 1.2969 0.75 1.0898 0.67969 1.0273 0.78125 1.0625-0.32422 1.0469-0.59766h1.0273l1.0742 0.125 0.41016 0.96875 0.15234 1.1719 1.0234 0.83594 1.1172 0.09375 1.0508 0.25391 0.12109 1.0977-0.18359 1.1172 0.27734 1.0039 1.1953 0.44531 1.4805-0.24609 1.125 0.85938 0.70703 1.1602 0.58203 0.89062 0.58984 1.0938 0.78906 0.98828 0.4375 1.3789 0.73438 1.1211 0.9375 0.53516 1.2734 0.14062 0.95703 0.71094 0.13672 1.2891 0.25 1.3867 0.77734 1.0352 0.65625 0.75781 1.3945 0.39844 1.3906-0.17969 0.56641 1.0977 0.10156 1.1367 0.89062 0.72656 1.0625 0.21094 1.3281 0.1875 1.3516 0.53906 1.0664 0.57422 0.69531 1.0625 0.10938 1.0664-0.25781 1.1367 0.066406 1.2109-0.21875 1.2227-0.78906 0.89453-0.90625 0.63281 0.16797 1.0156-1.0508 0.67578-1.1797 0.97266-0.5625 1.2383-0.41406 0.95703-0.67578 1.1641 0.18359 0.99609 0.60156 0.85156-0.91016 0.70312-0.42188 1.1758-0.003906 1.293-0.20703 1.043-0.33594 1.3906 0.21875 1.4336-0.12109 1.125-1.7617 1.0664-1.5234 0.75391-0.88672 1.1797-0.082031 1.0938-0.046875 1.125-0.09375 1.1797-0.097656 1.1094 0.59375 1.3008 0.15234 1.0742 0.53125 0.97656 0.76562 1.0391 0.98438 0.38672 0.82422 0.80078-0.13281 1.2617-0.23438 1.1719-0.83203 0.64844-1.043-0.042968-0.85547-0.65625-1.1133 0.29688-1.0078 0.41406-1.1992-0.015625-1.2461 0.25391-0.96484 0.71484-1.7461 0.53125-0.96094 0.56641-1.1992 1.9414-0.85547 1.168-0.57422 1.1602-0.62109 1.0664-1.2812 1.2734-0.55078 1.0391-1.9766 0.68359-1.0938-0.027344-1.2539 0.21484-2.1055 0.19531-1.043 0.68359-0.99219 0.73047-1.0312 0.51953-1.2148 0.375-0.93359 0.46875-1.0781 0.99609-0.89844 0.76172-1.207 0.80469-1.1484 0.78906-1.1016 0.74609-0.55859 1.0859-0.35156 1.1602-0.62891 1.4219-0.56641 0.83594-0.67188 0.84766-0.79297 0.82812-1.2031 0.85547-0.88281 0.50781-1.0898 1.1016-0.5625 1.1641-0.49219 0.93359-1.0117-0.73828-0.074218-1.3594 0.03125-1.1562-0.10156-1.3398-0.70703-0.98438-1.1836-0.29297-1.1367 0.16797-0.77734-1.0703-0.33203-1.0078-0.64844-1.0586-0.35156-1.3086 0.67969-1.1172 1.1211-0.87109 0.27734-1.2305-0.73438-1.1055-0.84766-0.68359-0.95312-0.32812-1.1055-0.45312-0.77344-0.80078-0.85156-0.70703 0.48047-0.92969-0.29688-1.2148-0.78516-0.92578-0.93359-0.82812-0.67578-0.98828-0.070313-1.1055-0.88281-0.83203-0.75391-0.92969-0.83203-0.72266-1.0586 0.19922-0.49219 0.88672-0.5625 0.90625-0.98438 0.63672-1.2852-0.10938-1.1328-0.80078-0.79688-0.67188-0.60156-1.0664-0.59375-1.0586-0.625-1.1445-0.98438-1.0859-0.36719-0.98828 0.17578-1.1133 0.019531-1.0273-0.015625-1.1484-0.6875-0.97656-1.3984-0.44531-1.0547-0.32812-0.85547-0.67578-0.26953-1.1602 0.77734-0.83594 0.26172-1.2031-0.38281-1.3516-0.71875-0.94922-0.31641-1.3516 0.039062-1.0352 0.375-1.1289 0.85156-0.73438 0.5-1.1797-0.21094-1.1719-0.50391-1.0664-1.1328-0.72266-1.0078-0.73438-0.86719-1.0156-0.10547-1.1875 0.21484-1.1758-0.13281-1.0625-0.38281-1.0859 0.49219-1.0859 0.96875-0.77344 0.41016-1.0625-0.35938-0.95703 1.0508-0.47266 1.0312-0.99609 1.8477-1.1094 1.3828-0.48047 0.64844-0.80469 0.34766-1.5078 0.64453-1.6055 0.82422-1.3398 1.375-1.1016 0.73438-0.71094 1.1719-1.168 1.3008-0.65625 1-0.60547-0.26953-1.1641-0.49219-1.5234-0.14062-1.0781-0.61328-1.0547-0.78516-1.0078-0.50781-1.0312 0.20312-1.2656 0.23438-1.9648 0.49609-0.98047 1.0195-0.60156 0.33203-1.5039 0.37891-1.0742 0.65234-0.94141 0.1875-1.2266 0.17188-1.2266 0.48438-1.0156 1.1406 0.63281 0.92969 0.80469 0.78516 0.64844 1.5352 0.44531 1.0547-0.28125 1.5938 0.0625 0.94922 0.39844 1.1562-0.42969 1.2188-0.007813 0.98438 0.28906 1.3047-0.625 0.54297-1.0312 0.84375-1.3125 1.4336-0.73047 1.2734-0.24219 1.1758-0.26953 1.9297-0.125 1.3242 0.078125 1.375 0.15234 0.94531-0.40234 0.75391-0.90625 0.61328-0.82812 0.37891-1.4609z" fill="#ccc" fill-rule="evenodd"/>
<path d="m42.418 29.695 0.25 0.066406 0.77734 0.82031 1.0625 0.94922 0.62891 0.78516 1.2969 0.75 1.0898 0.67969 1.0273 0.78125 1.0625-0.32422 1.0469-0.59766h1.0273l1.0742 0.125 0.41016 0.96875 0.15234 1.1719 1.0234 0.83594 1.1172 0.09375 1.0508 0.25391 0.12109 1.0977-0.18359 1.1172 0.27734 1.0039 1.1953 0.44531 1.4805-0.24609 1.125 0.85938 0.70703 1.1602 0.58203 0.89062 0.58984 1.0938 0.78906 0.98828 0.4375 1.3789 0.73438 1.1211 0.9375 0.53516 1.2734 0.14062 0.95703 0.71094 0.13672 1.2891 0.25 1.3867 0.77734 1.0352 0.65625 0.75781 1.3945 0.39844 1.3906-0.17969 0.56641 1.0977 0.10156 1.1367 0.89062 0.72656 1.0625 0.21094 1.3281 0.1875 1.3516 0.53906 1.0664 0.57422 0.69531 1.0625 0.10938 1.0664-0.25781 1.1367 0.066406 1.2109-0.21875 1.2227-0.78906 0.89453-0.90625 0.63281 0.16797 1.0156-1.0508 0.67578-1.1797 0.97266-0.5625 1.2383-0.41406 0.95703-0.67578 1.1641 0.18359 0.99609 0.60156 0.85156-0.91016 0.70312-0.42188 1.1758-0.003906 1.293-0.20703 1.043-0.33594 1.3906 0.21875 1.4336-0.12109 1.125-1.7617 1.0664-1.5234 0.75391-0.88672 1.1797-0.082031 1.0938-0.046875 1.125-0.09375 1.1797-0.097656 1.1094 0.59375 1.3008 0.15234 1.0742 0.53125 0.97656 0.76562 1.0391 0.98438 0.38672 0.82422 0.80078-0.13281 1.2617-0.23438 1.1719-0.83203 0.64844-1.043-0.042968-0.85547-0.65625-1.1133 0.29688-1.0078 0.41406-1.1992-0.015625-1.2461 0.25391-0.96484 0.71484-1.7461 0.53125-0.96094 0.56641-1.1992 1.9414-0.85547 1.168-0.57422 1.1602-0.62109 1.0664-1.2812 1.2734-0.55078 1.0391-1.9766 0.68359-1.0938-0.027344-1.2539 0.21484-2.1055 0.19531-1.043 0.68359-0.99219 0.73047-1.0312 0.51953-1.2148 0.375-0.93359 0.46875-1.0781 0.99609-0.89844 0.76172-1.207 0.80469-1.1484 0.78906-1.1016 0.74609-0.55859 1.0859-0.35156 1.1602-0.62891 1.4219-0.56641 0.83594-0.67188 0.84766-0.79297 0.82812-1.2031 0.85547-0.88281 0.50781-1.0898 1.1016-0.5625 1.1641-0.49219 0.93359-1.0117-0.73828-0.074218-1.3594 0.03125-1.1562-0.10156-1.3398-0.70703-0.98438-1.1836-0.29297-1.1367 0.16797-0.77734-1.0703-0.33203-1.0078-0.64844-1.0586-0.35156-1.3086 0.67969-1.1172 1.1211-0.87109 0.27734-1.2305-0.73438-1.1055-0.84766-0.68359-0.95312-0.32812-1.1055-0.45312-0.77344-0.80078-0.85156-0.70703 0.48047-0.92969-0.29688-1.2148-0.78516-0.92578-0.93359-0.82812-0.67578-0.98828-0.070313-1.1055-0.88281-0.83203-0.75391-0.92969-0.83203-0.72266-1.0586 0.19922-0.49219 0.88672-0.5625 0.90625-0.98438 0.63672-1.2852-0.10938-1.1328-0.80078-0.79688-0.67188-0.60156-1.0664-0.59375-1.0586-0.625-1.1445-0.98438-1.0859-0.36719-0.98828 0.17578-1.1133 0.019531-1.0273-0.015625-1.1484-0.6875-0.97656-1.3984-0.44531-1.0547-0.32812-0.85547-0.67578-0.26953-1.1602 0.77734-0.83594 0.26172-1.2031-0.38281-1.3516-0.71875-0.94922-0.31641-1.3516 0.039062-1.0352 0.375-1.1289 0.85156-0.73438 0.5-1.1797-0.21094-1.1719-0.50391-1.0664-1.1328-0.72266-1.0078-0.73438-0.86719-1.0156-0.10547-1.1875 0.21484-1.1758-0.13281-1.0625-0.38281-1.0859 0.49219-1.0859 0.96875-0.77344 0.41016-1.0625-0.35938-0.95703 1.0508-0.47266 1.0312-0.99609 1.8477-1.1094 1.3828-0.48047 0.64844-0.80469 0.34766-1.5078 0.64453-1.6055 0.82422-1.3398 1.375-1.1016 0.73438-0.71094 1.1719-1.168 1.3008-0.65625 1-0.60547-0.26953-1.1641-0.49219-1.5234-0.14062-1.0781-0.61328-1.0547-0.78516-1.0078-0.50781-1.0312 0.20312-1.2656 0.23438-1.9648 0.49609-0.98047 1.0195-0.60156 0.33203-1.5039 0.37891-1.0742 0.65234-0.94141 0.1875-1.2266 0.17188-1.2266 0.48438-1.0156 1.1406 0.63281 0.92969 0.80469 0.78516 0.64844 1.5352 0.44531 1.0547-0.28125 1.5938 0.0625 0.94922 0.39844 1.1562-0.42969 1.2188-0.007813 0.98438 0.28906 1.3047-0.625 0.54297-1.0312 0.84375-1.3125 1.4336-0.73047 1.2734-0.24219 1.1758-0.26953 1.9297-0.125 1.3242 0.078125 1.375 0.15234 0.94531-0.40234 0.75391-0.90625 0.61328-0.82812 0.37891-1.4609 0.93359-0.31641" fill="none" stroke="#fff" stroke-linecap="round" stroke-linejoin="round" stroke-miterlimit="10" stroke-width="2"/>
<path d="m287.52 149.7-0.16797 0.4375-0.12109 1.4414 0.11719 1.4531 0.03125 1.5703 0.75781 0.94531 1.1641 0.98047 1.2188 1.375 0.46875 1.5625 0.58984 2.1875 0.64844 1.875 2.5664 1.6055 1.2617 1.3438-2.5 0.94141-1.1328 0.27734-0.35938 1.2812-0.76172 1.2891-1.4414 0.94922 0.11328 1.3555 1.0977 0.95703 1.1836 1.4102 1.4922 0.73047 1.0156 1.0156 0.13281 1.1484 1.5352 1.4648 0.61328 0.90625 1.4375 1.4375 1.0703 0.73438 0.97266 0.64844 0.80078 0.76172 1.1016 0.98438 0.87891 0.90625 1.4688 0.62891 1.293 0.46094 1.0859 0.42578 1.4648 0.74219 1.3711-0.19141 1.1484-0.80469 1.0469-0.13281 1.0078 0.19922 0.8125-0.67578 1.0039-0.44531 1.1836-0.007813 1.0391-0.69141 1.0664-0.14453 1.1875 0.058593 1.0352-0.37891 0.94141-0.88281 1.2031-0.76172 0.81641-0.80078 0.51562-0.91797 0.89062-0.98828 0.70703-0.74609 0.96484-0.89062 0.87891-0.53125 1.1016-0.38672 1.2383-0.058594 1.3359-0.61719 1.3398-0.6875 1.1055-0.55859 0.94531-0.86719 0.54297-1.0664 0.88281-0.70703 0.83594-0.79688 0.94531-0.58984 0.89062-1.0898 0.6875-0.875 0.9375-0.39844 1.1445-0.10547 1.0195 0.50391 1.082 0.32812 1.3789-0.94922 0.80078-0.94531 1.2188-0.91016 1.1211-0.60547 1.0273-0.3125 0.97266-0.46094 0.90234 0.84766 0.57812 0.83203 0.9375 1.0312 0.65625 1.2383 0.96484 0.83203 0.51562 0.89453 0.63281 1.0742 1.043 0.51562 1.0703 0.007812 1-0.82031 1.1211-0.34766 1.2383-0.53906 1.0078-0.875 1.1133-0.41797 1.2422 0.027344 1.0156-1.0195 0.75391-0.69531 1.0664-1.0742 1.6055-0.61719 1.2031 0.21094 1.2461 0.13672 1.5352-0.14453 1.3398-0.082031 1-0.15625 1.2227-0.10156 1.1016 0.089844 1.0195-0.089844 1.1992-0.12109 1.1484 0.10156 1.1953 0.25 1.2031-0.39453 1.5508-0.58984 1.3477-0.035156 1.0273-0.36719 0.84766-0.73438 0.32422 2.1992-0.082031 1.9102-0.054687 1.0234-0.11719 2.8828-0.24219 5.7383-0.0625 1.2578-3.0781 72.004 1.2305 0.42969 1.2188-0.24219 1.0703-0.34766h1.1367l1.25-0.21094 1.6133-0.046875 1.0273-0.22656 1.0742 0.14453 0.94531 0.48047 1.1562 0.45703 0.85547 0.73438 0.67969 0.99219 0.67969 0.80859 0.76172 0.66016 1.3398 0.16406 1.2852 0.78906 1.0273 0.69141 1.332 0.51172 1.5234 0.066406 1.332-0.058594 1.375-0.24609 1.2148-0.046875 1.2188-0.26562 1.3945-0.6875 1.3594 0.027343 1.6797 0.21094 1.2969 0.14844 1.1719-0.11328 1.5625-0.55078 1.3398-0.44922 1.2305-0.007812 0.89062 0.75391 0.59766 1.2852 0.11719 1.5859 0.48828 1.1484 0.82422 0.83594 1.3398 0.34766 1.2773-0.007813 1.1016-0.60547 1.0117-0.66406 1.5234-0.14453 1.7969-0.019531 0.97266 0.26562 1.3711 0.26562 1.3477-0.72266 1.2227-0.36719 1.0156 0.34766 0.95703 0.67188 1.0352 0.47656 1.0195 0.007812 1.0859 0.10156 0.76172 0.9375 0.71484 0.87891 1.3047 0.58984 1.0742 0.34766 1.2852 0.95312 1.0625 0.36719 0.59766 1.0391 1.0664 0.25781 1.1914-0.40625 1.5508-0.98828 0.9375-0.57812 1.2578-0.25781 1.1641-0.046875 0.94531-0.71484 0.82812-1.1406 0.60547-0.80859 1.1211-0.32031 1.2578-0.96484 1.1289-0.69531 1.082 0.089844 1.0117 0.17578 1.082 0.13672 1.6719-0.32812 1.3203-0.44141 1.5625-0.84375 1.0352-0.58984 1.0742-0.57812 1.0195-0.64062 0.99219-0.625 0.98047-0.55859 1.3945-0.43359 1.3125-0.019532 1.0586 0.085938 1.4219 0.33594 1.1914 0.28516 1.0039 0.42188 0.82422 0.79297 0.38672 1.082 0.64453 0.83203 1.0625 0.43359 1.332-0.035157 1.2188 0.48438 0.83594 1.0938 0.64453 0.76953 0.83203 0.64453 1.1602 1.2188 1.1445 0.78125 1.3711 0.49609 1.2539 0.46094 0.46094 0.96094 0.67969 0.90234 0.58594 0.92969 0.26562 1.0234 0.12109 1.3516-0.0625 1.0547v1.293l0.47656 1.0391 0.36719 1.082 0.59766 0.89453-1.2812 0.0625-1.4531-0.52344-1.0117-0.8125-0.89844-0.65234-0.80078-0.73438-0.96094-0.73828-0.80859-1-0.98828-0.79297-1.1133-0.12109-0.99609-0.40234-0.85547-0.58984-1.0898-0.45312-1.1289-0.26562-1.168-0.097657-1.3125-0.30469-1.168-0.26953-1.1172-0.38672-1.1133-0.56641-1.3281-0.78125-1.2422-0.38281-1.0781-0.29297-1.0625-0.19922-1.0898 0.003906-1.1055 0.007812-0.97656 0.24219-1.207 0.29688-1.6641 0.57812-1.8398 0.30469-1.1719-0.011718-1.2305 0.33984-0.41406 0.96484-0.53516 0.94141-0.99219 0.62109-0.95312 0.45312-1.6836 0.019531-1.1406 0.011719-1.5469 0.43359-1.0898 0.6875-0.71875 1.1406-0.49219 1.4375-0.78516 0.85938-1.0195 0.53125-0.69141 0.88281-0.82812 0.63672-0.38672 1.0625-0.80469 0.73047-0.13281 1.3281-0.60938 0.91797-0.41406 0.91406-0.58594 1.0625-0.49219 1.0312-1.7617 0.54688-1.3477 0.015625-1.8516 0.33984-1.1133 0.21875-1.0195 0.1875-1.0195-0.035156-1.1797 0.24609-1.082 0.3125-1.1172 0.56641-3.3242 2.0742-1.7852 0.78516-1.0234 0.21875-1.2773-0.30469-2.9531-1.3281-1.3984-0.38281-1.0195-0.35156-1.875-0.92578-1.0781-0.41797-1.8789-0.007812-2.207 0.59375-2.0664-0.41797-0.85938-0.54297-1.1445-0.57422-0.98438-0.32031-1.1133-0.38281-1.0859-0.039062-1.6211 0.375-1.1211-0.035156-1.0781-0.54297-1.1094-0.76562-1.2383-1.1133-1.0508-0.76172-1.4609-0.54297-1.4297-0.13281-1.9961-0.52344-1.1602-0.43359-0.9375-0.62891-1.0312-0.90625-0.83203-0.74219-0.99219-0.50391-1.0156-0.58203-0.9375-0.87891-1.3789-1.0117-1.0469-0.48438-1.7891-0.82031-1.1523-0.97656-0.76562-1.1094-0.62109-1.082-0.90234-1.082-0.92969-0.41016-1.1016-0.17969-1.5234 0.66016-1.0703-0.089844-1.1641-0.33203-1.7734-1.0117-1.4805-1.2188-0.58203-0.82422-1.3945-1.8555-0.95312-0.61328-1.1016-0.9375-0.99609-0.55469-1.1172-0.76562-1.418 0.92578-0.95312 0.92188-1.125 0.89844-1.9648 1.0547-1.3086 0.66406-1.3086 0.83594-1.1172 0.75-0.28906 1.8047-0.80078 1.2266-1.8281 0.10547-2.1406 0.47656-2.2773-0.10547-1.7969-0.53125-1.4727-1.7656-0.59766-1.2969-1.082-1.8242-0.82422-2.0391-0.83203-1.7812-0.78906-1.6836-0.58984-1.0312-0.96875-1.5391-0.66016-1.0938-0.89453-0.6875-1.6211-0.64453-1.6484-0.75781-1.0078-0.32031-1.832-0.58594-1.0273-0.16406-1.9766-0.03125-1.3867-0.12891-1.3477-0.12109-1.8438-0.17969-1.6289 0.066406-1.1289-0.28516-1.2969-0.35547-1.4102-0.89062-0.85156-1.0781-2.0547-2.0352-0.95312-0.98047-3.2148-1.7734-1.3125-1.8438-0.97266-1.3711-1.0586-0.72656-2.7266-1.0586-1.2305-0.92969-1.1914-0.89844-1.5664-0.94922-1.6797-1.7227-2.8008-2.1758-0.98438-0.63672-1.1719-0.41797-1.2266 0.019531-1.0742-0.16016-0.92969-0.64453-0.56641-0.85156-0.85938-0.61328-1.1953-0.55859-1.3008-0.57812-1.0547-0.55859-0.91797-0.76562-0.65234-0.84766-1.043-0.3125-1.3477-0.070313-0.99609-0.19922-1.0352 0.011718-0.94922-0.50781-1.3125-0.09375-1.0938 0.14453-1.2031-0.27344-0.86719-0.62891-0.94922 0.62891-0.91406 0.41016-1.5859 0.64844-1.7578 0.28125-1.332 0.12891-2.0195-0.29688-1.4922-0.82031-1.1719-0.83984-1.2969-0.95312-1.1172-1.7383-0.59766-0.83984-0.98047-0.26172-1.5117-0.38672-0.92969-0.66797-1.0273-0.58984-1.2109 0.089844-1.1133-0.074219-0.76953-0.68359-1.1172-0.12891-1.1133-0.625-1.2266 0.33203-0.87109 0.56641-1.207 0.75781-1.168 0.078125-1.2383-0.32031-0.72656-0.69531-1.1953 0.10156-1.3477 0.011719-1.6641 0.70703-1.1953-0.10547-0.77344-0.70703-1.0625-0.27344-0.98828-0.28125-0.89844-0.81641-1.0312-0.058594-0.79688 1.0039-0.32812 1.0039-0.35938 1.0898-1.1758 0.12891-1.0039-0.12109-1.0508-0.47266-0.58984-1.1445-0.69922-0.80078-1.168-0.44531-1.4844-0.089844-0.99609-0.21484-0.33594-1.1367-0.42188-0.92188-0.65234-0.87891 0.25781-1.168 0.26172-1.0742-0.63281-0.86719-0.96484-0.82812-0.88281-0.89453 0.46875-0.92188-0.46875-0.91016-0.85938-0.99219-0.375-1.1914 0.28125-1.5898 0.45703-1.2461 0.10938-1.0938 0.20312-1.1328 0.26562-1.457 0.58594-1.4883 0.43359-1.0742 0.20312-1.5781-0.59766-1.3164-0.85938-1.0234-0.87891-0.78906-0.33594-1.1016 0.011719-1.2344-0.25391-0.97266-1.0547-0.67188-1.2539-0.125-1.1523 0.74609 0.14453 1.6992 0.13281 1.2031 0.71094 1.3594 0.75 1.1953 0.83203 1.2852-0.023438 1.1133-0.39062 1.043-0.76953 1.5781-1.6328 1.8438-1.2344 0.87891-1.5195 1.0508-1.3867 1-1.1172 0.55859-0.96484 0.58594-0.89453 0.63281-0.98438 0.48438-0.67578 1.3281-0.44141 1.3281-0.49609 1.1445-0.58594 0.90234-0.52344 1.1172-0.67969 0.90234-0.35156 1.0117-0.74609 1.3281-0.43359 1.1094-0.34375 1.1719-0.19922 1.1016-0.55078 1.082-0.97266 0.95703-0.8125 0.82031-0.82031 1.0039-1.2109 1.4062-0.69531 0.78516-0.43359 1.0938-0.58594 1-0.875 1.1836-0.62109 0.78516-1.0664-0.44922-0.71094-1.0938-1.1133-0.40625-1.2188-0.097657-1.0859 0.078125-1.2227-0.12109-1.4141-0.42188-1.0625-0.35938-1.0977-0.74219-0.70703-0.74609-1.2422 0.14062-1.6484-0.039062-1-0.70703-0.81641-0.64062-1.2422-0.22266-0.96094-0.80078-1.043-0.4375-1.3359 0.34375-1.6953 0.054688-1.3516 0.19922-1.6758-0.27734-1.3906-0.17188-1.7227 0.035156-1.0391-0.28906-0.94531-0.51562-1.3945-0.83203-0.69922-0.80469-1.0078-0.48047-1.5469-0.78906-1.3945-0.70312-0.69531-0.82422-1.1016-0.69141-1.3906-0.70703-0.82812-0.60938-1.0156 0.027344-1.1953-0.33984-1.2578-0.8125-1.1914-0.53125 0.37109-1.1602-0.87109-0.55469-0.91406-1.1992-1.0352-0.82031-0.42969-1.2969-1.3281-0.25-0.88281-1.0352-0.89453-0.93359-0.68359-0.77344-0.63281-0.83203-1.0742-1.4258-0.63281-1.125-0.88672-0.70312-0.85938-0.53516 0.52344-0.85938 0.54688-0.89844 0.64453-0.98438 0.76172-1.2109 0.19922-1.0859-0.1875-1.0312 0.019531-1.0391 0.44531-1.1016 0.96094-0.95312 1.0742-0.23828 1.1016-0.074219 1.0938-0.066406 0.92969-0.69531 0.73828-0.90625 0.97266-0.40625 1.0664-0.72266 0.94531-0.5 0.75391-0.74609 0.87109-1.2031 1.0312-0.67578 0.94531-0.88281 1.0625-0.73438 1.0195-0.64062 0.83203-0.78906 0.76953-1.0469 0.78516-0.78516 0.75781-1.0195 0.91016-0.60938 1.0234-0.52734 1.1328-0.76953 0.59766-0.99609 0.32422-0.97656 0.71094-0.78906 1.2109-0.19531 1.6211-0.30859 0.94141-0.71875 1.1055-0.58203 0.94922-0.91406 0.61328-1.1484 0.69141-0.80859 0.91016-0.42188 0.76953-0.82031 0.50391-0.98438 0.74609-1.582 0.32812-1.4492 0.44141-1.1875 1.418-0.58594 1.582 0.35156 1.0391 0.39453 1.0742-0.33594 1.3516 0.24219 1.1641 0.60938 1 1.0586 0.73438 0.78906 1.1523 0.66016 1.6055 0.41797 1.0078-0.25 1.1016 0.59766 0.83984 0.56641 1.0898 0.39844 1.1758 0.21094 1.2383 0.16797 0.96094 0.36719 1.3672 0.41797 1.0352-0.097656 1.0742-0.28906 1.1523-0.36719 0.92578-0.67969 1.1953-0.91406 1.0586-0.054687 1.0391 0.078125 1.2656 0.41797 1.5938 0.19922 1.0547-0.51172 0.92969-0.85156 1.2695-0.24219 0.95312 1.082 1.3359 0.19922 1.1523-0.42188 1.0703-0.41797 0.99609-0.26172 1.3633 0.09375 1.0508 0.28125 1.2891 0.24219 0.97656-0.88281 0.89062-0.72266 1.2266-0.15625 1-0.11719 1.1094-0.62891 1.375-0.53516 1.1953-0.23047 1.0625 0.011719 1.332-0.49609 1.5742 0.054687 1.0156 0.14844 1.3438-0.097656 1.1836 0.0625 1.0312 0.31641 0.98438 0.60938 1.4062 0.50391 1.1445 0.51172 1.1016 0.72656 0.99609 0.63672 0.96484 0.47266 0.96484 0.28516 1.1445-0.074219 1.2148 0.21094 1.0508 0.58594 0.67188 1.1641 0.96484 0.37891 1.2148-0.0625 1.1445-0.17969 1.2383-0.36719 1.1875-0.80859 1.3711-0.35547 1.2617-0.3125 1.0078-0.29688 1.0039-0.13672 0.83984-0.94141 0.83984-0.75781 0.80859-1.0156 1.4062-0.64062 0.89062-0.77734 0.80859-0.82812 0.85938-1.1953 0.51562-0.96484 0.58594-0.83984 0.89453-0.49219 1.0938-0.31641 0.96094-0.56641 0.99609-0.60938 0.32031-1.1289 0.80469-0.64453 1.0898 0.35547 1.0898-0.5625 1.0234-0.44922 1.1484-0.46094 0.95703 0.76172 1.0664 0.44141 0.45703-0.97266 0.58203-0.91016 1.1484-0.29297 1.0117-0.58203 0.75-0.82812 2.4766-1.4531z" fill="#ccc" fill-rule="evenodd"/>
<path d="m287.52 149.7-0.16797 0.4375-0.12109 1.4414 0.11719 1.4531 0.03125 1.5703 0.75781 0.94531 1.1641 0.98047 1.2188 1.375 0.46875 1.5625 0.58984 2.1875 0.64844 1.875 2.5664 1.6055 1.2617 1.3438-2.5 0.94141-1.1328 0.27734-0.35938 1.2812-0.76172 1.2891-1.4414 0.94922 0.11328 1.3555 1.0977 0.95703 1.1836 1.4102 1.4922 0.73047 1.0156 1.0156 0.13281 1.1484 1.5352 1.4648 0.61328 0.90625 1.4375 1.4375 1.0703 0.73438 0.97266 0.64844 0.80078 0.76172 1.1016 0.98438 0.87891 0.90625 1.4688 0.62891 1.293 0.46094 1.0859 0.42578 1.4648 0.74219 1.3711-0.19141 1.1484-0.80469 1.0469-0.13281 1.0078 0.19922 0.8125-0.67578 1.0039-0.44531 1.1836-0.007813 1.0391-0.69141 1.0664-0.14453 1.1875 0.058593 1.0352-0.37891 0.94141-0.88281 1.2031-0.76172 0.81641-0.80078 0.51562-0.91797 0.89062-0.98828 0.70703-0.74609 0.96484-0.89062 0.87891-0.53125 1.1016-0.38672 1.2383-0.058594 1.3359-0.61719 1.3398-0.6875 1.1055-0.55859 0.94531-0.86719 0.54297-1.0664 0.88281-0.70703 0.83594-0.79688 0.94531-0.58984 0.89062-1.0898 0.6875-0.875 0.9375-0.39844 1.1445-0.10547 1.0195 0.50391 1.082 0.32812 1.3789-0.94922 0.80078-0.94531 1.2188-0.91016 1.1211-0.60547 1.0273-0.3125 0.97266-0.46094 0.90234 0.84766 0.57812 0.83203 0.9375 1.0312 0.65625 1.2383 0.96484 0.83203 0.51562 0.89453 0.63281 1.0742 1.043 0.51562 1.0703 0.007812 1-0.82031 1.1211-0.34766 1.2383-0.53906 1.0078-0.875 1.1133-0.41797 1.2422 0.027344 1.0156-1.0195 0.75391-0.69531 1.0664-1.0742 1.6055-0.61719 1.2031 0.21094 1.2461 0.13672 1.5352-0.14453 1.3398-0.082031 1-0.15625 1.2227-0.10156 1.1016 0.089844 1.0195-0.089844 1.1992-0.12109 1.1484 0.10156 1.1953 0.25 1.2031-0.39453 1.5508-0.58984 1.3477-0.035156 1.0273-0.36719 0.84766-0.73438 0.32422 2.1992-0.082031 1.9102-0.054687 1.0234-0.11719 2.8828-0.24219 5.7383-0.0625 1.2578-3.0781 72.004 1.2305 0.42969 1.2188-0.24219 1.0703-0.34766h1.1367l1.25-0.21094 1.6133-0.046875 1.0273-0.22656 1.0742 0.14453 0.94531 0.48047 1.1562 0.45703 0.85547 0.73438 0.67969 0.99219 0.67969 0.80859 0.76172 0.66016 1.3398 0.16406 1.2852 0.78906 1.0273 0.69141 1.332 0.51172 1.5234 0.066406 1.332-0.058594 1.375-0.24609 1.2148-0.046875 1.2188-0.26562 1.3945-0.6875 1.3594 0.027343 1.6797 0.21094 1.2969 0.14844 1.1719-0.11328 1.5625-0.55078 1.3398-0.44922 1.2305-0.007812 0.89062 0.75391 0.59766 1.2852 0.11719 1.5859 0.48828 1.1484 0.82422 0.83594 1.3398 0.34766 1.2773-0.007813 1.1016-0.60547 1.0117-0.66406 1.5234-0.14453 1.7969-0.019531 0.97266 0.26562 1.3711 0.26562 1.3477-0.72266 1.2227-0.36719 1.0156 0.34766 0.95703 0.67188 1.0352 0.47656 1.0195 0.007812 1.0859 0.10156 0.76172 0.9375 0.71484 0.87891 1.3047 0.58984 1.0742 0.34766 1.2852 0.95312 1.0625 0.36719 0.59766 1.0391 1.0664 0.25781 1.1914-0.40625 1.5508-0.98828 0.9375-0.57812 1.2578-0.25781 1.1641-0.046875 0.94531-0.71484 0.82812-1.1406 0.60547-0.80859 1.1211-0.32031 1.2578-0.96484 1.1289-0.69531 1.082 0.089844 1.0117 0.17578 1.082 0.13672 1.6719-0.32812 1.3203-0.44141 1.5625-0.84375 1.0352-0.58984 1.0742-0.57812 1.0195-0.64062 0.99219-0.625 0.98047-0.55859 1.3945-0.43359 1.3125-0.019532 1.0586 0.085938 1.4219 0.33594 1.1914 0.28516 1.0039 0.42188 0.82422 0.79297 0.38672 1.082 0.64453 0.83203 1.0625 0.43359 1.332-0.035157 1.2188 0.48438 0.83594 1.0938 0.64453 0.76953 0.83203 0.64453 1.1602 1.2188 1.1445 0.78125 1.3711 0.49609 1.2539 0.46094 0.46094 0.96094 0.67969 0.90234 0.58594 0.92969 0.26562 1.0234 0.12109 1.3516-0.0625 1.0547v1.293l0.47656 1.0391 0.36719 1.082 0.59766 0.89453-1.2812 0.0625-1.4531-0.52344-1.0117-0.8125-0.89844-0.65234-0.80078-0.73438-0.96094-0.73828-0.80859-1-0.98828-0.79297-1.1133-0.12109-0.99609-0.40234-0.85547-0.58984-1.0898-0.45312-1.1289-0.26562-1.168-0.097657-1.3125-0.30469-1.168-0.26953-1.1172-0.38672-1.1133-0.56641-1.3281-0.78125-1.2422-0.38281-1.0781-0.29297-1.0625-0.19922-1.0898 0.003906-1.1055 0.007812-0.97656 0.24219-1.207 0.29688-1.6641 0.57812-1.8398 0.30469-1.1719-0.011718-1.2305 0.33984-0.41406 0.96484-0.53516 0.94141-0.99219 0.62109-0.95312 0.45312-1.6836 0.019531-1.1406 0.011719-1.5469 0.43359-1.0898 0.6875-0.71875 1.1406-0.49219 1.4375-0.78516 0.85938-1.0195 0.53125-0.69141 0.88281-0.82812 0.63672-0.38672 1.0625-0.80469 0.73047-0.13281 1.3281-0.60938 0.91797-0.41406 0.91406-0.58594 1.0625-0.49219 1.0312-1.7617 0.54688-1.3477 0.015625-1.8516 0.33984-1.1133 0.21875-1.0195 0.1875-1.0195-0.035156-1.1797 0.24609-1.082 0.3125-1.1172 0.56641-3.3242 2.0742-1.7852 0.78516-1.0234 0.21875-1.2773-0.30469-2.9531-1.3281-1.3984-0.38281-1.0195-0.35156-1.875-0.92578-1.0781-0.41797-1.8789-0.007812-2.207 0.59375-2.0664-0.41797-0.85938-0.54297-1.1445-0.57422-0.98438-0.32031-1.1133-0.38281-1.0859-0.039062-1.6211 0.375-1.1211-0.035156-1.0781-0.54297-1.1094-0.76562-1.2383-1.1133-1.0508-0.76172-1.4609-0.54297-1.4297-0.13281-1.9961-0.52344-1.1602-0.43359-0.9375-0.62891-1.0312-0.90625-0.83203-0.74219-0.99219-0.50391-1.0156-0.58203-0.9375-0.87891-1.3789-1.0117-1.0469-0.48438-1.7891-0.82031-1.1523-0.97656-0.76562-1.1094-0.62109-1.082-0.90234-1.082-0.92969-0.41016-1.1016-0.17969-1.5234 0.66016-1.0703-0.089844-1.1641-0.33203-1.7734-1.0117-1.4805-1.2188-0.58203-0.82422-1.3945-1.8555-0.95312-0.61328-1.1016-0.9375-0.99609-0.55469-1.1172-0.76562-1.418 0.92578-0.95312 0.92188-1.125 0.89844-1.9648 1.0547-1.3086 0.66406-1.3086 0.83594-1.1172 0.75-0.28906 1.8047-0.80078 1.2266-1.8281 0.10547-2.1406 0.47656-2.2773-0.10547-1.7969-0.53125-1.4727-1.7656-0.59766-1.2969-1.082-1.8242-0.82422-2.0391-0.83203-1.7812-0.78906-1.6836-0.58984-1.0312-0.96875-1.5391-0.66016-1.0938-0.89453-0.6875-1.6211-0.64453-1.6484-0.75781-1.0078-0.32031-1.832-0.58594-1.0273-0.16406-1.9766-0.03125-1.3867-0.12891-1.3477-0.12109-1.8438-0.17969-1.6289 0.066406-1.1289-0.28516-1.2969-0.35547-1.4102-0.89062-0.85156-1.0781-2.0547-2.0352-0.95312-0.98047-3.2148-1.7734-1.3125-1.8438-0.97266-1.3711-1.0586-0.72656-2.7266-1.0586-1.2305-0.92969-1.1914-0.89844-1.5664-0.94922-1.6797-1.7227-2.8008-2.1758-0.98438-0.63672-1.1719-0.41797-1.2266 0.019531-1.0742-0.16016-0.92969-0.64453-0.56641-0.85156-0.85938-0.61328-1.1953-0.55859-1.3008-0.57812-1.0547-0.55859-0.91797-0.76562-0.65234-0.84766-1.043-0.3125-1.3477-0.070313-0.99609-0.19922-1.0352 0.011718-0.94922-0.50781-1.3125-0.09375-1.0938 0.14453-1.2031-0.27344-0.86719-0.62891-0.94922 0.62891-0.91406 0.41016-1.5859 0.64844-1.7578 0.28125-1.332 0.12891-2.0195-0.29688-1.4922-0.82031-1.1719-0.83984-1.2969-0.95312-1.1172-1.7383-0.59766-0.83984-0.98047-0.26172-1.5117-0.38672-0.92969-0.66797-1.0273-0.58984-1.2109 0.089844-1.1133-0.074219-0.76953-0.68359-1.1172-0.12891-1.1133-0.625-1.2266 0.33203-0.87109 0.56641-1.207 0.75781-1.168 0.078125-1.2383-0.32031-0.72656-0.69531-1.1953 0.10156-1.3477 0.011719-1.6641 0.70703-1.1953-0.10547-0.77344-0.70703-1.0625-0.27344-0.98828-0.28125-0.89844-0.81641-1.0312-0.058594-0.79688 1.0039-0.32812 1.0039-0.35938 1.0898-1.1758 0.12891-1.0039-0.12109-1.0508-0.47266-0.58984-1.1445-0.69922-0.80078-1.168-0.44531-1.4844-0.089844-0.99609-0.21484-0.33594-1.1367-0.42188-0.92188-0.65234-0.87891 0.25781-1.168 0.26172-1.0742-0.63281-0.86719-0.96484-0.82812-0.88281-0.89453 0.46875-0.92188-0.46875-0.91016-0.85938-0.99219-0.375-1.1914 0.28125-1.5898 0.45703-1.2461 0.10938-1.0938 0.20312-1.1328 0.26562-1.457 0.58594-1.4883 0.43359-1.0742 0.20312-1.5781-0.59766-1.3164-0.85938-1.0234-0.87891-0.78906-0.33594-1.1016 0.011719-1.2344-0.25391-0.97266-1.0547-0.67188-1.2539-0.125-1.1523 0.74609 0.14453 1.6992 0.13281 1.2031 0.71094 1.3594 0.75 1.1953 0.83203 1.2852-0.023438 1.1133-0.39062 1.043-0.76953 1.5781-1.6328 1.8438-1.2344 0.87891-1.5195 1.0508-1.3867 1-1.1172 0.55859-0.96484 0.58594-0.89453 0.63281-0.98438 0.48438-0.67578 1.3281-0.44141 1.3281-0.49609 1.1445-0.58594 0.90234-0.52344 1.1172-0.67969 0.90234-0.35156 1.0117-0.74609 1.3281-0.43359 1.1094-0.34375 1.1719-0.19922 1.1016-0.55078 1.082-0.97266 0.95703-0.8125 0.82031-0.82031 1.0039-1.2109 1.4062-0.69531 0.78516-0.43359 1.0938-0.58594 1-0.875 1.1836-0.62109 0.78516-1.0664-0.44922-0.71094-1.0938-1.1133-0.40625-1.2188-0.097657-1.0859 0.078125-1.2227-0.12109-1.4141-0.42188-1.0625-0.35938-1.0977-0.74219-0.70703-0.74609-1.2422 0.14062-1.6484-0.039062-1-0.70703-0.81641-0.64062-1.2422-0.22266-0.96094-0.80078-1.043-0.4375-1.3359 0.34375-1.6953 0.054688-1.3516 0.19922-1.6758-0.27734-1.3906-0.17188-1.7227 0.035156-1.0391-0.28906-0.94531-0.51562-1.3945-0.83203-0.69922-0.80469-1.0078-0.48047-1.5469-0.78906-1.3945-0.70312-0.69531-0.82422-1.1016-0.69141-1.3906-0.70703-0.82812-0.60938-1.0156 0.027344-1.1953-0.33984-1.2578-0.8125-1.1914-0.53125 0.37109-1.1602-0.87109-0.55469-0.91406-1.1992-1.0352-0.82031-0.42969-1.2969-1.3281-0.25-0.88281-1.0352-0.89453-0.93359-0.68359-0.77344-0.63281-0.83203-1.0742-1.4258-0.63281-1.125-0.88672-0.70312-0.85938-0.53516 0.52344-0.85938 0.54688-0.89844 0.64453-0.98438 0.76172-1.2109 0.19922-1.0859-0.1875-1.0312 0.019531-1.0391 0.44531-1.1016 0.96094-0.95312 1.0742-0.23828 1.1016-0.074219 1.0938-0.066406 0.92969-0.69531 0.73828-0.90625 0.97266-0.40625 1.0664-0.72266 0.94531-0.5 0.75391-0.74609 0.87109-1.2031 1.0312-0.67578 0.94531-0.88281 1.0625-0.73438 1.0195-0.64062 0.83203-0.78906 0.76953-1.0469 0.78516-0.78516 0.75781-1.0195 0.91016-0.60938 1.0234-0.52734 1.1328-0.76953 0.59766-0.99609 0.32422-0.97656 0.71094-0.78906 1.2109-0.19531 1.6211-0.30859 0.94141-0.71875 1.1055-0.58203 0.94922-0.91406 0.61328-1.1484 0.69141-0.80859 0.91016-0.42188 0.76953-0.82031 0.50391-0.98438 0.74609-1.582 0.32812-1.4492 0.44141-1.1875 1.418-0.58594 1.582 0.35156 1.0391 0.39453 1.0742-0.33594 1.3516 0.24219 1.1641 0.60938 1 1.0586 0.73438 0.78906 1.1523 0.66016 1.6055 0.41797 1.0078-0.25 1.1016 0.59766 0.83984 0.56641 1.0898 0.39844 1.1758 0.21094 1.2383 0.16797 0.96094 0.36719 1.3672 0.41797 1.0352-0.097656 1.0742-0.28906 1.1523-0.36719 0.92578-0.67969 1.1953-0.91406 1.0586-0.054687 1.0391 0.078125 1.2656 0.41797 1.5938 0.19922 1.0547-0.51172 0.92969-0.85156 1.2695-0.24219 0.95312 1.082 1.3359 0.19922 1.1523-0.42188 1.0703-0.41797 0.99609-0.26172 1.3633 0.09375 1.0508 0.28125 1.2891 0.24219 0.97656-0.88281 0.89062-0.72266 1.2266-0.15625 1-0.11719 1.1094-0.62891 1.375-0.53516 1.1953-0.23047 1.0625 0.011719 1.332-0.49609 1.5742 0.054687 1.0156 0.14844 1.3438-0.097656 1.1836 0.0625 1.0312 0.31641 0.98438 0.60938 1.4062 0.50391 1.1445 0.51172 1.1016 0.72656 0.99609 0.63672 0.96484 0.47266 0.96484 0.28516 1.1445-0.074219 1.2148 0.21094 1.0508 0.58594 0.67188 1.1641 0.96484 0.37891 1.2148-0.0625 1.1445-0.17969 1.2383-0.36719 1.1875-0.80859 1.3711-0.35547 1.2617-0.3125 1.0078-0.29688 1.0039-0.13672 0.83984-0.94141 0.83984-0.75781 0.80859-1.0156 1.4062-0.64062 0.89062-0.77734 0.80859-0.82812 0.85938-1.1953 0.51562-0.96484 0.58594-0.83984 0.89453-0.49219 1.0938-0.31641 0.96094-0.56641 0.99609-0.60938 0.32031-1.1289 0.80469-0.64453 1.0898 0.35547 1.0898-0.5625 1.0234-0.44922 1.1484-0.46094 0.95703 0.76172 1.0664 0.44141 0.45703-0.97266 0.58203-0.91016 1.1484-0.29297 1.0117-0.58203 0.75-0.82812 2.4766-1.4531 0.82031 0.054688" fill="none" stroke="#fff" stroke-linecap="round" stroke-linejoin="round" stroke-miterlimit="10" stroke-width="2"/>
<path d="m79.07 67.926 0.52734 0.3125 1.1094 0.79297 0.96875 0.94531 0.94141 0.625 1.3789 0.46484 1.1367 0.31641 1.3477-0.36719 0.71875-0.73047 1.2266-0.14453 1.2305 1.0703 0.74219 0.74609 0.96875 0.67188 0.5625 1.375 0.83984 0.70312 1.6797-0.30469 1.6367 0.03125 1.375-0.65625 0.83984-1.2539 0.28906-1.1445 0.73438-0.91797 1.6641 0.03125 1.0859 0.53516 1.0391 0.47266 0.88672 0.50391 1.082 0.55078 1.4531 0.94531 1.1289 1.2852 1.0859 1.2695 1.1016 0.22656 0.32031-1.5117 0.47266-1.4531 1.0078-0.76172 1.6641-0.82031 0.56641-1.1953 0.56641-0.84375 0.6875-0.97656 1.207-0.73047 1.3125-0.33984 1.3125 0.33984 0.80859 1.0039 0.85547 1.2383 1.1172 0.10938 1.3359 0.019531 0.81641-0.61719 1.5156 0.24609 0.91406 0.47266 0.94922 0.59766 1.6172 1.0078 1.207 0.67188 2.1172 0.39062 1.2109-0.47656 0.35938-1.1953 0.80078-0.81641 0.61719-1.3945 0.80859-1.0234 0.96484-0.27344 0.88281 0.58984 0.83203 0.59375 0.74219 0.76562 1.6133 0.33203 1.0625-0.22266 0.99609-0.18359 1.3398 0.47656 0.96094 1.1562 0.91797 0.82812 1.1641 1.3398 0.97266 1.2266 1.4531 0.77344 1.1406 0.36328 1.1523-0.24219 0.98438-0.54297 1.1133 0.070313 0.40234 1.1914 0.50781 1.1875-0.046875 1.418 0.17578 1.1484 0.20312 1.2227 0.17969 0.99219-0.49219 0.88672-0.25 1.7109 0.25 1.082 0.14844 1.6719 0.78516 0.97656 0.86719 0.83203 0.29688 1.0078 0.37891 1.0664 0.57422 0.91016-1.2383 0.80469-0.87891 0.60156-1.1211 0.75781-0.375 1.5977 0.097656 2.6602 0.41406 1.6289 0.39062 2.1797 0.34766 1.207-0.15234 1.4492-0.69531 1.0586-1.582 0.78906-1.9062 1.2266-0.74219 0.73047-1.2188 1.0117-1.2578 0.88672-1.4297 0.66797-1.0625 0.52344-1.2383 0.82812-0.76172 0.91797-0.24609 1.4219 0.21094 1.1953-0.53906 1.832-0.49609 1.1562-0.40234 1 0.30469 1.6133-0.33203 0.98828-0.67188 1.1758-0.41797 0.98047-0.71094 0.88281-0.25781 1.0234-0.73047 1.4766-0.80469 0.89062-0.38672 1.0469-0.82422 0.72266-1.2383 0.65234-1.2656 0.61719-1.1094 0.57031-1.0625 0.72656-1.2031 0.089844-1.1289 0.23047-1.1055 0.19531-0.67578 0.82422-0.86328 0.75391-0.92969 0.57812-1.2305 0.17578-1.25 0.011719-1.0078 0.4375-0.92969 0.47266-1.0898-0.015625-1.2617-0.20703-1.1523-0.089844-1.0273-0.035156-1.207-0.17188-1.0859 0.039063-1.3867 0.17969-1.1875 0.40625-1.0273 0.50781-0.86328 0.53906-1.1016 0.23828-0.91797 0.79688-1.2031 0.14062-1.2031 0.34766-0.92578 0.98438-0.64062 0.89453-0.94141 0.70312-1.3516 0.23828-0.92578 0.55078-0.88672 0.86328-1.0312 0.28906-1.2344 0.85156-0.89062 0.51562-1.082 0.011718-0.98828 0.45312-1.457 1.207-1.0078 0.92969-0.95312 0.69141-1.1641 0.49609-1.207 0.46094-0.96484 1.2148-0.64062 0.90625-0.53125 0.88281-0.70312 0.84766-0.92578 0.55469-0.78516 0.86328-0.53125 1.0156-0.55469 0.84375-0.27734 1.2812-0.15234 2.3711-0.24219 1.043-0.19531 1.1562-0.96875 0.80469-1.4844-0.60156-1.0117-1.1406-0.74219-0.93359 0.0625-1.125-0.32031-1.207-0.69531-1.0664-1.1797-0.76562-1.207-0.17969-1.3047-0.3125-1.2969-0.75781-1.2383-0.81641-1.1914-0.4375-1.0781 0.15234-1.1406-0.33203-0.58203-0.88281-1.1523-0.3125-1.3477-0.10547-1.4727 0.12109-1.4688-0.25781-1.0078-0.36328-1.2734-0.65234-1.1523-0.54297-0.92188-0.55469-0.66797-1.1875-0.69922-0.78125-1.0508-0.65625-1.0547-0.28125-1.1328-0.60547-1-0.69531-1.0391-0.60547-0.98047-0.45703-0.9375-0.85156-0.91797-1.0508-0.87891-1.0469-0.84766-0.71484-0.99219 0.16406-0.95312 1.0352-1.1875 0.5625-1.1367-0.47266-0.96094-0.58984-1.0781-0.33203-0.94141-0.54688-1.6719-0.32031-1.0547-0.36328 0.011719-1.0195 0.95312-0.83984 0.34766-1.4375 0.63672-1.0117 1.375-0.1875 0.70312-0.87109-0.42969-1.2422-0.023437-1.1797-0.015625-1.082-0.89844-0.84766-0.13281-1-0.47266-1.0156-1.1172 0.19531-1.3281 0.050781-1.0703-0.76562-0.65625-0.75781-1.0508-0.59375-1.0352-0.30078-1.2109 0.44922-0.90625 0.46484-1.0469-0.53906-0.30078-1.8086 1.0469 0.011719 0.64453-1.4883 0.71484-1.0859 1.2969-0.94141 1.1914-0.71875 0.74219-0.80469 0.71094-0.78125 0.83203-1.168 0.62891-1.4219 0.35156-1.1602 0.55859-1.0859 1.1016-0.74609 0.99219-0.64453 1.3633-0.94922 0.89844-0.76172 1.0781-0.99609 0.93359-0.46875 1.2148-0.375 1.0312-0.51953 0.84375-0.57812 0.76562-0.72656 2.1484-0.20312 1.6367-0.31641 1.0938 0.027344 1.2109-0.1875 0.88672-0.72656 1.1719-1.6875 0.83594-0.73047 0.6875-1.1992 0.76172-1.4102 1.3242-2.1719 1.1406-0.78516 1.1406-0.36328 1.3711-0.75781 1.0078-0.375 1.1211 0.082032 1.5234-0.48438 1.1133-0.29688 0.85547 0.65625 1.043 0.042968 0.83203-0.64844 0.23438-1.1719 0.13281-1.2617-0.82422-0.80078-0.98438-0.38672-0.76562-1.0391-0.53125-0.97656-0.15234-1.0742-0.59375-1.3008 0.097656-1.1094 0.09375-1.1797 0.046875-1.125 0.082031-1.0938 0.88672-1.1797 1.5234-0.75391 1.7617-1.0664 0.12109-1.125-0.15625-1.0547v-1.168l0.37891-1.2109 0.10547-1.2539 0.22656-1.3086 0.71484-0.76953-0.21094-1.125-0.18359-0.99609 0.67578-1.1641 0.41406-0.95703 0.46875-0.89844 1.2734-1.3125 1.0508-0.67578z" fill="#ccc" fill-rule="evenodd"/>
<path d="m79.07 67.926 0.52734 0.3125 1.1094 0.79297 0.96875 0.94531 0.94141 0.625 1.3789 0.46484 1.1367 0.31641 1.3477-0.36719 0.71875-0.73047 1.2266-0.14453 1.2305 1.0703 0.74219 0.74609 0.96875 0.67188 0.5625 1.375 0.83984 0.70312 1.6797-0.30469 1.6367 0.03125 1.375-0.65625 0.83984-1.2539 0.28906-1.1445 0.73438-0.91797 1.6641 0.03125 1.0859 0.53516 1.0391 0.47266 0.88672 0.50391 1.082 0.55078 1.4531 0.94531 1.1289 1.2852 1.0859 1.2695 1.1016 0.22656 0.32031-1.5117 0.47266-1.4531 1.0078-0.76172 1.6641-0.82031 0.56641-1.1953 0.56641-0.84375 0.6875-0.97656 1.207-0.73047 1.3125-0.33984 1.3125 0.33984 0.80859 1.0039 0.85547 1.2383 1.1172 0.10938 1.3359 0.019531 0.81641-0.61719 1.5156 0.24609 0.91406 0.47266 0.94922 0.59766 1.6172 1.0078 1.207 0.67188 2.1172 0.39062 1.2109-0.47656 0.35938-1.1953 0.80078-0.81641 0.61719-1.3945 0.80859-1.0234 0.96484-0.27344 0.88281 0.58984 0.83203 0.59375 0.74219 0.76562 1.6133 0.33203 1.0625-0.22266 0.99609-0.18359 1.3398 0.47656 0.96094 1.1562 0.91797 0.82812 1.1641 1.3398 0.97266 1.2266 1.4531 0.77344 1.1406 0.36328 1.1523-0.24219 0.98438-0.54297 1.1133 0.070313 0.40234 1.1914 0.50781 1.1875-0.046875 1.418 0.17578 1.1484 0.20312 1.2227 0.17969 0.99219-0.49219 0.88672-0.25 1.7109 0.25 1.082 0.14844 1.6719 0.78516 0.97656 0.86719 0.83203 0.29688 1.0078 0.37891 1.0664 0.57422 0.91016-1.2383 0.80469-0.87891 0.60156-1.1211 0.75781-0.375 1.5977 0.097656 2.6602 0.41406 1.6289 0.39062 2.1797 0.34766 1.207-0.15234 1.4492-0.69531 1.0586-1.582 0.78906-1.9062 1.2266-0.74219 0.73047-1.2188 1.0117-1.2578 0.88672-1.4297 0.66797-1.0625 0.52344-1.2383 0.82812-0.76172 0.91797-0.24609 1.4219 0.21094 1.1953-0.53906 1.832-0.49609 1.1562-0.40234 1 0.30469 1.6133-0.33203 0.98828-0.67188 1.1758-0.41797 0.98047-0.71094 0.88281-0.25781 1.0234-0.73047 1.4766-0.80469 0.89062-0.38672 1.0469-0.82422 0.72266-1.2383 0.65234-1.2656 0.61719-1.1094 0.57031-1.0625 0.72656-1.2031 0.089844-1.1289 0.23047-1.1055 0.19531-0.67578 0.82422-0.86328 0.75391-0.92969 0.57812-1.2305 0.17578-1.25 0.011719-1.0078 0.4375-0.92969 0.47266-1.0898-0.015625-1.2617-0.20703-1.1523-0.089844-1.0273-0.035156-1.207-0.17188-1.0859 0.039063-1.3867 0.17969-1.1875 0.40625-1.0273 0.50781-0.86328 0.53906-1.1016 0.23828-0.91797 0.79688-1.2031 0.14062-1.2031 0.34766-0.92578 0.98438-0.64062 0.89453-0.94141 0.70312-1.3516 0.23828-0.92578 0.55078-0.88672 0.86328-1.0312 0.28906-1.2344 0.85156-0.89062 0.51562-1.082 0.011718-0.98828 0.45312-1.457 1.207-1.0078 0.92969-0.95312 0.69141-1.1641 0.49609-1.207 0.46094-0.96484 1.2148-0.64062 0.90625-0.53125 0.88281-0.70312 0.84766-0.92578 0.55469-0.78516 0.86328-0.53125 1.0156-0.55469 0.84375-0.27734 1.2812-0.15234 2.3711-0.24219 1.043-0.19531 1.1562-0.96875 0.80469-1.4844-0.60156-1.0117-1.1406-0.74219-0.93359 0.0625-1.125-0.32031-1.207-0.69531-1.0664-1.1797-0.76562-1.207-0.17969-1.3047-0.3125-1.2969-0.75781-1.2383-0.81641-1.1914-0.4375-1.0781 0.15234-1.1406-0.33203-0.58203-0.88281-1.1523-0.3125-1.3477-0.10547-1.4727 0.12109-1.4688-0.25781-1.0078-0.36328-1.2734-0.65234-1.1523-0.54297-0.92188-0.55469-0.66797-1.1875-0.69922-0.78125-1.0508-0.65625-1.0547-0.28125-1.1328-0.60547-1-0.69531-1.0391-0.60547-0.98047-0.45703-0.9375-0.85156-0.91797-1.0508-0.87891-1.0469-0.84766-0.71484-0.99219 0.16406-0.95312 1.0352-1.1875 0.5625-1.1367-0.47266-0.96094-0.58984-1.0781-0.33203-0.94141-0.54688-1.6719-0.32031-1.0547-0.36328 0.011719-1.0195 0.95312-0.83984 0.34766-1.4375 0.63672-1.0117 1.375-0.1875 0.70312-0.87109-0.42969-1.2422-0.023437-1.1797-0.015625-1.082-0.89844-0.84766-0.13281-1-0.47266-1.0156-1.1172 0.19531-1.3281 0.050781-1.0703-0.76562-0.65625-0.75781-1.0508-0.59375-1.0352-0.30078-1.2109 0.44922-0.90625 0.46484-1.0469-0.53906-0.30078-1.8086 1.0469 0.011719 0.64453-1.4883 0.71484-1.0859 1.2969-0.94141 1.1914-0.71875 0.74219-0.80469 0.71094-0.78125 0.83203-1.168 0.62891-1.4219 0.35156-1.1602 0.55859-1.0859 1.1016-0.74609 0.99219-0.64453 1.3633-0.94922 0.89844-0.76172 1.0781-0.99609 0.93359-0.46875 1.2148-0.375 1.0312-0.51953 0.84375-0.57812 0.76562-0.72656 2.1484-0.20312 1.6367-0.31641 1.0938 0.027344 1.2109-0.1875 0.88672-0.72656 1.1719-1.6875 0.83594-0.73047 0.6875-1.1992 0.76172-1.4102 1.3242-2.1719 1.1406-0.78516 1.1406-0.36328 1.3711-0.75781 1.0078-0.375 1.1211 0.082032 1.5234-0.48438 1.1133-0.29688 0.85547 0.65625 1.043 0.042968 0.83203-0.64844 0.23438-1.1719 0.13281-1.2617-0.82422-0.80078-0.98438-0.38672-0.76562-1.0391-0.53125-0.97656-0.15234-1.0742-0.59375-1.3008 0.097656-1.1094 0.09375-1.1797 0.046875-1.125 0.082031-1.0938 0.88672-1.1797 1.5234-0.75391 1.7617-1.0664 0.12109-1.125-0.15625-1.0547v-1.168l0.37891-1.2109 0.10547-1.2539 0.22656-1.3086 0.71484-0.76953-0.21094-1.125-0.18359-0.99609 0.67578-1.1641 0.41406-0.95703 0.46875-0.89844 1.2734-1.3125 1.0508-0.67578 1.6914 1.1719" fill="none" stroke="#fff" stroke-linecap="round" stroke-linejoin="round" stroke-miterlimit="10" stroke-width="2"/>
<path d="m287.52 149.7-0.16797 0.4375-0.12109 1.4414 0.11719 1.4531 0.03125 1.5703 0.75781 0.94531 1.1641 0.98047 1.2188 1.375 0.46875 1.5625 0.58984 2.1875 0.64844 1.875 2.5664 1.6055 1.2617 1.3438-2.5 0.94141-1.1328 0.27734-0.35938 1.2812-0.76172 1.2891-1.4414 0.94922 0.11328 1.3555 1.0977 0.95703 1.1836 1.4102 1.4922 0.73047 1.0156 1.0156 0.13281 1.1484 1.5352 1.4648 0.61328 0.90625 1.4375 1.4375 1.0703 0.73438 0.97266 0.64844 0.80078 0.76172 1.1016 0.98438 0.87891 0.90625 1.4688 0.62891 1.293 0.46094 1.0859 0.42578 1.4648 0.74219 1.3711-0.19141 1.1484-0.80469 1.0469-0.13281 1.0078 0.19922 0.8125-0.67578 1.0039-0.44531 1.1836-0.007813 1.0391-0.69141 1.0664-0.14453 1.1875 0.058593 1.0352-0.37891 0.94141-0.88281 1.2031-0.76172 0.81641-0.80078 0.51562-0.91797 0.89062-0.98828 0.70703-0.74609 0.96484-0.89062 0.87891-0.53125 1.1016-0.38672 1.2383-0.058594 1.3359-0.61719 1.3398-0.6875 1.1055-0.55859 0.94531-0.86719 0.54297-1.0664 0.88281-0.70703 0.83594-0.79688 0.94531-0.58984 0.89062-1.0898 0.6875-0.875 0.9375-0.39844 1.1445-0.10547 1.0195 0.50391 1.082 0.32812 1.3789-0.94922 0.80078-0.94531 1.2188-0.91016 1.1211-0.60547 1.0273-0.3125 0.97266-0.46094 0.90234 0.84766 0.57812 0.83203 0.9375 1.0312 0.65625 1.2383 0.96484 0.83203 0.51562 0.89453 0.63281 1.0742 1.043 0.51562 1.0703 0.007812 1-0.82031 1.1211-0.34766 1.2383-0.53906 1.0078-0.875 1.1133-0.41797 1.2422 0.027344 1.0156-1.0195 0.75391-0.69531 1.0664-1.0742 1.6055-0.61719 1.2031 0.21094 1.2461 0.13672 1.5352-0.14453 1.3398-0.082031 1-0.15625 1.2227-0.10156 1.1016 0.089844 1.0195-0.089844 1.1992-0.12109 1.1484 0.10156 1.1953 0.25 1.2031-0.39453 1.5508-0.58984 1.3477-0.035156 1.0273-0.36719 0.84766-0.73438 0.32422 2.1992-0.082031 1.9102-0.054687 1.0234-0.11719 2.8828-0.24219 5.7383-0.0625 1.2578-3.0781 72.004 1.2305 0.42969 1.2188-0.24219 1.0703-0.34766h1.1367l1.25-0.21094 1.6133-0.046875 1.0273-0.22656 1.0742 0.14453 0.94531 0.48047 1.1562 0.45703 0.85547 0.73438 0.67969 0.99219 0.67969 0.80859 0.76172 0.66016 1.3398 0.16406 1.2852 0.78906 1.0273 0.69141 1.332 0.51172 1.5234 0.066406 1.332-0.058594 1.375-0.24609 1.2148-0.046875 1.2188-0.26562 1.3945-0.6875 1.3594 0.027343 1.6797 0.21094 1.2969 0.14844 1.1719-0.11328 1.5625-0.55078 1.3398-0.44922 1.2305-0.007812 0.89062 0.75391 0.59766 1.2852 0.11719 1.5859 0.48828 1.1484 0.82422 0.83594 1.3398 0.34766 1.2773-0.007813 1.1016-0.60547 1.0117-0.66406 1.5234-0.14453 1.7969-0.019531 0.97266 0.26562 1.3711 0.26562 1.3477-0.72266 1.2227-0.36719 1.0156 0.34766 0.95703 0.67188 1.0352 0.47656 1.0195 0.007812 1.0859 0.10156 0.76172 0.9375 0.71484 0.87891 1.3047 0.58984 1.0742 0.34766 1.2852 0.95312 1.0625 0.36719 0.59766 1.0391 1.0664 0.25781 1.1914-0.40625 1.5508-0.98828 0.9375-0.57812 1.2578-0.25781 1.1641-0.046875 0.94531-0.71484 0.82812-1.1406 0.60547-0.80859 1.1211-0.32031 1.2578-0.96484 1.1289-0.69531 1.082 0.089844 1.0117 0.17578 1.082 0.13672 1.6719-0.32812 1.3203-0.44141 1.5625-0.84375 1.0352-0.58984 1.0742-0.57812 1.0195-0.64062 0.99219-0.625 0.98047-0.55859 1.3945-0.43359 1.3125-0.019532 1.0586 0.085938 1.4219 0.33594 1.1914 0.28516 1.0039 0.42188 0.82422 0.79297 0.38672 1.082 0.64453 0.83203 1.0625 0.43359 1.332-0.035157 1.2188 0.48438 0.83594 1.0938 0.64453 0.76953 0.83203 0.64453 1.1602 1.2188 1.1445 0.78125 1.3711 0.49609 1.2539 0.46094 0.46094 0.96094 0.67969 0.90234 0.58594 0.92969 0.26562 1.0234 0.12109 1.3516-0.0625 1.0547v1.293l0.47656 1.0391 0.36719 1.082 0.59766 0.89453-1.2812 0.0625-1.4531-0.52344-1.0117-0.8125-0.89844-0.65234-0.80078-0.73438-0.96094-0.73828-0.80859-1-0.98828-0.79297-1.1133-0.12109-0.99609-0.40234-0.85547-0.58984-1.0898-0.45312-1.1289-0.26562-1.168-0.097657-1.3125-0.30469-1.168-0.26953-1.1172-0.38672-1.1133-0.56641-1.3281-0.78125-1.2422-0.38281-1.0781-0.29297-1.0625-0.19922-1.0898 0.003906-1.1055 0.007812-0.97656 0.24219-1.207 0.29688-1.6641 0.57812-1.8398 0.30469-1.1719-0.011718-1.2305 0.33984-0.41406 0.96484-0.53516 0.94141-0.99219 0.62109-0.95312 0.45312-1.6836 0.019531-1.1406 0.011719-1.5469 0.43359-1.0898 0.6875-0.71875 1.1406-0.49219 1.4375-0.78516 0.85938-1.0195 0.53125-0.69141 0.88281-0.82812 0.63672-0.38672 1.0625-0.80469 0.73047-0.13281 1.3281-0.60938 0.91797-0.41406 0.91406-0.58594 1.0625-0.49219 1.0312-1.7617 0.54688-1.3477 0.015625-1.8516 0.33984-1.1133 0.21875-1.0195 0.1875-1.0195-0.035156-1.1797 0.24609-1.082 0.3125-1.1172 0.56641-3.3242 2.0742-1.7852 0.78516-1.0234 0.21875-1.2773-0.30469-2.9531-1.3281-1.3984-0.38281-1.0195-0.35156-1.875-0.92578-1.0781-0.41797-1.8789-0.007812-2.207 0.59375-2.0664-0.41797-0.85938-0.54297-1.1445-0.57422-0.98438-0.32031-1.1133-0.38281-1.0859-0.039062-1.6211 0.375-1.1211-0.035156-1.0781-0.54297-1.1094-0.76562-1.2383-1.1133-1.0508-0.76172-1.4609-0.54297-1.4297-0.13281-1.9961-0.52344-1.1602-0.43359-0.9375-0.62891-1.0312-0.90625-0.83203-0.74219-0.99219-0.50391-1.0156-0.58203-0.9375-0.87891-1.3789-1.0117-1.0469-0.48438-1.7891-0.82031-1.1523-0.97656-0.76562-1.1094-0.62109-1.082-0.90234-1.082-0.92969-0.41016-1.1016-0.17969-1.5234 0.66016-1.0703-0.089844-1.1641-0.33203-1.7734-1.0117-1.4805-1.2188-0.58203-0.82422-1.3945-1.8555-0.95312-0.61328-1.1016-0.9375-0.99609-0.55469-1.1172-0.76562-1.418 0.92578-0.95312 0.92188-1.125 0.89844-1.9648 1.0547-1.3086 0.66406-1.3086 0.83594-1.1172 0.75-0.28906 1.8047-0.80078 1.2266-1.8281 0.10547-2.1406 0.47656-2.2773-0.10547-1.7969-0.53125-1.4727-1.7656-0.59766-1.2969-1.082-1.8242-0.82422-2.0391-0.83203-1.7812-0.78906-1.6836-0.58984-1.0312-0.96875-1.5391-0.66016-1.0938-0.89453-0.6875-1.6211-0.64453-1.6484-0.75781-1.0078-0.32031-1.832-0.58594-1.0273-0.16406-1.9766-0.03125-1.3867-0.12891-1.3477-0.12109-1.8438-0.17969-1.6289 0.066406-1.1289-0.28516-1.2969-0.35547-1.4102-0.89062-0.85156-1.0781-2.0547-2.0352-0.95312-0.98047-3.2148-1.7734-1.3125-1.8438-0.97266-1.3711-1.0586-0.72656-2.7266-1.0586-1.2305-0.92969-1.1914-0.89844-1.5664-0.94922-1.6797-1.7227-2.8008-2.1758-0.98438-0.63672-1.1719-0.41797-1.2266 0.019531-1.0742-0.16016-0.92969-0.64453-0.56641-0.85156-0.85938-0.61328-1.1953-0.55859-1.3008-0.57812-1.0547-0.55859-0.91797-0.76562-0.65234-0.84766-1.043-0.3125-1.3477-0.070313-0.99609-0.19922-1.0352 0.011718-0.94922-0.50781-1.3125-0.09375-1.0938 0.14453-1.2031-0.27344-0.86719-0.62891-0.94922 0.62891-0.91406 0.41016-1.5859 0.64844-1.7578 0.28125-1.332 0.12891-2.0195-0.29688-1.4922-0.82031-1.1719-0.83984-1.2969-0.95312-1.1172-1.7383-0.59766-0.83984-0.98047-0.26172-1.5117-0.38672-0.92969-0.66797-1.0273-0.58984-1.2109 0.089844-1.1133-0.074219-0.76953-0.68359-1.1172-0.12891-1.1133-0.625-1.2266 0.33203-0.87109 0.56641-1.207 0.75781-1.168 0.078125-1.2383-0.32031-0.72656-0.69531-1.1953 0.10156-1.3477 0.011719-1.6641 0.70703-1.1953-0.10547-0.77344-0.70703-1.0625-0.27344-0.98828-0.28125-0.89844-0.81641-1.0312-0.058594-0.79688 1.0039-0.32812 1.0039-0.35938 1.0898-1.1758 0.12891-1.0039-0.12109-1.0508-0.47266-0.58984-1.1445-0.69922-0.80078-1.168-0.44531-1.4844-0.089844-0.99609-0.21484-0.33594-1.1367-0.42188-0.92188-0.65234-0.87891 0.25781-1.168 0.26172-1.0742-0.63281-0.86719-0.96484-0.82812-0.88281-0.89453 0.46875-0.92188-0.46875-0.91016-0.85938-0.99219-0.375-1.1914 0.28125-1.5898 0.45703-1.2461 0.10938-1.0938 0.20312-1.1328 0.26562-1.457 0.58594-1.4883 0.43359-1.0742 0.20312-1.5781-0.59766-1.3164-0.85938-1.0234-0.87891-0.78906-0.33594-1.1016 0.011719-1.2344-0.25391-0.97266-1.0547-0.67188-1.2539-0.125-1.1523 0.74609 0.14453 1.6992 0.13281 1.2031 0.71094 1.3594 0.75 1.1953 0.83203 1.2852-0.023438 1.1133-0.39062 1.043-0.76953 1.5781-1.6328 1.8438-1.2344 0.87891-1.5195 1.0508-1.3867 1-1.1172 0.55859-0.96484 0.58594-0.89453 0.63281-0.98438 0.48438-0.67578 1.3281-0.44141 1.3281-0.49609 1.1445-0.58594 0.90234-0.52344 1.1172-0.67969 0.90234-0.35156 1.0117-0.74609 1.3281-0.43359 1.1094-0.34375 1.1719-0.19922 1.1016-0.55078 1.082-0.97266 0.95703-0.8125 0.82031-0.82031 1.0039-1.2109 1.4062-0.69531 0.78516-0.43359 1.0938-0.58594 1-0.875 1.1836-0.62109 0.78516-1.0664-0.44922-0.71094-1.0938-1.1133-0.40625-1.2188-0.097657-1.0859 0.078125-1.2227-0.12109-1.4141-0.42188-1.0625-0.35938-1.0977-0.74219-0.70703-0.74609-1.2422 0.14062-1.6484-0.039062-1-0.70703-0.81641-0.64062-1.2422-0.22266-0.96094-0.80078-1.043-0.4375-1.3359 0.34375-1.6953 0.054688-1.3516 0.19922-1.6758-0.27734-1.3906-0.17188-1.7227 0.035156-1.0391-0.28906-0.94531-0.51562-1.3945-0.83203-0.69922-0.80469-1.0078-0.48047-1.5469-0.78906-1.3945-0.70312-0.69531-0.82422-1.1016-0.69141-1.3906-0.70703-0.82812-0.60938-1.0156 0.027344-1.1953-0.33984-1.2578-0.8125-1.1914-0.53125 0.37109-1.1602-0.87109-0.55469-0.91406-1.1992-1.0352-0.82031-0.42969-1.2969-1.3281-0.25-0.88281-1.0352-0.89453-0.93359-0.68359-0.77344-0.63281-0.83203-1.0742-1.4258-0.63281-1.125-0.88672-0.70312-0.85938-0.53516 0.52344-0.85938 0.54688-0.89844 0.64453-0.98438 0.76172-1.2109 0.19922-1.0859-0.1875-1.0312 0.019531-1.0391 0.44531-1.1016 0.96094-0.95312 1.0742-0.23828 1.1016-0.074219 1.0938-0.066406 0.92969-0.69531 0.73828-0.90625 0.97266-0.40625 1.0664-0.72266 0.94531-0.5 0.75391-0.74609 0.87109-1.2031 1.0312-0.67578 0.94531-0.88281 1.0625-0.73438 1.0195-0.64062 0.83203-0.78906 0.76953-1.0469 0.78516-0.78516 0.75781-1.0195 0.91016-0.60938 1.0234-0.52734 1.1328-0.76953 0.59766-0.99609 0.32422-0.97656 0.71094-0.78906 1.2109-0.19531 1.6211-0.30859 0.94141-0.71875 1.1055-0.58203 0.94922-0.91406 0.61328-1.1484 0.69141-0.80859 0.91016-0.42188 0.76953-0.82031 0.50391-0.98438 0.74609-1.582 0.32812-1.4492 0.44141-1.1875 1.418-0.58594 1.582 0.35156 1.0391 0.39453 1.0742-0.33594 1.3516 0.24219 1.1641 0.60938 1 1.0586 0.73438 0.78906 1.1523 0.66016 1.6055 0.41797 1.0078-0.25 1.1016 0.59766 0.83984 0.56641 1.0898 0.39844 1.1758 0.21094 1.2383 0.16797 0.96094 0.36719 1.3672 0.41797 1.0352-0.097656 1.0742-0.28906 1.1523-0.36719 0.92578-0.67969 1.1953-0.91406 1.0586-0.054687 1.0391 0.078125 1.2656 0.41797 1.5938 0.19922 1.0547-0.51172 0.92969-0.85156 1.2695-0.24219 0.95312 1.082 1.3359 0.19922 1.1523-0.42188 1.0703-0.41797 0.99609-0.26172 1.3633 0.09375 1.0508 0.28125 1.2891 0.24219 0.97656-0.88281 0.89062-0.72266 1.2266-0.15625 1-0.11719 1.1094-0.62891 1.375-0.53516 1.1953-0.23047 1.0625 0.011719 1.332-0.49609 1.5742 0.054687 1.0156 0.14844 1.3438-0.097656 1.1836 0.0625 1.0312 0.31641 0.98438 0.60938 1.4062 0.50391 1.1445 0.51172 1.1016 0.72656 0.99609 0.63672 0.96484 0.47266 0.96484 0.28516 1.1445-0.074219 1.2148 0.21094 1.0508 0.58594 0.67188 1.1641 0.96484 0.37891 1.2148-0.0625 1.1445-0.17969 1.2383-0.36719 1.1875-0.80859 1.3711-0.35547 1.2617-0.3125 1.0078-0.29688 1.0039-0.13672 0.83984-0.94141 0.83984-0.75781 0.80859-1.0156 1.4062-0.64062 0.89062-0.77734 0.80859-0.82812 0.85938-1.1953 0.51562-0.96484 0.58594-0.83984 0.89453-0.49219 1.0938-0.31641 0.96094-0.56641 0.99609-0.60938 0.32031-1.1289 0.80469-0.64453 1.0898 0.35547 1.0898-0.5625 1.0234-0.44922 1.1484-0.46094 0.95703 0.76172 1.0664 0.44141 0.45703-0.97266 0.58203-0.91016 1.1484-0.29297 1.0117-0.58203 0.75-0.82812 2.4766-1.4531z" fill="#0a5394" fill-rule="evenodd"/>
<path d="m287.52 149.7-0.16797 0.4375-0.12109 1.4414 0.11719 1.4531 0.03125 1.5703 0.75781 0.94531 1.1641 0.98047 1.2188 1.375 0.46875 1.5625 0.58984 2.1875 0.64844 1.875 2.5664 1.6055 1.2617 1.3438-2.5 0.94141-1.1328 0.27734-0.35938 1.2812-0.76172 1.2891-1.4414 0.94922 0.11328 1.3555 1.0977 0.95703 1.1836 1.4102 1.4922 0.73047 1.0156 1.0156 0.13281 1.1484 1.5352 1.4648 0.61328 0.90625 1.4375 1.4375 1.0703 0.73438 0.97266 0.64844 0.80078 0.76172 1.1016 0.98438 0.87891 0.90625 1.4688 0.62891 1.293 0.46094 1.0859 0.42578 1.4648 0.74219 1.3711-0.19141 1.1484-0.80469 1.0469-0.13281 1.0078 0.19922 0.8125-0.67578 1.0039-0.44531 1.1836-0.007813 1.0391-0.69141 1.0664-0.14453 1.1875 0.058593 1.0352-0.37891 0.94141-0.88281 1.2031-0.76172 0.81641-0.80078 0.51562-0.91797 0.89062-0.98828 0.70703-0.74609 0.96484-0.89062 0.87891-0.53125 1.1016-0.38672 1.2383-0.058594 1.3359-0.61719 1.3398-0.6875 1.1055-0.55859 0.94531-0.86719 0.54297-1.0664 0.88281-0.70703 0.83594-0.79688 0.94531-0.58984 0.89062-1.0898 0.6875-0.875 0.9375-0.39844 1.1445-0.10547 1.0195 0.50391 1.082 0.32812 1.3789-0.94922 0.80078-0.94531 1.2188-0.91016 1.1211-0.60547 1.0273-0.3125 0.97266-0.46094 0.90234 0.84766 0.57812 0.83203 0.9375 1.0312 0.65625 1.2383 0.96484 0.83203 0.51562 0.89453 0.63281 1.0742 1.043 0.51562 1.0703 0.007812 1-0.82031 1.1211-0.34766 1.2383-0.53906 1.0078-0.875 1.1133-0.41797 1.2422 0.027344 1.0156-1.0195 0.75391-0.69531 1.0664-1.0742 1.6055-0.61719 1.2031 0.21094 1.2461 0.13672 1.5352-0.14453 1.3398-0.082031 1-0.15625 1.2227-0.10156 1.1016 0.089844 1.0195-0.089844 1.1992-0.12109 1.1484 0.10156 1.1953 0.25 1.2031-0.39453 1.5508-0.58984 1.3477-0.035156 1.0273-0.36719 0.84766-0.73438 0.32422 2.1992-0.082031 1.9102-0.054687 1.0234-0.11719 2.8828-0.24219 5.7383-0.0625 1.2578-3.0781 72.004 1.2305 0.42969 1.2188-0.24219 1.0703-0.34766h1.1367l1.25-0.21094 1.6133-0.046875 1.0273-0.22656 1.0742 0.14453 0.94531 0.48047 1.1562 0.45703 0.85547 0.73438 0.67969 0.99219 0.67969 0.80859 0.76172 0.66016 1.3398 0.16406 1.2852 0.78906 1.0273 0.69141 1.332 0.51172 1.5234 0.066406 1.332-0.058594 1.375-0.24609 1.2148-0.046875 1.2188-0.26562 1.3945-0.6875 1.3594 0.027343 1.6797 0.21094 1.2969 0.14844 1.1719-0.11328 1.5625-0.55078 1.3398-0.44922 1.2305-0.007812 0.89062 0.75391 0.59766 1.2852 0.11719 1.5859 0.48828 1.1484 0.82422 0.83594 1.3398 0.34766 1.2773-0.007813 1.1016-0.60547 1.0117-0.66406 1.5234-0.14453 1.7969-0.019531 0.97266 0.26562 1.3711 0.26562 1.3477-0.72266 1.2227-0.36719 1.0156 0.34766 0.95703 0.67188 1.0352 0.47656 1.0195 0.007812 1.0859 0.10156 0.76172 0.9375 0.71484 0.87891 1.3047 0.58984 1.0742 0.34766 1.2852 0.95312 1.0625 0.36719 0.59766 1.0391 1.0664 0.25781 1.1914-0.40625 1.5508-0.98828 0.9375-0.57812 1.2578-0.25781 1.1641-0.046875 0.94531-0.71484 0.82812-1.1406 0.60547-0.80859 1.1211-0.32031 1.2578-0.96484 1.1289-0.69531 1.082 0.089844 1.0117 0.17578 1.082 0.13672 1.6719-0.32812 1.3203-0.44141 1.5625-0.84375 1.0352-0.58984 1.0742-0.57812 1.0195-0.64062 0.99219-0.625 0.98047-0.55859 1.3945-0.43359 1.3125-0.019532 1.0586 0.085938 1.4219 0.33594 1.1914 0.28516 1.0039 0.42188 0.82422 0.79297 0.38672 1.082 0.64453 0.83203 1.0625 0.43359 1.332-0.035157 1.2188 0.48438 0.83594 1.0938 0.64453 0.76953 0.83203 0.64453 1.1602 1.2188 1.1445 0.78125 1.3711 0.49609 1.2539 0.46094 0.46094 0.96094 0.67969 0.90234 0.58594 0.92969 0.26562 1.0234 0.12109 1.3516-0.0625 1.0547v1.293l0.47656 1.0391 0.36719 1.082 0.59766 0.89453-1.2812 0.0625-1.4531-0.52344-1.0117-0.8125-0.89844-0.65234-0.80078-0.73438-0.96094-0.73828-0.80859-1-0.98828-0.79297-1.1133-0.12109-0.99609-0.40234-0.85547-0.58984-1.0898-0.45312-1.1289-0.26562-1.168-0.097657-1.3125-0.30469-1.168-0.26953-1.1172-0.38672-1.1133-0.56641-1.3281-0.78125-1.2422-0.38281-1.0781-0.29297-1.0625-0.19922-1.0898 0.003906-1.1055 0.007812-0.97656 0.24219-1.207 0.29688-1.6641 0.57812-1.8398 0.30469-1.1719-0.011718-1.2305 0.33984-0.41406 0.96484-0.53516 0.94141-0.99219 0.62109-0.95312 0.45312-1.6836 0.019531-1.1406 0.011719-1.5469 0.43359-1.0898 0.6875-0.71875 1.1406-0.49219 1.4375-0.78516 0.85938-1.0195 0.53125-0.69141 0.88281-0.82812 0.63672-0.38672 1.0625-0.80469 0.73047-0.13281 1.3281-0.60938 0.91797-0.41406 0.91406-0.58594 1.0625-0.49219 1.0312-1.7617 0.54688-1.3477 0.015625-1.8516 0.33984-1.1133 0.21875-1.0195 0.1875-1.0195-0.035156-1.1797 0.24609-1.082 0.3125-1.1172 0.56641-3.3242 2.0742-1.7852 0.78516-1.0234 0.21875-1.2773-0.30469-2.9531-1.3281-1.3984-0.38281-1.0195-0.35156-1.875-0.92578-1.0781-0.41797-1.8789-0.007812-2.207 0.59375-2.0664-0.41797-0.85938-0.54297-1.1445-0.57422-0.98438-0.32031-1.1133-0.38281-1.0859-0.039062-1.6211 0.375-1.1211-0.035156-1.0781-0.54297-1.1094-0.76562-1.2383-1.1133-1.0508-0.76172-1.4609-0.54297-1.4297-0.13281-1.9961-0.52344-1.1602-0.43359-0.9375-0.62891-1.0312-0.90625-0.83203-0.74219-0.99219-0.50391-1.0156-0.58203-0.9375-0.87891-1.3789-1.0117-1.0469-0.48438-1.7891-0.82031-1.1523-0.97656-0.76562-1.1094-0.62109-1.082-0.90234-1.082-0.92969-0.41016-1.1016-0.17969-1.5234 0.66016-1.0703-0.089844-1.1641-0.33203-1.7734-1.0117-1.4805-1.2188-0.58203-0.82422-1.3945-1.8555-0.95312-0.61328-1.1016-0.9375-0.99609-0.55469-1.1172-0.76562-1.418 0.92578-0.95312 0.92188-1.125 0.89844-1.9648 1.0547-1.3086 0.66406-1.3086 0.83594-1.1172 0.75-0.28906 1.8047-0.80078 1.2266-1.8281 0.10547-2.1406 0.47656-2.2773-0.10547-1.7969-0.53125-1.4727-1.7656-0.59766-1.2969-1.082-1.8242-0.82422-2.0391-0.83203-1.7812-0.78906-1.6836-0.58984-1.0312-0.96875-1.5391-0.66016-1.0938-0.89453-0.6875-1.6211-0.64453-1.6484-0.75781-1.0078-0.32031-1.832-0.58594-1.0273-0.16406-1.9766-0.03125-1.3867-0.12891-1.3477-0.12109-1.8438-0.17969-1.6289 0.066406-1.1289-0.28516-1.2969-0.35547-1.4102-0.89062-0.85156-1.0781-2.0547-2.0352-0.95312-0.98047-3.2148-1.7734-1.3125-1.8438-0.97266-1.3711-1.0586-0.72656-2.7266-1.0586-1.2305-0.92969-1.1914-0.89844-1.5664-0.94922-1.6797-1.7227-2.8008-2.1758-0.98438-0.63672-1.1719-0.41797-1.2266 0.019531-1.0742-0.16016-0.92969-0.64453-0.56641-0.85156-0.85938-0.61328-1.1953-0.55859-1.3008-0.57812-1.0547-0.55859-0.91797-0.76562-0.65234-0.84766-1.043-0.3125-1.3477-0.070313-0.99609-0.19922-1.0352 0.011718-0.94922-0.50781-1.3125-0.09375-1.0938 0.14453-1.2031-0.27344-0.86719-0.62891-0.94922 0.62891-0.91406 0.41016-1.5859 0.64844-1.7578 0.28125-1.332 0.12891-2.0195-0.29688-1.4922-0.82031-1.1719-0.83984-1.2969-0.95312-1.1172-1.7383-0.59766-0.83984-0.98047-0.26172-1.5117-0.38672-0.92969-0.66797-1.0273-0.58984-1.2109 0.089844-1.1133-0.074219-0.76953-0.68359-1.1172-0.12891-1.1133-0.625-1.2266 0.33203-0.87109 0.56641-1.207 0.75781-1.168 0.078125-1.2383-0.32031-0.72656-0.69531-1.1953 0.10156-1.3477 0.011719-1.6641 0.70703-1.1953-0.10547-0.77344-0.70703-1.0625-0.27344-0.98828-0.28125-0.89844-0.81641-1.0312-0.058594-0.79688 1.0039-0.32812 1.0039-0.35938 1.0898-1.1758 0.12891-1.0039-0.12109-1.0508-0.47266-0.58984-1.1445-0.69922-0.80078-1.168-0.44531-1.4844-0.089844-0.99609-0.21484-0.33594-1.1367-0.42188-0.92188-0.65234-0.87891 0.25781-1.168 0.26172-1.0742-0.63281-0.86719-0.96484-0.82812-0.88281-0.89453 0.46875-0.92188-0.46875-0.91016-0.85938-0.99219-0.375-1.1914 0.28125-1.5898 0.45703-1.2461 0.10938-1.0938 0.20312-1.1328 0.26562-1.457 0.58594-1.4883 0.43359-1.0742 0.20312-1.5781-0.59766-1.3164-0.85938-1.0234-0.87891-0.78906-0.33594-1.1016 0.011719-1.2344-0.25391-0.97266-1.0547-0.67188-1.2539-0.125-1.1523 0.74609 0.14453 1.6992 0.13281 1.2031 0.71094 1.3594 0.75 1.1953 0.83203 1.2852-0.023438 1.1133-0.39062 1.043-0.76953 1.5781-1.6328 1.8438-1.2344 0.87891-1.5195 1.0508-1.3867 1-1.1172 0.55859-0.96484 0.58594-0.89453 0.63281-0.98438 0.48438-0.67578 1.3281-0.44141 1.3281-0.49609 1.1445-0.58594 0.90234-0.52344 1.1172-0.67969 0.90234-0.35156 1.0117-0.74609 1.3281-0.43359 1.1094-0.34375 1.1719-0.19922 1.1016-0.55078 1.082-0.97266 0.95703-0.8125 0.82031-0.82031 1.0039-1.2109 1.4062-0.69531 0.78516-0.43359 1.0938-0.58594 1-0.875 1.1836-0.62109 0.78516-1.0664-0.44922-0.71094-1.0938-1.1133-0.40625-1.2188-0.097657-1.0859 0.078125-1.2227-0.12109-1.4141-0.42188-1.0625-0.35938-1.0977-0.74219-0.70703-0.74609-1.2422 0.14062-1.6484-0.039062-1-0.70703-0.81641-0.64062-1.2422-0.22266-0.96094-0.80078-1.043-0.4375-1.3359 0.34375-1.6953 0.054688-1.3516 0.19922-1.6758-0.27734-1.3906-0.17188-1.7227 0.035156-1.0391-0.28906-0.94531-0.51562-1.3945-0.83203-0.69922-0.80469-1.0078-0.48047-1.5469-0.78906-1.3945-0.70312-0.69531-0.82422-1.1016-0.69141-1.3906-0.70703-0.82812-0.60938-1.0156 0.027344-1.1953-0.33984-1.2578-0.8125-1.1914-0.53125 0.37109-1.1602-0.87109-0.55469-0.91406-1.1992-1.0352-0.82031-0.42969-1.2969-1.3281-0.25-0.88281-1.0352-0.89453-0.93359-0.68359-0.77344-0.63281-0.83203-1.0742-1.4258-0.63281-1.125-0.88672-0.70312-0.85938-0.53516 0.52344-0.85938 0.54688-0.89844 0.64453-0.98438 0.76172-1.2109 0.19922-1.0859-0.1875-1.0312 0.019531-1.0391 0.44531-1.1016 0.96094-0.95312 1.0742-0.23828 1.1016-0.074219 1.0938-0.066406 0.92969-0.69531 0.73828-0.90625 0.97266-0.40625 1.0664-0.72266 0.94531-0.5 0.75391-0.74609 0.87109-1.2031 1.0312-0.67578 0.94531-0.88281 1.0625-0.73438 1.0195-0.64062 0.83203-0.78906 0.76953-1.0469 0.78516-0.78516 0.75781-1.0195 0.91016-0.60938 1.0234-0.52734 1.1328-0.76953 0.59766-0.99609 0.32422-0.97656 0.71094-0.78906 1.2109-0.19531 1.6211-0.30859 0.94141-0.71875 1.1055-0.58203 0.94922-0.91406 0.61328-1.1484 0.69141-0.80859 0.91016-0.42188 0.76953-0.82031 0.50391-0.98438 0.74609-1.582 0.32812-1.4492 0.44141-1.1875 1.418-0.58594 1.582 0.35156 1.0391 0.39453 1.0742-0.33594 1.3516 0.24219 1.1641 0.60938 1 1.0586 0.73438 0.78906 1.1523 0.66016 1.6055 0.41797 1.0078-0.25 1.1016 0.59766 0.83984 0.56641 1.0898 0.39844 1.1758 0.21094 1.2383 0.16797 0.96094 0.36719 1.3672 0.41797 1.0352-0.097656 1.0742-0.28906 1.1523-0.36719 0.92578-0.67969 1.1953-0.91406 1.0586-0.054687 1.0391 0.078125 1.2656 0.41797 1.5938 0.19922 1.0547-0.51172 0.92969-0.85156 1.2695-0.24219 0.95312 1.082 1.3359 0.19922 1.1523-0.42188 1.0703-0.41797 0.99609-0.26172 1.3633 0.09375 1.0508 0.28125 1.2891 0.24219 0.97656-0.88281 0.89062-0.72266 1.2266-0.15625 1-0.11719 1.1094-0.62891 1.375-0.53516 1.1953-0.23047 1.0625 0.011719 1.332-0.49609 1.5742 0.054687 1.0156 0.14844 1.3438-0.097656 1.1836 0.0625 1.0312 0.31641 0.98438 0.60938 1.4062 0.50391 1.1445 0.51172 1.1016 0.72656 0.99609 0.63672 0.96484 0.47266 0.96484 0.28516 1.1445-0.074219 1.2148 0.21094 1.0508 0.58594 0.67188 1.1641 0.96484 0.37891 1.2148-0.0625 1.1445-0.17969 1.2383-0.36719 1.1875-0.80859 1.3711-0.35547 1.2617-0.3125 1.0078-0.29688 1.0039-0.13672 0.83984-0.94141 0.83984-0.75781 0.80859-1.0156 1.4062-0.64062 0.89062-0.77734 0.80859-0.82812 0.85938-1.1953 0.51562-0.96484 0.58594-0.83984 0.89453-0.49219 1.0938-0.31641 0.96094-0.56641 0.99609-0.60938 0.32031-1.1289 0.80469-0.64453 1.0898 0.35547 1.0898-0.5625 1.0234-0.44922 1.1484-0.46094 0.95703 0.76172 1.0664 0.44141 0.45703-0.97266 0.58203-0.91016 1.1484-0.29297 1.0117-0.58203 0.75-0.82812 2.4766-1.4531 0.82031 0.054688" fill="none" stroke="#fff" stroke-linecap="round" stroke-linejoin="round" stroke-miterlimit="10"/>
<path d="m194.44 210.5c0 3.5898-2.9102 6.5-6.5 6.5s-6.5-2.9102-6.5-6.5c0-3.5898 2.9102-6.5 6.5-6.5s6.5 2.9102 6.5 6.5" fill="#28c028" fill-rule="evenodd" stroke="#000" stroke-linecap="round" stroke-linejoin="round" stroke-miterlimit="10"/>
<path d="m24.219 198.46 3.2344 1.0156c-0.5 1.793-1.3281 3.125-2.4844 4-1.1484 0.875-2.6016 1.3125-4.3594 1.3125-2.1875 0-3.9844-0.74219-5.3906-2.2344-1.4062-1.5-2.1094-3.5469-2.1094-6.1406 0-2.7383 0.70312-4.8633 2.1094-6.375 1.4141-1.5195 3.2812-2.2812 5.5938-2.2812 2.0078 0 3.6445 0.60156 4.9062 1.7969 0.75 0.69922 1.3125 1.7109 1.6875 3.0312l-3.2969 0.78125c-0.19922-0.85156-0.60547-1.5234-1.2188-2.0156-0.61719-0.5-1.3672-0.75-2.25-0.75-1.2188 0-2.2109 0.4375-2.9688 1.3125-0.76172 0.875-1.1406 2.2969-1.1406 4.2656 0 2.0742 0.375 3.5547 1.125 4.4375 0.75 0.88672 1.7227 1.3281 2.9219 1.3281 0.88281 0 1.6445-0.28125 2.2812-0.84375 0.63281-0.5625 1.0859-1.4414 1.3594-2.6406zm5.4062-2.0781c0-1.6758 0.25-3.0859 0.75-4.2344 0.375-0.83203 0.88281-1.582 1.5312-2.25 0.64453-0.66406 1.3516-1.1602 2.125-1.4844 1.0312-0.4375 2.2188-0.65625 3.5625-0.65625 2.4141 0 4.3516 0.75781 5.8125 2.2656 1.457 1.5 2.1875 3.5938 2.1875 6.2812 0 2.6562-0.72656 4.7344-2.1719 6.2344-1.4375 1.5-3.3711 2.25-5.7969 2.25-2.4492 0-4.3984-0.74219-5.8438-2.2344-1.4375-1.5-2.1562-3.5547-2.1562-6.1719zm3.4219-0.125c0 1.8672 0.42969 3.2812 1.2969 4.25 0.86328 0.96094 1.957 1.4375 3.2812 1.4375 1.3203 0 2.4062-0.47266 3.25-1.4219 0.85156-0.95703 1.2812-2.3906 1.2812-4.2969 0-1.8945-0.41797-3.3047-1.25-4.2344-0.82422-0.92578-1.918-1.3906-3.2812-1.3906-1.375 0-2.4844 0.47656-3.3281 1.4219-0.83594 0.9375-1.25 2.3516-1.25 4.2344zm25.672 2.2031 3.2344 1.0156c-0.5 1.793-1.3281 3.125-2.4844 4-1.1484 0.875-2.6016 1.3125-4.3594 1.3125-2.1875 0-3.9844-0.74219-5.3906-2.2344-1.4062-1.5-2.1094-3.5469-2.1094-6.1406 0-2.7383 0.70312-4.8633 2.1094-6.375 1.4141-1.5195 3.2812-2.2812 5.5938-2.2812 2.0078 0 3.6445 0.60156 4.9062 1.7969 0.75 0.69922 1.3125 1.7109 1.6875 3.0312l-3.2969 0.78125c-0.19922-0.85156-0.60547-1.5234-1.2188-2.0156-0.61719-0.5-1.3672-0.75-2.25-0.75-1.2188 0-2.2109 0.4375-2.9688 1.3125-0.76172 0.875-1.1406 2.2969-1.1406 4.2656 0 2.0742 0.375 3.5547 1.125 4.4375 0.75 0.88672 1.7227 1.3281 2.9219 1.3281 0.88281 0 1.6445-0.28125 2.2812-0.84375 0.63281-0.5625 1.0859-1.4414 1.3594-2.6406zm6.0938 6.0469v-16.469h3.3281v6.4844h6.5v-6.4844h3.3281v16.469h-3.3281v-7.2031h-6.5v7.2031zm31.438 0h-3.6094l-1.4375-3.7344h-6.5781l-1.3594 3.7344h-3.5312l6.4062-16.469h3.5156zm-6.1094-6.5156-2.2812-6.1094-2.2188 6.1094zm7.8906-9.9531h6.5781c1.3008 0 2.2695 0.058594 2.9062 0.17188 0.64453 0.10547 1.2188 0.32812 1.7188 0.67188 0.50781 0.34375 0.92969 0.80469 1.2656 1.375 0.34375 0.57422 0.51562 1.2188 0.51562 1.9375 0 0.77344-0.21094 1.4805-0.625 2.125-0.41797 0.63672-0.98047 1.1172-1.6875 1.4375 1 0.29297 1.7656 0.79297 2.2969 1.5 0.53906 0.69922 0.8125 1.5273 0.8125 2.4844 0 0.74219-0.17188 1.4648-0.51562 2.1719-0.34375 0.71094-0.82031 1.2773-1.4219 1.7031-0.60547 0.41797-1.3516 0.67969-2.2344 0.78125-0.55469 0.0625-1.8906 0.10156-4.0156 0.10938h-5.5938zm3.3281 2.75v3.7969h2.1719c1.2891 0 2.0977-0.015625 2.4219-0.046875 0.5625-0.070312 1.0039-0.26953 1.3281-0.59375 0.33203-0.32031 0.5-0.75 0.5-1.2812 0-0.50781-0.14062-0.92188-0.42188-1.2344-0.28125-0.32031-0.69922-0.51953-1.25-0.59375-0.33594-0.03125-1.2812-0.046875-2.8438-0.046875zm0 6.5469v4.3906h3.0781c1.1953 0 1.9531-0.03125 2.2656-0.09375 0.5-0.09375 0.90625-0.3125 1.2188-0.65625s0.46875-0.8125 0.46875-1.4062c0-0.48828-0.12109-0.90625-0.35938-1.25-0.24219-0.34375-0.58984-0.59375-1.0469-0.75-0.44922-0.15625-1.4336-0.23438-2.9531-0.23438zm28.109 7.1719h-3.6094l-1.4375-3.7344h-6.5781l-1.3594 3.7344h-3.5312l6.4062-16.469h3.5156zm-6.1094-6.5156-2.2812-6.1094-2.2188 6.1094zm7.8281 6.5156v-16.469h4.9844l2.9844 11.234 2.9531-11.234h4.9844v16.469h-3.0938v-12.953l-3.2656 12.953h-3.2031l-3.25-12.953v12.953zm19.219-16.469h6.5781c1.3008 0 2.2695 0.058594 2.9062 0.17188 0.64453 0.10547 1.2188 0.32812 1.7188 0.67188 0.50781 0.34375 0.92969 0.80469 1.2656 1.375 0.34375 0.57422 0.51562 1.2188 0.51562 1.9375 0 0.77344-0.21094 1.4805-0.625 2.125-0.41797 0.63672-0.98047 1.1172-1.6875 1.4375 1 0.29297 1.7656 0.79297 2.2969 1.5 0.53906 0.69922 0.8125 1.5273 0.8125 2.4844 0 0.74219-0.17188 1.4648-0.51562 2.1719-0.34375 0.71094-0.82031 1.2773-1.4219 1.7031-0.60547 0.41797-1.3516 0.67969-2.2344 0.78125-0.55469 0.0625-1.8906 0.10156-4.0156 0.10938h-5.5938zm3.3281 2.75v3.7969h2.1719c1.2891 0 2.0977-0.015625 2.4219-0.046875 0.5625-0.070312 1.0039-0.26953 1.3281-0.59375 0.33203-0.32031 0.5-0.75 0.5-1.2812 0-0.50781-0.14062-0.92188-0.42188-1.2344-0.28125-0.32031-0.69922-0.51953-1.25-0.59375-0.33594-0.03125-1.2812-0.046875-2.8438-0.046875zm0 6.5469v4.3906h3.0781c1.1953 0 1.9531-0.03125 2.2656-0.09375 0.5-0.09375 0.90625-0.3125 1.2188-0.65625s0.46875-0.8125 0.46875-1.4062c0-0.48828-0.12109-0.90625-0.35938-1.25-0.24219-0.34375-0.58984-0.59375-1.0469-0.75-0.44922-0.15625-1.4336-0.23438-2.9531-0.23438zm28.109 7.1719h-3.6094l-1.4375-3.7344h-6.5781l-1.3594 3.7344h-3.5312l6.4062-16.469h3.5156zm-6.1094-6.5156-2.2812-6.1094-2.2188 6.1094zm0 0" fill="none" stroke="#fff" stroke-linecap="round" stroke-linejoin="round" stroke-miterlimit="10" stroke-width="2"/>
<path d="m24.219 198.46 3.2344 1.0156c-0.5 1.793-1.3281 3.125-2.4844 4-1.1484 0.875-2.6016 1.3125-4.3594 1.3125-2.1875 0-3.9844-0.74219-5.3906-2.2344-1.4062-1.5-2.1094-3.5469-2.1094-6.1406 0-2.7383 0.70312-4.8633 2.1094-6.375 1.4141-1.5195 3.2812-2.2812 5.5938-2.2812 2.0078 0 3.6445 0.60156 4.9062 1.7969 0.75 0.69922 1.3125 1.7109 1.6875 3.0312l-3.2969 0.78125c-0.19922-0.85156-0.60547-1.5234-1.2188-2.0156-0.61719-0.5-1.3672-0.75-2.25-0.75-1.2188 0-2.2109 0.4375-2.9688 1.3125-0.76172 0.875-1.1406 2.2969-1.1406 4.2656 0 2.0742 0.375 3.5547 1.125 4.4375 0.75 0.88672 1.7227 1.3281 2.9219 1.3281 0.88281 0 1.6445-0.28125 2.2812-0.84375 0.63281-0.5625 1.0859-1.4414 1.3594-2.6406zm5.4062-2.0781c0-1.6758 0.25-3.0859 0.75-4.2344 0.375-0.83203 0.88281-1.582 1.5312-2.25 0.64453-0.66406 1.3516-1.1602 2.125-1.4844 1.0312-0.4375 2.2188-0.65625 3.5625-0.65625 2.4141 0 4.3516 0.75781 5.8125 2.2656 1.457 1.5 2.1875 3.5938 2.1875 6.2812 0 2.6562-0.72656 4.7344-2.1719 6.2344-1.4375 1.5-3.3711 2.25-5.7969 2.25-2.4492 0-4.3984-0.74219-5.8438-2.2344-1.4375-1.5-2.1562-3.5547-2.1562-6.1719zm3.4219-0.125c0 1.8672 0.42969 3.2812 1.2969 4.25 0.86328 0.96094 1.957 1.4375 3.2812 1.4375 1.3203 0 2.4062-0.47266 3.25-1.4219 0.85156-0.95703 1.2812-2.3906 1.2812-4.2969 0-1.8945-0.41797-3.3047-1.25-4.2344-0.82422-0.92578-1.918-1.3906-3.2812-1.3906-1.375 0-2.4844 0.47656-3.3281 1.4219-0.83594 0.9375-1.25 2.3516-1.25 4.2344zm25.672 2.2031 3.2344 1.0156c-0.5 1.793-1.3281 3.125-2.4844 4-1.1484 0.875-2.6016 1.3125-4.3594 1.3125-2.1875 0-3.9844-0.74219-5.3906-2.2344-1.4062-1.5-2.1094-3.5469-2.1094-6.1406 0-2.7383 0.70312-4.8633 2.1094-6.375 1.4141-1.5195 3.2812-2.2812 5.5938-2.2812 2.0078 0 3.6445 0.60156 4.9062 1.7969 0.75 0.69922 1.3125 1.7109 1.6875 3.0312l-3.2969 0.78125c-0.19922-0.85156-0.60547-1.5234-1.2188-2.0156-0.61719-0.5-1.3672-0.75-2.25-0.75-1.2188 0-2.2109 0.4375-2.9688 1.3125-0.76172 0.875-1.1406 2.2969-1.1406 4.2656 0 2.0742 0.375 3.5547 1.125 4.4375 0.75 0.88672 1.7227 1.3281 2.9219 1.3281 0.88281 0 1.6445-0.28125 2.2812-0.84375 0.63281-0.5625 1.0859-1.4414 1.3594-2.6406zm6.0938 6.0469v-16.469h3.3281v6.4844h6.5v-6.4844h3.3281v16.469h-3.3281v-7.2031h-6.5v7.2031zm31.438 0h-3.6094l-1.4375-3.7344h-6.5781l-1.3594 3.7344h-3.5312l6.4062-16.469h3.5156zm-6.1094-6.5156-2.2812-6.1094-2.2188 6.1094zm7.8906-9.9531h6.5781c1.3008 0 2.2695 0.058594 2.9062 0.17188 0.64453 0.10547 1.2188 0.32812 1.7188 0.67188 0.50781 0.34375 0.92969 0.80469 1.2656 1.375 0.34375 0.57422 0.51562 1.2188 0.51562 1.9375 0 0.77344-0.21094 1.4805-0.625 2.125-0.41797 0.63672-0.98047 1.1172-1.6875 1.4375 1 0.29297 1.7656 0.79297 2.2969 1.5 0.53906 0.69922 0.8125 1.5273 0.8125 2.4844 0 0.74219-0.17188 1.4648-0.51562 2.1719-0.34375 0.71094-0.82031 1.2773-1.4219 1.7031-0.60547 0.41797-1.3516 0.67969-2.2344 0.78125-0.55469 0.0625-1.8906 0.10156-4.0156 0.10938h-5.5938zm3.3281 2.75v3.7969h2.1719c1.2891 0 2.0977-0.015625 2.4219-0.046875 0.5625-0.070312 1.0039-0.26953 1.3281-0.59375 0.33203-0.32031 0.5-0.75 0.5-1.2812 0-0.50781-0.14062-0.92188-0.42188-1.2344-0.28125-0.32031-0.69922-0.51953-1.25-0.59375-0.33594-0.03125-1.2812-0.046875-2.8438-0.046875zm0 6.5469v4.3906h3.0781c1.1953 0 1.9531-0.03125 2.2656-0.09375 0.5-0.09375 0.90625-0.3125 1.2188-0.65625s0.46875-0.8125 0.46875-1.4062c0-0.48828-0.12109-0.90625-0.35938-1.25-0.24219-0.34375-0.58984-0.59375-1.0469-0.75-0.44922-0.15625-1.4336-0.23438-2.9531-0.23438zm28.109 7.1719h-3.6094l-1.4375-3.7344h-6.5781l-1.3594 3.7344h-3.5312l6.4062-16.469h3.5156zm-6.1094-6.5156-2.2812-6.1094-2.2188 6.1094zm7.8281 6.5156v-16.469h4.9844l2.9844 11.234 2.9531-11.234h4.9844v16.469h-3.0938v-12.953l-3.2656 12.953h-3.2031l-3.25-12.953v12.953zm19.219-16.469h6.5781c1.3008 0 2.2695 0.058594 2.9062 0.17188 0.64453 0.10547 1.2188 0.32812 1.7188 0.67188 0.50781 0.34375 0.92969 0.80469 1.2656 1.375 0.34375 0.57422 0.51562 1.2188 0.51562 1.9375 0 0.77344-0.21094 1.4805-0.625 2.125-0.41797 0.63672-0.98047 1.1172-1.6875 1.4375 1 0.29297 1.7656 0.79297 2.2969 1.5 0.53906 0.69922 0.8125 1.5273 0.8125 2.4844 0 0.74219-0.17188 1.4648-0.51562 2.1719-0.34375 0.71094-0.82031 1.2773-1.4219 1.7031-0.60547 0.41797-1.3516 0.67969-2.2344 0.78125-0.55469 0.0625-1.8906 0.10156-4.0156 0.10938h-5.5938zm3.3281 2.75v3.7969h2.1719c1.2891 0 2.0977-0.015625 2.4219-0.046875 0.5625-0.070312 1.0039-0.26953 1.3281-0.59375 0.33203-0.32031 0.5-0.75 0.5-1.2812 0-0.50781-0.14062-0.92188-0.42188-1.2344-0.28125-0.32031-0.69922-0.51953-1.25-0.59375-0.33594-0.03125-1.2812-0.046875-2.8438-0.046875zm0 6.5469v4.3906h3.0781c1.1953 0 1.9531-0.03125 2.2656-0.09375 0.5-0.09375 0.90625-0.3125 1.2188-0.65625s0.46875-0.8125 0.46875-1.4062c0-0.48828-0.12109-0.90625-0.35938-1.25-0.24219-0.34375-0.58984-0.59375-1.0469-0.75-0.44922-0.15625-1.4336-0.23438-2.9531-0.23438zm28.109 7.1719h-3.6094l-1.4375-3.7344h-6.5781l-1.3594 3.7344h-3.5312l6.4062-16.469h3.5156zm-6.1094-6.5156-2.2812-6.1094-2.2188 6.1094z" fill-rule="evenodd"/>
</g>
</svg>
