<?xml version="1.0" encoding="UTF-8"?>
<svg width="330pt" height="500pt" version="1.1" viewBox="0 0 330 500" xmlns="http://www.w3.org/2000/svg">
<g id="a">
<rect width="330" height="500" fill="none"/>
<path d="m134.07 200.48-0.027343 0.26172 0.042968 1.0273 0.87891 1 0.27734 1.0195 0.62109 0.84766 0.73047 0.76172 1.0156 0.43359 1.4453 0.42188 1.3828 1.25 0.75781 0.94922 0.98438 0.70703 0.77344 0.65625 0.53906 1.1797 0.37109 1.4219 0.79297 0.86719 0.46875 1.043-0.45312 1.0273-0.54297 0.88672-0.13672 1.3555-0.34375 1.2227 0.70703 1.1523 0.69531 0.79688 1.0898 0.36328 1.043-0.10547 1.0898 0.58984-0.22656 1.0625-0.046875 1.4648-0.019531 1.0977 0.50781 0.97266 0.73438 0.95703 0.54297 1.3477 0.50391 0.97266 0.61328 0.87891 1.0664-0.36328 0.98828-0.65234 0.85156-0.64453 1.1094-0.41406 0.78906-0.80469 0.875 0.72266 0.38281 1.1367 0.50391 0.91797 0.59375 1.1992 0.81641 0.71094 0.36328 0.95703 0.36328 1.0469 0.35156 0.94531 0.87109 0.9375 0.83203 0.86328 0.51172 0.88672 0.44531 1.0508-0.51562 1.375-0.84766 0.77734-0.85938 0.73438-0.67969 0.94531-0.66797 0.85938-0.15234 1.0508 0.92578 0.60938 0.24219 1.3281 0.13672 1.0703-0.078125 1.0312-0.51953 1.3008-0.51953 1.0508-0.36328 1.6992-0.21484 1.5312-0.16797 1.043-0.46484 1.3594 0.20703 1.4688-0.56641 1.0195-0.86719 1.0312-0.54688 1.1719 0.16016 1.168-0.29297 1.1289 0.61328 1.0039-0.42969 1.1523 0.10938 1.1992 0.50781 0.875 0.73438 1.2188 1.6328 0.58203 1.1445 0.3125 1.0547 0.20703 1.0664-0.16016 1.0195 0.37891 0.94922 0.73047 0.94141 0.57031 0.85547 0.53906 1.0625-0.42969 1.0312-0.10938 1.0078-0.35156 1.4062 0.21875 1.1914 0.046875 1.1133-0.046875 1.1133 0.046875 0.76562 0.77734 1.0977 0.87891 1.0664 0.14062 1.4219 0.40234 0.68359 0.73828 0.96484 0.46094 1 0.625 1.0273-0.042968 1.0391-0.36328-0.09375-1.0273 0.58203-0.97656 1.2344-0.097656 1.1094 0.25781 1.1211 0.21484 1.0898-0.23828 0.90234 0.59766 1.2266 0.10547 1.0898-0.11328 1.0703-0.26562 0.82422-0.56641 0.51562-0.94922 0.85938-0.70703 1.0039-0.17188 1.1289 0.042969 0.86719 0.79297 0.67969 0.89062 0.89844 0.78125 0.73047 0.78906 0.6875 1.1055 0.76172 0.71094 0.88672-0.60547 1.1055-0.92188 1.0703-0.23047 1.0312-0.070312 1.0703 0.29297 1.1016 0.27344 1.1641-0.015625 0.98828 0.72266 1.125-0.12891 0.99219-0.26953 0.83984-0.58203 1.1172-0.10156 1.0898-0.12891 1.0391 0.25781 1.293 0.60156 1.1055 0.31641 1.0469 0.57422 1.1875 0.30859 1.2344-0.50391 0.94141 0.39453 1.1484 0.13672 0.99609-0.30078 1.1016 0.27344 1.2852 0.070313 1.0547-0.49219 1.2695 0.42188h1.1562l1.3438-0.81641 1-0.55859 1.2188 0.16406 1.0469 0.26562 1.0312-0.074219 1.1562-0.11328 1.4258-0.26562 1.0625-0.4375 1.2422-0.16406 1.1836 0.25781 1.0156-0.09375 1.0117-0.19922 1.0547-0.33984 1.3008-0.41406 1.1797 0.1875 1.1211 0.25 1.0547 0.37109 0.83203 0.55859 0.79688 0.95703 1.1133 0.37891 1.3203 0.66406 0.17188 1.2656 0.82031 0.64844 0.79297 0.85547 0.74609 1.3203 0.53906 0.875 0.60547 0.98438 0.90625 0.43359 1.2344 0.76562 1.0156 0.47656 0.66016 0.92969 1.0508 0.55078 0.039062 1.0195 0.51172 1.0586-0.52734 1.5078-0.36719 0.95703-0.90234 0.71875-0.93359 0.89453-0.74219 0.91797-0.85156 0.66406-0.76953 0.98438-0.69141 0.80078-0.6875 0.95703-1.0547 0.82422-1.082 0.042968-1.1094 0.56641-0.98828-0.33594-1.0547 0.51172-0.71484 0.76953-0.3125 1.043-0.67578 0.97266-0.37891 1.0938 0.015625 1.2031 0.14844 1.2734-0.48828 0.95703-1.0391 0.77344-0.70312 0.91797-0.51172 1.1094 0.70312 1.0938-0.28516 1-0.16406 1.0156-0.1875 1.0391-0.35156 1.043-0.17578 1.0273-0.41797 0.98438-0.10938 1.0547-0.59375 0.97266-0.89453 0.66406-1.1328-0.09375 0.039063 1.1484-0.39062 1.1367 0.42969 0.94531-0.60547 0.83594-0.36719 1.1094-0.21484 1.0938-0.027344 1.3008 0.73047 1 0.10547 1.1484 0.69141 1.0391-0.082031 1.0703-0.58203 0.98438-0.42969 1.125-1.1367 0.26953-1.1094 0.64844-0.85156 1.0117-0.62109 0.96094-0.35156 1.3672 0.12109 1.3906-0.3125 0.97266-0.47266 1.0977-0.48438 1.1211 0.21484 1.0938 0.33984 1.4609-0.51562 0.94531 0.1875 1 0.10938 1.082-0.48438 1.0703-0.73047 0.83594 0.29688 1.2578 0.51172 1.0273 0.77344 0.86719 0.21484 1.0781 0.51562 0.97656 0.53906 1-0.10938 1.082-0.37891 1.2695-0.36328 1.3359-0.046875 1.0508-0.003906 1.2656-0.12109 1.3594 0.078125 1.7109 0.19531 1.7383 0.042969 1.0742-0.55078 0.83594-0.13281 1.2188-0.57812 0.89453-0.17578 1.0508-1.0547 1.1562-0.51172 0.98047-0.56641 0.98047-0.67188 1.0117-1.3164 0.59375-0.73047 0.91797-1.0039 0.78125-0.72266 1.2773-0.98438 0.57031-0.33203 1.0391-1.0938 0.46094-0.91406 0.73047-0.88672 0.94531-1.0078 0.58203-1.207 0.47266-1.5-0.60156-1.4297 0.13672-1.0742-0.050782-0.71094 0.76172-1.375 0.89062-1.3242 0.84375-1.1211 0.66406-1.1992-0.089844-0.92578-0.49609-0.92578-0.51562-1.1406 0.41797-1.0859 0.53516-1.2031 0.94531-1.4219 0.67578-1.2227 0.96094-0.73438 0.76562-1.0039 0.46875-0.92969 0.36328-0.94531 0.49219-1.0039 0.36719-0.96875 0.42578-0.98047 0.29688-1.5469-0.53516-1.3789-0.20703-1.3438 0.0625-1.0039-0.28516-1.1289-0.21875-1.0352-0.42969-0.94141-0.35156-1.2109-0.37109-1.125-0.88672-0.89453-0.47656-1.2539 0.36719-0.91406 0.42969-0.99219 0.32422-1.1445 0.76172-1.043-0.019532-1.1797-0.17578-0.80859 0.69141-0.69141 0.90234-0.88281 0.69531-0.96875 0.31641-1.0859 0.50391-0.83594 0.70312-0.98828 0.44141 0.22656 1.0234-0.62891 0.86328-1.0391 0.21875 0.48047 0.94531-0.90234 0.76562-0.25781 1.168 0.082031 1.5273 0.070313 1.1211-0.39453 1.0508-0.50391 1.1562-0.76953 1.2617-0.27734 1.0352-0.32031 0.97266 0.10547 1.0742-0.13672 1.0234-0.57031 0.82031-0.82422 0.81641-0.46875 0.99609-0.64844 0.85156-0.63672 0.99219-0.71484 0.70703-1.0312 0.30469-1.0586 1.0352-0.91406 0.59375-0.89062 0.55469-0.86328 0.54297-0.99609 0.74219-1.0078 0.50391-0.96094 0.3125-1.1914 0.32031-1.0742 0.53516-0.82812 0.67578-1.1172 1.0977-1.0469 1.0625-0.91016 0.55078-1.2344 0.51953-0.98828 0.53516-1.0078 0.80859-0.64062 0.82812-0.91406 0.62891-0.73438 0.98047-0.76562 0.74609-0.82812 0.69922-0.62891 1.1914-0.62891 0.86328-0.86328 0.57031-0.23438 1.0078-0.77344 0.76172-0.94922 0.60156-0.41797 1.0312-0.64844 0.78516-1.0977 0.41797-0.72266 0.8125-0.73047 0.98828-0.98828 0.40625-0.98438 0.78516-0.10547 1.1172-0.082031 1.1797-0.86328 0.87891-1.0234 0.42969-0.47656 0.88281-0.625 0.84766-0.42578 0.98828-0.33203 1.1367-0.42188 0.98828 0.40625 1.5039 0.39844 1.1797 0.19531 1 0.19531 1.043 0.23438 1.2695 0.33203 0.96875 0.65234 0.78906 0.57812 1.1875 0.49609 1.0156 0.47656 0.89062 0.11328 1.0195 0.43359 1.1875-0.18359 1.0742-0.94531 0.58203-0.69141 0.96094-0.20703 1.1523-0.13672 1.1055-0.68359 1.0469-0.80469 1.0859-0.96484 0.84766-0.91797 0.69922-0.8125 0.99609-0.80859 0.71484-0.96094 0.46094-0.51562 0.86328-0.48828 0.9375-0.80469 0.77734-0.31641 1.0781-0.65234 0.875-0.52734 0.93359-0.76953 0.73828-0.41016 1.0625-0.74609 0.76953-0.24609 0.99219-0.56641 0.83203-0.46875 0.89844-0.51172 0.90625-0.12109 1-0.37109 0.94141-0.83203 1.1992-0.66406 0.81641-0.71094 0.74609-0.625 1.0117-0.79688 1.1836-0.55078 0.83594-1.293 0.66797-1.0312 0.54297-0.44141 1.4102-0.68359 1.4492-1.1211 0.375-1.2969 0.054688-1.125 0.12109-0.875 0.59766-0.37109 1.0195-1.2344 0.17969-1.0234 0.14062-0.88281 0.50391-1.4375 0.35547-1.4531 0.55078-1.3164 0.44141-0.21484-1.0273-0.054687-1.4336-0.23828-1.082-0.40625-0.92188-1.1133-0.51953-0.35547-1.5195 0.16406-1.2852-0.94141-0.73047 0.027344-1.0273 0.22656-1.2656-0.24219-1.0352-0.19141-1.1016 0.015625-1.0625-0.41016-1.1797-1.0391-0.37891-0.67969 0.8125-0.76562 1.0273-1.1367 0.59766-1.0977 0.38672-1.0273 0.84766-0.45312 1.1016-0.27734 1.0781-1.0742 0.03125-0.94531-0.94531-0.55078-1.1758 0.003906-1.3789-0.27344-1.2227-0.31641-0.96484-0.03125-1.0273 0.26562-1.207-0.19141-1.1289-0.22266-1.0312 0.79297-0.83203 0.14844-1.2578-0.35156-1.0352-0.18359-1.1836-0.22656-1.293 0.042968-1.1016 0.84375-0.89453 0.80078-0.73828 1.0117-0.38281-0.5-1.168-0.57031-1.2031-0.035156-1.0625-0.29297-1.0781-0.80859-0.60938 0.25391-1.1523 0.37109-1.2656 0.089844-1.0273-0.88281-0.83203-1.0781-0.66797-0.85938-1.2539-1.1953-1.1016-0.75391-0.89844 0.35938-1.1953 1.043-0.73438 0.87891-0.75781 0.47266-1.5078 0.16797-1.2852-0.10156-1.1953-0.65234-1.0859-0.96484-0.92578-0.92188-0.79297-0.97266-1 0.4375-0.95312-0.09375-1.2812 0.17969-1.2109 0.29688-1.0156 0.90625-0.79688 0.17578-1.1367-0.070312-1.1055 0.19922-1.0391-0.40625-1.0898-0.44141-0.99609 0.03125-1.3359-0.35547-1.1094-0.64062-1.4492-0.49609-1.043-0.17969-1.332 0.15625-1.6523-0.16797-1.1562-1.8359-0.73438-1.4531-0.48047-2.043-0.74219-1.0586-0.30859-1.2188-0.82031-1.0195-1.0195-1.0117-0.85938-0.84766-0.69141 0.25391-1.0664 0.96094-0.63281 0.80859-0.82031 1.0898-0.64453 1.2812-0.86328 0.77344-0.80078 1.1016 0.03125 0.74219 0.70312 1.0391-0.33594 0.67578-1.1836 0.09375-1.4727 0.26562-1.0195-0.15234-1.6445-0.28906-1.3789-0.68359-1.0703-0.58594-0.82422 0.28125-1.2422 0.44531-1.0391-0.078125-1.207-0.39844-1.2031-0.38281-1.0586-0.24219-1.2344-0.16406-1.2891 0.34766-1.457 0.83594-0.96094 1.3398-0.57812 1.3203-0.027344 0.9375-0.74609 0.5-0.875 1.0039-0.082031 0.69531-1.0938-0.24219-1.1953-0.98828-0.94141-0.90625-0.68359-0.69922-1.2852-0.125-1.4023 0.49609-1.0938 0.26953-1.7539 0.17969-1.1641-0.39844-1.2578-0.48828-1.4727-0.53906-1.2656-1.3398-0.14062-1.0195-0.085937-1.0234-0.37891-0.95703-1.1367-0.97656-0.82031-0.77344-0.6875-0.95312-0.89453-0.82422-1.1836 0.082031-1.1016 0.92188-0.92188 0.61719-1.0078 0.48828-1.3047 0.21484-1.0586-0.91406-0.89453-1.2305-0.92578-1.0586-0.875-1.1289-0.51172-1.0469-0.58984-0.27734-1.1992 0.99219-0.50391 0.89844-0.625 0.57031-1.0312-0.21094-1.293 0.45703-1.0859 0.69531-0.77734 0.30469-1.3477 0.42578-1.1289 0.60547-1.3672-0.5-1.1133-0.35547-1.0039 0.25781-1.2656 0.69531-0.89844 0.75-0.93359 0.46094-1.1055 0.23828-1.4648-0.21094-1.1562-0.41406-1.043-0.58594-0.83203-0.11328-1.8164 0.35156-1.0898 0.32812-1.5234-1.1016-0.66406-1.1406-0.30469-1.0352-0.41406-1.2773-0.61328-0.097656-1.0742 0.53906-1.2266 1.1055-1.0508 0.75391-1.0156 0.80859-0.77344 1.5156-1.168 1.1211-0.76172 0.77344-0.90625 1.1484-1.0039 0.92969-1.168 1.5586-0.51953 0.79297-1.6719-0.074219-1.7734-0.33984-1.3086-0.57422-1.0156-1.3867-0.98438-1.1484-0.66797-1.0586-0.22656-0.75781-0.80859 0.19922-1.4688 0.45703-1.0781 0.48828-1.0625-0.64062-0.96094-0.78516-1.1602-0.54688-1.7422-0.11719-1.1797 1.2148-0.45312 1.2617 0.21875 1.1484-0.21875 0.82031-0.60547 1.3945-1.3281 0.16016-1.0508 0.52344-1.1797 0.39062-1.1133-0.94531-0.71094-1.0273-0.85938-0.30469-1.332 0.30469-1.0117 0.18359-1.0273 0.58984-1.6719 0.80859-1.3984 0.82812-0.94531 0.42188-0.91016 0.91016-0.58984 1.0938 0.11719 0.55859 0.87891 1.0117 0.875 0.92578 0.79297 0.84375 0.53906 1.2305 0.26953 1.1602 0.023437 1.6641 0.375 1.5742 0.52734 1.0508 0.13281 1.1602 0.10547 1.0039-1.3828 0.45312-0.98828-0.023438-1.1875 0.28906-1.1602 0.40234-0.96484 0.17188-1.0781 0.77344-0.79297h1.1133l1.0273-0.25 0.99609-0.40625-0.10156-1.1953 0.33984-1.2344 0.40234-1.0781 0.28516-1.0781 0.070313-1.0469 0.082031-1.2461 0.92969-0.80859 1.3477-0.37109 0.69141-1.0117 0.72656-0.71094 0.32031-0.96094 0.23047-1.2812 1.0977-0.82422 0.79297-1.4219 0.89844-0.56641 1.1602-1.3047 0.57422-1.125 0.75781-1.2305 0.32031-1.2344 0.30469-1.0781 0.16797-1.0117 0.25391-1.0273 0.035156-1.1289-0.050781-1.3008-0.1875-1.2656-0.75781-1.0117-0.84375-1.3633-0.18359-1.0117-0.98047-0.69141-1.1641-0.72656-1.4336-0.35156-1.4727-0.78516-0.8125-0.75781-0.83984-1.2344-0.39062-1.3047-1.418-1.2031-0.91797-1.2812-0.45312-0.99219-1.0273-0.23047-1.0938 0.21484-1.1641-0.25-1.3906-1.3477-0.42188-1.3086 0.085937-1.043-0.015625-1.2734-0.48047-1.0117-0.47266-1.0586-0.17188-1.1875 0.17188-1.4102 0.36719-0.96875-0.19141-1.0977-0.84766-1.1445-0.60156-0.80859-0.66797-1.3477-1.0586-0.94922-0.4375-1.0078 1.043-0.43359 1.0586-0.44141 0.83203-0.70703 0.78906-0.65625 1.0312 0.40625 0.62891-0.79297 0.95703-0.55859 0.015625-1.1133 0.27734-1.0234 0.39062-0.97656 0.94141-0.35938 1.0781 0.16406 0.92188-0.55859 1.1797 0.046875 1.0586-0.54688 0.87891-0.73047 1.3633-0.90625 0.85938-0.64062 0.44531-1.0391 0.97266-0.67969 1.1445-0.058594 0.96094-0.51562 0.91406-0.59375 1.0781-0.39453 0.57031-0.89844 0.63672-0.97266 0.89062-0.58984 0.89844-0.55078 0.80078-0.90625 0.64453-0.76562 0.91016-0.76953 0.41016-0.97656 0.55078-1.0781 0.60156-0.87109 0.33203-0.96875 0.90625-0.55469 0.72266-0.71484 0.875-0.71484 1.1719-0.62109 0.87109-0.55859 0.42188-0.90625 0.36719-1.1289 0.66406-0.94141 0.42578-1 0.85156-0.8125 0.98438-0.44922 0.71484-0.84766 0.68359-0.76953-0.078125-1.0156 0.76172-0.75z" fill="#ccc" fill-rule="evenodd"/>
<path d="m134.07 200.48-0.027343 0.26172 0.042968 1.0273 0.87891 1 0.27734 1.0195 0.62109 0.84766 0.73047 0.76172 1.0156 0.43359 1.4453 0.42188 1.3828 1.25 0.75781 0.94922 0.98438 0.70703 0.77344 0.65625 0.53906 1.1797 0.37109 1.4219 0.79297 0.86719 0.46875 1.043-0.45312 1.0273-0.54297 0.88672-0.13672 1.3555-0.34375 1.2227 0.70703 1.1523 0.69531 0.79688 1.0898 0.36328 1.043-0.10547 1.0898 0.58984-0.22656 1.0625-0.046875 1.4648-0.019531 1.0977 0.50781 0.97266 0.73438 0.95703 0.54297 1.3477 0.50391 0.97266 0.61328 0.87891 1.0664-0.36328 0.98828-0.65234 0.85156-0.64453 1.1094-0.41406 0.78906-0.80469 0.875 0.72266 0.38281 1.1367 0.50391 0.91797 0.59375 1.1992 0.81641 0.71094 0.36328 0.95703 0.36328 1.0469 0.35156 0.94531 0.87109 0.9375 0.83203 0.86328 0.51172 0.88672 0.44531 1.0508-0.51562 1.375-0.84766 0.77734-0.85938 0.73438-0.67969 0.94531-0.66797 0.85938-0.15234 1.0508 0.92578 0.60938 0.24219 1.3281 0.13672 1.0703-0.078125 1.0312-0.51953 1.3008-0.51953 1.0508-0.36328 1.6992-0.21484 1.5312-0.16797 1.043-0.46484 1.3594 0.20703 1.4688-0.56641 1.0195-0.86719 1.0312-0.54688 1.1719 0.16016 1.168-0.29297 1.1289 0.61328 1.0039-0.42969 1.1523 0.10938 1.1992 0.50781 0.875 0.73438 1.2188 1.6328 0.58203 1.1445 0.3125 1.0547 0.20703 1.0664-0.16016 1.0195 0.37891 0.94922 0.73047 0.94141 0.57031 0.85547 0.53906 1.0625-0.42969 1.0312-0.10938 1.0078-0.35156 1.4062 0.21875 1.1914 0.046875 1.1133-0.046875 1.1133 0.046875 0.76562 0.77734 1.0977 0.87891 1.0664 0.14062 1.4219 0.40234 0.68359 0.73828 0.96484 0.46094 1 0.625 1.0273-0.042968 1.0391-0.36328-0.09375-1.0273 0.58203-0.97656 1.2344-0.097656 1.1094 0.25781 1.1211 0.21484 1.0898-0.23828 0.90234 0.59766 1.2266 0.10547 1.0898-0.11328 1.0703-0.26562 0.82422-0.56641 0.51562-0.94922 0.85938-0.70703 1.0039-0.17188 1.1289 0.042969 0.86719 0.79297 0.67969 0.89062 0.89844 0.78125 0.73047 0.78906 0.6875 1.1055 0.76172 0.71094 0.88672-0.60547 1.1055-0.92188 1.0703-0.23047 1.0312-0.070312 1.0703 0.29297 1.1016 0.27344 1.1641-0.015625 0.98828 0.72266 1.125-0.12891 0.99219-0.26953 0.83984-0.58203 1.1172-0.10156 1.0898-0.12891 1.0391 0.25781 1.293 0.60156 1.1055 0.31641 1.0469 0.57422 1.1875 0.30859 1.2344-0.50391 0.94141 0.39453 1.1484 0.13672 0.99609-0.30078 1.1016 0.27344 1.2852 0.070313 1.0547-0.49219 1.2695 0.42188h1.1562l1.3438-0.81641 1-0.55859 1.2188 0.16406 1.0469 0.26562 1.0312-0.074219 1.1562-0.11328 1.4258-0.26562 1.0625-0.4375 1.2422-0.16406 1.1836 0.25781 1.0156-0.09375 1.0117-0.19922 1.0547-0.33984 1.3008-0.41406 1.1797 0.1875 1.1211 0.25 1.0547 0.37109 0.83203 0.55859 0.79688 0.95703 1.1133 0.37891 1.3203 0.66406 0.17188 1.2656 0.82031 0.64844 0.79297 0.85547 0.74609 1.3203 0.53906 0.875 0.60547 0.98438 0.90625 0.43359 1.2344 0.76562 1.0156 0.47656 0.66016 0.92969 1.0508 0.55078 0.039062 1.0195 0.51172 1.0586-0.52734 1.5078-0.36719 0.95703-0.90234 0.71875-0.93359 0.89453-0.74219 0.91797-0.85156 0.66406-0.76953 0.98438-0.69141 0.80078-0.6875 0.95703-1.0547 0.82422-1.082 0.042968-1.1094 0.56641-0.98828-0.33594-1.0547 0.51172-0.71484 0.76953-0.3125 1.043-0.67578 0.97266-0.37891 1.0938 0.015625 1.2031 0.14844 1.2734-0.48828 0.95703-1.0391 0.77344-0.70312 0.91797-0.51172 1.1094 0.70312 1.0938-0.28516 1-0.16406 1.0156-0.1875 1.0391-0.35156 1.043-0.17578 1.0273-0.41797 0.98438-0.10938 1.0547-0.59375 0.97266-0.89453 0.66406-1.1328-0.09375 0.039063 1.1484-0.39062 1.1367 0.42969 0.94531-0.60547 0.83594-0.36719 1.1094-0.21484 1.0938-0.027344 1.3008 0.73047 1 0.10547 1.1484 0.69141 1.0391-0.082031 1.0703-0.58203 0.98438-0.42969 1.125-1.1367 0.26953-1.1094 0.64844-0.85156 1.0117-0.62109 0.96094-0.35156 1.3672 0.12109 1.3906-0.3125 0.97266-0.47266 1.0977-0.48438 1.1211 0.21484 1.0938 0.33984 1.4609-0.51562 0.94531 0.1875 1 0.10938 1.082-0.48438 1.0703-0.73047 0.83594 0.29688 1.2578 0.51172 1.0273 0.77344 0.86719 0.21484 1.0781 0.51562 0.97656 0.53906 1-0.10938 1.082-0.37891 1.2695-0.36328 1.3359-0.046875 1.0508-0.003906 1.2656-0.12109 1.3594 0.078125 1.7109 0.19531 1.7383 0.042969 1.0742-0.55078 0.83594-0.13281 1.2188-0.57812 0.89453-0.17578 1.0508-1.0547 1.1562-0.51172 0.98047-0.56641 0.98047-0.67188 1.0117-1.3164 0.59375-0.73047 0.91797-1.0039 0.78125-0.72266 1.2773-0.98438 0.57031-0.33203 1.0391-1.0938 0.46094-0.91406 0.73047-0.88672 0.94531-1.0078 0.58203-1.207 0.47266-1.5-0.60156-1.4297 0.13672-1.0742-0.050782-0.71094 0.76172-1.375 0.89062-1.3242 0.84375-1.1211 0.66406-1.1992-0.089844-0.92578-0.49609-0.92578-0.51562-1.1406 0.41797-1.0859 0.53516-1.2031 0.94531-1.4219 0.67578-1.2227 0.96094-0.73438 0.76562-1.0039 0.46875-0.92969 0.36328-0.94531 0.49219-1.0039 0.36719-0.96875 0.42578-0.98047 0.29688-1.5469-0.53516-1.3789-0.20703-1.3438 0.0625-1.0039-0.28516-1.1289-0.21875-1.0352-0.42969-0.94141-0.35156-1.2109-0.37109-1.125-0.88672-0.89453-0.47656-1.2539 0.36719-0.91406 0.42969-0.99219 0.32422-1.1445 0.76172-1.043-0.019532-1.1797-0.17578-0.80859 0.69141-0.69141 0.90234-0.88281 0.69531-0.96875 0.31641-1.0859 0.50391-0.83594 0.70312-0.98828 0.44141 0.22656 1.0234-0.62891 0.86328-1.0391 0.21875 0.48047 0.94531-0.90234 0.76562-0.25781 1.168 0.082031 1.5273 0.070313 1.1211-0.39453 1.0508-0.50391 1.1562-0.76953 1.2617-0.27734 1.0352-0.32031 0.97266 0.10547 1.0742-0.13672 1.0234-0.57031 0.82031-0.82422 0.81641-0.46875 0.99609-0.64844 0.85156-0.63672 0.99219-0.71484 0.70703-1.0312 0.30469-1.0586 1.0352-0.91406 0.59375-0.89062 0.55469-0.86328 0.54297-0.99609 0.74219-1.0078 0.50391-0.96094 0.3125-1.1914 0.32031-1.0742 0.53516-0.82812 0.67578-1.1172 1.0977-1.0469 1.0625-0.91016 0.55078-1.2344 0.51953-0.98828 0.53516-1.0078 0.80859-0.64062 0.82812-0.91406 0.62891-0.73438 0.98047-0.76562 0.74609-0.82812 0.69922-0.62891 1.1914-0.62891 0.86328-0.86328 0.57031-0.23438 1.0078-0.77344 0.76172-0.94922 0.60156-0.41797 1.0312-0.64844 0.78516-1.0977 0.41797-0.72266 0.8125-0.73047 0.98828-0.98828 0.40625-0.98438 0.78516-0.10547 1.1172-0.082031 1.1797-0.86328 0.87891-1.0234 0.42969-0.47656 0.88281-0.625 0.84766-0.42578 0.98828-0.33203 1.1367-0.42188 0.98828 0.40625 1.5039 0.39844 1.1797 0.19531 1 0.19531 1.043 0.23438 1.2695 0.33203 0.96875 0.65234 0.78906 0.57812 1.1875 0.49609 1.0156 0.47656 0.89062 0.11328 1.0195 0.43359 1.1875-0.18359 1.0742-0.94531 0.58203-0.69141 0.96094-0.20703 1.1523-0.13672 1.1055-0.68359 1.0469-0.80469 1.0859-0.96484 0.84766-0.91797 0.69922-0.8125 0.99609-0.80859 0.71484-0.96094 0.46094-0.51562 0.86328-0.48828 0.9375-0.80469 0.77734-0.31641 1.0781-0.65234 0.875-0.52734 0.93359-0.76953 0.73828-0.41016 1.0625-0.74609 0.76953-0.24609 0.99219-0.56641 0.83203-0.46875 0.89844-0.51172 0.90625-0.12109 1-0.37109 0.94141-0.83203 1.1992-0.66406 0.81641-0.71094 0.74609-0.625 1.0117-0.79688 1.1836-0.55078 0.83594-1.293 0.66797-1.0312 0.54297-0.44141 1.4102-0.68359 1.4492-1.1211 0.375-1.2969 0.054688-1.125 0.12109-0.875 0.59766-0.37109 1.0195-1.2344 0.17969-1.0234 0.14062-0.88281 0.50391-1.4375 0.35547-1.4531 0.55078-1.3164 0.44141-0.21484-1.0273-0.054687-1.4336-0.23828-1.082-0.40625-0.92188-1.1133-0.51953-0.35547-1.5195 0.16406-1.2852-0.94141-0.73047 0.027344-1.0273 0.22656-1.2656-0.24219-1.0352-0.19141-1.1016 0.015625-1.0625-0.41016-1.1797-1.0391-0.37891-0.67969 0.8125-0.76562 1.0273-1.1367 0.59766-1.0977 0.38672-1.0273 0.84766-0.45312 1.1016-0.27734 1.0781-1.0742 0.03125-0.94531-0.94531-0.55078-1.1758 0.003906-1.3789-0.27344-1.2227-0.31641-0.96484-0.03125-1.0273 0.26562-1.207-0.19141-1.1289-0.22266-1.0312 0.79297-0.83203 0.14844-1.2578-0.35156-1.0352-0.18359-1.1836-0.22656-1.293 0.042968-1.1016 0.84375-0.89453 0.80078-0.73828 1.0117-0.38281-0.5-1.168-0.57031-1.2031-0.035156-1.0625-0.29297-1.0781-0.80859-0.60938 0.25391-1.1523 0.37109-1.2656 0.089844-1.0273-0.88281-0.83203-1.0781-0.66797-0.85938-1.2539-1.1953-1.1016-0.75391-0.89844 0.35938-1.1953 1.043-0.73438 0.87891-0.75781 0.47266-1.5078 0.16797-1.2852-0.10156-1.1953-0.65234-1.0859-0.96484-0.92578-0.92188-0.79297-0.97266-1 0.4375-0.95312-0.09375-1.2812 0.17969-1.2109 0.29688-1.0156 0.90625-0.79688 0.17578-1.1367-0.070312-1.1055 0.19922-1.0391-0.40625-1.0898-0.44141-0.99609 0.03125-1.3359-0.35547-1.1094-0.64062-1.4492-0.49609-1.043-0.17969-1.332 0.15625-1.6523-0.16797-1.1562-1.8359-0.73438-1.4531-0.48047-2.043-0.74219-1.0586-0.30859-1.2188-0.82031-1.0195-1.0195-1.0117-0.85938-0.84766-0.69141 0.25391-1.0664 0.96094-0.63281 0.80859-0.82031 1.0898-0.64453 1.2812-0.86328 0.77344-0.80078 1.1016 0.03125 0.74219 0.70312 1.0391-0.33594 0.67578-1.1836 0.09375-1.4727 0.26562-1.0195-0.15234-1.6445-0.28906-1.3789-0.68359-1.0703-0.58594-0.82422 0.28125-1.2422 0.44531-1.0391-0.078125-1.207-0.39844-1.2031-0.38281-1.0586-0.24219-1.2344-0.16406-1.2891 0.34766-1.457 0.83594-0.96094 1.3398-0.57812 1.3203-0.027344 0.9375-0.74609 0.5-0.875 1.0039-0.082031 0.69531-1.0938-0.24219-1.1953-0.98828-0.94141-0.90625-0.68359-0.69922-1.2852-0.125-1.4023 0.49609-1.0938 0.26953-1.7539 0.17969-1.1641-0.39844-1.2578-0.48828-1.4727-0.53906-1.2656-1.3398-0.14062-1.0195-0.085937-1.0234-0.37891-0.95703-1.1367-0.97656-0.82031-0.77344-0.6875-0.95312-0.89453-0.82422-1.1836 0.082031-1.1016 0.92188-0.92188 0.61719-1.0078 0.48828-1.3047 0.21484-1.0586-0.91406-0.89453-1.2305-0.92578-1.0586-0.875-1.1289-0.51172-1.0469-0.58984-0.27734-1.1992 0.99219-0.50391 0.89844-0.625 0.57031-1.0312-0.21094-1.293 0.45703-1.0859 0.69531-0.77734 0.30469-1.3477 0.42578-1.1289 0.60547-1.3672-0.5-1.1133-0.35547-1.0039 0.25781-1.2656 0.69531-0.89844 0.75-0.93359 0.46094-1.1055 0.23828-1.4648-0.21094-1.1562-0.41406-1.043-0.58594-0.83203-0.11328-1.8164 0.35156-1.0898 0.32812-1.5234-1.1016-0.66406-1.1406-0.30469-1.0352-0.41406-1.2773-0.61328-0.097656-1.0742 0.53906-1.2266 1.1055-1.0508 0.75391-1.0156 0.80859-0.77344 1.5156-1.168 1.1211-0.76172 0.77344-0.90625 1.1484-1.0039 0.92969-1.168 1.5586-0.51953 0.79297-1.6719-0.074219-1.7734-0.33984-1.3086-0.57422-1.0156-1.3867-0.98438-1.1484-0.66797-1.0586-0.22656-0.75781-0.80859 0.19922-1.4688 0.45703-1.0781 0.48828-1.0625-0.64062-0.96094-0.78516-1.1602-0.54688-1.7422-0.11719-1.1797 1.2148-0.45312 1.2617 0.21875 1.1484-0.21875 0.82031-0.60547 1.3945-1.3281 0.16016-1.0508 0.52344-1.1797 0.39062-1.1133-0.94531-0.71094-1.0273-0.85938-0.30469-1.332 0.30469-1.0117 0.18359-1.0273 0.58984-1.6719 0.80859-1.3984 0.82812-0.94531 0.42188-0.91016 0.91016-0.58984 1.0938 0.11719 0.55859 0.87891 1.0117 0.875 0.92578 0.79297 0.84375 0.53906 1.2305 0.26953 1.1602 0.023437 1.6641 0.375 1.5742 0.52734 1.0508 0.13281 1.1602 0.10547 1.0039-1.3828 0.45312-0.98828-0.023438-1.1875 0.28906-1.1602 0.40234-0.96484 0.17188-1.0781 0.77344-0.79297h1.1133l1.0273-0.25 0.99609-0.40625-0.10156-1.1953 0.33984-1.2344 0.40234-1.0781 0.28516-1.0781 0.070313-1.0469 0.082031-1.2461 0.92969-0.80859 1.3477-0.37109 0.69141-1.0117 0.72656-0.71094 0.32031-0.96094 0.23047-1.2812 1.0977-0.82422 0.79297-1.4219 0.89844-0.56641 1.1602-1.3047 0.57422-1.125 0.75781-1.2305 0.32031-1.2344 0.30469-1.0781 0.16797-1.0117 0.25391-1.0273 0.035156-1.1289-0.050781-1.3008-0.1875-1.2656-0.75781-1.0117-0.84375-1.3633-0.18359-1.0117-0.98047-0.69141-1.1641-0.72656-1.4336-0.35156-1.4727-0.78516-0.8125-0.75781-0.83984-1.2344-0.39062-1.3047-1.418-1.2031-0.91797-1.2812-0.45312-0.99219-1.0273-0.23047-1.0938 0.21484-1.1641-0.25-1.3906-1.3477-0.42188-1.3086 0.085937-1.043-0.015625-1.2734-0.48047-1.0117-0.47266-1.0586-0.17188-1.1875 0.17188-1.4102 0.36719-0.96875-0.19141-1.0977-0.84766-1.1445-0.60156-0.80859-0.66797-1.3477-1.0586-0.94922-0.4375-1.0078 1.043-0.43359 1.0586-0.44141 0.83203-0.70703 0.78906-0.65625 1.0312 0.40625 0.62891-0.79297 0.95703-0.55859 0.015625-1.1133 0.27734-1.0234 0.39062-0.97656 0.94141-0.35938 1.0781 0.16406 0.92188-0.55859 1.1797 0.046875 1.0586-0.54688 0.87891-0.73047 1.3633-0.90625 0.85938-0.64062 0.44531-1.0391 0.97266-0.67969 1.1445-0.058594 0.96094-0.51562 0.91406-0.59375 1.0781-0.39453 0.57031-0.89844 0.63672-0.97266 0.89062-0.58984 0.89844-0.55078 0.80078-0.90625 0.64453-0.76562 0.91016-0.76953 0.41016-0.97656 0.55078-1.0781 0.60156-0.87109 0.33203-0.96875 0.90625-0.55469 0.72266-0.71484 0.875-0.71484 1.1719-0.62109 0.87109-0.55859 0.42188-0.90625 0.36719-1.1289 0.66406-0.94141 0.42578-1 0.85156-0.8125 0.98438-0.44922 0.71484-0.84766 0.68359-0.76953-0.078125-1.0156 0.76172-0.75 0.10938 0.18359" fill="none" stroke="#fff" stroke-linecap="round" stroke-linejoin="round" stroke-miterlimit="10" stroke-width="2"/>
<path d="m188.94-0.21094 0.14453 0.097657 0.84375 0.79297 0.98438 0.60156 1.0625 0.12891 0.71875 0.8125 0.59375 0.85156 0.61719 0.875 1.0508-0.37891 1.0703-0.20703 0.97656 0.60938 0.78516 0.67969 0.97266 0.73438 0.94531 0.67578 0.53125 1.0234 0.11328 1.0234 0.10156 1.0742 0.48047 0.95703-0.58984 1.1367-0.26562 1.0898-0.40234 1.0117 0.33203 1.1055-0.56641 1.0312-0.74609 1.0039-0.62109 0.8125 0.28516 1.0508-0.25391 1.2344-0.03125 1.1914-0.23438 1.1055 0.12109 1.043 0.33984 1.0391-0.51172 0.92578-0.33984 1.0586 0.15625 1.0703 0.011718 1.1641 0.49609 0.90625-0.42969 1.0586-0.51953 0.98438-0.27734 1.0859 0.46484 0.96484 0.32422 1.0156 0.78516 0.67188 0.66406 0.85938 0.050781 1.1133 0.64062 0.80469 0.35938 1.1172-0.11719 1.1562 0.74609 0.78516 0.33203 0.98438 0.10938 1.0938 0.60547 0.875 0.29688 0.98828 0.91406 0.51562 0.25 1.1602-0.21094 1.0469 0.21484 1.0234 0.73828 0.77344-0.51172 1.4922-0.046875 1.2188 0.082031 1.0273 0.91016 0.82031-0.28125 1.0547 0.015625 1.0117-0.10938 1.0039 0.63281 0.80078-0.085938 1.0703 0.03125 1.2812 0.70312 1.0938 0.92969 0.71875 0.38672 0.92188 0.69531 0.84375 1.082 0.61719 0.17188 1.0078 0.90625 0.51172 1 0.32812 0.76562 1.0977 0.60938 0.8125 0.66797 0.95312 0.88281 0.64062 0.54688 1.1523 0.25781 1.0898-0.58984 1.1211-0.48828 0.98438-0.082031 1.1328 0.38281 0.99219 0.082031 1.1328-0.35547 1.0078 0.085937 1.2109 0.44141 0.99609 0.50391 0.86719 0.6875 0.75391-0.36719 1.043 0.55078 0.97656 0.22656 1.0508 0.33594 0.95312 0.48047 0.91406-0.03125 1.1367-0.011719 1.1914 0.16016 1.2812 0.66797 0.875 0.6875 0.76562 0.875 0.75 0.81641 0.58203 0.32422 1.4297 0.26172 1.082 0.52344 0.91797 1.25 1.7891 1.1797 0.96484 1.2344 0.83984 1.4961 1.3047 2.0508 0.60547 1.1016 0.21094 1.1445 0.015625 1.0664-0.55469 0.84375-0.83594 1.0117-0.57812 0.0625 1.3359 0.12891 1.4883-0.066406 1.2109-0.67578 1.3438-0.47656 2.2188-0.21484 1.875 0.019532 2.457 0.26172 1.25 1.0508 2.9688 0.33594 0.94922 0.28906 1.0938-0.003907 1.2031-0.50781 2.582-0.44922 1.4844-0.058594 1.9844 0.22656 1.3438 0.99609 5.9883 0.15625 1.5664 0.019531 1.2305-1.0312 3.1797-1.2109 1.8477-0.87891 1.4258-0.56641 1.1602-0.61719 0.88672-0.13281 1.0859-0.26562 2.0117-0.52734 1.3047-0.11719 4.1484-0.23828 1.3555-0.25391 2.0273-0.058594 1.1562 0.097657 1.3086 0.32812 1.4805 0.78906 1.9883 1.3086 2.2461 0.71094 2.168 0.41406 1.8242 0.23047 1.4375 0.36328 4.543 0.46875 1.3828-0.32031 1.5898 0.12891 1.9531 0.17969 1.8047-1.0273 0.80078-0.48047 1.1133 0.37891 1.0195-0.20312 1.0938 0.32422 1.1367-0.55859 0.83203-1.2695 0.53516-1.1328 0.53516-0.82812 0.63672-0.97656-0.88672-0.96094-0.92969-1.1758-0.69141-1.2539 0.082031-1.0117 0.32422-1.3828 0.42188-0.96094 0.45312-0.9375 0.53906-0.57031 0.85547-0.82031 0.78516-0.83984 0.73047-0.87891 0.63281-0.67578 1.0625-0.39844 0.96484 0.23828 1.0469 0.37109 1.0977 0.19531 1.0664-0.16797 1.3438-0.47656 0.98828-0.51172 0.875-0.53516 1.0039-0.13281 1.1562 0.39062 0.97656 0.046875 1.2773-0.47656 0.96484-0.48828 1.0078-0.71484 1.1445-0.48828 1.1875-0.77734 0.67969-0.33984 1.1641 0.125 1.6016 0.77344 0.79297 0.035156 1.1484 0.90625 0.46094 0.70703 1.1641 0.47266 0.92578 0.78125 0.81641 0.11328 1.0078 0.066406 1.1211 0.4375 1.1484-0.19531 1.3906-0.38672 0.93359 1.082 1.2266 0.98047-0.21094 1.3008-0.10156 1.1641-0.074219 1.2695 0.082031 0.71484 0.97266 0.28906 1.2617 0.55078 1.2617 0.92578 1.1562 1.2422 1.1328 0.73828 1.3672 0.87109 1.1055 0.76562 0.83984 0.90234 0.44922 1.1094 0.76562 0.6875 0.78906 1.3477 0.76172 1.0312 0.87109 1.2461 0.52734 1.1367 0.63281 1.2969 0.81641 1.2188 0.003906 1.4297-0.41797 1.2461-0.73438 1.4844-0.23047 1.1641 0.21094 1.0586 0.44922 1.0586 0.47266 1.4297 0.79297 1.082 1.0273 0.63281 0.80859 0.55859 1.0039 0.47266 1.3164 0.28906 1.3906 0.39453 1.2617 0.92578 0.89453 0.81641 1.0508 0.31641 1.3164 1.0078 0.23828 1.7734 0.10938 1.1914 0.57812 1.5898 0.47656 1.3203 0.84375 1.0586 0.47266 1.2188 0.55469 0.98047 0.34375 1.4805 0.29297 1.1953-0.52344 0.95312-0.41797 1.4297-0.078125 1.2461 0.47656 1.2188-0.078125 1.0312 0.003906 1.0078-0.15625 0.74219-0.94531 0.58594-0.99609 1.1914-0.55078 1.3789 0.63281 1.4023 0.47656 1.2422 0.55469 1.3242 0.23828 1.3008-0.26172 1.5625 0.16016 1.4844-0.20703 1.1094 0.34375 1.0078 0.027344 1.0078-0.46875 1.2461 0.37109 0.47266 1.0234-0.21484 0.99609 0.26953 1.0742-1.3164 0.29688-0.87109 1.1367-0.39844 1.3594 0.24609 1.3438 0.44922 0.97266 0.625 1.043-0.46484 1.25-0.20703 0.99609-0.48828 1.6484 0.14844 1.4297 0.60156 1.7383 0.41016 1.1992 0.054688 1.1641-0.011719 1.3672-0.32812 1.375-0.72266 1.3984 0.34375 1.1484-0.007813 1.293 0.21484 1.3789 0.082031 1.1406 0.19922 1.2422-0.21484 1.1211-0.38672 1.0898-0.50391 1.1211-0.5 1.1094-0.50391 1.0703-0.72266 0.73828-0.40234 1.0898-1.1484-0.64453-1.0273-0.046875-1.4453 0.41406-1.0273 0.53906-1.1211 0.24219-0.96094-0.41797-0.94531 0.40625-1.1758-0.09375-1.0391-0.20312-0.90625-0.46094-0.97656 0.94531-1.6758 0.26953-1.0273-0.14453-1.1094-0.17578-1.2266 0.039062-1.3789 0.054688-1.1797 0.085937-0.74219-0.89844-0.30469-1.3398-0.64062-0.83203-0.98047-0.47656-0.79297-0.78906-0.88672-0.625-1.1133-0.72656-1.0039-0.33594-0.29297-1.0273-0.71484-1.2539-0.59375-1.0273-1.0469-0.69141-0.30469-1.0273-0.62891-1.1797-1.2812-0.27734-1.0664-0.55859-0.92578-0.98438-1.1602-0.59375-1.1133-0.17969-1.2539-0.30859-1.0547 0.19141-1.2344 0.46094-1.0312 0.28516-1.0586 0.058594-1-0.11328-1.3008-0.066406-0.95312 0.39453-0.98828 0.28125-1.4141 0.23438-1.0039 0.074219-1.1758-0.085937-1.0195-0.27344-1.1914 0.125-1.0039 0.85938-1.2891 0.45703-1.2852-0.30078-1.168-0.15234-0.96875 0.42578-1.2266-0.10156-1.2031-0.22266-0.99219 0.32422-1.0547-0.375-1.1094-0.015625-1.1758 0.28906-1.0898-0.41016-1.0781-0.37109-1.2305-0.58203-0.99219-0.51562-1.125-0.14453-1.0703 0.21484-1.082 0.10938-1.0547 0.5-0.98828 0.57422-1.0547-0.42188-1.0703-0.48828-1.0469 0.058594-1.2461-0.49609-1.1992-0.015625-1.0469-0.085938-0.85156 0.58203-0.95312 0.66016-0.875 0.63672-0.70312-1.0664-0.70312-1.0117-0.94141-0.78906-0.76562-0.86719-0.75391-0.94141-0.90234-0.53906-1.4219 0.10156-0.98828 0.52344-0.5625 0.92578-1.0508 0.88281-1.0703 0.26562-1.0898 0.11328-1.125-0.019531-1.0039-0.68359-1.0898 0.23828-1.1211-0.21484-1.1094-0.25781-1.2344 0.097656-0.58203 0.97656 0.09375 1.0273-1.0391 0.36328-1.0273 0.042968-0.92969-0.54688-1.0352-0.53906-0.68359-0.73828-1.0742-0.44141-1.4141-0.10156-0.95703-0.48047-0.50391-1.0234-1.1406-0.24219-1.1992 0.082031-1.2969-0.03125-1.0586-0.09375-1.2773 0.13281-1.0742 0.10938-1.2812 0.51562-0.85547-0.53906-0.94141-0.57031-0.94922-0.73047-1.0195-0.37891-1.0664 0.16016-1.0547-0.20703-1.1445-0.3125-1.6328-0.58203-0.73438-1.2188-0.50781-0.875-0.12109-1.0039 0.48828-1.043-0.5-1.0273 0.0625-1.043-0.1875-1.1055 0.48828-1.2109 0.54297-1.0234 0.75391-0.77344 0.24219-1.332 0.011719-1.2266 0.41016-1.2109 0.26953-1.7305 0.074218-1.3477 0.80859-1.9492 0.51953-1.3008 0.078125-1.0312-0.13672-1.0703-0.015625-1.1016-0.87109-0.67969-0.64062-0.85938 0.83203-0.69531 0.54297-0.92969 0.77344-0.70703 0.84766-0.78906 0.80469-1.0273 0.28125-1.1953-0.52344-1.0156-0.66797-0.96094-0.82422-0.71094-0.71484-0.88672-0.36328-1.1328-0.33984-0.94922-0.48047-0.89453-0.94141-0.85156-0.42188-1.0312-0.53516-1.1211-0.42969-1.2109-1.0625 0.16406-0.99609 0.39453-0.8125 0.61328-0.96484 0.6875-0.85938 0.58594-1.0898-0.070313-0.53516-1.2539-0.51562-1.0273-0.51562-0.95703-0.6875-1.1289-0.30078-1.1445v-1.0312l0.046875-1.2227 0.074219-1.1211-1.4531-0.16406-1.6328-0.35156-0.69531-0.79688-0.65625-0.75781 0.29297-1.6172 0.13672-1.3555 0.54297-0.88672 0.45312-1.0273-0.46875-1.043-0.79297-0.86719-0.37109-1.4219-0.36719-1-0.94531-0.83594-0.98438-0.70703-0.67969-0.85547-0.82422-0.67969-1.5273-0.92188-0.98438-0.45312-0.98047-0.4375-0.76562-0.82422-0.33594-1.0977-0.37109-1.0117-0.58203-0.96094 0.085938-1.0117 0.14844-1.1367 0.85547-0.73828 0.875-0.89062 0.67969-0.83594 0.42969-1.0938-0.27734-1.0234-0.75-0.86719-1.3867-1.3672-0.89062-0.96094-1.1172-0.35156-0.90234-0.69141-0.53516-0.90234-0.83203-0.71484 0.066406-1.0469 0.84375-0.92188 1.0859-0.35938 0.96875-0.26562 1.3008-0.85547 0.84766-0.76562 0.94531-0.83203 1.0586 0.019531 1.4219 0.046875 1.1602-0.27734 1.1836-0.29688 1.0586 0.03125 1.1016 0.097656 1.4727-0.42188 1.0469-0.32031 1.1953-0.21094 1.043-0.070313 1.2188 0.24219 1.0625-0.12109 1.1719-0.47656 1.3398 0.21484h1.0391l1.3242 0.16406 1.1367 0.26953 2.4258 0.23047 1.1172 0.050781 0.91406 0.66797 0.72266 1.0312 0.13672 1.0039 0.41406 1.2148 0.66406 1.1211 1.0547 0.60547 1.0586 0.29297 0.99219 0.66406 1.418 0.15625 1.0078 0.25781 0.94922 0.51172 1.0742 0.32422 1.0859 0.66016 0.89062 0.71875 1.5898 0.33203 0.99219 0.79688 0.72656 0.74609 0.99219 0.70703 1.0195 0.28516 0.92188 0.41406 0.87109 0.61719 0.59766 1.2227 0.54297 1.1016 0.67969 0.80078 0.77344 1 1.3242 0.066407 1.0391-0.33203 0.91016-1.0117 1.1406-1.3125 0.84375-1.1797 1.4062-0.51172 1.418-0.066406 1.0352 0.28516 0.89453-0.49609 1.2305-0.625 0.78906-0.76172 0.875-0.97656 0.44141-0.91797 0.21875-1.0039-0.12891-1.0469-0.22656-1.168-0.29688-1.0547-0.63281-0.875-0.082031-1.332-0.027344-1.0781-0.046875-1.1914-0.0625-1.1602-0.20312-1.2305-0.35156-1.1797-0.375-1.0664-0.5625-1.1562-0.49609-0.99219-0.84375-0.99219-0.80078-0.80859-0.60547-0.97656-0.10156-1.1328-0.30469-1.1094-0.16797-1.1289 0.078125-1.0312 0.375-1.0391 0.60547-1.0195 0.73828-1.1094 0.36328-0.99219-0.24609-1.1211-0.1875-1.1641-0.16406-1.082-0.31641-1.1836-0.10547-1.1406 0.35156-1.1016 0.33984-1.1289 0.10938-1.125-0.019531-1.2852-0.5-0.89453-0.73438-1.2305-0.64062-0.82031-0.24219-1.2891-0.32812-1.0273-1.125-0.44531-0.89453-0.73438-0.3125-0.96094-0.21875-1.0391-0.98828-0.67578-0.77734-0.79688-0.97266-0.31641-0.74219-0.98047-0.99219-0.75781-0.96484-0.91797-0.92188-1.1602-1.0312-1.2344-1.1172-0.93359-1.4453-1.1211-1.0742-1.1367-0.99219-0.97266-0.96484-0.67969-0.97266-0.53516-0.92188-0.42188-1.0469-0.25-0.57812-1.0469 0.71094-0.90625 0.32812-1.2617 0.28125-0.96484 0.55859-1.168 0.26562-1.332 0.94531-1.0938 1.168-0.88281 1.0469-0.87109 0.65234-0.79297-0.23828-1.3984-0.24219-1.0547 0.11328-1.1094 0.089844-1.3047-0.67578-1.0625-1.082-0.83594-0.92188-0.76172-0.58984-1.207-0.74219-1.0508-1-0.019531-0.89453-0.74609-0.45703-0.97266-0.22266-1.0781-0.63672-1.207-0.45312-1.0938-0.77344-0.82031-1.0508-0.1875-0.98047-0.96094-0.78906-1.0547-0.97656-0.98828-0.88672-0.84375-1.0703-1.0898-0.55859-0.94531 0.007812-1.2227 0.45703-1.25-0.57422-1.0664-0.96875-0.39453-0.94141-0.87109-1.082-0.57812-1.0586-0.30859-0.96094-0.4375-0.71484-0.80469-1.1914-0.57031-1.0469-0.57031-0.74219-0.75391-0.83203-1.0938-0.76172-1.0781-0.20703-1.293-0.39453-1.2578-0.59766-0.97266-0.93359-0.55859-0.87109-0.87109-0.82812-0.57812-0.50781-1.1797-1.043-0.6875-0.94531-0.81641-0.53516-0.85156-0.66406-0.80859-0.82422-1.1875-0.46875-1.3203-0.44141-0.96875-0.82422-0.93359 0.023438-1.2695 0.054687-1.5234 0.14062-1.2578-0.72656-1.3281-0.71875-0.84375-1.0664-0.48438-0.75391-1.0078-0.33203-1.2188-0.62109-0.875-0.23828-1.293 0.39062-1.2109-0.49219-1.1406-0.0625-1.2305-0.13281-1.0664-0.42578-1.1602-0.61328-0.99609v-1.0195l0.16406-1.0703-0.35938-1-1.1289-0.77734-1.1953-0.27344-0.82812-0.76562-0.44922-0.98828-0.58203-1.1289-0.71484-1.2031-0.76172-0.83594-1.0039-0.32031-0.86328-0.74219 0.58203-0.91406 0.17969-1.1055 0.69922-0.72656 0.50391-1.3711 1.1133-0.4375 1-0.38672 1.25-0.25 1.0859-0.47656 0.71484-0.75781 0.24219-1.1445-0.22266-0.98047 0.875-0.59766 0.77734-0.70703 0.64844-0.86328 0.97656-0.36328 1.2773-0.96875 0.85938-0.95703 1.1055-0.69531 0.96094-0.82812 2.8867-4.5039 1.2695-1.8789 0.71484-1.4648 1.0312-1.2773 1.6602-1.1484 0.79297-0.78125 0.60938-0.94141 0.47656-1.3828 0.58203-1.1211 0.6875-0.78516 1.875-1.668 1.2109-0.91406 1.1602-0.20703 1.3672-0.30859 1.082-0.67578 2.4531-0.72656 1.6055 0.082032 1.2891 0.60156 1.0938-0.09375 1.0586 0.36719 0.89453 0.57812 0.98438 0.46484 0.95312 0.37891 0.85547-0.70312 1.0938-0.48438 0.92578-0.76172 0.90234-0.54688 1.0156-0.58203 0.41797-1.0625 0.88281-0.54688 0.66016-0.9375 0.38672-0.95312 0.62891-0.85547 0.82812-0.73047 0.625-0.90234 1.082-0.11328 0.90625-0.80469 0.78906-0.625 0.65234-0.83594 0.96094-0.38281 0.75391-0.66016 0.19141-1.1055 1.1406-0.53906 0.6875-0.91406 0.94922-0.54297 1.0547-0.14844 0.92188-0.78906z" fill="#ccc" fill-rule="evenodd"/>
<path d="m188.94-0.21094 0.14453 0.097657 0.84375 0.79297 0.98438 0.60156 1.0625 0.12891 0.71875 0.8125 0.59375 0.85156 0.61719 0.875 1.0508-0.37891 1.0703-0.20703 0.97656 0.60938 0.78516 0.67969 0.97266 0.73438 0.94531 0.67578 0.53125 1.0234 0.11328 1.0234 0.10156 1.0742 0.48047 0.95703-0.58984 1.1367-0.26562 1.0898-0.40234 1.0117 0.33203 1.1055-0.56641 1.0312-0.74609 1.0039-0.62109 0.8125 0.28516 1.0508-0.25391 1.2344-0.03125 1.1914-0.23438 1.1055 0.12109 1.043 0.33984 1.0391-0.51172 0.92578-0.33984 1.0586 0.15625 1.0703 0.011718 1.1641 0.49609 0.90625-0.42969 1.0586-0.51953 0.98438-0.27734 1.0859 0.46484 0.96484 0.32422 1.0156 0.78516 0.67188 0.66406 0.85938 0.050781 1.1133 0.64062 0.80469 0.35938 1.1172-0.11719 1.1562 0.74609 0.78516 0.33203 0.98438 0.10938 1.0938 0.60547 0.875 0.29688 0.98828 0.91406 0.51562 0.25 1.1602-0.21094 1.0469 0.21484 1.0234 0.73828 0.77344-0.51172 1.4922-0.046875 1.2188 0.082031 1.0273 0.91016 0.82031-0.28125 1.0547 0.015625 1.0117-0.10938 1.0039 0.63281 0.80078-0.085938 1.0703 0.03125 1.2812 0.70312 1.0938 0.92969 0.71875 0.38672 0.92188 0.69531 0.84375 1.082 0.61719 0.17188 1.0078 0.90625 0.51172 1 0.32812 0.76562 1.0977 0.60938 0.8125 0.66797 0.95312 0.88281 0.64062 0.54688 1.1523 0.25781 1.0898-0.58984 1.1211-0.48828 0.98438-0.082031 1.1328 0.38281 0.99219 0.082031 1.1328-0.35547 1.0078 0.085937 1.2109 0.44141 0.99609 0.50391 0.86719 0.6875 0.75391-0.36719 1.043 0.55078 0.97656 0.22656 1.0508 0.33594 0.95312 0.48047 0.91406-0.03125 1.1367-0.011719 1.1914 0.16016 1.2812 0.66797 0.875 0.6875 0.76562 0.875 0.75 0.81641 0.58203 0.32422 1.4297 0.26172 1.082 0.52344 0.91797 1.25 1.7891 1.1797 0.96484 1.2344 0.83984 1.4961 1.3047 2.0508 0.60547 1.1016 0.21094 1.1445 0.015625 1.0664-0.55469 0.84375-0.83594 1.0117-0.57812 0.0625 1.3359 0.12891 1.4883-0.066406 1.2109-0.67578 1.3438-0.47656 2.2188-0.21484 1.875 0.019532 2.457 0.26172 1.25 1.0508 2.9688 0.33594 0.94922 0.28906 1.0938-0.003907 1.2031-0.50781 2.582-0.44922 1.4844-0.058594 1.9844 0.22656 1.3438 0.99609 5.9883 0.15625 1.5664 0.019531 1.2305-1.0312 3.1797-1.2109 1.8477-0.87891 1.4258-0.56641 1.1602-0.61719 0.88672-0.13281 1.0859-0.26562 2.0117-0.52734 1.3047-0.11719 4.1484-0.23828 1.3555-0.25391 2.0273-0.058594 1.1562 0.097657 1.3086 0.32812 1.4805 0.78906 1.9883 1.3086 2.2461 0.71094 2.168 0.41406 1.8242 0.23047 1.4375 0.36328 4.543 0.46875 1.3828-0.32031 1.5898 0.12891 1.9531 0.17969 1.8047-1.0273 0.80078-0.48047 1.1133 0.37891 1.0195-0.20312 1.0938 0.32422 1.1367-0.55859 0.83203-1.2695 0.53516-1.1328 0.53516-0.82812 0.63672-0.97656-0.88672-0.96094-0.92969-1.1758-0.69141-1.2539 0.082031-1.0117 0.32422-1.3828 0.42188-0.96094 0.45312-0.9375 0.53906-0.57031 0.85547-0.82031 0.78516-0.83984 0.73047-0.87891 0.63281-0.67578 1.0625-0.39844 0.96484 0.23828 1.0469 0.37109 1.0977 0.19531 1.0664-0.16797 1.3438-0.47656 0.98828-0.51172 0.875-0.53516 1.0039-0.13281 1.1562 0.39062 0.97656 0.046875 1.2773-0.47656 0.96484-0.48828 1.0078-0.71484 1.1445-0.48828 1.1875-0.77734 0.67969-0.33984 1.1641 0.125 1.6016 0.77344 0.79297 0.035156 1.1484 0.90625 0.46094 0.70703 1.1641 0.47266 0.92578 0.78125 0.81641 0.11328 1.0078 0.066406 1.1211 0.4375 1.1484-0.19531 1.3906-0.38672 0.93359 1.082 1.2266 0.98047-0.21094 1.3008-0.10156 1.1641-0.074219 1.2695 0.082031 0.71484 0.97266 0.28906 1.2617 0.55078 1.2617 0.92578 1.1562 1.2422 1.1328 0.73828 1.3672 0.87109 1.1055 0.76562 0.83984 0.90234 0.44922 1.1094 0.76562 0.6875 0.78906 1.3477 0.76172 1.0312 0.87109 1.2461 0.52734 1.1367 0.63281 1.2969 0.81641 1.2188 0.003906 1.4297-0.41797 1.2461-0.73438 1.4844-0.23047 1.1641 0.21094 1.0586 0.44922 1.0586 0.47266 1.4297 0.79297 1.082 1.0273 0.63281 0.80859 0.55859 1.0039 0.47266 1.3164 0.28906 1.3906 0.39453 1.2617 0.92578 0.89453 0.81641 1.0508 0.31641 1.3164 1.0078 0.23828 1.7734 0.10938 1.1914 0.57812 1.5898 0.47656 1.3203 0.84375 1.0586 0.47266 1.2188 0.55469 0.98047 0.34375 1.4805 0.29297 1.1953-0.52344 0.95312-0.41797 1.4297-0.078125 1.2461 0.47656 1.2188-0.078125 1.0312 0.003906 1.0078-0.15625 0.74219-0.94531 0.58594-0.99609 1.1914-0.55078 1.3789 0.63281 1.4023 0.47656 1.2422 0.55469 1.3242 0.23828 1.3008-0.26172 1.5625 0.16016 1.4844-0.20703 1.1094 0.34375 1.0078 0.027344 1.0078-0.46875 1.2461 0.37109 0.47266 1.0234-0.21484 0.99609 0.26953 1.0742-1.3164 0.29688-0.87109 1.1367-0.39844 1.3594 0.24609 1.3438 0.44922 0.97266 0.625 1.043-0.46484 1.25-0.20703 0.99609-0.48828 1.6484 0.14844 1.4297 0.60156 1.7383 0.41016 1.1992 0.054688 1.1641-0.011719 1.3672-0.32812 1.375-0.72266 1.3984 0.34375 1.1484-0.007813 1.293 0.21484 1.3789 0.082031 1.1406 0.19922 1.2422-0.21484 1.1211-0.38672 1.0898-0.50391 1.1211-0.5 1.1094-0.50391 1.0703-0.72266 0.73828-0.40234 1.0898-1.1484-0.64453-1.0273-0.046875-1.4453 0.41406-1.0273 0.53906-1.1211 0.24219-0.96094-0.41797-0.94531 0.40625-1.1758-0.09375-1.0391-0.20312-0.90625-0.46094-0.97656 0.94531-1.6758 0.26953-1.0273-0.14453-1.1094-0.17578-1.2266 0.039062-1.3789 0.054688-1.1797 0.085937-0.74219-0.89844-0.30469-1.3398-0.64062-0.83203-0.98047-0.47656-0.79297-0.78906-0.88672-0.625-1.1133-0.72656-1.0039-0.33594-0.29297-1.0273-0.71484-1.2539-0.59375-1.0273-1.0469-0.69141-0.30469-1.0273-0.62891-1.1797-1.2812-0.27734-1.0664-0.55859-0.92578-0.98438-1.1602-0.59375-1.1133-0.17969-1.2539-0.30859-1.0547 0.19141-1.2344 0.46094-1.0312 0.28516-1.0586 0.058594-1-0.11328-1.3008-0.066406-0.95312 0.39453-0.98828 0.28125-1.4141 0.23438-1.0039 0.074219-1.1758-0.085937-1.0195-0.27344-1.1914 0.125-1.0039 0.85938-1.2891 0.45703-1.2852-0.30078-1.168-0.15234-0.96875 0.42578-1.2266-0.10156-1.2031-0.22266-0.99219 0.32422-1.0547-0.375-1.1094-0.015625-1.1758 0.28906-1.0898-0.41016-1.0781-0.37109-1.2305-0.58203-0.99219-0.51562-1.125-0.14453-1.0703 0.21484-1.082 0.10938-1.0547 0.5-0.98828 0.57422-1.0547-0.42188-1.0703-0.48828-1.0469 0.058594-1.2461-0.49609-1.1992-0.015625-1.0469-0.085938-0.85156 0.58203-0.95312 0.66016-0.875 0.63672-0.70312-1.0664-0.70312-1.0117-0.94141-0.78906-0.76562-0.86719-0.75391-0.94141-0.90234-0.53906-1.4219 0.10156-0.98828 0.52344-0.5625 0.92578-1.0508 0.88281-1.0703 0.26562-1.0898 0.11328-1.125-0.019531-1.0039-0.68359-1.0898 0.23828-1.1211-0.21484-1.1094-0.25781-1.2344 0.097656-0.58203 0.97656 0.09375 1.0273-1.0391 0.36328-1.0273 0.042968-0.92969-0.54688-1.0352-0.53906-0.68359-0.73828-1.0742-0.44141-1.4141-0.10156-0.95703-0.48047-0.50391-1.0234-1.1406-0.24219-1.1992 0.082031-1.2969-0.03125-1.0586-0.09375-1.2773 0.13281-1.0742 0.10938-1.2812 0.51562-0.85547-0.53906-0.94141-0.57031-0.94922-0.73047-1.0195-0.37891-1.0664 0.16016-1.0547-0.20703-1.1445-0.3125-1.6328-0.58203-0.73438-1.2188-0.50781-0.875-0.12109-1.0039 0.48828-1.043-0.5-1.0273 0.0625-1.043-0.1875-1.1055 0.48828-1.2109 0.54297-1.0234 0.75391-0.77344 0.24219-1.332 0.011719-1.2266 0.41016-1.2109 0.26953-1.7305 0.074218-1.3477 0.80859-1.9492 0.51953-1.3008 0.078125-1.0312-0.13672-1.0703-0.015625-1.1016-0.87109-0.67969-0.64062-0.85938 0.83203-0.69531 0.54297-0.92969 0.77344-0.70703 0.84766-0.78906 0.80469-1.0273 0.28125-1.1953-0.52344-1.0156-0.66797-0.96094-0.82422-0.71094-0.71484-0.88672-0.36328-1.1328-0.33984-0.94922-0.48047-0.89453-0.94141-0.85156-0.42188-1.0312-0.53516-1.1211-0.42969-1.2109-1.0625 0.16406-0.99609 0.39453-0.8125 0.61328-0.96484 0.6875-0.85938 0.58594-1.0898-0.070313-0.53516-1.2539-0.51562-1.0273-0.51562-0.95703-0.6875-1.1289-0.30078-1.1445v-1.0312l0.046875-1.2227 0.074219-1.1211-1.4531-0.16406-1.6328-0.35156-0.69531-0.79688-0.65625-0.75781 0.29297-1.6172 0.13672-1.3555 0.54297-0.88672 0.45312-1.0273-0.46875-1.043-0.79297-0.86719-0.37109-1.4219-0.36719-1-0.94531-0.83594-0.98438-0.70703-0.67969-0.85547-0.82422-0.67969-1.5273-0.92188-0.98438-0.45312-0.98047-0.4375-0.76562-0.82422-0.33594-1.0977-0.37109-1.0117-0.58203-0.96094 0.085938-1.0117 0.14844-1.1367 0.85547-0.73828 0.875-0.89062 0.67969-0.83594 0.42969-1.0938-0.27734-1.0234-0.75-0.86719-1.3867-1.3672-0.89062-0.96094-1.1172-0.35156-0.90234-0.69141-0.53516-0.90234-0.83203-0.71484 0.066406-1.0469 0.84375-0.92188 1.0859-0.35938 0.96875-0.26562 1.3008-0.85547 0.84766-0.76562 0.94531-0.83203 1.0586 0.019531 1.4219 0.046875 1.1602-0.27734 1.1836-0.29688 1.0586 0.03125 1.1016 0.097656 1.4727-0.42188 1.0469-0.32031 1.1953-0.21094 1.043-0.070313 1.2188 0.24219 1.0625-0.12109 1.1719-0.47656 1.3398 0.21484h1.0391l1.3242 0.16406 1.1367 0.26953 2.4258 0.23047 1.1172 0.050781 0.91406 0.66797 0.72266 1.0312 0.13672 1.0039 0.41406 1.2148 0.66406 1.1211 1.0547 0.60547 1.0586 0.29297 0.99219 0.66406 1.418 0.15625 1.0078 0.25781 0.94922 0.51172 1.0742 0.32422 1.0859 0.66016 0.89062 0.71875 1.5898 0.33203 0.99219 0.79688 0.72656 0.74609 0.99219 0.70703 1.0195 0.28516 0.92188 0.41406 0.87109 0.61719 0.59766 1.2227 0.54297 1.1016 0.67969 0.80078 0.77344 1 1.3242 0.066407 1.0391-0.33203 0.91016-1.0117 1.1406-1.3125 0.84375-1.1797 1.4062-0.51172 1.418-0.066406 1.0352 0.28516 0.89453-0.49609 1.2305-0.625 0.78906-0.76172 0.875-0.97656 0.44141-0.91797 0.21875-1.0039-0.12891-1.0469-0.22656-1.168-0.29688-1.0547-0.63281-0.875-0.082031-1.332-0.027344-1.0781-0.046875-1.1914-0.0625-1.1602-0.20312-1.2305-0.35156-1.1797-0.375-1.0664-0.5625-1.1562-0.49609-0.99219-0.84375-0.99219-0.80078-0.80859-0.60547-0.97656-0.10156-1.1328-0.30469-1.1094-0.16797-1.1289 0.078125-1.0312 0.375-1.0391 0.60547-1.0195 0.73828-1.1094 0.36328-0.99219-0.24609-1.1211-0.1875-1.1641-0.16406-1.082-0.31641-1.1836-0.10547-1.1406 0.35156-1.1016 0.33984-1.1289 0.10938-1.125-0.019531-1.2852-0.5-0.89453-0.73438-1.2305-0.64062-0.82031-0.24219-1.2891-0.32812-1.0273-1.125-0.44531-0.89453-0.73438-0.3125-0.96094-0.21875-1.0391-0.98828-0.67578-0.77734-0.79688-0.97266-0.31641-0.74219-0.98047-0.99219-0.75781-0.96484-0.91797-0.92188-1.1602-1.0312-1.2344-1.1172-0.93359-1.4453-1.1211-1.0742-1.1367-0.99219-0.97266-0.96484-0.67969-0.97266-0.53516-0.92188-0.42188-1.0469-0.25-0.57812-1.0469 0.71094-0.90625 0.32812-1.2617 0.28125-0.96484 0.55859-1.168 0.26562-1.332 0.94531-1.0938 1.168-0.88281 1.0469-0.87109 0.65234-0.79297-0.23828-1.3984-0.24219-1.0547 0.11328-1.1094 0.089844-1.3047-0.67578-1.0625-1.082-0.83594-0.92188-0.76172-0.58984-1.207-0.74219-1.0508-1-0.019531-0.89453-0.74609-0.45703-0.97266-0.22266-1.0781-0.63672-1.207-0.45312-1.0938-0.77344-0.82031-1.0508-0.1875-0.98047-0.96094-0.78906-1.0547-0.97656-0.98828-0.88672-0.84375-1.0703-1.0898-0.55859-0.94531 0.007812-1.2227 0.45703-1.25-0.57422-1.0664-0.96875-0.39453-0.94141-0.87109-1.082-0.57812-1.0586-0.30859-0.96094-0.4375-0.71484-0.80469-1.1914-0.57031-1.0469-0.57031-0.74219-0.75391-0.83203-1.0938-0.76172-1.0781-0.20703-1.293-0.39453-1.2578-0.59766-0.97266-0.93359-0.55859-0.87109-0.87109-0.82812-0.57812-0.50781-1.1797-1.043-0.6875-0.94531-0.81641-0.53516-0.85156-0.66406-0.80859-0.82422-1.1875-0.46875-1.3203-0.44141-0.96875-0.82422-0.93359 0.023438-1.2695 0.054687-1.5234 0.14062-1.2578-0.72656-1.3281-0.71875-0.84375-1.0664-0.48438-0.75391-1.0078-0.33203-1.2188-0.62109-0.875-0.23828-1.293 0.39062-1.2109-0.49219-1.1406-0.0625-1.2305-0.13281-1.0664-0.42578-1.1602-0.61328-0.99609v-1.0195l0.16406-1.0703-0.35938-1-1.1289-0.77734-1.1953-0.27344-0.82812-0.76562-0.44922-0.98828-0.58203-1.1289-0.71484-1.2031-0.76172-0.83594-1.0039-0.32031-0.86328-0.74219 0.58203-0.91406 0.17969-1.1055 0.69922-0.72656 0.50391-1.3711 1.1133-0.4375 1-0.38672 1.25-0.25 1.0859-0.47656 0.71484-0.75781 0.24219-1.1445-0.22266-0.98047 0.875-0.59766 0.77734-0.70703 0.64844-0.86328 0.97656-0.36328 1.2773-0.96875 0.85938-0.95703 1.1055-0.69531 0.96094-0.82812 2.8867-4.5039 1.2695-1.8789 0.71484-1.4648 1.0312-1.2773 1.6602-1.1484 0.79297-0.78125 0.60938-0.94141 0.47656-1.3828 0.58203-1.1211 0.6875-0.78516 1.875-1.668 1.2109-0.91406 1.1602-0.20703 1.3672-0.30859 1.082-0.67578 2.4531-0.72656 1.6055 0.082032 1.2891 0.60156 1.0938-0.09375 1.0586 0.36719 0.89453 0.57812 0.98438 0.46484 0.95312 0.37891 0.85547-0.70312 1.0938-0.48438 0.92578-0.76172 0.90234-0.54688 1.0156-0.58203 0.41797-1.0625 0.88281-0.54688 0.66016-0.9375 0.38672-0.95312 0.62891-0.85547 0.82812-0.73047 0.625-0.90234 1.082-0.11328 0.90625-0.80469 0.78906-0.625 0.65234-0.83594 0.96094-0.38281 0.75391-0.66016 0.19141-1.1055 1.1406-0.53906 0.6875-0.91406 0.94922-0.54297 1.0547-0.14844 0.92188-0.78906 0.21094 0.058593" fill="none" stroke="#fff" stroke-linecap="round" stroke-linejoin="round" stroke-miterlimit="10" stroke-width="2"/>
<path d="m82.105 232.34 0.67578 0.015625 1.0078 0.49609 1.1055 0.82422 0.90625 0.64062 0.82422 1.0586 0.13281 1.0078 0.015625 1.25 0.22266 1.0352 2.1328 1.2695 1.2109 0.054688 1.3672 0.37109 1.082-0.44141 0.60938-0.9375 0.53125-1.1484 0.38672-1.1484 0.019532-1.1172 0.73438-0.96875 0.78125 0.81641 0.86328 0.65625 0.72266 1.0859 0.74219 1.2109 0.82422 0.91016 0.22656 1.0664-0.24609 1.5117-0.17188 1.4102 0.17188 1.1875 0.47266 1.0586 0.48047 1.0117 0.015625 1.2734-0.085937 1.043 0.32422 1.0547 0.62891 1.2578 1.3594 0.22656 0.97656 0.51562 1.0469-0.46484 0.875 0.51562 1.2578 2.0898 1.1797 0.96875 0.62891 1.5391 0.83984 1.2344 0.8125 0.75781 1.4727 0.78516 1.0156 0.19922 1.3477 0.77734 1.0273 0.37109 0.26953 0.97656 0.30469 1.2148 1.0625 0.96094 0.45312 1.1016-0.14844 1.207 0.28516 1.4844-0.23438 1.1836-0.23828 1.4141-0.30469 1.0781-0.32031 1.2344-0.75781 1.2305-0.57422 1.125-1.1602 1.3047-0.89844 0.56641-0.79297 1.4219-1.0977 0.82422-0.19922 1.0117-0.35156 1.2305-0.72656 0.71094-0.69141 1.0117-1.3477 0.37109-0.94531 0.53906-0.035156 1.0938 0.035156 1.1289-0.42188 1.418-0.40234 1.0781-0.44141 0.94531 0.50781 1.0625-1.3008 0.82812-1.0273 0.25h-1.1133l-0.77344 0.79297-0.17188 1.0781-0.40234 0.96484-0.28906 1.1602 0.023438 1.1875-0.45312 0.98828-0.26562 1.1523-1.2617 0.042968-1.6875-0.050781-1.5742-0.52734-1.375-0.39062-1.4492-0.007812-1.2305-0.26953-0.84375-0.53906-0.92578-0.79297-1.0117-0.875-0.55859-0.87891-1.0938-0.11719-0.91016 0.58984-0.42188 0.91016-0.82812 0.94531-0.80859 1.3984-0.58984 1.6719-0.18359 1.0273-0.30469 1.0117 0.30469 1.332 1.0273 0.85938 0.94531 0.71094-0.39062 1.1133-0.47266 0.90625-0.023438 1.0391-1.582 1.6133-0.82031 0.60547-1.1484 0.21875-1.2617-0.21875-1.0977 0.28516v1.3477l0.54688 1.7422 0.78516 1.1602 0.64062 0.96094-0.48828 1.0625-0.45703 1.0781-0.13281 1.1797-0.42188 1.0469-1.4492-0.20312-1.4492-0.74219-1.1836-0.42188-1.1289-0.4375-1.2188 0.69141-0.96875 0.53516-1.0547 0.35156-0.78125-1.1953-0.20703-0.98828 0.054687-1.1602-0.83594-0.83203-1.2266-0.10156-1.1445-0.42578-1.0781-0.80859-1.3555-0.97266-1.0234-0.87891-1.2695-0.27344-1.1367-0.12109-1.5078-0.53516-1.1523-0.55859-1.3008-0.74609-0.92578-0.55469-1.8984 0.21094-1.082 0.066406-1.043 0.16797-1.1133 0.22266-1.3945 0.48438-1.3008-0.84766-0.98047-1.0469-0.55859-1.0859 0.20703-1.3359 0.83594-1.2422 0.79297-1 0.41406-0.94531 0.60156-1.0273 0.74609-1.6367-0.027344-1.4141-0.39453-1.5938-0.49609-0.96875-0.95312-1.4648-1.3672-0.58984-1.0664-0.90625-0.35938-1.2617 0.73438-0.72656 0.63672-0.87891 0.27734-1.0547-0.085938-1.7188 0.12109-1.1758 0.097656-1.5742-0.16016-1.2578-0.23438-1.1914-1.1992-0.75781-1.3281-0.54688-0.73047-1.2891-0.51562-0.90234-0.70312-0.83594-0.58594-1.0664-0.10156-1.1836 0.60156-1.0547 0.11328-1.0039-0.28906-1.0352-0.078125-1.125-0.41406-1.3281 1.043-0.85938 1.1602-0.85547 0.89062-0.65625 0.85156-0.6875 0.28125-1.082-0.55859-0.84766-0.60938-0.89844 0.87109-0.61719 0.90625-0.88672-0.39062-1.4492-0.019532-1.4453 0.17188-1.1016 0.57812-1.0078 0.84375-0.55469 1.3516-0.60938 1.0938-1.0977 0.52734-1.1406-0.19922-1.1367-0.1875-1.4336 0.097656-1.293 0.67578-1.6641 0.92969-0.53125 0.86719-0.91797 0.61328-0.95703 0.070312-1.207 1.0078-0.96484 1.0195-0.32422 1.543-0.48438 1.5586-0.054687 1.0234-0.17188 1.1797-0.046875 0.9375 0.35938 1.3711 0.33203 1.043 0.39844 1.6133 0.40234 1.043 0.11719 1.125-0.13672 1.3438 0.015625 1.0117 0.22656 1.0352 0.25391 1.2695-0.38672 0.97656-0.91797 1.3555-1.1758 0.92969-0.72266 0.91406-0.77734 0.79688-0.85938 0.34766-1.1836 0.83984-0.79688 1.1562-0.35547 1.2695-0.078125 0.64062-2.8828-0.097657-1.2266-0.16406-1.0391 0.050781-1.0391z" fill="#ccc" fill-rule="evenodd"/>
<path d="m82.105 232.34 0.67578 0.015625 1.0078 0.49609 1.1055 0.82422 0.90625 0.64062 0.82422 1.0586 0.13281 1.0078 0.015625 1.25 0.22266 1.0352 2.1328 1.2695 1.2109 0.054688 1.3672 0.37109 1.082-0.44141 0.60938-0.9375 0.53125-1.1484 0.38672-1.1484 0.019532-1.1172 0.73438-0.96875 0.78125 0.81641 0.86328 0.65625 0.72266 1.0859 0.74219 1.2109 0.82422 0.91016 0.22656 1.0664-0.24609 1.5117-0.17188 1.4102 0.17188 1.1875 0.47266 1.0586 0.48047 1.0117 0.015625 1.2734-0.085937 1.043 0.32422 1.0547 0.62891 1.2578 1.3594 0.22656 0.97656 0.51562 1.0469-0.46484 0.875 0.51562 1.2578 2.0898 1.1797 0.96875 0.62891 1.5391 0.83984 1.2344 0.8125 0.75781 1.4727 0.78516 1.0156 0.19922 1.3477 0.77734 1.0273 0.37109 0.26953 0.97656 0.30469 1.2148 1.0625 0.96094 0.45312 1.1016-0.14844 1.207 0.28516 1.4844-0.23438 1.1836-0.23828 1.4141-0.30469 1.0781-0.32031 1.2344-0.75781 1.2305-0.57422 1.125-1.1602 1.3047-0.89844 0.56641-0.79297 1.4219-1.0977 0.82422-0.19922 1.0117-0.35156 1.2305-0.72656 0.71094-0.69141 1.0117-1.3477 0.37109-0.94531 0.53906-0.035156 1.0938 0.035156 1.1289-0.42188 1.418-0.40234 1.0781-0.44141 0.94531 0.50781 1.0625-1.3008 0.82812-1.0273 0.25h-1.1133l-0.77344 0.79297-0.17188 1.0781-0.40234 0.96484-0.28906 1.1602 0.023438 1.1875-0.45312 0.98828-0.26562 1.1523-1.2617 0.042968-1.6875-0.050781-1.5742-0.52734-1.375-0.39062-1.4492-0.007812-1.2305-0.26953-0.84375-0.53906-0.92578-0.79297-1.0117-0.875-0.55859-0.87891-1.0938-0.11719-0.91016 0.58984-0.42188 0.91016-0.82812 0.94531-0.80859 1.3984-0.58984 1.6719-0.18359 1.0273-0.30469 1.0117 0.30469 1.332 1.0273 0.85938 0.94531 0.71094-0.39062 1.1133-0.47266 0.90625-0.023438 1.0391-1.582 1.6133-0.82031 0.60547-1.1484 0.21875-1.2617-0.21875-1.0977 0.28516v1.3477l0.54688 1.7422 0.78516 1.1602 0.64062 0.96094-0.48828 1.0625-0.45703 1.0781-0.13281 1.1797-0.42188 1.0469-1.4492-0.20312-1.4492-0.74219-1.1836-0.42188-1.1289-0.4375-1.2188 0.69141-0.96875 0.53516-1.0547 0.35156-0.78125-1.1953-0.20703-0.98828 0.054687-1.1602-0.83594-0.83203-1.2266-0.10156-1.1445-0.42578-1.0781-0.80859-1.3555-0.97266-1.0234-0.87891-1.2695-0.27344-1.1367-0.12109-1.5078-0.53516-1.1523-0.55859-1.3008-0.74609-0.92578-0.55469-1.8984 0.21094-1.082 0.066406-1.043 0.16797-1.1133 0.22266-1.3945 0.48438-1.3008-0.84766-0.98047-1.0469-0.55859-1.0859 0.20703-1.3359 0.83594-1.2422 0.79297-1 0.41406-0.94531 0.60156-1.0273 0.74609-1.6367-0.027344-1.4141-0.39453-1.5938-0.49609-0.96875-0.95312-1.4648-1.3672-0.58984-1.0664-0.90625-0.35938-1.2617 0.73438-0.72656 0.63672-0.87891 0.27734-1.0547-0.085938-1.7188 0.12109-1.1758 0.097656-1.5742-0.16016-1.2578-0.23438-1.1914-1.1992-0.75781-1.3281-0.54688-0.73047-1.2891-0.51562-0.90234-0.70312-0.83594-0.58594-1.0664-0.10156-1.1836 0.60156-1.0547 0.11328-1.0039-0.28906-1.0352-0.078125-1.125-0.41406-1.3281 1.043-0.85938 1.1602-0.85547 0.89062-0.65625 0.85156-0.6875 0.28125-1.082-0.55859-0.84766-0.60938-0.89844 0.87109-0.61719 0.90625-0.88672-0.39062-1.4492-0.019532-1.4453 0.17188-1.1016 0.57812-1.0078 0.84375-0.55469 1.3516-0.60938 1.0938-1.0977 0.52734-1.1406-0.19922-1.1367-0.1875-1.4336 0.097656-1.293 0.67578-1.6641 0.92969-0.53125 0.86719-0.91797 0.61328-0.95703 0.070312-1.207 1.0078-0.96484 1.0195-0.32422 1.543-0.48438 1.5586-0.054687 1.0234-0.17188 1.1797-0.046875 0.9375 0.35938 1.3711 0.33203 1.043 0.39844 1.6133 0.40234 1.043 0.11719 1.125-0.13672 1.3438 0.015625 1.0117 0.22656 1.0352 0.25391 1.2695-0.38672 0.97656-0.91797 1.3555-1.1758 0.92969-0.72266 0.91406-0.77734 0.79688-0.85938 0.34766-1.1836 0.83984-0.79688 1.1562-0.35547 1.2695-0.078125 0.64062-2.8828-0.097657-1.2266-0.16406-1.0391 0.050781-1.0391 1.1211-0.097656" fill="none" stroke="#fff" stroke-linecap="round" stroke-linejoin="round" stroke-miterlimit="10" stroke-width="2"/>
<path d="m130.41 188.18 0.003906 0.011718 0.67188 0.98438 0.62109 0.79688 0.75391 0.82422 1 0.21484 0.94531 0.77344 1.2539 1.3438 0.90625 0.88281 0.42969 0.92188 0.27344 1.0938-0.57812 0.94141-0.83203 0.58594-0.74609 0.89844-0.77344 0.83203-0.25 0.99609-0.92578 0.53516 0.11328 1.1016-0.58984 0.80859-0.71094 0.85938-1.0156 0.51953-0.85938 0.60938-0.48438 1.2266-0.66406 0.94141-0.36719 1.1289-0.42188 0.90625-0.87109 0.55859-0.92188 0.46484-0.90234 0.63281-0.86719 0.89844-0.94141 0.46094-0.375 1.1172-0.58203 0.82422-0.44922 0.94141-0.34766 0.94531-0.85547 0.66016-0.88281 1.0898-0.69531 0.78906-0.96094 0.64844-0.93359 0.60938-0.63672 0.97266-0.57031 0.89844-1.0781 0.39453-0.91406 0.59375-0.96094 0.51562-1.1445 0.058594-0.84766 0.57812-0.48047 0.90625-0.94922 0.875-0.97266 0.43359-1.1055 1.0898-1.0039 0.59375-1.1602 0.007813-0.94141 0.54297-1.1836-0.125-1.0547 0.34766-0.39062 0.97656-0.27734 1.0234 0.042969 1.0938-0.9375 0.51172-0.70703 0.85938-1.0312-0.40625-0.78906 0.65625-0.83203 0.70703-1.0586 0.44141-1.1992 0.30859-0.92969 0.80078-0.13672 1.418-0.39453 1.207-0.53125 1.1484-0.60938 0.9375-1.082 0.44141-1.3672-0.37109-1.2109-0.054688-1.5742-0.94141-0.67969-0.78906-0.13281-1.0195 0.046875-1.1523-0.42578-1.0391-1.4688-1.3203-1.1055-0.82422-1.0078-0.49609-1.1875-0.097656-0.69531 0.74219 0.16797 1.2031 0.12891 1.5391-0.51562 2.6562-1.0352 0.27344-1.2891 0.26562-1.0664 0.91797-0.34766 1.1836-0.79688 0.85938-0.91406 0.77734-0.92969 0.72266-1.0273 0.69922-1.0039 1.1602-1.4688 0.61328-1.1367-0.24609-1.0117-0.22656-1.0469 0.050781-1.4219 0.070313-1.043-0.11719-1.2656-0.21875-1.082-0.53125-1.0586-0.23047-1.0234-0.36719-1.7148-0.097656-1.0234 0.17188-1.1406-0.003907-1.793 0.51172-1.1875 0.35547-1.0078 0.96484-0.070312 1.207-0.61328 0.95703-0.86719 0.91797-0.92969 0.53125-0.32422-1.4023-0.72656-0.98828-1.0391-0.70312-0.91406-0.72656-0.54297-1.7266-0.625-1.1406 0.38672-1.2852 0.75781-0.69141 0.21094-1.0117 0.41797-0.97266 0.63281-1.082 0.53516-0.95312-0.17578-1.0352-0.015625-1 0.41406-1.3711 0.0625-1.1055-0.53906-1.1055-0.51172-1.3711-0.80469-1.2266-0.33594-1.0078-0.22656-1.1211 1.4727-0.32422 1.4102-0.72266 1.0352-0.375 1.2969 0.097656 1.2578-0.19141 0.9375 0.45703 1.1094 0.46875 1.2852 0.26562 1.25-0.21094 1.0781-0.48438 0.92969-0.88672 0.98047-0.69531 1.4258-0.38672 0.87109-0.70312 0.20703-1.0391 0.60156-1.3555-0.14844-1.1953 0.33203-1.3164 0.98828-1.0195 0.48047-0.94531 0.32031-1.1367 0.058594-1.2266-0.027344-1.0117 0.65625-1.0156 1.0508-0.94141 1.0742-0.30078 0.51562-0.90625 0.42969-0.99219 0.40234-1.3711 0.44141-1.1328 0.53516-0.89453 0.22266-1.0742 0.84766-1.7812 0.58984-1.0117 0.75-1.5117 0.71875-1.4922 0.42969-0.92578-0.03125-1.6914 1.0508-0.17578 1.9531 0.039063 1.2852 0.28125 0.92188 0.66406 0.89062 0.49219 1.1953-0.36328 1.0156 0.007813 1.0547-0.12891 1.3047-0.20703 1.4648 0.18359 1.1758 0.058594 1.25-0.28516 1.0156-0.11719 1.0039-0.09375 1.2344-0.089844 1.293-0.39453 1.2344-0.10547 1.2812-0.14453 1.0234-0.41406 1.6719-0.55469 1.207-0.007812 1.0391-0.43359 1.1875-0.15234 1.0977-0.16406 1.2773-0.16797 1.6992 0.019531 1.1484-0.24609 1.3906-0.03125 1.0938 0.35156 1.3125 0.10156 1.2969-0.027343 1.0039-0.066407 1.5078-0.24609 1.3125-0.21094 1.0117-0.25 1.0273-0.082031 0.99609-0.18359 1.1016-0.30469 1.3516-0.74609 1.0391-0.39453 1.1289-0.40625 0.97656-0.38281 1.1289-0.10156 1.0469-0.24609 1.0391-0.11328 1.1328-0.47656 0.59766-0.83594z" fill="#ccc" fill-rule="evenodd"/>
<path d="m130.41 188.18 0.003906 0.011718 0.67188 0.98438 0.62109 0.79688 0.75391 0.82422 1 0.21484 0.94531 0.77344 1.2539 1.3438 0.90625 0.88281 0.42969 0.92188 0.27344 1.0938-0.57812 0.94141-0.83203 0.58594-0.74609 0.89844-0.77344 0.83203-0.25 0.99609-0.92578 0.53516 0.11328 1.1016-0.58984 0.80859-0.71094 0.85938-1.0156 0.51953-0.85938 0.60938-0.48438 1.2266-0.66406 0.94141-0.36719 1.1289-0.42188 0.90625-0.87109 0.55859-0.92188 0.46484-0.90234 0.63281-0.86719 0.89844-0.94141 0.46094-0.375 1.1172-0.58203 0.82422-0.44922 0.94141-0.34766 0.94531-0.85547 0.66016-0.88281 1.0898-0.69531 0.78906-0.96094 0.64844-0.93359 0.60938-0.63672 0.97266-0.57031 0.89844-1.0781 0.39453-0.91406 0.59375-0.96094 0.51562-1.1445 0.058594-0.84766 0.57812-0.48047 0.90625-0.94922 0.875-0.97266 0.43359-1.1055 1.0898-1.0039 0.59375-1.1602 0.007813-0.94141 0.54297-1.1836-0.125-1.0547 0.34766-0.39062 0.97656-0.27734 1.0234 0.042969 1.0938-0.9375 0.51172-0.70703 0.85938-1.0312-0.40625-0.78906 0.65625-0.83203 0.70703-1.0586 0.44141-1.1992 0.30859-0.92969 0.80078-0.13672 1.418-0.39453 1.207-0.53125 1.1484-0.60938 0.9375-1.082 0.44141-1.3672-0.37109-1.2109-0.054688-1.5742-0.94141-0.67969-0.78906-0.13281-1.0195 0.046875-1.1523-0.42578-1.0391-1.4688-1.3203-1.1055-0.82422-1.0078-0.49609-1.1875-0.097656-0.69531 0.74219 0.16797 1.2031 0.12891 1.5391-0.51562 2.6562-1.0352 0.27344-1.2891 0.26562-1.0664 0.91797-0.34766 1.1836-0.79688 0.85938-0.91406 0.77734-0.92969 0.72266-1.0273 0.69922-1.0039 1.1602-1.4688 0.61328-1.1367-0.24609-1.0117-0.22656-1.0469 0.050781-1.4219 0.070313-1.043-0.11719-1.2656-0.21875-1.082-0.53125-1.0586-0.23047-1.0234-0.36719-1.7148-0.097656-1.0234 0.17188-1.1406-0.003907-1.793 0.51172-1.1875 0.35547-1.0078 0.96484-0.070312 1.207-0.61328 0.95703-0.86719 0.91797-0.92969 0.53125-0.32422-1.4023-0.72656-0.98828-1.0391-0.70312-0.91406-0.72656-0.54297-1.7266-0.625-1.1406 0.38672-1.2852 0.75781-0.69141 0.21094-1.0117 0.41797-0.97266 0.63281-1.082 0.53516-0.95312-0.17578-1.0352-0.015625-1 0.41406-1.3711 0.0625-1.1055-0.53906-1.1055-0.51172-1.3711-0.80469-1.2266-0.33594-1.0078-0.22656-1.1211 1.4727-0.32422 1.4102-0.72266 1.0352-0.375 1.2969 0.097656 1.2578-0.19141 0.9375 0.45703 1.1094 0.46875 1.2852 0.26562 1.25-0.21094 1.0781-0.48438 0.92969-0.88672 0.98047-0.69531 1.4258-0.38672 0.87109-0.70312 0.20703-1.0391 0.60156-1.3555-0.14844-1.1953 0.33203-1.3164 0.98828-1.0195 0.48047-0.94531 0.32031-1.1367 0.058594-1.2266-0.027344-1.0117 0.65625-1.0156 1.0508-0.94141 1.0742-0.30078 0.51562-0.90625 0.42969-0.99219 0.40234-1.3711 0.44141-1.1328 0.53516-0.89453 0.22266-1.0742 0.84766-1.7812 0.58984-1.0117 0.75-1.5117 0.71875-1.4922 0.42969-0.92578-0.03125-1.6914 1.0508-0.17578 1.9531 0.039063 1.2852 0.28125 0.92188 0.66406 0.89062 0.49219 1.1953-0.36328 1.0156 0.007813 1.0547-0.12891 1.3047-0.20703 1.4648 0.18359 1.1758 0.058594 1.25-0.28516 1.0156-0.11719 1.0039-0.09375 1.2344-0.089844 1.293-0.39453 1.2344-0.10547 1.2812-0.14453 1.0234-0.41406 1.6719-0.55469 1.207-0.007812 1.0391-0.43359 1.1875-0.15234 1.0977-0.16406 1.2773-0.16797 1.6992 0.019531 1.1484-0.24609 1.3906-0.03125 1.0938 0.35156 1.3125 0.10156 1.2969-0.027343 1.0039-0.066407 1.5078-0.24609 1.3125-0.21094 1.0117-0.25 1.0273-0.082031 0.99609-0.18359 1.1016-0.30469 1.3516-0.74609 1.0391-0.39453 1.1289-0.40625 0.97656-0.38281 1.1289-0.10156 1.0469-0.24609 1.0391-0.11328 1.1328-0.47656 0.59766-0.83594 0.14844-0.23438" fill="none" stroke="#fff" stroke-linecap="round" stroke-linejoin="round" stroke-miterlimit="10" stroke-width="2"/>
<path d="m82.105 232.34 0.67578 0.015625 1.0078 0.49609 1.1055 0.82422 0.90625 0.64062 0.82422 1.0586 0.13281 1.0078 0.015625 1.25 0.22266 1.0352 2.1328 1.2695 1.2109 0.054688 1.3672 0.37109 1.082-0.44141 0.60938-0.9375 0.53125-1.1484 0.38672-1.1484 0.019532-1.1172 0.73438-0.96875 0.78125 0.81641 0.86328 0.65625 0.72266 1.0859 0.74219 1.2109 0.82422 0.91016 0.22656 1.0664-0.24609 1.5117-0.17188 1.4102 0.17188 1.1875 0.47266 1.0586 0.48047 1.0117 0.015625 1.2734-0.085937 1.043 0.32422 1.0547 0.62891 1.2578 1.3594 0.22656 0.97656 0.51562 1.0469-0.46484 0.875 0.51562 1.2578 2.0898 1.1797 0.96875 0.62891 1.5391 0.83984 1.2344 0.8125 0.75781 1.4727 0.78516 1.0156 0.19922 1.3477 0.77734 1.0273 0.37109 0.26953 0.97656 0.30469 1.2148 1.0625 0.96094 0.45312 1.1016-0.14844 1.207 0.28516 1.4844-0.23438 1.1836-0.23828 1.4141-0.30469 1.0781-0.32031 1.2344-0.75781 1.2305-0.57422 1.125-1.1602 1.3047-0.89844 0.56641-0.79297 1.4219-1.0977 0.82422-0.19922 1.0117-0.35156 1.2305-0.72656 0.71094-0.69141 1.0117-1.3477 0.37109-0.94531 0.53906-0.035156 1.0938 0.035156 1.1289-0.42188 1.418-0.40234 1.0781-0.44141 0.94531 0.50781 1.0625-1.3008 0.82812-1.0273 0.25h-1.1133l-0.77344 0.79297-0.17188 1.0781-0.40234 0.96484-0.28906 1.1602 0.023438 1.1875-0.45312 0.98828-0.26562 1.1523-1.2617 0.042968-1.6875-0.050781-1.5742-0.52734-1.375-0.39062-1.4492-0.007812-1.2305-0.26953-0.84375-0.53906-0.92578-0.79297-1.0117-0.875-0.55859-0.87891-1.0938-0.11719-0.91016 0.58984-0.42188 0.91016-0.82812 0.94531-0.80859 1.3984-0.58984 1.6719-0.18359 1.0273-0.30469 1.0117 0.30469 1.332 1.0273 0.85938 0.94531 0.71094-0.39062 1.1133-0.47266 0.90625-0.023438 1.0391-1.582 1.6133-0.82031 0.60547-1.1484 0.21875-1.2617-0.21875-1.0977 0.28516v1.3477l0.54688 1.7422 0.78516 1.1602 0.64062 0.96094-0.48828 1.0625-0.45703 1.0781-0.13281 1.1797-0.42188 1.0469-1.4492-0.20312-1.4492-0.74219-1.1836-0.42188-1.1289-0.4375-1.2188 0.69141-0.96875 0.53516-1.0547 0.35156-0.78125-1.1953-0.20703-0.98828 0.054687-1.1602-0.83594-0.83203-1.2266-0.10156-1.1445-0.42578-1.0781-0.80859-1.3555-0.97266-1.0234-0.87891-1.2695-0.27344-1.1367-0.12109-1.5078-0.53516-1.1523-0.55859-1.3008-0.74609-0.92578-0.55469-1.8984 0.21094-1.082 0.066406-1.043 0.16797-1.1133 0.22266-1.3945 0.48438-1.3008-0.84766-0.98047-1.0469-0.55859-1.0859 0.20703-1.3359 0.83594-1.2422 0.79297-1 0.41406-0.94531 0.60156-1.0273 0.74609-1.6367-0.027344-1.4141-0.39453-1.5938-0.49609-0.96875-0.95312-1.4648-1.3672-0.58984-1.0664-0.90625-0.35938-1.2617 0.73438-0.72656 0.63672-0.87891 0.27734-1.0547-0.085938-1.7188 0.12109-1.1758 0.097656-1.5742-0.16016-1.2578-0.23438-1.1914-1.1992-0.75781-1.3281-0.54688-0.73047-1.2891-0.51562-0.90234-0.70312-0.83594-0.58594-1.0664-0.10156-1.1836 0.60156-1.0547 0.11328-1.0039-0.28906-1.0352-0.078125-1.125-0.41406-1.3281 1.043-0.85938 1.1602-0.85547 0.89062-0.65625 0.85156-0.6875 0.28125-1.082-0.55859-0.84766-0.60938-0.89844 0.87109-0.61719 0.90625-0.88672-0.39062-1.4492-0.019532-1.4453 0.17188-1.1016 0.57812-1.0078 0.84375-0.55469 1.3516-0.60938 1.0938-1.0977 0.52734-1.1406-0.19922-1.1367-0.1875-1.4336 0.097656-1.293 0.67578-1.6641 0.92969-0.53125 0.86719-0.91797 0.61328-0.95703 0.070312-1.207 1.0078-0.96484 1.0195-0.32422 1.543-0.48438 1.5586-0.054687 1.0234-0.17188 1.1797-0.046875 0.9375 0.35938 1.3711 0.33203 1.043 0.39844 1.6133 0.40234 1.043 0.11719 1.125-0.13672 1.3438 0.015625 1.0117 0.22656 1.0352 0.25391 1.2695-0.38672 0.97656-0.91797 1.3555-1.1758 0.92969-0.72266 0.91406-0.77734 0.79688-0.85938 0.34766-1.1836 0.83984-0.79688 1.1562-0.35547 1.2695-0.078125 0.64062-2.8828-0.097657-1.2266-0.16406-1.0391 0.050781-1.0391z" fill="#0a5394" fill-rule="evenodd"/>
<path d="m82.105 232.34 0.67578 0.015625 1.0078 0.49609 1.1055 0.82422 0.90625 0.64062 0.82422 1.0586 0.13281 1.0078 0.015625 1.25 0.22266 1.0352 2.1328 1.2695 1.2109 0.054688 1.3672 0.37109 1.082-0.44141 0.60938-0.9375 0.53125-1.1484 0.38672-1.1484 0.019532-1.1172 0.73438-0.96875 0.78125 0.81641 0.86328 0.65625 0.72266 1.0859 0.74219 1.2109 0.82422 0.91016 0.22656 1.0664-0.24609 1.5117-0.17188 1.4102 0.17188 1.1875 0.47266 1.0586 0.48047 1.0117 0.015625 1.2734-0.085937 1.043 0.32422 1.0547 0.62891 1.2578 1.3594 0.22656 0.97656 0.51562 1.0469-0.46484 0.875 0.51562 1.2578 2.0898 1.1797 0.96875 0.62891 1.5391 0.83984 1.2344 0.8125 0.75781 1.4727 0.78516 1.0156 0.19922 1.3477 0.77734 1.0273 0.37109 0.26953 0.97656 0.30469 1.2148 1.0625 0.96094 0.45312 1.1016-0.14844 1.207 0.28516 1.4844-0.23438 1.1836-0.23828 1.4141-0.30469 1.0781-0.32031 1.2344-0.75781 1.2305-0.57422 1.125-1.1602 1.3047-0.89844 0.56641-0.79297 1.4219-1.0977 0.82422-0.19922 1.0117-0.35156 1.2305-0.72656 0.71094-0.69141 1.0117-1.3477 0.37109-0.94531 0.53906-0.035156 1.0938 0.035156 1.1289-0.42188 1.418-0.40234 1.0781-0.44141 0.94531 0.50781 1.0625-1.3008 0.82812-1.0273 0.25h-1.1133l-0.77344 0.79297-0.17188 1.0781-0.40234 0.96484-0.28906 1.1602 0.023438 1.1875-0.45312 0.98828-0.26562 1.1523-1.2617 0.042968-1.6875-0.050781-1.5742-0.52734-1.375-0.39062-1.4492-0.007812-1.2305-0.26953-0.84375-0.53906-0.92578-0.79297-1.0117-0.875-0.55859-0.87891-1.0938-0.11719-0.91016 0.58984-0.42188 0.91016-0.82812 0.94531-0.80859 1.3984-0.58984 1.6719-0.18359 1.0273-0.30469 1.0117 0.30469 1.332 1.0273 0.85938 0.94531 0.71094-0.39062 1.1133-0.47266 0.90625-0.023438 1.0391-1.582 1.6133-0.82031 0.60547-1.1484 0.21875-1.2617-0.21875-1.0977 0.28516v1.3477l0.54688 1.7422 0.78516 1.1602 0.64062 0.96094-0.48828 1.0625-0.45703 1.0781-0.13281 1.1797-0.42188 1.0469-1.4492-0.20312-1.4492-0.74219-1.1836-0.42188-1.1289-0.4375-1.2188 0.69141-0.96875 0.53516-1.0547 0.35156-0.78125-1.1953-0.20703-0.98828 0.054687-1.1602-0.83594-0.83203-1.2266-0.10156-1.1445-0.42578-1.0781-0.80859-1.3555-0.97266-1.0234-0.87891-1.2695-0.27344-1.1367-0.12109-1.5078-0.53516-1.1523-0.55859-1.3008-0.74609-0.92578-0.55469-1.8984 0.21094-1.082 0.066406-1.043 0.16797-1.1133 0.22266-1.3945 0.48438-1.3008-0.84766-0.98047-1.0469-0.55859-1.0859 0.20703-1.3359 0.83594-1.2422 0.79297-1 0.41406-0.94531 0.60156-1.0273 0.74609-1.6367-0.027344-1.4141-0.39453-1.5938-0.49609-0.96875-0.95312-1.4648-1.3672-0.58984-1.0664-0.90625-0.35938-1.2617 0.73438-0.72656 0.63672-0.87891 0.27734-1.0547-0.085938-1.7188 0.12109-1.1758 0.097656-1.5742-0.16016-1.2578-0.23438-1.1914-1.1992-0.75781-1.3281-0.54688-0.73047-1.2891-0.51562-0.90234-0.70312-0.83594-0.58594-1.0664-0.10156-1.1836 0.60156-1.0547 0.11328-1.0039-0.28906-1.0352-0.078125-1.125-0.41406-1.3281 1.043-0.85938 1.1602-0.85547 0.89062-0.65625 0.85156-0.6875 0.28125-1.082-0.55859-0.84766-0.60938-0.89844 0.87109-0.61719 0.90625-0.88672-0.39062-1.4492-0.019532-1.4453 0.17188-1.1016 0.57812-1.0078 0.84375-0.55469 1.3516-0.60938 1.0938-1.0977 0.52734-1.1406-0.19922-1.1367-0.1875-1.4336 0.097656-1.293 0.67578-1.6641 0.92969-0.53125 0.86719-0.91797 0.61328-0.95703 0.070312-1.207 1.0078-0.96484 1.0195-0.32422 1.543-0.48438 1.5586-0.054687 1.0234-0.17188 1.1797-0.046875 0.9375 0.35938 1.3711 0.33203 1.043 0.39844 1.6133 0.40234 1.043 0.11719 1.125-0.13672 1.3438 0.015625 1.0117 0.22656 1.0352 0.25391 1.2695-0.38672 0.97656-0.91797 1.3555-1.1758 0.92969-0.72266 0.91406-0.77734 0.79688-0.85938 0.34766-1.1836 0.83984-0.79688 1.1562-0.35547 1.2695-0.078125 0.64062-2.8828-0.097657-1.2266-0.16406-1.0391 0.050781-1.0391 1.1211-0.097656" fill="none" stroke="#fff" stroke-linecap="round" stroke-linejoin="round" stroke-miterlimit="10"/>
<path d="m101.73 236.23c0 3.5898-2.9102 6.5-6.5 6.5s-6.5-2.9102-6.5-6.5c0-3.5898 2.9102-6.5 6.5-6.5s6.5 2.9102 6.5 6.5" fill="#28c028" fill-rule="evenodd" stroke="#000" stroke-linecap="round" stroke-linejoin="round" stroke-miterlimit="10"/>
<path d="m102.86 259.26v-16.469h4.9844l2.9844 11.234 2.9531-11.234h4.9844v16.469h-3.0938v-12.953l-3.2656 12.953h-3.2031l-3.25-12.953v12.953zm18.531-8.125c0-1.6758 0.25-3.0859 0.75-4.2344 0.375-0.83203 0.88281-1.582 1.5312-2.25 0.64453-0.66406 1.3516-1.1602 2.125-1.4844 1.0312-0.4375 2.2188-0.65625 3.5625-0.65625 2.4141 0 4.3516 0.75781 5.8125 2.2656 1.457 1.5 2.1875 3.5938 2.1875 6.2812 0 2.6562-0.72656 4.7344-2.1719 6.2344-1.4375 1.5-3.3711 2.25-5.7969 2.25-2.4492 0-4.3984-0.74219-5.8438-2.2344-1.4375-1.5-2.1562-3.5547-2.1562-6.1719zm3.4219-0.125c0 1.8672 0.42969 3.2812 1.2969 4.25 0.86328 0.96094 1.957 1.4375 3.2812 1.4375 1.3203 0 2.4062-0.47266 3.25-1.4219 0.85156-0.95703 1.2812-2.3906 1.2812-4.2969 0-1.8945-0.41797-3.3047-1.25-4.2344-0.82422-0.92578-1.918-1.3906-3.2812-1.3906-1.375 0-2.4844 0.47656-3.3281 1.4219-0.83594 0.9375-1.25 2.3516-1.25 4.2344zm15.234 8.25v-16.328h3.3281v13.547h8.2656v2.7812zm13.859 0v-16.469h3.3125v16.469zm6.5156 0v-16.469h3.2344l6.75 11v-11h3.0781v16.469h-3.3281l-6.6406-10.734v10.734zm15.906-8.125c0-1.6758 0.25-3.0859 0.75-4.2344 0.375-0.83203 0.88281-1.582 1.5312-2.25 0.64453-0.66406 1.3516-1.1602 2.125-1.4844 1.0312-0.4375 2.2188-0.65625 3.5625-0.65625 2.4141 0 4.3516 0.75781 5.8125 2.2656 1.457 1.5 2.1875 3.5938 2.1875 6.2812 0 2.6562-0.72656 4.7344-2.1719 6.2344-1.4375 1.5-3.3711 2.25-5.7969 2.25-2.4492 0-4.3984-0.74219-5.8438-2.2344-1.4375-1.5-2.1562-3.5547-2.1562-6.1719zm3.4219-0.125c0 1.8672 0.42969 3.2812 1.2969 4.25 0.86328 0.96094 1.957 1.4375 3.2812 1.4375 1.3203 0 2.4062-0.47266 3.25-1.4219 0.85156-0.95703 1.2812-2.3906 1.2812-4.2969 0-1.8945-0.41797-3.3047-1.25-4.2344-0.82422-0.92578-1.918-1.3906-3.2812-1.3906-1.375 0-2.4844 0.47656-3.3281 1.4219-0.83594 0.9375-1.25 2.3516-1.25 4.2344zm0 0" fill="none" stroke="#fff" stroke-linecap="round" stroke-linejoin="round" stroke-miterlimit="10" stroke-width="2"/>
<path d="m102.86 259.26v-16.469h4.9844l2.9844 11.234 2.9531-11.234h4.9844v16.469h-3.0938v-12.953l-3.2656 12.953h-3.2031l-3.25-12.953v12.953zm18.531-8.125c0-1.6758 0.25-3.0859 0.75-4.2344 0.375-0.83203 0.88281-1.582 1.5312-2.25 0.64453-0.66406 1.3516-1.1602 2.125-1.4844 1.0312-0.4375 2.2188-0.65625 3.5625-0.65625 2.4141 0 4.3516 0.75781 5.8125 2.2656 1.457 1.5 2.1875 3.5938 2.1875 6.2812 0 2.6562-0.72656 4.7344-2.1719 6.2344-1.4375 1.5-3.3711 2.25-5.7969 2.25-2.4492 0-4.3984-0.74219-5.8438-2.2344-1.4375-1.5-2.1562-3.5547-2.1562-6.1719zm3.4219-0.125c0 1.8672 0.42969 3.2812 1.2969 4.25 0.86328 0.96094 1.957 1.4375 3.2812 1.4375 1.3203 0 2.4062-0.47266 3.25-1.4219 0.85156-0.95703 1.2812-2.3906 1.2812-4.2969 0-1.8945-0.41797-3.3047-1.25-4.2344-0.82422-0.92578-1.918-1.3906-3.2812-1.3906-1.375 0-2.4844 0.47656-3.3281 1.4219-0.83594 0.9375-1.25 2.3516-1.25 4.2344zm15.234 8.25v-16.328h3.3281v13.547h8.2656v2.7812zm13.859 0v-16.469h3.3125v16.469zm6.5156 0v-16.469h3.2344l6.75 11v-11h3.0781v16.469h-3.3281l-6.6406-10.734v10.734zm15.906-8.125c0-1.6758 0.25-3.0859 0.75-4.2344 0.375-0.83203 0.88281-1.582 1.5312-2.25 0.64453-0.66406 1.3516-1.1602 2.125-1.4844 1.0312-0.4375 2.2188-0.65625 3.5625-0.65625 2.4141 0 4.3516 0.75781 5.8125 2.2656 1.457 1.5 2.1875 3.5938 2.1875 6.2812 0 2.6562-0.72656 4.7344-2.1719 6.2344-1.4375 1.5-3.3711 2.25-5.7969 2.25-2.4492 0-4.3984-0.74219-5.8438-2.2344-1.4375-1.5-2.1562-3.5547-2.1562-6.1719zm3.4219-0.125c0 1.8672 0.42969 3.2812 1.2969 4.25 0.86328 0.96094 1.957 1.4375 3.2812 1.4375 1.3203 0 2.4062-0.47266 3.25-1.4219 0.85156-0.95703 1.2812-2.3906 1.2812-4.2969 0-1.8945-0.41797-3.3047-1.25-4.2344-0.82422-0.92578-1.918-1.3906-3.2812-1.3906-1.375 0-2.4844 0.47656-3.3281 1.4219-0.83594 0.9375-1.25 2.3516-1.25 4.2344z" fill-rule="evenodd"/>
</g>
</svg>
