<?xml version="1.0" encoding="UTF-8"?>
<svg width="425pt" height="500pt" version="1.1" viewBox="0 0 425 500" xmlns="http://www.w3.org/2000/svg">
<g id="a">
<rect width="425" height="500" fill="none"/>
<path d="m323.93 167.84 0.30859 0.20312 0.53516 0.96094 0.49219 1.1758 1.1875 3.0586 0.21484 1.4219-0.085937 1.0859 0.20312 1.2891 0.11719 1.582 0.14844 2.3438 0.17578 2.0234-0.44141 1.1133-0.78125 0.86328-0.50781 1.1602-0.5625 1.2656-0.95312 0.88672-1.4062 0.32031-1.0156 0.17578-1.1094 0.16016-1.0742 0.31641-0.65234 1.0625-0.33203 1.8281-0.42969 1.3867-1.082 1.2656-1.2656 0.77344-0.4375 1.1484 0.89453 0.64453 1.0312 0.015625 1.2148-0.14844 1.0039-0.078125 0.054687 1.0195-0.66797 0.78125 0.375 1.5664 0.23828 1.7734 0.035156 1.168-1.3984 0.80859-0.98047 0.48828-0.26172 1.3555 0.56641 1.0039 1.125 0.0625 0.69531-1.2461 0.80078 0.70703 0.52344-1.0312 1.4883-0.31641 0.98438 0.44141 1.2422 0.19141 1.1523 0.17578 1.4492-0.007813 1.0625-0.12891 0.92578-0.50781 1.0391 0.36719 0.87891-0.53125 0.96875 0.28516 0.92969-0.43359 1.0508-0.69141 1.1602-0.37891 0.45312 1.1016 1.0078 0.32812 1.0391 0.019531 0.90234 0.58203 0.60156 1.2891 0.47266 1.2305 0.46484 1.0391 0.11719 1.332-0.42578 1.0586 0.32422 1.1719 0.72656 0.875 0.98438 0.59375 1.0156 0.074219 1.3047 0.57031 0.47266 0.9375 0.50391 1.1133 0.49219 1.0898 0.71484 1.1641 0.90625 0.55859 1.0273-0.03125 1.1094 0.26953 1.0898 1.0664 1.0078 0.85156 0.92188 0.46875 1.2695 1.6172 1.4336 1.0078 1.3867 0.70703 3.0625 3.1523 1.1133 0.76953 1.0508 0.66797 0.85547 0.76953 1.8281 1.9141 0.65625 1.0625 0.31641 1.0469 0.28125 1.5781 0.59766 0.82812 2.0859 2.0312 2.2031 1.1016 1.0156 0.6875 1.6094 1.0859 0.99219 0.58984 1.4688 0.13672 0.93359 0.375 1.0156 0.58984 1.6875 1.3398 1.3086 0.47266 1.0547 0.60938 1.7461 0.21484 1.3125 0.19531 1.4883-0.375 1.2109-0.23828 3.0586-0.80859 1.0312-0.71484 1.25-1.7148 0.91016-0.75391 1.2734-0.51172 1.6172-0.30859 1.3398 0.66016 0.59766 1.3789 0.85547 0.98438 1.1523 1.3398 1.2539 1.2852 0.53516 0.84375 0.22266 1.5781-0.41016 1.3516-0.21484 1.6211-0.0625 1.5781 0.035156 1.1094 0.18359 1.4023 1.1914 1.1055-0.62891 1.9609-1.207 2.1172-1.5742 1.3047-1.1758 0.75-0.62109 1.0625-1.0781 1.2383-1.0781 1.6016-0.35938 1.207-0.52344 1.0469-0.67578 1.1172-0.82422 1.7891-1.0781 1.043-0.62109 1.0625-1.2422 1.2422-0.58594 1.2734-0.13281 1.1758-0.29297 1.4375-0.097657 1.3047-1.0117 0.75-1.4062 0.62109-1.3711 0.13281-1.0117-0.6875-1.1523-0.125-1.4258-0.10156-1.1758 0.61719-1.375 0.65625-0.55469 1.2383-0.16016 1.4375 0.19531 1.375-0.78516 0.91016-1.3047 0.85156-1.6992 0.52344-1.3281 0.070313-0.81641 1.6094-0.47266 1.0273-0.55469 1.2148-0.94922 0.65625-0.58203 1.2422-0.73828 1.1055-1.1328 0.13281-1.082 0.39453-0.89453 0.58203-0.42188 0.94922-0.44922 1.0547-1.1094-0.31641-1.3711-0.078125-1.1055-0.23828-0.81641-0.97656-0.79297-1.1602-0.44922-0.89453-0.71094-2.1133-0.87109-1.1055 0.21094-1.0547-0.89453-0.6875-0.89844-0.5-1.1875-0.31641-1.4219-0.15625h-1.1836l-1.9062 0.57812-1.0938 0.3125-1.1328 0.0625-0.97266 0.41406-1.0312 0.87109-1.3711 0.21875-1.1523 0.92578-0.69141 1.4219-1.5508 1.4805-1.0781 0.67578-1.0898 1.1055-1.9414 1.0977-0.81641 0.73438-1.2891 2.0352-1.8828 1.4453-1.9258 0.96094-2.1289 1.2812-1.8828 1.4219-0.9375 0.375-1.4492 2.1914-0.89062 0.67188-1.5117-0.058594-1.4297 0.082031-1.293 1.2578-1.0703 0.33984-1.6797-0.67188-1.0703-0.48047-0.78906-0.61719-0.73047-0.75391-1.043-0.37891-0.82031 0.60156-1.2266 0.28516-1.1641-0.36328-0.89453-0.82422-1.0508-0.035156-0.46094-1.1133-1.2031-0.61719 0.0625 1.207-1.082-0.035157-1.0078 0.10156-0.25-1.1367-1.0234 0.027344-1.0664-0.32031-0.85156-0.57422-1.0703-0.63281-1.0234 0.25-0.99609 0.17578-0.011719 1.0898-0.73047 0.76172-1.2773-0.63281-0.90625 0.52344-1.2578 0.65625-0.99219 0.25781-1.0039 0.1875-0.29688 1.2266-0.85938 0.57812-0.50391-0.97266-0.65234 1.2188-0.26953 1.0352-0.95703 0.37891-1.1328 0.79688-1.0469 0.10938-1.1797 0.47656-0.89844 0.74219-0.50781 0.96094-0.42188 1.0195-0.70312 0.78516-0.375-1.1094-0.72656 0.71094-0.87109-0.67969-0.82422-0.91016 1.375-0.22656-0.89844-0.59375-0.89062-0.71875-1.4297 0.57422-2.0664 0.53125-1.3711 0.14062-1.1133 0.375 0.0625 1.1211 1.3789 1.0938 1.332 0.023437 1.2578-0.57031 1.4492 0.40234 0.95312 0.95312 0.52344 1.0195-0.16797 1.832-0.23828 1.0703-0.10547 1.0977-0.039062 1.4141 0.87891 2.3711 0.23047 1.2617-0.99219 1.1875-1.5703 0.11328-1.7578-0.30469-1.2266-0.26953-2.1758-1.0312-1.7461-0.98438-0.98438-0.45703-1.1719-0.27734-1.5312-1.0273-2.6016-1.4219-1.0352-0.39062-1.4492 0.11719-1.0391-0.32422-1.0273 0.10938-0.82422-0.70312-1.043-0.25391-1.1836 0.082031-0.90625 0.73438-0.58203 0.89844-1.0664-0.53125-0.98828 0.53906-0.99609-0.40625-0.99609-0.24609-0.98047-0.35156-1.1094-0.11328-0.98828-0.46484-0.98828-0.41797-1.0938 0.13281-0.63672-0.81641-0.98438 0.21875-0.70312-0.83984-0.42578-0.95703-0.074218-1.0039-0.48047-1.1094-0.97266-0.44141-1.0195-0.29297-1.0586-0.35938-1.0117 0.34375-0.94141-0.375-1.1172 0.007813-1.1016-0.17188-0.98828 0.16406-0.86328-0.50781-0.49219-0.9375-0.62109-0.80078-1.0508-0.40625-1.0039 0.007812-0.91406 0.42578-1.0078 0.20703-0.98438 0.42969-1.3516 0.94531-0.55469 0.92578-0.75391 1.457-0.89453 0.88672-0.95312 1.9336-0.17969 1.418-1.0547 1.1055-0.49609 1.2031-1.3281 1.082-1.293 0.64844-1.9062 0.10156-0.85156 0.55469-0.77734 0.98828-0.89062 0.52734-1.0547 1.0469-2.2695 1.4648-1.3711 1.9922-3.0117 2.457-1.9531 2.4102-1.4766 2.25-2.2695 2.5664-1.0742-0.35547-0.71484-0.72656-1.2188-0.91016-1.0547-0.26172-1-0.83984-1.9531-0.52344-1.5312-0.99609-0.47266-1.9375-0.37109-1.0469 0.019531-1.125-0.046875-1.2188-0.73438-1.5391-1.0273-1.4102-0.375-2.418-0.058594-1.3203-0.77734-1.457-0.25391-1.1055 0.55859-1.6172 0.19531-1.1211 0.12891-1.1055-0.29688-1.0508 0.62891-1.5898 1.1719-2.6602 1.2539-3.1914 0.45703-0.96484 0.71484-1.7969 1.1719-2.5391 1.4141-4.0039 0.8125-2.7969 0.21875-1.8945 0.28125-1.457 1.2734-4.1406 1.2188-5.8164-0.21875-1.0547-0.97656-0.95312-0.79297-0.67188-1.1289-1.1211-1.2734-0.75391-1.1719-0.94531-1.0508-0.69141-1.7656-0.74609-1.6641-1.1289-1.4297-1.3203-1.7852-2.0117-1.1914-1.7344-1.4297-1.5781-1.3672-1.0859-1.2305-0.80859-1.3867-0.64844-1.1914-0.61328-1.1133-0.55469-1.8008-0.79297-1.5312-0.29297-1.332 0.43359-1.3672-0.003906-1.2695-0.84766-1.207-0.55078-1.1328-0.19922-1.1523 0.039062-0.67188-0.82812-0.875-0.78906-0.45703-1.3828-0.60938-1.082-0.89844 0.88672-1.0117 0.74609-1.1914 0.29688-2.0039-0.67188-1.1289-0.57422-1.1328-0.41406-1.2305-0.8125-2.418-0.82812 0.78906-0.89453 1.1719-0.64062 0.78125-0.84375 0.10156-1.3477 1.125-0.62109 0.85938-0.82031 1.2539-1.0508 0.96094-0.58984 1.2578-0.32812 0.59375-1.2148 1.0938-0.42578 1.2227-0.26172 0.85938-1.4766 0.85938-0.52344 0.59766-0.82031 0.023437-1.4453 0.03125-1.1836 0.39844-1.0156 0.59766-1.3125 0.375-1.2266-0.097656-1.2539-0.60547-1.7812-0.80859-1.3555 0.20312-1.3047 1.793-0.42578 2.0977 0.050781 1.3359 0.050781 0.83594-0.97656 0.98438-0.57422 1.9102-1.3555 1.2383-1.0508 1.1367-1.3047 0.78516-1.3281 1.2344-1.3516 0.55859-1.5312 0.054687-1.5781 1.3594-1.457 0.80859-0.92578 0.78516-1.1289 0.40234-1.1016 0.25391-1.2539-0.074219-1.0547 1.0586-0.75 1.1602-0.074219 0.60938-0.92969 0.023438-1.2266-0.70312-1.0547-0.27734-1.1289 0.22656-1.3281-0.53125-1.0547-0.046875-1.0273-1.0117-0.85547-0.98047-0.625-1.3398-0.78125-0.62891-0.77734-0.48047-1.3047-0.17578-1.2031 0.17969-1.5039-0.98438-0.47656-0.22656-1.0547-0.32812-0.97656 0.32812-1.207 0.10156-1.1016 0.17969-1.0781-1.0625-0.50391-0.023437-1.168-0.54688-1.1797-1.0391-0.6875-0.50781-0.87891 0.027343-1.1523 1.1367-0.39844 1.1602 0.074218 0.85938 0.65234 0.92578 0.37891 1.3633 0.074219 0.98438 0.40234 1.2344-0.14844 1.1367-0.27734 0.9375-0.43359 1.082 0.41016 1.1328-0.085937 0.63281 1.2227 1.8867 1.6992 1.1875 0.55078 1.5078 0.15625 0.99219 0.47656 1.5078-0.17578 1.3281 0.15625 1.0742-0.13672 0.85156-1.0469 1.168-0.76562 1.1328-0.88672 0.92969-0.375 1.1719 0.11719 1.0898 0.019531 1.4297-0.54688 1.2695 0.47266 1.4062 0.25781 1.5469-0.29688 1.2734-0.62891 1.0898-0.27734 1.4648 0.078125 1.1133 0.76953 1.3711 0.43359 1.168-0.074219 2.1602 1.1602 1.3086 0.25781 1.8477-0.39453 1.2461-0.31641 1.3906-0.19531 1.8242-0.25391 1.5664 0.55078 0.99219-0.33594 3.2734-0.19531 2.0039 0.039063 1.4062-0.21484h2.3398l0.97266-0.29688 2.5-0.92578 0.93359-0.58984 1.0078-0.097656 1.4102-0.10156 1.2109-0.23438 0.97266 0.27734 1.0273-0.4375 1.2148-0.015625 1.3242 0.039062 1.1133 0.11719 1.625 0.39453 1.5273 0.11719 1.5469-0.43359 1.0156 0.47656 1.1016 0.60547 1.3711 0.53125 0.93359 0.55469 0.96875 0.49219 1.1367 0.76953 1.1094-0.35547 1.1094-0.23828-0.078125-1.1211 1.6875 0.55078 0.99219 0.29297 1.4297-0.097657 1.4883-0.21484 0.97266 0.58984 0.69531 1.1055 0.49609 0.90625 2.3398 0.84766 1.3516 0.082032 1.3281-0.23828 0.95312-0.35547 1.0117 0.019531 1.0156-0.53125 1.7656-0.47656 1.3672 0.29297 1.3711-0.51172 1.0312-0.82812 1.1133-0.55078 0.94922-0.75 1.2539-1.0859 1.0312-1.0078 1.3086-0.80859 0.89453-1.1836 0.31641-1.5 1.5273-2.0117 0.65625-0.78906 0.73438-1.2227 1.0312-1.4609 1.25-0.61328 1.4844-0.17578 2.0078-0.058594 1.625-0.29688 1.1133-0.25781 1.5469-0.63281 1.1523-0.43359 1.7227-1.082 1.4531-1.0547 0.88672-0.75391 0.63281-0.91016 0.38672 0.96875 0.54297 0.90234 1.0586 0.77344 1.0508-0.24219 0.66016-0.92578-0.58594-1.0078-1.1016-0.46094-1.0156-0.19141-0.16016-1.1016 1.2188-0.09375 1.293 0.074219 1.0273-0.007813 0.91797-0.44922 0.52734-0.85156-0.51953-1.1953-0.19141-1.2422 0.91797 0.44141 1.0273 0.50781 0.47656 0.98828 1.1797-0.46094-0.019532-1.1016-0.98438-0.32422 0.49219-0.96094-0.66016-0.89453-1.0664-0.074219 0.90234-0.76953z" fill="#ccc" fill-rule="evenodd"/>
<path d="m323.93 167.84 0.30859 0.20312 0.53516 0.96094 0.49219 1.1758 1.1875 3.0586 0.21484 1.4219-0.085937 1.0859 0.20312 1.2891 0.11719 1.582 0.14844 2.3438 0.17578 2.0234-0.44141 1.1133-0.78125 0.86328-0.50781 1.1602-0.5625 1.2656-0.95312 0.88672-1.4062 0.32031-1.0156 0.17578-1.1094 0.16016-1.0742 0.31641-0.65234 1.0625-0.33203 1.8281-0.42969 1.3867-1.082 1.2656-1.2656 0.77344-0.4375 1.1484 0.89453 0.64453 1.0312 0.015625 1.2148-0.14844 1.0039-0.078125 0.054687 1.0195-0.66797 0.78125 0.375 1.5664 0.23828 1.7734 0.035156 1.168-1.3984 0.80859-0.98047 0.48828-0.26172 1.3555 0.56641 1.0039 1.125 0.0625 0.69531-1.2461 0.80078 0.70703 0.52344-1.0312 1.4883-0.31641 0.98438 0.44141 1.2422 0.19141 1.1523 0.17578 1.4492-0.007813 1.0625-0.12891 0.92578-0.50781 1.0391 0.36719 0.87891-0.53125 0.96875 0.28516 0.92969-0.43359 1.0508-0.69141 1.1602-0.37891 0.45312 1.1016 1.0078 0.32812 1.0391 0.019531 0.90234 0.58203 0.60156 1.2891 0.47266 1.2305 0.46484 1.0391 0.11719 1.332-0.42578 1.0586 0.32422 1.1719 0.72656 0.875 0.98438 0.59375 1.0156 0.074219 1.3047 0.57031 0.47266 0.9375 0.50391 1.1133 0.49219 1.0898 0.71484 1.1641 0.90625 0.55859 1.0273-0.03125 1.1094 0.26953 1.0898 1.0664 1.0078 0.85156 0.92188 0.46875 1.2695 1.6172 1.4336 1.0078 1.3867 0.70703 3.0625 3.1523 1.1133 0.76953 1.0508 0.66797 0.85547 0.76953 1.8281 1.9141 0.65625 1.0625 0.31641 1.0469 0.28125 1.5781 0.59766 0.82812 2.0859 2.0312 2.2031 1.1016 1.0156 0.6875 1.6094 1.0859 0.99219 0.58984 1.4688 0.13672 0.93359 0.375 1.0156 0.58984 1.6875 1.3398 1.3086 0.47266 1.0547 0.60938 1.7461 0.21484 1.3125 0.19531 1.4883-0.375 1.2109-0.23828 3.0586-0.80859 1.0312-0.71484 1.25-1.7148 0.91016-0.75391 1.2734-0.51172 1.6172-0.30859 1.3398 0.66016 0.59766 1.3789 0.85547 0.98438 1.1523 1.3398 1.2539 1.2852 0.53516 0.84375 0.22266 1.5781-0.41016 1.3516-0.21484 1.6211-0.0625 1.5781 0.035156 1.1094 0.18359 1.4023 1.1914 1.1055-0.62891 1.9609-1.207 2.1172-1.5742 1.3047-1.1758 0.75-0.62109 1.0625-1.0781 1.2383-1.0781 1.6016-0.35938 1.207-0.52344 1.0469-0.67578 1.1172-0.82422 1.7891-1.0781 1.043-0.62109 1.0625-1.2422 1.2422-0.58594 1.2734-0.13281 1.1758-0.29297 1.4375-0.097657 1.3047-1.0117 0.75-1.4062 0.62109-1.3711 0.13281-1.0117-0.6875-1.1523-0.125-1.4258-0.10156-1.1758 0.61719-1.375 0.65625-0.55469 1.2383-0.16016 1.4375 0.19531 1.375-0.78516 0.91016-1.3047 0.85156-1.6992 0.52344-1.3281 0.070313-0.81641 1.6094-0.47266 1.0273-0.55469 1.2148-0.94922 0.65625-0.58203 1.2422-0.73828 1.1055-1.1328 0.13281-1.082 0.39453-0.89453 0.58203-0.42188 0.94922-0.44922 1.0547-1.1094-0.31641-1.3711-0.078125-1.1055-0.23828-0.81641-0.97656-0.79297-1.1602-0.44922-0.89453-0.71094-2.1133-0.87109-1.1055 0.21094-1.0547-0.89453-0.6875-0.89844-0.5-1.1875-0.31641-1.4219-0.15625h-1.1836l-1.9062 0.57812-1.0938 0.3125-1.1328 0.0625-0.97266 0.41406-1.0312 0.87109-1.3711 0.21875-1.1523 0.92578-0.69141 1.4219-1.5508 1.4805-1.0781 0.67578-1.0898 1.1055-1.9414 1.0977-0.81641 0.73438-1.2891 2.0352-1.8828 1.4453-1.9258 0.96094-2.1289 1.2812-1.8828 1.4219-0.9375 0.375-1.4492 2.1914-0.89062 0.67188-1.5117-0.058594-1.4297 0.082031-1.293 1.2578-1.0703 0.33984-1.6797-0.67188-1.0703-0.48047-0.78906-0.61719-0.73047-0.75391-1.043-0.37891-0.82031 0.60156-1.2266 0.28516-1.1641-0.36328-0.89453-0.82422-1.0508-0.035156-0.46094-1.1133-1.2031-0.61719 0.0625 1.207-1.082-0.035157-1.0078 0.10156-0.25-1.1367-1.0234 0.027344-1.0664-0.32031-0.85156-0.57422-1.0703-0.63281-1.0234 0.25-0.99609 0.17578-0.011719 1.0898-0.73047 0.76172-1.2773-0.63281-0.90625 0.52344-1.2578 0.65625-0.99219 0.25781-1.0039 0.1875-0.29688 1.2266-0.85938 0.57812-0.50391-0.97266-0.65234 1.2188-0.26953 1.0352-0.95703 0.37891-1.1328 0.79688-1.0469 0.10938-1.1797 0.47656-0.89844 0.74219-0.50781 0.96094-0.42188 1.0195-0.70312 0.78516-0.375-1.1094-0.72656 0.71094-0.87109-0.67969-0.82422-0.91016 1.375-0.22656-0.89844-0.59375-0.89062-0.71875-1.4297 0.57422-2.0664 0.53125-1.3711 0.14062-1.1133 0.375 0.0625 1.1211 1.3789 1.0938 1.332 0.023437 1.2578-0.57031 1.4492 0.40234 0.95312 0.95312 0.52344 1.0195-0.16797 1.832-0.23828 1.0703-0.10547 1.0977-0.039062 1.4141 0.87891 2.3711 0.23047 1.2617-0.99219 1.1875-1.5703 0.11328-1.7578-0.30469-1.2266-0.26953-2.1758-1.0312-1.7461-0.98438-0.98438-0.45703-1.1719-0.27734-1.5312-1.0273-2.6016-1.4219-1.0352-0.39062-1.4492 0.11719-1.0391-0.32422-1.0273 0.10938-0.82422-0.70312-1.043-0.25391-1.1836 0.082031-0.90625 0.73438-0.58203 0.89844-1.0664-0.53125-0.98828 0.53906-0.99609-0.40625-0.99609-0.24609-0.98047-0.35156-1.1094-0.11328-0.98828-0.46484-0.98828-0.41797-1.0938 0.13281-0.63672-0.81641-0.98438 0.21875-0.70312-0.83984-0.42578-0.95703-0.074218-1.0039-0.48047-1.1094-0.97266-0.44141-1.0195-0.29297-1.0586-0.35938-1.0117 0.34375-0.94141-0.375-1.1172 0.007813-1.1016-0.17188-0.98828 0.16406-0.86328-0.50781-0.49219-0.9375-0.62109-0.80078-1.0508-0.40625-1.0039 0.007812-0.91406 0.42578-1.0078 0.20703-0.98438 0.42969-1.3516 0.94531-0.55469 0.92578-0.75391 1.457-0.89453 0.88672-0.95312 1.9336-0.17969 1.418-1.0547 1.1055-0.49609 1.2031-1.3281 1.082-1.293 0.64844-1.9062 0.10156-0.85156 0.55469-0.77734 0.98828-0.89062 0.52734-1.0547 1.0469-2.2695 1.4648-1.3711 1.9922-3.0117 2.457-1.9531 2.4102-1.4766 2.25-2.2695 2.5664-1.0742-0.35547-0.71484-0.72656-1.2188-0.91016-1.0547-0.26172-1-0.83984-1.9531-0.52344-1.5312-0.99609-0.47266-1.9375-0.37109-1.0469 0.019531-1.125-0.046875-1.2188-0.73438-1.5391-1.0273-1.4102-0.375-2.418-0.058594-1.3203-0.77734-1.457-0.25391-1.1055 0.55859-1.6172 0.19531-1.1211 0.12891-1.1055-0.29688-1.0508 0.62891-1.5898 1.1719-2.6602 1.2539-3.1914 0.45703-0.96484 0.71484-1.7969 1.1719-2.5391 1.4141-4.0039 0.8125-2.7969 0.21875-1.8945 0.28125-1.457 1.2734-4.1406 1.2188-5.8164-0.21875-1.0547-0.97656-0.95312-0.79297-0.67188-1.1289-1.1211-1.2734-0.75391-1.1719-0.94531-1.0508-0.69141-1.7656-0.74609-1.6641-1.1289-1.4297-1.3203-1.7852-2.0117-1.1914-1.7344-1.4297-1.5781-1.3672-1.0859-1.2305-0.80859-1.3867-0.64844-1.1914-0.61328-1.1133-0.55469-1.8008-0.79297-1.5312-0.29297-1.332 0.43359-1.3672-0.003906-1.2695-0.84766-1.207-0.55078-1.1328-0.19922-1.1523 0.039062-0.67188-0.82812-0.875-0.78906-0.45703-1.3828-0.60938-1.082-0.89844 0.88672-1.0117 0.74609-1.1914 0.29688-2.0039-0.67188-1.1289-0.57422-1.1328-0.41406-1.2305-0.8125-2.418-0.82812 0.78906-0.89453 1.1719-0.64062 0.78125-0.84375 0.10156-1.3477 1.125-0.62109 0.85938-0.82031 1.2539-1.0508 0.96094-0.58984 1.2578-0.32812 0.59375-1.2148 1.0938-0.42578 1.2227-0.26172 0.85938-1.4766 0.85938-0.52344 0.59766-0.82031 0.023437-1.4453 0.03125-1.1836 0.39844-1.0156 0.59766-1.3125 0.375-1.2266-0.097656-1.2539-0.60547-1.7812-0.80859-1.3555 0.20312-1.3047 1.793-0.42578 2.0977 0.050781 1.3359 0.050781 0.83594-0.97656 0.98438-0.57422 1.9102-1.3555 1.2383-1.0508 1.1367-1.3047 0.78516-1.3281 1.2344-1.3516 0.55859-1.5312 0.054687-1.5781 1.3594-1.457 0.80859-0.92578 0.78516-1.1289 0.40234-1.1016 0.25391-1.2539-0.074219-1.0547 1.0586-0.75 1.1602-0.074219 0.60938-0.92969 0.023438-1.2266-0.70312-1.0547-0.27734-1.1289 0.22656-1.3281-0.53125-1.0547-0.046875-1.0273-1.0117-0.85547-0.98047-0.625-1.3398-0.78125-0.62891-0.77734-0.48047-1.3047-0.17578-1.2031 0.17969-1.5039-0.98438-0.47656-0.22656-1.0547-0.32812-0.97656 0.32812-1.207 0.10156-1.1016 0.17969-1.0781-1.0625-0.50391-0.023437-1.168-0.54688-1.1797-1.0391-0.6875-0.50781-0.87891 0.027343-1.1523 1.1367-0.39844 1.1602 0.074218 0.85938 0.65234 0.92578 0.37891 1.3633 0.074219 0.98438 0.40234 1.2344-0.14844 1.1367-0.27734 0.9375-0.43359 1.082 0.41016 1.1328-0.085937 0.63281 1.2227 1.8867 1.6992 1.1875 0.55078 1.5078 0.15625 0.99219 0.47656 1.5078-0.17578 1.3281 0.15625 1.0742-0.13672 0.85156-1.0469 1.168-0.76562 1.1328-0.88672 0.92969-0.375 1.1719 0.11719 1.0898 0.019531 1.4297-0.54688 1.2695 0.47266 1.4062 0.25781 1.5469-0.29688 1.2734-0.62891 1.0898-0.27734 1.4648 0.078125 1.1133 0.76953 1.3711 0.43359 1.168-0.074219 2.1602 1.1602 1.3086 0.25781 1.8477-0.39453 1.2461-0.31641 1.3906-0.19531 1.8242-0.25391 1.5664 0.55078 0.99219-0.33594 3.2734-0.19531 2.0039 0.039063 1.4062-0.21484h2.3398l0.97266-0.29688 2.5-0.92578 0.93359-0.58984 1.0078-0.097656 1.4102-0.10156 1.2109-0.23438 0.97266 0.27734 1.0273-0.4375 1.2148-0.015625 1.3242 0.039062 1.1133 0.11719 1.625 0.39453 1.5273 0.11719 1.5469-0.43359 1.0156 0.47656 1.1016 0.60547 1.3711 0.53125 0.93359 0.55469 0.96875 0.49219 1.1367 0.76953 1.1094-0.35547 1.1094-0.23828-0.078125-1.1211 1.6875 0.55078 0.99219 0.29297 1.4297-0.097657 1.4883-0.21484 0.97266 0.58984 0.69531 1.1055 0.49609 0.90625 2.3398 0.84766 1.3516 0.082032 1.3281-0.23828 0.95312-0.35547 1.0117 0.019531 1.0156-0.53125 1.7656-0.47656 1.3672 0.29297 1.3711-0.51172 1.0312-0.82812 1.1133-0.55078 0.94922-0.75 1.2539-1.0859 1.0312-1.0078 1.3086-0.80859 0.89453-1.1836 0.31641-1.5 1.5273-2.0117 0.65625-0.78906 0.73438-1.2227 1.0312-1.4609 1.25-0.61328 1.4844-0.17578 2.0078-0.058594 1.625-0.29688 1.1133-0.25781 1.5469-0.63281 1.1523-0.43359 1.7227-1.082 1.4531-1.0547 0.88672-0.75391 0.63281-0.91016 0.38672 0.96875 0.54297 0.90234 1.0586 0.77344 1.0508-0.24219 0.66016-0.92578-0.58594-1.0078-1.1016-0.46094-1.0156-0.19141-0.16016-1.1016 1.2188-0.09375 1.293 0.074219 1.0273-0.007813 0.91797-0.44922 0.52734-0.85156-0.51953-1.1953-0.19141-1.2422 0.91797 0.44141 1.0273 0.50781 0.47656 0.98828 1.1797-0.46094-0.019532-1.1016-0.98438-0.32422 0.49219-0.96094-0.66016-0.89453-1.0664-0.074219 0.90234-0.76953 1.1992-0.20312" fill="none" stroke="#fff" stroke-linecap="round" stroke-linejoin="round" stroke-miterlimit="10" stroke-width="2"/>
<path d="m146.99 256.01 0.66406 0.23047 1.1211 0.29297 0.99219 0.33203 1.4219 0.36328 0.92578 0.85156 0.66016 1.4141 0.72266 0.91797 2.668 0.75781 1.4102 0.89062 1.4688 0.58984 1.1289 0.57422 1.5898 0.63281 1.2109-0.082031 1.2305-0.70703 0.45703-1.0625 1.25 0.097657 0.21484 1.4219 0.53906 1.3008 0.85156 0.76953 0.83203 0.57031 1.0117-0.19531 1.5078 0.25781 0.97266 0.98438 1.4883 0.45703 2.0234-0.49219 1.2969 0.21094 1.9805 0.85156 1.168 0.57812 1.1914 0.61328 1.3867 0.64844 1.2305 0.80859 1.3672 1.0859 0.89453 0.92578 1.2695 1.8125 1.8242 2.1133 1.2305 1.2617 1.6484 1.2812 1.9023 0.86719 1.2695 0.8125 1.0078 0.72656 1.7148 1.1094 1.1289 1.1211 0.79297 0.67188 0.97656 0.95312 0.21875 1.0547-1.2188 5.8164-1.2734 4.1406-0.28125 1.457-0.21875 1.8945-0.8125 2.7969-1.4141 4.0039-1.1719 2.5391-0.71484 1.7969-0.45703 0.96484-1.2539 3.1914-1.1719 2.6602-0.57812 1.0234 0.24609 1.3203-0.12891 1.4023-0.19531 1.1211-0.55859 1.6172 0.25391 1.1055 0.77734 1.457 0.058594 1.3203 0.11328 1.4766 1.2891 2.3516 0.73438 1.5391 0.046875 1.2188-0.019531 1.125 0.37109 1.0469 0.16016 1.2578 1.0547 1.3594 1.9492 0.47266 1.793 1.207 1.0547 0.26172 1.2188 0.91016 0.71484 0.72656 0.54688 0.87891-2.3242 2.25-0.78906 1.2578-0.375 1.2031-1.3242 8.7461-0.63281 2.4609-0.44531 1.0586-1.0781 1.1094-1.3398 0.91406-1.1094 1.5664-0.58984 0.91406-2.0898 0.65625-1.4023 0.68359-1.0117 0.78516-2.1797 1.3164-4.2266 3.3477-0.80078 1.2578-1.0781 1.2148-0.94531 0.94531-1.3242 1.1094-5.1992 4.2148-6.125 6.2773-2.9609 2.6719-1.9531 1.8828-1.207 1.0703-0.97266 0.92578-1.1211 1.457-1.875 1.5703-6.0273 7.9023-0.84766 1.3633-0.79297 3.0352-0.003906 2.6719 0.15625 1.3086 0.42188 1.3633 0.57422 1.1602 1.082 1.5938 3.4609 3.8477 1.3164 1.2578 2.0586 2.4648 1.0547 1.3594 0.57812 0.95312 0.40625 0.95312 0.37109 0.99219 0.20312 1.0391 0.28125 1.5625 0.54297 1.1836 0.1875 1.7422 0.12109 1.3047 0.55859 0.9375 0.87891 1.1797 1.1328 1.5469 0.58203 0.92578 0.65625 1.0039 0.69141 1.4766 0.47266 1.1836 0.14844 1.0352 0.11328 1.4844 0.60156 1.0508 0.33203 1.1719-0.43359 1.3203-0.98828 0.86719-0.96875 0.86719 0.11328 1.0391-0.84766 0.70703-0.86719 0.54297-0.28906 1.0469-2.0742 0.13672-1.3359 0.085938-1.5352 0.64844-1.1836-0.46875-1.9102 0.71484-1.8867 0.73828-1.3945 0.27344h-1.3672l-1.75-0.46484-2.8711-0.53125-2.4805 0.16406-1.4688-0.089843-1.1758-0.28125-1.0469-0.29297-1.0625-0.25391-1.4336-0.20312-1.25-0.085938-1.4375 0.066406-1.5039 0.37109-1.2188 0.066406-1.2148 0.16797-2.1641 0.46875-2.1211 0.76953-1.3164 0.66016-1.2383 0.97266-0.92578 1.1523-1.2266 0.85938-0.55078 0.95312-0.089843 1.0625 0.69531 0.84766-0.19922 1.2578 0.32031 1.2539 0.98438 0.20312 1.0703 0.36719 1.5156 0.84766 0.75391 0.88672 0.27734 1.1094-0.57031 1.1797-0.54297 0.92188-0.87891 0.96094-0.77734 1.1641-0.21094 1.1719-1.0508 0.74609-1.2461 0.31641-0.84766 1.5117-0.94531 1.2188-1.1445 0.92578-0.94141 0.44141-1.1289-0.41016-1.4375-0.31641-1.1211-0.61328-0.96094-0.58594-1.3477-0.4375-1.0234-0.078125-0.97656 0.49609-1.0547 1.043-0.66016 0.90625-0.24609 1.0156-0.33984 1.1836-0.0625 1.207-0.88281 0.93359-1.3906 0.46875-1.1094-0.10547 0.14062 1.2188-0.55078 0.87109-0.29688 1.3008-0.48047 1.3516-0.11328 1.6445-0.25391 1.2578-0.38672 1.0508 0.29688 1.9688-0.87109 0.50391-1.2305 0.72266-0.9375-0.40234-0.61328-0.93359-0.58594-0.96484-1.043-0.74609-1.2305-0.34766-1.1758-0.082031-0.87891-0.61328h-1.043l-1.2812-0.078125-1.0703-0.21484-1.4688-0.027344-0.80078-0.74609-0.75781 0.69141-0.99219 0.43359-1.0273 0.34766-1.168 0.14844-1.0469-0.21094-1.1719-0.078125-1.2148 0.054688-1.375-0.03125-1.0273-0.3125-1.5586 0.375-1.0898 0.78906-1.0703 0.39844-0.90625-0.75391-0.94922-1.3789-0.73438-0.77734-0.85156-0.55078-0.74219-0.875-0.019531-1.4375-0.0625-1.2148-1.8125-0.5625-1.1523-0.40625-1.0312-0.1875-1.4648-0.62109-1.457 0.15625-1.3516-0.4375-1.3711-0.59375-0.99609-0.59375-0.52344-1.4922 0.17969-1-0.66016-0.99219-1.3984 0.29297-1.1797-0.16016-1.2383-0.039062-1.4805-0.042969-1.4609 0.074219-1.0586-0.29688-1.1406-0.32031-1.0352-0.65625-1.2227 0.375-0.72266 1.1484-1.0391 0.43359-1.2188 0.015625-1.0586-0.19922-1.4414-0.0625-1.0781 0.49609-1.0625 0.21484-1.3359-0.48047-0.92188-0.41797-1.2383-0.61328-1.0781-0.57812-0.97656-0.59766-1.2812-0.003906-1.2383-0.078125-0.41797-1.1719-0.61719-0.79297-0.79688-1.1719-0.27734-1.2305-0.51953-0.95312-0.39844-1.0742-0.99609-1.1094-0.89844-0.53516-1.2773-0.69531-0.98047-0.35938-1.2969-0.14062-0.96094 0.40234-0.98047 0.60156-1 0.11719-1.1211-0.23828-0.77734-0.81641-0.99609-0.27734-0.82031-0.61719-0.95703-0.51953-0.9375-0.93359-0.83984-0.57422-1.2578-0.97266-0.65625-0.83594-0.55859-1.0312-0.9375-0.85547-0.69922-0.87109-0.41406-0.95312-0.53906-1.4297-1.1797-0.32031-1.5156 0.058594-1.082 0.23438-0.84766-0.66016 0.32422-0.96875 0.14844-1.0508-0.39453-1.0625-0.023437-1.1914-0.64062-0.83203-0.35547-1.2656-1.0039-0.42188-0.14453-1.0156-0.76563-1.1797 0.023438-1.207 0.8125-0.90234 0.57812-1.1875 0.53125-1.0938 0.52734-0.96875-0.12891-1.2969-0.32031-1.043 0.62109-0.99219 0.51172-0.88281 0.37891-1.2578-0.16797-1.0859-0.32031-0.96094-0.12109-1.1016 0.34766-0.96484 1.0039-0.45312 0.73828-0.69531 0.78125-0.71094 0.97656-0.93359 1.0508-0.46875 1.0391-0.32812 1.0352-0.16406 1.2422 0.51562 0.72656 0.69922 0.80469 0.66406 1.1211-0.69531 1.1133-0.48047 0.49609-1.0977-0.0625-1.1328-0.27734-1.2109 0.81641-0.78906 0.32812-1.2266-0.21875-2.0117 0.24219-1.1992-0.35156-1.043-0.27344-3.4297-0.17578-1.082-0.3125-1.3789-0.53516-1.6328-0.98828-1.6992-0.59375-1.5-0.25-1.1172-0.089844-1.2188 0.10156-1.4297 0.25-1.1328 0.046875-3.2109 0.51953-1.5352 0.30078-1.2188v-1.1211l0.64844-1.1758 0.6875-0.9375 1.1367-1.9023 0.77734-2.3984-0.13281-2.1094-0.75391-4.5195-0.16797-1.0156 0.042969-1.4961 0.33984-1.1211 0.32031-1.5156 0.0625-1.3398-0.46875-1.543-0.79297-2.2422-0.21484-2.7969 0.16406-1.4141 0.25781-1.0234 0.39062-1.2578 0.32422-1.0977-0.14844-1.3477-0.050781-1.0078 0.27344-1.8828 0.18359-1.1445 0.55859-1.418 0.39453-1 1.1953-1.2383 0.81641-1.0469 1.0938-1.9258 0.39453-0.95703 0.64453-0.83203 1.2539 0.019531 1.2305-0.26953 1.1758-0.35156 1.9375-2.1641 0.61719-1.0039 0.37109-1.043 0.30859-1.7305-0.035157-1.7539-0.25391-2.6602 0.082031-1.0234 0.4375-1.6328 0.5625-2.9102 0.61719-1.5938 0.35938-1.1641 0.24219-1.9297 0.38281-1.0039 0.46875-1.0234 0.57031-1.1836 0.75-1.0391 0.57812-0.98047 0.94922-0.57812-0.30469-1.0117 0.34375-1.0078 0.90625-0.69922 0.80469-0.72266 0.36328-0.98438 0.4375-1.6016 0.71875-1.5742 0.79688-1.418 1.6953-2.5469 1.0547-1.7109 1.6172-2.2305 0.93359-1.6953 0.78125-2.2266 0.5-2.25-0.054688-1.3203 0.46094-2.4297 0.32031-1.6953-0.29297-1.5977-0.17578-1.9531 1.0078 0.007813 1.0703 0.53125 1.3359 0.23438 1.2734 0.13672 1.0703-0.59766 0.035156-1.4258 0.97266-0.5 0.93359 0.80078 1.0391 0.83203 1.0352 0.96484 0.87109-0.52734 0.67188-1.0312 0.83594-0.5625 1.4414-0.42969 1.1016-0.03125 0.97266-0.73047 1.3047-0.66406 1.1055 0.16797 1.4375-0.12891 1.4414-0.29688 1-0.15625 1.6172-0.17188 1.0703-0.42969 1.0039-0.42969 1.3086-0.59766 1.2383-0.16406 0.96875-0.36328 1.4766-0.33203 1.0625-0.6875 0.89453-0.77344 1.1211-0.625 1.6758-0.39844 1.4727-1.0938 1.2734-0.39844 1.2188 0.15625 1.625 0.18359 1.2734-0.39844 1.0352-0.69531 1.4609-0.46484 1.1562-0.37109 0.92969-0.39453 0.93359-0.80859 1.0938-0.92188 0.49609-0.91016 0.85547-1.9258 0.46094-1.1641 1.668-2.3242 1.1133-1.3594 0.67578-1.2617 1.2539-1.1211 0.75391-1.1797 0.37891-1.0625 1.2539-1.2227 0.53906-1.0664 0.66016-0.87109 0.39844-1.3906 0.054688-1.4219 0.25781-1.4766 0.30078-1.0469 0.35938-1.1211 0.082032-1.3398 0.35938-1.3633-0.011719-1.0938 1.3984 0.078125 1.1016 0.23047 1.2344-0.015625 1.1016-0.42188 1.2344-0.19531 1.3633 0.082031 1.0195 0.082031 1.1875-0.45312 0.96875-0.52344 1.1992-0.0625 0.95703 0.375 0.82031 0.58984 0.95312 0.3125 0.76953 0.91406 0.89062 0.76953 1.1836 0.097656 1.0195-0.42188 1.332-0.22656 1.3164 0.49219 1.1797 1.0117 0.82422 0.62109 1.0352 0.60547 1.1562-0.10547 1.1953 0.67969 1.3477 0.085938 1.1836-0.71875 1.0039-0.62109 1.0352 0.44141 0.99219 0.18359 1-0.3125 1.1328-0.55078 1.0156-0.21094 0.23047-1.1484 0.96094-0.78906 0.49609-1.082 1.3242-0.26172 0.99219-1.0508 0.72656-0.75391z" fill="#ccc" fill-rule="evenodd"/>
<path d="m146.99 256.01 0.66406 0.23047 1.1211 0.29297 0.99219 0.33203 1.4219 0.36328 0.92578 0.85156 0.66016 1.4141 0.72266 0.91797 2.668 0.75781 1.4102 0.89062 1.4688 0.58984 1.1289 0.57422 1.5898 0.63281 1.2109-0.082031 1.2305-0.70703 0.45703-1.0625 1.25 0.097657 0.21484 1.4219 0.53906 1.3008 0.85156 0.76953 0.83203 0.57031 1.0117-0.19531 1.5078 0.25781 0.97266 0.98438 1.4883 0.45703 2.0234-0.49219 1.2969 0.21094 1.9805 0.85156 1.168 0.57812 1.1914 0.61328 1.3867 0.64844 1.2305 0.80859 1.3672 1.0859 0.89453 0.92578 1.2695 1.8125 1.8242 2.1133 1.2305 1.2617 1.6484 1.2812 1.9023 0.86719 1.2695 0.8125 1.0078 0.72656 1.7148 1.1094 1.1289 1.1211 0.79297 0.67188 0.97656 0.95312 0.21875 1.0547-1.2188 5.8164-1.2734 4.1406-0.28125 1.457-0.21875 1.8945-0.8125 2.7969-1.4141 4.0039-1.1719 2.5391-0.71484 1.7969-0.45703 0.96484-1.2539 3.1914-1.1719 2.6602-0.57812 1.0234 0.24609 1.3203-0.12891 1.4023-0.19531 1.1211-0.55859 1.6172 0.25391 1.1055 0.77734 1.457 0.058594 1.3203 0.11328 1.4766 1.2891 2.3516 0.73438 1.5391 0.046875 1.2188-0.019531 1.125 0.37109 1.0469 0.16016 1.2578 1.0547 1.3594 1.9492 0.47266 1.793 1.207 1.0547 0.26172 1.2188 0.91016 0.71484 0.72656 0.54688 0.87891-2.3242 2.25-0.78906 1.2578-0.375 1.2031-1.3242 8.7461-0.63281 2.4609-0.44531 1.0586-1.0781 1.1094-1.3398 0.91406-1.1094 1.5664-0.58984 0.91406-2.0898 0.65625-1.4023 0.68359-1.0117 0.78516-2.1797 1.3164-4.2266 3.3477-0.80078 1.2578-1.0781 1.2148-0.94531 0.94531-1.3242 1.1094-5.1992 4.2148-6.125 6.2773-2.9609 2.6719-1.9531 1.8828-1.207 1.0703-0.97266 0.92578-1.1211 1.457-1.875 1.5703-6.0273 7.9023-0.84766 1.3633-0.79297 3.0352-0.003906 2.6719 0.15625 1.3086 0.42188 1.3633 0.57422 1.1602 1.082 1.5938 3.4609 3.8477 1.3164 1.2578 2.0586 2.4648 1.0547 1.3594 0.57812 0.95312 0.40625 0.95312 0.37109 0.99219 0.20312 1.0391 0.28125 1.5625 0.54297 1.1836 0.1875 1.7422 0.12109 1.3047 0.55859 0.9375 0.87891 1.1797 1.1328 1.5469 0.58203 0.92578 0.65625 1.0039 0.69141 1.4766 0.47266 1.1836 0.14844 1.0352 0.11328 1.4844 0.60156 1.0508 0.33203 1.1719-0.43359 1.3203-0.98828 0.86719-0.96875 0.86719 0.11328 1.0391-0.84766 0.70703-0.86719 0.54297-0.28906 1.0469-2.0742 0.13672-1.3359 0.085938-1.5352 0.64844-1.1836-0.46875-1.9102 0.71484-1.8867 0.73828-1.3945 0.27344h-1.3672l-1.75-0.46484-2.8711-0.53125-2.4805 0.16406-1.4688-0.089843-1.1758-0.28125-1.0469-0.29297-1.0625-0.25391-1.4336-0.20312-1.25-0.085938-1.4375 0.066406-1.5039 0.37109-1.2188 0.066406-1.2148 0.16797-2.1641 0.46875-2.1211 0.76953-1.3164 0.66016-1.2383 0.97266-0.92578 1.1523-1.2266 0.85938-0.55078 0.95312-0.089843 1.0625 0.69531 0.84766-0.19922 1.2578 0.32031 1.2539 0.98438 0.20312 1.0703 0.36719 1.5156 0.84766 0.75391 0.88672 0.27734 1.1094-0.57031 1.1797-0.54297 0.92188-0.87891 0.96094-0.77734 1.1641-0.21094 1.1719-1.0508 0.74609-1.2461 0.31641-0.84766 1.5117-0.94531 1.2188-1.1445 0.92578-0.94141 0.44141-1.1289-0.41016-1.4375-0.31641-1.1211-0.61328-0.96094-0.58594-1.3477-0.4375-1.0234-0.078125-0.97656 0.49609-1.0547 1.043-0.66016 0.90625-0.24609 1.0156-0.33984 1.1836-0.0625 1.207-0.88281 0.93359-1.3906 0.46875-1.1094-0.10547 0.14062 1.2188-0.55078 0.87109-0.29688 1.3008-0.48047 1.3516-0.11328 1.6445-0.25391 1.2578-0.38672 1.0508 0.29688 1.9688-0.87109 0.50391-1.2305 0.72266-0.9375-0.40234-0.61328-0.93359-0.58594-0.96484-1.043-0.74609-1.2305-0.34766-1.1758-0.082031-0.87891-0.61328h-1.043l-1.2812-0.078125-1.0703-0.21484-1.4688-0.027344-0.80078-0.74609-0.75781 0.69141-0.99219 0.43359-1.0273 0.34766-1.168 0.14844-1.0469-0.21094-1.1719-0.078125-1.2148 0.054688-1.375-0.03125-1.0273-0.3125-1.5586 0.375-1.0898 0.78906-1.0703 0.39844-0.90625-0.75391-0.94922-1.3789-0.73438-0.77734-0.85156-0.55078-0.74219-0.875-0.019531-1.4375-0.0625-1.2148-1.8125-0.5625-1.1523-0.40625-1.0312-0.1875-1.4648-0.62109-1.457 0.15625-1.3516-0.4375-1.3711-0.59375-0.99609-0.59375-0.52344-1.4922 0.17969-1-0.66016-0.99219-1.3984 0.29297-1.1797-0.16016-1.2383-0.039062-1.4805-0.042969-1.4609 0.074219-1.0586-0.29688-1.1406-0.32031-1.0352-0.65625-1.2227 0.375-0.72266 1.1484-1.0391 0.43359-1.2188 0.015625-1.0586-0.19922-1.4414-0.0625-1.0781 0.49609-1.0625 0.21484-1.3359-0.48047-0.92188-0.41797-1.2383-0.61328-1.0781-0.57812-0.97656-0.59766-1.2812-0.003906-1.2383-0.078125-0.41797-1.1719-0.61719-0.79297-0.79688-1.1719-0.27734-1.2305-0.51953-0.95312-0.39844-1.0742-0.99609-1.1094-0.89844-0.53516-1.2773-0.69531-0.98047-0.35938-1.2969-0.14062-0.96094 0.40234-0.98047 0.60156-1 0.11719-1.1211-0.23828-0.77734-0.81641-0.99609-0.27734-0.82031-0.61719-0.95703-0.51953-0.9375-0.93359-0.83984-0.57422-1.2578-0.97266-0.65625-0.83594-0.55859-1.0312-0.9375-0.85547-0.69922-0.87109-0.41406-0.95312-0.53906-1.4297-1.1797-0.32031-1.5156 0.058594-1.082 0.23438-0.84766-0.66016 0.32422-0.96875 0.14844-1.0508-0.39453-1.0625-0.023437-1.1914-0.64062-0.83203-0.35547-1.2656-1.0039-0.42188-0.14453-1.0156-0.76563-1.1797 0.023438-1.207 0.8125-0.90234 0.57812-1.1875 0.53125-1.0938 0.52734-0.96875-0.12891-1.2969-0.32031-1.043 0.62109-0.99219 0.51172-0.88281 0.37891-1.2578-0.16797-1.0859-0.32031-0.96094-0.12109-1.1016 0.34766-0.96484 1.0039-0.45312 0.73828-0.69531 0.78125-0.71094 0.97656-0.93359 1.0508-0.46875 1.0391-0.32812 1.0352-0.16406 1.2422 0.51562 0.72656 0.69922 0.80469 0.66406 1.1211-0.69531 1.1133-0.48047 0.49609-1.0977-0.0625-1.1328-0.27734-1.2109 0.81641-0.78906 0.32812-1.2266-0.21875-2.0117 0.24219-1.1992-0.35156-1.043-0.27344-3.4297-0.17578-1.082-0.3125-1.3789-0.53516-1.6328-0.98828-1.6992-0.59375-1.5-0.25-1.1172-0.089844-1.2188 0.10156-1.4297 0.25-1.1328 0.046875-3.2109 0.51953-1.5352 0.30078-1.2188v-1.1211l0.64844-1.1758 0.6875-0.9375 1.1367-1.9023 0.77734-2.3984-0.13281-2.1094-0.75391-4.5195-0.16797-1.0156 0.042969-1.4961 0.33984-1.1211 0.32031-1.5156 0.0625-1.3398-0.46875-1.543-0.79297-2.2422-0.21484-2.7969 0.16406-1.4141 0.25781-1.0234 0.39062-1.2578 0.32422-1.0977-0.14844-1.3477-0.050781-1.0078 0.27344-1.8828 0.18359-1.1445 0.55859-1.418 0.39453-1 1.1953-1.2383 0.81641-1.0469 1.0938-1.9258 0.39453-0.95703 0.64453-0.83203 1.2539 0.019531 1.2305-0.26953 1.1758-0.35156 1.9375-2.1641 0.61719-1.0039 0.37109-1.043 0.30859-1.7305-0.035157-1.7539-0.25391-2.6602 0.082031-1.0234 0.4375-1.6328 0.5625-2.9102 0.61719-1.5938 0.35938-1.1641 0.24219-1.9297 0.38281-1.0039 0.46875-1.0234 0.57031-1.1836 0.75-1.0391 0.57812-0.98047 0.94922-0.57812-0.30469-1.0117 0.34375-1.0078 0.90625-0.69922 0.80469-0.72266 0.36328-0.98438 0.4375-1.6016 0.71875-1.5742 0.79688-1.418 1.6953-2.5469 1.0547-1.7109 1.6172-2.2305 0.93359-1.6953 0.78125-2.2266 0.5-2.25-0.054688-1.3203 0.46094-2.4297 0.32031-1.6953-0.29297-1.5977-0.17578-1.9531 1.0078 0.007813 1.0703 0.53125 1.3359 0.23438 1.2734 0.13672 1.0703-0.59766 0.035156-1.4258 0.97266-0.5 0.93359 0.80078 1.0391 0.83203 1.0352 0.96484 0.87109-0.52734 0.67188-1.0312 0.83594-0.5625 1.4414-0.42969 1.1016-0.03125 0.97266-0.73047 1.3047-0.66406 1.1055 0.16797 1.4375-0.12891 1.4414-0.29688 1-0.15625 1.6172-0.17188 1.0703-0.42969 1.0039-0.42969 1.3086-0.59766 1.2383-0.16406 0.96875-0.36328 1.4766-0.33203 1.0625-0.6875 0.89453-0.77344 1.1211-0.625 1.6758-0.39844 1.4727-1.0938 1.2734-0.39844 1.2188 0.15625 1.625 0.18359 1.2734-0.39844 1.0352-0.69531 1.4609-0.46484 1.1562-0.37109 0.92969-0.39453 0.93359-0.80859 1.0938-0.92188 0.49609-0.91016 0.85547-1.9258 0.46094-1.1641 1.668-2.3242 1.1133-1.3594 0.67578-1.2617 1.2539-1.1211 0.75391-1.1797 0.37891-1.0625 1.2539-1.2227 0.53906-1.0664 0.66016-0.87109 0.39844-1.3906 0.054688-1.4219 0.25781-1.4766 0.30078-1.0469 0.35938-1.1211 0.082032-1.3398 0.35938-1.3633-0.011719-1.0938 1.3984 0.078125 1.1016 0.23047 1.2344-0.015625 1.1016-0.42188 1.2344-0.19531 1.3633 0.082031 1.0195 0.082031 1.1875-0.45312 0.96875-0.52344 1.1992-0.0625 0.95703 0.375 0.82031 0.58984 0.95312 0.3125 0.76953 0.91406 0.89062 0.76953 1.1836 0.097656 1.0195-0.42188 1.332-0.22656 1.3164 0.49219 1.1797 1.0117 0.82422 0.62109 1.0352 0.60547 1.1562-0.10547 1.1953 0.67969 1.3477 0.085938 1.1836-0.71875 1.0039-0.62109 1.0352 0.44141 0.99219 0.18359 1-0.3125 1.1328-0.55078 1.0156-0.21094 0.23047-1.1484 0.96094-0.78906 0.49609-1.082 1.3242-0.26172 0.99219-1.0508 0.72656-0.75391 0.95703-0.16016" fill="none" stroke="#fff" stroke-linecap="round" stroke-linejoin="round" stroke-miterlimit="10" stroke-width="2"/>
<path d="m372.24 83.082 0.53516 0.058594 1.8789 0.80469 1.7305 1.0117 0.87891 0.6875 1.5273 1.2578 1.8555 1.9102 1.4453 1.5117 0.80859 1.5586 1.3047 4.1992 0.34375 1.8945 1.3867 0.078125 1.168 0.058593 1.9375-0.41797 2.7734-0.082032 0.98828 0.15625-0.69141 1.4023-0.74609 3.0508-0.32031 1.5938-0.11328 1.3984-0.17188 5.4375-0.29297 5.1953-0.17578 1.1836-0.20703 1.5898-1.6289 3.2969-1.8203 3.3867-0.72266 1.3867-1.1523 0.60156-1.0547 0.8125-0.51172 1.5117-0.42578 2.1484-0.59766 3.7852-0.74219 8.6523-0.45703 2.6992-0.66797 2.8828 0.43359 1.4961 1.2578 1.9297-0.023438 2.125-1.1016 1.3945-1.2773 0.47266-1.1836 0.51953-1.1836 0.37891-0.94922 1.8945-0.85156 1.8008-0.75781 1.9414 1.2812 3.0781 0.47266 1.6094 0.71094 0.80469 1.3242 1.6562 0.47656 0.96484 1.4023 0.28125 0.4375 1.3867-1.0078 2.3242-0.94531 4.4766-0.45703 0.96094-1.4922 1.5352-0.73438 1.2734-0.94531 0.65625-1.2617 0.61719-0.49609 0.97656-1.0781 1.2812-0.75 1.4258v1.4023l0.49609 1.6406 0.41016 1.4375 1.2305 1.1797 2.0547 0.51562 3.8008 0.61328 4.832 1.625 1.4297 2.3828-0.89062 1.4805-0.11719 1.0703-0.19531 1-0.31641 2.0352v1.0469l0.23828 1.6133 0.125 2.4688 0.12109 1.0039 1.1914 4.5547 3.1289 8.2656 0.85547 6.3477 2.6875 5.0664 0.18359 1.7578 0.73438 1.3203 1.0508 0.58984 0.48047 1.3828 0.98438 1.0938-1.3008 0.14844-1.1523 0.4375-0.99219 0.62891-1.2852 1.7188-0.875 0.80859-3.5352 1.0703-1.2109 0.23828-1.4883 0.375-1.1914-0.13672-1.0898-0.019531-1.1562-0.42969-1.5273-0.67188-1.75-1.1797-1.4102-0.98438-0.93359-0.375-1.4688-0.13672-0.99219-0.58984-0.79688-0.67188-1.8281-1.1016-1.7695-0.80859-2.1641-1.8711-0.95312-1.2812-0.28125-1.5781-0.31641-1.0469-0.65625-1.0625-1.8281-1.9141-0.85547-0.76953-0.8125-0.58984-1.3516-0.84766-2.3477-2.6211-1.5469-1.0469-1.2305-0.55078-2.0273-2.2656-0.92188-0.46875-0.80859-0.64062-0.8125-0.73047-0.82812-0.76562-1-0.015625-1.0664-0.34375-0.90625-0.55078-0.34766-1.332-0.75-0.77734-0.42188-1.1953-0.78516-0.86719-1.2109-0.37109-1.207-0.074219-0.81641-1.0742-0.70703-1.0742 0.41016-0.94531-0.22266-0.99219-0.066406-1.2188-0.76172-1.9961-0.35156-1.1133-1.0078-0.40625-0.96875-0.53125-1.0547 0.082032-0.066407-1.1445-1.1172-0.11719-1.125 0.8125-0.99219 0.54688-1.1836-0.19922-0.94922 0.36328-1.1289-0.21094-1.0117 0.48828-1.0312 0.13281-1.0273-0.082032-1.6055-0.089843-1.0234-0.10938-1.2031-0.52344-0.91016-0.48438-0.44141 1.2695-1.0117-0.0625-0.98828 0.90625-0.99609 0.35547-0.8125-0.92578-0.035157-1.1016 0.71484-0.76562 1.1602-0.39844 0.82422-0.84766-0.15625-1.8516-0.53516-1.7383 0.21875-1.0625 0.62891-0.87891-0.77344-0.66016-1.1836 0.29688-1.2266 0.058594-1.0508-0.25 0.035156-1.3555 1.2461-0.78516 0.87109-0.68359 0.89844-2.1836 0.28516-1.1641 0.30859-1.418 1.125-0.625 1.1523-0.16016 1.0742-0.17578 1.6445-0.32031 0.95312-0.88672 0.5625-1.2656 0.50781-1.1602 0.78125-0.86328 0.44141-1.1133-0.11719-1.1406-0.20703-3.2266-0.11719-1.582-0.20312-1.2891 0.085937-1.0859-0.21484-1.4219-1.0117-2.6172-0.39062-0.95703-0.54297-1.1367-0.87891-0.70703-1.3359 0.35938 0.85938 0.83203-0.023437 1.168 0.76953 0.80469 0.41797 1.043-1.1875 0.51562-0.71875-0.90234-1.0273-0.50781-0.82422-0.57422 0.097656 1.375 0.51953 1.1953-0.52734 0.85156-0.91797 0.44922-1.0273 0.007813-1.293-0.074219-1.2188 0.09375 0.16016 1.1016 1.0156 0.19141 1.1016 0.46094 0.58594 1.0078-0.66016 0.92578-1.0508 0.24219-1.0586-0.77344-0.54297-0.90234-0.38672-0.96875-0.63281 0.91016-0.88672 0.75391-0.95312 0.67969-1.4688 0.98438-1.9062 0.90625-1.5469 0.63281-1.1133 0.25781-1.625 0.29688-2.0078 0.058594-1.4844 0.17578-1.25 0.61328-0.77734 1.1641-0.59375 0.94922-1.0508 1.3594-1.2109 1.1836-0.63281 2.3281-0.89453 1.1836-1.3086 0.80859-1.0312 1.0078-1.2539 1.0859-0.94922 0.75-1.1133 0.55078-1.0312 0.82812-1.3711 0.51172-1.1289-0.19141-1.5273-0.17969-1.0156 0.73047-0.92969 0.43359-1.5117 0.25781-1.3281 0.23828-1.3516-0.082032-1.4688-0.64844-1.1875-0.53125-0.55859-0.96875-0.67188-1.0664-1.3711-0.21484-1.1914 0.13672-1.8047-0.13672-1.0742-0.27734-0.97266 0.25781-0.59375 0.92578-1.1133 0.29688-0.95312-0.33594-0.99219-0.58984-1.1289-0.82812-0.97656-0.30078-0.92969-0.37109-1.3242-0.96094-1.2891 0.3125-1.3281-0.097656-1.6289-0.49219-1.2695 0.21484-1.2266-0.21484-1.2891 0.097657-1.8047 0.31641-0.97266-0.27734-1.2109 0.23438-1.4102 0.10156-1.0078 0.097656-0.93359 0.58984-1.7266 0.375-1.0898 0.71094-2.9961 0.13672-1.4062 0.21484-2.0039-0.039063-2.5391-0.039062-1.3711 0.55078-1.168-0.21484-1.7266-0.32031-1.7266 0.31641-1.168 0.27734-1.6484 0.51172-1.7422-0.078125-2.5195-1.2812-1.168 0.074219-1.3711-0.43359-1.1133-0.76953-1.1289-0.21484-1.4258 0.41406-0.97266 0.53125-1.8477 0.39453-1.4062-0.25781-0.91016-0.49609-1.2539 0.41797-1.3477 0.17578-1.4492-0.16016-0.92969 0.375-1.1328 0.88672-1.168 0.76562-0.85156 1.0469-1.0742 0.13672-1.3281-0.15625-1.5078 0.17578-0.99219-0.47656-1.0508-0.058594-0.99219-0.29688-2.5391-2.0508-0.63281-1.2227 0.40625-1.2422-1.082-0.80469 0.73047-1 0.17578-1.2539 0.054688-1.2305-0.027344-1.0273 0.27734-1.2305 0.91016-0.72656 1.4648-0.44922 0.93359-0.75391 0.074219-1.1758-1.2344-0.98047-0.65625-1.1055 0.73438-0.90234 1.1836 0.25391-0.14844-1.2812 0.48047-1.0508 0.73047-0.80469 1.0352-0.75 1.0039-0.72656 0.98438-0.77734 0.95312-0.57812 0.88281-1 0.90625-0.45312 1.6172-0.097656 0.60547-1.3789 0.65625-0.77734 1.0078-0.20312-0.046875-1.0508-0.60547-1.0547-1.3398-0.32812-0.98047-0.47656-1.1367-0.42578-0.19922-1.4023 0.25-1.082 0.53125-0.85156 0.050781-1.1797 1.0352-0.25 1.7656-0.17188 1.4141-0.42578 1.3555 0.48047 0.5625-1.0586 0.45312-1.0781-0.035157-1.25 0.75781-0.65625 0.87109 0.49609 0.80078-0.625 1.0078-0.15625 1.4648 0.58203 0.58984-0.86719-0.46094-0.93359 0.81641-0.67578-0.003907-1.1914 1.0039-0.023438 0.94531-0.37891 0.82422-0.59375 0.87891 0.53125 0.99219-0.28516 0.91797-0.45312 0.65625-0.77344-0.44141-0.99219-0.43359-0.91016 0.62891-0.80859-0.33203-0.94922 0.50391-0.90625-0.078125-1.0078-0.46484-0.89062 0.51562-0.88672-0.47266-0.9375-0.78516-0.65234-0.12891-1.0352-1.0039 0.14844-0.73438-0.69141-1-0.066406-0.60938-0.82422-0.35156-0.94922 0.074219-1.0508 0.42969-0.92969 0.84766-0.58984 0.3125-0.95703 0.98828-0.20703 1.0234 0.14453 1-0.011718 0.64844-0.80078 0.43359-0.92969 1.0547-0.17578 1.0547-0.25781 0.73047-0.71094-0.074219-1.0391 0.44922-0.90625-0.53125-0.86328-0.98438-0.28906-0.20703-0.98047-0.67969-0.74219-0.58203-0.81641-0.35547-0.94922-0.41406-0.97266 0.28125-1.293-0.64062-0.95312 0.23828-2.1914-0.42188-1.1836-0.37109-1.0469-0.26562-0.97656 0.12109-1.0078 0.94141-0.41797 0.99219 0.16016 0.98438 0.39844 0.98828 0.31641 1.0156 0.027344 0.78125-0.64062 0.99609-0.21484 0.98047-0.55469 0.98438-0.39844 0.97266-0.24609h1.207l1.0391-0.066407 1.0508-0.32812 1.0742-0.20312 0.96875-0.33203 1.1367 0.10547 1.1953-0.23047 0.83984 0.57031 0.44922 0.89844 0.18359 1.0039 0.80469 0.62891 0.87109-0.51953 0.61328-0.81641 1.0195-0.16016 0.97266-0.42969 0.81641-0.60156 0.63672-0.83984 0.57812-0.83203 0.80859-0.59766 1.1602-0.30469 1.2109 0.30859 1.0352-0.14453 1.0977-0.035157 0.98438-0.32031 0.90625-0.60156 0.81641-0.69531 0.59375-0.85938 0.71484-0.72266 0.79688 0.60938 1.0977 0.0625 1.0117 0.17969 0.91016 0.54688 0.95703 0.28906 0.69531 0.76953 0.36328 0.97656 1.4727 0.26562 4.1836 0.75391h1.4453l1.9062 0.050781 1.6523-0.20312 1.4453-0.25781 1.4453-0.30859 1.0312-0.30469 1.2383-0.46484 0.9375-0.37109 0.66016-0.85938 2.6406-1.0938 1.7109-0.70312 0.89844-0.68359 0.85938-0.92969 0.97266-1.2031 7.7188-9.207 1.1094-0.03125 3.7266 1.418 1.4766 0.91406 1.3125 0.53906 2.2148 1.1367 1.1758 0.65625 1.832 0.5 1.1172 0.35938 1.3359 0.77344 1.0742 0.46094 1.3555 0.67578 0.43359 1.0977 0.63281 0.82422-0.4375 1.2188-0.37109 0.94531 0.33984 1.0703 0.32812 1.207 0.15625 1.0391 0.41016 0.93359 0.30859 1.2383 1.0234 0.73047 1.1094 0.44141 1.2383 0.23438 1.0156-0.16797 1.2383 0.13281 1.2891-0.11328 0.97656 0.23438 1.082-0.074219 1.1055 0.15234 1.0234 0.24609 1.0156-0.10938 0.87109 0.57422 1.0156-0.32812 1.0156-0.15625 1.1289 0.0625 0.90625-0.48047 1.2344 0.19531 0.97656 0.25781 1.1953 0.93359 2.7383-1.457 1.5039-0.90625 1.6055-0.73047 2.0352-0.89062 1.5078-1.1602 2.0273-2.1719 0.59766-1.1953 0.39844-1.5547 2.1562-1.0391 0.95703-1.0352 0.79688-1.5938 1.2344-1.5156 1.5156-1.1992 2.2031-1.5234 1.4492-0.86719 1.0664-0.60938 1.6133-1.043 0.74219-0.72266 1.2344-1.2188 1.2734-1.2539 1.0664-1.1016 1.3281-0.57031 1.6445 1.6367 1.0586 1.7734 1.043 2.0586 0.82422 0.99219 1.2773 0.80859 0.99219-0.30859 0.87109-1.3711-0.089844-1.0898-0.96484-0.96484-1.1914-0.86328-1.1484-1.1211-1.1172-1.4375-0.27734-1.3047-0.15625-1.4023 0.11328-1.2422 0.74609-1.668 0.53516-0.89453 1.5625-0.67578 1.5586-0.375 1.582-0.12109z" fill="#ccc" fill-rule="evenodd"/>
<path d="m372.24 83.082 0.53516 0.058594 1.8789 0.80469 1.7305 1.0117 0.87891 0.6875 1.5273 1.2578 1.8555 1.9102 1.4453 1.5117 0.80859 1.5586 1.3047 4.1992 0.34375 1.8945 1.3867 0.078125 1.168 0.058593 1.9375-0.41797 2.7734-0.082032 0.98828 0.15625-0.69141 1.4023-0.74609 3.0508-0.32031 1.5938-0.11328 1.3984-0.17188 5.4375-0.29297 5.1953-0.17578 1.1836-0.20703 1.5898-1.6289 3.2969-1.8203 3.3867-0.72266 1.3867-1.1523 0.60156-1.0547 0.8125-0.51172 1.5117-0.42578 2.1484-0.59766 3.7852-0.74219 8.6523-0.45703 2.6992-0.66797 2.8828 0.43359 1.4961 1.2578 1.9297-0.023438 2.125-1.1016 1.3945-1.2773 0.47266-1.1836 0.51953-1.1836 0.37891-0.94922 1.8945-0.85156 1.8008-0.75781 1.9414 1.2812 3.0781 0.47266 1.6094 0.71094 0.80469 1.3242 1.6562 0.47656 0.96484 1.4023 0.28125 0.4375 1.3867-1.0078 2.3242-0.94531 4.4766-0.45703 0.96094-1.4922 1.5352-0.73438 1.2734-0.94531 0.65625-1.2617 0.61719-0.49609 0.97656-1.0781 1.2812-0.75 1.4258v1.4023l0.49609 1.6406 0.41016 1.4375 1.2305 1.1797 2.0547 0.51562 3.8008 0.61328 4.832 1.625 1.4297 2.3828-0.89062 1.4805-0.11719 1.0703-0.19531 1-0.31641 2.0352v1.0469l0.23828 1.6133 0.125 2.4688 0.12109 1.0039 1.1914 4.5547 3.1289 8.2656 0.85547 6.3477 2.6875 5.0664 0.18359 1.7578 0.73438 1.3203 1.0508 0.58984 0.48047 1.3828 0.98438 1.0938-1.3008 0.14844-1.1523 0.4375-0.99219 0.62891-1.2852 1.7188-0.875 0.80859-3.5352 1.0703-1.2109 0.23828-1.4883 0.375-1.1914-0.13672-1.0898-0.019531-1.1562-0.42969-1.5273-0.67188-1.75-1.1797-1.4102-0.98438-0.93359-0.375-1.4688-0.13672-0.99219-0.58984-0.79688-0.67188-1.8281-1.1016-1.7695-0.80859-2.1641-1.8711-0.95312-1.2812-0.28125-1.5781-0.31641-1.0469-0.65625-1.0625-1.8281-1.9141-0.85547-0.76953-0.8125-0.58984-1.3516-0.84766-2.3477-2.6211-1.5469-1.0469-1.2305-0.55078-2.0273-2.2656-0.92188-0.46875-0.80859-0.64062-0.8125-0.73047-0.82812-0.76562-1-0.015625-1.0664-0.34375-0.90625-0.55078-0.34766-1.332-0.75-0.77734-0.42188-1.1953-0.78516-0.86719-1.2109-0.37109-1.207-0.074219-0.81641-1.0742-0.70703-1.0742 0.41016-0.94531-0.22266-0.99219-0.066406-1.2188-0.76172-1.9961-0.35156-1.1133-1.0078-0.40625-0.96875-0.53125-1.0547 0.082032-0.066407-1.1445-1.1172-0.11719-1.125 0.8125-0.99219 0.54688-1.1836-0.19922-0.94922 0.36328-1.1289-0.21094-1.0117 0.48828-1.0312 0.13281-1.0273-0.082032-1.6055-0.089843-1.0234-0.10938-1.2031-0.52344-0.91016-0.48438-0.44141 1.2695-1.0117-0.0625-0.98828 0.90625-0.99609 0.35547-0.8125-0.92578-0.035157-1.1016 0.71484-0.76562 1.1602-0.39844 0.82422-0.84766-0.15625-1.8516-0.53516-1.7383 0.21875-1.0625 0.62891-0.87891-0.77344-0.66016-1.1836 0.29688-1.2266 0.058594-1.0508-0.25 0.035156-1.3555 1.2461-0.78516 0.87109-0.68359 0.89844-2.1836 0.28516-1.1641 0.30859-1.418 1.125-0.625 1.1523-0.16016 1.0742-0.17578 1.6445-0.32031 0.95312-0.88672 0.5625-1.2656 0.50781-1.1602 0.78125-0.86328 0.44141-1.1133-0.11719-1.1406-0.20703-3.2266-0.11719-1.582-0.20312-1.2891 0.085937-1.0859-0.21484-1.4219-1.0117-2.6172-0.39062-0.95703-0.54297-1.1367-0.87891-0.70703-1.3359 0.35938 0.85938 0.83203-0.023437 1.168 0.76953 0.80469 0.41797 1.043-1.1875 0.51562-0.71875-0.90234-1.0273-0.50781-0.82422-0.57422 0.097656 1.375 0.51953 1.1953-0.52734 0.85156-0.91797 0.44922-1.0273 0.007813-1.293-0.074219-1.2188 0.09375 0.16016 1.1016 1.0156 0.19141 1.1016 0.46094 0.58594 1.0078-0.66016 0.92578-1.0508 0.24219-1.0586-0.77344-0.54297-0.90234-0.38672-0.96875-0.63281 0.91016-0.88672 0.75391-0.95312 0.67969-1.4688 0.98438-1.9062 0.90625-1.5469 0.63281-1.1133 0.25781-1.625 0.29688-2.0078 0.058594-1.4844 0.17578-1.25 0.61328-0.77734 1.1641-0.59375 0.94922-1.0508 1.3594-1.2109 1.1836-0.63281 2.3281-0.89453 1.1836-1.3086 0.80859-1.0312 1.0078-1.2539 1.0859-0.94922 0.75-1.1133 0.55078-1.0312 0.82812-1.3711 0.51172-1.1289-0.19141-1.5273-0.17969-1.0156 0.73047-0.92969 0.43359-1.5117 0.25781-1.3281 0.23828-1.3516-0.082032-1.4688-0.64844-1.1875-0.53125-0.55859-0.96875-0.67188-1.0664-1.3711-0.21484-1.1914 0.13672-1.8047-0.13672-1.0742-0.27734-0.97266 0.25781-0.59375 0.92578-1.1133 0.29688-0.95312-0.33594-0.99219-0.58984-1.1289-0.82812-0.97656-0.30078-0.92969-0.37109-1.3242-0.96094-1.2891 0.3125-1.3281-0.097656-1.6289-0.49219-1.2695 0.21484-1.2266-0.21484-1.2891 0.097657-1.8047 0.31641-0.97266-0.27734-1.2109 0.23438-1.4102 0.10156-1.0078 0.097656-0.93359 0.58984-1.7266 0.375-1.0898 0.71094-2.9961 0.13672-1.4062 0.21484-2.0039-0.039063-2.5391-0.039062-1.3711 0.55078-1.168-0.21484-1.7266-0.32031-1.7266 0.31641-1.168 0.27734-1.6484 0.51172-1.7422-0.078125-2.5195-1.2812-1.168 0.074219-1.3711-0.43359-1.1133-0.76953-1.1289-0.21484-1.4258 0.41406-0.97266 0.53125-1.8477 0.39453-1.4062-0.25781-0.91016-0.49609-1.2539 0.41797-1.3477 0.17578-1.4492-0.16016-0.92969 0.375-1.1328 0.88672-1.168 0.76562-0.85156 1.0469-1.0742 0.13672-1.3281-0.15625-1.5078 0.17578-0.99219-0.47656-1.0508-0.058594-0.99219-0.29688-2.5391-2.0508-0.63281-1.2227 0.40625-1.2422-1.082-0.80469 0.73047-1 0.17578-1.2539 0.054688-1.2305-0.027344-1.0273 0.27734-1.2305 0.91016-0.72656 1.4648-0.44922 0.93359-0.75391 0.074219-1.1758-1.2344-0.98047-0.65625-1.1055 0.73438-0.90234 1.1836 0.25391-0.14844-1.2812 0.48047-1.0508 0.73047-0.80469 1.0352-0.75 1.0039-0.72656 0.98438-0.77734 0.95312-0.57812 0.88281-1 0.90625-0.45312 1.6172-0.097656 0.60547-1.3789 0.65625-0.77734 1.0078-0.20312-0.046875-1.0508-0.60547-1.0547-1.3398-0.32812-0.98047-0.47656-1.1367-0.42578-0.19922-1.4023 0.25-1.082 0.53125-0.85156 0.050781-1.1797 1.0352-0.25 1.7656-0.17188 1.4141-0.42578 1.3555 0.48047 0.5625-1.0586 0.45312-1.0781-0.035157-1.25 0.75781-0.65625 0.87109 0.49609 0.80078-0.625 1.0078-0.15625 1.4648 0.58203 0.58984-0.86719-0.46094-0.93359 0.81641-0.67578-0.003907-1.1914 1.0039-0.023438 0.94531-0.37891 0.82422-0.59375 0.87891 0.53125 0.99219-0.28516 0.91797-0.45312 0.65625-0.77344-0.44141-0.99219-0.43359-0.91016 0.62891-0.80859-0.33203-0.94922 0.50391-0.90625-0.078125-1.0078-0.46484-0.89062 0.51562-0.88672-0.47266-0.9375-0.78516-0.65234-0.12891-1.0352-1.0039 0.14844-0.73438-0.69141-1-0.066406-0.60938-0.82422-0.35156-0.94922 0.074219-1.0508 0.42969-0.92969 0.84766-0.58984 0.3125-0.95703 0.98828-0.20703 1.0234 0.14453 1-0.011718 0.64844-0.80078 0.43359-0.92969 1.0547-0.17578 1.0547-0.25781 0.73047-0.71094-0.074219-1.0391 0.44922-0.90625-0.53125-0.86328-0.98438-0.28906-0.20703-0.98047-0.67969-0.74219-0.58203-0.81641-0.35547-0.94922-0.41406-0.97266 0.28125-1.293-0.64062-0.95312 0.23828-2.1914-0.42188-1.1836-0.37109-1.0469-0.26562-0.97656 0.12109-1.0078 0.94141-0.41797 0.99219 0.16016 0.98438 0.39844 0.98828 0.31641 1.0156 0.027344 0.78125-0.64062 0.99609-0.21484 0.98047-0.55469 0.98438-0.39844 0.97266-0.24609h1.207l1.0391-0.066407 1.0508-0.32812 1.0742-0.20312 0.96875-0.33203 1.1367 0.10547 1.1953-0.23047 0.83984 0.57031 0.44922 0.89844 0.18359 1.0039 0.80469 0.62891 0.87109-0.51953 0.61328-0.81641 1.0195-0.16016 0.97266-0.42969 0.81641-0.60156 0.63672-0.83984 0.57812-0.83203 0.80859-0.59766 1.1602-0.30469 1.2109 0.30859 1.0352-0.14453 1.0977-0.035157 0.98438-0.32031 0.90625-0.60156 0.81641-0.69531 0.59375-0.85938 0.71484-0.72266 0.79688 0.60938 1.0977 0.0625 1.0117 0.17969 0.91016 0.54688 0.95703 0.28906 0.69531 0.76953 0.36328 0.97656 1.4727 0.26562 4.1836 0.75391h1.4453l1.9062 0.050781 1.6523-0.20312 1.4453-0.25781 1.4453-0.30859 1.0312-0.30469 1.2383-0.46484 0.9375-0.37109 0.66016-0.85938 2.6406-1.0938 1.7109-0.70312 0.89844-0.68359 0.85938-0.92969 0.97266-1.2031 7.7188-9.207 1.1094-0.03125 3.7266 1.418 1.4766 0.91406 1.3125 0.53906 2.2148 1.1367 1.1758 0.65625 1.832 0.5 1.1172 0.35938 1.3359 0.77344 1.0742 0.46094 1.3555 0.67578 0.43359 1.0977 0.63281 0.82422-0.4375 1.2188-0.37109 0.94531 0.33984 1.0703 0.32812 1.207 0.15625 1.0391 0.41016 0.93359 0.30859 1.2383 1.0234 0.73047 1.1094 0.44141 1.2383 0.23438 1.0156-0.16797 1.2383 0.13281 1.2891-0.11328 0.97656 0.23438 1.082-0.074219 1.1055 0.15234 1.0234 0.24609 1.0156-0.10938 0.87109 0.57422 1.0156-0.32812 1.0156-0.15625 1.1289 0.0625 0.90625-0.48047 1.2344 0.19531 0.97656 0.25781 1.1953 0.93359 2.7383-1.457 1.5039-0.90625 1.6055-0.73047 2.0352-0.89062 1.5078-1.1602 2.0273-2.1719 0.59766-1.1953 0.39844-1.5547 2.1562-1.0391 0.95703-1.0352 0.79688-1.5938 1.2344-1.5156 1.5156-1.1992 2.2031-1.5234 1.4492-0.86719 1.0664-0.60938 1.6133-1.043 0.74219-0.72266 1.2344-1.2188 1.2734-1.2539 1.0664-1.1016 1.3281-0.57031 1.6445 1.6367 1.0586 1.7734 1.043 2.0586 0.82422 0.99219 1.2773 0.80859 0.99219-0.30859 0.87109-1.3711-0.089844-1.0898-0.96484-0.96484-1.1914-0.86328-1.1484-1.1211-1.1172-1.4375-0.27734-1.3047-0.15625-1.4023 0.11328-1.2422 0.74609-1.668 0.53516-0.89453 1.5625-0.67578 1.5586-0.375 1.582-0.12109 0.73047 0.097656" fill="none" stroke="#fff" stroke-linecap="round" stroke-linejoin="round" stroke-miterlimit="10" stroke-width="2"/>
<path d="m400.77 1.957 1.1406 0.035157 2.3203 0.8125 1.8555 0.92578 3.0195 2.668 4.0586 3.9453 3.3633 3.9453 1.0703 2.8828 0.90234 5.3516 1.8047 7.3008 2.8594 27.824 0.3125 4.4102 0.28516 4.6562 0.23828 4.0859-0.42578 1.9453-0.62109 2.043-1.0898 3.1836-0.10938 1.0586-0.94922 1.2266-2.5195 1.207-2.8164 0.76172-7.7695 3.4375-1.4141 2.7578-3.8047 4.1016-7.1445 2.6016-2.5312 2.6445-0.98828-0.15625-2.0781 0.023438-2.6328 0.47656-1.168-0.058593h-1.1875l-0.54297-1.9727-1.3047-4.1992-0.80859-1.5586-0.75391-0.79297-2.0078-2.0977-2.0664-1.7891-0.87891-0.6875-0.94922-0.55078-2.6602-1.2656-1.2656-0.15625-1.582 0.12109-1.5586 0.375-1.5625 0.67578-0.53516 0.89453-0.41797 0.98047-0.44141 1.9297 0.15625 1.4023 0.27734 1.3047 1.1172 1.4375 1.1484 1.1211 1.1914 0.86328 0.96484 0.96484 0.089844 1.0898-0.87109 1.3711-0.99219 0.30859-1.2773-0.80859-0.82422-0.99219-1.043-2.0586-1.0586-1.7734-1.0703-1.3242-1.0703-0.25391-1.3828 1.082-1.7891 1.7852-0.81641 0.85547-1.1602 1.0859-1.6133 1.043-1.0664 0.60938-1.4492 0.86719-2.2031 1.5234-1.5156 1.1992-1.2344 1.5156-0.79688 1.5938-0.95703 1.0352-1.3164 0.67969-1.0781 1.0781-0.75781 2.0312-1.5938 1.6602-1.25 1.2617-2.0391 0.92578-2.293 1.1055-1.5039 0.90625-2.0977 1.457-1.0742-0.32812-0.80859-0.64453-1.2188-0.38281-1.0312-0.003906-1.0195 0.62109-1.0547-0.16016-1.2383 0.28906-0.96484-0.28906-1.1133-0.27344-1.2031 0.13281-1.0508-0.24219-1.4336 0.007812-0.97656-0.23438-1.0469 0.13672-1.1094-0.12891-1.0625 0.039062-1.3711-0.082031-1.3008-0.49219-0.93359-0.54688-0.37891-1.0547-0.35156-1.0742-0.23438-1.2656-0.32812-1.207-0.33984-1.0703 0.37109-0.94531 0.51172-0.87109-0.57812-0.875-0.30078-1.0938-0.95703-0.65625-1.7344-0.78125-1.3359-0.77344-1.1172-0.35938-1.832-0.5-1.1758-0.65625-2.2148-1.1367-1.3125-0.53906-1.4766-0.91406-2.8789-1.2188-1.9414-0.1875 1.6953-2.3789 1.4961-1.6016 2.1367-2.3516 1.7969-1.2227 1.2305-1.1211 2.5508-1.8906 2.6719-2.207 1.0859-0.78516 1.0938-0.94531 1.043-1.207 1.7891-2.4688 0.91016-1.2578 0.76172-1.1875 0.47656-1.6367 0.14844-2.1445 0.039062-1.1328 0.003906-3.5273-0.15625-2.9102 0.10156-1.9492 0.35156-1.4805 0.52344-1.1289 0.45703-0.98438-0.23047-1.2539-0.51172-2.5352 0.019531-1.8125 0.22656-1.8984 0.30859-1.0469 0.79688-1.1328 0.79688-0.88672 0.55078-1.168-0.37109-1.1172-0.76172-0.76172-0.65625-0.8125-0.32031-1.0273-0.050781-1.4023-0.085937-1.0078 17.098-10.312 22.625-10.883 13.402-6.4492 1.9102-0.95703 1.4336-0.83594 3.0195-2.3828 0.98438-0.71094 2.3789-1.7227 3.4805-1.3945 3.3633-1.2734 4.7578-1.2773 4.2891-0.57812 1.7305-0.035157 4.0703-0.082031z" fill="#ccc" fill-rule="evenodd"/>
<path d="m400.77 1.957 1.1406 0.035157 2.3203 0.8125 1.8555 0.92578 3.0195 2.668 4.0586 3.9453 3.3633 3.9453 1.0703 2.8828 0.90234 5.3516 1.8047 7.3008 2.8594 27.824 0.3125 4.4102 0.28516 4.6562 0.23828 4.0859-0.42578 1.9453-0.62109 2.043-1.0898 3.1836-0.10938 1.0586-0.94922 1.2266-2.5195 1.207-2.8164 0.76172-7.7695 3.4375-1.4141 2.7578-3.8047 4.1016-7.1445 2.6016-2.5312 2.6445-0.98828-0.15625-2.0781 0.023438-2.6328 0.47656-1.168-0.058593h-1.1875l-0.54297-1.9727-1.3047-4.1992-0.80859-1.5586-0.75391-0.79297-2.0078-2.0977-2.0664-1.7891-0.87891-0.6875-0.94922-0.55078-2.6602-1.2656-1.2656-0.15625-1.582 0.12109-1.5586 0.375-1.5625 0.67578-0.53516 0.89453-0.41797 0.98047-0.44141 1.9297 0.15625 1.4023 0.27734 1.3047 1.1172 1.4375 1.1484 1.1211 1.1914 0.86328 0.96484 0.96484 0.089844 1.0898-0.87109 1.3711-0.99219 0.30859-1.2773-0.80859-0.82422-0.99219-1.043-2.0586-1.0586-1.7734-1.0703-1.3242-1.0703-0.25391-1.3828 1.082-1.7891 1.7852-0.81641 0.85547-1.1602 1.0859-1.6133 1.043-1.0664 0.60938-1.4492 0.86719-2.2031 1.5234-1.5156 1.1992-1.2344 1.5156-0.79688 1.5938-0.95703 1.0352-1.3164 0.67969-1.0781 1.0781-0.75781 2.0312-1.5938 1.6602-1.25 1.2617-2.0391 0.92578-2.293 1.1055-1.5039 0.90625-2.0977 1.457-1.0742-0.32812-0.80859-0.64453-1.2188-0.38281-1.0312-0.003906-1.0195 0.62109-1.0547-0.16016-1.2383 0.28906-0.96484-0.28906-1.1133-0.27344-1.2031 0.13281-1.0508-0.24219-1.4336 0.007812-0.97656-0.23438-1.0469 0.13672-1.1094-0.12891-1.0625 0.039062-1.3711-0.082031-1.3008-0.49219-0.93359-0.54688-0.37891-1.0547-0.35156-1.0742-0.23438-1.2656-0.32812-1.207-0.33984-1.0703 0.37109-0.94531 0.51172-0.87109-0.57812-0.875-0.30078-1.0938-0.95703-0.65625-1.7344-0.78125-1.3359-0.77344-1.1172-0.35938-1.832-0.5-1.1758-0.65625-2.2148-1.1367-1.3125-0.53906-1.4766-0.91406-2.8789-1.2188-1.9414-0.1875 1.6953-2.3789 1.4961-1.6016 2.1367-2.3516 1.7969-1.2227 1.2305-1.1211 2.5508-1.8906 2.6719-2.207 1.0859-0.78516 1.0938-0.94531 1.043-1.207 1.7891-2.4688 0.91016-1.2578 0.76172-1.1875 0.47656-1.6367 0.14844-2.1445 0.039062-1.1328 0.003906-3.5273-0.15625-2.9102 0.10156-1.9492 0.35156-1.4805 0.52344-1.1289 0.45703-0.98438-0.23047-1.2539-0.51172-2.5352 0.019531-1.8125 0.22656-1.8984 0.30859-1.0469 0.79688-1.1328 0.79688-0.88672 0.55078-1.168-0.37109-1.1172-0.76172-0.76172-0.65625-0.8125-0.32031-1.0273-0.050781-1.4023-0.085937-1.0078 17.098-10.312 22.625-10.883 13.402-6.4492 1.9102-0.95703 1.4336-0.83594 3.0195-2.3828 0.98438-0.71094 2.3789-1.7227 3.4805-1.3945 3.3633-1.2734 4.7578-1.2773 4.2891-0.57812 1.7305-0.035157 4.0703-0.082031 2.6875 0.082031" fill="none" stroke="#fff" stroke-linecap="round" stroke-linejoin="round" stroke-miterlimit="10" stroke-width="2"/>
<path d="m353.93 290.55 0.81641 0.023437 1.3711 0.37109 1.3203 0.57812 0.89453 0.6875-0.21094 1.0547 0.87109 1.1055 0.57812 1.582 0.39844 1.082 0.44531 0.89844 0.76562 0.87109 1.2148 0.92188-0.5 1.1055-1.0312 0.78125 0.86328 0.90234 0.74219 0.82422 1.1094 0.57422 0.25 1.3984 1.0664 0.90625 1.3594-0.61719 1.5898 0.36328 1.6172 1.1992 1.1523 0.94922 1.2031 1.543-0.875 0.55078-1.4492-0.35156-1.7578-0.18359-1.3242 0.59766-0.88672 0.70312-1.5938 0.78516-1.1367 0.51953-1.1797 0.84766-1.1328 0.4375-1.2461 0.16016-0.89062 0.53906-0.61719 1.5312-1.1992 1.1562-0.99219 0.93359-0.80859 0.59766-1.1797 2.0078-0.019531 1.5703-0.35156 1.0352-0.58203 1.0508-0.57812 1.5703-1.0625 1.0508-0.65234 1.1445 0.09375 1.2852-0.39844 1.4492 0.050781 1.1992 0.03125 1.3906-0.36719 1.0078-0.92578 0.51562-1.0508 0.60938-0.83203 1.0547 0.44141 1.2383 0.125 1.0547 0.042969 1.3633 0.49219 0.98828-0.39062 1.4961 0.80078 1.6641 0.33594 1.5703 0.66797 1.2031 0.12891 1.1758 0.80469 0.62891 0.28516 1.1602 0.30469 1.3242 0.92969 1.4219 0.015625 1.1211-0.80859 0.92578-0.89453 0.53125-1.5352 0.097656-1.3984 0.16016-1.043 0.87891-1.2695 0.69922-0.011719 1.7422 0.23047 1.2461 0.19141 1.207-0.63281 0.78125 0.11328 1.2227 0.18359 1-0.92578 0.40625-1.6055-0.60156-0.98828 0.49219-0.87891 0.50781-0.74609 0.78516-0.63672 0.92969 0.76172 1.2891 0.94922 1.3555 0.89844 1.1094 0.39453 1.1367-0.058594 1.2188-0.14453 0.98828-0.5 1.7969-1.4688 0.85938-1.0547 0.99219-1.0742 1.1875-0.88672 0.92578-0.95703 1.0625-0.5625 1.1367-1.1367 2.8242-1.0898 0.64844-1.1836-0.039062-1.4844-0.22266-1.9141 1.332-1.0508 0.78125-0.76172 1.2695-1.4922-0.95703-1.8125-0.5625-1 1.4688-0.050781 2.2031 1.1016 2.4141-0.25781 1.6328-0.94922 1.2031-0.85938 1.1016-1.1758 0.20312-0.48438 1.0547 0.78906 1.1562 0.62109 1.3711 0.56641 1.3281 0.12109 1.0781-0.26172 1.207 0.11328 1.1797 0.62109 1.8398 1.1055 0.52344 0.41406 1.457-1.7891 1.0742-1.3086 0.56641-1.1914 1.0039-2.1641 0.84375-1.4414 0.26172-1.3516 0.60938-0.32422 1.6016 0.5625 1.0156 0.5625 1.0352 0.48828 0.92578v1.2695l-0.43359 1.1445-0.78125 1.0703-0.30859 0.98047-0.59766 1.1406 0.36328 1.0547-0.38281 0.92578 0.91016 0.65234 0.99609 0.25391 1.2695-0.49219 1.3242-0.59766 1.0703-0.39844 1.0898 0.43359 1.2344 0.27344 1.3945 1.0508 0.90234 1.7148-2.2148 2.5586-0.39844 0.98438-0.5 1.0312-0.36719 1.1562 0.56641 1.2695 0.0625 1.0703-0.43359 1.0703-0.95703 0.58594-0.96094-0.38672-0.96875-0.29688-0.75 0.87109 0.39844 1.0195 0.22656 1.1562 0.78125 0.85938 0.66016 0.76172 0.027344 1.1211-0.87109 0.74219-0.44531 1.1523 0.32422 1.1094-0.84375 0.94922-1.1094 0.19141-1.2109 0.26562-1.1836-0.25h-1.3633l-1.0625-0.19141-0.875-0.71094-0.94531-0.32812-1.1094-0.67969-0.058593-1.1992-1.0078-0.90234-0.94531-0.63672-0.75781-0.78125-0.35156-1.2305-0.84375-0.69922-0.43359-0.93359-0.66797-0.75-0.85156-0.53906-1.1211-0.25-1.207 0.10156-1.4141 1.125-0.78906 0.97656-0.625 1.0195-0.75 0.76953-1.0156 0.82812-1.4336 0.21094 0.015625 1.5352-16.543 7.2109-11.641 1.4258-2.7656-8.3242-1.1719 0.24219-0.92188-0.44141-1.0781-0.67578-1.0156 0.011719-2.4922 0.28516-1.3633-0.54688-0.83594-0.78125-0.76562-1.1289-1.1055 0.019531-1.6992-0.003906-1.1797 0.03125-0.93359-0.39453-0.95703-0.67188-1.082-1.1016-1.2031-0.44141-1.6562-0.007813-1.457-0.47266-0.74609-0.98438-1.0664 0.16797-1.1133 0.83984-0.79688 0.87891-0.19531 1.0625-1.2148 0.82031-1.1484 0.21484-1.0586 1.2969-0.59766 1.0195-3.0977 1.4766-2.6406 0.89062-2.7852 0.49219-1.9922 0.11719-1.0586-0.10547-1.2148-0.36328-1.582-0.94531-1.1641-0.47266-3.1289-0.55078-1.0391-0.18359h-2.6953l-1.0547 0.39453-2.1133 0.33594-2.6953-0.26172-1.2734-0.40625-1.4062-1.1445-2.2773-1.2383-1.3828-0.51172-0.80078-0.60156-1.5117-0.94531-1.0938-0.62109-1.9492-1.2539-1.5039-0.92969-1.3711-0.78906-4.4336-3.8789-2.2656-1.7422-1.6133-1.2539-1.2969-0.92188-3.1484-2.1484-3.2344-1.4297-1.8594-1.0977-1.0586-0.085937-0.99219 0.41016-2.4766-0.12109-1.0938-0.035156-1.1797 0.21484-1.4336-0.27344-1.0078-0.49609-1.1094-0.625-1.3047-0.10156-2.168 0.62891-1.3164 0.050782-2.2539-0.44141-1.0352-0.60156-2.0938-1.2695-3.0391-3.4648-1.2617-1.5742-0.81641-1.5625-0.42188-1.3633-0.15625-1.3086 0.003906-2.6719 0.47656-2.25 1.1641-2.1484 6.0273-7.9023 1.3672-0.88672 1.5977-2.1016 1.0039-0.96484 1.207-1.0703 1.8477-1.832 3.0664-2.7227 6.125-6.2773 4.6484-3.6133 1.1992-1.0352 1.6211-1.6211 1.0781-1.2148 0.64844-0.86328 4.3789-3.7422 1.4297-1.0234 1.7617-1.0781 1.4023-0.68359 1.1758-0.26172 1.2422-0.75391 0.75-1.4023 1.9609-1.6328 0.88281-0.78516 0.64062-1.3828 0.63281-2.4609 1.3242-8.7461 0.375-1.2031 0.78906-1.2578 2.3242-2.25 2.7969-3.0898 1.4766-2.25 1.9531-2.4102 3.0117-2.457 0.79297-1.3633 2.8477-2.0938 1.0547-1.0469 0.89062-0.52734 0.77734-0.98828 0.85156-0.55469 1.3906-0.16016 1.0938-0.058594 1.6484-1.1797 0.69141-1.3203 1.0742-1.1055 0.35938-1.7344 0.57422-1.418 1.2734-1.4023 0.8125-0.74609 0.17969-1.3828 1.0547-0.57031 0.85156-0.78516 1.0703-0.37891 0.99219-0.10938 0.96484-0.41797 0.98828 0.17969 0.91406 0.55469 0.76562 0.71875 0.23828 1.0039 1.0195 0.058594 1.0508 0.0625 1.0938-0.11328 1.0156 0.1875 1.2617 0.14062 1.0508-0.035156 1.0156 0.48047 1.0273 0.24609 0.75391 0.82422 0.046875 1.0625 0.5 0.94531 0.29297 0.98828 0.88672 0.45703 1.0312 0.24609 1.0117 0.10547 1.0508 0.375 0.98828 0.24609 1.0117-0.042969 0.54688 0.94141 1.0469 0.007812 1.0039 0.12891 1.0195 0.35938 1.0117-0.22656 1.0859-0.37109 0.875-0.84766 1.0664-0.15625 1.0039 0.011719 0.81641 0.69922 1.1289 0.17969 1.0156 0.089844 1.3945-0.03125 1.0938 0.15625 2.1289 1.1055 1.7852 1.3203 1.1328 0.33594 1.6016 0.65625 1.7461 0.98438 1.2969 0.64844 2.1055 0.65234 1.7578 0.30469 1.5703-0.11328 0.99219-1.1875-0.23047-1.2617-0.6875-1.4922-0.15234-2.293 0.10547-1.0977 0.23828-1.0703 0.19141-1.1406-0.54688-1.7109-0.95312-0.95312-0.94922-0.40234-1.7578 0.57031-1.332-0.023437-0.90625-0.52344-0.71094-1.0234 1.2891-1.043 1.1328-0.16016 1.4297-0.17578 2.0273-0.91016 0.78906 0.65234 1.207 0.11328-1.0391 0.35156 0.39062 1.1445 0.84766 0.76953 0.51953-1.0469 0.37109 1.0234 1.1055-0.26562 0.42188-1.0195 0.50781-0.96094 0.75781-0.67578 1.0352 0.32812 0.49219-0.92188 1.3906-0.68359 1.0586 0.125 0.76562-0.89062-0.019532-1.3203 0.4375-0.91016 0.40625 0.95703 1-0.125 0.4375-1.0781 1.0391-0.58203 0.99219-0.25781 1.2578-0.65625 0.90625-0.52344 1.0195 0.54688 1 0.089844-0.38281-1.1406 0.5625-0.92969 1.1016 0.10547 1.4609-0.375 0.40234 0.92969 0.94922 0.42188 1.1797 0.26172 0.86719 1.043 1.1484-0.0625 1.043 0.14062-0.66406-0.98047 1.0312-0.24219 0.84375 0.87891 1.1016 0.60156 1.1641 0.89844 1.0195 0.53516 1.1484-0.40234 0.94922-0.44922 1.2461 0.29297 0.73047 0.75391 0.78906 0.61719 1.0703 0.48047 0.91406 0.44531 1.1641 0.24609 1.4258-1.3047 1.9688-0.39453 0.99219 0.15625 0.97266-0.27734 1.25-1.9531 0.81641-0.82812 2.6406-1.6992 2.1289-1.2812 1.9258-0.96094 1.25-0.83594 1.9219-2.6445 0.81641-0.73438 1.2695-0.64844 1.2812-0.85938 0.96484-1.0898 1.8828-1.3867 0.69531-1.3633 1.0352-1.2031 1.2695-0.23828 1.5078-1.0078 0.97266-0.41406 1.1328-0.0625 1.0938-0.3125 0.99219-0.43359 1.1602-0.11719z" fill="#ccc" fill-rule="evenodd"/>
<path d="m353.93 290.55 0.81641 0.023437 1.3711 0.37109 1.3203 0.57812 0.89453 0.6875-0.21094 1.0547 0.87109 1.1055 0.57812 1.582 0.39844 1.082 0.44531 0.89844 0.76562 0.87109 1.2148 0.92188-0.5 1.1055-1.0312 0.78125 0.86328 0.90234 0.74219 0.82422 1.1094 0.57422 0.25 1.3984 1.0664 0.90625 1.3594-0.61719 1.5898 0.36328 1.6172 1.1992 1.1523 0.94922 1.2031 1.543-0.875 0.55078-1.4492-0.35156-1.7578-0.18359-1.3242 0.59766-0.88672 0.70312-1.5938 0.78516-1.1367 0.51953-1.1797 0.84766-1.1328 0.4375-1.2461 0.16016-0.89062 0.53906-0.61719 1.5312-1.1992 1.1562-0.99219 0.93359-0.80859 0.59766-1.1797 2.0078-0.019531 1.5703-0.35156 1.0352-0.58203 1.0508-0.57812 1.5703-1.0625 1.0508-0.65234 1.1445 0.09375 1.2852-0.39844 1.4492 0.050781 1.1992 0.03125 1.3906-0.36719 1.0078-0.92578 0.51562-1.0508 0.60938-0.83203 1.0547 0.44141 1.2383 0.125 1.0547 0.042969 1.3633 0.49219 0.98828-0.39062 1.4961 0.80078 1.6641 0.33594 1.5703 0.66797 1.2031 0.12891 1.1758 0.80469 0.62891 0.28516 1.1602 0.30469 1.3242 0.92969 1.4219 0.015625 1.1211-0.80859 0.92578-0.89453 0.53125-1.5352 0.097656-1.3984 0.16016-1.043 0.87891-1.2695 0.69922-0.011719 1.7422 0.23047 1.2461 0.19141 1.207-0.63281 0.78125 0.11328 1.2227 0.18359 1-0.92578 0.40625-1.6055-0.60156-0.98828 0.49219-0.87891 0.50781-0.74609 0.78516-0.63672 0.92969 0.76172 1.2891 0.94922 1.3555 0.89844 1.1094 0.39453 1.1367-0.058594 1.2188-0.14453 0.98828-0.5 1.7969-1.4688 0.85938-1.0547 0.99219-1.0742 1.1875-0.88672 0.92578-0.95703 1.0625-0.5625 1.1367-1.1367 2.8242-1.0898 0.64844-1.1836-0.039062-1.4844-0.22266-1.9141 1.332-1.0508 0.78125-0.76172 1.2695-1.4922-0.95703-1.8125-0.5625-1 1.4688-0.050781 2.2031 1.1016 2.4141-0.25781 1.6328-0.94922 1.2031-0.85938 1.1016-1.1758 0.20312-0.48438 1.0547 0.78906 1.1562 0.62109 1.3711 0.56641 1.3281 0.12109 1.0781-0.26172 1.207 0.11328 1.1797 0.62109 1.8398 1.1055 0.52344 0.41406 1.457-1.7891 1.0742-1.3086 0.56641-1.1914 1.0039-2.1641 0.84375-1.4414 0.26172-1.3516 0.60938-0.32422 1.6016 0.5625 1.0156 0.5625 1.0352 0.48828 0.92578v1.2695l-0.43359 1.1445-0.78125 1.0703-0.30859 0.98047-0.59766 1.1406 0.36328 1.0547-0.38281 0.92578 0.91016 0.65234 0.99609 0.25391 1.2695-0.49219 1.3242-0.59766 1.0703-0.39844 1.0898 0.43359 1.2344 0.27344 1.3945 1.0508 0.90234 1.7148-2.2148 2.5586-0.39844 0.98438-0.5 1.0312-0.36719 1.1562 0.56641 1.2695 0.0625 1.0703-0.43359 1.0703-0.95703 0.58594-0.96094-0.38672-0.96875-0.29688-0.75 0.87109 0.39844 1.0195 0.22656 1.1562 0.78125 0.85938 0.66016 0.76172 0.027344 1.1211-0.87109 0.74219-0.44531 1.1523 0.32422 1.1094-0.84375 0.94922-1.1094 0.19141-1.2109 0.26562-1.1836-0.25h-1.3633l-1.0625-0.19141-0.875-0.71094-0.94531-0.32812-1.1094-0.67969-0.058593-1.1992-1.0078-0.90234-0.94531-0.63672-0.75781-0.78125-0.35156-1.2305-0.84375-0.69922-0.43359-0.93359-0.66797-0.75-0.85156-0.53906-1.1211-0.25-1.207 0.10156-1.4141 1.125-0.78906 0.97656-0.625 1.0195-0.75 0.76953-1.0156 0.82812-1.4336 0.21094 0.015625 1.5352-16.543 7.2109-11.641 1.4258-2.7656-8.3242-1.1719 0.24219-0.92188-0.44141-1.0781-0.67578-1.0156 0.011719-2.4922 0.28516-1.3633-0.54688-0.83594-0.78125-0.76562-1.1289-1.1055 0.019531-1.6992-0.003906-1.1797 0.03125-0.93359-0.39453-0.95703-0.67188-1.082-1.1016-1.2031-0.44141-1.6562-0.007813-1.457-0.47266-0.74609-0.98438-1.0664 0.16797-1.1133 0.83984-0.79688 0.87891-0.19531 1.0625-1.2148 0.82031-1.1484 0.21484-1.0586 1.2969-0.59766 1.0195-3.0977 1.4766-2.6406 0.89062-2.7852 0.49219-1.9922 0.11719-1.0586-0.10547-1.2148-0.36328-1.582-0.94531-1.1641-0.47266-3.1289-0.55078-1.0391-0.18359h-2.6953l-1.0547 0.39453-2.1133 0.33594-2.6953-0.26172-1.2734-0.40625-1.4062-1.1445-2.2773-1.2383-1.3828-0.51172-0.80078-0.60156-1.5117-0.94531-1.0938-0.62109-1.9492-1.2539-1.5039-0.92969-1.3711-0.78906-4.4336-3.8789-2.2656-1.7422-1.6133-1.2539-1.2969-0.92188-3.1484-2.1484-3.2344-1.4297-1.8594-1.0977-1.0586-0.085937-0.99219 0.41016-2.4766-0.12109-1.0938-0.035156-1.1797 0.21484-1.4336-0.27344-1.0078-0.49609-1.1094-0.625-1.3047-0.10156-2.168 0.62891-1.3164 0.050782-2.2539-0.44141-1.0352-0.60156-2.0938-1.2695-3.0391-3.4648-1.2617-1.5742-0.81641-1.5625-0.42188-1.3633-0.15625-1.3086 0.003906-2.6719 0.47656-2.25 1.1641-2.1484 6.0273-7.9023 1.3672-0.88672 1.5977-2.1016 1.0039-0.96484 1.207-1.0703 1.8477-1.832 3.0664-2.7227 6.125-6.2773 4.6484-3.6133 1.1992-1.0352 1.6211-1.6211 1.0781-1.2148 0.64844-0.86328 4.3789-3.7422 1.4297-1.0234 1.7617-1.0781 1.4023-0.68359 1.1758-0.26172 1.2422-0.75391 0.75-1.4023 1.9609-1.6328 0.88281-0.78516 0.64062-1.3828 0.63281-2.4609 1.3242-8.7461 0.375-1.2031 0.78906-1.2578 2.3242-2.25 2.7969-3.0898 1.4766-2.25 1.9531-2.4102 3.0117-2.457 0.79297-1.3633 2.8477-2.0938 1.0547-1.0469 0.89062-0.52734 0.77734-0.98828 0.85156-0.55469 1.3906-0.16016 1.0938-0.058594 1.6484-1.1797 0.69141-1.3203 1.0742-1.1055 0.35938-1.7344 0.57422-1.418 1.2734-1.4023 0.8125-0.74609 0.17969-1.3828 1.0547-0.57031 0.85156-0.78516 1.0703-0.37891 0.99219-0.10938 0.96484-0.41797 0.98828 0.17969 0.91406 0.55469 0.76562 0.71875 0.23828 1.0039 1.0195 0.058594 1.0508 0.0625 1.0938-0.11328 1.0156 0.1875 1.2617 0.14062 1.0508-0.035156 1.0156 0.48047 1.0273 0.24609 0.75391 0.82422 0.046875 1.0625 0.5 0.94531 0.29297 0.98828 0.88672 0.45703 1.0312 0.24609 1.0117 0.10547 1.0508 0.375 0.98828 0.24609 1.0117-0.042969 0.54688 0.94141 1.0469 0.007812 1.0039 0.12891 1.0195 0.35938 1.0117-0.22656 1.0859-0.37109 0.875-0.84766 1.0664-0.15625 1.0039 0.011719 0.81641 0.69922 1.1289 0.17969 1.0156 0.089844 1.3945-0.03125 1.0938 0.15625 2.1289 1.1055 1.7852 1.3203 1.1328 0.33594 1.6016 0.65625 1.7461 0.98438 1.2969 0.64844 2.1055 0.65234 1.7578 0.30469 1.5703-0.11328 0.99219-1.1875-0.23047-1.2617-0.6875-1.4922-0.15234-2.293 0.10547-1.0977 0.23828-1.0703 0.19141-1.1406-0.54688-1.7109-0.95312-0.95312-0.94922-0.40234-1.7578 0.57031-1.332-0.023437-0.90625-0.52344-0.71094-1.0234 1.2891-1.043 1.1328-0.16016 1.4297-0.17578 2.0273-0.91016 0.78906 0.65234 1.207 0.11328-1.0391 0.35156 0.39062 1.1445 0.84766 0.76953 0.51953-1.0469 0.37109 1.0234 1.1055-0.26562 0.42188-1.0195 0.50781-0.96094 0.75781-0.67578 1.0352 0.32812 0.49219-0.92188 1.3906-0.68359 1.0586 0.125 0.76562-0.89062-0.019532-1.3203 0.4375-0.91016 0.40625 0.95703 1-0.125 0.4375-1.0781 1.0391-0.58203 0.99219-0.25781 1.2578-0.65625 0.90625-0.52344 1.0195 0.54688 1 0.089844-0.38281-1.1406 0.5625-0.92969 1.1016 0.10547 1.4609-0.375 0.40234 0.92969 0.94922 0.42188 1.1797 0.26172 0.86719 1.043 1.1484-0.0625 1.043 0.14062-0.66406-0.98047 1.0312-0.24219 0.84375 0.87891 1.1016 0.60156 1.1641 0.89844 1.0195 0.53516 1.1484-0.40234 0.94922-0.44922 1.2461 0.29297 0.73047 0.75391 0.78906 0.61719 1.0703 0.48047 0.91406 0.44531 1.1641 0.24609 1.4258-1.3047 1.9688-0.39453 0.99219 0.15625 0.97266-0.27734 1.25-1.9531 0.81641-0.82812 2.6406-1.6992 2.1289-1.2812 1.9258-0.96094 1.25-0.83594 1.9219-2.6445 0.81641-0.73438 1.2695-0.64844 1.2812-0.85938 0.96484-1.0898 1.8828-1.3867 0.69531-1.3633 1.0352-1.2031 1.2695-0.23828 1.5078-1.0078 0.97266-0.41406 1.1328-0.0625 1.0938-0.3125 0.99219-0.43359 1.1602-0.11719 0.9375-0.027343" fill="none" stroke="#fff" stroke-linecap="round" stroke-linejoin="round" stroke-miterlimit="10" stroke-width="2"/>
<path d="m372.24 83.082 0.53516 0.058594 1.8789 0.80469 1.7305 1.0117 0.87891 0.6875 1.5273 1.2578 1.8555 1.9102 1.4453 1.5117 0.80859 1.5586 1.3047 4.1992 0.34375 1.8945 1.3867 0.078125 1.168 0.058593 1.9375-0.41797 2.7734-0.082032 0.98828 0.15625-0.69141 1.4023-0.74609 3.0508-0.32031 1.5938-0.11328 1.3984-0.17188 5.4375-0.29297 5.1953-0.17578 1.1836-0.20703 1.5898-1.6289 3.2969-1.8203 3.3867-0.72266 1.3867-1.1523 0.60156-1.0547 0.8125-0.51172 1.5117-0.42578 2.1484-0.59766 3.7852-0.74219 8.6523-0.45703 2.6992-0.66797 2.8828 0.43359 1.4961 1.2578 1.9297-0.023438 2.125-1.1016 1.3945-1.2773 0.47266-1.1836 0.51953-1.1836 0.37891-0.94922 1.8945-0.85156 1.8008-0.75781 1.9414 1.2812 3.0781 0.47266 1.6094 0.71094 0.80469 1.3242 1.6562 0.47656 0.96484 1.4023 0.28125 0.4375 1.3867-1.0078 2.3242-0.94531 4.4766-0.45703 0.96094-1.4922 1.5352-0.73438 1.2734-0.94531 0.65625-1.2617 0.61719-0.49609 0.97656-1.0781 1.2812-0.75 1.4258v1.4023l0.49609 1.6406 0.41016 1.4375 1.2305 1.1797 2.0547 0.51562 3.8008 0.61328 4.832 1.625 1.4297 2.3828-0.89062 1.4805-0.11719 1.0703-0.19531 1-0.31641 2.0352v1.0469l0.23828 1.6133 0.125 2.4688 0.12109 1.0039 1.1914 4.5547 3.1289 8.2656 0.85547 6.3477 2.6875 5.0664 0.18359 1.7578 0.73438 1.3203 1.0508 0.58984 0.48047 1.3828 0.98438 1.0938-1.3008 0.14844-1.1523 0.4375-0.99219 0.62891-1.2852 1.7188-0.875 0.80859-3.5352 1.0703-1.2109 0.23828-1.4883 0.375-1.1914-0.13672-1.0898-0.019531-1.1562-0.42969-1.5273-0.67188-1.75-1.1797-1.4102-0.98438-0.93359-0.375-1.4688-0.13672-0.99219-0.58984-0.79688-0.67188-1.8281-1.1016-1.7695-0.80859-2.1641-1.8711-0.95312-1.2812-0.28125-1.5781-0.31641-1.0469-0.65625-1.0625-1.8281-1.9141-0.85547-0.76953-0.8125-0.58984-1.3516-0.84766-2.3477-2.6211-1.5469-1.0469-1.2305-0.55078-2.0273-2.2656-0.92188-0.46875-0.80859-0.64062-0.8125-0.73047-0.82812-0.76562-1-0.015625-1.0664-0.34375-0.90625-0.55078-0.34766-1.332-0.75-0.77734-0.42188-1.1953-0.78516-0.86719-1.2109-0.37109-1.207-0.074219-0.81641-1.0742-0.70703-1.0742 0.41016-0.94531-0.22266-0.99219-0.066406-1.2188-0.76172-1.9961-0.35156-1.1133-1.0078-0.40625-0.96875-0.53125-1.0547 0.082032-0.066407-1.1445-1.1172-0.11719-1.125 0.8125-0.99219 0.54688-1.1836-0.19922-0.94922 0.36328-1.1289-0.21094-1.0117 0.48828-1.0312 0.13281-1.0273-0.082032-1.6055-0.089843-1.0234-0.10938-1.2031-0.52344-0.91016-0.48438-0.44141 1.2695-1.0117-0.0625-0.98828 0.90625-0.99609 0.35547-0.8125-0.92578-0.035157-1.1016 0.71484-0.76562 1.1602-0.39844 0.82422-0.84766-0.15625-1.8516-0.53516-1.7383 0.21875-1.0625 0.62891-0.87891-0.77344-0.66016-1.1836 0.29688-1.2266 0.058594-1.0508-0.25 0.035156-1.3555 1.2461-0.78516 0.87109-0.68359 0.89844-2.1836 0.28516-1.1641 0.30859-1.418 1.125-0.625 1.1523-0.16016 1.0742-0.17578 1.6445-0.32031 0.95312-0.88672 0.5625-1.2656 0.50781-1.1602 0.78125-0.86328 0.44141-1.1133-0.11719-1.1406-0.20703-3.2266-0.11719-1.582-0.20312-1.2891 0.085937-1.0859-0.21484-1.4219-1.0117-2.6172-0.39062-0.95703-0.54297-1.1367-0.87891-0.70703-1.3359 0.35938 0.85938 0.83203-0.023437 1.168 0.76953 0.80469 0.41797 1.043-1.1875 0.51562-0.71875-0.90234-1.0273-0.50781-0.82422-0.57422 0.097656 1.375 0.51953 1.1953-0.52734 0.85156-0.91797 0.44922-1.0273 0.007813-1.293-0.074219-1.2188 0.09375 0.16016 1.1016 1.0156 0.19141 1.1016 0.46094 0.58594 1.0078-0.66016 0.92578-1.0508 0.24219-1.0586-0.77344-0.54297-0.90234-0.38672-0.96875-0.63281 0.91016-0.88672 0.75391-0.95312 0.67969-1.4688 0.98438-1.9062 0.90625-1.5469 0.63281-1.1133 0.25781-1.625 0.29688-2.0078 0.058594-1.4844 0.17578-1.25 0.61328-0.77734 1.1641-0.59375 0.94922-1.0508 1.3594-1.2109 1.1836-0.63281 2.3281-0.89453 1.1836-1.3086 0.80859-1.0312 1.0078-1.2539 1.0859-0.94922 0.75-1.1133 0.55078-1.0312 0.82812-1.3711 0.51172-1.1289-0.19141-1.5273-0.17969-1.0156 0.73047-0.92969 0.43359-1.5117 0.25781-1.3281 0.23828-1.3516-0.082032-1.4688-0.64844-1.1875-0.53125-0.55859-0.96875-0.67188-1.0664-1.3711-0.21484-1.1914 0.13672-1.8047-0.13672-1.0742-0.27734-0.97266 0.25781-0.59375 0.92578-1.1133 0.29688-0.95312-0.33594-0.99219-0.58984-1.1289-0.82812-0.97656-0.30078-0.92969-0.37109-1.3242-0.96094-1.2891 0.3125-1.3281-0.097656-1.6289-0.49219-1.2695 0.21484-1.2266-0.21484-1.2891 0.097657-1.8047 0.31641-0.97266-0.27734-1.2109 0.23438-1.4102 0.10156-1.0078 0.097656-0.93359 0.58984-1.7266 0.375-1.0898 0.71094-2.9961 0.13672-1.4062 0.21484-2.0039-0.039063-2.5391-0.039062-1.3711 0.55078-1.168-0.21484-1.7266-0.32031-1.7266 0.31641-1.168 0.27734-1.6484 0.51172-1.7422-0.078125-2.5195-1.2812-1.168 0.074219-1.3711-0.43359-1.1133-0.76953-1.1289-0.21484-1.4258 0.41406-0.97266 0.53125-1.8477 0.39453-1.4062-0.25781-0.91016-0.49609-1.2539 0.41797-1.3477 0.17578-1.4492-0.16016-0.92969 0.375-1.1328 0.88672-1.168 0.76562-0.85156 1.0469-1.0742 0.13672-1.3281-0.15625-1.5078 0.17578-0.99219-0.47656-1.0508-0.058594-0.99219-0.29688-2.5391-2.0508-0.63281-1.2227 0.40625-1.2422-1.082-0.80469 0.73047-1 0.17578-1.2539 0.054688-1.2305-0.027344-1.0273 0.27734-1.2305 0.91016-0.72656 1.4648-0.44922 0.93359-0.75391 0.074219-1.1758-1.2344-0.98047-0.65625-1.1055 0.73438-0.90234 1.1836 0.25391-0.14844-1.2812 0.48047-1.0508 0.73047-0.80469 1.0352-0.75 1.0039-0.72656 0.98438-0.77734 0.95312-0.57812 0.88281-1 0.90625-0.45312 1.6172-0.097656 0.60547-1.3789 0.65625-0.77734 1.0078-0.20312-0.046875-1.0508-0.60547-1.0547-1.3398-0.32812-0.98047-0.47656-1.1367-0.42578-0.19922-1.4023 0.25-1.082 0.53125-0.85156 0.050781-1.1797 1.0352-0.25 1.7656-0.17188 1.4141-0.42578 1.3555 0.48047 0.5625-1.0586 0.45312-1.0781-0.035157-1.25 0.75781-0.65625 0.87109 0.49609 0.80078-0.625 1.0078-0.15625 1.4648 0.58203 0.58984-0.86719-0.46094-0.93359 0.81641-0.67578-0.003907-1.1914 1.0039-0.023438 0.94531-0.37891 0.82422-0.59375 0.87891 0.53125 0.99219-0.28516 0.91797-0.45312 0.65625-0.77344-0.44141-0.99219-0.43359-0.91016 0.62891-0.80859-0.33203-0.94922 0.50391-0.90625-0.078125-1.0078-0.46484-0.89062 0.51562-0.88672-0.47266-0.9375-0.78516-0.65234-0.12891-1.0352-1.0039 0.14844-0.73438-0.69141-1-0.066406-0.60938-0.82422-0.35156-0.94922 0.074219-1.0508 0.42969-0.92969 0.84766-0.58984 0.3125-0.95703 0.98828-0.20703 1.0234 0.14453 1-0.011718 0.64844-0.80078 0.43359-0.92969 1.0547-0.17578 1.0547-0.25781 0.73047-0.71094-0.074219-1.0391 0.44922-0.90625-0.53125-0.86328-0.98438-0.28906-0.20703-0.98047-0.67969-0.74219-0.58203-0.81641-0.35547-0.94922-0.41406-0.97266 0.28125-1.293-0.64062-0.95312 0.23828-2.1914-0.42188-1.1836-0.37109-1.0469-0.26562-0.97656 0.12109-1.0078 0.94141-0.41797 0.99219 0.16016 0.98438 0.39844 0.98828 0.31641 1.0156 0.027344 0.78125-0.64062 0.99609-0.21484 0.98047-0.55469 0.98438-0.39844 0.97266-0.24609h1.207l1.0391-0.066407 1.0508-0.32812 1.0742-0.20312 0.96875-0.33203 1.1367 0.10547 1.1953-0.23047 0.83984 0.57031 0.44922 0.89844 0.18359 1.0039 0.80469 0.62891 0.87109-0.51953 0.61328-0.81641 1.0195-0.16016 0.97266-0.42969 0.81641-0.60156 0.63672-0.83984 0.57812-0.83203 0.80859-0.59766 1.1602-0.30469 1.2109 0.30859 1.0352-0.14453 1.0977-0.035157 0.98438-0.32031 0.90625-0.60156 0.81641-0.69531 0.59375-0.85938 0.71484-0.72266 0.79688 0.60938 1.0977 0.0625 1.0117 0.17969 0.91016 0.54688 0.95703 0.28906 0.69531 0.76953 0.36328 0.97656 1.4727 0.26562 4.1836 0.75391h1.4453l1.9062 0.050781 1.6523-0.20312 1.4453-0.25781 1.4453-0.30859 1.0312-0.30469 1.2383-0.46484 0.9375-0.37109 0.66016-0.85938 2.6406-1.0938 1.7109-0.70312 0.89844-0.68359 0.85938-0.92969 0.97266-1.2031 7.7188-9.207 1.1094-0.03125 3.7266 1.418 1.4766 0.91406 1.3125 0.53906 2.2148 1.1367 1.1758 0.65625 1.832 0.5 1.1172 0.35938 1.3359 0.77344 1.0742 0.46094 1.3555 0.67578 0.43359 1.0977 0.63281 0.82422-0.4375 1.2188-0.37109 0.94531 0.33984 1.0703 0.32812 1.207 0.15625 1.0391 0.41016 0.93359 0.30859 1.2383 1.0234 0.73047 1.1094 0.44141 1.2383 0.23438 1.0156-0.16797 1.2383 0.13281 1.2891-0.11328 0.97656 0.23438 1.082-0.074219 1.1055 0.15234 1.0234 0.24609 1.0156-0.10938 0.87109 0.57422 1.0156-0.32812 1.0156-0.15625 1.1289 0.0625 0.90625-0.48047 1.2344 0.19531 0.97656 0.25781 1.1953 0.93359 2.7383-1.457 1.5039-0.90625 1.6055-0.73047 2.0352-0.89062 1.5078-1.1602 2.0273-2.1719 0.59766-1.1953 0.39844-1.5547 2.1562-1.0391 0.95703-1.0352 0.79688-1.5938 1.2344-1.5156 1.5156-1.1992 2.2031-1.5234 1.4492-0.86719 1.0664-0.60938 1.6133-1.043 0.74219-0.72266 1.2344-1.2188 1.2734-1.2539 1.0664-1.1016 1.3281-0.57031 1.6445 1.6367 1.0586 1.7734 1.043 2.0586 0.82422 0.99219 1.2773 0.80859 0.99219-0.30859 0.87109-1.3711-0.089844-1.0898-0.96484-0.96484-1.1914-0.86328-1.1484-1.1211-1.1172-1.4375-0.27734-1.3047-0.15625-1.4023 0.11328-1.2422 0.74609-1.668 0.53516-0.89453 1.5625-0.67578 1.5586-0.375 1.582-0.12109z" fill="#0a5394" fill-rule="evenodd"/>
<path d="m372.24 83.082 0.53516 0.058594 1.8789 0.80469 1.7305 1.0117 0.87891 0.6875 1.5273 1.2578 1.8555 1.9102 1.4453 1.5117 0.80859 1.5586 1.3047 4.1992 0.34375 1.8945 1.3867 0.078125 1.168 0.058593 1.9375-0.41797 2.7734-0.082032 0.98828 0.15625-0.69141 1.4023-0.74609 3.0508-0.32031 1.5938-0.11328 1.3984-0.17188 5.4375-0.29297 5.1953-0.17578 1.1836-0.20703 1.5898-1.6289 3.2969-1.8203 3.3867-0.72266 1.3867-1.1523 0.60156-1.0547 0.8125-0.51172 1.5117-0.42578 2.1484-0.59766 3.7852-0.74219 8.6523-0.45703 2.6992-0.66797 2.8828 0.43359 1.4961 1.2578 1.9297-0.023438 2.125-1.1016 1.3945-1.2773 0.47266-1.1836 0.51953-1.1836 0.37891-0.94922 1.8945-0.85156 1.8008-0.75781 1.9414 1.2812 3.0781 0.47266 1.6094 0.71094 0.80469 1.3242 1.6562 0.47656 0.96484 1.4023 0.28125 0.4375 1.3867-1.0078 2.3242-0.94531 4.4766-0.45703 0.96094-1.4922 1.5352-0.73438 1.2734-0.94531 0.65625-1.2617 0.61719-0.49609 0.97656-1.0781 1.2812-0.75 1.4258v1.4023l0.49609 1.6406 0.41016 1.4375 1.2305 1.1797 2.0547 0.51562 3.8008 0.61328 4.832 1.625 1.4297 2.3828-0.89062 1.4805-0.11719 1.0703-0.19531 1-0.31641 2.0352v1.0469l0.23828 1.6133 0.125 2.4688 0.12109 1.0039 1.1914 4.5547 3.1289 8.2656 0.85547 6.3477 2.6875 5.0664 0.18359 1.7578 0.73438 1.3203 1.0508 0.58984 0.48047 1.3828 0.98438 1.0938-1.3008 0.14844-1.1523 0.4375-0.99219 0.62891-1.2852 1.7188-0.875 0.80859-3.5352 1.0703-1.2109 0.23828-1.4883 0.375-1.1914-0.13672-1.0898-0.019531-1.1562-0.42969-1.5273-0.67188-1.75-1.1797-1.4102-0.98438-0.93359-0.375-1.4688-0.13672-0.99219-0.58984-0.79688-0.67188-1.8281-1.1016-1.7695-0.80859-2.1641-1.8711-0.95312-1.2812-0.28125-1.5781-0.31641-1.0469-0.65625-1.0625-1.8281-1.9141-0.85547-0.76953-0.8125-0.58984-1.3516-0.84766-2.3477-2.6211-1.5469-1.0469-1.2305-0.55078-2.0273-2.2656-0.92188-0.46875-0.80859-0.64062-0.8125-0.73047-0.82812-0.76562-1-0.015625-1.0664-0.34375-0.90625-0.55078-0.34766-1.332-0.75-0.77734-0.42188-1.1953-0.78516-0.86719-1.2109-0.37109-1.207-0.074219-0.81641-1.0742-0.70703-1.0742 0.41016-0.94531-0.22266-0.99219-0.066406-1.2188-0.76172-1.9961-0.35156-1.1133-1.0078-0.40625-0.96875-0.53125-1.0547 0.082032-0.066407-1.1445-1.1172-0.11719-1.125 0.8125-0.99219 0.54688-1.1836-0.19922-0.94922 0.36328-1.1289-0.21094-1.0117 0.48828-1.0312 0.13281-1.0273-0.082032-1.6055-0.089843-1.0234-0.10938-1.2031-0.52344-0.91016-0.48438-0.44141 1.2695-1.0117-0.0625-0.98828 0.90625-0.99609 0.35547-0.8125-0.92578-0.035157-1.1016 0.71484-0.76562 1.1602-0.39844 0.82422-0.84766-0.15625-1.8516-0.53516-1.7383 0.21875-1.0625 0.62891-0.87891-0.77344-0.66016-1.1836 0.29688-1.2266 0.058594-1.0508-0.25 0.035156-1.3555 1.2461-0.78516 0.87109-0.68359 0.89844-2.1836 0.28516-1.1641 0.30859-1.418 1.125-0.625 1.1523-0.16016 1.0742-0.17578 1.6445-0.32031 0.95312-0.88672 0.5625-1.2656 0.50781-1.1602 0.78125-0.86328 0.44141-1.1133-0.11719-1.1406-0.20703-3.2266-0.11719-1.582-0.20312-1.2891 0.085937-1.0859-0.21484-1.4219-1.0117-2.6172-0.39062-0.95703-0.54297-1.1367-0.87891-0.70703-1.3359 0.35938 0.85938 0.83203-0.023437 1.168 0.76953 0.80469 0.41797 1.043-1.1875 0.51562-0.71875-0.90234-1.0273-0.50781-0.82422-0.57422 0.097656 1.375 0.51953 1.1953-0.52734 0.85156-0.91797 0.44922-1.0273 0.007813-1.293-0.074219-1.2188 0.09375 0.16016 1.1016 1.0156 0.19141 1.1016 0.46094 0.58594 1.0078-0.66016 0.92578-1.0508 0.24219-1.0586-0.77344-0.54297-0.90234-0.38672-0.96875-0.63281 0.91016-0.88672 0.75391-0.95312 0.67969-1.4688 0.98438-1.9062 0.90625-1.5469 0.63281-1.1133 0.25781-1.625 0.29688-2.0078 0.058594-1.4844 0.17578-1.25 0.61328-0.77734 1.1641-0.59375 0.94922-1.0508 1.3594-1.2109 1.1836-0.63281 2.3281-0.89453 1.1836-1.3086 0.80859-1.0312 1.0078-1.2539 1.0859-0.94922 0.75-1.1133 0.55078-1.0312 0.82812-1.3711 0.51172-1.1289-0.19141-1.5273-0.17969-1.0156 0.73047-0.92969 0.43359-1.5117 0.25781-1.3281 0.23828-1.3516-0.082032-1.4688-0.64844-1.1875-0.53125-0.55859-0.96875-0.67188-1.0664-1.3711-0.21484-1.1914 0.13672-1.8047-0.13672-1.0742-0.27734-0.97266 0.25781-0.59375 0.92578-1.1133 0.29688-0.95312-0.33594-0.99219-0.58984-1.1289-0.82812-0.97656-0.30078-0.92969-0.37109-1.3242-0.96094-1.2891 0.3125-1.3281-0.097656-1.6289-0.49219-1.2695 0.21484-1.2266-0.21484-1.2891 0.097657-1.8047 0.31641-0.97266-0.27734-1.2109 0.23438-1.4102 0.10156-1.0078 0.097656-0.93359 0.58984-1.7266 0.375-1.0898 0.71094-2.9961 0.13672-1.4062 0.21484-2.0039-0.039063-2.5391-0.039062-1.3711 0.55078-1.168-0.21484-1.7266-0.32031-1.7266 0.31641-1.168 0.27734-1.6484 0.51172-1.7422-0.078125-2.5195-1.2812-1.168 0.074219-1.3711-0.43359-1.1133-0.76953-1.1289-0.21484-1.4258 0.41406-0.97266 0.53125-1.8477 0.39453-1.4062-0.25781-0.91016-0.49609-1.2539 0.41797-1.3477 0.17578-1.4492-0.16016-0.92969 0.375-1.1328 0.88672-1.168 0.76562-0.85156 1.0469-1.0742 0.13672-1.3281-0.15625-1.5078 0.17578-0.99219-0.47656-1.0508-0.058594-0.99219-0.29688-2.5391-2.0508-0.63281-1.2227 0.40625-1.2422-1.082-0.80469 0.73047-1 0.17578-1.2539 0.054688-1.2305-0.027344-1.0273 0.27734-1.2305 0.91016-0.72656 1.4648-0.44922 0.93359-0.75391 0.074219-1.1758-1.2344-0.98047-0.65625-1.1055 0.73438-0.90234 1.1836 0.25391-0.14844-1.2812 0.48047-1.0508 0.73047-0.80469 1.0352-0.75 1.0039-0.72656 0.98438-0.77734 0.95312-0.57812 0.88281-1 0.90625-0.45312 1.6172-0.097656 0.60547-1.3789 0.65625-0.77734 1.0078-0.20312-0.046875-1.0508-0.60547-1.0547-1.3398-0.32812-0.98047-0.47656-1.1367-0.42578-0.19922-1.4023 0.25-1.082 0.53125-0.85156 0.050781-1.1797 1.0352-0.25 1.7656-0.17188 1.4141-0.42578 1.3555 0.48047 0.5625-1.0586 0.45312-1.0781-0.035157-1.25 0.75781-0.65625 0.87109 0.49609 0.80078-0.625 1.0078-0.15625 1.4648 0.58203 0.58984-0.86719-0.46094-0.93359 0.81641-0.67578-0.003907-1.1914 1.0039-0.023438 0.94531-0.37891 0.82422-0.59375 0.87891 0.53125 0.99219-0.28516 0.91797-0.45312 0.65625-0.77344-0.44141-0.99219-0.43359-0.91016 0.62891-0.80859-0.33203-0.94922 0.50391-0.90625-0.078125-1.0078-0.46484-0.89062 0.51562-0.88672-0.47266-0.9375-0.78516-0.65234-0.12891-1.0352-1.0039 0.14844-0.73438-0.69141-1-0.066406-0.60938-0.82422-0.35156-0.94922 0.074219-1.0508 0.42969-0.92969 0.84766-0.58984 0.3125-0.95703 0.98828-0.20703 1.0234 0.14453 1-0.011718 0.64844-0.80078 0.43359-0.92969 1.0547-0.17578 1.0547-0.25781 0.73047-0.71094-0.074219-1.0391 0.44922-0.90625-0.53125-0.86328-0.98438-0.28906-0.20703-0.98047-0.67969-0.74219-0.58203-0.81641-0.35547-0.94922-0.41406-0.97266 0.28125-1.293-0.64062-0.95312 0.23828-2.1914-0.42188-1.1836-0.37109-1.0469-0.26562-0.97656 0.12109-1.0078 0.94141-0.41797 0.99219 0.16016 0.98438 0.39844 0.98828 0.31641 1.0156 0.027344 0.78125-0.64062 0.99609-0.21484 0.98047-0.55469 0.98438-0.39844 0.97266-0.24609h1.207l1.0391-0.066407 1.0508-0.32812 1.0742-0.20312 0.96875-0.33203 1.1367 0.10547 1.1953-0.23047 0.83984 0.57031 0.44922 0.89844 0.18359 1.0039 0.80469 0.62891 0.87109-0.51953 0.61328-0.81641 1.0195-0.16016 0.97266-0.42969 0.81641-0.60156 0.63672-0.83984 0.57812-0.83203 0.80859-0.59766 1.1602-0.30469 1.2109 0.30859 1.0352-0.14453 1.0977-0.035157 0.98438-0.32031 0.90625-0.60156 0.81641-0.69531 0.59375-0.85938 0.71484-0.72266 0.79688 0.60938 1.0977 0.0625 1.0117 0.17969 0.91016 0.54688 0.95703 0.28906 0.69531 0.76953 0.36328 0.97656 1.4727 0.26562 4.1836 0.75391h1.4453l1.9062 0.050781 1.6523-0.20312 1.4453-0.25781 1.4453-0.30859 1.0312-0.30469 1.2383-0.46484 0.9375-0.37109 0.66016-0.85938 2.6406-1.0938 1.7109-0.70312 0.89844-0.68359 0.85938-0.92969 0.97266-1.2031 7.7188-9.207 1.1094-0.03125 3.7266 1.418 1.4766 0.91406 1.3125 0.53906 2.2148 1.1367 1.1758 0.65625 1.832 0.5 1.1172 0.35938 1.3359 0.77344 1.0742 0.46094 1.3555 0.67578 0.43359 1.0977 0.63281 0.82422-0.4375 1.2188-0.37109 0.94531 0.33984 1.0703 0.32812 1.207 0.15625 1.0391 0.41016 0.93359 0.30859 1.2383 1.0234 0.73047 1.1094 0.44141 1.2383 0.23438 1.0156-0.16797 1.2383 0.13281 1.2891-0.11328 0.97656 0.23438 1.082-0.074219 1.1055 0.15234 1.0234 0.24609 1.0156-0.10938 0.87109 0.57422 1.0156-0.32812 1.0156-0.15625 1.1289 0.0625 0.90625-0.48047 1.2344 0.19531 0.97656 0.25781 1.1953 0.93359 2.7383-1.457 1.5039-0.90625 1.6055-0.73047 2.0352-0.89062 1.5078-1.1602 2.0273-2.1719 0.59766-1.1953 0.39844-1.5547 2.1562-1.0391 0.95703-1.0352 0.79688-1.5938 1.2344-1.5156 1.5156-1.1992 2.2031-1.5234 1.4492-0.86719 1.0664-0.60938 1.6133-1.043 0.74219-0.72266 1.2344-1.2188 1.2734-1.2539 1.0664-1.1016 1.3281-0.57031 1.6445 1.6367 1.0586 1.7734 1.043 2.0586 0.82422 0.99219 1.2773 0.80859 0.99219-0.30859 0.87109-1.3711-0.089844-1.0898-0.96484-0.96484-1.1914-0.86328-1.1484-1.1211-1.1172-1.4375-0.27734-1.3047-0.15625-1.4023 0.11328-1.2422 0.74609-1.668 0.53516-0.89453 1.5625-0.67578 1.5586-0.375 1.582-0.12109 0.73047 0.097656" fill="none" stroke="#fff" stroke-linecap="round" stroke-linejoin="round" stroke-miterlimit="10"/>
<path d="m370.13 134.28c0 3.5898-2.9102 6.5-6.5 6.5-3.5898 0-6.5-2.9102-6.5-6.5s2.9102-6.5 6.5-6.5c3.5898 0 6.5 2.9102 6.5 6.5" fill="#28c028" fill-rule="evenodd" stroke="#000" stroke-linecap="round" stroke-linejoin="round" stroke-miterlimit="10"/>
<path d="m196.9 128.28v-13.672h-4.875v-2.7969h13.078v2.7969h-4.875v13.672zm9.6719-8.125c0-1.6758 0.25-3.0859 0.75-4.2344 0.375-0.83203 0.88281-1.582 1.5312-2.25 0.64453-0.66406 1.3516-1.1602 2.125-1.4844 1.0312-0.4375 2.2188-0.65625 3.5625-0.65625 2.4141 0 4.3516 0.75781 5.8125 2.2656 1.457 1.5 2.1875 3.5938 2.1875 6.2812 0 2.6562-0.72656 4.7344-2.1719 6.2344-1.4375 1.5-3.3711 2.25-5.7969 2.25-2.4492 0-4.3984-0.74219-5.8438-2.2344-1.4375-1.5-2.1562-3.5547-2.1562-6.1719zm3.4219-0.125c0 1.8672 0.42969 3.2812 1.2969 4.25 0.86328 0.96094 1.957 1.4375 3.2812 1.4375 1.3203 0 2.4062-0.47266 3.25-1.4219 0.85156-0.95703 1.2812-2.3906 1.2812-4.2969 0-1.8945-0.41797-3.3047-1.25-4.2344-0.82422-0.92578-1.918-1.3906-3.2812-1.3906-1.375 0-2.4844 0.47656-3.3281 1.4219-0.83594 0.9375-1.25 2.3516-1.25 4.2344zm15.125-8.2188h3.3125v8.9219c0 1.418 0.039062 2.3359 0.125 2.75 0.14453 0.67969 0.48438 1.2188 1.0156 1.625 0.53906 0.40625 1.2734 0.60938 2.2031 0.60938 0.9375 0 1.6445-0.19141 2.125-0.57812 0.47656-0.38281 0.76562-0.85938 0.85938-1.4219 0.10156-0.5625 0.15625-1.4922 0.15625-2.7969v-9.1094h3.3281v8.6562c0 1.9688-0.09375 3.3672-0.28125 4.1875-0.17969 0.8125-0.50781 1.5-0.98438 2.0625-0.48047 0.5625-1.125 1.0117-1.9375 1.3438s-1.8711 0.5-3.1719 0.5c-1.5742 0-2.7656-0.18359-3.5781-0.54688s-1.4531-0.83203-1.9219-1.4062c-0.46875-0.58203-0.77734-1.1914-0.92188-1.8281-0.21875-0.94531-0.32812-2.3438-0.32812-4.1875zm16.641 16.469v-16.469h7c1.7578 0 3.0352 0.15234 3.8281 0.45312 0.80078 0.29297 1.4414 0.82031 1.9219 1.5781 0.47656 0.75 0.71875 1.6172 0.71875 2.5938 0 1.2305-0.36719 2.25-1.0938 3.0625-0.73047 0.80469-1.8203 1.3086-3.2656 1.5156 0.71875 0.41797 1.3125 0.88281 1.7812 1.3906 0.46875 0.5 1.0977 1.3867 1.8906 2.6562l2.0156 3.2188h-3.9688l-2.4062-3.5781c-0.85547-1.2812-1.4375-2.0859-1.75-2.4219-0.3125-0.33203-0.64844-0.5625-1-0.6875-0.35547-0.125-0.91406-0.1875-1.6719-0.1875h-0.67188v6.875zm3.3281-9.5h2.4531c1.5938 0 2.5859-0.066406 2.9844-0.20312 0.39453-0.13281 0.70312-0.36328 0.92188-0.6875 0.22656-0.33203 0.34375-0.75 0.34375-1.25 0-0.55078-0.14844-0.99219-0.4375-1.3281-0.29297-0.34375-0.71094-0.5625-1.25-0.65625-0.27344-0.03125-1.0781-0.046875-2.4219-0.046875h-2.5938zm13.297 9.5v-16.469h3.2344l6.75 11v-11h3.0781v16.469h-3.3281l-6.6406-10.734v10.734zm31.422 0h-3.6094l-1.4375-3.7344h-6.5781l-1.3594 3.7344h-3.5312l6.4062-16.469h3.5156zm-6.1094-6.5156-2.2812-6.1094-2.2188 6.1094zm12.078 6.5156-5.8906-16.469h3.6094l4.1719 12.188 4.0312-12.188h3.5156l-5.8906 16.469zm11.047 0v-16.469h3.3125v16.469zm5.6406-5.3594 3.2344-0.3125c0.19531 1.0859 0.59375 1.8828 1.1875 2.3906 0.59375 0.51172 1.3945 0.76562 2.4062 0.76562 1.0703 0 1.8789-0.22266 2.4219-0.67188 0.53906-0.45703 0.8125-0.98828 0.8125-1.5938 0-0.39453-0.11719-0.72656-0.34375-1-0.23047-0.26953-0.625-0.50391-1.1875-0.70312-0.39844-0.13281-1.2891-0.375-2.6719-0.71875-1.7812-0.44531-3.0312-0.99219-3.75-1.6406-1.0117-0.90625-1.5156-2.0078-1.5156-3.3125 0-0.83203 0.23828-1.6133 0.71875-2.3438 0.47656-0.72656 1.1602-1.2852 2.0469-1.6719 0.89453-0.38281 1.9766-0.57812 3.25-0.57812 2.0625 0 3.6133 0.45312 4.6562 1.3594 1.0508 0.90625 1.6016 2.1172 1.6562 3.625l-3.3281 0.15625c-0.14844-0.84375-0.45312-1.4531-0.92188-1.8281-0.46094-0.375-1.1562-0.5625-2.0938-0.5625-0.96875 0-1.7305 0.20312-2.2812 0.60938-0.34375 0.25-0.51562 0.58984-0.51562 1.0156 0 0.38672 0.16016 0.71875 0.48438 1 0.42578 0.35547 1.4453 0.72656 3.0625 1.1094 1.6133 0.375 2.8047 0.76562 3.5781 1.1719 0.78125 0.40625 1.3906 0.96484 1.8281 1.6719 0.4375 0.71094 0.65625 1.5859 0.65625 2.625 0 0.94922-0.26562 1.8359-0.79688 2.6562-0.52344 0.82422-1.2617 1.4375-2.2188 1.8438-0.96094 0.39453-2.1523 0.59375-3.5781 0.59375-2.0859 0-3.6836-0.47656-4.7969-1.4375-1.1172-0.96875-1.7812-2.375-2-4.2188zm19.891 5.3594v-13.672h-4.875v-2.7969h13.078v2.7969h-4.875v13.672zm25.188 0h-3.6094l-1.4375-3.7344h-6.5781l-1.3594 3.7344h-3.5312l6.4062-16.469h3.5156zm-6.1094-6.5156-2.2812-6.1094-2.2188 6.1094zm0 0" fill="none" stroke="#fff" stroke-linecap="round" stroke-linejoin="round" stroke-miterlimit="10" stroke-width="2"/>
<path d="m196.9 128.28v-13.672h-4.875v-2.7969h13.078v2.7969h-4.875v13.672zm9.6719-8.125c0-1.6758 0.25-3.0859 0.75-4.2344 0.375-0.83203 0.88281-1.582 1.5312-2.25 0.64453-0.66406 1.3516-1.1602 2.125-1.4844 1.0312-0.4375 2.2188-0.65625 3.5625-0.65625 2.4141 0 4.3516 0.75781 5.8125 2.2656 1.457 1.5 2.1875 3.5938 2.1875 6.2812 0 2.6562-0.72656 4.7344-2.1719 6.2344-1.4375 1.5-3.3711 2.25-5.7969 2.25-2.4492 0-4.3984-0.74219-5.8438-2.2344-1.4375-1.5-2.1562-3.5547-2.1562-6.1719zm3.4219-0.125c0 1.8672 0.42969 3.2812 1.2969 4.25 0.86328 0.96094 1.957 1.4375 3.2812 1.4375 1.3203 0 2.4062-0.47266 3.25-1.4219 0.85156-0.95703 1.2812-2.3906 1.2812-4.2969 0-1.8945-0.41797-3.3047-1.25-4.2344-0.82422-0.92578-1.918-1.3906-3.2812-1.3906-1.375 0-2.4844 0.47656-3.3281 1.4219-0.83594 0.9375-1.25 2.3516-1.25 4.2344zm15.125-8.2188h3.3125v8.9219c0 1.418 0.039062 2.3359 0.125 2.75 0.14453 0.67969 0.48438 1.2188 1.0156 1.625 0.53906 0.40625 1.2734 0.60938 2.2031 0.60938 0.9375 0 1.6445-0.19141 2.125-0.57812 0.47656-0.38281 0.76562-0.85938 0.85938-1.4219 0.10156-0.5625 0.15625-1.4922 0.15625-2.7969v-9.1094h3.3281v8.6562c0 1.9688-0.09375 3.3672-0.28125 4.1875-0.17969 0.8125-0.50781 1.5-0.98438 2.0625-0.48047 0.5625-1.125 1.0117-1.9375 1.3438s-1.8711 0.5-3.1719 0.5c-1.5742 0-2.7656-0.18359-3.5781-0.54688s-1.4531-0.83203-1.9219-1.4062c-0.46875-0.58203-0.77734-1.1914-0.92188-1.8281-0.21875-0.94531-0.32812-2.3438-0.32812-4.1875zm16.641 16.469v-16.469h7c1.7578 0 3.0352 0.15234 3.8281 0.45312 0.80078 0.29297 1.4414 0.82031 1.9219 1.5781 0.47656 0.75 0.71875 1.6172 0.71875 2.5938 0 1.2305-0.36719 2.25-1.0938 3.0625-0.73047 0.80469-1.8203 1.3086-3.2656 1.5156 0.71875 0.41797 1.3125 0.88281 1.7812 1.3906 0.46875 0.5 1.0977 1.3867 1.8906 2.6562l2.0156 3.2188h-3.9688l-2.4062-3.5781c-0.85547-1.2812-1.4375-2.0859-1.75-2.4219-0.3125-0.33203-0.64844-0.5625-1-0.6875-0.35547-0.125-0.91406-0.1875-1.6719-0.1875h-0.67188v6.875zm3.3281-9.5h2.4531c1.5938 0 2.5859-0.066406 2.9844-0.20312 0.39453-0.13281 0.70312-0.36328 0.92188-0.6875 0.22656-0.33203 0.34375-0.75 0.34375-1.25 0-0.55078-0.14844-0.99219-0.4375-1.3281-0.29297-0.34375-0.71094-0.5625-1.25-0.65625-0.27344-0.03125-1.0781-0.046875-2.4219-0.046875h-2.5938zm13.297 9.5v-16.469h3.2344l6.75 11v-11h3.0781v16.469h-3.3281l-6.6406-10.734v10.734zm31.422 0h-3.6094l-1.4375-3.7344h-6.5781l-1.3594 3.7344h-3.5312l6.4062-16.469h3.5156zm-6.1094-6.5156-2.2812-6.1094-2.2188 6.1094zm12.078 6.5156-5.8906-16.469h3.6094l4.1719 12.188 4.0312-12.188h3.5156l-5.8906 16.469zm11.047 0v-16.469h3.3125v16.469zm5.6406-5.3594 3.2344-0.3125c0.19531 1.0859 0.59375 1.8828 1.1875 2.3906 0.59375 0.51172 1.3945 0.76562 2.4062 0.76562 1.0703 0 1.8789-0.22266 2.4219-0.67188 0.53906-0.45703 0.8125-0.98828 0.8125-1.5938 0-0.39453-0.11719-0.72656-0.34375-1-0.23047-0.26953-0.625-0.50391-1.1875-0.70312-0.39844-0.13281-1.2891-0.375-2.6719-0.71875-1.7812-0.44531-3.0312-0.99219-3.75-1.6406-1.0117-0.90625-1.5156-2.0078-1.5156-3.3125 0-0.83203 0.23828-1.6133 0.71875-2.3438 0.47656-0.72656 1.1602-1.2852 2.0469-1.6719 0.89453-0.38281 1.9766-0.57812 3.25-0.57812 2.0625 0 3.6133 0.45312 4.6562 1.3594 1.0508 0.90625 1.6016 2.1172 1.6562 3.625l-3.3281 0.15625c-0.14844-0.84375-0.45312-1.4531-0.92188-1.8281-0.46094-0.375-1.1562-0.5625-2.0938-0.5625-0.96875 0-1.7305 0.20312-2.2812 0.60938-0.34375 0.25-0.51562 0.58984-0.51562 1.0156 0 0.38672 0.16016 0.71875 0.48438 1 0.42578 0.35547 1.4453 0.72656 3.0625 1.1094 1.6133 0.375 2.8047 0.76562 3.5781 1.1719 0.78125 0.40625 1.3906 0.96484 1.8281 1.6719 0.4375 0.71094 0.65625 1.5859 0.65625 2.625 0 0.94922-0.26562 1.8359-0.79688 2.6562-0.52344 0.82422-1.2617 1.4375-2.2188 1.8438-0.96094 0.39453-2.1523 0.59375-3.5781 0.59375-2.0859 0-3.6836-0.47656-4.7969-1.4375-1.1172-0.96875-1.7812-2.375-2-4.2188zm19.891 5.3594v-13.672h-4.875v-2.7969h13.078v2.7969h-4.875v13.672zm25.188 0h-3.6094l-1.4375-3.7344h-6.5781l-1.3594 3.7344h-3.5312l6.4062-16.469h3.5156zm-6.1094-6.5156-2.2812-6.1094-2.2188 6.1094z" fill-rule="evenodd"/>
</g>
</svg>
