<?xml version="1.0" encoding="UTF-8"?>
<svg width="335pt" height="500pt" version="1.1" viewBox="0 0 335 500" xmlns="http://www.w3.org/2000/svg">
<g id="a">
<rect width="335" height="500" fill="none"/>
<path d="m214.25 296.52 1.5391 0.26953 2.375 0.10938 2.2109 0.25391 2.3516 0.28906 2.2188 0.98828 1.1562 0.60156 1.1797 0.625 1.0352 0.69922 0.11328 1.0195-0.875 0.98828-0.90625 0.76562-0.89453 0.64453 0.33203 1.082 1.9531 0.46094 1.3164-0.22266 1.418 0.32031 1.2227 0.57812 1.0273 0.48438 1.2539 0.78906 0.96875 0.65234 1.082 0.98828 1.3281 0.85547 1.3711 0.16016 1.3281-0.20312 1.2852-0.47266 2.4531-2.2305 1.0586-0.62891 0.92188-0.51953 1.0586-0.17969 1.3047 0.13672 1.1953-0.47266 1.1484-1.125 1.8047-0.29688 1.5 0.019532 1.5781-0.050782 1.5781-0.011718 1.1797 0.09375 2.0156-0.27344 1.5352 0.82812 1.125 0.56641 2.2227 0.88281 1.1914 0.13281 2.0117-0.75781 1.4102-0.66016 1.3242-0.35547 1.3672 0.089844 1.5898 0.53125 1.1914 0.57031 1.5 0.70703 1.1445 0.97266-0.03125 1.2969-1.0664 1.1055-0.48047 1.0273-1.4219 1.418-0.91797 0.71094-0.89844 0.90234-0.37891 1.0625-0.625 1.1094-0.73047 1.0039-1.1094 1.2969-0.79297 0.75-1.5469 0.71094-1.2969 0.94141-1.1094 1.0234-0.082031 1.3594 0.25 1.3984 0.33594 1.0469 0.5625 1.4414 0.37891 1.4844-1.1523 1.2344-0.875 0.6875-0.85938 0.71094-1.4258 1.7188-1.5352 1.4102-0.86328 0.58594-1.3164 0.73828-1.1289 1.7109-0.71094 0.87891-1.3359 1.1094-0.94141 0.375-1.1914 0.375-1.0859 0.48047-2.4062 1.8008-0.9375 0.6875-2.2188 1.4648-1.5039 1.3789-0.58594 1.2344-0.67578 1.7969-0.24219 1.2266 1.2461 1.5039 0.87109 0.90234 0.89062 1.0586 0.79297 1.625 0.625 0.96484 1.2461 1.3633 0.019532 1.1367 0.30469 1.2656-0.56641 1.25-0.35938 1.7578-0.17188 1.1758 0.039062 1.1133 0.49219 1.8555 0.1875 1.7578 0.15234 2.1016-0.039063 1.9844-0.35938 1.0977-0.28516 1.0234-0.30078 1.4766 0.78906 1.3633 0.74609 0.71484 0.54297 0.84766 0.64453 1.7656 0.31641 1.3594-0.29297 1.0469-0.43359 0.91406-0.48047 1.4414-0.66797 0.90625-1.1211 0.78516-1.1016 0.92578-0.78125 0.66406-0.88281 0.80469-1.1992 0.78125-1.582 0.19141-1.1055-0.52344-1.168-0.44531-0.96875-1.0273-0.72266-0.75-0.97266-0.49609-1.0508 0.082031-1.0547 0.27734-1.3047-0.11328-1.6484 0.84375-1.2227 1.3516-1.1758 0.92969-0.95312 1.1992-1.707 1.7266-1.3281 1.5078-1.0664 1.0234-1.0195 0.59766-1.3945 0.86328-0.93359 0.44531-1.3359 0.050781-1.1172 0.042969-1.1484 0.54297h-1.1328l-0.86719 0.65234-0.96484 0.31641-1.2266-0.050782-0.62891 1.0859-0.74609 0.82031-0.96484 0.28906-1.2695-0.44922-1.3516 0.28906-1.2695-0.089844-0.91797-1.3828-0.40625-1.1055-0.80859-0.94531-0.80078-0.64062-1.4453-0.88281-0.29297-1.5-1.3398-0.77344h-2.4062l-1.4609 0.54297-1.1641 0.13672-1.1953 0.027343-2.2188-0.30078-1.9844 0.011719-0.97656 0.40234-0.98828 0.66406-2.8867 2.9258-0.89062 0.58594-1.8008 0.089844-3.2617-0.61719-0.90234 0.46484-1.0859 0.97656-1.2695 0.35547-1.7266 0.48828-1.8789-0.38281-1.1016-0.16016-2.0469-0.44141-0.78125-0.97656-0.96484-1.2383-1.3633-1.8047-1.0391-0.57422-1.957 0.10156-1.3867 0.41406-1.6484 0.22266-1.1211-0.050782-1.4844-1.3867-1.7031 0.027343-1.6367 1.0117-1.2109 1.4297-0.66016 0.98828-0.87109 1.1992-1.082 0.80078-0.47656 1.6523-0.55859 1.2617-1.9453 2.2461-0.9375 0.8125-0.65625 0.79688 0.058594-1.3984 1.5234-3.7539 0.37109-1.3008 0.11719-1.0469 0.23438-1.9453 0.34766-1.5312 0.95312-2.9102 0.44922-0.92969 0.87109-1.1875 1.6797-1.9258 1.8164-1.4023 0.85938-1.1406 1.6133-1.7578 1.4844-1.3008 1.2266-1.2266 1.6914-1.3398 1.6055-1.2422 1.8164-0.82031 1.875-1.0781 1.4883-0.81641 1.8594-0.94922 1.7656-0.96484 1.1133-0.52344 1.2266-0.74219 1.1172-1.0977 0.66797-0.76953 1.043-0.98828 0.76953-0.76562 0.71094-0.71484 0.85156-0.79688 0.87891-0.63281 1.9141-1.5742 1.0781-0.92969 1.0039-1.3203 0.50391-1.0039 0.90625-1.7031 0.4375-1.0664 0.52344-0.98828 0.76953-1.0977 0.76562-0.85156 0.66016-1.1523-1.5664-1.8945-1.4805-1.1797-0.79297-1.3477-0.61328-1.0391-0.83594-1.4492-0.53906-1.6758 0.26562-1.7656 0.83203-1.0195 1.1484-0.83594 1.5273-1.4531 1.1523-1.207 1.3164-0.42578 1.3398-0.46484 0.58594-1.6016 0.51953-1.3594 0.84375-0.84375 0.79297-1.0117 0.46875-1.8867 0.64453-0.76562 0.84375-1.1172 0.37109-1.1133 1.9375-2.3086 0.51172-1.1992-0.19531-1.8672 0.32422-1.375 0.43359-1.1406-0.015625-1.7383 0.83594-1.3203 0.09375-1.3828-0.28516-1.0625-0.27344-1.5156 1.3711-1.8438 1.3086-0.63672 1.0977-0.56641 2.2461-1.207 0.77734-0.72656 0.20703-1.8594 0.29688-1.1328 0.51562-0.87109 0.67188-1.4883 1.1094-1.1562 0.95703-0.96094 0.22266-1.0781 0.0625-1.0664 0.066406-1.0547 0.035157-1.2617 0.11328-1.3203-0.074219-1.1328 0.21094-0.99609z" fill="#ccc" fill-rule="evenodd"/>
<path d="m214.25 296.52 1.5391 0.26953 2.375 0.10938 2.2109 0.25391 2.3516 0.28906 2.2188 0.98828 1.1562 0.60156 1.1797 0.625 1.0352 0.69922 0.11328 1.0195-0.875 0.98828-0.90625 0.76562-0.89453 0.64453 0.33203 1.082 1.9531 0.46094 1.3164-0.22266 1.418 0.32031 1.2227 0.57812 1.0273 0.48438 1.2539 0.78906 0.96875 0.65234 1.082 0.98828 1.3281 0.85547 1.3711 0.16016 1.3281-0.20312 1.2852-0.47266 2.4531-2.2305 1.0586-0.62891 0.92188-0.51953 1.0586-0.17969 1.3047 0.13672 1.1953-0.47266 1.1484-1.125 1.8047-0.29688 1.5 0.019532 1.5781-0.050782 1.5781-0.011718 1.1797 0.09375 2.0156-0.27344 1.5352 0.82812 1.125 0.56641 2.2227 0.88281 1.1914 0.13281 2.0117-0.75781 1.4102-0.66016 1.3242-0.35547 1.3672 0.089844 1.5898 0.53125 1.1914 0.57031 1.5 0.70703 1.1445 0.97266-0.03125 1.2969-1.0664 1.1055-0.48047 1.0273-1.4219 1.418-0.91797 0.71094-0.89844 0.90234-0.37891 1.0625-0.625 1.1094-0.73047 1.0039-1.1094 1.2969-0.79297 0.75-1.5469 0.71094-1.2969 0.94141-1.1094 1.0234-0.082031 1.3594 0.25 1.3984 0.33594 1.0469 0.5625 1.4414 0.37891 1.4844-1.1523 1.2344-0.875 0.6875-0.85938 0.71094-1.4258 1.7188-1.5352 1.4102-0.86328 0.58594-1.3164 0.73828-1.1289 1.7109-0.71094 0.87891-1.3359 1.1094-0.94141 0.375-1.1914 0.375-1.0859 0.48047-2.4062 1.8008-0.9375 0.6875-2.2188 1.4648-1.5039 1.3789-0.58594 1.2344-0.67578 1.7969-0.24219 1.2266 1.2461 1.5039 0.87109 0.90234 0.89062 1.0586 0.79297 1.625 0.625 0.96484 1.2461 1.3633 0.019532 1.1367 0.30469 1.2656-0.56641 1.25-0.35938 1.7578-0.17188 1.1758 0.039062 1.1133 0.49219 1.8555 0.1875 1.7578 0.15234 2.1016-0.039063 1.9844-0.35938 1.0977-0.28516 1.0234-0.30078 1.4766 0.78906 1.3633 0.74609 0.71484 0.54297 0.84766 0.64453 1.7656 0.31641 1.3594-0.29297 1.0469-0.43359 0.91406-0.48047 1.4414-0.66797 0.90625-1.1211 0.78516-1.1016 0.92578-0.78125 0.66406-0.88281 0.80469-1.1992 0.78125-1.582 0.19141-1.1055-0.52344-1.168-0.44531-0.96875-1.0273-0.72266-0.75-0.97266-0.49609-1.0508 0.082031-1.0547 0.27734-1.3047-0.11328-1.6484 0.84375-1.2227 1.3516-1.1758 0.92969-0.95312 1.1992-1.707 1.7266-1.3281 1.5078-1.0664 1.0234-1.0195 0.59766-1.3945 0.86328-0.93359 0.44531-1.3359 0.050781-1.1172 0.042969-1.1484 0.54297h-1.1328l-0.86719 0.65234-0.96484 0.31641-1.2266-0.050782-0.62891 1.0859-0.74609 0.82031-0.96484 0.28906-1.2695-0.44922-1.3516 0.28906-1.2695-0.089844-0.91797-1.3828-0.40625-1.1055-0.80859-0.94531-0.80078-0.64062-1.4453-0.88281-0.29297-1.5-1.3398-0.77344h-2.4062l-1.4609 0.54297-1.1641 0.13672-1.1953 0.027343-2.2188-0.30078-1.9844 0.011719-0.97656 0.40234-0.98828 0.66406-2.8867 2.9258-0.89062 0.58594-1.8008 0.089844-3.2617-0.61719-0.90234 0.46484-1.0859 0.97656-1.2695 0.35547-1.7266 0.48828-1.8789-0.38281-1.1016-0.16016-2.0469-0.44141-0.78125-0.97656-0.96484-1.2383-1.3633-1.8047-1.0391-0.57422-1.957 0.10156-1.3867 0.41406-1.6484 0.22266-1.1211-0.050782-1.4844-1.3867-1.7031 0.027343-1.6367 1.0117-1.2109 1.4297-0.66016 0.98828-0.87109 1.1992-1.082 0.80078-0.47656 1.6523-0.55859 1.2617-1.9453 2.2461-0.9375 0.8125-0.65625 0.79688 0.058594-1.3984 1.5234-3.7539 0.37109-1.3008 0.11719-1.0469 0.23438-1.9453 0.34766-1.5312 0.95312-2.9102 0.44922-0.92969 0.87109-1.1875 1.6797-1.9258 1.8164-1.4023 0.85938-1.1406 1.6133-1.7578 1.4844-1.3008 1.2266-1.2266 1.6914-1.3398 1.6055-1.2422 1.8164-0.82031 1.875-1.0781 1.4883-0.81641 1.8594-0.94922 1.7656-0.96484 1.1133-0.52344 1.2266-0.74219 1.1172-1.0977 0.66797-0.76953 1.043-0.98828 0.76953-0.76562 0.71094-0.71484 0.85156-0.79688 0.87891-0.63281 1.9141-1.5742 1.0781-0.92969 1.0039-1.3203 0.50391-1.0039 0.90625-1.7031 0.4375-1.0664 0.52344-0.98828 0.76953-1.0977 0.76562-0.85156 0.66016-1.1523-1.5664-1.8945-1.4805-1.1797-0.79297-1.3477-0.61328-1.0391-0.83594-1.4492-0.53906-1.6758 0.26562-1.7656 0.83203-1.0195 1.1484-0.83594 1.5273-1.4531 1.1523-1.207 1.3164-0.42578 1.3398-0.46484 0.58594-1.6016 0.51953-1.3594 0.84375-0.84375 0.79297-1.0117 0.46875-1.8867 0.64453-0.76562 0.84375-1.1172 0.37109-1.1133 1.9375-2.3086 0.51172-1.1992-0.19531-1.8672 0.32422-1.375 0.43359-1.1406-0.015625-1.7383 0.83594-1.3203 0.09375-1.3828-0.28516-1.0625-0.27344-1.5156 1.3711-1.8438 1.3086-0.63672 1.0977-0.56641 2.2461-1.207 0.77734-0.72656 0.20703-1.8594 0.29688-1.1328 0.51562-0.87109 0.67188-1.4883 1.1094-1.1562 0.95703-0.96094 0.22266-1.0781 0.0625-1.0664 0.066406-1.0547 0.035157-1.2617 0.11328-1.3203-0.074219-1.1328 0.21094-0.99609 2.3984 0.63281" fill="none" stroke="#fff" stroke-linecap="round" stroke-linejoin="round" stroke-miterlimit="10" stroke-width="2"/>
<path d="m267.49 381.93 0.36719 0.49609 0.24609 1.2852-0.082032 1.2227-0.14062 1.0625 0.29297 1.6914-0.14062 1.793-0.41797 1.0586-1.3711 1.2344-1.4805 0.78516-0.53906 1.1641-0.71094 0.97266-0.45312 0.95703-0.81641 0.92188-0.45312 1.1641-1.1094 1.125-1.5 0.75-0.86328 0.55469-0.84766 0.68359 0.77734 1.1055 0.91016 1.375 0.007813 1.7539-0.21094 1.3672-0.31641 2.7422 0.058594 1.4297-0.011719 1.0781-0.24219 1.5078-0.44141 0.94531-0.73438 0.90625-1.043 1.3086-1.0898 1.1211-1.0195 0.82812-1.0742 0.34766-1.5 0.85156-0.48047 1.5391-0.75781 1.207-0.25391 1.5117 0.46875 1.7656-0.16406 1.0391-0.085938 1.5352 0.30078 1.5977 1.4648 1.457 1.1406 1.043 1.0273 1.0469 0.63672 1.3164 0.63672 0.9375 1.1641 2.2344 1.2383 1.2188-0.38672 2.4531-0.85938 0.91406-0.79297 1.8438-1.5273 1.6953-1.1367 1.1289-0.875 1.2461-0.77344 0.93359-1.0977 0.80078-0.66016 1.0234-0.41406 0.95312-0.30469 1-0.25391 1.0586-1.3594 1.1445-0.6875 1.0312-1.375 0.46484-1.6836 0.19531-1.4102-0.17578-1.0078 0.097656-1.5312 0.90625-1.582 0.34375-1.1641 0.45703-1.1211 0.0625-1.5586 0.74609-1.2891 0.10547-1.1445 0.042968-1.3086-0.042968-1.2227 0.625-0.76953 1.0156-0.70703 1.3125 0.0625 1.3477-0.875 0.72656-1.2266 0.54297-1.0586 1.0781-0.64844 0.83984-1.0391 0.88281-1.4062 0.89844-0.54297 1.3125-0.88281 1.0625-1.0898 0.28516-1.1953 0.54688-0.60156 0.93359-0.039063 1.3828-0.33203 1.3828-0.078125 1.125 0.25781 1.1914 0.35547 1.1953-0.49609 3.1641-0.30859 1.0625-1.082 1.9961-1.0469 1.7812-1.4102 1.2109-0.80469 1.168-0.71094 1.6641-0.35938 1.8125-0.47266 1.4336-0.33984 1.0938-0.33203 1.4375-0.11719 1.0039-0.039062 1.0859-1.2031-0.48828-1.2031-0.17969-1.918 0.011719-1.3633-0.054687-1.2891-0.18359-1.6797-0.16797-1.1094-0.34766-0.69141-0.76172-0.48438-1.3125-0.48438-1.1094-2.2148-1.7305-2.3555-2.0781-1.9375-1.9375-1.7305-1.1758-0.55469-1.1797-0.55469-1.8008-0.14844-0.99609-0.73828-0.82031-0.98828-0.60156-1.1172-0.66797-1.3789-1.1172-0.6875-0.83984-0.36719-1.0117-0.47266-1.5469-0.26562-1.0234-0.89062-0.94141-1.6406-1.2656-0.66016-0.94141-0.58203-1.0859-2.2305-4.0586-0.56641-0.98828-1.5703 0.039063-1.5078 0.67578-2.1484 0.875-1.2812 0.51562-1.8242-0.03125-1.2266 0.17969-1.5664 0.82422-1.7031 0.26562-1.4609 0.054688-1.7266 0.47656-1.5391 0.55859-0.92969-0.44922-1.2227-0.32031-1.0898 0.53125-1.1406 0.79688-2.0469 1.1406-1.0898 0.92969-1.0352 0.34766-1.0664-0.16016-1.4883-0.34375-1.6445-0.32031-1.2227-0.55859 0.23828-1.1562 0.21094-1.5469 0.57812-1.6172v-1.3398l-0.73828-0.85938-0.19922-1.1406-0.24609-1.1445-0.050781-1.1445 0.55469-3.0039-0.078125-1.8516 0.13281-1.1367 0.20312-1.0352 0.046875-1.0625-0.39844-1.4492-0.17969-1.9609-0.14062-1.457-0.5625-2.0273-0.46875-1.0195-0.5625-2.3477-0.4375-1.2539-0.88281-1.3828-0.55859-1.1875-1.2812-1.6406-0.76953-1.3242-1.2422-2.1406-0.87891-1.5195-1.1406-1.5352-1.0312-1.1797-1.3008-0.14844-1.1562-0.074219-1.1562-0.17188-1.4766-0.95703-1.3203-0.44531-1.0898-0.48828 0.45703-1.1875-0.25-1.1016-0.81641-0.86328-0.99219-1.1484-0.42969-0.91797 0.21484-1.6172 0.76562-0.94922-0.17969-1.2031-0.046875-1.7109-0.23828-1.2969-0.38281-1.6641-0.32812-1.4609 0.019532-1.8086 0.55469-0.86328 0.78125-0.91797 0.78125-0.87109 0.87109-1.0547 0.64453-1.6562 0.96484-1.7422 1.0898-0.65234 1.3867 0.34766 0.41797 0.91797 1.1523 1.0781 2.6055 0.089844 1.1992 0.13672 0.80859 0.61719 1.2305 1.4258 0.90234 0.47266 1.4141-0.34375 2.082-0.51953 0.98438-0.28125 1.0391-0.089843 1.4922-0.68359 0.6875-0.85547 0.9375-0.8125 1.4883-1.6055 0.78906-1.2578 0.38672-1.4531 0.58594-1.1367 1.2305-0.86328 1.1133-1.832 1.2109-1.4297 1.3359-0.96484 1.2734-0.20703 2.2148 1.5195 1.1211 0.050782 1.6484-0.22266 1.3867-0.41406 1.1484-0.125 1.8477 0.59766 1.3633 1.8047 0.96484 1.2383 0.78125 0.97656 1.1367 0.42578 2.0117 0.17578 1.0469 0.28516 1.7578-0.078125 1.5898-0.57422 1.0039-0.47266 0.89453-0.96484 3.832 0.51953 1.8008-0.089844 0.89062-0.58594 2.8867-2.9258 0.98828-0.66406 0.97656-0.40234 1.9844-0.011719 2.2188 0.30078 1.1953-0.027343 1.1641-0.13672 1.4609-0.54297 1.4961-0.27344 1.8984 0.59375 0.58984 1.0703 0.85547 1.3867 0.96484 0.61719 0.82812 0.69531 0.70312 1.1641 0.59375 1.3008 1.0664 0.89844 1.3086-0.44141 1.1992 0.17188 1.4531 0.27344 0.84766-0.84375 0.57812-1.1328 1.4922-0.14453 0.96484-0.31641 0.86719-0.65234h1.1328l1.1484-0.54297 1.1172-0.042969 1.3359-0.050781 0.93359-0.44531 1.3945-0.86328 1.0195-0.59766 1.0664-1.0234 0.79688-0.6875 2.2383-2.5469 0.95312-1.1992 1.1758-0.92969 1.2227-1.3516 1.0273-0.85156 1.0078 0.17578 1.4414-0.22266 1.582-0.19141 0.97266 0.49609 0.72266 0.75 0.96875 1.0273 1.168 0.44531 1.1055 0.52344 1.582-0.19141 1.1992-0.78125 0.88281-0.80469 0.78125-0.66406 1.1016-0.92578 1.1211-0.78516 0.66797-0.90625 0.48047-1.4414 0.43359-0.91406 0.29297-1.0469 0.98828 1.8086 1.4805 1.1484 2.0742 0.47266 1.0859-0.13281 1.4961-0.375 2.5156-1.4141 0.88672-0.58984 2.6953-1.2305 1.3477-0.40625z" fill="#ccc" fill-rule="evenodd"/>
<path d="m267.49 381.93 0.36719 0.49609 0.24609 1.2852-0.082032 1.2227-0.14062 1.0625 0.29297 1.6914-0.14062 1.793-0.41797 1.0586-1.3711 1.2344-1.4805 0.78516-0.53906 1.1641-0.71094 0.97266-0.45312 0.95703-0.81641 0.92188-0.45312 1.1641-1.1094 1.125-1.5 0.75-0.86328 0.55469-0.84766 0.68359 0.77734 1.1055 0.91016 1.375 0.007813 1.7539-0.21094 1.3672-0.31641 2.7422 0.058594 1.4297-0.011719 1.0781-0.24219 1.5078-0.44141 0.94531-0.73438 0.90625-1.043 1.3086-1.0898 1.1211-1.0195 0.82812-1.0742 0.34766-1.5 0.85156-0.48047 1.5391-0.75781 1.207-0.25391 1.5117 0.46875 1.7656-0.16406 1.0391-0.085938 1.5352 0.30078 1.5977 1.4648 1.457 1.1406 1.043 1.0273 1.0469 0.63672 1.3164 0.63672 0.9375 1.1641 2.2344 1.2383 1.2188-0.38672 2.4531-0.85938 0.91406-0.79297 1.8438-1.5273 1.6953-1.1367 1.1289-0.875 1.2461-0.77344 0.93359-1.0977 0.80078-0.66016 1.0234-0.41406 0.95312-0.30469 1-0.25391 1.0586-1.3594 1.1445-0.6875 1.0312-1.375 0.46484-1.6836 0.19531-1.4102-0.17578-1.0078 0.097656-1.5312 0.90625-1.582 0.34375-1.1641 0.45703-1.1211 0.0625-1.5586 0.74609-1.2891 0.10547-1.1445 0.042968-1.3086-0.042968-1.2227 0.625-0.76953 1.0156-0.70703 1.3125 0.0625 1.3477-0.875 0.72656-1.2266 0.54297-1.0586 1.0781-0.64844 0.83984-1.0391 0.88281-1.4062 0.89844-0.54297 1.3125-0.88281 1.0625-1.0898 0.28516-1.1953 0.54688-0.60156 0.93359-0.039063 1.3828-0.33203 1.3828-0.078125 1.125 0.25781 1.1914 0.35547 1.1953-0.49609 3.1641-0.30859 1.0625-1.082 1.9961-1.0469 1.7812-1.4102 1.2109-0.80469 1.168-0.71094 1.6641-0.35938 1.8125-0.47266 1.4336-0.33984 1.0938-0.33203 1.4375-0.11719 1.0039-0.039062 1.0859-1.2031-0.48828-1.2031-0.17969-1.918 0.011719-1.3633-0.054687-1.2891-0.18359-1.6797-0.16797-1.1094-0.34766-0.69141-0.76172-0.48438-1.3125-0.48438-1.1094-2.2148-1.7305-2.3555-2.0781-1.9375-1.9375-1.7305-1.1758-0.55469-1.1797-0.55469-1.8008-0.14844-0.99609-0.73828-0.82031-0.98828-0.60156-1.1172-0.66797-1.3789-1.1172-0.6875-0.83984-0.36719-1.0117-0.47266-1.5469-0.26562-1.0234-0.89062-0.94141-1.6406-1.2656-0.66016-0.94141-0.58203-1.0859-2.2305-4.0586-0.56641-0.98828-1.5703 0.039063-1.5078 0.67578-2.1484 0.875-1.2812 0.51562-1.8242-0.03125-1.2266 0.17969-1.5664 0.82422-1.7031 0.26562-1.4609 0.054688-1.7266 0.47656-1.5391 0.55859-0.92969-0.44922-1.2227-0.32031-1.0898 0.53125-1.1406 0.79688-2.0469 1.1406-1.0898 0.92969-1.0352 0.34766-1.0664-0.16016-1.4883-0.34375-1.6445-0.32031-1.2227-0.55859 0.23828-1.1562 0.21094-1.5469 0.57812-1.6172v-1.3398l-0.73828-0.85938-0.19922-1.1406-0.24609-1.1445-0.050781-1.1445 0.55469-3.0039-0.078125-1.8516 0.13281-1.1367 0.20312-1.0352 0.046875-1.0625-0.39844-1.4492-0.17969-1.9609-0.14062-1.457-0.5625-2.0273-0.46875-1.0195-0.5625-2.3477-0.4375-1.2539-0.88281-1.3828-0.55859-1.1875-1.2812-1.6406-0.76953-1.3242-1.2422-2.1406-0.87891-1.5195-1.1406-1.5352-1.0312-1.1797-1.3008-0.14844-1.1562-0.074219-1.1562-0.17188-1.4766-0.95703-1.3203-0.44531-1.0898-0.48828 0.45703-1.1875-0.25-1.1016-0.81641-0.86328-0.99219-1.1484-0.42969-0.91797 0.21484-1.6172 0.76562-0.94922-0.17969-1.2031-0.046875-1.7109-0.23828-1.2969-0.38281-1.6641-0.32812-1.4609 0.019532-1.8086 0.55469-0.86328 0.78125-0.91797 0.78125-0.87109 0.87109-1.0547 0.64453-1.6562 0.96484-1.7422 1.0898-0.65234 1.3867 0.34766 0.41797 0.91797 1.1523 1.0781 2.6055 0.089844 1.1992 0.13672 0.80859 0.61719 1.2305 1.4258 0.90234 0.47266 1.4141-0.34375 2.082-0.51953 0.98438-0.28125 1.0391-0.089843 1.4922-0.68359 0.6875-0.85547 0.9375-0.8125 1.4883-1.6055 0.78906-1.2578 0.38672-1.4531 0.58594-1.1367 1.2305-0.86328 1.1133-1.832 1.2109-1.4297 1.3359-0.96484 1.2734-0.20703 2.2148 1.5195 1.1211 0.050782 1.6484-0.22266 1.3867-0.41406 1.1484-0.125 1.8477 0.59766 1.3633 1.8047 0.96484 1.2383 0.78125 0.97656 1.1367 0.42578 2.0117 0.17578 1.0469 0.28516 1.7578-0.078125 1.5898-0.57422 1.0039-0.47266 0.89453-0.96484 3.832 0.51953 1.8008-0.089844 0.89062-0.58594 2.8867-2.9258 0.98828-0.66406 0.97656-0.40234 1.9844-0.011719 2.2188 0.30078 1.1953-0.027343 1.1641-0.13672 1.4609-0.54297 1.4961-0.27344 1.8984 0.59375 0.58984 1.0703 0.85547 1.3867 0.96484 0.61719 0.82812 0.69531 0.70312 1.1641 0.59375 1.3008 1.0664 0.89844 1.3086-0.44141 1.1992 0.17188 1.4531 0.27344 0.84766-0.84375 0.57812-1.1328 1.4922-0.14453 0.96484-0.31641 0.86719-0.65234h1.1328l1.1484-0.54297 1.1172-0.042969 1.3359-0.050781 0.93359-0.44531 1.3945-0.86328 1.0195-0.59766 1.0664-1.0234 0.79688-0.6875 2.2383-2.5469 0.95312-1.1992 1.1758-0.92969 1.2227-1.3516 1.0273-0.85156 1.0078 0.17578 1.4414-0.22266 1.582-0.19141 0.97266 0.49609 0.72266 0.75 0.96875 1.0273 1.168 0.44531 1.1055 0.52344 1.582-0.19141 1.1992-0.78125 0.88281-0.80469 0.78125-0.66406 1.1016-0.92578 1.1211-0.78516 0.66797-0.90625 0.48047-1.4414 0.43359-0.91406 0.29297-1.0469 0.98828 1.8086 1.4805 1.1484 2.0742 0.47266 1.0859-0.13281 1.4961-0.375 2.5156-1.4141 0.88672-0.58984 2.6953-1.2305 1.3477-0.40625 0.99609 0.27734" fill="none" stroke="#fff" stroke-linecap="round" stroke-linejoin="round" stroke-miterlimit="10" stroke-width="2"/>
<path d="m213.96 119.88 1.1953 0.11328 1.5391 0.34766 1.4297-0.26953h1.2695l2.3867 1.1602 1.3555 0.074219 1.3867-0.039063 1.0781 0.34766 0.92578 0.57812 0.83594 0.5625 0.47656 1.0977 1.3438 0.91406 0.8125 1.0938 1.3008 1.0391 1.418-0.32812 1.0391 0.19141 1.3008 0.22266 0.89844 0.55469 1.4922 0.88281 1.0703 0.83203 1.25 0.046875 1.4727 0.52344 0.39453 1.0664 1.5898 1.6875 0.80859 0.67578 1.8672 0.99219 2.9336 2.8945 0.85547 1.8789 0.51172 1.0391-0.32422 1.4648 0.40234 0.95312 0.0625 1.6992 0.52344 2.5898 0.30859 1.418 0.09375 1.1445-0.24609 1.3867 0.30859 1.418 1.1406 1.543 1.5742 0.46094h1.5117l1.1094 0.21875 1.543 0.24609 1.5117 0.09375 1.8477 1.0469 1.3906 0.86328 0.33594 1.0508 0.25391 1.8711 0.39844 0.98047 0.4375 0.98047-0.074219 1.3086-0.39844 1.3789 1.0547 0.6875 1.7773 0.94531 0.57812 1.1602 0.91016 1.3789 1.5234 1.1602 1.3789 0.40234 1.9258 0.28906 1.3398 0.79688 1.1719 0.42969 1.7148 0.31641 1.207-0.19141 1.207-0.25391 1.0781 0.0625 1.5273 0.44531 1.2695 0.19141 1.1406-0.25391 2.0859-0.53516 2.5391-0.26562 2.3984 1.543 1.4258 1.3438 1.1133 1.8164 0.57422 1.2148 0.22266 1.1797-0.082031 1.793-1.1445 1.0898-0.93359 0.71484-1.1445 0.75391-1 0.60547-1.0742 1.2891-0.35547 1.7891v1.2148l-0.35938 1.9688-0.67969 0.82422-0.75 0.67969-1.3594 0.85547-0.85938 0.75391-1.4297 1-1.4336 1.5039-0.64062 0.78516-1.2188 0.35938-1.1094-0.035156-2.2539 0.46484-1.25 1.4648-0.60938 1.0742-0.57031 0.92969-1.7891 1.4648-1.0742 0.82422-1.0391 0.60938-1.5 0.57031-1.2148 0.60938-1.2539 0.28516-2.4688 1.0039-1.3242 0.28516-1.6797-0.21484-1.5391-0.070313-1.5391-0.53906-0.96484-0.5h-1.0742l-0.39062 1.1797 0.17578 1.7188-0.60547 1.5-1.0742 1.2539-0.60938 1.1797-0.28516 1.0039-0.42969 1.1797-1.8242 0.46484-1.0742 0.17969-1.0352 0.32031-1.8984 1.7188-0.46484 1.75-0.89453 2.5039-0.46484 1.0391-0.39062 1.3242-0.64453 1.8594-0.71484 0.85938-0.64453 1.6797-0.21484 1.7891-0.46484 1.7539 0.28516 1.6094-0.53516 1.3594-0.92969 1.3594-1.7891 1.5-1.0742 1.6133-0.17969 1.25 0.21484 1.6094-0.92969 0.96484-0.96484 0.89453 0.14062 1.5391 0.96875 2.3984 0.39062 1.4297 0.50391 2.1836 0.17578 1.5352-0.82031 1.6484-0.92969 1.0703-0.85938 1.0742-1.2539 0.96484-1 1.9688-0.53516 1.5742-0.87891 1.2266-1.5078 1.2656-1.2031 1.0547-0.99219 1.9258-0.66406 1.1445-0.39062 1.4453-0.36328 1.2969-0.14844 1.5938-0.75391 0.84375-0.90234 0.93359-0.875 0.96484-2.0469 0.99219-0.63281 0.99609-0.089844 1.5039-0.57422 1.2656-0.63281 1.3555-1.4453 1.7461-0.75 0.84375-0.60547 0.93359 0.0625 1.3867 0.57031 1.293-0.21094 1.2656-0.66016 0.75391-1.1758 0.99219-0.17969 1.2969-0.45312 1.4453-1.0234 0.96094-0.69141 0.93359-0.84375 1.207-1.375 0.96484-0.21094 0.99609 0.074219 1.1328-0.11328 1.3203-0.035157 1.2617-0.066406 1.0547-0.0625 1.0664-0.22266 1.0781-0.95703 0.96094-1.1094 1.1562-0.53906 1.2656-0.64844 1.0938-0.29688 1.1328-0.11719 1.1797-0.29297 1.0508-2.4375 1.3281-1.4805 0.80078-1.3086 0.63672-1.168 1.0078-0.070312 1.6094 0.42578 1.8047-0.09375 1.3828-0.83594 1.3203 0.085938 1.0664-0.28906 1.2656-0.53906 1.9219-0.003906 1.1602 0.13281 1.2383-1.9609 2.1094-0.79297 1.9805-0.84375 1.1172-0.64453 0.76562-0.26953 0.96875-0.42188 1.3633-1.4141 1.4102-0.51953 1.3594-0.58594 1.6016-1.3398 0.46484-1.3164 0.42578-0.78516 0.82422-1.8945 1.8359-1.1484 0.83594-0.83203 1.0195-0.26562 1.7656 0.53906 1.6758 0.83594 1.4492 0.61328 1.0391 0.79297 1.3477 1.4805 1.1797 1.0703 1.0703 0.33203 1.3984-1.2617 1.4297-0.76953 1.0977-0.52344 0.98828-0.4375 1.0664-0.90625 1.7031-0.50391 1.0039-1.0039 1.3203-1.0781 0.92969-1.9141 1.5742-0.87891 0.63281-0.85156 0.79688-0.71094 0.71484-0.76953 0.76562-1.043 0.98828-0.66797 0.76953-1.1172 1.0977-1.2266 0.74219-1.1133 0.52344-1.7656 0.96484-1.8594 0.94922-1.4883 0.81641-1.875 1.0781-1.8164 0.82031-1.6055 1.2422-1.2344 0.89062-1.6836 1.6758-1.4844 1.3008-1.043 1.0039-1.4297 1.8945-1.0586 0.89062-1.8281 1.7969-1.4805 1.8281-0.44922 0.92969-0.92578 2.7891-0.375 1.6523-0.23438 1.9453-0.11719 1.0469-0.37109 1.3008-1.2266 2.8828-0.38672 2.3281-1.4922 0.68359-1.0391 0.089843-0.98438 0.28125-1.1523 0.23828-1.6914 0.46484-1.125 0.015625-1.0703-1.1133-1.3984-1.2578-1.1992-0.13672-1.7188 0.17969-1.668-0.73438-0.78906-1.5312-0.19531-1.0312v-1.1523l-0.015625-1.0586-1.1719-0.91406-0.79297-0.79688-0.32422-2.1211 0.12891-1.375 0.42578-1.2109-0.015625-1.2969-0.22266-1.1172-0.29688-1.0391-0.37109-1.0977 0.51953-1.7266-0.074219-1.3008-0.16016-1.6797 0.58594-1.6484 1.0039-1.2852 1.043-1.2422 0.67188-0.77344 0.92578-1.1797 0.85156-1.1602 0.46875-1.125 0.5-1.4492 0.98047-2.0586 0.91016-1.7344 0.77734-1.7266-0.050781-1.3789-0.44141-1.8008 0.33203-1.4844 0.35547-1.1914 0.22266-1.1328 0.36328-1.207 0.58594-0.92969 1.2266-0.72656 1.75-0.46484 0.57031-0.87109 0.36328-1.0273 0.42188-2.0859 0.18359-1.207 0.17969-1.0781 0.38672-1.6484 0.38281-1.4062 0.38281-1.3008 0.097656-1.8633 0.039063-1.3945 0.15625-1.332 0.54688-1.3047 0.48438-1.0625 0.69922-0.94141 1.1055-0.13281 1.7188-0.054688 1.1328-1.1875 1.0312-1.4492 0.39453-1.1367-0.79297-1.082-0.47266-1.082 0.71094-0.73828 0.79297-0.78125 0.66797-2.75 0.14844-1.3008 0.55859-1.0781 0.36328-1.2148 0.13672-1.0352 0.35547-1.3906 0.48047-0.89453 0.63281-1.0312 0.20703-1.1055 0.074219-1.0391 0.066406-1.0352 0.20703-1.5625 0.69141-1.957 0.26562-0.96875 0.32422-1.1602 1.0625-0.91797 0.85547-0.85547 0.50391-1.3008 1.1875-2.2852 0.57812-0.91016 0.53906-0.875 0.89062-0.51953 1.3789-0.30078 0.58984-1.2422 0.21484-1.1641 0.15625-1.582 0.26953-1.0039 0.36328-2.3086 0.24219-1.043 0.8125-1.4453 0.89844-1.5469 0.48438-1.2617 0.35156-1.4883 0.27734-1.9141-0.035157-1.5078-0.14844-1.6719 0.035156-1.0039 0.32812-1.375 0.30469-1.0938 0.1875-1.0586-0.33203-1.4141-0.023437-1.0977 0.10156-1.5508-0.26562-2.6289-0.019531-1.1719 1.8945-1.0977 0.92969-0.70703 1.0234-0.42578 1.0898-0.35156 1.5664-0.33594 1.3203-0.20703 0.96484-0.79688 0.14844-2.2305 0.33203-1.6562 0.42969-1.8398 0.74609-2.332 0.61328-1.1719 0.76562-1.0391 0.75-0.96094 1.4922-0.90625 1.1445-0.49609 1.0742-0.37109 1.207-0.53516 0.95703-0.83984 0.85156-1.707 0.23047-1.332-1.0039-1.25-0.82031-0.88672-0.48828-1.5469 0.35156-3.8164 0.35938-2.2461 0.35547-2.1484 0.007813-1.6211-0.10938-1.3828-0.0625-1.0234 0.046875-1.6953-0.035156-1.1094-0.039063-1.2695 0.046875-1.2266-0.36328-0.93359-0.74219-1.1836-0.39844-2.0898-0.24609-1.4922-0.019531-1.2578 0.058594-1.4375-1.3984-0.48047-1.0117-0.23047-1.2891-0.73828-1.3281-1.6133-0.76172-0.99609-0.57031-2.5273-1.0352-2.5234-0.59766-2.8008-1.1953-3.2852-0.60547-1.3203-0.60938-1.3242-0.52344-1.1328-0.78906-0.86719-1.0898-0.34375-1.3242 0.20703-1.3594-0.30078-0.87891-2.1523 0.39062-1.7852 0.70703-2.0117 1.1133-1.8477 0.71484-1.875 0.22656-2.2656-0.14844-1.5078-0.22656-1.8477 0.26172-1.8867 0.64453-1.0938 1.6211-1.2422 1.4336-0.41797h1.2422l0.98047-1.168 0.87109-1.3945 1.3281-0.47266 0.95312-0.58203 0.94531-1.7109 1.1758-1.2891 1.5234-0.97266 1.3594-1.3164 0.042968-1.1406 0.16797-1.9531-0.042969-1.0586-0.46484-1.5664 0.71875-2.1211 0.80859-0.76172 0.63281-0.89062 0.72266-2.0742-0.042969-1.1484v-1.1836l0.25391-1.4414 0.082031-2.4609 0.33984-1.3984 0.55078-1.0156 0.63672-1.6523v-1.3125l-0.72656-1.332-0.67188-1.4648-0.42188-1.0625 0.46484-1.1445 0.89062-0.59375 0.84766-1.5664 0.125-1.4414 0.33984-1.1445 0.72266-0.76172 0.80469-0.80469 0.97266-0.55078 0.97656-0.50781 0.76172-1.4414 0.76172-1.3555 1.1016-1.1875 0.75781-1.1992 0.50391-1.1992-0.31641-1.4062-0.28516-1.2305 0.007812-1.125-0.21875-1.1836-0.88672-1.1836-0.77734-0.76953-0.066407-1.1055 1.1758-1.5742 0.89453-0.46094 1.6953-0.33984 1.7266 0.18359 1.1094 0.125 1.0508-0.33984 1.4805-0.52344 1.0781-0.27734 1.543-0.1875 1.1406 0.03125 1.5117-1.0195 1.2109-0.44922z" fill="#ccc" fill-rule="evenodd"/>
<path d="m213.96 119.88 1.1953 0.11328 1.5391 0.34766 1.4297-0.26953h1.2695l2.3867 1.1602 1.3555 0.074219 1.3867-0.039063 1.0781 0.34766 0.92578 0.57812 0.83594 0.5625 0.47656 1.0977 1.3438 0.91406 0.8125 1.0938 1.3008 1.0391 1.418-0.32812 1.0391 0.19141 1.3008 0.22266 0.89844 0.55469 1.4922 0.88281 1.0703 0.83203 1.25 0.046875 1.4727 0.52344 0.39453 1.0664 1.5898 1.6875 0.80859 0.67578 1.8672 0.99219 2.9336 2.8945 0.85547 1.8789 0.51172 1.0391-0.32422 1.4648 0.40234 0.95312 0.0625 1.6992 0.52344 2.5898 0.30859 1.418 0.09375 1.1445-0.24609 1.3867 0.30859 1.418 1.1406 1.543 1.5742 0.46094h1.5117l1.1094 0.21875 1.543 0.24609 1.5117 0.09375 1.8477 1.0469 1.3906 0.86328 0.33594 1.0508 0.25391 1.8711 0.39844 0.98047 0.4375 0.98047-0.074219 1.3086-0.39844 1.3789 1.0547 0.6875 1.7773 0.94531 0.57812 1.1602 0.91016 1.3789 1.5234 1.1602 1.3789 0.40234 1.9258 0.28906 1.3398 0.79688 1.1719 0.42969 1.7148 0.31641 1.207-0.19141 1.207-0.25391 1.0781 0.0625 1.5273 0.44531 1.2695 0.19141 1.1406-0.25391 2.0859-0.53516 2.5391-0.26562 2.3984 1.543 1.4258 1.3438 1.1133 1.8164 0.57422 1.2148 0.22266 1.1797-0.082031 1.793-1.1445 1.0898-0.93359 0.71484-1.1445 0.75391-1 0.60547-1.0742 1.2891-0.35547 1.7891v1.2148l-0.35938 1.9688-0.67969 0.82422-0.75 0.67969-1.3594 0.85547-0.85938 0.75391-1.4297 1-1.4336 1.5039-0.64062 0.78516-1.2188 0.35938-1.1094-0.035156-2.2539 0.46484-1.25 1.4648-0.60938 1.0742-0.57031 0.92969-1.7891 1.4648-1.0742 0.82422-1.0391 0.60938-1.5 0.57031-1.2148 0.60938-1.2539 0.28516-2.4688 1.0039-1.3242 0.28516-1.6797-0.21484-1.5391-0.070313-1.5391-0.53906-0.96484-0.5h-1.0742l-0.39062 1.1797 0.17578 1.7188-0.60547 1.5-1.0742 1.2539-0.60938 1.1797-0.28516 1.0039-0.42969 1.1797-1.8242 0.46484-1.0742 0.17969-1.0352 0.32031-1.8984 1.7188-0.46484 1.75-0.89453 2.5039-0.46484 1.0391-0.39062 1.3242-0.64453 1.8594-0.71484 0.85938-0.64453 1.6797-0.21484 1.7891-0.46484 1.7539 0.28516 1.6094-0.53516 1.3594-0.92969 1.3594-1.7891 1.5-1.0742 1.6133-0.17969 1.25 0.21484 1.6094-0.92969 0.96484-0.96484 0.89453 0.14062 1.5391 0.96875 2.3984 0.39062 1.4297 0.50391 2.1836 0.17578 1.5352-0.82031 1.6484-0.92969 1.0703-0.85938 1.0742-1.2539 0.96484-1 1.9688-0.53516 1.5742-0.87891 1.2266-1.5078 1.2656-1.2031 1.0547-0.99219 1.9258-0.66406 1.1445-0.39062 1.4453-0.36328 1.2969-0.14844 1.5938-0.75391 0.84375-0.90234 0.93359-0.875 0.96484-2.0469 0.99219-0.63281 0.99609-0.089844 1.5039-0.57422 1.2656-0.63281 1.3555-1.4453 1.7461-0.75 0.84375-0.60547 0.93359 0.0625 1.3867 0.57031 1.293-0.21094 1.2656-0.66016 0.75391-1.1758 0.99219-0.17969 1.2969-0.45312 1.4453-1.0234 0.96094-0.69141 0.93359-0.84375 1.207-1.375 0.96484-0.21094 0.99609 0.074219 1.1328-0.11328 1.3203-0.035157 1.2617-0.066406 1.0547-0.0625 1.0664-0.22266 1.0781-0.95703 0.96094-1.1094 1.1562-0.53906 1.2656-0.64844 1.0938-0.29688 1.1328-0.11719 1.1797-0.29297 1.0508-2.4375 1.3281-1.4805 0.80078-1.3086 0.63672-1.168 1.0078-0.070312 1.6094 0.42578 1.8047-0.09375 1.3828-0.83594 1.3203 0.085938 1.0664-0.28906 1.2656-0.53906 1.9219-0.003906 1.1602 0.13281 1.2383-1.9609 2.1094-0.79297 1.9805-0.84375 1.1172-0.64453 0.76562-0.26953 0.96875-0.42188 1.3633-1.4141 1.4102-0.51953 1.3594-0.58594 1.6016-1.3398 0.46484-1.3164 0.42578-0.78516 0.82422-1.8945 1.8359-1.1484 0.83594-0.83203 1.0195-0.26562 1.7656 0.53906 1.6758 0.83594 1.4492 0.61328 1.0391 0.79297 1.3477 1.4805 1.1797 1.0703 1.0703 0.33203 1.3984-1.2617 1.4297-0.76953 1.0977-0.52344 0.98828-0.4375 1.0664-0.90625 1.7031-0.50391 1.0039-1.0039 1.3203-1.0781 0.92969-1.9141 1.5742-0.87891 0.63281-0.85156 0.79688-0.71094 0.71484-0.76953 0.76562-1.043 0.98828-0.66797 0.76953-1.1172 1.0977-1.2266 0.74219-1.1133 0.52344-1.7656 0.96484-1.8594 0.94922-1.4883 0.81641-1.875 1.0781-1.8164 0.82031-1.6055 1.2422-1.2344 0.89062-1.6836 1.6758-1.4844 1.3008-1.043 1.0039-1.4297 1.8945-1.0586 0.89062-1.8281 1.7969-1.4805 1.8281-0.44922 0.92969-0.92578 2.7891-0.375 1.6523-0.23438 1.9453-0.11719 1.0469-0.37109 1.3008-1.2266 2.8828-0.38672 2.3281-1.4922 0.68359-1.0391 0.089843-0.98438 0.28125-1.1523 0.23828-1.6914 0.46484-1.125 0.015625-1.0703-1.1133-1.3984-1.2578-1.1992-0.13672-1.7188 0.17969-1.668-0.73438-0.78906-1.5312-0.19531-1.0312v-1.1523l-0.015625-1.0586-1.1719-0.91406-0.79297-0.79688-0.32422-2.1211 0.12891-1.375 0.42578-1.2109-0.015625-1.2969-0.22266-1.1172-0.29688-1.0391-0.37109-1.0977 0.51953-1.7266-0.074219-1.3008-0.16016-1.6797 0.58594-1.6484 1.0039-1.2852 1.043-1.2422 0.67188-0.77344 0.92578-1.1797 0.85156-1.1602 0.46875-1.125 0.5-1.4492 0.98047-2.0586 0.91016-1.7344 0.77734-1.7266-0.050781-1.3789-0.44141-1.8008 0.33203-1.4844 0.35547-1.1914 0.22266-1.1328 0.36328-1.207 0.58594-0.92969 1.2266-0.72656 1.75-0.46484 0.57031-0.87109 0.36328-1.0273 0.42188-2.0859 0.18359-1.207 0.17969-1.0781 0.38672-1.6484 0.38281-1.4062 0.38281-1.3008 0.097656-1.8633 0.039063-1.3945 0.15625-1.332 0.54688-1.3047 0.48438-1.0625 0.69922-0.94141 1.1055-0.13281 1.7188-0.054688 1.1328-1.1875 1.0312-1.4492 0.39453-1.1367-0.79297-1.082-0.47266-1.082 0.71094-0.73828 0.79297-0.78125 0.66797-2.75 0.14844-1.3008 0.55859-1.0781 0.36328-1.2148 0.13672-1.0352 0.35547-1.3906 0.48047-0.89453 0.63281-1.0312 0.20703-1.1055 0.074219-1.0391 0.066406-1.0352 0.20703-1.5625 0.69141-1.957 0.26562-0.96875 0.32422-1.1602 1.0625-0.91797 0.85547-0.85547 0.50391-1.3008 1.1875-2.2852 0.57812-0.91016 0.53906-0.875 0.89062-0.51953 1.3789-0.30078 0.58984-1.2422 0.21484-1.1641 0.15625-1.582 0.26953-1.0039 0.36328-2.3086 0.24219-1.043 0.8125-1.4453 0.89844-1.5469 0.48438-1.2617 0.35156-1.4883 0.27734-1.9141-0.035157-1.5078-0.14844-1.6719 0.035156-1.0039 0.32812-1.375 0.30469-1.0938 0.1875-1.0586-0.33203-1.4141-0.023437-1.0977 0.10156-1.5508-0.26562-2.6289-0.019531-1.1719 1.8945-1.0977 0.92969-0.70703 1.0234-0.42578 1.0898-0.35156 1.5664-0.33594 1.3203-0.20703 0.96484-0.79688 0.14844-2.2305 0.33203-1.6562 0.42969-1.8398 0.74609-2.332 0.61328-1.1719 0.76562-1.0391 0.75-0.96094 1.4922-0.90625 1.1445-0.49609 1.0742-0.37109 1.207-0.53516 0.95703-0.83984 0.85156-1.707 0.23047-1.332-1.0039-1.25-0.82031-0.88672-0.48828-1.5469 0.35156-3.8164 0.35938-2.2461 0.35547-2.1484 0.007813-1.6211-0.10938-1.3828-0.0625-1.0234 0.046875-1.6953-0.035156-1.1094-0.039063-1.2695 0.046875-1.2266-0.36328-0.93359-0.74219-1.1836-0.39844-2.0898-0.24609-1.4922-0.019531-1.2578 0.058594-1.4375-1.3984-0.48047-1.0117-0.23047-1.2891-0.73828-1.3281-1.6133-0.76172-0.99609-0.57031-2.5273-1.0352-2.5234-0.59766-2.8008-1.1953-3.2852-0.60547-1.3203-0.60938-1.3242-0.52344-1.1328-0.78906-0.86719-1.0898-0.34375-1.3242 0.20703-1.3594-0.30078-0.87891-2.1523 0.39062-1.7852 0.70703-2.0117 1.1133-1.8477 0.71484-1.875 0.22656-2.2656-0.14844-1.5078-0.22656-1.8477 0.26172-1.8867 0.64453-1.0938 1.6211-1.2422 1.4336-0.41797h1.2422l0.98047-1.168 0.87109-1.3945 1.3281-0.47266 0.95312-0.58203 0.94531-1.7109 1.1758-1.2891 1.5234-0.97266 1.3594-1.3164 0.042968-1.1406 0.16797-1.9531-0.042969-1.0586-0.46484-1.5664 0.71875-2.1211 0.80859-0.76172 0.63281-0.89062 0.72266-2.0742-0.042969-1.1484v-1.1836l0.25391-1.4414 0.082031-2.4609 0.33984-1.3984 0.55078-1.0156 0.63672-1.6523v-1.3125l-0.72656-1.332-0.67188-1.4648-0.42188-1.0625 0.46484-1.1445 0.89062-0.59375 0.84766-1.5664 0.125-1.4414 0.33984-1.1445 0.72266-0.76172 0.80469-0.80469 0.97266-0.55078 0.97656-0.50781 0.76172-1.4414 0.76172-1.3555 1.1016-1.1875 0.75781-1.1992 0.50391-1.1992-0.31641-1.4062-0.28516-1.2305 0.007812-1.125-0.21875-1.1836-0.88672-1.1836-0.77734-0.76953-0.066407-1.1055 1.1758-1.5742 0.89453-0.46094 1.6953-0.33984 1.7266 0.18359 1.1094 0.125 1.0508-0.33984 1.4805-0.52344 1.0781-0.27734 1.543-0.1875 1.1406 0.03125 1.5117-1.0195 1.2109-0.44922 0.65625 0.039062" fill="none" stroke="#fff" stroke-linecap="round" stroke-linejoin="round" stroke-miterlimit="10" stroke-width="2"/>
<path d="m236.36 2.0664 1.1719 4.2383 2.0078 7.2695 5.8906 12.238 6.0703 11.797 14.602-1.332 1.2852 2.2812 1.2812 1.3242 1.5273 2.3047 1.3828 2.4258 0.24609 2.5156 0.22266 1.6328 0.27734 1.0859 0.050781 1.6133v1.5117l-0.42969 2.5234-0.35156 1.9922 0.30078 1.4609 0.88281 1.3398 0.30469 1.2578 0.27734 1.2383 0.35156 1.0586 0.60547 2.1445 0.53125 1.8906 0.32422 1.0586 0.32812 1.4141-0.19922 1.2344-0.50391 0.88281-0.42969 1.4141-0.33984 1.0547-1.0195 1.2891-0.77734 1.4531-1.0586 1.2812-0.72656 1.2266-0.48047 1-0.36328 1.1562 0.22656 1.0781-0.47656 2.4453-0.35156 1.707-0.32422 1-0.32422 1.3828-0.55859 1.4414-0.72266 0.90625-0.73438 0.84375-0.53906 1.4766-0.46875 1.2344-0.69531 1.0078-0.67578 0.82031-0.71094 0.77734-0.47656 0.91406-0.86328 1.793-1.043 1.5859-0.22656 1.1797-0.22656 1.3125-0.35938 2.0391-0.13672 1.543 0.042968 2.3555-0.13281 1.9492-0.41016 3.5781-0.089844 1.8594-0.36328 1.0859-0.81641 3.1289-0.60547 2.6055-0.64453 1.5703-0.62891 0.81641-0.76953 1.6523-0.88281 2.0547-0.61719 2.0312-0.25781 2.3203-0.39062 1.2734-0.52344 1.0078-0.76953 0.90234-1.3711 0.67969-0.99219-0.68359-0.43359-1.2812-3.3555-3.4922-1.8672-0.99219-0.80859-0.67578-1.5898-1.6875-0.39453-1.0664-1.0117-0.66016-1.0859 0.16016-0.93359-0.41797-1.5781-0.91797-1.0039-0.64062-1.1758-0.51953-1.3867-0.19141-1.0742 0.054687-1.6289-0.39844-0.83203-1.0391-0.91797-0.78906-1.2461-1.7109-0.83594-0.5625-0.92578-0.57812-1.0781-0.34766-1.3867 0.039063-1.3555-0.074219-1.9609-0.96875-1.082-0.19141-1.3477 0.15625-1.2695-0.11719-2.1602-0.23047-1.1172 0.078125-1.3984 0.94922-1.3555 0.49609-2.1914 0.0625-1.0781 0.27734-1.4805 0.52344-1.0508 0.33984-1.1094-0.125-1.7266-0.18359-1.6953 0.33984-0.89453 0.46094-0.86328 1.0469-0.46484 0.95703 0.71875 1.1484 0.69141 0.94922 0.71094 0.88672-0.039062 1.4023 0.1875 1.1016 0.28516 1.4688 0.14062 0.99609-0.75 1.2148-1.6133 1.9922-0.76172 1.3555-0.76172 1.4414-0.97656 0.50781-0.97266 0.55078-0.80469 0.80469-0.72266 0.76172-0.33984 1.1445-0.125 1.4414-0.84766 1.5664-0.89062 0.59375-0.46484 1.1445 0.42188 1.0625 0.67188 1.4648 0.72656 1.332v1.3125l-0.63672 1.6523-0.55078 1.0156-0.33984 1.3984-0.21094 1.5703-0.125 2.332v1.1836l0.042969 1.1484-0.29688 1.3945-1.0586 1.5703-0.80859 0.76172-0.63281 1.2734v1.5234l0.42188 1.9492-0.16797 1.9531-0.042968 1.1406-1.3594 1.3164-1.2266 0.29297-0.72266 1.3164-1.6953 2.3633-0.95312 0.58203-1.3281 0.47266-0.87109 1.3945-0.98047 1.168h-1.2422l-1.4336 0.41797-0.94531 0.5625-1.3203 1.7734-0.14844 1.0938-0.11328 2.1133 0.375 2.0352-0.14844 1.4336-0.79297 2.707-0.66406 1.25-1.1562 2.6094-0.39062 1.7852-1.1562-0.046875-1.0898-0.082031-1.0703 0.14062-2.3164 0.14844-1.6641-0.20312h-1.1367l-1.8281 0.082031-2.0312 0.16406-1.3828-0.12109-1.5547-0.53516-2.1406-0.92969-0.9375-0.39844-1.5391-0.65625-1.6016-0.54297-2.3047 0.625-1.6992 0.64844-2.7227-0.28516-2.1523-0.91016-0.48047-1.3281-0.96484-1.1055-0.57422-0.85156-0.46094-1.6328 0.47656-1.6406 0.42188-1.3555 0.26953-1.125 0.35938-2.0898 1.3125-2.625 0.79688-1.3086 0.23047-1.0781-0.18359-1.4062-0.14062-1.7812 0.23438-1.9219-0.43359-2.1133 0.22266-1.8398 0.60156-4.9805 0.34375-3.0781-0.11328-1.1133v-1.582l-0.17969-1.6367v-2.0508l-0.17188-2.0508 0.35156-0.99609 0.52344-0.99609 0.0625-1.0547-0.41406-1.0508-0.99219-1.5234-1.4648-1.7578-1.2383-2.6055-0.41406-1.3984-0.24609-1.6484-1.1133-3.25 0.035156-2.1797 0.99219-2.3047-0.48047-1.8008-0.082031-1.0391 0.87891-2.8789 0.28125-1.6914 0.82812-0.91406 1.332-4.2031 1.0195-1.5625 0.53906-3.457 0.30859-3.8906 0.14844-2.3164-0.074219-1.6797-0.074218-2.3164-0.30078-1.0469-0.92969-2.0508-0.71094-1.6094-0.75781-1.0195-1.0625-1.1289-0.61328-1.0352-0.55078-1.2461-0.86328-1.0547-0.74219-1.9492-1.8086-0.67969-1.2148-1.0508-0.77344-1.9688 0.27734-1.3203 0.066407-2.4375 0.22266-1.5234 0.125-1.3633 0.53906-1.4922 0.44531-1.1094 0.79297-0.91797 1.3008-1.207 0.88672-1.3945 1.207-1.0781 0.42969-1.1875 1.0586-1.668 0.75781-0.71875 1.3555-0.86328 2.4531-0.67578 1.1211-1.1406 0.17188-1.2969-0.09375-1.8086-0.66406-2.5156 2.1016-4.7617 0.035156-1.0391-0.60938-1.3672-0.14062-1.3047-0.51562-1.543-0.55859-1.1172 0.83984-1.3555 0.28125-1.1211 0.51172-1.6328-0.74609-1.4492-1.4492-1.1484-1.3398-1.5742-0.23438-2.3359-0.11719-1.3984-0.9375-0.73047-1.582-1.1992-1.0586-0.39453-1.9414-0.44141-1.7617-0.42578-0.66406-0.76562 0.26562-0.97266 1.9414-1.9844 0.88281-1.1445 1.1445-2.0742 0.66406-1.9414 0.83594-1.1484 2.0312-0.87891 2.6445-1.5469 2.9141-1.8945 1.8086-1.4141 2.25-1.5859 0.79297-0.88281 1.7852-3.0312 0.63672-1.0625 0.75781-1.3594 0.5625-1.3477 0.61328-1.6914 14.617 1.9336 3.8945 0.90234 2.0352 1.125 0.99609 0.41016 13.125 12.691 12.754-6.2656 2.2227-1.3438 15.074-9.1133 1.1211-1.6133 0.625-1.4766 0.87891-1.5469 2.0742-2.5273 2.3125-2.1719 2.375-1.6016 2.5312-1.5938 0.89453-0.47656 1.043-0.89453z" fill="#ccc" fill-rule="evenodd"/>
<path d="m236.36 2.0664 1.1719 4.2383 2.0078 7.2695 5.8906 12.238 6.0703 11.797 14.602-1.332 1.2852 2.2812 1.2812 1.3242 1.5273 2.3047 1.3828 2.4258 0.24609 2.5156 0.22266 1.6328 0.27734 1.0859 0.050781 1.6133v1.5117l-0.42969 2.5234-0.35156 1.9922 0.30078 1.4609 0.88281 1.3398 0.30469 1.2578 0.27734 1.2383 0.35156 1.0586 0.60547 2.1445 0.53125 1.8906 0.32422 1.0586 0.32812 1.4141-0.19922 1.2344-0.50391 0.88281-0.42969 1.4141-0.33984 1.0547-1.0195 1.2891-0.77734 1.4531-1.0586 1.2812-0.72656 1.2266-0.48047 1-0.36328 1.1562 0.22656 1.0781-0.47656 2.4453-0.35156 1.707-0.32422 1-0.32422 1.3828-0.55859 1.4414-0.72266 0.90625-0.73438 0.84375-0.53906 1.4766-0.46875 1.2344-0.69531 1.0078-0.67578 0.82031-0.71094 0.77734-0.47656 0.91406-0.86328 1.793-1.043 1.5859-0.22656 1.1797-0.22656 1.3125-0.35938 2.0391-0.13672 1.543 0.042968 2.3555-0.13281 1.9492-0.41016 3.5781-0.089844 1.8594-0.36328 1.0859-0.81641 3.1289-0.60547 2.6055-0.64453 1.5703-0.62891 0.81641-0.76953 1.6523-0.88281 2.0547-0.61719 2.0312-0.25781 2.3203-0.39062 1.2734-0.52344 1.0078-0.76953 0.90234-1.3711 0.67969-0.99219-0.68359-0.43359-1.2812-3.3555-3.4922-1.8672-0.99219-0.80859-0.67578-1.5898-1.6875-0.39453-1.0664-1.0117-0.66016-1.0859 0.16016-0.93359-0.41797-1.5781-0.91797-1.0039-0.64062-1.1758-0.51953-1.3867-0.19141-1.0742 0.054687-1.6289-0.39844-0.83203-1.0391-0.91797-0.78906-1.2461-1.7109-0.83594-0.5625-0.92578-0.57812-1.0781-0.34766-1.3867 0.039063-1.3555-0.074219-1.9609-0.96875-1.082-0.19141-1.3477 0.15625-1.2695-0.11719-2.1602-0.23047-1.1172 0.078125-1.3984 0.94922-1.3555 0.49609-2.1914 0.0625-1.0781 0.27734-1.4805 0.52344-1.0508 0.33984-1.1094-0.125-1.7266-0.18359-1.6953 0.33984-0.89453 0.46094-0.86328 1.0469-0.46484 0.95703 0.71875 1.1484 0.69141 0.94922 0.71094 0.88672-0.039062 1.4023 0.1875 1.1016 0.28516 1.4688 0.14062 0.99609-0.75 1.2148-1.6133 1.9922-0.76172 1.3555-0.76172 1.4414-0.97656 0.50781-0.97266 0.55078-0.80469 0.80469-0.72266 0.76172-0.33984 1.1445-0.125 1.4414-0.84766 1.5664-0.89062 0.59375-0.46484 1.1445 0.42188 1.0625 0.67188 1.4648 0.72656 1.332v1.3125l-0.63672 1.6523-0.55078 1.0156-0.33984 1.3984-0.21094 1.5703-0.125 2.332v1.1836l0.042969 1.1484-0.29688 1.3945-1.0586 1.5703-0.80859 0.76172-0.63281 1.2734v1.5234l0.42188 1.9492-0.16797 1.9531-0.042968 1.1406-1.3594 1.3164-1.2266 0.29297-0.72266 1.3164-1.6953 2.3633-0.95312 0.58203-1.3281 0.47266-0.87109 1.3945-0.98047 1.168h-1.2422l-1.4336 0.41797-0.94531 0.5625-1.3203 1.7734-0.14844 1.0938-0.11328 2.1133 0.375 2.0352-0.14844 1.4336-0.79297 2.707-0.66406 1.25-1.1562 2.6094-0.39062 1.7852-1.1562-0.046875-1.0898-0.082031-1.0703 0.14062-2.3164 0.14844-1.6641-0.20312h-1.1367l-1.8281 0.082031-2.0312 0.16406-1.3828-0.12109-1.5547-0.53516-2.1406-0.92969-0.9375-0.39844-1.5391-0.65625-1.6016-0.54297-2.3047 0.625-1.6992 0.64844-2.7227-0.28516-2.1523-0.91016-0.48047-1.3281-0.96484-1.1055-0.57422-0.85156-0.46094-1.6328 0.47656-1.6406 0.42188-1.3555 0.26953-1.125 0.35938-2.0898 1.3125-2.625 0.79688-1.3086 0.23047-1.0781-0.18359-1.4062-0.14062-1.7812 0.23438-1.9219-0.43359-2.1133 0.22266-1.8398 0.60156-4.9805 0.34375-3.0781-0.11328-1.1133v-1.582l-0.17969-1.6367v-2.0508l-0.17188-2.0508 0.35156-0.99609 0.52344-0.99609 0.0625-1.0547-0.41406-1.0508-0.99219-1.5234-1.4648-1.7578-1.2383-2.6055-0.41406-1.3984-0.24609-1.6484-1.1133-3.25 0.035156-2.1797 0.99219-2.3047-0.48047-1.8008-0.082031-1.0391 0.87891-2.8789 0.28125-1.6914 0.82812-0.91406 1.332-4.2031 1.0195-1.5625 0.53906-3.457 0.30859-3.8906 0.14844-2.3164-0.074219-1.6797-0.074218-2.3164-0.30078-1.0469-0.92969-2.0508-0.71094-1.6094-0.75781-1.0195-1.0625-1.1289-0.61328-1.0352-0.55078-1.2461-0.86328-1.0547-0.74219-1.9492-1.8086-0.67969-1.2148-1.0508-0.77344-1.9688 0.27734-1.3203 0.066407-2.4375 0.22266-1.5234 0.125-1.3633 0.53906-1.4922 0.44531-1.1094 0.79297-0.91797 1.3008-1.207 0.88672-1.3945 1.207-1.0781 0.42969-1.1875 1.0586-1.668 0.75781-0.71875 1.3555-0.86328 2.4531-0.67578 1.1211-1.1406 0.17188-1.2969-0.09375-1.8086-0.66406-2.5156 2.1016-4.7617 0.035156-1.0391-0.60938-1.3672-0.14062-1.3047-0.51562-1.543-0.55859-1.1172 0.83984-1.3555 0.28125-1.1211 0.51172-1.6328-0.74609-1.4492-1.4492-1.1484-1.3398-1.5742-0.23438-2.3359-0.11719-1.3984-0.9375-0.73047-1.582-1.1992-1.0586-0.39453-1.9414-0.44141-1.7617-0.42578-0.66406-0.76562 0.26562-0.97266 1.9414-1.9844 0.88281-1.1445 1.1445-2.0742 0.66406-1.9414 0.83594-1.1484 2.0312-0.87891 2.6445-1.5469 2.9141-1.8945 1.8086-1.4141 2.25-1.5859 0.79297-0.88281 1.7852-3.0312 0.63672-1.0625 0.75781-1.3594 0.5625-1.3477 0.61328-1.6914 14.617 1.9336 3.8945 0.90234 2.0352 1.125 0.99609 0.41016 13.125 12.691 12.754-6.2656 2.2227-1.3438 15.074-9.1133 1.1211-1.6133 0.625-1.4766 0.87891-1.5469 2.0742-2.5273 2.3125-2.1719 2.375-1.6016 2.5312-1.5938 0.89453-0.47656 1.043-0.89453 0.57031 2.0664" fill="none" stroke="#fff" stroke-linecap="round" stroke-linejoin="round" stroke-miterlimit="10" stroke-width="2"/>
<path d="m150.65 198.86 1.5391 0.65625 0.9375 0.39844 2.1406 0.92969 1.5547 0.53516 1.3828 0.12109 2.0312-0.16406 1.8281-0.082031h1.1367l1.6641 0.20312 2.3164-0.16016 1.0703-0.12891 1.0898 0.082031 1.1562 0.046875 0.25391 1.6094 1.9844 0.84375 1.3242-0.20703 1.0898 0.34375 0.78906 0.86719 0.52344 1.1328 0.60938 1.3242 0.60547 1.3203 1.1953 3.2852 0.59766 2.8008 1.0352 2.5234 0.46094 1.7109 0.41406 1.1172 1.7852 2.3086 1.2891 0.73828 0.98047 0.22656 1.2461 0.28516 0.125 1.6367 0.019531 1.2578 0.24609 1.4922 0.24219 1.3984 0.47266 1.3359 0.69531 0.96875 0.046875 1.7305 0.039063 1.2695 0.035156 1.1094-0.046875 1.6953 0.0625 1.0234 0.10938 1.3828-0.007813 1.6211-0.19141 1.2148-0.52344 3.1797-0.39844 2.8828 0.23438 1.8477 0.58594 1.0234 1.0898 0.87891 0.39062 1.6758-0.58203 1.3789-0.89844 1.3359-1.707 0.89062-1.0742 0.37109-1.1445 0.49609-1.4922 0.90625-0.75 0.96094-0.76562 1.0391-0.61328 1.1719-0.74609 2.332-0.42969 1.8398-0.33203 1.6562-0.10938 1.5039-0.42969 1.2656-1.8945 0.46484-1.0586 0.30078-1.3672 0.3125-1.2539 0.5-0.92969 0.70703-1.3945 0.80078-0.66797 0.74219 0.45312 3.3555-0.10156 1.5508 0.023437 1.0977 0.3125 1.3359-0.16797 1.1367-0.30469 1.0938-0.32812 1.375-0.035156 1.0039 0.14844 1.6719 0.035157 1.5078-0.27734 1.9141-0.35156 1.4883-0.48438 1.2617-0.89844 1.5469-0.66016 1.1758-0.39453 1.3125-0.20312 1.3906-0.42969 1.9219-0.15625 1.582-0.21484 1.1641-0.40625 1.1875-1.5625 0.35547-0.89062 0.51953-0.53906 0.875-0.57812 0.91016-1.1875 2.2852-0.50391 1.3008-0.85547 0.85547-1.0625 0.91797-0.32422 1.1602-0.26562 0.96875-0.59375 1.4141-0.26172 1.4492-0.10938 1.6914-0.074219 1.0391-0.20703 1.1055-0.63281 1.0312-0.48047 0.89453-0.35547 1.3906-0.12891 1.0039-0.37109 1.2461-0.55859 1.0781-0.12891 1.1328-0.29688 2.0469-1.1836 1.6523-0.71094 0.73828 0.47266 1.082 0.79297 1.082-0.39453 1.1367-1.0312 1.4492-0.78906 1.082-1.1641 0.082031-1.4492 0.050781-1.0469 0.43359-0.69141 1.7305-0.54688 1.3047-0.15625 1.332-0.039063 1.3945 0.050781 1.0977-0.53125 2.0664-0.38281 1.4062-0.38672 1.6484-0.17969 1.0781-0.18359 1.207-0.27344 1.168-0.51172 1.9453-0.57031 0.87109-1.75 0.46484-1.2266 0.72656-0.58594 0.92969-0.36328 1.207-0.22266 1.1328-0.35547 1.1914-0.33203 1.4844 0.12891 1.2031 0.3125 1.3125-0.17969 1.582-1.457 2.543-0.60938 1.3516-0.87109 2.1562-0.46875 1.125-0.85156 1.1602-0.83594 1.0781-0.76172 0.875-1.0234 1.2266-1.0234 1.3008-0.58594 1.6484 0.12109 1.2734 0.11328 1.707-0.51953 1.7266 0.37109 1.0977 0.29688 1.0391 0.22266 1.1172 0.015625 1.2969-0.37891 1.0781-0.17578 1.5078 0.20312 1.75 0.91406 1.168 0.96484 0.57812 0.22266 1.3945v1.1523l0.19531 1.0312-1.3867-0.34766-0.91406 0.51562-0.77344 0.96484-0.59766 1.7891-1.2852 1.8359-0.78125 0.87109-0.78125 0.91797-0.55469 0.86328-0.019532 1.8086 0.32812 1.4609 0.38281 1.6641 0.23828 1.2969 0.046875 1.7109 0.17969 1.2031-0.76562 0.94922-0.21484 1.6172 0.42969 0.91797 0.99219 1.1484 0.81641 0.86328 0.25 1.1016-0.45703 1.1875-1.3477 0.60938-1.1562 0.71875-1.6758 0.0625-1.0039-0.019531-1.1133 0.37891-1.957 0.37891-1.6172 0.41016-1.6562 0.33984-1.043 0.38672-1.6602 0.34375-1.125-0.16016-1.3633 0.55859-1.0977 0.070312-1.1719 0.67578-0.74609 0.67578-0.85156 1.4531-0.49609 0.92188-2.1289 0.39062-2.9805 0.25-4.2422 0.085937-3.3047 0.37109-2.8672 0.95312-1.0898 0.48438-2.7969 1.0312-1.6953 0.69141-6.9688 3.2617-2.7266 0.98047-3.3945 0.80469-2.6836 1.0273-2.2773 1.4766-2.6367 1.4766-1.5625 0.22266-2.3242-0.94141-1.5195-1.5156-0.6875-1.9805-0.53516-1.1016-1.1914-0.80859-4.0664-1.9219-3.1289-0.98047-3.1719-1.5664-0.93359-1.3477-1.1836-1.0039-1.2891-0.019531-1.4492 0.66016-1.0039-0.32031-1.1133-1.8125 0.29688-1.668 0.40625-2.375 0.58203-1.7695 0.20312-0.98828-0.0625-1.9766-0.80078-1.457-1.2578-1.0352 0.28906-1.625 0.5-1.2891 0.5-0.87109 0.45703-1 0.58203-1.4141-0.41797-1.2891-1.2031-0.875-0.023437-1.3594 0.70703-1.1055 0.70703-1.1016 6.8555-3.418 1.082-0.66016 0.87109-1.1875 0.42188-1.918 1.168-1.3594 0.97656-0.69922 2.0312-0.95312 1.6484-0.88672 1.7148-1.3945 1.1445-1.3984 0.63281-1.2031 0.50781-1.2695 0.57031-1.3984 1.0781-0.76172 1.9062-0.44141 2.0938-0.44531 1.0781-0.38281 0.50781-1.457 0.31641-1.2695h2.4102l1.9062-0.50781 1.3945-1.207 1.0547-1.9648 0.71094-1.5273 0.42969-1.5586 0.78125-3.8242 0.74219-3.4766 0.3125-1.4844 0.24219-1.2852 0.17578-1.5117 0.40625-1.9805 0.007813-1.3516-0.40234-1.1953-0.16016-1.2148 0.31641-1.6289-0.10156-1.0508 0.36328-1.2148-0.11328-0.99609 0.30078-1.1797 0.46094-1.832 0.52734-2.1328 0.60156-2.6016 0.15625-1.3281 0.78516-1.1836 0.78125-0.84766 0.11719-1.0664 0.91016-1.3281 1.1133-1.2539 0.39453-1.1133 1.1484-1.6602 0.43359-0.93359 0.41016-1.1914 0.91016-1.5586 0.85938-0.92578 1.1797-0.13281 1.7461 0.19141 1.0977-0.49219 0.67969-0.92578 0.66406-1.2695 0.98047-0.88672 1.6172-0.29297 0.90234-0.48828 1.2227-1.3438 1.2578-1.0273 0.95703-1.0039 0.51953-0.89062 0.41406-1.1719 0.6875-0.89844 0.83594-0.60938 1.1719-0.44922 1.2695 0.76172 2.0703 0.85156 1.5859 0.39062 1.8086 0.046875 1.5977-0.60156 1.293-1.293 0.42969-3.0273 0.41406-2.6914 0.42578-1.1211 1.6133-1.0039 1.1484-0.027344 1.4531-0.5 1.582-0.52734 1.625-0.24219 2.3164 0.039063 1.6992-0.53516 2.8359-1.375 1.0781-1.0352 0.66797-0.94141 0.41406-1.6328-0.25391-1.0352-0.55469-1.9336-1.0938-1.5039-1.8516-1.3438-0.57031-1.2695 0.80469-1.5625 0.81641-1.0898 1.4219-2.1172 0.85938-1.3047 0.57031-0.93359 1.9102-0.89453 1.0195-1.1406 0.28516-1.2617-0.023438-1.5664 0.20312-1.9023 0.64453-0.94531 1.2422-0.34375 1.2656-0.55078 1.2852-0.89844 0.76172-0.98828 0.66406-1.3125 0.48438-1.125 0.25391-1.2891 0.76953-1.3398 0.5625-1.1016 0.74609-1.2031 0.42969-1.3711-0.62109-0.91797-0.59766-0.88281 0.29688-1.6953 1.0156-1.4961 0.085938-1.0078 0.023437-1.375 0.34766-1.293 0.28516-1.6172 0.046875-1.2656-0.046875-1.3125 0.48047-1.1602 0.98828-0.96484 0.30469-1.5273-0.058593-2.043-0.16016-1.6328 0.085938-1.0508-0.14844-1.0469 0.61328-1.1211 0.94531-0.87109 0.84766-0.76172 0.99219-0.73828 0.6875-0.875 0.27734-1.1484-0.09375-1.2656 0.32422-1.2812 0.65625-0.98438-1.2773-1.0898-1.8633-0.25391-1.6328-0.070313-1.6328-0.11328-1.6094-0.45703-2.2305-0.90234-2.5078-1.1484-1.5664-1.7539-0.84766-1.6523-0.23047-1.1953 0.25781-1.7461 0.68359-2.1406 0.023438-2.0234-0.039063-2.3633-0.10547-1.457-0.039062-1.1992-0.25781-1.0234-0.77344-1.8281-0.75391-0.98438-0.59766-1.4844 0.44922-1.2188 0.82422-1.3516-0.27344-2.3359-0.39062-1.4883-0.11328-1.8828 0.13672-1.6016 0.070312-1.375 0.48047-1.4688 0.6875-0.86719 0.6875-1.4453 0.89844-3.2031 0.66016-1.4922 0.71094-1.8594 0.17969-1.1211 0.39062-1.2148 2.4219 0.23438 2.7227 0.28516 1.6992-0.64844 2.3047-0.625z" fill="#ccc" fill-rule="evenodd"/>
<path d="m150.65 198.86 1.5391 0.65625 0.9375 0.39844 2.1406 0.92969 1.5547 0.53516 1.3828 0.12109 2.0312-0.16406 1.8281-0.082031h1.1367l1.6641 0.20312 2.3164-0.16016 1.0703-0.12891 1.0898 0.082031 1.1562 0.046875 0.25391 1.6094 1.9844 0.84375 1.3242-0.20703 1.0898 0.34375 0.78906 0.86719 0.52344 1.1328 0.60938 1.3242 0.60547 1.3203 1.1953 3.2852 0.59766 2.8008 1.0352 2.5234 0.46094 1.7109 0.41406 1.1172 1.7852 2.3086 1.2891 0.73828 0.98047 0.22656 1.2461 0.28516 0.125 1.6367 0.019531 1.2578 0.24609 1.4922 0.24219 1.3984 0.47266 1.3359 0.69531 0.96875 0.046875 1.7305 0.039063 1.2695 0.035156 1.1094-0.046875 1.6953 0.0625 1.0234 0.10938 1.3828-0.007813 1.6211-0.19141 1.2148-0.52344 3.1797-0.39844 2.8828 0.23438 1.8477 0.58594 1.0234 1.0898 0.87891 0.39062 1.6758-0.58203 1.3789-0.89844 1.3359-1.707 0.89062-1.0742 0.37109-1.1445 0.49609-1.4922 0.90625-0.75 0.96094-0.76562 1.0391-0.61328 1.1719-0.74609 2.332-0.42969 1.8398-0.33203 1.6562-0.10938 1.5039-0.42969 1.2656-1.8945 0.46484-1.0586 0.30078-1.3672 0.3125-1.2539 0.5-0.92969 0.70703-1.3945 0.80078-0.66797 0.74219 0.45312 3.3555-0.10156 1.5508 0.023437 1.0977 0.3125 1.3359-0.16797 1.1367-0.30469 1.0938-0.32812 1.375-0.035156 1.0039 0.14844 1.6719 0.035157 1.5078-0.27734 1.9141-0.35156 1.4883-0.48438 1.2617-0.89844 1.5469-0.66016 1.1758-0.39453 1.3125-0.20312 1.3906-0.42969 1.9219-0.15625 1.582-0.21484 1.1641-0.40625 1.1875-1.5625 0.35547-0.89062 0.51953-0.53906 0.875-0.57812 0.91016-1.1875 2.2852-0.50391 1.3008-0.85547 0.85547-1.0625 0.91797-0.32422 1.1602-0.26562 0.96875-0.59375 1.4141-0.26172 1.4492-0.10938 1.6914-0.074219 1.0391-0.20703 1.1055-0.63281 1.0312-0.48047 0.89453-0.35547 1.3906-0.12891 1.0039-0.37109 1.2461-0.55859 1.0781-0.12891 1.1328-0.29688 2.0469-1.1836 1.6523-0.71094 0.73828 0.47266 1.082 0.79297 1.082-0.39453 1.1367-1.0312 1.4492-0.78906 1.082-1.1641 0.082031-1.4492 0.050781-1.0469 0.43359-0.69141 1.7305-0.54688 1.3047-0.15625 1.332-0.039063 1.3945 0.050781 1.0977-0.53125 2.0664-0.38281 1.4062-0.38672 1.6484-0.17969 1.0781-0.18359 1.207-0.27344 1.168-0.51172 1.9453-0.57031 0.87109-1.75 0.46484-1.2266 0.72656-0.58594 0.92969-0.36328 1.207-0.22266 1.1328-0.35547 1.1914-0.33203 1.4844 0.12891 1.2031 0.3125 1.3125-0.17969 1.582-1.457 2.543-0.60938 1.3516-0.87109 2.1562-0.46875 1.125-0.85156 1.1602-0.83594 1.0781-0.76172 0.875-1.0234 1.2266-1.0234 1.3008-0.58594 1.6484 0.12109 1.2734 0.11328 1.707-0.51953 1.7266 0.37109 1.0977 0.29688 1.0391 0.22266 1.1172 0.015625 1.2969-0.37891 1.0781-0.17578 1.5078 0.20312 1.75 0.91406 1.168 0.96484 0.57812 0.22266 1.3945v1.1523l0.19531 1.0312-1.3867-0.34766-0.91406 0.51562-0.77344 0.96484-0.59766 1.7891-1.2852 1.8359-0.78125 0.87109-0.78125 0.91797-0.55469 0.86328-0.019532 1.8086 0.32812 1.4609 0.38281 1.6641 0.23828 1.2969 0.046875 1.7109 0.17969 1.2031-0.76562 0.94922-0.21484 1.6172 0.42969 0.91797 0.99219 1.1484 0.81641 0.86328 0.25 1.1016-0.45703 1.1875-1.3477 0.60938-1.1562 0.71875-1.6758 0.0625-1.0039-0.019531-1.1133 0.37891-1.957 0.37891-1.6172 0.41016-1.6562 0.33984-1.043 0.38672-1.6602 0.34375-1.125-0.16016-1.3633 0.55859-1.0977 0.070312-1.1719 0.67578-0.74609 0.67578-0.85156 1.4531-0.49609 0.92188-2.1289 0.39062-2.9805 0.25-4.2422 0.085937-3.3047 0.37109-2.8672 0.95312-1.0898 0.48438-2.7969 1.0312-1.6953 0.69141-6.9688 3.2617-2.7266 0.98047-3.3945 0.80469-2.6836 1.0273-2.2773 1.4766-2.6367 1.4766-1.5625 0.22266-2.3242-0.94141-1.5195-1.5156-0.6875-1.9805-0.53516-1.1016-1.1914-0.80859-4.0664-1.9219-3.1289-0.98047-3.1719-1.5664-0.93359-1.3477-1.1836-1.0039-1.2891-0.019531-1.4492 0.66016-1.0039-0.32031-1.1133-1.8125 0.29688-1.668 0.40625-2.375 0.58203-1.7695 0.20312-0.98828-0.0625-1.9766-0.80078-1.457-1.2578-1.0352 0.28906-1.625 0.5-1.2891 0.5-0.87109 0.45703-1 0.58203-1.4141-0.41797-1.2891-1.2031-0.875-0.023437-1.3594 0.70703-1.1055 0.70703-1.1016 6.8555-3.418 1.082-0.66016 0.87109-1.1875 0.42188-1.918 1.168-1.3594 0.97656-0.69922 2.0312-0.95312 1.6484-0.88672 1.7148-1.3945 1.1445-1.3984 0.63281-1.2031 0.50781-1.2695 0.57031-1.3984 1.0781-0.76172 1.9062-0.44141 2.0938-0.44531 1.0781-0.38281 0.50781-1.457 0.31641-1.2695h2.4102l1.9062-0.50781 1.3945-1.207 1.0547-1.9648 0.71094-1.5273 0.42969-1.5586 0.78125-3.8242 0.74219-3.4766 0.3125-1.4844 0.24219-1.2852 0.17578-1.5117 0.40625-1.9805 0.007813-1.3516-0.40234-1.1953-0.16016-1.2148 0.31641-1.6289-0.10156-1.0508 0.36328-1.2148-0.11328-0.99609 0.30078-1.1797 0.46094-1.832 0.52734-2.1328 0.60156-2.6016 0.15625-1.3281 0.78516-1.1836 0.78125-0.84766 0.11719-1.0664 0.91016-1.3281 1.1133-1.2539 0.39453-1.1133 1.1484-1.6602 0.43359-0.93359 0.41016-1.1914 0.91016-1.5586 0.85938-0.92578 1.1797-0.13281 1.7461 0.19141 1.0977-0.49219 0.67969-0.92578 0.66406-1.2695 0.98047-0.88672 1.6172-0.29297 0.90234-0.48828 1.2227-1.3438 1.2578-1.0273 0.95703-1.0039 0.51953-0.89062 0.41406-1.1719 0.6875-0.89844 0.83594-0.60938 1.1719-0.44922 1.2695 0.76172 2.0703 0.85156 1.5859 0.39062 1.8086 0.046875 1.5977-0.60156 1.293-1.293 0.42969-3.0273 0.41406-2.6914 0.42578-1.1211 1.6133-1.0039 1.1484-0.027344 1.4531-0.5 1.582-0.52734 1.625-0.24219 2.3164 0.039063 1.6992-0.53516 2.8359-1.375 1.0781-1.0352 0.66797-0.94141 0.41406-1.6328-0.25391-1.0352-0.55469-1.9336-1.0938-1.5039-1.8516-1.3438-0.57031-1.2695 0.80469-1.5625 0.81641-1.0898 1.4219-2.1172 0.85938-1.3047 0.57031-0.93359 1.9102-0.89453 1.0195-1.1406 0.28516-1.2617-0.023438-1.5664 0.20312-1.9023 0.64453-0.94531 1.2422-0.34375 1.2656-0.55078 1.2852-0.89844 0.76172-0.98828 0.66406-1.3125 0.48438-1.125 0.25391-1.2891 0.76953-1.3398 0.5625-1.1016 0.74609-1.2031 0.42969-1.3711-0.62109-0.91797-0.59766-0.88281 0.29688-1.6953 1.0156-1.4961 0.085938-1.0078 0.023437-1.375 0.34766-1.293 0.28516-1.6172 0.046875-1.2656-0.046875-1.3125 0.48047-1.1602 0.98828-0.96484 0.30469-1.5273-0.058593-2.043-0.16016-1.6328 0.085938-1.0508-0.14844-1.0469 0.61328-1.1211 0.94531-0.87109 0.84766-0.76172 0.99219-0.73828 0.6875-0.875 0.27734-1.1484-0.09375-1.2656 0.32422-1.2812 0.65625-0.98438-1.2773-1.0898-1.8633-0.25391-1.6328-0.070313-1.6328-0.11328-1.6094-0.45703-2.2305-0.90234-2.5078-1.1484-1.5664-1.7539-0.84766-1.6523-0.23047-1.1953 0.25781-1.7461 0.68359-2.1406 0.023438-2.0234-0.039063-2.3633-0.10547-1.457-0.039062-1.1992-0.25781-1.0234-0.77344-1.8281-0.75391-0.98438-0.59766-1.4844 0.44922-1.2188 0.82422-1.3516-0.27344-2.3359-0.39062-1.4883-0.11328-1.8828 0.13672-1.6016 0.070312-1.375 0.48047-1.4688 0.6875-0.86719 0.6875-1.4453 0.89844-3.2031 0.66016-1.4922 0.71094-1.8594 0.17969-1.1211 0.39062-1.2148 2.4219 0.23438 2.7227 0.28516 1.6992-0.64844 2.3047-0.625 1.6016 0.54297" fill="none" stroke="#fff" stroke-linecap="round" stroke-linejoin="round" stroke-miterlimit="10" stroke-width="2"/>
<path d="m213.96 119.88 1.1953 0.11328 1.5391 0.34766 1.4297-0.26953h1.2695l2.3867 1.1602 1.3555 0.074219 1.3867-0.039063 1.0781 0.34766 0.92578 0.57812 0.83594 0.5625 0.47656 1.0977 1.3438 0.91406 0.8125 1.0938 1.3008 1.0391 1.418-0.32812 1.0391 0.19141 1.3008 0.22266 0.89844 0.55469 1.4922 0.88281 1.0703 0.83203 1.25 0.046875 1.4727 0.52344 0.39453 1.0664 1.5898 1.6875 0.80859 0.67578 1.8672 0.99219 2.9336 2.8945 0.85547 1.8789 0.51172 1.0391-0.32422 1.4648 0.40234 0.95312 0.0625 1.6992 0.52344 2.5898 0.30859 1.418 0.09375 1.1445-0.24609 1.3867 0.30859 1.418 1.1406 1.543 1.5742 0.46094h1.5117l1.1094 0.21875 1.543 0.24609 1.5117 0.09375 1.8477 1.0469 1.3906 0.86328 0.33594 1.0508 0.25391 1.8711 0.39844 0.98047 0.4375 0.98047-0.074219 1.3086-0.39844 1.3789 1.0547 0.6875 1.7773 0.94531 0.57812 1.1602 0.91016 1.3789 1.5234 1.1602 1.3789 0.40234 1.9258 0.28906 1.3398 0.79688 1.1719 0.42969 1.7148 0.31641 1.207-0.19141 1.207-0.25391 1.0781 0.0625 1.5273 0.44531 1.2695 0.19141 1.1406-0.25391 2.0859-0.53516 2.5391-0.26562 2.3984 1.543 1.4258 1.3438 1.1133 1.8164 0.57422 1.2148 0.22266 1.1797-0.082031 1.793-1.1445 1.0898-0.93359 0.71484-1.1445 0.75391-1 0.60547-1.0742 1.2891-0.35547 1.7891v1.2148l-0.35938 1.9688-0.67969 0.82422-0.75 0.67969-1.3594 0.85547-0.85938 0.75391-1.4297 1-1.4336 1.5039-0.64062 0.78516-1.2188 0.35938-1.1094-0.035156-2.2539 0.46484-1.25 1.4648-0.60938 1.0742-0.57031 0.92969-1.7891 1.4648-1.0742 0.82422-1.0391 0.60938-1.5 0.57031-1.2148 0.60938-1.2539 0.28516-2.4688 1.0039-1.3242 0.28516-1.6797-0.21484-1.5391-0.070313-1.5391-0.53906-0.96484-0.5h-1.0742l-0.39062 1.1797 0.17578 1.7188-0.60547 1.5-1.0742 1.2539-0.60938 1.1797-0.28516 1.0039-0.42969 1.1797-1.8242 0.46484-1.0742 0.17969-1.0352 0.32031-1.8984 1.7188-0.46484 1.75-0.89453 2.5039-0.46484 1.0391-0.39062 1.3242-0.64453 1.8594-0.71484 0.85938-0.64453 1.6797-0.21484 1.7891-0.46484 1.7539 0.28516 1.6094-0.53516 1.3594-0.92969 1.3594-1.7891 1.5-1.0742 1.6133-0.17969 1.25 0.21484 1.6094-0.92969 0.96484-0.96484 0.89453 0.14062 1.5391 0.96875 2.3984 0.39062 1.4297 0.50391 2.1836 0.17578 1.5352-0.82031 1.6484-0.92969 1.0703-0.85938 1.0742-1.2539 0.96484-1 1.9688-0.53516 1.5742-0.87891 1.2266-1.5078 1.2656-1.2031 1.0547-0.99219 1.9258-0.66406 1.1445-0.39062 1.4453-0.36328 1.2969-0.14844 1.5938-0.75391 0.84375-0.90234 0.93359-0.875 0.96484-2.0469 0.99219-0.63281 0.99609-0.089844 1.5039-0.57422 1.2656-0.63281 1.3555-1.4453 1.7461-0.75 0.84375-0.60547 0.93359 0.0625 1.3867 0.57031 1.293-0.21094 1.2656-0.66016 0.75391-1.1758 0.99219-0.17969 1.2969-0.45312 1.4453-1.0234 0.96094-0.69141 0.93359-0.84375 1.207-1.375 0.96484-0.21094 0.99609 0.074219 1.1328-0.11328 1.3203-0.035157 1.2617-0.066406 1.0547-0.0625 1.0664-0.22266 1.0781-0.95703 0.96094-1.1094 1.1562-0.53906 1.2656-0.64844 1.0938-0.29688 1.1328-0.11719 1.1797-0.29297 1.0508-2.4375 1.3281-1.4805 0.80078-1.3086 0.63672-1.168 1.0078-0.070312 1.6094 0.42578 1.8047-0.09375 1.3828-0.83594 1.3203 0.085938 1.0664-0.28906 1.2656-0.53906 1.9219-0.003906 1.1602 0.13281 1.2383-1.9609 2.1094-0.79297 1.9805-0.84375 1.1172-0.64453 0.76562-0.26953 0.96875-0.42188 1.3633-1.4141 1.4102-0.51953 1.3594-0.58594 1.6016-1.3398 0.46484-1.3164 0.42578-0.78516 0.82422-1.8945 1.8359-1.1484 0.83594-0.83203 1.0195-0.26562 1.7656 0.53906 1.6758 0.83594 1.4492 0.61328 1.0391 0.79297 1.3477 1.4805 1.1797 1.0703 1.0703 0.33203 1.3984-1.2617 1.4297-0.76953 1.0977-0.52344 0.98828-0.4375 1.0664-0.90625 1.7031-0.50391 1.0039-1.0039 1.3203-1.0781 0.92969-1.9141 1.5742-0.87891 0.63281-0.85156 0.79688-0.71094 0.71484-0.76953 0.76562-1.043 0.98828-0.66797 0.76953-1.1172 1.0977-1.2266 0.74219-1.1133 0.52344-1.7656 0.96484-1.8594 0.94922-1.4883 0.81641-1.875 1.0781-1.8164 0.82031-1.6055 1.2422-1.2344 0.89062-1.6836 1.6758-1.4844 1.3008-1.043 1.0039-1.4297 1.8945-1.0586 0.89062-1.8281 1.7969-1.4805 1.8281-0.44922 0.92969-0.92578 2.7891-0.375 1.6523-0.23438 1.9453-0.11719 1.0469-0.37109 1.3008-1.2266 2.8828-0.38672 2.3281-1.4922 0.68359-1.0391 0.089843-0.98438 0.28125-1.1523 0.23828-1.6914 0.46484-1.125 0.015625-1.0703-1.1133-1.3984-1.2578-1.1992-0.13672-1.7188 0.17969-1.668-0.73438-0.78906-1.5312-0.19531-1.0312v-1.1523l-0.015625-1.0586-1.1719-0.91406-0.79297-0.79688-0.32422-2.1211 0.12891-1.375 0.42578-1.2109-0.015625-1.2969-0.22266-1.1172-0.29688-1.0391-0.37109-1.0977 0.51953-1.7266-0.074219-1.3008-0.16016-1.6797 0.58594-1.6484 1.0039-1.2852 1.043-1.2422 0.67188-0.77344 0.92578-1.1797 0.85156-1.1602 0.46875-1.125 0.5-1.4492 0.98047-2.0586 0.91016-1.7344 0.77734-1.7266-0.050781-1.3789-0.44141-1.8008 0.33203-1.4844 0.35547-1.1914 0.22266-1.1328 0.36328-1.207 0.58594-0.92969 1.2266-0.72656 1.75-0.46484 0.57031-0.87109 0.36328-1.0273 0.42188-2.0859 0.18359-1.207 0.17969-1.0781 0.38672-1.6484 0.38281-1.4062 0.38281-1.3008 0.097656-1.8633 0.039063-1.3945 0.15625-1.332 0.54688-1.3047 0.48438-1.0625 0.69922-0.94141 1.1055-0.13281 1.7188-0.054688 1.1328-1.1875 1.0312-1.4492 0.39453-1.1367-0.79297-1.082-0.47266-1.082 0.71094-0.73828 0.79297-0.78125 0.66797-2.75 0.14844-1.3008 0.55859-1.0781 0.36328-1.2148 0.13672-1.0352 0.35547-1.3906 0.48047-0.89453 0.63281-1.0312 0.20703-1.1055 0.074219-1.0391 0.066406-1.0352 0.20703-1.5625 0.69141-1.957 0.26562-0.96875 0.32422-1.1602 1.0625-0.91797 0.85547-0.85547 0.50391-1.3008 1.1875-2.2852 0.57812-0.91016 0.53906-0.875 0.89062-0.51953 1.3789-0.30078 0.58984-1.2422 0.21484-1.1641 0.15625-1.582 0.26953-1.0039 0.36328-2.3086 0.24219-1.043 0.8125-1.4453 0.89844-1.5469 0.48438-1.2617 0.35156-1.4883 0.27734-1.9141-0.035157-1.5078-0.14844-1.6719 0.035156-1.0039 0.32812-1.375 0.30469-1.0938 0.1875-1.0586-0.33203-1.4141-0.023437-1.0977 0.10156-1.5508-0.26562-2.6289-0.019531-1.1719 1.8945-1.0977 0.92969-0.70703 1.0234-0.42578 1.0898-0.35156 1.5664-0.33594 1.3203-0.20703 0.96484-0.79688 0.14844-2.2305 0.33203-1.6562 0.42969-1.8398 0.74609-2.332 0.61328-1.1719 0.76562-1.0391 0.75-0.96094 1.4922-0.90625 1.1445-0.49609 1.0742-0.37109 1.207-0.53516 0.95703-0.83984 0.85156-1.707 0.23047-1.332-1.0039-1.25-0.82031-0.88672-0.48828-1.5469 0.35156-3.8164 0.35938-2.2461 0.35547-2.1484 0.007813-1.6211-0.10938-1.3828-0.0625-1.0234 0.046875-1.6953-0.035156-1.1094-0.039063-1.2695 0.046875-1.2266-0.36328-0.93359-0.74219-1.1836-0.39844-2.0898-0.24609-1.4922-0.019531-1.2578 0.058594-1.4375-1.3984-0.48047-1.0117-0.23047-1.2891-0.73828-1.3281-1.6133-0.76172-0.99609-0.57031-2.5273-1.0352-2.5234-0.59766-2.8008-1.1953-3.2852-0.60547-1.3203-0.60938-1.3242-0.52344-1.1328-0.78906-0.86719-1.0898-0.34375-1.3242 0.20703-1.3594-0.30078-0.87891-2.1523 0.39062-1.7852 0.70703-2.0117 1.1133-1.8477 0.71484-1.875 0.22656-2.2656-0.14844-1.5078-0.22656-1.8477 0.26172-1.8867 0.64453-1.0938 1.6211-1.2422 1.4336-0.41797h1.2422l0.98047-1.168 0.87109-1.3945 1.3281-0.47266 0.95312-0.58203 0.94531-1.7109 1.1758-1.2891 1.5234-0.97266 1.3594-1.3164 0.042968-1.1406 0.16797-1.9531-0.042969-1.0586-0.46484-1.5664 0.71875-2.1211 0.80859-0.76172 0.63281-0.89062 0.72266-2.0742-0.042969-1.1484v-1.1836l0.25391-1.4414 0.082031-2.4609 0.33984-1.3984 0.55078-1.0156 0.63672-1.6523v-1.3125l-0.72656-1.332-0.67188-1.4648-0.42188-1.0625 0.46484-1.1445 0.89062-0.59375 0.84766-1.5664 0.125-1.4414 0.33984-1.1445 0.72266-0.76172 0.80469-0.80469 0.97266-0.55078 0.97656-0.50781 0.76172-1.4414 0.76172-1.3555 1.1016-1.1875 0.75781-1.1992 0.50391-1.1992-0.31641-1.4062-0.28516-1.2305 0.007812-1.125-0.21875-1.1836-0.88672-1.1836-0.77734-0.76953-0.066407-1.1055 1.1758-1.5742 0.89453-0.46094 1.6953-0.33984 1.7266 0.18359 1.1094 0.125 1.0508-0.33984 1.4805-0.52344 1.0781-0.27734 1.543-0.1875 1.1406 0.03125 1.5117-1.0195 1.2109-0.44922z" fill="#0a5394" fill-rule="evenodd"/>
<path d="m213.96 119.88 1.1953 0.11328 1.5391 0.34766 1.4297-0.26953h1.2695l2.3867 1.1602 1.3555 0.074219 1.3867-0.039063 1.0781 0.34766 0.92578 0.57812 0.83594 0.5625 0.47656 1.0977 1.3438 0.91406 0.8125 1.0938 1.3008 1.0391 1.418-0.32812 1.0391 0.19141 1.3008 0.22266 0.89844 0.55469 1.4922 0.88281 1.0703 0.83203 1.25 0.046875 1.4727 0.52344 0.39453 1.0664 1.5898 1.6875 0.80859 0.67578 1.8672 0.99219 2.9336 2.8945 0.85547 1.8789 0.51172 1.0391-0.32422 1.4648 0.40234 0.95312 0.0625 1.6992 0.52344 2.5898 0.30859 1.418 0.09375 1.1445-0.24609 1.3867 0.30859 1.418 1.1406 1.543 1.5742 0.46094h1.5117l1.1094 0.21875 1.543 0.24609 1.5117 0.09375 1.8477 1.0469 1.3906 0.86328 0.33594 1.0508 0.25391 1.8711 0.39844 0.98047 0.4375 0.98047-0.074219 1.3086-0.39844 1.3789 1.0547 0.6875 1.7773 0.94531 0.57812 1.1602 0.91016 1.3789 1.5234 1.1602 1.3789 0.40234 1.9258 0.28906 1.3398 0.79688 1.1719 0.42969 1.7148 0.31641 1.207-0.19141 1.207-0.25391 1.0781 0.0625 1.5273 0.44531 1.2695 0.19141 1.1406-0.25391 2.0859-0.53516 2.5391-0.26562 2.3984 1.543 1.4258 1.3438 1.1133 1.8164 0.57422 1.2148 0.22266 1.1797-0.082031 1.793-1.1445 1.0898-0.93359 0.71484-1.1445 0.75391-1 0.60547-1.0742 1.2891-0.35547 1.7891v1.2148l-0.35938 1.9688-0.67969 0.82422-0.75 0.67969-1.3594 0.85547-0.85938 0.75391-1.4297 1-1.4336 1.5039-0.64062 0.78516-1.2188 0.35938-1.1094-0.035156-2.2539 0.46484-1.25 1.4648-0.60938 1.0742-0.57031 0.92969-1.7891 1.4648-1.0742 0.82422-1.0391 0.60938-1.5 0.57031-1.2148 0.60938-1.2539 0.28516-2.4688 1.0039-1.3242 0.28516-1.6797-0.21484-1.5391-0.070313-1.5391-0.53906-0.96484-0.5h-1.0742l-0.39062 1.1797 0.17578 1.7188-0.60547 1.5-1.0742 1.2539-0.60938 1.1797-0.28516 1.0039-0.42969 1.1797-1.8242 0.46484-1.0742 0.17969-1.0352 0.32031-1.8984 1.7188-0.46484 1.75-0.89453 2.5039-0.46484 1.0391-0.39062 1.3242-0.64453 1.8594-0.71484 0.85938-0.64453 1.6797-0.21484 1.7891-0.46484 1.7539 0.28516 1.6094-0.53516 1.3594-0.92969 1.3594-1.7891 1.5-1.0742 1.6133-0.17969 1.25 0.21484 1.6094-0.92969 0.96484-0.96484 0.89453 0.14062 1.5391 0.96875 2.3984 0.39062 1.4297 0.50391 2.1836 0.17578 1.5352-0.82031 1.6484-0.92969 1.0703-0.85938 1.0742-1.2539 0.96484-1 1.9688-0.53516 1.5742-0.87891 1.2266-1.5078 1.2656-1.2031 1.0547-0.99219 1.9258-0.66406 1.1445-0.39062 1.4453-0.36328 1.2969-0.14844 1.5938-0.75391 0.84375-0.90234 0.93359-0.875 0.96484-2.0469 0.99219-0.63281 0.99609-0.089844 1.5039-0.57422 1.2656-0.63281 1.3555-1.4453 1.7461-0.75 0.84375-0.60547 0.93359 0.0625 1.3867 0.57031 1.293-0.21094 1.2656-0.66016 0.75391-1.1758 0.99219-0.17969 1.2969-0.45312 1.4453-1.0234 0.96094-0.69141 0.93359-0.84375 1.207-1.375 0.96484-0.21094 0.99609 0.074219 1.1328-0.11328 1.3203-0.035157 1.2617-0.066406 1.0547-0.0625 1.0664-0.22266 1.0781-0.95703 0.96094-1.1094 1.1562-0.53906 1.2656-0.64844 1.0938-0.29688 1.1328-0.11719 1.1797-0.29297 1.0508-2.4375 1.3281-1.4805 0.80078-1.3086 0.63672-1.168 1.0078-0.070312 1.6094 0.42578 1.8047-0.09375 1.3828-0.83594 1.3203 0.085938 1.0664-0.28906 1.2656-0.53906 1.9219-0.003906 1.1602 0.13281 1.2383-1.9609 2.1094-0.79297 1.9805-0.84375 1.1172-0.64453 0.76562-0.26953 0.96875-0.42188 1.3633-1.4141 1.4102-0.51953 1.3594-0.58594 1.6016-1.3398 0.46484-1.3164 0.42578-0.78516 0.82422-1.8945 1.8359-1.1484 0.83594-0.83203 1.0195-0.26562 1.7656 0.53906 1.6758 0.83594 1.4492 0.61328 1.0391 0.79297 1.3477 1.4805 1.1797 1.0703 1.0703 0.33203 1.3984-1.2617 1.4297-0.76953 1.0977-0.52344 0.98828-0.4375 1.0664-0.90625 1.7031-0.50391 1.0039-1.0039 1.3203-1.0781 0.92969-1.9141 1.5742-0.87891 0.63281-0.85156 0.79688-0.71094 0.71484-0.76953 0.76562-1.043 0.98828-0.66797 0.76953-1.1172 1.0977-1.2266 0.74219-1.1133 0.52344-1.7656 0.96484-1.8594 0.94922-1.4883 0.81641-1.875 1.0781-1.8164 0.82031-1.6055 1.2422-1.2344 0.89062-1.6836 1.6758-1.4844 1.3008-1.043 1.0039-1.4297 1.8945-1.0586 0.89062-1.8281 1.7969-1.4805 1.8281-0.44922 0.92969-0.92578 2.7891-0.375 1.6523-0.23438 1.9453-0.11719 1.0469-0.37109 1.3008-1.2266 2.8828-0.38672 2.3281-1.4922 0.68359-1.0391 0.089843-0.98438 0.28125-1.1523 0.23828-1.6914 0.46484-1.125 0.015625-1.0703-1.1133-1.3984-1.2578-1.1992-0.13672-1.7188 0.17969-1.668-0.73438-0.78906-1.5312-0.19531-1.0312v-1.1523l-0.015625-1.0586-1.1719-0.91406-0.79297-0.79688-0.32422-2.1211 0.12891-1.375 0.42578-1.2109-0.015625-1.2969-0.22266-1.1172-0.29688-1.0391-0.37109-1.0977 0.51953-1.7266-0.074219-1.3008-0.16016-1.6797 0.58594-1.6484 1.0039-1.2852 1.043-1.2422 0.67188-0.77344 0.92578-1.1797 0.85156-1.1602 0.46875-1.125 0.5-1.4492 0.98047-2.0586 0.91016-1.7344 0.77734-1.7266-0.050781-1.3789-0.44141-1.8008 0.33203-1.4844 0.35547-1.1914 0.22266-1.1328 0.36328-1.207 0.58594-0.92969 1.2266-0.72656 1.75-0.46484 0.57031-0.87109 0.36328-1.0273 0.42188-2.0859 0.18359-1.207 0.17969-1.0781 0.38672-1.6484 0.38281-1.4062 0.38281-1.3008 0.097656-1.8633 0.039063-1.3945 0.15625-1.332 0.54688-1.3047 0.48438-1.0625 0.69922-0.94141 1.1055-0.13281 1.7188-0.054688 1.1328-1.1875 1.0312-1.4492 0.39453-1.1367-0.79297-1.082-0.47266-1.082 0.71094-0.73828 0.79297-0.78125 0.66797-2.75 0.14844-1.3008 0.55859-1.0781 0.36328-1.2148 0.13672-1.0352 0.35547-1.3906 0.48047-0.89453 0.63281-1.0312 0.20703-1.1055 0.074219-1.0391 0.066406-1.0352 0.20703-1.5625 0.69141-1.957 0.26562-0.96875 0.32422-1.1602 1.0625-0.91797 0.85547-0.85547 0.50391-1.3008 1.1875-2.2852 0.57812-0.91016 0.53906-0.875 0.89062-0.51953 1.3789-0.30078 0.58984-1.2422 0.21484-1.1641 0.15625-1.582 0.26953-1.0039 0.36328-2.3086 0.24219-1.043 0.8125-1.4453 0.89844-1.5469 0.48438-1.2617 0.35156-1.4883 0.27734-1.9141-0.035157-1.5078-0.14844-1.6719 0.035156-1.0039 0.32812-1.375 0.30469-1.0938 0.1875-1.0586-0.33203-1.4141-0.023437-1.0977 0.10156-1.5508-0.26562-2.6289-0.019531-1.1719 1.8945-1.0977 0.92969-0.70703 1.0234-0.42578 1.0898-0.35156 1.5664-0.33594 1.3203-0.20703 0.96484-0.79688 0.14844-2.2305 0.33203-1.6562 0.42969-1.8398 0.74609-2.332 0.61328-1.1719 0.76562-1.0391 0.75-0.96094 1.4922-0.90625 1.1445-0.49609 1.0742-0.37109 1.207-0.53516 0.95703-0.83984 0.85156-1.707 0.23047-1.332-1.0039-1.25-0.82031-0.88672-0.48828-1.5469 0.35156-3.8164 0.35938-2.2461 0.35547-2.1484 0.007813-1.6211-0.10938-1.3828-0.0625-1.0234 0.046875-1.6953-0.035156-1.1094-0.039063-1.2695 0.046875-1.2266-0.36328-0.93359-0.74219-1.1836-0.39844-2.0898-0.24609-1.4922-0.019531-1.2578 0.058594-1.4375-1.3984-0.48047-1.0117-0.23047-1.2891-0.73828-1.3281-1.6133-0.76172-0.99609-0.57031-2.5273-1.0352-2.5234-0.59766-2.8008-1.1953-3.2852-0.60547-1.3203-0.60938-1.3242-0.52344-1.1328-0.78906-0.86719-1.0898-0.34375-1.3242 0.20703-1.3594-0.30078-0.87891-2.1523 0.39062-1.7852 0.70703-2.0117 1.1133-1.8477 0.71484-1.875 0.22656-2.2656-0.14844-1.5078-0.22656-1.8477 0.26172-1.8867 0.64453-1.0938 1.6211-1.2422 1.4336-0.41797h1.2422l0.98047-1.168 0.87109-1.3945 1.3281-0.47266 0.95312-0.58203 0.94531-1.7109 1.1758-1.2891 1.5234-0.97266 1.3594-1.3164 0.042968-1.1406 0.16797-1.9531-0.042969-1.0586-0.46484-1.5664 0.71875-2.1211 0.80859-0.76172 0.63281-0.89062 0.72266-2.0742-0.042969-1.1484v-1.1836l0.25391-1.4414 0.082031-2.4609 0.33984-1.3984 0.55078-1.0156 0.63672-1.6523v-1.3125l-0.72656-1.332-0.67188-1.4648-0.42188-1.0625 0.46484-1.1445 0.89062-0.59375 0.84766-1.5664 0.125-1.4414 0.33984-1.1445 0.72266-0.76172 0.80469-0.80469 0.97266-0.55078 0.97656-0.50781 0.76172-1.4414 0.76172-1.3555 1.1016-1.1875 0.75781-1.1992 0.50391-1.1992-0.31641-1.4062-0.28516-1.2305 0.007812-1.125-0.21875-1.1836-0.88672-1.1836-0.77734-0.76953-0.066407-1.1055 1.1758-1.5742 0.89453-0.46094 1.6953-0.33984 1.7266 0.18359 1.1094 0.125 1.0508-0.33984 1.4805-0.52344 1.0781-0.27734 1.543-0.1875 1.1406 0.03125 1.5117-1.0195 1.2109-0.44922 0.65625 0.039062" fill="none" stroke="#fff" stroke-linecap="round" stroke-linejoin="round" stroke-miterlimit="10"/>
<path d="m170.92 376.26c0 3.5898-2.9102 6.5-6.5 6.5s-6.5-2.9102-6.5-6.5 2.9102-6.5 6.5-6.5 6.5 2.9102 6.5 6.5" fill="#28c028" fill-rule="evenodd" stroke="#000" stroke-linecap="round" stroke-linejoin="round" stroke-miterlimit="10"/>
<path d="m13.156 370.26v-16.469h7c1.7578 0 3.0352 0.15234 3.8281 0.45312 0.80078 0.29297 1.4414 0.82031 1.9219 1.5781 0.47656 0.75 0.71875 1.6172 0.71875 2.5938 0 1.2305-0.36719 2.25-1.0938 3.0625-0.73047 0.80469-1.8203 1.3086-3.2656 1.5156 0.71875 0.41797 1.3125 0.88281 1.7812 1.3906 0.46875 0.5 1.0977 1.3867 1.8906 2.6562l2.0156 3.2188h-3.9688l-2.4062-3.5781c-0.85547-1.2812-1.4375-2.0859-1.75-2.4219-0.3125-0.33203-0.64844-0.5625-1-0.6875-0.35547-0.125-0.91406-0.1875-1.6719-0.1875h-0.67188v6.875zm3.3281-9.5h2.4531c1.5938 0 2.5859-0.066406 2.9844-0.20312 0.39453-0.13281 0.70312-0.36328 0.92188-0.6875 0.22656-0.33203 0.34375-0.75 0.34375-1.25 0-0.55078-0.14844-0.99219-0.4375-1.3281-0.29297-0.34375-0.71094-0.5625-1.25-0.65625-0.27344-0.03125-1.0781-0.046875-2.4219-0.046875h-2.5938zm13.172 9.5v-16.469h3.3125v16.469zm5.8125-8.125c0-1.6758 0.25-3.0859 0.75-4.2344 0.375-0.83203 0.88281-1.582 1.5312-2.25 0.64453-0.66406 1.3516-1.1602 2.125-1.4844 1.0312-0.4375 2.2188-0.65625 3.5625-0.65625 2.4141 0 4.3516 0.75781 5.8125 2.2656 1.457 1.5 2.1875 3.5938 2.1875 6.2812 0 2.6562-0.72656 4.7344-2.1719 6.2344-1.4375 1.5-3.3711 2.25-5.7969 2.25-2.4492 0-4.3984-0.74219-5.8438-2.2344-1.4375-1.5-2.1562-3.5547-2.1562-6.1719zm3.4219-0.125c0 1.8672 0.42969 3.2812 1.2969 4.25 0.86328 0.96094 1.957 1.4375 3.2812 1.4375 1.3203 0 2.4062-0.47266 3.25-1.4219 0.85156-0.95703 1.2812-2.3906 1.2812-4.2969 0-1.8945-0.41797-3.3047-1.25-4.2344-0.82422-0.92578-1.918-1.3906-3.2812-1.3906-1.375 0-2.4844 0.47656-3.3281 1.4219-0.83594 0.9375-1.25 2.3516-1.25 4.2344zm29.188 2.2031v-2.7812h7.1719v6.5625c-0.69922 0.66797-1.7109 1.2617-3.0312 1.7812-1.3242 0.50781-2.6641 0.76562-4.0156 0.76562-1.7188 0-3.2188-0.35938-4.5-1.0781-1.2812-0.72656-2.2461-1.7656-2.8906-3.1094-0.64844-1.3438-0.96875-2.8008-0.96875-4.375 0-1.7188 0.35938-3.2422 1.0781-4.5781 0.71875-1.332 1.7695-2.3516 3.1562-3.0625 1.0625-0.55078 2.3789-0.82812 3.9531-0.82812 2.0391 0 3.6328 0.43359 4.7812 1.2969 1.1562 0.85547 1.8945 2.0391 2.2188 3.5469l-3.2969 0.625c-0.23047-0.8125-0.66797-1.4531-1.3125-1.9219-0.63672-0.46875-1.4336-0.70312-2.3906-0.70312-1.4609 0-2.6172 0.46484-3.4688 1.3906-0.85547 0.91797-1.2812 2.2812-1.2812 4.0938 0 1.9609 0.42969 3.4297 1.2969 4.4062 0.86328 0.96875 2.0039 1.4531 3.4219 1.4531 0.6875 0 1.3789-0.13281 2.0781-0.40625 0.70703-0.26953 1.3125-0.60156 1.8125-1v-2.0781zm10.25 6.0469v-16.469h7c1.7578 0 3.0352 0.15234 3.8281 0.45312 0.80078 0.29297 1.4414 0.82031 1.9219 1.5781 0.47656 0.75 0.71875 1.6172 0.71875 2.5938 0 1.2305-0.36719 2.25-1.0938 3.0625-0.73047 0.80469-1.8203 1.3086-3.2656 1.5156 0.71875 0.41797 1.3125 0.88281 1.7812 1.3906 0.46875 0.5 1.0977 1.3867 1.8906 2.6562l2.0156 3.2188h-3.9688l-2.4062-3.5781c-0.85547-1.2812-1.4375-2.0859-1.75-2.4219-0.3125-0.33203-0.64844-0.5625-1-0.6875-0.35547-0.125-0.91406-0.1875-1.6719-0.1875h-0.67188v6.875zm3.3281-9.5h2.4531c1.5938 0 2.5859-0.066406 2.9844-0.20312 0.39453-0.13281 0.70312-0.36328 0.92188-0.6875 0.22656-0.33203 0.34375-0.75 0.34375-1.25 0-0.55078-0.14844-0.99219-0.4375-1.3281-0.29297-0.34375-0.71094-0.5625-1.25-0.65625-0.27344-0.03125-1.0781-0.046875-2.4219-0.046875h-2.5938zm28.109 9.5h-3.6094l-1.4375-3.7344h-6.5781l-1.3594 3.7344h-3.5312l6.4062-16.469h3.5156zm-6.1094-6.5156-2.2812-6.1094-2.2188 6.1094zm7.9062 6.5156v-16.469h3.2344l6.75 11v-11h3.0781v16.469h-3.3281l-6.6406-10.734v10.734zm16.562-16.469h6.0781c1.375 0 2.4219 0.10547 3.1406 0.3125 0.95703 0.29297 1.7812 0.80469 2.4688 1.5312 0.69531 0.71875 1.2227 1.6055 1.5781 2.6562 0.36328 1.0547 0.54688 2.3516 0.54688 3.8906 0 1.3555-0.17188 2.5234-0.51562 3.5-0.40625 1.1992-0.99219 2.1719-1.75 2.9219-0.58594 0.5625-1.3672 1-2.3438 1.3125-0.73047 0.23047-1.7109 0.34375-2.9375 0.34375h-6.2656zm3.3281 2.7969v10.891h2.4844c0.92578 0 1.5977-0.050781 2.0156-0.15625 0.53125-0.13281 0.97266-0.35938 1.3281-0.67188 0.36328-0.32031 0.65625-0.85156 0.875-1.5938 0.22656-0.73828 0.34375-1.7422 0.34375-3.0156 0-1.2695-0.11719-2.2422-0.34375-2.9219-0.21875-0.6875-0.53125-1.2188-0.9375-1.5938-0.40625-0.38281-0.92188-0.64453-1.5469-0.78125-0.46094-0.10156-1.3672-0.15625-2.7188-0.15625zm13.297 13.672v-16.469h12.203v2.7969h-8.875v3.6406h8.2656v2.7812h-8.2656v4.4688h9.2031v2.7812zm0 0" fill="none" stroke="#fff" stroke-linecap="round" stroke-linejoin="round" stroke-miterlimit="10" stroke-width="2"/>
<path d="m13.156 370.26v-16.469h7c1.7578 0 3.0352 0.15234 3.8281 0.45312 0.80078 0.29297 1.4414 0.82031 1.9219 1.5781 0.47656 0.75 0.71875 1.6172 0.71875 2.5938 0 1.2305-0.36719 2.25-1.0938 3.0625-0.73047 0.80469-1.8203 1.3086-3.2656 1.5156 0.71875 0.41797 1.3125 0.88281 1.7812 1.3906 0.46875 0.5 1.0977 1.3867 1.8906 2.6562l2.0156 3.2188h-3.9688l-2.4062-3.5781c-0.85547-1.2812-1.4375-2.0859-1.75-2.4219-0.3125-0.33203-0.64844-0.5625-1-0.6875-0.35547-0.125-0.91406-0.1875-1.6719-0.1875h-0.67188v6.875zm3.3281-9.5h2.4531c1.5938 0 2.5859-0.066406 2.9844-0.20312 0.39453-0.13281 0.70312-0.36328 0.92188-0.6875 0.22656-0.33203 0.34375-0.75 0.34375-1.25 0-0.55078-0.14844-0.99219-0.4375-1.3281-0.29297-0.34375-0.71094-0.5625-1.25-0.65625-0.27344-0.03125-1.0781-0.046875-2.4219-0.046875h-2.5938zm13.172 9.5v-16.469h3.3125v16.469zm5.8125-8.125c0-1.6758 0.25-3.0859 0.75-4.2344 0.375-0.83203 0.88281-1.582 1.5312-2.25 0.64453-0.66406 1.3516-1.1602 2.125-1.4844 1.0312-0.4375 2.2188-0.65625 3.5625-0.65625 2.4141 0 4.3516 0.75781 5.8125 2.2656 1.457 1.5 2.1875 3.5938 2.1875 6.2812 0 2.6562-0.72656 4.7344-2.1719 6.2344-1.4375 1.5-3.3711 2.25-5.7969 2.25-2.4492 0-4.3984-0.74219-5.8438-2.2344-1.4375-1.5-2.1562-3.5547-2.1562-6.1719zm3.4219-0.125c0 1.8672 0.42969 3.2812 1.2969 4.25 0.86328 0.96094 1.957 1.4375 3.2812 1.4375 1.3203 0 2.4062-0.47266 3.25-1.4219 0.85156-0.95703 1.2812-2.3906 1.2812-4.2969 0-1.8945-0.41797-3.3047-1.25-4.2344-0.82422-0.92578-1.918-1.3906-3.2812-1.3906-1.375 0-2.4844 0.47656-3.3281 1.4219-0.83594 0.9375-1.25 2.3516-1.25 4.2344zm29.188 2.2031v-2.7812h7.1719v6.5625c-0.69922 0.66797-1.7109 1.2617-3.0312 1.7812-1.3242 0.50781-2.6641 0.76562-4.0156 0.76562-1.7188 0-3.2188-0.35938-4.5-1.0781-1.2812-0.72656-2.2461-1.7656-2.8906-3.1094-0.64844-1.3438-0.96875-2.8008-0.96875-4.375 0-1.7188 0.35938-3.2422 1.0781-4.5781 0.71875-1.332 1.7695-2.3516 3.1562-3.0625 1.0625-0.55078 2.3789-0.82812 3.9531-0.82812 2.0391 0 3.6328 0.43359 4.7812 1.2969 1.1562 0.85547 1.8945 2.0391 2.2188 3.5469l-3.2969 0.625c-0.23047-0.8125-0.66797-1.4531-1.3125-1.9219-0.63672-0.46875-1.4336-0.70312-2.3906-0.70312-1.4609 0-2.6172 0.46484-3.4688 1.3906-0.85547 0.91797-1.2812 2.2812-1.2812 4.0938 0 1.9609 0.42969 3.4297 1.2969 4.4062 0.86328 0.96875 2.0039 1.4531 3.4219 1.4531 0.6875 0 1.3789-0.13281 2.0781-0.40625 0.70703-0.26953 1.3125-0.60156 1.8125-1v-2.0781zm10.25 6.0469v-16.469h7c1.7578 0 3.0352 0.15234 3.8281 0.45312 0.80078 0.29297 1.4414 0.82031 1.9219 1.5781 0.47656 0.75 0.71875 1.6172 0.71875 2.5938 0 1.2305-0.36719 2.25-1.0938 3.0625-0.73047 0.80469-1.8203 1.3086-3.2656 1.5156 0.71875 0.41797 1.3125 0.88281 1.7812 1.3906 0.46875 0.5 1.0977 1.3867 1.8906 2.6562l2.0156 3.2188h-3.9688l-2.4062-3.5781c-0.85547-1.2812-1.4375-2.0859-1.75-2.4219-0.3125-0.33203-0.64844-0.5625-1-0.6875-0.35547-0.125-0.91406-0.1875-1.6719-0.1875h-0.67188v6.875zm3.3281-9.5h2.4531c1.5938 0 2.5859-0.066406 2.9844-0.20312 0.39453-0.13281 0.70312-0.36328 0.92188-0.6875 0.22656-0.33203 0.34375-0.75 0.34375-1.25 0-0.55078-0.14844-0.99219-0.4375-1.3281-0.29297-0.34375-0.71094-0.5625-1.25-0.65625-0.27344-0.03125-1.0781-0.046875-2.4219-0.046875h-2.5938zm28.109 9.5h-3.6094l-1.4375-3.7344h-6.5781l-1.3594 3.7344h-3.5312l6.4062-16.469h3.5156zm-6.1094-6.5156-2.2812-6.1094-2.2188 6.1094zm7.9062 6.5156v-16.469h3.2344l6.75 11v-11h3.0781v16.469h-3.3281l-6.6406-10.734v10.734zm16.562-16.469h6.0781c1.375 0 2.4219 0.10547 3.1406 0.3125 0.95703 0.29297 1.7812 0.80469 2.4688 1.5312 0.69531 0.71875 1.2227 1.6055 1.5781 2.6562 0.36328 1.0547 0.54688 2.3516 0.54688 3.8906 0 1.3555-0.17188 2.5234-0.51562 3.5-0.40625 1.1992-0.99219 2.1719-1.75 2.9219-0.58594 0.5625-1.3672 1-2.3438 1.3125-0.73047 0.23047-1.7109 0.34375-2.9375 0.34375h-6.2656zm3.3281 2.7969v10.891h2.4844c0.92578 0 1.5977-0.050781 2.0156-0.15625 0.53125-0.13281 0.97266-0.35938 1.3281-0.67188 0.36328-0.32031 0.65625-0.85156 0.875-1.5938 0.22656-0.73828 0.34375-1.7422 0.34375-3.0156 0-1.2695-0.11719-2.2422-0.34375-2.9219-0.21875-0.6875-0.53125-1.2188-0.9375-1.5938-0.40625-0.38281-0.92188-0.64453-1.5469-0.78125-0.46094-0.10156-1.3672-0.15625-2.7188-0.15625zm13.297 13.672v-16.469h12.203v2.7969h-8.875v3.6406h8.2656v2.7812h-8.2656v4.4688h9.2031v2.7812z" fill-rule="evenodd"/>
</g>
</svg>
