<?xml version="1.0" encoding="UTF-8"?>
<svg width="430pt" height="500pt" version="1.1" viewBox="0 0 430 500" xmlns="http://www.w3.org/2000/svg">
<g id="a">
<rect width="430" height="500" fill="none"/>
<path d="m84.578 152.75 0.054688 0.089844 0.80469 0.75391 1.1211 0.23828 1.0273 0.64453 1.0742 0.60547 1.75 0.45703 1.1797 0.33984 1.4922 0.4375 1.168 0.16406 1.5547-0.027344 1.3164-0.015625 1.7461 0.24219 1.6055 0.21094 1.457 0.16797 1.5938 0.003906 1.4883 0.37891 1.1719 0.21094 1.5781 0.039062 1.2148-0.22266 1.0078-0.76172 1.0039 0.9375 1.3047 2.3906 0.85156 1.5625 0.47656 0.90625 0.22266 1.0625-0.1875 1.2344-0.35938 1.3594-0.34375 1.3008-0.77734 0.85156-1.3125-0.054688-1.9609-0.10156-5.7188-0.26953-3.875-0.19531-5.4727-0.25-0.058594 1.4023-0.097656 1.125 0.31641 1.0664-0.082031 1.1133-0.46484 1.0977-0.36719 1.043-2.7656 1.1406-1.2344-2.3516-0.62891-1.2227-1.4648-0.28516-4.7812 0.60547-1.2227-0.14453 0.26562-1.1875 0.12109-1.3086-0.03125-1.6758-0.070313-1.3164-0.12109-1.4375-0.0625-1.0039-0.082032-1.0664-0.015625-1.9844 0.20703-1.6445 0.16797-1.6016 0.32812-1.6875 0.26953-1.1602 0.15234-1.0273 1.0898-0.68359 0.88281-0.64453z" fill="#ccc" fill-rule="evenodd"/>
<path d="m84.578 152.75 0.054688 0.089844 0.80469 0.75391 1.1211 0.23828 1.0273 0.64453 1.0742 0.60547 1.75 0.45703 1.1797 0.33984 1.4922 0.4375 1.168 0.16406 1.5547-0.027344 1.3164-0.015625 1.7461 0.24219 1.6055 0.21094 1.457 0.16797 1.5938 0.003906 1.4883 0.37891 1.1719 0.21094 1.5781 0.039062 1.2148-0.22266 1.0078-0.76172 1.0039 0.9375 1.3047 2.3906 0.85156 1.5625 0.47656 0.90625 0.22266 1.0625-0.1875 1.2344-0.35938 1.3594-0.34375 1.3008-0.77734 0.85156-1.3125-0.054688-1.9609-0.10156-5.7188-0.26953-3.875-0.19531-5.4727-0.25-0.058594 1.4023-0.097656 1.125 0.31641 1.0664-0.082031 1.1133-0.46484 1.0977-0.36719 1.043-2.7656 1.1406-1.2344-2.3516-0.62891-1.2227-1.4648-0.28516-4.7812 0.60547-1.2227-0.14453 0.26562-1.1875 0.12109-1.3086-0.03125-1.6758-0.070313-1.3164-0.12109-1.4375-0.0625-1.0039-0.082032-1.0664-0.015625-1.9844 0.20703-1.6445 0.16797-1.6016 0.32812-1.6875 0.26953-1.1602 0.15234-1.0273 1.0898-0.68359 0.88281-0.64453 0.49219 0.14844" fill="none" stroke="#fff" stroke-linecap="round" stroke-linejoin="round" stroke-miterlimit="10" stroke-width="2"/>
<path d="m246.2 121.79 0.83203 0.37109 1.4844 0.37109 1.3281 1.0508 1.0703 0.65234 1.6602 0.875 0.89453 0.45703 1.2031-0.074219 1.2266 0.011719 1.1758 0.71484 1.0742 0.96484 0.77734 0.66016 1.082-0.32812 1.3984-0.40234 1.7188-0.48828 1.3359-0.25391 1.1211-0.25781 1.0391-0.23047 1.0625 0.019531 0.88281-0.52344 1.1719 1.1875 1.6094 1.668 0.70312 1.0117 2.832 1.0234 0.89453 0.79297 1.1758 0.60547 0.99609 1.1172 1.6406 0.03125 1.0508 0.63672 1.875-1.2656 2.0938-0.37109 1.0078 0.085937 1.3945 0.40625 4.4766 1.8867 2.6445 0.83984 1.3203 1.4141 0.45703 1.0273 0.51953 1.957 1.4141 0.55859 0.33203 1.1484 0.38672 1.0547-0.24219 1.0703 1.1602 1.3633 1.0078 0.52344 0.98828 0.95312 0.50781 0.92969 1.0039 0.60938 1.7891-0.17969 2.8164 0.40625 1.4492-0.050781 0.88281 1.3594 1.4297 0.58203 1.5391 0.72656 1.3984 0.375 3.1445 0.23047 1.1328 0.38281 2.3203 1.3984 1.9062 1.8047 0.84375 0.54688 0.99609 0.39453 1.9688-1.1367 1.5195-0.45312 1.2578-1.0312 1.5156-1.6016 0.039062-1.0977 0.3125-1.0781-0.042969-1.1094 2.0156-1.8398 1.6602-0.75391 1.1836 0.25 1.5078 0.19141 1.0391 0.46094 2.0547-0.10547 1.0859-0.47266 1.7148-0.98438 0.65625-1.0508 0.76562-0.68359 1.2383 0.035157 1.4023-0.39453 1-0.027343 1.7109 0.62109 1.6758 1.5742 1.1875 1.4609 4.4219 2.2852 1.4766 0.34766 1.0195-0.28516 1.4688-0.90234 1.1406-1.75 0.019531 1.2305-0.082031 1.2969 0.64062 2.3867 1.3633 2.6602 1.4023-0.13281 1.4648 0.4375 2.0938 1.5039 0.78516-0.66016 1.4766 3.4453 0.39453 1.1602 1.6406 0.27344 1.0391 0.51172 0.53516 1.4805-0.60938 1.793-0.015625 2.4766-0.47656 2.4609 0.76562 1.0977 0.003906 1.0547-0.40625 1.043 0.46875 1.8516 0.050781 1.3633 0.45312 1.4883 1.8789 0.6875 0.19922 1.2148 1.4961 0.30469 0.74609 1.0977 1.207 0.6875 0.70703 1-0.75 0.69141-0.85547 0.86719-0.52344 1.3008-0.44531 0.94531-0.58203 1.1641-0.73828 0.69531-1.1797-0.17578-1.1562-0.28125-1.0625 0.74609-1.1953 0.74609-0.94922 0.57422-0.97266 0.375-0.86328 1.332-0.23438 1.6172-0.59375 1.3047-0.94141 0.85547-0.51172 1.4688-0.16406 1.0195-1.2852 0.54297-0.92578 0.62109-0.41406 1.0039-0.79688 1.5977-1.1836 1.2852-0.91016 0.4375-1.4766-0.11719-1.0547 0.074219-1.4727 0.57422-1.0156 0.56641-1.0664 0.41797-1.4805 0.78906-0.82422 0.59766-0.97266 1.0469-0.75781 0.73438-1.5781 0.78125-1.0156 0.10547-1.0117 0.21484-1.293 0.62109-0.29688 1.1602-0.99219 0.82422-0.65234 0.90625-1.3906 0.71484-0.98047 0.20312-1.1211 0.26562-1.4414-0.011719-1.0664 0.40625-1.1523 1.1602-1.5469-0.1875-1.3164 0.10547-1.332 0.72656-1.4609 0.066407-1.3867 0.03125h-1.6875l-1.293-0.23438-1.5664 1.1328-1.1367 0.27734-1.6094-0.039063-1.0547 0.15625h-1.4102l-1.0312 0.085938-0.41016 1.0898-0.65234 1.0195-1.4688 0.52734-0.59766 0.82422-1.1641 1.5234-1.3008 0.93359-1.0508 0.25391-0.67969 0.94531-0.92578 0.66016-1.4531 0.58594-1.6914 0.41797h-1.0781l-1.168-0.21484-1.2227 0.042969-1.2422-0.72266-1.1211 0.16797-0.88672 0.47266-1.3047-0.125-0.98047-0.30469-1.5625 0.34766-0.53906 0.88672-0.8125 1.7383-0.93359 0.99609-2.2031-0.023437-1.2734 0.99219-1.3047 0.35547-1.2461-0.45312-1.0078-0.41406-1.0898-0.12891-1.0508-0.38281-0.98047 0.24609-0.80859 0.61328-0.78906 0.62891-0.71875 0.90625-0.73438 0.80859-0.68359 0.76562-0.57812 0.87891-0.51172 0.86328-0.94922 0.33594-1.0195-0.015625-1.1172-0.23438-0.99219-0.15234-1.1133-0.33594-1.6211-0.15234-1.3555-0.13281-1.1953-0.042969-1.5078-0.24609-1.8242-0.16406-1.0195-0.31641-1.3477-0.42188-1.2617-0.53125-1.207-0.50781-1.9336-1.2344-0.84375-0.75781-1.1758-0.39062-1.1523-0.58984-0.95312-1.0117-0.39062-0.98047-1.7695-0.55078-2.7344-0.45703-1.332-0.035156-0.91016 0.42188-1.332 1.332-1.0898 1.2969-2.6406 1.8555-1.6406 0.72656-2.0039 0.38672-1.457 0.51953-0.94922 0.79688-1.543 0.97266-1.1836 0.33203-1.3203-0.15234-1.3555-1.1367-1.4531-1.2148-1.0273-0.64844-1.2539-0.4375-1.2305-0.125-5.4961-1.0508-1.6484-0.28906-1.0039-0.17578-1.4297-0.43359-1.0195-0.39453-1.6602 0.039063-1.4453 0.76562-1.3477 1.4688-0.89844 0.81641-1.2656 0.75-1.9922 0.16406-1.1875-0.10156-1.6562-0.75781-0.79688-0.80078-0.96484-0.42969-1.4102-0.03125-0.83203 0.67578-1.1328 0.0625-0.98438-0.33984-1.3516-0.089844-1.5117 0.027344-1.7617-0.28906-1.8086-0.65625-0.96484-0.46875-1.6367-0.84766-1.6055-0.52344-1.0586-0.14453-1.0273 0.11719-0.84375-0.90625 0.17188-1.1719-0.75781-1.1641-1.7969 0.54688-0.93359 0.70703-0.9375 0.77734-1.1211-0.98047 0.14062-1.6523 0.30859-0.98438-0.36328-1.4844-0.64453-0.89844-1.0391-0.52344-0.87109-0.95312-0.83984-1.7656-1.375-3.6758-0.78516-2.0391-0.83984-1.3828-0.89844-1.4844-0.95312-1.9258-0.98438-1.1914-0.77344-0.83594-0.99219-1.0703-2.1016-1.4023-1.6992-0.84766-2.332-2.1875-2.4023-1.7031-16.094-19.566-2.668-14.391 2.3477 0.30859 1.8711 0.67969 1.1367 0.31641 1.0469 0.25 1.5117 0.27344 1.7891 0.19531 1.6094 0.20312 1.5664 0.29297 1.043 0.30078 1.4375 0.69531 2.1094 0.34766 5.7773 0.76953 1.8438 0.46094 2.875 0.46875 1.6914 0.52344 1.0078 0.097656 2.1016 0.46484 1.2031-0.046875 3.0117-0.44141 2.4023 0.52344 1.707 0.46094 1.9688 0.57812 1.2891 0.40234 1.6953 0.95312 1.5547 0.50391 1.4062 0.14844 1.3047 0.25 1.543 0.75781 1.1289 0.78516 1.0664 0.26562 0.87891 0.58984 0.90234 0.65234 1.6953 0.61328 1.3984 0.46484 0.97266 1.0039 1 0.1875 1.168-0.35156 1.543 0.40234 1.8945 0.51172 1.7578 0.03125 1.6172 0.25781 0.96484-0.31641 0.64844-0.87109 1.1562-1.2031 1.8789-1.4336 1.0195-0.51172 0.24219-1.457-0.34375-1.3555-0.6875-1.0117-0.92578-0.52344-0.55469-1.1992-0.71484-1.2891 0.16406-1.1875 0.027344-1.0547-0.63672-1.2617 0.21484-1.0312 0.73828-0.94531 0.44141-1.0117 0.49219-1.125 0.94531-0.67969 0.78516-0.67969 0.81641-0.80469-0.51953-1.2031 0.0625-1.2617-0.42578-1.2109-0.007813-1.2227 0.48047-1.5156 0.066406-1.2969 0.53125-0.84766 0.93359-0.70703-0.31641-1.0664-0.40625-1.2266-0.50781-1.0977-0.16797-0.98828-0.16406-1.1562-0.074219-1.125-0.49609-1.0352-0.49609-1.2031 0.24219-1.0508-0.77734-1.2773-1.4609-1.2578-1.1211-0.58594-0.87109-0.64453-0.93359-0.88281-0.50781-0.99219 0.69141-1.0508-0.058593-1.2734 1.2461-0.41797 1.2266-0.52344 1.7109-0.5625 1.0508-0.59375 0.84375-0.72656 1.3906-0.050782 1.1914 0.32422 1.1055 0.17969 1.2461-0.55078 1.0312-0.375 1.1914 0.25 1.582-0.070312 0.92578 0.56641 0.73828-0.8125 0.41406-1.4219 0.027344-1.1367 0.58203-0.83984 1.2383-0.98438 1.168-0.38281 1.168-0.54297 1.9844 0.37109 1.1484 0.95703 0.83984 0.59375 0.94141-0.66797 1.0859-0.14844 1.0156-0.66797 0.95312-0.80859 1.0898 0.078125 1.0078-0.011719 1.2656-0.1875z" fill="#ccc" fill-rule="evenodd"/>
<path d="m246.2 121.79 0.83203 0.37109 1.4844 0.37109 1.3281 1.0508 1.0703 0.65234 1.6602 0.875 0.89453 0.45703 1.2031-0.074219 1.2266 0.011719 1.1758 0.71484 1.0742 0.96484 0.77734 0.66016 1.082-0.32812 1.3984-0.40234 1.7188-0.48828 1.3359-0.25391 1.1211-0.25781 1.0391-0.23047 1.0625 0.019531 0.88281-0.52344 1.1719 1.1875 1.6094 1.668 0.70312 1.0117 2.832 1.0234 0.89453 0.79297 1.1758 0.60547 0.99609 1.1172 1.6406 0.03125 1.0508 0.63672 1.875-1.2656 2.0938-0.37109 1.0078 0.085937 1.3945 0.40625 4.4766 1.8867 2.6445 0.83984 1.3203 1.4141 0.45703 1.0273 0.51953 1.957 1.4141 0.55859 0.33203 1.1484 0.38672 1.0547-0.24219 1.0703 1.1602 1.3633 1.0078 0.52344 0.98828 0.95312 0.50781 0.92969 1.0039 0.60938 1.7891-0.17969 2.8164 0.40625 1.4492-0.050781 0.88281 1.3594 1.4297 0.58203 1.5391 0.72656 1.3984 0.375 3.1445 0.23047 1.1328 0.38281 2.3203 1.3984 1.9062 1.8047 0.84375 0.54688 0.99609 0.39453 1.9688-1.1367 1.5195-0.45312 1.2578-1.0312 1.5156-1.6016 0.039062-1.0977 0.3125-1.0781-0.042969-1.1094 2.0156-1.8398 1.6602-0.75391 1.1836 0.25 1.5078 0.19141 1.0391 0.46094 2.0547-0.10547 1.0859-0.47266 1.7148-0.98438 0.65625-1.0508 0.76562-0.68359 1.2383 0.035157 1.4023-0.39453 1-0.027343 1.7109 0.62109 1.6758 1.5742 1.1875 1.4609 4.4219 2.2852 1.4766 0.34766 1.0195-0.28516 1.4688-0.90234 1.1406-1.75 0.019531 1.2305-0.082031 1.2969 0.64062 2.3867 1.3633 2.6602 1.4023-0.13281 1.4648 0.4375 2.0938 1.5039 0.78516-0.66016 1.4766 3.4453 0.39453 1.1602 1.6406 0.27344 1.0391 0.51172 0.53516 1.4805-0.60938 1.793-0.015625 2.4766-0.47656 2.4609 0.76562 1.0977 0.003906 1.0547-0.40625 1.043 0.46875 1.8516 0.050781 1.3633 0.45312 1.4883 1.8789 0.6875 0.19922 1.2148 1.4961 0.30469 0.74609 1.0977 1.207 0.6875 0.70703 1-0.75 0.69141-0.85547 0.86719-0.52344 1.3008-0.44531 0.94531-0.58203 1.1641-0.73828 0.69531-1.1797-0.17578-1.1562-0.28125-1.0625 0.74609-1.1953 0.74609-0.94922 0.57422-0.97266 0.375-0.86328 1.332-0.23438 1.6172-0.59375 1.3047-0.94141 0.85547-0.51172 1.4688-0.16406 1.0195-1.2852 0.54297-0.92578 0.62109-0.41406 1.0039-0.79688 1.5977-1.1836 1.2852-0.91016 0.4375-1.4766-0.11719-1.0547 0.074219-1.4727 0.57422-1.0156 0.56641-1.0664 0.41797-1.4805 0.78906-0.82422 0.59766-0.97266 1.0469-0.75781 0.73438-1.5781 0.78125-1.0156 0.10547-1.0117 0.21484-1.293 0.62109-0.29688 1.1602-0.99219 0.82422-0.65234 0.90625-1.3906 0.71484-0.98047 0.20312-1.1211 0.26562-1.4414-0.011719-1.0664 0.40625-1.1523 1.1602-1.5469-0.1875-1.3164 0.10547-1.332 0.72656-1.4609 0.066407-1.3867 0.03125h-1.6875l-1.293-0.23438-1.5664 1.1328-1.1367 0.27734-1.6094-0.039063-1.0547 0.15625h-1.4102l-1.0312 0.085938-0.41016 1.0898-0.65234 1.0195-1.4688 0.52734-0.59766 0.82422-1.1641 1.5234-1.3008 0.93359-1.0508 0.25391-0.67969 0.94531-0.92578 0.66016-1.4531 0.58594-1.6914 0.41797h-1.0781l-1.168-0.21484-1.2227 0.042969-1.2422-0.72266-1.1211 0.16797-0.88672 0.47266-1.3047-0.125-0.98047-0.30469-1.5625 0.34766-0.53906 0.88672-0.8125 1.7383-0.93359 0.99609-2.2031-0.023437-1.2734 0.99219-1.3047 0.35547-1.2461-0.45312-1.0078-0.41406-1.0898-0.12891-1.0508-0.38281-0.98047 0.24609-0.80859 0.61328-0.78906 0.62891-0.71875 0.90625-0.73438 0.80859-0.68359 0.76562-0.57812 0.87891-0.51172 0.86328-0.94922 0.33594-1.0195-0.015625-1.1172-0.23438-0.99219-0.15234-1.1133-0.33594-1.6211-0.15234-1.3555-0.13281-1.1953-0.042969-1.5078-0.24609-1.8242-0.16406-1.0195-0.31641-1.3477-0.42188-1.2617-0.53125-1.207-0.50781-1.9336-1.2344-0.84375-0.75781-1.1758-0.39062-1.1523-0.58984-0.95312-1.0117-0.39062-0.98047-1.7695-0.55078-2.7344-0.45703-1.332-0.035156-0.91016 0.42188-1.332 1.332-1.0898 1.2969-2.6406 1.8555-1.6406 0.72656-2.0039 0.38672-1.457 0.51953-0.94922 0.79688-1.543 0.97266-1.1836 0.33203-1.3203-0.15234-1.3555-1.1367-1.4531-1.2148-1.0273-0.64844-1.2539-0.4375-1.2305-0.125-5.4961-1.0508-1.6484-0.28906-1.0039-0.17578-1.4297-0.43359-1.0195-0.39453-1.6602 0.039063-1.4453 0.76562-1.3477 1.4688-0.89844 0.81641-1.2656 0.75-1.9922 0.16406-1.1875-0.10156-1.6562-0.75781-0.79688-0.80078-0.96484-0.42969-1.4102-0.03125-0.83203 0.67578-1.1328 0.0625-0.98438-0.33984-1.3516-0.089844-1.5117 0.027344-1.7617-0.28906-1.8086-0.65625-0.96484-0.46875-1.6367-0.84766-1.6055-0.52344-1.0586-0.14453-1.0273 0.11719-0.84375-0.90625 0.17188-1.1719-0.75781-1.1641-1.7969 0.54688-0.93359 0.70703-0.9375 0.77734-1.1211-0.98047 0.14062-1.6523 0.30859-0.98438-0.36328-1.4844-0.64453-0.89844-1.0391-0.52344-0.87109-0.95312-0.83984-1.7656-1.375-3.6758-0.78516-2.0391-0.83984-1.3828-0.89844-1.4844-0.95312-1.9258-0.98438-1.1914-0.77344-0.83594-0.99219-1.0703-2.1016-1.4023-1.6992-0.84766-2.332-2.1875-2.4023-1.7031-16.094-19.566-2.668-14.391 2.3477 0.30859 1.8711 0.67969 1.1367 0.31641 1.0469 0.25 1.5117 0.27344 1.7891 0.19531 1.6094 0.20312 1.5664 0.29297 1.043 0.30078 1.4375 0.69531 2.1094 0.34766 5.7773 0.76953 1.8438 0.46094 2.875 0.46875 1.6914 0.52344 1.0078 0.097656 2.1016 0.46484 1.2031-0.046875 3.0117-0.44141 2.4023 0.52344 1.707 0.46094 1.9688 0.57812 1.2891 0.40234 1.6953 0.95312 1.5547 0.50391 1.4062 0.14844 1.3047 0.25 1.543 0.75781 1.1289 0.78516 1.0664 0.26562 0.87891 0.58984 0.90234 0.65234 1.6953 0.61328 1.3984 0.46484 0.97266 1.0039 1 0.1875 1.168-0.35156 1.543 0.40234 1.8945 0.51172 1.7578 0.03125 1.6172 0.25781 0.96484-0.31641 0.64844-0.87109 1.1562-1.2031 1.8789-1.4336 1.0195-0.51172 0.24219-1.457-0.34375-1.3555-0.6875-1.0117-0.92578-0.52344-0.55469-1.1992-0.71484-1.2891 0.16406-1.1875 0.027344-1.0547-0.63672-1.2617 0.21484-1.0312 0.73828-0.94531 0.44141-1.0117 0.49219-1.125 0.94531-0.67969 0.78516-0.67969 0.81641-0.80469-0.51953-1.2031 0.0625-1.2617-0.42578-1.2109-0.007813-1.2227 0.48047-1.5156 0.066406-1.2969 0.53125-0.84766 0.93359-0.70703-0.31641-1.0664-0.40625-1.2266-0.50781-1.0977-0.16797-0.98828-0.16406-1.1562-0.074219-1.125-0.49609-1.0352-0.49609-1.2031 0.24219-1.0508-0.77734-1.2773-1.4609-1.2578-1.1211-0.58594-0.87109-0.64453-0.93359-0.88281-0.50781-0.99219 0.69141-1.0508-0.058593-1.2734 1.2461-0.41797 1.2266-0.52344 1.7109-0.5625 1.0508-0.59375 0.84375-0.72656 1.3906-0.050782 1.1914 0.32422 1.1055 0.17969 1.2461-0.55078 1.0312-0.375 1.1914 0.25 1.582-0.070312 0.92578 0.56641 0.73828-0.8125 0.41406-1.4219 0.027344-1.1367 0.58203-0.83984 1.2383-0.98438 1.168-0.38281 1.168-0.54297 1.9844 0.37109 1.1484 0.95703 0.83984 0.59375 0.94141-0.66797 1.0859-0.14844 1.0156-0.66797 0.95312-0.80859 1.0898 0.078125 1.0078-0.011719 1.2656-0.1875 0.60938 0.10938" fill="none" stroke="#fff" stroke-linecap="round" stroke-linejoin="round" stroke-miterlimit="10" stroke-width="2"/>
<path d="m178.13 98.406 2.0273 0.027344 1.4766 0.32812 1.3125 0.94141 4.8359 2.6172 1.4375 1.0234 0.10156 1.2148 0.32031 0.98438 0.23047 1 0.19922 1.0117 0.625 0.83984 0.60938 0.79297 0.53516 0.84375 1.125 0.67188 0.28516 1.1914 0.32422 0.97656 1.1719 1.2812 0.75391 1.1875 1.4102 0.24609 1.0586 0.25781 1.8281 0.33594 0.26953 1.0547 0.22266 0.99219 0.26953 0.98047-0.32812 1.0508-0.027344 1.2422 0.30078 1.0195 0.625 0.79688 0.66797 0.79688 0.27344 1.2578 1.1133 0.42969 1.0977-0.14453 0.94141-0.36328 1.0625-0.57812 1.0195 0.015625 0.96484 0.37891 0.86328 1.2422 0.61719 1.0977 0.74609 0.8125 0.74609 0.67969 0.91406 0.50781 0.70703 1.2188 0.51953 0.87109-0.42188 1.0938-0.17969 1.1836 0.73828 0.85547 1.0039 0.78125 1.4531 0.82422 0.91797 0.67578 1.0508 1.082 0.22266 1.2305-0.089844 1.0039 0.54297 1.0664 0.29688 1.3516 0.31641 1.332 0.13672 1.3516 0.50781 1.0977 0.40625 1.2266 0.31641 1.0664-0.93359 0.70703-0.53125 0.84766-0.066406 1.2969-0.48047 1.5156 0.007813 1.2227 0.42578 1.2109-0.0625 1.2617 0.42578 1.0156-0.72266 0.99219-0.78516 0.67969-0.94531 0.67969-0.49219 1.125-0.44141 1.0117-0.73828 0.94531-0.21484 1.0312 0.63672 1.2617-0.027344 1.0547-0.16406 1.1875 0.71484 1.2891 0.55469 1.1992 0.92578 0.52344 0.6875 1.0117 0.32422 1.2695 0.14844 1.0938-0.90625 0.58984-1.7578 1.3164-1.2734 1.043-0.73438 0.89062-0.73828 0.92188-1.6328-0.11328-1.4062-0.1875-2.0195-0.17578-1.7031-0.63281-1.2812 0.03125-1.1289 0.27344-1.043-0.875-1.3164-0.60547-1.418-0.63672-1.1914-0.29297-0.85156-0.91406-1.1055-0.3125-1.0781-0.64062-1.3164-0.8125-1.3164-0.39062-1.2344-0.21875-1.6406-0.23438-1.6055-0.77734-2.1562-0.89062-1.9688-0.57812-1.707-0.46094-1.5234-0.43359-3.8906 0.35156-1.2031 0.046875-2.1016-0.46484-1.0078-0.097656-1.6914-0.52344-2.875-0.46875-1.8438-0.46094-4.9805-0.73438 0.38281-1.0039-0.67578-0.94531-0.98828-0.95703-0.86719-0.78516-1.1328-0.41406-0.97656-0.67188-1.0078-0.32422-1.168-0.80078-1.1836-0.47656-0.91406-0.46484-1.3906-0.41406-1.2461-0.16016-1.4766-0.67188-1.4648-0.83203-1.1055-0.53125-1.1016-0.39844-1.1055-0.48047-1.168 0.097657-0.625-1.1484-0.6875-1.5352-0.99219-1.1367-0.86328-1.4727-0.70703-1.0078-1.418-0.54297-1.1953-0.10156 0.50391-21.281 0.015625-5.4766v-1.9219l0.14062-3.4297 0.066407-4.3203 0.050781-1.4727 0.17969-1.2891 0.875-1.6289 0.72656-1.418 0.65625-1.4531 1.0391-0.98828 0.55078-1.3945 0.36328-0.95312 0.57031-1.2266 0.13281-1.4258 1.6992 0.082031 1.7539 0.52344 1.5156 0.019532 2.0391 0.80859 1.0156 0.74609 1.1406 1.4766 2.6836 1.1953 1.0547 0.17188 2.7617 0.71875 1.0195 0.10156 1.5625-0.49219 1.5078-1.3242 0.74219-0.99219 0.55859-1.7422 0.64453-1.125 1.1133-0.81641 1.7266-0.62891 2.0703-0.16016 2.5273 0.24609 1.6719 0.066407 1.2812-0.29688 1.543-0.25391z" fill="#ccc" fill-rule="evenodd"/>
<path d="m178.13 98.406 2.0273 0.027344 1.4766 0.32812 1.3125 0.94141 4.8359 2.6172 1.4375 1.0234 0.10156 1.2148 0.32031 0.98438 0.23047 1 0.19922 1.0117 0.625 0.83984 0.60938 0.79297 0.53516 0.84375 1.125 0.67188 0.28516 1.1914 0.32422 0.97656 1.1719 1.2812 0.75391 1.1875 1.4102 0.24609 1.0586 0.25781 1.8281 0.33594 0.26953 1.0547 0.22266 0.99219 0.26953 0.98047-0.32812 1.0508-0.027344 1.2422 0.30078 1.0195 0.625 0.79688 0.66797 0.79688 0.27344 1.2578 1.1133 0.42969 1.0977-0.14453 0.94141-0.36328 1.0625-0.57812 1.0195 0.015625 0.96484 0.37891 0.86328 1.2422 0.61719 1.0977 0.74609 0.8125 0.74609 0.67969 0.91406 0.50781 0.70703 1.2188 0.51953 0.87109-0.42188 1.0938-0.17969 1.1836 0.73828 0.85547 1.0039 0.78125 1.4531 0.82422 0.91797 0.67578 1.0508 1.082 0.22266 1.2305-0.089844 1.0039 0.54297 1.0664 0.29688 1.3516 0.31641 1.332 0.13672 1.3516 0.50781 1.0977 0.40625 1.2266 0.31641 1.0664-0.93359 0.70703-0.53125 0.84766-0.066406 1.2969-0.48047 1.5156 0.007813 1.2227 0.42578 1.2109-0.0625 1.2617 0.42578 1.0156-0.72266 0.99219-0.78516 0.67969-0.94531 0.67969-0.49219 1.125-0.44141 1.0117-0.73828 0.94531-0.21484 1.0312 0.63672 1.2617-0.027344 1.0547-0.16406 1.1875 0.71484 1.2891 0.55469 1.1992 0.92578 0.52344 0.6875 1.0117 0.32422 1.2695 0.14844 1.0938-0.90625 0.58984-1.7578 1.3164-1.2734 1.043-0.73438 0.89062-0.73828 0.92188-1.6328-0.11328-1.4062-0.1875-2.0195-0.17578-1.7031-0.63281-1.2812 0.03125-1.1289 0.27344-1.043-0.875-1.3164-0.60547-1.418-0.63672-1.1914-0.29297-0.85156-0.91406-1.1055-0.3125-1.0781-0.64062-1.3164-0.8125-1.3164-0.39062-1.2344-0.21875-1.6406-0.23438-1.6055-0.77734-2.1562-0.89062-1.9688-0.57812-1.707-0.46094-1.5234-0.43359-3.8906 0.35156-1.2031 0.046875-2.1016-0.46484-1.0078-0.097656-1.6914-0.52344-2.875-0.46875-1.8438-0.46094-4.9805-0.73438 0.38281-1.0039-0.67578-0.94531-0.98828-0.95703-0.86719-0.78516-1.1328-0.41406-0.97656-0.67188-1.0078-0.32422-1.168-0.80078-1.1836-0.47656-0.91406-0.46484-1.3906-0.41406-1.2461-0.16016-1.4766-0.67188-1.4648-0.83203-1.1055-0.53125-1.1016-0.39844-1.1055-0.48047-1.168 0.097657-0.625-1.1484-0.6875-1.5352-0.99219-1.1367-0.86328-1.4727-0.70703-1.0078-1.418-0.54297-1.1953-0.10156 0.50391-21.281 0.015625-5.4766v-1.9219l0.14062-3.4297 0.066407-4.3203 0.050781-1.4727 0.17969-1.2891 0.875-1.6289 0.72656-1.418 0.65625-1.4531 1.0391-0.98828 0.55078-1.3945 0.36328-0.95312 0.57031-1.2266 0.13281-1.4258 1.6992 0.082031 1.7539 0.52344 1.5156 0.019532 2.0391 0.80859 1.0156 0.74609 1.1406 1.4766 2.6836 1.1953 1.0547 0.17188 2.7617 0.71875 1.0195 0.10156 1.5625-0.49219 1.5078-1.3242 0.74219-0.99219 0.55859-1.7422 0.64453-1.125 1.1133-0.81641 1.7266-0.62891 2.0703-0.16016 2.5273 0.24609 1.6719 0.066407 1.2812-0.29688 1.543-0.25391 1.5039 0.21484" fill="none" stroke="#fff" stroke-linecap="round" stroke-linejoin="round" stroke-miterlimit="10" stroke-width="2"/>
<path d="m85.145 190.58 13.086 4.7461 7.0039 2.5039 0.24219 1.2617 0.60547 0.95312 2.8203 4.6484 2.4492 4.0586 2.0977 3.5078 1.3164 2.1992 1.6484 2.7734 0.55078 0.92578 0.41797 1.0547 0.37109 1.0469 0.50391 1.418 1.0156 2.9102 0.40234 1.1523 0.98828 2.8164 1.3203 3.7148 1.5781 4.4414 1.3047 3.7344 0.71094 1.9648 0.47266 1.1211 0.70703 0.89844 0.82031 0.63281 1.2695 0.57812 4.6719 1.9766 2.3125 1.0039 2.5312 1.0703 2.0898 0.88281 2.043 0.87109 1.5742 0.66797 1.5547 0.67969 1.6953 0.72266 1.0469 0.44531 2.2383 0.96484 1.418 0.58594 1.2148 0.52734 1.1133 0.41016 0.80469 3.1133 0.33594 2.3164 0.87891 3.7852 0.63672 1.5391 1.1367 1.2344 1.1133 0.70703 3.3125 2.4414 2.1445 2.1875 2.4961 2.1992 2.1289 2.2812 1.25 1.6328 1.1172 1.7227 0.85156 1.793 0.35156 1.5703-0.125 2.2266-0.95312 3.8438-0.92969 2.7617-0.29297 1.9766 0.40234 1.0703 1.9023 2.4844-0.003907 1.1055-0.90625 0.54297-0.63672 0.97656 0.55078 1.1484 1.9492 1.4922 1.8672 1.2812 0.96875 0.46094 1.3984 0.48438 1.2305 0.66016 1.543 0.92578 1.0469 0.35156 0.9375 1.207 0.15234 1.0469 0.20703 1.0586 1.0586 1.0547-0.92188 0.54297-1.1445 0.39844-0.82422 1.5859-0.52344 1.9883 1.1875 4.0078 4.125 4.9844 2.1406 3.5234 0.53125 1.1992 0.57031 0.96094 0.20703 1.0391-1.625 2.0742-0.80469 1.8164-0.9375 1.7656-1.5273 1.7422-1.1836 0.9375-3.2891 0.82031-1.2305 0.32031-1.5781 0.78906-1.7305 1.0391-1.2812 2.1953-0.8125 1.1016-2.3359 1.6953-0.25391 0.97266 2.0195 2.0547 0.52344 1.0586-0.11328 2.0625-0.082031 1.168-0.96484 2.0039-2.1055 2.8633-0.49609 0.98828-1.0352 1.5977-1.5625 2.0625-1.125 1.1719-0.77734 0.82812-0.78516 0.80469-0.80078 1.0078-1.1211 1.25-1.5273 1.9219-1.0156 2.0625-1.6719 4.3086-0.60547 1.1641-1.1797 3.1367-0.97656 1.6016-1.9609 2.7461-0.90625 1.6367-0.91016 1.2734-1.3477 2.6445-0.16406 1.4727 0.99219 4.9883 0.097656 1.543-0.23828 1.4453-1.0195 0.97656-0.21484 1.2344 0.28516 1.6875 1.0469 1.5234 1.7969 1.4688 1.6133 1.668 1.0039 0.75781 2.5938 2.6445 1.0156 1.5586 2.5195 5.2305 0.6875 0.94141 1.3906 0.69531 0.83203 0.97266 0.55859 1.0195 1.8555 1.3008 1.4648 0.51172 1.3633-0.003907 1.0234-1.0664 0.78906-1.207 1.5742-0.41406 0.69922 0.74219 0.69531 1.7148 0.41797 1.0195 1.1562 1.207 1.8125 1.3008 1.6211 1.5742 2.7148 1.3984 2.5977 0.31641 1.1523 0.36719 1.5273 0.76172 1.8164 1.2539 0.94141 1.5312 1.1992 3.4648 0.26562 1.5898 0.042968 2.2344-0.64062 4.5312-0.91406 2.293-1.375 2.3203-0.58203 1.7383v1.8828l-0.43359 1.668-0.79688 1.4492-1.3047 1.8125-1.0156 0.94141-1.2305 1.668-0.87109 1.5938-0.57812 1.2344-0.87109 1.4492-0.43359 1.5195-0.13672 1.4023-0.082032 2.0078 0.28906 1.8086 0.27734 1.1133 0.12891 1.3906v1.2617l-0.59375 0.875-0.66797 0.89844-0.98047 1.4414-0.66797 0.77344-1.3906 1.4922-0.94922 0.61719-2.4961-0.28516-1.2617 0.41406-0.23438 1.2344-1.0273 1.2344-0.69531 1.1602-0.77344 1.207-1.7227 2.8164-1.6445 1.8867-0.98828-0.62891-0.17188-1.0117-0.50781-0.92578-0.074218-1.082-0.77344-1.2227-0.92188-0.55078-0.67969-0.81641-0.42578-0.98047-0.57812-1.0117-0.74609-0.77734-0.96875-0.25391-0.83594-1.1094-0.84766-0.64844-0.32031-1.3945-0.73828-0.88281-0.39844-1.0547-0.76172-0.96484-0.92969-0.59375-0.66016-0.83984-1.25-1.2383-0.83984-0.55859-0.88672-0.68359-0.875-0.60938-1.0742-0.63672-0.91016-0.56641-1.082-0.80078-0.85547-0.53516-1.9766-0.93359-0.96484-0.62109-1.4531-0.62109-1.2266-0.52734-1.8398-0.9375-1.1758-0.58594-1.3086-0.48047-1.0781-0.38672-1.0195-0.37109-1.1602-0.13281-0.87109-0.70312-0.99609-0.16016-0.99609-0.5-1.3516-0.41016-0.97266-0.36328-0.78906-0.72656-1.2383 0.15234-0.41406-0.94141-1.0703-0.019531-0.44141-0.90234-0.96094-0.44141-0.37109-1.0039-0.77734-0.92188-0.82812-0.72656 0.32422-1.1133-0.44141-1.0234-0.32031-1.1094-0.6875-0.91406-0.93359-0.39453-0.25-1.1055-0.93359-0.69141-0.61719-1.1992-0.70312-0.76953 0.9375-0.83984 1.043-0.65234 1.2031 0.007813 1.2148-0.070313 1.0312-0.007812 1.2734 0.023437 1.8906 0.15234 1.1094 0.058594 0.97656 0.51562 1.3359 0.37891 1.4961 0.023437 1.0117-0.10547 1.0977-0.019532 1.0039-0.57031 0.58203-1.1484 0.23828-1.0273 0.17188-1.125 0.29688-1.1836 0.23438-0.98438 0.23047-0.97266-0.29297-1.4141-0.14062-1.6602-0.10156-1.1484-0.14062-1.125-0.31641-1.125-0.59766-1.5234-0.54688-1.8359-0.48438-0.92578-0.64844-1.0391-1.0234-1.0664-0.96875-1.2578-0.50781-0.99219-0.51562-1.0352-0.91406-1.2891-0.66016-0.8125-0.92578-1.4609-1.5039-2.0195-0.625-0.94141-0.14844-1.2734-0.46484-1.2266-0.59375-0.99609 0.10156-1.2656 0.625-0.85938 0.29688-1.1484-0.91016-1.7695-0.75391-1.5469-0.56641-0.94531-0.82422-1.6172-0.89453-1.4102-0.84766-1.0781-0.87891-0.97656-0.82812-0.97266-1.3984-1.1562-1.6562-1.2383-1.1016-0.82812-0.91016-0.57422-1.3203-0.83984-1.1211-0.59766-0.98828 0.21094-0.92578 0.56641-0.25781-0.98438-0.83203-1.3594-0.67188-0.95312-1-0.8125-1.1172 0.070312-0.51953-0.93359-0.98047-0.38281-0.64844 0.76172-0.94922-0.59375-0.625-0.80469-0.61328-0.83594-1.0234-0.14844-0.89453-0.51562-0.57422-1.1211-1.0195-0.34766-0.42969-1.3398-0.28516-0.99609-0.68359-1.1367 0.41406-1.2266 0.14062-1.0547-0.71094-0.86328-0.26172-1.0078-0.89844-0.60547-0.38281-0.96094-0.37891-1.4453-0.42969-1.1758-1.0547-0.23047-0.83594 0.69922-0.94531 0.49219-0.84375-0.61719-0.75781-0.92578-1.25 0.19141-1.1172-0.21484-0.89844-0.83594-0.63281-0.77734-0.95703-0.31641 0.019531-1.2148 0.38672-1.1016 0.63281-0.94531-0.20703-1.1641-0.67578-0.95703-1.4023-1.1719-0.95703-0.47266-0.89453-0.45703-0.90625-0.44531-1.2891-0.34766-1.207-0.074218-1.1406-0.12891-1.7031-0.089843-0.99219 0.35547-1.9844 0.15625-2.0703 0.54297-0.82812 0.6875-0.56641-1.0977-0.57812-1.0625-1.332-0.94141-1.0977-1.2734-1.1484-0.62891-1.0898-0.32812-1.0469-0.28516-1.1055 0.23438-1.043 0.66406-0.11328 1.3281 0.76953 0.65234 0.78516 1.0391 1.3008 2.2891 0.77734 1.2734 0.48438 0.92578 0.6875 1.2227 0.82812 0.9375 0.58984 0.97656 0.48828 1.0078 0.55859-2.0312-0.089844-1.2734 0.24609-0.97266-0.11719-1.1289 0.78906 0.73828 0.16016 1.4336-0.0625 1.1719-0.36719 0.99219-0.52344 1.2891-0.72266 1.0508-0.27734 1.3867-0.63281 1.2188-0.625 1-0.27734 1.0859-0.16797 1.4297-0.32812 0.96094-0.6875 0.82031-0.88281 0.77344-0.53906 0.91016-0.45312 1.0195-0.63281 1.25-0.67969 0.94922-0.64844 0.92188-1.0117-0.91797-0.57812-1.0859-0.58203-1.0156 0.050782-1.457 0.33203-1.4492 0.15625-1.0352-0.21484-1.0898-1.1211-0.75781-0.75-1.4727-0.88672-1.043-0.34375-1.0312-0.92969-0.53906-0.72266-0.92969-0.37891-1.2344-0.55078-1.0898-1.1836-0.75-1.1055 0.058594 0.375-0.96875 1.2266-0.039063 1.1562-0.62109 1.0781-0.42188 1.5234-1.1992 0.83203-0.71484 0.40234-1.1172-0.039063-1.0625-0.34375-1.5469-0.58984-1.2461-0.84375-0.82422-0.78906-1.0898-0.62891-0.86719 0.36719-1.4688-0.17188-1.0938 0.53906-1.0508 1.1562-0.082032 0.80859-1.1172 0.003906-1.0273-0.30859-1.0234-0.45703-1.1211-0.61328-0.90625-0.78125-0.78125-0.64062-1.2344-0.16797-1.1055-0.039063-1.4062 0.32031-1.1797v-1.2109l0.46875-1.082-0.11328-1.0234-0.69141-0.875-0.87891-0.49219-0.03125-1.4805-0.625-0.82812-0.84375-0.66797 0.99219-0.77734 0.83984 0.59375 1.0977 0.10938 0.94531-0.99609 0.82422-0.85156 1.0078-0.52344 1.2266-0.62891 0.32031-1.1016 0.17969-1.4453 0.011719-1.6562-0.27344-0.98828 0.10547-1.3008-0.066406-1.0898-0.09375-1.207 0.29688-1.1953 1.1055-0.64453 1.0977 0.39062 0.86719 0.76172 1.4062 0.19531 0.93359-0.50391 0.65625-0.78125 0.70312-1.3945v-1.125l-0.21094-1.293-0.37109-1.2656-0.69141-0.90625-0.49609-0.90625-1.0117 0.015625-1.0703 0.054688 0.097657-1.1289-0.27734-1.0195-0.39062-1.5664 0.17188-1.0508 0.33984-1.2266 1.0664 0.19531 1.3203-0.074219 0.72266-0.85156 0.32031-1.0078 0.19531-1.0625-0.089844-1.2227-0.29688-0.98047-0.74219-1.4375-0.82812-1.125-0.85938-0.86719-0.94141-0.5-1.3359-0.26562-0.50781-1.0664-0.99609-0.73047-1.1484-0.63672-0.35156-0.95312-1.2344-0.73047-0.56641-0.92188-1.1914-1.3438-0.019531-1.2148 1.3555-0.72656 1.2344-0.003906 1.0039-0.10156 1.2344-0.59375 0.51953-0.97656 0.59375-1.0352 0.42188-1.0977 0.44141-1 0.24609-1.2305-0.050781-1.3516-0.19141-1.2109 0.042969-1.5195 0.10938-1.4531-0.61328-1.2148 0.15625-1.0117-0.73828-1.6875-0.011719-1.0586 0.32422-1.1602-0.31641-1.668-0.69141-1.168-0.57812-1.0156-0.92578-1.1016-1.3438-1.4961-0.84766-0.73047-0.76562-0.69531-0.76953-0.82812-1.168-0.55469-1.3828-1.4102-1.1953-0.26562-0.47656-0.87891-0.050781-1.0977 1.043-0.40234 0.78906-0.64062 0.71094-1.1836 0.62109-0.89453 1.1953-0.41406 1.1445-0.4375 0.44531-1.0859 0.23438-1.0078-0.058594-1.1914-0.4375-1.0508-1.3906-0.45312-1.1094-0.3125-1.4219-0.37891-1.3516-0.66406-0.74219-0.76172-0.49609-0.98047-0.17188-1.5117-0.070312-0.99609-0.03125-1.0273-0.9375-0.47656-1.3125-0.20703-1.4023-0.019531-1.2734 0.21875-0.88672 0.48828-0.86328-0.69922-0.99609 0.79297 0.48047 1.0234 0.87891 0.53906-1.2266 0.042969-0.85547 0.75-0.17188 1.2461-0.65234 1.6133-0.17188 1.1992 0.35156 1.0273-0.43359 1.0273 0.84375 0.94531-0.77344 0.71094-1.1289 0.80469-0.57031 0.82812-1.2969 0.21094-0.64453 0.9375-0.73047 0.6875-0.89844 0.55859-0.75-1.0859-0.69141-1.1953-1.1562-1.3984-1.3672-0.40234-1.082-0.24609-1.4766-0.26172-1.6797 0.94922-0.69141 1.1641-0.85547 0.94141-1.0977-0.1875-0.9375 0.46484-1.582-0.26562-0.92969-0.85938 0.089843-1.0742 0.070313-1.0898-0.9375-0.57031-1.7891-0.46875-1.3281-0.59375-1.0234-0.20312-1.3281-0.48828-0.98438 0.22266-2.9219-0.49219-1.3164-0.10547-1.2617-0.11719-1.3711 0.23438-1.4414-0.26172-0.82031-1.1641 0.039063-1.3008 0.40625-1.4375 0.29688-1.7969-0.14844-1.0273-1.1523-0.83203 0.60938-1.3867 0.67188-0.80078 0.98047-0.95312 0.23047-1.0859 0.22656-1.0703 0.19922-1.3594 0.57422-1.6094-0.10547-1.1914 0.20312-1.2969-0.30469-1.3555 0.003906-1.0391-0.21875-1.0234 0.85547-1.418 0.24609-1.1719 0.51953-1.0078 0.042969-1.1445 0.12891-1.0625 0.35156-1.4258 0.70703-1.707 0.77344-0.85938 0.73047-0.89844 0.26953-1.0234 0.89844-1.2734 1.7852-0.35547 1.1992-0.015625 1.5078-1.1602 0.58594-0.98047 0.12891-1.1953-0.42969-1.1641-0.41797-2.1953-0.53125-1.2031-0.085938-1.2344-0.37891-1.3633 0.42969-1.1484 1.0586-0.98047 1.0781-0.74219 1.3594-0.36328 1.4062-0.48438 1.3477-0.52344 1.207 0.36719 1.0781 0.35938 1.1719 0.24609 1.3594 0.59375 1.5586-0.070312 0.98047-0.625 1.2891-0.54297 1.1875-0.20703 1.0195-0.79688 0.92969-1.0586 1.2891-1.0508 1.3594-0.54688 1.0312 0.03125 1.5156-0.10156 0.94531-0.42188 1.3594 0.007813 1.7969 0.33984 1.4141 0.20703 1.8984-0.26953 0.99609 0.28125 1.1836-0.019531 1.2227-0.058594 0.10938 1.1875 0.99609 0.53125 1.9062 0.17188-0.57031 0.94922-0.375 1.8828-0.24609 1.1719-0.36719 1.0508-0.19531 1.1133-1.1406 0.66406-0.65625 0.94531-0.43359 1.168-0.9375 1.2695-0.87891 1.4375-0.78125 0.83203-0.10156 1.0508 0.17969 1.4922 0.41797 0.96484-1.2227 1.3945-0.65234 1.2891-1.0039 0.94922-0.83984 1.2656-0.32812 1.3477 0.98438 0.32812 1.2148-1.3906 1.3242-0.17578 0.45312-0.96094 0.86719-0.76953 0.77344-0.84766 1.1367 0.47266 0.48438 1.0078 1.0469 1.0039 0.82422 0.72656 1.5859 1.1328 0.96484 1.1055 1.1719 1.4766 1.1367 0.48828 1.0078 0.070312 1.0977 0.26953 1.043 0.34375 1.0703 0.39453-0.066406 1.2344-0.35938 1.0586 0.31641 1.0547 1.0078 0.48828 0.97656 0.33984 0.97656 0.4375 1.0273-0.34766 0.1875 0.99609 1.0586-0.089844 0.64453-0.78906 0.61719-0.79688 0.53125-1.0547 0.31641-0.95703 0.82812-0.56641 0.76172-0.64453 0.75781-0.69141 0.44922-0.95312-0.058593-1.0078-0.39844-1.1406-0.57031-1.0938-0.60156-0.80078-0.625-0.78516-0.66406-0.76953-0.56641-0.87891 0.4375-1.0469 0.85156-0.52734 0.94531-0.32422 0.92969-0.37891 0.87891-0.48047 0.67188-0.75781 0.29297-0.95703-0.47656-0.94141-0.79297-0.61719-0.45703-0.89062 0.17578-1.1367 0.070312-1.1211 0.17188-1.0664-0.125-1.1836 0.27344-1.0391 0.39062-0.92188 0.64453-1.1523 0.60156-1.3008 0.30078-0.98047 0.37891-0.94141 0.11719-1.0117 0.75-0.99609 0.035157-1.625 0.79297-1.1992 0.30469-1.1836-0.17969-1.0234 0.20312-0.98438 0.14844-1.3906 0.44141-1.0273 0.47656-1.4375 0.03125-1.0234 0.125-1.0781 0.15234-1.1211 0.25391-1.0586 0.64453-0.92969 0.55469-1.0977 0.56641-0.83984 0.58203-1.0664z" fill="#ccc" fill-rule="evenodd"/>
<path d="m85.145 190.58 13.086 4.7461 7.0039 2.5039 0.24219 1.2617 0.60547 0.95312 2.8203 4.6484 2.4492 4.0586 2.0977 3.5078 1.3164 2.1992 1.6484 2.7734 0.55078 0.92578 0.41797 1.0547 0.37109 1.0469 0.50391 1.418 1.0156 2.9102 0.40234 1.1523 0.98828 2.8164 1.3203 3.7148 1.5781 4.4414 1.3047 3.7344 0.71094 1.9648 0.47266 1.1211 0.70703 0.89844 0.82031 0.63281 1.2695 0.57812 4.6719 1.9766 2.3125 1.0039 2.5312 1.0703 2.0898 0.88281 2.043 0.87109 1.5742 0.66797 1.5547 0.67969 1.6953 0.72266 1.0469 0.44531 2.2383 0.96484 1.418 0.58594 1.2148 0.52734 1.1133 0.41016 0.80469 3.1133 0.33594 2.3164 0.87891 3.7852 0.63672 1.5391 1.1367 1.2344 1.1133 0.70703 3.3125 2.4414 2.1445 2.1875 2.4961 2.1992 2.1289 2.2812 1.25 1.6328 1.1172 1.7227 0.85156 1.793 0.35156 1.5703-0.125 2.2266-0.95312 3.8438-0.92969 2.7617-0.29297 1.9766 0.40234 1.0703 1.9023 2.4844-0.003907 1.1055-0.90625 0.54297-0.63672 0.97656 0.55078 1.1484 1.9492 1.4922 1.8672 1.2812 0.96875 0.46094 1.3984 0.48438 1.2305 0.66016 1.543 0.92578 1.0469 0.35156 0.9375 1.207 0.15234 1.0469 0.20703 1.0586 1.0586 1.0547-0.92188 0.54297-1.1445 0.39844-0.82422 1.5859-0.52344 1.9883 1.1875 4.0078 4.125 4.9844 2.1406 3.5234 0.53125 1.1992 0.57031 0.96094 0.20703 1.0391-1.625 2.0742-0.80469 1.8164-0.9375 1.7656-1.5273 1.7422-1.1836 0.9375-3.2891 0.82031-1.2305 0.32031-1.5781 0.78906-1.7305 1.0391-1.2812 2.1953-0.8125 1.1016-2.3359 1.6953-0.25391 0.97266 2.0195 2.0547 0.52344 1.0586-0.11328 2.0625-0.082031 1.168-0.96484 2.0039-2.1055 2.8633-0.49609 0.98828-1.0352 1.5977-1.5625 2.0625-1.125 1.1719-0.77734 0.82812-0.78516 0.80469-0.80078 1.0078-1.1211 1.25-1.5273 1.9219-1.0156 2.0625-1.6719 4.3086-0.60547 1.1641-1.1797 3.1367-0.97656 1.6016-1.9609 2.7461-0.90625 1.6367-0.91016 1.2734-1.3477 2.6445-0.16406 1.4727 0.99219 4.9883 0.097656 1.543-0.23828 1.4453-1.0195 0.97656-0.21484 1.2344 0.28516 1.6875 1.0469 1.5234 1.7969 1.4688 1.6133 1.668 1.0039 0.75781 2.5938 2.6445 1.0156 1.5586 2.5195 5.2305 0.6875 0.94141 1.3906 0.69531 0.83203 0.97266 0.55859 1.0195 1.8555 1.3008 1.4648 0.51172 1.3633-0.003907 1.0234-1.0664 0.78906-1.207 1.5742-0.41406 0.69922 0.74219 0.69531 1.7148 0.41797 1.0195 1.1562 1.207 1.8125 1.3008 1.6211 1.5742 2.7148 1.3984 2.5977 0.31641 1.1523 0.36719 1.5273 0.76172 1.8164 1.2539 0.94141 1.5312 1.1992 3.4648 0.26562 1.5898 0.042968 2.2344-0.64062 4.5312-0.91406 2.293-1.375 2.3203-0.58203 1.7383v1.8828l-0.43359 1.668-0.79688 1.4492-1.3047 1.8125-1.0156 0.94141-1.2305 1.668-0.87109 1.5938-0.57812 1.2344-0.87109 1.4492-0.43359 1.5195-0.13672 1.4023-0.082032 2.0078 0.28906 1.8086 0.27734 1.1133 0.12891 1.3906v1.2617l-0.59375 0.875-0.66797 0.89844-0.98047 1.4414-0.66797 0.77344-1.3906 1.4922-0.94922 0.61719-2.4961-0.28516-1.2617 0.41406-0.23438 1.2344-1.0273 1.2344-0.69531 1.1602-0.77344 1.207-1.7227 2.8164-1.6445 1.8867-0.98828-0.62891-0.17188-1.0117-0.50781-0.92578-0.074218-1.082-0.77344-1.2227-0.92188-0.55078-0.67969-0.81641-0.42578-0.98047-0.57812-1.0117-0.74609-0.77734-0.96875-0.25391-0.83594-1.1094-0.84766-0.64844-0.32031-1.3945-0.73828-0.88281-0.39844-1.0547-0.76172-0.96484-0.92969-0.59375-0.66016-0.83984-1.25-1.2383-0.83984-0.55859-0.88672-0.68359-0.875-0.60938-1.0742-0.63672-0.91016-0.56641-1.082-0.80078-0.85547-0.53516-1.9766-0.93359-0.96484-0.62109-1.4531-0.62109-1.2266-0.52734-1.8398-0.9375-1.1758-0.58594-1.3086-0.48047-1.0781-0.38672-1.0195-0.37109-1.1602-0.13281-0.87109-0.70312-0.99609-0.16016-0.99609-0.5-1.3516-0.41016-0.97266-0.36328-0.78906-0.72656-1.2383 0.15234-0.41406-0.94141-1.0703-0.019531-0.44141-0.90234-0.96094-0.44141-0.37109-1.0039-0.77734-0.92188-0.82812-0.72656 0.32422-1.1133-0.44141-1.0234-0.32031-1.1094-0.6875-0.91406-0.93359-0.39453-0.25-1.1055-0.93359-0.69141-0.61719-1.1992-0.70312-0.76953 0.9375-0.83984 1.043-0.65234 1.2031 0.007813 1.2148-0.070313 1.0312-0.007812 1.2734 0.023437 1.8906 0.15234 1.1094 0.058594 0.97656 0.51562 1.3359 0.37891 1.4961 0.023437 1.0117-0.10547 1.0977-0.019532 1.0039-0.57031 0.58203-1.1484 0.23828-1.0273 0.17188-1.125 0.29688-1.1836 0.23438-0.98438 0.23047-0.97266-0.29297-1.4141-0.14062-1.6602-0.10156-1.1484-0.14062-1.125-0.31641-1.125-0.59766-1.5234-0.54688-1.8359-0.48438-0.92578-0.64844-1.0391-1.0234-1.0664-0.96875-1.2578-0.50781-0.99219-0.51562-1.0352-0.91406-1.2891-0.66016-0.8125-0.92578-1.4609-1.5039-2.0195-0.625-0.94141-0.14844-1.2734-0.46484-1.2266-0.59375-0.99609 0.10156-1.2656 0.625-0.85938 0.29688-1.1484-0.91016-1.7695-0.75391-1.5469-0.56641-0.94531-0.82422-1.6172-0.89453-1.4102-0.84766-1.0781-0.87891-0.97656-0.82812-0.97266-1.3984-1.1562-1.6562-1.2383-1.1016-0.82812-0.91016-0.57422-1.3203-0.83984-1.1211-0.59766-0.98828 0.21094-0.92578 0.56641-0.25781-0.98438-0.83203-1.3594-0.67188-0.95312-1-0.8125-1.1172 0.070312-0.51953-0.93359-0.98047-0.38281-0.64844 0.76172-0.94922-0.59375-0.625-0.80469-0.61328-0.83594-1.0234-0.14844-0.89453-0.51562-0.57422-1.1211-1.0195-0.34766-0.42969-1.3398-0.28516-0.99609-0.68359-1.1367 0.41406-1.2266 0.14062-1.0547-0.71094-0.86328-0.26172-1.0078-0.89844-0.60547-0.38281-0.96094-0.37891-1.4453-0.42969-1.1758-1.0547-0.23047-0.83594 0.69922-0.94531 0.49219-0.84375-0.61719-0.75781-0.92578-1.25 0.19141-1.1172-0.21484-0.89844-0.83594-0.63281-0.77734-0.95703-0.31641 0.019531-1.2148 0.38672-1.1016 0.63281-0.94531-0.20703-1.1641-0.67578-0.95703-1.4023-1.1719-0.95703-0.47266-0.89453-0.45703-0.90625-0.44531-1.2891-0.34766-1.207-0.074218-1.1406-0.12891-1.7031-0.089843-0.99219 0.35547-1.9844 0.15625-2.0703 0.54297-0.82812 0.6875-0.56641-1.0977-0.57812-1.0625-1.332-0.94141-1.0977-1.2734-1.1484-0.62891-1.0898-0.32812-1.0469-0.28516-1.1055 0.23438-1.043 0.66406-0.11328 1.3281 0.76953 0.65234 0.78516 1.0391 1.3008 2.2891 0.77734 1.2734 0.48438 0.92578 0.6875 1.2227 0.82812 0.9375 0.58984 0.97656 0.48828 1.0078 0.55859-2.0312-0.089844-1.2734 0.24609-0.97266-0.11719-1.1289 0.78906 0.73828 0.16016 1.4336-0.0625 1.1719-0.36719 0.99219-0.52344 1.2891-0.72266 1.0508-0.27734 1.3867-0.63281 1.2188-0.625 1-0.27734 1.0859-0.16797 1.4297-0.32812 0.96094-0.6875 0.82031-0.88281 0.77344-0.53906 0.91016-0.45312 1.0195-0.63281 1.25-0.67969 0.94922-0.64844 0.92188-1.0117-0.91797-0.57812-1.0859-0.58203-1.0156 0.050782-1.457 0.33203-1.4492 0.15625-1.0352-0.21484-1.0898-1.1211-0.75781-0.75-1.4727-0.88672-1.043-0.34375-1.0312-0.92969-0.53906-0.72266-0.92969-0.37891-1.2344-0.55078-1.0898-1.1836-0.75-1.1055 0.058594 0.375-0.96875 1.2266-0.039063 1.1562-0.62109 1.0781-0.42188 1.5234-1.1992 0.83203-0.71484 0.40234-1.1172-0.039063-1.0625-0.34375-1.5469-0.58984-1.2461-0.84375-0.82422-0.78906-1.0898-0.62891-0.86719 0.36719-1.4688-0.17188-1.0938 0.53906-1.0508 1.1562-0.082032 0.80859-1.1172 0.003906-1.0273-0.30859-1.0234-0.45703-1.1211-0.61328-0.90625-0.78125-0.78125-0.64062-1.2344-0.16797-1.1055-0.039063-1.4062 0.32031-1.1797v-1.2109l0.46875-1.082-0.11328-1.0234-0.69141-0.875-0.87891-0.49219-0.03125-1.4805-0.625-0.82812-0.84375-0.66797 0.99219-0.77734 0.83984 0.59375 1.0977 0.10938 0.94531-0.99609 0.82422-0.85156 1.0078-0.52344 1.2266-0.62891 0.32031-1.1016 0.17969-1.4453 0.011719-1.6562-0.27344-0.98828 0.10547-1.3008-0.066406-1.0898-0.09375-1.207 0.29688-1.1953 1.1055-0.64453 1.0977 0.39062 0.86719 0.76172 1.4062 0.19531 0.93359-0.50391 0.65625-0.78125 0.70312-1.3945v-1.125l-0.21094-1.293-0.37109-1.2656-0.69141-0.90625-0.49609-0.90625-1.0117 0.015625-1.0703 0.054688 0.097657-1.1289-0.27734-1.0195-0.39062-1.5664 0.17188-1.0508 0.33984-1.2266 1.0664 0.19531 1.3203-0.074219 0.72266-0.85156 0.32031-1.0078 0.19531-1.0625-0.089844-1.2227-0.29688-0.98047-0.74219-1.4375-0.82812-1.125-0.85938-0.86719-0.94141-0.5-1.3359-0.26562-0.50781-1.0664-0.99609-0.73047-1.1484-0.63672-0.35156-0.95312-1.2344-0.73047-0.56641-0.92188-1.1914-1.3438-0.019531-1.2148 1.3555-0.72656 1.2344-0.003906 1.0039-0.10156 1.2344-0.59375 0.51953-0.97656 0.59375-1.0352 0.42188-1.0977 0.44141-1 0.24609-1.2305-0.050781-1.3516-0.19141-1.2109 0.042969-1.5195 0.10938-1.4531-0.61328-1.2148 0.15625-1.0117-0.73828-1.6875-0.011719-1.0586 0.32422-1.1602-0.31641-1.668-0.69141-1.168-0.57812-1.0156-0.92578-1.1016-1.3438-1.4961-0.84766-0.73047-0.76562-0.69531-0.76953-0.82812-1.168-0.55469-1.3828-1.4102-1.1953-0.26562-0.47656-0.87891-0.050781-1.0977 1.043-0.40234 0.78906-0.64062 0.71094-1.1836 0.62109-0.89453 1.1953-0.41406 1.1445-0.4375 0.44531-1.0859 0.23438-1.0078-0.058594-1.1914-0.4375-1.0508-1.3906-0.45312-1.1094-0.3125-1.4219-0.37891-1.3516-0.66406-0.74219-0.76172-0.49609-0.98047-0.17188-1.5117-0.070312-0.99609-0.03125-1.0273-0.9375-0.47656-1.3125-0.20703-1.4023-0.019531-1.2734 0.21875-0.88672 0.48828-0.86328-0.69922-0.99609 0.79297 0.48047 1.0234 0.87891 0.53906-1.2266 0.042969-0.85547 0.75-0.17188 1.2461-0.65234 1.6133-0.17188 1.1992 0.35156 1.0273-0.43359 1.0273 0.84375 0.94531-0.77344 0.71094-1.1289 0.80469-0.57031 0.82812-1.2969 0.21094-0.64453 0.9375-0.73047 0.6875-0.89844 0.55859-0.75-1.0859-0.69141-1.1953-1.1562-1.3984-1.3672-0.40234-1.082-0.24609-1.4766-0.26172-1.6797 0.94922-0.69141 1.1641-0.85547 0.94141-1.0977-0.1875-0.9375 0.46484-1.582-0.26562-0.92969-0.85938 0.089843-1.0742 0.070313-1.0898-0.9375-0.57031-1.7891-0.46875-1.3281-0.59375-1.0234-0.20312-1.3281-0.48828-0.98438 0.22266-2.9219-0.49219-1.3164-0.10547-1.2617-0.11719-1.3711 0.23438-1.4414-0.26172-0.82031-1.1641 0.039063-1.3008 0.40625-1.4375 0.29688-1.7969-0.14844-1.0273-1.1523-0.83203 0.60938-1.3867 0.67188-0.80078 0.98047-0.95312 0.23047-1.0859 0.22656-1.0703 0.19922-1.3594 0.57422-1.6094-0.10547-1.1914 0.20312-1.2969-0.30469-1.3555 0.003906-1.0391-0.21875-1.0234 0.85547-1.418 0.24609-1.1719 0.51953-1.0078 0.042969-1.1445 0.12891-1.0625 0.35156-1.4258 0.70703-1.707 0.77344-0.85938 0.73047-0.89844 0.26953-1.0234 0.89844-1.2734 1.7852-0.35547 1.1992-0.015625 1.5078-1.1602 0.58594-0.98047 0.12891-1.1953-0.42969-1.1641-0.41797-2.1953-0.53125-1.2031-0.085938-1.2344-0.37891-1.3633 0.42969-1.1484 1.0586-0.98047 1.0781-0.74219 1.3594-0.36328 1.4062-0.48438 1.3477-0.52344 1.207 0.36719 1.0781 0.35938 1.1719 0.24609 1.3594 0.59375 1.5586-0.070312 0.98047-0.625 1.2891-0.54297 1.1875-0.20703 1.0195-0.79688 0.92969-1.0586 1.2891-1.0508 1.3594-0.54688 1.0312 0.03125 1.5156-0.10156 0.94531-0.42188 1.3594 0.007813 1.7969 0.33984 1.4141 0.20703 1.8984-0.26953 0.99609 0.28125 1.1836-0.019531 1.2227-0.058594 0.10938 1.1875 0.99609 0.53125 1.9062 0.17188-0.57031 0.94922-0.375 1.8828-0.24609 1.1719-0.36719 1.0508-0.19531 1.1133-1.1406 0.66406-0.65625 0.94531-0.43359 1.168-0.9375 1.2695-0.87891 1.4375-0.78125 0.83203-0.10156 1.0508 0.17969 1.4922 0.41797 0.96484-1.2227 1.3945-0.65234 1.2891-1.0039 0.94922-0.83984 1.2656-0.32812 1.3477 0.98438 0.32812 1.2148-1.3906 1.3242-0.17578 0.45312-0.96094 0.86719-0.76953 0.77344-0.84766 1.1367 0.47266 0.48438 1.0078 1.0469 1.0039 0.82422 0.72656 1.5859 1.1328 0.96484 1.1055 1.1719 1.4766 1.1367 0.48828 1.0078 0.070312 1.0977 0.26953 1.043 0.34375 1.0703 0.39453-0.066406 1.2344-0.35938 1.0586 0.31641 1.0547 1.0078 0.48828 0.97656 0.33984 0.97656 0.4375 1.0273-0.34766 0.1875 0.99609 1.0586-0.089844 0.64453-0.78906 0.61719-0.79688 0.53125-1.0547 0.31641-0.95703 0.82812-0.56641 0.76172-0.64453 0.75781-0.69141 0.44922-0.95312-0.058593-1.0078-0.39844-1.1406-0.57031-1.0938-0.60156-0.80078-0.625-0.78516-0.66406-0.76953-0.56641-0.87891 0.4375-1.0469 0.85156-0.52734 0.94531-0.32422 0.92969-0.37891 0.87891-0.48047 0.67188-0.75781 0.29297-0.95703-0.47656-0.94141-0.79297-0.61719-0.45703-0.89062 0.17578-1.1367 0.070312-1.1211 0.17188-1.0664-0.125-1.1836 0.27344-1.0391 0.39062-0.92188 0.64453-1.1523 0.60156-1.3008 0.30078-0.98047 0.37891-0.94141 0.11719-1.0117 0.75-0.99609 0.035157-1.625 0.79297-1.1992 0.30469-1.1836-0.17969-1.0234 0.20312-0.98438 0.14844-1.3906 0.44141-1.0273 0.47656-1.4375 0.03125-1.0234 0.125-1.0781 0.15234-1.1211 0.25391-1.0586 0.64453-0.92969 0.55469-1.0977 0.56641-0.83984 0.58203-1.0664 8.4766 2.1094" fill="none" stroke="#fff" stroke-linecap="round" stroke-linejoin="round" stroke-miterlimit="10" stroke-width="2"/>
<path d="m111.04 156.87 0.46094-0.007813 0.97266 0.3125 1.5938 0.77344 1.0898 0.25391 0.97656 0.46875 1.3359 0.10156 1.3125 0.58203 1.0977-0.45312 1.1016-0.27734 1.5273-0.089844 1.6562 0.035157 1.2656-0.34766 0.99219-0.18359 1.1172-0.19922 2.2266 0.21484 1.4883 0.30859 1.1016 0.38281 2.6445 0.81641 1.2539 0.28906 1.0781 0.22266 1.9102 0.066406 1.4922 0.11328 1.4492 0.60938 1.7461 1.2227 2.6797 15.133 16.094 19.566-52.082-18.359 0.40625-3.6133 0.45703-1.7656 0.30078-1.1016 0.33984-1.3125 0.29688-1.1094 0.3125-1.2031 0.56641-2.1641 0.35938-1.3594 0.19141-0.98828-0.16016-1.1094-0.54297-1.1055-0.85156-1.5625-1.1211-2.0547-0.55469-1.0391z" fill="#ccc" fill-rule="evenodd"/>
<path d="m111.04 156.87 0.46094-0.007813 0.97266 0.3125 1.5938 0.77344 1.0898 0.25391 0.97656 0.46875 1.3359 0.10156 1.3125 0.58203 1.0977-0.45312 1.1016-0.27734 1.5273-0.089844 1.6562 0.035157 1.2656-0.34766 0.99219-0.18359 1.1172-0.19922 2.2266 0.21484 1.4883 0.30859 1.1016 0.38281 2.6445 0.81641 1.2539 0.28906 1.0781 0.22266 1.9102 0.066406 1.4922 0.11328 1.4492 0.60938 1.7461 1.2227 2.6797 15.133 16.094 19.566-52.082-18.359 0.40625-3.6133 0.45703-1.7656 0.30078-1.1016 0.33984-1.3125 0.29688-1.1094 0.3125-1.2031 0.56641-2.1641 0.35938-1.3594 0.19141-0.98828-0.16016-1.1094-0.54297-1.1055-0.85156-1.5625-1.1211-2.0547-0.55469-1.0391 0.41797-0.066406" fill="none" stroke="#fff" stroke-linecap="round" stroke-linejoin="round" stroke-miterlimit="10" stroke-width="2"/>
<path d="m98.719 167.66 0.58984 0.023437 3.875 0.19531 5.7188 0.26953 1.9609 0.10156 1.3125 0.054688 0.24219 1.2148-0.29688 1.1094-0.33984 1.3125-0.30078 1.1016-0.45703 1.7656-0.84766 3.3438 51.973 18.57 2.1914 1.3242 3.0938 2.625 1.6992 0.84766 2.1016 1.4023 0.99219 1.0703 0.77344 0.83594 0.98438 1.1914 0.95312 1.9258 0.89844 1.4844 0.5625 0.96875 1.0625 2.4531 1.375 3.6758 0.83984 1.7656 0.87109 0.95312 1.0391 0.52344 0.64453 0.89844 0.36328 1.4844-0.30859 0.98438-0.14062 1.6523 0.39453 0.92578-0.71875 0.74219-1.7422-0.13281-1.1914 0.36719-0.87109 1.375-1.2656 0.5-1.3203 0.1875-0.92578-0.6875-1.3711-0.39453-1.0547-0.55469-1.7188-0.29297-0.34375 1.2148-0.39453 0.95312-0.66016 1.082-1.1641 1.082-1.082 1.2383-0.84375 1.4023-1.5859 2.6641-0.56641 3.25-0.67188 3.4531-0.66797 3.1992-0.87891 2.2695-0.875 1.8555-0.51562 0.87891-0.87891 1.1836-1.2891 1.2891-1.2891 0.82812-1.1328 0.56641-0.35547 0.98828-1.0625 0.15234-2.0781-0.86328-1.418-0.58594-1.4688-0.63281-1.8164-0.77734-1.6953-0.72266-1.5547-0.67969-1.5742-0.66797-2.043-0.87109-2.0898-0.88281-2.5312-1.0703-2.3125-1.0039-3.9961-1.6953-1.1875-0.50391-1.1016-0.57422-0.78906-0.75391-0.62109-0.99609-0.95703-2.6484-1.3047-3.7344-1.5781-4.4414-1.3203-3.7148-0.98828-2.8164-0.40234-1.1523-0.73047-2.0859-0.45312-1.3203-0.44922-1.2305-0.40625-1.1641-0.46484-0.95703-2.0039-3.3711-1.3164-2.1992-2.0977-3.5078-2.1211-3.5-3.1484-5.207-0.60547-0.95312-0.24609-1.0273-7-2.7383-13.086-4.7461-8.2344-2.9453 0.33203-1.0938 0.30078-1.0117 0.35156-1.0859 0.32031-1.0078 0.40625-1.1094 0.37891-0.92969 0.10156-1.0352 0.28906-1.0078 0.15625-1.0547 0.5625-0.85156 0.17969-1.0312 0.34375-1.0156 0.17969-1.082 0.13672-1.6914 1.2578-0.45703 4.2891-0.5 1.832-0.042969 0.75391 1.4453 1.2344 2.3516 2.4102-0.68359 0.41406-0.94141 0.55469-0.97656 0.25391-0.97656-0.29297-1.0508 0.085938-1.668 0.09375-1.6914z" fill="#ccc" fill-rule="evenodd"/>
<path d="m98.719 167.66 0.58984 0.023437 3.875 0.19531 5.7188 0.26953 1.9609 0.10156 1.3125 0.054688 0.24219 1.2148-0.29688 1.1094-0.33984 1.3125-0.30078 1.1016-0.45703 1.7656-0.84766 3.3438 51.973 18.57 2.1914 1.3242 3.0938 2.625 1.6992 0.84766 2.1016 1.4023 0.99219 1.0703 0.77344 0.83594 0.98438 1.1914 0.95312 1.9258 0.89844 1.4844 0.5625 0.96875 1.0625 2.4531 1.375 3.6758 0.83984 1.7656 0.87109 0.95312 1.0391 0.52344 0.64453 0.89844 0.36328 1.4844-0.30859 0.98438-0.14062 1.6523 0.39453 0.92578-0.71875 0.74219-1.7422-0.13281-1.1914 0.36719-0.87109 1.375-1.2656 0.5-1.3203 0.1875-0.92578-0.6875-1.3711-0.39453-1.0547-0.55469-1.7188-0.29297-0.34375 1.2148-0.39453 0.95312-0.66016 1.082-1.1641 1.082-1.082 1.2383-0.84375 1.4023-1.5859 2.6641-0.56641 3.25-0.67188 3.4531-0.66797 3.1992-0.87891 2.2695-0.875 1.8555-0.51562 0.87891-0.87891 1.1836-1.2891 1.2891-1.2891 0.82812-1.1328 0.56641-0.35547 0.98828-1.0625 0.15234-2.0781-0.86328-1.418-0.58594-1.4688-0.63281-1.8164-0.77734-1.6953-0.72266-1.5547-0.67969-1.5742-0.66797-2.043-0.87109-2.0898-0.88281-2.5312-1.0703-2.3125-1.0039-3.9961-1.6953-1.1875-0.50391-1.1016-0.57422-0.78906-0.75391-0.62109-0.99609-0.95703-2.6484-1.3047-3.7344-1.5781-4.4414-1.3203-3.7148-0.98828-2.8164-0.40234-1.1523-0.73047-2.0859-0.45312-1.3203-0.44922-1.2305-0.40625-1.1641-0.46484-0.95703-2.0039-3.3711-1.3164-2.1992-2.0977-3.5078-2.1211-3.5-3.1484-5.207-0.60547-0.95312-0.24609-1.0273-7-2.7383-13.086-4.7461-8.2344-2.9453 0.33203-1.0938 0.30078-1.0117 0.35156-1.0859 0.32031-1.0078 0.40625-1.1094 0.37891-0.92969 0.10156-1.0352 0.28906-1.0078 0.15625-1.0547 0.5625-0.85156 0.17969-1.0312 0.34375-1.0156 0.17969-1.082 0.13672-1.6914 1.2578-0.45703 4.2891-0.5 1.832-0.042969 0.75391 1.4453 1.2344 2.3516 2.4102-0.68359 0.41406-0.94141 0.55469-0.97656 0.25391-0.97656-0.29297-1.0508 0.085938-1.668 0.09375-1.6914 4.8828 0.22656" fill="none" stroke="#fff" stroke-linecap="round" stroke-linejoin="round" stroke-miterlimit="10" stroke-width="2"/>
<path d="m143.07 100.81-0.20703 0.48438-0.57031 1.2266-0.36328 0.95312-0.55078 1.3945-1.0391 0.98828-0.65625 1.4531-0.72656 1.418-0.875 1.6289-0.17969 1.2891-0.050781 1.4727-0.066407 4.3203-0.14062 3.4297v7.1523l-1.1992 21.438 1.4727 0.17188 1.4766 0.074219 0.66797 1.0117 0.97266 1.5039 0.94531 1.0898 0.67188 1.2148 0.72266 1.7305 1.2266 0.046875 1.2852 0.57422 1.1016 0.39844 1.1055 0.53125 1.4648 0.83203 1.1406 0.64062 1.582 0.19141 1.3906 0.41406 0.91406 0.46484 1.1836 0.47656 1.168 0.80078 1.0078 0.32422 0.97656 0.67188 1.1328 0.41406 0.86719 0.78516 0.98828 0.95703 0.67578 0.94531-0.38281 1.0039-2.0898-0.21094-1.6836-0.64453-1.6133-0.52344-1.5664-0.29297-1.6094-0.20312-1.7891-0.19531-1.5117-0.27344-1.0469-0.25-1.1367-0.31641-1.8711-0.67969-1.6055-0.66406-2.4688-1.5938-1.4805-0.625-1.1328-0.085937-1.707-0.058594-1.2656-0.15625-1.6289-0.39062-1.793-0.61719-1.9531-0.58203-1.4883-0.30859-1.668-0.24219-1.6758 0.22656-0.99219 0.18359-1.2656 0.34766-1.6562-0.035157-1.0156 0.23047-1.0508-0.13672-0.88672 0.87891-1.1328-0.73828-1.7539 0.007813-1.0586-0.42578-1.543-0.40234-1.5938-0.77344-0.97266-0.3125-1.0273-0.19531-0.99219 0.52734-1.7148 0.49219-1.5781-0.039062-1.1719-0.21094-1.4883-0.37891-1.2422 0.015625-1.8086-0.1875-1.6055-0.21094-1.0312-0.10547-2.0312-0.12109-1.5547 0.027344-1.168-0.16406-1.4922-0.4375-1.1797-0.33984-1.3984-0.35938-1.1602-0.40625-0.8125-0.74219-1.0898-0.37891-1.1172-0.61328-1.0195-0.39062-0.88281 0.85156 0.72656-3.4141 0.46875-0.92578 0.91406-1.9102 0.52734-0.85156 0.5-1 0.51953-1.0352 0.68359-1.3203 0.86328-1.7969 0.43359-1.0781 0.51562-1.1875 0.42578-1.3594 0.84375-2.8008 0.39453-1.2539 0.32812-1.1562 0.37891-1.543 0.875-3.8867 0.63281-3.1172 0.63672-2.8672 0.42578-2.0742 0.28125-1.6055 0.5-2.3047 0.19141-1.4844 0.97266 0.29297 1.1484 0.38672 2-0.24219 3.8711 0.17969 3.5703 0.16797 1.1875-0.24609 2.1602-0.71094 3.1992-0.45312 2.9492-2.4102 1.6172-0.66406 1.1445 0.23438 1.2812 0.17188 1.3828-0.41797 1.1484-0.77734 0.74609-0.88281 0.63672-1.0547 1.1836-0.82031 2.9062-1.0625 1.0547-0.22266 1.8555-0.10156 1.9062-0.46484 1.2109-0.46484 1.0273-0.60547 1.0977-0.47656 2.5039-0.67578 1.5039-0.50781 1.1016-0.55859 1.1641-1.0898z" fill="#ccc" fill-rule="evenodd"/>
<path d="m143.07 100.81-0.20703 0.48438-0.57031 1.2266-0.36328 0.95312-0.55078 1.3945-1.0391 0.98828-0.65625 1.4531-0.72656 1.418-0.875 1.6289-0.17969 1.2891-0.050781 1.4727-0.066407 4.3203-0.14062 3.4297v7.1523l-1.1992 21.438 1.4727 0.17188 1.4766 0.074219 0.66797 1.0117 0.97266 1.5039 0.94531 1.0898 0.67188 1.2148 0.72266 1.7305 1.2266 0.046875 1.2852 0.57422 1.1016 0.39844 1.1055 0.53125 1.4648 0.83203 1.1406 0.64062 1.582 0.19141 1.3906 0.41406 0.91406 0.46484 1.1836 0.47656 1.168 0.80078 1.0078 0.32422 0.97656 0.67188 1.1328 0.41406 0.86719 0.78516 0.98828 0.95703 0.67578 0.94531-0.38281 1.0039-2.0898-0.21094-1.6836-0.64453-1.6133-0.52344-1.5664-0.29297-1.6094-0.20312-1.7891-0.19531-1.5117-0.27344-1.0469-0.25-1.1367-0.31641-1.8711-0.67969-1.6055-0.66406-2.4688-1.5938-1.4805-0.625-1.1328-0.085937-1.707-0.058594-1.2656-0.15625-1.6289-0.39062-1.793-0.61719-1.9531-0.58203-1.4883-0.30859-1.668-0.24219-1.6758 0.22656-0.99219 0.18359-1.2656 0.34766-1.6562-0.035157-1.0156 0.23047-1.0508-0.13672-0.88672 0.87891-1.1328-0.73828-1.7539 0.007813-1.0586-0.42578-1.543-0.40234-1.5938-0.77344-0.97266-0.3125-1.0273-0.19531-0.99219 0.52734-1.7148 0.49219-1.5781-0.039062-1.1719-0.21094-1.4883-0.37891-1.2422 0.015625-1.8086-0.1875-1.6055-0.21094-1.0312-0.10547-2.0312-0.12109-1.5547 0.027344-1.168-0.16406-1.4922-0.4375-1.1797-0.33984-1.3984-0.35938-1.1602-0.40625-0.8125-0.74219-1.0898-0.37891-1.1172-0.61328-1.0195-0.39062-0.88281 0.85156 0.72656-3.4141 0.46875-0.92578 0.91406-1.9102 0.52734-0.85156 0.5-1 0.51953-1.0352 0.68359-1.3203 0.86328-1.7969 0.43359-1.0781 0.51562-1.1875 0.42578-1.3594 0.84375-2.8008 0.39453-1.2539 0.32812-1.1562 0.37891-1.543 0.875-3.8867 0.63281-3.1172 0.63672-2.8672 0.42578-2.0742 0.28125-1.6055 0.5-2.3047 0.19141-1.4844 0.97266 0.29297 1.1484 0.38672 2-0.24219 3.8711 0.17969 3.5703 0.16797 1.1875-0.24609 2.1602-0.71094 3.1992-0.45312 2.9492-2.4102 1.6172-0.66406 1.1445 0.23438 1.2812 0.17188 1.3828-0.41797 1.1484-0.77734 0.74609-0.88281 0.63672-1.0547 1.1836-0.82031 2.9062-1.0625 1.0547-0.22266 1.8555-0.10156 1.9062-0.46484 1.2109-0.46484 1.0273-0.60547 1.0977-0.47656 2.5039-0.67578 1.5039-0.50781 1.1016-0.55859 1.1641-1.0898 0.54297 0.76172" fill="none" stroke="#fff" stroke-linecap="round" stroke-linejoin="round" stroke-miterlimit="10" stroke-width="2"/>
<path d="m412.08 2.9023 0.26953 0.25 0.67578 0.73438 0.40625 1.0664 0.26953 0.96484 0.57031 1.6484 0.59375 1.7969-0.14844 1.5977 0.074219 1.1055 0.90625 1.0039 0.96484 0.71875-0.35938 1.4102-0.49219 0.89453-0.59766 0.94141-0.59766 0.86328-0.69141 0.82422-0.46094 0.92188 1.6758 1.5117 1.2617 0.79688 1.1133 1.1992 0.53516 1.3711 0.36328 1.0469 0.4375 1.7461 0.57031 0.86719 0.035156 1.1953-0.042969 1.1094 0.60547 1.1367 0.87891 0.70312 0.67188 0.93359 1.625 1.9727 0.92578 0.85938 1.0273 0.55078 1.1133 0.15625 0.88672 0.89453 0.79688 0.63672 0.78906 0.625 0.24609 1.1406-0.72656 1.082-0.79688 0.62109-0.33594 1.2266-0.31641 1.1016 0.125 1.1055-0.15625 1.0781-0.019531 1.3086-0.8125 0.85547 0.082031 1.082-0.082031 1.418-0.35938 1.5312-0.042969 1.9805 0.83984 1.3203 0.5 0.99219 0.30078 1.7461-0.35156 1.1719 0.003906 1.2227 0.31641 1.0273-0.21484 0.98828-1.4102 1.3008-1.1094 0.35156-0.41797 1.2109 0.21484 1.0547-0.5625 0.92969-0.83203 0.62891-0.96094 0.92188-0.35938 1.0312-0.27344 0.97266-0.60938 0.87891-0.42969 0.92578-0.023438 1.2422 0.30078 1.0273 0.35547 1.1289-0.86328 1.1406-0.51172 1.0625-0.63281 0.79688-1.0586-0.023437-0.94141 0.64453-0.94141 0.59766 0.76562 0.75781 1.1289-0.097657 1.0312 0.41406 0.85938 0.58203 1.0234 0.24609 0.98828-0.19141 1.1133-0.26562 0.30078 1.0742-3.832 8.7148-1.6016 3.5234-1.3281 3.0078-0.78906 1.9141-0.625 0.91406-1.1211-0.0625-1.0703-0.035156-0.78906-0.67969-0.98438-0.21484-1.0156 0.082031-1.0234-0.023438-0.73047 10.84-0.39844 1.1992-0.32031 1.1641-0.74609 1.0391-1.2969 0.79297-0.65625 0.95703-0.50391 1.2617 0.25 1.1758 0.39062 1.3633 0.31641 1.1328 0.41797 1.2109 0.67969 0.80078 0.74609 1.082 1.1758 0.89453 1.0273 0.89453 1.0156 0.54688 0.73438 0.86719 0.93359 0.91016 1.0234 0.75 0.875 1.0391 0.99219 0.72656 0.94141 0.47656 0.94141 1.082 0.44922 0.98828 0.375 0.96875 0.68359 1.1289 0.54297 0.96484-0.023437 1.0117 0.58594 1.2969 0.84766 0.82031 0.023437 1.0859 0.046875 1.1055-0.375 1.2695-0.23438 1.4375-0.16797 1.4375-0.023437 1.1523-0.36328 1.2031-0.53125 1.1797 0.14062 1.3906-1.2734-0.5-1.2734-0.56641-1.1836 0.089843-0.52344 1.3633-0.5 1.1172-0.66016 1-0.089844 1.1367-0.18359 1.207-0.95312 0.56641-1.6172-0.25-0.95312 0.52344-0.82031 1.2539-0.79297 1.0469-1.0586 0.72266-0.91016 0.92188 0.046875 1.1055-0.38281 1.0117-0.24609 1.1992-0.10547 1.1172 0.57422 1.0117-0.22656 1.0156-0.77344 0.73047 0.035156 1.0312-0.13672 1.3945-0.83984 1.043-1.1484 0.4375-0.93359 0.60547-0.64062 0.77734-0.09375 1.1367-0.94531 0.85547-0.17188 1.0703 0.37109 0.93359 0.03125 1.0898-0.35547 1.3242-0.28125 1.1953-0.80859 1.2148-0.9375 0.9375-1.4727 0.43359-1.6641-0.38281-1.3594-0.44141-1.3828-0.11719-0.87109 0.51562-0.73828 0.75391-0.87109 0.80859-1.457 0.64844-1.3203-0.37891-1.082-0.22266-1.0508-0.042969-0.875-0.64844-1.0234-1.1055-0.64453-0.80078-0.49219-1.2344-1.6523-1.125-0.33594-0.98438h-1.2969l-0.56641-1.2812-1.1406-0.96484-0.98828-0.81641-0.49609-2.1094-0.5625-1.1719 0.5-1.7227-0.003906-1.0547-0.76562-1.0977 0.47656-2.4609-0.058594-1.5469 0.28906-1.9023 0.29688-1.6836-0.85547-0.99219-1.7617-0.12109-0.89453-1.4492-0.67188-2.9609-1.3438 0.12891-2.3398-1.457-1.0156-0.48438-1.3398 0.375-1.875-2.8555-0.27734-1.5234-0.39453-1.4844 0.67969-1.6367-1.1641 0.91016-2.0312 1.4727-1.0195 0.28516-1.4766-0.34766-4.4219-2.2852-0.75781-0.72656-1.4727-1.5352-1.5547-0.98828-1.7891-0.37891-1.4023 0.39453-1.2383-0.035157-0.76562 0.68359-0.65625 1.0508-1.7148 0.98438-1.0859 0.47266-1.2656-0.10938-1.8281-0.24609-1.5078-0.19141-1.1836-0.25-1.6602 0.75391-1.5508 1.0898-0.42188 1.8594-0.3125 1.0781-0.039062 1.0977-1.5156 1.6016-1.2578 1.0312-1.5195 0.45312-1.2227 1.0898-1.7422-0.34766-0.84375-0.54688-1.9062-1.8047-2.3203-1.3984-1.1328-0.38281-2.1641-0.25781-1.5391-0.054688-2.3789-1.0195-1.4297-0.58203-0.59766-1.1055-1.7344-0.20312-2.8164-0.40625-1.7891 0.17969-1.0039-0.60938-0.50781-0.92969-0.98828-0.95312-1.0078-0.52344-1.0547-0.9375 0.13672-1.4961-0.38672-1.0547-0.33203-1.1484-1.4141-0.55859-0.42188-0.97656-0.55469-2.0078-0.58594-0.88281-3.3789-1.3711-4.4766-1.8867-1.3945-0.40625-1.0078-0.085937-1.2031 0.039062-2.7656 1.5977-1.0508-0.63672-1.6406-0.03125-0.99609-1.1172-1.1758-0.60547-0.89453-0.79297-2.2852-0.71484-0.90234-0.66406-1.957-2.3242-1.1719-1.1875 0.30469-1.2344-0.0625-1.0508 0.52344-0.98438 0.86328-1.1289 0.59766-1.3555 0.93359-0.81641 0.14453-1.1953-0.10156-1.0508 0.53906-0.875 0.21875-1.25 0.34766-1.2109-0.12891-1.0625-0.61328-0.84766-0.71484-1.0352-0.68359-0.74219-0.89062-1.0938-0.66797-1.0938-0.19141-1.0078 1.1953-0.20312 0.89062-0.74219 1.2969-0.45312 1.543-0.070313 1.1953 0.085938 1.3438-0.42188 1.0039-0.69922 1.2969-0.53906 1.0664-0.37891 1.2812-0.35156 0.94922-0.77344 0.42188-0.94922-0.015625-1.4258v-1.4297l0.67188-0.93359 1.2969-0.36328 0.94922-0.33594 1.2656 0.26172 0.91797-0.50781 0.32031-0.99219 0.99219-1.168 1.0664-0.88672 0.48047-0.93359 0.78516-0.80078 0.875-0.64453 0.32031-1.3242-0.042968-1.4141 0.058593-1.1367 0.058594-1.3125-0.10156-1.2266 0.11719-1.5 0.44922-0.96094 0.23438-1.168 0.45312-1.0625 0.64062-0.80078 0.91797-0.81641 1.3398-0.74609 0.19141-1.0781-0.26172-1.4258-0.99219-0.99219-0.73047-0.84766 0.29297-1.1367 0.62891-1.1055 1.0312-0.36719 1.0508-0.58203 1.3125-0.20312 1.1094-0.10547 1.0625-0.58203 0.74219-0.72656 1.1953-0.20312 2.1602-0.39453 1.0469-0.17578 0.96484-1.1523 1.3242-1.0352 0.71484-1.2227 0.65625-1.0508 1.0508-0.67188 1.5312-0.53906 0.27734-1.0625 0.98828-0.78906 1.168-0.72656 1.4883-0.61328 0.84375-0.71484 0.65625-0.96094 0.46484-0.90625-0.1875-1.2969-0.45312-1.3398-0.55469-1.1797 0.51953-1.3555 1.4414-0.31641 1.1367-0.69141 0.85938-0.63281 1.0977-0.65234 0.5625-1.3477 0.80859-1.6602 0.61328-1.0742 1.0391-0.80078 0.77344-0.86328 1.1523-0.88281 1.1523-0.60547 0.91016-0.47656 0.37891-1.0781 0.76953-0.83594 1.0938-0.58203 1.0781-0.050782 1.0391 0.070313 1.0898 0.19141 1.7734-0.046875 1.2812-0.89453 1.0703-0.47266 1.2617-0.039063 1.3477 0.17188 1.1094 0.050781 1.0078-0.41797 1.1094-1.2617 0.98047-0.64062 0.98828-0.75 0.38672-1 0.96484-0.73438 1.1523 0.19141 0.96094-0.625 1.0117-1.6328 1.0703 0.070312 0.90234 0.86328 1.2031 0.082032 1.0391-0.12109 1.1797-0.10156 0.9375 0.50781 1.1602 0.79297 1.1602-0.058594 0.76172-0.98438 0.24609-1.5 0.078125-1.043 0.83203-0.99219 0.87891-0.63672 0.92969-0.79688 0.76562-1.3047 0.68359-1.1875 0.57031-1.3359 0.63672-0.89844 0.60156-0.86328 0.83203-0.99219 1.5625 0.58594 0.81641 0.78125 0.71484 1.1562 0.83203 0.80078 0.79688 0.60156 0.75 0.96094 0.70312 0.80078 1.2695 0.21094 1.6445 0.27734 1.1914-0.16406 0.99219-0.14844 1.0273-0.17578 1.5312 0.12891 1.2539-0.12891 1.0742 0.22656 1.0586 0.082031 1.0586-0.082031 0.99219 0.35938 1.1875 0.82031 1.2422 0.39453 1.2969 0.078125 0.94922-0.6875 2.1836-0.35938 1.4922 0.39062 0.98047-0.55078 0.21875-1.543 0.82031-1.5273 0.5625-1.2852 0.46875-1.4805 0.83594-0.89844 1.8633 0.76953 1.1367 0.39062 1.5508-0.73438 1.832-1.9141 0.85547-1.2656 0.41016-1.2227 1.1406-1.6289 1.1914-0.83984 1.0625-0.89844 1.3594-1.8555 0.26953-1.4805-0.23047-1.7344-0.082032-1.7734 0.042969-1.0625 0.12109-1.4961z" fill="#ccc" fill-rule="evenodd"/>
<path d="m412.08 2.9023 0.26953 0.25 0.67578 0.73438 0.40625 1.0664 0.26953 0.96484 0.57031 1.6484 0.59375 1.7969-0.14844 1.5977 0.074219 1.1055 0.90625 1.0039 0.96484 0.71875-0.35938 1.4102-0.49219 0.89453-0.59766 0.94141-0.59766 0.86328-0.69141 0.82422-0.46094 0.92188 1.6758 1.5117 1.2617 0.79688 1.1133 1.1992 0.53516 1.3711 0.36328 1.0469 0.4375 1.7461 0.57031 0.86719 0.035156 1.1953-0.042969 1.1094 0.60547 1.1367 0.87891 0.70312 0.67188 0.93359 1.625 1.9727 0.92578 0.85938 1.0273 0.55078 1.1133 0.15625 0.88672 0.89453 0.79688 0.63672 0.78906 0.625 0.24609 1.1406-0.72656 1.082-0.79688 0.62109-0.33594 1.2266-0.31641 1.1016 0.125 1.1055-0.15625 1.0781-0.019531 1.3086-0.8125 0.85547 0.082031 1.082-0.082031 1.418-0.35938 1.5312-0.042969 1.9805 0.83984 1.3203 0.5 0.99219 0.30078 1.7461-0.35156 1.1719 0.003906 1.2227 0.31641 1.0273-0.21484 0.98828-1.4102 1.3008-1.1094 0.35156-0.41797 1.2109 0.21484 1.0547-0.5625 0.92969-0.83203 0.62891-0.96094 0.92188-0.35938 1.0312-0.27344 0.97266-0.60938 0.87891-0.42969 0.92578-0.023438 1.2422 0.30078 1.0273 0.35547 1.1289-0.86328 1.1406-0.51172 1.0625-0.63281 0.79688-1.0586-0.023437-0.94141 0.64453-0.94141 0.59766 0.76562 0.75781 1.1289-0.097657 1.0312 0.41406 0.85938 0.58203 1.0234 0.24609 0.98828-0.19141 1.1133-0.26562 0.30078 1.0742-3.832 8.7148-1.6016 3.5234-1.3281 3.0078-0.78906 1.9141-0.625 0.91406-1.1211-0.0625-1.0703-0.035156-0.78906-0.67969-0.98438-0.21484-1.0156 0.082031-1.0234-0.023438-0.73047 10.84-0.39844 1.1992-0.32031 1.1641-0.74609 1.0391-1.2969 0.79297-0.65625 0.95703-0.50391 1.2617 0.25 1.1758 0.39062 1.3633 0.31641 1.1328 0.41797 1.2109 0.67969 0.80078 0.74609 1.082 1.1758 0.89453 1.0273 0.89453 1.0156 0.54688 0.73438 0.86719 0.93359 0.91016 1.0234 0.75 0.875 1.0391 0.99219 0.72656 0.94141 0.47656 0.94141 1.082 0.44922 0.98828 0.375 0.96875 0.68359 1.1289 0.54297 0.96484-0.023437 1.0117 0.58594 1.2969 0.84766 0.82031 0.023437 1.0859 0.046875 1.1055-0.375 1.2695-0.23438 1.4375-0.16797 1.4375-0.023437 1.1523-0.36328 1.2031-0.53125 1.1797 0.14062 1.3906-1.2734-0.5-1.2734-0.56641-1.1836 0.089843-0.52344 1.3633-0.5 1.1172-0.66016 1-0.089844 1.1367-0.18359 1.207-0.95312 0.56641-1.6172-0.25-0.95312 0.52344-0.82031 1.2539-0.79297 1.0469-1.0586 0.72266-0.91016 0.92188 0.046875 1.1055-0.38281 1.0117-0.24609 1.1992-0.10547 1.1172 0.57422 1.0117-0.22656 1.0156-0.77344 0.73047 0.035156 1.0312-0.13672 1.3945-0.83984 1.043-1.1484 0.4375-0.93359 0.60547-0.64062 0.77734-0.09375 1.1367-0.94531 0.85547-0.17188 1.0703 0.37109 0.93359 0.03125 1.0898-0.35547 1.3242-0.28125 1.1953-0.80859 1.2148-0.9375 0.9375-1.4727 0.43359-1.6641-0.38281-1.3594-0.44141-1.3828-0.11719-0.87109 0.51562-0.73828 0.75391-0.87109 0.80859-1.457 0.64844-1.3203-0.37891-1.082-0.22266-1.0508-0.042969-0.875-0.64844-1.0234-1.1055-0.64453-0.80078-0.49219-1.2344-1.6523-1.125-0.33594-0.98438h-1.2969l-0.56641-1.2812-1.1406-0.96484-0.98828-0.81641-0.49609-2.1094-0.5625-1.1719 0.5-1.7227-0.003906-1.0547-0.76562-1.0977 0.47656-2.4609-0.058594-1.5469 0.28906-1.9023 0.29688-1.6836-0.85547-0.99219-1.7617-0.12109-0.89453-1.4492-0.67188-2.9609-1.3438 0.12891-2.3398-1.457-1.0156-0.48438-1.3398 0.375-1.875-2.8555-0.27734-1.5234-0.39453-1.4844 0.67969-1.6367-1.1641 0.91016-2.0312 1.4727-1.0195 0.28516-1.4766-0.34766-4.4219-2.2852-0.75781-0.72656-1.4727-1.5352-1.5547-0.98828-1.7891-0.37891-1.4023 0.39453-1.2383-0.035157-0.76562 0.68359-0.65625 1.0508-1.7148 0.98438-1.0859 0.47266-1.2656-0.10938-1.8281-0.24609-1.5078-0.19141-1.1836-0.25-1.6602 0.75391-1.5508 1.0898-0.42188 1.8594-0.3125 1.0781-0.039062 1.0977-1.5156 1.6016-1.2578 1.0312-1.5195 0.45312-1.2227 1.0898-1.7422-0.34766-0.84375-0.54688-1.9062-1.8047-2.3203-1.3984-1.1328-0.38281-2.1641-0.25781-1.5391-0.054688-2.3789-1.0195-1.4297-0.58203-0.59766-1.1055-1.7344-0.20312-2.8164-0.40625-1.7891 0.17969-1.0039-0.60938-0.50781-0.92969-0.98828-0.95312-1.0078-0.52344-1.0547-0.9375 0.13672-1.4961-0.38672-1.0547-0.33203-1.1484-1.4141-0.55859-0.42188-0.97656-0.55469-2.0078-0.58594-0.88281-3.3789-1.3711-4.4766-1.8867-1.3945-0.40625-1.0078-0.085937-1.2031 0.039062-2.7656 1.5977-1.0508-0.63672-1.6406-0.03125-0.99609-1.1172-1.1758-0.60547-0.89453-0.79297-2.2852-0.71484-0.90234-0.66406-1.957-2.3242-1.1719-1.1875 0.30469-1.2344-0.0625-1.0508 0.52344-0.98438 0.86328-1.1289 0.59766-1.3555 0.93359-0.81641 0.14453-1.1953-0.10156-1.0508 0.53906-0.875 0.21875-1.25 0.34766-1.2109-0.12891-1.0625-0.61328-0.84766-0.71484-1.0352-0.68359-0.74219-0.89062-1.0938-0.66797-1.0938-0.19141-1.0078 1.1953-0.20312 0.89062-0.74219 1.2969-0.45312 1.543-0.070313 1.1953 0.085938 1.3438-0.42188 1.0039-0.69922 1.2969-0.53906 1.0664-0.37891 1.2812-0.35156 0.94922-0.77344 0.42188-0.94922-0.015625-1.4258v-1.4297l0.67188-0.93359 1.2969-0.36328 0.94922-0.33594 1.2656 0.26172 0.91797-0.50781 0.32031-0.99219 0.99219-1.168 1.0664-0.88672 0.48047-0.93359 0.78516-0.80078 0.875-0.64453 0.32031-1.3242-0.042968-1.4141 0.058593-1.1367 0.058594-1.3125-0.10156-1.2266 0.11719-1.5 0.44922-0.96094 0.23438-1.168 0.45312-1.0625 0.64062-0.80078 0.91797-0.81641 1.3398-0.74609 0.19141-1.0781-0.26172-1.4258-0.99219-0.99219-0.73047-0.84766 0.29297-1.1367 0.62891-1.1055 1.0312-0.36719 1.0508-0.58203 1.3125-0.20312 1.1094-0.10547 1.0625-0.58203 0.74219-0.72656 1.1953-0.20312 2.1602-0.39453 1.0469-0.17578 0.96484-1.1523 1.3242-1.0352 0.71484-1.2227 0.65625-1.0508 1.0508-0.67188 1.5312-0.53906 0.27734-1.0625 0.98828-0.78906 1.168-0.72656 1.4883-0.61328 0.84375-0.71484 0.65625-0.96094 0.46484-0.90625-0.1875-1.2969-0.45312-1.3398-0.55469-1.1797 0.51953-1.3555 1.4414-0.31641 1.1367-0.69141 0.85938-0.63281 1.0977-0.65234 0.5625-1.3477 0.80859-1.6602 0.61328-1.0742 1.0391-0.80078 0.77344-0.86328 1.1523-0.88281 1.1523-0.60547 0.91016-0.47656 0.37891-1.0781 0.76953-0.83594 1.0938-0.58203 1.0781-0.050782 1.0391 0.070313 1.0898 0.19141 1.7734-0.046875 1.2812-0.89453 1.0703-0.47266 1.2617-0.039063 1.3477 0.17188 1.1094 0.050781 1.0078-0.41797 1.1094-1.2617 0.98047-0.64062 0.98828-0.75 0.38672-1 0.96484-0.73438 1.1523 0.19141 0.96094-0.625 1.0117-1.6328 1.0703 0.070312 0.90234 0.86328 1.2031 0.082032 1.0391-0.12109 1.1797-0.10156 0.9375 0.50781 1.1602 0.79297 1.1602-0.058594 0.76172-0.98438 0.24609-1.5 0.078125-1.043 0.83203-0.99219 0.87891-0.63672 0.92969-0.79688 0.76562-1.3047 0.68359-1.1875 0.57031-1.3359 0.63672-0.89844 0.60156-0.86328 0.83203-0.99219 1.5625 0.58594 0.81641 0.78125 0.71484 1.1562 0.83203 0.80078 0.79688 0.60156 0.75 0.96094 0.70312 0.80078 1.2695 0.21094 1.6445 0.27734 1.1914-0.16406 0.99219-0.14844 1.0273-0.17578 1.5312 0.12891 1.2539-0.12891 1.0742 0.22656 1.0586 0.082031 1.0586-0.082031 0.99219 0.35938 1.1875 0.82031 1.2422 0.39453 1.2969 0.078125 0.94922-0.6875 2.1836-0.35938 1.4922 0.39062 0.98047-0.55078 0.21875-1.543 0.82031-1.5273 0.5625-1.2852 0.46875-1.4805 0.83594-0.89844 1.8633 0.76953 1.1367 0.39062 1.5508-0.73438 1.832-1.9141 0.85547-1.2656 0.41016-1.2227 1.1406-1.6289 1.1914-0.83984 1.0625-0.89844 1.3594-1.8555 0.26953-1.4805-0.23047-1.7344-0.082032-1.7734 0.042969-1.0625 0.12109-1.4961 0.36328 0.23438" fill="none" stroke="#fff" stroke-linecap="round" stroke-linejoin="round" stroke-miterlimit="10" stroke-width="2"/>
<path d="m143.07 100.81-0.20703 0.48438-0.57031 1.2266-0.36328 0.95312-0.55078 1.3945-1.0391 0.98828-0.65625 1.4531-0.72656 1.418-0.875 1.6289-0.17969 1.2891-0.050781 1.4727-0.066407 4.3203-0.14062 3.4297v7.1523l-1.1992 21.438 1.4727 0.17188 1.4766 0.074219 0.66797 1.0117 0.97266 1.5039 0.94531 1.0898 0.67188 1.2148 0.72266 1.7305 1.2266 0.046875 1.2852 0.57422 1.1016 0.39844 1.1055 0.53125 1.4648 0.83203 1.1406 0.64062 1.582 0.19141 1.3906 0.41406 0.91406 0.46484 1.1836 0.47656 1.168 0.80078 1.0078 0.32422 0.97656 0.67188 1.1328 0.41406 0.86719 0.78516 0.98828 0.95703 0.67578 0.94531-0.38281 1.0039-2.0898-0.21094-1.6836-0.64453-1.6133-0.52344-1.5664-0.29297-1.6094-0.20312-1.7891-0.19531-1.5117-0.27344-1.0469-0.25-1.1367-0.31641-1.8711-0.67969-1.6055-0.66406-2.4688-1.5938-1.4805-0.625-1.1328-0.085937-1.707-0.058594-1.2656-0.15625-1.6289-0.39062-1.793-0.61719-1.9531-0.58203-1.4883-0.30859-1.668-0.24219-1.6758 0.22656-0.99219 0.18359-1.2656 0.34766-1.6562-0.035157-1.0156 0.23047-1.0508-0.13672-0.88672 0.87891-1.1328-0.73828-1.7539 0.007813-1.0586-0.42578-1.543-0.40234-1.5938-0.77344-0.97266-0.3125-1.0273-0.19531-0.99219 0.52734-1.7148 0.49219-1.5781-0.039062-1.1719-0.21094-1.4883-0.37891-1.2422 0.015625-1.8086-0.1875-1.6055-0.21094-1.0312-0.10547-2.0312-0.12109-1.5547 0.027344-1.168-0.16406-1.4922-0.4375-1.1797-0.33984-1.3984-0.35938-1.1602-0.40625-0.8125-0.74219-1.0898-0.37891-1.1172-0.61328-1.0195-0.39062-0.88281 0.85156 0.72656-3.4141 0.46875-0.92578 0.91406-1.9102 0.52734-0.85156 0.5-1 0.51953-1.0352 0.68359-1.3203 0.86328-1.7969 0.43359-1.0781 0.51562-1.1875 0.42578-1.3594 0.84375-2.8008 0.39453-1.2539 0.32812-1.1562 0.37891-1.543 0.875-3.8867 0.63281-3.1172 0.63672-2.8672 0.42578-2.0742 0.28125-1.6055 0.5-2.3047 0.19141-1.4844 0.97266 0.29297 1.1484 0.38672 2-0.24219 3.8711 0.17969 3.5703 0.16797 1.1875-0.24609 2.1602-0.71094 3.1992-0.45312 2.9492-2.4102 1.6172-0.66406 1.1445 0.23438 1.2812 0.17188 1.3828-0.41797 1.1484-0.77734 0.74609-0.88281 0.63672-1.0547 1.1836-0.82031 2.9062-1.0625 1.0547-0.22266 1.8555-0.10156 1.9062-0.46484 1.2109-0.46484 1.0273-0.60547 1.0977-0.47656 2.5039-0.67578 1.5039-0.50781 1.1016-0.55859 1.1641-1.0898z" fill="#0a5394" fill-rule="evenodd"/>
<path d="m143.07 100.81-0.20703 0.48438-0.57031 1.2266-0.36328 0.95312-0.55078 1.3945-1.0391 0.98828-0.65625 1.4531-0.72656 1.418-0.875 1.6289-0.17969 1.2891-0.050781 1.4727-0.066407 4.3203-0.14062 3.4297v7.1523l-1.1992 21.438 1.4727 0.17188 1.4766 0.074219 0.66797 1.0117 0.97266 1.5039 0.94531 1.0898 0.67188 1.2148 0.72266 1.7305 1.2266 0.046875 1.2852 0.57422 1.1016 0.39844 1.1055 0.53125 1.4648 0.83203 1.1406 0.64062 1.582 0.19141 1.3906 0.41406 0.91406 0.46484 1.1836 0.47656 1.168 0.80078 1.0078 0.32422 0.97656 0.67188 1.1328 0.41406 0.86719 0.78516 0.98828 0.95703 0.67578 0.94531-0.38281 1.0039-2.0898-0.21094-1.6836-0.64453-1.6133-0.52344-1.5664-0.29297-1.6094-0.20312-1.7891-0.19531-1.5117-0.27344-1.0469-0.25-1.1367-0.31641-1.8711-0.67969-1.6055-0.66406-2.4688-1.5938-1.4805-0.625-1.1328-0.085937-1.707-0.058594-1.2656-0.15625-1.6289-0.39062-1.793-0.61719-1.9531-0.58203-1.4883-0.30859-1.668-0.24219-1.6758 0.22656-0.99219 0.18359-1.2656 0.34766-1.6562-0.035157-1.0156 0.23047-1.0508-0.13672-0.88672 0.87891-1.1328-0.73828-1.7539 0.007813-1.0586-0.42578-1.543-0.40234-1.5938-0.77344-0.97266-0.3125-1.0273-0.19531-0.99219 0.52734-1.7148 0.49219-1.5781-0.039062-1.1719-0.21094-1.4883-0.37891-1.2422 0.015625-1.8086-0.1875-1.6055-0.21094-1.0312-0.10547-2.0312-0.12109-1.5547 0.027344-1.168-0.16406-1.4922-0.4375-1.1797-0.33984-1.3984-0.35938-1.1602-0.40625-0.8125-0.74219-1.0898-0.37891-1.1172-0.61328-1.0195-0.39062-0.88281 0.85156 0.72656-3.4141 0.46875-0.92578 0.91406-1.9102 0.52734-0.85156 0.5-1 0.51953-1.0352 0.68359-1.3203 0.86328-1.7969 0.43359-1.0781 0.51562-1.1875 0.42578-1.3594 0.84375-2.8008 0.39453-1.2539 0.32812-1.1562 0.37891-1.543 0.875-3.8867 0.63281-3.1172 0.63672-2.8672 0.42578-2.0742 0.28125-1.6055 0.5-2.3047 0.19141-1.4844 0.97266 0.29297 1.1484 0.38672 2-0.24219 3.8711 0.17969 3.5703 0.16797 1.1875-0.24609 2.1602-0.71094 3.1992-0.45312 2.9492-2.4102 1.6172-0.66406 1.1445 0.23438 1.2812 0.17188 1.3828-0.41797 1.1484-0.77734 0.74609-0.88281 0.63672-1.0547 1.1836-0.82031 2.9062-1.0625 1.0547-0.22266 1.8555-0.10156 1.9062-0.46484 1.2109-0.46484 1.0273-0.60547 1.0977-0.47656 2.5039-0.67578 1.5039-0.50781 1.1016-0.55859 1.1641-1.0898 0.54297 0.76172" fill="none" stroke="#fff" stroke-linecap="round" stroke-linejoin="round" stroke-miterlimit="10"/>
<path d="m117.5 153.31c0 3.5898-2.9102 6.5-6.5 6.5s-6.5-2.9102-6.5-6.5 2.9102-6.5 6.5-6.5 6.5 2.9102 6.5 6.5" fill="#28c028" fill-rule="evenodd" stroke="#000" stroke-linecap="round" stroke-linejoin="round" stroke-miterlimit="10"/>
<path d="m117.82 171 3.2344-0.3125c0.19531 1.0859 0.59375 1.8828 1.1875 2.3906 0.59375 0.51172 1.3945 0.76562 2.4062 0.76562 1.0703 0 1.8789-0.22266 2.4219-0.67188 0.53906-0.45703 0.8125-0.98828 0.8125-1.5938 0-0.39453-0.11719-0.72656-0.34375-1-0.23047-0.26953-0.625-0.50391-1.1875-0.70312-0.39844-0.13281-1.2891-0.375-2.6719-0.71875-1.7812-0.44531-3.0312-0.99219-3.75-1.6406-1.0117-0.90625-1.5156-2.0078-1.5156-3.3125 0-0.83203 0.23828-1.6133 0.71875-2.3438 0.47656-0.72656 1.1602-1.2852 2.0469-1.6719 0.89453-0.38281 1.9766-0.57812 3.25-0.57812 2.0625 0 3.6133 0.45312 4.6562 1.3594 1.0508 0.90625 1.6016 2.1172 1.6562 3.625l-3.3281 0.15625c-0.14844-0.84375-0.45312-1.4531-0.92188-1.8281-0.46094-0.375-1.1562-0.5625-2.0938-0.5625-0.96875 0-1.7305 0.20312-2.2812 0.60938-0.34375 0.25-0.51562 0.58984-0.51562 1.0156 0 0.38672 0.16016 0.71875 0.48438 1 0.42578 0.35547 1.4453 0.72656 3.0625 1.1094 1.6133 0.375 2.8047 0.76562 3.5781 1.1719 0.78125 0.40625 1.3906 0.96484 1.8281 1.6719 0.4375 0.71094 0.65625 1.5859 0.65625 2.625 0 0.94922-0.26562 1.8359-0.79688 2.6562-0.52344 0.82422-1.2617 1.4375-2.2188 1.8438-0.96094 0.39453-2.1523 0.59375-3.5781 0.59375-2.0859 0-3.6836-0.47656-4.7969-1.4375-1.1172-0.96875-1.7812-2.375-2-4.2188zm31.031 5.3594h-3.6094l-1.4375-3.7344h-6.5781l-1.3594 3.7344h-3.5312l6.4062-16.469h3.5156zm-6.1094-6.5156-2.2812-6.1094-2.2188 6.1094zm7.9062 6.5156v-16.469h3.2344l6.75 11v-11h3.0781v16.469h-3.3281l-6.6406-10.734v10.734zm33.5-6.0469 3.2344 1.0156c-0.5 1.793-1.3281 3.125-2.4844 4-1.1484 0.875-2.6016 1.3125-4.3594 1.3125-2.1875 0-3.9844-0.74219-5.3906-2.2344-1.4062-1.5-2.1094-3.5469-2.1094-6.1406 0-2.7383 0.70312-4.8633 2.1094-6.375 1.4141-1.5195 3.2812-2.2812 5.5938-2.2812 2.0078 0 3.6445 0.60156 4.9062 1.7969 0.75 0.69922 1.3125 1.7109 1.6875 3.0312l-3.2969 0.78125c-0.19922-0.85156-0.60547-1.5234-1.2188-2.0156-0.61719-0.5-1.3672-0.75-2.25-0.75-1.2188 0-2.2109 0.4375-2.9688 1.3125-0.76172 0.875-1.1406 2.2969-1.1406 4.2656 0 2.0742 0.375 3.5547 1.125 4.4375 0.75 0.88672 1.7227 1.3281 2.9219 1.3281 0.88281 0 1.6445-0.28125 2.2812-0.84375 0.63281-0.5625 1.0859-1.4414 1.3594-2.6406zm6.1719 6.0469v-16.328h3.3281v13.547h8.2656v2.7812zm13.953 0v-16.469h12.203v2.7969h-8.875v3.6406h8.2656v2.7812h-8.2656v4.4688h9.2031v2.7812zm15.297 0v-16.469h4.9844l2.9844 11.234 2.9531-11.234h4.9844v16.469h-3.0938v-12.953l-3.2656 12.953h-3.2031l-3.25-12.953v12.953zm19.203 0v-16.469h12.203v2.7969h-8.875v3.6406h8.2656v2.7812h-8.2656v4.4688h9.2031v2.7812zm15.375 0v-16.469h3.2344l6.75 11v-11h3.0781v16.469h-3.3281l-6.6406-10.734v10.734zm20.281 0v-13.672h-4.875v-2.7969h13.078v2.7969h-4.875v13.672zm10.344 0v-16.469h12.203v2.7969h-8.875v3.6406h8.2656v2.7812h-8.2656v4.4688h9.2031v2.7812zm0 0" fill="none" stroke="#fff" stroke-linecap="round" stroke-linejoin="round" stroke-miterlimit="10" stroke-width="2"/>
<path d="m117.82 171 3.2344-0.3125c0.19531 1.0859 0.59375 1.8828 1.1875 2.3906 0.59375 0.51172 1.3945 0.76562 2.4062 0.76562 1.0703 0 1.8789-0.22266 2.4219-0.67188 0.53906-0.45703 0.8125-0.98828 0.8125-1.5938 0-0.39453-0.11719-0.72656-0.34375-1-0.23047-0.26953-0.625-0.50391-1.1875-0.70312-0.39844-0.13281-1.2891-0.375-2.6719-0.71875-1.7812-0.44531-3.0312-0.99219-3.75-1.6406-1.0117-0.90625-1.5156-2.0078-1.5156-3.3125 0-0.83203 0.23828-1.6133 0.71875-2.3438 0.47656-0.72656 1.1602-1.2852 2.0469-1.6719 0.89453-0.38281 1.9766-0.57812 3.25-0.57812 2.0625 0 3.6133 0.45312 4.6562 1.3594 1.0508 0.90625 1.6016 2.1172 1.6562 3.625l-3.3281 0.15625c-0.14844-0.84375-0.45312-1.4531-0.92188-1.8281-0.46094-0.375-1.1562-0.5625-2.0938-0.5625-0.96875 0-1.7305 0.20312-2.2812 0.60938-0.34375 0.25-0.51562 0.58984-0.51562 1.0156 0 0.38672 0.16016 0.71875 0.48438 1 0.42578 0.35547 1.4453 0.72656 3.0625 1.1094 1.6133 0.375 2.8047 0.76562 3.5781 1.1719 0.78125 0.40625 1.3906 0.96484 1.8281 1.6719 0.4375 0.71094 0.65625 1.5859 0.65625 2.625 0 0.94922-0.26562 1.8359-0.79688 2.6562-0.52344 0.82422-1.2617 1.4375-2.2188 1.8438-0.96094 0.39453-2.1523 0.59375-3.5781 0.59375-2.0859 0-3.6836-0.47656-4.7969-1.4375-1.1172-0.96875-1.7812-2.375-2-4.2188zm31.031 5.3594h-3.6094l-1.4375-3.7344h-6.5781l-1.3594 3.7344h-3.5312l6.4062-16.469h3.5156zm-6.1094-6.5156-2.2812-6.1094-2.2188 6.1094zm7.9062 6.5156v-16.469h3.2344l6.75 11v-11h3.0781v16.469h-3.3281l-6.6406-10.734v10.734zm33.5-6.0469 3.2344 1.0156c-0.5 1.793-1.3281 3.125-2.4844 4-1.1484 0.875-2.6016 1.3125-4.3594 1.3125-2.1875 0-3.9844-0.74219-5.3906-2.2344-1.4062-1.5-2.1094-3.5469-2.1094-6.1406 0-2.7383 0.70312-4.8633 2.1094-6.375 1.4141-1.5195 3.2812-2.2812 5.5938-2.2812 2.0078 0 3.6445 0.60156 4.9062 1.7969 0.75 0.69922 1.3125 1.7109 1.6875 3.0312l-3.2969 0.78125c-0.19922-0.85156-0.60547-1.5234-1.2188-2.0156-0.61719-0.5-1.3672-0.75-2.25-0.75-1.2188 0-2.2109 0.4375-2.9688 1.3125-0.76172 0.875-1.1406 2.2969-1.1406 4.2656 0 2.0742 0.375 3.5547 1.125 4.4375 0.75 0.88672 1.7227 1.3281 2.9219 1.3281 0.88281 0 1.6445-0.28125 2.2812-0.84375 0.63281-0.5625 1.0859-1.4414 1.3594-2.6406zm6.1719 6.0469v-16.328h3.3281v13.547h8.2656v2.7812zm13.953 0v-16.469h12.203v2.7969h-8.875v3.6406h8.2656v2.7812h-8.2656v4.4688h9.2031v2.7812zm15.297 0v-16.469h4.9844l2.9844 11.234 2.9531-11.234h4.9844v16.469h-3.0938v-12.953l-3.2656 12.953h-3.2031l-3.25-12.953v12.953zm19.203 0v-16.469h12.203v2.7969h-8.875v3.6406h8.2656v2.7812h-8.2656v4.4688h9.2031v2.7812zm15.375 0v-16.469h3.2344l6.75 11v-11h3.0781v16.469h-3.3281l-6.6406-10.734v10.734zm20.281 0v-13.672h-4.875v-2.7969h13.078v2.7969h-4.875v13.672zm10.344 0v-16.469h12.203v2.7969h-8.875v3.6406h8.2656v2.7812h-8.2656v4.4688h9.2031v2.7812z" fill-rule="evenodd"/>
</g>
</svg>
