<?xml version="1.0" encoding="UTF-8"?>
<svg width="500pt" height="415pt" version="1.1" viewBox="0 0 500 415" xmlns="http://www.w3.org/2000/svg">
<g id="a">
<rect width="500" height="415" fill="none"/>
<path d="m193.97 242.61 0.44922 0.21094 1.0469 0.80078 1.418 0.39844 1.375 0.10547 1.3672-0.027344 1.1602 0.16406 1.4375 0.29688 1.2266 0.28516-1.3945 1.375-0.76172 1.1133-0.25391 1.5703-1.3008 1.5273-1.0156 2.0508-2.6602 2.4531-2.6836 1.9453-1.332 0.32031-1.2969-0.34375-1.2773-1.082-0.83984-0.91406-0.74609-1.7734-0.69141-1.0586 0.51953-1.2031-0.023437-1.1016-0.011719-1.1172 0.20703-1.4102-0.27734-1.5 0.76953-0.75391 1.1602-0.53906 1.1484-0.38672 0.94922-0.60547 0.96875-0.66406z" fill="#ccc" fill-rule="evenodd"/>
<path d="m193.97 242.61 0.44922 0.21094 1.0469 0.80078 1.418 0.39844 1.375 0.10547 1.3672-0.027344 1.1602 0.16406 1.4375 0.29688 1.2266 0.28516-1.3945 1.375-0.76172 1.1133-0.25391 1.5703-1.3008 1.5273-1.0156 2.0508-2.6602 2.4531-2.6836 1.9453-1.332 0.32031-1.2969-0.34375-1.2773-1.082-0.83984-0.91406-0.74609-1.7734-0.69141-1.0586 0.51953-1.2031-0.023437-1.1016-0.011719-1.1172 0.20703-1.4102-0.27734-1.5 0.76953-0.75391 1.1602-0.53906 1.1484-0.38672 0.94922-0.60547 0.96875-0.66406 1.3633-0.13672" fill="none" stroke="#fff" stroke-linecap="round" stroke-linejoin="round" stroke-miterlimit="10" stroke-width="2"/>
<path d="m114.5 272.25 1.5703-0.003906 1.2891-0.03125 1.3164 0.58594 1.0547 1.2578 0.82031 1.5508 0.30078 1.3047 0.80078 1.7344 0.54297 1.3633 1.1133 1.2422 0.36719 1.2617 0.003906 1.9258 1.4375 0.83203 1.4375 0.78906 2.1953 1.3164 1.0859 0.91406 0.84766 2.7344 0.18359 2.9453 0.60156 1.375 1.1367 1.4492 1.1641 0.91406 1.832 0.60156 1.3789 0.25391 1.1172-0.92969 0.27734-1.5352 0.48438-1.3984 0.29688-2.0117 0.86328-1.4961 0.80078-0.625 1.0039-0.42578 1.043-0.1875 1.1367-0.14453 0.99609-0.49609 0.89844-0.50781 1.7539 0.03125 1.082 0.23828 1.3047-0.46484 1.2578-0.30078 0.34375 0.99219-0.94922 0.95703-0.003906 1.3867-0.25 2.3008 0.074219 1.2109 0.71484 1.3516 1.1055 1.4062 0.69922 0.83594 1.0312 1.4961 0.78125 1.7266 0.4375 0.97266 0.61328 1.4492 1.0742 1.0938 0.875 0.71094 0.65625 0.80078 0.75 1.4414 0.34375 1.6055 0.12891 1.2188 0.70703 0.86719 1.4258 0.1875 1.2383-0.24219 1.1133-0.51172 0.98047-0.57031 1.4961-0.25781 1.1328 0.34375 0.89062 0.625 0.58203 1.0703 0.14062 1.082 0.11328 1.4805 0.11719 2.0508 0.59766 0.92969 1.0508 0.23828 0.98828 0.17969 0.89844 1.0508-1.0703 0.21094-1.0234 0.35938-1.2539 0.42969-1.4648 0.64062-1.0352 0.097656-0.81641 0.60156-1 0.58984-1 0.28906-0.99609 0.44531-1.0156 0.039062-0.99609 0.0625-1.0977 0.27734-0.91797 0.52734-0.91406 0.4375-1.0625-0.37109-0.56641-1.2305-0.88281-0.65234-0.375 1.4805-0.44922 1.7305-1.0938 0.39062-1.0039-0.097656-1.2852 0.19531-1.5078 0.53125-1.7852 0.82422-1.7305 0.86328-0.96094 0.61328-1.1719 0.25-1.0781 0.40234-0.87891 0.69141-0.75781 1.2812-0.44922 1.3008-0.10156 1.4492-0.92969 1.1602-0.97266 0.69141-1.6211 0.50781-0.92188 0.47656-1.3242 0.72656-1.0078 0.070313-0.91406-0.54688-2.1953 0.10156-0.89453-0.55469-1.2266 0.13281-0.99609 0.46484-1.0703 0.11328-1.2109 0.41406-1.2461 0.46875-1.1875-0.097656-1.1055 0.36328-1.1484 0.035156-1.0586 0.58594-0.875-0.57422-0.11719-1.0742-0.20703-1.3633-0.43359-1.0078-0.67969-1.0508-0.46484-1.0352-0.99609-0.85938-0.875-0.49219-0.8125-0.89453-0.046875-1.2773-0.19141-1.1328-0.53906-1.0703-0.32422-1.0117 0.60547-0.94141-0.49609-1.0156-0.38281-1.1172-0.78516-1.1133-0.37891-1.3906-0.75-0.87891-0.26562-1.0039-0.17578-1.0703 0.64453-0.79688v-1.1406l-0.61328-1.1992 0.035156-1.0234-0.082031-1.0781-0.16797-1.1797 0.14453-1.0586-0.29688-0.96094-0.24609-1.0039-0.23047-1.1523 0.59375-0.98828 0.91016-0.95312 0.73438-0.84766 0.41406-1.125 0.43359-1.4414 0.50391-1.0703 0.94922-0.63672-1.1562 0.44141-1.0859-0.17969-0.91797-0.49609-0.15234-1.0117-0.003906-1.0078-0.87891-0.85547-1.4258-0.76172-0.91016-0.71094-0.75781-0.96094-0.77734-0.88281-0.85547-0.52344-0.9375-0.62891-0.51172-0.96875-0.75-0.80469-0.93359-0.63281-1.668-0.8125-1.0625-0.40234-0.5-0.90234 0.875-1.5078 0.35547-1.6641 0.085937-1.082 0.94141-1.0625 1.1289-0.9375 0.61719-1.2031 0.80859-1.0547 1.3867-0.95312 0.80859-1.0234 0.59766-0.99609 0.67188-1.2305 0.12109-1.1602 0.9375-1.2734 0.91406-0.63281 1.3203-0.23047 1.4023-0.29297z" fill="#ccc" fill-rule="evenodd"/>
<path d="m114.5 272.25 1.5703-0.003906 1.2891-0.03125 1.3164 0.58594 1.0547 1.2578 0.82031 1.5508 0.30078 1.3047 0.80078 1.7344 0.54297 1.3633 1.1133 1.2422 0.36719 1.2617 0.003906 1.9258 1.4375 0.83203 1.4375 0.78906 2.1953 1.3164 1.0859 0.91406 0.84766 2.7344 0.18359 2.9453 0.60156 1.375 1.1367 1.4492 1.1641 0.91406 1.832 0.60156 1.3789 0.25391 1.1172-0.92969 0.27734-1.5352 0.48438-1.3984 0.29688-2.0117 0.86328-1.4961 0.80078-0.625 1.0039-0.42578 1.043-0.1875 1.1367-0.14453 0.99609-0.49609 0.89844-0.50781 1.7539 0.03125 1.082 0.23828 1.3047-0.46484 1.2578-0.30078 0.34375 0.99219-0.94922 0.95703-0.003906 1.3867-0.25 2.3008 0.074219 1.2109 0.71484 1.3516 1.1055 1.4062 0.69922 0.83594 1.0312 1.4961 0.78125 1.7266 0.4375 0.97266 0.61328 1.4492 1.0742 1.0938 0.875 0.71094 0.65625 0.80078 0.75 1.4414 0.34375 1.6055 0.12891 1.2188 0.70703 0.86719 1.4258 0.1875 1.2383-0.24219 1.1133-0.51172 0.98047-0.57031 1.4961-0.25781 1.1328 0.34375 0.89062 0.625 0.58203 1.0703 0.14062 1.082 0.11328 1.4805 0.11719 2.0508 0.59766 0.92969 1.0508 0.23828 0.98828 0.17969 0.89844 1.0508-1.0703 0.21094-1.0234 0.35938-1.2539 0.42969-1.4648 0.64062-1.0352 0.097656-0.81641 0.60156-1 0.58984-1 0.28906-0.99609 0.44531-1.0156 0.039062-0.99609 0.0625-1.0977 0.27734-0.91797 0.52734-0.91406 0.4375-1.0625-0.37109-0.56641-1.2305-0.88281-0.65234-0.375 1.4805-0.44922 1.7305-1.0938 0.39062-1.0039-0.097656-1.2852 0.19531-1.5078 0.53125-1.7852 0.82422-1.7305 0.86328-0.96094 0.61328-1.1719 0.25-1.0781 0.40234-0.87891 0.69141-0.75781 1.2812-0.44922 1.3008-0.10156 1.4492-0.92969 1.1602-0.97266 0.69141-1.6211 0.50781-0.92188 0.47656-1.3242 0.72656-1.0078 0.070313-0.91406-0.54688-2.1953 0.10156-0.89453-0.55469-1.2266 0.13281-0.99609 0.46484-1.0703 0.11328-1.2109 0.41406-1.2461 0.46875-1.1875-0.097656-1.1055 0.36328-1.1484 0.035156-1.0586 0.58594-0.875-0.57422-0.11719-1.0742-0.20703-1.3633-0.43359-1.0078-0.67969-1.0508-0.46484-1.0352-0.99609-0.85938-0.875-0.49219-0.8125-0.89453-0.046875-1.2773-0.19141-1.1328-0.53906-1.0703-0.32422-1.0117 0.60547-0.94141-0.49609-1.0156-0.38281-1.1172-0.78516-1.1133-0.37891-1.3906-0.75-0.87891-0.26562-1.0039-0.17578-1.0703 0.64453-0.79688v-1.1406l-0.61328-1.1992 0.035156-1.0234-0.082031-1.0781-0.16797-1.1797 0.14453-1.0586-0.29688-0.96094-0.24609-1.0039-0.23047-1.1523 0.59375-0.98828 0.91016-0.95312 0.73438-0.84766 0.41406-1.125 0.43359-1.4414 0.50391-1.0703 0.94922-0.63672-1.1562 0.44141-1.0859-0.17969-0.91797-0.49609-0.15234-1.0117-0.003906-1.0078-0.87891-0.85547-1.4258-0.76172-0.91016-0.71094-0.75781-0.96094-0.77734-0.88281-0.85547-0.52344-0.9375-0.62891-0.51172-0.96875-0.75-0.80469-0.93359-0.63281-1.668-0.8125-1.0625-0.40234-0.5-0.90234 0.875-1.5078 0.35547-1.6641 0.085937-1.082 0.94141-1.0625 1.1289-0.9375 0.61719-1.2031 0.80859-1.0547 1.3867-0.95312 0.80859-1.0234 0.59766-0.99609 0.67188-1.2305 0.12109-1.1602 0.9375-1.2734 0.91406-0.63281 1.3203-0.23047 1.4023-0.29297 1.8555 0.12109" fill="none" stroke="#fff" stroke-linecap="round" stroke-linejoin="round" stroke-miterlimit="10" stroke-width="2"/>
<path d="m172.34 254.99 0.52344 0.30469 0.96484 0.32812 0.75 0.75391 0.45703 0.94531 0.98047 0.33203 0.83203 0.81641 1.1016 0.75781 1.0469 0.32031 0.63281 1.0625 0.79688 0.63281 1.2461 0.81641 0.46875 1.0234 1.3633 0.34375 1.0352 0.66406 0.59375 1.0742 0.53125 1.2031 0.49609 1.0586 0.62109 1.0117 0.89844 0.76172 0.68359 0.77734 0.91016 0.53516 0.79297 0.93359 0.70703 1.0273 0.72266 0.75 1.0391-0.28906 1.168 0.20703 0.89844 0.69531-1.0898 2.0117-0.75781 1.2539-1.9414 3.1523-1.5742 1.3125-1.3672 0.74609-1.1445 0.19141-1.7031-0.72266-1.3438-0.85547-1.75-0.78906-1.3867-0.37109-1.3047-0.16797-1.1797-0.37891-1.1719-0.60938-1.6562-0.074219-1.293-0.23438-1.2812-0.30859-1.4062-0.73828-0.86719-0.92969-1.3594-1.625-0.70312-1.6016-0.050781-1.5977-0.054688-1.2227-0.75-1.0117-1.0469 0.30859-1.3633 1.3516-1.207 0.84766-0.93359 0.35938-1.4883 0.36328-1.1523 0.25781-0.97266 0.25-1-0.25-1.7383-1.3242-1.2891-1.75-0.70312-1.0547-0.64062-0.80859 0.8125-0.95312 2.7812-2.5938 1.7969-1.1328 1.0625-0.17578 1.1016-0.28906 1.0156-0.46875 0.36719-1.0664 0.56641-0.87109 1.2266-0.50391 1.125-0.75391 1.3789-0.5 1.207-0.51172 0.97656-0.73047 1.2266-1.4336 0.74219-0.69141z" fill="#ccc" fill-rule="evenodd"/>
<path d="m172.34 254.99 0.52344 0.30469 0.96484 0.32812 0.75 0.75391 0.45703 0.94531 0.98047 0.33203 0.83203 0.81641 1.1016 0.75781 1.0469 0.32031 0.63281 1.0625 0.79688 0.63281 1.2461 0.81641 0.46875 1.0234 1.3633 0.34375 1.0352 0.66406 0.59375 1.0742 0.53125 1.2031 0.49609 1.0586 0.62109 1.0117 0.89844 0.76172 0.68359 0.77734 0.91016 0.53516 0.79297 0.93359 0.70703 1.0273 0.72266 0.75 1.0391-0.28906 1.168 0.20703 0.89844 0.69531-1.0898 2.0117-0.75781 1.2539-1.9414 3.1523-1.5742 1.3125-1.3672 0.74609-1.1445 0.19141-1.7031-0.72266-1.3438-0.85547-1.75-0.78906-1.3867-0.37109-1.3047-0.16797-1.1797-0.37891-1.1719-0.60938-1.6562-0.074219-1.293-0.23438-1.2812-0.30859-1.4062-0.73828-0.86719-0.92969-1.3594-1.625-0.70312-1.6016-0.050781-1.5977-0.054688-1.2227-0.75-1.0117-1.0469 0.30859-1.3633 1.3516-1.207 0.84766-0.93359 0.35938-1.4883 0.36328-1.1523 0.25781-0.97266 0.25-1-0.25-1.7383-1.3242-1.2891-1.75-0.70312-1.0547-0.64062-0.80859 0.8125-0.95312 2.7812-2.5938 1.7969-1.1328 1.0625-0.17578 1.1016-0.28906 1.0156-0.46875 0.36719-1.0664 0.56641-0.87109 1.2266-0.50391 1.125-0.75391 1.3789-0.5 1.207-0.51172 0.97656-0.73047 1.2266-1.4336 0.74219-0.69141 1.0234-0.15234" fill="none" stroke="#fff" stroke-linecap="round" stroke-linejoin="round" stroke-miterlimit="10" stroke-width="2"/>
<path d="m203.72 245.21 0.15625 0.16406 0.86328 0.91406 0.73828 1.1758-1.3633 0.59766 0.94141 1.1133 0.61719 1.2734 0.57031 1.332 0.13281 1.5156-0.1875 1.9961-0.5 1.1406-0.48047 0.95703-0.70312 2.4375 0.09375 2.5547-0.089843 1.8984 0.007812 1.2891-0.96875 1.3203-0.80078 0.76953-6.4062 4.9023-1.3672 1.3633-1.2656-0.78125-1.168-0.20703-1.0391 0.28906-0.72266-0.75-0.59375-0.84766-0.71094-0.92188-1.043-0.70312-0.74609-0.80078-0.89844-0.76172-0.62109-1.0117-0.49609-1.0586-0.53125-1.2031-0.59375-1.0742-1.0352-0.66406-1-0.16406-0.74219-0.84766-0.48438-0.88672-1.3125-0.40625-0.49609-1.1797-0.82812-0.57812 1.1836-1.125 1.5703-0.67969 0.058593-1.0859 1.1602-1.5352 0.84375-0.86328 1.4844-0.69531 1.6328-0.80859 1.3125 0.51562 0.74609 1.7734 0.83984 0.91406 1.2773 1.082 1.2969 0.34375 1.1523-0.19141 2.8633-2.0742 2.6602-2.4531 1.0156-2.0508 1.3008-1.5273 0.25391-1.5703 0.76172-1.1133 0.89062-0.67188z" fill="#ccc" fill-rule="evenodd"/>
<path d="m203.72 245.21 0.15625 0.16406 0.86328 0.91406 0.73828 1.1758-1.3633 0.59766 0.94141 1.1133 0.61719 1.2734 0.57031 1.332 0.13281 1.5156-0.1875 1.9961-0.5 1.1406-0.48047 0.95703-0.70312 2.4375 0.09375 2.5547-0.089843 1.8984 0.007812 1.2891-0.96875 1.3203-0.80078 0.76953-6.4062 4.9023-1.3672 1.3633-1.2656-0.78125-1.168-0.20703-1.0391 0.28906-0.72266-0.75-0.59375-0.84766-0.71094-0.92188-1.043-0.70312-0.74609-0.80078-0.89844-0.76172-0.62109-1.0117-0.49609-1.0586-0.53125-1.2031-0.59375-1.0742-1.0352-0.66406-1-0.16406-0.74219-0.84766-0.48438-0.88672-1.3125-0.40625-0.49609-1.1797-0.82812-0.57812 1.1836-1.125 1.5703-0.67969 0.058593-1.0859 1.1602-1.5352 0.84375-0.86328 1.4844-0.69531 1.6328-0.80859 1.3125 0.51562 0.74609 1.7734 0.83984 0.91406 1.2773 1.082 1.2969 0.34375 1.1523-0.19141 2.8633-2.0742 2.6602-2.4531 1.0156-2.0508 1.3008-1.5273 0.25391-1.5703 0.76172-1.1133 0.89062-0.67188 0.76953-0.33984" fill="none" stroke="#fff" stroke-linecap="round" stroke-linejoin="round" stroke-miterlimit="10" stroke-width="2"/>
<path d="m150.93 291.79 0.23828 0.12891 0.75 0.85547 1.0625 1.1992 0.92969 1.1992 0.74219 1.0781 1.2227 0.73438 1.4102 0.15234 1.2305 0.10547 1.543-0.44922 1.1641-1.0664 0.86719 0.71875 2.3008 2.4414 0.86328 0.85156 0.42578 1 0.44922 1.0195 0.72656 0.90625 0.98047 0.58984 1.1445-0.19922 1.1445-0.11719 0.94531-0.39453 1.0273-0.53906 1.2422-0.58203 0.75-0.88672 0.59766-1.2617 1.2539-0.09375 0.78516 0.80859 1.2812 0.82422 0.78906 0.92969 0.66797 1.8867 0.39844 0.95312 1.1523 1.4414 1.1016 0.95312 0.73828 1.207 1.9883 1.8438-0.77344 0.78906-0.73828 0.71094-0.88281 0.875-0.71484 0.70312-1.0117 0.46094-0.88672 0.60156-0.91406 0.93359-0.76562 0.69531-0.62891 0.91016-0.82031 0.75781-1.0273 0.49609-0.80469 0.625-1.0352 0.67578-1.5508-0.51172-0.98828-0.17969-1.0508-0.23828-0.59766-0.92969-0.085937-1.1094-0.085938-1.8516-0.19922-1.6523-0.58203-1.0703-0.89062-0.625-1.1328-0.34375-1.0312 0.10547-0.98047 0.37891-0.99609 0.68359-1.1328 0.3125-1.1875 0.15234-1.168-0.41406-0.55859-1.0742-0.19922-1.6758-0.45703-1.6602-0.92969-0.94531-1.0742-1.1133-1.0742-1.0938-0.61328-1.4492-0.4375-0.97266-0.78125-1.7266-0.56641-0.98047-0.67578-0.76953-1.1836-1.2773-0.65625-1.1992-0.50391-1.2578 0.046875-2.1953z" fill="#ccc" fill-rule="evenodd"/>
<path d="m150.93 291.79 0.23828 0.12891 0.75 0.85547 1.0625 1.1992 0.92969 1.1992 0.74219 1.0781 1.2227 0.73438 1.4102 0.15234 1.2305 0.10547 1.543-0.44922 1.1641-1.0664 0.86719 0.71875 2.3008 2.4414 0.86328 0.85156 0.42578 1 0.44922 1.0195 0.72656 0.90625 0.98047 0.58984 1.1445-0.19922 1.1445-0.11719 0.94531-0.39453 1.0273-0.53906 1.2422-0.58203 0.75-0.88672 0.59766-1.2617 1.2539-0.09375 0.78516 0.80859 1.2812 0.82422 0.78906 0.92969 0.66797 1.8867 0.39844 0.95312 1.1523 1.4414 1.1016 0.95312 0.73828 1.207 1.9883 1.8438-0.77344 0.78906-0.73828 0.71094-0.88281 0.875-0.71484 0.70312-1.0117 0.46094-0.88672 0.60156-0.91406 0.93359-0.76562 0.69531-0.62891 0.91016-0.82031 0.75781-1.0273 0.49609-0.80469 0.625-1.0352 0.67578-1.5508-0.51172-0.98828-0.17969-1.0508-0.23828-0.59766-0.92969-0.085937-1.1094-0.085938-1.8516-0.19922-1.6523-0.58203-1.0703-0.89062-0.625-1.1328-0.34375-1.0312 0.10547-0.98047 0.37891-0.99609 0.68359-1.1328 0.3125-1.1875 0.15234-1.168-0.41406-0.55859-1.0742-0.19922-1.6758-0.45703-1.6602-0.92969-0.94531-1.0742-1.1133-1.0742-1.0938-0.61328-1.4492-0.4375-0.97266-0.78125-1.7266-0.56641-0.98047-0.67578-0.76953-1.1836-1.2773-0.65625-1.1992-0.50391-1.2578 0.046875-2.1953 0.41406-0.78906" fill="none" stroke="#fff" stroke-linecap="round" stroke-linejoin="round" stroke-miterlimit="10" stroke-width="2"/>
<path d="m195.24 274.04 0.027344 0.03125 0.67188 0.82422 1.1445 0.64453 0.99219 0.16797 0.92578 0.74219 0.20312 1.0547 1.0273 1.6953 1.0234 0.60547 0.8125 0.78516 0.38281 1.1523 0.92578 1.6719 0.51172 1.1797-0.10547 1.0859 0.25781 1.0547 1.2109 1.2422 1.2148 0.039062 1.1367 0.55078 0.15625 1.0977 0.88672 0.75 1.0703 0.41016 1.0078 0.61719 0.33203 1.2539 0.61328 1.4219 0.32812 1.0078-0.36719 1.0625-1.668 0.60547-1.3633-0.0625-1.7109 0.92969-1.0859 0.44141-6.3242 0.007812-0.67578 1.3477-0.28516 1.1055-0.50391 1.8203-0.26562 1.4414-0.94141 2.6484-0.56641 1.4023-0.40625 1.0508-1.7148 0.89844-3.207 0.023438-2.0391 0.50391-0.77344-0.63672-1.3945 0.035156-1.1602 0.066407-2.6836-1.6406-0.625-0.97266-0.77734-0.84375-1.2148-1.3164-0.77344-1.4219-0.42188-1.043-0.37891-1.1445-1.1562-0.875-1.1992-0.98047-0.73828-0.69531-1.0742 0.74609-0.57031 1.3008-1.8281 1.0664-1.0273 0.53906-0.94531 0.39453-1.1445 0.11719-1.1445 0.19922-0.98047-0.58984-0.72656-0.90625-0.44922-1.0195-0.42578-1-0.86328-0.85156-1.5625-1.8594-1.6055-1.3008-0.41797-1.9023-0.55469-1.168 0.09375-1.4414 1.0117-0.78906 1.0664 0.10156 0.98047 1.0547 1.0352 0.96484 0.875 1.2148 1.0312 0.14844 1.4609-0.74219 0.089844-1.2305-0.58594-1.0352-0.33203-1.9336 0.66016-1.082 0.88672-0.56641 1.0078 0.21484 2.8047-2.4648 1.3633-1.6289 1.1094-1.2578 1.3281-1.4609 0.75-2.1094 1.1719 0.60938 1.1797 0.37891 1.3047 0.16797 1.3867 0.37109 1.1016 0.41016 1.8398 1.1367 0.96094 0.60547 2.0391 0.023437 1.3672-0.74609 1.5742-1.3125 1.9414-3.1523 0.75781-1.2539 1.457-1.9258z" fill="#ccc" fill-rule="evenodd"/>
<path d="m195.24 274.04 0.027344 0.03125 0.67188 0.82422 1.1445 0.64453 0.99219 0.16797 0.92578 0.74219 0.20312 1.0547 1.0273 1.6953 1.0234 0.60547 0.8125 0.78516 0.38281 1.1523 0.92578 1.6719 0.51172 1.1797-0.10547 1.0859 0.25781 1.0547 1.2109 1.2422 1.2148 0.039062 1.1367 0.55078 0.15625 1.0977 0.88672 0.75 1.0703 0.41016 1.0078 0.61719 0.33203 1.2539 0.61328 1.4219 0.32812 1.0078-0.36719 1.0625-1.668 0.60547-1.3633-0.0625-1.7109 0.92969-1.0859 0.44141-6.3242 0.007812-0.67578 1.3477-0.28516 1.1055-0.50391 1.8203-0.26562 1.4414-0.94141 2.6484-0.56641 1.4023-0.40625 1.0508-1.7148 0.89844-3.207 0.023438-2.0391 0.50391-0.77344-0.63672-1.3945 0.035156-1.1602 0.066407-2.6836-1.6406-0.625-0.97266-0.77734-0.84375-1.2148-1.3164-0.77344-1.4219-0.42188-1.043-0.37891-1.1445-1.1562-0.875-1.1992-0.98047-0.73828-0.69531-1.0742 0.74609-0.57031 1.3008-1.8281 1.0664-1.0273 0.53906-0.94531 0.39453-1.1445 0.11719-1.1445 0.19922-0.98047-0.58984-0.72656-0.90625-0.44922-1.0195-0.42578-1-0.86328-0.85156-1.5625-1.8594-1.6055-1.3008-0.41797-1.9023-0.55469-1.168 0.09375-1.4414 1.0117-0.78906 1.0664 0.10156 0.98047 1.0547 1.0352 0.96484 0.875 1.2148 1.0312 0.14844 1.4609-0.74219 0.089844-1.2305-0.58594-1.0352-0.33203-1.9336 0.66016-1.082 0.88672-0.56641 1.0078 0.21484 2.8047-2.4648 1.3633-1.6289 1.1094-1.2578 1.3281-1.4609 0.75-2.1094 1.1719 0.60938 1.1797 0.37891 1.3047 0.16797 1.3867 0.37109 1.1016 0.41016 1.8398 1.1367 0.96094 0.60547 2.0391 0.023437 1.3672-0.74609 1.5742-1.3125 1.9414-3.1523 0.75781-1.2539 1.457-1.9258 0.26562 0.12109" fill="none" stroke="#fff" stroke-linecap="round" stroke-linejoin="round" stroke-miterlimit="10" stroke-width="2"/>
<path d="m150.73 266.03 0.69531 0.29688 0.92969 0.52344 0.89844 0.44922 0.79688 0.66016 1.2266 1.7188 0.70312 1.0391 1.4844 1.5391 1.207 0.66406 1.1797-0.058594 1.5781-0.36719 1.4883-0.36328 0.93359-0.35938 1.0703-0.75 1.3516-1.3047 1.1953-0.45312 0.75 1.0117 0.054688 1.1094 0.050781 1.7109 0.70312 1.6016 0.69531 0.90234 1.5312 1.6523 1.4062 0.73828 1.2812 0.30859 1.293 0.23438 1.6562 0.074219-0.5 1.6406-1.5781 1.9297-1.1094 1.2578-1.3633 1.6289-1.8477 2.4219-1.168-0.015625-1.0781-0.28125-0.99609 1.0781-0.28906 1.75 0.73438 1.3789 0.23438 1.1602-0.73828 0.97656-1.3125 0.4375-0.98438-0.74219-1.4883-1.6523-0.75-0.85547-1.0273-0.40625-1.0156 0.66016-0.49219 1.0391 0.6875 1.8047 0.3125 1.2539-1.0586 1.7148-1.543 0.44922-1.2305-0.10547-1.4102-0.15234-1.2227-0.73438-0.74219-1.0781-0.92969-1.1992-1.0625-1.1992-0.75-0.85547-0.61328-1.0039 0.75-1.2578 0.51953-0.95703-1.1055-0.34766-1.3203 0.52344-1.7539-0.027344-1.7539-0.03125-0.89844 0.50781-0.99609 0.49609-1.1367 0.14453-1.043 0.1875-1.0039 0.42578-0.80078 0.625-0.86328 1.4961-0.16016 1.2266-0.35156 1.2969-0.40234 1.5859-0.51172 1.2617-1.3477 0.50391-2.6133-0.85547-1.1641-0.91406-1.1367-1.4492-0.60156-1.375-0.18359-2.9453-0.47656-2.1445-1.457-1.5039-2.1953-1.3164-1.4375-0.78906-1.4375-0.83203 1.5156-0.32031 2.1328-0.18359 3.2305-0.55469 2.5312-0.66406 1.1992-0.83203 0.23438-1.1836 0.15234-1.082 0.50391-0.89062 1.5117-0.45312 0.94922-0.90234 1.543-0.38672 1.1562 0.070312 1.4766-0.83203 0.89453-1.2617 0.39453-1.5273 0.58203-0.86328 1.2539-0.10156 1.3555-0.16406 0.21484-1.3555-0.11719-1.3633-0.26172-1.5 0.41797-0.94531 1.2578-0.25 1.1602-0.33594 1.1953-0.60156z" fill="#ccc" fill-rule="evenodd"/>
<path d="m150.73 266.03 0.69531 0.29688 0.92969 0.52344 0.89844 0.44922 0.79688 0.66016 1.2266 1.7188 0.70312 1.0391 1.4844 1.5391 1.207 0.66406 1.1797-0.058594 1.5781-0.36719 1.4883-0.36328 0.93359-0.35938 1.0703-0.75 1.3516-1.3047 1.1953-0.45312 0.75 1.0117 0.054688 1.1094 0.050781 1.7109 0.70312 1.6016 0.69531 0.90234 1.5312 1.6523 1.4062 0.73828 1.2812 0.30859 1.293 0.23438 1.6562 0.074219-0.5 1.6406-1.5781 1.9297-1.1094 1.2578-1.3633 1.6289-1.8477 2.4219-1.168-0.015625-1.0781-0.28125-0.99609 1.0781-0.28906 1.75 0.73438 1.3789 0.23438 1.1602-0.73828 0.97656-1.3125 0.4375-0.98438-0.74219-1.4883-1.6523-0.75-0.85547-1.0273-0.40625-1.0156 0.66016-0.49219 1.0391 0.6875 1.8047 0.3125 1.2539-1.0586 1.7148-1.543 0.44922-1.2305-0.10547-1.4102-0.15234-1.2227-0.73438-0.74219-1.0781-0.92969-1.1992-1.0625-1.1992-0.75-0.85547-0.61328-1.0039 0.75-1.2578 0.51953-0.95703-1.1055-0.34766-1.3203 0.52344-1.7539-0.027344-1.7539-0.03125-0.89844 0.50781-0.99609 0.49609-1.1367 0.14453-1.043 0.1875-1.0039 0.42578-0.80078 0.625-0.86328 1.4961-0.16016 1.2266-0.35156 1.2969-0.40234 1.5859-0.51172 1.2617-1.3477 0.50391-2.6133-0.85547-1.1641-0.91406-1.1367-1.4492-0.60156-1.375-0.18359-2.9453-0.47656-2.1445-1.457-1.5039-2.1953-1.3164-1.4375-0.78906-1.4375-0.83203 1.5156-0.32031 2.1328-0.18359 3.2305-0.55469 2.5312-0.66406 1.1992-0.83203 0.23438-1.1836 0.15234-1.082 0.50391-0.89062 1.5117-0.45312 0.94922-0.90234 1.543-0.38672 1.1562 0.070312 1.4766-0.83203 0.89453-1.2617 0.39453-1.5273 0.58203-0.86328 1.2539-0.10156 1.3555-0.16406 0.21484-1.3555-0.11719-1.3633-0.26172-1.5 0.41797-0.94531 1.2578-0.25 1.1602-0.33594 1.1953-0.60156 0.57031 0.070312" fill="none" stroke="#fff" stroke-linecap="round" stroke-linejoin="round" stroke-miterlimit="10" stroke-width="2"/>
<path d="m397.45 64.617h0.003906l1.0625 0.3125 1.4766-0.21094 1.3594 0.21875 1.707 1.2109 0.96094 0.69922 0.95312 0.50391 1.1484 0.71875 1.4766 0.95703 1.4258 0.19922 1.5117 0.10938 1.0195 0.33984 1.0391 0.18359 1.3008 0.74219 1.7656 1.0859 1.0273 0.97656 1.2539 1.0312 1.1562 0.57812 0.85547 0.76562 0.027344 1.2305 0.3125 0.95703 1.7031 0.92969 1.7812 0.89453 1.7148 0.62109 1.1836 0.53516 0.55469 1.2266 0.89453 0.53516 2.0625-0.0625 1.0859 0.082031 1.0586 0.69141 1.1562 1.2969 0.33594 1.4922 0.42188 1.1055 0.57422 0.92188 1.0859 0.86719 0.98438 0.63672 1.25-0.60938 1.7852-0.074219 1.1641 0.70703 1.082 1.7383 0.82031 0.62891 2.3594 1.7383 1.0781 1.4688 0.78516 0.85156 1.2227-0.089844 2.2422-0.58594 1.2227-0.09375 0.88281 0.58594 0.61328 1.832 0.57422 1.0117 1.0938 0.18359 1.2227-0.13672 2.2148 0.11719 1.0859 0.48047 1.4727 1.75 0.89062 0.94531 0.57031 0.89844 1.5078 0.61328 1.6953-0.15234 1.9414-1.4961 1.5234 0.38281 1.5156-0.20312 1.0859-0.50781 0.82031-0.89453 1.1289 0.22656 1.2812 1.0156 0.64453 1.168 0.011719 1.1328 0.13672 1.5547 0.35938 1.7109 1.2695-0.17578 1.2891-1.4141 1.0859 0.16406 1.4023-0.054687 0.77344-0.67578 1.2227-0.86719 2.4453 0.26172 1.8984 0.25391 1.1875 0.078125 1.1602 0.19531 2.1641 1.6914 1.0586 0.69531 1.0703 0.50781 0.88281 0.65234 0.34766 1.9766-0.17969 1.7188 0.16406 0.98438-0.30078 2.25-0.5 1.2852-0.26172 1.5117 0.98438 1.3984 0.55078 1.0352 0.75 1.7148 0.1875 1.3984 0.046875 1.7461 0.050781 1.1016 0.097657 1.4805 0.96484 0.38281 0.90234 1.2891 0.10938 1.2812-0.17578 1.0508-0.78516 1.3711-0.66406 1.0508-1.25 0.6875-0.92578 0.40234-1.6953 0.15234-0.73438 1.3828-1.3438 0.83984-0.99219 0.58594-1.125 1.168-0.51172 1.1016-0.57422 1.3672-0.50781 1.3242-0.44531 1.332-0.23438 1.25 0.074219 1.5898-0.18359 1.2109-0.42188 1.0234-0.31641 1.3047-0.29297 1.2188-0.13672 1.5039-1.0469 0.27344-0.94531-0.58203-1.7266 0.29297-1.7305 0.62109-1.1367 0.48438-1.3281 0.28906-1.0234 0.054688-1.0312 0.51562-1.0586 0.55469-0.61328 1.2461-0.23828 1.5859-0.33984 1.3984-0.375 1.3984-1.4961 1.3477-1.2812 0.55078-0.66406 1.1406-0.097656 1.3633 0.035156 1.4961 0.19531 2.0898-0.33984 1.0586-1.1445 1.082-0.47656 1.1328 0.37109 1.2227 0.99609 1.7773 0.68359 1.9727 0.23047 1.0742 0.71094 1.2539 0.26172 1.2695 0.53516 1.125 1.4609 0.96094-1.2188 0.60938-1.2539 0.51562-1.0586 0.32812-1.5312 0.015625-1.457 0.45312-1.6562 0.14453-1.1484 0.20312-1.3477-0.18359-1.457 0.15234-1.5859 0.17578-1.3555-0.34375-1.4922 0.33984-1.0469-0.007812-1.3164-0.089844-1.5508-0.89453-1.4844-0.39062-1.1445-0.33203-1.6523-0.24609-1.6094 0.18359-1.3477 0.54688-1.8906 0.53125-1.7031 0.58984-1.2812 0.17188-1.082 0.18359-1.0195-0.75-1.1719-1.2148-1.5391 0.73047-0.87109 0.54297-0.84766 1.3633-0.42578 1.4805-0.71875 0.89062-1.1211 0.52734-1.8867 0.48047-2.2227 0.34766-1.3359 0.15234-0.89062 0.52734-1.7227 0.39062-1.0156-0.23828-0.90234 0.66016 0.60938 1.7148 0.11719 1.1094 0.76172 0.77344 0.83203 0.6875 1.1523 0.60938 0.79688 0.61328 1.2852 0.74219 1.3047 1.4219 0.4375 1.4961 0.30859 0.98438 1.1484 1.4219 0.4375 0.9375-1.0391 0.09375-0.71875 0.77344-0.57422 1.1211-1.1133 1.5234-0.96484 1.1016-0.80078 0.71484-1.168 0.44141-0.94531 0.51953-0.73047 0.70703-0.86328 1.2891-0.8125 1.3242-1.4609 1.2031-0.94141 1.2148-0.25391 1.3242-1.1016 1.2773-1.3438 0.98047-1.5312 0.38281-1.2188 0.80469-0.11328 1.125 0.33594 1.6523-0.28125 1.1797-0.60938 0.99609-1.5664-0.20703-1.1094-0.58594-1.1602-0.44141-1.1953-0.50391-1.5391 0.019531-2.0273 0.078125-1.4453 0.12109-1.4961 0.47266-0.91016 0.80859-0.71875 0.99609-1.543 0.35156-1.1641-0.5-1.918-0.19922-1.3125-0.40625-0.62109-1.1562-0.46875-1.4414-0.60938-1.082-0.95312-1.1211-1.0469-0.48047-1.3047 0.61328-1.5117 0.40625-1.5625 0.12891-0.88281-0.74219-0.88672-1.5352-1.3242-1.5508-1.1914-1.0195-1.1406-0.47656-1.5195 0.5625-0.89844 0.85938-0.28125 0.97266-0.38672 2.5-0.65625 1.2656-0.72266 0.91797-0.78906 1.0938-1.8047 0.65234-1.5234 0.37891-1.1797-0.79688-0.91797-1.582-0.69531-0.75391-1.0547-0.99219-0.77344-0.75-0.21484-1.3086-1.0547-1.2461-0.72656-0.71094-0.62891-0.97266-1.3594-0.8125-0.87109-0.58203-1.1797-1.332-0.57422-0.89062-1.4453-1.1445-0.69922-1.1992-0.65625-2.8633-0.33594-1.7656 0.10938-1.5156 0.82812-0.72266 1.2852-0.10547 1.3164-1.043 1.4258-0.85547 0.76172-0.79297 0.1875-1.2578 0.16406-1.4766 1.125-1.6445 0.31641-1.4258 0.59375-0.95312 1.4141-1.0312 2.4805-1.2031 1.1094-0.49219 1.1875 0.22656 1.3047 0.80078 1.3906 0.4375 1.0781-0.60156 0.28125-2.0977-0.375-1.8398-0.11719-1.7773 0.95703-1.7227 0.6875-1.1445 0.35156-1.0742-0.39453-1.3125-0.36328-1.1094 0.40625-1.6992 0.76953-1.2461 0.70312-1.5039 0.61328-1.3828 0.66797-1.5508 1.0156-2.0312 0.5-1.2383 0.44141-1.0234 0.38672-1.0156 1.0391-1.5547 1.2578-1.8555 0.38672-1.0117 0.10156-1.1719-0.10547-1.8125-0.078125-1.0742 0.058594-1.3047-0.19531-1.3125-0.042968-1.0078-0.66797-1.2344-0.84766-1.7227 0.26562-1.5352 0.39453-1.1094 0.97266-1.2891 1.4609-1.0273-0.003907-1.6445 0.85547-0.90234 2.0195-0.035156 1.7227-0.082031 1.4102 0.34375 0.96484-0.41406 1.043-0.54297 1.7188-0.46484 0.87109-1.0078 1.5664-0.58984 1.1094 0.21484 1.3789 0.80469 1.4375 0.91797 0.90625 0.55078 1.543 0.12891 1.707-0.52344 1.0156-0.17578 1.1797-2.1562 1.7148-0.65234 1.0117-0.78125 1.1562-0.44531 0.87109-0.60938 0.88672-1.1562 0.66797-1.0977v-1.1875l-1.0547-0.67969-0.32812-0.97656 0.69141-0.80078 1.8672-1.5312 0.98438-0.91406 0.71484-0.90625 0.50781-1.6562-0.25781-1.3555-1.6094-1.2578-1.2891-0.78125-1 0.47656-1.2109 0.089844-1.0078 0.33984-0.97266 0.81641-1.6406-0.61328-1.4375-1.168-0.5-1.0859-0.33984-1.0312-0.15625-1.3125-0.089843-1.8555-0.23828-1.0195 0.17969-1.5273 0.30078-1.3203-1.0234-1.6016-0.035157-1.7773-0.078125-1.9375-0.16016-1.0273 0.011719-2.1094-0.45312-2.5664-0.17969-1.3945-0.16016-1.1641-0.29297-1.3164-0.035156-2.0703 0.12109-1.207-0.11328-2.6875-0.89453-1.0312-1.3359-0.32422-1.875 0.13672-0.77734-0.76172 0.19922-1.2695 1.0742-1.3828 0.92969-1.0078 0.19141-1.1094-0.47656-1.9688-0.21484-2.0586-0.63281-0.86328-0.99609-0.48438-0.92969-0.48828-1.8555-0.14844-1.0312-0.042968-1.2461-0.14844-1.4453-0.60547-1.293-0.73047-2.125-2.375 0.019531-1.1602-0.59766-2.3828 1.7773-1.1445 1.0547-0.49609 0.89453-0.53125 0.79297-1.3789 0.66016-1.0703 1.1562-2.5938 0.59375-2.1406 0.71094-1.2031z" fill="#ccc" fill-rule="evenodd"/>
<path d="m397.45 64.617h0.003906l1.0625 0.3125 1.4766-0.21094 1.3594 0.21875 1.707 1.2109 0.96094 0.69922 0.95312 0.50391 1.1484 0.71875 1.4766 0.95703 1.4258 0.19922 1.5117 0.10938 1.0195 0.33984 1.0391 0.18359 1.3008 0.74219 1.7656 1.0859 1.0273 0.97656 1.2539 1.0312 1.1562 0.57812 0.85547 0.76562 0.027344 1.2305 0.3125 0.95703 1.7031 0.92969 1.7812 0.89453 1.7148 0.62109 1.1836 0.53516 0.55469 1.2266 0.89453 0.53516 2.0625-0.0625 1.0859 0.082031 1.0586 0.69141 1.1562 1.2969 0.33594 1.4922 0.42188 1.1055 0.57422 0.92188 1.0859 0.86719 0.98438 0.63672 1.25-0.60938 1.7852-0.074219 1.1641 0.70703 1.082 1.7383 0.82031 0.62891 2.3594 1.7383 1.0781 1.4688 0.78516 0.85156 1.2227-0.089844 2.2422-0.58594 1.2227-0.09375 0.88281 0.58594 0.61328 1.832 0.57422 1.0117 1.0938 0.18359 1.2227-0.13672 2.2148 0.11719 1.0859 0.48047 1.4727 1.75 0.89062 0.94531 0.57031 0.89844 1.5078 0.61328 1.6953-0.15234 1.9414-1.4961 1.5234 0.38281 1.5156-0.20312 1.0859-0.50781 0.82031-0.89453 1.1289 0.22656 1.2812 1.0156 0.64453 1.168 0.011719 1.1328 0.13672 1.5547 0.35938 1.7109 1.2695-0.17578 1.2891-1.4141 1.0859 0.16406 1.4023-0.054687 0.77344-0.67578 1.2227-0.86719 2.4453 0.26172 1.8984 0.25391 1.1875 0.078125 1.1602 0.19531 2.1641 1.6914 1.0586 0.69531 1.0703 0.50781 0.88281 0.65234 0.34766 1.9766-0.17969 1.7188 0.16406 0.98438-0.30078 2.25-0.5 1.2852-0.26172 1.5117 0.98438 1.3984 0.55078 1.0352 0.75 1.7148 0.1875 1.3984 0.046875 1.7461 0.050781 1.1016 0.097657 1.4805 0.96484 0.38281 0.90234 1.2891 0.10938 1.2812-0.17578 1.0508-0.78516 1.3711-0.66406 1.0508-1.25 0.6875-0.92578 0.40234-1.6953 0.15234-0.73438 1.3828-1.3438 0.83984-0.99219 0.58594-1.125 1.168-0.51172 1.1016-0.57422 1.3672-0.50781 1.3242-0.44531 1.332-0.23438 1.25 0.074219 1.5898-0.18359 1.2109-0.42188 1.0234-0.31641 1.3047-0.29297 1.2188-0.13672 1.5039-1.0469 0.27344-0.94531-0.58203-1.7266 0.29297-1.7305 0.62109-1.1367 0.48438-1.3281 0.28906-1.0234 0.054688-1.0312 0.51562-1.0586 0.55469-0.61328 1.2461-0.23828 1.5859-0.33984 1.3984-0.375 1.3984-1.4961 1.3477-1.2812 0.55078-0.66406 1.1406-0.097656 1.3633 0.035156 1.4961 0.19531 2.0898-0.33984 1.0586-1.1445 1.082-0.47656 1.1328 0.37109 1.2227 0.99609 1.7773 0.68359 1.9727 0.23047 1.0742 0.71094 1.2539 0.26172 1.2695 0.53516 1.125 1.4609 0.96094-1.2188 0.60938-1.2539 0.51562-1.0586 0.32812-1.5312 0.015625-1.457 0.45312-1.6562 0.14453-1.1484 0.20312-1.3477-0.18359-1.457 0.15234-1.5859 0.17578-1.3555-0.34375-1.4922 0.33984-1.0469-0.007812-1.3164-0.089844-1.5508-0.89453-1.4844-0.39062-1.1445-0.33203-1.6523-0.24609-1.6094 0.18359-1.3477 0.54688-1.8906 0.53125-1.7031 0.58984-1.2812 0.17188-1.082 0.18359-1.0195-0.75-1.1719-1.2148-1.5391 0.73047-0.87109 0.54297-0.84766 1.3633-0.42578 1.4805-0.71875 0.89062-1.1211 0.52734-1.8867 0.48047-2.2227 0.34766-1.3359 0.15234-0.89062 0.52734-1.7227 0.39062-1.0156-0.23828-0.90234 0.66016 0.60938 1.7148 0.11719 1.1094 0.76172 0.77344 0.83203 0.6875 1.1523 0.60938 0.79688 0.61328 1.2852 0.74219 1.3047 1.4219 0.4375 1.4961 0.30859 0.98438 1.1484 1.4219 0.4375 0.9375-1.0391 0.09375-0.71875 0.77344-0.57422 1.1211-1.1133 1.5234-0.96484 1.1016-0.80078 0.71484-1.168 0.44141-0.94531 0.51953-0.73047 0.70703-0.86328 1.2891-0.8125 1.3242-1.4609 1.2031-0.94141 1.2148-0.25391 1.3242-1.1016 1.2773-1.3438 0.98047-1.5312 0.38281-1.2188 0.80469-0.11328 1.125 0.33594 1.6523-0.28125 1.1797-0.60938 0.99609-1.5664-0.20703-1.1094-0.58594-1.1602-0.44141-1.1953-0.50391-1.5391 0.019531-2.0273 0.078125-1.4453 0.12109-1.4961 0.47266-0.91016 0.80859-0.71875 0.99609-1.543 0.35156-1.1641-0.5-1.918-0.19922-1.3125-0.40625-0.62109-1.1562-0.46875-1.4414-0.60938-1.082-0.95312-1.1211-1.0469-0.48047-1.3047 0.61328-1.5117 0.40625-1.5625 0.12891-0.88281-0.74219-0.88672-1.5352-1.3242-1.5508-1.1914-1.0195-1.1406-0.47656-1.5195 0.5625-0.89844 0.85938-0.28125 0.97266-0.38672 2.5-0.65625 1.2656-0.72266 0.91797-0.78906 1.0938-1.8047 0.65234-1.5234 0.37891-1.1797-0.79688-0.91797-1.582-0.69531-0.75391-1.0547-0.99219-0.77344-0.75-0.21484-1.3086-1.0547-1.2461-0.72656-0.71094-0.62891-0.97266-1.3594-0.8125-0.87109-0.58203-1.1797-1.332-0.57422-0.89062-1.4453-1.1445-0.69922-1.1992-0.65625-2.8633-0.33594-1.7656 0.10938-1.5156 0.82812-0.72266 1.2852-0.10547 1.3164-1.043 1.4258-0.85547 0.76172-0.79297 0.1875-1.2578 0.16406-1.4766 1.125-1.6445 0.31641-1.4258 0.59375-0.95312 1.4141-1.0312 2.4805-1.2031 1.1094-0.49219 1.1875 0.22656 1.3047 0.80078 1.3906 0.4375 1.0781-0.60156 0.28125-2.0977-0.375-1.8398-0.11719-1.7773 0.95703-1.7227 0.6875-1.1445 0.35156-1.0742-0.39453-1.3125-0.36328-1.1094 0.40625-1.6992 0.76953-1.2461 0.70312-1.5039 0.61328-1.3828 0.66797-1.5508 1.0156-2.0312 0.5-1.2383 0.44141-1.0234 0.38672-1.0156 1.0391-1.5547 1.2578-1.8555 0.38672-1.0117 0.10156-1.1719-0.10547-1.8125-0.078125-1.0742 0.058594-1.3047-0.19531-1.3125-0.042968-1.0078-0.66797-1.2344-0.84766-1.7227 0.26562-1.5352 0.39453-1.1094 0.97266-1.2891 1.4609-1.0273-0.003907-1.6445 0.85547-0.90234 2.0195-0.035156 1.7227-0.082031 1.4102 0.34375 0.96484-0.41406 1.043-0.54297 1.7188-0.46484 0.87109-1.0078 1.5664-0.58984 1.1094 0.21484 1.3789 0.80469 1.4375 0.91797 0.90625 0.55078 1.543 0.12891 1.707-0.52344 1.0156-0.17578 1.1797-2.1562 1.7148-0.65234 1.0117-0.78125 1.1562-0.44531 0.87109-0.60938 0.88672-1.1562 0.66797-1.0977v-1.1875l-1.0547-0.67969-0.32812-0.97656 0.69141-0.80078 1.8672-1.5312 0.98438-0.91406 0.71484-0.90625 0.50781-1.6562-0.25781-1.3555-1.6094-1.2578-1.2891-0.78125-1 0.47656-1.2109 0.089844-1.0078 0.33984-0.97266 0.81641-1.6406-0.61328-1.4375-1.168-0.5-1.0859-0.33984-1.0312-0.15625-1.3125-0.089843-1.8555-0.23828-1.0195 0.17969-1.5273 0.30078-1.3203-1.0234-1.6016-0.035157-1.7773-0.078125-1.9375-0.16016-1.0273 0.011719-2.1094-0.45312-2.5664-0.17969-1.3945-0.16016-1.1641-0.29297-1.3164-0.035156-2.0703 0.12109-1.207-0.11328-2.6875-0.89453-1.0312-1.3359-0.32422-1.875 0.13672-0.77734-0.76172 0.19922-1.2695 1.0742-1.3828 0.92969-1.0078 0.19141-1.1094-0.47656-1.9688-0.21484-2.0586-0.63281-0.86328-0.99609-0.48438-0.92969-0.48828-1.8555-0.14844-1.0312-0.042968-1.2461-0.14844-1.4453-0.60547-1.293-0.73047-2.125-2.375 0.019531-1.1602-0.59766-2.3828 1.7773-1.1445 1.0547-0.49609 0.89453-0.53125 0.79297-1.3789 0.66016-1.0703 1.1562-2.5938 0.59375-2.1406 0.71094-1.2031 0.87891-0.32031" fill="none" stroke="#fff" stroke-linecap="round" stroke-linejoin="round" stroke-miterlimit="10" stroke-width="2"/>
<path d="m111.62 303.72 0.59766 0.082032 0.43359 1.0039-0.66016 0.79688-0.91406 0.83594-0.66406 1.1602 0.11719 1.043 0.35938 1.1133 0.29688 0.96094-0.14453 1.0586 0.16797 1.1797 0.082031 1.0781-0.035156 1.0234 0.55859 0.92578 0.054688 1.4141-0.64453 0.79688 0.17578 1.0703 0.26562 1.0039 0.75 0.87891 0.29297 1.2578 0.44922 0.90234 0.73047 1.2148 0.57031 1.0469-0.60547 1.1562 0.32422 1.0117 0.57812 0.99609 0.11328 0.99609 0.085937 1.4883 0.8125 0.89453 0.875 0.49219 0.72656 0.74219 0.57031 0.90625 0.66016 0.84375 0.49219 1.0977 0.09375 1.1953 0.19922 0.99219 0.22266 1.0859 0.66406 0.91016-0.074219 1.1211 0.37891 1.1289 0.11719 1.2344-0.19922 1.0742-0.23047 1.2227-1.1055 0.16406-1.0078-0.19531-1.1602 0.46484-1.1211 0.17578-0.78516 0.87891-0.49609 1.1289-0.72656 0.80469-0.51562 1.0781-0.76953 1.1406-0.34766 0.98047 0.007812 1.3438 0.066407 1.4219 0.11328 1.1953-0.57422 0.96094-0.9375 0.87109-0.96094 0.58984-0.92969 0.48047-1.3906 0.92578-0.75 0.72656-0.59766 0.96484-0.78516 0.72656-1.0781 0.26562-1.1172 0.56641-1.4688 0.41406-1.0117 0.19922-1.3086 0.21094-1.2383 0.64844-0.95703 0.58203-1.1055 0.35938-0.88281 0.57031-1.1719-0.26953-1.2109 0.21875-1.3633 0.097657-0.80859 0.63281-0.83594 0.84375 0.22266 1.2148-0.13281 1.0039-0.71875 0.77734-1.0586 0.86328-0.78516 0.91016-0.79297 1.6328-0.63281 0.95703-0.92578 1-0.92969 0.55859-0.42969 0.90234-0.70703 1.5977-0.32031 1.0039 0.45312 0.96094-0.074218 1.2773 0.51172 1.2227 0.75391 1.1914 0.54297 0.88672 0.48438 0.95703 0.17969 1.1602 0.59766 0.84766-0.49609 1.1914-0.16797 0.98438-0.51562 0.92188-0.57422 0.84766-0.42188 1.1797-0.11719 0.99609-0.52734 1.5742-0.48828 0.88672 0.082032 1.0664 0.0625 1.125-1.2227 0.70312-0.99219 0.61719-0.64844-0.84766-1.3555-0.80859-1.332-0.48828-1.4102 0.10547-1.0234-0.15625-0.64062-1.0469-0.15234-1.5391-0.23438-1.3711-0.89844-0.53125-1.3477 0.35547-1.2266-1.1094-1.0898-1.3281-0.90234-0.57812-1.375-0.38281-1.0195-0.47266-0.69531-0.85938-1.5625-1.25-0.69531-1.0664-0.78516-0.84375-0.96094-0.5625-0.91797-0.42969-0.98438-0.21484-0.9375 0.375-0.66016-0.94922-1.0234-0.44922-0.23438-1.0273-0.35156-1.0781-0.28125-1-0.44141-1.6367-1.2852-0.41797-1.1211-0.14453-1.2305-0.17188-1.332-0.035156-1.418 0.71094-1.5234 0.53125-1.8828 0.074219-1.0469-0.11328-1.1523-0.18359-1.5859-0.82031-1.0078-0.11328-1.1758 0.039063-1.0234-0.33594-1.1562-1.2305-0.93359-0.57812-1.5664 0.53125-1.0352 0.14062-0.61328-1.6953 0.73047-0.83984 0.14062-1-0.59766-1.6133-0.69531-1.3516-0.89844-0.83984-1.3438-1.043-0.92969-0.57422-1.2617-0.96094-0.082031-1.4531 0.46484-0.92969 0.81641-0.79297 0.67188-0.75781-1.125-0.082031-1.0156-0.57422-1.1172-0.85156-1.0547-0.95703-0.85156-0.71484-1.4297-0.85938-1.168-0.57031-1.0977-0.55469-1.4492-0.91797-0.65625-1.1602-0.32031-1.2812-0.56641-1.1445-0.82812-0.92969-1.2188-0.95312-0.93359-0.56641-0.95312-0.39844-1.3633-0.74219-0.90625-0.59766-1.3125-0.90234-1.1641-0.48047-0.95312-0.41016-1.6211-0.58594-1.1445-0.28125h-1.1367l-1.5469 0.15625-0.10547-1.9805 0.59766-1.8711 0.77734-1.8438 0.88672-1.457 0.80078-0.74219 1.2383-0.10156 1.1875-0.31641 0.52734-0.97656 0.17188-1.2578 0.60938-1.4141-0.69141-0.99219-1.2148-0.71094-1.3438-0.87891-0.94531-0.67578-1.457-0.32812-0.87109-0.96875-1.1953-1.5352-1.4805-1.3555-1.0898-1 0.76562-0.83203 1.2461-0.69922 1.3789-0.38281 0.97266-0.64844 1.0078-0.60547 0.16406-1.2344-0.67188-1.2891-0.015625-1.2344 0.074219-1.1758-0.23828-1.5312-0.48047-1.043-0.6875-1.8008-0.30859-1.543 0.39844-1.1523h1.1602l1.6016-0.24609 1.3125-1.0195 0.95312-0.80859 1.3047-0.44141 1.4297 0.17188 1.2656-0.085937 1.0586 0.23438 1.293-0.19922 1.8945 0.11328 1.1914 0.035156 1.2344 0.03125 1.3516 0.44141 1.2617 0.92969 0.64453 0.89844 0.65625 0.84766 1.1953 1.0742 0.89844 0.44922 1.2734 0.50391 2.2812 0.75391 1.1562 0.15234 1.0039 0.13672 1.3203 0.22656 1.125 0.039062 1.5859 0.32031 1.0742 0.19141 1.1484-0.1875 1.7578-0.92188 1.5273-1.0156 1.2305-0.92188 0.24609-1.3828-0.14844-1.2344 0.60547-1.3555 1.1367-0.72266 1.332-0.50391 1.25-0.47266 2.0742-0.74219 1.2344-0.33984 1.9766-0.58203 2-0.74219 1.4531 0.22266 2.0586 0.32031 1.5234 0.21875 0.37891 0.98828 0.71484 0.8125 0.23438 1.1445-0.15234 1.2188 0.91406 0.8125 0.91797 0.87109 1.2969 0.61328 1.2656 0.38672 1.1836 0.35547 1.3711-0.070313 0.84375 0.57031 1.0195 0.65234 0.91797 0.61328 0.8125 0.87891 1.1055 0.69531 1-0.10156 1.1055 0.46484 0.95312 0.60938 1.0547 0.49219 0.99609 0.27734 1.2266 0.53516 1.2344 0.011719 1.5312 0.10156 1.1016-0.039063 1.0195-0.57422 1.4023-0.33594 0.92969-0.51172 1.6328-0.85938 1.0117-0.44922 0.65234-0.80859 0.82031-0.60156 1.0977-0.63281 1.0312-0.5625 1.207-0.93359 0.6875-0.85547 0.66016-0.79688 1.0586-0.58594 1.0938-0.32812 1.4453-0.24609 1.0312 0.36719 1.0234-0.17188 1.0469-0.57422 1.1016-0.066407 1.0195-0.089843 0.97266-0.42188 1.1445-0.074219 0.99609-0.95312 0.59375-0.96484 0.78906-0.74609 0.73438-0.99609 0.82031-0.89062 0.98047-0.625 0.95312-0.46094z" fill="#ccc" fill-rule="evenodd"/>
<path d="m111.62 303.72 0.59766 0.082032 0.43359 1.0039-0.66016 0.79688-0.91406 0.83594-0.66406 1.1602 0.11719 1.043 0.35938 1.1133 0.29688 0.96094-0.14453 1.0586 0.16797 1.1797 0.082031 1.0781-0.035156 1.0234 0.55859 0.92578 0.054688 1.4141-0.64453 0.79688 0.17578 1.0703 0.26562 1.0039 0.75 0.87891 0.29297 1.2578 0.44922 0.90234 0.73047 1.2148 0.57031 1.0469-0.60547 1.1562 0.32422 1.0117 0.57812 0.99609 0.11328 0.99609 0.085937 1.4883 0.8125 0.89453 0.875 0.49219 0.72656 0.74219 0.57031 0.90625 0.66016 0.84375 0.49219 1.0977 0.09375 1.1953 0.19922 0.99219 0.22266 1.0859 0.66406 0.91016-0.074219 1.1211 0.37891 1.1289 0.11719 1.2344-0.19922 1.0742-0.23047 1.2227-1.1055 0.16406-1.0078-0.19531-1.1602 0.46484-1.1211 0.17578-0.78516 0.87891-0.49609 1.1289-0.72656 0.80469-0.51562 1.0781-0.76953 1.1406-0.34766 0.98047 0.007812 1.3438 0.066407 1.4219 0.11328 1.1953-0.57422 0.96094-0.9375 0.87109-0.96094 0.58984-0.92969 0.48047-1.3906 0.92578-0.75 0.72656-0.59766 0.96484-0.78516 0.72656-1.0781 0.26562-1.1172 0.56641-1.4688 0.41406-1.0117 0.19922-1.3086 0.21094-1.2383 0.64844-0.95703 0.58203-1.1055 0.35938-0.88281 0.57031-1.1719-0.26953-1.2109 0.21875-1.3633 0.097657-0.80859 0.63281-0.83594 0.84375 0.22266 1.2148-0.13281 1.0039-0.71875 0.77734-1.0586 0.86328-0.78516 0.91016-0.79297 1.6328-0.63281 0.95703-0.92578 1-0.92969 0.55859-0.42969 0.90234-0.70703 1.5977-0.32031 1.0039 0.45312 0.96094-0.074218 1.2773 0.51172 1.2227 0.75391 1.1914 0.54297 0.88672 0.48438 0.95703 0.17969 1.1602 0.59766 0.84766-0.49609 1.1914-0.16797 0.98438-0.51562 0.92188-0.57422 0.84766-0.42188 1.1797-0.11719 0.99609-0.52734 1.5742-0.48828 0.88672 0.082032 1.0664 0.0625 1.125-1.2227 0.70312-0.99219 0.61719-0.64844-0.84766-1.3555-0.80859-1.332-0.48828-1.4102 0.10547-1.0234-0.15625-0.64062-1.0469-0.15234-1.5391-0.23438-1.3711-0.89844-0.53125-1.3477 0.35547-1.2266-1.1094-1.0898-1.3281-0.90234-0.57812-1.375-0.38281-1.0195-0.47266-0.69531-0.85938-1.5625-1.25-0.69531-1.0664-0.78516-0.84375-0.96094-0.5625-0.91797-0.42969-0.98438-0.21484-0.9375 0.375-0.66016-0.94922-1.0234-0.44922-0.23438-1.0273-0.35156-1.0781-0.28125-1-0.44141-1.6367-1.2852-0.41797-1.1211-0.14453-1.2305-0.17188-1.332-0.035156-1.418 0.71094-1.5234 0.53125-1.8828 0.074219-1.0469-0.11328-1.1523-0.18359-1.5859-0.82031-1.0078-0.11328-1.1758 0.039063-1.0234-0.33594-1.1562-1.2305-0.93359-0.57812-1.5664 0.53125-1.0352 0.14062-0.61328-1.6953 0.73047-0.83984 0.14062-1-0.59766-1.6133-0.69531-1.3516-0.89844-0.83984-1.3438-1.043-0.92969-0.57422-1.2617-0.96094-0.082031-1.4531 0.46484-0.92969 0.81641-0.79297 0.67188-0.75781-1.125-0.082031-1.0156-0.57422-1.1172-0.85156-1.0547-0.95703-0.85156-0.71484-1.4297-0.85938-1.168-0.57031-1.0977-0.55469-1.4492-0.91797-0.65625-1.1602-0.32031-1.2812-0.56641-1.1445-0.82812-0.92969-1.2188-0.95312-0.93359-0.56641-0.95312-0.39844-1.3633-0.74219-0.90625-0.59766-1.3125-0.90234-1.1641-0.48047-0.95312-0.41016-1.6211-0.58594-1.1445-0.28125h-1.1367l-1.5469 0.15625-0.10547-1.9805 0.59766-1.8711 0.77734-1.8438 0.88672-1.457 0.80078-0.74219 1.2383-0.10156 1.1875-0.31641 0.52734-0.97656 0.17188-1.2578 0.60938-1.4141-0.69141-0.99219-1.2148-0.71094-1.3438-0.87891-0.94531-0.67578-1.457-0.32812-0.87109-0.96875-1.1953-1.5352-1.4805-1.3555-1.0898-1 0.76562-0.83203 1.2461-0.69922 1.3789-0.38281 0.97266-0.64844 1.0078-0.60547 0.16406-1.2344-0.67188-1.2891-0.015625-1.2344 0.074219-1.1758-0.23828-1.5312-0.48047-1.043-0.6875-1.8008-0.30859-1.543 0.39844-1.1523h1.1602l1.6016-0.24609 1.3125-1.0195 0.95312-0.80859 1.3047-0.44141 1.4297 0.17188 1.2656-0.085937 1.0586 0.23438 1.293-0.19922 1.8945 0.11328 1.1914 0.035156 1.2344 0.03125 1.3516 0.44141 1.2617 0.92969 0.64453 0.89844 0.65625 0.84766 1.1953 1.0742 0.89844 0.44922 1.2734 0.50391 2.2812 0.75391 1.1562 0.15234 1.0039 0.13672 1.3203 0.22656 1.125 0.039062 1.5859 0.32031 1.0742 0.19141 1.1484-0.1875 1.7578-0.92188 1.5273-1.0156 1.2305-0.92188 0.24609-1.3828-0.14844-1.2344 0.60547-1.3555 1.1367-0.72266 1.332-0.50391 1.25-0.47266 2.0742-0.74219 1.2344-0.33984 1.9766-0.58203 2-0.74219 1.4531 0.22266 2.0586 0.32031 1.5234 0.21875 0.37891 0.98828 0.71484 0.8125 0.23438 1.1445-0.15234 1.2188 0.91406 0.8125 0.91797 0.87109 1.2969 0.61328 1.2656 0.38672 1.1836 0.35547 1.3711-0.070313 0.84375 0.57031 1.0195 0.65234 0.91797 0.61328 0.8125 0.87891 1.1055 0.69531 1-0.10156 1.1055 0.46484 0.95312 0.60938 1.0547 0.49219 0.99609 0.27734 1.2266 0.53516 1.2344 0.011719 1.5312 0.10156 1.1016-0.039063 1.0195-0.57422 1.4023-0.33594 0.92969-0.51172 1.6328-0.85938 1.0117-0.44922 0.65234-0.80859 0.82031-0.60156 1.0977-0.63281 1.0312-0.5625 1.207-0.93359 0.6875-0.85547 0.66016-0.79688 1.0586-0.58594 1.0938-0.32812 1.4453-0.24609 1.0312 0.36719 1.0234-0.17188 1.0469-0.57422 1.1016-0.066407 1.0195-0.089843 0.97266-0.42188 1.1445-0.074219 0.99609-0.95312 0.59375-0.96484 0.78906-0.74609 0.73438-0.99609 0.82031-0.89062 0.98047-0.625 0.95312-0.46094 1.0977-0.058594" fill="none" stroke="#fff" stroke-linecap="round" stroke-linejoin="round" stroke-miterlimit="10" stroke-width="2"/>
<path d="m182.82 232.45-0.16016 1.2695-0.625 1.2109-0.64453 1.0898-0.35156 1.2422-0.25781 1.2031 0.58203 0.83203 1.5977 0.76953 0.81641 1.125 0.32812 1.3906 0.24609 1.6562 0.74609 1.3125 1.6484 0.17188 1.1445 0.89062-0.13672 1.0156-0.039062 1.3242 0.003906 1.8711-0.51953 1.2031-1.7773 1.1719-1.5547 0.58984-0.92969 0.82031-1.3828 1.2148 0.29688 1.2695-1.2852 1.0156-1.543 0.64844-1.0703 0.46875-1.1016-0.75781-0.83203-0.82031-0.98047-0.32812-0.45703-0.94531-0.75-0.75391-0.96484-0.32812-0.9375-0.63672-0.73047-1.0273-0.65625-0.75781-0.89844-0.76562-1.1055-0.55859-1.1523 0.48828-0.94922 0.77734-1.0625-0.78906-0.59766-0.81641-0.91406-0.55078-1.2188-0.71094-0.90625-0.48438-0.87109-0.79688-0.60938-0.82422-0.86719-0.6875-1.0273-0.15234-1.6797-1.0156-1.0117-0.20703-1.125-0.26172-0.28516-1.0625-1.0469-0.85938-1.1719-0.47266-0.71484-0.76953-1.125-0.82422 1.4961-0.5625 1.8008-0.51172 2.0234-0.97656 2.668-1.6211 1.4258-0.78516 1.668-0.80859 1.3086-0.38281 1.6406 1.1719 1.1445 1.1406 0.95312 0.35547 1-0.23828 1.2383-0.90625 0.97656-0.90234 1.1172-0.42969 2.8594-0.52344 1.6367-0.53125 1.3867-0.61328 1.832-0.78516 1.3086 0.050781 1.1836-0.26562 0.9375-0.78516z" fill="#ccc" fill-rule="evenodd"/>
<path d="m182.82 232.45-0.16016 1.2695-0.625 1.2109-0.64453 1.0898-0.35156 1.2422-0.25781 1.2031 0.58203 0.83203 1.5977 0.76953 0.81641 1.125 0.32812 1.3906 0.24609 1.6562 0.74609 1.3125 1.6484 0.17188 1.1445 0.89062-0.13672 1.0156-0.039062 1.3242 0.003906 1.8711-0.51953 1.2031-1.7773 1.1719-1.5547 0.58984-0.92969 0.82031-1.3828 1.2148 0.29688 1.2695-1.2852 1.0156-1.543 0.64844-1.0703 0.46875-1.1016-0.75781-0.83203-0.82031-0.98047-0.32812-0.45703-0.94531-0.75-0.75391-0.96484-0.32812-0.9375-0.63672-0.73047-1.0273-0.65625-0.75781-0.89844-0.76562-1.1055-0.55859-1.1523 0.48828-0.94922 0.77734-1.0625-0.78906-0.59766-0.81641-0.91406-0.55078-1.2188-0.71094-0.90625-0.48438-0.87109-0.79688-0.60938-0.82422-0.86719-0.6875-1.0273-0.15234-1.6797-1.0156-1.0117-0.20703-1.125-0.26172-0.28516-1.0625-1.0469-0.85938-1.1719-0.47266-0.71484-0.76953-1.125-0.82422 1.4961-0.5625 1.8008-0.51172 2.0234-0.97656 2.668-1.6211 1.4258-0.78516 1.668-0.80859 1.3086-0.38281 1.6406 1.1719 1.1445 1.1406 0.95312 0.35547 1-0.23828 1.2383-0.90625 0.97656-0.90234 1.1172-0.42969 2.8594-0.52344 1.6367-0.53125 1.3867-0.61328 1.832-0.78516 1.3086 0.050781 1.1836-0.26562 0.9375-0.78516 1.0117-0.16797" fill="none" stroke="#fff" stroke-linecap="round" stroke-linejoin="round" stroke-miterlimit="10" stroke-width="2"/>
<path d="m191.97 230.95 1.2148 0.78906 0.75781 0.75781 0.80469 0.62109 1.168-0.27734 2.3125 0.65625 1.6875 0.22266 1.3008 0.24219 1.207 0.42578 0.91406 0.49219 1.125 0.67578 1.1719 0.91406 1 0.77734 1.2969 0.42578 1.2539 0.097656 1.0859-0.23828 0.14062-1.1055 0.60156-0.89062 1.8789-0.015625 1.3164 0.30859 1.0156 0.73828 0.95703 0.76172 1.0195 1.0391 0.80859 0.85547 0.51172 1.0391-1.043 0.92188-1.5469 0.83984-1.5938 0.14844-1.4766 0.35938-1.1094 1.2344-1.6445 1.7969-2.2031 0.76562-2.4297 1.1367-0.73828-1.1758-0.86328-0.91406-0.82422-0.82031-1.2695-0.17188-1.5703-0.24219-1.2344 0.039062-1.1367 0.035157-1.4648-0.36328-1.3555-0.36328-1.0469-0.875-1.3633 0.13672-0.92969 0.60938-0.98828 0.66016-1.1484 0.38672-1.1602 0.53906-0.99609 0.66016-2.0273 0.18359-0.59766-0.85938-0.58594-1.4922-0.39844-2.2422-0.81641-1.125-1.0586-0.42969-0.89062-0.70703-0.10547-1.3555 0.39453-1.0664 0.73438-1.5781 0.625-1.2109 0.13672-1.2109 1.4375 0.89453 2.0234-0.046875 1.4844-0.57422 1.0938-0.87891 1.6094-0.79297z" fill="#ccc" fill-rule="evenodd"/>
<path d="m191.97 230.95 1.2148 0.78906 0.75781 0.75781 0.80469 0.62109 1.168-0.27734 2.3125 0.65625 1.6875 0.22266 1.3008 0.24219 1.207 0.42578 0.91406 0.49219 1.125 0.67578 1.1719 0.91406 1 0.77734 1.2969 0.42578 1.2539 0.097656 1.0859-0.23828 0.14062-1.1055 0.60156-0.89062 1.8789-0.015625 1.3164 0.30859 1.0156 0.73828 0.95703 0.76172 1.0195 1.0391 0.80859 0.85547 0.51172 1.0391-1.043 0.92188-1.5469 0.83984-1.5938 0.14844-1.4766 0.35938-1.1094 1.2344-1.6445 1.7969-2.2031 0.76562-2.4297 1.1367-0.73828-1.1758-0.86328-0.91406-0.82422-0.82031-1.2695-0.17188-1.5703-0.24219-1.2344 0.039062-1.1367 0.035157-1.4648-0.36328-1.3555-0.36328-1.0469-0.875-1.3633 0.13672-0.92969 0.60938-0.98828 0.66016-1.1484 0.38672-1.1602 0.53906-0.99609 0.66016-2.0273 0.18359-0.59766-0.85938-0.58594-1.4922-0.39844-2.2422-0.81641-1.125-1.0586-0.42969-0.89062-0.70703-0.10547-1.3555 0.39453-1.0664 0.73438-1.5781 0.625-1.2109 0.13672-1.2109 1.4375 0.89453 2.0234-0.046875 1.4844-0.57422 1.0938-0.87891 1.6094-0.79297 1.5273-0.16406" fill="none" stroke="#fff" stroke-linecap="round" stroke-linejoin="round" stroke-miterlimit="10" stroke-width="2"/>
<path d="m226.69 208.48 0.070313 1.3516 0.13672 1.3828-0.42188 2.4141-0.72266 1.3984-0.69922 0.82422-0.99219 0.94922-1.3125 2.0781-1.2773 1.3516-1.6055 1.1992-0.5 1.1016-0.11328 1.2539 0.67188 1.0391 0.77344 1.4922-0.023438 1.4492-0.67969 1.8711-1.1797 1.3633-1.1836 1.5156-0.75 1.1211-2.1406 1.6055-0.97266 0.42188-1.8477-0.33984-1.4258 0.4375 0.10938 1.3086-1.0547 0.67188h-1.0273l-1.3945-0.30859-1.0234-0.55859-1.6367-1.3203-1.125-0.67578-0.91406-0.49219-1.207-0.42578-1.3008-0.24219-1.6875-0.22266-2.3125-0.65625-0.21484-1.543-0.69141-1.3984 0.18359-1.0508 0.44141-0.90625 0.625-1.0508 0.54297-1.2812 0.79297-1.4727 0.61719-1.2188 0.039062-1.1367 0.22656-1.7695 0.73047-1.1211 0.79688-0.71875 0.94531-0.74609 2.4688-0.94531 1.4062-0.46094 1.043-0.50781 0.91797-0.41016 0.94531-0.65625 1.1133-0.79688 1.1875-0.89062 0.75-0.70703 0.96875-0.63281 1.8867-0.84766 1.5781-0.53125 2.0078-0.19531 1.5273-0.054688 1.1289-0.039062 1.2109 0.019531 1.7773-0.35156 0.96484-0.37891 1.3633-0.57812z" fill="#ccc" fill-rule="evenodd"/>
<path d="m226.69 208.48 0.070313 1.3516 0.13672 1.3828-0.42188 2.4141-0.72266 1.3984-0.69922 0.82422-0.99219 0.94922-1.3125 2.0781-1.2773 1.3516-1.6055 1.1992-0.5 1.1016-0.11328 1.2539 0.67188 1.0391 0.77344 1.4922-0.023438 1.4492-0.67969 1.8711-1.1797 1.3633-1.1836 1.5156-0.75 1.1211-2.1406 1.6055-0.97266 0.42188-1.8477-0.33984-1.4258 0.4375 0.10938 1.3086-1.0547 0.67188h-1.0273l-1.3945-0.30859-1.0234-0.55859-1.6367-1.3203-1.125-0.67578-0.91406-0.49219-1.207-0.42578-1.3008-0.24219-1.6875-0.22266-2.3125-0.65625-0.21484-1.543-0.69141-1.3984 0.18359-1.0508 0.44141-0.90625 0.625-1.0508 0.54297-1.2812 0.79297-1.4727 0.61719-1.2188 0.039062-1.1367 0.22656-1.7695 0.73047-1.1211 0.79688-0.71875 0.94531-0.74609 2.4688-0.94531 1.4062-0.46094 1.043-0.50781 0.91797-0.41016 0.94531-0.65625 1.1133-0.79688 1.1875-0.89062 0.75-0.70703 0.96875-0.63281 1.8867-0.84766 1.5781-0.53125 2.0078-0.19531 1.5273-0.054688 1.1289-0.039062 1.2109 0.019531 1.7773-0.35156 0.96484-0.37891 1.3633-0.57812 1.4883 0.019532" fill="none" stroke="#fff" stroke-linecap="round" stroke-linejoin="round" stroke-miterlimit="10" stroke-width="2"/>
<path d="m355.11 12.699 0.20312 0.09375 1.0234 0.64062 0.90625 0.71484 1.0938 0.55078 0.82812 1.0547 0.65625 1.0078 0.69531 0.76172 1.1836 1.2109 0.87109 0.62109 1.2969-0.046875 1.1602-0.19141 0.96875-0.25391 1.3203-0.074218 1.1328-0.125 1.6797 0.92188 0.85547 0.58984 1.1641 0.65234 1.0312 1.7969 0.53516 1.0586 0.21094 1.75 0.80078 0.76562 1.2695 0.47656 1.7656 1.1133 0.88672 1.4609 1.0703 1.3477 1.0586 0.47266 1.3594-0.21875 1.6953 0.34766 1.6484 0.48047 1.5352 0.67969 1.0195 0.35547 1.1914 1.2383 0.011718 2.1758 0.71875 0.74219 1.0469 0.28906 1.0586 0.125 1.0312 0.19141 1.0078 0.18359 1.4141 0.99609 1.4336 0.60547 1.3203 0.62109-0.39062 1.9297-0.10156 1.4258-0.39062 1.4219-0.83203 0.71094-1.1328 0.41797-1.207 0.089843-1.0781 0.375-1.4141 0.30078-0.99609 1.0742-1.4336 1.2422-1.0391 0.125-0.92188 0.78516-2.1094 0.027344-1.2656 0.019531-2.2812 0.26172-1.5586 0.5-1.3164 0.69141-0.47266 1.4844 0.88672 1.9453 0.58984 0.91797 0.66406 0.79688 1.0781 2.3789-0.8125 1.2578-1.3633 0.89844-0.94141 1.1172-0.64844 1.1211-1.0117 0.42188-1.7539 0.30078-1.3203 0.61328-0.10938 1.2773-0.027344 1.168 0.45312 1.1562-0.51953 1.1523-0.58984 0.97656-0.45312 1.1211-0.61719 1.1406-0.78906 0.88672-1.5664 1.1055-1.5469 1.0078-0.42188 1.2148-0.09375 1.3516-0.011719 1.0547 0.13281 1.2773 0.03125 1.4492 0.17188 1.1172 1.1367 1.832 0.77734 1.6016 1.1367 0.64062 2.543 0.14453 1.0781-0.027344 1.4102 0.070312 1.0859-0.21484 2.2461-1.25 1.832-0.88281 1.0195-0.60547 1.375-0.58594 1.1406-0.23047 0.23438-1.1406-0.36328-1.9492 0.22656-1.4141 1.4922-0.625 2.1133 0.41797 1.2852 0.26562 1.4141 1.7109 1.5273 1.1523 1.1992 0.63281 1.9688 0.36328 1.0312 0.042968 1.8555 0.14844 0.92969 0.48828 0.99609 0.48438 0.63281 0.86328 0.10156 1.1758 0.38672 1.9258 0.21484 1.4805-0.66797 1.1328-1.043 1.168-0.77734 1.2852 0.36328 1.2031 1.457 0.09375 1.3125-0.023437 1.4727 0.60156 0.47266 3.4219-0.12109 1.207-0.078125 1.2227 0.40625 2.1641 0.16016 1.1641 0.17969 1.3945 0.32812 1.6641 0.054687 2.25 0.21875 1.7891 0.13281 1.2031-0.019531 1.8086 0.44141 1.5977 0.62109 1.1875-0.51953 1.5078 0.23828 1.8789 0.089843 1.8555 0.15625 1.3125 0.33984 1.0312 0.5 1.0859 1.4375 1.168 1.6406 0.61328 0.97266-0.81641 1.0078-0.33984 1.2109-0.089844 1-0.47656 1.2891 0.78125 1.1445 0.90625 0.74609 0.99609-0.058594 1.5391-1.1875 1.7344-0.98438 0.91406-1.1055 1.0391-1.1719 0.86328 0.046875 1.4062 1.0547 0.67969v1.1875l-0.66797 1.0977-0.88672 1.1562-0.87109 0.60938-1.1562 0.44531-1.0117 0.78125-1.4102 0.33594-0.90234 1.8125-0.91797 0.75781-2.3867 0.60156-1.0234 0.089844-0.92578-0.41016-1.2031-0.87109-1.5703-0.9375-1.1289-0.46484-1.6953 0.36328-0.84375 0.98438-1.3477 0.57812-1.0742 0.19141-1.125 0.69141-1.1719 0.17188-1.6289-0.43359-2.1602 0.019531-1.5664 0.90625 0.007812 1.0586-1.5469 1.8125-0.97266 1.2891-0.39453 1.1094-0.28906 1.0391 0.48438 1.5195 1.0547 1.9336 0.042968 1.0078 0.19531 1.3125-0.058594 1.3047 0.078125 1.0742 0.10547 1.8125-0.10156 1.1719-0.38672 1.0117-0.57812 1.1992-1.4844 1.7578-0.62109 1.4688-0.44141 1.0234-0.38672 1.0039-0.80078 1.6211-0.60156 1.2773-0.61328 1.5742-0.78906 1.5859-0.70312 1.3125-0.625 1.3594-0.054687 1.5625 0.48828 1.0742 0.11328 1.2109-0.98438 1.7109-0.95703 1.7227 0.11719 1.7773 0.375 1.8398-0.070313 1.6328-0.60547 0.82422-1.2734 0.21875-1.3008-0.72266-1.5273-0.71875-1.5742 0.49219-2.4805 1.2031-1.4141 1.0312-0.59375 0.95312-0.31641 1.4258-1.125 1.6445-0.16406 1.4766-0.1875 1.2578-0.76172 0.79297-1.4258 0.85547-1.3164 1.043-1.2852 0.10547-0.82812 0.72266-0.11328 1.3242 0.18359 1.1406 0.53125 2.8086 0.53516 1.6992-1.1914-0.25-1.5039 0.41797-1.0625 0.38281-1.5469 0.83984-1.8828 0.18359-1.1445 0.027344-1.1992-0.039063-1.3477 0.48828-1.1172 0.41016-0.81641 0.72266-1.3555 1.0547-1.5938 1.9062-0.60938 1.0117-0.83594 1.5234-0.80859 1.1406-0.8125 1.7656-0.39453 1.3164-0.55078 1.7305-0.84375 0.95312-0.94531 0.33984-0.95312 1.5586-1.2031 1.0469-0.80469 1.0703-1.1836 0.1875-0.94922 0.46094-0.29297 1.1094-0.46094 1.7734-0.35156 0.9375-0.64453 1.043-0.70703 0.85156-0.097656 1.7148-0.37109 1.2422-0.023437 1.0117-1.1758 1.0586-1.0508 0.69531-0.98047 0.70703-0.58594 1.2461-0.80469 0.96484-0.88672 1.3828-1.293-0.18359-1.3516-0.67578-1.207-1.125-0.98438-1.3008-0.78516-1.8125-0.17188-1.0391-0.27734-1.418-0.40234-1.4961-0.27734-1.4297-0.40625-0.94141-0.22266-1.1211-0.78125-1.0117-0.70703-0.83594-0.94141-0.89062-0.58594-0.91797-0.63672-1.1445-0.03125-1.1094-0.87109-1.293-0.99219-1.2305-1.0156-0.73047-0.3125-1.0664 0.14844-1.5234 0.27344-1.1055-0.54688-1.0312-1.2422-0.75391-1.3906 0.18359-1.9375-0.26953-1.0352-0.30078-1.9336-0.35156-1.8711 0.52344-1.1211 0.79688-1.2773 0.24609-1.4023-0.035156-1.0391-0.11719-1.082 0.88672-0.75 2.0742-1.082 1.2852-1.0898-0.20703-1.0898-0.21875-1.2539-0.66797-0.98047-0.75391-1.457-1.0234-1.1797-0.66406-1.832-0.94531-0.82422-0.64844-0.83984-0.57031-0.73438-1.082-0.96875-1.875-0.87109-1.1914-0.8125-0.64453-1.5391-0.30469-1.625-0.19531-1.5234-0.35938-0.65625-1.125-0.83594-4.1445-0.75781-1.2852-1.0156-2.0469-0.71875-0.91016-1.082-0.96094-0.64062-0.8125-0.74219-0.92969-2.1797-0.73047-1.1484-1.3711-0.99219 0.21484-1.0117 0.49609-2.0234-0.039062h-4.3555l-1.7383-0.074219-1.0547 0.32812-1.1406 0.53125-0.97266 0.37891-1.3945 0.082031-1.125-0.042968-0.98438 0.59766-0.58203 1.2109-0.59766 1.5156-1.168 0.54297-1.7812-0.11328-1.3867-0.019531-1.4336 0.39844-1.5586 0.48828-2.1953-0.26562-2.0352 0.125-0.92578 0.5-1.0703 1.3203-1.3438-0.097656-1.1211-0.30469-1.5547 0.070313-1.1445 0.53125-1.0195-0.1875-0.99609 0.38281-1.8008 0.74219-1.7773 0.35156-1.2109-0.019531-1.1289 0.039062-0.89453-3.3984-0.72656-1.9375 0.089843-1.5469 1.1172-0.53906 1.4336-1.6133 0.52344-1.0586 0.39844-1.1133 1.6562-1.2578 1.2266-0.71484 1.1016 0.050781 1.2812 0.58984 2.5234-1.2852 2.1055-1.1172 0.94141-0.34766 1.4023-0.5 0.70312-0.81641 0.35547-1.1719 0.83203-0.59375 0.51172-0.91797-0.42969-0.94922-0.64453-0.91797-0.12891-1.082 0.86328-1.0938 0.93359-0.53516 1.8594-0.67969 1.0977 0.10156 1.2539 0.52734 0.9375-0.59375 1.418 0.0625 1.0352 0.15625 0.37891 0.92969 1.1953 0.22266 1.4883 0.9375 1.1992 0.51562 0.82031 0.72656 1.1211 0.27344 0.96094-0.64453 0.97656 0.53125 1.1953 0.9375 0.94531 0.74219 1.2227 0.69922h1.0664l1.4648-0.17578 1.4102-0.027344-0.625-0.99609-1.043-0.65234-1.1133-0.80078-0.94531-1.25-0.59766-1.0625-0.66406-1.2266-0.058593-1.5234-0.44922-1.2617-0.23047-1.2852-0.23438-1.1211-0.4375-1.3359-0.5625-0.90234 0.10156-1.1914 0.66016-0.92969 0.28906-1.8086 0.39844-1.7891 0.33594-1.5547 0.26562-1.3438 0.64844-1.4727 0.13672-1.0625 0.66016-0.82422 0.097656-1.2227 0.11719-1.0039 0.17188-1.168 0.83203-0.63672 0.48047-1.0977-0.36328-2.2539 0.042969-1.5312-0.63672-0.97266-0.77344-1.0977-0.64062-0.99609-0.71875-1.043-0.95312-0.85938-0.62109-0.84766-0.10547-1.0391-0.70703-0.92578-0.80078-0.86719-1.2773-0.64844-0.99609-0.30078-1-0.39062-0.76562-0.71875-0.42578-1.0039-0.30469-1.0352-0.80859-0.74219-0.089844-1.0312 0.28125-1.1328-0.21094-1.2422-1.1289-0.66406-1.1094-0.72656-0.84766-0.71094-0.4375-1.2422-0.39453-1.1836-0.58984-0.8125-0.63281-0.85547 0.019531-1.0586 0.55078-0.92188 0.87891-0.97266 0.92188-0.6875 0.84375-0.80469 1.043-0.6875 1.0703-0.48438 0.75781-0.72266-0.11328-1.2539-0.35938-0.94531-0.53906-1.2734-0.41406-1.043-0.56641-1.0977-0.42969-1.082 0.023438-1.4414 0.28906-1.4805 0.54688-0.9375 0.98047-0.94141 0.99609-2.0273 1.25 0.039062 1.043 0.58203 1.1797-0.078125h1.0742l1.1914 0.38672 1.0625-0.039062 0.97266-0.46484 1.3633 0.16406 0.875 0.75 0.71094 0.95312 1.3359 1.3906 1.1758 1.0273 0.91406 0.82031 0.75391 0.95312-0.011718 1.1914 0.28516 1.1328 0.81641 0.8125 0.41797 1.1875 0.16797 1.2734 0.34375 1.207 0.76172 0.80469 0.375 1.0898 0.80078 0.69531 0.875 0.60938 0.89062-0.46875 0.97656-1.1289 0.49609-0.89844 0.28516-1.1016 0.71484-1.7773 1.4922-0.28516 1.4297 0.23438 1.8125 0.24219 1.0938 0.51953 0.70703 0.76953 1.0508 0.74609 1.043-0.22266 1.207-0.35547 1.4922-0.41797 1.1289-0.24219 1.2695 0.22656 1.0195-0.085938 0.97266 0.64062 0.96094 0.78906 0.86328 0.66016 0.48438 1.0508 0.070312 1.043 0.10938 1.0156 0.20703 1.082 0.83203 0.83203 1.1836 0.26953 0.96875 0.26953 0.4375 0.98828-0.10156 1.3398 0.77734 0.76562 0.80859 0.83203 0.015625 1.082-0.89062 0.76172-1.0898 0.51172-0.28906 1.0195-0.35938 1.0625-0.29297 1.3477 0.66406 0.91797 1.0391 0.66406 0.91406 0.65625 0.90234 0.49219 0.95312 0.62109 1.1719 0.49609 0.98438-0.34766 1.2461-0.023437 0.875 0.80859 1.4102 0.49609 1.1562 0.64844 1.1914 0.14844 3.082 0.67188 0.99609 0.15234 1.3828 0.23047 1.1719 0.22656 1.2773 0.32031 1.207-0.027344 0.92969-0.41406 0.76172-1.1562 0.43359-1.0391-0.21094-1.1758-0.70312-1.3828-0.15625-1.3672 0.16016-1.1211 0.39844-0.95312-0.054688-1.1602-0.36328-1.1133-0.51172-1.0391-0.34375-1.207-0.17969-1.3516 0.29297-1.1094-0.55078-0.92969-0.42188-0.91797-0.26953-1.2344-0.38672-1.043-0.6875-0.8125 0.007813-1.0078 1.5391-0.56641 1.0117-0.36719 1.2109 0.46484 0.93359 0.71094 1.0469-0.48047 0.92188-0.62109 1.2461-0.23438 1.2305 0.17969 1.4219 0.13672 0.99609-0.18359 0.76562-0.69141 0.69922-0.99219 1.0352-0.77734 0.71484-0.875 0.59766-0.9375 0.74219-0.84375 0.65234-0.86328-1.1367-0.92578-1.5273-0.25391-1.0625-0.52344-0.54297-1.2344-0.21875-1.0234-0.51172-0.95312-0.76172-1.4492-0.55469-0.9375-0.75-1.4766-0.55859-1.0898-0.70703-1.1328-0.51953-1.0547-0.46484-0.90625-0.19922-1.0156 0.74219-1.7031 1.0664-1.1719 1.8008-1.3047 0.5625-1.1445 0.38672-1.1953-1.0273-0.48047-0.91016-0.70312-1.2656-0.19141-1.207-0.26953-1.293-0.011719-1.1445-0.41406-1.1914-0.44141-0.82031-0.87891-0.94141-0.94531-0.96094-0.72656-1.3555-0.28516-1.5625-0.44141-0.625-0.84375 0.49219-1.4102-0.51562-1.2969-0.79688-1.4023-0.30859-1.0703 0.14453-1.1445 0.17969-1.1758-0.70312-1.1211-0.73828-0.98047-0.86328-1.1992-0.21484-1.1055 0.074219-1.4414-0.53906-1.1406-0.79297-1.3711-0.63281-0.91797-0.58594-0.90234-0.45703-1.0273-0.94141-0.91406-1.1172-0.64844-0.75781-0.97266-1.0117-0.83984-0.89062-1.0508-1.2344-0.60156-0.59766-1.4414-0.83594-0.70312-1.0195-0.68359-0.875-0.82812-1.293-2.0039-1.0273-1.1445-0.89453-0.88281-1.3633-0.8125 0.39453-1.1094 0.48828-1.1914 0.30859-0.97266 0.38281-0.94141 0.45312-0.97266 0.99219-0.73047 0.94922-0.44141 1.8477-0.36719 1.5625 0.082031 1.0586 0.097656 0.99219-1.0078 0.72266-0.70703 1.1406-0.54297 0.625-0.88281 1.0781-0.14844 1.0742-0.35938 0.77344-0.67969 0.86328-1.1133 0.023437-1.2617 1.043-0.99219 0.97656-0.24219 1.0742-0.039062 1.3164 0.36719 1.3281 0.058594 1.25-0.19922 1.1641-0.68359 0.91797-0.75781 0.71484-0.73828 0.86328-0.55859 1.4844-0.074219 1.0742 0.26953 1 0.51172 0.87891-0.51953 1.2695-0.88672 1.0195-0.53906 1.1328-0.4375 1.2695-0.56641 0.87891-1.1367 0.64062-1.125 0.55078-0.91016-0.35156-1.4062-0.17188-1.2031 0.73828-1.0156 0.82812-0.94922 1.2188-0.85547 1.7695 0.51172 0.89453 0.76172 0.79688 0.73047 1.0078 0.19922 1.1797-0.089844 1.0156-0.23047 1.0117-0.56641 1.2227 0.17969 0.50781-0.92188 0.31641-0.94922-0.09375-1.043-0.11328-1.1953-0.25391-1.2852 0.15625-1.0781 0.61719-1.0977 0.58984-1.1445 0.80859-1.0508 1.1406-0.18359 0.97266-0.29688 1.2109-0.074219 1.1016 0.007813 0.36328-0.99219 0.76172-0.96094 0.99609-0.65234 0.94141-0.66406 1.1172-0.16797 1.1289 0.089844 0.73438-0.82031 0.23047-1.1797 0.070312-1.2578 0.68359-0.99609 0.80469-0.79688 1.0977-0.30078 0.75-0.76953 0.10547-1.3398 0.66406-0.875 0.57031-0.86328 0.57812-0.91016z" fill="#ccc" fill-rule="evenodd"/>
<path d="m355.11 12.699 0.20312 0.09375 1.0234 0.64062 0.90625 0.71484 1.0938 0.55078 0.82812 1.0547 0.65625 1.0078 0.69531 0.76172 1.1836 1.2109 0.87109 0.62109 1.2969-0.046875 1.1602-0.19141 0.96875-0.25391 1.3203-0.074218 1.1328-0.125 1.6797 0.92188 0.85547 0.58984 1.1641 0.65234 1.0312 1.7969 0.53516 1.0586 0.21094 1.75 0.80078 0.76562 1.2695 0.47656 1.7656 1.1133 0.88672 1.4609 1.0703 1.3477 1.0586 0.47266 1.3594-0.21875 1.6953 0.34766 1.6484 0.48047 1.5352 0.67969 1.0195 0.35547 1.1914 1.2383 0.011718 2.1758 0.71875 0.74219 1.0469 0.28906 1.0586 0.125 1.0312 0.19141 1.0078 0.18359 1.4141 0.99609 1.4336 0.60547 1.3203 0.62109-0.39062 1.9297-0.10156 1.4258-0.39062 1.4219-0.83203 0.71094-1.1328 0.41797-1.207 0.089843-1.0781 0.375-1.4141 0.30078-0.99609 1.0742-1.4336 1.2422-1.0391 0.125-0.92188 0.78516-2.1094 0.027344-1.2656 0.019531-2.2812 0.26172-1.5586 0.5-1.3164 0.69141-0.47266 1.4844 0.88672 1.9453 0.58984 0.91797 0.66406 0.79688 1.0781 2.3789-0.8125 1.2578-1.3633 0.89844-0.94141 1.1172-0.64844 1.1211-1.0117 0.42188-1.7539 0.30078-1.3203 0.61328-0.10938 1.2773-0.027344 1.168 0.45312 1.1562-0.51953 1.1523-0.58984 0.97656-0.45312 1.1211-0.61719 1.1406-0.78906 0.88672-1.5664 1.1055-1.5469 1.0078-0.42188 1.2148-0.09375 1.3516-0.011719 1.0547 0.13281 1.2773 0.03125 1.4492 0.17188 1.1172 1.1367 1.832 0.77734 1.6016 1.1367 0.64062 2.543 0.14453 1.0781-0.027344 1.4102 0.070312 1.0859-0.21484 2.2461-1.25 1.832-0.88281 1.0195-0.60547 1.375-0.58594 1.1406-0.23047 0.23438-1.1406-0.36328-1.9492 0.22656-1.4141 1.4922-0.625 2.1133 0.41797 1.2852 0.26562 1.4141 1.7109 1.5273 1.1523 1.1992 0.63281 1.9688 0.36328 1.0312 0.042968 1.8555 0.14844 0.92969 0.48828 0.99609 0.48438 0.63281 0.86328 0.10156 1.1758 0.38672 1.9258 0.21484 1.4805-0.66797 1.1328-1.043 1.168-0.77734 1.2852 0.36328 1.2031 1.457 0.09375 1.3125-0.023437 1.4727 0.60156 0.47266 3.4219-0.12109 1.207-0.078125 1.2227 0.40625 2.1641 0.16016 1.1641 0.17969 1.3945 0.32812 1.6641 0.054687 2.25 0.21875 1.7891 0.13281 1.2031-0.019531 1.8086 0.44141 1.5977 0.62109 1.1875-0.51953 1.5078 0.23828 1.8789 0.089843 1.8555 0.15625 1.3125 0.33984 1.0312 0.5 1.0859 1.4375 1.168 1.6406 0.61328 0.97266-0.81641 1.0078-0.33984 1.2109-0.089844 1-0.47656 1.2891 0.78125 1.1445 0.90625 0.74609 0.99609-0.058594 1.5391-1.1875 1.7344-0.98438 0.91406-1.1055 1.0391-1.1719 0.86328 0.046875 1.4062 1.0547 0.67969v1.1875l-0.66797 1.0977-0.88672 1.1562-0.87109 0.60938-1.1562 0.44531-1.0117 0.78125-1.4102 0.33594-0.90234 1.8125-0.91797 0.75781-2.3867 0.60156-1.0234 0.089844-0.92578-0.41016-1.2031-0.87109-1.5703-0.9375-1.1289-0.46484-1.6953 0.36328-0.84375 0.98438-1.3477 0.57812-1.0742 0.19141-1.125 0.69141-1.1719 0.17188-1.6289-0.43359-2.1602 0.019531-1.5664 0.90625 0.007812 1.0586-1.5469 1.8125-0.97266 1.2891-0.39453 1.1094-0.28906 1.0391 0.48438 1.5195 1.0547 1.9336 0.042968 1.0078 0.19531 1.3125-0.058594 1.3047 0.078125 1.0742 0.10547 1.8125-0.10156 1.1719-0.38672 1.0117-0.57812 1.1992-1.4844 1.7578-0.62109 1.4688-0.44141 1.0234-0.38672 1.0039-0.80078 1.6211-0.60156 1.2773-0.61328 1.5742-0.78906 1.5859-0.70312 1.3125-0.625 1.3594-0.054687 1.5625 0.48828 1.0742 0.11328 1.2109-0.98438 1.7109-0.95703 1.7227 0.11719 1.7773 0.375 1.8398-0.070313 1.6328-0.60547 0.82422-1.2734 0.21875-1.3008-0.72266-1.5273-0.71875-1.5742 0.49219-2.4805 1.2031-1.4141 1.0312-0.59375 0.95312-0.31641 1.4258-1.125 1.6445-0.16406 1.4766-0.1875 1.2578-0.76172 0.79297-1.4258 0.85547-1.3164 1.043-1.2852 0.10547-0.82812 0.72266-0.11328 1.3242 0.18359 1.1406 0.53125 2.8086 0.53516 1.6992-1.1914-0.25-1.5039 0.41797-1.0625 0.38281-1.5469 0.83984-1.8828 0.18359-1.1445 0.027344-1.1992-0.039063-1.3477 0.48828-1.1172 0.41016-0.81641 0.72266-1.3555 1.0547-1.5938 1.9062-0.60938 1.0117-0.83594 1.5234-0.80859 1.1406-0.8125 1.7656-0.39453 1.3164-0.55078 1.7305-0.84375 0.95312-0.94531 0.33984-0.95312 1.5586-1.2031 1.0469-0.80469 1.0703-1.1836 0.1875-0.94922 0.46094-0.29297 1.1094-0.46094 1.7734-0.35156 0.9375-0.64453 1.043-0.70703 0.85156-0.097656 1.7148-0.37109 1.2422-0.023437 1.0117-1.1758 1.0586-1.0508 0.69531-0.98047 0.70703-0.58594 1.2461-0.80469 0.96484-0.88672 1.3828-1.293-0.18359-1.3516-0.67578-1.207-1.125-0.98438-1.3008-0.78516-1.8125-0.17188-1.0391-0.27734-1.418-0.40234-1.4961-0.27734-1.4297-0.40625-0.94141-0.22266-1.1211-0.78125-1.0117-0.70703-0.83594-0.94141-0.89062-0.58594-0.91797-0.63672-1.1445-0.03125-1.1094-0.87109-1.293-0.99219-1.2305-1.0156-0.73047-0.3125-1.0664 0.14844-1.5234 0.27344-1.1055-0.54688-1.0312-1.2422-0.75391-1.3906 0.18359-1.9375-0.26953-1.0352-0.30078-1.9336-0.35156-1.8711 0.52344-1.1211 0.79688-1.2773 0.24609-1.4023-0.035156-1.0391-0.11719-1.082 0.88672-0.75 2.0742-1.082 1.2852-1.0898-0.20703-1.0898-0.21875-1.2539-0.66797-0.98047-0.75391-1.457-1.0234-1.1797-0.66406-1.832-0.94531-0.82422-0.64844-0.83984-0.57031-0.73438-1.082-0.96875-1.875-0.87109-1.1914-0.8125-0.64453-1.5391-0.30469-1.625-0.19531-1.5234-0.35938-0.65625-1.125-0.83594-4.1445-0.75781-1.2852-1.0156-2.0469-0.71875-0.91016-1.082-0.96094-0.64062-0.8125-0.74219-0.92969-2.1797-0.73047-1.1484-1.3711-0.99219 0.21484-1.0117 0.49609-2.0234-0.039062h-4.3555l-1.7383-0.074219-1.0547 0.32812-1.1406 0.53125-0.97266 0.37891-1.3945 0.082031-1.125-0.042968-0.98438 0.59766-0.58203 1.2109-0.59766 1.5156-1.168 0.54297-1.7812-0.11328-1.3867-0.019531-1.4336 0.39844-1.5586 0.48828-2.1953-0.26562-2.0352 0.125-0.92578 0.5-1.0703 1.3203-1.3438-0.097656-1.1211-0.30469-1.5547 0.070313-1.1445 0.53125-1.0195-0.1875-0.99609 0.38281-1.8008 0.74219-1.7773 0.35156-1.2109-0.019531-1.1289 0.039062-0.89453-3.3984-0.72656-1.9375 0.089843-1.5469 1.1172-0.53906 1.4336-1.6133 0.52344-1.0586 0.39844-1.1133 1.6562-1.2578 1.2266-0.71484 1.1016 0.050781 1.2812 0.58984 2.5234-1.2852 2.1055-1.1172 0.94141-0.34766 1.4023-0.5 0.70312-0.81641 0.35547-1.1719 0.83203-0.59375 0.51172-0.91797-0.42969-0.94922-0.64453-0.91797-0.12891-1.082 0.86328-1.0938 0.93359-0.53516 1.8594-0.67969 1.0977 0.10156 1.2539 0.52734 0.9375-0.59375 1.418 0.0625 1.0352 0.15625 0.37891 0.92969 1.1953 0.22266 1.4883 0.9375 1.1992 0.51562 0.82031 0.72656 1.1211 0.27344 0.96094-0.64453 0.97656 0.53125 1.1953 0.9375 0.94531 0.74219 1.2227 0.69922h1.0664l1.4648-0.17578 1.4102-0.027344-0.625-0.99609-1.043-0.65234-1.1133-0.80078-0.94531-1.25-0.59766-1.0625-0.66406-1.2266-0.058593-1.5234-0.44922-1.2617-0.23047-1.2852-0.23438-1.1211-0.4375-1.3359-0.5625-0.90234 0.10156-1.1914 0.66016-0.92969 0.28906-1.8086 0.39844-1.7891 0.33594-1.5547 0.26562-1.3438 0.64844-1.4727 0.13672-1.0625 0.66016-0.82422 0.097656-1.2227 0.11719-1.0039 0.17188-1.168 0.83203-0.63672 0.48047-1.0977-0.36328-2.2539 0.042969-1.5312-0.63672-0.97266-0.77344-1.0977-0.64062-0.99609-0.71875-1.043-0.95312-0.85938-0.62109-0.84766-0.10547-1.0391-0.70703-0.92578-0.80078-0.86719-1.2773-0.64844-0.99609-0.30078-1-0.39062-0.76562-0.71875-0.42578-1.0039-0.30469-1.0352-0.80859-0.74219-0.089844-1.0312 0.28125-1.1328-0.21094-1.2422-1.1289-0.66406-1.1094-0.72656-0.84766-0.71094-0.4375-1.2422-0.39453-1.1836-0.58984-0.8125-0.63281-0.85547 0.019531-1.0586 0.55078-0.92188 0.87891-0.97266 0.92188-0.6875 0.84375-0.80469 1.043-0.6875 1.0703-0.48438 0.75781-0.72266-0.11328-1.2539-0.35938-0.94531-0.53906-1.2734-0.41406-1.043-0.56641-1.0977-0.42969-1.082 0.023438-1.4414 0.28906-1.4805 0.54688-0.9375 0.98047-0.94141 0.99609-2.0273 1.25 0.039062 1.043 0.58203 1.1797-0.078125h1.0742l1.1914 0.38672 1.0625-0.039062 0.97266-0.46484 1.3633 0.16406 0.875 0.75 0.71094 0.95312 1.3359 1.3906 1.1758 1.0273 0.91406 0.82031 0.75391 0.95312-0.011718 1.1914 0.28516 1.1328 0.81641 0.8125 0.41797 1.1875 0.16797 1.2734 0.34375 1.207 0.76172 0.80469 0.375 1.0898 0.80078 0.69531 0.875 0.60938 0.89062-0.46875 0.97656-1.1289 0.49609-0.89844 0.28516-1.1016 0.71484-1.7773 1.4922-0.28516 1.4297 0.23438 1.8125 0.24219 1.0938 0.51953 0.70703 0.76953 1.0508 0.74609 1.043-0.22266 1.207-0.35547 1.4922-0.41797 1.1289-0.24219 1.2695 0.22656 1.0195-0.085938 0.97266 0.64062 0.96094 0.78906 0.86328 0.66016 0.48438 1.0508 0.070312 1.043 0.10938 1.0156 0.20703 1.082 0.83203 0.83203 1.1836 0.26953 0.96875 0.26953 0.4375 0.98828-0.10156 1.3398 0.77734 0.76562 0.80859 0.83203 0.015625 1.082-0.89062 0.76172-1.0898 0.51172-0.28906 1.0195-0.35938 1.0625-0.29297 1.3477 0.66406 0.91797 1.0391 0.66406 0.91406 0.65625 0.90234 0.49219 0.95312 0.62109 1.1719 0.49609 0.98438-0.34766 1.2461-0.023437 0.875 0.80859 1.4102 0.49609 1.1562 0.64844 1.1914 0.14844 3.082 0.67188 0.99609 0.15234 1.3828 0.23047 1.1719 0.22656 1.2773 0.32031 1.207-0.027344 0.92969-0.41406 0.76172-1.1562 0.43359-1.0391-0.21094-1.1758-0.70312-1.3828-0.15625-1.3672 0.16016-1.1211 0.39844-0.95312-0.054688-1.1602-0.36328-1.1133-0.51172-1.0391-0.34375-1.207-0.17969-1.3516 0.29297-1.1094-0.55078-0.92969-0.42188-0.91797-0.26953-1.2344-0.38672-1.043-0.6875-0.8125 0.007813-1.0078 1.5391-0.56641 1.0117-0.36719 1.2109 0.46484 0.93359 0.71094 1.0469-0.48047 0.92188-0.62109 1.2461-0.23438 1.2305 0.17969 1.4219 0.13672 0.99609-0.18359 0.76562-0.69141 0.69922-0.99219 1.0352-0.77734 0.71484-0.875 0.59766-0.9375 0.74219-0.84375 0.65234-0.86328-1.1367-0.92578-1.5273-0.25391-1.0625-0.52344-0.54297-1.2344-0.21875-1.0234-0.51172-0.95312-0.76172-1.4492-0.55469-0.9375-0.75-1.4766-0.55859-1.0898-0.70703-1.1328-0.51953-1.0547-0.46484-0.90625-0.19922-1.0156 0.74219-1.7031 1.0664-1.1719 1.8008-1.3047 0.5625-1.1445 0.38672-1.1953-1.0273-0.48047-0.91016-0.70312-1.2656-0.19141-1.207-0.26953-1.293-0.011719-1.1445-0.41406-1.1914-0.44141-0.82031-0.87891-0.94141-0.94531-0.96094-0.72656-1.3555-0.28516-1.5625-0.44141-0.625-0.84375 0.49219-1.4102-0.51562-1.2969-0.79688-1.4023-0.30859-1.0703 0.14453-1.1445 0.17969-1.1758-0.70312-1.1211-0.73828-0.98047-0.86328-1.1992-0.21484-1.1055 0.074219-1.4414-0.53906-1.1406-0.79297-1.3711-0.63281-0.91797-0.58594-0.90234-0.45703-1.0273-0.94141-0.91406-1.1172-0.64844-0.75781-0.97266-1.0117-0.83984-0.89062-1.0508-1.2344-0.60156-0.59766-1.4414-0.83594-0.70312-1.0195-0.68359-0.875-0.82812-1.293-2.0039-1.0273-1.1445-0.89453-0.88281-1.3633-0.8125 0.39453-1.1094 0.48828-1.1914 0.30859-0.97266 0.38281-0.94141 0.45312-0.97266 0.99219-0.73047 0.94922-0.44141 1.8477-0.36719 1.5625 0.082031 1.0586 0.097656 0.99219-1.0078 0.72266-0.70703 1.1406-0.54297 0.625-0.88281 1.0781-0.14844 1.0742-0.35938 0.77344-0.67969 0.86328-1.1133 0.023437-1.2617 1.043-0.99219 0.97656-0.24219 1.0742-0.039062 1.3164 0.36719 1.3281 0.058594 1.25-0.19922 1.1641-0.68359 0.91797-0.75781 0.71484-0.73828 0.86328-0.55859 1.4844-0.074219 1.0742 0.26953 1 0.51172 0.87891-0.51953 1.2695-0.88672 1.0195-0.53906 1.1328-0.4375 1.2695-0.56641 0.87891-1.1367 0.64062-1.125 0.55078-0.91016-0.35156-1.4062-0.17188-1.2031 0.73828-1.0156 0.82812-0.94922 1.2188-0.85547 1.7695 0.51172 0.89453 0.76172 0.79688 0.73047 1.0078 0.19922 1.1797-0.089844 1.0156-0.23047 1.0117-0.56641 1.2227 0.17969 0.50781-0.92188 0.31641-0.94922-0.09375-1.043-0.11328-1.1953-0.25391-1.2852 0.15625-1.0781 0.61719-1.0977 0.58984-1.1445 0.80859-1.0508 1.1406-0.18359 0.97266-0.29688 1.2109-0.074219 1.1016 0.007813 0.36328-0.99219 0.76172-0.96094 0.99609-0.65234 0.94141-0.66406 1.1172-0.16797 1.1289 0.089844 0.73438-0.82031 0.23047-1.1797 0.070312-1.2578 0.68359-0.99609 0.80469-0.79688 1.0977-0.30078 0.75-0.76953 0.10547-1.3398 0.66406-0.875 0.57031-0.86328 0.57812-0.91016 0.44922 0.035156" fill="none" stroke="#fff" stroke-linecap="round" stroke-linejoin="round" stroke-miterlimit="10" stroke-width="2"/>
<path d="m277.5 65.535 0.28125 0.62109 0.61328 0.97656 0.32422 1.4453 0.85938 0.8125 0.27734 1.2695 0.32812 1.4023 0.085938 1.2031 0.54688 1.2344 0.082031 1.3477-0.11328 1.2969-0.49219 1.4023 0.76953 0.78516 1.1289-0.035156 1.3438 0.25 0.91406 0.60156 0.50391 0.98438-0.19531 1.2188-0.26562 1.2109 0.15625 1.4023 1.0781 1.457 0.16406 1.1289 0.71094 1.2773-0.050781 1.0664-0.75391 0.86328-0.20312 1.2734-0.17578 1.3906-0.27734 1.7305-0.81641 1.5664-0.35547 0.96875 1.0078 0.28125 1.1719 0.44141 1.0938 0.82812 1.2617 0.24219 1.1602-0.75 1.1836-0.60547 1.1602-0.23047 0.29688 1.3594 0.71484 0.95703 1.4766 0.29688 1.0703 0.25391 0.089843 1.3711 0.003907 1.125 0.13281 1.1445 0.32422 1.1172 0.57812 0.93359 0.51953 0.86719 0.63281 0.97266 0.77344 1.1523 0.43359 1.3477 0.39453 1.3164 1.2852 1.4336 0.92188 0.42578 1.2148 0.50391 1.1367 0.38281 1.2734 0.26562 1.2266 0.48047 0.94141 0.46094 0.88672 0.55859 0.79688 0.67578 1.0117 1.0117 0.26172 1.3906-0.41406 0.96094-0.46484 1.1016 0.29688 1.5078 0.070313 1.2188-0.11719 1.6523-0.16016 1.2383 0.45312 1.4414-0.17188 1.1055 0.6875 0.82031 0.45312 1.2383 0.26953 1.2344 0.42188 0.91797 0.55078 0.92969-0.29297 1.1094 0.17969 1.3516 0.34375 1.207 0.51172 1.0391 0.36328 1.1133 0.054688 1.1602-0.39844 0.95312-0.16016 1.1211 0.066406 1.0742 0.66016 1.2344 0.19531 1.0039-0.054688 1.1172-0.55469 1.043-0.86328 0.85938-1.7109 0.23047-1.2773-0.32031-1.1719-0.22656-1.2305-0.21094-1.1484-0.17188-2.3203-0.23828-1.4883-0.55469-1.0742-0.27734-1.2148-0.54297-1.0078-0.56641-0.92578-0.71484-1.3086 0.44141-1.1484-0.25391-1.1133-0.55469-1.3711-0.75-0.91406-0.65625-1.0391-0.66406-0.66406-0.91797 0.19531-1.0547 0.42578-1.0938 0.23047-1.125 0.94922-0.62891 1.1211-0.80078-0.015625-1.082-0.80859-0.83203-0.77734-0.76562 0.050781-1-0.38672-1.3281-0.96875-0.26953-1.1836-0.26953-0.83203-0.67188-0.13672-1.1016-0.17969-1.1562-0.070312-1.043-0.42188-0.98438-0.92578-0.72656-0.96094-0.78906-0.97266-0.64062-1.0195 0.085938-1.2695-0.22656-1.1289 0.24219-1.2852 0.35547-0.98047 0.32422-1.4766 0.31641-1.0508-0.74609-0.6875-0.72656-1.1133-0.5625-1.8125-0.24219-1.4297-0.23438h-1.1875l-0.75 1.3711-0.44141 1.3477-0.375 0.96875-0.73828 1.0039-0.77734 0.79688-0.99219-0.16406-0.94531-0.60156-0.54297-1.1562-0.6875-0.86328-0.48828-0.875-0.15625-1.1602-0.14453-1.25-0.83594-1.0195-0.625-0.78125 0.039063-1.1094-0.19531-1.1562-0.72266-0.87891-1.418-1.1602-1.4844-1.2617-0.61719-0.82812-0.71094-0.98047-1.2891-0.83984 0.023437-1.0156-0.58594-0.83203-0.60156-1.2695-0.30469-1.043-0.22266-1.3125-0.042969-1.3242 0.050781-1.0977 0.17188-1.2578-0.42188-1.1797-0.88672-1.3828-0.70703-1.0195 0.042969-1.0078 0.82031-0.59375 1.1719-0.80859 0.98438-0.94141 0.64453-0.82422 0.80859-0.62109 1.1367 0.015625 1.2734-0.52344 0.56641-0.90234 0.70703-2.7656-0.86328-1.5078-0.29688-1.582 0.26562-0.96484 0.84766-1.0586 1.1641-0.32812 1.1016-0.085938 1.0078-0.24219 1.0508-0.31641 0.66406-1.1211 0.41406-1.0586 1.1055-0.78906 0.41797-1.0391-0.027343-2.1055-0.03125-1.2734 0.69141-0.90625 0.63281-1.5859 1.0078-0.98438 0.92969-0.49609 0.97266-0.60547 0.64844-1.0156 0.078125-1.6289-0.25781-1.2734-0.10938-1.043 0.29688-1.4609 0.94922-0.51953 1.1641-0.097657 1.1367-0.4375 1.457-0.73828 0.69141-0.83594z" fill="#ccc" fill-rule="evenodd"/>
<path d="m277.5 65.535 0.28125 0.62109 0.61328 0.97656 0.32422 1.4453 0.85938 0.8125 0.27734 1.2695 0.32812 1.4023 0.085938 1.2031 0.54688 1.2344 0.082031 1.3477-0.11328 1.2969-0.49219 1.4023 0.76953 0.78516 1.1289-0.035156 1.3438 0.25 0.91406 0.60156 0.50391 0.98438-0.19531 1.2188-0.26562 1.2109 0.15625 1.4023 1.0781 1.457 0.16406 1.1289 0.71094 1.2773-0.050781 1.0664-0.75391 0.86328-0.20312 1.2734-0.17578 1.3906-0.27734 1.7305-0.81641 1.5664-0.35547 0.96875 1.0078 0.28125 1.1719 0.44141 1.0938 0.82812 1.2617 0.24219 1.1602-0.75 1.1836-0.60547 1.1602-0.23047 0.29688 1.3594 0.71484 0.95703 1.4766 0.29688 1.0703 0.25391 0.089843 1.3711 0.003907 1.125 0.13281 1.1445 0.32422 1.1172 0.57812 0.93359 0.51953 0.86719 0.63281 0.97266 0.77344 1.1523 0.43359 1.3477 0.39453 1.3164 1.2852 1.4336 0.92188 0.42578 1.2148 0.50391 1.1367 0.38281 1.2734 0.26562 1.2266 0.48047 0.94141 0.46094 0.88672 0.55859 0.79688 0.67578 1.0117 1.0117 0.26172 1.3906-0.41406 0.96094-0.46484 1.1016 0.29688 1.5078 0.070313 1.2188-0.11719 1.6523-0.16016 1.2383 0.45312 1.4414-0.17188 1.1055 0.6875 0.82031 0.45312 1.2383 0.26953 1.2344 0.42188 0.91797 0.55078 0.92969-0.29297 1.1094 0.17969 1.3516 0.34375 1.207 0.51172 1.0391 0.36328 1.1133 0.054688 1.1602-0.39844 0.95312-0.16016 1.1211 0.066406 1.0742 0.66016 1.2344 0.19531 1.0039-0.054688 1.1172-0.55469 1.043-0.86328 0.85938-1.7109 0.23047-1.2773-0.32031-1.1719-0.22656-1.2305-0.21094-1.1484-0.17188-2.3203-0.23828-1.4883-0.55469-1.0742-0.27734-1.2148-0.54297-1.0078-0.56641-0.92578-0.71484-1.3086 0.44141-1.1484-0.25391-1.1133-0.55469-1.3711-0.75-0.91406-0.65625-1.0391-0.66406-0.66406-0.91797 0.19531-1.0547 0.42578-1.0938 0.23047-1.125 0.94922-0.62891 1.1211-0.80078-0.015625-1.082-0.80859-0.83203-0.77734-0.76562 0.050781-1-0.38672-1.3281-0.96875-0.26953-1.1836-0.26953-0.83203-0.67188-0.13672-1.1016-0.17969-1.1562-0.070312-1.043-0.42188-0.98438-0.92578-0.72656-0.96094-0.78906-0.97266-0.64062-1.0195 0.085938-1.2695-0.22656-1.1289 0.24219-1.2852 0.35547-0.98047 0.32422-1.4766 0.31641-1.0508-0.74609-0.6875-0.72656-1.1133-0.5625-1.8125-0.24219-1.4297-0.23438h-1.1875l-0.75 1.3711-0.44141 1.3477-0.375 0.96875-0.73828 1.0039-0.77734 0.79688-0.99219-0.16406-0.94531-0.60156-0.54297-1.1562-0.6875-0.86328-0.48828-0.875-0.15625-1.1602-0.14453-1.25-0.83594-1.0195-0.625-0.78125 0.039063-1.1094-0.19531-1.1562-0.72266-0.87891-1.418-1.1602-1.4844-1.2617-0.61719-0.82812-0.71094-0.98047-1.2891-0.83984 0.023437-1.0156-0.58594-0.83203-0.60156-1.2695-0.30469-1.043-0.22266-1.3125-0.042969-1.3242 0.050781-1.0977 0.17188-1.2578-0.42188-1.1797-0.88672-1.3828-0.70703-1.0195 0.042969-1.0078 0.82031-0.59375 1.1719-0.80859 0.98438-0.94141 0.64453-0.82422 0.80859-0.62109 1.1367 0.015625 1.2734-0.52344 0.56641-0.90234 0.70703-2.7656-0.86328-1.5078-0.29688-1.582 0.26562-0.96484 0.84766-1.0586 1.1641-0.32812 1.1016-0.085938 1.0078-0.24219 1.0508-0.31641 0.66406-1.1211 0.41406-1.0586 1.1055-0.78906 0.41797-1.0391-0.027343-2.1055-0.03125-1.2734 0.69141-0.90625 0.63281-1.5859 1.0078-0.98438 0.92969-0.49609 0.97266-0.60547 0.64844-1.0156 0.078125-1.6289-0.25781-1.2734-0.10938-1.043 0.29688-1.4609 0.94922-0.51953 1.1641-0.097657 1.1367-0.4375 1.457-0.73828 0.69141-0.83594 0.56641 0.21484" fill="none" stroke="#fff" stroke-linecap="round" stroke-linejoin="round" stroke-miterlimit="10" stroke-width="2"/>
<path d="m286.85 62.469 0.0625 0.042969 1.2266 0.63672 1.1133 1.0078 0.8125 0.8125 1.7969 1.957 0.44922 1.1289 0.6875 0.89453 1.1133 0.33203 1.0273 1.3281 0.5625 1.0078 1.4961 0.81641 0.69922 0.89844 0.98828 0.83984 0.61719 0.95312 1.1211 0.85938 0.81641 0.62891 0.66797 1.457 0.78906 1.1211 0.70312 0.79688 0.49609 1.2969 0.21094 1.3281-0.070313 1.2305 0.5 1.1211 1.1406 1.2812 0.60547 1.0781 0.10938 1.1641-0.24219 1.3828 0.30859 1.0703 0.79688 1.4023 0.47266 0.96094-0.125 1.3242-0.40625 0.96484 1.582 0.44922 1.7148 0.42578 0.87891 0.62109 0.87891 0.79688 1.2031 1.2266 1.2812 0.5 1.1445 0.41406 1.293 0.011719 1.082 0.19922 1.1016 0.19141 1.0117 0.66406 0.97656 0.25-0.066406 1.25-0.64453 1.4297-1.8008 1.3047-1.0664 1.1719-0.66406 1.1289-0.039063 1.0977 0.41406 0.96094 0.47656 0.94531 0.57422 1.1328 0.64062 1.0273 0.75391 1.543 0.85547 1.4805 0.49609 1.0703 0.77734 1.332 0.21875 1.0234 0.41016 1.0898 0.97656 0.58594 0.98438 0.23438 1.3867 0.22266 0.40234 1.0547-0.93359 0.99609-0.57031 0.87891-0.73438 1.0352-0.89844 0.73828-0.83594 0.81641-0.79688 0.99219-1.3242 0.45703-1.4219-0.13672-1.2305-0.17969-1.1562 0.23438-1.0117 0.62109-1.043 0.48047-0.90234-0.62109-0.9375-0.54688-1.3203 0.35938-1.1133-0.015625-0.78125-1.1602 0.16016-1.2383 0.003906-1.082 0.31641-1.0312-0.33984-1.3438-0.17969-1.1953 0.60156-1.3906 0.25781-1.0625-0.67969-1.1328-0.94141-0.78906-0.91016-0.77734-1.1797-0.60156-1.0742-0.39453-1.1055-0.50391-1.6758-0.36328-1.2148-0.50391-0.92188-0.42578-1.0625-1.0547-0.5625-1.3203-0.19922-1.0039-0.43359-1.1719-0.76953-0.83203-0.58203-1.043-0.66016-1.0117-0.54688-1.1445-0.26953-1.1172 0.007812-1.7109-0.003906-1.2109-1.1562-0.41406-1.1836-0.20703-0.96094-0.71094-0.050781-1.3125-1.4531-0.15234-1.1836 0.60547-0.875 0.70703-1.2695-0.13672-1.3711-0.89062-1.1719-0.44141-1.0078-0.28125 0.35547-0.96875 0.73828-1.2734 0.19922-1.082 0.37109-1.7695 0.070312-1.5977 0.72656-0.99219 0.17188-1.1758-0.56641-0.9375-0.30859-1.4688-1.0781-1.457-0.15625-1.4023 0.26562-1.2109 0.19922-1.1133-0.50781-1.0898-0.91406-0.60156-1.3438-0.25-1.1289 0.035156-0.76953-0.78516 0.38672-1.0625 0.082031-1.2695 0.17969-1.1562-0.097657-1.0234-0.58984-1.1367-0.33594-1.543 0.066406-1.3555-0.73047-0.81641-0.76172-1.4648-0.30469-1.043-0.6875-1.1406 0.4375-0.94531 1.5234-0.30859 1.1445-0.77734 1.0938-0.34375 1.1523-0.25 1.3281-0.32031 1.3203-0.17969z" fill="#ccc" fill-rule="evenodd"/>
<path d="m286.85 62.469 0.0625 0.042969 1.2266 0.63672 1.1133 1.0078 0.8125 0.8125 1.7969 1.957 0.44922 1.1289 0.6875 0.89453 1.1133 0.33203 1.0273 1.3281 0.5625 1.0078 1.4961 0.81641 0.69922 0.89844 0.98828 0.83984 0.61719 0.95312 1.1211 0.85938 0.81641 0.62891 0.66797 1.457 0.78906 1.1211 0.70312 0.79688 0.49609 1.2969 0.21094 1.3281-0.070313 1.2305 0.5 1.1211 1.1406 1.2812 0.60547 1.0781 0.10938 1.1641-0.24219 1.3828 0.30859 1.0703 0.79688 1.4023 0.47266 0.96094-0.125 1.3242-0.40625 0.96484 1.582 0.44922 1.7148 0.42578 0.87891 0.62109 0.87891 0.79688 1.2031 1.2266 1.2812 0.5 1.1445 0.41406 1.293 0.011719 1.082 0.19922 1.1016 0.19141 1.0117 0.66406 0.97656 0.25-0.066406 1.25-0.64453 1.4297-1.8008 1.3047-1.0664 1.1719-0.66406 1.1289-0.039063 1.0977 0.41406 0.96094 0.47656 0.94531 0.57422 1.1328 0.64062 1.0273 0.75391 1.543 0.85547 1.4805 0.49609 1.0703 0.77734 1.332 0.21875 1.0234 0.41016 1.0898 0.97656 0.58594 0.98438 0.23438 1.3867 0.22266 0.40234 1.0547-0.93359 0.99609-0.57031 0.87891-0.73438 1.0352-0.89844 0.73828-0.83594 0.81641-0.79688 0.99219-1.3242 0.45703-1.4219-0.13672-1.2305-0.17969-1.1562 0.23438-1.0117 0.62109-1.043 0.48047-0.90234-0.62109-0.9375-0.54688-1.3203 0.35938-1.1133-0.015625-0.78125-1.1602 0.16016-1.2383 0.003906-1.082 0.31641-1.0312-0.33984-1.3438-0.17969-1.1953 0.60156-1.3906 0.25781-1.0625-0.67969-1.1328-0.94141-0.78906-0.91016-0.77734-1.1797-0.60156-1.0742-0.39453-1.1055-0.50391-1.6758-0.36328-1.2148-0.50391-0.92188-0.42578-1.0625-1.0547-0.5625-1.3203-0.19922-1.0039-0.43359-1.1719-0.76953-0.83203-0.58203-1.043-0.66016-1.0117-0.54688-1.1445-0.26953-1.1172 0.007812-1.7109-0.003906-1.2109-1.1562-0.41406-1.1836-0.20703-0.96094-0.71094-0.050781-1.3125-1.4531-0.15234-1.1836 0.60547-0.875 0.70703-1.2695-0.13672-1.3711-0.89062-1.1719-0.44141-1.0078-0.28125 0.35547-0.96875 0.73828-1.2734 0.19922-1.082 0.37109-1.7695 0.070312-1.5977 0.72656-0.99219 0.17188-1.1758-0.56641-0.9375-0.30859-1.4688-1.0781-1.457-0.15625-1.4023 0.26562-1.2109 0.19922-1.1133-0.50781-1.0898-0.91406-0.60156-1.3438-0.25-1.1289 0.035156-0.76953-0.78516 0.38672-1.0625 0.082031-1.2695 0.17969-1.1562-0.097657-1.0234-0.58984-1.1367-0.33594-1.543 0.066406-1.3555-0.73047-0.81641-0.76172-1.4648-0.30469-1.043-0.6875-1.1406 0.4375-0.94531 1.5234-0.30859 1.1445-0.77734 1.0938-0.34375 1.1523-0.25 1.3281-0.32031 1.3203-0.17969 1.3477 0.058594" fill="none" stroke="#fff" stroke-linecap="round" stroke-linejoin="round" stroke-miterlimit="10" stroke-width="2"/>
<path d="m286.85 62.469 0.0625 0.042969 1.2266 0.63672 1.1133 1.0078 0.8125 0.8125 1.7969 1.957 0.44922 1.1289 0.6875 0.89453 1.1133 0.33203 1.0273 1.3281 0.5625 1.0078 1.4961 0.81641 0.69922 0.89844 0.98828 0.83984 0.61719 0.95312 1.1211 0.85938 0.81641 0.62891 0.66797 1.457 0.78906 1.1211 0.70312 0.79688 0.49609 1.2969 0.21094 1.3281-0.070313 1.2305 0.5 1.1211 1.1406 1.2812 0.60547 1.0781 0.10938 1.1641-0.24219 1.3828 0.30859 1.0703 0.79688 1.4023 0.47266 0.96094-0.125 1.3242-0.40625 0.96484 1.582 0.44922 1.7148 0.42578 0.87891 0.62109 0.87891 0.79688 1.2031 1.2266 1.2812 0.5 1.1445 0.41406 1.293 0.011719 1.082 0.19922 1.1016 0.19141 1.0117 0.66406 0.97656 0.25-0.066406 1.25-0.64453 1.4297-1.8008 1.3047-1.0664 1.1719-0.66406 1.1289-0.039063 1.0977 0.41406 0.96094 0.47656 0.94531 0.57422 1.1328 0.64062 1.0273 0.75391 1.543 0.85547 1.4805 0.49609 1.0703 0.77734 1.332 0.21875 1.0234 0.41016 1.0898 0.97656 0.58594 0.98438 0.23438 1.3867 0.22266 0.40234 1.0547-0.93359 0.99609-0.57031 0.87891-0.73438 1.0352-0.89844 0.73828-0.83594 0.81641-0.79688 0.99219-1.3242 0.45703-1.4219-0.13672-1.2305-0.17969-1.1562 0.23438-1.0117 0.62109-1.043 0.48047-0.90234-0.62109-0.9375-0.54688-1.3203 0.35938-1.1133-0.015625-0.78125-1.1602 0.16016-1.2383 0.003906-1.082 0.31641-1.0312-0.33984-1.3438-0.17969-1.1953 0.60156-1.3906 0.25781-1.0625-0.67969-1.1328-0.94141-0.78906-0.91016-0.77734-1.1797-0.60156-1.0742-0.39453-1.1055-0.50391-1.6758-0.36328-1.2148-0.50391-0.92188-0.42578-1.0625-1.0547-0.5625-1.3203-0.19922-1.0039-0.43359-1.1719-0.76953-0.83203-0.58203-1.043-0.66016-1.0117-0.54688-1.1445-0.26953-1.1172 0.007812-1.7109-0.003906-1.2109-1.1562-0.41406-1.1836-0.20703-0.96094-0.71094-0.050781-1.3125-1.4531-0.15234-1.1836 0.60547-0.875 0.70703-1.2695-0.13672-1.3711-0.89062-1.1719-0.44141-1.0078-0.28125 0.35547-0.96875 0.73828-1.2734 0.19922-1.082 0.37109-1.7695 0.070312-1.5977 0.72656-0.99219 0.17188-1.1758-0.56641-0.9375-0.30859-1.4688-1.0781-1.457-0.15625-1.4023 0.26562-1.2109 0.19922-1.1133-0.50781-1.0898-0.91406-0.60156-1.3438-0.25-1.1289 0.035156-0.76953-0.78516 0.38672-1.0625 0.082031-1.2695 0.17969-1.1562-0.097657-1.0234-0.58984-1.1367-0.33594-1.543 0.066406-1.3555-0.73047-0.81641-0.76172-1.4648-0.30469-1.043-0.6875-1.1406 0.4375-0.94531 1.5234-0.30859 1.1445-0.77734 1.0938-0.34375 1.1523-0.25 1.3281-0.32031 1.3203-0.17969z" fill="#0a5394" fill-rule="evenodd"/>
<path d="m286.85 62.469 0.0625 0.042969 1.2266 0.63672 1.1133 1.0078 0.8125 0.8125 1.7969 1.957 0.44922 1.1289 0.6875 0.89453 1.1133 0.33203 1.0273 1.3281 0.5625 1.0078 1.4961 0.81641 0.69922 0.89844 0.98828 0.83984 0.61719 0.95312 1.1211 0.85938 0.81641 0.62891 0.66797 1.457 0.78906 1.1211 0.70312 0.79688 0.49609 1.2969 0.21094 1.3281-0.070313 1.2305 0.5 1.1211 1.1406 1.2812 0.60547 1.0781 0.10938 1.1641-0.24219 1.3828 0.30859 1.0703 0.79688 1.4023 0.47266 0.96094-0.125 1.3242-0.40625 0.96484 1.582 0.44922 1.7148 0.42578 0.87891 0.62109 0.87891 0.79688 1.2031 1.2266 1.2812 0.5 1.1445 0.41406 1.293 0.011719 1.082 0.19922 1.1016 0.19141 1.0117 0.66406 0.97656 0.25-0.066406 1.25-0.64453 1.4297-1.8008 1.3047-1.0664 1.1719-0.66406 1.1289-0.039063 1.0977 0.41406 0.96094 0.47656 0.94531 0.57422 1.1328 0.64062 1.0273 0.75391 1.543 0.85547 1.4805 0.49609 1.0703 0.77734 1.332 0.21875 1.0234 0.41016 1.0898 0.97656 0.58594 0.98438 0.23438 1.3867 0.22266 0.40234 1.0547-0.93359 0.99609-0.57031 0.87891-0.73438 1.0352-0.89844 0.73828-0.83594 0.81641-0.79688 0.99219-1.3242 0.45703-1.4219-0.13672-1.2305-0.17969-1.1562 0.23438-1.0117 0.62109-1.043 0.48047-0.90234-0.62109-0.9375-0.54688-1.3203 0.35938-1.1133-0.015625-0.78125-1.1602 0.16016-1.2383 0.003906-1.082 0.31641-1.0312-0.33984-1.3438-0.17969-1.1953 0.60156-1.3906 0.25781-1.0625-0.67969-1.1328-0.94141-0.78906-0.91016-0.77734-1.1797-0.60156-1.0742-0.39453-1.1055-0.50391-1.6758-0.36328-1.2148-0.50391-0.92188-0.42578-1.0625-1.0547-0.5625-1.3203-0.19922-1.0039-0.43359-1.1719-0.76953-0.83203-0.58203-1.043-0.66016-1.0117-0.54688-1.1445-0.26953-1.1172 0.007812-1.7109-0.003906-1.2109-1.1562-0.41406-1.1836-0.20703-0.96094-0.71094-0.050781-1.3125-1.4531-0.15234-1.1836 0.60547-0.875 0.70703-1.2695-0.13672-1.3711-0.89062-1.1719-0.44141-1.0078-0.28125 0.35547-0.96875 0.73828-1.2734 0.19922-1.082 0.37109-1.7695 0.070312-1.5977 0.72656-0.99219 0.17188-1.1758-0.56641-0.9375-0.30859-1.4688-1.0781-1.457-0.15625-1.4023 0.26562-1.2109 0.19922-1.1133-0.50781-1.0898-0.91406-0.60156-1.3438-0.25-1.1289 0.035156-0.76953-0.78516 0.38672-1.0625 0.082031-1.2695 0.17969-1.1562-0.097657-1.0234-0.58984-1.1367-0.33594-1.543 0.066406-1.3555-0.73047-0.81641-0.76172-1.4648-0.30469-1.043-0.6875-1.1406 0.4375-0.94531 1.5234-0.30859 1.1445-0.77734 1.0938-0.34375 1.1523-0.25 1.3281-0.32031 1.3203-0.17969 1.3477 0.058594" fill="none" stroke="#fff" stroke-linecap="round" stroke-linejoin="round" stroke-miterlimit="10"/>
<path d="m315.39 110.98c0 3.5898-2.9102 6.5-6.5 6.5s-6.5-2.9102-6.5-6.5 2.9102-6.5 6.5-6.5 6.5 2.9102 6.5 6.5" fill="#28c028" fill-rule="evenodd" stroke="#000" stroke-linecap="round" stroke-linejoin="round" stroke-miterlimit="10"/>
<path d="m206.15 104.98v-16.469h4.9844l2.9844 11.234 2.9531-11.234h4.9844v16.469h-3.0938v-12.953l-3.2656 12.953h-3.2031l-3.25-12.953v12.953zm19.188-16.469h3.3125v8.9219c0 1.418 0.039062 2.3359 0.125 2.75 0.14453 0.67969 0.48438 1.2188 1.0156 1.625 0.53906 0.40625 1.2734 0.60938 2.2031 0.60938 0.9375 0 1.6445-0.19141 2.125-0.57812 0.47656-0.38281 0.76562-0.85938 0.85938-1.4219 0.10156-0.5625 0.15625-1.4922 0.15625-2.7969v-9.1094h3.3281v8.6562c0 1.9688-0.09375 3.3672-0.28125 4.1875-0.17969 0.8125-0.50781 1.5-0.98438 2.0625-0.48047 0.5625-1.125 1.0117-1.9375 1.3438s-1.8711 0.5-3.1719 0.5c-1.5742 0-2.7656-0.18359-3.5781-0.54688s-1.4531-0.83203-1.9219-1.4062c-0.46875-0.58203-0.77734-1.1914-0.92188-1.8281-0.21875-0.94531-0.32812-2.3438-0.32812-4.1875zm27.156 10.422 3.2344 1.0156c-0.5 1.793-1.3281 3.125-2.4844 4-1.1484 0.875-2.6016 1.3125-4.3594 1.3125-2.1875 0-3.9844-0.74219-5.3906-2.2344-1.4062-1.5-2.1094-3.5469-2.1094-6.1406 0-2.7383 0.70312-4.8633 2.1094-6.375 1.4141-1.5195 3.2812-2.2812 5.5938-2.2812 2.0078 0 3.6445 0.60156 4.9062 1.7969 0.75 0.69922 1.3125 1.7109 1.6875 3.0312l-3.2969 0.78125c-0.19922-0.85156-0.60547-1.5234-1.2188-2.0156-0.61719-0.5-1.3672-0.75-2.25-0.75-1.2188 0-2.2109 0.4375-2.9688 1.3125-0.76172 0.875-1.1406 2.2969-1.1406 4.2656 0 2.0742 0.375 3.5547 1.125 4.4375 0.75 0.88672 1.7227 1.3281 2.9219 1.3281 0.88281 0 1.6445-0.28125 2.2812-0.84375 0.63281-0.5625 1.0859-1.4414 1.3594-2.6406zm6.1719 6.0469v-16.328h3.3281v13.547h8.2656v2.7812zm14.047 0v-16.328h3.3281v13.547h8.2656v2.7812zm13.281-8.125c0-1.6758 0.25-3.0859 0.75-4.2344 0.375-0.83203 0.88281-1.582 1.5312-2.25 0.64453-0.66406 1.3516-1.1602 2.125-1.4844 1.0312-0.4375 2.2188-0.65625 3.5625-0.65625 2.4141 0 4.3516 0.75781 5.8125 2.2656 1.457 1.5 2.1875 3.5938 2.1875 6.2812 0 2.6562-0.72656 4.7344-2.1719 6.2344-1.4375 1.5-3.3711 2.25-5.7969 2.25-2.4492 0-4.3984-0.74219-5.8438-2.2344-1.4375-1.5-2.1562-3.5547-2.1562-6.1719zm3.4219-0.125c0 1.8672 0.42969 3.2812 1.2969 4.25 0.86328 0.96094 1.957 1.4375 3.2812 1.4375 1.3203 0 2.4062-0.47266 3.25-1.4219 0.85156-0.95703 1.2812-2.3906 1.2812-4.2969 0-1.8945-0.41797-3.3047-1.25-4.2344-0.82422-0.92578-1.918-1.3906-3.2812-1.3906-1.375 0-2.4844 0.47656-3.3281 1.4219-0.83594 0.9375-1.25 2.3516-1.25 4.2344zm0 0" fill="none" stroke="#fff" stroke-linecap="round" stroke-linejoin="round" stroke-miterlimit="10" stroke-width="2"/>
<path d="m206.15 104.98v-16.469h4.9844l2.9844 11.234 2.9531-11.234h4.9844v16.469h-3.0938v-12.953l-3.2656 12.953h-3.2031l-3.25-12.953v12.953zm19.188-16.469h3.3125v8.9219c0 1.418 0.039062 2.3359 0.125 2.75 0.14453 0.67969 0.48438 1.2188 1.0156 1.625 0.53906 0.40625 1.2734 0.60938 2.2031 0.60938 0.9375 0 1.6445-0.19141 2.125-0.57812 0.47656-0.38281 0.76562-0.85938 0.85938-1.4219 0.10156-0.5625 0.15625-1.4922 0.15625-2.7969v-9.1094h3.3281v8.6562c0 1.9688-0.09375 3.3672-0.28125 4.1875-0.17969 0.8125-0.50781 1.5-0.98438 2.0625-0.48047 0.5625-1.125 1.0117-1.9375 1.3438s-1.8711 0.5-3.1719 0.5c-1.5742 0-2.7656-0.18359-3.5781-0.54688s-1.4531-0.83203-1.9219-1.4062c-0.46875-0.58203-0.77734-1.1914-0.92188-1.8281-0.21875-0.94531-0.32812-2.3438-0.32812-4.1875zm27.156 10.422 3.2344 1.0156c-0.5 1.793-1.3281 3.125-2.4844 4-1.1484 0.875-2.6016 1.3125-4.3594 1.3125-2.1875 0-3.9844-0.74219-5.3906-2.2344-1.4062-1.5-2.1094-3.5469-2.1094-6.1406 0-2.7383 0.70312-4.8633 2.1094-6.375 1.4141-1.5195 3.2812-2.2812 5.5938-2.2812 2.0078 0 3.6445 0.60156 4.9062 1.7969 0.75 0.69922 1.3125 1.7109 1.6875 3.0312l-3.2969 0.78125c-0.19922-0.85156-0.60547-1.5234-1.2188-2.0156-0.61719-0.5-1.3672-0.75-2.25-0.75-1.2188 0-2.2109 0.4375-2.9688 1.3125-0.76172 0.875-1.1406 2.2969-1.1406 4.2656 0 2.0742 0.375 3.5547 1.125 4.4375 0.75 0.88672 1.7227 1.3281 2.9219 1.3281 0.88281 0 1.6445-0.28125 2.2812-0.84375 0.63281-0.5625 1.0859-1.4414 1.3594-2.6406zm6.1719 6.0469v-16.328h3.3281v13.547h8.2656v2.7812zm14.047 0v-16.328h3.3281v13.547h8.2656v2.7812zm13.281-8.125c0-1.6758 0.25-3.0859 0.75-4.2344 0.375-0.83203 0.88281-1.582 1.5312-2.25 0.64453-0.66406 1.3516-1.1602 2.125-1.4844 1.0312-0.4375 2.2188-0.65625 3.5625-0.65625 2.4141 0 4.3516 0.75781 5.8125 2.2656 1.457 1.5 2.1875 3.5938 2.1875 6.2812 0 2.6562-0.72656 4.7344-2.1719 6.2344-1.4375 1.5-3.3711 2.25-5.7969 2.25-2.4492 0-4.3984-0.74219-5.8438-2.2344-1.4375-1.5-2.1562-3.5547-2.1562-6.1719zm3.4219-0.125c0 1.8672 0.42969 3.2812 1.2969 4.25 0.86328 0.96094 1.957 1.4375 3.2812 1.4375 1.3203 0 2.4062-0.47266 3.25-1.4219 0.85156-0.95703 1.2812-2.3906 1.2812-4.2969 0-1.8945-0.41797-3.3047-1.25-4.2344-0.82422-0.92578-1.918-1.3906-3.2812-1.3906-1.375 0-2.4844 0.47656-3.3281 1.4219-0.83594 0.9375-1.25 2.3516-1.25 4.2344z" fill-rule="evenodd"/>
</g>
</svg>
