<?xml version="1.0" encoding="UTF-8"?>
<svg width="500pt" height="400pt" version="1.1" viewBox="0 0 500 400" xmlns="http://www.w3.org/2000/svg">
<g id="a">
<rect width="500" height="400" fill="none"/>
<path d="m178.47 138.04 0.34375 0.035156 1.1172 0.17578 1.957 1.5273 0.51953 0.94531-0.019531 1.8711 0.59766 2.0117 1.793 1.3828 1.2773 0.35938 0.94531 0.83203 0.75391 0.94531 0.26953 1.3555 0.44531 1.0156 1.3555-0.15625 1.2148-0.49609 1.1719 0.10547 0.85547 0.70312 0.83203 0.88672-0.10156 1.2383 0.003907 1.1133 0.003906 1.0195-0.14062 1.1367 0.5 0.89453 0.64453 0.88281 0.058594 1.207-0.074219 1.543-0.51172 1.7812-0.089843 1.3906 0.09375 1.1367 0.42188 1.1523 0.60547 0.86719 0.79297 0.86328 0.83984 1.0508 1.8945 0.9375 1.2031 0.66797 0.83984 0.91797 1.125 1.2812 0.93359 0.70703 1.3125 1.0078 1.1641 1.0078 0.82031 0.85156 0.85938 0.98828 0.39453 1.1406-0.33984 0.96094 0.32422 2.3711 0.09375 1.6602 0.55469 1.168 0.98828 1.0586 1.1797 1.1602 1.1914 0.74609 0.75781 0.78125 0.95312 2.1211 0.82812 1.2305 0.87891 0.87891 1.3555 1.0742 1.2773 1.4844 0.61719 1.9648v1.0156l-0.0625 1.2734-0.003906 1.8633 0.054687 1.2617-0.32422 1.8711-0.62891 0.85547-1.1289 0.59375-0.95312 0.49609-0.46094 1.2031-0.6875 1.0312-0.69922 1.5586-1.6875 1.0117-1.1719 0.72656-1.168 0.29297-1.1211 0.82422-0.60938 1.1445-0.33203 1.1914-1.1758 0.96875-0.80469 0.67188-0.039062 1.2227 2.1367 1.3828 3.1484 0.99219 1.3398 0.3125 1.3359 0.875 0.98047 0.84375 1.3945 2.0273 1.2734 1.2305 1.793 1.5742 0.79688 0.90625-0.046875 1.2852-1.0938 0.91797-1.1914 1.0625-2.4961 1.4648-1.2031 1.1523-0.63281 1.4492-1.0977 1.1172-1.0273 0.59766-1.1055 0.47266-0.4375 1.2188 0.46484 0.96094 0.79688 1.5195 0.58203 0.85938 0.64453 0.76953 0.86719 0.5625 2.8555 0.62109 1.0508 0.44531 5.8281 1.2383-0.48047 0.98047-0.90625 0.70703-0.69922 1.4766-0.61719 0.86719-0.94531 0.70703-0.31641 0.97266 0.35156 1.082 1.0273 1.0547 1.1055 1.4531-2.293 2.4219-1.8984 1.1836-2.1133 0.90625-0.92969 0.88672 0.21875 2.332-0.125 1.1602-1.1719 0.69531-1.25 0.042969-1.0391 0.30078-0.64844 1.1562 0.39844 1.9648 0.33594 1.0312 0.5 1.3359 0.38281 1.2109 0.375 1.0234 0.43359 1.2852 0.10938 1.0273-0.14844 1.2617-0.10938 1.6211-0.41406 1.0508-0.94531 0.33203-0.9375 0.40625-1.0742 0.16016-1.0938 0.57422-1 0.58984-1.0195 1.3438-0.70312 0.99219-0.53906 0.875-0.46484 0.94141-0.125 1.2031-1.832 1.9961-0.96875 0.84375-0.92188 0.86328-1.3047 0.074219-1.0664-0.14062-1.8281-0.47656-1.5391-0.77734-1.6016 0.11328-1.5547-0.035157-1.1914-0.10156-1.1133 0.19141-2.3008 0.22266-1.0508 0.050782-1.1914-0.14844-1.0469 0.19922-1.293-0.14062-2.1758-0.33984-1.0469 0.015625-1.6992-0.52734-1.8789-0.53516-1.1758-0.65234-1.0117-0.29297 14.363 17.656 11.234 19.809 6.2852 6.8789 0.77344 1.1367-0.31641 1.0547-0.67578 0.93359-0.027344 1.6836 0.59375 0.84375 1.2109 1.4805 1.6484 1.7344 0.92188 0.73047 1.3984 1 1.7891 1.1562 0.91016 0.86328 1.082 1.0039 0.61328 1.3242 0.77344 1.918 0.94141 2.4922 0.45312 0.90625 0.45703 0.90625 0.36719 0.97266-1.5859 1.4766-1.582 0.76562-2.2852 0.10938-1.3477-0.25781-1.5234-0.51172-1.418-0.74219-1.1523-0.84766-2.6445-0.53516-1.1055 0.19531-1.1953-0.039062-1.8555-1.1992-1.3203-0.054687-1.2031 1.1836-1.2852 0.49609-1.0547-0.21484-2.25-0.20703-1.7461 0.74219-1.2734 0.62109-1.0859 0.39062-1.2031 0.09375-1.8945-0.32422-1.8047-0.46484-1.4805-0.50781-1.6172-0.32422-1.9609 0.28125-0.84766 0.56641-0.5 1.0703-0.51562 1.3359-1.0391 1.2305-1.0156 0.59766-1.25 0.55859-0.80078 1.0742 0.30078 1.375 0.39062 0.97656 0.09375 1.2227-0.39453 1.0273-0.96875 0.46094-1.1367 0.035157-1.1562-0.125-1.0195 0.56641-0.60938 1.1172-0.65625 0.76953-0.95703 0.40234-1.2695-0.050781-1.3867-0.054687-1.6133 0.75781-0.97266 1.0039-0.95312 0.75-1.1992 0.32422-1.2539 0.30469-1.1367 0.33984-1.2891 0.25781-1.8047-0.16797-1.0195 0.34766-0.71094 0.80469-0.76953 1.3242-0.81641 1.6445-0.74219 1.2148-0.89453 0.85547-2.8359-1.2422-1.4258 0.15234-0.64062 0.90234-0.58984 1.2148-0.74609 0.97266-1.1719 0.38672-1.1562-0.59375-0.52344-1.0195-0.33594-0.95703-1.0352-0.16016-0.75391 0.85938-1.0781 0.82422-1.1758 0.33594-1.0625-1.3086-0.57031-0.84375-0.48047-1.0039-0.78516-0.68359-1.457-0.14062-1 0.14062-0.40625 1.082-0.26172 0.99609-0.74609 0.86719-1.0312 0.26562-1.457 0.375-1.1211 0.28125-0.78516 0.82422-0.67188 0.9375-1.2578 1.0742-1.0742 0.43359-1.332-0.89062-1.1328 0.24609-0.84375 0.78516-1.1875 1.457-1.043-0.17969-1.6875-0.96875-1-0.20312-1.1484 0.69531-1.082 0.83594-1.2969-0.65234-0.48438-0.92578-0.58984-1.8164-0.58984-0.94922-2.3008-1.9492-1.5391-1.3281-0.73047-1.0312-0.33203-1.1602-0.09375-1.1523-0.046875-1.0664-0.085937-1.1914-0.28906-1.0234-0.50391-0.99219-0.74609-0.70312-0.83594-0.69531-0.50781-0.86719-0.74219-0.94531-1-0.51953-0.80469-0.69922-0.23047-1.0547-0.33203-1.4062 0.015625-1.2188 0.085938-1.0859-0.09375-1-0.47656-1.7461-0.35156-1.0586-0.30469-1.3359-0.83203-0.75-0.91797-0.86719-1.3438-0.56641-1.125-0.16406-1.0039-0.47656-0.98047-0.80078-0.90625-0.94531-0.32422-0.98047-1.0508 0.50391-0.77344-0.75-1.1094-0.84766-0.66797-0.80078-0.375-1.0469-1.2656-0.73438-0.90234-0.62109-1.793-1.0625-0.074219-1.0781 0.87891-0.59375 0.32422-1.2852-0.45703-1.082-0.95703-0.78125-1.0977-0.34766-0.24609-1.0586-0.32031-1.2305-0.011719-1.1133-0.12109-1.3633-0.24609-1.0195-0.58203-0.93359-1.2266-1.1406-0.72656-0.81641-1.1016-0.98047-1.9688-0.58203-1.3281-0.36719-0.73047-0.87891-0.52734-1.4453-0.67578-0.95703-0.15234-1.1523-0.64844-0.95703-1.3711-1.0781-1.2812-1.2266-1.5156-1.4688-0.33594-1.0586-0.14844-1.1367-0.65234-1.2305-0.34375-1.2344 0.054688-1.1641 0.027344-1.1094-0.53125-0.96094-1.2148-0.44141-0.86719-0.63281 0.007813-1.1094-0.58984-1.7617-0.5625-1.0508-0.41406-1.0117-0.74609-0.95312-0.62109-1.0156 0.20703-1.0039-0.066406-1.7539-0.24609-1.0586 0.30078-1.0781 0.44531-1.0664 0.99609-0.44141 0.46094-1.0859-0.050781-1.1641 1.1367-0.82422 1.0781-0.26562 1.1016-0.125 0.20312-1.1953-0.35938-1.2188-1.2148-0.4375-1.4219-0.11328-1.1797-0.18359-1.1641-0.17969-1.0273 0.16406-1-0.0625-0.94922-0.53125-0.77344-0.89453-0.36328-0.99219 0.070313-1.0664-0.46094-0.92969-0.68359-1.0703-0.89844-1.0547-0.29688-1.2969 0.44141-1.0547-0.81641-1.1719-1.1953-0.23047-0.75 0.6875 0.32812-1.3398 1.0078-0.58594 0.80078-0.78906 0.87109-0.82031 0.03125-1.1328-0.35547-1.1797 0.007813-1.1641 0.62109-0.86328 0.68359-0.89453 1.1367 1.1328 0.92578 1.3828 0.85547 0.625 1.3945 0.37109 1.207 0.64844 1.1875 1.8281 0.37891 1.168 0.40625 1.832 0.77344 1.2188 1.0664 0.6875 1.043 0.31641 1.3281 0.15234 2.1562-0.14453 1.3555-0.69922 1.2695-0.73047 1.7422 0.097656 1.0312 0.38672 1.0938 0.0625 1.5156-0.54688 1.1133 0.79688 0.99609 1.9219 0.82422 0.62891 1.1758 0.18359 0.96875-0.33984 0.85156-0.55078 1.3867-0.63672 1.8008-0.21875 0.92969-1.3008 0.20703-1.0195 0.19531-1.4922 0.09375-1.1484 0.32031-1.6367 0.89844-1.1094 0.92188-3.25 0.92188-0.78125 4.7266-0.27344 1.5391-1.4453 1.0195-1.8281 1.2695-1.6406 0.95703-1.5703 0.62891-0.98828 0.60547-1.4805 0.98438-0.94141 0.71094-0.83203 0.77734-1.1953 1.7344-0.66406 1.3945-0.15625 1.3984-0.28906 1.5977 0.12109 0.91797 0.56641 1.3047 0.41406 1.2461 0.30469 0.91406 0.58984 2.043 0.10938 1.0703-0.94141 0.8125-1.0273 0.94531-2.0117 0.082031-1.9258-0.42578-1.1133-0.21484-2.7383 0.51562-1.8438 0.76953-1.7109 1.2852-2.7812 1.1953-2.5703 1.3633-4.1172 0.37109-3.8516-0.070312-1.1094-0.81641-1.5391-1.043-1.457-0.69531-1.1484-1.1523-0.75391 0.015625-1.1641 1.5938-0.48438 0.64062-0.85156 0.24609-1.0273-0.14844-2.7109 1.3906 0.76172 1.1953-1.832 0.45312-0.97266 0.64844-1.1055 1.9492-0.33984 1.3672 1.4141 2.5391 0.49219 2.1445-0.59375 1.8594-1.2891 1.6562-0.69141 1.5195 0.52734 1.1992-0.44141 1.6094-1.0586 0.95703-1.0742 0.34375-1.1602 0.98828-1.1641-0.37891-1.6836-1.7305-1.1953-0.43359-1.0664 1.0391-1.7422 0.039062-1.2773-0.38281-1.5 1.0508-1.7656 1.1992-0.45312 1.0273-1.6367 0.054687-1.5742 0.94531-0.35938 1.6406-0.46484 1.0586-0.29297 0.15625-1.1055-0.050781-1.2969 1.1289-0.78906 1.4102-0.011718 1.2656-0.19531-0.49219-1.1875-1.1367-0.4375-0.42969-1.1172 0.21094-1.6016 0.29688-0.96484-0.64453-1.1484 0.83984-0.91797 0.25-1.418-1.0273-1.5625-1.1289-1.6719-1.3281-0.54688-1.3086-0.14062-0.71484 1.5352-1.1289-0.51953-1.0273-0.25-0.98438-0.82031-1.4922 0.23438-0.019531 1.1992-0.99609-0.10938-0.10156-1.4609-0.93359-0.90625-1.0547-0.19141-0.79688 0.68359-0.44922 0.93359-0.89844-0.6875-0.87891-1.0312-0.34766 1.4531-1.2188-0.27734-0.93359-0.85156-0.33984-1.4336-0.22656-1.6953-0.59375-1.5273-0.44922-1.3672-0.46875-1.0312 0.5625-1.7812-0.72266-1.8867 1.1914-1.1992 0.96875-1.0352 0.83594-0.73828 0.70312-1.0039 0.09375-1.0352-0.054687-1.1328 0.25781-1.0664 0.078125-1.0117-0.17188-1.0156-0.039062-1.0156 0.63672-0.80469 0.53125-0.89844 0.89062-0.58984 0.54688-0.92578 0.94531-0.89453 1.6836-0.19531 1.3359-0.042969 1.1055-0.10156 1.1055-0.37109 1.0039-0.35156 1-0.10547 0.80469-0.71094 0.93359-0.41797 0.74609-0.71875 1.4648-0.45312 0.99609-0.45703 1.2266-0.375 1.0117-0.8125 0.84375-0.54688 0.84375-0.59766 1.1133-0.21484 1.043-0.51953 0.95703-0.94531 0.74219-0.68359 1.0508-0.16016 0.99609-0.44141 0.25781-0.98438 0.69922-0.875 0.6875-0.73828 1.0586-0.36719 1.1094-0.019531 1.2188 0.097656 1.0156-0.25391 0.89062-0.68359 1.3047 0.10938 0.75391 0.83203 1.1914-0.41406 1.2461-0.33984 1.3711-0.30859 1.0977-0.25391 0.79688-0.875 0.98047-1.1094 1.2891-0.86328 0.94141-0.44531 0.98438-0.40234 1.0547-0.28516z" fill="#ccc" fill-rule="evenodd"/>
<path d="m178.47 138.04 0.34375 0.035156 1.1172 0.17578 1.957 1.5273 0.51953 0.94531-0.019531 1.8711 0.59766 2.0117 1.793 1.3828 1.2773 0.35938 0.94531 0.83203 0.75391 0.94531 0.26953 1.3555 0.44531 1.0156 1.3555-0.15625 1.2148-0.49609 1.1719 0.10547 0.85547 0.70312 0.83203 0.88672-0.10156 1.2383 0.003907 1.1133 0.003906 1.0195-0.14062 1.1367 0.5 0.89453 0.64453 0.88281 0.058594 1.207-0.074219 1.543-0.51172 1.7812-0.089843 1.3906 0.09375 1.1367 0.42188 1.1523 0.60547 0.86719 0.79297 0.86328 0.83984 1.0508 1.8945 0.9375 1.2031 0.66797 0.83984 0.91797 1.125 1.2812 0.93359 0.70703 1.3125 1.0078 1.1641 1.0078 0.82031 0.85156 0.85938 0.98828 0.39453 1.1406-0.33984 0.96094 0.32422 2.3711 0.09375 1.6602 0.55469 1.168 0.98828 1.0586 1.1797 1.1602 1.1914 0.74609 0.75781 0.78125 0.95312 2.1211 0.82812 1.2305 0.87891 0.87891 1.3555 1.0742 1.2773 1.4844 0.61719 1.9648v1.0156l-0.0625 1.2734-0.003906 1.8633 0.054687 1.2617-0.32422 1.8711-0.62891 0.85547-1.1289 0.59375-0.95312 0.49609-0.46094 1.2031-0.6875 1.0312-0.69922 1.5586-1.6875 1.0117-1.1719 0.72656-1.168 0.29297-1.1211 0.82422-0.60938 1.1445-0.33203 1.1914-1.1758 0.96875-0.80469 0.67188-0.039062 1.2227 2.1367 1.3828 3.1484 0.99219 1.3398 0.3125 1.3359 0.875 0.98047 0.84375 1.3945 2.0273 1.2734 1.2305 1.793 1.5742 0.79688 0.90625-0.046875 1.2852-1.0938 0.91797-1.1914 1.0625-2.4961 1.4648-1.2031 1.1523-0.63281 1.4492-1.0977 1.1172-1.0273 0.59766-1.1055 0.47266-0.4375 1.2188 0.46484 0.96094 0.79688 1.5195 0.58203 0.85938 0.64453 0.76953 0.86719 0.5625 2.8555 0.62109 1.0508 0.44531 5.8281 1.2383-0.48047 0.98047-0.90625 0.70703-0.69922 1.4766-0.61719 0.86719-0.94531 0.70703-0.31641 0.97266 0.35156 1.082 1.0273 1.0547 1.1055 1.4531-2.293 2.4219-1.8984 1.1836-2.1133 0.90625-0.92969 0.88672 0.21875 2.332-0.125 1.1602-1.1719 0.69531-1.25 0.042969-1.0391 0.30078-0.64844 1.1562 0.39844 1.9648 0.33594 1.0312 0.5 1.3359 0.38281 1.2109 0.375 1.0234 0.43359 1.2852 0.10938 1.0273-0.14844 1.2617-0.10938 1.6211-0.41406 1.0508-0.94531 0.33203-0.9375 0.40625-1.0742 0.16016-1.0938 0.57422-1 0.58984-1.0195 1.3438-0.70312 0.99219-0.53906 0.875-0.46484 0.94141-0.125 1.2031-1.832 1.9961-0.96875 0.84375-0.92188 0.86328-1.3047 0.074219-1.0664-0.14062-1.8281-0.47656-1.5391-0.77734-1.6016 0.11328-1.5547-0.035157-1.1914-0.10156-1.1133 0.19141-2.3008 0.22266-1.0508 0.050782-1.1914-0.14844-1.0469 0.19922-1.293-0.14062-2.1758-0.33984-1.0469 0.015625-1.6992-0.52734-1.8789-0.53516-1.1758-0.65234-1.0117-0.29297 14.363 17.656 11.234 19.809 6.2852 6.8789 0.77344 1.1367-0.31641 1.0547-0.67578 0.93359-0.027344 1.6836 0.59375 0.84375 1.2109 1.4805 1.6484 1.7344 0.92188 0.73047 1.3984 1 1.7891 1.1562 0.91016 0.86328 1.082 1.0039 0.61328 1.3242 0.77344 1.918 0.94141 2.4922 0.45312 0.90625 0.45703 0.90625 0.36719 0.97266-1.5859 1.4766-1.582 0.76562-2.2852 0.10938-1.3477-0.25781-1.5234-0.51172-1.418-0.74219-1.1523-0.84766-2.6445-0.53516-1.1055 0.19531-1.1953-0.039062-1.8555-1.1992-1.3203-0.054687-1.2031 1.1836-1.2852 0.49609-1.0547-0.21484-2.25-0.20703-1.7461 0.74219-1.2734 0.62109-1.0859 0.39062-1.2031 0.09375-1.8945-0.32422-1.8047-0.46484-1.4805-0.50781-1.6172-0.32422-1.9609 0.28125-0.84766 0.56641-0.5 1.0703-0.51562 1.3359-1.0391 1.2305-1.0156 0.59766-1.25 0.55859-0.80078 1.0742 0.30078 1.375 0.39062 0.97656 0.09375 1.2227-0.39453 1.0273-0.96875 0.46094-1.1367 0.035157-1.1562-0.125-1.0195 0.56641-0.60938 1.1172-0.65625 0.76953-0.95703 0.40234-1.2695-0.050781-1.3867-0.054687-1.6133 0.75781-0.97266 1.0039-0.95312 0.75-1.1992 0.32422-1.2539 0.30469-1.1367 0.33984-1.2891 0.25781-1.8047-0.16797-1.0195 0.34766-0.71094 0.80469-0.76953 1.3242-0.81641 1.6445-0.74219 1.2148-0.89453 0.85547-2.8359-1.2422-1.4258 0.15234-0.64062 0.90234-0.58984 1.2148-0.74609 0.97266-1.1719 0.38672-1.1562-0.59375-0.52344-1.0195-0.33594-0.95703-1.0352-0.16016-0.75391 0.85938-1.0781 0.82422-1.1758 0.33594-1.0625-1.3086-0.57031-0.84375-0.48047-1.0039-0.78516-0.68359-1.457-0.14062-1 0.14062-0.40625 1.082-0.26172 0.99609-0.74609 0.86719-1.0312 0.26562-1.457 0.375-1.1211 0.28125-0.78516 0.82422-0.67188 0.9375-1.2578 1.0742-1.0742 0.43359-1.332-0.89062-1.1328 0.24609-0.84375 0.78516-1.1875 1.457-1.043-0.17969-1.6875-0.96875-1-0.20312-1.1484 0.69531-1.082 0.83594-1.2969-0.65234-0.48438-0.92578-0.58984-1.8164-0.58984-0.94922-2.3008-1.9492-1.5391-1.3281-0.73047-1.0312-0.33203-1.1602-0.09375-1.1523-0.046875-1.0664-0.085937-1.1914-0.28906-1.0234-0.50391-0.99219-0.74609-0.70312-0.83594-0.69531-0.50781-0.86719-0.74219-0.94531-1-0.51953-0.80469-0.69922-0.23047-1.0547-0.33203-1.4062 0.015625-1.2188 0.085938-1.0859-0.09375-1-0.47656-1.7461-0.35156-1.0586-0.30469-1.3359-0.83203-0.75-0.91797-0.86719-1.3438-0.56641-1.125-0.16406-1.0039-0.47656-0.98047-0.80078-0.90625-0.94531-0.32422-0.98047-1.0508 0.50391-0.77344-0.75-1.1094-0.84766-0.66797-0.80078-0.375-1.0469-1.2656-0.73438-0.90234-0.62109-1.793-1.0625-0.074219-1.0781 0.87891-0.59375 0.32422-1.2852-0.45703-1.082-0.95703-0.78125-1.0977-0.34766-0.24609-1.0586-0.32031-1.2305-0.011719-1.1133-0.12109-1.3633-0.24609-1.0195-0.58203-0.93359-1.2266-1.1406-0.72656-0.81641-1.1016-0.98047-1.9688-0.58203-1.3281-0.36719-0.73047-0.87891-0.52734-1.4453-0.67578-0.95703-0.15234-1.1523-0.64844-0.95703-1.3711-1.0781-1.2812-1.2266-1.5156-1.4688-0.33594-1.0586-0.14844-1.1367-0.65234-1.2305-0.34375-1.2344 0.054688-1.1641 0.027344-1.1094-0.53125-0.96094-1.2148-0.44141-0.86719-0.63281 0.007813-1.1094-0.58984-1.7617-0.5625-1.0508-0.41406-1.0117-0.74609-0.95312-0.62109-1.0156 0.20703-1.0039-0.066406-1.7539-0.24609-1.0586 0.30078-1.0781 0.44531-1.0664 0.99609-0.44141 0.46094-1.0859-0.050781-1.1641 1.1367-0.82422 1.0781-0.26562 1.1016-0.125 0.20312-1.1953-0.35938-1.2188-1.2148-0.4375-1.4219-0.11328-1.1797-0.18359-1.1641-0.17969-1.0273 0.16406-1-0.0625-0.94922-0.53125-0.77344-0.89453-0.36328-0.99219 0.070313-1.0664-0.46094-0.92969-0.68359-1.0703-0.89844-1.0547-0.29688-1.2969 0.44141-1.0547-0.81641-1.1719-1.1953-0.23047-0.75 0.6875 0.32812-1.3398 1.0078-0.58594 0.80078-0.78906 0.87109-0.82031 0.03125-1.1328-0.35547-1.1797 0.007813-1.1641 0.62109-0.86328 0.68359-0.89453 1.1367 1.1328 0.92578 1.3828 0.85547 0.625 1.3945 0.37109 1.207 0.64844 1.1875 1.8281 0.37891 1.168 0.40625 1.832 0.77344 1.2188 1.0664 0.6875 1.043 0.31641 1.3281 0.15234 2.1562-0.14453 1.3555-0.69922 1.2695-0.73047 1.7422 0.097656 1.0312 0.38672 1.0938 0.0625 1.5156-0.54688 1.1133 0.79688 0.99609 1.9219 0.82422 0.62891 1.1758 0.18359 0.96875-0.33984 0.85156-0.55078 1.3867-0.63672 1.8008-0.21875 0.92969-1.3008 0.20703-1.0195 0.19531-1.4922 0.09375-1.1484 0.32031-1.6367 0.89844-1.1094 0.92188-3.25 0.92188-0.78125 4.7266-0.27344 1.5391-1.4453 1.0195-1.8281 1.2695-1.6406 0.95703-1.5703 0.62891-0.98828 0.60547-1.4805 0.98438-0.94141 0.71094-0.83203 0.77734-1.1953 1.7344-0.66406 1.3945-0.15625 1.3984-0.28906 1.5977 0.12109 0.91797 0.56641 1.3047 0.41406 1.2461 0.30469 0.91406 0.58984 2.043 0.10938 1.0703-0.94141 0.8125-1.0273 0.94531-2.0117 0.082031-1.9258-0.42578-1.1133-0.21484-2.7383 0.51562-1.8438 0.76953-1.7109 1.2852-2.7812 1.1953-2.5703 1.3633-4.1172 0.37109-3.8516-0.070312-1.1094-0.81641-1.5391-1.043-1.457-0.69531-1.1484-1.1523-0.75391 0.015625-1.1641 1.5938-0.48438 0.64062-0.85156 0.24609-1.0273-0.14844-2.7109 1.3906 0.76172 1.1953-1.832 0.45312-0.97266 0.64844-1.1055 1.9492-0.33984 1.3672 1.4141 2.5391 0.49219 2.1445-0.59375 1.8594-1.2891 1.6562-0.69141 1.5195 0.52734 1.1992-0.44141 1.6094-1.0586 0.95703-1.0742 0.34375-1.1602 0.98828-1.1641-0.37891-1.6836-1.7305-1.1953-0.43359-1.0664 1.0391-1.7422 0.039062-1.2773-0.38281-1.5 1.0508-1.7656 1.1992-0.45312 1.0273-1.6367 0.054687-1.5742 0.94531-0.35938 1.6406-0.46484 1.0586-0.29297 0.15625-1.1055-0.050781-1.2969 1.1289-0.78906 1.4102-0.011718 1.2656-0.19531-0.49219-1.1875-1.1367-0.4375-0.42969-1.1172 0.21094-1.6016 0.29688-0.96484-0.64453-1.1484 0.83984-0.91797 0.25-1.418-1.0273-1.5625-1.1289-1.6719-1.3281-0.54688-1.3086-0.14062-0.71484 1.5352-1.1289-0.51953-1.0273-0.25-0.98438-0.82031-1.4922 0.23438-0.019531 1.1992-0.99609-0.10938-0.10156-1.4609-0.93359-0.90625-1.0547-0.19141-0.79688 0.68359-0.44922 0.93359-0.89844-0.6875-0.87891-1.0312-0.34766 1.4531-1.2188-0.27734-0.93359-0.85156-0.33984-1.4336-0.22656-1.6953-0.59375-1.5273-0.44922-1.3672-0.46875-1.0312 0.5625-1.7812-0.72266-1.8867 1.1914-1.1992 0.96875-1.0352 0.83594-0.73828 0.70312-1.0039 0.09375-1.0352-0.054687-1.1328 0.25781-1.0664 0.078125-1.0117-0.17188-1.0156-0.039062-1.0156 0.63672-0.80469 0.53125-0.89844 0.89062-0.58984 0.54688-0.92578 0.94531-0.89453 1.6836-0.19531 1.3359-0.042969 1.1055-0.10156 1.1055-0.37109 1.0039-0.35156 1-0.10547 0.80469-0.71094 0.93359-0.41797 0.74609-0.71875 1.4648-0.45312 0.99609-0.45703 1.2266-0.375 1.0117-0.8125 0.84375-0.54688 0.84375-0.59766 1.1133-0.21484 1.043-0.51953 0.95703-0.94531 0.74219-0.68359 1.0508-0.16016 0.99609-0.44141 0.25781-0.98438 0.69922-0.875 0.6875-0.73828 1.0586-0.36719 1.1094-0.019531 1.2188 0.097656 1.0156-0.25391 0.89062-0.68359 1.3047 0.10938 0.75391 0.83203 1.1914-0.41406 1.2461-0.33984 1.3711-0.30859 1.0977-0.25391 0.79688-0.875 0.98047-1.1094 1.2891-0.86328 0.94141-0.44531 0.98438-0.40234 1.0547-0.28516 0.47266 0.035156" fill="none" stroke="#fff" stroke-linecap="round" stroke-linejoin="round" stroke-miterlimit="10" stroke-width="2"/>
<path d="m2.1367 122.3 0.46875 0.21875 0.96875 0.68359 1.0078 0.21875 1.4883 0.12891 1.5039-0.51953 1.3477 0.14062 1.2656 0.125 1.1016 0.46875 0.87891 0.61719 0.83984 0.67578 0.53516 0.89062 1.1172 0.91406 0.45703 1.0234 0.60547 0.89453 1.5312 1.1445 0.16797 1.668-0.25391 1.3867 0.57422 0.94922 0.69141 1.2148 0.61719 1.3438 0.35547 1.0938 1.9648 1.832 0.96875 0.86719 0.47266 0.95703 0.28516 1.1016 0.41406 1.3828 0.72656 1.0273 0.76172 0.71875 0.64844 0.84375 1.1641 0.82031 1.0312 0.28516 0.11328 1.1875 0.6875 1.2383 0.45312 1.1758 0.64062 1.0117 1.332 2.1797 0.81641 1.1641 1.1602 1.3125 0.46094 0.91016 0.89453 1.0586 0.82422 0.83984 0.77344 0.73438 0.42188 1.1406 0.30469 0.97266 0.41406 1.1406 0.4375 0.99609 0.625 1.0156 1.1016 2.4258 0.64062 1.0312 1.207 0.82031 0.71875 1.0898 0.58203 0.88281 0.90625 1.0312 0.79297 1.0547 0.77734 1.3047 0.88281 0.49609 0.69141 1.3438 0.59375 1.0859 0.73438 1.7031 0.39453 1.0234 0.14453 1.7422 0.53125 1.082 1.4492 1.3633 1.7305 0.16797 1.3594 0.30859 1.0469 0.41016 0.89062 0.81641 0.87109 0.57812 0.26172 1.3711 0.12109 1.6797 0.29688 1.0234 1.0195 0.77734 0.89062 1.6055 1.2266-0.13672 3.0312 1.8164 0.40234 1.1992 1.1211 0.37109 1.082 0.37109 1.9102 0.82422 2.9023 3.5547 0.31641 1.2461 0.41016 1.4883 1.1211 3.5039 0.26562 1.332 0.73047 1.4102 1.125 0.34766 1.5156-0.03125 1.4453 0.79688 1.293 1.6758 1.3086 1.1914 2.1172-0.49219 0.87109 0.625 1.0156-0.14453 2.0312 0.62109 1.5547-0.13672 0.26172 1.043-0.96484 0.85547 0.98438 1.9492 0.13672 1.0352-1.1875 0.44531 0.1875 1.8984 0.51172 1.2773 1.207-0.023437-0.21484 1.0078 1.4531 1.582 1.3633 0.66406 0.22656 1.0234 0.83203 1.0742 1.4375 0.71484 1.3594-0.20312 0.87891 0.67188 0.72656 1.1094 1.2617 0.70703 0.84375 0.87109 1.6875 1.1055 1.4648 0.92188-1.1328-1.5312-0.015625-1.2031 0.59375-0.82031v-1.6719l0.53906-1.7148 1.2109 0.30469 1.3086-0.61328 1.2578-0.36719 1.5742-0.23438 0.65625 1.3438 1.6094 1.4766 1.4023 0.61328 1.9727-0.023438 1.7383 0.24219 1.5195-0.49219 1.7734 1.0195 1.4609-0.82422 1.6797 1.9688 0.070312 1.1094-0.37109 3.8516-1.3633 4.1172-1.1953 2.5703-1.2852 2.7812-0.76953 1.7109-0.51562 1.8438 0.042969 1.7539 0.59766 2.0977 0.085938 1.0273-0.66797 2.1406-1.2578 1.7969-1.0703 0.94141-1.3242 0.34766-1.0898-0.82812-1.0469-0.34766-1.3945-0.32812-1.5703-0.82812-1.1016-0.1875-1.0078 0.14453-2.2812 0.36719-0.99219 0.20703-1.0977 0.87891-0.54297 1.0195-0.92188 0.875-0.875 1.3477-0.75 1.3594-1.2188 1.9844-1.2695 1.6406-0.58594 1.0625-1.4023 1.9688-5.2969 0.51562-0.92188 0.78125-0.82422 2.3438-0.99609 2.0156-0.32031 1.6367-0.09375 1.1484-0.15625 1.3008-0.24609 1.2109-0.92969 1.3008-1.0234 0.15625-1.3672 0.27734-0.98047 0.51562-1.0469 0.65234-0.98828 0.24219-1.0898-0.50391-1.0352-1.4492-1.1367-1.4844-1.0625-0.03125-1.9961 0.32422-1.0312-0.38672-1.7422-0.097656-1.2695 0.73047-1.3555 0.69922-2.1562 0.14453-1.3281-0.15234-1.043-0.31641-1.0664-0.6875-0.77344-1.2188-0.23828-1.0469-0.54688-1.9531-0.64062-1.0703-1.2148-1.1875-1.5039-0.48438-1.2852-0.73047-0.92578-1.3828-0.88281-1.2344 0.62109-1.4766 0.98438-0.41797 0.27734-1.0312-1.0273-0.39453-0.83203 0.89453-0.75 0.94531-1.1758-0.085937-0.9375-0.6875-1.2773-0.22656-1.1094 0.085938-1.0469-0.45703-0.9375-0.86328 0.097656-1.2969 0.097657-1.0664 0.023437-1.0586-0.57031-0.95703-1.6484 0.10547-1.1367 0.16406-1.0977 0.24609-1.0352-0.75-0.80078-0.85938-0.20312-0.99219 0.35938-1.0156 0.39062-0.96484 0.16406-1.293 0.47266-1.4492 0.94141-1.2148 0.98828-0.90234 0.90234-0.60156-0.15625-1.4336-0.25781-1.0977-1.0117-0.39453-1.2031 0.44531-1.1992 0.63281-1.3906 0.83594-1.043-0.16016-0.82031-0.74609-0.5-1.2383-0.82031-0.96875-0.62891-0.79297-0.5625-1.2578-0.039063-1.082v-1.0117l-0.73828-0.92969-0.98438-0.76953-1.0742-0.089843-0.61719-1.0742-0.21094-1.0859-0.023437-1.293-0.59766-1.0586-1.3086 0.20312-0.82812-1.3086-0.3125-1.0156-0.8125-1.2188-0.80469-0.69141-1.2227-1.0703-0.55078-0.99609-0.62891-0.85547-0.97656-0.58203-1.418 0.25391-1.332-0.63281-0.75781-1.0859-0.59375-1.2422-0.76172-0.82812-0.70312-0.96875-0.33594-0.96484-0.089844-1.1133-0.23047-1.1992-0.050782-1.2227-0.23828-1.4414 0.15625-1.207 0.24609-1.3047 0.18359-1.5039 0.85547-0.99609 0.43359-0.97266-0.34375-1.1719 0.81641-1.0078 0.89062-0.85547 0.41797-1.2852 0.35938-1.3359-0.0625-1.2695-0.42969-1.1172 0.27734-1.1328 0.62109-0.85938 0.24219-1.1367 0.47656-1.4805 0.49219-1.0469-0.33203-1.1602-0.16016-1.3594 0.80469-0.76172 0.042968-1.043-0.69141-0.74219 0.87891-0.55078 0.35156-1.0547-0.30078-1.0859-0.93359-0.36328-1.2773 0.097656-0.71484-0.76562 0.77344-0.72266 0.55859-0.89062-0.75781-0.76953-1.0039-0.066406-0.94922-0.39844-1.1172 0.078125-0.78516-0.92969-0.28125-1.1484-0.17969-1.207 0.48438-0.88672-0.86328-0.57422-1.0469-0.17188-1.1875-0.57422-0.42188-0.92188-0.87891-0.64844-0.30859-1.0742 1.1641-0.5 1.1172-0.49609 1.0586-0.56641-0.25781-1.0742-0.92969-0.77734-0.40625-0.91406-0.96875-0.51562-0.89062-1.0781 0.039063-1.2695 1.2773-0.33203 0.64062-0.83984-0.35547-1.0781-0.85938-0.62891-0.67578-1.0039 0.69531-0.80859 0.94531-0.42969 0.58984-0.84766-0.71875-1.0352-0.76953-0.65625-1.1328 0.39453-1.0273-0.039063-0.77734-0.66406 0.27734-1.1406 0.046875-1.0352-1.1875-0.55859-0.73047-0.86328 0.066406-1.0469 0.40234-1.1562-0.38672-1.3711-0.41016-1.0273 0.34766-1.3008 0.13281-1.1172-1.0156-0.078125-0.94141-0.47266 0.73438-0.79297-0.52344-0.95703-0.90234-0.54297-0.68359-0.89453-0.46484-1.1953 0.65625-0.80859 0.066406-1.1992 1.125-0.15625 0.96875-0.28125 0.25781-1.0234-1.0273-0.26172-0.41406-0.97266 0.89062-0.77344 1.0117-0.035156 0.64062-0.89062-0.52734-1.0352-0.9375-0.65625-0.77734-0.77344-0.96094 0.62109-0.96484-0.32422 0.64844-0.89062 0.15234-1.0352-0.55078-0.92188-1.2305 0.13672-1.0742-0.070312-0.21875-1.2539-0.1875-1.0938-0.3125-1.1406-0.21875-1.125 0.25-1.082 0.11328-1.0547 0.21875-1.5273 0.39453-1.0703 0.050782-1.3008-0.67969-0.92969-0.53516-1.2227-0.11328-1.3594-0.023438-1.1016 0.90625-1.3672 0.24219-1.0898z" fill="#ccc" fill-rule="evenodd"/>
<path d="m2.1367 122.3 0.46875 0.21875 0.96875 0.68359 1.0078 0.21875 1.4883 0.12891 1.5039-0.51953 1.3477 0.14062 1.2656 0.125 1.1016 0.46875 0.87891 0.61719 0.83984 0.67578 0.53516 0.89062 1.1172 0.91406 0.45703 1.0234 0.60547 0.89453 1.5312 1.1445 0.16797 1.668-0.25391 1.3867 0.57422 0.94922 0.69141 1.2148 0.61719 1.3438 0.35547 1.0938 1.9648 1.832 0.96875 0.86719 0.47266 0.95703 0.28516 1.1016 0.41406 1.3828 0.72656 1.0273 0.76172 0.71875 0.64844 0.84375 1.1641 0.82031 1.0312 0.28516 0.11328 1.1875 0.6875 1.2383 0.45312 1.1758 0.64062 1.0117 1.332 2.1797 0.81641 1.1641 1.1602 1.3125 0.46094 0.91016 0.89453 1.0586 0.82422 0.83984 0.77344 0.73438 0.42188 1.1406 0.30469 0.97266 0.41406 1.1406 0.4375 0.99609 0.625 1.0156 1.1016 2.4258 0.64062 1.0312 1.207 0.82031 0.71875 1.0898 0.58203 0.88281 0.90625 1.0312 0.79297 1.0547 0.77734 1.3047 0.88281 0.49609 0.69141 1.3438 0.59375 1.0859 0.73438 1.7031 0.39453 1.0234 0.14453 1.7422 0.53125 1.082 1.4492 1.3633 1.7305 0.16797 1.3594 0.30859 1.0469 0.41016 0.89062 0.81641 0.87109 0.57812 0.26172 1.3711 0.12109 1.6797 0.29688 1.0234 1.0195 0.77734 0.89062 1.6055 1.2266-0.13672 3.0312 1.8164 0.40234 1.1992 1.1211 0.37109 1.082 0.37109 1.9102 0.82422 2.9023 3.5547 0.31641 1.2461 0.41016 1.4883 1.1211 3.5039 0.26562 1.332 0.73047 1.4102 1.125 0.34766 1.5156-0.03125 1.4453 0.79688 1.293 1.6758 1.3086 1.1914 2.1172-0.49219 0.87109 0.625 1.0156-0.14453 2.0312 0.62109 1.5547-0.13672 0.26172 1.043-0.96484 0.85547 0.98438 1.9492 0.13672 1.0352-1.1875 0.44531 0.1875 1.8984 0.51172 1.2773 1.207-0.023437-0.21484 1.0078 1.4531 1.582 1.3633 0.66406 0.22656 1.0234 0.83203 1.0742 1.4375 0.71484 1.3594-0.20312 0.87891 0.67188 0.72656 1.1094 1.2617 0.70703 0.84375 0.87109 1.6875 1.1055 1.4648 0.92188-1.1328-1.5312-0.015625-1.2031 0.59375-0.82031v-1.6719l0.53906-1.7148 1.2109 0.30469 1.3086-0.61328 1.2578-0.36719 1.5742-0.23438 0.65625 1.3438 1.6094 1.4766 1.4023 0.61328 1.9727-0.023438 1.7383 0.24219 1.5195-0.49219 1.7734 1.0195 1.4609-0.82422 1.6797 1.9688 0.070312 1.1094-0.37109 3.8516-1.3633 4.1172-1.1953 2.5703-1.2852 2.7812-0.76953 1.7109-0.51562 1.8438 0.042969 1.7539 0.59766 2.0977 0.085938 1.0273-0.66797 2.1406-1.2578 1.7969-1.0703 0.94141-1.3242 0.34766-1.0898-0.82812-1.0469-0.34766-1.3945-0.32812-1.5703-0.82812-1.1016-0.1875-1.0078 0.14453-2.2812 0.36719-0.99219 0.20703-1.0977 0.87891-0.54297 1.0195-0.92188 0.875-0.875 1.3477-0.75 1.3594-1.2188 1.9844-1.2695 1.6406-0.58594 1.0625-1.4023 1.9688-5.2969 0.51562-0.92188 0.78125-0.82422 2.3438-0.99609 2.0156-0.32031 1.6367-0.09375 1.1484-0.15625 1.3008-0.24609 1.2109-0.92969 1.3008-1.0234 0.15625-1.3672 0.27734-0.98047 0.51562-1.0469 0.65234-0.98828 0.24219-1.0898-0.50391-1.0352-1.4492-1.1367-1.4844-1.0625-0.03125-1.9961 0.32422-1.0312-0.38672-1.7422-0.097656-1.2695 0.73047-1.3555 0.69922-2.1562 0.14453-1.3281-0.15234-1.043-0.31641-1.0664-0.6875-0.77344-1.2188-0.23828-1.0469-0.54688-1.9531-0.64062-1.0703-1.2148-1.1875-1.5039-0.48438-1.2852-0.73047-0.92578-1.3828-0.88281-1.2344 0.62109-1.4766 0.98438-0.41797 0.27734-1.0312-1.0273-0.39453-0.83203 0.89453-0.75 0.94531-1.1758-0.085937-0.9375-0.6875-1.2773-0.22656-1.1094 0.085938-1.0469-0.45703-0.9375-0.86328 0.097656-1.2969 0.097657-1.0664 0.023437-1.0586-0.57031-0.95703-1.6484 0.10547-1.1367 0.16406-1.0977 0.24609-1.0352-0.75-0.80078-0.85938-0.20312-0.99219 0.35938-1.0156 0.39062-0.96484 0.16406-1.293 0.47266-1.4492 0.94141-1.2148 0.98828-0.90234 0.90234-0.60156-0.15625-1.4336-0.25781-1.0977-1.0117-0.39453-1.2031 0.44531-1.1992 0.63281-1.3906 0.83594-1.043-0.16016-0.82031-0.74609-0.5-1.2383-0.82031-0.96875-0.62891-0.79297-0.5625-1.2578-0.039063-1.082v-1.0117l-0.73828-0.92969-0.98438-0.76953-1.0742-0.089843-0.61719-1.0742-0.21094-1.0859-0.023437-1.293-0.59766-1.0586-1.3086 0.20312-0.82812-1.3086-0.3125-1.0156-0.8125-1.2188-0.80469-0.69141-1.2227-1.0703-0.55078-0.99609-0.62891-0.85547-0.97656-0.58203-1.418 0.25391-1.332-0.63281-0.75781-1.0859-0.59375-1.2422-0.76172-0.82812-0.70312-0.96875-0.33594-0.96484-0.089844-1.1133-0.23047-1.1992-0.050782-1.2227-0.23828-1.4414 0.15625-1.207 0.24609-1.3047 0.18359-1.5039 0.85547-0.99609 0.43359-0.97266-0.34375-1.1719 0.81641-1.0078 0.89062-0.85547 0.41797-1.2852 0.35938-1.3359-0.0625-1.2695-0.42969-1.1172 0.27734-1.1328 0.62109-0.85938 0.24219-1.1367 0.47656-1.4805 0.49219-1.0469-0.33203-1.1602-0.16016-1.3594 0.80469-0.76172 0.042968-1.043-0.69141-0.74219 0.87891-0.55078 0.35156-1.0547-0.30078-1.0859-0.93359-0.36328-1.2773 0.097656-0.71484-0.76562 0.77344-0.72266 0.55859-0.89062-0.75781-0.76953-1.0039-0.066406-0.94922-0.39844-1.1172 0.078125-0.78516-0.92969-0.28125-1.1484-0.17969-1.207 0.48438-0.88672-0.86328-0.57422-1.0469-0.17188-1.1875-0.57422-0.42188-0.92188-0.87891-0.64844-0.30859-1.0742 1.1641-0.5 1.1172-0.49609 1.0586-0.56641-0.25781-1.0742-0.92969-0.77734-0.40625-0.91406-0.96875-0.51562-0.89062-1.0781 0.039063-1.2695 1.2773-0.33203 0.64062-0.83984-0.35547-1.0781-0.85938-0.62891-0.67578-1.0039 0.69531-0.80859 0.94531-0.42969 0.58984-0.84766-0.71875-1.0352-0.76953-0.65625-1.1328 0.39453-1.0273-0.039063-0.77734-0.66406 0.27734-1.1406 0.046875-1.0352-1.1875-0.55859-0.73047-0.86328 0.066406-1.0469 0.40234-1.1562-0.38672-1.3711-0.41016-1.0273 0.34766-1.3008 0.13281-1.1172-1.0156-0.078125-0.94141-0.47266 0.73438-0.79297-0.52344-0.95703-0.90234-0.54297-0.68359-0.89453-0.46484-1.1953 0.65625-0.80859 0.066406-1.1992 1.125-0.15625 0.96875-0.28125 0.25781-1.0234-1.0273-0.26172-0.41406-0.97266 0.89062-0.77344 1.0117-0.035156 0.64062-0.89062-0.52734-1.0352-0.9375-0.65625-0.77734-0.77344-0.96094 0.62109-0.96484-0.32422 0.64844-0.89062 0.15234-1.0352-0.55078-0.92188-1.2305 0.13672-1.0742-0.070312-0.21875-1.2539-0.1875-1.0938-0.3125-1.1406-0.21875-1.125 0.25-1.082 0.11328-1.0547 0.21875-1.5273 0.39453-1.0703 0.050782-1.3008-0.67969-0.92969-0.53516-1.2227-0.11328-1.3594-0.023438-1.1016 0.90625-1.3672 0.24219-1.0898 0.98828 0.27734" fill="none" stroke="#fff" stroke-linecap="round" stroke-linejoin="round" stroke-miterlimit="10" stroke-width="2"/>
<path d="m159.76 67.082 0.34766 0.082032 0.86328 1.0195 0.99609 0.65234 0.99609 0.46484 0.90234 0.74219 0.60156 1.0117 0.99609 0.73828 0.92578 0.72656 1.4336 0.88672 0.80859 0.83594 0.72656 0.95703 0.69531 0.82812 0.6875 0.94531 0.61719 1.2422 0.8125 1.0273 1.2891 0.71484 1.2188 0.33203 1.0078 0.11719 1.125-0.14844 1.2031 0.5 0.78125 0.88281 0.52734 1.2266 0.03125 1.2656 0.050781 1.1953 0.66016 0.92969 0.48438 1.0117 0.22266 1.0352 0.91016 0.66797 0.89453 0.82031 0.52734 0.99219 1.2031 0.83203 0.92578 0.50391 1.1211 0.84375 1.3281 0.95703 1.6992 0.64844 1.125 0.41797 0.64453 1.0859-0.12891 1.5508-0.47656 1.125-0.20312 1.3477 0.15625 1.4648 0.36328 1.1211 0.3125 1.1836 0.32422 1.0312-0.24609 1.7539-0.74609 1.1836-0.42969 1.0508-1.4805 2.9023 0.34766 1.6133 0.30469 1.5352-0.6875 1.6406-0.79688 0.84766-0.82031 0.93359-0.83203 0.81641-1.1562 1.0859-0.87891 0.73828-1.3789 1.2539-1.3164 1.2891-0.72656 0.97266-0.36328 1.1953-1.5039 1.5938-1.1172 0.51953-0.64062 0.91406-0.36328 0.93359-0.24609 0.97656 0.17188 1.2773 1.2383 2.0625 0.25 1.7188 0.074219 1.9375-0.88281 0.60547-1.3086 0.44531-0.94141 0.44531-1.2383 0.82422-0.92578 0.97656-0.54688 0.84375-1.4531 0.45703-1.3711 0.30859-1.2461 0.33984-1.1914 0.41406-0.65234-0.77344-1.0352 0.019531-1.2344 0.28906-1.043 0.46094-0.93359-0.38281-1.0938 0.38672-1.2227 0.17188-0.82422 0.85156-0.69922 0.875-0.25781 0.98438-0.99609 0.44141-1.0508 0.16016-0.74219 0.68359-0.70703 0.80469-0.86719 0.60938-1 0.19141-0.95703 0.53125-1.0039 0.53906-0.91016 0.6875-0.99609 0.59766-1.0898 0.17188-1.0742 0.5-1.0898 0.35156-0.62891 0.84375-1.0508 0.38281-0.96875 0.54688-0.98828 0.28906-0.94141 0.39844-1.125 0.15625-1.5195 0.13672-1.5938 0.058593-0.96875 0.33594-0.85156 0.95703-0.67578 0.86328-0.87109 0.71484-0.67188 1.0234-0.35547 0.94531 0.37109 1.0352-0.16797 1.0078-0.007813 1.0273-0.30078 0.99219 0.078125 1.6289-0.70312 1.0039-0.83594 0.73828-0.96875 1.0352-0.87109 0.9375-1.0781 0.019531-0.11719-1.0469 1.2852 0.074219-0.085938-1.2695-1.0117-1.332-1.1992-1.043-1.9883-0.46875-0.91797-1.1211-0.8125-0.84766-1.8242-2.8789-1.1875-1.0547-1.0547-1.9297-1.7109-1.3672-0.97266-1.3516-1.3984-0.39453-1.0273-0.64062-1.5391-0.42578-1.5312 0.0625-1.5117-0.11719-1.0703 0.066406-1.1133-0.31641-1.1172 0.25391-1.8047-0.80859-1.3594-0.25-3.3359 0.35547-1.6094 0.074219-1.0625-0.054688-1.8633-0.35938 0.82812-1-1.1172-1.0742 0.84766-1-0.72656-1.2539-0.625-0.92969-1.8789 0.39844-1.4531-0.007812-1.1992 1.3672-0.53906-0.85938-1.1953 2.0078-0.52344-2.2344 0.125-1.0234 0.92188-0.74219 0.43359-1.1602 0.49219-1.6172 0.82812-1.2383 0.72656-1.0938 1.707-1.3164 1.1289-0.44922 0.82031-0.77734 0.042969-1.0469-0.023438-1 0.25781-1.0508 0.13281-1.0898 0.71484-0.875 1.6523-0.90625 0.59375-1.1289 1.3008-0.98438 1.0977-0.62109 0.29688-1.125 0.21094-1.6172-0.070313-1.0898 0.97266-0.57812 0.60938-0.96484 0.39844-1.0664 0.47266-0.95312 0.41016-1.043 0.66406-0.85547 0.25391-1.2695-0.13281-1.4102 0.34375-1.0117 1.0039-0.67578 0.89453-0.91797 0.48438-0.91406 0.17969-1.0938 0.78906-0.89062 0.85156-0.58984 0.74219-0.70312 0.27734-1 1.1562-0.62109 0.95703-0.38281 1.1562-0.23828 0.90625-0.48047 0.91797-0.44531 0.95312-0.88281 0.98438-0.89844 0.62109-0.82812 0.97656-0.29688 1.1758-0.31641 1.1406-0.45312 1.4727-0.58594 1.1172-0.35938 1.5-0.12109 1.9414 0.28516 1.1289-0.35938 1.043-0.44141 1.4414-0.85156 0.62109-0.96484 0.40234-1.1602 0.23047-1.0469 0.46484-1.043 0.82031-0.90234 1.1133-1.0625 0.67188-1 1.1328-1.3398 0.61328-1.0039 0.91406-0.90234 1.1562-1.293 0.89062-1.0977 1.0781-0.41797 0.98438-0.58203 0.72656-0.71094 1.3398-2.0156 0.95312-1.1719 1.1211-1.2344 1.1172-1.3438 0.69922-1 1.2617-0.46094 0.96484-0.88281 1.2578-0.87891 0.18359-1.1055-0.19141-1.25 0.046875-1.3711 0.33203-0.94531 0.82812-0.91797 1.0156-0.61328 1.4453-0.42969 1.418-0.39062 0.88281-0.97266 0.72656-1.1523 1.168-0.77734z" fill="#ccc" fill-rule="evenodd"/>
<path d="m159.76 67.082 0.34766 0.082032 0.86328 1.0195 0.99609 0.65234 0.99609 0.46484 0.90234 0.74219 0.60156 1.0117 0.99609 0.73828 0.92578 0.72656 1.4336 0.88672 0.80859 0.83594 0.72656 0.95703 0.69531 0.82812 0.6875 0.94531 0.61719 1.2422 0.8125 1.0273 1.2891 0.71484 1.2188 0.33203 1.0078 0.11719 1.125-0.14844 1.2031 0.5 0.78125 0.88281 0.52734 1.2266 0.03125 1.2656 0.050781 1.1953 0.66016 0.92969 0.48438 1.0117 0.22266 1.0352 0.91016 0.66797 0.89453 0.82031 0.52734 0.99219 1.2031 0.83203 0.92578 0.50391 1.1211 0.84375 1.3281 0.95703 1.6992 0.64844 1.125 0.41797 0.64453 1.0859-0.12891 1.5508-0.47656 1.125-0.20312 1.3477 0.15625 1.4648 0.36328 1.1211 0.3125 1.1836 0.32422 1.0312-0.24609 1.7539-0.74609 1.1836-0.42969 1.0508-1.4805 2.9023 0.34766 1.6133 0.30469 1.5352-0.6875 1.6406-0.79688 0.84766-0.82031 0.93359-0.83203 0.81641-1.1562 1.0859-0.87891 0.73828-1.3789 1.2539-1.3164 1.2891-0.72656 0.97266-0.36328 1.1953-1.5039 1.5938-1.1172 0.51953-0.64062 0.91406-0.36328 0.93359-0.24609 0.97656 0.17188 1.2773 1.2383 2.0625 0.25 1.7188 0.074219 1.9375-0.88281 0.60547-1.3086 0.44531-0.94141 0.44531-1.2383 0.82422-0.92578 0.97656-0.54688 0.84375-1.4531 0.45703-1.3711 0.30859-1.2461 0.33984-1.1914 0.41406-0.65234-0.77344-1.0352 0.019531-1.2344 0.28906-1.043 0.46094-0.93359-0.38281-1.0938 0.38672-1.2227 0.17188-0.82422 0.85156-0.69922 0.875-0.25781 0.98438-0.99609 0.44141-1.0508 0.16016-0.74219 0.68359-0.70703 0.80469-0.86719 0.60938-1 0.19141-0.95703 0.53125-1.0039 0.53906-0.91016 0.6875-0.99609 0.59766-1.0898 0.17188-1.0742 0.5-1.0898 0.35156-0.62891 0.84375-1.0508 0.38281-0.96875 0.54688-0.98828 0.28906-0.94141 0.39844-1.125 0.15625-1.5195 0.13672-1.5938 0.058593-0.96875 0.33594-0.85156 0.95703-0.67578 0.86328-0.87109 0.71484-0.67188 1.0234-0.35547 0.94531 0.37109 1.0352-0.16797 1.0078-0.007813 1.0273-0.30078 0.99219 0.078125 1.6289-0.70312 1.0039-0.83594 0.73828-0.96875 1.0352-0.87109 0.9375-1.0781 0.019531-0.11719-1.0469 1.2852 0.074219-0.085938-1.2695-1.0117-1.332-1.1992-1.043-1.9883-0.46875-0.91797-1.1211-0.8125-0.84766-1.8242-2.8789-1.1875-1.0547-1.0547-1.9297-1.7109-1.3672-0.97266-1.3516-1.3984-0.39453-1.0273-0.64062-1.5391-0.42578-1.5312 0.0625-1.5117-0.11719-1.0703 0.066406-1.1133-0.31641-1.1172 0.25391-1.8047-0.80859-1.3594-0.25-3.3359 0.35547-1.6094 0.074219-1.0625-0.054688-1.8633-0.35938 0.82812-1-1.1172-1.0742 0.84766-1-0.72656-1.2539-0.625-0.92969-1.8789 0.39844-1.4531-0.007812-1.1992 1.3672-0.53906-0.85938-1.1953 2.0078-0.52344-2.2344 0.125-1.0234 0.92188-0.74219 0.43359-1.1602 0.49219-1.6172 0.82812-1.2383 0.72656-1.0938 1.707-1.3164 1.1289-0.44922 0.82031-0.77734 0.042969-1.0469-0.023438-1 0.25781-1.0508 0.13281-1.0898 0.71484-0.875 1.6523-0.90625 0.59375-1.1289 1.3008-0.98438 1.0977-0.62109 0.29688-1.125 0.21094-1.6172-0.070313-1.0898 0.97266-0.57812 0.60938-0.96484 0.39844-1.0664 0.47266-0.95312 0.41016-1.043 0.66406-0.85547 0.25391-1.2695-0.13281-1.4102 0.34375-1.0117 1.0039-0.67578 0.89453-0.91797 0.48438-0.91406 0.17969-1.0938 0.78906-0.89062 0.85156-0.58984 0.74219-0.70312 0.27734-1 1.1562-0.62109 0.95703-0.38281 1.1562-0.23828 0.90625-0.48047 0.91797-0.44531 0.95312-0.88281 0.98438-0.89844 0.62109-0.82812 0.97656-0.29688 1.1758-0.31641 1.1406-0.45312 1.4727-0.58594 1.1172-0.35938 1.5-0.12109 1.9414 0.28516 1.1289-0.35938 1.043-0.44141 1.4414-0.85156 0.62109-0.96484 0.40234-1.1602 0.23047-1.0469 0.46484-1.043 0.82031-0.90234 1.1133-1.0625 0.67188-1 1.1328-1.3398 0.61328-1.0039 0.91406-0.90234 1.1562-1.293 0.89062-1.0977 1.0781-0.41797 0.98438-0.58203 0.72656-0.71094 1.3398-2.0156 0.95312-1.1719 1.1211-1.2344 1.1172-1.3438 0.69922-1 1.2617-0.46094 0.96484-0.88281 1.2578-0.87891 0.18359-1.1055-0.19141-1.25 0.046875-1.3711 0.33203-0.94531 0.82812-0.91797 1.0156-0.61328 1.4453-0.42969 1.418-0.39062 0.88281-0.97266 0.72656-1.1523 1.168-0.77734 0.82422-0.066407" fill="none" stroke="#fff" stroke-linecap="round" stroke-linejoin="round" stroke-miterlimit="10" stroke-width="2"/>
<path d="m397.81 14.652 0.83594 0.73047 1.2188 0.62109 0.71484 0.98438 0.29688 1.0938 0.42578 1.0938 0.6875 1.1094 0.21875 1.1172 0.12109 1.0078 0.86328 0.56641 0.55859 1.0664 1.0312 0.29688 0.92188 0.45312 1.0586 0.023437 1.1328 0.20703 0.92578-0.67578 1.1836-1.1133 1.0195-0.70703 1.2461-0.0625 1.332 0.56641 1.0352 0.074219 0.99609 0.10547 1.0469 0.54297 1.1562-0.10156 0.61719 0.91797 0.14062 1.1875 0.59766 0.91797 1.1172 0.39844 0.91797 0.53516 0.67969 0.94922 0.90234 0.94531 1 0.28516 1.1562-0.039063 1.0508-0.09375 0.92969 0.60938 0.68359 0.75 1.3477-0.50781 0.88281-0.52734 1.3945 0.054687 0.88672 0.51562 1.3672 1.2227 1.0234 0.035156 1.1914 0.33203 1.1758 0.015625 0.69922-0.79297 0.65625-0.9375 0.98047 0.31641 1.3438 0.36719 0.93359 0.4375 0.058594 1.1641 0.58984 1.1133 0.8125 0.72656 0.53125 0.92188 1.1016 0.36328 0.76172 1.0547 0.45312 1.4492-0.15625 1.3633-0.015625 1.1875 0.054687 1.2383 0.1875 1.3555 0.96875 0.83984 1.2305 0.44922 1.1328 0.12109 0.93359-0.58203 1.3203-0.74219 0.68359-0.73438 0.55469-0.86328 0.29297-1.0195 0.035156-1.1719 0.15234-1.7539 0.375-1.3516 0.50781-1.0352 1.1055-1.4492 0.64062-1.207 0.14844-1.6406-0.21094-1.2969-0.38672-1.4141 0.91797-0.83594 1.1055-0.40234 1.6445-0.13281 1.6016 0.81641 1.2188-0.12891 1.5156 0.19141 1.5078 0.17188 1.0508-0.074219 1.2812-0.66797 0.96094-0.28516 1.1914-0.71094 1.2656-0.42578 1.3945-0.050782 0.96484 0.95312 1.3398 0.73047 0.95703 0.68359 1.2891 0.63281 1.1758 0.93359 1.3008 0.027344 1.3789-0.35938 2.0039-0.98438 1.0078-0.70312 1.9297 0.19141 2.6172 0.875 1.4062 0.71875 1 0.51172 0.81641 0.74609 1.0977 0.36328 1.4805 0.66406 0.39844 1.0273-0.37891 2.3789-0.13672 2.0898 0.17188 1.0625 0.20312 1.2266 0.21094 1.0312 0.35938 0.9375 0.87109 1.1328 0.52344 1.0039 0.48438 0.97266 0.10156 1.1133-0.34766 1.0742 0.21484 1.3242 0.53125 1.332 0.35547 1.1406 0.21484 1.0625 0.33984 1.0859 0.67969 0.97266 0.37891 1.0664-0.34766 2.1914-0.26172 1.1367 0.082032 1.293-0.011719 1.2852-0.48047 1.0859-0.49609 1.4258-0.21484 1.293-0.0625 1.0859-0.28906 1.7695 0.085938 1.0078-0.39844 1.2148-0.26172 1.2773 0.15234 1.1445 0.35156 1.082-1.0664 0.51953-0.38672 1.1992-0.87109 0.67969-0.69922 1.1719-1.3086 0.90234-1.0156 1.2266-0.54688 1.207-0.96094 0.61719-1.3789-0.41016-1.1406-0.375-1.0039 0.56641 0.13672 1.2969 0.51172 0.89844 0.23047 1.4492 0.015625 1.1641-0.33984 0.99609-0.48438 1.2305-0.66797 0.85547-0.17578 1.1719 0.18359 1.2148-0.56641 1.2188-0.5625 1.2773v1.4258l0.44922 1.8477 0.57812 1.7539-0.097656 1.0273-0.76953 1.5547-0.70703 1.125-0.83984 0.96875-0.87891 1.3711-0.50781 0.90234-1.5273-0.63281-0.87109-0.85938-1.1992-1.1094-1.4141-1.2812-1.9609-1.3359-0.90625-0.55859-1.6211 0.078125-1.3984 0.13281-1.1133 0.74609-1.3477 1.6797-2.4141 1.4727-0.99219 0.90625-0.79297 1.7266-0.11328 1.293-0.30469 1.7148-0.92188 1.1445-1.1172 0.77734-1.2305 0.28125-1.2812 0.42578-1.3086 0.125-1.3086-0.0625-1.0625-0.15234-0.85156 0.9375-0.097656 1.6406 0.39844 1.5195-1.5234 1.1406-2.457 1.6406-0.92188 0.70312-0.87891 0.55859-0.93359 0.54688-1.7305 0.55469-1.5195 0.10547-1.9375 0.21484-1.5469 0.70703-3 2.0078-1.1016 1.4219-0.56641 1.2383 0.1875 2.0664 0.16406 1.4805 0.5625 1.1797 0.75391 1.1289 0.11719 1.1328-0.51953 1.6797-0.47266 1.3047-0.0625 1.0586 0.11328 1.0742-0.15625 1.1406-0.45703 0.92969-0.79297 1.4336-1.1289 1.8789-0.58984 1.3711-1.1758 0.30469-1.5664 0.16406-1.0625-0.25781-0.66406-0.88281-0.64453-0.98047-1.0078-1.0391-0.72656-0.94141-0.70312-0.81641-0.99609-0.28516-1.1914 0.10156-0.71875-0.90625-0.84766-0.71094-1.8086-0.15234-1.2539 0.050781-1.0508 0.19531-1.2695 0.070312-1.0703-0.32812-0.87109-0.5625-0.94141-0.42188-0.94531 0.83594-0.89453 0.48047-1.7539 0.36719-1.7305-0.64844-0.98828-0.34766-1.2695 0.47656-0.99219 0.39844-0.15625 1.3125-0.10156 1.0039-1.1406 0.51562-1.1641 0.37891-0.97656 0.28906-1.0195 0.078125-1.0742-0.30469-1.3203-0.17969-0.55469-0.92969-1.0859-0.57031-1.5977 0.27344-1.2695-0.03125-1.0859 0.042968-1.043-0.27344-1.043-0.035156-1.3281-0.29297-2.0703 0.066406-0.96094 0.48047-0.99609 0.66016-1.3984 0.41797-1.4883 0.25781-1.4219-0.67188-1.0078-0.30078-0.96094-0.30078-1.2734 0.054687-0.875 0.62109-1.168 0.89844-1.0234 0.34375-1.0742 0.10547-1.1797 0.46484-0.92578 0.59766-1.0273 0.51562-1.2812-0.023437-1.2812 0.023437-1.0039-0.60938-1.0742-0.25391-1.0352-0.23047-1.4688 0.19922-1.082 0.13281-1.1172-0.13281-1.8516-0.027344-1.5703-0.125-1.2227-0.50781-0.92188-0.54297-1.1172-0.19531-0.94531 0.90625-1.125 0.67578-1.1211-0.15234-1.0391-0.25781-1.0234-0.41406-0.5625-0.89453-0.92188-0.91016-0.91016-0.78906-0.91406-0.46875-1.1016-0.28516-1.543-0.83594-1.293-0.51953-1.0352-0.27344-1.2734 0.6875-0.98438 0.41797-1.3164-0.3125-0.89844 0.70703-0.62891 0.80078-0.86719 0.52344 0.035156 1.0195 0.054687 1.1523-0.625 0.98438-1.0039 0.91797-0.55078 1.3086-1.0742 0.41797-0.91406-0.42969-0.69922 1.1172-1.3477 0.33203-1 0.042969-1.2148 0.65625-1.0742 0.50781-1.0938-0.12109-1.5547 0.99609-0.82812 0.87891-0.43359 1.1719-0.59375 0.83594-0.82812 0.61328-0.84375 1.4609-0.9375 0.55469-1.0156 0.26172-1.3828 0.23047-1.0195 0.019531-0.96484 0.61719-0.67969 1.0234-1.043 0.48828-0.46484 1.1641-0.66797 1.1641-1.0312 0.75-1.0469-0.11719-0.91797 0.58203 0.36719 1.0156-0.43359 1.1133-0.53125 1.2148-0.4375 1.1602-0.92578 0.46484-0.9375 0.39453-1.1914 0.51172-1.0625-0.003906-1.0938-0.12891-1.1289 0.10547-1.207-0.23438-0.98438 0.58203-0.87891 0.67188-1.0273 0.36328-1.6484 0.35156-1.0117 0.53516-1.1406 0.49219-0.92578 0.88672-0.51172 0.88281-1.0273 0.51172-1.3633-0.19531-1.0664 0.054688-1.1641-1.1328-1.1328-1.0312-1.1133-0.78125-1.3242-1.1328-0.72656-0.69922-1.1016-0.81641-1.0859-0.78906-2.3359-0.79297-1.0664-0.34766-0.99609 0.24609-0.72266 0.75-0.050781 1.0469-0.44141 1.1758-0.42188 0.95703-0.90234 0.71875-0.98828 0.25-1.0352 0.38281-1.1016 0.58984-1.0469 0.42969-0.73828 0.72656-1.0391 0.89062-1.2617 0.53516-0.82422 0.82422-0.33984 1.3359-0.011719 1.043-0.24609 1.0977-0.67969 1.3281-0.79297 1.5039-0.35547 1.0195-1.0703 0.95312-1.0664 0.89062-1.5703 1.0195-1.082 0.61328-1.1289 0.57812 0.67969 1.7148 0.64844 1.2812 0.71484 1.0039 0.3125 1.1445-0.11719 1.0742-0.085938 1.3164-0.007812 1.3789-1.0547 0.78906h-1.2031l-1.3438-0.21484-0.83594-0.59766-1.1367-0.15625-1.1602 0.23047-1.1484 0.035156-1.9375 0.10547-0.91797 0.44531-0.30078 1.1484-0.57031 1.5703-0.078125 1.125-0.34766 1.0078-0.30078 1.5859-0.097656 1.0195-0.46875 1.3242-0.26953 0.96875-0.85938 0.51953 0.066406 1.4492 0.12891 1.0234 0.35156 1.1055 0.14844 1.0234-0.24609 1.3242-0.59766 0.80469-0.058594 1.5078 0.57422 1.3555 0.75781 0.91016 0.69141 0.82422 0.75391 1.4297 0.64062 1.1953-0.40234 1.0234-0.54297 1.0859-0.78125 1.25-0.79688 1.3594 0.023437 1.3125 0.085938 1.6328-0.16406 1.4219 0.066406 1-0.11328 1.1562-0.28906 0.98828-0.34375 0.96875-0.66016 0.92969-1.1797-0.066406-1.293 0.30078-1.4336-0.039062-1.4297-0.11328-1.4023-0.16406-0.30078 1.8359 0.097656 1.1836-0.27734 1.6367-0.89062 1.3164-0.61719 1.2031-0.13672 1.4023-0.625 2.1406-0.93359 1.418-0.82812 0.98047-0.89844 0.89062-1.8555-0.23047-1.2305-0.45312-1.5664-0.66016-1.8633-0.72266-1.4453-0.35938-1.2617-0.0625-1.5586 0.64844-6.6055-1.7734-1.0508-0.44531-2.543-0.57422-1.1797-0.60938-0.64453-0.76953-0.58203-0.85938-0.61719-1.168-0.58203-1.0703 0.11328-1.0625 1.3672-0.87109 1.0273-0.59766 1.0977-1.1172 0.63281-1.4492 1.2031-1.1523 2.4961-1.4648 1.1914-1.0625 1.0938-0.91797 0.046875-1.2852-0.79688-0.90625-1.793-1.5742-1.2734-1.2305-1.3945-2.0273-0.98047-0.84375-1.3359-0.875-1.3398-0.3125-3.1484-0.99219-1.6406-0.90625-0.69922-0.89062 1.0469-1.4805 0.94531-0.64844 0.5625-1.5117 0.60938-1.1445 1.1211-0.82422 1.168-0.29297 1.1719-0.72656 1.4023-0.6875 0.63672-1.1484 0.79688-1.2539 0.35156-1.0156 1.3008-1.1953 1.1289-0.59375 0.62891-0.85547 0.32422-1.8711-0.054687-1.2617 0.003906-1.8633 0.0625-1.2734v-1.0156l-0.21484-1.0664-0.99219-1.7539-1.5-1.3164-1.4219-1.2656-0.82812-1.2305-0.56641-1.625-0.74609-0.91797-0.94531-0.71094-1.2656-0.87891-0.90625-1.0938-0.96094-1.1562-0.32812-2.3125-0.22656-1.7461 0.066407-1.2344 0.089843-1.1367-1.0273-1.0977-0.63281-0.80078-0.95703-0.86719-1.1602-1.0273-1.2773-0.82031-1.4688-1.5859-0.83984-0.91797-1.2031-0.66797-1.5508-0.61328-0.74219-0.76172-0.71484-0.92969-0.84766-0.90625-0.49609-1-0.29688-1.2852 0.019531-1.207 0.58203-2.4766 0.15625-1.0078 0.019531-1.0352-0.3125-0.98047-0.75781-0.94531-0.19141-1.207 0.21094-1.0469-0.19531-1.1172 0.15625-1.2734-0.18359-0.99609-0.85547-0.51562-1.082-0.59766-1.043 0.058594-1.3047 0.61328-1.1953-0.27734-0.25391-1.1875-0.41016-1.332-0.79297-0.86328-1.1523-0.70703-2.0938-0.79688-0.90625-2.0898-0.16406-1.7266-0.32812-1.3555-1.4023-1.6758-1.125-0.34375-1.1172-0.12891-0.39453-2.3359-0.25-1.7188-0.66797-1.2812-0.74219-2.0586 0.24609-0.97656 0.36328-0.93359 0.64062-0.91406 1.1172-0.51953 0.89844-0.88281 0.67578-0.96484 0.69531-1.5273 1.0312-1.0039 1.2539-1.2734 1.6133-1.3906 1-0.94141 0.76562-0.71875 1.043-1.1758 0.80469-0.82031 0.67969-1.668-0.25391-1.3672-0.51172-1.2383 1.2617-2.8359 0.76172-1.6602 0.74609-1.1836 0.60156-1.0352 1.0781-1.9219 0.80078-0.82031 1.1055-0.80469 1.0156-0.24219 3.3672 0.10938 1.2617-0.60938 0.75391-1.1133 0.28906-1.4844 0.48438-1.1914 0.77734-0.77344 1.0352-0.47266 0.94922-0.64062 1.1992 0.12891 1.1211-0.34375 1.375-0.28906 1.2344-0.43359 0.98828-0.20312 1.1016-0.058594 1.0273-0.41797 1.3594-0.042968 1.3438 0.64844 1.2734-0.058594 0.95312-0.47656 0.98438-0.1875 1.2695 0.074219 0.94141 0.34375 1.0195 0.16016 0.99609-0.44531 1.2305-0.65234 1.0234-0.19922 1.2539 0.085937 1.6406 0.99219 0.40625 1.043 0.074219 1.2188 0.91797 0.80078 1.2305 0.59766 1.1953 0.082031 0.47266-1.2383 0.66016-1.0312 0.19531-1.2383 0.42188-1.082 0.97656-0.27344 1.3281 0.92969 0.78516 0.67969 0.84375 0.80078 0.88281 0.58984 0.65625 0.80078 0.52344 0.9375 0.15234 1.3711 0.20703 1.1484 0.89453 0.46094 1.1367-0.007812 1.1523 0.92969 1.1367 0.85547 1.3594 0.67188 1.4961 0.23047 1.3242-0.8125 0.33984-0.94922 0.64844-1.4883 0.74219-1.2617 0.84375-1.1055 1.1328-0.41406 1.1484-0.50391 0.98828-0.23438 1.1484 0.097657 1-0.039063 1.1094-0.25391 0.99609-0.27344 0.83594-0.99609 0.32422-1.2344-0.33594-1.5703-1.6133-2.1992-0.36719-1.8008 0.019531-1.4062 0.14453-1.4492 0.34766-1.0078 0.75-1.9609 0.51172-0.98438 1.1328-0.87891 1.4102-1.1133 0.89062-0.75 0.62891-0.79688 0.67578-0.88281 0.95703-0.61328 1.5195-1.1055 1.168-0.76172 0.875-0.76562 1.0586-0.70703 1.1289-0.88281 0.99609-0.92578 0.95312-0.57031 0.90234-0.63672 0.80469-0.78906 1.0273-0.22656 1.0039 0.050782 1.2578 0.23438 1.082 0.007812 1.0234 0.10156 1.0352 0.17578 1.0703 0.007812 1.1836 0.023438 1.2969 0.27344 0.94531 0.37891 1.2656 0.43359 1.0195 0.23438 0.83594 0.73828 1.0938 0.30078 1.5781-0.003906 1.3008-0.44922 0.98438-0.66016 1.0234-0.65234 0.8125-0.62891 0.96875-0.33594 1.0352-0.5625 1.4531-0.56641 1.1328-0.37891 0.74219-1.125 0.50781-0.87891 0.73438-0.6875 0.76172-0.67188 1.3477-0.94141 0.54297-0.85938 0.55859-1.0586 0.28125-1.1133 1.0117-0.097656 1.2188 0.085937 1.4258-0.24219 1.3008-0.25 1.1758 0.14844 1.168 0.13281 0.79688 0.62109 0.75781 0.6875 1.3008 0.95703 1.3047 0.65625 1.0859 0.15234 0.96484 0.53516 1.4922-0.046875 1.1328 0.14062 1.0664 0.61328 1.3516 0.14844 1.8438-0.03125 1.9531 0.15625 0.8125 0.60938 0.71875 1.2812 0.3125 1.3594 0.25 1 0.55078 1.3984-1.2578 1.6211-0.74609 0.70703-0.66016 0.83594 0.18359 1.2148 0.84375 0.77344 0.97266 0.26953 1.7852 0.35547 1.3203 0.25781 1.1953 0.18359 0.89844 0.47656 0.96094 0.46875 1.0312-0.6875 0.88281-0.61719 1.2656-0.55859 0.59766-0.91797 0.32031-0.94922 0.79297-0.80469 0.91016-0.55078 0.76172-0.79688 0.80469-0.60156 0.92969-0.45703 1.2109-0.19531 1.207-0.26953 1.2578-0.62891 1.1016-0.26172 1.5508-0.09375 1.0625-0.17578 2.2617-0.27734 1.5273 0.46094 1.3477 0.82812 1.5508 0.16797 1.1562 0.078125 1.1055-0.20703 0.97656-0.39453 1.7305-0.53516 1.6914-0.20312 1.4922-0.050781 1.0859-0.40234 1.2891-0.20312 1.1758-0.14844 1.4766-0.42578 1.1289 0.14453 1.1797 0.36328 1.082 0.15234 1.3789-0.29297 0.77734-1.2773 0.46094-1.2109 0.36719-0.98828 0.93359-0.88672 0.6875-1.0039 0.94141-0.42188 1.1367-0.58594 1.0156-0.22266 1.0039-0.17188 0.99609 0.21094 1.1641-0.27734 0.1875-1.1641-0.082031-1.2148 0.80859-1.0195 1.1211-0.72656 0.77344-0.65234 0.49219-1.3516 0.30859-1.1953 0.48828-1.8984 0.67188-1.4805 0.63281-1.1133 0.44922-1.293 0.24219-1.0195 0.50781-1.0312 0.65234-1.2266 0.050781-1.3164-0.16797-1.1641 0.5-1.0859-0.1875-1.0664 0.67969-0.85547 0.5-1.1055 0.21094-1.0859-0.039063-1.2188-0.078125-1.0898-0.33594-1.1914-0.64844-0.76953 0.26172-0.98047-0.10547-1.5391 0.035156-1.1914 0.36719-1.0156 0.29688-1.4531 0.27344-1.2344-0.042968-1.4414 0.80469-1.168 0.625-1.1328 0.46094-1.3164 0.57031-0.875 0.34375-1.2188 0.40625-1.2578-0.3125-1.0664 0.19141-1.0664z" fill="#ccc" fill-rule="evenodd"/>
<path d="m397.81 14.652 0.83594 0.73047 1.2188 0.62109 0.71484 0.98438 0.29688 1.0938 0.42578 1.0938 0.6875 1.1094 0.21875 1.1172 0.12109 1.0078 0.86328 0.56641 0.55859 1.0664 1.0312 0.29688 0.92188 0.45312 1.0586 0.023437 1.1328 0.20703 0.92578-0.67578 1.1836-1.1133 1.0195-0.70703 1.2461-0.0625 1.332 0.56641 1.0352 0.074219 0.99609 0.10547 1.0469 0.54297 1.1562-0.10156 0.61719 0.91797 0.14062 1.1875 0.59766 0.91797 1.1172 0.39844 0.91797 0.53516 0.67969 0.94922 0.90234 0.94531 1 0.28516 1.1562-0.039063 1.0508-0.09375 0.92969 0.60938 0.68359 0.75 1.3477-0.50781 0.88281-0.52734 1.3945 0.054687 0.88672 0.51562 1.3672 1.2227 1.0234 0.035156 1.1914 0.33203 1.1758 0.015625 0.69922-0.79297 0.65625-0.9375 0.98047 0.31641 1.3438 0.36719 0.93359 0.4375 0.058594 1.1641 0.58984 1.1133 0.8125 0.72656 0.53125 0.92188 1.1016 0.36328 0.76172 1.0547 0.45312 1.4492-0.15625 1.3633-0.015625 1.1875 0.054687 1.2383 0.1875 1.3555 0.96875 0.83984 1.2305 0.44922 1.1328 0.12109 0.93359-0.58203 1.3203-0.74219 0.68359-0.73438 0.55469-0.86328 0.29297-1.0195 0.035156-1.1719 0.15234-1.7539 0.375-1.3516 0.50781-1.0352 1.1055-1.4492 0.64062-1.207 0.14844-1.6406-0.21094-1.2969-0.38672-1.4141 0.91797-0.83594 1.1055-0.40234 1.6445-0.13281 1.6016 0.81641 1.2188-0.12891 1.5156 0.19141 1.5078 0.17188 1.0508-0.074219 1.2812-0.66797 0.96094-0.28516 1.1914-0.71094 1.2656-0.42578 1.3945-0.050782 0.96484 0.95312 1.3398 0.73047 0.95703 0.68359 1.2891 0.63281 1.1758 0.93359 1.3008 0.027344 1.3789-0.35938 2.0039-0.98438 1.0078-0.70312 1.9297 0.19141 2.6172 0.875 1.4062 0.71875 1 0.51172 0.81641 0.74609 1.0977 0.36328 1.4805 0.66406 0.39844 1.0273-0.37891 2.3789-0.13672 2.0898 0.17188 1.0625 0.20312 1.2266 0.21094 1.0312 0.35938 0.9375 0.87109 1.1328 0.52344 1.0039 0.48438 0.97266 0.10156 1.1133-0.34766 1.0742 0.21484 1.3242 0.53125 1.332 0.35547 1.1406 0.21484 1.0625 0.33984 1.0859 0.67969 0.97266 0.37891 1.0664-0.34766 2.1914-0.26172 1.1367 0.082032 1.293-0.011719 1.2852-0.48047 1.0859-0.49609 1.4258-0.21484 1.293-0.0625 1.0859-0.28906 1.7695 0.085938 1.0078-0.39844 1.2148-0.26172 1.2773 0.15234 1.1445 0.35156 1.082-1.0664 0.51953-0.38672 1.1992-0.87109 0.67969-0.69922 1.1719-1.3086 0.90234-1.0156 1.2266-0.54688 1.207-0.96094 0.61719-1.3789-0.41016-1.1406-0.375-1.0039 0.56641 0.13672 1.2969 0.51172 0.89844 0.23047 1.4492 0.015625 1.1641-0.33984 0.99609-0.48438 1.2305-0.66797 0.85547-0.17578 1.1719 0.18359 1.2148-0.56641 1.2188-0.5625 1.2773v1.4258l0.44922 1.8477 0.57812 1.7539-0.097656 1.0273-0.76953 1.5547-0.70703 1.125-0.83984 0.96875-0.87891 1.3711-0.50781 0.90234-1.5273-0.63281-0.87109-0.85938-1.1992-1.1094-1.4141-1.2812-1.9609-1.3359-0.90625-0.55859-1.6211 0.078125-1.3984 0.13281-1.1133 0.74609-1.3477 1.6797-2.4141 1.4727-0.99219 0.90625-0.79297 1.7266-0.11328 1.293-0.30469 1.7148-0.92188 1.1445-1.1172 0.77734-1.2305 0.28125-1.2812 0.42578-1.3086 0.125-1.3086-0.0625-1.0625-0.15234-0.85156 0.9375-0.097656 1.6406 0.39844 1.5195-1.5234 1.1406-2.457 1.6406-0.92188 0.70312-0.87891 0.55859-0.93359 0.54688-1.7305 0.55469-1.5195 0.10547-1.9375 0.21484-1.5469 0.70703-3 2.0078-1.1016 1.4219-0.56641 1.2383 0.1875 2.0664 0.16406 1.4805 0.5625 1.1797 0.75391 1.1289 0.11719 1.1328-0.51953 1.6797-0.47266 1.3047-0.0625 1.0586 0.11328 1.0742-0.15625 1.1406-0.45703 0.92969-0.79297 1.4336-1.1289 1.8789-0.58984 1.3711-1.1758 0.30469-1.5664 0.16406-1.0625-0.25781-0.66406-0.88281-0.64453-0.98047-1.0078-1.0391-0.72656-0.94141-0.70312-0.81641-0.99609-0.28516-1.1914 0.10156-0.71875-0.90625-0.84766-0.71094-1.8086-0.15234-1.2539 0.050781-1.0508 0.19531-1.2695 0.070312-1.0703-0.32812-0.87109-0.5625-0.94141-0.42188-0.94531 0.83594-0.89453 0.48047-1.7539 0.36719-1.7305-0.64844-0.98828-0.34766-1.2695 0.47656-0.99219 0.39844-0.15625 1.3125-0.10156 1.0039-1.1406 0.51562-1.1641 0.37891-0.97656 0.28906-1.0195 0.078125-1.0742-0.30469-1.3203-0.17969-0.55469-0.92969-1.0859-0.57031-1.5977 0.27344-1.2695-0.03125-1.0859 0.042968-1.043-0.27344-1.043-0.035156-1.3281-0.29297-2.0703 0.066406-0.96094 0.48047-0.99609 0.66016-1.3984 0.41797-1.4883 0.25781-1.4219-0.67188-1.0078-0.30078-0.96094-0.30078-1.2734 0.054687-0.875 0.62109-1.168 0.89844-1.0234 0.34375-1.0742 0.10547-1.1797 0.46484-0.92578 0.59766-1.0273 0.51562-1.2812-0.023437-1.2812 0.023437-1.0039-0.60938-1.0742-0.25391-1.0352-0.23047-1.4688 0.19922-1.082 0.13281-1.1172-0.13281-1.8516-0.027344-1.5703-0.125-1.2227-0.50781-0.92188-0.54297-1.1172-0.19531-0.94531 0.90625-1.125 0.67578-1.1211-0.15234-1.0391-0.25781-1.0234-0.41406-0.5625-0.89453-0.92188-0.91016-0.91016-0.78906-0.91406-0.46875-1.1016-0.28516-1.543-0.83594-1.293-0.51953-1.0352-0.27344-1.2734 0.6875-0.98438 0.41797-1.3164-0.3125-0.89844 0.70703-0.62891 0.80078-0.86719 0.52344 0.035156 1.0195 0.054687 1.1523-0.625 0.98438-1.0039 0.91797-0.55078 1.3086-1.0742 0.41797-0.91406-0.42969-0.69922 1.1172-1.3477 0.33203-1 0.042969-1.2148 0.65625-1.0742 0.50781-1.0938-0.12109-1.5547 0.99609-0.82812 0.87891-0.43359 1.1719-0.59375 0.83594-0.82812 0.61328-0.84375 1.4609-0.9375 0.55469-1.0156 0.26172-1.3828 0.23047-1.0195 0.019531-0.96484 0.61719-0.67969 1.0234-1.043 0.48828-0.46484 1.1641-0.66797 1.1641-1.0312 0.75-1.0469-0.11719-0.91797 0.58203 0.36719 1.0156-0.43359 1.1133-0.53125 1.2148-0.4375 1.1602-0.92578 0.46484-0.9375 0.39453-1.1914 0.51172-1.0625-0.003906-1.0938-0.12891-1.1289 0.10547-1.207-0.23438-0.98438 0.58203-0.87891 0.67188-1.0273 0.36328-1.6484 0.35156-1.0117 0.53516-1.1406 0.49219-0.92578 0.88672-0.51172 0.88281-1.0273 0.51172-1.3633-0.19531-1.0664 0.054688-1.1641-1.1328-1.1328-1.0312-1.1133-0.78125-1.3242-1.1328-0.72656-0.69922-1.1016-0.81641-1.0859-0.78906-2.3359-0.79297-1.0664-0.34766-0.99609 0.24609-0.72266 0.75-0.050781 1.0469-0.44141 1.1758-0.42188 0.95703-0.90234 0.71875-0.98828 0.25-1.0352 0.38281-1.1016 0.58984-1.0469 0.42969-0.73828 0.72656-1.0391 0.89062-1.2617 0.53516-0.82422 0.82422-0.33984 1.3359-0.011719 1.043-0.24609 1.0977-0.67969 1.3281-0.79297 1.5039-0.35547 1.0195-1.0703 0.95312-1.0664 0.89062-1.5703 1.0195-1.082 0.61328-1.1289 0.57812 0.67969 1.7148 0.64844 1.2812 0.71484 1.0039 0.3125 1.1445-0.11719 1.0742-0.085938 1.3164-0.007812 1.3789-1.0547 0.78906h-1.2031l-1.3438-0.21484-0.83594-0.59766-1.1367-0.15625-1.1602 0.23047-1.1484 0.035156-1.9375 0.10547-0.91797 0.44531-0.30078 1.1484-0.57031 1.5703-0.078125 1.125-0.34766 1.0078-0.30078 1.5859-0.097656 1.0195-0.46875 1.3242-0.26953 0.96875-0.85938 0.51953 0.066406 1.4492 0.12891 1.0234 0.35156 1.1055 0.14844 1.0234-0.24609 1.3242-0.59766 0.80469-0.058594 1.5078 0.57422 1.3555 0.75781 0.91016 0.69141 0.82422 0.75391 1.4297 0.64062 1.1953-0.40234 1.0234-0.54297 1.0859-0.78125 1.25-0.79688 1.3594 0.023437 1.3125 0.085938 1.6328-0.16406 1.4219 0.066406 1-0.11328 1.1562-0.28906 0.98828-0.34375 0.96875-0.66016 0.92969-1.1797-0.066406-1.293 0.30078-1.4336-0.039062-1.4297-0.11328-1.4023-0.16406-0.30078 1.8359 0.097656 1.1836-0.27734 1.6367-0.89062 1.3164-0.61719 1.2031-0.13672 1.4023-0.625 2.1406-0.93359 1.418-0.82812 0.98047-0.89844 0.89062-1.8555-0.23047-1.2305-0.45312-1.5664-0.66016-1.8633-0.72266-1.4453-0.35938-1.2617-0.0625-1.5586 0.64844-6.6055-1.7734-1.0508-0.44531-2.543-0.57422-1.1797-0.60938-0.64453-0.76953-0.58203-0.85938-0.61719-1.168-0.58203-1.0703 0.11328-1.0625 1.3672-0.87109 1.0273-0.59766 1.0977-1.1172 0.63281-1.4492 1.2031-1.1523 2.4961-1.4648 1.1914-1.0625 1.0938-0.91797 0.046875-1.2852-0.79688-0.90625-1.793-1.5742-1.2734-1.2305-1.3945-2.0273-0.98047-0.84375-1.3359-0.875-1.3398-0.3125-3.1484-0.99219-1.6406-0.90625-0.69922-0.89062 1.0469-1.4805 0.94531-0.64844 0.5625-1.5117 0.60938-1.1445 1.1211-0.82422 1.168-0.29297 1.1719-0.72656 1.4023-0.6875 0.63672-1.1484 0.79688-1.2539 0.35156-1.0156 1.3008-1.1953 1.1289-0.59375 0.62891-0.85547 0.32422-1.8711-0.054687-1.2617 0.003906-1.8633 0.0625-1.2734v-1.0156l-0.21484-1.0664-0.99219-1.7539-1.5-1.3164-1.4219-1.2656-0.82812-1.2305-0.56641-1.625-0.74609-0.91797-0.94531-0.71094-1.2656-0.87891-0.90625-1.0938-0.96094-1.1562-0.32812-2.3125-0.22656-1.7461 0.066407-1.2344 0.089843-1.1367-1.0273-1.0977-0.63281-0.80078-0.95703-0.86719-1.1602-1.0273-1.2773-0.82031-1.4688-1.5859-0.83984-0.91797-1.2031-0.66797-1.5508-0.61328-0.74219-0.76172-0.71484-0.92969-0.84766-0.90625-0.49609-1-0.29688-1.2852 0.019531-1.207 0.58203-2.4766 0.15625-1.0078 0.019531-1.0352-0.3125-0.98047-0.75781-0.94531-0.19141-1.207 0.21094-1.0469-0.19531-1.1172 0.15625-1.2734-0.18359-0.99609-0.85547-0.51562-1.082-0.59766-1.043 0.058594-1.3047 0.61328-1.1953-0.27734-0.25391-1.1875-0.41016-1.332-0.79297-0.86328-1.1523-0.70703-2.0938-0.79688-0.90625-2.0898-0.16406-1.7266-0.32812-1.3555-1.4023-1.6758-1.125-0.34375-1.1172-0.12891-0.39453-2.3359-0.25-1.7188-0.66797-1.2812-0.74219-2.0586 0.24609-0.97656 0.36328-0.93359 0.64062-0.91406 1.1172-0.51953 0.89844-0.88281 0.67578-0.96484 0.69531-1.5273 1.0312-1.0039 1.2539-1.2734 1.6133-1.3906 1-0.94141 0.76562-0.71875 1.043-1.1758 0.80469-0.82031 0.67969-1.668-0.25391-1.3672-0.51172-1.2383 1.2617-2.8359 0.76172-1.6602 0.74609-1.1836 0.60156-1.0352 1.0781-1.9219 0.80078-0.82031 1.1055-0.80469 1.0156-0.24219 3.3672 0.10938 1.2617-0.60938 0.75391-1.1133 0.28906-1.4844 0.48438-1.1914 0.77734-0.77344 1.0352-0.47266 0.94922-0.64062 1.1992 0.12891 1.1211-0.34375 1.375-0.28906 1.2344-0.43359 0.98828-0.20312 1.1016-0.058594 1.0273-0.41797 1.3594-0.042968 1.3438 0.64844 1.2734-0.058594 0.95312-0.47656 0.98438-0.1875 1.2695 0.074219 0.94141 0.34375 1.0195 0.16016 0.99609-0.44531 1.2305-0.65234 1.0234-0.19922 1.2539 0.085937 1.6406 0.99219 0.40625 1.043 0.074219 1.2188 0.91797 0.80078 1.2305 0.59766 1.1953 0.082031 0.47266-1.2383 0.66016-1.0312 0.19531-1.2383 0.42188-1.082 0.97656-0.27344 1.3281 0.92969 0.78516 0.67969 0.84375 0.80078 0.88281 0.58984 0.65625 0.80078 0.52344 0.9375 0.15234 1.3711 0.20703 1.1484 0.89453 0.46094 1.1367-0.007812 1.1523 0.92969 1.1367 0.85547 1.3594 0.67188 1.4961 0.23047 1.3242-0.8125 0.33984-0.94922 0.64844-1.4883 0.74219-1.2617 0.84375-1.1055 1.1328-0.41406 1.1484-0.50391 0.98828-0.23438 1.1484 0.097657 1-0.039063 1.1094-0.25391 0.99609-0.27344 0.83594-0.99609 0.32422-1.2344-0.33594-1.5703-1.6133-2.1992-0.36719-1.8008 0.019531-1.4062 0.14453-1.4492 0.34766-1.0078 0.75-1.9609 0.51172-0.98438 1.1328-0.87891 1.4102-1.1133 0.89062-0.75 0.62891-0.79688 0.67578-0.88281 0.95703-0.61328 1.5195-1.1055 1.168-0.76172 0.875-0.76562 1.0586-0.70703 1.1289-0.88281 0.99609-0.92578 0.95312-0.57031 0.90234-0.63672 0.80469-0.78906 1.0273-0.22656 1.0039 0.050782 1.2578 0.23438 1.082 0.007812 1.0234 0.10156 1.0352 0.17578 1.0703 0.007812 1.1836 0.023438 1.2969 0.27344 0.94531 0.37891 1.2656 0.43359 1.0195 0.23438 0.83594 0.73828 1.0938 0.30078 1.5781-0.003906 1.3008-0.44922 0.98438-0.66016 1.0234-0.65234 0.8125-0.62891 0.96875-0.33594 1.0352-0.5625 1.4531-0.56641 1.1328-0.37891 0.74219-1.125 0.50781-0.87891 0.73438-0.6875 0.76172-0.67188 1.3477-0.94141 0.54297-0.85938 0.55859-1.0586 0.28125-1.1133 1.0117-0.097656 1.2188 0.085937 1.4258-0.24219 1.3008-0.25 1.1758 0.14844 1.168 0.13281 0.79688 0.62109 0.75781 0.6875 1.3008 0.95703 1.3047 0.65625 1.0859 0.15234 0.96484 0.53516 1.4922-0.046875 1.1328 0.14062 1.0664 0.61328 1.3516 0.14844 1.8438-0.03125 1.9531 0.15625 0.8125 0.60938 0.71875 1.2812 0.3125 1.3594 0.25 1 0.55078 1.3984-1.2578 1.6211-0.74609 0.70703-0.66016 0.83594 0.18359 1.2148 0.84375 0.77344 0.97266 0.26953 1.7852 0.35547 1.3203 0.25781 1.1953 0.18359 0.89844 0.47656 0.96094 0.46875 1.0312-0.6875 0.88281-0.61719 1.2656-0.55859 0.59766-0.91797 0.32031-0.94922 0.79297-0.80469 0.91016-0.55078 0.76172-0.79688 0.80469-0.60156 0.92969-0.45703 1.2109-0.19531 1.207-0.26953 1.2578-0.62891 1.1016-0.26172 1.5508-0.09375 1.0625-0.17578 2.2617-0.27734 1.5273 0.46094 1.3477 0.82812 1.5508 0.16797 1.1562 0.078125 1.1055-0.20703 0.97656-0.39453 1.7305-0.53516 1.6914-0.20312 1.4922-0.050781 1.0859-0.40234 1.2891-0.20312 1.1758-0.14844 1.4766-0.42578 1.1289 0.14453 1.1797 0.36328 1.082 0.15234 1.3789-0.29297 0.77734-1.2773 0.46094-1.2109 0.36719-0.98828 0.93359-0.88672 0.6875-1.0039 0.94141-0.42188 1.1367-0.58594 1.0156-0.22266 1.0039-0.17188 0.99609 0.21094 1.1641-0.27734 0.1875-1.1641-0.082031-1.2148 0.80859-1.0195 1.1211-0.72656 0.77344-0.65234 0.49219-1.3516 0.30859-1.1953 0.48828-1.8984 0.67188-1.4805 0.63281-1.1133 0.44922-1.293 0.24219-1.0195 0.50781-1.0312 0.65234-1.2266 0.050781-1.3164-0.16797-1.1641 0.5-1.0859-0.1875-1.0664 0.67969-0.85547 0.5-1.1055 0.21094-1.0859-0.039063-1.2188-0.078125-1.0898-0.33594-1.1914-0.64844-0.76953 0.26172-0.98047-0.10547-1.5391 0.035156-1.1914 0.36719-1.0156 0.29688-1.4531 0.27344-1.2344-0.042968-1.4414 0.80469-1.168 0.625-1.1328 0.46094-1.3164 0.57031-0.875 0.34375-1.2188 0.40625-1.2578-0.3125-1.0664 0.19141-1.0664 0.33594-0.57422" fill="none" stroke="#fff" stroke-linecap="round" stroke-linejoin="round" stroke-miterlimit="10" stroke-width="2"/>
<path d="m397.81 14.652 0.83594 0.73047 1.2188 0.62109 0.71484 0.98438 0.29688 1.0938 0.42578 1.0938 0.6875 1.1094 0.21875 1.1172 0.12109 1.0078 0.86328 0.56641 0.55859 1.0664 1.0312 0.29688 0.92188 0.45312 1.0586 0.023437 1.1328 0.20703 0.92578-0.67578 1.1836-1.1133 1.0195-0.70703 1.2461-0.0625 1.332 0.56641 1.0352 0.074219 0.99609 0.10547 1.0469 0.54297 1.1562-0.10156 0.61719 0.91797 0.14062 1.1875 0.59766 0.91797 1.1172 0.39844 0.91797 0.53516 0.67969 0.94922 0.90234 0.94531 1 0.28516 1.1562-0.039063 1.0508-0.09375 0.92969 0.60938 0.68359 0.75 1.3477-0.50781 0.88281-0.52734 1.3945 0.054687 0.88672 0.51562 1.3672 1.2227 1.0234 0.035156 1.1914 0.33203 1.1758 0.015625 0.69922-0.79297 0.65625-0.9375 0.98047 0.31641 1.3438 0.36719 0.93359 0.4375 0.058594 1.1641 0.58984 1.1133 0.8125 0.72656 0.53125 0.92188 1.1016 0.36328 0.76172 1.0547 0.45312 1.4492-0.15625 1.3633-0.015625 1.1875 0.054687 1.2383 0.1875 1.3555 0.96875 0.83984 1.2305 0.44922 1.1328 0.12109 0.93359-0.58203 1.3203-0.74219 0.68359-0.73438 0.55469-0.86328 0.29297-1.0195 0.035156-1.1719 0.15234-1.7539 0.375-1.3516 0.50781-1.0352 1.1055-1.4492 0.64062-1.207 0.14844-1.6406-0.21094-1.2969-0.38672-1.4141 0.91797-0.83594 1.1055-0.40234 1.6445-0.13281 1.6016 0.81641 1.2188-0.12891 1.5156 0.19141 1.5078 0.17188 1.0508-0.074219 1.2812-0.66797 0.96094-0.28516 1.1914-0.71094 1.2656-0.42578 1.3945-0.050782 0.96484 0.95312 1.3398 0.73047 0.95703 0.68359 1.2891 0.63281 1.1758 0.93359 1.3008 0.027344 1.3789-0.35938 2.0039-0.98438 1.0078-0.70312 1.9297 0.19141 2.6172 0.875 1.4062 0.71875 1 0.51172 0.81641 0.74609 1.0977 0.36328 1.4805 0.66406 0.39844 1.0273-0.37891 2.3789-0.13672 2.0898 0.17188 1.0625 0.20312 1.2266 0.21094 1.0312 0.35938 0.9375 0.87109 1.1328 0.52344 1.0039 0.48438 0.97266 0.10156 1.1133-0.34766 1.0742 0.21484 1.3242 0.53125 1.332 0.35547 1.1406 0.21484 1.0625 0.33984 1.0859 0.67969 0.97266 0.37891 1.0664-0.34766 2.1914-0.26172 1.1367 0.082032 1.293-0.011719 1.2852-0.48047 1.0859-0.49609 1.4258-0.21484 1.293-0.0625 1.0859-0.28906 1.7695 0.085938 1.0078-0.39844 1.2148-0.26172 1.2773 0.15234 1.1445 0.35156 1.082-1.0664 0.51953-0.38672 1.1992-0.87109 0.67969-0.69922 1.1719-1.3086 0.90234-1.0156 1.2266-0.54688 1.207-0.96094 0.61719-1.3789-0.41016-1.1406-0.375-1.0039 0.56641 0.13672 1.2969 0.51172 0.89844 0.23047 1.4492 0.015625 1.1641-0.33984 0.99609-0.48438 1.2305-0.66797 0.85547-0.17578 1.1719 0.18359 1.2148-0.56641 1.2188-0.5625 1.2773v1.4258l0.44922 1.8477 0.57812 1.7539-0.097656 1.0273-0.76953 1.5547-0.70703 1.125-0.83984 0.96875-0.87891 1.3711-0.50781 0.90234-1.5273-0.63281-0.87109-0.85938-1.1992-1.1094-1.4141-1.2812-1.9609-1.3359-0.90625-0.55859-1.6211 0.078125-1.3984 0.13281-1.1133 0.74609-1.3477 1.6797-2.4141 1.4727-0.99219 0.90625-0.79297 1.7266-0.11328 1.293-0.30469 1.7148-0.92188 1.1445-1.1172 0.77734-1.2305 0.28125-1.2812 0.42578-1.3086 0.125-1.3086-0.0625-1.0625-0.15234-0.85156 0.9375-0.097656 1.6406 0.39844 1.5195-1.5234 1.1406-2.457 1.6406-0.92188 0.70312-0.87891 0.55859-0.93359 0.54688-1.7305 0.55469-1.5195 0.10547-1.9375 0.21484-1.5469 0.70703-3 2.0078-1.1016 1.4219-0.56641 1.2383 0.1875 2.0664 0.16406 1.4805 0.5625 1.1797 0.75391 1.1289 0.11719 1.1328-0.51953 1.6797-0.47266 1.3047-0.0625 1.0586 0.11328 1.0742-0.15625 1.1406-0.45703 0.92969-0.79297 1.4336-1.1289 1.8789-0.58984 1.3711-1.1758 0.30469-1.5664 0.16406-1.0625-0.25781-0.66406-0.88281-0.64453-0.98047-1.0078-1.0391-0.72656-0.94141-0.70312-0.81641-0.99609-0.28516-1.1914 0.10156-0.71875-0.90625-0.84766-0.71094-1.8086-0.15234-1.2539 0.050781-1.0508 0.19531-1.2695 0.070312-1.0703-0.32812-0.87109-0.5625-0.94141-0.42188-0.94531 0.83594-0.89453 0.48047-1.7539 0.36719-1.7305-0.64844-0.98828-0.34766-1.2695 0.47656-0.99219 0.39844-0.15625 1.3125-0.10156 1.0039-1.1406 0.51562-1.1641 0.37891-0.97656 0.28906-1.0195 0.078125-1.0742-0.30469-1.3203-0.17969-0.55469-0.92969-1.0859-0.57031-1.5977 0.27344-1.2695-0.03125-1.0859 0.042968-1.043-0.27344-1.043-0.035156-1.3281-0.29297-2.0703 0.066406-0.96094 0.48047-0.99609 0.66016-1.3984 0.41797-1.4883 0.25781-1.4219-0.67188-1.0078-0.30078-0.96094-0.30078-1.2734 0.054687-0.875 0.62109-1.168 0.89844-1.0234 0.34375-1.0742 0.10547-1.1797 0.46484-0.92578 0.59766-1.0273 0.51562-1.2812-0.023437-1.2812 0.023437-1.0039-0.60938-1.0742-0.25391-1.0352-0.23047-1.4688 0.19922-1.082 0.13281-1.1172-0.13281-1.8516-0.027344-1.5703-0.125-1.2227-0.50781-0.92188-0.54297-1.1172-0.19531-0.94531 0.90625-1.125 0.67578-1.1211-0.15234-1.0391-0.25781-1.0234-0.41406-0.5625-0.89453-0.92188-0.91016-0.91016-0.78906-0.91406-0.46875-1.1016-0.28516-1.543-0.83594-1.293-0.51953-1.0352-0.27344-1.2734 0.6875-0.98438 0.41797-1.3164-0.3125-0.89844 0.70703-0.62891 0.80078-0.86719 0.52344 0.035156 1.0195 0.054687 1.1523-0.625 0.98438-1.0039 0.91797-0.55078 1.3086-1.0742 0.41797-0.91406-0.42969-0.69922 1.1172-1.3477 0.33203-1 0.042969-1.2148 0.65625-1.0742 0.50781-1.0938-0.12109-1.5547 0.99609-0.82812 0.87891-0.43359 1.1719-0.59375 0.83594-0.82812 0.61328-0.84375 1.4609-0.9375 0.55469-1.0156 0.26172-1.3828 0.23047-1.0195 0.019531-0.96484 0.61719-0.67969 1.0234-1.043 0.48828-0.46484 1.1641-0.66797 1.1641-1.0312 0.75-1.0469-0.11719-0.91797 0.58203 0.36719 1.0156-0.43359 1.1133-0.53125 1.2148-0.4375 1.1602-0.92578 0.46484-0.9375 0.39453-1.1914 0.51172-1.0625-0.003906-1.0938-0.12891-1.1289 0.10547-1.207-0.23438-0.98438 0.58203-0.87891 0.67188-1.0273 0.36328-1.6484 0.35156-1.0117 0.53516-1.1406 0.49219-0.92578 0.88672-0.51172 0.88281-1.0273 0.51172-1.3633-0.19531-1.0664 0.054688-1.1641-1.1328-1.1328-1.0312-1.1133-0.78125-1.3242-1.1328-0.72656-0.69922-1.1016-0.81641-1.0859-0.78906-2.3359-0.79297-1.0664-0.34766-0.99609 0.24609-0.72266 0.75-0.050781 1.0469-0.44141 1.1758-0.42188 0.95703-0.90234 0.71875-0.98828 0.25-1.0352 0.38281-1.1016 0.58984-1.0469 0.42969-0.73828 0.72656-1.0391 0.89062-1.2617 0.53516-0.82422 0.82422-0.33984 1.3359-0.011719 1.043-0.24609 1.0977-0.67969 1.3281-0.79297 1.5039-0.35547 1.0195-1.0703 0.95312-1.0664 0.89062-1.5703 1.0195-1.082 0.61328-1.1289 0.57812 0.67969 1.7148 0.64844 1.2812 0.71484 1.0039 0.3125 1.1445-0.11719 1.0742-0.085938 1.3164-0.007812 1.3789-1.0547 0.78906h-1.2031l-1.3438-0.21484-0.83594-0.59766-1.1367-0.15625-1.1602 0.23047-1.1484 0.035156-1.9375 0.10547-0.91797 0.44531-0.30078 1.1484-0.57031 1.5703-0.078125 1.125-0.34766 1.0078-0.30078 1.5859-0.097656 1.0195-0.46875 1.3242-0.26953 0.96875-0.85938 0.51953 0.066406 1.4492 0.12891 1.0234 0.35156 1.1055 0.14844 1.0234-0.24609 1.3242-0.59766 0.80469-0.058594 1.5078 0.57422 1.3555 0.75781 0.91016 0.69141 0.82422 0.75391 1.4297 0.64062 1.1953-0.40234 1.0234-0.54297 1.0859-0.78125 1.25-0.79688 1.3594 0.023437 1.3125 0.085938 1.6328-0.16406 1.4219 0.066406 1-0.11328 1.1562-0.28906 0.98828-0.34375 0.96875-0.66016 0.92969-1.1797-0.066406-1.293 0.30078-1.4336-0.039062-1.4297-0.11328-1.4023-0.16406-0.30078 1.8359 0.097656 1.1836-0.27734 1.6367-0.89062 1.3164-0.61719 1.2031-0.13672 1.4023-0.625 2.1406-0.93359 1.418-0.82812 0.98047-0.89844 0.89062-1.8555-0.23047-1.2305-0.45312-1.5664-0.66016-1.8633-0.72266-1.4453-0.35938-1.2617-0.0625-1.5586 0.64844-6.6055-1.7734-1.0508-0.44531-2.543-0.57422-1.1797-0.60938-0.64453-0.76953-0.58203-0.85938-0.61719-1.168-0.58203-1.0703 0.11328-1.0625 1.3672-0.87109 1.0273-0.59766 1.0977-1.1172 0.63281-1.4492 1.2031-1.1523 2.4961-1.4648 1.1914-1.0625 1.0938-0.91797 0.046875-1.2852-0.79688-0.90625-1.793-1.5742-1.2734-1.2305-1.3945-2.0273-0.98047-0.84375-1.3359-0.875-1.3398-0.3125-3.1484-0.99219-1.6406-0.90625-0.69922-0.89062 1.0469-1.4805 0.94531-0.64844 0.5625-1.5117 0.60938-1.1445 1.1211-0.82422 1.168-0.29297 1.1719-0.72656 1.4023-0.6875 0.63672-1.1484 0.79688-1.2539 0.35156-1.0156 1.3008-1.1953 1.1289-0.59375 0.62891-0.85547 0.32422-1.8711-0.054687-1.2617 0.003906-1.8633 0.0625-1.2734v-1.0156l-0.21484-1.0664-0.99219-1.7539-1.5-1.3164-1.4219-1.2656-0.82812-1.2305-0.56641-1.625-0.74609-0.91797-0.94531-0.71094-1.2656-0.87891-0.90625-1.0938-0.96094-1.1562-0.32812-2.3125-0.22656-1.7461 0.066407-1.2344 0.089843-1.1367-1.0273-1.0977-0.63281-0.80078-0.95703-0.86719-1.1602-1.0273-1.2773-0.82031-1.4688-1.5859-0.83984-0.91797-1.2031-0.66797-1.5508-0.61328-0.74219-0.76172-0.71484-0.92969-0.84766-0.90625-0.49609-1-0.29688-1.2852 0.019531-1.207 0.58203-2.4766 0.15625-1.0078 0.019531-1.0352-0.3125-0.98047-0.75781-0.94531-0.19141-1.207 0.21094-1.0469-0.19531-1.1172 0.15625-1.2734-0.18359-0.99609-0.85547-0.51562-1.082-0.59766-1.043 0.058594-1.3047 0.61328-1.1953-0.27734-0.25391-1.1875-0.41016-1.332-0.79297-0.86328-1.1523-0.70703-2.0938-0.79688-0.90625-2.0898-0.16406-1.7266-0.32812-1.3555-1.4023-1.6758-1.125-0.34375-1.1172-0.12891-0.39453-2.3359-0.25-1.7188-0.66797-1.2812-0.74219-2.0586 0.24609-0.97656 0.36328-0.93359 0.64062-0.91406 1.1172-0.51953 0.89844-0.88281 0.67578-0.96484 0.69531-1.5273 1.0312-1.0039 1.2539-1.2734 1.6133-1.3906 1-0.94141 0.76562-0.71875 1.043-1.1758 0.80469-0.82031 0.67969-1.668-0.25391-1.3672-0.51172-1.2383 1.2617-2.8359 0.76172-1.6602 0.74609-1.1836 0.60156-1.0352 1.0781-1.9219 0.80078-0.82031 1.1055-0.80469 1.0156-0.24219 3.3672 0.10938 1.2617-0.60938 0.75391-1.1133 0.28906-1.4844 0.48438-1.1914 0.77734-0.77344 1.0352-0.47266 0.94922-0.64062 1.1992 0.12891 1.1211-0.34375 1.375-0.28906 1.2344-0.43359 0.98828-0.20312 1.1016-0.058594 1.0273-0.41797 1.3594-0.042968 1.3438 0.64844 1.2734-0.058594 0.95312-0.47656 0.98438-0.1875 1.2695 0.074219 0.94141 0.34375 1.0195 0.16016 0.99609-0.44531 1.2305-0.65234 1.0234-0.19922 1.2539 0.085937 1.6406 0.99219 0.40625 1.043 0.074219 1.2188 0.91797 0.80078 1.2305 0.59766 1.1953 0.082031 0.47266-1.2383 0.66016-1.0312 0.19531-1.2383 0.42188-1.082 0.97656-0.27344 1.3281 0.92969 0.78516 0.67969 0.84375 0.80078 0.88281 0.58984 0.65625 0.80078 0.52344 0.9375 0.15234 1.3711 0.20703 1.1484 0.89453 0.46094 1.1367-0.007812 1.1523 0.92969 1.1367 0.85547 1.3594 0.67188 1.4961 0.23047 1.3242-0.8125 0.33984-0.94922 0.64844-1.4883 0.74219-1.2617 0.84375-1.1055 1.1328-0.41406 1.1484-0.50391 0.98828-0.23438 1.1484 0.097657 1-0.039063 1.1094-0.25391 0.99609-0.27344 0.83594-0.99609 0.32422-1.2344-0.33594-1.5703-1.6133-2.1992-0.36719-1.8008 0.019531-1.4062 0.14453-1.4492 0.34766-1.0078 0.75-1.9609 0.51172-0.98438 1.1328-0.87891 1.4102-1.1133 0.89062-0.75 0.62891-0.79688 0.67578-0.88281 0.95703-0.61328 1.5195-1.1055 1.168-0.76172 0.875-0.76562 1.0586-0.70703 1.1289-0.88281 0.99609-0.92578 0.95312-0.57031 0.90234-0.63672 0.80469-0.78906 1.0273-0.22656 1.0039 0.050782 1.2578 0.23438 1.082 0.007812 1.0234 0.10156 1.0352 0.17578 1.0703 0.007812 1.1836 0.023438 1.2969 0.27344 0.94531 0.37891 1.2656 0.43359 1.0195 0.23438 0.83594 0.73828 1.0938 0.30078 1.5781-0.003906 1.3008-0.44922 0.98438-0.66016 1.0234-0.65234 0.8125-0.62891 0.96875-0.33594 1.0352-0.5625 1.4531-0.56641 1.1328-0.37891 0.74219-1.125 0.50781-0.87891 0.73438-0.6875 0.76172-0.67188 1.3477-0.94141 0.54297-0.85938 0.55859-1.0586 0.28125-1.1133 1.0117-0.097656 1.2188 0.085937 1.4258-0.24219 1.3008-0.25 1.1758 0.14844 1.168 0.13281 0.79688 0.62109 0.75781 0.6875 1.3008 0.95703 1.3047 0.65625 1.0859 0.15234 0.96484 0.53516 1.4922-0.046875 1.1328 0.14062 1.0664 0.61328 1.3516 0.14844 1.8438-0.03125 1.9531 0.15625 0.8125 0.60938 0.71875 1.2812 0.3125 1.3594 0.25 1 0.55078 1.3984-1.2578 1.6211-0.74609 0.70703-0.66016 0.83594 0.18359 1.2148 0.84375 0.77344 0.97266 0.26953 1.7852 0.35547 1.3203 0.25781 1.1953 0.18359 0.89844 0.47656 0.96094 0.46875 1.0312-0.6875 0.88281-0.61719 1.2656-0.55859 0.59766-0.91797 0.32031-0.94922 0.79297-0.80469 0.91016-0.55078 0.76172-0.79688 0.80469-0.60156 0.92969-0.45703 1.2109-0.19531 1.207-0.26953 1.2578-0.62891 1.1016-0.26172 1.5508-0.09375 1.0625-0.17578 2.2617-0.27734 1.5273 0.46094 1.3477 0.82812 1.5508 0.16797 1.1562 0.078125 1.1055-0.20703 0.97656-0.39453 1.7305-0.53516 1.6914-0.20312 1.4922-0.050781 1.0859-0.40234 1.2891-0.20312 1.1758-0.14844 1.4766-0.42578 1.1289 0.14453 1.1797 0.36328 1.082 0.15234 1.3789-0.29297 0.77734-1.2773 0.46094-1.2109 0.36719-0.98828 0.93359-0.88672 0.6875-1.0039 0.94141-0.42188 1.1367-0.58594 1.0156-0.22266 1.0039-0.17188 0.99609 0.21094 1.1641-0.27734 0.1875-1.1641-0.082031-1.2148 0.80859-1.0195 1.1211-0.72656 0.77344-0.65234 0.49219-1.3516 0.30859-1.1953 0.48828-1.8984 0.67188-1.4805 0.63281-1.1133 0.44922-1.293 0.24219-1.0195 0.50781-1.0312 0.65234-1.2266 0.050781-1.3164-0.16797-1.1641 0.5-1.0859-0.1875-1.0664 0.67969-0.85547 0.5-1.1055 0.21094-1.0859-0.039063-1.2188-0.078125-1.0898-0.33594-1.1914-0.64844-0.76953 0.26172-0.98047-0.10547-1.5391 0.035156-1.1914 0.36719-1.0156 0.29688-1.4531 0.27344-1.2344-0.042968-1.4414 0.80469-1.168 0.625-1.1328 0.46094-1.3164 0.57031-0.875 0.34375-1.2188 0.40625-1.2578-0.3125-1.0664 0.19141-1.0664z" fill="#0a5394" fill-rule="evenodd"/>
<path d="m397.81 14.652 0.83594 0.73047 1.2188 0.62109 0.71484 0.98438 0.29688 1.0938 0.42578 1.0938 0.6875 1.1094 0.21875 1.1172 0.12109 1.0078 0.86328 0.56641 0.55859 1.0664 1.0312 0.29688 0.92188 0.45312 1.0586 0.023437 1.1328 0.20703 0.92578-0.67578 1.1836-1.1133 1.0195-0.70703 1.2461-0.0625 1.332 0.56641 1.0352 0.074219 0.99609 0.10547 1.0469 0.54297 1.1562-0.10156 0.61719 0.91797 0.14062 1.1875 0.59766 0.91797 1.1172 0.39844 0.91797 0.53516 0.67969 0.94922 0.90234 0.94531 1 0.28516 1.1562-0.039063 1.0508-0.09375 0.92969 0.60938 0.68359 0.75 1.3477-0.50781 0.88281-0.52734 1.3945 0.054687 0.88672 0.51562 1.3672 1.2227 1.0234 0.035156 1.1914 0.33203 1.1758 0.015625 0.69922-0.79297 0.65625-0.9375 0.98047 0.31641 1.3438 0.36719 0.93359 0.4375 0.058594 1.1641 0.58984 1.1133 0.8125 0.72656 0.53125 0.92188 1.1016 0.36328 0.76172 1.0547 0.45312 1.4492-0.15625 1.3633-0.015625 1.1875 0.054687 1.2383 0.1875 1.3555 0.96875 0.83984 1.2305 0.44922 1.1328 0.12109 0.93359-0.58203 1.3203-0.74219 0.68359-0.73438 0.55469-0.86328 0.29297-1.0195 0.035156-1.1719 0.15234-1.7539 0.375-1.3516 0.50781-1.0352 1.1055-1.4492 0.64062-1.207 0.14844-1.6406-0.21094-1.2969-0.38672-1.4141 0.91797-0.83594 1.1055-0.40234 1.6445-0.13281 1.6016 0.81641 1.2188-0.12891 1.5156 0.19141 1.5078 0.17188 1.0508-0.074219 1.2812-0.66797 0.96094-0.28516 1.1914-0.71094 1.2656-0.42578 1.3945-0.050782 0.96484 0.95312 1.3398 0.73047 0.95703 0.68359 1.2891 0.63281 1.1758 0.93359 1.3008 0.027344 1.3789-0.35938 2.0039-0.98438 1.0078-0.70312 1.9297 0.19141 2.6172 0.875 1.4062 0.71875 1 0.51172 0.81641 0.74609 1.0977 0.36328 1.4805 0.66406 0.39844 1.0273-0.37891 2.3789-0.13672 2.0898 0.17188 1.0625 0.20312 1.2266 0.21094 1.0312 0.35938 0.9375 0.87109 1.1328 0.52344 1.0039 0.48438 0.97266 0.10156 1.1133-0.34766 1.0742 0.21484 1.3242 0.53125 1.332 0.35547 1.1406 0.21484 1.0625 0.33984 1.0859 0.67969 0.97266 0.37891 1.0664-0.34766 2.1914-0.26172 1.1367 0.082032 1.293-0.011719 1.2852-0.48047 1.0859-0.49609 1.4258-0.21484 1.293-0.0625 1.0859-0.28906 1.7695 0.085938 1.0078-0.39844 1.2148-0.26172 1.2773 0.15234 1.1445 0.35156 1.082-1.0664 0.51953-0.38672 1.1992-0.87109 0.67969-0.69922 1.1719-1.3086 0.90234-1.0156 1.2266-0.54688 1.207-0.96094 0.61719-1.3789-0.41016-1.1406-0.375-1.0039 0.56641 0.13672 1.2969 0.51172 0.89844 0.23047 1.4492 0.015625 1.1641-0.33984 0.99609-0.48438 1.2305-0.66797 0.85547-0.17578 1.1719 0.18359 1.2148-0.56641 1.2188-0.5625 1.2773v1.4258l0.44922 1.8477 0.57812 1.7539-0.097656 1.0273-0.76953 1.5547-0.70703 1.125-0.83984 0.96875-0.87891 1.3711-0.50781 0.90234-1.5273-0.63281-0.87109-0.85938-1.1992-1.1094-1.4141-1.2812-1.9609-1.3359-0.90625-0.55859-1.6211 0.078125-1.3984 0.13281-1.1133 0.74609-1.3477 1.6797-2.4141 1.4727-0.99219 0.90625-0.79297 1.7266-0.11328 1.293-0.30469 1.7148-0.92188 1.1445-1.1172 0.77734-1.2305 0.28125-1.2812 0.42578-1.3086 0.125-1.3086-0.0625-1.0625-0.15234-0.85156 0.9375-0.097656 1.6406 0.39844 1.5195-1.5234 1.1406-2.457 1.6406-0.92188 0.70312-0.87891 0.55859-0.93359 0.54688-1.7305 0.55469-1.5195 0.10547-1.9375 0.21484-1.5469 0.70703-3 2.0078-1.1016 1.4219-0.56641 1.2383 0.1875 2.0664 0.16406 1.4805 0.5625 1.1797 0.75391 1.1289 0.11719 1.1328-0.51953 1.6797-0.47266 1.3047-0.0625 1.0586 0.11328 1.0742-0.15625 1.1406-0.45703 0.92969-0.79297 1.4336-1.1289 1.8789-0.58984 1.3711-1.1758 0.30469-1.5664 0.16406-1.0625-0.25781-0.66406-0.88281-0.64453-0.98047-1.0078-1.0391-0.72656-0.94141-0.70312-0.81641-0.99609-0.28516-1.1914 0.10156-0.71875-0.90625-0.84766-0.71094-1.8086-0.15234-1.2539 0.050781-1.0508 0.19531-1.2695 0.070312-1.0703-0.32812-0.87109-0.5625-0.94141-0.42188-0.94531 0.83594-0.89453 0.48047-1.7539 0.36719-1.7305-0.64844-0.98828-0.34766-1.2695 0.47656-0.99219 0.39844-0.15625 1.3125-0.10156 1.0039-1.1406 0.51562-1.1641 0.37891-0.97656 0.28906-1.0195 0.078125-1.0742-0.30469-1.3203-0.17969-0.55469-0.92969-1.0859-0.57031-1.5977 0.27344-1.2695-0.03125-1.0859 0.042968-1.043-0.27344-1.043-0.035156-1.3281-0.29297-2.0703 0.066406-0.96094 0.48047-0.99609 0.66016-1.3984 0.41797-1.4883 0.25781-1.4219-0.67188-1.0078-0.30078-0.96094-0.30078-1.2734 0.054687-0.875 0.62109-1.168 0.89844-1.0234 0.34375-1.0742 0.10547-1.1797 0.46484-0.92578 0.59766-1.0273 0.51562-1.2812-0.023437-1.2812 0.023437-1.0039-0.60938-1.0742-0.25391-1.0352-0.23047-1.4688 0.19922-1.082 0.13281-1.1172-0.13281-1.8516-0.027344-1.5703-0.125-1.2227-0.50781-0.92188-0.54297-1.1172-0.19531-0.94531 0.90625-1.125 0.67578-1.1211-0.15234-1.0391-0.25781-1.0234-0.41406-0.5625-0.89453-0.92188-0.91016-0.91016-0.78906-0.91406-0.46875-1.1016-0.28516-1.543-0.83594-1.293-0.51953-1.0352-0.27344-1.2734 0.6875-0.98438 0.41797-1.3164-0.3125-0.89844 0.70703-0.62891 0.80078-0.86719 0.52344 0.035156 1.0195 0.054687 1.1523-0.625 0.98438-1.0039 0.91797-0.55078 1.3086-1.0742 0.41797-0.91406-0.42969-0.69922 1.1172-1.3477 0.33203-1 0.042969-1.2148 0.65625-1.0742 0.50781-1.0938-0.12109-1.5547 0.99609-0.82812 0.87891-0.43359 1.1719-0.59375 0.83594-0.82812 0.61328-0.84375 1.4609-0.9375 0.55469-1.0156 0.26172-1.3828 0.23047-1.0195 0.019531-0.96484 0.61719-0.67969 1.0234-1.043 0.48828-0.46484 1.1641-0.66797 1.1641-1.0312 0.75-1.0469-0.11719-0.91797 0.58203 0.36719 1.0156-0.43359 1.1133-0.53125 1.2148-0.4375 1.1602-0.92578 0.46484-0.9375 0.39453-1.1914 0.51172-1.0625-0.003906-1.0938-0.12891-1.1289 0.10547-1.207-0.23438-0.98438 0.58203-0.87891 0.67188-1.0273 0.36328-1.6484 0.35156-1.0117 0.53516-1.1406 0.49219-0.92578 0.88672-0.51172 0.88281-1.0273 0.51172-1.3633-0.19531-1.0664 0.054688-1.1641-1.1328-1.1328-1.0312-1.1133-0.78125-1.3242-1.1328-0.72656-0.69922-1.1016-0.81641-1.0859-0.78906-2.3359-0.79297-1.0664-0.34766-0.99609 0.24609-0.72266 0.75-0.050781 1.0469-0.44141 1.1758-0.42188 0.95703-0.90234 0.71875-0.98828 0.25-1.0352 0.38281-1.1016 0.58984-1.0469 0.42969-0.73828 0.72656-1.0391 0.89062-1.2617 0.53516-0.82422 0.82422-0.33984 1.3359-0.011719 1.043-0.24609 1.0977-0.67969 1.3281-0.79297 1.5039-0.35547 1.0195-1.0703 0.95312-1.0664 0.89062-1.5703 1.0195-1.082 0.61328-1.1289 0.57812 0.67969 1.7148 0.64844 1.2812 0.71484 1.0039 0.3125 1.1445-0.11719 1.0742-0.085938 1.3164-0.007812 1.3789-1.0547 0.78906h-1.2031l-1.3438-0.21484-0.83594-0.59766-1.1367-0.15625-1.1602 0.23047-1.1484 0.035156-1.9375 0.10547-0.91797 0.44531-0.30078 1.1484-0.57031 1.5703-0.078125 1.125-0.34766 1.0078-0.30078 1.5859-0.097656 1.0195-0.46875 1.3242-0.26953 0.96875-0.85938 0.51953 0.066406 1.4492 0.12891 1.0234 0.35156 1.1055 0.14844 1.0234-0.24609 1.3242-0.59766 0.80469-0.058594 1.5078 0.57422 1.3555 0.75781 0.91016 0.69141 0.82422 0.75391 1.4297 0.64062 1.1953-0.40234 1.0234-0.54297 1.0859-0.78125 1.25-0.79688 1.3594 0.023437 1.3125 0.085938 1.6328-0.16406 1.4219 0.066406 1-0.11328 1.1562-0.28906 0.98828-0.34375 0.96875-0.66016 0.92969-1.1797-0.066406-1.293 0.30078-1.4336-0.039062-1.4297-0.11328-1.4023-0.16406-0.30078 1.8359 0.097656 1.1836-0.27734 1.6367-0.89062 1.3164-0.61719 1.2031-0.13672 1.4023-0.625 2.1406-0.93359 1.418-0.82812 0.98047-0.89844 0.89062-1.8555-0.23047-1.2305-0.45312-1.5664-0.66016-1.8633-0.72266-1.4453-0.35938-1.2617-0.0625-1.5586 0.64844-6.6055-1.7734-1.0508-0.44531-2.543-0.57422-1.1797-0.60938-0.64453-0.76953-0.58203-0.85938-0.61719-1.168-0.58203-1.0703 0.11328-1.0625 1.3672-0.87109 1.0273-0.59766 1.0977-1.1172 0.63281-1.4492 1.2031-1.1523 2.4961-1.4648 1.1914-1.0625 1.0938-0.91797 0.046875-1.2852-0.79688-0.90625-1.793-1.5742-1.2734-1.2305-1.3945-2.0273-0.98047-0.84375-1.3359-0.875-1.3398-0.3125-3.1484-0.99219-1.6406-0.90625-0.69922-0.89062 1.0469-1.4805 0.94531-0.64844 0.5625-1.5117 0.60938-1.1445 1.1211-0.82422 1.168-0.29297 1.1719-0.72656 1.4023-0.6875 0.63672-1.1484 0.79688-1.2539 0.35156-1.0156 1.3008-1.1953 1.1289-0.59375 0.62891-0.85547 0.32422-1.8711-0.054687-1.2617 0.003906-1.8633 0.0625-1.2734v-1.0156l-0.21484-1.0664-0.99219-1.7539-1.5-1.3164-1.4219-1.2656-0.82812-1.2305-0.56641-1.625-0.74609-0.91797-0.94531-0.71094-1.2656-0.87891-0.90625-1.0938-0.96094-1.1562-0.32812-2.3125-0.22656-1.7461 0.066407-1.2344 0.089843-1.1367-1.0273-1.0977-0.63281-0.80078-0.95703-0.86719-1.1602-1.0273-1.2773-0.82031-1.4688-1.5859-0.83984-0.91797-1.2031-0.66797-1.5508-0.61328-0.74219-0.76172-0.71484-0.92969-0.84766-0.90625-0.49609-1-0.29688-1.2852 0.019531-1.207 0.58203-2.4766 0.15625-1.0078 0.019531-1.0352-0.3125-0.98047-0.75781-0.94531-0.19141-1.207 0.21094-1.0469-0.19531-1.1172 0.15625-1.2734-0.18359-0.99609-0.85547-0.51562-1.082-0.59766-1.043 0.058594-1.3047 0.61328-1.1953-0.27734-0.25391-1.1875-0.41016-1.332-0.79297-0.86328-1.1523-0.70703-2.0938-0.79688-0.90625-2.0898-0.16406-1.7266-0.32812-1.3555-1.4023-1.6758-1.125-0.34375-1.1172-0.12891-0.39453-2.3359-0.25-1.7188-0.66797-1.2812-0.74219-2.0586 0.24609-0.97656 0.36328-0.93359 0.64062-0.91406 1.1172-0.51953 0.89844-0.88281 0.67578-0.96484 0.69531-1.5273 1.0312-1.0039 1.2539-1.2734 1.6133-1.3906 1-0.94141 0.76562-0.71875 1.043-1.1758 0.80469-0.82031 0.67969-1.668-0.25391-1.3672-0.51172-1.2383 1.2617-2.8359 0.76172-1.6602 0.74609-1.1836 0.60156-1.0352 1.0781-1.9219 0.80078-0.82031 1.1055-0.80469 1.0156-0.24219 3.3672 0.10938 1.2617-0.60938 0.75391-1.1133 0.28906-1.4844 0.48438-1.1914 0.77734-0.77344 1.0352-0.47266 0.94922-0.64062 1.1992 0.12891 1.1211-0.34375 1.375-0.28906 1.2344-0.43359 0.98828-0.20312 1.1016-0.058594 1.0273-0.41797 1.3594-0.042968 1.3438 0.64844 1.2734-0.058594 0.95312-0.47656 0.98438-0.1875 1.2695 0.074219 0.94141 0.34375 1.0195 0.16016 0.99609-0.44531 1.2305-0.65234 1.0234-0.19922 1.2539 0.085937 1.6406 0.99219 0.40625 1.043 0.074219 1.2188 0.91797 0.80078 1.2305 0.59766 1.1953 0.082031 0.47266-1.2383 0.66016-1.0312 0.19531-1.2383 0.42188-1.082 0.97656-0.27344 1.3281 0.92969 0.78516 0.67969 0.84375 0.80078 0.88281 0.58984 0.65625 0.80078 0.52344 0.9375 0.15234 1.3711 0.20703 1.1484 0.89453 0.46094 1.1367-0.007812 1.1523 0.92969 1.1367 0.85547 1.3594 0.67188 1.4961 0.23047 1.3242-0.8125 0.33984-0.94922 0.64844-1.4883 0.74219-1.2617 0.84375-1.1055 1.1328-0.41406 1.1484-0.50391 0.98828-0.23438 1.1484 0.097657 1-0.039063 1.1094-0.25391 0.99609-0.27344 0.83594-0.99609 0.32422-1.2344-0.33594-1.5703-1.6133-2.1992-0.36719-1.8008 0.019531-1.4062 0.14453-1.4492 0.34766-1.0078 0.75-1.9609 0.51172-0.98438 1.1328-0.87891 1.4102-1.1133 0.89062-0.75 0.62891-0.79688 0.67578-0.88281 0.95703-0.61328 1.5195-1.1055 1.168-0.76172 0.875-0.76562 1.0586-0.70703 1.1289-0.88281 0.99609-0.92578 0.95312-0.57031 0.90234-0.63672 0.80469-0.78906 1.0273-0.22656 1.0039 0.050782 1.2578 0.23438 1.082 0.007812 1.0234 0.10156 1.0352 0.17578 1.0703 0.007812 1.1836 0.023438 1.2969 0.27344 0.94531 0.37891 1.2656 0.43359 1.0195 0.23438 0.83594 0.73828 1.0938 0.30078 1.5781-0.003906 1.3008-0.44922 0.98438-0.66016 1.0234-0.65234 0.8125-0.62891 0.96875-0.33594 1.0352-0.5625 1.4531-0.56641 1.1328-0.37891 0.74219-1.125 0.50781-0.87891 0.73438-0.6875 0.76172-0.67188 1.3477-0.94141 0.54297-0.85938 0.55859-1.0586 0.28125-1.1133 1.0117-0.097656 1.2188 0.085937 1.4258-0.24219 1.3008-0.25 1.1758 0.14844 1.168 0.13281 0.79688 0.62109 0.75781 0.6875 1.3008 0.95703 1.3047 0.65625 1.0859 0.15234 0.96484 0.53516 1.4922-0.046875 1.1328 0.14062 1.0664 0.61328 1.3516 0.14844 1.8438-0.03125 1.9531 0.15625 0.8125 0.60938 0.71875 1.2812 0.3125 1.3594 0.25 1 0.55078 1.3984-1.2578 1.6211-0.74609 0.70703-0.66016 0.83594 0.18359 1.2148 0.84375 0.77344 0.97266 0.26953 1.7852 0.35547 1.3203 0.25781 1.1953 0.18359 0.89844 0.47656 0.96094 0.46875 1.0312-0.6875 0.88281-0.61719 1.2656-0.55859 0.59766-0.91797 0.32031-0.94922 0.79297-0.80469 0.91016-0.55078 0.76172-0.79688 0.80469-0.60156 0.92969-0.45703 1.2109-0.19531 1.207-0.26953 1.2578-0.62891 1.1016-0.26172 1.5508-0.09375 1.0625-0.17578 2.2617-0.27734 1.5273 0.46094 1.3477 0.82812 1.5508 0.16797 1.1562 0.078125 1.1055-0.20703 0.97656-0.39453 1.7305-0.53516 1.6914-0.20312 1.4922-0.050781 1.0859-0.40234 1.2891-0.20312 1.1758-0.14844 1.4766-0.42578 1.1289 0.14453 1.1797 0.36328 1.082 0.15234 1.3789-0.29297 0.77734-1.2773 0.46094-1.2109 0.36719-0.98828 0.93359-0.88672 0.6875-1.0039 0.94141-0.42188 1.1367-0.58594 1.0156-0.22266 1.0039-0.17188 0.99609 0.21094 1.1641-0.27734 0.1875-1.1641-0.082031-1.2148 0.80859-1.0195 1.1211-0.72656 0.77344-0.65234 0.49219-1.3516 0.30859-1.1953 0.48828-1.8984 0.67188-1.4805 0.63281-1.1133 0.44922-1.293 0.24219-1.0195 0.50781-1.0312 0.65234-1.2266 0.050781-1.3164-0.16797-1.1641 0.5-1.0859-0.1875-1.0664 0.67969-0.85547 0.5-1.1055 0.21094-1.0859-0.039063-1.2188-0.078125-1.0898-0.33594-1.1914-0.64844-0.76953 0.26172-0.98047-0.10547-1.5391 0.035156-1.1914 0.36719-1.0156 0.29688-1.4531 0.27344-1.2344-0.042968-1.4414 0.80469-1.168 0.625-1.1328 0.46094-1.3164 0.57031-0.875 0.34375-1.2188 0.40625-1.2578-0.3125-1.0664 0.19141-1.0664 0.33594-0.57422" fill="none" stroke="#fff" stroke-linecap="round" stroke-linejoin="round" stroke-miterlimit="10"/>
<path d="m230.7 149.11c0 3.5898-2.9102 6.5-6.5 6.5-3.5898 0-6.5-2.9102-6.5-6.5s2.9102-6.5 6.5-6.5c3.5898 0 6.5 2.9102 6.5 6.5" fill="#28c028" fill-rule="evenodd" stroke="#000" stroke-linecap="round" stroke-linejoin="round" stroke-miterlimit="10"/>
<path d="m86.977 126.64h3.3125v8.9219c0 1.418 0.039062 2.3359 0.125 2.75 0.14453 0.67969 0.48438 1.2188 1.0156 1.625 0.53906 0.40625 1.2734 0.60938 2.2031 0.60938 0.9375 0 1.6445-0.19141 2.125-0.57812 0.47656-0.38281 0.76562-0.85938 0.85938-1.4219 0.10156-0.5625 0.15625-1.4922 0.15625-2.7969v-9.1094h3.3281v8.6562c0 1.9688-0.09375 3.3672-0.28125 4.1875-0.17969 0.8125-0.50781 1.5-0.98438 2.0625-0.48047 0.5625-1.125 1.0117-1.9375 1.3438s-1.8711 0.5-3.1719 0.5c-1.5742 0-2.7656-0.18359-3.5781-0.54688s-1.4531-0.83203-1.9219-1.4062c-0.46875-0.58203-0.77734-1.1914-0.92188-1.8281-0.21875-0.94531-0.32812-2.3438-0.32812-4.1875zm16.719 16.469v-16.328h3.3281v13.547h8.2656v2.7812zm24.484-6.0469 3.2344 1.0156c-0.5 1.793-1.3281 3.125-2.4844 4-1.1484 0.875-2.6016 1.3125-4.3594 1.3125-2.1875 0-3.9844-0.74219-5.3906-2.2344-1.4062-1.5-2.1094-3.5469-2.1094-6.1406 0-2.7383 0.70312-4.8633 2.1094-6.375 1.4141-1.5195 3.2812-2.2812 5.5938-2.2812 2.0078 0 3.6445 0.60156 4.9062 1.7969 0.75 0.69922 1.3125 1.7109 1.6875 3.0312l-3.2969 0.78125c-0.19922-0.85156-0.60547-1.5234-1.2188-2.0156-0.61719-0.5-1.3672-0.75-2.25-0.75-1.2188 0-2.2109 0.4375-2.9688 1.3125-0.76172 0.875-1.1406 2.2969-1.1406 4.2656 0 2.0742 0.375 3.5547 1.125 4.4375 0.75 0.88672 1.7227 1.3281 2.9219 1.3281 0.88281 0 1.6445-0.28125 2.2812-0.84375 0.63281-0.5625 1.0859-1.4414 1.3594-2.6406zm6.0625-10.422h3.3125v8.9219c0 1.418 0.039062 2.3359 0.125 2.75 0.14453 0.67969 0.48438 1.2188 1.0156 1.625 0.53906 0.40625 1.2734 0.60938 2.2031 0.60938 0.9375 0 1.6445-0.19141 2.125-0.57812 0.47656-0.38281 0.76562-0.85938 0.85938-1.4219 0.10156-0.5625 0.15625-1.4922 0.15625-2.7969v-9.1094h3.3281v8.6562c0 1.9688-0.09375 3.3672-0.28125 4.1875-0.17969 0.8125-0.50781 1.5-0.98438 2.0625-0.48047 0.5625-1.125 1.0117-1.9375 1.3438s-1.8711 0.5-3.1719 0.5c-1.5742 0-2.7656-0.18359-3.5781-0.54688s-1.4531-0.83203-1.9219-1.4062c-0.46875-0.58203-0.77734-1.1914-0.92188-1.8281-0.21875-0.94531-0.32812-2.3438-0.32812-4.1875zm16.578 16.469v-16.469h4.9844l2.9844 11.234 2.9531-11.234h4.9844v16.469h-3.0938v-12.953l-3.2656 12.953h-3.2031l-3.25-12.953v12.953zm34.047 0h-3.6094l-1.4375-3.7344h-6.5781l-1.3594 3.7344h-3.5312l6.4062-16.469h3.5156zm-6.1094-6.5156-2.2812-6.1094-2.2188 6.1094zm12.203 6.5156v-6.9219l-6.0312-9.5469h3.8906l3.875 6.5156 3.7969-6.5156h3.8281l-6.0469 9.5625v6.9062zm10.344-8.125c0-1.6758 0.25-3.0859 0.75-4.2344 0.375-0.83203 0.88281-1.582 1.5312-2.25 0.64453-0.66406 1.3516-1.1602 2.125-1.4844 1.0312-0.4375 2.2188-0.65625 3.5625-0.65625 2.4141 0 4.3516 0.75781 5.8125 2.2656 1.457 1.5 2.1875 3.5938 2.1875 6.2812 0 2.6562-0.72656 4.7344-2.1719 6.2344-1.4375 1.5-3.3711 2.25-5.7969 2.25-2.4492 0-4.3984-0.74219-5.8438-2.2344-1.4375-1.5-2.1562-3.5547-2.1562-6.1719zm3.4219-0.125c0 1.8672 0.42969 3.2812 1.2969 4.25 0.86328 0.96094 1.957 1.4375 3.2812 1.4375 1.3203 0 2.4062-0.47266 3.25-1.4219 0.85156-0.95703 1.2812-2.3906 1.2812-4.2969 0-1.8945-0.41797-3.3047-1.25-4.2344-0.82422-0.92578-1.918-1.3906-3.2812-1.3906-1.375 0-2.4844 0.47656-3.3281 1.4219-0.83594 0.9375-1.25 2.3516-1.25 4.2344zm0 0" fill="none" stroke="#fff" stroke-linecap="round" stroke-linejoin="round" stroke-miterlimit="10" stroke-width="2"/>
<path d="m86.977 126.64h3.3125v8.9219c0 1.418 0.039062 2.3359 0.125 2.75 0.14453 0.67969 0.48438 1.2188 1.0156 1.625 0.53906 0.40625 1.2734 0.60938 2.2031 0.60938 0.9375 0 1.6445-0.19141 2.125-0.57812 0.47656-0.38281 0.76562-0.85938 0.85938-1.4219 0.10156-0.5625 0.15625-1.4922 0.15625-2.7969v-9.1094h3.3281v8.6562c0 1.9688-0.09375 3.3672-0.28125 4.1875-0.17969 0.8125-0.50781 1.5-0.98438 2.0625-0.48047 0.5625-1.125 1.0117-1.9375 1.3438s-1.8711 0.5-3.1719 0.5c-1.5742 0-2.7656-0.18359-3.5781-0.54688s-1.4531-0.83203-1.9219-1.4062c-0.46875-0.58203-0.77734-1.1914-0.92188-1.8281-0.21875-0.94531-0.32812-2.3438-0.32812-4.1875zm16.719 16.469v-16.328h3.3281v13.547h8.2656v2.7812zm24.484-6.0469 3.2344 1.0156c-0.5 1.793-1.3281 3.125-2.4844 4-1.1484 0.875-2.6016 1.3125-4.3594 1.3125-2.1875 0-3.9844-0.74219-5.3906-2.2344-1.4062-1.5-2.1094-3.5469-2.1094-6.1406 0-2.7383 0.70312-4.8633 2.1094-6.375 1.4141-1.5195 3.2812-2.2812 5.5938-2.2812 2.0078 0 3.6445 0.60156 4.9062 1.7969 0.75 0.69922 1.3125 1.7109 1.6875 3.0312l-3.2969 0.78125c-0.19922-0.85156-0.60547-1.5234-1.2188-2.0156-0.61719-0.5-1.3672-0.75-2.25-0.75-1.2188 0-2.2109 0.4375-2.9688 1.3125-0.76172 0.875-1.1406 2.2969-1.1406 4.2656 0 2.0742 0.375 3.5547 1.125 4.4375 0.75 0.88672 1.7227 1.3281 2.9219 1.3281 0.88281 0 1.6445-0.28125 2.2812-0.84375 0.63281-0.5625 1.0859-1.4414 1.3594-2.6406zm6.0625-10.422h3.3125v8.9219c0 1.418 0.039062 2.3359 0.125 2.75 0.14453 0.67969 0.48438 1.2188 1.0156 1.625 0.53906 0.40625 1.2734 0.60938 2.2031 0.60938 0.9375 0 1.6445-0.19141 2.125-0.57812 0.47656-0.38281 0.76562-0.85938 0.85938-1.4219 0.10156-0.5625 0.15625-1.4922 0.15625-2.7969v-9.1094h3.3281v8.6562c0 1.9688-0.09375 3.3672-0.28125 4.1875-0.17969 0.8125-0.50781 1.5-0.98438 2.0625-0.48047 0.5625-1.125 1.0117-1.9375 1.3438s-1.8711 0.5-3.1719 0.5c-1.5742 0-2.7656-0.18359-3.5781-0.54688s-1.4531-0.83203-1.9219-1.4062c-0.46875-0.58203-0.77734-1.1914-0.92188-1.8281-0.21875-0.94531-0.32812-2.3438-0.32812-4.1875zm16.578 16.469v-16.469h4.9844l2.9844 11.234 2.9531-11.234h4.9844v16.469h-3.0938v-12.953l-3.2656 12.953h-3.2031l-3.25-12.953v12.953zm34.047 0h-3.6094l-1.4375-3.7344h-6.5781l-1.3594 3.7344h-3.5312l6.4062-16.469h3.5156zm-6.1094-6.5156-2.2812-6.1094-2.2188 6.1094zm12.203 6.5156v-6.9219l-6.0312-9.5469h3.8906l3.875 6.5156 3.7969-6.5156h3.8281l-6.0469 9.5625v6.9062zm10.344-8.125c0-1.6758 0.25-3.0859 0.75-4.2344 0.375-0.83203 0.88281-1.582 1.5312-2.25 0.64453-0.66406 1.3516-1.1602 2.125-1.4844 1.0312-0.4375 2.2188-0.65625 3.5625-0.65625 2.4141 0 4.3516 0.75781 5.8125 2.2656 1.457 1.5 2.1875 3.5938 2.1875 6.2812 0 2.6562-0.72656 4.7344-2.1719 6.2344-1.4375 1.5-3.3711 2.25-5.7969 2.25-2.4492 0-4.3984-0.74219-5.8438-2.2344-1.4375-1.5-2.1562-3.5547-2.1562-6.1719zm3.4219-0.125c0 1.8672 0.42969 3.2812 1.2969 4.25 0.86328 0.96094 1.957 1.4375 3.2812 1.4375 1.3203 0 2.4062-0.47266 3.25-1.4219 0.85156-0.95703 1.2812-2.3906 1.2812-4.2969 0-1.8945-0.41797-3.3047-1.25-4.2344-0.82422-0.92578-1.918-1.3906-3.2812-1.3906-1.375 0-2.4844 0.47656-3.3281 1.4219-0.83594 0.9375-1.25 2.3516-1.25 4.2344z" fill-rule="evenodd"/>
</g>
</svg>
