<?xml version="1.0" encoding="UTF-8"?>
<svg width="495pt" height="500pt" version="1.1" viewBox="0 0 495 500" xmlns="http://www.w3.org/2000/svg">
<g id="a">
<rect width="495" height="500" fill="none"/>
<path d="m343.53 2.3594 2.4062 0.70312 1.5078 0.80469 1.9258 0.48828 1.8203 0.38281 1.543 0.19922 1.3555-0.11719 1.4883 0.097656 1.4883-0.20703 2.1055-0.18359 2.1523 0.085937 1.5273 0.11719 1.4688-0.11719 1.0391-0.019531 2.2734-0.078125 2.2383-0.11328 1.3281 0.09375 1.4141 0.25391 1.4023 0.31641 1.5352 0.33203 0.86328 0.54688 0.39062 1.332-0.52734 1.4102-0.70703 1.0195-1.1953 1.0547-0.79297 1.5039-0.73828 2.0078-0.42188 0.94922-1.4492 1.5703-0.98047 2.1289-0.18359 1.4766 0.21094 1.4805 0.44922 1.3711 0.98438 0.75 0.62109 0.90234 0.83203 0.64062 1.1875 0.69141 1.3281 0.76562 1.1836 0.57031 0.91797 1.0938 0.91406 1.3477 1.0469 0.97266 1.1133 1.4102 1.1289 0.97266-1.0586 1.0586-1.2812 1.0391-1.1953 0.73438-0.80859 1.5742 0.13672 1.5586-0.38672 1.8203-0.375 1.0586-0.51172 0.92188-1.2461 2.3672 0.10938 2.6445 0.13672 1.043 0.60938 2.3359-1.4648 0.73438-1.082 0.14062-1.4414 0.74609-1.0352 0.59766-0.58594 1.4102-0.35156 1.0391-0.5625 1.0156-0.70703 1.7695-0.15234 1.0547-0.007812 1.3555 0.15234 1.4727 0.29688 1.0977 0.87891 1.7383 1.4883 2.3359 0.14844 1.1484-0.078125 1.5312-0.085937 1.4688 0.058594 1.4531-0.1875 1.1133-0.019532 1.4492 0.74609 1.0039 1.1445 0.375 1.0508-0.074219 1.0703-0.25391 1.3086-0.58984 1.1133-0.53906 1.8672-0.94531 1.5391-0.38281 1.6406-0.019532 1.3516 0.019532 1.332 0.035156 1.3125 0.21094 1.582 0.38672 1.0586 0.44531 2.918 0.72656 1.4766 0.18359 1.2734 0.36719 1.6406 0.125 1.5977 0.125 1.8594 0.78906 1.1133 0.6875 1.0703 0.51172 1.4492 0.14453 2.4453-0.16406 1.7188-0.20312 1.8711-0.16797 1.6289-0.25391 2.3086-0.66797 1.0742-0.39062 0.87109-0.60938 1.2344-0.57031-1.9062 2.4648-0.68359 0.81641-0.84766 1.125-0.75391 1.9062-0.13672 1.1953-0.16797 1.8711 0.03125 1.8398-0.30859 2.4805-0.20703 1.4609-0.5 1.0898-0.77344 1.1367-0.61719 1.1406-0.46094 1.207-0.71094 1.9961-0.17969 1.4531 0.66016 1.4844 1.2812 2.1797 0.82422 1.457 0.20703 1.3359 0.43359 1.9961 0.14844 1.3398 0.11719 1.1836 0.16406 1.8281 0.21484 1.7578 1.0195 0.40625 2.2422-0.16406 1.8633-0.48438 1.543-0.12891 1.4219 0.55078 1.5078 0.027344 1.1016 0.15625 1.1562 1.4297 0.96484 0.88672 1.7148 0.54297 1.1484 0.17188 2.6875 2.1484 3.043 1.4453 1.207 0.97656 1.0938 0.58594 0.95703 0.57812 1.1758 0.64062 1.2578 0.75 1.2031 0.59375 1.4844 0.30469 1.0039 0.5625 1.1328 1.1562 1.0742 1.1914-0.82422 1.3906-0.66406 1.1562-0.51953 1.1172-1.4023 0.89844-2.4609 0.95703-0.89844 0.49219-1.6602 1.2305-1.0039 0.89062-0.76172 0.89844-0.65234 1.3047-0.10938 2.582 0.46094 1.332 0.16406 1.0078 0.054688 1.3047-0.19141 1.1133-1.1953 1.1445-1.0625 1.9023-0.89844 0.59766-0.94922 0.89844-1.1719 0.625-0.92188 1.0078-0.92578 0.8125-0.76172 0.98047-0.57031 0.92578-0.67969 0.78906-1.1719 0.46094-1.7812-0.039062-1.6719-0.22266-1.7109-0.75391-1.0586-0.61719-2.4102-1.0156-1.3125-0.86719-1.5234 0.074219-1.1602 0.40625-1.1641 0.18359-1.1016-0.73438-1.6094-0.16406-1.1016-0.26562-0.96094 0.39062-1 0.20312-1.4688 0.039063-1.6914 0.125-2.1211 0.40625-2.0781 0.14062-0.98047 0.53125-0.87891 0.57031-1.5898-0.12109-1.4688-0.24609-1.4258-0.26172-1.3047 0.26172-2.1406 1.457-1.1875 0.64844-1.5898-0.042969-2.5273 2.8555-0.57422 0.89844-0.60156 1.3984-0.98047 2.1367 0.24219 1.2266 0.070312 1.2617-1.0156 1.8555-0.875 1.2227-0.99219 1.0859-1.2266 1.0742-0.72656 1.1094-0.6875 1.0312-0.99609 1.3398-0.88281 0.99609-1.1211 1.2852-1.4727 1.0078-2.2656 1.7148-1.6055 0.43359-1.043 0.39453-1.8359 1.1289-1.7227 1.3281-1.6094 0.77734-1.0352 1.3945-1.4648 1.9922-1.0273 1.0508-1.6602 1.3008-1.6992 0.92188-1.5 0.88672-1.2344 0.52734-0.90234 0.44922-2.3711 0.80078-1.6133 0.37109-1.5078-0.25-1.0586-0.57031-1.5547-0.58594-2.3164-0.17969-1.0625-0.25781-1.1523-0.64062-1.5586-0.23047-1.7344-0.45703-1.25-0.8125-1.3164-0.35156-1.3867 0.39062-1.0547-0.16406-0.89844 0.66016-0.87109-0.55078-0.94531-0.35156-1.0156-0.35547-1.0117-0.57422-1.0352-0.21875-1.2148 0.48438-1.4648 0.54297-1.0664 0.007813-0.72266-0.87109-1.1602-0.27344-1.0508-0.35938-1.1133 0.34766-1.1172 0.0625-0.82812 0.70312-0.83203-1.1172-0.28516-1.2344-0.25-0.98047-0.74219-1.3789-1.043-0.54297-1.2148-0.32031-0.94922-0.71484-2.1953-0.58594-1.1836-0.050782-2.7383 0.17188-1.2695-0.16406-1.1953 0.085937-2.2422-0.12109-1.7148-0.23438-1.3633-0.97266-1.5664-0.16406-2.2266-0.24219-1.2031-0.03125-1.207 0.22266-2.0859 0.085937-1.7344 0.33594-1.4375 0.47266-2.1484 0.42578-1.3672 0.20703-1.2344 0.21484-1.5898 0.26562-1.7188 0.097656-1.6836-0.046875-1.5625-0.68359-0.80469-0.60156-1.9219-1.3359-1.2383-0.88672-1.5-1.1445-1.0703-0.46875-0.98438-0.57422-0.61328-1.2852-0.33594-1.2969 0.15625-1.6133 0.38281-1.0195-0.40625-1.4062-1.25-0.035156-1.7656 0.33594-1.0469-0.39844-0.37109-1.4023-0.91406-1.5625-1.1875-1.5742-1.168-0.42188-0.49219-1.0703-0.13281-0.99609-0.83984-1.5391-1.5273-1.7422-0.76953-1.4414-0.85156-1.1289 0.18359-1.1992 1.0195-1.8984 0.625-0.82031 0.46875-1.2344-0.15234-1.1367-1.2969-0.72266-0.89453-0.50781-1.3086-0.44141-0.84375-0.97266-0.015625-1.7539-0.039062-1.0117-0.34375-1.1484-0.51172-0.99219-0.64062-0.89453-0.64062-0.80469-0.29688-1.082-1.375-0.69141-1.1055-0.21094-1.2695-0.69531-0.94922-0.43359-0.64453-0.99219-0.29688-1.4258-0.23438-1.8008 0.26172-2.543 0.29688-1.043 0.30078-1.0273 0.003906-1.3242-0.26953-1.1875-0.53906-1.8516-0.089844-1.207 0.72656-1.6953 0.71094-0.73047 0.60938-0.93359 0.35156-1.0664 0.19141-1.5859-0.125-1.832 0.019531-1.8203-0.18359-1.6172-0.86328-1.8164-0.089844-1.3711 0.14453-1.168-0.19531-1.3125-0.63281-1.7109-1.3672-1.293-0.91797-1.332-0.32422-1.7109-1.1133-1.1328-0.90234-1.4414-0.98828-1.5273-0.64062-1.6797-1.7891-1.543-1.2812-0.86328-1.0273-1.6328-0.91406-1.3477-0.79297-0.96484-0.90625-0.90625 0.20312-1.207 0.44531-1.6211 1.0312-1.2656 2.0742 0.16016 2.0195 0.074219 1.1211-0.33984 2.3867-0.085937 2.8047 0.78125 0.97266 0.39844 1.4531 0.011719 2.0469-0.57422 1.1211-0.85547 1.5742-1.707 1.5469-1.1523 1.0977-0.35547 1.1133-0.14453 1.8711-0.26562 1.4297-0.35156 1.7109-0.75 1.1992-0.035156 1.5664 0.65625 1.2305-0.0625 1.168-0.22656 1.2773 0.35547 1.3711 0.62109 1.5625-1.3516 0.71875-1.1875 1.2227-1.6406 1.1914-1.1055 1.3867-1.1367 1-0.67969 0.32031-1.2461 0.36719-1.168 1.125-1.168 0.84766-0.91406 0.36328-1.1016 0.55859-0.88281 0.79297-1.6094 0.79688-0.79297 0.82422-0.62109 0.53125-1.1328-0.26562-1.7383-0.23438-0.97266-0.32422-1.1016 0.17188-1.3711 0.38672-1.2695 0.78125-1.0312 0.55859-1.3008 0.66797-2.0664 0.26562-1.1836-0.14453-1.0586 0.16016-1.2734 0.21484-1.5039 0.10938-1.7852 0.25391-1.1094 0.25-1.8594 0.33203-1.0508 0.73828-1.1133 1.0586-0.52734 1.0938-0.84375 0.19922-1.5273 1.1523-1.3672 1.4883-1.1758 0.91406-0.64844 0.82422-0.60547 1.1953-0.75 1.2344 0.14844 3.293-0.85938 1.5977-0.10938 1.8945-0.86328 1.2891-0.41406 1.5938-1.9883 2.3828-0.63281 1.2656-0.21484 0.94531-0.41797 1.3203-1.3359 0.64062-1.3867 0.11719-1.2578 0.91016-1.1992 0.49609-1.1797 0.88672-1.0742 1.4531-1.3359 1.4258-1.2422 0.71875-0.74219 1.6328-0.30469 1.4375-0.44922 1.832-2.5078 0.58984-1.1953 0.70703-1.332 0.69531-1.125 1.0039-1.0391 1.8125-0.44531 1.0977 0.042969 1.2305 0.13281 1.1875 0.17578 1.3203 0.085937h2.1953l1.2734-0.042969 1.457-0.066406 0.9375-1.3125 2.0352-2.0117 0.80078-0.64844 1.9023-1.5469 1.0938-0.47656z" fill="#ccc" fill-rule="evenodd"/>
<path d="m343.53 2.3594 2.4062 0.70312 1.5078 0.80469 1.9258 0.48828 1.8203 0.38281 1.543 0.19922 1.3555-0.11719 1.4883 0.097656 1.4883-0.20703 2.1055-0.18359 2.1523 0.085937 1.5273 0.11719 1.4688-0.11719 1.0391-0.019531 2.2734-0.078125 2.2383-0.11328 1.3281 0.09375 1.4141 0.25391 1.4023 0.31641 1.5352 0.33203 0.86328 0.54688 0.39062 1.332-0.52734 1.4102-0.70703 1.0195-1.1953 1.0547-0.79297 1.5039-0.73828 2.0078-0.42188 0.94922-1.4492 1.5703-0.98047 2.1289-0.18359 1.4766 0.21094 1.4805 0.44922 1.3711 0.98438 0.75 0.62109 0.90234 0.83203 0.64062 1.1875 0.69141 1.3281 0.76562 1.1836 0.57031 0.91797 1.0938 0.91406 1.3477 1.0469 0.97266 1.1133 1.4102 1.1289 0.97266-1.0586 1.0586-1.2812 1.0391-1.1953 0.73438-0.80859 1.5742 0.13672 1.5586-0.38672 1.8203-0.375 1.0586-0.51172 0.92188-1.2461 2.3672 0.10938 2.6445 0.13672 1.043 0.60938 2.3359-1.4648 0.73438-1.082 0.14062-1.4414 0.74609-1.0352 0.59766-0.58594 1.4102-0.35156 1.0391-0.5625 1.0156-0.70703 1.7695-0.15234 1.0547-0.007812 1.3555 0.15234 1.4727 0.29688 1.0977 0.87891 1.7383 1.4883 2.3359 0.14844 1.1484-0.078125 1.5312-0.085937 1.4688 0.058594 1.4531-0.1875 1.1133-0.019532 1.4492 0.74609 1.0039 1.1445 0.375 1.0508-0.074219 1.0703-0.25391 1.3086-0.58984 1.1133-0.53906 1.8672-0.94531 1.5391-0.38281 1.6406-0.019532 1.3516 0.019532 1.332 0.035156 1.3125 0.21094 1.582 0.38672 1.0586 0.44531 2.918 0.72656 1.4766 0.18359 1.2734 0.36719 1.6406 0.125 1.5977 0.125 1.8594 0.78906 1.1133 0.6875 1.0703 0.51172 1.4492 0.14453 2.4453-0.16406 1.7188-0.20312 1.8711-0.16797 1.6289-0.25391 2.3086-0.66797 1.0742-0.39062 0.87109-0.60938 1.2344-0.57031-1.9062 2.4648-0.68359 0.81641-0.84766 1.125-0.75391 1.9062-0.13672 1.1953-0.16797 1.8711 0.03125 1.8398-0.30859 2.4805-0.20703 1.4609-0.5 1.0898-0.77344 1.1367-0.61719 1.1406-0.46094 1.207-0.71094 1.9961-0.17969 1.4531 0.66016 1.4844 1.2812 2.1797 0.82422 1.457 0.20703 1.3359 0.43359 1.9961 0.14844 1.3398 0.11719 1.1836 0.16406 1.8281 0.21484 1.7578 1.0195 0.40625 2.2422-0.16406 1.8633-0.48438 1.543-0.12891 1.4219 0.55078 1.5078 0.027344 1.1016 0.15625 1.1562 1.4297 0.96484 0.88672 1.7148 0.54297 1.1484 0.17188 2.6875 2.1484 3.043 1.4453 1.207 0.97656 1.0938 0.58594 0.95703 0.57812 1.1758 0.64062 1.2578 0.75 1.2031 0.59375 1.4844 0.30469 1.0039 0.5625 1.1328 1.1562 1.0742 1.1914-0.82422 1.3906-0.66406 1.1562-0.51953 1.1172-1.4023 0.89844-2.4609 0.95703-0.89844 0.49219-1.6602 1.2305-1.0039 0.89062-0.76172 0.89844-0.65234 1.3047-0.10938 2.582 0.46094 1.332 0.16406 1.0078 0.054688 1.3047-0.19141 1.1133-1.1953 1.1445-1.0625 1.9023-0.89844 0.59766-0.94922 0.89844-1.1719 0.625-0.92188 1.0078-0.92578 0.8125-0.76172 0.98047-0.57031 0.92578-0.67969 0.78906-1.1719 0.46094-1.7812-0.039062-1.6719-0.22266-1.7109-0.75391-1.0586-0.61719-2.4102-1.0156-1.3125-0.86719-1.5234 0.074219-1.1602 0.40625-1.1641 0.18359-1.1016-0.73438-1.6094-0.16406-1.1016-0.26562-0.96094 0.39062-1 0.20312-1.4688 0.039063-1.6914 0.125-2.1211 0.40625-2.0781 0.14062-0.98047 0.53125-0.87891 0.57031-1.5898-0.12109-1.4688-0.24609-1.4258-0.26172-1.3047 0.26172-2.1406 1.457-1.1875 0.64844-1.5898-0.042969-2.5273 2.8555-0.57422 0.89844-0.60156 1.3984-0.98047 2.1367 0.24219 1.2266 0.070312 1.2617-1.0156 1.8555-0.875 1.2227-0.99219 1.0859-1.2266 1.0742-0.72656 1.1094-0.6875 1.0312-0.99609 1.3398-0.88281 0.99609-1.1211 1.2852-1.4727 1.0078-2.2656 1.7148-1.6055 0.43359-1.043 0.39453-1.8359 1.1289-1.7227 1.3281-1.6094 0.77734-1.0352 1.3945-1.4648 1.9922-1.0273 1.0508-1.6602 1.3008-1.6992 0.92188-1.5 0.88672-1.2344 0.52734-0.90234 0.44922-2.3711 0.80078-1.6133 0.37109-1.5078-0.25-1.0586-0.57031-1.5547-0.58594-2.3164-0.17969-1.0625-0.25781-1.1523-0.64062-1.5586-0.23047-1.7344-0.45703-1.25-0.8125-1.3164-0.35156-1.3867 0.39062-1.0547-0.16406-0.89844 0.66016-0.87109-0.55078-0.94531-0.35156-1.0156-0.35547-1.0117-0.57422-1.0352-0.21875-1.2148 0.48438-1.4648 0.54297-1.0664 0.007813-0.72266-0.87109-1.1602-0.27344-1.0508-0.35938-1.1133 0.34766-1.1172 0.0625-0.82812 0.70312-0.83203-1.1172-0.28516-1.2344-0.25-0.98047-0.74219-1.3789-1.043-0.54297-1.2148-0.32031-0.94922-0.71484-2.1953-0.58594-1.1836-0.050782-2.7383 0.17188-1.2695-0.16406-1.1953 0.085937-2.2422-0.12109-1.7148-0.23438-1.3633-0.97266-1.5664-0.16406-2.2266-0.24219-1.2031-0.03125-1.207 0.22266-2.0859 0.085937-1.7344 0.33594-1.4375 0.47266-2.1484 0.42578-1.3672 0.20703-1.2344 0.21484-1.5898 0.26562-1.7188 0.097656-1.6836-0.046875-1.5625-0.68359-0.80469-0.60156-1.9219-1.3359-1.2383-0.88672-1.5-1.1445-1.0703-0.46875-0.98438-0.57422-0.61328-1.2852-0.33594-1.2969 0.15625-1.6133 0.38281-1.0195-0.40625-1.4062-1.25-0.035156-1.7656 0.33594-1.0469-0.39844-0.37109-1.4023-0.91406-1.5625-1.1875-1.5742-1.168-0.42188-0.49219-1.0703-0.13281-0.99609-0.83984-1.5391-1.5273-1.7422-0.76953-1.4414-0.85156-1.1289 0.18359-1.1992 1.0195-1.8984 0.625-0.82031 0.46875-1.2344-0.15234-1.1367-1.2969-0.72266-0.89453-0.50781-1.3086-0.44141-0.84375-0.97266-0.015625-1.7539-0.039062-1.0117-0.34375-1.1484-0.51172-0.99219-0.64062-0.89453-0.64062-0.80469-0.29688-1.082-1.375-0.69141-1.1055-0.21094-1.2695-0.69531-0.94922-0.43359-0.64453-0.99219-0.29688-1.4258-0.23438-1.8008 0.26172-2.543 0.29688-1.043 0.30078-1.0273 0.003906-1.3242-0.26953-1.1875-0.53906-1.8516-0.089844-1.207 0.72656-1.6953 0.71094-0.73047 0.60938-0.93359 0.35156-1.0664 0.19141-1.5859-0.125-1.832 0.019531-1.8203-0.18359-1.6172-0.86328-1.8164-0.089844-1.3711 0.14453-1.168-0.19531-1.3125-0.63281-1.7109-1.3672-1.293-0.91797-1.332-0.32422-1.7109-1.1133-1.1328-0.90234-1.4414-0.98828-1.5273-0.64062-1.6797-1.7891-1.543-1.2812-0.86328-1.0273-1.6328-0.91406-1.3477-0.79297-0.96484-0.90625-0.90625 0.20312-1.207 0.44531-1.6211 1.0312-1.2656 2.0742 0.16016 2.0195 0.074219 1.1211-0.33984 2.3867-0.085937 2.8047 0.78125 0.97266 0.39844 1.4531 0.011719 2.0469-0.57422 1.1211-0.85547 1.5742-1.707 1.5469-1.1523 1.0977-0.35547 1.1133-0.14453 1.8711-0.26562 1.4297-0.35156 1.7109-0.75 1.1992-0.035156 1.5664 0.65625 1.2305-0.0625 1.168-0.22656 1.2773 0.35547 1.3711 0.62109 1.5625-1.3516 0.71875-1.1875 1.2227-1.6406 1.1914-1.1055 1.3867-1.1367 1-0.67969 0.32031-1.2461 0.36719-1.168 1.125-1.168 0.84766-0.91406 0.36328-1.1016 0.55859-0.88281 0.79297-1.6094 0.79688-0.79297 0.82422-0.62109 0.53125-1.1328-0.26562-1.7383-0.23438-0.97266-0.32422-1.1016 0.17188-1.3711 0.38672-1.2695 0.78125-1.0312 0.55859-1.3008 0.66797-2.0664 0.26562-1.1836-0.14453-1.0586 0.16016-1.2734 0.21484-1.5039 0.10938-1.7852 0.25391-1.1094 0.25-1.8594 0.33203-1.0508 0.73828-1.1133 1.0586-0.52734 1.0938-0.84375 0.19922-1.5273 1.1523-1.3672 1.4883-1.1758 0.91406-0.64844 0.82422-0.60547 1.1953-0.75 1.2344 0.14844 3.293-0.85938 1.5977-0.10938 1.8945-0.86328 1.2891-0.41406 1.5938-1.9883 2.3828-0.63281 1.2656-0.21484 0.94531-0.41797 1.3203-1.3359 0.64062-1.3867 0.11719-1.2578 0.91016-1.1992 0.49609-1.1797 0.88672-1.0742 1.4531-1.3359 1.4258-1.2422 0.71875-0.74219 1.6328-0.30469 1.4375-0.44922 1.832-2.5078 0.58984-1.1953 0.70703-1.332 0.69531-1.125 1.0039-1.0391 1.8125-0.44531 1.0977 0.042969 1.2305 0.13281 1.1875 0.17578 1.3203 0.085937h2.1953l1.2734-0.042969 1.457-0.066406 0.9375-1.3125 2.0352-2.0117 0.80078-0.64844 1.9023-1.5469 1.0938-0.47656 4.1445 0.26172" fill="none" stroke="#fff" stroke-linecap="round" stroke-linejoin="round" stroke-miterlimit="10" stroke-width="2"/>
<path d="m195.63 286.51 0.5 0.007812 0.33203 1.1875-0.070313 2.8398-0.26562 1.6641-0.375 0.96484-0.47656 1.3906 1.0039 1.4492 1.2695 1.3281 0.61328 0.80859 1.2031 1.2227 0.94922 1.0625 0.71094 0.87109 0.77734 1.3438 0.36328 1.1094 0.58203 1.5352 0.5625 0.89844 0.5 1.1484 0.72656 1.6602 0.44531 1.1289 1.0781 2.7617 0.66016 1.6836 0.45703 1.1211 1.2188 2.3711 1.5703 1.0078 0.97266 0.33984 1.4375 0.46094 1.3125 0.37891 0.95703 0.41406-0.69141 0.77734-1.5039 0.21875-1.0625 0.011719-1.1133 0.015625-1.543 0.11328-1.0273 0.089844-1.0312 0.25391-2.3242 0.94531-1.3828 0.63281-1.4883 0.4375-1.0742 0.22656-1.168-0.023437-1.9023-0.007813-1.0156-0.050781-1.1602 0.050781-1.3477 0.097657-1.4141 0.21875-1.9453 0.39062-1.6914 0.29297-1.3711 0.28125-0.72266 0.73047-1.5078 2.875-0.76953 1.3594-0.55078 1.6836 0.066406 1.4258 0.25781 2.1367 0.097657 1.7188 0.14844 1.0781-0.066406 1.7617-0.13672 1.3945-0.32422 1.5312-0.29297 1.0312-0.94141 2.0781-0.91016-0.47266-0.70312-0.83594-0.76953-0.83594-0.82031-0.67578-0.66797-0.76562-0.78906-0.78906-1.0273-0.88281-0.87891-0.80078-0.85547-0.89844-0.75781-0.74609-0.93359-0.72656-0.77344-0.83203-0.69141-0.82812-0.77344-0.64453-0.80859-0.68359-1.0078-0.19141-0.31641-0.98828-0.56641-0.85547-0.85547-0.98828-1.6367-1.5195-1.0156-0.94531-0.92578-0.80078-0.77344-0.76562-1.7656-1.5898-0.97266-0.87109-1.7695-1.543-1.6367-1.4805-1.7734-1.5664-1.2617-1.2305-0.97656-0.86719-1.0898-0.87891-0.84766-0.72656-0.13672-1.0625 1.0664-0.32031 0.95703-0.78516 0.85938-1.1953 0.66406-0.79688 0.61328-0.97656 0.84766-0.69922 0.28125-1.0352 0.43359-1.6055 0.84375-1.3086 1-0.050781 1.0312-0.0625 1.1992-0.64453 2.1055-1.3359 1.0508-0.64062 1.0781 0.28516 0.98047-0.58594-0.10156-1.0508 0.97266-0.49219 1.3516-0.64453 0.47656-1.1484 1.1797-0.59766 1.4727-0.51172 1.5273-0.39062 1.0156-0.03125 0.83594-0.64062 1.1367-0.27344 1.1289-0.44922 1.2695-1.6289 0.53516-0.98438 0.92969-1.1875 1.7852-3.0586 2.2227-1.9766 1-0.73047 0.87109-0.78516 2.25-0.69922 1.8164-0.09375 0.92969 0.82031 1.1836 0.074219 1.1016-0.98047 0.95703-0.44922z" fill="#ccc" fill-rule="evenodd"/>
<path d="m195.63 286.51 0.5 0.007812 0.33203 1.1875-0.070313 2.8398-0.26562 1.6641-0.375 0.96484-0.47656 1.3906 1.0039 1.4492 1.2695 1.3281 0.61328 0.80859 1.2031 1.2227 0.94922 1.0625 0.71094 0.87109 0.77734 1.3438 0.36328 1.1094 0.58203 1.5352 0.5625 0.89844 0.5 1.1484 0.72656 1.6602 0.44531 1.1289 1.0781 2.7617 0.66016 1.6836 0.45703 1.1211 1.2188 2.3711 1.5703 1.0078 0.97266 0.33984 1.4375 0.46094 1.3125 0.37891 0.95703 0.41406-0.69141 0.77734-1.5039 0.21875-1.0625 0.011719-1.1133 0.015625-1.543 0.11328-1.0273 0.089844-1.0312 0.25391-2.3242 0.94531-1.3828 0.63281-1.4883 0.4375-1.0742 0.22656-1.168-0.023437-1.9023-0.007813-1.0156-0.050781-1.1602 0.050781-1.3477 0.097657-1.4141 0.21875-1.9453 0.39062-1.6914 0.29297-1.3711 0.28125-0.72266 0.73047-1.5078 2.875-0.76953 1.3594-0.55078 1.6836 0.066406 1.4258 0.25781 2.1367 0.097657 1.7188 0.14844 1.0781-0.066406 1.7617-0.13672 1.3945-0.32422 1.5312-0.29297 1.0312-0.94141 2.0781-0.91016-0.47266-0.70312-0.83594-0.76953-0.83594-0.82031-0.67578-0.66797-0.76562-0.78906-0.78906-1.0273-0.88281-0.87891-0.80078-0.85547-0.89844-0.75781-0.74609-0.93359-0.72656-0.77344-0.83203-0.69141-0.82812-0.77344-0.64453-0.80859-0.68359-1.0078-0.19141-0.31641-0.98828-0.56641-0.85547-0.85547-0.98828-1.6367-1.5195-1.0156-0.94531-0.92578-0.80078-0.77344-0.76562-1.7656-1.5898-0.97266-0.87109-1.7695-1.543-1.6367-1.4805-1.7734-1.5664-1.2617-1.2305-0.97656-0.86719-1.0898-0.87891-0.84766-0.72656-0.13672-1.0625 1.0664-0.32031 0.95703-0.78516 0.85938-1.1953 0.66406-0.79688 0.61328-0.97656 0.84766-0.69922 0.28125-1.0352 0.43359-1.6055 0.84375-1.3086 1-0.050781 1.0312-0.0625 1.1992-0.64453 2.1055-1.3359 1.0508-0.64062 1.0781 0.28516 0.98047-0.58594-0.10156-1.0508 0.97266-0.49219 1.3516-0.64453 0.47656-1.1484 1.1797-0.59766 1.4727-0.51172 1.5273-0.39062 1.0156-0.03125 0.83594-0.64062 1.1367-0.27344 1.1289-0.44922 1.2695-1.6289 0.53516-0.98438 0.92969-1.1875 1.7852-3.0586 2.2227-1.9766 1-0.73047 0.87109-0.78516 2.25-0.69922 1.8164-0.09375 0.92969 0.82031 1.1836 0.074219 1.1016-0.98047 0.95703-0.44922 1.6133 0.019531" fill="none" stroke="#fff" stroke-linecap="round" stroke-linejoin="round" stroke-miterlimit="10" stroke-width="2"/>
<path d="m445.8 128.63 0.37109 0.10156 1.2031 0.60156 1.6641 1.2422 0.77344 1.125 0.17188 2.5039-0.60938 2.4766-0.019531 1.9727 0.019531 1.0508-0.60547 2.3086-0.023438 1.1719 0.0625 2.9609-0.125 1.9922-0.44141 0.98828-0.4375 1.0703-1.8711 1.8047-0.85938 0.98438 0.46094 1.4961 0.67969 1.1094 0.80469 1.0117 1.3633 1.8945 0.98828 1 0.76172 0.65625 1.1523 0.52344 0.83984 1.418 0.68359 1.3359 0.65625 1.2617 0.41797 1.1523 0.28906 1.6758 0.17578 1.2383 0.13672 1.3984 0.058594 2.2734 0.3125 1.1523-0.50391 1.0234-1.1289-0.20703-1.3125 0.22266-1.4961 1.0352-0.97656 0.35156-1.1875 0.16406-1.2148 0.85547-0.54297 1.1719-0.57812 0.88672-0.54297 0.98828-0.61328 1.2617-0.79297 1.6836-1.0273 1.0352-1.4805 0.75-1.3359 0.67578-1.2539 0.32031-1.6445 0.52734-1.1523 0.33203-0.98047 0.78125-0.81641 0.81641-0.86719 0.58203-1.2539 0.60156-0.82812 0.98828-1 0.58594-2.1172-0.03125-1.8359 0.44141-0.49609 1.5508 0.16406 1.3906 0.75391 1.9219 0.8125 0.90234 1.2188 0.27734 1.582 0.16016 1.0586 0.09375 1.3203 0.61328 1.0508 1.9414 0.63281 1.8242 0.19531 1.1992-0.53516 1.6562 0.16406 1.4414 0.42578 1.0703 0.14062 1.3281 0.33594 1.543-0.82812 2.0664-1.0586 0.53125-2.5898-0.40625-1.7422 0.42969-2.418 0.75391-0.94531 0.8125-0.67188 1.6758-0.625 1.4844-0.61328 1.1133-0.79297 1.3359-0.13672 2.0781 0.9375 2.8008-0.074219 1.8203-0.066406 1.6133-0.11719 1.2266-0.42969 2.3125-0.58984 1.2266-0.47656 1.1367-0.57812 1.5234-0.45312 1.7266 0.097656 0.99609 0.34375 1.6562 0.58984 1.8164-0.070313 1.4297-0.25 1.6836-0.45312 1.3828-0.67969 1.6133 0.31641 2.0898 0.20703 1.1797 0.11328 1.1797 0.019532 1.5-0.78906 2.4336-0.95312 0.8125-1.1719 0.35156-1.2109-0.019532-1.0234 0.13281-1.9727 0.76172-1.4492 0.68359-2.0078 0.94531-1.6914 0.75-0.79688 0.67578-0.89844 1.0898-1.6445 2.3438-0.84375 1.4297-1.0938 1.5938-0.82031 0.89453-1.2461 0.78125-2.4258 1.7109-1.5 0.41016-1.3555-0.12109-1.1367-0.19141-2.0352-0.76172-1.1523-0.26953-1.9141-0.27734-1.2344-0.24219-2.043-0.48438-1.2383-0.066406h-1.1992l-1.832-0.125-1.3516-0.10938-1.4414 0.30078-1.4844 0.19531-2.1953 0.25391-1.1719-0.25781-2.0273-1.3203-1.4336-0.83984-1.2695-0.53906-0.97266 0.71094-0.89844 2.2734-0.59766 1.7422-1.1016 1.2656-1.2109 0.28125-1.5273-1.418-0.85156-1.7305-0.71484-1.5977-0.14453-1.6016-0.16406-1.2891 0.035157-1.9375 0.27344-1.4453 0.16797-0.98828 0.10156-1.1055-1.2227-1.1055-1.8867-0.79688-3.3516-2.0586-1.9883-1.1719-1.6758-0.60156-1.5898-0.96484-0.98047-1.6836-0.007813-1.3828 0.16797-2.0664-0.054687-1.2305-0.86328-0.64844-0.875-1.4336-0.054687-2.5781-0.92969-1.1172-1.168-0.76953-0.61328-0.79688-1.9453-1.4805-2.1641-2.5586-0.61719-2.9375 0.20703-1.4961 1.1562-1.6641 1.1914-1.1914 0.67188-1.6484 0.13672-1.668 0.32031-1.1484 1.5625-0.65234 0.91406-0.66797 0.96875-0.85547 0.11719-1.0547-2.2539-1.5078-1.8438-1.168-0.83203-1.2109-1.1992-1.1719-1.3789-1.2578-1.4688-0.70312-0.79688-0.62891-1.0039-1.8672-0.58203-0.84375-0.44531-1.4688-0.30078-1.6367-0.60938-1.2812-1.7734-1.8008-0.39844-1.7266 0.72656-1.4023 0.46484-1.375-0.53516-1.2148-1.6367-2.793-0.65234-0.92188 0.19141-1.2109 0.18359-1.3242-0.019531-1.5703-0.46875-1.125 1.2734-0.078125 1.457 0.84375 1.5938 0.60547 1.5625 0.11328 1.4883 0.75781 1.2773 0.33594 1.7578 0.058594 2.1133 0.70703 1.0586 0.57031 1.5078 0.25 1.6133-0.37109 2.3711-0.80078 0.90234-0.44922 1.2344-0.52734 1.5-0.88672 1.6445-0.87891 1.7148-1.3438 1.0273-1.0508 1.4648-1.9922 0.70703-1.043 1.1094-0.67969 1.8281-1.1836 2.5586-1.7227 1.043-0.39453 1.0273-0.17188 2.1797-1.3281 1.5-1.2773 1.7578-1.6641 0.88281-0.99609 0.99609-1.3398 0.6875-1.0312 0.72656-1.1094 1.2266-1.0742 0.99219-1.0859 0.875-1.2227 0.63281-1.0508 0.3125-2.0664-0.24219-1.2266 0.98047-2.1367 0.60156-1.3984 0.57422-0.89844 1.6523-2.5898 2.4648-0.22266 1.1875-0.64844 1.3008-0.91797 2.1445-0.80078 1.4258 0.26172 1.4688 0.24609 1.0625 0.20312 1.4062-0.65234 0.98047-0.53125 1.3867-0.16016 1.8555-0.18359 2.6484-0.32812 1.4688-0.039063 1-0.20312 0.96094-0.39062 1.1016 0.26562 1.4688 0.14844 1.2422 0.75 1.1641-0.18359 1.1602-0.40625 1.5234-0.074219 1.3125 0.86719 2.4102 1.0156 1.0586 0.61719 1 0.50781 1.4258 0.42969 1.9805 0.10156 1.9297-0.48438 0.67969-0.78906 0.57031-0.92578 0.76172-0.98047 0.92578-0.8125 0.92188-1.0078 1.1719-0.625 0.94922-0.89844 0.89844-0.59766 1.0625-1.9023 1.1953-1.1445 0.19141-1.1133-0.054688-1.3047-0.16406-1.0078-0.46094-1.332 0.10938-1.9023 0.24219-1.4414 0.76172-1.0078 1.4141-1.3242 1.0352-0.85156 1.5234-0.87109 1.8047-0.87891 1.3906-0.30859 1.1406-1.7031 0.71094-1.2383 0.53516-1.0781z" fill="#ccc" fill-rule="evenodd"/>
<path d="m445.8 128.63 0.37109 0.10156 1.2031 0.60156 1.6641 1.2422 0.77344 1.125 0.17188 2.5039-0.60938 2.4766-0.019531 1.9727 0.019531 1.0508-0.60547 2.3086-0.023438 1.1719 0.0625 2.9609-0.125 1.9922-0.44141 0.98828-0.4375 1.0703-1.8711 1.8047-0.85938 0.98438 0.46094 1.4961 0.67969 1.1094 0.80469 1.0117 1.3633 1.8945 0.98828 1 0.76172 0.65625 1.1523 0.52344 0.83984 1.418 0.68359 1.3359 0.65625 1.2617 0.41797 1.1523 0.28906 1.6758 0.17578 1.2383 0.13672 1.3984 0.058594 2.2734 0.3125 1.1523-0.50391 1.0234-1.1289-0.20703-1.3125 0.22266-1.4961 1.0352-0.97656 0.35156-1.1875 0.16406-1.2148 0.85547-0.54297 1.1719-0.57812 0.88672-0.54297 0.98828-0.61328 1.2617-0.79297 1.6836-1.0273 1.0352-1.4805 0.75-1.3359 0.67578-1.2539 0.32031-1.6445 0.52734-1.1523 0.33203-0.98047 0.78125-0.81641 0.81641-0.86719 0.58203-1.2539 0.60156-0.82812 0.98828-1 0.58594-2.1172-0.03125-1.8359 0.44141-0.49609 1.5508 0.16406 1.3906 0.75391 1.9219 0.8125 0.90234 1.2188 0.27734 1.582 0.16016 1.0586 0.09375 1.3203 0.61328 1.0508 1.9414 0.63281 1.8242 0.19531 1.1992-0.53516 1.6562 0.16406 1.4414 0.42578 1.0703 0.14062 1.3281 0.33594 1.543-0.82812 2.0664-1.0586 0.53125-2.5898-0.40625-1.7422 0.42969-2.418 0.75391-0.94531 0.8125-0.67188 1.6758-0.625 1.4844-0.61328 1.1133-0.79297 1.3359-0.13672 2.0781 0.9375 2.8008-0.074219 1.8203-0.066406 1.6133-0.11719 1.2266-0.42969 2.3125-0.58984 1.2266-0.47656 1.1367-0.57812 1.5234-0.45312 1.7266 0.097656 0.99609 0.34375 1.6562 0.58984 1.8164-0.070313 1.4297-0.25 1.6836-0.45312 1.3828-0.67969 1.6133 0.31641 2.0898 0.20703 1.1797 0.11328 1.1797 0.019532 1.5-0.78906 2.4336-0.95312 0.8125-1.1719 0.35156-1.2109-0.019532-1.0234 0.13281-1.9727 0.76172-1.4492 0.68359-2.0078 0.94531-1.6914 0.75-0.79688 0.67578-0.89844 1.0898-1.6445 2.3438-0.84375 1.4297-1.0938 1.5938-0.82031 0.89453-1.2461 0.78125-2.4258 1.7109-1.5 0.41016-1.3555-0.12109-1.1367-0.19141-2.0352-0.76172-1.1523-0.26953-1.9141-0.27734-1.2344-0.24219-2.043-0.48438-1.2383-0.066406h-1.1992l-1.832-0.125-1.3516-0.10938-1.4414 0.30078-1.4844 0.19531-2.1953 0.25391-1.1719-0.25781-2.0273-1.3203-1.4336-0.83984-1.2695-0.53906-0.97266 0.71094-0.89844 2.2734-0.59766 1.7422-1.1016 1.2656-1.2109 0.28125-1.5273-1.418-0.85156-1.7305-0.71484-1.5977-0.14453-1.6016-0.16406-1.2891 0.035157-1.9375 0.27344-1.4453 0.16797-0.98828 0.10156-1.1055-1.2227-1.1055-1.8867-0.79688-3.3516-2.0586-1.9883-1.1719-1.6758-0.60156-1.5898-0.96484-0.98047-1.6836-0.007813-1.3828 0.16797-2.0664-0.054687-1.2305-0.86328-0.64844-0.875-1.4336-0.054687-2.5781-0.92969-1.1172-1.168-0.76953-0.61328-0.79688-1.9453-1.4805-2.1641-2.5586-0.61719-2.9375 0.20703-1.4961 1.1562-1.6641 1.1914-1.1914 0.67188-1.6484 0.13672-1.668 0.32031-1.1484 1.5625-0.65234 0.91406-0.66797 0.96875-0.85547 0.11719-1.0547-2.2539-1.5078-1.8438-1.168-0.83203-1.2109-1.1992-1.1719-1.3789-1.2578-1.4688-0.70312-0.79688-0.62891-1.0039-1.8672-0.58203-0.84375-0.44531-1.4688-0.30078-1.6367-0.60938-1.2812-1.7734-1.8008-0.39844-1.7266 0.72656-1.4023 0.46484-1.375-0.53516-1.2148-1.6367-2.793-0.65234-0.92188 0.19141-1.2109 0.18359-1.3242-0.019531-1.5703-0.46875-1.125 1.2734-0.078125 1.457 0.84375 1.5938 0.60547 1.5625 0.11328 1.4883 0.75781 1.2773 0.33594 1.7578 0.058594 2.1133 0.70703 1.0586 0.57031 1.5078 0.25 1.6133-0.37109 2.3711-0.80078 0.90234-0.44922 1.2344-0.52734 1.5-0.88672 1.6445-0.87891 1.7148-1.3438 1.0273-1.0508 1.4648-1.9922 0.70703-1.043 1.1094-0.67969 1.8281-1.1836 2.5586-1.7227 1.043-0.39453 1.0273-0.17188 2.1797-1.3281 1.5-1.2773 1.7578-1.6641 0.88281-0.99609 0.99609-1.3398 0.6875-1.0312 0.72656-1.1094 1.2266-1.0742 0.99219-1.0859 0.875-1.2227 0.63281-1.0508 0.3125-2.0664-0.24219-1.2266 0.98047-2.1367 0.60156-1.3984 0.57422-0.89844 1.6523-2.5898 2.4648-0.22266 1.1875-0.64844 1.3008-0.91797 2.1445-0.80078 1.4258 0.26172 1.4688 0.24609 1.0625 0.20312 1.4062-0.65234 0.98047-0.53125 1.3867-0.16016 1.8555-0.18359 2.6484-0.32812 1.4688-0.039063 1-0.20312 0.96094-0.39062 1.1016 0.26562 1.4688 0.14844 1.2422 0.75 1.1641-0.18359 1.1602-0.40625 1.5234-0.074219 1.3125 0.86719 2.4102 1.0156 1.0586 0.61719 1 0.50781 1.4258 0.42969 1.9805 0.10156 1.9297-0.48438 0.67969-0.78906 0.57031-0.92578 0.76172-0.98047 0.92578-0.8125 0.92188-1.0078 1.1719-0.625 0.94922-0.89844 0.89844-0.59766 1.0625-1.9023 1.1953-1.1445 0.19141-1.1133-0.054688-1.3047-0.16406-1.0078-0.46094-1.332 0.10938-1.9023 0.24219-1.4414 0.76172-1.0078 1.4141-1.3242 1.0352-0.85156 1.5234-0.87109 1.8047-0.87891 1.3906-0.30859 1.1406-1.7031 0.71094-1.2383 0.53516-1.0781 0.48047-0.25781" fill="none" stroke="#fff" stroke-linecap="round" stroke-linejoin="round" stroke-miterlimit="10" stroke-width="2"/>
<path d="m148.22 252.21 3.6211 0.15625 1.2773-0.042968 2.1094 1.2227 1.1484 0.035156 1.7305-0.078125 2.8711 0.24219 1.0586 0.15625 1.0703-0.62891h1.3008l1.2148-0.47656 0.90625-0.47266 1.2227-0.98438 1.0586-0.27344 1.3047 0.12109 1.3008 0.42969 1.4883 0.39453 1.457 0.46875 1.3477-0.23438 1.0586 0.16406 1.7734 0.1875 1.0195-0.1875 0.87109 0.70703 2.1602 0.35156 1.8125 0.47656 1.3359 0.27344 1.1875 0.19141 1.1211-0.44141 0.99609-0.42188-0.48438 1.1016-0.72266 1.1523-0.58203 0.84766-1.0508 0.84766-1.2891 0.74609 0.88672 0.88672 0.67188 0.98438 0.097656 1.2539-0.48047 1.0625-0.83594 1.0781-0.72266 0.69141-1.3867 0.72656-1.668 0.84766 0.64453 1.6562 1.3398 0.50781 1.75 0.48047 1.6367 0.47266-0.66406 0.75-1.0078 1.1328-1.7656 2.0547-0.76562 0.74219-0.98828 0.66797 1.332 0.21875 1.0273 0.035156 1.2148-0.47656 1.4219 0.16406 1.5664-0.35938 1.0703 0.51562 0.69141 2.4766 1.9336 2.2109 2.0508 1.8125 1.3398 1.5938 0.78125 2.0156 0.34375 1.1836-0.80469 0.88672-1.1641-0.14062-1.4062 0.57031-1.1016 0.98047-1.0547 0.14062-0.48047-1.0078-1.6289 0.078125-2.1641 0.19531-0.98047 0.60547-1.3633 1.125-2.6016 2.2539-1.7852 3.0586-0.92969 1.1875-0.53516 0.98438-0.64844 1.0859-1.0664 0.85156-1.1055 0.042969-1.5508 1.0117-1.0156 0.03125-1.5273 0.39062-1.1016 0.38672-1.5508 0.72266-0.47656 1.1484-1.3516 0.64453-0.97266 0.49219 0.10156 1.0508-0.98047 0.58594-1.0781-0.28516-1.0508 0.64062-2.1055 1.3359-1.1992 0.64453-1.0312 0.0625-0.63281-6.9727-0.027344-2.5859-0.011719-2.4688-0.85938-0.83984-0.85156-0.77734-1.4922-1.3477-0.87109-0.78516-1.0273-0.89453-0.77734-0.67578-0.81641-0.69531-1.3438-0.66016-1.4688-0.50781-1.7305-0.57422-0.83594-0.57812-0.84375 0.94141-0.8125-0.6875-0.78125-0.66016-0.97266-0.82031-1.5234-0.86328-1.0859-0.42969-3.3984-2.4375-1.25-0.55469-6.1445-2.2188-0.76953-1.7734-1.1914-0.72266-1.5352-4.4297 0.46094-1.0703 0.55469-1.3008 0.39844-2.043 0.35156-1.9727 3.4336 1.1016 1.4883-2.8828 0.82812-1.7969 1.1055-4.1797 1.9609-2.7266 1.1797-3.9844 1.1914-2.8125 1.7266 0.35547 2.0156 0.35156 1.6445 0.47266 1.3477 0.59766 2.0078 1.457z" fill="#ccc" fill-rule="evenodd"/>
<path d="m148.22 252.21 3.6211 0.15625 1.2773-0.042968 2.1094 1.2227 1.1484 0.035156 1.7305-0.078125 2.8711 0.24219 1.0586 0.15625 1.0703-0.62891h1.3008l1.2148-0.47656 0.90625-0.47266 1.2227-0.98438 1.0586-0.27344 1.3047 0.12109 1.3008 0.42969 1.4883 0.39453 1.457 0.46875 1.3477-0.23438 1.0586 0.16406 1.7734 0.1875 1.0195-0.1875 0.87109 0.70703 2.1602 0.35156 1.8125 0.47656 1.3359 0.27344 1.1875 0.19141 1.1211-0.44141 0.99609-0.42188-0.48438 1.1016-0.72266 1.1523-0.58203 0.84766-1.0508 0.84766-1.2891 0.74609 0.88672 0.88672 0.67188 0.98438 0.097656 1.2539-0.48047 1.0625-0.83594 1.0781-0.72266 0.69141-1.3867 0.72656-1.668 0.84766 0.64453 1.6562 1.3398 0.50781 1.75 0.48047 1.6367 0.47266-0.66406 0.75-1.0078 1.1328-1.7656 2.0547-0.76562 0.74219-0.98828 0.66797 1.332 0.21875 1.0273 0.035156 1.2148-0.47656 1.4219 0.16406 1.5664-0.35938 1.0703 0.51562 0.69141 2.4766 1.9336 2.2109 2.0508 1.8125 1.3398 1.5938 0.78125 2.0156 0.34375 1.1836-0.80469 0.88672-1.1641-0.14062-1.4062 0.57031-1.1016 0.98047-1.0547 0.14062-0.48047-1.0078-1.6289 0.078125-2.1641 0.19531-0.98047 0.60547-1.3633 1.125-2.6016 2.2539-1.7852 3.0586-0.92969 1.1875-0.53516 0.98438-0.64844 1.0859-1.0664 0.85156-1.1055 0.042969-1.5508 1.0117-1.0156 0.03125-1.5273 0.39062-1.1016 0.38672-1.5508 0.72266-0.47656 1.1484-1.3516 0.64453-0.97266 0.49219 0.10156 1.0508-0.98047 0.58594-1.0781-0.28516-1.0508 0.64062-2.1055 1.3359-1.1992 0.64453-1.0312 0.0625-0.63281-6.9727-0.027344-2.5859-0.011719-2.4688-0.85938-0.83984-0.85156-0.77734-1.4922-1.3477-0.87109-0.78516-1.0273-0.89453-0.77734-0.67578-0.81641-0.69531-1.3438-0.66016-1.4688-0.50781-1.7305-0.57422-0.83594-0.57812-0.84375 0.94141-0.8125-0.6875-0.78125-0.66016-0.97266-0.82031-1.5234-0.86328-1.0859-0.42969-3.3984-2.4375-1.25-0.55469-6.1445-2.2188-0.76953-1.7734-1.1914-0.72266-1.5352-4.4297 0.46094-1.0703 0.55469-1.3008 0.39844-2.043 0.35156-1.9727 3.4336 1.1016 1.4883-2.8828 0.82812-1.7969 1.1055-4.1797 1.9609-2.7266 1.1797-3.9844 1.1914-2.8125 1.7266 0.35547 2.0156 0.35156 1.6445 0.47266 1.3477 0.59766 2.0078 1.457 0.85938 0.27344" fill="none" stroke="#fff" stroke-linecap="round" stroke-linejoin="round" stroke-miterlimit="10" stroke-width="2"/>
<path d="m161.09 220.71-1.2227 1.1758-0.71875 0.84375-1.0508 1.2578-1.5977 0.72266-1.5977-0.027344-1.4727-0.29688-1.4414-0.44531-1.2227-1.0664-0.74219-1.9258-0.85156-1.4961-0.89844-1.5781-0.80469-1.418-0.92188-1.2578-1.0547-0.85156-1.2891-0.72656-1.457 0.45312-1.1094-0.47266-0.92578-0.58203-1.418-0.61719-0.69141-1.0352-1.2969-1.5195-0.86328 0.79688-0.96094 1.1055-1.4727 0.92578-1.6406 0.45703-1.3164 0.34375-1.1797 0.046875-2.1562 1.2656-4.0859 2.25-0.98438-1.0156-0.91016-1.0781-1.3164-0.097657-1.2891 1.1133-0.82031 0.70703-1.0664 0.91797-0.87109 0.74609-0.84766 0.71875-0.78906 0.67578-7.3008 5.9766 4.2305 5.5195-0.98438 0.74219-0.97266 1.4141-0.011719 1.8203 2.1445 1.1719 0.60547-1.1719 1.7148 1.0781-0.69141 2.3359 1.9023 1.2539 3.2891 1.1055 3.1562 1.4141-0.37891 1.3672-0.375 1.0273 1.5664 1.2031 1.1836 0.078125 1.7656 0.75 1.3438 0.27734 1.2148-0.12109 1.457 0.074219 0.79297 1.457 2.4844 0.042969 1.0586-0.31641 4.6875 0.47266-1.1914 2.8125-1.1797 3.9844-1.9609 2.7266-1.1055 4.1797-0.82812 1.7969-1.0234 2.2188-3.8984-0.4375-0.42969 1.1016-0.21875 2.3984-0.65625 1.8164-0.46094 1.0703 1.3164 3.7227 1.4102 1.4297 0.76953 1.7734-0.57031 1.9922-0.39453 1.5312-0.70312 1.4492-0.5625 1.1367-0.60547 1.2656-0.43359 0.95703-0.89844 1.2227-0.73438 0.80078-1.1641 1.1523-1.0391 0.81641-1.1836-0.015625-1.9375-1.4453-3.2422-2.5742-3.4062-2.8398-3.3789-2.8398-3.3281-3.0234-3.4531-2.7266-1.4648-0.92188-0.86328-0.59766-1.2969-1.0781-1.0312-0.81641-1.3125-1.0898-0.78125-0.6875-0.82422-0.625-1.9414-1.5859-1.0234-0.75781-1.6367-1.2031-1.6133-1.1562-0.90625-0.62891-1.2109-1.1055-0.96484-0.86719-1.0898-1.0273-0.75391-0.68359-0.83594-0.56641-1.3281-1.6523-0.99219-1.6641-0.72266-0.86328-0.81641-0.66406-0.64062-0.90625-0.64844-0.79688-0.69141-0.80469-0.59766-0.84766-0.45312-1.1836-0.26172-1.0703-0.22656-1.2305 0.23828-1.2695 0.34766-1.3672 0.72266-1.2148 0.90625-0.45312 0.73828-0.68359 0.52344-1.0352 0.097657-1.0469-0.28516-1.1758-0.43359-1.2617-0.85156-1.6992-0.81641-1.1562-0.64844-0.91797-2.9336-3.8828-3.2344-3.2969-3.6094-2.6406-3.5859-2.6484-0.83203-0.92969-2.7695-1.9531-0.81641-0.61328-1.7031-1.6641-1.1445-1.0977-0.94531-0.85938-0.94922-0.78906-0.94922-0.72266-0.94141-0.64844-1.0469-0.6875-0.84766-0.58984-1.0117-0.57812-0.87891-0.76172-1.043-0.82812-0.77734-0.65234-1.0508-0.78906-0.90234-0.68359-1.0117-0.85938-1.0469-0.72656-0.81641-0.61328-1.0117-0.72656-0.97656-0.71875-0.98438-0.76172-0.9375-0.78906-0.85156-0.78516-0.96875-0.72656-0.81641-0.61328-0.875-0.82422-0.98047-0.78516-0.91016-0.85547-0.91016-0.79297-0.77734-0.71875-0.90234-0.76172-0.84375-0.54688-0.81641-0.62109-1.082-0.67969-0.80859-0.59766-0.98047-0.81641-0.97266-0.72656-2.7383-2.168-1.3555-0.96484-3.5859-2.5977-3.543-2.6055-3.5469-2.125-0.79688-0.64453-0.98828-0.625-1.2148-0.96094-1.0781-0.89453-1.1836-0.92969-1.0898-0.71094-2.1055-1.0078 1.2461-2.2227 1.1484-0.57031 0.85156-0.71484 1.457-1.793 1.1641-1.1641 1.0078-1.2148 1.5078-1.2422 1.6211-0.84375 1.7422-1.2852 1.6211-0.57031 1.3164-0.75781 1.1719-0.35156 1.8125-0.37891 2.4453-1.2852 1.8359-0.58594 1.8438-1.207 1.043-0.3125 1.1914-1.2031 0.95703-0.62109 1.043-0.58594 1.7734-3.9922 0.37109-1.0156 0.78516-1.8438 1.0781-1.3984 1.2734-1.1562 1.4414-1.1172 1.4727-0.84766 13.633-14.676 2.3125-2.6289 1.3477-0.37891 1.7344-0.48828 1.8242-0.67578 1.3398-0.29688 2.8906-0.45703 1.0352 0.15234 0.91016 0.48828 2.4336 0.54688 1.1875 0.73047 1.4609-0.39453 0.91016-0.45703 1.0078-1.125 0.99219-1.4375 0.55859-1.0586 0.66797-0.88281 1.3672 0.21484 0.88281 0.82031 1.0859 0.86719 0.72266 1.043 0.41406 0.91797 0.625 1.2266 1.5742 1.5742 1.5586 0.94141 0.66797 1.3711-0.1875 1.9297 0.57031 1.1992 0.25 1.6602-0.015625 1.0781 0.24219 1.0078 1.1953 1.918 0.51172 1.0273-0.17188 1.0078 0.035157 1.9453-0.13672 1.7344-0.21484 1.3164-0.074219 1.832 0.41016 1.043 0.75 1.5078 1.3516 1.0273 1.1133 0.95703 2.0039 0.085937 1.043 0.30859 0.68359 2.0703 0.027344 1.0039 0.042969 2.0234-0.39453 0.99219 24.289 3.332 32.254 3.1055 1.0156-1.7227 1.0039-1.6016 0.5-0.96875 0.81641-0.78516-0.79688-1.8008-0.71484-1.5938-0.77344-2.3555 0.20703-1.6641 0.59766-1.1172 0.50781-1.2734 2.3125-1.168 1.1758-0.64844 1.1719-0.64844 1.3242-1.0508 0.88281-0.59766 2.5352-0.48047 1.5547-1.1406 1.6445-1.2539 1.2266-0.64844 0.84766-0.58594 1.0391-0.12891 1.4336-0.64062 1.9492-0.16797 1.6016-0.125 1.3281-1.4727 0.82812-1.8711 0.5-1.4531 0.10547-1.2852-0.41797-1.125 0.058594-1.3945 0.45312-1.5039 1.1914-1.7109 0.89453-0.76562 1.0156-2.0352 0.14453-1.3711 0.83203-1.3906 0.042969-1.1211 0.33203-1.5586 0.37109-1.0586 1.7969-2.3398 0.625-1.6758-0.078125-1.8359 0.11719-2.418 0.48047-2.0781 0.38672-2.4883 0.32031-1.1406 1.1016-0.80078 0.92188-0.92188 0.82031-1.1055 0.76953-1.4883 0.66797-1.8906 0.67188-1.4062 0.70312-2.207 0.39844-1.5391 1.0156-1.4375 0.33984-1.4922 0.15234-1.1562 0.65234-1.1367 1.0742-1.2617 0.91797-1.0898 1-1.4297 1.7305-2.1055 1.4844-0.66406 1.125-0.29688 1.1484-0.039062 1.125 0.21875 1.625 0.41016 1.4492 0.55078 1.3984 1.2539 1.6172 0.89453 1.9297 1.2539 1.5 0.60547 1.3359 1.3672 0.74219 0.88281 1.2266 0.50391 1.168 0.11719 1.1094-0.27344 1.125-0.16016 1.0234 0.44922 1.3711 0.73438 0.99609 0.17969 1.1172 0.0625 0.91406-0.94922 0.58984-1.4688 1.1094-0.625 1.168-0.37109 1.4414-0.29688 0.88281-0.70703 0.88672-0.59766 1.0625-0.61328 0.4375 0.96094 1.0391 0.87891 0.91797 1.2812 1.4258 2.2617 1.2812 0.86328 1.1992 0.92188 1.0156 1.7227 1.2031 2.1055 0.45312 1.0078 1.2227 1.0273 0.46875 1.3867 0.55469 1.8516 1.2773 0.89844 1.0078 1.6758 0.46875 2.0859-0.14453 1.168 0.089844 1.3711 0.86328 1.8164 0.18359 1.6172-0.019531 1.8203 0.035156 1.043 0.074219 1.7812-0.27344 1.1328-0.86328 1.4609-0.71094 0.73047-0.63672 1.082v1.8203l0.35938 1.1328 0.44922 1.9062-0.003906 1.3242-0.30078 1.0273-0.29688 1.043-0.15234 1.5547-0.089844 1.9961 0.30469 1.3867 0.35938 1.4453 1.4414 0.8125 1.2695 0.69531 1.1055 0.21094 1.0469 0.375 0.625 1.3984 0.64062 0.80469 0.64062 0.89453 0.51172 0.99219 0.34375 1.1484 0.039062 1.0117 0.015625 1.7539-0.73438 1.5586-1.6094 0.94141-1.543-0.0625h-1.2344l-1.0781 0.32031-0.37891 1.543-0.31641 1.4492-0.32812 1.2383-1.0508 1.7305-0.91016 1.1484-1.0117 1.2852-0.63281 1.6992-0.71875 1.3203-1.0781 1.1523-1.0391 0.28906-1.043 0.38281-0.86328 0.57812-1.0273 0.73438-0.88281 0.80469-0.125 1.125-0.16016 1.0664-0.8125 0.95312-0.98047 0.60156-1.1562 1.082-0.71875 0.93359-0.54297 1.1914-0.41406 1.207-0.65625 0.95703-2.0781 1.1523-1.2227 0.40234-1.457 1.1016-0.85156 0.64844-0.24219 1.3867-0.074219 1.4375-0.63281 1.4414-1.2695 1.2422-0.74219 0.80469-0.83203 1.2617-0.76953 1.0586-0.73828 0.96484-0.83203 0.96094-0.92188 0.58984-1.1719-0.37109-1.3555-0.29688-1.1914 0.33203-2.4023 0.17188-1.4648 0.10156-2.0703-0.097657-1.6797-0.17578-2.3047 0.51953-1.375 0.61328-1.8477-0.019532-1.4258 0.17578-0.82031 0.9375-0.71094 0.99219-0.51172 1.1172-0.57812 1.3203-0.26953 1.3359-0.83984 1.3672-1.2969 0.78906-2.0898 0.83594-1.4062 0.27344-1.3125 0.27344-0.78516 1.4258-1.0156 0.4375-1.3086 0.65625-0.94531 1.2578-1.7109 1.3516-1.4336 0.60156-1.0742 0.097656-1.3086 0.11719-1.2109 0.57812-1.0469 1.2383-1.6641 1.4258-1.625 1.293-1.3086 0.83984-1.418 1.2109-1.7617 1.1406-0.87891 0.56641-1.2578 1.2773-0.40234 1.0234-2.6406 1.3555-0.80078 0.66797 0.60938 1.1445 0.87109 0.54688z" fill="#ccc" fill-rule="evenodd"/>
<path d="m161.09 220.71-1.2227 1.1758-0.71875 0.84375-1.0508 1.2578-1.5977 0.72266-1.5977-0.027344-1.4727-0.29688-1.4414-0.44531-1.2227-1.0664-0.74219-1.9258-0.85156-1.4961-0.89844-1.5781-0.80469-1.418-0.92188-1.2578-1.0547-0.85156-1.2891-0.72656-1.457 0.45312-1.1094-0.47266-0.92578-0.58203-1.418-0.61719-0.69141-1.0352-1.2969-1.5195-0.86328 0.79688-0.96094 1.1055-1.4727 0.92578-1.6406 0.45703-1.3164 0.34375-1.1797 0.046875-2.1562 1.2656-4.0859 2.25-0.98438-1.0156-0.91016-1.0781-1.3164-0.097657-1.2891 1.1133-0.82031 0.70703-1.0664 0.91797-0.87109 0.74609-0.84766 0.71875-0.78906 0.67578-7.3008 5.9766 4.2305 5.5195-0.98438 0.74219-0.97266 1.4141-0.011719 1.8203 2.1445 1.1719 0.60547-1.1719 1.7148 1.0781-0.69141 2.3359 1.9023 1.2539 3.2891 1.1055 3.1562 1.4141-0.37891 1.3672-0.375 1.0273 1.5664 1.2031 1.1836 0.078125 1.7656 0.75 1.3438 0.27734 1.2148-0.12109 1.457 0.074219 0.79297 1.457 2.4844 0.042969 1.0586-0.31641 4.6875 0.47266-1.1914 2.8125-1.1797 3.9844-1.9609 2.7266-1.1055 4.1797-0.82812 1.7969-1.0234 2.2188-3.8984-0.4375-0.42969 1.1016-0.21875 2.3984-0.65625 1.8164-0.46094 1.0703 1.3164 3.7227 1.4102 1.4297 0.76953 1.7734-0.57031 1.9922-0.39453 1.5312-0.70312 1.4492-0.5625 1.1367-0.60547 1.2656-0.43359 0.95703-0.89844 1.2227-0.73438 0.80078-1.1641 1.1523-1.0391 0.81641-1.1836-0.015625-1.9375-1.4453-3.2422-2.5742-3.4062-2.8398-3.3789-2.8398-3.3281-3.0234-3.4531-2.7266-1.4648-0.92188-0.86328-0.59766-1.2969-1.0781-1.0312-0.81641-1.3125-1.0898-0.78125-0.6875-0.82422-0.625-1.9414-1.5859-1.0234-0.75781-1.6367-1.2031-1.6133-1.1562-0.90625-0.62891-1.2109-1.1055-0.96484-0.86719-1.0898-1.0273-0.75391-0.68359-0.83594-0.56641-1.3281-1.6523-0.99219-1.6641-0.72266-0.86328-0.81641-0.66406-0.64062-0.90625-0.64844-0.79688-0.69141-0.80469-0.59766-0.84766-0.45312-1.1836-0.26172-1.0703-0.22656-1.2305 0.23828-1.2695 0.34766-1.3672 0.72266-1.2148 0.90625-0.45312 0.73828-0.68359 0.52344-1.0352 0.097657-1.0469-0.28516-1.1758-0.43359-1.2617-0.85156-1.6992-0.81641-1.1562-0.64844-0.91797-2.9336-3.8828-3.2344-3.2969-3.6094-2.6406-3.5859-2.6484-0.83203-0.92969-2.7695-1.9531-0.81641-0.61328-1.7031-1.6641-1.1445-1.0977-0.94531-0.85938-0.94922-0.78906-0.94922-0.72266-0.94141-0.64844-1.0469-0.6875-0.84766-0.58984-1.0117-0.57812-0.87891-0.76172-1.043-0.82812-0.77734-0.65234-1.0508-0.78906-0.90234-0.68359-1.0117-0.85938-1.0469-0.72656-0.81641-0.61328-1.0117-0.72656-0.97656-0.71875-0.98438-0.76172-0.9375-0.78906-0.85156-0.78516-0.96875-0.72656-0.81641-0.61328-0.875-0.82422-0.98047-0.78516-0.91016-0.85547-0.91016-0.79297-0.77734-0.71875-0.90234-0.76172-0.84375-0.54688-0.81641-0.62109-1.082-0.67969-0.80859-0.59766-0.98047-0.81641-0.97266-0.72656-2.7383-2.168-1.3555-0.96484-3.5859-2.5977-3.543-2.6055-3.5469-2.125-0.79688-0.64453-0.98828-0.625-1.2148-0.96094-1.0781-0.89453-1.1836-0.92969-1.0898-0.71094-2.1055-1.0078 1.2461-2.2227 1.1484-0.57031 0.85156-0.71484 1.457-1.793 1.1641-1.1641 1.0078-1.2148 1.5078-1.2422 1.6211-0.84375 1.7422-1.2852 1.6211-0.57031 1.3164-0.75781 1.1719-0.35156 1.8125-0.37891 2.4453-1.2852 1.8359-0.58594 1.8438-1.207 1.043-0.3125 1.1914-1.2031 0.95703-0.62109 1.043-0.58594 1.7734-3.9922 0.37109-1.0156 0.78516-1.8438 1.0781-1.3984 1.2734-1.1562 1.4414-1.1172 1.4727-0.84766 13.633-14.676 2.3125-2.6289 1.3477-0.37891 1.7344-0.48828 1.8242-0.67578 1.3398-0.29688 2.8906-0.45703 1.0352 0.15234 0.91016 0.48828 2.4336 0.54688 1.1875 0.73047 1.4609-0.39453 0.91016-0.45703 1.0078-1.125 0.99219-1.4375 0.55859-1.0586 0.66797-0.88281 1.3672 0.21484 0.88281 0.82031 1.0859 0.86719 0.72266 1.043 0.41406 0.91797 0.625 1.2266 1.5742 1.5742 1.5586 0.94141 0.66797 1.3711-0.1875 1.9297 0.57031 1.1992 0.25 1.6602-0.015625 1.0781 0.24219 1.0078 1.1953 1.918 0.51172 1.0273-0.17188 1.0078 0.035157 1.9453-0.13672 1.7344-0.21484 1.3164-0.074219 1.832 0.41016 1.043 0.75 1.5078 1.3516 1.0273 1.1133 0.95703 2.0039 0.085937 1.043 0.30859 0.68359 2.0703 0.027344 1.0039 0.042969 2.0234-0.39453 0.99219 24.289 3.332 32.254 3.1055 1.0156-1.7227 1.0039-1.6016 0.5-0.96875 0.81641-0.78516-0.79688-1.8008-0.71484-1.5938-0.77344-2.3555 0.20703-1.6641 0.59766-1.1172 0.50781-1.2734 2.3125-1.168 1.1758-0.64844 1.1719-0.64844 1.3242-1.0508 0.88281-0.59766 2.5352-0.48047 1.5547-1.1406 1.6445-1.2539 1.2266-0.64844 0.84766-0.58594 1.0391-0.12891 1.4336-0.64062 1.9492-0.16797 1.6016-0.125 1.3281-1.4727 0.82812-1.8711 0.5-1.4531 0.10547-1.2852-0.41797-1.125 0.058594-1.3945 0.45312-1.5039 1.1914-1.7109 0.89453-0.76562 1.0156-2.0352 0.14453-1.3711 0.83203-1.3906 0.042969-1.1211 0.33203-1.5586 0.37109-1.0586 1.7969-2.3398 0.625-1.6758-0.078125-1.8359 0.11719-2.418 0.48047-2.0781 0.38672-2.4883 0.32031-1.1406 1.1016-0.80078 0.92188-0.92188 0.82031-1.1055 0.76953-1.4883 0.66797-1.8906 0.67188-1.4062 0.70312-2.207 0.39844-1.5391 1.0156-1.4375 0.33984-1.4922 0.15234-1.1562 0.65234-1.1367 1.0742-1.2617 0.91797-1.0898 1-1.4297 1.7305-2.1055 1.4844-0.66406 1.125-0.29688 1.1484-0.039062 1.125 0.21875 1.625 0.41016 1.4492 0.55078 1.3984 1.2539 1.6172 0.89453 1.9297 1.2539 1.5 0.60547 1.3359 1.3672 0.74219 0.88281 1.2266 0.50391 1.168 0.11719 1.1094-0.27344 1.125-0.16016 1.0234 0.44922 1.3711 0.73438 0.99609 0.17969 1.1172 0.0625 0.91406-0.94922 0.58984-1.4688 1.1094-0.625 1.168-0.37109 1.4414-0.29688 0.88281-0.70703 0.88672-0.59766 1.0625-0.61328 0.4375 0.96094 1.0391 0.87891 0.91797 1.2812 1.4258 2.2617 1.2812 0.86328 1.1992 0.92188 1.0156 1.7227 1.2031 2.1055 0.45312 1.0078 1.2227 1.0273 0.46875 1.3867 0.55469 1.8516 1.2773 0.89844 1.0078 1.6758 0.46875 2.0859-0.14453 1.168 0.089844 1.3711 0.86328 1.8164 0.18359 1.6172-0.019531 1.8203 0.035156 1.043 0.074219 1.7812-0.27344 1.1328-0.86328 1.4609-0.71094 0.73047-0.63672 1.082v1.8203l0.35938 1.1328 0.44922 1.9062-0.003906 1.3242-0.30078 1.0273-0.29688 1.043-0.15234 1.5547-0.089844 1.9961 0.30469 1.3867 0.35938 1.4453 1.4414 0.8125 1.2695 0.69531 1.1055 0.21094 1.0469 0.375 0.625 1.3984 0.64062 0.80469 0.64062 0.89453 0.51172 0.99219 0.34375 1.1484 0.039062 1.0117 0.015625 1.7539-0.73438 1.5586-1.6094 0.94141-1.543-0.0625h-1.2344l-1.0781 0.32031-0.37891 1.543-0.31641 1.4492-0.32812 1.2383-1.0508 1.7305-0.91016 1.1484-1.0117 1.2852-0.63281 1.6992-0.71875 1.3203-1.0781 1.1523-1.0391 0.28906-1.043 0.38281-0.86328 0.57812-1.0273 0.73438-0.88281 0.80469-0.125 1.125-0.16016 1.0664-0.8125 0.95312-0.98047 0.60156-1.1562 1.082-0.71875 0.93359-0.54297 1.1914-0.41406 1.207-0.65625 0.95703-2.0781 1.1523-1.2227 0.40234-1.457 1.1016-0.85156 0.64844-0.24219 1.3867-0.074219 1.4375-0.63281 1.4414-1.2695 1.2422-0.74219 0.80469-0.83203 1.2617-0.76953 1.0586-0.73828 0.96484-0.83203 0.96094-0.92188 0.58984-1.1719-0.37109-1.3555-0.29688-1.1914 0.33203-2.4023 0.17188-1.4648 0.10156-2.0703-0.097657-1.6797-0.17578-2.3047 0.51953-1.375 0.61328-1.8477-0.019532-1.4258 0.17578-0.82031 0.9375-0.71094 0.99219-0.51172 1.1172-0.57812 1.3203-0.26953 1.3359-0.83984 1.3672-1.2969 0.78906-2.0898 0.83594-1.4062 0.27344-1.3125 0.27344-0.78516 1.4258-1.0156 0.4375-1.3086 0.65625-0.94531 1.2578-1.7109 1.3516-1.4336 0.60156-1.0742 0.097656-1.3086 0.11719-1.2109 0.57812-1.0469 1.2383-1.6641 1.4258-1.625 1.293-1.3086 0.83984-1.418 1.2109-1.7617 1.1406-0.87891 0.56641-1.2578 1.2773-0.40234 1.0234-2.6406 1.3555-0.80078 0.66797 0.60938 1.1445 0.87109 0.54688-0.035156 0.23828" fill="none" stroke="#fff" stroke-linecap="round" stroke-linejoin="round" stroke-miterlimit="10" stroke-width="2"/>
<path d="m216.86 321.06 0.75781 0.48828 1.0391 0.76172 1.5898-0.007813 1.3789-0.03125 1.7734-0.19141 1.6602-0.28516 1.2617-0.17578 1.1133-0.23438 1.9336-0.12891 1.3281 0.30078 0.94922 0.93359 0.35547 1.082 2.0859-0.050782 3.0352-0.68359 0.96484 0.33984 1.4688 1.2188 1.2344 0.89844 1.0586 0.34375 1.2266-0.5 0.98047-0.42969 1.0938 0.19141 0.94531 0.71875 0.80859 0.62109 0.99609 0.57031 1.2539 0.14844 1.1797-0.18359 1.9375-0.46484 1.1016-0.097656 1.5703 0.41016 1.3203 0.62891 1.2656 0.03125 1.1445 0.19531 1.2227-0.015625 1.0312-0.15625 1.0391-0.023438 1.0586 0.12109 1.3164 0.77344 0.45703 1.3359 0.26953 0.98828 0.16406 1.1211 0.35938 1.1289 1.5469 1.7734 1.1328 1.4062 1.0312 1.168 1.0898 0.097657 1.0938 0.33984 2.1211 0.91406 1.7109 0.33203 1.4453-0.29297 1.4531-0.6875 1.4492-1.1797 0.92188-0.45312 1.9727 0.58594 1.0352 0.039063 1.625-0.10156 1.7578-0.79297 1.5508-0.52344 2.0898-0.33594 2.8672-0.14062 1.293-0.44141 1.4453-0.28516 1.6602-0.75781 1.3203-1.3359 1.0977-0.87891 0.75-0.66797 0.94922-0.58594 2.043-0.83984 1.5508-0.94922 1.0234-0.40625 2 0.058594 1.2656 0.125 1.0312 0.20703 1.3594 0.83984 1.5195 1.3125 1.1562 0.82422 0.96484 0.75391 0.84375 0.73828 1.3438 1.8281 0.84766 1.5117 0.8125 1.6602 0.082031 1.6445-0.40234 1.7812-1.2305 1.0039-0.91406 1.4219 0.011719 1.3242 0.35938 1.6289-0.44922 1.6484-0.09375 1.0859 0.26562 1.0469 0.54297 0.89062 0.66016 1.4141 0.375 1.082 0.25781 1.5859 0.69531 0.87891 0.83594 0.89453 0.57422 1.4688 0.14453 1.4414-0.11328 1.0977-0.91016 1.4727 0.20703 1.8789 0.50391 2.0078 0.17969 1.0898 0.015625 1.3008-0.078125 1.5352-0.078125 1.207-0.019531 1.582 0.58594 1.6445 0.90234 0.65234 1.8242 0.72266 1.2266 0.48438 2.1523 0.39453 1.9297 0.12891 1.0352 0.066407 1.9531 0.64453 0.96094 0.35938 1.0508 0.12109 1.2109-0.18359 1.2734-0.13281 1.2969 0.070313 1.2695-0.15625 0.98438 0.74219-0.042969 2.3594 0.82031 1.5977 1.2461 0.84375 1.1133 0.75781 1.2109 0.83594 1.0547 0.69922 0.58594 0.875-0.26172 1.5156 0.50781 1.0156 1.582 1 0.91406 0.92969 0.96094 0.89844 0.93359 1.293 0.28906 1.6289-0.15625 1.1016 0.19531 1.4922 0.11719 1.5781-1.2266 1.3398-1.9922 1.3047-0.76172 1.0234-0.88281 1.2969-0.035156 2.9375-0.38281 1.6016-0.44922 1.0117-0.95703 0.75781-1.3867 0.37891-1.1836 0.17578-1.1914 0.47656-0.59766 0.98047 0.47266 1.1172 0.63281 1.0742 0.25391 1.0586 0.40625 1.0859 0.45703 1.418 0.33594 1.0898 0.67969 0.99219 1.5039 1.7656 0.79688 0.89844 0.69922 1.0391-0.89844 2.3477-0.63672 1.5391-1.6836 1.0039-1.1836 0.40234-0.87109 1.6875-0.3125 1.2305-0.50391 1.9727-0.082032 1.1211 0.46094 1.6484 0.15625 1.0625-0.30859 1.0273-0.47266 1.0859-0.26562 1.6055-0.39062 1.1641-0.49219 1.4766-1.0078 0.33984-1.2266 0.27344-2.4414-0.49219-1.5781 0.1875-2.8906 1.8867-1.2305 1.332-1.082 1.3555-0.56641 0.9375-1.4375 0.60156-2.5195 0.03125-1.4648 0.015625-2.0625 0.20312-1.3398 1.2031-1.0547 1.0781-1.4805 0.6875-1.2148 1.8633-1.3008 1.5781-1.1484 1.0742-0.39453 1.1562-1.5781 1.0703-1.207 1.0078-2.1797 0.53516-1.4219-0.39062-1.0938 0.39062-1.3047 0.44531-1.3867 1.5273-2.1719 1.6719-0.92188 0.65625-1.0703 0.74609-1.0078 0.95703-1.2148 0.58594-1.3867-0.12891-1.3281 0.64844-0.80859 0.89453-1.1836 0.50781-1.6094-0.007812-2.1797 0.64844-1.8906 0.64453-1.3008 0.43359-0.85938 0.58594-0.89844 1.1016-0.49219 1.7422-0.67969 1.5586-1.4062 1.3945-1.8789 2.4492-0.79297 1.1289-0.35938 1.2578-0.37891 1.8555-0.8125 1.25-0.45703 2.2148-0.27344 1.2812-0.19141 1.1562-0.29297 1.5703-0.89844 0.4375-1.0391 0.39844-1.0703 0.62109-1.1992 0.79297-0.9375 0.87891-0.87891 0.69922-1.5195-1.2852-1.2539-2.043-0.73438-1.3438-1.1758-1.668-1.2383-1.6133-0.79297-0.66016-1.2969-1.3789-1.1758-1.4883-2.375-2.8164-5.125-7.7656-6.6328-8.875-6.7812-9.0234-2.8906-4.1914-3.2891-4.5352-1.9961-2.0469-1.2461-1.0469-0.5-2.1406 0.10156-1.5977-2.4453-3.8398-4.9844-5.9844-2.2461-2.2422-1.1445-2.293 0.29688-1.0977 1.0508-1.0977 1.0938-0.94531 0.25-1.3984-0.097656-1.793-0.55078-1.5469-0.99609-2.1914-1.0977-3.1914-0.74609-2.793-0.10156-2.9922-1.1953-2.7422-1.3477-2.3438-1.5469-2.043-2.6914-3.4922-2.6914-2.7422-3.9375-5.0352-4.2891-3.9375-2.4258-3.1055-1-0.96094-1.1836-0.79688-1.082-1.1211-1.125-1.1836-0.57031-0.98047-1.1211 0.40625-2.9219 2.6328 5.9805-5.4883-1.5703-1.8984-2.2461-1.4297 2.4297 1.2656 1.125 1.2656 0.77344 0.89844 1.0625 0.22266 1.0469-0.46875-0.99609-1.8672 1.2383 1.1445-0.42188-1.6445 1.2422 1.082 0.95703-0.49609 0.16797-1.0195 0.16016-1.3242-1.3984-0.46094 0.72656-0.69531-0.36328-1.4609-0.14062-1.2109-1.9336 0.61328 1.8672-1.7031-0.35156-1.4531-0.34766-1.1016-1.8359 1.7266 1.7539-1.8242-0.59766-1.9609-2.8164 2.125 2.7031-2.4141-0.80469-1.0195-1.1562-1.332-1.0273-1.2539-0.89062-1.0586-0.82031-1-1.1133-1.1836-1.5039-1.4727-1.1133-1.0742-0.96094-1.0547-1.1016-1.0664-1.1797-1.4727-1.3242-1.0586 0.65234-1.7148 0.64844-1.6836 0.32422-1.5312 0.13672-1.3945 0.066406-1.7617-0.14844-1.0781-0.097657-1.7188-0.25781-2.1367-0.066406-1.4258 0.55078-1.6836 0.76953-1.3594 1.1484-2.1914 0.51172-1.0156 0.98438-0.47266 2.6484-0.5 1.9453-0.39062 1.4141-0.21875 1.3477-0.097657 1.1602-0.050781 1.0156 0.050781 1.0586 0.007813 1.4648 0.023437 1.0742-0.066406 1.2344-0.39062 1.625-0.61719 2.0664-0.87891 1.2734-0.42578 1.125-0.16797 1.9297-0.15234 1.2031-0.015625 1.0625-0.011719 1.5039-0.21875 0.69141-0.77734z" fill="#ccc" fill-rule="evenodd"/>
<path d="m216.86 321.06 0.75781 0.48828 1.0391 0.76172 1.5898-0.007813 1.3789-0.03125 1.7734-0.19141 1.6602-0.28516 1.2617-0.17578 1.1133-0.23438 1.9336-0.12891 1.3281 0.30078 0.94922 0.93359 0.35547 1.082 2.0859-0.050782 3.0352-0.68359 0.96484 0.33984 1.4688 1.2188 1.2344 0.89844 1.0586 0.34375 1.2266-0.5 0.98047-0.42969 1.0938 0.19141 0.94531 0.71875 0.80859 0.62109 0.99609 0.57031 1.2539 0.14844 1.1797-0.18359 1.9375-0.46484 1.1016-0.097656 1.5703 0.41016 1.3203 0.62891 1.2656 0.03125 1.1445 0.19531 1.2227-0.015625 1.0312-0.15625 1.0391-0.023438 1.0586 0.12109 1.3164 0.77344 0.45703 1.3359 0.26953 0.98828 0.16406 1.1211 0.35938 1.1289 1.5469 1.7734 1.1328 1.4062 1.0312 1.168 1.0898 0.097657 1.0938 0.33984 2.1211 0.91406 1.7109 0.33203 1.4453-0.29297 1.4531-0.6875 1.4492-1.1797 0.92188-0.45312 1.9727 0.58594 1.0352 0.039063 1.625-0.10156 1.7578-0.79297 1.5508-0.52344 2.0898-0.33594 2.8672-0.14062 1.293-0.44141 1.4453-0.28516 1.6602-0.75781 1.3203-1.3359 1.0977-0.87891 0.75-0.66797 0.94922-0.58594 2.043-0.83984 1.5508-0.94922 1.0234-0.40625 2 0.058594 1.2656 0.125 1.0312 0.20703 1.3594 0.83984 1.5195 1.3125 1.1562 0.82422 0.96484 0.75391 0.84375 0.73828 1.3438 1.8281 0.84766 1.5117 0.8125 1.6602 0.082031 1.6445-0.40234 1.7812-1.2305 1.0039-0.91406 1.4219 0.011719 1.3242 0.35938 1.6289-0.44922 1.6484-0.09375 1.0859 0.26562 1.0469 0.54297 0.89062 0.66016 1.4141 0.375 1.082 0.25781 1.5859 0.69531 0.87891 0.83594 0.89453 0.57422 1.4688 0.14453 1.4414-0.11328 1.0977-0.91016 1.4727 0.20703 1.8789 0.50391 2.0078 0.17969 1.0898 0.015625 1.3008-0.078125 1.5352-0.078125 1.207-0.019531 1.582 0.58594 1.6445 0.90234 0.65234 1.8242 0.72266 1.2266 0.48438 2.1523 0.39453 1.9297 0.12891 1.0352 0.066407 1.9531 0.64453 0.96094 0.35938 1.0508 0.12109 1.2109-0.18359 1.2734-0.13281 1.2969 0.070313 1.2695-0.15625 0.98438 0.74219-0.042969 2.3594 0.82031 1.5977 1.2461 0.84375 1.1133 0.75781 1.2109 0.83594 1.0547 0.69922 0.58594 0.875-0.26172 1.5156 0.50781 1.0156 1.582 1 0.91406 0.92969 0.96094 0.89844 0.93359 1.293 0.28906 1.6289-0.15625 1.1016 0.19531 1.4922 0.11719 1.5781-1.2266 1.3398-1.9922 1.3047-0.76172 1.0234-0.88281 1.2969-0.035156 2.9375-0.38281 1.6016-0.44922 1.0117-0.95703 0.75781-1.3867 0.37891-1.1836 0.17578-1.1914 0.47656-0.59766 0.98047 0.47266 1.1172 0.63281 1.0742 0.25391 1.0586 0.40625 1.0859 0.45703 1.418 0.33594 1.0898 0.67969 0.99219 1.5039 1.7656 0.79688 0.89844 0.69922 1.0391-0.89844 2.3477-0.63672 1.5391-1.6836 1.0039-1.1836 0.40234-0.87109 1.6875-0.3125 1.2305-0.50391 1.9727-0.082032 1.1211 0.46094 1.6484 0.15625 1.0625-0.30859 1.0273-0.47266 1.0859-0.26562 1.6055-0.39062 1.1641-0.49219 1.4766-1.0078 0.33984-1.2266 0.27344-2.4414-0.49219-1.5781 0.1875-2.8906 1.8867-1.2305 1.332-1.082 1.3555-0.56641 0.9375-1.4375 0.60156-2.5195 0.03125-1.4648 0.015625-2.0625 0.20312-1.3398 1.2031-1.0547 1.0781-1.4805 0.6875-1.2148 1.8633-1.3008 1.5781-1.1484 1.0742-0.39453 1.1562-1.5781 1.0703-1.207 1.0078-2.1797 0.53516-1.4219-0.39062-1.0938 0.39062-1.3047 0.44531-1.3867 1.5273-2.1719 1.6719-0.92188 0.65625-1.0703 0.74609-1.0078 0.95703-1.2148 0.58594-1.3867-0.12891-1.3281 0.64844-0.80859 0.89453-1.1836 0.50781-1.6094-0.007812-2.1797 0.64844-1.8906 0.64453-1.3008 0.43359-0.85938 0.58594-0.89844 1.1016-0.49219 1.7422-0.67969 1.5586-1.4062 1.3945-1.8789 2.4492-0.79297 1.1289-0.35938 1.2578-0.37891 1.8555-0.8125 1.25-0.45703 2.2148-0.27344 1.2812-0.19141 1.1562-0.29297 1.5703-0.89844 0.4375-1.0391 0.39844-1.0703 0.62109-1.1992 0.79297-0.9375 0.87891-0.87891 0.69922-1.5195-1.2852-1.2539-2.043-0.73438-1.3438-1.1758-1.668-1.2383-1.6133-0.79297-0.66016-1.2969-1.3789-1.1758-1.4883-2.375-2.8164-5.125-7.7656-6.6328-8.875-6.7812-9.0234-2.8906-4.1914-3.2891-4.5352-1.9961-2.0469-1.2461-1.0469-0.5-2.1406 0.10156-1.5977-2.4453-3.8398-4.9844-5.9844-2.2461-2.2422-1.1445-2.293 0.29688-1.0977 1.0508-1.0977 1.0938-0.94531 0.25-1.3984-0.097656-1.793-0.55078-1.5469-0.99609-2.1914-1.0977-3.1914-0.74609-2.793-0.10156-2.9922-1.1953-2.7422-1.3477-2.3438-1.5469-2.043-2.6914-3.4922-2.6914-2.7422-3.9375-5.0352-4.2891-3.9375-2.4258-3.1055-1-0.96094-1.1836-0.79688-1.082-1.1211-1.125-1.1836-0.57031-0.98047-1.1211 0.40625-2.9219 2.6328 5.9805-5.4883-1.5703-1.8984-2.2461-1.4297 2.4297 1.2656 1.125 1.2656 0.77344 0.89844 1.0625 0.22266 1.0469-0.46875-0.99609-1.8672 1.2383 1.1445-0.42188-1.6445 1.2422 1.082 0.95703-0.49609 0.16797-1.0195 0.16016-1.3242-1.3984-0.46094 0.72656-0.69531-0.36328-1.4609-0.14062-1.2109-1.9336 0.61328 1.8672-1.7031-0.35156-1.4531-0.34766-1.1016-1.8359 1.7266 1.7539-1.8242-0.59766-1.9609-2.8164 2.125 2.7031-2.4141-0.80469-1.0195-1.1562-1.332-1.0273-1.2539-0.89062-1.0586-0.82031-1-1.1133-1.1836-1.5039-1.4727-1.1133-1.0742-0.96094-1.0547-1.1016-1.0664-1.1797-1.4727-1.3242-1.0586 0.65234-1.7148 0.64844-1.6836 0.32422-1.5312 0.13672-1.3945 0.066406-1.7617-0.14844-1.0781-0.097657-1.7188-0.25781-2.1367-0.066406-1.4258 0.55078-1.6836 0.76953-1.3594 1.1484-2.1914 0.51172-1.0156 0.98438-0.47266 2.6484-0.5 1.9453-0.39062 1.4141-0.21875 1.3477-0.097657 1.1602-0.050781 1.0156 0.050781 1.0586 0.007813 1.4648 0.023437 1.0742-0.066406 1.2344-0.39062 1.625-0.61719 2.0664-0.87891 1.2734-0.42578 1.125-0.16797 1.9297-0.15234 1.2031-0.015625 1.0625-0.011719 1.5039-0.21875 0.69141-0.77734 2.2109 0.38672" fill="none" stroke="#fff" stroke-linecap="round" stroke-linejoin="round" stroke-miterlimit="10" stroke-width="2"/>
<path d="m140.59 285 0.003906 0.003906 1.1172 0.54297 1.4844 0.78125 1.0781 0.91406 0.85547 0.72266 0.84375-0.94141 0.83594 0.57812 1.1875 0.39453 1.207 0.40234 1.3086 0.47656 1.3125 0.875 0.82422 0.70312 1.1016 0.96484 1.0938 0.97656 0.96094 0.87109 0.78125 0.70703 1.2578 1.1367 0.21484 2.7188 0.027344 2.5859 0.55469 6.9766-1.3984 0.55469-0.58594 1.5508-0.21484 1.0938-0.40234 1.0664-0.83203 0.55859-0.69531 0.99609-0.80078 1.0938-0.83203 1.0156-1.0039 0.48828-0.53516 0.91016-1.7031-0.91797-0.93359-0.67188-1.3164-1.3242-0.96484-0.82422-1.0781-0.86328-1.4453-1.2266-0.96484-0.81641-1.5781-1.2852-1.4922-1.1562-0.75781-0.66797-1.0078-0.83984-0.89844-0.76562-1.1992-0.98047-1.5312-1.2852-1.1797-0.94922-1.0273-0.81641-1.1523-0.94531-1.9023-1.7266-0.81641-0.71484-2.2891-1.9102-2.6992-2.1367-1.5195-1.2227-1.3906-1.1406 1.25 0.22656 1-0.66016 0.88672-0.81641 1.3633-1.4336 0.89844-1.2227 0.43359-0.95703 0.60547-1.2656 0.5625-1.1367 0.50781-0.98438 0.58984-1.9961 0.57031-1.9922 5.7578 1.3398 1.6367 1.4336 3.293 2.3398z" fill="#ccc" fill-rule="evenodd"/>
<path d="m140.59 285 0.003906 0.003906 1.1172 0.54297 1.4844 0.78125 1.0781 0.91406 0.85547 0.72266 0.84375-0.94141 0.83594 0.57812 1.1875 0.39453 1.207 0.40234 1.3086 0.47656 1.3125 0.875 0.82422 0.70312 1.1016 0.96484 1.0938 0.97656 0.96094 0.87109 0.78125 0.70703 1.2578 1.1367 0.21484 2.7188 0.027344 2.5859 0.55469 6.9766-1.3984 0.55469-0.58594 1.5508-0.21484 1.0938-0.40234 1.0664-0.83203 0.55859-0.69531 0.99609-0.80078 1.0938-0.83203 1.0156-1.0039 0.48828-0.53516 0.91016-1.7031-0.91797-0.93359-0.67188-1.3164-1.3242-0.96484-0.82422-1.0781-0.86328-1.4453-1.2266-0.96484-0.81641-1.5781-1.2852-1.4922-1.1562-0.75781-0.66797-1.0078-0.83984-0.89844-0.76562-1.1992-0.98047-1.5312-1.2852-1.1797-0.94922-1.0273-0.81641-1.1523-0.94531-1.9023-1.7266-0.81641-0.71484-2.2891-1.9102-2.6992-2.1367-1.5195-1.2227-1.3906-1.1406 1.25 0.22656 1-0.66016 0.88672-0.81641 1.3633-1.4336 0.89844-1.2227 0.43359-0.95703 0.60547-1.2656 0.5625-1.1367 0.50781-0.98438 0.58984-1.9961 0.57031-1.9922 5.7578 1.3398 1.6367 1.4336 3.293 2.3398 0.74219 0.59375" fill="none" stroke="#fff" stroke-linecap="round" stroke-linejoin="round" stroke-miterlimit="10" stroke-width="2"/>
<path d="m249.41 149.16 0.51953 0.15625 1.3086 0.44141 0.89453 0.50781 0.98828 0.55078 0.46094 1.3086-0.46875 1.2344-0.625 0.82031-1.0195 1.8984-0.18359 1.1992 0.85156 1.1289 0.54297 1.082 1.2852 1.418 1.0312 1.5625 0.41016 1.6562 0.49219 1.0703 1.168 0.42188 0.76562 0.81641 0.94922 1.7305 0.6875 1.3828 1.1172 1.0078 1.7656-0.33594 1.0195-0.44531 0.50781 1.1289-0.25391 1.7773-0.15625 1.6133 0.33594 1.2969 0.27734 0.96094 1.3203 0.89844 1.0703 0.46875 1.5 1.1445 1.2383 0.88672 1.1641 0.91406 1.2305 0.71484 0.98828 0.75 1.6055 0.27734 2.0039-0.023438 2.2891-0.32812 1.2344-0.21484 1.3672-0.20703 2.1484-0.42578 1.4375-0.47266 1.7344-0.33594h1.1289l2.1641-0.30859 1.2031 0.03125 1.2422 0.24219 2.1055-0.09375 1.2383 1 2.2852 0.46484 1.2852 0.25781 1.5938-0.23047 1.8281 0.17188 2.7383-0.17188 1.1836 0.050782 1.293 0.41406 1.4453 0.64453 1.6211 0.5625 1.043 0.54297 0.74219 1.3789 0.25 0.98047 0.28516 1.2344 0.60547 0.94922 0.92188-0.5 1.0781 0.003906 1.082-0.45312 1.2539 0.36328 1.0234 0.17188 0.74219 0.86719 1.0742 0.15234 1.1992-0.44531 1.0703-0.47266 0.99609-0.15234 1.2422 0.59375 0.98047 0.50391 1.0938 0.26953 0.70312 0.76953 0.93359-0.63672 1.0117-0.058594 1.1992-0.11719 0.46875 1.125 0.019531 1.5703-0.18359 1.3242-0.22656 0.98438 0.6875 1.1484 1.0742 2.1133 0.93359 1.168-0.30078 2.1016-0.72656 1.4023-0.023438 1.0742 1.707 1.75 1.0977 1.9844 0.30078 1.6367 0.44531 1.4688 0.58203 0.84375 0.60938 1.2812 1.1914 1.2148 1.4688 0.70312 1.3789 1.2578 1.1992 1.1719 0.83203 1.2109 1.8438 1.168 1.543 1.0273 0.81641 0.84375-0.57812 1.0234-1.5273 1.1914-1.5625 0.65234-0.32031 1.1484-0.13672 1.668-0.67188 1.6484-1.1914 1.1914-0.76562 0.75-0.59766 2.4102 0.61719 2.9375 2.1641 2.5586 1.125 0.94922 1.4336 1.3281 1.168 0.76953 0.92969 1.1172 0.054687 2.5781 0.875 1.4336 0.86328 0.64844 0.054687 1.2305-0.14844 1.2656-0.011719 2.1836 0.41406 1.1172 2.1562 1.5312 1.6758 0.60156 1.9883 1.1719 3.3516 2.0586 1.8867 0.79688 1.0039 0.5625 0.11719 1.6484-0.16797 0.98828-0.27344 1.4453-0.035157 1.9375 0.16406 1.2891 0.14453 1.6016 0.71484 1.5977 0.85156 1.7305 0.74609 1.1367 1.4336 0.29688 1.1836-0.87109 1.0742-2.4336 0.89844-2.2734 0.97266-0.71094 1.2695 0.53906 1.4336 0.83984 2.0273 1.3203 1.1719 0.25781 2.1953-0.25391 1.4844-0.19531 1.4414-0.30078 1.3516 0.10938 1.0586 0.070312 1.9727 0.054688 1.2383 0.066406 2.043 0.48438 1.2344 0.24219 1.9141 0.27734 1.1523 0.26953 1.1406 0.49219 2.0312 0.46094 1.3555 0.12109 1.5-0.41016 2.4258-1.7109 1.2461-0.78125 0.82031-0.89453 1.0938-1.5938 0.84375-1.4297 1.0664-1.7148 1.4766-1.7188 0.79688-0.67578 1.6914-0.75 2.0078-0.94531 1.4492-0.68359 1.3008-0.55859 1.6953-0.33594 1.2109 0.019532 1.1719-0.35156 0.95312-0.8125 1.4922-0.48438 1.2734 0.25 1.2383 0.36719 2.5352 0.69922 2.582 0.1875 3.0781 0.39844 1.5664 0.21094 1.5664-0.039062 1.5703-0.32812 1.0469-0.12891h1.8711l1.6055 0.074218 2.3477 0.23047 1.6094-0.097656 1.1797-0.12109 1.4531-0.52734 1.1055-0.53516 1.625-0.6875 0.97656-0.30469 1.9453-0.34375 0.53125 1.5508 0.30078 1.0156 0.56641 2.8672-0.054687 1.5469 0.054687 1.6914 0.20703 2.2539 0.35156 2.2422 0.19141 1.5156 0.50781 2.3164 0.23047 1.0391 0.11328 1.6875-0.097656 1.6367-0.26172 1.6406-0.27734 2-0.37891 1.4844-0.039063 1.625-0.21094 1.3086 22.867 2.8984 4.9727 0.56641 10.094 1.1484-0.11328 2.125-0.40234 2.2852 0.32031 1.1367 0.15625 1.1797-0.22656 1.7109-0.40625 1.6758-0.70312 2.6445-1.4648 1.4102-1.2422 0.60156-2.4805 0.44922-1.4492 0.042969-1.4492-0.24219-1.6055-0.19531-1.7461-0.042969-1.3281-0.019531-1.2109-0.050782-1.6992-0.19531-1.3828-0.29688-1.1328-0.78906-1.9375-1.375-1.4727-0.90234-1.4727-1.207-1.6445-0.94531-1.1367 0.015625-0.74609 1.0078-0.64062 1.4062-1.1484 0.94141-1.4453 0.63281-1.0977 0.42188-1.0352 0.35938-1.3125 0.36328-1.207 1.082-0.64062 1.6992-0.5625 1.5234-1.125 0.49219-1.2109-0.10156-0.97266-0.35156-1.1133-0.10547-1.6836 0.039062-1.7422 0.125-1.1172 0.10547-1.3477 0.12891-1.3008 0.26953-1.4336 0.35156-2.2617 0.54297-1.4961 0.82422-1.1953 0.875-1.8281 0.85938-1.3477 0.85938-1.6133 0.46875-0.82422 1.8633-1.5938 2.418-0.96875 0.26953-1.2734 0.48438-1.3594 0.98828-1.3281 0.625-2.3672 0.21484-1.668 0.34375-1.6484 0.23047-1.4141 0.59375-1.1484 1.3086-1.5 1.1641-2.0508 1.2031-1.7461 0.40234-1.9258 0.054688-1.7266-0.078125-1.0703-0.11328-1.6406-0.42188-2.2461-0.12109-1.1016 0.035156-1.0352 0.45703-1.043 0.90234-1.1016 0.5625-1.5859 0.1875-1.4141 0.097656-1.5352-0.45703-1.9141 0.003906-1.4883 0.55469-1.8555 0.070312-1.3516-0.070312-1.4062-0.085938-1.4805-0.09375-1.4141 0.17188-1.6992 0.49219-1.7148 0.42188-1.3281 0.66406-1.125 0.16797-1.2734 0.51562-1.043 1.3633-0.85938 1.3828-1.4688 1.1406-0.60156 1.3438 0.25781 1.6289-0.11719 1.8281-0.95703 1.6719-0.33984 1.0859-0.54297 2.2578-0.11719 3.0156-0.22656 4.8008-1.4727 2.4609-0.13672 1.3438 0.47266 1.6133-0.40234 1.4141-0.91016-0.52734-1.1875-0.90234-0.63672-1.1172-0.58203-1.2461-1.1797-1.0234-1.2969-0.73047-1.3281-0.30078-0.97266 0.28125-0.80469 0.875-1.0859 0.16797-1.4648-0.52344-0.6875-0.89062-0.61719-1.0703-1.0703 0.33594-1.0781 0.26953h-1.2305l-0.64062 0.95703-1.0234 1.0234-1.0078 0.24219-2.7695 0.98047-2.7812 0.42578-1.2422-0.61328-1.0352-1.2148-1.207-0.070312-1.3008 0.52734-1.2656-0.085937-1.8359-0.78516-2.1992-0.54297-1.1211-0.14844-1.3008-0.30859-1.5078 0.46484-1.1719 0.30078-1.0859-0.13672-1.1992 0.37891-1.1719-0.12891-0.90234-0.75-1.8203-1.457-1.0781-0.45703-1.3984-1.3711-1.168-1.5781-0.74219-1.2031-0.60938-1.2773-0.26953-1.0273-0.082032-1.6406 0.97656-2.4805-0.082031-1.6445-0.8125-1.6602-0.84766-1.5117-1.3438-1.8281-0.84375-0.73828-0.96484-0.75391-1.1562-0.82422-0.96484-0.64844-1.2188-1.2422-1.7266-0.46875-1.2656-0.125-1.1094-0.078125-1.4727 0.23828-1.2344 0.75781-1.9453 0.83984-1.8047 0.96484-0.75 0.66797-1.0977 0.87891-1.3203 1.3359-1.6602 0.75781-1.4453 0.28516-1.293 0.44141-1.9062-0.019532-2.3164 0.33594-1.4922 0.30469-1.7422 0.87109-1.8906 0.36719-1.5781-0.003907-1.1562-0.20703-1.1328-0.38281-1.3438 1.2422-1.5898 0.87891-1.1328 0.31641-1.8086 0.042968-2.3477-0.86719-0.95312-0.41016-1.3828-0.12891-0.91016-0.59766-1.0938-1.4727-1.5352-1.6133-0.94141-1.9336-0.16406-1.1211-0.26953-0.98828-0.45703-1.3359-0.76562-0.6875-1.6094-0.20703-1.0391 0.023438-1.0312 0.15625-1.2227 0.015625-1.1445-0.19531-1.2656-0.03125-1.3203-0.62891-1.5703-0.41016-1.1016 0.097656-1.1914 0.3125-1.9258 0.33594-1.2539-0.14844-0.99609-0.57031-0.80859-0.62109-0.94531-0.71875-1.0938-0.19141-0.98047 0.42969-1.2266 0.5-1.0586-0.34375-1.2344-0.89844-1.4688-1.2188-0.96484-0.33984-2.4922 0.51953-1.7148 0.46484-1.1289-0.42188-0.42578-1.3672-1.3906-0.76172-1.6289-0.074218-2.0195 0.42188-1.2617 0.17578-1.6602 0.28516-1.0234 0.14453-1.4453 0.046875-1.8281 0.10156-1.4844-0.82422-2.0039-0.875-1.4609-0.24219-1.1875-0.33203-2.0234-0.67969-0.97266-0.33984-1.5703-1.0078-0.92188-1.7109-0.52344-1.1836-0.71484-1.8359-1.2539-3.207-0.44531-1.1289-0.72656-1.6602-0.5-1.1484-0.5625-0.89844-0.58203-1.5352-0.36328-1.1094-0.77734-1.3438-0.71094-0.87109-0.94922-1.0625-1.2031-1.2227-0.61328-0.80859-0.66406-0.78906-1.3242-1.0469 0.007812-1.875 0.55859-1.4219 0.26562-1.6641 0.070313-2.8398 0.070312-1.2383-0.24219-1.3555-0.98047-2.6875-0.57031-1.1094-2.8203-2.2969-1.8906-1.8086-0.73438-2.8789-1.0703-0.51562-0.98047 0.27344-1.3359-0.15625-1.3438 0.27734-1.5703 0.24219-1.9922-0.027344 1.4336-0.71484 0.98047-0.88672 1.7656-2.0547 1.0078-1.1328 0.66406-0.75-1.2031-0.33594-1.5273-0.44531-1.2344-0.35938-1.4922-1.1836 0.90625-1.2617 1.5742-0.66406 1.0273-0.79688 1.0781-0.90234 0.40234-1.207 0.24609-1.0898-0.47266-1.0469-0.66016-0.80859-0.20703-1.0273 1.2578-0.42578 0.98828-1.0625 0.73047-1.1641 0.68359-1.2422 0.50391-1.543 1.2539-1.0625 0.78516-0.75781 0.42969-1.5391 0.41797-1.3945 0.27734-1.0117 0.36719-1.0352 0.41406-1.0781 0.64453-1.6094 0.52734-1.5625 0.62109-1.2891 1.1172-1.625 0.97266-1.2148 0.78516-1.6328 0.52344-1.0625 0.31641-0.96484 0.92188-5.1992 0.98438-3.8438-0.23047-2.1562-0.48828-1.0312 1.2031-1.6406 1.5664-1.8984 0.47266-1.168 1.0938-0.74219 1.3281-0.375 1.4805-0.52344 1.6484-0.74609 0.94531-0.65234 1.3555-1.8164 1.0352-1.3555 0.78125-1.4492 0.68359-1.0156 0.82812-0.96484 0.69531-0.96875 0.86328-0.60547 1.1562-0.089844 0.90625-0.60547 1.0117-0.66406 0.66016-0.95312 0.64844-0.76562 1.0664-0.76172 0.46875-1.0312-0.21094-1.4648-0.19531-1.0078-0.25-1.0547-0.71484-0.86719-0.49609-1.2344-0.46094-1.1016-1.2695-1.418-1.5039-0.96484-1.4883-0.75781-1.168-0.46484 0.55469-1.25 0.76953-0.94531 0.67188-0.89453 0.70703-1.0273 1.2695-1.6211 1.2695-1.2422 0.63281-1.4414 0.074219-1.4375v-1.1445l1.0938-0.89062 1.457-1.1016 1.2227-0.40234 1.4727-0.68359 0.84375-0.81641 0.83203-1.8164 0.54297-1.1914 0.71875-0.93359 1.1562-1.082 0.98047-0.60156 0.8125-0.95312 0.16016-1.0664 0.125-1.125 0.88281-0.80469 1.0273-0.73438 0.86328-0.57812 1.043-0.38281 1.0391-0.28906 1.0781-1.1523 0.71875-1.3203 0.63281-1.6992 1.0117-1.2852 0.91016-1.1484 0.68359-0.83594 0.69531-2.1328 0.31641-1.4492 0.066407-1.1172 0.82812-0.64844 1.7969-0.097656 1.543 0.0625 1.6094-0.94141 0.64453-0.92188z" fill="#ccc" fill-rule="evenodd"/>
<path d="m249.41 149.16 0.51953 0.15625 1.3086 0.44141 0.89453 0.50781 0.98828 0.55078 0.46094 1.3086-0.46875 1.2344-0.625 0.82031-1.0195 1.8984-0.18359 1.1992 0.85156 1.1289 0.54297 1.082 1.2852 1.418 1.0312 1.5625 0.41016 1.6562 0.49219 1.0703 1.168 0.42188 0.76562 0.81641 0.94922 1.7305 0.6875 1.3828 1.1172 1.0078 1.7656-0.33594 1.0195-0.44531 0.50781 1.1289-0.25391 1.7773-0.15625 1.6133 0.33594 1.2969 0.27734 0.96094 1.3203 0.89844 1.0703 0.46875 1.5 1.1445 1.2383 0.88672 1.1641 0.91406 1.2305 0.71484 0.98828 0.75 1.6055 0.27734 2.0039-0.023438 2.2891-0.32812 1.2344-0.21484 1.3672-0.20703 2.1484-0.42578 1.4375-0.47266 1.7344-0.33594h1.1289l2.1641-0.30859 1.2031 0.03125 1.2422 0.24219 2.1055-0.09375 1.2383 1 2.2852 0.46484 1.2852 0.25781 1.5938-0.23047 1.8281 0.17188 2.7383-0.17188 1.1836 0.050782 1.293 0.41406 1.4453 0.64453 1.6211 0.5625 1.043 0.54297 0.74219 1.3789 0.25 0.98047 0.28516 1.2344 0.60547 0.94922 0.92188-0.5 1.0781 0.003906 1.082-0.45312 1.2539 0.36328 1.0234 0.17188 0.74219 0.86719 1.0742 0.15234 1.1992-0.44531 1.0703-0.47266 0.99609-0.15234 1.2422 0.59375 0.98047 0.50391 1.0938 0.26953 0.70312 0.76953 0.93359-0.63672 1.0117-0.058594 1.1992-0.11719 0.46875 1.125 0.019531 1.5703-0.18359 1.3242-0.22656 0.98438 0.6875 1.1484 1.0742 2.1133 0.93359 1.168-0.30078 2.1016-0.72656 1.4023-0.023438 1.0742 1.707 1.75 1.0977 1.9844 0.30078 1.6367 0.44531 1.4688 0.58203 0.84375 0.60938 1.2812 1.1914 1.2148 1.4688 0.70312 1.3789 1.2578 1.1992 1.1719 0.83203 1.2109 1.8438 1.168 1.543 1.0273 0.81641 0.84375-0.57812 1.0234-1.5273 1.1914-1.5625 0.65234-0.32031 1.1484-0.13672 1.668-0.67188 1.6484-1.1914 1.1914-0.76562 0.75-0.59766 2.4102 0.61719 2.9375 2.1641 2.5586 1.125 0.94922 1.4336 1.3281 1.168 0.76953 0.92969 1.1172 0.054687 2.5781 0.875 1.4336 0.86328 0.64844 0.054687 1.2305-0.14844 1.2656-0.011719 2.1836 0.41406 1.1172 2.1562 1.5312 1.6758 0.60156 1.9883 1.1719 3.3516 2.0586 1.8867 0.79688 1.0039 0.5625 0.11719 1.6484-0.16797 0.98828-0.27344 1.4453-0.035157 1.9375 0.16406 1.2891 0.14453 1.6016 0.71484 1.5977 0.85156 1.7305 0.74609 1.1367 1.4336 0.29688 1.1836-0.87109 1.0742-2.4336 0.89844-2.2734 0.97266-0.71094 1.2695 0.53906 1.4336 0.83984 2.0273 1.3203 1.1719 0.25781 2.1953-0.25391 1.4844-0.19531 1.4414-0.30078 1.3516 0.10938 1.0586 0.070312 1.9727 0.054688 1.2383 0.066406 2.043 0.48438 1.2344 0.24219 1.9141 0.27734 1.1523 0.26953 1.1406 0.49219 2.0312 0.46094 1.3555 0.12109 1.5-0.41016 2.4258-1.7109 1.2461-0.78125 0.82031-0.89453 1.0938-1.5938 0.84375-1.4297 1.0664-1.7148 1.4766-1.7188 0.79688-0.67578 1.6914-0.75 2.0078-0.94531 1.4492-0.68359 1.3008-0.55859 1.6953-0.33594 1.2109 0.019532 1.1719-0.35156 0.95312-0.8125 1.4922-0.48438 1.2734 0.25 1.2383 0.36719 2.5352 0.69922 2.582 0.1875 3.0781 0.39844 1.5664 0.21094 1.5664-0.039062 1.5703-0.32812 1.0469-0.12891h1.8711l1.6055 0.074218 2.3477 0.23047 1.6094-0.097656 1.1797-0.12109 1.4531-0.52734 1.1055-0.53516 1.625-0.6875 0.97656-0.30469 1.9453-0.34375 0.53125 1.5508 0.30078 1.0156 0.56641 2.8672-0.054687 1.5469 0.054687 1.6914 0.20703 2.2539 0.35156 2.2422 0.19141 1.5156 0.50781 2.3164 0.23047 1.0391 0.11328 1.6875-0.097656 1.6367-0.26172 1.6406-0.27734 2-0.37891 1.4844-0.039063 1.625-0.21094 1.3086 22.867 2.8984 4.9727 0.56641 10.094 1.1484-0.11328 2.125-0.40234 2.2852 0.32031 1.1367 0.15625 1.1797-0.22656 1.7109-0.40625 1.6758-0.70312 2.6445-1.4648 1.4102-1.2422 0.60156-2.4805 0.44922-1.4492 0.042969-1.4492-0.24219-1.6055-0.19531-1.7461-0.042969-1.3281-0.019531-1.2109-0.050782-1.6992-0.19531-1.3828-0.29688-1.1328-0.78906-1.9375-1.375-1.4727-0.90234-1.4727-1.207-1.6445-0.94531-1.1367 0.015625-0.74609 1.0078-0.64062 1.4062-1.1484 0.94141-1.4453 0.63281-1.0977 0.42188-1.0352 0.35938-1.3125 0.36328-1.207 1.082-0.64062 1.6992-0.5625 1.5234-1.125 0.49219-1.2109-0.10156-0.97266-0.35156-1.1133-0.10547-1.6836 0.039062-1.7422 0.125-1.1172 0.10547-1.3477 0.12891-1.3008 0.26953-1.4336 0.35156-2.2617 0.54297-1.4961 0.82422-1.1953 0.875-1.8281 0.85938-1.3477 0.85938-1.6133 0.46875-0.82422 1.8633-1.5938 2.418-0.96875 0.26953-1.2734 0.48438-1.3594 0.98828-1.3281 0.625-2.3672 0.21484-1.668 0.34375-1.6484 0.23047-1.4141 0.59375-1.1484 1.3086-1.5 1.1641-2.0508 1.2031-1.7461 0.40234-1.9258 0.054688-1.7266-0.078125-1.0703-0.11328-1.6406-0.42188-2.2461-0.12109-1.1016 0.035156-1.0352 0.45703-1.043 0.90234-1.1016 0.5625-1.5859 0.1875-1.4141 0.097656-1.5352-0.45703-1.9141 0.003906-1.4883 0.55469-1.8555 0.070312-1.3516-0.070312-1.4062-0.085938-1.4805-0.09375-1.4141 0.17188-1.6992 0.49219-1.7148 0.42188-1.3281 0.66406-1.125 0.16797-1.2734 0.51562-1.043 1.3633-0.85938 1.3828-1.4688 1.1406-0.60156 1.3438 0.25781 1.6289-0.11719 1.8281-0.95703 1.6719-0.33984 1.0859-0.54297 2.2578-0.11719 3.0156-0.22656 4.8008-1.4727 2.4609-0.13672 1.3438 0.47266 1.6133-0.40234 1.4141-0.91016-0.52734-1.1875-0.90234-0.63672-1.1172-0.58203-1.2461-1.1797-1.0234-1.2969-0.73047-1.3281-0.30078-0.97266 0.28125-0.80469 0.875-1.0859 0.16797-1.4648-0.52344-0.6875-0.89062-0.61719-1.0703-1.0703 0.33594-1.0781 0.26953h-1.2305l-0.64062 0.95703-1.0234 1.0234-1.0078 0.24219-2.7695 0.98047-2.7812 0.42578-1.2422-0.61328-1.0352-1.2148-1.207-0.070312-1.3008 0.52734-1.2656-0.085937-1.8359-0.78516-2.1992-0.54297-1.1211-0.14844-1.3008-0.30859-1.5078 0.46484-1.1719 0.30078-1.0859-0.13672-1.1992 0.37891-1.1719-0.12891-0.90234-0.75-1.8203-1.457-1.0781-0.45703-1.3984-1.3711-1.168-1.5781-0.74219-1.2031-0.60938-1.2773-0.26953-1.0273-0.082032-1.6406 0.97656-2.4805-0.082031-1.6445-0.8125-1.6602-0.84766-1.5117-1.3438-1.8281-0.84375-0.73828-0.96484-0.75391-1.1562-0.82422-0.96484-0.64844-1.2188-1.2422-1.7266-0.46875-1.2656-0.125-1.1094-0.078125-1.4727 0.23828-1.2344 0.75781-1.9453 0.83984-1.8047 0.96484-0.75 0.66797-1.0977 0.87891-1.3203 1.3359-1.6602 0.75781-1.4453 0.28516-1.293 0.44141-1.9062-0.019532-2.3164 0.33594-1.4922 0.30469-1.7422 0.87109-1.8906 0.36719-1.5781-0.003907-1.1562-0.20703-1.1328-0.38281-1.3438 1.2422-1.5898 0.87891-1.1328 0.31641-1.8086 0.042968-2.3477-0.86719-0.95312-0.41016-1.3828-0.12891-0.91016-0.59766-1.0938-1.4727-1.5352-1.6133-0.94141-1.9336-0.16406-1.1211-0.26953-0.98828-0.45703-1.3359-0.76562-0.6875-1.6094-0.20703-1.0391 0.023438-1.0312 0.15625-1.2227 0.015625-1.1445-0.19531-1.2656-0.03125-1.3203-0.62891-1.5703-0.41016-1.1016 0.097656-1.1914 0.3125-1.9258 0.33594-1.2539-0.14844-0.99609-0.57031-0.80859-0.62109-0.94531-0.71875-1.0938-0.19141-0.98047 0.42969-1.2266 0.5-1.0586-0.34375-1.2344-0.89844-1.4688-1.2188-0.96484-0.33984-2.4922 0.51953-1.7148 0.46484-1.1289-0.42188-0.42578-1.3672-1.3906-0.76172-1.6289-0.074218-2.0195 0.42188-1.2617 0.17578-1.6602 0.28516-1.0234 0.14453-1.4453 0.046875-1.8281 0.10156-1.4844-0.82422-2.0039-0.875-1.4609-0.24219-1.1875-0.33203-2.0234-0.67969-0.97266-0.33984-1.5703-1.0078-0.92188-1.7109-0.52344-1.1836-0.71484-1.8359-1.2539-3.207-0.44531-1.1289-0.72656-1.6602-0.5-1.1484-0.5625-0.89844-0.58203-1.5352-0.36328-1.1094-0.77734-1.3438-0.71094-0.87109-0.94922-1.0625-1.2031-1.2227-0.61328-0.80859-0.66406-0.78906-1.3242-1.0469 0.007812-1.875 0.55859-1.4219 0.26562-1.6641 0.070313-2.8398 0.070312-1.2383-0.24219-1.3555-0.98047-2.6875-0.57031-1.1094-2.8203-2.2969-1.8906-1.8086-0.73438-2.8789-1.0703-0.51562-0.98047 0.27344-1.3359-0.15625-1.3438 0.27734-1.5703 0.24219-1.9922-0.027344 1.4336-0.71484 0.98047-0.88672 1.7656-2.0547 1.0078-1.1328 0.66406-0.75-1.2031-0.33594-1.5273-0.44531-1.2344-0.35938-1.4922-1.1836 0.90625-1.2617 1.5742-0.66406 1.0273-0.79688 1.0781-0.90234 0.40234-1.207 0.24609-1.0898-0.47266-1.0469-0.66016-0.80859-0.20703-1.0273 1.2578-0.42578 0.98828-1.0625 0.73047-1.1641 0.68359-1.2422 0.50391-1.543 1.2539-1.0625 0.78516-0.75781 0.42969-1.5391 0.41797-1.3945 0.27734-1.0117 0.36719-1.0352 0.41406-1.0781 0.64453-1.6094 0.52734-1.5625 0.62109-1.2891 1.1172-1.625 0.97266-1.2148 0.78516-1.6328 0.52344-1.0625 0.31641-0.96484 0.92188-5.1992 0.98438-3.8438-0.23047-2.1562-0.48828-1.0312 1.2031-1.6406 1.5664-1.8984 0.47266-1.168 1.0938-0.74219 1.3281-0.375 1.4805-0.52344 1.6484-0.74609 0.94531-0.65234 1.3555-1.8164 1.0352-1.3555 0.78125-1.4492 0.68359-1.0156 0.82812-0.96484 0.69531-0.96875 0.86328-0.60547 1.1562-0.089844 0.90625-0.60547 1.0117-0.66406 0.66016-0.95312 0.64844-0.76562 1.0664-0.76172 0.46875-1.0312-0.21094-1.4648-0.19531-1.0078-0.25-1.0547-0.71484-0.86719-0.49609-1.2344-0.46094-1.1016-1.2695-1.418-1.5039-0.96484-1.4883-0.75781-1.168-0.46484 0.55469-1.25 0.76953-0.94531 0.67188-0.89453 0.70703-1.0273 1.2695-1.6211 1.2695-1.2422 0.63281-1.4414 0.074219-1.4375v-1.1445l1.0938-0.89062 1.457-1.1016 1.2227-0.40234 1.4727-0.68359 0.84375-0.81641 0.83203-1.8164 0.54297-1.1914 0.71875-0.93359 1.1562-1.082 0.98047-0.60156 0.8125-0.95312 0.16016-1.0664 0.125-1.125 0.88281-0.80469 1.0273-0.73438 0.86328-0.57812 1.043-0.38281 1.0391-0.28906 1.0781-1.1523 0.71875-1.3203 0.63281-1.6992 1.0117-1.2852 0.91016-1.1484 0.68359-0.83594 0.69531-2.1328 0.31641-1.4492 0.066407-1.1172 0.82812-0.64844 1.7969-0.097656 1.543 0.0625 1.6094-0.94141 0.64453-0.92188 0.41406 0.17969" fill="none" stroke="#fff" stroke-linecap="round" stroke-linejoin="round" stroke-miterlimit="10" stroke-width="2"/>
<path d="m212.95 189.95 0.23047 0.046875 1.0508 0.12891 1.168 0.46484 1.4883 0.75781 0.91406 0.65234 1.6211 1.3984 0.69922 1.4336 0.38281 1.1055 0.82812 0.99609 0.25 1.0547 0.19531 1.0078 0.21094 1.1797-0.28125 1.0352-0.69922 0.76172-0.93359 0.53516-0.48047 0.91016-0.79297 0.77344-0.94922 0.65625-1.625 0.46484-1.0195 0.625-0.69531 0.96875-0.82812 0.96484-0.68359 1.0156-0.78125 1.4492-1.0352 1.3555-0.85156 1.125-0.71484 1.0234-1.6289 0.63281-2.2344 0.95703-1.3281 0.375-1.0938 0.74219-0.47266 1.168-1.1484 1.3203-1.6914 1.7539 0.55859 1.4961 0.27734 1.5195-1 4.3477-0.29297 1.6055 1.8945 0.027344 1.8672 0.57812 0.28516 1.2148-1.0469 1.7109-0.84375 1-1.0547 0.94531-1.3047 0.69141-0.80078 0.66016-1.0859 0.13672-0.61328 0.97656-1.2617 1.6445-0.75391 1.2617-0.50781 1.3594-0.62891 1.6875-0.72656 1.8711-0.36719 1.0352-0.27734 1.0117-0.41797 1.3945-0.42969 1.5391-0.78516 0.75781-1.1406 0.70703-0.4375 1.3438-0.92578 0.57422-1.2734 0.52344-1.1875-0.19141-1.3359-0.27344-1.8125-0.47656-2.1602-0.35156-0.87109-0.70703-1.0195 0.1875-1.1875 0.16406-1.6445-0.51562-1.3477 0.23438-1.457-0.46875-1.2227-0.32422-1.5664-0.5-1.3047-0.12109-0.875-0.63672 1.5312-0.17969 1.875-0.046875 1.4531 0.023437 0.8125-1.5039-0.32031-0.98828-0.80469-0.62109-0.98047-0.60547-0.21875-1.0625-0.39844-1.0938-0.44141-1.0039-0.41797-0.96094-0.33594-1-1.0078 0.125-0.79297 0.64062-1.0117 0.24609-1.3008 0.22266-1.0117 0.33984-1.0898 0.15234-1.207 0.18359-1.207 0.19922-1.0742 0.17578-1.3945 0.20703-1.0039 0.15234-0.94922 0.73438-0.76953 0.95312-1.3672-0.054688-0.59375-0.80859-0.32422-0.96875-0.38281-1.3438-0.33594-0.94531-0.27344-1.0273-0.33984-1.2812 1.2266-0.28125-0.089844-1.4023-0.019531-1.1836-0.039063-2.0078-0.03125-1.0547v-1.0273l-0.42969-0.90625 0.36719-0.98047-0.74609-0.8125-1.0195-0.55469-0.97266-0.375 0.054688-3.8789 0.54688-1.0977 2.332 0.66406 1.4727 0.29688 1.5977 0.027344 1.5977-0.72266 0.97656-1.1719 0.79297-0.92969 1.2227-1.1758-0.80078-0.76172-0.82422-1.0195 0.98047-0.81641 1.6523-1.3711 1.1055-0.24219 1.543-2.043 0.87891-0.56641 1.7617-1.1406 0.79297-0.73828 1.9336-1.3125 1.625-1.293 1.6641-1.4258 1.0469-1.2383 1.2109-0.57812 1.3086-0.11719 1.0742-0.097656 0.97656-0.33203 1.6211-1.0273 1.0781-1.5391 0.94141-0.64453 1.0664-0.35938 1.1523-0.89453 0.74609-1.0977 2.3359-0.38281 1.2773-0.50781 1.4805-0.73047 1.1289-0.85938 0.39062-1.2773 0.39844-1.4805 0.91016-1.9102 0.71094-0.99219 0.82031-0.9375 1.4258-0.17578 1.3594 0.12109 1.2031-0.44922 2.9648-0.78516 1.6797 0.17578 2.0703 0.097657 1.4648-0.10156 1.582-0.11328 1.5039-0.19531 1.0234-0.30078 1.082 0.53516z" fill="#ccc" fill-rule="evenodd"/>
<path d="m212.95 189.95 0.23047 0.046875 1.0508 0.12891 1.168 0.46484 1.4883 0.75781 0.91406 0.65234 1.6211 1.3984 0.69922 1.4336 0.38281 1.1055 0.82812 0.99609 0.25 1.0547 0.19531 1.0078 0.21094 1.1797-0.28125 1.0352-0.69922 0.76172-0.93359 0.53516-0.48047 0.91016-0.79297 0.77344-0.94922 0.65625-1.625 0.46484-1.0195 0.625-0.69531 0.96875-0.82812 0.96484-0.68359 1.0156-0.78125 1.4492-1.0352 1.3555-0.85156 1.125-0.71484 1.0234-1.6289 0.63281-2.2344 0.95703-1.3281 0.375-1.0938 0.74219-0.47266 1.168-1.1484 1.3203-1.6914 1.7539 0.55859 1.4961 0.27734 1.5195-1 4.3477-0.29297 1.6055 1.8945 0.027344 1.8672 0.57812 0.28516 1.2148-1.0469 1.7109-0.84375 1-1.0547 0.94531-1.3047 0.69141-0.80078 0.66016-1.0859 0.13672-0.61328 0.97656-1.2617 1.6445-0.75391 1.2617-0.50781 1.3594-0.62891 1.6875-0.72656 1.8711-0.36719 1.0352-0.27734 1.0117-0.41797 1.3945-0.42969 1.5391-0.78516 0.75781-1.1406 0.70703-0.4375 1.3438-0.92578 0.57422-1.2734 0.52344-1.1875-0.19141-1.3359-0.27344-1.8125-0.47656-2.1602-0.35156-0.87109-0.70703-1.0195 0.1875-1.1875 0.16406-1.6445-0.51562-1.3477 0.23438-1.457-0.46875-1.2227-0.32422-1.5664-0.5-1.3047-0.12109-0.875-0.63672 1.5312-0.17969 1.875-0.046875 1.4531 0.023437 0.8125-1.5039-0.32031-0.98828-0.80469-0.62109-0.98047-0.60547-0.21875-1.0625-0.39844-1.0938-0.44141-1.0039-0.41797-0.96094-0.33594-1-1.0078 0.125-0.79297 0.64062-1.0117 0.24609-1.3008 0.22266-1.0117 0.33984-1.0898 0.15234-1.207 0.18359-1.207 0.19922-1.0742 0.17578-1.3945 0.20703-1.0039 0.15234-0.94922 0.73438-0.76953 0.95312-1.3672-0.054688-0.59375-0.80859-0.32422-0.96875-0.38281-1.3438-0.33594-0.94531-0.27344-1.0273-0.33984-1.2812 1.2266-0.28125-0.089844-1.4023-0.019531-1.1836-0.039063-2.0078-0.03125-1.0547v-1.0273l-0.42969-0.90625 0.36719-0.98047-0.74609-0.8125-1.0195-0.55469-0.97266-0.375 0.054688-3.8789 0.54688-1.0977 2.332 0.66406 1.4727 0.29688 1.5977 0.027344 1.5977-0.72266 0.97656-1.1719 0.79297-0.92969 1.2227-1.1758-0.80078-0.76172-0.82422-1.0195 0.98047-0.81641 1.6523-1.3711 1.1055-0.24219 1.543-2.043 0.87891-0.56641 1.7617-1.1406 0.79297-0.73828 1.9336-1.3125 1.625-1.293 1.6641-1.4258 1.0469-1.2383 1.2109-0.57812 1.3086-0.11719 1.0742-0.097656 0.97656-0.33203 1.6211-1.0273 1.0781-1.5391 0.94141-0.64453 1.0664-0.35938 1.1523-0.89453 0.74609-1.0977 2.3359-0.38281 1.2773-0.50781 1.4805-0.73047 1.1289-0.85938 0.39062-1.2773 0.39844-1.4805 0.91016-1.9102 0.71094-0.99219 0.82031-0.9375 1.4258-0.17578 1.3594 0.12109 1.2031-0.44922 2.9648-0.78516 1.6797 0.17578 2.0703 0.097657 1.4648-0.10156 1.582-0.11328 1.5039-0.19531 1.0234-0.30078 1.082 0.53516 0.51172 0.16016" fill="none" stroke="#fff" stroke-linecap="round" stroke-linejoin="round" stroke-miterlimit="10" stroke-width="2"/>
<path d="m165.41 242.84 0.17578-0.023437 1.2891-0.42578 1.0117-0.24609 0.79297-0.64062 1.0039-0.14062 0.33203 0.98828 0.42578 0.98828 0.41797 0.92969 0.36719 1.0078 0.039062 1.0781 0.90625 0.55859 1.125 0.72656 0.30859 1.0742-0.35938 1.0312-0.95312 0.48438-1.9141-0.023437-1.7383 0.14062-0.60156 0.91016-1.1602 0.58203-1.2578 0.94922-1.2148 0.47656h-1.3008l-1.0703 0.62891-1.0586-0.15625-2.4844 0.035156-1.3672-0.35547-1.8984 0.12109-2.043-1.2227 1.0898 0.21094 1.0508-0.023437 0.43359-0.90234-0.22656-1.4492-0.03125-1.0156-0.51172-1.2461-0.29688-1.2852 0.39453-0.9375 1.1133-0.59766 0.85938-0.55859 1.2422-0.59766 1.0781-0.14844 1.5469-0.25781 1.0977-0.17969 1.3008-0.19922 1.2383-0.17578z" fill="#ccc" fill-rule="evenodd"/>
<path d="m165.41 242.84 0.17578-0.023437 1.2891-0.42578 1.0117-0.24609 0.79297-0.64062 1.0039-0.14062 0.33203 0.98828 0.42578 0.98828 0.41797 0.92969 0.36719 1.0078 0.039062 1.0781 0.90625 0.55859 1.125 0.72656 0.30859 1.0742-0.35938 1.0312-0.95312 0.48438-1.9141-0.023437-1.7383 0.14062-0.60156 0.91016-1.1602 0.58203-1.2578 0.94922-1.2148 0.47656h-1.3008l-1.0703 0.62891-1.0586-0.15625-2.4844 0.035156-1.3672-0.35547-1.8984 0.12109-2.043-1.2227 1.0898 0.21094 1.0508-0.023437 0.43359-0.90234-0.22656-1.4492-0.03125-1.0156-0.51172-1.2461-0.29688-1.2852 0.39453-0.9375 1.1133-0.59766 0.85938-0.55859 1.2422-0.59766 1.0781-0.14844 1.5469-0.25781 1.0977-0.17969 1.3008-0.19922 1.2383-0.17578 0.84766-0.11328" fill="none" stroke="#fff" stroke-linecap="round" stroke-linejoin="round" stroke-miterlimit="10" stroke-width="2"/>
<path d="m140.71 213.02 0.92578 0.58203 1.1094 0.47266 0.91016-0.4375 1.0352 0.16406 1.8555 1.3984 0.92188 1.2578 0.80469 1.418 0.89844 1.5781 0.85156 1.4961 0.44922 0.99609 0.41406 1.2344-0.22656 1.1641-0.16406 4.3555 1.1836 0.45703 1.7734 0.58594-0.59766 0.89453 0.007813 1.0547 0.42969 0.92188 0.011719 1.0273 0.027344 1.0078 0.023437 1.125 0.019531 1.0078 0.023438 1.2656-0.34766 1.0312-0.64844 0.85156 0.3125 1.082 0.28516 0.97266 0.42188 1.3125 0.31641 1.0508 0.39062 1.1367 0.5625 1.125 0.29688 1.2852 0.51172 1.2461 0.03125 1.0156 0.22656 1.4492-0.43359 0.90234-1.0508 0.023437-1.0898-0.21094-1.3438 0.042968-3.6211-0.15625-2.8672-1.7305-1.332-0.58984-1.6602-0.48047-1.2656-0.035156-2.4766-0.67188-4.6875-0.47266-1.0586 0.31641-2.4844-0.042969-0.79297-1.457-1.457-0.074219-1.2148 0.12109-1.3438-0.27734-1.1016-0.59375-1.4492-0.15625-1.5781-0.82812-0.15625-1.1562 0.32422-0.98828-2.1992-1.6211-4.0469-1.6016-1.9023-1.2539 0.67578-1.5-1.6992-1.9141-0.60547 1.1719-2.1445-1.1719 0.59375-1.4414 0.39062-1.793 0.98438-0.74219-4.2305-5.5195 6.6953-5.2969 0.81641-0.85938 0.76562-0.65234 1.1797-1.0078 0.83594-0.71875 1.2617-1.0898 0.90234-0.77344 1.2383-1.0703 0.91016 1.0703 1.5039 1.8477 3.5859-3.1562 1.8711-0.16016 1.8789-0.69922 1.4336 0.027344 1.6953-0.48828 1.1406-0.73047 0.8125-0.61328 0.63281-0.88672 1.582 0.76562 0.84375 0.64453 0.96484 0.92969z" fill="#ccc" fill-rule="evenodd"/>
<path d="m140.71 213.02 0.92578 0.58203 1.1094 0.47266 0.91016-0.4375 1.0352 0.16406 1.8555 1.3984 0.92188 1.2578 0.80469 1.418 0.89844 1.5781 0.85156 1.4961 0.44922 0.99609 0.41406 1.2344-0.22656 1.1641-0.16406 4.3555 1.1836 0.45703 1.7734 0.58594-0.59766 0.89453 0.007813 1.0547 0.42969 0.92188 0.011719 1.0273 0.027344 1.0078 0.023437 1.125 0.019531 1.0078 0.023438 1.2656-0.34766 1.0312-0.64844 0.85156 0.3125 1.082 0.28516 0.97266 0.42188 1.3125 0.31641 1.0508 0.39062 1.1367 0.5625 1.125 0.29688 1.2852 0.51172 1.2461 0.03125 1.0156 0.22656 1.4492-0.43359 0.90234-1.0508 0.023437-1.0898-0.21094-1.3438 0.042968-3.6211-0.15625-2.8672-1.7305-1.332-0.58984-1.6602-0.48047-1.2656-0.035156-2.4766-0.67188-4.6875-0.47266-1.0586 0.31641-2.4844-0.042969-0.79297-1.457-1.457-0.074219-1.2148 0.12109-1.3438-0.27734-1.1016-0.59375-1.4492-0.15625-1.5781-0.82812-0.15625-1.1562 0.32422-0.98828-2.1992-1.6211-4.0469-1.6016-1.9023-1.2539 0.67578-1.5-1.6992-1.9141-0.60547 1.1719-2.1445-1.1719 0.59375-1.4414 0.39062-1.793 0.98438-0.74219-4.2305-5.5195 6.6953-5.2969 0.81641-0.85938 0.76562-0.65234 1.1797-1.0078 0.83594-0.71875 1.2617-1.0898 0.90234-0.77344 1.2383-1.0703 0.91016 1.0703 1.5039 1.8477 3.5859-3.1562 1.8711-0.16016 1.8789-0.69922 1.4336 0.027344 1.6953-0.48828 1.1406-0.73047 0.8125-0.61328 0.63281-0.88672 1.582 0.76562 0.84375 0.64453 0.96484 0.92969 0.72656 0.23438" fill="none" stroke="#fff" stroke-linecap="round" stroke-linejoin="round" stroke-miterlimit="10" stroke-width="2"/>
<path d="m165.41 242.84 0.17578-0.023437 1.2891-0.42578 1.0117-0.24609 0.79297-0.64062 1.0039-0.14062 0.33203 0.98828 0.42578 0.98828 0.41797 0.92969 0.36719 1.0078 0.039062 1.0781 0.90625 0.55859 1.125 0.72656 0.30859 1.0742-0.35938 1.0312-0.95312 0.48438-1.9141-0.023437-1.7383 0.14062-0.60156 0.91016-1.1602 0.58203-1.2578 0.94922-1.2148 0.47656h-1.3008l-1.0703 0.62891-1.0586-0.15625-2.4844 0.035156-1.3672-0.35547-1.8984 0.12109-2.043-1.2227 1.0898 0.21094 1.0508-0.023437 0.43359-0.90234-0.22656-1.4492-0.03125-1.0156-0.51172-1.2461-0.29688-1.2852 0.39453-0.9375 1.1133-0.59766 0.85938-0.55859 1.2422-0.59766 1.0781-0.14844 1.5469-0.25781 1.0977-0.17969 1.3008-0.19922 1.2383-0.17578z" fill="#0a5394" fill-rule="evenodd"/>
<path d="m165.41 242.84 0.17578-0.023437 1.2891-0.42578 1.0117-0.24609 0.79297-0.64062 1.0039-0.14062 0.33203 0.98828 0.42578 0.98828 0.41797 0.92969 0.36719 1.0078 0.039062 1.0781 0.90625 0.55859 1.125 0.72656 0.30859 1.0742-0.35938 1.0312-0.95312 0.48438-1.9141-0.023437-1.7383 0.14062-0.60156 0.91016-1.1602 0.58203-1.2578 0.94922-1.2148 0.47656h-1.3008l-1.0703 0.62891-1.0586-0.15625-2.4844 0.035156-1.3672-0.35547-1.8984 0.12109-2.043-1.2227 1.0898 0.21094 1.0508-0.023437 0.43359-0.90234-0.22656-1.4492-0.03125-1.0156-0.51172-1.2461-0.29688-1.2852 0.39453-0.9375 1.1133-0.59766 0.85938-0.55859 1.2422-0.59766 1.0781-0.14844 1.5469-0.25781 1.0977-0.17969 1.3008-0.19922 1.2383-0.17578 0.84766-0.11328" fill="none" stroke="#fff" stroke-linecap="round" stroke-linejoin="round" stroke-miterlimit="10"/>
<path d="m168.12 248.42c0 3.5898-2.9102 6.5-6.5 6.5s-6.5-2.9102-6.5-6.5 2.9102-6.5 6.5-6.5 6.5 2.9102 6.5 6.5" fill="#28c028" fill-rule="evenodd" stroke="#000" stroke-linecap="round" stroke-linejoin="round" stroke-miterlimit="10"/>
<path d="m23.172 219.42v-16.469h11.281v2.7969h-7.9688v3.8906h6.875v2.7812h-6.875v7zm14.109 0v-16.328h3.3281v13.547h8.2656v2.7812zm13.281-8.125c0-1.6758 0.25-3.0859 0.75-4.2344 0.375-0.83203 0.88281-1.582 1.5312-2.25 0.64453-0.66406 1.3516-1.1602 2.125-1.4844 1.0312-0.4375 2.2188-0.65625 3.5625-0.65625 2.4141 0 4.3516 0.75781 5.8125 2.2656 1.457 1.5 2.1875 3.5938 2.1875 6.2812 0 2.6562-0.72656 4.7344-2.1719 6.2344-1.4375 1.5-3.3711 2.25-5.7969 2.25-2.4492 0-4.3984-0.74219-5.8438-2.2344-1.4375-1.5-2.1562-3.5547-2.1562-6.1719zm3.4219-0.125c0 1.8672 0.42969 3.2812 1.2969 4.25 0.86328 0.96094 1.957 1.4375 3.2812 1.4375 1.3203 0 2.4062-0.47266 3.25-1.4219 0.85156-0.95703 1.2812-2.3906 1.2812-4.2969 0-1.8945-0.41797-3.3047-1.25-4.2344-0.82422-0.92578-1.918-1.3906-3.2812-1.3906-1.375 0-2.4844 0.47656-3.3281 1.4219-0.83594 0.9375-1.25 2.3516-1.25 4.2344zm15.156 8.25v-16.469h7c1.7578 0 3.0352 0.15234 3.8281 0.45312 0.80078 0.29297 1.4414 0.82031 1.9219 1.5781 0.47656 0.75 0.71875 1.6172 0.71875 2.5938 0 1.2305-0.36719 2.25-1.0938 3.0625-0.73047 0.80469-1.8203 1.3086-3.2656 1.5156 0.71875 0.41797 1.3125 0.88281 1.7812 1.3906 0.46875 0.5 1.0977 1.3867 1.8906 2.6562l2.0156 3.2188h-3.9688l-2.4062-3.5781c-0.85547-1.2812-1.4375-2.0859-1.75-2.4219-0.3125-0.33203-0.64844-0.5625-1-0.6875-0.35547-0.125-0.91406-0.1875-1.6719-0.1875h-0.67188v6.875zm3.3281-9.5h2.4531c1.5938 0 2.5859-0.066406 2.9844-0.20312 0.39453-0.13281 0.70312-0.36328 0.92188-0.6875 0.22656-0.33203 0.34375-0.75 0.34375-1.25 0-0.55078-0.14844-0.99219-0.4375-1.3281-0.29297-0.34375-0.71094-0.5625-1.25-0.65625-0.27344-0.03125-1.0781-0.046875-2.4219-0.046875h-2.5938zm13.266 9.5v-16.469h12.203v2.7969h-8.875v3.6406h8.2656v2.7812h-8.2656v4.4688h9.2031v2.7812zm15.375 0v-16.469h3.2344l6.75 11v-11h3.0781v16.469h-3.3281l-6.6406-10.734v10.734zm27.109-6.0469 3.2344 1.0156c-0.5 1.793-1.3281 3.125-2.4844 4-1.1484 0.875-2.6016 1.3125-4.3594 1.3125-2.1875 0-3.9844-0.74219-5.3906-2.2344-1.4062-1.5-2.1094-3.5469-2.1094-6.1406 0-2.7383 0.70312-4.8633 2.1094-6.375 1.4141-1.5195 3.2812-2.2812 5.5938-2.2812 2.0078 0 3.6445 0.60156 4.9062 1.7969 0.75 0.69922 1.3125 1.7109 1.6875 3.0312l-3.2969 0.78125c-0.19922-0.85156-0.60547-1.5234-1.2188-2.0156-0.61719-0.5-1.3672-0.75-2.25-0.75-1.2188 0-2.2109 0.4375-2.9688 1.3125-0.76172 0.875-1.1406 2.2969-1.1406 4.2656 0 2.0742 0.375 3.5547 1.125 4.4375 0.75 0.88672 1.7227 1.3281 2.9219 1.3281 0.88281 0 1.6445-0.28125 2.2812-0.84375 0.63281-0.5625 1.0859-1.4414 1.3594-2.6406zm5.9844 6.0469v-16.469h3.3125v16.469zm21.328 0h-3.6094l-1.4375-3.7344h-6.5781l-1.3594 3.7344h-3.5312l6.4062-16.469h3.5156zm-6.1094-6.5156-2.2812-6.1094-2.2188 6.1094zm-126.3 13.047h6.0781c1.375 0 2.4219 0.10547 3.1406 0.3125 0.95703 0.29297 1.7812 0.80469 2.4688 1.5312 0.69531 0.71875 1.2227 1.6055 1.5781 2.6562 0.36328 1.0547 0.54688 2.3516 0.54688 3.8906 0 1.3555-0.17188 2.5234-0.51562 3.5-0.40625 1.1992-0.99219 2.1719-1.75 2.9219-0.58594 0.5625-1.3672 1-2.3438 1.3125-0.73047 0.23047-1.7109 0.34375-2.9375 0.34375h-6.2656zm3.3281 2.7969v10.891h2.4844c0.92578 0 1.5977-0.050781 2.0156-0.15625 0.53125-0.13281 0.97266-0.35938 1.3281-0.67188 0.36328-0.32031 0.65625-0.85156 0.875-1.5938 0.22656-0.73828 0.34375-1.7422 0.34375-3.0156 0-1.2695-0.11719-2.2422-0.34375-2.9219-0.21875-0.6875-0.53125-1.2188-0.9375-1.5938-0.40625-0.38281-0.92188-0.64453-1.5469-0.78125-0.46094-0.10156-1.3672-0.15625-2.7188-0.15625zm13.297 13.672v-16.469h12.203v2.7969h-8.875v3.6406h8.2656v2.7812h-8.2656v4.4688h9.2031v2.7812zm21.688 0v-16.469h4.9844l2.9844 11.234 2.9531-11.234h4.9844v16.469h-3.0938v-12.953l-3.2656 12.953h-3.2031l-3.25-12.953v12.953zm18.531-8.125c0-1.6758 0.25-3.0859 0.75-4.2344 0.375-0.83203 0.88281-1.582 1.5312-2.25 0.64453-0.66406 1.3516-1.1602 2.125-1.4844 1.0312-0.4375 2.2188-0.65625 3.5625-0.65625 2.4141 0 4.3516 0.75781 5.8125 2.2656 1.457 1.5 2.1875 3.5938 2.1875 6.2812 0 2.6562-0.72656 4.7344-2.1719 6.2344-1.4375 1.5-3.3711 2.25-5.7969 2.25-2.4492 0-4.3984-0.74219-5.8438-2.2344-1.4375-1.5-2.1562-3.5547-2.1562-6.1719zm3.4219-0.125c0 1.8672 0.42969 3.2812 1.2969 4.25 0.86328 0.96094 1.957 1.4375 3.2812 1.4375 1.3203 0 2.4062-0.47266 3.25-1.4219 0.85156-0.95703 1.2812-2.3906 1.2812-4.2969 0-1.8945-0.41797-3.3047-1.25-4.2344-0.82422-0.92578-1.918-1.3906-3.2812-1.3906-1.375 0-2.4844 0.47656-3.3281 1.4219-0.83594 0.9375-1.25 2.3516-1.25 4.2344zm15.156 8.25v-16.469h7c1.7578 0 3.0352 0.15234 3.8281 0.45312 0.80078 0.29297 1.4414 0.82031 1.9219 1.5781 0.47656 0.75 0.71875 1.6172 0.71875 2.5938 0 1.2305-0.36719 2.25-1.0938 3.0625-0.73047 0.80469-1.8203 1.3086-3.2656 1.5156 0.71875 0.41797 1.3125 0.88281 1.7812 1.3906 0.46875 0.5 1.0977 1.3867 1.8906 2.6562l2.0156 3.2188h-3.9688l-2.4062-3.5781c-0.85547-1.2812-1.4375-2.0859-1.75-2.4219-0.3125-0.33203-0.64844-0.5625-1-0.6875-0.35547-0.125-0.91406-0.1875-1.6719-0.1875h-0.67188v6.875zm3.3281-9.5h2.4531c1.5938 0 2.5859-0.066406 2.9844-0.20312 0.39453-0.13281 0.70312-0.36328 0.92188-0.6875 0.22656-0.33203 0.34375-0.75 0.34375-1.25 0-0.55078-0.14844-0.99219-0.4375-1.3281-0.29297-0.34375-0.71094-0.5625-1.25-0.65625-0.27344-0.03125-1.0781-0.046875-2.4219-0.046875h-2.5938zm28.109 9.5h-3.6094l-1.4375-3.7344h-6.5781l-1.3594 3.7344h-3.5312l6.4062-16.469h3.5156zm-6.1094-6.5156-2.2812-6.1094-2.2188 6.1094zm0 0" fill="none" stroke="#fff" stroke-linecap="round" stroke-linejoin="round" stroke-miterlimit="10" stroke-width="2"/>
<path d="m23.172 219.42v-16.469h11.281v2.7969h-7.9688v3.8906h6.875v2.7812h-6.875v7zm14.109 0v-16.328h3.3281v13.547h8.2656v2.7812zm13.281-8.125c0-1.6758 0.25-3.0859 0.75-4.2344 0.375-0.83203 0.88281-1.582 1.5312-2.25 0.64453-0.66406 1.3516-1.1602 2.125-1.4844 1.0312-0.4375 2.2188-0.65625 3.5625-0.65625 2.4141 0 4.3516 0.75781 5.8125 2.2656 1.457 1.5 2.1875 3.5938 2.1875 6.2812 0 2.6562-0.72656 4.7344-2.1719 6.2344-1.4375 1.5-3.3711 2.25-5.7969 2.25-2.4492 0-4.3984-0.74219-5.8438-2.2344-1.4375-1.5-2.1562-3.5547-2.1562-6.1719zm3.4219-0.125c0 1.8672 0.42969 3.2812 1.2969 4.25 0.86328 0.96094 1.957 1.4375 3.2812 1.4375 1.3203 0 2.4062-0.47266 3.25-1.4219 0.85156-0.95703 1.2812-2.3906 1.2812-4.2969 0-1.8945-0.41797-3.3047-1.25-4.2344-0.82422-0.92578-1.918-1.3906-3.2812-1.3906-1.375 0-2.4844 0.47656-3.3281 1.4219-0.83594 0.9375-1.25 2.3516-1.25 4.2344zm15.156 8.25v-16.469h7c1.7578 0 3.0352 0.15234 3.8281 0.45312 0.80078 0.29297 1.4414 0.82031 1.9219 1.5781 0.47656 0.75 0.71875 1.6172 0.71875 2.5938 0 1.2305-0.36719 2.25-1.0938 3.0625-0.73047 0.80469-1.8203 1.3086-3.2656 1.5156 0.71875 0.41797 1.3125 0.88281 1.7812 1.3906 0.46875 0.5 1.0977 1.3867 1.8906 2.6562l2.0156 3.2188h-3.9688l-2.4062-3.5781c-0.85547-1.2812-1.4375-2.0859-1.75-2.4219-0.3125-0.33203-0.64844-0.5625-1-0.6875-0.35547-0.125-0.91406-0.1875-1.6719-0.1875h-0.67188v6.875zm3.3281-9.5h2.4531c1.5938 0 2.5859-0.066406 2.9844-0.20312 0.39453-0.13281 0.70312-0.36328 0.92188-0.6875 0.22656-0.33203 0.34375-0.75 0.34375-1.25 0-0.55078-0.14844-0.99219-0.4375-1.3281-0.29297-0.34375-0.71094-0.5625-1.25-0.65625-0.27344-0.03125-1.0781-0.046875-2.4219-0.046875h-2.5938zm13.266 9.5v-16.469h12.203v2.7969h-8.875v3.6406h8.2656v2.7812h-8.2656v4.4688h9.2031v2.7812zm15.375 0v-16.469h3.2344l6.75 11v-11h3.0781v16.469h-3.3281l-6.6406-10.734v10.734zm27.109-6.0469 3.2344 1.0156c-0.5 1.793-1.3281 3.125-2.4844 4-1.1484 0.875-2.6016 1.3125-4.3594 1.3125-2.1875 0-3.9844-0.74219-5.3906-2.2344-1.4062-1.5-2.1094-3.5469-2.1094-6.1406 0-2.7383 0.70312-4.8633 2.1094-6.375 1.4141-1.5195 3.2812-2.2812 5.5938-2.2812 2.0078 0 3.6445 0.60156 4.9062 1.7969 0.75 0.69922 1.3125 1.7109 1.6875 3.0312l-3.2969 0.78125c-0.19922-0.85156-0.60547-1.5234-1.2188-2.0156-0.61719-0.5-1.3672-0.75-2.25-0.75-1.2188 0-2.2109 0.4375-2.9688 1.3125-0.76172 0.875-1.1406 2.2969-1.1406 4.2656 0 2.0742 0.375 3.5547 1.125 4.4375 0.75 0.88672 1.7227 1.3281 2.9219 1.3281 0.88281 0 1.6445-0.28125 2.2812-0.84375 0.63281-0.5625 1.0859-1.4414 1.3594-2.6406zm5.9844 6.0469v-16.469h3.3125v16.469zm21.328 0h-3.6094l-1.4375-3.7344h-6.5781l-1.3594 3.7344h-3.5312l6.4062-16.469h3.5156zm-6.1094-6.5156-2.2812-6.1094-2.2188 6.1094zm-126.3 13.047h6.0781c1.375 0 2.4219 0.10547 3.1406 0.3125 0.95703 0.29297 1.7812 0.80469 2.4688 1.5312 0.69531 0.71875 1.2227 1.6055 1.5781 2.6562 0.36328 1.0547 0.54688 2.3516 0.54688 3.8906 0 1.3555-0.17188 2.5234-0.51562 3.5-0.40625 1.1992-0.99219 2.1719-1.75 2.9219-0.58594 0.5625-1.3672 1-2.3438 1.3125-0.73047 0.23047-1.7109 0.34375-2.9375 0.34375h-6.2656zm3.3281 2.7969v10.891h2.4844c0.92578 0 1.5977-0.050781 2.0156-0.15625 0.53125-0.13281 0.97266-0.35938 1.3281-0.67188 0.36328-0.32031 0.65625-0.85156 0.875-1.5938 0.22656-0.73828 0.34375-1.7422 0.34375-3.0156 0-1.2695-0.11719-2.2422-0.34375-2.9219-0.21875-0.6875-0.53125-1.2188-0.9375-1.5938-0.40625-0.38281-0.92188-0.64453-1.5469-0.78125-0.46094-0.10156-1.3672-0.15625-2.7188-0.15625zm13.297 13.672v-16.469h12.203v2.7969h-8.875v3.6406h8.2656v2.7812h-8.2656v4.4688h9.2031v2.7812zm21.688 0v-16.469h4.9844l2.9844 11.234 2.9531-11.234h4.9844v16.469h-3.0938v-12.953l-3.2656 12.953h-3.2031l-3.25-12.953v12.953zm18.531-8.125c0-1.6758 0.25-3.0859 0.75-4.2344 0.375-0.83203 0.88281-1.582 1.5312-2.25 0.64453-0.66406 1.3516-1.1602 2.125-1.4844 1.0312-0.4375 2.2188-0.65625 3.5625-0.65625 2.4141 0 4.3516 0.75781 5.8125 2.2656 1.457 1.5 2.1875 3.5938 2.1875 6.2812 0 2.6562-0.72656 4.7344-2.1719 6.2344-1.4375 1.5-3.3711 2.25-5.7969 2.25-2.4492 0-4.3984-0.74219-5.8438-2.2344-1.4375-1.5-2.1562-3.5547-2.1562-6.1719zm3.4219-0.125c0 1.8672 0.42969 3.2812 1.2969 4.25 0.86328 0.96094 1.957 1.4375 3.2812 1.4375 1.3203 0 2.4062-0.47266 3.25-1.4219 0.85156-0.95703 1.2812-2.3906 1.2812-4.2969 0-1.8945-0.41797-3.3047-1.25-4.2344-0.82422-0.92578-1.918-1.3906-3.2812-1.3906-1.375 0-2.4844 0.47656-3.3281 1.4219-0.83594 0.9375-1.25 2.3516-1.25 4.2344zm15.156 8.25v-16.469h7c1.7578 0 3.0352 0.15234 3.8281 0.45312 0.80078 0.29297 1.4414 0.82031 1.9219 1.5781 0.47656 0.75 0.71875 1.6172 0.71875 2.5938 0 1.2305-0.36719 2.25-1.0938 3.0625-0.73047 0.80469-1.8203 1.3086-3.2656 1.5156 0.71875 0.41797 1.3125 0.88281 1.7812 1.3906 0.46875 0.5 1.0977 1.3867 1.8906 2.6562l2.0156 3.2188h-3.9688l-2.4062-3.5781c-0.85547-1.2812-1.4375-2.0859-1.75-2.4219-0.3125-0.33203-0.64844-0.5625-1-0.6875-0.35547-0.125-0.91406-0.1875-1.6719-0.1875h-0.67188v6.875zm3.3281-9.5h2.4531c1.5938 0 2.5859-0.066406 2.9844-0.20312 0.39453-0.13281 0.70312-0.36328 0.92188-0.6875 0.22656-0.33203 0.34375-0.75 0.34375-1.25 0-0.55078-0.14844-0.99219-0.4375-1.3281-0.29297-0.34375-0.71094-0.5625-1.25-0.65625-0.27344-0.03125-1.0781-0.046875-2.4219-0.046875h-2.5938zm28.109 9.5h-3.6094l-1.4375-3.7344h-6.5781l-1.3594 3.7344h-3.5312l6.4062-16.469h3.5156zm-6.1094-6.5156-2.2812-6.1094-2.2188 6.1094z" fill-rule="evenodd"/>
</g>
</svg>
