<?xml version="1.0" encoding="UTF-8"?>
<svg width="500pt" height="465pt" version="1.1" viewBox="0 0 500 465" xmlns="http://www.w3.org/2000/svg">
<g id="a">
<rect width="500" height="465" fill="none"/>
<path d="m297.29 104.18 0.29688 0.21875 0.80469 0.59375 1.5 0.68359 0.71484 1.1484 0.86719 0.87109 1.25 0.55859 0.80469 1.3008-0.089844 1.1133-1.2305 0.96875-0.67188 1.1172-0.25781 1.0938-0.32422 1.043-0.33203 1.0234-0.51953 1.0352 0.27344 1.7852-0.015625 1.2734 0.53516 1.4727 0.40625 1.3164 1.7383 1.4297 1.5547 0.67188 0.94141 0.70312 1.332 0.85156 1.3984 0.85156 1.25 0.86719 0.71094 0.80078 0.875 1.1094 1.1094 1.4258 1.1992 0.80859 1.3633 0.57031 1.1094 0.39844 1.0508 0.51953 0.035156 1.3711 0.10547 1.6172 0.19922 1.9297-0.15234 1.125-0.16797 1.2891-0.09375 1.543-0.45312 2.0117-0.035156 2.1562-0.36328 1.1914-0.65234 1.3945-0.73047 0.91406-0.66797 0.91016-0.58594 1.4727 0.12891 1.3047 0.48828 0.91797 0.96094 1.4102 0.22266 1.1055 0.25 1.2422-0.15625 1.1016-0.18359 2.0234 0.84375 1.0938 1.043 0.94922 1.3711 0.86328 1.5547 0.19531 0.34766 1.2812 0.11719 1.7461 0.41406 2.1094 0.26562 1 0.82422 1.3594 1.1992 0.76953 0.84375 0.59375 0.066407 1-0.039063 1.3594-0.14844 1.1133 0.71875 1.5156 0.74219 1.1562 0.72266 1.0703 1.1719 0.80859 1.3164 1.0352 0.89062 0.47656 1.8984 0.27734 0.82422 0.90625 0.90625 1.7188 1.6367 0.91797 0.42578 1.2227 1.168 1.2852 1.1562 0.69141 0.71484 0.87891 0.94141 0.47266 0.84375 0.72266 0.14844 1.4102 0.42188 1.0703 0.48438 1.0625 1.0195 0.875 0.88672 1.1406 0.41797 0.97656 1.293 1.25 1.1758 1.0273 0.83203 0.91406 0.50781 0.89844 0.67578 1.1875 0.75 1.1094 1.375 1.1641 0.77734 0.81641 1.5508 0.20312 2.0703-0.71875 1.2695-0.22656 2.9609 0.36719 1.2617 0.19141 1.3438 0.21094 1.1758-0.11719 1.9062-0.085937 1.1445-0.03125 1.6836-0.24219 1.1055-0.082031 1.6836-0.35156 1.1211-0.22266 0.96875-0.40625 1.7734 0.21875 1.1367-0.71484 0.63281-0.88672 0.125 1.4414-0.96484 1.7812-0.52734 0.88281-0.34766 1.1445-0.97266 1.1289-0.42188 0.92578-0.29688 0.98828-0.16406 1.4336-0.59375 0.96094-0.58594 0.90234-0.32422 1.0703-0.54688 0.88672-0.41406 1.4141-0.39453 0.96875-0.74219 0.70703-0.32812 0.94922-0.35547 1.0117-0.37891 1.4922-1.2148 1.7344-1.0469 0.52344-1.2188-0.078125-1.3828 0.55078-1.2227 0.32812-1.7773 0.85156-1.832 1.0938-0.77734 0.63672-1.6289 1.8711-0.89453 0.84766-0.30469 1.2969-0.25391 1.5547-0.73438 0.72656-0.95703 0.81641-0.26172 1.3594-0.23828 1.2383-1.0547 1.9805-0.085938 2.4453 0.26953 0.99609 0.55469 1.6133-0.058594 1.1523-0.83984 0.71875-1.3672 0.29297-1.168 0.66016-0.76562 0.80859-0.62109 0.91406-1.0664 1.2891-0.96484 0.5-1.2695 0.10547-1.168-0.21484-1.3164-0.058594-1.2578 0.53516-1.1836 0.19141-1.5625-0.27344-1.0625-0.55469-1.4141-0.49609-0.92188-0.46875-1.5703-0.17969-0.98438 0.23047-2.9688 0.86328-1.082 0.097657-1.4453-0.42969-1.3984-1.1562-1.5898-0.73828-1.6641-0.035156-2.5273 0.074218-1.8672-0.31641-1.9102-0.050781-1.2422 0.30859-1.8281 0.54688-1.3633 0.72656-2.1016 0.40625-2.4375 1.582-0.96875 0.80469-0.69922 1.1211-0.98438 0.625-1.3438 0.28125-1.0742-0.11719-1.6953 0.34375-1.5117 0.23047-1.1719 0.32422-1.1289 0.058593-1.3633 0.066407-1.5312 0.30469-0.96875 0.30078-2.1719 1-2.1289 1.4609-0.99219 0.41797-1.0039 0.12891-1.5273-0.0625-1.2305 0.66406-0.98828 1.3945-1.4805 1.3828-1.7188 0.875-1.4883 0.52344-1.25 0.69531-0.85938 0.64844-1.3516 0.50781-1.3789-0.011719-1.75 0.32812-2.9297 0.67578-1.2852 0.48828-1.3984 0.53516-3.418 2.4648-1.0547 0.86328-2.2148 0.77734-1.4141 0.11328-2.7422-3.1055-1.5703-1.7734-3.1523-0.027344-11.062 0.55859-1.2852-0.875-1.1211-3.3672-0.95312-2.8438-0.082032-2.1211-0.24219-6.0156-0.18359-1.75 1.2422-2.9609h-3.2109l-2.4727-0.86719-1.293-1.7891-4.9453-5.375-2.4727-1.9258-1.9141-1.3555-0.4375-0.98828-0.42969-3.1484-1.918-5.3828-1.2969-2.5977-0.55859-2.2188-0.55469-1.3008-0.86328-0.92578-1.4258-1.418-1.8555-1.6133-1.0469-1.3594-1.0547-1.7266-0.55469-1.7891-0.79688-0.99609-1.4922-1.2344-1.1055-1.7266-2.5312-1.4844 4.2812-5.4492 1.4023-1.3438 1.3867-1.1328 1.543-1.1211 1.7852-1.1016 1.7852-1.125 1.0742-0.375 0.94141-0.39453 1.4023-1.3555 1.4062-1.1875 0.89062-0.98828 1.6289-1.3438 1.3398-1.0273 0.78906-0.74219 0.64453-0.77344 3.3555-1.9805 2.25-1.125 1.2891-0.76953 4.0508-2.4648 4.0781-1.9023 1-0.46484 4.8867-2.3164 1.5898-0.39062 1.707-0.35547 1.2266-0.085937 2.1484-0.84766 1.7852-0.51172 5.4336-1.4414 1.5586-0.41406 1.0312-0.68359 0.76172-0.93359 0.75391-1.2461 0.71875-0.82812 1.1953-1.8594 0.83203-1.5469 0.68359-1.9961 0.98438-1.5352 0.94922-1.1562 0.76953-1.3398 0.97656-1.0508 0.52344-1.4727 1.0469-1.9023 1.4688-1.5234 1.0156-1.5625 0.40625-0.99609 0.60938-0.80469 0.34375-0.97266 0.57812-1.8594 0.058593-1.4375-0.13281-1.5508 0.66016-1.2305 0.83594-2.7617 0.44922-1.5469 0.53906-2.0742 0.75781-1.543 0.21484-1.793 1.043-1.5391 1.0977-1.0078 1.0859-0.83594 1.0781-1.2656 0.96484-0.71094 1.375-0.84375 1.1094-1.5156 1.9297-1.7383 1.125-0.69922 0.82812-0.67578 2.2266-2.7227 0.70703-1.0312 1.1758-1.4961 0.77734-0.98438 0.4375-1.2695 0.56641-1.1758 0.23828-1.3711 0.22656-1.4375 0.76172-1.2383 0.41797-1.1758 0.77734-0.92969 0.26953-1.2227-0.70703-1.4805-0.39844-1.0156-0.30469-1.9375z" fill="#ccc" fill-rule="evenodd"/>
<path d="m297.29 104.18 0.29688 0.21875 0.80469 0.59375 1.5 0.68359 0.71484 1.1484 0.86719 0.87109 1.25 0.55859 0.80469 1.3008-0.089844 1.1133-1.2305 0.96875-0.67188 1.1172-0.25781 1.0938-0.32422 1.043-0.33203 1.0234-0.51953 1.0352 0.27344 1.7852-0.015625 1.2734 0.53516 1.4727 0.40625 1.3164 1.7383 1.4297 1.5547 0.67188 0.94141 0.70312 1.332 0.85156 1.3984 0.85156 1.25 0.86719 0.71094 0.80078 0.875 1.1094 1.1094 1.4258 1.1992 0.80859 1.3633 0.57031 1.1094 0.39844 1.0508 0.51953 0.035156 1.3711 0.10547 1.6172 0.19922 1.9297-0.15234 1.125-0.16797 1.2891-0.09375 1.543-0.45312 2.0117-0.035156 2.1562-0.36328 1.1914-0.65234 1.3945-0.73047 0.91406-0.66797 0.91016-0.58594 1.4727 0.12891 1.3047 0.48828 0.91797 0.96094 1.4102 0.22266 1.1055 0.25 1.2422-0.15625 1.1016-0.18359 2.0234 0.84375 1.0938 1.043 0.94922 1.3711 0.86328 1.5547 0.19531 0.34766 1.2812 0.11719 1.7461 0.41406 2.1094 0.26562 1 0.82422 1.3594 1.1992 0.76953 0.84375 0.59375 0.066407 1-0.039063 1.3594-0.14844 1.1133 0.71875 1.5156 0.74219 1.1562 0.72266 1.0703 1.1719 0.80859 1.3164 1.0352 0.89062 0.47656 1.8984 0.27734 0.82422 0.90625 0.90625 1.7188 1.6367 0.91797 0.42578 1.2227 1.168 1.2852 1.1562 0.69141 0.71484 0.87891 0.94141 0.47266 0.84375 0.72266 0.14844 1.4102 0.42188 1.0703 0.48438 1.0625 1.0195 0.875 0.88672 1.1406 0.41797 0.97656 1.293 1.25 1.1758 1.0273 0.83203 0.91406 0.50781 0.89844 0.67578 1.1875 0.75 1.1094 1.375 1.1641 0.77734 0.81641 1.5508 0.20312 2.0703-0.71875 1.2695-0.22656 2.9609 0.36719 1.2617 0.19141 1.3438 0.21094 1.1758-0.11719 1.9062-0.085937 1.1445-0.03125 1.6836-0.24219 1.1055-0.082031 1.6836-0.35156 1.1211-0.22266 0.96875-0.40625 1.7734 0.21875 1.1367-0.71484 0.63281-0.88672 0.125 1.4414-0.96484 1.7812-0.52734 0.88281-0.34766 1.1445-0.97266 1.1289-0.42188 0.92578-0.29688 0.98828-0.16406 1.4336-0.59375 0.96094-0.58594 0.90234-0.32422 1.0703-0.54688 0.88672-0.41406 1.4141-0.39453 0.96875-0.74219 0.70703-0.32812 0.94922-0.35547 1.0117-0.37891 1.4922-1.2148 1.7344-1.0469 0.52344-1.2188-0.078125-1.3828 0.55078-1.2227 0.32812-1.7773 0.85156-1.832 1.0938-0.77734 0.63672-1.6289 1.8711-0.89453 0.84766-0.30469 1.2969-0.25391 1.5547-0.73438 0.72656-0.95703 0.81641-0.26172 1.3594-0.23828 1.2383-1.0547 1.9805-0.085938 2.4453 0.26953 0.99609 0.55469 1.6133-0.058594 1.1523-0.83984 0.71875-1.3672 0.29297-1.168 0.66016-0.76562 0.80859-0.62109 0.91406-1.0664 1.2891-0.96484 0.5-1.2695 0.10547-1.168-0.21484-1.3164-0.058594-1.2578 0.53516-1.1836 0.19141-1.5625-0.27344-1.0625-0.55469-1.4141-0.49609-0.92188-0.46875-1.5703-0.17969-0.98438 0.23047-2.9688 0.86328-1.082 0.097657-1.4453-0.42969-1.3984-1.1562-1.5898-0.73828-1.6641-0.035156-2.5273 0.074218-1.8672-0.31641-1.9102-0.050781-1.2422 0.30859-1.8281 0.54688-1.3633 0.72656-2.1016 0.40625-2.4375 1.582-0.96875 0.80469-0.69922 1.1211-0.98438 0.625-1.3438 0.28125-1.0742-0.11719-1.6953 0.34375-1.5117 0.23047-1.1719 0.32422-1.1289 0.058593-1.3633 0.066407-1.5312 0.30469-0.96875 0.30078-2.1719 1-2.1289 1.4609-0.99219 0.41797-1.0039 0.12891-1.5273-0.0625-1.2305 0.66406-0.98828 1.3945-1.4805 1.3828-1.7188 0.875-1.4883 0.52344-1.25 0.69531-0.85938 0.64844-1.3516 0.50781-1.3789-0.011719-1.75 0.32812-2.9297 0.67578-1.2852 0.48828-1.3984 0.53516-3.418 2.4648-1.0547 0.86328-2.2148 0.77734-1.4141 0.11328-2.7422-3.1055-1.5703-1.7734-3.1523-0.027344-11.062 0.55859-1.2852-0.875-1.1211-3.3672-0.95312-2.8438-0.082032-2.1211-0.24219-6.0156-0.18359-1.75 1.2422-2.9609h-3.2109l-2.4727-0.86719-1.293-1.7891-4.9453-5.375-2.4727-1.9258-1.9141-1.3555-0.4375-0.98828-0.42969-3.1484-1.918-5.3828-1.2969-2.5977-0.55859-2.2188-0.55469-1.3008-0.86328-0.92578-1.4258-1.418-1.8555-1.6133-1.0469-1.3594-1.0547-1.7266-0.55469-1.7891-0.79688-0.99609-1.4922-1.2344-1.1055-1.7266-2.5312-1.4844 4.2812-5.4492 1.4023-1.3438 1.3867-1.1328 1.543-1.1211 1.7852-1.1016 1.7852-1.125 1.0742-0.375 0.94141-0.39453 1.4023-1.3555 1.4062-1.1875 0.89062-0.98828 1.6289-1.3438 1.3398-1.0273 0.78906-0.74219 0.64453-0.77344 3.3555-1.9805 2.25-1.125 1.2891-0.76953 4.0508-2.4648 4.0781-1.9023 1-0.46484 4.8867-2.3164 1.5898-0.39062 1.707-0.35547 1.2266-0.085937 2.1484-0.84766 1.7852-0.51172 5.4336-1.4414 1.5586-0.41406 1.0312-0.68359 0.76172-0.93359 0.75391-1.2461 0.71875-0.82812 1.1953-1.8594 0.83203-1.5469 0.68359-1.9961 0.98438-1.5352 0.94922-1.1562 0.76953-1.3398 0.97656-1.0508 0.52344-1.4727 1.0469-1.9023 1.4688-1.5234 1.0156-1.5625 0.40625-0.99609 0.60938-0.80469 0.34375-0.97266 0.57812-1.8594 0.058593-1.4375-0.13281-1.5508 0.66016-1.2305 0.83594-2.7617 0.44922-1.5469 0.53906-2.0742 0.75781-1.543 0.21484-1.793 1.043-1.5391 1.0977-1.0078 1.0859-0.83594 1.0781-1.2656 0.96484-0.71094 1.375-0.84375 1.1094-1.5156 1.9297-1.7383 1.125-0.69922 0.82812-0.67578 2.2266-2.7227 0.70703-1.0312 1.1758-1.4961 0.77734-0.98438 0.4375-1.2695 0.56641-1.1758 0.23828-1.3711 0.22656-1.4375 0.76172-1.2383 0.41797-1.1758 0.77734-0.92969 0.26953-1.2227-0.70703-1.4805-0.39844-1.0156-0.30469-1.9375 0.51562 0.58594" fill="none" stroke="#fff" stroke-linecap="round" stroke-linejoin="round" stroke-miterlimit="10" stroke-width="2"/>
<path d="m488.83 142.79 0.17188 0.12109 0.79297 1.4766 0.17969 1.1562 1.0391 0.64844 0.51172 0.91797 0.39453 1.6328 0.62891 1.3828 1.1523 0.89453 1.2109 0.94531 0.63672 1.0039-0.089844 1.5859 0.26172 1.1914-0.22266 1.3438 0.058594 2.0039 0.34766 0.96484 0.84766 1.0547 0.48047 1.0547 0.9375 1.8633 0.078125 1.0391 0.15234 1.625 0.44922 1.3438-0.03125 1.3203-0.72266 1.2266-0.96875 1.5312-0.80078 1.3086-0.25391 1.1875 0.50781 1.2031 0.81641 0.80078 0.95312 0.76562-1.4414 1.9805-0.74219 0.96094-0.87891 1.0234-0.71094 0.71094-1.1523 0.71094-0.53125 1.0117-0.28516 1.125-0.84766 1.6211-0.34375 1.1797-0.55078 0.95312-1.0508 0.91406-1.0508 0.55859-1.5078 0.30859-1.5859 0.042969-1.0703 0.43359-0.91016 0.67578-1.2266 0.35938-2.4141-0.22266-1.2773-0.40234-0.79688-0.92969-0.25391-1.1914-1.0703-1.25-1.0156-0.6875-1.6523-0.375-1.4766 0.054688-1.3516 0.27344-0.78516 0.66016-2.6523 1.4609-0.94922 0.61328-1.0703 0.28516-1.4883 0.0625-1.0977 0.007813-1.168-0.32031-1.1719-0.60156-1.043-0.30078-1.207 0.23438-1.9844 0.36719-1.0156 0.011719-1.4414-0.10156-1.2188 0.83984-1.332-0.007812-1 0.13672-1.0664 0.082032-1.9297 0.23047-1.5156 0.54297-1.2891 0.19141-1.3359-0.32422-1.0859-0.34766-1.4766 0.4375-1.5859 0.63672-1.0938 0.21094-1.4531-0.17578-1.1953 0.34375-1.6523 0.39844-0.77734 0.77734-1.1562 0.78906-1.2227 0.40234-1.2969 0.10547-1.2578 0.47656-1.0742 0.22266-1.6562 0.13281-1.1641-0.058594-1.0938 0.20312-0.44141 1.4141-0.34375 1.5312-0.32812 1.8906-0.19922 1.2891 0.3125 1.582 0.54297 1.0469 0.75 0.92188-0.13281 0.99219 0.058594 1.3359 0.23047 1.543-0.058593 1.0781-0.28516 1.6367-0.035156 1.0508-0.80859 0.86328-0.65625 0.80469-0.33984 1.5742-0.10938 1.5781-1.1875 1.832-0.94922 1.0234-1.1758 1.2461-0.79688 0.89062-0.73828 0.79688-0.99609 1-1.2148 0.69922-1.9844 0.47656-1.1289-0.0625-0.18359 2.4062-0.0625 1.9297 0.8125 1.8945 0.5 1.0977-0.12891 1.0391 0.15234 2.3086-0.16797 1.457 0.33984 1.3594 0.65625 1.0273 0.84766 1.293 0.3125 1.043-0.078125 1.2188-0.73047 1.0273-0.73047 0.88281-0.80859 0.59766-0.90625 1.1211-1.1211 1.5273-0.53125 1.1758 0.66406 1.0898 1.668 0.64062 1.3398 0.74609 1.207 0.625 1.1289 0.50781 1.332 0.0625 0.98047 0.22656 0.83984 0.88281 0.96484 1.0078 0.64062 0.92578 0.59375 2.0039 0.11328 1.5898-0.011719 1.2383 0.89453 1.1641 0.56641 1.2773 0.28516 1.4531 0.47266 0.89844 0.58203 1.6172 0.44141 1.3984 0.86328 2.8164 0.61328 0.875 1.082 0.71094 1.25 0.48438 1.1641 0.9375 0.22656 1.125 0.69141 1.9141 0.51562 0.89453 0.28906 0.96875-0.46875 0.89453-0.99609 0.59766-1.1523 0.61328-1.4258 1.043-0.79688 0.60938 1.0547 0.82031 0.44141 0.91016 0.48438 1.2852-0.16797 1.3867-0.40625 1.2656 1.3906-0.29297 1.4727-0.32812 1.1797-0.16797 2.582 0.046875 1.0977 0.14453 1.4609-0.125 1.0273-0.16016 1.6523-0.38281 2.2461 0.54297 1.2578 0.35938 1.1562 0.6875 1.2539 0.5 2.1016 1.0352 0.85156 0.59766 0.12109 1.0078 0.28906 1.1602 0.43359 1.1211-0.24609 1.3516-0.070312 1.3008 0.34766 1.2617 0.32422 1.3438 0.42188 1.3086 1.4531 0.26953 1.2617-0.63672 1.7188-1.1758 0.82031-0.65625 1.0898-0.55469 1.4883-0.16406 2.0703-0.19141 1.5391-0.15625 1.1914 0.003906 1.2148-0.066406 1.2344 0.29688 2.1172-0.074219 1.2266-0.13672 1.2148-0.066406 1.7617 0.42188 1.1758 0.62109 1.9258 0.21875 2.9336 1.0703 1.2969 0.15625 0.92188 1.1602 0.73047 1.2266 1.0664 1.6719 0.51953 0.91797 0.64453 1.5859-0.66797 0.81641-0.94141 0.41016-1.6367 1.332-2.4453 2.293-0.80859 1.1289-1.2539 0.058594-1.0977 0.035156-1.1328-0.035156-1.8945-0.039063-1.0234-0.15234-1.0586-0.11328-1.7773-0.039062-1.2383 0.82031-0.95312 1.4297-0.61328 1.1484-0.50391 1.0273-1.207 1.6406-1.6133 0.90625-1.4023 0.26562-1.3672 1.3398-1.1367 1.0391-1.1016 1.0078-0.45312 1.0586-0.72266 0.75-0.39453 1.7227-0.55469 1.1914-1.1328 1.1523-1.9102 0.54688-1.5742 0.1875-1.2812 1.7852-1.6797 0.63672-1.0898 0.56641-1.1328 0.13672-2.9922 0.85938-1.3477-0.14844-1.3711 0.6875-1.5 1.0781-1.2812 1.0117-0.80469 0.67969-0.16406 1.2422-0.57422 0.99609-1.4766 0.75781-0.63672 0.95703-0.375 1.9688-0.34375 1.4922-0.09375 1.5391-0.18359 1.2969-0.13672 1.0977-0.023437 1.6406-0.40625 1.4062-0.73438 1.7812-0.67188 0.89062-0.33594 1.0938-0.14453 1.1797 0.48047 1.7852 0.23047 1.5-0.45703 0.97656-1.043 0.73438-0.66016 1.1094-0.85938 1.5195-0.40625 1.1914-1.1445 0.97656-0.77734 1.582-0.27734 1.0703-0.86328 0.58594-0.89844 0.73047-0.8125 0.68359-1.1914 1.4219-0.71875 0.96875-0.96875 1.4883-1.8281-0.29688-1.0977-0.30469-1.0078 0.19531-1.0586 0.054688-1.3516-0.56641-1.0312 0.03125-1.4727 0.64453-1.2305 0.30469-1.6133 0.22656-1.9023 0.43359-1.332 0.98828-0.78906 0.86328-1.5352 1.3477-1.1172 0.33984-1.8984 0.14062-2.4727-0.71875-2.1641-0.39844-1.6367 0.46875-1.7383-0.0625-1.2188-0.25391-1.1914 0.62109-0.40625 1.1953-0.57422 1.3711-0.91406 0.52344-1.0117 0.77344-1.1328 0.5-1.0625 0.18359-0.97266 0.42188-0.87109 1.1055-0.67969 1.1523-1.2578 0.12891-1.4766-0.375-0.94922-0.58203-1.0391-0.13672-1.3789 0.29688-1.0078-0.10156-1.0547-0.43359-1.2539-1.3906-1.082-0.85938-1.8125-1.0156-1.9883-1.043-0.84375-0.82031-1.6055-0.73438-1.4023-0.35547-1.5547-0.24219-1.375 0.34375-1.2773 0.57031-1.4883 1.8125-0.86328 1.2344-0.78906 0.9375-0.92578 1.0859-0.5625 0.98047-0.12891 0.99609-0.29297 1.2852-0.875 1.2383-0.34766 1.3242-0.60547 1.9023-0.57422 1.2109-0.57812 1.6289-0.66406 1.2812-0.70312 0.95312-0.79297 0.79297-0.95312 0.69141-0.27344 0.98047-0.24609 1.7617-0.50391 2.1719-0.10156 2.0859 0.070313 1.5781-0.53906 1.4453-1.082 1.3008-0.78516 1.625-0.28906 1.3438-0.53516 1.6562-0.33984 1.6875-0.42578 1.3633-1.2188 1.0508-0.66797 0.77734-0.75 1.9922-0.17578 0.98438 0.48438 1.1836-0.089844 1.1094-0.42969 1.25-0.71484 1.6094-1.1445 1.2695-1.3789 0.10938-1.0195-0.019532-1.3047 0.51953-1.4844 0.30469-1.1406 0.72266-1.4531 0.95703-1.375 1.1797-1.9492 0.37891-1.2891 0.66016-1.418 1.0625-2.0234 1.1172-1.6523 0.60547-0.77734 1.4961-0.51562 0.96484-0.17578 1.4336 0.66797 2.0273 0.61328 1.375 0.52344 0.98438-0.54297 1.2422-0.96484 1.5586-0.80859 1.5664-28.176-2.1055-21.129-2.0312 0.54688-1.6914-0.035156-1.6484-0.28906-2.0742-0.72266-0.875-1.7539-0.058594-1.4297-0.89844-1.1641-0.88672-0.64844-1.2969-0.42969-1.625 0.32422-1.9844 0.10156-1.4375-0.011719-1.7305-0.015625-1.3047-1.3086-2.1055-0.19531-1.793-0.0625-1.1016-0.60156-1.0664 0.12109-1.1211-0.26562-1.6289-1.6523-1.1992-0.89844-0.63672-0.99609-1.7773-0.82031-1.4531-1.0938-0.98438-0.76172-0.70703-1.1797-0.18359-0.97656 1.5234-0.66797 1.0039-1.1328 1.3516-2.043 0.73438-1.0195-0.62891-1.3398-0.36719-1.543-0.52344-2.6602 0.10156-1.875 0.41797-1.5703 0.58203-1.4961 0.41797-1.4414-0.99609-0.91406-1.1016-0.55078-0.96875-0.26172-2.0156-0.60547-2.4922-1.3086-1.7031-1.9414-1.6484-0.52734-1.2148-0.9375-1.9609-0.51562-1.0742-1.4922-2.1484-1.1211-0.37891-1.1172 0.79688-1.0977 0.86328-0.84766 0.53906-0.99219 0.49219-0.93359 0.36719-1.0234 0.34375-1.1836 0.30078-1.0156 0.36719 0.13672-2.1172 0.023437-4.1758-0.007812-1.793-0.20703-4.332-8.0664-3.0938-2.1914 3.957-1-1.0156-1.1992-0.75-1.082-0.74219-1.0977-0.79297-1.3398-1.0117-1.2852-0.9375-0.89062-0.55859-1.4219-0.51172 0.10156-1.7812 0.33984-1.2109 0.51953-1.0391 0.17188-1.1484-0.28125-1.4414-0.12109-1.3867 0.29297-1.0312 0.10938-1.7305-0.23047-1.3828-0.054687-1.5 0.86328-1.4375 0.92188-4.0391 0.69141-1.9023 1.207-1.5 0.46094-2.6484 1.3906-3.2812 0.57031-2.1328 3.8086-9.1094 0.85938-0.62891 0.82422-1.2266-2.5625-2.1758-2.5195-1.2695-2.082 0.29297-1.7266 0.97656-1.0859 1.1445-4.0195-1.4961-2.457-1.8359 1.4766 0.050781 1.1641 0.007813 3.8906-0.26953 3.5859-0.96484 2.2773-1.0352 8.5234-7.9336 3.3477-3.7266 2.3438-3.832 1.8984-2.4844 2.0938-4.3086 0.47656-1.2148 0.5625-1.3047 0.71484-1.3672 0.58594-0.86719 1.2578-2.1641 0.73828-1.4375 0.58594-1.0625 0.71875-1.0625 0.84375-1.1289 0.73828-0.95312 0.75781-0.84375 0.91016-1.1289 0.89844-1.1211 1.0703-0.99609 4.4141-4.7656 3.2695-3.5273 1.2109-2.3516 0.76172-1.5586 0.85938-2.5195 1-1.707 1.7422-0.88281 2.1602-1.8906 1.0938-0.91016 0.80469-1.0469 0.71875-0.9375 0.69141-0.91797 1.1836-0.69141 1.3945-0.61719 2.2148-0.35938 1.3594-0.39844 1.9102-1.2422 2.7422-2.0977 2.0742-0.90234 1.2852-0.48828 2.1797-0.38672 1.7461-0.58203 1.5586 0.015625 1.2031-0.19141 1.5234-0.95703 1.3086-0.74219 1.4883-0.52344 1.7188-0.875 1.4805-1.3828 0.98828-1.3945 1.2305-0.66406 1.5273 0.0625 1.0039-0.12891 0.99219-0.41797 2.1289-1.4609 1.3711-0.75 1.7695-0.55078 1.5312-0.30469 1.3633-0.066407 1.1289-0.058593 1.1719-0.32422 1.5117-0.23047 1.4531-0.37109 1.3164 0.14453 1.3438-0.28125 0.98438-0.625 0.69922-1.1211 0.96875-0.80469 1.6797-1.1953 1.9375-0.61328 2.2852-0.90625 1.8281-0.54688 1.2422-0.30859 1.3594-0.027344 1.7188 0.24609 2.4258 0.082031 1.918-0.019531 2.1367 0.78516 1.3984 1.1562 1.4453 0.42969 1.082-0.097657 2.9688-0.86328 0.98438-0.23047 1.5703 0.17969 0.92188 0.46875 1.4141 0.49609 1.0625 0.55469 1.0898 0.27344 1.1172-0.074219 0.99219-0.29688 1.5508-0.33984 1.1211 0.14844 1.4727 0.089843 1.2344-0.47656 0.6875-0.77344 0.87109-1.1914 1.0391-1.1562 1.168-0.66016 1.3672-0.29297 0.83984-0.71875 0.058594-1.1523-0.37109-1.2383-0.45312-1.3711v-1.7148l0.79297-1.8359 0.55078-1.7578 0.20703-1.5586 1.0469-0.97266 0.73438-0.72656 0.25391-1.5547 0.30469-1.2969 0.89453-0.84766 1.6289-1.8711 0.77734-0.63672 1.625-0.98828 1.2266-0.625 1.4336-0.48828 1.1211-0.54297 1.4102-0.074219 1.1445-0.14062 1.3047-1.293 0.71484-1.7148 0.19141-1.0547 0.58594-1.5352 0.74219-0.70703 0.39453-0.96875 0.25-1.1211 0.69922-1.1445 0.33594-1.1055 0.58594-0.90234 0.57031-0.87891 0.1875-1.5156 0.29688-0.98828 0.42188-0.92578 0.77344-0.84766 0.45312-1.1797 0.62109-1.1289 0.64062-0.90625 0.77734-1.7305-0.10938-1.3672 0.59375-1.2148 0.99219-1.0312 1.1602-0.625 1.0977-0.82422 0.61719-0.81641 0.28906-1.1289 0.85547-0.82422-0.015625-1.0742-0.14844-1.168 0.46484-1.4531 0.54297-0.90625 0.84375-0.98047 1.1719-1.3242 1.3945-1.4375 0.68359-1.2656 0.76172-1.8164 0.35547-1.0078 0.52734-0.98047 0.47656-1.0078-0.26953-3.125-0.20703-1.6758 0.45312-1.6172 0.66797-1.3164 2.0938-0.83984 1.8125-1.2305 1.2734-0.34375 0.92188-0.71484 1.3359-0.91797 0.69922-0.89844 1.6953-0.88672 3.6836-2.3945 1.875-0.97266 1.8672-1.4492 1.1992-0.5 1.7305-0.0625 1.4297-1.3008 3.3906-1.5664 3.2227-0.6875 4.668-0.69141 1.043-0.36328 1.0703-0.57031 1.3281-0.097656 1.9961 0.21094 1.6914-0.31641 0.80469-0.78125 0.94922-0.57031 1.1875-0.10938 1.2266-0.27344 1.0664 0.42969 1.2031 0.26172 1.293-0.20703 1.1523-0.24609 1.2969 0.20312 1.25-0.50781 2.1641 0.30859 1.6523 0.85547 2.2031 0.41797 1.0742 0.13672 1.0312 0.074219 1.0703 0.035156 0.99219 0.32812 1.2773-0.85547 1.0625-0.47266 1.1016-0.16406 1.5234-0.007812 0.86328-0.62891 0.98047-0.64844 0.87109-0.92188 0.93359-0.49219 1.2539-0.33984 1.0508 0.023437 1.0352 0.23047 1.3359 0.3125 1.1602 0.17188 1.1172-0.54688 1.2227-0.42188 1.4648-0.72656 0.85547-0.76172 0.88281-0.83984 0.27734-1.0508 0.13672-1.1992 0.027344-1.8125 0.57422-0.91406 1.3359-0.42188 0.82422-0.56641 0.92578-1.125 1.25-0.79688 0.99219-0.23828 1.0859 0.1875 1.2305-0.14062 1.0391 0.15625 1.5469-0.050781 1.8984 0.22656 1.0234 0.11328 1.3672-0.46094 1.6094-0.60156z" fill="#ccc" fill-rule="evenodd"/>
<path d="m488.83 142.79 0.17188 0.12109 0.79297 1.4766 0.17969 1.1562 1.0391 0.64844 0.51172 0.91797 0.39453 1.6328 0.62891 1.3828 1.1523 0.89453 1.2109 0.94531 0.63672 1.0039-0.089844 1.5859 0.26172 1.1914-0.22266 1.3438 0.058594 2.0039 0.34766 0.96484 0.84766 1.0547 0.48047 1.0547 0.9375 1.8633 0.078125 1.0391 0.15234 1.625 0.44922 1.3438-0.03125 1.3203-0.72266 1.2266-0.96875 1.5312-0.80078 1.3086-0.25391 1.1875 0.50781 1.2031 0.81641 0.80078 0.95312 0.76562-1.4414 1.9805-0.74219 0.96094-0.87891 1.0234-0.71094 0.71094-1.1523 0.71094-0.53125 1.0117-0.28516 1.125-0.84766 1.6211-0.34375 1.1797-0.55078 0.95312-1.0508 0.91406-1.0508 0.55859-1.5078 0.30859-1.5859 0.042969-1.0703 0.43359-0.91016 0.67578-1.2266 0.35938-2.4141-0.22266-1.2773-0.40234-0.79688-0.92969-0.25391-1.1914-1.0703-1.25-1.0156-0.6875-1.6523-0.375-1.4766 0.054688-1.3516 0.27344-0.78516 0.66016-2.6523 1.4609-0.94922 0.61328-1.0703 0.28516-1.4883 0.0625-1.0977 0.007813-1.168-0.32031-1.1719-0.60156-1.043-0.30078-1.207 0.23438-1.9844 0.36719-1.0156 0.011719-1.4414-0.10156-1.2188 0.83984-1.332-0.007812-1 0.13672-1.0664 0.082032-1.9297 0.23047-1.5156 0.54297-1.2891 0.19141-1.3359-0.32422-1.0859-0.34766-1.4766 0.4375-1.5859 0.63672-1.0938 0.21094-1.4531-0.17578-1.1953 0.34375-1.6523 0.39844-0.77734 0.77734-1.1562 0.78906-1.2227 0.40234-1.2969 0.10547-1.2578 0.47656-1.0742 0.22266-1.6562 0.13281-1.1641-0.058594-1.0938 0.20312-0.44141 1.4141-0.34375 1.5312-0.32812 1.8906-0.19922 1.2891 0.3125 1.582 0.54297 1.0469 0.75 0.92188-0.13281 0.99219 0.058594 1.3359 0.23047 1.543-0.058593 1.0781-0.28516 1.6367-0.035156 1.0508-0.80859 0.86328-0.65625 0.80469-0.33984 1.5742-0.10938 1.5781-1.1875 1.832-0.94922 1.0234-1.1758 1.2461-0.79688 0.89062-0.73828 0.79688-0.99609 1-1.2148 0.69922-1.9844 0.47656-1.1289-0.0625-0.18359 2.4062-0.0625 1.9297 0.8125 1.8945 0.5 1.0977-0.12891 1.0391 0.15234 2.3086-0.16797 1.457 0.33984 1.3594 0.65625 1.0273 0.84766 1.293 0.3125 1.043-0.078125 1.2188-0.73047 1.0273-0.73047 0.88281-0.80859 0.59766-0.90625 1.1211-1.1211 1.5273-0.53125 1.1758 0.66406 1.0898 1.668 0.64062 1.3398 0.74609 1.207 0.625 1.1289 0.50781 1.332 0.0625 0.98047 0.22656 0.83984 0.88281 0.96484 1.0078 0.64062 0.92578 0.59375 2.0039 0.11328 1.5898-0.011719 1.2383 0.89453 1.1641 0.56641 1.2773 0.28516 1.4531 0.47266 0.89844 0.58203 1.6172 0.44141 1.3984 0.86328 2.8164 0.61328 0.875 1.082 0.71094 1.25 0.48438 1.1641 0.9375 0.22656 1.125 0.69141 1.9141 0.51562 0.89453 0.28906 0.96875-0.46875 0.89453-0.99609 0.59766-1.1523 0.61328-1.4258 1.043-0.79688 0.60938 1.0547 0.82031 0.44141 0.91016 0.48438 1.2852-0.16797 1.3867-0.40625 1.2656 1.3906-0.29297 1.4727-0.32812 1.1797-0.16797 2.582 0.046875 1.0977 0.14453 1.4609-0.125 1.0273-0.16016 1.6523-0.38281 2.2461 0.54297 1.2578 0.35938 1.1562 0.6875 1.2539 0.5 2.1016 1.0352 0.85156 0.59766 0.12109 1.0078 0.28906 1.1602 0.43359 1.1211-0.24609 1.3516-0.070312 1.3008 0.34766 1.2617 0.32422 1.3438 0.42188 1.3086 1.4531 0.26953 1.2617-0.63672 1.7188-1.1758 0.82031-0.65625 1.0898-0.55469 1.4883-0.16406 2.0703-0.19141 1.5391-0.15625 1.1914 0.003906 1.2148-0.066406 1.2344 0.29688 2.1172-0.074219 1.2266-0.13672 1.2148-0.066406 1.7617 0.42188 1.1758 0.62109 1.9258 0.21875 2.9336 1.0703 1.2969 0.15625 0.92188 1.1602 0.73047 1.2266 1.0664 1.6719 0.51953 0.91797 0.64453 1.5859-0.66797 0.81641-0.94141 0.41016-1.6367 1.332-2.4453 2.293-0.80859 1.1289-1.2539 0.058594-1.0977 0.035156-1.1328-0.035156-1.8945-0.039063-1.0234-0.15234-1.0586-0.11328-1.7773-0.039062-1.2383 0.82031-0.95312 1.4297-0.61328 1.1484-0.50391 1.0273-1.207 1.6406-1.6133 0.90625-1.4023 0.26562-1.3672 1.3398-1.1367 1.0391-1.1016 1.0078-0.45312 1.0586-0.72266 0.75-0.39453 1.7227-0.55469 1.1914-1.1328 1.1523-1.9102 0.54688-1.5742 0.1875-1.2812 1.7852-1.6797 0.63672-1.0898 0.56641-1.1328 0.13672-2.9922 0.85938-1.3477-0.14844-1.3711 0.6875-1.5 1.0781-1.2812 1.0117-0.80469 0.67969-0.16406 1.2422-0.57422 0.99609-1.4766 0.75781-0.63672 0.95703-0.375 1.9688-0.34375 1.4922-0.09375 1.5391-0.18359 1.2969-0.13672 1.0977-0.023437 1.6406-0.40625 1.4062-0.73438 1.7812-0.67188 0.89062-0.33594 1.0938-0.14453 1.1797 0.48047 1.7852 0.23047 1.5-0.45703 0.97656-1.043 0.73438-0.66016 1.1094-0.85938 1.5195-0.40625 1.1914-1.1445 0.97656-0.77734 1.582-0.27734 1.0703-0.86328 0.58594-0.89844 0.73047-0.8125 0.68359-1.1914 1.4219-0.71875 0.96875-0.96875 1.4883-1.8281-0.29688-1.0977-0.30469-1.0078 0.19531-1.0586 0.054688-1.3516-0.56641-1.0312 0.03125-1.4727 0.64453-1.2305 0.30469-1.6133 0.22656-1.9023 0.43359-1.332 0.98828-0.78906 0.86328-1.5352 1.3477-1.1172 0.33984-1.8984 0.14062-2.4727-0.71875-2.1641-0.39844-1.6367 0.46875-1.7383-0.0625-1.2188-0.25391-1.1914 0.62109-0.40625 1.1953-0.57422 1.3711-0.91406 0.52344-1.0117 0.77344-1.1328 0.5-1.0625 0.18359-0.97266 0.42188-0.87109 1.1055-0.67969 1.1523-1.2578 0.12891-1.4766-0.375-0.94922-0.58203-1.0391-0.13672-1.3789 0.29688-1.0078-0.10156-1.0547-0.43359-1.2539-1.3906-1.082-0.85938-1.8125-1.0156-1.9883-1.043-0.84375-0.82031-1.6055-0.73438-1.4023-0.35547-1.5547-0.24219-1.375 0.34375-1.2773 0.57031-1.4883 1.8125-0.86328 1.2344-0.78906 0.9375-0.92578 1.0859-0.5625 0.98047-0.12891 0.99609-0.29297 1.2852-0.875 1.2383-0.34766 1.3242-0.60547 1.9023-0.57422 1.2109-0.57812 1.6289-0.66406 1.2812-0.70312 0.95312-0.79297 0.79297-0.95312 0.69141-0.27344 0.98047-0.24609 1.7617-0.50391 2.1719-0.10156 2.0859 0.070313 1.5781-0.53906 1.4453-1.082 1.3008-0.78516 1.625-0.28906 1.3438-0.53516 1.6562-0.33984 1.6875-0.42578 1.3633-1.2188 1.0508-0.66797 0.77734-0.75 1.9922-0.17578 0.98438 0.48438 1.1836-0.089844 1.1094-0.42969 1.25-0.71484 1.6094-1.1445 1.2695-1.3789 0.10938-1.0195-0.019532-1.3047 0.51953-1.4844 0.30469-1.1406 0.72266-1.4531 0.95703-1.375 1.1797-1.9492 0.37891-1.2891 0.66016-1.418 1.0625-2.0234 1.1172-1.6523 0.60547-0.77734 1.4961-0.51562 0.96484-0.17578 1.4336 0.66797 2.0273 0.61328 1.375 0.52344 0.98438-0.54297 1.2422-0.96484 1.5586-0.80859 1.5664-28.176-2.1055-21.129-2.0312 0.54688-1.6914-0.035156-1.6484-0.28906-2.0742-0.72266-0.875-1.7539-0.058594-1.4297-0.89844-1.1641-0.88672-0.64844-1.2969-0.42969-1.625 0.32422-1.9844 0.10156-1.4375-0.011719-1.7305-0.015625-1.3047-1.3086-2.1055-0.19531-1.793-0.0625-1.1016-0.60156-1.0664 0.12109-1.1211-0.26562-1.6289-1.6523-1.1992-0.89844-0.63672-0.99609-1.7773-0.82031-1.4531-1.0938-0.98438-0.76172-0.70703-1.1797-0.18359-0.97656 1.5234-0.66797 1.0039-1.1328 1.3516-2.043 0.73438-1.0195-0.62891-1.3398-0.36719-1.543-0.52344-2.6602 0.10156-1.875 0.41797-1.5703 0.58203-1.4961 0.41797-1.4414-0.99609-0.91406-1.1016-0.55078-0.96875-0.26172-2.0156-0.60547-2.4922-1.3086-1.7031-1.9414-1.6484-0.52734-1.2148-0.9375-1.9609-0.51562-1.0742-1.4922-2.1484-1.1211-0.37891-1.1172 0.79688-1.0977 0.86328-0.84766 0.53906-0.99219 0.49219-0.93359 0.36719-1.0234 0.34375-1.1836 0.30078-1.0156 0.36719 0.13672-2.1172 0.023437-4.1758-0.007812-1.793-0.20703-4.332-8.0664-3.0938-2.1914 3.957-1-1.0156-1.1992-0.75-1.082-0.74219-1.0977-0.79297-1.3398-1.0117-1.2852-0.9375-0.89062-0.55859-1.4219-0.51172 0.10156-1.7812 0.33984-1.2109 0.51953-1.0391 0.17188-1.1484-0.28125-1.4414-0.12109-1.3867 0.29297-1.0312 0.10938-1.7305-0.23047-1.3828-0.054687-1.5 0.86328-1.4375 0.92188-4.0391 0.69141-1.9023 1.207-1.5 0.46094-2.6484 1.3906-3.2812 0.57031-2.1328 3.8086-9.1094 0.85938-0.62891 0.82422-1.2266-2.5625-2.1758-2.5195-1.2695-2.082 0.29297-1.7266 0.97656-1.0859 1.1445-4.0195-1.4961-2.457-1.8359 1.4766 0.050781 1.1641 0.007813 3.8906-0.26953 3.5859-0.96484 2.2773-1.0352 8.5234-7.9336 3.3477-3.7266 2.3438-3.832 1.8984-2.4844 2.0938-4.3086 0.47656-1.2148 0.5625-1.3047 0.71484-1.3672 0.58594-0.86719 1.2578-2.1641 0.73828-1.4375 0.58594-1.0625 0.71875-1.0625 0.84375-1.1289 0.73828-0.95312 0.75781-0.84375 0.91016-1.1289 0.89844-1.1211 1.0703-0.99609 4.4141-4.7656 3.2695-3.5273 1.2109-2.3516 0.76172-1.5586 0.85938-2.5195 1-1.707 1.7422-0.88281 2.1602-1.8906 1.0938-0.91016 0.80469-1.0469 0.71875-0.9375 0.69141-0.91797 1.1836-0.69141 1.3945-0.61719 2.2148-0.35938 1.3594-0.39844 1.9102-1.2422 2.7422-2.0977 2.0742-0.90234 1.2852-0.48828 2.1797-0.38672 1.7461-0.58203 1.5586 0.015625 1.2031-0.19141 1.5234-0.95703 1.3086-0.74219 1.4883-0.52344 1.7188-0.875 1.4805-1.3828 0.98828-1.3945 1.2305-0.66406 1.5273 0.0625 1.0039-0.12891 0.99219-0.41797 2.1289-1.4609 1.3711-0.75 1.7695-0.55078 1.5312-0.30469 1.3633-0.066407 1.1289-0.058593 1.1719-0.32422 1.5117-0.23047 1.4531-0.37109 1.3164 0.14453 1.3438-0.28125 0.98438-0.625 0.69922-1.1211 0.96875-0.80469 1.6797-1.1953 1.9375-0.61328 2.2852-0.90625 1.8281-0.54688 1.2422-0.30859 1.3594-0.027344 1.7188 0.24609 2.4258 0.082031 1.918-0.019531 2.1367 0.78516 1.3984 1.1562 1.4453 0.42969 1.082-0.097657 2.9688-0.86328 0.98438-0.23047 1.5703 0.17969 0.92188 0.46875 1.4141 0.49609 1.0625 0.55469 1.0898 0.27344 1.1172-0.074219 0.99219-0.29688 1.5508-0.33984 1.1211 0.14844 1.4727 0.089843 1.2344-0.47656 0.6875-0.77344 0.87109-1.1914 1.0391-1.1562 1.168-0.66016 1.3672-0.29297 0.83984-0.71875 0.058594-1.1523-0.37109-1.2383-0.45312-1.3711v-1.7148l0.79297-1.8359 0.55078-1.7578 0.20703-1.5586 1.0469-0.97266 0.73438-0.72656 0.25391-1.5547 0.30469-1.2969 0.89453-0.84766 1.6289-1.8711 0.77734-0.63672 1.625-0.98828 1.2266-0.625 1.4336-0.48828 1.1211-0.54297 1.4102-0.074219 1.1445-0.14062 1.3047-1.293 0.71484-1.7148 0.19141-1.0547 0.58594-1.5352 0.74219-0.70703 0.39453-0.96875 0.25-1.1211 0.69922-1.1445 0.33594-1.1055 0.58594-0.90234 0.57031-0.87891 0.1875-1.5156 0.29688-0.98828 0.42188-0.92578 0.77344-0.84766 0.45312-1.1797 0.62109-1.1289 0.64062-0.90625 0.77734-1.7305-0.10938-1.3672 0.59375-1.2148 0.99219-1.0312 1.1602-0.625 1.0977-0.82422 0.61719-0.81641 0.28906-1.1289 0.85547-0.82422-0.015625-1.0742-0.14844-1.168 0.46484-1.4531 0.54297-0.90625 0.84375-0.98047 1.1719-1.3242 1.3945-1.4375 0.68359-1.2656 0.76172-1.8164 0.35547-1.0078 0.52734-0.98047 0.47656-1.0078-0.26953-3.125-0.20703-1.6758 0.45312-1.6172 0.66797-1.3164 2.0938-0.83984 1.8125-1.2305 1.2734-0.34375 0.92188-0.71484 1.3359-0.91797 0.69922-0.89844 1.6953-0.88672 3.6836-2.3945 1.875-0.97266 1.8672-1.4492 1.1992-0.5 1.7305-0.0625 1.4297-1.3008 3.3906-1.5664 3.2227-0.6875 4.668-0.69141 1.043-0.36328 1.0703-0.57031 1.3281-0.097656 1.9961 0.21094 1.6914-0.31641 0.80469-0.78125 0.94922-0.57031 1.1875-0.10938 1.2266-0.27344 1.0664 0.42969 1.2031 0.26172 1.293-0.20703 1.1523-0.24609 1.2969 0.20312 1.25-0.50781 2.1641 0.30859 1.6523 0.85547 2.2031 0.41797 1.0742 0.13672 1.0312 0.074219 1.0703 0.035156 0.99219 0.32812 1.2773-0.85547 1.0625-0.47266 1.1016-0.16406 1.5234-0.007812 0.86328-0.62891 0.98047-0.64844 0.87109-0.92188 0.93359-0.49219 1.2539-0.33984 1.0508 0.023437 1.0352 0.23047 1.3359 0.3125 1.1602 0.17188 1.1172-0.54688 1.2227-0.42188 1.4648-0.72656 0.85547-0.76172 0.88281-0.83984 0.27734-1.0508 0.13672-1.1992 0.027344-1.8125 0.57422-0.91406 1.3359-0.42188 0.82422-0.56641 0.92578-1.125 1.25-0.79688 0.99219-0.23828 1.0859 0.1875 1.2305-0.14062 1.0391 0.15625 1.5469-0.050781 1.8984 0.22656 1.0234 0.11328 1.3672-0.46094 1.6094-0.60156 0.84766-0.22266" fill="none" stroke="#fff" stroke-linecap="round" stroke-linejoin="round" stroke-miterlimit="10" stroke-width="2"/>
<path d="m178.1 262.63 0.40625 0.11328 0.33984 0.94141 0.30859 1.3945 1.207 0.75781 0.60156 1.25 0.13281 1.0586 0.13281 1.2227-0.023438 1.2812-0.16406 1.2188-0.40625 1.0977-0.74609 1.1484-0.71094 1.3594-0.10156 1.5938-0.058594 1.1719-0.070312 1.3555-0.16406 1.1797 0.125 1.5625 0.61328 1.8672 2.4375 2.9766 1.457-0.19141 1.6172-0.46094 1.6211-0.60156 1.0742-0.39453 1.1406-0.44141 1.1328-0.37109 1.5625-0.44141 2.0547-0.61328 1.4922-0.36328 2.6953-0.73438 3.1562 2.4062 0.65234 1.1211 0.11719 1.082 0.87109 0.9375 0.73047 0.70703-0.32422 1.0469-0.33984 0.95703-0.65625 1.3281-0.35547 1.1328 1.5273 0.80469 1.7695-0.26562 1.4922-0.90234 1.1133-0.25 7.0078-1.0273 11.309 1.5703 1.3516 1.0898 1.2656 1.0234 4.7227 3.8242-1.1992 1.1719-1.3438 1.6484-0.75781 0.84375-0.73828 0.95312-0.84375 1.1289-0.71875 1.0625-0.58594 1.0625-0.73828 1.4375-0.69141 1.3828-1.1523 1.6484-0.71484 1.3672-0.5625 1.3047-0.47656 1.2148-2.0938 4.3086-1.8984 2.4844-2.3438 3.832-3.3477 3.7266-8.5234 7.9336-2.2773 1.0352-3.5859 0.96484-3.8906 0.26953-1.1641-0.007813-1.4766-0.050781-2.0859-5.1328-2.2344-0.046875-1.1953-0.36719-0.73828-0.74219-1.8945-0.92188-1.8867-1.1484-0.92188-0.55469-1.2461-0.60156-1.7969-0.41406-2.4883-0.042969-1.125-0.58594-2.6992-1.3984-0.41016-1.1836-2.4023-0.75391-1.1055-0.82812-1.5703-0.55469-2.7188-1.4727-4.0195 0.27344-2.5273 0.27734-3.4062-0.46094-3.1875 0.32812-0.73438 1.1055h-1.0625l-1.3359 0.17578-3-1.793-1.2383-1.1523-0.74219-1.3828-0.78125-1.1992-3.2266-1.0117-3.043-2.2109-1.6133-1.0625-0.92188-0.46094-1.2891-0.32422-1.4336-0.089844-1.4258-0.73438-1.0742-0.12891-1.1992-0.55859-1.1914-0.41016-0.76562-0.70312-0.78516-0.74609-1.1055-0.49219-0.32031-1.3281 1.9375-4.0078 1.3203-2.7773 0.49609-1.0391 0.61328-0.82812 0.45703-1.418 1.9297-4.1484 2.6406-5.6094 1.1914 0.27734 1.0977 0.39844 1.1719 0.42188 1.1914 0.46484 1.3086 0.24219 1.0156 0.27734 1.7773 0.51172 2.3203-2.8828 1.4961-2.918 2.8125-5.125 0.92578 0.89453 2.4219-2.2812 3.707-2.5664 0.4375-1.2734 0.76172-1.0469 1.625-0.70312 1.0898-0.62891 0.50781-1.1172 0.46094-0.97656 0.79688-0.87109 1.5664-1.1133 1.0703-0.5625 1.4141-0.41406 0.62109-0.82812 0.52734-1.2227 0.37891-1.0273 0.15625-1.0078 0.17578-1.875 0.18359-1.4258 0.09375-1.5938z" fill="#ccc" fill-rule="evenodd"/>
<path d="m178.1 262.63 0.40625 0.11328 0.33984 0.94141 0.30859 1.3945 1.207 0.75781 0.60156 1.25 0.13281 1.0586 0.13281 1.2227-0.023438 1.2812-0.16406 1.2188-0.40625 1.0977-0.74609 1.1484-0.71094 1.3594-0.10156 1.5938-0.058594 1.1719-0.070312 1.3555-0.16406 1.1797 0.125 1.5625 0.61328 1.8672 2.4375 2.9766 1.457-0.19141 1.6172-0.46094 1.6211-0.60156 1.0742-0.39453 1.1406-0.44141 1.1328-0.37109 1.5625-0.44141 2.0547-0.61328 1.4922-0.36328 2.6953-0.73438 3.1562 2.4062 0.65234 1.1211 0.11719 1.082 0.87109 0.9375 0.73047 0.70703-0.32422 1.0469-0.33984 0.95703-0.65625 1.3281-0.35547 1.1328 1.5273 0.80469 1.7695-0.26562 1.4922-0.90234 1.1133-0.25 7.0078-1.0273 11.309 1.5703 1.3516 1.0898 1.2656 1.0234 4.7227 3.8242-1.1992 1.1719-1.3438 1.6484-0.75781 0.84375-0.73828 0.95312-0.84375 1.1289-0.71875 1.0625-0.58594 1.0625-0.73828 1.4375-0.69141 1.3828-1.1523 1.6484-0.71484 1.3672-0.5625 1.3047-0.47656 1.2148-2.0938 4.3086-1.8984 2.4844-2.3438 3.832-3.3477 3.7266-8.5234 7.9336-2.2773 1.0352-3.5859 0.96484-3.8906 0.26953-1.1641-0.007813-1.4766-0.050781-2.0859-5.1328-2.2344-0.046875-1.1953-0.36719-0.73828-0.74219-1.8945-0.92188-1.8867-1.1484-0.92188-0.55469-1.2461-0.60156-1.7969-0.41406-2.4883-0.042969-1.125-0.58594-2.6992-1.3984-0.41016-1.1836-2.4023-0.75391-1.1055-0.82812-1.5703-0.55469-2.7188-1.4727-4.0195 0.27344-2.5273 0.27734-3.4062-0.46094-3.1875 0.32812-0.73438 1.1055h-1.0625l-1.3359 0.17578-3-1.793-1.2383-1.1523-0.74219-1.3828-0.78125-1.1992-3.2266-1.0117-3.043-2.2109-1.6133-1.0625-0.92188-0.46094-1.2891-0.32422-1.4336-0.089844-1.4258-0.73438-1.0742-0.12891-1.1992-0.55859-1.1914-0.41016-0.76562-0.70312-0.78516-0.74609-1.1055-0.49219-0.32031-1.3281 1.9375-4.0078 1.3203-2.7773 0.49609-1.0391 0.61328-0.82812 0.45703-1.418 1.9297-4.1484 2.6406-5.6094 1.1914 0.27734 1.0977 0.39844 1.1719 0.42188 1.1914 0.46484 1.3086 0.24219 1.0156 0.27734 1.7773 0.51172 2.3203-2.8828 1.4961-2.918 2.8125-5.125 0.92578 0.89453 2.4219-2.2812 3.707-2.5664 0.4375-1.2734 0.76172-1.0469 1.625-0.70312 1.0898-0.62891 0.50781-1.1172 0.46094-0.97656 0.79688-0.87109 1.5664-1.1133 1.0703-0.5625 1.4141-0.41406 0.62109-0.82812 0.52734-1.2227 0.37891-1.0273 0.15625-1.0078 0.17578-1.875 0.18359-1.4258 0.09375-1.5938 12.258 3.3945" fill="none" stroke="#fff" stroke-linecap="round" stroke-linejoin="round" stroke-miterlimit="10" stroke-width="2"/>
<path d="m115.65 307.52-0.003906 0.09375 0.82031 0.60547 1.0625 1.0273 0.80859 0.60156 1.0781 0.30859 1.1367-0.17578 1.0156 0.26953 1.1016 0.20703 1.0234 0.48828 1.0391 1.0078 0.86719 0.5625 1.1953 0.37891 1.0898 0.10156 2.125 1.1406 1.4336 0.089844 1.2891 0.32422 0.92188 0.46094 0.875 1.2461 3.6914 1.9609 3.3164 1.0781 0.78125 1.1992 0.74219 1.3828 1.2383 1.1523 3 1.793 1.3359-0.17578h1.0625l0.73438-1.1055 2.9023-0.054688 3.6914 0.1875 1.8398-0.23047 4.707-0.32031 2.6523 1.4375 1.2617 0.45703 1.4805 0.96094 1.6133 0.41797 1.1328 1.3281 2.7656 1.5898 1.125 0.58594 2.4883 0.042969 1.7969 0.41406 0.90625 0.65234 1.2617 0.50391 1.8867 1.1484 1.1055 0.55859 0.97656 0.55469 1.332 0.55078 2.1992 0.32812 2.5352 5.2188-1.1094 0.75-2.9258 1.6133-1.3789 0.48438-1.0078 0.58203-1.1289 1.1641-2.5 0.875-0.93359 0.46484-0.91016 0.71875-0.71875 0.8125-1.2422 2.7383-1.7461 2.793-1.0117 1.6172-0.77344 1.0234-1.1484 0.93359-4.1719 2.6758-2.0156 1.9414-3.8516 2.2422-1.9297 1.4219-2.125 2.5-1.2617 1.8203-2.9922 3.2227-1.4297 1.0312-1.3555 1.1836-1.7891 1.2891-0.82812 0.88281-0.32812 1.0859 0.070312 1.2266-0.46094 1.6992-0.23047 1.5234-0.003906 1.3594 0.44531 1.2422 0.66016 1.3828 0.44531 1.5703 0.18359 1.5742 0.015625 1.1797-0.92969 1.2461-0.48047 0.875 0.11328 1.1641 0.35938 1.1055-1.4141 0.83594-0.70703 1.9805-1.0938 0.90234-0.44922 1.1562-0.85547 1.2266-1.1484 0.75391-0.74609 1.375-1.2578 1.5586-0.125 1.6406-0.24219 1.0078-0.88281 0.69141-0.93359 1.2578 0.59766 1.4336-0.11328 1.2617-1.1211 0.41016-1.2578 0.69922-0.57422 1.5156-2.9297 3.4062-0.85938-0.72656-1.0156-1.3242-1.7344-1.2617-1.5195-1.3164-2.8711-1.8555-0.90234-0.75391-1.2188-1.25-2.1289-1.6914-1.6797-1.1328-1.1562-0.96094-1.7227-1.3516-0.71484-0.82031-0.37109-1.1211-0.24609-1.8359-0.0625-1.5898 0.11719-1.2383-0.26172-1.3789-1.2891-2.0938-0.83203-0.82812-1.1406-1.2969-0.71875-0.83203-0.91797-0.82422-1.1719-1.1914-1.707-1.3633-1.7969-1.5508-3.582-3.0234-1.3281-1.0273-0.79297-0.82422-0.64844-0.92969-0.70312-0.83594-1.4141-1.3789-1.168-1.0898-1.3203-1.457-1.5742-1.707-1.8789-1.9336-1.582-1.332-1.4102-1.0664-1.0078-1.3359-1.0508-1.2461-1.957-1.6289-1.1758-1.1289-0.55078-1.1875-1.4023-1.1211-1.1328-1.2227-0.93359-1.2188-1.1836-1.4727-1.2969-1.4922-1.3242-1.6406-0.84375-0.82031-1.5078-2.4375-0.91797-1.5156-3.1484-3.6367-0.78125-1.0742-1.1523-1.7773-0.58984-1.0078-0.55078-1.5117-0.054687-1.1836-0.72266-1.6758-0.77344-1.2305-0.46484-1.4688 0.035157-1.3242-0.015625-1.3008-0.71875-1.1055-0.44922-0.93359-0.70312-0.85938-0.30859-1.0078 0.16016-2.9883-0.03125-1.125-0.14844-1.0469-0.46094-1.0586-0.48047-0.91406 2.2812-0.97656 4.3086-1.2891 7.9883-2.1406 1.4766-0.38281 2.1055-0.54297 6.0391-1.5664 7.9883-2.1367 6.9727-1.7422 1.6562-0.4375 12.16-3.2188 1.0117-0.375z" fill="#ccc" fill-rule="evenodd"/>
<path d="m115.65 307.52-0.003906 0.09375 0.82031 0.60547 1.0625 1.0273 0.80859 0.60156 1.0781 0.30859 1.1367-0.17578 1.0156 0.26953 1.1016 0.20703 1.0234 0.48828 1.0391 1.0078 0.86719 0.5625 1.1953 0.37891 1.0898 0.10156 2.125 1.1406 1.4336 0.089844 1.2891 0.32422 0.92188 0.46094 0.875 1.2461 3.6914 1.9609 3.3164 1.0781 0.78125 1.1992 0.74219 1.3828 1.2383 1.1523 3 1.793 1.3359-0.17578h1.0625l0.73438-1.1055 2.9023-0.054688 3.6914 0.1875 1.8398-0.23047 4.707-0.32031 2.6523 1.4375 1.2617 0.45703 1.4805 0.96094 1.6133 0.41797 1.1328 1.3281 2.7656 1.5898 1.125 0.58594 2.4883 0.042969 1.7969 0.41406 0.90625 0.65234 1.2617 0.50391 1.8867 1.1484 1.1055 0.55859 0.97656 0.55469 1.332 0.55078 2.1992 0.32812 2.5352 5.2188-1.1094 0.75-2.9258 1.6133-1.3789 0.48438-1.0078 0.58203-1.1289 1.1641-2.5 0.875-0.93359 0.46484-0.91016 0.71875-0.71875 0.8125-1.2422 2.7383-1.7461 2.793-1.0117 1.6172-0.77344 1.0234-1.1484 0.93359-4.1719 2.6758-2.0156 1.9414-3.8516 2.2422-1.9297 1.4219-2.125 2.5-1.2617 1.8203-2.9922 3.2227-1.4297 1.0312-1.3555 1.1836-1.7891 1.2891-0.82812 0.88281-0.32812 1.0859 0.070312 1.2266-0.46094 1.6992-0.23047 1.5234-0.003906 1.3594 0.44531 1.2422 0.66016 1.3828 0.44531 1.5703 0.18359 1.5742 0.015625 1.1797-0.92969 1.2461-0.48047 0.875 0.11328 1.1641 0.35938 1.1055-1.4141 0.83594-0.70703 1.9805-1.0938 0.90234-0.44922 1.1562-0.85547 1.2266-1.1484 0.75391-0.74609 1.375-1.2578 1.5586-0.125 1.6406-0.24219 1.0078-0.88281 0.69141-0.93359 1.2578 0.59766 1.4336-0.11328 1.2617-1.1211 0.41016-1.2578 0.69922-0.57422 1.5156-2.9297 3.4062-0.85938-0.72656-1.0156-1.3242-1.7344-1.2617-1.5195-1.3164-2.8711-1.8555-0.90234-0.75391-1.2188-1.25-2.1289-1.6914-1.6797-1.1328-1.1562-0.96094-1.7227-1.3516-0.71484-0.82031-0.37109-1.1211-0.24609-1.8359-0.0625-1.5898 0.11719-1.2383-0.26172-1.3789-1.2891-2.0938-0.83203-0.82812-1.1406-1.2969-0.71875-0.83203-0.91797-0.82422-1.1719-1.1914-1.707-1.3633-1.7969-1.5508-3.582-3.0234-1.3281-1.0273-0.79297-0.82422-0.64844-0.92969-0.70312-0.83594-1.4141-1.3789-1.168-1.0898-1.3203-1.457-1.5742-1.707-1.8789-1.9336-1.582-1.332-1.4102-1.0664-1.0078-1.3359-1.0508-1.2461-1.957-1.6289-1.1758-1.1289-0.55078-1.1875-1.4023-1.1211-1.1328-1.2227-0.93359-1.2188-1.1836-1.4727-1.2969-1.4922-1.3242-1.6406-0.84375-0.82031-1.5078-2.4375-0.91797-1.5156-3.1484-3.6367-0.78125-1.0742-1.1523-1.7773-0.58984-1.0078-0.55078-1.5117-0.054687-1.1836-0.72266-1.6758-0.77344-1.2305-0.46484-1.4688 0.035157-1.3242-0.015625-1.3008-0.71875-1.1055-0.44922-0.93359-0.70312-0.85938-0.30859-1.0078 0.16016-2.9883-0.03125-1.125-0.14844-1.0469-0.46094-1.0586-0.48047-0.91406 2.2812-0.97656 4.3086-1.2891 7.9883-2.1406 1.4766-0.38281 2.1055-0.54297 6.0391-1.5664 7.9883-2.1367 6.9727-1.7422 1.6562-0.4375 12.16-3.2188 1.0117-0.375 0.21875 0.21875" fill="none" stroke="#fff" stroke-linecap="round" stroke-linejoin="round" stroke-miterlimit="10" stroke-width="2"/>
<path d="m124.66 219.6 0.96484 0.21875 1.2344 0.45312 0.87891 0.78516 1.1562 1.2461 0.88672 0.60547 0.40625 1.1445 0.35547 1.1875 0.91406 0.80469 0.79297 2.4766 0.14453 1.5586 0.33203 1.3359 1.8633 1.0273 1.1562 0.51953 0.82422 0.60547 0.99219 0.33203 1.3711 0.11719 1.0469-0.29297 0.5 1.2812 0.34766 1.1055 0.77734 2.3828 0.61719 1.4805 0.69141 1.1836 0.59375 2.0195-0.23828 3.2539-0.47656 5.3906-0.1875 2.1406 10.992 2.4961 12.246 2.7773-0.09375 1.5938-0.18359 1.4258-0.17578 1.875-0.15625 1.0078-0.37891 1.0273-0.52734 1.2227-0.62109 0.82812-1.4141 0.41406-1.0703 0.5625-1.5664 1.1133-0.79688 0.87109-0.46094 0.97656-0.50781 1.1172-1.0898 0.62891-1.2031 0.60156-1.1836 1.1484-0.22656 1.043-3.918 2.7969-2.4219 2.2812-0.90625-0.875-2.832 5.1055-1.4961 2.918-1.6367 3.0273-1.5742-0.44531-1.4805-0.31641-1.1211-0.30469-1.0938-0.27734-1.0664-0.39062-1.0547-0.43359-1.2461-0.33594-3.4414 5.375-1.9297 4.1484-0.52734 1.1055-0.54297 1.1406-0.49609 1.0391-1.3203 2.7773-1.9375 4.0078-0.57422 1.2148-1.0156-0.26953-1.1367 0.17578-1.0781-0.30859-0.80859-0.60156-0.71875-0.72266-0.81641-0.74609-0.42578-0.99219-0.10156-2.4102-0.18359-0.98828-0.36328-2.2383-0.24609-0.97266-0.44141-1.8672-0.34766-1.543-0.61328-1.1953-0.097657-1.3047 0.046875-2.1211-0.039062-1.7539-0.19531-1.543-0.089843-1 0.089843-1.0508 1.3867-3.0078 0.83984-1.2383 0.80078-0.75781-0.60156-1.7266-2.0078-1.6484-1-0.51562-2.1562-1.9648-1.9609-1.5-2.1406-2.832-0.8125-1.0352-2.4297-3.0859-3.7773-2.4883-0.87891-2.2773-0.36719-0.94922-1.3398-1.6641-1.4688-1.4688-2.7578-2.6758-3.0977-1.7266-1.1797-0.71094-1.1094-0.62109-1.2617 0.17578-0.94922-0.33203-1.8164-0.64062-1.1992-0.39062-1.8164-0.33203-0.92578 0.49219-2.1211 1.4492-0.53516 0.875-1.3359 0.76172-1.5898 0.39453-1.582 0.59375 0.085938-1.2773 0.41406-1.7539 0.41797-1.9375 0.35547-1.5039 0.33594-1.6289 0.19922-1.0547 0.97266-1.2773 0.92188-0.97266 2.2617-0.70312 1.1367-0.69922 0.81641-1.1367 2.4297-0.21484 1.4531-1.2969 0.97266-1.0273 0.97266-0.59375 1.5391-0.51953 1.1055-1.0039 2.3164-1.8164 1.1055-0.62109 1.3438-1.1328 2.543-2.3125 3.6953-5.1406 1.5273-2.2891 1.5977-1.5781 1.2539-0.84766 1.2773-0.86719 1.5508 0.23828 3.7109 0.69531 1.1602-0.058593 1.7461-0.25781h1.4102l1.4609-0.0625 1.1875-0.19922 1.082 0.69141 1.1406-0.035157 1.1602-0.83203 1.0938-0.78516 1.2812-0.375 0.98828-0.39062z" fill="#ccc" fill-rule="evenodd"/>
<path d="m124.66 219.6 0.96484 0.21875 1.2344 0.45312 0.87891 0.78516 1.1562 1.2461 0.88672 0.60547 0.40625 1.1445 0.35547 1.1875 0.91406 0.80469 0.79297 2.4766 0.14453 1.5586 0.33203 1.3359 1.8633 1.0273 1.1562 0.51953 0.82422 0.60547 0.99219 0.33203 1.3711 0.11719 1.0469-0.29297 0.5 1.2812 0.34766 1.1055 0.77734 2.3828 0.61719 1.4805 0.69141 1.1836 0.59375 2.0195-0.23828 3.2539-0.47656 5.3906-0.1875 2.1406 10.992 2.4961 12.246 2.7773-0.09375 1.5938-0.18359 1.4258-0.17578 1.875-0.15625 1.0078-0.37891 1.0273-0.52734 1.2227-0.62109 0.82812-1.4141 0.41406-1.0703 0.5625-1.5664 1.1133-0.79688 0.87109-0.46094 0.97656-0.50781 1.1172-1.0898 0.62891-1.2031 0.60156-1.1836 1.1484-0.22656 1.043-3.918 2.7969-2.4219 2.2812-0.90625-0.875-2.832 5.1055-1.4961 2.918-1.6367 3.0273-1.5742-0.44531-1.4805-0.31641-1.1211-0.30469-1.0938-0.27734-1.0664-0.39062-1.0547-0.43359-1.2461-0.33594-3.4414 5.375-1.9297 4.1484-0.52734 1.1055-0.54297 1.1406-0.49609 1.0391-1.3203 2.7773-1.9375 4.0078-0.57422 1.2148-1.0156-0.26953-1.1367 0.17578-1.0781-0.30859-0.80859-0.60156-0.71875-0.72266-0.81641-0.74609-0.42578-0.99219-0.10156-2.4102-0.18359-0.98828-0.36328-2.2383-0.24609-0.97266-0.44141-1.8672-0.34766-1.543-0.61328-1.1953-0.097657-1.3047 0.046875-2.1211-0.039062-1.7539-0.19531-1.543-0.089843-1 0.089843-1.0508 1.3867-3.0078 0.83984-1.2383 0.80078-0.75781-0.60156-1.7266-2.0078-1.6484-1-0.51562-2.1562-1.9648-1.9609-1.5-2.1406-2.832-0.8125-1.0352-2.4297-3.0859-3.7773-2.4883-0.87891-2.2773-0.36719-0.94922-1.3398-1.6641-1.4688-1.4688-2.7578-2.6758-3.0977-1.7266-1.1797-0.71094-1.1094-0.62109-1.2617 0.17578-0.94922-0.33203-1.8164-0.64062-1.1992-0.39062-1.8164-0.33203-0.92578 0.49219-2.1211 1.4492-0.53516 0.875-1.3359 0.76172-1.5898 0.39453-1.582 0.59375 0.085938-1.2773 0.41406-1.7539 0.41797-1.9375 0.35547-1.5039 0.33594-1.6289 0.19922-1.0547 0.97266-1.2773 0.92188-0.97266 2.2617-0.70312 1.1367-0.69922 0.81641-1.1367 2.4297-0.21484 1.4531-1.2969 0.97266-1.0273 0.97266-0.59375 1.5391-0.51953 1.1055-1.0039 2.3164-1.8164 1.1055-0.62109 1.3438-1.1328 2.543-2.3125 3.6953-5.1406 1.5273-2.2891 1.5977-1.5781 1.2539-0.84766 1.2773-0.86719 1.5508 0.23828 3.7109 0.69531 1.1602-0.058593 1.7461-0.25781h1.4102l1.4609-0.0625 1.1875-0.19922 1.082 0.69141 1.1406-0.035157 1.1602-0.83203 1.0938-0.78516 1.2812-0.375 0.98828-0.39062 0.83984 0.22656" fill="none" stroke="#fff" stroke-linecap="round" stroke-linejoin="round" stroke-miterlimit="10" stroke-width="2"/>
<path d="m81.895 132.15 0.91797 0.45703 0.80078 0.88281 0.69531 1.0039 1.168-0.042969 1.2422 0.54297 0.79688 1.168 0.21875 1.1055 0.625 1.1914 0.9375 0.40625 0.99609 0.92969 0.69141 1.2109 0.30078 1.0078 0.89062 2.2461 0.39453 1.2852 1.1133 1.4297 2.5938 2.25 1.1211-0.14453 1.0938 0.10938 0.83203-1.0508 0.39453-1.0664 0.44141-0.98047-0.17969-1.2852 1.3594-1.2891 1.125-0.097656 1.3359 0.26172 1.4727 0.52734 1.1562 0.57031 1.3828 0.75 1.1172 0.97266 0.36719 1.5664-0.3125 1.543 1.4336-0.19141 1.3789-0.96875 1.1445-0.66797 1.125-0.11328 1.1445 0.46094 0.71875 0.80469 0.63672 1.4062 0.29688 1.0586 0.85938 1.1094 1.1406 0.51953 0.98438 0.59375 0.50781 1.1406 0.52344 1.1211 0.5625 0.85547 0.27734 1.1328-0.37891 1.3203-0.15234 1.9258-0.039062 1.1211-0.75391 1.1289-1.2031 1.5625-0.83203 1.3398-0.66406 0.8125-0.78906 1.5273-0.75391 1.4609-0.12891 1.1133v1.2422l-0.070313 1.1445-0.55469 1.6367-0.28125 1.582-0.28516 1.8594-0.23047 1.0195 0.09375 1.4219 0.74609 11.219 4.918 2.8008 0.96094 0.60938 0.73047 3.2617 2.0469 1.1172 3.8711 1.5781 1.7422 0.73438 1.5859 0.67188 1.9023 0.80078 5.9805 2.8672-0.29688 2.582-0.015625 1.1797-0.007813 1.8359 0.035156 1.1133-0.46484 1.0352-0.48828 2.6562-0.3125 1.6172 0.058594 1.1328 0.60938 1.6211 1.0234 1.0977 0.78516 0.88672 0.19922 1.1016-0.60547 0.95312-0.21484 1.4609 0.65625 1.0078 0.39062 1.4336 0.25391 1.3945 0.03125 1.2617-0.35547 1.125-1.5273 0.76562-1.3711-0.11719-0.99219-0.33203-0.82422-0.60547-1.1562-0.51953-1.3281-0.59375-0.83594-1.1445-0.078125-1.5273-0.34375-2.4609-0.89062-0.86328-0.85938-1.2891-0.17578-1.0117-0.75781-0.96094-0.92578-0.78516-1.082-1.2422-1.293-0.60156-1.3594-0.36328-1.332-0.10156-0.98047 0.33203-1.4609 0.78516-0.91797 0.65625-1.332 0.66016-1.1875-0.67578-1.5625 0.042969-1.4609 0.0625-1.2812 0.007813-1.0039 0.070312-1.8438 0.26172-3.8984-0.71875-1.5508-0.23828-1.2773 0.86719-1.2539 0.84766-1.5977 1.5781-1.1914 1.6367-4.0312 5.793-2.1094 1.8047-0.95703 1.1133-1.9258 1.1484-2.3164 1.8164-1.1055 1.0039-1.5391 0.51953-0.97266 0.59375-0.97266 1.0273-1.4531 1.2969-2.4297 0.21484-0.81641 1.1367-1.1367 0.69922-2.2617 0.70312-0.92188 0.97266-0.75 0.9375-0.42188 1.3945-0.32031 1.5664-0.37109 1.5664-0.55859 1.293v1.4688l-0.36328 1.8477 1.5859-0.23438 1.5898-0.39453 1.3359-0.76172 0.53516-0.875 1.5273-1.0391 1.5195-0.90234 1.8164 0.33203 1.1992 0.39062 1.2656 0.43359 1.5 0.53906 1.2617-0.17578 1.1094 0.62109 1.1797 0.71094 2.3359 1.2734 3.5195 3.1289 1.4688 1.4688 1.3398 1.6641 0.36719 0.94922 0.87891 2.2773 3.7773 2.4883 2.4297 3.0859 0.78906 1.0039 1.5508 2.1875 2.5742 2.1758 2.1562 1.9648 1 0.51562 2.0078 1.6484 0.54297 1.5273-0.74219 0.95703-0.83984 1.2383-1.3867 3.0078-0.089843 1.0508 0.089843 1 0.19531 1.543 0.039062 1.7539-0.046875 2.1211 0.097657 1.3047 0.61328 1.1953 0.34766 1.543 0.44141 1.8672 0.24609 0.97266 0.32422 1.793 0.22266 1.4336 0.074219 1.8594 0.0625 1.043-1.1836 0.39844-12.16 3.2188-1.6562 0.4375-6.9727 1.7422-7.9883 2.1367-6.0391 1.5664-2.1055 0.54297-1.4414 0.375-8.0234 2.1484-4.3086 1.2891-2.2812 0.97656-0.98828-1.4023-0.57812-0.90625-1.2578-1.6719-0.46094-1.6641 0.23828-1.0742 1.2578-1.582 0.48047-1.1562 0.17578-1.1641-0.76953-2.1328-0.71094-1.5547-2.3086-3.4609-2.1211-2.5273-1.4375-0.95312-1.7812-1.9766-1.3945-1.3047-1-1.1094-1.8477-1.6953-2.5664-2.6719-1.3281-1.2695-0.69141-0.81641-0.69141-0.91797-0.67578-0.75-1.5039-1.0781-0.92578-0.71484-1.2148-1.2773-0.80859-0.68359-1.8203-1.7383-2.0039-1.7031-1.8828-1.8203-1.3984-1.1562-2.4375-1.8359-1.0117-1.1055-2.1172-2.0391-1.1875-0.86328-1.5781-1.2617-2.1562-2.0938-1.8711-1.8516-1.2891-1.3125-1.5195-1.3633-0.91016-0.89062-1.0977-1.2227-2.3828-2.793-1.9258-1.8906-0.91406-1.0625-2.4453-2.2227-0.90234-0.89062-0.61719-0.85547-0.54297-1.0859-0.875-0.64062-0.48438-1.0508-0.97656-0.91797 0.035156-1.1602 0.003907-1.2305-0.22656-1.0508 1.168-0.41406 0.62891-0.97656 1.3594-0.44922 1-0.53125 0.88672-0.53516 1.0469 0.35156 0.85156-0.59375 1.2109-0.03125 1.1055-0.84375 0.92578-0.61328 1.6289-0.074218 2.3594-0.65234 0.91406-0.48438 1.1641-0.69922 1.6953-1.5938 0.89844-0.60156 1.0234-0.51562 0.86328-0.78906 0.60547-1.2891 0.44141-1.4062 0.80469-1.0469 0.16797-1.3633 0.16797-1.6562-0.11328-1.8828-0.085938-1.3711-0.082031-2.2266-0.074219-1.543-0.41406-1.418-0.37109-1.9102-0.33203-1.3008-0.66797-1.668-4.6406-10.488-1.7227-3.0859-2.082-4.4492-1.5781-2.2227-2.6758-4.4961-0.69531-1.0273 52.059-28.922 1.7617-1.7969 0.91406-1.3203 0.96484-0.73438 1-0.62109 0.66797-1.8164 0.53516-1.457 1.9219-2.0625 0.80469-0.95703 0.78125-2.2031 0.42188-0.96094 0.60156-0.94531 0.83203-0.80469 0.40234-1.5391 0.097657-1.2656-0.14062-1.7891 0.94531-2.3945 1.4766-1.5391 0.92188-0.57422 2.0078-0.92969 1.3711-0.6875 1.043-1.5547 0.85938-0.69922 1.2656-0.3125z" fill="#ccc" fill-rule="evenodd"/>
<path d="m81.895 132.15 0.91797 0.45703 0.80078 0.88281 0.69531 1.0039 1.168-0.042969 1.2422 0.54297 0.79688 1.168 0.21875 1.1055 0.625 1.1914 0.9375 0.40625 0.99609 0.92969 0.69141 1.2109 0.30078 1.0078 0.89062 2.2461 0.39453 1.2852 1.1133 1.4297 2.5938 2.25 1.1211-0.14453 1.0938 0.10938 0.83203-1.0508 0.39453-1.0664 0.44141-0.98047-0.17969-1.2852 1.3594-1.2891 1.125-0.097656 1.3359 0.26172 1.4727 0.52734 1.1562 0.57031 1.3828 0.75 1.1172 0.97266 0.36719 1.5664-0.3125 1.543 1.4336-0.19141 1.3789-0.96875 1.1445-0.66797 1.125-0.11328 1.1445 0.46094 0.71875 0.80469 0.63672 1.4062 0.29688 1.0586 0.85938 1.1094 1.1406 0.51953 0.98438 0.59375 0.50781 1.1406 0.52344 1.1211 0.5625 0.85547 0.27734 1.1328-0.37891 1.3203-0.15234 1.9258-0.039062 1.1211-0.75391 1.1289-1.2031 1.5625-0.83203 1.3398-0.66406 0.8125-0.78906 1.5273-0.75391 1.4609-0.12891 1.1133v1.2422l-0.070313 1.1445-0.55469 1.6367-0.28125 1.582-0.28516 1.8594-0.23047 1.0195 0.09375 1.4219 0.74609 11.219 4.918 2.8008 0.96094 0.60938 0.73047 3.2617 2.0469 1.1172 3.8711 1.5781 1.7422 0.73438 1.5859 0.67188 1.9023 0.80078 5.9805 2.8672-0.29688 2.582-0.015625 1.1797-0.007813 1.8359 0.035156 1.1133-0.46484 1.0352-0.48828 2.6562-0.3125 1.6172 0.058594 1.1328 0.60938 1.6211 1.0234 1.0977 0.78516 0.88672 0.19922 1.1016-0.60547 0.95312-0.21484 1.4609 0.65625 1.0078 0.39062 1.4336 0.25391 1.3945 0.03125 1.2617-0.35547 1.125-1.5273 0.76562-1.3711-0.11719-0.99219-0.33203-0.82422-0.60547-1.1562-0.51953-1.3281-0.59375-0.83594-1.1445-0.078125-1.5273-0.34375-2.4609-0.89062-0.86328-0.85938-1.2891-0.17578-1.0117-0.75781-0.96094-0.92578-0.78516-1.082-1.2422-1.293-0.60156-1.3594-0.36328-1.332-0.10156-0.98047 0.33203-1.4609 0.78516-0.91797 0.65625-1.332 0.66016-1.1875-0.67578-1.5625 0.042969-1.4609 0.0625-1.2812 0.007813-1.0039 0.070312-1.8438 0.26172-3.8984-0.71875-1.5508-0.23828-1.2773 0.86719-1.2539 0.84766-1.5977 1.5781-1.1914 1.6367-4.0312 5.793-2.1094 1.8047-0.95703 1.1133-1.9258 1.1484-2.3164 1.8164-1.1055 1.0039-1.5391 0.51953-0.97266 0.59375-0.97266 1.0273-1.4531 1.2969-2.4297 0.21484-0.81641 1.1367-1.1367 0.69922-2.2617 0.70312-0.92188 0.97266-0.75 0.9375-0.42188 1.3945-0.32031 1.5664-0.37109 1.5664-0.55859 1.293v1.4688l-0.36328 1.8477 1.5859-0.23438 1.5898-0.39453 1.3359-0.76172 0.53516-0.875 1.5273-1.0391 1.5195-0.90234 1.8164 0.33203 1.1992 0.39062 1.2656 0.43359 1.5 0.53906 1.2617-0.17578 1.1094 0.62109 1.1797 0.71094 2.3359 1.2734 3.5195 3.1289 1.4688 1.4688 1.3398 1.6641 0.36719 0.94922 0.87891 2.2773 3.7773 2.4883 2.4297 3.0859 0.78906 1.0039 1.5508 2.1875 2.5742 2.1758 2.1562 1.9648 1 0.51562 2.0078 1.6484 0.54297 1.5273-0.74219 0.95703-0.83984 1.2383-1.3867 3.0078-0.089843 1.0508 0.089843 1 0.19531 1.543 0.039062 1.7539-0.046875 2.1211 0.097657 1.3047 0.61328 1.1953 0.34766 1.543 0.44141 1.8672 0.24609 0.97266 0.32422 1.793 0.22266 1.4336 0.074219 1.8594 0.0625 1.043-1.1836 0.39844-12.16 3.2188-1.6562 0.4375-6.9727 1.7422-7.9883 2.1367-6.0391 1.5664-2.1055 0.54297-1.4414 0.375-8.0234 2.1484-4.3086 1.2891-2.2812 0.97656-0.98828-1.4023-0.57812-0.90625-1.2578-1.6719-0.46094-1.6641 0.23828-1.0742 1.2578-1.582 0.48047-1.1562 0.17578-1.1641-0.76953-2.1328-0.71094-1.5547-2.3086-3.4609-2.1211-2.5273-1.4375-0.95312-1.7812-1.9766-1.3945-1.3047-1-1.1094-1.8477-1.6953-2.5664-2.6719-1.3281-1.2695-0.69141-0.81641-0.69141-0.91797-0.67578-0.75-1.5039-1.0781-0.92578-0.71484-1.2148-1.2773-0.80859-0.68359-1.8203-1.7383-2.0039-1.7031-1.8828-1.8203-1.3984-1.1562-2.4375-1.8359-1.0117-1.1055-2.1172-2.0391-1.1875-0.86328-1.5781-1.2617-2.1562-2.0938-1.8711-1.8516-1.2891-1.3125-1.5195-1.3633-0.91016-0.89062-1.0977-1.2227-2.3828-2.793-1.9258-1.8906-0.91406-1.0625-2.4453-2.2227-0.90234-0.89062-0.61719-0.85547-0.54297-1.0859-0.875-0.64062-0.48438-1.0508-0.97656-0.91797 0.035156-1.1602 0.003907-1.2305-0.22656-1.0508 1.168-0.41406 0.62891-0.97656 1.3594-0.44922 1-0.53125 0.88672-0.53516 1.0469 0.35156 0.85156-0.59375 1.2109-0.03125 1.1055-0.84375 0.92578-0.61328 1.6289-0.074218 2.3594-0.65234 0.91406-0.48438 1.1641-0.69922 1.6953-1.5938 0.89844-0.60156 1.0234-0.51562 0.86328-0.78906 0.60547-1.2891 0.44141-1.4062 0.80469-1.0469 0.16797-1.3633 0.16797-1.6562-0.11328-1.8828-0.085938-1.3711-0.082031-2.2266-0.074219-1.543-0.41406-1.418-0.37109-1.9102-0.33203-1.3008-0.66797-1.668-4.6406-10.488-1.7227-3.0859-2.082-4.4492-1.5781-2.2227-2.6758-4.4961-0.69531-1.0273 52.059-28.922 1.7617-1.7969 0.91406-1.3203 0.96484-0.73438 1-0.62109 0.66797-1.8164 0.53516-1.457 1.9219-2.0625 0.80469-0.95703 0.78125-2.2031 0.42188-0.96094 0.60156-0.94531 0.83203-0.80469 0.40234-1.5391 0.097657-1.2656-0.14062-1.7891 0.94531-2.3945 1.4766-1.5391 0.92188-0.57422 2.0078-0.92969 1.3711-0.6875 1.043-1.5547 0.85938-0.69922 1.2656-0.3125 0.99609 0.45312" fill="none" stroke="#fff" stroke-linecap="round" stroke-linejoin="round" stroke-miterlimit="10" stroke-width="2"/>
<path d="m194.55 341.71 3.7383 1.8633 1.3672-1.5117 1.7266-0.97656 2.082-0.29297 1.8789 0.94922 3.5312 1.7773-1.1523 1.9453-0.85938 0.62891-3.8086 9.1094-0.32031 1.1875-1.6406 4.2266-0.46094 2.6484-1.207 1.5-0.69141 1.9023-0.92188 4.0391-0.75781 0.70703-0.16406 1.7109 0.29297 1.1523-0.058594 2.4805-0.29297 1.0312 0.12109 1.3867 0.28125 1.4414-0.17188 1.1484-0.48047 0.96484-0.37891 1.2852 0.10938 1.0312 0.60156 0.99609 1.2812 0.67578 1.1914 0.85547 1.6523 1.2422 1.0977 0.79297 1.082 0.74219 1.125 0.71484 0.89062 0.68359 2.375-3.5898 8.0664 3.0938 0.20703 4.332 0.007812 1.793-0.023437 4.1758-0.13281 2.043 1.0117-0.29297 1.1367-0.28125 1.0703-0.36328 0.93359-0.36719 0.99219-0.49219 0.84766-0.53906 1.0977-0.86328 0.80469-0.60547 0.96094-0.48828 1.9648 2.8242 0.51562 1.0742 0.9375 1.9609 0.52734 1.2148 1.1797 1.2031 1.7031 1.3359 0.97266 3.3047 0.26172 2.0156 0.55078 0.96875 0.91406 1.1016 0.62891 1.2227-2.3398 2.3633-11.062 12.574-1.9492 0.79688-1.2383 0.96484-1.1016 0.99609-0.92578 1.2031-0.67578 1.5859-1.5586 3.5352-0.66016 1.2383-1.3516 0.58203-0.63281 0.85938-1.293 0.44531-1.0312 0.72266-2.1367 0.82422-1.9609 1.0742-1.707 0.35547-1.0078 0.30469-1.1367 0.65234-1.3945 0.49219-1.5 1.1055-1.3984 0.72656-1.2969 1.0703-0.87109 1.0469-1 1.0039-1.2539 1.543-1.418 1.0078-1.6016 1.8594-1.3242-0.91016-1.3398-1.2812-1.082-0.94141-0.65234-0.76172-1.375-1.0352-1.0039-0.91016-1.0117-0.92188-0.83594-0.66016-1.8398-1.3867-2.1836-1.7031-0.94531-0.62109-1.2461-0.92188-1.0469-0.69922-2.1289-1.3594-2.0547-1.582-0.91016-0.61328-1.3711-1.1406-1.3242-0.92188-1.4688-0.81641-1.0312-0.57031-1.2148-1.2031-1.957-1.2617-0.92578-0.77344-2.6133-1.9609-1.0625-0.90234-1.3359-0.89453-0.95312-0.55859-2.4766-1.7891-0.93359-0.60156-2.4297-1.5273-1.5078-1.1406-3.1406-2.5156-2.0938-1.1836-2.8828-2.2734-0.91797-0.62891-1.1797-0.6875-1.0273-0.80078 2.6055-2.8789 0.89844-2.043 1.2578-0.69922 1.1211-0.41016 0.19141-1.1797-0.73047-0.88672 0.39844-1.2812 1.1328-0.91406 0.58203-1.3906-0.023438-1.3359 1.1328-1.3906 0.55469-1.2109 1.1875-0.95703 1.0312-1.2344 0.26562-1 0.90625-0.72266 0.75391-1.9883 1.5977-1.2422 0.28125-1.0625-0.36328-1.5547 0.48047-0.875 0.76172-0.80078 0.15234-1.625-0.18359-1.5742-0.44531-1.5703-0.66016-1.3828-0.44531-1.2422 0.003906-1.3594 0.20312-0.99219 0.20312-1.4219 0.32812-1.0664-0.050781-1.4648 1.0938-1.4727 1.7891-1.2891 1.3555-1.1836 1.4297-1.0312 2.9922-3.2227 1.2617-1.8203 2.125-2.5 1.9297-1.4219 3.8516-2.2422 2.0156-1.9414 4.1719-2.6758 1.1484-0.93359 0.77344-1.0234 1.0117-1.6172 1.7461-2.793 1.2422-2.7383 0.71875-0.8125 0.91016-0.71875 0.93359-0.46484 1.7852-0.54297 1.8438-1.4961 1.0078-0.58203 1.3789-0.48438 2.9258-1.6133 1.1094-0.75z" fill="#ccc" fill-rule="evenodd"/>
<path d="m194.55 341.71 3.7383 1.8633 1.3672-1.5117 1.7266-0.97656 2.082-0.29297 1.8789 0.94922 3.5312 1.7773-1.1523 1.9453-0.85938 0.62891-3.8086 9.1094-0.32031 1.1875-1.6406 4.2266-0.46094 2.6484-1.207 1.5-0.69141 1.9023-0.92188 4.0391-0.75781 0.70703-0.16406 1.7109 0.29297 1.1523-0.058594 2.4805-0.29297 1.0312 0.12109 1.3867 0.28125 1.4414-0.17188 1.1484-0.48047 0.96484-0.37891 1.2852 0.10938 1.0312 0.60156 0.99609 1.2812 0.67578 1.1914 0.85547 1.6523 1.2422 1.0977 0.79297 1.082 0.74219 1.125 0.71484 0.89062 0.68359 2.375-3.5898 8.0664 3.0938 0.20703 4.332 0.007812 1.793-0.023437 4.1758-0.13281 2.043 1.0117-0.29297 1.1367-0.28125 1.0703-0.36328 0.93359-0.36719 0.99219-0.49219 0.84766-0.53906 1.0977-0.86328 0.80469-0.60547 0.96094-0.48828 1.9648 2.8242 0.51562 1.0742 0.9375 1.9609 0.52734 1.2148 1.1797 1.2031 1.7031 1.3359 0.97266 3.3047 0.26172 2.0156 0.55078 0.96875 0.91406 1.1016 0.62891 1.2227-2.3398 2.3633-11.062 12.574-1.9492 0.79688-1.2383 0.96484-1.1016 0.99609-0.92578 1.2031-0.67578 1.5859-1.5586 3.5352-0.66016 1.2383-1.3516 0.58203-0.63281 0.85938-1.293 0.44531-1.0312 0.72266-2.1367 0.82422-1.9609 1.0742-1.707 0.35547-1.0078 0.30469-1.1367 0.65234-1.3945 0.49219-1.5 1.1055-1.3984 0.72656-1.2969 1.0703-0.87109 1.0469-1 1.0039-1.2539 1.543-1.418 1.0078-1.6016 1.8594-1.3242-0.91016-1.3398-1.2812-1.082-0.94141-0.65234-0.76172-1.375-1.0352-1.0039-0.91016-1.0117-0.92188-0.83594-0.66016-1.8398-1.3867-2.1836-1.7031-0.94531-0.62109-1.2461-0.92188-1.0469-0.69922-2.1289-1.3594-2.0547-1.582-0.91016-0.61328-1.3711-1.1406-1.3242-0.92188-1.4688-0.81641-1.0312-0.57031-1.2148-1.2031-1.957-1.2617-0.92578-0.77344-2.6133-1.9609-1.0625-0.90234-1.3359-0.89453-0.95312-0.55859-2.4766-1.7891-0.93359-0.60156-2.4297-1.5273-1.5078-1.1406-3.1406-2.5156-2.0938-1.1836-2.8828-2.2734-0.91797-0.62891-1.1797-0.6875-1.0273-0.80078 2.6055-2.8789 0.89844-2.043 1.2578-0.69922 1.1211-0.41016 0.19141-1.1797-0.73047-0.88672 0.39844-1.2812 1.1328-0.91406 0.58203-1.3906-0.023438-1.3359 1.1328-1.3906 0.55469-1.2109 1.1875-0.95703 1.0312-1.2344 0.26562-1 0.90625-0.72266 0.75391-1.9883 1.5977-1.2422 0.28125-1.0625-0.36328-1.5547 0.48047-0.875 0.76172-0.80078 0.15234-1.625-0.18359-1.5742-0.44531-1.5703-0.66016-1.3828-0.44531-1.2422 0.003906-1.3594 0.20312-0.99219 0.20312-1.4219 0.32812-1.0664-0.050781-1.4648 1.0938-1.4727 1.7891-1.2891 1.3555-1.1836 1.4297-1.0312 2.9922-3.2227 1.2617-1.8203 2.125-2.5 1.9297-1.4219 3.8516-2.2422 2.0156-1.9414 4.1719-2.6758 1.1484-0.93359 0.77344-1.0234 1.0117-1.6172 1.7461-2.793 1.2422-2.7383 0.71875-0.8125 0.91016-0.71875 0.93359-0.46484 1.7852-0.54297 1.8438-1.4961 1.0078-0.58203 1.3789-0.48438 2.9258-1.6133 1.1094-0.75 2.457 1.8359" fill="none" stroke="#fff" stroke-linecap="round" stroke-linejoin="round" stroke-miterlimit="10" stroke-width="2"/>
<path d="m206.47 6.3477-0.19531 1.5117-0.18359 1.5938-0.058594 1.0508 0.28516 1.0859 1.7383 1.168 0.97656 0.38672 1.2227 0.39453 1 0.64062 0.38281 1.8125 0.6875 1.418 0.9375 0.90625 0.87891 0.58594 1.3438 1.2148 1.2227 0.74219 1.6797 0.23438 1.0625 0.29297 1.3672 2.4492 1.6133 0.85547 1.3633 1.3086 0.77734 0.73828 1.0625 0.81641 0.45703 1.6289 0.64453 1.1406 0.45703 1.0039 0.47266 2.0312 1.1211 0.81641 0.85156 1.2109 0.28516 1.8984 0.60938 1.5273 0.45312 0.93359 0.0625 1.0078-0.21484 1.8633 1.5195 0.85156 1.3633 0.17188 20.879 1.1836 3.1641 1.3555 17.887 10.238 2.9883 1.6094 1.8828 1.0156 1.0312 0.55469 9.7969 5.2773 1.3242 0.71484 4.4883 2.2969-0.52344 1.2656-1.1484 2.0156-1.0586 1.8516 0.11719 1.6133 0.0625 1.0938-0.56641 1.3281-0.35547 1.2891-0.20312 1.8359 0.050781 1.2188-0.23438 1.6406-0.43359 2.3438 0.011718 1.4922-0.15625 2.9375-0.14062 1.2812 0.03125 1.0195 0.92188 1.1719 0.625 1.0898 0.64453 0.91406 1.4219 1.332 0.97656 1.1484-0.15625 3.7266-0.085937 1.4414-0.082032 1.875 0.35547 1.2617 0.625 1.1992 0.28516 1.3516-0.51953 1-0.65625 1.293-0.6875 1.0352-0.54688 2.0781-0.23828 1.3711-0.56641 1.1758-0.4375 1.2695-0.77734 0.98438-0.67188 0.95703-1.1172 1.4453-1.6133 2.1562-1.2266 1.1172-1.4336 0.94922-1.4492 1.1406-1.1758 1.4531-1.7891 1.5039-0.96484 0.71094-1.0781 1.2656-1.0859 0.83594-1.0977 1.0078-1.043 1.5391-0.21484 1.793-0.75391 1.5273-0.33594 1.293-0.5 1.6328-0.99219 3.4727-0.56641 0.94922-0.007813 1.5859 0.11328 1.1445-0.55078 1.4883-0.39844 1.6992-0.70703 0.98828-0.40625 0.99609-0.75781 1.168-1.3828 1.3984-1.3906 2.4219-0.52344 1.4727-0.97656 1.0508-0.76953 1.3398-0.94922 1.1562-0.75391 1.0391-0.91406 2.4922-0.83203 1.5469-0.62891 1.2188-1.1562 1.2188-0.62109 0.99609-1.0234 1.4336-0.8125 0.60547-1.7773 0.49219-5.4336 1.4414-1.7852 0.51172-1.7617 0.70703-1.6133 0.22656-1.707 0.35547-1.5898 0.39062-4.8867 2.3164-1 0.46484-4.0781 1.9023-4.0508 2.4648-1.2891 0.76953-2.25 1.125-2.8789 1.7461-0.80469 0.63281-1.1055 1.1172-1.3398 1.0273-1.6289 1.3438-0.89062 0.98828-1.4062 1.1875-0.69141 0.75-1.6523 1-1.0742 0.375-1.25 0.71484-2.3203 1.5117-1.543 1.1211-1.3867 1.1328-1.4023 1.3438-4.2773 5.2109 2.5273 1.7227 1.1055 1.7266 1.4922 1.2344 0.79688 0.99609 0.55469 1.7891 1.0547 1.7266 1.0469 1.3594 1.8555 1.6133 1.4258 1.418 0.86328 0.92578 0.55469 1.3008 0.55859 2.2188 1.2969 2.5977 1.8398 5.1719 0.50781 3.3594 0.4375 0.98828 1.9141 1.3555 1.9766 1.8594 5.4414 5.4414 1.293 1.7891 2.4727 0.86719 2.7812-0.49609-0.61719 2.6562-0.011719 2.5508 0.24219 6.0156 0.082032 2.1211 0.95312 2.8438 1.1211 3.3672 0.36328 1.0781 11.984-0.76172 2.5938-0.0625 2.1289 1.8633 2.7422 3.1055-1.3828 0.46484-1.3828 0.66406-0.89062 0.68359-0.67969 1.0234-1.2578 1.6211-1.0938 0.91016-1.4375 1.3555-1.9219 0.98438-1.543 2.1406-0.66016 1.9961-0.84766 1.8711-1.3242 2.5625-3.2695 3.5273-4.4141 4.7656-5.0586-3.3984-1.2656-1.0234-1.3516-1.0898-10.773-1.6328-7.0469 0.875-1.6094 0.46484-1.1367 0.67969-1.2148 0.32812-1.9961-0.082032-0.24609-1.3203 0.66406-1.3359 0.49219-1.3242 0.33203-0.99609-0.73828-0.75781-0.87109-0.9375-0.11719-1.082-0.65234-1.1211-2.4844-2.5898-2.8438 0.78125-2.0156 0.5-2.0547 0.61328-1.1992 0.35156-1.3984 0.4375-1.0977 0.40234-1.0234 0.38672-1.2266 0.47266-1.6953 0.52344-1.293 0.31641-3.0156-2.6836-0.70703-2.1484-0.125-1.125 0.10938-1.207 0.097657-1.082 0.085937-1.8555 0.019531-1.0352 0.25781-1.1172 0.82031-1.1172 0.71484-1.4258 0.23828-1.1094 0.10938-1.3125-0.11719-1.2344-0.15625-1.6289-0.074219-1.0195-1.0859-0.33984-0.76953-1.3359-0.45703-1.2852-12.734-3.8711-12.246-2.7773-10.992-2.4961 0.1875-2.1406 0.47656-5.3906 0.25-2.8359-0.30078-1.7461-0.99609-1.875-0.61719-1.4805-0.57812-1.6836-0.54688-1.8047-0.14453-1.1719 0.48047-1.707-0.03125-1.2617-0.25391-1.3945-0.39062-1.4336-0.65625-1.0078 0.21484-1.4609 0.60547-0.95312-0.19922-1.1016-0.78516-0.88672-1.0234-1.0977-0.60938-1.6211-0.058594-1.1328 0.3125-1.6172 0.33984-2.0938 0.48047-1.1953 0.097656-1.0859v-1.582l0.023438-1.8633 0.22266-1.918-5.418-3.3242-1.7188-0.72656-1.3945-0.58594-2.0547-0.87109-4.4219-1.8086-1.3633-0.48438-1.168-3.1172-1.207-1.3867-4.918-2.8008-0.74609-11.219-0.09375-1.4219 0.23047-1.0195 0.20312-1.3906 0.36328-2.0508 0.55469-1.6367 0.070313-1.1445v-1.2422l0.12891-1.1133 0.75391-1.4609 0.78906-1.5273 0.66406-0.8125 0.83203-1.3398 1.2031-1.5625 0.75391-1.1289 0.039062-1.1211 0.03125-1.5234 0.32031-0.95312 0.16016-1.2227-0.51172-0.98047-0.62891-1.1328-0.40234-1.0938-0.62109-0.88281-1.1328-0.49219-1.0625-0.67188-0.57031-1.1016-0.60938-1.4844-0.375-0.92969-0.83594-0.69531-1.0508-0.31641 1.2578-1.3398 0.96094-2.1602 0.23828-1.7617 0.035156-1.0859 0.21484-2.3828 0.3125-1.5195 0.34766-1.0039 0.50391-1.2812 0.53906-0.9375 1.3398-1.2188 0.78516-0.73438 0.79688-0.88281 0.35547-1.1211-0.13672-1.1211 0.46094-1.1016 0.63281-1.1602 0.078125-1.125 0.63672-1.1406 0.80859-0.88281 1.0195-0.058594 1.2188 0.17969 1.0078 0.003907 1.0898-0.4375 0.76562-1.4609 0.078125-1.1523-0.29688-1.4609-0.32812-2.0078 0.078125-1.5586-0.09375-1.3984 0.15625-1.3242 0.85547-1.5391-0.03125-1.2773-1.2305-2.3516-0.80469-1.3125 0.066407-1.3672 0.14453-1.1172-0.19531-2.0117-0.375-1.7539-0.50391-0.92578-0.6875-0.88281 0.45703-1.1055 1.0703-0.85938 0.72266-0.70703 1.1797-0.39062 1.6484 0.37109 1.2422 0.60156 1.4336 1.5117 1.1523 0.66016 1.3203-0.32031 1.6758-1.4531 1.1523-0.64062 1.4727-0.26562 1.3555-1.0352 1.6406-0.8125 1.1523-0.66016 1.3203-0.88672 1.3359-0.41406 3.3789-0.24609 0.77344-0.77344-0.33984-1.3945-0.75391-1.6992-1.1523-1.6602-1.3203-1.9961-0.97656-1.0391-0.13672-1.7539 0.41406-2.0508 2.7812-4.5273 5.4453-7.5078 0.67578-2.2383 0.20703-1.0664 0.25-1.4531 0.33984-1.1914 0.42188-1.0273 1.832-0.94531 1.4102-0.13281 1.3633 0.42578 1.8008 0.45703 1.4453-1.1992 0.63672-0.8125 0.85156-0.8125 1.5781-0.13281 0.67969-1.0273-0.94531-1.9141-0.90234-1.1914-0.38672-1.0547-0.39062-1.0273 1.2773-0.81641 1.0117-0.48828 1.0469-0.3125 0.8125-0.60156 0.62109-0.85547 0.28516-0.98047 1.6914-1.5508 1.0586-0.90625 0.72656-0.72656 0.74609-1.6797 0.28125-2.1875 0.51172-1.9766 0.59766-0.89453 1.0039-0.87109 0.26172-1.0625 0.92188-0.69531 1.1562-0.070313 1.3398 0.25781 1.168 0.16406 1.4258-1.1836 1.2695-1.3594 1.0625-0.95312 1.2227-0.56641 0.89453-0.90234-0.23047-2.5234 1.25-1.2383 1.1016-1.4297 0.95312-1.7852 0.35156-1.5156 0.62109-1.1133-0.007812-1.9492-0.42969-1-0.60547-1.6445 1.3672-1.7188 2.043-1.6953 1.0859-1.3672 1.1406-1.1367 1.8008-1.5898 1.4414-0.35938 1.332-0.94922 1.5-0.47656 1.2852-0.33594 1.3867-0.47656z" fill="#ccc" fill-rule="evenodd"/>
<path d="m206.47 6.3477-0.19531 1.5117-0.18359 1.5938-0.058594 1.0508 0.28516 1.0859 1.7383 1.168 0.97656 0.38672 1.2227 0.39453 1 0.64062 0.38281 1.8125 0.6875 1.418 0.9375 0.90625 0.87891 0.58594 1.3438 1.2148 1.2227 0.74219 1.6797 0.23438 1.0625 0.29297 1.3672 2.4492 1.6133 0.85547 1.3633 1.3086 0.77734 0.73828 1.0625 0.81641 0.45703 1.6289 0.64453 1.1406 0.45703 1.0039 0.47266 2.0312 1.1211 0.81641 0.85156 1.2109 0.28516 1.8984 0.60938 1.5273 0.45312 0.93359 0.0625 1.0078-0.21484 1.8633 1.5195 0.85156 1.3633 0.17188 20.879 1.1836 3.1641 1.3555 17.887 10.238 2.9883 1.6094 1.8828 1.0156 1.0312 0.55469 9.7969 5.2773 1.3242 0.71484 4.4883 2.2969-0.52344 1.2656-1.1484 2.0156-1.0586 1.8516 0.11719 1.6133 0.0625 1.0938-0.56641 1.3281-0.35547 1.2891-0.20312 1.8359 0.050781 1.2188-0.23438 1.6406-0.43359 2.3438 0.011718 1.4922-0.15625 2.9375-0.14062 1.2812 0.03125 1.0195 0.92188 1.1719 0.625 1.0898 0.64453 0.91406 1.4219 1.332 0.97656 1.1484-0.15625 3.7266-0.085937 1.4414-0.082032 1.875 0.35547 1.2617 0.625 1.1992 0.28516 1.3516-0.51953 1-0.65625 1.293-0.6875 1.0352-0.54688 2.0781-0.23828 1.3711-0.56641 1.1758-0.4375 1.2695-0.77734 0.98438-0.67188 0.95703-1.1172 1.4453-1.6133 2.1562-1.2266 1.1172-1.4336 0.94922-1.4492 1.1406-1.1758 1.4531-1.7891 1.5039-0.96484 0.71094-1.0781 1.2656-1.0859 0.83594-1.0977 1.0078-1.043 1.5391-0.21484 1.793-0.75391 1.5273-0.33594 1.293-0.5 1.6328-0.99219 3.4727-0.56641 0.94922-0.007813 1.5859 0.11328 1.1445-0.55078 1.4883-0.39844 1.6992-0.70703 0.98828-0.40625 0.99609-0.75781 1.168-1.3828 1.3984-1.3906 2.4219-0.52344 1.4727-0.97656 1.0508-0.76953 1.3398-0.94922 1.1562-0.75391 1.0391-0.91406 2.4922-0.83203 1.5469-0.62891 1.2188-1.1562 1.2188-0.62109 0.99609-1.0234 1.4336-0.8125 0.60547-1.7773 0.49219-5.4336 1.4414-1.7852 0.51172-1.7617 0.70703-1.6133 0.22656-1.707 0.35547-1.5898 0.39062-4.8867 2.3164-1 0.46484-4.0781 1.9023-4.0508 2.4648-1.2891 0.76953-2.25 1.125-2.8789 1.7461-0.80469 0.63281-1.1055 1.1172-1.3398 1.0273-1.6289 1.3438-0.89062 0.98828-1.4062 1.1875-0.69141 0.75-1.6523 1-1.0742 0.375-1.25 0.71484-2.3203 1.5117-1.543 1.1211-1.3867 1.1328-1.4023 1.3438-4.2773 5.2109 2.5273 1.7227 1.1055 1.7266 1.4922 1.2344 0.79688 0.99609 0.55469 1.7891 1.0547 1.7266 1.0469 1.3594 1.8555 1.6133 1.4258 1.418 0.86328 0.92578 0.55469 1.3008 0.55859 2.2188 1.2969 2.5977 1.8398 5.1719 0.50781 3.3594 0.4375 0.98828 1.9141 1.3555 1.9766 1.8594 5.4414 5.4414 1.293 1.7891 2.4727 0.86719 2.7812-0.49609-0.61719 2.6562-0.011719 2.5508 0.24219 6.0156 0.082032 2.1211 0.95312 2.8438 1.1211 3.3672 0.36328 1.0781 11.984-0.76172 2.5938-0.0625 2.1289 1.8633 2.7422 3.1055-1.3828 0.46484-1.3828 0.66406-0.89062 0.68359-0.67969 1.0234-1.2578 1.6211-1.0938 0.91016-1.4375 1.3555-1.9219 0.98438-1.543 2.1406-0.66016 1.9961-0.84766 1.8711-1.3242 2.5625-3.2695 3.5273-4.4141 4.7656-5.0586-3.3984-1.2656-1.0234-1.3516-1.0898-10.773-1.6328-7.0469 0.875-1.6094 0.46484-1.1367 0.67969-1.2148 0.32812-1.9961-0.082032-0.24609-1.3203 0.66406-1.3359 0.49219-1.3242 0.33203-0.99609-0.73828-0.75781-0.87109-0.9375-0.11719-1.082-0.65234-1.1211-2.4844-2.5898-2.8438 0.78125-2.0156 0.5-2.0547 0.61328-1.1992 0.35156-1.3984 0.4375-1.0977 0.40234-1.0234 0.38672-1.2266 0.47266-1.6953 0.52344-1.293 0.31641-3.0156-2.6836-0.70703-2.1484-0.125-1.125 0.10938-1.207 0.097657-1.082 0.085937-1.8555 0.019531-1.0352 0.25781-1.1172 0.82031-1.1172 0.71484-1.4258 0.23828-1.1094 0.10938-1.3125-0.11719-1.2344-0.15625-1.6289-0.074219-1.0195-1.0859-0.33984-0.76953-1.3359-0.45703-1.2852-12.734-3.8711-12.246-2.7773-10.992-2.4961 0.1875-2.1406 0.47656-5.3906 0.25-2.8359-0.30078-1.7461-0.99609-1.875-0.61719-1.4805-0.57812-1.6836-0.54688-1.8047-0.14453-1.1719 0.48047-1.707-0.03125-1.2617-0.25391-1.3945-0.39062-1.4336-0.65625-1.0078 0.21484-1.4609 0.60547-0.95312-0.19922-1.1016-0.78516-0.88672-1.0234-1.0977-0.60938-1.6211-0.058594-1.1328 0.3125-1.6172 0.33984-2.0938 0.48047-1.1953 0.097656-1.0859v-1.582l0.023438-1.8633 0.22266-1.918-5.418-3.3242-1.7188-0.72656-1.3945-0.58594-2.0547-0.87109-4.4219-1.8086-1.3633-0.48438-1.168-3.1172-1.207-1.3867-4.918-2.8008-0.74609-11.219-0.09375-1.4219 0.23047-1.0195 0.20312-1.3906 0.36328-2.0508 0.55469-1.6367 0.070313-1.1445v-1.2422l0.12891-1.1133 0.75391-1.4609 0.78906-1.5273 0.66406-0.8125 0.83203-1.3398 1.2031-1.5625 0.75391-1.1289 0.039062-1.1211 0.03125-1.5234 0.32031-0.95312 0.16016-1.2227-0.51172-0.98047-0.62891-1.1328-0.40234-1.0938-0.62109-0.88281-1.1328-0.49219-1.0625-0.67188-0.57031-1.1016-0.60938-1.4844-0.375-0.92969-0.83594-0.69531-1.0508-0.31641 1.2578-1.3398 0.96094-2.1602 0.23828-1.7617 0.035156-1.0859 0.21484-2.3828 0.3125-1.5195 0.34766-1.0039 0.50391-1.2812 0.53906-0.9375 1.3398-1.2188 0.78516-0.73438 0.79688-0.88281 0.35547-1.1211-0.13672-1.1211 0.46094-1.1016 0.63281-1.1602 0.078125-1.125 0.63672-1.1406 0.80859-0.88281 1.0195-0.058594 1.2188 0.17969 1.0078 0.003907 1.0898-0.4375 0.76562-1.4609 0.078125-1.1523-0.29688-1.4609-0.32812-2.0078 0.078125-1.5586-0.09375-1.3984 0.15625-1.3242 0.85547-1.5391-0.03125-1.2773-1.2305-2.3516-0.80469-1.3125 0.066407-1.3672 0.14453-1.1172-0.19531-2.0117-0.375-1.7539-0.50391-0.92578-0.6875-0.88281 0.45703-1.1055 1.0703-0.85938 0.72266-0.70703 1.1797-0.39062 1.6484 0.37109 1.2422 0.60156 1.4336 1.5117 1.1523 0.66016 1.3203-0.32031 1.6758-1.4531 1.1523-0.64062 1.4727-0.26562 1.3555-1.0352 1.6406-0.8125 1.1523-0.66016 1.3203-0.88672 1.3359-0.41406 3.3789-0.24609 0.77344-0.77344-0.33984-1.3945-0.75391-1.6992-1.1523-1.6602-1.3203-1.9961-0.97656-1.0391-0.13672-1.7539 0.41406-2.0508 2.7812-4.5273 5.4453-7.5078 0.67578-2.2383 0.20703-1.0664 0.25-1.4531 0.33984-1.1914 0.42188-1.0273 1.832-0.94531 1.4102-0.13281 1.3633 0.42578 1.8008 0.45703 1.4453-1.1992 0.63672-0.8125 0.85156-0.8125 1.5781-0.13281 0.67969-1.0273-0.94531-1.9141-0.90234-1.1914-0.38672-1.0547-0.39062-1.0273 1.2773-0.81641 1.0117-0.48828 1.0469-0.3125 0.8125-0.60156 0.62109-0.85547 0.28516-0.98047 1.6914-1.5508 1.0586-0.90625 0.72656-0.72656 0.74609-1.6797 0.28125-2.1875 0.51172-1.9766 0.59766-0.89453 1.0039-0.87109 0.26172-1.0625 0.92188-0.69531 1.1562-0.070313 1.3398 0.25781 1.168 0.16406 1.4258-1.1836 1.2695-1.3594 1.0625-0.95312 1.2227-0.56641 0.89453-0.90234-0.23047-2.5234 1.25-1.2383 1.1016-1.4297 0.95312-1.7852 0.35156-1.5156 0.62109-1.1133-0.007812-1.9492-0.42969-1-0.60547-1.6445 1.3672-1.7188 2.043-1.6953 1.0859-1.3672 1.1406-1.1367 1.8008-1.5898 1.4414-0.35938 1.332-0.94922 1.5-0.47656 1.2852-0.33594 1.3867-0.47656 0.37891 0.80469" fill="none" stroke="#fff" stroke-linecap="round" stroke-linejoin="round" stroke-miterlimit="10" stroke-width="2"/>
<path d="m178.1 262.63 0.40625 0.11328 0.33984 0.94141 0.30859 1.3945 1.207 0.75781 0.60156 1.25 0.13281 1.0586 0.13281 1.2227-0.023438 1.2812-0.16406 1.2188-0.40625 1.0977-0.74609 1.1484-0.71094 1.3594-0.10156 1.5938-0.058594 1.1719-0.070312 1.3555-0.16406 1.1797 0.125 1.5625 0.61328 1.8672 2.4375 2.9766 1.457-0.19141 1.6172-0.46094 1.6211-0.60156 1.0742-0.39453 1.1406-0.44141 1.1328-0.37109 1.5625-0.44141 2.0547-0.61328 1.4922-0.36328 2.6953-0.73438 3.1562 2.4062 0.65234 1.1211 0.11719 1.082 0.87109 0.9375 0.73047 0.70703-0.32422 1.0469-0.33984 0.95703-0.65625 1.3281-0.35547 1.1328 1.5273 0.80469 1.7695-0.26562 1.4922-0.90234 1.1133-0.25 7.0078-1.0273 11.309 1.5703 1.3516 1.0898 1.2656 1.0234 4.7227 3.8242-1.1992 1.1719-1.3438 1.6484-0.75781 0.84375-0.73828 0.95312-0.84375 1.1289-0.71875 1.0625-0.58594 1.0625-0.73828 1.4375-0.69141 1.3828-1.1523 1.6484-0.71484 1.3672-0.5625 1.3047-0.47656 1.2148-2.0938 4.3086-1.8984 2.4844-2.3438 3.832-3.3477 3.7266-8.5234 7.9336-2.2773 1.0352-3.5859 0.96484-3.8906 0.26953-1.1641-0.007813-1.4766-0.050781-2.0859-5.1328-2.2344-0.046875-1.1953-0.36719-0.73828-0.74219-1.8945-0.92188-1.8867-1.1484-0.92188-0.55469-1.2461-0.60156-1.7969-0.41406-2.4883-0.042969-1.125-0.58594-2.6992-1.3984-0.41016-1.1836-2.4023-0.75391-1.1055-0.82812-1.5703-0.55469-2.7188-1.4727-4.0195 0.27344-2.5273 0.27734-3.4062-0.46094-3.1875 0.32812-0.73438 1.1055h-1.0625l-1.3359 0.17578-3-1.793-1.2383-1.1523-0.74219-1.3828-0.78125-1.1992-3.2266-1.0117-3.043-2.2109-1.6133-1.0625-0.92188-0.46094-1.2891-0.32422-1.4336-0.089844-1.4258-0.73438-1.0742-0.12891-1.1992-0.55859-1.1914-0.41016-0.76562-0.70312-0.78516-0.74609-1.1055-0.49219-0.32031-1.3281 1.9375-4.0078 1.3203-2.7773 0.49609-1.0391 0.61328-0.82812 0.45703-1.418 1.9297-4.1484 2.6406-5.6094 1.1914 0.27734 1.0977 0.39844 1.1719 0.42188 1.1914 0.46484 1.3086 0.24219 1.0156 0.27734 1.7773 0.51172 2.3203-2.8828 1.4961-2.918 2.8125-5.125 0.92578 0.89453 2.4219-2.2812 3.707-2.5664 0.4375-1.2734 0.76172-1.0469 1.625-0.70312 1.0898-0.62891 0.50781-1.1172 0.46094-0.97656 0.79688-0.87109 1.5664-1.1133 1.0703-0.5625 1.4141-0.41406 0.62109-0.82812 0.52734-1.2227 0.37891-1.0273 0.15625-1.0078 0.17578-1.875 0.18359-1.4258 0.09375-1.5938z" fill="#0a5394" fill-rule="evenodd"/>
<path d="m178.1 262.63 0.40625 0.11328 0.33984 0.94141 0.30859 1.3945 1.207 0.75781 0.60156 1.25 0.13281 1.0586 0.13281 1.2227-0.023438 1.2812-0.16406 1.2188-0.40625 1.0977-0.74609 1.1484-0.71094 1.3594-0.10156 1.5938-0.058594 1.1719-0.070312 1.3555-0.16406 1.1797 0.125 1.5625 0.61328 1.8672 2.4375 2.9766 1.457-0.19141 1.6172-0.46094 1.6211-0.60156 1.0742-0.39453 1.1406-0.44141 1.1328-0.37109 1.5625-0.44141 2.0547-0.61328 1.4922-0.36328 2.6953-0.73438 3.1562 2.4062 0.65234 1.1211 0.11719 1.082 0.87109 0.9375 0.73047 0.70703-0.32422 1.0469-0.33984 0.95703-0.65625 1.3281-0.35547 1.1328 1.5273 0.80469 1.7695-0.26562 1.4922-0.90234 1.1133-0.25 7.0078-1.0273 11.309 1.5703 1.3516 1.0898 1.2656 1.0234 4.7227 3.8242-1.1992 1.1719-1.3438 1.6484-0.75781 0.84375-0.73828 0.95312-0.84375 1.1289-0.71875 1.0625-0.58594 1.0625-0.73828 1.4375-0.69141 1.3828-1.1523 1.6484-0.71484 1.3672-0.5625 1.3047-0.47656 1.2148-2.0938 4.3086-1.8984 2.4844-2.3438 3.832-3.3477 3.7266-8.5234 7.9336-2.2773 1.0352-3.5859 0.96484-3.8906 0.26953-1.1641-0.007813-1.4766-0.050781-2.0859-5.1328-2.2344-0.046875-1.1953-0.36719-0.73828-0.74219-1.8945-0.92188-1.8867-1.1484-0.92188-0.55469-1.2461-0.60156-1.7969-0.41406-2.4883-0.042969-1.125-0.58594-2.6992-1.3984-0.41016-1.1836-2.4023-0.75391-1.1055-0.82812-1.5703-0.55469-2.7188-1.4727-4.0195 0.27344-2.5273 0.27734-3.4062-0.46094-3.1875 0.32812-0.73438 1.1055h-1.0625l-1.3359 0.17578-3-1.793-1.2383-1.1523-0.74219-1.3828-0.78125-1.1992-3.2266-1.0117-3.043-2.2109-1.6133-1.0625-0.92188-0.46094-1.2891-0.32422-1.4336-0.089844-1.4258-0.73438-1.0742-0.12891-1.1992-0.55859-1.1914-0.41016-0.76562-0.70312-0.78516-0.74609-1.1055-0.49219-0.32031-1.3281 1.9375-4.0078 1.3203-2.7773 0.49609-1.0391 0.61328-0.82812 0.45703-1.418 1.9297-4.1484 2.6406-5.6094 1.1914 0.27734 1.0977 0.39844 1.1719 0.42188 1.1914 0.46484 1.3086 0.24219 1.0156 0.27734 1.7773 0.51172 2.3203-2.8828 1.4961-2.918 2.8125-5.125 0.92578 0.89453 2.4219-2.2812 3.707-2.5664 0.4375-1.2734 0.76172-1.0469 1.625-0.70312 1.0898-0.62891 0.50781-1.1172 0.46094-0.97656 0.79688-0.87109 1.5664-1.1133 1.0703-0.5625 1.4141-0.41406 0.62109-0.82812 0.52734-1.2227 0.37891-1.0273 0.15625-1.0078 0.17578-1.875 0.18359-1.4258 0.09375-1.5938 12.258 3.3945" fill="none" stroke="#fff" stroke-linecap="round" stroke-linejoin="round" stroke-miterlimit="10"/>
<path d="m186.7 304.45c0 3.5898-2.9102 6.5-6.5 6.5s-6.5-2.9102-6.5-6.5c0-3.5898 2.9102-6.5 6.5-6.5s6.5 2.9102 6.5 6.5" fill="#28c028" fill-rule="evenodd" stroke="#000" stroke-linecap="round" stroke-linejoin="round" stroke-miterlimit="10"/>
<path d="m70.105 292.4 3.2344 1.0156c-0.5 1.793-1.3281 3.125-2.4844 4-1.1484 0.875-2.6016 1.3125-4.3594 1.3125-2.1875 0-3.9844-0.74219-5.3906-2.2344-1.4062-1.5-2.1094-3.5469-2.1094-6.1406 0-2.7383 0.70312-4.8633 2.1094-6.375 1.4141-1.5195 3.2812-2.2812 5.5938-2.2812 2.0078 0 3.6445 0.60156 4.9062 1.7969 0.75 0.69922 1.3125 1.7109 1.6875 3.0312l-3.2969 0.78125c-0.19922-0.85156-0.60547-1.5234-1.2188-2.0156-0.61719-0.5-1.3672-0.75-2.25-0.75-1.2188 0-2.2109 0.4375-2.9688 1.3125-0.76172 0.875-1.1406 2.2969-1.1406 4.2656 0 2.0742 0.375 3.5547 1.125 4.4375 0.75 0.88672 1.7227 1.3281 2.9219 1.3281 0.88281 0 1.6445-0.28125 2.2812-0.84375 0.63281-0.5625 1.0859-1.4414 1.3594-2.6406zm6.0938 6.0469v-16.469h3.3281v6.4844h6.5v-6.4844h3.3281v16.469h-3.3281v-7.2031h-6.5v7.2031zm15.922-8.125c0-1.6758 0.25-3.0859 0.75-4.2344 0.375-0.83203 0.88281-1.582 1.5312-2.25 0.64453-0.66406 1.3516-1.1602 2.125-1.4844 1.0312-0.4375 2.2188-0.65625 3.5625-0.65625 2.4141 0 4.3516 0.75781 5.8125 2.2656 1.457 1.5 2.1875 3.5938 2.1875 6.2812 0 2.6562-0.72656 4.7344-2.1719 6.2344-1.4375 1.5-3.3711 2.25-5.7969 2.25-2.4492 0-4.3984-0.74219-5.8438-2.2344-1.4375-1.5-2.1562-3.5547-2.1562-6.1719zm3.4219-0.125c0 1.8672 0.42969 3.2812 1.2969 4.25 0.86328 0.96094 1.957 1.4375 3.2812 1.4375 1.3203 0 2.4062-0.47266 3.25-1.4219 0.85156-0.95703 1.2812-2.3906 1.2812-4.2969 0-1.8945-0.41797-3.3047-1.25-4.2344-0.82422-0.92578-1.918-1.3906-3.2812-1.3906-1.375 0-2.4844 0.47656-3.3281 1.4219-0.83594 0.9375-1.25 2.3516-1.25 4.2344zm25.672 2.2031 3.2344 1.0156c-0.5 1.793-1.3281 3.125-2.4844 4-1.1484 0.875-2.6016 1.3125-4.3594 1.3125-2.1875 0-3.9844-0.74219-5.3906-2.2344-1.4062-1.5-2.1094-3.5469-2.1094-6.1406 0-2.7383 0.70312-4.8633 2.1094-6.375 1.4141-1.5195 3.2812-2.2812 5.5938-2.2812 2.0078 0 3.6445 0.60156 4.9062 1.7969 0.75 0.69922 1.3125 1.7109 1.6875 3.0312l-3.2969 0.78125c-0.19922-0.85156-0.60547-1.5234-1.2188-2.0156-0.61719-0.5-1.3672-0.75-2.25-0.75-1.2188 0-2.2109 0.4375-2.9688 1.3125-0.76172 0.875-1.1406 2.2969-1.1406 4.2656 0 2.0742 0.375 3.5547 1.125 4.4375 0.75 0.88672 1.7227 1.3281 2.9219 1.3281 0.88281 0 1.6445-0.28125 2.2812-0.84375 0.63281-0.5625 1.0859-1.4414 1.3594-2.6406zm5.4062-2.0781c0-1.6758 0.25-3.0859 0.75-4.2344 0.375-0.83203 0.88281-1.582 1.5312-2.25 0.64453-0.66406 1.3516-1.1602 2.125-1.4844 1.0312-0.4375 2.2188-0.65625 3.5625-0.65625 2.4141 0 4.3516 0.75781 5.8125 2.2656 1.457 1.5 2.1875 3.5938 2.1875 6.2812 0 2.6562-0.72656 4.7344-2.1719 6.2344-1.4375 1.5-3.3711 2.25-5.7969 2.25-2.4492 0-4.3984-0.74219-5.8438-2.2344-1.4375-1.5-2.1562-3.5547-2.1562-6.1719zm3.4219-0.125c0 1.8672 0.42969 3.2812 1.2969 4.25 0.86328 0.96094 1.957 1.4375 3.2812 1.4375 1.3203 0 2.4062-0.47266 3.25-1.4219 0.85156-0.95703 1.2812-2.3906 1.2812-4.2969 0-1.8945-0.41797-3.3047-1.25-4.2344-0.82422-0.92578-1.918-1.3906-3.2812-1.3906-1.375 0-2.4844 0.47656-3.3281 1.4219-0.83594 0.9375-1.25 2.3516-1.25 4.2344zm15.141 8.25v-16.469h5.3438c2.0195 0 3.3359 0.085937 3.9531 0.25 0.9375 0.25 1.7227 0.79297 2.3594 1.625 0.63281 0.82422 0.95312 1.8867 0.95312 3.1875 0 1.0117-0.18359 1.8672-0.54688 2.5625-0.36719 0.6875-0.83594 1.2305-1.4062 1.625-0.5625 0.38672-1.1367 0.64062-1.7188 0.76562-0.79297 0.16797-1.9375 0.25-3.4375 0.25h-2.1719v6.2031zm3.3281-13.672v4.6719h1.8125c1.3125 0 2.1875-0.085938 2.625-0.26562 0.44531-0.17578 0.79688-0.44531 1.0469-0.8125 0.25-0.36328 0.375-0.78906 0.375-1.2812 0-0.59375-0.17969-1.082-0.53125-1.4688-0.35547-0.39453-0.79688-0.64062-1.3281-0.73438-0.39844-0.070313-1.1953-0.10938-2.3906-0.10938zm12.016 13.672v-16.469h12.203v2.7969h-8.875v3.6406h8.2656v2.7812h-8.2656v4.4688h9.2031v2.7812zm0 0" fill="none" stroke="#fff" stroke-linecap="round" stroke-linejoin="round" stroke-miterlimit="10" stroke-width="2"/>
<path d="m70.105 292.4 3.2344 1.0156c-0.5 1.793-1.3281 3.125-2.4844 4-1.1484 0.875-2.6016 1.3125-4.3594 1.3125-2.1875 0-3.9844-0.74219-5.3906-2.2344-1.4062-1.5-2.1094-3.5469-2.1094-6.1406 0-2.7383 0.70312-4.8633 2.1094-6.375 1.4141-1.5195 3.2812-2.2812 5.5938-2.2812 2.0078 0 3.6445 0.60156 4.9062 1.7969 0.75 0.69922 1.3125 1.7109 1.6875 3.0312l-3.2969 0.78125c-0.19922-0.85156-0.60547-1.5234-1.2188-2.0156-0.61719-0.5-1.3672-0.75-2.25-0.75-1.2188 0-2.2109 0.4375-2.9688 1.3125-0.76172 0.875-1.1406 2.2969-1.1406 4.2656 0 2.0742 0.375 3.5547 1.125 4.4375 0.75 0.88672 1.7227 1.3281 2.9219 1.3281 0.88281 0 1.6445-0.28125 2.2812-0.84375 0.63281-0.5625 1.0859-1.4414 1.3594-2.6406zm6.0938 6.0469v-16.469h3.3281v6.4844h6.5v-6.4844h3.3281v16.469h-3.3281v-7.2031h-6.5v7.2031zm15.922-8.125c0-1.6758 0.25-3.0859 0.75-4.2344 0.375-0.83203 0.88281-1.582 1.5312-2.25 0.64453-0.66406 1.3516-1.1602 2.125-1.4844 1.0312-0.4375 2.2188-0.65625 3.5625-0.65625 2.4141 0 4.3516 0.75781 5.8125 2.2656 1.457 1.5 2.1875 3.5938 2.1875 6.2812 0 2.6562-0.72656 4.7344-2.1719 6.2344-1.4375 1.5-3.3711 2.25-5.7969 2.25-2.4492 0-4.3984-0.74219-5.8438-2.2344-1.4375-1.5-2.1562-3.5547-2.1562-6.1719zm3.4219-0.125c0 1.8672 0.42969 3.2812 1.2969 4.25 0.86328 0.96094 1.957 1.4375 3.2812 1.4375 1.3203 0 2.4062-0.47266 3.25-1.4219 0.85156-0.95703 1.2812-2.3906 1.2812-4.2969 0-1.8945-0.41797-3.3047-1.25-4.2344-0.82422-0.92578-1.918-1.3906-3.2812-1.3906-1.375 0-2.4844 0.47656-3.3281 1.4219-0.83594 0.9375-1.25 2.3516-1.25 4.2344zm25.672 2.2031 3.2344 1.0156c-0.5 1.793-1.3281 3.125-2.4844 4-1.1484 0.875-2.6016 1.3125-4.3594 1.3125-2.1875 0-3.9844-0.74219-5.3906-2.2344-1.4062-1.5-2.1094-3.5469-2.1094-6.1406 0-2.7383 0.70312-4.8633 2.1094-6.375 1.4141-1.5195 3.2812-2.2812 5.5938-2.2812 2.0078 0 3.6445 0.60156 4.9062 1.7969 0.75 0.69922 1.3125 1.7109 1.6875 3.0312l-3.2969 0.78125c-0.19922-0.85156-0.60547-1.5234-1.2188-2.0156-0.61719-0.5-1.3672-0.75-2.25-0.75-1.2188 0-2.2109 0.4375-2.9688 1.3125-0.76172 0.875-1.1406 2.2969-1.1406 4.2656 0 2.0742 0.375 3.5547 1.125 4.4375 0.75 0.88672 1.7227 1.3281 2.9219 1.3281 0.88281 0 1.6445-0.28125 2.2812-0.84375 0.63281-0.5625 1.0859-1.4414 1.3594-2.6406zm5.4062-2.0781c0-1.6758 0.25-3.0859 0.75-4.2344 0.375-0.83203 0.88281-1.582 1.5312-2.25 0.64453-0.66406 1.3516-1.1602 2.125-1.4844 1.0312-0.4375 2.2188-0.65625 3.5625-0.65625 2.4141 0 4.3516 0.75781 5.8125 2.2656 1.457 1.5 2.1875 3.5938 2.1875 6.2812 0 2.6562-0.72656 4.7344-2.1719 6.2344-1.4375 1.5-3.3711 2.25-5.7969 2.25-2.4492 0-4.3984-0.74219-5.8438-2.2344-1.4375-1.5-2.1562-3.5547-2.1562-6.1719zm3.4219-0.125c0 1.8672 0.42969 3.2812 1.2969 4.25 0.86328 0.96094 1.957 1.4375 3.2812 1.4375 1.3203 0 2.4062-0.47266 3.25-1.4219 0.85156-0.95703 1.2812-2.3906 1.2812-4.2969 0-1.8945-0.41797-3.3047-1.25-4.2344-0.82422-0.92578-1.918-1.3906-3.2812-1.3906-1.375 0-2.4844 0.47656-3.3281 1.4219-0.83594 0.9375-1.25 2.3516-1.25 4.2344zm15.141 8.25v-16.469h5.3438c2.0195 0 3.3359 0.085937 3.9531 0.25 0.9375 0.25 1.7227 0.79297 2.3594 1.625 0.63281 0.82422 0.95312 1.8867 0.95312 3.1875 0 1.0117-0.18359 1.8672-0.54688 2.5625-0.36719 0.6875-0.83594 1.2305-1.4062 1.625-0.5625 0.38672-1.1367 0.64062-1.7188 0.76562-0.79297 0.16797-1.9375 0.25-3.4375 0.25h-2.1719v6.2031zm3.3281-13.672v4.6719h1.8125c1.3125 0 2.1875-0.085938 2.625-0.26562 0.44531-0.17578 0.79688-0.44531 1.0469-0.8125 0.25-0.36328 0.375-0.78906 0.375-1.2812 0-0.59375-0.17969-1.082-0.53125-1.4688-0.35547-0.39453-0.79688-0.64062-1.3281-0.73438-0.39844-0.070313-1.1953-0.10938-2.3906-0.10938zm12.016 13.672v-16.469h12.203v2.7969h-8.875v3.6406h8.2656v2.7812h-8.2656v4.4688h9.2031v2.7812z" fill-rule="evenodd"/>
</g>
</svg>
