<?xml version="1.0" encoding="UTF-8"?>
<svg width="500pt" height="445pt" version="1.1" viewBox="0 0 500 445" xmlns="http://www.w3.org/2000/svg">
<g id="a">
<rect width="500" height="445" fill="none"/>
<path d="m437.32 228.74-0.089844 0.66797-0.16797 1.2773 0.45312 2.5977 0.64844 1.6914 2.4883 2.2773 1.5234 0.58203 1.75 0.33594 2.5938 0.019531 1.5664-0.47266 1.4766 0.10156 3.4297 1.3359 2.2852 2.6641 2.5078 1.0234 2.2578 0.89844 2.1836 0.62109 1.8008 0.62109 1.1562 0.73047 1.8867 2.418 0.53516 1.0938 0.49219 2.3164 0.23828 1.7578-0.32031 1.0469-1.1367 1.8672-1.1562 2.6758 0.14844 1.7578 1.1992 1.0703 1.457 1.7383 1.0273 1.3711 1.0742 1.3516 0.59766 0.8125 0.38672 1.0938 0.40625 0.98438 0.57812 1.8438 0.66797 2.0586-0.23828 1.582 0.64453 1.5664 2.1797 1.1797 1.2188 0.4375 1.1016 0.33203 0.89844 1.5859 0.042968 1.5664 0.30078 1.0898 1.1133 1.3281 0.51562 1.2227 0.36328 1.5664 1.0391 1.2852 1.168 0.64062 1.9297 0.51562 1.5 0.25781 1.6719 0.36328 1.1016 0.24219 1.4258 0.70312 1.6289 0.49219 0.96484 0.50391 1.0312 0.46094 1.6016 0.54688 1.5508 0.24219 0.98047 0.51562-1.0039 0.79297-0.91016 0.61719-1.3203 0.52344-0.91797 0.57031-1.6797 2.0312-1.5781 1.6797-1.8164-0.007812-1.4961-0.39844-1.1172 0.35938-0.54688 1.9961-0.51953 2.6562-0.64062 1.5312-2.3242 1.2891-1.7266 1.3789-1.1523 0.92969-1.2578 1.3281-0.98047 1.0352-1.2266 0.75781-1.9102 0.10547-1.2031 0.066406-1.375 0.074219 0.21875 1.5938 0.57812 1.8945 0.51172 1.0195 0.44922 1.1602 0.097656 1.7773 0.12109 1.6406 0.47656 0.93359 1.4727 2.2188 1.5586 0.78906 1.3867 0.72656-0.60547 1.2969-1.0078 0.30859-1.1016 0.50781-0.97656 1.8477-0.6875 1.3047-0.57812 2.0547 0.023437 1.0352 0.35156 1.2656-0.68359 2.5938-0.41406 1.3828-1.707 2.2422-1.1133 1.4219-0.78125 0.80469-0.85156 0.66406-0.66406 1.7734-0.39453 1.4297-0.26953 1.1211 0.92578 1.3516 0.51953 0.93359 1.2031 1.7656 0.82812 0.68359 0.78906 0.80859 1.0781 1.3672 1.0977 1.8867 0.70312 1.2031 1.4766 1.6602 0.40625 0.92969 0.070313 1.0664v1.8203l0.070312 1.8242 0.21875 1.5156 1.0156 1.3477 0.77734 0.80078 0.71094 2.2109 0.26172 1.5195 0.33203 1.3477 0.070313 1.0664 0.046875 1.207-0.14453 1.707-0.25781 1.3477-0.1875 1.375 0.050781 1.207-0.26953 0.97266-1.168 0.058594-1.3672-0.72656-1.3047-0.58984-0.92188-0.74219-1.625 1.5703-0.89844 0.71875-1.5273 0.17969-1.3047-0.68359-1.0117-1.625-2.6641-1.5781-0.96484-0.33203-2.0586 0.25-1.082 0.5-0.89844 0.65234-1.0352 0.86328-0.97266 0.64453-0.92188 0.75781-1.3633 0.24609-1.0117-0.12109-2.1641 0.074218-2.1055 2.0938-1.8984 1.0547-1.1367 0.23828-1.4453-0.40625-1.8164-0.32031-1.1289 0.22656-2.7734 1.707-0.95312 0.53516-2.4688 0.41016-1.1016 0.36328-2.2539 1.9102-3.2617 5.0156-1.5586 1.4102-0.86328 0.83984-0.44531 1.4219 0.26172 1.1719v1.0234l-0.57812 1.1133-2.3672 1.1602-0.82031 1-0.46484 1.9102-0.66016 0.88672-1.2266 1-0.79688 1.1406-1.8438 2.3164-1.2383 1.2539-1.7266 1.3164-2.5703 1.9805-1.1055 0.81641-1.5781 0.74219-1.457 0.39844-1.8086 0.81641-1 0.625-1.332 0.38672-0.98828 0.16016-1.0234 0.26172-1.0469 0.046875-1.8164 1.1367-1.1289 1.6719-1.2734 1.2617-1.4531 0.57812-1.6055 1.5234-1.2852 1.1172-1.1797 0.83984-2.4141 0.86328-2.3633 1.3438-0.82031 0.76172-1.3633 0.56641-1.125-0.042969-1.6289 0.46484-1.293 0.23828-1.1055 0.45703-1.2383 0.60156-1 1.25-1.5703 0.46875-1.0547-0.32422-1.0703-0.32422-1.0039-0.27734-1.0312-0.078125-1.6602 0.66016-2.0273 0.011718-1.8984-0.64844-1.25-0.25391-0.84766-0.73828-0.46875-1.0352-0.41797-0.91406-0.76953-1.4766-1.082-0.625-1.0781-0.48828-1.5664-0.70703-8.1094-5.8594-3.8984-2.8086-0.83203-0.68359-1.7266-2.1055-2.6289-1.2734-3.5234-1.2734-3.2305-0.67969-3.9805-0.98047-3.4531-1.6445-2.4141-1.5039-0.92969-2.1602-1.8438-0.98828-0.60547-2.4141-2.1719-2.4766-2.2617-2.6289-2.1719-1.8047-2.5586-4.1992-2.5469-5.7852-0.68359-2.1836-0.89844-3.9023-0.82812-3.6836 0.22656-1.2734 0.078125-1.582-0.75-0.97656-0.375-1.0469-0.53516-1.8086-0.066406-1.5v-1.0469l-0.75-1.5-0.30859-1.8867-0.67188-0.82031 0.082031-1.7266-0.30859-1.1289-0.75-1.2031-0.22656-1.6484-1.4219-1.8086-0.375-0.98047-0.91016-0.66797-2.25-2.2539-1.2734-0.75-0.83203-1.957-0.97656-0.60156-1.1953-0.52344-1.957 0.14844-0.89844-0.45312-0.67969-1.3438-1.1289-0.60156-1.043-1.7305-1.582-2.25-2.1055-1.957-1.3516-1.875-1.582-1.207-1.2734-0.97656-1.125-1.0469-1.875-0.91016-1.1992-0.77734-3.7578-3.2695-0.75-0.77344-1.582-1.6367-1.25-0.97656-0.79688-0.625-0.73047-1.4805 0.29688-1.6484-1.5-1.207-0.29688-0.96484-1.6602-0.98047-0.97656-0.90625-0.29688-1.1953-1.2031-0.68359-1.6523-0.29688-1.0547 0.082031-0.67188-2.332-0.29688-0.97656-0.82812-0.83203-0.082031-1.9453-0.81641-1.5781-1.8086-1.582-0.92188-1.1094-0.93359-1.1445-0.625-2.5547 0.52344-1.8789 0.375-1.5-0.14844-1.5781-0.29297-1.4219-0.45703-1.7305-0.29297-1.5781 0.035156-3.2266 0.015625-1.2891 1.1094-0.61719 2.5781-1.0039 2.3125-0.60156 1.543 0.085938 1.7109 0.85547 1.1133 0.25781 1.2891-0.59766 1.7109-0.85938 2.5703 1.3711 1.6289 0.6875 1.7969 1.3672 1.8203 0.082031 0.83594 0.77734 1.5508 2.5078 1.3633 2.7148 1.4297-1.3477 1.1055-1.4219 1.1836-2.0547 1.4258-1.4219 0.78906-0.71484 1.4219 0.94922 1.2656 2.4492 1.3438 0.23828 1.5-1.1875 1.582-1.418 0.94922-0.39844 1.8164 0.47656 0.32031-2 1.2617-2.1875 0.86719-1.1055-0.035156-3.7773 1.1172-0.023437 1.4023 0.5625 0.98047-0.28125-0.21094-0.98047 1.8945-1.6836 2.582-1.5234 2.8867-1.3516 1.8203-1.1914 1.8242-1.75 1.2969-1.0469 1.9258-1.5469 0.63281-1.543 0.69922-1.1914 1.543-1.332 1.4727-0.63281 2.8867-0.57422 1.5273-1.1758 1.9609-1.6836 1.543-0.34766 2.9453-0.21094 1.8047-0.18359 0.99609-0.097656 3.0195-0.55859 3.3594-0.70312 2.0352-0.55859 2.1094 0.20703 1.957 0.5625 1.3516 0.45703 1.4414-3.6562 0.375-1.1211 0.81641-2.4141 0.65625-2.5469 1.6016-2.0977 2.1406-0.51953 1.5586-0.42188 1.2461-0.55078 3.2266-1.5273 6.8047-3.5625 3.168-1.2656 2.5312-0.63281 3.0898-0.71484 2.7695-0.55078 2.1367-0.55469 2.375-0.87109 1.918-0.29688 3.1992-1.0664 1.5078 0.066406 3.2852-0.10156 1.6523-0.082031 2.2969-0.54297 2.9219-0.93359 1.5312-0.14844 1.3203-0.125 1.3555-0.011719 1.25-0.17188 2.25-0.78516 1.5469-0.91797 1.2422-1.4805 1.6016-0.57812 1.2461 0.14844 1.6211 0.078125 1.2031 0.29688 1.0352-0.16016 0.91016-0.51172 0.94531-0.38672 0.875-0.63672 1.5234-0.36328 1.3438-0.03125 2.2734-0.26562 1.6914-0.81641 0.86719-0.86719 1.6562-0.54688 3.5039-0.65625 1.5586 0.19531 1.4883 0.10938 1.1875-0.26172 0.98828-0.40625 1.3984-0.71484 1.2617-0.58984z" fill="#ccc" fill-rule="evenodd"/>
<path d="m437.32 228.74-0.089844 0.66797-0.16797 1.2773 0.45312 2.5977 0.64844 1.6914 2.4883 2.2773 1.5234 0.58203 1.75 0.33594 2.5938 0.019531 1.5664-0.47266 1.4766 0.10156 3.4297 1.3359 2.2852 2.6641 2.5078 1.0234 2.2578 0.89844 2.1836 0.62109 1.8008 0.62109 1.1562 0.73047 1.8867 2.418 0.53516 1.0938 0.49219 2.3164 0.23828 1.7578-0.32031 1.0469-1.1367 1.8672-1.1562 2.6758 0.14844 1.7578 1.1992 1.0703 1.457 1.7383 1.0273 1.3711 1.0742 1.3516 0.59766 0.8125 0.38672 1.0938 0.40625 0.98438 0.57812 1.8438 0.66797 2.0586-0.23828 1.582 0.64453 1.5664 2.1797 1.1797 1.2188 0.4375 1.1016 0.33203 0.89844 1.5859 0.042968 1.5664 0.30078 1.0898 1.1133 1.3281 0.51562 1.2227 0.36328 1.5664 1.0391 1.2852 1.168 0.64062 1.9297 0.51562 1.5 0.25781 1.6719 0.36328 1.1016 0.24219 1.4258 0.70312 1.6289 0.49219 0.96484 0.50391 1.0312 0.46094 1.6016 0.54688 1.5508 0.24219 0.98047 0.51562-1.0039 0.79297-0.91016 0.61719-1.3203 0.52344-0.91797 0.57031-1.6797 2.0312-1.5781 1.6797-1.8164-0.007812-1.4961-0.39844-1.1172 0.35938-0.54688 1.9961-0.51953 2.6562-0.64062 1.5312-2.3242 1.2891-1.7266 1.3789-1.1523 0.92969-1.2578 1.3281-0.98047 1.0352-1.2266 0.75781-1.9102 0.10547-1.2031 0.066406-1.375 0.074219 0.21875 1.5938 0.57812 1.8945 0.51172 1.0195 0.44922 1.1602 0.097656 1.7773 0.12109 1.6406 0.47656 0.93359 1.4727 2.2188 1.5586 0.78906 1.3867 0.72656-0.60547 1.2969-1.0078 0.30859-1.1016 0.50781-0.97656 1.8477-0.6875 1.3047-0.57812 2.0547 0.023437 1.0352 0.35156 1.2656-0.68359 2.5938-0.41406 1.3828-1.707 2.2422-1.1133 1.4219-0.78125 0.80469-0.85156 0.66406-0.66406 1.7734-0.39453 1.4297-0.26953 1.1211 0.92578 1.3516 0.51953 0.93359 1.2031 1.7656 0.82812 0.68359 0.78906 0.80859 1.0781 1.3672 1.0977 1.8867 0.70312 1.2031 1.4766 1.6602 0.40625 0.92969 0.070313 1.0664v1.8203l0.070312 1.8242 0.21875 1.5156 1.0156 1.3477 0.77734 0.80078 0.71094 2.2109 0.26172 1.5195 0.33203 1.3477 0.070313 1.0664 0.046875 1.207-0.14453 1.707-0.25781 1.3477-0.1875 1.375 0.050781 1.207-0.26953 0.97266-1.168 0.058594-1.3672-0.72656-1.3047-0.58984-0.92188-0.74219-1.625 1.5703-0.89844 0.71875-1.5273 0.17969-1.3047-0.68359-1.0117-1.625-2.6641-1.5781-0.96484-0.33203-2.0586 0.25-1.082 0.5-0.89844 0.65234-1.0352 0.86328-0.97266 0.64453-0.92188 0.75781-1.3633 0.24609-1.0117-0.12109-2.1641 0.074218-2.1055 2.0938-1.8984 1.0547-1.1367 0.23828-1.4453-0.40625-1.8164-0.32031-1.1289 0.22656-2.7734 1.707-0.95312 0.53516-2.4688 0.41016-1.1016 0.36328-2.2539 1.9102-3.2617 5.0156-1.5586 1.4102-0.86328 0.83984-0.44531 1.4219 0.26172 1.1719v1.0234l-0.57812 1.1133-2.3672 1.1602-0.82031 1-0.46484 1.9102-0.66016 0.88672-1.2266 1-0.79688 1.1406-1.8438 2.3164-1.2383 1.2539-1.7266 1.3164-2.5703 1.9805-1.1055 0.81641-1.5781 0.74219-1.457 0.39844-1.8086 0.81641-1 0.625-1.332 0.38672-0.98828 0.16016-1.0234 0.26172-1.0469 0.046875-1.8164 1.1367-1.1289 1.6719-1.2734 1.2617-1.4531 0.57812-1.6055 1.5234-1.2852 1.1172-1.1797 0.83984-2.4141 0.86328-2.3633 1.3438-0.82031 0.76172-1.3633 0.56641-1.125-0.042969-1.6289 0.46484-1.293 0.23828-1.1055 0.45703-1.2383 0.60156-1 1.25-1.5703 0.46875-1.0547-0.32422-1.0703-0.32422-1.0039-0.27734-1.0312-0.078125-1.6602 0.66016-2.0273 0.011718-1.8984-0.64844-1.25-0.25391-0.84766-0.73828-0.46875-1.0352-0.41797-0.91406-0.76953-1.4766-1.082-0.625-1.0781-0.48828-1.5664-0.70703-8.1094-5.8594-3.8984-2.8086-0.83203-0.68359-1.7266-2.1055-2.6289-1.2734-3.5234-1.2734-3.2305-0.67969-3.9805-0.98047-3.4531-1.6445-2.4141-1.5039-0.92969-2.1602-1.8438-0.98828-0.60547-2.4141-2.1719-2.4766-2.2617-2.6289-2.1719-1.8047-2.5586-4.1992-2.5469-5.7852-0.68359-2.1836-0.89844-3.9023-0.82812-3.6836 0.22656-1.2734 0.078125-1.582-0.75-0.97656-0.375-1.0469-0.53516-1.8086-0.066406-1.5v-1.0469l-0.75-1.5-0.30859-1.8867-0.67188-0.82031 0.082031-1.7266-0.30859-1.1289-0.75-1.2031-0.22656-1.6484-1.4219-1.8086-0.375-0.98047-0.91016-0.66797-2.25-2.2539-1.2734-0.75-0.83203-1.957-0.97656-0.60156-1.1953-0.52344-1.957 0.14844-0.89844-0.45312-0.67969-1.3438-1.1289-0.60156-1.043-1.7305-1.582-2.25-2.1055-1.957-1.3516-1.875-1.582-1.207-1.2734-0.97656-1.125-1.0469-1.875-0.91016-1.1992-0.77734-3.7578-3.2695-0.75-0.77344-1.582-1.6367-1.25-0.97656-0.79688-0.625-0.73047-1.4805 0.29688-1.6484-1.5-1.207-0.29688-0.96484-1.6602-0.98047-0.97656-0.90625-0.29688-1.1953-1.2031-0.68359-1.6523-0.29688-1.0547 0.082031-0.67188-2.332-0.29688-0.97656-0.82812-0.83203-0.082031-1.9453-0.81641-1.5781-1.8086-1.582-0.92188-1.1094-0.93359-1.1445-0.625-2.5547 0.52344-1.8789 0.375-1.5-0.14844-1.5781-0.29297-1.4219-0.45703-1.7305-0.29297-1.5781 0.035156-3.2266 0.015625-1.2891 1.1094-0.61719 2.5781-1.0039 2.3125-0.60156 1.543 0.085938 1.7109 0.85547 1.1133 0.25781 1.2891-0.59766 1.7109-0.85938 2.5703 1.3711 1.6289 0.6875 1.7969 1.3672 1.8203 0.082031 0.83594 0.77734 1.5508 2.5078 1.3633 2.7148 1.4297-1.3477 1.1055-1.4219 1.1836-2.0547 1.4258-1.4219 0.78906-0.71484 1.4219 0.94922 1.2656 2.4492 1.3438 0.23828 1.5-1.1875 1.582-1.418 0.94922-0.39844 1.8164 0.47656 0.32031-2 1.2617-2.1875 0.86719-1.1055-0.035156-3.7773 1.1172-0.023437 1.4023 0.5625 0.98047-0.28125-0.21094-0.98047 1.8945-1.6836 2.582-1.5234 2.8867-1.3516 1.8203-1.1914 1.8242-1.75 1.2969-1.0469 1.9258-1.5469 0.63281-1.543 0.69922-1.1914 1.543-1.332 1.4727-0.63281 2.8867-0.57422 1.5273-1.1758 1.9609-1.6836 1.543-0.34766 2.9453-0.21094 1.8047-0.18359 0.99609-0.097656 3.0195-0.55859 3.3594-0.70312 2.0352-0.55859 2.1094 0.20703 1.957 0.5625 1.3516 0.45703 1.4414-3.6562 0.375-1.1211 0.81641-2.4141 0.65625-2.5469 1.6016-2.0977 2.1406-0.51953 1.5586-0.42188 1.2461-0.55078 3.2266-1.5273 6.8047-3.5625 3.168-1.2656 2.5312-0.63281 3.0898-0.71484 2.7695-0.55078 2.1367-0.55469 2.375-0.87109 1.918-0.29688 3.1992-1.0664 1.5078 0.066406 3.2852-0.10156 1.6523-0.082031 2.2969-0.54297 2.9219-0.93359 1.5312-0.14844 1.3203-0.125 1.3555-0.011719 1.25-0.17188 2.25-0.78516 1.5469-0.91797 1.2422-1.4805 1.6016-0.57812 1.2461 0.14844 1.6211 0.078125 1.2031 0.29688 1.0352-0.16016 0.91016-0.51172 0.94531-0.38672 0.875-0.63672 1.5234-0.36328 1.3438-0.03125 2.2734-0.26562 1.6914-0.81641 0.86719-0.86719 1.6562-0.54688 3.5039-0.65625 1.5586 0.19531 1.4883 0.10938 1.1875-0.26172 0.98828-0.40625 1.3984-0.71484 1.2617-0.58984-1.2344 2.8438" fill="none" stroke="#fff" stroke-linecap="round" stroke-linejoin="round" stroke-miterlimit="10" stroke-width="2"/>
<path d="m270.91 6.5742 1.0039 0.30078 0.64844 0.88672 0.92188 0.97266 2.1875-0.85156 0.96484-0.30469 1.082 0.26172 0.92969 0.54297 1.4375-0.027344 1.3164-0.26172 3.2539 0.59766 1.1289 0.17188 1.4727 0.019532 1.5039 0.89844 1.1172 0.91016 1.5703 0.75781 3.5703 2.8672 3.3008 0.86719 5.2383 1.0039 11.777 1.3711 1.1836 0.16016 3.3984 0.375 4.1133 0.32422h2.1758l3.4102 0.24609 0.37109 4.9414 0.085938 1.3516-0.046875 1.0156 1.0977 0.83203 1.5508-0.22656 1.3516 0.46875 1.7539 0.14844 1.2852-0.34375 1.375 0.12109 0.77344 0.76953 0.76953 1.2109 0.38672 0.98828 0.027343 1.1602-0.11328 1.0977 0.11328 1.7891 0.55078 1.5156 0.46484 1.2109 0.46875 1.0156 0.74609 1.6758 0.86719 1.1523 0.80078 0.70703 1.3203 0.69922 1.3359 0.71094 1.5586 0.83203 2.2031 1.5742 1.7109 0.98047 2.1328 1.7891 0.80469 1.3828 1.082 1.3438 1.1289 0.51562 1.1797 0.32812 2.2773-0.72656 1.1797-0.14062 1.4766 0.015625 0.92578 0.4375-0.070312 1.3516 0.12891 1.5352 0.3125 2.1211 0.46094 1.5703 0.48047 0.91016 1.9453 1.9141 0.65234 1.2227 0.98047 2.7422 0.85547 1.6367 1.3008 1.0156 1.0742 0.66016 1.0938 2.0508 1.125 1.1367 0.99219 1.8359 1.4805 1.3203 1.0352 0.53125 1.0234 0.63672 0.98828 0.61328 1.1602 0.72266 0.99219 0.39062 2.1523 0.70312 1.418 0.30078 2.3086 0.19531 1.0391 0.19531 2.5352 0.47656 3.9922 1.1328 2.5703 1.7578 1.7031 1.2734 1.1562 0.85938 0.96484 0.72266 1.668 3.3398 1.543 2.8164 1.8398 2.3242 1.3906 1.5469 2.1016 1.5078 2.832 1.6289 1.3789 0.10547 1.2344-0.46875 1.2969-0.37891-1.0859 3.9023-0.64062 2.875-0.85938 3.8438-0.29297 2.043-0.066407 2.3672-0.60938 1.6562-0.33984 1.4219-1.6562 4.668-0.94531 2.1289-0.74609 3.8555-1.6914 4.0586-0.13281 1.082-0.44141 1.9961 1.0352 3.3438 1.1758 3.2539 1.1367 2.9062 0.48828 3.4922 0.41797 1.7031 0.45312 1.3633-0.42188 1.668-1.7812 1.7188-1.0508 0.73828 0.27344 2.4766 0.87891 1.9258 1.8008 2.2617 0.67969 0.87109 1.1367 1.4336 0.94531 0.45703 1.4023 0.71875 2.3398 1.1914 1.8398 0.023437 1.9688-0.42969 1.2227 0.050781 1.2383 1.625 0.64453 1.0352 1.0469 1.25 2.043 1.9414 0.4375 1.0625-0.042969 1.0195 0.17188 1.25 0.34375 1.2617 0.82031 1.9141 0.15234 1.2891 0.066407 2.7734-1.082 6.2227 0.91406 7.4766 0.20312 1.6641-0.16797 1.1406-1.1055 2.0508-0.61719 1.5234-0.68359 1.6602-0.14062 1.6016 0.1875 1.0625 1.7852 2.1133 3.2109 2.1328 2.1992 1.3164 4.125 1.3867 4.3633 0.91406 2.4688 0.67578 0.9375 0.65234 0.82812 0.99609-0.32031 1.3047-0.69922 0.72656-1.4727 0.73828-1.2617 0.40234-1.2266 0.56641-1.1719 2.1172-0.69141 0.96484-0.74219 1.6133-0.58984 1.0703-1.0977 0.9375-1.1602 0.625-1.3789 0.64453-1.1875 0.59766-1.0469 0.39844-2.0352 0.074219-1.7734-0.26172-4.25 0.79688-1.7773 1.2734-1.6914 0.81641-1.7188 0.25-1.8984 0.046875-1.5234 0.36328-0.875 0.63672-0.94531 0.38672-0.91016 0.51172-1.0352 0.16016-1.2031-0.29688-1.3672-0.046875-1.5-0.17969-1.6016 0.57812-0.88672 1.0547-1.0156 0.91406-3.1367 1.2148-1.25 0.17188-1.3555 0.011719-1.3203 0.125-1.5312 0.14844-2.9219 0.93359-2.2969 0.54297-1.3398 0.066406-2.7891 0.14062-1.5547-0.16016-3.9609 1.1367-1.918 0.29688-2.375 0.87109-2.1367 0.55469-2.7695 0.55078-3.0898 0.71484-2.5312 0.63281-3.168 1.2656-6.8047 3.5625-3.2266 1.5273-1.2461 0.55078-1.5586 0.42188-1.3203 0.27344-2.0938 1.6875-0.98438 3.2031-0.81641 2.4141-0.375 1.1211-1.4414 3.6562-1.3516-0.45703-1.1953-0.41797-1.8906-0.35156-3.0156 0.55859-3.3594 0.70312-3.0195 0.55859-0.99609 0.097656-1.8047 0.18359-2.9453 0.21094-1.1914 0.070313-2.3125 1.9609-1.2617 1.1211-3.1523 0.62891-1.4727 0.63281-1.543 1.332-0.69922 1.1914-0.60938 1.4922-1.4258 1.1719-1.8203 1.4727-1.8242 1.75-1.8203 1.1914-2.3828 1.0508-3.0859 1.8242-1.75 0.91016 0.066406 1.7539-0.98047 0.28125-1.4023-0.5625-1.1172 0.023437 0.74219 4.2227-1.5742 0.66016-1.1875 1.7383-0.39453 2.4492-1.0312-0.47656-1.7344 0.39844-1.582 1.418-1.5 1.1875-1.3438-0.23828-1.2656-2.4492-0.94922-0.94922-1.2617 0.71484-1.4258 1.4219-1.1836 2.0547-1.1055 1.4219-1.4297 1.3477-1.1133-2.3125-1.8008-2.9102-0.6875-0.76953-1.9688-0.089844-1.3281-1.0078-2.0977-1.0469-2.2266-1.0273-2.0547 0.51562-1.2891 0.59766-1.1133-0.25781-1.7109-0.85547-1.543-0.085938-2.1172 0.55078-2.4023 0.80859-0.96094 0.57422-0.53516 1.5781-0.035156 3.2266 0.26172 1.3984 0.48828 1.9102 0.29297 1.4219 0.14844 1.5781-0.375 1.5-0.44141 1.207 0.066406 2.625 0.83203 1.0469-0.92188 0.88281-0.15234 1.4609-0.23047 2.207-0.98828-0.39453-0.49609 0.94141-1.8164-0.75781-1.0078-1.2812-0.81641-0.78906-3.1055-1.2539-2.5664-1.3555 0.29297-0.96094-5.7773-3.7852-5.5195-3.4219-5.4961-3.3984-2.1758-1.4336-1.082-0.36328-1.2188 0.25391-1.2383 0.14844-2.1094-0.12891-1.1445-0.48828-1.0938-0.60547-0.91406-0.625-1.0664-0.88281-0.78906-0.74609-0.82812-0.90625-0.625-1.0078-0.80469-0.91016-0.92578-0.52734-0.92969-0.58984-1.25 0.070312-1.3594-0.46094-1.4258-0.14453-0.44141 1.0586-1.3555-1.5781-0.078125-1.6602-0.44531-0.89844 0.625-0.93359 0.51953-1.0234-0.18359-1.0742-1.2617-0.77344-1.0352-0.63281-1.1602-0.65234 0.16406-1.4766 0.015625-1.1914 0.074219-1.0898-0.21875-1.0898-0.28125-1.0391-0.55078-1.0391-1.1328-0.42969-1.1523 0.074219-1.1758 0.20703-0.90234 0.54297-1.1953 0.92188-1.2773 0.5625-1.082-0.074219-1.3516-0.89844-1.1602-1.1055-1.1602-0.066407-1.1602-0.29688-1.0234-0.58203-0.64844-0.875-0.79688-1.375-0.66016-1.375-1.1602-0.36328-0.94141 0.42969-1.2422 0.58203-1.5898-0.17188-1.0117-0.94531-1.082-1-0.875-0.60547-0.69141-0.88672-1.0781-1.2422-1.8711-6.0781-1.0078-2.3477-0.41016-1.2266-1.5508-2.8984-1.1719-1.0898-1.0508-0.97266-1.0547-1.2773-1.125-1.3516-1.1328-0.42578-2.4805 0.35938-1.4492 0.50781-1.3828 0.26172-0.95312 0.5625-0.83984-0.57031-0.46094-0.90625-0.21484-0.98047-0.57031-1.2812-0.76172-1.7852-0.33984-0.98828-0.26562-1.1797-0.55859-1.1016-0.87891-0.83203-1.2148-0.71875-1.0977-0.85156-0.19531-1.0195-0.34766-1.3633-0.28516-1.5234-0.29297-1.0078-0.19141-1.1914-0.38281-2.1836-0.13672-1.1836-0.14844-1.1719-0.29688-1.5625-0.1875-1.2109-0.28516-1.1406-0.30078-1.1211-0.42578-1.1406-0.69922-1.832-0.24609-1.1211 0.33203-0.95312 0.54297-0.92578-0.03125-1.1719-0.32422-1.0898-0.75391-1.0508 0.18359-1.0156 0.84375-0.60547 0.51562-0.9375 0.10156-1.0039 0.17969-1.0117-0.53516-1.1953-0.85547-2.0977-1.5352-3.4453-1.582-2.9336-2.1875-2-1.4922-1.2109-1.8672-1.1211-1.1992-0.87891-2.8008-1.8672-1.6758-1.6289-1.5352-1.7227-1.7227-2.1875-1.5352-1.9531-0.88672-1.7734-1.3008-2.3242-1.0742-2.3281-1.3008-2.4219-1.5859-2.7461-1.0703-2.2422-2.9336-5.0234-1.3516-2.8398-1.3477-3.4922-1.3047-2.9805-1.0117-2.8516 15.773-15.957 11.133-12.383 5.0273-5.4297 0.72266-0.78516 9.8398-10.293 5.2539-5.9219 18.137-19.176 7.418-7.0469 2.3633-3.5742 1.1289-1.3633 1.1914-1.4648 1.6719-3.0273 0.93359-1.2109 1.0039-0.89844 0.65234-1.5586 0.96094-1.6094 1.9648-1.293 1.2188-0.75 1.2031-1.5508 1.3672-2.082 0.65625-1.1719 0.11719-1.25-0.25781-2.8555-0.078125-2.2227-0.39844-1.4297 0.25781-1.0508 1.2109-1.1523 0.55469-0.83203 1.3203-0.74609 1.7188-0.14844 1.1094-1.3867 0.17969-2.2227 0.57422-1.4492 0.97266-1.3281 1.1719-0.67578 1.1289-0.77344 1.3711-0.79297 0.83203-0.55859 0.83203-0.63281 1.25-0.37891 1.332 0.35938 0.99219 0.59375 1.1484 1.1523 1.3008 1.2969 1.8633 1.8594 1.1641 0.28125 1.9648-0.88281 1.832-1.8203 1.3711-1.1914 1.1016-0.68359 1.6406-0.73047 1.8828-0.082031 2.9219 1.3008 2.5156 1.4609 1.2305 0.71094 0.9375 0.39844 1 0.26953 1.6758-0.94922 0.8125-1.0547 2.5703-1.4336 1.0547-0.32422 1.4336-0.26953 1.4609-0.27734 1.5742-0.29688 1.2422-0.34766 0.98828-0.47656 0.96094-1.6328 1.4141-2.5898 1.6055-2.0469 0.92969-0.9375 1.7227-1.7227 1.9219-2.168 1.0898-1.6836 1.1914-1.1641 0.70312-0.83594 0.78516-1.2188 1.1914-3.2188 0.40625-2.4609 0.76172-0.80469z" fill="#ccc" fill-rule="evenodd"/>
<path d="m270.91 6.5742 1.0039 0.30078 0.64844 0.88672 0.92188 0.97266 2.1875-0.85156 0.96484-0.30469 1.082 0.26172 0.92969 0.54297 1.4375-0.027344 1.3164-0.26172 3.2539 0.59766 1.1289 0.17188 1.4727 0.019532 1.5039 0.89844 1.1172 0.91016 1.5703 0.75781 3.5703 2.8672 3.3008 0.86719 5.2383 1.0039 11.777 1.3711 1.1836 0.16016 3.3984 0.375 4.1133 0.32422h2.1758l3.4102 0.24609 0.37109 4.9414 0.085938 1.3516-0.046875 1.0156 1.0977 0.83203 1.5508-0.22656 1.3516 0.46875 1.7539 0.14844 1.2852-0.34375 1.375 0.12109 0.77344 0.76953 0.76953 1.2109 0.38672 0.98828 0.027343 1.1602-0.11328 1.0977 0.11328 1.7891 0.55078 1.5156 0.46484 1.2109 0.46875 1.0156 0.74609 1.6758 0.86719 1.1523 0.80078 0.70703 1.3203 0.69922 1.3359 0.71094 1.5586 0.83203 2.2031 1.5742 1.7109 0.98047 2.1328 1.7891 0.80469 1.3828 1.082 1.3438 1.1289 0.51562 1.1797 0.32812 2.2773-0.72656 1.1797-0.14062 1.4766 0.015625 0.92578 0.4375-0.070312 1.3516 0.12891 1.5352 0.3125 2.1211 0.46094 1.5703 0.48047 0.91016 1.9453 1.9141 0.65234 1.2227 0.98047 2.7422 0.85547 1.6367 1.3008 1.0156 1.0742 0.66016 1.0938 2.0508 1.125 1.1367 0.99219 1.8359 1.4805 1.3203 1.0352 0.53125 1.0234 0.63672 0.98828 0.61328 1.1602 0.72266 0.99219 0.39062 2.1523 0.70312 1.418 0.30078 2.3086 0.19531 1.0391 0.19531 2.5352 0.47656 3.9922 1.1328 2.5703 1.7578 1.7031 1.2734 1.1562 0.85938 0.96484 0.72266 1.668 3.3398 1.543 2.8164 1.8398 2.3242 1.3906 1.5469 2.1016 1.5078 2.832 1.6289 1.3789 0.10547 1.2344-0.46875 1.2969-0.37891-1.0859 3.9023-0.64062 2.875-0.85938 3.8438-0.29297 2.043-0.066407 2.3672-0.60938 1.6562-0.33984 1.4219-1.6562 4.668-0.94531 2.1289-0.74609 3.8555-1.6914 4.0586-0.13281 1.082-0.44141 1.9961 1.0352 3.3438 1.1758 3.2539 1.1367 2.9062 0.48828 3.4922 0.41797 1.7031 0.45312 1.3633-0.42188 1.668-1.7812 1.7188-1.0508 0.73828 0.27344 2.4766 0.87891 1.9258 1.8008 2.2617 0.67969 0.87109 1.1367 1.4336 0.94531 0.45703 1.4023 0.71875 2.3398 1.1914 1.8398 0.023437 1.9688-0.42969 1.2227 0.050781 1.2383 1.625 0.64453 1.0352 1.0469 1.25 2.043 1.9414 0.4375 1.0625-0.042969 1.0195 0.17188 1.25 0.34375 1.2617 0.82031 1.9141 0.15234 1.2891 0.066407 2.7734-1.082 6.2227 0.91406 7.4766 0.20312 1.6641-0.16797 1.1406-1.1055 2.0508-0.61719 1.5234-0.68359 1.6602-0.14062 1.6016 0.1875 1.0625 1.7852 2.1133 3.2109 2.1328 2.1992 1.3164 4.125 1.3867 4.3633 0.91406 2.4688 0.67578 0.9375 0.65234 0.82812 0.99609-0.32031 1.3047-0.69922 0.72656-1.4727 0.73828-1.2617 0.40234-1.2266 0.56641-1.1719 2.1172-0.69141 0.96484-0.74219 1.6133-0.58984 1.0703-1.0977 0.9375-1.1602 0.625-1.3789 0.64453-1.1875 0.59766-1.0469 0.39844-2.0352 0.074219-1.7734-0.26172-4.25 0.79688-1.7773 1.2734-1.6914 0.81641-1.7188 0.25-1.8984 0.046875-1.5234 0.36328-0.875 0.63672-0.94531 0.38672-0.91016 0.51172-1.0352 0.16016-1.2031-0.29688-1.3672-0.046875-1.5-0.17969-1.6016 0.57812-0.88672 1.0547-1.0156 0.91406-3.1367 1.2148-1.25 0.17188-1.3555 0.011719-1.3203 0.125-1.5312 0.14844-2.9219 0.93359-2.2969 0.54297-1.3398 0.066406-2.7891 0.14062-1.5547-0.16016-3.9609 1.1367-1.918 0.29688-2.375 0.87109-2.1367 0.55469-2.7695 0.55078-3.0898 0.71484-2.5312 0.63281-3.168 1.2656-6.8047 3.5625-3.2266 1.5273-1.2461 0.55078-1.5586 0.42188-1.3203 0.27344-2.0938 1.6875-0.98438 3.2031-0.81641 2.4141-0.375 1.1211-1.4414 3.6562-1.3516-0.45703-1.1953-0.41797-1.8906-0.35156-3.0156 0.55859-3.3594 0.70312-3.0195 0.55859-0.99609 0.097656-1.8047 0.18359-2.9453 0.21094-1.1914 0.070313-2.3125 1.9609-1.2617 1.1211-3.1523 0.62891-1.4727 0.63281-1.543 1.332-0.69922 1.1914-0.60938 1.4922-1.4258 1.1719-1.8203 1.4727-1.8242 1.75-1.8203 1.1914-2.3828 1.0508-3.0859 1.8242-1.75 0.91016 0.066406 1.7539-0.98047 0.28125-1.4023-0.5625-1.1172 0.023437 0.74219 4.2227-1.5742 0.66016-1.1875 1.7383-0.39453 2.4492-1.0312-0.47656-1.7344 0.39844-1.582 1.418-1.5 1.1875-1.3438-0.23828-1.2656-2.4492-0.94922-0.94922-1.2617 0.71484-1.4258 1.4219-1.1836 2.0547-1.1055 1.4219-1.4297 1.3477-1.1133-2.3125-1.8008-2.9102-0.6875-0.76953-1.9688-0.089844-1.3281-1.0078-2.0977-1.0469-2.2266-1.0273-2.0547 0.51562-1.2891 0.59766-1.1133-0.25781-1.7109-0.85547-1.543-0.085938-2.1172 0.55078-2.4023 0.80859-0.96094 0.57422-0.53516 1.5781-0.035156 3.2266 0.26172 1.3984 0.48828 1.9102 0.29297 1.4219 0.14844 1.5781-0.375 1.5-0.44141 1.207 0.066406 2.625 0.83203 1.0469-0.92188 0.88281-0.15234 1.4609-0.23047 2.207-0.98828-0.39453-0.49609 0.94141-1.8164-0.75781-1.0078-1.2812-0.81641-0.78906-3.1055-1.2539-2.5664-1.3555 0.29297-0.96094-5.7773-3.7852-5.5195-3.4219-5.4961-3.3984-2.1758-1.4336-1.082-0.36328-1.2188 0.25391-1.2383 0.14844-2.1094-0.12891-1.1445-0.48828-1.0938-0.60547-0.91406-0.625-1.0664-0.88281-0.78906-0.74609-0.82812-0.90625-0.625-1.0078-0.80469-0.91016-0.92578-0.52734-0.92969-0.58984-1.25 0.070312-1.3594-0.46094-1.4258-0.14453-0.44141 1.0586-1.3555-1.5781-0.078125-1.6602-0.44531-0.89844 0.625-0.93359 0.51953-1.0234-0.18359-1.0742-1.2617-0.77344-1.0352-0.63281-1.1602-0.65234 0.16406-1.4766 0.015625-1.1914 0.074219-1.0898-0.21875-1.0898-0.28125-1.0391-0.55078-1.0391-1.1328-0.42969-1.1523 0.074219-1.1758 0.20703-0.90234 0.54297-1.1953 0.92188-1.2773 0.5625-1.082-0.074219-1.3516-0.89844-1.1602-1.1055-1.1602-0.066407-1.1602-0.29688-1.0234-0.58203-0.64844-0.875-0.79688-1.375-0.66016-1.375-1.1602-0.36328-0.94141 0.42969-1.2422 0.58203-1.5898-0.17188-1.0117-0.94531-1.082-1-0.875-0.60547-0.69141-0.88672-1.0781-1.2422-1.8711-6.0781-1.0078-2.3477-0.41016-1.2266-1.5508-2.8984-1.1719-1.0898-1.0508-0.97266-1.0547-1.2773-1.125-1.3516-1.1328-0.42578-2.4805 0.35938-1.4492 0.50781-1.3828 0.26172-0.95312 0.5625-0.83984-0.57031-0.46094-0.90625-0.21484-0.98047-0.57031-1.2812-0.76172-1.7852-0.33984-0.98828-0.26562-1.1797-0.55859-1.1016-0.87891-0.83203-1.2148-0.71875-1.0977-0.85156-0.19531-1.0195-0.34766-1.3633-0.28516-1.5234-0.29297-1.0078-0.19141-1.1914-0.38281-2.1836-0.13672-1.1836-0.14844-1.1719-0.29688-1.5625-0.1875-1.2109-0.28516-1.1406-0.30078-1.1211-0.42578-1.1406-0.69922-1.832-0.24609-1.1211 0.33203-0.95312 0.54297-0.92578-0.03125-1.1719-0.32422-1.0898-0.75391-1.0508 0.18359-1.0156 0.84375-0.60547 0.51562-0.9375 0.10156-1.0039 0.17969-1.0117-0.53516-1.1953-0.85547-2.0977-1.5352-3.4453-1.582-2.9336-2.1875-2-1.4922-1.2109-1.8672-1.1211-1.1992-0.87891-2.8008-1.8672-1.6758-1.6289-1.5352-1.7227-1.7227-2.1875-1.5352-1.9531-0.88672-1.7734-1.3008-2.3242-1.0742-2.3281-1.3008-2.4219-1.5859-2.7461-1.0703-2.2422-2.9336-5.0234-1.3516-2.8398-1.3477-3.4922-1.3047-2.9805-1.0117-2.8516 15.773-15.957 11.133-12.383 5.0273-5.4297 0.72266-0.78516 9.8398-10.293 5.2539-5.9219 18.137-19.176 7.418-7.0469 2.3633-3.5742 1.1289-1.3633 1.1914-1.4648 1.6719-3.0273 0.93359-1.2109 1.0039-0.89844 0.65234-1.5586 0.96094-1.6094 1.9648-1.293 1.2188-0.75 1.2031-1.5508 1.3672-2.082 0.65625-1.1719 0.11719-1.25-0.25781-2.8555-0.078125-2.2227-0.39844-1.4297 0.25781-1.0508 1.2109-1.1523 0.55469-0.83203 1.3203-0.74609 1.7188-0.14844 1.1094-1.3867 0.17969-2.2227 0.57422-1.4492 0.97266-1.3281 1.1719-0.67578 1.1289-0.77344 1.3711-0.79297 0.83203-0.55859 0.83203-0.63281 1.25-0.37891 1.332 0.35938 0.99219 0.59375 1.1484 1.1523 1.3008 1.2969 1.8633 1.8594 1.1641 0.28125 1.9648-0.88281 1.832-1.8203 1.3711-1.1914 1.1016-0.68359 1.6406-0.73047 1.8828-0.082031 2.9219 1.3008 2.5156 1.4609 1.2305 0.71094 0.9375 0.39844 1 0.26953 1.6758-0.94922 0.8125-1.0547 2.5703-1.4336 1.0547-0.32422 1.4336-0.26953 1.4609-0.27734 1.5742-0.29688 1.2422-0.34766 0.98828-0.47656 0.96094-1.6328 1.4141-2.5898 1.6055-2.0469 0.92969-0.9375 1.7227-1.7227 1.9219-2.168 1.0898-1.6836 1.1914-1.1641 0.70312-0.83594 0.78516-1.2188 1.1914-3.2188 0.40625-2.4609 0.76172-0.80469 2.9766-0.019531" fill="none" stroke="#fff" stroke-linecap="round" stroke-linejoin="round" stroke-miterlimit="10" stroke-width="2"/>
<path d="m111.76 153.5 1.3047 2.9805 1.3477 3.4922 1.3516 2.8398 2.8867 5.0312 1.1172 2.2344 1.5859 2.7461 1.3008 2.4219 1.0742 2.3281 1.3008 2.3242 0.88672 1.7734 1.5352 1.9531 1.7227 2.1875 1.5352 1.7227 1.6758 1.6289 2.1914 1.4453 1.8086 1.3008 1.8672 1.1211 1.4922 1.2109 1.8125 1.4414 1.957 3.4922 1.5352 3.4453 0.85547 2.0977 0.53516 1.1953-0.17578 0.99219-0.10547 1.0234-0.51562 0.9375-0.84375 0.60547-0.18359 1.0156 0.75391 1.0508 0.32422 1.0898 0.03125 1.1719-0.54297 0.92578-0.33203 0.95312 0.24609 1.1211 0.39844 1.0977 0.39062 0.9375 0.45703 1.3008 0.23828 1.0195 0.41406 2.0898 0.29688 1.5625 0.14844 1.1719 0.13672 1.1836 0.38281 2.1836 0.19141 1.1914 0.29297 1.0078 0.28516 1.5234 0.3125 1.1484 0.14062 1.0273 0.63281 0.85938 1.0039 0.40625 1.6016 1.2695 0.53516 0.98047 0.33203 1.375 0.33984 0.98828 0.40234 0.96875 0.74219 1.6172 0.29297 1.082 0.36328 0.94922 0.78125 0.88672 1.2188-0.54297 1.3828-0.26172 1.4492-0.50781 1.582-0.41406 2.0312 0.48047 1.125 1.3516 1.0547 1.2773 1.0508 0.97266 1.1719 1.0898 1.5508 2.8984 0.41016 1.2266 1.0078 2.3477 1.8711 6.0781 0.94922 1.1094 0.81641 1.0195 0.87891 0.60547 1.082 1 1.0117 0.94531 1.5898 0.17188 1.2422-0.58203 0.94141-0.42969 1.1602 0.36328 0.66016 1.375 0.79688 1.375 0.64844 0.875 1.0234 0.58203 1.1602 0.29688 1.1602 0.066407 0.9375 0.87891 0.76562 0.66016 1.2539 0.57031 1.125-0.19922 1.2461-0.71484 0.97656-0.9375 1.2891-0.30078 1.3516-0.1875 1.0508 0.0625 0.85547 0.96875 0.34766 1.1016 0.29297 1.1836-0.085938 1.3711-0.015625 1.1914-0.16406 1.4766 1.1602 0.65234 1.0352 0.63281 0.79688 0.68359 0.76172 0.67969-0.36328 1.1055-0.89453 1.3359 0.44531 0.89844 0.078125 1.6602 0.60547 1.3516 1.1914-0.83203 1.4258 0.14453 1.3594 0.46094 1.0195-0.23047 1.1602 0.75 0.92578 0.52734 0.80469 0.91016 0.625 1.0078 0.82812 0.90625 0.78906 0.74609 0.75391 0.69531 0.90625 0.59375 1.0391 0.60156 1.0273 0.53906 1.8359 0.39062 1.1367-0.26172 1.1523-0.042968 1.168-0.28516 3.0234 1.8945 5.4961 3.3984 5.5195 3.4219 5.5898 3.6328-0.10547 1.1133 2.5664 1.3555 2.2734 0.85938 1.6484 1.1836 1.0078 1.2812 0.97656 0.35156 1.3359-0.53516 0.98828 0.39453 0.15625-1.5469 0.22656-2.1211 1.4453-0.24609 0.97656 1.1719 1.8086 1.582 0.81641 1.5781 0.082031 1.9453 0.82812 0.83203 0.29688 0.97656v1.7969l1.7266 0.45312 1.6523 0.29688 1.2031 0.68359 0.29688 1.1953 0.97656 0.90625 1.6602 0.98047 0.29688 0.96484 1.5 1.207-0.29688 1.6484 0.51562 1.1016-2.0156-1.5469-1.5781-1.125-1.5039-1.2031-1.9375-0.94141-1.3672-0.75781-1.582-0.40625h-1.8789l-1.875-0.52344-1.0586 0.85938-0.85156 0.54297-0.98828-0.17969-1.3477 3.0039-0.37891 1.0039-0.94141 1.457-0.44922 1.3281-1.6211-0.5625-3.7539-1.5039-4.0781-2.0938-1.5-0.53516-1.1836-0.16016-5.043-3.8086-1.9492-1.4727 0.88281 2.9062 1.4062 4.3125 0.56641 1.7227 0.32422 0.99609-2.0508 3.4336-2.2148 1.9492-1.3906 0.78906-1.75-0.35547-1.1992-0.55078-0.88281 0.59766-0.96484 1.1523-1.1016-0.32422-1.3633-0.97266-2.9727-1.8867-1.2969 0.60156-0.52344 1.4531 0.28906 2.25 0.17578 1.6094-0.042969 1.2617-0.20312 1.1133-0.41016 2.957-0.70312 2.1562-0.99609 1.7969-1.0234 2.5625-0.38672 2.043-0.28906 2.4219-0.24609 1.1406-1.3711 1.9688-0.66797 0.94141-0.69531 0.80469-1.668 1.2969-1.3359 0.65625-1.2969-0.75-0.65625-0.79297-1.4883-0.75-1.3906-0.015625-1.1211 1.0664-1.4609 1.1719-1.582 0.125-1.3398-0.85938-0.57422-1.0117-1.8945-1.7344-0.57422-1.0625-0.54688-1.4766-1.5703-1.1719-1.2969-1.1914-1.2695-0.26953-1.7852 0.35938-1.4648 0.18359-0.95703-0.63672-0.25781-1.0391-1.2539-1.3945-1.2969-0.875-0.99609 0.31641-1.1211 0.62891-1.5 0.20312-2.7422-1.1758-1.5664-0.90234-1.0859-1.0625-1.3242-0.84375-1.1211 0.90625-0.20312 1.168-0.27344 1.6055-0.011718 1.2461 0.011718 1.2305 0.14453 1.5195 0.32422 1.4531-0.10547 1.2031-0.48828 1.7344-1.1406 0.67578-0.76953 0.81641-0.74219 1.418-0.89453 1.3789-0.76953 0.99219-1.0039 0.09375-1.0586-0.29297-1.0312 0.65234-0.097656 1.3516 0.085937 1.0586-0.47266 1.0234-0.85156 0.92969-1.5195 1.1406-1 1.1289 0.12109 2.2578 0.042969 2.0117 0.035156 2.3516-0.48828 1.8672-0.10547 1.0547-0.20312 1.7852-0.10156 1.0703-0.09375 1.832-0.20312 1.125-0.67188 1.3086-0.79297 1.8086-0.33203 1.4297-0.85156 1.6719-0.45312 0.96484-0.89062 0.68359-1.3516 0.35547-2 0.48828-1.1172 0.14844-2.1484-0.92188-1.7852-1.082-0.58984-0.85156-1.5586-0.18359-0.98047 0.21875-2.5469 1.1016-1.0117-0.066406-0.79688-0.61719-0.019531-1.1797-0.86719-0.69531-1.1602 0.47656-0.79297 0.69531-1.0703 0.089843-0.96484-1.2617-0.87891-0.93359-0.92969-0.66797-0.64844 0.83984-1.582 0.21484-1.9648-0.375-1.1836 0.10547-1.6602-0.24219-1.2305 0.60547-1.6914 0.35156-2.8438 0.11328-1.4336-0.22656-0.79688 0.625-1 0.31641-1.2969 0.09375-1.3281-0.44531-0.95703-0.69141-1.7852-0.75391-1.8086 0.46875-1.4648-0.60156-0.60547 0.82812-0.46484 1.2188-1.4102-1.2227-0.88281-1.5391-0.89844-1.3125-0.83984-1.4492-0.81641-1.4883-0.67578-0.91406-1.0195-1.4375-0.66406-1.1797-0.65234-1.0312-1.2656-2.4688-0.33203-1.1211-0.52734-1.0977-0.625-1.457-0.45312-1.0703-0.76953-1.8281-1.5859-2.9336-1.1172-1.5-0.64844-0.93359-0.29297-0.95703-1.375-2.1836-0.61328-0.95703-1.5586-1.4531-0.59766-0.89453-0.80859-1.4375-1.3164-1.6602-0.70703-1.1094-0.83203-1.0234-1.9648-2.4336-1.6719-1.4961-0.87891-1.0352-1.4961-1.7031-2.1523-2.9258-0.86719-0.93359-0.875-0.66406-1.0352-1.1719-0.88281-1.3008-0.6875-0.75-1.3359-1.6484-1.1367-1.418-1.375-1.7109-1.1562-1.0547-1.3008-1.4375-0.94141-1.1289-2.0273-2.2773-1.3516-1.7773-1.6445-1.5156-0.88672-0.88281-1.4531-1.4453-0.70703-0.96484-1.9727-1.5547-1.4961-1.6953-0.92969-0.95312-0.97266-0.91016-2.1133-2-1.2617-1.2617-2.0039-1.957-1.2188-1.3438-1.25-1.3633-1.7539-1.3867-1.0859-1.043-1.332-1.4492-0.74219-0.81641-2.0352-1.9805-0.82422-0.78906-2.3672-2.4922-0.91797-0.72656-1.0781-1.2617-0.86719-1.6328-0.94141-1.293-0.64062-0.85938-1.6719-1.7773-1.3008-1.0586-0.87891-0.92188-0.83594-0.82812-0.9375-0.84375-1.8281-1.9062-0.82812-0.68359-1.9336-1.8789-1.1836-1.0156-1.3242-1.2383-1.4961-1.5078-1.0195-0.90234-1.625-2-0.83594-0.67578-0.99219-1.0703-0.85547-0.78906-0.61328-0.98438-1.0391-0.87109-1.1367-0.76562-0.72266-1.1836-1.3516-1.5781 2.9688-4.7812 6.582-7.2305 4.0273-4.3359 3.3398-3.6133 3.0742-3.3789 9.2109-9.5508 6.3438-6.8242 12.246-13.066 8.7656-9.2773 3.5547-3.8555 6.5117-6.7891 5.7344-6.1758 8.1484-8.8672 5.0859-5.3594 14.156-14.938 10.297-11.059z" fill="#ccc" fill-rule="evenodd"/>
<path d="m111.76 153.5 1.3047 2.9805 1.3477 3.4922 1.3516 2.8398 2.8867 5.0312 1.1172 2.2344 1.5859 2.7461 1.3008 2.4219 1.0742 2.3281 1.3008 2.3242 0.88672 1.7734 1.5352 1.9531 1.7227 2.1875 1.5352 1.7227 1.6758 1.6289 2.1914 1.4453 1.8086 1.3008 1.8672 1.1211 1.4922 1.2109 1.8125 1.4414 1.957 3.4922 1.5352 3.4453 0.85547 2.0977 0.53516 1.1953-0.17578 0.99219-0.10547 1.0234-0.51562 0.9375-0.84375 0.60547-0.18359 1.0156 0.75391 1.0508 0.32422 1.0898 0.03125 1.1719-0.54297 0.92578-0.33203 0.95312 0.24609 1.1211 0.39844 1.0977 0.39062 0.9375 0.45703 1.3008 0.23828 1.0195 0.41406 2.0898 0.29688 1.5625 0.14844 1.1719 0.13672 1.1836 0.38281 2.1836 0.19141 1.1914 0.29297 1.0078 0.28516 1.5234 0.3125 1.1484 0.14062 1.0273 0.63281 0.85938 1.0039 0.40625 1.6016 1.2695 0.53516 0.98047 0.33203 1.375 0.33984 0.98828 0.40234 0.96875 0.74219 1.6172 0.29297 1.082 0.36328 0.94922 0.78125 0.88672 1.2188-0.54297 1.3828-0.26172 1.4492-0.50781 1.582-0.41406 2.0312 0.48047 1.125 1.3516 1.0547 1.2773 1.0508 0.97266 1.1719 1.0898 1.5508 2.8984 0.41016 1.2266 1.0078 2.3477 1.8711 6.0781 0.94922 1.1094 0.81641 1.0195 0.87891 0.60547 1.082 1 1.0117 0.94531 1.5898 0.17188 1.2422-0.58203 0.94141-0.42969 1.1602 0.36328 0.66016 1.375 0.79688 1.375 0.64844 0.875 1.0234 0.58203 1.1602 0.29688 1.1602 0.066407 0.9375 0.87891 0.76562 0.66016 1.2539 0.57031 1.125-0.19922 1.2461-0.71484 0.97656-0.9375 1.2891-0.30078 1.3516-0.1875 1.0508 0.0625 0.85547 0.96875 0.34766 1.1016 0.29297 1.1836-0.085938 1.3711-0.015625 1.1914-0.16406 1.4766 1.1602 0.65234 1.0352 0.63281 0.79688 0.68359 0.76172 0.67969-0.36328 1.1055-0.89453 1.3359 0.44531 0.89844 0.078125 1.6602 0.60547 1.3516 1.1914-0.83203 1.4258 0.14453 1.3594 0.46094 1.0195-0.23047 1.1602 0.75 0.92578 0.52734 0.80469 0.91016 0.625 1.0078 0.82812 0.90625 0.78906 0.74609 0.75391 0.69531 0.90625 0.59375 1.0391 0.60156 1.0273 0.53906 1.8359 0.39062 1.1367-0.26172 1.1523-0.042968 1.168-0.28516 3.0234 1.8945 5.4961 3.3984 5.5195 3.4219 5.5898 3.6328-0.10547 1.1133 2.5664 1.3555 2.2734 0.85938 1.6484 1.1836 1.0078 1.2812 0.97656 0.35156 1.3359-0.53516 0.98828 0.39453 0.15625-1.5469 0.22656-2.1211 1.4453-0.24609 0.97656 1.1719 1.8086 1.582 0.81641 1.5781 0.082031 1.9453 0.82812 0.83203 0.29688 0.97656v1.7969l1.7266 0.45312 1.6523 0.29688 1.2031 0.68359 0.29688 1.1953 0.97656 0.90625 1.6602 0.98047 0.29688 0.96484 1.5 1.207-0.29688 1.6484 0.51562 1.1016-2.0156-1.5469-1.5781-1.125-1.5039-1.2031-1.9375-0.94141-1.3672-0.75781-1.582-0.40625h-1.8789l-1.875-0.52344-1.0586 0.85938-0.85156 0.54297-0.98828-0.17969-1.3477 3.0039-0.37891 1.0039-0.94141 1.457-0.44922 1.3281-1.6211-0.5625-3.7539-1.5039-4.0781-2.0938-1.5-0.53516-1.1836-0.16016-5.043-3.8086-1.9492-1.4727 0.88281 2.9062 1.4062 4.3125 0.56641 1.7227 0.32422 0.99609-2.0508 3.4336-2.2148 1.9492-1.3906 0.78906-1.75-0.35547-1.1992-0.55078-0.88281 0.59766-0.96484 1.1523-1.1016-0.32422-1.3633-0.97266-2.9727-1.8867-1.2969 0.60156-0.52344 1.4531 0.28906 2.25 0.17578 1.6094-0.042969 1.2617-0.20312 1.1133-0.41016 2.957-0.70312 2.1562-0.99609 1.7969-1.0234 2.5625-0.38672 2.043-0.28906 2.4219-0.24609 1.1406-1.3711 1.9688-0.66797 0.94141-0.69531 0.80469-1.668 1.2969-1.3359 0.65625-1.2969-0.75-0.65625-0.79297-1.4883-0.75-1.3906-0.015625-1.1211 1.0664-1.4609 1.1719-1.582 0.125-1.3398-0.85938-0.57422-1.0117-1.8945-1.7344-0.57422-1.0625-0.54688-1.4766-1.5703-1.1719-1.2969-1.1914-1.2695-0.26953-1.7852 0.35938-1.4648 0.18359-0.95703-0.63672-0.25781-1.0391-1.2539-1.3945-1.2969-0.875-0.99609 0.31641-1.1211 0.62891-1.5 0.20312-2.7422-1.1758-1.5664-0.90234-1.0859-1.0625-1.3242-0.84375-1.1211 0.90625-0.20312 1.168-0.27344 1.6055-0.011718 1.2461 0.011718 1.2305 0.14453 1.5195 0.32422 1.4531-0.10547 1.2031-0.48828 1.7344-1.1406 0.67578-0.76953 0.81641-0.74219 1.418-0.89453 1.3789-0.76953 0.99219-1.0039 0.09375-1.0586-0.29297-1.0312 0.65234-0.097656 1.3516 0.085937 1.0586-0.47266 1.0234-0.85156 0.92969-1.5195 1.1406-1 1.1289 0.12109 2.2578 0.042969 2.0117 0.035156 2.3516-0.48828 1.8672-0.10547 1.0547-0.20312 1.7852-0.10156 1.0703-0.09375 1.832-0.20312 1.125-0.67188 1.3086-0.79297 1.8086-0.33203 1.4297-0.85156 1.6719-0.45312 0.96484-0.89062 0.68359-1.3516 0.35547-2 0.48828-1.1172 0.14844-2.1484-0.92188-1.7852-1.082-0.58984-0.85156-1.5586-0.18359-0.98047 0.21875-2.5469 1.1016-1.0117-0.066406-0.79688-0.61719-0.019531-1.1797-0.86719-0.69531-1.1602 0.47656-0.79297 0.69531-1.0703 0.089843-0.96484-1.2617-0.87891-0.93359-0.92969-0.66797-0.64844 0.83984-1.582 0.21484-1.9648-0.375-1.1836 0.10547-1.6602-0.24219-1.2305 0.60547-1.6914 0.35156-2.8438 0.11328-1.4336-0.22656-0.79688 0.625-1 0.31641-1.2969 0.09375-1.3281-0.44531-0.95703-0.69141-1.7852-0.75391-1.8086 0.46875-1.4648-0.60156-0.60547 0.82812-0.46484 1.2188-1.4102-1.2227-0.88281-1.5391-0.89844-1.3125-0.83984-1.4492-0.81641-1.4883-0.67578-0.91406-1.0195-1.4375-0.66406-1.1797-0.65234-1.0312-1.2656-2.4688-0.33203-1.1211-0.52734-1.0977-0.625-1.457-0.45312-1.0703-0.76953-1.8281-1.5859-2.9336-1.1172-1.5-0.64844-0.93359-0.29297-0.95703-1.375-2.1836-0.61328-0.95703-1.5586-1.4531-0.59766-0.89453-0.80859-1.4375-1.3164-1.6602-0.70703-1.1094-0.83203-1.0234-1.9648-2.4336-1.6719-1.4961-0.87891-1.0352-1.4961-1.7031-2.1523-2.9258-0.86719-0.93359-0.875-0.66406-1.0352-1.1719-0.88281-1.3008-0.6875-0.75-1.3359-1.6484-1.1367-1.418-1.375-1.7109-1.1562-1.0547-1.3008-1.4375-0.94141-1.1289-2.0273-2.2773-1.3516-1.7773-1.6445-1.5156-0.88672-0.88281-1.4531-1.4453-0.70703-0.96484-1.9727-1.5547-1.4961-1.6953-0.92969-0.95312-0.97266-0.91016-2.1133-2-1.2617-1.2617-2.0039-1.957-1.2188-1.3438-1.25-1.3633-1.7539-1.3867-1.0859-1.043-1.332-1.4492-0.74219-0.81641-2.0352-1.9805-0.82422-0.78906-2.3672-2.4922-0.91797-0.72656-1.0781-1.2617-0.86719-1.6328-0.94141-1.293-0.64062-0.85938-1.6719-1.7773-1.3008-1.0586-0.87891-0.92188-0.83594-0.82812-0.9375-0.84375-1.8281-1.9062-0.82812-0.68359-1.9336-1.8789-1.1836-1.0156-1.3242-1.2383-1.4961-1.5078-1.0195-0.90234-1.625-2-0.83594-0.67578-0.99219-1.0703-0.85547-0.78906-0.61328-0.98438-1.0391-0.87109-1.1367-0.76562-0.72266-1.1836-1.3516-1.5781 2.9688-4.7812 6.582-7.2305 4.0273-4.3359 3.3398-3.6133 3.0742-3.3789 9.2109-9.5508 6.3438-6.8242 12.246-13.066 8.7656-9.2773 3.5547-3.8555 6.5117-6.7891 5.7344-6.1758 8.1484-8.8672 5.0859-5.3594 14.156-14.938 10.297-11.059 1.0117 2.8516" fill="none" stroke="#fff" stroke-linecap="round" stroke-linejoin="round" stroke-miterlimit="10" stroke-width="2"/>
<path d="m270.91 6.5742 1.0039 0.30078 0.64844 0.88672 0.92188 0.97266 2.1875-0.85156 0.96484-0.30469 1.082 0.26172 0.92969 0.54297 1.4375-0.027344 1.3164-0.26172 3.2539 0.59766 1.1289 0.17188 1.4727 0.019532 1.5039 0.89844 1.1172 0.91016 1.5703 0.75781 3.5703 2.8672 3.3008 0.86719 5.2383 1.0039 11.777 1.3711 1.1836 0.16016 3.3984 0.375 4.1133 0.32422h2.1758l3.4102 0.24609 0.37109 4.9414 0.085938 1.3516-0.046875 1.0156 1.0977 0.83203 1.5508-0.22656 1.3516 0.46875 1.7539 0.14844 1.2852-0.34375 1.375 0.12109 0.77344 0.76953 0.76953 1.2109 0.38672 0.98828 0.027343 1.1602-0.11328 1.0977 0.11328 1.7891 0.55078 1.5156 0.46484 1.2109 0.46875 1.0156 0.74609 1.6758 0.86719 1.1523 0.80078 0.70703 1.3203 0.69922 1.3359 0.71094 1.5586 0.83203 2.2031 1.5742 1.7109 0.98047 2.1328 1.7891 0.80469 1.3828 1.082 1.3438 1.1289 0.51562 1.1797 0.32812 2.2773-0.72656 1.1797-0.14062 1.4766 0.015625 0.92578 0.4375-0.070312 1.3516 0.12891 1.5352 0.3125 2.1211 0.46094 1.5703 0.48047 0.91016 1.9453 1.9141 0.65234 1.2227 0.98047 2.7422 0.85547 1.6367 1.3008 1.0156 1.0742 0.66016 1.0938 2.0508 1.125 1.1367 0.99219 1.8359 1.4805 1.3203 1.0352 0.53125 1.0234 0.63672 0.98828 0.61328 1.1602 0.72266 0.99219 0.39062 2.1523 0.70312 1.418 0.30078 2.3086 0.19531 1.0391 0.19531 2.5352 0.47656 3.9922 1.1328 2.5703 1.7578 1.7031 1.2734 1.1562 0.85938 0.96484 0.72266 1.668 3.3398 1.543 2.8164 1.8398 2.3242 1.3906 1.5469 2.1016 1.5078 2.832 1.6289 1.3789 0.10547 1.2344-0.46875 1.2969-0.37891-1.0859 3.9023-0.64062 2.875-0.85938 3.8438-0.29297 2.043-0.066407 2.3672-0.60938 1.6562-0.33984 1.4219-1.6562 4.668-0.94531 2.1289-0.74609 3.8555-1.6914 4.0586-0.13281 1.082-0.44141 1.9961 1.0352 3.3438 1.1758 3.2539 1.1367 2.9062 0.48828 3.4922 0.41797 1.7031 0.45312 1.3633-0.42188 1.668-1.7812 1.7188-1.0508 0.73828 0.27344 2.4766 0.87891 1.9258 1.8008 2.2617 0.67969 0.87109 1.1367 1.4336 0.94531 0.45703 1.4023 0.71875 2.3398 1.1914 1.8398 0.023437 1.9688-0.42969 1.2227 0.050781 1.2383 1.625 0.64453 1.0352 1.0469 1.25 2.043 1.9414 0.4375 1.0625-0.042969 1.0195 0.17188 1.25 0.34375 1.2617 0.82031 1.9141 0.15234 1.2891 0.066407 2.7734-1.082 6.2227 0.91406 7.4766 0.20312 1.6641-0.16797 1.1406-1.1055 2.0508-0.61719 1.5234-0.68359 1.6602-0.14062 1.6016 0.1875 1.0625 1.7852 2.1133 3.2109 2.1328 2.1992 1.3164 4.125 1.3867 4.3633 0.91406 2.4688 0.67578 0.9375 0.65234 0.82812 0.99609-0.32031 1.3047-0.69922 0.72656-1.4727 0.73828-1.2617 0.40234-1.2266 0.56641-1.1719 2.1172-0.69141 0.96484-0.74219 1.6133-0.58984 1.0703-1.0977 0.9375-1.1602 0.625-1.3789 0.64453-1.1875 0.59766-1.0469 0.39844-2.0352 0.074219-1.7734-0.26172-4.25 0.79688-1.7773 1.2734-1.6914 0.81641-1.7188 0.25-1.8984 0.046875-1.5234 0.36328-0.875 0.63672-0.94531 0.38672-0.91016 0.51172-1.0352 0.16016-1.2031-0.29688-1.3672-0.046875-1.5-0.17969-1.6016 0.57812-0.88672 1.0547-1.0156 0.91406-3.1367 1.2148-1.25 0.17188-1.3555 0.011719-1.3203 0.125-1.5312 0.14844-2.9219 0.93359-2.2969 0.54297-1.3398 0.066406-2.7891 0.14062-1.5547-0.16016-3.9609 1.1367-1.918 0.29688-2.375 0.87109-2.1367 0.55469-2.7695 0.55078-3.0898 0.71484-2.5312 0.63281-3.168 1.2656-6.8047 3.5625-3.2266 1.5273-1.2461 0.55078-1.5586 0.42188-1.3203 0.27344-2.0938 1.6875-0.98438 3.2031-0.81641 2.4141-0.375 1.1211-1.4414 3.6562-1.3516-0.45703-1.1953-0.41797-1.8906-0.35156-3.0156 0.55859-3.3594 0.70312-3.0195 0.55859-0.99609 0.097656-1.8047 0.18359-2.9453 0.21094-1.1914 0.070313-2.3125 1.9609-1.2617 1.1211-3.1523 0.62891-1.4727 0.63281-1.543 1.332-0.69922 1.1914-0.60938 1.4922-1.4258 1.1719-1.8203 1.4727-1.8242 1.75-1.8203 1.1914-2.3828 1.0508-3.0859 1.8242-1.75 0.91016 0.066406 1.7539-0.98047 0.28125-1.4023-0.5625-1.1172 0.023437 0.74219 4.2227-1.5742 0.66016-1.1875 1.7383-0.39453 2.4492-1.0312-0.47656-1.7344 0.39844-1.582 1.418-1.5 1.1875-1.3438-0.23828-1.2656-2.4492-0.94922-0.94922-1.2617 0.71484-1.4258 1.4219-1.1836 2.0547-1.1055 1.4219-1.4297 1.3477-1.1133-2.3125-1.8008-2.9102-0.6875-0.76953-1.9688-0.089844-1.3281-1.0078-2.0977-1.0469-2.2266-1.0273-2.0547 0.51562-1.2891 0.59766-1.1133-0.25781-1.7109-0.85547-1.543-0.085938-2.1172 0.55078-2.4023 0.80859-0.96094 0.57422-0.53516 1.5781-0.035156 3.2266 0.26172 1.3984 0.48828 1.9102 0.29297 1.4219 0.14844 1.5781-0.375 1.5-0.44141 1.207 0.066406 2.625 0.83203 1.0469-0.92188 0.88281-0.15234 1.4609-0.23047 2.207-0.98828-0.39453-0.49609 0.94141-1.8164-0.75781-1.0078-1.2812-0.81641-0.78906-3.1055-1.2539-2.5664-1.3555 0.29297-0.96094-5.7773-3.7852-5.5195-3.4219-5.4961-3.3984-2.1758-1.4336-1.082-0.36328-1.2188 0.25391-1.2383 0.14844-2.1094-0.12891-1.1445-0.48828-1.0938-0.60547-0.91406-0.625-1.0664-0.88281-0.78906-0.74609-0.82812-0.90625-0.625-1.0078-0.80469-0.91016-0.92578-0.52734-0.92969-0.58984-1.25 0.070312-1.3594-0.46094-1.4258-0.14453-0.44141 1.0586-1.3555-1.5781-0.078125-1.6602-0.44531-0.89844 0.625-0.93359 0.51953-1.0234-0.18359-1.0742-1.2617-0.77344-1.0352-0.63281-1.1602-0.65234 0.16406-1.4766 0.015625-1.1914 0.074219-1.0898-0.21875-1.0898-0.28125-1.0391-0.55078-1.0391-1.1328-0.42969-1.1523 0.074219-1.1758 0.20703-0.90234 0.54297-1.1953 0.92188-1.2773 0.5625-1.082-0.074219-1.3516-0.89844-1.1602-1.1055-1.1602-0.066407-1.1602-0.29688-1.0234-0.58203-0.64844-0.875-0.79688-1.375-0.66016-1.375-1.1602-0.36328-0.94141 0.42969-1.2422 0.58203-1.5898-0.17188-1.0117-0.94531-1.082-1-0.875-0.60547-0.69141-0.88672-1.0781-1.2422-1.8711-6.0781-1.0078-2.3477-0.41016-1.2266-1.5508-2.8984-1.1719-1.0898-1.0508-0.97266-1.0547-1.2773-1.125-1.3516-1.1328-0.42578-2.4805 0.35938-1.4492 0.50781-1.3828 0.26172-0.95312 0.5625-0.83984-0.57031-0.46094-0.90625-0.21484-0.98047-0.57031-1.2812-0.76172-1.7852-0.33984-0.98828-0.26562-1.1797-0.55859-1.1016-0.87891-0.83203-1.2148-0.71875-1.0977-0.85156-0.19531-1.0195-0.34766-1.3633-0.28516-1.5234-0.29297-1.0078-0.19141-1.1914-0.38281-2.1836-0.13672-1.1836-0.14844-1.1719-0.29688-1.5625-0.1875-1.2109-0.28516-1.1406-0.30078-1.1211-0.42578-1.1406-0.69922-1.832-0.24609-1.1211 0.33203-0.95312 0.54297-0.92578-0.03125-1.1719-0.32422-1.0898-0.75391-1.0508 0.18359-1.0156 0.84375-0.60547 0.51562-0.9375 0.10156-1.0039 0.17969-1.0117-0.53516-1.1953-0.85547-2.0977-1.5352-3.4453-1.582-2.9336-2.1875-2-1.4922-1.2109-1.8672-1.1211-1.1992-0.87891-2.8008-1.8672-1.6758-1.6289-1.5352-1.7227-1.7227-2.1875-1.5352-1.9531-0.88672-1.7734-1.3008-2.3242-1.0742-2.3281-1.3008-2.4219-1.5859-2.7461-1.0703-2.2422-2.9336-5.0234-1.3516-2.8398-1.3477-3.4922-1.3047-2.9805-1.0117-2.8516 15.773-15.957 11.133-12.383 5.0273-5.4297 0.72266-0.78516 9.8398-10.293 5.2539-5.9219 18.137-19.176 7.418-7.0469 2.3633-3.5742 1.1289-1.3633 1.1914-1.4648 1.6719-3.0273 0.93359-1.2109 1.0039-0.89844 0.65234-1.5586 0.96094-1.6094 1.9648-1.293 1.2188-0.75 1.2031-1.5508 1.3672-2.082 0.65625-1.1719 0.11719-1.25-0.25781-2.8555-0.078125-2.2227-0.39844-1.4297 0.25781-1.0508 1.2109-1.1523 0.55469-0.83203 1.3203-0.74609 1.7188-0.14844 1.1094-1.3867 0.17969-2.2227 0.57422-1.4492 0.97266-1.3281 1.1719-0.67578 1.1289-0.77344 1.3711-0.79297 0.83203-0.55859 0.83203-0.63281 1.25-0.37891 1.332 0.35938 0.99219 0.59375 1.1484 1.1523 1.3008 1.2969 1.8633 1.8594 1.1641 0.28125 1.9648-0.88281 1.832-1.8203 1.3711-1.1914 1.1016-0.68359 1.6406-0.73047 1.8828-0.082031 2.9219 1.3008 2.5156 1.4609 1.2305 0.71094 0.9375 0.39844 1 0.26953 1.6758-0.94922 0.8125-1.0547 2.5703-1.4336 1.0547-0.32422 1.4336-0.26953 1.4609-0.27734 1.5742-0.29688 1.2422-0.34766 0.98828-0.47656 0.96094-1.6328 1.4141-2.5898 1.6055-2.0469 0.92969-0.9375 1.7227-1.7227 1.9219-2.168 1.0898-1.6836 1.1914-1.1641 0.70312-0.83594 0.78516-1.2188 1.1914-3.2188 0.40625-2.4609 0.76172-0.80469z" fill="#0a5394" fill-rule="evenodd"/>
<path d="m270.91 6.5742 1.0039 0.30078 0.64844 0.88672 0.92188 0.97266 2.1875-0.85156 0.96484-0.30469 1.082 0.26172 0.92969 0.54297 1.4375-0.027344 1.3164-0.26172 3.2539 0.59766 1.1289 0.17188 1.4727 0.019532 1.5039 0.89844 1.1172 0.91016 1.5703 0.75781 3.5703 2.8672 3.3008 0.86719 5.2383 1.0039 11.777 1.3711 1.1836 0.16016 3.3984 0.375 4.1133 0.32422h2.1758l3.4102 0.24609 0.37109 4.9414 0.085938 1.3516-0.046875 1.0156 1.0977 0.83203 1.5508-0.22656 1.3516 0.46875 1.7539 0.14844 1.2852-0.34375 1.375 0.12109 0.77344 0.76953 0.76953 1.2109 0.38672 0.98828 0.027343 1.1602-0.11328 1.0977 0.11328 1.7891 0.55078 1.5156 0.46484 1.2109 0.46875 1.0156 0.74609 1.6758 0.86719 1.1523 0.80078 0.70703 1.3203 0.69922 1.3359 0.71094 1.5586 0.83203 2.2031 1.5742 1.7109 0.98047 2.1328 1.7891 0.80469 1.3828 1.082 1.3438 1.1289 0.51562 1.1797 0.32812 2.2773-0.72656 1.1797-0.14062 1.4766 0.015625 0.92578 0.4375-0.070312 1.3516 0.12891 1.5352 0.3125 2.1211 0.46094 1.5703 0.48047 0.91016 1.9453 1.9141 0.65234 1.2227 0.98047 2.7422 0.85547 1.6367 1.3008 1.0156 1.0742 0.66016 1.0938 2.0508 1.125 1.1367 0.99219 1.8359 1.4805 1.3203 1.0352 0.53125 1.0234 0.63672 0.98828 0.61328 1.1602 0.72266 0.99219 0.39062 2.1523 0.70312 1.418 0.30078 2.3086 0.19531 1.0391 0.19531 2.5352 0.47656 3.9922 1.1328 2.5703 1.7578 1.7031 1.2734 1.1562 0.85938 0.96484 0.72266 1.668 3.3398 1.543 2.8164 1.8398 2.3242 1.3906 1.5469 2.1016 1.5078 2.832 1.6289 1.3789 0.10547 1.2344-0.46875 1.2969-0.37891-1.0859 3.9023-0.64062 2.875-0.85938 3.8438-0.29297 2.043-0.066407 2.3672-0.60938 1.6562-0.33984 1.4219-1.6562 4.668-0.94531 2.1289-0.74609 3.8555-1.6914 4.0586-0.13281 1.082-0.44141 1.9961 1.0352 3.3438 1.1758 3.2539 1.1367 2.9062 0.48828 3.4922 0.41797 1.7031 0.45312 1.3633-0.42188 1.668-1.7812 1.7188-1.0508 0.73828 0.27344 2.4766 0.87891 1.9258 1.8008 2.2617 0.67969 0.87109 1.1367 1.4336 0.94531 0.45703 1.4023 0.71875 2.3398 1.1914 1.8398 0.023437 1.9688-0.42969 1.2227 0.050781 1.2383 1.625 0.64453 1.0352 1.0469 1.25 2.043 1.9414 0.4375 1.0625-0.042969 1.0195 0.17188 1.25 0.34375 1.2617 0.82031 1.9141 0.15234 1.2891 0.066407 2.7734-1.082 6.2227 0.91406 7.4766 0.20312 1.6641-0.16797 1.1406-1.1055 2.0508-0.61719 1.5234-0.68359 1.6602-0.14062 1.6016 0.1875 1.0625 1.7852 2.1133 3.2109 2.1328 2.1992 1.3164 4.125 1.3867 4.3633 0.91406 2.4688 0.67578 0.9375 0.65234 0.82812 0.99609-0.32031 1.3047-0.69922 0.72656-1.4727 0.73828-1.2617 0.40234-1.2266 0.56641-1.1719 2.1172-0.69141 0.96484-0.74219 1.6133-0.58984 1.0703-1.0977 0.9375-1.1602 0.625-1.3789 0.64453-1.1875 0.59766-1.0469 0.39844-2.0352 0.074219-1.7734-0.26172-4.25 0.79688-1.7773 1.2734-1.6914 0.81641-1.7188 0.25-1.8984 0.046875-1.5234 0.36328-0.875 0.63672-0.94531 0.38672-0.91016 0.51172-1.0352 0.16016-1.2031-0.29688-1.3672-0.046875-1.5-0.17969-1.6016 0.57812-0.88672 1.0547-1.0156 0.91406-3.1367 1.2148-1.25 0.17188-1.3555 0.011719-1.3203 0.125-1.5312 0.14844-2.9219 0.93359-2.2969 0.54297-1.3398 0.066406-2.7891 0.14062-1.5547-0.16016-3.9609 1.1367-1.918 0.29688-2.375 0.87109-2.1367 0.55469-2.7695 0.55078-3.0898 0.71484-2.5312 0.63281-3.168 1.2656-6.8047 3.5625-3.2266 1.5273-1.2461 0.55078-1.5586 0.42188-1.3203 0.27344-2.0938 1.6875-0.98438 3.2031-0.81641 2.4141-0.375 1.1211-1.4414 3.6562-1.3516-0.45703-1.1953-0.41797-1.8906-0.35156-3.0156 0.55859-3.3594 0.70312-3.0195 0.55859-0.99609 0.097656-1.8047 0.18359-2.9453 0.21094-1.1914 0.070313-2.3125 1.9609-1.2617 1.1211-3.1523 0.62891-1.4727 0.63281-1.543 1.332-0.69922 1.1914-0.60938 1.4922-1.4258 1.1719-1.8203 1.4727-1.8242 1.75-1.8203 1.1914-2.3828 1.0508-3.0859 1.8242-1.75 0.91016 0.066406 1.7539-0.98047 0.28125-1.4023-0.5625-1.1172 0.023437 0.74219 4.2227-1.5742 0.66016-1.1875 1.7383-0.39453 2.4492-1.0312-0.47656-1.7344 0.39844-1.582 1.418-1.5 1.1875-1.3438-0.23828-1.2656-2.4492-0.94922-0.94922-1.2617 0.71484-1.4258 1.4219-1.1836 2.0547-1.1055 1.4219-1.4297 1.3477-1.1133-2.3125-1.8008-2.9102-0.6875-0.76953-1.9688-0.089844-1.3281-1.0078-2.0977-1.0469-2.2266-1.0273-2.0547 0.51562-1.2891 0.59766-1.1133-0.25781-1.7109-0.85547-1.543-0.085938-2.1172 0.55078-2.4023 0.80859-0.96094 0.57422-0.53516 1.5781-0.035156 3.2266 0.26172 1.3984 0.48828 1.9102 0.29297 1.4219 0.14844 1.5781-0.375 1.5-0.44141 1.207 0.066406 2.625 0.83203 1.0469-0.92188 0.88281-0.15234 1.4609-0.23047 2.207-0.98828-0.39453-0.49609 0.94141-1.8164-0.75781-1.0078-1.2812-0.81641-0.78906-3.1055-1.2539-2.5664-1.3555 0.29297-0.96094-5.7773-3.7852-5.5195-3.4219-5.4961-3.3984-2.1758-1.4336-1.082-0.36328-1.2188 0.25391-1.2383 0.14844-2.1094-0.12891-1.1445-0.48828-1.0938-0.60547-0.91406-0.625-1.0664-0.88281-0.78906-0.74609-0.82812-0.90625-0.625-1.0078-0.80469-0.91016-0.92578-0.52734-0.92969-0.58984-1.25 0.070312-1.3594-0.46094-1.4258-0.14453-0.44141 1.0586-1.3555-1.5781-0.078125-1.6602-0.44531-0.89844 0.625-0.93359 0.51953-1.0234-0.18359-1.0742-1.2617-0.77344-1.0352-0.63281-1.1602-0.65234 0.16406-1.4766 0.015625-1.1914 0.074219-1.0898-0.21875-1.0898-0.28125-1.0391-0.55078-1.0391-1.1328-0.42969-1.1523 0.074219-1.1758 0.20703-0.90234 0.54297-1.1953 0.92188-1.2773 0.5625-1.082-0.074219-1.3516-0.89844-1.1602-1.1055-1.1602-0.066407-1.1602-0.29688-1.0234-0.58203-0.64844-0.875-0.79688-1.375-0.66016-1.375-1.1602-0.36328-0.94141 0.42969-1.2422 0.58203-1.5898-0.17188-1.0117-0.94531-1.082-1-0.875-0.60547-0.69141-0.88672-1.0781-1.2422-1.8711-6.0781-1.0078-2.3477-0.41016-1.2266-1.5508-2.8984-1.1719-1.0898-1.0508-0.97266-1.0547-1.2773-1.125-1.3516-1.1328-0.42578-2.4805 0.35938-1.4492 0.50781-1.3828 0.26172-0.95312 0.5625-0.83984-0.57031-0.46094-0.90625-0.21484-0.98047-0.57031-1.2812-0.76172-1.7852-0.33984-0.98828-0.26562-1.1797-0.55859-1.1016-0.87891-0.83203-1.2148-0.71875-1.0977-0.85156-0.19531-1.0195-0.34766-1.3633-0.28516-1.5234-0.29297-1.0078-0.19141-1.1914-0.38281-2.1836-0.13672-1.1836-0.14844-1.1719-0.29688-1.5625-0.1875-1.2109-0.28516-1.1406-0.30078-1.1211-0.42578-1.1406-0.69922-1.832-0.24609-1.1211 0.33203-0.95312 0.54297-0.92578-0.03125-1.1719-0.32422-1.0898-0.75391-1.0508 0.18359-1.0156 0.84375-0.60547 0.51562-0.9375 0.10156-1.0039 0.17969-1.0117-0.53516-1.1953-0.85547-2.0977-1.5352-3.4453-1.582-2.9336-2.1875-2-1.4922-1.2109-1.8672-1.1211-1.1992-0.87891-2.8008-1.8672-1.6758-1.6289-1.5352-1.7227-1.7227-2.1875-1.5352-1.9531-0.88672-1.7734-1.3008-2.3242-1.0742-2.3281-1.3008-2.4219-1.5859-2.7461-1.0703-2.2422-2.9336-5.0234-1.3516-2.8398-1.3477-3.4922-1.3047-2.9805-1.0117-2.8516 15.773-15.957 11.133-12.383 5.0273-5.4297 0.72266-0.78516 9.8398-10.293 5.2539-5.9219 18.137-19.176 7.418-7.0469 2.3633-3.5742 1.1289-1.3633 1.1914-1.4648 1.6719-3.0273 0.93359-1.2109 1.0039-0.89844 0.65234-1.5586 0.96094-1.6094 1.9648-1.293 1.2188-0.75 1.2031-1.5508 1.3672-2.082 0.65625-1.1719 0.11719-1.25-0.25781-2.8555-0.078125-2.2227-0.39844-1.4297 0.25781-1.0508 1.2109-1.1523 0.55469-0.83203 1.3203-0.74609 1.7188-0.14844 1.1094-1.3867 0.17969-2.2227 0.57422-1.4492 0.97266-1.3281 1.1719-0.67578 1.1289-0.77344 1.3711-0.79297 0.83203-0.55859 0.83203-0.63281 1.25-0.37891 1.332 0.35938 0.99219 0.59375 1.1484 1.1523 1.3008 1.2969 1.8633 1.8594 1.1641 0.28125 1.9648-0.88281 1.832-1.8203 1.3711-1.1914 1.1016-0.68359 1.6406-0.73047 1.8828-0.082031 2.9219 1.3008 2.5156 1.4609 1.2305 0.71094 0.9375 0.39844 1 0.26953 1.6758-0.94922 0.8125-1.0547 2.5703-1.4336 1.0547-0.32422 1.4336-0.26953 1.4609-0.27734 1.5742-0.29688 1.2422-0.34766 0.98828-0.47656 0.96094-1.6328 1.4141-2.5898 1.6055-2.0469 0.92969-0.9375 1.7227-1.7227 1.9219-2.168 1.0898-1.6836 1.1914-1.1641 0.70312-0.83594 0.78516-1.2188 1.1914-3.2188 0.40625-2.4609 0.76172-0.80469 2.9766-0.019531" fill="none" stroke="#fff" stroke-linecap="round" stroke-linejoin="round" stroke-miterlimit="10"/>
<path d="m239.73 262.69c0 3.5898-2.9102 6.5-6.5 6.5-3.5898 0-6.5-2.9102-6.5-6.5s2.9102-6.5 6.5-6.5c3.5898 0 6.5 2.9102 6.5 6.5" fill="#28c028" fill-rule="evenodd" stroke="#000" stroke-linecap="round" stroke-linejoin="round" stroke-miterlimit="10"/>
<path d="m112.62 256.69v-16.469h5.3438c2.0195 0 3.3359 0.085938 3.9531 0.25 0.9375 0.25 1.7227 0.79297 2.3594 1.625 0.63281 0.82422 0.95312 1.8867 0.95312 3.1875 0 1.0117-0.18359 1.8672-0.54688 2.5625-0.36719 0.6875-0.83594 1.2305-1.4062 1.625-0.5625 0.38672-1.1367 0.64062-1.7188 0.76562-0.79297 0.16797-1.9375 0.25-3.4375 0.25h-2.1719v6.2031zm3.3281-13.672v4.6719h1.8125c1.3125 0 2.1875-0.085937 2.625-0.26562 0.44531-0.17578 0.79688-0.44531 1.0469-0.8125 0.25-0.36328 0.375-0.78906 0.375-1.2812 0-0.59375-0.17969-1.082-0.53125-1.4688-0.35547-0.39453-0.79688-0.64062-1.3281-0.73438-0.39844-0.070312-1.1953-0.10938-2.3906-0.10938zm26.859 13.672h-3.6094l-1.4375-3.7344h-6.5781l-1.3594 3.7344h-3.5312l6.4062-16.469h3.5156zm-6.1094-6.5156-2.2812-6.1094-2.2188 6.1094zm18.406 0.46875 3.2344 1.0156c-0.5 1.793-1.3281 3.125-2.4844 4-1.1484 0.875-2.6016 1.3125-4.3594 1.3125-2.1875 0-3.9844-0.74219-5.3906-2.2344-1.4062-1.5-2.1094-3.5469-2.1094-6.1406 0-2.7383 0.70312-4.8633 2.1094-6.375 1.4141-1.5195 3.2812-2.2812 5.5938-2.2812 2.0078 0 3.6445 0.60156 4.9062 1.7969 0.75 0.69922 1.3125 1.7109 1.6875 3.0312l-3.2969 0.78125c-0.19922-0.85156-0.60547-1.5234-1.2188-2.0156-0.61719-0.5-1.3672-0.75-2.25-0.75-1.2188 0-2.2109 0.4375-2.9688 1.3125-0.76172 0.875-1.1406 2.2969-1.1406 4.2656 0 2.0742 0.375 3.5547 1.125 4.4375 0.75 0.88672 1.7227 1.3281 2.9219 1.3281 0.88281 0 1.6445-0.28125 2.2812-0.84375 0.63281-0.5625 1.0859-1.4414 1.3594-2.6406zm20.922 6.0469h-3.6094l-1.4375-3.7344h-6.5781l-1.3594 3.7344h-3.5312l6.4062-16.469h3.5156zm-6.1094-6.5156-2.2812-6.1094-2.2188 6.1094zm7.9062 6.5156v-16.469h3.2344l6.75 11v-11h3.0781v16.469h-3.3281l-6.6406-10.734v10.734zm24.234-6.0469v-2.7812h7.1719v6.5625c-0.69922 0.66797-1.7109 1.2617-3.0312 1.7812-1.3242 0.50781-2.6641 0.76562-4.0156 0.76562-1.7188 0-3.2188-0.35938-4.5-1.0781-1.2812-0.72656-2.2461-1.7656-2.8906-3.1094-0.64844-1.3438-0.96875-2.8008-0.96875-4.375 0-1.7188 0.35938-3.2422 1.0781-4.5781 0.71875-1.332 1.7695-2.3516 3.1562-3.0625 1.0625-0.55078 2.3789-0.82812 3.9531-0.82812 2.0391 0 3.6328 0.43359 4.7812 1.2969 1.1562 0.85547 1.8945 2.0391 2.2188 3.5469l-3.2969 0.625c-0.23047-0.8125-0.66797-1.4531-1.3125-1.9219-0.63672-0.46875-1.4336-0.70312-2.3906-0.70312-1.4609 0-2.6172 0.46484-3.4688 1.3906-0.85547 0.91797-1.2812 2.2812-1.2812 4.0938 0 1.9609 0.42969 3.4297 1.2969 4.4062 0.86328 0.96875 2.0039 1.4531 3.4219 1.4531 0.6875 0 1.3789-0.13281 2.0781-0.40625 0.70703-0.26953 1.3125-0.60156 1.8125-1v-2.0781zm25.078 6.0469h-3.6094l-1.4375-3.7344h-6.5781l-1.3594 3.7344h-3.5312l6.4062-16.469h3.5156zm-6.1094-6.5156-2.2812-6.1094-2.2188 6.1094zm0 0" fill="none" stroke="#fff" stroke-linecap="round" stroke-linejoin="round" stroke-miterlimit="10" stroke-width="2"/>
<path d="m112.62 256.69v-16.469h5.3438c2.0195 0 3.3359 0.085938 3.9531 0.25 0.9375 0.25 1.7227 0.79297 2.3594 1.625 0.63281 0.82422 0.95312 1.8867 0.95312 3.1875 0 1.0117-0.18359 1.8672-0.54688 2.5625-0.36719 0.6875-0.83594 1.2305-1.4062 1.625-0.5625 0.38672-1.1367 0.64062-1.7188 0.76562-0.79297 0.16797-1.9375 0.25-3.4375 0.25h-2.1719v6.2031zm3.3281-13.672v4.6719h1.8125c1.3125 0 2.1875-0.085937 2.625-0.26562 0.44531-0.17578 0.79688-0.44531 1.0469-0.8125 0.25-0.36328 0.375-0.78906 0.375-1.2812 0-0.59375-0.17969-1.082-0.53125-1.4688-0.35547-0.39453-0.79688-0.64062-1.3281-0.73438-0.39844-0.070312-1.1953-0.10938-2.3906-0.10938zm26.859 13.672h-3.6094l-1.4375-3.7344h-6.5781l-1.3594 3.7344h-3.5312l6.4062-16.469h3.5156zm-6.1094-6.5156-2.2812-6.1094-2.2188 6.1094zm18.406 0.46875 3.2344 1.0156c-0.5 1.793-1.3281 3.125-2.4844 4-1.1484 0.875-2.6016 1.3125-4.3594 1.3125-2.1875 0-3.9844-0.74219-5.3906-2.2344-1.4062-1.5-2.1094-3.5469-2.1094-6.1406 0-2.7383 0.70312-4.8633 2.1094-6.375 1.4141-1.5195 3.2812-2.2812 5.5938-2.2812 2.0078 0 3.6445 0.60156 4.9062 1.7969 0.75 0.69922 1.3125 1.7109 1.6875 3.0312l-3.2969 0.78125c-0.19922-0.85156-0.60547-1.5234-1.2188-2.0156-0.61719-0.5-1.3672-0.75-2.25-0.75-1.2188 0-2.2109 0.4375-2.9688 1.3125-0.76172 0.875-1.1406 2.2969-1.1406 4.2656 0 2.0742 0.375 3.5547 1.125 4.4375 0.75 0.88672 1.7227 1.3281 2.9219 1.3281 0.88281 0 1.6445-0.28125 2.2812-0.84375 0.63281-0.5625 1.0859-1.4414 1.3594-2.6406zm20.922 6.0469h-3.6094l-1.4375-3.7344h-6.5781l-1.3594 3.7344h-3.5312l6.4062-16.469h3.5156zm-6.1094-6.5156-2.2812-6.1094-2.2188 6.1094zm7.9062 6.5156v-16.469h3.2344l6.75 11v-11h3.0781v16.469h-3.3281l-6.6406-10.734v10.734zm24.234-6.0469v-2.7812h7.1719v6.5625c-0.69922 0.66797-1.7109 1.2617-3.0312 1.7812-1.3242 0.50781-2.6641 0.76562-4.0156 0.76562-1.7188 0-3.2188-0.35938-4.5-1.0781-1.2812-0.72656-2.2461-1.7656-2.8906-3.1094-0.64844-1.3438-0.96875-2.8008-0.96875-4.375 0-1.7188 0.35938-3.2422 1.0781-4.5781 0.71875-1.332 1.7695-2.3516 3.1562-3.0625 1.0625-0.55078 2.3789-0.82812 3.9531-0.82812 2.0391 0 3.6328 0.43359 4.7812 1.2969 1.1562 0.85547 1.8945 2.0391 2.2188 3.5469l-3.2969 0.625c-0.23047-0.8125-0.66797-1.4531-1.3125-1.9219-0.63672-0.46875-1.4336-0.70312-2.3906-0.70312-1.4609 0-2.6172 0.46484-3.4688 1.3906-0.85547 0.91797-1.2812 2.2812-1.2812 4.0938 0 1.9609 0.42969 3.4297 1.2969 4.4062 0.86328 0.96875 2.0039 1.4531 3.4219 1.4531 0.6875 0 1.3789-0.13281 2.0781-0.40625 0.70703-0.26953 1.3125-0.60156 1.8125-1v-2.0781zm25.078 6.0469h-3.6094l-1.4375-3.7344h-6.5781l-1.3594 3.7344h-3.5312l6.4062-16.469h3.5156zm-6.1094-6.5156-2.2812-6.1094-2.2188 6.1094z" fill-rule="evenodd"/>
</g>
</svg>
