<?xml version="1.0" encoding="UTF-8"?>
<svg width="500pt" height="390pt" version="1.1" viewBox="0 0 500 390" xmlns="http://www.w3.org/2000/svg">
<g id="a">
<rect width="500" height="390" fill="none"/>
<path d="m243.65 75.402 1.7109 0.65234 1.4141 1.875 1.0664 0.82422 0.63672 1.1328 0.71094 1.0703 0.61719 1.3281 0.66016 0.77344 1.0859 0.88281 1.0117 0.12891 1.2617 0.55469 1.1328-0.46484 0.94141 0.40234 1.1562 0.45312 0.92969 1.2266 1.0742 0.46484 1.0703 0.51953 0.67578 0.77734 1.125 0.12109 1.4688-0.30469 1.2305 0.32812 0.96484 0.83984 1.082 1.7852 0.85547 0.61328 1.1016 0.082031 0.9375 0.60938 1.1523 0.35156 0.91016 0.84766 0.71875 1.168 0.92188 0.71484 1.3633 1.3945 0.8125 1.1602 0.34375 1.25 0.28516 1.2422 0.17969 1.0312 0.53906 1.2031 1.3203 1.7461 0.64453 0.90625 1.6953 0.96094 0.75781 0.67969 0.79297 0.71484 1.457 0.58984 1.1094-0.027344 0.85547 1.1484 0.70312 0.82422 1.1094-0.089844 1.1328 0.65234 1.1602 0.26953 1.2109 0.070313 1.2578 0.058594 0.99219 0.33203 0.98828 0.38672 1.1484 0.34375 1.0742 0.36719 1.2891 0.49609 1.0625 0.43359 1.1016 0.96094 1.1992 0.69922 1.5508 0.40625 1.3203 0.36328 0.98438 0.19922 1.0234-0.039063 1.2188-0.52734 1.1992 0.089843 1.0859 0.92188 0.43359 0.99609 0.34766 1.2383-0.03125 1.3867-0.375 1.1914 0.12109 2.168-0.21094 1.1836-0.20312 1.5547 0.089844 2.3242-0.41797 2.0469-0.15234 1.3398 0.53516 2.8438 0.19141 2.2422-0.058594 2.6328-0.11328 1.1992-0.43359 1.2148 0.43359 4.1445 0.089843 1.8594 0.15234 2.3086-0.23438 2.0352-0.75 1.4023-0.1875 1.4922-1.0703 1.2891-0.76562 1.1094-0.71875 1.2969-0.71484 0.78516-0.5625 0.91797-0.50781 1.2227-0.60156 0.83984-0.52344 0.95703-0.17969 1.793 0.082031 1.0586 0.54688 2.5898 0.5 1.7734-0.79297 0.98438-0.94531 1.2344 0.26172 1.1914 0.78516 1.6211 3.2812 3.3242 2.3359 2.6016 0.81641 0.73047 1.8945 0.22656 1.3398-0.23828 2.4219-0.14453h1.7969l1.1562 0.21484 1.3047-0.097656 1.1328-0.0625 2.1523-0.11328 2.2891-0.27344 1.9219 0.30469 0.56641 3.0234-0.35156 1.2656-0.46094 0.94922-1.0312 2.1406-0.30859 1.3594-0.12891 1.8945-0.44531 1.1289-0.50391 1.2695-0.58984 0.97266-0.90625 1.207-0.79297 0.82031-1.5703 1.2422-0.88672 0.70312-1.5703 1.2422-1.4414 1.1484-1.332 0.70312-0.55469 1.1719 1.125 1.1289 0.83594 1.2578 0.55469 1.2109 0.72266 1.5664 0.24609 1.3789 0.046875 1.3711 0.066406 2.0586 0.68359 2.7461 0.25391 1.0195-0.0625 2.1016 1.0078 1.8555 1.4375 1.2539 1.5078 1.082 1.1445 0.33984 1.3203 0.58203 1.0469 1.4727 0.33203 1.3398 0.3125 2.0977-0.52344 1.9062-1-0.14844-1.3398-0.035156-1.1055-0.03125-2.8359 0.11328-2.332 0.62109-2.8125 1.0664-2.0547 1.1523-1.6484 0.69531-1.6133 0.67578-1.1797 0.65625-1.0117 0.33594-2.1094-0.67188-1.2383-0.39453-1.4922 0.47656-0.42188 1.6875-0.41797 0.92578-1.5234 2.5625-1.2344 1.0117-1.4922 0.84375-0.59375 0.96484-0.80469 1.3398-0.96875 1.1016-1.207 1.5781-0.83984 0.63281-1.9062 0.30078-1.7773 0.73828-2.1406-0.19922-0.67188-0.97266-0.56641-0.97266-1.5195-0.41406-1.0664 0.0625-1.0312 0.09375-1.0039 0.1875-1.8125 0.75-1.0977 0.03125-2.2539-1.5664-2.7852-2.25-1.2109-0.98047-0.88281-0.71094-1.2812-1.375-1.5703-0.15625-1.4688-0.035156-1.8398-0.40625-1.1406 0.14844-1.1289 0.14453-1.5156-0.51172-1.2031 0.09375-1.4297 1.2695-0.94531 1.0039-0.99609 0.59375h-1.4023l-1.1758-0.45312-1.0938 0.83984-0.79688 0.73047-2.0625 0.79297-1.25 0.23438-1.5117-0.37891-1.3555 0.25-1.8125 0.77344-0.83984 1.9648-0.80469 0.99609-1.0117 0.39062-0.83203 0.77734-0.98828 1.4727-1.3789 1.1094-1.0508 0.007813-1.2969 0.44922-0.95312 0.71875-1.0703 1.0781-1.2461 0.39062-0.83984 0.82422-0.42188 1.0195-0.35156 1.1719-0.60547 0.80078-0.86328 0.625-1.0586 1.0859-0.89844 0.92969-0.96875 0.62109-0.66406 0.83984 0.1875 1.1914-0.87109 1.0273-1.043 0.80469-1.207 0.77344-0.60156 0.80078-1.2344 0.50781-1.0508 0.30078-1.7031 0.41406-1.7461 0.14062-1.3125 0.61719-1.0859 0.28516-1 0.49219-1.7461 1.0078-1.3633 1.207-0.81641 1.2344-0.76562 0.73438-1.3516-0.13281-1.1367 0.074219-0.96875 0.98828-0.28516 1.0234-1.043 1.1094-0.24609 1.1445-0.78906 1.0078-1.3867 1.1172-2.1367 0.38672-0.55469 0.85547-0.94531 1.3359-1.4375 0.59766-1.0352 0.87891-0.17969 1.207-0.94141 1.0703-1.4961 1.3203-1.1836 0.44531-1.1719 0.035156-1.3047 0.41406-1.168-0.16406-1.6211-0.10547-0.98828 0.17188-1.4727 0.035156-1.6172 0.17578-1.1094 0.67188-1.2695 0.25-1.3203 0.42578-1.0039 1.2969-0.66797 1.5469-1.4531 1.1094-2.0547 0.28516-0.84375-1.4961 0.011719-1.1602-0.18359-2.0312-0.15234-1.0781-0.25-1.457-0.36719-1.0039-0.57031-1.0977-0.59375-1.1641-0.73047-1.2305-1.0039-0.45703-1.5195-1.4414-1.1875-1.6484-0.69922-0.87891-0.59375-0.96484-0.39844-1.3047 0.75-0.85547 1.1133-0.96875 0.89453-1.5312 0.49219-2.5938-0.054688-2.5742 0.019531-1.0234 0.52734-2.0078v-2.6289l0.53125-2.1523-0.039062-1.4062-0.78516-1.7539 3.6211-0.89453 1.1094-0.31641 1.5039-0.89062 0.99219-0.79297 0.42969-1.1133 1.5703-0.47266 1.4453-0.13672 1.3281-0.97266 0.55469-1.0078 0.85156-1.0117 1.207-0.96484 1.9023-1.5664 1.7852-1.8281 0.73438-0.8125 1.2617-0.65625 2.1406-0.49219 1.168-0.53516 1.0664-0.51562-0.24219-1.2578-0.14453-2.5664-0.050782-1.1523-0.48438-1.3828-1.0664-1.7656 0.17578-1.8398 1.0078-1.625 1.0898-2.4141 1.75-1.2812 1.6367-0.64062 1.4883-1.4297 0.73047-0.83203 0.57812-0.92969-0.019531-2.6133-0.59375-1.9883-0.55469-0.86719-1.3281-2.0781-0.37109-1.168 0.023437-1.1211-0.32812-1.1016-0.33984-1.1406-1.0664-2.6797-0.039062-1.0117 1.168-2.0195 1.168-1.6445 0.43359-1.1016 0.59766-1 0.77344-1.2891 0.73438-1.5039 0.33594-1.5859-0.37891-1.2891-1.7227-1.8008-1.0117-0.57422-0.40234-1.4102 0.011719-1.0234-0.30859-1.4688 0.27344-1.5078 1.5039-1.9688 0.85156-1.5625 1.9883-2.2383 2.1406-1.5469 2.6055-2.3555 1.7773-2.6836 1.1406-1.7188 1.1953-1.3711 1.4727-1.4336 1.4805-0.73828 1.1094-0.58203 0.96875-0.32031 1.1289-0.78906 0.078125-1.3242-1.1406-2.2852-0.51953-1.0391-0.57812-1.4688-1.4102-1.2266-1.7539-0.48047-2.957-0.1875-2.5-0.77344-1.7031-0.96094-1.4102-0.91797-1.9492-1.0625-1.5391-1.4883-0.93359-0.90625-1.1953-1.1719-2.2969-2.2578-1.3789-1.3555-1.293-1.1875-2.4453-1.6523-2.0742-1.6641 0.5625-1.832 0.82422-1.9258 1.4492-1.332 1.5742-1.0938 2.2422-2.6094 1.8359-2.0078 1.1289-0.89844 0.76562-0.82031 0.67969-0.95703 0.59766-1.0898 0.79688-1.4414 0.55859-0.83203 1.3867-2.1094 1.0117-1.25 0.91797-0.80469 0.80078-0.71484 2.1562-1.0312 0.87891-0.77734 1.4492-1.4883 0.76562-1.3711 0.83203-0.99609 0.96875-1.2031 0.69531-1.3555 1.9375-1.8086 1.0195-1.207 0.44922-1.3125 1.4453-0.050782 0.77344-0.87891 1.4414-0.90625 0.83203-0.99219 1.0039-0.5625 1.0508-0.57422 1.4219-0.53516 1.2773-0.83984 1.207 0.023437 1.0273-0.64453 0.48438-1.5664 1.0898-0.78906 1.0469-0.14844 1.7109-0.46484 0.89453-0.67578 0.63672-0.96094 1.3125-0.14844 1.0938-0.57812 0.41016-1.8203 0.10547-1.1328 0.375-1.1562 0.66797-1.0352 0.22656-1.1523 0.15625-1.4258-0.27734-1.4258-0.75781-1.7148-0.75781-1.2695 0.66797-0.92188 0.19531-1.3047 0.23828-1.3047 1.2227-1.1172 0.57031-0.88281 1.2969-1.5312 0.31641-1.2227-0.23438-1.5117-0.30469-1.3477-0.35547-0.97656 1.125-0.39062 1.2617-1.0508 1.2891-0.12891z" fill="#ccc" fill-rule="evenodd"/>
<path d="m243.65 75.402 1.7109 0.65234 1.4141 1.875 1.0664 0.82422 0.63672 1.1328 0.71094 1.0703 0.61719 1.3281 0.66016 0.77344 1.0859 0.88281 1.0117 0.12891 1.2617 0.55469 1.1328-0.46484 0.94141 0.40234 1.1562 0.45312 0.92969 1.2266 1.0742 0.46484 1.0703 0.51953 0.67578 0.77734 1.125 0.12109 1.4688-0.30469 1.2305 0.32812 0.96484 0.83984 1.082 1.7852 0.85547 0.61328 1.1016 0.082031 0.9375 0.60938 1.1523 0.35156 0.91016 0.84766 0.71875 1.168 0.92188 0.71484 1.3633 1.3945 0.8125 1.1602 0.34375 1.25 0.28516 1.2422 0.17969 1.0312 0.53906 1.2031 1.3203 1.7461 0.64453 0.90625 1.6953 0.96094 0.75781 0.67969 0.79297 0.71484 1.457 0.58984 1.1094-0.027344 0.85547 1.1484 0.70312 0.82422 1.1094-0.089844 1.1328 0.65234 1.1602 0.26953 1.2109 0.070313 1.2578 0.058594 0.99219 0.33203 0.98828 0.38672 1.1484 0.34375 1.0742 0.36719 1.2891 0.49609 1.0625 0.43359 1.1016 0.96094 1.1992 0.69922 1.5508 0.40625 1.3203 0.36328 0.98438 0.19922 1.0234-0.039063 1.2188-0.52734 1.1992 0.089843 1.0859 0.92188 0.43359 0.99609 0.34766 1.2383-0.03125 1.3867-0.375 1.1914 0.12109 2.168-0.21094 1.1836-0.20312 1.5547 0.089844 2.3242-0.41797 2.0469-0.15234 1.3398 0.53516 2.8438 0.19141 2.2422-0.058594 2.6328-0.11328 1.1992-0.43359 1.2148 0.43359 4.1445 0.089843 1.8594 0.15234 2.3086-0.23438 2.0352-0.75 1.4023-0.1875 1.4922-1.0703 1.2891-0.76562 1.1094-0.71875 1.2969-0.71484 0.78516-0.5625 0.91797-0.50781 1.2227-0.60156 0.83984-0.52344 0.95703-0.17969 1.793 0.082031 1.0586 0.54688 2.5898 0.5 1.7734-0.79297 0.98438-0.94531 1.2344 0.26172 1.1914 0.78516 1.6211 3.2812 3.3242 2.3359 2.6016 0.81641 0.73047 1.8945 0.22656 1.3398-0.23828 2.4219-0.14453h1.7969l1.1562 0.21484 1.3047-0.097656 1.1328-0.0625 2.1523-0.11328 2.2891-0.27344 1.9219 0.30469 0.56641 3.0234-0.35156 1.2656-0.46094 0.94922-1.0312 2.1406-0.30859 1.3594-0.12891 1.8945-0.44531 1.1289-0.50391 1.2695-0.58984 0.97266-0.90625 1.207-0.79297 0.82031-1.5703 1.2422-0.88672 0.70312-1.5703 1.2422-1.4414 1.1484-1.332 0.70312-0.55469 1.1719 1.125 1.1289 0.83594 1.2578 0.55469 1.2109 0.72266 1.5664 0.24609 1.3789 0.046875 1.3711 0.066406 2.0586 0.68359 2.7461 0.25391 1.0195-0.0625 2.1016 1.0078 1.8555 1.4375 1.2539 1.5078 1.082 1.1445 0.33984 1.3203 0.58203 1.0469 1.4727 0.33203 1.3398 0.3125 2.0977-0.52344 1.9062-1-0.14844-1.3398-0.035156-1.1055-0.03125-2.8359 0.11328-2.332 0.62109-2.8125 1.0664-2.0547 1.1523-1.6484 0.69531-1.6133 0.67578-1.1797 0.65625-1.0117 0.33594-2.1094-0.67188-1.2383-0.39453-1.4922 0.47656-0.42188 1.6875-0.41797 0.92578-1.5234 2.5625-1.2344 1.0117-1.4922 0.84375-0.59375 0.96484-0.80469 1.3398-0.96875 1.1016-1.207 1.5781-0.83984 0.63281-1.9062 0.30078-1.7773 0.73828-2.1406-0.19922-0.67188-0.97266-0.56641-0.97266-1.5195-0.41406-1.0664 0.0625-1.0312 0.09375-1.0039 0.1875-1.8125 0.75-1.0977 0.03125-2.2539-1.5664-2.7852-2.25-1.2109-0.98047-0.88281-0.71094-1.2812-1.375-1.5703-0.15625-1.4688-0.035156-1.8398-0.40625-1.1406 0.14844-1.1289 0.14453-1.5156-0.51172-1.2031 0.09375-1.4297 1.2695-0.94531 1.0039-0.99609 0.59375h-1.4023l-1.1758-0.45312-1.0938 0.83984-0.79688 0.73047-2.0625 0.79297-1.25 0.23438-1.5117-0.37891-1.3555 0.25-1.8125 0.77344-0.83984 1.9648-0.80469 0.99609-1.0117 0.39062-0.83203 0.77734-0.98828 1.4727-1.3789 1.1094-1.0508 0.007813-1.2969 0.44922-0.95312 0.71875-1.0703 1.0781-1.2461 0.39062-0.83984 0.82422-0.42188 1.0195-0.35156 1.1719-0.60547 0.80078-0.86328 0.625-1.0586 1.0859-0.89844 0.92969-0.96875 0.62109-0.66406 0.83984 0.1875 1.1914-0.87109 1.0273-1.043 0.80469-1.207 0.77344-0.60156 0.80078-1.2344 0.50781-1.0508 0.30078-1.7031 0.41406-1.7461 0.14062-1.3125 0.61719-1.0859 0.28516-1 0.49219-1.7461 1.0078-1.3633 1.207-0.81641 1.2344-0.76562 0.73438-1.3516-0.13281-1.1367 0.074219-0.96875 0.98828-0.28516 1.0234-1.043 1.1094-0.24609 1.1445-0.78906 1.0078-1.3867 1.1172-2.1367 0.38672-0.55469 0.85547-0.94531 1.3359-1.4375 0.59766-1.0352 0.87891-0.17969 1.207-0.94141 1.0703-1.4961 1.3203-1.1836 0.44531-1.1719 0.035156-1.3047 0.41406-1.168-0.16406-1.6211-0.10547-0.98828 0.17188-1.4727 0.035156-1.6172 0.17578-1.1094 0.67188-1.2695 0.25-1.3203 0.42578-1.0039 1.2969-0.66797 1.5469-1.4531 1.1094-2.0547 0.28516-0.84375-1.4961 0.011719-1.1602-0.18359-2.0312-0.15234-1.0781-0.25-1.457-0.36719-1.0039-0.57031-1.0977-0.59375-1.1641-0.73047-1.2305-1.0039-0.45703-1.5195-1.4414-1.1875-1.6484-0.69922-0.87891-0.59375-0.96484-0.39844-1.3047 0.75-0.85547 1.1133-0.96875 0.89453-1.5312 0.49219-2.5938-0.054688-2.5742 0.019531-1.0234 0.52734-2.0078v-2.6289l0.53125-2.1523-0.039062-1.4062-0.78516-1.7539 3.6211-0.89453 1.1094-0.31641 1.5039-0.89062 0.99219-0.79297 0.42969-1.1133 1.5703-0.47266 1.4453-0.13672 1.3281-0.97266 0.55469-1.0078 0.85156-1.0117 1.207-0.96484 1.9023-1.5664 1.7852-1.8281 0.73438-0.8125 1.2617-0.65625 2.1406-0.49219 1.168-0.53516 1.0664-0.51562-0.24219-1.2578-0.14453-2.5664-0.050782-1.1523-0.48438-1.3828-1.0664-1.7656 0.17578-1.8398 1.0078-1.625 1.0898-2.4141 1.75-1.2812 1.6367-0.64062 1.4883-1.4297 0.73047-0.83203 0.57812-0.92969-0.019531-2.6133-0.59375-1.9883-0.55469-0.86719-1.3281-2.0781-0.37109-1.168 0.023437-1.1211-0.32812-1.1016-0.33984-1.1406-1.0664-2.6797-0.039062-1.0117 1.168-2.0195 1.168-1.6445 0.43359-1.1016 0.59766-1 0.77344-1.2891 0.73438-1.5039 0.33594-1.5859-0.37891-1.2891-1.7227-1.8008-1.0117-0.57422-0.40234-1.4102 0.011719-1.0234-0.30859-1.4688 0.27344-1.5078 1.5039-1.9688 0.85156-1.5625 1.9883-2.2383 2.1406-1.5469 2.6055-2.3555 1.7773-2.6836 1.1406-1.7188 1.1953-1.3711 1.4727-1.4336 1.4805-0.73828 1.1094-0.58203 0.96875-0.32031 1.1289-0.78906 0.078125-1.3242-1.1406-2.2852-0.51953-1.0391-0.57812-1.4688-1.4102-1.2266-1.7539-0.48047-2.957-0.1875-2.5-0.77344-1.7031-0.96094-1.4102-0.91797-1.9492-1.0625-1.5391-1.4883-0.93359-0.90625-1.1953-1.1719-2.2969-2.2578-1.3789-1.3555-1.293-1.1875-2.4453-1.6523-2.0742-1.6641 0.5625-1.832 0.82422-1.9258 1.4492-1.332 1.5742-1.0938 2.2422-2.6094 1.8359-2.0078 1.1289-0.89844 0.76562-0.82031 0.67969-0.95703 0.59766-1.0898 0.79688-1.4414 0.55859-0.83203 1.3867-2.1094 1.0117-1.25 0.91797-0.80469 0.80078-0.71484 2.1562-1.0312 0.87891-0.77734 1.4492-1.4883 0.76562-1.3711 0.83203-0.99609 0.96875-1.2031 0.69531-1.3555 1.9375-1.8086 1.0195-1.207 0.44922-1.3125 1.4453-0.050782 0.77344-0.87891 1.4414-0.90625 0.83203-0.99219 1.0039-0.5625 1.0508-0.57422 1.4219-0.53516 1.2773-0.83984 1.207 0.023437 1.0273-0.64453 0.48438-1.5664 1.0898-0.78906 1.0469-0.14844 1.7109-0.46484 0.89453-0.67578 0.63672-0.96094 1.3125-0.14844 1.0938-0.57812 0.41016-1.8203 0.10547-1.1328 0.375-1.1562 0.66797-1.0352 0.22656-1.1523 0.15625-1.4258-0.27734-1.4258-0.75781-1.7148-0.75781-1.2695 0.66797-0.92188 0.19531-1.3047 0.23828-1.3047 1.2227-1.1172 0.57031-0.88281 1.2969-1.5312 0.31641-1.2227-0.23438-1.5117-0.30469-1.3477-0.35547-0.97656 1.125-0.39062 1.2617-1.0508 1.2891-0.12891 1.2227-0.035156" fill="none" stroke="#fff" stroke-linecap="round" stroke-linejoin="round" stroke-miterlimit="10" stroke-width="2"/>
<path d="m388.31 193.21 0.63281 0.26172 1.043 0.64844 1.8281 1.1367 0.72656 0.88281 0.55859 0.90625 0.1875 1.0938 0.97266 2.1367 0.375 1.1602-0.11719 1.7891 1.6719 1.9883 1.7227 0.88672 2.9531 2.5859 1.4297 0.88672-0.9375 3.2383-0.15625 2.1484 0.17188 1.7656 0.050781 2.4258 0.11328 1.8125 0.82422 1.6875 1.6523 0.78906 1.7266 1.0781 0.82422 0.93359 0.46875 1.4727 1.9727 1.7969 1.332 0.60938 1.9023 1.3672 2.0703 1.4844 2.2344 1.2773 2.0508 1.5469 0.97266 1.2578 1.3281 1.0781 1.7969 0.82422 2.2969 0.71875 1.8984 0.59375 2.125 0.30469 2.9102 0.25781 1.0508 0.3125 2.8984 2.9102 3.6953 1.7969 2.0391 1.3477-1.6289 2.8008-2.1328 0.77734-2.6211 0.73828-3.4023 1.3516-1.7188 1.3125-0.53516 0.90234-0.82422 2.25-0.76562 1.4922-0.62891 0.79688-1.3828 0.62891-2.0547 0.67188-1.707 0.51953-2.1641-0.042969-1.7656-0.39062-1.7227-0.57031-1.4453 0.42578-2.2773 0.70312-1.8203 0.91016-0.57812 0.99609-0.375 1.4609-0.11328 1.0898-0.46875 1.6445-1.3867 1.9336-1.1055 1.7227-2.5117 5.3516-0.6875 1.4805-0.41797 1.7578-1.6289 2.1875-0.97656 0.65625-1.2227 0.6875-1.1484 0.18359-1.4492-0.20703-1.3242-0.74609-1.1367-0.078125-1.2578 0.62891-2.0547 1.1328-2.1719 1.3984-1.0938 0.55859-1.0508 0.53906-1.5547 1.1602-1.793 1.6758-2.4258 2.7148-0.85547 0.53906-1.6797 0.26562-1.0586-0.10156-1.8125-0.17188-1.6602 0.097656-1.1055 0.13281-1.1445 0.28125-2.043 0.26172-1.1211 0.26562-0.72656 0.92969-0.32031 1.375-1.1641 1.3828-2.3906 2.0469-1.25 0.32422-1.9414-0.44531-2.8633-1.4141-1.4961-0.44922-2.3828-0.71875-3.7344-1.4922-2.1797-0.19141-1.2422-0.12891-1.2969-0.21094-2.1992-0.98438-0.89062-0.50391-2.6328 1.7812-1.1328 0.46875-1.2969-0.25781-1.0156-0.66406-1.1836 0.097657-0.85547 1.082-1.5547 0.76172-1.0352 0.9375-0.47656 1.8867-1.3477 2.4414-0.625 0.99609-1.0234 0.66016-1.5117 0.023437-1.332 0.4375-1.9648 1.0352-1.1289 0.92188-0.82031 0.67188-0.84375 0.6875-0.875 0.71484-1.7305 1.7109-0.94141 1.4961-1.2148-0.96875-0.48828-0.89062-0.32812-1.1562-1.75-1.7539-0.44922-0.94531-0.80859-1.1602-0.40625-1.3438-0.5625-1.2305-0.69531-0.86328-1.0078-0.3125-0.98828-0.92969-0.49609-0.91406-1.332-0.007812-1.0352-0.20312 0.14844-1.2305-0.6875-1.0938-0.76562-0.72656-1.1797 0.11719-1.1992-0.23828-1.2891-0.046875-0.90625-0.63672-1.457 0.30859-1.2891 1.0586-0.75 0.86328-0.76953 0.88672-1.0391 1.1719-1.375 1.2344-1.1289 0.60547-1.3438 0.13672-1.082 0.10938-1.5859 0.93359-1.4219 0.83984-2.0117 1.1875-0.96094 0.38281-1.1719-0.19922-1.6992-1.4648-0.70312-0.79297-1.0117-0.46094-1.4414 0.011719-1.1289-0.34375-1.4414-0.14453-1.1719 0.19531-1.4258-0.26562-1.0117 0.10938-0.97266 0.49219-1.1523 0.007812-0.83984-0.63281-0.51172-1.25 0.26953-1.2617 0.99219-1.2578-0.39062-0.99219-0.66797-0.76172-0.40625-1.5625 0.10547-1.0703-0.57031-0.83203-2.0234-1.0117-1.1172-1.0508-1.4453-0.76562-0.97656-0.36719-0.62109-0.78516-0.85547-0.53516-0.71875-1.2969-0.51172-1.1914-0.64453-1.3516-1.7695-1.4453-1.2227-1.1094-1.0117-0.69922-1.2383-0.44922-1.2227-0.66797-1.543 0.03125-0.98828 0.31641-1.1484 0.14844-1.8984 1.2891-1.4766 0.97656-0.75 0.6875-1.6133-1.1094-1.4766-0.80859-1.0586-0.88281-1.2344-1.0312-1.1914-1.3945-1.1016-0.74219-1.6367 0.25-1.0938-0.0625-1.2305-0.71875-0.57031-1.5156-1.3867-1.1172-0.98047-0.40234-1.1055-0.75781-1.6016-0.99219-1.4414-1.1836-1.2734-0.16406-1.0195-0.21875 0.80859-0.95703 1.207-0.77344 1.043-0.80469 0.82422-0.57422-0.14844-1.3867 0.67188-1.0977 0.96875-0.62109 0.77734-0.76172 0.70703-0.82031 1.3359-1.0586 0.60547-0.80078 0.097657-1.0039 0.5625-0.90234 0.60938-0.85156 1.2734-0.48047 1.3867-1.2461 0.92188-0.70312 1.0273-0.42188 1.3516-0.050781 1.3789-1.1094 0.98828-1.4727 0.83203-0.77734 1.0117-0.39062 0.80469-0.99609 0.35156-1.2227 1.6562-1.3047 1.1914-0.42969 1.3906 0.078125 1.2969 0.23047 2.1133-0.53125 1.6289-1.1875 1.0938-0.83984 1.1758 0.45312h1.4023l0.95312-0.54297 0.98828-1.0547 0.86328-0.94141 1.2344-0.52344 2.0508 0.61328 1.1289-0.14453 1.1406-0.14844 1.0547 0.23438 2.2539 0.20703 1.0078 0.10156 1.4766 1.1328 1.25 1.0078 1.2109 0.98047 2.7852 2.25 1.3477 1.1914 2.0039 0.34375 0.9375-0.5 1.8789-0.4375 1.0312-0.09375 1.0664-0.0625 1.2188 0.082032 0.86719 1.3047 0.67188 0.97266 1.2383 0.29688 1.7734-0.56641 2.0781-0.53516 1.5742-0.66797 0.76953-0.73828 0.86719-1.4062 0.90625-1.0742 1.0312-1.7656 1.4922-0.84375 0.87109-0.71484 1.5195-2.043 0.78516-1.7422 0.42188-1.6875 1.4922-0.47656 1.2383 0.39453 2.1055 0.67188 1.0156-0.33594 1.1797-0.65625 1.6133-0.67578 1.6484-0.69531 2.0547-1.1523 2.8125-1.0664 2.332-0.62109 2.0664-0.0625 1.875-0.019531 1.3398 0.035156 1 0.14844 2.7773-1.7266 1.5078-0.72656 1.7812-1.1992 1.0312-1.0312 0.76953-0.76562 1.3125-1.7812 0.53516-1.0586 0.60156-1 1.4375-1.0273 2.0898-0.80469 1.1719-0.22656 1.7852-0.027344 2.0352 0.50391 1.3672-0.22266 1.3086-1.0625 0.75391-1.5859 0.52734-0.86719 1.1992-1.6719 1.2812-2.6484 0.61328-1.5039 0.78125-0.83594 1.2266-0.86328 2.9297-0.50391 2.6172-0.17969 1.8125 0.097656 1.4023 0.28125 1.0039 0.019532 1.043-0.59766 1.0195-0.46094 1.4453-0.33203 1.5352-0.035157 1.6602-0.039062 1.457-0.33984 1.7539-0.71484 1.1562-1.7109 0.47266-1.2422-1.2852-1.9688-1.125-1.207-1.2812-2.5195 2.1367 0.035156 1.4414-0.10938 1.0039 0.125 1.4766 1.0234 1.9102-0.28906 1.9336-1.375 1.2773-0.98438 1.1914-1.0312 0.65234-0.76562 0.67969-0.80078 0.55078-1.0586z" fill="#ccc" fill-rule="evenodd"/>
<path d="m388.31 193.21 0.63281 0.26172 1.043 0.64844 1.8281 1.1367 0.72656 0.88281 0.55859 0.90625 0.1875 1.0938 0.97266 2.1367 0.375 1.1602-0.11719 1.7891 1.6719 1.9883 1.7227 0.88672 2.9531 2.5859 1.4297 0.88672-0.9375 3.2383-0.15625 2.1484 0.17188 1.7656 0.050781 2.4258 0.11328 1.8125 0.82422 1.6875 1.6523 0.78906 1.7266 1.0781 0.82422 0.93359 0.46875 1.4727 1.9727 1.7969 1.332 0.60938 1.9023 1.3672 2.0703 1.4844 2.2344 1.2773 2.0508 1.5469 0.97266 1.2578 1.3281 1.0781 1.7969 0.82422 2.2969 0.71875 1.8984 0.59375 2.125 0.30469 2.9102 0.25781 1.0508 0.3125 2.8984 2.9102 3.6953 1.7969 2.0391 1.3477-1.6289 2.8008-2.1328 0.77734-2.6211 0.73828-3.4023 1.3516-1.7188 1.3125-0.53516 0.90234-0.82422 2.25-0.76562 1.4922-0.62891 0.79688-1.3828 0.62891-2.0547 0.67188-1.707 0.51953-2.1641-0.042969-1.7656-0.39062-1.7227-0.57031-1.4453 0.42578-2.2773 0.70312-1.8203 0.91016-0.57812 0.99609-0.375 1.4609-0.11328 1.0898-0.46875 1.6445-1.3867 1.9336-1.1055 1.7227-2.5117 5.3516-0.6875 1.4805-0.41797 1.7578-1.6289 2.1875-0.97656 0.65625-1.2227 0.6875-1.1484 0.18359-1.4492-0.20703-1.3242-0.74609-1.1367-0.078125-1.2578 0.62891-2.0547 1.1328-2.1719 1.3984-1.0938 0.55859-1.0508 0.53906-1.5547 1.1602-1.793 1.6758-2.4258 2.7148-0.85547 0.53906-1.6797 0.26562-1.0586-0.10156-1.8125-0.17188-1.6602 0.097656-1.1055 0.13281-1.1445 0.28125-2.043 0.26172-1.1211 0.26562-0.72656 0.92969-0.32031 1.375-1.1641 1.3828-2.3906 2.0469-1.25 0.32422-1.9414-0.44531-2.8633-1.4141-1.4961-0.44922-2.3828-0.71875-3.7344-1.4922-2.1797-0.19141-1.2422-0.12891-1.2969-0.21094-2.1992-0.98438-0.89062-0.50391-2.6328 1.7812-1.1328 0.46875-1.2969-0.25781-1.0156-0.66406-1.1836 0.097657-0.85547 1.082-1.5547 0.76172-1.0352 0.9375-0.47656 1.8867-1.3477 2.4414-0.625 0.99609-1.0234 0.66016-1.5117 0.023437-1.332 0.4375-1.9648 1.0352-1.1289 0.92188-0.82031 0.67188-0.84375 0.6875-0.875 0.71484-1.7305 1.7109-0.94141 1.4961-1.2148-0.96875-0.48828-0.89062-0.32812-1.1562-1.75-1.7539-0.44922-0.94531-0.80859-1.1602-0.40625-1.3438-0.5625-1.2305-0.69531-0.86328-1.0078-0.3125-0.98828-0.92969-0.49609-0.91406-1.332-0.007812-1.0352-0.20312 0.14844-1.2305-0.6875-1.0938-0.76562-0.72656-1.1797 0.11719-1.1992-0.23828-1.2891-0.046875-0.90625-0.63672-1.457 0.30859-1.2891 1.0586-0.75 0.86328-0.76953 0.88672-1.0391 1.1719-1.375 1.2344-1.1289 0.60547-1.3438 0.13672-1.082 0.10938-1.5859 0.93359-1.4219 0.83984-2.0117 1.1875-0.96094 0.38281-1.1719-0.19922-1.6992-1.4648-0.70312-0.79297-1.0117-0.46094-1.4414 0.011719-1.1289-0.34375-1.4414-0.14453-1.1719 0.19531-1.4258-0.26562-1.0117 0.10938-0.97266 0.49219-1.1523 0.007812-0.83984-0.63281-0.51172-1.25 0.26953-1.2617 0.99219-1.2578-0.39062-0.99219-0.66797-0.76172-0.40625-1.5625 0.10547-1.0703-0.57031-0.83203-2.0234-1.0117-1.1172-1.0508-1.4453-0.76562-0.97656-0.36719-0.62109-0.78516-0.85547-0.53516-0.71875-1.2969-0.51172-1.1914-0.64453-1.3516-1.7695-1.4453-1.2227-1.1094-1.0117-0.69922-1.2383-0.44922-1.2227-0.66797-1.543 0.03125-0.98828 0.31641-1.1484 0.14844-1.8984 1.2891-1.4766 0.97656-0.75 0.6875-1.6133-1.1094-1.4766-0.80859-1.0586-0.88281-1.2344-1.0312-1.1914-1.3945-1.1016-0.74219-1.6367 0.25-1.0938-0.0625-1.2305-0.71875-0.57031-1.5156-1.3867-1.1172-0.98047-0.40234-1.1055-0.75781-1.6016-0.99219-1.4414-1.1836-1.2734-0.16406-1.0195-0.21875 0.80859-0.95703 1.207-0.77344 1.043-0.80469 0.82422-0.57422-0.14844-1.3867 0.67188-1.0977 0.96875-0.62109 0.77734-0.76172 0.70703-0.82031 1.3359-1.0586 0.60547-0.80078 0.097657-1.0039 0.5625-0.90234 0.60938-0.85156 1.2734-0.48047 1.3867-1.2461 0.92188-0.70312 1.0273-0.42188 1.3516-0.050781 1.3789-1.1094 0.98828-1.4727 0.83203-0.77734 1.0117-0.39062 0.80469-0.99609 0.35156-1.2227 1.6562-1.3047 1.1914-0.42969 1.3906 0.078125 1.2969 0.23047 2.1133-0.53125 1.6289-1.1875 1.0938-0.83984 1.1758 0.45312h1.4023l0.95312-0.54297 0.98828-1.0547 0.86328-0.94141 1.2344-0.52344 2.0508 0.61328 1.1289-0.14453 1.1406-0.14844 1.0547 0.23438 2.2539 0.20703 1.0078 0.10156 1.4766 1.1328 1.25 1.0078 1.2109 0.98047 2.7852 2.25 1.3477 1.1914 2.0039 0.34375 0.9375-0.5 1.8789-0.4375 1.0312-0.09375 1.0664-0.0625 1.2188 0.082032 0.86719 1.3047 0.67188 0.97266 1.2383 0.29688 1.7734-0.56641 2.0781-0.53516 1.5742-0.66797 0.76953-0.73828 0.86719-1.4062 0.90625-1.0742 1.0312-1.7656 1.4922-0.84375 0.87109-0.71484 1.5195-2.043 0.78516-1.7422 0.42188-1.6875 1.4922-0.47656 1.2383 0.39453 2.1055 0.67188 1.0156-0.33594 1.1797-0.65625 1.6133-0.67578 1.6484-0.69531 2.0547-1.1523 2.8125-1.0664 2.332-0.62109 2.0664-0.0625 1.875-0.019531 1.3398 0.035156 1 0.14844 2.7773-1.7266 1.5078-0.72656 1.7812-1.1992 1.0312-1.0312 0.76953-0.76562 1.3125-1.7812 0.53516-1.0586 0.60156-1 1.4375-1.0273 2.0898-0.80469 1.1719-0.22656 1.7852-0.027344 2.0352 0.50391 1.3672-0.22266 1.3086-1.0625 0.75391-1.5859 0.52734-0.86719 1.1992-1.6719 1.2812-2.6484 0.61328-1.5039 0.78125-0.83594 1.2266-0.86328 2.9297-0.50391 2.6172-0.17969 1.8125 0.097656 1.4023 0.28125 1.0039 0.019532 1.043-0.59766 1.0195-0.46094 1.4453-0.33203 1.5352-0.035157 1.6602-0.039062 1.457-0.33984 1.7539-0.71484 1.1562-1.7109 0.47266-1.2422-1.2852-1.9688-1.125-1.207-1.2812-2.5195 2.1367 0.035156 1.4414-0.10938 1.0039 0.125 1.4766 1.0234 1.9102-0.28906 1.9336-1.375 1.2773-0.98438 1.1914-1.0312 0.65234-0.76562 0.67969-0.80078 0.55078-1.0586 1.6914-0.30469" fill="none" stroke="#fff" stroke-linecap="round" stroke-linejoin="round" stroke-miterlimit="10" stroke-width="2"/>
<path d="m313.39 114.22 0.23047 0.070313 1.0117 0.25391 1.1562-0.054688 1.1523-0.097656 1.0742 0.29297 1.1836 0.48828 1.1406 0.44922 0.97266 0.47266 1.125 0.66797 1.3945 0.70312 1.3047 0.11328 1.6445 0.23438 0.94141 0.62891 1.3359 0.83984 0.96875 0.70312 2.3203 0.4375 1.6797 0.55859 1.7461 0.34375 1.5625-0.085938 1.0664 0.33984 1.2461 0.39844 1.5703 0.58203 1.0781 0.31641 1.6016 0.96094 0.53906 1.1914 0.87891 1.0039 0.023438 1.5234-0.15625 1.0039-0.16797 1.2344-0.44922 0.98828-0.53125 1.1562 0.14062 1.6836 0.23828 1.3867 0.59766 1.1797 0.83984 1.1875 0.45703 0.99609 0.88281 1.668 0.50781 0.89453 0.57812 1.1758 0.050781 1.3438-0.097656 1.082-0.26172 1.418 0.47266 1.6016 1.5781 1.7109 0.62109 1.0938 1.1172 1.5586 1.3203 1.4766 1.0508 2.5273 0.80078 1.6172 0.39062 1.0977 0.42578 2.2695 0.45703 1.4883 0.67188 1.5859 1.5195 1.957 1.5195 2.2734 1.3555 0.66797 1.1094 0.55078 0.9375 0.69922 0.22266 1.3516 0.28906 1.2695-0.57422 0.85547-1.1055 0.98047-1.7305 1.0273-2.7617 1.1562-0.76953 1.0273-0.42188 1.1836-0.43359 1.1484-0.28516 1.0508-0.31641 1.1016-0.14453 1.2812-0.19531 1.7773-0.45703 1.0938-0.67578 1.2617-0.64453 0.92969-1.1602 1.293-1.6562 1.7617-1.0703 0.51953-1.0195 0.19531-2.5938-0.097656-1.8867-1.3789-1.0938-0.61328-1.6211-0.64844-1.8906-0.4375-1.4062-0.14453-1.4727-0.15234-1.1211-0.47656-1.8047-0.32812-1.4648-0.30078-1.0156-0.55859-0.80078-1.043-0.77734-1.0117-0.92578-1.2031-1.3789-1.2188-1.9688-0.76562-2.2891 0.27344-1.2578 0.066406-2.0273 0.10938-1.3047 0.097656-1.1562-0.21484h-1.7969l-2.4219 0.14453-1.3398 0.23828-1.2227-0.089844-1.4883-0.86719-2.3359-2.6016-3.2812-3.3242-0.78516-1.6211-0.26172-1.1914 0.94531-1.2344 0.79297-0.98438-0.5-1.7734-0.54688-2.5898-0.082031-1.0586 0.042969-1.2734 0.66016-1.4766 0.60156-0.83984 0.50781-1.2227 0.5625-0.91797 0.71484-0.78516 0.53125-0.87891 0.55469-1.0781 1.2656-1.3125 0.19531-1.3438 0.77344-1.4609 0.24219-1.7461-0.007813-2.2344-0.070312-2.7383-0.64453-3.4102 0.64453-1.9492 0.11328-1.1992 0.082031-1.7266-0.21484-3.1484-0.47266-2.0469 0.042969-1.5 0.33984-1.7852 0.035156-3.2227 0.20312-1.5547 0.21094-1.1836-0.0625-1.5352 0.31641-1.8242 0.03125-1.3867-0.34766-1.2383-0.43359-0.99609-0.74219-0.78125-1.543-0.23047 0.97266-0.69922 2.168-0.35938 1.168-0.027344 1.1328-0.054687z" fill="#ccc" fill-rule="evenodd"/>
<path d="m313.39 114.22 0.23047 0.070313 1.0117 0.25391 1.1562-0.054688 1.1523-0.097656 1.0742 0.29297 1.1836 0.48828 1.1406 0.44922 0.97266 0.47266 1.125 0.66797 1.3945 0.70312 1.3047 0.11328 1.6445 0.23438 0.94141 0.62891 1.3359 0.83984 0.96875 0.70312 2.3203 0.4375 1.6797 0.55859 1.7461 0.34375 1.5625-0.085938 1.0664 0.33984 1.2461 0.39844 1.5703 0.58203 1.0781 0.31641 1.6016 0.96094 0.53906 1.1914 0.87891 1.0039 0.023438 1.5234-0.15625 1.0039-0.16797 1.2344-0.44922 0.98828-0.53125 1.1562 0.14062 1.6836 0.23828 1.3867 0.59766 1.1797 0.83984 1.1875 0.45703 0.99609 0.88281 1.668 0.50781 0.89453 0.57812 1.1758 0.050781 1.3438-0.097656 1.082-0.26172 1.418 0.47266 1.6016 1.5781 1.7109 0.62109 1.0938 1.1172 1.5586 1.3203 1.4766 1.0508 2.5273 0.80078 1.6172 0.39062 1.0977 0.42578 2.2695 0.45703 1.4883 0.67188 1.5859 1.5195 1.957 1.5195 2.2734 1.3555 0.66797 1.1094 0.55078 0.9375 0.69922 0.22266 1.3516 0.28906 1.2695-0.57422 0.85547-1.1055 0.98047-1.7305 1.0273-2.7617 1.1562-0.76953 1.0273-0.42188 1.1836-0.43359 1.1484-0.28516 1.0508-0.31641 1.1016-0.14453 1.2812-0.19531 1.7773-0.45703 1.0938-0.67578 1.2617-0.64453 0.92969-1.1602 1.293-1.6562 1.7617-1.0703 0.51953-1.0195 0.19531-2.5938-0.097656-1.8867-1.3789-1.0938-0.61328-1.6211-0.64844-1.8906-0.4375-1.4062-0.14453-1.4727-0.15234-1.1211-0.47656-1.8047-0.32812-1.4648-0.30078-1.0156-0.55859-0.80078-1.043-0.77734-1.0117-0.92578-1.2031-1.3789-1.2188-1.9688-0.76562-2.2891 0.27344-1.2578 0.066406-2.0273 0.10938-1.3047 0.097656-1.1562-0.21484h-1.7969l-2.4219 0.14453-1.3398 0.23828-1.2227-0.089844-1.4883-0.86719-2.3359-2.6016-3.2812-3.3242-0.78516-1.6211-0.26172-1.1914 0.94531-1.2344 0.79297-0.98438-0.5-1.7734-0.54688-2.5898-0.082031-1.0586 0.042969-1.2734 0.66016-1.4766 0.60156-0.83984 0.50781-1.2227 0.5625-0.91797 0.71484-0.78516 0.53125-0.87891 0.55469-1.0781 1.2656-1.3125 0.19531-1.3438 0.77344-1.4609 0.24219-1.7461-0.007813-2.2344-0.070312-2.7383-0.64453-3.4102 0.64453-1.9492 0.11328-1.1992 0.082031-1.7266-0.21484-3.1484-0.47266-2.0469 0.042969-1.5 0.33984-1.7852 0.035156-3.2227 0.20312-1.5547 0.21094-1.1836-0.0625-1.5352 0.31641-1.8242 0.03125-1.3867-0.34766-1.2383-0.43359-0.99609-0.74219-0.78125-1.543-0.23047 0.97266-0.69922 2.168-0.35938 1.168-0.027344 1.1328-0.054687 0.99219-0.007813" fill="none" stroke="#fff" stroke-linecap="round" stroke-linejoin="round" stroke-miterlimit="10" stroke-width="2"/>
<path d="m350.06 16.539 0.29688 0.42188 0.43359 1.2617 0.03125 1.5039 0.058593 1.418 0.11328 1.3047 0.16797 2.1602 0.64844 1.1484 0.80859 0.69922 0.42578 1.0195 0.95703 1.3398 1.7344 0.80859 1.3711-0.32031 1.3242 0.13672 1.4609 0.51953 2.1367-0.31641 1.0039-0.03125 1.1641 0.28516 2.2617 0.15625 1.0391-0.15625 1.0039-0.50391 1.6953-0.72266 1.668-0.22266 1.5391 0.78906 0.91016 0.46875 1.1602 0.3125 1.5469 0.22656 2.5508-0.089844 1.707-0.066406 1.5117 0.17188 1.8555 0.59375 1.0938-0.058594 1.1875-0.066406 1.0273-0.023438 1.293 0.11719 2.6133 0.42969 1.3711 0.45312 1.8594 0.39062 1.7656-0.57031 4.1406-1.3516 2.2617-0.875 2.5 1.8125 1.0273 1.4453 2.2617-0.070313 3.4883-1.0234 1.6562 0.46875 0.94141 0.39844 0.62891 2.6797-0.38281 2.8633-0.11719 1.6094 1.0938 1.8672 1.2148 2.2148 0.74609 1.4336-0.19531 1.4453-0.99609 0.84766-0.76562 1.4492-0.27734 1.3633 1.1992 3.6562 0.93359 0.69922-0.3125 1.4961-0.42188 1.5273-0.6875 1.1484-0.58203 0.98438-0.83984 1.8828-0.85547 0.73047-1.457 0.24609-1.2539 0.085937-1.3516 0.089844-2.7695-0.074219-2.0508-0.054687-1.0508-0.14062-1.3047-0.19141-1.2383 0.050782-1.2969 0.25391-1.0625 0.14453-0.93359 0.43359-0.78516 0.64453-0.88672 0.61719-0.85156 0.60547-1.0078 0.53125-0.94922 0.39062-1.0195 0.55469-0.99219 0.47266-1.0859 0.45703-0.94531 0.38281-0.89844 0.53906-1.1055 0.60156-1.0547 0.62109-1.082 0.17188-1.1172 0.20312-0.61328 0.87109-0.51172 0.9375-0.94141 0.72656-0.9375 1.4023-0.35938 1.0625-0.72266 0.85547-0.34375 0.97656-1.1094 0.71875-1.5664 0.46484-1.3945 0.15625-1.043-0.19141-0.92969-0.55859-1.457-1.0195-0.91406-0.79297-1.0039-0.35938-1.1094-0.48828-1.3789 0.089844-1.2617 0.28516-1.2344 0.1875-1.0352 0.20312-0.97656 0.26953-1.0273-0.039063-1.0703-0.41797-1.1953 0.36719-0.875 0.51562-1.2305 0.21875-1.0352 0.12109-0.96094 0.49219-0.89844 0.82812-0.53125 1.0547-0.61719 0.80469-1.4375 0.30469-1.0117-0.10938-0.65234 1.3164-0.46484 0.96875-0.47266 1.043-0.31641 1.2148-0.81641 1.5-0.87891 0.52344-1.1992 0.03125-0.95312 0.51562-1.1094 0.25-0.92188 0.51562-1.3398 0.5625-0.87109 0.62891-0.99609 0.63672-0.17188 1.0352-0.27344 1.125 0.023437 1.0664 0.14453 1.25-0.007813 1.5469-0.046875 1.543 0.10547 1.5898-0.38281 1.0273-0.74219 0.71094-0.62109 0.87891-1.0508 0.54688-0.99609 0.85547-0.25 1.1836 0.054688 1.0352 0.50781 0.89844 0.33984 0.95312 0.13281 1.2695-0.47266 1.207-0.78516 0.71094-0.89453 0.51172-0.46875 0.92188-0.96094 0.58984-0.83984 0.79688-1.1016 0.53906-1.1562 0.33594-1.1562-0.066406-1.1523 0.16406-1.1562 0.046875-1.0117 0.19531-1.0117 0.13281-1.2656-0.20703-1.3594-0.24219-1.2734 0.19531-1.0195 0.14844-1.3516 0.66797-0.99609 0.16797-1.1641-0.37109-1.1094-0.089843-0.96484 0.28516-1.0586-0.27734-1.1055-0.19531-1.0312 0.12891-1.1562-0.089844-3.0508 0.43359-0.95703 0.67969-1.2344 0.54688-1.0234 0.039063-0.98438-0.19922-1.3203-0.36328-1.1133-0.26172-1.2852-0.57031-0.87109-0.67969-0.87891-0.72656-1.4336-0.51562-1.25-0.46094-1.0664-0.3125-1.0234-0.36328-1.2617-0.48438-1.0703-0.074219-1.6211-0.10547-1.1602-0.26953-0.88672-0.57031-1.1992 0.066406-0.85938-0.88281-0.75781-1.1055-1.207-0.015625-0.96875-0.25391-1.2812-1.0508-0.75781-0.67969-1.0859-0.65234-0.86328-0.69141-1.2305-1.7695-0.79297-1.0859-0.41406-1.4766-0.20703-1.1875-0.28906-1.2656-0.9375-1.3711-1.0078-1.0742-1.2773-1.0352 0.71875-1.0117 0.89453-0.65234 1.4297-0.61328 1.6055-0.79688 1.3438-0.35156 0.99609-0.44141 1.7109-0.61719 1.6914 0.023437 1.3047-0.36719 1.4844-0.007813 1.2148-1.0938 1.9492-1.7695 0.92578-0.73438 1.0039-0.97656 2.4141-1.8945 0.9375-0.67578 1.2812-0.55469 1.1641 0.066407 1.4141-0.17188 1.2383-0.30078 0.85547-1.4297 0.59375-0.8125 0.54688-1.0781 0.23828-1.1992 1.4258-0.26953 1.0039-0.89453 0.98438-0.92969 0.91406-0.49219 1.2227-0.66016 0.94922-0.64062 0.94531-0.34375 1.043-0.48047 1.0352-0.015625 0.57812-0.88281 0.042969-1.1562 0.49609-0.91406 0.58594-0.86328 0.38281-1.0312 0.23828-1.0273 0.015625-1.1562-0.054687-1.1562 0.4375-0.94531 0.84766-0.59766 1.0703-0.36719 0.95312-0.39062 0.72656-0.77344 1.0195-0.33594 0.32422-1.1484 0.61328-0.88281 1.043-0.51172 0.95312-0.51562 0.75781-0.73438 0.20703-1.0117 0.41406-0.96875 0.75781-0.94531 0.72656-0.97266 0.72656-1.1172 0.76562-0.9375 0.78125-0.75 0.875-0.60156 0.78125-0.68359 1.0117-0.46484 1.1328-0.11719 1.2422-0.41406 0.78125-0.69141 1.418-0.90625 0.94531-0.40234 1.1328-0.30859 0.91406-0.43359 1.3125-0.42188 1.3203-0.55078 1.1797-0.57422 1.2383-1.3047 1.418-0.046875 1.293-0.35938 0.32422-1.2266-0.28906-0.96094-0.92578-0.51562-1-0.28125-0.99219-0.28125-1.5352-0.92578-1.125-0.71875-0.81641-0.75781-1.0586-1.2227-0.81641-0.63672-0.88672-0.57031-0.98828-0.38672-1.1836-0.015625-1.2148-0.078125-1.7266-0.67969-0.84766-0.60156-1.0859-0.44141-1.1484-0.52344-1.125-0.52734-0.94531-0.47266-0.89844-0.52344-0.94531-0.35156-1.1523 0.10547-1.1562-0.007813-1.0039-1.457-0.39844-1.6797-0.69531-1.0352 1.0391-0.32812 1.1484 0.12891 1.0938 0.35156 1.2773 0.17969 1.0352 0.35156 1.0039 0.75781 1.0039 0.47266 1.2656 0.14844 1.2148-0.097656 1.2148-0.34375 1.1484-0.15625 1.1641-0.28516 1.1602-0.50391 1.1484-0.30469 1.1523-0.16797 1.1328-0.44922 0.90234-0.51562 1.0312-0.39062 1.0234-0.44922 1.0391-0.089844 1.4766-0.75 0.63281-1.043 0.95703-0.77344 1-1.3047 1.1523-0.39062 1.0898-0.47266 1.0898-0.51953 0.70703-1.0508 0.5625-0.96094z" fill="#ccc" fill-rule="evenodd"/>
<path d="m350.06 16.539 0.29688 0.42188 0.43359 1.2617 0.03125 1.5039 0.058593 1.418 0.11328 1.3047 0.16797 2.1602 0.64844 1.1484 0.80859 0.69922 0.42578 1.0195 0.95703 1.3398 1.7344 0.80859 1.3711-0.32031 1.3242 0.13672 1.4609 0.51953 2.1367-0.31641 1.0039-0.03125 1.1641 0.28516 2.2617 0.15625 1.0391-0.15625 1.0039-0.50391 1.6953-0.72266 1.668-0.22266 1.5391 0.78906 0.91016 0.46875 1.1602 0.3125 1.5469 0.22656 2.5508-0.089844 1.707-0.066406 1.5117 0.17188 1.8555 0.59375 1.0938-0.058594 1.1875-0.066406 1.0273-0.023438 1.293 0.11719 2.6133 0.42969 1.3711 0.45312 1.8594 0.39062 1.7656-0.57031 4.1406-1.3516 2.2617-0.875 2.5 1.8125 1.0273 1.4453 2.2617-0.070313 3.4883-1.0234 1.6562 0.46875 0.94141 0.39844 0.62891 2.6797-0.38281 2.8633-0.11719 1.6094 1.0938 1.8672 1.2148 2.2148 0.74609 1.4336-0.19531 1.4453-0.99609 0.84766-0.76562 1.4492-0.27734 1.3633 1.1992 3.6562 0.93359 0.69922-0.3125 1.4961-0.42188 1.5273-0.6875 1.1484-0.58203 0.98438-0.83984 1.8828-0.85547 0.73047-1.457 0.24609-1.2539 0.085937-1.3516 0.089844-2.7695-0.074219-2.0508-0.054687-1.0508-0.14062-1.3047-0.19141-1.2383 0.050782-1.2969 0.25391-1.0625 0.14453-0.93359 0.43359-0.78516 0.64453-0.88672 0.61719-0.85156 0.60547-1.0078 0.53125-0.94922 0.39062-1.0195 0.55469-0.99219 0.47266-1.0859 0.45703-0.94531 0.38281-0.89844 0.53906-1.1055 0.60156-1.0547 0.62109-1.082 0.17188-1.1172 0.20312-0.61328 0.87109-0.51172 0.9375-0.94141 0.72656-0.9375 1.4023-0.35938 1.0625-0.72266 0.85547-0.34375 0.97656-1.1094 0.71875-1.5664 0.46484-1.3945 0.15625-1.043-0.19141-0.92969-0.55859-1.457-1.0195-0.91406-0.79297-1.0039-0.35938-1.1094-0.48828-1.3789 0.089844-1.2617 0.28516-1.2344 0.1875-1.0352 0.20312-0.97656 0.26953-1.0273-0.039063-1.0703-0.41797-1.1953 0.36719-0.875 0.51562-1.2305 0.21875-1.0352 0.12109-0.96094 0.49219-0.89844 0.82812-0.53125 1.0547-0.61719 0.80469-1.4375 0.30469-1.0117-0.10938-0.65234 1.3164-0.46484 0.96875-0.47266 1.043-0.31641 1.2148-0.81641 1.5-0.87891 0.52344-1.1992 0.03125-0.95312 0.51562-1.1094 0.25-0.92188 0.51562-1.3398 0.5625-0.87109 0.62891-0.99609 0.63672-0.17188 1.0352-0.27344 1.125 0.023437 1.0664 0.14453 1.25-0.007813 1.5469-0.046875 1.543 0.10547 1.5898-0.38281 1.0273-0.74219 0.71094-0.62109 0.87891-1.0508 0.54688-0.99609 0.85547-0.25 1.1836 0.054688 1.0352 0.50781 0.89844 0.33984 0.95312 0.13281 1.2695-0.47266 1.207-0.78516 0.71094-0.89453 0.51172-0.46875 0.92188-0.96094 0.58984-0.83984 0.79688-1.1016 0.53906-1.1562 0.33594-1.1562-0.066406-1.1523 0.16406-1.1562 0.046875-1.0117 0.19531-1.0117 0.13281-1.2656-0.20703-1.3594-0.24219-1.2734 0.19531-1.0195 0.14844-1.3516 0.66797-0.99609 0.16797-1.1641-0.37109-1.1094-0.089843-0.96484 0.28516-1.0586-0.27734-1.1055-0.19531-1.0312 0.12891-1.1562-0.089844-3.0508 0.43359-0.95703 0.67969-1.2344 0.54688-1.0234 0.039063-0.98438-0.19922-1.3203-0.36328-1.1133-0.26172-1.2852-0.57031-0.87109-0.67969-0.87891-0.72656-1.4336-0.51562-1.25-0.46094-1.0664-0.3125-1.0234-0.36328-1.2617-0.48438-1.0703-0.074219-1.6211-0.10547-1.1602-0.26953-0.88672-0.57031-1.1992 0.066406-0.85938-0.88281-0.75781-1.1055-1.207-0.015625-0.96875-0.25391-1.2812-1.0508-0.75781-0.67969-1.0859-0.65234-0.86328-0.69141-1.2305-1.7695-0.79297-1.0859-0.41406-1.4766-0.20703-1.1875-0.28906-1.2656-0.9375-1.3711-1.0078-1.0742-1.2773-1.0352 0.71875-1.0117 0.89453-0.65234 1.4297-0.61328 1.6055-0.79688 1.3438-0.35156 0.99609-0.44141 1.7109-0.61719 1.6914 0.023437 1.3047-0.36719 1.4844-0.007813 1.2148-1.0938 1.9492-1.7695 0.92578-0.73438 1.0039-0.97656 2.4141-1.8945 0.9375-0.67578 1.2812-0.55469 1.1641 0.066407 1.4141-0.17188 1.2383-0.30078 0.85547-1.4297 0.59375-0.8125 0.54688-1.0781 0.23828-1.1992 1.4258-0.26953 1.0039-0.89453 0.98438-0.92969 0.91406-0.49219 1.2227-0.66016 0.94922-0.64062 0.94531-0.34375 1.043-0.48047 1.0352-0.015625 0.57812-0.88281 0.042969-1.1562 0.49609-0.91406 0.58594-0.86328 0.38281-1.0312 0.23828-1.0273 0.015625-1.1562-0.054687-1.1562 0.4375-0.94531 0.84766-0.59766 1.0703-0.36719 0.95312-0.39062 0.72656-0.77344 1.0195-0.33594 0.32422-1.1484 0.61328-0.88281 1.043-0.51172 0.95312-0.51562 0.75781-0.73438 0.20703-1.0117 0.41406-0.96875 0.75781-0.94531 0.72656-0.97266 0.72656-1.1172 0.76562-0.9375 0.78125-0.75 0.875-0.60156 0.78125-0.68359 1.0117-0.46484 1.1328-0.11719 1.2422-0.41406 0.78125-0.69141 1.418-0.90625 0.94531-0.40234 1.1328-0.30859 0.91406-0.43359 1.3125-0.42188 1.3203-0.55078 1.1797-0.57422 1.2383-1.3047 1.418-0.046875 1.293-0.35938 0.32422-1.2266-0.28906-0.96094-0.92578-0.51562-1-0.28125-0.99219-0.28125-1.5352-0.92578-1.125-0.71875-0.81641-0.75781-1.0586-1.2227-0.81641-0.63672-0.88672-0.57031-0.98828-0.38672-1.1836-0.015625-1.2148-0.078125-1.7266-0.67969-0.84766-0.60156-1.0859-0.44141-1.1484-0.52344-1.125-0.52734-0.94531-0.47266-0.89844-0.52344-0.94531-0.35156-1.1523 0.10547-1.1562-0.007813-1.0039-1.457-0.39844-1.6797-0.69531-1.0352 1.0391-0.32812 1.1484 0.12891 1.0938 0.35156 1.2773 0.17969 1.0352 0.35156 1.0039 0.75781 1.0039 0.47266 1.2656 0.14844 1.2148-0.097656 1.2148-0.34375 1.1484-0.15625 1.1641-0.28516 1.1602-0.50391 1.1484-0.30469 1.1523-0.16797 1.1328-0.44922 0.90234-0.51562 1.0312-0.39062 1.0234-0.44922 1.0391-0.089844 1.4766-0.75 0.63281-1.043 0.95703-0.77344 1-1.3047 1.1523-0.39062 1.0898-0.47266 1.0898-0.51953 0.70703-1.0508 0.5625-0.96094 0.58984 0.38672" fill="none" stroke="#fff" stroke-linecap="round" stroke-linejoin="round" stroke-miterlimit="10" stroke-width="2"/>
<path d="m196.03 192.48 0.59766 0.039062-0.011719 1.0234 0.40234 1.4102 1.0117 0.57422 1.2695 1.207 0.71094 1.1914 0.019531 1.3867-0.96875 2.3945-0.77344 1.2891-0.59766 1-0.43359 1.1016-1.168 1.6445-0.87109 1.2227-0.25781 1.8086 0.73438 1.8398 0.67188 1.9805 0.32812 1.1016-0.023437 1.1211 0.37109 1.168 1.3281 2.0781 0.55469 0.86719 0.59375 1.9883 0.25391 1.9219-0.8125 1.6211-0.73047 0.83203-0.93359 1.2109-2.1914 0.85938-1.1562 0.70312-1.6836 2.9922-1.0078 1.625-0.30078 1.1914 1.0508 2.0195 0.41797 1.1953 0.25781 1.7344 0.14453 2.5664 0.24219 1.2578-1.0664 0.51562-1.168 0.53516-1.3828 0.31641-1.4648 0.47656-1.2891 1.168-1.1289 1.0898-2.5586 2.3047-1.207 0.96484-0.85156 1.0117-0.55469 1.0078-1.3281 0.97266-1.4453 0.13672-1.5703 0.47266-0.42969 1.1133-0.99219 0.79297-1.5039 0.89062-1.1094 0.31641-3.6211 0.89453-1.0117-0.75391-1.4844-0.84766-1.4219-1.1758-0.98828-1.0039-1.5781-0.58984-1.6328-0.67969-0.98438-0.58203-1.1328-0.62891-1.4062-0.8125-1.0352-0.78516-3.0391-1.5234-1.793-1.3359-0.92188-0.62109-1.5586-0.26172-1.3945-1.043-1.0039-1.2422-1.4688-0.097657-1.6016-0.40625-1.0195-0.20312-1.6641 0.35938-2.0977 0.26953-1.2148 0.17969-0.4375-1.2891-0.13672-2.25-0.10156-1.0273-0.12891-1.1641-0.37891-1.7422-0.17969-1.1602-0.71484-1.2656-0.89062-1.5703-0.64062-0.94531-0.089843-1.168 0.70703-2.5039 0.40234-1.0547 0.53516-0.99219 0.67188-0.98438 0.43359-0.95312 0.17969-1.2695 1.4688 0.21484 1.2305 0.45703 2.1016 0.29688 1.4609-0.023437 1.125 0.10938 1.4648 0.30469 3.6094 1.9414 1.4141-0.20312 1.7383 0.48828h1.4609l0.83984 0.73047 0.83984 1.0859 1.0391 0.45703 0.89062-0.51172 1.0273-0.28516 1.0977-0.027343 1.25 0.95703 1.0234 0.082031 1.3281 0.10156 1.1641 0.65234 0.89453 0.61719 1.0195 0.48828 1.25-0.023437 1.6641-0.65625 1.0898-0.21094 1.043-0.60938 0.84375-0.66016 0.91016-1.168 0.80859-1.1641 0.74219-0.74219 1.2891-0.81641 1.6211-0.80078 1.25-0.82422 2.0391-1.8828 0.60156-1.3516 0.53906-1.5195 1.0117-2.0781 0.10547-2.2266 0.20312-1.4258-0.10547-1.1992-0.67969-1.7305-0.71484-1.2148-0.44922-2.6719-0.097656-1.5195-0.375-1.6445-0.20312-1.1016-0.10156-1.875-0.16797-1.7461-0.035156-1.5508-0.34375-1.3594-1.0703-1.4375-1.1484-1.0352 1.2031-0.36328 1.332-0.21484 1.3867-0.09375 1.2969 0.15234 1.3711 0.65625 0.92578 0.79297 0.6875 0.80859 2.0469 0.24609 2.7695-0.33984 1.8906-0.69531 1.6992-1.2188 1.6211-0.48047z" fill="#ccc" fill-rule="evenodd"/>
<path d="m196.03 192.48 0.59766 0.039062-0.011719 1.0234 0.40234 1.4102 1.0117 0.57422 1.2695 1.207 0.71094 1.1914 0.019531 1.3867-0.96875 2.3945-0.77344 1.2891-0.59766 1-0.43359 1.1016-1.168 1.6445-0.87109 1.2227-0.25781 1.8086 0.73438 1.8398 0.67188 1.9805 0.32812 1.1016-0.023437 1.1211 0.37109 1.168 1.3281 2.0781 0.55469 0.86719 0.59375 1.9883 0.25391 1.9219-0.8125 1.6211-0.73047 0.83203-0.93359 1.2109-2.1914 0.85938-1.1562 0.70312-1.6836 2.9922-1.0078 1.625-0.30078 1.1914 1.0508 2.0195 0.41797 1.1953 0.25781 1.7344 0.14453 2.5664 0.24219 1.2578-1.0664 0.51562-1.168 0.53516-1.3828 0.31641-1.4648 0.47656-1.2891 1.168-1.1289 1.0898-2.5586 2.3047-1.207 0.96484-0.85156 1.0117-0.55469 1.0078-1.3281 0.97266-1.4453 0.13672-1.5703 0.47266-0.42969 1.1133-0.99219 0.79297-1.5039 0.89062-1.1094 0.31641-3.6211 0.89453-1.0117-0.75391-1.4844-0.84766-1.4219-1.1758-0.98828-1.0039-1.5781-0.58984-1.6328-0.67969-0.98438-0.58203-1.1328-0.62891-1.4062-0.8125-1.0352-0.78516-3.0391-1.5234-1.793-1.3359-0.92188-0.62109-1.5586-0.26172-1.3945-1.043-1.0039-1.2422-1.4688-0.097657-1.6016-0.40625-1.0195-0.20312-1.6641 0.35938-2.0977 0.26953-1.2148 0.17969-0.4375-1.2891-0.13672-2.25-0.10156-1.0273-0.12891-1.1641-0.37891-1.7422-0.17969-1.1602-0.71484-1.2656-0.89062-1.5703-0.64062-0.94531-0.089843-1.168 0.70703-2.5039 0.40234-1.0547 0.53516-0.99219 0.67188-0.98438 0.43359-0.95312 0.17969-1.2695 1.4688 0.21484 1.2305 0.45703 2.1016 0.29688 1.4609-0.023437 1.125 0.10938 1.4648 0.30469 3.6094 1.9414 1.4141-0.20312 1.7383 0.48828h1.4609l0.83984 0.73047 0.83984 1.0859 1.0391 0.45703 0.89062-0.51172 1.0273-0.28516 1.0977-0.027343 1.25 0.95703 1.0234 0.082031 1.3281 0.10156 1.1641 0.65234 0.89453 0.61719 1.0195 0.48828 1.25-0.023437 1.6641-0.65625 1.0898-0.21094 1.043-0.60938 0.84375-0.66016 0.91016-1.168 0.80859-1.1641 0.74219-0.74219 1.2891-0.81641 1.6211-0.80078 1.25-0.82422 2.0391-1.8828 0.60156-1.3516 0.53906-1.5195 1.0117-2.0781 0.10547-2.2266 0.20312-1.4258-0.10547-1.1992-0.67969-1.7305-0.71484-1.2148-0.44922-2.6719-0.097656-1.5195-0.375-1.6445-0.20312-1.1016-0.10156-1.875-0.16797-1.7461-0.035156-1.5508-0.34375-1.3594-1.0703-1.4375-1.1484-1.0352 1.2031-0.36328 1.332-0.21484 1.3867-0.09375 1.2969 0.15234 1.3711 0.65625 0.92578 0.79297 0.6875 0.80859 2.0469 0.24609 2.7695-0.33984 1.8906-0.69531 1.6992-1.2188 1.6211-0.48047 0.61719 0.039063" fill="none" stroke="#fff" stroke-linecap="round" stroke-linejoin="round" stroke-miterlimit="10" stroke-width="2"/>
<path d="m299.94 294.12 0.42578 0.41797 1.2617 0.21094 1.5195 0.23828 1.1797-0.11719 0.76562 0.72656 0.71094 0.83203-0.23828 1.1016 1.1016 0.59375 1.043-0.070313 0.72656 0.69141 0.40234 1.1914 1.3438 0.16406 1.0039 1.0508 0.5625 1.2305 0.22656 1.1016 0.98828 1.4023 0.44922 0.94531 1.75 1.7539 0.32812 1.1562 0.48828 0.89062 0.63672 0.81641-0.27734 1.5664-1.0703 1.375-1.0078 1.1016-1.0117 1.2422-1.0195 1.2031-1.1758 1.4023-0.76953 0.65625-1.9883 0.45312-1.9883-0.22656-1.6758-1.3359-0.81641-0.67969-1.3125-0.69141-1.9844-0.30078-0.33984 1.0195-0.089843 1.4922-0.63281 1.6719-0.79297 1.1055-1.0625 0.85938-1.8516 0.74609-1.6953 1.8555-1.1094 1.8555-1.0859 0.94922-1.1758 0.60938-1.5117 0.29297-0.94922 0.47656-0.73047 0.76172-0.75781 0.68359-1.0078 1 0.29688 1.2227-0.24219 1.3555-0.16016 2.2109-0.32812 1.1758 0.10547 2.0234 0.36719 3.043 0.37891 1.5547 0.36328 1.4883 1.0039 2.793-0.16406 5.5625-0.082031 1.1445-0.86328 2.2422-2.6133 4.543-1.9375 0.90625-2.6758 0.44531-1.8281-0.22266-1.1133-0.67188-0.97266-0.96484-0.46094-1.5039-0.61328-1.3242-0.78516-0.95703-1.3594-0.80469-1.1133-0.25391-1.9805 0.31641-1.4766-0.82812-1.5781-0.4375-1.6445 0.054687-1.0977 0.29688-1.0703 0.28906-1.2656-0.11719-0.98438-0.55078-0.91406-0.69531-2.0078-0.86719-1.6836-0.58203 2.3281-0.74609 1.8672-1.2383 1.2773-1.1523 0.76953-0.69922 0.86719-0.78125 0.62891-0.80859 0.85156-1.3164 0.92188-1.3906 1.5898-1.1367 1.7148-0.83203 0.86328-0.77734 0.42578-0.96484 0.75781-0.88672 0.39844-1.0352 0.65234-1.5898 0.71875-1.6094-0.5-1.7422-0.10938-1.0938-0.58203-1.6055-0.72656-0.77734-0.67578-0.77344-0.48828-1.0039 0.097656-1.0938 0.64453-1.3281 0.72266-1.2891-0.089843-1.6797 0.003906-1.0195 0.31641-1.457-0.35156-0.9375-1.1992-1.0625-0.72266-1.0078-0.32812-0.94922v-1.0664l0.62891-1.2656 1.1875-0.82422 1.1211-0.4375 1.0898-1.0195 0.61328-0.92188 0.75-3.0273-0.035157-1.2617-1.7422-0.84766-0.91016-1.1172-0.97266-0.98828 0.046875-1.0273-0.25-1.957 0.96094-1.0117 0.97266-0.49219 1.0117-0.10938 1.4258 0.26562 1.1719-0.19531 1.1992 0.050781 1.3711 0.4375 1.4414-0.011719 1.0117 0.46094 0.70312 0.79297 0.91797 1.0352 1.6562 0.57812 1.2578-0.33203 2.0117-1.1875 1.4219-0.83984 1.5859-0.93359 1.082-0.10938 1.3438-0.13672 1.1289-0.60547 1.375-1.2344 1.0391-1.1719 0.76953-0.88672 0.75-0.86328 1.2891-1.0586 1.457-0.30859z" fill="#ccc" fill-rule="evenodd"/>
<path d="m299.94 294.12 0.42578 0.41797 1.2617 0.21094 1.5195 0.23828 1.1797-0.11719 0.76562 0.72656 0.71094 0.83203-0.23828 1.1016 1.1016 0.59375 1.043-0.070313 0.72656 0.69141 0.40234 1.1914 1.3438 0.16406 1.0039 1.0508 0.5625 1.2305 0.22656 1.1016 0.98828 1.4023 0.44922 0.94531 1.75 1.7539 0.32812 1.1562 0.48828 0.89062 0.63672 0.81641-0.27734 1.5664-1.0703 1.375-1.0078 1.1016-1.0117 1.2422-1.0195 1.2031-1.1758 1.4023-0.76953 0.65625-1.9883 0.45312-1.9883-0.22656-1.6758-1.3359-0.81641-0.67969-1.3125-0.69141-1.9844-0.30078-0.33984 1.0195-0.089843 1.4922-0.63281 1.6719-0.79297 1.1055-1.0625 0.85938-1.8516 0.74609-1.6953 1.8555-1.1094 1.8555-1.0859 0.94922-1.1758 0.60938-1.5117 0.29297-0.94922 0.47656-0.73047 0.76172-0.75781 0.68359-1.0078 1 0.29688 1.2227-0.24219 1.3555-0.16016 2.2109-0.32812 1.1758 0.10547 2.0234 0.36719 3.043 0.37891 1.5547 0.36328 1.4883 1.0039 2.793-0.16406 5.5625-0.082031 1.1445-0.86328 2.2422-2.6133 4.543-1.9375 0.90625-2.6758 0.44531-1.8281-0.22266-1.1133-0.67188-0.97266-0.96484-0.46094-1.5039-0.61328-1.3242-0.78516-0.95703-1.3594-0.80469-1.1133-0.25391-1.9805 0.31641-1.4766-0.82812-1.5781-0.4375-1.6445 0.054687-1.0977 0.29688-1.0703 0.28906-1.2656-0.11719-0.98438-0.55078-0.91406-0.69531-2.0078-0.86719-1.6836-0.58203 2.3281-0.74609 1.8672-1.2383 1.2773-1.1523 0.76953-0.69922 0.86719-0.78125 0.62891-0.80859 0.85156-1.3164 0.92188-1.3906 1.5898-1.1367 1.7148-0.83203 0.86328-0.77734 0.42578-0.96484 0.75781-0.88672 0.39844-1.0352 0.65234-1.5898 0.71875-1.6094-0.5-1.7422-0.10938-1.0938-0.58203-1.6055-0.72656-0.77734-0.67578-0.77344-0.48828-1.0039 0.097656-1.0938 0.64453-1.3281 0.72266-1.2891-0.089843-1.6797 0.003906-1.0195 0.31641-1.457-0.35156-0.9375-1.1992-1.0625-0.72266-1.0078-0.32812-0.94922v-1.0664l0.62891-1.2656 1.1875-0.82422 1.1211-0.4375 1.0898-1.0195 0.61328-0.92188 0.75-3.0273-0.035157-1.2617-1.7422-0.84766-0.91016-1.1172-0.97266-0.98828 0.046875-1.0273-0.25-1.957 0.96094-1.0117 0.97266-0.49219 1.0117-0.10938 1.4258 0.26562 1.1719-0.19531 1.1992 0.050781 1.3711 0.4375 1.4414-0.011719 1.0117 0.46094 0.70312 0.79297 0.91797 1.0352 1.6562 0.57812 1.2578-0.33203 2.0117-1.1875 1.4219-0.83984 1.5859-0.93359 1.082-0.10938 1.3438-0.13672 1.1289-0.60547 1.375-1.2344 1.0391-1.1719 0.76953-0.88672 0.75-0.86328 1.2891-1.0586 1.457-0.30859 0.1875 0.054688" fill="none" stroke="#fff" stroke-linecap="round" stroke-linejoin="round" stroke-miterlimit="10" stroke-width="2"/>
<path d="m178.33 194.23 0.78906 0.94531 0.44531 1.1406 0.19141 1.2734-0.050781 1.8359 0.34375 2.7734 0.20312 1.1016 0.375 1.6445 0.097656 1.5195 0.023438 1.793 0.85547 1.7695 0.79297 1.3047 0.29297 1.4766-0.21875 1.7031-0.007812 1.7031-0.76172 2.082-0.88672 2.2344-0.60156 1.3516-1.4375 1.418-1.8516 1.2891-1.0898 0.42578-1.0938 0.69922-1.4688 1.2344-0.62891 0.92969-0.91406 0.98438-1.0195 1.0781-1.043 0.60938-1.0898 0.21094-1.6055 0.63672-1.3086 0.042969-1.0195-0.48828-0.89453-0.61719-1.1641-0.65234-1.0312-0.13281-1.3203-0.050781-0.83984-0.73438-1.5078-0.19531-1.0273 0.28516-0.89062 0.51172-1.0391-0.45703-0.83984-1.0859-0.83984-0.73047h-1.4609l-1.7383-0.48828-1.4141 0.20312-2.8398-1.3906-1.6641-0.75391-1.043-0.18359-2.1133-0.003907-1.2461-0.12109-2.0859-0.63281-1.4688-0.21484 0.27344-2.1562-0.03125-1.6016 0.14844-1.6289 0.11719-1.0391 0.35547-1.0078 0.47656-1.0352 1.1562-1.3047 1.6562-2.1445 1.6953-1.0508 1.5898-1.0664 0.75391-1.332 0.59766-1.5039 0.63672-0.90625 1.7734-0.53516 1.5625-0.94531 1.7227-0.25781 1.8086 0.40234 2.6328-0.92578 1.1758-0.046875 2.4336 0.41406 1.5625 0.13672 3.0664 0.50391 1.9062 0.25 1.7578 0.039063 1.4961-0.21484 1.1953-0.84766 1.6797-1.1211 2.1445-0.96484 1.0625-0.40625 0.75391-1.043-0.30859-1.332-0.097657-1.3164 0.17188-1.1562 0.21484-1.4258 0.36719-1.0234 1.5-0.71875z" fill="#ccc" fill-rule="evenodd"/>
<path d="m178.33 194.23 0.78906 0.94531 0.44531 1.1406 0.19141 1.2734-0.050781 1.8359 0.34375 2.7734 0.20312 1.1016 0.375 1.6445 0.097656 1.5195 0.023438 1.793 0.85547 1.7695 0.79297 1.3047 0.29297 1.4766-0.21875 1.7031-0.007812 1.7031-0.76172 2.082-0.88672 2.2344-0.60156 1.3516-1.4375 1.418-1.8516 1.2891-1.0898 0.42578-1.0938 0.69922-1.4688 1.2344-0.62891 0.92969-0.91406 0.98438-1.0195 1.0781-1.043 0.60938-1.0898 0.21094-1.6055 0.63672-1.3086 0.042969-1.0195-0.48828-0.89453-0.61719-1.1641-0.65234-1.0312-0.13281-1.3203-0.050781-0.83984-0.73438-1.5078-0.19531-1.0273 0.28516-0.89062 0.51172-1.0391-0.45703-0.83984-1.0859-0.83984-0.73047h-1.4609l-1.7383-0.48828-1.4141 0.20312-2.8398-1.3906-1.6641-0.75391-1.043-0.18359-2.1133-0.003907-1.2461-0.12109-2.0859-0.63281-1.4688-0.21484 0.27344-2.1562-0.03125-1.6016 0.14844-1.6289 0.11719-1.0391 0.35547-1.0078 0.47656-1.0352 1.1562-1.3047 1.6562-2.1445 1.6953-1.0508 1.5898-1.0664 0.75391-1.332 0.59766-1.5039 0.63672-0.90625 1.7734-0.53516 1.5625-0.94531 1.7227-0.25781 1.8086 0.40234 2.6328-0.92578 1.1758-0.046875 2.4336 0.41406 1.5625 0.13672 3.0664 0.50391 1.9062 0.25 1.7578 0.039063 1.4961-0.21484 1.1953-0.84766 1.6797-1.1211 2.1445-0.96484 1.0625-0.40625 0.75391-1.043-0.30859-1.332-0.097657-1.3164 0.17188-1.1562 0.21484-1.4258 0.36719-1.0234 1.5-0.71875 1.1484 1.0352" fill="none" stroke="#fff" stroke-linecap="round" stroke-linejoin="round" stroke-miterlimit="10" stroke-width="2"/>
<path d="m223.21 269.22 0.35938 0.023438 1.3359 0.20703 1.3359 0.92188 1.7383 1.1094 0.88672 0.70703 0.92188 0.44922 1.5352 0.77344 0.54688 1.5 1.4844 1.2344 1.0352 0.23438 1.3594-0.32422 1.6797 0.74219 0.71094 0.92969 1.7148 1.4961 1.0586 0.88281 1.1484 0.53906 1.0117 1.0352 1.6797-0.34375 1.4766-0.97656 1.207-0.62109 0.94531-0.76562 1.3359-0.12891 1.1914-0.43359 2.1211 0.83203 1.2383 0.44922 1.0117 0.69922 1.2227 1.1094 1.3633 0.79297 0.89453 1.1562 0.58984 1.2656 0.55469 1.2539 0.78125 0.72656 0.53906 1.1328 1.0898 0.50391 0.94922 0.69531 1.2148 0.75 2.0938 1.2695 0.97266 0.53906 0.12109 1.2422 0.023437 1.2031 1.0352 1.4961 0.39062 0.99219-0.87891 1.0508-0.38281 1.4688 0.33203 1.0508 0.76953 0.69531 0.44141 1.1406 0.28125 1.1914-0.12891 1.4688 0.91406 1.1562 0.69922 1.0039 1.4102 0.69922 0.84375 1.1016-0.78516 3.3672-0.58594 0.83984-1.2383 1.3398-1.1211 0.4375-1.1875 0.82422-0.62891 1.2656v1.0625l0.32812 0.95312 0.72266 1.0078 1.1992 1.0625 0.35156 0.9375-0.13281 1.043-0.1875 1.4336 0.19922 1.3125-0.83203 1.6562-0.55469 1.0898-0.22266 1.1289 0.52344 1.207 0.67578 0.77344 0.72656 0.77734 0.48828 1.0898 0.20312 1.6094 0.5 1.7422-0.53125 1.0703-0.58594 1.3281-0.65234 1.8359-0.75781 0.88672-0.42578 0.96484-0.86328 0.77734-0.99219 0.37891-1.6992 1.0625-1.1016 1.0898-0.78125 1.4961-1.1328 1.457-0.86719 0.78125-0.76953 0.69922-1.2773 1.1523-1.8672 1.2383-2.3281 0.74609-1.2852 0.007812-2.3516-1.1172-1.3164-0.9375-1.6367-0.89453-1.125-0.57031-1.3164-0.66406-1.5664-0.6875-1.3672-0.66797-1.4258-1.3633-1.0625-0.70703-1.8398-0.66797-2.5469-0.33594-2.4297-0.070313-1.5234 0.21875-1.9219 0.5-1.8594 0.70703-1.4414 0.83594-1.4336 0.82812-1.3555 0.78906-1.543 1.125-1 0.73047-1.4531 1.6562-0.69531 1.5469-0.96094 1.25-1.1328 0.73047-0.98047 0.6875-0.21094 1.3398 0.046875 1.0391-0.023437 1.4336-0.65234 1.5938-1.1133 2.2852-1.3711 4.7773-0.74609 1.1445-0.94922 1.0977-1.4922 0.89844-1.2461 0.23828-1.2188-0.48828-1.5039-0.80859-0.96484-0.33984-1.1172-0.058594-1.1602-0.49219-1.0117-0.42969-1.1758-0.058594-1.0742-0.70312-1.3281-0.80859-0.92578-0.66797-2.1328 0.35156-1.0898 0.29688-1.0117 0.12109-1.0508 0.12891-1.3203 0.55078-1.1562 0.38672-1.1719-0.035156-1.1016 0.38672-0.4375 0.96094-0.73438 0.73438-1.3359 0.66797-1.3711 0.27734-1.3008 0.26172-1.2969 0.26172-1.5469 0.10938-3.3594 0.21875-1.2578-0.33984-0.77734-0.80078-0.33203-2.0508-0.42188-1.3281-0.27344-1.1562-1.1367-0.035156-1.1445 0.24219-1.082 0.46484-1.2695 0.51562-1.2891 0.58203-1.4766 0.23047-1.3984 0.085937-1.3789-0.13281-2.0625-0.13281h-1.6289l-2.2773 0.39844-1.3594 0.035156-1.3633-0.18359-2.6758-0.35156-2.2461-0.16016-2.207-0.60547-1.0781-0.32031-1.1094-0.21875-1.2969 0.42188 0.55078-1.4062 0.13672-1.2656-0.11719-1.7773-0.17969-1.0273-0.29688-1.0078 0.35547-1.582 0.47656-1.1445 0.31641-1.4805 0.11719-1.0859-0.23828-2.0156-0.51172-1.125-0.125-1.5781 0.39453-1.5039 0.5-1.3242 0.41406-0.98828 0.51562-1.0664 0.33594-1.5195 0.13672-1.5625 0.058594-1.4023 0.066406-1.582-0.81641-2.4375v-1.0156l0.48047-1.4531 0.85938-1.4688 0.54688-1.293 0.58203-1.457 0.82422-0.70703 2.1016-0.65625 1.5195-0.375 1.5547 0.27344 1.3086-0.12109 0.82812-1.2539 0.11328-1.3281-0.32422-1.9727-0.37109-0.93359-0.14453-1.25 0.46484-1.4414-0.16797-1.0469-0.55078-1.5859-0.51562-1.2188-0.97266-0.82812-1.125-0.24219-1.1406-0.0625-1.1562-0.17969-1.2148-0.9375-0.65625-1.6719-0.14453-1.207 0.16016-1.2539 1.2227-0.4375 1.75 0.015625 1.082-0.09375 0.9375-1.0508 1.0664-0.57422 1.0859-0.71484 0.71094-0.71094 0.85547-0.67578 1-0.28906 1.4336-0.46094 1.0898-0.27734 1.1602-0.58984 1.2891-0.65234 0.89062-0.89844 0.69141-1.4648 0.53516-1.1016 0.78516-1.2383 0.66016-1.4102 1.0586-0.74219 1.0352-0.14453 1.6562-0.89062 1.1758-0.43359 1.0977 0.10156 0.95703-0.28906 1.5078-0.078125 2.0547-1.1328 0.55469-1.0391 1.1797-1.4023 0.74219-1.0664 1.6172-0.058593 1.6211-0.91406 1.6172-0.17578 1.4727-0.035156 0.98828-0.17188 1.6211 0.10547 1.168 0.16406 1.3047-0.41406 1.1719-0.035156 1.1836-0.44531 0.79297-0.62109 1.5-1.4922 0.32422-1.4844 1.0352-0.87891 1.4375-0.59766 0.94531-1.3359 0.55469-0.85547 1.1758-0.23828 1.6602-0.5625 1.4766-1.7109 0.24609-1.1445 0.83203-0.65234 0.49609-1.4805 0.74219-0.92969 1.043-0.082032 1.3398 0.12891 1.0977-0.78125 0.49219-0.97266 1.0117-1.0273 1.6289-0.96875 1.0195-0.63672 1.8594-0.62109 1.3125-0.61719 1.3125-0.23047 1.3555 0.015625 1.832-0.64062 1.0273-0.35156z" fill="#ccc" fill-rule="evenodd"/>
<path d="m223.21 269.22 0.35938 0.023438 1.3359 0.20703 1.3359 0.92188 1.7383 1.1094 0.88672 0.70703 0.92188 0.44922 1.5352 0.77344 0.54688 1.5 1.4844 1.2344 1.0352 0.23438 1.3594-0.32422 1.6797 0.74219 0.71094 0.92969 1.7148 1.4961 1.0586 0.88281 1.1484 0.53906 1.0117 1.0352 1.6797-0.34375 1.4766-0.97656 1.207-0.62109 0.94531-0.76562 1.3359-0.12891 1.1914-0.43359 2.1211 0.83203 1.2383 0.44922 1.0117 0.69922 1.2227 1.1094 1.3633 0.79297 0.89453 1.1562 0.58984 1.2656 0.55469 1.2539 0.78125 0.72656 0.53906 1.1328 1.0898 0.50391 0.94922 0.69531 1.2148 0.75 2.0938 1.2695 0.97266 0.53906 0.12109 1.2422 0.023437 1.2031 1.0352 1.4961 0.39062 0.99219-0.87891 1.0508-0.38281 1.4688 0.33203 1.0508 0.76953 0.69531 0.44141 1.1406 0.28125 1.1914-0.12891 1.4688 0.91406 1.1562 0.69922 1.0039 1.4102 0.69922 0.84375 1.1016-0.78516 3.3672-0.58594 0.83984-1.2383 1.3398-1.1211 0.4375-1.1875 0.82422-0.62891 1.2656v1.0625l0.32812 0.95312 0.72266 1.0078 1.1992 1.0625 0.35156 0.9375-0.13281 1.043-0.1875 1.4336 0.19922 1.3125-0.83203 1.6562-0.55469 1.0898-0.22266 1.1289 0.52344 1.207 0.67578 0.77344 0.72656 0.77734 0.48828 1.0898 0.20312 1.6094 0.5 1.7422-0.53125 1.0703-0.58594 1.3281-0.65234 1.8359-0.75781 0.88672-0.42578 0.96484-0.86328 0.77734-0.99219 0.37891-1.6992 1.0625-1.1016 1.0898-0.78125 1.4961-1.1328 1.457-0.86719 0.78125-0.76953 0.69922-1.2773 1.1523-1.8672 1.2383-2.3281 0.74609-1.2852 0.007812-2.3516-1.1172-1.3164-0.9375-1.6367-0.89453-1.125-0.57031-1.3164-0.66406-1.5664-0.6875-1.3672-0.66797-1.4258-1.3633-1.0625-0.70703-1.8398-0.66797-2.5469-0.33594-2.4297-0.070313-1.5234 0.21875-1.9219 0.5-1.8594 0.70703-1.4414 0.83594-1.4336 0.82812-1.3555 0.78906-1.543 1.125-1 0.73047-1.4531 1.6562-0.69531 1.5469-0.96094 1.25-1.1328 0.73047-0.98047 0.6875-0.21094 1.3398 0.046875 1.0391-0.023437 1.4336-0.65234 1.5938-1.1133 2.2852-1.3711 4.7773-0.74609 1.1445-0.94922 1.0977-1.4922 0.89844-1.2461 0.23828-1.2188-0.48828-1.5039-0.80859-0.96484-0.33984-1.1172-0.058594-1.1602-0.49219-1.0117-0.42969-1.1758-0.058594-1.0742-0.70312-1.3281-0.80859-0.92578-0.66797-2.1328 0.35156-1.0898 0.29688-1.0117 0.12109-1.0508 0.12891-1.3203 0.55078-1.1562 0.38672-1.1719-0.035156-1.1016 0.38672-0.4375 0.96094-0.73438 0.73438-1.3359 0.66797-1.3711 0.27734-1.3008 0.26172-1.2969 0.26172-1.5469 0.10938-3.3594 0.21875-1.2578-0.33984-0.77734-0.80078-0.33203-2.0508-0.42188-1.3281-0.27344-1.1562-1.1367-0.035156-1.1445 0.24219-1.082 0.46484-1.2695 0.51562-1.2891 0.58203-1.4766 0.23047-1.3984 0.085937-1.3789-0.13281-2.0625-0.13281h-1.6289l-2.2773 0.39844-1.3594 0.035156-1.3633-0.18359-2.6758-0.35156-2.2461-0.16016-2.207-0.60547-1.0781-0.32031-1.1094-0.21875-1.2969 0.42188 0.55078-1.4062 0.13672-1.2656-0.11719-1.7773-0.17969-1.0273-0.29688-1.0078 0.35547-1.582 0.47656-1.1445 0.31641-1.4805 0.11719-1.0859-0.23828-2.0156-0.51172-1.125-0.125-1.5781 0.39453-1.5039 0.5-1.3242 0.41406-0.98828 0.51562-1.0664 0.33594-1.5195 0.13672-1.5625 0.058594-1.4023 0.066406-1.582-0.81641-2.4375v-1.0156l0.48047-1.4531 0.85938-1.4688 0.54688-1.293 0.58203-1.457 0.82422-0.70703 2.1016-0.65625 1.5195-0.375 1.5547 0.27344 1.3086-0.12109 0.82812-1.2539 0.11328-1.3281-0.32422-1.9727-0.37109-0.93359-0.14453-1.25 0.46484-1.4414-0.16797-1.0469-0.55078-1.5859-0.51562-1.2188-0.97266-0.82812-1.125-0.24219-1.1406-0.0625-1.1562-0.17969-1.2148-0.9375-0.65625-1.6719-0.14453-1.207 0.16016-1.2539 1.2227-0.4375 1.75 0.015625 1.082-0.09375 0.9375-1.0508 1.0664-0.57422 1.0859-0.71484 0.71094-0.71094 0.85547-0.67578 1-0.28906 1.4336-0.46094 1.0898-0.27734 1.1602-0.58984 1.2891-0.65234 0.89062-0.89844 0.69141-1.4648 0.53516-1.1016 0.78516-1.2383 0.66016-1.4102 1.0586-0.74219 1.0352-0.14453 1.6562-0.89062 1.1758-0.43359 1.0977 0.10156 0.95703-0.28906 1.5078-0.078125 2.0547-1.1328 0.55469-1.0391 1.1797-1.4023 0.74219-1.0664 1.6172-0.058593 1.6211-0.91406 1.6172-0.17578 1.4727-0.035156 0.98828-0.17188 1.6211 0.10547 1.168 0.16406 1.3047-0.41406 1.1719-0.035156 1.1836-0.44531 0.79297-0.62109 1.5-1.4922 0.32422-1.4844 1.0352-0.87891 1.4375-0.59766 0.94531-1.3359 0.55469-0.85547 1.1758-0.23828 1.6602-0.5625 1.4766-1.7109 0.24609-1.1445 0.83203-0.65234 0.49609-1.4805 0.74219-0.92969 1.043-0.082032 1.3398 0.12891 1.0977-0.78125 0.49219-0.97266 1.0117-1.0273 1.6289-0.96875 1.0195-0.63672 1.8594-0.62109 1.3125-0.61719 1.3125-0.23047 1.3555 0.015625 1.832-0.64062 1.0273-0.35156 0.22266 0.046875" fill="none" stroke="#fff" stroke-linecap="round" stroke-linejoin="round" stroke-miterlimit="10" stroke-width="2"/>
<path d="m63.836 23.918h0.60156l1.8281 0.070312 1.1289 0.52734 1.1992 0.90234 0.62891 1.1719 0.47656 1.4141 1.0938 0.59766 2.5469 0.37109 1.0977-0.050781 1.3008-0.76172 1.3906-0.66797 1.1016-0.0625 1.3984-0.082032 1.6875-0.77734 1.0625-0.92188 0.55469-0.96094-0.015625 1.1484 0.38281 1.1133 0.85547 1.1406 2.375 0.085937 1.4531 0.67578 2.0273-0.085938 1.4727 0.36328 0.69141 0.95312 0.79297 0.63281 1.5703 0.80469 1.4297 1.4688 1.1758 0.60156 1.3555 0.25 0.94141 0.96094 0.73828 0.85547 1.5703 1.2578 1.168 1.3477 0.70312 0.73438 1.1133 1.0078 0.36719 1.418 0.72266 1.9375 0.33984 1.4023-0.035157 1.1719 0.75781 0.97266 0.82812 0.98438 0.51562 1.1914 2.543 1.6055 1.5781 1.0352 1.1719 0.75781 1.3672 1.1836 1.3555 0.65625 1.2344 0.5 1.3906-0.27344 1.2266-0.17578 0.96875-0.35938 1.0938-0.26172 0.90234 0.70703 0.17969 1.1289 0.082031 1.0234 0.33984 1.1406 0.36719 1.6016 0.45703 1.7422 0.32812 1.0039 0.89844 0.70312 1.5547 0.82812 0.95312 1.1758 0.92188 0.70312 1.582 0.35547 1.1875 0.16797 1.6914 0.13281 1.7344-0.050782 1.6445-0.41016 0.9375 0.48047 0.3125 1.0703 0.77734 1.3906 0.91797 1.1875 1.8203 1.0664 1.082 1.043 1.1211 0.79688 1.1328 0.64844 0.75781 0.73828 1.5508 0.46875 2.3086 0.86719 1.1211 0.88281 0.074219 2.2812-0.55469 1.6758 0.28906 1.1641-0.070313 1.1758-0.26172 1.8555-0.023437 1.9023 0.71484 1.8828 0.42969 1.7656 0.87891 0.72266 1.332 0.44141 2.2383 1.5078 1.3359 0.91797 0.88281 1.2266 0.35938 1.8594-0.015625 1.1914-0.20312 2.2109-0.050781 1.4648 0.43359 1.1211 0.46875 3.1016 0.26953 1.7109 0.074218 1.8594 1.0078 2.5078 0.34375 1.2773 0.23438 1.5547 0.77734 1.8203 0.30469 1.2969 0.59375 1.4453 1.0156 1.8086 1.8906 2.0312 0.85156 0.96484 0.85156 1.4961 0.98438 2.5391 0.69922 1.1172 1.4883 0.62109 1.3828 0.48438 1.6211 0.57812 0.83203 0.67578 2.3906 2.9883 2.6758 1.6094 1.9688 1.8398 1.082 1.7031 0.57422 1.1641 0.62891 2.0938 0.94141 1.332 1.7812 1.8906 2.6797 2.2656 2.4453 1.6523 1.293 1.1875 3.6758 3.6133 1.1953 1.1719 0.93359 0.90625 1.5391 1.4883 1.1875 0.64844 2.1719 1.332 1.7031 0.96094 2.5 0.77344 2.957 0.1875 1.7539 0.48047 1.4102 1.2266 0.57812 1.4688 0.51953 1.0391 0.94531 1.8945 0.41797 1.1133-0.56641 0.89844-1.3555 0.63672-0.95312 0.40234-1.25 0.65234-2.3359 1.875-1.1953 1.3711-1.1406 1.7188-1.7773 2.6836-2.6055 2.3555-2.1406 1.5469-1.9883 2.2383-0.48438 1.1758-1.8711 2.3555-0.27344 1.5078 0.30859 1.4688-1.2148-0.078125-1.6211 0.48047-1.6992 1.2188-1.8906 0.69531-2.7695 0.33984-1.7305-0.050781-1.0039-1.0039-0.92578-0.79297-1.3711-0.65625-1.2969-0.15234-1.3867 0.09375-1.332 0.21484-1.2031 0.36328-1.0195 0.29297-0.84766 1.4492-0.21484 1.4258-0.17188 1.1562 0.097657 1.3164 0.30859 1.332-0.75391 1.043-1.0625 0.40625-2.1445 0.96484-1.0977 0.63672-1.7773 1.332-1.4961 0.21484-1.7578-0.039063-1.9062-0.25-2.6797-0.50391-1.9492-0.13672-1.582-0.26953-2.0273-0.097656-1.9531 0.89062-1.7461-0.20312-1.5508-0.042969-1.7461 0.71094-2.5039 0.90625-0.63672 0.90625-0.59766 1.5039-0.75391 1.332-1.5898 1.0664-1.0352 0.51953-1.7305 1.0273-1.6641 0.85938-1.6016 0.49219-1.0156 0.23047-2.4688 0.23438-1.4922 0.17969-1.6406 0.14453-1.1797-0.003906-1.4961-0.57031-0.97266-0.59766-0.99219-0.55469-2.0156-0.23828-1.4258-0.10938-1.1055-0.32031-1.2852-0.16016-1.8555-0.35547-1.6055-0.66016-1.375-0.33984-1.1445-0.18359-1.1562-0.03125-1.1797-0.019531-1.4258 0.019531-1.3359 0.33203-1.625 0.82422-0.96875 0.46875-1.1406 0.51172-1.8438 0.28906-0.99609-0.32812-0.64844-0.875 0.015625-1.2578 0.11328-2.2344 0.074218-1.2773 0.066407-1.332-0.125-1-1-1.7305-1.0625-1.8164-0.33984-1.4609-0.050781-1.0898 0.11328-1.3906 0.36328-1.2812 0.51172-1.0469 0.43359-0.97656 0.29297-1.0234 0.58203-0.83594 1.1406-0.58594 1.2852-0.45703 1.0547-0.23047 0.27344-1.625-0.27344-1.75-0.20312-1.4492 1.1953-2.9141 0.76953-1.7188 0.33984-1.5859-0.10156-1.1289 0.26562-1.1211 1.457-1.1133 1.1172-0.90234 0.82422-0.65234-0.88281-1.1172-0.97266-1.2266-0.91016-0.84375-0.79297-1.1758-0.80078-0.94922-1.0273-0.49609-1.1562-0.66797-1.0312-0.59766-0.97656-0.87109-1.1484-1.125-0.39062-1.1953-0.18359-1.2852 0.16016-1.2852 0.85547-1.8555 0.76562-0.71875 0.85938-1.4688 0.64453-1.7461 0.6875-1.3086 1.043-0.91797 0.61328-0.88672 0.46094-1.2305-0.33984-1.1562-1.2305-0.61719-2.0781-0.42188-1.2305-0.22266-1.1562-0.082032-1.3828 0.11328-2.5391 0.050781-2.1836 0.12109-1.332-0.10156-1.1758-0.12891-2.5273 0.21484-1.293 0.17969-1.293-0.085937-1.1836 0.10156-1.3398-0.17578-1.4609-0.30469-1.7969-0.44922-1.3125-0.69922-2.0938-0.61328-3.0312-0.35156-0.19922-1.4258-0.875-1.8047-0.60547-0.875-1.2109-2.0508-0.60547-1.0234-1.1328-0.20703-2.6523-0.82812-1.8281-0.46094-2.1172-0.73828-1.1133-0.42969-1.8945 0.070313-1.2383 0.13672-1.332 0.14453-2.0547-0.36719-1.2266 0.0625h-1.1992l-1.5547 0.15625-1.2031 0.10938-1.8906 0.21875-1.0508 0.15234-1.3789 1.1016-1.7383 1.1875-1.2344 0.625-1.1836 0.11328-0.57422-0.94531-0.5-2.1016-0.35547-1.2734 0.074218-1.3125 0.24609-1.3672-0.4375-1.1328-0.29297-1.168-0.12109-1.0195-0.85938-0.60156-1.2656-0.58984-1.3047-0.61719-1.3594-0.59375-1.0273-0.55859-2.3594-0.67578-1.7344-0.050781-0.95312 0.35547-2.2773 0.24609-1.1094-0.14844-1.625-0.12109-2.1719 0.24609-1.4883 0.32812-1.168 0.43359 0.17578-1.4141 0.16797-1.3984-0.48438-1.3008-0.45312-0.91797-0.97266-0.69531 0.71875-0.75 0.84766-0.53516 0.93359-0.82031 1.207-0.44531 0.89062-0.89062 0.082031-1.1602-0.69141-1.2109-0.5-0.98047-0.35547-1.7734-0.83203-1.0625-1.2617-0.47266-0.89062-0.48828-0.99219-0.80469-0.91406-2.543-0.35547-1.4297-0.59375-1.6328-0.65234-1.4922-0.20312-1.0977-0.45703-1.3438-0.62891-0.95703-0.58203-1.4922-0.11328-2.125-0.26562-1.2227-0.97656-1.7344-0.97656-1.0195-0.84766-0.89062-0.98828-0.22656-1.3477-0.0625-1.1367-0.51562-1.2227-0.63281-1.3516-0.75-1.0586-0.34766-0.99609-0.57031-0.30469-1.2305 1.2109-1.4375 0.46094-0.89453 0.66016-0.875 1.0703-0.85938 0.73828-0.89062 0.74219-1.0391 0.074218-1.2305-0.31641-1.0547-0.64453-0.85547-0.48828-0.94141-0.67969-1.0156-0.039062-1.5352 0.007812-2.6562 0.17578-1.1289-0.28125-1.0273-1.0078-1.5039-0.019531-2.875-0.09375-1.4922 1.4219-0.875 1.1406-0.085938 2.0859-1.1055 1.0078-1.0078 0.74609-0.80078 0.80469-0.90234 1.1875-1.2578 0.95703-1.0352 0.87109-1.2148 0.40234-1.4844 0.1875-1.5508 0.45703-1.0859 0.75781-0.8125 0.49609-1.1758 0.070313-1.1953 0.28906-1.4023-0.24609-2.1602-0.058593-1.3477 0.13281-1-0.75781-0.92969-0.55078-1.0625-0.24609-1.1172-0.03125-1.1289 0.49609-2.5625 0.34766-1.5469 0.25391-1.1875 1.2969-0.44531 1.1758 0.058594 1.6719-0.13281 1.0859-0.22266 1.2695-0.48438 1.3086-0.10547 1.2383-0.40625 1.1641-0.79688 0.78516-0.78516 1.6719-0.40234 1.207-0.34766 1.4688 0.17969 1.1055-0.21484 0.89844-0.55078 1.3203-0.15625 1.3789-0.36328 1.3047 0.48047 1.0156 0.19531 1.7344-0.55859 1.8438-0.44922 1.9023-0.0625 1.0078-0.13672 1.3477 0.007813 1.2266-0.84766 1.4609 0.10156 1.0234-0.011719 1.3398-0.25 1.293-0.27344 1.207 0.027344 1.6172 0.80078 1.1836 0.32422 1.1055-0.007813 1.5039-0.066406 1.082-0.28516 0.96094-0.62109 2.6758-1.4766 0.79688-0.66406z" fill="#ccc" fill-rule="evenodd"/>
<path d="m63.836 23.918h0.60156l1.8281 0.070312 1.1289 0.52734 1.1992 0.90234 0.62891 1.1719 0.47656 1.4141 1.0938 0.59766 2.5469 0.37109 1.0977-0.050781 1.3008-0.76172 1.3906-0.66797 1.1016-0.0625 1.3984-0.082032 1.6875-0.77734 1.0625-0.92188 0.55469-0.96094-0.015625 1.1484 0.38281 1.1133 0.85547 1.1406 2.375 0.085937 1.4531 0.67578 2.0273-0.085938 1.4727 0.36328 0.69141 0.95312 0.79297 0.63281 1.5703 0.80469 1.4297 1.4688 1.1758 0.60156 1.3555 0.25 0.94141 0.96094 0.73828 0.85547 1.5703 1.2578 1.168 1.3477 0.70312 0.73438 1.1133 1.0078 0.36719 1.418 0.72266 1.9375 0.33984 1.4023-0.035157 1.1719 0.75781 0.97266 0.82812 0.98438 0.51562 1.1914 2.543 1.6055 1.5781 1.0352 1.1719 0.75781 1.3672 1.1836 1.3555 0.65625 1.2344 0.5 1.3906-0.27344 1.2266-0.17578 0.96875-0.35938 1.0938-0.26172 0.90234 0.70703 0.17969 1.1289 0.082031 1.0234 0.33984 1.1406 0.36719 1.6016 0.45703 1.7422 0.32812 1.0039 0.89844 0.70312 1.5547 0.82812 0.95312 1.1758 0.92188 0.70312 1.582 0.35547 1.1875 0.16797 1.6914 0.13281 1.7344-0.050782 1.6445-0.41016 0.9375 0.48047 0.3125 1.0703 0.77734 1.3906 0.91797 1.1875 1.8203 1.0664 1.082 1.043 1.1211 0.79688 1.1328 0.64844 0.75781 0.73828 1.5508 0.46875 2.3086 0.86719 1.1211 0.88281 0.074219 2.2812-0.55469 1.6758 0.28906 1.1641-0.070313 1.1758-0.26172 1.8555-0.023437 1.9023 0.71484 1.8828 0.42969 1.7656 0.87891 0.72266 1.332 0.44141 2.2383 1.5078 1.3359 0.91797 0.88281 1.2266 0.35938 1.8594-0.015625 1.1914-0.20312 2.2109-0.050781 1.4648 0.43359 1.1211 0.46875 3.1016 0.26953 1.7109 0.074218 1.8594 1.0078 2.5078 0.34375 1.2773 0.23438 1.5547 0.77734 1.8203 0.30469 1.2969 0.59375 1.4453 1.0156 1.8086 1.8906 2.0312 0.85156 0.96484 0.85156 1.4961 0.98438 2.5391 0.69922 1.1172 1.4883 0.62109 1.3828 0.48438 1.6211 0.57812 0.83203 0.67578 2.3906 2.9883 2.6758 1.6094 1.9688 1.8398 1.082 1.7031 0.57422 1.1641 0.62891 2.0938 0.94141 1.332 1.7812 1.8906 2.6797 2.2656 2.4453 1.6523 1.293 1.1875 3.6758 3.6133 1.1953 1.1719 0.93359 0.90625 1.5391 1.4883 1.1875 0.64844 2.1719 1.332 1.7031 0.96094 2.5 0.77344 2.957 0.1875 1.7539 0.48047 1.4102 1.2266 0.57812 1.4688 0.51953 1.0391 0.94531 1.8945 0.41797 1.1133-0.56641 0.89844-1.3555 0.63672-0.95312 0.40234-1.25 0.65234-2.3359 1.875-1.1953 1.3711-1.1406 1.7188-1.7773 2.6836-2.6055 2.3555-2.1406 1.5469-1.9883 2.2383-0.48438 1.1758-1.8711 2.3555-0.27344 1.5078 0.30859 1.4688-1.2148-0.078125-1.6211 0.48047-1.6992 1.2188-1.8906 0.69531-2.7695 0.33984-1.7305-0.050781-1.0039-1.0039-0.92578-0.79297-1.3711-0.65625-1.2969-0.15234-1.3867 0.09375-1.332 0.21484-1.2031 0.36328-1.0195 0.29297-0.84766 1.4492-0.21484 1.4258-0.17188 1.1562 0.097657 1.3164 0.30859 1.332-0.75391 1.043-1.0625 0.40625-2.1445 0.96484-1.0977 0.63672-1.7773 1.332-1.4961 0.21484-1.7578-0.039063-1.9062-0.25-2.6797-0.50391-1.9492-0.13672-1.582-0.26953-2.0273-0.097656-1.9531 0.89062-1.7461-0.20312-1.5508-0.042969-1.7461 0.71094-2.5039 0.90625-0.63672 0.90625-0.59766 1.5039-0.75391 1.332-1.5898 1.0664-1.0352 0.51953-1.7305 1.0273-1.6641 0.85938-1.6016 0.49219-1.0156 0.23047-2.4688 0.23438-1.4922 0.17969-1.6406 0.14453-1.1797-0.003906-1.4961-0.57031-0.97266-0.59766-0.99219-0.55469-2.0156-0.23828-1.4258-0.10938-1.1055-0.32031-1.2852-0.16016-1.8555-0.35547-1.6055-0.66016-1.375-0.33984-1.1445-0.18359-1.1562-0.03125-1.1797-0.019531-1.4258 0.019531-1.3359 0.33203-1.625 0.82422-0.96875 0.46875-1.1406 0.51172-1.8438 0.28906-0.99609-0.32812-0.64844-0.875 0.015625-1.2578 0.11328-2.2344 0.074218-1.2773 0.066407-1.332-0.125-1-1-1.7305-1.0625-1.8164-0.33984-1.4609-0.050781-1.0898 0.11328-1.3906 0.36328-1.2812 0.51172-1.0469 0.43359-0.97656 0.29297-1.0234 0.58203-0.83594 1.1406-0.58594 1.2852-0.45703 1.0547-0.23047 0.27344-1.625-0.27344-1.75-0.20312-1.4492 1.1953-2.9141 0.76953-1.7188 0.33984-1.5859-0.10156-1.1289 0.26562-1.1211 1.457-1.1133 1.1172-0.90234 0.82422-0.65234-0.88281-1.1172-0.97266-1.2266-0.91016-0.84375-0.79297-1.1758-0.80078-0.94922-1.0273-0.49609-1.1562-0.66797-1.0312-0.59766-0.97656-0.87109-1.1484-1.125-0.39062-1.1953-0.18359-1.2852 0.16016-1.2852 0.85547-1.8555 0.76562-0.71875 0.85938-1.4688 0.64453-1.7461 0.6875-1.3086 1.043-0.91797 0.61328-0.88672 0.46094-1.2305-0.33984-1.1562-1.2305-0.61719-2.0781-0.42188-1.2305-0.22266-1.1562-0.082032-1.3828 0.11328-2.5391 0.050781-2.1836 0.12109-1.332-0.10156-1.1758-0.12891-2.5273 0.21484-1.293 0.17969-1.293-0.085937-1.1836 0.10156-1.3398-0.17578-1.4609-0.30469-1.7969-0.44922-1.3125-0.69922-2.0938-0.61328-3.0312-0.35156-0.19922-1.4258-0.875-1.8047-0.60547-0.875-1.2109-2.0508-0.60547-1.0234-1.1328-0.20703-2.6523-0.82812-1.8281-0.46094-2.1172-0.73828-1.1133-0.42969-1.8945 0.070313-1.2383 0.13672-1.332 0.14453-2.0547-0.36719-1.2266 0.0625h-1.1992l-1.5547 0.15625-1.2031 0.10938-1.8906 0.21875-1.0508 0.15234-1.3789 1.1016-1.7383 1.1875-1.2344 0.625-1.1836 0.11328-0.57422-0.94531-0.5-2.1016-0.35547-1.2734 0.074218-1.3125 0.24609-1.3672-0.4375-1.1328-0.29297-1.168-0.12109-1.0195-0.85938-0.60156-1.2656-0.58984-1.3047-0.61719-1.3594-0.59375-1.0273-0.55859-2.3594-0.67578-1.7344-0.050781-0.95312 0.35547-2.2773 0.24609-1.1094-0.14844-1.625-0.12109-2.1719 0.24609-1.4883 0.32812-1.168 0.43359 0.17578-1.4141 0.16797-1.3984-0.48438-1.3008-0.45312-0.91797-0.97266-0.69531 0.71875-0.75 0.84766-0.53516 0.93359-0.82031 1.207-0.44531 0.89062-0.89062 0.082031-1.1602-0.69141-1.2109-0.5-0.98047-0.35547-1.7734-0.83203-1.0625-1.2617-0.47266-0.89062-0.48828-0.99219-0.80469-0.91406-2.543-0.35547-1.4297-0.59375-1.6328-0.65234-1.4922-0.20312-1.0977-0.45703-1.3438-0.62891-0.95703-0.58203-1.4922-0.11328-2.125-0.26562-1.2227-0.97656-1.7344-0.97656-1.0195-0.84766-0.89062-0.98828-0.22656-1.3477-0.0625-1.1367-0.51562-1.2227-0.63281-1.3516-0.75-1.0586-0.34766-0.99609-0.57031-0.30469-1.2305 1.2109-1.4375 0.46094-0.89453 0.66016-0.875 1.0703-0.85938 0.73828-0.89062 0.74219-1.0391 0.074218-1.2305-0.31641-1.0547-0.64453-0.85547-0.48828-0.94141-0.67969-1.0156-0.039062-1.5352 0.007812-2.6562 0.17578-1.1289-0.28125-1.0273-1.0078-1.5039-0.019531-2.875-0.09375-1.4922 1.4219-0.875 1.1406-0.085938 2.0859-1.1055 1.0078-1.0078 0.74609-0.80078 0.80469-0.90234 1.1875-1.2578 0.95703-1.0352 0.87109-1.2148 0.40234-1.4844 0.1875-1.5508 0.45703-1.0859 0.75781-0.8125 0.49609-1.1758 0.070313-1.1953 0.28906-1.4023-0.24609-2.1602-0.058593-1.3477 0.13281-1-0.75781-0.92969-0.55078-1.0625-0.24609-1.1172-0.03125-1.1289 0.49609-2.5625 0.34766-1.5469 0.25391-1.1875 1.2969-0.44531 1.1758 0.058594 1.6719-0.13281 1.0859-0.22266 1.2695-0.48438 1.3086-0.10547 1.2383-0.40625 1.1641-0.79688 0.78516-0.78516 1.6719-0.40234 1.207-0.34766 1.4688 0.17969 1.1055-0.21484 0.89844-0.55078 1.3203-0.15625 1.3789-0.36328 1.3047 0.48047 1.0156 0.19531 1.7344-0.55859 1.8438-0.44922 1.9023-0.0625 1.0078-0.13672 1.3477 0.007813 1.2266-0.84766 1.4609 0.10156 1.0234-0.011719 1.3398-0.25 1.293-0.27344 1.207 0.027344 1.6172 0.80078 1.1836 0.32422 1.1055-0.007813 1.5039-0.066406 1.082-0.28516 0.96094-0.62109 2.6758-1.4766 0.79688-0.66406 1.3633-0.28125" fill="none" stroke="#fff" stroke-linecap="round" stroke-linejoin="round" stroke-miterlimit="10" stroke-width="2"/>
<path d="m421.54 53.82 0.44531 0.86328 0.41016 1.1328 0.8125 2.1875 0.37891 1.8945 0.41797 2.0742 0.3125 0.97656 1.1641 0.61719 1.918 0.023438 3.3086 1.4805 0.80469 0.88672 1.8438 0.65234 0.94922 1.2031 0.74219 2.3438 0.86719 0.98047 1.4688 1.8203 0.68359 0.85938 1.0664-0.73828 1.1797-0.027344 1.2656-0.042968 1.0859-0.21875 1.1211-0.29688 1.1953-0.34766 0.98828 0.37109 1.4883 0.80859 0.55859 1.4023 0.38672 1.2891 1.4805 0.39844 1.2852-0.14062 0.77734-0.77344 0.41016-0.98047 1.4219-0.29297 1.4414-0.62109 1.0938-1.4297 0.60938-0.90625 1.0703-0.085937 0.85547 0.51953 0.54297 1.2539 1.3164 1.4258 0.59375 0.94922 0.67969 1.1641 0.78125 0.80859 0.47266 1.2617 1.1758 0.78906 1.4609-0.011719 1.207-0.17969 1.3594-0.14453 1.1758 0.89844 0.85156 1.3164 1.3906 1.1016 0.74609 0.92578 0.058594 2.0156 0.99609 1.1016 1.9453 0.51172 2.2383 1.3008 1.0312 1.0664-0.035156 1.1875-1.3281 1.5547-1.5391 0.98047-1.5156 0.55078-0.38281 2.0586 0.34766 1.457-0.41406 2.0469-0.44531 1.082-0.25781 1.5547-0.074219 1.1328-0.070313 1.8984 0.37109 1.9258 0.375 1.1602 0.54297 1.3164 1.1289 0.74609 1.3555 0.24219 2.1875 1.2344 1.7031 2.1094 1.0078 0.94922 1.2773 0.035156 1.5039 0.58594 1.5469 0.19141 2.0703-0.89844 1.5664 0.24609 0.17969 1.0664-0.22656 1.3125-0.0625 3.1875-0.44922 1.9531-0.75 1.8125 0.33203 1.3086 0.33594 1.5352 0.69531 1.5586-0.97266 1.0898-1.3672 0.75-0.99609 0.55078-1.457 1.0391-1.0312 1.2539-0.16797 1.2852-0.94922 1.2266-1.5312 0.53516-0.72656 1.6953 1.2539 3.875 0.14062 1.3242-0.45312 1.1328-0.60156 1.8867v1.0195l0.22266 1.0938 0.30469 1.0586 0.41406 1.168 0.49219 1.3984 0.56641 1.1328 0.50391 1.3828 0.22266 2.1758-0.10938 1.1992-0.19531 1.4727 0.48828 1.3906 1.1055 1.3672 1.582 1.8164 0.94922 1.1484 0.71875 0.86719 0.875 1.3047 1.7773 1.4219 1.582 1.8555 1.4062 2.3359 1.1953 1.3828 0.62891 0.91016 0.69922 2.0664 0.097656 1.793-0.14844 1.4922-0.12891 1.3164 0.375 2.4453 1.3789 2.6328 0.95312 2.5117 0.050781 1.125-1.1914 2.0078-0.28906 1.3359 0.55859 1.4141-0.082031 3.2695-1.1914 3.0078-0.875 2.3828-0.31641 2.1289 0.16797 4.7031 0.10156 2.8477-0.50781 1.6836-1.2539 1.3047-1.0664 0.80078-0.84766 1.1133-0.8125 0.61719-1.6211 0.34375-1.6719-0.33594-1.9805-1.4688-1.457-1.0977-1.1289-0.60547-1.25-0.61328-1.1602-0.21484-2.1523 0.125-1.7539 0.55078-1.375 0.29297-1.543-0.050781-1.9414 0.09375-1.5234-0.078125-1.5664-0.089844-1.4961 0.36719-0.83984 0.69922-1.0117 0.97266-0.98438 0.70312-1.543 0.63281-1.5938-0.17969-1.1094 0.28125-1.0352 0.13672-1.1992 0.17969-1.7188 1.4102-0.66797 0.82422-0.035157 1.0586-0.72266 1.25-0.58203 0.94531-1.2227 0.38281-1.6953 0.375-1.7031 0.44922-1.1367 0.19531-0.9375 0.43359-0.73047 0.90234-1.1602 0.25391-1.1406 1.043-0.46484 1.5664-0.35938 0.97656-0.62891 2.582-0.19922 1.8359 0.066406 2.1602 0.19531 2.4922-0.85156 3.0781-0.42969 2.8633-2.1484-1.1406-4.3086-2.2031-2.8984-2.9102-1.0508-0.3125-2.9102-0.25781-2.125-0.30469-1.8984-0.59375-2.2969-0.71875-1.7969-0.82422-1.3281-1.0781-0.97266-1.2578-2.0508-1.5469-2.2344-1.2773-2.0703-1.4844-1.9023-1.3672-1.332-0.60938-1.4336-1.0391-1.0078-2.2305-0.82422-0.93359-1.7266-1.0781-1.6523-0.78906-0.82422-1.6875-0.11328-1.8125-0.050781-2.4258-0.12109-1.2695 0.10547-2.6445 1.0859-2.4609-1.5781-1.6641-1.5078-1.3203-1.4453-1.2656-1.1328-0.42969-2.1484-1.6836 0.003906-2.5508-0.375-1.1602-0.92578-1.3242-0.10547-1.1562-0.6875-1.6562-0.72656-0.88281-1.8281-1.1367-1.043-0.64844-1.6523-0.375-1.2227 1.4766-0.67969 0.80078-0.65234 0.76562-1.1914 1.0312-1.2773 0.98438-1.9336 1.375-1.1562 0.28906-1.4922-0.51953-0.94922-0.52734-2.2344 0.007812-1.7695-0.16797 0.29297 1.9844 1.7461 1.875 0.89844 1.1992-0.085937 2.0117-1.1562 1.7109-0.89844 0.51562-2.3125 0.53906-1.6602 0.039062-1.5352 0.035157-1.4453 0.33203-1.0195 0.46094-1.043 0.59766-1.0039-0.019532-1.4023-0.28125-1.8125-0.097656-2.6172 0.17969-2.0352 0.14062-2.1211 1.2266-0.78125 0.83594-0.61328 1.5039-1.2812 2.6484-1.1055 1.543-0.62109 0.99609-0.55469 1.1641-1.1484 1.4258-1.7266 0.28125-2.0352-0.50391-1.7852 0.027344-1.1719 0.22656-2.0898 0.80469-1.4375 1.0273-0.60156 1-0.53516 1.0586-1.3125 1.7812-0.76953 0.76562-1.0312 1.0312-1.7812 1.1992-1.5078 0.72656-2.6953 1.6719 0.44141-1.8516-0.3125-2.0977-0.33203-1.3398-1.0469-1.4727-1.3203-0.58203-1.1445-0.33984-1.5078-1.082-1.4336-1.2539-0.88672-1.082-0.10547-1.8828-0.21094-2.0117-0.68359-2.7461-0.066406-2.0586-0.046875-1.3711-0.24609-1.3789-0.72266-1.5664-0.55469-1.2109-0.83594-1.2578-0.76562-0.76953-0.32812-0.94922 1.8555-1.2852 1.4414-1.1484 1.5703-1.2422 0.88672-0.70312 1.5703-1.2422 0.79297-0.82031 0.90625-1.207 0.58984-0.97266 0.50391-1.2695 0.44531-1.1289-0.042969-1.1289 0.48047-2.125 0.63281-1.3086 0.85938-1.7812 0.35156-1.2656-0.51953-2.5625 1.3789 1.2188 0.92578 1.2031 0.77734 1.0117 0.80078 1.043 1.0156 0.55859 1.4648 0.30078 1.8047 0.32812 1.1211 0.47656 1.4727 0.15234 1.4062 0.14453 1.8906 0.4375 1.6211 0.64844 1.0938 0.61328 1.3789 0.77344 2.4727 0.67969 1.5156-0.14453 1.2031-0.54688 1.2109-1.2695 0.94141-1.043 0.99609-1.2227 0.69531-1.0078 0.75-1.7969 0.12891-1.1758 0.14062-1.2695 0.29297-1.3008 0.23438-1.0664 0.57812-1.5469 0.35938-0.99609 0.44531-1.0273 2.4258-1.0703 1.9688-0.89453 1.1992-1.0078 0.74219-0.79688 0.11328-1.3008-0.26172-1.207-1.0781-1.25-1.1094-0.55078-1.3555-0.66797-0.75391-1.7344-1.7969-1.7148-1.1602-2.3672-0.45703-1.4883-0.42578-2.2695-0.39062-1.0977-0.80078-1.6172-0.76953-1.9258-1.6016-2.0781-1.0938-1.5156-0.64453-1.1367-1.5781-1.7109-0.47266-1.6016 0.26172-1.418 0.097656-1.082-0.050781-1.3438-0.57812-1.1758-0.50781-0.89453-0.61328-1.082-0.72656-1.582-0.83984-1.1875-0.59766-1.1797-0.23828-1.3867-0.14062-1.6836 0.53125-1.1562 0.44922-0.98828 0.16797-1.2344 0.15625-1.0039-0.023438-1.5234-0.87891-1.0039-0.53906-1.1914-1.6016-0.96094-1.0781-0.31641-1.5703-0.58203-1.2461-0.39844-1.0625-0.33984-1.5664 0.085938-1.2812-0.1875-2.1445-0.71484-1.3594-0.32812-1.5234-0.45312-1.0586-0.79297-0.83984-0.57031-1.4766-0.70703-1.6719-0.027344-1.1758-0.29297-1.0664-0.80469-1.0859-0.44141-1.0352-0.52344-1.168-0.45703 1.3633-0.64062 1.1914-0.47656 1.1836-0.21875h1.043l1.2383 0.25391 1.2227 0.17969 1.1523-0.22266 1.1562-0.10547 1.1562-0.16406 1.1523-0.015625 1.1562-0.082031 1.0625-0.42188 0.84766-0.5625 0.73047-0.75 0.89844-0.5625 0.49609-0.86719 1.0703-0.64844 0.67578-0.77734 0.29297-1.2617-0.13672-1.0352-0.44141-1.0391-0.45703-1.043 0.097657-1.0352 0.38281-1.0938 1.168-0.67578 0.92969-0.66797 0.48828-0.87891 0.80078-0.72656 0.14453-2.0078 0.019531-1.7266v-1.4844l-0.09375-1.0195-0.085937-1.5742 0.27344-1.125 0.17188-1.0352 0.99609-0.63672 0.87109-0.62891 1.1016-0.51172 1.1602-0.56641 1.1094-0.25 0.95312-0.51562 1.0898-0.03125 0.98828-0.52344 0.50781-0.92969 0.52734-1.2695 0.3125-1.1328 0.625-1.1172 0.3125-1.2148 1.082-0.3125 1.0625-0.066406 0.94531-0.33984 0.47266-0.94531 0.78906-1.0859 0.95703-0.77344 1.2539-0.30469 1.0039-0.13672 0.96875-0.26953 1.0938-0.66797 1.3047 0.1875 1.1719 0.22656 1.1992-0.30078 1.0352-0.20312 1.2344-0.1875 1.082-0.19531 1.0859-0.27734 1.0703 0.35156 1.2227 0.44922 0.83203 0.60938 1.1953 0.92969 0.85938 0.51172 1 0.56641h1.3125l1.5039-0.21484 1.2305-0.45703 0.80469-0.94531 0.62891-0.96875 0.62109-0.86328 0.51172-1.3633 0.85547-0.83984 0.875-0.89844 0.68359-1.2969 1.0703-0.47266 1.0117-0.03125 0.96094-0.41406 0.86328-0.61328 1.5742-0.83984 0.94531-0.38281 1.0859-0.45703 0.99219-0.47266 0.88281-0.5 1.0859-0.44531 1.0078-0.53125 0.85156-0.60547 0.88672-0.61719 0.78516-0.64453 0.93359-0.43359 1.0625-0.14453 1.0039-0.17969 1.5312-0.125 1.3047 0.19141 1.0508 0.14062 2.0508 0.054687 1.8047 0.046875 2.3164-0.0625 1.2539-0.085937 1.457-0.24609 0.85547-0.73047 0.83984-1.8828 0.58203-0.98438 0.6875-1.1484 0.42188-1.5273 0.3125-1.4961 1.2617-0.42969 1.2656-0.28906z" fill="#ccc" fill-rule="evenodd"/>
<path d="m421.54 53.82 0.44531 0.86328 0.41016 1.1328 0.8125 2.1875 0.37891 1.8945 0.41797 2.0742 0.3125 0.97656 1.1641 0.61719 1.918 0.023438 3.3086 1.4805 0.80469 0.88672 1.8438 0.65234 0.94922 1.2031 0.74219 2.3438 0.86719 0.98047 1.4688 1.8203 0.68359 0.85938 1.0664-0.73828 1.1797-0.027344 1.2656-0.042968 1.0859-0.21875 1.1211-0.29688 1.1953-0.34766 0.98828 0.37109 1.4883 0.80859 0.55859 1.4023 0.38672 1.2891 1.4805 0.39844 1.2852-0.14062 0.77734-0.77344 0.41016-0.98047 1.4219-0.29297 1.4414-0.62109 1.0938-1.4297 0.60938-0.90625 1.0703-0.085937 0.85547 0.51953 0.54297 1.2539 1.3164 1.4258 0.59375 0.94922 0.67969 1.1641 0.78125 0.80859 0.47266 1.2617 1.1758 0.78906 1.4609-0.011719 1.207-0.17969 1.3594-0.14453 1.1758 0.89844 0.85156 1.3164 1.3906 1.1016 0.74609 0.92578 0.058594 2.0156 0.99609 1.1016 1.9453 0.51172 2.2383 1.3008 1.0312 1.0664-0.035156 1.1875-1.3281 1.5547-1.5391 0.98047-1.5156 0.55078-0.38281 2.0586 0.34766 1.457-0.41406 2.0469-0.44531 1.082-0.25781 1.5547-0.074219 1.1328-0.070313 1.8984 0.37109 1.9258 0.375 1.1602 0.54297 1.3164 1.1289 0.74609 1.3555 0.24219 2.1875 1.2344 1.7031 2.1094 1.0078 0.94922 1.2773 0.035156 1.5039 0.58594 1.5469 0.19141 2.0703-0.89844 1.5664 0.24609 0.17969 1.0664-0.22656 1.3125-0.0625 3.1875-0.44922 1.9531-0.75 1.8125 0.33203 1.3086 0.33594 1.5352 0.69531 1.5586-0.97266 1.0898-1.3672 0.75-0.99609 0.55078-1.457 1.0391-1.0312 1.2539-0.16797 1.2852-0.94922 1.2266-1.5312 0.53516-0.72656 1.6953 1.2539 3.875 0.14062 1.3242-0.45312 1.1328-0.60156 1.8867v1.0195l0.22266 1.0938 0.30469 1.0586 0.41406 1.168 0.49219 1.3984 0.56641 1.1328 0.50391 1.3828 0.22266 2.1758-0.10938 1.1992-0.19531 1.4727 0.48828 1.3906 1.1055 1.3672 1.582 1.8164 0.94922 1.1484 0.71875 0.86719 0.875 1.3047 1.7773 1.4219 1.582 1.8555 1.4062 2.3359 1.1953 1.3828 0.62891 0.91016 0.69922 2.0664 0.097656 1.793-0.14844 1.4922-0.12891 1.3164 0.375 2.4453 1.3789 2.6328 0.95312 2.5117 0.050781 1.125-1.1914 2.0078-0.28906 1.3359 0.55859 1.4141-0.082031 3.2695-1.1914 3.0078-0.875 2.3828-0.31641 2.1289 0.16797 4.7031 0.10156 2.8477-0.50781 1.6836-1.2539 1.3047-1.0664 0.80078-0.84766 1.1133-0.8125 0.61719-1.6211 0.34375-1.6719-0.33594-1.9805-1.4688-1.457-1.0977-1.1289-0.60547-1.25-0.61328-1.1602-0.21484-2.1523 0.125-1.7539 0.55078-1.375 0.29297-1.543-0.050781-1.9414 0.09375-1.5234-0.078125-1.5664-0.089844-1.4961 0.36719-0.83984 0.69922-1.0117 0.97266-0.98438 0.70312-1.543 0.63281-1.5938-0.17969-1.1094 0.28125-1.0352 0.13672-1.1992 0.17969-1.7188 1.4102-0.66797 0.82422-0.035157 1.0586-0.72266 1.25-0.58203 0.94531-1.2227 0.38281-1.6953 0.375-1.7031 0.44922-1.1367 0.19531-0.9375 0.43359-0.73047 0.90234-1.1602 0.25391-1.1406 1.043-0.46484 1.5664-0.35938 0.97656-0.62891 2.582-0.19922 1.8359 0.066406 2.1602 0.19531 2.4922-0.85156 3.0781-0.42969 2.8633-2.1484-1.1406-4.3086-2.2031-2.8984-2.9102-1.0508-0.3125-2.9102-0.25781-2.125-0.30469-1.8984-0.59375-2.2969-0.71875-1.7969-0.82422-1.3281-1.0781-0.97266-1.2578-2.0508-1.5469-2.2344-1.2773-2.0703-1.4844-1.9023-1.3672-1.332-0.60938-1.4336-1.0391-1.0078-2.2305-0.82422-0.93359-1.7266-1.0781-1.6523-0.78906-0.82422-1.6875-0.11328-1.8125-0.050781-2.4258-0.12109-1.2695 0.10547-2.6445 1.0859-2.4609-1.5781-1.6641-1.5078-1.3203-1.4453-1.2656-1.1328-0.42969-2.1484-1.6836 0.003906-2.5508-0.375-1.1602-0.92578-1.3242-0.10547-1.1562-0.6875-1.6562-0.72656-0.88281-1.8281-1.1367-1.043-0.64844-1.6523-0.375-1.2227 1.4766-0.67969 0.80078-0.65234 0.76562-1.1914 1.0312-1.2773 0.98438-1.9336 1.375-1.1562 0.28906-1.4922-0.51953-0.94922-0.52734-2.2344 0.007812-1.7695-0.16797 0.29297 1.9844 1.7461 1.875 0.89844 1.1992-0.085937 2.0117-1.1562 1.7109-0.89844 0.51562-2.3125 0.53906-1.6602 0.039062-1.5352 0.035157-1.4453 0.33203-1.0195 0.46094-1.043 0.59766-1.0039-0.019532-1.4023-0.28125-1.8125-0.097656-2.6172 0.17969-2.0352 0.14062-2.1211 1.2266-0.78125 0.83594-0.61328 1.5039-1.2812 2.6484-1.1055 1.543-0.62109 0.99609-0.55469 1.1641-1.1484 1.4258-1.7266 0.28125-2.0352-0.50391-1.7852 0.027344-1.1719 0.22656-2.0898 0.80469-1.4375 1.0273-0.60156 1-0.53516 1.0586-1.3125 1.7812-0.76953 0.76562-1.0312 1.0312-1.7812 1.1992-1.5078 0.72656-2.6953 1.6719 0.44141-1.8516-0.3125-2.0977-0.33203-1.3398-1.0469-1.4727-1.3203-0.58203-1.1445-0.33984-1.5078-1.082-1.4336-1.2539-0.88672-1.082-0.10547-1.8828-0.21094-2.0117-0.68359-2.7461-0.066406-2.0586-0.046875-1.3711-0.24609-1.3789-0.72266-1.5664-0.55469-1.2109-0.83594-1.2578-0.76562-0.76953-0.32812-0.94922 1.8555-1.2852 1.4414-1.1484 1.5703-1.2422 0.88672-0.70312 1.5703-1.2422 0.79297-0.82031 0.90625-1.207 0.58984-0.97266 0.50391-1.2695 0.44531-1.1289-0.042969-1.1289 0.48047-2.125 0.63281-1.3086 0.85938-1.7812 0.35156-1.2656-0.51953-2.5625 1.3789 1.2188 0.92578 1.2031 0.77734 1.0117 0.80078 1.043 1.0156 0.55859 1.4648 0.30078 1.8047 0.32812 1.1211 0.47656 1.4727 0.15234 1.4062 0.14453 1.8906 0.4375 1.6211 0.64844 1.0938 0.61328 1.3789 0.77344 2.4727 0.67969 1.5156-0.14453 1.2031-0.54688 1.2109-1.2695 0.94141-1.043 0.99609-1.2227 0.69531-1.0078 0.75-1.7969 0.12891-1.1758 0.14062-1.2695 0.29297-1.3008 0.23438-1.0664 0.57812-1.5469 0.35938-0.99609 0.44531-1.0273 2.4258-1.0703 1.9688-0.89453 1.1992-1.0078 0.74219-0.79688 0.11328-1.3008-0.26172-1.207-1.0781-1.25-1.1094-0.55078-1.3555-0.66797-0.75391-1.7344-1.7969-1.7148-1.1602-2.3672-0.45703-1.4883-0.42578-2.2695-0.39062-1.0977-0.80078-1.6172-0.76953-1.9258-1.6016-2.0781-1.0938-1.5156-0.64453-1.1367-1.5781-1.7109-0.47266-1.6016 0.26172-1.418 0.097656-1.082-0.050781-1.3438-0.57812-1.1758-0.50781-0.89453-0.61328-1.082-0.72656-1.582-0.83984-1.1875-0.59766-1.1797-0.23828-1.3867-0.14062-1.6836 0.53125-1.1562 0.44922-0.98828 0.16797-1.2344 0.15625-1.0039-0.023438-1.5234-0.87891-1.0039-0.53906-1.1914-1.6016-0.96094-1.0781-0.31641-1.5703-0.58203-1.2461-0.39844-1.0625-0.33984-1.5664 0.085938-1.2812-0.1875-2.1445-0.71484-1.3594-0.32812-1.5234-0.45312-1.0586-0.79297-0.83984-0.57031-1.4766-0.70703-1.6719-0.027344-1.1758-0.29297-1.0664-0.80469-1.0859-0.44141-1.0352-0.52344-1.168-0.45703 1.3633-0.64062 1.1914-0.47656 1.1836-0.21875h1.043l1.2383 0.25391 1.2227 0.17969 1.1523-0.22266 1.1562-0.10547 1.1562-0.16406 1.1523-0.015625 1.1562-0.082031 1.0625-0.42188 0.84766-0.5625 0.73047-0.75 0.89844-0.5625 0.49609-0.86719 1.0703-0.64844 0.67578-0.77734 0.29297-1.2617-0.13672-1.0352-0.44141-1.0391-0.45703-1.043 0.097657-1.0352 0.38281-1.0938 1.168-0.67578 0.92969-0.66797 0.48828-0.87891 0.80078-0.72656 0.14453-2.0078 0.019531-1.7266v-1.4844l-0.09375-1.0195-0.085937-1.5742 0.27344-1.125 0.17188-1.0352 0.99609-0.63672 0.87109-0.62891 1.1016-0.51172 1.1602-0.56641 1.1094-0.25 0.95312-0.51562 1.0898-0.03125 0.98828-0.52344 0.50781-0.92969 0.52734-1.2695 0.3125-1.1328 0.625-1.1172 0.3125-1.2148 1.082-0.3125 1.0625-0.066406 0.94531-0.33984 0.47266-0.94531 0.78906-1.0859 0.95703-0.77344 1.2539-0.30469 1.0039-0.13672 0.96875-0.26953 1.0938-0.66797 1.3047 0.1875 1.1719 0.22656 1.1992-0.30078 1.0352-0.20312 1.2344-0.1875 1.082-0.19531 1.0859-0.27734 1.0703 0.35156 1.2227 0.44922 0.83203 0.60938 1.1953 0.92969 0.85938 0.51172 1 0.56641h1.3125l1.5039-0.21484 1.2305-0.45703 0.80469-0.94531 0.62891-0.96875 0.62109-0.86328 0.51172-1.3633 0.85547-0.83984 0.875-0.89844 0.68359-1.2969 1.0703-0.47266 1.0117-0.03125 0.96094-0.41406 0.86328-0.61328 1.5742-0.83984 0.94531-0.38281 1.0859-0.45703 0.99219-0.47266 0.88281-0.5 1.0859-0.44531 1.0078-0.53125 0.85156-0.60547 0.88672-0.61719 0.78516-0.64453 0.93359-0.43359 1.0625-0.14453 1.0039-0.17969 1.5312-0.125 1.3047 0.19141 1.0508 0.14062 2.0508 0.054687 1.8047 0.046875 2.3164-0.0625 1.2539-0.085937 1.457-0.24609 0.85547-0.73047 0.83984-1.8828 0.58203-0.98438 0.6875-1.1484 0.42188-1.5273 0.3125-1.4961 1.2617-0.42969 1.2656-0.28906 0.80078 0.078125" fill="none" stroke="#fff" stroke-linecap="round" stroke-linejoin="round" stroke-miterlimit="10" stroke-width="2"/>
<path d="m299.94 294.12 0.42578 0.41797 1.2617 0.21094 1.5195 0.23828 1.1797-0.11719 0.76562 0.72656 0.71094 0.83203-0.23828 1.1016 1.1016 0.59375 1.043-0.070313 0.72656 0.69141 0.40234 1.1914 1.3438 0.16406 1.0039 1.0508 0.5625 1.2305 0.22656 1.1016 0.98828 1.4023 0.44922 0.94531 1.75 1.7539 0.32812 1.1562 0.48828 0.89062 0.63672 0.81641-0.27734 1.5664-1.0703 1.375-1.0078 1.1016-1.0117 1.2422-1.0195 1.2031-1.1758 1.4023-0.76953 0.65625-1.9883 0.45312-1.9883-0.22656-1.6758-1.3359-0.81641-0.67969-1.3125-0.69141-1.9844-0.30078-0.33984 1.0195-0.089843 1.4922-0.63281 1.6719-0.79297 1.1055-1.0625 0.85938-1.8516 0.74609-1.6953 1.8555-1.1094 1.8555-1.0859 0.94922-1.1758 0.60938-1.5117 0.29297-0.94922 0.47656-0.73047 0.76172-0.75781 0.68359-1.0078 1 0.29688 1.2227-0.24219 1.3555-0.16016 2.2109-0.32812 1.1758 0.10547 2.0234 0.36719 3.043 0.37891 1.5547 0.36328 1.4883 1.0039 2.793-0.16406 5.5625-0.082031 1.1445-0.86328 2.2422-2.6133 4.543-1.9375 0.90625-2.6758 0.44531-1.8281-0.22266-1.1133-0.67188-0.97266-0.96484-0.46094-1.5039-0.61328-1.3242-0.78516-0.95703-1.3594-0.80469-1.1133-0.25391-1.9805 0.31641-1.4766-0.82812-1.5781-0.4375-1.6445 0.054687-1.0977 0.29688-1.0703 0.28906-1.2656-0.11719-0.98438-0.55078-0.91406-0.69531-2.0078-0.86719-1.6836-0.58203 2.3281-0.74609 1.8672-1.2383 1.2773-1.1523 0.76953-0.69922 0.86719-0.78125 0.62891-0.80859 0.85156-1.3164 0.92188-1.3906 1.5898-1.1367 1.7148-0.83203 0.86328-0.77734 0.42578-0.96484 0.75781-0.88672 0.39844-1.0352 0.65234-1.5898 0.71875-1.6094-0.5-1.7422-0.10938-1.0938-0.58203-1.6055-0.72656-0.77734-0.67578-0.77344-0.48828-1.0039 0.097656-1.0938 0.64453-1.3281 0.72266-1.2891-0.089843-1.6797 0.003906-1.0195 0.31641-1.457-0.35156-0.9375-1.1992-1.0625-0.72266-1.0078-0.32812-0.94922v-1.0664l0.62891-1.2656 1.1875-0.82422 1.1211-0.4375 1.0898-1.0195 0.61328-0.92188 0.75-3.0273-0.035157-1.2617-1.7422-0.84766-0.91016-1.1172-0.97266-0.98828 0.046875-1.0273-0.25-1.957 0.96094-1.0117 0.97266-0.49219 1.0117-0.10938 1.4258 0.26562 1.1719-0.19531 1.1992 0.050781 1.3711 0.4375 1.4414-0.011719 1.0117 0.46094 0.70312 0.79297 0.91797 1.0352 1.6562 0.57812 1.2578-0.33203 2.0117-1.1875 1.4219-0.83984 1.5859-0.93359 1.082-0.10938 1.3438-0.13672 1.1289-0.60547 1.375-1.2344 1.0391-1.1719 0.76953-0.88672 0.75-0.86328 1.2891-1.0586 1.457-0.30859z" fill="#0a5394" fill-rule="evenodd"/>
<path d="m299.94 294.12 0.42578 0.41797 1.2617 0.21094 1.5195 0.23828 1.1797-0.11719 0.76562 0.72656 0.71094 0.83203-0.23828 1.1016 1.1016 0.59375 1.043-0.070313 0.72656 0.69141 0.40234 1.1914 1.3438 0.16406 1.0039 1.0508 0.5625 1.2305 0.22656 1.1016 0.98828 1.4023 0.44922 0.94531 1.75 1.7539 0.32812 1.1562 0.48828 0.89062 0.63672 0.81641-0.27734 1.5664-1.0703 1.375-1.0078 1.1016-1.0117 1.2422-1.0195 1.2031-1.1758 1.4023-0.76953 0.65625-1.9883 0.45312-1.9883-0.22656-1.6758-1.3359-0.81641-0.67969-1.3125-0.69141-1.9844-0.30078-0.33984 1.0195-0.089843 1.4922-0.63281 1.6719-0.79297 1.1055-1.0625 0.85938-1.8516 0.74609-1.6953 1.8555-1.1094 1.8555-1.0859 0.94922-1.1758 0.60938-1.5117 0.29297-0.94922 0.47656-0.73047 0.76172-0.75781 0.68359-1.0078 1 0.29688 1.2227-0.24219 1.3555-0.16016 2.2109-0.32812 1.1758 0.10547 2.0234 0.36719 3.043 0.37891 1.5547 0.36328 1.4883 1.0039 2.793-0.16406 5.5625-0.082031 1.1445-0.86328 2.2422-2.6133 4.543-1.9375 0.90625-2.6758 0.44531-1.8281-0.22266-1.1133-0.67188-0.97266-0.96484-0.46094-1.5039-0.61328-1.3242-0.78516-0.95703-1.3594-0.80469-1.1133-0.25391-1.9805 0.31641-1.4766-0.82812-1.5781-0.4375-1.6445 0.054687-1.0977 0.29688-1.0703 0.28906-1.2656-0.11719-0.98438-0.55078-0.91406-0.69531-2.0078-0.86719-1.6836-0.58203 2.3281-0.74609 1.8672-1.2383 1.2773-1.1523 0.76953-0.69922 0.86719-0.78125 0.62891-0.80859 0.85156-1.3164 0.92188-1.3906 1.5898-1.1367 1.7148-0.83203 0.86328-0.77734 0.42578-0.96484 0.75781-0.88672 0.39844-1.0352 0.65234-1.5898 0.71875-1.6094-0.5-1.7422-0.10938-1.0938-0.58203-1.6055-0.72656-0.77734-0.67578-0.77344-0.48828-1.0039 0.097656-1.0938 0.64453-1.3281 0.72266-1.2891-0.089843-1.6797 0.003906-1.0195 0.31641-1.457-0.35156-0.9375-1.1992-1.0625-0.72266-1.0078-0.32812-0.94922v-1.0664l0.62891-1.2656 1.1875-0.82422 1.1211-0.4375 1.0898-1.0195 0.61328-0.92188 0.75-3.0273-0.035157-1.2617-1.7422-0.84766-0.91016-1.1172-0.97266-0.98828 0.046875-1.0273-0.25-1.957 0.96094-1.0117 0.97266-0.49219 1.0117-0.10938 1.4258 0.26562 1.1719-0.19531 1.1992 0.050781 1.3711 0.4375 1.4414-0.011719 1.0117 0.46094 0.70312 0.79297 0.91797 1.0352 1.6562 0.57812 1.2578-0.33203 2.0117-1.1875 1.4219-0.83984 1.5859-0.93359 1.082-0.10938 1.3438-0.13672 1.1289-0.60547 1.375-1.2344 1.0391-1.1719 0.76953-0.88672 0.75-0.86328 1.2891-1.0586 1.457-0.30859 0.1875 0.054688" fill="none" stroke="#fff" stroke-linecap="round" stroke-linejoin="round" stroke-miterlimit="10"/>
<path d="m290.88 320.93c0 3.5898-2.9102 6.5-6.5 6.5-3.5898 0-6.5-2.9102-6.5-6.5s2.9102-6.5 6.5-6.5c3.5898 0 6.5 2.9102 6.5 6.5" fill="#28c028" fill-rule="evenodd" stroke="#000" stroke-linecap="round" stroke-linejoin="round" stroke-miterlimit="10"/>
<path d="m195.68 314.93v-16.469h4.9844l2.9844 11.234 2.9531-11.234h4.9844v16.469h-3.0938v-12.953l-3.2656 12.953h-3.2031l-3.25-12.953v12.953zm34.047 0h-3.6094l-1.4375-3.7344h-6.5781l-1.3594 3.7344h-3.5312l6.4062-16.469h3.5156zm-6.1094-6.5156-2.2812-6.1094-2.2188 6.1094zm18.406 0.46875 3.2344 1.0156c-0.5 1.793-1.3281 3.125-2.4844 4-1.1484 0.875-2.6016 1.3125-4.3594 1.3125-2.1875 0-3.9844-0.74219-5.3906-2.2344-1.4062-1.5-2.1094-3.5469-2.1094-6.1406 0-2.7383 0.70312-4.8633 2.1094-6.375 1.4141-1.5195 3.2812-2.2812 5.5938-2.2812 2.0078 0 3.6445 0.60156 4.9062 1.7969 0.75 0.69922 1.3125 1.7109 1.6875 3.0312l-3.2969 0.78125c-0.19922-0.85156-0.60547-1.5234-1.2188-2.0156-0.61719-0.5-1.3672-0.75-2.25-0.75-1.2188 0-2.2109 0.4375-2.9688 1.3125-0.76172 0.875-1.1406 2.2969-1.1406 4.2656 0 2.0742 0.375 3.5547 1.125 4.4375 0.75 0.88672 1.7227 1.3281 2.9219 1.3281 0.88281 0 1.6445-0.28125 2.2812-0.84375 0.63281-0.5625 1.0859-1.4414 1.3594-2.6406zm6.0938 6.0469v-16.469h3.3281v6.4844h6.5v-6.4844h3.3281v16.469h-3.3281v-7.2031h-6.5v7.2031zm16.594 0v-16.469h12.203v2.7969h-8.875v3.6406h8.2656v2.7812h-8.2656v4.4688h9.2031v2.7812zm0 0" fill="none" stroke="#fff" stroke-linecap="round" stroke-linejoin="round" stroke-miterlimit="10" stroke-width="2"/>
<path d="m195.68 314.93v-16.469h4.9844l2.9844 11.234 2.9531-11.234h4.9844v16.469h-3.0938v-12.953l-3.2656 12.953h-3.2031l-3.25-12.953v12.953zm34.047 0h-3.6094l-1.4375-3.7344h-6.5781l-1.3594 3.7344h-3.5312l6.4062-16.469h3.5156zm-6.1094-6.5156-2.2812-6.1094-2.2188 6.1094zm18.406 0.46875 3.2344 1.0156c-0.5 1.793-1.3281 3.125-2.4844 4-1.1484 0.875-2.6016 1.3125-4.3594 1.3125-2.1875 0-3.9844-0.74219-5.3906-2.2344-1.4062-1.5-2.1094-3.5469-2.1094-6.1406 0-2.7383 0.70312-4.8633 2.1094-6.375 1.4141-1.5195 3.2812-2.2812 5.5938-2.2812 2.0078 0 3.6445 0.60156 4.9062 1.7969 0.75 0.69922 1.3125 1.7109 1.6875 3.0312l-3.2969 0.78125c-0.19922-0.85156-0.60547-1.5234-1.2188-2.0156-0.61719-0.5-1.3672-0.75-2.25-0.75-1.2188 0-2.2109 0.4375-2.9688 1.3125-0.76172 0.875-1.1406 2.2969-1.1406 4.2656 0 2.0742 0.375 3.5547 1.125 4.4375 0.75 0.88672 1.7227 1.3281 2.9219 1.3281 0.88281 0 1.6445-0.28125 2.2812-0.84375 0.63281-0.5625 1.0859-1.4414 1.3594-2.6406zm6.0938 6.0469v-16.469h3.3281v6.4844h6.5v-6.4844h3.3281v16.469h-3.3281v-7.2031h-6.5v7.2031zm16.594 0v-16.469h12.203v2.7969h-8.875v3.6406h8.2656v2.7812h-8.2656v4.4688h9.2031v2.7812z" fill-rule="evenodd"/>
</g>
</svg>
