<?xml version="1.0" encoding="UTF-8"?>
<svg width="495pt" height="500pt" version="1.1" viewBox="0 0 495 500" xmlns="http://www.w3.org/2000/svg">
<g id="a">
<rect width="495" height="500" fill="none"/>
<path d="m135.2 123.02 0.12891 0.011719 1.793 0.44141 2.1992 1.3633 1.9727 0.59766-17.293 8.7969 0.96094 2.2695 0.88281 2.3164-4.9492 2.0117-8.2383 3.1367-1.7812 0.67188-1.2852 0.58203-0.99609 0.83203-1.5273 2.3828-1.5273 2.2695-1.6094 2.6016-0.68359 1.5352-0.33984 1.4531-0.53906 1.0859-1.0508 1.1367-3.8789 3.418-2.2969 2.0625-5.6523 5.0273-5.7461 5.0312-4.5039 3.9883-2.8711 2.7617-0.78125 1-3.707 4.7461-2.668 3.2578-1.168 1.5508-1.0625 1.3867-1.2734 1.5273-1.1836 1.4609-1.3711 1.7891-1.1836 1.4883-1.2539 1.0625-1.2422 1.0078-2.6641 0.90625-0.98828 0.31641-1.5 0.47266-0.90234 0.57031-1.6875 1.0469-1.1016 0.59375-1.7383 0.63281-1.1016 0.09375-1.2891 0.09375-2.4062 0.75391-1.168 0.88281-0.82031 0.59375-0.8125 0.65234-0.73438-1.1484-1.1602-1.5664-0.73438-0.92188-1.0078-1.2578-0.71484-0.91406-1.293-0.56641-0.15625-1.2148-0.45312-1.7422-0.67188-3.0938-0.30859-1.8594-0.11328-1.4258-0.37109-1.0586-0.44531-0.96094-1.2344-2.9688-0.56641-1.7383-0.47266-0.97656-0.58594-1.6172-0.80469-1.3398-0.71094-1.4102-0.48047-1.0469-0.72656-0.96875-0.62109-1.082-1.2852-1.6914-0.55469-1.0352-1.4688-2.168-0.90234-1.5234-0.69922-1.3359-0.70312-0.88672-1.5156-2.1641-0.59766-1.0391-1-1.4258-1.1055-0.8125-0.83984-1.5039-0.80859-1.8008-0.42578-1.1562-1.1094-1.9961-0.54297-1.0469 0.039062-1.2227 0.24609-0.97266-0.015625-1.5781-0.16797-1.418-0.75391-2.0625-0.26562-1.3359-0.10938-3.3086-0.23047-1.543 0.27734-1.6562 1.7578-0.68359 1.125-0.29688 0.87109-0.5625 1.0742 0.046875 1.9961-0.78906 0.70703-0.73828 0.70312-2.1758 0.59766-0.96875 1.3867-1.6016 0.68359-0.77734 1.3242-2.0312 1.9023-1.3906 0.88281-0.55859 0.89844-0.49219 1.6367-1.1602 1.293-0.45312 0.82422-0.62109 0.76562-0.71875 1.0352-0.5 1.3633-0.48438 1.168-0.14062 1.4805 0.12109 1.1094 0.10938 1.4375 0.82031 0.90625 0.63672 1.0664-0.027344 1.2031-0.61719 1.1875-0.54297 1.5547-0.38281 1.2617-0.035157 1.1172 0.054688 1.2031 0.33984 1.0742 0.31641 1.5547 1.0039 2.75-0.16797 2.9492-1.0625 3.6367 0.51172 2.293 0.57422 2.4414 0.011719 1.8281-0.27344 1.3984 0.5625 1.2422 0.39453 2.7617 1.0156 1.4922 0.082032 1.6641-0.80078 2.4609-0.38281 2.1523-0.71484 2.3906-0.3125 1.3516 0.20312 1.4648 0.10156 1.8359-0.054688 1.9688-0.57812 1.5312-0.46094 0.91797-0.76562 1.1992-0.37109 1.5391-0.10547 1.3867 0.20312 1.5078 0.52344 2.3555 0.16797 1.5039-0.37109 1.5508-0.097657 2.5977 0.003907 1.6719 1.3516 1.4922 0.55859 1.4141 0.10938 2.3438-1.1953 0.94531-0.62109 1.7656-0.65625 1.2344-0.039063 1.625 0.097656 1.9727 0.40625 2.5469 0.42969 1.207 0.33594 1.5156-0.074218 2.0195-0.33203 0.98047-0.39453 1.8281-0.59766 1.7227-0.21484z" fill="#ccc" fill-rule="evenodd"/>
<path d="m135.2 123.02 0.12891 0.011719 1.793 0.44141 2.1992 1.3633 1.9727 0.59766-17.293 8.7969 0.96094 2.2695 0.88281 2.3164-4.9492 2.0117-8.2383 3.1367-1.7812 0.67188-1.2852 0.58203-0.99609 0.83203-1.5273 2.3828-1.5273 2.2695-1.6094 2.6016-0.68359 1.5352-0.33984 1.4531-0.53906 1.0859-1.0508 1.1367-3.8789 3.418-2.2969 2.0625-5.6523 5.0273-5.7461 5.0312-4.5039 3.9883-2.8711 2.7617-0.78125 1-3.707 4.7461-2.668 3.2578-1.168 1.5508-1.0625 1.3867-1.2734 1.5273-1.1836 1.4609-1.3711 1.7891-1.1836 1.4883-1.2539 1.0625-1.2422 1.0078-2.6641 0.90625-0.98828 0.31641-1.5 0.47266-0.90234 0.57031-1.6875 1.0469-1.1016 0.59375-1.7383 0.63281-1.1016 0.09375-1.2891 0.09375-2.4062 0.75391-1.168 0.88281-0.82031 0.59375-0.8125 0.65234-0.73438-1.1484-1.1602-1.5664-0.73438-0.92188-1.0078-1.2578-0.71484-0.91406-1.293-0.56641-0.15625-1.2148-0.45312-1.7422-0.67188-3.0938-0.30859-1.8594-0.11328-1.4258-0.37109-1.0586-0.44531-0.96094-1.2344-2.9688-0.56641-1.7383-0.47266-0.97656-0.58594-1.6172-0.80469-1.3398-0.71094-1.4102-0.48047-1.0469-0.72656-0.96875-0.62109-1.082-1.2852-1.6914-0.55469-1.0352-1.4688-2.168-0.90234-1.5234-0.69922-1.3359-0.70312-0.88672-1.5156-2.1641-0.59766-1.0391-1-1.4258-1.1055-0.8125-0.83984-1.5039-0.80859-1.8008-0.42578-1.1562-1.1094-1.9961-0.54297-1.0469 0.039062-1.2227 0.24609-0.97266-0.015625-1.5781-0.16797-1.418-0.75391-2.0625-0.26562-1.3359-0.10938-3.3086-0.23047-1.543 0.27734-1.6562 1.7578-0.68359 1.125-0.29688 0.87109-0.5625 1.0742 0.046875 1.9961-0.78906 0.70703-0.73828 0.70312-2.1758 0.59766-0.96875 1.3867-1.6016 0.68359-0.77734 1.3242-2.0312 1.9023-1.3906 0.88281-0.55859 0.89844-0.49219 1.6367-1.1602 1.293-0.45312 0.82422-0.62109 0.76562-0.71875 1.0352-0.5 1.3633-0.48438 1.168-0.14062 1.4805 0.12109 1.1094 0.10938 1.4375 0.82031 0.90625 0.63672 1.0664-0.027344 1.2031-0.61719 1.1875-0.54297 1.5547-0.38281 1.2617-0.035157 1.1172 0.054688 1.2031 0.33984 1.0742 0.31641 1.5547 1.0039 2.75-0.16797 2.9492-1.0625 3.6367 0.51172 2.293 0.57422 2.4414 0.011719 1.8281-0.27344 1.3984 0.5625 1.2422 0.39453 2.7617 1.0156 1.4922 0.082032 1.6641-0.80078 2.4609-0.38281 2.1523-0.71484 2.3906-0.3125 1.3516 0.20312 1.4648 0.10156 1.8359-0.054688 1.9688-0.57812 1.5312-0.46094 0.91797-0.76562 1.1992-0.37109 1.5391-0.10547 1.3867 0.20312 1.5078 0.52344 2.3555 0.16797 1.5039-0.37109 1.5508-0.097657 2.5977 0.003907 1.6719 1.3516 1.4922 0.55859 1.4141 0.10938 2.3438-1.1953 0.94531-0.62109 1.7656-0.65625 1.2344-0.039063 1.625 0.097656 1.9727 0.40625 2.5469 0.42969 1.207 0.33594 1.5156-0.074218 2.0195-0.33203 0.98047-0.39453 1.8281-0.59766 1.7227-0.21484 2.2031 0.19141" fill="none" stroke="#fff" stroke-linecap="round" stroke-linejoin="round" stroke-miterlimit="10" stroke-width="2"/>
<path d="m102 158.28 8.7773 5.5977 1.2656 0.94922 3.0586 1.4961 1.8203 1.4219 2.293 2.6641 1.3359 1.5859 0.80859 1.0977 0.48828 0.97266 0.83594 1.9844 0.54297 1.0664 0.48438 1.2266-1.6719 1.8711-1.2734 1.1602-1.3203 0.9375-1.0781 1.043-1.3281 0.65234-1.5547 0.47266-1.25 0.28516-2.1211 0.21094-2.7578 0.77734-3.6328 1.6719-1.1367 1.0625-0.91797 1.4336-0.76172 1.3906-2.8555 3.7227-1.6328 2.2266-1.1016 1.6875-2.1484 1.9766-4.6055 4.2383-1.8672 0.8125-0.99609 0.23438-2.0391 0.48438-2.4805 0.55469-1.582-0.19531-1.1055-0.015625-1.0547 0.046875-2.0977 0.93359-0.58203 0.9375-0.64062 3.2148-0.25781 2.5312-0.9375 4.5742-5.2266 10.68-1.1523 2.6914-1.3203 2.4648-0.62891 0.78125-1.6406 1.168-0.80469 0.84375-0.99609 0.73438-0.89453 0.57422-0.625 0.875-0.83984 0.67188-0.65625 1.0273-0.69531 1.0195-0.84375 0.90625-0.57031 1.3203-0.3125 0.95312-0.52344 0.92188-1.2422 1.6055-1.3477 1.4414-0.55469 1.0273-0.88281 0.86719-1.0859 0.96875-0.80469 0.85547-0.70312 0.97266-1.1289 1.8945-0.57812 0.97656-0.34766 1.2461-0.33594 1.0547-0.74219 1.1445-0.83203 0.99219-0.88672 0.95312-0.86719 0.67969-0.84375 0.54297-1.75 0.60547-1.4922 0.31641-1.3555 0.15234-1.2344 0.03125-3.3789-0.046875-1.8164-0.11719-1.8125-0.10547-1.2305-0.097656-1.2344 0.007812-1.6094 0.21094-1.0938 0.16016-1.2422 0.23047-0.82812-1.4531-1.0977-1.1602-0.54297-1.0156-0.91797-2.3008-0.57812-0.91406-1.6953-2.2773-0.30469-0.96875-0.25781-1.6562-0.46094-2.0742-1.0469-2.0938-0.76953-1.1094-0.85156-1.5977-0.33984-1.0156-0.25-1.1133-0.4375-1.1094-0.27344-1.0625-0.46094-1.1094-0.21875-2.043-0.26562-1.1992 0.29297-2.582-0.10938-1.457-0.09375-1.4727 1.2305-1.7773 1.6211-0.60938 1.6758-0.46484 1.2031-0.44922 0.74609-0.71875 0.875-0.54297 0.82031-0.73047 0.82422-0.8125 0.78516-0.64062 0.9375-0.61719 1.0039-0.88672 0.64062-0.96484 0.66797-0.78516 0.90234-1.3516 0.57812-1.0156 0.79297-0.66797 0.80078-0.9375 0.73438-0.69531 0.75781-1.2578 0.67969-0.8125 0.90234-1.207 0.62891-1.1836-5.0156-0.71875 5.4141-0.23438 0.45312-1.457 0.63281-1.1133 0.42969-1.0234 0.4375-1.9062 0.097657-1.2305 0.26562-1.3789 0.042968-1.5703 1.125-0.050781 0.71484 0.91406 1.0078 1.2578 0.73438 0.92188 1.1602 1.5664 0.73438 1.1484 0.8125-0.65234 0.82031-0.59375 1.168-0.88281 1.582-0.64453 2.1133-0.20312 1.1016-0.09375 1.7383-0.63281 1.1016-0.59375 0.87891-0.57812 1.2383-0.73438 1.0859-0.5 1.875-0.59375 1.9531-0.57031 1.2812-0.75 1.5586-1.3242 1.5508-1.8203 1.3711-1.7891 1.1836-1.4609 1.2734-1.5273 1.0625-1.3867 1.168-1.5508 2.668-3.2578 3.707-4.7461 0.78125-1 2.8711-2.7617 4.5039-3.9883 5.7461-5.0312 5.6523-5.0273 2.2969-2.0625 3.8789-3.418z" fill="#ccc" fill-rule="evenodd"/>
<path d="m102 158.28 8.7773 5.5977 1.2656 0.94922 3.0586 1.4961 1.8203 1.4219 2.293 2.6641 1.3359 1.5859 0.80859 1.0977 0.48828 0.97266 0.83594 1.9844 0.54297 1.0664 0.48438 1.2266-1.6719 1.8711-1.2734 1.1602-1.3203 0.9375-1.0781 1.043-1.3281 0.65234-1.5547 0.47266-1.25 0.28516-2.1211 0.21094-2.7578 0.77734-3.6328 1.6719-1.1367 1.0625-0.91797 1.4336-0.76172 1.3906-2.8555 3.7227-1.6328 2.2266-1.1016 1.6875-2.1484 1.9766-4.6055 4.2383-1.8672 0.8125-0.99609 0.23438-2.0391 0.48438-2.4805 0.55469-1.582-0.19531-1.1055-0.015625-1.0547 0.046875-2.0977 0.93359-0.58203 0.9375-0.64062 3.2148-0.25781 2.5312-0.9375 4.5742-5.2266 10.68-1.1523 2.6914-1.3203 2.4648-0.62891 0.78125-1.6406 1.168-0.80469 0.84375-0.99609 0.73438-0.89453 0.57422-0.625 0.875-0.83984 0.67188-0.65625 1.0273-0.69531 1.0195-0.84375 0.90625-0.57031 1.3203-0.3125 0.95312-0.52344 0.92188-1.2422 1.6055-1.3477 1.4414-0.55469 1.0273-0.88281 0.86719-1.0859 0.96875-0.80469 0.85547-0.70312 0.97266-1.1289 1.8945-0.57812 0.97656-0.34766 1.2461-0.33594 1.0547-0.74219 1.1445-0.83203 0.99219-0.88672 0.95312-0.86719 0.67969-0.84375 0.54297-1.75 0.60547-1.4922 0.31641-1.3555 0.15234-1.2344 0.03125-3.3789-0.046875-1.8164-0.11719-1.8125-0.10547-1.2305-0.097656-1.2344 0.007812-1.6094 0.21094-1.0938 0.16016-1.2422 0.23047-0.82812-1.4531-1.0977-1.1602-0.54297-1.0156-0.91797-2.3008-0.57812-0.91406-1.6953-2.2773-0.30469-0.96875-0.25781-1.6562-0.46094-2.0742-1.0469-2.0938-0.76953-1.1094-0.85156-1.5977-0.33984-1.0156-0.25-1.1133-0.4375-1.1094-0.27344-1.0625-0.46094-1.1094-0.21875-2.043-0.26562-1.1992 0.29297-2.582-0.10938-1.457-0.09375-1.4727 1.2305-1.7773 1.6211-0.60938 1.6758-0.46484 1.2031-0.44922 0.74609-0.71875 0.875-0.54297 0.82031-0.73047 0.82422-0.8125 0.78516-0.64062 0.9375-0.61719 1.0039-0.88672 0.64062-0.96484 0.66797-0.78516 0.90234-1.3516 0.57812-1.0156 0.79297-0.66797 0.80078-0.9375 0.73438-0.69531 0.75781-1.2578 0.67969-0.8125 0.90234-1.207 0.62891-1.1836-5.0156-0.71875 5.4141-0.23438 0.45312-1.457 0.63281-1.1133 0.42969-1.0234 0.4375-1.9062 0.097657-1.2305 0.26562-1.3789 0.042968-1.5703 1.125-0.050781 0.71484 0.91406 1.0078 1.2578 0.73438 0.92188 1.1602 1.5664 0.73438 1.1484 0.8125-0.65234 0.82031-0.59375 1.168-0.88281 1.582-0.64453 2.1133-0.20312 1.1016-0.09375 1.7383-0.63281 1.1016-0.59375 0.87891-0.57812 1.2383-0.73438 1.0859-0.5 1.875-0.59375 1.9531-0.57031 1.2812-0.75 1.5586-1.3242 1.5508-1.8203 1.3711-1.7891 1.1836-1.4609 1.2734-1.5273 1.0625-1.3867 1.168-1.5508 2.668-3.2578 3.707-4.7461 0.78125-1 2.8711-2.7617 4.5039-3.9883 5.7461-5.0312 5.6523-5.0273 2.2969-2.0625 3.8789-3.418 0.68359-0.23438" fill="none" stroke="#fff" stroke-linecap="round" stroke-linejoin="round" stroke-miterlimit="10" stroke-width="2"/>
<path d="m164.07 120.93 0.99219 0.37109 0.71875 1.4453 1.0391 0.71875 1.543-0.21484 2.1758 0.41797 1.3516 0.57422 1.375 0.52344 1.707 0.45703 1.3516 1.2656 1.0625-0.13281 0.99219-1.207 1.6641-0.95312 1.3867-1.5781 1.0625-0.33594 1.0273 0.09375 1.8906-0.33203 0.62109 0.92969 1.1719 0.32422 1.0156-0.19141 1.3125 0.10938 1.1719-1.5195 0.89844-0.58594 0.82422 0.59766 0.78906 0.82422 1.8281 0.085937 1.5898 0.53516 2.4609 0.48047 1.7227 0.73828 1.5195 1.2578 1.1953 0.38281 1.8047 0.011718 1.4805 0.16797 2.2852 0.20312 1.1953 0.47656 2.0625 0.26562 1.0312 0.12891 1.3047 0.84766 1.1094 1.4961 0.77734 0.71484 2.0195 0.86328 1.1367 0.20312 1.1719 0.39453 1.875 0.27344 1.6016 0.058593 1.9844 0.28906 1.3516 0.38281 1.9023 0.19141 2.8203-0.023438 2.1758-0.37109 2.0195-0.67188 2.2969-0.63281 1.6719-0.69141 1.4922-0.27734 1.8555-0.046875 1.5156-1.7695 1.1836-1.1719 1.2578-0.63281 1.4688 0.16797 0.74219 1.6133 1.3125-0.16797 0.95703-0.76562 1.0664-0.23828 1.3594 0.34766 1.1016-0.74219 1.2422-0.15625 1.4336 0.33594 1.2812-0.11719 1.3125 0.36719 1.2461 0.71875 2.3672-0.45312 1.8398-0.74219 1.1328-0.26172 1.5078-0.097656 2.6055-1.0625 1.3398-0.89844 1.6367-0.39453 2.7578 2.1992 0.53906 1.5-0.054688 1.7539 0.21875 1.7656 0.46875 1.5664 1.0586 1.1641 2.707 1.2031 6.8008 1.9805 4.6289 1.5312 1.5039 0.30078 1.5078-0.019531 1.2109-0.32812 2.4062 0.22266 1.3086 0.16016 2.0273 1.7617 1.4961 1.7852 1.0391 0.89453 3.4062 4.2266 1.3516 1.7617 1.4492 2.0508 1.0977 1.7031 1.9062 2.9258 1.6016 2.3086 2.1094 1.7539 1.3125 0.57812 1.7773 0.5625 1.3125 0.17578 1.6133-0.10156 1.2344-0.37109 1.8281-0.33594 2.2227-0.26562 1.1875 0.18359 1.1133 1.8086 1.082 0.41797 1.207 1.0508 1.8984 1.3125 2.1797 1.207 1.0508 0.15234 1.5469-0.44922 1.3438-0.64844 1.0156-0.91016 1.1328-1.2617 1.6367-0.375 0.97266 0.28906 2.1016-0.19922 0.92969-0.69531 1.0938-1.2188 2.8594-2.875 1.1094-0.13672 1.1484 0.69141 2.0547-0.69531 1.7148-1.1406 1.0508-0.85156 1.1289-0.86328 0.63672-1.3516 1.1875-1.1836 1.3945-0.97266 1.6875-0.14062 1.1094 0.054687 1.5352 0.71484 2.2461 0.54688 1.3086 0.36719 1.0625 0.042968 2.0156 0.046875 1.2461 0.13672 2.0234 1.1914 1.1328 1.3867 0.5 1.8555 0.16797 2.0469-0.27734 1.5234-0.24609 1.1445 0.23047 1.2891 0.48047 1.5312 0.37109 0.92969 2.0039 2.332 1.7188 2.207 1.0156 1.7812 1.1914 1.4492 1.3906 1.1445 1.2266 0.44922 1.0391 0.70703 1.5781 0.31641 3.1484 1.6328 3.2695 2.6172 1.0938 1.5625 1.4844 2.6094 1.1836 2.0859 0.44922 1.2656 0.15625 1.1055-2.6172 1.3633-2.3359 1.082-2.2969 0.58594-2.1602 0.66797-0.82031 0.69141-1.6875 0.99609-1.4297 0.77734-1.6602 0.41797-1.918 0.375-1.043 0.92969-0.96484 0.70312-1.1992 0.66406-1.3867 1.4023-1.2734 1.3008-0.49609 1.0977-0.26562 1.0703-0.17578 1.4727-1.1797 0.53906-1.6289-0.039062-1.8008 0.28125-1.6289 0.15234-2.0859 0.37109-1.1016 0.10547-1.3242 0.63672-1.1602 1.2461-1.0742 1.1523-1.2031 0.57422-1.9609 0.39453-2.1211 0.73047-1.2305 0.65625-2.1172 1.4141-1.4141 0.26172-1.3594 2.6172-2.2266 2.9297-2.5117 0.73047-1.7539 0.26172-2.0859-0.046875-2.7188 0.90625-0.99609 0.21484-1.2617-1.3086-0.76172-0.83594-1.4023-1.0664-1.3242-0.39453-1.6406-1.0508-1.0469-0.21094-2.0078 0.15625-1.168-0.35156-1.2617 0.042968-1.3672 0.40625-1.1484-0.39062-1.1484-0.25391-1.707 1.2188-1.3672 1.082-2.0664 1.2812-0.92188 0.49219-1.3828 1.2344-1.8555 1.1797-2.4336 0.33984-1.0742 0.55078-0.75781 0.96875-1.0742 2.9883-1.3594 2.0547-1.0781 1.9062-0.51953 1.6875-0.050781 1.9844-0.60156 1.0234-0.98828 0.54297-1.8633 0.63281-1.5781 1.1758-1.2578 1.8789-1.6953 2.1445-1.8555 0.6875-1.1523 0.33984-2.7734 1.1875-2.0391 0.86328-2.1484 0.98438-2.4219 1.7148-1.793 0.80078-2.2188 1.6484-0.99609 0.41797-2.8516-0.70703-2.5898-0.55078-1.5977-0.15625-1.3047 0.33203-1.9922 0.50391-1.3086 1.0742-0.98047 1.1953-0.91797 0.46094-0.89844 0.51953-1.3711 0.90625-1.8516 1.8125-1.2031 1.1758-0.8125 1.3594-0.78516 0.94531-1.2031 0.86328-1.5625 0.91406-1.2852 1.1289-1.0547 1.0234-1.5469 1.1914-0.91406 0.5-1.5234 0.27734-1.7461-0.16797-1.3008-0.52734-1.0781-0.63672-1.2188-0.91406-0.80469-1.7422-0.027344-1.5508-0.16406-1.4414-0.085937-1.1602-0.23828-2.5508 0.074218-1.3516 0.78125-2.457 0.57812-1.4453 0.46484-0.92969-0.67969-2.0742-1.3242-1.5-1.6523-1.957-0.32422-1.9258-1.1914-1.8086-1.0977-0.97266-0.78516-1.4375-1.2734-1.9297-1.375-2.1562-1.7656-2.0586-1.8164-1.5508-2.375-0.53906-0.92188-0.83203-1.3672-1.2305-1.4258-1.2812-2.1406-2.7891-0.94531-1.4258-0.75391-1.8594-0.3125-1.7305 0.39844-2.4336-0.039063-2.1406-0.035156-1.7031-0.42188-1.0938-0.35938-1.8477-0.32422-2.0156 0.26953-1.4219 0.74609-2.625 0.28125-0.96484-1.1055-0.78516-2.1562-0.58594-1.8945-0.65234-1.668-0.32812-2.5195-0.39453-3.0391-0.62109-4.0859-1.0117-3.7266-0.75-4.1836-1.0469-1.0781 0.22656-0.82422 1.5742-1.5977 3.2773-0.82031 0.85938-2.082 1.1953-4.1406 2.5742-2.1523 0.625-2.0234-0.09375-1.8516-1.957-1.2109-2.2344-0.9375-1.0156-1.7969-0.85938-0.67578-0.75391-0.77344-3 0.10938-4.0977-0.41797-3.4727 0.24219-2.0859 0.29297-1.9883-0.015625-1.3867-0.16797-1.625-0.41797-1.5234-0.70312-1.3047-2.0742-0.97266-1.6914-0.16406-1.0547 0.16406-1.668 1.6016-1.5664 2.0625-0.84766 1.5781-0.92969 0.60938-1.2969-0.10156-0.62109-1.4727-0.27344-1.0664-1.0625-1.2227-0.85938-1.0742-0.77734-1.5-0.49219-1.6367-0.47656-1.082-1.6055-0.99219-1.1484-0.20312-1.0156 0.074219-1.7734 2.0898-0.95703 1.3633-0.99609 0.97266-0.75 0.875-0.94141 0.90625-1.6719 1.2969-1.7227-0.44531-1.3594-0.95312-1.8125-0.28516-1.7891-0.41016-1.5664-0.28516-1.2148-0.027344-1.6406 0.42578-1.2969 0.57422-2.0391 0.41797-1.1445-0.12109-1.3086-0.33203-1.1719-0.90625-0.38281-1.293-0.35156-1.6133-2.1875 0.55859-1.1953 0.35938-1.168 0.26172-2.4531 1.0508-1.2852 0.54297-1.4805 0.62891-1.7891-0.28516-0.85156-0.72656-0.85547-1.7539-0.83594-1.9844-0.48828-0.97266-0.80859-1.0977-1.3359-1.5859-2.293-2.6641-1.8203-1.4219-2.9727-1.457-1.3516-0.98828-3.418-2.1797-5.3594-3.418 0.76953-1.5859 0.31641-1.1719 0.39453-1.332 2.0586-3.4883 1.5273-2.2695 1.2461-2.0625 0.78125-0.78125 1.7812-0.95312 1.7812-0.67188 8.2383-3.1367 4.9492-2.0117-0.88281-2.3164-0.96094-2.2695 18.164-8.6289 1.9258 0.10547 1.0859-0.21484 1.8164-0.93359 1.2344-0.94141 1.6953-0.30078 1.1719 0.10156 2.6914-0.31641 1.4922 0.023437 1.1367-0.30859 0.92969-0.40625 2.7031-1.0664 1.0039-0.30859 2.1992-0.22656z" fill="#ccc" fill-rule="evenodd"/>
<path d="m164.07 120.93 0.99219 0.37109 0.71875 1.4453 1.0391 0.71875 1.543-0.21484 2.1758 0.41797 1.3516 0.57422 1.375 0.52344 1.707 0.45703 1.3516 1.2656 1.0625-0.13281 0.99219-1.207 1.6641-0.95312 1.3867-1.5781 1.0625-0.33594 1.0273 0.09375 1.8906-0.33203 0.62109 0.92969 1.1719 0.32422 1.0156-0.19141 1.3125 0.10938 1.1719-1.5195 0.89844-0.58594 0.82422 0.59766 0.78906 0.82422 1.8281 0.085937 1.5898 0.53516 2.4609 0.48047 1.7227 0.73828 1.5195 1.2578 1.1953 0.38281 1.8047 0.011718 1.4805 0.16797 2.2852 0.20312 1.1953 0.47656 2.0625 0.26562 1.0312 0.12891 1.3047 0.84766 1.1094 1.4961 0.77734 0.71484 2.0195 0.86328 1.1367 0.20312 1.1719 0.39453 1.875 0.27344 1.6016 0.058593 1.9844 0.28906 1.3516 0.38281 1.9023 0.19141 2.8203-0.023438 2.1758-0.37109 2.0195-0.67188 2.2969-0.63281 1.6719-0.69141 1.4922-0.27734 1.8555-0.046875 1.5156-1.7695 1.1836-1.1719 1.2578-0.63281 1.4688 0.16797 0.74219 1.6133 1.3125-0.16797 0.95703-0.76562 1.0664-0.23828 1.3594 0.34766 1.1016-0.74219 1.2422-0.15625 1.4336 0.33594 1.2812-0.11719 1.3125 0.36719 1.2461 0.71875 2.3672-0.45312 1.8398-0.74219 1.1328-0.26172 1.5078-0.097656 2.6055-1.0625 1.3398-0.89844 1.6367-0.39453 2.7578 2.1992 0.53906 1.5-0.054688 1.7539 0.21875 1.7656 0.46875 1.5664 1.0586 1.1641 2.707 1.2031 6.8008 1.9805 4.6289 1.5312 1.5039 0.30078 1.5078-0.019531 1.2109-0.32812 2.4062 0.22266 1.3086 0.16016 2.0273 1.7617 1.4961 1.7852 1.0391 0.89453 3.4062 4.2266 1.3516 1.7617 1.4492 2.0508 1.0977 1.7031 1.9062 2.9258 1.6016 2.3086 2.1094 1.7539 1.3125 0.57812 1.7773 0.5625 1.3125 0.17578 1.6133-0.10156 1.2344-0.37109 1.8281-0.33594 2.2227-0.26562 1.1875 0.18359 1.1133 1.8086 1.082 0.41797 1.207 1.0508 1.8984 1.3125 2.1797 1.207 1.0508 0.15234 1.5469-0.44922 1.3438-0.64844 1.0156-0.91016 1.1328-1.2617 1.6367-0.375 0.97266 0.28906 2.1016-0.19922 0.92969-0.69531 1.0938-1.2188 2.8594-2.875 1.1094-0.13672 1.1484 0.69141 2.0547-0.69531 1.7148-1.1406 1.0508-0.85156 1.1289-0.86328 0.63672-1.3516 1.1875-1.1836 1.3945-0.97266 1.6875-0.14062 1.1094 0.054687 1.5352 0.71484 2.2461 0.54688 1.3086 0.36719 1.0625 0.042968 2.0156 0.046875 1.2461 0.13672 2.0234 1.1914 1.1328 1.3867 0.5 1.8555 0.16797 2.0469-0.27734 1.5234-0.24609 1.1445 0.23047 1.2891 0.48047 1.5312 0.37109 0.92969 2.0039 2.332 1.7188 2.207 1.0156 1.7812 1.1914 1.4492 1.3906 1.1445 1.2266 0.44922 1.0391 0.70703 1.5781 0.31641 3.1484 1.6328 3.2695 2.6172 1.0938 1.5625 1.4844 2.6094 1.1836 2.0859 0.44922 1.2656 0.15625 1.1055-2.6172 1.3633-2.3359 1.082-2.2969 0.58594-2.1602 0.66797-0.82031 0.69141-1.6875 0.99609-1.4297 0.77734-1.6602 0.41797-1.918 0.375-1.043 0.92969-0.96484 0.70312-1.1992 0.66406-1.3867 1.4023-1.2734 1.3008-0.49609 1.0977-0.26562 1.0703-0.17578 1.4727-1.1797 0.53906-1.6289-0.039062-1.8008 0.28125-1.6289 0.15234-2.0859 0.37109-1.1016 0.10547-1.3242 0.63672-1.1602 1.2461-1.0742 1.1523-1.2031 0.57422-1.9609 0.39453-2.1211 0.73047-1.2305 0.65625-2.1172 1.4141-1.4141 0.26172-1.3594 2.6172-2.2266 2.9297-2.5117 0.73047-1.7539 0.26172-2.0859-0.046875-2.7188 0.90625-0.99609 0.21484-1.2617-1.3086-0.76172-0.83594-1.4023-1.0664-1.3242-0.39453-1.6406-1.0508-1.0469-0.21094-2.0078 0.15625-1.168-0.35156-1.2617 0.042968-1.3672 0.40625-1.1484-0.39062-1.1484-0.25391-1.707 1.2188-1.3672 1.082-2.0664 1.2812-0.92188 0.49219-1.3828 1.2344-1.8555 1.1797-2.4336 0.33984-1.0742 0.55078-0.75781 0.96875-1.0742 2.9883-1.3594 2.0547-1.0781 1.9062-0.51953 1.6875-0.050781 1.9844-0.60156 1.0234-0.98828 0.54297-1.8633 0.63281-1.5781 1.1758-1.2578 1.8789-1.6953 2.1445-1.8555 0.6875-1.1523 0.33984-2.7734 1.1875-2.0391 0.86328-2.1484 0.98438-2.4219 1.7148-1.793 0.80078-2.2188 1.6484-0.99609 0.41797-2.8516-0.70703-2.5898-0.55078-1.5977-0.15625-1.3047 0.33203-1.9922 0.50391-1.3086 1.0742-0.98047 1.1953-0.91797 0.46094-0.89844 0.51953-1.3711 0.90625-1.8516 1.8125-1.2031 1.1758-0.8125 1.3594-0.78516 0.94531-1.2031 0.86328-1.5625 0.91406-1.2852 1.1289-1.0547 1.0234-1.5469 1.1914-0.91406 0.5-1.5234 0.27734-1.7461-0.16797-1.3008-0.52734-1.0781-0.63672-1.2188-0.91406-0.80469-1.7422-0.027344-1.5508-0.16406-1.4414-0.085937-1.1602-0.23828-2.5508 0.074218-1.3516 0.78125-2.457 0.57812-1.4453 0.46484-0.92969-0.67969-2.0742-1.3242-1.5-1.6523-1.957-0.32422-1.9258-1.1914-1.8086-1.0977-0.97266-0.78516-1.4375-1.2734-1.9297-1.375-2.1562-1.7656-2.0586-1.8164-1.5508-2.375-0.53906-0.92188-0.83203-1.3672-1.2305-1.4258-1.2812-2.1406-2.7891-0.94531-1.4258-0.75391-1.8594-0.3125-1.7305 0.39844-2.4336-0.039063-2.1406-0.035156-1.7031-0.42188-1.0938-0.35938-1.8477-0.32422-2.0156 0.26953-1.4219 0.74609-2.625 0.28125-0.96484-1.1055-0.78516-2.1562-0.58594-1.8945-0.65234-1.668-0.32812-2.5195-0.39453-3.0391-0.62109-4.0859-1.0117-3.7266-0.75-4.1836-1.0469-1.0781 0.22656-0.82422 1.5742-1.5977 3.2773-0.82031 0.85938-2.082 1.1953-4.1406 2.5742-2.1523 0.625-2.0234-0.09375-1.8516-1.957-1.2109-2.2344-0.9375-1.0156-1.7969-0.85938-0.67578-0.75391-0.77344-3 0.10938-4.0977-0.41797-3.4727 0.24219-2.0859 0.29297-1.9883-0.015625-1.3867-0.16797-1.625-0.41797-1.5234-0.70312-1.3047-2.0742-0.97266-1.6914-0.16406-1.0547 0.16406-1.668 1.6016-1.5664 2.0625-0.84766 1.5781-0.92969 0.60938-1.2969-0.10156-0.62109-1.4727-0.27344-1.0664-1.0625-1.2227-0.85938-1.0742-0.77734-1.5-0.49219-1.6367-0.47656-1.082-1.6055-0.99219-1.1484-0.20312-1.0156 0.074219-1.7734 2.0898-0.95703 1.3633-0.99609 0.97266-0.75 0.875-0.94141 0.90625-1.6719 1.2969-1.7227-0.44531-1.3594-0.95312-1.8125-0.28516-1.7891-0.41016-1.5664-0.28516-1.2148-0.027344-1.6406 0.42578-1.2969 0.57422-2.0391 0.41797-1.1445-0.12109-1.3086-0.33203-1.1719-0.90625-0.38281-1.293-0.35156-1.6133-2.1875 0.55859-1.1953 0.35938-1.168 0.26172-2.4531 1.0508-1.2852 0.54297-1.4805 0.62891-1.7891-0.28516-0.85156-0.72656-0.85547-1.7539-0.83594-1.9844-0.48828-0.97266-0.80859-1.0977-1.3359-1.5859-2.293-2.6641-1.8203-1.4219-2.9727-1.457-1.3516-0.98828-3.418-2.1797-5.3594-3.418 0.76953-1.5859 0.31641-1.1719 0.39453-1.332 2.0586-3.4883 1.5273-2.2695 1.2461-2.0625 0.78125-0.78125 1.7812-0.95312 1.7812-0.67188 8.2383-3.1367 4.9492-2.0117-0.88281-2.3164-0.96094-2.2695 18.164-8.6289 1.9258 0.10547 1.0859-0.21484 1.8164-0.93359 1.2344-0.94141 1.6953-0.30078 1.1719 0.10156 2.6914-0.31641 1.4922 0.023437 1.1367-0.30859 0.92969-0.40625 2.7031-1.0664 1.0039-0.30859 2.1992-0.22656 0.82422 0.11719" fill="none" stroke="#fff" stroke-linecap="round" stroke-linejoin="round" stroke-miterlimit="10" stroke-width="2"/>
<path d="m132.95 1.2539 1.2031 1.1523 6.1445 4.3984 1.2422 0.16797 1.5781 0.56641 4.2852 2.1992 3.9492 1.5781 1.7031 0.59375 0.22656-1.0156 1.2383-1.9141 0.39453-1.0547 0.95312-2.5469 0.95703-0.51953 1.2852-0.34766 1.2695-1.0273 1.5586 0.43359 2.3867 0.11719 1.1094 0.082032 1.2656 0.78906 2.7617 1.3398 1.5781 1.2656 1.6641 1.1836 1.9258 1.6953 1.2539 0.98438 1.3125 1.0273 1.5859 1.6367 0.86719 0.89844 3.1523 2.9141 2.0586 1.3398 1.9727 0.95703 1.1836 1.0977 1.3359 1.0273 1.6641 1.2695 1.4219 1.9727 2.1641 2.0117 1.707 2.4102 1.1016 1.8164 1.1836 0.63281 0.71484 1.4102 0.94531 0.48047 1.1836-0.23828 2.1289 0.63281 1.0273 0.63281 0.87109 2.0547 1.3398 0.78906 2.3672 2.3672 0.95703 0.70703 0.39453 1.0273 1.4922 1.8984 0.23828 1.7344 0.78906 1.2656 0.32422 1.1836-0.082032 1.8203 0.70312 0.85938 0.32422 1.9844 0.58203 1.1641 0.20703 1.5117 0.070312 1.5781 0.5625 1.9023 0.39453 1.0977 0.78906 1.0273-0.085938 1.6641-0.23828 1.3398 0.875 3.8711 0.94141 4.1016 0.71875 2.293 2.6758 6.0859 2.6914 4.4102 1.8711 1.5586 2.7891 3.1016 2.2852 2.6055 0.63281 2.5352 1.9023 0.94531 1.0156 2.3672 2.5312 1.5781 3.6367 1.7305 4.1836 1.0312 3.3945 0.71484 3.7031 1.3398 2.7617 1.3398 1.2461 1.5117 1.4453 1.4141 4.0977 2.9531 8.5273 6.1602 1.6445 0.74609 1.1367 0.51172 1.1328 0.65625 0.53516 1.0195 0.44531 0.91016 0.52344 1.1484 0.51953 1.1406-2.2227 0.47266-1.3398 0.89844-1.6836 0.8125-2.4297 0.34766-1.1328 0.26172-1.8398 0.74219-1.5078 0.41797-1.3398-0.074219-1.3008-0.88281-2.0586 0.023437-1.4336-0.33594-1.2422 0.15625-1.1016 0.74219-1.3594-0.34766-1.0664 0.23828-0.95703 0.76562-0.99219 0.35938-0.47656-1.0977-1.5781-0.89844-1.2656 0.33594-1.6523 1.4922-0.76172 1.3516-2.6094 0.46484-1.4922 0.27734-1.6719 0.69141-2.2969 0.63281-2.0195 0.67188-2.1758 0.37109-2.0234 0.015625-2.6992-0.18359-1.3516-0.38281-1.9844-0.28906-1.6016-0.058593-1.875-0.27344-0.99219-0.30078-1.3164-0.29688-1.4453-0.53906-1.3516-1.0391-1.1094-1.4961-0.80078-0.60938-1.5352-0.36719-1.2891-0.097657-1.9688-0.64453h-1.3867l-2.3789-0.37109-1.8047-0.011718-1.1953-0.38281-1.0039-0.91016-2.2383-1.0859-2.4609-0.48047-1.5898-0.53516-1.1484 0.046875-1.0156-0.33594-1.0625-1.1484-1.1133 0.51562-0.30859 1.0508-2.1758 0.35938-1.0156 0.19141-1.0195-0.070313-0.52344-1.1016-1.5781 0.21484-1.5898-0.058594-1.0625 0.33594-0.80078 1.1211-1.6641 1.0156-1.1719 1.0312-0.78906 0.80078-1.4688-0.98047-2.2695-0.83984-1.375-0.52344-1.3516-0.57422-1.6641-0.42969-1.6016 0.23828-1.4922-0.73047-0.62109-1.2305-1.0898-0.58594-3.0234 0.10938-1.0039 0.30859-1.7812 0.78906-1.8516 0.68359-1.1367 0.30859-1.4922-0.023437-2.2148 0.35938-1.6484-0.14453-1.3398 0.13281-1.5898 1.1094-1.8164 0.93359-1.0859 0.21484-1.6797-0.09375-1.1172-0.17969-1.1836-0.22656-2.5352-1.5312-2.2461-0.64453-2.332-0.20312-1.7227 0.21484-1.8281 0.59766-0.98047 0.39453-2.0195 0.33203-1.1484 0.10938-1.5742-0.37109-1.9727-0.38281-2.1172-0.34375-2.0547-0.20703-1.2344 0.039063-1.7656 0.65625-0.94531 0.62109-1.6367 0.82422-2.1172 0.26562-1.4961-0.5625-1.3008-1.1719-2.2969-0.14453-1.4336-0.082031-1.3281 0.41797-2.4023 0.058594-2.4258-0.65625-1.3867-0.20312-1.5391 0.10547-1.1992 0.37109-0.91797 0.76562-1.5312 0.46094-1.0312 0.37109-1.9023 0.21094-1.7109 0.039063-1.4883-0.28125-2.207 0.21094-2.8242 0.80469-1.6484 0.058594-2.2734 1.0898-1.6953-0.046875-2.0312-0.67188-1.125-0.65625-2.2461-0.64453-1.0664 0.046875-3.2031 0.21484-2.293-0.57422-2.7852-0.59766-3.4922 0.96875-2.4258 0.58594-2.1875-1.2422-1.0742-0.31641-1.2031-0.33984-1.1172-0.054688-1.2617 0.035157-1.5547 0.38281-1.1875 0.54297-0.89453 0.49219-0.96094 0.27734-0.91797-0.39844-0.98828-0.75-1.332-0.43359-1.1328-0.21094-1.4102-0.007812-1.5352 0.38281-1 0.35156-1.3633 1.0977-0.82422 0.62109-1.293 0.45312-1.6367 1.1602-0.89844 0.49219-0.88281 0.55859-1.1836 0.75391-2.043 2.668-0.68359 0.77734-1.3867 1.6016-0.59766 0.96875-0.70312 2.1758-0.70703 0.73828-1.3242 0.68359-1.7461 0.058594-0.87109 0.5625-1.125 0.29688-1.7578 0.68359 0.50391-1.2773 0.39453-1.8281-0.046875-1.1992-0.36719-1.6406-0.47656-1.8906-1.2344-3.1641-0.24219-1.5234 0.10547-1.082 0.61328-1.4492 0.80859-1.0742 1.4102-2.3164 0.78516-1.4727 0.20312-1.0312-0.37891-2.8594-0.69922-1.8477-0.16797-1.4922-0.62109-1.4883-0.53906-2.5586-0.3125-0.97266-0.46484-1.8789-0.55469-0.98047-0.62109-2.0352-0.36328-1.6836-0.35156-1.2969-1.2852-2.6211-0.79297-1.2188-0.64453-2.1602-1.0156-2.125-0.82422-1.5781-0.65625-1.3047-0.33984-1.2656-0.94922-2.3398-0.57031-1.9453-1.043-1.9648-0.375-1.3828-0.44531-1.1016-0.82812-1.7656 1.1758-0.58594 0.035157-1.375 1.1602 0.10938 2.2227-0.41797 1.6328 0.3125 0.91406 0.47656 1.0039 0.72656 1.3984 0.46875 1.3633-0.097656 1.0508-0.33594 0.83594-0.65625 1.1133 0.16797 3.3828-0.046875 1.2305-0.25391 1.1211-0.55859 2.4648 0.058594 1.2422-0.10938 2.0703 0.39453 1.3477-0.023438 0.66016-0.95703 1.3125 0.57422 0.92188 0.98047 0.78906 1.1836 1.3516 0.046875 0.83594-0.72656 1.2188-0.50391 0.90625 0.73047 0.027344 1.2422 0.83594 0.64453 1.0625 0.074219 1.7344-0.8125 0.94531-0.34766 1.0273-0.22656 1.3984 0.058594 0.85938 1.0273 0.89844 0.8125 0.98047 0.32422 1.6484 0.96875 1.7812-0.15625 2.1016-0.51172 1.4258-0.37109 0.93359-0.72266 0.47656-1.0117 0.89453-1.7578 0.34766-1.5039 0.51172-1.4141 1.0312-1.8633 0.21484-1.1836 0.09375-1.9258 0.10938-1.1211 0.15234-1.1133 0.10938-1.457 0.44141-1.543 0.035156-2.5469 0.015625-2.875-0.12891-2.375 1.0508-1.1836 1.0859-0.64453 1.4102-1.5352 0.49219-1.0742-0.085937-1.1133 0.10156-1.4219 1.0859-0.6875 1.1133 0.30859 1.0547-0.097656 0.80859-1.043 0.9375-1.4492 0.62891-0.9375 0.39844-1.0312 1.1836-0.5625 0.85938-1.5039 0.37891-1.957-0.375-1.6836-0.10938-1.125-0.054688-1.4062 0.011719-1.668 0.28906-1.6875 0.21094-1.2266 1.1797-0.95703 1.3906 0.89062 1.1406 1.1172 1.6484 0.94531 2.0039 1.0234 1.6797 0.21484 1.9531-0.875 1.0469-0.32812 1.0781 0.48438 1.3203 1.4453 0.55469 1.543 0.82422 0.61719 1.7227-0.14062 1.043-0.23438 1.625-0.066406 1.9062 1.457 1.3047 0.67578 0.91797 2.1094 0.60547 1.1211 1.4336 0.98828 0.55859 0.83203 0.60156 1.0625 1.4062 0.90234 1.668-0.12891 1.0469-0.53125 1.1758-1.5195 1.125-0.35938 1.7031 0.38672 1.168 1.0547 0.55469 0.95312 1.0156 0.089844 1.4062-0.69141 1.0195-0.875 1.4648-1.332 0.70312-0.99219 1.1328-1.2344 0.55078-1.9648 0.32031-2.6133 0.40625-2.1445 1.0781-2.6992 1.043-1.8828 0.73828-2.2695 0.43359-3.1094 0.21484-1.168 0.042968-1.3281-0.18359-1.6914-0.30469-1.4688 0.20312-1.918 0.96094-1.0156 3.4688 1.2891 1.0898 1.1523 1.3633 0.71094 1.0156-0.33594 0.89453-1.2969 1.8359 0.44531 0.95312 0.33984 1.6719-0.30859 3.0039-2.5391 2.0352-3.418-0.21875-1.2383-0.32031-0.96875-1.7539-5.375-1.0234-3.1211z" fill="#ccc" fill-rule="evenodd"/>
<path d="m132.95 1.2539 1.2031 1.1523 6.1445 4.3984 1.2422 0.16797 1.5781 0.56641 4.2852 2.1992 3.9492 1.5781 1.7031 0.59375 0.22656-1.0156 1.2383-1.9141 0.39453-1.0547 0.95312-2.5469 0.95703-0.51953 1.2852-0.34766 1.2695-1.0273 1.5586 0.43359 2.3867 0.11719 1.1094 0.082032 1.2656 0.78906 2.7617 1.3398 1.5781 1.2656 1.6641 1.1836 1.9258 1.6953 1.2539 0.98438 1.3125 1.0273 1.5859 1.6367 0.86719 0.89844 3.1523 2.9141 2.0586 1.3398 1.9727 0.95703 1.1836 1.0977 1.3359 1.0273 1.6641 1.2695 1.4219 1.9727 2.1641 2.0117 1.707 2.4102 1.1016 1.8164 1.1836 0.63281 0.71484 1.4102 0.94531 0.48047 1.1836-0.23828 2.1289 0.63281 1.0273 0.63281 0.87109 2.0547 1.3398 0.78906 2.3672 2.3672 0.95703 0.70703 0.39453 1.0273 1.4922 1.8984 0.23828 1.7344 0.78906 1.2656 0.32422 1.1836-0.082032 1.8203 0.70312 0.85938 0.32422 1.9844 0.58203 1.1641 0.20703 1.5117 0.070312 1.5781 0.5625 1.9023 0.39453 1.0977 0.78906 1.0273-0.085938 1.6641-0.23828 1.3398 0.875 3.8711 0.94141 4.1016 0.71875 2.293 2.6758 6.0859 2.6914 4.4102 1.8711 1.5586 2.7891 3.1016 2.2852 2.6055 0.63281 2.5352 1.9023 0.94531 1.0156 2.3672 2.5312 1.5781 3.6367 1.7305 4.1836 1.0312 3.3945 0.71484 3.7031 1.3398 2.7617 1.3398 1.2461 1.5117 1.4453 1.4141 4.0977 2.9531 8.5273 6.1602 1.6445 0.74609 1.1367 0.51172 1.1328 0.65625 0.53516 1.0195 0.44531 0.91016 0.52344 1.1484 0.51953 1.1406-2.2227 0.47266-1.3398 0.89844-1.6836 0.8125-2.4297 0.34766-1.1328 0.26172-1.8398 0.74219-1.5078 0.41797-1.3398-0.074219-1.3008-0.88281-2.0586 0.023437-1.4336-0.33594-1.2422 0.15625-1.1016 0.74219-1.3594-0.34766-1.0664 0.23828-0.95703 0.76562-0.99219 0.35938-0.47656-1.0977-1.5781-0.89844-1.2656 0.33594-1.6523 1.4922-0.76172 1.3516-2.6094 0.46484-1.4922 0.27734-1.6719 0.69141-2.2969 0.63281-2.0195 0.67188-2.1758 0.37109-2.0234 0.015625-2.6992-0.18359-1.3516-0.38281-1.9844-0.28906-1.6016-0.058593-1.875-0.27344-0.99219-0.30078-1.3164-0.29688-1.4453-0.53906-1.3516-1.0391-1.1094-1.4961-0.80078-0.60938-1.5352-0.36719-1.2891-0.097657-1.9688-0.64453h-1.3867l-2.3789-0.37109-1.8047-0.011718-1.1953-0.38281-1.0039-0.91016-2.2383-1.0859-2.4609-0.48047-1.5898-0.53516-1.1484 0.046875-1.0156-0.33594-1.0625-1.1484-1.1133 0.51562-0.30859 1.0508-2.1758 0.35938-1.0156 0.19141-1.0195-0.070313-0.52344-1.1016-1.5781 0.21484-1.5898-0.058594-1.0625 0.33594-0.80078 1.1211-1.6641 1.0156-1.1719 1.0312-0.78906 0.80078-1.4688-0.98047-2.2695-0.83984-1.375-0.52344-1.3516-0.57422-1.6641-0.42969-1.6016 0.23828-1.4922-0.73047-0.62109-1.2305-1.0898-0.58594-3.0234 0.10938-1.0039 0.30859-1.7812 0.78906-1.8516 0.68359-1.1367 0.30859-1.4922-0.023437-2.2148 0.35938-1.6484-0.14453-1.3398 0.13281-1.5898 1.1094-1.8164 0.93359-1.0859 0.21484-1.6797-0.09375-1.1172-0.17969-1.1836-0.22656-2.5352-1.5312-2.2461-0.64453-2.332-0.20312-1.7227 0.21484-1.8281 0.59766-0.98047 0.39453-2.0195 0.33203-1.1484 0.10938-1.5742-0.37109-1.9727-0.38281-2.1172-0.34375-2.0547-0.20703-1.2344 0.039063-1.7656 0.65625-0.94531 0.62109-1.6367 0.82422-2.1172 0.26562-1.4961-0.5625-1.3008-1.1719-2.2969-0.14453-1.4336-0.082031-1.3281 0.41797-2.4023 0.058594-2.4258-0.65625-1.3867-0.20312-1.5391 0.10547-1.1992 0.37109-0.91797 0.76562-1.5312 0.46094-1.0312 0.37109-1.9023 0.21094-1.7109 0.039063-1.4883-0.28125-2.207 0.21094-2.8242 0.80469-1.6484 0.058594-2.2734 1.0898-1.6953-0.046875-2.0312-0.67188-1.125-0.65625-2.2461-0.64453-1.0664 0.046875-3.2031 0.21484-2.293-0.57422-2.7852-0.59766-3.4922 0.96875-2.4258 0.58594-2.1875-1.2422-1.0742-0.31641-1.2031-0.33984-1.1172-0.054688-1.2617 0.035157-1.5547 0.38281-1.1875 0.54297-0.89453 0.49219-0.96094 0.27734-0.91797-0.39844-0.98828-0.75-1.332-0.43359-1.1328-0.21094-1.4102-0.007812-1.5352 0.38281-1 0.35156-1.3633 1.0977-0.82422 0.62109-1.293 0.45312-1.6367 1.1602-0.89844 0.49219-0.88281 0.55859-1.1836 0.75391-2.043 2.668-0.68359 0.77734-1.3867 1.6016-0.59766 0.96875-0.70312 2.1758-0.70703 0.73828-1.3242 0.68359-1.7461 0.058594-0.87109 0.5625-1.125 0.29688-1.7578 0.68359 0.50391-1.2773 0.39453-1.8281-0.046875-1.1992-0.36719-1.6406-0.47656-1.8906-1.2344-3.1641-0.24219-1.5234 0.10547-1.082 0.61328-1.4492 0.80859-1.0742 1.4102-2.3164 0.78516-1.4727 0.20312-1.0312-0.37891-2.8594-0.69922-1.8477-0.16797-1.4922-0.62109-1.4883-0.53906-2.5586-0.3125-0.97266-0.46484-1.8789-0.55469-0.98047-0.62109-2.0352-0.36328-1.6836-0.35156-1.2969-1.2852-2.6211-0.79297-1.2188-0.64453-2.1602-1.0156-2.125-0.82422-1.5781-0.65625-1.3047-0.33984-1.2656-0.94922-2.3398-0.57031-1.9453-1.043-1.9648-0.375-1.3828-0.44531-1.1016-0.82812-1.7656 1.1758-0.58594 0.035157-1.375 1.1602 0.10938 2.2227-0.41797 1.6328 0.3125 0.91406 0.47656 1.0039 0.72656 1.3984 0.46875 1.3633-0.097656 1.0508-0.33594 0.83594-0.65625 1.1133 0.16797 3.3828-0.046875 1.2305-0.25391 1.1211-0.55859 2.4648 0.058594 1.2422-0.10938 2.0703 0.39453 1.3477-0.023438 0.66016-0.95703 1.3125 0.57422 0.92188 0.98047 0.78906 1.1836 1.3516 0.046875 0.83594-0.72656 1.2188-0.50391 0.90625 0.73047 0.027344 1.2422 0.83594 0.64453 1.0625 0.074219 1.7344-0.8125 0.94531-0.34766 1.0273-0.22656 1.3984 0.058594 0.85938 1.0273 0.89844 0.8125 0.98047 0.32422 1.6484 0.96875 1.7812-0.15625 2.1016-0.51172 1.4258-0.37109 0.93359-0.72266 0.47656-1.0117 0.89453-1.7578 0.34766-1.5039 0.51172-1.4141 1.0312-1.8633 0.21484-1.1836 0.09375-1.9258 0.10938-1.1211 0.15234-1.1133 0.10938-1.457 0.44141-1.543 0.035156-2.5469 0.015625-2.875-0.12891-2.375 1.0508-1.1836 1.0859-0.64453 1.4102-1.5352 0.49219-1.0742-0.085937-1.1133 0.10156-1.4219 1.0859-0.6875 1.1133 0.30859 1.0547-0.097656 0.80859-1.043 0.9375-1.4492 0.62891-0.9375 0.39844-1.0312 1.1836-0.5625 0.85938-1.5039 0.37891-1.957-0.375-1.6836-0.10938-1.125-0.054688-1.4062 0.011719-1.668 0.28906-1.6875 0.21094-1.2266 1.1797-0.95703 1.3906 0.89062 1.1406 1.1172 1.6484 0.94531 2.0039 1.0234 1.6797 0.21484 1.9531-0.875 1.0469-0.32812 1.0781 0.48438 1.3203 1.4453 0.55469 1.543 0.82422 0.61719 1.7227-0.14062 1.043-0.23438 1.625-0.066406 1.9062 1.457 1.3047 0.67578 0.91797 2.1094 0.60547 1.1211 1.4336 0.98828 0.55859 0.83203 0.60156 1.0625 1.4062 0.90234 1.668-0.12891 1.0469-0.53125 1.1758-1.5195 1.125-0.35938 1.7031 0.38672 1.168 1.0547 0.55469 0.95312 1.0156 0.089844 1.4062-0.69141 1.0195-0.875 1.4648-1.332 0.70312-0.99219 1.1328-1.2344 0.55078-1.9648 0.32031-2.6133 0.40625-2.1445 1.0781-2.6992 1.043-1.8828 0.73828-2.2695 0.43359-3.1094 0.21484-1.168 0.042968-1.3281-0.18359-1.6914-0.30469-1.4688 0.20312-1.918 0.96094-1.0156 3.4688 1.2891 1.0898 1.1523 1.3633 0.71094 1.0156-0.33594 0.89453-1.2969 1.8359 0.44531 0.95312 0.33984 1.6719-0.30859 3.0039-2.5391 2.0352-3.418-0.21875-1.2383-0.32031-0.96875-1.7539-5.375-1.0234-3.1211 0.097656 0.066406" fill="none" stroke="#fff" stroke-linecap="round" stroke-linejoin="round" stroke-miterlimit="10" stroke-width="2"/>
<path d="m164 173.29 1.1602 0.42188 0.92188 1.6523 0.33594 1.1211 0.93359 2.0156 0.85938 1.0742 1.0625 1.2227 0.27344 1.0664 0.62109 1.4727 1.2969 0.10156 0.92969-0.60938 0.84766-1.5781 1.5664-2.0625 0.79688-1.2031 1.9258-0.5625 1.6914 0.16406 1.3711 0.30469 1.4062 1.9727 0.41797 1.5234 0.16797 1.625 0.015625 1.3867-0.18359 1.1211-0.35156 2.9531 0.41797 3.4727-0.14844 3.5078 0.8125 3.5898 0.67578 0.75391 1.0234 0.27344 1.0625 0.89844 1.8594 2.9375 1.0312 1.4648 2.8438 0.58594 2.1523-0.625 4.1406-2.5742 2.082-1.1953 0.82031-0.85938 1.5977-3.2773 0.39844-1.1484 1.0469-0.62109 4.6406 1.0156 3.7266 0.75 4.0859 1.0117 3.0391 0.62109 2.5195 0.39453 1.668 0.32812 1.8945 0.65234 2.1562 0.58594 1.0156 0.53125-0.19141 1.2188-0.74609 2.625-0.26953 1.4219 0.22656 1.4258 0.26172 1.5195 0.61719 2.0117 0.03125 1.5 0.042969 2.3438-0.39844 2.4336 0.3125 1.7305 0.75391 1.8594 0.94531 1.4258 2.1406 2.7891 1.4258 1.2812 1.3672 1.2305 0.92188 0.83203 2.375 0.53906 1.8164 1.5508 1.7656 2.0586 1.375 2.1562 1.2734 1.9297 0.78516 1.4375 1.0977 0.97266 1.1914 1.8086 0.32422 1.9258 1.6523 1.957 1.3242 1.5 0.95703 1.418-0.74219 1.5859-0.57812 1.4453-0.78125 2.457-0.074218 1.3516 0.21094 1.582 0.11328 2.1289 0.16406 1.4414 0.027344 1.5508 0.27734 0.96875 1.7461 1.6875 1.0781 0.63672 1.3008 0.52734 1.7461 0.16797 1.5234-0.27734 0.91406-0.5 1.5469-1.1914 1.0547-1.0234 1.2852-1.1289 1.5625-0.91406 1.2031-0.86328 0.78516-0.94531 0.8125-1.3594 1.2031-1.1758 1.8516-1.8125 1.3711-0.90625 0.89844-0.51953 0.91797-0.46094 0.98047-1.1953 1.3086-1.0742 3.2969-0.83594 1.5977 0.15625 2.5898 0.55078 2.043 0.67188 1.8047-0.38281 2.2188-1.6484 1.793-0.80078 2.4219-1.7148 2.1484-0.98438 2.0391-0.86328 2.7734-1.1875 1.1523-0.33984 1.8555-0.6875 1.6953-2.1445 0.625-1.1445 1.4492-1.543 2.625-1 0.98828-0.54297 0.60156-1.0234 0.050781-1.9844 0.51953-1.6875 0.98438-1.7383 1.4531-2.2227 1.0742-2.9883 0.75781-0.96875 1.0742-0.55078 1.5703-0.36719 1.9883-0.49609 1.5195-1.3555 1.5156-1.0273 1.3867-0.74219 2.0469-1.6211 0.96094-1.0625 0.99609-0.21094 2.0469 0.69922 1.3672-0.40625 1.2617-0.042968 1.168 0.35156 1.1172-0.23438 1.9375 0.28906 1.0195 0.65234 1.9453 0.79297 1.4023 1.0664 0.76172 0.83594 0.67969 1.0742 1.5781 0.019531 2.7188-0.90625 2.0859 0.046875 1.7539-0.26172 1.7656-0.26172 2.9727-3.3984 0.60156-2.0938 2.1719-0.78516 1.6484-0.70703 0.86328-1.0195 2.957-1.0742 1.9609-0.39453 1.2031-0.57422 1.0742-1.1523 1.1602-1.2461 1.3242-0.63672 1.1016-0.10547 1.1758-0.20703 1.5508-0.27734 2.0859-0.16797 1.5703-0.13281 1.4922 0.18359 0.625-1.4844 0.26562-1.7617 0.49609-1.0977 1.2734-1.3008 1.3867-1.4023 1.1992-0.66406 0.96484-0.70312 1.043-0.92969 1.4844-0.25781 2.0938-0.53516 1.4297-0.77734 1.6875-0.99609 0.82031-0.69141 1.3867-0.43359 3.0703-0.82031 2.3359-1.082 2.6172-1.3633 1.0586 0.69141 2.1914 1.4297 2.1758 1.3086 2.1758 0.92578 1.0898 0.22266 2.4453 1.1289 2.1875 0.5 2.2656 0.5 1.25 0.72656 0.88672 1.3672 1.0234 0.5625 1.168-0.058594 1.4219-0.3125 1.1211-0.23828 1.0938-0.12891 1.6367 0.097656 0.98828 0.52344 1.4492 1.4883 3.0781 1.6484 2.0547 1.0078 1.1797 0.57812 1.2031 0.29688 1.4648-0.34375 1.5703-1.2773 1.1758-0.70703 1.6602-0.66406 1.5547-0.53125 1.6836-0.99219 1.1914-0.33203 1.4219-0.32422 1.3203-1.1992 0.88672-0.66406 1.0234-0.52734 2.0234-0.60938 1.5977-0.042969h1.2812l1.1094 0.042969 1.1367-0.29688 3.6406-1.5938 1.0234-0.82812 1.8164-1.457 1.5469-1.8867 3.0938-0.94922 1.2812 0.089844 1.5781-0.69141 0.99609-1.0781 0.47266-1.5508 0.25-1.082 0.65234-1.1016 1.1406-0.67188 1.8516-0.28516 1.3398 0.3125 1.4766 0.25781 0.86328 0.51172 0.98438 2.4727 1.2773 1.25 2.1055 0.67188 1.7656-0.30078 1.8203-0.17188 0.73828 0.88281-0.37891 1.7305-0.35938 0.98047-0.23438 1.3398 0.046875 1.1992 0.56641 1.4414 0.046875 1.6289 0.0625 2.1484-0.15234 1.3789-0.64844 1.1094-2.0898 0.42188-1.0586 0.42578-2.0703 0.54297-2.418 0.76953-1.25 0.96484-0.89062 0.55859-1.5117 0.39453-2.832 1.6055-0.87891 1.1406-1.8359 1.8359-1.0938 1.375-0.65234 0.82031-3.2891 2.7344-1.9297 2.0352 0.054687 2.0391 0.64453 1.3398 0.69531 1.6055 0.20703 2.6836-0.37891 0.98438-0.75 1.1523-0.49219 1.2188-0.14062 1.3359-0.96875 2.1328-2.3398 3.043-1.582 1.082-0.42969 0.91016 0.37109 2.957v1.1094l-0.84375 1.1836-1.7344 0.6875-2.543 2.0273-0.82422 1.25-1.2227 0.9375-1.3359 1.3672-0.95703 0.53906-1.293-0.039063-1.832-0.55859-2.1875-0.082031-1.043 0.20312-0.85938 0.62891-0.37109 1.3125-0.49609 1.3516-1.0273 0.57031-0.88281 0.98828-1.2188 3.9141-0.26562 2.0938-0.18359 1.4297-1.2031 2.707-1.168 1.168-1.7031 1.457-2.2891 1.8516-0.6875 1.1953-0.20703 1.0273-0.875 1.0273-0.85938 1.0039-1.1055 0.55859-1.1562 0.26562-1.625 0.78125-1.375 0.41797-0.68359 0.89453 0.62891 1.6562 0.62109 1.7031 0.69531 1.4375 2.3477 2.5312-0.066407 1.0273-0.54688 1.0312-1.7148 0.55859-1.375 0.27734-1.3711 1.3125-1.0234 1.3047-1.0977 1.2422-1.2344 0.69141-1.375-0.47656-1.5195-0.26172-2.1992-0.68359-2.2695 0.21484-1.8516 0.41797-1.0977 1.1016-0.67969 1.6523-0.54297 1.9219-0.40234 2.3359-0.33984 1.7188-0.46875 2.1484-0.61719 1.457-8.7656 12.086-4.4805 7.2891-0.51172 1.7188-0.070312 1.2031 0.13672 3.2031 1.5742 1.6719 1.1836 1.9453 0.94141 1.2734 1.1523 1.2461 0.69922 1.4297 1.2148 2.7305 0.34375 1.4102 0.15234 1.168-1.1953 0.91406-3.9453 0.0625-1.4883 0.33203-2.1562 0.66797-1.3984 0.73047-0.72656 0.69922-1.8516 1.0625-2.6445 1.3047-1.1836 1.1836-1 0.48828-1.5195 0.21094-2.7031 1.2461-1.3359 1.5781-1.3672 0.75781-1.3047 0.45703-1.3828-0.26172-1.2891-0.74219-1.0625-1.4883-1.2461-0.94141-2.0039-0.96875-1.4727-0.44922-1.1797-0.14844-1.0039 0.12891-0.89844 0.5-1.1602 1.1367-0.85547 0.75-0.86719 0.63672-0.83594 0.64062 0.097657 1.1406 0.62891 1.125 0.84375 0.55469 0.44531 1.2305 0.34766 1.4531 0.25781 1.3672 0.1875 1.8008 0.12891 1.4375-0.0625 1.0195-0.33984 2.1367 0.33203 1.8359 1.0273 1.125 1.6016 2.6094 0.37891 1.1758 0.22266 1.1016-0.97656 2.207-0.57422 1.2266-0.25391 2.1289 0.15234 1.1797v1.0781l-0.125 2.5039 0.52734 3.2344 0.18359 1.1328 0.28906 1.2227-0.125 1.8516-0.5 1.6055-0.72656 0.75-1.7539 0.70312-1.625-0.003906-1.2969-0.23438-1.0664-0.10938-1.2422 0.14453-1.0039 1.0234-1.1289 1.25-0.19141 0.98828-0.125 1.8086-0.65625 1.3359-0.69531 0.98828-0.41016 1.3203 0.27344 1.3008-0.39453 1.1641-0.23047 1.1445-0.80078 1.0586-1.1289 0.90234-1.8281 1.6797-0.94922 0.92578-0.86719 1.5078-0.50391 0.86719-0.26562 1.0586-0.28906 0.99219-0.58594 1.6953-0.23047 1.5156-0.34375 3.8359-0.058594 1.7461-0.23047 1.8828-0.90625 3.5156-0.79297 0.91797-1.2617 0.99609-1.0469 0.73828-1.2578 0.65625-0.91406 0.46484-0.92578 0.60938-1.3398 0.68359-0.88672 0.875-0.96875 0.80469-1.1797 0.61719-0.15625-1.1133 0.64062-1.7188-0.36719-2.0703-0.36328-1.2148-0.86328-1-0.93359-0.56641-1.0078-0.56641-1.2188-0.64062-1.8672-0.92188-1.4336-0.21094-0.93359-0.63672-2.1523-0.42188-1.8086 0.16016-1.7656 1.0703-0.42969 1 0.007813 1.2891 0.14844 1.5703-1.207 2.5078-0.55469 1.6367-1.4062-0.13672-1.1367 0.015625-1.1289 0.31641-4.0078-2.9023-0.84766-0.80469-1.1836-1.3945-0.61328-0.90234-0.63281-2.0742-0.57422-2.6992-0.85938-0.91406-0.48438-1.6211-0.53516-1.4023-0.92578-1.1953-1.2578-0.85156-1.2617-0.375-0.37109-1.0117-0.88281-1.1875-0.21875-1.293-0.89453-1.7695-1.2461-1.2305-1.2773-0.23828-1.8789 0.066406-1.1211-1.6172-0.94141-1.1211-1.8203-1.0352-1.6055-0.73438-2.0391 0.51172-1.3828 1.1211-1.1055 1.7773-1.4023 1.2852-1.3828 0.54688-3.2305 1.5-1.4844 0.92188-1.8203 1.3867-0.55469 1.0938-1.2773 2.6758-0.25 1.1758 0.22656 2.8867-0.15625 2.0312-0.12891 1.6953-1.8555 2.082-0.96875 1.5234-0.67969 1.5469-1.2578 3.543-1.2969 1.5469-2.3906 2.3906-0.69922 0.92578-0.53906 1.2578-0.32812 1.0898-0.45312 2.1445-1.1953 1.2578-1.0352 0.52344-1.3555 0.89844-1.668 2.4102-2.4922 2.6172-84.168 46.844-2.3672-3.4922-1.7148-3.6055-1.0078-1.2422-1.9492-2.8398-2.543-4.0195-1.9531-2.7812-3.0742-3.9023-1.9531-3.0781-2.5312-4.1875-2.2695-2.4609-1.2891-1.8945-1.7773-2.6875-1.4766-1.8164-3.1055-4.2383-3.2148-4.2773-2.0078-2.6094-0.90625-1.4414-4.0898-5.4102-1.25-2.5352-1.7031-2.3477-5.0312-5.4141-0.79688-2.8398v-2.043l-0.074219-2.1172-1.4414-1.9336-1.5859-3.0625-1.668-1.9336-0.875-1.7891-1.8789-1.793-2.4336-2.2969-2.0586-2.3984-2.3984-3.875-2.1055-2.2031-1.2617-1.5273-3.0508-3.7305-3.0039-3.707-3.4414-4.3359-10.078-11.699-1.5742-1.7695-1.332-1.0898-1.2109-1.2109-1.4766-2.2031-0.70312-1.1875-1.0234-1.4219-3.625-3.1445-4.0859-4.7383-1.3438-1.5898-0.5625-0.95703-0.11719-1.7695 0.87109-1.0664 0.99219-1.1172 0.62109-1.25 0.11719-1.3711-0.25-1.1172-0.75391-1.0547-0.9375-1.1836-0.69141-0.92969-0.6875-0.99219-0.19141-1-0.75-1.3047-1.4375-1.9219-0.81641-1.1172-0.74609-1.6367-0.75-1.1797-0.875-1.2422-0.62891-0.99609-0.5625-1.0547-0.42188-1.1445-0.45703-1.0586-0.66797-2.6133-0.48047-1.5312-0.80859-1.3398-1.6406-1.9727-1.1562-1.543-0.73828-0.875-2.3242-2.7578-1.1953-1.4336-0.9375-1.1523-1.1367-1.1562-0.82812-0.84766-1.3398-1.4766-1.6641-2.082-1.2734-1.7656-2.0117-2.4375-0.72656-0.82031-1.0898-1.9297-2.0859-1.8867-0.51172-0.99219-2.3711-2.4883-0.86719-0.98438-1.7852-2.6211-0.98828-1.2383-0.75391-0.88281-1.207-1.9961-0.70703-0.88281-1.3438-1.9844-1.0391-1.2617-0.5-1.2656-0.14453-1.0039 0.13672-1.5586 0.40625-1.4688-0.17969-1.2031 0.17188-1.1992 0.30859-1.3711-1.2617-5.3477 0.12109-1.9023-0.51172-1.5977-0.37109-1.1016-0.58984-1.5586-0.36719-2.1367 1.0273-0.44531 1.2227-0.15625 1.3164-0.19141 1.1367-0.042969 1.6211 0.11328 1.6523 0.10547 1.9766 0.11719 3.3789 0.046875 1.2344-0.03125 1.3555-0.15234 1.4922-0.31641 1.75-0.60547 0.84375-0.54297 0.79688-0.61719 0.71094-0.75 1.0781-1.2578 0.62109-0.875 0.39453-1.0742 0.24609-1.0781 0.61328-1.2109 0.74609-1.2969 0.84766-1.2617 0.75391-0.93359 1.2422-1.1367 0.87109-0.78906 0.82812-1.3516 1.3477-1.4414 1.2422-1.6055 0.52344-0.92188 0.3125-0.95312 0.35156-1.043 0.79688-0.85156 0.70703-0.93359 0.49219-0.92188 1.0156-0.98047 0.76562-0.96094 0.99609-0.70312 0.99609-0.73438 0.73047-0.77734 1.0508-0.54297 1.293-1.4727 1.3203-2.4648 1.1523-2.6914 5.2266-10.68 0.9375-4.5742 0.25781-2.5312 0.64062-3.2148 0.58203-0.9375 1.1094-0.79688 2.043-0.18359 1.1055 0.015625 1.582 0.19531 2.4805-0.55469 2.0391-0.48438 0.99609-0.23438 1.8672-0.8125 4.6055-4.2383 2.1484-1.9766 1.1016-1.6875 1.1016-1.5781 3.3867-4.3711 0.76172-1.3906 0.91797-1.4336 1.1367-1.0625 3.6328-1.6719 2.7578-0.77734 2.1211-0.21094 1.25-0.28516 1.5547-0.47266 1.3281-0.65234 1.0781-1.043 1.3203-0.9375 1.2734-1.1602 1.6719-1.8711 1.6289 0.44922 2.3203-0.60547 1.2852-0.54297 2.3594-1.0117 1.2617-0.30078 1.1953-0.35938 1.3633-1.0039 1 1.1172 0.29297 1.707 0.79297 1.0273 1.9531 0.73828 1.1445 0.12109 1.1719-0.12109 2.1641-0.87109 1.6406-0.42578 1.2148 0.027344 1.5664 0.28516 1.7891 0.41016 1.8125 0.28516 1.1211 0.81641 1.2852 0.49219 1.6797-0.78906 1.6094-1.3242 0.75-0.875 0.99609-0.97266 0.95703-1.3633 1.1641-1.4805 1.625-0.68359z" fill="#ccc" fill-rule="evenodd"/>
<path d="m164 173.29 1.1602 0.42188 0.92188 1.6523 0.33594 1.1211 0.93359 2.0156 0.85938 1.0742 1.0625 1.2227 0.27344 1.0664 0.62109 1.4727 1.2969 0.10156 0.92969-0.60938 0.84766-1.5781 1.5664-2.0625 0.79688-1.2031 1.9258-0.5625 1.6914 0.16406 1.3711 0.30469 1.4062 1.9727 0.41797 1.5234 0.16797 1.625 0.015625 1.3867-0.18359 1.1211-0.35156 2.9531 0.41797 3.4727-0.14844 3.5078 0.8125 3.5898 0.67578 0.75391 1.0234 0.27344 1.0625 0.89844 1.8594 2.9375 1.0312 1.4648 2.8438 0.58594 2.1523-0.625 4.1406-2.5742 2.082-1.1953 0.82031-0.85938 1.5977-3.2773 0.39844-1.1484 1.0469-0.62109 4.6406 1.0156 3.7266 0.75 4.0859 1.0117 3.0391 0.62109 2.5195 0.39453 1.668 0.32812 1.8945 0.65234 2.1562 0.58594 1.0156 0.53125-0.19141 1.2188-0.74609 2.625-0.26953 1.4219 0.22656 1.4258 0.26172 1.5195 0.61719 2.0117 0.03125 1.5 0.042969 2.3438-0.39844 2.4336 0.3125 1.7305 0.75391 1.8594 0.94531 1.4258 2.1406 2.7891 1.4258 1.2812 1.3672 1.2305 0.92188 0.83203 2.375 0.53906 1.8164 1.5508 1.7656 2.0586 1.375 2.1562 1.2734 1.9297 0.78516 1.4375 1.0977 0.97266 1.1914 1.8086 0.32422 1.9258 1.6523 1.957 1.3242 1.5 0.95703 1.418-0.74219 1.5859-0.57812 1.4453-0.78125 2.457-0.074218 1.3516 0.21094 1.582 0.11328 2.1289 0.16406 1.4414 0.027344 1.5508 0.27734 0.96875 1.7461 1.6875 1.0781 0.63672 1.3008 0.52734 1.7461 0.16797 1.5234-0.27734 0.91406-0.5 1.5469-1.1914 1.0547-1.0234 1.2852-1.1289 1.5625-0.91406 1.2031-0.86328 0.78516-0.94531 0.8125-1.3594 1.2031-1.1758 1.8516-1.8125 1.3711-0.90625 0.89844-0.51953 0.91797-0.46094 0.98047-1.1953 1.3086-1.0742 3.2969-0.83594 1.5977 0.15625 2.5898 0.55078 2.043 0.67188 1.8047-0.38281 2.2188-1.6484 1.793-0.80078 2.4219-1.7148 2.1484-0.98438 2.0391-0.86328 2.7734-1.1875 1.1523-0.33984 1.8555-0.6875 1.6953-2.1445 0.625-1.1445 1.4492-1.543 2.625-1 0.98828-0.54297 0.60156-1.0234 0.050781-1.9844 0.51953-1.6875 0.98438-1.7383 1.4531-2.2227 1.0742-2.9883 0.75781-0.96875 1.0742-0.55078 1.5703-0.36719 1.9883-0.49609 1.5195-1.3555 1.5156-1.0273 1.3867-0.74219 2.0469-1.6211 0.96094-1.0625 0.99609-0.21094 2.0469 0.69922 1.3672-0.40625 1.2617-0.042968 1.168 0.35156 1.1172-0.23438 1.9375 0.28906 1.0195 0.65234 1.9453 0.79297 1.4023 1.0664 0.76172 0.83594 0.67969 1.0742 1.5781 0.019531 2.7188-0.90625 2.0859 0.046875 1.7539-0.26172 1.7656-0.26172 2.9727-3.3984 0.60156-2.0938 2.1719-0.78516 1.6484-0.70703 0.86328-1.0195 2.957-1.0742 1.9609-0.39453 1.2031-0.57422 1.0742-1.1523 1.1602-1.2461 1.3242-0.63672 1.1016-0.10547 1.1758-0.20703 1.5508-0.27734 2.0859-0.16797 1.5703-0.13281 1.4922 0.18359 0.625-1.4844 0.26562-1.7617 0.49609-1.0977 1.2734-1.3008 1.3867-1.4023 1.1992-0.66406 0.96484-0.70312 1.043-0.92969 1.4844-0.25781 2.0938-0.53516 1.4297-0.77734 1.6875-0.99609 0.82031-0.69141 1.3867-0.43359 3.0703-0.82031 2.3359-1.082 2.6172-1.3633 1.0586 0.69141 2.1914 1.4297 2.1758 1.3086 2.1758 0.92578 1.0898 0.22266 2.4453 1.1289 2.1875 0.5 2.2656 0.5 1.25 0.72656 0.88672 1.3672 1.0234 0.5625 1.168-0.058594 1.4219-0.3125 1.1211-0.23828 1.0938-0.12891 1.6367 0.097656 0.98828 0.52344 1.4492 1.4883 3.0781 1.6484 2.0547 1.0078 1.1797 0.57812 1.2031 0.29688 1.4648-0.34375 1.5703-1.2773 1.1758-0.70703 1.6602-0.66406 1.5547-0.53125 1.6836-0.99219 1.1914-0.33203 1.4219-0.32422 1.3203-1.1992 0.88672-0.66406 1.0234-0.52734 2.0234-0.60938 1.5977-0.042969h1.2812l1.1094 0.042969 1.1367-0.29688 3.6406-1.5938 1.0234-0.82812 1.8164-1.457 1.5469-1.8867 3.0938-0.94922 1.2812 0.089844 1.5781-0.69141 0.99609-1.0781 0.47266-1.5508 0.25-1.082 0.65234-1.1016 1.1406-0.67188 1.8516-0.28516 1.3398 0.3125 1.4766 0.25781 0.86328 0.51172 0.98438 2.4727 1.2773 1.25 2.1055 0.67188 1.7656-0.30078 1.8203-0.17188 0.73828 0.88281-0.37891 1.7305-0.35938 0.98047-0.23438 1.3398 0.046875 1.1992 0.56641 1.4414 0.046875 1.6289 0.0625 2.1484-0.15234 1.3789-0.64844 1.1094-2.0898 0.42188-1.0586 0.42578-2.0703 0.54297-2.418 0.76953-1.25 0.96484-0.89062 0.55859-1.5117 0.39453-2.832 1.6055-0.87891 1.1406-1.8359 1.8359-1.0938 1.375-0.65234 0.82031-3.2891 2.7344-1.9297 2.0352 0.054687 2.0391 0.64453 1.3398 0.69531 1.6055 0.20703 2.6836-0.37891 0.98438-0.75 1.1523-0.49219 1.2188-0.14062 1.3359-0.96875 2.1328-2.3398 3.043-1.582 1.082-0.42969 0.91016 0.37109 2.957v1.1094l-0.84375 1.1836-1.7344 0.6875-2.543 2.0273-0.82422 1.25-1.2227 0.9375-1.3359 1.3672-0.95703 0.53906-1.293-0.039063-1.832-0.55859-2.1875-0.082031-1.043 0.20312-0.85938 0.62891-0.37109 1.3125-0.49609 1.3516-1.0273 0.57031-0.88281 0.98828-1.2188 3.9141-0.26562 2.0938-0.18359 1.4297-1.2031 2.707-1.168 1.168-1.7031 1.457-2.2891 1.8516-0.6875 1.1953-0.20703 1.0273-0.875 1.0273-0.85938 1.0039-1.1055 0.55859-1.1562 0.26562-1.625 0.78125-1.375 0.41797-0.68359 0.89453 0.62891 1.6562 0.62109 1.7031 0.69531 1.4375 2.3477 2.5312-0.066407 1.0273-0.54688 1.0312-1.7148 0.55859-1.375 0.27734-1.3711 1.3125-1.0234 1.3047-1.0977 1.2422-1.2344 0.69141-1.375-0.47656-1.5195-0.26172-2.1992-0.68359-2.2695 0.21484-1.8516 0.41797-1.0977 1.1016-0.67969 1.6523-0.54297 1.9219-0.40234 2.3359-0.33984 1.7188-0.46875 2.1484-0.61719 1.457-8.7656 12.086-4.4805 7.2891-0.51172 1.7188-0.070312 1.2031 0.13672 3.2031 1.5742 1.6719 1.1836 1.9453 0.94141 1.2734 1.1523 1.2461 0.69922 1.4297 1.2148 2.7305 0.34375 1.4102 0.15234 1.168-1.1953 0.91406-3.9453 0.0625-1.4883 0.33203-2.1562 0.66797-1.3984 0.73047-0.72656 0.69922-1.8516 1.0625-2.6445 1.3047-1.1836 1.1836-1 0.48828-1.5195 0.21094-2.7031 1.2461-1.3359 1.5781-1.3672 0.75781-1.3047 0.45703-1.3828-0.26172-1.2891-0.74219-1.0625-1.4883-1.2461-0.94141-2.0039-0.96875-1.4727-0.44922-1.1797-0.14844-1.0039 0.12891-0.89844 0.5-1.1602 1.1367-0.85547 0.75-0.86719 0.63672-0.83594 0.64062 0.097657 1.1406 0.62891 1.125 0.84375 0.55469 0.44531 1.2305 0.34766 1.4531 0.25781 1.3672 0.1875 1.8008 0.12891 1.4375-0.0625 1.0195-0.33984 2.1367 0.33203 1.8359 1.0273 1.125 1.6016 2.6094 0.37891 1.1758 0.22266 1.1016-0.97656 2.207-0.57422 1.2266-0.25391 2.1289 0.15234 1.1797v1.0781l-0.125 2.5039 0.52734 3.2344 0.18359 1.1328 0.28906 1.2227-0.125 1.8516-0.5 1.6055-0.72656 0.75-1.7539 0.70312-1.625-0.003906-1.2969-0.23438-1.0664-0.10938-1.2422 0.14453-1.0039 1.0234-1.1289 1.25-0.19141 0.98828-0.125 1.8086-0.65625 1.3359-0.69531 0.98828-0.41016 1.3203 0.27344 1.3008-0.39453 1.1641-0.23047 1.1445-0.80078 1.0586-1.1289 0.90234-1.8281 1.6797-0.94922 0.92578-0.86719 1.5078-0.50391 0.86719-0.26562 1.0586-0.28906 0.99219-0.58594 1.6953-0.23047 1.5156-0.34375 3.8359-0.058594 1.7461-0.23047 1.8828-0.90625 3.5156-0.79297 0.91797-1.2617 0.99609-1.0469 0.73828-1.2578 0.65625-0.91406 0.46484-0.92578 0.60938-1.3398 0.68359-0.88672 0.875-0.96875 0.80469-1.1797 0.61719-0.15625-1.1133 0.64062-1.7188-0.36719-2.0703-0.36328-1.2148-0.86328-1-0.93359-0.56641-1.0078-0.56641-1.2188-0.64062-1.8672-0.92188-1.4336-0.21094-0.93359-0.63672-2.1523-0.42188-1.8086 0.16016-1.7656 1.0703-0.42969 1 0.007813 1.2891 0.14844 1.5703-1.207 2.5078-0.55469 1.6367-1.4062-0.13672-1.1367 0.015625-1.1289 0.31641-4.0078-2.9023-0.84766-0.80469-1.1836-1.3945-0.61328-0.90234-0.63281-2.0742-0.57422-2.6992-0.85938-0.91406-0.48438-1.6211-0.53516-1.4023-0.92578-1.1953-1.2578-0.85156-1.2617-0.375-0.37109-1.0117-0.88281-1.1875-0.21875-1.293-0.89453-1.7695-1.2461-1.2305-1.2773-0.23828-1.8789 0.066406-1.1211-1.6172-0.94141-1.1211-1.8203-1.0352-1.6055-0.73438-2.0391 0.51172-1.3828 1.1211-1.1055 1.7773-1.4023 1.2852-1.3828 0.54688-3.2305 1.5-1.4844 0.92188-1.8203 1.3867-0.55469 1.0938-1.2773 2.6758-0.25 1.1758 0.22656 2.8867-0.15625 2.0312-0.12891 1.6953-1.8555 2.082-0.96875 1.5234-0.67969 1.5469-1.2578 3.543-1.2969 1.5469-2.3906 2.3906-0.69922 0.92578-0.53906 1.2578-0.32812 1.0898-0.45312 2.1445-1.1953 1.2578-1.0352 0.52344-1.3555 0.89844-1.668 2.4102-2.4922 2.6172-84.168 46.844-2.3672-3.4922-1.7148-3.6055-1.0078-1.2422-1.9492-2.8398-2.543-4.0195-1.9531-2.7812-3.0742-3.9023-1.9531-3.0781-2.5312-4.1875-2.2695-2.4609-1.2891-1.8945-1.7773-2.6875-1.4766-1.8164-3.1055-4.2383-3.2148-4.2773-2.0078-2.6094-0.90625-1.4414-4.0898-5.4102-1.25-2.5352-1.7031-2.3477-5.0312-5.4141-0.79688-2.8398v-2.043l-0.074219-2.1172-1.4414-1.9336-1.5859-3.0625-1.668-1.9336-0.875-1.7891-1.8789-1.793-2.4336-2.2969-2.0586-2.3984-2.3984-3.875-2.1055-2.2031-1.2617-1.5273-3.0508-3.7305-3.0039-3.707-3.4414-4.3359-10.078-11.699-1.5742-1.7695-1.332-1.0898-1.2109-1.2109-1.4766-2.2031-0.70312-1.1875-1.0234-1.4219-3.625-3.1445-4.0859-4.7383-1.3438-1.5898-0.5625-0.95703-0.11719-1.7695 0.87109-1.0664 0.99219-1.1172 0.62109-1.25 0.11719-1.3711-0.25-1.1172-0.75391-1.0547-0.9375-1.1836-0.69141-0.92969-0.6875-0.99219-0.19141-1-0.75-1.3047-1.4375-1.9219-0.81641-1.1172-0.74609-1.6367-0.75-1.1797-0.875-1.2422-0.62891-0.99609-0.5625-1.0547-0.42188-1.1445-0.45703-1.0586-0.66797-2.6133-0.48047-1.5312-0.80859-1.3398-1.6406-1.9727-1.1562-1.543-0.73828-0.875-2.3242-2.7578-1.1953-1.4336-0.9375-1.1523-1.1367-1.1562-0.82812-0.84766-1.3398-1.4766-1.6641-2.082-1.2734-1.7656-2.0117-2.4375-0.72656-0.82031-1.0898-1.9297-2.0859-1.8867-0.51172-0.99219-2.3711-2.4883-0.86719-0.98438-1.7852-2.6211-0.98828-1.2383-0.75391-0.88281-1.207-1.9961-0.70703-0.88281-1.3438-1.9844-1.0391-1.2617-0.5-1.2656-0.14453-1.0039 0.13672-1.5586 0.40625-1.4688-0.17969-1.2031 0.17188-1.1992 0.30859-1.3711-1.2617-5.3477 0.12109-1.9023-0.51172-1.5977-0.37109-1.1016-0.58984-1.5586-0.36719-2.1367 1.0273-0.44531 1.2227-0.15625 1.3164-0.19141 1.1367-0.042969 1.6211 0.11328 1.6523 0.10547 1.9766 0.11719 3.3789 0.046875 1.2344-0.03125 1.3555-0.15234 1.4922-0.31641 1.75-0.60547 0.84375-0.54297 0.79688-0.61719 0.71094-0.75 1.0781-1.2578 0.62109-0.875 0.39453-1.0742 0.24609-1.0781 0.61328-1.2109 0.74609-1.2969 0.84766-1.2617 0.75391-0.93359 1.2422-1.1367 0.87109-0.78906 0.82812-1.3516 1.3477-1.4414 1.2422-1.6055 0.52344-0.92188 0.3125-0.95312 0.35156-1.043 0.79688-0.85156 0.70703-0.93359 0.49219-0.92188 1.0156-0.98047 0.76562-0.96094 0.99609-0.70312 0.99609-0.73438 0.73047-0.77734 1.0508-0.54297 1.293-1.4727 1.3203-2.4648 1.1523-2.6914 5.2266-10.68 0.9375-4.5742 0.25781-2.5312 0.64062-3.2148 0.58203-0.9375 1.1094-0.79688 2.043-0.18359 1.1055 0.015625 1.582 0.19531 2.4805-0.55469 2.0391-0.48438 0.99609-0.23438 1.8672-0.8125 4.6055-4.2383 2.1484-1.9766 1.1016-1.6875 1.1016-1.5781 3.3867-4.3711 0.76172-1.3906 0.91797-1.4336 1.1367-1.0625 3.6328-1.6719 2.7578-0.77734 2.1211-0.21094 1.25-0.28516 1.5547-0.47266 1.3281-0.65234 1.0781-1.043 1.3203-0.9375 1.2734-1.1602 1.6719-1.8711 1.6289 0.44922 2.3203-0.60547 1.2852-0.54297 2.3594-1.0117 1.2617-0.30078 1.1953-0.35938 1.3633-1.0039 1 1.1172 0.29297 1.707 0.79297 1.0273 1.9531 0.73828 1.1445 0.12109 1.1719-0.12109 2.1641-0.87109 1.6406-0.42578 1.2148 0.027344 1.5664 0.28516 1.7891 0.41016 1.8125 0.28516 1.1211 0.81641 1.2852 0.49219 1.6797-0.78906 1.6094-1.3242 0.75-0.875 0.99609-0.97266 0.95703-1.3633 1.1641-1.4805 1.625-0.68359 1.1484 0.20312" fill="none" stroke="#fff" stroke-linecap="round" stroke-linejoin="round" stroke-miterlimit="10" stroke-width="2"/>
<path d="m132.95 1.2539 1.2031 1.1523 6.1445 4.3984 1.2422 0.16797 1.5781 0.56641 4.2852 2.1992 3.9492 1.5781 1.7031 0.59375 0.22656-1.0156 1.2383-1.9141 0.39453-1.0547 0.95312-2.5469 0.95703-0.51953 1.2852-0.34766 1.2695-1.0273 1.5586 0.43359 2.3867 0.11719 1.1094 0.082032 1.2656 0.78906 2.7617 1.3398 1.5781 1.2656 1.6641 1.1836 1.9258 1.6953 1.2539 0.98438 1.3125 1.0273 1.5859 1.6367 0.86719 0.89844 3.1523 2.9141 2.0586 1.3398 1.9727 0.95703 1.1836 1.0977 1.3359 1.0273 1.6641 1.2695 1.4219 1.9727 2.1641 2.0117 1.707 2.4102 1.1016 1.8164 1.1836 0.63281 0.71484 1.4102 0.94531 0.48047 1.1836-0.23828 2.1289 0.63281 1.0273 0.63281 0.87109 2.0547 1.3398 0.78906 2.3672 2.3672 0.95703 0.70703 0.39453 1.0273 1.4922 1.8984 0.23828 1.7344 0.78906 1.2656 0.32422 1.1836-0.082032 1.8203 0.70312 0.85938 0.32422 1.9844 0.58203 1.1641 0.20703 1.5117 0.070312 1.5781 0.5625 1.9023 0.39453 1.0977 0.78906 1.0273-0.085938 1.6641-0.23828 1.3398 0.875 3.8711 0.94141 4.1016 0.71875 2.293 2.6758 6.0859 2.6914 4.4102 1.8711 1.5586 2.7891 3.1016 2.2852 2.6055 0.63281 2.5352 1.9023 0.94531 1.0156 2.3672 2.5312 1.5781 3.6367 1.7305 4.1836 1.0312 3.3945 0.71484 3.7031 1.3398 2.7617 1.3398 1.2461 1.5117 1.4453 1.4141 4.0977 2.9531 8.5273 6.1602 1.6445 0.74609 1.1367 0.51172 1.1328 0.65625 0.53516 1.0195 0.44531 0.91016 0.52344 1.1484 0.51953 1.1406-2.2227 0.47266-1.3398 0.89844-1.6836 0.8125-2.4297 0.34766-1.1328 0.26172-1.8398 0.74219-1.5078 0.41797-1.3398-0.074219-1.3008-0.88281-2.0586 0.023437-1.4336-0.33594-1.2422 0.15625-1.1016 0.74219-1.3594-0.34766-1.0664 0.23828-0.95703 0.76562-0.99219 0.35938-0.47656-1.0977-1.5781-0.89844-1.2656 0.33594-1.6523 1.4922-0.76172 1.3516-2.6094 0.46484-1.4922 0.27734-1.6719 0.69141-2.2969 0.63281-2.0195 0.67188-2.1758 0.37109-2.0234 0.015625-2.6992-0.18359-1.3516-0.38281-1.9844-0.28906-1.6016-0.058593-1.875-0.27344-0.99219-0.30078-1.3164-0.29688-1.4453-0.53906-1.3516-1.0391-1.1094-1.4961-0.80078-0.60938-1.5352-0.36719-1.2891-0.097657-1.9688-0.64453h-1.3867l-2.3789-0.37109-1.8047-0.011718-1.1953-0.38281-1.0039-0.91016-2.2383-1.0859-2.4609-0.48047-1.5898-0.53516-1.1484 0.046875-1.0156-0.33594-1.0625-1.1484-1.1133 0.51562-0.30859 1.0508-2.1758 0.35938-1.0156 0.19141-1.0195-0.070313-0.52344-1.1016-1.5781 0.21484-1.5898-0.058594-1.0625 0.33594-0.80078 1.1211-1.6641 1.0156-1.1719 1.0312-0.78906 0.80078-1.4688-0.98047-2.2695-0.83984-1.375-0.52344-1.3516-0.57422-1.6641-0.42969-1.6016 0.23828-1.4922-0.73047-0.62109-1.2305-1.0898-0.58594-3.0234 0.10938-1.0039 0.30859-1.7812 0.78906-1.8516 0.68359-1.1367 0.30859-1.4922-0.023437-2.2148 0.35938-1.6484-0.14453-1.3398 0.13281-1.5898 1.1094-1.8164 0.93359-1.0859 0.21484-1.6797-0.09375-1.1172-0.17969-1.1836-0.22656-2.5352-1.5312-2.2461-0.64453-2.332-0.20312-1.7227 0.21484-1.8281 0.59766-0.98047 0.39453-2.0195 0.33203-1.1484 0.10938-1.5742-0.37109-1.9727-0.38281-2.1172-0.34375-2.0547-0.20703-1.2344 0.039063-1.7656 0.65625-0.94531 0.62109-1.6367 0.82422-2.1172 0.26562-1.4961-0.5625-1.3008-1.1719-2.2969-0.14453-1.4336-0.082031-1.3281 0.41797-2.4023 0.058594-2.4258-0.65625-1.3867-0.20312-1.5391 0.10547-1.1992 0.37109-0.91797 0.76562-1.5312 0.46094-1.0312 0.37109-1.9023 0.21094-1.7109 0.039063-1.4883-0.28125-2.207 0.21094-2.8242 0.80469-1.6484 0.058594-2.2734 1.0898-1.6953-0.046875-2.0312-0.67188-1.125-0.65625-2.2461-0.64453-1.0664 0.046875-3.2031 0.21484-2.293-0.57422-2.7852-0.59766-3.4922 0.96875-2.4258 0.58594-2.1875-1.2422-1.0742-0.31641-1.2031-0.33984-1.1172-0.054688-1.2617 0.035157-1.5547 0.38281-1.1875 0.54297-0.89453 0.49219-0.96094 0.27734-0.91797-0.39844-0.98828-0.75-1.332-0.43359-1.1328-0.21094-1.4102-0.007812-1.5352 0.38281-1 0.35156-1.3633 1.0977-0.82422 0.62109-1.293 0.45312-1.6367 1.1602-0.89844 0.49219-0.88281 0.55859-1.1836 0.75391-2.043 2.668-0.68359 0.77734-1.3867 1.6016-0.59766 0.96875-0.70312 2.1758-0.70703 0.73828-1.3242 0.68359-1.7461 0.058594-0.87109 0.5625-1.125 0.29688-1.7578 0.68359 0.50391-1.2773 0.39453-1.8281-0.046875-1.1992-0.36719-1.6406-0.47656-1.8906-1.2344-3.1641-0.24219-1.5234 0.10547-1.082 0.61328-1.4492 0.80859-1.0742 1.4102-2.3164 0.78516-1.4727 0.20312-1.0312-0.37891-2.8594-0.69922-1.8477-0.16797-1.4922-0.62109-1.4883-0.53906-2.5586-0.3125-0.97266-0.46484-1.8789-0.55469-0.98047-0.62109-2.0352-0.36328-1.6836-0.35156-1.2969-1.2852-2.6211-0.79297-1.2188-0.64453-2.1602-1.0156-2.125-0.82422-1.5781-0.65625-1.3047-0.33984-1.2656-0.94922-2.3398-0.57031-1.9453-1.043-1.9648-0.375-1.3828-0.44531-1.1016-0.82812-1.7656 1.1758-0.58594 0.035157-1.375 1.1602 0.10938 2.2227-0.41797 1.6328 0.3125 0.91406 0.47656 1.0039 0.72656 1.3984 0.46875 1.3633-0.097656 1.0508-0.33594 0.83594-0.65625 1.1133 0.16797 3.3828-0.046875 1.2305-0.25391 1.1211-0.55859 2.4648 0.058594 1.2422-0.10938 2.0703 0.39453 1.3477-0.023438 0.66016-0.95703 1.3125 0.57422 0.92188 0.98047 0.78906 1.1836 1.3516 0.046875 0.83594-0.72656 1.2188-0.50391 0.90625 0.73047 0.027344 1.2422 0.83594 0.64453 1.0625 0.074219 1.7344-0.8125 0.94531-0.34766 1.0273-0.22656 1.3984 0.058594 0.85938 1.0273 0.89844 0.8125 0.98047 0.32422 1.6484 0.96875 1.7812-0.15625 2.1016-0.51172 1.4258-0.37109 0.93359-0.72266 0.47656-1.0117 0.89453-1.7578 0.34766-1.5039 0.51172-1.4141 1.0312-1.8633 0.21484-1.1836 0.09375-1.9258 0.10938-1.1211 0.15234-1.1133 0.10938-1.457 0.44141-1.543 0.035156-2.5469 0.015625-2.875-0.12891-2.375 1.0508-1.1836 1.0859-0.64453 1.4102-1.5352 0.49219-1.0742-0.085937-1.1133 0.10156-1.4219 1.0859-0.6875 1.1133 0.30859 1.0547-0.097656 0.80859-1.043 0.9375-1.4492 0.62891-0.9375 0.39844-1.0312 1.1836-0.5625 0.85938-1.5039 0.37891-1.957-0.375-1.6836-0.10938-1.125-0.054688-1.4062 0.011719-1.668 0.28906-1.6875 0.21094-1.2266 1.1797-0.95703 1.3906 0.89062 1.1406 1.1172 1.6484 0.94531 2.0039 1.0234 1.6797 0.21484 1.9531-0.875 1.0469-0.32812 1.0781 0.48438 1.3203 1.4453 0.55469 1.543 0.82422 0.61719 1.7227-0.14062 1.043-0.23438 1.625-0.066406 1.9062 1.457 1.3047 0.67578 0.91797 2.1094 0.60547 1.1211 1.4336 0.98828 0.55859 0.83203 0.60156 1.0625 1.4062 0.90234 1.668-0.12891 1.0469-0.53125 1.1758-1.5195 1.125-0.35938 1.7031 0.38672 1.168 1.0547 0.55469 0.95312 1.0156 0.089844 1.4062-0.69141 1.0195-0.875 1.4648-1.332 0.70312-0.99219 1.1328-1.2344 0.55078-1.9648 0.32031-2.6133 0.40625-2.1445 1.0781-2.6992 1.043-1.8828 0.73828-2.2695 0.43359-3.1094 0.21484-1.168 0.042968-1.3281-0.18359-1.6914-0.30469-1.4688 0.20312-1.918 0.96094-1.0156 3.4688 1.2891 1.0898 1.1523 1.3633 0.71094 1.0156-0.33594 0.89453-1.2969 1.8359 0.44531 0.95312 0.33984 1.6719-0.30859 3.0039-2.5391 2.0352-3.418-0.21875-1.2383-0.32031-0.96875-1.7539-5.375-1.0234-3.1211z" fill="#0a5394" fill-rule="evenodd"/>
<path d="m132.95 1.2539 1.2031 1.1523 6.1445 4.3984 1.2422 0.16797 1.5781 0.56641 4.2852 2.1992 3.9492 1.5781 1.7031 0.59375 0.22656-1.0156 1.2383-1.9141 0.39453-1.0547 0.95312-2.5469 0.95703-0.51953 1.2852-0.34766 1.2695-1.0273 1.5586 0.43359 2.3867 0.11719 1.1094 0.082032 1.2656 0.78906 2.7617 1.3398 1.5781 1.2656 1.6641 1.1836 1.9258 1.6953 1.2539 0.98438 1.3125 1.0273 1.5859 1.6367 0.86719 0.89844 3.1523 2.9141 2.0586 1.3398 1.9727 0.95703 1.1836 1.0977 1.3359 1.0273 1.6641 1.2695 1.4219 1.9727 2.1641 2.0117 1.707 2.4102 1.1016 1.8164 1.1836 0.63281 0.71484 1.4102 0.94531 0.48047 1.1836-0.23828 2.1289 0.63281 1.0273 0.63281 0.87109 2.0547 1.3398 0.78906 2.3672 2.3672 0.95703 0.70703 0.39453 1.0273 1.4922 1.8984 0.23828 1.7344 0.78906 1.2656 0.32422 1.1836-0.082032 1.8203 0.70312 0.85938 0.32422 1.9844 0.58203 1.1641 0.20703 1.5117 0.070312 1.5781 0.5625 1.9023 0.39453 1.0977 0.78906 1.0273-0.085938 1.6641-0.23828 1.3398 0.875 3.8711 0.94141 4.1016 0.71875 2.293 2.6758 6.0859 2.6914 4.4102 1.8711 1.5586 2.7891 3.1016 2.2852 2.6055 0.63281 2.5352 1.9023 0.94531 1.0156 2.3672 2.5312 1.5781 3.6367 1.7305 4.1836 1.0312 3.3945 0.71484 3.7031 1.3398 2.7617 1.3398 1.2461 1.5117 1.4453 1.4141 4.0977 2.9531 8.5273 6.1602 1.6445 0.74609 1.1367 0.51172 1.1328 0.65625 0.53516 1.0195 0.44531 0.91016 0.52344 1.1484 0.51953 1.1406-2.2227 0.47266-1.3398 0.89844-1.6836 0.8125-2.4297 0.34766-1.1328 0.26172-1.8398 0.74219-1.5078 0.41797-1.3398-0.074219-1.3008-0.88281-2.0586 0.023437-1.4336-0.33594-1.2422 0.15625-1.1016 0.74219-1.3594-0.34766-1.0664 0.23828-0.95703 0.76562-0.99219 0.35938-0.47656-1.0977-1.5781-0.89844-1.2656 0.33594-1.6523 1.4922-0.76172 1.3516-2.6094 0.46484-1.4922 0.27734-1.6719 0.69141-2.2969 0.63281-2.0195 0.67188-2.1758 0.37109-2.0234 0.015625-2.6992-0.18359-1.3516-0.38281-1.9844-0.28906-1.6016-0.058593-1.875-0.27344-0.99219-0.30078-1.3164-0.29688-1.4453-0.53906-1.3516-1.0391-1.1094-1.4961-0.80078-0.60938-1.5352-0.36719-1.2891-0.097657-1.9688-0.64453h-1.3867l-2.3789-0.37109-1.8047-0.011718-1.1953-0.38281-1.0039-0.91016-2.2383-1.0859-2.4609-0.48047-1.5898-0.53516-1.1484 0.046875-1.0156-0.33594-1.0625-1.1484-1.1133 0.51562-0.30859 1.0508-2.1758 0.35938-1.0156 0.19141-1.0195-0.070313-0.52344-1.1016-1.5781 0.21484-1.5898-0.058594-1.0625 0.33594-0.80078 1.1211-1.6641 1.0156-1.1719 1.0312-0.78906 0.80078-1.4688-0.98047-2.2695-0.83984-1.375-0.52344-1.3516-0.57422-1.6641-0.42969-1.6016 0.23828-1.4922-0.73047-0.62109-1.2305-1.0898-0.58594-3.0234 0.10938-1.0039 0.30859-1.7812 0.78906-1.8516 0.68359-1.1367 0.30859-1.4922-0.023437-2.2148 0.35938-1.6484-0.14453-1.3398 0.13281-1.5898 1.1094-1.8164 0.93359-1.0859 0.21484-1.6797-0.09375-1.1172-0.17969-1.1836-0.22656-2.5352-1.5312-2.2461-0.64453-2.332-0.20312-1.7227 0.21484-1.8281 0.59766-0.98047 0.39453-2.0195 0.33203-1.1484 0.10938-1.5742-0.37109-1.9727-0.38281-2.1172-0.34375-2.0547-0.20703-1.2344 0.039063-1.7656 0.65625-0.94531 0.62109-1.6367 0.82422-2.1172 0.26562-1.4961-0.5625-1.3008-1.1719-2.2969-0.14453-1.4336-0.082031-1.3281 0.41797-2.4023 0.058594-2.4258-0.65625-1.3867-0.20312-1.5391 0.10547-1.1992 0.37109-0.91797 0.76562-1.5312 0.46094-1.0312 0.37109-1.9023 0.21094-1.7109 0.039063-1.4883-0.28125-2.207 0.21094-2.8242 0.80469-1.6484 0.058594-2.2734 1.0898-1.6953-0.046875-2.0312-0.67188-1.125-0.65625-2.2461-0.64453-1.0664 0.046875-3.2031 0.21484-2.293-0.57422-2.7852-0.59766-3.4922 0.96875-2.4258 0.58594-2.1875-1.2422-1.0742-0.31641-1.2031-0.33984-1.1172-0.054688-1.2617 0.035157-1.5547 0.38281-1.1875 0.54297-0.89453 0.49219-0.96094 0.27734-0.91797-0.39844-0.98828-0.75-1.332-0.43359-1.1328-0.21094-1.4102-0.007812-1.5352 0.38281-1 0.35156-1.3633 1.0977-0.82422 0.62109-1.293 0.45312-1.6367 1.1602-0.89844 0.49219-0.88281 0.55859-1.1836 0.75391-2.043 2.668-0.68359 0.77734-1.3867 1.6016-0.59766 0.96875-0.70312 2.1758-0.70703 0.73828-1.3242 0.68359-1.7461 0.058594-0.87109 0.5625-1.125 0.29688-1.7578 0.68359 0.50391-1.2773 0.39453-1.8281-0.046875-1.1992-0.36719-1.6406-0.47656-1.8906-1.2344-3.1641-0.24219-1.5234 0.10547-1.082 0.61328-1.4492 0.80859-1.0742 1.4102-2.3164 0.78516-1.4727 0.20312-1.0312-0.37891-2.8594-0.69922-1.8477-0.16797-1.4922-0.62109-1.4883-0.53906-2.5586-0.3125-0.97266-0.46484-1.8789-0.55469-0.98047-0.62109-2.0352-0.36328-1.6836-0.35156-1.2969-1.2852-2.6211-0.79297-1.2188-0.64453-2.1602-1.0156-2.125-0.82422-1.5781-0.65625-1.3047-0.33984-1.2656-0.94922-2.3398-0.57031-1.9453-1.043-1.9648-0.375-1.3828-0.44531-1.1016-0.82812-1.7656 1.1758-0.58594 0.035157-1.375 1.1602 0.10938 2.2227-0.41797 1.6328 0.3125 0.91406 0.47656 1.0039 0.72656 1.3984 0.46875 1.3633-0.097656 1.0508-0.33594 0.83594-0.65625 1.1133 0.16797 3.3828-0.046875 1.2305-0.25391 1.1211-0.55859 2.4648 0.058594 1.2422-0.10938 2.0703 0.39453 1.3477-0.023438 0.66016-0.95703 1.3125 0.57422 0.92188 0.98047 0.78906 1.1836 1.3516 0.046875 0.83594-0.72656 1.2188-0.50391 0.90625 0.73047 0.027344 1.2422 0.83594 0.64453 1.0625 0.074219 1.7344-0.8125 0.94531-0.34766 1.0273-0.22656 1.3984 0.058594 0.85938 1.0273 0.89844 0.8125 0.98047 0.32422 1.6484 0.96875 1.7812-0.15625 2.1016-0.51172 1.4258-0.37109 0.93359-0.72266 0.47656-1.0117 0.89453-1.7578 0.34766-1.5039 0.51172-1.4141 1.0312-1.8633 0.21484-1.1836 0.09375-1.9258 0.10938-1.1211 0.15234-1.1133 0.10938-1.457 0.44141-1.543 0.035156-2.5469 0.015625-2.875-0.12891-2.375 1.0508-1.1836 1.0859-0.64453 1.4102-1.5352 0.49219-1.0742-0.085937-1.1133 0.10156-1.4219 1.0859-0.6875 1.1133 0.30859 1.0547-0.097656 0.80859-1.043 0.9375-1.4492 0.62891-0.9375 0.39844-1.0312 1.1836-0.5625 0.85938-1.5039 0.37891-1.957-0.375-1.6836-0.10938-1.125-0.054688-1.4062 0.011719-1.668 0.28906-1.6875 0.21094-1.2266 1.1797-0.95703 1.3906 0.89062 1.1406 1.1172 1.6484 0.94531 2.0039 1.0234 1.6797 0.21484 1.9531-0.875 1.0469-0.32812 1.0781 0.48438 1.3203 1.4453 0.55469 1.543 0.82422 0.61719 1.7227-0.14062 1.043-0.23438 1.625-0.066406 1.9062 1.457 1.3047 0.67578 0.91797 2.1094 0.60547 1.1211 1.4336 0.98828 0.55859 0.83203 0.60156 1.0625 1.4062 0.90234 1.668-0.12891 1.0469-0.53125 1.1758-1.5195 1.125-0.35938 1.7031 0.38672 1.168 1.0547 0.55469 0.95312 1.0156 0.089844 1.4062-0.69141 1.0195-0.875 1.4648-1.332 0.70312-0.99219 1.1328-1.2344 0.55078-1.9648 0.32031-2.6133 0.40625-2.1445 1.0781-2.6992 1.043-1.8828 0.73828-2.2695 0.43359-3.1094 0.21484-1.168 0.042968-1.3281-0.18359-1.6914-0.30469-1.4688 0.20312-1.918 0.96094-1.0156 3.4688 1.2891 1.0898 1.1523 1.3633 0.71094 1.0156-0.33594 0.89453-1.2969 1.8359 0.44531 0.95312 0.33984 1.6719-0.30859 3.0039-2.5391 2.0352-3.418-0.21875-1.2383-0.32031-0.96875-1.7539-5.375-1.0234-3.1211 0.097656 0.066406" fill="none" stroke="#fff" stroke-linecap="round" stroke-linejoin="round" stroke-miterlimit="10"/>
<path d="m161.11 28.086c0 3.5898-2.9102 6.5-6.5 6.5s-6.5-2.9102-6.5-6.5c0-3.5898 2.9102-6.5 6.5-6.5s6.5 2.9102 6.5 6.5" fill="#28c028" fill-rule="evenodd" stroke="#000" stroke-linecap="round" stroke-linejoin="round" stroke-miterlimit="10"/>
<path d="m12.262 16.039v-2.7812h7.1719v6.5625c-0.69922 0.66797-1.7109 1.2617-3.0312 1.7812-1.3242 0.50781-2.6641 0.76562-4.0156 0.76562-1.7188 0-3.2188-0.35938-4.5-1.0781-1.2812-0.72656-2.2461-1.7656-2.8906-3.1094-0.64844-1.3438-0.96875-2.8008-0.96875-4.375 0-1.7188 0.35938-3.2422 1.0781-4.5781 0.71875-1.332 1.7695-2.3516 3.1562-3.0625 1.0625-0.55078 2.3789-0.82812 3.9531-0.82812 2.0391 0 3.6328 0.43359 4.7812 1.2969 1.1562 0.85547 1.8945 2.0391 2.2188 3.5469l-3.2969 0.625c-0.23047-0.8125-0.66797-1.4531-1.3125-1.9219-0.63672-0.46875-1.4336-0.70312-2.3906-0.70312-1.4609 0-2.6172 0.46484-3.4688 1.3906-0.85547 0.91797-1.2812 2.2812-1.2812 4.0938 0 1.9609 0.42969 3.4297 1.2969 4.4062 0.86328 0.96875 2.0039 1.4531 3.4219 1.4531 0.6875 0 1.3789-0.13281 2.0781-0.40625 0.70703-0.26953 1.3125-0.60156 1.8125-1v-2.0781zm10.219-10.422h3.3125v8.9219c0 1.418 0.039062 2.3359 0.125 2.75 0.14453 0.67969 0.48438 1.2188 1.0156 1.625 0.53906 0.40625 1.2734 0.60938 2.2031 0.60938 0.9375 0 1.6445-0.19141 2.125-0.57812 0.47656-0.38281 0.76562-0.85938 0.85938-1.4219 0.10156-0.5625 0.15625-1.4922 0.15625-2.7969v-9.1094h3.3281v8.6562c0 1.9688-0.09375 3.3672-0.28125 4.1875-0.17969 0.8125-0.50781 1.5-0.98438 2.0625-0.48047 0.5625-1.125 1.0117-1.9375 1.3438-0.8125 0.33203-1.8711 0.5-3.1719 0.5-1.5742 0-2.7656-0.18359-3.5781-0.54688-0.8125-0.36328-1.4531-0.83203-1.9219-1.4062-0.46875-0.58203-0.77734-1.1914-0.92188-1.8281-0.21875-0.94531-0.32812-2.3438-0.32812-4.1875zm31.469 16.469h-3.6094l-1.4375-3.7344h-6.5781l-1.3594 3.7344h-3.5312l6.4062-16.469h3.5156zm-6.1094-6.5156-2.2812-6.1094-2.2188 6.1094zm7.8594-9.9531h6.0781c1.375 0 2.4219 0.10547 3.1406 0.3125 0.95703 0.29297 1.7812 0.80469 2.4688 1.5312 0.69531 0.71875 1.2227 1.6055 1.5781 2.6562 0.36328 1.0547 0.54688 2.3516 0.54688 3.8906 0 1.3555-0.17188 2.5234-0.51562 3.5-0.40625 1.1992-0.99219 2.1719-1.75 2.9219-0.58594 0.5625-1.3672 1-2.3438 1.3125-0.73047 0.23047-1.7109 0.34375-2.9375 0.34375h-6.2656zm3.3281 2.7969v10.891h2.4844c0.92578 0 1.5977-0.050782 2.0156-0.15625 0.53125-0.13281 0.97266-0.35938 1.3281-0.67188 0.36328-0.32031 0.65625-0.85156 0.875-1.5938 0.22656-0.73828 0.34375-1.7422 0.34375-3.0156 0-1.2695-0.11719-2.2422-0.34375-2.9219-0.21875-0.6875-0.53125-1.2188-0.9375-1.5938-0.40625-0.38281-0.92188-0.64453-1.5469-0.78125-0.46094-0.10156-1.3672-0.15625-2.7188-0.15625zm28.141 13.672h-3.6094l-1.4375-3.7344h-6.5781l-1.3594 3.7344h-3.5312l6.4062-16.469h3.5156zm-6.1094-6.5156-2.2812-6.1094-2.2188 6.1094zm7.9688 6.5156v-16.328h3.3281v13.547h8.2656v2.7812zm13.938-16.469h3.3125v8.9219c0 1.418 0.039062 2.3359 0.125 2.75 0.14453 0.67969 0.48438 1.2188 1.0156 1.625 0.53906 0.40625 1.2734 0.60938 2.2031 0.60938 0.9375 0 1.6445-0.19141 2.125-0.57812 0.47656-0.38281 0.76562-0.85938 0.85938-1.4219 0.10156-0.5625 0.15625-1.4922 0.15625-2.7969v-9.1094h3.3281v8.6562c0 1.9688-0.09375 3.3672-0.28125 4.1875-0.17969 0.8125-0.50781 1.5-0.98438 2.0625-0.48047 0.5625-1.125 1.0117-1.9375 1.3438-0.8125 0.33203-1.8711 0.5-3.1719 0.5-1.5742 0-2.7656-0.18359-3.5781-0.54688-0.8125-0.36328-1.4531-0.83203-1.9219-1.4062-0.46875-0.58203-0.77734-1.1914-0.92188-1.8281-0.21875-0.94531-0.32812-2.3438-0.32812-4.1875zm16.625 16.469v-16.469h5.3438c2.0195 0 3.3359 0.085937 3.9531 0.25 0.9375 0.25 1.7227 0.79297 2.3594 1.625 0.63281 0.82422 0.95312 1.8867 0.95312 3.1875 0 1.0117-0.18359 1.8672-0.54688 2.5625-0.36719 0.6875-0.83594 1.2305-1.4062 1.625-0.5625 0.38672-1.1367 0.64062-1.7188 0.76562-0.79297 0.16797-1.9375 0.25-3.4375 0.25h-2.1719v6.2031zm3.3281-13.672v4.6719h1.8125c1.3125 0 2.1875-0.085938 2.625-0.26562 0.44531-0.17578 0.79688-0.44531 1.0469-0.8125 0.25-0.36328 0.375-0.78906 0.375-1.2812 0-0.59375-0.17969-1.082-0.53125-1.4688-0.35547-0.39453-0.79688-0.64062-1.3281-0.73438-0.39844-0.070313-1.1953-0.10938-2.3906-0.10938zm12.016 13.672v-16.469h12.203v2.7969h-8.875v3.6406h8.2656v2.7812h-8.2656v4.4688h9.2031v2.7812zm0 0" fill="none" stroke="#fff" stroke-linecap="round" stroke-linejoin="round" stroke-miterlimit="10" stroke-width="2"/>
<path d="m12.262 16.039v-2.7812h7.1719v6.5625c-0.69922 0.66797-1.7109 1.2617-3.0312 1.7812-1.3242 0.50781-2.6641 0.76562-4.0156 0.76562-1.7188 0-3.2188-0.35938-4.5-1.0781-1.2812-0.72656-2.2461-1.7656-2.8906-3.1094-0.64844-1.3438-0.96875-2.8008-0.96875-4.375 0-1.7188 0.35938-3.2422 1.0781-4.5781 0.71875-1.332 1.7695-2.3516 3.1562-3.0625 1.0625-0.55078 2.3789-0.82812 3.9531-0.82812 2.0391 0 3.6328 0.43359 4.7812 1.2969 1.1562 0.85547 1.8945 2.0391 2.2188 3.5469l-3.2969 0.625c-0.23047-0.8125-0.66797-1.4531-1.3125-1.9219-0.63672-0.46875-1.4336-0.70312-2.3906-0.70312-1.4609 0-2.6172 0.46484-3.4688 1.3906-0.85547 0.91797-1.2812 2.2812-1.2812 4.0938 0 1.9609 0.42969 3.4297 1.2969 4.4062 0.86328 0.96875 2.0039 1.4531 3.4219 1.4531 0.6875 0 1.3789-0.13281 2.0781-0.40625 0.70703-0.26953 1.3125-0.60156 1.8125-1v-2.0781zm10.219-10.422h3.3125v8.9219c0 1.418 0.039062 2.3359 0.125 2.75 0.14453 0.67969 0.48438 1.2188 1.0156 1.625 0.53906 0.40625 1.2734 0.60938 2.2031 0.60938 0.9375 0 1.6445-0.19141 2.125-0.57812 0.47656-0.38281 0.76562-0.85938 0.85938-1.4219 0.10156-0.5625 0.15625-1.4922 0.15625-2.7969v-9.1094h3.3281v8.6562c0 1.9688-0.09375 3.3672-0.28125 4.1875-0.17969 0.8125-0.50781 1.5-0.98438 2.0625-0.48047 0.5625-1.125 1.0117-1.9375 1.3438-0.8125 0.33203-1.8711 0.5-3.1719 0.5-1.5742 0-2.7656-0.18359-3.5781-0.54688-0.8125-0.36328-1.4531-0.83203-1.9219-1.4062-0.46875-0.58203-0.77734-1.1914-0.92188-1.8281-0.21875-0.94531-0.32812-2.3438-0.32812-4.1875zm31.469 16.469h-3.6094l-1.4375-3.7344h-6.5781l-1.3594 3.7344h-3.5312l6.4062-16.469h3.5156zm-6.1094-6.5156-2.2812-6.1094-2.2188 6.1094zm7.8594-9.9531h6.0781c1.375 0 2.4219 0.10547 3.1406 0.3125 0.95703 0.29297 1.7812 0.80469 2.4688 1.5312 0.69531 0.71875 1.2227 1.6055 1.5781 2.6562 0.36328 1.0547 0.54688 2.3516 0.54688 3.8906 0 1.3555-0.17188 2.5234-0.51562 3.5-0.40625 1.1992-0.99219 2.1719-1.75 2.9219-0.58594 0.5625-1.3672 1-2.3438 1.3125-0.73047 0.23047-1.7109 0.34375-2.9375 0.34375h-6.2656zm3.3281 2.7969v10.891h2.4844c0.92578 0 1.5977-0.050782 2.0156-0.15625 0.53125-0.13281 0.97266-0.35938 1.3281-0.67188 0.36328-0.32031 0.65625-0.85156 0.875-1.5938 0.22656-0.73828 0.34375-1.7422 0.34375-3.0156 0-1.2695-0.11719-2.2422-0.34375-2.9219-0.21875-0.6875-0.53125-1.2188-0.9375-1.5938-0.40625-0.38281-0.92188-0.64453-1.5469-0.78125-0.46094-0.10156-1.3672-0.15625-2.7188-0.15625zm28.141 13.672h-3.6094l-1.4375-3.7344h-6.5781l-1.3594 3.7344h-3.5312l6.4062-16.469h3.5156zm-6.1094-6.5156-2.2812-6.1094-2.2188 6.1094zm7.9688 6.5156v-16.328h3.3281v13.547h8.2656v2.7812zm13.938-16.469h3.3125v8.9219c0 1.418 0.039062 2.3359 0.125 2.75 0.14453 0.67969 0.48438 1.2188 1.0156 1.625 0.53906 0.40625 1.2734 0.60938 2.2031 0.60938 0.9375 0 1.6445-0.19141 2.125-0.57812 0.47656-0.38281 0.76562-0.85938 0.85938-1.4219 0.10156-0.5625 0.15625-1.4922 0.15625-2.7969v-9.1094h3.3281v8.6562c0 1.9688-0.09375 3.3672-0.28125 4.1875-0.17969 0.8125-0.50781 1.5-0.98438 2.0625-0.48047 0.5625-1.125 1.0117-1.9375 1.3438-0.8125 0.33203-1.8711 0.5-3.1719 0.5-1.5742 0-2.7656-0.18359-3.5781-0.54688-0.8125-0.36328-1.4531-0.83203-1.9219-1.4062-0.46875-0.58203-0.77734-1.1914-0.92188-1.8281-0.21875-0.94531-0.32812-2.3438-0.32812-4.1875zm16.625 16.469v-16.469h5.3438c2.0195 0 3.3359 0.085937 3.9531 0.25 0.9375 0.25 1.7227 0.79297 2.3594 1.625 0.63281 0.82422 0.95312 1.8867 0.95312 3.1875 0 1.0117-0.18359 1.8672-0.54688 2.5625-0.36719 0.6875-0.83594 1.2305-1.4062 1.625-0.5625 0.38672-1.1367 0.64062-1.7188 0.76562-0.79297 0.16797-1.9375 0.25-3.4375 0.25h-2.1719v6.2031zm3.3281-13.672v4.6719h1.8125c1.3125 0 2.1875-0.085938 2.625-0.26562 0.44531-0.17578 0.79688-0.44531 1.0469-0.8125 0.25-0.36328 0.375-0.78906 0.375-1.2812 0-0.59375-0.17969-1.082-0.53125-1.4688-0.35547-0.39453-0.79688-0.64062-1.3281-0.73438-0.39844-0.070313-1.1953-0.10938-2.3906-0.10938zm12.016 13.672v-16.469h12.203v2.7969h-8.875v3.6406h8.2656v2.7812h-8.2656v4.4688h9.2031v2.7812z" fill-rule="evenodd"/>
</g>
</svg>
