<?xml version="1.0" encoding="UTF-8"?>
<svg width="445pt" height="500pt" version="1.1" viewBox="0 0 445 500" xmlns="http://www.w3.org/2000/svg">
<g id="a">
<rect width="445" height="500" fill="none"/>
<path d="m217.39 34.613-0.035156 0.019532-0.56641 1.0977 0.050781 1.2148-0.19141 1.1445 0.52734 0.91016 0.64062 0.88281 0.87109 0.77344 0.13281 1.1172 0.49609 1.0156 0.52344 1.0977-0.058594 1.2266 0.20312 1.1406 0.41406 1 0.46484 1.1758 0.082031 1.0703 0.13281 1.0156-0.125 1.3242 0.88672 0.80469 1.1914-0.32812 1.0312-0.035156 0.46094 0.89453 0.99609 0.45703 0.30078 1.0781 0.015625 1.0391-0.34766 1.0664 0.83594 0.64453 0.6875 0.87109 0.73047 0.69531 0.44922 0.89453 0.55469 1.0508-0.41016 1.0352-0.24219 1.1133-0.49219 1.2266-0.60938 0.87109-0.74219 0.67969 0.67969 0.88672 0.90625 0.65234 0.33203 1.0156 0.16406 1.0508 0.46484 0.96875 0.16406 1.0391 0.48047 0.9375 0.30469 1.0273 0.30469 1.2109 0.41016 1.0625 0.53516 0.84766 0.23828 1.043 0.94141 0.55469 0.53516 0.92969 0.58594 1.3516 0.078125 1.0469-0.30078 0.99219-0.64453 0.82812 0.65234 0.76172 0.65625 0.83203-0.22656 1.0625 0.72266 0.85547 0.30469 1.1016 0.71094 0.72656 1.1875-0.18359 1.082 0.066406 0.54688 0.875 0.53516 0.94141 0.40625 1 0.64844 0.83594 0.125 1.1992 0.30078 1.0078 0.46484 0.97656 0.25391 0.98438 0.19141 0.99609 0.054687 1.0703-0.019531 1.0273 0.19531 0.98828 0.015625 1.1328 0.10547 1.0039 0.54688 1.0078-0.066406 1.0234 0.67578 1.1172 0.17188 1.0977 0.29688 0.99609-0.23438 0.99609 0.17188 1.082 0.078125 1.0508 0.3125 1.043 0.28516 1.0664-0.76953 1.0898-0.67578 1.0586-0.875 0.49219-0.36328 1.1367 0.5625 0.93359-0.11719 1.0391-0.21484 1.0625 0.17188 1.293 1.1328 0.027344 1.082 0.55469 0.83984 0.57422 1.0195 0.38672 0.83594 0.60156 1.1172 0.37109 0.90625 0.51172 1.3672 1.6094 0.24219 1.168 0.95312 1.2188 0.53516 1.0625 1.0508 1.4766 0.96875 0.80469 0.83203 0.69531 1.0938 1.0195 0.12891 1.1133 0.10938 1.0938-0.5 0.98047-1.0352 0.49219-1.0391 0.28516-1.1953 0.40234-0.48438 0.99219 0.76562 0.73047 0.40234 1.0039 0.50781 0.88672 0.39453 0.94141 0.11328 1.0391 0.058594 1.0469 0.26172 0.99609-0.42969 0.92578 0.12109 1.1367 0.82812 0.5625 0.73438 0.82031 0.43359 0.90234 0.085938 1.3047-0.28906 1.2891-0.050781 1.0352 0.85938 1.2695 0.41797 0.92188 0.33984 1 0.15234 1.1016-0.26953 1.1445-0.98047 0.30469 0.49609 1.0039 0.63281 0.90625 0.79688 0.68359 0.9375 0.36328 1.0391 0.074219 1.3789 0.71875-0.92188 0.51562-0.92188 0.83984-0.39062 0.92578-0.78125 0.85938v1.0273l0.71875 0.82812 0.37891 0.92969 0.73438 0.73828 0.5 0.89062-0.1875 1.0625 0.69141 0.74609 0.39062 1.0898 0.48828 0.93359 0.54297 0.91797 1.2461 0.55469 1.0781-0.042969 1.0508-0.19141 0.41406 0.92578 0.83984 0.54688 0.17578 1.0781 0.17188 1.0625 0.054688 1.0938 0.84766 0.66797 0.26172 1.0195 0.71094 0.72266 0.59375 0.81641 0.44922 0.95703-0.09375 1.0508-1.2266 1.1367 0.39844 0.92188 0.53125 1.0312 0.88672 1.8008 0.57812 0.94922 0.84766 0.62109 1.207-0.11328 1.0156-0.19141 0.10547 1.2617 0.15234 1.1562 0.28125 0.98828 0.27344 0.99609 0.12891 1.0391-1.0391 0.57812-0.49609 0.87109 0.38672 0.94531 0.37109 0.98438 0.62891 0.875 0.71094 0.78125 0.92969 0.91016 0.14062 1.0625 1.043 0.12891 0.92578 0.41016 0.09375 1.1094 0.015625 1.0078 0.30078 1.0078 0.98828 0.24219 1.0156-0.28125 0.98438 0.22656 0.55859 0.86719 0.74609 0.76953 0.24609 1.0039 0.74609 0.67188 1.0234-0.015625 0.75 0.66797 0.52344 0.88281-0.027344 1.0352 0.13672 1.0586 0.45312 0.99219 0.94531-0.52344 0.99609 0.1875 0.71484-0.72656 0.96484-0.38281 0.66406-1.1328 0.40625-0.97266 0.87109-0.62891 1.1172 0.27344 1.1133-0.11328 1.1133-0.21484 1 0.17969 0.67578-0.95312 0.30859-1.0859 0.78906 0.63281 0.79688 0.67188 0.69531 0.78125 0.78516 0.69531 0.95703 0.33984 0.30469 1.0352 0.69141 1.1367 1.1211 0.003906 0.91406 0.875-0.035156 1.1719 0.35938 0.96484 0.82031 0.58984-0.75781 0.74219-0.83984 0.69922-0.98828 0.50391-0.39062 0.92969 0.76953 0.77344 0.60938 0.80078 0.35547 0.9375-0.57812 0.85547-0.85156 0.65234-0.66797 0.85938-0.45312 0.98828 0.53125 1.0586 1.0156 0.3125-0.32812 1 0.29688 0.97656-0.20703 1.0742-0.96875 0.42969-0.6875 0.73438-0.16406 0.99219 0.59766 0.89844 0.074219 0.99609 0.22656 1-0.14844 1.0156 0.38281 0.97656 0.48047 0.87891 1.0234-0.074219 0.95312 0.33594 0.62109 0.97266 0.96484 0.73828 0.47266 0.91797-0.0625 1.0781 0.75 0.76172 0.67969 0.80469 0.85156 0.70312 0.74609 0.8125 1.0312 0.17969 0.6875-0.74219 0.96484 0.35938 0.41797 0.94141 0.27734 1.0156 1.0234 0.375 0.71484 0.75 0.74219 0.77344 0.55469 0.85547 0.57422 0.91406 0.47656 0.97266 0.49609 0.92578 0.42578 1.0039 0.82031 0.75 0.26172 1.0234 0.52734 0.99609 0.73828 0.87109 0.68359 0.96094 1.0078 0.44531 0.60156 0.86719 1.0898 0.82031 0.91797 0.59766 0.77734 0.75391 0.42578 0.91016 0.62891 0.81641-0.089844 1.1992 0.1875 1.0234-0.49609 0.91797-0.70312 0.84766 0.26172 1.0195 0.32422 1.0273-0.14844 1.0195 0.48047 0.90625-0.050781 1.0234 0.98047 0.50781 0.81641 0.82422 0.42969 0.98828 0.84766 0.71484 1.0039 0.75781 0.76172 0.65234 0.73438 0.70312 0.64453 0.8125 1.0078 0.22266 1.1055-0.003906 0.97266 0.5625 0.44141 1.0391 0.84375-0.66797 0.94141-0.375 0.89453-0.57812 1.0117-0.074218 0.86719 0.70312 0.94141-0.39844 1.0039 0.074219 0.59766 0.80859 1.043 0.20703 1.2773-0.63672 1.0352-0.60938 1.2539-0.125 1.0977 0.38672 0.92188 0.89453 0.62891 0.93359 0.90234-0.55469 0.98828-0.28125 1.2383 0.046875 1.0469 0.65234 0.89453 0.52344 1.0156 0.03125 1.125 0.46875 0.82422 0.59375 1.1719 0.21875 0.97656-0.27734 0.6875 1.0469 0.5 1.0078 0.58594 0.94922 0.96484-0.35547 0.34766-0.94141 0.85938-0.55078 0.59375 0.96094 0.85938 0.75 0.89062 0.76953 0.69531 0.76172 1.0352 0.5 0.95703 0.37109 0.62109 0.78906 0.80469 0.61719 0.70312 0.86719 1.0586 0.70703 1.0391-0.015625 1.0469-0.16797 0.96484-0.36719 0.67578-0.87109 0.58203-0.91016 0.058594-1.0117 1.3203 0.62891 1.0234 0.41406 1.0586-0.019532 0.89844 0.59375 1.0469-0.1875 0.94922 0.42188 0.95312-0.35938 1.4062 0.24609 0.66406 0.80469 1.0117 0.49609 0.79688 0.65234-0.31641 1.0312-1.1367 0.50781-0.47656 0.9375-0.39062 1.125 1.0352 0.17578 1.0195 0.33203 0.96484 0.51953 1.0352 0.55859 0.95312 0.78516 0.36719 0.94922 0.82812 0.62891 0.94531 0.5 0.83203 0.68359 0.19531 1.1289 0.73047 0.95312 0.81641 0.77344 0.28125 1.043-0.27734 1-1.0391 0.73438-1.0078 0.35938-0.59375 1.418-0.64453 0.84766 0.039063 1.0195-0.39062 0.95703-1.0117-0.058594-0.22656 0.99609-0.35156 1.0117-0.57031 0.94141 0.89844 1.0312 0.77344 0.86328 0.25 1.0586 0.65625 0.97656 0.54297 0.92969 0.41797 1.0039 0.79688 0.89062 0.66406 0.91797 0.60156 0.86719 0.74219 0.73828 0.83984 0.5625 0.74219 0.70312-0.054688 1.0508 0.80078 0.61719 0.71875 0.69531 0.51172 0.92969 0.55859 0.92578 0.69531 0.75781 0.41797 1.0352 0.72656 0.70312-0.066407 1.0078-0.375 0.96484-0.10938 0.99609 0.48438 1 0.73828 0.80469 1.0586 0.24609 1.0859 0.14062 0.84375 0.5625 0.69141 1.0938 0.54688 1.2031 0.49609 0.95312 0.27344 1.0352 0.79297 0.63281-0.023437 1.0273-0.22266 1.0195-0.65234 0.94141-0.66797 0.88672-0.20312 0.99609 0.10156 1.0156 0.019532 1.1523 0.19141 1.1172-0.24609 1.1211 0.42578 1.168 0.30078 0.96875-0.11719 1.0039-0.10547 1.1719 0.082032 1.0195 0.125 0.99609 0.28125 1.1055 0.61328 0.89062 0.35938 1.0469 0.44141 0.95703 0.30078 0.98828 0.25 1.1133 0.18359 1.2031 0.42578 0.99609 0.34375 1.293-0.46875 0.92969-0.9375 0.35156-0.16797 1.0547-0.49219 1.0078-0.47266 0.91797-1.0039 0.20312-1.4062 1.3281-0.035157 1.043-0.84766 0.82031 0.59766 0.95312 0.15625 1.0469-0.49609 0.87891-0.375 1.2148-0.89844 0.50781-0.19922 1.25-0.058593 1.3164-0.28125 1.3789-0.22656 1.0664 0.40234 1.418-0.019531 1.0586 0.26562 1.0195 0.058593 1.0977 0.47266 1.2852 1.0195 0.47266 1.1523 0.19531 0.61719 0.83984-0.60938 0.89062 0.80859 0.67969 0.89062 0.63281-0.34766 1.1289-0.1875 1.5469 0.23438 1.0586-1.2148 0.55859-1.3789 0.33984-0.81641 0.71094 0.12109 1.1797 0.69531 0.85938 0.82812 0.64453 1.0742 0.58203 0.76172 0.93359 0.75391 0.91797 0.85156 0.80859 1.1914 0.64453 0.77734 0.84375 1.0391 0.77734 0.91016 0.41406 0.70703 1.043 1.0391 0.30078-0.03125 1.1484-0.64453 1.0078-1.0977-0.011719-0.33984 1.3398-0.070312 1.3672-0.60547 1.3359-0.51953 1.1055-1.0898 0.11719-0.80859-0.61719-0.53516 0.86719-1.1836 0.027344-0.72266-0.77344-0.98047 0.26172 0.074219 1.0742-0.42969 1.0898-0.68359 1.3477-0.90625 0.75781-1.0977 0.42969-1.0547 0.60938-0.99609 0.14844-1.1875 0.78906-1.1055-0.074219-0.99219 0.44531-0.058594 1.1328-0.48438 1.5742-0.8125 1.9922-0.91797 1.2969-0.60938 1.0859-0.070312 1.0859-0.76172 0.67578 0.26562 1.0273 0.56641 0.86328 0.4375 1.1016 0.53516 1.2148 0.98047 0.45703-0.44141 1.0547 0.83203 1.043 0.34766 1.2891-0.88281 0.71094-1.1484-0.074219-0.91406 0.62891-0.91797 0.50781 0.48828 1.0625-0.10547 1.1211-0.91016 0.44531-1.2109 0.46094-0.97656 0.3125-1.1055-0.023437-1.0156 0.4375-0.29688 0.98438 0.54688 1.207-0.03125 1.0703-0.75781 1-1.1172 0.33203-1.2188 0.070312-0.58594 0.91016-0.75 0.82812-1.1484 0.14062-1.1797 0.5-1.1992-0.1875-1.0352 0.03125-1.0703-0.34375-1.0742-0.63281-1.0352-0.76172-1.0781-0.44531-0.89453 0.46875-1.1172-0.63672-0.51953-0.88281-1.1641 1.2578-0.33594 0.97656-0.39062 1.0625-1.4141 0.86719-1.082 0.95312-0.72656 0.92969-0.80859 0.60547-1.1133-0.53906-0.76562-0.75781-1.0898 0.30469-0.60938-0.95312-0.20312-1.7383-0.46484-1.0664-1.293-0.25-1.125 0.28516-1.1641 0.69922-1.3281-0.15625-1.0195-0.74609-0.99609-0.38672-1.1445-0.69531-0.63672-0.92969-1.0195-0.37109-1.0664-0.22266-1.3125-0.042969-1.1055-0.67578-1.1992-0.28906-0.70703-0.73438-1.1914-0.39844-1.125-0.73828-0.86328-0.60938h-1.1133l-0.83984 0.58984-1.0859 0.36328-1.1016 0.54297-0.21875 1.0195 0.27344 1.1133-0.066407 1.2969-0.79688 1.0781-0.33203 0.97656-0.13672 1.1055-0.83203 0.67969-0.99219 0.78125-0.89062 0.6875-0.76953 0.72266-0.69531 0.86328-0.78516 0.75391-0.69531 0.72656-0.64844 1.0195-0.68359 0.94141-1 0.41406-0.55469 0.96484-0.87109 0.69531-0.99609 0.49219-1.0234 0.55859-0.73438 0.71484-0.82422 0.81641-0.97266 0.62109-0.88672 0.58984-0.97656 0.44922-0.86328 0.55078-0.80078 0.67578-0.77344 0.75-0.83203 0.66016-1.0586 0.86719-0.83203 0.65234-0.63672 1.0469-0.95312 0.44922-0.90625 0.84766-0.76953 0.74219-0.80469 0.64844-0.71484 0.71484-1.1914 0.30469-1.1172 0.375-0.84766 0.85547-0.89844 0.44141-0.73047 0.8125-0.14453 1.0469-0.28906 0.96094-0.42188 1.2852 0.042968 1.0508-0.46484 1.1719-0.73828 0.90234-0.42969 1.1406-0.65625 1.0469-0.75 0.67578-0.64453 0.82422-0.59766 1.0898-0.27344 1.25-0.48438 1.043-0.40234 1.0703-0.55859 1.3516-0.74219 1.4727-0.84766 1.0039-0.96875 0.29688-0.93359 0.5-1.1602 0.44141-1.0078 0.27344-1.0156 0.54297-0.71875 0.73047-0.80469-0.72656-0.73828-1.0742-0.64844-0.92578-0.74609-0.89453-0.75391-0.92188-0.71484-0.75391-0.75-0.89062-0.71875-1.0508-0.65234-0.83203-0.71484-0.73438-0.71875-0.83203-0.85547-0.86719-0.74609-0.87109-0.82422-0.89844-0.74609-0.77734-0.71875-0.80078-0.66016-0.75781-0.86719-1.0312-0.69922-0.86719-0.73828-0.8125-0.64062-0.80078-0.59375-0.80859-0.64062-0.82422-0.84375-0.85156-0.77344-0.80859-0.58984-1.0234-0.32031-1.0156-0.70312-0.99219-0.85156-0.9375-0.65625-0.77734-1.0195-1.0859-0.82031-0.80859-0.76953-0.71875-0.36719-1.0117-0.55859-0.94922-0.74219-0.76172-0.93359-1.1523-0.69141-0.78125-0.77734-0.82812-0.67578-0.85547-0.83594-0.99219-0.8125-0.95703-0.85938-0.96875-0.78516-0.80859-1-1.043-0.71094-0.73047-1.0977-1.2188-0.78516-0.76953-0.82031-0.78906-0.96484-0.92578-1.1367-1.1719-0.71484-0.79688-0.70703-0.84766-0.41797-0.9375 1.0039-0.28516 0.33594-0.95703-0.28125-1.1367-0.58984-0.96875-0.51172-0.88672-0.41797-0.92188-0.52344-0.90234-0.70703-0.71875-0.67188-0.76953-0.35156-1 0.058593-1.0273-0.69922-0.77734-0.40625-0.92578-0.58984-0.82422 0.78906-0.66406 0.79688-0.64062-0.16797-1.043 0.14453-1.0156 0.046875-1.0039-0.046875-1.0625-0.35156-0.95703-0.11719-1.0156-0.52734-0.875 0.33984-1.0312-0.46484-0.9375-0.23047-0.98438v-1.0117l-0.19531-1.0156-0.058594-1 0.19531-0.99609-0.34375-1.0234-0.35938-0.98438-0.69531-0.73047-0.70703-0.70312-0.77734-0.64062-0.77734-0.67969-0.86719-0.51172-0.875-0.60156-0.91406-0.44922-0.94531-0.44141-0.17578-1.0117-0.23828-1.0156-0.73047-0.70312-0.86328-0.58984-0.87891-0.60547-0.92188-0.57812-0.85547-0.64453-0.82422-0.59375-0.84375-0.60156-0.94141-0.41016-0.89453-0.44922-0.19531-0.99219-0.67188-0.875-0.5-0.91016-0.70312-0.75781-0.76172-0.67969-0.77734-0.70703-0.97656-0.26172 0.41016-0.95312 0.14844-1 0.62109-0.78906 0.089844-1.0586-0.41406-0.91016-0.69531-0.78516-0.73828-0.73047-0.83594-0.67188-0.80469-0.60547-0.74219-0.6875 0.30469-0.95703-0.35547-0.94141-0.80469-0.65625-0.097656-0.99219-0.73047-0.75391-0.76172-0.68359-0.011719-1.0195-0.47656-0.88281 0.64844-0.77344 0.097656-1.0234-0.18359-1-0.27734-0.96875-0.56641-0.82422-0.75-0.67188-0.76562-0.70703-0.18359-1.0039-0.80078-0.71094-0.78516-0.62109-0.66797-0.75391-0.94141-0.48828 0.31641-0.98047-0.12891-1.0312-0.59375-0.91016-0.75781-0.69141-0.84766-0.83594-0.90625-0.56641-0.57812-0.8125-0.97266-0.38672-0.38281-0.97266-0.5625-0.90234-0.89062-0.66406-0.89062-0.61328-0.92188-0.5-0.86719-0.52734-0.88672-0.49609-0.88281-0.48047-0.96094-0.45312-0.92969-0.41016-0.52344-0.97266-0.59375-0.97656 0.10547-1.0352 1.0195-0.39062 1.168-0.43359 0.72656-0.83203 0.33203-1.1875 0.69531-0.77734 1.1836-0.46094 0.51562-1.1953 0.39844-0.95703-0.35938-1.4414-0.50391-1.7266 0.40234-1.5586 0.25391-0.98438-0.25-1.4414-0.27734-1.6211-0.042969-1.3359 1.0898-0.82812 1.2539 0.21484 1.0781-0.10156 1.0156-0.14062 1.0469-0.10547 0.98047-0.49219 0.94531-0.55078 1-0.49609 0.91797-0.58203 1.0898 0.16797 1.0352-0.17969 1.168-0.45312 0.80859-0.82031 0.37891-1.0664 0.66016-0.91406-1.1367-0.64844-0.77344-0.73438-0.25781-1.2617 0.41016-0.96484 0.11328-1.2227 0.28906-1.0781 0.40234-0.94531 0.96875-0.51953 0.57031-0.875 0.82812-0.60547 0.91016-0.62891 0.19531-1.0508 0.054688-1.0234 0.20703-1.0039 0.96094-0.33594 0.94141-0.50391 0.92969-1.2383 0.36719-1.1797 0.54688-1.1328 0.42188-1.0273 0.050781-1.043 0.625-1.1367 0.066406-1.2617-0.12109-1.1094-1.1992-0.61719-1.0273-0.27734-0.69922-0.85547-0.91406-0.48438-0.58984-0.92188-0.26172-1.1875-0.30859-1.0195-0.78906-1.2422-0.55078-0.875 0.085937-1.0078-1.1836-0.046875-0.91797-0.51172-0.76172-0.96484-0.82422-0.72266-0.53516-0.94922-0.49219-1.2656-0.19531-1.0469 0.82031-0.70703 0.84766-0.58984-0.83203-0.74609-0.98047-0.72656-0.58594-0.82812-1.0664-0.52734-1.0742-0.10938-0.87891-0.82422-0.35547-1.0703 0.57031-1.3047 0.85938-0.75 1.0234-0.55859 1.207 0.3125 1.25-0.30078 0.86328-0.66016 0.62891-0.86328 0.39453-0.92578-0.042969-1.1602-0.38672-1.2461-0.63281-1.0547-0.91016-0.66406-0.87891-0.80078-0.78125-0.82422-0.76172-0.67969-1.0547-0.16797-0.32031-0.99219-0.11719-1.2617-0.54297-1.1484-0.95312-1.0898 0.082031-1.418 0.99219-0.35938 0.97656-0.32812 0.8125-0.66016 1.1914-0.03125 1.1562 0.40234 1.0078-0.16797 0.71484-0.71484 0.94922-0.53516 1.1992-0.19141 0.89453-0.48438 0.67578-0.86719 0.91406-0.58984 0.23828-1.1289-0.007812-1.0195-0.71875-0.98828-1.2656-1.3242-0.97656-0.87891-0.92188-0.60547 0.14453-1.0156-0.64453-0.86719-0.85938-0.55078-0.74219-1-0.96875-0.71094-0.64453-0.86719-0.45312-0.90234-1.1953-0.55859-1.0156 0.14844-0.79688-0.65234-1.0117-0.78906-0.6875-0.75-0.98438 0.39062-0.55469 0.97266-0.64062 0.82812-0.95312 0.39844-1.1328 0.31641-0.85938 0.83594-1.0898 0.59375-0.86719 0.58594-0.75781 0.67188-0.98047 0.33594-1.0078 0.65234-0.78516 1.0156-0.89062 0.58203-1.1602-0.10938-1.1719-0.066406-1.1367-0.17969-1.0703 0.84375-0.48828 1.0508-0.41016 0.98047-1.1328-0.074218-1.2344-0.82812-0.97656-0.62109-0.95703 0.34766-0.79297 0.88281-1.0391 0.61328-1.3398 0.34766-0.94141 0.42578-1.0742 0.20312-1.2031 0.64062-1.0039-0.125-1.3242-0.21875-0.90625 0.44922-0.98438 0.35938-0.44922-1.4766-0.89844-1.0625-0.24219-1.1289 0.8125-0.71094 1.1953-0.55078 0.21094-1.0469-0.35547-0.97656 0.011719-1.1094 0.27734-1.1445 0.43359-1.2734 0.47266-1.0586 1.2266-0.54688 0.92188-0.74609-0.066406-1.2539 0.36719-0.95703-1.1523-0.39062-1.1953 0.035157-1.0586 0.17969-1.168 0.40234-1.168 0.33984-0.99609-0.23438-0.53906-0.95703-0.22656-1.0234 0.96875-1.4805 0.22266-1.1445-0.24219-1.2031 1.1641-0.0625 1.0664-0.30859 1.125-0.13281 1.1172-0.59375 0.82422-0.69531-0.42969-0.96094-0.17188-1.4102-0.097656-1.082 0.28906-1.0234 1.168-0.35938 1.2656 0.16406 1.0078 0.21875 1.1875-0.14844 1.125 0.33984 1.1133 0.28125 1.2148 0.14453 1.0078-0.35938 0.81641-1.1758 0.63281-0.91406 0.79688-0.63672 1.082-0.40234 1.3125-0.60938 0.78906-0.83984 0.83203-0.94531 0.83984-0.89062-0.58203-1.043-1.1406-0.55859-1.0234-0.19531-1.0352-0.17578-1.0703 0.050781-1.3047 0.14453-1.4258 0.26953-1.2148-0.035157-1.2383-0.28125-1.0508-0.47266-0.49609-0.89062-0.96484-0.56641-1.2031-0.39844-0.99219-0.51172-1.0781 0.050781-1.0117 0.24609-0.92969 0.48047 0.13281 1.3359-0.71875 0.89844-1.0859 0.76562-1.1602 0.46484-0.97266-0.69141-1.1406-0.10938-0.80859-0.68359-0.59766-0.95703-0.72656-0.81641-0.55078-0.95703-0.87891-0.48438-1.043-0.23828-1.0625 0.10156 0.32031-1.0352 0.39062-1.1797-0.019531-1.1016-0.42969-1.043 0.34375-1.0586 0.074218-1.1875-1.0117 0.070312-1.0273-0.24219-1.0195 0.34375-1.1797-0.070313-0.99219-0.16797-0.96484-0.71484-1.1445-0.023438-0.79297-0.70312-0.46484-1.0742-0.19922-1.0156-0.31641-1.0312-0.34375-1.0078 1.0781-1.2109 0.85547-0.91406 0.83203-0.70703 0.42188-1.5039 0.74609-1.0469 0.80859-0.75-0.83984-1.0039-1.3008-0.66406-0.73828-1.1289-1.8789-0.95312-0.97266-0.875-0.88281-0.75781-0.875-0.51562-1.0352-0.15625-1.0742 0.17969-0.69922-0.83594-1.0312 0.51562-0.66016 0.79297-0.27734 1.1484-0.60938 1.0391-0.33594 1.0898-0.48438 1.0742-0.99609 0.63672-0.89453 0.69531-0.94531 0.74219-0.27344 1.1484-1.4766 0.57031-1.2891-0.39453-1.043-0.27344-0.83594 0.96094 0.085937 1.0391 0.76172 0.89062 0.75 1.2031 0.35938 0.97656-1.0156 0.074219-1.0586 0.45312-1.0938 0.11719-1.4102-0.64453-1.3047 0.21094-1.2109 0.60547-1.0195 0.61719-0.61719 0.89844-1.0078 0.43359-0.89844 0.44922-1.0508-0.046875-0.44531-1.0352-0.51172-0.86719-0.50391-0.92188-0.48828-0.91406-0.30469-0.96094-0.75-0.72266-0.73828-1.0391-0.90625-0.71484-0.80078-0.625-1.5586-1.2109-1.1406-0.69141-0.84375-0.74609-0.84375-0.75-0.84766-0.66797-1.3242-1.0586-0.78906-0.61328-0.86719-0.89062 0.85547-0.53906 0.5625-0.94141-0.12109-1.1758-0.51172-1.1094-0.31641-1.0625-0.68359-0.9375-0.66797-0.96484-0.91797-0.75391-0.83594-0.73438-0.40625-0.97266 0.13281-1.0742-0.65625-1.2461-0.64062-0.78906-0.76953-0.80859-0.75-0.66797-0.88672-0.67578-0.93359-0.63281-1.0039-0.66016-1-0.51172-1.0195-0.55469-0.019531-1.0586-0.28906-1.1367-1.0273-0.77734-0.99609-0.28906-0.61328-0.98828-1-0.67578-0.92969-0.56641-1.0234-0.52344-1.0352-0.63281-0.98047-0.67188-0.99609-0.60156-0.83984-0.55469-0.875-0.52344-1.082-0.64844-1.0195-0.625-0.96875-0.5625-0.88281-0.58594-0.90234-0.57812-0.89453-0.52344-0.86719-0.51953-0.89453-0.54688-0.87109-0.52344-1.0664-0.61719-0.91797-0.49219-0.91406-0.51953-0.96875-0.57812-0.87109-0.53125-0.96094-0.53906-0.88672-0.48828-1.4766-0.73828-1.3633-0.74219-0.94922-0.52344-0.9375-0.44922-1.0039-0.53906-1.1055-0.63672-1.1328-0.55078-1.2344-0.61328-1.2188-0.64453-0.98438-0.54297-0.89844-0.46094-0.91797-0.46094-1.1328-0.57812-1.1562-0.53125-0.875-0.48438-1.0742-0.54297-1.0352-0.4375-0.90234-0.51172-1.0547-0.50781-1.0156-0.40625-1.0703-0.47656-0.95312-0.39453-0.63672-0.85156-0.35938-0.93359 1.0273-0.48047 0.37891-1.1328 0.070312-1.0117-0.058593-1.1562-0.30859-0.98438-0.50781-1.0938-0.41016-0.99609-0.082031-1.0039 0.24609-0.99609 0.57031-0.86719-0.16016-1.0586-0.37109-0.95703 0.80859-0.74219 0.98828-0.27344 0.84766-0.60547 0.5625 0.86719 1.0742-0.03125 1.1875-0.47656 1.0625-0.042969 1.0547-0.13281 0.58594-0.88281 0.45703-1.2031 0.24219-1.0938 0.082031-1.6211-0.082031-1.0703-0.22656-1.2891-0.375-1.0547-0.42969-0.91406-0.49609-0.93359-0.44922-0.94531-0.53125-0.92969-0.77344-0.71875-0.82422-0.98047-0.125-1.0117 1.0039-0.35156 0.085938-1.0508-0.51172-0.92969-1.3359-1.3633-0.875-0.90234 0.11719-1.3203-0.3125-1.0781-0.62891-0.78516-0.58984-0.91406 0.51172-0.91797 0.19141-1.0117-0.51562-1.3633-0.50391-1.1641-0.46875-1.0508-0.89062-1.1328-0.59766-0.94922-0.69141-0.76562-0.86328-0.66797 0.48438-0.89844 0.96094-0.49609 0.71484-0.84375 0.078125-1.1133-0.22266-1.2148-0.48047-1.0938-0.57812-1.1562-0.53125-0.89062-0.60547-0.95312-0.25-0.99219 0.96484-0.71094-0.25391-1.2188-0.75-1.0234-0.49219-0.90625-0.58984-1.1172-0.375-0.9375-0.55859-0.98828-0.64062-0.87891-0.70312-0.875-0.79297-1.1055-0.77344-0.92578-0.75391-0.72266-0.45703-0.96875-0.48828-0.96094-0.33203-1.0547 0.34375-1.0391-0.20312-1.1758-0.68359-0.79688-0.87109-0.92188-0.84375-0.74219-0.76953-0.64844-0.8125-0.67188-0.87109-0.59766-0.85547-0.59766-0.86719-0.58984-0.76562-0.75 0.050781-1.1289-0.73438-0.73047 0.61719-0.83203 1-0.10547-0.078125-1.1953-0.57812-0.91797-0.71484-0.72656-0.49219-1.0156-1.0078-0.625 0.11328-1.0312-0.70312-0.94141-0.61328-0.81641-0.81641-0.84766-0.82031-0.61328-0.91797-0.64453-1.3086-0.83594-0.86719-0.76562-0.82031-0.875-0.30859-1.3906-0.19531-1.0742-0.19531-1.043-0.65625-1.0391-0.80469-0.82812-0.91797-0.86719-0.83203-0.73828-0.76172-0.65234-0.86719-0.79688-0.79297-0.77734-0.86328-0.93359-0.77344-0.91797-0.74609-0.94922-0.64062-0.80859-0.66797-1.3164-1.3242-1.5625-0.67578-0.82812-0.66797-0.78125-0.67578-1.0234 0.82031-0.98828 1.1914-1.2148 0.67188-0.76953 0.69531-0.77734 0.65625-1.2188 0.62109-0.89453 0.83984-0.72266 1.0078-0.27734 0.88672-0.70312 1.1172-0.13672 0.87109 0.50781 0.61328 0.96484 1.4844 0.78125 1.0156 0.3125 1.4648 0.35156 0.99219-0.16016 0.81641-0.64453 0.41016-1.1797 1.0195 0.20703 1.0977-0.26172-0.019531-1.1719-0.035156-1.2461 0.089843-1.0898 0.070313-1.0117 0.12891-1.2227 0.054688-1.5938-0.035157-1.0195 0.15625-1.0039-0.73438-0.75-0.96484-0.625-0.25-1.1484-0.45312-0.89844-0.26562-1.0703-1.0117-0.58203-0.69141-0.92969 0.69922-0.79688 0.44531-0.92578-0.042969-1.082 0.75-1 1.0273-0.52734 0.67188-1.0859 1.1328-0.55859 0.77344-0.65234-0.64453-1.125 1.0078-0.30078 0.49219-1.3008 0.18359-1.1719 0.59375-0.83984 0.29297-1.0508 0.09375-1.3359-0.21875-1.0312-0.30859-1.082 0.13672-1.0078 0.32031-1.0781 0.011718-1.0938-0.41406-0.91797-0.12891-1.2812-0.11328-1.0234 0.28125-1.0156-0.25-1.2148 0.48438-1.1602 1.0938 0.36328 0.95703-0.60156 1.0352 0.50391 1.0508 0.046875 1.168-0.30859 1 0.30469 1.3867 0.21094 0.94922-0.44531 1.0859-0.26172 1.0742 0.54297 1.168 0.38672 0.83594 0.65625 0.73828 0.75 0.92578 0.6875 0.98438 0.39062 0.97266 0.38672 0.82031-0.74219 0.875-0.80859 0.65625-0.84375 0.67578-0.94141 1.1289 0.34766 1.125 0.17969 0.48828 1.0742 0.42578 1.0391 1.1055 1.3398 0.60938 1.1406 0.62891 0.79688 0.42969 1.0469-0.097657 1.0898 0.12109 1.1914-0.78125 0.75-0.46094 0.92188-0.84375 0.55078-0.75781 0.69141-0.86328 0.71484-0.79688 0.61328-1.2734 0.75391-1.2852 0.035156-1.25 0.17969-1.0391 0.82422-1.1445 0.082032-0.44922 0.96875-0.98047 0.625-0.83594 0.68359-1.1953-0.082031-0.82422 0.88281-0.20312 1.293 0.26953 1.0078-0.55078 1.0117-0.44922 1.0586-0.89062 0.66797-0.66406 1.0234-0.46094 1.4141-0.17578 1.1953 0.015625 1.0742-0.47266 0.99219-1.0625 0.14453-0.86328 0.53125-0.42188 1.1055-0.96094 0.28516-0.85156 0.62891-0.76562 0.85938-0.66797 1.1641-0.085938 1.0703 0.27344 1.082-0.097656 1.1953 0.66797 1.1641 0.42578 1.2344 1.207-0.20312 0.94922-0.30859 1.1328-0.46875 1.0391 0.007812 0.26562-0.99609 0.0625-1.0859 0.96875-0.45703 0.97656-0.41406 0.95703-0.57031 1.1055 0.015625 1.043-0.16406 0.96875 0.50781 1.1328-0.95312 0.92578-0.66016 1.2344-0.14062 0.61719-0.98828 0.55469 1.4844-0.14844 1.2344-0.12109 1.0547 0.058594 1.5938 0.90234 0.86719 0.23828 1.3398-0.039062 1.0195-0.082032 1.3086-0.23828 1.6406 0.375 0.94531 1.6562 0.17188 1.1094-0.097657 0.98828-0.30078 0.90625-0.55859 0.69531-0.72656 0.94141-0.46875 0.93359-0.53125 1.2148-0.039063 1.4883-0.16016 0.73438 1.4844-0.13281 1.1797-0.007812 2.3789-0.54688 0.84375-0.8125 0.74219 0.035156 1.0977-0.20312 1.0352-0.27344 1.0039 0.26953 1.4062 1 0.71094 0.53125 1.0156 0.015625 2.1797 0.14062 1.1641-0.16406 1.6719 0.011719 2.082-0.023437 1.1602-0.45703 1.0273-0.054687 1.0859-0.36719 0.94531-0.57031 1.0352-0.47656 1.2539-0.28906 1.3633-0.97266 0.50781-1.0234 0.24219-1.0469 0.55859-0.51172 1.0352 0.74609 1.3164 1.0898 1.3008 1.125 0.46094 1.5352-1.6367 0.82031-0.88672 1.2422-1.168 1.3594-1.1094 1.5586-0.86719 1.1133-0.375 1.5039-0.90234 0.95312-0.9375 0.95312-0.67188 1.2109 0.082031 1.082-0.25781 1.0625 0.51562 0.92578 1.2461 1.0312 0.22266 1.2422-0.23438 1.3477-0.36719 1.043-0.25 0.70703-0.74219 1.0234-0.21094 0.67578-0.76562 1.0234-0.51172 1.1094-0.14062 0.94531-0.40234 0.96484 0.46484 0.94141 0.43359 0.98828 0.14453 1.5703-0.625 1.1172-0.82031 1.0508-0.59375 0.41406-1.0039 0.98047-0.54297-0.69531-0.82031-0.91797-0.50781-0.85156-0.93359-0.37109-1.0039 0.19141-1.1719 0.53516-1.3242 0.57812-1.5586 0.71484-0.74219 0.78906-0.89844 0.49609-0.94141 0.48047-1 1.1875-0.25781 1.0391-0.30078 0.58203-0.87891 0.35938-0.96484 0.63281-0.85938 0.56641-0.90234 0.62109-0.89844 0.9375-0.45703 0.37891-0.95703 0.55859-0.89453 1.1289-0.35938 1.0898-0.32422 0.73047-0.71094 0.69141-0.90625 0.44531-1.0352 0.35547-0.96484 0.74609-0.73438 0.97266-0.38672 0.82422-0.61719 0.86328-0.59766 0.94531 0.39062 1.0156-0.31641 0.96484 0.60547 0.72656-0.69922 0.35938-0.93359 1.0312-0.38281 1.0391-0.34766 1.082 0.0625 1.0352 0.23828 0.90625-0.46094 1.1562 0.11328 1.1602 0.58203 0.91406 0.70703 0.96094 0.29297 1.0039 0.054688 1.0078-0.054688 0.97656-0.44922 0.49219-0.875 0.12109-1.0508 0.77734-0.69922 0.22266-0.98047 0.089844-1.0703 0.96094-0.5625 0.79688-0.78125 0.44531-1.0469 0.035156-1.0469-0.25-1.0312-0.25391-1.2852-0.83594-0.76172-0.19922-1.0352 0.30859-1.1836 0.47266-1.2305 1.1172-0.91797 1.3477-0.63672 1.1406-0.39453 0.31641-0.97266 0.98438-1.168 0.33203-0.94922 0.70703-1.1914 1.2148-0.60938 0.64844-0.87891 0.74609-0.70703 0.99219-0.91406 0.58594-1.1758-0.125-1.0898 0.94531-0.77344 1.2227-1.1719 1.2188-1.2383 0.21094-1.1641 0.29688-0.96875 1.0352-0.3125 0.86719-1.2734 0.48828-1.457 0.76562-0.92578 1.1641-0.011719 1.2148 0.74609 1.0391-0.28125 0.87891-0.66797 0.97266-0.24219 0.95703-0.51562 0.97656-0.625 0.77344-0.72266 0.5-0.95703 0.74219-1.0508 0.55078-1.1992-0.007813-1.3164 0.078125-1.1406 0.87891-0.75781 0.46094 1.3047 0.95312 0.40234 1.1055 0.54297 1.1445 0.22656 0.65234 0.94141 1.6016 0.30859 0.76172-0.68359 0.69922-0.85938 0.91797-0.88281 1.1367-0.33594 1.1172-0.75391 0.72656-0.82812 1.375-0.32031 1.1328 0.14453 1.0195 0.070313 0.91406-0.54297 0.44141 0.97266 0.48828 0.88672 0.9375 0.36719 0.46875 0.93359-0.21484 0.99609 0.050782 1.0195 1.125 0.26562 0.93359 0.48828 0.5625 0.88281 0.38281 0.97266 0.31641 0.97656 0.054688 1.0586-0.14453 1.0273-0.14062 1.207 0.55469 0.86328 0.60938 0.89453 0.39844 0.97656-0.25 1.0781 0.73438 0.73438 1.1172-0.035157 0.95703-0.47656 0.92969-0.77344 0.66016 0.87109 0.34375 1.1133 0.28125 1.0039 0.5 0.88281 1.0977 0.13672 1.2656 0.085937 1.043 0.042969 1.1055 0.31641-0.34375 0.98047 0.36719 1.1055 0.27734 1.2031 0.54688 0.85938-0.30859 1.0469-0.074219 1.0039 0.33594 1.0938 1-0.11328 1.043-0.035156 0.46094 0.89062 0.69922 0.76562 0.46484 0.89062 0.75 0.68359 0.3125 1.0117 1.0273-0.039062 1.0234 0.34375 1.0391-0.082032 0.99219 0.53125 1.0469-0.34766 0.65625 0.80469 0.94531 0.47266 0.29688 1.1602z" fill="#0a5394" fill-rule="evenodd"/>
<path d="m217.39 34.613-0.035156 0.019532-0.56641 1.0977 0.050781 1.2148-0.19141 1.1445 0.52734 0.91016 0.64062 0.88281 0.87109 0.77344 0.13281 1.1172 0.49609 1.0156 0.52344 1.0977-0.058594 1.2266 0.20312 1.1406 0.41406 1 0.46484 1.1758 0.082031 1.0703 0.13281 1.0156-0.125 1.3242 0.88672 0.80469 1.1914-0.32812 1.0312-0.035156 0.46094 0.89453 0.99609 0.45703 0.30078 1.0781 0.015625 1.0391-0.34766 1.0664 0.83594 0.64453 0.6875 0.87109 0.73047 0.69531 0.44922 0.89453 0.55469 1.0508-0.41016 1.0352-0.24219 1.1133-0.49219 1.2266-0.60938 0.87109-0.74219 0.67969 0.67969 0.88672 0.90625 0.65234 0.33203 1.0156 0.16406 1.0508 0.46484 0.96875 0.16406 1.0391 0.48047 0.9375 0.30469 1.0273 0.30469 1.2109 0.41016 1.0625 0.53516 0.84766 0.23828 1.043 0.94141 0.55469 0.53516 0.92969 0.58594 1.3516 0.078125 1.0469-0.30078 0.99219-0.64453 0.82812 0.65234 0.76172 0.65625 0.83203-0.22656 1.0625 0.72266 0.85547 0.30469 1.1016 0.71094 0.72656 1.1875-0.18359 1.082 0.066406 0.54688 0.875 0.53516 0.94141 0.40625 1 0.64844 0.83594 0.125 1.1992 0.30078 1.0078 0.46484 0.97656 0.25391 0.98438 0.19141 0.99609 0.054687 1.0703-0.019531 1.0273 0.19531 0.98828 0.015625 1.1328 0.10547 1.0039 0.54688 1.0078-0.066406 1.0234 0.67578 1.1172 0.17188 1.0977 0.29688 0.99609-0.23438 0.99609 0.17188 1.082 0.078125 1.0508 0.3125 1.043 0.28516 1.0664-0.76953 1.0898-0.67578 1.0586-0.875 0.49219-0.36328 1.1367 0.5625 0.93359-0.11719 1.0391-0.21484 1.0625 0.17188 1.293 1.1328 0.027344 1.082 0.55469 0.83984 0.57422 1.0195 0.38672 0.83594 0.60156 1.1172 0.37109 0.90625 0.51172 1.3672 1.6094 0.24219 1.168 0.95312 1.2188 0.53516 1.0625 1.0508 1.4766 0.96875 0.80469 0.83203 0.69531 1.0938 1.0195 0.12891 1.1133 0.10938 1.0938-0.5 0.98047-1.0352 0.49219-1.0391 0.28516-1.1953 0.40234-0.48438 0.99219 0.76562 0.73047 0.40234 1.0039 0.50781 0.88672 0.39453 0.94141 0.11328 1.0391 0.058594 1.0469 0.26172 0.99609-0.42969 0.92578 0.12109 1.1367 0.82812 0.5625 0.73438 0.82031 0.43359 0.90234 0.085938 1.3047-0.28906 1.2891-0.050781 1.0352 0.85938 1.2695 0.41797 0.92188 0.33984 1 0.15234 1.1016-0.26953 1.1445-0.98047 0.30469 0.49609 1.0039 0.63281 0.90625 0.79688 0.68359 0.9375 0.36328 1.0391 0.074219 1.3789 0.71875-0.92188 0.51562-0.92188 0.83984-0.39062 0.92578-0.78125 0.85938v1.0273l0.71875 0.82812 0.37891 0.92969 0.73438 0.73828 0.5 0.89062-0.1875 1.0625 0.69141 0.74609 0.39062 1.0898 0.48828 0.93359 0.54297 0.91797 1.2461 0.55469 1.0781-0.042969 1.0508-0.19141 0.41406 0.92578 0.83984 0.54688 0.17578 1.0781 0.17188 1.0625 0.054688 1.0938 0.84766 0.66797 0.26172 1.0195 0.71094 0.72266 0.59375 0.81641 0.44922 0.95703-0.09375 1.0508-1.2266 1.1367 0.39844 0.92188 0.53125 1.0312 0.88672 1.8008 0.57812 0.94922 0.84766 0.62109 1.207-0.11328 1.0156-0.19141 0.10547 1.2617 0.15234 1.1562 0.28125 0.98828 0.27344 0.99609 0.12891 1.0391-1.0391 0.57812-0.49609 0.87109 0.38672 0.94531 0.37109 0.98438 0.62891 0.875 0.71094 0.78125 0.92969 0.91016 0.14062 1.0625 1.043 0.12891 0.92578 0.41016 0.09375 1.1094 0.015625 1.0078 0.30078 1.0078 0.98828 0.24219 1.0156-0.28125 0.98438 0.22656 0.55859 0.86719 0.74609 0.76953 0.24609 1.0039 0.74609 0.67188 1.0234-0.015625 0.75 0.66797 0.52344 0.88281-0.027344 1.0352 0.13672 1.0586 0.45312 0.99219 0.94531-0.52344 0.99609 0.1875 0.71484-0.72656 0.96484-0.38281 0.66406-1.1328 0.40625-0.97266 0.87109-0.62891 1.1172 0.27344 1.1133-0.11328 1.1133-0.21484 1 0.17969 0.67578-0.95312 0.30859-1.0859 0.78906 0.63281 0.79688 0.67188 0.69531 0.78125 0.78516 0.69531 0.95703 0.33984 0.30469 1.0352 0.69141 1.1367 1.1211 0.003906 0.91406 0.875-0.035156 1.1719 0.35938 0.96484 0.82031 0.58984-0.75781 0.74219-0.83984 0.69922-0.98828 0.50391-0.39062 0.92969 0.76953 0.77344 0.60938 0.80078 0.35547 0.9375-0.57812 0.85547-0.85156 0.65234-0.66797 0.85938-0.45312 0.98828 0.53125 1.0586 1.0156 0.3125-0.32812 1 0.29688 0.97656-0.20703 1.0742-0.96875 0.42969-0.6875 0.73438-0.16406 0.99219 0.59766 0.89844 0.074219 0.99609 0.22656 1-0.14844 1.0156 0.38281 0.97656 0.48047 0.87891 1.0234-0.074219 0.95312 0.33594 0.62109 0.97266 0.96484 0.73828 0.47266 0.91797-0.0625 1.0781 0.75 0.76172 0.67969 0.80469 0.85156 0.70312 0.74609 0.8125 1.0312 0.17969 0.6875-0.74219 0.96484 0.35938 0.41797 0.94141 0.27734 1.0156 1.0234 0.375 0.71484 0.75 0.74219 0.77344 0.55469 0.85547 0.57422 0.91406 0.47656 0.97266 0.49609 0.92578 0.42578 1.0039 0.82031 0.75 0.26172 1.0234 0.52734 0.99609 0.73828 0.87109 0.68359 0.96094 1.0078 0.44531 0.60156 0.86719 1.0898 0.82031 0.91797 0.59766 0.77734 0.75391 0.42578 0.91016 0.62891 0.81641-0.089844 1.1992 0.1875 1.0234-0.49609 0.91797-0.70312 0.84766 0.26172 1.0195 0.32422 1.0273-0.14844 1.0195 0.48047 0.90625-0.050781 1.0234 0.98047 0.50781 0.81641 0.82422 0.42969 0.98828 0.84766 0.71484 1.0039 0.75781 0.76172 0.65234 0.73438 0.70312 0.64453 0.8125 1.0078 0.22266 1.1055-0.003906 0.97266 0.5625 0.44141 1.0391 0.84375-0.66797 0.94141-0.375 0.89453-0.57812 1.0117-0.074218 0.86719 0.70312 0.94141-0.39844 1.0039 0.074219 0.59766 0.80859 1.043 0.20703 1.2773-0.63672 1.0352-0.60938 1.2539-0.125 1.0977 0.38672 0.92188 0.89453 0.62891 0.93359 0.90234-0.55469 0.98828-0.28125 1.2383 0.046875 1.0469 0.65234 0.89453 0.52344 1.0156 0.03125 1.125 0.46875 0.82422 0.59375 1.1719 0.21875 0.97656-0.27734 0.6875 1.0469 0.5 1.0078 0.58594 0.94922 0.96484-0.35547 0.34766-0.94141 0.85938-0.55078 0.59375 0.96094 0.85938 0.75 0.89062 0.76953 0.69531 0.76172 1.0352 0.5 0.95703 0.37109 0.62109 0.78906 0.80469 0.61719 0.70312 0.86719 1.0586 0.70703 1.0391-0.015625 1.0469-0.16797 0.96484-0.36719 0.67578-0.87109 0.58203-0.91016 0.058594-1.0117 1.3203 0.62891 1.0234 0.41406 1.0586-0.019532 0.89844 0.59375 1.0469-0.1875 0.94922 0.42188 0.95312-0.35938 1.4062 0.24609 0.66406 0.80469 1.0117 0.49609 0.79688 0.65234-0.31641 1.0312-1.1367 0.50781-0.47656 0.9375-0.39062 1.125 1.0352 0.17578 1.0195 0.33203 0.96484 0.51953 1.0352 0.55859 0.95312 0.78516 0.36719 0.94922 0.82812 0.62891 0.94531 0.5 0.83203 0.68359 0.19531 1.1289 0.73047 0.95312 0.81641 0.77344 0.28125 1.043-0.27734 1-1.0391 0.73438-1.0078 0.35938-0.59375 1.418-0.64453 0.84766 0.039063 1.0195-0.39062 0.95703-1.0117-0.058594-0.22656 0.99609-0.35156 1.0117-0.57031 0.94141 0.89844 1.0312 0.77344 0.86328 0.25 1.0586 0.65625 0.97656 0.54297 0.92969 0.41797 1.0039 0.79688 0.89062 0.66406 0.91797 0.60156 0.86719 0.74219 0.73828 0.83984 0.5625 0.74219 0.70312-0.054688 1.0508 0.80078 0.61719 0.71875 0.69531 0.51172 0.92969 0.55859 0.92578 0.69531 0.75781 0.41797 1.0352 0.72656 0.70312-0.066407 1.0078-0.375 0.96484-0.10938 0.99609 0.48438 1 0.73828 0.80469 1.0586 0.24609 1.0859 0.14062 0.84375 0.5625 0.69141 1.0938 0.54688 1.2031 0.49609 0.95312 0.27344 1.0352 0.79297 0.63281-0.023437 1.0273-0.22266 1.0195-0.65234 0.94141-0.66797 0.88672-0.20312 0.99609 0.10156 1.0156 0.019532 1.1523 0.19141 1.1172-0.24609 1.1211 0.42578 1.168 0.30078 0.96875-0.11719 1.0039-0.10547 1.1719 0.082032 1.0195 0.125 0.99609 0.28125 1.1055 0.61328 0.89062 0.35938 1.0469 0.44141 0.95703 0.30078 0.98828 0.25 1.1133 0.18359 1.2031 0.42578 0.99609 0.34375 1.293-0.46875 0.92969-0.9375 0.35156-0.16797 1.0547-0.49219 1.0078-0.47266 0.91797-1.0039 0.20312-1.4062 1.3281-0.035157 1.043-0.84766 0.82031 0.59766 0.95312 0.15625 1.0469-0.49609 0.87891-0.375 1.2148-0.89844 0.50781-0.19922 1.25-0.058593 1.3164-0.28125 1.3789-0.22656 1.0664 0.40234 1.418-0.019531 1.0586 0.26562 1.0195 0.058593 1.0977 0.47266 1.2852 1.0195 0.47266 1.1523 0.19531 0.61719 0.83984-0.60938 0.89062 0.80859 0.67969 0.89062 0.63281-0.34766 1.1289-0.1875 1.5469 0.23438 1.0586-1.2148 0.55859-1.3789 0.33984-0.81641 0.71094 0.12109 1.1797 0.69531 0.85938 0.82812 0.64453 1.0742 0.58203 0.76172 0.93359 0.75391 0.91797 0.85156 0.80859 1.1914 0.64453 0.77734 0.84375 1.0391 0.77734 0.91016 0.41406 0.70703 1.043 1.0391 0.30078-0.03125 1.1484-0.64453 1.0078-1.0977-0.011719-0.33984 1.3398-0.070312 1.3672-0.60547 1.3359-0.51953 1.1055-1.0898 0.11719-0.80859-0.61719-0.53516 0.86719-1.1836 0.027344-0.72266-0.77344-0.98047 0.26172 0.074219 1.0742-0.42969 1.0898-0.68359 1.3477-0.90625 0.75781-1.0977 0.42969-1.0547 0.60938-0.99609 0.14844-1.1875 0.78906-1.1055-0.074219-0.99219 0.44531-0.058594 1.1328-0.48438 1.5742-0.8125 1.9922-0.91797 1.2969-0.60938 1.0859-0.070312 1.0859-0.76172 0.67578 0.26562 1.0273 0.56641 0.86328 0.4375 1.1016 0.53516 1.2148 0.98047 0.45703-0.44141 1.0547 0.83203 1.043 0.34766 1.2891-0.88281 0.71094-1.1484-0.074219-0.91406 0.62891-0.91797 0.50781 0.48828 1.0625-0.10547 1.1211-0.91016 0.44531-1.2109 0.46094-0.97656 0.3125-1.1055-0.023437-1.0156 0.4375-0.29688 0.98438 0.54688 1.207-0.03125 1.0703-0.75781 1-1.1172 0.33203-1.2188 0.070312-0.58594 0.91016-0.75 0.82812-1.1484 0.14062-1.1797 0.5-1.1992-0.1875-1.0352 0.03125-1.0703-0.34375-1.0742-0.63281-1.0352-0.76172-1.0781-0.44531-0.89453 0.46875-1.1172-0.63672-0.51953-0.88281-1.1641 1.2578-0.33594 0.97656-0.39062 1.0625-1.4141 0.86719-1.082 0.95312-0.72656 0.92969-0.80859 0.60547-1.1133-0.53906-0.76562-0.75781-1.0898 0.30469-0.60938-0.95312-0.20312-1.7383-0.46484-1.0664-1.293-0.25-1.125 0.28516-1.1641 0.69922-1.3281-0.15625-1.0195-0.74609-0.99609-0.38672-1.1445-0.69531-0.63672-0.92969-1.0195-0.37109-1.0664-0.22266-1.3125-0.042969-1.1055-0.67578-1.1992-0.28906-0.70703-0.73438-1.1914-0.39844-1.125-0.73828-0.86328-0.60938h-1.1133l-0.83984 0.58984-1.0859 0.36328-1.1016 0.54297-0.21875 1.0195 0.27344 1.1133-0.066407 1.2969-0.79688 1.0781-0.33203 0.97656-0.13672 1.1055-0.83203 0.67969-0.99219 0.78125-0.89062 0.6875-0.76953 0.72266-0.69531 0.86328-0.78516 0.75391-0.69531 0.72656-0.64844 1.0195-0.68359 0.94141-1 0.41406-0.55469 0.96484-0.87109 0.69531-0.99609 0.49219-1.0234 0.55859-0.73438 0.71484-0.82422 0.81641-0.97266 0.62109-0.88672 0.58984-0.97656 0.44922-0.86328 0.55078-0.80078 0.67578-0.77344 0.75-0.83203 0.66016-1.0586 0.86719-0.83203 0.65234-0.63672 1.0469-0.95312 0.44922-0.90625 0.84766-0.76953 0.74219-0.80469 0.64844-0.71484 0.71484-1.1914 0.30469-1.1172 0.375-0.84766 0.85547-0.89844 0.44141-0.73047 0.8125-0.14453 1.0469-0.28906 0.96094-0.42188 1.2852 0.042968 1.0508-0.46484 1.1719-0.73828 0.90234-0.42969 1.1406-0.65625 1.0469-0.75 0.67578-0.64453 0.82422-0.59766 1.0898-0.27344 1.25-0.48438 1.043-0.40234 1.0703-0.55859 1.3516-0.74219 1.4727-0.84766 1.0039-0.96875 0.29688-0.93359 0.5-1.1602 0.44141-1.0078 0.27344-1.0156 0.54297-0.71875 0.73047-0.80469-0.72656-0.73828-1.0742-0.64844-0.92578-0.74609-0.89453-0.75391-0.92188-0.71484-0.75391-0.75-0.89062-0.71875-1.0508-0.65234-0.83203-0.71484-0.73438-0.71875-0.83203-0.85547-0.86719-0.74609-0.87109-0.82422-0.89844-0.74609-0.77734-0.71875-0.80078-0.66016-0.75781-0.86719-1.0312-0.69922-0.86719-0.73828-0.8125-0.64062-0.80078-0.59375-0.80859-0.64062-0.82422-0.84375-0.85156-0.77344-0.80859-0.58984-1.0234-0.32031-1.0156-0.70312-0.99219-0.85156-0.9375-0.65625-0.77734-1.0195-1.0859-0.82031-0.80859-0.76953-0.71875-0.36719-1.0117-0.55859-0.94922-0.74219-0.76172-0.93359-1.1523-0.69141-0.78125-0.77734-0.82812-0.67578-0.85547-0.83594-0.99219-0.8125-0.95703-0.85938-0.96875-0.78516-0.80859-1-1.043-0.71094-0.73047-1.0977-1.2188-0.78516-0.76953-0.82031-0.78906-0.96484-0.92578-1.1367-1.1719-0.71484-0.79688-0.70703-0.84766-0.41797-0.9375 1.0039-0.28516 0.33594-0.95703-0.28125-1.1367-0.58984-0.96875-0.51172-0.88672-0.41797-0.92188-0.52344-0.90234-0.70703-0.71875-0.67188-0.76953-0.35156-1 0.058593-1.0273-0.69922-0.77734-0.40625-0.92578-0.58984-0.82422 0.78906-0.66406 0.79688-0.64062-0.16797-1.043 0.14453-1.0156 0.046875-1.0039-0.046875-1.0625-0.35156-0.95703-0.11719-1.0156-0.52734-0.875 0.33984-1.0312-0.46484-0.9375-0.23047-0.98438v-1.0117l-0.19531-1.0156-0.058594-1 0.19531-0.99609-0.34375-1.0234-0.35938-0.98438-0.69531-0.73047-0.70703-0.70312-0.77734-0.64062-0.77734-0.67969-0.86719-0.51172-0.875-0.60156-0.91406-0.44922-0.94531-0.44141-0.17578-1.0117-0.23828-1.0156-0.73047-0.70312-0.86328-0.58984-0.87891-0.60547-0.92188-0.57812-0.85547-0.64453-0.82422-0.59375-0.84375-0.60156-0.94141-0.41016-0.89453-0.44922-0.19531-0.99219-0.67188-0.875-0.5-0.91016-0.70312-0.75781-0.76172-0.67969-0.77734-0.70703-0.97656-0.26172 0.41016-0.95312 0.14844-1 0.62109-0.78906 0.089844-1.0586-0.41406-0.91016-0.69531-0.78516-0.73828-0.73047-0.83594-0.67188-0.80469-0.60547-0.74219-0.6875 0.30469-0.95703-0.35547-0.94141-0.80469-0.65625-0.097656-0.99219-0.73047-0.75391-0.76172-0.68359-0.011719-1.0195-0.47656-0.88281 0.64844-0.77344 0.097656-1.0234-0.18359-1-0.27734-0.96875-0.56641-0.82422-0.75-0.67188-0.76562-0.70703-0.18359-1.0039-0.80078-0.71094-0.78516-0.62109-0.66797-0.75391-0.94141-0.48828 0.31641-0.98047-0.12891-1.0312-0.59375-0.91016-0.75781-0.69141-0.84766-0.83594-0.90625-0.56641-0.57812-0.8125-0.97266-0.38672-0.38281-0.97266-0.5625-0.90234-0.89062-0.66406-0.89062-0.61328-0.92188-0.5-0.86719-0.52734-0.88672-0.49609-0.88281-0.48047-0.96094-0.45312-0.92969-0.41016-0.52344-0.97266-0.59375-0.97656 0.10547-1.0352 1.0195-0.39062 1.168-0.43359 0.72656-0.83203 0.33203-1.1875 0.69531-0.77734 1.1836-0.46094 0.51562-1.1953 0.39844-0.95703-0.35938-1.4414-0.50391-1.7266 0.40234-1.5586 0.25391-0.98438-0.25-1.4414-0.27734-1.6211-0.042969-1.3359 1.0898-0.82812 1.2539 0.21484 1.0781-0.10156 1.0156-0.14062 1.0469-0.10547 0.98047-0.49219 0.94531-0.55078 1-0.49609 0.91797-0.58203 1.0898 0.16797 1.0352-0.17969 1.168-0.45312 0.80859-0.82031 0.37891-1.0664 0.66016-0.91406-1.1367-0.64844-0.77344-0.73438-0.25781-1.2617 0.41016-0.96484 0.11328-1.2227 0.28906-1.0781 0.40234-0.94531 0.96875-0.51953 0.57031-0.875 0.82812-0.60547 0.91016-0.62891 0.19531-1.0508 0.054688-1.0234 0.20703-1.0039 0.96094-0.33594 0.94141-0.50391 0.92969-1.2383 0.36719-1.1797 0.54688-1.1328 0.42188-1.0273 0.050781-1.043 0.625-1.1367 0.066406-1.2617-0.12109-1.1094-1.1992-0.61719-1.0273-0.27734-0.69922-0.85547-0.91406-0.48438-0.58984-0.92188-0.26172-1.1875-0.30859-1.0195-0.78906-1.2422-0.55078-0.875 0.085937-1.0078-1.1836-0.046875-0.91797-0.51172-0.76172-0.96484-0.82422-0.72266-0.53516-0.94922-0.49219-1.2656-0.19531-1.0469 0.82031-0.70703 0.84766-0.58984-0.83203-0.74609-0.98047-0.72656-0.58594-0.82812-1.0664-0.52734-1.0742-0.10938-0.87891-0.82422-0.35547-1.0703 0.57031-1.3047 0.85938-0.75 1.0234-0.55859 1.207 0.3125 1.25-0.30078 0.86328-0.66016 0.62891-0.86328 0.39453-0.92578-0.042969-1.1602-0.38672-1.2461-0.63281-1.0547-0.91016-0.66406-0.87891-0.80078-0.78125-0.82422-0.76172-0.67969-1.0547-0.16797-0.32031-0.99219-0.11719-1.2617-0.54297-1.1484-0.95312-1.0898 0.082031-1.418 0.99219-0.35938 0.97656-0.32812 0.8125-0.66016 1.1914-0.03125 1.1562 0.40234 1.0078-0.16797 0.71484-0.71484 0.94922-0.53516 1.1992-0.19141 0.89453-0.48438 0.67578-0.86719 0.91406-0.58984 0.23828-1.1289-0.007812-1.0195-0.71875-0.98828-1.2656-1.3242-0.97656-0.87891-0.92188-0.60547 0.14453-1.0156-0.64453-0.86719-0.85938-0.55078-0.74219-1-0.96875-0.71094-0.64453-0.86719-0.45312-0.90234-1.1953-0.55859-1.0156 0.14844-0.79688-0.65234-1.0117-0.78906-0.6875-0.75-0.98438 0.39062-0.55469 0.97266-0.64062 0.82812-0.95312 0.39844-1.1328 0.31641-0.85938 0.83594-1.0898 0.59375-0.86719 0.58594-0.75781 0.67188-0.98047 0.33594-1.0078 0.65234-0.78516 1.0156-0.89062 0.58203-1.1602-0.10938-1.1719-0.066406-1.1367-0.17969-1.0703 0.84375-0.48828 1.0508-0.41016 0.98047-1.1328-0.074218-1.2344-0.82812-0.97656-0.62109-0.95703 0.34766-0.79297 0.88281-1.0391 0.61328-1.3398 0.34766-0.94141 0.42578-1.0742 0.20312-1.2031 0.64062-1.0039-0.125-1.3242-0.21875-0.90625 0.44922-0.98438 0.35938-0.44922-1.4766-0.89844-1.0625-0.24219-1.1289 0.8125-0.71094 1.1953-0.55078 0.21094-1.0469-0.35547-0.97656 0.011719-1.1094 0.27734-1.1445 0.43359-1.2734 0.47266-1.0586 1.2266-0.54688 0.92188-0.74609-0.066406-1.2539 0.36719-0.95703-1.1523-0.39062-1.1953 0.035157-1.0586 0.17969-1.168 0.40234-1.168 0.33984-0.99609-0.23438-0.53906-0.95703-0.22656-1.0234 0.96875-1.4805 0.22266-1.1445-0.24219-1.2031 1.1641-0.0625 1.0664-0.30859 1.125-0.13281 1.1172-0.59375 0.82422-0.69531-0.42969-0.96094-0.17188-1.4102-0.097656-1.082 0.28906-1.0234 1.168-0.35938 1.2656 0.16406 1.0078 0.21875 1.1875-0.14844 1.125 0.33984 1.1133 0.28125 1.2148 0.14453 1.0078-0.35938 0.81641-1.1758 0.63281-0.91406 0.79688-0.63672 1.082-0.40234 1.3125-0.60938 0.78906-0.83984 0.83203-0.94531 0.83984-0.89062-0.58203-1.043-1.1406-0.55859-1.0234-0.19531-1.0352-0.17578-1.0703 0.050781-1.3047 0.14453-1.4258 0.26953-1.2148-0.035157-1.2383-0.28125-1.0508-0.47266-0.49609-0.89062-0.96484-0.56641-1.2031-0.39844-0.99219-0.51172-1.0781 0.050781-1.0117 0.24609-0.92969 0.48047 0.13281 1.3359-0.71875 0.89844-1.0859 0.76562-1.1602 0.46484-0.97266-0.69141-1.1406-0.10938-0.80859-0.68359-0.59766-0.95703-0.72656-0.81641-0.55078-0.95703-0.87891-0.48438-1.043-0.23828-1.0625 0.10156 0.32031-1.0352 0.39062-1.1797-0.019531-1.1016-0.42969-1.043 0.34375-1.0586 0.074218-1.1875-1.0117 0.070312-1.0273-0.24219-1.0195 0.34375-1.1797-0.070313-0.99219-0.16797-0.96484-0.71484-1.1445-0.023438-0.79297-0.70312-0.46484-1.0742-0.19922-1.0156-0.31641-1.0312-0.34375-1.0078 1.0781-1.2109 0.85547-0.91406 0.83203-0.70703 0.42188-1.5039 0.74609-1.0469 0.80859-0.75-0.83984-1.0039-1.3008-0.66406-0.73828-1.1289-1.8789-0.95312-0.97266-0.875-0.88281-0.75781-0.875-0.51562-1.0352-0.15625-1.0742 0.17969-0.69922-0.83594-1.0312 0.51562-0.66016 0.79297-0.27734 1.1484-0.60938 1.0391-0.33594 1.0898-0.48438 1.0742-0.99609 0.63672-0.89453 0.69531-0.94531 0.74219-0.27344 1.1484-1.4766 0.57031-1.2891-0.39453-1.043-0.27344-0.83594 0.96094 0.085937 1.0391 0.76172 0.89062 0.75 1.2031 0.35938 0.97656-1.0156 0.074219-1.0586 0.45312-1.0938 0.11719-1.4102-0.64453-1.3047 0.21094-1.2109 0.60547-1.0195 0.61719-0.61719 0.89844-1.0078 0.43359-0.89844 0.44922-1.0508-0.046875-0.44531-1.0352-0.51172-0.86719-0.50391-0.92188-0.48828-0.91406-0.30469-0.96094-0.75-0.72266-0.73828-1.0391-0.90625-0.71484-0.80078-0.625-1.5586-1.2109-1.1406-0.69141-0.84375-0.74609-0.84375-0.75-0.84766-0.66797-1.3242-1.0586-0.78906-0.61328-0.86719-0.89062 0.85547-0.53906 0.5625-0.94141-0.12109-1.1758-0.51172-1.1094-0.31641-1.0625-0.68359-0.9375-0.66797-0.96484-0.91797-0.75391-0.83594-0.73438-0.40625-0.97266 0.13281-1.0742-0.65625-1.2461-0.64062-0.78906-0.76953-0.80859-0.75-0.66797-0.88672-0.67578-0.93359-0.63281-1.0039-0.66016-1-0.51172-1.0195-0.55469-0.019531-1.0586-0.28906-1.1367-1.0273-0.77734-0.99609-0.28906-0.61328-0.98828-1-0.67578-0.92969-0.56641-1.0234-0.52344-1.0352-0.63281-0.98047-0.67188-0.99609-0.60156-0.83984-0.55469-0.875-0.52344-1.082-0.64844-1.0195-0.625-0.96875-0.5625-0.88281-0.58594-0.90234-0.57812-0.89453-0.52344-0.86719-0.51953-0.89453-0.54688-0.87109-0.52344-1.0664-0.61719-0.91797-0.49219-0.91406-0.51953-0.96875-0.57812-0.87109-0.53125-0.96094-0.53906-0.88672-0.48828-1.4766-0.73828-1.3633-0.74219-0.94922-0.52344-0.9375-0.44922-1.0039-0.53906-1.1055-0.63672-1.1328-0.55078-1.2344-0.61328-1.2188-0.64453-0.98438-0.54297-0.89844-0.46094-0.91797-0.46094-1.1328-0.57812-1.1562-0.53125-0.875-0.48438-1.0742-0.54297-1.0352-0.4375-0.90234-0.51172-1.0547-0.50781-1.0156-0.40625-1.0703-0.47656-0.95312-0.39453-0.63672-0.85156-0.35938-0.93359 1.0273-0.48047 0.37891-1.1328 0.070312-1.0117-0.058593-1.1562-0.30859-0.98438-0.50781-1.0938-0.41016-0.99609-0.082031-1.0039 0.24609-0.99609 0.57031-0.86719-0.16016-1.0586-0.37109-0.95703 0.80859-0.74219 0.98828-0.27344 0.84766-0.60547 0.5625 0.86719 1.0742-0.03125 1.1875-0.47656 1.0625-0.042969 1.0547-0.13281 0.58594-0.88281 0.45703-1.2031 0.24219-1.0938 0.082031-1.6211-0.082031-1.0703-0.22656-1.2891-0.375-1.0547-0.42969-0.91406-0.49609-0.93359-0.44922-0.94531-0.53125-0.92969-0.77344-0.71875-0.82422-0.98047-0.125-1.0117 1.0039-0.35156 0.085938-1.0508-0.51172-0.92969-1.3359-1.3633-0.875-0.90234 0.11719-1.3203-0.3125-1.0781-0.62891-0.78516-0.58984-0.91406 0.51172-0.91797 0.19141-1.0117-0.51562-1.3633-0.50391-1.1641-0.46875-1.0508-0.89062-1.1328-0.59766-0.94922-0.69141-0.76562-0.86328-0.66797 0.48438-0.89844 0.96094-0.49609 0.71484-0.84375 0.078125-1.1133-0.22266-1.2148-0.48047-1.0938-0.57812-1.1562-0.53125-0.89062-0.60547-0.95312-0.25-0.99219 0.96484-0.71094-0.25391-1.2188-0.75-1.0234-0.49219-0.90625-0.58984-1.1172-0.375-0.9375-0.55859-0.98828-0.64062-0.87891-0.70312-0.875-0.79297-1.1055-0.77344-0.92578-0.75391-0.72266-0.45703-0.96875-0.48828-0.96094-0.33203-1.0547 0.34375-1.0391-0.20312-1.1758-0.68359-0.79688-0.87109-0.92188-0.84375-0.74219-0.76953-0.64844-0.8125-0.67188-0.87109-0.59766-0.85547-0.59766-0.86719-0.58984-0.76562-0.75 0.050781-1.1289-0.73438-0.73047 0.61719-0.83203 1-0.10547-0.078125-1.1953-0.57812-0.91797-0.71484-0.72656-0.49219-1.0156-1.0078-0.625 0.11328-1.0312-0.70312-0.94141-0.61328-0.81641-0.81641-0.84766-0.82031-0.61328-0.91797-0.64453-1.3086-0.83594-0.86719-0.76562-0.82031-0.875-0.30859-1.3906-0.19531-1.0742-0.19531-1.043-0.65625-1.0391-0.80469-0.82812-0.91797-0.86719-0.83203-0.73828-0.76172-0.65234-0.86719-0.79688-0.79297-0.77734-0.86328-0.93359-0.77344-0.91797-0.74609-0.94922-0.64062-0.80859-0.66797-1.3164-1.3242-1.5625-0.67578-0.82812-0.66797-0.78125-0.67578-1.0234 0.82031-0.98828 1.1914-1.2148 0.67188-0.76953 0.69531-0.77734 0.65625-1.2188 0.62109-0.89453 0.83984-0.72266 1.0078-0.27734 0.88672-0.70312 1.1172-0.13672 0.87109 0.50781 0.61328 0.96484 1.4844 0.78125 1.0156 0.3125 1.4648 0.35156 0.99219-0.16016 0.81641-0.64453 0.41016-1.1797 1.0195 0.20703 1.0977-0.26172-0.019531-1.1719-0.035156-1.2461 0.089843-1.0898 0.070313-1.0117 0.12891-1.2227 0.054688-1.5938-0.035157-1.0195 0.15625-1.0039-0.73438-0.75-0.96484-0.625-0.25-1.1484-0.45312-0.89844-0.26562-1.0703-1.0117-0.58203-0.69141-0.92969 0.69922-0.79688 0.44531-0.92578-0.042969-1.082 0.75-1 1.0273-0.52734 0.67188-1.0859 1.1328-0.55859 0.77344-0.65234-0.64453-1.125 1.0078-0.30078 0.49219-1.3008 0.18359-1.1719 0.59375-0.83984 0.29297-1.0508 0.09375-1.3359-0.21875-1.0312-0.30859-1.082 0.13672-1.0078 0.32031-1.0781 0.011718-1.0938-0.41406-0.91797-0.12891-1.2812-0.11328-1.0234 0.28125-1.0156-0.25-1.2148 0.48438-1.1602 1.0938 0.36328 0.95703-0.60156 1.0352 0.50391 1.0508 0.046875 1.168-0.30859 1 0.30469 1.3867 0.21094 0.94922-0.44531 1.0859-0.26172 1.0742 0.54297 1.168 0.38672 0.83594 0.65625 0.73828 0.75 0.92578 0.6875 0.98438 0.39062 0.97266 0.38672 0.82031-0.74219 0.875-0.80859 0.65625-0.84375 0.67578-0.94141 1.1289 0.34766 1.125 0.17969 0.48828 1.0742 0.42578 1.0391 1.1055 1.3398 0.60938 1.1406 0.62891 0.79688 0.42969 1.0469-0.097657 1.0898 0.12109 1.1914-0.78125 0.75-0.46094 0.92188-0.84375 0.55078-0.75781 0.69141-0.86328 0.71484-0.79688 0.61328-1.2734 0.75391-1.2852 0.035156-1.25 0.17969-1.0391 0.82422-1.1445 0.082032-0.44922 0.96875-0.98047 0.625-0.83594 0.68359-1.1953-0.082031-0.82422 0.88281-0.20312 1.293 0.26953 1.0078-0.55078 1.0117-0.44922 1.0586-0.89062 0.66797-0.66406 1.0234-0.46094 1.4141-0.17578 1.1953 0.015625 1.0742-0.47266 0.99219-1.0625 0.14453-0.86328 0.53125-0.42188 1.1055-0.96094 0.28516-0.85156 0.62891-0.76562 0.85938-0.66797 1.1641-0.085938 1.0703 0.27344 1.082-0.097656 1.1953 0.66797 1.1641 0.42578 1.2344 1.207-0.20312 0.94922-0.30859 1.1328-0.46875 1.0391 0.007812 0.26562-0.99609 0.0625-1.0859 0.96875-0.45703 0.97656-0.41406 0.95703-0.57031 1.1055 0.015625 1.043-0.16406 0.96875 0.50781 1.1328-0.95312 0.92578-0.66016 1.2344-0.14062 0.61719-0.98828 0.55469 1.4844-0.14844 1.2344-0.12109 1.0547 0.058594 1.5938 0.90234 0.86719 0.23828 1.3398-0.039062 1.0195-0.082032 1.3086-0.23828 1.6406 0.375 0.94531 1.6562 0.17188 1.1094-0.097657 0.98828-0.30078 0.90625-0.55859 0.69531-0.72656 0.94141-0.46875 0.93359-0.53125 1.2148-0.039063 1.4883-0.16016 0.73438 1.4844-0.13281 1.1797-0.007812 2.3789-0.54688 0.84375-0.8125 0.74219 0.035156 1.0977-0.20312 1.0352-0.27344 1.0039 0.26953 1.4062 1 0.71094 0.53125 1.0156 0.015625 2.1797 0.14062 1.1641-0.16406 1.6719 0.011719 2.082-0.023437 1.1602-0.45703 1.0273-0.054687 1.0859-0.36719 0.94531-0.57031 1.0352-0.47656 1.2539-0.28906 1.3633-0.97266 0.50781-1.0234 0.24219-1.0469 0.55859-0.51172 1.0352 0.74609 1.3164 1.0898 1.3008 1.125 0.46094 1.5352-1.6367 0.82031-0.88672 1.2422-1.168 1.3594-1.1094 1.5586-0.86719 1.1133-0.375 1.5039-0.90234 0.95312-0.9375 0.95312-0.67188 1.2109 0.082031 1.082-0.25781 1.0625 0.51562 0.92578 1.2461 1.0312 0.22266 1.2422-0.23438 1.3477-0.36719 1.043-0.25 0.70703-0.74219 1.0234-0.21094 0.67578-0.76562 1.0234-0.51172 1.1094-0.14062 0.94531-0.40234 0.96484 0.46484 0.94141 0.43359 0.98828 0.14453 1.5703-0.625 1.1172-0.82031 1.0508-0.59375 0.41406-1.0039 0.98047-0.54297-0.69531-0.82031-0.91797-0.50781-0.85156-0.93359-0.37109-1.0039 0.19141-1.1719 0.53516-1.3242 0.57812-1.5586 0.71484-0.74219 0.78906-0.89844 0.49609-0.94141 0.48047-1 1.1875-0.25781 1.0391-0.30078 0.58203-0.87891 0.35938-0.96484 0.63281-0.85938 0.56641-0.90234 0.62109-0.89844 0.9375-0.45703 0.37891-0.95703 0.55859-0.89453 1.1289-0.35938 1.0898-0.32422 0.73047-0.71094 0.69141-0.90625 0.44531-1.0352 0.35547-0.96484 0.74609-0.73438 0.97266-0.38672 0.82422-0.61719 0.86328-0.59766 0.94531 0.39062 1.0156-0.31641 0.96484 0.60547 0.72656-0.69922 0.35938-0.93359 1.0312-0.38281 1.0391-0.34766 1.082 0.0625 1.0352 0.23828 0.90625-0.46094 1.1562 0.11328 1.1602 0.58203 0.91406 0.70703 0.96094 0.29297 1.0039 0.054688 1.0078-0.054688 0.97656-0.44922 0.49219-0.875 0.12109-1.0508 0.77734-0.69922 0.22266-0.98047 0.089844-1.0703 0.96094-0.5625 0.79688-0.78125 0.44531-1.0469 0.035156-1.0469-0.25-1.0312-0.25391-1.2852-0.83594-0.76172-0.19922-1.0352 0.30859-1.1836 0.47266-1.2305 1.1172-0.91797 1.3477-0.63672 1.1406-0.39453 0.31641-0.97266 0.98438-1.168 0.33203-0.94922 0.70703-1.1914 1.2148-0.60938 0.64844-0.87891 0.74609-0.70703 0.99219-0.91406 0.58594-1.1758-0.125-1.0898 0.94531-0.77344 1.2227-1.1719 1.2188-1.2383 0.21094-1.1641 0.29688-0.96875 1.0352-0.3125 0.86719-1.2734 0.48828-1.457 0.76562-0.92578 1.1641-0.011719 1.2148 0.74609 1.0391-0.28125 0.87891-0.66797 0.97266-0.24219 0.95703-0.51562 0.97656-0.625 0.77344-0.72266 0.5-0.95703 0.74219-1.0508 0.55078-1.1992-0.007813-1.3164 0.078125-1.1406 0.87891-0.75781 0.46094 1.3047 0.95312 0.40234 1.1055 0.54297 1.1445 0.22656 0.65234 0.94141 1.6016 0.30859 0.76172-0.68359 0.69922-0.85938 0.91797-0.88281 1.1367-0.33594 1.1172-0.75391 0.72656-0.82812 1.375-0.32031 1.1328 0.14453 1.0195 0.070313 0.91406-0.54297 0.44141 0.97266 0.48828 0.88672 0.9375 0.36719 0.46875 0.93359-0.21484 0.99609 0.050782 1.0195 1.125 0.26562 0.93359 0.48828 0.5625 0.88281 0.38281 0.97266 0.31641 0.97656 0.054688 1.0586-0.14453 1.0273-0.14062 1.207 0.55469 0.86328 0.60938 0.89453 0.39844 0.97656-0.25 1.0781 0.73438 0.73438 1.1172-0.035157 0.95703-0.47656 0.92969-0.77344 0.66016 0.87109 0.34375 1.1133 0.28125 1.0039 0.5 0.88281 1.0977 0.13672 1.2656 0.085937 1.043 0.042969 1.1055 0.31641-0.34375 0.98047 0.36719 1.1055 0.27734 1.2031 0.54688 0.85938-0.30859 1.0469-0.074219 1.0039 0.33594 1.0938 1-0.11328 1.043-0.035156 0.46094 0.89062 0.69922 0.76562 0.46484 0.89062 0.75 0.68359 0.3125 1.0117 1.0273-0.039062 1.0234 0.34375 1.0391-0.082032 0.99219 0.53125 1.0469-0.34766 0.65625 0.80469 0.94531 0.47266 0.29688 1.1602 0.48438 0.61328" fill="none" stroke="#fff" stroke-linecap="round" stroke-linejoin="round" stroke-miterlimit="10"/>
<path d="m79.016 136.47c0 3.5898-2.9102 6.5-6.5 6.5s-6.5-2.9102-6.5-6.5 2.9102-6.5 6.5-6.5 6.5 2.9102 6.5 6.5" fill="#28c028" fill-rule="evenodd" stroke="#000" stroke-linecap="round" stroke-linejoin="round" stroke-miterlimit="10"/>
<path d="m80.203 159.5v-16.469h3.3281v6.4844h6.5v-6.4844h3.3281v16.469h-3.3281v-7.2031h-6.5v7.2031zm16.578-16.469h3.3125v8.9219c0 1.418 0.039063 2.3359 0.125 2.75 0.14453 0.67969 0.48438 1.2188 1.0156 1.625 0.53906 0.40625 1.2734 0.60938 2.2031 0.60938 0.9375 0 1.6445-0.19141 2.125-0.57812 0.47656-0.38281 0.76562-0.85938 0.85938-1.4219 0.10156-0.5625 0.15625-1.4922 0.15625-2.7969v-9.1094h3.3281v8.6562c0 1.9688-0.09375 3.3672-0.28125 4.1875-0.17969 0.8125-0.50781 1.5-0.98438 2.0625-0.48047 0.5625-1.125 1.0117-1.9375 1.3438s-1.8711 0.5-3.1719 0.5c-1.5742 0-2.7656-0.18359-3.5781-0.54688s-1.4531-0.83203-1.9219-1.4062c-0.46875-0.58203-0.77734-1.1914-0.92188-1.8281-0.21875-0.94531-0.32812-2.3438-0.32812-4.1875zm31.469 16.469h-3.6094l-1.4375-3.7344h-6.5781l-1.3594 3.7344h-3.5312l6.4062-16.469h3.5156zm-6.1094-6.5156-2.2812-6.1094-2.2188 6.1094zm18.406 0.46875 3.2344 1.0156c-0.5 1.793-1.3281 3.125-2.4844 4-1.1484 0.875-2.6016 1.3125-4.3594 1.3125-2.1875 0-3.9844-0.74219-5.3906-2.2344-1.4062-1.5-2.1094-3.5469-2.1094-6.1406 0-2.7383 0.70312-4.8633 2.1094-6.375 1.4141-1.5195 3.2812-2.2812 5.5938-2.2812 2.0078 0 3.6445 0.60156 4.9062 1.7969 0.75 0.69922 1.3125 1.7109 1.6875 3.0312l-3.2969 0.78125c-0.19922-0.85156-0.60547-1.5234-1.2188-2.0156-0.61719-0.5-1.3672-0.75-2.25-0.75-1.2188 0-2.2109 0.4375-2.9688 1.3125-0.76172 0.875-1.1406 2.2969-1.1406 4.2656 0 2.0742 0.375 3.5547 1.125 4.4375 0.75 0.88672 1.7227 1.3281 2.9219 1.3281 0.88281 0 1.6445-0.28125 2.2812-0.84375 0.63281-0.5625 1.0859-1.4414 1.3594-2.6406zm6.0938 6.0469v-16.469h3.3281v6.4844h6.5v-6.4844h3.3281v16.469h-3.3281v-7.2031h-6.5v7.2031zm15.922-8.125c0-1.6758 0.25-3.0859 0.75-4.2344 0.375-0.83203 0.88281-1.582 1.5312-2.25 0.64453-0.66406 1.3516-1.1602 2.125-1.4844 1.0312-0.4375 2.2188-0.65625 3.5625-0.65625 2.4141 0 4.3516 0.75781 5.8125 2.2656 1.457 1.5 2.1875 3.5938 2.1875 6.2812 0 2.6562-0.72656 4.7344-2.1719 6.2344-1.4375 1.5-3.3711 2.25-5.7969 2.25-2.4492 0-4.3984-0.74219-5.8438-2.2344-1.4375-1.5-2.1562-3.5547-2.1562-6.1719zm3.4219-0.125c0 1.8672 0.42969 3.2812 1.2969 4.25 0.86328 0.96094 1.957 1.4375 3.2812 1.4375 1.3203 0 2.4062-0.47266 3.25-1.4219 0.85156-0.95703 1.2812-2.3906 1.2812-4.2969 0-1.8945-0.41797-3.3047-1.25-4.2344-0.82422-0.92578-1.918-1.3906-3.2812-1.3906-1.375 0-2.4844 0.47656-3.3281 1.4219-0.83594 0.9375-1.25 2.3516-1.25 4.2344zm0 0" fill="none" stroke="#fff" stroke-linecap="round" stroke-linejoin="round" stroke-miterlimit="10" stroke-width="2"/>
<path d="m80.203 159.5v-16.469h3.3281v6.4844h6.5v-6.4844h3.3281v16.469h-3.3281v-7.2031h-6.5v7.2031zm16.578-16.469h3.3125v8.9219c0 1.418 0.039063 2.3359 0.125 2.75 0.14453 0.67969 0.48438 1.2188 1.0156 1.625 0.53906 0.40625 1.2734 0.60938 2.2031 0.60938 0.9375 0 1.6445-0.19141 2.125-0.57812 0.47656-0.38281 0.76562-0.85938 0.85938-1.4219 0.10156-0.5625 0.15625-1.4922 0.15625-2.7969v-9.1094h3.3281v8.6562c0 1.9688-0.09375 3.3672-0.28125 4.1875-0.17969 0.8125-0.50781 1.5-0.98438 2.0625-0.48047 0.5625-1.125 1.0117-1.9375 1.3438s-1.8711 0.5-3.1719 0.5c-1.5742 0-2.7656-0.18359-3.5781-0.54688s-1.4531-0.83203-1.9219-1.4062c-0.46875-0.58203-0.77734-1.1914-0.92188-1.8281-0.21875-0.94531-0.32812-2.3438-0.32812-4.1875zm31.469 16.469h-3.6094l-1.4375-3.7344h-6.5781l-1.3594 3.7344h-3.5312l6.4062-16.469h3.5156zm-6.1094-6.5156-2.2812-6.1094-2.2188 6.1094zm18.406 0.46875 3.2344 1.0156c-0.5 1.793-1.3281 3.125-2.4844 4-1.1484 0.875-2.6016 1.3125-4.3594 1.3125-2.1875 0-3.9844-0.74219-5.3906-2.2344-1.4062-1.5-2.1094-3.5469-2.1094-6.1406 0-2.7383 0.70312-4.8633 2.1094-6.375 1.4141-1.5195 3.2812-2.2812 5.5938-2.2812 2.0078 0 3.6445 0.60156 4.9062 1.7969 0.75 0.69922 1.3125 1.7109 1.6875 3.0312l-3.2969 0.78125c-0.19922-0.85156-0.60547-1.5234-1.2188-2.0156-0.61719-0.5-1.3672-0.75-2.25-0.75-1.2188 0-2.2109 0.4375-2.9688 1.3125-0.76172 0.875-1.1406 2.2969-1.1406 4.2656 0 2.0742 0.375 3.5547 1.125 4.4375 0.75 0.88672 1.7227 1.3281 2.9219 1.3281 0.88281 0 1.6445-0.28125 2.2812-0.84375 0.63281-0.5625 1.0859-1.4414 1.3594-2.6406zm6.0938 6.0469v-16.469h3.3281v6.4844h6.5v-6.4844h3.3281v16.469h-3.3281v-7.2031h-6.5v7.2031zm15.922-8.125c0-1.6758 0.25-3.0859 0.75-4.2344 0.375-0.83203 0.88281-1.582 1.5312-2.25 0.64453-0.66406 1.3516-1.1602 2.125-1.4844 1.0312-0.4375 2.2188-0.65625 3.5625-0.65625 2.4141 0 4.3516 0.75781 5.8125 2.2656 1.457 1.5 2.1875 3.5938 2.1875 6.2812 0 2.6562-0.72656 4.7344-2.1719 6.2344-1.4375 1.5-3.3711 2.25-5.7969 2.25-2.4492 0-4.3984-0.74219-5.8438-2.2344-1.4375-1.5-2.1562-3.5547-2.1562-6.1719zm3.4219-0.125c0 1.8672 0.42969 3.2812 1.2969 4.25 0.86328 0.96094 1.957 1.4375 3.2812 1.4375 1.3203 0 2.4062-0.47266 3.25-1.4219 0.85156-0.95703 1.2812-2.3906 1.2812-4.2969 0-1.8945-0.41797-3.3047-1.25-4.2344-0.82422-0.92578-1.918-1.3906-3.2812-1.3906-1.375 0-2.4844 0.47656-3.3281 1.4219-0.83594 0.9375-1.25 2.3516-1.25 4.2344z" fill-rule="evenodd"/>
</g>
</svg>
