<?xml version="1.0" encoding="UTF-8"?>
<svg width="500pt" height="370pt" version="1.1" viewBox="0 0 500 370" xmlns="http://www.w3.org/2000/svg">
<g id="a">
<rect width="500" height="370" fill="none"/>
<path d="m369.08 88.988 0.023438 0.33594-0.30469 1.7266 0.070313 1.8438 0.25781 1.0312 0.35938 1.1016 0.14453 2.5625-0.76172 2.7852-2 4.4648-0.44141 2.0625-0.074218 1.1953 0.30078 1.2422 0.64062 1.3711 2.3594 3.2148 0.94141 2.1992 0.53516 1.9961 0.10547 3.1094 0.63281 1.4727 1 0.53516 2.1758-0.03125 1.3359 0.60547 1.3594 0.5 1.543 0.42969 1.9727 0.39453 1.5039-0.30859 1.7344-1.1953 1.957-1.1914 0.92578-0.5625 1.1445-0.41797 1.2891 0.13281 2.2578 1.4648 3 1.8516 1.2383 0.76172 1.3477 1.5781 0.85938 1.793 1.6484 2.8281 0.85938 1.6133 0.65625 2.1719-0.34375 3.707-0.40625 1.8359-0.21875 1.1523-0.74609 0.8125-1.25 0.39062-0.83594 1.3828-0.53125 1.8086-1.0898 1.1836-0.625 0.93359-0.71484 1.0898-0.80859 0.9375-1.4023 0.27734-2.3047 0.78125-1.7773 0.49609-1.8086 1.0312-1.4336 1.1211-0.83984 1.2148-0.68359 1.6211-0.53125 1.5859-0.0625 1.4648 0.13672 3.7812-0.23047 1.0156-0.55078 0.97656-0.69531 1.3281-2.2109 0.40625-1.6211 0.3125-1.5586 0.71484-1.8672 1.3398-1.4336 0.6875-1.3711 0.87109-1.2461 1.2148-0.375 1.0586 0.10547 1.1992-0.63672-0.99219-1.2109-1.0859-0.62891-0.80859-0.45703-1.6797-0.60547-2.9023-0.36719-1.5938-0.91016-1.0586-1.0547-0.19141-1.7539 1.0234-0.89844 0.92578-2.207 1.0078-0.89844 0.51562-0.57031 1.0938-0.67578 1.1094-2.1953-0.003906-1.3438-0.57812-1.5195-0.97266-2.9844-0.77734-1.4023 0.20703-2.1289 0.62109-1.3477 0.33984-2.6602-0.44531-2.9961-0.38672-1.6641-0.097657-1.5195 0.38672-0.98828 0.59375-1.4805 1.3633-1.1445 0.58594-1.9883 0.85156-0.95703 0.49609-1.5625-0.042969-0.83203 0.58594-1.3477-0.59375-1.1875-0.17578-1.0469 0.23438-1.3867 0.60156-2.0547 0.32031-1.4062 0.25781-1.2031 0.37109-0.91406 0.65234-0.85938 0.57031-0.65234 1.0977-0.88281 0.99609-1.6992 0.48828-1.3789 0.14062-1.6289 0.52734-0.96484 0.60938-0.20703 1.043-0.41016 0.94531-0.6875 0.89453-1.0703 0.78125-0.79297 1.1992-0.5625 0.92188-0.23828 1.2461-0.54688 1.7188-1.3281-0.47266-1-2.3203-1.1094-1.5078-3.7148-2.293-1.4844-1.4492-1.1016-1.9102-0.97656-2.2578-1.1016-1.4375-1.2188-0.83594-2.4766-1-0.84766-1.582-0.82422-0.94922-4.043-1.0078-4.1602-2.1953-2.6094-1.957 0.83594-0.80078 0.13281-1.2227 0.58594-2.0117 0.85938-0.77734 1.1133-0.26172 1.0469-0.027344 1.0469 0.027344 1.0352 0.066406 1.0234 0.015625 1.1133 0.058594 0.95703-0.53906 0.66797-1.0234 0.95703 0.58594 1.0234 0.027343 1.0742 0.16406 1.1875 0.16406 1-0.066406 0.89844-0.51953 0.35547-1.2891-1.0586-1.4766-0.30469-1.1797 0.55469-0.85938-0.39062-0.98047 1.1992 0.082031 1.0703-0.32812 1.2227-2.082 0.85156-1.2461 1.1445-1.0977 1.043-0.66797 1.4023-1.6523 0.70312-0.83984 1.9883-0.83594 0.57031-0.84766 0.50781-1.0234 0.39844-0.99219 0.875-1.4258-0.03125-2.5117 0.13281-1.25 0.0625-1.2656 0.33984-1.6367 0.41406-1.3867 1.3359-1.582 1.3047-0.875 1.1523-0.59375 1.0078-0.60156 1.2227-0.99219 0.61719-1.0469 1.2539-0.91797 0.72656-1.6094 1.2148-1.2031 0.54297-1.043 1.2148-0.56641 0.875-0.58594 0.97266-0.48828 0.52344-1.1133-0.28906-1.0078-0.96875-0.50391-0.14844-0.99219 0.76172-1.125 0.73438-0.72266 1.1953-0.89062 1.125-1.1328 0.99609-1.0859 0.32422-1.3555 0.1875-1.4102 1.0391-1.2969 0.95703-1.2383 0.89453-0.79297 1.2773-0.74219 0.88281-0.48047 0.81641-0.80469 1.4141-1.1914 1.3672-1.0039 0.875-1.1328 0.70312-1.8984 0.72656-1.2227 1.1562-0.97266 0.50391-1.0234 0.77344-0.81641 1.5352-0.46094 1.3789 0.26953 1.3438-0.03125 2.207 0.36328 0.92188 0.48438 1.0391 0.28125 1.1836 0.019531 1.082 0.14453 1.7656-0.16406 1.0234-0.42969 1.0859-0.46094 1.0234 0.10938 1.6133-0.41406 1.6328-0.23828 1.5117-0.49609 1.4688-0.82812 2.7891-0.70703 1.0391 0.007813 1.4375 0.039062 1.4336 0.042969 0.99219-0.69922 1.1719-1.043 0.84766-0.75z" fill="#ccc" fill-rule="evenodd"/>
<path d="m369.08 88.988 0.023438 0.33594-0.30469 1.7266 0.070313 1.8438 0.25781 1.0312 0.35938 1.1016 0.14453 2.5625-0.76172 2.7852-2 4.4648-0.44141 2.0625-0.074218 1.1953 0.30078 1.2422 0.64062 1.3711 2.3594 3.2148 0.94141 2.1992 0.53516 1.9961 0.10547 3.1094 0.63281 1.4727 1 0.53516 2.1758-0.03125 1.3359 0.60547 1.3594 0.5 1.543 0.42969 1.9727 0.39453 1.5039-0.30859 1.7344-1.1953 1.957-1.1914 0.92578-0.5625 1.1445-0.41797 1.2891 0.13281 2.2578 1.4648 3 1.8516 1.2383 0.76172 1.3477 1.5781 0.85938 1.793 1.6484 2.8281 0.85938 1.6133 0.65625 2.1719-0.34375 3.707-0.40625 1.8359-0.21875 1.1523-0.74609 0.8125-1.25 0.39062-0.83594 1.3828-0.53125 1.8086-1.0898 1.1836-0.625 0.93359-0.71484 1.0898-0.80859 0.9375-1.4023 0.27734-2.3047 0.78125-1.7773 0.49609-1.8086 1.0312-1.4336 1.1211-0.83984 1.2148-0.68359 1.6211-0.53125 1.5859-0.0625 1.4648 0.13672 3.7812-0.23047 1.0156-0.55078 0.97656-0.69531 1.3281-2.2109 0.40625-1.6211 0.3125-1.5586 0.71484-1.8672 1.3398-1.4336 0.6875-1.3711 0.87109-1.2461 1.2148-0.375 1.0586 0.10547 1.1992-0.63672-0.99219-1.2109-1.0859-0.62891-0.80859-0.45703-1.6797-0.60547-2.9023-0.36719-1.5938-0.91016-1.0586-1.0547-0.19141-1.7539 1.0234-0.89844 0.92578-2.207 1.0078-0.89844 0.51562-0.57031 1.0938-0.67578 1.1094-2.1953-0.003906-1.3438-0.57812-1.5195-0.97266-2.9844-0.77734-1.4023 0.20703-2.1289 0.62109-1.3477 0.33984-2.6602-0.44531-2.9961-0.38672-1.6641-0.097657-1.5195 0.38672-0.98828 0.59375-1.4805 1.3633-1.1445 0.58594-1.9883 0.85156-0.95703 0.49609-1.5625-0.042969-0.83203 0.58594-1.3477-0.59375-1.1875-0.17578-1.0469 0.23438-1.3867 0.60156-2.0547 0.32031-1.4062 0.25781-1.2031 0.37109-0.91406 0.65234-0.85938 0.57031-0.65234 1.0977-0.88281 0.99609-1.6992 0.48828-1.3789 0.14062-1.6289 0.52734-0.96484 0.60938-0.20703 1.043-0.41016 0.94531-0.6875 0.89453-1.0703 0.78125-0.79297 1.1992-0.5625 0.92188-0.23828 1.2461-0.54688 1.7188-1.3281-0.47266-1-2.3203-1.1094-1.5078-3.7148-2.293-1.4844-1.4492-1.1016-1.9102-0.97656-2.2578-1.1016-1.4375-1.2188-0.83594-2.4766-1-0.84766-1.582-0.82422-0.94922-4.043-1.0078-4.1602-2.1953-2.6094-1.957 0.83594-0.80078 0.13281-1.2227 0.58594-2.0117 0.85938-0.77734 1.1133-0.26172 1.0469-0.027344 1.0469 0.027344 1.0352 0.066406 1.0234 0.015625 1.1133 0.058594 0.95703-0.53906 0.66797-1.0234 0.95703 0.58594 1.0234 0.027343 1.0742 0.16406 1.1875 0.16406 1-0.066406 0.89844-0.51953 0.35547-1.2891-1.0586-1.4766-0.30469-1.1797 0.55469-0.85938-0.39062-0.98047 1.1992 0.082031 1.0703-0.32812 1.2227-2.082 0.85156-1.2461 1.1445-1.0977 1.043-0.66797 1.4023-1.6523 0.70312-0.83984 1.9883-0.83594 0.57031-0.84766 0.50781-1.0234 0.39844-0.99219 0.875-1.4258-0.03125-2.5117 0.13281-1.25 0.0625-1.2656 0.33984-1.6367 0.41406-1.3867 1.3359-1.582 1.3047-0.875 1.1523-0.59375 1.0078-0.60156 1.2227-0.99219 0.61719-1.0469 1.2539-0.91797 0.72656-1.6094 1.2148-1.2031 0.54297-1.043 1.2148-0.56641 0.875-0.58594 0.97266-0.48828 0.52344-1.1133-0.28906-1.0078-0.96875-0.50391-0.14844-0.99219 0.76172-1.125 0.73438-0.72266 1.1953-0.89062 1.125-1.1328 0.99609-1.0859 0.32422-1.3555 0.1875-1.4102 1.0391-1.2969 0.95703-1.2383 0.89453-0.79297 1.2773-0.74219 0.88281-0.48047 0.81641-0.80469 1.4141-1.1914 1.3672-1.0039 0.875-1.1328 0.70312-1.8984 0.72656-1.2227 1.1562-0.97266 0.50391-1.0234 0.77344-0.81641 1.5352-0.46094 1.3789 0.26953 1.3438-0.03125 2.207 0.36328 0.92188 0.48438 1.0391 0.28125 1.1836 0.019531 1.082 0.14453 1.7656-0.16406 1.0234-0.42969 1.0859-0.46094 1.0234 0.10938 1.6133-0.41406 1.6328-0.23828 1.5117-0.49609 1.4688-0.82812 2.7891-0.70703 1.0391 0.007813 1.4375 0.039062 1.4336 0.042969 0.99219-0.69922 1.1719-1.043 0.84766-0.75 1.043-0.20703" fill="none" stroke="#fff" stroke-linecap="round" stroke-linejoin="round" stroke-miterlimit="10" stroke-width="2"/>
<path d="m203.22 99.859 1.2461 0.074219 1.4062 0.5625 2.5 1.4688 1.0781 1.1758 1.2969 1.1484 1.4609 0.91406 1.2617 0.30078 2.9531-0.10156 3.9023-1.043 1.375-0.16406 2.625 0.046875 1.6875 0.097656 1.0625 0.55078 0.94141 0.625 0.74609 0.95703 0.75781 1.0508 2.2734 1.5234 1.7852 0.6875 2.7852 0.53906 1.6094 0.35156h1.9414l1.3672-0.12109 1.9453-0.88672 2.7812-1.6562 1.3867-1.4883 1.0898-1.1836 1.582-2.3281 0.83594-0.57422 1.8438 0.44141 3.7617 2.5156 2.8828 1.1875 0.94141 0.35156 1.3906 0.63672 1.9688 1.2188 1.9883 1.2344 1.2578 0.85156 1.543 1.4492 2.0664 2.1797 0.73438 1.5859 0.19141 1.832 0.058593 1.7969-0.46094 1.6797-1.1016 2.6094-0.87109 1.9883-2.0273 1.9883-2.0469 1.6797-1.9883 0.92969-1.582 0.76953-1.4297 0.8125-1.2188 1.332-0.94531 1.6992-1.2344 2.3164-1.4492 2.2422-0.73438 1.1953-0.46484 1.6836-0.73438 1.7539-0.61719 1.2773-0.52734 1.2891-0.33984 3.1523 0.058594 1.6406 0.37891 1.2734 0.10156 1.3164-0.21094 1.2148-0.77344 1.0234-1.1211 0.83203-1.1172 0.86719-1.2188 1.0039-1.0234 1.332-0.69531 2.1445-0.17969 1.0195 0.81641 1.2109 0.625 0.89062 1.4375 0.83594 0.53516 1.0312 0.39844 0.98047 0.089843 1.3281-0.35547 1.4883 0.18359 1.2617-0.59766 1.0312-0.66797 0.89844-0.074218 1.4375-0.27734 0.97266-0.45703 1.5273-0.51953 1.3555 0.035157 1.5117 0.34375 1.1797-0.32812 1.082-0.007813 1.2695-0.60547 1.2695 0.050782 1.0078 0.10156 1.1484 0.83203 0.64062 0.3125 0.98438-0.74219 1.2969-0.73438 0.72656-0.41406 1.0391-0.59375 1.2383-0.40234 1.6992-0.33203 1.0547-1.2969 1.2734-0.40234 1.2031 0.58594 1.0664-0.52734 1.2109-0.78516 0.62109-1.1406 1.0742-1.7812 1.7969-0.95703 0.82812-1.0742 1.0547-1.0469 0.77734-0.96484 0.95703-0.48828 1.1445-0.46094 1.1406 0.45312 2.0625-1.1406 0.94922-1.5898 0.83594-1.3047 0.37891-1.4023 0.60156-1.7617 0.035156-1.3594-0.15234-1.1133 0.76172-0.85156 0.88281-1.0234 0.29688-0.97266 0.98047-1.4453 1.3789-0.97656 0.92188-2.7266 1.0156-1.4141 0.1875-1.043-0.76562-0.76172-1.0703-1.625-1.293-1.6211-1.0469-1.0469-1.0391-0.57812-0.91406-0.96484-0.80078-0.92578-0.43359-1.3555-0.039063-1.1523-0.98828-0.69531-1.6211-0.67969-0.98828-0.76172-0.78125-0.83984-0.69922-0.98828-0.53125-0.78125-0.76172-0.67578-0.80078-0.92578-0.88281-0.69922-0.92578-0.76172-1.0898-2.0547-1.293-1.1289-0.33203-2.5078-0.35156-1.9922-0.33594-1.1914-0.03125-1.7266 0.57812-0.72266 1.5938-0.53125 3.0078-0.57422 3.9023-0.10547 2.3242-0.24609 1.457-0.32812 1.1719 0.14453 1.0273 0.26562 1.0078-0.019531 1.6016-0.28906 1.1328-0.16406 1.2734-0.18359 1.2539-0.10156 1.2539-0.39062 1.3125-0.78125 1.0078-1.0078 1.0703-1.1484 0.90234-0.67188 1.4922-0.007813 1.7344 0.39062 1.1094 0.59375 1.1094-0.22266 1.0273-1.1719 1.1914-0.66016 1.1523-0.53125 1.1719-0.30859 1.2305-0.78125 2.5703-0.35156 1.6445-0.39062 1.4805-0.18359 1.2109-0.37109 0.98438-1.0273 0.16797-1.0664-1.1523-1.0938-0.59375-1.7227-0.25-1.6016 0.69922-1.6719 0.40234-1.9648-0.09375-1.582 0.22656-0.94531 0.37109-0.96875 0.41016-1.4375 2.2617-0.49219 0.94141-0.63672 1.1953-1.5625 0.73828-1.9102-0.042969-1.9102 0.023437-1.6641 0.23047-1.4609 0.11719-1.7461 0.53516-0.98828 0.78125-1.6445 0.55469-1.2109 0.10156-1.3281-0.10156-1.2109-0.19531-1.9609 0.29688-2.0352 0.90625-1.6367 0.83594-2.043 1.918-1.293 1.5586-0.59766 0.84766-0.77734 1.1055-0.76172 1.1719-1.1914 0.98438-0.94531 0.72266-1.8516 0.41016-1.5 0.14453-1.9727 1.457-1.0664 0.98828-1.6211 0.76953-1.8945-0.11328-1.0664 0.34766-0.98828 0.51562-1.0781 0.45312-1.5312 0.082032-1.3984-0.20703-1.3359-1.582-0.39062-1.625-0.12109-1.168-0.41016-1.9727-1.0508-1.1094-1.293-0.49609-1.2734-0.24609-1.0898-0.14453-0.96875 0.41797-1.6016 0.87891-1.1484 0.10156-1.1289-0.55469-1.8906-1.2734-1.2148-0.24609-1.1914-0.32812-1.0078-0.042969-1.3555 0.96484-2.1367 0.042969-1.6836-0.24609-1.5195-0.14453-1.25 0.015625-1.0938 0.10547-0.96875 1.4805-0.57422 1.9727-1.125 1.6211-0.82812 1.1133-0.92188 0.82031-0.86328 0.80078-0.59766 2.6523-0.10547 1.0859-0.26562 2.0156-0.058594 1.707-0.69922 1.8086-0.28906 1.0273-0.78125 1.2734-1.6445 0.59766-2.0938 0.71875-1.6484 1.7656-0.93359 1.8984-0.70703 1.3906-0.92578 1.1289-1.6016 1.0273-1.4805 0.26953-2.3633 0.53125-1.1953 0.20703-1.25-0.26172-2.8555-0.21094-1.457-0.16406-1.2539 0.0625-1.1328 0.22656-1.2344 0.27344-1.4141-0.007812-1.4805-0.41016-1.0469 0.80078-0.66016 1.375-0.30859 1.6445 0.19531 1.4102-1.0781 0.37891-1.5391 0.22656-1.8711 0.039063-1.3555-0.058594-2.0156-0.67969-1.2734-0.37109-2.2812 0.49219-1.3125 0.59766-1.0312 0.47266-1.293 0.042968-1.4375-0.023437-1.5-0.14453-1.1172-0.19141-1.7383-0.25781-1.3984-0.14453-1.3555-0.35156-0.96094-0.73828-1.4648-0.94531-1.0898-0.86328-0.85547-0.69531-1.2383-0.3125-1.5234-0.14062-1.0195 0.019531-1.3086 0.29688-1.0391 0.23828-1.2969 0.26562-0.87891-0.58594-0.23047-1.1875 0.4375-0.96484-0.22656-0.99609-0.55469-1.1523-0.63672-1.1953-0.66406-0.8125-0.38281-1.0039-0.1875-1.0664-0.66016-1.1094-0.42188-1.0469-0.42578-1.0234-0.12109-1.1953 0.22656-1.2539-0.054688-1.4453-0.48828-1.0898-0.62109-0.79297-0.87891-0.96094-0.87891-0.66797-0.66406-0.96094-0.035156-1.2148 0.84766-0.78125 0.95703-0.92969 0.87109-0.91016 0.89062-0.71484 0.42188-1.0117 0.26172-1.1328 0.89062-0.76172 1.0664-0.77734 0.99609-0.86719 1.0039-1.0352 0.92969-0.46094 0.87109-1.1445 0.54688-0.95312 0.78516-0.78125 1.082-0.48438 0.95312-0.56641 0.93359-0.78125-0.011719-1.3203 0.50391-1.1016 0.63281-0.99609-0.29297-1.1953-0.12109-1.1719 0.17969-1.082 0.39844-0.95703 0.91406-1.2891 1-0.84766 0.65625-1.3555 1.0977-0.67188 1.2383-0.058593 1.125-0.16016 0.78125-0.67578-0.007812-1.5117 0.80469-1.4922 0.14062-1.0273-0.16797-2.5664 0.050781-1.7969 0.41016-1.4922 0.79688-1.4609 0.71875-0.875 1.0781-0.64062 1.1055-0.46484h1.3125l1.3594 0.28516 1.1562 0.48828 1.1055 0.35938 1-0.20703 1.1328-0.4375 1-0.35938 1.5156 0.078125 1.7734 0.050782 1.6445-0.4375 0.97266-0.79688 1.6719-0.97266 1.4883-0.59375 1.6953-1.4023 1.207-1.3711 0.82422-1.3867 0.89844-0.97656 1.9258-0.97656 1.1562-0.61719 1.5312-0.18359 2.4492-0.17578 1.6445 0.10547 2.0039-0.027343 1.1055-0.33203 1.668-1.3633 1.9023-1.5391 1.5156-1.2344 0.97656-1.543 0.25391-1.2812-0.20312-1.543-0.027344-2.1836 0.4375-2.7227 0.22656-2.4492 0.85156-1.7383 1.4375-1.9258 1.1289-1.3906 0.54297-1.6406 0.074219-1.6953 0.69531-0.89844 1.3359-0.35938 1.2383 1.3711 1.3047 2.043 1.4883 1.0547 1.6445 1.0547 0.95312 0.5 1.0078 0.54297 1.25 0.035156 1.1953-0.59766 2.9414-2.4336 1.4375-1.875 1.4883-1.6445 0.82422-0.61719 1.668-0.53906 1.543-0.35938 1.3984-0.91016 1.5664-1.1484 1.4023-1.5898 0.64062-1.207 0.84766-1.4102 1.4609-1.2109 0.77344-0.92188 1.3867-0.97656 1.2344-0.4375 1-0.078125 1.6445 0.078125 1.7461 0.41016 2.6484 0.72266 2.6445 0.94922 1.207 0.29297 2.082 0.45312 1.0781-0.12891 0.83984-0.91016 0.98438-1.9922 0.71875-1.6719 2.0352-4.2969 1.5742-2.2812 2.1172-2.4414 0.99609-1.6367 0.8125-1.6133 0.71094-1.2656 0.46875-1.0391 0.44922-1.2852 0.41797-1.6992-0.035157-1.9922-0.28906-1.1875-0.76953-0.86719-1.1562-0.60938-1.9883-0.57812-1.7344-0.12891-1.8945-0.41797-2.375-0.44922-1.2305-0.27734-1.2109-0.26953-1.4141-0.92969-0.74219-1.2109-1.2461-2.2578-1.1914-1.0586-0.875 0.49609-1.3047 0.98047-1.0625 0.54688-1.043 0.125-1.6211-0.70312-1.4141-1.1875-1.1211-2.2812-0.53516-1.9219-0.36328-1.1602-0.86719-2.1172-0.28906-1.4141v-1.8281l0.48047-1.1562 0.73828-1.832 0.64062-0.96094 0.96094-1.7656 0.097656-2.0117-0.23828-1.9141-0.58984-2.3984 3.1875-0.10938 0.875 0.53516 1.0117 0.67969 0.59766 1.1602 0.81641 0.60547 1.9883 0.64062 2.5508-0.14844 1.8633 0.46484 1.3125 0.32812 1.1094-0.48438 1.2461 0.57031 1.4688 0.20312h1.1875l1.3633-0.058594 1.3125 0.34766 1.8047-0.44531 1.3125 0.23047 2.1953 0.28906 1.5625-0.44531 1.1367-0.52734 0.78516-0.65234 1.4766-0.83203 0.62109-1.1094 1.4102-0.63281 2.5312-0.49609 1.9727-0.83203 1.5039-0.80859 0.53516-0.875 1.793-2.0586 1.2227-1.375 1.1445-0.48828 0.85938-0.73438 1.0312-0.32031 1.1328-0.65234 1.6992-1.1094 1.082-0.12891 1.0625-0.84375 0.98438-0.42969 0.99609-0.72656 1.1133-0.007813 1.0156 0.37109 1.1094-0.17969 1.2852-0.94922 1.5586-0.6875 0.91016-0.65234 1.0234-0.95312 0.97266-1.4375 0.57031-1.3711 0.023438-1.1055 0.70312-0.71875 0.68359-0.88281 0.5625-1.0234 1.3438 0.23047 1.2812-0.63672 1.9453-0.55078 1.0742-0.25781 1.2891-0.46094 1.2852-0.29688 1.3203-0.26172 1.7891-0.64062 2.5664-1.4414 1.9102-0.96484 1.9453-0.67188 1.3672-0.78906 1.6289-1.2031 1.2734-0.76562 1.4141-0.60156 1.8711-0.35938z" fill="#ccc" fill-rule="evenodd"/>
<path d="m203.22 99.859 1.2461 0.074219 1.4062 0.5625 2.5 1.4688 1.0781 1.1758 1.2969 1.1484 1.4609 0.91406 1.2617 0.30078 2.9531-0.10156 3.9023-1.043 1.375-0.16406 2.625 0.046875 1.6875 0.097656 1.0625 0.55078 0.94141 0.625 0.74609 0.95703 0.75781 1.0508 2.2734 1.5234 1.7852 0.6875 2.7852 0.53906 1.6094 0.35156h1.9414l1.3672-0.12109 1.9453-0.88672 2.7812-1.6562 1.3867-1.4883 1.0898-1.1836 1.582-2.3281 0.83594-0.57422 1.8438 0.44141 3.7617 2.5156 2.8828 1.1875 0.94141 0.35156 1.3906 0.63672 1.9688 1.2188 1.9883 1.2344 1.2578 0.85156 1.543 1.4492 2.0664 2.1797 0.73438 1.5859 0.19141 1.832 0.058593 1.7969-0.46094 1.6797-1.1016 2.6094-0.87109 1.9883-2.0273 1.9883-2.0469 1.6797-1.9883 0.92969-1.582 0.76953-1.4297 0.8125-1.2188 1.332-0.94531 1.6992-1.2344 2.3164-1.4492 2.2422-0.73438 1.1953-0.46484 1.6836-0.73438 1.7539-0.61719 1.2773-0.52734 1.2891-0.33984 3.1523 0.058594 1.6406 0.37891 1.2734 0.10156 1.3164-0.21094 1.2148-0.77344 1.0234-1.1211 0.83203-1.1172 0.86719-1.2188 1.0039-1.0234 1.332-0.69531 2.1445-0.17969 1.0195 0.81641 1.2109 0.625 0.89062 1.4375 0.83594 0.53516 1.0312 0.39844 0.98047 0.089843 1.3281-0.35547 1.4883 0.18359 1.2617-0.59766 1.0312-0.66797 0.89844-0.074218 1.4375-0.27734 0.97266-0.45703 1.5273-0.51953 1.3555 0.035157 1.5117 0.34375 1.1797-0.32812 1.082-0.007813 1.2695-0.60547 1.2695 0.050782 1.0078 0.10156 1.1484 0.83203 0.64062 0.3125 0.98438-0.74219 1.2969-0.73438 0.72656-0.41406 1.0391-0.59375 1.2383-0.40234 1.6992-0.33203 1.0547-1.2969 1.2734-0.40234 1.2031 0.58594 1.0664-0.52734 1.2109-0.78516 0.62109-1.1406 1.0742-1.7812 1.7969-0.95703 0.82812-1.0742 1.0547-1.0469 0.77734-0.96484 0.95703-0.48828 1.1445-0.46094 1.1406 0.45312 2.0625-1.1406 0.94922-1.5898 0.83594-1.3047 0.37891-1.4023 0.60156-1.7617 0.035156-1.3594-0.15234-1.1133 0.76172-0.85156 0.88281-1.0234 0.29688-0.97266 0.98047-1.4453 1.3789-0.97656 0.92188-2.7266 1.0156-1.4141 0.1875-1.043-0.76562-0.76172-1.0703-1.625-1.293-1.6211-1.0469-1.0469-1.0391-0.57812-0.91406-0.96484-0.80078-0.92578-0.43359-1.3555-0.039063-1.1523-0.98828-0.69531-1.6211-0.67969-0.98828-0.76172-0.78125-0.83984-0.69922-0.98828-0.53125-0.78125-0.76172-0.67578-0.80078-0.92578-0.88281-0.69922-0.92578-0.76172-1.0898-2.0547-1.293-1.1289-0.33203-2.5078-0.35156-1.9922-0.33594-1.1914-0.03125-1.7266 0.57812-0.72266 1.5938-0.53125 3.0078-0.57422 3.9023-0.10547 2.3242-0.24609 1.457-0.32812 1.1719 0.14453 1.0273 0.26562 1.0078-0.019531 1.6016-0.28906 1.1328-0.16406 1.2734-0.18359 1.2539-0.10156 1.2539-0.39062 1.3125-0.78125 1.0078-1.0078 1.0703-1.1484 0.90234-0.67188 1.4922-0.007813 1.7344 0.39062 1.1094 0.59375 1.1094-0.22266 1.0273-1.1719 1.1914-0.66016 1.1523-0.53125 1.1719-0.30859 1.2305-0.78125 2.5703-0.35156 1.6445-0.39062 1.4805-0.18359 1.2109-0.37109 0.98438-1.0273 0.16797-1.0664-1.1523-1.0938-0.59375-1.7227-0.25-1.6016 0.69922-1.6719 0.40234-1.9648-0.09375-1.582 0.22656-0.94531 0.37109-0.96875 0.41016-1.4375 2.2617-0.49219 0.94141-0.63672 1.1953-1.5625 0.73828-1.9102-0.042969-1.9102 0.023437-1.6641 0.23047-1.4609 0.11719-1.7461 0.53516-0.98828 0.78125-1.6445 0.55469-1.2109 0.10156-1.3281-0.10156-1.2109-0.19531-1.9609 0.29688-2.0352 0.90625-1.6367 0.83594-2.043 1.918-1.293 1.5586-0.59766 0.84766-0.77734 1.1055-0.76172 1.1719-1.1914 0.98438-0.94531 0.72266-1.8516 0.41016-1.5 0.14453-1.9727 1.457-1.0664 0.98828-1.6211 0.76953-1.8945-0.11328-1.0664 0.34766-0.98828 0.51562-1.0781 0.45312-1.5312 0.082032-1.3984-0.20703-1.3359-1.582-0.39062-1.625-0.12109-1.168-0.41016-1.9727-1.0508-1.1094-1.293-0.49609-1.2734-0.24609-1.0898-0.14453-0.96875 0.41797-1.6016 0.87891-1.1484 0.10156-1.1289-0.55469-1.8906-1.2734-1.2148-0.24609-1.1914-0.32812-1.0078-0.042969-1.3555 0.96484-2.1367 0.042969-1.6836-0.24609-1.5195-0.14453-1.25 0.015625-1.0938 0.10547-0.96875 1.4805-0.57422 1.9727-1.125 1.6211-0.82812 1.1133-0.92188 0.82031-0.86328 0.80078-0.59766 2.6523-0.10547 1.0859-0.26562 2.0156-0.058594 1.707-0.69922 1.8086-0.28906 1.0273-0.78125 1.2734-1.6445 0.59766-2.0938 0.71875-1.6484 1.7656-0.93359 1.8984-0.70703 1.3906-0.92578 1.1289-1.6016 1.0273-1.4805 0.26953-2.3633 0.53125-1.1953 0.20703-1.25-0.26172-2.8555-0.21094-1.457-0.16406-1.2539 0.0625-1.1328 0.22656-1.2344 0.27344-1.4141-0.007812-1.4805-0.41016-1.0469 0.80078-0.66016 1.375-0.30859 1.6445 0.19531 1.4102-1.0781 0.37891-1.5391 0.22656-1.8711 0.039063-1.3555-0.058594-2.0156-0.67969-1.2734-0.37109-2.2812 0.49219-1.3125 0.59766-1.0312 0.47266-1.293 0.042968-1.4375-0.023437-1.5-0.14453-1.1172-0.19141-1.7383-0.25781-1.3984-0.14453-1.3555-0.35156-0.96094-0.73828-1.4648-0.94531-1.0898-0.86328-0.85547-0.69531-1.2383-0.3125-1.5234-0.14062-1.0195 0.019531-1.3086 0.29688-1.0391 0.23828-1.2969 0.26562-0.87891-0.58594-0.23047-1.1875 0.4375-0.96484-0.22656-0.99609-0.55469-1.1523-0.63672-1.1953-0.66406-0.8125-0.38281-1.0039-0.1875-1.0664-0.66016-1.1094-0.42188-1.0469-0.42578-1.0234-0.12109-1.1953 0.22656-1.2539-0.054688-1.4453-0.48828-1.0898-0.62109-0.79297-0.87891-0.96094-0.87891-0.66797-0.66406-0.96094-0.035156-1.2148 0.84766-0.78125 0.95703-0.92969 0.87109-0.91016 0.89062-0.71484 0.42188-1.0117 0.26172-1.1328 0.89062-0.76172 1.0664-0.77734 0.99609-0.86719 1.0039-1.0352 0.92969-0.46094 0.87109-1.1445 0.54688-0.95312 0.78516-0.78125 1.082-0.48438 0.95312-0.56641 0.93359-0.78125-0.011719-1.3203 0.50391-1.1016 0.63281-0.99609-0.29297-1.1953-0.12109-1.1719 0.17969-1.082 0.39844-0.95703 0.91406-1.2891 1-0.84766 0.65625-1.3555 1.0977-0.67188 1.2383-0.058593 1.125-0.16016 0.78125-0.67578-0.007812-1.5117 0.80469-1.4922 0.14062-1.0273-0.16797-2.5664 0.050781-1.7969 0.41016-1.4922 0.79688-1.4609 0.71875-0.875 1.0781-0.64062 1.1055-0.46484h1.3125l1.3594 0.28516 1.1562 0.48828 1.1055 0.35938 1-0.20703 1.1328-0.4375 1-0.35938 1.5156 0.078125 1.7734 0.050782 1.6445-0.4375 0.97266-0.79688 1.6719-0.97266 1.4883-0.59375 1.6953-1.4023 1.207-1.3711 0.82422-1.3867 0.89844-0.97656 1.9258-0.97656 1.1562-0.61719 1.5312-0.18359 2.4492-0.17578 1.6445 0.10547 2.0039-0.027343 1.1055-0.33203 1.668-1.3633 1.9023-1.5391 1.5156-1.2344 0.97656-1.543 0.25391-1.2812-0.20312-1.543-0.027344-2.1836 0.4375-2.7227 0.22656-2.4492 0.85156-1.7383 1.4375-1.9258 1.1289-1.3906 0.54297-1.6406 0.074219-1.6953 0.69531-0.89844 1.3359-0.35938 1.2383 1.3711 1.3047 2.043 1.4883 1.0547 1.6445 1.0547 0.95312 0.5 1.0078 0.54297 1.25 0.035156 1.1953-0.59766 2.9414-2.4336 1.4375-1.875 1.4883-1.6445 0.82422-0.61719 1.668-0.53906 1.543-0.35938 1.3984-0.91016 1.5664-1.1484 1.4023-1.5898 0.64062-1.207 0.84766-1.4102 1.4609-1.2109 0.77344-0.92188 1.3867-0.97656 1.2344-0.4375 1-0.078125 1.6445 0.078125 1.7461 0.41016 2.6484 0.72266 2.6445 0.94922 1.207 0.29297 2.082 0.45312 1.0781-0.12891 0.83984-0.91016 0.98438-1.9922 0.71875-1.6719 2.0352-4.2969 1.5742-2.2812 2.1172-2.4414 0.99609-1.6367 0.8125-1.6133 0.71094-1.2656 0.46875-1.0391 0.44922-1.2852 0.41797-1.6992-0.035157-1.9922-0.28906-1.1875-0.76953-0.86719-1.1562-0.60938-1.9883-0.57812-1.7344-0.12891-1.8945-0.41797-2.375-0.44922-1.2305-0.27734-1.2109-0.26953-1.4141-0.92969-0.74219-1.2109-1.2461-2.2578-1.1914-1.0586-0.875 0.49609-1.3047 0.98047-1.0625 0.54688-1.043 0.125-1.6211-0.70312-1.4141-1.1875-1.1211-2.2812-0.53516-1.9219-0.36328-1.1602-0.86719-2.1172-0.28906-1.4141v-1.8281l0.48047-1.1562 0.73828-1.832 0.64062-0.96094 0.96094-1.7656 0.097656-2.0117-0.23828-1.9141-0.58984-2.3984 3.1875-0.10938 0.875 0.53516 1.0117 0.67969 0.59766 1.1602 0.81641 0.60547 1.9883 0.64062 2.5508-0.14844 1.8633 0.46484 1.3125 0.32812 1.1094-0.48438 1.2461 0.57031 1.4688 0.20312h1.1875l1.3633-0.058594 1.3125 0.34766 1.8047-0.44531 1.3125 0.23047 2.1953 0.28906 1.5625-0.44531 1.1367-0.52734 0.78516-0.65234 1.4766-0.83203 0.62109-1.1094 1.4102-0.63281 2.5312-0.49609 1.9727-0.83203 1.5039-0.80859 0.53516-0.875 1.793-2.0586 1.2227-1.375 1.1445-0.48828 0.85938-0.73438 1.0312-0.32031 1.1328-0.65234 1.6992-1.1094 1.082-0.12891 1.0625-0.84375 0.98438-0.42969 0.99609-0.72656 1.1133-0.007813 1.0156 0.37109 1.1094-0.17969 1.2852-0.94922 1.5586-0.6875 0.91016-0.65234 1.0234-0.95312 0.97266-1.4375 0.57031-1.3711 0.023438-1.1055 0.70312-0.71875 0.68359-0.88281 0.5625-1.0234 1.3438 0.23047 1.2812-0.63672 1.9453-0.55078 1.0742-0.25781 1.2891-0.46094 1.2852-0.29688 1.3203-0.26172 1.7891-0.64062 2.5664-1.4414 1.9102-0.96484 1.9453-0.67188 1.3672-0.78906 1.6289-1.2031 1.2734-0.76562 1.4141-0.60156 1.8711-0.35938 0.94141 0.007812" fill="none" stroke="#fff" stroke-linecap="round" stroke-linejoin="round" stroke-miterlimit="10" stroke-width="2"/>
<path d="m344.51 19.914 0.82422 0.11328 1.5625 1.5586 2.3789 1.8242 2.1641 0.87891 1.7148 0.35938 2.3555 0.23828 3.1406 0.070312 3.7578-0.35547 2.2383-0.53906 2.5664-0.74609 1.2617-0.59766 1.0469-0.16406 1.0938 0.28516 1.2617 1.5234 1.6172 1.2852 0.78516 0.6875 0.42969 1.4062 0.57031 1.6641 1 1.4258 1.1641 1.5742 0.92969 1.6641 0.33203 1.0234 1.7383 0.61719 1.2617 0.070312 1.6641 0.19141h1.5l1.5234-1.6641 1.6719-1.5078 2.3008-1.1094 1.6641-0.88281 1.4766-0.1875 1.0703 0.16406 1.6641 0.64453 2.0234 0.66406 1.2148 1.0469 1.0703 1.332 1.2852 1.0742 1.4023 1.0195 0.83203 0.66797 1.4297 0.92969 0.94922 0.82812 2.4531 2.1914 0.90234 0.47656 1.1914 0.26953 1.1875 0.25391 1.4062 0.046875 1.3789 0.87891 0.97656 0.45312 1.6172-0.54688 1.1836-0.80469 1.7891-0.67188 1.1914-0.40234 1.832-0.21484 2.4258-0.45312 1.7148-0.66406 1.5938-1.2148 1.0469-0.83203 1.2109-0.73828 0.94531-0.34375 1.418 0.082032 1.293-0.27734 1.2852 0.94531 1.1055 1.5898 1.1406 2.3906 1.3164 1.7734 0.86328 0.69531 1.0859 0.79688 1.9023 0.78516 1.7969 0.22656 1.7344-0.18359 1.1992-0.16406 1.957 0.16406 1.1094-0.45703 1.7305-0.49609 1.0039-0.089844 1.332 0.48438 0.4375 0.93359 0.34375 1.5391 0.45312 1.0703 1.1875 0.87891 1.2188 0.69922 1.1562 0.67969 0.5 2.1523 0.082031 1.6016 0.22266 1.1211 0.96484 1.6328 0.28125 1.4727-0.03125 1.457 0.09375 1.5234-0.03125 1.2227 0.046875 1.5234 0.16406 1.5078 0.6875 1.043 1.043 0.53516 1.1328 0.62891 0.98047 0.82812 1.1172 1.2969 0.42969 1.1484-0.36328 1.25 0.47656 1.3789 1.0938 1.1836 0.87891 0.85156 0.77734 0.77734 0.82422 0.80859 0.66016 0.99609 0.66406 1.0664 1.2422 1.9141 0.57422 1.0977-0.007813 1.3672 0.75781 0.78906 0.71484 0.80078 0.26172 1.1797-0.71484 1.4648-0.67188 1.3281-0.43359 1.1719-0.65625 1.0859-1.5195 0.56641-2.9531 2.3242-0.77344 0.76953 0.56641 1.3242 1.0859 0.92969 0.91797 1.1562 0.6875 0.97656 1.2031 2.0781 0.52734 1.6094 4.0156 8.1602 1.0078 1.8047 1.2148 1.8398 1.2617 1.8945 0.85156 1.0156 2.125 0.55859 2.2148 0.25781 3.2461-0.76953 2.0312-0.99609 1.0547-0.25 1.5156 0.37891 0.12109 1.832 0.003906 1.832 0.35547 2.0547 0.089843 1.1523 0.21875 1.5391 0.26562 1.5352 0.12109 1.0078 0.19922 0.99219 0.16406 1.1719 0.1875 1.0195 0.37109 0.94141 0.91406 0.91016 0.41016 1.0898 0.078125 1.0781 0.054687 1.1016 0.29297 1.2422 0.26562 1.0508 0.26172 1.6641-0.09375 1.457-0.29688 0.96875-1.1953 1.3086-1.9883-0.015625-1.2305 0.35156-1.0781 0.71484-0.48438 1.1289-0.097656 1.2148-0.58203 0.89453 0.54297 1.0977 0.64844 1.2539 0.074219 1.1836 0.65625 0.94141 0.30078 1.3477 0.60938 1.4023 0.55078 1.1914-0.18359 1.4375-0.125 1.1016-1.2344 0.35938h-1.1367l-1.1836 0.085937-1.8867-0.25-1.4766-0.70312-1.3047-0.54297-1.3555-0.41406-1.375 0.011719-1.1562 0.49219-0.77734 1.2734-1.457 1.4727-1.0195 0.68359-0.82422 1.0273-0.85547 1.0352-0.98047-0.36328-0.66797-0.90625-2.2148-1.457-1.3164-1.1836-1.1367-0.65625-1.0977-0.48438-1.0625-0.28516-0.83203-0.83203-0.64453-2.7383-0.61328-2.1016-1.0547-0.26562h-1.2695l-1.3125-0.26172-0.96484-0.35156-1.5781-0.21875-1.0938 0.26562-1.2734-0.52734-2.6719-1.0508-1.9258-0.21875-1.9727-0.089844-1.7969-1.0508-1.4023-1.9258-2.3242-2.2383-0.64453-1.1055-0.58203-2.8711-0.48047-0.97266-1.7344-1.8594-0.58594-0.82422-0.74609-1.0859-1.0547-2.0156-1.3047-1.3828-1.0039-0.91797-1.4531-1.0781-1.3984-0.16797-2.5938 0.40234-2.332-0.097656-1.168-0.32812-1.9766-0.72266-1.2578-0.57422-1.1523 1.3633-0.52734 0.96484-0.96094 1.0508-0.78906 1.0078-1.0234 0.38672-0.9375-0.46875-0.96484-0.46875-1.0898-0.96484-1.5898-0.75781-1.0273-0.86328-0.3125-1.7109-0.69141-0.90234-1.4258-0.625-1.4336-0.34375-1.4961 0.03125-1.9883 0.20703-1.6172 0.30078-1.6602 0.80078-1.2148 1.1523-1.7109 2.2148-1.1367 1.7031-1.5312-1.9688-1.6484-2.8281-0.85938-1.793-0.76953-0.90234-1.8164-1.4375-3-1.8516-2.2578-1.4648-1.2891-0.13281-1.1445 0.41797-0.92578 0.5625-1.6914 1.0469-1.3594 0.71875-1.3242 0.89453-2.793-0.35938-1.543-0.42969-1.3594-0.5-1.3359-0.60547-2.1758 0.03125-1-0.53516-0.63281-1.4727-0.10547-3.1094-0.53516-1.9961-0.94141-2.1992-2.3594-3.2148-0.64062-1.3711-0.30078-1.2422 0.074218-1.1953 0.44141-2.0625 2-4.4648 0.76172-2.7852 0.011719-1.8906-0.51562-1.7734-0.25781-1.0312-0.12891-1.1055 0.23438-1.5 0.10547-1.3008-1.043 0.20703-0.84766 0.75-1.1719 1.043-0.99219 0.69922-1.4336-0.042969-1.4375-0.039062-1.0391-0.007813-1.9492 0.37109-2.2773 1.1562-1.543 0.50391-1.6328 0.23828-1.1641 0.39453-1.2148-0.097656-1.3438 0.46875-1.0234 0.42969-1.4961 0.14062-1.3516-0.12109-1.1836-0.019531-1.0391-0.28125-0.92188-0.48438-1.2734-0.10938-2.2773-0.22266-1.3789-0.26953-1.5352 0.46094-0.77344 0.81641-0.50391 1.0234-0.81641 0.68359-0.76172 0.89453-0.70703 1.9805-0.6875 1.375-1.2891 0.77734-1.9805 1.7109-0.81641 0.80469-0.88281 0.48047-1.2773 0.74219-0.89453 0.79297-0.84766 1.0156-0.80859 0.94141-0.49609 1.082-0.18359 1.8633-0.55078 0.96484-1.3711 1.3789-0.85938 0.77734-1.1133 0.66797-0.70703 1.0547-1.0742 0.28906-1.1484-0.37109-1.3945-1.418-1.0977-1.3555-0.92578-0.56641-1.3008-0.42969-1.0586-0.54688-1.543-0.97266-1.1133-0.26562-0.93359-0.63281-0.63672-0.90234-0.83984-1.707-0.80859-1.6914-0.73828-2.4023-0.35938-1.0938-1.1641-1.4062-1.1602-1.3008-0.80078-1.8359-0.5625-1.7852 0.40625-2.0078 0.87891-2.3477 0.33594-1.5703 0.11719-1.2617 0.19141-1.2852 0.11719-1.1406-0.21484-1.168-0.76172-1.6836 0.66797-0.95703 1.0039-0.34375 1.2578-0.60547 1.9258-0.55078 1.1406-0.42578 0.97656-1.168 0.45312-1.8555 0.023438-1.3555-0.070313-2.2109-0.40625-1.1914-0.40234-1.5 0.60547-1.2109 2.2734-0.45312 1.2695-0.82812 0.50781-0.86719 0.60156-2.2148-0.10547-2.2578-0.22656-1.4922-0.90234-1.5312-0.83594-2.3711-0.046875-1.2852-0.45312-1.5-0.75781-1.418-1.168-1.7422-1.4297-1.375 2.2852 0.074218 2.2969-0.40234 3.2422-1.4727 2.6914-1.4336 1.9688-0.60938 1.9023-0.035157 1.3984 0.14453 3.6797 0.28516 1.3555-0.37891 1.5234-1.2344 1.1836-1.6133 0.5625-1.1289-0.45703-2.9219-0.45703-1.8359-0.14453-1.1641 0.76172-1 1.2383-1 0.80859-0.73828-0.71484-1.8047-0.5-1.168 0.12109-1.1172 1.9961-1.6914 1.332-0.6875 1.8086-0.47656 2.7383-1.4023 1.5469-1.3359 1.2344-1.293 0.76172-0.80078 0.65234-1.0938 1.1797-1.1641z" fill="#ccc" fill-rule="evenodd"/>
<path d="m344.51 19.914 0.82422 0.11328 1.5625 1.5586 2.3789 1.8242 2.1641 0.87891 1.7148 0.35938 2.3555 0.23828 3.1406 0.070312 3.7578-0.35547 2.2383-0.53906 2.5664-0.74609 1.2617-0.59766 1.0469-0.16406 1.0938 0.28516 1.2617 1.5234 1.6172 1.2852 0.78516 0.6875 0.42969 1.4062 0.57031 1.6641 1 1.4258 1.1641 1.5742 0.92969 1.6641 0.33203 1.0234 1.7383 0.61719 1.2617 0.070312 1.6641 0.19141h1.5l1.5234-1.6641 1.6719-1.5078 2.3008-1.1094 1.6641-0.88281 1.4766-0.1875 1.0703 0.16406 1.6641 0.64453 2.0234 0.66406 1.2148 1.0469 1.0703 1.332 1.2852 1.0742 1.4023 1.0195 0.83203 0.66797 1.4297 0.92969 0.94922 0.82812 2.4531 2.1914 0.90234 0.47656 1.1914 0.26953 1.1875 0.25391 1.4062 0.046875 1.3789 0.87891 0.97656 0.45312 1.6172-0.54688 1.1836-0.80469 1.7891-0.67188 1.1914-0.40234 1.832-0.21484 2.4258-0.45312 1.7148-0.66406 1.5938-1.2148 1.0469-0.83203 1.2109-0.73828 0.94531-0.34375 1.418 0.082032 1.293-0.27734 1.2852 0.94531 1.1055 1.5898 1.1406 2.3906 1.3164 1.7734 0.86328 0.69531 1.0859 0.79688 1.9023 0.78516 1.7969 0.22656 1.7344-0.18359 1.1992-0.16406 1.957 0.16406 1.1094-0.45703 1.7305-0.49609 1.0039-0.089844 1.332 0.48438 0.4375 0.93359 0.34375 1.5391 0.45312 1.0703 1.1875 0.87891 1.2188 0.69922 1.1562 0.67969 0.5 2.1523 0.082031 1.6016 0.22266 1.1211 0.96484 1.6328 0.28125 1.4727-0.03125 1.457 0.09375 1.5234-0.03125 1.2227 0.046875 1.5234 0.16406 1.5078 0.6875 1.043 1.043 0.53516 1.1328 0.62891 0.98047 0.82812 1.1172 1.2969 0.42969 1.1484-0.36328 1.25 0.47656 1.3789 1.0938 1.1836 0.87891 0.85156 0.77734 0.77734 0.82422 0.80859 0.66016 0.99609 0.66406 1.0664 1.2422 1.9141 0.57422 1.0977-0.007813 1.3672 0.75781 0.78906 0.71484 0.80078 0.26172 1.1797-0.71484 1.4648-0.67188 1.3281-0.43359 1.1719-0.65625 1.0859-1.5195 0.56641-2.9531 2.3242-0.77344 0.76953 0.56641 1.3242 1.0859 0.92969 0.91797 1.1562 0.6875 0.97656 1.2031 2.0781 0.52734 1.6094 4.0156 8.1602 1.0078 1.8047 1.2148 1.8398 1.2617 1.8945 0.85156 1.0156 2.125 0.55859 2.2148 0.25781 3.2461-0.76953 2.0312-0.99609 1.0547-0.25 1.5156 0.37891 0.12109 1.832 0.003906 1.832 0.35547 2.0547 0.089843 1.1523 0.21875 1.5391 0.26562 1.5352 0.12109 1.0078 0.19922 0.99219 0.16406 1.1719 0.1875 1.0195 0.37109 0.94141 0.91406 0.91016 0.41016 1.0898 0.078125 1.0781 0.054687 1.1016 0.29297 1.2422 0.26562 1.0508 0.26172 1.6641-0.09375 1.457-0.29688 0.96875-1.1953 1.3086-1.9883-0.015625-1.2305 0.35156-1.0781 0.71484-0.48438 1.1289-0.097656 1.2148-0.58203 0.89453 0.54297 1.0977 0.64844 1.2539 0.074219 1.1836 0.65625 0.94141 0.30078 1.3477 0.60938 1.4023 0.55078 1.1914-0.18359 1.4375-0.125 1.1016-1.2344 0.35938h-1.1367l-1.1836 0.085937-1.8867-0.25-1.4766-0.70312-1.3047-0.54297-1.3555-0.41406-1.375 0.011719-1.1562 0.49219-0.77734 1.2734-1.457 1.4727-1.0195 0.68359-0.82422 1.0273-0.85547 1.0352-0.98047-0.36328-0.66797-0.90625-2.2148-1.457-1.3164-1.1836-1.1367-0.65625-1.0977-0.48438-1.0625-0.28516-0.83203-0.83203-0.64453-2.7383-0.61328-2.1016-1.0547-0.26562h-1.2695l-1.3125-0.26172-0.96484-0.35156-1.5781-0.21875-1.0938 0.26562-1.2734-0.52734-2.6719-1.0508-1.9258-0.21875-1.9727-0.089844-1.7969-1.0508-1.4023-1.9258-2.3242-2.2383-0.64453-1.1055-0.58203-2.8711-0.48047-0.97266-1.7344-1.8594-0.58594-0.82422-0.74609-1.0859-1.0547-2.0156-1.3047-1.3828-1.0039-0.91797-1.4531-1.0781-1.3984-0.16797-2.5938 0.40234-2.332-0.097656-1.168-0.32812-1.9766-0.72266-1.2578-0.57422-1.1523 1.3633-0.52734 0.96484-0.96094 1.0508-0.78906 1.0078-1.0234 0.38672-0.9375-0.46875-0.96484-0.46875-1.0898-0.96484-1.5898-0.75781-1.0273-0.86328-0.3125-1.7109-0.69141-0.90234-1.4258-0.625-1.4336-0.34375-1.4961 0.03125-1.9883 0.20703-1.6172 0.30078-1.6602 0.80078-1.2148 1.1523-1.7109 2.2148-1.1367 1.7031-1.5312-1.9688-1.6484-2.8281-0.85938-1.793-0.76953-0.90234-1.8164-1.4375-3-1.8516-2.2578-1.4648-1.2891-0.13281-1.1445 0.41797-0.92578 0.5625-1.6914 1.0469-1.3594 0.71875-1.3242 0.89453-2.793-0.35938-1.543-0.42969-1.3594-0.5-1.3359-0.60547-2.1758 0.03125-1-0.53516-0.63281-1.4727-0.10547-3.1094-0.53516-1.9961-0.94141-2.1992-2.3594-3.2148-0.64062-1.3711-0.30078-1.2422 0.074218-1.1953 0.44141-2.0625 2-4.4648 0.76172-2.7852 0.011719-1.8906-0.51562-1.7734-0.25781-1.0312-0.12891-1.1055 0.23438-1.5 0.10547-1.3008-1.043 0.20703-0.84766 0.75-1.1719 1.043-0.99219 0.69922-1.4336-0.042969-1.4375-0.039062-1.0391-0.007813-1.9492 0.37109-2.2773 1.1562-1.543 0.50391-1.6328 0.23828-1.1641 0.39453-1.2148-0.097656-1.3438 0.46875-1.0234 0.42969-1.4961 0.14062-1.3516-0.12109-1.1836-0.019531-1.0391-0.28125-0.92188-0.48438-1.2734-0.10938-2.2773-0.22266-1.3789-0.26953-1.5352 0.46094-0.77344 0.81641-0.50391 1.0234-0.81641 0.68359-0.76172 0.89453-0.70703 1.9805-0.6875 1.375-1.2891 0.77734-1.9805 1.7109-0.81641 0.80469-0.88281 0.48047-1.2773 0.74219-0.89453 0.79297-0.84766 1.0156-0.80859 0.94141-0.49609 1.082-0.18359 1.8633-0.55078 0.96484-1.3711 1.3789-0.85938 0.77734-1.1133 0.66797-0.70703 1.0547-1.0742 0.28906-1.1484-0.37109-1.3945-1.418-1.0977-1.3555-0.92578-0.56641-1.3008-0.42969-1.0586-0.54688-1.543-0.97266-1.1133-0.26562-0.93359-0.63281-0.63672-0.90234-0.83984-1.707-0.80859-1.6914-0.73828-2.4023-0.35938-1.0938-1.1641-1.4062-1.1602-1.3008-0.80078-1.8359-0.5625-1.7852 0.40625-2.0078 0.87891-2.3477 0.33594-1.5703 0.11719-1.2617 0.19141-1.2852 0.11719-1.1406-0.21484-1.168-0.76172-1.6836 0.66797-0.95703 1.0039-0.34375 1.2578-0.60547 1.9258-0.55078 1.1406-0.42578 0.97656-1.168 0.45312-1.8555 0.023438-1.3555-0.070313-2.2109-0.40625-1.1914-0.40234-1.5 0.60547-1.2109 2.2734-0.45312 1.2695-0.82812 0.50781-0.86719 0.60156-2.2148-0.10547-2.2578-0.22656-1.4922-0.90234-1.5312-0.83594-2.3711-0.046875-1.2852-0.45312-1.5-0.75781-1.418-1.168-1.7422-1.4297-1.375 2.2852 0.074218 2.2969-0.40234 3.2422-1.4727 2.6914-1.4336 1.9688-0.60938 1.9023-0.035157 1.3984 0.14453 3.6797 0.28516 1.3555-0.37891 1.5234-1.2344 1.1836-1.6133 0.5625-1.1289-0.45703-2.9219-0.45703-1.8359-0.14453-1.1641 0.76172-1 1.2383-1 0.80859-0.73828-0.71484-1.8047-0.5-1.168 0.12109-1.1172 1.9961-1.6914 1.332-0.6875 1.8086-0.47656 2.7383-1.4023 1.5469-1.3359 1.2344-1.293 0.76172-0.80078 0.65234-1.0938 1.1797-1.1641h0.019532" fill="none" stroke="#fff" stroke-linecap="round" stroke-linejoin="round" stroke-miterlimit="10" stroke-width="2"/>
<path d="m365.53 165.27 0.91016 1.0586 0.36719 1.5938 0.60547 2.9023 0.19141 1.3398 0.89453 1.1484 1.2109 1.0859 0.63672 0.99219 0.64453 0.88281 0.75391 0.85547 0.5 1.0781 0.14062 2.1719-0.30078 1.3789-0.91797 1.4922-0.875 0.71875-0.33984 1.4375 0.73828 0.93359 0.80469 1.0977 1.1211 3.1406 1.2461 2.5234 0.61719 1.4336 1.4336 3.5117 0.75781 0.81641-0.097656 1.5352-0.17188 1.1328 0.50781 1.2383-0.23828 1.5156-0.67578 1.2969-0.87891 0.73828-1.1172 1.1562-0.83594 1.4961-0.59766 0.99609-1.8945 0.39844-1.0781 0.16016-1.1094 0.55078-1.1758 1.9023-1.1172 1.7344-0.46875 1.8672-1.3203 1.543-0.89062 1.1953-0.64453 2.7812-0.30859 1.3906-1.5664 2.6836-0.66016 1.2148-0.8125 1.4883-1.6562 0.78516-1.5273 0.96875-3.793 1.8008-1.3984 0.25781-1.7305 0.039063-2.3203 0.58984h-1.1055l-2.1719-0.8125-1.2266-0.52734-1.043-0.44922-1.1914-0.38281-1.2109 0.48438-1.1094 0.91406-1.3711 0.57812-0.98828 0.41406-1.6562 0.11328-2.4336-0.10156-0.93359 0.41016-0.98828 0.42188-1.0977 0.48828-1.1758 0.36328-0.90625 0.56641-1 0.52344-1.1289 0.33594-1.207 0.34766-1.2695 0.19922-1.0156 0.015625-1-0.050781-1.0195-0.015625-1.9258 0.51172-1.6094-0.078125-1.1445-0.070313-1.082-0.023437-1.5938-0.22266-1.1289 0.55078-0.79297-0.75-0.93359-0.42969-0.91016 0.64453-1.2695 0.34766-0.77734 0.77344-1.0234 0.76953-1.0703 0.56641-1.0977-0.34375-0.98438-0.37109-1.0078-0.47266-0.9375-0.73438-0.84375-0.85156-0.79297-0.64844-1.1875-0.59766-1.2148-0.57422-1.3008-0.65234-0.93359-0.375-1.4219-0.38672-1.3945-0.17969-1.3594-0.019531-1.2539-0.039063-1.0508-0.058594-1.0469 0.19922-0.097656-1.0586 0.78125-0.72266 0.67578-1.2305 0.125-2.75 0.67969-1.1875 0.90625-1.0977 0.74219-0.77734 0.41406-1.4609 0.70703-0.95703 0.42969-1.0078 0.73438-1.2773 1.0742-0.51953 2.3867-0.14844 1.6836 0.17969 1.0625-0.32812 0.49609-0.98438-0.23047-0.98047-0.91797-0.76562-1.2422-0.44141-1.0078-0.60156-0.25391-1.125-0.48438-1.8125-0.17969-1.2773-0.48438-1.5586-0.91797-0.43359-1.0977-0.66406-1.3281-1.0469-1.6094 0.41016-1.4805-0.41016-0.28125-0.99609-0.32812-1.3047-0.46875-2.0078-0.55859-1.4336-0.35547-1.1484-0.46094-1.8164-1.4297-0.30469-1.25 0.61328-0.84375 0.89453-1.25 0.78906-1.3516 0.46094-1.1016 0.09375-1.0977-0.070313-1.1484-0.27734-1.25-0.25781-1.6094-0.35547-2.2969 0.25391-1.25 0.33203-1.3047 0.28125-1.1719-0.17969-2.2734-0.99609-1.3789-0.15234-1.1758 0.15234-0.99609 0.20703-1.8359-0.10547-1.1758 0.35938-1.2266 0.40625-1.582-0.023438-1.5547-0.43359-0.97266-0.53516-0.84375-0.84375-0.35547-2.0859-0.28516-2.5703-0.83594-2.5117-0.64453-1.3203-1.3984-0.96484 0.82422-0.94531 1.1914 0.046875 2.1133-0.44531 1.0977-0.66016 0.66797-0.77344 1.6328-1.7578 0.88281-0.80469 1.0742-0.63281 1.6914-0.51953 1.2148-0.51172 1.1445-0.96484 0.85156-0.84375 0.71875-0.89062 0.36328-1.0742 0.10547-1.875 0.4375-1.0547 1.6914-1.7422 0.72656-0.75781 1.4961-1.6992 0.79297-0.61328 0.99609-1.3359 1.0586-0.75781 1.2109-0.73828 1.1836-1.4844 0.80469-0.77734 1.1172-0.48438 3.1758 1.4531 4.1602 2.1953 3.2305 0.67578 1.6367 1.2812 0.28516 1.0898 3.0391 1.4922 1.2188 0.83594 1.1016 1.4375 0.97656 2.2578 1.1016 1.9102 1.4844 1.4492 3.7148 2.293 1.1094 1.5078 1 2.3203 1.1484 0.71875 0.60938-1.2383 0.25781-1.2852 0.66016-1.6094 0.79297-1.1992 1.0703-0.78125 0.6875-0.89453 0.41016-0.94531 0.20703-1.043 0.96484-0.60938 1.6289-0.52734 1.3789-0.14062 1.0117-0.14062 1.1406-0.75781 0.80078-0.86719 0.40234-0.94141 1.2734-0.80078 0.97266-0.60156 1.2227-0.21484 1.957-0.27344 1.4766-0.33203 1.0898-0.66016 1.0391 0.011718 1.5742 0.49219 1.0898 0.13281 1.3477-0.625 1.0625 0.082032 2.0898-0.91016 1.0742-0.41797 1.5586-1.3477 1.4102-1.082 0.99219-0.46094 2.1914 0.17188 2.9961 0.38672 2.6602 0.44531 1.3477-0.33984 2.1289-0.62109 1.4023-0.20703 2.1797 0.25781 1.4492 1.0508 2.2188 1.0195 1.4531 0.375 1.418-1.4805 0.57031-1.0938 0.89844-0.51562 1.8164-0.73438 1.2891-1.1992 0.95703-0.95703z" fill="#ccc" fill-rule="evenodd"/>
<path d="m365.53 165.27 0.91016 1.0586 0.36719 1.5938 0.60547 2.9023 0.19141 1.3398 0.89453 1.1484 1.2109 1.0859 0.63672 0.99219 0.64453 0.88281 0.75391 0.85547 0.5 1.0781 0.14062 2.1719-0.30078 1.3789-0.91797 1.4922-0.875 0.71875-0.33984 1.4375 0.73828 0.93359 0.80469 1.0977 1.1211 3.1406 1.2461 2.5234 0.61719 1.4336 1.4336 3.5117 0.75781 0.81641-0.097656 1.5352-0.17188 1.1328 0.50781 1.2383-0.23828 1.5156-0.67578 1.2969-0.87891 0.73828-1.1172 1.1562-0.83594 1.4961-0.59766 0.99609-1.8945 0.39844-1.0781 0.16016-1.1094 0.55078-1.1758 1.9023-1.1172 1.7344-0.46875 1.8672-1.3203 1.543-0.89062 1.1953-0.64453 2.7812-0.30859 1.3906-1.5664 2.6836-0.66016 1.2148-0.8125 1.4883-1.6562 0.78516-1.5273 0.96875-3.793 1.8008-1.3984 0.25781-1.7305 0.039063-2.3203 0.58984h-1.1055l-2.1719-0.8125-1.2266-0.52734-1.043-0.44922-1.1914-0.38281-1.2109 0.48438-1.1094 0.91406-1.3711 0.57812-0.98828 0.41406-1.6562 0.11328-2.4336-0.10156-0.93359 0.41016-0.98828 0.42188-1.0977 0.48828-1.1758 0.36328-0.90625 0.56641-1 0.52344-1.1289 0.33594-1.207 0.34766-1.2695 0.19922-1.0156 0.015625-1-0.050781-1.0195-0.015625-1.9258 0.51172-1.6094-0.078125-1.1445-0.070313-1.082-0.023437-1.5938-0.22266-1.1289 0.55078-0.79297-0.75-0.93359-0.42969-0.91016 0.64453-1.2695 0.34766-0.77734 0.77344-1.0234 0.76953-1.0703 0.56641-1.0977-0.34375-0.98438-0.37109-1.0078-0.47266-0.9375-0.73438-0.84375-0.85156-0.79297-0.64844-1.1875-0.59766-1.2148-0.57422-1.3008-0.65234-0.93359-0.375-1.4219-0.38672-1.3945-0.17969-1.3594-0.019531-1.2539-0.039063-1.0508-0.058594-1.0469 0.19922-0.097656-1.0586 0.78125-0.72266 0.67578-1.2305 0.125-2.75 0.67969-1.1875 0.90625-1.0977 0.74219-0.77734 0.41406-1.4609 0.70703-0.95703 0.42969-1.0078 0.73438-1.2773 1.0742-0.51953 2.3867-0.14844 1.6836 0.17969 1.0625-0.32812 0.49609-0.98438-0.23047-0.98047-0.91797-0.76562-1.2422-0.44141-1.0078-0.60156-0.25391-1.125-0.48438-1.8125-0.17969-1.2773-0.48438-1.5586-0.91797-0.43359-1.0977-0.66406-1.3281-1.0469-1.6094 0.41016-1.4805-0.41016-0.28125-0.99609-0.32812-1.3047-0.46875-2.0078-0.55859-1.4336-0.35547-1.1484-0.46094-1.8164-1.4297-0.30469-1.25 0.61328-0.84375 0.89453-1.25 0.78906-1.3516 0.46094-1.1016 0.09375-1.0977-0.070313-1.1484-0.27734-1.25-0.25781-1.6094-0.35547-2.2969 0.25391-1.25 0.33203-1.3047 0.28125-1.1719-0.17969-2.2734-0.99609-1.3789-0.15234-1.1758 0.15234-0.99609 0.20703-1.8359-0.10547-1.1758 0.35938-1.2266 0.40625-1.582-0.023438-1.5547-0.43359-0.97266-0.53516-0.84375-0.84375-0.35547-2.0859-0.28516-2.5703-0.83594-2.5117-0.64453-1.3203-1.3984-0.96484 0.82422-0.94531 1.1914 0.046875 2.1133-0.44531 1.0977-0.66016 0.66797-0.77344 1.6328-1.7578 0.88281-0.80469 1.0742-0.63281 1.6914-0.51953 1.2148-0.51172 1.1445-0.96484 0.85156-0.84375 0.71875-0.89062 0.36328-1.0742 0.10547-1.875 0.4375-1.0547 1.6914-1.7422 0.72656-0.75781 1.4961-1.6992 0.79297-0.61328 0.99609-1.3359 1.0586-0.75781 1.2109-0.73828 1.1836-1.4844 0.80469-0.77734 1.1172-0.48438 3.1758 1.4531 4.1602 2.1953 3.2305 0.67578 1.6367 1.2812 0.28516 1.0898 3.0391 1.4922 1.2188 0.83594 1.1016 1.4375 0.97656 2.2578 1.1016 1.9102 1.4844 1.4492 3.7148 2.293 1.1094 1.5078 1 2.3203 1.1484 0.71875 0.60938-1.2383 0.25781-1.2852 0.66016-1.6094 0.79297-1.1992 1.0703-0.78125 0.6875-0.89453 0.41016-0.94531 0.20703-1.043 0.96484-0.60938 1.6289-0.52734 1.3789-0.14062 1.0117-0.14062 1.1406-0.75781 0.80078-0.86719 0.40234-0.94141 1.2734-0.80078 0.97266-0.60156 1.2227-0.21484 1.957-0.27344 1.4766-0.33203 1.0898-0.66016 1.0391 0.011718 1.5742 0.49219 1.0898 0.13281 1.3477-0.625 1.0625 0.082032 2.0898-0.91016 1.0742-0.41797 1.5586-1.3477 1.4102-1.082 0.99219-0.46094 2.1914 0.17188 2.9961 0.38672 2.6602 0.44531 1.3477-0.33984 2.1289-0.62109 1.4023-0.20703 2.1797 0.25781 1.4492 1.0508 2.2188 1.0195 1.4531 0.375 1.418-1.4805 0.57031-1.0938 0.89844-0.51562 1.8164-0.73438 1.2891-1.1992 0.95703-0.95703 1.8516 0.125" fill="none" stroke="#fff" stroke-linecap="round" stroke-linejoin="round" stroke-miterlimit="10" stroke-width="2"/>
<path d="m299.99 43.434 1.2227 0.28125 0.80469 0.9375 1.1172 1.3438 3.3477 4.3984 1.4375 1.3945 1.168 1.7422 0.75781 1.418 0.45312 1.5 0.046875 1.2852 0.83594 2.3711 0.90234 1.5312 0.22656 1.4922 0.10547 2.2578-0.60156 2.2148-0.50781 0.86719-1.2695 0.82812-1.6367 0.10547-1.2383 0.67969 0.14062 1.4219 0.66406 2.1484 0.070313 2.2109-0.023438 1.3555 0.023438 1.0938-1.4531 1.9297-1.1406 0.42578-1.0469 0.33594-2.1367 0.82031-1.0039 0.34375-0.66797 0.95703 0.76172 1.6836 0.21484 1.168-0.11719 1.1406-0.15625 1.043-0.15234 1.5039-0.33594 1.5703-0.78516 1.8789-0.5 2.4766 0.40625 1.4258 0.95312 2.1875 1.1641 1.3086 1.1641 1.4062 0.35938 1.0938 0.73828 2.4023 0.80859 1.6914 0.64453 1.1133 0.57812 1.207 0.76562 0.73438 1.5352 0.45312 1.0977 0.625 1.0547 0.71094 1.3477 0.42188 1.082 0.60938 0.92969 0.75391 1.8086 2.168 1.1484 0.37109 0.61719 0.79297 1.1914 0.92578 0.28906 1.0078-0.52344 1.1133-0.97266 0.48828-0.875 0.58594-1.2148 0.56641-0.54297 1.043-1.0664 0.37109-0.57422 2.0195-0.75391 0.89453-0.93359 0.63281-1.707 1.8516-1.0078 0.60156-1.1523 0.59375-1.3047 0.875-0.84375 0.85938-0.60156 1.2539-0.44531 1.8984-0.19922 1.2695-0.19531 1.8398 0.12891 1.8984-0.97266 2.0391-0.39844 0.99219-0.50781 1.0234-0.57031 0.84766-1.2148 0.38281-1.1562 0.82422-1.3672 1.75-1.3984 1.0391-1.1445 1.0977-0.66797 0.875-0.98438 1.625-0.68359 1.0156-1.7344-0.015625 0.11719 1.0547-0.55469 0.85938 0.30469 1.1797 0.71094 0.85938 0.32031 1-0.37891 0.94922-0.88281 0.48438-1.1797 0.058593-1.2109-0.19922-1.0352-0.10547-1.0977-0.34766h-1.0977l-0.41797 1.0078-1 0.26172-1.1484-0.0625-1.0312-0.019531-1.0469-0.066407-1.0508-0.015625-1.0312 0.042969-1.0312 0.36328-1.1719 2.0273-0.058594 1.4805-0.79297 0.97266-0.78906 0.71875-1.1172 0.48438-0.80469 0.77734-0.59766 0.88281-1.6641 1.2812-0.91016 0.49219-0.67578 0.98438-0.83594 0.89062-1.3125 1.4297-1.4688 1.4258-1.0898 1.1211-0.80078 0.91016-0.34375 2.6406-0.36328 1.0742-0.71875 0.89062-0.85156 0.84375-1.1445 0.96484-0.92578 0.41406-1.3047 0.41016-1.75 0.83984-0.88281 0.80469-1.1953 1.1523-1.1055 1.3789-0.84375 0.5625-1.8086 0.51172-1.1953-0.082031-1.082 0.49219-1.1055-0.37109-0.57812-1.5586-0.050782-1.0078 0.60547-1.2695-0.058594-1.0664 0.40625-0.96484-0.35547-1.5-0.035157-1.5117 0.51953-1.3555 0.45703-1.5273 0.27734-0.97266-0.007813-1.1562 0.75-1.1797 0.59766-1.0312-0.16797-1.0156 0.27344-1.3203 0.074219-1.1133-0.42188-1.3555-0.25391-1.0039-1.0391-0.54688-0.97656-0.98047-0.79297-0.82812-0.24609-1.8828 0.41797-1.2852 1.3008-2.1914 1.2188-1.0039 1.1172-0.86719 1.1211-0.83203 0.77344-1.0234 0.21094-1.2148-0.10156-1.3164-0.37891-1.2734-0.058594-1.6406 0.19141-2.2812 0.67578-2.1602 0.61719-1.2773 0.73438-1.7539 0.46484-1.6836 0.73438-1.1953 1.4492-2.2422 1.2344-2.3164 0.94531-1.6992 1.2188-1.332 1.4297-0.8125 1.582-0.76953 1.9883-0.92969 2.0469-1.6797 2.0273-1.9883 0.87109-1.9883 1.1016-2.6094 0.46094-1.6797-0.058593-1.7969-0.19141-1.832-0.73438-1.5859-2.0664-2.1797-1.543-1.4492-1.2578-0.85156-1.9883-1.2344-1.9688-1.2188-1.3906-0.63672-0.94141-0.35156 0.48438-2.25 0.5625-0.84766 0.53906-0.84375 0.94531-1.5586 1.3047-2.0742 0.76953-0.95703 1.0234-0.17188 0.90234-0.49609 0.71094-0.88281 0.58984-1.2812 0.63672-1.4844 0.64062-1.6641 0.84375-1.457 0.82031-1.9453 0.12891-1.4336-0.078125-2.332 0.53906-1.4062 0.76562-1.3047 2.0312-0.94141 2.3711-0.28906 1.1797-0.25391 0.79297-0.66797 0.82031-2.0469 0.81641-1.0977 0.20703-1.2031-0.050782-2.2031-0.35938-1.6133-0.97266-2.6094-0.84375-2.2266v-1.8438l0.15234-3.3008 0.51172-2.3828 0.25391-1.0117 0.28516-1.1094 0.20312-1.6641 0.43359-1.3047 0.28125-1.7422-0.074219-1.3047-0.26562-1.4531-0.19531-2.5156 0.03125-2.6094 3.0859-0.26953 1.3828 0.25781 1.4766 0.27734 1.9648 0.3125 3.2656 0.9375 2.7695-0.44531 2.7266-1.3867 2.0117-0.66797 1.6523-0.44922z" fill="#ccc" fill-rule="evenodd"/>
<path d="m299.99 43.434 1.2227 0.28125 0.80469 0.9375 1.1172 1.3438 3.3477 4.3984 1.4375 1.3945 1.168 1.7422 0.75781 1.418 0.45312 1.5 0.046875 1.2852 0.83594 2.3711 0.90234 1.5312 0.22656 1.4922 0.10547 2.2578-0.60156 2.2148-0.50781 0.86719-1.2695 0.82812-1.6367 0.10547-1.2383 0.67969 0.14062 1.4219 0.66406 2.1484 0.070313 2.2109-0.023438 1.3555 0.023438 1.0938-1.4531 1.9297-1.1406 0.42578-1.0469 0.33594-2.1367 0.82031-1.0039 0.34375-0.66797 0.95703 0.76172 1.6836 0.21484 1.168-0.11719 1.1406-0.15625 1.043-0.15234 1.5039-0.33594 1.5703-0.78516 1.8789-0.5 2.4766 0.40625 1.4258 0.95312 2.1875 1.1641 1.3086 1.1641 1.4062 0.35938 1.0938 0.73828 2.4023 0.80859 1.6914 0.64453 1.1133 0.57812 1.207 0.76562 0.73438 1.5352 0.45312 1.0977 0.625 1.0547 0.71094 1.3477 0.42188 1.082 0.60938 0.92969 0.75391 1.8086 2.168 1.1484 0.37109 0.61719 0.79297 1.1914 0.92578 0.28906 1.0078-0.52344 1.1133-0.97266 0.48828-0.875 0.58594-1.2148 0.56641-0.54297 1.043-1.0664 0.37109-0.57422 2.0195-0.75391 0.89453-0.93359 0.63281-1.707 1.8516-1.0078 0.60156-1.1523 0.59375-1.3047 0.875-0.84375 0.85938-0.60156 1.2539-0.44531 1.8984-0.19922 1.2695-0.19531 1.8398 0.12891 1.8984-0.97266 2.0391-0.39844 0.99219-0.50781 1.0234-0.57031 0.84766-1.2148 0.38281-1.1562 0.82422-1.3672 1.75-1.3984 1.0391-1.1445 1.0977-0.66797 0.875-0.98438 1.625-0.68359 1.0156-1.7344-0.015625 0.11719 1.0547-0.55469 0.85938 0.30469 1.1797 0.71094 0.85938 0.32031 1-0.37891 0.94922-0.88281 0.48438-1.1797 0.058593-1.2109-0.19922-1.0352-0.10547-1.0977-0.34766h-1.0977l-0.41797 1.0078-1 0.26172-1.1484-0.0625-1.0312-0.019531-1.0469-0.066407-1.0508-0.015625-1.0312 0.042969-1.0312 0.36328-1.1719 2.0273-0.058594 1.4805-0.79297 0.97266-0.78906 0.71875-1.1172 0.48438-0.80469 0.77734-0.59766 0.88281-1.6641 1.2812-0.91016 0.49219-0.67578 0.98438-0.83594 0.89062-1.3125 1.4297-1.4688 1.4258-1.0898 1.1211-0.80078 0.91016-0.34375 2.6406-0.36328 1.0742-0.71875 0.89062-0.85156 0.84375-1.1445 0.96484-0.92578 0.41406-1.3047 0.41016-1.75 0.83984-0.88281 0.80469-1.1953 1.1523-1.1055 1.3789-0.84375 0.5625-1.8086 0.51172-1.1953-0.082031-1.082 0.49219-1.1055-0.37109-0.57812-1.5586-0.050782-1.0078 0.60547-1.2695-0.058594-1.0664 0.40625-0.96484-0.35547-1.5-0.035157-1.5117 0.51953-1.3555 0.45703-1.5273 0.27734-0.97266-0.007813-1.1562 0.75-1.1797 0.59766-1.0312-0.16797-1.0156 0.27344-1.3203 0.074219-1.1133-0.42188-1.3555-0.25391-1.0039-1.0391-0.54688-0.97656-0.98047-0.79297-0.82812-0.24609-1.8828 0.41797-1.2852 1.3008-2.1914 1.2188-1.0039 1.1172-0.86719 1.1211-0.83203 0.77344-1.0234 0.21094-1.2148-0.10156-1.3164-0.37891-1.2734-0.058594-1.6406 0.19141-2.2812 0.67578-2.1602 0.61719-1.2773 0.73438-1.7539 0.46484-1.6836 0.73438-1.1953 1.4492-2.2422 1.2344-2.3164 0.94531-1.6992 1.2188-1.332 1.4297-0.8125 1.582-0.76953 1.9883-0.92969 2.0469-1.6797 2.0273-1.9883 0.87109-1.9883 1.1016-2.6094 0.46094-1.6797-0.058593-1.7969-0.19141-1.832-0.73438-1.5859-2.0664-2.1797-1.543-1.4492-1.2578-0.85156-1.9883-1.2344-1.9688-1.2188-1.3906-0.63672-0.94141-0.35156 0.48438-2.25 0.5625-0.84766 0.53906-0.84375 0.94531-1.5586 1.3047-2.0742 0.76953-0.95703 1.0234-0.17188 0.90234-0.49609 0.71094-0.88281 0.58984-1.2812 0.63672-1.4844 0.64062-1.6641 0.84375-1.457 0.82031-1.9453 0.12891-1.4336-0.078125-2.332 0.53906-1.4062 0.76562-1.3047 2.0312-0.94141 2.3711-0.28906 1.1797-0.25391 0.79297-0.66797 0.82031-2.0469 0.81641-1.0977 0.20703-1.2031-0.050782-2.2031-0.35938-1.6133-0.97266-2.6094-0.84375-2.2266v-1.8438l0.15234-3.3008 0.51172-2.3828 0.25391-1.0117 0.28516-1.1094 0.20312-1.6641 0.43359-1.3047 0.28125-1.7422-0.074219-1.3047-0.26562-1.4531-0.19531-2.5156 0.03125-2.6094 3.0859-0.26953 1.3828 0.25781 1.4766 0.27734 1.9648 0.3125 3.2656 0.9375 2.7695-0.44531 2.7266-1.3867 2.0117-0.66797 1.6523-0.44922 0.52344 0.12109" fill="none" stroke="#fff" stroke-linecap="round" stroke-linejoin="round" stroke-miterlimit="10" stroke-width="2"/>
<path d="m249.37 190.72 0.64453 1.3203 0.83594 2.5117 0.10938 1.9258 0.19531 1.8242 1.1797 1.75 0.97266 0.53516 1.5547 0.43359 1.582 0.023438 1.2266-0.40625 1.1758-0.35938 1.8359 0.10547 0.99609-0.20703 1.1758-0.15234 1.3789 0.15234 1.5586 0.5625 1.8867 0.61328 1.3047-0.28125 1.25-0.33203 1.3008-0.25391 2.6055 0.35547 1.25 0.25781 1.1484 0.27734 1.0234 0.066406 1.1758-0.089843 1.3516-0.46094 0.94141-0.59375 1.1523-1.0898 1.25-0.61328 1.4297 0.30469 0.46094 1.8164 0.35547 1.1484 0.55859 1.4336 0.46875 2.0078 0.32812 1.3047 0.28125 0.99609 0.94531 0.51172 1.3516-0.51172 1.5586 0.41016 1.6602 1.3008 0.91797 0.43359 0.48438 1.0469 0.17969 1.7891 0.48438 1.8125 0.25391 1.125 0.89453 0.55859 1.3555 0.48438 1 0.59766 0.14844 1.1484-0.49609 0.98438-1.0625 0.32812-1.6836-0.17969-1.9844 0.066406-1.1289 0.35156-1.082 1.5273-0.42969 1.0078-0.64453 0.85156-0.32031 1.1875-0.89844 1.1562-0.90625 1.0977-0.61328 0.94922-0.19141 2.9883-0.37109 1.0469-0.98828 0.65234-0.13281 1.1055 0.14844 1.0898-0.86719 1.0664-0.89844 0.66016-0.75-2.0156-0.8125-1.5195-1.1758-2.0664-0.75781-1.4648-0.70703-1.5195-1.1797-1.1758-0.88672-0.73438-1.0742-0.078125-0.94141 0.41797-1.3867 0.8125-1.2305 1.125-1.1523 0.73438-1.4375 0.28516-1.7812-0.12891-1.9102-0.13281-1.3594 0.28906-1.1758 1.0195-1.2852 1.1016-1.8828 0.70312-2.3789 1.2578-1.3359 0.33984-1.2031 0.96875-0.47266 1.4375-0.60156 1.4922-1.3086 1.7266-1.5664 2.0273-1.1172 1.2188-1.4766 0.96875-1.3086 0.94141-1.4648 0.44531-1.5156 0.52344-1.2031 0.078125-1.7461-0.023437-1.3164 0.20703-1.2305 0.15625-0.96875 0.70703-1.5156 0.20703-0.70703 0.8125-0.10547 1.3594 0.027343 1.1016-0.89062 1.1758-0.94141 0.52344-0.99609 0.67969-1.5039 1.457-0.49219 0.94922-0.82812 1.4414-1.0469 0.41797-1.7812 0.65234-1.8828 1.0742-0.80859 0.78516-1.0742 0.49609-1.9102-0.70703-1.0469-0.3125-2.0156 0.8125-1.1484 1.4102-0.625 1.1289-0.84375 1.1211-0.70312 1.625-0.65625 2.4844-0.59766 2.2578-0.71094 2.6875 0.027344 1.4648 0.44531 1.2305-0.52344 1.9102-0.027344 1.9375 0.050781 1.4492 0.17969 3.0781 0.42578 2.7188v1.1523l-0.47266 1.0195-0.8125 1.4375-1.2031 1.4688-0.78516 1.1758-0.70703 1.2812-1.125 2.1445-0.73047 2.043-0.23438 1.3867 0.28516 1.4375 0.8125 1.3633 0.9375 2.2344 0.76172 2.0547 0.70703 1.543 0.10547 1.3867 0.44531 2.0703 1.0977 2.0898 1.4414 1.9648 2.3008 1.1523 1.0156-0.007813-0.15234 1.6289-0.18359 1.3086 0.11328 1.1602-0.34766 2.3711 0.050782 3.1914-0.15625 1.9375-0.39062 1.2539-0.65625 0.91797-1.0195 0.67969-1.8047 0.78516-2.0156 0.65234-1.8047 0.68359-1.4648 0.625-1.6484 1.0742-2.25 0.44531-1.5977 0.33984-1.543 0.49609-1.3359 0.44531-1.8047 0.73438-1.4141 1.3086-1.0352 0.70703-1.8398 1.4883-0.99609 0.8125-1.8594 0.8125-2.793 0.83984-1.5234 0.64844-1.125 1.0469-1.3086 1.3516-1.9688 1.0664-1.3789 0.51172-1.7266 0.52344-0.96875 0.5-1.1914-0.09375-0.68359-0.90234-0.59375-0.84375-1.2539-0.33594-1.0898-0.51562-0.87109-0.84766-0.90625-0.49219-1.0352-0.32422-1.1602-0.40625-1.1719-0.64453-0.94141-0.41406-1.1406-0.15234-1.1055-0.03125-1.0586-0.21094-0.97656-0.27734-1.1992 0.16016-1.2227 0.41406-0.88672-0.52734-0.96094-0.79297-0.97656-0.41406-0.97656-0.5625-1.0391-0.61719-0.98828 0.66016-0.82422 0.94922-1.1289 0.1875-0.87891 0.48047-1.0625 0.28906-1.5547-0.23828-1.1055-0.074219-1.0312-0.44922-1.0586-0.23438-1.1758 0.27734-1.0898 0.62891-1.1445 0.69531-0.96094 0.46094-1.3945 0.13672-1.3164-0.49609-0.98047-0.34766-1.2344 0.46875-1.5117 0.070313-1.4023-0.089844-1.4297-0.19141-1.8867-0.42969-0.99609-0.84766-0.34766-1.1719-1.1602-0.74609-1.2539-0.03125-1.0391 0.074219-1.2148-0.49609-0.6875-0.87891-0.47656-1.1367-0.56641-1.1758-0.75391-1.0039-0.25781-1.25-0.29297-1.0234-0.48438-1.1602-1.2109-0.097656-1.3438 1.0117-1.0273 0.73047-1.2422-0.38281-1.125-0.5625-1.1953-0.71094-0.98438-0.65625-1.0352-0.32422-0.80078-0.98047-1.2305-0.31641-1.2227 0.35547-1.3789-0.16797-1.0586-0.42578-1.125-0.41406-1.0508 0.26172-1.0195 0.5625-1.1484-0.16797-1.1562 0.6875-1.1992 0.32031-1.0859 0.09375-1.4648 0.33203-1.0156 0.35547-0.30859 1.4297 0.003906 1.1797-0.20703 1.2148 0.097656 1.1094 0.45312 1.0039-0.49219 1.0508-0.28516 1.2695 0.027343 1.1133-0.95703 0.42578-0.67578 0.83594-0.98438 0.60547-0.60547 1.1094-0.77734 0.66406-1.0977 0.75391-0.94922 0.70703-0.99609 0.46094-1.3945 0.17188-1.2695 0.25-1.2812 0.75391-1.0664 0.51562-0.77344 0.76562-1.1523-0.10938-0.72266-0.78906-0.74219-0.9375-0.70703-0.73047-1.1016-0.57422-1.3555-0.58984-1.1055-0.23438-1.3242 0.25391-1.0156 0.09375-1-0.57422-0.72656-1.0391-0.89453-0.73047-1.5078-0.16797-0.53516-1.0156-0.71875-1.1953-0.57812-1.1523-0.70703-1.082-0.39453-1.0703-0.082031-1.25-0.20312-1.0117-0.91406-0.69922-1.1406 0.097656-0.98828-0.42969-0.64062-0.82031-1.1445-0.24609-1.25 0.29688-1.3164 0.015625-1.3008 0.125-0.99219 0.41406-1.4414 0.65234-1.2422 0.007813-1.3711 0.007812-0.32422 0.98438-0.13672 1.1211 0.10938 1.1484-0.29688 1.0781 0.32812 1.1914 0.125 1.3281 0.15625 1.5117-2.1641 0.33984-0.875-0.54297-1.1602-0.47656-1.168-0.25-1.1211-0.17578-1.5391 0.17188-1.1602 0.67578-1.2695 0.79688-1.418 0.73047-0.98047 0.46094-1.0273 0.61719-1.2578 0.57422-1.2148 0.54297-1.2383 0.10547-0.93359-0.43359-1.3945-0.078125-1.0664 0.046875-1.793-0.83594-1.168-0.007813-1.2539 0.44531-1.4258 0.11719-1.0664-0.078125-1.5508-0.60547-1.3945-0.21094-1.2812-0.28906-1.2031-0.64844-1.4766-0.875-0.94531-0.81641-0.85547-1.0156-0.78516-1.0391-0.6875-0.73047-1.1484-0.16406-1.1484-0.78516-1.4922-0.33984-1.1406-0.14844-0.62109-1.168-0.019531-1.1914-0.87891-1.3047-0.67969-1.0469-0.8125-1.3711-0.48828-0.89453-0.015625-1-0.31641-1.3008-0.37891-1.1523-0.44531-0.94141-0.66406-0.875-0.62109-0.83594-0.33594-1.3008-0.44531-0.96094-1.0312-0.90234-0.70312-0.96094-0.40625-0.9375-0.74609-1.1562 0.28906-1.2969 0.87109-0.58984 1.125-0.35156 1.3164-0.16406 1.1445-0.007813 0.95312-0.32422 1.0039-0.38281 1.2734-0.68359 0.80078-0.66406 0.62891-1.0938 0.79297-0.99219 0.86328-0.87109 0.6875-0.80469 0.34375-1.0703 0.87891-0.72266 0.53516-1.0547-0.007813-1.2344 0.14453-1.0273 0.26562-1.1211 0.42578-1.3008 0.44141-1.2734 0.023437-1.1133-0.55078-0.99219-0.32422-0.99219 0.011719-1.3789-0.035156-1.0273 0.27344-1.1055 0.24219-1.0312 2.0078-0.50391 1.0391-0.23828 1.3086-0.29688 1.0195-0.019531 1.5234 0.14062 1.2383 0.3125 0.85547 0.69531 1.0898 0.86328 1.3359 0.84375 1.0898 0.83984 1.3555 0.35156 1.3984 0.14453 1.7383 0.25781 1.1172 0.19141 1.1758 0.11328 1.7617 0.054687 1.293-0.042968 1.0312-0.47266 1.3125-0.59766 1.3359-0.44922 2.2188 0.32812 2.0156 0.67969 1.3555 0.058594 1.8711-0.039063 1.5391-0.22656 1.1719-0.0625-0.28906-0.98438 0.30859-2.3867 0.66016-1.375 0.97266-0.78516 1.5547 0.39453 1.4141 0.007812 1.2344-0.27344 1.1328-0.22656 1.2539-0.0625 1.457 0.16406 2.4648 0.125 1.0898 0.24609 1.7461-0.10547 2.3633-0.53125 1.4805-0.26953 0.89844-0.48828 1.6289-1.668 0.70703-1.3906 0.93359-1.8984 1.1836-1.2695 1.7188-1.0703 1.8086-0.33203 1.457-1.6836 0.28906-1.0273 0.37109-1.0898 0.36719-1.5 0.28516-2.9414 0.10547-1.0859 0.35156-1.707 1.1094-1.7461 0.92188-0.82031 0.82812-1.1133 1.125-1.6211 0.41016-1.0078 0.51562-1.8477 1.0898-0.65234 1.8477-0.066406 1.543 0.14453 1.6836 0.24609h1.2344l1.3945-0.61719 1.8711-0.34766 1.1914 0.32812 1.2148 0.24609 1.2109 0.65625 1.2109 1.0977 1.7461-0.027344 1.0508-0.47266 1.5195-0.82422 1.0898 0.14453 1.2734 0.24609 1.293 0.49609 1.0508 1.1094 0.30859 1.3359 0.21484 1.6992 0.39844 1.7305 0.92578 1.0469 1.8086 0.74219 1.5312-0.082032 1.0781-0.45312 0.98828-0.51562 1.0664-0.34766 1.8945 0.11328 1.6211-0.76953 1.0664-0.98828 1.4414-1.2734 1.0664-0.37109 1.9922-0.10156 1.3867-0.69531 1.5742-1.2773 0.76172-1.1719 0.77734-1.1055 0.59766-0.84766 1.293-1.5586 2.043-1.918 1.6367-0.83594 2.0352-0.90625 1.1523-0.20312 1.0859-0.125 2.2617 0.32812 1.2109-0.10156 1.6445-0.55469 0.98828-0.78125 1.7461-0.53516 1.2109-0.082032 1.9141-0.26562 1.9102-0.023437h1.0664l1.6445-0.26562 1.0273-0.86328 0.86328-1.7031 0.84375-1.5859 1.5625-1.0859 0.94531-0.37109 1.582-0.22656 1.7031 0.125 1.1328-0.125 1.5586-0.73828 1.8086-0.1875 1.8516 0.76172 1.0664 1.1523 1.0273-0.16797 0.37109-0.98438 0.18359-1.2109 0.39062-1.4805 0.35156-1.6445 0.78125-2.5703 0.30859-1.2305 0.53125-1.1719 0.66016-1.1523 0.61719-0.82031 0.85938-0.80078-0.67578-1.707-0.39062-1.1094-0.0625-1.2344 0.18359-1.3359 1.707-1.5586 1.0078-1.0703 0.78125-1.0078 0.375-1.2617 0.11719-1.3047 0.18359-1.2539 0.16406-1.2734 0.28906-1.1328 0.019531-1.6016-0.26562-1.0078-0.14453-1.0273 0.32812-1.1719 0.24609-1.457 0.10547-2.3242 0.57422-3.9023 0.32812-2.3008 0.43359-1.5 1.3359-1.2148 2.0742-0.13281 1.9922 0.33594 1.543 0.1875 2.0938 0.49609 1.3789 0.80078 1.4375 1.582 0.69922 0.92578 0.92578 0.88281 0.67578 0.80078 0.78125 0.76172 0.98828 0.53125 0.83984 0.69922 0.76172 0.78125 0.67969 0.98828 0.69531 1.6211 1.1523 0.98828 1.3555 0.039063 0.92578 0.43359 0.96484 0.80078 0.57812 0.91406 1.0469 1.0391 1.6211 1.0469 1.625 1.293 0.76172 1.0703 1.043 0.76562 1.4141-0.1875 1.9961-0.53906 1.2695-0.91797 1.5508-1.3555 0.54688-0.89844 1.3281-0.71094 1.3047-1.0547 0.92969-0.73438 1.3984 0.066407 1.0234 0.13281 1.4766-0.30078 2.1133-0.78906 1.1055-0.39062 1.4102-0.72656-0.25391-2.2422 0.47656-1.6289 0.48828-1.1445 0.96484-0.95703 0.91406-0.6875 1.207-1.1445 0.95703-0.82812 0.99219-1.2266 1.5664-1.3867 1.1484-0.87891 0.60938-0.83203-0.45312-0.89844-0.042968-1.3711 1.1914-1.2891 0.60156-0.9375 0.32031-1.6523 0.37891-1.1133 0.62891-1.3945 0.88281-1.0234 0.59375-0.81641z" fill="#ccc" fill-rule="evenodd"/>
<path d="m249.37 190.72 0.64453 1.3203 0.83594 2.5117 0.10938 1.9258 0.19531 1.8242 1.1797 1.75 0.97266 0.53516 1.5547 0.43359 1.582 0.023438 1.2266-0.40625 1.1758-0.35938 1.8359 0.10547 0.99609-0.20703 1.1758-0.15234 1.3789 0.15234 1.5586 0.5625 1.8867 0.61328 1.3047-0.28125 1.25-0.33203 1.3008-0.25391 2.6055 0.35547 1.25 0.25781 1.1484 0.27734 1.0234 0.066406 1.1758-0.089843 1.3516-0.46094 0.94141-0.59375 1.1523-1.0898 1.25-0.61328 1.4297 0.30469 0.46094 1.8164 0.35547 1.1484 0.55859 1.4336 0.46875 2.0078 0.32812 1.3047 0.28125 0.99609 0.94531 0.51172 1.3516-0.51172 1.5586 0.41016 1.6602 1.3008 0.91797 0.43359 0.48438 1.0469 0.17969 1.7891 0.48438 1.8125 0.25391 1.125 0.89453 0.55859 1.3555 0.48438 1 0.59766 0.14844 1.1484-0.49609 0.98438-1.0625 0.32812-1.6836-0.17969-1.9844 0.066406-1.1289 0.35156-1.082 1.5273-0.42969 1.0078-0.64453 0.85156-0.32031 1.1875-0.89844 1.1562-0.90625 1.0977-0.61328 0.94922-0.19141 2.9883-0.37109 1.0469-0.98828 0.65234-0.13281 1.1055 0.14844 1.0898-0.86719 1.0664-0.89844 0.66016-0.75-2.0156-0.8125-1.5195-1.1758-2.0664-0.75781-1.4648-0.70703-1.5195-1.1797-1.1758-0.88672-0.73438-1.0742-0.078125-0.94141 0.41797-1.3867 0.8125-1.2305 1.125-1.1523 0.73438-1.4375 0.28516-1.7812-0.12891-1.9102-0.13281-1.3594 0.28906-1.1758 1.0195-1.2852 1.1016-1.8828 0.70312-2.3789 1.2578-1.3359 0.33984-1.2031 0.96875-0.47266 1.4375-0.60156 1.4922-1.3086 1.7266-1.5664 2.0273-1.1172 1.2188-1.4766 0.96875-1.3086 0.94141-1.4648 0.44531-1.5156 0.52344-1.2031 0.078125-1.7461-0.023437-1.3164 0.20703-1.2305 0.15625-0.96875 0.70703-1.5156 0.20703-0.70703 0.8125-0.10547 1.3594 0.027343 1.1016-0.89062 1.1758-0.94141 0.52344-0.99609 0.67969-1.5039 1.457-0.49219 0.94922-0.82812 1.4414-1.0469 0.41797-1.7812 0.65234-1.8828 1.0742-0.80859 0.78516-1.0742 0.49609-1.9102-0.70703-1.0469-0.3125-2.0156 0.8125-1.1484 1.4102-0.625 1.1289-0.84375 1.1211-0.70312 1.625-0.65625 2.4844-0.59766 2.2578-0.71094 2.6875 0.027344 1.4648 0.44531 1.2305-0.52344 1.9102-0.027344 1.9375 0.050781 1.4492 0.17969 3.0781 0.42578 2.7188v1.1523l-0.47266 1.0195-0.8125 1.4375-1.2031 1.4688-0.78516 1.1758-0.70703 1.2812-1.125 2.1445-0.73047 2.043-0.23438 1.3867 0.28516 1.4375 0.8125 1.3633 0.9375 2.2344 0.76172 2.0547 0.70703 1.543 0.10547 1.3867 0.44531 2.0703 1.0977 2.0898 1.4414 1.9648 2.3008 1.1523 1.0156-0.007813-0.15234 1.6289-0.18359 1.3086 0.11328 1.1602-0.34766 2.3711 0.050782 3.1914-0.15625 1.9375-0.39062 1.2539-0.65625 0.91797-1.0195 0.67969-1.8047 0.78516-2.0156 0.65234-1.8047 0.68359-1.4648 0.625-1.6484 1.0742-2.25 0.44531-1.5977 0.33984-1.543 0.49609-1.3359 0.44531-1.8047 0.73438-1.4141 1.3086-1.0352 0.70703-1.8398 1.4883-0.99609 0.8125-1.8594 0.8125-2.793 0.83984-1.5234 0.64844-1.125 1.0469-1.3086 1.3516-1.9688 1.0664-1.3789 0.51172-1.7266 0.52344-0.96875 0.5-1.1914-0.09375-0.68359-0.90234-0.59375-0.84375-1.2539-0.33594-1.0898-0.51562-0.87109-0.84766-0.90625-0.49219-1.0352-0.32422-1.1602-0.40625-1.1719-0.64453-0.94141-0.41406-1.1406-0.15234-1.1055-0.03125-1.0586-0.21094-0.97656-0.27734-1.1992 0.16016-1.2227 0.41406-0.88672-0.52734-0.96094-0.79297-0.97656-0.41406-0.97656-0.5625-1.0391-0.61719-0.98828 0.66016-0.82422 0.94922-1.1289 0.1875-0.87891 0.48047-1.0625 0.28906-1.5547-0.23828-1.1055-0.074219-1.0312-0.44922-1.0586-0.23438-1.1758 0.27734-1.0898 0.62891-1.1445 0.69531-0.96094 0.46094-1.3945 0.13672-1.3164-0.49609-0.98047-0.34766-1.2344 0.46875-1.5117 0.070313-1.4023-0.089844-1.4297-0.19141-1.8867-0.42969-0.99609-0.84766-0.34766-1.1719-1.1602-0.74609-1.2539-0.03125-1.0391 0.074219-1.2148-0.49609-0.6875-0.87891-0.47656-1.1367-0.56641-1.1758-0.75391-1.0039-0.25781-1.25-0.29297-1.0234-0.48438-1.1602-1.2109-0.097656-1.3438 1.0117-1.0273 0.73047-1.2422-0.38281-1.125-0.5625-1.1953-0.71094-0.98438-0.65625-1.0352-0.32422-0.80078-0.98047-1.2305-0.31641-1.2227 0.35547-1.3789-0.16797-1.0586-0.42578-1.125-0.41406-1.0508 0.26172-1.0195 0.5625-1.1484-0.16797-1.1562 0.6875-1.1992 0.32031-1.0859 0.09375-1.4648 0.33203-1.0156 0.35547-0.30859 1.4297 0.003906 1.1797-0.20703 1.2148 0.097656 1.1094 0.45312 1.0039-0.49219 1.0508-0.28516 1.2695 0.027343 1.1133-0.95703 0.42578-0.67578 0.83594-0.98438 0.60547-0.60547 1.1094-0.77734 0.66406-1.0977 0.75391-0.94922 0.70703-0.99609 0.46094-1.3945 0.17188-1.2695 0.25-1.2812 0.75391-1.0664 0.51562-0.77344 0.76562-1.1523-0.10938-0.72266-0.78906-0.74219-0.9375-0.70703-0.73047-1.1016-0.57422-1.3555-0.58984-1.1055-0.23438-1.3242 0.25391-1.0156 0.09375-1-0.57422-0.72656-1.0391-0.89453-0.73047-1.5078-0.16797-0.53516-1.0156-0.71875-1.1953-0.57812-1.1523-0.70703-1.082-0.39453-1.0703-0.082031-1.25-0.20312-1.0117-0.91406-0.69922-1.1406 0.097656-0.98828-0.42969-0.64062-0.82031-1.1445-0.24609-1.25 0.29688-1.3164 0.015625-1.3008 0.125-0.99219 0.41406-1.4414 0.65234-1.2422 0.007813-1.3711 0.007812-0.32422 0.98438-0.13672 1.1211 0.10938 1.1484-0.29688 1.0781 0.32812 1.1914 0.125 1.3281 0.15625 1.5117-2.1641 0.33984-0.875-0.54297-1.1602-0.47656-1.168-0.25-1.1211-0.17578-1.5391 0.17188-1.1602 0.67578-1.2695 0.79688-1.418 0.73047-0.98047 0.46094-1.0273 0.61719-1.2578 0.57422-1.2148 0.54297-1.2383 0.10547-0.93359-0.43359-1.3945-0.078125-1.0664 0.046875-1.793-0.83594-1.168-0.007813-1.2539 0.44531-1.4258 0.11719-1.0664-0.078125-1.5508-0.60547-1.3945-0.21094-1.2812-0.28906-1.2031-0.64844-1.4766-0.875-0.94531-0.81641-0.85547-1.0156-0.78516-1.0391-0.6875-0.73047-1.1484-0.16406-1.1484-0.78516-1.4922-0.33984-1.1406-0.14844-0.62109-1.168-0.019531-1.1914-0.87891-1.3047-0.67969-1.0469-0.8125-1.3711-0.48828-0.89453-0.015625-1-0.31641-1.3008-0.37891-1.1523-0.44531-0.94141-0.66406-0.875-0.62109-0.83594-0.33594-1.3008-0.44531-0.96094-1.0312-0.90234-0.70312-0.96094-0.40625-0.9375-0.74609-1.1562 0.28906-1.2969 0.87109-0.58984 1.125-0.35156 1.3164-0.16406 1.1445-0.007813 0.95312-0.32422 1.0039-0.38281 1.2734-0.68359 0.80078-0.66406 0.62891-1.0938 0.79297-0.99219 0.86328-0.87109 0.6875-0.80469 0.34375-1.0703 0.87891-0.72266 0.53516-1.0547-0.007813-1.2344 0.14453-1.0273 0.26562-1.1211 0.42578-1.3008 0.44141-1.2734 0.023437-1.1133-0.55078-0.99219-0.32422-0.99219 0.011719-1.3789-0.035156-1.0273 0.27344-1.1055 0.24219-1.0312 2.0078-0.50391 1.0391-0.23828 1.3086-0.29688 1.0195-0.019531 1.5234 0.14062 1.2383 0.3125 0.85547 0.69531 1.0898 0.86328 1.3359 0.84375 1.0898 0.83984 1.3555 0.35156 1.3984 0.14453 1.7383 0.25781 1.1172 0.19141 1.1758 0.11328 1.7617 0.054687 1.293-0.042968 1.0312-0.47266 1.3125-0.59766 1.3359-0.44922 2.2188 0.32812 2.0156 0.67969 1.3555 0.058594 1.8711-0.039063 1.5391-0.22656 1.1719-0.0625-0.28906-0.98438 0.30859-2.3867 0.66016-1.375 0.97266-0.78516 1.5547 0.39453 1.4141 0.007812 1.2344-0.27344 1.1328-0.22656 1.2539-0.0625 1.457 0.16406 2.4648 0.125 1.0898 0.24609 1.7461-0.10547 2.3633-0.53125 1.4805-0.26953 0.89844-0.48828 1.6289-1.668 0.70703-1.3906 0.93359-1.8984 1.1836-1.2695 1.7188-1.0703 1.8086-0.33203 1.457-1.6836 0.28906-1.0273 0.37109-1.0898 0.36719-1.5 0.28516-2.9414 0.10547-1.0859 0.35156-1.707 1.1094-1.7461 0.92188-0.82031 0.82812-1.1133 1.125-1.6211 0.41016-1.0078 0.51562-1.8477 1.0898-0.65234 1.8477-0.066406 1.543 0.14453 1.6836 0.24609h1.2344l1.3945-0.61719 1.8711-0.34766 1.1914 0.32812 1.2148 0.24609 1.2109 0.65625 1.2109 1.0977 1.7461-0.027344 1.0508-0.47266 1.5195-0.82422 1.0898 0.14453 1.2734 0.24609 1.293 0.49609 1.0508 1.1094 0.30859 1.3359 0.21484 1.6992 0.39844 1.7305 0.92578 1.0469 1.8086 0.74219 1.5312-0.082032 1.0781-0.45312 0.98828-0.51562 1.0664-0.34766 1.8945 0.11328 1.6211-0.76953 1.0664-0.98828 1.4414-1.2734 1.0664-0.37109 1.9922-0.10156 1.3867-0.69531 1.5742-1.2773 0.76172-1.1719 0.77734-1.1055 0.59766-0.84766 1.293-1.5586 2.043-1.918 1.6367-0.83594 2.0352-0.90625 1.1523-0.20312 1.0859-0.125 2.2617 0.32812 1.2109-0.10156 1.6445-0.55469 0.98828-0.78125 1.7461-0.53516 1.2109-0.082032 1.9141-0.26562 1.9102-0.023437h1.0664l1.6445-0.26562 1.0273-0.86328 0.86328-1.7031 0.84375-1.5859 1.5625-1.0859 0.94531-0.37109 1.582-0.22656 1.7031 0.125 1.1328-0.125 1.5586-0.73828 1.8086-0.1875 1.8516 0.76172 1.0664 1.1523 1.0273-0.16797 0.37109-0.98438 0.18359-1.2109 0.39062-1.4805 0.35156-1.6445 0.78125-2.5703 0.30859-1.2305 0.53125-1.1719 0.66016-1.1523 0.61719-0.82031 0.85938-0.80078-0.67578-1.707-0.39062-1.1094-0.0625-1.2344 0.18359-1.3359 1.707-1.5586 1.0078-1.0703 0.78125-1.0078 0.375-1.2617 0.11719-1.3047 0.18359-1.2539 0.16406-1.2734 0.28906-1.1328 0.019531-1.6016-0.26562-1.0078-0.14453-1.0273 0.32812-1.1719 0.24609-1.457 0.10547-2.3242 0.57422-3.9023 0.32812-2.3008 0.43359-1.5 1.3359-1.2148 2.0742-0.13281 1.9922 0.33594 1.543 0.1875 2.0938 0.49609 1.3789 0.80078 1.4375 1.582 0.69922 0.92578 0.92578 0.88281 0.67578 0.80078 0.78125 0.76172 0.98828 0.53125 0.83984 0.69922 0.76172 0.78125 0.67969 0.98828 0.69531 1.6211 1.1523 0.98828 1.3555 0.039063 0.92578 0.43359 0.96484 0.80078 0.57812 0.91406 1.0469 1.0391 1.6211 1.0469 1.625 1.293 0.76172 1.0703 1.043 0.76562 1.4141-0.1875 1.9961-0.53906 1.2695-0.91797 1.5508-1.3555 0.54688-0.89844 1.3281-0.71094 1.3047-1.0547 0.92969-0.73438 1.3984 0.066407 1.0234 0.13281 1.4766-0.30078 2.1133-0.78906 1.1055-0.39062 1.4102-0.72656-0.25391-2.2422 0.47656-1.6289 0.48828-1.1445 0.96484-0.95703 0.91406-0.6875 1.207-1.1445 0.95703-0.82812 0.99219-1.2266 1.5664-1.3867 1.1484-0.87891 0.60938-0.83203-0.45312-0.89844-0.042968-1.3711 1.1914-1.2891 0.60156-0.9375 0.32031-1.6523 0.37891-1.1133 0.62891-1.3945 0.88281-1.0234 0.59375-0.81641 1.6875 0.16016" fill="none" stroke="#fff" stroke-linecap="round" stroke-linejoin="round" stroke-miterlimit="10" stroke-width="2"/>
<path d="m277.73 225.75 0.88672 0.73438 1.1797 1.1758 0.70703 1.5195 0.75781 1.4648 1.1758 2.0664 0.8125 1.5195 0.26172 1.4375 1.3867-0.082031 0.82812-0.86719-0.035157-1.0352 1.1055-0.24609 1.0508 0.058594 1.2539 0.039063 1.3594 0.019531 1.3945 0.17969 1.4219 0.38672 0.93359 0.375 1.3008 0.65234 1.2148 0.57422 1.0898 0.53125 0.89062 0.71484 0.84375 0.85156 0.9375 0.73438 1.0078 0.47266 0.98438 0.37109 1.0977 0.34375 1.0703-0.56641 1.0234-0.76953 0.77734-0.77344 1.2695-0.34766 0.91016-0.64453 0.93359 0.42969 0.79297 0.75 0.87109-0.50391 1.3125 0.015625 1.6211 0.18359 1.1445 0.070313 1.0234-0.027344 1.8086-0.28906 1.1367-0.11719 1.2422 0.050781 1.0234 0.015625 1.293-0.14062 1.2227-0.33203 1.1562-0.33594 1.0391-0.46094 0.90625-0.60547 0.94922-0.34375 1.1133-0.39844 0.93359-0.44531 0.93359-0.37891 2.9297-0.12891 1.6562-0.11328 0.98828-0.41406 1.3711-0.57812 1.1094-0.91406 1.2109-0.48438 1.1914 0.38281 1.043 0.44922 1.2266 0.52734 2.1719 0.8125h1.1055l2.3203-0.58984 1.7305-0.039063 1.3984-0.25781 3.793-1.8008 1.5273-0.96875 1.6562-0.78516 0.30469 1.3125-0.14062 0.99609v1.1562l0.16406 1.5742 0.25781 1.7031 0.25781 1.7578 0.34766 2.5117-0.12891 1.7969-0.64062 0.83984-1.0078 0.75391-1.4844 0.67578-1.3867 0.69922-1.9492 0.73047-1.1562 0.81641-1.4609 0.90625-2.2188 0.83984-1.4102 0.80859-0.015625 1.207-0.33203 1.5938 0.87891 1.5391 0.69531 0.75 0.44141 1.4297-0.47656 1.2812-0.97266 0.56641-4.3438 0.96875-3.7734 0.17188-1.6602 0.27344-1.1328 0.60547-1.9805 1.8984-1.332 0.28906-1.9414-0.56641-1.5586-0.070312-2.6914 1-0.90625 0.56641-1.2461 1.1211-1.8203 1.8945-1.2773 1.6211-0.73047 1.8672-0.16406 2.2578-0.54688 0.91797-2.3555 0.22656-2.2656 0.09375-2.5195 0.46875-1.4844 0.027344-1.8555-0.21484-1.6914 0.023437h-1.8359l-1.5625 0.27734-1.2422 0.48438-1.4492 1.0508-1.1094 0.78516-1.5273 0.86719-1.6914 0.92578-1.4414 0.45703-1.0547 0.26562-1.2578-0.10156-2.0195-0.26953-1.0312-0.20703-1.2383-0.55469-1.4023-0.39453-2.0195-0.45312-1.5273-0.082031-1.4805 0.085937-1.9023 0.47266-1.0508 0.51562-1.0938 1.2969-0.84766 1.1758-1.0703 0.92969-1.5898 0.84375-1.793 1.4453-1.2812 1.4453-1.6289 1.1758-1.0078 0.78125-2.5195 0.45312-1.2969 0.023438h-1.2812l-1.5039 0.039062-1.8164 0.57812-1.0508 0.96875-0.82422 0.91016-0.59766 1.1133-0.41406 0.92578-0.43359 1.1562-0.47266 0.96875-0.82422 0.70312-1.0117 0.84375-0.94922 0.86719-1.0312 1.0703-1.1562 1.2188-1.0898 1.1328-1.4648 1.3008-1.0117 0.76172-1.418 0.64062-1.4922 0.59766-1.4023 0.64062-1.1953 0.47266-1.4023 0.35156-1.1719 0.14844-1.4062-0.27344-1.1953 0.0625-1.3008-0.019532-2.7852-0.64062-1.0898 0.0625-1.0742 0.20703-0.90625 0.57812-2.332 0.94922-1.0508 0.24609-1.1367 0.042969-1.0508 0.34766-0.82422 0.64062-1.0742 1.5273-1.1172 1.7344-1.625 2.7188-1.6289 2.5156-1.707 1.832-1.0156 0.007813-2.3008-1.1523-1.4414-1.9648-1.0977-2.0898-0.44531-2.0703-0.10547-1.3867-0.70703-1.543-0.60156-1.6719-1.0977-2.6172-0.8125-1.3633-0.28516-1.4375 0.23438-1.3867 0.73047-2.043 1.125-2.1445 0.70703-1.2812 0.78516-1.1758 1.2031-1.4688 0.8125-1.4375 0.47266-1.0195v-1.1523l-0.39453-2.1445-0.21094-3.6523-0.050781-1.4492 0.027344-1.9375 0.44531-1.1758-0.36719-1.9648-0.027344-1.4648 0.71094-2.6875 0.59766-2.2578 0.65625-2.4844 0.70312-1.625 0.76172-0.96484 0.70703-1.2852 1.1484-1.4102 1.1367-0.57812 1.9258 0.078125 1.0977 0.60156 1.8867-0.39062 0.80859-0.78516 1.8828-1.0742 1.6992-0.62109 1.1289-0.44922 0.82812-1.4414 0.49219-0.94922 1.5039-1.457 0.99609-0.67969 0.94141-0.52344 0.83594-0.62891 0.027344-1.6484 0.10547-1.3594 0.70703-0.8125 1.2617-0.11328 1.2227-0.80078 1.2305-0.15625 1.3164-0.20703 1.7461 0.023437 1.2031-0.078125 1.5156-0.52344 1.4648-0.44531 1.3086-0.94141 1.4766-0.96875 1.1172-1.2188 1.5664-2.0273 1.3086-1.7266 0.60156-1.4922 0.47266-1.4375 1.2031-0.96875 1.3359-0.33984 2.3789-1.2578 1.8828-0.70312 1.2852-1.1016 1.1758-1.0195 1.3594-0.28906 1.9102 0.13281 1.7812 0.12891 1.4375-0.28516 1.1523-0.73438 0.79688-0.73047 1.8203-1.207 0.94141-0.41797z" fill="#ccc" fill-rule="evenodd"/>
<path d="m277.73 225.75 0.88672 0.73438 1.1797 1.1758 0.70703 1.5195 0.75781 1.4648 1.1758 2.0664 0.8125 1.5195 0.26172 1.4375 1.3867-0.082031 0.82812-0.86719-0.035157-1.0352 1.1055-0.24609 1.0508 0.058594 1.2539 0.039063 1.3594 0.019531 1.3945 0.17969 1.4219 0.38672 0.93359 0.375 1.3008 0.65234 1.2148 0.57422 1.0898 0.53125 0.89062 0.71484 0.84375 0.85156 0.9375 0.73438 1.0078 0.47266 0.98438 0.37109 1.0977 0.34375 1.0703-0.56641 1.0234-0.76953 0.77734-0.77344 1.2695-0.34766 0.91016-0.64453 0.93359 0.42969 0.79297 0.75 0.87109-0.50391 1.3125 0.015625 1.6211 0.18359 1.1445 0.070313 1.0234-0.027344 1.8086-0.28906 1.1367-0.11719 1.2422 0.050781 1.0234 0.015625 1.293-0.14062 1.2227-0.33203 1.1562-0.33594 1.0391-0.46094 0.90625-0.60547 0.94922-0.34375 1.1133-0.39844 0.93359-0.44531 0.93359-0.37891 2.9297-0.12891 1.6562-0.11328 0.98828-0.41406 1.3711-0.57812 1.1094-0.91406 1.2109-0.48438 1.1914 0.38281 1.043 0.44922 1.2266 0.52734 2.1719 0.8125h1.1055l2.3203-0.58984 1.7305-0.039063 1.3984-0.25781 3.793-1.8008 1.5273-0.96875 1.6562-0.78516 0.30469 1.3125-0.14062 0.99609v1.1562l0.16406 1.5742 0.25781 1.7031 0.25781 1.7578 0.34766 2.5117-0.12891 1.7969-0.64062 0.83984-1.0078 0.75391-1.4844 0.67578-1.3867 0.69922-1.9492 0.73047-1.1562 0.81641-1.4609 0.90625-2.2188 0.83984-1.4102 0.80859-0.015625 1.207-0.33203 1.5938 0.87891 1.5391 0.69531 0.75 0.44141 1.4297-0.47656 1.2812-0.97266 0.56641-4.3438 0.96875-3.7734 0.17188-1.6602 0.27344-1.1328 0.60547-1.9805 1.8984-1.332 0.28906-1.9414-0.56641-1.5586-0.070312-2.6914 1-0.90625 0.56641-1.2461 1.1211-1.8203 1.8945-1.2773 1.6211-0.73047 1.8672-0.16406 2.2578-0.54688 0.91797-2.3555 0.22656-2.2656 0.09375-2.5195 0.46875-1.4844 0.027344-1.8555-0.21484-1.6914 0.023437h-1.8359l-1.5625 0.27734-1.2422 0.48438-1.4492 1.0508-1.1094 0.78516-1.5273 0.86719-1.6914 0.92578-1.4414 0.45703-1.0547 0.26562-1.2578-0.10156-2.0195-0.26953-1.0312-0.20703-1.2383-0.55469-1.4023-0.39453-2.0195-0.45312-1.5273-0.082031-1.4805 0.085937-1.9023 0.47266-1.0508 0.51562-1.0938 1.2969-0.84766 1.1758-1.0703 0.92969-1.5898 0.84375-1.793 1.4453-1.2812 1.4453-1.6289 1.1758-1.0078 0.78125-2.5195 0.45312-1.2969 0.023438h-1.2812l-1.5039 0.039062-1.8164 0.57812-1.0508 0.96875-0.82422 0.91016-0.59766 1.1133-0.41406 0.92578-0.43359 1.1562-0.47266 0.96875-0.82422 0.70312-1.0117 0.84375-0.94922 0.86719-1.0312 1.0703-1.1562 1.2188-1.0898 1.1328-1.4648 1.3008-1.0117 0.76172-1.418 0.64062-1.4922 0.59766-1.4023 0.64062-1.1953 0.47266-1.4023 0.35156-1.1719 0.14844-1.4062-0.27344-1.1953 0.0625-1.3008-0.019532-2.7852-0.64062-1.0898 0.0625-1.0742 0.20703-0.90625 0.57812-2.332 0.94922-1.0508 0.24609-1.1367 0.042969-1.0508 0.34766-0.82422 0.64062-1.0742 1.5273-1.1172 1.7344-1.625 2.7188-1.6289 2.5156-1.707 1.832-1.0156 0.007813-2.3008-1.1523-1.4414-1.9648-1.0977-2.0898-0.44531-2.0703-0.10547-1.3867-0.70703-1.543-0.60156-1.6719-1.0977-2.6172-0.8125-1.3633-0.28516-1.4375 0.23438-1.3867 0.73047-2.043 1.125-2.1445 0.70703-1.2812 0.78516-1.1758 1.2031-1.4688 0.8125-1.4375 0.47266-1.0195v-1.1523l-0.39453-2.1445-0.21094-3.6523-0.050781-1.4492 0.027344-1.9375 0.44531-1.1758-0.36719-1.9648-0.027344-1.4648 0.71094-2.6875 0.59766-2.2578 0.65625-2.4844 0.70312-1.625 0.76172-0.96484 0.70703-1.2852 1.1484-1.4102 1.1367-0.57812 1.9258 0.078125 1.0977 0.60156 1.8867-0.39062 0.80859-0.78516 1.8828-1.0742 1.6992-0.62109 1.1289-0.44922 0.82812-1.4414 0.49219-0.94922 1.5039-1.457 0.99609-0.67969 0.94141-0.52344 0.83594-0.62891 0.027344-1.6484 0.10547-1.3594 0.70703-0.8125 1.2617-0.11328 1.2227-0.80078 1.2305-0.15625 1.3164-0.20703 1.7461 0.023437 1.2031-0.078125 1.5156-0.52344 1.4648-0.44531 1.3086-0.94141 1.4766-0.96875 1.1172-1.2188 1.5664-2.0273 1.3086-1.7266 0.60156-1.4922 0.47266-1.4375 1.2031-0.96875 1.3359-0.33984 2.3789-1.2578 1.8828-0.70312 1.2852-1.1016 1.1758-1.0195 1.3594-0.28906 1.9102 0.13281 1.7812 0.12891 1.4375-0.28516 1.1523-0.73438 0.79688-0.73047 1.8203-1.207 0.94141-0.41797 1.0742 0.078125" fill="none" stroke="#fff" stroke-linecap="round" stroke-linejoin="round" stroke-miterlimit="10" stroke-width="2"/>
<path d="m365.53 165.27 0.91016 1.0586 0.36719 1.5938 0.60547 2.9023 0.19141 1.3398 0.89453 1.1484 1.2109 1.0859 0.63672 0.99219 0.64453 0.88281 0.75391 0.85547 0.5 1.0781 0.14062 2.1719-0.30078 1.3789-0.91797 1.4922-0.875 0.71875-0.33984 1.4375 0.73828 0.93359 0.80469 1.0977 1.1211 3.1406 1.2461 2.5234 0.61719 1.4336 1.4336 3.5117 0.75781 0.81641-0.097656 1.5352-0.17188 1.1328 0.50781 1.2383-0.23828 1.5156-0.67578 1.2969-0.87891 0.73828-1.1172 1.1562-0.83594 1.4961-0.59766 0.99609-1.8945 0.39844-1.0781 0.16016-1.1094 0.55078-1.1758 1.9023-1.1172 1.7344-0.46875 1.8672-1.3203 1.543-0.89062 1.1953-0.64453 2.7812-0.30859 1.3906-1.5664 2.6836-0.66016 1.2148-0.8125 1.4883-1.6562 0.78516-1.5273 0.96875-3.793 1.8008-1.3984 0.25781-1.7305 0.039063-2.3203 0.58984h-1.1055l-2.1719-0.8125-1.2266-0.52734-1.043-0.44922-1.1914-0.38281-1.2109 0.48438-1.1094 0.91406-1.3711 0.57812-0.98828 0.41406-1.6562 0.11328-2.4336-0.10156-0.93359 0.41016-0.98828 0.42188-1.0977 0.48828-1.1758 0.36328-0.90625 0.56641-1 0.52344-1.1289 0.33594-1.207 0.34766-1.2695 0.19922-1.0156 0.015625-1-0.050781-1.0195-0.015625-1.9258 0.51172-1.6094-0.078125-1.1445-0.070313-1.082-0.023437-1.5938-0.22266-1.1289 0.55078-0.79297-0.75-0.93359-0.42969-0.91016 0.64453-1.2695 0.34766-0.77734 0.77344-1.0234 0.76953-1.0703 0.56641-1.0977-0.34375-0.98438-0.37109-1.0078-0.47266-0.9375-0.73438-0.84375-0.85156-0.79297-0.64844-1.1875-0.59766-1.2148-0.57422-1.3008-0.65234-0.93359-0.375-1.4219-0.38672-1.3945-0.17969-1.3594-0.019531-1.2539-0.039063-1.0508-0.058594-1.0469 0.19922-0.097656-1.0586 0.78125-0.72266 0.67578-1.2305 0.125-2.75 0.67969-1.1875 0.90625-1.0977 0.74219-0.77734 0.41406-1.4609 0.70703-0.95703 0.42969-1.0078 0.73438-1.2773 1.0742-0.51953 2.3867-0.14844 1.6836 0.17969 1.0625-0.32812 0.49609-0.98438-0.23047-0.98047-0.91797-0.76562-1.2422-0.44141-1.0078-0.60156-0.25391-1.125-0.48438-1.8125-0.17969-1.2773-0.48438-1.5586-0.91797-0.43359-1.0977-0.66406-1.3281-1.0469-1.6094 0.41016-1.4805-0.41016-0.28125-0.99609-0.32812-1.3047-0.46875-2.0078-0.55859-1.4336-0.35547-1.1484-0.46094-1.8164-1.4297-0.30469-1.25 0.61328-0.84375 0.89453-1.25 0.78906-1.3516 0.46094-1.1016 0.09375-1.0977-0.070313-1.1484-0.27734-1.25-0.25781-1.6094-0.35547-2.2969 0.25391-1.25 0.33203-1.3047 0.28125-1.1719-0.17969-2.2734-0.99609-1.3789-0.15234-1.1758 0.15234-0.99609 0.20703-1.8359-0.10547-1.1758 0.35938-1.2266 0.40625-1.582-0.023438-1.5547-0.43359-0.97266-0.53516-0.84375-0.84375-0.35547-2.0859-0.28516-2.5703-0.83594-2.5117-0.64453-1.3203-1.3984-0.96484 0.82422-0.94531 1.1914 0.046875 2.1133-0.44531 1.0977-0.66016 0.66797-0.77344 1.6328-1.7578 0.88281-0.80469 1.0742-0.63281 1.6914-0.51953 1.2148-0.51172 1.1445-0.96484 0.85156-0.84375 0.71875-0.89062 0.36328-1.0742 0.10547-1.875 0.4375-1.0547 1.6914-1.7422 0.72656-0.75781 1.4961-1.6992 0.79297-0.61328 0.99609-1.3359 1.0586-0.75781 1.2109-0.73828 1.1836-1.4844 0.80469-0.77734 1.1172-0.48438 3.1758 1.4531 4.1602 2.1953 3.2305 0.67578 1.6367 1.2812 0.28516 1.0898 3.0391 1.4922 1.2188 0.83594 1.1016 1.4375 0.97656 2.2578 1.1016 1.9102 1.4844 1.4492 3.7148 2.293 1.1094 1.5078 1 2.3203 1.1484 0.71875 0.60938-1.2383 0.25781-1.2852 0.66016-1.6094 0.79297-1.1992 1.0703-0.78125 0.6875-0.89453 0.41016-0.94531 0.20703-1.043 0.96484-0.60938 1.6289-0.52734 1.3789-0.14062 1.0117-0.14062 1.1406-0.75781 0.80078-0.86719 0.40234-0.94141 1.2734-0.80078 0.97266-0.60156 1.2227-0.21484 1.957-0.27344 1.4766-0.33203 1.0898-0.66016 1.0391 0.011718 1.5742 0.49219 1.0898 0.13281 1.3477-0.625 1.0625 0.082032 2.0898-0.91016 1.0742-0.41797 1.5586-1.3477 1.4102-1.082 0.99219-0.46094 2.1914 0.17188 2.9961 0.38672 2.6602 0.44531 1.3477-0.33984 2.1289-0.62109 1.4023-0.20703 2.1797 0.25781 1.4492 1.0508 2.2188 1.0195 1.4531 0.375 1.418-1.4805 0.57031-1.0938 0.89844-0.51562 1.8164-0.73438 1.2891-1.1992 0.95703-0.95703z" fill="#0a5394" fill-rule="evenodd"/>
<path d="m365.53 165.27 0.91016 1.0586 0.36719 1.5938 0.60547 2.9023 0.19141 1.3398 0.89453 1.1484 1.2109 1.0859 0.63672 0.99219 0.64453 0.88281 0.75391 0.85547 0.5 1.0781 0.14062 2.1719-0.30078 1.3789-0.91797 1.4922-0.875 0.71875-0.33984 1.4375 0.73828 0.93359 0.80469 1.0977 1.1211 3.1406 1.2461 2.5234 0.61719 1.4336 1.4336 3.5117 0.75781 0.81641-0.097656 1.5352-0.17188 1.1328 0.50781 1.2383-0.23828 1.5156-0.67578 1.2969-0.87891 0.73828-1.1172 1.1562-0.83594 1.4961-0.59766 0.99609-1.8945 0.39844-1.0781 0.16016-1.1094 0.55078-1.1758 1.9023-1.1172 1.7344-0.46875 1.8672-1.3203 1.543-0.89062 1.1953-0.64453 2.7812-0.30859 1.3906-1.5664 2.6836-0.66016 1.2148-0.8125 1.4883-1.6562 0.78516-1.5273 0.96875-3.793 1.8008-1.3984 0.25781-1.7305 0.039063-2.3203 0.58984h-1.1055l-2.1719-0.8125-1.2266-0.52734-1.043-0.44922-1.1914-0.38281-1.2109 0.48438-1.1094 0.91406-1.3711 0.57812-0.98828 0.41406-1.6562 0.11328-2.4336-0.10156-0.93359 0.41016-0.98828 0.42188-1.0977 0.48828-1.1758 0.36328-0.90625 0.56641-1 0.52344-1.1289 0.33594-1.207 0.34766-1.2695 0.19922-1.0156 0.015625-1-0.050781-1.0195-0.015625-1.9258 0.51172-1.6094-0.078125-1.1445-0.070313-1.082-0.023437-1.5938-0.22266-1.1289 0.55078-0.79297-0.75-0.93359-0.42969-0.91016 0.64453-1.2695 0.34766-0.77734 0.77344-1.0234 0.76953-1.0703 0.56641-1.0977-0.34375-0.98438-0.37109-1.0078-0.47266-0.9375-0.73438-0.84375-0.85156-0.79297-0.64844-1.1875-0.59766-1.2148-0.57422-1.3008-0.65234-0.93359-0.375-1.4219-0.38672-1.3945-0.17969-1.3594-0.019531-1.2539-0.039063-1.0508-0.058594-1.0469 0.19922-0.097656-1.0586 0.78125-0.72266 0.67578-1.2305 0.125-2.75 0.67969-1.1875 0.90625-1.0977 0.74219-0.77734 0.41406-1.4609 0.70703-0.95703 0.42969-1.0078 0.73438-1.2773 1.0742-0.51953 2.3867-0.14844 1.6836 0.17969 1.0625-0.32812 0.49609-0.98438-0.23047-0.98047-0.91797-0.76562-1.2422-0.44141-1.0078-0.60156-0.25391-1.125-0.48438-1.8125-0.17969-1.2773-0.48438-1.5586-0.91797-0.43359-1.0977-0.66406-1.3281-1.0469-1.6094 0.41016-1.4805-0.41016-0.28125-0.99609-0.32812-1.3047-0.46875-2.0078-0.55859-1.4336-0.35547-1.1484-0.46094-1.8164-1.4297-0.30469-1.25 0.61328-0.84375 0.89453-1.25 0.78906-1.3516 0.46094-1.1016 0.09375-1.0977-0.070313-1.1484-0.27734-1.25-0.25781-1.6094-0.35547-2.2969 0.25391-1.25 0.33203-1.3047 0.28125-1.1719-0.17969-2.2734-0.99609-1.3789-0.15234-1.1758 0.15234-0.99609 0.20703-1.8359-0.10547-1.1758 0.35938-1.2266 0.40625-1.582-0.023438-1.5547-0.43359-0.97266-0.53516-0.84375-0.84375-0.35547-2.0859-0.28516-2.5703-0.83594-2.5117-0.64453-1.3203-1.3984-0.96484 0.82422-0.94531 1.1914 0.046875 2.1133-0.44531 1.0977-0.66016 0.66797-0.77344 1.6328-1.7578 0.88281-0.80469 1.0742-0.63281 1.6914-0.51953 1.2148-0.51172 1.1445-0.96484 0.85156-0.84375 0.71875-0.89062 0.36328-1.0742 0.10547-1.875 0.4375-1.0547 1.6914-1.7422 0.72656-0.75781 1.4961-1.6992 0.79297-0.61328 0.99609-1.3359 1.0586-0.75781 1.2109-0.73828 1.1836-1.4844 0.80469-0.77734 1.1172-0.48438 3.1758 1.4531 4.1602 2.1953 3.2305 0.67578 1.6367 1.2812 0.28516 1.0898 3.0391 1.4922 1.2188 0.83594 1.1016 1.4375 0.97656 2.2578 1.1016 1.9102 1.4844 1.4492 3.7148 2.293 1.1094 1.5078 1 2.3203 1.1484 0.71875 0.60938-1.2383 0.25781-1.2852 0.66016-1.6094 0.79297-1.1992 1.0703-0.78125 0.6875-0.89453 0.41016-0.94531 0.20703-1.043 0.96484-0.60938 1.6289-0.52734 1.3789-0.14062 1.0117-0.14062 1.1406-0.75781 0.80078-0.86719 0.40234-0.94141 1.2734-0.80078 0.97266-0.60156 1.2227-0.21484 1.957-0.27344 1.4766-0.33203 1.0898-0.66016 1.0391 0.011718 1.5742 0.49219 1.0898 0.13281 1.3477-0.625 1.0625 0.082032 2.0898-0.91016 1.0742-0.41797 1.5586-1.3477 1.4102-1.082 0.99219-0.46094 2.1914 0.17188 2.9961 0.38672 2.6602 0.44531 1.3477-0.33984 2.1289-0.62109 1.4023-0.20703 2.1797 0.25781 1.4492 1.0508 2.2188 1.0195 1.4531 0.375 1.418-1.4805 0.57031-1.0938 0.89844-0.51562 1.8164-0.73438 1.2891-1.1992 0.95703-0.95703 1.8516 0.125" fill="none" stroke="#fff" stroke-linecap="round" stroke-linejoin="round" stroke-miterlimit="10"/>
<path d="m317.04 198.29c0 3.5898-2.9102 6.5-6.5 6.5-3.5898 0-6.5-2.9102-6.5-6.5 0-3.5898 2.9102-6.5 6.5-6.5 3.5898 0 6.5 2.9102 6.5 6.5" fill="#28c028" fill-rule="evenodd" stroke="#000" stroke-linecap="round" stroke-linejoin="round" stroke-miterlimit="10"/>
<path d="m184.93 192.29v-16.328h3.3281v13.547h8.2656v2.7812zm28.797 0h-3.6094l-1.4375-3.7344h-6.5781l-1.3594 3.7344h-3.5312l6.4062-16.469h3.5156zm-6.1094-6.5156-2.2812-6.1094-2.2188 6.1094zm18.406 0.46875 3.2344 1.0156c-0.5 1.793-1.3281 3.125-2.4844 4-1.1484 0.875-2.6016 1.3125-4.3594 1.3125-2.1875 0-3.9844-0.74219-5.3906-2.2344-1.4062-1.5-2.1094-3.5469-2.1094-6.1406 0-2.7383 0.70312-4.8633 2.1094-6.375 1.4141-1.5195 3.2812-2.2812 5.5938-2.2812 2.0078 0 3.6445 0.60156 4.9062 1.7969 0.75 0.69922 1.3125 1.7109 1.6875 3.0312l-3.2969 0.78125c-0.19922-0.85156-0.60547-1.5234-1.2188-2.0156-0.61719-0.5-1.3672-0.75-2.25-0.75-1.2188 0-2.2109 0.4375-2.9688 1.3125-0.76172 0.875-1.1406 2.2969-1.1406 4.2656 0 2.0742 0.375 3.5547 1.125 4.4375 0.75 0.88672 1.7227 1.3281 2.9219 1.3281 0.88281 0 1.6445-0.28125 2.2812-0.84375 0.63281-0.5625 1.0859-1.4414 1.3594-2.6406zm6.0938 6.0469v-16.469h3.3281v6.4844h6.5v-6.4844h3.3281v16.469h-3.3281v-7.2031h-6.5v7.2031zm31.438 0h-3.6094l-1.4375-3.7344h-6.5781l-1.3594 3.7344h-3.5312l6.4062-16.469h3.5156zm-6.1094-6.5156-2.2812-6.1094-2.2188 6.1094zm21.125 4.4219c0.82031 0.58594 1.7109 1.0469 2.6719 1.3906l-1.2344 2.3594c-0.5-0.15625-0.99219-0.36719-1.4688-0.625-0.10547-0.054688-0.84375-0.53906-2.2188-1.4531-1.0742 0.46875-2.2656 0.70312-3.5781 0.70312-2.5312 0-4.5156-0.74219-5.9531-2.2344-1.4297-1.4883-2.1406-3.582-2.1406-6.2812 0-2.6875 0.71875-4.7734 2.1562-6.2656 1.4375-1.5 3.3828-2.25 5.8438-2.25 2.4453 0 4.3828 0.75 5.8125 2.25 1.4258 1.4922 2.1406 3.5781 2.1406 6.2656 0 1.4297-0.19922 2.6797-0.59375 3.75-0.30469 0.82422-0.78125 1.6211-1.4375 2.3906zm-2.6719-1.875c0.42578-0.5 0.74219-1.1016 0.95312-1.8125 0.21875-0.70703 0.32812-1.5234 0.32812-2.4531 0-1.8945-0.42188-3.3125-1.2656-4.25-0.83594-0.94531-1.9297-1.4219-3.2812-1.4219-1.3555 0-2.4531 0.47656-3.2969 1.4219-0.84375 0.9375-1.2656 2.3555-1.2656 4.25 0 1.9297 0.42188 3.3711 1.2656 4.3281 0.84375 0.94922 1.9102 1.4219 3.2031 1.4219 0.47656 0 0.92969-0.078125 1.3594-0.23438-0.67969-0.4375-1.3672-0.78125-2.0625-1.0312l0.9375-1.9062c1.0938 0.375 2.1328 0.9375 3.125 1.6875zm7.2969-12.5h3.3125v8.9219c0 1.418 0.039063 2.3359 0.125 2.75 0.14453 0.67969 0.48438 1.2188 1.0156 1.625 0.53906 0.40625 1.2734 0.60938 2.2031 0.60938 0.9375 0 1.6445-0.19141 2.125-0.57812 0.47656-0.38281 0.76562-0.85938 0.85938-1.4219 0.10156-0.5625 0.15625-1.4922 0.15625-2.7969v-9.1094h3.3281v8.6562c0 1.9688-0.09375 3.3672-0.28125 4.1875-0.17969 0.8125-0.50781 1.5-0.98438 2.0625-0.48047 0.5625-1.125 1.0117-1.9375 1.3438-0.8125 0.33203-1.8711 0.5-3.1719 0.5-1.5742 0-2.7656-0.18359-3.5781-0.54688-0.8125-0.36328-1.4531-0.83203-1.9219-1.4062-0.46875-0.58203-0.77734-1.1914-0.92188-1.8281-0.21875-0.94531-0.32812-2.3438-0.32812-4.1875zm16.531 16.469v-16.469h3.3125v16.469zm0 0" fill="none" stroke="#fff" stroke-linecap="round" stroke-linejoin="round" stroke-miterlimit="10" stroke-width="2"/>
<path d="m184.93 192.29v-16.328h3.3281v13.547h8.2656v2.7812zm28.797 0h-3.6094l-1.4375-3.7344h-6.5781l-1.3594 3.7344h-3.5312l6.4062-16.469h3.5156zm-6.1094-6.5156-2.2812-6.1094-2.2188 6.1094zm18.406 0.46875 3.2344 1.0156c-0.5 1.793-1.3281 3.125-2.4844 4-1.1484 0.875-2.6016 1.3125-4.3594 1.3125-2.1875 0-3.9844-0.74219-5.3906-2.2344-1.4062-1.5-2.1094-3.5469-2.1094-6.1406 0-2.7383 0.70312-4.8633 2.1094-6.375 1.4141-1.5195 3.2812-2.2812 5.5938-2.2812 2.0078 0 3.6445 0.60156 4.9062 1.7969 0.75 0.69922 1.3125 1.7109 1.6875 3.0312l-3.2969 0.78125c-0.19922-0.85156-0.60547-1.5234-1.2188-2.0156-0.61719-0.5-1.3672-0.75-2.25-0.75-1.2188 0-2.2109 0.4375-2.9688 1.3125-0.76172 0.875-1.1406 2.2969-1.1406 4.2656 0 2.0742 0.375 3.5547 1.125 4.4375 0.75 0.88672 1.7227 1.3281 2.9219 1.3281 0.88281 0 1.6445-0.28125 2.2812-0.84375 0.63281-0.5625 1.0859-1.4414 1.3594-2.6406zm6.0938 6.0469v-16.469h3.3281v6.4844h6.5v-6.4844h3.3281v16.469h-3.3281v-7.2031h-6.5v7.2031zm31.438 0h-3.6094l-1.4375-3.7344h-6.5781l-1.3594 3.7344h-3.5312l6.4062-16.469h3.5156zm-6.1094-6.5156-2.2812-6.1094-2.2188 6.1094zm21.125 4.4219c0.82031 0.58594 1.7109 1.0469 2.6719 1.3906l-1.2344 2.3594c-0.5-0.15625-0.99219-0.36719-1.4688-0.625-0.10547-0.054688-0.84375-0.53906-2.2188-1.4531-1.0742 0.46875-2.2656 0.70312-3.5781 0.70312-2.5312 0-4.5156-0.74219-5.9531-2.2344-1.4297-1.4883-2.1406-3.582-2.1406-6.2812 0-2.6875 0.71875-4.7734 2.1562-6.2656 1.4375-1.5 3.3828-2.25 5.8438-2.25 2.4453 0 4.3828 0.75 5.8125 2.25 1.4258 1.4922 2.1406 3.5781 2.1406 6.2656 0 1.4297-0.19922 2.6797-0.59375 3.75-0.30469 0.82422-0.78125 1.6211-1.4375 2.3906zm-2.6719-1.875c0.42578-0.5 0.74219-1.1016 0.95312-1.8125 0.21875-0.70703 0.32812-1.5234 0.32812-2.4531 0-1.8945-0.42188-3.3125-1.2656-4.25-0.83594-0.94531-1.9297-1.4219-3.2812-1.4219-1.3555 0-2.4531 0.47656-3.2969 1.4219-0.84375 0.9375-1.2656 2.3555-1.2656 4.25 0 1.9297 0.42188 3.3711 1.2656 4.3281 0.84375 0.94922 1.9102 1.4219 3.2031 1.4219 0.47656 0 0.92969-0.078125 1.3594-0.23438-0.67969-0.4375-1.3672-0.78125-2.0625-1.0312l0.9375-1.9062c1.0938 0.375 2.1328 0.9375 3.125 1.6875zm7.2969-12.5h3.3125v8.9219c0 1.418 0.039063 2.3359 0.125 2.75 0.14453 0.67969 0.48438 1.2188 1.0156 1.625 0.53906 0.40625 1.2734 0.60938 2.2031 0.60938 0.9375 0 1.6445-0.19141 2.125-0.57812 0.47656-0.38281 0.76562-0.85938 0.85938-1.4219 0.10156-0.5625 0.15625-1.4922 0.15625-2.7969v-9.1094h3.3281v8.6562c0 1.9688-0.09375 3.3672-0.28125 4.1875-0.17969 0.8125-0.50781 1.5-0.98438 2.0625-0.48047 0.5625-1.125 1.0117-1.9375 1.3438-0.8125 0.33203-1.8711 0.5-3.1719 0.5-1.5742 0-2.7656-0.18359-3.5781-0.54688-0.8125-0.36328-1.4531-0.83203-1.9219-1.4062-0.46875-0.58203-0.77734-1.1914-0.92188-1.8281-0.21875-0.94531-0.32812-2.3438-0.32812-4.1875zm16.531 16.469v-16.469h3.3125v16.469z" fill-rule="evenodd"/>
</g>
</svg>
