<?xml version="1.0" encoding="UTF-8"?>
<svg width="500pt" height="490pt" version="1.1" viewBox="0 0 500 490" xmlns="http://www.w3.org/2000/svg">
<g id="a">
<rect width="500" height="490" fill="none"/>
<path d="m83.848 269.93 2.3711 0.99219 4.3672 3.043 1.1133 2.2109 1.0391 1.6133 0.94922 1.3477-0.43359 1.3047-0.63281 0.92188-0.23047 1.3867 0.34766 1.0352-0.058593 2.7695v1.9609l0.17188 1.9609 0.75 1.7852 1.4414 2.8828 0.84375 2.1367 0.64453 1.4023 1.4453 2.3594 0.69141 2.5586-0.39453 2.2695-0.46484 3.2852-0.69141 1.8438-1.5547 4.0391-1.0977 3.2852v1.5586l0.51953 1.9023 1.5 4.1523 0.62891 0.97656 1.043 1.6914-0.089844 1.0156-0.86719 0.62109-0.28906 1-0.097656 1.4414-0.77734 1.3047-0.61328 1.0703-0.48438 1.2383-0.79688 1.0664-0.58203 1.1875 0.24609 1.4648-1.5898 2.1953-1.3086 0.54297-0.85156 0.90234 0.44922 1.2852-0.20312 1.0898 0.03125 1.0078-0.24609 1.1367-0.14844 1.5312-0.11328 1.1641 0.058594 1.4844-0.066407 1.5156-0.42188 1.1211-0.5625 1.3594-1.3672 0.8125-0.89453 0.57422-0.88281 1.2695-1 1.293-0.92578 0.98438-0.57422 1.0312-1.1797 0.83594-1.2188 1.082-1.1328 0.94141-0.88281 0.58984-0.61328 1.2109-1.1406 1.4844-0.75391 1.0156-1.2031 0.83594-0.83594 0.99219-0.66406 1.3438-0.51562 1.2188-0.63281 1.8867-0.76953 1.1445-1.9336 0.50781-1.0703 0.41797-0.86328 0.73047-0.70312 1.0234-0.32812 1.2188-1.0547 0.85547-1.2812 0.84375-0.875 1.1445 0.35938 1.1562 0.36328 1.2383-0.082032 2.1289 0.32422 1.3203 0.55859 1.1523 0.52344 0.97656 0.69922 1.2109 0.86719 0.89453 1.1562 0.77734 0.81641 0.62109 0.93359 0.55078 0.97656 1.5664 0.93359 0.93359 0.85156 0.98047 1.0508 0.58984 0.44141 1.5-0.11328 1.0234-0.86328 2.1328-0.28516 1.1133 0.76172 0.96484 0.40234 1.043-0.027344 1.1289 0.44531 1.4414 0.64453 1.0234 0.66406 1.3516 0.17188 1.0156 1.2969 0.074219 1.3516-0.41797 2.0977-0.23438 1.3555-0.27734 2.1914-0.046875 1.9609-0.046875 2.332-0.1875 2.2852-0.1875 1.9141-0.046875 2.2852 0.09375 1.8398 0.22656 3.5703 0.33203 1.168-0.27734 1.25 0.70703 0.52344 1.1602-0.046875 2.2383-2.1445 1.8203-2.3828 1.2109-1.8164 1.0273-0.35547 1.4297-0.44922 2.082-0.26953 1.9453-0.75781 1.6836 0.22266 1.0039 0.20703 1.3711 0.80469 1.7891 0.31641 1.4766 0.74609 1.8672 0.79297 1.3086 0.98047 2.1445v1.0273l-0.26562 1.1289 0.21484 1.8438-0.042969 1.5508-0.65234 1.1211-1.1211 1.1172-1.0703 1.543-0.34766 1.3945 1.0469 1.2148 0.89062 2.3867 0.41406 2.0938 0.046875 1.6719 0.046875 1.5117v1.2031l0.88672 1.7734 1.2578 1.7734 1.2422 0.91406 6.2734 3.3555 1.2852 1.3008-0.42578 1.0898-0.84375 1.0898-0.35938 1.2188-0.38281 0.95703-0.46484 0.98828-0.86328 0.8125-0.91016 0.42188-1.668 0.35547-1.3125 0.47656-1.2695 0.58594-0.99219 0.73438-0.54297 0.91797-0.62891 1.3594-0.90234 1.3438 0.097656 1.9336-0.023437 1.1992-0.20312 1.0234-0.99219 1.5547-0.76172 0.93359-1.1406 0.88672-1.0469 0.30859-1.4414-0.035157-1.2305-1.5234-1.0781-1.6328-1.3242-1.7578-0.8125-1.0234-1.9688-1.0664-1.3281 0.050781-2.1328-0.39062-0.91406-0.77734-0.71484-0.98047-1.0039-0.8125-0.69922-0.79297-1-0.40234-1.4297-0.28125-1.4023-0.59375-1.0312-0.089843-1.1641 0.058593-1.0117 0.15625-1.168 0.10938-1.0586-0.078125-1.8086-0.60938-1.9219-0.83203-1.0195-0.76953-1.1055-0.57812-1.8086 0.32812-0.49609 0.93359-1.0742 1.8555-0.79688 1.5391-0.18359 1.1836-0.29688 1.793-0.42969 0.91406-1.5625 0.59375-1.9961 0.21875-1.5859 0.10938-1.0078 0.17969-2.6055 0.38281-1.7773 0.48047-1.1094 0.34766-0.82812-0.82422-0.67969-1.543-0.64844-1.1172-1.3359-0.93359-1.0625-0.72266-0.77734-0.66797-0.30078-1.0391-2.2734-2.1836-1.582-1.1836-1.6406-1.2461-2.6484-1.8867-2.0078-1.0664-1.125-0.75781-2.25-1.7031-1.0938-0.24609-1.9453-0.027344-1.7969 0.21094-1.4297 0.48828-1.3086-1.125-1.0938-1.1875-1.2148-1.1562-0.48828-1.6406-0.16016-1.0352-0.20312-1.3086-0.36719-1.3672-0.33203-1.6445-0.27344-1.4883-0.18359-1.4023 0.03125-1.6406-0.21484-1.0625-0.63672-1.6133-0.33594-1.4922-0.48828-1.5508-0.19922-1.2266-0.40625-1.3594-0.73047-1.2461-1.1875-0.60938-1.3398-0.54688-1.2461-0.57812-1.4609-0.62891-2.0664-0.43359-1.5508-0.27344-2.4961 0.054687-1.1719-2.0977-0.24219-2.8828 0.13281-1.2695 0.23438-2.2812 1.0391-3.793 0.55469-2.1641 0.54688-2.7891-0.73438-3.1211-0.34375-2.1172 1.6953-0.86328 2.0078-0.11328 0.89453-0.82031 1.2031-0.53906 0.87891-1.2461 0.96484-0.59766 1.0469-0.56641 0.77344-0.71094 0.48047-1.0156 1.0977-0.097656 1.3281-0.32812 1.2031-0.17969 0.96875 0.45703 1.3828-0.023437 1.6055-0.28906 1.5078-0.44141 0.67188-0.74609 0.97656-0.40234 0.75391-0.88281 0.23828-1.418-0.22266-1.6133 0.3125-2.3359 0.41797-1.0625-0.035156-1.793 0.56641-1.7109 0.65625-0.89062 1.0977-0.8125 1.0664-1.3711-0.20703-2.8672-0.20312-1.582-0.30469-1.4102-0.28516-1.457-0.33984-2.9766-0.14844-1.2305-0.48047-1.0273-0.20312-2.1641-0.03125-1.2695 0.75391-2.0469 0.45312-1.3828 0.085937-1.1602-0.29297-1.7031-0.22656-1.0156-0.078125-1.2852 0.21094-0.99219 0.71875-1.1133 0.96875-0.47656 1.3906-0.57812 1.3789-1.4961 1.0156-3.1211 0.53906-2.2305 0.71484-2.4375 0.26562-1.0859 0.058594-1.957-0.10938-1.3672-0.007813-1.0391-0.27734-1.2891-0.67578-1.1289-1.7852-2.2656-1.793-2.9844-1.375-3.3711-0.79297-1.4102-0.39844-1.4062-0.042969-1.1914 0.53125-1.5859-1.4609-3.457-1.7461-4.9375-1.0977-3.0742-0.79688-2.0156-1.4219-2.5234-1.0859-1.9258-1.5469-1.5625-1.7539-0.79297-1.3438-0.15234-1.8555 0.011718-2.2969 0.007813-1.3672-0.11719-1.7734-0.53125 0.046875-1.5391 1.3984-1.6797 2.332-4.6211 2.2891-3.543 1.4727-2.9336-0.027344-1.5938 0.27734-3.5 0.80859-1.6719 0.78906-0.80469 1.1562-0.007813 1.2656-0.27344 3.0742-0.17969 2.4727-0.42188 2.2852-1.8633 0.67578-2.1641 0.92188-3.8594 0.60938-1.1797 0.97656-0.74219 2.9102-0.75 2.7539-2.1055 4.6797-0.91016 4.9492-3.125 1.0391-0.42188 3.8984-0.25391 1.332 0.14062 2.4375-0.36719 1.4219-0.60547 4.5703-2.6055 1.9766-0.80078 1.7305-0.13672 4.6953 0.47656 1.4141-0.33203 1.6602-0.91406 1.1016-0.16797 2.1016 0.32422 1.7227 1.0117 1.793-0.38672 1.6289-1.8125 2.5742-0.042969z" fill="#ccc" fill-rule="evenodd"/>
<path d="m83.848 269.93 2.3711 0.99219 4.3672 3.043 1.1133 2.2109 1.0391 1.6133 0.94922 1.3477-0.43359 1.3047-0.63281 0.92188-0.23047 1.3867 0.34766 1.0352-0.058593 2.7695v1.9609l0.17188 1.9609 0.75 1.7852 1.4414 2.8828 0.84375 2.1367 0.64453 1.4023 1.4453 2.3594 0.69141 2.5586-0.39453 2.2695-0.46484 3.2852-0.69141 1.8438-1.5547 4.0391-1.0977 3.2852v1.5586l0.51953 1.9023 1.5 4.1523 0.62891 0.97656 1.043 1.6914-0.089844 1.0156-0.86719 0.62109-0.28906 1-0.097656 1.4414-0.77734 1.3047-0.61328 1.0703-0.48438 1.2383-0.79688 1.0664-0.58203 1.1875 0.24609 1.4648-1.5898 2.1953-1.3086 0.54297-0.85156 0.90234 0.44922 1.2852-0.20312 1.0898 0.03125 1.0078-0.24609 1.1367-0.14844 1.5312-0.11328 1.1641 0.058594 1.4844-0.066407 1.5156-0.42188 1.1211-0.5625 1.3594-1.3672 0.8125-0.89453 0.57422-0.88281 1.2695-1 1.293-0.92578 0.98438-0.57422 1.0312-1.1797 0.83594-1.2188 1.082-1.1328 0.94141-0.88281 0.58984-0.61328 1.2109-1.1406 1.4844-0.75391 1.0156-1.2031 0.83594-0.83594 0.99219-0.66406 1.3438-0.51562 1.2188-0.63281 1.8867-0.76953 1.1445-1.9336 0.50781-1.0703 0.41797-0.86328 0.73047-0.70312 1.0234-0.32812 1.2188-1.0547 0.85547-1.2812 0.84375-0.875 1.1445 0.35938 1.1562 0.36328 1.2383-0.082032 2.1289 0.32422 1.3203 0.55859 1.1523 0.52344 0.97656 0.69922 1.2109 0.86719 0.89453 1.1562 0.77734 0.81641 0.62109 0.93359 0.55078 0.97656 1.5664 0.93359 0.93359 0.85156 0.98047 1.0508 0.58984 0.44141 1.5-0.11328 1.0234-0.86328 2.1328-0.28516 1.1133 0.76172 0.96484 0.40234 1.043-0.027344 1.1289 0.44531 1.4414 0.64453 1.0234 0.66406 1.3516 0.17188 1.0156 1.2969 0.074219 1.3516-0.41797 2.0977-0.23438 1.3555-0.27734 2.1914-0.046875 1.9609-0.046875 2.332-0.1875 2.2852-0.1875 1.9141-0.046875 2.2852 0.09375 1.8398 0.22656 3.5703 0.33203 1.168-0.27734 1.25 0.70703 0.52344 1.1602-0.046875 2.2383-2.1445 1.8203-2.3828 1.2109-1.8164 1.0273-0.35547 1.4297-0.44922 2.082-0.26953 1.9453-0.75781 1.6836 0.22266 1.0039 0.20703 1.3711 0.80469 1.7891 0.31641 1.4766 0.74609 1.8672 0.79297 1.3086 0.98047 2.1445v1.0273l-0.26562 1.1289 0.21484 1.8438-0.042969 1.5508-0.65234 1.1211-1.1211 1.1172-1.0703 1.543-0.34766 1.3945 1.0469 1.2148 0.89062 2.3867 0.41406 2.0938 0.046875 1.6719 0.046875 1.5117v1.2031l0.88672 1.7734 1.2578 1.7734 1.2422 0.91406 6.2734 3.3555 1.2852 1.3008-0.42578 1.0898-0.84375 1.0898-0.35938 1.2188-0.38281 0.95703-0.46484 0.98828-0.86328 0.8125-0.91016 0.42188-1.668 0.35547-1.3125 0.47656-1.2695 0.58594-0.99219 0.73438-0.54297 0.91797-0.62891 1.3594-0.90234 1.3438 0.097656 1.9336-0.023437 1.1992-0.20312 1.0234-0.99219 1.5547-0.76172 0.93359-1.1406 0.88672-1.0469 0.30859-1.4414-0.035157-1.2305-1.5234-1.0781-1.6328-1.3242-1.7578-0.8125-1.0234-1.9688-1.0664-1.3281 0.050781-2.1328-0.39062-0.91406-0.77734-0.71484-0.98047-1.0039-0.8125-0.69922-0.79297-1-0.40234-1.4297-0.28125-1.4023-0.59375-1.0312-0.089843-1.1641 0.058593-1.0117 0.15625-1.168 0.10938-1.0586-0.078125-1.8086-0.60938-1.9219-0.83203-1.0195-0.76953-1.1055-0.57812-1.8086 0.32812-0.49609 0.93359-1.0742 1.8555-0.79688 1.5391-0.18359 1.1836-0.29688 1.793-0.42969 0.91406-1.5625 0.59375-1.9961 0.21875-1.5859 0.10938-1.0078 0.17969-2.6055 0.38281-1.7773 0.48047-1.1094 0.34766-0.82812-0.82422-0.67969-1.543-0.64844-1.1172-1.3359-0.93359-1.0625-0.72266-0.77734-0.66797-0.30078-1.0391-2.2734-2.1836-1.582-1.1836-1.6406-1.2461-2.6484-1.8867-2.0078-1.0664-1.125-0.75781-2.25-1.7031-1.0938-0.24609-1.9453-0.027344-1.7969 0.21094-1.4297 0.48828-1.3086-1.125-1.0938-1.1875-1.2148-1.1562-0.48828-1.6406-0.16016-1.0352-0.20312-1.3086-0.36719-1.3672-0.33203-1.6445-0.27344-1.4883-0.18359-1.4023 0.03125-1.6406-0.21484-1.0625-0.63672-1.6133-0.33594-1.4922-0.48828-1.5508-0.19922-1.2266-0.40625-1.3594-0.73047-1.2461-1.1875-0.60938-1.3398-0.54688-1.2461-0.57812-1.4609-0.62891-2.0664-0.43359-1.5508-0.27344-2.4961 0.054687-1.1719-2.0977-0.24219-2.8828 0.13281-1.2695 0.23438-2.2812 1.0391-3.793 0.55469-2.1641 0.54688-2.7891-0.73438-3.1211-0.34375-2.1172 1.6953-0.86328 2.0078-0.11328 0.89453-0.82031 1.2031-0.53906 0.87891-1.2461 0.96484-0.59766 1.0469-0.56641 0.77344-0.71094 0.48047-1.0156 1.0977-0.097656 1.3281-0.32812 1.2031-0.17969 0.96875 0.45703 1.3828-0.023437 1.6055-0.28906 1.5078-0.44141 0.67188-0.74609 0.97656-0.40234 0.75391-0.88281 0.23828-1.418-0.22266-1.6133 0.3125-2.3359 0.41797-1.0625-0.035156-1.793 0.56641-1.7109 0.65625-0.89062 1.0977-0.8125 1.0664-1.3711-0.20703-2.8672-0.20312-1.582-0.30469-1.4102-0.28516-1.457-0.33984-2.9766-0.14844-1.2305-0.48047-1.0273-0.20312-2.1641-0.03125-1.2695 0.75391-2.0469 0.45312-1.3828 0.085937-1.1602-0.29297-1.7031-0.22656-1.0156-0.078125-1.2852 0.21094-0.99219 0.71875-1.1133 0.96875-0.47656 1.3906-0.57812 1.3789-1.4961 1.0156-3.1211 0.53906-2.2305 0.71484-2.4375 0.26562-1.0859 0.058594-1.957-0.10938-1.3672-0.007813-1.0391-0.27734-1.2891-0.67578-1.1289-1.7852-2.2656-1.793-2.9844-1.375-3.3711-0.79297-1.4102-0.39844-1.4062-0.042969-1.1914 0.53125-1.5859-1.4609-3.457-1.7461-4.9375-1.0977-3.0742-0.79688-2.0156-1.4219-2.5234-1.0859-1.9258-1.5469-1.5625-1.7539-0.79297-1.3438-0.15234-1.8555 0.011718-2.2969 0.007813-1.3672-0.11719-1.7734-0.53125 0.046875-1.5391 1.3984-1.6797 2.332-4.6211 2.2891-3.543 1.4727-2.9336-0.027344-1.5938 0.27734-3.5 0.80859-1.6719 0.78906-0.80469 1.1562-0.007813 1.2656-0.27344 3.0742-0.17969 2.4727-0.42188 2.2852-1.8633 0.67578-2.1641 0.92188-3.8594 0.60938-1.1797 0.97656-0.74219 2.9102-0.75 2.7539-2.1055 4.6797-0.91016 4.9492-3.125 1.0391-0.42188 3.8984-0.25391 1.332 0.14062 2.4375-0.36719 1.4219-0.60547 4.5703-2.6055 1.9766-0.80078 1.7305-0.13672 4.6953 0.47656 1.4141-0.33203 1.6602-0.91406 1.1016-0.16797 2.1016 0.32422 1.7227 1.0117 1.793-0.38672 1.6289-1.8125 2.5742-0.042969 1.6289 0.33984" fill="none" stroke="#fff" stroke-linecap="round" stroke-linejoin="round" stroke-miterlimit="10" stroke-width="2"/>
<path d="m135 257.96 1.9844 0.39844 1.4531 0.53516 1.6367 1.3906 0.85547 1.1016 0.85547 2.3242 0.92969 1.668 0.20312 1.0547 0.58203 1.8008 1.0352 2.418 0.1875 1.3047-0.082032 0.99609-0.14062 1.7305-0.75781 1.6133-1.1641 1.3984 0.79297 2.4727 1.3516 2.2852 0.65234 1.7734 0.375 1.7734v1.1445l0.070313 1.2461 0.34766 2.1367 2.3438 2.2617 1.6836 2.75 1.1602 2.5391 1.1953 1.4062 1.668 1.8242 0.625 1.7852 0.4375 1.6719 0.74609 2.5547-0.16797 4.8789 0.25781 2.0742 0.53516 2.2617 1.3984 3.4805 1.3906 1.5352 1.543 1.8047 0.60156 0.88281 0.23438 1.2031 0.015625 2.2422 0.40234 3.7109 0.46094 1.7539 0.33594 1.5312 0.18359 1.7422-0.18359 1.4961-0.11328 3.1406 0.35156 2.1641 1.1016 2.2422 0.61719 1.0469 1.4375 2.4453 0.88672 1.8945 0.85547 2.5391 0.21484 2.3242 0.35547 1.6328 1.5078 1.9375 1.7188 1.7344 3.6602 2.6562 0.54688 1.1484 0.32812 1.1875 0.69531 0.91797 1.2617 0.74609 1.5508 0.79297 1.3008 0.17969 0.97656 0.41797 0.42578 1.4258 0.15625 1.1055 0.03125 1.3438 0.32812 1.0234-0.69531 1.1875-0.65625 0.78125-0.82031 0.875-0.27734 1.6484 0.58203 1.75-0.26953 1.125-0.96094 0.69531-1.1133 0.066406-1.1367 0.30078-1.0078 0.16406-0.34766 0.96875 0.066406 1.793 0.3125 1.2148-0.91016 1.25-1.1641 0.60156-0.90625 0.51562-0.56641 1.2109-0.13281 1.5977-0.375 1.418-0.32031 1.0664-1.0977 0.64453-0.95703 0.50781-0.64844 1.1406-0.55078 0.85156-0.32422 0.98438-0.23828 1.1055-0.82812 1.1953-0.44922 0.94141-0.88672 0.63281-1.3516-0.30469-1.6875 1.2695-0.82812 0.78516-1.2773 0.22266-1.3281-0.050781-1.2852 0.13281-1.0234 0.66406-1.1953-0.066406-0.98438 0.27734-2.0156 0.32031-1.2109 0.50781-1.2969 1.2617-0.71094 0.97656-0.88672 0.81641-0.25391 1.1094-0.61328 1.0703-0.63281 0.99219-0.25391 1.7695-1.0781 0.76172-1.1992 0.28516-1.6328 1.1211-1.1719 0.67578-1.0742 1.1055-1.0352 1.0312-1.1719 0.90234-0.94141 1.1367-0.35156 1.2305-0.050781 1.3789-0.14844 0.99609-0.5 0.87891-0.41406 1.2344-0.17578 1.2539-0.64453 1.4258-0.10547 1.0977-1.6914 1.4844-1.2852 0.43359-1.457 1.0156-0.72266 0.70312-1.4336 0.55078-0.23438 1.582 0.070312 1.3438-0.60547 1.2188-0.6875 0.96875-1.375 0.20312-1.1797 0.82031-0.87891 0.53906-0.92578 0.84375-1.1523 1.457-0.50781 0.95312-0.30469 1.418 0.17969 1.0352-0.39844 1.2773-0.91797 2.2383-0.47656 1.1758-0.19922 1.3438-0.30859 1.0859-0.46094 0.96094-0.78516 1.9062-1.0586 0.76562-1.6797 1.4648-0.53125 1.375-0.63672 1.4766-0.58203 1.2617-1.0664 1.2109-0.59766 0.91016-0.51562 1.1055-0.82812 0.70312-0.82812 0.86328-1.7617-0.79297-6.2734-3.3555-1.2422-0.91406-1.2578-1.7734-0.51172-1.0273-0.375-1.9141-0.046875-1.5469-0.046875-1.6719-0.41406-2.0938-0.89062-2.3867-1.0469-1.2148 0.34766-1.3945 1.0703-1.543 1.0234-1.0195 0.75-1.2188 0.14062-1.1172-0.42188-1.8203 0.375-1.5859v-1.0273l-0.98047-2.1445-0.79297-1.3086-0.74609-1.8672-0.31641-1.4766-0.80469-1.7891-0.20703-1.3711-0.22266-1.0039 0.75781-1.6836 0.26953-1.9453 0.44922-2.082 0.35547-1.4297 1.8164-1.0273 2.3828-1.2109 2.1445-1.8203 0.60938-1.4414-1.0312-1.8242-1.3047-0.83984-1.168 0.27734-2.75-0.23047-2.6602-0.32812-2.2852-0.09375-1.9141 0.046875-2.2852 0.1875-2.332 0.1875-1.9609 0.046875-2.1914 0.046875-1.3555 0.27734-2.0977 0.23438-1.1094 0.34375-1.5781 0.082031-0.13281-1.0977-0.66406-1.3516-0.64453-1.0234-0.44531-1.4414 0.027344-1.1289-0.40234-1.043-0.76172-0.96484 0.28516-1.1133 0.86328-2.1328 0.11328-1.0234-0.32031-1.3281-1.1719-0.76172-0.85156-0.98047-0.93359-0.93359-0.77734-1.3438-1.1328-0.77344-0.81641-0.62109-1.1562-0.77734-0.86719-0.89453-0.54297-0.875-0.67969-1.3125-0.55859-1.1523-0.32422-1.3203-0.042968-1.2305 0.089843-1.3164-0.76172-1.4414 0.56641-1.0898 1.6641-1.4336 1.0547-0.85547 0.32812-1.2188 0.70312-1.0234 0.86328-0.73047 1.0703-0.41797 1.5898-0.27734 1.1133-1.375 0.26562-1.043 0.50781-1.4805 1.0391-1.9258 0.83594-0.99219 1.2031-0.83594 0.75391-1.0156 0.73828-0.8125 0.82812-1.1133 1.0703-1.3594 1.1328-0.94141 0.85938-0.80469 0.99219-0.65234 0.80078-0.76562 0.57422-1.2188 1.5312-1.5234 0.48438-1.1953 0.93359-0.47656 1.3516-0.47656 0.67188-1.2852 0.54297-1.1211 0.36719-1.4102 0.050781-1.8203-0.25391-1.1523 0.21875-1.3281 0.41797-1.1719-0.03125-1.8008 0.20312-1.0898-0.44141-0.93359 0.84375-1.2539 1.3086-0.54297 1.3359-1.2617 0.035157-1.6367 0.16406-1.4766 0.98047-1.3242 0.69141-1.4531 0.61328-1.0703 0.77734-1.3047v-1.2695l0.38672-1.1719 0.86719-0.62109 0.089844-1.0039-1.043-1.7031-0.62891-0.97656-1.5-4.1523-0.51953-1.9023v-1.5586l1.0977-3.2852 1.5547-4.0391 0.69141-1.8438 0.46484-3.2852 0.39453-2.2695-0.69141-2.5586-1.4453-2.3594-0.64453-1.4023-0.84375-2.1367-1.4414-2.8828-0.72656-1.7305-0.19531-2.0156v-1.707l0.058593-3.0234-0.34766-1.0352 0.23047-1.3867 0.63281-0.92188 0.43359-1.3047-0.94922-1.3477-0.54688-0.85156-1.6055-2.9727 1.4688-0.74609 1.6797-0.83984 0.93359-1.3086-0.23438-2.9844 0.51172-2.0078 2.9414-0.98047 4.082 1 2.2617 0.67969 2.2383-0.046875 1.1797-0.23438 2.0078-0.40234 2.5508-0.90234 2.2891-0.69922 1.4023-0.32422 1.4219-0.33203 2.8672-1.6758 1.5391-1.4922 0.80078-0.8125 2.0312 0.8125 1.0547 0.33984 1.1055-0.16016 1.4648-0.80469 2.3555-2.1914 1.3633-0.76953z" fill="#ccc" fill-rule="evenodd"/>
<path d="m135 257.96 1.9844 0.39844 1.4531 0.53516 1.6367 1.3906 0.85547 1.1016 0.85547 2.3242 0.92969 1.668 0.20312 1.0547 0.58203 1.8008 1.0352 2.418 0.1875 1.3047-0.082032 0.99609-0.14062 1.7305-0.75781 1.6133-1.1641 1.3984 0.79297 2.4727 1.3516 2.2852 0.65234 1.7734 0.375 1.7734v1.1445l0.070313 1.2461 0.34766 2.1367 2.3438 2.2617 1.6836 2.75 1.1602 2.5391 1.1953 1.4062 1.668 1.8242 0.625 1.7852 0.4375 1.6719 0.74609 2.5547-0.16797 4.8789 0.25781 2.0742 0.53516 2.2617 1.3984 3.4805 1.3906 1.5352 1.543 1.8047 0.60156 0.88281 0.23438 1.2031 0.015625 2.2422 0.40234 3.7109 0.46094 1.7539 0.33594 1.5312 0.18359 1.7422-0.18359 1.4961-0.11328 3.1406 0.35156 2.1641 1.1016 2.2422 0.61719 1.0469 1.4375 2.4453 0.88672 1.8945 0.85547 2.5391 0.21484 2.3242 0.35547 1.6328 1.5078 1.9375 1.7188 1.7344 3.6602 2.6562 0.54688 1.1484 0.32812 1.1875 0.69531 0.91797 1.2617 0.74609 1.5508 0.79297 1.3008 0.17969 0.97656 0.41797 0.42578 1.4258 0.15625 1.1055 0.03125 1.3438 0.32812 1.0234-0.69531 1.1875-0.65625 0.78125-0.82031 0.875-0.27734 1.6484 0.58203 1.75-0.26953 1.125-0.96094 0.69531-1.1133 0.066406-1.1367 0.30078-1.0078 0.16406-0.34766 0.96875 0.066406 1.793 0.3125 1.2148-0.91016 1.25-1.1641 0.60156-0.90625 0.51562-0.56641 1.2109-0.13281 1.5977-0.375 1.418-0.32031 1.0664-1.0977 0.64453-0.95703 0.50781-0.64844 1.1406-0.55078 0.85156-0.32422 0.98438-0.23828 1.1055-0.82812 1.1953-0.44922 0.94141-0.88672 0.63281-1.3516-0.30469-1.6875 1.2695-0.82812 0.78516-1.2773 0.22266-1.3281-0.050781-1.2852 0.13281-1.0234 0.66406-1.1953-0.066406-0.98438 0.27734-2.0156 0.32031-1.2109 0.50781-1.2969 1.2617-0.71094 0.97656-0.88672 0.81641-0.25391 1.1094-0.61328 1.0703-0.63281 0.99219-0.25391 1.7695-1.0781 0.76172-1.1992 0.28516-1.6328 1.1211-1.1719 0.67578-1.0742 1.1055-1.0352 1.0312-1.1719 0.90234-0.94141 1.1367-0.35156 1.2305-0.050781 1.3789-0.14844 0.99609-0.5 0.87891-0.41406 1.2344-0.17578 1.2539-0.64453 1.4258-0.10547 1.0977-1.6914 1.4844-1.2852 0.43359-1.457 1.0156-0.72266 0.70312-1.4336 0.55078-0.23438 1.582 0.070312 1.3438-0.60547 1.2188-0.6875 0.96875-1.375 0.20312-1.1797 0.82031-0.87891 0.53906-0.92578 0.84375-1.1523 1.457-0.50781 0.95312-0.30469 1.418 0.17969 1.0352-0.39844 1.2773-0.91797 2.2383-0.47656 1.1758-0.19922 1.3438-0.30859 1.0859-0.46094 0.96094-0.78516 1.9062-1.0586 0.76562-1.6797 1.4648-0.53125 1.375-0.63672 1.4766-0.58203 1.2617-1.0664 1.2109-0.59766 0.91016-0.51562 1.1055-0.82812 0.70312-0.82812 0.86328-1.7617-0.79297-6.2734-3.3555-1.2422-0.91406-1.2578-1.7734-0.51172-1.0273-0.375-1.9141-0.046875-1.5469-0.046875-1.6719-0.41406-2.0938-0.89062-2.3867-1.0469-1.2148 0.34766-1.3945 1.0703-1.543 1.0234-1.0195 0.75-1.2188 0.14062-1.1172-0.42188-1.8203 0.375-1.5859v-1.0273l-0.98047-2.1445-0.79297-1.3086-0.74609-1.8672-0.31641-1.4766-0.80469-1.7891-0.20703-1.3711-0.22266-1.0039 0.75781-1.6836 0.26953-1.9453 0.44922-2.082 0.35547-1.4297 1.8164-1.0273 2.3828-1.2109 2.1445-1.8203 0.60938-1.4414-1.0312-1.8242-1.3047-0.83984-1.168 0.27734-2.75-0.23047-2.6602-0.32812-2.2852-0.09375-1.9141 0.046875-2.2852 0.1875-2.332 0.1875-1.9609 0.046875-2.1914 0.046875-1.3555 0.27734-2.0977 0.23438-1.1094 0.34375-1.5781 0.082031-0.13281-1.0977-0.66406-1.3516-0.64453-1.0234-0.44531-1.4414 0.027344-1.1289-0.40234-1.043-0.76172-0.96484 0.28516-1.1133 0.86328-2.1328 0.11328-1.0234-0.32031-1.3281-1.1719-0.76172-0.85156-0.98047-0.93359-0.93359-0.77734-1.3438-1.1328-0.77344-0.81641-0.62109-1.1562-0.77734-0.86719-0.89453-0.54297-0.875-0.67969-1.3125-0.55859-1.1523-0.32422-1.3203-0.042968-1.2305 0.089843-1.3164-0.76172-1.4414 0.56641-1.0898 1.6641-1.4336 1.0547-0.85547 0.32812-1.2188 0.70312-1.0234 0.86328-0.73047 1.0703-0.41797 1.5898-0.27734 1.1133-1.375 0.26562-1.043 0.50781-1.4805 1.0391-1.9258 0.83594-0.99219 1.2031-0.83594 0.75391-1.0156 0.73828-0.8125 0.82812-1.1133 1.0703-1.3594 1.1328-0.94141 0.85938-0.80469 0.99219-0.65234 0.80078-0.76562 0.57422-1.2188 1.5312-1.5234 0.48438-1.1953 0.93359-0.47656 1.3516-0.47656 0.67188-1.2852 0.54297-1.1211 0.36719-1.4102 0.050781-1.8203-0.25391-1.1523 0.21875-1.3281 0.41797-1.1719-0.03125-1.8008 0.20312-1.0898-0.44141-0.93359 0.84375-1.2539 1.3086-0.54297 1.3359-1.2617 0.035157-1.6367 0.16406-1.4766 0.98047-1.3242 0.69141-1.4531 0.61328-1.0703 0.77734-1.3047v-1.2695l0.38672-1.1719 0.86719-0.62109 0.089844-1.0039-1.043-1.7031-0.62891-0.97656-1.5-4.1523-0.51953-1.9023v-1.5586l1.0977-3.2852 1.5547-4.0391 0.69141-1.8438 0.46484-3.2852 0.39453-2.2695-0.69141-2.5586-1.4453-2.3594-0.64453-1.4023-0.84375-2.1367-1.4414-2.8828-0.72656-1.7305-0.19531-2.0156v-1.707l0.058593-3.0234-0.34766-1.0352 0.23047-1.3867 0.63281-0.92188 0.43359-1.3047-0.94922-1.3477-0.54688-0.85156-1.6055-2.9727 1.4688-0.74609 1.6797-0.83984 0.93359-1.3086-0.23438-2.9844 0.51172-2.0078 2.9414-0.98047 4.082 1 2.2617 0.67969 2.2383-0.046875 1.1797-0.23438 2.0078-0.40234 2.5508-0.90234 2.2891-0.69922 1.4023-0.32422 1.4219-0.33203 2.8672-1.6758 1.5391-1.4922 0.80078-0.8125 2.0312 0.8125 1.0547 0.33984 1.1055-0.16016 1.4648-0.80469 2.3555-2.1914 1.3633-0.76953 3.1016 0.87891" fill="none" stroke="#fff" stroke-linecap="round" stroke-linejoin="round" stroke-miterlimit="10" stroke-width="2"/>
<path d="m238.16 203.43-0.1875 1.1992-0.45312 2.3086 0.80859 1.2539 2.2539 2.2109 2.1055 1.7812 1.0117 1.375 0.41016 1.4648-0.28125 1.4102-0.12891 1.8047 0.25781 2.2344 0.50391 1.332 2.6836 4.1953 1.7539 1.5039 1.8555 2.0547 0.40625 1.1406 0.058594 1.1133-1.0352 1.5859-1.5469 1.3281-2.3633 3.0977-1.8438 2.4453-1.2891 2.707-1.4219 1.5547-1.2891 1.2305-0.85547 1.6836-0.95703 1.7969-0.77344 1.6836 0.4375 1.582 0.86328 1.0781 2.2734 3.2227 2.0938 1.8438 1.3398 0.67578 1.7148 0.88281 2.0508 1.2734 0.70703 1.6797-0.30078 2.7461-0.20312 2.9336 0.24609 2.9531 0.10156 2.4727 0.95703 2.7383 0.99219 1.7266 0.67578 1.2539 3.457 4.6289 1.1562 1.8594 1.4141 3.5508 0.86719 3.9727-0.94531 2.5742-0.085937 1.5898-0.17188 2.2344 0.19531 2.9023 0.10547 2.1211 0.33594 1.6367 0.56641 1.2422 0.12891 2.2773 0.60156 2.1445 0.41797 1.4453 0.71875 0.86719 1.1172 1.2969 0.61328 1.1562 0.20703 1.0547 0.32812 1.1797-0.058593 1.082 0.20703 1.3438-0.25391 1.0156-0.64062 1.0508-1.3359 0.39844-0.67969 1.7227-0.38281 1.082-1.125 1.6953-1.2109 1.2188-1.6328 1.5508-0.74219 0.77734-1.0195 1.6562-0.47266 1.3086-0.94922 1.0898-0.09375 1.1953-0.14844 1.1172-0.44141 1.2344-0.91406 0.73828-0.97656 1.2031-0.03125 1.0898-0.074219 1.0391 0.12891 1.2539-0.26953 1.2227-0.48438 1.0469-1.793 0.71484-1.1641 0.5-1.1094 0.39062-1.5195-0.15234-1.0469 0.046875-1.0508-0.14062-0.47656 1.3945-0.20312 1.5469-0.23047 1.0742-0.95703 1.0664-1.082 0.66406-1.0234 0.36719-0.93359 0.64844-0.93359 0.76172-0.87109 0.83594-1.4219 1.2695-1.1328 1.3086-1.6055 0.91016-1.5312-0.85938-1.1406-0.66406-1.3008-1.3945-0.72266-0.76953-0.75391-0.66406-1.0977-1.1211-0.94922-0.50781-0.70312 0.77734-1.1641 0.49219-1.2617 0.37891-1.375 0.015625-1.3281 0.30078-1.1562 0.60156-1.6367 0.51562-2.0742 1.2617-1.2383 0.10547-1.9961 0.53906-0.87109 0.58203-1.1289 0.41797-1.0664 0.55859-1.2852 0.33594-1.5742 0.066406-1.2266 0.24219-1.7539 0.09375-1.1484 0.16797-1.043 0.019531 0.55859-1.4805 0.44531-1.3711 0.27734-1.2109 0.80469-1.2461-0.32812-1.0234-0.64844-0.82812-0.86719-1.2305-1.6094-1.043-1.3125-0.12109-2.1133-0.85547-2.4766-1.3164-1.4336-0.79688-0.94922-0.76172-0.57422-1.6719-1.8906-1.0742-1.2969-0.3125-2.1094-0.30469-2.8438-0.21484-2.2578-0.32422 0.36719-1.1953 0.95312-0.91016 1.3359-1.1875 0.80859-0.77344 0.53516-0.85156 0.95703-0.85156 1.5977-0.57422 0.92578-1.1523 0.074219-1.2148 0.26953-1.3086 0.039063-1.1328 0.29688-1.1289 0.61328-1.0664 0.35938-1.6211 0.16406-1.5156 0.14062-1.2461 0.58984-0.84375-0.47656-1.2539-0.53906-1.1953-0.62891-1.4258-0.69141-1.8672-0.31641-1.1953-0.57422-1.0664-0.027344-2.5234-0.46484-1.082-0.39453-0.99609-0.83594-1.6406-0.67969-1.3516-0.95703-1.0234-1.7383-0.23828-1.2031-0.60547-0.57422-1.0664-0.71094-1.5-0.26953-1.2188-0.23828-1.5-0.59766-1.2031-0.67188-1.4844 0.039062-1.6289-0.35156-1.2383-0.94922-1.3828-0.74609-0.77734-0.92578-0.70703 1.082-2.3008 0.71094-1.0508 0.23047-1.4141 0.24609-1.9023 0.32812-2.0898-0.37109-1.4414-0.12109-1.1289 0.078125-1.1758 1.3047-0.070312 2.7852 0.082031 2.9922-0.44922 2.8867-0.16406 1.8828-0.68359 3.1641-0.64062 1.5664-0.96875 1.0195-0.94141 3-1.4492 1.1836-0.47266 1.5234-1.5781 1.4375-2.4414 0.94531-1.8008 1.4609-1.2891 1.4258-1.8125 1.5117-3.7969 1.4844-2.4648 1.1797-2.5039 0.41797-1.4766 0.19922-3.6367 0.42188-1.832 0.097657-1.7695-0.28906-1.0195-0.76172-1.5234-0.99609-2.1523-0.62891-2.3438-1.3867-2.8789-1.6875-1.8438-0.82422-1.6797-1.4336-1.0625-1.0781-1.7188-0.22266-1.1992-0.082031-2.0859 0.57031-1.9883 0.45312-1.4102 2.4258 0.41797 1.4141-0.64062 0.86719-0.5625 1.0234-0.96484 0.77344-2.1875 0.84375-0.73438 1.8906-0.55469 2.7734-0.15625 0.69141-0.99219 0.027344-2.4727 0.10547-1.0078 2.875-1.1641 2.3242 0.089844 3.1328-0.30078 2.3203-0.17188 0.95703-1.6133 1.5352-1.9922 1.5898-1.5039 0.52734-1.6406 1.2969-0.83984 1.5391-0.82422 2.9062-3.0078 0.61719-0.86328 1.5742-1.1719 1.0703-0.070312z" fill="#ccc" fill-rule="evenodd"/>
<path d="m238.16 203.43-0.1875 1.1992-0.45312 2.3086 0.80859 1.2539 2.2539 2.2109 2.1055 1.7812 1.0117 1.375 0.41016 1.4648-0.28125 1.4102-0.12891 1.8047 0.25781 2.2344 0.50391 1.332 2.6836 4.1953 1.7539 1.5039 1.8555 2.0547 0.40625 1.1406 0.058594 1.1133-1.0352 1.5859-1.5469 1.3281-2.3633 3.0977-1.8438 2.4453-1.2891 2.707-1.4219 1.5547-1.2891 1.2305-0.85547 1.6836-0.95703 1.7969-0.77344 1.6836 0.4375 1.582 0.86328 1.0781 2.2734 3.2227 2.0938 1.8438 1.3398 0.67578 1.7148 0.88281 2.0508 1.2734 0.70703 1.6797-0.30078 2.7461-0.20312 2.9336 0.24609 2.9531 0.10156 2.4727 0.95703 2.7383 0.99219 1.7266 0.67578 1.2539 3.457 4.6289 1.1562 1.8594 1.4141 3.5508 0.86719 3.9727-0.94531 2.5742-0.085937 1.5898-0.17188 2.2344 0.19531 2.9023 0.10547 2.1211 0.33594 1.6367 0.56641 1.2422 0.12891 2.2773 0.60156 2.1445 0.41797 1.4453 0.71875 0.86719 1.1172 1.2969 0.61328 1.1562 0.20703 1.0547 0.32812 1.1797-0.058593 1.082 0.20703 1.3438-0.25391 1.0156-0.64062 1.0508-1.3359 0.39844-0.67969 1.7227-0.38281 1.082-1.125 1.6953-1.2109 1.2188-1.6328 1.5508-0.74219 0.77734-1.0195 1.6562-0.47266 1.3086-0.94922 1.0898-0.09375 1.1953-0.14844 1.1172-0.44141 1.2344-0.91406 0.73828-0.97656 1.2031-0.03125 1.0898-0.074219 1.0391 0.12891 1.2539-0.26953 1.2227-0.48438 1.0469-1.793 0.71484-1.1641 0.5-1.1094 0.39062-1.5195-0.15234-1.0469 0.046875-1.0508-0.14062-0.47656 1.3945-0.20312 1.5469-0.23047 1.0742-0.95703 1.0664-1.082 0.66406-1.0234 0.36719-0.93359 0.64844-0.93359 0.76172-0.87109 0.83594-1.4219 1.2695-1.1328 1.3086-1.6055 0.91016-1.5312-0.85938-1.1406-0.66406-1.3008-1.3945-0.72266-0.76953-0.75391-0.66406-1.0977-1.1211-0.94922-0.50781-0.70312 0.77734-1.1641 0.49219-1.2617 0.37891-1.375 0.015625-1.3281 0.30078-1.1562 0.60156-1.6367 0.51562-2.0742 1.2617-1.2383 0.10547-1.9961 0.53906-0.87109 0.58203-1.1289 0.41797-1.0664 0.55859-1.2852 0.33594-1.5742 0.066406-1.2266 0.24219-1.7539 0.09375-1.1484 0.16797-1.043 0.019531 0.55859-1.4805 0.44531-1.3711 0.27734-1.2109 0.80469-1.2461-0.32812-1.0234-0.64844-0.82812-0.86719-1.2305-1.6094-1.043-1.3125-0.12109-2.1133-0.85547-2.4766-1.3164-1.4336-0.79688-0.94922-0.76172-0.57422-1.6719-1.8906-1.0742-1.2969-0.3125-2.1094-0.30469-2.8438-0.21484-2.2578-0.32422 0.36719-1.1953 0.95312-0.91016 1.3359-1.1875 0.80859-0.77344 0.53516-0.85156 0.95703-0.85156 1.5977-0.57422 0.92578-1.1523 0.074219-1.2148 0.26953-1.3086 0.039063-1.1328 0.29688-1.1289 0.61328-1.0664 0.35938-1.6211 0.16406-1.5156 0.14062-1.2461 0.58984-0.84375-0.47656-1.2539-0.53906-1.1953-0.62891-1.4258-0.69141-1.8672-0.31641-1.1953-0.57422-1.0664-0.027344-2.5234-0.46484-1.082-0.39453-0.99609-0.83594-1.6406-0.67969-1.3516-0.95703-1.0234-1.7383-0.23828-1.2031-0.60547-0.57422-1.0664-0.71094-1.5-0.26953-1.2188-0.23828-1.5-0.59766-1.2031-0.67188-1.4844 0.039062-1.6289-0.35156-1.2383-0.94922-1.3828-0.74609-0.77734-0.92578-0.70703 1.082-2.3008 0.71094-1.0508 0.23047-1.4141 0.24609-1.9023 0.32812-2.0898-0.37109-1.4414-0.12109-1.1289 0.078125-1.1758 1.3047-0.070312 2.7852 0.082031 2.9922-0.44922 2.8867-0.16406 1.8828-0.68359 3.1641-0.64062 1.5664-0.96875 1.0195-0.94141 3-1.4492 1.1836-0.47266 1.5234-1.5781 1.4375-2.4414 0.94531-1.8008 1.4609-1.2891 1.4258-1.8125 1.5117-3.7969 1.4844-2.4648 1.1797-2.5039 0.41797-1.4766 0.19922-3.6367 0.42188-1.832 0.097657-1.7695-0.28906-1.0195-0.76172-1.5234-0.99609-2.1523-0.62891-2.3438-1.3867-2.8789-1.6875-1.8438-0.82422-1.6797-1.4336-1.0625-1.0781-1.7188-0.22266-1.1992-0.082031-2.0859 0.57031-1.9883 0.45312-1.4102 2.4258 0.41797 1.4141-0.64062 0.86719-0.5625 1.0234-0.96484 0.77344-2.1875 0.84375-0.73438 1.8906-0.55469 2.7734-0.15625 0.69141-0.99219 0.027344-2.4727 0.10547-1.0078 2.875-1.1641 2.3242 0.089844 3.1328-0.30078 2.3203-0.17188 0.95703-1.6133 1.5352-1.9922 1.5898-1.5039 0.52734-1.6406 1.2969-0.83984 1.5391-0.82422 2.9062-3.0078 0.61719-0.86328 1.5742-1.1719 1.0703-0.070312 1.3359 0.30859" fill="none" stroke="#fff" stroke-linecap="round" stroke-linejoin="round" stroke-miterlimit="10" stroke-width="2"/>
<path d="m168.55 214.48 3 0.039063 2.0508 0.41406 1.6367 0.3125 1.625 0.019531 2.1953 0.050782 2.3711 0.058593 1.2734 0.15625 0.88281 1.043-0.023438 1.4805 1.2969 0.61719 1.5234-0.84375 2.0156 0.27734 2.4961 1.043 1.7969 0.59766 1.4883 0.55469 0.43359 1.1367 0.9375 1.1445 2.1328 1.2227 1.168 1.0625 0.86328 3.1758-0.45312 1.4102-0.57031 1.9883 0.082031 2.0859 0.22266 1.1992 1.0781 1.7188 0.83203 0.64844 1.4258 2.0938 1.6875 1.8438 1.3867 2.8789 0.62891 2.3438 0.99609 2.1523 0.76172 1.5234 0.28906 1.0195-0.097657 1.7695-0.42188 1.832-0.19922 3.6367-0.41797 1.4766-1.1797 2.5039-1.4844 2.4648-1.5117 3.7969-0.82422 1.082-1.4844 1.5078-1.5234 2.3125-1.4375 2.4414-0.78906 0.94531-1.918 1.1055-2.6797 1.1562-1.3398 1.2344-1.5664 0.96875-3.1641 0.64062-1.8828 0.68359-2.8867 0.16406-2.9922 0.44922-2.7852-0.082031-1.293-0.035156-0.089843 1.2812 0.12109 1.1289 0.32031 1.2031-0.074219 1.4414-0.29297 2.0078-0.17188 1.5586-0.92578 1.6875-0.78906 1.5469-0.26172 1.1484 1.1133 0.41016 1.1406 1.4258 0.50781 1.0898 0.058593 1.5977 0.32812 1.4805 0.62891 1.3438 0.46875 1.5234 0.40625 1.3125 0.14844 1.293 0.96094 1.6133 1.0703 0.75391 1.6562 0.1875 1.0742 0.74609 0.80078 0.93359 0.78906 1.8711 0.62109 1.5859 0.46484 1.082 0.035156 1.6328 0.15625 1.332 0.60547 0.89453 0.28516 2.0078 1.0078 1.793 0.47656 1.1719 0.32812 0.96875 0.27734 1.0156-0.59766 1.0312-0.15625 1.3008-0.29297 1.8359-0.32812 1.1953-0.58203 1.1641-0.16406 1.7383-0.26953 1.3086-0.074219 1.2148-0.46875 1.0469-1.2188 0.14062-1.3125 0.82812-1.0156 1.4141-0.80859 0.77344-1.3359 1.1875-0.78906 0.69531-0.46484 1.1914 2.1914 0.54297 2.8438 0.21484 2.1094 0.30469 1.2969 0.3125 1.418 0.55859 1.0469 2.1875 0.94922 0.76172 1.4336 0.79688 2.4766 1.3164 1.1953 0.45703 2.2305 0.51953 1.2539 0.15234 0.82031 1.4648 1.0508 1.4844 0.32812 1.0234-0.80469 1.2461-0.27734 1.2109-0.37109 1.0664-0.35156 1.3984-1.3164 0.25391-1.1641-0.11328-1.4102 0.046875-1.0547-0.13672-1.582 0.30078-1.1719 0.76172-1.1133 0.45312-1.4023 0.39062-1.2773 0.10156-1.2617 1.1953-0.33594 1.3984-0.58203 0.92578 0.25391 1.543-0.074219 1.3438-0.65625 1.4883-0.5625 1.2109-0.82812-1.7266-0.15625-1.1055-0.023437-1.0977-1.1328-0.73047-1.2344-0.089844-1.1797-0.58984-1.9453-1.0547-0.69531-0.91797-0.32812-1.1875-0.54688-1.1484-3.6602-2.6562-1.7188-1.7344-1.5078-1.9375-0.35547-1.6328-0.21484-2.3242-0.85547-2.5391-0.88672-1.8945-1.4375-2.4453-0.61719-1.0469-1.1016-2.2422-0.35156-2.1641 0.11328-3.1406 0.18359-1.4961-0.18359-1.7422-0.33594-1.5312-0.46094-1.7539-0.40234-3.7109-0.015625-2.2422-0.23438-1.2031-0.60156-0.88281-1.4922-1.7461-1.4414-1.5938-1.3984-3.4805-0.53516-2.2617-0.25781-2.0742 0.16797-4.8789-0.72656-2.4844-0.45703-1.7422-0.625-1.7852-1.668-1.8242-1.1953-1.4062-1.1602-2.5391-1.6836-2.75-1.5977-1.75-1.0312-2.2656-0.13281-1.3633v-1.4102l-0.375-1.7734-0.65234-1.7734-1.3516-2.2852-0.88672-1.6797 1.2578-2.1914 0.75781-1.6133 0.14062-1.7305 0.082032-0.99609-0.1875-1.3047-1.0352-2.418-0.58203-1.8008-0.20312-1.0547-0.92969-1.668-0.55469-1.6875-1.1562-1.7383-1.6367-1.3906-1.4531-0.53516-1.9844-0.39844-2.4531-1.0312 0.17969-2.2344 0.86328-1.7656 0.042969-1.7656 0.76953-3.1211 0.99609-1.6758 0.87891-0.69141 1.7461-1.3008 1.6758-1.0859 1.2227-1.0898 0.67969-1.0859 0.31641-1.1758-0.31641-2.1289v-1.3594l0.31641-1.3086 1.4492-0.95312 1.2812-0.070312 2.3867 1.1562 2.7344 0.71484 1.6133-0.71484 0.8125-0.85938 0.44141-1.7109 0.61328-0.95703 1.0352-0.95703-0.39453-1.5508-1.2773-1.6367 0.59766-1.4844 0.60156-1.25 0.49219-2.2617 0.45703-1.4844 0.73828-0.98438 1.4844-0.75391 1.5781-0.28516 1.6211-1.1992 2.2617-1.5352 3-1.6719 1.0039-0.35547z" fill="#ccc" fill-rule="evenodd"/>
<path d="m168.55 214.48 3 0.039063 2.0508 0.41406 1.6367 0.3125 1.625 0.019531 2.1953 0.050782 2.3711 0.058593 1.2734 0.15625 0.88281 1.043-0.023438 1.4805 1.2969 0.61719 1.5234-0.84375 2.0156 0.27734 2.4961 1.043 1.7969 0.59766 1.4883 0.55469 0.43359 1.1367 0.9375 1.1445 2.1328 1.2227 1.168 1.0625 0.86328 3.1758-0.45312 1.4102-0.57031 1.9883 0.082031 2.0859 0.22266 1.1992 1.0781 1.7188 0.83203 0.64844 1.4258 2.0938 1.6875 1.8438 1.3867 2.8789 0.62891 2.3438 0.99609 2.1523 0.76172 1.5234 0.28906 1.0195-0.097657 1.7695-0.42188 1.832-0.19922 3.6367-0.41797 1.4766-1.1797 2.5039-1.4844 2.4648-1.5117 3.7969-0.82422 1.082-1.4844 1.5078-1.5234 2.3125-1.4375 2.4414-0.78906 0.94531-1.918 1.1055-2.6797 1.1562-1.3398 1.2344-1.5664 0.96875-3.1641 0.64062-1.8828 0.68359-2.8867 0.16406-2.9922 0.44922-2.7852-0.082031-1.293-0.035156-0.089843 1.2812 0.12109 1.1289 0.32031 1.2031-0.074219 1.4414-0.29297 2.0078-0.17188 1.5586-0.92578 1.6875-0.78906 1.5469-0.26172 1.1484 1.1133 0.41016 1.1406 1.4258 0.50781 1.0898 0.058593 1.5977 0.32812 1.4805 0.62891 1.3438 0.46875 1.5234 0.40625 1.3125 0.14844 1.293 0.96094 1.6133 1.0703 0.75391 1.6562 0.1875 1.0742 0.74609 0.80078 0.93359 0.78906 1.8711 0.62109 1.5859 0.46484 1.082 0.035156 1.6328 0.15625 1.332 0.60547 0.89453 0.28516 2.0078 1.0078 1.793 0.47656 1.1719 0.32812 0.96875 0.27734 1.0156-0.59766 1.0312-0.15625 1.3008-0.29297 1.8359-0.32812 1.1953-0.58203 1.1641-0.16406 1.7383-0.26953 1.3086-0.074219 1.2148-0.46875 1.0469-1.2188 0.14062-1.3125 0.82812-1.0156 1.4141-0.80859 0.77344-1.3359 1.1875-0.78906 0.69531-0.46484 1.1914 2.1914 0.54297 2.8438 0.21484 2.1094 0.30469 1.2969 0.3125 1.418 0.55859 1.0469 2.1875 0.94922 0.76172 1.4336 0.79688 2.4766 1.3164 1.1953 0.45703 2.2305 0.51953 1.2539 0.15234 0.82031 1.4648 1.0508 1.4844 0.32812 1.0234-0.80469 1.2461-0.27734 1.2109-0.37109 1.0664-0.35156 1.3984-1.3164 0.25391-1.1641-0.11328-1.4102 0.046875-1.0547-0.13672-1.582 0.30078-1.1719 0.76172-1.1133 0.45312-1.4023 0.39062-1.2773 0.10156-1.2617 1.1953-0.33594 1.3984-0.58203 0.92578 0.25391 1.543-0.074219 1.3438-0.65625 1.4883-0.5625 1.2109-0.82812-1.7266-0.15625-1.1055-0.023437-1.0977-1.1328-0.73047-1.2344-0.089844-1.1797-0.58984-1.9453-1.0547-0.69531-0.91797-0.32812-1.1875-0.54688-1.1484-3.6602-2.6562-1.7188-1.7344-1.5078-1.9375-0.35547-1.6328-0.21484-2.3242-0.85547-2.5391-0.88672-1.8945-1.4375-2.4453-0.61719-1.0469-1.1016-2.2422-0.35156-2.1641 0.11328-3.1406 0.18359-1.4961-0.18359-1.7422-0.33594-1.5312-0.46094-1.7539-0.40234-3.7109-0.015625-2.2422-0.23438-1.2031-0.60156-0.88281-1.4922-1.7461-1.4414-1.5938-1.3984-3.4805-0.53516-2.2617-0.25781-2.0742 0.16797-4.8789-0.72656-2.4844-0.45703-1.7422-0.625-1.7852-1.668-1.8242-1.1953-1.4062-1.1602-2.5391-1.6836-2.75-1.5977-1.75-1.0312-2.2656-0.13281-1.3633v-1.4102l-0.375-1.7734-0.65234-1.7734-1.3516-2.2852-0.88672-1.6797 1.2578-2.1914 0.75781-1.6133 0.14062-1.7305 0.082032-0.99609-0.1875-1.3047-1.0352-2.418-0.58203-1.8008-0.20312-1.0547-0.92969-1.668-0.55469-1.6875-1.1562-1.7383-1.6367-1.3906-1.4531-0.53516-1.9844-0.39844-2.4531-1.0312 0.17969-2.2344 0.86328-1.7656 0.042969-1.7656 0.76953-3.1211 0.99609-1.6758 0.87891-0.69141 1.7461-1.3008 1.6758-1.0859 1.2227-1.0898 0.67969-1.0859 0.31641-1.1758-0.31641-2.1289v-1.3594l0.31641-1.3086 1.4492-0.95312 1.2812-0.070312 2.3867 1.1562 2.7344 0.71484 1.6133-0.71484 0.8125-0.85938 0.44141-1.7109 0.61328-0.95703 1.0352-0.95703-0.39453-1.5508-1.2773-1.6367 0.59766-1.4844 0.60156-1.25 0.49219-2.2617 0.45703-1.4844 0.73828-0.98438 1.4844-0.75391 1.5781-0.28516 1.6211-1.1992 2.2617-1.5352 3-1.6719 1.0039-0.35547 2.1016 0.14453" fill="none" stroke="#fff" stroke-linecap="round" stroke-linejoin="round" stroke-miterlimit="10" stroke-width="2"/>
<path d="m325.11 0.38281 0.1875 0.62109 0.45312 1.1289-0.96094 0.86719-0.64062 0.96094-0.35938 0.99609-0.035156 1.2812-0.69922 1.2422-0.41406 0.92188-0.089844 1.3008 0.53125 1.0039 0.14844 1.0664 0.29297 1.1523 0.82812 1.0352 0.26953 1.0625 0.14453 1.0352 0.76953 0.85938 1.625 0.085937 1.0391-0.29297 1.1914-0.3125 1.4766-0.34375 1.1172-0.30469 1.7383-0.22656 1.5547 0.47266-0.019532 1.6641 0.47266 1.0039 0.64453 0.83203 0.77344 0.68359 1.4023 1.2109 0.87109 0.92578 0.64062 0.87109 0.64453 0.8125 1.1523 0.85156 0.94922 0.73828 0.20703 1.2305 0.054687 1.0391 0.73828 1.2305 0.91016 0.85156 0.96484 0.72266 1.043 1 0.64062 0.89062-0.22656 1.0195-0.09375 1.0977 0.054687 1.2305 0.49219 0.98438 1.1562 0.33984 1.3984 0.28516 2.5-0.41797 1.2305-0.054687 2.625 0.22656 1.2148 0.41797 0.73438 0.84766 1.4023-0.21875 1.1797-0.33203 1.1445-0.074219 1.1055 0.074219 1.6914 0.80859 1.1094 0.99609 0.91797 0.92188 1.0703 0.14844 1.1055 0.14844 0.99609-1.0352 1.457-0.78516 1.0352-0.19922 1.2031 0.30859 1.0625 0.30859 1.2266 0.77734 0.73047 0.80078 0.42578 1.2266 0.73047 1.4375 1.1094 0.61719 0.96484 0.28125 1.5703 0.37891 0.95312 0.83203 0.64062 1.0195-0.24219 1.1289-0.058594 1.0039 0.54688 1.4141 0.39844 0.96094 0.52734 1.1719 0.69531 0.95312 1.0156 0.71875-1.0234 1.25-0.875 0.52344-0.93359 4.0352 0.125 2.7891 0.12891 3.2969-0.13672 1.2188-0.37109 2.0742-0.21094 1.5039-0.77734 2.1211 0.25391 1.0898 0.83594 1.0938 0.9375 0.42969 1.1406 0.74609 0.58203 1.3594 1.293 1.4688 1.0898 1.0391 0.55859 1.2188 1.1406 1.0898 1.0156 0.30469 0.96094 0.55469 0.9375 1.2695 0.58594 1.8242 0.19922 1.543-0.11719 2.2109 0.42578 1.5195 0.85547 1.7539 0.55078 0.92578 0.64453 0.90234 0.69922 2.5195 1.2031 1.125 0.71875 1.832-0.14844 1.6914-0.0625 1.5508-0.050781 1.4414-0.027344 1.4688-0.15234 1.2188 0.43359 1.3672 0.46875 1.0586 0.26562 2.0586-0.14062 1.5781 0.33984 1.0312 0.41797 1.0391 0.69922 0.96094 1.875 1.0508 0.45312 1.4844 0.058594 1.2539 0.35156 1.0781 0.34766 1.4297-0.14453 1.1328-0.085938 1.168 0.17969 1.1992 0.46094 0.98438 0.17188 1.543 0.14844 1.1406 0.20312 1.5156 0.14453 1.7461-0.23047 0.99219-0.089844 1.1367-0.20312 1.0469-0.41016 1.2383 14.57-5.5742 0.10938 1.2227 0.13281 1.3203 0.375 1.4102-0.29297 1.4102 1.4648 1.3711 0.89844 0.52344 1.6641 0.28906-0.054687 1.5078-0.6875 2.2656-0.23438 1.8711 0.10547 1.0859 1.3281 0.54688 1.4141 0.30078 1.0742 0.47656 1.2969 1.1641 0.45312 1.332 0.51172 2.3867 0.54688 1.6797 0.67578 1.1289-0.054688 1.1836-0.14453 1.2148-0.14844 1.1211-0.27344 1.6016-0.16406 1.4062-0.76562 0.71094-0.51172 0.99609-0.28906 1.1719 1.2539 1.2773 1.3672 0.88672 1.1484 0.73047 1.1289 0.92188 1.5938 1.3516 0.85156 1.4375 0.29688 0.98438 0.80078 0.96875 0.85156 0.57031 0.80469 1.2773 0.95703 0.48047 0.82031 1.332 0.89844 1.2305 0.9375 0.95703-0.17578 1.1523 0.76172 1.4883 0.96094 1.6211 1.0586 2.1484 0.09375 1.3359-0.22656 1.3672 0.12109 1.2305-1.2109 0.83203-1.25 0.80859-0.53125 1.0938-0.10156 1.9414-0.16016 2.1406-0.20312 1.5742-0.50391 1.2539-1 1.8242-0.75391 1.5039-0.63672 1-1.125 2.125-1.2969 1.2266-0.89844 0.57031-1.0742 0.58984-1.0195 0.35156-0.60938 0.98047-0.15234 1.5938 0.42188 0.99609 1.1367 1.4219 1.8789 1.3398 1.1094 0.82422 1.957 1.5898 1.4727 0.85547 0.84766 0.60547 0.66406 1-0.26562 1.1953-0.19141 1.543 1.0977 1.4102 0.33984 1.9102-0.050781 1.0742 0.042968 1.6094 0.36328 1.2109 0.53516 1.3008 0.70703 1.4297 0.73047 0.90234 0.83203 0.81641 0.63672 0.81641 0.03125 1.2734-0.58984 1.6211-0.14453 1.4766 0.37891 1.1719 0.92969 0.94531 0.55859 0.83984 0.59375 0.92578 0.32031 1.0703 0.88281 1.3164 0.75 0.74219 0.16797 1.043-0.60547 0.98438v1.0234l-0.32812 1.5898 1.0586 0.95703 0.46094 1.125 0.33203 1.3633 0.59375 0.97656 0.85938 2.4023 0.59766 1.9453 0.11719 1.2969 2.5742 2.9336 0.19141 1.3711-0.54297 1.5625 1.5352 2.2969 1.0781 0.28906 1.3555 0.83984 1.1406 1.0195 1.1523 0.63281 2.0273 3.0117 0.64062 1.6406 0.85547 1.3359 2.082 5.418 0.70312 2.7578 0.050782 1.082-0.35156 1.4023-0.82031 0.9375-1.1836 0.80859-0.55859 1.4609 0.67969 1.2148 0.30859 1.0039-0.57812 1.2109-0.58203 1.7266-1.1172 0.50781-1.2656 0.60938 0.75391 1.0469 1.2656 1.1641 0.82422 0.90234 1.9219 1.1172 1.1875 1.3984 0.63672 0.98438 0.33984 0.99609-0.26562 1.6289-1.4375 1.543 0.19531 1.375 0.56641 1.1016 0.67578 0.79688 0.94531 0.41406 0.92578 0.63281 0.875 2.1133 0.48828 1.6055-0.19531 1.4102 0.60547 1.3359 0.62109 1.1758 0.91406 0.99219 1.043 1.2383 1.6055 1.4023 1.0234 0.66406 1.3125-0.31641 1.0703-0.29297 1.3359-0.4375 1.1953-0.55078 1.043-0.34766 1.2383-0.16797 1.168 0.12109 1.2891 0.24219 1.0703 0.875 0.48438 1.4102-0.12109 1.5078 0.79297 0.78125 1.1914 0.30859 0.78906 1.1289 0.64453 2.082 1.2578 1.5 0.77344 1.2031 0.62891 1.0938 0.29688 1.168 0.33594 1.5312 1.2383 1.2148 0.85156 0.95312 0.67969 0.75781 0.46484 1.2578 0.33594 1.1914-0.48047 1.5547 0.31641 1.3633 0.46875 1.8984-2.1719 0.64844-1.9336 0.28516-2.1758 0.95703-0.92578 0.55859-1.1914 0.72266-0.87891 0.63281-1.0977 0.75391-1.3633 0.24219-1.6484 0.28516-1.3047 0.48828-1.7461 1.8477-0.42188 1.3789-0.46484 1.3086-0.60156 1.2305-1.9961 1.8672-1.1406 0.64062-0.67969 0.80859-0.097656 1.1211-0.79688 0.89453-1.1875 0.125h-1.1133l-1.7344 0.57812-1.4922 0.58984-1.0898-0.0625-0.99219 0.64453-1.1055 0.60938-2.0469 1.5781-1.4102 0.96875-1.7617 0.91016-1.6133 0.58984-1.4766 0.007812-1.0312 0.26172-1.3516 0.875-0.91016 0.84375-0.94141 1.0508-1.0977 0.39062-1.0977 0.22266-1.5312 0.59766-1.7773 0.27734-1.082 0.3125-1.1875 0.62109-0.82031 0.65625-1.1719 0.73828-1.0156 0.25391-1.0547 0.082031-1.3516 0.23828-0.94531 0.44922-1.2031 0.69531-1.1211-0.1875h-1.2539l-1.5742-0.066407-0.98047 0.21484-1.7305 0.44922-1.4648 0.14062-1.6797 0.21094-1.1641-0.20312-0.99219-0.79297-1.2617-0.10938-1.0664 0.25391-0.93359-0.6875-1.4883 0.17188-1.4336 0.71484-1.1328-0.20703-1.7266-0.76172-1.0586-0.53906-0.96484-0.30469-0.97656-0.64844-1.1133-0.35156-1.3672-0.29297-1.2461-0.40234-1.0977-0.22266-1.5664 0.82812-0.85938 0.76172-0.88672 0.75391-0.83203 0.8125-0.37109 1.2266-0.43359 1.3281-0.94141 0.41797-1.6055 0.050781-1.1797 0.72656-3.5898-0.54688-1.207-0.30078-2.6836-2.1328-1.793-2.3125-3.1328-4.2539-1.5703-2.7891-2.3477-3.0469-1.9219-1.2305-4.9414-4.2773-0.77344-1.6562-0.96094-1.0508-1.3438-0.50781-2.8633-0.55469-0.9375-0.55859-0.76172-1.0898-1.3984-2.0586-0.22266-1.0352-0.12891-1.293 2.1328-4.8828 1.6914-2.6719 0.73828-1.9414 2.1914-0.53516 1.0977 0.18359 1.3945-1.4688 1.0742-1.4492 2.2617-0.89062 1.4609-1.0156 1.4766-1.9531 0.32422-1.2578 0.26953-1.6484-0.66406-5.0391 0.050782-2.0742-1.3125-2.1172-0.42188-1.4453-0.15234-1.1875 0.13672-1.4062-0.46484-1.6016-0.58594-1.4648-0.35156-0.94531 0.25391-1.6953-1.3086-3.8711-0.36328-1.7578-0.35547-1.4727-0.71094-1.0117-1.5703-1.0156-1.2461-1.3438-0.85938-0.98828-0.9375-0.42969-1.0391-0.41406-1.1406-2.25-0.91406-1.2422-0.47266-1.0469-1.3125-3.3828-1.0039-0.94531-1.8359-0.57812-1.1719-1.9648-0.26172-1.2852-0.15234-1.1953-0.35547-1.4414-1.4688-0.48047-1.8359 0.26562-1.1367-0.39062-1.2891-0.55859-1.6367 0.25-0.91406 0.44141-1.1484 0.75391-1.8516 0.32031-1.5703 0.46484-1.1914 0.22656-1.2969 0.15234-1.3984-0.21484-1.75-0.53906-1.2148-0.11328-1.1055 0.066406-1.1953-1.1758-1-1.2734-0.98047-1.6172-0.39062-1.082-0.44531-1.2227-0.35547-0.98828-0.54297-1.7109-0.62109-0.80078-0.40625-1.8516 1.0898-1.7461-0.074218-1.043-0.69531-1.6523-0.78906-0.94922-0.55078-1.1289-1.2461-1.1914-1.3828-0.75-2.0195-2.0938-0.51953-1.0312-1.5859-1.0898-0.89844-0.85938-1.0391-0.91406-0.99609-0.65625-1.0078-0.070312-0.37891 1.0547-1.1406 1.5977-0.75781 0.74219-0.66016 1.2617-0.28125 1.293-0.37109 1.0664-2.418-1.043-1.3672-0.023437-0.8125 0.71094-0.81641 1.1719-1.1836-0.38672-1.625-1.0391-3.0859 1.4922-1.832 0.81641-1.4062 1.7227-1.4648 3.5898 0.019532 3.207-0.98438 1.1328-2.5547-0.78906-1.4688-0.32031-1.1641-0.050781-1.0977 0.40234-1.6602 0.85938-1.5898 0.87891-1.6055 0.71094-2 0.75781-0.97656 0.33203h-1.1641l-1.5781 0.69531-1.7852 1.0742-1.3359 1.2305-1.3047 1.0625-1.1367 0.8125-1.1328 0.53906-1.7695 0.41016-1.6055 0.37109-1.375 0.30859-1.0742 0.46875-1.2852 0.48438-0.51562 1.3828-0.41797 1.4023-0.5 1.0156-1.7383 1.793-2.1094 0.75781-0.87109 1.4062-0.58984 0.98047-1.1133 0.38672-0.51953 0.94922-0.20312 1.1641-0.015625 1.0664-1.5 1.7852-0.92578 0.85156-0.66406 1.0742-0.76953 1.1445-0.74609 1.5586-0.44141 1.0898-0.61328 0.97266-0.25391 2.0078-0.55859 0.96094-1.1523-2.6836-0.12891-2.2773-0.55859-1.2031-0.34375-1.6758-0.10547-2.1211-0.19531-2.9023 0.17188-2.2344 0.085937-1.5898 0.73047-1.6719-0.65234-4.875-1.4141-3.5508-1.1562-1.8594-3.457-4.6289-0.67578-1.2539-0.80078-1.3945-1.1484-3.0703-0.10156-2.4727-0.24609-2.9531 0.20312-2.9336 0.40234-1.7773-0.80859-2.6484-2.0508-1.2734-1.7148-0.88281-1.3398-0.67578-1.9258-1.5938-2.4414-3.4727-0.86328-1.0781-0.4375-1.582 0.77344-1.6836 0.95703-1.7969 0.85547-1.6836 1.2891-1.2305 1.4219-1.5547 1.2891-2.707 1.8438-2.4453 2.3633-3.0977 1.5469-1.3281 1.0352-1.5859-0.058594-1.1133-0.40625-1.1406-1.8555-2.0547-1.7539-1.5039-2.6836-4.1953-0.50391-1.332-0.25781-2.2344 0.12891-1.8047 0.28125-1.4102-0.41016-1.4648-1.0117-1.375-1.9961-1.6758-2.3633-2.3164-0.80469-1.1484 0.13281-1.5586 0.50391-2.0547 4.4023-1.2812 2.5859 0.76172 1.4492-0.42969 0.66406-0.92188 0.86719-2.7422 2.0742-5.0469 0.40234-1.0039 0.79297-0.79688 1.4375-0.30078 1.1445 0.33203 2.6328 1.6562 1.1406 0.089844 2.082 0.49219 1.2969-1.1719 0.48047-1.1328-0.15234-2.043 0.078125-1.5898 0.50391-2.457 2.1367-4.7344 0.53516-2.7656 0.26172-1.5156 1.2461-1.0586 1.375-0.050781 1.2188-0.36328 0.39453-1.6133-0.10547-1.1992 1.9844-2.9805 1.4141-1.9336 0.57422-1.5703-0.42188-1.0312-0.71875-1.1523 0.38281-1.9805 0.62109-1.0469-0.023437-1.8398 0.80469-2.1289 0.023438-2.0508-0.41406-1.7109-0.3125-1.2734-0.023437-1.582 1.4766-1.8945 1.1953-1.1172 0.54297-1.3477 0.054688-1.2891-1.9727-3.5781-1.4609-2-0.25-1.2266-0.91406-2.3242 0.92969-3.3438-0.023437-3.6484 0.17578-1.0625 0.89453-1.1484 2.2188-2.5039 1.1172-1.082 0.51172-1.4492-0.37891-2.4023-0.42188-1.5391-1.5859-1.7305-3.0273-0.9375-1.1914-0.9375 0.10938-2.0898 1.7656-2.1289 1.5273-1.6406 2.2734-1.4688 2.9531-0.13672 0.73047-1.0781-0.875-2.2266-0.47656-1.0508-0.53906-0.89062-0.71484-0.85938-0.15625-1.9883 0.83594-2.9727 0.65625-4.5938 0.25-1.9023-0.46484-0.90625 0.44922-2.0625 0.011719-1.3359-0.11719-3.5078-0.30078-1.418-0.42188-1.0273-1.8516-3.5469-0.79688-0.66406 0.52344-1.2305 2.2539-1.1719 1.5391-0.30078-0.74609-2.332-1.543-3.9062-0.023438-1.5508 0.25-1.7461 0.089844-1.1484 0.96484-1.5156 2.2344-1.5742 0.33203-3.1719 1.1133-2.3086 0.85156-1.6289 0.60547-1.1016 2.5273-1.2656 1.5391-0.95312 3.4023-2.6797 1.1562 0.19922 1.6055 1.7344 0.72656 2.6992 0.92188 1.1172 0.70703 1.2148 1.293 0.44922 1.1562-0.17578 1.7266 0.49219 2.6445 0.41016 2.1797 0.019532 0.64453-0.80859 0.097656-1.4609 0.15625-2.2969-0.16797-1.1523-0.65234-2.0664-0.4375-1.3438-0.03125-1.3086 0.50391-1.2461-0.625-1.0586 0.058594-1.375-0.3125-1.6445-0.23438-1.6875-0.44922-2.1289-0.41406-2.1445-0.43359-1.0391-0.27344-1.5508-0.96094-1.7031-0.98047-1.3945-0.19531-1.4492-0.11719-1.1094 0.13672-1.418 0.78125-1.0625 1.3594-2.1172-0.023438-1.6641v-1.6289l-0.10938-1.5039-0.44141-1.1797-1.0117-0.93359-0.63281-1.1641 0.15625-1.1797 0.70703-0.87891 2.2148-0.94141 1.3633-0.60156 2.125-0.65625 1.5859-0.23828 1.7422-0.44922 1.0859-0.80078 1.2344-0.25391 2.3711-0.29688 1.5664-0.17188 2.3125-2.0586 1.7422-1.1992 3-0.0625z" fill="#ccc" fill-rule="evenodd"/>
<path d="m325.11 0.38281 0.1875 0.62109 0.45312 1.1289-0.96094 0.86719-0.64062 0.96094-0.35938 0.99609-0.035156 1.2812-0.69922 1.2422-0.41406 0.92188-0.089844 1.3008 0.53125 1.0039 0.14844 1.0664 0.29297 1.1523 0.82812 1.0352 0.26953 1.0625 0.14453 1.0352 0.76953 0.85938 1.625 0.085937 1.0391-0.29297 1.1914-0.3125 1.4766-0.34375 1.1172-0.30469 1.7383-0.22656 1.5547 0.47266-0.019532 1.6641 0.47266 1.0039 0.64453 0.83203 0.77344 0.68359 1.4023 1.2109 0.87109 0.92578 0.64062 0.87109 0.64453 0.8125 1.1523 0.85156 0.94922 0.73828 0.20703 1.2305 0.054687 1.0391 0.73828 1.2305 0.91016 0.85156 0.96484 0.72266 1.043 1 0.64062 0.89062-0.22656 1.0195-0.09375 1.0977 0.054687 1.2305 0.49219 0.98438 1.1562 0.33984 1.3984 0.28516 2.5-0.41797 1.2305-0.054687 2.625 0.22656 1.2148 0.41797 0.73438 0.84766 1.4023-0.21875 1.1797-0.33203 1.1445-0.074219 1.1055 0.074219 1.6914 0.80859 1.1094 0.99609 0.91797 0.92188 1.0703 0.14844 1.1055 0.14844 0.99609-1.0352 1.457-0.78516 1.0352-0.19922 1.2031 0.30859 1.0625 0.30859 1.2266 0.77734 0.73047 0.80078 0.42578 1.2266 0.73047 1.4375 1.1094 0.61719 0.96484 0.28125 1.5703 0.37891 0.95312 0.83203 0.64062 1.0195-0.24219 1.1289-0.058594 1.0039 0.54688 1.4141 0.39844 0.96094 0.52734 1.1719 0.69531 0.95312 1.0156 0.71875-1.0234 1.25-0.875 0.52344-0.93359 4.0352 0.125 2.7891 0.12891 3.2969-0.13672 1.2188-0.37109 2.0742-0.21094 1.5039-0.77734 2.1211 0.25391 1.0898 0.83594 1.0938 0.9375 0.42969 1.1406 0.74609 0.58203 1.3594 1.293 1.4688 1.0898 1.0391 0.55859 1.2188 1.1406 1.0898 1.0156 0.30469 0.96094 0.55469 0.9375 1.2695 0.58594 1.8242 0.19922 1.543-0.11719 2.2109 0.42578 1.5195 0.85547 1.7539 0.55078 0.92578 0.64453 0.90234 0.69922 2.5195 1.2031 1.125 0.71875 1.832-0.14844 1.6914-0.0625 1.5508-0.050781 1.4414-0.027344 1.4688-0.15234 1.2188 0.43359 1.3672 0.46875 1.0586 0.26562 2.0586-0.14062 1.5781 0.33984 1.0312 0.41797 1.0391 0.69922 0.96094 1.875 1.0508 0.45312 1.4844 0.058594 1.2539 0.35156 1.0781 0.34766 1.4297-0.14453 1.1328-0.085938 1.168 0.17969 1.1992 0.46094 0.98438 0.17188 1.543 0.14844 1.1406 0.20312 1.5156 0.14453 1.7461-0.23047 0.99219-0.089844 1.1367-0.20312 1.0469-0.41016 1.2383 14.57-5.5742 0.10938 1.2227 0.13281 1.3203 0.375 1.4102-0.29297 1.4102 1.4648 1.3711 0.89844 0.52344 1.6641 0.28906-0.054687 1.5078-0.6875 2.2656-0.23438 1.8711 0.10547 1.0859 1.3281 0.54688 1.4141 0.30078 1.0742 0.47656 1.2969 1.1641 0.45312 1.332 0.51172 2.3867 0.54688 1.6797 0.67578 1.1289-0.054688 1.1836-0.14453 1.2148-0.14844 1.1211-0.27344 1.6016-0.16406 1.4062-0.76562 0.71094-0.51172 0.99609-0.28906 1.1719 1.2539 1.2773 1.3672 0.88672 1.1484 0.73047 1.1289 0.92188 1.5938 1.3516 0.85156 1.4375 0.29688 0.98438 0.80078 0.96875 0.85156 0.57031 0.80469 1.2773 0.95703 0.48047 0.82031 1.332 0.89844 1.2305 0.9375 0.95703-0.17578 1.1523 0.76172 1.4883 0.96094 1.6211 1.0586 2.1484 0.09375 1.3359-0.22656 1.3672 0.12109 1.2305-1.2109 0.83203-1.25 0.80859-0.53125 1.0938-0.10156 1.9414-0.16016 2.1406-0.20312 1.5742-0.50391 1.2539-1 1.8242-0.75391 1.5039-0.63672 1-1.125 2.125-1.2969 1.2266-0.89844 0.57031-1.0742 0.58984-1.0195 0.35156-0.60938 0.98047-0.15234 1.5938 0.42188 0.99609 1.1367 1.4219 1.8789 1.3398 1.1094 0.82422 1.957 1.5898 1.4727 0.85547 0.84766 0.60547 0.66406 1-0.26562 1.1953-0.19141 1.543 1.0977 1.4102 0.33984 1.9102-0.050781 1.0742 0.042968 1.6094 0.36328 1.2109 0.53516 1.3008 0.70703 1.4297 0.73047 0.90234 0.83203 0.81641 0.63672 0.81641 0.03125 1.2734-0.58984 1.6211-0.14453 1.4766 0.37891 1.1719 0.92969 0.94531 0.55859 0.83984 0.59375 0.92578 0.32031 1.0703 0.88281 1.3164 0.75 0.74219 0.16797 1.043-0.60547 0.98438v1.0234l-0.32812 1.5898 1.0586 0.95703 0.46094 1.125 0.33203 1.3633 0.59375 0.97656 0.85938 2.4023 0.59766 1.9453 0.11719 1.2969 2.5742 2.9336 0.19141 1.3711-0.54297 1.5625 1.5352 2.2969 1.0781 0.28906 1.3555 0.83984 1.1406 1.0195 1.1523 0.63281 2.0273 3.0117 0.64062 1.6406 0.85547 1.3359 2.082 5.418 0.70312 2.7578 0.050782 1.082-0.35156 1.4023-0.82031 0.9375-1.1836 0.80859-0.55859 1.4609 0.67969 1.2148 0.30859 1.0039-0.57812 1.2109-0.58203 1.7266-1.1172 0.50781-1.2656 0.60938 0.75391 1.0469 1.2656 1.1641 0.82422 0.90234 1.9219 1.1172 1.1875 1.3984 0.63672 0.98438 0.33984 0.99609-0.26562 1.6289-1.4375 1.543 0.19531 1.375 0.56641 1.1016 0.67578 0.79688 0.94531 0.41406 0.92578 0.63281 0.875 2.1133 0.48828 1.6055-0.19531 1.4102 0.60547 1.3359 0.62109 1.1758 0.91406 0.99219 1.043 1.2383 1.6055 1.4023 1.0234 0.66406 1.3125-0.31641 1.0703-0.29297 1.3359-0.4375 1.1953-0.55078 1.043-0.34766 1.2383-0.16797 1.168 0.12109 1.2891 0.24219 1.0703 0.875 0.48438 1.4102-0.12109 1.5078 0.79297 0.78125 1.1914 0.30859 0.78906 1.1289 0.64453 2.082 1.2578 1.5 0.77344 1.2031 0.62891 1.0938 0.29688 1.168 0.33594 1.5312 1.2383 1.2148 0.85156 0.95312 0.67969 0.75781 0.46484 1.2578 0.33594 1.1914-0.48047 1.5547 0.31641 1.3633 0.46875 1.8984-2.1719 0.64844-1.9336 0.28516-2.1758 0.95703-0.92578 0.55859-1.1914 0.72266-0.87891 0.63281-1.0977 0.75391-1.3633 0.24219-1.6484 0.28516-1.3047 0.48828-1.7461 1.8477-0.42188 1.3789-0.46484 1.3086-0.60156 1.2305-1.9961 1.8672-1.1406 0.64062-0.67969 0.80859-0.097656 1.1211-0.79688 0.89453-1.1875 0.125h-1.1133l-1.7344 0.57812-1.4922 0.58984-1.0898-0.0625-0.99219 0.64453-1.1055 0.60938-2.0469 1.5781-1.4102 0.96875-1.7617 0.91016-1.6133 0.58984-1.4766 0.007812-1.0312 0.26172-1.3516 0.875-0.91016 0.84375-0.94141 1.0508-1.0977 0.39062-1.0977 0.22266-1.5312 0.59766-1.7773 0.27734-1.082 0.3125-1.1875 0.62109-0.82031 0.65625-1.1719 0.73828-1.0156 0.25391-1.0547 0.082031-1.3516 0.23828-0.94531 0.44922-1.2031 0.69531-1.1211-0.1875h-1.2539l-1.5742-0.066407-0.98047 0.21484-1.7305 0.44922-1.4648 0.14062-1.6797 0.21094-1.1641-0.20312-0.99219-0.79297-1.2617-0.10938-1.0664 0.25391-0.93359-0.6875-1.4883 0.17188-1.4336 0.71484-1.1328-0.20703-1.7266-0.76172-1.0586-0.53906-0.96484-0.30469-0.97656-0.64844-1.1133-0.35156-1.3672-0.29297-1.2461-0.40234-1.0977-0.22266-1.5664 0.82812-0.85938 0.76172-0.88672 0.75391-0.83203 0.8125-0.37109 1.2266-0.43359 1.3281-0.94141 0.41797-1.6055 0.050781-1.1797 0.72656-3.5898-0.54688-1.207-0.30078-2.6836-2.1328-1.793-2.3125-3.1328-4.2539-1.5703-2.7891-2.3477-3.0469-1.9219-1.2305-4.9414-4.2773-0.77344-1.6562-0.96094-1.0508-1.3438-0.50781-2.8633-0.55469-0.9375-0.55859-0.76172-1.0898-1.3984-2.0586-0.22266-1.0352-0.12891-1.293 2.1328-4.8828 1.6914-2.6719 0.73828-1.9414 2.1914-0.53516 1.0977 0.18359 1.3945-1.4688 1.0742-1.4492 2.2617-0.89062 1.4609-1.0156 1.4766-1.9531 0.32422-1.2578 0.26953-1.6484-0.66406-5.0391 0.050782-2.0742-1.3125-2.1172-0.42188-1.4453-0.15234-1.1875 0.13672-1.4062-0.46484-1.6016-0.58594-1.4648-0.35156-0.94531 0.25391-1.6953-1.3086-3.8711-0.36328-1.7578-0.35547-1.4727-0.71094-1.0117-1.5703-1.0156-1.2461-1.3438-0.85938-0.98828-0.9375-0.42969-1.0391-0.41406-1.1406-2.25-0.91406-1.2422-0.47266-1.0469-1.3125-3.3828-1.0039-0.94531-1.8359-0.57812-1.1719-1.9648-0.26172-1.2852-0.15234-1.1953-0.35547-1.4414-1.4688-0.48047-1.8359 0.26562-1.1367-0.39062-1.2891-0.55859-1.6367 0.25-0.91406 0.44141-1.1484 0.75391-1.8516 0.32031-1.5703 0.46484-1.1914 0.22656-1.2969 0.15234-1.3984-0.21484-1.75-0.53906-1.2148-0.11328-1.1055 0.066406-1.1953-1.1758-1-1.2734-0.98047-1.6172-0.39062-1.082-0.44531-1.2227-0.35547-0.98828-0.54297-1.7109-0.62109-0.80078-0.40625-1.8516 1.0898-1.7461-0.074218-1.043-0.69531-1.6523-0.78906-0.94922-0.55078-1.1289-1.2461-1.1914-1.3828-0.75-2.0195-2.0938-0.51953-1.0312-1.5859-1.0898-0.89844-0.85938-1.0391-0.91406-0.99609-0.65625-1.0078-0.070312-0.37891 1.0547-1.1406 1.5977-0.75781 0.74219-0.66016 1.2617-0.28125 1.293-0.37109 1.0664-2.418-1.043-1.3672-0.023437-0.8125 0.71094-0.81641 1.1719-1.1836-0.38672-1.625-1.0391-3.0859 1.4922-1.832 0.81641-1.4062 1.7227-1.4648 3.5898 0.019532 3.207-0.98438 1.1328-2.5547-0.78906-1.4688-0.32031-1.1641-0.050781-1.0977 0.40234-1.6602 0.85938-1.5898 0.87891-1.6055 0.71094-2 0.75781-0.97656 0.33203h-1.1641l-1.5781 0.69531-1.7852 1.0742-1.3359 1.2305-1.3047 1.0625-1.1367 0.8125-1.1328 0.53906-1.7695 0.41016-1.6055 0.37109-1.375 0.30859-1.0742 0.46875-1.2852 0.48438-0.51562 1.3828-0.41797 1.4023-0.5 1.0156-1.7383 1.793-2.1094 0.75781-0.87109 1.4062-0.58984 0.98047-1.1133 0.38672-0.51953 0.94922-0.20312 1.1641-0.015625 1.0664-1.5 1.7852-0.92578 0.85156-0.66406 1.0742-0.76953 1.1445-0.74609 1.5586-0.44141 1.0898-0.61328 0.97266-0.25391 2.0078-0.55859 0.96094-1.1523-2.6836-0.12891-2.2773-0.55859-1.2031-0.34375-1.6758-0.10547-2.1211-0.19531-2.9023 0.17188-2.2344 0.085937-1.5898 0.73047-1.6719-0.65234-4.875-1.4141-3.5508-1.1562-1.8594-3.457-4.6289-0.67578-1.2539-0.80078-1.3945-1.1484-3.0703-0.10156-2.4727-0.24609-2.9531 0.20312-2.9336 0.40234-1.7773-0.80859-2.6484-2.0508-1.2734-1.7148-0.88281-1.3398-0.67578-1.9258-1.5938-2.4414-3.4727-0.86328-1.0781-0.4375-1.582 0.77344-1.6836 0.95703-1.7969 0.85547-1.6836 1.2891-1.2305 1.4219-1.5547 1.2891-2.707 1.8438-2.4453 2.3633-3.0977 1.5469-1.3281 1.0352-1.5859-0.058594-1.1133-0.40625-1.1406-1.8555-2.0547-1.7539-1.5039-2.6836-4.1953-0.50391-1.332-0.25781-2.2344 0.12891-1.8047 0.28125-1.4102-0.41016-1.4648-1.0117-1.375-1.9961-1.6758-2.3633-2.3164-0.80469-1.1484 0.13281-1.5586 0.50391-2.0547 4.4023-1.2812 2.5859 0.76172 1.4492-0.42969 0.66406-0.92188 0.86719-2.7422 2.0742-5.0469 0.40234-1.0039 0.79297-0.79688 1.4375-0.30078 1.1445 0.33203 2.6328 1.6562 1.1406 0.089844 2.082 0.49219 1.2969-1.1719 0.48047-1.1328-0.15234-2.043 0.078125-1.5898 0.50391-2.457 2.1367-4.7344 0.53516-2.7656 0.26172-1.5156 1.2461-1.0586 1.375-0.050781 1.2188-0.36328 0.39453-1.6133-0.10547-1.1992 1.9844-2.9805 1.4141-1.9336 0.57422-1.5703-0.42188-1.0312-0.71875-1.1523 0.38281-1.9805 0.62109-1.0469-0.023437-1.8398 0.80469-2.1289 0.023438-2.0508-0.41406-1.7109-0.3125-1.2734-0.023437-1.582 1.4766-1.8945 1.1953-1.1172 0.54297-1.3477 0.054688-1.2891-1.9727-3.5781-1.4609-2-0.25-1.2266-0.91406-2.3242 0.92969-3.3438-0.023437-3.6484 0.17578-1.0625 0.89453-1.1484 2.2188-2.5039 1.1172-1.082 0.51172-1.4492-0.37891-2.4023-0.42188-1.5391-1.5859-1.7305-3.0273-0.9375-1.1914-0.9375 0.10938-2.0898 1.7656-2.1289 1.5273-1.6406 2.2734-1.4688 2.9531-0.13672 0.73047-1.0781-0.875-2.2266-0.47656-1.0508-0.53906-0.89062-0.71484-0.85938-0.15625-1.9883 0.83594-2.9727 0.65625-4.5938 0.25-1.9023-0.46484-0.90625 0.44922-2.0625 0.011719-1.3359-0.11719-3.5078-0.30078-1.418-0.42188-1.0273-1.8516-3.5469-0.79688-0.66406 0.52344-1.2305 2.2539-1.1719 1.5391-0.30078-0.74609-2.332-1.543-3.9062-0.023438-1.5508 0.25-1.7461 0.089844-1.1484 0.96484-1.5156 2.2344-1.5742 0.33203-3.1719 1.1133-2.3086 0.85156-1.6289 0.60547-1.1016 2.5273-1.2656 1.5391-0.95312 3.4023-2.6797 1.1562 0.19922 1.6055 1.7344 0.72656 2.6992 0.92188 1.1172 0.70703 1.2148 1.293 0.44922 1.1562-0.17578 1.7266 0.49219 2.6445 0.41016 2.1797 0.019532 0.64453-0.80859 0.097656-1.4609 0.15625-2.2969-0.16797-1.1523-0.65234-2.0664-0.4375-1.3438-0.03125-1.3086 0.50391-1.2461-0.625-1.0586 0.058594-1.375-0.3125-1.6445-0.23438-1.6875-0.44922-2.1289-0.41406-2.1445-0.43359-1.0391-0.27344-1.5508-0.96094-1.7031-0.98047-1.3945-0.19531-1.4492-0.11719-1.1094 0.13672-1.418 0.78125-1.0625 1.3594-2.1172-0.023438-1.6641v-1.6289l-0.10938-1.5039-0.44141-1.1797-1.0117-0.93359-0.63281-1.1641 0.15625-1.1797 0.70703-0.87891 2.2148-0.94141 1.3633-0.60156 2.125-0.65625 1.5859-0.23828 1.7422-0.44922 1.0859-0.80078 1.2344-0.25391 2.3711-0.29688 1.5664-0.17188 2.3125-2.0586 1.7422-1.1992 3-0.0625 0.90234 0.039063" fill="none" stroke="#fff" stroke-linecap="round" stroke-linejoin="round" stroke-miterlimit="10" stroke-width="2"/>
<path d="m326.54 260.78 0.48438 0.089844 1.2422 0.76172 1.0391 0.91406 0.89844 0.85938 1.5859 1.0898 0.51953 1.0312 2.0195 2.0938 1.3828 0.75 1.2461 1.1914 0.55078 1.1289 0.78906 0.94922 0.44531 0.95703 0.32422 1.7383-0.60938 1.0117-0.40625 1.75 0.95312 1.6367 0.54297 1.7109 0.35547 0.98828 0.44531 1.2227 0.39062 1.082 0.98047 1.6172 1 1.2734 1.1953 1.1758 1.1055-0.066406 1.1211 0.082031 1.8438 0.57031 1.3984 0.21484 1.2969-0.15234 1.1914-0.22656 1.5703-0.46484 1.0273-0.027344 1.9727-1.0469 0.91406-0.44141 0.98438-0.25 1.9414 0.55859 0.94141 0.37891 1.2422 0.078125 1.75-0.30469 0.8125 1.4961 0.20312 1.5938 0.26172 1.2852 0.82812 1.1992 1.3438 1.0664 1.8398 1.2227 1.3125 3.3828 0.47266 1.0469 0.91406 1.2422 1.1406 2.25 1.0391 0.41406 0.9375 0.42969 0.85938 0.98828 1.2461 1.3438 1.5703 1.0156 0.71094 1.0117 0.35547 1.4727 0.36328 1.7578 1.3359 3.0547-0.28125 2.5117 0.35156 0.94531 0.58594 1.4648 0.46484 1.6016-0.13672 1.4062 0.15234 1.1875 0.42188 1.4453 1.1602 1.5391 0.10156 2.6523 0.66406 5.0391-0.26953 1.6484-0.32422 1.2578-1.4766 1.9531-1.4609 1.0156-2.2617 0.89062-1.0742 1.4492-0.43359 1.4023-2.0586-0.11719-1.3477 0.042969-1.582 2.4336-1.6914 2.6719-2.0898 3.9141 0.085938 2.2617 0.22266 1.0352 0.9375 1.2461 1.2227 1.9023 0.9375 0.55859 1.9023 0.35547 2.3047 0.70703 0.96094 1.0508 0.77344 1.6562 4.9414 4.2773 1.9219 1.2305 2.3477 3.0469 1.5703 2.7891 3.1328 4.2539 1.793 2.3125 2.6836 2.1328 1.207 0.30078 3.0469 1.1211-0.87891 0.79688-1.3711 1.0703-1.0352 0.91797-1.0547 0.55078-1.1562 0.80078-0.46484 1.1875-0.17188 1.043-0.99219 0.72656-0.58984 1.0508-0.73047 0.92578-1.293 0.45703-1.8789 1.582-0.61328 0.96875-0.85938 0.74219-0.96875 0.87109-0.91406 0.81641-0.60156 0.8125-1.1367 0.95703-1.5391 1-1.8047 1.9023-1.0625 0.77734-1.0664 1.9844-0.44141 0.96484-0.11719 1.0977-1.1523 2.9648-0.15625 1.1562-0.29688 1.5586-0.84375 0.85156-1.0703 0.58984h-1.1172l-1.293 0.38281-0.40234 1.125-0.46484 1.0234-0.51562 0.875 0.054688 1.1406 0.32812 1.0977-0.097656 1.1719-1.1484 0.26172-0.97266-0.58203-1.0156-0.097656-1.1328 0.27734-2.0625-0.27734-1.1797 0.23438-1.0078 0.125-0.98438-0.5-1.6953-1.0898-1.2852-0.21094-1.0977-0.3125-1.2891-0.15625-2.0703-0.10547-0.83594 0.62891-1.2617 0.30469-1.8359 0.28516-1.7109 0.19922-1.3359-0.10156-1.0391-0.42578-1.4766-0.63672-0.83594-0.87891-1.0312-0.67969-0.98438-0.86719-0.51562-0.94141-0.082031-1.0234-0.79297-0.69141-1.0742 0.066406-1.5469 0.11719-1.1484-0.18359-1.2461 0.19922-1.0312-0.39453-1-0.32031-1.1367-0.57031-0.98438-0.87109-1.9844-1.0312-1.1719-1.0156-0.89062-0.64062-1.4258-1.0312-1.1953-1.6367-0.59766-1.2617-0.51953-1.0977-0.78516-0.82031-1.1875-0.76172-1.3125-0.34375-1.4062-0.73047-0.61719-2.1211-0.63672-1.0664-1.2773-0.42578-1.4336-0.77734-1.1328-0.73828-1.0977-0.054688-1.1719-0.85547-1.1523-0.375-1.4766-0.86719-0.72266-1.0273 0.027344-1.1523-0.35156-1.582-1.4766-0.86719-0.64844-0.82031-0.50781-0.91016-0.93359-1.1211-1.1055-0.49219-1.0078-0.79297-1.0547-0.78125-0.69922-0.88281-1.2188-0.13281-1.3516-0.6875-0.80469-0.98438-0.33594-1.1211-0.70312-1.0547-1.4844-0.27344-1.0703-0.69531-1-0.49219-1.1406-0.61328-1.0078-0.26953-0.59766-1.1406-1.2109-1.9414-0.59766-0.98438-1.1328-0.86719-0.80078-1.1562-0.63281-0.98828-0.88281-0.61719-1.4023-0.40625-1.3906-0.71484-1.2617-0.17969-1.0664-0.37891-1.3945-0.62891-1.1289-0.22266-0.65625-0.78516-0.85938-0.94922-1.7031-0.28906-1.2891 0.14844-0.99609-0.67969-1.2305-0.58203-1.1055-0.76172-0.92578-0.50781-1.3945-0.85156-1.0547-0.91797-1.0898-0.60547-1.1562-0.25391-1.2031-0.67969-0.65625-0.88672-0.53906-1.1641-0.64844-1.2188-0.8125-1.418-0.91797-1.1875-1.2188-1.375-0.94141-0.4375-1.5742-1.1133-0.76172-0.67188-0.22266-1.1875-1.793-1.2344-0.52344-1-1.1875-0.14062-1.0547-0.23047 0.39844-1.2031 0.10547-1.6641-0.054687-1.5234 0.03125-1.0898 0.53906-0.89062 0.91797-0.57422 0.67969-0.94922 0.27344-1.0664-0.007813-1.2383 0.62109-1.3906 0.78516-0.82812 0.77734-1.7305 0.72266-1.1133 1.4414-1.5664 1.2383-0.99609 1.3281-1.5664 0.62891-1.3906 0.5-1.8633 0.89453-0.62109 1.0391-0.41016 0.53906-1.3594 0.066407-1.0312-0.10547-1.2773-0.16406-1.4336-0.25391-1.1406-0.73828-1.4336-0.82812-0.74609-0.75391-0.96484-0.12109-1.3594 0.55859-0.96094 0.054687-1.293 0.8125-1.6875 0.44141-1.0898 0.49219-1.0977 1.0234-1.6055 0.66406-1.0742 0.92578-0.85156 1.5-1.7852 0.015625-1.0664 0.20312-1.1641 0.51953-0.94922 1.1133-0.38672 0.58984-0.98047 0.32031-1.043 2.1289-0.98047 2.2695-1.9336 0.5-1.0156 0.27734-1.1328 0.3125-1.3359 1.0625-0.67969 1-0.33594 1.5586-0.43359 1.1133-0.21094 1.9336-0.43359 1.0977-0.44531 1.3828-0.82812 1.625-1.1133 1.5898-1.5234 1.7852-1.0742 0.98047-0.47266 1-0.26953 1.1641-0.027343 1.6875-0.76172 1.7539-0.76172 1.5742-0.54688 1.7617-1.082 1.75-0.71484 1.1641 0.050781 1.4688 0.32031 2.5547 0.78906 0.98438-1.1328-0.019532-3.207 1.4648-3.5898 1.4062-1.7227 1.0273-0.39844 3.082-1.6328 1.7734 0.078125 1.2148 1.0898 1.0898-0.33203 1.168-1.5703 1.3672 0.023437 1.4727 0.83984 1.3164-0.86328 0.28125-1.293 0.66016-1.2617 0.75781-0.74219 0.86719-0.80078 0.45312-1.7344z" fill="#ccc" fill-rule="evenodd"/>
<path d="m326.54 260.78 0.48438 0.089844 1.2422 0.76172 1.0391 0.91406 0.89844 0.85938 1.5859 1.0898 0.51953 1.0312 2.0195 2.0938 1.3828 0.75 1.2461 1.1914 0.55078 1.1289 0.78906 0.94922 0.44531 0.95703 0.32422 1.7383-0.60938 1.0117-0.40625 1.75 0.95312 1.6367 0.54297 1.7109 0.35547 0.98828 0.44531 1.2227 0.39062 1.082 0.98047 1.6172 1 1.2734 1.1953 1.1758 1.1055-0.066406 1.1211 0.082031 1.8438 0.57031 1.3984 0.21484 1.2969-0.15234 1.1914-0.22656 1.5703-0.46484 1.0273-0.027344 1.9727-1.0469 0.91406-0.44141 0.98438-0.25 1.9414 0.55859 0.94141 0.37891 1.2422 0.078125 1.75-0.30469 0.8125 1.4961 0.20312 1.5938 0.26172 1.2852 0.82812 1.1992 1.3438 1.0664 1.8398 1.2227 1.3125 3.3828 0.47266 1.0469 0.91406 1.2422 1.1406 2.25 1.0391 0.41406 0.9375 0.42969 0.85938 0.98828 1.2461 1.3438 1.5703 1.0156 0.71094 1.0117 0.35547 1.4727 0.36328 1.7578 1.3359 3.0547-0.28125 2.5117 0.35156 0.94531 0.58594 1.4648 0.46484 1.6016-0.13672 1.4062 0.15234 1.1875 0.42188 1.4453 1.1602 1.5391 0.10156 2.6523 0.66406 5.0391-0.26953 1.6484-0.32422 1.2578-1.4766 1.9531-1.4609 1.0156-2.2617 0.89062-1.0742 1.4492-0.43359 1.4023-2.0586-0.11719-1.3477 0.042969-1.582 2.4336-1.6914 2.6719-2.0898 3.9141 0.085938 2.2617 0.22266 1.0352 0.9375 1.2461 1.2227 1.9023 0.9375 0.55859 1.9023 0.35547 2.3047 0.70703 0.96094 1.0508 0.77344 1.6562 4.9414 4.2773 1.9219 1.2305 2.3477 3.0469 1.5703 2.7891 3.1328 4.2539 1.793 2.3125 2.6836 2.1328 1.207 0.30078 3.0469 1.1211-0.87891 0.79688-1.3711 1.0703-1.0352 0.91797-1.0547 0.55078-1.1562 0.80078-0.46484 1.1875-0.17188 1.043-0.99219 0.72656-0.58984 1.0508-0.73047 0.92578-1.293 0.45703-1.8789 1.582-0.61328 0.96875-0.85938 0.74219-0.96875 0.87109-0.91406 0.81641-0.60156 0.8125-1.1367 0.95703-1.5391 1-1.8047 1.9023-1.0625 0.77734-1.0664 1.9844-0.44141 0.96484-0.11719 1.0977-1.1523 2.9648-0.15625 1.1562-0.29688 1.5586-0.84375 0.85156-1.0703 0.58984h-1.1172l-1.293 0.38281-0.40234 1.125-0.46484 1.0234-0.51562 0.875 0.054688 1.1406 0.32812 1.0977-0.097656 1.1719-1.1484 0.26172-0.97266-0.58203-1.0156-0.097656-1.1328 0.27734-2.0625-0.27734-1.1797 0.23438-1.0078 0.125-0.98438-0.5-1.6953-1.0898-1.2852-0.21094-1.0977-0.3125-1.2891-0.15625-2.0703-0.10547-0.83594 0.62891-1.2617 0.30469-1.8359 0.28516-1.7109 0.19922-1.3359-0.10156-1.0391-0.42578-1.4766-0.63672-0.83594-0.87891-1.0312-0.67969-0.98438-0.86719-0.51562-0.94141-0.082031-1.0234-0.79297-0.69141-1.0742 0.066406-1.5469 0.11719-1.1484-0.18359-1.2461 0.19922-1.0312-0.39453-1-0.32031-1.1367-0.57031-0.98438-0.87109-1.9844-1.0312-1.1719-1.0156-0.89062-0.64062-1.4258-1.0312-1.1953-1.6367-0.59766-1.2617-0.51953-1.0977-0.78516-0.82031-1.1875-0.76172-1.3125-0.34375-1.4062-0.73047-0.61719-2.1211-0.63672-1.0664-1.2773-0.42578-1.4336-0.77734-1.1328-0.73828-1.0977-0.054688-1.1719-0.85547-1.1523-0.375-1.4766-0.86719-0.72266-1.0273 0.027344-1.1523-0.35156-1.582-1.4766-0.86719-0.64844-0.82031-0.50781-0.91016-0.93359-1.1211-1.1055-0.49219-1.0078-0.79297-1.0547-0.78125-0.69922-0.88281-1.2188-0.13281-1.3516-0.6875-0.80469-0.98438-0.33594-1.1211-0.70312-1.0547-1.4844-0.27344-1.0703-0.69531-1-0.49219-1.1406-0.61328-1.0078-0.26953-0.59766-1.1406-1.2109-1.9414-0.59766-0.98438-1.1328-0.86719-0.80078-1.1562-0.63281-0.98828-0.88281-0.61719-1.4023-0.40625-1.3906-0.71484-1.2617-0.17969-1.0664-0.37891-1.3945-0.62891-1.1289-0.22266-0.65625-0.78516-0.85938-0.94922-1.7031-0.28906-1.2891 0.14844-0.99609-0.67969-1.2305-0.58203-1.1055-0.76172-0.92578-0.50781-1.3945-0.85156-1.0547-0.91797-1.0898-0.60547-1.1562-0.25391-1.2031-0.67969-0.65625-0.88672-0.53906-1.1641-0.64844-1.2188-0.8125-1.418-0.91797-1.1875-1.2188-1.375-0.94141-0.4375-1.5742-1.1133-0.76172-0.67188-0.22266-1.1875-1.793-1.2344-0.52344-1-1.1875-0.14062-1.0547-0.23047 0.39844-1.2031 0.10547-1.6641-0.054687-1.5234 0.03125-1.0898 0.53906-0.89062 0.91797-0.57422 0.67969-0.94922 0.27344-1.0664-0.007813-1.2383 0.62109-1.3906 0.78516-0.82812 0.77734-1.7305 0.72266-1.1133 1.4414-1.5664 1.2383-0.99609 1.3281-1.5664 0.62891-1.3906 0.5-1.8633 0.89453-0.62109 1.0391-0.41016 0.53906-1.3594 0.066407-1.0312-0.10547-1.2773-0.16406-1.4336-0.25391-1.1406-0.73828-1.4336-0.82812-0.74609-0.75391-0.96484-0.12109-1.3594 0.55859-0.96094 0.054687-1.293 0.8125-1.6875 0.44141-1.0898 0.49219-1.0977 1.0234-1.6055 0.66406-1.0742 0.92578-0.85156 1.5-1.7852 0.015625-1.0664 0.20312-1.1641 0.51953-0.94922 1.1133-0.38672 0.58984-0.98047 0.32031-1.043 2.1289-0.98047 2.2695-1.9336 0.5-1.0156 0.27734-1.1328 0.3125-1.3359 1.0625-0.67969 1-0.33594 1.5586-0.43359 1.1133-0.21094 1.9336-0.43359 1.0977-0.44531 1.3828-0.82812 1.625-1.1133 1.5898-1.5234 1.7852-1.0742 0.98047-0.47266 1-0.26953 1.1641-0.027343 1.6875-0.76172 1.7539-0.76172 1.5742-0.54688 1.7617-1.082 1.75-0.71484 1.1641 0.050781 1.4688 0.32031 2.5547 0.78906 0.98438-1.1328-0.019532-3.207 1.4648-3.5898 1.4062-1.7227 1.0273-0.39844 3.082-1.6328 1.7734 0.078125 1.2148 1.0898 1.0898-0.33203 1.168-1.5703 1.3672 0.023437 1.4727 0.83984 1.3164-0.86328 0.28125-1.293 0.66016-1.2617 0.75781-0.74219 0.86719-0.80078 0.45312-1.7344 0.47656-0.24219" fill="none" stroke="#fff" stroke-linecap="round" stroke-linejoin="round" stroke-miterlimit="10" stroke-width="2"/>
<path d="m326.54 260.78 0.48438 0.089844 1.2422 0.76172 1.0391 0.91406 0.89844 0.85938 1.5859 1.0898 0.51953 1.0312 2.0195 2.0938 1.3828 0.75 1.2461 1.1914 0.55078 1.1289 0.78906 0.94922 0.44531 0.95703 0.32422 1.7383-0.60938 1.0117-0.40625 1.75 0.95312 1.6367 0.54297 1.7109 0.35547 0.98828 0.44531 1.2227 0.39062 1.082 0.98047 1.6172 1 1.2734 1.1953 1.1758 1.1055-0.066406 1.1211 0.082031 1.8438 0.57031 1.3984 0.21484 1.2969-0.15234 1.1914-0.22656 1.5703-0.46484 1.0273-0.027344 1.9727-1.0469 0.91406-0.44141 0.98438-0.25 1.9414 0.55859 0.94141 0.37891 1.2422 0.078125 1.75-0.30469 0.8125 1.4961 0.20312 1.5938 0.26172 1.2852 0.82812 1.1992 1.3438 1.0664 1.8398 1.2227 1.3125 3.3828 0.47266 1.0469 0.91406 1.2422 1.1406 2.25 1.0391 0.41406 0.9375 0.42969 0.85938 0.98828 1.2461 1.3438 1.5703 1.0156 0.71094 1.0117 0.35547 1.4727 0.36328 1.7578 1.3359 3.0547-0.28125 2.5117 0.35156 0.94531 0.58594 1.4648 0.46484 1.6016-0.13672 1.4062 0.15234 1.1875 0.42188 1.4453 1.1602 1.5391 0.10156 2.6523 0.66406 5.0391-0.26953 1.6484-0.32422 1.2578-1.4766 1.9531-1.4609 1.0156-2.2617 0.89062-1.0742 1.4492-0.43359 1.4023-2.0586-0.11719-1.3477 0.042969-1.582 2.4336-1.6914 2.6719-2.0898 3.9141 0.085938 2.2617 0.22266 1.0352 0.9375 1.2461 1.2227 1.9023 0.9375 0.55859 1.9023 0.35547 2.3047 0.70703 0.96094 1.0508 0.77344 1.6562 4.9414 4.2773 1.9219 1.2305 2.3477 3.0469 1.5703 2.7891 3.1328 4.2539 1.793 2.3125 2.6836 2.1328 1.207 0.30078 3.0469 1.1211-0.87891 0.79688-1.3711 1.0703-1.0352 0.91797-1.0547 0.55078-1.1562 0.80078-0.46484 1.1875-0.17188 1.043-0.99219 0.72656-0.58984 1.0508-0.73047 0.92578-1.293 0.45703-1.8789 1.582-0.61328 0.96875-0.85938 0.74219-0.96875 0.87109-0.91406 0.81641-0.60156 0.8125-1.1367 0.95703-1.5391 1-1.8047 1.9023-1.0625 0.77734-1.0664 1.9844-0.44141 0.96484-0.11719 1.0977-1.1523 2.9648-0.15625 1.1562-0.29688 1.5586-0.84375 0.85156-1.0703 0.58984h-1.1172l-1.293 0.38281-0.40234 1.125-0.46484 1.0234-0.51562 0.875 0.054688 1.1406 0.32812 1.0977-0.097656 1.1719-1.1484 0.26172-0.97266-0.58203-1.0156-0.097656-1.1328 0.27734-2.0625-0.27734-1.1797 0.23438-1.0078 0.125-0.98438-0.5-1.6953-1.0898-1.2852-0.21094-1.0977-0.3125-1.2891-0.15625-2.0703-0.10547-0.83594 0.62891-1.2617 0.30469-1.8359 0.28516-1.7109 0.19922-1.3359-0.10156-1.0391-0.42578-1.4766-0.63672-0.83594-0.87891-1.0312-0.67969-0.98438-0.86719-0.51562-0.94141-0.082031-1.0234-0.79297-0.69141-1.0742 0.066406-1.5469 0.11719-1.1484-0.18359-1.2461 0.19922-1.0312-0.39453-1-0.32031-1.1367-0.57031-0.98438-0.87109-1.9844-1.0312-1.1719-1.0156-0.89062-0.64062-1.4258-1.0312-1.1953-1.6367-0.59766-1.2617-0.51953-1.0977-0.78516-0.82031-1.1875-0.76172-1.3125-0.34375-1.4062-0.73047-0.61719-2.1211-0.63672-1.0664-1.2773-0.42578-1.4336-0.77734-1.1328-0.73828-1.0977-0.054688-1.1719-0.85547-1.1523-0.375-1.4766-0.86719-0.72266-1.0273 0.027344-1.1523-0.35156-1.582-1.4766-0.86719-0.64844-0.82031-0.50781-0.91016-0.93359-1.1211-1.1055-0.49219-1.0078-0.79297-1.0547-0.78125-0.69922-0.88281-1.2188-0.13281-1.3516-0.6875-0.80469-0.98438-0.33594-1.1211-0.70312-1.0547-1.4844-0.27344-1.0703-0.69531-1-0.49219-1.1406-0.61328-1.0078-0.26953-0.59766-1.1406-1.2109-1.9414-0.59766-0.98438-1.1328-0.86719-0.80078-1.1562-0.63281-0.98828-0.88281-0.61719-1.4023-0.40625-1.3906-0.71484-1.2617-0.17969-1.0664-0.37891-1.3945-0.62891-1.1289-0.22266-0.65625-0.78516-0.85938-0.94922-1.7031-0.28906-1.2891 0.14844-0.99609-0.67969-1.2305-0.58203-1.1055-0.76172-0.92578-0.50781-1.3945-0.85156-1.0547-0.91797-1.0898-0.60547-1.1562-0.25391-1.2031-0.67969-0.65625-0.88672-0.53906-1.1641-0.64844-1.2188-0.8125-1.418-0.91797-1.1875-1.2188-1.375-0.94141-0.4375-1.5742-1.1133-0.76172-0.67188-0.22266-1.1875-1.793-1.2344-0.52344-1-1.1875-0.14062-1.0547-0.23047 0.39844-1.2031 0.10547-1.6641-0.054687-1.5234 0.03125-1.0898 0.53906-0.89062 0.91797-0.57422 0.67969-0.94922 0.27344-1.0664-0.007813-1.2383 0.62109-1.3906 0.78516-0.82812 0.77734-1.7305 0.72266-1.1133 1.4414-1.5664 1.2383-0.99609 1.3281-1.5664 0.62891-1.3906 0.5-1.8633 0.89453-0.62109 1.0391-0.41016 0.53906-1.3594 0.066407-1.0312-0.10547-1.2773-0.16406-1.4336-0.25391-1.1406-0.73828-1.4336-0.82812-0.74609-0.75391-0.96484-0.12109-1.3594 0.55859-0.96094 0.054687-1.293 0.8125-1.6875 0.44141-1.0898 0.49219-1.0977 1.0234-1.6055 0.66406-1.0742 0.92578-0.85156 1.5-1.7852 0.015625-1.0664 0.20312-1.1641 0.51953-0.94922 1.1133-0.38672 0.58984-0.98047 0.32031-1.043 2.1289-0.98047 2.2695-1.9336 0.5-1.0156 0.27734-1.1328 0.3125-1.3359 1.0625-0.67969 1-0.33594 1.5586-0.43359 1.1133-0.21094 1.9336-0.43359 1.0977-0.44531 1.3828-0.82812 1.625-1.1133 1.5898-1.5234 1.7852-1.0742 0.98047-0.47266 1-0.26953 1.1641-0.027343 1.6875-0.76172 1.7539-0.76172 1.5742-0.54688 1.7617-1.082 1.75-0.71484 1.1641 0.050781 1.4688 0.32031 2.5547 0.78906 0.98438-1.1328-0.019532-3.207 1.4648-3.5898 1.4062-1.7227 1.0273-0.39844 3.082-1.6328 1.7734 0.078125 1.2148 1.0898 1.0898-0.33203 1.168-1.5703 1.3672 0.023437 1.4727 0.83984 1.3164-0.86328 0.28125-1.293 0.66016-1.2617 0.75781-0.74219 0.86719-0.80078 0.45312-1.7344z" fill="#0a5394" fill-rule="evenodd"/>
<path d="m326.54 260.78 0.48438 0.089844 1.2422 0.76172 1.0391 0.91406 0.89844 0.85938 1.5859 1.0898 0.51953 1.0312 2.0195 2.0938 1.3828 0.75 1.2461 1.1914 0.55078 1.1289 0.78906 0.94922 0.44531 0.95703 0.32422 1.7383-0.60938 1.0117-0.40625 1.75 0.95312 1.6367 0.54297 1.7109 0.35547 0.98828 0.44531 1.2227 0.39062 1.082 0.98047 1.6172 1 1.2734 1.1953 1.1758 1.1055-0.066406 1.1211 0.082031 1.8438 0.57031 1.3984 0.21484 1.2969-0.15234 1.1914-0.22656 1.5703-0.46484 1.0273-0.027344 1.9727-1.0469 0.91406-0.44141 0.98438-0.25 1.9414 0.55859 0.94141 0.37891 1.2422 0.078125 1.75-0.30469 0.8125 1.4961 0.20312 1.5938 0.26172 1.2852 0.82812 1.1992 1.3438 1.0664 1.8398 1.2227 1.3125 3.3828 0.47266 1.0469 0.91406 1.2422 1.1406 2.25 1.0391 0.41406 0.9375 0.42969 0.85938 0.98828 1.2461 1.3438 1.5703 1.0156 0.71094 1.0117 0.35547 1.4727 0.36328 1.7578 1.3359 3.0547-0.28125 2.5117 0.35156 0.94531 0.58594 1.4648 0.46484 1.6016-0.13672 1.4062 0.15234 1.1875 0.42188 1.4453 1.1602 1.5391 0.10156 2.6523 0.66406 5.0391-0.26953 1.6484-0.32422 1.2578-1.4766 1.9531-1.4609 1.0156-2.2617 0.89062-1.0742 1.4492-0.43359 1.4023-2.0586-0.11719-1.3477 0.042969-1.582 2.4336-1.6914 2.6719-2.0898 3.9141 0.085938 2.2617 0.22266 1.0352 0.9375 1.2461 1.2227 1.9023 0.9375 0.55859 1.9023 0.35547 2.3047 0.70703 0.96094 1.0508 0.77344 1.6562 4.9414 4.2773 1.9219 1.2305 2.3477 3.0469 1.5703 2.7891 3.1328 4.2539 1.793 2.3125 2.6836 2.1328 1.207 0.30078 3.0469 1.1211-0.87891 0.79688-1.3711 1.0703-1.0352 0.91797-1.0547 0.55078-1.1562 0.80078-0.46484 1.1875-0.17188 1.043-0.99219 0.72656-0.58984 1.0508-0.73047 0.92578-1.293 0.45703-1.8789 1.582-0.61328 0.96875-0.85938 0.74219-0.96875 0.87109-0.91406 0.81641-0.60156 0.8125-1.1367 0.95703-1.5391 1-1.8047 1.9023-1.0625 0.77734-1.0664 1.9844-0.44141 0.96484-0.11719 1.0977-1.1523 2.9648-0.15625 1.1562-0.29688 1.5586-0.84375 0.85156-1.0703 0.58984h-1.1172l-1.293 0.38281-0.40234 1.125-0.46484 1.0234-0.51562 0.875 0.054688 1.1406 0.32812 1.0977-0.097656 1.1719-1.1484 0.26172-0.97266-0.58203-1.0156-0.097656-1.1328 0.27734-2.0625-0.27734-1.1797 0.23438-1.0078 0.125-0.98438-0.5-1.6953-1.0898-1.2852-0.21094-1.0977-0.3125-1.2891-0.15625-2.0703-0.10547-0.83594 0.62891-1.2617 0.30469-1.8359 0.28516-1.7109 0.19922-1.3359-0.10156-1.0391-0.42578-1.4766-0.63672-0.83594-0.87891-1.0312-0.67969-0.98438-0.86719-0.51562-0.94141-0.082031-1.0234-0.79297-0.69141-1.0742 0.066406-1.5469 0.11719-1.1484-0.18359-1.2461 0.19922-1.0312-0.39453-1-0.32031-1.1367-0.57031-0.98438-0.87109-1.9844-1.0312-1.1719-1.0156-0.89062-0.64062-1.4258-1.0312-1.1953-1.6367-0.59766-1.2617-0.51953-1.0977-0.78516-0.82031-1.1875-0.76172-1.3125-0.34375-1.4062-0.73047-0.61719-2.1211-0.63672-1.0664-1.2773-0.42578-1.4336-0.77734-1.1328-0.73828-1.0977-0.054688-1.1719-0.85547-1.1523-0.375-1.4766-0.86719-0.72266-1.0273 0.027344-1.1523-0.35156-1.582-1.4766-0.86719-0.64844-0.82031-0.50781-0.91016-0.93359-1.1211-1.1055-0.49219-1.0078-0.79297-1.0547-0.78125-0.69922-0.88281-1.2188-0.13281-1.3516-0.6875-0.80469-0.98438-0.33594-1.1211-0.70312-1.0547-1.4844-0.27344-1.0703-0.69531-1-0.49219-1.1406-0.61328-1.0078-0.26953-0.59766-1.1406-1.2109-1.9414-0.59766-0.98438-1.1328-0.86719-0.80078-1.1562-0.63281-0.98828-0.88281-0.61719-1.4023-0.40625-1.3906-0.71484-1.2617-0.17969-1.0664-0.37891-1.3945-0.62891-1.1289-0.22266-0.65625-0.78516-0.85938-0.94922-1.7031-0.28906-1.2891 0.14844-0.99609-0.67969-1.2305-0.58203-1.1055-0.76172-0.92578-0.50781-1.3945-0.85156-1.0547-0.91797-1.0898-0.60547-1.1562-0.25391-1.2031-0.67969-0.65625-0.88672-0.53906-1.1641-0.64844-1.2188-0.8125-1.418-0.91797-1.1875-1.2188-1.375-0.94141-0.4375-1.5742-1.1133-0.76172-0.67188-0.22266-1.1875-1.793-1.2344-0.52344-1-1.1875-0.14062-1.0547-0.23047 0.39844-1.2031 0.10547-1.6641-0.054687-1.5234 0.03125-1.0898 0.53906-0.89062 0.91797-0.57422 0.67969-0.94922 0.27344-1.0664-0.007813-1.2383 0.62109-1.3906 0.78516-0.82812 0.77734-1.7305 0.72266-1.1133 1.4414-1.5664 1.2383-0.99609 1.3281-1.5664 0.62891-1.3906 0.5-1.8633 0.89453-0.62109 1.0391-0.41016 0.53906-1.3594 0.066407-1.0312-0.10547-1.2773-0.16406-1.4336-0.25391-1.1406-0.73828-1.4336-0.82812-0.74609-0.75391-0.96484-0.12109-1.3594 0.55859-0.96094 0.054687-1.293 0.8125-1.6875 0.44141-1.0898 0.49219-1.0977 1.0234-1.6055 0.66406-1.0742 0.92578-0.85156 1.5-1.7852 0.015625-1.0664 0.20312-1.1641 0.51953-0.94922 1.1133-0.38672 0.58984-0.98047 0.32031-1.043 2.1289-0.98047 2.2695-1.9336 0.5-1.0156 0.27734-1.1328 0.3125-1.3359 1.0625-0.67969 1-0.33594 1.5586-0.43359 1.1133-0.21094 1.9336-0.43359 1.0977-0.44531 1.3828-0.82812 1.625-1.1133 1.5898-1.5234 1.7852-1.0742 0.98047-0.47266 1-0.26953 1.1641-0.027343 1.6875-0.76172 1.7539-0.76172 1.5742-0.54688 1.7617-1.082 1.75-0.71484 1.1641 0.050781 1.4688 0.32031 2.5547 0.78906 0.98438-1.1328-0.019532-3.207 1.4648-3.5898 1.4062-1.7227 1.0273-0.39844 3.082-1.6328 1.7734 0.078125 1.2148 1.0898 1.0898-0.33203 1.168-1.5703 1.3672 0.023437 1.4727 0.83984 1.3164-0.86328 0.28125-1.293 0.66016-1.2617 0.75781-0.74219 0.86719-0.80078 0.45312-1.7344 0.47656-0.24219" fill="none" stroke="#fff" stroke-linecap="round" stroke-linejoin="round" stroke-miterlimit="10"/>
<path d="m270.11 321.18c0 3.5898-2.9102 6.5-6.5 6.5s-6.5-2.9102-6.5-6.5c0-3.5898 2.9102-6.5 6.5-6.5s6.5 2.9102 6.5 6.5" fill="#28c028" fill-rule="evenodd" stroke="#000" stroke-linecap="round" stroke-linejoin="round" stroke-miterlimit="10"/>
<path d="m180.37 309.13 3.2344 1.0156c-0.5 1.793-1.3281 3.125-2.4844 4-1.1484 0.875-2.6016 1.3125-4.3594 1.3125-2.1875 0-3.9844-0.74219-5.3906-2.2344-1.4062-1.5-2.1094-3.5469-2.1094-6.1406 0-2.7383 0.70312-4.8633 2.1094-6.375 1.4141-1.5195 3.2812-2.2812 5.5938-2.2812 2.0078 0 3.6445 0.60156 4.9062 1.7969 0.75 0.69922 1.3125 1.7109 1.6875 3.0312l-3.2969 0.78125c-0.19922-0.85156-0.60547-1.5234-1.2188-2.0156-0.61719-0.5-1.3672-0.75-2.25-0.75-1.2188 0-2.2109 0.4375-2.9688 1.3125-0.76172 0.875-1.1406 2.2969-1.1406 4.2656 0 2.0742 0.375 3.5547 1.125 4.4375 0.75 0.88672 1.7227 1.3281 2.9219 1.3281 0.88281 0 1.6445-0.28125 2.2812-0.84375 0.63281-0.5625 1.0859-1.4414 1.3594-2.6406zm6.0938 6.0469v-16.469h3.3281v6.4844h6.5v-6.4844h3.3281v16.469h-3.3281v-7.2031h-6.5v7.2031zm16.578-16.469h3.3125v8.9219c0 1.418 0.039062 2.3359 0.125 2.75 0.14453 0.67969 0.48438 1.2188 1.0156 1.625 0.53906 0.40625 1.2734 0.60938 2.2031 0.60938 0.9375 0 1.6445-0.19141 2.125-0.57812 0.47656-0.38281 0.76562-0.85938 0.85938-1.4219 0.10156-0.5625 0.15625-1.4922 0.15625-2.7969v-9.1094h3.3281v8.6562c0 1.9688-0.09375 3.3672-0.28125 4.1875-0.17969 0.8125-0.50781 1.5-0.98438 2.0625-0.48047 0.5625-1.125 1.0117-1.9375 1.3438-0.8125 0.33203-1.8711 0.5-3.1719 0.5-1.5742 0-2.7656-0.18359-3.5781-0.54688-0.8125-0.36328-1.4531-0.83203-1.9219-1.4062-0.46875-0.58203-0.77734-1.1914-0.92188-1.8281-0.21875-0.94531-0.32812-2.3438-0.32812-4.1875zm16.641 16.469v-16.469h7c1.7578 0 3.0352 0.15234 3.8281 0.45312 0.80078 0.29297 1.4414 0.82031 1.9219 1.5781 0.47656 0.75 0.71875 1.6172 0.71875 2.5938 0 1.2305-0.36719 2.25-1.0938 3.0625-0.73047 0.80469-1.8203 1.3086-3.2656 1.5156 0.71875 0.41797 1.3125 0.88281 1.7812 1.3906 0.46875 0.5 1.0977 1.3867 1.8906 2.6562l2.0156 3.2188h-3.9688l-2.4062-3.5781c-0.85547-1.2812-1.4375-2.0859-1.75-2.4219-0.3125-0.33203-0.64844-0.5625-1-0.6875-0.35547-0.125-0.91406-0.1875-1.6719-0.1875h-0.67188v6.875zm3.3281-9.5h2.4531c1.5938 0 2.5859-0.066407 2.9844-0.20312 0.39453-0.13281 0.70312-0.36328 0.92188-0.6875 0.22656-0.33203 0.34375-0.75 0.34375-1.25 0-0.55078-0.14844-0.99219-0.4375-1.3281-0.29297-0.34375-0.71094-0.5625-1.25-0.65625-0.27344-0.03125-1.0781-0.046875-2.4219-0.046875h-2.5938zm13.172 9.5v-16.469h3.3125v16.469zm6.5156 0v-16.469h3.2344l6.75 11v-11h3.0781v16.469h-3.3281l-6.6406-10.734v10.734zm0 0" fill="none" stroke="#fff" stroke-linecap="round" stroke-linejoin="round" stroke-miterlimit="10" stroke-width="2"/>
<path d="m180.37 309.13 3.2344 1.0156c-0.5 1.793-1.3281 3.125-2.4844 4-1.1484 0.875-2.6016 1.3125-4.3594 1.3125-2.1875 0-3.9844-0.74219-5.3906-2.2344-1.4062-1.5-2.1094-3.5469-2.1094-6.1406 0-2.7383 0.70312-4.8633 2.1094-6.375 1.4141-1.5195 3.2812-2.2812 5.5938-2.2812 2.0078 0 3.6445 0.60156 4.9062 1.7969 0.75 0.69922 1.3125 1.7109 1.6875 3.0312l-3.2969 0.78125c-0.19922-0.85156-0.60547-1.5234-1.2188-2.0156-0.61719-0.5-1.3672-0.75-2.25-0.75-1.2188 0-2.2109 0.4375-2.9688 1.3125-0.76172 0.875-1.1406 2.2969-1.1406 4.2656 0 2.0742 0.375 3.5547 1.125 4.4375 0.75 0.88672 1.7227 1.3281 2.9219 1.3281 0.88281 0 1.6445-0.28125 2.2812-0.84375 0.63281-0.5625 1.0859-1.4414 1.3594-2.6406zm6.0938 6.0469v-16.469h3.3281v6.4844h6.5v-6.4844h3.3281v16.469h-3.3281v-7.2031h-6.5v7.2031zm16.578-16.469h3.3125v8.9219c0 1.418 0.039062 2.3359 0.125 2.75 0.14453 0.67969 0.48438 1.2188 1.0156 1.625 0.53906 0.40625 1.2734 0.60938 2.2031 0.60938 0.9375 0 1.6445-0.19141 2.125-0.57812 0.47656-0.38281 0.76562-0.85938 0.85938-1.4219 0.10156-0.5625 0.15625-1.4922 0.15625-2.7969v-9.1094h3.3281v8.6562c0 1.9688-0.09375 3.3672-0.28125 4.1875-0.17969 0.8125-0.50781 1.5-0.98438 2.0625-0.48047 0.5625-1.125 1.0117-1.9375 1.3438-0.8125 0.33203-1.8711 0.5-3.1719 0.5-1.5742 0-2.7656-0.18359-3.5781-0.54688-0.8125-0.36328-1.4531-0.83203-1.9219-1.4062-0.46875-0.58203-0.77734-1.1914-0.92188-1.8281-0.21875-0.94531-0.32812-2.3438-0.32812-4.1875zm16.641 16.469v-16.469h7c1.7578 0 3.0352 0.15234 3.8281 0.45312 0.80078 0.29297 1.4414 0.82031 1.9219 1.5781 0.47656 0.75 0.71875 1.6172 0.71875 2.5938 0 1.2305-0.36719 2.25-1.0938 3.0625-0.73047 0.80469-1.8203 1.3086-3.2656 1.5156 0.71875 0.41797 1.3125 0.88281 1.7812 1.3906 0.46875 0.5 1.0977 1.3867 1.8906 2.6562l2.0156 3.2188h-3.9688l-2.4062-3.5781c-0.85547-1.2812-1.4375-2.0859-1.75-2.4219-0.3125-0.33203-0.64844-0.5625-1-0.6875-0.35547-0.125-0.91406-0.1875-1.6719-0.1875h-0.67188v6.875zm3.3281-9.5h2.4531c1.5938 0 2.5859-0.066407 2.9844-0.20312 0.39453-0.13281 0.70312-0.36328 0.92188-0.6875 0.22656-0.33203 0.34375-0.75 0.34375-1.25 0-0.55078-0.14844-0.99219-0.4375-1.3281-0.29297-0.34375-0.71094-0.5625-1.25-0.65625-0.27344-0.03125-1.0781-0.046875-2.4219-0.046875h-2.5938zm13.172 9.5v-16.469h3.3125v16.469zm6.5156 0v-16.469h3.2344l6.75 11v-11h3.0781v16.469h-3.3281l-6.6406-10.734v10.734z" fill-rule="evenodd"/>
</g>
</svg>
