<?xml version="1.0" encoding="UTF-8"?>
<svg width="475pt" height="500pt" version="1.1" viewBox="0 0 475 500" xmlns="http://www.w3.org/2000/svg">
<g id="a">
<rect width="475" height="500" fill="none"/>
<path d="m231.51 431.04-0.20312-0.13672-0.76562-0.79297-1.0234-1.0898-0.72656-0.70312-0.32031-0.95703-0.13672-1.043-0.9375-0.46094-1.0039-0.53906-1.1562-0.72266-1.3398-0.93359-1.0078-0.30078-0.49219-0.88281-1.168-0.82422-1.0977-0.71094-2.1055 0.13672-1.1055-0.13281-0.67969-0.73828-1.0078 0.14453-1.0352 0.32812-0.99219-0.14844-1.0469-0.0625-0.96484-0.27344-0.96094-0.41406-0.70312-0.73438-0.89844-0.49609-1.0312-0.027344-1.0508-0.21094-0.78906-0.63281-1-0.039063-0.93359-0.375-0.33203-0.98047-1.0273-0.51562-1.043 0.058593-0.91016 0.42188-0.60938 0.82031-0.074219 1.0508-0.50781 0.94141-0.73828 0.82812-0.53516 1.0156-0.37109 1.7539-0.46875 1.2227-0.76953 0.79688-1.1406 0.44922-0.66016 1.7734-0.37109 1.1016-0.61328 0.85156-0.21875 1.0391 0.19531 0.99219-0.14062 1.1328 0.39844 1.1719 1.0625 1.3398 0.61719 0.83203 0.79688 0.75781 0.72266 0.69922 0.47656 1.2031 0.019531 1.0703-0.61328 0.79297 0.089844 1.0234 0.53516 0.97656 0.58984 0.91016 1.0625 0.91797 1.0352 0.074219 0.59375 1.2109-0.79297 0.64062-0.92578 0.39844-0.66406 0.78125-0.89062 0.75-0.64453 1.0664-0.60156 0.99609-0.46875 1.2422-0.10938 1.2344-0.49609 0.91797-0.54297 0.85547-0.78906 0.61328-1.2812 0.070313-0.9375 0.41016-0.94141 0.64453-0.78906 0.65625-1.0195 0.34766-2.1875 2.1328-0.48047 0.94141-1.0781 0.80469-1.3672 0.44922-1.1992 0.14062-1.9297 1.1445-1.0664 0.40234-1.0078-0.50781-0.625-0.84375-0.93359-1.1055-0.62891-0.85547-0.73828-0.74219-0.59375-1.1094-1.0977-1.4453-1.3398 0.066407-1.0273-0.71094-2.4141 0.070313-1.3867 0.74609-1.8242 0.39844-1.2227-0.015625-0.24219 1.0781-0.91797 0.41406-0.85156 0.53516-0.50781 1.0156-0.23438 0.98438 0.011719 1.0664-0.28516 0.96094-0.57422 0.82031-0.25391 1.0391-0.63281 0.77344-0.82031 0.57422-0.46484 0.88672-0.92969-0.41016-0.74219-0.68359-0.85938-0.51953-1.1445 0.26562-0.92578 0.43359-1.0547-0.53516-0.97266 0.25-0.99219 0.25-0.75 0.67188-0.55469 1.0469-1.1172 0.14453-1.0078 0.003906-0.10938 0.99609-0.64062 0.80078-0.011719 1.0234-0.77344 0.64844-0.66406 0.84375-0.63672 0.86719-0.69922 0.8125-0.21094 1.1484 0.47656 0.88281-0.10547 1-0.49609 1.0977 0.625 0.87891 0.60938 0.80859 0.87109 0.51562 0.95312 0.35156 0.84766 0.53906-0.03125 1.0273-0.23438 0.97656-1.0195 0.16797-1.9141 0.17578-1.0156 0.51562-1.1289 0.46875-1 0.40625-0.92578-0.49219-0.75781-0.67188-0.40234-0.94141-0.80859-0.76953-1.3203-0.43359-1.043-0.003906-1.0391 0.27734-1.0547 0.23047-0.97266 0.42188-1.0039 0.85547-0.12891 1.0195-0.40234 0.99609-0.60547 0.84375-1.0078 0.30078-1.0352-0.0625-1.0039 0.058593-0.57812 0.84766 0.42188 0.95312 0.16406 1.0273-0.36328 0.96484-0.38281 1-0.34375 1.0156-0.77734 0.70312-0.50391 1.0039-0.22656 1.0039-0.84375 0.60938-1.0039-0.12109-0.99219 0.19922-0.96875 0.36328-0.48438 0.94141-0.89844 0.48828-0.77734 0.66797-0.74219 0.82812-0.90234-0.54297-0.52734-0.99219-0.23047-1.0586-0.51172-0.86328-0.027344-1.1016 0.34766-0.97266 0.19531-1.0625 0.30078-0.97266-0.30469-1.1133 0.31641-0.98047-0.20312-1.0742 0.03125-1 0.71875-0.72656-0.24609-0.98438-0.35547-0.95703 0.4375-0.94531 0.80859-0.8125-0.097656-1.0039-0.15625-1.0078-0.46875-1.0664-0.53516-0.9375-0.46484-0.95703-0.65234-0.78125 0.70312-0.78516 1.0742-0.085937 1.1289-0.21484 0.80859-0.68359 0.37109-0.96875-0.23047-1.0195 0.011719-1.0195-0.37891-0.95312-0.14453-0.99219-0.54688-1-0.23438-0.99219 0.34375-0.94531-0.074219-1.0195 0.027344-1.0508-0.36719-0.96094 0.32812-0.95312 0.53516-0.87891 0.98828-0.27344 1.0273-0.027344 0.96875-0.29688 1.0117-0.054688 0.85547-0.80859 0.082032-1.0312-0.003907-1.0703 0.17969-0.99609 0.34766-0.95703-0.28906-1.0234-0.1875-1.0039-0.58984-0.82812-0.95703-0.32812-0.94922 0.41406-0.98047 0.23828-0.93359 0.45703-0.98438 0.21094-1.0039-0.085938-0.82031 0.67969-1.0547-0.058594-0.43359-0.94141 0.41797-0.93359 0.46875-0.92578-0.52344-0.89453-1.0625-0.15625 0.042968-1.0039-0.28516-1.0117-0.72266-0.70703-0.42578-0.94141-0.58594-0.875-0.25-1-0.92969-0.42578-0.40625-0.94141-0.91797-0.39844-0.26562-0.98047-0.003906-1.0039-0.85938-0.55859 0.0625-1.1016 0.11719-1.0586-0.015625-1.0703-0.082031-1.0273 0.86719-0.67188-0.023437-1.0508 0.097656-1.0078 0.070313-1.0117-0.33594-0.94922-0.98828-0.19531-0.66797-0.88672-0.21875-1.0742-0.82422-0.67188-0.72656-0.77344-1.043-0.46484-0.54688-0.84375-0.60938-0.81641-0.30078-0.96094-0.61719-0.84375-0.38672-0.97656-0.34375-0.97266 0.29688-1.0273 0.26562-0.98438 0.26562-1.0391-0.085938-1.1328-0.61719-0.85156 0.71094-0.72266 0.63672-0.95703 0.84375-0.54688 0.55859-0.85938 0.45703-0.96094 0.36719-1.0195 0.41797-0.91016 0.76172-0.73047 0.84766-0.62891 1.1523-0.1875 1.0625-0.42188 0.85547-0.67188 0.42969-0.92578 0.32812-0.96484 0.63672-0.78906 0.94922-0.34766 0.19922-1.0469 0.32812-0.96875-0.09375-1.0508 0.10938-1.0234 0.29688-1.0352-0.089843-1.0781-0.71094-0.72266-0.98438-0.23828-0.35938-1.0117-0.36328-1.1133 0.035156-1.0039 0.88672-0.58203 0.94922-0.31641 0.23828-1.0586-0.40234-1.0156-0.77734-0.74219-0.12109-1.1094-0.66797-0.86328-0.25-1.1172 0.98438-0.25 1.0391-0.17188 0.83984-0.5625 1.0078-0.011719 0.95703-0.29297 1 0.13281 1.0039-0.019531 0.99609-0.089844 1.0078 0.24609 0.99609 0.19141 1.0039 0.042969 1.0078-0.10156 0.90234 0.46094 0.79688 0.61719 0.96484 0.41406 0.72656 0.6875 0.625 0.78906 0.99219 0.20312 1.0234 0.11719 1-0.17969 0.89844 0.49609 1 0.12891 0.30469-0.96875 0.84766-0.60938 0.59375-0.85547 0.98828-0.25391 0.14062 1.0234 0.89062 0.50781 0.97266-0.22656 0.91016-0.45703 0.91016-0.53516 0.56641-0.92578 0.98438-0.28516 0.94922-0.34375 1.0156-0.35156 0.53516-0.87109 0.30078-1.125-0.16406-1.1289-0.085937-1.0312-0.042969-1.0625 0.19141-1.1445 0.11719-1.1094 0.035156-1.0117-0.19922-1.0195-0.22266-1.1367-0.082031-1.0352 0.25-0.98438 0.0625-1.1953-0.27344-0.96484-0.12109-1.1133 0.046875-1.0703-0.78906-0.86719-0.066406-1-0.28516-1.0352-0.38672-0.95703-0.39062-0.92578 0.37109-0.96094-0.36719-0.96094-0.33594-1.2969 0.31641-1.0039 0.64844-0.95703 1.0117-0.78906 0.76953-1.0391 0.49219-0.87891 0.29297-1.0078 0.007813-1.5273v-1.3945l-0.63672-1.0117-0.87891-0.61328-0.76172-0.75-0.12891-1.0547-0.019531-1.2461-0.19922-1.5273-0.72266-1.8242-1.0938-2.1328-0.26172-1.5156-0.79297 0.61328-1.2383 0.40234-0.87891 0.5625-0.32422 1.0625-0.039063 1.0938-0.19141 1.0078-0.88281 0.52344-0.96875 0.28516-1.0039-0.074219-0.63281 0.78125-0.83203 0.61719-0.43359 0.90234-0.92578 0.44141-1.0117-0.046875-1.0078 0.12891-0.26953-0.96484-0.89453-0.46484-0.69922-0.74609-0.96875-0.25781-0.47266 1.0078-0.53906 0.87891-1.1055 0.39844-1.4297-0.18359-1.0195-0.16797-1.1289 0.15625-1.1172-0.12109-0.78125-0.95312-0.71094-0.96094-0.98828-0.63672-1.1016-0.035157-1.4141 0.21484-1.9141 1.3633-1.418 1.3672-0.73828 0.69531-1.2773 0.77734-0.94922 0.46875-1.5977 0.03125-1.75-0.25781-1.1406-0.16797-1.0586-0.21875-0.84375-0.78516-0.58594-0.81641-0.98438-1.5391-1.4922-0.51562-1.5352-0.9375 0.16406-1.6289-0.72656-0.71875-0.71875-0.76172-0.64844-1.293-0.47656-1-0.73047-1.0586-0.80078-0.68359-1.4688-0.64453-1.2266 0.64844-0.9375 0.48047-0.99219 0.47656-0.89844 0.46484-0.97266 0.58984-0.95312 0.43359-0.83984 0.59766-0.92969 0.375-1.1016 0.078125-1.0859-0.28906-1-0.066406-0.98438-0.24219-1.0195-0.53125-1.0312 0.09375-1.0625 0.44141-1.0742-0.050782-1.0117 0.11719-1.125-0.47266-1.043-0.097657-0.28906-0.96094 0.34766-1-0.089843-1.0156-0.96094-0.32812-0.125-1.0117-0.48438-0.96875-0.60547-0.875-0.73047-0.87891-0.76172-0.85156-0.39844-1.1406-0.18359-1.0156 0.25781-0.98438-0.26953-1.0195-0.40625-0.96484 0.29297-1.0273-0.64062-0.80078-1.1172-0.24609-1.0312 0.12891-1.0508 0.26953-0.78516-0.625-0.70312-0.75-0.81641-0.59375-1.0625-0.30859-1.0195-0.40625-0.84766-0.64453-0.67188-0.83984-1.0312-0.27734-1.0117-0.42188-1.0859-0.074219-1.043 0.26562-1.1758-0.59375-1.0234-0.30859-1.0625-0.0625-0.80078-0.74219-0.72656-0.72656-0.96094 0.41406-0.93359 0.47656-1.125-0.32031-0.64844-0.82031-0.87891-0.88281-1.0234-0.27344-0.91406 0.76562-0.82422-0.62891-1.0195 0.14844-1.0508-0.14453-1.1055-0.011719-0.74609-0.76953-0.96875-0.43359-0.57812-0.82422-1.082 0.22656-0.87891 0.5-0.83984 0.56641-1.0195 0.12891-0.99609-0.39062-0.37109-0.95703-0.64062-0.78906-0.94141 0.44922-0.95312-0.47266 0.36719-0.95312 0.40625-0.94531-0.54297-0.88672-0.42578-1.0117-0.38281-0.95703-0.73438-0.74219-0.74219-0.84375-0.72656-0.80469-0.89844 0.47656-0.41406 1.0508-0.91406 0.4375-0.73438-0.80469-0.95703-0.5-0.94922-0.64453-1.0586-0.22266-0.73438-0.96484-1.1055 0.18359-0.50391-0.89062-0.015625-1.2305 0.45703-0.98828 0.35547-0.95703-0.003906-1.1328-0.066406-1.0469-0.33203-1.1211-0.1875-1.2188-0.49609-0.87109-0.83984-0.64453-0.82031-0.64844 0.0625-1.2734 1.0039-0.42969 0.51562-1.0703-0.007813-1.0938-0.79297-0.9375-1.2148-0.32812-0.82812-0.73047-0.76953-0.70703-0.55859-0.84766-1.0195-0.23438-1.0391-0.039062-0.38672-1.1289 0.45703-0.92969-0.21875-1.0234 0.26562-1.1914 0.84375-1.0625 0.69922-0.86328 0.57812-0.91797 0.6875-0.86328-0.0625-1.0938-0.12109-1.0156-0.21875-1.0273-0.28516-1.0781-0.54688-0.96094-0.64062-1.0391-0.23047-1.1523 0.19922-1.1211 0.28906-1.043-0.13672-0.99609 0.125-1.3594 0.56641-0.82812 0.62109-0.92188 0.73828-0.72656 0.96875-0.52344 0.75391-0.82812 0.63672-0.85938 1-0.31641 0.69531-0.76172 0.80078-0.91406 0.44141-1.2227 0.14062-1.0195 0.53516-0.89062-0.375-1.0352 0.53516-0.91406-0.30469-1.1641 0.82422-0.67969 0.76562-0.77734 1.1055-0.21484 1.0195-0.58203 0.57812-1.3281 0.30469-0.97266 0.39062-1.1914 0.22266-1.3242-0.11719-1.0273-0.039062-1.4648-0.17969-1.1016-0.21094-1.1328-0.35156-1.5312-0.066406-1.0703-0.21484-1.1562 0.40234-1.0938 0.13281-1.0195 0.29688-1.1172 0.17188-1.3438 0.32812-1.3984 0.23047-1.0078 0.36719-0.97656 0.21875-1.0898 0.21094-1.082 0.125-1.0469 0.23828-1.5977v-1.3398l-0.17188-1.125 0.19141-1.4062-0.22266-1.0703-0.64453-1.0469-0.42969-1.1055-0.49219-0.90625-0.125-1.0742-1.1367-1.0938-0.45703-0.92188-0.80859-0.70312-1.0625-0.61328-0.44531-1.0156-0.71484-0.80469 0.35547-0.98438 0.33984-0.96484 0.77344-0.74609 0.21484-0.99219 0.19141-1.0117-0.10938-1.0508-0.027344-1.0078 0.085938-1.0352 0.078125-1.0117-0.96094-0.46484-0.80078-0.66406-0.46875-1.2617-0.53906-0.87891-0.88281-0.63672-1.0195-0.47656-0.96094-0.58594 0.29297-0.99609-0.51172-0.89844-0.77344-0.84766-0.71094-0.83203-0.39844-1.0195-0.60547-0.89453-0.51953-1.0391-0.22656-1.1328-0.015625-1.0781-0.058593-1.0664 0.03125-1.5742 0.11328-1.1719-0.26172-1.8672-0.003906-1.0859 0.042969-2.6211 0.078125-1.4688-0.20703-1.1484-0.25391-1.5-0.12891-1.0078-0.16406-1.1719 0.15625-1.0117-0.20703-1.0195 0.14453-1.1719-0.22266-1.0312-0.74609-1.0156-0.45703-0.92188 0.003906-1.0078 3.082-1.3398 2.6445-0.875 6.3008-2.0859 8.4727-2.8125 8.5977-2.9062 3.5391-1.2031 2.3281-0.77734 1.8203-0.62109 0.99609-0.3125 7.5938-2.5898 9.25-3.1328 10.047-3.4141 2.3281-0.78906 0.98047-0.32031 0.77344-0.64453 0.89844-0.70703 0.90625-0.70703 1.1523-0.91406 0.875-0.69141 0.90234-0.70703 0.91797-0.71875 1.0078-0.78516 1.5234-1.207 1.0547-0.83203 1.0547-0.8125 2.7539-2.1953 2.2656-1.7852 0.96875-0.75781 1.3125-1.0312 0.94141-0.72266 2.5703-2.1016 1.2891-0.94141 0.96094-0.73828 1.7734-1.3945 0.98438-0.78906 1.8438-1.4102 1.0508-0.80859 0.95312-0.74609 3.0117-2.3984 5.0469-6.2344 1.3906-1.8164 4.0234-5.0469 1.7852-2.25 3.0859-3.8633 5.1953-6.6445 1.8945-2.4453 2.2656-2.6875 1.7969-2.2227 0.99219 0.26562 0.96875-3.0547 0.65234-1.0664 0.39844-1.4453 0.29688-1.0312 1.1797-4.2578 0.45312-1.5977 0.39453-1.4336 0.31641-1.1719 0.46875-1.625 0.30078-1.0625 0.70312-2.4883 0.625-2.3203 0.55859-1.9727 1.2812-4.5508 0.40234-1.4609 0.39062-1.3789 0.98828-4.043 1.0664 0.054687 0.92188 0.66797 0.79688 0.84375 0.78906 0.82812 0.98828 0.58594 1.082 0.23438 0.62891-0.80469 1.0703-0.19531 1.4414 0.1875 1.0156-0.039063 1.1641 0.16406-0.32031-0.97266-1.0625-0.59375-0.67578-0.75781 0.32031-1.043 0.39062-0.98828-0.078125-1.2344-0.41406-1.1055-0.93359-0.70703-0.15234-1.0195 0.47266-1.0703-0.51562-0.88672-0.99609-0.53516 0.65234-0.81641-0.55469-0.96484-0.49219-0.90234-0.089843-1.1719 0.76562-0.78125 0.089843-1.0156-0.74609-0.85156 0.59766-0.92578 0.67969-0.74219 1.0039 0.31641 0.24219-1.0234-0.21484-0.99609-0.47656-0.97266 0.44531-0.93359 0.12109-1.0195-0.66797-0.79688-0.054687-1.0664-1.0352-0.035157-0.53906-0.85547-0.48828-0.88281-0.91406 0.44531-0.67188-0.74219-0.46484-0.89844-0.49609-0.86719-1.0078-0.046875-0.81641-0.63281-0.94141-0.375-0.83594-0.54688-0.21094-1-0.71094-0.84375-0.83203-0.58984-0.62109-0.79688-0.41406-0.91016-0.48438-0.875-0.57031-0.85156-0.60938-0.79297-0.16016-0.99609-0.40625-0.92578-0.35547-0.94531-0.10156-1.0508-0.35547-0.94922-0.67188-0.76172-0.76953-0.70703-0.61328-0.80078-0.63281-0.78125-1.0391-0.085938-0.97266 0.32812-1.0078 0.16016-1 0.14062-0.41406-1.832-0.007812-2.5938 0.92188 0.40625 1.0039 0.046875 0.84375 0.5625 0.90234-0.43359 0.94922-0.32812h1.0547l0.73047 0.69141 1.0039 0.17578 0.875 0.50391 0.88672 0.46875 0.94141 0.34375 0.89453 0.49609 1.0078 0.15625 1.0312 0.082031 0.92969-0.46484 0.66016-0.78125 0.21875 0.97656 0.96094-0.42969 1.0156 0.070313 0.99219-0.39453 0.95312-0.52344 0.9375-0.68359 0.63672-0.91406 0.89453-0.59766 0.72266-0.83984 0.55469-0.98438 0.082032-1.1758 1.5039-0.59766 1.2188 0.13281 0.85938 0.53516 0.78906 0.79688 0.94531 0.40625 1.0742 0.25391 1.0156 0.14453 0.94922 0.47656 0.78516 0.87891 0.87891 0.53125 0.80859 1.0781 0.70312 0.79297 1.0547 0.32422 1.207 0.03125 0.44922 1.1914 0.48047 1.0312 1.1289 0.625 0.55469 0.94531 0.77344-0.74609 0.86328 0.51172 0.37891 1.1016 0.96875 0.42578 1.1328-0.097656 0.91406-0.51953 0.52734-1.0664 0.9375-0.71484 1.0117-0.13281 1.0195 0.25391 0.90234 0.94531 0.55469 0.875 0.49219 0.88281 0.31641 1.2773 0.59766 0.875 0.28125 1.168-0.19531 1.6953 0.83203 0.74219 1.1172-0.54297 0.96094-0.45703-0.046875 1.1211 0.41406 0.99219 0.99609 0.33203 0.80859-0.66797 0.98047-0.24219 1.0234-0.32812-0.33594 1.082 0.76953 0.76562 1.1797 0.24609 0.35156 1.0352 0.90234 0.65625 0.83594 0.85156 0.52734 0.98047 0.44922 1.0156 1.0586-0.14844 0.46094 0.94141 1.0703-0.17578 1.0273 0.60156 1.1523 0.40625 1 0.050781 0.20703 1.2227-0.097657 1.125 0.23438 1.1172 0.9375-0.42969 0.98828 0.24609-0.10938 1.2422 0.22656 1.1094 1.0273 0.85938 0.46484 1.0977-0.68359 0.95703 0.49219 1.168 1.0156 0.38281 0.44141 0.91797-0.41797 1.0352-1.3516 0.42578-0.28516 1.1016 0.88281 0.8125 0.82031 0.74219 1.1133-0.22656 0.79297 0.62109-0.47656 1.0898 0.91406 0.42578 0.55469-0.875 0.73047 0.6875-0.60547 1.1797 0.66406 1.0273 1.1992-0.51172-0.070313 1.0664-0.53906 0.92188 0.21875 1-1.1641 0.058593-1.1016-0.36328-0.80859 0.74609 0.38281 0.99219 1.2188-0.11328 0.95312 0.73438 0.19141 0.99609 0.45703 1.0312-0.30859 1.0117-0.03125 1.1289 1.4258 0.80469 1.2383 0.84375 1.3945 0.16406 1.2344-0.33594 1.0273 0.33984 0.87891 0.47656 0.90234 0.60156 0.89062 0.55078 1.0977 0.54297 1.0859 0.17578 1.168 0.054688 0.69922-0.73047 0.16016-1.0312 0.51172-0.88281 0.91016 0.46094-0.26172 1.0703-0.19141 1.3984 0.32031 1.2344 0.875 1.2422 1.1602-0.03125 0.83984-0.87109 0.9375 0.57812-0.73438 1.1172 0.32422 0.97266 1.0898-0.14844 1.1641-0.48828 1.0469 0.71484 0.38672 1.0234-0.054688 1.0742 1.043 1.2188 0.51953 0.89453 0.039063 1.0234 0.96094 0.61328 1.2148 0.074219 0.87891 0.62891 1.1289-0.17578 0.625 0.83984 1.0625-0.28906 0.65625-0.81641 0.027344-1.3047 0.48438-0.92188 0.15625 1.4023 0.3125 1.043 1.082 0.51562 1.1797-0.11719 0.82812-0.61719 1.1367 0.66797 0.69141 0.85156 1.2148 0.003906 0.72266 1.2422 0.16797 1.0781 0.6875 1.1562 1.0742-0.046875 0.39453 1.0312-0.074219 1.0234 0.78516 0.6875 0.65625 1.2422 0.19922 1.0039-1.1406 0.24609 0.68359 0.82031 1.1602 0.0625 0.45703 0.91406 0.0625 1.0273 0.69531 0.78125 1.3633 0.20312 0.42578 0.92188-0.35938 0.99219 0.77344 0.88281-0.32031 0.98438-0.40625 1.0977 1.0117 0.34766 0.67188 0.80859-1.0859 0.96484-1.1797 0.90234-0.49609 1.0703-0.39062 1.4336-0.89844 0.94922-0.097657 1.0273 0.86328 1.168 0.82031 0.61328 1.3359 0.25391 1.082 0.14453 0.98438 0.96484 0.64453 0.93359 0.082031 1.0508 1.168 0.003906 0.86719-0.60547 1.1289 0.082031 0.80859 0.60547 0.91016 0.57422 1.0156 0.28516 0.41406 1.1133 1.1133-0.22656-0.25781-1.0234 0.23047-1.1172 1.207-0.16797 1.125 0.19922 1.0586 0.13672-0.6875 0.83594 1.1758 0.26172 0.45312-0.92188-0.15625-1.0117 0.32031-1.0469 1.2773 0.73828 0.50391 1.3047 0.39453 1.0664 1.0234-0.14062 1.1562-0.066407 0.37109 1.1016-0.33594 1.0234-0.14062 1.0977 0.84766 0.77734 1.1133-0.015625 0.60547 0.875-0.49219 1.1172 0.011719 1 0.20312 1.1016-0.19141 1.0352-0.36719 1.0117 0.027344 1.0273 0.070313 1.0156 1.082 0.6875 0.40625 0.98438-0.58984 0.87109-0.11719 1.0117 1.0547 0.54297 1.0195-0.070312-0.074218 1.1016-0.85547 0.625-1.0703 0.60156-0.66016 0.77734-0.3125 1.2656-0.26172 1-0.91406 0.64453-1.0352-0.10547-0.58594 0.875 0.12891 1.3477 0.58984 1.4141 0.73047 0.89453 1.0703 0.67578 0.65234 0.85156-0.35938 0.95703 0.054688 1.0039 1.0078 0.007813 0.94922-0.70703 1.082 0.10547 0.039063 1.1445 0.066406 1.1641 1.0391 0.16797 0.25391-1.3945 0.37891-1.043 1 0.80859 0.28906 0.98828 0.78906 0.66016 0.88672-0.8125 1.1094-0.29688 0.40234 1.6914 0.14453 1.0547 0.44922 1 0.87891 0.48828 0.59766 0.85547-0.80078 0.95703 1.0586 0.21875 0.84375-0.53516 1.7383-0.042969 1.0234-0.042969 1.5586-1.043 1.0156-0.28516 1.4375-1.375 1.0039-0.20703 0.65234 0.89844 0.14062 0.99219 1.0391 0.20312 0.33203-1.2656 0.67969-0.86719 0.95703 0.45312 0.79688 1.1406-0.17188 1.4336 1.0117 0.53125 0.55469-1.2305 0.38672-1.1133 0.99609-0.85547-0.054687-1.3359 0.99219-0.69922 1.3203 0.33594 0.84375 0.72266 0.67578 0.93359 1.1953 0.54688 1.1016 0.25 0.66016 0.77344 1.0859 0.19922 1.0195-0.14453 1.1914 0.078125 1.0078 0.69141 0.97266 0.26562 0.89062-0.74219 0.96875 0.40625 0.77734 0.72266 0.4375 1.0352-0.046875 1.1602 1.0391 0.27344 0.97656-0.41797 1.1055-0.21875 1.0391-0.085937 1.0039-0.46875 0.85547-0.71094 1.0273 0.019531-0.33203-0.98047 1.0547-0.40625 0.83203 0.75 1.1641 0.19141 1.0039-0.73828 1.0039-0.24609 0.62109 0.79688-0.17578 1.0703 0.98047 0.4375 0.69531-0.89844-0.41406-1.2891-0.16016-1.1758 0.78125-0.70312 0.90625-0.46484 0.82422-0.88281 1.0547-0.39062 0.72656-0.73438 0.88281-0.97266 0.99609-0.20703 1.0586 1.1172 0.67969 0.79297 1.0977-0.042969 1.0117-0.21094 0.97266-0.47656 0.95312 0.34766 0.29688 0.99609 0.91016-0.45703-0.5625-1.5117-0.55078-0.98047 0.27734-1 1.0273-0.09375 1.0039 0.25781 0.96094-0.35938 0.64453-1.0312 0.36719-1.1406 0.18359-1.043 0.25781-1.0039 0.64453-0.89844 0.41016-1.0625 0.6875-0.73828 0.79688 0.78516 0.99219-0.22266 0.38281-0.96094 0.92188-0.48438 0.46484-0.89062 0.89062-0.56641 1.082-0.35547 0.62109 1.125-0.17188 1.0312-0.48828 1.1055 0.050781 1.1758 0.92969 0.61719 1.3594-0.64844 0.94922-0.61328 0.96875-0.33203 1.3711 0.35547 0.92969 0.90234 0.87891 0.58984 1.0156 0.36719 1.0859 0.054687 0.98438 0.28125 1.1328 0.19141 0.57422 1.1641-0.12891 1.4141 0.26172 1.0664 0.17578 1.3359 0.68359 0.99609 1.1211-0.27344-0.007813-1.1875-0.44922-0.95703-0.41406-0.96484 0.25781-1.0469 1.2109-0.32422 0.91797 0.43359 0.80078 1.0039 0.50391 1.1641 0.80078 0.84766 1.082 0.80469 0.14062 1.1406-0.43359 0.94531 0.14453 1.2461 1.0703 0.12109 0.69531-0.81641 1.0742-0.5 1.0078 0.0625 1.043-0.42188 0.41797-1.2617 0.94922-0.72656 1.1953-0.36719 0.070313 1.0781 1.0742-0.51172 1.0039-0.37891 0.88281 0.66016 0.53125 0.94141 0.87891 0.72656 1.1016 0.10547 0.29297-1.1016 0.14062-1.1406 1-0.32422 0.90234 0.48438 0.23047-0.98438-0.59766-1 0.10156-1.0078 1.1406-0.58984 1.1914-0.24219 1.2578-0.11328 1.0586-0.23438 1.0156 0.17188 1.0039 0.59766 0.65625 0.87109 1.1367 0.16016 0.023438-1.0703-0.55859-0.875-0.71875-1.1523-0.25781-1.1992 0.5625-0.93359 1.0234-0.066406 1.0703 0.27344 0.76953 1.3477 0.74609 0.74219 1.0195 0.20703 0.86719-0.66016 0.61719-0.89844 1.0859-0.36328 1.1602 0.36719 0.68359 0.97656 0.5625 2.1094 0.86719 0.78125 1.25-0.019531 1.2344-0.125 0.96875 0.48047 0.41406 1.1289 0.85938 0.60938 1.0703 0.054687 1.1641 0.35156 1.0938 0.24609 0.98047 0.48828 0.30078 1.0938-0.64453 0.82812-0.14844 1.0586 1.2578 0.39844 0.96484-0.45312 0.68359 0.77344-0.42969 1.1367-0.34375 1.0156 0.51172 1.1562 1.0508 0.57812 1.418 0.042969 1.0586-0.38672 0.96484-0.48828 0.007813-1.1562-1.4531-0.6875-0.97266-0.5625 0.90625-0.47656 1.2617 0.13672 0.99219 0.69531 0.78516 1.3672 0.99219 0.91406 0.99609-0.11719 0.90625-0.73438 1.0469 0.64062 0.53125 1.1641 0.21484 1.293 1 0.80078 1.2148-0.082031 0.78125-0.74609 1.0117-0.875 1.0742-0.33203 1.1484 0.38281 1.0391 0.46875 1.0859-0.089844 0.16797 1.1953-0.82031 0.63281-1.2344 0.15234-1.0547 0.375-0.39062 0.93359 0.74609 0.73047 1.3164 0.37891 1.1797-0.33984 0.83984-0.57031 0.8125-0.91797 1.043-0.10938 0.98047 0.67969 0.49219 1 0.16797 1.0547 0.14844 1.1055 0.11328 1.0156 0.33203 1.0742 0.87109 0.60156 0.89453-0.84375 0.78516-0.63672 0.85547 0.74219 0.15625 1.2148-0.44531 1.0469 0.94141 0.60938 1.0938 0.39062 0.85938-0.76172 0.40234-1.4648 0.55859-0.88281 0.95703 0.37891 0.51562 0.89062 0.23828 1.0508-0.1875 1.043-0.085937 1.2812 0.28516 1.1992 0.10547 1-0.4375 1.0117-1.9648 2.9375-1.9805 3.125-20.855 32.918-9.3242 14.719-0.60547 0.92969-2.0586 3.1602 1.0977 0.082031 0.98828 0.56641 0.91406 1.1602 0.85938 0.53906 1.0547 0.09375 2.1719-0.3125 1.2461 0.58594 0.76172 0.83984 1.0273 0.80469 1.4102 0.53516 1.2109-0.089844 1.4648-0.56641 1.3008-0.74609 0.91406-0.96875 0.82422-0.72656 0.97656 0.48438 1.0156-0.66406 1.0117-0.99609 2.0117 0.29297 1.0938 0.41016 1.1328 0.79297 0.64062 0.8125 0.39844 1.1641 0.55078 1.0898 1.332 0.96484 1.2578 0.47656 1.168 0.42578 0.64453 0.94531 0.29688 1.5039 0.5 1.4219 1.0156 1.5234 1.3164 1.3828 0.5625 0.85938 0.83594 0.73438 1.5 0.63281 0.75781 0.65234 0.64844 1.5547 1.0195 1.5234 0.8125 0.73047 1.2422 1.1875 0.84375 0.86328 1.2773 1.0781 0.63281 1.0352 0.054687 1.1992-0.089844 1.0234 0.066407 1.0664-0.36328 1.207-0.51953 0.88281-0.52734 1.1367-1.0078 0.88281-1.1562 0.054687-0.72656 0.9375-0.82422 0.57031-0.71094-0.73828 0.64062-0.89453-0.32031-1.0039-1.0898-0.34375-0.82031-0.66016 0.98828-0.34375 1.1133-0.25391-0.94922-0.37109-0.875-0.54688-1.0195 0.19141-0.44922-1.0352-0.55078-0.85547-0.21484 1.0898-0.97656 0.52344-0.86719-0.65625-0.90625 0.82812-0.55078 0.89062 0.83984 0.86719-0.49609 0.88281-0.77344 0.91406-0.90234 0.68359-0.38672-0.99609-0.18359-1.0352-0.46484-1.0977-0.95703 0.60938-1.2188-0.29688-0.92188-0.50781 0.73047-0.71094 0.25391-1.0273-1.0352 0.30078-1.1484 0.58203-0.007812-1.0234-1.0586-0.53125 0.24219-1.1445 1.0547-0.30469 0.12891-1.0273-0.42969-1.1094-0.007813-1.0508-0.13281-1.0312-1.0508-0.33203-0.65625-0.76953-0.46484 0.96484-0.36719 1.0312-1.1992-0.63672-0.46094-0.93359-0.78906-0.91016-1.0195 0.125-1.0977-0.085937-1.1055-0.25391-0.19922 1.0195-0.92578 0.53125-0.51953 0.96484-0.77344-0.70703-0.89453 0.92578-0.30469 0.98828-1.0117-0.12109 0.49219-1.207-0.042969-1.0117-0.94531-1.0312-1.0625 0.26562-0.25 0.98047-0.80078 0.67578 0.35156 1.0312-0.37109 1.0195-0.34766-0.99609-0.37891-0.9375-0.83203 0.71484-1.4297 0.36328-1.0469-0.30859-0.23828-1.0938 0.49609-1.0156 0.43359-1.0898-1.1758-0.20703-0.74609 0.76562 0.042969 1.1992-0.61719-0.94141-0.30859 1.0039-0.23828 1.2695-0.31641 0.97266-0.84766-0.75-1.2109-0.023438-0.98438-0.27344-0.76562-0.92188-0.91406-0.48828-0.85156 0.53906-0.70312 0.91797-1.0195-0.007813-0.8125 0.76953-0.61719 0.92188-0.99609 0.30859 1.0703 0.046875 0.0625 1.0312-0.42969 0.91016-1.0664-0.35156-0.63281 0.83203 0.82422 0.58594-0.78906 0.74609-0.90625 0.42969 0.066406 1.2383-0.96094 0.53125-0.74219 0.75391-0.32031 1.0117-1.0078 0.019532-0.4375 0.91406-0.98047 0.41016-1.0312-0.078125-0.23438-1.0781-0.88672-0.67188 0.17188 1.0859-0.14062 1.0078-1.0625 0.22266-0.96484 0.375-0.95312 0.36719-0.054687-1.1016-0.89062 0.46875-1.0312 0.41406-0.027344-1.1016-1.0898-0.10938-0.70312 0.73438 0.003906 1.0508-1.0273-0.58984-0.75-0.68359-0.50391 0.94531-1.0742-0.30078-1 0.09375-0.078125 1.0547-1.0352-0.37891 0.20703-1.0195-0.77344-0.72266-0.28906 1.0977-0.69922-0.72266-0.90625 0.42188-1.043-0.40625-0.87891 0.53125 1.0117 0.035157-0.33984 0.98828 0.33203 1-0.88281 0.69922-0.98438-0.24219-0.50781-0.98047-0.96094 0.30859 0.82422 0.8125 0.035157 1.1602-0.48828-0.90234-1.0312-0.19141-0.73047-0.76172-0.94922 0.42969-0.90234-0.49609-1.082 0.33984-0.59375 0.86328-0.62891 0.94141-0.83984 0.71484-0.12891-1.0703 0.78516-0.78516-0.70703-0.83594-0.089844 1.0234-1.0234-0.011719-0.9375-0.48047-0.61328 0.89844-1.0234-0.44531-0.51172 0.87109 0.69531 0.81641-1.0547 0.007813-0.88281-0.55469-0.50781 0.875-1.0664-0.22266-0.40625 0.9375-0.49609 0.90234-0.96484 0.72656-0.94922 0.4375-1.082-0.19141-0.67969-0.73438 0.85547-0.86719 0.41406-1.0469-0.82812 0.61328-0.98828 0.61328-0.20703-1.0742-0.53516 0.95703-0.92578 0.42969-0.85547-0.51562-1.0156 0.71875-0.88281-0.51562-0.97656-0.27734-0.26953-1.0703-0.46875 0.91797-0.95312 0.59375-0.41406-0.94922-0.83594 0.55859-1.0273-0.36328-0.78906 0.62109-0.65625 0.8125-0.98047-0.36328-0.75 0.82031-0.96094-0.41016-1.0547-0.089844 0.57422 0.875-1.2305 0.03125-0.78516 0.64062 0.074218 1.0195-0.63672 0.80078-0.99609 0.32422 0.31641 0.97266-0.64062 0.78906-1.0117-0.027344-1.0195-0.0625 0.46875 0.94141-1.0039 0.20703-0.33203 0.95312-0.69141-0.76562-0.98438-0.34375-0.25391 1.0352-0.92969 0.41016-0.82031 0.58203-0.77344 0.66016-0.46875 0.96094-0.59375 0.88281-1.0078 0.44531-0.1875 1.0312-0.80469-0.71484-0.93359 0.46875-0.83594 0.57031-1.0352 0.38281-0.36328 0.98828-0.88281-0.57812-0.94531 0.36719-0.41797 0.92188-0.82031 0.58594-0.48828-0.92969-0.54297 0.89453-0.44531 0.94531-0.42188-1.0117-1.0781-0.17969-0.64844 0.80469-0.78125-0.72656-0.16797 1.0742-0.89844 0.45703-1.0508 0.078125-0.10938 1.0117-1.1797 0.003906 0.17188 1.0078-0.22266 1.0078-0.74219 0.74609-0.51953 0.875-0.84375-0.71094-0.074219 1.0391-0.66797 0.78125-0.91016-0.44141-1-0.31641 0.078125 1-0.69922 0.82422-0.09375 1.0859-0.84766-0.58984-0.33594 0.96094-0.75-0.69531-0.80078 0.61719-0.74609 0.85938-0.92188-0.45312-0.51953 0.875-0.74219 0.72266-0.57812 0.82031-0.55469-0.83203-0.85156 0.60156 0.39453 0.94922-0.28516 1.0391-0.61719 0.93359-0.82031 0.67578-0.94922-0.33984-0.88672 0.52734-0.87891-0.48828-0.84375 0.5625-0.85938-0.68359-1.0195 0.19922-0.64844 0.8125-0.085937 1.1992-0.91797-0.61328-0.36328 0.94922-1.043-0.046875-0.25 0.97266-1.0039 0.12109-0.85938-0.53906-0.066407 1.0039 0.16016 1.043-1.0234 0.070312-0.94922 0.41406-1-0.13672-0.68359 0.73047-0.40234 1 0.77344 0.72656-0.24609 0.99609 0.41797 0.91016 0.078125 1.0078-0.082031 1.0625 0.46094 0.90234-0.38672 0.94531-0.41406 0.93359-0.60938 0.8125-0.85156 0.57031 0.28516 1.0469-0.8125 0.80078-0.55078 0.84766-0.14453 0.99219-0.34766 1-0.28516 0.96875-0.625 0.80469-0.46875 1.0352-0.39844 0.94922-0.011719 1.0078 0.023437 1.125 0.25391 1.1094 0.84766 0.54688-0.85547 0.67969-0.28906 0.99609 0.10156 1.0078-0.62109 0.79688-0.19922 0.98828 0.375 1.0664 0.27344 0.97266-0.9375 0.40625-0.76562 0.66406 0.35547 0.96484-0.42578 0.97656-0.67578 0.74219-0.69141 0.72656-0.66016 0.76562-0.88672 0.47656-0.37891 0.95312-0.19922 0.99219-0.80859 0.64453-0.91797 0.47656-0.80078 0.83594-0.9375 0.58203-0.16016 1-0.70312 0.76953-0.98438 0.25-0.82422 0.77734-0.46875 0.91016 0.015625 1.0039-0.35156 0.96875-0.71484 0.74219 0.015625 1.0469 0.11328 1.0234-0.50391 0.86328-0.57031 0.87891-0.91797 0.46875-0.66406 0.76953-0.5625 0.84766 0.23438 0.98828-0.27734 1.0039 0.13672 1.0117-0.51562 0.85938-0.18359 1.0117 0.21484 0.98047 0.51172 0.85938 0.84375 0.79297 0.32031 0.95312-0.03125 1.0156 0.52344 0.91797 0.58594 0.82812 0.58594 0.81641 0.83203 0.57031 0.6875 0.78516 0.13281 1.0312 0.074219 1.0078 0.41797 0.92188 0.36719 0.9375 0.60547 0.86719-0.18359 0.98438 0.49219 0.875 0.98828 0.35547 0.27734 1.0664-0.8125 0.62891 0.42578 0.91016-0.29297 1.0508-0.82422 0.63281-0.56641 0.85156 0.46094 0.91797-0.88672 0.48828-0.72266 0.71094-1.0312-0.097656-0.42578 0.91016-0.46484 0.88672-0.41797 0.92969-0.91016-0.45312-0.72656 0.73438-0.42969 0.92188-0.75781-0.66797-0.94531 0.375-0.99609-0.10938-0.84766 0.54297-1.0039-0.035156-1.0078-0.066406-1.0039 0.007812-0.64453 0.77734-0.82422 0.61328-0.10938 1.0039-0.96484 0.35938-1.0117 0.066406-0.83594 0.5625-0.98438 0.37891-0.92188 0.39062-1.0195 0.13281-0.97266 0.35547-0.99609 0.097657-0.89844 0.47266-0.73438 0.68359-0.67578 0.76562-0.67578 0.74219-0.98828 0.23047-1.0117 0.25391-0.83203 0.58984-0.77344 0.67188-0.83984 0.54688-0.44531 0.96094-0.57031 0.91016-0.59766 0.82422-0.80859 0.73047-0.58594 0.84375-0.92969 0.37109-0.12891 0.99609-0.34375 0.99609-0.61719 0.85547-0.74219 0.69531-0.39844 0.94141-0.60156 0.83984 0.39062 0.93359 0.49609 0.89453-0.82422 0.58203 0.074219 1.0352 0.054688 1-0.26172 0.99609 0.25 1.0195-0.39844 0.97266-0.66016 0.78516-0.67188 0.74609-0.17188 1.0195-0.26562 1.0156 0.32031 0.98438 1.0508 0.55078 0.35938 0.95703 0.47656 0.89062 0.48828 0.90625 0.33203 1.0469 0.98828 0.16016 0.33594 0.94531 0.45703 0.91797-0.26172 1.0156 0.64453 0.77344 0.46094 0.89844-0.17578 1.1328-0.85547 0.52344-0.65234 0.77344-1.043 0.27734-0.84766-0.61719-1.0508 0.066407-0.91016 0.50781-0.99219-0.35547-0.98438 0.36328-0.97656 0.36328-0.75 0.76953-0.23438 1.1797-1.1211-0.32031-0.98438 0.21484-0.6875-0.82031-0.97266-0.27734-0.98828-0.23438-0.16797 1.0664 0.42188 0.90625 0.51953 0.89453 0.42969 1.0273 0.34375 1.0273 0.38281 0.98828-0.75 0.80859 0.35938 1-0.69531 0.78516-0.5625 0.95703-1.0547 0.15625-1.0469 0.16406z" fill="#0a5394" fill-rule="evenodd"/>
<path d="m231.51 431.04-0.20312-0.13672-0.76562-0.79297-1.0234-1.0898-0.72656-0.70312-0.32031-0.95703-0.13672-1.043-0.9375-0.46094-1.0039-0.53906-1.1562-0.72266-1.3398-0.93359-1.0078-0.30078-0.49219-0.88281-1.168-0.82422-1.0977-0.71094-2.1055 0.13672-1.1055-0.13281-0.67969-0.73828-1.0078 0.14453-1.0352 0.32812-0.99219-0.14844-1.0469-0.0625-0.96484-0.27344-0.96094-0.41406-0.70312-0.73438-0.89844-0.49609-1.0312-0.027344-1.0508-0.21094-0.78906-0.63281-1-0.039063-0.93359-0.375-0.33203-0.98047-1.0273-0.51562-1.043 0.058593-0.91016 0.42188-0.60938 0.82031-0.074219 1.0508-0.50781 0.94141-0.73828 0.82812-0.53516 1.0156-0.37109 1.7539-0.46875 1.2227-0.76953 0.79688-1.1406 0.44922-0.66016 1.7734-0.37109 1.1016-0.61328 0.85156-0.21875 1.0391 0.19531 0.99219-0.14062 1.1328 0.39844 1.1719 1.0625 1.3398 0.61719 0.83203 0.79688 0.75781 0.72266 0.69922 0.47656 1.2031 0.019531 1.0703-0.61328 0.79297 0.089844 1.0234 0.53516 0.97656 0.58984 0.91016 1.0625 0.91797 1.0352 0.074219 0.59375 1.2109-0.79297 0.64062-0.92578 0.39844-0.66406 0.78125-0.89062 0.75-0.64453 1.0664-0.60156 0.99609-0.46875 1.2422-0.10938 1.2344-0.49609 0.91797-0.54297 0.85547-0.78906 0.61328-1.2812 0.070313-0.9375 0.41016-0.94141 0.64453-0.78906 0.65625-1.0195 0.34766-2.1875 2.1328-0.48047 0.94141-1.0781 0.80469-1.3672 0.44922-1.1992 0.14062-1.9297 1.1445-1.0664 0.40234-1.0078-0.50781-0.625-0.84375-0.93359-1.1055-0.62891-0.85547-0.73828-0.74219-0.59375-1.1094-1.0977-1.4453-1.3398 0.066407-1.0273-0.71094-2.4141 0.070313-1.3867 0.74609-1.8242 0.39844-1.2227-0.015625-0.24219 1.0781-0.91797 0.41406-0.85156 0.53516-0.50781 1.0156-0.23438 0.98438 0.011719 1.0664-0.28516 0.96094-0.57422 0.82031-0.25391 1.0391-0.63281 0.77344-0.82031 0.57422-0.46484 0.88672-0.92969-0.41016-0.74219-0.68359-0.85938-0.51953-1.1445 0.26562-0.92578 0.43359-1.0547-0.53516-0.97266 0.25-0.99219 0.25-0.75 0.67188-0.55469 1.0469-1.1172 0.14453-1.0078 0.003906-0.10938 0.99609-0.64062 0.80078-0.011719 1.0234-0.77344 0.64844-0.66406 0.84375-0.63672 0.86719-0.69922 0.8125-0.21094 1.1484 0.47656 0.88281-0.10547 1-0.49609 1.0977 0.625 0.87891 0.60938 0.80859 0.87109 0.51562 0.95312 0.35156 0.84766 0.53906-0.03125 1.0273-0.23438 0.97656-1.0195 0.16797-1.9141 0.17578-1.0156 0.51562-1.1289 0.46875-1 0.40625-0.92578-0.49219-0.75781-0.67188-0.40234-0.94141-0.80859-0.76953-1.3203-0.43359-1.043-0.003906-1.0391 0.27734-1.0547 0.23047-0.97266 0.42188-1.0039 0.85547-0.12891 1.0195-0.40234 0.99609-0.60547 0.84375-1.0078 0.30078-1.0352-0.0625-1.0039 0.058593-0.57812 0.84766 0.42188 0.95312 0.16406 1.0273-0.36328 0.96484-0.38281 1-0.34375 1.0156-0.77734 0.70312-0.50391 1.0039-0.22656 1.0039-0.84375 0.60938-1.0039-0.12109-0.99219 0.19922-0.96875 0.36328-0.48438 0.94141-0.89844 0.48828-0.77734 0.66797-0.74219 0.82812-0.90234-0.54297-0.52734-0.99219-0.23047-1.0586-0.51172-0.86328-0.027344-1.1016 0.34766-0.97266 0.19531-1.0625 0.30078-0.97266-0.30469-1.1133 0.31641-0.98047-0.20312-1.0742 0.03125-1 0.71875-0.72656-0.24609-0.98438-0.35547-0.95703 0.4375-0.94531 0.80859-0.8125-0.097656-1.0039-0.15625-1.0078-0.46875-1.0664-0.53516-0.9375-0.46484-0.95703-0.65234-0.78125 0.70312-0.78516 1.0742-0.085937 1.1289-0.21484 0.80859-0.68359 0.37109-0.96875-0.23047-1.0195 0.011719-1.0195-0.37891-0.95312-0.14453-0.99219-0.54688-1-0.23438-0.99219 0.34375-0.94531-0.074219-1.0195 0.027344-1.0508-0.36719-0.96094 0.32812-0.95312 0.53516-0.87891 0.98828-0.27344 1.0273-0.027344 0.96875-0.29688 1.0117-0.054688 0.85547-0.80859 0.082032-1.0312-0.003907-1.0703 0.17969-0.99609 0.34766-0.95703-0.28906-1.0234-0.1875-1.0039-0.58984-0.82812-0.95703-0.32812-0.94922 0.41406-0.98047 0.23828-0.93359 0.45703-0.98438 0.21094-1.0039-0.085938-0.82031 0.67969-1.0547-0.058594-0.43359-0.94141 0.41797-0.93359 0.46875-0.92578-0.52344-0.89453-1.0625-0.15625 0.042968-1.0039-0.28516-1.0117-0.72266-0.70703-0.42578-0.94141-0.58594-0.875-0.25-1-0.92969-0.42578-0.40625-0.94141-0.91797-0.39844-0.26562-0.98047-0.003906-1.0039-0.85938-0.55859 0.0625-1.1016 0.11719-1.0586-0.015625-1.0703-0.082031-1.0273 0.86719-0.67188-0.023437-1.0508 0.097656-1.0078 0.070313-1.0117-0.33594-0.94922-0.98828-0.19531-0.66797-0.88672-0.21875-1.0742-0.82422-0.67188-0.72656-0.77344-1.043-0.46484-0.54688-0.84375-0.60938-0.81641-0.30078-0.96094-0.61719-0.84375-0.38672-0.97656-0.34375-0.97266 0.29688-1.0273 0.26562-0.98438 0.26562-1.0391-0.085938-1.1328-0.61719-0.85156 0.71094-0.72266 0.63672-0.95703 0.84375-0.54688 0.55859-0.85938 0.45703-0.96094 0.36719-1.0195 0.41797-0.91016 0.76172-0.73047 0.84766-0.62891 1.1523-0.1875 1.0625-0.42188 0.85547-0.67188 0.42969-0.92578 0.32812-0.96484 0.63672-0.78906 0.94922-0.34766 0.19922-1.0469 0.32812-0.96875-0.09375-1.0508 0.10938-1.0234 0.29688-1.0352-0.089843-1.0781-0.71094-0.72266-0.98438-0.23828-0.35938-1.0117-0.36328-1.1133 0.035156-1.0039 0.88672-0.58203 0.94922-0.31641 0.23828-1.0586-0.40234-1.0156-0.77734-0.74219-0.12109-1.1094-0.66797-0.86328-0.25-1.1172 0.98438-0.25 1.0391-0.17188 0.83984-0.5625 1.0078-0.011719 0.95703-0.29297 1 0.13281 1.0039-0.019531 0.99609-0.089844 1.0078 0.24609 0.99609 0.19141 1.0039 0.042969 1.0078-0.10156 0.90234 0.46094 0.79688 0.61719 0.96484 0.41406 0.72656 0.6875 0.625 0.78906 0.99219 0.20312 1.0234 0.11719 1-0.17969 0.89844 0.49609 1 0.12891 0.30469-0.96875 0.84766-0.60938 0.59375-0.85547 0.98828-0.25391 0.14062 1.0234 0.89062 0.50781 0.97266-0.22656 0.91016-0.45703 0.91016-0.53516 0.56641-0.92578 0.98438-0.28516 0.94922-0.34375 1.0156-0.35156 0.53516-0.87109 0.30078-1.125-0.16406-1.1289-0.085937-1.0312-0.042969-1.0625 0.19141-1.1445 0.11719-1.1094 0.035156-1.0117-0.19922-1.0195-0.22266-1.1367-0.082031-1.0352 0.25-0.98438 0.0625-1.1953-0.27344-0.96484-0.12109-1.1133 0.046875-1.0703-0.78906-0.86719-0.066406-1-0.28516-1.0352-0.38672-0.95703-0.39062-0.92578 0.37109-0.96094-0.36719-0.96094-0.33594-1.2969 0.31641-1.0039 0.64844-0.95703 1.0117-0.78906 0.76953-1.0391 0.49219-0.87891 0.29297-1.0078 0.007813-1.5273v-1.3945l-0.63672-1.0117-0.87891-0.61328-0.76172-0.75-0.12891-1.0547-0.019531-1.2461-0.19922-1.5273-0.72266-1.8242-1.0938-2.1328-0.26172-1.5156-0.79297 0.61328-1.2383 0.40234-0.87891 0.5625-0.32422 1.0625-0.039063 1.0938-0.19141 1.0078-0.88281 0.52344-0.96875 0.28516-1.0039-0.074219-0.63281 0.78125-0.83203 0.61719-0.43359 0.90234-0.92578 0.44141-1.0117-0.046875-1.0078 0.12891-0.26953-0.96484-0.89453-0.46484-0.69922-0.74609-0.96875-0.25781-0.47266 1.0078-0.53906 0.87891-1.1055 0.39844-1.4297-0.18359-1.0195-0.16797-1.1289 0.15625-1.1172-0.12109-0.78125-0.95312-0.71094-0.96094-0.98828-0.63672-1.1016-0.035157-1.4141 0.21484-1.9141 1.3633-1.418 1.3672-0.73828 0.69531-1.2773 0.77734-0.94922 0.46875-1.5977 0.03125-1.75-0.25781-1.1406-0.16797-1.0586-0.21875-0.84375-0.78516-0.58594-0.81641-0.98438-1.5391-1.4922-0.51562-1.5352-0.9375 0.16406-1.6289-0.72656-0.71875-0.71875-0.76172-0.64844-1.293-0.47656-1-0.73047-1.0586-0.80078-0.68359-1.4688-0.64453-1.2266 0.64844-0.9375 0.48047-0.99219 0.47656-0.89844 0.46484-0.97266 0.58984-0.95312 0.43359-0.83984 0.59766-0.92969 0.375-1.1016 0.078125-1.0859-0.28906-1-0.066406-0.98438-0.24219-1.0195-0.53125-1.0312 0.09375-1.0625 0.44141-1.0742-0.050782-1.0117 0.11719-1.125-0.47266-1.043-0.097657-0.28906-0.96094 0.34766-1-0.089843-1.0156-0.96094-0.32812-0.125-1.0117-0.48438-0.96875-0.60547-0.875-0.73047-0.87891-0.76172-0.85156-0.39844-1.1406-0.18359-1.0156 0.25781-0.98438-0.26953-1.0195-0.40625-0.96484 0.29297-1.0273-0.64062-0.80078-1.1172-0.24609-1.0312 0.12891-1.0508 0.26953-0.78516-0.625-0.70312-0.75-0.81641-0.59375-1.0625-0.30859-1.0195-0.40625-0.84766-0.64453-0.67188-0.83984-1.0312-0.27734-1.0117-0.42188-1.0859-0.074219-1.043 0.26562-1.1758-0.59375-1.0234-0.30859-1.0625-0.0625-0.80078-0.74219-0.72656-0.72656-0.96094 0.41406-0.93359 0.47656-1.125-0.32031-0.64844-0.82031-0.87891-0.88281-1.0234-0.27344-0.91406 0.76562-0.82422-0.62891-1.0195 0.14844-1.0508-0.14453-1.1055-0.011719-0.74609-0.76953-0.96875-0.43359-0.57812-0.82422-1.082 0.22656-0.87891 0.5-0.83984 0.56641-1.0195 0.12891-0.99609-0.39062-0.37109-0.95703-0.64062-0.78906-0.94141 0.44922-0.95312-0.47266 0.36719-0.95312 0.40625-0.94531-0.54297-0.88672-0.42578-1.0117-0.38281-0.95703-0.73438-0.74219-0.74219-0.84375-0.72656-0.80469-0.89844 0.47656-0.41406 1.0508-0.91406 0.4375-0.73438-0.80469-0.95703-0.5-0.94922-0.64453-1.0586-0.22266-0.73438-0.96484-1.1055 0.18359-0.50391-0.89062-0.015625-1.2305 0.45703-0.98828 0.35547-0.95703-0.003906-1.1328-0.066406-1.0469-0.33203-1.1211-0.1875-1.2188-0.49609-0.87109-0.83984-0.64453-0.82031-0.64844 0.0625-1.2734 1.0039-0.42969 0.51562-1.0703-0.007813-1.0938-0.79297-0.9375-1.2148-0.32812-0.82812-0.73047-0.76953-0.70703-0.55859-0.84766-1.0195-0.23438-1.0391-0.039062-0.38672-1.1289 0.45703-0.92969-0.21875-1.0234 0.26562-1.1914 0.84375-1.0625 0.69922-0.86328 0.57812-0.91797 0.6875-0.86328-0.0625-1.0938-0.12109-1.0156-0.21875-1.0273-0.28516-1.0781-0.54688-0.96094-0.64062-1.0391-0.23047-1.1523 0.19922-1.1211 0.28906-1.043-0.13672-0.99609 0.125-1.3594 0.56641-0.82812 0.62109-0.92188 0.73828-0.72656 0.96875-0.52344 0.75391-0.82812 0.63672-0.85938 1-0.31641 0.69531-0.76172 0.80078-0.91406 0.44141-1.2227 0.14062-1.0195 0.53516-0.89062-0.375-1.0352 0.53516-0.91406-0.30469-1.1641 0.82422-0.67969 0.76562-0.77734 1.1055-0.21484 1.0195-0.58203 0.57812-1.3281 0.30469-0.97266 0.39062-1.1914 0.22266-1.3242-0.11719-1.0273-0.039062-1.4648-0.17969-1.1016-0.21094-1.1328-0.35156-1.5312-0.066406-1.0703-0.21484-1.1562 0.40234-1.0938 0.13281-1.0195 0.29688-1.1172 0.17188-1.3438 0.32812-1.3984 0.23047-1.0078 0.36719-0.97656 0.21875-1.0898 0.21094-1.082 0.125-1.0469 0.23828-1.5977v-1.3398l-0.17188-1.125 0.19141-1.4062-0.22266-1.0703-0.64453-1.0469-0.42969-1.1055-0.49219-0.90625-0.125-1.0742-1.1367-1.0938-0.45703-0.92188-0.80859-0.70312-1.0625-0.61328-0.44531-1.0156-0.71484-0.80469 0.35547-0.98438 0.33984-0.96484 0.77344-0.74609 0.21484-0.99219 0.19141-1.0117-0.10938-1.0508-0.027344-1.0078 0.085938-1.0352 0.078125-1.0117-0.96094-0.46484-0.80078-0.66406-0.46875-1.2617-0.53906-0.87891-0.88281-0.63672-1.0195-0.47656-0.96094-0.58594 0.29297-0.99609-0.51172-0.89844-0.77344-0.84766-0.71094-0.83203-0.39844-1.0195-0.60547-0.89453-0.51953-1.0391-0.22656-1.1328-0.015625-1.0781-0.058593-1.0664 0.03125-1.5742 0.11328-1.1719-0.26172-1.8672-0.003906-1.0859 0.042969-2.6211 0.078125-1.4688-0.20703-1.1484-0.25391-1.5-0.12891-1.0078-0.16406-1.1719 0.15625-1.0117-0.20703-1.0195 0.14453-1.1719-0.22266-1.0312-0.74609-1.0156-0.45703-0.92188 0.003906-1.0078 3.082-1.3398 2.6445-0.875 6.3008-2.0859 8.4727-2.8125 8.5977-2.9062 3.5391-1.2031 2.3281-0.77734 1.8203-0.62109 0.99609-0.3125 7.5938-2.5898 9.25-3.1328 10.047-3.4141 2.3281-0.78906 0.98047-0.32031 0.77344-0.64453 0.89844-0.70703 0.90625-0.70703 1.1523-0.91406 0.875-0.69141 0.90234-0.70703 0.91797-0.71875 1.0078-0.78516 1.5234-1.207 1.0547-0.83203 1.0547-0.8125 2.7539-2.1953 2.2656-1.7852 0.96875-0.75781 1.3125-1.0312 0.94141-0.72266 2.5703-2.1016 1.2891-0.94141 0.96094-0.73828 1.7734-1.3945 0.98438-0.78906 1.8438-1.4102 1.0508-0.80859 0.95312-0.74609 3.0117-2.3984 5.0469-6.2344 1.3906-1.8164 4.0234-5.0469 1.7852-2.25 3.0859-3.8633 5.1953-6.6445 1.8945-2.4453 2.2656-2.6875 1.7969-2.2227 0.99219 0.26562 0.96875-3.0547 0.65234-1.0664 0.39844-1.4453 0.29688-1.0312 1.1797-4.2578 0.45312-1.5977 0.39453-1.4336 0.31641-1.1719 0.46875-1.625 0.30078-1.0625 0.70312-2.4883 0.625-2.3203 0.55859-1.9727 1.2812-4.5508 0.40234-1.4609 0.39062-1.3789 0.98828-4.043 1.0664 0.054687 0.92188 0.66797 0.79688 0.84375 0.78906 0.82812 0.98828 0.58594 1.082 0.23438 0.62891-0.80469 1.0703-0.19531 1.4414 0.1875 1.0156-0.039063 1.1641 0.16406-0.32031-0.97266-1.0625-0.59375-0.67578-0.75781 0.32031-1.043 0.39062-0.98828-0.078125-1.2344-0.41406-1.1055-0.93359-0.70703-0.15234-1.0195 0.47266-1.0703-0.51562-0.88672-0.99609-0.53516 0.65234-0.81641-0.55469-0.96484-0.49219-0.90234-0.089843-1.1719 0.76562-0.78125 0.089843-1.0156-0.74609-0.85156 0.59766-0.92578 0.67969-0.74219 1.0039 0.31641 0.24219-1.0234-0.21484-0.99609-0.47656-0.97266 0.44531-0.93359 0.12109-1.0195-0.66797-0.79688-0.054687-1.0664-1.0352-0.035157-0.53906-0.85547-0.48828-0.88281-0.91406 0.44531-0.67188-0.74219-0.46484-0.89844-0.49609-0.86719-1.0078-0.046875-0.81641-0.63281-0.94141-0.375-0.83594-0.54688-0.21094-1-0.71094-0.84375-0.83203-0.58984-0.62109-0.79688-0.41406-0.91016-0.48438-0.875-0.57031-0.85156-0.60938-0.79297-0.16016-0.99609-0.40625-0.92578-0.35547-0.94531-0.10156-1.0508-0.35547-0.94922-0.67188-0.76172-0.76953-0.70703-0.61328-0.80078-0.63281-0.78125-1.0391-0.085938-0.97266 0.32812-1.0078 0.16016-1 0.14062-0.41406-1.832-0.007812-2.5938 0.92188 0.40625 1.0039 0.046875 0.84375 0.5625 0.90234-0.43359 0.94922-0.32812h1.0547l0.73047 0.69141 1.0039 0.17578 0.875 0.50391 0.88672 0.46875 0.94141 0.34375 0.89453 0.49609 1.0078 0.15625 1.0312 0.082031 0.92969-0.46484 0.66016-0.78125 0.21875 0.97656 0.96094-0.42969 1.0156 0.070313 0.99219-0.39453 0.95312-0.52344 0.9375-0.68359 0.63672-0.91406 0.89453-0.59766 0.72266-0.83984 0.55469-0.98438 0.082032-1.1758 1.5039-0.59766 1.2188 0.13281 0.85938 0.53516 0.78906 0.79688 0.94531 0.40625 1.0742 0.25391 1.0156 0.14453 0.94922 0.47656 0.78516 0.87891 0.87891 0.53125 0.80859 1.0781 0.70312 0.79297 1.0547 0.32422 1.207 0.03125 0.44922 1.1914 0.48047 1.0312 1.1289 0.625 0.55469 0.94531 0.77344-0.74609 0.86328 0.51172 0.37891 1.1016 0.96875 0.42578 1.1328-0.097656 0.91406-0.51953 0.52734-1.0664 0.9375-0.71484 1.0117-0.13281 1.0195 0.25391 0.90234 0.94531 0.55469 0.875 0.49219 0.88281 0.31641 1.2773 0.59766 0.875 0.28125 1.168-0.19531 1.6953 0.83203 0.74219 1.1172-0.54297 0.96094-0.45703-0.046875 1.1211 0.41406 0.99219 0.99609 0.33203 0.80859-0.66797 0.98047-0.24219 1.0234-0.32812-0.33594 1.082 0.76953 0.76562 1.1797 0.24609 0.35156 1.0352 0.90234 0.65625 0.83594 0.85156 0.52734 0.98047 0.44922 1.0156 1.0586-0.14844 0.46094 0.94141 1.0703-0.17578 1.0273 0.60156 1.1523 0.40625 1 0.050781 0.20703 1.2227-0.097657 1.125 0.23438 1.1172 0.9375-0.42969 0.98828 0.24609-0.10938 1.2422 0.22656 1.1094 1.0273 0.85938 0.46484 1.0977-0.68359 0.95703 0.49219 1.168 1.0156 0.38281 0.44141 0.91797-0.41797 1.0352-1.3516 0.42578-0.28516 1.1016 0.88281 0.8125 0.82031 0.74219 1.1133-0.22656 0.79297 0.62109-0.47656 1.0898 0.91406 0.42578 0.55469-0.875 0.73047 0.6875-0.60547 1.1797 0.66406 1.0273 1.1992-0.51172-0.070313 1.0664-0.53906 0.92188 0.21875 1-1.1641 0.058593-1.1016-0.36328-0.80859 0.74609 0.38281 0.99219 1.2188-0.11328 0.95312 0.73438 0.19141 0.99609 0.45703 1.0312-0.30859 1.0117-0.03125 1.1289 1.4258 0.80469 1.2383 0.84375 1.3945 0.16406 1.2344-0.33594 1.0273 0.33984 0.87891 0.47656 0.90234 0.60156 0.89062 0.55078 1.0977 0.54297 1.0859 0.17578 1.168 0.054688 0.69922-0.73047 0.16016-1.0312 0.51172-0.88281 0.91016 0.46094-0.26172 1.0703-0.19141 1.3984 0.32031 1.2344 0.875 1.2422 1.1602-0.03125 0.83984-0.87109 0.9375 0.57812-0.73438 1.1172 0.32422 0.97266 1.0898-0.14844 1.1641-0.48828 1.0469 0.71484 0.38672 1.0234-0.054688 1.0742 1.043 1.2188 0.51953 0.89453 0.039063 1.0234 0.96094 0.61328 1.2148 0.074219 0.87891 0.62891 1.1289-0.17578 0.625 0.83984 1.0625-0.28906 0.65625-0.81641 0.027344-1.3047 0.48438-0.92188 0.15625 1.4023 0.3125 1.043 1.082 0.51562 1.1797-0.11719 0.82812-0.61719 1.1367 0.66797 0.69141 0.85156 1.2148 0.003906 0.72266 1.2422 0.16797 1.0781 0.6875 1.1562 1.0742-0.046875 0.39453 1.0312-0.074219 1.0234 0.78516 0.6875 0.65625 1.2422 0.19922 1.0039-1.1406 0.24609 0.68359 0.82031 1.1602 0.0625 0.45703 0.91406 0.0625 1.0273 0.69531 0.78125 1.3633 0.20312 0.42578 0.92188-0.35938 0.99219 0.77344 0.88281-0.32031 0.98438-0.40625 1.0977 1.0117 0.34766 0.67188 0.80859-1.0859 0.96484-1.1797 0.90234-0.49609 1.0703-0.39062 1.4336-0.89844 0.94922-0.097657 1.0273 0.86328 1.168 0.82031 0.61328 1.3359 0.25391 1.082 0.14453 0.98438 0.96484 0.64453 0.93359 0.082031 1.0508 1.168 0.003906 0.86719-0.60547 1.1289 0.082031 0.80859 0.60547 0.91016 0.57422 1.0156 0.28516 0.41406 1.1133 1.1133-0.22656-0.25781-1.0234 0.23047-1.1172 1.207-0.16797 1.125 0.19922 1.0586 0.13672-0.6875 0.83594 1.1758 0.26172 0.45312-0.92188-0.15625-1.0117 0.32031-1.0469 1.2773 0.73828 0.50391 1.3047 0.39453 1.0664 1.0234-0.14062 1.1562-0.066407 0.37109 1.1016-0.33594 1.0234-0.14062 1.0977 0.84766 0.77734 1.1133-0.015625 0.60547 0.875-0.49219 1.1172 0.011719 1 0.20312 1.1016-0.19141 1.0352-0.36719 1.0117 0.027344 1.0273 0.070313 1.0156 1.082 0.6875 0.40625 0.98438-0.58984 0.87109-0.11719 1.0117 1.0547 0.54297 1.0195-0.070312-0.074218 1.1016-0.85547 0.625-1.0703 0.60156-0.66016 0.77734-0.3125 1.2656-0.26172 1-0.91406 0.64453-1.0352-0.10547-0.58594 0.875 0.12891 1.3477 0.58984 1.4141 0.73047 0.89453 1.0703 0.67578 0.65234 0.85156-0.35938 0.95703 0.054688 1.0039 1.0078 0.007813 0.94922-0.70703 1.082 0.10547 0.039063 1.1445 0.066406 1.1641 1.0391 0.16797 0.25391-1.3945 0.37891-1.043 1 0.80859 0.28906 0.98828 0.78906 0.66016 0.88672-0.8125 1.1094-0.29688 0.40234 1.6914 0.14453 1.0547 0.44922 1 0.87891 0.48828 0.59766 0.85547-0.80078 0.95703 1.0586 0.21875 0.84375-0.53516 1.7383-0.042969 1.0234-0.042969 1.5586-1.043 1.0156-0.28516 1.4375-1.375 1.0039-0.20703 0.65234 0.89844 0.14062 0.99219 1.0391 0.20312 0.33203-1.2656 0.67969-0.86719 0.95703 0.45312 0.79688 1.1406-0.17188 1.4336 1.0117 0.53125 0.55469-1.2305 0.38672-1.1133 0.99609-0.85547-0.054687-1.3359 0.99219-0.69922 1.3203 0.33594 0.84375 0.72266 0.67578 0.93359 1.1953 0.54688 1.1016 0.25 0.66016 0.77344 1.0859 0.19922 1.0195-0.14453 1.1914 0.078125 1.0078 0.69141 0.97266 0.26562 0.89062-0.74219 0.96875 0.40625 0.77734 0.72266 0.4375 1.0352-0.046875 1.1602 1.0391 0.27344 0.97656-0.41797 1.1055-0.21875 1.0391-0.085937 1.0039-0.46875 0.85547-0.71094 1.0273 0.019531-0.33203-0.98047 1.0547-0.40625 0.83203 0.75 1.1641 0.19141 1.0039-0.73828 1.0039-0.24609 0.62109 0.79688-0.17578 1.0703 0.98047 0.4375 0.69531-0.89844-0.41406-1.2891-0.16016-1.1758 0.78125-0.70312 0.90625-0.46484 0.82422-0.88281 1.0547-0.39062 0.72656-0.73438 0.88281-0.97266 0.99609-0.20703 1.0586 1.1172 0.67969 0.79297 1.0977-0.042969 1.0117-0.21094 0.97266-0.47656 0.95312 0.34766 0.29688 0.99609 0.91016-0.45703-0.5625-1.5117-0.55078-0.98047 0.27734-1 1.0273-0.09375 1.0039 0.25781 0.96094-0.35938 0.64453-1.0312 0.36719-1.1406 0.18359-1.043 0.25781-1.0039 0.64453-0.89844 0.41016-1.0625 0.6875-0.73828 0.79688 0.78516 0.99219-0.22266 0.38281-0.96094 0.92188-0.48438 0.46484-0.89062 0.89062-0.56641 1.082-0.35547 0.62109 1.125-0.17188 1.0312-0.48828 1.1055 0.050781 1.1758 0.92969 0.61719 1.3594-0.64844 0.94922-0.61328 0.96875-0.33203 1.3711 0.35547 0.92969 0.90234 0.87891 0.58984 1.0156 0.36719 1.0859 0.054687 0.98438 0.28125 1.1328 0.19141 0.57422 1.1641-0.12891 1.4141 0.26172 1.0664 0.17578 1.3359 0.68359 0.99609 1.1211-0.27344-0.007813-1.1875-0.44922-0.95703-0.41406-0.96484 0.25781-1.0469 1.2109-0.32422 0.91797 0.43359 0.80078 1.0039 0.50391 1.1641 0.80078 0.84766 1.082 0.80469 0.14062 1.1406-0.43359 0.94531 0.14453 1.2461 1.0703 0.12109 0.69531-0.81641 1.0742-0.5 1.0078 0.0625 1.043-0.42188 0.41797-1.2617 0.94922-0.72656 1.1953-0.36719 0.070313 1.0781 1.0742-0.51172 1.0039-0.37891 0.88281 0.66016 0.53125 0.94141 0.87891 0.72656 1.1016 0.10547 0.29297-1.1016 0.14062-1.1406 1-0.32422 0.90234 0.48438 0.23047-0.98438-0.59766-1 0.10156-1.0078 1.1406-0.58984 1.1914-0.24219 1.2578-0.11328 1.0586-0.23438 1.0156 0.17188 1.0039 0.59766 0.65625 0.87109 1.1367 0.16016 0.023438-1.0703-0.55859-0.875-0.71875-1.1523-0.25781-1.1992 0.5625-0.93359 1.0234-0.066406 1.0703 0.27344 0.76953 1.3477 0.74609 0.74219 1.0195 0.20703 0.86719-0.66016 0.61719-0.89844 1.0859-0.36328 1.1602 0.36719 0.68359 0.97656 0.5625 2.1094 0.86719 0.78125 1.25-0.019531 1.2344-0.125 0.96875 0.48047 0.41406 1.1289 0.85938 0.60938 1.0703 0.054687 1.1641 0.35156 1.0938 0.24609 0.98047 0.48828 0.30078 1.0938-0.64453 0.82812-0.14844 1.0586 1.2578 0.39844 0.96484-0.45312 0.68359 0.77344-0.42969 1.1367-0.34375 1.0156 0.51172 1.1562 1.0508 0.57812 1.418 0.042969 1.0586-0.38672 0.96484-0.48828 0.007813-1.1562-1.4531-0.6875-0.97266-0.5625 0.90625-0.47656 1.2617 0.13672 0.99219 0.69531 0.78516 1.3672 0.99219 0.91406 0.99609-0.11719 0.90625-0.73438 1.0469 0.64062 0.53125 1.1641 0.21484 1.293 1 0.80078 1.2148-0.082031 0.78125-0.74609 1.0117-0.875 1.0742-0.33203 1.1484 0.38281 1.0391 0.46875 1.0859-0.089844 0.16797 1.1953-0.82031 0.63281-1.2344 0.15234-1.0547 0.375-0.39062 0.93359 0.74609 0.73047 1.3164 0.37891 1.1797-0.33984 0.83984-0.57031 0.8125-0.91797 1.043-0.10938 0.98047 0.67969 0.49219 1 0.16797 1.0547 0.14844 1.1055 0.11328 1.0156 0.33203 1.0742 0.87109 0.60156 0.89453-0.84375 0.78516-0.63672 0.85547 0.74219 0.15625 1.2148-0.44531 1.0469 0.94141 0.60938 1.0938 0.39062 0.85938-0.76172 0.40234-1.4648 0.55859-0.88281 0.95703 0.37891 0.51562 0.89062 0.23828 1.0508-0.1875 1.043-0.085937 1.2812 0.28516 1.1992 0.10547 1-0.4375 1.0117-1.9648 2.9375-1.9805 3.125-20.855 32.918-9.3242 14.719-0.60547 0.92969-2.0586 3.1602 1.0977 0.082031 0.98828 0.56641 0.91406 1.1602 0.85938 0.53906 1.0547 0.09375 2.1719-0.3125 1.2461 0.58594 0.76172 0.83984 1.0273 0.80469 1.4102 0.53516 1.2109-0.089844 1.4648-0.56641 1.3008-0.74609 0.91406-0.96875 0.82422-0.72656 0.97656 0.48438 1.0156-0.66406 1.0117-0.99609 2.0117 0.29297 1.0938 0.41016 1.1328 0.79297 0.64062 0.8125 0.39844 1.1641 0.55078 1.0898 1.332 0.96484 1.2578 0.47656 1.168 0.42578 0.64453 0.94531 0.29688 1.5039 0.5 1.4219 1.0156 1.5234 1.3164 1.3828 0.5625 0.85938 0.83594 0.73438 1.5 0.63281 0.75781 0.65234 0.64844 1.5547 1.0195 1.5234 0.8125 0.73047 1.2422 1.1875 0.84375 0.86328 1.2773 1.0781 0.63281 1.0352 0.054687 1.1992-0.089844 1.0234 0.066407 1.0664-0.36328 1.207-0.51953 0.88281-0.52734 1.1367-1.0078 0.88281-1.1562 0.054687-0.72656 0.9375-0.82422 0.57031-0.71094-0.73828 0.64062-0.89453-0.32031-1.0039-1.0898-0.34375-0.82031-0.66016 0.98828-0.34375 1.1133-0.25391-0.94922-0.37109-0.875-0.54688-1.0195 0.19141-0.44922-1.0352-0.55078-0.85547-0.21484 1.0898-0.97656 0.52344-0.86719-0.65625-0.90625 0.82812-0.55078 0.89062 0.83984 0.86719-0.49609 0.88281-0.77344 0.91406-0.90234 0.68359-0.38672-0.99609-0.18359-1.0352-0.46484-1.0977-0.95703 0.60938-1.2188-0.29688-0.92188-0.50781 0.73047-0.71094 0.25391-1.0273-1.0352 0.30078-1.1484 0.58203-0.007812-1.0234-1.0586-0.53125 0.24219-1.1445 1.0547-0.30469 0.12891-1.0273-0.42969-1.1094-0.007813-1.0508-0.13281-1.0312-1.0508-0.33203-0.65625-0.76953-0.46484 0.96484-0.36719 1.0312-1.1992-0.63672-0.46094-0.93359-0.78906-0.91016-1.0195 0.125-1.0977-0.085937-1.1055-0.25391-0.19922 1.0195-0.92578 0.53125-0.51953 0.96484-0.77344-0.70703-0.89453 0.92578-0.30469 0.98828-1.0117-0.12109 0.49219-1.207-0.042969-1.0117-0.94531-1.0312-1.0625 0.26562-0.25 0.98047-0.80078 0.67578 0.35156 1.0312-0.37109 1.0195-0.34766-0.99609-0.37891-0.9375-0.83203 0.71484-1.4297 0.36328-1.0469-0.30859-0.23828-1.0938 0.49609-1.0156 0.43359-1.0898-1.1758-0.20703-0.74609 0.76562 0.042969 1.1992-0.61719-0.94141-0.30859 1.0039-0.23828 1.2695-0.31641 0.97266-0.84766-0.75-1.2109-0.023438-0.98438-0.27344-0.76562-0.92188-0.91406-0.48828-0.85156 0.53906-0.70312 0.91797-1.0195-0.007813-0.8125 0.76953-0.61719 0.92188-0.99609 0.30859 1.0703 0.046875 0.0625 1.0312-0.42969 0.91016-1.0664-0.35156-0.63281 0.83203 0.82422 0.58594-0.78906 0.74609-0.90625 0.42969 0.066406 1.2383-0.96094 0.53125-0.74219 0.75391-0.32031 1.0117-1.0078 0.019532-0.4375 0.91406-0.98047 0.41016-1.0312-0.078125-0.23438-1.0781-0.88672-0.67188 0.17188 1.0859-0.14062 1.0078-1.0625 0.22266-0.96484 0.375-0.95312 0.36719-0.054687-1.1016-0.89062 0.46875-1.0312 0.41406-0.027344-1.1016-1.0898-0.10938-0.70312 0.73438 0.003906 1.0508-1.0273-0.58984-0.75-0.68359-0.50391 0.94531-1.0742-0.30078-1 0.09375-0.078125 1.0547-1.0352-0.37891 0.20703-1.0195-0.77344-0.72266-0.28906 1.0977-0.69922-0.72266-0.90625 0.42188-1.043-0.40625-0.87891 0.53125 1.0117 0.035157-0.33984 0.98828 0.33203 1-0.88281 0.69922-0.98438-0.24219-0.50781-0.98047-0.96094 0.30859 0.82422 0.8125 0.035157 1.1602-0.48828-0.90234-1.0312-0.19141-0.73047-0.76172-0.94922 0.42969-0.90234-0.49609-1.082 0.33984-0.59375 0.86328-0.62891 0.94141-0.83984 0.71484-0.12891-1.0703 0.78516-0.78516-0.70703-0.83594-0.089844 1.0234-1.0234-0.011719-0.9375-0.48047-0.61328 0.89844-1.0234-0.44531-0.51172 0.87109 0.69531 0.81641-1.0547 0.007813-0.88281-0.55469-0.50781 0.875-1.0664-0.22266-0.40625 0.9375-0.49609 0.90234-0.96484 0.72656-0.94922 0.4375-1.082-0.19141-0.67969-0.73438 0.85547-0.86719 0.41406-1.0469-0.82812 0.61328-0.98828 0.61328-0.20703-1.0742-0.53516 0.95703-0.92578 0.42969-0.85547-0.51562-1.0156 0.71875-0.88281-0.51562-0.97656-0.27734-0.26953-1.0703-0.46875 0.91797-0.95312 0.59375-0.41406-0.94922-0.83594 0.55859-1.0273-0.36328-0.78906 0.62109-0.65625 0.8125-0.98047-0.36328-0.75 0.82031-0.96094-0.41016-1.0547-0.089844 0.57422 0.875-1.2305 0.03125-0.78516 0.64062 0.074218 1.0195-0.63672 0.80078-0.99609 0.32422 0.31641 0.97266-0.64062 0.78906-1.0117-0.027344-1.0195-0.0625 0.46875 0.94141-1.0039 0.20703-0.33203 0.95312-0.69141-0.76562-0.98438-0.34375-0.25391 1.0352-0.92969 0.41016-0.82031 0.58203-0.77344 0.66016-0.46875 0.96094-0.59375 0.88281-1.0078 0.44531-0.1875 1.0312-0.80469-0.71484-0.93359 0.46875-0.83594 0.57031-1.0352 0.38281-0.36328 0.98828-0.88281-0.57812-0.94531 0.36719-0.41797 0.92188-0.82031 0.58594-0.48828-0.92969-0.54297 0.89453-0.44531 0.94531-0.42188-1.0117-1.0781-0.17969-0.64844 0.80469-0.78125-0.72656-0.16797 1.0742-0.89844 0.45703-1.0508 0.078125-0.10938 1.0117-1.1797 0.003906 0.17188 1.0078-0.22266 1.0078-0.74219 0.74609-0.51953 0.875-0.84375-0.71094-0.074219 1.0391-0.66797 0.78125-0.91016-0.44141-1-0.31641 0.078125 1-0.69922 0.82422-0.09375 1.0859-0.84766-0.58984-0.33594 0.96094-0.75-0.69531-0.80078 0.61719-0.74609 0.85938-0.92188-0.45312-0.51953 0.875-0.74219 0.72266-0.57812 0.82031-0.55469-0.83203-0.85156 0.60156 0.39453 0.94922-0.28516 1.0391-0.61719 0.93359-0.82031 0.67578-0.94922-0.33984-0.88672 0.52734-0.87891-0.48828-0.84375 0.5625-0.85938-0.68359-1.0195 0.19922-0.64844 0.8125-0.085937 1.1992-0.91797-0.61328-0.36328 0.94922-1.043-0.046875-0.25 0.97266-1.0039 0.12109-0.85938-0.53906-0.066407 1.0039 0.16016 1.043-1.0234 0.070312-0.94922 0.41406-1-0.13672-0.68359 0.73047-0.40234 1 0.77344 0.72656-0.24609 0.99609 0.41797 0.91016 0.078125 1.0078-0.082031 1.0625 0.46094 0.90234-0.38672 0.94531-0.41406 0.93359-0.60938 0.8125-0.85156 0.57031 0.28516 1.0469-0.8125 0.80078-0.55078 0.84766-0.14453 0.99219-0.34766 1-0.28516 0.96875-0.625 0.80469-0.46875 1.0352-0.39844 0.94922-0.011719 1.0078 0.023437 1.125 0.25391 1.1094 0.84766 0.54688-0.85547 0.67969-0.28906 0.99609 0.10156 1.0078-0.62109 0.79688-0.19922 0.98828 0.375 1.0664 0.27344 0.97266-0.9375 0.40625-0.76562 0.66406 0.35547 0.96484-0.42578 0.97656-0.67578 0.74219-0.69141 0.72656-0.66016 0.76562-0.88672 0.47656-0.37891 0.95312-0.19922 0.99219-0.80859 0.64453-0.91797 0.47656-0.80078 0.83594-0.9375 0.58203-0.16016 1-0.70312 0.76953-0.98438 0.25-0.82422 0.77734-0.46875 0.91016 0.015625 1.0039-0.35156 0.96875-0.71484 0.74219 0.015625 1.0469 0.11328 1.0234-0.50391 0.86328-0.57031 0.87891-0.91797 0.46875-0.66406 0.76953-0.5625 0.84766 0.23438 0.98828-0.27734 1.0039 0.13672 1.0117-0.51562 0.85938-0.18359 1.0117 0.21484 0.98047 0.51172 0.85938 0.84375 0.79297 0.32031 0.95312-0.03125 1.0156 0.52344 0.91797 0.58594 0.82812 0.58594 0.81641 0.83203 0.57031 0.6875 0.78516 0.13281 1.0312 0.074219 1.0078 0.41797 0.92188 0.36719 0.9375 0.60547 0.86719-0.18359 0.98438 0.49219 0.875 0.98828 0.35547 0.27734 1.0664-0.8125 0.62891 0.42578 0.91016-0.29297 1.0508-0.82422 0.63281-0.56641 0.85156 0.46094 0.91797-0.88672 0.48828-0.72266 0.71094-1.0312-0.097656-0.42578 0.91016-0.46484 0.88672-0.41797 0.92969-0.91016-0.45312-0.72656 0.73438-0.42969 0.92188-0.75781-0.66797-0.94531 0.375-0.99609-0.10938-0.84766 0.54297-1.0039-0.035156-1.0078-0.066406-1.0039 0.007812-0.64453 0.77734-0.82422 0.61328-0.10938 1.0039-0.96484 0.35938-1.0117 0.066406-0.83594 0.5625-0.98438 0.37891-0.92188 0.39062-1.0195 0.13281-0.97266 0.35547-0.99609 0.097657-0.89844 0.47266-0.73438 0.68359-0.67578 0.76562-0.67578 0.74219-0.98828 0.23047-1.0117 0.25391-0.83203 0.58984-0.77344 0.67188-0.83984 0.54688-0.44531 0.96094-0.57031 0.91016-0.59766 0.82422-0.80859 0.73047-0.58594 0.84375-0.92969 0.37109-0.12891 0.99609-0.34375 0.99609-0.61719 0.85547-0.74219 0.69531-0.39844 0.94141-0.60156 0.83984 0.39062 0.93359 0.49609 0.89453-0.82422 0.58203 0.074219 1.0352 0.054688 1-0.26172 0.99609 0.25 1.0195-0.39844 0.97266-0.66016 0.78516-0.67188 0.74609-0.17188 1.0195-0.26562 1.0156 0.32031 0.98438 1.0508 0.55078 0.35938 0.95703 0.47656 0.89062 0.48828 0.90625 0.33203 1.0469 0.98828 0.16016 0.33594 0.94531 0.45703 0.91797-0.26172 1.0156 0.64453 0.77344 0.46094 0.89844-0.17578 1.1328-0.85547 0.52344-0.65234 0.77344-1.043 0.27734-0.84766-0.61719-1.0508 0.066407-0.91016 0.50781-0.99219-0.35547-0.98438 0.36328-0.97656 0.36328-0.75 0.76953-0.23438 1.1797-1.1211-0.32031-0.98438 0.21484-0.6875-0.82031-0.97266-0.27734-0.98828-0.23438-0.16797 1.0664 0.42188 0.90625 0.51953 0.89453 0.42969 1.0273 0.34375 1.0273 0.38281 0.98828-0.75 0.80859 0.35938 1-0.69531 0.78516-0.5625 0.95703-1.0547 0.15625-1.0469 0.16406-0.41016 0.066406" fill="none" stroke="#fff" stroke-linecap="round" stroke-linejoin="round" stroke-miterlimit="10"/>
<path d="m280.5 213.31c0 3.5898-2.9102 6.5-6.5 6.5s-6.5-2.9102-6.5-6.5 2.9102-6.5 6.5-6.5 6.5 2.9102 6.5 6.5" fill="#28c028" fill-rule="evenodd" stroke="#000" stroke-linecap="round" stroke-linejoin="round" stroke-miterlimit="10"/>
<path d="m175.01 207.31v-16.469h3.3125v16.469zm19.734-2.0938c0.82031 0.58594 1.7109 1.0469 2.6719 1.3906l-1.2344 2.3594c-0.5-0.15625-0.99219-0.36719-1.4688-0.625-0.10547-0.054687-0.84375-0.53906-2.2188-1.4531-1.0742 0.46875-2.2656 0.70312-3.5781 0.70312-2.5312 0-4.5156-0.74219-5.9531-2.2344-1.4297-1.4883-2.1406-3.582-2.1406-6.2812 0-2.6875 0.71875-4.7734 2.1562-6.2656 1.4375-1.5 3.3828-2.25 5.8438-2.25 2.4453 0 4.3828 0.75 5.8125 2.25 1.4258 1.4922 2.1406 3.5781 2.1406 6.2656 0 1.4297-0.19922 2.6797-0.59375 3.75-0.30469 0.82422-0.78125 1.6211-1.4375 2.3906zm-2.6719-1.875c0.42578-0.5 0.74219-1.1016 0.95312-1.8125 0.21875-0.70703 0.32812-1.5234 0.32812-2.4531 0-1.8945-0.42188-3.3125-1.2656-4.25-0.83594-0.94531-1.9297-1.4219-3.2812-1.4219-1.3555 0-2.4531 0.47656-3.2969 1.4219-0.84375 0.9375-1.2656 2.3555-1.2656 4.25 0 1.9297 0.42188 3.3711 1.2656 4.3281 0.84375 0.94922 1.9102 1.4219 3.2031 1.4219 0.47656 0 0.92969-0.078125 1.3594-0.23438-0.67969-0.4375-1.3672-0.78125-2.0625-1.0312l0.9375-1.9062c1.0938 0.375 2.1328 0.9375 3.125 1.6875zm7.2969-12.5h3.3125v8.9219c0 1.418 0.039062 2.3359 0.125 2.75 0.14453 0.67969 0.48438 1.2188 1.0156 1.625 0.53906 0.40625 1.2734 0.60938 2.2031 0.60938 0.9375 0 1.6445-0.19141 2.125-0.57812 0.47656-0.38281 0.76562-0.85938 0.85938-1.4219 0.10156-0.5625 0.15625-1.4922 0.15625-2.7969v-9.1094h3.3281v8.6562c0 1.9688-0.09375 3.3672-0.28125 4.1875-0.17969 0.8125-0.50781 1.5-0.98438 2.0625-0.48047 0.5625-1.125 1.0117-1.9375 1.3438s-1.8711 0.5-3.1719 0.5c-1.5742 0-2.7656-0.18359-3.5781-0.54688s-1.4531-0.83203-1.9219-1.4062c-0.46875-0.58203-0.77734-1.1914-0.92188-1.8281-0.21875-0.94531-0.32812-2.3438-0.32812-4.1875zm16.531 16.469v-16.469h3.3125v16.469zm10.188 0v-13.672h-4.875v-2.7969h13.078v2.7969h-4.875v13.672zm9.6719-8.125c0-1.6758 0.25-3.0859 0.75-4.2344 0.375-0.83203 0.88281-1.582 1.5312-2.25 0.64453-0.66406 1.3516-1.1602 2.125-1.4844 1.0312-0.4375 2.2188-0.65625 3.5625-0.65625 2.4141 0 4.3516 0.75781 5.8125 2.2656 1.457 1.5 2.1875 3.5938 2.1875 6.2812 0 2.6562-0.72656 4.7344-2.1719 6.2344-1.4375 1.5-3.3711 2.25-5.7969 2.25-2.4492 0-4.3984-0.74219-5.8438-2.2344-1.4375-1.5-2.1562-3.5547-2.1562-6.1719zm3.4219-0.125c0 1.8672 0.42969 3.2812 1.2969 4.25 0.86328 0.96094 1.957 1.4375 3.2812 1.4375 1.3203 0 2.4062-0.47266 3.25-1.4219 0.85156-0.95703 1.2812-2.3906 1.2812-4.2969 0-1.8945-0.41797-3.3047-1.25-4.2344-0.82422-0.92578-1.918-1.3906-3.2812-1.3906-1.375 0-2.4844 0.47656-3.3281 1.4219-0.83594 0.9375-1.25 2.3516-1.25 4.2344zm14.297 2.8906 3.2344-0.3125c0.19531 1.0859 0.59375 1.8828 1.1875 2.3906 0.59375 0.51172 1.3945 0.76562 2.4062 0.76562 1.0703 0 1.8789-0.22266 2.4219-0.67188 0.53906-0.45703 0.8125-0.98828 0.8125-1.5938 0-0.39453-0.11719-0.72656-0.34375-1-0.23047-0.26953-0.625-0.50391-1.1875-0.70312-0.39844-0.13281-1.2891-0.375-2.6719-0.71875-1.7812-0.44531-3.0312-0.99219-3.75-1.6406-1.0117-0.90625-1.5156-2.0078-1.5156-3.3125 0-0.83203 0.23828-1.6133 0.71875-2.3438 0.47656-0.72656 1.1602-1.2852 2.0469-1.6719 0.89453-0.38281 1.9766-0.57812 3.25-0.57812 2.0625 0 3.6133 0.45312 4.6562 1.3594 1.0508 0.90625 1.6016 2.1172 1.6562 3.625l-3.3281 0.15625c-0.14844-0.84375-0.45312-1.4531-0.92188-1.8281-0.46094-0.375-1.1562-0.5625-2.0938-0.5625-0.96875 0-1.7305 0.20312-2.2812 0.60938-0.34375 0.25-0.51562 0.58984-0.51562 1.0156 0 0.38672 0.16016 0.71875 0.48438 1 0.42578 0.35547 1.4453 0.72656 3.0625 1.1094 1.6133 0.375 2.8047 0.76562 3.5781 1.1719 0.78125 0.40625 1.3906 0.96484 1.8281 1.6719 0.4375 0.71094 0.65625 1.5859 0.65625 2.625 0 0.94922-0.26562 1.8359-0.79688 2.6562-0.52344 0.82422-1.2617 1.4375-2.2188 1.8438-0.96094 0.39453-2.1523 0.59375-3.5781 0.59375-2.0859 0-3.6836-0.47656-4.7969-1.4375-1.1172-0.96875-1.7812-2.375-2-4.2188zm0 0" fill="none" stroke="#fff" stroke-linecap="round" stroke-linejoin="round" stroke-miterlimit="10" stroke-width="2"/>
<path d="m175.01 207.31v-16.469h3.3125v16.469zm19.734-2.0938c0.82031 0.58594 1.7109 1.0469 2.6719 1.3906l-1.2344 2.3594c-0.5-0.15625-0.99219-0.36719-1.4688-0.625-0.10547-0.054687-0.84375-0.53906-2.2188-1.4531-1.0742 0.46875-2.2656 0.70312-3.5781 0.70312-2.5312 0-4.5156-0.74219-5.9531-2.2344-1.4297-1.4883-2.1406-3.582-2.1406-6.2812 0-2.6875 0.71875-4.7734 2.1562-6.2656 1.4375-1.5 3.3828-2.25 5.8438-2.25 2.4453 0 4.3828 0.75 5.8125 2.25 1.4258 1.4922 2.1406 3.5781 2.1406 6.2656 0 1.4297-0.19922 2.6797-0.59375 3.75-0.30469 0.82422-0.78125 1.6211-1.4375 2.3906zm-2.6719-1.875c0.42578-0.5 0.74219-1.1016 0.95312-1.8125 0.21875-0.70703 0.32812-1.5234 0.32812-2.4531 0-1.8945-0.42188-3.3125-1.2656-4.25-0.83594-0.94531-1.9297-1.4219-3.2812-1.4219-1.3555 0-2.4531 0.47656-3.2969 1.4219-0.84375 0.9375-1.2656 2.3555-1.2656 4.25 0 1.9297 0.42188 3.3711 1.2656 4.3281 0.84375 0.94922 1.9102 1.4219 3.2031 1.4219 0.47656 0 0.92969-0.078125 1.3594-0.23438-0.67969-0.4375-1.3672-0.78125-2.0625-1.0312l0.9375-1.9062c1.0938 0.375 2.1328 0.9375 3.125 1.6875zm7.2969-12.5h3.3125v8.9219c0 1.418 0.039062 2.3359 0.125 2.75 0.14453 0.67969 0.48438 1.2188 1.0156 1.625 0.53906 0.40625 1.2734 0.60938 2.2031 0.60938 0.9375 0 1.6445-0.19141 2.125-0.57812 0.47656-0.38281 0.76562-0.85938 0.85938-1.4219 0.10156-0.5625 0.15625-1.4922 0.15625-2.7969v-9.1094h3.3281v8.6562c0 1.9688-0.09375 3.3672-0.28125 4.1875-0.17969 0.8125-0.50781 1.5-0.98438 2.0625-0.48047 0.5625-1.125 1.0117-1.9375 1.3438s-1.8711 0.5-3.1719 0.5c-1.5742 0-2.7656-0.18359-3.5781-0.54688s-1.4531-0.83203-1.9219-1.4062c-0.46875-0.58203-0.77734-1.1914-0.92188-1.8281-0.21875-0.94531-0.32812-2.3438-0.32812-4.1875zm16.531 16.469v-16.469h3.3125v16.469zm10.188 0v-13.672h-4.875v-2.7969h13.078v2.7969h-4.875v13.672zm9.6719-8.125c0-1.6758 0.25-3.0859 0.75-4.2344 0.375-0.83203 0.88281-1.582 1.5312-2.25 0.64453-0.66406 1.3516-1.1602 2.125-1.4844 1.0312-0.4375 2.2188-0.65625 3.5625-0.65625 2.4141 0 4.3516 0.75781 5.8125 2.2656 1.457 1.5 2.1875 3.5938 2.1875 6.2812 0 2.6562-0.72656 4.7344-2.1719 6.2344-1.4375 1.5-3.3711 2.25-5.7969 2.25-2.4492 0-4.3984-0.74219-5.8438-2.2344-1.4375-1.5-2.1562-3.5547-2.1562-6.1719zm3.4219-0.125c0 1.8672 0.42969 3.2812 1.2969 4.25 0.86328 0.96094 1.957 1.4375 3.2812 1.4375 1.3203 0 2.4062-0.47266 3.25-1.4219 0.85156-0.95703 1.2812-2.3906 1.2812-4.2969 0-1.8945-0.41797-3.3047-1.25-4.2344-0.82422-0.92578-1.918-1.3906-3.2812-1.3906-1.375 0-2.4844 0.47656-3.3281 1.4219-0.83594 0.9375-1.25 2.3516-1.25 4.2344zm14.297 2.8906 3.2344-0.3125c0.19531 1.0859 0.59375 1.8828 1.1875 2.3906 0.59375 0.51172 1.3945 0.76562 2.4062 0.76562 1.0703 0 1.8789-0.22266 2.4219-0.67188 0.53906-0.45703 0.8125-0.98828 0.8125-1.5938 0-0.39453-0.11719-0.72656-0.34375-1-0.23047-0.26953-0.625-0.50391-1.1875-0.70312-0.39844-0.13281-1.2891-0.375-2.6719-0.71875-1.7812-0.44531-3.0312-0.99219-3.75-1.6406-1.0117-0.90625-1.5156-2.0078-1.5156-3.3125 0-0.83203 0.23828-1.6133 0.71875-2.3438 0.47656-0.72656 1.1602-1.2852 2.0469-1.6719 0.89453-0.38281 1.9766-0.57812 3.25-0.57812 2.0625 0 3.6133 0.45312 4.6562 1.3594 1.0508 0.90625 1.6016 2.1172 1.6562 3.625l-3.3281 0.15625c-0.14844-0.84375-0.45312-1.4531-0.92188-1.8281-0.46094-0.375-1.1562-0.5625-2.0938-0.5625-0.96875 0-1.7305 0.20312-2.2812 0.60938-0.34375 0.25-0.51562 0.58984-0.51562 1.0156 0 0.38672 0.16016 0.71875 0.48438 1 0.42578 0.35547 1.4453 0.72656 3.0625 1.1094 1.6133 0.375 2.8047 0.76562 3.5781 1.1719 0.78125 0.40625 1.3906 0.96484 1.8281 1.6719 0.4375 0.71094 0.65625 1.5859 0.65625 2.625 0 0.94922-0.26562 1.8359-0.79688 2.6562-0.52344 0.82422-1.2617 1.4375-2.2188 1.8438-0.96094 0.39453-2.1523 0.59375-3.5781 0.59375-2.0859 0-3.6836-0.47656-4.7969-1.4375-1.1172-0.96875-1.7812-2.375-2-4.2188z" fill-rule="evenodd"/>
</g>
</svg>
