<?xml version="1.0" encoding="UTF-8"?>
<svg width="400pt" height="500pt" version="1.1" viewBox="0 0 400 500" xmlns="http://www.w3.org/2000/svg">
<g id="a">
<rect width="400" height="500" fill="none"/>
<path d="m286.52 259.5 0.68359 0.65625 1.6328 0.27734 1.1016-0.42188 1.6836 0.73047 1.0703 0.51953 0.91406 0.63281 0.61719 0.81641 0.55469 0.96484 0.99219 0.78125 0.60938 0.9375 0.5 0.88672-0.0625 0.99609 1.5117 2.1016 0.69922 1.8359 0.49219 1.0195 0.53516 1.5547 0.39062 0.96875 0.74219 0.76172 0.12109 1.1055 0.48047 1.0703 0.11328 1.1953 1.2461 0.66406-0.046875 1.8359-0.074219 1.125 0.046875 1.1914 0.15234 1.1172-0.0625 1.1875 0.10938 1.5312 1.8203 6.0352 2.4414 8.5234 2.0352 4.3867 3.4023 4.5352 7.7031 5.0977 2.1797 1.4453 1.9219 1.4961 1.2344 0.76172 1.3047 0.91797 0.27344 1.1602 0.11719 2.1641 0.21875 1.3281 0.43359 1.3398 0.85547 0.67188 1.1055 0.58984 1.1367 0.32812 1.0234 0.039062 1.4492 0.17969 1.1914 0.28516 1.8047 1.6055 0.83203 1.1094 1.9688 2.3555 0.94141 0.79688 1.0703 0.58203 1.1289 0.39844 1.8555 0.41016 1.3242 0.1875 1.793 0.10156 2.1992 0.12891 1.8633-0.011719 2.0195-0.14453 1.2031-0.10938 2.0273-0.1875 1.582-0.46484 2.5898-1.4453 0.89062-0.47656 1.1211-0.64062 1.0078-0.71094 1.0273-0.69141 1.1289-0.66016 1.3477-0.67969 2.0938-1.1602 1.2422-0.72656 0.97266-0.59375 2.1289-1.5703 1.3203-0.97266 1.2773-1.7891 1.0859-1.0312 1.2266-0.55469 1.8789-0.44922 1.1055-0.25 1.1211-0.19141 1.8047-0.35547 0.94141-0.64453 0.69531-0.91797 0.88281-3.3359 3.8867-2.0195 2.5547-1.7461 1.0742-0.83984 1.0703-1.2539 1.4531 0.73438 1.2578 1.0078-1.1719 1.6172-2.0625 1.1875-2.6211 1.9102-2.2305 2.1133-0.75781 1.1016-0.058594 1.1914 2.3008 3.2539 0.94531 1.5352 0.42578 2.2109-0.12891 1.7539-0.30859 2.0742 0.23047 1.0664 0.10547 1.0039-0.50391 1.1328-0.84375 1.0039-2.2148 1.4727-0.82812 0.6875-0.38281 1.207-0.14453 2.9492-0.16406 1.1484-0.45703 1.6133-1.0625 0.96484-0.95703 0.43359-0.96875 0.45703-1.0898 1.0195-1.7344 1.7617-1.4258 2.8789-0.62891 0.90234-1.457 1.2734-2.1289 1.3828-1.6641 0.70703-1.5938 1.2148-1.4102 2.0352-0.94141 1.207-0.91016 1.0156-1.1875 2.5781-2.7461 4.3125-0.77344 1.0156-1.1992 1.082-1.5312 0.95312-1.5703 0.49219-1.2969 0.058593-2.5117 0.046875-0.88281 0.64844-2.0156 1.5195-0.96094 1.7969-1.9141 2.3398-1.3594 1.5859-1.7852 1.1523-0.9375 0.36719-0.75391 0.67578-0.59375 0.97656-0.98047 1.5312-0.67578 1.0469-0.875 0.58203-1.6055 0.23438-1.0391 0.8125-0.53125 1.2148-0.36328 0.94141-1.1055 0.76172-1.1055 0.21875-1.1836 0.054688-2.4766 3.8359-0.44141 1.0156-0.6875 0.82812-0.21875 0.97656 0.25781 1.0078 0.28125 1.1406-0.33203 2.5938-1.7266 1.7383-0.98047 1.0312-0.30078 1.2188-0.66016 0.94922-1.4766-0.59766-0.98047-1.1523-0.28125-1.0508-0.71484-1.1406-1.0859-0.41797-1.1523-0.28125-1.0625-0.46875-2.1797-1.543-1.9062-0.69141-1.2148-0.32031-1.5547-0.38672-1.2383 0.19141-1.4062-1.7383-1.1406-2.0469-0.60938-1.8398-0.29688-1.9609-0.12109-2.2227 0.43359-3.1484 1.25-2.9961 0.82422-1.3125 1.1992-1.9922 0.23438-1.668-0.17578-1.5703-0.45703-1.3516-1.3867-1.6172-1.625-1.0352-2.7148-0.94922-1.5273-0.21875-2.2109-0.31641-1.6211-0.65625-1.8008-1.3711-0.83594-1.0938-0.64453-0.83984-1.1055-2-0.84375-1.0469-1.5156-1.0039-2.2656-0.6875-1.1289-0.69922-1.4922-1.3906-1.1836-0.51562-1.7227-0.53906-1.5742-0.84375-1.332-1.2656-2.8984-4.6758-0.59766-1.3672-0.90625-1.25-1.2266-0.95312-2.2422-1.1133-1.3867-0.15625-1.6484 0.25781-1.5938 0.53906-1.4922-0.023437-1.5156-0.30859-3.8984-1.9375-3.3008-1.4062-0.9375-0.86328-2.2773-2.3281-1.7773-1.4375-1.8516-1.2852-3.2305-1.3359-2.3867-1.1836-2.0898-1.1562-2.3867-1.8477-1-0.88672-1.0547-0.99609-1.1445-1.0781-0.95703-1.3008-0.83594-1.8359-1.3359-4.3008-2.6367-2.2773-3.4961-0.52734-4.1094-0.60938-3.6719-1.6602-4.2852-4.4609-4.1055-5.5078-3.6719-6.6406-3.0586-4.6328-3.2344-4.3711-2.7109-2.9727-1.0508-3.7578 0.089844-4.0234-0.37891-3.4492-0.25-2.3164-0.30859-1.0586-0.55078-1.3867-0.76953-1.1953h1.1602l1.3984 0.57031 1.0273 0.375 0.96875 0.40625 3.1172 2.5391 2.957 2.3516 0.87891 0.71875 0.61328 0.98828 0.88672 1.2031 1.5195 1.5039 0.80859 0.80859 0.65234 0.76562 2.4414 2.8984 1.793 1.9453 1.6016 2.332 1.3477 1.8008 0.96484 0.48047 2.2109 0.36719 2.4531 0.57422 3.2812 1.1328 3.5625 1.4258 2.7578 0.94922 1.1328 0.38672 1.8008 0.60547 2.3086 0.71094 2.2695 0.82812 1.5078 0.89062 2.3789 2.4961 0.94141 0.86328 2.5273 2.3125 0.87891 0.80859 4.1133 2.1719 8.6445 2.6953 3.5195 0.98047 1.8906 1.2734 0.82422 0.83203 0.57031 0.86719 0.89062 0.54297 0.91016 0.43359-0.019531 1.0078 0.9375-0.37891 1.0156 0.12109 1.0742 0.28906 0.89062-0.75391 0.51172-1.1484 0.41797-0.95703 0.44922-1.1836 0.54688-2.5117 0.082031-1.0898 0.11719-3.1562 0.042969-1.0547-0.003907-1.3945-0.03125-1.6562-0.066406-1.1602-0.15234-1.1836-0.23828-1.8477-0.18359-1.9141-0.33203-1.6562-0.22656-1.5508-0.27344-2.4453 0.125-1.1367 1.5664-2.0625 0.84375-1.625 0.94141-2.2812 0.91016-1.7695 1.0273-1.5156 0.72266-1.0234 0.64453-1.2617 0.33203-1.2383 0.47656-1.5664-0.089844-1.1406-0.20703-1.0195-0.70703-2.3281-0.44531-1.1094-0.92578-1.1367-1.1289-3.0469-0.25-1.3281-0.19531-2.1875 0.14453-1.4648 0.21094-1.2188 0.30469-1.4766z" fill="#ccc" fill-rule="evenodd"/>
<path d="m286.52 259.5 0.68359 0.65625 1.6328 0.27734 1.1016-0.42188 1.6836 0.73047 1.0703 0.51953 0.91406 0.63281 0.61719 0.81641 0.55469 0.96484 0.99219 0.78125 0.60938 0.9375 0.5 0.88672-0.0625 0.99609 1.5117 2.1016 0.69922 1.8359 0.49219 1.0195 0.53516 1.5547 0.39062 0.96875 0.74219 0.76172 0.12109 1.1055 0.48047 1.0703 0.11328 1.1953 1.2461 0.66406-0.046875 1.8359-0.074219 1.125 0.046875 1.1914 0.15234 1.1172-0.0625 1.1875 0.10938 1.5312 1.8203 6.0352 2.4414 8.5234 2.0352 4.3867 3.4023 4.5352 7.7031 5.0977 2.1797 1.4453 1.9219 1.4961 1.2344 0.76172 1.3047 0.91797 0.27344 1.1602 0.11719 2.1641 0.21875 1.3281 0.43359 1.3398 0.85547 0.67188 1.1055 0.58984 1.1367 0.32812 1.0234 0.039062 1.4492 0.17969 1.1914 0.28516 1.8047 1.6055 0.83203 1.1094 1.9688 2.3555 0.94141 0.79688 1.0703 0.58203 1.1289 0.39844 1.8555 0.41016 1.3242 0.1875 1.793 0.10156 2.1992 0.12891 1.8633-0.011719 2.0195-0.14453 1.2031-0.10938 2.0273-0.1875 1.582-0.46484 2.5898-1.4453 0.89062-0.47656 1.1211-0.64062 1.0078-0.71094 1.0273-0.69141 1.1289-0.66016 1.3477-0.67969 2.0938-1.1602 1.2422-0.72656 0.97266-0.59375 2.1289-1.5703 1.3203-0.97266 1.2773-1.7891 1.0859-1.0312 1.2266-0.55469 1.8789-0.44922 1.1055-0.25 1.1211-0.19141 1.8047-0.35547 0.94141-0.64453 0.69531-0.91797 0.88281-3.3359 3.8867-2.0195 2.5547-1.7461 1.0742-0.83984 1.0703-1.2539 1.4531 0.73438 1.2578 1.0078-1.1719 1.6172-2.0625 1.1875-2.6211 1.9102-2.2305 2.1133-0.75781 1.1016-0.058594 1.1914 2.3008 3.2539 0.94531 1.5352 0.42578 2.2109-0.12891 1.7539-0.30859 2.0742 0.23047 1.0664 0.10547 1.0039-0.50391 1.1328-0.84375 1.0039-2.2148 1.4727-0.82812 0.6875-0.38281 1.207-0.14453 2.9492-0.16406 1.1484-0.45703 1.6133-1.0625 0.96484-0.95703 0.43359-0.96875 0.45703-1.0898 1.0195-1.7344 1.7617-1.4258 2.8789-0.62891 0.90234-1.457 1.2734-2.1289 1.3828-1.6641 0.70703-1.5938 1.2148-1.4102 2.0352-0.94141 1.207-0.91016 1.0156-1.1875 2.5781-2.7461 4.3125-0.77344 1.0156-1.1992 1.082-1.5312 0.95312-1.5703 0.49219-1.2969 0.058593-2.5117 0.046875-0.88281 0.64844-2.0156 1.5195-0.96094 1.7969-1.9141 2.3398-1.3594 1.5859-1.7852 1.1523-0.9375 0.36719-0.75391 0.67578-0.59375 0.97656-0.98047 1.5312-0.67578 1.0469-0.875 0.58203-1.6055 0.23438-1.0391 0.8125-0.53125 1.2148-0.36328 0.94141-1.1055 0.76172-1.1055 0.21875-1.1836 0.054688-2.4766 3.8359-0.44141 1.0156-0.6875 0.82812-0.21875 0.97656 0.25781 1.0078 0.28125 1.1406-0.33203 2.5938-1.7266 1.7383-0.98047 1.0312-0.30078 1.2188-0.66016 0.94922-1.4766-0.59766-0.98047-1.1523-0.28125-1.0508-0.71484-1.1406-1.0859-0.41797-1.1523-0.28125-1.0625-0.46875-2.1797-1.543-1.9062-0.69141-1.2148-0.32031-1.5547-0.38672-1.2383 0.19141-1.4062-1.7383-1.1406-2.0469-0.60938-1.8398-0.29688-1.9609-0.12109-2.2227 0.43359-3.1484 1.25-2.9961 0.82422-1.3125 1.1992-1.9922 0.23438-1.668-0.17578-1.5703-0.45703-1.3516-1.3867-1.6172-1.625-1.0352-2.7148-0.94922-1.5273-0.21875-2.2109-0.31641-1.6211-0.65625-1.8008-1.3711-0.83594-1.0938-0.64453-0.83984-1.1055-2-0.84375-1.0469-1.5156-1.0039-2.2656-0.6875-1.1289-0.69922-1.4922-1.3906-1.1836-0.51562-1.7227-0.53906-1.5742-0.84375-1.332-1.2656-2.8984-4.6758-0.59766-1.3672-0.90625-1.25-1.2266-0.95312-2.2422-1.1133-1.3867-0.15625-1.6484 0.25781-1.5938 0.53906-1.4922-0.023437-1.5156-0.30859-3.8984-1.9375-3.3008-1.4062-0.9375-0.86328-2.2773-2.3281-1.7773-1.4375-1.8516-1.2852-3.2305-1.3359-2.3867-1.1836-2.0898-1.1562-2.3867-1.8477-1-0.88672-1.0547-0.99609-1.1445-1.0781-0.95703-1.3008-0.83594-1.8359-1.3359-4.3008-2.6367-2.2773-3.4961-0.52734-4.1094-0.60938-3.6719-1.6602-4.2852-4.4609-4.1055-5.5078-3.6719-6.6406-3.0586-4.6328-3.2344-4.3711-2.7109-2.9727-1.0508-3.7578 0.089844-4.0234-0.37891-3.4492-0.25-2.3164-0.30859-1.0586-0.55078-1.3867-0.76953-1.1953h1.1602l1.3984 0.57031 1.0273 0.375 0.96875 0.40625 3.1172 2.5391 2.957 2.3516 0.87891 0.71875 0.61328 0.98828 0.88672 1.2031 1.5195 1.5039 0.80859 0.80859 0.65234 0.76562 2.4414 2.8984 1.793 1.9453 1.6016 2.332 1.3477 1.8008 0.96484 0.48047 2.2109 0.36719 2.4531 0.57422 3.2812 1.1328 3.5625 1.4258 2.7578 0.94922 1.1328 0.38672 1.8008 0.60547 2.3086 0.71094 2.2695 0.82812 1.5078 0.89062 2.3789 2.4961 0.94141 0.86328 2.5273 2.3125 0.87891 0.80859 4.1133 2.1719 8.6445 2.6953 3.5195 0.98047 1.8906 1.2734 0.82422 0.83203 0.57031 0.86719 0.89062 0.54297 0.91016 0.43359-0.019531 1.0078 0.9375-0.37891 1.0156 0.12109 1.0742 0.28906 0.89062-0.75391 0.51172-1.1484 0.41797-0.95703 0.44922-1.1836 0.54688-2.5117 0.082031-1.0898 0.11719-3.1562 0.042969-1.0547-0.003907-1.3945-0.03125-1.6562-0.066406-1.1602-0.15234-1.1836-0.23828-1.8477-0.18359-1.9141-0.33203-1.6562-0.22656-1.5508-0.27344-2.4453 0.125-1.1367 1.5664-2.0625 0.84375-1.625 0.94141-2.2812 0.91016-1.7695 1.0273-1.5156 0.72266-1.0234 0.64453-1.2617 0.33203-1.2383 0.47656-1.5664-0.089844-1.1406-0.20703-1.0195-0.70703-2.3281-0.44531-1.1094-0.92578-1.1367-1.1289-3.0469-0.25-1.3281-0.19531-2.1875 0.14453-1.4648 0.21094-1.2188 0.30469-1.4766 0.65625-0.34375" fill="none" stroke="#fff" stroke-linecap="round" stroke-linejoin="round" stroke-miterlimit="10" stroke-width="2"/>
<path d="m201.27 272.18 0.22266 0.38672 0.76953 1.1953 0.55078 1.3867 0.29688 0.98828 0.26172 2.3867 0.37891 3.4492-0.089844 4.0234 1.0508 3.7578 2.7109 2.9727 3.2344 4.3711 3.0586 4.6328 3.6719 6.6406 4.1055 5.5078 4.2852 4.4609 3.6719 1.6602 4.1094 0.60938 3.4961 0.52734 2.3398 1.7617 1.6328 4.8164 0.83594 1.8359 0.91016 1.2578 1.1914 1.1211 0.87109 0.82031 0.89062 0.83594 2.6797 2.0742 2.0898 1.1562 2.3867 1.1836 3.2305 1.3359 1.8516 1.2852 1.7773 1.4375 1.8516 1.9297 1.3633 1.2617 2.3945 0.99609 4.8047 2.3477 1.5156 0.30859 1.4922 0.023437 1.5938-0.53906 1.6484-0.25781 1.3867 0.15625 1.4688 0.5625 2 1.5039 0.76172 1.0508 0.74219 1.5664 2.8984 4.6758 1.2305 1.2109 1.0078 0.53906 2.3906 0.89844 1.1836 0.51562 1.4922 1.3906 0.84766 0.53125 2.5469 0.85547 1.5156 1.0039 0.84375 1.0469 1.1055 2 0.64453 0.83984 0.83594 1.0938 1.8008 1.3711 1.6211 0.65625 2.2109 0.31641 1.5273 0.21875 2.7148 0.94922 1.625 1.0352 1.3867 1.6172 0.45703 1.3516 0.17578 1.5703-0.23438 1.668-1.1992 1.9922-0.73047 1.2109-1.3438 3.0977-0.43359 3.1484 0.12109 2.2227 0.29688 1.9609 0.60938 1.8398 0.9375 1.6836 1.6094 2.1016-1.0508 0.44141-1.1094 0.46875-3.207 1.7461-2.6367 2.5781-2.4336 2.9648-1.0508 0.76953-1.3047 0.65234-1.207 0.44531-1.6133 0.625-0.78906 1.1953-0.085938 1.0195 0.054688 1.3281 0.16797 1.2539-0.023438 1.1562-0.58203 1.1719-1.0781 0.93359-1.625 1.0859-1.2422 0.5625-1.2734 0.34375-1.293 0.61719-0.60547 0.82031-0.59375 0.90234-1.168 0.98438-1.1602 0.015625-1.8359-0.46875-1.3164-0.18359-1.8906 0.53906-2.5938 1.6953-1.1133 0.10938-1.4961-0.027344-1.0977 0.1875-1.0312 0.40625-0.95312 0.76953-0.72266 0.83594-2.0938 1.9531-1.1992 0.98047-1.043 0.79297-1.0391 0.72266-3.8359 1.0703-1.6992 0.39062-2.6875 1.1211-7.043 3.0781-1.6484 0.64453-3.2461 1.2734-2.4297 1.7266-2.4961 2.8516-0.69141 1.2656-1.3203 3.7383-0.53516 0.94531-0.75781 0.8125-1.9922 1.0391-18.941 9.8672-3.2109 1.6953-1.3008 0.56641-1.2188 0.45312-2.1719 0.39062-1.6836 0.089844-1.0117 0.11328-1.8516 0.48438-3.3672 2.0156-3.9688 4.25-3.8164-0.75391-1.8359-1.0664-1.8516-1.0781-1.9336-0.26172-2.4531 0.070312-1.4961 0.50391-3.1211 2.8242-2.5703 2.4219-3.043 4.2344-2.3164 2.25-2.5078 2.832-0.96875 1.0039-1.0664-0.53906-1.2812-0.34766-1.0078 0.18359-0.90625 1.1211-0.83594 0.76953-2.2695 1.3203-2.6211 1.2578-1.7109 1.2539-1.6523 1.5664-2.3281 1.4648-2.6719 0.96875-1.2305 0.17578h-1.3047l-1.0273-0.30078-1.4258-0.41406-1.5234-0.17188-1.3711 0.34375-0.96484 0.77344-0.46875 1.3516-1.1758 1.082-3.5469 1.1484-2.3281 0.11719-2.8164 0.14844-2.332 0.058594-0.027344-1.0742 0.21875-1.0703 0.24609-1.082 0.42578-1.168 0.4375-0.98047 0.42578-0.97266 0.58594-1.0469 0.23438-1.1484 0.11328-1.0273 0.13281-1.125 0.25781-0.98047 0.14453-1.168 0.23438-1.3164 0.33984-1.0469 0.40625-1.0234 0.45312-1.1992 0.38281-0.95312 0.28125-1.0586-1.3164 0.5-1.4414 0.63281-2.668 0.63281-2.6484-0.10547-4.3047-0.85547-2.2305-0.92188-1.1133-0.45312-3.5742-0.79688-0.62109-0.83594 0.54688-1.2734 0.79297-0.76172-0.17969-1.1719-1.0703-0.55859-1.0156-0.48047-1.4102-1.0625-0.97656-1.1367-0.1875-1.1172 0.52734-0.92188 0.94141-1.3633 0.95703-1.4102 0.28125-0.96484-0.0625-1.1016-0.50391-1.0547-0.72266-0.94141-0.73828-0.97266-0.73438-0.98047-0.58984-0.84766-0.60547-0.87109-0.50781-1.0156-0.066407-1.1953v-1.0391l0.035157-1.1016 0.13672-1.0078 0.41016-1.125 0.54297-0.90625 0.64453-0.83203 0.6875-0.82422 0.67578-0.83594 0.70312-0.91016-0.058594-1.1211-0.51953-0.99219-0.55469-1.0781-0.21484-1.0039 0.085937-1.1016 0.82031-0.69141 1.0391-0.023437 1.0742 0.039062 1.457 0.26172 0.70312-0.82812 0.375-1.2109 0.20703-1.0156-0.16797-1.2344-0.48047-0.88281-0.76953-0.77344-0.73828-0.76172-0.76953-0.82422-0.75-0.91016 0.074219-1.1602 0.61719-0.90625 0.78516-0.73828 0.85938-0.73828 0.89453-0.72266 0.86719-0.72656 0.84766-0.65234 1.0508-0.8125 0.98828-0.69922 1.0039-0.75 0.88281-0.6875 0.82031-0.71484 1.0117-0.67578 0.94141-0.67578 0.79688-0.64062 0.83203-0.71484 0.71484-0.77344 0.41016-1.1016 0.51953-0.87109 0.61719-0.90625 0.60547-0.87109 0.62891-0.84766 0.82031-0.87109 0.90625-0.72266 0.90625-0.54688 1.0117-0.45703 1.1133-0.30078 1.207-0.17188 1.168 0.13672 1.293 0.12109 1.0859 0.046875 1.1719 0.19531 1.0352 0.35156 1.0547 0.050781 0.62109-0.96875 0.16797-1.1406 0.074219-1.0391 0.3125-1.1016 0.070313-1.1523 0.03125-1.0078 0.14844-1.0391 0.30859-0.98438 0.34375-1.1328 0.23828-1.1133 0.15625-1.1328 0.36328-0.97656 0.4375-1.0156 0.40234-0.94531 0.33984-0.94141 1.3477-1.0938 2.1133-2.1758 2.6914-2.7695 2.5234-1.4062 2.5273-0.46875 2.8789-0.058594 6.5781 0.41016 6.4648-0.35156 1-0.76172 0.5-1.4609 0.5-0.87109 1.0117-0.625 0.96484-0.51562 1-0.33594 2.1719 0.070313 1.4258 0.21094 0.94141 0.44922 1.4922-0.097656 1.918-0.82031 4.2891 0.29297 2.7617-0.70312 2.125-1.5117 1.5977-1.8711 0.59375-0.95703 0.73047-0.70312 1.0781-0.74609 0.94531-0.55859 1.0938-0.59375 1.0117-0.37891 2.8828-0.10547 1.3477-0.097657 1.1289-0.0625 1.1133-0.3125 1.2852-0.65625 1.0977-0.85547 1.7812-1.6836 0.91406-0.76172 1.1328-0.64844 1.6172-0.92578 3.293-2.2266 1.1094-0.75391 1.2188-1.168 0.57422-0.83984 0.625-1.4062 0.46484-2.4492 0.26172-1.4023 0.21875-2.8359 0.375-3.5703 0.27344-3.1836 0.015625-3.6055-0.082031-2.4844-0.87109-1.3828-2.0664-1.1641-1.7773-0.25781-1.875-0.12891-3.2266-1.2305-1.8867-1.1875-1.0312-0.83203-0.49609-1.0547-0.1875-1.6953 0.25391-1.832 0.19922-1.418-1.1211-4.0352-0.54688-1.8789-1.4727-5.0781-1.1523-3.9609-0.65625-3.0586-0.14453-1.75-0.33984-2.0664-0.31641-1.2656-0.75781-1.8008-0.85938-1.3047-7.3203-11.098-1.2461-1.8867-1.8047-9.8633-0.97266-0.82812-1.6602-2.2617 0.34766-2.1094 2.8867-4.0195 2.5664-2.1758z" fill="#ccc" fill-rule="evenodd"/>
<path d="m201.27 272.18 0.22266 0.38672 0.76953 1.1953 0.55078 1.3867 0.29688 0.98828 0.26172 2.3867 0.37891 3.4492-0.089844 4.0234 1.0508 3.7578 2.7109 2.9727 3.2344 4.3711 3.0586 4.6328 3.6719 6.6406 4.1055 5.5078 4.2852 4.4609 3.6719 1.6602 4.1094 0.60938 3.4961 0.52734 2.3398 1.7617 1.6328 4.8164 0.83594 1.8359 0.91016 1.2578 1.1914 1.1211 0.87109 0.82031 0.89062 0.83594 2.6797 2.0742 2.0898 1.1562 2.3867 1.1836 3.2305 1.3359 1.8516 1.2852 1.7773 1.4375 1.8516 1.9297 1.3633 1.2617 2.3945 0.99609 4.8047 2.3477 1.5156 0.30859 1.4922 0.023437 1.5938-0.53906 1.6484-0.25781 1.3867 0.15625 1.4688 0.5625 2 1.5039 0.76172 1.0508 0.74219 1.5664 2.8984 4.6758 1.2305 1.2109 1.0078 0.53906 2.3906 0.89844 1.1836 0.51562 1.4922 1.3906 0.84766 0.53125 2.5469 0.85547 1.5156 1.0039 0.84375 1.0469 1.1055 2 0.64453 0.83984 0.83594 1.0938 1.8008 1.3711 1.6211 0.65625 2.2109 0.31641 1.5273 0.21875 2.7148 0.94922 1.625 1.0352 1.3867 1.6172 0.45703 1.3516 0.17578 1.5703-0.23438 1.668-1.1992 1.9922-0.73047 1.2109-1.3438 3.0977-0.43359 3.1484 0.12109 2.2227 0.29688 1.9609 0.60938 1.8398 0.9375 1.6836 1.6094 2.1016-1.0508 0.44141-1.1094 0.46875-3.207 1.7461-2.6367 2.5781-2.4336 2.9648-1.0508 0.76953-1.3047 0.65234-1.207 0.44531-1.6133 0.625-0.78906 1.1953-0.085938 1.0195 0.054688 1.3281 0.16797 1.2539-0.023438 1.1562-0.58203 1.1719-1.0781 0.93359-1.625 1.0859-1.2422 0.5625-1.2734 0.34375-1.293 0.61719-0.60547 0.82031-0.59375 0.90234-1.168 0.98438-1.1602 0.015625-1.8359-0.46875-1.3164-0.18359-1.8906 0.53906-2.5938 1.6953-1.1133 0.10938-1.4961-0.027344-1.0977 0.1875-1.0312 0.40625-0.95312 0.76953-0.72266 0.83594-2.0938 1.9531-1.1992 0.98047-1.043 0.79297-1.0391 0.72266-3.8359 1.0703-1.6992 0.39062-2.6875 1.1211-7.043 3.0781-1.6484 0.64453-3.2461 1.2734-2.4297 1.7266-2.4961 2.8516-0.69141 1.2656-1.3203 3.7383-0.53516 0.94531-0.75781 0.8125-1.9922 1.0391-18.941 9.8672-3.2109 1.6953-1.3008 0.56641-1.2188 0.45312-2.1719 0.39062-1.6836 0.089844-1.0117 0.11328-1.8516 0.48438-3.3672 2.0156-3.9688 4.25-3.8164-0.75391-1.8359-1.0664-1.8516-1.0781-1.9336-0.26172-2.4531 0.070312-1.4961 0.50391-3.1211 2.8242-2.5703 2.4219-3.043 4.2344-2.3164 2.25-2.5078 2.832-0.96875 1.0039-1.0664-0.53906-1.2812-0.34766-1.0078 0.18359-0.90625 1.1211-0.83594 0.76953-2.2695 1.3203-2.6211 1.2578-1.7109 1.2539-1.6523 1.5664-2.3281 1.4648-2.6719 0.96875-1.2305 0.17578h-1.3047l-1.0273-0.30078-1.4258-0.41406-1.5234-0.17188-1.3711 0.34375-0.96484 0.77344-0.46875 1.3516-1.1758 1.082-3.5469 1.1484-2.3281 0.11719-2.8164 0.14844-2.332 0.058594-0.027344-1.0742 0.21875-1.0703 0.24609-1.082 0.42578-1.168 0.4375-0.98047 0.42578-0.97266 0.58594-1.0469 0.23438-1.1484 0.11328-1.0273 0.13281-1.125 0.25781-0.98047 0.14453-1.168 0.23438-1.3164 0.33984-1.0469 0.40625-1.0234 0.45312-1.1992 0.38281-0.95312 0.28125-1.0586-1.3164 0.5-1.4414 0.63281-2.668 0.63281-2.6484-0.10547-4.3047-0.85547-2.2305-0.92188-1.1133-0.45312-3.5742-0.79688-0.62109-0.83594 0.54688-1.2734 0.79297-0.76172-0.17969-1.1719-1.0703-0.55859-1.0156-0.48047-1.4102-1.0625-0.97656-1.1367-0.1875-1.1172 0.52734-0.92188 0.94141-1.3633 0.95703-1.4102 0.28125-0.96484-0.0625-1.1016-0.50391-1.0547-0.72266-0.94141-0.73828-0.97266-0.73438-0.98047-0.58984-0.84766-0.60547-0.87109-0.50781-1.0156-0.066407-1.1953v-1.0391l0.035157-1.1016 0.13672-1.0078 0.41016-1.125 0.54297-0.90625 0.64453-0.83203 0.6875-0.82422 0.67578-0.83594 0.70312-0.91016-0.058594-1.1211-0.51953-0.99219-0.55469-1.0781-0.21484-1.0039 0.085937-1.1016 0.82031-0.69141 1.0391-0.023437 1.0742 0.039062 1.457 0.26172 0.70312-0.82812 0.375-1.2109 0.20703-1.0156-0.16797-1.2344-0.48047-0.88281-0.76953-0.77344-0.73828-0.76172-0.76953-0.82422-0.75-0.91016 0.074219-1.1602 0.61719-0.90625 0.78516-0.73828 0.85938-0.73828 0.89453-0.72266 0.86719-0.72656 0.84766-0.65234 1.0508-0.8125 0.98828-0.69922 1.0039-0.75 0.88281-0.6875 0.82031-0.71484 1.0117-0.67578 0.94141-0.67578 0.79688-0.64062 0.83203-0.71484 0.71484-0.77344 0.41016-1.1016 0.51953-0.87109 0.61719-0.90625 0.60547-0.87109 0.62891-0.84766 0.82031-0.87109 0.90625-0.72266 0.90625-0.54688 1.0117-0.45703 1.1133-0.30078 1.207-0.17188 1.168 0.13672 1.293 0.12109 1.0859 0.046875 1.1719 0.19531 1.0352 0.35156 1.0547 0.050781 0.62109-0.96875 0.16797-1.1406 0.074219-1.0391 0.3125-1.1016 0.070313-1.1523 0.03125-1.0078 0.14844-1.0391 0.30859-0.98438 0.34375-1.1328 0.23828-1.1133 0.15625-1.1328 0.36328-0.97656 0.4375-1.0156 0.40234-0.94531 0.33984-0.94141 1.3477-1.0938 2.1133-2.1758 2.6914-2.7695 2.5234-1.4062 2.5273-0.46875 2.8789-0.058594 6.5781 0.41016 6.4648-0.35156 1-0.76172 0.5-1.4609 0.5-0.87109 1.0117-0.625 0.96484-0.51562 1-0.33594 2.1719 0.070313 1.4258 0.21094 0.94141 0.44922 1.4922-0.097656 1.918-0.82031 4.2891 0.29297 2.7617-0.70312 2.125-1.5117 1.5977-1.8711 0.59375-0.95703 0.73047-0.70312 1.0781-0.74609 0.94531-0.55859 1.0938-0.59375 1.0117-0.37891 2.8828-0.10547 1.3477-0.097657 1.1289-0.0625 1.1133-0.3125 1.2852-0.65625 1.0977-0.85547 1.7812-1.6836 0.91406-0.76172 1.1328-0.64844 1.6172-0.92578 3.293-2.2266 1.1094-0.75391 1.2188-1.168 0.57422-0.83984 0.625-1.4062 0.46484-2.4492 0.26172-1.4023 0.21875-2.8359 0.375-3.5703 0.27344-3.1836 0.015625-3.6055-0.082031-2.4844-0.87109-1.3828-2.0664-1.1641-1.7773-0.25781-1.875-0.12891-3.2266-1.2305-1.8867-1.1875-1.0312-0.83203-0.49609-1.0547-0.1875-1.6953 0.25391-1.832 0.19922-1.418-1.1211-4.0352-0.54688-1.8789-1.4727-5.0781-1.1523-3.9609-0.65625-3.0586-0.14453-1.75-0.33984-2.0664-0.31641-1.2656-0.75781-1.8008-0.85938-1.3047-7.3203-11.098-1.2461-1.8867-1.8047-9.8633-0.97266-0.82812-1.6602-2.2617 0.34766-2.1094 2.8867-4.0195 2.5664-2.1758 0.46094-0.10156" fill="none" stroke="#fff" stroke-linecap="round" stroke-linejoin="round" stroke-miterlimit="10" stroke-width="2"/>
<path d="m95.621 0.96484 0.10938 0.26562 0.019531 1.1484-0.41016 1.8125-0.11719 1.9531 0.11328 1.0039 0.39844 1.5781 1.0859 2.5391 0.63281 1.1953 0.51172 1.0781 0.46484 1.0156 0.53125 1.0195 0.26562 1.2812 0.25781 1.0156 1.3867 0.19922 1.0977 0.007812 2.0742 0.46094 1.4102-0.035157 1.2344 0.36328 1.0078 0.41797 1.5586 0.50781 1.293 0.19141 1.1758 0.046875 1.1992 0.78516 0.83594 0.63281 1.4375 0.94531 1.5664 0.59766 1.9844-0.15625 1.0664-0.16406 1.4883-0.42188 1.5859 0.84766 0.78125 0.94531 1.1406 1.2734 0.92969 0.82031 1.2461 0.52734 1.3477 0.41797 4.7344 0.14453 1.168 0.13281 1.6953 1 1.0039 1.5 0.55859 0.97266 1.1094 0.66406 0.96875-0.40625 1.7305-0.33203 1.3984-0.65234 1.1992-0.91406 1.2812-0.55078 1.8906-0.074219 1.125-0.085937 1.125-0.30469 1.9766-0.89844 1.1562 0.085937 1.2539-0.046875 1.1055 0.21484 0.98438-0.26562 1.1719 0.48828 0.78125 0.72266 0.67578 0.85156 0.62109 1.1055 0.33594 0.97266 0.58594 0.99219 0.19141 0.99609-0.058593 1.0859 0.55859 0.94141 0.99219 1.1992 0.38281 1.0508 0.085938 1.0078 0.97656 0.67188-0.20312 0.98828-0.35156 0.96094 0.03125 1.043 0.20312 1.0391 1.0078 0.78516 0.66406 0.96094 0.54688 0.88281 0.64453 0.85156 1.0195-0.027343 0.97266 0.38672 1.0039 0.19531 1.0039 0.41016 0.72656 0.92969 0.83203 0.69922 0.92578 0.48047 0.73828 0.91406 0.070313 1.0898-0.98047 1.0156 0.25391 0.97656 0.45703 1.0703 0.61719 0.81641 1.0547 0.78906 0.39844 1.3711 0.50781 1.0156 0.38672 1.25 0.32031 1.0391 0.77734 1.7305 1.3281 0.91016 1.125 0.39453 0.73047 0.71094 0.45703-1.0625 0.91797-0.40234 1.0391 0.40625h1.125l1.1836 0.89844 0.88281 1.0898 1.2227 0.625 2.1445 2.5391 1.0156 0.83984 1.9062 1.3828 1.375 0.59766 1.332 0.45312 1.6055 0.88672 1.1211 0.11719 1.043-0.28906 0.88281 0.52344-0.34766 1.5273 0.089844 1.0508 0.42578 0.99219 0.44922 1.5195-0.070312 1.7812 0.12109 2.0117 0.42578 1.8086 0.066406 1.4102-0.28125 1.2344-0.28906 1.2266-0.050781 1.1211 0.066406 1.0508-1.1289 0.27344-1.1172-0.035156-1.1719 0.33203-1.2656 1.1641-0.24219 1.0352 0.67188 0.97266 0.36719 1.1797 0.33984 1.2148 0.88281 0.98828 0.51562 0.97266 1.0781 0.36328 0.17188 1.0117 0.082031 1.0898-0.30859 1.082 0.60156 1.8398-0.67578 2.7695-0.83984 1.5547-0.39844 1.9883-1.3555 1.2891-1.1875 0.36328-1.25 0.48047-0.82031 1.1289-0.15234 1.1172-0.15234 1.8359-0.011719 1.5625 0.22656 3.3164 0.12891 1.082-0.082032 1.4141-0.56641 1.3477-0.57031 0.82422-0.61719 2.0938-0.089844 1.6016-0.011718 1.043-0.15234 1.2188-0.55859 2.1094-0.31641 1.1484-0.37109 1.2812-0.23047 1.125-0.082031 1.0195-0.29688 1.2461-0.66797 1.4531 0.074219 1.7266-0.51172 1.0352-0.41797 0.94531-0.20312 1.5352-0.13281 1.1055-0.44922 1.2891 0.21094 1.457 1.1875 0.89844 0.84766 1.3125 0.66406 1.4609 0.039062 1.3125 0.13281 1.4805 0.24219 1.1602 0.49219 1.3633 0.36719 0.96484 0.53516 1.2266 0.85938 1.0859-0.30469 1.3242-0.39062 1.1133 0.24609 1.043 0.82422 0.66016-0.23047 1.3516-0.48828 1.3516 0.55859 2.1602 1.4531 1.9414 0.21094 1.1055 0.23438 0.99219 0.62109 1 0.69531 0.85547 1.0547-0.16797 1.0547 0.41406 1.0352 0.13672 1.582 0.24609 0.98438 0.4375 1.0469-0.4375 1.082 0.11719 1.1289 0.21484 0.91406 0.40234 0.86719 0.54688 0.97266 0.25781 1.0039-0.23047 0.86328-0.54688 1.0117-0.082031 0.78516 0.67969 0.54297 0.875 0.58984 0.94531 1.043 0.29688 0.66797-0.79688 0.66797 0.82031 0.94141 0.48828 0.89453 0.50781 0.89453 0.625 0.10156 1.043-1.0195 1.0742-0.66016 0.86328 0.19531 1.0039-0.47266 1.0703 0.8125 0.72266 0.78125 0.64453 0.003907 1.125 0.93359 0.76953 1.1211 0.59375 1.1016-0.10156 0.87109 0.68359 0.82031 0.76562 0.050781 1.0508 1.0312-0.125 0.90234 0.60938 1.1992 0.40625 0.48438 1.0078 0.035156 1.2656 0.51172 0.89062 0.79297 0.75 0.94922 0.35547-0.074219 1.0391 0.66406 0.80859 0.26562 1.125 0.30859 1.1172 0.019531 1.4297 0.4375 1.3281 1.0039 1.8281-1 2.0312 0.44531 0.93359 1.2383-0.39062 1.2422-0.69531 1.6953 1.2734 0.52344 0.86328-0.61328 1.3203-0.19922 1.9922 0.35938 1.168 2.4062 2.9258 1.1133 1.0586 1.0195 0.8125 1.2539 1.1992 1.2383 1.3516 0.77344 0.91797 7.7969 7.5156 1.2695 1.3711 1.0586 1.2969 0.81641 1.0898 1.1367 1.3867 0.85547 1.0625 0.71094 0.95703 0.69531 0.88672 0.85547 0.89453 1.1406 0.29688 1.2305-0.84375 0.8125-1.0273 0.92578 0.94141 0.87891 0.71484 0.72266 0.77734 1.0781 0.19531 1.2344 0.015625 1.1016 0.17969 0.79688 0.9375 1.3711 0.26953 1.1484-0.15234 1.2773-0.21875 1.3516-0.17969 1.457 0.26172 0.97266 1.1055 0.80078 2.0273 0.39844 1 0.85156 1.4727 0.99609 0.67578 1.1211 0.10938 1.2695 0.49219 1.1836 0.96094 0.57031 1.3672 0.41797 1.2695 1.0234 1.4336 0.72266 0.79688 0.77734 1.2695 0.60547 0.80469 0.9375 0.46875-0.62109 2.25-0.21094 1.2188-0.14453 1.4648 0.074219 1.25 0.37109 2.2656 0.72656 2.3008 0.78125 1.1797 0.74609 1.0938 0.80859 2.5078 0.35156 1.5586 0.089844 1.1406-0.35156 1.1641-0.32031 1.1289-0.45703 1.3164-1.0469 1.4805-1.0078 1.4805-0.92969 1.8047-0.94141 2.2812-0.51562 1.0664-1.8945 2.6211-0.125 1.1367 0.12891 1.6836 0.37109 2.3125 0.33203 1.6562 0.15625 1.4297 0.26562 2.332 0.15234 1.1836 0.066406 1.1602 0.03125 1.6562 0.003907 1.3945-0.042969 1.0547-0.11719 3.1562-0.082031 1.0898-0.44141 2.1484-0.55469 1.5469-0.41797 0.95703-0.51172 1.1484-0.41797 0.95703-1.0039-0.36328-0.98047-0.23438-0.99219 0.22266-0.33984-0.94531-0.97266-0.28516-0.98047-0.24219-0.38672-0.93359-1.0195-1.1367-1.0938-0.75781-4.3164-1.4961-8.6445-2.6953-3.5938-1.6992-1.3984-1.2812-2.5273-2.3125-0.94141-0.86328-1.9961-2.0977-1.8906-1.2891-1.5469-0.60938-3.0312-0.92969-1.8008-0.60547-1.1328-0.38672-2.7578-0.94922-3.5625-1.4258-2.4883-0.92578-3.0938-0.74609-1.5234-0.20703-1.4453-0.42188-1.4414-1.6797-1.8672-2.707-1.793-1.9453-2.4414-2.8984-0.65234-0.76562-0.80859-0.80859-1.5195-1.5039-0.88672-1.2031-0.61328-0.98828-0.85938-0.69922-2.7852-2.2188-2.4883-2.1211-1.7891-0.97656-1.0273-0.375-1.3984-0.57031-1.2031-0.47656-0.90234-0.51172-1.082-1.0703-1.4805-1.4258-1.2383-1.1172-1.3086-0.69531-1.5352-0.19531-1.3008 0.10938-2.6367-0.32031-1.5508-0.51562-1.3086-0.67578-3.0156-0.71094-3.2109-0.72266-1.668-0.40234-1.4922-0.51172-1.1641-0.73047-0.95703-0.76953-0.93359-1.1484 1.6172-0.32812 1.6484-0.55859 1.2617 0.36328 0.77344 0.75391 1.375 0.76172 2.2969 0.83594 1.2344-0.21484 1.7891-0.46484 1.5781-0.042969 0.95312-0.82812 1.1797-0.63281h1.207l1.2031-0.55078 1.0156 0.49219 2.457 0.52344 1.1836-0.023437 1.25-0.21484 1.5234-0.26172 1.1562-0.35547 1.3633-0.42969 3.8945-1.2305 2.1953-0.17969 3.7422 0.066406 1.1914 0.019531 1.8555 0.42578 2.3047 0.52344 2.8359 0.64844 1.5117 0.050781 2.875-0.03125 1.2539-0.15625 2.0117-0.34375 1.9961-1 1.2188-1.0664 1.5859-1.1797 1.1016-0.31641 1.0859-0.16406 3.2188-0.35156 1.9219-0.54297 1.0156-0.83594 0.82812-0.99219 0.86328-1.6641 0.26953-1.5156-0.078125-1.7227-0.23438-1.0039-1.1367-1.5312-1.0039-0.82031-2.6445-1.0039-1.5859-0.23438h-1.5703l-4.6836 0.28125-2.1016-0.035156-1.8242-0.21875-2.9961-0.64062-1.8633-0.36719-2.3555-0.10938-1.9766 0.13672-1.2227 0.27734-1.2695 0.4375-2.1836 0.75391-1.6719 0.37109-1.3359 0.078125-2.6055-0.09375-1.4805-0.24219-2.7695-0.55469-2.9336-0.20703-1.6406-0.40625-1.6367-0.44531-1.4375-0.63672-1.1289-0.29688-1.1367 0.011718-2.5625 0.30859-2.4336 0.44531-0.89062 0.50391-1.0508 0.84375-0.96094 0.59766-1.7148 0.50781-1.0117 0.11328-1.1094 0.19141-1.1836 0.10156-1.4336-0.09375-1.1641-0.11719-1.2422-0.12109-1.8477-0.17969-1.4219-0.027344-1.2852-0.10938-0.99609-0.11328-1.082-0.73047-1.0234-1.1523-1.3516-0.023437-1.2578-0.13672-1.0117-0.60156-1.2266-0.12891-1.1133-0.58594-1.3242-0.76953-0.86719-0.67969-0.98828-0.86719-1.4297-1.3984-0.69922-1.0078-0.66406-1.9844 0.015625-1.25 0.28125-0.99609 0.50781-1.9375 0.058594-1.0781-0.066406-1.0977-0.31641-1.3281-0.66406-1.3438-1.0625-1.2695-1.9062-1.4141-1.1172-0.55859-2.3867-0.88281-0.89453-0.46484-0.65625-1.2344-1.0312-0.46094-1.0039-1.1484-0.29297-1.7422-0.007813-1.1172-0.40625-1.0469-0.84375-1.0117-0.43359-0.96875-0.26953-0.96484-0.007812-1.5195 0.36328-1.0469 0.96094-0.42188 0.63281-1.2227 0.027344-1.1016-0.67969-0.875-0.72656-0.73828-0.875-0.89453-0.41797-1.0078-1.0469-0.43359-1.1211-0.58203-0.5-1.082 0.16797-1.4297-0.003906-1.0977-0.37109-0.97266 0.53516-0.97656-0.003906-1.1094-0.023438-1.0391-0.66016-0.88281 0.13281-1.2656-0.37891-1.0547 0.22656-1.3828-0.35938-1 0.011719-1.3633-0.39062-1.2148-1.0742-0.36328-0.625-0.80859-0.62891-0.91016-0.54297-1.4766-0.53516-0.86719-0.5-1.1992 0.78125-2 0.58984-0.92969 1.6328-1.2617 1.5312-1.0898 2.7852-2.582 0.98438-1.3633 0.62109-1.2617 0.34375-1.9375 0.26953-2.418 0.054688-1.5586-0.46484-1.582-0.76172-1.0039-1.3359-0.74219-1.7266-0.26172-1.1211-0.14453-0.91016 0.44531-1.2578 0.64844-1.0391 0.12109-1.1406-0.12109-1.0352-0.12891-0.96484-0.58594-0.70703-0.98047-0.46484-1.0625-0.55469-1.5508-0.57812-0.98438-0.91797-0.45312-1.0703-0.10547-1.1875-0.019531-1.3594-0.089844-0.87891-0.73828-1.0234-0.15234-0.96875-0.99219-1.4219-0.26953-1.5898-0.12891-1.0625 0.007813-2.9531 0.49219-1.0195 0.21094-1.3711-0.03125-0.93359-0.50391-0.51953-1.3359-0.16406-1.125 0.22656-1.207 0.097656-1.2578-0.5-0.87891-0.75-1.1602-0.58594-1.0703-0.70312-0.84766-0.49609-1.0391-1.0156-0.77344-0.75-1.0352-0.94141-0.96875-0.67188-0.75-0.56641-1.0781-0.48828-1.0156-0.35156-0.97656-0.45312-1.1797-0.80078-0.89062-0.93359-0.42969-1.6133-0.41016-0.83594-0.56641-1.207-0.62109-1.4609-0.53906-1.1016-0.43359-0.97266-0.80078-0.76172-0.76953-1.1953 0.046875-1.3672-0.29688-1.2148-0.20312-1.1992-0.42188-1.0586-0.27734-0.98438-0.57031-0.81641-0.75-0.49219-0.92578-0.55859-1.0117-0.5-1.082 0.26562-0.99609 0.5-1.0586-0.027344-1.1641-0.76953-0.64453-0.46484-0.89062-0.86328-1.0312-0.63281-0.93359-0.097656-1.0508 0.007813-1.168-0.28906-1.1797-0.32031-1.1094-0.8125-0.75-0.22266-1.1523-0.37109-1.1836-1.3281-1.1836-1.0078 0.14844-0.83594-0.70312-0.90234-0.45703-0.98438-0.67969 0.22266-1.2383 0.12109-1.0586-0.5-1.1094-1.0664-0.52734-0.55859-0.86328-0.64844-1.082-0.77734-0.98047-0.72656-0.94141-0.76953-1.6055-0.32812-1.0312-0.70703-1.1211-1.1484-0.91797-0.73047-0.79297-0.86719-0.72266-1.0039 0.074219-1.4727 0.26172-1.1797-0.38672-0.73438 0.69141-0.91797 0.60547-1.4336-0.44141-1.0352-0.39453-0.50391-0.96875-1.0547-0.65234-1.0508-0.23438-0.33203-1.0898-0.78125-0.83984-1.1836-1.1719-1.2695-0.70703-1.3633-0.52344-1.9102-0.73047-0.97656-0.51953-1.0234-0.95312-1.0312-0.67188-1.6328-0.125h-2.0625l-1.6641-0.070313-1.1445-0.20703-1.0547-0.1875-1.0703-0.22656-1.0586-0.23047-3.3086-0.77734-0.98828 0.20703-1.3789 0.30078-1.0391-0.80078-0.54297-1.0234-0.42578-1.0742-0.65625-1.2969-0.78906-1.1406-0.050781-1.4375 0.19531-1.0273-0.34375-1.2852 0.13672-1.0898-0.93359-2.4102 2.0234-2.1094 5.6523-4.6211 2.8281-2.0742 1.6992-1.2969 4.3203-3.3867 2.1641-1.7344 1.4414-1.0547 2.6055-2.0508 1.1289-0.88672 1.1836-0.89062 2.0938-1.6406 6.625-5.2695 0.75781-0.78906 10.34-12.914 3.0547-4 2.9297-3.6758 5.9102-7.4141 3.9258-4.9453 6.7891-8.4961z" fill="#ccc" fill-rule="evenodd"/>
<path d="m95.621 0.96484 0.10938 0.26562 0.019531 1.1484-0.41016 1.8125-0.11719 1.9531 0.11328 1.0039 0.39844 1.5781 1.0859 2.5391 0.63281 1.1953 0.51172 1.0781 0.46484 1.0156 0.53125 1.0195 0.26562 1.2812 0.25781 1.0156 1.3867 0.19922 1.0977 0.007812 2.0742 0.46094 1.4102-0.035157 1.2344 0.36328 1.0078 0.41797 1.5586 0.50781 1.293 0.19141 1.1758 0.046875 1.1992 0.78516 0.83594 0.63281 1.4375 0.94531 1.5664 0.59766 1.9844-0.15625 1.0664-0.16406 1.4883-0.42188 1.5859 0.84766 0.78125 0.94531 1.1406 1.2734 0.92969 0.82031 1.2461 0.52734 1.3477 0.41797 4.7344 0.14453 1.168 0.13281 1.6953 1 1.0039 1.5 0.55859 0.97266 1.1094 0.66406 0.96875-0.40625 1.7305-0.33203 1.3984-0.65234 1.1992-0.91406 1.2812-0.55078 1.8906-0.074219 1.125-0.085937 1.125-0.30469 1.9766-0.89844 1.1562 0.085937 1.2539-0.046875 1.1055 0.21484 0.98438-0.26562 1.1719 0.48828 0.78125 0.72266 0.67578 0.85156 0.62109 1.1055 0.33594 0.97266 0.58594 0.99219 0.19141 0.99609-0.058593 1.0859 0.55859 0.94141 0.99219 1.1992 0.38281 1.0508 0.085938 1.0078 0.97656 0.67188-0.20312 0.98828-0.35156 0.96094 0.03125 1.043 0.20312 1.0391 1.0078 0.78516 0.66406 0.96094 0.54688 0.88281 0.64453 0.85156 1.0195-0.027343 0.97266 0.38672 1.0039 0.19531 1.0039 0.41016 0.72656 0.92969 0.83203 0.69922 0.92578 0.48047 0.73828 0.91406 0.070313 1.0898-0.98047 1.0156 0.25391 0.97656 0.45703 1.0703 0.61719 0.81641 1.0547 0.78906 0.39844 1.3711 0.50781 1.0156 0.38672 1.25 0.32031 1.0391 0.77734 1.7305 1.3281 0.91016 1.125 0.39453 0.73047 0.71094 0.45703-1.0625 0.91797-0.40234 1.0391 0.40625h1.125l1.1836 0.89844 0.88281 1.0898 1.2227 0.625 2.1445 2.5391 1.0156 0.83984 1.9062 1.3828 1.375 0.59766 1.332 0.45312 1.6055 0.88672 1.1211 0.11719 1.043-0.28906 0.88281 0.52344-0.34766 1.5273 0.089844 1.0508 0.42578 0.99219 0.44922 1.5195-0.070312 1.7812 0.12109 2.0117 0.42578 1.8086 0.066406 1.4102-0.28125 1.2344-0.28906 1.2266-0.050781 1.1211 0.066406 1.0508-1.1289 0.27344-1.1172-0.035156-1.1719 0.33203-1.2656 1.1641-0.24219 1.0352 0.67188 0.97266 0.36719 1.1797 0.33984 1.2148 0.88281 0.98828 0.51562 0.97266 1.0781 0.36328 0.17188 1.0117 0.082031 1.0898-0.30859 1.082 0.60156 1.8398-0.67578 2.7695-0.83984 1.5547-0.39844 1.9883-1.3555 1.2891-1.1875 0.36328-1.25 0.48047-0.82031 1.1289-0.15234 1.1172-0.15234 1.8359-0.011719 1.5625 0.22656 3.3164 0.12891 1.082-0.082032 1.4141-0.56641 1.3477-0.57031 0.82422-0.61719 2.0938-0.089844 1.6016-0.011718 1.043-0.15234 1.2188-0.55859 2.1094-0.31641 1.1484-0.37109 1.2812-0.23047 1.125-0.082031 1.0195-0.29688 1.2461-0.66797 1.4531 0.074219 1.7266-0.51172 1.0352-0.41797 0.94531-0.20312 1.5352-0.13281 1.1055-0.44922 1.2891 0.21094 1.457 1.1875 0.89844 0.84766 1.3125 0.66406 1.4609 0.039062 1.3125 0.13281 1.4805 0.24219 1.1602 0.49219 1.3633 0.36719 0.96484 0.53516 1.2266 0.85938 1.0859-0.30469 1.3242-0.39062 1.1133 0.24609 1.043 0.82422 0.66016-0.23047 1.3516-0.48828 1.3516 0.55859 2.1602 1.4531 1.9414 0.21094 1.1055 0.23438 0.99219 0.62109 1 0.69531 0.85547 1.0547-0.16797 1.0547 0.41406 1.0352 0.13672 1.582 0.24609 0.98438 0.4375 1.0469-0.4375 1.082 0.11719 1.1289 0.21484 0.91406 0.40234 0.86719 0.54688 0.97266 0.25781 1.0039-0.23047 0.86328-0.54688 1.0117-0.082031 0.78516 0.67969 0.54297 0.875 0.58984 0.94531 1.043 0.29688 0.66797-0.79688 0.66797 0.82031 0.94141 0.48828 0.89453 0.50781 0.89453 0.625 0.10156 1.043-1.0195 1.0742-0.66016 0.86328 0.19531 1.0039-0.47266 1.0703 0.8125 0.72266 0.78125 0.64453 0.003907 1.125 0.93359 0.76953 1.1211 0.59375 1.1016-0.10156 0.87109 0.68359 0.82031 0.76562 0.050781 1.0508 1.0312-0.125 0.90234 0.60938 1.1992 0.40625 0.48438 1.0078 0.035156 1.2656 0.51172 0.89062 0.79297 0.75 0.94922 0.35547-0.074219 1.0391 0.66406 0.80859 0.26562 1.125 0.30859 1.1172 0.019531 1.4297 0.4375 1.3281 1.0039 1.8281-1 2.0312 0.44531 0.93359 1.2383-0.39062 1.2422-0.69531 1.6953 1.2734 0.52344 0.86328-0.61328 1.3203-0.19922 1.9922 0.35938 1.168 2.4062 2.9258 1.1133 1.0586 1.0195 0.8125 1.2539 1.1992 1.2383 1.3516 0.77344 0.91797 7.7969 7.5156 1.2695 1.3711 1.0586 1.2969 0.81641 1.0898 1.1367 1.3867 0.85547 1.0625 0.71094 0.95703 0.69531 0.88672 0.85547 0.89453 1.1406 0.29688 1.2305-0.84375 0.8125-1.0273 0.92578 0.94141 0.87891 0.71484 0.72266 0.77734 1.0781 0.19531 1.2344 0.015625 1.1016 0.17969 0.79688 0.9375 1.3711 0.26953 1.1484-0.15234 1.2773-0.21875 1.3516-0.17969 1.457 0.26172 0.97266 1.1055 0.80078 2.0273 0.39844 1 0.85156 1.4727 0.99609 0.67578 1.1211 0.10938 1.2695 0.49219 1.1836 0.96094 0.57031 1.3672 0.41797 1.2695 1.0234 1.4336 0.72266 0.79688 0.77734 1.2695 0.60547 0.80469 0.9375 0.46875-0.62109 2.25-0.21094 1.2188-0.14453 1.4648 0.074219 1.25 0.37109 2.2656 0.72656 2.3008 0.78125 1.1797 0.74609 1.0938 0.80859 2.5078 0.35156 1.5586 0.089844 1.1406-0.35156 1.1641-0.32031 1.1289-0.45703 1.3164-1.0469 1.4805-1.0078 1.4805-0.92969 1.8047-0.94141 2.2812-0.51562 1.0664-1.8945 2.6211-0.125 1.1367 0.12891 1.6836 0.37109 2.3125 0.33203 1.6562 0.15625 1.4297 0.26562 2.332 0.15234 1.1836 0.066406 1.1602 0.03125 1.6562 0.003907 1.3945-0.042969 1.0547-0.11719 3.1562-0.082031 1.0898-0.44141 2.1484-0.55469 1.5469-0.41797 0.95703-0.51172 1.1484-0.41797 0.95703-1.0039-0.36328-0.98047-0.23438-0.99219 0.22266-0.33984-0.94531-0.97266-0.28516-0.98047-0.24219-0.38672-0.93359-1.0195-1.1367-1.0938-0.75781-4.3164-1.4961-8.6445-2.6953-3.5938-1.6992-1.3984-1.2812-2.5273-2.3125-0.94141-0.86328-1.9961-2.0977-1.8906-1.2891-1.5469-0.60938-3.0312-0.92969-1.8008-0.60547-1.1328-0.38672-2.7578-0.94922-3.5625-1.4258-2.4883-0.92578-3.0938-0.74609-1.5234-0.20703-1.4453-0.42188-1.4414-1.6797-1.8672-2.707-1.793-1.9453-2.4414-2.8984-0.65234-0.76562-0.80859-0.80859-1.5195-1.5039-0.88672-1.2031-0.61328-0.98828-0.85938-0.69922-2.7852-2.2188-2.4883-2.1211-1.7891-0.97656-1.0273-0.375-1.3984-0.57031-1.2031-0.47656-0.90234-0.51172-1.082-1.0703-1.4805-1.4258-1.2383-1.1172-1.3086-0.69531-1.5352-0.19531-1.3008 0.10938-2.6367-0.32031-1.5508-0.51562-1.3086-0.67578-3.0156-0.71094-3.2109-0.72266-1.668-0.40234-1.4922-0.51172-1.1641-0.73047-0.95703-0.76953-0.93359-1.1484 1.6172-0.32812 1.6484-0.55859 1.2617 0.36328 0.77344 0.75391 1.375 0.76172 2.2969 0.83594 1.2344-0.21484 1.7891-0.46484 1.5781-0.042969 0.95312-0.82812 1.1797-0.63281h1.207l1.2031-0.55078 1.0156 0.49219 2.457 0.52344 1.1836-0.023437 1.25-0.21484 1.5234-0.26172 1.1562-0.35547 1.3633-0.42969 3.8945-1.2305 2.1953-0.17969 3.7422 0.066406 1.1914 0.019531 1.8555 0.42578 2.3047 0.52344 2.8359 0.64844 1.5117 0.050781 2.875-0.03125 1.2539-0.15625 2.0117-0.34375 1.9961-1 1.2188-1.0664 1.5859-1.1797 1.1016-0.31641 1.0859-0.16406 3.2188-0.35156 1.9219-0.54297 1.0156-0.83594 0.82812-0.99219 0.86328-1.6641 0.26953-1.5156-0.078125-1.7227-0.23438-1.0039-1.1367-1.5312-1.0039-0.82031-2.6445-1.0039-1.5859-0.23438h-1.5703l-4.6836 0.28125-2.1016-0.035156-1.8242-0.21875-2.9961-0.64062-1.8633-0.36719-2.3555-0.10938-1.9766 0.13672-1.2227 0.27734-1.2695 0.4375-2.1836 0.75391-1.6719 0.37109-1.3359 0.078125-2.6055-0.09375-1.4805-0.24219-2.7695-0.55469-2.9336-0.20703-1.6406-0.40625-1.6367-0.44531-1.4375-0.63672-1.1289-0.29688-1.1367 0.011718-2.5625 0.30859-2.4336 0.44531-0.89062 0.50391-1.0508 0.84375-0.96094 0.59766-1.7148 0.50781-1.0117 0.11328-1.1094 0.19141-1.1836 0.10156-1.4336-0.09375-1.1641-0.11719-1.2422-0.12109-1.8477-0.17969-1.4219-0.027344-1.2852-0.10938-0.99609-0.11328-1.082-0.73047-1.0234-1.1523-1.3516-0.023437-1.2578-0.13672-1.0117-0.60156-1.2266-0.12891-1.1133-0.58594-1.3242-0.76953-0.86719-0.67969-0.98828-0.86719-1.4297-1.3984-0.69922-1.0078-0.66406-1.9844 0.015625-1.25 0.28125-0.99609 0.50781-1.9375 0.058594-1.0781-0.066406-1.0977-0.31641-1.3281-0.66406-1.3438-1.0625-1.2695-1.9062-1.4141-1.1172-0.55859-2.3867-0.88281-0.89453-0.46484-0.65625-1.2344-1.0312-0.46094-1.0039-1.1484-0.29297-1.7422-0.007813-1.1172-0.40625-1.0469-0.84375-1.0117-0.43359-0.96875-0.26953-0.96484-0.007812-1.5195 0.36328-1.0469 0.96094-0.42188 0.63281-1.2227 0.027344-1.1016-0.67969-0.875-0.72656-0.73828-0.875-0.89453-0.41797-1.0078-1.0469-0.43359-1.1211-0.58203-0.5-1.082 0.16797-1.4297-0.003906-1.0977-0.37109-0.97266 0.53516-0.97656-0.003906-1.1094-0.023438-1.0391-0.66016-0.88281 0.13281-1.2656-0.37891-1.0547 0.22656-1.3828-0.35938-1 0.011719-1.3633-0.39062-1.2148-1.0742-0.36328-0.625-0.80859-0.62891-0.91016-0.54297-1.4766-0.53516-0.86719-0.5-1.1992 0.78125-2 0.58984-0.92969 1.6328-1.2617 1.5312-1.0898 2.7852-2.582 0.98438-1.3633 0.62109-1.2617 0.34375-1.9375 0.26953-2.418 0.054688-1.5586-0.46484-1.582-0.76172-1.0039-1.3359-0.74219-1.7266-0.26172-1.1211-0.14453-0.91016 0.44531-1.2578 0.64844-1.0391 0.12109-1.1406-0.12109-1.0352-0.12891-0.96484-0.58594-0.70703-0.98047-0.46484-1.0625-0.55469-1.5508-0.57812-0.98438-0.91797-0.45312-1.0703-0.10547-1.1875-0.019531-1.3594-0.089844-0.87891-0.73828-1.0234-0.15234-0.96875-0.99219-1.4219-0.26953-1.5898-0.12891-1.0625 0.007813-2.9531 0.49219-1.0195 0.21094-1.3711-0.03125-0.93359-0.50391-0.51953-1.3359-0.16406-1.125 0.22656-1.207 0.097656-1.2578-0.5-0.87891-0.75-1.1602-0.58594-1.0703-0.70312-0.84766-0.49609-1.0391-1.0156-0.77344-0.75-1.0352-0.94141-0.96875-0.67188-0.75-0.56641-1.0781-0.48828-1.0156-0.35156-0.97656-0.45312-1.1797-0.80078-0.89062-0.93359-0.42969-1.6133-0.41016-0.83594-0.56641-1.207-0.62109-1.4609-0.53906-1.1016-0.43359-0.97266-0.80078-0.76172-0.76953-1.1953 0.046875-1.3672-0.29688-1.2148-0.20312-1.1992-0.42188-1.0586-0.27734-0.98438-0.57031-0.81641-0.75-0.49219-0.92578-0.55859-1.0117-0.5-1.082 0.26562-0.99609 0.5-1.0586-0.027344-1.1641-0.76953-0.64453-0.46484-0.89062-0.86328-1.0312-0.63281-0.93359-0.097656-1.0508 0.007813-1.168-0.28906-1.1797-0.32031-1.1094-0.8125-0.75-0.22266-1.1523-0.37109-1.1836-1.3281-1.1836-1.0078 0.14844-0.83594-0.70312-0.90234-0.45703-0.98438-0.67969 0.22266-1.2383 0.12109-1.0586-0.5-1.1094-1.0664-0.52734-0.55859-0.86328-0.64844-1.082-0.77734-0.98047-0.72656-0.94141-0.76953-1.6055-0.32812-1.0312-0.70703-1.1211-1.1484-0.91797-0.73047-0.79297-0.86719-0.72266-1.0039 0.074219-1.4727 0.26172-1.1797-0.38672-0.73438 0.69141-0.91797 0.60547-1.4336-0.44141-1.0352-0.39453-0.50391-0.96875-1.0547-0.65234-1.0508-0.23438-0.33203-1.0898-0.78125-0.83984-1.1836-1.1719-1.2695-0.70703-1.3633-0.52344-1.9102-0.73047-0.97656-0.51953-1.0234-0.95312-1.0312-0.67188-1.6328-0.125h-2.0625l-1.6641-0.070313-1.1445-0.20703-1.0547-0.1875-1.0703-0.22656-1.0586-0.23047-3.3086-0.77734-0.98828 0.20703-1.3789 0.30078-1.0391-0.80078-0.54297-1.0234-0.42578-1.0742-0.65625-1.2969-0.78906-1.1406-0.050781-1.4375 0.19531-1.0273-0.34375-1.2852 0.13672-1.0898-0.93359-2.4102 2.0234-2.1094 5.6523-4.6211 2.8281-2.0742 1.6992-1.2969 4.3203-3.3867 2.1641-1.7344 1.4414-1.0547 2.6055-2.0508 1.1289-0.88672 1.1836-0.89062 2.0938-1.6406 6.625-5.2695 0.75781-0.78906 10.34-12.914 3.0547-4 2.9297-3.6758 5.9102-7.4141 3.9258-4.9453 6.7891-8.4961 0.050781 0.14062" fill="none" stroke="#fff" stroke-linecap="round" stroke-linejoin="round" stroke-miterlimit="10" stroke-width="2"/>
<path d="m28.066 69.742 0.03125 0.32031 0.58984 1.8516 0.16406 1.2305 0.30859 1.043-0.085937 1.0078-0.125 1.2578 0.46484 1.4492 0.91016 0.96875 0.32422 1.0977 0.45312 1.125 0.73438 1.3906 1.875-0.078125 1.1797-0.25391 3.332 0.77734 1.0586 0.23047 1.0703 0.22656 1.0547 0.1875 1.1445 0.20703 1.125 0.046875 1.5508 0.023438h1.0508l1.2539 0.058593 1.4102 0.73828 1.0234 0.95312 0.97656 0.51953 1.9102 0.73047 1.3633 0.52344 1.2695 0.70703 0.71875 0.76953 0.875 0.67188 0.58984 1.4258 1.1641 0.46875 0.88281 0.50781 0.375 1.0312 0.97656 0.5625 1.3125 0.16797 1.0508-0.019531 0.61328-0.93359 1.2539 0.14062 1.0625 0.10938 0.99609-0.37891 1.6797 0.74609 0.73047 0.79297 1.1484 0.91797 0.6875 1.0625 0.32031 1.0039 0.40234 1.0547 1.1211 1.5781 0.70703 0.80859 0.59766 1.1133 0.54297 0.88281 1.0078 0.45312 0.5625 0.92578 0.15625 1.0312-0.38281 1.0664 0.60938 1.0742 0.97266 0.45703 0.73438 0.71875 1.0625-0.12891 1.1758 0.84766 0.71094 0.70703 0.17578 1.1562 0.39453 1.1953 0.81641 0.90625 0.17578 1.0469 0.21484 1.0664 0.078125 1.7344 0.39062 0.92969 0.93359 0.66016 0.25 0.97266 0.76172 0.66016 0.47266 1.2812-0.14844 1.207-0.85156 0.53906 0.34375 1.1289 0.75391 1.207 0.42969 1.0391 0.82422 0.92969 1.0664 0.69531 1.2344 0.35156 1.0078 0.36719 1.0078 0.23828 1.5234 0.29688 1.082-0.15625 0.74609 0.67969 0.96094 0.73438 1.2188 0.61719 1.3633 0.50781 1.2422 0.55078 0.83203 0.65234 1.3164 0.34375 1.1875 0.42578 0.87109 0.58203 0.44141 0.91016 0.58984 1.5195 0.56641 1.2383 0.56641 1.0781 0.67188 0.75 0.94141 0.96875 0.75 1.0352 1.0156 0.77344 0.48828 1.0312 0.71094 0.85547 0.58594 1.0703 0.75 1.1602 0.5 0.87891 0.13672 1.0117-0.41797 0.94922-0.003906 1.0117 0.375 1.3789 0.67188 0.93359 1.3594 0.24609 1.082-0.17578 2.6641-0.58984 1.832-0.015625 1.5898 0.12891 1.1953 0.17969 0.73828 0.70703 1.2344 0.47656 0.99609 0.74219 1 0.078125 1.5586 0.066407 1.1875 0.11719 0.91797 0.45312 0.57812 0.98438 0.55469 1.5508 0.46484 1.0625 0.70703 0.98047 0.96484 0.58594 1.0352 0.12891 1.1406 0.12109 1.0391-0.12109 1.0898-0.62109 0.96484-0.42578 1.1523 0.078125 1.0039 0.085937 1.6641 0.58984 1.2383 1.3516 0.46484 1.582-0.015625 1.1836-0.30859 2.793-0.125 1.1406-0.83984 2.0586-0.98438 1.3633-2.0469 2.0547-2.2539 1.6016-1.043 0.65234-0.90625 1.0156-0.73828 1.8867-0.40625 1.0586 0.8125 0.98047 0.49609 1.5117 0.71094 1.0078 0.30078 0.96484 0.96875 0.36719 0.72656 0.6875 0.26953 1.6406 0.33203 1.1172 0.011719 1.1641-0.070312 1.2578 0.39062 0.98047-0.19922 1.0234 0.70703 0.75391-0.007812 1.4414-0.17188 0.99609-0.25391 1.168 0.31641 1.1719-0.23828 1.1719 0.15234 1.1367 0.71094 0.87891 0.94531 0.37109 0.96875 0.44922 0.35938 1.1914 0.89453 0.57422 0.95312 0.96094 0.40234 1.3086-0.17188 1.0781-0.91016 0.76562-0.86328 0.91406-0.082032 1.4922 0.29688 1.3711 0.43359 0.96875 0.84375 1.0117 0.40625 1.0469 0.003906 1.0234 0.066407 1.0078 0.65234 1.7852 1.0156 0.21875 0.80859 1.1367 0.625 0.93359 2.3555 0.63672 1.8633 0.86719 1.3828 0.91797 1.0312 1.0625 0.95312 1.4062 0.58203 1.9688 0.066406 1.0977-0.058594 1.0781-0.26953 1.0312-0.48047 1.707-0.082031 1.2539 0.36328 1.2891 1.0273 1.8945 0.83594 0.90234 1.582 1.3633 0.86719 0.67969 1.3242 0.76953 1.1133 0.58594 1.2266 0.12891 1.0117 0.60156 1.2578 0.13672 1.0625-0.03125 1.3125 1.207 1.082 0.73047 0.99609 0.11328 1.2852 0.10938 1.4219 0.027344 1.8477 0.17969 1.2422 0.12109 1.1641 0.11719 1.4336 0.09375 1.1836-0.10156 1.1094-0.19141 1.0117-0.11328 1.125-0.24609 1.1836-0.60938 1.1914-0.92188 1.1172-0.67578 2.4336-0.44531 2-0.29688 1.1133-0.019531 1.7148 0.29297 1.4375 0.63672 1.6367 0.44531 1.6406 0.40625 2.0781 0.15234 3.0781 0.49609 2.0273 0.35547 2.6055 0.09375 1.0117-0.046875 1.0547-0.16016 2.4688-0.74219 1.9258-0.69141 1.2227-0.27734 1.9766-0.13672 1.375 0.042968 2.8438 0.43359 2.9961 0.64062 1.8242 0.21875 2.1016 0.035156 4.6836-0.28125h1.5703l1.5859 0.23438 1.8086 0.50781 1.8398 1.3164 0.88281 1.0469 0.48828 1.4883 0.078125 1.7227-0.26953 1.5156-0.86328 1.6641-0.82812 0.99219-1.0156 0.83594-1.0508 0.33203-4.0898 0.5625-1.0859 0.16406-1.1016 0.31641-1.3594 1.0117-1.4453 1.2344-1.1367 0.79297-2.8711 0.55078-1.2539 0.15625-2.0664 0.058594-2.3203-0.078125-2.8359-0.64844-2.3047-0.52344-1.6758-0.38281-1.3711-0.0625-3.7422-0.066406-2.1953 0.17969-3.8945 1.2305-1.3633 0.42969-1.0117 0.32031-1.625 0.28906-1.293 0.22266-1.1836 0.023437-1.8477-0.32031-1.1641-0.66797-1.1406 0.29688-1.125 0.22656-1.207 0.18359-1.2109 1.0938-1.0273 0.20312-1.7656 0.15625-1.6094 0.55859-2.8164-0.84766-1.375-0.76172-0.77344-0.75391-1.0586-0.41406-1.8516 0.60938-1.6172 0.32812-1.0156 0.20703-2.0234 0.41016h-1.168l-2.1016-1.1914-1.9648-1.3398-1.6172-1.1016-2.7812-0.47266-1.3086-0.33594-4.1445-4.1406-3.8203-3.4336-1.3867-0.71094-1.3984 0.33594-1.0195 0.64453-1.5469 1.2383-1.0859 0.74609-4.0156 0.12109h-4.4883l-3.0234 0.15234-1.1094-0.035157-3.5508-1.5508-1.043-1.6523-1.3242-1.3633-2.0938-1.2031-1.2266-0.54688-1.0039-0.22656-1.7031-0.007813-1.1719 0.20703-1.5508 0.27734-1.5234 0.13672-2.1992 0.035156-1.1719 0.18359-1.7617 0.058594-1.1094-0.097657-1.2461-0.58984-2.0352-0.54297-3.4648-1.5195-2.1719-0.62891-1.0195-0.28516-5.7812-1.3242-1.3281-0.30078-5.582-0.64844-1.4648-0.30078-1.4336-0.29688-4.2539-1.332-4.6992-2.332-4.5117-1.4141-4.293-0.92969-1.6602 0.023437-2.0039 0.10938-3.5078-0.1875-1.2852-0.50391-1.9844-1.0312-2.2461-1.3672-1.1523-0.76562-1.7188-1.2578-1.3008-0.85938-3.2188-1.4219-1.9414-0.9375-4.4219-5.3242-1.2969-0.71875-1.0234-0.78125-1.2422-1.5586-0.74219-1.3594-0.83203-0.8125-0.26562-1.2617-1.2266-0.125 0.26172-3.6914-0.019532-1.3242-0.69141-1.0898 0.17188-1.0156-0.31641-1.4688-1.0156-0.82812-0.14453-1.1484 0.58203-1.0273 0.10938-1.5703-0.37891-1.3203-0.88672-2.0781-0.65234-1.4297-1.1836-0.40625-0.77734-0.76172-0.39062-1.4062-1.0508-0.79297-0.4375-1.1523-0.15625-1.0039-0.80859-1.0586-0.79297-0.83594 0.10547-1.8242-1.3672-0.88672 0.19141-2.3984 0.87109-1.5625-1.1719-0.38672-0.94531 0.80859-0.99219 1.2617-1.8516-2.2031 1.3516-0.53516 0.60156-0.96094-0.99219-0.96484-0.53906-1.4727 1.8047-2.0781-0.30078-0.99609-2.168-1.7109-1.2344-0.83984-0.96094-0.93359 1.8516-2.5664 2.332-3.0469 0.59375-3.8906-0.28125-1.2852-0.125-1.4102-0.10156-1.1836 0.042969-1 0.51562-1.043 0.61719-0.82422 0.30078-0.98828 0.37109-1.0273-1.0273-1.2969-0.75781-2.2227 0.13672-2.0352 1.0312-2.1133 0.34766-2.043 0.88672-1.2344 1.0859-0.48828 0.99219-0.29688 0.29688-1.3633 0.035156-1.2578-0.066406-1.25 0.70312-1.4766 0.0625-1.0391 0.19531-1.3516-0.33594-0.96484-0.65625-0.91406-0.35938-1.7422-1.5391-0.35938-1.082-0.36328-1.3398-2.4727-0.73047-1.7227-0.46875-1.7031-0.33984-1.1953-0.62891-0.80078-1.082-0.20703-1.0977-0.73438-0.99219-0.44531 0.074219-1.0352 0.90625-1.0898-0.15234-1.4805-1.2344-0.88281-0.96875-0.34766-1.2617-0.93359-0.89062-1.9219-0.70312-0.92969-0.84766-0.59375-0.57031-0.82812-0.56641-0.86719-0.86719-0.82812-0.91797-0.48828-0.55469-0.97266-0.50391-0.98047-0.49219-0.97656-0.76172-0.65234-0.95312-0.36328-0.51953-0.85547-1.0156 0.20312-0.88672-0.61328-0.71875-0.82031 0.40234-1.9648-0.19922-2.707 0.16797-1.3555-0.42188-0.98828-0.91797-0.82422-1.0117-0.58984-1.082-0.53516 0.78516-1.2031 2.6328-2.0469 1.1055-0.86719 2.2422-1.7891 2.3242-1.8281 2.3125-1.7891 1.418-1.1406 4.6367-3.6797 4.9805-3.9297 2.1289-1.668 1.1953-0.91406 1.6953-1.3555z" fill="#ccc" fill-rule="evenodd"/>
<path d="m28.066 69.742 0.03125 0.32031 0.58984 1.8516 0.16406 1.2305 0.30859 1.043-0.085937 1.0078-0.125 1.2578 0.46484 1.4492 0.91016 0.96875 0.32422 1.0977 0.45312 1.125 0.73438 1.3906 1.875-0.078125 1.1797-0.25391 3.332 0.77734 1.0586 0.23047 1.0703 0.22656 1.0547 0.1875 1.1445 0.20703 1.125 0.046875 1.5508 0.023438h1.0508l1.2539 0.058593 1.4102 0.73828 1.0234 0.95312 0.97656 0.51953 1.9102 0.73047 1.3633 0.52344 1.2695 0.70703 0.71875 0.76953 0.875 0.67188 0.58984 1.4258 1.1641 0.46875 0.88281 0.50781 0.375 1.0312 0.97656 0.5625 1.3125 0.16797 1.0508-0.019531 0.61328-0.93359 1.2539 0.14062 1.0625 0.10938 0.99609-0.37891 1.6797 0.74609 0.73047 0.79297 1.1484 0.91797 0.6875 1.0625 0.32031 1.0039 0.40234 1.0547 1.1211 1.5781 0.70703 0.80859 0.59766 1.1133 0.54297 0.88281 1.0078 0.45312 0.5625 0.92578 0.15625 1.0312-0.38281 1.0664 0.60938 1.0742 0.97266 0.45703 0.73438 0.71875 1.0625-0.12891 1.1758 0.84766 0.71094 0.70703 0.17578 1.1562 0.39453 1.1953 0.81641 0.90625 0.17578 1.0469 0.21484 1.0664 0.078125 1.7344 0.39062 0.92969 0.93359 0.66016 0.25 0.97266 0.76172 0.66016 0.47266 1.2812-0.14844 1.207-0.85156 0.53906 0.34375 1.1289 0.75391 1.207 0.42969 1.0391 0.82422 0.92969 1.0664 0.69531 1.2344 0.35156 1.0078 0.36719 1.0078 0.23828 1.5234 0.29688 1.082-0.15625 0.74609 0.67969 0.96094 0.73438 1.2188 0.61719 1.3633 0.50781 1.2422 0.55078 0.83203 0.65234 1.3164 0.34375 1.1875 0.42578 0.87109 0.58203 0.44141 0.91016 0.58984 1.5195 0.56641 1.2383 0.56641 1.0781 0.67188 0.75 0.94141 0.96875 0.75 1.0352 1.0156 0.77344 0.48828 1.0312 0.71094 0.85547 0.58594 1.0703 0.75 1.1602 0.5 0.87891 0.13672 1.0117-0.41797 0.94922-0.003906 1.0117 0.375 1.3789 0.67188 0.93359 1.3594 0.24609 1.082-0.17578 2.6641-0.58984 1.832-0.015625 1.5898 0.12891 1.1953 0.17969 0.73828 0.70703 1.2344 0.47656 0.99609 0.74219 1 0.078125 1.5586 0.066407 1.1875 0.11719 0.91797 0.45312 0.57812 0.98438 0.55469 1.5508 0.46484 1.0625 0.70703 0.98047 0.96484 0.58594 1.0352 0.12891 1.1406 0.12109 1.0391-0.12109 1.0898-0.62109 0.96484-0.42578 1.1523 0.078125 1.0039 0.085937 1.6641 0.58984 1.2383 1.3516 0.46484 1.582-0.015625 1.1836-0.30859 2.793-0.125 1.1406-0.83984 2.0586-0.98438 1.3633-2.0469 2.0547-2.2539 1.6016-1.043 0.65234-0.90625 1.0156-0.73828 1.8867-0.40625 1.0586 0.8125 0.98047 0.49609 1.5117 0.71094 1.0078 0.30078 0.96484 0.96875 0.36719 0.72656 0.6875 0.26953 1.6406 0.33203 1.1172 0.011719 1.1641-0.070312 1.2578 0.39062 0.98047-0.19922 1.0234 0.70703 0.75391-0.007812 1.4414-0.17188 0.99609-0.25391 1.168 0.31641 1.1719-0.23828 1.1719 0.15234 1.1367 0.71094 0.87891 0.94531 0.37109 0.96875 0.44922 0.35938 1.1914 0.89453 0.57422 0.95312 0.96094 0.40234 1.3086-0.17188 1.0781-0.91016 0.76562-0.86328 0.91406-0.082032 1.4922 0.29688 1.3711 0.43359 0.96875 0.84375 1.0117 0.40625 1.0469 0.003906 1.0234 0.066407 1.0078 0.65234 1.7852 1.0156 0.21875 0.80859 1.1367 0.625 0.93359 2.3555 0.63672 1.8633 0.86719 1.3828 0.91797 1.0312 1.0625 0.95312 1.4062 0.58203 1.9688 0.066406 1.0977-0.058594 1.0781-0.26953 1.0312-0.48047 1.707-0.082031 1.2539 0.36328 1.2891 1.0273 1.8945 0.83594 0.90234 1.582 1.3633 0.86719 0.67969 1.3242 0.76953 1.1133 0.58594 1.2266 0.12891 1.0117 0.60156 1.2578 0.13672 1.0625-0.03125 1.3125 1.207 1.082 0.73047 0.99609 0.11328 1.2852 0.10938 1.4219 0.027344 1.8477 0.17969 1.2422 0.12109 1.1641 0.11719 1.4336 0.09375 1.1836-0.10156 1.1094-0.19141 1.0117-0.11328 1.125-0.24609 1.1836-0.60938 1.1914-0.92188 1.1172-0.67578 2.4336-0.44531 2-0.29688 1.1133-0.019531 1.7148 0.29297 1.4375 0.63672 1.6367 0.44531 1.6406 0.40625 2.0781 0.15234 3.0781 0.49609 2.0273 0.35547 2.6055 0.09375 1.0117-0.046875 1.0547-0.16016 2.4688-0.74219 1.9258-0.69141 1.2227-0.27734 1.9766-0.13672 1.375 0.042968 2.8438 0.43359 2.9961 0.64062 1.8242 0.21875 2.1016 0.035156 4.6836-0.28125h1.5703l1.5859 0.23438 1.8086 0.50781 1.8398 1.3164 0.88281 1.0469 0.48828 1.4883 0.078125 1.7227-0.26953 1.5156-0.86328 1.6641-0.82812 0.99219-1.0156 0.83594-1.0508 0.33203-4.0898 0.5625-1.0859 0.16406-1.1016 0.31641-1.3594 1.0117-1.4453 1.2344-1.1367 0.79297-2.8711 0.55078-1.2539 0.15625-2.0664 0.058594-2.3203-0.078125-2.8359-0.64844-2.3047-0.52344-1.6758-0.38281-1.3711-0.0625-3.7422-0.066406-2.1953 0.17969-3.8945 1.2305-1.3633 0.42969-1.0117 0.32031-1.625 0.28906-1.293 0.22266-1.1836 0.023437-1.8477-0.32031-1.1641-0.66797-1.1406 0.29688-1.125 0.22656-1.207 0.18359-1.2109 1.0938-1.0273 0.20312-1.7656 0.15625-1.6094 0.55859-2.8164-0.84766-1.375-0.76172-0.77344-0.75391-1.0586-0.41406-1.8516 0.60938-1.6172 0.32812-1.0156 0.20703-2.0234 0.41016h-1.168l-2.1016-1.1914-1.9648-1.3398-1.6172-1.1016-2.7812-0.47266-1.3086-0.33594-4.1445-4.1406-3.8203-3.4336-1.3867-0.71094-1.3984 0.33594-1.0195 0.64453-1.5469 1.2383-1.0859 0.74609-4.0156 0.12109h-4.4883l-3.0234 0.15234-1.1094-0.035157-3.5508-1.5508-1.043-1.6523-1.3242-1.3633-2.0938-1.2031-1.2266-0.54688-1.0039-0.22656-1.7031-0.007813-1.1719 0.20703-1.5508 0.27734-1.5234 0.13672-2.1992 0.035156-1.1719 0.18359-1.7617 0.058594-1.1094-0.097657-1.2461-0.58984-2.0352-0.54297-3.4648-1.5195-2.1719-0.62891-1.0195-0.28516-5.7812-1.3242-1.3281-0.30078-5.582-0.64844-1.4648-0.30078-1.4336-0.29688-4.2539-1.332-4.6992-2.332-4.5117-1.4141-4.293-0.92969-1.6602 0.023437-2.0039 0.10938-3.5078-0.1875-1.2852-0.50391-1.9844-1.0312-2.2461-1.3672-1.1523-0.76562-1.7188-1.2578-1.3008-0.85938-3.2188-1.4219-1.9414-0.9375-4.4219-5.3242-1.2969-0.71875-1.0234-0.78125-1.2422-1.5586-0.74219-1.3594-0.83203-0.8125-0.26562-1.2617-1.2266-0.125 0.26172-3.6914-0.019532-1.3242-0.69141-1.0898 0.17188-1.0156-0.31641-1.4688-1.0156-0.82812-0.14453-1.1484 0.58203-1.0273 0.10938-1.5703-0.37891-1.3203-0.88672-2.0781-0.65234-1.4297-1.1836-0.40625-0.77734-0.76172-0.39062-1.4062-1.0508-0.79297-0.4375-1.1523-0.15625-1.0039-0.80859-1.0586-0.79297-0.83594 0.10547-1.8242-1.3672-0.88672 0.19141-2.3984 0.87109-1.5625-1.1719-0.38672-0.94531 0.80859-0.99219 1.2617-1.8516-2.2031 1.3516-0.53516 0.60156-0.96094-0.99219-0.96484-0.53906-1.4727 1.8047-2.0781-0.30078-0.99609-2.168-1.7109-1.2344-0.83984-0.96094-0.93359 1.8516-2.5664 2.332-3.0469 0.59375-3.8906-0.28125-1.2852-0.125-1.4102-0.10156-1.1836 0.042969-1 0.51562-1.043 0.61719-0.82422 0.30078-0.98828 0.37109-1.0273-1.0273-1.2969-0.75781-2.2227 0.13672-2.0352 1.0312-2.1133 0.34766-2.043 0.88672-1.2344 1.0859-0.48828 0.99219-0.29688 0.29688-1.3633 0.035156-1.2578-0.066406-1.25 0.70312-1.4766 0.0625-1.0391 0.19531-1.3516-0.33594-0.96484-0.65625-0.91406-0.35938-1.7422-1.5391-0.35938-1.082-0.36328-1.3398-2.4727-0.73047-1.7227-0.46875-1.7031-0.33984-1.1953-0.62891-0.80078-1.082-0.20703-1.0977-0.73438-0.99219-0.44531 0.074219-1.0352 0.90625-1.0898-0.15234-1.4805-1.2344-0.88281-0.96875-0.34766-1.2617-0.93359-0.89062-1.9219-0.70312-0.92969-0.84766-0.59375-0.57031-0.82812-0.56641-0.86719-0.86719-0.82812-0.91797-0.48828-0.55469-0.97266-0.50391-0.98047-0.49219-0.97656-0.76172-0.65234-0.95312-0.36328-0.51953-0.85547-1.0156 0.20312-0.88672-0.61328-0.71875-0.82031 0.40234-1.9648-0.19922-2.707 0.16797-1.3555-0.42188-0.98828-0.91797-0.82422-1.0117-0.58984-1.082-0.53516 0.78516-1.2031 2.6328-2.0469 1.1055-0.86719 2.2422-1.7891 2.3242-1.8281 2.3125-1.7891 1.418-1.1406 4.6367-3.6797 4.9805-3.9297 2.1289-1.668 1.1953-0.91406 1.6953-1.3555 0.011718 0.19531" fill="none" stroke="#fff" stroke-linecap="round" stroke-linejoin="round" stroke-miterlimit="10" stroke-width="2"/>
<path d="m45.906 225.38 1.9414 0.9375 2.3633 1.0273 1.9961 1.1367 1.6094 1.1797 1.4219 0.96094 1.4258 0.94141 2.8047 1.457 1.2852 0.50391 2.582 0.23828 2.9297-0.16016 1.3828-0.042968 4.5703 0.94922 4.5117 1.4141 4.6992 2.332 4.2539 1.332 1.4336 0.29688 1.4648 0.30078 5.4922 0.625 1.418 0.32422 5.5039 1.2617 1.2969 0.34766 2 0.55469 3.6367 1.5938 1.3281 0.30469 1.1055 0.44141 1.957 0.48438 1.7617-0.058594 1.1719-0.18359 2.0742-0.023437 1.6484-0.14844 1.5508-0.27734 1.1719-0.20703 1.7031 0.007813 1.0039 0.22656 1.2266 0.54688 2.0938 1.2031 0.98047 0.79688 0.73828 1.8828 3.457 1.5625 1.8516 0.35938 2.6719-0.15234h4.8398l3.6211 0.003906 1.4805-0.87109 1.5469-1.2383 1.0195-0.64453 1.0234-0.34766 1.2266 0.375 4.3555 3.7812 3.4141 3.7695 2.0391 0.70703 1.8086 0.30859 2.5898 1.2656 1.9648 1.3398 1.3984 0.95703 1.6367 0.28516 2.0156-0.41016 1.2578-0.25781 0.93359 1.1484 0.95703 0.76953 1.1641 0.73047 1.0469 0.42969 1.4375 0.27734 3.8867 0.92969 2.2109 0.39844 2.1133 0.98828 1.5508 0.51562 1.9922 0.34375 1.9453-0.13281 1.5352 0.19531 0.96484 0.44922 1.125 0.91016 1.918 1.8594 1.1016 1.0898-2.3047 2.8789-2.8867 4.0195-0.34766 2.1094 1.6602 2.2617 0.97266 0.82812 1.8047 9.8633 1.2461 1.8867 7.3203 11.098 0.85938 1.3047 0.75781 1.8008 0.31641 1.2656 0.33984 2.0664 0.14453 1.75 0.65625 3.0586 1.1523 3.9609 1.4727 5.0781 0.48828 1.6797 1.1797 4.2344-0.19922 1.418-0.25391 1.832 0.1875 1.6953 0.49609 1.0547 0.91016 0.75781 2.0078 1.2617 3.2266 1.2305 1.875 0.12891 1.7773 0.25781 2.0664 1.1641 0.87109 1.3828 0.082031 2.4844-0.015625 3.6055-0.27344 3.1836-0.32031 2.8789-0.27344 3.5273-0.26172 1.4023-0.34375 1.8047-0.74609 2.0508-0.57422 0.83984-1.2188 1.168-1.1094 0.75391-3.2266 2.1914-1.6836 0.96094-1.1328 0.64844-0.91406 0.76172-1.7812 1.6836-1.0977 0.85547-1.2852 0.65625-1.1133 0.3125-1.1289 0.0625-1.3477 0.097657h-2.1445l-1.707 0.46094-1.1367 0.61719-0.94531 0.55859-1.0781 0.74609-0.73047 0.70312-0.59375 0.95703-1.5977 1.8711-2.125 1.5117-2.7617 0.70312-4.2891-0.29297-1.6211 0.48438-0.86719 0.57031-1.8633-0.58594-1.4258-0.21094-1.543-0.13281-1.0273 0.1875-1.168 0.50391-0.98438 0.48438-0.92578 1.2344-0.5 1.4609-1 0.76172-6.4648 0.35156-6.5781-0.41016-2.8789 0.058594-2.5273 0.46875-2.5234 1.4062-2.4258 2.4922-2.3789 2.4531-1.3477 1.0938-0.33984 0.94141-0.40234 0.94531-0.4375 1.0156-0.36328 0.97656-0.15625 1.1328-0.23828 1.1133-0.3125 0.95312-0.32031 1.0508-0.16797 1.1523-0.03125 1.0078-0.070313 1.1523-0.3125 1.1016-0.074219 1.0391-0.16797 1.1406-0.50781 0.89453-0.64062-0.92578-0.44141-0.98828-0.48828-1.1602-0.51172-1.1562-0.62891-0.99219-0.5-0.87891-0.73438-0.92188-0.73047-0.81641-0.875-0.85156-1-0.72656-1.1133-0.65625-1.0156-0.50391-1.043-0.48828-1.043-0.64062-0.98438-0.50391-1.1562-0.50391-1.1953-0.51562-1.0312-0.37891-1-0.34766-1.1641-0.33984-1.3398-0.18359-1.1641-0.10547-1.207 0.011719-1.1445 0.12109-1.2383 0.089843-1.2227-0.078125-1.2969-0.37891-0.98047-0.66406-0.58594-0.82031-1.1172-0.21094-0.98047 0.375-0.91797 0.44141-1.2695 0.074219-1.3555 0.058593-1.1172-0.09375-1.3125-0.015625-1.1328-0.65234-0.69531-0.74219-0.51172-0.87891-0.43359-1.2695-0.15234-1.0312 0.10938-1.1797 0.42188-0.96875 0.78516-1.0859 0.73828-0.94531 0.57422-0.875 0.42969-1.2227-1.0312-0.73047-0.96484-0.41016-1.2656-0.60547-1.1133-0.62109-1.0273-0.45703-1.3555-0.45312-1.1172-0.63672 0.070312-1.2422 0.58203-1.0039-0.25391-1.1758-0.29688-1.2344-0.26562-1.0156-0.17969-0.99219-0.42578-0.98438-0.54688-0.92969-0.52734-0.94531-1.0781-0.75-1.0117-0.53516-1.0625-0.47266-1.0508-0.44922-1.168-0.4375-0.84375-0.57031-1.1211-0.75-0.97656-0.48438-1.1328-0.40234-1.3516-0.33984-1.1328-0.33984-0.91797-0.72656-0.52734-1.1523-0.49219-1.1133-0.23047-1.1016-0.058593-1.0312 0.14453-0.99219 0.35156-1.0781 0.34766-1.0586-0.14844-1.1484-0.30078-1.0469-0.25781-1.0742-0.55469-1.043-1.4375-0.23438-1.2031-0.19922-1.1523-0.3125-0.75781-0.91406 0.33984-1.0273 0.36719-1.0156 0.33594-0.95703 0.57812-1.0977 0.23828-1.1133 0.12891-1.125-0.082031-1.0156 0.085937-1.1133-0.16797-1.25-0.23828-1.1992 0.25391-1.0547 0.6875-0.77734 0.3125-1.1562 0.36328-1.0391 0.36719-1.0273-0.37891-1.1562-0.16406-1.1406-0.16797-1.1406-1.0391-0.80469-0.99219-0.74609-0.88281-0.63672-0.95312-0.37891-0.98438-0.39844-0.97656-0.51562-0.95703-0.63672-1.082-0.56641-1.1211-0.49219-0.97656-0.94531-0.84766-0.70703-1.1602 0.070313-1.1211-0.12891-0.77734-0.69141-1.0117-0.74609-1.0664-0.79688-0.84766-0.96484-0.75781-0.87109-0.6875-0.91016-0.73828-0.76172-0.86719-0.80078-0.32422-1.0195-0.23438-1.1406 0.10938-1.1445 0.58203-0.89062 0.90234-0.6875 0.74219-0.6875 0.47266-1.0586-0.10938-1.1094-0.19531-1.0039-0.28516-1.0547-0.34766-1.0508-0.38672-1.1523-0.58203-1.043-1.043-0.78516-0.86719-0.70312-0.80469-0.61719-1.0234-0.71875-0.97656-0.78516-0.8125-0.61328-0.48047-0.94922-0.023438-1.2266 0.21094-1.2188 0.27344-1.2539 0.24219-1.0391 0.28125-1.0312 0.20703-1.0859-0.12891-1.0547-0.16406-1.0742-0.050781-1.1055-0.16797-1.1055-0.82422-0.66797-0.83203-0.83594-0.14062-1.2344 0.23438-1.2188-0.09375-1.0742-0.85938-0.70312-1.0508-0.38281-1.1914-0.074219-1.0469-0.12891-1.1016-0.45703-0.70703-0.89062-0.50391-1.0156-0.53906-0.89062-0.46875-0.92578-0.26953-1.0898 0.070313-1 0.11328-1.0156-0.089844-1.0508-0.25391-1.0469-0.64453-0.92969-1.0117-0.5-1.0234-0.53125-0.89844-0.66797-0.83984-0.73438-0.88281-0.59766-1.0586-0.44141-1.0078-0.39453-0.6875-0.74219 0.21875-1.0469 0.12891-1.1797-0.26953-1.0352-0.64062-0.94141-0.23438-1.0078 0.046875-1.0195 0.14844-1.1406 0.12109-1.0352-0.18359-1.0703-0.17969-1.0625-0.26953-1.1094-0.39062-0.94141-0.76953-0.75781-0.88672-0.73438-0.77734-0.65625-0.79297-0.82812-0.53906-0.94531-0.25391-0.98828-0.035156-1.1875-0.023438-1.0352-0.070312-1.1094 0.10938-1.0234-0.70312-0.74609-0.84375 0.60547-0.55078 0.87109-0.82422 0.78906-0.98438-0.33594-0.10547-1.1172 0.50781-1.0312 0.38672-0.92188-0.44531-0.91406-0.75-0.72266-0.054688-1.0547-0.34766-1.0547-0.51172-0.89844-1.1992-0.050781-1.0352 0.25781-1.1172-0.51953-0.79688-0.83984 0.44922-1.0117 1.0742-0.48047 1.0703-0.60547 0.90625-0.56641 0.89062-0.53125 0.85547-0.72656 0.98828-0.32422 0.82031-0.59375 1.0508-0.54297 0.86719-0.51953 1.0703-0.32422 1.0469-0.33984-0.10156-1.8633-0.19531-1.6953-0.74219-0.98438-0.69141-1.207-0.77344-1.3516-0.73047-0.82031 1.2344-0.92578 1.9375-0.30859 1.6953-1.1914 1.0195-1.3047 0.98438-1.9414z" fill="#ccc" fill-rule="evenodd"/>
<path d="m45.906 225.38 1.9414 0.9375 2.3633 1.0273 1.9961 1.1367 1.6094 1.1797 1.4219 0.96094 1.4258 0.94141 2.8047 1.457 1.2852 0.50391 2.582 0.23828 2.9297-0.16016 1.3828-0.042968 4.5703 0.94922 4.5117 1.4141 4.6992 2.332 4.2539 1.332 1.4336 0.29688 1.4648 0.30078 5.4922 0.625 1.418 0.32422 5.5039 1.2617 1.2969 0.34766 2 0.55469 3.6367 1.5938 1.3281 0.30469 1.1055 0.44141 1.957 0.48438 1.7617-0.058594 1.1719-0.18359 2.0742-0.023437 1.6484-0.14844 1.5508-0.27734 1.1719-0.20703 1.7031 0.007813 1.0039 0.22656 1.2266 0.54688 2.0938 1.2031 0.98047 0.79688 0.73828 1.8828 3.457 1.5625 1.8516 0.35938 2.6719-0.15234h4.8398l3.6211 0.003906 1.4805-0.87109 1.5469-1.2383 1.0195-0.64453 1.0234-0.34766 1.2266 0.375 4.3555 3.7812 3.4141 3.7695 2.0391 0.70703 1.8086 0.30859 2.5898 1.2656 1.9648 1.3398 1.3984 0.95703 1.6367 0.28516 2.0156-0.41016 1.2578-0.25781 0.93359 1.1484 0.95703 0.76953 1.1641 0.73047 1.0469 0.42969 1.4375 0.27734 3.8867 0.92969 2.2109 0.39844 2.1133 0.98828 1.5508 0.51562 1.9922 0.34375 1.9453-0.13281 1.5352 0.19531 0.96484 0.44922 1.125 0.91016 1.918 1.8594 1.1016 1.0898-2.3047 2.8789-2.8867 4.0195-0.34766 2.1094 1.6602 2.2617 0.97266 0.82812 1.8047 9.8633 1.2461 1.8867 7.3203 11.098 0.85938 1.3047 0.75781 1.8008 0.31641 1.2656 0.33984 2.0664 0.14453 1.75 0.65625 3.0586 1.1523 3.9609 1.4727 5.0781 0.48828 1.6797 1.1797 4.2344-0.19922 1.418-0.25391 1.832 0.1875 1.6953 0.49609 1.0547 0.91016 0.75781 2.0078 1.2617 3.2266 1.2305 1.875 0.12891 1.7773 0.25781 2.0664 1.1641 0.87109 1.3828 0.082031 2.4844-0.015625 3.6055-0.27344 3.1836-0.32031 2.8789-0.27344 3.5273-0.26172 1.4023-0.34375 1.8047-0.74609 2.0508-0.57422 0.83984-1.2188 1.168-1.1094 0.75391-3.2266 2.1914-1.6836 0.96094-1.1328 0.64844-0.91406 0.76172-1.7812 1.6836-1.0977 0.85547-1.2852 0.65625-1.1133 0.3125-1.1289 0.0625-1.3477 0.097657h-2.1445l-1.707 0.46094-1.1367 0.61719-0.94531 0.55859-1.0781 0.74609-0.73047 0.70312-0.59375 0.95703-1.5977 1.8711-2.125 1.5117-2.7617 0.70312-4.2891-0.29297-1.6211 0.48438-0.86719 0.57031-1.8633-0.58594-1.4258-0.21094-1.543-0.13281-1.0273 0.1875-1.168 0.50391-0.98438 0.48438-0.92578 1.2344-0.5 1.4609-1 0.76172-6.4648 0.35156-6.5781-0.41016-2.8789 0.058594-2.5273 0.46875-2.5234 1.4062-2.4258 2.4922-2.3789 2.4531-1.3477 1.0938-0.33984 0.94141-0.40234 0.94531-0.4375 1.0156-0.36328 0.97656-0.15625 1.1328-0.23828 1.1133-0.3125 0.95312-0.32031 1.0508-0.16797 1.1523-0.03125 1.0078-0.070313 1.1523-0.3125 1.1016-0.074219 1.0391-0.16797 1.1406-0.50781 0.89453-0.64062-0.92578-0.44141-0.98828-0.48828-1.1602-0.51172-1.1562-0.62891-0.99219-0.5-0.87891-0.73438-0.92188-0.73047-0.81641-0.875-0.85156-1-0.72656-1.1133-0.65625-1.0156-0.50391-1.043-0.48828-1.043-0.64062-0.98438-0.50391-1.1562-0.50391-1.1953-0.51562-1.0312-0.37891-1-0.34766-1.1641-0.33984-1.3398-0.18359-1.1641-0.10547-1.207 0.011719-1.1445 0.12109-1.2383 0.089843-1.2227-0.078125-1.2969-0.37891-0.98047-0.66406-0.58594-0.82031-1.1172-0.21094-0.98047 0.375-0.91797 0.44141-1.2695 0.074219-1.3555 0.058593-1.1172-0.09375-1.3125-0.015625-1.1328-0.65234-0.69531-0.74219-0.51172-0.87891-0.43359-1.2695-0.15234-1.0312 0.10938-1.1797 0.42188-0.96875 0.78516-1.0859 0.73828-0.94531 0.57422-0.875 0.42969-1.2227-1.0312-0.73047-0.96484-0.41016-1.2656-0.60547-1.1133-0.62109-1.0273-0.45703-1.3555-0.45312-1.1172-0.63672 0.070312-1.2422 0.58203-1.0039-0.25391-1.1758-0.29688-1.2344-0.26562-1.0156-0.17969-0.99219-0.42578-0.98438-0.54688-0.92969-0.52734-0.94531-1.0781-0.75-1.0117-0.53516-1.0625-0.47266-1.0508-0.44922-1.168-0.4375-0.84375-0.57031-1.1211-0.75-0.97656-0.48438-1.1328-0.40234-1.3516-0.33984-1.1328-0.33984-0.91797-0.72656-0.52734-1.1523-0.49219-1.1133-0.23047-1.1016-0.058593-1.0312 0.14453-0.99219 0.35156-1.0781 0.34766-1.0586-0.14844-1.1484-0.30078-1.0469-0.25781-1.0742-0.55469-1.043-1.4375-0.23438-1.2031-0.19922-1.1523-0.3125-0.75781-0.91406 0.33984-1.0273 0.36719-1.0156 0.33594-0.95703 0.57812-1.0977 0.23828-1.1133 0.12891-1.125-0.082031-1.0156 0.085937-1.1133-0.16797-1.25-0.23828-1.1992 0.25391-1.0547 0.6875-0.77734 0.3125-1.1562 0.36328-1.0391 0.36719-1.0273-0.37891-1.1562-0.16406-1.1406-0.16797-1.1406-1.0391-0.80469-0.99219-0.74609-0.88281-0.63672-0.95312-0.37891-0.98438-0.39844-0.97656-0.51562-0.95703-0.63672-1.082-0.56641-1.1211-0.49219-0.97656-0.94531-0.84766-0.70703-1.1602 0.070313-1.1211-0.12891-0.77734-0.69141-1.0117-0.74609-1.0664-0.79688-0.84766-0.96484-0.75781-0.87109-0.6875-0.91016-0.73828-0.76172-0.86719-0.80078-0.32422-1.0195-0.23438-1.1406 0.10938-1.1445 0.58203-0.89062 0.90234-0.6875 0.74219-0.6875 0.47266-1.0586-0.10938-1.1094-0.19531-1.0039-0.28516-1.0547-0.34766-1.0508-0.38672-1.1523-0.58203-1.043-1.043-0.78516-0.86719-0.70312-0.80469-0.61719-1.0234-0.71875-0.97656-0.78516-0.8125-0.61328-0.48047-0.94922-0.023438-1.2266 0.21094-1.2188 0.27344-1.2539 0.24219-1.0391 0.28125-1.0312 0.20703-1.0859-0.12891-1.0547-0.16406-1.0742-0.050781-1.1055-0.16797-1.1055-0.82422-0.66797-0.83203-0.83594-0.14062-1.2344 0.23438-1.2188-0.09375-1.0742-0.85938-0.70312-1.0508-0.38281-1.1914-0.074219-1.0469-0.12891-1.1016-0.45703-0.70703-0.89062-0.50391-1.0156-0.53906-0.89062-0.46875-0.92578-0.26953-1.0898 0.070313-1 0.11328-1.0156-0.089844-1.0508-0.25391-1.0469-0.64453-0.92969-1.0117-0.5-1.0234-0.53125-0.89844-0.66797-0.83984-0.73438-0.88281-0.59766-1.0586-0.44141-1.0078-0.39453-0.6875-0.74219 0.21875-1.0469 0.12891-1.1797-0.26953-1.0352-0.64062-0.94141-0.23438-1.0078 0.046875-1.0195 0.14844-1.1406 0.12109-1.0352-0.18359-1.0703-0.17969-1.0625-0.26953-1.1094-0.39062-0.94141-0.76953-0.75781-0.88672-0.73438-0.77734-0.65625-0.79297-0.82812-0.53906-0.94531-0.25391-0.98828-0.035156-1.1875-0.023438-1.0352-0.070312-1.1094 0.10938-1.0234-0.70312-0.74609-0.84375 0.60547-0.55078 0.87109-0.82422 0.78906-0.98438-0.33594-0.10547-1.1172 0.50781-1.0312 0.38672-0.92188-0.44531-0.91406-0.75-0.72266-0.054688-1.0547-0.34766-1.0547-0.51172-0.89844-1.1992-0.050781-1.0352 0.25781-1.1172-0.51953-0.79688-0.83984 0.44922-1.0117 1.0742-0.48047 1.0703-0.60547 0.90625-0.56641 0.89062-0.53125 0.85547-0.72656 0.98828-0.32422 0.82031-0.59375 1.0508-0.54297 0.86719-0.51953 1.0703-0.32422 1.0469-0.33984-0.10156-1.8633-0.19531-1.6953-0.74219-0.98438-0.69141-1.207-0.77344-1.3516-0.73047-0.82031 1.2344-0.92578 1.9375-0.30859 1.6953-1.1914 1.0195-1.3047 0.98438-1.9414 4.4219 5.3242" fill="none" stroke="#fff" stroke-linecap="round" stroke-linejoin="round" stroke-miterlimit="10" stroke-width="2"/>
<path d="m95.621 0.96484 0.10938 0.26562 0.019531 1.1484-0.41016 1.8125-0.11719 1.9531 0.11328 1.0039 0.39844 1.5781 1.0859 2.5391 0.63281 1.1953 0.51172 1.0781 0.46484 1.0156 0.53125 1.0195 0.26562 1.2812 0.25781 1.0156 1.3867 0.19922 1.0977 0.007812 2.0742 0.46094 1.4102-0.035157 1.2344 0.36328 1.0078 0.41797 1.5586 0.50781 1.293 0.19141 1.1758 0.046875 1.1992 0.78516 0.83594 0.63281 1.4375 0.94531 1.5664 0.59766 1.9844-0.15625 1.0664-0.16406 1.4883-0.42188 1.5859 0.84766 0.78125 0.94531 1.1406 1.2734 0.92969 0.82031 1.2461 0.52734 1.3477 0.41797 4.7344 0.14453 1.168 0.13281 1.6953 1 1.0039 1.5 0.55859 0.97266 1.1094 0.66406 0.96875-0.40625 1.7305-0.33203 1.3984-0.65234 1.1992-0.91406 1.2812-0.55078 1.8906-0.074219 1.125-0.085937 1.125-0.30469 1.9766-0.89844 1.1562 0.085937 1.2539-0.046875 1.1055 0.21484 0.98438-0.26562 1.1719 0.48828 0.78125 0.72266 0.67578 0.85156 0.62109 1.1055 0.33594 0.97266 0.58594 0.99219 0.19141 0.99609-0.058593 1.0859 0.55859 0.94141 0.99219 1.1992 0.38281 1.0508 0.085938 1.0078 0.97656 0.67188-0.20312 0.98828-0.35156 0.96094 0.03125 1.043 0.20312 1.0391 1.0078 0.78516 0.66406 0.96094 0.54688 0.88281 0.64453 0.85156 1.0195-0.027343 0.97266 0.38672 1.0039 0.19531 1.0039 0.41016 0.72656 0.92969 0.83203 0.69922 0.92578 0.48047 0.73828 0.91406 0.070313 1.0898-0.98047 1.0156 0.25391 0.97656 0.45703 1.0703 0.61719 0.81641 1.0547 0.78906 0.39844 1.3711 0.50781 1.0156 0.38672 1.25 0.32031 1.0391 0.77734 1.7305 1.3281 0.91016 1.125 0.39453 0.73047 0.71094 0.45703-1.0625 0.91797-0.40234 1.0391 0.40625h1.125l1.1836 0.89844 0.88281 1.0898 1.2227 0.625 2.1445 2.5391 1.0156 0.83984 1.9062 1.3828 1.375 0.59766 1.332 0.45312 1.6055 0.88672 1.1211 0.11719 1.043-0.28906 0.88281 0.52344-0.34766 1.5273 0.089844 1.0508 0.42578 0.99219 0.44922 1.5195-0.070312 1.7812 0.12109 2.0117 0.42578 1.8086 0.066406 1.4102-0.28125 1.2344-0.28906 1.2266-0.050781 1.1211 0.066406 1.0508-1.1289 0.27344-1.1172-0.035156-1.1719 0.33203-1.2656 1.1641-0.24219 1.0352 0.67188 0.97266 0.36719 1.1797 0.33984 1.2148 0.88281 0.98828 0.51562 0.97266 1.0781 0.36328 0.17188 1.0117 0.082031 1.0898-0.30859 1.082 0.60156 1.8398-0.67578 2.7695-0.83984 1.5547-0.39844 1.9883-1.3555 1.2891-1.1875 0.36328-1.25 0.48047-0.82031 1.1289-0.15234 1.1172-0.15234 1.8359-0.011719 1.5625 0.22656 3.3164 0.12891 1.082-0.082032 1.4141-0.56641 1.3477-0.57031 0.82422-0.61719 2.0938-0.089844 1.6016-0.011718 1.043-0.15234 1.2188-0.55859 2.1094-0.31641 1.1484-0.37109 1.2812-0.23047 1.125-0.082031 1.0195-0.29688 1.2461-0.66797 1.4531 0.074219 1.7266-0.51172 1.0352-0.41797 0.94531-0.20312 1.5352-0.13281 1.1055-0.44922 1.2891 0.21094 1.457 1.1875 0.89844 0.84766 1.3125 0.66406 1.4609 0.039062 1.3125 0.13281 1.4805 0.24219 1.1602 0.49219 1.3633 0.36719 0.96484 0.53516 1.2266 0.85938 1.0859-0.30469 1.3242-0.39062 1.1133 0.24609 1.043 0.82422 0.66016-0.23047 1.3516-0.48828 1.3516 0.55859 2.1602 1.4531 1.9414 0.21094 1.1055 0.23438 0.99219 0.62109 1 0.69531 0.85547 1.0547-0.16797 1.0547 0.41406 1.0352 0.13672 1.582 0.24609 0.98438 0.4375 1.0469-0.4375 1.082 0.11719 1.1289 0.21484 0.91406 0.40234 0.86719 0.54688 0.97266 0.25781 1.0039-0.23047 0.86328-0.54688 1.0117-0.082031 0.78516 0.67969 0.54297 0.875 0.58984 0.94531 1.043 0.29688 0.66797-0.79688 0.66797 0.82031 0.94141 0.48828 0.89453 0.50781 0.89453 0.625 0.10156 1.043-1.0195 1.0742-0.66016 0.86328 0.19531 1.0039-0.47266 1.0703 0.8125 0.72266 0.78125 0.64453 0.003907 1.125 0.93359 0.76953 1.1211 0.59375 1.1016-0.10156 0.87109 0.68359 0.82031 0.76562 0.050781 1.0508 1.0312-0.125 0.90234 0.60938 1.1992 0.40625 0.48438 1.0078 0.035156 1.2656 0.51172 0.89062 0.79297 0.75 0.94922 0.35547-0.074219 1.0391 0.66406 0.80859 0.26562 1.125 0.30859 1.1172 0.019531 1.4297 0.4375 1.3281 1.0039 1.8281-1 2.0312 0.44531 0.93359 1.2383-0.39062 1.2422-0.69531 1.6953 1.2734 0.52344 0.86328-0.61328 1.3203-0.19922 1.9922 0.35938 1.168 2.4062 2.9258 1.1133 1.0586 1.0195 0.8125 1.2539 1.1992 1.2383 1.3516 0.77344 0.91797 7.7969 7.5156 1.2695 1.3711 1.0586 1.2969 0.81641 1.0898 1.1367 1.3867 0.85547 1.0625 0.71094 0.95703 0.69531 0.88672 0.85547 0.89453 1.1406 0.29688 1.2305-0.84375 0.8125-1.0273 0.92578 0.94141 0.87891 0.71484 0.72266 0.77734 1.0781 0.19531 1.2344 0.015625 1.1016 0.17969 0.79688 0.9375 1.3711 0.26953 1.1484-0.15234 1.2773-0.21875 1.3516-0.17969 1.457 0.26172 0.97266 1.1055 0.80078 2.0273 0.39844 1 0.85156 1.4727 0.99609 0.67578 1.1211 0.10938 1.2695 0.49219 1.1836 0.96094 0.57031 1.3672 0.41797 1.2695 1.0234 1.4336 0.72266 0.79688 0.77734 1.2695 0.60547 0.80469 0.9375 0.46875-0.62109 2.25-0.21094 1.2188-0.14453 1.4648 0.074219 1.25 0.37109 2.2656 0.72656 2.3008 0.78125 1.1797 0.74609 1.0938 0.80859 2.5078 0.35156 1.5586 0.089844 1.1406-0.35156 1.1641-0.32031 1.1289-0.45703 1.3164-1.0469 1.4805-1.0078 1.4805-0.92969 1.8047-0.94141 2.2812-0.51562 1.0664-1.8945 2.6211-0.125 1.1367 0.12891 1.6836 0.37109 2.3125 0.33203 1.6562 0.15625 1.4297 0.26562 2.332 0.15234 1.1836 0.066406 1.1602 0.03125 1.6562 0.003907 1.3945-0.042969 1.0547-0.11719 3.1562-0.082031 1.0898-0.44141 2.1484-0.55469 1.5469-0.41797 0.95703-0.51172 1.1484-0.41797 0.95703-1.0039-0.36328-0.98047-0.23438-0.99219 0.22266-0.33984-0.94531-0.97266-0.28516-0.98047-0.24219-0.38672-0.93359-1.0195-1.1367-1.0938-0.75781-4.3164-1.4961-8.6445-2.6953-3.5938-1.6992-1.3984-1.2812-2.5273-2.3125-0.94141-0.86328-1.9961-2.0977-1.8906-1.2891-1.5469-0.60938-3.0312-0.92969-1.8008-0.60547-1.1328-0.38672-2.7578-0.94922-3.5625-1.4258-2.4883-0.92578-3.0938-0.74609-1.5234-0.20703-1.4453-0.42188-1.4414-1.6797-1.8672-2.707-1.793-1.9453-2.4414-2.8984-0.65234-0.76562-0.80859-0.80859-1.5195-1.5039-0.88672-1.2031-0.61328-0.98828-0.85938-0.69922-2.7852-2.2188-2.4883-2.1211-1.7891-0.97656-1.0273-0.375-1.3984-0.57031-1.2031-0.47656-0.90234-0.51172-1.082-1.0703-1.4805-1.4258-1.2383-1.1172-1.3086-0.69531-1.5352-0.19531-1.3008 0.10938-2.6367-0.32031-1.5508-0.51562-1.3086-0.67578-3.0156-0.71094-3.2109-0.72266-1.668-0.40234-1.4922-0.51172-1.1641-0.73047-0.95703-0.76953-0.93359-1.1484 1.6172-0.32812 1.6484-0.55859 1.2617 0.36328 0.77344 0.75391 1.375 0.76172 2.2969 0.83594 1.2344-0.21484 1.7891-0.46484 1.5781-0.042969 0.95312-0.82812 1.1797-0.63281h1.207l1.2031-0.55078 1.0156 0.49219 2.457 0.52344 1.1836-0.023437 1.25-0.21484 1.5234-0.26172 1.1562-0.35547 1.3633-0.42969 3.8945-1.2305 2.1953-0.17969 3.7422 0.066406 1.1914 0.019531 1.8555 0.42578 2.3047 0.52344 2.8359 0.64844 1.5117 0.050781 2.875-0.03125 1.2539-0.15625 2.0117-0.34375 1.9961-1 1.2188-1.0664 1.5859-1.1797 1.1016-0.31641 1.0859-0.16406 3.2188-0.35156 1.9219-0.54297 1.0156-0.83594 0.82812-0.99219 0.86328-1.6641 0.26953-1.5156-0.078125-1.7227-0.23438-1.0039-1.1367-1.5312-1.0039-0.82031-2.6445-1.0039-1.5859-0.23438h-1.5703l-4.6836 0.28125-2.1016-0.035156-1.8242-0.21875-2.9961-0.64062-1.8633-0.36719-2.3555-0.10938-1.9766 0.13672-1.2227 0.27734-1.2695 0.4375-2.1836 0.75391-1.6719 0.37109-1.3359 0.078125-2.6055-0.09375-1.4805-0.24219-2.7695-0.55469-2.9336-0.20703-1.6406-0.40625-1.6367-0.44531-1.4375-0.63672-1.1289-0.29688-1.1367 0.011718-2.5625 0.30859-2.4336 0.44531-0.89062 0.50391-1.0508 0.84375-0.96094 0.59766-1.7148 0.50781-1.0117 0.11328-1.1094 0.19141-1.1836 0.10156-1.4336-0.09375-1.1641-0.11719-1.2422-0.12109-1.8477-0.17969-1.4219-0.027344-1.2852-0.10938-0.99609-0.11328-1.082-0.73047-1.0234-1.1523-1.3516-0.023437-1.2578-0.13672-1.0117-0.60156-1.2266-0.12891-1.1133-0.58594-1.3242-0.76953-0.86719-0.67969-0.98828-0.86719-1.4297-1.3984-0.69922-1.0078-0.66406-1.9844 0.015625-1.25 0.28125-0.99609 0.50781-1.9375 0.058594-1.0781-0.066406-1.0977-0.31641-1.3281-0.66406-1.3438-1.0625-1.2695-1.9062-1.4141-1.1172-0.55859-2.3867-0.88281-0.89453-0.46484-0.65625-1.2344-1.0312-0.46094-1.0039-1.1484-0.29297-1.7422-0.007813-1.1172-0.40625-1.0469-0.84375-1.0117-0.43359-0.96875-0.26953-0.96484-0.007812-1.5195 0.36328-1.0469 0.96094-0.42188 0.63281-1.2227 0.027344-1.1016-0.67969-0.875-0.72656-0.73828-0.875-0.89453-0.41797-1.0078-1.0469-0.43359-1.1211-0.58203-0.5-1.082 0.16797-1.4297-0.003906-1.0977-0.37109-0.97266 0.53516-0.97656-0.003906-1.1094-0.023438-1.0391-0.66016-0.88281 0.13281-1.2656-0.37891-1.0547 0.22656-1.3828-0.35938-1 0.011719-1.3633-0.39062-1.2148-1.0742-0.36328-0.625-0.80859-0.62891-0.91016-0.54297-1.4766-0.53516-0.86719-0.5-1.1992 0.78125-2 0.58984-0.92969 1.6328-1.2617 1.5312-1.0898 2.7852-2.582 0.98438-1.3633 0.62109-1.2617 0.34375-1.9375 0.26953-2.418 0.054688-1.5586-0.46484-1.582-0.76172-1.0039-1.3359-0.74219-1.7266-0.26172-1.1211-0.14453-0.91016 0.44531-1.2578 0.64844-1.0391 0.12109-1.1406-0.12109-1.0352-0.12891-0.96484-0.58594-0.70703-0.98047-0.46484-1.0625-0.55469-1.5508-0.57812-0.98438-0.91797-0.45312-1.0703-0.10547-1.1875-0.019531-1.3594-0.089844-0.87891-0.73828-1.0234-0.15234-0.96875-0.99219-1.4219-0.26953-1.5898-0.12891-1.0625 0.007813-2.9531 0.49219-1.0195 0.21094-1.3711-0.03125-0.93359-0.50391-0.51953-1.3359-0.16406-1.125 0.22656-1.207 0.097656-1.2578-0.5-0.87891-0.75-1.1602-0.58594-1.0703-0.70312-0.84766-0.49609-1.0391-1.0156-0.77344-0.75-1.0352-0.94141-0.96875-0.67188-0.75-0.56641-1.0781-0.48828-1.0156-0.35156-0.97656-0.45312-1.1797-0.80078-0.89062-0.93359-0.42969-1.6133-0.41016-0.83594-0.56641-1.207-0.62109-1.4609-0.53906-1.1016-0.43359-0.97266-0.80078-0.76172-0.76953-1.1953 0.046875-1.3672-0.29688-1.2148-0.20312-1.1992-0.42188-1.0586-0.27734-0.98438-0.57031-0.81641-0.75-0.49219-0.92578-0.55859-1.0117-0.5-1.082 0.26562-0.99609 0.5-1.0586-0.027344-1.1641-0.76953-0.64453-0.46484-0.89062-0.86328-1.0312-0.63281-0.93359-0.097656-1.0508 0.007813-1.168-0.28906-1.1797-0.32031-1.1094-0.8125-0.75-0.22266-1.1523-0.37109-1.1836-1.3281-1.1836-1.0078 0.14844-0.83594-0.70312-0.90234-0.45703-0.98438-0.67969 0.22266-1.2383 0.12109-1.0586-0.5-1.1094-1.0664-0.52734-0.55859-0.86328-0.64844-1.082-0.77734-0.98047-0.72656-0.94141-0.76953-1.6055-0.32812-1.0312-0.70703-1.1211-1.1484-0.91797-0.73047-0.79297-0.86719-0.72266-1.0039 0.074219-1.4727 0.26172-1.1797-0.38672-0.73438 0.69141-0.91797 0.60547-1.4336-0.44141-1.0352-0.39453-0.50391-0.96875-1.0547-0.65234-1.0508-0.23438-0.33203-1.0898-0.78125-0.83984-1.1836-1.1719-1.2695-0.70703-1.3633-0.52344-1.9102-0.73047-0.97656-0.51953-1.0234-0.95312-1.0312-0.67188-1.6328-0.125h-2.0625l-1.6641-0.070313-1.1445-0.20703-1.0547-0.1875-1.0703-0.22656-1.0586-0.23047-3.3086-0.77734-0.98828 0.20703-1.3789 0.30078-1.0391-0.80078-0.54297-1.0234-0.42578-1.0742-0.65625-1.2969-0.78906-1.1406-0.050781-1.4375 0.19531-1.0273-0.34375-1.2852 0.13672-1.0898-0.93359-2.4102 2.0234-2.1094 5.6523-4.6211 2.8281-2.0742 1.6992-1.2969 4.3203-3.3867 2.1641-1.7344 1.4414-1.0547 2.6055-2.0508 1.1289-0.88672 1.1836-0.89062 2.0938-1.6406 6.625-5.2695 0.75781-0.78906 10.34-12.914 3.0547-4 2.9297-3.6758 5.9102-7.4141 3.9258-4.9453 6.7891-8.4961z" fill="#0a5394" fill-rule="evenodd"/>
<path d="m95.621 0.96484 0.10938 0.26562 0.019531 1.1484-0.41016 1.8125-0.11719 1.9531 0.11328 1.0039 0.39844 1.5781 1.0859 2.5391 0.63281 1.1953 0.51172 1.0781 0.46484 1.0156 0.53125 1.0195 0.26562 1.2812 0.25781 1.0156 1.3867 0.19922 1.0977 0.007812 2.0742 0.46094 1.4102-0.035157 1.2344 0.36328 1.0078 0.41797 1.5586 0.50781 1.293 0.19141 1.1758 0.046875 1.1992 0.78516 0.83594 0.63281 1.4375 0.94531 1.5664 0.59766 1.9844-0.15625 1.0664-0.16406 1.4883-0.42188 1.5859 0.84766 0.78125 0.94531 1.1406 1.2734 0.92969 0.82031 1.2461 0.52734 1.3477 0.41797 4.7344 0.14453 1.168 0.13281 1.6953 1 1.0039 1.5 0.55859 0.97266 1.1094 0.66406 0.96875-0.40625 1.7305-0.33203 1.3984-0.65234 1.1992-0.91406 1.2812-0.55078 1.8906-0.074219 1.125-0.085937 1.125-0.30469 1.9766-0.89844 1.1562 0.085937 1.2539-0.046875 1.1055 0.21484 0.98438-0.26562 1.1719 0.48828 0.78125 0.72266 0.67578 0.85156 0.62109 1.1055 0.33594 0.97266 0.58594 0.99219 0.19141 0.99609-0.058593 1.0859 0.55859 0.94141 0.99219 1.1992 0.38281 1.0508 0.085938 1.0078 0.97656 0.67188-0.20312 0.98828-0.35156 0.96094 0.03125 1.043 0.20312 1.0391 1.0078 0.78516 0.66406 0.96094 0.54688 0.88281 0.64453 0.85156 1.0195-0.027343 0.97266 0.38672 1.0039 0.19531 1.0039 0.41016 0.72656 0.92969 0.83203 0.69922 0.92578 0.48047 0.73828 0.91406 0.070313 1.0898-0.98047 1.0156 0.25391 0.97656 0.45703 1.0703 0.61719 0.81641 1.0547 0.78906 0.39844 1.3711 0.50781 1.0156 0.38672 1.25 0.32031 1.0391 0.77734 1.7305 1.3281 0.91016 1.125 0.39453 0.73047 0.71094 0.45703-1.0625 0.91797-0.40234 1.0391 0.40625h1.125l1.1836 0.89844 0.88281 1.0898 1.2227 0.625 2.1445 2.5391 1.0156 0.83984 1.9062 1.3828 1.375 0.59766 1.332 0.45312 1.6055 0.88672 1.1211 0.11719 1.043-0.28906 0.88281 0.52344-0.34766 1.5273 0.089844 1.0508 0.42578 0.99219 0.44922 1.5195-0.070312 1.7812 0.12109 2.0117 0.42578 1.8086 0.066406 1.4102-0.28125 1.2344-0.28906 1.2266-0.050781 1.1211 0.066406 1.0508-1.1289 0.27344-1.1172-0.035156-1.1719 0.33203-1.2656 1.1641-0.24219 1.0352 0.67188 0.97266 0.36719 1.1797 0.33984 1.2148 0.88281 0.98828 0.51562 0.97266 1.0781 0.36328 0.17188 1.0117 0.082031 1.0898-0.30859 1.082 0.60156 1.8398-0.67578 2.7695-0.83984 1.5547-0.39844 1.9883-1.3555 1.2891-1.1875 0.36328-1.25 0.48047-0.82031 1.1289-0.15234 1.1172-0.15234 1.8359-0.011719 1.5625 0.22656 3.3164 0.12891 1.082-0.082032 1.4141-0.56641 1.3477-0.57031 0.82422-0.61719 2.0938-0.089844 1.6016-0.011718 1.043-0.15234 1.2188-0.55859 2.1094-0.31641 1.1484-0.37109 1.2812-0.23047 1.125-0.082031 1.0195-0.29688 1.2461-0.66797 1.4531 0.074219 1.7266-0.51172 1.0352-0.41797 0.94531-0.20312 1.5352-0.13281 1.1055-0.44922 1.2891 0.21094 1.457 1.1875 0.89844 0.84766 1.3125 0.66406 1.4609 0.039062 1.3125 0.13281 1.4805 0.24219 1.1602 0.49219 1.3633 0.36719 0.96484 0.53516 1.2266 0.85938 1.0859-0.30469 1.3242-0.39062 1.1133 0.24609 1.043 0.82422 0.66016-0.23047 1.3516-0.48828 1.3516 0.55859 2.1602 1.4531 1.9414 0.21094 1.1055 0.23438 0.99219 0.62109 1 0.69531 0.85547 1.0547-0.16797 1.0547 0.41406 1.0352 0.13672 1.582 0.24609 0.98438 0.4375 1.0469-0.4375 1.082 0.11719 1.1289 0.21484 0.91406 0.40234 0.86719 0.54688 0.97266 0.25781 1.0039-0.23047 0.86328-0.54688 1.0117-0.082031 0.78516 0.67969 0.54297 0.875 0.58984 0.94531 1.043 0.29688 0.66797-0.79688 0.66797 0.82031 0.94141 0.48828 0.89453 0.50781 0.89453 0.625 0.10156 1.043-1.0195 1.0742-0.66016 0.86328 0.19531 1.0039-0.47266 1.0703 0.8125 0.72266 0.78125 0.64453 0.003907 1.125 0.93359 0.76953 1.1211 0.59375 1.1016-0.10156 0.87109 0.68359 0.82031 0.76562 0.050781 1.0508 1.0312-0.125 0.90234 0.60938 1.1992 0.40625 0.48438 1.0078 0.035156 1.2656 0.51172 0.89062 0.79297 0.75 0.94922 0.35547-0.074219 1.0391 0.66406 0.80859 0.26562 1.125 0.30859 1.1172 0.019531 1.4297 0.4375 1.3281 1.0039 1.8281-1 2.0312 0.44531 0.93359 1.2383-0.39062 1.2422-0.69531 1.6953 1.2734 0.52344 0.86328-0.61328 1.3203-0.19922 1.9922 0.35938 1.168 2.4062 2.9258 1.1133 1.0586 1.0195 0.8125 1.2539 1.1992 1.2383 1.3516 0.77344 0.91797 7.7969 7.5156 1.2695 1.3711 1.0586 1.2969 0.81641 1.0898 1.1367 1.3867 0.85547 1.0625 0.71094 0.95703 0.69531 0.88672 0.85547 0.89453 1.1406 0.29688 1.2305-0.84375 0.8125-1.0273 0.92578 0.94141 0.87891 0.71484 0.72266 0.77734 1.0781 0.19531 1.2344 0.015625 1.1016 0.17969 0.79688 0.9375 1.3711 0.26953 1.1484-0.15234 1.2773-0.21875 1.3516-0.17969 1.457 0.26172 0.97266 1.1055 0.80078 2.0273 0.39844 1 0.85156 1.4727 0.99609 0.67578 1.1211 0.10938 1.2695 0.49219 1.1836 0.96094 0.57031 1.3672 0.41797 1.2695 1.0234 1.4336 0.72266 0.79688 0.77734 1.2695 0.60547 0.80469 0.9375 0.46875-0.62109 2.25-0.21094 1.2188-0.14453 1.4648 0.074219 1.25 0.37109 2.2656 0.72656 2.3008 0.78125 1.1797 0.74609 1.0938 0.80859 2.5078 0.35156 1.5586 0.089844 1.1406-0.35156 1.1641-0.32031 1.1289-0.45703 1.3164-1.0469 1.4805-1.0078 1.4805-0.92969 1.8047-0.94141 2.2812-0.51562 1.0664-1.8945 2.6211-0.125 1.1367 0.12891 1.6836 0.37109 2.3125 0.33203 1.6562 0.15625 1.4297 0.26562 2.332 0.15234 1.1836 0.066406 1.1602 0.03125 1.6562 0.003907 1.3945-0.042969 1.0547-0.11719 3.1562-0.082031 1.0898-0.44141 2.1484-0.55469 1.5469-0.41797 0.95703-0.51172 1.1484-0.41797 0.95703-1.0039-0.36328-0.98047-0.23438-0.99219 0.22266-0.33984-0.94531-0.97266-0.28516-0.98047-0.24219-0.38672-0.93359-1.0195-1.1367-1.0938-0.75781-4.3164-1.4961-8.6445-2.6953-3.5938-1.6992-1.3984-1.2812-2.5273-2.3125-0.94141-0.86328-1.9961-2.0977-1.8906-1.2891-1.5469-0.60938-3.0312-0.92969-1.8008-0.60547-1.1328-0.38672-2.7578-0.94922-3.5625-1.4258-2.4883-0.92578-3.0938-0.74609-1.5234-0.20703-1.4453-0.42188-1.4414-1.6797-1.8672-2.707-1.793-1.9453-2.4414-2.8984-0.65234-0.76562-0.80859-0.80859-1.5195-1.5039-0.88672-1.2031-0.61328-0.98828-0.85938-0.69922-2.7852-2.2188-2.4883-2.1211-1.7891-0.97656-1.0273-0.375-1.3984-0.57031-1.2031-0.47656-0.90234-0.51172-1.082-1.0703-1.4805-1.4258-1.2383-1.1172-1.3086-0.69531-1.5352-0.19531-1.3008 0.10938-2.6367-0.32031-1.5508-0.51562-1.3086-0.67578-3.0156-0.71094-3.2109-0.72266-1.668-0.40234-1.4922-0.51172-1.1641-0.73047-0.95703-0.76953-0.93359-1.1484 1.6172-0.32812 1.6484-0.55859 1.2617 0.36328 0.77344 0.75391 1.375 0.76172 2.2969 0.83594 1.2344-0.21484 1.7891-0.46484 1.5781-0.042969 0.95312-0.82812 1.1797-0.63281h1.207l1.2031-0.55078 1.0156 0.49219 2.457 0.52344 1.1836-0.023437 1.25-0.21484 1.5234-0.26172 1.1562-0.35547 1.3633-0.42969 3.8945-1.2305 2.1953-0.17969 3.7422 0.066406 1.1914 0.019531 1.8555 0.42578 2.3047 0.52344 2.8359 0.64844 1.5117 0.050781 2.875-0.03125 1.2539-0.15625 2.0117-0.34375 1.9961-1 1.2188-1.0664 1.5859-1.1797 1.1016-0.31641 1.0859-0.16406 3.2188-0.35156 1.9219-0.54297 1.0156-0.83594 0.82812-0.99219 0.86328-1.6641 0.26953-1.5156-0.078125-1.7227-0.23438-1.0039-1.1367-1.5312-1.0039-0.82031-2.6445-1.0039-1.5859-0.23438h-1.5703l-4.6836 0.28125-2.1016-0.035156-1.8242-0.21875-2.9961-0.64062-1.8633-0.36719-2.3555-0.10938-1.9766 0.13672-1.2227 0.27734-1.2695 0.4375-2.1836 0.75391-1.6719 0.37109-1.3359 0.078125-2.6055-0.09375-1.4805-0.24219-2.7695-0.55469-2.9336-0.20703-1.6406-0.40625-1.6367-0.44531-1.4375-0.63672-1.1289-0.29688-1.1367 0.011718-2.5625 0.30859-2.4336 0.44531-0.89062 0.50391-1.0508 0.84375-0.96094 0.59766-1.7148 0.50781-1.0117 0.11328-1.1094 0.19141-1.1836 0.10156-1.4336-0.09375-1.1641-0.11719-1.2422-0.12109-1.8477-0.17969-1.4219-0.027344-1.2852-0.10938-0.99609-0.11328-1.082-0.73047-1.0234-1.1523-1.3516-0.023437-1.2578-0.13672-1.0117-0.60156-1.2266-0.12891-1.1133-0.58594-1.3242-0.76953-0.86719-0.67969-0.98828-0.86719-1.4297-1.3984-0.69922-1.0078-0.66406-1.9844 0.015625-1.25 0.28125-0.99609 0.50781-1.9375 0.058594-1.0781-0.066406-1.0977-0.31641-1.3281-0.66406-1.3438-1.0625-1.2695-1.9062-1.4141-1.1172-0.55859-2.3867-0.88281-0.89453-0.46484-0.65625-1.2344-1.0312-0.46094-1.0039-1.1484-0.29297-1.7422-0.007813-1.1172-0.40625-1.0469-0.84375-1.0117-0.43359-0.96875-0.26953-0.96484-0.007812-1.5195 0.36328-1.0469 0.96094-0.42188 0.63281-1.2227 0.027344-1.1016-0.67969-0.875-0.72656-0.73828-0.875-0.89453-0.41797-1.0078-1.0469-0.43359-1.1211-0.58203-0.5-1.082 0.16797-1.4297-0.003906-1.0977-0.37109-0.97266 0.53516-0.97656-0.003906-1.1094-0.023438-1.0391-0.66016-0.88281 0.13281-1.2656-0.37891-1.0547 0.22656-1.3828-0.35938-1 0.011719-1.3633-0.39062-1.2148-1.0742-0.36328-0.625-0.80859-0.62891-0.91016-0.54297-1.4766-0.53516-0.86719-0.5-1.1992 0.78125-2 0.58984-0.92969 1.6328-1.2617 1.5312-1.0898 2.7852-2.582 0.98438-1.3633 0.62109-1.2617 0.34375-1.9375 0.26953-2.418 0.054688-1.5586-0.46484-1.582-0.76172-1.0039-1.3359-0.74219-1.7266-0.26172-1.1211-0.14453-0.91016 0.44531-1.2578 0.64844-1.0391 0.12109-1.1406-0.12109-1.0352-0.12891-0.96484-0.58594-0.70703-0.98047-0.46484-1.0625-0.55469-1.5508-0.57812-0.98438-0.91797-0.45312-1.0703-0.10547-1.1875-0.019531-1.3594-0.089844-0.87891-0.73828-1.0234-0.15234-0.96875-0.99219-1.4219-0.26953-1.5898-0.12891-1.0625 0.007813-2.9531 0.49219-1.0195 0.21094-1.3711-0.03125-0.93359-0.50391-0.51953-1.3359-0.16406-1.125 0.22656-1.207 0.097656-1.2578-0.5-0.87891-0.75-1.1602-0.58594-1.0703-0.70312-0.84766-0.49609-1.0391-1.0156-0.77344-0.75-1.0352-0.94141-0.96875-0.67188-0.75-0.56641-1.0781-0.48828-1.0156-0.35156-0.97656-0.45312-1.1797-0.80078-0.89062-0.93359-0.42969-1.6133-0.41016-0.83594-0.56641-1.207-0.62109-1.4609-0.53906-1.1016-0.43359-0.97266-0.80078-0.76172-0.76953-1.1953 0.046875-1.3672-0.29688-1.2148-0.20312-1.1992-0.42188-1.0586-0.27734-0.98438-0.57031-0.81641-0.75-0.49219-0.92578-0.55859-1.0117-0.5-1.082 0.26562-0.99609 0.5-1.0586-0.027344-1.1641-0.76953-0.64453-0.46484-0.89062-0.86328-1.0312-0.63281-0.93359-0.097656-1.0508 0.007813-1.168-0.28906-1.1797-0.32031-1.1094-0.8125-0.75-0.22266-1.1523-0.37109-1.1836-1.3281-1.1836-1.0078 0.14844-0.83594-0.70312-0.90234-0.45703-0.98438-0.67969 0.22266-1.2383 0.12109-1.0586-0.5-1.1094-1.0664-0.52734-0.55859-0.86328-0.64844-1.082-0.77734-0.98047-0.72656-0.94141-0.76953-1.6055-0.32812-1.0312-0.70703-1.1211-1.1484-0.91797-0.73047-0.79297-0.86719-0.72266-1.0039 0.074219-1.4727 0.26172-1.1797-0.38672-0.73438 0.69141-0.91797 0.60547-1.4336-0.44141-1.0352-0.39453-0.50391-0.96875-1.0547-0.65234-1.0508-0.23438-0.33203-1.0898-0.78125-0.83984-1.1836-1.1719-1.2695-0.70703-1.3633-0.52344-1.9102-0.73047-0.97656-0.51953-1.0234-0.95312-1.0312-0.67188-1.6328-0.125h-2.0625l-1.6641-0.070313-1.1445-0.20703-1.0547-0.1875-1.0703-0.22656-1.0586-0.23047-3.3086-0.77734-0.98828 0.20703-1.3789 0.30078-1.0391-0.80078-0.54297-1.0234-0.42578-1.0742-0.65625-1.2969-0.78906-1.1406-0.050781-1.4375 0.19531-1.0273-0.34375-1.2852 0.13672-1.0898-0.93359-2.4102 2.0234-2.1094 5.6523-4.6211 2.8281-2.0742 1.6992-1.2969 4.3203-3.3867 2.1641-1.7344 1.4414-1.0547 2.6055-2.0508 1.1289-0.88672 1.1836-0.89062 2.0938-1.6406 6.625-5.2695 0.75781-0.78906 10.34-12.914 3.0547-4 2.9297-3.6758 5.9102-7.4141 3.9258-4.9453 6.7891-8.4961 0.050781 0.14062" fill="none" stroke="#fff" stroke-linecap="round" stroke-linejoin="round" stroke-miterlimit="10"/>
<path d="m228.08 215.22c0 3.5898-2.9102 6.5-6.5 6.5s-6.5-2.9102-6.5-6.5 2.9102-6.5 6.5-6.5 6.5 2.9102 6.5 6.5" fill="#28c028" fill-rule="evenodd" stroke="#000" stroke-linecap="round" stroke-linejoin="round" stroke-miterlimit="10"/>
<path d="m132.84 209.22v-16.469h3.3125v16.469zm6.5156 0v-16.469h3.2344l6.75 11v-11h3.0781v16.469h-3.3281l-6.6406-10.734v10.734zm20.281 0v-13.672h-4.875v-2.7969h13.078v2.7969h-4.875v13.672zm10.328-16.469h3.3125v8.9219c0 1.418 0.039063 2.3359 0.125 2.75 0.14453 0.67969 0.48438 1.2188 1.0156 1.625 0.53906 0.40625 1.2734 0.60938 2.2031 0.60938 0.9375 0 1.6445-0.19141 2.125-0.57812 0.47656-0.38281 0.76562-0.85938 0.85938-1.4219 0.10156-0.5625 0.15625-1.4922 0.15625-2.7969v-9.1094h3.3281v8.6562c0 1.9688-0.09375 3.3672-0.28125 4.1875-0.17969 0.8125-0.50781 1.5-0.98438 2.0625-0.48047 0.5625-1.125 1.0117-1.9375 1.3438s-1.8711 0.5-3.1719 0.5c-1.5742 0-2.7656-0.18359-3.5781-0.54688s-1.4531-0.83203-1.9219-1.4062c-0.46875-0.58203-0.77734-1.1914-0.92188-1.8281-0.21875-0.94531-0.32812-2.3438-0.32812-4.1875zm20.328 16.469v-13.672h-4.875v-2.7969h13.078v2.7969h-4.875v13.672zm10.328-16.469h3.3125v8.9219c0 1.418 0.039063 2.3359 0.125 2.75 0.14453 0.67969 0.48438 1.2188 1.0156 1.625 0.53906 0.40625 1.2734 0.60938 2.2031 0.60938 0.9375 0 1.6445-0.19141 2.125-0.57812 0.47656-0.38281 0.76562-0.85938 0.85938-1.4219 0.10156-0.5625 0.15625-1.4922 0.15625-2.7969v-9.1094h3.3281v8.6562c0 1.9688-0.09375 3.3672-0.28125 4.1875-0.17969 0.8125-0.50781 1.5-0.98438 2.0625-0.48047 0.5625-1.125 1.0117-1.9375 1.3438s-1.8711 0.5-3.1719 0.5c-1.5742 0-2.7656-0.18359-3.5781-0.54688s-1.4531-0.83203-1.9219-1.4062c-0.46875-0.58203-0.77734-1.1914-0.92188-1.8281-0.21875-0.94531-0.32812-2.3438-0.32812-4.1875zm0 0" fill="none" stroke="#fff" stroke-linecap="round" stroke-linejoin="round" stroke-miterlimit="10" stroke-width="2"/>
<path d="m132.84 209.22v-16.469h3.3125v16.469zm6.5156 0v-16.469h3.2344l6.75 11v-11h3.0781v16.469h-3.3281l-6.6406-10.734v10.734zm20.281 0v-13.672h-4.875v-2.7969h13.078v2.7969h-4.875v13.672zm10.328-16.469h3.3125v8.9219c0 1.418 0.039063 2.3359 0.125 2.75 0.14453 0.67969 0.48438 1.2188 1.0156 1.625 0.53906 0.40625 1.2734 0.60938 2.2031 0.60938 0.9375 0 1.6445-0.19141 2.125-0.57812 0.47656-0.38281 0.76562-0.85938 0.85938-1.4219 0.10156-0.5625 0.15625-1.4922 0.15625-2.7969v-9.1094h3.3281v8.6562c0 1.9688-0.09375 3.3672-0.28125 4.1875-0.17969 0.8125-0.50781 1.5-0.98438 2.0625-0.48047 0.5625-1.125 1.0117-1.9375 1.3438s-1.8711 0.5-3.1719 0.5c-1.5742 0-2.7656-0.18359-3.5781-0.54688s-1.4531-0.83203-1.9219-1.4062c-0.46875-0.58203-0.77734-1.1914-0.92188-1.8281-0.21875-0.94531-0.32812-2.3438-0.32812-4.1875zm20.328 16.469v-13.672h-4.875v-2.7969h13.078v2.7969h-4.875v13.672zm10.328-16.469h3.3125v8.9219c0 1.418 0.039063 2.3359 0.125 2.75 0.14453 0.67969 0.48438 1.2188 1.0156 1.625 0.53906 0.40625 1.2734 0.60938 2.2031 0.60938 0.9375 0 1.6445-0.19141 2.125-0.57812 0.47656-0.38281 0.76562-0.85938 0.85938-1.4219 0.10156-0.5625 0.15625-1.4922 0.15625-2.7969v-9.1094h3.3281v8.6562c0 1.9688-0.09375 3.3672-0.28125 4.1875-0.17969 0.8125-0.50781 1.5-0.98438 2.0625-0.48047 0.5625-1.125 1.0117-1.9375 1.3438s-1.8711 0.5-3.1719 0.5c-1.5742 0-2.7656-0.18359-3.5781-0.54688s-1.4531-0.83203-1.9219-1.4062c-0.46875-0.58203-0.77734-1.1914-0.92188-1.8281-0.21875-0.94531-0.32812-2.3438-0.32812-4.1875z" fill-rule="evenodd"/>
</g>
</svg>
