<?xml version="1.0" encoding="UTF-8"?>
<svg width="500pt" height="350pt" version="1.1" viewBox="0 0 500 350" xmlns="http://www.w3.org/2000/svg">
<g id="a">
<rect width="500" height="350" fill="none"/>
<path d="m66.566 101.09 0.054688 0.003906 1.3516 0.28906 1.1953 0.085938 1.0195 0.31641 0.87891 0.73828 0.85547 0.8125 1.0195-0.19922 1.0195 0.007812 0.85547 0.71484 1.0234 0.66797 0.65234 0.8125 0.73828 0.69922 1.0273-0.050781 1.0234 0.26172 1.0977 0.18359 1.1445-0.28125 1.2305 0.007812 0.99609 0.48828 1.0625 0.34766 1.2188 0.011718 0.84766 0.69141 1.1016 0.042968 1.3555-0.011718 1 0.28125 1.0273 0.058593 1.8633 1.5547 1.918 2.1445 0.94531 0.50391 1.168 0.19531 0.82812-0.58203 0.80078-0.63281 1.1758-0.35938 1.0703 0.23047 0.94531 0.54297 1.0664 0.81641 0.83984 1.043 0.94922 0.4375 1.0586 0.21484 0.96484 0.45703 1.2461 0.11719 1.3164-0.13672 1.1719-0.066406 0.97656 0.30469 0.71484 0.73828 0.46875 1.1016 0.75781 0.72656 0.78516 0.65234 1.0391 0.57812 0.98438 0.70703 1.5195 0.60156 1.3047 0.75391 0.69922 0.73438 1.0352 1.0547 1.0781 0.77734 1.2266 0.22266 0.89453 0.55469 0.78125 0.94531 0.81641 1.5977 0.81641 0.83594 0.84766 0.79297 1.0078 0.54688 1.0586 0.375 1.1641-0.125 0.94531 0.34375 1.3242 0.5 0.64062 0.87109 1.0703-0.12891 1.1445 0.10547 1.1602 0.375 1.6797-0.17578 1.0859-0.24219 1.1484-0.37109 1.5352-0.39453 1.1406-0.13672 1.0938 0.21875 1.8086 0.46484 1.6367 0.30469 1.6797 0.40625 1.0703 0.26953 1.082 0.49609 0.74609 0.75781 0.60156 1.1172 0.74219 0.98438 0.97266 0.32422 1.2148-0.011718 0.96875 0.50781 0.48438 0.94531 0.19922 0.98828 0.011719 1.0156 0.64062 0.98828 1.2422 0.54688 1.3633 0.79297 0.82812 0.61719 0.9375 0.58984 1.0977 0.62109 0.44531 0.91797 0.64844 0.94531 1.0039 0.12109 0.96875-0.37891 1.1562-0.43359 1.0273-0.058594 1.0938-0.0625 1.2266 0.35156 1.0156 0.09375 1.1367-0.48438 0.94922-0.39453 1.0195 0.375 1.1523-0.007812 1.0195 0.5 0.80859 1.0156 0.6875 0.81641 0.55859 1.0469 0.25391 1.0586 0.86328 0.89062 1.0625 0.22656 1.0859-0.058593 1.1172-0.375 1.0117-0.55469 1-0.79297 0.78516 0.82812-0.082031 1.6133 1.0703 1.5859 1.2578 0.61719 1.0664-0.058594 0.64844 0.88281-0.34375 1.0234-0.20703 1.082 1.0156 0.42578 0.14453 1.3125-0.34766 0.96875-0.70703 1.0039 0.039063 1.168 0.96094 0.55859 0.84375-0.54297 1.0977 0.18359-0.16016 1.0273-0.70312 0.94922-1.1719 0.89844-1 0.68359-0.84375 0.72266-0.69141 1.3008-0.054688 1.3047-0.64062 1.3125-0.70703 0.84766-0.99609 1 0.14453 1.2422 0.70312 1.2539 1.3008 0.99609 0.86328 0.73047 1.0391 0.13281 1.8203 0.23438 0.98438 0.1875 0.64844 0.85156 1.0859 0.97656 0.51562 1.0156 0.082031 1.1289 0.53516 0.85156 1.3359-0.33203 0.82422-0.57812 0.93359-0.50781 1.3594 0.26953 1.2695 0.94141 0.82812 0.64453 0.95312 0.33984 1.2266 0.36328 0.56641 1.1992 0.59375 0.90625 0.99219-0.27344 0.19922-1.0352-0.36719-1.0156-0.054687-1.1133 0.73828-0.82422 1.0938-0.23438 1.1172 0.4375 1.1133 0.035156 1-0.10938 0.75 0.73828-0.97656 0.64844 0.42188 0.95703 1.2227-0.30078 0.70703-1.4453-0.24219-1.5781 0.082032-1.2422 0.87891-0.61328 0.89844 0.56641 0.63672 0.80469 0.49219 1.4141 0.53906 1.0195 0.375 1.0156 0.99219 0.41016 1.5781-0.45703 1.0078 0.046875 0.35938 1.0312 0.011719 1.0898-0.48828 1.1367-0.30078 1.1562 0.48047 1.2188 0.92578 0.55859 1 0.11719 1.2109 0.03125 0.47656 1.1914-0.21484 1.0469-0.67578 0.9375 0.14062 1.3281 0.24219 1.3477 0.027344 1.3164-0.31641 1.082-0.50781 1.1758 0.0625 1.1875-0.13672 1.1211 0.37109 1.1133 0.89453 0.54688 0.96875 0.52344 0.39844 0.96094-0.59375 1.1758-0.57031 0.83984-0.039062 1.1602 0.70312 0.84375 1.1406 0.089844 1.1445-0.21484 0.30469 1.3359-0.57812 1.0508-0.91016 0.45703-0.89844 0.625-1.0273 0.41797-0.77734 1.1133-0.38672 1.4922-0.17578 1.1406-0.4375 1.1016-0.83203 0.625-1.0195 0.19531-1.0938-0.17578-0.87109 0.50781v1.1094l0.10938 1.2305 0.14453 1.0234 0.37891 0.96875 0.83594 1.5156 0.17188 1.0742-0.85938 0.58203-0.54688 0.85938-0.34375 1.207-1.1914 0.70703-1.0234-0.058594-1.0352-0.35938-0.5625-1.3242-0.011719-1.3398-0.10547-1.1641-0.28906-1.0469-0.92188-0.82031-1.25-0.26172-1.4727-0.15625-1.5273-0.21875-0.96875-0.32422-0.99219-1.375-1.2578-2.3164-0.69922-1.125-0.94141-1.5-0.90234-1.3047-0.89453-1.5938-0.75391-1.3359-0.69141-1.2188-0.66406-0.84766-0.78516-0.64062-1.3398-0.51172-1.2188-0.22656-1.1172-0.52734-1.2852-0.67188-1.0547-0.3125-1.1602-0.0625-1.2461-0.10547-1.2734-0.11719-1.0664-0.09375-1.3984-0.011719-1.668-0.042968-1.1914-0.20703-1.625-0.79297-0.86328-0.57812-0.71484-0.80859-0.49609-1.3789-0.32031-1.1289-0.46875-0.97656-0.83203-0.77734-0.97656-0.62891-0.76953-0.72656-0.29297-1.2422 0.074219-1.0977 0.30859-1.0234 0.3125-0.98047 0.84375-0.68359-0.75391-0.84766-1.1836-0.35156-1.0977 0.03125-1.125 0.30859-1.0625 0.070312-1.0156-0.35156-1.0234-0.46094-0.9375-0.46875 0.21484-1.1406 0.63281-0.91016 0.4375-1.5312 0.19141-1.0781 0.0625-1.2031-0.23828-1.0234-1.2539-0.83594-0.97656-0.71484-0.72656-0.72656-0.61328-0.82812-0.41797-1.082 0.13281-1.0195 0.070312-1.0273-0.28516-1.0625-0.26172-0.99609-0.64062-0.91797-0.88672-0.78516-1.1328 0.20312-1.0469-0.28906-1.0273-0.25391-0.90234 1.2734-0.89844 0.97266-0.99219-1.3594-0.82812-0.82422-0.98438-0.67578-1.1836-0.29688-1.0664 0.16797-1.0352 0.15625-0.92578-0.44531-0.58984-0.83203-0.73047-0.9375-0.34375-0.95312-0.62109-0.99219-0.5625-1.043-0.27344-0.99219-1.0586-0.39453-0.48438-0.89062 0.10547-1.0508-1.0312-0.14453-0.99609 0.10547-0.98438-0.35156-0.76172-1.0117-0.61719-0.99219-0.71484-1.3047-0.097656-1.2383-0.58984-0.83203-1.1445 0.14844-1.1914 0.125-1.2383-0.16016-1.1328-0.12109-1.168-0.046875-1.1836-0.21094-1.1562-0.42188-0.91406-0.64844-1.1367-0.50781-0.94922-1.0742-0.86719-1.0078-0.88672-0.52344-1.0703-0.41406-1.2188-0.38281-0.73047-0.94531-1.1992-0.71094-1.1367-0.17578-1.1875 0.82812-2.1719-0.58203-1.1797-0.28125-1.1953-0.57031-1.0781-0.47656-1.1211 0.32812-1.0469-0.28516-0.76953-0.77734-1.2852-0.45312-1.0547-0.39844-1.1367-0.30078-1.0352-0.30469-0.85938-0.62109-1.3008-0.26562-1.1289-0.47266-1.0234 0.27344-0.91016-0.61719-0.92188 0.40234-0.91406-0.48438-0.90625-0.50391-0.73047-0.70703-1.1094 0.36719-1.3008-0.066406-0.85938-0.62891-0.65234-0.96875-0.71094-0.875-1.2734-0.16406-1.1758-0.46875-0.29688-1.0234-0.69922-0.78906-1-0.015625-1.2188-1.0039-0.89062-0.57812 0.13672-1.3125 0.046875-1.1211-0.48438-0.95312-0.83984-1.1094-0.82031-0.86328-1.5312-0.86719-1.0273-0.33203-0.40234-1.2969-1.0352-0.81641-1.0312-1.0938-1.2773-1.1328-0.98047-1.0508-0.42969-1.0898-1.0078-0.66797-0.57031-1.0234-0.32422-1.418-0.14062-1.0508-1.1367-0.67969-0.97266-1.5508-0.44141-0.95703-0.51562-1.0039-0.44141-0.99609-0.88672-0.5-1-0.074218-0.92969-0.80078-0.88281-0.71094-1.2031-0.09375-0.92578-0.41406-1.1523-0.39844-1.0898-0.33203-0.45703-1.0938-0.51562-1.0156-0.87109-0.75391-0.61719-0.89453-0.57031-1.0078-0.30078-1-0.11328-1.207-0.050781-1.1445-0.0625-1.0117 1.0156-0.41016z" fill="#ccc" fill-rule="evenodd"/>
<path d="m66.566 101.09 0.054688 0.003906 1.3516 0.28906 1.1953 0.085938 1.0195 0.31641 0.87891 0.73828 0.85547 0.8125 1.0195-0.19922 1.0195 0.007812 0.85547 0.71484 1.0234 0.66797 0.65234 0.8125 0.73828 0.69922 1.0273-0.050781 1.0234 0.26172 1.0977 0.18359 1.1445-0.28125 1.2305 0.007812 0.99609 0.48828 1.0625 0.34766 1.2188 0.011718 0.84766 0.69141 1.1016 0.042968 1.3555-0.011718 1 0.28125 1.0273 0.058593 1.8633 1.5547 1.918 2.1445 0.94531 0.50391 1.168 0.19531 0.82812-0.58203 0.80078-0.63281 1.1758-0.35938 1.0703 0.23047 0.94531 0.54297 1.0664 0.81641 0.83984 1.043 0.94922 0.4375 1.0586 0.21484 0.96484 0.45703 1.2461 0.11719 1.3164-0.13672 1.1719-0.066406 0.97656 0.30469 0.71484 0.73828 0.46875 1.1016 0.75781 0.72656 0.78516 0.65234 1.0391 0.57812 0.98438 0.70703 1.5195 0.60156 1.3047 0.75391 0.69922 0.73438 1.0352 1.0547 1.0781 0.77734 1.2266 0.22266 0.89453 0.55469 0.78125 0.94531 0.81641 1.5977 0.81641 0.83594 0.84766 0.79297 1.0078 0.54688 1.0586 0.375 1.1641-0.125 0.94531 0.34375 1.3242 0.5 0.64062 0.87109 1.0703-0.12891 1.1445 0.10547 1.1602 0.375 1.6797-0.17578 1.0859-0.24219 1.1484-0.37109 1.5352-0.39453 1.1406-0.13672 1.0938 0.21875 1.8086 0.46484 1.6367 0.30469 1.6797 0.40625 1.0703 0.26953 1.082 0.49609 0.74609 0.75781 0.60156 1.1172 0.74219 0.98438 0.97266 0.32422 1.2148-0.011718 0.96875 0.50781 0.48438 0.94531 0.19922 0.98828 0.011719 1.0156 0.64062 0.98828 1.2422 0.54688 1.3633 0.79297 0.82812 0.61719 0.9375 0.58984 1.0977 0.62109 0.44531 0.91797 0.64844 0.94531 1.0039 0.12109 0.96875-0.37891 1.1562-0.43359 1.0273-0.058594 1.0938-0.0625 1.2266 0.35156 1.0156 0.09375 1.1367-0.48438 0.94922-0.39453 1.0195 0.375 1.1523-0.007812 1.0195 0.5 0.80859 1.0156 0.6875 0.81641 0.55859 1.0469 0.25391 1.0586 0.86328 0.89062 1.0625 0.22656 1.0859-0.058593 1.1172-0.375 1.0117-0.55469 1-0.79297 0.78516 0.82812-0.082031 1.6133 1.0703 1.5859 1.2578 0.61719 1.0664-0.058594 0.64844 0.88281-0.34375 1.0234-0.20703 1.082 1.0156 0.42578 0.14453 1.3125-0.34766 0.96875-0.70703 1.0039 0.039063 1.168 0.96094 0.55859 0.84375-0.54297 1.0977 0.18359-0.16016 1.0273-0.70312 0.94922-1.1719 0.89844-1 0.68359-0.84375 0.72266-0.69141 1.3008-0.054688 1.3047-0.64062 1.3125-0.70703 0.84766-0.99609 1 0.14453 1.2422 0.70312 1.2539 1.3008 0.99609 0.86328 0.73047 1.0391 0.13281 1.8203 0.23438 0.98438 0.1875 0.64844 0.85156 1.0859 0.97656 0.51562 1.0156 0.082031 1.1289 0.53516 0.85156 1.3359-0.33203 0.82422-0.57812 0.93359-0.50781 1.3594 0.26953 1.2695 0.94141 0.82812 0.64453 0.95312 0.33984 1.2266 0.36328 0.56641 1.1992 0.59375 0.90625 0.99219-0.27344 0.19922-1.0352-0.36719-1.0156-0.054687-1.1133 0.73828-0.82422 1.0938-0.23438 1.1172 0.4375 1.1133 0.035156 1-0.10938 0.75 0.73828-0.97656 0.64844 0.42188 0.95703 1.2227-0.30078 0.70703-1.4453-0.24219-1.5781 0.082032-1.2422 0.87891-0.61328 0.89844 0.56641 0.63672 0.80469 0.49219 1.4141 0.53906 1.0195 0.375 1.0156 0.99219 0.41016 1.5781-0.45703 1.0078 0.046875 0.35938 1.0312 0.011719 1.0898-0.48828 1.1367-0.30078 1.1562 0.48047 1.2188 0.92578 0.55859 1 0.11719 1.2109 0.03125 0.47656 1.1914-0.21484 1.0469-0.67578 0.9375 0.14062 1.3281 0.24219 1.3477 0.027344 1.3164-0.31641 1.082-0.50781 1.1758 0.0625 1.1875-0.13672 1.1211 0.37109 1.1133 0.89453 0.54688 0.96875 0.52344 0.39844 0.96094-0.59375 1.1758-0.57031 0.83984-0.039062 1.1602 0.70312 0.84375 1.1406 0.089844 1.1445-0.21484 0.30469 1.3359-0.57812 1.0508-0.91016 0.45703-0.89844 0.625-1.0273 0.41797-0.77734 1.1133-0.38672 1.4922-0.17578 1.1406-0.4375 1.1016-0.83203 0.625-1.0195 0.19531-1.0938-0.17578-0.87109 0.50781v1.1094l0.10938 1.2305 0.14453 1.0234 0.37891 0.96875 0.83594 1.5156 0.17188 1.0742-0.85938 0.58203-0.54688 0.85938-0.34375 1.207-1.1914 0.70703-1.0234-0.058594-1.0352-0.35938-0.5625-1.3242-0.011719-1.3398-0.10547-1.1641-0.28906-1.0469-0.92188-0.82031-1.25-0.26172-1.4727-0.15625-1.5273-0.21875-0.96875-0.32422-0.99219-1.375-1.2578-2.3164-0.69922-1.125-0.94141-1.5-0.90234-1.3047-0.89453-1.5938-0.75391-1.3359-0.69141-1.2188-0.66406-0.84766-0.78516-0.64062-1.3398-0.51172-1.2188-0.22656-1.1172-0.52734-1.2852-0.67188-1.0547-0.3125-1.1602-0.0625-1.2461-0.10547-1.2734-0.11719-1.0664-0.09375-1.3984-0.011719-1.668-0.042968-1.1914-0.20703-1.625-0.79297-0.86328-0.57812-0.71484-0.80859-0.49609-1.3789-0.32031-1.1289-0.46875-0.97656-0.83203-0.77734-0.97656-0.62891-0.76953-0.72656-0.29297-1.2422 0.074219-1.0977 0.30859-1.0234 0.3125-0.98047 0.84375-0.68359-0.75391-0.84766-1.1836-0.35156-1.0977 0.03125-1.125 0.30859-1.0625 0.070312-1.0156-0.35156-1.0234-0.46094-0.9375-0.46875 0.21484-1.1406 0.63281-0.91016 0.4375-1.5312 0.19141-1.0781 0.0625-1.2031-0.23828-1.0234-1.2539-0.83594-0.97656-0.71484-0.72656-0.72656-0.61328-0.82812-0.41797-1.082 0.13281-1.0195 0.070312-1.0273-0.28516-1.0625-0.26172-0.99609-0.64062-0.91797-0.88672-0.78516-1.1328 0.20312-1.0469-0.28906-1.0273-0.25391-0.90234 1.2734-0.89844 0.97266-0.99219-1.3594-0.82812-0.82422-0.98438-0.67578-1.1836-0.29688-1.0664 0.16797-1.0352 0.15625-0.92578-0.44531-0.58984-0.83203-0.73047-0.9375-0.34375-0.95312-0.62109-0.99219-0.5625-1.043-0.27344-0.99219-1.0586-0.39453-0.48438-0.89062 0.10547-1.0508-1.0312-0.14453-0.99609 0.10547-0.98438-0.35156-0.76172-1.0117-0.61719-0.99219-0.71484-1.3047-0.097656-1.2383-0.58984-0.83203-1.1445 0.14844-1.1914 0.125-1.2383-0.16016-1.1328-0.12109-1.168-0.046875-1.1836-0.21094-1.1562-0.42188-0.91406-0.64844-1.1367-0.50781-0.94922-1.0742-0.86719-1.0078-0.88672-0.52344-1.0703-0.41406-1.2188-0.38281-0.73047-0.94531-1.1992-0.71094-1.1367-0.17578-1.1875 0.82812-2.1719-0.58203-1.1797-0.28125-1.1953-0.57031-1.0781-0.47656-1.1211 0.32812-1.0469-0.28516-0.76953-0.77734-1.2852-0.45312-1.0547-0.39844-1.1367-0.30078-1.0352-0.30469-0.85938-0.62109-1.3008-0.26562-1.1289-0.47266-1.0234 0.27344-0.91016-0.61719-0.92188 0.40234-0.91406-0.48438-0.90625-0.50391-0.73047-0.70703-1.1094 0.36719-1.3008-0.066406-0.85938-0.62891-0.65234-0.96875-0.71094-0.875-1.2734-0.16406-1.1758-0.46875-0.29688-1.0234-0.69922-0.78906-1-0.015625-1.2188-1.0039-0.89062-0.57812 0.13672-1.3125 0.046875-1.1211-0.48438-0.95312-0.83984-1.1094-0.82031-0.86328-1.5312-0.86719-1.0273-0.33203-0.40234-1.2969-1.0352-0.81641-1.0312-1.0938-1.2773-1.1328-0.98047-1.0508-0.42969-1.0898-1.0078-0.66797-0.57031-1.0234-0.32422-1.418-0.14062-1.0508-1.1367-0.67969-0.97266-1.5508-0.44141-0.95703-0.51562-1.0039-0.44141-0.99609-0.88672-0.5-1-0.074218-0.92969-0.80078-0.88281-0.71094-1.2031-0.09375-0.92578-0.41406-1.1523-0.39844-1.0898-0.33203-0.45703-1.0938-0.51562-1.0156-0.87109-0.75391-0.61719-0.89453-0.57031-1.0078-0.30078-1-0.11328-1.207-0.050781-1.1445-0.0625-1.0117 1.0156-0.41016 0.52734-0.023437" fill="none" stroke="#fff" stroke-linecap="round" stroke-linejoin="round" stroke-miterlimit="10" stroke-width="2"/>
<path d="m414.92 217.43 0.35938 0.054688 1.3516 0.28125 0.92578 0.78516 0.59375 1.4688 0.64453 0.79297 0.96484 0.60156 1.1484 0.085938 1.0508-0.66016 0.63672-0.89844 0.63672-0.87891 1.2227-0.47266 1.5625 0.13672 1.2305 0.79688 0.5625 1.0742 0.22656 1.043 0.65234 2.2539 0.55469 0.89844 1.6211 0.35547 1.1367-0.0625 1.3047-0.20312 1.168 0.10938 0.97266 0.64844 0.33594 1.1367 0.6875 1.0625 0.96484 0.51953 1.3789 0.054687 1.3203 0.42188 1.2031 0.17969 1.3047 0.36328 1.1406 0.51562 0.94141 0.83984-0.082032 1.1133-1.0078 1.3008-0.28125 1.3242 0.71094 0.97266 1.3008-0.019531 1.0586-0.32031 0.8125-0.88672 0.78125 1.0664-0.10547 1.2695-0.63672 1.1445-0.49609 1.2617 0.050781 1.1445 0.70703 0.99219 1.0156 0.66797 1.2773 0.39453 1.5703-0.089844 1.6484-0.60938 1.2383-0.53516 0.56641-0.92188-0.28125-1.1133-0.75391-0.6875-1.5195-0.38281-1.2539-0.47656 0.03125-1.0234 1.1211-0.125 1.457 0.066407 1.1914 0.45703 0.87109 0.77344 0.73047 0.97266 0.5 1.168 0.67969 0.98438 1.1914 0.49609 1.2344-0.23438 0.80859-0.60938 0.82812-0.70703 1.4219 1.168 0.69922 1.2148 0.15625 1.1211 0.30859 1.5039 0.8125 0.94141 1.2695 0.44922 1.3828-0.26562 1.2227-1.1641 0.73047-0.74219 0.84766-0.625 1.3125-0.47266 1.6289 0.37891 1.1602 0.42969 0.99609 0.47266 1.1367-0.22656 0.96484 0.62891-0.13672 1.3281-1.2812 0.99219-1.2031 0.20312-1.1992 0.09375-1.1758 0.52344-0.64453 1.1406 0.63281 1.0781 1.1641 0.70703 1.4609 0.26953 1.0391-0.1875 1.5-0.83594 1.2148-0.96094 0.66797-0.87109 1.6367-0.17578 0.92969 0.45312 0.95312 1.168 0.41406 1.0039 0.26562 1.6484 0.23047 1.7305 0.10156 1.0703 0.36719 1.7539 0.78125 1.0352 1.2891 0.35156 0.75-0.78516 0.33984-1.0898 1.0547-0.44141 0.98438 0.62891 0.54297 1.0234 0.13672 1.0078-0.51562 1.2266-0.21484 1.0234 0.91797 0.42969 1.0195 0.71094 1.1953 0.21094 1.3477-1.1953 0.57031-1.2773 0.054688-1.0117 0.63672-1.2188 1.1914-0.13672 0.79688 0.97266 0.55078 0.98828 0.35156 1.1914v1.2461l-0.37109 1.1953-0.097656 1.1719 0.1875 1.3633 0.32031 0.98438 0.42969 0.91406-0.49609 1.1953-0.45312 1.0352-0.62891 0.84375-2.4414 3.75-33.477 52.836-1.0156-0.28906-0.90234-0.75781-0.74609-0.69922-0.91797-0.56641-1.0586-0.25391-1.1445 0.11328-1.0078 0.35938-0.87891 0.59766-0.93359 0.49219-0.99219 0.35938-1.0273 0.22266-1.0508 0.074219-1.0508-0.066407-1.0352-0.21094-0.99219-0.35156-1.1172-0.59766-0.67188-0.83594-0.5-1.0586-0.71094-1.0977-1.2266-0.58984-1.0547-0.12109-1.2461-0.14062-1.1719 0.48047-1.9375 0.24219-2.375 0.24609-1.5547 0.054688-2.0195-0.30859-1.0469-0.30859-1.7852-0.53125-1.4766-0.44531-2.3086-0.80469-1.5039-0.60156-1.2383-0.69922-0.93359-0.62109-1.4297-0.96875-1.3125-0.96484-0.95312-1.0625-0.35938-0.96484-0.75-0.69531-0.94531-0.38281-0.88672-0.55078-0.86719-0.62109-1.1367-0.097657-1.0312-0.18359-0.98047-0.40625-0.85938-0.64062-0.12891-1.3203-0.27734-1.0195-1.0391-0.37891-1.3672 0.10156-1.1719-0.11328-1.5859-0.050781-1.2617-0.019532-1.0898-0.12891-1.0195 0.050781-1.3242 0.37109-1.0156 0.20312-1.3594 0.09375-1.1211-0.027344-1.0117-0.13281-1.0859 0.24609-1.0078-0.054688-0.64453-0.84375-1.1758-0.48047-0.89453-0.52344-1.0742 0.11719-1.0586-0.35547-0.52734-0.96094-0.88672-0.49609-0.96875-0.26172-1.8398-0.33984-1.0859 0.035156-1.1016 0.49609-0.47266 0.88281-1.2188 0.63281-0.99219 0.16797-1.1445 0.16406-1.3086 0.20312-1.043-0.20703-0.60938-0.91016 0.125-1.1133 0.042969-1-0.91016-0.44922-0.96484-0.36719-1.0547-0.51953-0.74609-1.1016-0.65234-1.2656-0.68359-1.1211-0.86328-0.73438-0.99219-0.42578-1.2773-0.16797-1.2695-0.30469-0.94922-0.32031-1.1484-0.46094-1.1172-0.80469-1.1641-0.70703-0.99219-0.17969-1.1875-0.035156-1.1172-0.41016-0.875-0.52344-0.77344-0.72656-0.86719-0.57031-1.0586 0.24609-1.0547 0.13672-1.0625 0.042969-1.0625-0.046875-1.0547-0.13672-1.043-0.23047-0.99219-0.34375-1.2227-0.78125-0.82031-0.74219-0.80859-1.0625-0.76953-1.6719-0.40625-1.4375-0.10547-1.1523 0.17188-1.0391 0.26172-1-0.30859-1.0859-0.71875-0.76953-0.90625-0.61719-0.98828-0.28906-1.1836 0.28125-1.1523 0.089844-1.0703-0.16016-1.0039-0.375-1.0469-0.58594-1.2148-0.28906-1.043-0.003907-1.0781-0.011718-1.2305-0.17188-1.2422-0.30469-1.1797-0.37109-1.543-0.58203-0.99219-0.4375-0.85156-0.58594-0.79297-0.80859-0.67578-0.98438-0.52344-1.082-0.42578-0.98047-0.69141-0.74609-1.1758 0.29297-0.95312 0.42578-1 0.71484-0.96484 0.42969-1.0938 0.14844-1.1211-0.078125-1.1328-0.23047-1.0117-0.47266 0.84766-1.0312 0.84375-0.95703 1.082-0.625 1.1133-0.3125 1.1094-0.24609 1.5352-0.38672 1.3281-0.41406 1.3555-0.41406 1.4648-0.48828 1.207-0.48828 0.69922-0.73438-0.14844-1.2461-0.007812-1.3477 0.18359-1.1758 0.35156-1.2148 0.46094-1.0547 0.6875-1.0703 0.84766-1.0625 0.70312-0.90625 0.41016-1.1914-0.03125-1.0547-0.46484-1.0586-0.60547-0.94922 0.007813-1.1797 0.85938-1.1211 0.875-0.99219 0.72656-0.82031 0.68359-0.88281-0.35547-1.2422-0.84375-1.8281-0.19922-1.0586 0.89844-1.2773 0.91406-0.81641 1.0039-0.48828 1.3516-0.14844 1.1914 0.082031 1.0234 0.18359 1.1211 0.10547 1.0586-0.24609 0.69141-0.83594 0.60547-0.88281 0.89453-0.5 0.46094-1.1602 0.47656-0.95312 1.0469-0.14844 1.1875 0.55469 1.0273 0.20703 1.1289-0.007813 0.60547-0.8125 1.0312-0.30078 1.0312 0.75391 0.77344 0.71094 1.2578-0.13281 1.1797-0.75781 0.98438-0.42969 0.74219-0.75 0.48828-0.95703 0.55469-0.87109 0.98047-0.80859 0.68359-0.84766 0.33203-1.0859 0.53906-1.0039 0.79688-0.67578 1.0781-0.24609 1.0898 0.17188 1.1055-0.003906 0.91016 0.50781 1.082-0.16406 1.1602 0.14062 1.3125 0.31641 1.125 0.42188 0.98047 0.22656 0.96094-0.30078 0.85156-0.89844 0.97656-0.52344 0.38672-0.97656-0.15625-1.1914-0.70312-1.4961-0.40234-0.9375-0.28516-0.99609 0.44141-1.2148 1.2891-0.51953 1.2578 0.15234 1.2383 0.98047 0.79688 1.1289 0.58984 1.2695 0.46875 1.0781 0.98047 0.79688 1.0664 0.69141 0.87891 0.89062-0.035156 1.4609-0.67578 1.4805-0.18359 1.1914 0.71484 1.0781 1.0156 0.078125 1.0547-0.99609 1.5742-1.0977 0.98047-0.30469 1.0859 0.22656 1.2695-0.35938 0.74609-0.82031 0.26562-1.4531 0.63672-0.80078 1.4766-0.51562 1.2383-0.39453 0.52344 1.0273-0.39453 1 1.1406-0.17188 0.52344-0.96875 1.1484-0.58594 1.0391 0.25 0.76172 0.77344 0.83203 1.4727 0.90234 0.89844 1.0781 0.44922 1.1133-0.046875 0.37891-1.0117 0.085937-1.1992 0.21094-1.2969 1.0117-0.57812 1.1641 0.57422 1.0469 0.054687 0.11328-1.3398-0.49609-1.0859-0.58984-0.8125 0.3125-1.2383 1.1562-0.73438 1.3672-0.33984 1.125-0.22266 1.1758-0.10938 1.0781-0.16016 1.3672-0.27734 1.1133 0.19922 1.0859 0.21094 0.95312 0.78906 0.625 1.0703 0.96875 0.56641 1.2148-0.019531 0.19531-1.3047-0.82031-1.4258-0.82812-1.3164-0.80469-1.418-0.10938-1.2539 0.61719-1.2305 1.0664-0.48047z" fill="#ccc" fill-rule="evenodd"/>
<path d="m414.92 217.43 0.35938 0.054688 1.3516 0.28125 0.92578 0.78516 0.59375 1.4688 0.64453 0.79297 0.96484 0.60156 1.1484 0.085938 1.0508-0.66016 0.63672-0.89844 0.63672-0.87891 1.2227-0.47266 1.5625 0.13672 1.2305 0.79688 0.5625 1.0742 0.22656 1.043 0.65234 2.2539 0.55469 0.89844 1.6211 0.35547 1.1367-0.0625 1.3047-0.20312 1.168 0.10938 0.97266 0.64844 0.33594 1.1367 0.6875 1.0625 0.96484 0.51953 1.3789 0.054687 1.3203 0.42188 1.2031 0.17969 1.3047 0.36328 1.1406 0.51562 0.94141 0.83984-0.082032 1.1133-1.0078 1.3008-0.28125 1.3242 0.71094 0.97266 1.3008-0.019531 1.0586-0.32031 0.8125-0.88672 0.78125 1.0664-0.10547 1.2695-0.63672 1.1445-0.49609 1.2617 0.050781 1.1445 0.70703 0.99219 1.0156 0.66797 1.2773 0.39453 1.5703-0.089844 1.6484-0.60938 1.2383-0.53516 0.56641-0.92188-0.28125-1.1133-0.75391-0.6875-1.5195-0.38281-1.2539-0.47656 0.03125-1.0234 1.1211-0.125 1.457 0.066407 1.1914 0.45703 0.87109 0.77344 0.73047 0.97266 0.5 1.168 0.67969 0.98438 1.1914 0.49609 1.2344-0.23438 0.80859-0.60938 0.82812-0.70703 1.4219 1.168 0.69922 1.2148 0.15625 1.1211 0.30859 1.5039 0.8125 0.94141 1.2695 0.44922 1.3828-0.26562 1.2227-1.1641 0.73047-0.74219 0.84766-0.625 1.3125-0.47266 1.6289 0.37891 1.1602 0.42969 0.99609 0.47266 1.1367-0.22656 0.96484 0.62891-0.13672 1.3281-1.2812 0.99219-1.2031 0.20312-1.1992 0.09375-1.1758 0.52344-0.64453 1.1406 0.63281 1.0781 1.1641 0.70703 1.4609 0.26953 1.0391-0.1875 1.5-0.83594 1.2148-0.96094 0.66797-0.87109 1.6367-0.17578 0.92969 0.45312 0.95312 1.168 0.41406 1.0039 0.26562 1.6484 0.23047 1.7305 0.10156 1.0703 0.36719 1.7539 0.78125 1.0352 1.2891 0.35156 0.75-0.78516 0.33984-1.0898 1.0547-0.44141 0.98438 0.62891 0.54297 1.0234 0.13672 1.0078-0.51562 1.2266-0.21484 1.0234 0.91797 0.42969 1.0195 0.71094 1.1953 0.21094 1.3477-1.1953 0.57031-1.2773 0.054688-1.0117 0.63672-1.2188 1.1914-0.13672 0.79688 0.97266 0.55078 0.98828 0.35156 1.1914v1.2461l-0.37109 1.1953-0.097656 1.1719 0.1875 1.3633 0.32031 0.98438 0.42969 0.91406-0.49609 1.1953-0.45312 1.0352-0.62891 0.84375-2.4414 3.75-33.477 52.836-1.0156-0.28906-0.90234-0.75781-0.74609-0.69922-0.91797-0.56641-1.0586-0.25391-1.1445 0.11328-1.0078 0.35938-0.87891 0.59766-0.93359 0.49219-0.99219 0.35938-1.0273 0.22266-1.0508 0.074219-1.0508-0.066407-1.0352-0.21094-0.99219-0.35156-1.1172-0.59766-0.67188-0.83594-0.5-1.0586-0.71094-1.0977-1.2266-0.58984-1.0547-0.12109-1.2461-0.14062-1.1719 0.48047-1.9375 0.24219-2.375 0.24609-1.5547 0.054688-2.0195-0.30859-1.0469-0.30859-1.7852-0.53125-1.4766-0.44531-2.3086-0.80469-1.5039-0.60156-1.2383-0.69922-0.93359-0.62109-1.4297-0.96875-1.3125-0.96484-0.95312-1.0625-0.35938-0.96484-0.75-0.69531-0.94531-0.38281-0.88672-0.55078-0.86719-0.62109-1.1367-0.097657-1.0312-0.18359-0.98047-0.40625-0.85938-0.64062-0.12891-1.3203-0.27734-1.0195-1.0391-0.37891-1.3672 0.10156-1.1719-0.11328-1.5859-0.050781-1.2617-0.019532-1.0898-0.12891-1.0195 0.050781-1.3242 0.37109-1.0156 0.20312-1.3594 0.09375-1.1211-0.027344-1.0117-0.13281-1.0859 0.24609-1.0078-0.054688-0.64453-0.84375-1.1758-0.48047-0.89453-0.52344-1.0742 0.11719-1.0586-0.35547-0.52734-0.96094-0.88672-0.49609-0.96875-0.26172-1.8398-0.33984-1.0859 0.035156-1.1016 0.49609-0.47266 0.88281-1.2188 0.63281-0.99219 0.16797-1.1445 0.16406-1.3086 0.20312-1.043-0.20703-0.60938-0.91016 0.125-1.1133 0.042969-1-0.91016-0.44922-0.96484-0.36719-1.0547-0.51953-0.74609-1.1016-0.65234-1.2656-0.68359-1.1211-0.86328-0.73438-0.99219-0.42578-1.2773-0.16797-1.2695-0.30469-0.94922-0.32031-1.1484-0.46094-1.1172-0.80469-1.1641-0.70703-0.99219-0.17969-1.1875-0.035156-1.1172-0.41016-0.875-0.52344-0.77344-0.72656-0.86719-0.57031-1.0586 0.24609-1.0547 0.13672-1.0625 0.042969-1.0625-0.046875-1.0547-0.13672-1.043-0.23047-0.99219-0.34375-1.2227-0.78125-0.82031-0.74219-0.80859-1.0625-0.76953-1.6719-0.40625-1.4375-0.10547-1.1523 0.17188-1.0391 0.26172-1-0.30859-1.0859-0.71875-0.76953-0.90625-0.61719-0.98828-0.28906-1.1836 0.28125-1.1523 0.089844-1.0703-0.16016-1.0039-0.375-1.0469-0.58594-1.2148-0.28906-1.043-0.003907-1.0781-0.011718-1.2305-0.17188-1.2422-0.30469-1.1797-0.37109-1.543-0.58203-0.99219-0.4375-0.85156-0.58594-0.79297-0.80859-0.67578-0.98438-0.52344-1.082-0.42578-0.98047-0.69141-0.74609-1.1758 0.29297-0.95312 0.42578-1 0.71484-0.96484 0.42969-1.0938 0.14844-1.1211-0.078125-1.1328-0.23047-1.0117-0.47266 0.84766-1.0312 0.84375-0.95703 1.082-0.625 1.1133-0.3125 1.1094-0.24609 1.5352-0.38672 1.3281-0.41406 1.3555-0.41406 1.4648-0.48828 1.207-0.48828 0.69922-0.73438-0.14844-1.2461-0.007812-1.3477 0.18359-1.1758 0.35156-1.2148 0.46094-1.0547 0.6875-1.0703 0.84766-1.0625 0.70312-0.90625 0.41016-1.1914-0.03125-1.0547-0.46484-1.0586-0.60547-0.94922 0.007813-1.1797 0.85938-1.1211 0.875-0.99219 0.72656-0.82031 0.68359-0.88281-0.35547-1.2422-0.84375-1.8281-0.19922-1.0586 0.89844-1.2773 0.91406-0.81641 1.0039-0.48828 1.3516-0.14844 1.1914 0.082031 1.0234 0.18359 1.1211 0.10547 1.0586-0.24609 0.69141-0.83594 0.60547-0.88281 0.89453-0.5 0.46094-1.1602 0.47656-0.95312 1.0469-0.14844 1.1875 0.55469 1.0273 0.20703 1.1289-0.007813 0.60547-0.8125 1.0312-0.30078 1.0312 0.75391 0.77344 0.71094 1.2578-0.13281 1.1797-0.75781 0.98438-0.42969 0.74219-0.75 0.48828-0.95703 0.55469-0.87109 0.98047-0.80859 0.68359-0.84766 0.33203-1.0859 0.53906-1.0039 0.79688-0.67578 1.0781-0.24609 1.0898 0.17188 1.1055-0.003906 0.91016 0.50781 1.082-0.16406 1.1602 0.14062 1.3125 0.31641 1.125 0.42188 0.98047 0.22656 0.96094-0.30078 0.85156-0.89844 0.97656-0.52344 0.38672-0.97656-0.15625-1.1914-0.70312-1.4961-0.40234-0.9375-0.28516-0.99609 0.44141-1.2148 1.2891-0.51953 1.2578 0.15234 1.2383 0.98047 0.79688 1.1289 0.58984 1.2695 0.46875 1.0781 0.98047 0.79688 1.0664 0.69141 0.87891 0.89062-0.035156 1.4609-0.67578 1.4805-0.18359 1.1914 0.71484 1.0781 1.0156 0.078125 1.0547-0.99609 1.5742-1.0977 0.98047-0.30469 1.0859 0.22656 1.2695-0.35938 0.74609-0.82031 0.26562-1.4531 0.63672-0.80078 1.4766-0.51562 1.2383-0.39453 0.52344 1.0273-0.39453 1 1.1406-0.17188 0.52344-0.96875 1.1484-0.58594 1.0391 0.25 0.76172 0.77344 0.83203 1.4727 0.90234 0.89844 1.0781 0.44922 1.1133-0.046875 0.37891-1.0117 0.085937-1.1992 0.21094-1.2969 1.0117-0.57812 1.1641 0.57422 1.0469 0.054687 0.11328-1.3398-0.49609-1.0859-0.58984-0.8125 0.3125-1.2383 1.1562-0.73438 1.3672-0.33984 1.125-0.22266 1.1758-0.10938 1.0781-0.16016 1.3672-0.27734 1.1133 0.19922 1.0859 0.21094 0.95312 0.78906 0.625 1.0703 0.96875 0.56641 1.2148-0.019531 0.19531-1.3047-0.82031-1.4258-0.82812-1.3164-0.80469-1.418-0.10938-1.2539 0.61719-1.2305 1.0664-0.48047 0.44141 0.09375" fill="none" stroke="#fff" stroke-linecap="round" stroke-linejoin="round" stroke-miterlimit="10" stroke-width="2"/>
<path d="m38.73 22.336 0.22656 0.097656 1.0039 0.39453 0.77344 0.72266 0.91797 0.625 0.92578 0.82031 1.082 0.44531 1.2148 0.26953 1.0273 0.41406 1.0234-0.058594 1.0156 0.34766 0.88281 0.83203 0.81641 0.9375 1.2148 0.79688 1.0391 1.0156 0.86719 1.3672 1.0547 0.76953 1.2109 0.3125 1.2344-0.003907 1.0781 0.20703 0.21875 1.2461 0.0625 1.1328 0.74609 0.94531 1 0.67188 1.0625 0.50781 0.47266 1.0469 0.97656 0.32031 0.32812-1.2617 1.0195 0.17188 0.51562 0.96875 0.29688 1.0352 1.2031 0.94922 1.5547-0.015625 1.1914-0.28125 0.87891-0.60156 0.43359-0.92188 0.71875-1.1797 1.1328-0.68359 0.67969-0.74609 0.90625 0.53516 0.99609 0.28516 1.1016 0.50781 0.90234 1.0859 0.64844 0.96875 0.56641 1.1914 0.59375 0.82031 0.14062 1.2422 0.37891 0.98438 0.73828 0.90234 0.36328 0.95703 0.050781 1.3555-0.27734 1.0352v1.1289l0.77344 0.94531 0.90625 0.43359 0.93359-0.46484 1.0391-1.2461 1.0195 0.011719 0.19531 1.0664-0.46094 1.168 0.71484 0.98438 1.2812 0.64453 0.77344-0.68359 1.0977-0.57812 1.207-0.28125 0.98828-0.51953 0.56641 0.91406-0.51953 0.96094 0.5625 0.92578 1.3477 0.035156 1.1719 0.4375 0.58984 0.92188 0.11719 1.1328 0.97266 0.57031 1.0625 0.625 0.62109 0.86328 0.52734 1.1602 0.55469 1.2773 1.1211 0.75391 1.1953-0.63281 0.91016 0.49609-0.50391 1.1719 0.91406 0.66016 0.76172-0.93359 1.1094 0.12891 1.3438 0.9375 0.95312 0.50391 1.0078 0.21094 1.0781 0.375-0.19531 1.4102-0.089844 1.4023-0.12109 1.082 0.42578 1.0195 1.0742-0.13672 0.62891-1.0391 1.0977 0.48828 0.13672 1.0078-0.10156 1.3359 0.12891 1.0547 0.87109 1.3945 0.96094 0.625 0.65625 1.3516-0.125 1.1641-0.875 0.69922 0.085938 1.0625 0.6875 0.76172 1.0078 0.35547 1.0742 0.61719 0.19531 1.0625-0.45312 1.375-1.2305 0.69141-1.0859 0.21484-0.65625 1.0586 0.48047 1.1328 1.1094 0.80469 0.97656 0.96875 2.0508-0.16406 1.1055 0.10156-0.058594 1.4375-0.55469 1.1367 1.2109 0.79297 0.625-0.78516 0.80078-0.89844 0.87109 0.70312-0.42969 0.96094-0.34766 0.94141-0.14453 1.3398 0.94531 0.76562 1.332-0.47656 0.94531-0.51562 0.87891 0.58984-0.92188 0.84375-0.89062 0.87891-0.42188 0.99219 0.30859 1.4336-0.5625 1.0977-0.91406-0.62109-0.88281-0.55859-1.1484-0.26562-1.0977 0.86719-0.17578 1.0547 0.78125 0.82422 1.7344-0.20703 1.1992 0.57812 0.46094 1.0938 0.125 1.0352 0.60547 1.3828-0.03125 1.1367-0.46484 1.0352 0.074219 1.4062 1.2734 0.80078 0.95312 0.45312 1.0352 0.67188 0.90234 0.64844 2.1836 0.25781 1.1055-0.40234 1.1172-0.082031 1.3125 0.48828 0.88281 0.48047 1.0195 0.63672 0.88281 0.57031 1.3906 0.86328 1.1562 0.57812 1.2539 0.32422 1 0.21484 1.0352 0.17188 1.2812-0.41406 0.60547-0.8125 0.23828-1.2148 0.17969-1.0977 0.95312-0.83594 1.0352 0.64062-0.023437 1.2266-0.375 1.0039-0.14453 1.0508-0.042968 1.3477 0.44141 1.3945 0.60938 1.293 0.76562 0.65234 1.2969 0.27734 0.88281-0.73438 0.94531-0.95703 1.2422 0.44531 0.125 1.0938-1.0508 1.1133-0.019531 1.1523 0.92969 0.48828 1.3008-0.35547 1.1094-0.67969 1.2148-0.050782 0.81641 0.625 0.68359 0.91797 0.23828 1.1445-0.16016 1.1094 0.87109 1.6641 0.83203 0.81641 0.6875 0.99219 0.1875 2.0039 0.93359 0.77344 0.98438 0.22656 1.0391 0.074219 0.99609 0.11328 0.82031 0.86719 1.0078 0.29688 0.97266-0.73438 0.85156 0.65234 0.76953 0.96094 1.3984-1.2617 0.51953-0.96875-0.058594-1.0234-0.011718-1.2852 0.78125-0.80469 0.11719 1.1328 0.12891 1.0586 0.24609 1.2695 1.1289 0.83594 1.6797 0.38672 1.4219-0.52344 0.83984-0.67969 1.4062 0.67969 0.66016 0.78516 0.78906 0.91016 1.1406 0.31641 1.2734-0.80469 0.5625 1.2305 0.054687 1.207 0.25781 1.1523 0.17188 1.457 0.90625 0.87891 1.2539 0.16797 0.91016-0.68359 0.78125 0.66406-0.60156 0.82812-0.085938 1.1445-0.074218 1.0234 1.2266 1.0742 0.55469 0.94922 0.47266 0.99219 0.29688 1.1758-0.78906 1.0977-0.98438-0.32031-1.0273-0.14453-0.097657 1.0664 1.1875 0.31641 1.0078 0.046875h1.2383l-0.48828 0.87891-1.0117 0.55469-1.1172 0.375-1.0859 0.058593-1.0625-0.22656-0.8125-0.73047-0.26953-1.1211-0.48047-0.98438-0.77344-0.94141-0.67969-0.88281-0.9375-0.60156-1.0781-0.10547-1.0312-0.12891-1.0469-0.03125-0.97266 0.64062-1.1172 0.046875-1.0586-0.29688-1-0.09375-0.98828-0.21094-1.1016 0.57031-1.2656 0.41406-1.0039 0.11719-0.92969-0.80078-0.48828-1.1719-1.0977-0.62109-0.85156-0.53125-0.91406-0.67578-0.98828-0.58594-1.0547-0.52734-0.98438-0.50391-0.21094-1.0508-0.050781-1-0.32812-1.0664-0.60938-0.84766-1.2695-0.19141-1.0664-0.089843-1-0.75391-0.64844-1.2109-0.71094-0.93359-0.98047-0.55469-1.1445-0.32812-1.2461-0.33203-2.0039-0.40234-1.2734-0.26562-1.1758-0.33594-1.2539-0.11328-1.3555 0.25781-1.3164 0.40234-1.0078 0.27344-1.5039 0.32422-1.3281-0.011718-0.95312-0.37891-1.0742-0.03125-1.0273 0.027344-1.1719-0.95703-0.95703-0.58984h-1.0469l-1.4727-0.035156-1.4492-0.84766-0.84766-0.79297-0.81641-0.83594-0.81641-1.5977-0.68359-0.82031-0.79297-0.63672-1.0039-0.15234-1.5-0.89062-1.0352-1.0547-0.69922-0.73438-1.3047-0.75391-1.5195-0.60156-0.98438-0.70703-1.0391-0.57812-0.78516-0.65234-0.75781-0.72656-0.46875-1.1016-0.71484-0.73828-0.97656-0.30469-1.1719 0.066406-1.3164 0.13672-1.2461-0.11719-0.96484-0.45703-1.0586-0.21484-0.94922-0.4375-0.80859-1.0039-0.89844-0.66406-0.88281-0.61719-0.99609-0.32031-1.0703 0.16016-0.96875 0.51172-0.82031 0.78906h-1.0547l-1.1875-0.46484-1.5117-1.4688-1.7227-2.1172-1.1133-0.21094-0.97656-0.28516-1.9922-0.09375-1.1016-0.042968-0.84766-0.69141-1.2188-0.011718-1.0625-0.34766-0.99609-0.48828-1.2305-0.007812-1.1445 0.28125-1.0938-0.17969-1.0273-0.26562-1.0273 0.050781-0.73828-0.69922-0.65234-0.8125-1.0234-0.66797-0.85547-0.71484-1.0195-0.007812-1.0195 0.19922-0.82031-0.76562-0.91406-0.78516-1.0195-0.31641-1.1953-0.085938-1.1367-0.24609-1.0039 0.035156-1.0195 0.29297-1.25 0.16016-1.0078-0.39844-0.79297-1.1875-1.0586-0.98828-1.2812-0.11719-0.76953-1.043-0.39844-0.92578-0.35938-1.0352-0.60938-1.3008-0.97656-1.8633-1.1562-0.61328-1.0469-0.69531-0.91797-0.49219-0.84375-0.5625-1.0391 0.20703-0.98438-0.54297-0.54688-0.85938-1.0781-0.003906-1.1797 0.074219-1.3516-0.28516-1.1406-0.49219-1.0078-0.64844-0.72266-0.72656-0.9375-0.54688-1.1758-0.45312-1.7969-0.40625-1.0312-0.28906-0.91797-0.46094-0.49609-0.87109 1.1172-0.62891-0.46094-0.90625-1.1094-0.17969-0.99219-0.51562-1.2031-0.98828 0.035156-1.0273-0.44141-0.99219-0.59375-0.84766 0.6875-0.83984-0.12891-1.0195 0.89062-0.72656-0.14453-0.99609-0.61328-0.81641-0.64453-0.78906 0.25-1.0117 0.46484-0.90625 0.66406-0.75781-0.46484-0.89453-0.35938-0.95703-0.93359-0.36328 0.30859-0.96094-0.074219-1.0312-1.0195-0.30859-0.8125 0.79297-0.64844-0.83594 0.25391-0.97656-0.85547-0.66406-0.9375-0.39062-0.66406 0.75391-0.50781-0.88281-1.1133-0.12891-0.058594-1.0234-0.10547-1.2109-0.82422-0.66406-0.54297-0.88672-0.74219 0.72266-1.0117 0.23438-0.51562-0.91406-0.75-0.72266-0.98047-0.30469-0.99609-0.46875-0.51172-0.875 0.011719-1.0156-0.8125-0.625-0.66406-0.75391-0.85156-0.69922-0.49609-0.87891-0.40234-0.94531-0.67969-0.75-0.60156-0.82031-0.35938-0.99219-0.60156-0.82422-0.60547-0.79688-0.53516-0.89453-0.25-1.0391-0.63281-0.78516 0.011718-1.0391-0.17188-0.99219-0.5-0.92188v-1.0547l-0.12109-1.0312-0.76562-0.64844-0.60938-0.82422-0.76172-0.75391-0.51953-0.91016-0.59766-0.85547-1.0039-0.67969-0.77734-0.71875-1.0625-0.058594-1.0078 0.50391-1.0234-0.074218-1.0078 0.015625-0.75781 0.66797-1.0234-0.035156-0.64844-2.8672-0.0078125-4.0508 1.0117-0.10156 0.65234 0.76562 1.0352 0.085937 0.83984 0.58203 1 0.15625 0.89844-0.44922 0.64453-0.77734 1.0273 0.12109 0.99609-0.12891 1.043 0.30859 0.69922 0.74609 0.94531 0.37109 1.0078 0.0625 0.73828 0.6875 0.74609 0.68359 0.99219 0.15234 0.92188 0.46484 1.0195 0.011719 0.91406 0.50391 0.79297 0.61719 1.0508-0.11328 1.0078 0.011719 1.0039-0.070312 0.875-0.625 0.21875-1.0391 1.0117-0.027344-0.27344 1.0117 1.0781 0.12891 1.0039-0.097656 1.0742 0.078125 1.0352-0.26953 0.89844-0.51172 0.98828 0.33594 0.37891-0.97656 0.72656-0.82031 1.0078-0.44922 0.85938-0.83203 0.60156-1.1914 1.0469-0.81641 0.82422-0.79688 0.63281-0.8125 0.21094-1.3672 0.15234-1.1953 0.99219-0.43359 1.3555-0.5z" fill="#ccc" fill-rule="evenodd"/>
<path d="m38.73 22.336 0.22656 0.097656 1.0039 0.39453 0.77344 0.72266 0.91797 0.625 0.92578 0.82031 1.082 0.44531 1.2148 0.26953 1.0273 0.41406 1.0234-0.058594 1.0156 0.34766 0.88281 0.83203 0.81641 0.9375 1.2148 0.79688 1.0391 1.0156 0.86719 1.3672 1.0547 0.76953 1.2109 0.3125 1.2344-0.003907 1.0781 0.20703 0.21875 1.2461 0.0625 1.1328 0.74609 0.94531 1 0.67188 1.0625 0.50781 0.47266 1.0469 0.97656 0.32031 0.32812-1.2617 1.0195 0.17188 0.51562 0.96875 0.29688 1.0352 1.2031 0.94922 1.5547-0.015625 1.1914-0.28125 0.87891-0.60156 0.43359-0.92188 0.71875-1.1797 1.1328-0.68359 0.67969-0.74609 0.90625 0.53516 0.99609 0.28516 1.1016 0.50781 0.90234 1.0859 0.64844 0.96875 0.56641 1.1914 0.59375 0.82031 0.14062 1.2422 0.37891 0.98438 0.73828 0.90234 0.36328 0.95703 0.050781 1.3555-0.27734 1.0352v1.1289l0.77344 0.94531 0.90625 0.43359 0.93359-0.46484 1.0391-1.2461 1.0195 0.011719 0.19531 1.0664-0.46094 1.168 0.71484 0.98438 1.2812 0.64453 0.77344-0.68359 1.0977-0.57812 1.207-0.28125 0.98828-0.51953 0.56641 0.91406-0.51953 0.96094 0.5625 0.92578 1.3477 0.035156 1.1719 0.4375 0.58984 0.92188 0.11719 1.1328 0.97266 0.57031 1.0625 0.625 0.62109 0.86328 0.52734 1.1602 0.55469 1.2773 1.1211 0.75391 1.1953-0.63281 0.91016 0.49609-0.50391 1.1719 0.91406 0.66016 0.76172-0.93359 1.1094 0.12891 1.3438 0.9375 0.95312 0.50391 1.0078 0.21094 1.0781 0.375-0.19531 1.4102-0.089844 1.4023-0.12109 1.082 0.42578 1.0195 1.0742-0.13672 0.62891-1.0391 1.0977 0.48828 0.13672 1.0078-0.10156 1.3359 0.12891 1.0547 0.87109 1.3945 0.96094 0.625 0.65625 1.3516-0.125 1.1641-0.875 0.69922 0.085938 1.0625 0.6875 0.76172 1.0078 0.35547 1.0742 0.61719 0.19531 1.0625-0.45312 1.375-1.2305 0.69141-1.0859 0.21484-0.65625 1.0586 0.48047 1.1328 1.1094 0.80469 0.97656 0.96875 2.0508-0.16406 1.1055 0.10156-0.058594 1.4375-0.55469 1.1367 1.2109 0.79297 0.625-0.78516 0.80078-0.89844 0.87109 0.70312-0.42969 0.96094-0.34766 0.94141-0.14453 1.3398 0.94531 0.76562 1.332-0.47656 0.94531-0.51562 0.87891 0.58984-0.92188 0.84375-0.89062 0.87891-0.42188 0.99219 0.30859 1.4336-0.5625 1.0977-0.91406-0.62109-0.88281-0.55859-1.1484-0.26562-1.0977 0.86719-0.17578 1.0547 0.78125 0.82422 1.7344-0.20703 1.1992 0.57812 0.46094 1.0938 0.125 1.0352 0.60547 1.3828-0.03125 1.1367-0.46484 1.0352 0.074219 1.4062 1.2734 0.80078 0.95312 0.45312 1.0352 0.67188 0.90234 0.64844 2.1836 0.25781 1.1055-0.40234 1.1172-0.082031 1.3125 0.48828 0.88281 0.48047 1.0195 0.63672 0.88281 0.57031 1.3906 0.86328 1.1562 0.57812 1.2539 0.32422 1 0.21484 1.0352 0.17188 1.2812-0.41406 0.60547-0.8125 0.23828-1.2148 0.17969-1.0977 0.95312-0.83594 1.0352 0.64062-0.023437 1.2266-0.375 1.0039-0.14453 1.0508-0.042968 1.3477 0.44141 1.3945 0.60938 1.293 0.76562 0.65234 1.2969 0.27734 0.88281-0.73438 0.94531-0.95703 1.2422 0.44531 0.125 1.0938-1.0508 1.1133-0.019531 1.1523 0.92969 0.48828 1.3008-0.35547 1.1094-0.67969 1.2148-0.050782 0.81641 0.625 0.68359 0.91797 0.23828 1.1445-0.16016 1.1094 0.87109 1.6641 0.83203 0.81641 0.6875 0.99219 0.1875 2.0039 0.93359 0.77344 0.98438 0.22656 1.0391 0.074219 0.99609 0.11328 0.82031 0.86719 1.0078 0.29688 0.97266-0.73438 0.85156 0.65234 0.76953 0.96094 1.3984-1.2617 0.51953-0.96875-0.058594-1.0234-0.011718-1.2852 0.78125-0.80469 0.11719 1.1328 0.12891 1.0586 0.24609 1.2695 1.1289 0.83594 1.6797 0.38672 1.4219-0.52344 0.83984-0.67969 1.4062 0.67969 0.66016 0.78516 0.78906 0.91016 1.1406 0.31641 1.2734-0.80469 0.5625 1.2305 0.054687 1.207 0.25781 1.1523 0.17188 1.457 0.90625 0.87891 1.2539 0.16797 0.91016-0.68359 0.78125 0.66406-0.60156 0.82812-0.085938 1.1445-0.074218 1.0234 1.2266 1.0742 0.55469 0.94922 0.47266 0.99219 0.29688 1.1758-0.78906 1.0977-0.98438-0.32031-1.0273-0.14453-0.097657 1.0664 1.1875 0.31641 1.0078 0.046875h1.2383l-0.48828 0.87891-1.0117 0.55469-1.1172 0.375-1.0859 0.058593-1.0625-0.22656-0.8125-0.73047-0.26953-1.1211-0.48047-0.98438-0.77344-0.94141-0.67969-0.88281-0.9375-0.60156-1.0781-0.10547-1.0312-0.12891-1.0469-0.03125-0.97266 0.64062-1.1172 0.046875-1.0586-0.29688-1-0.09375-0.98828-0.21094-1.1016 0.57031-1.2656 0.41406-1.0039 0.11719-0.92969-0.80078-0.48828-1.1719-1.0977-0.62109-0.85156-0.53125-0.91406-0.67578-0.98828-0.58594-1.0547-0.52734-0.98438-0.50391-0.21094-1.0508-0.050781-1-0.32812-1.0664-0.60938-0.84766-1.2695-0.19141-1.0664-0.089843-1-0.75391-0.64844-1.2109-0.71094-0.93359-0.98047-0.55469-1.1445-0.32812-1.2461-0.33203-2.0039-0.40234-1.2734-0.26562-1.1758-0.33594-1.2539-0.11328-1.3555 0.25781-1.3164 0.40234-1.0078 0.27344-1.5039 0.32422-1.3281-0.011718-0.95312-0.37891-1.0742-0.03125-1.0273 0.027344-1.1719-0.95703-0.95703-0.58984h-1.0469l-1.4727-0.035156-1.4492-0.84766-0.84766-0.79297-0.81641-0.83594-0.81641-1.5977-0.68359-0.82031-0.79297-0.63672-1.0039-0.15234-1.5-0.89062-1.0352-1.0547-0.69922-0.73438-1.3047-0.75391-1.5195-0.60156-0.98438-0.70703-1.0391-0.57812-0.78516-0.65234-0.75781-0.72656-0.46875-1.1016-0.71484-0.73828-0.97656-0.30469-1.1719 0.066406-1.3164 0.13672-1.2461-0.11719-0.96484-0.45703-1.0586-0.21484-0.94922-0.4375-0.80859-1.0039-0.89844-0.66406-0.88281-0.61719-0.99609-0.32031-1.0703 0.16016-0.96875 0.51172-0.82031 0.78906h-1.0547l-1.1875-0.46484-1.5117-1.4688-1.7227-2.1172-1.1133-0.21094-0.97656-0.28516-1.9922-0.09375-1.1016-0.042968-0.84766-0.69141-1.2188-0.011718-1.0625-0.34766-0.99609-0.48828-1.2305-0.007812-1.1445 0.28125-1.0938-0.17969-1.0273-0.26562-1.0273 0.050781-0.73828-0.69922-0.65234-0.8125-1.0234-0.66797-0.85547-0.71484-1.0195-0.007812-1.0195 0.19922-0.82031-0.76562-0.91406-0.78516-1.0195-0.31641-1.1953-0.085938-1.1367-0.24609-1.0039 0.035156-1.0195 0.29297-1.25 0.16016-1.0078-0.39844-0.79297-1.1875-1.0586-0.98828-1.2812-0.11719-0.76953-1.043-0.39844-0.92578-0.35938-1.0352-0.60938-1.3008-0.97656-1.8633-1.1562-0.61328-1.0469-0.69531-0.91797-0.49219-0.84375-0.5625-1.0391 0.20703-0.98438-0.54297-0.54688-0.85938-1.0781-0.003906-1.1797 0.074219-1.3516-0.28516-1.1406-0.49219-1.0078-0.64844-0.72266-0.72656-0.9375-0.54688-1.1758-0.45312-1.7969-0.40625-1.0312-0.28906-0.91797-0.46094-0.49609-0.87109 1.1172-0.62891-0.46094-0.90625-1.1094-0.17969-0.99219-0.51562-1.2031-0.98828 0.035156-1.0273-0.44141-0.99219-0.59375-0.84766 0.6875-0.83984-0.12891-1.0195 0.89062-0.72656-0.14453-0.99609-0.61328-0.81641-0.64453-0.78906 0.25-1.0117 0.46484-0.90625 0.66406-0.75781-0.46484-0.89453-0.35938-0.95703-0.93359-0.36328 0.30859-0.96094-0.074219-1.0312-1.0195-0.30859-0.8125 0.79297-0.64844-0.83594 0.25391-0.97656-0.85547-0.66406-0.9375-0.39062-0.66406 0.75391-0.50781-0.88281-1.1133-0.12891-0.058594-1.0234-0.10547-1.2109-0.82422-0.66406-0.54297-0.88672-0.74219 0.72266-1.0117 0.23438-0.51562-0.91406-0.75-0.72266-0.98047-0.30469-0.99609-0.46875-0.51172-0.875 0.011719-1.0156-0.8125-0.625-0.66406-0.75391-0.85156-0.69922-0.49609-0.87891-0.40234-0.94531-0.67969-0.75-0.60156-0.82031-0.35938-0.99219-0.60156-0.82422-0.60547-0.79688-0.53516-0.89453-0.25-1.0391-0.63281-0.78516 0.011718-1.0391-0.17188-0.99219-0.5-0.92188v-1.0547l-0.12109-1.0312-0.76562-0.64844-0.60938-0.82422-0.76172-0.75391-0.51953-0.91016-0.59766-0.85547-1.0039-0.67969-0.77734-0.71875-1.0625-0.058594-1.0078 0.50391-1.0234-0.074218-1.0078 0.015625-0.75781 0.66797-1.0234-0.035156-0.64844-2.8672-0.0078125-4.0508 1.0117-0.10156 0.65234 0.76562 1.0352 0.085937 0.83984 0.58203 1 0.15625 0.89844-0.44922 0.64453-0.77734 1.0273 0.12109 0.99609-0.12891 1.043 0.30859 0.69922 0.74609 0.94531 0.37109 1.0078 0.0625 0.73828 0.6875 0.74609 0.68359 0.99219 0.15234 0.92188 0.46484 1.0195 0.011719 0.91406 0.50391 0.79297 0.61719 1.0508-0.11328 1.0078 0.011719 1.0039-0.070312 0.875-0.625 0.21875-1.0391 1.0117-0.027344-0.27344 1.0117 1.0781 0.12891 1.0039-0.097656 1.0742 0.078125 1.0352-0.26953 0.89844-0.51172 0.98828 0.33594 0.37891-0.97656 0.72656-0.82031 1.0078-0.44922 0.85938-0.83203 0.60156-1.1914 1.0469-0.81641 0.82422-0.79688 0.63281-0.8125 0.21094-1.3672 0.15234-1.1953 0.99219-0.43359 1.3555-0.5 1.0312-0.18359" fill="none" stroke="#fff" stroke-linecap="round" stroke-linejoin="round" stroke-miterlimit="10" stroke-width="2"/>
<path d="m164.12 170.73 0.1875 0.11719 0.88281 0.48438 1.1172-0.19531 0.94922 0.35547 0.58594 0.85547 0.45703 0.95703 0.39453 1.0859 0.10156 1.1016-0.21484 1.1289 0.25781 1.1094 0.5625 0.86328 0.94531 1 0.97656 0.71484 0.86719 0.51562 0.59375 0.89453 0.023437 1.1641-0.16797 1.2305-0.26953 1.1406-0.39453 1.0078-0.64844 0.77344 0.070313 1.0781 1.4453 0.68359 1.0547 0.42188 1.0508 0.10156 1.4922-0.38672 1.0977-0.03125 0.98828 0.26953 0.89844 0.64844-0.55078 0.91016-0.5625 0.90234-0.26172 1.0195-0.11719 1.0391 0.16406 1.0625 0.77344 1.0156 0.89844 0.60547 0.89453 0.6875 0.56641 1.0664 0.36719 1.2383 0.37109 1.1523 0.67188 0.90625 1.0312 0.70703 1.0039 0.51953 1.2148 0.41797 1.3125 0.082031 1.4648 0.035156 1.1797 0.007813 1.3438 0.14844 1.9492 0.16016 1.1602 0.0625 1.0547 0.3125 1.0234 0.51953 0.92578 0.5 0.98047 0.30469 1.1211 0.20312 1.0625 0.51953 0.87891 0.77734 1.1094 1.8203 0.75391 1.3359 0.58984 1.0781 0.63672 1.0352 1.5117 2.2852 0.69922 1.125 1.2578 2.3164 0.64062 1.0938 0.88281 0.48828 1.0156 0.22656 1.6562 0.18359 1.1758 0.13672 1.1953 0.35938 0.67188 0.91797 0.23438 1.0547 0.058593 1.4883 0.058594 1.4727 1.0664 0.86328 1.2266 0.17969 1-0.21094 0.55859-0.9375 0.38281-1.0703 0.88672-0.89453 0.91016-0.64453 0.79297 0.72266 0.94141 0.37891 0.73438 0.71875 0.40234 1.0156-0.67578 1.0938-0.23438 1.1367 0.96875 0.57031 1.25-0.21875 0.94922-0.77344 1.2578-0.33203 0.92188 0.66016-0.21875 1.3867-0.097656 1.3906 0.69141 0.82422 1.1328-0.13281 0.47656-0.89453-0.078125-1.2852 0.20312-1.1133 0.98828-0.58203 0.79297 0.73047 0.26562 1.1133 0.35938 1.0273 0.75781 0.82812 1.1133 0.089844 0.74609-1.1562 1.0547-0.60547 0.96484 0.49609 0.34375 2.2891 0.18359 1.2891 0.51562 1.6172 0.92578 0.60938 1.1055 0.54297 0.62891 0.875-1.1055 1.4062-0.29297 1.0156 0.94922 0.33203 1.7422-1.1758 1.1367-0.66406 1.8867 0.40234 1.3203-0.003906 1.6211-0.72266 1.0938-0.97266 1.3203-0.39453 1.0586-0.37109 1.4609-1.8281 0.90625-0.53906 1.043 0.53516 0.63672 1.082 0.22266 1.5547 0.85547 0.63672 1.0781-0.64062 0.20703-1.6602 0.41016-0.92188 1.0547-0.47656 1.0977 0.75391 0.77344 0.83594 0.47266 0.94922 0.089844 1.4219-0.41406 1.1758 0.54297 0.85938 1.0938-0.39062 0.73828-0.90625 0.125-1.0156 0.60156-1.7383 1.0938-0.97266 0.78516-0.6875-0.039062-1.1992-0.27344-1.0938 1.4609-0.56641 1.207 0.089844 1.1992 0.66016 0.97656 0.90234 0.69531 1.0195 0.9375 0.98047 1.2891 0.31641 1.3945 0.18359 0.76172 0.88281 0.88672 0.9375 1.1602 0.0625 0.87109-0.52734 1.4531 0.18359 1.3828 0.085937 1.1094 0.74609 0.97266 0.55078 1.0195 0.19531 1.1328-0.66797 0.54297-1.2148 1.0039 0.96094 0.89844 1.0117 0.96484 1.1406 0.25781 0.99609-0.22266 1.0117 0.34766 1.1211 1.1367 0.24219 1.0977-0.65625 1.0391-0.10156 1.1016-0.097657 0.86328-0.57812 1.0664 0.17188 1.207-0.30859 0.42578-1.0469 0.89062-0.61719 1.1016 0.56641 0.91797-0.67969-0.48828-1.0547 0.78125-0.80078 1.0625 0.039063 0.80469 0.8125 0.81641 0.65625 1.2461-0.078125 1.043-0.65234 0.9375-0.77344 1.1562-0.11328 0.89844 0.60156-0.14844 1.5117 0.14453 1.1797 1.0352 0.33594 0.95312-0.50391 0.43359-0.92578-0.26172-1.2266-0.42188-1.0938-0.21875-1.1641 0.5-1.1211 1.1758-0.44922 0.96875-0.625 0.97266-0.88672 0.875-0.99609 1.0898-0.10938 1.1328-1.1484 0.92188-1.1484 0.82031-0.58203 1.1992-0.10938 0.90234 0.85547 0.75 0.88672 0.66016 0.90234 1.0586 0.38281 1.0586-0.11328 1.0703-0.078125 0.91406-0.56641 1.1211-0.42969 1.3359 0.32422 0.27734 1.3086 0.91797 0.61719 0.79297-0.67188-0.33984-1.4492-0.48828-1.1055-0.69141-1.1406-0.15234-1.168 0.53125-0.86328 1.125-0.13281 1.2422 0.30859 1.3164 0.15234 0.88281-0.55859 0.62891-0.82422 0.77344-2.082 0.29297-1.3984 0.50391-1.8203 0.61328-1.3203 0.73047-0.98828 0.33984-0.95312 0.49609-1.1445 1.0547-0.10938 0.6875 0.90234 1.0156 0.55469 0.73828-1.2969 0.51562-0.95703 1.4375-0.75781 0.31641-1.0547 1.2227-0.78906 1.2969-0.82812 1.1875-0.11719 0.59766 1.2188 0.089844 1.4336-0.37891 1.0547-0.44531 0.90625-0.21875 1.2344 0.16016 1.0469 0.91406 0.94531 1.5586-0.28516 1.1094-0.71094 1.2734-0.86328 0.93359-0.41406 1.5703-0.24609 1.3633 0.60156 0.84375 0.76172 1.1719 1.1094 1.0938 0.58984 0.96875 0.37109 1.2539 0.17969 1.1797-0.066406 1.1445 0.48828 1.168 0.33984 1.0234-0.10547 0.61719 1.0273-0.070312 1.668-0.27734 1.4023 0.12109 1.0977 0.41016 1.082 0.15234 1.5703 0.79297 1.2539 0.91797 0.47266-0.95703 1.1406-0.96094 0.30078-0.98047-0.22656-0.98828-0.37891-1.4492-0.35938-1.1602-0.14062-1.0352 0.16406-0.91406-0.49219-1.1484-0.011719-1.0898-0.17188-1.0781 0.24609-0.79688 0.67578-0.53906 1.0039-0.33203 1.0859-0.68359 0.84766-0.8125 0.63281-0.625 0.85938-0.48047 0.91016-0.36719 0.92969-1.0508 0.23438-1.2656 0.79688-1.0664 0.44141-1.0078-0.45703-0.82422-0.91016-1.043-0.13672-0.70312 0.76172-1.2305 0.3125-1.0352-0.15625-1.0195-0.35938-0.89453-0.44141-0.99219 1.0664-0.3125 0.94922-0.70703 0.78125-0.76562 0.64844-0.59766 0.84766-0.89844 0.59375-1.2773-0.035156-1.0859-0.18359-1.0625-0.125-1.1445 0.042969-1.168 0.29297-0.92969 0.69531-0.89453 0.90234-0.48828 1.0352 0.75 1.8555 0.61328 1.418-0.28516 1.1289-1.0508 1.1875-0.875 0.99219-0.67578 0.85547-0.33984 0.94531 0.47656 1.0547 0.64844 1.1289 0.14844 1.1797-0.28125 1.0859-0.85547 1.2109-0.84766 1.0625-0.6875 1.0703-0.46094 1.0547-0.28125 0.97266-0.20703 1.0039-0.074219 1.1289 0.10547 1.1836-0.19922 1.1328-1.3008 0.65625-1.1055 0.40234-1.25 0.37891-1.332 0.41016-1.3555 0.41406-1.5508 0.34766-1.3125 0.33203-1.0898 0.46484-0.80859 0.82422-0.93359 0.89844-1.5703-0.71094-0.89453-0.68359-1.1953-0.64062-1.1914-0.30078-1.0547 0.074219-0.97656 0.38672-1.1172 0.98047-0.79688 0.70312-0.88281 0.65625-1.0156 0.53125-1.1133 0.30078-1.1641-0.16406-1.082-0.32422-1.1953-0.21875-1.0742-0.027344-1.1602 0.14844-1.3398 0.37109-0.97656 0.26953-1.1055 0.074219-1.0703-0.14844-0.66797 0.74609-0.87891 0.49609-1.0078 0.089844-0.95312-0.33203-1.0742-0.51953-0.99219-0.27734-1.8398 0.23828-1.6211 0.85938-1.1016 0.55078-1.6562 0.80859-1.375 0.60547-1.7734 0.65625-1.2461 0.35547-1.0352 0.015625-1.3789 0.29688-1.5039-0.125-3.1523 0.078125-1.1992 0.085938-1.8477-0.078125-1.1016 0.054687-3.1523 0.96094-2.3789 0.37109-1.2773 0.35938-1.957 0.48438-1.5312-0.19531-1.0977-0.10156-1.2539 0.003906-1.0977 0.085937-1.1172 0.046875-1.2539 0.074219-1.6016 0.097656-1.2031 0.16406-1.082-0.074219-1.1367-0.95703-0.96484-1.0508-0.95703-1.0898-0.91406-0.80859-1.1055-0.81641-1.0977-0.74609-1.2578-0.95703-1.1523-0.78516-1.4258-0.75391-0.93359-0.46094-1.0234-0.78906-0.79297-0.78516-0.91797-0.82812-1.0391-0.74609-0.92188-0.60547-1.1055-0.36328-1.1562 0.078125-1.3594 0.082032-1.0586-0.12891-0.96484-0.59766-0.5-0.90625-0.25-1.4453-0.003906-1.2188-0.14844-1.1484-0.60938-0.82422-1.2852-0.5625-1.4141-0.070312-1.0469 0.18359-1.082-0.14062-1.3633-0.57422-1.25-0.95703-1.2969-1.1602-0.89062-0.98828-0.69922-0.98828-1.4531-1.1914-1.3867-0.32031-1.5391-0.39453-1.1328-0.30859-1.5781-0.67969-0.96094-0.54688-0.98828-0.67969-0.65234-0.8125-0.67969-1.1328-0.72656-1.2188-0.49219-0.91406-0.41797-0.94141-0.23828-1.1992 0.31641-1.1523 0.54688-0.91016 0.82422-0.86719 0.63672-0.78516 0.18359-0.99609-0.17578-1-1.7109-1.5195-0.95703-0.77734-1.0117-0.84766-1.2109-0.75391-1.1406-0.69141-1.0977-0.49609-1.1055-0.22656-1.1406-0.046875-1.0742-0.51953-0.90234-0.83984-0.94531-0.84375-0.89453-0.82422-1.0586-0.25391-1.6641-0.19141-1.2812-0.53906-0.78906-1.4102-0.47266-0.93359-0.90625-0.51953-1.2461-0.92578-1.2734-1.0039-0.85156-0.78906-0.98047-0.50391-1.25-0.51953-1.2188-0.34766-1.043-0.019531-0.94922 0.4375-0.97266 0.65234-1.1289-0.24219-0.82422-0.73438-0.61719-1.3359-0.21484-1.4023-0.36719-1.4258-0.66016-0.875-1.3125-0.80469-0.48438-1.1953 0.19531-1.3203 0.80078-1.4375 0.69922-1.3281-0.011719-1.0781-0.875-0.67578-1.4023-0.86719-1.2969-0.44922-0.87891-1-0.51562-1.5352-0.21094-1.5391-0.17188-1.1445-0.30078-1.7422-0.16406-1.1836-0.29688-1.0508-0.87109-0.70312-1.2383-0.066406-1.0273 0.042968-1.043-0.082031-0.98828-0.22656-0.87109-0.51172-0.6875-0.76172-0.66406-0.80078-1.1172-0.34766-1.0234 0.035156-0.86328-0.58203 0.54297-0.95312 1.0312-0.36719 0.62891-0.91406 0.31641-1.0156 0.48438-0.98047 0.62891-0.90625 0.51953-0.96875-0.49219-1.0195 0.082031-1.1523 0.89062-0.60938 0.65625-0.76953 0.52344-1.0508 0.85547-0.68359 0.81641-0.70312-0.074219-1.2461-0.30469-1.2344 0.29688-1.0938 0.32812-1.1875 0.46875-0.93359 0.62891-1.0898 0.29688-1.0469 0.19531-1.8125-0.13672-1.1484-0.046875-1.0586 1.0586-0.71875 0.96484-1.4023 0.78125-0.71094z" fill="#ccc" fill-rule="evenodd"/>
<path d="m164.12 170.73 0.1875 0.11719 0.88281 0.48438 1.1172-0.19531 0.94922 0.35547 0.58594 0.85547 0.45703 0.95703 0.39453 1.0859 0.10156 1.1016-0.21484 1.1289 0.25781 1.1094 0.5625 0.86328 0.94531 1 0.97656 0.71484 0.86719 0.51562 0.59375 0.89453 0.023437 1.1641-0.16797 1.2305-0.26953 1.1406-0.39453 1.0078-0.64844 0.77344 0.070313 1.0781 1.4453 0.68359 1.0547 0.42188 1.0508 0.10156 1.4922-0.38672 1.0977-0.03125 0.98828 0.26953 0.89844 0.64844-0.55078 0.91016-0.5625 0.90234-0.26172 1.0195-0.11719 1.0391 0.16406 1.0625 0.77344 1.0156 0.89844 0.60547 0.89453 0.6875 0.56641 1.0664 0.36719 1.2383 0.37109 1.1523 0.67188 0.90625 1.0312 0.70703 1.0039 0.51953 1.2148 0.41797 1.3125 0.082031 1.4648 0.035156 1.1797 0.007813 1.3438 0.14844 1.9492 0.16016 1.1602 0.0625 1.0547 0.3125 1.0234 0.51953 0.92578 0.5 0.98047 0.30469 1.1211 0.20312 1.0625 0.51953 0.87891 0.77734 1.1094 1.8203 0.75391 1.3359 0.58984 1.0781 0.63672 1.0352 1.5117 2.2852 0.69922 1.125 1.2578 2.3164 0.64062 1.0938 0.88281 0.48828 1.0156 0.22656 1.6562 0.18359 1.1758 0.13672 1.1953 0.35938 0.67188 0.91797 0.23438 1.0547 0.058593 1.4883 0.058594 1.4727 1.0664 0.86328 1.2266 0.17969 1-0.21094 0.55859-0.9375 0.38281-1.0703 0.88672-0.89453 0.91016-0.64453 0.79297 0.72266 0.94141 0.37891 0.73438 0.71875 0.40234 1.0156-0.67578 1.0938-0.23438 1.1367 0.96875 0.57031 1.25-0.21875 0.94922-0.77344 1.2578-0.33203 0.92188 0.66016-0.21875 1.3867-0.097656 1.3906 0.69141 0.82422 1.1328-0.13281 0.47656-0.89453-0.078125-1.2852 0.20312-1.1133 0.98828-0.58203 0.79297 0.73047 0.26562 1.1133 0.35938 1.0273 0.75781 0.82812 1.1133 0.089844 0.74609-1.1562 1.0547-0.60547 0.96484 0.49609 0.34375 2.2891 0.18359 1.2891 0.51562 1.6172 0.92578 0.60938 1.1055 0.54297 0.62891 0.875-1.1055 1.4062-0.29297 1.0156 0.94922 0.33203 1.7422-1.1758 1.1367-0.66406 1.8867 0.40234 1.3203-0.003906 1.6211-0.72266 1.0938-0.97266 1.3203-0.39453 1.0586-0.37109 1.4609-1.8281 0.90625-0.53906 1.043 0.53516 0.63672 1.082 0.22266 1.5547 0.85547 0.63672 1.0781-0.64062 0.20703-1.6602 0.41016-0.92188 1.0547-0.47656 1.0977 0.75391 0.77344 0.83594 0.47266 0.94922 0.089844 1.4219-0.41406 1.1758 0.54297 0.85938 1.0938-0.39062 0.73828-0.90625 0.125-1.0156 0.60156-1.7383 1.0938-0.97266 0.78516-0.6875-0.039062-1.1992-0.27344-1.0938 1.4609-0.56641 1.207 0.089844 1.1992 0.66016 0.97656 0.90234 0.69531 1.0195 0.9375 0.98047 1.2891 0.31641 1.3945 0.18359 0.76172 0.88281 0.88672 0.9375 1.1602 0.0625 0.87109-0.52734 1.4531 0.18359 1.3828 0.085937 1.1094 0.74609 0.97266 0.55078 1.0195 0.19531 1.1328-0.66797 0.54297-1.2148 1.0039 0.96094 0.89844 1.0117 0.96484 1.1406 0.25781 0.99609-0.22266 1.0117 0.34766 1.1211 1.1367 0.24219 1.0977-0.65625 1.0391-0.10156 1.1016-0.097657 0.86328-0.57812 1.0664 0.17188 1.207-0.30859 0.42578-1.0469 0.89062-0.61719 1.1016 0.56641 0.91797-0.67969-0.48828-1.0547 0.78125-0.80078 1.0625 0.039063 0.80469 0.8125 0.81641 0.65625 1.2461-0.078125 1.043-0.65234 0.9375-0.77344 1.1562-0.11328 0.89844 0.60156-0.14844 1.5117 0.14453 1.1797 1.0352 0.33594 0.95312-0.50391 0.43359-0.92578-0.26172-1.2266-0.42188-1.0938-0.21875-1.1641 0.5-1.1211 1.1758-0.44922 0.96875-0.625 0.97266-0.88672 0.875-0.99609 1.0898-0.10938 1.1328-1.1484 0.92188-1.1484 0.82031-0.58203 1.1992-0.10938 0.90234 0.85547 0.75 0.88672 0.66016 0.90234 1.0586 0.38281 1.0586-0.11328 1.0703-0.078125 0.91406-0.56641 1.1211-0.42969 1.3359 0.32422 0.27734 1.3086 0.91797 0.61719 0.79297-0.67188-0.33984-1.4492-0.48828-1.1055-0.69141-1.1406-0.15234-1.168 0.53125-0.86328 1.125-0.13281 1.2422 0.30859 1.3164 0.15234 0.88281-0.55859 0.62891-0.82422 0.77344-2.082 0.29297-1.3984 0.50391-1.8203 0.61328-1.3203 0.73047-0.98828 0.33984-0.95312 0.49609-1.1445 1.0547-0.10938 0.6875 0.90234 1.0156 0.55469 0.73828-1.2969 0.51562-0.95703 1.4375-0.75781 0.31641-1.0547 1.2227-0.78906 1.2969-0.82812 1.1875-0.11719 0.59766 1.2188 0.089844 1.4336-0.37891 1.0547-0.44531 0.90625-0.21875 1.2344 0.16016 1.0469 0.91406 0.94531 1.5586-0.28516 1.1094-0.71094 1.2734-0.86328 0.93359-0.41406 1.5703-0.24609 1.3633 0.60156 0.84375 0.76172 1.1719 1.1094 1.0938 0.58984 0.96875 0.37109 1.2539 0.17969 1.1797-0.066406 1.1445 0.48828 1.168 0.33984 1.0234-0.10547 0.61719 1.0273-0.070312 1.668-0.27734 1.4023 0.12109 1.0977 0.41016 1.082 0.15234 1.5703 0.79297 1.2539 0.91797 0.47266-0.95703 1.1406-0.96094 0.30078-0.98047-0.22656-0.98828-0.37891-1.4492-0.35938-1.1602-0.14062-1.0352 0.16406-0.91406-0.49219-1.1484-0.011719-1.0898-0.17188-1.0781 0.24609-0.79688 0.67578-0.53906 1.0039-0.33203 1.0859-0.68359 0.84766-0.8125 0.63281-0.625 0.85938-0.48047 0.91016-0.36719 0.92969-1.0508 0.23438-1.2656 0.79688-1.0664 0.44141-1.0078-0.45703-0.82422-0.91016-1.043-0.13672-0.70312 0.76172-1.2305 0.3125-1.0352-0.15625-1.0195-0.35938-0.89453-0.44141-0.99219 1.0664-0.3125 0.94922-0.70703 0.78125-0.76562 0.64844-0.59766 0.84766-0.89844 0.59375-1.2773-0.035156-1.0859-0.18359-1.0625-0.125-1.1445 0.042969-1.168 0.29297-0.92969 0.69531-0.89453 0.90234-0.48828 1.0352 0.75 1.8555 0.61328 1.418-0.28516 1.1289-1.0508 1.1875-0.875 0.99219-0.67578 0.85547-0.33984 0.94531 0.47656 1.0547 0.64844 1.1289 0.14844 1.1797-0.28125 1.0859-0.85547 1.2109-0.84766 1.0625-0.6875 1.0703-0.46094 1.0547-0.28125 0.97266-0.20703 1.0039-0.074219 1.1289 0.10547 1.1836-0.19922 1.1328-1.3008 0.65625-1.1055 0.40234-1.25 0.37891-1.332 0.41016-1.3555 0.41406-1.5508 0.34766-1.3125 0.33203-1.0898 0.46484-0.80859 0.82422-0.93359 0.89844-1.5703-0.71094-0.89453-0.68359-1.1953-0.64062-1.1914-0.30078-1.0547 0.074219-0.97656 0.38672-1.1172 0.98047-0.79688 0.70312-0.88281 0.65625-1.0156 0.53125-1.1133 0.30078-1.1641-0.16406-1.082-0.32422-1.1953-0.21875-1.0742-0.027344-1.1602 0.14844-1.3398 0.37109-0.97656 0.26953-1.1055 0.074219-1.0703-0.14844-0.66797 0.74609-0.87891 0.49609-1.0078 0.089844-0.95312-0.33203-1.0742-0.51953-0.99219-0.27734-1.8398 0.23828-1.6211 0.85938-1.1016 0.55078-1.6562 0.80859-1.375 0.60547-1.7734 0.65625-1.2461 0.35547-1.0352 0.015625-1.3789 0.29688-1.5039-0.125-3.1523 0.078125-1.1992 0.085938-1.8477-0.078125-1.1016 0.054687-3.1523 0.96094-2.3789 0.37109-1.2773 0.35938-1.957 0.48438-1.5312-0.19531-1.0977-0.10156-1.2539 0.003906-1.0977 0.085937-1.1172 0.046875-1.2539 0.074219-1.6016 0.097656-1.2031 0.16406-1.082-0.074219-1.1367-0.95703-0.96484-1.0508-0.95703-1.0898-0.91406-0.80859-1.1055-0.81641-1.0977-0.74609-1.2578-0.95703-1.1523-0.78516-1.4258-0.75391-0.93359-0.46094-1.0234-0.78906-0.79297-0.78516-0.91797-0.82812-1.0391-0.74609-0.92188-0.60547-1.1055-0.36328-1.1562 0.078125-1.3594 0.082032-1.0586-0.12891-0.96484-0.59766-0.5-0.90625-0.25-1.4453-0.003906-1.2188-0.14844-1.1484-0.60938-0.82422-1.2852-0.5625-1.4141-0.070312-1.0469 0.18359-1.082-0.14062-1.3633-0.57422-1.25-0.95703-1.2969-1.1602-0.89062-0.98828-0.69922-0.98828-1.4531-1.1914-1.3867-0.32031-1.5391-0.39453-1.1328-0.30859-1.5781-0.67969-0.96094-0.54688-0.98828-0.67969-0.65234-0.8125-0.67969-1.1328-0.72656-1.2188-0.49219-0.91406-0.41797-0.94141-0.23828-1.1992 0.31641-1.1523 0.54688-0.91016 0.82422-0.86719 0.63672-0.78516 0.18359-0.99609-0.17578-1-1.7109-1.5195-0.95703-0.77734-1.0117-0.84766-1.2109-0.75391-1.1406-0.69141-1.0977-0.49609-1.1055-0.22656-1.1406-0.046875-1.0742-0.51953-0.90234-0.83984-0.94531-0.84375-0.89453-0.82422-1.0586-0.25391-1.6641-0.19141-1.2812-0.53906-0.78906-1.4102-0.47266-0.93359-0.90625-0.51953-1.2461-0.92578-1.2734-1.0039-0.85156-0.78906-0.98047-0.50391-1.25-0.51953-1.2188-0.34766-1.043-0.019531-0.94922 0.4375-0.97266 0.65234-1.1289-0.24219-0.82422-0.73438-0.61719-1.3359-0.21484-1.4023-0.36719-1.4258-0.66016-0.875-1.3125-0.80469-0.48438-1.1953 0.19531-1.3203 0.80078-1.4375 0.69922-1.3281-0.011719-1.0781-0.875-0.67578-1.4023-0.86719-1.2969-0.44922-0.87891-1-0.51562-1.5352-0.21094-1.5391-0.17188-1.1445-0.30078-1.7422-0.16406-1.1836-0.29688-1.0508-0.87109-0.70312-1.2383-0.066406-1.0273 0.042968-1.043-0.082031-0.98828-0.22656-0.87109-0.51172-0.6875-0.76172-0.66406-0.80078-1.1172-0.34766-1.0234 0.035156-0.86328-0.58203 0.54297-0.95312 1.0312-0.36719 0.62891-0.91406 0.31641-1.0156 0.48438-0.98047 0.62891-0.90625 0.51953-0.96875-0.49219-1.0195 0.082031-1.1523 0.89062-0.60938 0.65625-0.76953 0.52344-1.0508 0.85547-0.68359 0.81641-0.70312-0.074219-1.2461-0.30469-1.2344 0.29688-1.0938 0.32812-1.1875 0.46875-0.93359 0.62891-1.0898 0.29688-1.0469 0.19531-1.8125-0.13672-1.1484-0.046875-1.0586 1.0586-0.71875 0.96484-1.4023 0.78125-0.71094 0.32812 0.0625" fill="none" stroke="#fff" stroke-linecap="round" stroke-linejoin="round" stroke-miterlimit="10" stroke-width="2"/>
<path d="m164.12 170.73 0.1875 0.11719 0.88281 0.48438 1.1172-0.19531 0.94922 0.35547 0.58594 0.85547 0.45703 0.95703 0.39453 1.0859 0.10156 1.1016-0.21484 1.1289 0.25781 1.1094 0.5625 0.86328 0.94531 1 0.97656 0.71484 0.86719 0.51562 0.59375 0.89453 0.023437 1.1641-0.16797 1.2305-0.26953 1.1406-0.39453 1.0078-0.64844 0.77344 0.070313 1.0781 1.4453 0.68359 1.0547 0.42188 1.0508 0.10156 1.4922-0.38672 1.0977-0.03125 0.98828 0.26953 0.89844 0.64844-0.55078 0.91016-0.5625 0.90234-0.26172 1.0195-0.11719 1.0391 0.16406 1.0625 0.77344 1.0156 0.89844 0.60547 0.89453 0.6875 0.56641 1.0664 0.36719 1.2383 0.37109 1.1523 0.67188 0.90625 1.0312 0.70703 1.0039 0.51953 1.2148 0.41797 1.3125 0.082031 1.4648 0.035156 1.1797 0.007813 1.3438 0.14844 1.9492 0.16016 1.1602 0.0625 1.0547 0.3125 1.0234 0.51953 0.92578 0.5 0.98047 0.30469 1.1211 0.20312 1.0625 0.51953 0.87891 0.77734 1.1094 1.8203 0.75391 1.3359 0.58984 1.0781 0.63672 1.0352 1.5117 2.2852 0.69922 1.125 1.2578 2.3164 0.64062 1.0938 0.88281 0.48828 1.0156 0.22656 1.6562 0.18359 1.1758 0.13672 1.1953 0.35938 0.67188 0.91797 0.23438 1.0547 0.058593 1.4883 0.058594 1.4727 1.0664 0.86328 1.2266 0.17969 1-0.21094 0.55859-0.9375 0.38281-1.0703 0.88672-0.89453 0.91016-0.64453 0.79297 0.72266 0.94141 0.37891 0.73438 0.71875 0.40234 1.0156-0.67578 1.0938-0.23438 1.1367 0.96875 0.57031 1.25-0.21875 0.94922-0.77344 1.2578-0.33203 0.92188 0.66016-0.21875 1.3867-0.097656 1.3906 0.69141 0.82422 1.1328-0.13281 0.47656-0.89453-0.078125-1.2852 0.20312-1.1133 0.98828-0.58203 0.79297 0.73047 0.26562 1.1133 0.35938 1.0273 0.75781 0.82812 1.1133 0.089844 0.74609-1.1562 1.0547-0.60547 0.96484 0.49609 0.34375 2.2891 0.18359 1.2891 0.51562 1.6172 0.92578 0.60938 1.1055 0.54297 0.62891 0.875-1.1055 1.4062-0.29297 1.0156 0.94922 0.33203 1.7422-1.1758 1.1367-0.66406 1.8867 0.40234 1.3203-0.003906 1.6211-0.72266 1.0938-0.97266 1.3203-0.39453 1.0586-0.37109 1.4609-1.8281 0.90625-0.53906 1.043 0.53516 0.63672 1.082 0.22266 1.5547 0.85547 0.63672 1.0781-0.64062 0.20703-1.6602 0.41016-0.92188 1.0547-0.47656 1.0977 0.75391 0.77344 0.83594 0.47266 0.94922 0.089844 1.4219-0.41406 1.1758 0.54297 0.85938 1.0938-0.39062 0.73828-0.90625 0.125-1.0156 0.60156-1.7383 1.0938-0.97266 0.78516-0.6875-0.039062-1.1992-0.27344-1.0938 1.4609-0.56641 1.207 0.089844 1.1992 0.66016 0.97656 0.90234 0.69531 1.0195 0.9375 0.98047 1.2891 0.31641 1.3945 0.18359 0.76172 0.88281 0.88672 0.9375 1.1602 0.0625 0.87109-0.52734 1.4531 0.18359 1.3828 0.085937 1.1094 0.74609 0.97266 0.55078 1.0195 0.19531 1.1328-0.66797 0.54297-1.2148 1.0039 0.96094 0.89844 1.0117 0.96484 1.1406 0.25781 0.99609-0.22266 1.0117 0.34766 1.1211 1.1367 0.24219 1.0977-0.65625 1.0391-0.10156 1.1016-0.097657 0.86328-0.57812 1.0664 0.17188 1.207-0.30859 0.42578-1.0469 0.89062-0.61719 1.1016 0.56641 0.91797-0.67969-0.48828-1.0547 0.78125-0.80078 1.0625 0.039063 0.80469 0.8125 0.81641 0.65625 1.2461-0.078125 1.043-0.65234 0.9375-0.77344 1.1562-0.11328 0.89844 0.60156-0.14844 1.5117 0.14453 1.1797 1.0352 0.33594 0.95312-0.50391 0.43359-0.92578-0.26172-1.2266-0.42188-1.0938-0.21875-1.1641 0.5-1.1211 1.1758-0.44922 0.96875-0.625 0.97266-0.88672 0.875-0.99609 1.0898-0.10938 1.1328-1.1484 0.92188-1.1484 0.82031-0.58203 1.1992-0.10938 0.90234 0.85547 0.75 0.88672 0.66016 0.90234 1.0586 0.38281 1.0586-0.11328 1.0703-0.078125 0.91406-0.56641 1.1211-0.42969 1.3359 0.32422 0.27734 1.3086 0.91797 0.61719 0.79297-0.67188-0.33984-1.4492-0.48828-1.1055-0.69141-1.1406-0.15234-1.168 0.53125-0.86328 1.125-0.13281 1.2422 0.30859 1.3164 0.15234 0.88281-0.55859 0.62891-0.82422 0.77344-2.082 0.29297-1.3984 0.50391-1.8203 0.61328-1.3203 0.73047-0.98828 0.33984-0.95312 0.49609-1.1445 1.0547-0.10938 0.6875 0.90234 1.0156 0.55469 0.73828-1.2969 0.51562-0.95703 1.4375-0.75781 0.31641-1.0547 1.2227-0.78906 1.2969-0.82812 1.1875-0.11719 0.59766 1.2188 0.089844 1.4336-0.37891 1.0547-0.44531 0.90625-0.21875 1.2344 0.16016 1.0469 0.91406 0.94531 1.5586-0.28516 1.1094-0.71094 1.2734-0.86328 0.93359-0.41406 1.5703-0.24609 1.3633 0.60156 0.84375 0.76172 1.1719 1.1094 1.0938 0.58984 0.96875 0.37109 1.2539 0.17969 1.1797-0.066406 1.1445 0.48828 1.168 0.33984 1.0234-0.10547 0.61719 1.0273-0.070312 1.668-0.27734 1.4023 0.12109 1.0977 0.41016 1.082 0.15234 1.5703 0.79297 1.2539 0.91797 0.47266-0.95703 1.1406-0.96094 0.30078-0.98047-0.22656-0.98828-0.37891-1.4492-0.35938-1.1602-0.14062-1.0352 0.16406-0.91406-0.49219-1.1484-0.011719-1.0898-0.17188-1.0781 0.24609-0.79688 0.67578-0.53906 1.0039-0.33203 1.0859-0.68359 0.84766-0.8125 0.63281-0.625 0.85938-0.48047 0.91016-0.36719 0.92969-1.0508 0.23438-1.2656 0.79688-1.0664 0.44141-1.0078-0.45703-0.82422-0.91016-1.043-0.13672-0.70312 0.76172-1.2305 0.3125-1.0352-0.15625-1.0195-0.35938-0.89453-0.44141-0.99219 1.0664-0.3125 0.94922-0.70703 0.78125-0.76562 0.64844-0.59766 0.84766-0.89844 0.59375-1.2773-0.035156-1.0859-0.18359-1.0625-0.125-1.1445 0.042969-1.168 0.29297-0.92969 0.69531-0.89453 0.90234-0.48828 1.0352 0.75 1.8555 0.61328 1.418-0.28516 1.1289-1.0508 1.1875-0.875 0.99219-0.67578 0.85547-0.33984 0.94531 0.47656 1.0547 0.64844 1.1289 0.14844 1.1797-0.28125 1.0859-0.85547 1.2109-0.84766 1.0625-0.6875 1.0703-0.46094 1.0547-0.28125 0.97266-0.20703 1.0039-0.074219 1.1289 0.10547 1.1836-0.19922 1.1328-1.3008 0.65625-1.1055 0.40234-1.25 0.37891-1.332 0.41016-1.3555 0.41406-1.5508 0.34766-1.3125 0.33203-1.0898 0.46484-0.80859 0.82422-0.93359 0.89844-1.5703-0.71094-0.89453-0.68359-1.1953-0.64062-1.1914-0.30078-1.0547 0.074219-0.97656 0.38672-1.1172 0.98047-0.79688 0.70312-0.88281 0.65625-1.0156 0.53125-1.1133 0.30078-1.1641-0.16406-1.082-0.32422-1.1953-0.21875-1.0742-0.027344-1.1602 0.14844-1.3398 0.37109-0.97656 0.26953-1.1055 0.074219-1.0703-0.14844-0.66797 0.74609-0.87891 0.49609-1.0078 0.089844-0.95312-0.33203-1.0742-0.51953-0.99219-0.27734-1.8398 0.23828-1.6211 0.85938-1.1016 0.55078-1.6562 0.80859-1.375 0.60547-1.7734 0.65625-1.2461 0.35547-1.0352 0.015625-1.3789 0.29688-1.5039-0.125-3.1523 0.078125-1.1992 0.085938-1.8477-0.078125-1.1016 0.054687-3.1523 0.96094-2.3789 0.37109-1.2773 0.35938-1.957 0.48438-1.5312-0.19531-1.0977-0.10156-1.2539 0.003906-1.0977 0.085937-1.1172 0.046875-1.2539 0.074219-1.6016 0.097656-1.2031 0.16406-1.082-0.074219-1.1367-0.95703-0.96484-1.0508-0.95703-1.0898-0.91406-0.80859-1.1055-0.81641-1.0977-0.74609-1.2578-0.95703-1.1523-0.78516-1.4258-0.75391-0.93359-0.46094-1.0234-0.78906-0.79297-0.78516-0.91797-0.82812-1.0391-0.74609-0.92188-0.60547-1.1055-0.36328-1.1562 0.078125-1.3594 0.082032-1.0586-0.12891-0.96484-0.59766-0.5-0.90625-0.25-1.4453-0.003906-1.2188-0.14844-1.1484-0.60938-0.82422-1.2852-0.5625-1.4141-0.070312-1.0469 0.18359-1.082-0.14062-1.3633-0.57422-1.25-0.95703-1.2969-1.1602-0.89062-0.98828-0.69922-0.98828-1.4531-1.1914-1.3867-0.32031-1.5391-0.39453-1.1328-0.30859-1.5781-0.67969-0.96094-0.54688-0.98828-0.67969-0.65234-0.8125-0.67969-1.1328-0.72656-1.2188-0.49219-0.91406-0.41797-0.94141-0.23828-1.1992 0.31641-1.1523 0.54688-0.91016 0.82422-0.86719 0.63672-0.78516 0.18359-0.99609-0.17578-1-1.7109-1.5195-0.95703-0.77734-1.0117-0.84766-1.2109-0.75391-1.1406-0.69141-1.0977-0.49609-1.1055-0.22656-1.1406-0.046875-1.0742-0.51953-0.90234-0.83984-0.94531-0.84375-0.89453-0.82422-1.0586-0.25391-1.6641-0.19141-1.2812-0.53906-0.78906-1.4102-0.47266-0.93359-0.90625-0.51953-1.2461-0.92578-1.2734-1.0039-0.85156-0.78906-0.98047-0.50391-1.25-0.51953-1.2188-0.34766-1.043-0.019531-0.94922 0.4375-0.97266 0.65234-1.1289-0.24219-0.82422-0.73438-0.61719-1.3359-0.21484-1.4023-0.36719-1.4258-0.66016-0.875-1.3125-0.80469-0.48438-1.1953 0.19531-1.3203 0.80078-1.4375 0.69922-1.3281-0.011719-1.0781-0.875-0.67578-1.4023-0.86719-1.2969-0.44922-0.87891-1-0.51562-1.5352-0.21094-1.5391-0.17188-1.1445-0.30078-1.7422-0.16406-1.1836-0.29688-1.0508-0.87109-0.70312-1.2383-0.066406-1.0273 0.042968-1.043-0.082031-0.98828-0.22656-0.87109-0.51172-0.6875-0.76172-0.66406-0.80078-1.1172-0.34766-1.0234 0.035156-0.86328-0.58203 0.54297-0.95312 1.0312-0.36719 0.62891-0.91406 0.31641-1.0156 0.48438-0.98047 0.62891-0.90625 0.51953-0.96875-0.49219-1.0195 0.082031-1.1523 0.89062-0.60938 0.65625-0.76953 0.52344-1.0508 0.85547-0.68359 0.81641-0.70312-0.074219-1.2461-0.30469-1.2344 0.29688-1.0938 0.32812-1.1875 0.46875-0.93359 0.62891-1.0898 0.29688-1.0469 0.19531-1.8125-0.13672-1.1484-0.046875-1.0586 1.0586-0.71875 0.96484-1.4023 0.78125-0.71094z" fill="#0a5394" fill-rule="evenodd"/>
<path d="m164.12 170.73 0.1875 0.11719 0.88281 0.48438 1.1172-0.19531 0.94922 0.35547 0.58594 0.85547 0.45703 0.95703 0.39453 1.0859 0.10156 1.1016-0.21484 1.1289 0.25781 1.1094 0.5625 0.86328 0.94531 1 0.97656 0.71484 0.86719 0.51562 0.59375 0.89453 0.023437 1.1641-0.16797 1.2305-0.26953 1.1406-0.39453 1.0078-0.64844 0.77344 0.070313 1.0781 1.4453 0.68359 1.0547 0.42188 1.0508 0.10156 1.4922-0.38672 1.0977-0.03125 0.98828 0.26953 0.89844 0.64844-0.55078 0.91016-0.5625 0.90234-0.26172 1.0195-0.11719 1.0391 0.16406 1.0625 0.77344 1.0156 0.89844 0.60547 0.89453 0.6875 0.56641 1.0664 0.36719 1.2383 0.37109 1.1523 0.67188 0.90625 1.0312 0.70703 1.0039 0.51953 1.2148 0.41797 1.3125 0.082031 1.4648 0.035156 1.1797 0.007813 1.3438 0.14844 1.9492 0.16016 1.1602 0.0625 1.0547 0.3125 1.0234 0.51953 0.92578 0.5 0.98047 0.30469 1.1211 0.20312 1.0625 0.51953 0.87891 0.77734 1.1094 1.8203 0.75391 1.3359 0.58984 1.0781 0.63672 1.0352 1.5117 2.2852 0.69922 1.125 1.2578 2.3164 0.64062 1.0938 0.88281 0.48828 1.0156 0.22656 1.6562 0.18359 1.1758 0.13672 1.1953 0.35938 0.67188 0.91797 0.23438 1.0547 0.058593 1.4883 0.058594 1.4727 1.0664 0.86328 1.2266 0.17969 1-0.21094 0.55859-0.9375 0.38281-1.0703 0.88672-0.89453 0.91016-0.64453 0.79297 0.72266 0.94141 0.37891 0.73438 0.71875 0.40234 1.0156-0.67578 1.0938-0.23438 1.1367 0.96875 0.57031 1.25-0.21875 0.94922-0.77344 1.2578-0.33203 0.92188 0.66016-0.21875 1.3867-0.097656 1.3906 0.69141 0.82422 1.1328-0.13281 0.47656-0.89453-0.078125-1.2852 0.20312-1.1133 0.98828-0.58203 0.79297 0.73047 0.26562 1.1133 0.35938 1.0273 0.75781 0.82812 1.1133 0.089844 0.74609-1.1562 1.0547-0.60547 0.96484 0.49609 0.34375 2.2891 0.18359 1.2891 0.51562 1.6172 0.92578 0.60938 1.1055 0.54297 0.62891 0.875-1.1055 1.4062-0.29297 1.0156 0.94922 0.33203 1.7422-1.1758 1.1367-0.66406 1.8867 0.40234 1.3203-0.003906 1.6211-0.72266 1.0938-0.97266 1.3203-0.39453 1.0586-0.37109 1.4609-1.8281 0.90625-0.53906 1.043 0.53516 0.63672 1.082 0.22266 1.5547 0.85547 0.63672 1.0781-0.64062 0.20703-1.6602 0.41016-0.92188 1.0547-0.47656 1.0977 0.75391 0.77344 0.83594 0.47266 0.94922 0.089844 1.4219-0.41406 1.1758 0.54297 0.85938 1.0938-0.39062 0.73828-0.90625 0.125-1.0156 0.60156-1.7383 1.0938-0.97266 0.78516-0.6875-0.039062-1.1992-0.27344-1.0938 1.4609-0.56641 1.207 0.089844 1.1992 0.66016 0.97656 0.90234 0.69531 1.0195 0.9375 0.98047 1.2891 0.31641 1.3945 0.18359 0.76172 0.88281 0.88672 0.9375 1.1602 0.0625 0.87109-0.52734 1.4531 0.18359 1.3828 0.085937 1.1094 0.74609 0.97266 0.55078 1.0195 0.19531 1.1328-0.66797 0.54297-1.2148 1.0039 0.96094 0.89844 1.0117 0.96484 1.1406 0.25781 0.99609-0.22266 1.0117 0.34766 1.1211 1.1367 0.24219 1.0977-0.65625 1.0391-0.10156 1.1016-0.097657 0.86328-0.57812 1.0664 0.17188 1.207-0.30859 0.42578-1.0469 0.89062-0.61719 1.1016 0.56641 0.91797-0.67969-0.48828-1.0547 0.78125-0.80078 1.0625 0.039063 0.80469 0.8125 0.81641 0.65625 1.2461-0.078125 1.043-0.65234 0.9375-0.77344 1.1562-0.11328 0.89844 0.60156-0.14844 1.5117 0.14453 1.1797 1.0352 0.33594 0.95312-0.50391 0.43359-0.92578-0.26172-1.2266-0.42188-1.0938-0.21875-1.1641 0.5-1.1211 1.1758-0.44922 0.96875-0.625 0.97266-0.88672 0.875-0.99609 1.0898-0.10938 1.1328-1.1484 0.92188-1.1484 0.82031-0.58203 1.1992-0.10938 0.90234 0.85547 0.75 0.88672 0.66016 0.90234 1.0586 0.38281 1.0586-0.11328 1.0703-0.078125 0.91406-0.56641 1.1211-0.42969 1.3359 0.32422 0.27734 1.3086 0.91797 0.61719 0.79297-0.67188-0.33984-1.4492-0.48828-1.1055-0.69141-1.1406-0.15234-1.168 0.53125-0.86328 1.125-0.13281 1.2422 0.30859 1.3164 0.15234 0.88281-0.55859 0.62891-0.82422 0.77344-2.082 0.29297-1.3984 0.50391-1.8203 0.61328-1.3203 0.73047-0.98828 0.33984-0.95312 0.49609-1.1445 1.0547-0.10938 0.6875 0.90234 1.0156 0.55469 0.73828-1.2969 0.51562-0.95703 1.4375-0.75781 0.31641-1.0547 1.2227-0.78906 1.2969-0.82812 1.1875-0.11719 0.59766 1.2188 0.089844 1.4336-0.37891 1.0547-0.44531 0.90625-0.21875 1.2344 0.16016 1.0469 0.91406 0.94531 1.5586-0.28516 1.1094-0.71094 1.2734-0.86328 0.93359-0.41406 1.5703-0.24609 1.3633 0.60156 0.84375 0.76172 1.1719 1.1094 1.0938 0.58984 0.96875 0.37109 1.2539 0.17969 1.1797-0.066406 1.1445 0.48828 1.168 0.33984 1.0234-0.10547 0.61719 1.0273-0.070312 1.668-0.27734 1.4023 0.12109 1.0977 0.41016 1.082 0.15234 1.5703 0.79297 1.2539 0.91797 0.47266-0.95703 1.1406-0.96094 0.30078-0.98047-0.22656-0.98828-0.37891-1.4492-0.35938-1.1602-0.14062-1.0352 0.16406-0.91406-0.49219-1.1484-0.011719-1.0898-0.17188-1.0781 0.24609-0.79688 0.67578-0.53906 1.0039-0.33203 1.0859-0.68359 0.84766-0.8125 0.63281-0.625 0.85938-0.48047 0.91016-0.36719 0.92969-1.0508 0.23438-1.2656 0.79688-1.0664 0.44141-1.0078-0.45703-0.82422-0.91016-1.043-0.13672-0.70312 0.76172-1.2305 0.3125-1.0352-0.15625-1.0195-0.35938-0.89453-0.44141-0.99219 1.0664-0.3125 0.94922-0.70703 0.78125-0.76562 0.64844-0.59766 0.84766-0.89844 0.59375-1.2773-0.035156-1.0859-0.18359-1.0625-0.125-1.1445 0.042969-1.168 0.29297-0.92969 0.69531-0.89453 0.90234-0.48828 1.0352 0.75 1.8555 0.61328 1.418-0.28516 1.1289-1.0508 1.1875-0.875 0.99219-0.67578 0.85547-0.33984 0.94531 0.47656 1.0547 0.64844 1.1289 0.14844 1.1797-0.28125 1.0859-0.85547 1.2109-0.84766 1.0625-0.6875 1.0703-0.46094 1.0547-0.28125 0.97266-0.20703 1.0039-0.074219 1.1289 0.10547 1.1836-0.19922 1.1328-1.3008 0.65625-1.1055 0.40234-1.25 0.37891-1.332 0.41016-1.3555 0.41406-1.5508 0.34766-1.3125 0.33203-1.0898 0.46484-0.80859 0.82422-0.93359 0.89844-1.5703-0.71094-0.89453-0.68359-1.1953-0.64062-1.1914-0.30078-1.0547 0.074219-0.97656 0.38672-1.1172 0.98047-0.79688 0.70312-0.88281 0.65625-1.0156 0.53125-1.1133 0.30078-1.1641-0.16406-1.082-0.32422-1.1953-0.21875-1.0742-0.027344-1.1602 0.14844-1.3398 0.37109-0.97656 0.26953-1.1055 0.074219-1.0703-0.14844-0.66797 0.74609-0.87891 0.49609-1.0078 0.089844-0.95312-0.33203-1.0742-0.51953-0.99219-0.27734-1.8398 0.23828-1.6211 0.85938-1.1016 0.55078-1.6562 0.80859-1.375 0.60547-1.7734 0.65625-1.2461 0.35547-1.0352 0.015625-1.3789 0.29688-1.5039-0.125-3.1523 0.078125-1.1992 0.085938-1.8477-0.078125-1.1016 0.054687-3.1523 0.96094-2.3789 0.37109-1.2773 0.35938-1.957 0.48438-1.5312-0.19531-1.0977-0.10156-1.2539 0.003906-1.0977 0.085937-1.1172 0.046875-1.2539 0.074219-1.6016 0.097656-1.2031 0.16406-1.082-0.074219-1.1367-0.95703-0.96484-1.0508-0.95703-1.0898-0.91406-0.80859-1.1055-0.81641-1.0977-0.74609-1.2578-0.95703-1.1523-0.78516-1.4258-0.75391-0.93359-0.46094-1.0234-0.78906-0.79297-0.78516-0.91797-0.82812-1.0391-0.74609-0.92188-0.60547-1.1055-0.36328-1.1562 0.078125-1.3594 0.082032-1.0586-0.12891-0.96484-0.59766-0.5-0.90625-0.25-1.4453-0.003906-1.2188-0.14844-1.1484-0.60938-0.82422-1.2852-0.5625-1.4141-0.070312-1.0469 0.18359-1.082-0.14062-1.3633-0.57422-1.25-0.95703-1.2969-1.1602-0.89062-0.98828-0.69922-0.98828-1.4531-1.1914-1.3867-0.32031-1.5391-0.39453-1.1328-0.30859-1.5781-0.67969-0.96094-0.54688-0.98828-0.67969-0.65234-0.8125-0.67969-1.1328-0.72656-1.2188-0.49219-0.91406-0.41797-0.94141-0.23828-1.1992 0.31641-1.1523 0.54688-0.91016 0.82422-0.86719 0.63672-0.78516 0.18359-0.99609-0.17578-1-1.7109-1.5195-0.95703-0.77734-1.0117-0.84766-1.2109-0.75391-1.1406-0.69141-1.0977-0.49609-1.1055-0.22656-1.1406-0.046875-1.0742-0.51953-0.90234-0.83984-0.94531-0.84375-0.89453-0.82422-1.0586-0.25391-1.6641-0.19141-1.2812-0.53906-0.78906-1.4102-0.47266-0.93359-0.90625-0.51953-1.2461-0.92578-1.2734-1.0039-0.85156-0.78906-0.98047-0.50391-1.25-0.51953-1.2188-0.34766-1.043-0.019531-0.94922 0.4375-0.97266 0.65234-1.1289-0.24219-0.82422-0.73438-0.61719-1.3359-0.21484-1.4023-0.36719-1.4258-0.66016-0.875-1.3125-0.80469-0.48438-1.1953 0.19531-1.3203 0.80078-1.4375 0.69922-1.3281-0.011719-1.0781-0.875-0.67578-1.4023-0.86719-1.2969-0.44922-0.87891-1-0.51562-1.5352-0.21094-1.5391-0.17188-1.1445-0.30078-1.7422-0.16406-1.1836-0.29688-1.0508-0.87109-0.70312-1.2383-0.066406-1.0273 0.042968-1.043-0.082031-0.98828-0.22656-0.87109-0.51172-0.6875-0.76172-0.66406-0.80078-1.1172-0.34766-1.0234 0.035156-0.86328-0.58203 0.54297-0.95312 1.0312-0.36719 0.62891-0.91406 0.31641-1.0156 0.48438-0.98047 0.62891-0.90625 0.51953-0.96875-0.49219-1.0195 0.082031-1.1523 0.89062-0.60938 0.65625-0.76953 0.52344-1.0508 0.85547-0.68359 0.81641-0.70312-0.074219-1.2461-0.30469-1.2344 0.29688-1.0938 0.32812-1.1875 0.46875-0.93359 0.62891-1.0898 0.29688-1.0469 0.19531-1.8125-0.13672-1.1484-0.046875-1.0586 1.0586-0.71875 0.96484-1.4023 0.78125-0.71094 0.32812 0.0625" fill="none" stroke="#fff" stroke-linecap="round" stroke-linejoin="round" stroke-miterlimit="10"/>
<path d="m271.05 238.83c0 3.5898-2.9102 6.5-6.5 6.5-3.5898 0-6.5-2.9102-6.5-6.5 0-3.5898 2.9102-6.5 6.5-6.5 3.5898 0 6.5 2.9102 6.5 6.5" fill="#28c028" fill-rule="evenodd" stroke="#000" stroke-linecap="round" stroke-linejoin="round" stroke-miterlimit="10"/>
<path d="m79.191 204.47 3.2344-0.3125c0.19531 1.0859 0.59375 1.8828 1.1875 2.3906 0.59375 0.51172 1.3945 0.76562 2.4062 0.76562 1.0703 0 1.8789-0.22266 2.4219-0.67188 0.53906-0.45703 0.8125-0.98828 0.8125-1.5938 0-0.39453-0.11719-0.72656-0.34375-1-0.23047-0.26953-0.625-0.50391-1.1875-0.70312-0.39844-0.13281-1.2891-0.375-2.6719-0.71875-1.7812-0.44531-3.0312-0.99219-3.75-1.6406-1.0117-0.90625-1.5156-2.0078-1.5156-3.3125 0-0.83203 0.23828-1.6133 0.71875-2.3438 0.47656-0.72656 1.1602-1.2852 2.0469-1.6719 0.89453-0.38281 1.9766-0.57812 3.25-0.57812 2.0625 0 3.6133 0.45312 4.6562 1.3594 1.0508 0.90625 1.6016 2.1172 1.6562 3.625l-3.3281 0.15625c-0.14844-0.84375-0.45312-1.4531-0.92188-1.8281-0.46094-0.375-1.1562-0.5625-2.0938-0.5625-0.96875 0-1.7305 0.20312-2.2812 0.60938-0.34375 0.25-0.51562 0.58984-0.51562 1.0156 0 0.38672 0.16016 0.71875 0.48438 1 0.42578 0.35547 1.4453 0.72656 3.0625 1.1094 1.6133 0.375 2.8047 0.76562 3.5781 1.1719 0.78125 0.40625 1.3906 0.96484 1.8281 1.6719 0.4375 0.71094 0.65625 1.5859 0.65625 2.625 0 0.94922-0.26562 1.8359-0.79688 2.6562-0.52344 0.82422-1.2617 1.4375-2.2188 1.8438-0.96094 0.39453-2.1523 0.59375-3.5781 0.59375-2.0859 0-3.6836-0.47656-4.7969-1.4375-1.1172-0.96875-1.7812-2.375-2-4.2188zm31.031 5.3594h-3.6094l-1.4375-3.7344h-6.5781l-1.3594 3.7344h-3.5312l6.4062-16.469h3.5156zm-6.1094-6.5156-2.2812-6.1094-2.2188 6.1094zm7.9062 6.5156v-16.469h3.2344l6.75 11v-11h3.0781v16.469h-3.3281l-6.6406-10.734v10.734zm37.812 0h-3.6094l-1.4375-3.7344h-6.5781l-1.3594 3.7344h-3.5312l6.4062-16.469h3.5156zm-6.1094-6.5156-2.2812-6.1094-2.2188 6.1094zm7.9062 6.5156v-16.469h3.2344l6.75 11v-11h3.0781v16.469h-3.3281l-6.6406-10.734v10.734zm20.281 0v-13.672h-4.875v-2.7969h13.078v2.7969h-4.875v13.672zm9.6719-8.125c0-1.6758 0.25-3.0859 0.75-4.2344 0.375-0.83203 0.88281-1.582 1.5312-2.25 0.64453-0.66406 1.3516-1.1602 2.125-1.4844 1.0312-0.4375 2.2188-0.65625 3.5625-0.65625 2.4141 0 4.3516 0.75781 5.8125 2.2656 1.457 1.5 2.1875 3.5938 2.1875 6.2812 0 2.6562-0.72656 4.7344-2.1719 6.2344-1.4375 1.5-3.3711 2.25-5.7969 2.25-2.4492 0-4.3984-0.74219-5.8438-2.2344-1.4375-1.5-2.1562-3.5547-2.1562-6.1719zm3.4219-0.125c0 1.8672 0.42969 3.2812 1.2969 4.25 0.86328 0.96094 1.957 1.4375 3.2812 1.4375 1.3203 0 2.4062-0.47266 3.25-1.4219 0.85156-0.95703 1.2812-2.3906 1.2812-4.2969 0-1.8945-0.41797-3.3047-1.25-4.2344-0.82422-0.92578-1.918-1.3906-3.2812-1.3906-1.375 0-2.4844 0.47656-3.3281 1.4219-0.83594 0.9375-1.25 2.3516-1.25 4.2344zm15.172 8.25v-16.469h3.2344l6.75 11v-11h3.0781v16.469h-3.3281l-6.6406-10.734v10.734zm16.484 0v-16.469h3.3125v16.469zm5.8125-8.125c0-1.6758 0.25-3.0859 0.75-4.2344 0.375-0.83203 0.88281-1.582 1.5312-2.25 0.64453-0.66406 1.3516-1.1602 2.125-1.4844 1.0312-0.4375 2.2188-0.65625 3.5625-0.65625 2.4141 0 4.3516 0.75781 5.8125 2.2656 1.457 1.5 2.1875 3.5938 2.1875 6.2812 0 2.6562-0.72656 4.7344-2.1719 6.2344-1.4375 1.5-3.3711 2.25-5.7969 2.25-2.4492 0-4.3984-0.74219-5.8438-2.2344-1.4375-1.5-2.1562-3.5547-2.1562-6.1719zm3.4219-0.125c0 1.8672 0.42969 3.2812 1.2969 4.25 0.86328 0.96094 1.957 1.4375 3.2812 1.4375 1.3203 0 2.4062-0.47266 3.25-1.4219 0.85156-0.95703 1.2812-2.3906 1.2812-4.2969 0-1.8945-0.41797-3.3047-1.25-4.2344-0.82422-0.92578-1.918-1.3906-3.2812-1.3906-1.375 0-2.4844 0.47656-3.3281 1.4219-0.83594 0.9375-1.25 2.3516-1.25 4.2344zm-145.88 14.781h6.0781c1.375 0 2.4219 0.10547 3.1406 0.3125 0.95703 0.29297 1.7812 0.80469 2.4688 1.5312 0.69531 0.71875 1.2227 1.6055 1.5781 2.6562 0.36328 1.0547 0.54688 2.3516 0.54688 3.8906 0 1.3555-0.17188 2.5234-0.51562 3.5-0.40625 1.1992-0.99219 2.1719-1.75 2.9219-0.58594 0.5625-1.3672 1-2.3438 1.3125-0.73047 0.23047-1.7109 0.34375-2.9375 0.34375h-6.2656zm3.3281 2.7969v10.891h2.4844c0.92578 0 1.5977-0.050781 2.0156-0.15625 0.53125-0.13281 0.97266-0.35938 1.3281-0.67188 0.36328-0.32031 0.65625-0.85156 0.875-1.5938 0.22656-0.73828 0.34375-1.7422 0.34375-3.0156 0-1.2695-0.11719-2.2422-0.34375-2.9219-0.21875-0.6875-0.53125-1.2188-0.9375-1.5938-0.40625-0.38281-0.92188-0.64453-1.5469-0.78125-0.46094-0.10156-1.3672-0.15625-2.7188-0.15625zm13.297 13.672v-16.469h12.203v2.7969h-8.875v3.6406h8.2656v2.7812h-8.2656v4.4688h9.2031v2.7812zm15.438 0v-16.328h3.3281v13.547h8.2656v2.7812zm20.344 0v-16.469h12.203v2.7969h-8.875v3.6406h8.2656v2.7812h-8.2656v4.4688h9.2031v2.7812zm14.5-5.3594 3.2344-0.3125c0.19531 1.0859 0.59375 1.8828 1.1875 2.3906 0.59375 0.51172 1.3945 0.76562 2.4062 0.76562 1.0703 0 1.8789-0.22266 2.4219-0.67188 0.53906-0.45703 0.8125-0.98828 0.8125-1.5938 0-0.39453-0.11719-0.72656-0.34375-1-0.23047-0.26953-0.625-0.50391-1.1875-0.70312-0.39844-0.13281-1.2891-0.375-2.6719-0.71875-1.7812-0.44531-3.0312-0.99219-3.75-1.6406-1.0117-0.90625-1.5156-2.0078-1.5156-3.3125 0-0.83203 0.23828-1.6133 0.71875-2.3438 0.47656-0.72656 1.1602-1.2852 2.0469-1.6719 0.89453-0.38281 1.9766-0.57812 3.25-0.57812 2.0625 0 3.6133 0.45312 4.6562 1.3594 1.0508 0.90625 1.6016 2.1172 1.6562 3.625l-3.3281 0.15625c-0.14844-0.84375-0.45312-1.4531-0.92188-1.8281-0.46094-0.375-1.1562-0.5625-2.0938-0.5625-0.96875 0-1.7305 0.20312-2.2812 0.60938-0.34375 0.25-0.51562 0.58984-0.51562 1.0156 0 0.38672 0.16016 0.71875 0.48438 1 0.42578 0.35547 1.4453 0.72656 3.0625 1.1094 1.6133 0.375 2.8047 0.76562 3.5781 1.1719 0.78125 0.40625 1.3906 0.96484 1.8281 1.6719 0.4375 0.71094 0.65625 1.5859 0.65625 2.625 0 0.94922-0.26562 1.8359-0.79688 2.6562-0.52344 0.82422-1.2617 1.4375-2.2188 1.8438-0.96094 0.39453-2.1523 0.59375-3.5781 0.59375-2.0859 0-3.6836-0.47656-4.7969-1.4375-1.1172-0.96875-1.7812-2.375-2-4.2188zm19.891 5.3594v-13.672h-4.875v-2.7969h13.078v2.7969h-4.875v13.672zm10.359 0v-16.469h7c1.7578 0 3.0352 0.15234 3.8281 0.45312 0.80078 0.29297 1.4414 0.82031 1.9219 1.5781 0.47656 0.75 0.71875 1.6172 0.71875 2.5938 0 1.2305-0.36719 2.25-1.0938 3.0625-0.73047 0.80469-1.8203 1.3086-3.2656 1.5156 0.71875 0.41797 1.3125 0.88281 1.7812 1.3906 0.46875 0.5 1.0977 1.3867 1.8906 2.6562l2.0156 3.2188h-3.9688l-2.4062-3.5781c-0.85547-1.2812-1.4375-2.0859-1.75-2.4219-0.3125-0.33203-0.64844-0.5625-1-0.6875-0.35547-0.125-0.91406-0.1875-1.6719-0.1875h-0.67188v6.875zm3.3281-9.5h2.4531c1.5938 0 2.5859-0.066406 2.9844-0.20312 0.39453-0.13281 0.70312-0.36328 0.92188-0.6875 0.22656-0.33203 0.34375-0.75 0.34375-1.25 0-0.55078-0.14844-0.99219-0.4375-1.3281-0.29297-0.34375-0.71094-0.5625-1.25-0.65625-0.27344-0.03125-1.0781-0.046875-2.4219-0.046875h-2.5938zm13.266 9.5v-16.469h12.203v2.7969h-8.875v3.6406h8.2656v2.7812h-8.2656v4.4688h9.2031v2.7812zm25.875-6.0469 3.2344 1.0156c-0.5 1.793-1.3281 3.125-2.4844 4-1.1484 0.875-2.6016 1.3125-4.3594 1.3125-2.1875 0-3.9844-0.74219-5.3906-2.2344-1.4062-1.5-2.1094-3.5469-2.1094-6.1406 0-2.7383 0.70312-4.8633 2.1094-6.375 1.4141-1.5195 3.2812-2.2812 5.5938-2.2812 2.0078 0 3.6445 0.60156 4.9062 1.7969 0.75 0.69922 1.3125 1.7109 1.6875 3.0312l-3.2969 0.78125c-0.19922-0.85156-0.60547-1.5234-1.2188-2.0156-0.61719-0.5-1.3672-0.75-2.25-0.75-1.2188 0-2.2109 0.4375-2.9688 1.3125-0.76172 0.875-1.1406 2.2969-1.1406 4.2656 0 2.0742 0.375 3.5547 1.125 4.4375 0.75 0.88672 1.7227 1.3281 2.9219 1.3281 0.88281 0 1.6445-0.28125 2.2812-0.84375 0.63281-0.5625 1.0859-1.4414 1.3594-2.6406zm6.0938 6.0469v-16.469h3.3281v6.4844h6.5v-6.4844h3.3281v16.469h-3.3281v-7.2031h-6.5v7.2031zm15.922-8.125c0-1.6758 0.25-3.0859 0.75-4.2344 0.375-0.83203 0.88281-1.582 1.5312-2.25 0.64453-0.66406 1.3516-1.1602 2.125-1.4844 1.0312-0.4375 2.2188-0.65625 3.5625-0.65625 2.4141 0 4.3516 0.75781 5.8125 2.2656 1.457 1.5 2.1875 3.5938 2.1875 6.2812 0 2.6562-0.72656 4.7344-2.1719 6.2344-1.4375 1.5-3.3711 2.25-5.7969 2.25-2.4492 0-4.3984-0.74219-5.8438-2.2344-1.4375-1.5-2.1562-3.5547-2.1562-6.1719zm3.4219-0.125c0 1.8672 0.42969 3.2812 1.2969 4.25 0.86328 0.96094 1.957 1.4375 3.2812 1.4375 1.3203 0 2.4062-0.47266 3.25-1.4219 0.85156-0.95703 1.2812-2.3906 1.2812-4.2969 0-1.8945-0.41797-3.3047-1.25-4.2344-0.82422-0.92578-1.918-1.3906-3.2812-1.3906-1.375 0-2.4844 0.47656-3.3281 1.4219-0.83594 0.9375-1.25 2.3516-1.25 4.2344zm0 0" fill="none" stroke="#fff" stroke-linecap="round" stroke-linejoin="round" stroke-miterlimit="10" stroke-width="2"/>
<path d="m79.191 204.47 3.2344-0.3125c0.19531 1.0859 0.59375 1.8828 1.1875 2.3906 0.59375 0.51172 1.3945 0.76562 2.4062 0.76562 1.0703 0 1.8789-0.22266 2.4219-0.67188 0.53906-0.45703 0.8125-0.98828 0.8125-1.5938 0-0.39453-0.11719-0.72656-0.34375-1-0.23047-0.26953-0.625-0.50391-1.1875-0.70312-0.39844-0.13281-1.2891-0.375-2.6719-0.71875-1.7812-0.44531-3.0312-0.99219-3.75-1.6406-1.0117-0.90625-1.5156-2.0078-1.5156-3.3125 0-0.83203 0.23828-1.6133 0.71875-2.3438 0.47656-0.72656 1.1602-1.2852 2.0469-1.6719 0.89453-0.38281 1.9766-0.57812 3.25-0.57812 2.0625 0 3.6133 0.45312 4.6562 1.3594 1.0508 0.90625 1.6016 2.1172 1.6562 3.625l-3.3281 0.15625c-0.14844-0.84375-0.45312-1.4531-0.92188-1.8281-0.46094-0.375-1.1562-0.5625-2.0938-0.5625-0.96875 0-1.7305 0.20312-2.2812 0.60938-0.34375 0.25-0.51562 0.58984-0.51562 1.0156 0 0.38672 0.16016 0.71875 0.48438 1 0.42578 0.35547 1.4453 0.72656 3.0625 1.1094 1.6133 0.375 2.8047 0.76562 3.5781 1.1719 0.78125 0.40625 1.3906 0.96484 1.8281 1.6719 0.4375 0.71094 0.65625 1.5859 0.65625 2.625 0 0.94922-0.26562 1.8359-0.79688 2.6562-0.52344 0.82422-1.2617 1.4375-2.2188 1.8438-0.96094 0.39453-2.1523 0.59375-3.5781 0.59375-2.0859 0-3.6836-0.47656-4.7969-1.4375-1.1172-0.96875-1.7812-2.375-2-4.2188zm31.031 5.3594h-3.6094l-1.4375-3.7344h-6.5781l-1.3594 3.7344h-3.5312l6.4062-16.469h3.5156zm-6.1094-6.5156-2.2812-6.1094-2.2188 6.1094zm7.9062 6.5156v-16.469h3.2344l6.75 11v-11h3.0781v16.469h-3.3281l-6.6406-10.734v10.734zm37.812 0h-3.6094l-1.4375-3.7344h-6.5781l-1.3594 3.7344h-3.5312l6.4062-16.469h3.5156zm-6.1094-6.5156-2.2812-6.1094-2.2188 6.1094zm7.9062 6.5156v-16.469h3.2344l6.75 11v-11h3.0781v16.469h-3.3281l-6.6406-10.734v10.734zm20.281 0v-13.672h-4.875v-2.7969h13.078v2.7969h-4.875v13.672zm9.6719-8.125c0-1.6758 0.25-3.0859 0.75-4.2344 0.375-0.83203 0.88281-1.582 1.5312-2.25 0.64453-0.66406 1.3516-1.1602 2.125-1.4844 1.0312-0.4375 2.2188-0.65625 3.5625-0.65625 2.4141 0 4.3516 0.75781 5.8125 2.2656 1.457 1.5 2.1875 3.5938 2.1875 6.2812 0 2.6562-0.72656 4.7344-2.1719 6.2344-1.4375 1.5-3.3711 2.25-5.7969 2.25-2.4492 0-4.3984-0.74219-5.8438-2.2344-1.4375-1.5-2.1562-3.5547-2.1562-6.1719zm3.4219-0.125c0 1.8672 0.42969 3.2812 1.2969 4.25 0.86328 0.96094 1.957 1.4375 3.2812 1.4375 1.3203 0 2.4062-0.47266 3.25-1.4219 0.85156-0.95703 1.2812-2.3906 1.2812-4.2969 0-1.8945-0.41797-3.3047-1.25-4.2344-0.82422-0.92578-1.918-1.3906-3.2812-1.3906-1.375 0-2.4844 0.47656-3.3281 1.4219-0.83594 0.9375-1.25 2.3516-1.25 4.2344zm15.172 8.25v-16.469h3.2344l6.75 11v-11h3.0781v16.469h-3.3281l-6.6406-10.734v10.734zm16.484 0v-16.469h3.3125v16.469zm5.8125-8.125c0-1.6758 0.25-3.0859 0.75-4.2344 0.375-0.83203 0.88281-1.582 1.5312-2.25 0.64453-0.66406 1.3516-1.1602 2.125-1.4844 1.0312-0.4375 2.2188-0.65625 3.5625-0.65625 2.4141 0 4.3516 0.75781 5.8125 2.2656 1.457 1.5 2.1875 3.5938 2.1875 6.2812 0 2.6562-0.72656 4.7344-2.1719 6.2344-1.4375 1.5-3.3711 2.25-5.7969 2.25-2.4492 0-4.3984-0.74219-5.8438-2.2344-1.4375-1.5-2.1562-3.5547-2.1562-6.1719zm3.4219-0.125c0 1.8672 0.42969 3.2812 1.2969 4.25 0.86328 0.96094 1.957 1.4375 3.2812 1.4375 1.3203 0 2.4062-0.47266 3.25-1.4219 0.85156-0.95703 1.2812-2.3906 1.2812-4.2969 0-1.8945-0.41797-3.3047-1.25-4.2344-0.82422-0.92578-1.918-1.3906-3.2812-1.3906-1.375 0-2.4844 0.47656-3.3281 1.4219-0.83594 0.9375-1.25 2.3516-1.25 4.2344zm-145.88 14.781h6.0781c1.375 0 2.4219 0.10547 3.1406 0.3125 0.95703 0.29297 1.7812 0.80469 2.4688 1.5312 0.69531 0.71875 1.2227 1.6055 1.5781 2.6562 0.36328 1.0547 0.54688 2.3516 0.54688 3.8906 0 1.3555-0.17188 2.5234-0.51562 3.5-0.40625 1.1992-0.99219 2.1719-1.75 2.9219-0.58594 0.5625-1.3672 1-2.3438 1.3125-0.73047 0.23047-1.7109 0.34375-2.9375 0.34375h-6.2656zm3.3281 2.7969v10.891h2.4844c0.92578 0 1.5977-0.050781 2.0156-0.15625 0.53125-0.13281 0.97266-0.35938 1.3281-0.67188 0.36328-0.32031 0.65625-0.85156 0.875-1.5938 0.22656-0.73828 0.34375-1.7422 0.34375-3.0156 0-1.2695-0.11719-2.2422-0.34375-2.9219-0.21875-0.6875-0.53125-1.2188-0.9375-1.5938-0.40625-0.38281-0.92188-0.64453-1.5469-0.78125-0.46094-0.10156-1.3672-0.15625-2.7188-0.15625zm13.297 13.672v-16.469h12.203v2.7969h-8.875v3.6406h8.2656v2.7812h-8.2656v4.4688h9.2031v2.7812zm15.438 0v-16.328h3.3281v13.547h8.2656v2.7812zm20.344 0v-16.469h12.203v2.7969h-8.875v3.6406h8.2656v2.7812h-8.2656v4.4688h9.2031v2.7812zm14.5-5.3594 3.2344-0.3125c0.19531 1.0859 0.59375 1.8828 1.1875 2.3906 0.59375 0.51172 1.3945 0.76562 2.4062 0.76562 1.0703 0 1.8789-0.22266 2.4219-0.67188 0.53906-0.45703 0.8125-0.98828 0.8125-1.5938 0-0.39453-0.11719-0.72656-0.34375-1-0.23047-0.26953-0.625-0.50391-1.1875-0.70312-0.39844-0.13281-1.2891-0.375-2.6719-0.71875-1.7812-0.44531-3.0312-0.99219-3.75-1.6406-1.0117-0.90625-1.5156-2.0078-1.5156-3.3125 0-0.83203 0.23828-1.6133 0.71875-2.3438 0.47656-0.72656 1.1602-1.2852 2.0469-1.6719 0.89453-0.38281 1.9766-0.57812 3.25-0.57812 2.0625 0 3.6133 0.45312 4.6562 1.3594 1.0508 0.90625 1.6016 2.1172 1.6562 3.625l-3.3281 0.15625c-0.14844-0.84375-0.45312-1.4531-0.92188-1.8281-0.46094-0.375-1.1562-0.5625-2.0938-0.5625-0.96875 0-1.7305 0.20312-2.2812 0.60938-0.34375 0.25-0.51562 0.58984-0.51562 1.0156 0 0.38672 0.16016 0.71875 0.48438 1 0.42578 0.35547 1.4453 0.72656 3.0625 1.1094 1.6133 0.375 2.8047 0.76562 3.5781 1.1719 0.78125 0.40625 1.3906 0.96484 1.8281 1.6719 0.4375 0.71094 0.65625 1.5859 0.65625 2.625 0 0.94922-0.26562 1.8359-0.79688 2.6562-0.52344 0.82422-1.2617 1.4375-2.2188 1.8438-0.96094 0.39453-2.1523 0.59375-3.5781 0.59375-2.0859 0-3.6836-0.47656-4.7969-1.4375-1.1172-0.96875-1.7812-2.375-2-4.2188zm19.891 5.3594v-13.672h-4.875v-2.7969h13.078v2.7969h-4.875v13.672zm10.359 0v-16.469h7c1.7578 0 3.0352 0.15234 3.8281 0.45312 0.80078 0.29297 1.4414 0.82031 1.9219 1.5781 0.47656 0.75 0.71875 1.6172 0.71875 2.5938 0 1.2305-0.36719 2.25-1.0938 3.0625-0.73047 0.80469-1.8203 1.3086-3.2656 1.5156 0.71875 0.41797 1.3125 0.88281 1.7812 1.3906 0.46875 0.5 1.0977 1.3867 1.8906 2.6562l2.0156 3.2188h-3.9688l-2.4062-3.5781c-0.85547-1.2812-1.4375-2.0859-1.75-2.4219-0.3125-0.33203-0.64844-0.5625-1-0.6875-0.35547-0.125-0.91406-0.1875-1.6719-0.1875h-0.67188v6.875zm3.3281-9.5h2.4531c1.5938 0 2.5859-0.066406 2.9844-0.20312 0.39453-0.13281 0.70312-0.36328 0.92188-0.6875 0.22656-0.33203 0.34375-0.75 0.34375-1.25 0-0.55078-0.14844-0.99219-0.4375-1.3281-0.29297-0.34375-0.71094-0.5625-1.25-0.65625-0.27344-0.03125-1.0781-0.046875-2.4219-0.046875h-2.5938zm13.266 9.5v-16.469h12.203v2.7969h-8.875v3.6406h8.2656v2.7812h-8.2656v4.4688h9.2031v2.7812zm25.875-6.0469 3.2344 1.0156c-0.5 1.793-1.3281 3.125-2.4844 4-1.1484 0.875-2.6016 1.3125-4.3594 1.3125-2.1875 0-3.9844-0.74219-5.3906-2.2344-1.4062-1.5-2.1094-3.5469-2.1094-6.1406 0-2.7383 0.70312-4.8633 2.1094-6.375 1.4141-1.5195 3.2812-2.2812 5.5938-2.2812 2.0078 0 3.6445 0.60156 4.9062 1.7969 0.75 0.69922 1.3125 1.7109 1.6875 3.0312l-3.2969 0.78125c-0.19922-0.85156-0.60547-1.5234-1.2188-2.0156-0.61719-0.5-1.3672-0.75-2.25-0.75-1.2188 0-2.2109 0.4375-2.9688 1.3125-0.76172 0.875-1.1406 2.2969-1.1406 4.2656 0 2.0742 0.375 3.5547 1.125 4.4375 0.75 0.88672 1.7227 1.3281 2.9219 1.3281 0.88281 0 1.6445-0.28125 2.2812-0.84375 0.63281-0.5625 1.0859-1.4414 1.3594-2.6406zm6.0938 6.0469v-16.469h3.3281v6.4844h6.5v-6.4844h3.3281v16.469h-3.3281v-7.2031h-6.5v7.2031zm15.922-8.125c0-1.6758 0.25-3.0859 0.75-4.2344 0.375-0.83203 0.88281-1.582 1.5312-2.25 0.64453-0.66406 1.3516-1.1602 2.125-1.4844 1.0312-0.4375 2.2188-0.65625 3.5625-0.65625 2.4141 0 4.3516 0.75781 5.8125 2.2656 1.457 1.5 2.1875 3.5938 2.1875 6.2812 0 2.6562-0.72656 4.7344-2.1719 6.2344-1.4375 1.5-3.3711 2.25-5.7969 2.25-2.4492 0-4.3984-0.74219-5.8438-2.2344-1.4375-1.5-2.1562-3.5547-2.1562-6.1719zm3.4219-0.125c0 1.8672 0.42969 3.2812 1.2969 4.25 0.86328 0.96094 1.957 1.4375 3.2812 1.4375 1.3203 0 2.4062-0.47266 3.25-1.4219 0.85156-0.95703 1.2812-2.3906 1.2812-4.2969 0-1.8945-0.41797-3.3047-1.25-4.2344-0.82422-0.92578-1.918-1.3906-3.2812-1.3906-1.375 0-2.4844 0.47656-3.3281 1.4219-0.83594 0.9375-1.25 2.3516-1.25 4.2344z" fill-rule="evenodd"/>
</g>
</svg>
