<?xml version="1.0" encoding="UTF-8"?>
<svg width="500pt" height="365pt" version="1.1" viewBox="0 0 500 365" xmlns="http://www.w3.org/2000/svg">
<g id="a">
<rect width="500" height="365" fill="none"/>
<path d="m458.95 274.7 10.422 15.074 6.5508 9.5586 0.69922 1.1367 1.7109 2.4023 0.91797 1.6875 4.2656 7.3203 1.8008 3.1562 1.0664 1.8125 8.0312 13.926 4.5859 8.0781-1.0117-0.26172-0.90625-0.44141-0.79297 0.66797-0.96875 0.30078-0.98047-0.23047-1.0352 0.19922-1-0.16797-0.76953 0.69922-0.97266-0.23047-1.0586-0.54297-0.875 0.54688-1.0117-0.26562-0.98828 0.25781-0.96875-0.35547-0.53516-0.85156-0.99219 0.15625-1.1445-0.078125-0.98828-0.3125-1.0273 0.5-0.97656 0.23828-0.39844 1.1602-0.92578 0.40234-0.87109 0.64062-0.95312 0.40625-0.99609 0.3125-0.89844-0.48438-0.035156-1.0078-0.94531-0.61328-1-0.14844-1.0234 0.18359-0.56641-0.86719-1.1133 0.28125-0.99219 0.15625-1.0156-0.16797-1.0273-0.023438-0.96875-0.26172-1.0117-0.074218-0.4375-0.98438-0.83594-0.71484-1.0352-0.027344-0.63672-0.78125-0.99219-0.33594-0.46094 0.89844-0.91016-0.64453-0.80469-0.75781-0.65625-0.78516-1.0742-0.14062-0.99219-0.15234-0.47656 0.90234-0.625 0.82812-1.0195-0.17188-0.625 0.78516-0.96484-0.30859-0.63281 0.87891-1.0547-0.13672-1.0156 0.22266-0.89844-0.49609-0.63672 0.80859-1.0312 0.09375-0.94531 0.34766-0.98828 0.33594-0.53906-0.87891-1-0.042969-0.99609 0.13672-0.89844 0.44922-0.77734-0.74219-1-0.22266-1.043 0.28906-0.60156-0.89844-1.0039-0.14453-0.82812-0.85156-0.74609-0.78906-0.88281-0.51172-1.0625 0.074219-0.6875-0.73828-1.0742 0.050782-0.90234-0.67969-0.82422-0.58984-0.94922-0.32031-1.043-0.17188-0.86719 0.60156-1.0078 0.24609-0.76953-0.66406-1.043 0.34375-0.66406 0.80078-1.1914-0.074219-0.92969-0.49219-0.83984-0.60547-0.37109-0.95312-0.85156-0.63281-1.0352-0.23828-0.54297-0.85547-0.89062-0.48438-0.94531-0.48828-1.0273 0.074219-1.0469-0.45703-1.0234 0.015625-1.0312-0.023438-0.16406-1.0898 0.21094-1.1211-0.97656-0.41016-0.88672-0.58984-1.0117-0.19531-0.46484-0.91406-0.69531-0.73047-0.33984-0.95703-1.0078-0.57031-1.0273-0.14062-1 0.003906-0.94141-0.50391-0.47266-0.95312 0.066406-1.0039-0.65234-0.75781-1.0156 0.007813-1.0117-0.17969-1.0234-0.15625-1.0195-0.59375-0.26562-0.99219-0.91016-0.48828-0.96484-0.30078-0.71094 0.90625-0.80078-0.62891-0.91797 0.44141-0.58594 0.82812-0.6875-0.73828-0.54297-0.90234-0.97656-0.32031-1.0195 0.10938-0.26172 1.0312-0.92188 0.51953-1.0195-0.054687-0.96484 0.36328-0.96094 0.35938-0.55078 0.85547-0.69531 0.73047-0.78516 0.76953-0.41797 1.0273-0.82031-0.63281-0.96484 0.53516-0.60938 0.83984 0.46484 0.89453-0.98438-0.21094-0.97266-0.25-0.51953-0.85547-0.98828 0.33203-1.043 0.34766-0.50781 0.89453-1.1523-0.39453-0.87891-0.50781-0.77344-0.64453-0.94922 0.36328-0.92969-0.59766-1.125 0.046875-1.0078-0.027344-0.95312-0.3125-0.56641-0.82812-0.76172-0.66016-1.0195 0.125-0.84766 0.55859-1.0469-0.082031-0.98047-0.36328-0.83594-0.76172-1.0039 0.21094-0.89844-0.53516-1.0195-0.12891-0.91406-0.4375-0.58203-0.83203-0.91406-0.41797-0.98828-0.17578-1-0.28516-0.92188-0.44531-0.62109-0.85938-0.33984-0.94531-0.875-0.55078 0.035156-1.0977-1.0547-0.32812-0.93359-0.35547-0.16016-1.0469-1.0547 0.007813-0.59766 0.82422-1.0586-0.41406-0.89062-0.47266-0.81641-0.75391-0.60547-0.89062-0.76562-0.67578-0.86328-0.55078-1.0195 0.11328-0.79688 0.63672-1.0664-0.0625-0.71484-0.71094-0.89453-0.67969-1.0039 0.007813-1.0508 0.078125-1.0195 0.29688-1.0039 0.44531-1.0117 0.17578-0.89844-0.63672-0.83203-0.57422-0.83594-0.59375-0.83203-0.59375-0.375-0.9375-0.83203-0.57031-1.043-0.24609-0.97266-0.28125-0.64062-0.84766-0.48828-0.91016-1.0352 0.16797-0.93359 0.61328-0.84375-0.55469-1.0273-0.30078-1.0586-0.1875-0.94922-0.32031-0.83594-0.58984-0.6875-0.74219-0.73828-0.71094-0.80469-0.61328-0.74609-0.68359-1.0352-0.26172-0.66406-0.86328-0.99609-0.066406-0.90234-0.49609-1.0273-0.49219-0.83984-0.5625-0.89453-0.50391-0.73828-0.81641-0.39453-0.94141-0.36328-0.96094-0.51953-0.99219-0.92188-0.48047-0.73438-0.88672-0.88672-0.63672-0.82812-0.61328-0.38281-0.94141-0.26562-1.0156-1.0703-0.38281-0.83984-0.91016-1.2188-0.55078-0.050782-1.0234-0.078125-1.1602-0.71484-0.73438-0.75391-0.6875-0.91797-0.53906-0.32812-0.96484-0.55469-1.0078 0.11719-1-0.55469-0.94922-0.65625-0.84766-0.72266-0.75781-0.67578-1.0703-0.32031-0.96094 0.007813-1.1094-0.87891-0.61328-0.60156-0.90625-0.36719-1-0.88672-0.49219-0.86719-0.52734-1.0859-0.17188-0.95312-0.3125-1.043 0.007812-0.95703 0.30469-1.0977-0.69531-0.9375-0.39844-0.83984 0.66406-0.94141 0.52344-0.99609-0.22266-0.47266-1.0391-0.85938-0.53906-0.71875-0.70312 1.0195-0.20703 2.8672 0.39453 1.2773-0.11328 1.2539-0.015625 1.1055-0.34766 1.0781-0.007813 1.2539-0.023437 1.1445 0.58203 1.3008 0.47656 1.2812 0.14453 1.0664-0.38281 0.95703 0.74219 1.0586 0.625 0.96484 0.33203 0.94141 1.1211 1.2773 0.57812 0.93359 0.50781 0.88281 0.65625 1.0195 0.88281 0.93359 0.53906 1.1055 0.050782 1.1406 0.51562 0.66406 0.92188 0.94922 0.33203 0.97266 0.27344 1.0703 0.23047 1 0.20703 0.90234 0.45312 1.0938 0.62891 1.1094 0.085937 0.99609-0.30078 1.0781 0.066406 1.0195 0.22266 0.95703 0.39062 0.78125 0.73438 1.1992 0.19922 1.0312 0.24609 1.0469-0.23047 0.97656-0.25 0.91016-0.56641 1.1133-0.13672 0.85547-0.58984 0.97266-0.24609 0.62891-0.84766 0.53516-0.85938 1.0273-0.011718 0.35938 0.99609 0.78516 0.66797 0.64844 0.87891 0.98438 0.67578 1.0664 0.03125 1.0508 0.23438 0.97656-0.21094 0.94531-0.32812 0.875 0.59375 0.47656 0.89453 0.92188 0.73438 1.2812-0.066406 1.0117 0.015625 0.73828 0.67578 1.0234 0.33984 1.0156 0.42188 1.2266 0.20312 1.0078 0.60938 0.625 0.95703 0.44141 0.91016 0.11328 1.0273 0.88281 0.85938 1.2734 0.070313 1.1094 0.13281 1.0312 0.17578 0.50391 0.88281 1.0547 0.29297 1.0391-0.082031 0.99609-0.32031 0.98438-0.44141 1.0391-0.13672 1.0977 0.32812 0.77344 0.67578 0.023437 1.168-0.50781 0.88672 0.20312 1.0547 0.5 0.95703 0.13672 1.082 0.96875 0.69141 1.0117 0.50391 0.79297 0.69531 1.1133-0.64844 0.89844 0.62891 0.97656 0.23828 0.98047-0.28906 0.89062-0.54688 0.51953-1.1055 1.0391-0.10938 0.59375 0.875 0.94141 0.5 0.96094-0.40625 0.875-0.59766 1.1953 0.0625 0.67578 0.75391 1.0273 0.42969 0.64062 0.92969 0.83203 0.64453 1.0938 0.41406 0.92969 0.53125 1.0312 0.71875 0.80078-0.80078 0.98047-0.33984 1.0742-0.29297 1.1953-0.042969 0.91016 0.69531 0.84375 0.53906 0.88672 0.50391 0.89062 0.48438 0.9375 0.38672 0.6875-0.76953 0.66406-0.75781 0.85156-0.65234 1.0156-0.007812 0.75391 0.67969 0.91797 0.45703 1.0898 0.023437 1.0117 0.23828 0.73828 0.71484 1.082-0.15234 1.0156 0.074219 1.0195-0.007812 0.26172 1.0039 1-0.27344 1.0078 0.20703 0.66797 0.78906 0.80078 0.71484 1.0234 0.070312 1.0117-0.22656 0.74219 0.68359 0.71094 0.91016 0.48047 0.94531 0.80469 0.61719 1.0195-0.12891 1.0117-0.26172 1.0508 0.066406 0.45312 0.90234 1.043 0.12891 0.92188-0.43359 1.0078 0.19922 1-0.11328 1.6094-2.5469 2.1562-4.4844 4.7852-9.8789 5.3203-10.832 0.50781-0.92578 2.0586-4.3008 3.4062-6.8906 2.418-4.8984 0.48438-1.0938 1.6406-3.2344 2.5859-5.3711z" fill="#ccc" fill-rule="evenodd"/>
<path d="m458.95 274.7 10.422 15.074 6.5508 9.5586 0.69922 1.1367 1.7109 2.4023 0.91797 1.6875 4.2656 7.3203 1.8008 3.1562 1.0664 1.8125 8.0312 13.926 4.5859 8.0781-1.0117-0.26172-0.90625-0.44141-0.79297 0.66797-0.96875 0.30078-0.98047-0.23047-1.0352 0.19922-1-0.16797-0.76953 0.69922-0.97266-0.23047-1.0586-0.54297-0.875 0.54688-1.0117-0.26562-0.98828 0.25781-0.96875-0.35547-0.53516-0.85156-0.99219 0.15625-1.1445-0.078125-0.98828-0.3125-1.0273 0.5-0.97656 0.23828-0.39844 1.1602-0.92578 0.40234-0.87109 0.64062-0.95312 0.40625-0.99609 0.3125-0.89844-0.48438-0.035156-1.0078-0.94531-0.61328-1-0.14844-1.0234 0.18359-0.56641-0.86719-1.1133 0.28125-0.99219 0.15625-1.0156-0.16797-1.0273-0.023438-0.96875-0.26172-1.0117-0.074218-0.4375-0.98438-0.83594-0.71484-1.0352-0.027344-0.63672-0.78125-0.99219-0.33594-0.46094 0.89844-0.91016-0.64453-0.80469-0.75781-0.65625-0.78516-1.0742-0.14062-0.99219-0.15234-0.47656 0.90234-0.625 0.82812-1.0195-0.17188-0.625 0.78516-0.96484-0.30859-0.63281 0.87891-1.0547-0.13672-1.0156 0.22266-0.89844-0.49609-0.63672 0.80859-1.0312 0.09375-0.94531 0.34766-0.98828 0.33594-0.53906-0.87891-1-0.042969-0.99609 0.13672-0.89844 0.44922-0.77734-0.74219-1-0.22266-1.043 0.28906-0.60156-0.89844-1.0039-0.14453-0.82812-0.85156-0.74609-0.78906-0.88281-0.51172-1.0625 0.074219-0.6875-0.73828-1.0742 0.050782-0.90234-0.67969-0.82422-0.58984-0.94922-0.32031-1.043-0.17188-0.86719 0.60156-1.0078 0.24609-0.76953-0.66406-1.043 0.34375-0.66406 0.80078-1.1914-0.074219-0.92969-0.49219-0.83984-0.60547-0.37109-0.95312-0.85156-0.63281-1.0352-0.23828-0.54297-0.85547-0.89062-0.48438-0.94531-0.48828-1.0273 0.074219-1.0469-0.45703-1.0234 0.015625-1.0312-0.023438-0.16406-1.0898 0.21094-1.1211-0.97656-0.41016-0.88672-0.58984-1.0117-0.19531-0.46484-0.91406-0.69531-0.73047-0.33984-0.95703-1.0078-0.57031-1.0273-0.14062-1 0.003906-0.94141-0.50391-0.47266-0.95312 0.066406-1.0039-0.65234-0.75781-1.0156 0.007813-1.0117-0.17969-1.0234-0.15625-1.0195-0.59375-0.26562-0.99219-0.91016-0.48828-0.96484-0.30078-0.71094 0.90625-0.80078-0.62891-0.91797 0.44141-0.58594 0.82812-0.6875-0.73828-0.54297-0.90234-0.97656-0.32031-1.0195 0.10938-0.26172 1.0312-0.92188 0.51953-1.0195-0.054687-0.96484 0.36328-0.96094 0.35938-0.55078 0.85547-0.69531 0.73047-0.78516 0.76953-0.41797 1.0273-0.82031-0.63281-0.96484 0.53516-0.60938 0.83984 0.46484 0.89453-0.98438-0.21094-0.97266-0.25-0.51953-0.85547-0.98828 0.33203-1.043 0.34766-0.50781 0.89453-1.1523-0.39453-0.87891-0.50781-0.77344-0.64453-0.94922 0.36328-0.92969-0.59766-1.125 0.046875-1.0078-0.027344-0.95312-0.3125-0.56641-0.82812-0.76172-0.66016-1.0195 0.125-0.84766 0.55859-1.0469-0.082031-0.98047-0.36328-0.83594-0.76172-1.0039 0.21094-0.89844-0.53516-1.0195-0.12891-0.91406-0.4375-0.58203-0.83203-0.91406-0.41797-0.98828-0.17578-1-0.28516-0.92188-0.44531-0.62109-0.85938-0.33984-0.94531-0.875-0.55078 0.035156-1.0977-1.0547-0.32812-0.93359-0.35547-0.16016-1.0469-1.0547 0.007813-0.59766 0.82422-1.0586-0.41406-0.89062-0.47266-0.81641-0.75391-0.60547-0.89062-0.76562-0.67578-0.86328-0.55078-1.0195 0.11328-0.79688 0.63672-1.0664-0.0625-0.71484-0.71094-0.89453-0.67969-1.0039 0.007813-1.0508 0.078125-1.0195 0.29688-1.0039 0.44531-1.0117 0.17578-0.89844-0.63672-0.83203-0.57422-0.83594-0.59375-0.83203-0.59375-0.375-0.9375-0.83203-0.57031-1.043-0.24609-0.97266-0.28125-0.64062-0.84766-0.48828-0.91016-1.0352 0.16797-0.93359 0.61328-0.84375-0.55469-1.0273-0.30078-1.0586-0.1875-0.94922-0.32031-0.83594-0.58984-0.6875-0.74219-0.73828-0.71094-0.80469-0.61328-0.74609-0.68359-1.0352-0.26172-0.66406-0.86328-0.99609-0.066406-0.90234-0.49609-1.0273-0.49219-0.83984-0.5625-0.89453-0.50391-0.73828-0.81641-0.39453-0.94141-0.36328-0.96094-0.51953-0.99219-0.92188-0.48047-0.73438-0.88672-0.88672-0.63672-0.82812-0.61328-0.38281-0.94141-0.26562-1.0156-1.0703-0.38281-0.83984-0.91016-1.2188-0.55078-0.050782-1.0234-0.078125-1.1602-0.71484-0.73438-0.75391-0.6875-0.91797-0.53906-0.32812-0.96484-0.55469-1.0078 0.11719-1-0.55469-0.94922-0.65625-0.84766-0.72266-0.75781-0.67578-1.0703-0.32031-0.96094 0.007813-1.1094-0.87891-0.61328-0.60156-0.90625-0.36719-1-0.88672-0.49219-0.86719-0.52734-1.0859-0.17188-0.95312-0.3125-1.043 0.007812-0.95703 0.30469-1.0977-0.69531-0.9375-0.39844-0.83984 0.66406-0.94141 0.52344-0.99609-0.22266-0.47266-1.0391-0.85938-0.53906-0.71875-0.70312 1.0195-0.20703 2.8672 0.39453 1.2773-0.11328 1.2539-0.015625 1.1055-0.34766 1.0781-0.007813 1.2539-0.023437 1.1445 0.58203 1.3008 0.47656 1.2812 0.14453 1.0664-0.38281 0.95703 0.74219 1.0586 0.625 0.96484 0.33203 0.94141 1.1211 1.2773 0.57812 0.93359 0.50781 0.88281 0.65625 1.0195 0.88281 0.93359 0.53906 1.1055 0.050782 1.1406 0.51562 0.66406 0.92188 0.94922 0.33203 0.97266 0.27344 1.0703 0.23047 1 0.20703 0.90234 0.45312 1.0938 0.62891 1.1094 0.085937 0.99609-0.30078 1.0781 0.066406 1.0195 0.22266 0.95703 0.39062 0.78125 0.73438 1.1992 0.19922 1.0312 0.24609 1.0469-0.23047 0.97656-0.25 0.91016-0.56641 1.1133-0.13672 0.85547-0.58984 0.97266-0.24609 0.62891-0.84766 0.53516-0.85938 1.0273-0.011718 0.35938 0.99609 0.78516 0.66797 0.64844 0.87891 0.98438 0.67578 1.0664 0.03125 1.0508 0.23438 0.97656-0.21094 0.94531-0.32812 0.875 0.59375 0.47656 0.89453 0.92188 0.73438 1.2812-0.066406 1.0117 0.015625 0.73828 0.67578 1.0234 0.33984 1.0156 0.42188 1.2266 0.20312 1.0078 0.60938 0.625 0.95703 0.44141 0.91016 0.11328 1.0273 0.88281 0.85938 1.2734 0.070313 1.1094 0.13281 1.0312 0.17578 0.50391 0.88281 1.0547 0.29297 1.0391-0.082031 0.99609-0.32031 0.98438-0.44141 1.0391-0.13672 1.0977 0.32812 0.77344 0.67578 0.023437 1.168-0.50781 0.88672 0.20312 1.0547 0.5 0.95703 0.13672 1.082 0.96875 0.69141 1.0117 0.50391 0.79297 0.69531 1.1133-0.64844 0.89844 0.62891 0.97656 0.23828 0.98047-0.28906 0.89062-0.54688 0.51953-1.1055 1.0391-0.10938 0.59375 0.875 0.94141 0.5 0.96094-0.40625 0.875-0.59766 1.1953 0.0625 0.67578 0.75391 1.0273 0.42969 0.64062 0.92969 0.83203 0.64453 1.0938 0.41406 0.92969 0.53125 1.0312 0.71875 0.80078-0.80078 0.98047-0.33984 1.0742-0.29297 1.1953-0.042969 0.91016 0.69531 0.84375 0.53906 0.88672 0.50391 0.89062 0.48438 0.9375 0.38672 0.6875-0.76953 0.66406-0.75781 0.85156-0.65234 1.0156-0.007812 0.75391 0.67969 0.91797 0.45703 1.0898 0.023437 1.0117 0.23828 0.73828 0.71484 1.082-0.15234 1.0156 0.074219 1.0195-0.007812 0.26172 1.0039 1-0.27344 1.0078 0.20703 0.66797 0.78906 0.80078 0.71484 1.0234 0.070312 1.0117-0.22656 0.74219 0.68359 0.71094 0.91016 0.48047 0.94531 0.80469 0.61719 1.0195-0.12891 1.0117-0.26172 1.0508 0.066406 0.45312 0.90234 1.043 0.12891 0.92188-0.43359 1.0078 0.19922 1-0.11328 1.6094-2.5469 2.1562-4.4844 4.7852-9.8789 5.3203-10.832 0.50781-0.92578 2.0586-4.3008 3.4062-6.8906 2.418-4.8984 0.48438-1.0938 1.6406-3.2344 2.5859-5.3711 16.801 26.656" fill="none" stroke="#fff" stroke-linecap="round" stroke-linejoin="round" stroke-miterlimit="10" stroke-width="2"/>
<path d="m383.04 227.9 0.16797 0.09375 0.9375 1.0977 0.91406 0.55078 1.2539-0.23438 1.75 0.60156 0.71875 1.0039 0.90234 0.82422 0.92578 0.92578 1.7656 0.32031 1.0586 0.53125 1.1484 0.33594 1.3086-0.24219 0.65234-1.2812 1.0586-0.5 1.4219 0.011718 1.1562-0.30859 1.1406-0.32812 1.1016-0.625 0.98828 0.26953 1.4453-0.19141 1.0117-0.23828 0.64062-0.89453 0.88672 0.76953 0.8125 0.70703 1.707 0.28125 1.3984 0.38281 1.1484 0.023438 1.3164-0.0625 1.0508-0.33594 1.2109-0.24219 1.0781 0.68359 0.66016 1.1289 0.10156 1.3867 0.52344 0.89844 1.5977 0.68359 1.1094 0.59375 0.91406 0.85938 0.64844 0.83203 0.60156 0.95312 0.69531 0.73828 1.0117 0.76172 2.3594 1.7656 2.1914 1.5234 1.2266 0.47656 1.1094 0.3125 2.8203 0.26562 2.3125 0.66797 0.9375 0.5 1.082 0.85156 0.86328 0.75 1.2617 0.074219 1.0078 0.18359-2.5859 5.3711-1.6406 3.2344-0.48438 1.0938-2.418 4.8984-3.4062 6.8906-2.0586 4.3008-0.50781 0.92578-5.3203 10.832-4.7383 9.8086-2.2031 4.5547-1.1836 2.5391-1.0391 0.035157-1.1016-0.15625-1.1016 0.17578-0.96484 0.26562-0.60938-0.94141-1.0859-0.12109-0.97266 0.29297-0.98828-0.15234-0.92969-0.4375-0.52344-0.99609-0.64844-0.77734-0.76562-0.64453-1.0078 0.13672-0.98047-0.33984-1.0703-0.68359-0.83203-0.59375-1.0078 0.1875-0.64062-0.77344-0.53125-0.87891-0.74609 0.74609-1.0664-0.17969-1.0664-0.12109-0.75781-0.67969-1.0117-0.10547-1.0703 0.12891-0.88672-0.55469-0.88281-0.59375-1.0039 0.011718-0.66797 0.75-0.65625 0.76172-1.1758-0.027344-0.96484 0.35547-0.6875-0.80469-1.0273-0.57812-0.86328-0.75-1.1211-0.37891-0.85547 0.62109-1.0508-0.22266-0.66406 0.75-1.0234 0.35938-0.94922-0.64844-1.0156-0.49609-0.98047-0.41406-0.80859-0.73438-0.76953-0.94141-0.97266-0.32031-0.71484-0.77734-1.1562-0.003907-0.80859 0.64453-0.94141 0.37891-0.875-0.60156-0.9375-0.89844-0.84766 0.97656-0.91016 0.75781-0.94922 0.35156-1.0195-0.015625-0.76562-0.67969-1.0703 0.32812-1.1797-0.38281-0.95312-0.55859-0.97656-0.44531-0.34766-1.0469-0.082032-1.0234-0.54297-1.1562 0.39453-0.9375 0.27734-1.0273-0.80078-0.75-1.2734-0.49609-1.0391 0.13672-0.98438 0.44141-0.99609 0.32031-1.0391 0.082031-0.99219-0.1875-0.51953-0.95312-1.0781-0.21094-1-0.15234-0.98828 0.19922-0.6875-0.73438-0.71484-0.78906-0.09375-1.0391-0.5625-0.92188-0.70703-0.76562-1.2461-0.41406-0.96484-0.32422-1.1523-0.35938-0.88281-0.48438-1.0547-0.45312-1.1016 0.03125-1.0547-0.35938-0.64062-0.83594-0.69141-1.0664-1.0156 0.31641-0.96484 0.30859-1-0.25391-1.0977 0.042969-1.1211-0.34375-0.76953-1.0664-0.875-0.54297 0.11719-1.0508-1.1406-0.34375-0.92969 0.42969-0.48438 0.89062-0.78125 0.6875-0.94922 0.42188-1.0625 0.22656-0.93359 0.39453-0.94531 0.45703-1.1094 0.074219-1.0977 0.0625-1.0156-0.21875-0.98828-0.18359 0.61719-1.3945 2.0078-1.4414 14.547-10.789 2.5625-1.9648 14.188-10.676 5.4141-4.0664 22.574-17.086 1.543-0.80469z" fill="#ccc" fill-rule="evenodd"/>
<path d="m383.04 227.9 0.16797 0.09375 0.9375 1.0977 0.91406 0.55078 1.2539-0.23438 1.75 0.60156 0.71875 1.0039 0.90234 0.82422 0.92578 0.92578 1.7656 0.32031 1.0586 0.53125 1.1484 0.33594 1.3086-0.24219 0.65234-1.2812 1.0586-0.5 1.4219 0.011718 1.1562-0.30859 1.1406-0.32812 1.1016-0.625 0.98828 0.26953 1.4453-0.19141 1.0117-0.23828 0.64062-0.89453 0.88672 0.76953 0.8125 0.70703 1.707 0.28125 1.3984 0.38281 1.1484 0.023438 1.3164-0.0625 1.0508-0.33594 1.2109-0.24219 1.0781 0.68359 0.66016 1.1289 0.10156 1.3867 0.52344 0.89844 1.5977 0.68359 1.1094 0.59375 0.91406 0.85938 0.64844 0.83203 0.60156 0.95312 0.69531 0.73828 1.0117 0.76172 2.3594 1.7656 2.1914 1.5234 1.2266 0.47656 1.1094 0.3125 2.8203 0.26562 2.3125 0.66797 0.9375 0.5 1.082 0.85156 0.86328 0.75 1.2617 0.074219 1.0078 0.18359-2.5859 5.3711-1.6406 3.2344-0.48438 1.0938-2.418 4.8984-3.4062 6.8906-2.0586 4.3008-0.50781 0.92578-5.3203 10.832-4.7383 9.8086-2.2031 4.5547-1.1836 2.5391-1.0391 0.035157-1.1016-0.15625-1.1016 0.17578-0.96484 0.26562-0.60938-0.94141-1.0859-0.12109-0.97266 0.29297-0.98828-0.15234-0.92969-0.4375-0.52344-0.99609-0.64844-0.77734-0.76562-0.64453-1.0078 0.13672-0.98047-0.33984-1.0703-0.68359-0.83203-0.59375-1.0078 0.1875-0.64062-0.77344-0.53125-0.87891-0.74609 0.74609-1.0664-0.17969-1.0664-0.12109-0.75781-0.67969-1.0117-0.10547-1.0703 0.12891-0.88672-0.55469-0.88281-0.59375-1.0039 0.011718-0.66797 0.75-0.65625 0.76172-1.1758-0.027344-0.96484 0.35547-0.6875-0.80469-1.0273-0.57812-0.86328-0.75-1.1211-0.37891-0.85547 0.62109-1.0508-0.22266-0.66406 0.75-1.0234 0.35938-0.94922-0.64844-1.0156-0.49609-0.98047-0.41406-0.80859-0.73438-0.76953-0.94141-0.97266-0.32031-0.71484-0.77734-1.1562-0.003907-0.80859 0.64453-0.94141 0.37891-0.875-0.60156-0.9375-0.89844-0.84766 0.97656-0.91016 0.75781-0.94922 0.35156-1.0195-0.015625-0.76562-0.67969-1.0703 0.32812-1.1797-0.38281-0.95312-0.55859-0.97656-0.44531-0.34766-1.0469-0.082032-1.0234-0.54297-1.1562 0.39453-0.9375 0.27734-1.0273-0.80078-0.75-1.2734-0.49609-1.0391 0.13672-0.98438 0.44141-0.99609 0.32031-1.0391 0.082031-0.99219-0.1875-0.51953-0.95312-1.0781-0.21094-1-0.15234-0.98828 0.19922-0.6875-0.73438-0.71484-0.78906-0.09375-1.0391-0.5625-0.92188-0.70703-0.76562-1.2461-0.41406-0.96484-0.32422-1.1523-0.35938-0.88281-0.48438-1.0547-0.45312-1.1016 0.03125-1.0547-0.35938-0.64062-0.83594-0.69141-1.0664-1.0156 0.31641-0.96484 0.30859-1-0.25391-1.0977 0.042969-1.1211-0.34375-0.76953-1.0664-0.875-0.54297 0.11719-1.0508-1.1406-0.34375-0.92969 0.42969-0.48438 0.89062-0.78125 0.6875-0.94922 0.42188-1.0625 0.22656-0.93359 0.39453-0.94531 0.45703-1.1094 0.074219-1.0977 0.0625-1.0156-0.21875-0.98828-0.18359 0.61719-1.3945 2.0078-1.4414 14.547-10.789 2.5625-1.9648 14.188-10.676 5.4141-4.0664 22.574-17.086 1.543-0.80469h0.36328" fill="none" stroke="#fff" stroke-linecap="round" stroke-linejoin="round" stroke-miterlimit="10" stroke-width="2"/>
<path d="m243.96 62.023-0.019532 22.742v14.277l-0.007812 6.4219-0.007813 5.875 0.007813 8.2109v61.184l-0.019531 16.406 2.7812-2.0312 5.9648-4.5781 4.5898-3.6172 1.3164 0.085937 0.17188 1.0742 0.58203 0.92969 1.2266 0.39453 0.81641 0.75 0.72656 0.69922 0.89062 0.67578 1.0273 0.30078 0.74609 0.74219 0.75781 0.96094 0.36328 0.98438 0.76172 0.6875 0.98047 0.57422 0.83594 0.61328 0.73047 0.69531 0.49609 0.94531 0.53125 0.92578 0.42188 0.95703 0.33203 1.0195-0.058594 1.0078 0.16797 1.0508 1.0078 0.29297 1-0.20703 1.1211 0.28906 0.99219 0.25 0.66797 0.75 1.1523-0.16016 1.043 0.046875 0.97266 0.32031 0.94531 0.38672 0.27734 0.97656 0.91016 0.57812 1.1172-0.10938 1.0078 0.058594 1.0078-0.10156 0.53125 0.86328 0.96875 0.26953 1.0352 0.11328 1.0781-0.25 1.0859 0.18359 1.1094 0.1875 1.0352 0.33594 1.043-0.30859 0.98438-0.39453 1.0859-0.57031 0.8125-0.64453 1.2227 0.007813 1.0508-0.082031 0.72656-0.75391 1.0195-0.003906 1.0625-0.42188 1.0664-0.10938 1.0156 0.070313 1.0664 0.33594 1.0664-0.17188 1.0391-0.023437 1.1016-0.019532 1.0234 0.22266 1.0352 0.16016 0.96875-0.45703 0.6875-0.78906 1.1445-0.10938 0.96875-0.27344 1.0469-0.12109 1.0312 0.03125 0.42578-0.92188 0.94531-0.68359 1.3008-0.22266 0.46484-0.91406 1.0586-0.21094 0.80859-0.96094 0.79688-0.89844 1.1875-0.21484 1.0469-0.24219 0.33203-1.0977 0.49609-0.91797 0.99219 0.23438 0.23047-1.0352 0.99609-0.29297 0.89844-0.50391 0.34766 0.96484 1.0156-0.070312 0.89453 0.62891 0.64844-0.79688 1.1562-0.21875 0.91406-0.4375 0.625-0.79688 1.1016 0.070312 0.25-1.1641 1.1328 0.39453 0.79688-0.625 1.0234-0.28906 1.2031-0.53516 1-0.33984 1.1523-0.10938 0.28125-1.0391 1.1406-0.21875 0.61719-0.82031 0.22266-1.0273 0.71094 0.74219 1.0703-0.15234 0.6875-0.74609 0.98047-0.28906 0.99609-0.79688-0.039062-1.0547 0.91016-0.46094 1.0391 0.23438 0.97656-0.60938 1.1094 0.14062 0.67188 0.89453 0.93359 0.48047 0.0625-1.0234 0.92188-0.42578 1.1328-0.074219 1.1719-0.10156 1.2539 0.23438 1.0273 0.13281 0.96094 0.60938 1.0391-0.09375 1.0781-0.16016 0.42188 0.99219 0.67578-0.87891 1.082-0.48828 0.96875 0.36328 1.0586 0.21875 0.66797 0.83203 1.1523-0.046875 1.1055-0.45312 0.76172-0.71484 1.1367 0.16406 0.91406 0.69922 1.0352 0.082031 1.1211-0.054688 0.89844 0.53125 0.91016-0.50781-0.17188 1.0508 1.1953 0.53906 0.98438-0.31641 0.66016 0.94922 0.78516 0.82031 0.66797 0.81641 0.44922 0.96094 0.4375 0.92969 0.37109 0.9375 1.0039-0.39844 0.96484-0.70312 1.0195 0.22266 0.23828 1.0234 1.1172-0.34766 0.86328-0.91797 0.83984 0.57031 0.84766-0.73047 1.0625-0.27734 0.89844-0.54297 1.1523-0.19922 1.1094-0.015625 0.79688-0.86719 1.043-0.31641 1.1641 0.17188 0.97656 0.34375 1.0508 0.25391 0.99609-0.52734 0.92188-0.59766 1.0469 0.41016 0.5625-0.875 1.1797-0.47266 0.99609-0.36719 0.76953 0.67969 1.1445 0.22266-0.55078-0.89844 0.98047-0.21875 1.0742 0.48828 0.10156 1.0391 0.96094 0.63672 0.68359 0.77734 0.13281 1.0469 1.1133 1.9023 1.2305 2 0.82812 1.3867 1.2109 1.957 1.2109 1.9336 0.97656 1.5781 1.2734 2.043 0.90625 1.457 1.0898 1.7539 1.3125 2.0469 1.3242 2.0859 0.98438 1.5312 1.1406 1.7891 1.5117 2.4102 1.0664 1.7188 1.3984 2.2344 1.3281 2.125 1.5469 2.4727 1.375 2.207 1.1211 1.7891 0.78516 1.2188 0.73047 1.1094 2.0469 3.2578 0.66406 1.0586 1.3359 2.1406 2.8008 4.5117 2.4453 3.9336-1.2891 0.35938-1.1016-0.3125-0.66406-0.91016-1.3203-0.78516-2.7461-0.83594-2.2891-0.17188-1.6406-0.40625-1.2266-0.47656-2.1914-1.5234-1.707-1.4805-1.6641-1.0469-0.69531-0.73828-0.60156-0.95312-0.64844-0.83203-0.91406-0.85938-1.1094-0.59375-1.1484-0.40625-0.97266-1.1758-0.10156-1.3867-0.66016-1.1289-1.0781-0.68359-1.2109 0.24219-1.0508 0.33594-1.0391-0.054688-1.4258 0.09375-1.3984-0.38281-1.2305-0.023438-1.1172-0.69141-0.44531-1.0195-1.0625 0.40234-0.83984 0.58594-1.125 0.23828-1.1406 0.25781-0.89062-0.47656-1.3398 0.74609-1.2227 0.45703-1.1758 0.26172-1.2266-0.16797-0.59766 1.0703-1.6211 0.84766-1.1641-0.015625-0.8125-0.60156-1.418-0.46094-1.3516-0.28516-1.3516-1.4922-0.71875-1.0039-1.0781-0.88672-1.3008 0.54297-1.2266-0.26562-0.64844-0.87891-1.1328-0.62109-0.79688 0.71094-23.32 17.18-5.4141 4.0664-14.016 10.531-2.7344 2.1094-14.523 10.738-2.0312 1.4922-0.875 0.71484-1.3398-0.39844-1.1094-0.18359-1.3594 0.13672-1.0078 0.16016-0.95703-0.55078-0.9375-0.35938-0.96094-0.45703-1.0195-0.050781-1.1797-0.25781-0.89844-0.48047-0.87109-0.52734-0.52734-0.99609-1.1953 0.058594-1.168-0.48828-1.1055-0.30859-0.44531-0.99219-1.0234-0.42969-1.1797-0.61328-1.3789-0.95312-0.71875-0.75-0.82031-0.57422-1.0156-0.40234-0.97656-0.51172-1.2383 0.26562-1.3984-0.17969-1.0625-0.54688-1.3906-0.35156-1.2148-0.21484-0.98047 0.49219-1.0938 0.19922-1.2773-0.14844-3.0117-0.30078-1.1328 0.16406-1.1953-0.3125-1.1211 0.14453-1.207-0.10938-1.043-0.039063-1.0469-0.078125-0.94922-0.375-1.168-1.2227-0.81641-0.84375-0.91016-0.58984-0.59375-1.0273-0.6875-0.86719-0.80859-0.61719-1.0977-0.14062-0.38281-1.082-0.0625-1.0586-0.074219-1.1406-0.44141-0.93359-0.64844-0.80469-0.96875-0.45703-1.0117-0.83594-0.97266-0.75781-1.0586 0.17578-0.91797 0.45703-1.582-0.125-1.6562 0.058594-7.9922 0.90625-3.1562 0.41016-19.762 2.0977-1.5195 0.16016-2.4648 0.28125-1.0039-0.35938-0.88672-0.53125 0.61719 0.90234-1.1406 0.042968-1.1758 0.0625-1.2109 0.48438-0.40625-1.1211-0.63672-0.80469 0.050781-1.0742-0.98828-0.40625-0.67188-1.043-0.34766-1.0508-0.78516-1.0273-1.0703-0.16797 0.86719 0.91797 0.39844 0.95703-0.074219 1.1211-1.3086-1.2734-1.0156-0.71484-1.0742 0.28516-0.5625-1.1328 0.28906-1.1328 0.51562-1.1406-0.67969-0.74219-0.87891-0.55469-0.92578 0.96484-1.1484 0.13281-0.97656-0.25391-1.0117-0.13281-0.58984-0.84766-1.2383-0.085938-1.2031-0.22266-0.98828-0.45312 0.39062-1.0195 0.69922-0.83594 0.46875-0.99609 0.37891-1.1992 0.17578-1.1719-0.5625-0.92969-1.1562-0.14453-1.1055 0.19531 0.46094 0.92969-0.046875 1.0234-1.0469-0.50391-1.0078 0.43359-0.94141 0.375-0.91406-0.76562-0.58594 1.0703-1.0195 0.54688 0.49609-1.0234 0.24609-0.97266-0.70703-0.74609-0.88281 0.95312-0.53516 0.92188-0.31641-1.207-0.84375-0.80469-1.0703 0.51172-0.57812 0.875-0.33203 0.96484-0.42969-1.0078-0.80859-0.86719-1.1172-0.13672-0.95703-0.71094-0.61328-0.84375-1.1211-0.019532-1.2305 0.042969-0.72266-0.85938-1.0039 0.10156-0.87109-0.57812-0.63281-0.9375-0.35547 0.94922-0.88672 0.86719-0.96094-0.41406-0.070313-1.125 0.28125-1.0195-0.98438-0.53125-1 0.375-0.085937 1.1719-0.86719 0.51953 0.14062-1.1133-0.375-0.98438-0.92188 0.79297-1.0078 0.039062-0.72656-0.91797-0.56641-0.98438-0.62109 1.0703-0.52344 0.97656-0.97266-0.40625 0.32031-1.2109-0.26953-0.98438-0.99219-0.14844-0.9375 0.42188-1.0312-0.76172-1.0078 0.14844 0.58203 0.98438-1.0039-0.10938-0.87109-0.55859 0.48438-1.0273 0.30078-0.96875-1.1016 0.35156-0.99609 0.375-0.39844 1.1602-0.66406 0.90625-0.875-1.0703-0.71094-0.96875-0.73828-0.83203-1.0703 0.51953-1.168 0.26562-1.1172 0.11328-0.17578-1.2891-0.30469-1.0938-1.2812-0.11328-1.0234 0.6875 0.054688 1.0625-0.29297 0.98828-0.63281-0.92969-1.0156-0.1875-0.46875-1.0938-1.0859-0.44531-0.97266-0.375-1.1562 0.21094-1.1094 0.10156-0.19922-1.0742-0.87891-0.5-0.58594 1.0781-0.13281 1.0195-0.97656 0.57031-0.32422-0.96094 0.54297-1.0781-0.38281-1.1406-1.0664-0.125-0.29297-1.0195-0.26953-1.1445-0.71875 0.92969-1.0195 0.51562-1.0781 0.17188-0.75781-0.92578-0.66016-0.84375-1.0117-0.19531-0.70703 0.94922-1.0234 0.035157-0.82812-0.67969-1.0586-0.1875-0.74609 0.76172-0.95703-0.47656 0.42188-1.0938 0.29297-0.99219-1.1367 0.011719-0.98438 0.35938-1.2344-0.10547-0.44922-1.0977 0.019531-1.0586-0.96875 0.26953-1.1094 0.83594-1.25-0.3125-1.0391-0.042969-1.1172 0.23047-0.90625 0.64844 0.82422 0.76172-0.42188 0.9375-1.0703-0.55469 0.035156-1.0508 0.68359-0.85547-0.66016-1-0.61328-1.1172-1.4609 0.28125-1.0312-0.22656-0.97266-0.37109-0.90234-0.46094-0.93359-0.85156-1.0273 0.023437-1.0508 0.11719-1.0508-0.035157 0.39453-0.95703-0.14062-1.207-0.94141 0.33203-0.72656 0.82812-0.89062-0.65625 1.1641-0.23438-0.17188-1.1367 0.91406-0.79688 0.57812-0.83594-0.80859-0.84766-0.69141 0.75781-1.1641-0.24609-1-0.40234-1.4375 0.20703-1.0234-0.38672-0.67969-1.0391-1.1641-0.77344-1.0938-0.26172-0.34375 1.0117 0.55078 0.88672-1.0156 0.44141-0.91406-0.625-1.0312-0.22266-0.77344-1.0234-1.0234-0.96094-1.3125-0.17969-0.67578 0.89062-0.074219 1.2305-0.74609-1.1719-0.16406-1.0977-1.0703-0.16406-0.54688 0.87891-0.83594 0.62109-0.82812-0.89844-0.78906-0.64453-0.59766 0.80859-0.89844 0.44922-0.21094 1.082-0.55078 0.85938-0.43359-1.082-0.57031-0.91016-1.0391-0.10156-0.875 0.49219-0.92969 0.51562-1.168-0.40234-1-0.32031-0.23438 0.98828-0.49219 0.96484-0.91016-0.57031 0.44141-0.97266-0.85156-0.85547-0.96094 0.39844-0.44141 0.90625-0.86328-0.51953-1.2656 0.15625-0.9375-0.39844-1.0391 0.11328-0.75 0.78516-0.30078 1.0898-0.53906-0.85938-1.082 0.125-0.48828-1.043-1.0352-0.69531-1.1016-0.023438-0.83594-0.69141-0.54297-0.98047 0.26172-1.1094-1.0117 0.11328-0.55078-0.96094-0.96094 0.36719-0.61719 0.89453-1.0742 0.13672-0.91406 0.99609-0.78125 0.70703-0.03125-1.043-0.64062-0.84375-1.0078 0.082031-1.2617-0.15234-1.2891 0.050782-1.0508 0.20703-0.99609 0.42969-0.11328-1.0195-0.95703-0.39453-1.0469 0.4375-1.0391-0.21484 0.21875-0.97656-1.1133 0.33203-0.83984-0.80469-1.0156-0.14844-0.85156-0.69531 0.14844-1.0273-1.0156 0.49219-1-0.30078-0.50781-0.91797-0.91016 0.48828-0.10938-1-1.0273-0.10156-0.71484-0.73438 0.41406 1.0742 0.83203 0.60156-0.30469 1.0664-0.95312-0.39844-1.0469-0.10156-0.023437 1.1055-1.0664 0.14453-0.95703 0.4375-0.95703 0.61719-1.0391 0.23047 0.64062-0.80859-1.0234-0.16016 0.21484-1.0547 0.33984-0.98047-0.89453-0.59766-0.39453 1.0078-0.36328-1.0742-0.63281 0.79688-1.1641-0.25391-0.84766 0.64062-0.96875 0.38281-1.0234-0.14844-0.12109 1.1133-0.91016-0.48438-0.98828-0.37109-0.91016 0.54688-1.0898-0.003906-0.91016-0.58984-0.99609-0.14062-0.21094 1.0273-0.80469-0.70312-1.0391 0.058594-0.92969 0.51953-1.0078-0.10156-1.0273-0.20703-0.80078 0.6875-0.95703 0.45703-1.0273 0.21094-1.0352-0.03125 0.30859-0.98828-1.2031 0.23438-0.56641 0.86719-1.1055 0.20312-0.58203-0.83594-0.96094 0.33203-1.0703 0.035156-0.83203-0.74219-0.74219-0.67578-0.33984 1.0039-0.61328 0.80859-0.70312 0.77344-0.19531 1.0156-0.90625 0.58984-0.99609-0.14844-1.1602 0.24219-1-0.17578-1.0938 0.32031-0.94922-0.3125-1.0469 0.26172-0.88672-0.54688-0.94922-0.48047-0.51953-0.88672-0.80078-0.61328-0.54688-0.90625 0.10156-1.3789-1.0156-0.375-1.043-0.52734-0.67188-0.84766 0.32422-0.95312 0.14062-1.0625-0.50391-1.1914-0.70312-1.1445 0.37109-1.1992 0.60156-1.2578 1 0.48438 1.1719 0.42969 1.2148 0.058594 0.007812-1.1367 1.6016-1.0117 1.0859-0.36328 0.75391-0.75391 0.9375 0.78516 0.15625 1.3203 1.2617-0.054688 1.0273-0.17969 1.7188 0.12109 0.99609 1.0547 1.1484 0.18359 1.0625 0.40625 1.1602 0.40625 1.0781 0.10938 1.0156 0.21484 1.0312-0.039063 0.6875-0.98047 0.4375-1.0391 1.1289 0.082031 1.0234 0.074219 1.2656-0.82031 1.1992-0.66016 1.1484 0.21094 1.5195 0.21484 1.2695 0.58203 1.0391-0.22656 0.96484-0.40625 0.76953 0.74219 1.082-0.015625 1.2617 0.070312 1.7109 0.23438 0.64844 0.83594 1.1836-0.09375 1.1055 0.035156 0.35938-0.98828 1.0508 0.48828 1.1602-0.27344 1.0352 0.035157 1.1406-0.49219 0.99609 0.55859 1.4688 0.13281 1.4883 0.085938 1.1367-0.67969 0.98828 0.32031 1.1602-0.097656 1.0469 0.26172 0.48047 0.94922 0.9375 0.66797 0.98438 0.26953 0.28906-0.98438 0.83984-0.71875 1.1367-0.44922 0.94531-0.39062 1-0.082031 1.1055-0.30078 1.1367 0.023437 1.0195-0.32031 1.2461 0.48828 1.0859-0.20703 1.4141 0.34766 1.3477-0.15234 1.0156-0.39844 0.73047-0.80078 1.1367 0.20312 0.62891 1.0117 0.83984 0.77734 0.51562-1.168 0.35938-1.0312 0.80469-0.76562 0.73047-0.76172 0.82031 0.69531 1.1289-0.11328 0.86719-0.58203 1.0078 0.375 1.0898 0.089843 0.74219 0.82422 1.0742-0.25391 0.89453-0.45312 2.2617-0.11719 1.4336-0.50781 1.2188-0.17578 1.0234-0.19531 1.5508-0.097656 1.1523 0.34375 1.3945-0.26562 1.0938-0.59375 0.94531-0.50391 1.3242-0.074219 1.1484 0.20312 3.1875-1.7305 0.98047-0.23438 0.48047 0.87891 0.70703 0.81641 1.1758 0.035156 0.96094 0.37109 1.0859-0.28906 0.99609-0.18359 1.0234 0.30859 1.0078-0.51562 0.76562-0.74609 1.0273-0.4375 1.0859 0.41016 1.0352 0.039062 1.0234 0.23438 1.3828 0.10156 1.1328-0.30078 1.543-0.17969 0.98828 0.17578 1.0547 0.19922 1.0859-0.27734 1.0156-0.51562 0.70703-0.82812 1.0547 0.22266 0.99609 0.33594 1.6016-0.46094 1.0508-0.042968 0.91016 0.53516 1.0234-0.54688 0.089844-1.0078 0.73828-0.73438 1.0312-0.98047 0.16016-1 0.45703-1.1055 0.875-0.60547 1.1094-0.089844 0.9375-0.42578 0.28516-1.0273-0.027344-1.1602 0.82422-2.1172 0.82422-0.83203 1.2539 0.12891 0.86328-0.71875 0.875-1.0781 1.0781-0.93359 0.94531-1.0703 0.3125-1.6797-0.10938-1.4023-0.11328-1.3086 0.39062-1.6367 0.57422-1.4258 0.59375-1.2539 0.39453-1.0781 0.53516-0.90625 1.0273-0.29297 0.6875-0.85547 1.0156 0.42188 1.207 0.12891 1.1055-0.48438-0.18359-1.2695-0.42969-1.043 1.2422-0.16016 0.039062-1.1562-0.058593-1.0664-0.35547-0.97266-0.28516-1.0664 0.19922-1.0508 0.42188-0.94141 0.66406-0.89844-0.97656-0.85156-0.92969-1.0312-0.45312-1.2656-0.10156-1.0312 0.17969-1.1953 0.88281-0.625 1.1211-0.74219 0.88672-0.79688 0.60547-1.3281-0.10938-1.6055-0.89844-0.65625-0.83203-0.5625 0.22656-1.4688 1.1172-1.707 0.27734-1.8047 0.59375-1.3984 0.019531-1.082 0.71094-0.8125 0.67969-1.0039 1.1797-0.41797 0.98047-0.50781 1.4219 0.17188 1.0312-0.52734 0.42188-1.1484-0.29688-0.97656 0.046875-1.1484 0.30469-0.96094-0.29688-1.0352 0.19141-1.0664 1.1992 0.074219 1.1719-0.023437 0.8125-0.73828 0.77734-1.1289 0.58203-0.99219 0.51562-0.95312 1.0586-0.21094 1.0469-0.37109 1.0977 0.58203 0.97266-0.45703 1-0.097656 1.0742-0.003906 1.0273-0.21094 1.4531-0.25 1.0898-0.52344 1.0781-0.37109 0.97656-0.57422 1.1016-0.30469 1.0898 0.019531 0.82031-0.62109 0.94922-0.45312 0.84766-0.67969 0.27344-1.0781 1.0508-0.51562 0.30078-1.0156 0.89453-0.53906 0.10938-1.168 0.84375-0.91406-0.41406-1.168 0.26562-1.0625 0.97656-0.58984 0.47266-1.4492 1.0781-0.88672 1.6406-0.69141 1.1914-1.1016 1.1953-0.82031 0.42188-1.1211-0.070313-1.3359-0.85938-1.9297-0.79688-2.1133-0.23828-1.9492 0.97656-0.65234 1.8008-0.089843 2.7461-0.17578 1.1055-0.375 1.1641-0.027343 1.4336 0.37109 1.2891 0.50781 2.0312-0.18359 0.64844-1.1562 0.73828-1.707 0.64453-1.5703 0.41797-1.8906-0.85547-1.5742-0.53125-1.2891v-1.207l0.27734-0.96484 0.96875-0.96875 1.2031-0.41406 2.2148-0.18359 1.707-0.1875 2.3555 0.41797 1.7812 0.20312 1.8203-0.54297 1.9844-1.5703 0.78516-1.668 0.78516-1.6094 0.96875-0.87891 1.4414-0.44922 1.2383-1.332 0.51172-1.3555 1.0859-0.85156 1.8789-0.49219 0.88672-0.77734 1.1562-0.73438 0.84766-1.0625 1.4453-1.1562 0.13672-1.1797-0.29688-1.1602-0.11719-1.1719 0.5-0.98438 0.73047-0.88672 0.25781-1.0195 0.69531-0.78125 1.1289-0.17969 0.57812-0.85938 0.54297-1.0039 1.168-0.18359 0.60938-0.83594 0.76172-0.67969 0.55078-1.0273 0.92578-0.44141 0.47656-1.4453 0.96094-0.53906-1.0547-0.72266-0.94531-1.0977 0.082031-1.3594 0.53906-0.96094-0.65625-1.4258-0.89453-0.62109-1.1406-0.31641 0.22656-1.4336 0.4375-1.1602 0.60156-1.0391 0.88672-0.57422-0.33594-1.5352-0.59375-1.3125-0.61328-1.0312 0.31641-0.98047 1.4648-1.2383 0.77344-0.90234 0.53125-1.3516-0.13672-1.332-0.25-1.4492 1.1055-1.8281 0.11328-1.2617 0.95703-0.5625-0.023437-1.6602-0.61328-1.457 1.5039-0.48438 1.3086-0.49219 1.1797-0.72656-0.011719 6.7422 0.09375 12.949 0.003907 9.1367-0.007813 10.895z" fill="#ccc" fill-rule="evenodd"/>
<path d="m243.96 62.023-0.019532 22.742v14.277l-0.007812 6.4219-0.007813 5.875 0.007813 8.2109v61.184l-0.019531 16.406 2.7812-2.0312 5.9648-4.5781 4.5898-3.6172 1.3164 0.085937 0.17188 1.0742 0.58203 0.92969 1.2266 0.39453 0.81641 0.75 0.72656 0.69922 0.89062 0.67578 1.0273 0.30078 0.74609 0.74219 0.75781 0.96094 0.36328 0.98438 0.76172 0.6875 0.98047 0.57422 0.83594 0.61328 0.73047 0.69531 0.49609 0.94531 0.53125 0.92578 0.42188 0.95703 0.33203 1.0195-0.058594 1.0078 0.16797 1.0508 1.0078 0.29297 1-0.20703 1.1211 0.28906 0.99219 0.25 0.66797 0.75 1.1523-0.16016 1.043 0.046875 0.97266 0.32031 0.94531 0.38672 0.27734 0.97656 0.91016 0.57812 1.1172-0.10938 1.0078 0.058594 1.0078-0.10156 0.53125 0.86328 0.96875 0.26953 1.0352 0.11328 1.0781-0.25 1.0859 0.18359 1.1094 0.1875 1.0352 0.33594 1.043-0.30859 0.98438-0.39453 1.0859-0.57031 0.8125-0.64453 1.2227 0.007813 1.0508-0.082031 0.72656-0.75391 1.0195-0.003906 1.0625-0.42188 1.0664-0.10938 1.0156 0.070313 1.0664 0.33594 1.0664-0.17188 1.0391-0.023437 1.1016-0.019532 1.0234 0.22266 1.0352 0.16016 0.96875-0.45703 0.6875-0.78906 1.1445-0.10938 0.96875-0.27344 1.0469-0.12109 1.0312 0.03125 0.42578-0.92188 0.94531-0.68359 1.3008-0.22266 0.46484-0.91406 1.0586-0.21094 0.80859-0.96094 0.79688-0.89844 1.1875-0.21484 1.0469-0.24219 0.33203-1.0977 0.49609-0.91797 0.99219 0.23438 0.23047-1.0352 0.99609-0.29297 0.89844-0.50391 0.34766 0.96484 1.0156-0.070312 0.89453 0.62891 0.64844-0.79688 1.1562-0.21875 0.91406-0.4375 0.625-0.79688 1.1016 0.070312 0.25-1.1641 1.1328 0.39453 0.79688-0.625 1.0234-0.28906 1.2031-0.53516 1-0.33984 1.1523-0.10938 0.28125-1.0391 1.1406-0.21875 0.61719-0.82031 0.22266-1.0273 0.71094 0.74219 1.0703-0.15234 0.6875-0.74609 0.98047-0.28906 0.99609-0.79688-0.039062-1.0547 0.91016-0.46094 1.0391 0.23438 0.97656-0.60938 1.1094 0.14062 0.67188 0.89453 0.93359 0.48047 0.0625-1.0234 0.92188-0.42578 1.1328-0.074219 1.1719-0.10156 1.2539 0.23438 1.0273 0.13281 0.96094 0.60938 1.0391-0.09375 1.0781-0.16016 0.42188 0.99219 0.67578-0.87891 1.082-0.48828 0.96875 0.36328 1.0586 0.21875 0.66797 0.83203 1.1523-0.046875 1.1055-0.45312 0.76172-0.71484 1.1367 0.16406 0.91406 0.69922 1.0352 0.082031 1.1211-0.054688 0.89844 0.53125 0.91016-0.50781-0.17188 1.0508 1.1953 0.53906 0.98438-0.31641 0.66016 0.94922 0.78516 0.82031 0.66797 0.81641 0.44922 0.96094 0.4375 0.92969 0.37109 0.9375 1.0039-0.39844 0.96484-0.70312 1.0195 0.22266 0.23828 1.0234 1.1172-0.34766 0.86328-0.91797 0.83984 0.57031 0.84766-0.73047 1.0625-0.27734 0.89844-0.54297 1.1523-0.19922 1.1094-0.015625 0.79688-0.86719 1.043-0.31641 1.1641 0.17188 0.97656 0.34375 1.0508 0.25391 0.99609-0.52734 0.92188-0.59766 1.0469 0.41016 0.5625-0.875 1.1797-0.47266 0.99609-0.36719 0.76953 0.67969 1.1445 0.22266-0.55078-0.89844 0.98047-0.21875 1.0742 0.48828 0.10156 1.0391 0.96094 0.63672 0.68359 0.77734 0.13281 1.0469 1.1133 1.9023 1.2305 2 0.82812 1.3867 1.2109 1.957 1.2109 1.9336 0.97656 1.5781 1.2734 2.043 0.90625 1.457 1.0898 1.7539 1.3125 2.0469 1.3242 2.0859 0.98438 1.5312 1.1406 1.7891 1.5117 2.4102 1.0664 1.7188 1.3984 2.2344 1.3281 2.125 1.5469 2.4727 1.375 2.207 1.1211 1.7891 0.78516 1.2188 0.73047 1.1094 2.0469 3.2578 0.66406 1.0586 1.3359 2.1406 2.8008 4.5117 2.4453 3.9336-1.2891 0.35938-1.1016-0.3125-0.66406-0.91016-1.3203-0.78516-2.7461-0.83594-2.2891-0.17188-1.6406-0.40625-1.2266-0.47656-2.1914-1.5234-1.707-1.4805-1.6641-1.0469-0.69531-0.73828-0.60156-0.95312-0.64844-0.83203-0.91406-0.85938-1.1094-0.59375-1.1484-0.40625-0.97266-1.1758-0.10156-1.3867-0.66016-1.1289-1.0781-0.68359-1.2109 0.24219-1.0508 0.33594-1.0391-0.054688-1.4258 0.09375-1.3984-0.38281-1.2305-0.023438-1.1172-0.69141-0.44531-1.0195-1.0625 0.40234-0.83984 0.58594-1.125 0.23828-1.1406 0.25781-0.89062-0.47656-1.3398 0.74609-1.2227 0.45703-1.1758 0.26172-1.2266-0.16797-0.59766 1.0703-1.6211 0.84766-1.1641-0.015625-0.8125-0.60156-1.418-0.46094-1.3516-0.28516-1.3516-1.4922-0.71875-1.0039-1.0781-0.88672-1.3008 0.54297-1.2266-0.26562-0.64844-0.87891-1.1328-0.62109-0.79688 0.71094-23.32 17.18-5.4141 4.0664-14.016 10.531-2.7344 2.1094-14.523 10.738-2.0312 1.4922-0.875 0.71484-1.3398-0.39844-1.1094-0.18359-1.3594 0.13672-1.0078 0.16016-0.95703-0.55078-0.9375-0.35938-0.96094-0.45703-1.0195-0.050781-1.1797-0.25781-0.89844-0.48047-0.87109-0.52734-0.52734-0.99609-1.1953 0.058594-1.168-0.48828-1.1055-0.30859-0.44531-0.99219-1.0234-0.42969-1.1797-0.61328-1.3789-0.95312-0.71875-0.75-0.82031-0.57422-1.0156-0.40234-0.97656-0.51172-1.2383 0.26562-1.3984-0.17969-1.0625-0.54688-1.3906-0.35156-1.2148-0.21484-0.98047 0.49219-1.0938 0.19922-1.2773-0.14844-3.0117-0.30078-1.1328 0.16406-1.1953-0.3125-1.1211 0.14453-1.207-0.10938-1.043-0.039063-1.0469-0.078125-0.94922-0.375-1.168-1.2227-0.81641-0.84375-0.91016-0.58984-0.59375-1.0273-0.6875-0.86719-0.80859-0.61719-1.0977-0.14062-0.38281-1.082-0.0625-1.0586-0.074219-1.1406-0.44141-0.93359-0.64844-0.80469-0.96875-0.45703-1.0117-0.83594-0.97266-0.75781-1.0586 0.17578-0.91797 0.45703-1.582-0.125-1.6562 0.058594-7.9922 0.90625-3.1562 0.41016-19.762 2.0977-1.5195 0.16016-2.4648 0.28125-1.0039-0.35938-0.88672-0.53125 0.61719 0.90234-1.1406 0.042968-1.1758 0.0625-1.2109 0.48438-0.40625-1.1211-0.63672-0.80469 0.050781-1.0742-0.98828-0.40625-0.67188-1.043-0.34766-1.0508-0.78516-1.0273-1.0703-0.16797 0.86719 0.91797 0.39844 0.95703-0.074219 1.1211-1.3086-1.2734-1.0156-0.71484-1.0742 0.28516-0.5625-1.1328 0.28906-1.1328 0.51562-1.1406-0.67969-0.74219-0.87891-0.55469-0.92578 0.96484-1.1484 0.13281-0.97656-0.25391-1.0117-0.13281-0.58984-0.84766-1.2383-0.085938-1.2031-0.22266-0.98828-0.45312 0.39062-1.0195 0.69922-0.83594 0.46875-0.99609 0.37891-1.1992 0.17578-1.1719-0.5625-0.92969-1.1562-0.14453-1.1055 0.19531 0.46094 0.92969-0.046875 1.0234-1.0469-0.50391-1.0078 0.43359-0.94141 0.375-0.91406-0.76562-0.58594 1.0703-1.0195 0.54688 0.49609-1.0234 0.24609-0.97266-0.70703-0.74609-0.88281 0.95312-0.53516 0.92188-0.31641-1.207-0.84375-0.80469-1.0703 0.51172-0.57812 0.875-0.33203 0.96484-0.42969-1.0078-0.80859-0.86719-1.1172-0.13672-0.95703-0.71094-0.61328-0.84375-1.1211-0.019532-1.2305 0.042969-0.72266-0.85938-1.0039 0.10156-0.87109-0.57812-0.63281-0.9375-0.35547 0.94922-0.88672 0.86719-0.96094-0.41406-0.070313-1.125 0.28125-1.0195-0.98438-0.53125-1 0.375-0.085937 1.1719-0.86719 0.51953 0.14062-1.1133-0.375-0.98438-0.92188 0.79297-1.0078 0.039062-0.72656-0.91797-0.56641-0.98438-0.62109 1.0703-0.52344 0.97656-0.97266-0.40625 0.32031-1.2109-0.26953-0.98438-0.99219-0.14844-0.9375 0.42188-1.0312-0.76172-1.0078 0.14844 0.58203 0.98438-1.0039-0.10938-0.87109-0.55859 0.48438-1.0273 0.30078-0.96875-1.1016 0.35156-0.99609 0.375-0.39844 1.1602-0.66406 0.90625-0.875-1.0703-0.71094-0.96875-0.73828-0.83203-1.0703 0.51953-1.168 0.26562-1.1172 0.11328-0.17578-1.2891-0.30469-1.0938-1.2812-0.11328-1.0234 0.6875 0.054688 1.0625-0.29297 0.98828-0.63281-0.92969-1.0156-0.1875-0.46875-1.0938-1.0859-0.44531-0.97266-0.375-1.1562 0.21094-1.1094 0.10156-0.19922-1.0742-0.87891-0.5-0.58594 1.0781-0.13281 1.0195-0.97656 0.57031-0.32422-0.96094 0.54297-1.0781-0.38281-1.1406-1.0664-0.125-0.29297-1.0195-0.26953-1.1445-0.71875 0.92969-1.0195 0.51562-1.0781 0.17188-0.75781-0.92578-0.66016-0.84375-1.0117-0.19531-0.70703 0.94922-1.0234 0.035157-0.82812-0.67969-1.0586-0.1875-0.74609 0.76172-0.95703-0.47656 0.42188-1.0938 0.29297-0.99219-1.1367 0.011719-0.98438 0.35938-1.2344-0.10547-0.44922-1.0977 0.019531-1.0586-0.96875 0.26953-1.1094 0.83594-1.25-0.3125-1.0391-0.042969-1.1172 0.23047-0.90625 0.64844 0.82422 0.76172-0.42188 0.9375-1.0703-0.55469 0.035156-1.0508 0.68359-0.85547-0.66016-1-0.61328-1.1172-1.4609 0.28125-1.0312-0.22656-0.97266-0.37109-0.90234-0.46094-0.93359-0.85156-1.0273 0.023437-1.0508 0.11719-1.0508-0.035157 0.39453-0.95703-0.14062-1.207-0.94141 0.33203-0.72656 0.82812-0.89062-0.65625 1.1641-0.23438-0.17188-1.1367 0.91406-0.79688 0.57812-0.83594-0.80859-0.84766-0.69141 0.75781-1.1641-0.24609-1-0.40234-1.4375 0.20703-1.0234-0.38672-0.67969-1.0391-1.1641-0.77344-1.0938-0.26172-0.34375 1.0117 0.55078 0.88672-1.0156 0.44141-0.91406-0.625-1.0312-0.22266-0.77344-1.0234-1.0234-0.96094-1.3125-0.17969-0.67578 0.89062-0.074219 1.2305-0.74609-1.1719-0.16406-1.0977-1.0703-0.16406-0.54688 0.87891-0.83594 0.62109-0.82812-0.89844-0.78906-0.64453-0.59766 0.80859-0.89844 0.44922-0.21094 1.082-0.55078 0.85938-0.43359-1.082-0.57031-0.91016-1.0391-0.10156-0.875 0.49219-0.92969 0.51562-1.168-0.40234-1-0.32031-0.23438 0.98828-0.49219 0.96484-0.91016-0.57031 0.44141-0.97266-0.85156-0.85547-0.96094 0.39844-0.44141 0.90625-0.86328-0.51953-1.2656 0.15625-0.9375-0.39844-1.0391 0.11328-0.75 0.78516-0.30078 1.0898-0.53906-0.85938-1.082 0.125-0.48828-1.043-1.0352-0.69531-1.1016-0.023438-0.83594-0.69141-0.54297-0.98047 0.26172-1.1094-1.0117 0.11328-0.55078-0.96094-0.96094 0.36719-0.61719 0.89453-1.0742 0.13672-0.91406 0.99609-0.78125 0.70703-0.03125-1.043-0.64062-0.84375-1.0078 0.082031-1.2617-0.15234-1.2891 0.050782-1.0508 0.20703-0.99609 0.42969-0.11328-1.0195-0.95703-0.39453-1.0469 0.4375-1.0391-0.21484 0.21875-0.97656-1.1133 0.33203-0.83984-0.80469-1.0156-0.14844-0.85156-0.69531 0.14844-1.0273-1.0156 0.49219-1-0.30078-0.50781-0.91797-0.91016 0.48828-0.10938-1-1.0273-0.10156-0.71484-0.73438 0.41406 1.0742 0.83203 0.60156-0.30469 1.0664-0.95312-0.39844-1.0469-0.10156-0.023437 1.1055-1.0664 0.14453-0.95703 0.4375-0.95703 0.61719-1.0391 0.23047 0.64062-0.80859-1.0234-0.16016 0.21484-1.0547 0.33984-0.98047-0.89453-0.59766-0.39453 1.0078-0.36328-1.0742-0.63281 0.79688-1.1641-0.25391-0.84766 0.64062-0.96875 0.38281-1.0234-0.14844-0.12109 1.1133-0.91016-0.48438-0.98828-0.37109-0.91016 0.54688-1.0898-0.003906-0.91016-0.58984-0.99609-0.14062-0.21094 1.0273-0.80469-0.70312-1.0391 0.058594-0.92969 0.51953-1.0078-0.10156-1.0273-0.20703-0.80078 0.6875-0.95703 0.45703-1.0273 0.21094-1.0352-0.03125 0.30859-0.98828-1.2031 0.23438-0.56641 0.86719-1.1055 0.20312-0.58203-0.83594-0.96094 0.33203-1.0703 0.035156-0.83203-0.74219-0.74219-0.67578-0.33984 1.0039-0.61328 0.80859-0.70312 0.77344-0.19531 1.0156-0.90625 0.58984-0.99609-0.14844-1.1602 0.24219-1-0.17578-1.0938 0.32031-0.94922-0.3125-1.0469 0.26172-0.88672-0.54688-0.94922-0.48047-0.51953-0.88672-0.80078-0.61328-0.54688-0.90625 0.10156-1.3789-1.0156-0.375-1.043-0.52734-0.67188-0.84766 0.32422-0.95312 0.14062-1.0625-0.50391-1.1914-0.70312-1.1445 0.37109-1.1992 0.60156-1.2578 1 0.48438 1.1719 0.42969 1.2148 0.058594 0.007812-1.1367 1.6016-1.0117 1.0859-0.36328 0.75391-0.75391 0.9375 0.78516 0.15625 1.3203 1.2617-0.054688 1.0273-0.17969 1.7188 0.12109 0.99609 1.0547 1.1484 0.18359 1.0625 0.40625 1.1602 0.40625 1.0781 0.10938 1.0156 0.21484 1.0312-0.039063 0.6875-0.98047 0.4375-1.0391 1.1289 0.082031 1.0234 0.074219 1.2656-0.82031 1.1992-0.66016 1.1484 0.21094 1.5195 0.21484 1.2695 0.58203 1.0391-0.22656 0.96484-0.40625 0.76953 0.74219 1.082-0.015625 1.2617 0.070312 1.7109 0.23438 0.64844 0.83594 1.1836-0.09375 1.1055 0.035156 0.35938-0.98828 1.0508 0.48828 1.1602-0.27344 1.0352 0.035157 1.1406-0.49219 0.99609 0.55859 1.4688 0.13281 1.4883 0.085938 1.1367-0.67969 0.98828 0.32031 1.1602-0.097656 1.0469 0.26172 0.48047 0.94922 0.9375 0.66797 0.98438 0.26953 0.28906-0.98438 0.83984-0.71875 1.1367-0.44922 0.94531-0.39062 1-0.082031 1.1055-0.30078 1.1367 0.023437 1.0195-0.32031 1.2461 0.48828 1.0859-0.20703 1.4141 0.34766 1.3477-0.15234 1.0156-0.39844 0.73047-0.80078 1.1367 0.20312 0.62891 1.0117 0.83984 0.77734 0.51562-1.168 0.35938-1.0312 0.80469-0.76562 0.73047-0.76172 0.82031 0.69531 1.1289-0.11328 0.86719-0.58203 1.0078 0.375 1.0898 0.089843 0.74219 0.82422 1.0742-0.25391 0.89453-0.45312 2.2617-0.11719 1.4336-0.50781 1.2188-0.17578 1.0234-0.19531 1.5508-0.097656 1.1523 0.34375 1.3945-0.26562 1.0938-0.59375 0.94531-0.50391 1.3242-0.074219 1.1484 0.20312 3.1875-1.7305 0.98047-0.23438 0.48047 0.87891 0.70703 0.81641 1.1758 0.035156 0.96094 0.37109 1.0859-0.28906 0.99609-0.18359 1.0234 0.30859 1.0078-0.51562 0.76562-0.74609 1.0273-0.4375 1.0859 0.41016 1.0352 0.039062 1.0234 0.23438 1.3828 0.10156 1.1328-0.30078 1.543-0.17969 0.98828 0.17578 1.0547 0.19922 1.0859-0.27734 1.0156-0.51562 0.70703-0.82812 1.0547 0.22266 0.99609 0.33594 1.6016-0.46094 1.0508-0.042968 0.91016 0.53516 1.0234-0.54688 0.089844-1.0078 0.73828-0.73438 1.0312-0.98047 0.16016-1 0.45703-1.1055 0.875-0.60547 1.1094-0.089844 0.9375-0.42578 0.28516-1.0273-0.027344-1.1602 0.82422-2.1172 0.82422-0.83203 1.2539 0.12891 0.86328-0.71875 0.875-1.0781 1.0781-0.93359 0.94531-1.0703 0.3125-1.6797-0.10938-1.4023-0.11328-1.3086 0.39062-1.6367 0.57422-1.4258 0.59375-1.2539 0.39453-1.0781 0.53516-0.90625 1.0273-0.29297 0.6875-0.85547 1.0156 0.42188 1.207 0.12891 1.1055-0.48438-0.18359-1.2695-0.42969-1.043 1.2422-0.16016 0.039062-1.1562-0.058593-1.0664-0.35547-0.97266-0.28516-1.0664 0.19922-1.0508 0.42188-0.94141 0.66406-0.89844-0.97656-0.85156-0.92969-1.0312-0.45312-1.2656-0.10156-1.0312 0.17969-1.1953 0.88281-0.625 1.1211-0.74219 0.88672-0.79688 0.60547-1.3281-0.10938-1.6055-0.89844-0.65625-0.83203-0.5625 0.22656-1.4688 1.1172-1.707 0.27734-1.8047 0.59375-1.3984 0.019531-1.082 0.71094-0.8125 0.67969-1.0039 1.1797-0.41797 0.98047-0.50781 1.4219 0.17188 1.0312-0.52734 0.42188-1.1484-0.29688-0.97656 0.046875-1.1484 0.30469-0.96094-0.29688-1.0352 0.19141-1.0664 1.1992 0.074219 1.1719-0.023437 0.8125-0.73828 0.77734-1.1289 0.58203-0.99219 0.51562-0.95312 1.0586-0.21094 1.0469-0.37109 1.0977 0.58203 0.97266-0.45703 1-0.097656 1.0742-0.003906 1.0273-0.21094 1.4531-0.25 1.0898-0.52344 1.0781-0.37109 0.97656-0.57422 1.1016-0.30469 1.0898 0.019531 0.82031-0.62109 0.94922-0.45312 0.84766-0.67969 0.27344-1.0781 1.0508-0.51562 0.30078-1.0156 0.89453-0.53906 0.10938-1.168 0.84375-0.91406-0.41406-1.168 0.26562-1.0625 0.97656-0.58984 0.47266-1.4492 1.0781-0.88672 1.6406-0.69141 1.1914-1.1016 1.1953-0.82031 0.42188-1.1211-0.070313-1.3359-0.85938-1.9297-0.79688-2.1133-0.23828-1.9492 0.97656-0.65234 1.8008-0.089843 2.7461-0.17578 1.1055-0.375 1.1641-0.027343 1.4336 0.37109 1.2891 0.50781 2.0312-0.18359 0.64844-1.1562 0.73828-1.707 0.64453-1.5703 0.41797-1.8906-0.85547-1.5742-0.53125-1.2891v-1.207l0.27734-0.96484 0.96875-0.96875 1.2031-0.41406 2.2148-0.18359 1.707-0.1875 2.3555 0.41797 1.7812 0.20312 1.8203-0.54297 1.9844-1.5703 0.78516-1.668 0.78516-1.6094 0.96875-0.87891 1.4414-0.44922 1.2383-1.332 0.51172-1.3555 1.0859-0.85156 1.8789-0.49219 0.88672-0.77734 1.1562-0.73438 0.84766-1.0625 1.4453-1.1562 0.13672-1.1797-0.29688-1.1602-0.11719-1.1719 0.5-0.98438 0.73047-0.88672 0.25781-1.0195 0.69531-0.78125 1.1289-0.17969 0.57812-0.85938 0.54297-1.0039 1.168-0.18359 0.60938-0.83594 0.76172-0.67969 0.55078-1.0273 0.92578-0.44141 0.47656-1.4453 0.96094-0.53906-1.0547-0.72266-0.94531-1.0977 0.082031-1.3594 0.53906-0.96094-0.65625-1.4258-0.89453-0.62109-1.1406-0.31641 0.22656-1.4336 0.4375-1.1602 0.60156-1.0391 0.88672-0.57422-0.33594-1.5352-0.59375-1.3125-0.61328-1.0312 0.31641-0.98047 1.4648-1.2383 0.77344-0.90234 0.53125-1.3516-0.13672-1.332-0.25-1.4492 1.1055-1.8281 0.11328-1.2617 0.95703-0.5625-0.023437-1.6602-0.61328-1.457 1.5039-0.48438 1.3086-0.49219 1.1797-0.72656-0.011719 6.7422 0.09375 12.949 0.003907 9.1367-0.007813 10.895-0.023437 0.046875" fill="none" stroke="#fff" stroke-linecap="round" stroke-linejoin="round" stroke-miterlimit="10" stroke-width="2"/>
<path d="m243.96 62.023-0.019532 22.742v14.277l-0.007812 6.4219-0.007813 5.875 0.007813 8.2109v61.184l-0.019531 16.406 2.7812-2.0312 5.9648-4.5781 4.5898-3.6172 1.3164 0.085937 0.17188 1.0742 0.58203 0.92969 1.2266 0.39453 0.81641 0.75 0.72656 0.69922 0.89062 0.67578 1.0273 0.30078 0.74609 0.74219 0.75781 0.96094 0.36328 0.98438 0.76172 0.6875 0.98047 0.57422 0.83594 0.61328 0.73047 0.69531 0.49609 0.94531 0.53125 0.92578 0.42188 0.95703 0.33203 1.0195-0.058594 1.0078 0.16797 1.0508 1.0078 0.29297 1-0.20703 1.1211 0.28906 0.99219 0.25 0.66797 0.75 1.1523-0.16016 1.043 0.046875 0.97266 0.32031 0.94531 0.38672 0.27734 0.97656 0.91016 0.57812 1.1172-0.10938 1.0078 0.058594 1.0078-0.10156 0.53125 0.86328 0.96875 0.26953 1.0352 0.11328 1.0781-0.25 1.0859 0.18359 1.1094 0.1875 1.0352 0.33594 1.043-0.30859 0.98438-0.39453 1.0859-0.57031 0.8125-0.64453 1.2227 0.007813 1.0508-0.082031 0.72656-0.75391 1.0195-0.003906 1.0625-0.42188 1.0664-0.10938 1.0156 0.070313 1.0664 0.33594 1.0664-0.17188 1.0391-0.023437 1.1016-0.019532 1.0234 0.22266 1.0352 0.16016 0.96875-0.45703 0.6875-0.78906 1.1445-0.10938 0.96875-0.27344 1.0469-0.12109 1.0312 0.03125 0.42578-0.92188 0.94531-0.68359 1.3008-0.22266 0.46484-0.91406 1.0586-0.21094 0.80859-0.96094 0.79688-0.89844 1.1875-0.21484 1.0469-0.24219 0.33203-1.0977 0.49609-0.91797 0.99219 0.23438 0.23047-1.0352 0.99609-0.29297 0.89844-0.50391 0.34766 0.96484 1.0156-0.070312 0.89453 0.62891 0.64844-0.79688 1.1562-0.21875 0.91406-0.4375 0.625-0.79688 1.1016 0.070312 0.25-1.1641 1.1328 0.39453 0.79688-0.625 1.0234-0.28906 1.2031-0.53516 1-0.33984 1.1523-0.10938 0.28125-1.0391 1.1406-0.21875 0.61719-0.82031 0.22266-1.0273 0.71094 0.74219 1.0703-0.15234 0.6875-0.74609 0.98047-0.28906 0.99609-0.79688-0.039062-1.0547 0.91016-0.46094 1.0391 0.23438 0.97656-0.60938 1.1094 0.14062 0.67188 0.89453 0.93359 0.48047 0.0625-1.0234 0.92188-0.42578 1.1328-0.074219 1.1719-0.10156 1.2539 0.23438 1.0273 0.13281 0.96094 0.60938 1.0391-0.09375 1.0781-0.16016 0.42188 0.99219 0.67578-0.87891 1.082-0.48828 0.96875 0.36328 1.0586 0.21875 0.66797 0.83203 1.1523-0.046875 1.1055-0.45312 0.76172-0.71484 1.1367 0.16406 0.91406 0.69922 1.0352 0.082031 1.1211-0.054688 0.89844 0.53125 0.91016-0.50781-0.17188 1.0508 1.1953 0.53906 0.98438-0.31641 0.66016 0.94922 0.78516 0.82031 0.66797 0.81641 0.44922 0.96094 0.4375 0.92969 0.37109 0.9375 1.0039-0.39844 0.96484-0.70312 1.0195 0.22266 0.23828 1.0234 1.1172-0.34766 0.86328-0.91797 0.83984 0.57031 0.84766-0.73047 1.0625-0.27734 0.89844-0.54297 1.1523-0.19922 1.1094-0.015625 0.79688-0.86719 1.043-0.31641 1.1641 0.17188 0.97656 0.34375 1.0508 0.25391 0.99609-0.52734 0.92188-0.59766 1.0469 0.41016 0.5625-0.875 1.1797-0.47266 0.99609-0.36719 0.76953 0.67969 1.1445 0.22266-0.55078-0.89844 0.98047-0.21875 1.0742 0.48828 0.10156 1.0391 0.96094 0.63672 0.68359 0.77734 0.13281 1.0469 1.1133 1.9023 1.2305 2 0.82812 1.3867 1.2109 1.957 1.2109 1.9336 0.97656 1.5781 1.2734 2.043 0.90625 1.457 1.0898 1.7539 1.3125 2.0469 1.3242 2.0859 0.98438 1.5312 1.1406 1.7891 1.5117 2.4102 1.0664 1.7188 1.3984 2.2344 1.3281 2.125 1.5469 2.4727 1.375 2.207 1.1211 1.7891 0.78516 1.2188 0.73047 1.1094 2.0469 3.2578 0.66406 1.0586 1.3359 2.1406 2.8008 4.5117 2.4453 3.9336-1.2891 0.35938-1.1016-0.3125-0.66406-0.91016-1.3203-0.78516-2.7461-0.83594-2.2891-0.17188-1.6406-0.40625-1.2266-0.47656-2.1914-1.5234-1.707-1.4805-1.6641-1.0469-0.69531-0.73828-0.60156-0.95312-0.64844-0.83203-0.91406-0.85938-1.1094-0.59375-1.1484-0.40625-0.97266-1.1758-0.10156-1.3867-0.66016-1.1289-1.0781-0.68359-1.2109 0.24219-1.0508 0.33594-1.0391-0.054688-1.4258 0.09375-1.3984-0.38281-1.2305-0.023438-1.1172-0.69141-0.44531-1.0195-1.0625 0.40234-0.83984 0.58594-1.125 0.23828-1.1406 0.25781-0.89062-0.47656-1.3398 0.74609-1.2227 0.45703-1.1758 0.26172-1.2266-0.16797-0.59766 1.0703-1.6211 0.84766-1.1641-0.015625-0.8125-0.60156-1.418-0.46094-1.3516-0.28516-1.3516-1.4922-0.71875-1.0039-1.0781-0.88672-1.3008 0.54297-1.2266-0.26562-0.64844-0.87891-1.1328-0.62109-0.79688 0.71094-23.32 17.18-5.4141 4.0664-14.016 10.531-2.7344 2.1094-14.523 10.738-2.0312 1.4922-0.875 0.71484-1.3398-0.39844-1.1094-0.18359-1.3594 0.13672-1.0078 0.16016-0.95703-0.55078-0.9375-0.35938-0.96094-0.45703-1.0195-0.050781-1.1797-0.25781-0.89844-0.48047-0.87109-0.52734-0.52734-0.99609-1.1953 0.058594-1.168-0.48828-1.1055-0.30859-0.44531-0.99219-1.0234-0.42969-1.1797-0.61328-1.3789-0.95312-0.71875-0.75-0.82031-0.57422-1.0156-0.40234-0.97656-0.51172-1.2383 0.26562-1.3984-0.17969-1.0625-0.54688-1.3906-0.35156-1.2148-0.21484-0.98047 0.49219-1.0938 0.19922-1.2773-0.14844-3.0117-0.30078-1.1328 0.16406-1.1953-0.3125-1.1211 0.14453-1.207-0.10938-1.043-0.039063-1.0469-0.078125-0.94922-0.375-1.168-1.2227-0.81641-0.84375-0.91016-0.58984-0.59375-1.0273-0.6875-0.86719-0.80859-0.61719-1.0977-0.14062-0.38281-1.082-0.0625-1.0586-0.074219-1.1406-0.44141-0.93359-0.64844-0.80469-0.96875-0.45703-1.0117-0.83594-0.97266-0.75781-1.0586 0.17578-0.91797 0.45703-1.582-0.125-1.6562 0.058594-7.9922 0.90625-3.1562 0.41016-19.762 2.0977-1.5195 0.16016-2.4648 0.28125-1.0039-0.35938-0.88672-0.53125 0.61719 0.90234-1.1406 0.042968-1.1758 0.0625-1.2109 0.48438-0.40625-1.1211-0.63672-0.80469 0.050781-1.0742-0.98828-0.40625-0.67188-1.043-0.34766-1.0508-0.78516-1.0273-1.0703-0.16797 0.86719 0.91797 0.39844 0.95703-0.074219 1.1211-1.3086-1.2734-1.0156-0.71484-1.0742 0.28516-0.5625-1.1328 0.28906-1.1328 0.51562-1.1406-0.67969-0.74219-0.87891-0.55469-0.92578 0.96484-1.1484 0.13281-0.97656-0.25391-1.0117-0.13281-0.58984-0.84766-1.2383-0.085938-1.2031-0.22266-0.98828-0.45312 0.39062-1.0195 0.69922-0.83594 0.46875-0.99609 0.37891-1.1992 0.17578-1.1719-0.5625-0.92969-1.1562-0.14453-1.1055 0.19531 0.46094 0.92969-0.046875 1.0234-1.0469-0.50391-1.0078 0.43359-0.94141 0.375-0.91406-0.76562-0.58594 1.0703-1.0195 0.54688 0.49609-1.0234 0.24609-0.97266-0.70703-0.74609-0.88281 0.95312-0.53516 0.92188-0.31641-1.207-0.84375-0.80469-1.0703 0.51172-0.57812 0.875-0.33203 0.96484-0.42969-1.0078-0.80859-0.86719-1.1172-0.13672-0.95703-0.71094-0.61328-0.84375-1.1211-0.019532-1.2305 0.042969-0.72266-0.85938-1.0039 0.10156-0.87109-0.57812-0.63281-0.9375-0.35547 0.94922-0.88672 0.86719-0.96094-0.41406-0.070313-1.125 0.28125-1.0195-0.98438-0.53125-1 0.375-0.085937 1.1719-0.86719 0.51953 0.14062-1.1133-0.375-0.98438-0.92188 0.79297-1.0078 0.039062-0.72656-0.91797-0.56641-0.98438-0.62109 1.0703-0.52344 0.97656-0.97266-0.40625 0.32031-1.2109-0.26953-0.98438-0.99219-0.14844-0.9375 0.42188-1.0312-0.76172-1.0078 0.14844 0.58203 0.98438-1.0039-0.10938-0.87109-0.55859 0.48438-1.0273 0.30078-0.96875-1.1016 0.35156-0.99609 0.375-0.39844 1.1602-0.66406 0.90625-0.875-1.0703-0.71094-0.96875-0.73828-0.83203-1.0703 0.51953-1.168 0.26562-1.1172 0.11328-0.17578-1.2891-0.30469-1.0938-1.2812-0.11328-1.0234 0.6875 0.054688 1.0625-0.29297 0.98828-0.63281-0.92969-1.0156-0.1875-0.46875-1.0938-1.0859-0.44531-0.97266-0.375-1.1562 0.21094-1.1094 0.10156-0.19922-1.0742-0.87891-0.5-0.58594 1.0781-0.13281 1.0195-0.97656 0.57031-0.32422-0.96094 0.54297-1.0781-0.38281-1.1406-1.0664-0.125-0.29297-1.0195-0.26953-1.1445-0.71875 0.92969-1.0195 0.51562-1.0781 0.17188-0.75781-0.92578-0.66016-0.84375-1.0117-0.19531-0.70703 0.94922-1.0234 0.035157-0.82812-0.67969-1.0586-0.1875-0.74609 0.76172-0.95703-0.47656 0.42188-1.0938 0.29297-0.99219-1.1367 0.011719-0.98438 0.35938-1.2344-0.10547-0.44922-1.0977 0.019531-1.0586-0.96875 0.26953-1.1094 0.83594-1.25-0.3125-1.0391-0.042969-1.1172 0.23047-0.90625 0.64844 0.82422 0.76172-0.42188 0.9375-1.0703-0.55469 0.035156-1.0508 0.68359-0.85547-0.66016-1-0.61328-1.1172-1.4609 0.28125-1.0312-0.22656-0.97266-0.37109-0.90234-0.46094-0.93359-0.85156-1.0273 0.023437-1.0508 0.11719-1.0508-0.035157 0.39453-0.95703-0.14062-1.207-0.94141 0.33203-0.72656 0.82812-0.89062-0.65625 1.1641-0.23438-0.17188-1.1367 0.91406-0.79688 0.57812-0.83594-0.80859-0.84766-0.69141 0.75781-1.1641-0.24609-1-0.40234-1.4375 0.20703-1.0234-0.38672-0.67969-1.0391-1.1641-0.77344-1.0938-0.26172-0.34375 1.0117 0.55078 0.88672-1.0156 0.44141-0.91406-0.625-1.0312-0.22266-0.77344-1.0234-1.0234-0.96094-1.3125-0.17969-0.67578 0.89062-0.074219 1.2305-0.74609-1.1719-0.16406-1.0977-1.0703-0.16406-0.54688 0.87891-0.83594 0.62109-0.82812-0.89844-0.78906-0.64453-0.59766 0.80859-0.89844 0.44922-0.21094 1.082-0.55078 0.85938-0.43359-1.082-0.57031-0.91016-1.0391-0.10156-0.875 0.49219-0.92969 0.51562-1.168-0.40234-1-0.32031-0.23438 0.98828-0.49219 0.96484-0.91016-0.57031 0.44141-0.97266-0.85156-0.85547-0.96094 0.39844-0.44141 0.90625-0.86328-0.51953-1.2656 0.15625-0.9375-0.39844-1.0391 0.11328-0.75 0.78516-0.30078 1.0898-0.53906-0.85938-1.082 0.125-0.48828-1.043-1.0352-0.69531-1.1016-0.023438-0.83594-0.69141-0.54297-0.98047 0.26172-1.1094-1.0117 0.11328-0.55078-0.96094-0.96094 0.36719-0.61719 0.89453-1.0742 0.13672-0.91406 0.99609-0.78125 0.70703-0.03125-1.043-0.64062-0.84375-1.0078 0.082031-1.2617-0.15234-1.2891 0.050782-1.0508 0.20703-0.99609 0.42969-0.11328-1.0195-0.95703-0.39453-1.0469 0.4375-1.0391-0.21484 0.21875-0.97656-1.1133 0.33203-0.83984-0.80469-1.0156-0.14844-0.85156-0.69531 0.14844-1.0273-1.0156 0.49219-1-0.30078-0.50781-0.91797-0.91016 0.48828-0.10938-1-1.0273-0.10156-0.71484-0.73438 0.41406 1.0742 0.83203 0.60156-0.30469 1.0664-0.95312-0.39844-1.0469-0.10156-0.023437 1.1055-1.0664 0.14453-0.95703 0.4375-0.95703 0.61719-1.0391 0.23047 0.64062-0.80859-1.0234-0.16016 0.21484-1.0547 0.33984-0.98047-0.89453-0.59766-0.39453 1.0078-0.36328-1.0742-0.63281 0.79688-1.1641-0.25391-0.84766 0.64062-0.96875 0.38281-1.0234-0.14844-0.12109 1.1133-0.91016-0.48438-0.98828-0.37109-0.91016 0.54688-1.0898-0.003906-0.91016-0.58984-0.99609-0.14062-0.21094 1.0273-0.80469-0.70312-1.0391 0.058594-0.92969 0.51953-1.0078-0.10156-1.0273-0.20703-0.80078 0.6875-0.95703 0.45703-1.0273 0.21094-1.0352-0.03125 0.30859-0.98828-1.2031 0.23438-0.56641 0.86719-1.1055 0.20312-0.58203-0.83594-0.96094 0.33203-1.0703 0.035156-0.83203-0.74219-0.74219-0.67578-0.33984 1.0039-0.61328 0.80859-0.70312 0.77344-0.19531 1.0156-0.90625 0.58984-0.99609-0.14844-1.1602 0.24219-1-0.17578-1.0938 0.32031-0.94922-0.3125-1.0469 0.26172-0.88672-0.54688-0.94922-0.48047-0.51953-0.88672-0.80078-0.61328-0.54688-0.90625 0.10156-1.3789-1.0156-0.375-1.043-0.52734-0.67188-0.84766 0.32422-0.95312 0.14062-1.0625-0.50391-1.1914-0.70312-1.1445 0.37109-1.1992 0.60156-1.2578 1 0.48438 1.1719 0.42969 1.2148 0.058594 0.007812-1.1367 1.6016-1.0117 1.0859-0.36328 0.75391-0.75391 0.9375 0.78516 0.15625 1.3203 1.2617-0.054688 1.0273-0.17969 1.7188 0.12109 0.99609 1.0547 1.1484 0.18359 1.0625 0.40625 1.1602 0.40625 1.0781 0.10938 1.0156 0.21484 1.0312-0.039063 0.6875-0.98047 0.4375-1.0391 1.1289 0.082031 1.0234 0.074219 1.2656-0.82031 1.1992-0.66016 1.1484 0.21094 1.5195 0.21484 1.2695 0.58203 1.0391-0.22656 0.96484-0.40625 0.76953 0.74219 1.082-0.015625 1.2617 0.070312 1.7109 0.23438 0.64844 0.83594 1.1836-0.09375 1.1055 0.035156 0.35938-0.98828 1.0508 0.48828 1.1602-0.27344 1.0352 0.035157 1.1406-0.49219 0.99609 0.55859 1.4688 0.13281 1.4883 0.085938 1.1367-0.67969 0.98828 0.32031 1.1602-0.097656 1.0469 0.26172 0.48047 0.94922 0.9375 0.66797 0.98438 0.26953 0.28906-0.98438 0.83984-0.71875 1.1367-0.44922 0.94531-0.39062 1-0.082031 1.1055-0.30078 1.1367 0.023437 1.0195-0.32031 1.2461 0.48828 1.0859-0.20703 1.4141 0.34766 1.3477-0.15234 1.0156-0.39844 0.73047-0.80078 1.1367 0.20312 0.62891 1.0117 0.83984 0.77734 0.51562-1.168 0.35938-1.0312 0.80469-0.76562 0.73047-0.76172 0.82031 0.69531 1.1289-0.11328 0.86719-0.58203 1.0078 0.375 1.0898 0.089843 0.74219 0.82422 1.0742-0.25391 0.89453-0.45312 2.2617-0.11719 1.4336-0.50781 1.2188-0.17578 1.0234-0.19531 1.5508-0.097656 1.1523 0.34375 1.3945-0.26562 1.0938-0.59375 0.94531-0.50391 1.3242-0.074219 1.1484 0.20312 3.1875-1.7305 0.98047-0.23438 0.48047 0.87891 0.70703 0.81641 1.1758 0.035156 0.96094 0.37109 1.0859-0.28906 0.99609-0.18359 1.0234 0.30859 1.0078-0.51562 0.76562-0.74609 1.0273-0.4375 1.0859 0.41016 1.0352 0.039062 1.0234 0.23438 1.3828 0.10156 1.1328-0.30078 1.543-0.17969 0.98828 0.17578 1.0547 0.19922 1.0859-0.27734 1.0156-0.51562 0.70703-0.82812 1.0547 0.22266 0.99609 0.33594 1.6016-0.46094 1.0508-0.042968 0.91016 0.53516 1.0234-0.54688 0.089844-1.0078 0.73828-0.73438 1.0312-0.98047 0.16016-1 0.45703-1.1055 0.875-0.60547 1.1094-0.089844 0.9375-0.42578 0.28516-1.0273-0.027344-1.1602 0.82422-2.1172 0.82422-0.83203 1.2539 0.12891 0.86328-0.71875 0.875-1.0781 1.0781-0.93359 0.94531-1.0703 0.3125-1.6797-0.10938-1.4023-0.11328-1.3086 0.39062-1.6367 0.57422-1.4258 0.59375-1.2539 0.39453-1.0781 0.53516-0.90625 1.0273-0.29297 0.6875-0.85547 1.0156 0.42188 1.207 0.12891 1.1055-0.48438-0.18359-1.2695-0.42969-1.043 1.2422-0.16016 0.039062-1.1562-0.058593-1.0664-0.35547-0.97266-0.28516-1.0664 0.19922-1.0508 0.42188-0.94141 0.66406-0.89844-0.97656-0.85156-0.92969-1.0312-0.45312-1.2656-0.10156-1.0312 0.17969-1.1953 0.88281-0.625 1.1211-0.74219 0.88672-0.79688 0.60547-1.3281-0.10938-1.6055-0.89844-0.65625-0.83203-0.5625 0.22656-1.4688 1.1172-1.707 0.27734-1.8047 0.59375-1.3984 0.019531-1.082 0.71094-0.8125 0.67969-1.0039 1.1797-0.41797 0.98047-0.50781 1.4219 0.17188 1.0312-0.52734 0.42188-1.1484-0.29688-0.97656 0.046875-1.1484 0.30469-0.96094-0.29688-1.0352 0.19141-1.0664 1.1992 0.074219 1.1719-0.023437 0.8125-0.73828 0.77734-1.1289 0.58203-0.99219 0.51562-0.95312 1.0586-0.21094 1.0469-0.37109 1.0977 0.58203 0.97266-0.45703 1-0.097656 1.0742-0.003906 1.0273-0.21094 1.4531-0.25 1.0898-0.52344 1.0781-0.37109 0.97656-0.57422 1.1016-0.30469 1.0898 0.019531 0.82031-0.62109 0.94922-0.45312 0.84766-0.67969 0.27344-1.0781 1.0508-0.51562 0.30078-1.0156 0.89453-0.53906 0.10938-1.168 0.84375-0.91406-0.41406-1.168 0.26562-1.0625 0.97656-0.58984 0.47266-1.4492 1.0781-0.88672 1.6406-0.69141 1.1914-1.1016 1.1953-0.82031 0.42188-1.1211-0.070313-1.3359-0.85938-1.9297-0.79688-2.1133-0.23828-1.9492 0.97656-0.65234 1.8008-0.089843 2.7461-0.17578 1.1055-0.375 1.1641-0.027343 1.4336 0.37109 1.2891 0.50781 2.0312-0.18359 0.64844-1.1562 0.73828-1.707 0.64453-1.5703 0.41797-1.8906-0.85547-1.5742-0.53125-1.2891v-1.207l0.27734-0.96484 0.96875-0.96875 1.2031-0.41406 2.2148-0.18359 1.707-0.1875 2.3555 0.41797 1.7812 0.20312 1.8203-0.54297 1.9844-1.5703 0.78516-1.668 0.78516-1.6094 0.96875-0.87891 1.4414-0.44922 1.2383-1.332 0.51172-1.3555 1.0859-0.85156 1.8789-0.49219 0.88672-0.77734 1.1562-0.73438 0.84766-1.0625 1.4453-1.1562 0.13672-1.1797-0.29688-1.1602-0.11719-1.1719 0.5-0.98438 0.73047-0.88672 0.25781-1.0195 0.69531-0.78125 1.1289-0.17969 0.57812-0.85938 0.54297-1.0039 1.168-0.18359 0.60938-0.83594 0.76172-0.67969 0.55078-1.0273 0.92578-0.44141 0.47656-1.4453 0.96094-0.53906-1.0547-0.72266-0.94531-1.0977 0.082031-1.3594 0.53906-0.96094-0.65625-1.4258-0.89453-0.62109-1.1406-0.31641 0.22656-1.4336 0.4375-1.1602 0.60156-1.0391 0.88672-0.57422-0.33594-1.5352-0.59375-1.3125-0.61328-1.0312 0.31641-0.98047 1.4648-1.2383 0.77344-0.90234 0.53125-1.3516-0.13672-1.332-0.25-1.4492 1.1055-1.8281 0.11328-1.2617 0.95703-0.5625-0.023437-1.6602-0.61328-1.457 1.5039-0.48438 1.3086-0.49219 1.1797-0.72656-0.011719 6.7422 0.09375 12.949 0.003907 9.1367-0.007813 10.895z" fill="#0a5394" fill-rule="evenodd"/>
<path d="m243.96 62.023-0.019532 22.742v14.277l-0.007812 6.4219-0.007813 5.875 0.007813 8.2109v61.184l-0.019531 16.406 2.7812-2.0312 5.9648-4.5781 4.5898-3.6172 1.3164 0.085937 0.17188 1.0742 0.58203 0.92969 1.2266 0.39453 0.81641 0.75 0.72656 0.69922 0.89062 0.67578 1.0273 0.30078 0.74609 0.74219 0.75781 0.96094 0.36328 0.98438 0.76172 0.6875 0.98047 0.57422 0.83594 0.61328 0.73047 0.69531 0.49609 0.94531 0.53125 0.92578 0.42188 0.95703 0.33203 1.0195-0.058594 1.0078 0.16797 1.0508 1.0078 0.29297 1-0.20703 1.1211 0.28906 0.99219 0.25 0.66797 0.75 1.1523-0.16016 1.043 0.046875 0.97266 0.32031 0.94531 0.38672 0.27734 0.97656 0.91016 0.57812 1.1172-0.10938 1.0078 0.058594 1.0078-0.10156 0.53125 0.86328 0.96875 0.26953 1.0352 0.11328 1.0781-0.25 1.0859 0.18359 1.1094 0.1875 1.0352 0.33594 1.043-0.30859 0.98438-0.39453 1.0859-0.57031 0.8125-0.64453 1.2227 0.007813 1.0508-0.082031 0.72656-0.75391 1.0195-0.003906 1.0625-0.42188 1.0664-0.10938 1.0156 0.070313 1.0664 0.33594 1.0664-0.17188 1.0391-0.023437 1.1016-0.019532 1.0234 0.22266 1.0352 0.16016 0.96875-0.45703 0.6875-0.78906 1.1445-0.10938 0.96875-0.27344 1.0469-0.12109 1.0312 0.03125 0.42578-0.92188 0.94531-0.68359 1.3008-0.22266 0.46484-0.91406 1.0586-0.21094 0.80859-0.96094 0.79688-0.89844 1.1875-0.21484 1.0469-0.24219 0.33203-1.0977 0.49609-0.91797 0.99219 0.23438 0.23047-1.0352 0.99609-0.29297 0.89844-0.50391 0.34766 0.96484 1.0156-0.070312 0.89453 0.62891 0.64844-0.79688 1.1562-0.21875 0.91406-0.4375 0.625-0.79688 1.1016 0.070312 0.25-1.1641 1.1328 0.39453 0.79688-0.625 1.0234-0.28906 1.2031-0.53516 1-0.33984 1.1523-0.10938 0.28125-1.0391 1.1406-0.21875 0.61719-0.82031 0.22266-1.0273 0.71094 0.74219 1.0703-0.15234 0.6875-0.74609 0.98047-0.28906 0.99609-0.79688-0.039062-1.0547 0.91016-0.46094 1.0391 0.23438 0.97656-0.60938 1.1094 0.14062 0.67188 0.89453 0.93359 0.48047 0.0625-1.0234 0.92188-0.42578 1.1328-0.074219 1.1719-0.10156 1.2539 0.23438 1.0273 0.13281 0.96094 0.60938 1.0391-0.09375 1.0781-0.16016 0.42188 0.99219 0.67578-0.87891 1.082-0.48828 0.96875 0.36328 1.0586 0.21875 0.66797 0.83203 1.1523-0.046875 1.1055-0.45312 0.76172-0.71484 1.1367 0.16406 0.91406 0.69922 1.0352 0.082031 1.1211-0.054688 0.89844 0.53125 0.91016-0.50781-0.17188 1.0508 1.1953 0.53906 0.98438-0.31641 0.66016 0.94922 0.78516 0.82031 0.66797 0.81641 0.44922 0.96094 0.4375 0.92969 0.37109 0.9375 1.0039-0.39844 0.96484-0.70312 1.0195 0.22266 0.23828 1.0234 1.1172-0.34766 0.86328-0.91797 0.83984 0.57031 0.84766-0.73047 1.0625-0.27734 0.89844-0.54297 1.1523-0.19922 1.1094-0.015625 0.79688-0.86719 1.043-0.31641 1.1641 0.17188 0.97656 0.34375 1.0508 0.25391 0.99609-0.52734 0.92188-0.59766 1.0469 0.41016 0.5625-0.875 1.1797-0.47266 0.99609-0.36719 0.76953 0.67969 1.1445 0.22266-0.55078-0.89844 0.98047-0.21875 1.0742 0.48828 0.10156 1.0391 0.96094 0.63672 0.68359 0.77734 0.13281 1.0469 1.1133 1.9023 1.2305 2 0.82812 1.3867 1.2109 1.957 1.2109 1.9336 0.97656 1.5781 1.2734 2.043 0.90625 1.457 1.0898 1.7539 1.3125 2.0469 1.3242 2.0859 0.98438 1.5312 1.1406 1.7891 1.5117 2.4102 1.0664 1.7188 1.3984 2.2344 1.3281 2.125 1.5469 2.4727 1.375 2.207 1.1211 1.7891 0.78516 1.2188 0.73047 1.1094 2.0469 3.2578 0.66406 1.0586 1.3359 2.1406 2.8008 4.5117 2.4453 3.9336-1.2891 0.35938-1.1016-0.3125-0.66406-0.91016-1.3203-0.78516-2.7461-0.83594-2.2891-0.17188-1.6406-0.40625-1.2266-0.47656-2.1914-1.5234-1.707-1.4805-1.6641-1.0469-0.69531-0.73828-0.60156-0.95312-0.64844-0.83203-0.91406-0.85938-1.1094-0.59375-1.1484-0.40625-0.97266-1.1758-0.10156-1.3867-0.66016-1.1289-1.0781-0.68359-1.2109 0.24219-1.0508 0.33594-1.0391-0.054688-1.4258 0.09375-1.3984-0.38281-1.2305-0.023438-1.1172-0.69141-0.44531-1.0195-1.0625 0.40234-0.83984 0.58594-1.125 0.23828-1.1406 0.25781-0.89062-0.47656-1.3398 0.74609-1.2227 0.45703-1.1758 0.26172-1.2266-0.16797-0.59766 1.0703-1.6211 0.84766-1.1641-0.015625-0.8125-0.60156-1.418-0.46094-1.3516-0.28516-1.3516-1.4922-0.71875-1.0039-1.0781-0.88672-1.3008 0.54297-1.2266-0.26562-0.64844-0.87891-1.1328-0.62109-0.79688 0.71094-23.32 17.18-5.4141 4.0664-14.016 10.531-2.7344 2.1094-14.523 10.738-2.0312 1.4922-0.875 0.71484-1.3398-0.39844-1.1094-0.18359-1.3594 0.13672-1.0078 0.16016-0.95703-0.55078-0.9375-0.35938-0.96094-0.45703-1.0195-0.050781-1.1797-0.25781-0.89844-0.48047-0.87109-0.52734-0.52734-0.99609-1.1953 0.058594-1.168-0.48828-1.1055-0.30859-0.44531-0.99219-1.0234-0.42969-1.1797-0.61328-1.3789-0.95312-0.71875-0.75-0.82031-0.57422-1.0156-0.40234-0.97656-0.51172-1.2383 0.26562-1.3984-0.17969-1.0625-0.54688-1.3906-0.35156-1.2148-0.21484-0.98047 0.49219-1.0938 0.19922-1.2773-0.14844-3.0117-0.30078-1.1328 0.16406-1.1953-0.3125-1.1211 0.14453-1.207-0.10938-1.043-0.039063-1.0469-0.078125-0.94922-0.375-1.168-1.2227-0.81641-0.84375-0.91016-0.58984-0.59375-1.0273-0.6875-0.86719-0.80859-0.61719-1.0977-0.14062-0.38281-1.082-0.0625-1.0586-0.074219-1.1406-0.44141-0.93359-0.64844-0.80469-0.96875-0.45703-1.0117-0.83594-0.97266-0.75781-1.0586 0.17578-0.91797 0.45703-1.582-0.125-1.6562 0.058594-7.9922 0.90625-3.1562 0.41016-19.762 2.0977-1.5195 0.16016-2.4648 0.28125-1.0039-0.35938-0.88672-0.53125 0.61719 0.90234-1.1406 0.042968-1.1758 0.0625-1.2109 0.48438-0.40625-1.1211-0.63672-0.80469 0.050781-1.0742-0.98828-0.40625-0.67188-1.043-0.34766-1.0508-0.78516-1.0273-1.0703-0.16797 0.86719 0.91797 0.39844 0.95703-0.074219 1.1211-1.3086-1.2734-1.0156-0.71484-1.0742 0.28516-0.5625-1.1328 0.28906-1.1328 0.51562-1.1406-0.67969-0.74219-0.87891-0.55469-0.92578 0.96484-1.1484 0.13281-0.97656-0.25391-1.0117-0.13281-0.58984-0.84766-1.2383-0.085938-1.2031-0.22266-0.98828-0.45312 0.39062-1.0195 0.69922-0.83594 0.46875-0.99609 0.37891-1.1992 0.17578-1.1719-0.5625-0.92969-1.1562-0.14453-1.1055 0.19531 0.46094 0.92969-0.046875 1.0234-1.0469-0.50391-1.0078 0.43359-0.94141 0.375-0.91406-0.76562-0.58594 1.0703-1.0195 0.54688 0.49609-1.0234 0.24609-0.97266-0.70703-0.74609-0.88281 0.95312-0.53516 0.92188-0.31641-1.207-0.84375-0.80469-1.0703 0.51172-0.57812 0.875-0.33203 0.96484-0.42969-1.0078-0.80859-0.86719-1.1172-0.13672-0.95703-0.71094-0.61328-0.84375-1.1211-0.019532-1.2305 0.042969-0.72266-0.85938-1.0039 0.10156-0.87109-0.57812-0.63281-0.9375-0.35547 0.94922-0.88672 0.86719-0.96094-0.41406-0.070313-1.125 0.28125-1.0195-0.98438-0.53125-1 0.375-0.085937 1.1719-0.86719 0.51953 0.14062-1.1133-0.375-0.98438-0.92188 0.79297-1.0078 0.039062-0.72656-0.91797-0.56641-0.98438-0.62109 1.0703-0.52344 0.97656-0.97266-0.40625 0.32031-1.2109-0.26953-0.98438-0.99219-0.14844-0.9375 0.42188-1.0312-0.76172-1.0078 0.14844 0.58203 0.98438-1.0039-0.10938-0.87109-0.55859 0.48438-1.0273 0.30078-0.96875-1.1016 0.35156-0.99609 0.375-0.39844 1.1602-0.66406 0.90625-0.875-1.0703-0.71094-0.96875-0.73828-0.83203-1.0703 0.51953-1.168 0.26562-1.1172 0.11328-0.17578-1.2891-0.30469-1.0938-1.2812-0.11328-1.0234 0.6875 0.054688 1.0625-0.29297 0.98828-0.63281-0.92969-1.0156-0.1875-0.46875-1.0938-1.0859-0.44531-0.97266-0.375-1.1562 0.21094-1.1094 0.10156-0.19922-1.0742-0.87891-0.5-0.58594 1.0781-0.13281 1.0195-0.97656 0.57031-0.32422-0.96094 0.54297-1.0781-0.38281-1.1406-1.0664-0.125-0.29297-1.0195-0.26953-1.1445-0.71875 0.92969-1.0195 0.51562-1.0781 0.17188-0.75781-0.92578-0.66016-0.84375-1.0117-0.19531-0.70703 0.94922-1.0234 0.035157-0.82812-0.67969-1.0586-0.1875-0.74609 0.76172-0.95703-0.47656 0.42188-1.0938 0.29297-0.99219-1.1367 0.011719-0.98438 0.35938-1.2344-0.10547-0.44922-1.0977 0.019531-1.0586-0.96875 0.26953-1.1094 0.83594-1.25-0.3125-1.0391-0.042969-1.1172 0.23047-0.90625 0.64844 0.82422 0.76172-0.42188 0.9375-1.0703-0.55469 0.035156-1.0508 0.68359-0.85547-0.66016-1-0.61328-1.1172-1.4609 0.28125-1.0312-0.22656-0.97266-0.37109-0.90234-0.46094-0.93359-0.85156-1.0273 0.023437-1.0508 0.11719-1.0508-0.035157 0.39453-0.95703-0.14062-1.207-0.94141 0.33203-0.72656 0.82812-0.89062-0.65625 1.1641-0.23438-0.17188-1.1367 0.91406-0.79688 0.57812-0.83594-0.80859-0.84766-0.69141 0.75781-1.1641-0.24609-1-0.40234-1.4375 0.20703-1.0234-0.38672-0.67969-1.0391-1.1641-0.77344-1.0938-0.26172-0.34375 1.0117 0.55078 0.88672-1.0156 0.44141-0.91406-0.625-1.0312-0.22266-0.77344-1.0234-1.0234-0.96094-1.3125-0.17969-0.67578 0.89062-0.074219 1.2305-0.74609-1.1719-0.16406-1.0977-1.0703-0.16406-0.54688 0.87891-0.83594 0.62109-0.82812-0.89844-0.78906-0.64453-0.59766 0.80859-0.89844 0.44922-0.21094 1.082-0.55078 0.85938-0.43359-1.082-0.57031-0.91016-1.0391-0.10156-0.875 0.49219-0.92969 0.51562-1.168-0.40234-1-0.32031-0.23438 0.98828-0.49219 0.96484-0.91016-0.57031 0.44141-0.97266-0.85156-0.85547-0.96094 0.39844-0.44141 0.90625-0.86328-0.51953-1.2656 0.15625-0.9375-0.39844-1.0391 0.11328-0.75 0.78516-0.30078 1.0898-0.53906-0.85938-1.082 0.125-0.48828-1.043-1.0352-0.69531-1.1016-0.023438-0.83594-0.69141-0.54297-0.98047 0.26172-1.1094-1.0117 0.11328-0.55078-0.96094-0.96094 0.36719-0.61719 0.89453-1.0742 0.13672-0.91406 0.99609-0.78125 0.70703-0.03125-1.043-0.64062-0.84375-1.0078 0.082031-1.2617-0.15234-1.2891 0.050782-1.0508 0.20703-0.99609 0.42969-0.11328-1.0195-0.95703-0.39453-1.0469 0.4375-1.0391-0.21484 0.21875-0.97656-1.1133 0.33203-0.83984-0.80469-1.0156-0.14844-0.85156-0.69531 0.14844-1.0273-1.0156 0.49219-1-0.30078-0.50781-0.91797-0.91016 0.48828-0.10938-1-1.0273-0.10156-0.71484-0.73438 0.41406 1.0742 0.83203 0.60156-0.30469 1.0664-0.95312-0.39844-1.0469-0.10156-0.023437 1.1055-1.0664 0.14453-0.95703 0.4375-0.95703 0.61719-1.0391 0.23047 0.64062-0.80859-1.0234-0.16016 0.21484-1.0547 0.33984-0.98047-0.89453-0.59766-0.39453 1.0078-0.36328-1.0742-0.63281 0.79688-1.1641-0.25391-0.84766 0.64062-0.96875 0.38281-1.0234-0.14844-0.12109 1.1133-0.91016-0.48438-0.98828-0.37109-0.91016 0.54688-1.0898-0.003906-0.91016-0.58984-0.99609-0.14062-0.21094 1.0273-0.80469-0.70312-1.0391 0.058594-0.92969 0.51953-1.0078-0.10156-1.0273-0.20703-0.80078 0.6875-0.95703 0.45703-1.0273 0.21094-1.0352-0.03125 0.30859-0.98828-1.2031 0.23438-0.56641 0.86719-1.1055 0.20312-0.58203-0.83594-0.96094 0.33203-1.0703 0.035156-0.83203-0.74219-0.74219-0.67578-0.33984 1.0039-0.61328 0.80859-0.70312 0.77344-0.19531 1.0156-0.90625 0.58984-0.99609-0.14844-1.1602 0.24219-1-0.17578-1.0938 0.32031-0.94922-0.3125-1.0469 0.26172-0.88672-0.54688-0.94922-0.48047-0.51953-0.88672-0.80078-0.61328-0.54688-0.90625 0.10156-1.3789-1.0156-0.375-1.043-0.52734-0.67188-0.84766 0.32422-0.95312 0.14062-1.0625-0.50391-1.1914-0.70312-1.1445 0.37109-1.1992 0.60156-1.2578 1 0.48438 1.1719 0.42969 1.2148 0.058594 0.007812-1.1367 1.6016-1.0117 1.0859-0.36328 0.75391-0.75391 0.9375 0.78516 0.15625 1.3203 1.2617-0.054688 1.0273-0.17969 1.7188 0.12109 0.99609 1.0547 1.1484 0.18359 1.0625 0.40625 1.1602 0.40625 1.0781 0.10938 1.0156 0.21484 1.0312-0.039063 0.6875-0.98047 0.4375-1.0391 1.1289 0.082031 1.0234 0.074219 1.2656-0.82031 1.1992-0.66016 1.1484 0.21094 1.5195 0.21484 1.2695 0.58203 1.0391-0.22656 0.96484-0.40625 0.76953 0.74219 1.082-0.015625 1.2617 0.070312 1.7109 0.23438 0.64844 0.83594 1.1836-0.09375 1.1055 0.035156 0.35938-0.98828 1.0508 0.48828 1.1602-0.27344 1.0352 0.035157 1.1406-0.49219 0.99609 0.55859 1.4688 0.13281 1.4883 0.085938 1.1367-0.67969 0.98828 0.32031 1.1602-0.097656 1.0469 0.26172 0.48047 0.94922 0.9375 0.66797 0.98438 0.26953 0.28906-0.98438 0.83984-0.71875 1.1367-0.44922 0.94531-0.39062 1-0.082031 1.1055-0.30078 1.1367 0.023437 1.0195-0.32031 1.2461 0.48828 1.0859-0.20703 1.4141 0.34766 1.3477-0.15234 1.0156-0.39844 0.73047-0.80078 1.1367 0.20312 0.62891 1.0117 0.83984 0.77734 0.51562-1.168 0.35938-1.0312 0.80469-0.76562 0.73047-0.76172 0.82031 0.69531 1.1289-0.11328 0.86719-0.58203 1.0078 0.375 1.0898 0.089843 0.74219 0.82422 1.0742-0.25391 0.89453-0.45312 2.2617-0.11719 1.4336-0.50781 1.2188-0.17578 1.0234-0.19531 1.5508-0.097656 1.1523 0.34375 1.3945-0.26562 1.0938-0.59375 0.94531-0.50391 1.3242-0.074219 1.1484 0.20312 3.1875-1.7305 0.98047-0.23438 0.48047 0.87891 0.70703 0.81641 1.1758 0.035156 0.96094 0.37109 1.0859-0.28906 0.99609-0.18359 1.0234 0.30859 1.0078-0.51562 0.76562-0.74609 1.0273-0.4375 1.0859 0.41016 1.0352 0.039062 1.0234 0.23438 1.3828 0.10156 1.1328-0.30078 1.543-0.17969 0.98828 0.17578 1.0547 0.19922 1.0859-0.27734 1.0156-0.51562 0.70703-0.82812 1.0547 0.22266 0.99609 0.33594 1.6016-0.46094 1.0508-0.042968 0.91016 0.53516 1.0234-0.54688 0.089844-1.0078 0.73828-0.73438 1.0312-0.98047 0.16016-1 0.45703-1.1055 0.875-0.60547 1.1094-0.089844 0.9375-0.42578 0.28516-1.0273-0.027344-1.1602 0.82422-2.1172 0.82422-0.83203 1.2539 0.12891 0.86328-0.71875 0.875-1.0781 1.0781-0.93359 0.94531-1.0703 0.3125-1.6797-0.10938-1.4023-0.11328-1.3086 0.39062-1.6367 0.57422-1.4258 0.59375-1.2539 0.39453-1.0781 0.53516-0.90625 1.0273-0.29297 0.6875-0.85547 1.0156 0.42188 1.207 0.12891 1.1055-0.48438-0.18359-1.2695-0.42969-1.043 1.2422-0.16016 0.039062-1.1562-0.058593-1.0664-0.35547-0.97266-0.28516-1.0664 0.19922-1.0508 0.42188-0.94141 0.66406-0.89844-0.97656-0.85156-0.92969-1.0312-0.45312-1.2656-0.10156-1.0312 0.17969-1.1953 0.88281-0.625 1.1211-0.74219 0.88672-0.79688 0.60547-1.3281-0.10938-1.6055-0.89844-0.65625-0.83203-0.5625 0.22656-1.4688 1.1172-1.707 0.27734-1.8047 0.59375-1.3984 0.019531-1.082 0.71094-0.8125 0.67969-1.0039 1.1797-0.41797 0.98047-0.50781 1.4219 0.17188 1.0312-0.52734 0.42188-1.1484-0.29688-0.97656 0.046875-1.1484 0.30469-0.96094-0.29688-1.0352 0.19141-1.0664 1.1992 0.074219 1.1719-0.023437 0.8125-0.73828 0.77734-1.1289 0.58203-0.99219 0.51562-0.95312 1.0586-0.21094 1.0469-0.37109 1.0977 0.58203 0.97266-0.45703 1-0.097656 1.0742-0.003906 1.0273-0.21094 1.4531-0.25 1.0898-0.52344 1.0781-0.37109 0.97656-0.57422 1.1016-0.30469 1.0898 0.019531 0.82031-0.62109 0.94922-0.45312 0.84766-0.67969 0.27344-1.0781 1.0508-0.51562 0.30078-1.0156 0.89453-0.53906 0.10938-1.168 0.84375-0.91406-0.41406-1.168 0.26562-1.0625 0.97656-0.58984 0.47266-1.4492 1.0781-0.88672 1.6406-0.69141 1.1914-1.1016 1.1953-0.82031 0.42188-1.1211-0.070313-1.3359-0.85938-1.9297-0.79688-2.1133-0.23828-1.9492 0.97656-0.65234 1.8008-0.089843 2.7461-0.17578 1.1055-0.375 1.1641-0.027343 1.4336 0.37109 1.2891 0.50781 2.0312-0.18359 0.64844-1.1562 0.73828-1.707 0.64453-1.5703 0.41797-1.8906-0.85547-1.5742-0.53125-1.2891v-1.207l0.27734-0.96484 0.96875-0.96875 1.2031-0.41406 2.2148-0.18359 1.707-0.1875 2.3555 0.41797 1.7812 0.20312 1.8203-0.54297 1.9844-1.5703 0.78516-1.668 0.78516-1.6094 0.96875-0.87891 1.4414-0.44922 1.2383-1.332 0.51172-1.3555 1.0859-0.85156 1.8789-0.49219 0.88672-0.77734 1.1562-0.73438 0.84766-1.0625 1.4453-1.1562 0.13672-1.1797-0.29688-1.1602-0.11719-1.1719 0.5-0.98438 0.73047-0.88672 0.25781-1.0195 0.69531-0.78125 1.1289-0.17969 0.57812-0.85938 0.54297-1.0039 1.168-0.18359 0.60938-0.83594 0.76172-0.67969 0.55078-1.0273 0.92578-0.44141 0.47656-1.4453 0.96094-0.53906-1.0547-0.72266-0.94531-1.0977 0.082031-1.3594 0.53906-0.96094-0.65625-1.4258-0.89453-0.62109-1.1406-0.31641 0.22656-1.4336 0.4375-1.1602 0.60156-1.0391 0.88672-0.57422-0.33594-1.5352-0.59375-1.3125-0.61328-1.0312 0.31641-0.98047 1.4648-1.2383 0.77344-0.90234 0.53125-1.3516-0.13672-1.332-0.25-1.4492 1.1055-1.8281 0.11328-1.2617 0.95703-0.5625-0.023437-1.6602-0.61328-1.457 1.5039-0.48438 1.3086-0.49219 1.1797-0.72656-0.011719 6.7422 0.09375 12.949 0.003907 9.1367-0.007813 10.895-0.023437 0.046875" fill="none" stroke="#fff" stroke-linecap="round" stroke-linejoin="round" stroke-miterlimit="10"/>
<path d="m411.38 188.59c0 3.5898-2.9102 6.5-6.5 6.5s-6.5-2.9102-6.5-6.5 2.9102-6.5 6.5-6.5 6.5 2.9102 6.5 6.5" fill="#28c028" fill-rule="evenodd" stroke="#000" stroke-linecap="round" stroke-linejoin="round" stroke-miterlimit="10"/>
<path d="m305.89 182.59v-16.469h3.3125v16.469zm6.5156 0v-16.469h3.2344l6.75 11v-11h3.0781v16.469h-3.3281l-6.6406-10.734v10.734zm4.125-17.375h-1.4375v-0.40625c0-0.78125 0.1875-1.3828 0.5625-1.8125 0.38281-0.42578 0.875-0.64062 1.4688-0.64062 0.26953 0 0.51562 0.03125 0.73438 0.09375 0.22656 0.054687 0.64062 0.21484 1.2344 0.48438 0.59375 0.26172 1.0547 0.39062 1.3906 0.39062 0.23828 0 0.4375-0.070313 0.59375-0.21875 0.16406-0.15625 0.27344-0.40625 0.32812-0.75h1.4531c-0.011719 1.0117-0.20312 1.7344-0.57812 2.1719-0.36719 0.42969-0.83984 0.64062-1.4219 0.64062-0.25 0-0.5-0.023438-0.75-0.078125-0.17969-0.039063-0.60938-0.19141-1.2969-0.45312-0.6875-0.26953-1.1875-0.40625-1.5-0.40625-0.24219 0-0.42969 0.074219-0.5625 0.21875-0.13672 0.14844-0.21094 0.40234-0.21875 0.76562zm27.297 17.375h-3.6094l-1.4375-3.7344h-6.5781l-1.3594 3.7344h-3.5312l6.4062-16.469h3.5156zm-6.1094-6.5156-2.2812-6.1094-2.2188 6.1094zm7.875 6.5156v-16.469h5.3438c2.0195 0 3.3359 0.085937 3.9531 0.25 0.9375 0.25 1.7227 0.79297 2.3594 1.625 0.63281 0.82422 0.95312 1.8867 0.95312 3.1875 0 1.0117-0.18359 1.8672-0.54688 2.5625-0.36719 0.6875-0.83594 1.2305-1.4062 1.625-0.5625 0.38672-1.1367 0.64062-1.7188 0.76562-0.79297 0.16797-1.9375 0.25-3.4375 0.25h-2.1719v6.2031zm3.3281-13.672v4.6719h1.8125c1.3125 0 2.1875-0.085938 2.625-0.26562 0.44531-0.17578 0.79688-0.44531 1.0469-0.8125 0.25-0.36328 0.375-0.78906 0.375-1.2812 0-0.59375-0.17969-1.082-0.53125-1.4688-0.35547-0.39453-0.79688-0.64062-1.3281-0.73438-0.39844-0.070313-1.1953-0.10938-2.3906-0.10938zm26.859 13.672h-3.6094l-1.4375-3.7344h-6.5781l-1.3594 3.7344h-3.5312l6.4062-16.469h3.5156zm-6.1094-6.5156-2.2812-6.1094-2.2188 6.1094zm7.8906 6.5156v-16.469h7c1.7578 0 3.0352 0.15234 3.8281 0.45312 0.80078 0.29297 1.4414 0.82031 1.9219 1.5781 0.47656 0.75 0.71875 1.6172 0.71875 2.5938 0 1.2305-0.36719 2.25-1.0938 3.0625-0.73047 0.80469-1.8203 1.3086-3.2656 1.5156 0.71875 0.41797 1.3125 0.88281 1.7812 1.3906 0.46875 0.5 1.0977 1.3867 1.8906 2.6562l2.0156 3.2188h-3.9688l-2.4062-3.5781c-0.85547-1.2812-1.4375-2.0859-1.75-2.4219-0.3125-0.33203-0.64844-0.5625-1-0.6875-0.35547-0.125-0.91406-0.1875-1.6719-0.1875h-0.67188v6.875zm3.3281-9.5h2.4531c1.5938 0 2.5859-0.066406 2.9844-0.20312 0.39453-0.13281 0.70312-0.36328 0.92188-0.6875 0.22656-0.33203 0.34375-0.75 0.34375-1.25 0-0.55078-0.14844-0.99219-0.4375-1.3281-0.29297-0.34375-0.71094-0.5625-1.25-0.65625-0.27344-0.03125-1.0781-0.046875-2.4219-0.046875h-2.5938zm13.172 9.5v-16.469h3.3125v16.469zm0 0" fill="none" stroke="#fff" stroke-linecap="round" stroke-linejoin="round" stroke-miterlimit="10" stroke-width="2"/>
<path d="m305.89 182.59v-16.469h3.3125v16.469zm6.5156 0v-16.469h3.2344l6.75 11v-11h3.0781v16.469h-3.3281l-6.6406-10.734v10.734zm4.125-17.375h-1.4375v-0.40625c0-0.78125 0.1875-1.3828 0.5625-1.8125 0.38281-0.42578 0.875-0.64062 1.4688-0.64062 0.26953 0 0.51562 0.03125 0.73438 0.09375 0.22656 0.054687 0.64062 0.21484 1.2344 0.48438 0.59375 0.26172 1.0547 0.39062 1.3906 0.39062 0.23828 0 0.4375-0.070313 0.59375-0.21875 0.16406-0.15625 0.27344-0.40625 0.32812-0.75h1.4531c-0.011719 1.0117-0.20312 1.7344-0.57812 2.1719-0.36719 0.42969-0.83984 0.64062-1.4219 0.64062-0.25 0-0.5-0.023438-0.75-0.078125-0.17969-0.039063-0.60938-0.19141-1.2969-0.45312-0.6875-0.26953-1.1875-0.40625-1.5-0.40625-0.24219 0-0.42969 0.074219-0.5625 0.21875-0.13672 0.14844-0.21094 0.40234-0.21875 0.76562zm27.297 17.375h-3.6094l-1.4375-3.7344h-6.5781l-1.3594 3.7344h-3.5312l6.4062-16.469h3.5156zm-6.1094-6.5156-2.2812-6.1094-2.2188 6.1094zm7.875 6.5156v-16.469h5.3438c2.0195 0 3.3359 0.085937 3.9531 0.25 0.9375 0.25 1.7227 0.79297 2.3594 1.625 0.63281 0.82422 0.95312 1.8867 0.95312 3.1875 0 1.0117-0.18359 1.8672-0.54688 2.5625-0.36719 0.6875-0.83594 1.2305-1.4062 1.625-0.5625 0.38672-1.1367 0.64062-1.7188 0.76562-0.79297 0.16797-1.9375 0.25-3.4375 0.25h-2.1719v6.2031zm3.3281-13.672v4.6719h1.8125c1.3125 0 2.1875-0.085938 2.625-0.26562 0.44531-0.17578 0.79688-0.44531 1.0469-0.8125 0.25-0.36328 0.375-0.78906 0.375-1.2812 0-0.59375-0.17969-1.082-0.53125-1.4688-0.35547-0.39453-0.79688-0.64062-1.3281-0.73438-0.39844-0.070313-1.1953-0.10938-2.3906-0.10938zm26.859 13.672h-3.6094l-1.4375-3.7344h-6.5781l-1.3594 3.7344h-3.5312l6.4062-16.469h3.5156zm-6.1094-6.5156-2.2812-6.1094-2.2188 6.1094zm7.8906 6.5156v-16.469h7c1.7578 0 3.0352 0.15234 3.8281 0.45312 0.80078 0.29297 1.4414 0.82031 1.9219 1.5781 0.47656 0.75 0.71875 1.6172 0.71875 2.5938 0 1.2305-0.36719 2.25-1.0938 3.0625-0.73047 0.80469-1.8203 1.3086-3.2656 1.5156 0.71875 0.41797 1.3125 0.88281 1.7812 1.3906 0.46875 0.5 1.0977 1.3867 1.8906 2.6562l2.0156 3.2188h-3.9688l-2.4062-3.5781c-0.85547-1.2812-1.4375-2.0859-1.75-2.4219-0.3125-0.33203-0.64844-0.5625-1-0.6875-0.35547-0.125-0.91406-0.1875-1.6719-0.1875h-0.67188v6.875zm3.3281-9.5h2.4531c1.5938 0 2.5859-0.066406 2.9844-0.20312 0.39453-0.13281 0.70312-0.36328 0.92188-0.6875 0.22656-0.33203 0.34375-0.75 0.34375-1.25 0-0.55078-0.14844-0.99219-0.4375-1.3281-0.29297-0.34375-0.71094-0.5625-1.25-0.65625-0.27344-0.03125-1.0781-0.046875-2.4219-0.046875h-2.5938zm13.172 9.5v-16.469h3.3125v16.469z" fill-rule="evenodd"/>
</g>
</svg>
