<?xml version="1.0" encoding="UTF-8"?>
<svg width="500pt" height="490pt" version="1.1" viewBox="0 0 500 490" xmlns="http://www.w3.org/2000/svg">
<g id="a">
<rect width="500" height="490" fill="none"/>
<path d="m127.45 316.75 0.41016 0.09375 1 0.53906 1.1719 0.1875 1.1094 0.53125 1.0273 0.65234 1.3086-0.12891 2.3086-0.085938 2.1016 0.03125 1.0195-0.29688 1.043-0.36719 1.2891 0.078125 1.6523 0.32422 1.332-0.14453 1.918 0.375 3.7891 3.2969 2.6484 1.2109 2.7578 2.2188 1.4258 0.76172 3.75 2.6484 2.6289 0.59375 1.6328 0.89453 1.5039 0.36719 3.8359 1.9336 4.8008 1.9609 1.9453 1.3008 4.3242 3.5977 4.5547 2.3164 3.6758 1.0664 0.40234 1.2734-0.36328 4.1602 0.1875 5.8203 2.2891 2.3555 2.3516 1.0508 3.7148 0.74219 3.4062-0.12109 3.7148 0.55469 4.5195 0.78906 2.8516 0.88281 4.2109 0.74609h2.9102l2.2891-0.92969 1.2383-1.1758 0.98828-0.23438 2.543 0.48047 2.1055 0.24609 3.3438-2.2266 3.2812-1.5469 2.9727-0.0625 3.9609 0.80469 2.7852-0.62109 3.5977-1.332 1.2188-0.36328 1.9531-0.64844 2.0352-0.3125h2.2031l1.4062 0.17969 1.5156-0.14453h2.4922l1.1758 0.023437 2.2539 0.33984 1.5195 0.79297 4.1836-0.050782 1.1172 0.23828 3.0234 2.25 0.95312 0.70312 2.0117 2.3594 2.0391 1.1953 2.7539 0.83984 2.4336-0.28906 1.125-0.49219 1.25-0.58203 1.3711-0.13672 1.4102 0.14062 1.9141 0.87891 1.8398 1.4805 2.9531 3.0352 2.3828 1.4688 0.82812 0.75781 0.23828 1.5234-0.74609 0.98438-0.67969 3.5312 0.54297 2.2188 1.1914 1.3516 4.2383-0.76953 3.4492-0.070312 1.9961 0.67188 2.0859 0.37891 2.9297-0.12109 2.5625 1.207 2.1875 0.25 4.7148-0.40234 1.8828-0.82812 1.4102-0.65234 1.2617 0.97656 1.1211 2.1641 1.2617 0.83203 2.0586 0.28906 1.1914 0.35938 0.60156 1.25 0.23438 2.6523-0.66016 1.9297-0.16406 1.8711-0.54688 1.2148-0.19922 1.3281 0.42969 1.0195 1.293 0.94922 0.57031 1.0234-2.1641 2.625 0.30078 1.332 0.875 0.82812 1.1836 0.69141 1.4375 0.57422 1.6953 0.29297 1.9688 0.88281 2.7656 0.26953 3.1133-0.25391 0.52734 1.625 0.39453 1.7773 0.52734 1.7539 0.34375 1.9727-0.22266 1.7969 0.25 1.9453-0.82422 1.5469-1.0391 0.18359-3.6953-2.0117-1.0039-0.32812-1.7852-0.26953-2.1211 0.23828-1.7461 1.0117-1.0586 0.875-3.0938 3.4609-0.86719 1.8711-0.27344 1.6328-0.47656 1.2617 0.11719 2.6523 0.41016 1.2773 0.078125 1.4922-0.20703 1.5586-0.49609 1.7461-0.92188 1.3984-1.5625 3.1172-1.8516 2-1.1953 1.8945-0.46875 1.0781-0.24219 2.3516-1.1484 2.4375-1.0547 0.92969-1.2578 0.53125-0.67578 0.92578-0.32422 1.0625-0.53125 1.8477-0.83594 1.3086-1.2422 1.2656-0.85156 0.9375-0.50781 0.96875-1.0156 1.8945 0.22266 1.6602 0.16016 1.5977 0.14844 1.4375 0.050781 1.4023 0.21094 1.6914-0.64062 1.7539-0.29688 1.7773 0.50391 2.2148-0.29297 1.6172-0.65625 1.1289-0.58984 1.043-0.99219 1.0781-0.90625 1.0664-0.68359 2.9258-1.0938 1.4453-1.1641 0.29688-1.25 0.86719-1.7188 1.2031-1.2227 0.88281-1.3828 0.71484-1.3438 0.63281-1.3086 0.70312-1.1016 1.5117-1.6953-0.082032-1.0156-0.30469-1.5625-0.28125-1.0273-0.27344-1.1797-0.19141-1.0039-0.38672-1 0.14844-1.3242-0.44141-1.1641-1.043-0.98828-0.39453-1.1484-0.28516-0.20312-0.98828-0.91406-0.67188-1.2305 0.375-1.5391 0.046875-1.0508-0.60938-0.83203-0.75-0.27344-1.0195-1.0078-0.60156-1.1367-0.92578-1.0391-0.93359-1.1523-0.019531-1.1836-0.49609-0.29297-1.0859 0.085937-1.1328 0.36719-1.0625 0.097656-1.0508-1.0312 0.066406-0.91406-0.75391-1.1914 0.28516-0.80859-0.63281-1.125-0.042969-0.72656-0.81641 0.15234-1.2188 0.34766-1.375-0.60938-1.0781-0.29688-1.4609-0.42188-1.043-0.44922-0.97656-0.41797-1.0312 0.24219-1.0742-0.41797-1.0547-0.41406-0.92969-0.93359-0.76953-1.0703 0.45703-0.074218-1.3281 0.21484-1.1602-1.4375-1.7305-1.5508-1.0742-0.82422-0.71094-2.668-1.6719-3.3789-2.1445-2.332-1.1602-1.5586-0.89062-0.94531-0.80469-1.1328-0.57812-2.25-1.4219-4.1602-2.582-2.1484-1.1484-1.5352-0.6875-1.4102-0.69531-7.1562-3.8281-1.9922-1.168-2.3516-1.1562-1.0234-0.55859-1.5352-0.70312-1.8398-0.99609-2.8125-1.2969-3.6758-2.168-1.8203-0.875-0.83594-0.66016-1.0664-0.23438-1.3516-0.88672-2.082-0.9375-2.4062-1.1719-1.1211-0.73438-1.2266-0.625-2.3477-1.4336-2.8633-1.3984-4.3633-2.5312-1.5117-0.55469-1.5352-0.88281-2.6602-1.1836-2.0586-1.3438-1.1523-0.77344-1.1797-0.48828-1.4336-0.47266-1.3242-0.97656-1.8398-1.0586-0.91797-0.47656-2.1953-1.3594-1.125-0.59766-6.5898-3.3555-2.3516-1.2344-1.4297-0.83594-1.582-0.75-1.5352-0.61328-1.4297-0.85938-2.0977-1.0234-3.0117-1.7227-1.5859-0.67188-1.6016-0.88672-1.4062-0.99219-2.918-1.2227-2.0391-1.2695-1.793-0.86328-1.2188-0.82031-1.4844-0.77734-0.95703-0.64844-4.8008-1.9609-2.1914-1.457-1.5938-0.78516-1.1055-0.40234-1.043-0.55859-1.6562-0.62891-1.6016-0.97266-1.3438-0.27344-3.125-1.8438-1.3477-0.80469-3.1953-0.82812-1.7812-0.60938-1.0117-0.14062-2.3516 0.15234-2.2656 0.26953-1.0117 0.28906-1.0859 0.73438-0.51562 1.125-0.64453 0.91016-0.33594 1.0781 0.34375 1.5547 0.26562 1.1055-0.15234 1.0938-0.14453 1.1445-0.99219 0.77344-0.73828 0.82812-0.49609 1.1641-1.1602 0.46484-1.0352 0.050781-1.1797 0.25-1.0703 0.39453-1.2109-0.52734-0.91016-0.5625-0.88672-0.59766-1.0195 0.41797-0.5 0.97656-0.46484 0.92578-0.99609-0.45703-1.0273-0.24609 0.33203-0.96875 0.90234-0.76953-0.82812-0.93359 0.56641-0.92188 0.26953-1.4883 0.89062-0.78125 0.99609-0.75391 0.66406-0.77734 1.1172-0.44922 0.57031-0.82031 0.83594-0.68359 0.34375-0.99609 0.60938-0.92188 1.0391-0.87109 0.91797-1.2461-1-0.45703 0.47656-1.0391-0.16797-1.1523-0.99609-0.51562-0.49609-0.92578 0.078125-1.2305 0.20703-1.168 0.17188-1.1641 0.62109-0.96875 0.81641-0.59766 0.61328-0.94922 0.99219-0.62891 0.77344-1.0508-0.046875-1.9648 0.97656-0.86328 1.0078-0.45703 0.97266 0.48438 1.0469-0.14453 0.73828-0.83203 0.089844-1.1523 0.41406-1.4531 0.83594-0.82422-0.23047-0.98828 0.73438-1.4727 0.32031-1.3086 0.875-0.66406 1.0547-0.10938-0.55078-0.92578-0.23047-0.99219-0.32422-0.95312 0.58594-0.87109 0.85156-0.55078 1.0273-0.12109 0.83203-0.57422 0.066406-1.0898 0.92188-0.72266 1.0117-0.47656 0.65234-0.76172 0.91797-0.60938 0.61328-0.89062 0.53516-0.86719 0.074219-1.1484-3.0898-1.4844 1.9023 0.46484 1.5586 0.42578 0.019531-1.0117 0.54297-0.86719 0.25-0.97266 0.60938-0.98047-3.0703 0.027344 2.332-0.64844 0.83594-0.60938 0.93359 0.48047 1-0.33594 0.72656-0.78125 0.85547-0.80859 0.38281-0.96875 0.25-1.0352-0.54297-0.91406 0.98828-0.52734 0.5625-0.88281-0.32031-1.0352-0.54297-0.86328-0.76172-0.66016 0.15625-1.0898 0.34375-1.043-0.45312-0.91406-0.30469-1.0547 0.34375-1.043-0.64453-0.78516-0.73828-0.76953-0.76562 0.71484 0.042969-1.0195 1.0312-0.070312 0.79297-0.77344 0.78516-0.62109 0.29297-1.5977 0.16406-1.0273z" fill="#ccc" fill-rule="evenodd"/>
<path d="m127.45 316.75 0.41016 0.09375 1 0.53906 1.1719 0.1875 1.1094 0.53125 1.0273 0.65234 1.3086-0.12891 2.3086-0.085938 2.1016 0.03125 1.0195-0.29688 1.043-0.36719 1.2891 0.078125 1.6523 0.32422 1.332-0.14453 1.918 0.375 3.7891 3.2969 2.6484 1.2109 2.7578 2.2188 1.4258 0.76172 3.75 2.6484 2.6289 0.59375 1.6328 0.89453 1.5039 0.36719 3.8359 1.9336 4.8008 1.9609 1.9453 1.3008 4.3242 3.5977 4.5547 2.3164 3.6758 1.0664 0.40234 1.2734-0.36328 4.1602 0.1875 5.8203 2.2891 2.3555 2.3516 1.0508 3.7148 0.74219 3.4062-0.12109 3.7148 0.55469 4.5195 0.78906 2.8516 0.88281 4.2109 0.74609h2.9102l2.2891-0.92969 1.2383-1.1758 0.98828-0.23438 2.543 0.48047 2.1055 0.24609 3.3438-2.2266 3.2812-1.5469 2.9727-0.0625 3.9609 0.80469 2.7852-0.62109 3.5977-1.332 1.2188-0.36328 1.9531-0.64844 2.0352-0.3125h2.2031l1.4062 0.17969 1.5156-0.14453h2.4922l1.1758 0.023437 2.2539 0.33984 1.5195 0.79297 4.1836-0.050782 1.1172 0.23828 3.0234 2.25 0.95312 0.70312 2.0117 2.3594 2.0391 1.1953 2.7539 0.83984 2.4336-0.28906 1.125-0.49219 1.25-0.58203 1.3711-0.13672 1.4102 0.14062 1.9141 0.87891 1.8398 1.4805 2.9531 3.0352 2.3828 1.4688 0.82812 0.75781 0.23828 1.5234-0.74609 0.98438-0.67969 3.5312 0.54297 2.2188 1.1914 1.3516 4.2383-0.76953 3.4492-0.070312 1.9961 0.67188 2.0859 0.37891 2.9297-0.12109 2.5625 1.207 2.1875 0.25 4.7148-0.40234 1.8828-0.82812 1.4102-0.65234 1.2617 0.97656 1.1211 2.1641 1.2617 0.83203 2.0586 0.28906 1.1914 0.35938 0.60156 1.25 0.23438 2.6523-0.66016 1.9297-0.16406 1.8711-0.54688 1.2148-0.19922 1.3281 0.42969 1.0195 1.293 0.94922 0.57031 1.0234-2.1641 2.625 0.30078 1.332 0.875 0.82812 1.1836 0.69141 1.4375 0.57422 1.6953 0.29297 1.9688 0.88281 2.7656 0.26953 3.1133-0.25391 0.52734 1.625 0.39453 1.7773 0.52734 1.7539 0.34375 1.9727-0.22266 1.7969 0.25 1.9453-0.82422 1.5469-1.0391 0.18359-3.6953-2.0117-1.0039-0.32812-1.7852-0.26953-2.1211 0.23828-1.7461 1.0117-1.0586 0.875-3.0938 3.4609-0.86719 1.8711-0.27344 1.6328-0.47656 1.2617 0.11719 2.6523 0.41016 1.2773 0.078125 1.4922-0.20703 1.5586-0.49609 1.7461-0.92188 1.3984-1.5625 3.1172-1.8516 2-1.1953 1.8945-0.46875 1.0781-0.24219 2.3516-1.1484 2.4375-1.0547 0.92969-1.2578 0.53125-0.67578 0.92578-0.32422 1.0625-0.53125 1.8477-0.83594 1.3086-1.2422 1.2656-0.85156 0.9375-0.50781 0.96875-1.0156 1.8945 0.22266 1.6602 0.16016 1.5977 0.14844 1.4375 0.050781 1.4023 0.21094 1.6914-0.64062 1.7539-0.29688 1.7773 0.50391 2.2148-0.29297 1.6172-0.65625 1.1289-0.58984 1.043-0.99219 1.0781-0.90625 1.0664-0.68359 2.9258-1.0938 1.4453-1.1641 0.29688-1.25 0.86719-1.7188 1.2031-1.2227 0.88281-1.3828 0.71484-1.3438 0.63281-1.3086 0.70312-1.1016 1.5117-1.6953-0.082032-1.0156-0.30469-1.5625-0.28125-1.0273-0.27344-1.1797-0.19141-1.0039-0.38672-1 0.14844-1.3242-0.44141-1.1641-1.043-0.98828-0.39453-1.1484-0.28516-0.20312-0.98828-0.91406-0.67188-1.2305 0.375-1.5391 0.046875-1.0508-0.60938-0.83203-0.75-0.27344-1.0195-1.0078-0.60156-1.1367-0.92578-1.0391-0.93359-1.1523-0.019531-1.1836-0.49609-0.29297-1.0859 0.085937-1.1328 0.36719-1.0625 0.097656-1.0508-1.0312 0.066406-0.91406-0.75391-1.1914 0.28516-0.80859-0.63281-1.125-0.042969-0.72656-0.81641 0.15234-1.2188 0.34766-1.375-0.60938-1.0781-0.29688-1.4609-0.42188-1.043-0.44922-0.97656-0.41797-1.0312 0.24219-1.0742-0.41797-1.0547-0.41406-0.92969-0.93359-0.76953-1.0703 0.45703-0.074218-1.3281 0.21484-1.1602-1.4375-1.7305-1.5508-1.0742-0.82422-0.71094-2.668-1.6719-3.3789-2.1445-2.332-1.1602-1.5586-0.89062-0.94531-0.80469-1.1328-0.57812-2.25-1.4219-4.1602-2.582-2.1484-1.1484-1.5352-0.6875-1.4102-0.69531-7.1562-3.8281-1.9922-1.168-2.3516-1.1562-1.0234-0.55859-1.5352-0.70312-1.8398-0.99609-2.8125-1.2969-3.6758-2.168-1.8203-0.875-0.83594-0.66016-1.0664-0.23438-1.3516-0.88672-2.082-0.9375-2.4062-1.1719-1.1211-0.73438-1.2266-0.625-2.3477-1.4336-2.8633-1.3984-4.3633-2.5312-1.5117-0.55469-1.5352-0.88281-2.6602-1.1836-2.0586-1.3438-1.1523-0.77344-1.1797-0.48828-1.4336-0.47266-1.3242-0.97656-1.8398-1.0586-0.91797-0.47656-2.1953-1.3594-1.125-0.59766-6.5898-3.3555-2.3516-1.2344-1.4297-0.83594-1.582-0.75-1.5352-0.61328-1.4297-0.85938-2.0977-1.0234-3.0117-1.7227-1.5859-0.67188-1.6016-0.88672-1.4062-0.99219-2.918-1.2227-2.0391-1.2695-1.793-0.86328-1.2188-0.82031-1.4844-0.77734-0.95703-0.64844-4.8008-1.9609-2.1914-1.457-1.5938-0.78516-1.1055-0.40234-1.043-0.55859-1.6562-0.62891-1.6016-0.97266-1.3438-0.27344-3.125-1.8438-1.3477-0.80469-3.1953-0.82812-1.7812-0.60938-1.0117-0.14062-2.3516 0.15234-2.2656 0.26953-1.0117 0.28906-1.0859 0.73438-0.51562 1.125-0.64453 0.91016-0.33594 1.0781 0.34375 1.5547 0.26562 1.1055-0.15234 1.0938-0.14453 1.1445-0.99219 0.77344-0.73828 0.82812-0.49609 1.1641-1.1602 0.46484-1.0352 0.050781-1.1797 0.25-1.0703 0.39453-1.2109-0.52734-0.91016-0.5625-0.88672-0.59766-1.0195 0.41797-0.5 0.97656-0.46484 0.92578-0.99609-0.45703-1.0273-0.24609 0.33203-0.96875 0.90234-0.76953-0.82812-0.93359 0.56641-0.92188 0.26953-1.4883 0.89062-0.78125 0.99609-0.75391 0.66406-0.77734 1.1172-0.44922 0.57031-0.82031 0.83594-0.68359 0.34375-0.99609 0.60938-0.92188 1.0391-0.87109 0.91797-1.2461-1-0.45703 0.47656-1.0391-0.16797-1.1523-0.99609-0.51562-0.49609-0.92578 0.078125-1.2305 0.20703-1.168 0.17188-1.1641 0.62109-0.96875 0.81641-0.59766 0.61328-0.94922 0.99219-0.62891 0.77344-1.0508-0.046875-1.9648 0.97656-0.86328 1.0078-0.45703 0.97266 0.48438 1.0469-0.14453 0.73828-0.83203 0.089844-1.1523 0.41406-1.4531 0.83594-0.82422-0.23047-0.98828 0.73438-1.4727 0.32031-1.3086 0.875-0.66406 1.0547-0.10938-0.55078-0.92578-0.23047-0.99219-0.32422-0.95312 0.58594-0.87109 0.85156-0.55078 1.0273-0.12109 0.83203-0.57422 0.066406-1.0898 0.92188-0.72266 1.0117-0.47656 0.65234-0.76172 0.91797-0.60938 0.61328-0.89062 0.53516-0.86719 0.074219-1.1484-3.0898-1.4844 1.9023 0.46484 1.5586 0.42578 0.019531-1.0117 0.54297-0.86719 0.25-0.97266 0.60938-0.98047-3.0703 0.027344 2.332-0.64844 0.83594-0.60938 0.93359 0.48047 1-0.33594 0.72656-0.78125 0.85547-0.80859 0.38281-0.96875 0.25-1.0352-0.54297-0.91406 0.98828-0.52734 0.5625-0.88281-0.32031-1.0352-0.54297-0.86328-0.76172-0.66016 0.15625-1.0898 0.34375-1.043-0.45312-0.91406-0.30469-1.0547 0.34375-1.043-0.64453-0.78516-0.73828-0.76953-0.76562 0.71484 0.042969-1.0195 1.0312-0.070312 0.79297-0.77344 0.78516-0.62109 0.29297-1.5977 0.16406-1.0273 0.38672 0.023438" fill="none" stroke="#fff" stroke-linecap="round" stroke-linejoin="round" stroke-miterlimit="10" stroke-width="2"/>
<path d="m185.31 150.93 2.1992 1.1758 2.9414 2.6172 2.332 1.7148 2.2656 3.0781 1.2148 1.168 1.6289 1.1797 1.75 0.68359 2.6094-0.10547 5.7109-1.0156 1.957-0.16797 1.6523-0.31641 3.1133-1.1953 7.2383-1.9688 6.8438-0.58984 6.293 0.16406 1.6641 0.41797 2.3281 1.2969 5.5859 4.7305 2.3398 2.207 2.082 1.3945 1.4492 0.71875 1.1445 0.09375 6.2891 0.48047 3.1641 0.66797 0.98047 0.30078 3.7305 1.1016 2.8359 1.7109 2.5859 0.96875 4.5-0.023437 3.0938 0.53906 1.8633 0.035156 2.4531-0.22266 1.7305-0.50391 0.96875-0.70312 0.875-1.1445 0.74219-1.7539 2.1289-3.6445 0.51953-1.8047 0.98438-1.918 1.3008-1.9102 1.0703-0.71484 1.7188-0.53125 2.8633 0.98828 1.1797 1.7305 1.2188 3.3398 0.74609 2.3984 1.5352 2.3984 1.2969 2.75 1.7266 2.7891 1.9648 1.8086 1.1016 1.8477 1.2578 0.55078 1.1016 0.98047 1.293 0.43359 0.58984 1.1016 1.3398 1.9648 1.6484 1.7695 2.2812 1.9258 1.1406 1.8047 1.0742 1.9609 1.7695 0.41797 0.94922 0.57422 1.0859-0.35938 1.1289-0.17188 1.1094-0.42578 1.8125 0.19531 2 0.83594 1.3281 0.50781 1.1172 0.26172 1.1133 0.70312 1.2891 0.60547 1.5664 0.48047 1.1289 0.46875 0.92188 1.0352 1.6523 1.043 1.3398 0.68359 1.25 0.4375 1.0781 0.21484 1.0742-0.39062 2.2383-0.47656 1.3164-0.015625 2.7266 0.44531 2.4062 1.5 2.4531 2.2422 0.20312 18.16 0.71484 13.676 1.9258 1.8867 1.8984 0.78125 1.9531 1.418 1.8047 1.6133 1.8398 1.6328 4.2148 3.1992 4.5977 3.5 0.65234 0.81641 1.8633 1.8164 3.4961 3.2227 3.1367 3.8047 2.6172 2.4961 1.4102 2.3008 0.63281 2.582 0.90234 5.9805 1.1055 10.227 1.3047 2.7852 0.31641 2.0547 1.8203 2.9414 3.0273 4.3633 2.3164 3.0273 1.375 0.98047 1.1406 0.86719 1.0469 0.039063 1.7734 0.875 2.4883 2.3477 10.973 11.297 3.5859 3.2969 1.7539 1.0117 1.5156 0.60547 11.211 2.6133 2.8984 0.85156 17.078 4.1719 8.4805 1.0312 3.2227 1.2578 3.1055 1.1367 4.3203 2.0859 2.3203 2.3555 1.1445 3.043 1.8047 1.2031 3.0234 1.6094 5.0312 1.5352 4.0078-0.70703 2.0469-0.75 2.9453-0.45703-1.0547 3.2852-0.16406 1.1523-0.23828 1.0703-0.011719 1.4805 0.66016 1.2812 0.48438 0.875 0.62891 1.1016 0.24609 1.3828-1.1016 1.832-0.93359 1.3828-0.38281 1.5391 0.64062 1.8047-0.4375 3.5469-0.10938 1.1289-0.26562 1.1992-0.050781 1.0938-0.12891 1.0352-0.23047 2.0078-0.32422 1.6094-0.56641 1.6992-0.63281 2.0117-0.87109 1.0586-1.1445 0.015625-1.6875 0.28516-1.5703-0.11328-1.7969 0.027344-3.6836-0.050781-1.5664 0.09375-1.043 0.015625-1.2891-0.17969-1.1055-0.078125-1.2031-0.39062-3.1641-1.2578-1-0.21484-1.668-0.76953-1.0195-0.69922-2.0781-1.0938-1.6328-1.0117-0.90625-0.57031-1.6836-0.58984-2.0664-0.96875-1.25-0.64062-1.1133-0.625-0.82031-0.59766-1.0938-0.33984-1.0078-0.25-1.6172 0.17969-1.7852-0.027343-1.1289-0.074219-1.7617-0.085938-1.875 0.51953-1.1016 1.207-1.8125 1.3516-1.8867 1.1406-1.4922 0.28125-2.0273 0.21484-1.7773 0.92578-2.7383 1.2969-1.9805 0.48047-1.6367-0.74219-2.582-2.8242-1.3594-1.0195-1.5117-0.25-1.3203 0.12891-3.3633 1.4375-1.8594 0.57031-3.6289 1.9062-0.68359 1.168-0.37891 1.2852-0.097656 3.8594-0.37109 1.2969-2.3633 2.5039-1.2773 2.9023-0.63672 0.99219-1.9141 1.8516-1.2266 0.77344-0.91797 2.1016-0.84375 1.1641-0.64453 1.5352-1.375 0.57031-1.6953-0.55859-0.95312-0.75391-2.543-2.6562-0.95703-0.47266-1.2695-0.3125-1.4414 0.72656-1.5703 1.3828-3.1328 2.2812-1.4414 0.55469-2.0195-0.45312-1.4453-0.30469-5.3555-0.59375-2.7969 0.64062-1.5156 1.1992-2.1602 2.3945-1.9141 2.6367-1.7188 1.6758-2.2344 0.48047-2.3359-0.81641-1.8477-1.0625-4.3047-1.7812-2.5742-0.51562-4.8242 1.2344-2.625 1.2734-0.98047 0.71875-0.55859 0.98047-0.35156 1.3906-2.875 1.0898-2.7656-0.26953-1.6094-0.57422-2.0547-0.60156-1.4375-0.57422-1.1836-0.69141-0.875-0.82812-0.30078-1.332 1.8906-1.9648-0.29688-1.6836-1.293-0.94922-0.42969-1.0195 0.19922-1.3281 0.54688-1.2148 0.16406-1.8711 0.66016-1.9297-0.23438-2.6523-0.60156-1.25-1.1914-0.35938-2.0586-0.28906-1.2617-0.83203-1.1211-2.1641-1.2617-0.97656-1.4102 0.65234-1.1016 0.48438-5.4961 0.74609-2.1875-0.25-2.5625-1.207-2.043-0.089843-2.9727-0.16797-1.9961-0.67188-3.4492 0.070312-3.5703 0.83594-1.4688-0.73047-0.93359-2.9062 0.67969-3.5312 0.74609-0.98438-0.23828-1.5234-0.82812-0.75781-2.3828-1.4688-2.9531-3.0352-1.8398-1.4805-1.9141-0.87891-1.4102-0.14062-1.3711 0.13672-1.25 0.58203-1.125 0.49219-2.4336 0.28906-2.7539-0.83984-1.8789-1.1016-2.1719-2.4531-0.95312-0.70312-2.2656-1.7148-1.875-0.77344-4.1836 0.050782-1.5195-0.79297-1.4062-0.32422-1.6445-0.03125-2.8711-0.007812-1.5156 0.14453-1.4062-0.17969h-2.2031l-2.0352 0.3125-1.9531 0.64844-1.2188 0.36328-3.5977 1.332-2.7852 0.62109-3.9609-0.80469-2.9727 0.0625-3.2812 1.5469-3.3438 2.2266-2.1055-0.24609-1.8242-0.64844-1.707 0.40234-1.2383 1.1758-2.2891 0.92969h-2.9102l-4.2109-0.74609-2.8516-0.88281-4.5195-0.78906-3.7148-0.55469-3.4062 0.12109-3.7148-0.74219-2.3516-1.0508-2.2891-2.3555-0.1875-5.8203 0.375-4.1133-0.41406-1.3203-3.6758-1.0664-4.0117-1.918-4.8672-3.9961-1.9453-1.3008-4.8008-1.9609-3.8359-1.9336-1.5039-0.36719-1.6328-0.89453-2.6289-0.59375-3.75-2.6484-1.4258-0.76172-2.7578-2.2188-2.6484-1.2109-3.7891-3.2969-1.1484-0.61719-0.12891-1.1836 0.80078-1.8398 1.2461-1.6758 5.3828-4.1328 2.0625-1.4141 3.793-2.0195 2.1406-1.8281 2.0625-3.0625 0.078125-2.3906 0.54297-0.875 2.0391-0.26953 0.92969-0.41797 4.1797-1.7734 1.375-0.33594 2.6328-1 1.5625-1.0156 1.1992-0.36719 1.8008-0.16016 4.0195-4.5273 1.0703-0.73438 1.3398-0.30469 0.90625-1.2812 0.21094-1.4727 0.91797-0.52344 2.2891-0.59766 1.5547-0.88672 0.26562-2.3359 1.4453-4.0742 0.97266-1.9453 0.12109-3.0391v-1.8867l0.60938-1.7031 0.54688-2.6133 1.3359-4.8008 1.0352-3.4648 0.85156-4.5586 0.48438-1.8867-0.40234-1.2539-1.4492-1.9844-0.87109-1.8086 0.44141-1.0781 1.5273-0.83984 0.65234-1.2344-0.76562-1.0156-2.3906-3.1641 0.078125-3.1211-1.2148-2.7344 0.039063-2.6055-1.5195-2.2227 0.80469-2.0078 0.41016-1.918 0.3125-1.6758-1.5586-1.375-1.3828-2.4336-1-2.7695-3.6641-3.5469-2.2852-1.5273-4.1719-2.3047-1.6641-0.38281-2.3672 0.027344-1.5781-0.12109-0.98828-0.41406-0.66016-1.4883-0.41406-2.5234-0.25781-6.1562-0.94141-6-0.45312-3.0859-1.7383-1.0469-2.1094-0.37109-2.5195-0.70312-2.8398-0.91406-3.2031-2.0078-2.7852-2.543-1.2461-1.6641-1.2344-2.5781-0.26953-2.332 0.27344-2.5078 1.5859-1.8281 1.1602-1.5703 2.9766-0.62109 4.1328-1.6953 5.6523-3.4648 3.0469-2.6289 2.4414-1.5977 1.9219-1.7109 3.0664-2.2422 2.1797-1.2773 2.0234-0.58594z" fill="#ccc" fill-rule="evenodd"/>
<path d="m185.31 150.93 2.1992 1.1758 2.9414 2.6172 2.332 1.7148 2.2656 3.0781 1.2148 1.168 1.6289 1.1797 1.75 0.68359 2.6094-0.10547 5.7109-1.0156 1.957-0.16797 1.6523-0.31641 3.1133-1.1953 7.2383-1.9688 6.8438-0.58984 6.293 0.16406 1.6641 0.41797 2.3281 1.2969 5.5859 4.7305 2.3398 2.207 2.082 1.3945 1.4492 0.71875 1.1445 0.09375 6.2891 0.48047 3.1641 0.66797 0.98047 0.30078 3.7305 1.1016 2.8359 1.7109 2.5859 0.96875 4.5-0.023437 3.0938 0.53906 1.8633 0.035156 2.4531-0.22266 1.7305-0.50391 0.96875-0.70312 0.875-1.1445 0.74219-1.7539 2.1289-3.6445 0.51953-1.8047 0.98438-1.918 1.3008-1.9102 1.0703-0.71484 1.7188-0.53125 2.8633 0.98828 1.1797 1.7305 1.2188 3.3398 0.74609 2.3984 1.5352 2.3984 1.2969 2.75 1.7266 2.7891 1.9648 1.8086 1.1016 1.8477 1.2578 0.55078 1.1016 0.98047 1.293 0.43359 0.58984 1.1016 1.3398 1.9648 1.6484 1.7695 2.2812 1.9258 1.1406 1.8047 1.0742 1.9609 1.7695 0.41797 0.94922 0.57422 1.0859-0.35938 1.1289-0.17188 1.1094-0.42578 1.8125 0.19531 2 0.83594 1.3281 0.50781 1.1172 0.26172 1.1133 0.70312 1.2891 0.60547 1.5664 0.48047 1.1289 0.46875 0.92188 1.0352 1.6523 1.043 1.3398 0.68359 1.25 0.4375 1.0781 0.21484 1.0742-0.39062 2.2383-0.47656 1.3164-0.015625 2.7266 0.44531 2.4062 1.5 2.4531 2.2422 0.20312 18.16 0.71484 13.676 1.9258 1.8867 1.8984 0.78125 1.9531 1.418 1.8047 1.6133 1.8398 1.6328 4.2148 3.1992 4.5977 3.5 0.65234 0.81641 1.8633 1.8164 3.4961 3.2227 3.1367 3.8047 2.6172 2.4961 1.4102 2.3008 0.63281 2.582 0.90234 5.9805 1.1055 10.227 1.3047 2.7852 0.31641 2.0547 1.8203 2.9414 3.0273 4.3633 2.3164 3.0273 1.375 0.98047 1.1406 0.86719 1.0469 0.039063 1.7734 0.875 2.4883 2.3477 10.973 11.297 3.5859 3.2969 1.7539 1.0117 1.5156 0.60547 11.211 2.6133 2.8984 0.85156 17.078 4.1719 8.4805 1.0312 3.2227 1.2578 3.1055 1.1367 4.3203 2.0859 2.3203 2.3555 1.1445 3.043 1.8047 1.2031 3.0234 1.6094 5.0312 1.5352 4.0078-0.70703 2.0469-0.75 2.9453-0.45703-1.0547 3.2852-0.16406 1.1523-0.23828 1.0703-0.011719 1.4805 0.66016 1.2812 0.48438 0.875 0.62891 1.1016 0.24609 1.3828-1.1016 1.832-0.93359 1.3828-0.38281 1.5391 0.64062 1.8047-0.4375 3.5469-0.10938 1.1289-0.26562 1.1992-0.050781 1.0938-0.12891 1.0352-0.23047 2.0078-0.32422 1.6094-0.56641 1.6992-0.63281 2.0117-0.87109 1.0586-1.1445 0.015625-1.6875 0.28516-1.5703-0.11328-1.7969 0.027344-3.6836-0.050781-1.5664 0.09375-1.043 0.015625-1.2891-0.17969-1.1055-0.078125-1.2031-0.39062-3.1641-1.2578-1-0.21484-1.668-0.76953-1.0195-0.69922-2.0781-1.0938-1.6328-1.0117-0.90625-0.57031-1.6836-0.58984-2.0664-0.96875-1.25-0.64062-1.1133-0.625-0.82031-0.59766-1.0938-0.33984-1.0078-0.25-1.6172 0.17969-1.7852-0.027343-1.1289-0.074219-1.7617-0.085938-1.875 0.51953-1.1016 1.207-1.8125 1.3516-1.8867 1.1406-1.4922 0.28125-2.0273 0.21484-1.7773 0.92578-2.7383 1.2969-1.9805 0.48047-1.6367-0.74219-2.582-2.8242-1.3594-1.0195-1.5117-0.25-1.3203 0.12891-3.3633 1.4375-1.8594 0.57031-3.6289 1.9062-0.68359 1.168-0.37891 1.2852-0.097656 3.8594-0.37109 1.2969-2.3633 2.5039-1.2773 2.9023-0.63672 0.99219-1.9141 1.8516-1.2266 0.77344-0.91797 2.1016-0.84375 1.1641-0.64453 1.5352-1.375 0.57031-1.6953-0.55859-0.95312-0.75391-2.543-2.6562-0.95703-0.47266-1.2695-0.3125-1.4414 0.72656-1.5703 1.3828-3.1328 2.2812-1.4414 0.55469-2.0195-0.45312-1.4453-0.30469-5.3555-0.59375-2.7969 0.64062-1.5156 1.1992-2.1602 2.3945-1.9141 2.6367-1.7188 1.6758-2.2344 0.48047-2.3359-0.81641-1.8477-1.0625-4.3047-1.7812-2.5742-0.51562-4.8242 1.2344-2.625 1.2734-0.98047 0.71875-0.55859 0.98047-0.35156 1.3906-2.875 1.0898-2.7656-0.26953-1.6094-0.57422-2.0547-0.60156-1.4375-0.57422-1.1836-0.69141-0.875-0.82812-0.30078-1.332 1.8906-1.9648-0.29688-1.6836-1.293-0.94922-0.42969-1.0195 0.19922-1.3281 0.54688-1.2148 0.16406-1.8711 0.66016-1.9297-0.23438-2.6523-0.60156-1.25-1.1914-0.35938-2.0586-0.28906-1.2617-0.83203-1.1211-2.1641-1.2617-0.97656-1.4102 0.65234-1.1016 0.48438-5.4961 0.74609-2.1875-0.25-2.5625-1.207-2.043-0.089843-2.9727-0.16797-1.9961-0.67188-3.4492 0.070312-3.5703 0.83594-1.4688-0.73047-0.93359-2.9062 0.67969-3.5312 0.74609-0.98438-0.23828-1.5234-0.82812-0.75781-2.3828-1.4688-2.9531-3.0352-1.8398-1.4805-1.9141-0.87891-1.4102-0.14062-1.3711 0.13672-1.25 0.58203-1.125 0.49219-2.4336 0.28906-2.7539-0.83984-1.8789-1.1016-2.1719-2.4531-0.95312-0.70312-2.2656-1.7148-1.875-0.77344-4.1836 0.050782-1.5195-0.79297-1.4062-0.32422-1.6445-0.03125-2.8711-0.007812-1.5156 0.14453-1.4062-0.17969h-2.2031l-2.0352 0.3125-1.9531 0.64844-1.2188 0.36328-3.5977 1.332-2.7852 0.62109-3.9609-0.80469-2.9727 0.0625-3.2812 1.5469-3.3438 2.2266-2.1055-0.24609-1.8242-0.64844-1.707 0.40234-1.2383 1.1758-2.2891 0.92969h-2.9102l-4.2109-0.74609-2.8516-0.88281-4.5195-0.78906-3.7148-0.55469-3.4062 0.12109-3.7148-0.74219-2.3516-1.0508-2.2891-2.3555-0.1875-5.8203 0.375-4.1133-0.41406-1.3203-3.6758-1.0664-4.0117-1.918-4.8672-3.9961-1.9453-1.3008-4.8008-1.9609-3.8359-1.9336-1.5039-0.36719-1.6328-0.89453-2.6289-0.59375-3.75-2.6484-1.4258-0.76172-2.7578-2.2188-2.6484-1.2109-3.7891-3.2969-1.1484-0.61719-0.12891-1.1836 0.80078-1.8398 1.2461-1.6758 5.3828-4.1328 2.0625-1.4141 3.793-2.0195 2.1406-1.8281 2.0625-3.0625 0.078125-2.3906 0.54297-0.875 2.0391-0.26953 0.92969-0.41797 4.1797-1.7734 1.375-0.33594 2.6328-1 1.5625-1.0156 1.1992-0.36719 1.8008-0.16016 4.0195-4.5273 1.0703-0.73438 1.3398-0.30469 0.90625-1.2812 0.21094-1.4727 0.91797-0.52344 2.2891-0.59766 1.5547-0.88672 0.26562-2.3359 1.4453-4.0742 0.97266-1.9453 0.12109-3.0391v-1.8867l0.60938-1.7031 0.54688-2.6133 1.3359-4.8008 1.0352-3.4648 0.85156-4.5586 0.48438-1.8867-0.40234-1.2539-1.4492-1.9844-0.87109-1.8086 0.44141-1.0781 1.5273-0.83984 0.65234-1.2344-0.76562-1.0156-2.3906-3.1641 0.078125-3.1211-1.2148-2.7344 0.039063-2.6055-1.5195-2.2227 0.80469-2.0078 0.41016-1.918 0.3125-1.6758-1.5586-1.375-1.3828-2.4336-1-2.7695-3.6641-3.5469-2.2852-1.5273-4.1719-2.3047-1.6641-0.38281-2.3672 0.027344-1.5781-0.12109-0.98828-0.41406-0.66016-1.4883-0.41406-2.5234-0.25781-6.1562-0.94141-6-0.45312-3.0859-1.7383-1.0469-2.1094-0.37109-2.5195-0.70312-2.8398-0.91406-3.2031-2.0078-2.7852-2.543-1.2461-1.6641-1.2344-2.5781-0.26953-2.332 0.27344-2.5078 1.5859-1.8281 1.1602-1.5703 2.9766-0.62109 4.1328-1.6953 5.6523-3.4648 3.0469-2.6289 2.4414-1.5977 1.9219-1.7109 3.0664-2.2422 2.1797-1.2773 2.0234-0.58594 1.8633 0.0625" fill="none" stroke="#fff" stroke-linecap="round" stroke-linejoin="round" stroke-miterlimit="10" stroke-width="2"/>
<path d="m42.855 1.0039 1.7695 0.98047 1.3086 1.5469 0.95312 2.5938 1.3555 1.5938 1.3789 0.92969 1.2539 0.51953 5.2695 0.61719 6.0469-0.12109 7.6719 0.12891 5.8672 0.39453 4.9141 0.75781 3.4258 0.16406 3.3594 0.35547 1.6836 0.25391 0.99219 0.625-0.45703 1.3359-1.3516 2.3477-2.8672 3.4375-2.5938 2.5195-1.2852 0.96875-1.5781 0.77734-1.3867 0.96875-0.67969 1.25 0.66406 2.2266 0.84375 3.0312 0.79688 2.418 0.61719 5.5 0.33203 4.4258 0.28516 1.3164 0.046875 1.2031 0.53516 0.91016 2.2812 1.4102 1.2344 1.0312 1.7539 1.5938 1.6523 1.0273 3.8711 0.97656 1.8203 0.45312 1.6523 0.41406 1.6133 0.125 1.8633-0.57812 1.5273-0.62109 1.6953-0.16797 2.3125 0.67969 1.2188 1.1602 0.42188 1.8359-0.56641 1.6406-3.6758 4.0703-0.96875 1.7656-0.76562 1.2969-0.53906 1.5703-0.78516 2.5625-0.25 2.6289-0.45312 1.0938-0.41406 1.1172v1.0312l-0.66016 5.625-0.20703 4.2188 0.20703 1.1133 2.4805 2.4414 2.2305 2.5625 2.9375 3.1445 2.1094 3.0156 6.8086 5.4766 7.5742 4.8945 0.51562 2.6484 0.33203 2.2227 0.77734 2.9766 1.2305 2.3047 1.4766 1.6797 1.207 0.16016 2.4844-0.49219 1.5977-1.0859 1.0977-0.31641 2.3984-1.3516 1.9844-0.46875 1.0312 0.042968 1.8633 1.0391 1.1641 0.71875 1.7031 0.5625 2.6211 1.9062 0.67188 0.76953-0.66406 1.6602-2.2344 0.25-2.6055-0.042968-1.2422 0.16016-1.0703 0.54297-1.0781 1.4883-0.37109 1.0742 0.53906 1.4062 3.6445 4.125 1.4922 2.7773 4.6016 5 2.6055 5.4219 0.37891 1.6953 0.57031 1.3398 0.75 3.2266 1.0234 2.8477 1.2852 6.0234-0.17188 1.6719-0.41016 5.9688 0.050782 2.543-0.27344 2.5078 0.26953 2.332 1.2344 2.5781 1.2461 1.6641 2.7852 2.543 2.582 1.8008 3.4609 1.1211 2.5195 0.70312 2.1094 0.37109 1.2812 0.70312 0.91016 3.4297 0.94141 6 0.25781 6.1562 0.41406 2.5234 0.66016 1.4883 0.98828 0.41406 1.5781 0.12109 2.3672-0.027344 1.6641 0.38281 4.1719 2.3047 2.2852 1.5273 3.6641 3.5469 1 2.7695 1.1875 1.5898 1.7539 2.2188-0.019531 1.1094-0.70312 2.4844-0.74609 1.1406 1.4609 3.0898-0.039063 2.6055 1.2148 2.7344-0.21094 2.2109 2.5234 4.0742 0.76562 1.0156-0.65234 1.2344-1.1133 0.46094-0.78125 0.90234 0.79688 2.3633 1.4492 1.9844 0.40234 1.2539-0.48438 1.8867-0.85156 4.5586-1.0352 3.4648-1.3359 4.8008-0.54688 2.6133-0.60938 1.7031v1.5352l-0.12109 3.3906-0.97266 1.9453-1.4453 4.0742 0.09375 1.7227-1.9141 1.5-2.2891 0.59766-0.91797 0.52344-0.21094 1.4727-0.90625 1.2812-1.3398 0.30469-1.0703 0.73438-4.0195 4.5273-1.8008 0.16016-1.1992 0.36719-1.5625 1.0156-2.6328 1-1.375 0.33594-4.1797 1.7734-0.92969 0.41797-1.3047-0.070313-1.2773 1.2148 0.12891 1.7305-2.2695 3.7227-2.1406 1.8281-3.793 2.0195-2.0625 1.4141-5.3828 4.1328-1.2461 1.6758-0.67969 1.25 0.007812 1.7734-1.1953 0.38672-1.668-0.14453-2.1797-0.25781-1.043 0.36719-1.0195 0.29688-2.1016-0.03125-1.3672-0.12891-1.3594 0.34375-1.1133-0.12109-1.2461-1.0352-1.1992 0.050781-1.1055-0.60156-1.332-0.32031-0.55859-0.89844-0.64062-1.0469-0.69531-0.94922 0.035156-1.0352 0.14062-1-0.14062-1.082 0.14844-1.2578-0.59766-0.94141-0.47266-1.043-0.69531-1.0312-0.63281-1.043-0.64062-1.125-0.61719-1.1328-0.78906-0.66797-0.51953-1.1172-0.61328-0.80078 0.09375-1.3164-1.0039-0.43359-0.76562-1.1953-0.78516-0.82812-0.25391-1.7422-0.67188-0.90625-0.47266-1.043-1.0234-1.4844-1.1523-1.3281-0.37109-1.1211 0.56641-1.0039 0.66406-0.91406-0.058594-2.6953-0.12109-1.25-0.55469-0.85547 0.15234-2.1562-0.015625-2.8398-0.40625-2.332 0.13281-1.0352 0.23047-1.5039-0.36719-1.5898-0.45703-1.8711-0.37891-1.7773-0.67188-1.4375-0.77734-0.85938-0.26953-1.0234-0.71875-2.1094-0.58984-1.3477-0.65234-1.2852-0.089844-1.2695-0.21875-1.3789-0.31641-1.4648-0.41016-1.1094-0.82422-1.707 0.18359-0.99609 1.4648-1.1172 0.97266-0.5625 0.47656-1.1016 0.80078-1.2031-0.29688-1.4219-0.12891-1.1055-0.84766-1.3516 0.058593-1.4375-0.26172-0.97656-0.51953-0.94922-0.61719-1.7891-0.66016-1.4219-0.15625-1.1875-0.42969-1.0625-1.1406-1.1953-0.33203-1.0703-0.55078-0.88672 0.066406-1.2188 0.25-1.2188 0.58984-1.1328 0.023437-1.7461 0.73438-1.0312 1.0508-0.74219 0.72266-0.72266 0.78125-0.67188 0.80859-0.79688 0.58984-0.93359-0.054687-1 0.039062-1.2852-0.042969-1.0234-0.49609-1.0234 0.38281-1.1758-0.63281-1.5312-0.19531-1.0391-0.54297-1.0273-0.78516-0.73438-0.87109-0.625-0.17578-1.0156 0.91406-0.90625 0.97266-1.6289 0.24609-1.3672-0.29297-2.2852-0.89844-1.1875-0.28125-1.1406-0.50391-1.2695-0.98828-0.75 0.011719-1.0742-0.28125-1.4062-1.4453-0.72266-0.79688-0.71875-0.12109-1.0273-1.75-1.1094-1.1641-1.043 0.12891-1.1836-0.24609-1.4727-0.50391-1.4375 0.20703-2.5-0.011718-1.0273-1.2109-1.9922-0.46875-1.1016-0.49609-1.2148-0.54688-1.3203-0.58594-1.5898-0.33984-1.2695-0.48047-1.1953-0.17188-1.2695-1.4023-1.5195-0.97266-1.0859-0.29297-1.6484 0.027343-1.4688-0.8125-1.0859-0.16797-2.4961-0.089844-2.1367-0.20312-1.2422-0.95703-1.7852-1.1914-1.9375-1.2461-2.0703-0.47266-1.25 0.046875-1.082 0.73438-1.7578 0.99219-1.3516 0.44531-1.0742 0.12109-1.0039 0.83203-2.0586-0.035156-1.2578-1.0195-1.5312 0.1875-1.8438-0.20312-0.99219-1.1367-0.41797-1.0234-0.011719 0.17969-1.1211 0.22656-1.0312 1.1602-1.1016-0.27344-1.1172-0.67578-1.375-0.097656-1.1641-0.91406-1.7578-0.34375-1.1992-0.6875-1-0.90625-0.55859 0.4375-0.91016-0.38672-1.0273-1.3672-1.1172-0.97656-0.22656-0.23047-1.2031-0.32422-1.0664-0.17969-1.0117-0.71094-1.1406-0.51562-0.92578 0.32031-1.0156-0.76953-0.64062-1.1836-1.543-1.3789 0.59766-0.75391-0.70703-0.97656 0.27344-0.042969-1.0469-2.2852-1.043-1.1367 0.23438-0.49219 1.0156-0.77344-0.64453 0.34766-1.3125-0.86328-0.60938-1.4414-0.63672-0.16797-1.0039-1.0586-0.83984-1.1836-0.11719-1.0273 0.30859h-1l-1.0859-1.8633-0.22266-1.1172-1.0742-0.25-1.3945 0.19531-0.5625 0.85938-0.24609-1.0859-0.035156-1.4023-0.5-1.0977-0.72656-1.0273-0.41797-1.2578-1.1914-0.29297-0.52344-1.3477-0.085938-1.207 0.67188-1.2266-1.1445-0.37891-0.88281-1.4844-1.2109 0.38672-1.1016-0.039063-0.97266 0.96094-1.3789 0.82031-1.0586 0.89062-0.93359-0.55859-0.83203-0.86719 0.75391-1.0234-0.25391-1.0078-0.30078-1.3008 0.56641-1.1094 0.35547-1.0547-0.80078-0.82031-0.46094-0.92188 0.80859-0.75781-0.26562-1.0312 0.070313-1.1016 0.90625-1.9375-0.47656-1.3281 0.12891-1.0273-1.6602-2.7305-0.88672-1.7539-0.84766-2.1055-0.058594-1.0859-0.83594-1.0312-0.88281 0.72266-1.1641-0.48438-1.3789-0.28516-1.125-0.57812-0.91016-0.67969-0.24609-2.2109-0.35156-1.4102-0.82031-0.71875-1.8125 1.2656-1.7227 0.77344-0.89062-0.76953-1.1055 0.070312-1.043-0.12891-0.84375-1.5234-0.95312 0.49609-1.0625-0.41797-0.83203-0.67188-0.40234 1.0742-0.99219-0.58594-0.082031-1.3594-0.078125-1.0391-0.89453-0.48828-0.83203-0.63672-0.76953-0.77344-1.0469-0.25391-0.99609 0.22266-0.48047-1.043-1.1797-0.042969-0.98828-0.59375-0.8125-0.59766-0.074219-1.1914-0.5625-1.2734 0.058594-1.0391-0.75-0.71094-1.8398 0.79688-1.4766 0.60547-0.82422 0.98047-0.90625 0.87109-1.1758-0.13281 0.042969-1.4453-0.13672-1.1914 0.47656-0.9375 0.65234-1.5664-0.46484-1.0859 0.32422-1.1484 0.74609-0.85938 0.10547-1.1641 0.42188-1.0352 0.63281-1.2266 0.23047-1.625 0.46875-0.90625 1.3086-0.066407 0.66016-1.2305 0.0625-1.1133-0.33984-1.0938-0.94922-0.85156-0.3125-1.1133 0.17969-1.332-0.69531-1.1641-1.0625-1.2148-1.4141-1.2539-1.0273-0.51172-1.3828 0.066406-0.95312-0.40625-1.1562-0.83594-1.5039-1.8555-1.4922-1.2188-1.125-0.49609-1.3398-0.58984-1.3906-0.42188-0.74609-0.75391 0.66406-1.4219 1.1445-0.41797 1.1289-0.83594 1.4805-1.1914 0.82031-0.88672 0.58984-1.7383 0.82812-1.4961 1.1055-1.1875 0.43359-1.6055 0.94922-1.6523 1.3438-1.4375 1.1797-0.69922 0.75-0.72656 0.91797-0.55469 1.1445-0.38672 1.3672-0.76172 0.94141-1.2305 0.69141-1.2305 0.35938-1.375 0.33984-2.0547 0.83203-1.4961 0.98047-1.2383 1.1211-0.83594 3.4492-1.3125 3.4844-0.6875 2.9492 0.074219 2.2148 0.51172 2.1445 0.23828 2.2656-0.47656 1.9531-0.21875 1.8633-0.26562z" fill="#ccc" fill-rule="evenodd"/>
<path d="m42.855 1.0039 1.7695 0.98047 1.3086 1.5469 0.95312 2.5938 1.3555 1.5938 1.3789 0.92969 1.2539 0.51953 5.2695 0.61719 6.0469-0.12109 7.6719 0.12891 5.8672 0.39453 4.9141 0.75781 3.4258 0.16406 3.3594 0.35547 1.6836 0.25391 0.99219 0.625-0.45703 1.3359-1.3516 2.3477-2.8672 3.4375-2.5938 2.5195-1.2852 0.96875-1.5781 0.77734-1.3867 0.96875-0.67969 1.25 0.66406 2.2266 0.84375 3.0312 0.79688 2.418 0.61719 5.5 0.33203 4.4258 0.28516 1.3164 0.046875 1.2031 0.53516 0.91016 2.2812 1.4102 1.2344 1.0312 1.7539 1.5938 1.6523 1.0273 3.8711 0.97656 1.8203 0.45312 1.6523 0.41406 1.6133 0.125 1.8633-0.57812 1.5273-0.62109 1.6953-0.16797 2.3125 0.67969 1.2188 1.1602 0.42188 1.8359-0.56641 1.6406-3.6758 4.0703-0.96875 1.7656-0.76562 1.2969-0.53906 1.5703-0.78516 2.5625-0.25 2.6289-0.45312 1.0938-0.41406 1.1172v1.0312l-0.66016 5.625-0.20703 4.2188 0.20703 1.1133 2.4805 2.4414 2.2305 2.5625 2.9375 3.1445 2.1094 3.0156 6.8086 5.4766 7.5742 4.8945 0.51562 2.6484 0.33203 2.2227 0.77734 2.9766 1.2305 2.3047 1.4766 1.6797 1.207 0.16016 2.4844-0.49219 1.5977-1.0859 1.0977-0.31641 2.3984-1.3516 1.9844-0.46875 1.0312 0.042968 1.8633 1.0391 1.1641 0.71875 1.7031 0.5625 2.6211 1.9062 0.67188 0.76953-0.66406 1.6602-2.2344 0.25-2.6055-0.042968-1.2422 0.16016-1.0703 0.54297-1.0781 1.4883-0.37109 1.0742 0.53906 1.4062 3.6445 4.125 1.4922 2.7773 4.6016 5 2.6055 5.4219 0.37891 1.6953 0.57031 1.3398 0.75 3.2266 1.0234 2.8477 1.2852 6.0234-0.17188 1.6719-0.41016 5.9688 0.050782 2.543-0.27344 2.5078 0.26953 2.332 1.2344 2.5781 1.2461 1.6641 2.7852 2.543 2.582 1.8008 3.4609 1.1211 2.5195 0.70312 2.1094 0.37109 1.2812 0.70312 0.91016 3.4297 0.94141 6 0.25781 6.1562 0.41406 2.5234 0.66016 1.4883 0.98828 0.41406 1.5781 0.12109 2.3672-0.027344 1.6641 0.38281 4.1719 2.3047 2.2852 1.5273 3.6641 3.5469 1 2.7695 1.1875 1.5898 1.7539 2.2188-0.019531 1.1094-0.70312 2.4844-0.74609 1.1406 1.4609 3.0898-0.039063 2.6055 1.2148 2.7344-0.21094 2.2109 2.5234 4.0742 0.76562 1.0156-0.65234 1.2344-1.1133 0.46094-0.78125 0.90234 0.79688 2.3633 1.4492 1.9844 0.40234 1.2539-0.48438 1.8867-0.85156 4.5586-1.0352 3.4648-1.3359 4.8008-0.54688 2.6133-0.60938 1.7031v1.5352l-0.12109 3.3906-0.97266 1.9453-1.4453 4.0742 0.09375 1.7227-1.9141 1.5-2.2891 0.59766-0.91797 0.52344-0.21094 1.4727-0.90625 1.2812-1.3398 0.30469-1.0703 0.73438-4.0195 4.5273-1.8008 0.16016-1.1992 0.36719-1.5625 1.0156-2.6328 1-1.375 0.33594-4.1797 1.7734-0.92969 0.41797-1.3047-0.070313-1.2773 1.2148 0.12891 1.7305-2.2695 3.7227-2.1406 1.8281-3.793 2.0195-2.0625 1.4141-5.3828 4.1328-1.2461 1.6758-0.67969 1.25 0.007812 1.7734-1.1953 0.38672-1.668-0.14453-2.1797-0.25781-1.043 0.36719-1.0195 0.29688-2.1016-0.03125-1.3672-0.12891-1.3594 0.34375-1.1133-0.12109-1.2461-1.0352-1.1992 0.050781-1.1055-0.60156-1.332-0.32031-0.55859-0.89844-0.64062-1.0469-0.69531-0.94922 0.035156-1.0352 0.14062-1-0.14062-1.082 0.14844-1.2578-0.59766-0.94141-0.47266-1.043-0.69531-1.0312-0.63281-1.043-0.64062-1.125-0.61719-1.1328-0.78906-0.66797-0.51953-1.1172-0.61328-0.80078 0.09375-1.3164-1.0039-0.43359-0.76562-1.1953-0.78516-0.82812-0.25391-1.7422-0.67188-0.90625-0.47266-1.043-1.0234-1.4844-1.1523-1.3281-0.37109-1.1211 0.56641-1.0039 0.66406-0.91406-0.058594-2.6953-0.12109-1.25-0.55469-0.85547 0.15234-2.1562-0.015625-2.8398-0.40625-2.332 0.13281-1.0352 0.23047-1.5039-0.36719-1.5898-0.45703-1.8711-0.37891-1.7773-0.67188-1.4375-0.77734-0.85938-0.26953-1.0234-0.71875-2.1094-0.58984-1.3477-0.65234-1.2852-0.089844-1.2695-0.21875-1.3789-0.31641-1.4648-0.41016-1.1094-0.82422-1.707 0.18359-0.99609 1.4648-1.1172 0.97266-0.5625 0.47656-1.1016 0.80078-1.2031-0.29688-1.4219-0.12891-1.1055-0.84766-1.3516 0.058593-1.4375-0.26172-0.97656-0.51953-0.94922-0.61719-1.7891-0.66016-1.4219-0.15625-1.1875-0.42969-1.0625-1.1406-1.1953-0.33203-1.0703-0.55078-0.88672 0.066406-1.2188 0.25-1.2188 0.58984-1.1328 0.023437-1.7461 0.73438-1.0312 1.0508-0.74219 0.72266-0.72266 0.78125-0.67188 0.80859-0.79688 0.58984-0.93359-0.054687-1 0.039062-1.2852-0.042969-1.0234-0.49609-1.0234 0.38281-1.1758-0.63281-1.5312-0.19531-1.0391-0.54297-1.0273-0.78516-0.73438-0.87109-0.625-0.17578-1.0156 0.91406-0.90625 0.97266-1.6289 0.24609-1.3672-0.29297-2.2852-0.89844-1.1875-0.28125-1.1406-0.50391-1.2695-0.98828-0.75 0.011719-1.0742-0.28125-1.4062-1.4453-0.72266-0.79688-0.71875-0.12109-1.0273-1.75-1.1094-1.1641-1.043 0.12891-1.1836-0.24609-1.4727-0.50391-1.4375 0.20703-2.5-0.011718-1.0273-1.2109-1.9922-0.46875-1.1016-0.49609-1.2148-0.54688-1.3203-0.58594-1.5898-0.33984-1.2695-0.48047-1.1953-0.17188-1.2695-1.4023-1.5195-0.97266-1.0859-0.29297-1.6484 0.027343-1.4688-0.8125-1.0859-0.16797-2.4961-0.089844-2.1367-0.20312-1.2422-0.95703-1.7852-1.1914-1.9375-1.2461-2.0703-0.47266-1.25 0.046875-1.082 0.73438-1.7578 0.99219-1.3516 0.44531-1.0742 0.12109-1.0039 0.83203-2.0586-0.035156-1.2578-1.0195-1.5312 0.1875-1.8438-0.20312-0.99219-1.1367-0.41797-1.0234-0.011719 0.17969-1.1211 0.22656-1.0312 1.1602-1.1016-0.27344-1.1172-0.67578-1.375-0.097656-1.1641-0.91406-1.7578-0.34375-1.1992-0.6875-1-0.90625-0.55859 0.4375-0.91016-0.38672-1.0273-1.3672-1.1172-0.97656-0.22656-0.23047-1.2031-0.32422-1.0664-0.17969-1.0117-0.71094-1.1406-0.51562-0.92578 0.32031-1.0156-0.76953-0.64062-1.1836-1.543-1.3789 0.59766-0.75391-0.70703-0.97656 0.27344-0.042969-1.0469-2.2852-1.043-1.1367 0.23438-0.49219 1.0156-0.77344-0.64453 0.34766-1.3125-0.86328-0.60938-1.4414-0.63672-0.16797-1.0039-1.0586-0.83984-1.1836-0.11719-1.0273 0.30859h-1l-1.0859-1.8633-0.22266-1.1172-1.0742-0.25-1.3945 0.19531-0.5625 0.85938-0.24609-1.0859-0.035156-1.4023-0.5-1.0977-0.72656-1.0273-0.41797-1.2578-1.1914-0.29297-0.52344-1.3477-0.085938-1.207 0.67188-1.2266-1.1445-0.37891-0.88281-1.4844-1.2109 0.38672-1.1016-0.039063-0.97266 0.96094-1.3789 0.82031-1.0586 0.89062-0.93359-0.55859-0.83203-0.86719 0.75391-1.0234-0.25391-1.0078-0.30078-1.3008 0.56641-1.1094 0.35547-1.0547-0.80078-0.82031-0.46094-0.92188 0.80859-0.75781-0.26562-1.0312 0.070313-1.1016 0.90625-1.9375-0.47656-1.3281 0.12891-1.0273-1.6602-2.7305-0.88672-1.7539-0.84766-2.1055-0.058594-1.0859-0.83594-1.0312-0.88281 0.72266-1.1641-0.48438-1.3789-0.28516-1.125-0.57812-0.91016-0.67969-0.24609-2.2109-0.35156-1.4102-0.82031-0.71875-1.8125 1.2656-1.7227 0.77344-0.89062-0.76953-1.1055 0.070312-1.043-0.12891-0.84375-1.5234-0.95312 0.49609-1.0625-0.41797-0.83203-0.67188-0.40234 1.0742-0.99219-0.58594-0.082031-1.3594-0.078125-1.0391-0.89453-0.48828-0.83203-0.63672-0.76953-0.77344-1.0469-0.25391-0.99609 0.22266-0.48047-1.043-1.1797-0.042969-0.98828-0.59375-0.8125-0.59766-0.074219-1.1914-0.5625-1.2734 0.058594-1.0391-0.75-0.71094-1.8398 0.79688-1.4766 0.60547-0.82422 0.98047-0.90625 0.87109-1.1758-0.13281 0.042969-1.4453-0.13672-1.1914 0.47656-0.9375 0.65234-1.5664-0.46484-1.0859 0.32422-1.1484 0.74609-0.85938 0.10547-1.1641 0.42188-1.0352 0.63281-1.2266 0.23047-1.625 0.46875-0.90625 1.3086-0.066407 0.66016-1.2305 0.0625-1.1133-0.33984-1.0938-0.94922-0.85156-0.3125-1.1133 0.17969-1.332-0.69531-1.1641-1.0625-1.2148-1.4141-1.2539-1.0273-0.51172-1.3828 0.066406-0.95312-0.40625-1.1562-0.83594-1.5039-1.8555-1.4922-1.2188-1.125-0.49609-1.3398-0.58984-1.3906-0.42188-0.74609-0.75391 0.66406-1.4219 1.1445-0.41797 1.1289-0.83594 1.4805-1.1914 0.82031-0.88672 0.58984-1.7383 0.82812-1.4961 1.1055-1.1875 0.43359-1.6055 0.94922-1.6523 1.3438-1.4375 1.1797-0.69922 0.75-0.72656 0.91797-0.55469 1.1445-0.38672 1.3672-0.76172 0.94141-1.2305 0.69141-1.2305 0.35938-1.375 0.33984-2.0547 0.83203-1.4961 0.98047-1.2383 1.1211-0.83594 3.4492-1.3125 3.4844-0.6875 2.9492 0.074219 2.2148 0.51172 2.1445 0.23828 2.2656-0.47656 1.9531-0.21875 1.8633-0.26562 0.94531-0.16797" fill="none" stroke="#fff" stroke-linecap="round" stroke-linejoin="round" stroke-miterlimit="10" stroke-width="2"/>
<path d="m185.31 150.93 2.1992 1.1758 2.9414 2.6172 2.332 1.7148 2.2656 3.0781 1.2148 1.168 1.6289 1.1797 1.75 0.68359 2.6094-0.10547 5.7109-1.0156 1.957-0.16797 1.6523-0.31641 3.1133-1.1953 7.2383-1.9688 6.8438-0.58984 6.293 0.16406 1.6641 0.41797 2.3281 1.2969 5.5859 4.7305 2.3398 2.207 2.082 1.3945 1.4492 0.71875 1.1445 0.09375 6.2891 0.48047 3.1641 0.66797 0.98047 0.30078 3.7305 1.1016 2.8359 1.7109 2.5859 0.96875 4.5-0.023437 3.0938 0.53906 1.8633 0.035156 2.4531-0.22266 1.7305-0.50391 0.96875-0.70312 0.875-1.1445 0.74219-1.7539 2.1289-3.6445 0.51953-1.8047 0.98438-1.918 1.3008-1.9102 1.0703-0.71484 1.7188-0.53125 2.8633 0.98828 1.1797 1.7305 1.2188 3.3398 0.74609 2.3984 1.5352 2.3984 1.2969 2.75 1.7266 2.7891 1.9648 1.8086 1.1016 1.8477 1.2578 0.55078 1.1016 0.98047 1.293 0.43359 0.58984 1.1016 1.3398 1.9648 1.6484 1.7695 2.2812 1.9258 1.1406 1.8047 1.0742 1.9609 1.7695 0.41797 0.94922 0.57422 1.0859-0.35938 1.1289-0.17188 1.1094-0.42578 1.8125 0.19531 2 0.83594 1.3281 0.50781 1.1172 0.26172 1.1133 0.70312 1.2891 0.60547 1.5664 0.48047 1.1289 0.46875 0.92188 1.0352 1.6523 1.043 1.3398 0.68359 1.25 0.4375 1.0781 0.21484 1.0742-0.39062 2.2383-0.47656 1.3164-0.015625 2.7266 0.44531 2.4062 1.5 2.4531 2.2422 0.20312 18.16 0.71484 13.676 1.9258 1.8867 1.8984 0.78125 1.9531 1.418 1.8047 1.6133 1.8398 1.6328 4.2148 3.1992 4.5977 3.5 0.65234 0.81641 1.8633 1.8164 3.4961 3.2227 3.1367 3.8047 2.6172 2.4961 1.4102 2.3008 0.63281 2.582 0.90234 5.9805 1.1055 10.227 1.3047 2.7852 0.31641 2.0547 1.8203 2.9414 3.0273 4.3633 2.3164 3.0273 1.375 0.98047 1.1406 0.86719 1.0469 0.039063 1.7734 0.875 2.4883 2.3477 10.973 11.297 3.5859 3.2969 1.7539 1.0117 1.5156 0.60547 11.211 2.6133 2.8984 0.85156 17.078 4.1719 8.4805 1.0312 3.2227 1.2578 3.1055 1.1367 4.3203 2.0859 2.3203 2.3555 1.1445 3.043 1.8047 1.2031 3.0234 1.6094 5.0312 1.5352 4.0078-0.70703 2.0469-0.75 2.9453-0.45703-1.0547 3.2852-0.16406 1.1523-0.23828 1.0703-0.011719 1.4805 0.66016 1.2812 0.48438 0.875 0.62891 1.1016 0.24609 1.3828-1.1016 1.832-0.93359 1.3828-0.38281 1.5391 0.64062 1.8047-0.4375 3.5469-0.10938 1.1289-0.26562 1.1992-0.050781 1.0938-0.12891 1.0352-0.23047 2.0078-0.32422 1.6094-0.56641 1.6992-0.63281 2.0117-0.87109 1.0586-1.1445 0.015625-1.6875 0.28516-1.5703-0.11328-1.7969 0.027344-3.6836-0.050781-1.5664 0.09375-1.043 0.015625-1.2891-0.17969-1.1055-0.078125-1.2031-0.39062-3.1641-1.2578-1-0.21484-1.668-0.76953-1.0195-0.69922-2.0781-1.0938-1.6328-1.0117-0.90625-0.57031-1.6836-0.58984-2.0664-0.96875-1.25-0.64062-1.1133-0.625-0.82031-0.59766-1.0938-0.33984-1.0078-0.25-1.6172 0.17969-1.7852-0.027343-1.1289-0.074219-1.7617-0.085938-1.875 0.51953-1.1016 1.207-1.8125 1.3516-1.8867 1.1406-1.4922 0.28125-2.0273 0.21484-1.7773 0.92578-2.7383 1.2969-1.9805 0.48047-1.6367-0.74219-2.582-2.8242-1.3594-1.0195-1.5117-0.25-1.3203 0.12891-3.3633 1.4375-1.8594 0.57031-3.6289 1.9062-0.68359 1.168-0.37891 1.2852-0.097656 3.8594-0.37109 1.2969-2.3633 2.5039-1.2773 2.9023-0.63672 0.99219-1.9141 1.8516-1.2266 0.77344-0.91797 2.1016-0.84375 1.1641-0.64453 1.5352-1.375 0.57031-1.6953-0.55859-0.95312-0.75391-2.543-2.6562-0.95703-0.47266-1.2695-0.3125-1.4414 0.72656-1.5703 1.3828-3.1328 2.2812-1.4414 0.55469-2.0195-0.45312-1.4453-0.30469-5.3555-0.59375-2.7969 0.64062-1.5156 1.1992-2.1602 2.3945-1.9141 2.6367-1.7188 1.6758-2.2344 0.48047-2.3359-0.81641-1.8477-1.0625-4.3047-1.7812-2.5742-0.51562-4.8242 1.2344-2.625 1.2734-0.98047 0.71875-0.55859 0.98047-0.35156 1.3906-2.875 1.0898-2.7656-0.26953-1.6094-0.57422-2.0547-0.60156-1.4375-0.57422-1.1836-0.69141-0.875-0.82812-0.30078-1.332 1.8906-1.9648-0.29688-1.6836-1.293-0.94922-0.42969-1.0195 0.19922-1.3281 0.54688-1.2148 0.16406-1.8711 0.66016-1.9297-0.23438-2.6523-0.60156-1.25-1.1914-0.35938-2.0586-0.28906-1.2617-0.83203-1.1211-2.1641-1.2617-0.97656-1.4102 0.65234-1.1016 0.48438-5.4961 0.74609-2.1875-0.25-2.5625-1.207-2.043-0.089843-2.9727-0.16797-1.9961-0.67188-3.4492 0.070312-3.5703 0.83594-1.4688-0.73047-0.93359-2.9062 0.67969-3.5312 0.74609-0.98438-0.23828-1.5234-0.82812-0.75781-2.3828-1.4688-2.9531-3.0352-1.8398-1.4805-1.9141-0.87891-1.4102-0.14062-1.3711 0.13672-1.25 0.58203-1.125 0.49219-2.4336 0.28906-2.7539-0.83984-1.8789-1.1016-2.1719-2.4531-0.95312-0.70312-2.2656-1.7148-1.875-0.77344-4.1836 0.050782-1.5195-0.79297-1.4062-0.32422-1.6445-0.03125-2.8711-0.007812-1.5156 0.14453-1.4062-0.17969h-2.2031l-2.0352 0.3125-1.9531 0.64844-1.2188 0.36328-3.5977 1.332-2.7852 0.62109-3.9609-0.80469-2.9727 0.0625-3.2812 1.5469-3.3438 2.2266-2.1055-0.24609-1.8242-0.64844-1.707 0.40234-1.2383 1.1758-2.2891 0.92969h-2.9102l-4.2109-0.74609-2.8516-0.88281-4.5195-0.78906-3.7148-0.55469-3.4062 0.12109-3.7148-0.74219-2.3516-1.0508-2.2891-2.3555-0.1875-5.8203 0.375-4.1133-0.41406-1.3203-3.6758-1.0664-4.0117-1.918-4.8672-3.9961-1.9453-1.3008-4.8008-1.9609-3.8359-1.9336-1.5039-0.36719-1.6328-0.89453-2.6289-0.59375-3.75-2.6484-1.4258-0.76172-2.7578-2.2188-2.6484-1.2109-3.7891-3.2969-1.1484-0.61719-0.12891-1.1836 0.80078-1.8398 1.2461-1.6758 5.3828-4.1328 2.0625-1.4141 3.793-2.0195 2.1406-1.8281 2.0625-3.0625 0.078125-2.3906 0.54297-0.875 2.0391-0.26953 0.92969-0.41797 4.1797-1.7734 1.375-0.33594 2.6328-1 1.5625-1.0156 1.1992-0.36719 1.8008-0.16016 4.0195-4.5273 1.0703-0.73438 1.3398-0.30469 0.90625-1.2812 0.21094-1.4727 0.91797-0.52344 2.2891-0.59766 1.5547-0.88672 0.26562-2.3359 1.4453-4.0742 0.97266-1.9453 0.12109-3.0391v-1.8867l0.60938-1.7031 0.54688-2.6133 1.3359-4.8008 1.0352-3.4648 0.85156-4.5586 0.48438-1.8867-0.40234-1.2539-1.4492-1.9844-0.87109-1.8086 0.44141-1.0781 1.5273-0.83984 0.65234-1.2344-0.76562-1.0156-2.3906-3.1641 0.078125-3.1211-1.2148-2.7344 0.039063-2.6055-1.5195-2.2227 0.80469-2.0078 0.41016-1.918 0.3125-1.6758-1.5586-1.375-1.3828-2.4336-1-2.7695-3.6641-3.5469-2.2852-1.5273-4.1719-2.3047-1.6641-0.38281-2.3672 0.027344-1.5781-0.12109-0.98828-0.41406-0.66016-1.4883-0.41406-2.5234-0.25781-6.1562-0.94141-6-0.45312-3.0859-1.7383-1.0469-2.1094-0.37109-2.5195-0.70312-2.8398-0.91406-3.2031-2.0078-2.7852-2.543-1.2461-1.6641-1.2344-2.5781-0.26953-2.332 0.27344-2.5078 1.5859-1.8281 1.1602-1.5703 2.9766-0.62109 4.1328-1.6953 5.6523-3.4648 3.0469-2.6289 2.4414-1.5977 1.9219-1.7109 3.0664-2.2422 2.1797-1.2773 2.0234-0.58594z" fill="#0a5394" fill-rule="evenodd"/>
<path d="m185.31 150.93 2.1992 1.1758 2.9414 2.6172 2.332 1.7148 2.2656 3.0781 1.2148 1.168 1.6289 1.1797 1.75 0.68359 2.6094-0.10547 5.7109-1.0156 1.957-0.16797 1.6523-0.31641 3.1133-1.1953 7.2383-1.9688 6.8438-0.58984 6.293 0.16406 1.6641 0.41797 2.3281 1.2969 5.5859 4.7305 2.3398 2.207 2.082 1.3945 1.4492 0.71875 1.1445 0.09375 6.2891 0.48047 3.1641 0.66797 0.98047 0.30078 3.7305 1.1016 2.8359 1.7109 2.5859 0.96875 4.5-0.023437 3.0938 0.53906 1.8633 0.035156 2.4531-0.22266 1.7305-0.50391 0.96875-0.70312 0.875-1.1445 0.74219-1.7539 2.1289-3.6445 0.51953-1.8047 0.98438-1.918 1.3008-1.9102 1.0703-0.71484 1.7188-0.53125 2.8633 0.98828 1.1797 1.7305 1.2188 3.3398 0.74609 2.3984 1.5352 2.3984 1.2969 2.75 1.7266 2.7891 1.9648 1.8086 1.1016 1.8477 1.2578 0.55078 1.1016 0.98047 1.293 0.43359 0.58984 1.1016 1.3398 1.9648 1.6484 1.7695 2.2812 1.9258 1.1406 1.8047 1.0742 1.9609 1.7695 0.41797 0.94922 0.57422 1.0859-0.35938 1.1289-0.17188 1.1094-0.42578 1.8125 0.19531 2 0.83594 1.3281 0.50781 1.1172 0.26172 1.1133 0.70312 1.2891 0.60547 1.5664 0.48047 1.1289 0.46875 0.92188 1.0352 1.6523 1.043 1.3398 0.68359 1.25 0.4375 1.0781 0.21484 1.0742-0.39062 2.2383-0.47656 1.3164-0.015625 2.7266 0.44531 2.4062 1.5 2.4531 2.2422 0.20312 18.16 0.71484 13.676 1.9258 1.8867 1.8984 0.78125 1.9531 1.418 1.8047 1.6133 1.8398 1.6328 4.2148 3.1992 4.5977 3.5 0.65234 0.81641 1.8633 1.8164 3.4961 3.2227 3.1367 3.8047 2.6172 2.4961 1.4102 2.3008 0.63281 2.582 0.90234 5.9805 1.1055 10.227 1.3047 2.7852 0.31641 2.0547 1.8203 2.9414 3.0273 4.3633 2.3164 3.0273 1.375 0.98047 1.1406 0.86719 1.0469 0.039063 1.7734 0.875 2.4883 2.3477 10.973 11.297 3.5859 3.2969 1.7539 1.0117 1.5156 0.60547 11.211 2.6133 2.8984 0.85156 17.078 4.1719 8.4805 1.0312 3.2227 1.2578 3.1055 1.1367 4.3203 2.0859 2.3203 2.3555 1.1445 3.043 1.8047 1.2031 3.0234 1.6094 5.0312 1.5352 4.0078-0.70703 2.0469-0.75 2.9453-0.45703-1.0547 3.2852-0.16406 1.1523-0.23828 1.0703-0.011719 1.4805 0.66016 1.2812 0.48438 0.875 0.62891 1.1016 0.24609 1.3828-1.1016 1.832-0.93359 1.3828-0.38281 1.5391 0.64062 1.8047-0.4375 3.5469-0.10938 1.1289-0.26562 1.1992-0.050781 1.0938-0.12891 1.0352-0.23047 2.0078-0.32422 1.6094-0.56641 1.6992-0.63281 2.0117-0.87109 1.0586-1.1445 0.015625-1.6875 0.28516-1.5703-0.11328-1.7969 0.027344-3.6836-0.050781-1.5664 0.09375-1.043 0.015625-1.2891-0.17969-1.1055-0.078125-1.2031-0.39062-3.1641-1.2578-1-0.21484-1.668-0.76953-1.0195-0.69922-2.0781-1.0938-1.6328-1.0117-0.90625-0.57031-1.6836-0.58984-2.0664-0.96875-1.25-0.64062-1.1133-0.625-0.82031-0.59766-1.0938-0.33984-1.0078-0.25-1.6172 0.17969-1.7852-0.027343-1.1289-0.074219-1.7617-0.085938-1.875 0.51953-1.1016 1.207-1.8125 1.3516-1.8867 1.1406-1.4922 0.28125-2.0273 0.21484-1.7773 0.92578-2.7383 1.2969-1.9805 0.48047-1.6367-0.74219-2.582-2.8242-1.3594-1.0195-1.5117-0.25-1.3203 0.12891-3.3633 1.4375-1.8594 0.57031-3.6289 1.9062-0.68359 1.168-0.37891 1.2852-0.097656 3.8594-0.37109 1.2969-2.3633 2.5039-1.2773 2.9023-0.63672 0.99219-1.9141 1.8516-1.2266 0.77344-0.91797 2.1016-0.84375 1.1641-0.64453 1.5352-1.375 0.57031-1.6953-0.55859-0.95312-0.75391-2.543-2.6562-0.95703-0.47266-1.2695-0.3125-1.4414 0.72656-1.5703 1.3828-3.1328 2.2812-1.4414 0.55469-2.0195-0.45312-1.4453-0.30469-5.3555-0.59375-2.7969 0.64062-1.5156 1.1992-2.1602 2.3945-1.9141 2.6367-1.7188 1.6758-2.2344 0.48047-2.3359-0.81641-1.8477-1.0625-4.3047-1.7812-2.5742-0.51562-4.8242 1.2344-2.625 1.2734-0.98047 0.71875-0.55859 0.98047-0.35156 1.3906-2.875 1.0898-2.7656-0.26953-1.6094-0.57422-2.0547-0.60156-1.4375-0.57422-1.1836-0.69141-0.875-0.82812-0.30078-1.332 1.8906-1.9648-0.29688-1.6836-1.293-0.94922-0.42969-1.0195 0.19922-1.3281 0.54688-1.2148 0.16406-1.8711 0.66016-1.9297-0.23438-2.6523-0.60156-1.25-1.1914-0.35938-2.0586-0.28906-1.2617-0.83203-1.1211-2.1641-1.2617-0.97656-1.4102 0.65234-1.1016 0.48438-5.4961 0.74609-2.1875-0.25-2.5625-1.207-2.043-0.089843-2.9727-0.16797-1.9961-0.67188-3.4492 0.070312-3.5703 0.83594-1.4688-0.73047-0.93359-2.9062 0.67969-3.5312 0.74609-0.98438-0.23828-1.5234-0.82812-0.75781-2.3828-1.4688-2.9531-3.0352-1.8398-1.4805-1.9141-0.87891-1.4102-0.14062-1.3711 0.13672-1.25 0.58203-1.125 0.49219-2.4336 0.28906-2.7539-0.83984-1.8789-1.1016-2.1719-2.4531-0.95312-0.70312-2.2656-1.7148-1.875-0.77344-4.1836 0.050782-1.5195-0.79297-1.4062-0.32422-1.6445-0.03125-2.8711-0.007812-1.5156 0.14453-1.4062-0.17969h-2.2031l-2.0352 0.3125-1.9531 0.64844-1.2188 0.36328-3.5977 1.332-2.7852 0.62109-3.9609-0.80469-2.9727 0.0625-3.2812 1.5469-3.3438 2.2266-2.1055-0.24609-1.8242-0.64844-1.707 0.40234-1.2383 1.1758-2.2891 0.92969h-2.9102l-4.2109-0.74609-2.8516-0.88281-4.5195-0.78906-3.7148-0.55469-3.4062 0.12109-3.7148-0.74219-2.3516-1.0508-2.2891-2.3555-0.1875-5.8203 0.375-4.1133-0.41406-1.3203-3.6758-1.0664-4.0117-1.918-4.8672-3.9961-1.9453-1.3008-4.8008-1.9609-3.8359-1.9336-1.5039-0.36719-1.6328-0.89453-2.6289-0.59375-3.75-2.6484-1.4258-0.76172-2.7578-2.2188-2.6484-1.2109-3.7891-3.2969-1.1484-0.61719-0.12891-1.1836 0.80078-1.8398 1.2461-1.6758 5.3828-4.1328 2.0625-1.4141 3.793-2.0195 2.1406-1.8281 2.0625-3.0625 0.078125-2.3906 0.54297-0.875 2.0391-0.26953 0.92969-0.41797 4.1797-1.7734 1.375-0.33594 2.6328-1 1.5625-1.0156 1.1992-0.36719 1.8008-0.16016 4.0195-4.5273 1.0703-0.73438 1.3398-0.30469 0.90625-1.2812 0.21094-1.4727 0.91797-0.52344 2.2891-0.59766 1.5547-0.88672 0.26562-2.3359 1.4453-4.0742 0.97266-1.9453 0.12109-3.0391v-1.8867l0.60938-1.7031 0.54688-2.6133 1.3359-4.8008 1.0352-3.4648 0.85156-4.5586 0.48438-1.8867-0.40234-1.2539-1.4492-1.9844-0.87109-1.8086 0.44141-1.0781 1.5273-0.83984 0.65234-1.2344-0.76562-1.0156-2.3906-3.1641 0.078125-3.1211-1.2148-2.7344 0.039063-2.6055-1.5195-2.2227 0.80469-2.0078 0.41016-1.918 0.3125-1.6758-1.5586-1.375-1.3828-2.4336-1-2.7695-3.6641-3.5469-2.2852-1.5273-4.1719-2.3047-1.6641-0.38281-2.3672 0.027344-1.5781-0.12109-0.98828-0.41406-0.66016-1.4883-0.41406-2.5234-0.25781-6.1562-0.94141-6-0.45312-3.0859-1.7383-1.0469-2.1094-0.37109-2.5195-0.70312-2.8398-0.91406-3.2031-2.0078-2.7852-2.543-1.2461-1.6641-1.2344-2.5781-0.26953-2.332 0.27344-2.5078 1.5859-1.8281 1.1602-1.5703 2.9766-0.62109 4.1328-1.6953 5.6523-3.4648 3.0469-2.6289 2.4414-1.5977 1.9219-1.7109 3.0664-2.2422 2.1797-1.2773 2.0234-0.58594 1.8633 0.0625" fill="none" stroke="#fff" stroke-linecap="round" stroke-linejoin="round" stroke-miterlimit="10"/>
<path d="m196.68 318.09c0 3.5898-2.9102 6.5-6.5 6.5-3.5898 0-6.5-2.9102-6.5-6.5s2.9102-6.5 6.5-6.5c3.5898 0 6.5 2.9102 6.5 6.5" fill="#28c028" fill-rule="evenodd" stroke="#000" stroke-linecap="round" stroke-linejoin="round" stroke-miterlimit="10"/>
<path d="m197.85 341.12v-16.469h12.203v2.7969h-8.875v3.6406h8.2656v2.7812h-8.2656v4.4688h9.2031v2.7812zm15.438 0v-16.328h3.3281v13.547h8.2656v2.7812zm35.188 0h-3.6094l-1.4375-3.7344h-6.5781l-1.3594 3.7344h-3.5312l6.4062-16.469h3.5156zm-6.1094-6.5156-2.2812-6.1094-2.2188 6.1094zm7.9688 6.5156v-16.328h3.3281v13.547h8.2656v2.7812zm21.609-6.0469v-2.7812h7.1719v6.5625c-0.69922 0.66797-1.7109 1.2617-3.0312 1.7812-1.3242 0.50781-2.6641 0.76562-4.0156 0.76562-1.7188 0-3.2188-0.35938-4.5-1.0781-1.2812-0.72656-2.2461-1.7656-2.8906-3.1094-0.64844-1.3438-0.96875-2.8008-0.96875-4.375 0-1.7188 0.35938-3.2422 1.0781-4.5781 0.71875-1.332 1.7695-2.3516 3.1562-3.0625 1.0625-0.55078 2.3789-0.82812 3.9531-0.82812 2.0391 0 3.6328 0.43359 4.7812 1.2969 1.1562 0.85547 1.8945 2.0391 2.2188 3.5469l-3.2969 0.625c-0.23047-0.8125-0.66797-1.4531-1.3125-1.9219-0.63672-0.46875-1.4336-0.70312-2.3906-0.70312-1.4609 0-2.6172 0.46484-3.4688 1.3906-0.85547 0.91797-1.2812 2.2812-1.2812 4.0938 0 1.9609 0.42969 3.4297 1.2969 4.4062 0.86328 0.96875 2.0039 1.4531 3.4219 1.4531 0.6875 0 1.3789-0.13281 2.0781-0.40625 0.70703-0.26953 1.3125-0.60156 1.8125-1v-2.0781zm25.078 6.0469h-3.6094l-1.4375-3.7344h-6.5781l-1.3594 3.7344h-3.5312l6.4062-16.469h3.5156zm-6.1094-6.5156-2.2812-6.1094-2.2188 6.1094zm7.8906 6.5156v-16.469h7c1.7578 0 3.0352 0.15234 3.8281 0.45312 0.80078 0.29297 1.4414 0.82031 1.9219 1.5781 0.47656 0.75 0.71875 1.6172 0.71875 2.5938 0 1.2305-0.36719 2.25-1.0938 3.0625-0.73047 0.80469-1.8203 1.3086-3.2656 1.5156 0.71875 0.41797 1.3125 0.88281 1.7812 1.3906 0.46875 0.5 1.0977 1.3867 1.8906 2.6562l2.0156 3.2188h-3.9688l-2.4062-3.5781c-0.85547-1.2812-1.4375-2.0859-1.75-2.4219-0.3125-0.33203-0.64844-0.5625-1-0.6875-0.35547-0.125-0.91406-0.1875-1.6719-0.1875h-0.67188v6.875zm3.3281-9.5h2.4531c1.5938 0 2.5859-0.066406 2.9844-0.20312 0.39453-0.13281 0.70312-0.36328 0.92188-0.6875 0.22656-0.33203 0.34375-0.75 0.34375-1.25 0-0.55078-0.14844-0.99219-0.4375-1.3281-0.29297-0.34375-0.71094-0.5625-1.25-0.65625-0.27344-0.03125-1.0781-0.046875-2.4219-0.046875h-2.5938zm13.281 9.5v-16.469h7c1.7578 0 3.0352 0.15234 3.8281 0.45312 0.80078 0.29297 1.4414 0.82031 1.9219 1.5781 0.47656 0.75 0.71875 1.6172 0.71875 2.5938 0 1.2305-0.36719 2.25-1.0938 3.0625-0.73047 0.80469-1.8203 1.3086-3.2656 1.5156 0.71875 0.41797 1.3125 0.88281 1.7812 1.3906 0.46875 0.5 1.0977 1.3867 1.8906 2.6562l2.0156 3.2188h-3.9688l-2.4062-3.5781c-0.85547-1.2812-1.4375-2.0859-1.75-2.4219-0.3125-0.33203-0.64844-0.5625-1-0.6875-0.35547-0.125-0.91406-0.1875-1.6719-0.1875h-0.67188v6.875zm3.3281-9.5h2.4531c1.5938 0 2.5859-0.066406 2.9844-0.20312 0.39453-0.13281 0.70312-0.36328 0.92188-0.6875 0.22656-0.33203 0.34375-0.75 0.34375-1.25 0-0.55078-0.14844-0.99219-0.4375-1.3281-0.29297-0.34375-0.71094-0.5625-1.25-0.65625-0.27344-0.03125-1.0781-0.046875-2.4219-0.046875h-2.5938zm12.594 1.375c0-1.6758 0.25-3.0859 0.75-4.2344 0.375-0.83203 0.88281-1.582 1.5312-2.25 0.64453-0.66406 1.3516-1.1602 2.125-1.4844 1.0312-0.4375 2.2188-0.65625 3.5625-0.65625 2.4141 0 4.3516 0.75781 5.8125 2.2656 1.457 1.5 2.1875 3.5938 2.1875 6.2812 0 2.6562-0.72656 4.7344-2.1719 6.2344-1.4375 1.5-3.3711 2.25-5.7969 2.25-2.4492 0-4.3984-0.74219-5.8438-2.2344-1.4375-1.5-2.1562-3.5547-2.1562-6.1719zm3.4219-0.125c0 1.8672 0.42969 3.2812 1.2969 4.25 0.86328 0.96094 1.957 1.4375 3.2812 1.4375 1.3203 0 2.4062-0.47266 3.25-1.4219 0.85156-0.95703 1.2812-2.3906 1.2812-4.2969 0-1.8945-0.41797-3.3047-1.25-4.2344-0.82422-0.92578-1.918-1.3906-3.2812-1.3906-1.375 0-2.4844 0.47656-3.3281 1.4219-0.83594 0.9375-1.25 2.3516-1.25 4.2344zm15.156-8.2188h6.5781c1.3008 0 2.2695 0.058594 2.9062 0.17188 0.64453 0.10547 1.2188 0.32812 1.7188 0.67188 0.50781 0.34375 0.92969 0.80469 1.2656 1.375 0.34375 0.57422 0.51562 1.2188 0.51562 1.9375 0 0.77344-0.21094 1.4805-0.625 2.125-0.41797 0.63672-0.98047 1.1172-1.6875 1.4375 1 0.29297 1.7656 0.79297 2.2969 1.5 0.53906 0.69922 0.8125 1.5273 0.8125 2.4844 0 0.74219-0.17188 1.4648-0.51562 2.1719-0.34375 0.71094-0.82031 1.2773-1.4219 1.7031-0.60547 0.41797-1.3516 0.67969-2.2344 0.78125-0.55469 0.0625-1.8906 0.10156-4.0156 0.10938h-5.5938zm3.3281 2.75v3.7969h2.1719c1.2891 0 2.0977-0.015625 2.4219-0.046875 0.5625-0.070312 1.0039-0.26953 1.3281-0.59375 0.33203-0.32031 0.5-0.75 0.5-1.2812 0-0.50781-0.14062-0.92188-0.42188-1.2344-0.28125-0.32031-0.69922-0.51953-1.25-0.59375-0.33594-0.03125-1.2812-0.046875-2.8438-0.046875zm0 6.5469v4.3906h3.0781c1.1953 0 1.9531-0.03125 2.2656-0.09375 0.5-0.09375 0.90625-0.3125 1.2188-0.65625s0.46875-0.8125 0.46875-1.4062c0-0.48828-0.12109-0.90625-0.35938-1.25-0.24219-0.34375-0.58984-0.59375-1.0469-0.75-0.44922-0.15625-1.4336-0.23438-2.9531-0.23438zm28.109 7.1719h-3.6094l-1.4375-3.7344h-6.5781l-1.3594 3.7344h-3.5312l6.4062-16.469h3.5156zm-6.1094-6.5156-2.2812-6.1094-2.2188 6.1094zm7.9688 6.5156v-16.328h3.3281v13.547h8.2656v2.7812zm0 0" fill="none" stroke="#fff" stroke-linecap="round" stroke-linejoin="round" stroke-miterlimit="10" stroke-width="2"/>
<path d="m197.85 341.12v-16.469h12.203v2.7969h-8.875v3.6406h8.2656v2.7812h-8.2656v4.4688h9.2031v2.7812zm15.438 0v-16.328h3.3281v13.547h8.2656v2.7812zm35.188 0h-3.6094l-1.4375-3.7344h-6.5781l-1.3594 3.7344h-3.5312l6.4062-16.469h3.5156zm-6.1094-6.5156-2.2812-6.1094-2.2188 6.1094zm7.9688 6.5156v-16.328h3.3281v13.547h8.2656v2.7812zm21.609-6.0469v-2.7812h7.1719v6.5625c-0.69922 0.66797-1.7109 1.2617-3.0312 1.7812-1.3242 0.50781-2.6641 0.76562-4.0156 0.76562-1.7188 0-3.2188-0.35938-4.5-1.0781-1.2812-0.72656-2.2461-1.7656-2.8906-3.1094-0.64844-1.3438-0.96875-2.8008-0.96875-4.375 0-1.7188 0.35938-3.2422 1.0781-4.5781 0.71875-1.332 1.7695-2.3516 3.1562-3.0625 1.0625-0.55078 2.3789-0.82812 3.9531-0.82812 2.0391 0 3.6328 0.43359 4.7812 1.2969 1.1562 0.85547 1.8945 2.0391 2.2188 3.5469l-3.2969 0.625c-0.23047-0.8125-0.66797-1.4531-1.3125-1.9219-0.63672-0.46875-1.4336-0.70312-2.3906-0.70312-1.4609 0-2.6172 0.46484-3.4688 1.3906-0.85547 0.91797-1.2812 2.2812-1.2812 4.0938 0 1.9609 0.42969 3.4297 1.2969 4.4062 0.86328 0.96875 2.0039 1.4531 3.4219 1.4531 0.6875 0 1.3789-0.13281 2.0781-0.40625 0.70703-0.26953 1.3125-0.60156 1.8125-1v-2.0781zm25.078 6.0469h-3.6094l-1.4375-3.7344h-6.5781l-1.3594 3.7344h-3.5312l6.4062-16.469h3.5156zm-6.1094-6.5156-2.2812-6.1094-2.2188 6.1094zm7.8906 6.5156v-16.469h7c1.7578 0 3.0352 0.15234 3.8281 0.45312 0.80078 0.29297 1.4414 0.82031 1.9219 1.5781 0.47656 0.75 0.71875 1.6172 0.71875 2.5938 0 1.2305-0.36719 2.25-1.0938 3.0625-0.73047 0.80469-1.8203 1.3086-3.2656 1.5156 0.71875 0.41797 1.3125 0.88281 1.7812 1.3906 0.46875 0.5 1.0977 1.3867 1.8906 2.6562l2.0156 3.2188h-3.9688l-2.4062-3.5781c-0.85547-1.2812-1.4375-2.0859-1.75-2.4219-0.3125-0.33203-0.64844-0.5625-1-0.6875-0.35547-0.125-0.91406-0.1875-1.6719-0.1875h-0.67188v6.875zm3.3281-9.5h2.4531c1.5938 0 2.5859-0.066406 2.9844-0.20312 0.39453-0.13281 0.70312-0.36328 0.92188-0.6875 0.22656-0.33203 0.34375-0.75 0.34375-1.25 0-0.55078-0.14844-0.99219-0.4375-1.3281-0.29297-0.34375-0.71094-0.5625-1.25-0.65625-0.27344-0.03125-1.0781-0.046875-2.4219-0.046875h-2.5938zm13.281 9.5v-16.469h7c1.7578 0 3.0352 0.15234 3.8281 0.45312 0.80078 0.29297 1.4414 0.82031 1.9219 1.5781 0.47656 0.75 0.71875 1.6172 0.71875 2.5938 0 1.2305-0.36719 2.25-1.0938 3.0625-0.73047 0.80469-1.8203 1.3086-3.2656 1.5156 0.71875 0.41797 1.3125 0.88281 1.7812 1.3906 0.46875 0.5 1.0977 1.3867 1.8906 2.6562l2.0156 3.2188h-3.9688l-2.4062-3.5781c-0.85547-1.2812-1.4375-2.0859-1.75-2.4219-0.3125-0.33203-0.64844-0.5625-1-0.6875-0.35547-0.125-0.91406-0.1875-1.6719-0.1875h-0.67188v6.875zm3.3281-9.5h2.4531c1.5938 0 2.5859-0.066406 2.9844-0.20312 0.39453-0.13281 0.70312-0.36328 0.92188-0.6875 0.22656-0.33203 0.34375-0.75 0.34375-1.25 0-0.55078-0.14844-0.99219-0.4375-1.3281-0.29297-0.34375-0.71094-0.5625-1.25-0.65625-0.27344-0.03125-1.0781-0.046875-2.4219-0.046875h-2.5938zm12.594 1.375c0-1.6758 0.25-3.0859 0.75-4.2344 0.375-0.83203 0.88281-1.582 1.5312-2.25 0.64453-0.66406 1.3516-1.1602 2.125-1.4844 1.0312-0.4375 2.2188-0.65625 3.5625-0.65625 2.4141 0 4.3516 0.75781 5.8125 2.2656 1.457 1.5 2.1875 3.5938 2.1875 6.2812 0 2.6562-0.72656 4.7344-2.1719 6.2344-1.4375 1.5-3.3711 2.25-5.7969 2.25-2.4492 0-4.3984-0.74219-5.8438-2.2344-1.4375-1.5-2.1562-3.5547-2.1562-6.1719zm3.4219-0.125c0 1.8672 0.42969 3.2812 1.2969 4.25 0.86328 0.96094 1.957 1.4375 3.2812 1.4375 1.3203 0 2.4062-0.47266 3.25-1.4219 0.85156-0.95703 1.2812-2.3906 1.2812-4.2969 0-1.8945-0.41797-3.3047-1.25-4.2344-0.82422-0.92578-1.918-1.3906-3.2812-1.3906-1.375 0-2.4844 0.47656-3.3281 1.4219-0.83594 0.9375-1.25 2.3516-1.25 4.2344zm15.156-8.2188h6.5781c1.3008 0 2.2695 0.058594 2.9062 0.17188 0.64453 0.10547 1.2188 0.32812 1.7188 0.67188 0.50781 0.34375 0.92969 0.80469 1.2656 1.375 0.34375 0.57422 0.51562 1.2188 0.51562 1.9375 0 0.77344-0.21094 1.4805-0.625 2.125-0.41797 0.63672-0.98047 1.1172-1.6875 1.4375 1 0.29297 1.7656 0.79297 2.2969 1.5 0.53906 0.69922 0.8125 1.5273 0.8125 2.4844 0 0.74219-0.17188 1.4648-0.51562 2.1719-0.34375 0.71094-0.82031 1.2773-1.4219 1.7031-0.60547 0.41797-1.3516 0.67969-2.2344 0.78125-0.55469 0.0625-1.8906 0.10156-4.0156 0.10938h-5.5938zm3.3281 2.75v3.7969h2.1719c1.2891 0 2.0977-0.015625 2.4219-0.046875 0.5625-0.070312 1.0039-0.26953 1.3281-0.59375 0.33203-0.32031 0.5-0.75 0.5-1.2812 0-0.50781-0.14062-0.92188-0.42188-1.2344-0.28125-0.32031-0.69922-0.51953-1.25-0.59375-0.33594-0.03125-1.2812-0.046875-2.8438-0.046875zm0 6.5469v4.3906h3.0781c1.1953 0 1.9531-0.03125 2.2656-0.09375 0.5-0.09375 0.90625-0.3125 1.2188-0.65625s0.46875-0.8125 0.46875-1.4062c0-0.48828-0.12109-0.90625-0.35938-1.25-0.24219-0.34375-0.58984-0.59375-1.0469-0.75-0.44922-0.15625-1.4336-0.23438-2.9531-0.23438zm28.109 7.1719h-3.6094l-1.4375-3.7344h-6.5781l-1.3594 3.7344h-3.5312l6.4062-16.469h3.5156zm-6.1094-6.5156-2.2812-6.1094-2.2188 6.1094zm7.9688 6.5156v-16.328h3.3281v13.547h8.2656v2.7812z" fill-rule="evenodd"/>
</g>
</svg>
