<?xml version="1.0" encoding="UTF-8"?>
<svg width="480pt" height="500pt" version="1.1" viewBox="0 0 480 500" xmlns="http://www.w3.org/2000/svg">
<g id="a">
<rect width="480" height="500" fill="none"/>
<path d="m470.41 192.36-0.085937 0.16016-0.30859 1.1602-0.33203 1.0977-0.86719 0.62891-0.98828 0.40234-0.14844 1.1641-1.2227 0.59375-0.96875 0.64453-0.49609 0.98438-0.83203 0.60547-1.168 0.67969-0.6875 0.75781-0.35547 1.1328-0.64062 0.97656-0.23828 1.0938 0.10938 1.1133-0.15234 1.1133 0.25 0.98047 0.52734 1.3359 0.57031 0.9375-0.20312 1.0703-0.34375 1.207h-1.0742l-1.0742 0.36328-1.1602-0.16406-1.1836 0.10938-0.85547 0.94531-0.28906 0.96484 0.39844 1.3281-1.0117 0.94531-0.375 1.3125-1.2656 0.33984-0.039063 1.3633-0.6875 1.1641-0.98438 0.65625-0.63672 0.81641 0.12891 1.3086-0.63672 0.85938-0.92969 0.73438-1.0781 0.0625-1.3203 0.32422-1.1484 0.43359-1.5117 0.73438-1.1055 0.46094-0.70703 1.2969-0.70703 0.98047-0.72266 0.83984-0.37109 1.5508 0.14453 1.1953-0.15234 1.5156 0.16406 0.98828-1.1914 0.47266-1.3594 0.15625-1.2148 0.74609-0.73828 0.83594-1.082 0.082031-0.60156 0.89844-0.375 1.0156-0.90234 0.57031-0.50391 0.88672 0.81641 0.96094 0.32031 1.2734 0.42578 1.3008 0.48047 1.3438 0.83594 0.8125 0.71484 0.74609 0.93359 0.69922 0.77344 0.92969 0.97266 1.0312 0.37891 1.2812-0.22656 1.3477 0.30078 1.1172-0.070312 1.1211-0.23438 1.1406-0.69531 0.99219-0.375 1.1641-0.85938 0.63672-0.63672 0.89844 0.59766 1.1992-0.20312 1.0391 0.62109 1.0117 0.88281 0.57812 0.72656 0.96094 0.82812 1.5234 0.76172 0.71875 1.1289 0.16406 0.94141 0.53906 0.83203 0.92188-0.21484 1.1055-0.28516 0.97656 0.15625 1.3906 0.29297 0.96875 0.63672 1.0195-0.17578 1.1484 0.57422 0.97266 0.16406 1.1016 0.66797 1.4258 1.3516 0.23047 1.1289 0.28906-0.18359 1.2461-0.19141 1.0039 0.44922 0.91016 0.5625 1.1641 0.12109 1.1875-0.023437 1.1133 0.089844 1.1094-0.089844 1.1797-0.1875 1.0547 0.11719 1.2969-0.10547 1.168 0.25 1.1445 0.73438 0.82422 0.82812 0.88672 0.6875 0.84375-0.25 1.1523-0.13281 1.0742 0.058594 1.0742-0.41016 0.94141 0.34766 0.95312 0.11328 1.0078 0.96484 0.49609 0.28906 1.0703 0.49219 1.2031 1.0742 0.81641 0.55859 0.85156-0.14844 1.2773 0.57422 1.1719-0.11719 1.0078 0.55469 0.83594 0.63281 0.96875 0.92969 0.36719-0.45312 0.96875-1.3438 0.97266-0.89844 0.54688-1.0703 0.19141-1.1211-0.097657-1.125-0.33984-1.2969-0.13672-1.2656-0.62109-0.99609 0.44531-0.40625 0.99219-0.875 0.77734-1.1211 0.48047-1.0391 0.54297-0.98828-0.30469-0.65625-0.80078-1.3828-0.011719-0.99219-0.26562-1.0977-0.32031-1.1875 0.078125-1.0508 0.10547-1.1133 0.085938-0.84766-0.63281-0.9375-0.42578-1.1562-0.23828-1.0625-0.058594-1.0664 0.41016-0.92969 0.88672-0.53516 0.93359-0.18359 1.0078 0.35938 1.0273 0.46094 0.95703 0.19141 0.98828 0.71484 0.72656 0.52344 1.0312 0.92578 0.78516 0.32812 1.2031 0.30078 1.0547 0.30859 0.99219 0.3125 1.0625-0.49219 0.91016 0.21875 1.0234 0.76953 0.74609 0.85156 0.72656-0.03125 1.1367-0.78125 0.70703 0.046875 1.1914-0.17578 1.0898-0.32422 1.0352-0.12109 1.2266-0.58203 0.83203 0.16016 1.082 0.45703 1.0195 0.10156 1.0469-0.74609 1.0547-0.36719 1.1875-0.023437 1-0.089844 1.1523-0.15625 1.0312-0.45312 0.91016 0.12891 1.2656-0.25781 1.2773-0.88672 1.0039-0.58594 0.92969-0.97656 0.96484-0.18359 1.0859-0.011719 1.2617 0.24219 1.1133 0.14844 1.1172-0.17969 1.082-0.24219 0.98047-0.13281 1.1641 0.16016 1.082-0.12891 0.99609-0.30469 0.97656 0.03125 1.0195 0.30078 0.98047-0.0625 1.0078 0.35547 0.96484-0.039062 1.1094 0.63281 0.82812 0.44922 1.0039 0.44531 1.1914 0.26172 1.0469 1.0391 1.0938 0.92578 0.40625 1.0703 0.61719 0.070312 1.1211-0.066406 1.043-0.16406 0.98828 0.42969 0.95703 0.11328 1.0273 0.45312 0.98828 0.5 1.0859 0.82422 0.71094 0.64453 0.875 1.0078 0.29688 0.10156 1.0508 0.50391 0.875 1.0195 0.62891-0.71094 0.99219 0.48438 0.91797-0.003906 1.0625-0.16797 1.0352 0.98047 0.42188 0.76562 0.73047 0.89453 0.59766 0.14844 1.1523-0.050782 1.0898 1.0742 0.51172-0.57031 0.87109-0.85547 0.74219-0.89453 0.80078-0.76562 0.78906-0.75781 0.75781-0.35156 0.98828-0.82812 0.70312-0.39844 0.94531-0.46094 0.92969 0.13281 1.0195-1.25 1.0312-0.95703 0.33984-1.0273 0.09375-0.99609 0.30469-1.6484 0.85156-1.543 0.90234-0.90625 0.54297-0.92188 0.83984-0.83984 0.92188-0.91797 1-0.95312 0.87109-1.0352 0.26953-1.0117-1-0.83984-0.74609-0.6875-0.87109-1.1562-0.60547-1.7578-0.75-1.0469-0.32422-0.9375-0.41406-1.0312-0.42578-0.75391-0.83203-0.25391-1.1055-0.76953-1.1133-0.71484-0.89062-1.1562-0.44922-0.9375-0.46875-0.96875-0.26953-0.9375-0.71875-1-0.39062-0.96875-0.36719-0.98438 0.33203-1.0234 0.070312-0.96484 0.26562-0.95312 0.44141-0.33594-1.0586-1.0156-0.48828-1.0781-0.003906-0.57031 0.88281-0.625 0.88281-1-0.11328-0.41016 0.93359-0.95703 0.48828-1.0352 0.70312-0.52734 1.0781-0.80859 0.65625-0.81641-0.58203-1.0391-0.41406-0.9375 0.45703-1.0977 0.25391-0.85156-0.625-0.99219 0.23047-0.94922 0.52734-1.0508-0.47266-0.92188-0.42578-0.86719 0.71484-0.92188-0.42578-0.69141-1.0039-0.63672-0.85938-0.35156-1.1523 0.054688-1.0469-0.37109-1.1289-0.1875-1.0039 0.26172-1.2578-0.26172-1.1367-0.875-0.89062-1.1641-0.35156-0.8125-0.64062 0.10547-1.2578 0.097657-1.0586-0.5-1-0.42578-1.1484-0.32031-1.1016-0.85156-0.60156-0.11719-1.0391 0.94141-0.34766 0.59375-1.0273 0.089844-1.3398-0.19922-1.0195-0.58984-0.85938 0.51953-1.0391 0.84375-0.66797 0.51172-0.88672 0.12109-1.1094 0.39062-1.1094-0.015625-1.0234-0.078125-1.1406-0.80469-0.75781-1.1875-0.23828-0.32812 0.98438-0.17969 1.0312-0.79688 0.96484-1.0625 0.46484-1.0078 0.41406-0.99219 0.41797-0.79688 0.90625-0.70312 1.1133-0.74609 1.3516-0.66797 0.8125-1.082 0.023437-1.0352 0.57422-0.79297 0.67188-0.99219 0.83984-1.043 0.53906-1.0312 0.019532-1.1055-0.14453-1.3008-0.82422-1.1211 0.65234-0.32422-1.0117-0.82422-0.6875-1.1445 0.03125-1.1406 0.13281-1.0156-0.058594-1.1758 0.097657-0.98828-0.46875-0.36719-1.1445 0.33594-1.0508-0.45312-1.0938-0.33984-1.1211 0.39844-1.0195 0.011719-1.3398 0.19531-1.0312 0.6875-0.89453 0.50781-0.90625-0.34766-1.0234 0.91406-0.82812 0.80859-0.68359 0.16406-1.1602 0.41016-1.0078 0.34766-1.1992 0.29297-1.0781 0.45703-1.0664 0.32031-1.0547-0.50781-0.875 0.73828-0.92578-0.48438-1.0781-0.82031-0.80859-0.89453-0.73047-0.74219-0.71484-0.72266-0.70703-0.79297-0.61719-1.0625-0.22656-0.44922-0.89844-0.38672-0.95703-0.91797-0.47266-1.0234 0.30469h-1.0195l-1.1367-0.35547 0.015625-1.2227 0.60547-0.85547 0.88672-1.0117 0.75-0.82812 1.1094-0.57422 0.79688-0.60547 0.29688-1.25-0.25781-0.97266-1.0703-0.097656-1.0195-0.44922-1.4258-0.9375-0.55078-1.043-0.87109-0.67578-1.0664-0.47656-1.0195-0.023438-0.82031-0.66016-0.51953-0.89844-0.53906-0.98047-1.2109-0.36328-1.2031 0.15234-1.2227-0.070312-0.91016 0.70312-1.0352 0.92578-0.78906 0.76953-0.26172 1.1484-0.95703-0.90625-0.75-0.73047-0.32422-1.1758-0.36328-0.94922-1.0664 0.0625-0.39453-0.92578-0.55859-1.0273-0.40625-1.1719-0.71875-1.1289-0.39844-1.2656-0.48047-0.89844-0.51172-0.89453-0.49609-0.96484-0.45703-1.0312-0.20703-1.0938-0.10938-1.2812-0.73047-0.90234-0.22656-1.0664-0.20703-1.0352 0.011719-1.0352-0.17578-1.0977-0.69531-0.83594-0.23047-1 0.25781-1.1602-0.14062-1.0859 0.45703-1.0938 0.38672-0.98047 0.73828-1.0078 0.63281-0.84766-0.75-0.83594-0.70703-0.85547-0.80859-0.61328-1.0547-0.23438-0.69922-1.2383-0.90234-0.66797-0.35938-1.2188-0.18359-1.1719-0.66016-0.92969-0.71094-0.92969-0.98047-0.77344-0.80078-0.8125-0.93359-0.72656-0.78906 0.79688-0.22656 1.0664-0.54688 0.88281-1.0938 0.33984-0.87109 0.59766-1.0039 0.47656-0.79297 0.77734-0.94531 0.49219-1.1172-0.039063-0.4375 0.91016-0.52734 0.98828-0.98828 0.52344-1.0312-0.39844-0.47656 0.87891-0.5625 1.168-0.57031 0.99219-0.19531 1.1836-0.34766 0.96484-0.11328 0.99609-0.15625 1.1641-0.26172 0.99609-0.058594 1.1914-0.28516 1.0703-0.066406 1.0625-0.375 1.1328 0.18359 1.0859-1.1719 0.39453-0.71875 1.0781-0.11719 1.0195-0.17578 1.0938-0.050781 1.2383-0.53516 2.2656-0.042968 1.8516-0.050782 1.457-0.20312 1.4453-0.027343 1.5391-0.019532 1.5391 0.66016 1.0078 0.16406 1.0312-0.85938 1.0078-0.24609 1.2773-0.56641 1.1602-0.56641 1.0195-0.33594 1.2891 0.03125 1.7148-0.37891 1.0781-0.097656 1.1992-0.35156 1.2969-0.62891 1.4961-0.51953 0.98438-0.49609 0.97656-0.21094 1.2969 0.19922 1-0.5 0.94141 0.17578 0.99219 0.16406 1.0273-0.046875 1.0859-2.6562 2.707-3.2188 1.0156-0.875 0.94922-0.59375 1.6953-0.51953 1.0508-0.63672 0.78125-0.62891 0.8125-0.78125 1.0781-1.0273 1.2812-0.84766 0.55469-0.89062 1-0.58203 0.82031-0.55469 0.89453-1.0508 0.28125-0.85156 0.59375-0.61328 0.98047-0.86719 0.62891-0.57812 0.82031-1.0117 0.45703-0.64062 0.95312-1.0547 1.0039-0.46484 0.89453-0.74219 0.78906-0.64844 1.0391-0.96484 0.85156-0.74609 0.875-0.91016 0.4375-1.168 0.66797-1.1289 0.26953-0.39062 0.98828-0.44141 1.875-0.039063 1.3359-1.5312-0.57812-2.0703-0.066406-1.0117 0.082031-1.0625 0.13281-1.5391 0.31641-2.1211 0.34766-1.625 0.082032h-1.8906l-2.1055-0.1875-1.4102 0.23828-1.2578 1.1094-1.4102 0.71484-1.3438 0.54688-2.8672 0.82812-1.3516 0.32812-1.0508 0.25391-1.3477 0.37891-1.6367 0.51562-1.1445 0.17969-1.1758 0.23438-2.8164 0.79297-2.8359 1.3125-3.5312 2.0195-2.8828 1.7422-1.3594 0.91016-1.5898 1.4102-0.92969 1.1445-1.4219 1.7539-0.76953 0.6875-0.55078 0.83984-0.17578 1.0938-0.33203 1.1289-0.69531 0.87891-0.91016 0.875-0.84766 0.59766-1.0117 0.76172-1.4062 1.8086-16.59 24.426-1.7188 2.3438-1.7422 2.5352-2.7695 4.0703-3.3242 4.7383-1.4336 2.3086-3.6289 5.1797-1.8555 2.6523-0.78906 1.1211-0.80469 1.1992-2.3203 3.4375-2.1328 2.9805-0.63672 0.89062-1.8711 2.7578-1.0703 1.5781-0.9375 1.3438-1.9883 2.8438-1.9141 2.8125-1.2344 1.7812-1.6367 2.3477-2.1992 3.1602-2.0391 2.9414-0.96875-0.30078-1.3633-0.67969-1.2383-0.68359-1.0273-0.58594-1.0273-0.53516-1.0664-0.59375-1.1172-0.59375-0.95312-0.48438-0.95703-0.5-1.2578-0.58984-0.90625-0.48047-1.2852-0.62109-1.3789-0.66406-1.3555-0.62109-1.7109-0.79297-0.92578-0.45703-1.1406-0.43359-1.2578-0.53906-0.96484-0.39062-1.0586-0.38672-1.1914-0.44141-1.457-0.58203-1.3359-0.44141-1.4102-0.51953-0.96484-0.42969-1.1719-0.54297-0.92188-0.42188-1.543-0.76953-1-0.56641-0.94141-0.58984-1.418-0.98438-0.98047-0.74609-0.76953-0.63672-1.3047-1.2344-0.86719-0.85156-0.83203-0.94922-0.75391-0.78906-0.82812-0.8125-0.77734-0.78906-0.81641-0.75391-1.0273-1.043-0.90625-0.82422-0.73828-0.68359-0.92188-0.85547-1.3867-1.2266-1.0391-0.93359-0.80078-0.73047-0.99609-0.82812-1.332-0.96875-1.1328-0.94141-0.91797-0.66016-1.8086-1.3281-0.85938-0.64062-1.043-0.72656-1.1133-0.76172-1.0391-0.74609-1.1055-0.73828-1.1758-0.73047-0.875-0.55469-1.2578-0.8125-1.2969-0.77734-1.3203-0.84766-1.3438-0.82422-1.1992-0.69531-0.88672-0.5625-0.99219-0.58203-0.85938-0.53906-1.0547-0.62109-1.6719-0.9375-1.0547-0.64844-1.2773-0.71875-1.2773-0.80078-1.2266-0.74219-1.7852-1.1914-1.168-0.62891-1.3711-0.74609-0.91406-0.50391-1.0508-0.58594-1.7852-0.92578-1.1445-0.70703-1.3555-0.80469-1.3555-0.83594-1.2578-0.85547-0.96484-0.64062-1.0898-0.68359-0.83984-0.58984-1.1875-0.76172-0.94141-0.64844-0.875-0.50391-1.043-0.66016-1.4062-1.1406-0.77734-0.76172-0.9375-0.97266-0.68359-0.875-0.67188-0.91406-0.37109-0.94531 0.070312-1.0273-0.33594-1.082-0.53516-0.87109-0.39453-1.1445-1.3164-1.4297-0.97266-1.1758-0.59375-0.95703-0.55078-0.90234-0.55078-0.99609-0.48047-0.9375-0.69141-1.7461-0.35156-1.0469-0.58203-1.7148-0.36328-1.0391 0.007813-1.2344 0.71484-1.1914 0.0625-1.2812-0.78125-2.4219-0.074219-1.0273 0.3125-1.0586-0.085938-1.0664 0.62891-0.96484 0.035156-1.3594-0.066406-1.293-0.14453-1.6953 0.23828-1.1836 0.046875-1.4492-0.21484-1.0391-0.47656-0.97266-0.32031-1.0312 0.74609-0.96875 0.72266-0.83594 0.94922-0.74219 0.80078-1.1641 0.93359-1.1953 0.54688-0.93359 0.28516-1.1562 0.51562-0.89453 0.12891-1.1211-0.03125-1.0664 1.168-0.27734 1.1484-0.24219 0.97266 0.75781 1.1836-0.21875 1.2578-1.1523 0.62891-1.0703 0.47266-1.5078 1.0039-1.1797 0.51562-1.1484 0.17969-1.1562 0.44141-1.1719-0.18359-1.0234-0.23828-1.0312 0.62891-0.80469 0.81641-0.65625 1.0312-0.16016 1.0312-0.51953 0.83594 0.62891 0.78125 0.62891 0.63281 0.78906 1.1406 1.1523 0.55078 0.88672 0.63281 0.98828 0.90625 0.71094 0.22266 1.0547 0.81641 0.77734 0.97266 0.67578 1.6719 0.99609 1.0273 0.48047 1.0938-0.089844 1.1055 0.30859 1.1836 0.49609 0.91016 0.45312 1.4219-0.47266 1.0156-0.039062 0.32422 0.97266 1.3086 0.15234 1.4375-0.078125 1.0312 0.53125 0.71484 0.79297 1.0312-0.17188 1.1133 0.32422 1.0234 0.22656 1.2383-0.039063 1.1719-0.070312 1.1406-0.42578 0.98047-0.44922 1.2969-0.51172 1.1992-0.53516 0.90234-0.59375 1.0508-0.80078 1.0469-0.77734 0.90234-0.69531 1.0859-1.1797 1.1953-1.2617 0.80469-1.168 0.50391-1.0078 0.58984-0.97656 0.36719-1.3047 0.27344-0.98047 0.55859-1.2148 0.51172-1.0352 0.57812-0.83984 0.57422-0.86719 2.2891-4.3047 0.37109-1.1602 0.24219-1.1172 0.33203-1.2969 0.25391-1.3359 0.19531-1.0469 0.21094-1.2617 0.0625-1.2266 0.10156-1.332 0.050781-1.0586 0.21875-1.4258 0.11719-1.6484 0.007812-1.3086 0.13672-1.3203-0.011719-1.2578 0.10156-1.2109-0.035157-1.3047-0.14062-1.4844-0.12891-1.2891-0.11328-1.2891-0.22266-1.0312-0.25781-1.0312-0.44141-1.207-0.44531-1.0586-0.39062-1.125-0.46484-1.1172-0.28906-1.125-0.32422-1.3203-0.23828-1.3867-0.49219-1.1562-0.29297-0.95703-0.27734-1.0391-0.37109-1.0117-0.58594-0.91797-0.32812-1.1211-0.40234-0.95312-0.39062-0.94531-0.36328-1-0.5-1.0234-0.55078-1.1367-0.60938-1.3672-0.54297-0.84375-0.48047-1.1406-0.375-1.1016-0.26562-1.1641-0.61328-1.4531-0.68359-1.3398-0.53125-0.95312-0.74609-1.1484-0.46484-1.0078-0.68359-1.0781-0.84375-1.1094-0.55859-0.87109-0.51953-0.89062-0.85547-1.1172-0.60547-1.0625-0.9375-1.2891-0.65625-0.80859-0.76953-0.90234-0.98438-1.2734-0.74609-0.91016-0.72266-0.83203-1.0625-1.0352-0.86719-0.94922-1.457-1.1719-0.875-0.67969-0.69141-0.77344-0.85547-0.98828-1.1562-1.1484-1.1289-1.3203-0.89453-0.90234-0.93359-0.9375-1.043-1.1992-0.86719-0.85938-0.87109-1.0586-0.96875-0.80078-0.70312-0.79297-0.87109-0.87109-0.74219-0.67188-0.83984-0.89844-0.94922-0.82812-1.2461-1.1328-0.91797-0.82031-0.76562-0.67188-0.85938-0.70312-1.2656-0.92578-1.082-0.87891-1.2812-0.97656-0.86719-0.51562-1.375-0.93359-1.0469-0.37109-1.0078-0.32422-1.125-0.22656-0.90625 0.50391-0.92188 0.66016-0.95312 0.33594-0.80469-0.80859-0.5625-0.99609-0.41016-1.0664-0.3125-1.1523-0.61328-0.88672-1-0.91016-0.80859-0.59375-0.13672-1.1484-0.60938-1.0781-0.52734-0.98438-0.63672-0.88281-0.6875-0.88281-0.94141-0.42578-0.89844-0.50781-0.69922-0.73047-0.80469-0.93359-0.76562-0.69141-0.83594-0.85547-0.80078-0.73438-0.82031-0.89062-0.78906-0.70703-1.0703-1.0039-0.76562-0.67578-0.86719-0.75781-1.1758-0.51562-0.68359-0.74609-0.38281-1.0508 0.17188-1.0156 0.80859-1.5469 0.29688-0.96094 0.84375-0.58203 0.82812-0.63672 0.82422-0.625 0.6875-0.74219 0.24219-1.0352 0.60156-1.1484 0.37891-1 0.28125-1.4102-0.097656-1.1406-0.33984-1.2969-0.54297-1.2227-0.71484-0.71875-0.36719-0.94922-0.28516-0.96094 0.98438-0.48828 1.0664-0.15234 0.78125-0.65625 0.89453-0.85547 0.09375-1.0859 0.14844-1.125-0.37109-1.4531-0.41016-1.3672-0.46094-0.94141-0.41797-1.1133-0.86328-0.55078 0.74219-0.6875-0.058594-1.0039 1.0352-0.64844 0.4375-0.91016 1.0469 0.10547 0.86719 0.54688 1.3438 0.36719 0.99609-0.41797 1.0469-0.68359 0.76172-0.66797 1.1641-0.21875 0.90625 0.66797 1.3359 1.3086 0.625 0.83984 1.0781 0.37891 0.17578-1.0039 0.40234 0.92578 0.98438-0.5625 1.0586 0.011718 1.1289-0.011718 0.98828-0.22656 0.92188-0.76172 0.60938-1.1602 1.0664-0.26562 0.69141-0.77344 0.53516-0.86719 0.39062-1.0156 0.57031-1.2812 0.98047-0.70312 0.29297-1.2773 0.097657-1.1367-0.066407-1.2656-0.1875-1.1875-0.18359-1.1641-0.28125-1.082-0.30859-1.2969-0.36328-1.0469-0.67578-1.2852-0.52734-1.3047-0.56641-1.1406-0.75391-1.4375-0.51172-1.082-0.90625-1.4844-0.69141-1.1055-0.66406-0.77344-0.73438-0.89062-0.75781-0.92578-0.75-0.75391-0.79688-0.86328-0.82812-0.83984-0.69922-0.73047-0.75781-0.83203-0.94531-0.92578-0.91406-0.76562-0.81641-0.77734-0.73047-0.69922-0.72266-0.80078-0.90625-1.0586-0.78125-0.91797-0.69141-1.1602-0.49609-0.97656-0.41406-0.92578-0.76953-1.4844-0.86328-1.0547-0.95703-1.2461-0.87109-1.1484-1.0117-1.4375-0.61719-0.83594-0.63281-0.81641-0.79688-0.92969-0.71875-0.83984-0.78125-0.93359-0.82812-0.91797-1.0547-1.1953-0.77344-0.87891-0.8125-0.98438-1.0039-1.0977-0.78906-0.98047-1.0195-1.1328-0.80859-0.92188-0.83594-0.91016-0.75391-0.78906-0.67969-0.80859-1-1.1367-0.87891-0.95312-0.96875-1.0117-1.1641-1.3164-0.87109-1.0234-0.73438-0.90625-0.9375-1.125-0.69922-0.77734-0.72266-0.81641-1.043-1.207-0.83203-0.96875-0.97656-1.1445-1.4062-1.6016-0.98047-1.0039-0.69141-0.76172-0.83203-0.84766-0.72266-0.875-0.94922-0.97656-0.87891-1.082-0.84375-0.98047-0.93359-1.0508-1.5352-1.9492-0.64844-0.86328 0.22266-1.0469-0.53906-1.6016 1.3047-0.54688 1.2188-0.18359 0.84375-0.79688 0.80469-0.95312 0.33984-1.3359 0.32031-1.332 0.26562-0.97266 0.67969-1.1367 0.42578-1.1133 0.074218-1.2383 0.33984-1.0312 0.57031-0.98828 0.003906-1.1211-0.078125-1.0312 0.007812-1.0312 0.27734-1.125 0.375-1.0977 0.89062-0.94531 0.29297-1.4922 0.21875-1.0938 0.47656-0.94531 0.70312 0.73047 0.83984-0.71094 0.30469-0.99219-0.19531-1-0.42188-1.2383-0.37109-1.1914 0.28906-1.2305-0.25781-1.2188-0.42969-1.0156 0.32031-1.0469-0.28516-1.043-0.46875-0.89062-0.66406-0.94922-0.54297-0.98828-0.71094-1.5469-0.81641-1.6172-0.45703-0.92969-0.62891-0.8125-0.15625-1.0117-0.39844-1.0195 0.1875-1.0234 0.69141-1.0938 0.29688-1.1523-0.39062-0.99609 0.84375-0.69141 0.71094-0.70703 0.61719-0.85547 1.0078 0.23047 1.1328-0.070312 0.75781-0.83203 0.66797-0.75781 0.1875-0.99609 0.61328-0.98047 0.70312-0.76953 0.42578-1.0703 0.082031-1.0508 0.30469-0.98047 0.44922-1.0859 0.054687-1.2344 0.84766-0.76172 0.51172-1.0352 0.375-1.0664 0.13281-1.2031-0.14844-1.0898 0.13281-1.0352-0.10938-0.99219 0.46875-0.97266 0.035156-1.4688-0.015625-1.0703 0.28125-1.0625-0.0625-1.3906-0.17188-1.1914-0.125-1.1602-0.28516-1.2617-0.25391-1.1328-0.35938-0.94531-0.44922-0.94141-0.44531-0.90234-0.35156-1.0195 0.23047-1.0391 0.44531-0.90625 0.40234-1.0312 0.17969-1.0391 0.097656-1.0859 0.011719-1.3945 0.28516-1.0547 0.75-0.71875 0.69141-1.5312 0.70703-0.84375 0.41016-0.98828 0.625-0.97266 1.0039-0.11328 1.0039-0.31641 1.1641-0.23828 1.1094-0.60156 0.75-0.78516 0.53125-0.89844 0.65234-0.95703 0.87109-0.75 0.86328-0.58203 1.0742-0.43359 1.1562-0.34766 0.88281-0.64062 1.082-0.48828 1.1484-0.22656 0.88672-0.58594 0.93359-0.82812 0.71094-0.875 0.71484-0.94922 0.78516-1.0586 0.69922-1.0586 0.77734-0.9375 0.6875-1.1289 0.66016-0.87891 1.0859-0.21094 1.0781 0.20312 0.97266-0.48047 0.90625-0.6875 0.78906-1.0273 0.70703-1.168 0.54688-0.86719 0.66406-1.4141 0.63281-0.94531 0.55078-1.0195 0.50781-0.89844 0.57422-0.98828 0.55078-0.88672 0.66406-0.92969 0.96484-0.63281 0.76562-0.80859 0.82031-0.64062 1.1914-0.5625 1.0625-0.67188 0.98828-0.30469 1.0586-0.019531 1.0391-0.6875 0.9375-0.46094 1.0117 0.14453 0.83203-0.91406 0.49609-0.92578 0.52344-0.90625 0.64062-0.92969 0.90234 0.5 0.57812 0.875 0.78516 0.79297 0.33594 0.96484 0.98438 0.48047 0.91406 0.58594 0.59766 0.91406 1.2031 0.30859 1.3359-0.33594 1.2422-0.30859 1.0898 0.48047 0.75 0.90234 1.1055-0.09375 0.78906 0.85156 1.0156 0.72656 0.9375 0.58594 1.0781 0.12109 0.24609 0.98047 0.48438 0.96484 0.019531 1.0625 0.93359 0.86328 0.29688 0.98047-0.46094 0.99219-0.40234 1.1094-0.87109 1.1758-0.082032 1.0391 0.74219 0.6875 1.2031 0.26562 1.4141-0.14062 1.1289-0.64453 0.92969-0.41406 0.87109 0.71484 0.50391 0.95703 0.91797 0.4375 0.88281-0.66797 0.35547-1.0625 1.1797-0.1875 1.0508 0.45703 1.2188 0.875 1.332 0.24609 0.95312 0.36328 0.88281 0.96875 1.293 0.5 0.97656 0.44922 0.54688 0.98047 1.1602 0.23438 1.1328-0.21484 1.1797 0.023437 0.91406-0.65234 0.94922 0.42969 1.2422-0.32031 0.98438 0.32031 0.94922-0.48438 1.1719 0.12109 1.0703-0.019531 0.94922-0.33203 1.0703-0.40625 1.2852-0.35156 1.0977-0.42578 0.88281-0.625 0.96094-0.41016 0.98828-0.3125 0.84375 0.58203 1.1992 0.15234 1.0898 0.16797 1.0508 0.046875 0.65625-0.9375 1.1328-0.042969 1.1484-0.34375 1.1055 0.20703 1.0352 0.21484 0.79688 0.71094 1.0117-0.23828 1.1914 0.19922 0.29297 0.96875 1-0.44531 1.0508-0.13281 1.1055 0.089844 0.64062 0.80078 0.61719 0.88281 1.0312 0.56641 1.0664 0.36719 0.79688-0.6875 1.168-0.11719 1.0195-0.15234 1 0.027344 1.0977 0.62891 0.71875 0.9375 1.0078 0.39844 0.92578 0.55859 0.625 0.93359 0.79297 0.74609 0.85547 0.70703 0.76172 0.72656 0.95703 0.53906 0.96094 0.54297 0.89844 0.73828 0.96875 0.49219 0.70703 0.71875 1.0703 0.10938 1.0039-0.23828 1.1133 0.042968 1.1758 0.26172 1.0391-0.019531 0.99609-0.26562 1.0156-0.59766 0.37109-1.1328 0.60156-0.95312 0.60938-1.0898 1.0508 0.35938 1.0195 0.14062 1.0703 0.21094 0.11719-1.0117 0.027344-1.0312 0.54297-0.85156 0.67969-0.81641 0.83203-0.66016 0.67578-0.74609 0.76953-0.75391-0.17188-1.0312 0.91797-0.47266 0.90234-0.51953 0.97656-0.32812-0.13281-1.0117-0.027344-1.0508 1.0625 0.16016-0.37109-0.96094 0.44141-0.92188 1.0312-0.20312-0.035156-1.0078 1.0078-0.80078 0.49219-0.91797 0.039063-1.0195 1.0234-0.078125 0.40625-0.94922 0.21875-1.1055 0.64844-1.0234 0.39062-1.0977 1.0508-0.074218 0.33203-1.0742 0.17578-1.0312 0.5-1.1602 0.75391-0.75 0.59766-1.043 1.1562-0.73828 0.89453-0.47266 0.9375-0.44141 0.99219-0.5625 0.94922-0.34375 0.96094-0.28125 1.0469-0.15625 0.77734 0.72266 0.003906 1.1641 0.91797 0.69141 0.37109 1.3125 0.87891 0.87109 0.89844 0.86328 0.69922 0.875 0.26562 1.1875-0.67188 1.1484 0.34766 0.96484 0.93359-0.59766 0.91406-0.49219 1.043 0.1875 0.67188-0.98047-0.17578 1.0508 0.125 1.125 0.003906 5.082-0.097656 5.7891-0.011719 6.2656 0.90625-0.48828 0.25-0.97656 1.1016-0.86719 1.0195-0.58594 1.2461 0.28516 1.1797 0.875 0.92578 0.45312 0.46484 0.95312 0.41406 1.1133 0.91406 0.61719 1.0703-0.023437 0.87891-0.61719 1.3281-1.0977 1.2344-0.89062 1.3359 0.66016 1.2266-0.38672 0.88672-0.875 0.72266-0.73047 1.0742 0.35156 0.36328 0.99219 0.47266 1.1328 0.71875 0.83203 0.67188 0.78516 0.50391 0.91797 0.9375-0.53906 0.58203-1.1719 0.99609-0.58203 1.3281 0.59375 1.0586 0.27734 0.95703-0.62109 1.1602-0.84375 0.92969-0.76172 0.56641-0.94922 0.83984 0.64062-0.26562 1.293-0.77734 0.83594-0.82812 0.625-0.88281 0.49219-0.59766 0.83594-0.86328 0.81641-0.69531 1.0938-0.72266 0.73828-0.42969 0.91016-0.66797 0.77344-0.77344 0.92969-0.875 0.98438-0.75 0.69531-0.09375 0.99609-0.5 0.94531-0.99609 0.54297-0.78906 0.71094-0.86719 0.52344 0.03125 1.0703 0.019531 1.082-0.86328 0.91797-0.90234 0.74219-0.85156 0.71875-1.0156 0.26562-0.73047 0.8125-0.76562 0.67188-0.94141 0.58594-0.80469 0.63281-0.60156 0.80078-0.85547 0.58594-0.73438 1.0234-0.82812 0.71484-0.57422 0.83984-0.64844 0.97656-0.89844 0.71094-0.77344 1.0586-0.63672 1.1719-0.33203 0.97656 0.17188 1.1133-0.64062 0.99609-0.57422 0.88672-0.65625 0.89844-0.91016 0.42578-0.80469 0.65234-0.1875 1.0391-0.48047 0.90625-0.79297 0.89453-0.28125 1.043 0.54297 0.91016 0.84766 0.66016-0.89453 0.66797 0.51172 1.2656-0.57422 0.93359-0.21094 1.1406 0.50781 1.0508-0.10547 1.0273-0.011719 1.0469-0.22266 1.0508 0.57031 0.83984 0.66406 0.90234-0.5 0.9375-0.11328 1.082 1.0352-0.25781 0.60547 1.125 0.44922 0.99609 1.1719 0.10156 1.1094 0.44922 1.0117 0.1875 0.21875 1.0234 0.85547 0.57812-0.035156-1.2188 1.0195 0.24219 1.1094 0.57812 0.71875 0.88672 1.2188 0.53125 0.86719 0.75391-0.042968 1.0625 0.76562 0.79297 0.89062 0.55859 0.86719-0.57031 0.73047-1.0859 1.1914-0.078125 1.1406 0.28125 1.0273-0.054687 1.0938 0.19922 0.86328-1.1445 1.0312-0.40234 1.2656-0.42969 1.0039-0.58203 1.0781-0.082031 0.82031-0.85156 0.96875-0.41016 0.73438-0.75781 0.89062-0.89844 0.80469-0.71484 1.0938-0.074219 1.0898-0.43359 0.76953-0.68359 0.4375-0.94531 1.0898-0.375 0.95703-0.32812 0.76953-0.79688-0.61719-0.85938-0.55469-1.1914 1.0039-0.75391 0.52344-0.90234 0.66406-0.95312 0.92578-0.9375 0.76562-0.89062 1.4531 0.5625 0.91406 0.76172 1.0195-0.10938 0.46484-1.2227 0.875-0.55469 1.2695-0.089844 0.46094-0.94922v-1.1992l1.0547-0.40625 1.1055-0.39844 0.82031-0.71094 0.35547-1.1719 0.078125-1.0312 0.97266-0.37891 0.32031 1.0078 1.0039 0.3125 0.44141-1.0742-0.70312-0.80469 0.79297-0.625 0.44141-1.0039-0.31641-1 0.10156-1.1211 0.89844 0.62891 1 0.11328 0.20312-1.0664 0.99219-0.53516 1.1172 0.30859 0.96094-0.625-0.65234-1.0156-1-0.36328-0.28516-0.98828 1.043-0.125 1.0508-0.23828 1.1367-0.003906 0.80859-0.82031-0.30859-1.1328 0.13672-1.082 0.42188-1.0039 0.26953-1.0742 0.48828-0.89062 0.36328-1.0898-0.18359-1.1016 1.0352-0.44141 0.46875-0.98047 0.98047-0.47266 0.64453 0.84375-0.26172 1.168 0.95312 0.73047 1.0312 0.55078 0.8125-0.59375 0.64062-0.86719 0.54688-0.95703 0.79297-0.99609 1.0352-0.5 1.0977 0.078125-0.47266 0.98828 0.27344 1.0234 1.0469-0.054688 1.3203-0.31641 1.1211 0.32422 1.1016 0.21484 1.043 0.23828 0.30078-1.0352 0.89062-0.46484 0.80859 0.58984 1.0938 0.48047 0.78516 0.66016 1.1211 0.47656 0.95312 0.30859 1.0156 0.51172 0.84766 0.57422 1.0195 0.375 1.1719 0.019532 0.92969 0.96094 0.26172 1.2344 0.72656 1.1211 0.44141 1.082 1.0234 0.39453 0.75391 0.70703 1.0039 0.29297 0.21094 1.1016 0.77734 0.83203 0.625 0.90234 1.082 0.42188 1.0156 0.52734 0.89844 0.60938 1.0859 0.1875 0.32422 0.94922 0.44141 0.89453 0.65625 0.83984 0.85547 0.625 0.87109 0.54297 1.0078 0.375 0.71094 0.80469 1.6133-0.17969 1.0352-0.03125 1.0352 0.69531 0.49219 0.89453 0.94141 0.69141 0.85156 0.625 0.95703 0.57812 0.91797-0.5625 1.1758-0.17969 0.92188 0.76953 1.1953 0.26172 1.0586-0.35156 1.0781-0.078125 0.92969-0.60547 0.82031-0.80469 1.0469-0.38672 0.80859 0.66406 1.0781 0.76562 1.0938 0.23828 0.67969 0.78906 1.0547 0.47656 0.92188 0.39844 1.0273 0.71484 0.78906 0.78516 0.81641 0.67578 1.0977 0.23828 1.2695 0.38672 0.75781 0.85547 0.48438 0.94531 0.42188 0.91797 0.80469 0.77344 0.72656 0.80859 0.097656 1.1211 0.03125 1.0586v1.0469l0.66016 0.80469 0.875 0.78516 0.64844 0.85156 0.55859 0.95703 0.80469 0.76562 0.91016 0.44922 0.76953 1.082 0.88672 0.72266 0.76953 0.65234 0.77734 0.68359 0.53125 0.90625 0.94531 0.5625 1.2383-0.27344 1.0273-0.24609 0.97656 0.3125 1.0508 0.63281 1.1406-0.32812 1.0039-0.18359 0.88672-0.51172 0.98047-0.22266 1.0156 0.13281 1.1328-0.078125 1.2344-0.51953 1.0078-0.55078 1.0859 0.074219 1.1367-0.71484 1.2617-0.63281 1-0.50781 0.97656-0.55078 1.1836-0.375 0.97266-0.25781 0.99609 0.52344 1.0547-0.011719 1.0039-0.45312 0.69141-0.84375 0.91016-0.49609 0.90234-0.46484 0.83594-0.65234 0.28125-1.0117 0.83594-0.65234 1.0586-0.40625 1.0703 0.015625 0.69141-0.74609 1.0273-0.57812 0.98047-0.29297 0.84766-0.86719 0.79297-0.69922 1.1406 0.34375 1.0039-0.39062 0.75781 0.67578 1.0977 0.33984 1.1172-0.015625 1.0547 0.36328 0.91406 0.51562 0.8125 0.59766 0.5 0.875 1.0312 0.19922-0.070313 1.0117 0.98438 0.49609 1.125-0.23438 0.48828 0.89062 0.21875 1.0352 0.79297 0.74609 0.48047 1 0.83203 1.3945 0.83594 0.72656 0.94141 0.53125-0.18359 1.0156 0.23047 0.97656 0.56641 0.96484 0.77344 0.70312 1.0586-0.16797 0.25781 1.1641 1.0156 0.39453 0.082031 1.1445 1.0586-0.035157 1.1445 0.066407 1.0508 0.75 0.78516 0.71484 0.28906 1.2031 1.4219 0.10547 1.168-0.09375 0.94141 0.375 1.1289-0.27734 0.74219-0.74219 0.83203-0.875 1.0977-0.20703 1.1406 0.17578 0.86719 0.51953 1.168 0.57422 0.94531 0.78125 0.57422 0.99609 0.52344 0.92188 0.25 1.1641 0.17969 0.99219 0.082031 1.0039 0.41406 1.2578 0.41797 0.97656 0.375 0.95703-0.089844 1.1016-0.78125 0.69141-1.0117 0.25-0.92188 0.44141-0.82422 0.62891 0.21875 1.1016 0.52734 1.0195 0.22656 1.2969 0.16797 1.9414-0.015625 1.0664 0.23047 1.0586 0.066406 1.1367 0.058594 1.0312 0.51172 0.99609 0.98047 0.625 0.82812 0.74609 0.94531 0.80078 0.82812 0.96875 0.45703 0.89844 0.63281 0.78516 0.09375 1.2266 0.34766 1.3594 0.30469 1.0078-0.042969 1.0977 0.19922 1.1016 0.34766 1.2578 0.019531 1.1992 0.36328 1.0391-0.14453 1.375 0.36719 1.0547 0.80078 0.99219 0.53906 1.1133 0.74219 1.2148 0.76172 0.87109 0.64453 0.78906 0.71094 0.83203 0.71875 1.1094 0.64453 0.88281 0.42578 1.0703 0.26562 1.0859 0.83203 1.3984 0.47656 1.2305 0.57031 1.375 0.44141 1.0898 0.5 1.1445 0.67578 1.582 0.23047 1.1094 0.65234 1.4336 0.55078 1.1758 0.60938 1.4531 0.73828 1.918 0.53516 1.6406 0.65234 1.0625 0.84766 0.78125 1.0156-0.27344 1.1172-0.039063 1.1445-0.066406 0.98438 0.34375 0.93359 0.48047 0.36328 1 0.63672 0.98828 0.35938 0.98438 0.12109 1.0859 0.074219 1.1367 0.24219 0.98047 0.32031 1.0234 0.69141 0.97266 0.38281 1.0586 0.55078 1.1445 1.0273 0.50391 1.1719 0.019531 1.1523-0.19531 1.0156-0.21094 1.0039 0.14062 0.90234 0.73438 0.44922 0.94141 0.97266 0.64062 1.1406 0.51953 0.76953 0.99609 0.58203 0.94531-0.050781 1.3711 0.61328 0.82422 0.74219 1.2305 0.28516 1.0078 0.64062 0.89062 0.87109 0.90234 0.65625 1 1.2852 0.86328 0.54297 0.87891 0.48047 1.082 0.62891 1.25 0.70312 1.125 0.69141 0.84766 1.0586 0.19141 1.332-0.20703 1.1836-0.14844 1.457-0.003906 1.0898-0.16797 1.0195-0.085937 0.98828-0.32812 1.0742 0.042968 1.0156 0.28125 1.2578 0.26953z" fill="#0a5394" fill-rule="evenodd"/>
<path d="m470.41 192.36-0.085937 0.16016-0.30859 1.1602-0.33203 1.0977-0.86719 0.62891-0.98828 0.40234-0.14844 1.1641-1.2227 0.59375-0.96875 0.64453-0.49609 0.98438-0.83203 0.60547-1.168 0.67969-0.6875 0.75781-0.35547 1.1328-0.64062 0.97656-0.23828 1.0938 0.10938 1.1133-0.15234 1.1133 0.25 0.98047 0.52734 1.3359 0.57031 0.9375-0.20312 1.0703-0.34375 1.207h-1.0742l-1.0742 0.36328-1.1602-0.16406-1.1836 0.10938-0.85547 0.94531-0.28906 0.96484 0.39844 1.3281-1.0117 0.94531-0.375 1.3125-1.2656 0.33984-0.039063 1.3633-0.6875 1.1641-0.98438 0.65625-0.63672 0.81641 0.12891 1.3086-0.63672 0.85938-0.92969 0.73438-1.0781 0.0625-1.3203 0.32422-1.1484 0.43359-1.5117 0.73438-1.1055 0.46094-0.70703 1.2969-0.70703 0.98047-0.72266 0.83984-0.37109 1.5508 0.14453 1.1953-0.15234 1.5156 0.16406 0.98828-1.1914 0.47266-1.3594 0.15625-1.2148 0.74609-0.73828 0.83594-1.082 0.082031-0.60156 0.89844-0.375 1.0156-0.90234 0.57031-0.50391 0.88672 0.81641 0.96094 0.32031 1.2734 0.42578 1.3008 0.48047 1.3438 0.83594 0.8125 0.71484 0.74609 0.93359 0.69922 0.77344 0.92969 0.97266 1.0312 0.37891 1.2812-0.22656 1.3477 0.30078 1.1172-0.070312 1.1211-0.23438 1.1406-0.69531 0.99219-0.375 1.1641-0.85938 0.63672-0.63672 0.89844 0.59766 1.1992-0.20312 1.0391 0.62109 1.0117 0.88281 0.57812 0.72656 0.96094 0.82812 1.5234 0.76172 0.71875 1.1289 0.16406 0.94141 0.53906 0.83203 0.92188-0.21484 1.1055-0.28516 0.97656 0.15625 1.3906 0.29297 0.96875 0.63672 1.0195-0.17578 1.1484 0.57422 0.97266 0.16406 1.1016 0.66797 1.4258 1.3516 0.23047 1.1289 0.28906-0.18359 1.2461-0.19141 1.0039 0.44922 0.91016 0.5625 1.1641 0.12109 1.1875-0.023437 1.1133 0.089844 1.1094-0.089844 1.1797-0.1875 1.0547 0.11719 1.2969-0.10547 1.168 0.25 1.1445 0.73438 0.82422 0.82812 0.88672 0.6875 0.84375-0.25 1.1523-0.13281 1.0742 0.058594 1.0742-0.41016 0.94141 0.34766 0.95312 0.11328 1.0078 0.96484 0.49609 0.28906 1.0703 0.49219 1.2031 1.0742 0.81641 0.55859 0.85156-0.14844 1.2773 0.57422 1.1719-0.11719 1.0078 0.55469 0.83594 0.63281 0.96875 0.92969 0.36719-0.45312 0.96875-1.3438 0.97266-0.89844 0.54688-1.0703 0.19141-1.1211-0.097657-1.125-0.33984-1.2969-0.13672-1.2656-0.62109-0.99609 0.44531-0.40625 0.99219-0.875 0.77734-1.1211 0.48047-1.0391 0.54297-0.98828-0.30469-0.65625-0.80078-1.3828-0.011719-0.99219-0.26562-1.0977-0.32031-1.1875 0.078125-1.0508 0.10547-1.1133 0.085938-0.84766-0.63281-0.9375-0.42578-1.1562-0.23828-1.0625-0.058594-1.0664 0.41016-0.92969 0.88672-0.53516 0.93359-0.18359 1.0078 0.35938 1.0273 0.46094 0.95703 0.19141 0.98828 0.71484 0.72656 0.52344 1.0312 0.92578 0.78516 0.32812 1.2031 0.30078 1.0547 0.30859 0.99219 0.3125 1.0625-0.49219 0.91016 0.21875 1.0234 0.76953 0.74609 0.85156 0.72656-0.03125 1.1367-0.78125 0.70703 0.046875 1.1914-0.17578 1.0898-0.32422 1.0352-0.12109 1.2266-0.58203 0.83203 0.16016 1.082 0.45703 1.0195 0.10156 1.0469-0.74609 1.0547-0.36719 1.1875-0.023437 1-0.089844 1.1523-0.15625 1.0312-0.45312 0.91016 0.12891 1.2656-0.25781 1.2773-0.88672 1.0039-0.58594 0.92969-0.97656 0.96484-0.18359 1.0859-0.011719 1.2617 0.24219 1.1133 0.14844 1.1172-0.17969 1.082-0.24219 0.98047-0.13281 1.1641 0.16016 1.082-0.12891 0.99609-0.30469 0.97656 0.03125 1.0195 0.30078 0.98047-0.0625 1.0078 0.35547 0.96484-0.039062 1.1094 0.63281 0.82812 0.44922 1.0039 0.44531 1.1914 0.26172 1.0469 1.0391 1.0938 0.92578 0.40625 1.0703 0.61719 0.070312 1.1211-0.066406 1.043-0.16406 0.98828 0.42969 0.95703 0.11328 1.0273 0.45312 0.98828 0.5 1.0859 0.82422 0.71094 0.64453 0.875 1.0078 0.29688 0.10156 1.0508 0.50391 0.875 1.0195 0.62891-0.71094 0.99219 0.48438 0.91797-0.003906 1.0625-0.16797 1.0352 0.98047 0.42188 0.76562 0.73047 0.89453 0.59766 0.14844 1.1523-0.050782 1.0898 1.0742 0.51172-0.57031 0.87109-0.85547 0.74219-0.89453 0.80078-0.76562 0.78906-0.75781 0.75781-0.35156 0.98828-0.82812 0.70312-0.39844 0.94531-0.46094 0.92969 0.13281 1.0195-1.25 1.0312-0.95703 0.33984-1.0273 0.09375-0.99609 0.30469-1.6484 0.85156-1.543 0.90234-0.90625 0.54297-0.92188 0.83984-0.83984 0.92188-0.91797 1-0.95312 0.87109-1.0352 0.26953-1.0117-1-0.83984-0.74609-0.6875-0.87109-1.1562-0.60547-1.7578-0.75-1.0469-0.32422-0.9375-0.41406-1.0312-0.42578-0.75391-0.83203-0.25391-1.1055-0.76953-1.1133-0.71484-0.89062-1.1562-0.44922-0.9375-0.46875-0.96875-0.26953-0.9375-0.71875-1-0.39062-0.96875-0.36719-0.98438 0.33203-1.0234 0.070312-0.96484 0.26562-0.95312 0.44141-0.33594-1.0586-1.0156-0.48828-1.0781-0.003906-0.57031 0.88281-0.625 0.88281-1-0.11328-0.41016 0.93359-0.95703 0.48828-1.0352 0.70312-0.52734 1.0781-0.80859 0.65625-0.81641-0.58203-1.0391-0.41406-0.9375 0.45703-1.0977 0.25391-0.85156-0.625-0.99219 0.23047-0.94922 0.52734-1.0508-0.47266-0.92188-0.42578-0.86719 0.71484-0.92188-0.42578-0.69141-1.0039-0.63672-0.85938-0.35156-1.1523 0.054688-1.0469-0.37109-1.1289-0.1875-1.0039 0.26172-1.2578-0.26172-1.1367-0.875-0.89062-1.1641-0.35156-0.8125-0.64062 0.10547-1.2578 0.097657-1.0586-0.5-1-0.42578-1.1484-0.32031-1.1016-0.85156-0.60156-0.11719-1.0391 0.94141-0.34766 0.59375-1.0273 0.089844-1.3398-0.19922-1.0195-0.58984-0.85938 0.51953-1.0391 0.84375-0.66797 0.51172-0.88672 0.12109-1.1094 0.39062-1.1094-0.015625-1.0234-0.078125-1.1406-0.80469-0.75781-1.1875-0.23828-0.32812 0.98438-0.17969 1.0312-0.79688 0.96484-1.0625 0.46484-1.0078 0.41406-0.99219 0.41797-0.79688 0.90625-0.70312 1.1133-0.74609 1.3516-0.66797 0.8125-1.082 0.023437-1.0352 0.57422-0.79297 0.67188-0.99219 0.83984-1.043 0.53906-1.0312 0.019532-1.1055-0.14453-1.3008-0.82422-1.1211 0.65234-0.32422-1.0117-0.82422-0.6875-1.1445 0.03125-1.1406 0.13281-1.0156-0.058594-1.1758 0.097657-0.98828-0.46875-0.36719-1.1445 0.33594-1.0508-0.45312-1.0938-0.33984-1.1211 0.39844-1.0195 0.011719-1.3398 0.19531-1.0312 0.6875-0.89453 0.50781-0.90625-0.34766-1.0234 0.91406-0.82812 0.80859-0.68359 0.16406-1.1602 0.41016-1.0078 0.34766-1.1992 0.29297-1.0781 0.45703-1.0664 0.32031-1.0547-0.50781-0.875 0.73828-0.92578-0.48438-1.0781-0.82031-0.80859-0.89453-0.73047-0.74219-0.71484-0.72266-0.70703-0.79297-0.61719-1.0625-0.22656-0.44922-0.89844-0.38672-0.95703-0.91797-0.47266-1.0234 0.30469h-1.0195l-1.1367-0.35547 0.015625-1.2227 0.60547-0.85547 0.88672-1.0117 0.75-0.82812 1.1094-0.57422 0.79688-0.60547 0.29688-1.25-0.25781-0.97266-1.0703-0.097656-1.0195-0.44922-1.4258-0.9375-0.55078-1.043-0.87109-0.67578-1.0664-0.47656-1.0195-0.023438-0.82031-0.66016-0.51953-0.89844-0.53906-0.98047-1.2109-0.36328-1.2031 0.15234-1.2227-0.070312-0.91016 0.70312-1.0352 0.92578-0.78906 0.76953-0.26172 1.1484-0.95703-0.90625-0.75-0.73047-0.32422-1.1758-0.36328-0.94922-1.0664 0.0625-0.39453-0.92578-0.55859-1.0273-0.40625-1.1719-0.71875-1.1289-0.39844-1.2656-0.48047-0.89844-0.51172-0.89453-0.49609-0.96484-0.45703-1.0312-0.20703-1.0938-0.10938-1.2812-0.73047-0.90234-0.22656-1.0664-0.20703-1.0352 0.011719-1.0352-0.17578-1.0977-0.69531-0.83594-0.23047-1 0.25781-1.1602-0.14062-1.0859 0.45703-1.0938 0.38672-0.98047 0.73828-1.0078 0.63281-0.84766-0.75-0.83594-0.70703-0.85547-0.80859-0.61328-1.0547-0.23438-0.69922-1.2383-0.90234-0.66797-0.35938-1.2188-0.18359-1.1719-0.66016-0.92969-0.71094-0.92969-0.98047-0.77344-0.80078-0.8125-0.93359-0.72656-0.78906 0.79688-0.22656 1.0664-0.54688 0.88281-1.0938 0.33984-0.87109 0.59766-1.0039 0.47656-0.79297 0.77734-0.94531 0.49219-1.1172-0.039063-0.4375 0.91016-0.52734 0.98828-0.98828 0.52344-1.0312-0.39844-0.47656 0.87891-0.5625 1.168-0.57031 0.99219-0.19531 1.1836-0.34766 0.96484-0.11328 0.99609-0.15625 1.1641-0.26172 0.99609-0.058594 1.1914-0.28516 1.0703-0.066406 1.0625-0.375 1.1328 0.18359 1.0859-1.1719 0.39453-0.71875 1.0781-0.11719 1.0195-0.17578 1.0938-0.050781 1.2383-0.53516 2.2656-0.042968 1.8516-0.050782 1.457-0.20312 1.4453-0.027343 1.5391-0.019532 1.5391 0.66016 1.0078 0.16406 1.0312-0.85938 1.0078-0.24609 1.2773-0.56641 1.1602-0.56641 1.0195-0.33594 1.2891 0.03125 1.7148-0.37891 1.0781-0.097656 1.1992-0.35156 1.2969-0.62891 1.4961-0.51953 0.98438-0.49609 0.97656-0.21094 1.2969 0.19922 1-0.5 0.94141 0.17578 0.99219 0.16406 1.0273-0.046875 1.0859-2.6562 2.707-3.2188 1.0156-0.875 0.94922-0.59375 1.6953-0.51953 1.0508-0.63672 0.78125-0.62891 0.8125-0.78125 1.0781-1.0273 1.2812-0.84766 0.55469-0.89062 1-0.58203 0.82031-0.55469 0.89453-1.0508 0.28125-0.85156 0.59375-0.61328 0.98047-0.86719 0.62891-0.57812 0.82031-1.0117 0.45703-0.64062 0.95312-1.0547 1.0039-0.46484 0.89453-0.74219 0.78906-0.64844 1.0391-0.96484 0.85156-0.74609 0.875-0.91016 0.4375-1.168 0.66797-1.1289 0.26953-0.39062 0.98828-0.44141 1.875-0.039063 1.3359-1.5312-0.57812-2.0703-0.066406-1.0117 0.082031-1.0625 0.13281-1.5391 0.31641-2.1211 0.34766-1.625 0.082032h-1.8906l-2.1055-0.1875-1.4102 0.23828-1.2578 1.1094-1.4102 0.71484-1.3438 0.54688-2.8672 0.82812-1.3516 0.32812-1.0508 0.25391-1.3477 0.37891-1.6367 0.51562-1.1445 0.17969-1.1758 0.23438-2.8164 0.79297-2.8359 1.3125-3.5312 2.0195-2.8828 1.7422-1.3594 0.91016-1.5898 1.4102-0.92969 1.1445-1.4219 1.7539-0.76953 0.6875-0.55078 0.83984-0.17578 1.0938-0.33203 1.1289-0.69531 0.87891-0.91016 0.875-0.84766 0.59766-1.0117 0.76172-1.4062 1.8086-16.59 24.426-1.7188 2.3438-1.7422 2.5352-2.7695 4.0703-3.3242 4.7383-1.4336 2.3086-3.6289 5.1797-1.8555 2.6523-0.78906 1.1211-0.80469 1.1992-2.3203 3.4375-2.1328 2.9805-0.63672 0.89062-1.8711 2.7578-1.0703 1.5781-0.9375 1.3438-1.9883 2.8438-1.9141 2.8125-1.2344 1.7812-1.6367 2.3477-2.1992 3.1602-2.0391 2.9414-0.96875-0.30078-1.3633-0.67969-1.2383-0.68359-1.0273-0.58594-1.0273-0.53516-1.0664-0.59375-1.1172-0.59375-0.95312-0.48438-0.95703-0.5-1.2578-0.58984-0.90625-0.48047-1.2852-0.62109-1.3789-0.66406-1.3555-0.62109-1.7109-0.79297-0.92578-0.45703-1.1406-0.43359-1.2578-0.53906-0.96484-0.39062-1.0586-0.38672-1.1914-0.44141-1.457-0.58203-1.3359-0.44141-1.4102-0.51953-0.96484-0.42969-1.1719-0.54297-0.92188-0.42188-1.543-0.76953-1-0.56641-0.94141-0.58984-1.418-0.98438-0.98047-0.74609-0.76953-0.63672-1.3047-1.2344-0.86719-0.85156-0.83203-0.94922-0.75391-0.78906-0.82812-0.8125-0.77734-0.78906-0.81641-0.75391-1.0273-1.043-0.90625-0.82422-0.73828-0.68359-0.92188-0.85547-1.3867-1.2266-1.0391-0.93359-0.80078-0.73047-0.99609-0.82812-1.332-0.96875-1.1328-0.94141-0.91797-0.66016-1.8086-1.3281-0.85938-0.64062-1.043-0.72656-1.1133-0.76172-1.0391-0.74609-1.1055-0.73828-1.1758-0.73047-0.875-0.55469-1.2578-0.8125-1.2969-0.77734-1.3203-0.84766-1.3438-0.82422-1.1992-0.69531-0.88672-0.5625-0.99219-0.58203-0.85938-0.53906-1.0547-0.62109-1.6719-0.9375-1.0547-0.64844-1.2773-0.71875-1.2773-0.80078-1.2266-0.74219-1.7852-1.1914-1.168-0.62891-1.3711-0.74609-0.91406-0.50391-1.0508-0.58594-1.7852-0.92578-1.1445-0.70703-1.3555-0.80469-1.3555-0.83594-1.2578-0.85547-0.96484-0.64062-1.0898-0.68359-0.83984-0.58984-1.1875-0.76172-0.94141-0.64844-0.875-0.50391-1.043-0.66016-1.4062-1.1406-0.77734-0.76172-0.9375-0.97266-0.68359-0.875-0.67188-0.91406-0.37109-0.94531 0.070312-1.0273-0.33594-1.082-0.53516-0.87109-0.39453-1.1445-1.3164-1.4297-0.97266-1.1758-0.59375-0.95703-0.55078-0.90234-0.55078-0.99609-0.48047-0.9375-0.69141-1.7461-0.35156-1.0469-0.58203-1.7148-0.36328-1.0391 0.007813-1.2344 0.71484-1.1914 0.0625-1.2812-0.78125-2.4219-0.074219-1.0273 0.3125-1.0586-0.085938-1.0664 0.62891-0.96484 0.035156-1.3594-0.066406-1.293-0.14453-1.6953 0.23828-1.1836 0.046875-1.4492-0.21484-1.0391-0.47656-0.97266-0.32031-1.0312 0.74609-0.96875 0.72266-0.83594 0.94922-0.74219 0.80078-1.1641 0.93359-1.1953 0.54688-0.93359 0.28516-1.1562 0.51562-0.89453 0.12891-1.1211-0.03125-1.0664 1.168-0.27734 1.1484-0.24219 0.97266 0.75781 1.1836-0.21875 1.2578-1.1523 0.62891-1.0703 0.47266-1.5078 1.0039-1.1797 0.51562-1.1484 0.17969-1.1562 0.44141-1.1719-0.18359-1.0234-0.23828-1.0312 0.62891-0.80469 0.81641-0.65625 1.0312-0.16016 1.0312-0.51953 0.83594 0.62891 0.78125 0.62891 0.63281 0.78906 1.1406 1.1523 0.55078 0.88672 0.63281 0.98828 0.90625 0.71094 0.22266 1.0547 0.81641 0.77734 0.97266 0.67578 1.6719 0.99609 1.0273 0.48047 1.0938-0.089844 1.1055 0.30859 1.1836 0.49609 0.91016 0.45312 1.4219-0.47266 1.0156-0.039062 0.32422 0.97266 1.3086 0.15234 1.4375-0.078125 1.0312 0.53125 0.71484 0.79297 1.0312-0.17188 1.1133 0.32422 1.0234 0.22656 1.2383-0.039063 1.1719-0.070312 1.1406-0.42578 0.98047-0.44922 1.2969-0.51172 1.1992-0.53516 0.90234-0.59375 1.0508-0.80078 1.0469-0.77734 0.90234-0.69531 1.0859-1.1797 1.1953-1.2617 0.80469-1.168 0.50391-1.0078 0.58984-0.97656 0.36719-1.3047 0.27344-0.98047 0.55859-1.2148 0.51172-1.0352 0.57812-0.83984 0.57422-0.86719 2.2891-4.3047 0.37109-1.1602 0.24219-1.1172 0.33203-1.2969 0.25391-1.3359 0.19531-1.0469 0.21094-1.2617 0.0625-1.2266 0.10156-1.332 0.050781-1.0586 0.21875-1.4258 0.11719-1.6484 0.007812-1.3086 0.13672-1.3203-0.011719-1.2578 0.10156-1.2109-0.035157-1.3047-0.14062-1.4844-0.12891-1.2891-0.11328-1.2891-0.22266-1.0312-0.25781-1.0312-0.44141-1.207-0.44531-1.0586-0.39062-1.125-0.46484-1.1172-0.28906-1.125-0.32422-1.3203-0.23828-1.3867-0.49219-1.1562-0.29297-0.95703-0.27734-1.0391-0.37109-1.0117-0.58594-0.91797-0.32812-1.1211-0.40234-0.95312-0.39062-0.94531-0.36328-1-0.5-1.0234-0.55078-1.1367-0.60938-1.3672-0.54297-0.84375-0.48047-1.1406-0.375-1.1016-0.26562-1.1641-0.61328-1.4531-0.68359-1.3398-0.53125-0.95312-0.74609-1.1484-0.46484-1.0078-0.68359-1.0781-0.84375-1.1094-0.55859-0.87109-0.51953-0.89062-0.85547-1.1172-0.60547-1.0625-0.9375-1.2891-0.65625-0.80859-0.76953-0.90234-0.98438-1.2734-0.74609-0.91016-0.72266-0.83203-1.0625-1.0352-0.86719-0.94922-1.457-1.1719-0.875-0.67969-0.69141-0.77344-0.85547-0.98828-1.1562-1.1484-1.1289-1.3203-0.89453-0.90234-0.93359-0.9375-1.043-1.1992-0.86719-0.85938-0.87109-1.0586-0.96875-0.80078-0.70312-0.79297-0.87109-0.87109-0.74219-0.67188-0.83984-0.89844-0.94922-0.82812-1.2461-1.1328-0.91797-0.82031-0.76562-0.67188-0.85938-0.70312-1.2656-0.92578-1.082-0.87891-1.2812-0.97656-0.86719-0.51562-1.375-0.93359-1.0469-0.37109-1.0078-0.32422-1.125-0.22656-0.90625 0.50391-0.92188 0.66016-0.95312 0.33594-0.80469-0.80859-0.5625-0.99609-0.41016-1.0664-0.3125-1.1523-0.61328-0.88672-1-0.91016-0.80859-0.59375-0.13672-1.1484-0.60938-1.0781-0.52734-0.98438-0.63672-0.88281-0.6875-0.88281-0.94141-0.42578-0.89844-0.50781-0.69922-0.73047-0.80469-0.93359-0.76562-0.69141-0.83594-0.85547-0.80078-0.73438-0.82031-0.89062-0.78906-0.70703-1.0703-1.0039-0.76562-0.67578-0.86719-0.75781-1.1758-0.51562-0.68359-0.74609-0.38281-1.0508 0.17188-1.0156 0.80859-1.5469 0.29688-0.96094 0.84375-0.58203 0.82812-0.63672 0.82422-0.625 0.6875-0.74219 0.24219-1.0352 0.60156-1.1484 0.37891-1 0.28125-1.4102-0.097656-1.1406-0.33984-1.2969-0.54297-1.2227-0.71484-0.71875-0.36719-0.94922-0.28516-0.96094 0.98438-0.48828 1.0664-0.15234 0.78125-0.65625 0.89453-0.85547 0.09375-1.0859 0.14844-1.125-0.37109-1.4531-0.41016-1.3672-0.46094-0.94141-0.41797-1.1133-0.86328-0.55078 0.74219-0.6875-0.058594-1.0039 1.0352-0.64844 0.4375-0.91016 1.0469 0.10547 0.86719 0.54688 1.3438 0.36719 0.99609-0.41797 1.0469-0.68359 0.76172-0.66797 1.1641-0.21875 0.90625 0.66797 1.3359 1.3086 0.625 0.83984 1.0781 0.37891 0.17578-1.0039 0.40234 0.92578 0.98438-0.5625 1.0586 0.011718 1.1289-0.011718 0.98828-0.22656 0.92188-0.76172 0.60938-1.1602 1.0664-0.26562 0.69141-0.77344 0.53516-0.86719 0.39062-1.0156 0.57031-1.2812 0.98047-0.70312 0.29297-1.2773 0.097657-1.1367-0.066407-1.2656-0.1875-1.1875-0.18359-1.1641-0.28125-1.082-0.30859-1.2969-0.36328-1.0469-0.67578-1.2852-0.52734-1.3047-0.56641-1.1406-0.75391-1.4375-0.51172-1.082-0.90625-1.4844-0.69141-1.1055-0.66406-0.77344-0.73438-0.89062-0.75781-0.92578-0.75-0.75391-0.79688-0.86328-0.82812-0.83984-0.69922-0.73047-0.75781-0.83203-0.94531-0.92578-0.91406-0.76562-0.81641-0.77734-0.73047-0.69922-0.72266-0.80078-0.90625-1.0586-0.78125-0.91797-0.69141-1.1602-0.49609-0.97656-0.41406-0.92578-0.76953-1.4844-0.86328-1.0547-0.95703-1.2461-0.87109-1.1484-1.0117-1.4375-0.61719-0.83594-0.63281-0.81641-0.79688-0.92969-0.71875-0.83984-0.78125-0.93359-0.82812-0.91797-1.0547-1.1953-0.77344-0.87891-0.8125-0.98438-1.0039-1.0977-0.78906-0.98047-1.0195-1.1328-0.80859-0.92188-0.83594-0.91016-0.75391-0.78906-0.67969-0.80859-1-1.1367-0.87891-0.95312-0.96875-1.0117-1.1641-1.3164-0.87109-1.0234-0.73438-0.90625-0.9375-1.125-0.69922-0.77734-0.72266-0.81641-1.043-1.207-0.83203-0.96875-0.97656-1.1445-1.4062-1.6016-0.98047-1.0039-0.69141-0.76172-0.83203-0.84766-0.72266-0.875-0.94922-0.97656-0.87891-1.082-0.84375-0.98047-0.93359-1.0508-1.5352-1.9492-0.64844-0.86328 0.22266-1.0469-0.53906-1.6016 1.3047-0.54688 1.2188-0.18359 0.84375-0.79688 0.80469-0.95312 0.33984-1.3359 0.32031-1.332 0.26562-0.97266 0.67969-1.1367 0.42578-1.1133 0.074218-1.2383 0.33984-1.0312 0.57031-0.98828 0.003906-1.1211-0.078125-1.0312 0.007812-1.0312 0.27734-1.125 0.375-1.0977 0.89062-0.94531 0.29297-1.4922 0.21875-1.0938 0.47656-0.94531 0.70312 0.73047 0.83984-0.71094 0.30469-0.99219-0.19531-1-0.42188-1.2383-0.37109-1.1914 0.28906-1.2305-0.25781-1.2188-0.42969-1.0156 0.32031-1.0469-0.28516-1.043-0.46875-0.89062-0.66406-0.94922-0.54297-0.98828-0.71094-1.5469-0.81641-1.6172-0.45703-0.92969-0.62891-0.8125-0.15625-1.0117-0.39844-1.0195 0.1875-1.0234 0.69141-1.0938 0.29688-1.1523-0.39062-0.99609 0.84375-0.69141 0.71094-0.70703 0.61719-0.85547 1.0078 0.23047 1.1328-0.070312 0.75781-0.83203 0.66797-0.75781 0.1875-0.99609 0.61328-0.98047 0.70312-0.76953 0.42578-1.0703 0.082031-1.0508 0.30469-0.98047 0.44922-1.0859 0.054687-1.2344 0.84766-0.76172 0.51172-1.0352 0.375-1.0664 0.13281-1.2031-0.14844-1.0898 0.13281-1.0352-0.10938-0.99219 0.46875-0.97266 0.035156-1.4688-0.015625-1.0703 0.28125-1.0625-0.0625-1.3906-0.17188-1.1914-0.125-1.1602-0.28516-1.2617-0.25391-1.1328-0.35938-0.94531-0.44922-0.94141-0.44531-0.90234-0.35156-1.0195 0.23047-1.0391 0.44531-0.90625 0.40234-1.0312 0.17969-1.0391 0.097656-1.0859 0.011719-1.3945 0.28516-1.0547 0.75-0.71875 0.69141-1.5312 0.70703-0.84375 0.41016-0.98828 0.625-0.97266 1.0039-0.11328 1.0039-0.31641 1.1641-0.23828 1.1094-0.60156 0.75-0.78516 0.53125-0.89844 0.65234-0.95703 0.87109-0.75 0.86328-0.58203 1.0742-0.43359 1.1562-0.34766 0.88281-0.64062 1.082-0.48828 1.1484-0.22656 0.88672-0.58594 0.93359-0.82812 0.71094-0.875 0.71484-0.94922 0.78516-1.0586 0.69922-1.0586 0.77734-0.9375 0.6875-1.1289 0.66016-0.87891 1.0859-0.21094 1.0781 0.20312 0.97266-0.48047 0.90625-0.6875 0.78906-1.0273 0.70703-1.168 0.54688-0.86719 0.66406-1.4141 0.63281-0.94531 0.55078-1.0195 0.50781-0.89844 0.57422-0.98828 0.55078-0.88672 0.66406-0.92969 0.96484-0.63281 0.76562-0.80859 0.82031-0.64062 1.1914-0.5625 1.0625-0.67188 0.98828-0.30469 1.0586-0.019531 1.0391-0.6875 0.9375-0.46094 1.0117 0.14453 0.83203-0.91406 0.49609-0.92578 0.52344-0.90625 0.64062-0.92969 0.90234 0.5 0.57812 0.875 0.78516 0.79297 0.33594 0.96484 0.98438 0.48047 0.91406 0.58594 0.59766 0.91406 1.2031 0.30859 1.3359-0.33594 1.2422-0.30859 1.0898 0.48047 0.75 0.90234 1.1055-0.09375 0.78906 0.85156 1.0156 0.72656 0.9375 0.58594 1.0781 0.12109 0.24609 0.98047 0.48438 0.96484 0.019531 1.0625 0.93359 0.86328 0.29688 0.98047-0.46094 0.99219-0.40234 1.1094-0.87109 1.1758-0.082032 1.0391 0.74219 0.6875 1.2031 0.26562 1.4141-0.14062 1.1289-0.64453 0.92969-0.41406 0.87109 0.71484 0.50391 0.95703 0.91797 0.4375 0.88281-0.66797 0.35547-1.0625 1.1797-0.1875 1.0508 0.45703 1.2188 0.875 1.332 0.24609 0.95312 0.36328 0.88281 0.96875 1.293 0.5 0.97656 0.44922 0.54688 0.98047 1.1602 0.23438 1.1328-0.21484 1.1797 0.023437 0.91406-0.65234 0.94922 0.42969 1.2422-0.32031 0.98438 0.32031 0.94922-0.48438 1.1719 0.12109 1.0703-0.019531 0.94922-0.33203 1.0703-0.40625 1.2852-0.35156 1.0977-0.42578 0.88281-0.625 0.96094-0.41016 0.98828-0.3125 0.84375 0.58203 1.1992 0.15234 1.0898 0.16797 1.0508 0.046875 0.65625-0.9375 1.1328-0.042969 1.1484-0.34375 1.1055 0.20703 1.0352 0.21484 0.79688 0.71094 1.0117-0.23828 1.1914 0.19922 0.29297 0.96875 1-0.44531 1.0508-0.13281 1.1055 0.089844 0.64062 0.80078 0.61719 0.88281 1.0312 0.56641 1.0664 0.36719 0.79688-0.6875 1.168-0.11719 1.0195-0.15234 1 0.027344 1.0977 0.62891 0.71875 0.9375 1.0078 0.39844 0.92578 0.55859 0.625 0.93359 0.79297 0.74609 0.85547 0.70703 0.76172 0.72656 0.95703 0.53906 0.96094 0.54297 0.89844 0.73828 0.96875 0.49219 0.70703 0.71875 1.0703 0.10938 1.0039-0.23828 1.1133 0.042968 1.1758 0.26172 1.0391-0.019531 0.99609-0.26562 1.0156-0.59766 0.37109-1.1328 0.60156-0.95312 0.60938-1.0898 1.0508 0.35938 1.0195 0.14062 1.0703 0.21094 0.11719-1.0117 0.027344-1.0312 0.54297-0.85156 0.67969-0.81641 0.83203-0.66016 0.67578-0.74609 0.76953-0.75391-0.17188-1.0312 0.91797-0.47266 0.90234-0.51953 0.97656-0.32812-0.13281-1.0117-0.027344-1.0508 1.0625 0.16016-0.37109-0.96094 0.44141-0.92188 1.0312-0.20312-0.035156-1.0078 1.0078-0.80078 0.49219-0.91797 0.039063-1.0195 1.0234-0.078125 0.40625-0.94922 0.21875-1.1055 0.64844-1.0234 0.39062-1.0977 1.0508-0.074218 0.33203-1.0742 0.17578-1.0312 0.5-1.1602 0.75391-0.75 0.59766-1.043 1.1562-0.73828 0.89453-0.47266 0.9375-0.44141 0.99219-0.5625 0.94922-0.34375 0.96094-0.28125 1.0469-0.15625 0.77734 0.72266 0.003906 1.1641 0.91797 0.69141 0.37109 1.3125 0.87891 0.87109 0.89844 0.86328 0.69922 0.875 0.26562 1.1875-0.67188 1.1484 0.34766 0.96484 0.93359-0.59766 0.91406-0.49219 1.043 0.1875 0.67188-0.98047-0.17578 1.0508 0.125 1.125 0.003906 5.082-0.097656 5.7891-0.011719 6.2656 0.90625-0.48828 0.25-0.97656 1.1016-0.86719 1.0195-0.58594 1.2461 0.28516 1.1797 0.875 0.92578 0.45312 0.46484 0.95312 0.41406 1.1133 0.91406 0.61719 1.0703-0.023437 0.87891-0.61719 1.3281-1.0977 1.2344-0.89062 1.3359 0.66016 1.2266-0.38672 0.88672-0.875 0.72266-0.73047 1.0742 0.35156 0.36328 0.99219 0.47266 1.1328 0.71875 0.83203 0.67188 0.78516 0.50391 0.91797 0.9375-0.53906 0.58203-1.1719 0.99609-0.58203 1.3281 0.59375 1.0586 0.27734 0.95703-0.62109 1.1602-0.84375 0.92969-0.76172 0.56641-0.94922 0.83984 0.64062-0.26562 1.293-0.77734 0.83594-0.82812 0.625-0.88281 0.49219-0.59766 0.83594-0.86328 0.81641-0.69531 1.0938-0.72266 0.73828-0.42969 0.91016-0.66797 0.77344-0.77344 0.92969-0.875 0.98438-0.75 0.69531-0.09375 0.99609-0.5 0.94531-0.99609 0.54297-0.78906 0.71094-0.86719 0.52344 0.03125 1.0703 0.019531 1.082-0.86328 0.91797-0.90234 0.74219-0.85156 0.71875-1.0156 0.26562-0.73047 0.8125-0.76562 0.67188-0.94141 0.58594-0.80469 0.63281-0.60156 0.80078-0.85547 0.58594-0.73438 1.0234-0.82812 0.71484-0.57422 0.83984-0.64844 0.97656-0.89844 0.71094-0.77344 1.0586-0.63672 1.1719-0.33203 0.97656 0.17188 1.1133-0.64062 0.99609-0.57422 0.88672-0.65625 0.89844-0.91016 0.42578-0.80469 0.65234-0.1875 1.0391-0.48047 0.90625-0.79297 0.89453-0.28125 1.043 0.54297 0.91016 0.84766 0.66016-0.89453 0.66797 0.51172 1.2656-0.57422 0.93359-0.21094 1.1406 0.50781 1.0508-0.10547 1.0273-0.011719 1.0469-0.22266 1.0508 0.57031 0.83984 0.66406 0.90234-0.5 0.9375-0.11328 1.082 1.0352-0.25781 0.60547 1.125 0.44922 0.99609 1.1719 0.10156 1.1094 0.44922 1.0117 0.1875 0.21875 1.0234 0.85547 0.57812-0.035156-1.2188 1.0195 0.24219 1.1094 0.57812 0.71875 0.88672 1.2188 0.53125 0.86719 0.75391-0.042968 1.0625 0.76562 0.79297 0.89062 0.55859 0.86719-0.57031 0.73047-1.0859 1.1914-0.078125 1.1406 0.28125 1.0273-0.054687 1.0938 0.19922 0.86328-1.1445 1.0312-0.40234 1.2656-0.42969 1.0039-0.58203 1.0781-0.082031 0.82031-0.85156 0.96875-0.41016 0.73438-0.75781 0.89062-0.89844 0.80469-0.71484 1.0938-0.074219 1.0898-0.43359 0.76953-0.68359 0.4375-0.94531 1.0898-0.375 0.95703-0.32812 0.76953-0.79688-0.61719-0.85938-0.55469-1.1914 1.0039-0.75391 0.52344-0.90234 0.66406-0.95312 0.92578-0.9375 0.76562-0.89062 1.4531 0.5625 0.91406 0.76172 1.0195-0.10938 0.46484-1.2227 0.875-0.55469 1.2695-0.089844 0.46094-0.94922v-1.1992l1.0547-0.40625 1.1055-0.39844 0.82031-0.71094 0.35547-1.1719 0.078125-1.0312 0.97266-0.37891 0.32031 1.0078 1.0039 0.3125 0.44141-1.0742-0.70312-0.80469 0.79297-0.625 0.44141-1.0039-0.31641-1 0.10156-1.1211 0.89844 0.62891 1 0.11328 0.20312-1.0664 0.99219-0.53516 1.1172 0.30859 0.96094-0.625-0.65234-1.0156-1-0.36328-0.28516-0.98828 1.043-0.125 1.0508-0.23828 1.1367-0.003906 0.80859-0.82031-0.30859-1.1328 0.13672-1.082 0.42188-1.0039 0.26953-1.0742 0.48828-0.89062 0.36328-1.0898-0.18359-1.1016 1.0352-0.44141 0.46875-0.98047 0.98047-0.47266 0.64453 0.84375-0.26172 1.168 0.95312 0.73047 1.0312 0.55078 0.8125-0.59375 0.64062-0.86719 0.54688-0.95703 0.79297-0.99609 1.0352-0.5 1.0977 0.078125-0.47266 0.98828 0.27344 1.0234 1.0469-0.054688 1.3203-0.31641 1.1211 0.32422 1.1016 0.21484 1.043 0.23828 0.30078-1.0352 0.89062-0.46484 0.80859 0.58984 1.0938 0.48047 0.78516 0.66016 1.1211 0.47656 0.95312 0.30859 1.0156 0.51172 0.84766 0.57422 1.0195 0.375 1.1719 0.019532 0.92969 0.96094 0.26172 1.2344 0.72656 1.1211 0.44141 1.082 1.0234 0.39453 0.75391 0.70703 1.0039 0.29297 0.21094 1.1016 0.77734 0.83203 0.625 0.90234 1.082 0.42188 1.0156 0.52734 0.89844 0.60938 1.0859 0.1875 0.32422 0.94922 0.44141 0.89453 0.65625 0.83984 0.85547 0.625 0.87109 0.54297 1.0078 0.375 0.71094 0.80469 1.6133-0.17969 1.0352-0.03125 1.0352 0.69531 0.49219 0.89453 0.94141 0.69141 0.85156 0.625 0.95703 0.57812 0.91797-0.5625 1.1758-0.17969 0.92188 0.76953 1.1953 0.26172 1.0586-0.35156 1.0781-0.078125 0.92969-0.60547 0.82031-0.80469 1.0469-0.38672 0.80859 0.66406 1.0781 0.76562 1.0938 0.23828 0.67969 0.78906 1.0547 0.47656 0.92188 0.39844 1.0273 0.71484 0.78906 0.78516 0.81641 0.67578 1.0977 0.23828 1.2695 0.38672 0.75781 0.85547 0.48438 0.94531 0.42188 0.91797 0.80469 0.77344 0.72656 0.80859 0.097656 1.1211 0.03125 1.0586v1.0469l0.66016 0.80469 0.875 0.78516 0.64844 0.85156 0.55859 0.95703 0.80469 0.76562 0.91016 0.44922 0.76953 1.082 0.88672 0.72266 0.76953 0.65234 0.77734 0.68359 0.53125 0.90625 0.94531 0.5625 1.2383-0.27344 1.0273-0.24609 0.97656 0.3125 1.0508 0.63281 1.1406-0.32812 1.0039-0.18359 0.88672-0.51172 0.98047-0.22266 1.0156 0.13281 1.1328-0.078125 1.2344-0.51953 1.0078-0.55078 1.0859 0.074219 1.1367-0.71484 1.2617-0.63281 1-0.50781 0.97656-0.55078 1.1836-0.375 0.97266-0.25781 0.99609 0.52344 1.0547-0.011719 1.0039-0.45312 0.69141-0.84375 0.91016-0.49609 0.90234-0.46484 0.83594-0.65234 0.28125-1.0117 0.83594-0.65234 1.0586-0.40625 1.0703 0.015625 0.69141-0.74609 1.0273-0.57812 0.98047-0.29297 0.84766-0.86719 0.79297-0.69922 1.1406 0.34375 1.0039-0.39062 0.75781 0.67578 1.0977 0.33984 1.1172-0.015625 1.0547 0.36328 0.91406 0.51562 0.8125 0.59766 0.5 0.875 1.0312 0.19922-0.070313 1.0117 0.98438 0.49609 1.125-0.23438 0.48828 0.89062 0.21875 1.0352 0.79297 0.74609 0.48047 1 0.83203 1.3945 0.83594 0.72656 0.94141 0.53125-0.18359 1.0156 0.23047 0.97656 0.56641 0.96484 0.77344 0.70312 1.0586-0.16797 0.25781 1.1641 1.0156 0.39453 0.082031 1.1445 1.0586-0.035157 1.1445 0.066407 1.0508 0.75 0.78516 0.71484 0.28906 1.2031 1.4219 0.10547 1.168-0.09375 0.94141 0.375 1.1289-0.27734 0.74219-0.74219 0.83203-0.875 1.0977-0.20703 1.1406 0.17578 0.86719 0.51953 1.168 0.57422 0.94531 0.78125 0.57422 0.99609 0.52344 0.92188 0.25 1.1641 0.17969 0.99219 0.082031 1.0039 0.41406 1.2578 0.41797 0.97656 0.375 0.95703-0.089844 1.1016-0.78125 0.69141-1.0117 0.25-0.92188 0.44141-0.82422 0.62891 0.21875 1.1016 0.52734 1.0195 0.22656 1.2969 0.16797 1.9414-0.015625 1.0664 0.23047 1.0586 0.066406 1.1367 0.058594 1.0312 0.51172 0.99609 0.98047 0.625 0.82812 0.74609 0.94531 0.80078 0.82812 0.96875 0.45703 0.89844 0.63281 0.78516 0.09375 1.2266 0.34766 1.3594 0.30469 1.0078-0.042969 1.0977 0.19922 1.1016 0.34766 1.2578 0.019531 1.1992 0.36328 1.0391-0.14453 1.375 0.36719 1.0547 0.80078 0.99219 0.53906 1.1133 0.74219 1.2148 0.76172 0.87109 0.64453 0.78906 0.71094 0.83203 0.71875 1.1094 0.64453 0.88281 0.42578 1.0703 0.26562 1.0859 0.83203 1.3984 0.47656 1.2305 0.57031 1.375 0.44141 1.0898 0.5 1.1445 0.67578 1.582 0.23047 1.1094 0.65234 1.4336 0.55078 1.1758 0.60938 1.4531 0.73828 1.918 0.53516 1.6406 0.65234 1.0625 0.84766 0.78125 1.0156-0.27344 1.1172-0.039063 1.1445-0.066406 0.98438 0.34375 0.93359 0.48047 0.36328 1 0.63672 0.98828 0.35938 0.98438 0.12109 1.0859 0.074219 1.1367 0.24219 0.98047 0.32031 1.0234 0.69141 0.97266 0.38281 1.0586 0.55078 1.1445 1.0273 0.50391 1.1719 0.019531 1.1523-0.19531 1.0156-0.21094 1.0039 0.14062 0.90234 0.73438 0.44922 0.94141 0.97266 0.64062 1.1406 0.51953 0.76953 0.99609 0.58203 0.94531-0.050781 1.3711 0.61328 0.82422 0.74219 1.2305 0.28516 1.0078 0.64062 0.89062 0.87109 0.90234 0.65625 1 1.2852 0.86328 0.54297 0.87891 0.48047 1.082 0.62891 1.25 0.70312 1.125 0.69141 0.84766 1.0586 0.19141 1.332-0.20703 1.1836-0.14844 1.457-0.003906 1.0898-0.16797 1.0195-0.085937 0.98828-0.32812 1.0742 0.042968 1.0156 0.28125 1.2578 0.26953 0.39062-0.36328" fill="none" stroke="#fff" stroke-linecap="round" stroke-linejoin="round" stroke-miterlimit="10"/>
<path d="m161.25 233.11c0 3.5898-2.9102 6.5-6.5 6.5-3.5898 0-6.5-2.9102-6.5-6.5s2.9102-6.5 6.5-6.5c3.5898 0 6.5 2.9102 6.5 6.5" fill="#28c028" fill-rule="evenodd" stroke="#000" stroke-linecap="round" stroke-linejoin="round" stroke-miterlimit="10"/>
<path d="m78.863 227.11v-16.469h5.3438c2.0195 0 3.3359 0.085937 3.9531 0.25 0.9375 0.25 1.7227 0.79297 2.3594 1.625 0.63281 0.82422 0.95312 1.8867 0.95312 3.1875 0 1.0117-0.18359 1.8672-0.54688 2.5625-0.36719 0.6875-0.83594 1.2305-1.4062 1.625-0.5625 0.38672-1.1367 0.64062-1.7188 0.76562-0.79297 0.16797-1.9375 0.25-3.4375 0.25h-2.1719v6.2031zm3.3281-13.672v4.6719h1.8125c1.3125 0 2.1875-0.085938 2.625-0.26562 0.44531-0.17578 0.79688-0.44531 1.0469-0.8125 0.25-0.36328 0.375-0.78906 0.375-1.2812 0-0.59375-0.17969-1.082-0.53125-1.4688-0.35547-0.39453-0.79688-0.64062-1.3281-0.73438-0.39844-0.070313-1.1953-0.10938-2.3906-0.10938zm11.922 13.672v-16.469h3.3125v16.469zm6.4688-16.469h3.3125v8.9219c0 1.418 0.039063 2.3359 0.125 2.75 0.14453 0.67969 0.48438 1.2188 1.0156 1.625 0.53906 0.40625 1.2734 0.60938 2.2031 0.60938 0.9375 0 1.6445-0.19141 2.125-0.57812 0.47656-0.38281 0.76562-0.85938 0.85938-1.4219 0.10156-0.5625 0.15625-1.4922 0.15625-2.7969v-9.1094h3.3281v8.6562c0 1.9688-0.09375 3.3672-0.28125 4.1875-0.17969 0.8125-0.50781 1.5-0.98438 2.0625-0.48047 0.5625-1.125 1.0117-1.9375 1.3438s-1.8711 0.5-3.1719 0.5c-1.5742 0-2.7656-0.18359-3.5781-0.54688s-1.4531-0.83203-1.9219-1.4062c-0.46875-0.58203-0.77734-1.1914-0.92188-1.8281-0.21875-0.94531-0.32812-2.3438-0.32812-4.1875zm16.641 16.469v-16.469h7c1.7578 0 3.0352 0.15234 3.8281 0.45312 0.80078 0.29297 1.4414 0.82031 1.9219 1.5781 0.47656 0.75 0.71875 1.6172 0.71875 2.5938 0 1.2305-0.36719 2.25-1.0938 3.0625-0.73047 0.80469-1.8203 1.3086-3.2656 1.5156 0.71875 0.41797 1.3125 0.88281 1.7812 1.3906 0.46875 0.5 1.0977 1.3867 1.8906 2.6562l2.0156 3.2188h-3.9688l-2.4062-3.5781c-0.85547-1.2812-1.4375-2.0859-1.75-2.4219-0.3125-0.33203-0.64844-0.5625-1-0.6875-0.35547-0.125-0.91406-0.1875-1.6719-0.1875h-0.67188v6.875zm3.3281-9.5h2.4531c1.5938 0 2.5859-0.066406 2.9844-0.20312 0.39453-0.13281 0.70312-0.36328 0.92188-0.6875 0.22656-0.33203 0.34375-0.75 0.34375-1.25 0-0.55078-0.14844-0.99219-0.4375-1.3281-0.29297-0.34375-0.71094-0.5625-1.25-0.65625-0.27344-0.03125-1.0781-0.046875-2.4219-0.046875h-2.5938zm28.109 9.5h-3.6094l-1.4375-3.7344h-6.5781l-1.3594 3.7344h-3.5312l6.4062-16.469h3.5156zm-6.1094-6.5156-2.2812-6.1094-2.2188 6.1094zm0 0" fill="none" stroke="#fff" stroke-linecap="round" stroke-linejoin="round" stroke-miterlimit="10" stroke-width="2"/>
<path d="m78.863 227.11v-16.469h5.3438c2.0195 0 3.3359 0.085937 3.9531 0.25 0.9375 0.25 1.7227 0.79297 2.3594 1.625 0.63281 0.82422 0.95312 1.8867 0.95312 3.1875 0 1.0117-0.18359 1.8672-0.54688 2.5625-0.36719 0.6875-0.83594 1.2305-1.4062 1.625-0.5625 0.38672-1.1367 0.64062-1.7188 0.76562-0.79297 0.16797-1.9375 0.25-3.4375 0.25h-2.1719v6.2031zm3.3281-13.672v4.6719h1.8125c1.3125 0 2.1875-0.085938 2.625-0.26562 0.44531-0.17578 0.79688-0.44531 1.0469-0.8125 0.25-0.36328 0.375-0.78906 0.375-1.2812 0-0.59375-0.17969-1.082-0.53125-1.4688-0.35547-0.39453-0.79688-0.64062-1.3281-0.73438-0.39844-0.070313-1.1953-0.10938-2.3906-0.10938zm11.922 13.672v-16.469h3.3125v16.469zm6.4688-16.469h3.3125v8.9219c0 1.418 0.039063 2.3359 0.125 2.75 0.14453 0.67969 0.48438 1.2188 1.0156 1.625 0.53906 0.40625 1.2734 0.60938 2.2031 0.60938 0.9375 0 1.6445-0.19141 2.125-0.57812 0.47656-0.38281 0.76562-0.85938 0.85938-1.4219 0.10156-0.5625 0.15625-1.4922 0.15625-2.7969v-9.1094h3.3281v8.6562c0 1.9688-0.09375 3.3672-0.28125 4.1875-0.17969 0.8125-0.50781 1.5-0.98438 2.0625-0.48047 0.5625-1.125 1.0117-1.9375 1.3438s-1.8711 0.5-3.1719 0.5c-1.5742 0-2.7656-0.18359-3.5781-0.54688s-1.4531-0.83203-1.9219-1.4062c-0.46875-0.58203-0.77734-1.1914-0.92188-1.8281-0.21875-0.94531-0.32812-2.3438-0.32812-4.1875zm16.641 16.469v-16.469h7c1.7578 0 3.0352 0.15234 3.8281 0.45312 0.80078 0.29297 1.4414 0.82031 1.9219 1.5781 0.47656 0.75 0.71875 1.6172 0.71875 2.5938 0 1.2305-0.36719 2.25-1.0938 3.0625-0.73047 0.80469-1.8203 1.3086-3.2656 1.5156 0.71875 0.41797 1.3125 0.88281 1.7812 1.3906 0.46875 0.5 1.0977 1.3867 1.8906 2.6562l2.0156 3.2188h-3.9688l-2.4062-3.5781c-0.85547-1.2812-1.4375-2.0859-1.75-2.4219-0.3125-0.33203-0.64844-0.5625-1-0.6875-0.35547-0.125-0.91406-0.1875-1.6719-0.1875h-0.67188v6.875zm3.3281-9.5h2.4531c1.5938 0 2.5859-0.066406 2.9844-0.20312 0.39453-0.13281 0.70312-0.36328 0.92188-0.6875 0.22656-0.33203 0.34375-0.75 0.34375-1.25 0-0.55078-0.14844-0.99219-0.4375-1.3281-0.29297-0.34375-0.71094-0.5625-1.25-0.65625-0.27344-0.03125-1.0781-0.046875-2.4219-0.046875h-2.5938zm28.109 9.5h-3.6094l-1.4375-3.7344h-6.5781l-1.3594 3.7344h-3.5312l6.4062-16.469h3.5156zm-6.1094-6.5156-2.2812-6.1094-2.2188 6.1094z" fill-rule="evenodd"/>
</g>
</svg>
