<?xml version="1.0" encoding="UTF-8"?>
<svg width="375pt" height="500pt" version="1.1" viewBox="0 0 375 500" xmlns="http://www.w3.org/2000/svg">
<g id="a">
<rect width="375" height="500" fill="none"/>
<path d="m167.61 12.902 0.79297 1.4492 0.23438 2.9023 0.54688 1.9805 0.76562 3.8203 1.2617 0.375 1.2734 1.7422 0.48047 1.2344 0.40625 1.0938 0.71094 1.457 0.63672 1.8828-0.042968 1.8867 0.09375 1.1133 1.0078 0.75781 1.1484 0.53516 1.1289 0.89844 0.66016 1.0078 0.011719 1.0078-0.46094 1.3281 0.16406 1.0781 0.75 0.74219 0.91016 0.62109 0.5 1.0156 0.21484 1.1797 0.17578 2.2539 0.33594 0.96875 0.83594 0.625 0.48828 2.5039 0.21094 1.0156 0.50781 1.1758 0.92969 1.3828 0.80078 1.0195 0.79688 1.1562 0.86719 1.4727 0.58984 0.90234 0.67969 1.0078-1.6406 0.23047-1.1914-0.050782-1.6914-0.14844-1.0469 0.625-0.83203 1.1211-0.92969 0.98828-1.1797 0.16406-0.47656 2.1328 0.64062 2.4336-0.41406 1.0547-1.0742 0.69141-1.3359-1.3359-1.5664-1.3164-0.71484-1.0859-0.53906-0.94141-1.4023-0.5-1.6445 0.44141-1.7188 1.6406-0.92188 1.0195-0.66016 1.3438-0.76172 1.2188-0.55859 2.082 0.30078 2 0.14062 1.1836-1.0039 1.3828-1.4414 0.5h-1.3828l-1.0391 0.17969-0.98438 0.54297-0.84766 0.78906-0.40625 1.2734 0.44922 0.96875 1.3438 0.54297 0.81641 0.70703 0.57031 1.2695-0.019532 1.1328-0.40625 1.1172-0.6875 1.1523-0.8125 0.88672-1.4062 0.38672-2.2734 0.24219-1.8828 0.039063-1.6992-0.35938-1.8828-0.64062-1.082-0.34375-1.3594-0.078125-1.4609 0.76172-1.0039 0.35938-1.5 0.14062-1.9219-1.3008-0.85938-0.80078-1.4844-0.82031-1.7305-1.2617-0.21094-1.6836-0.32031-1-0.64062-0.96094-0.51953-1.1211-0.12109-1.2617-0.27734-2.9609-0.72266-1.1211-1.3008 1.0586-0.76172 1.6211-0.37891 1.9844-0.60156 1.7227-0.37891 0.9375-0.76172 0.94141-0.57812 0.96094-0.70312 1.4023-0.5 1.0391-0.98047 1.582-0.78125 1.6641-0.48047 1.1016-1.8008 0.29688-1.8008-0.15625-1.043-0.18359-1.0391 0.042969-1.4219 0.066406-1.5039-0.34766-1.1133-0.23047-1.5703-0.21094-1.3789-0.39844-1.0586-0.34375-1.3633-0.39844-1.7422-0.12109-1.7812-0.039063-0.98047 0.37891-1.1602 1.1016-0.82031 0.60156-0.90234 1.8398-0.039062 1.5039-0.36719 2.2422-0.53906 1.2344-0.71484 1.3281-1.0938 1.2109-1.1953 0.33984h-1.125l-1.2227-0.3125-1.0938-0.25391-1.3125-0.027344-1.2148 0.38281-0.88672 0.69922-0.98047 1.2344-1.1406 2.0312-1.7227 1.2188-1.5 1.375-0.6875 1.2227-0.47266 0.9375-1.8125 0.6875-1.0625-0.26172-0.74219-1.7148-0.54297-1.2227-0.9375-1.2734-0.58594-1.0273-0.69531-1.7539-0.58203-1.0859-0.42969-1.2539-0.49219-1.2031-1.0781-0.28125-0.53906-0.84375-1.7305-3.0469-1.1445-1.5898-2.0586-2.3203-0.82422-1.2227-1.1992-1.5586-1.5234-1.8555-0.86719-0.88281-1.1523-1.4648-1.2109-1.9023-1.168-1.5234-0.62891-1.1719-1.9688-2.6445-1.4141-2.0195-0.86719-1.0859-0.67969-1.0312-1.6719-1.9922-0.83594-1.2578-2.125-2.2031-0.97656-1.2383-1.043-1.1133-1.5352-1.9336-0.96875-1.1719-1.0352-1.1211-2.0234-2.1875-1.0625-1.2227-0.98438-1-0.64453-0.82422-2.2773-2.6133-1.3047-1.6758-1.5664-1.582-1.6211-2.0352-1.3945-1.6211-3.7344-4.0703-1.4805-1.6758-1.4492-1.9688 3.6875-1.1094 131.58-24.227z" fill="#ccc" fill-rule="evenodd"/>
<path d="m167.61 12.902 0.79297 1.4492 0.23438 2.9023 0.54688 1.9805 0.76562 3.8203 1.2617 0.375 1.2734 1.7422 0.48047 1.2344 0.40625 1.0938 0.71094 1.457 0.63672 1.8828-0.042968 1.8867 0.09375 1.1133 1.0078 0.75781 1.1484 0.53516 1.1289 0.89844 0.66016 1.0078 0.011719 1.0078-0.46094 1.3281 0.16406 1.0781 0.75 0.74219 0.91016 0.62109 0.5 1.0156 0.21484 1.1797 0.17578 2.2539 0.33594 0.96875 0.83594 0.625 0.48828 2.5039 0.21094 1.0156 0.50781 1.1758 0.92969 1.3828 0.80078 1.0195 0.79688 1.1562 0.86719 1.4727 0.58984 0.90234 0.67969 1.0078-1.6406 0.23047-1.1914-0.050782-1.6914-0.14844-1.0469 0.625-0.83203 1.1211-0.92969 0.98828-1.1797 0.16406-0.47656 2.1328 0.64062 2.4336-0.41406 1.0547-1.0742 0.69141-1.3359-1.3359-1.5664-1.3164-0.71484-1.0859-0.53906-0.94141-1.4023-0.5-1.6445 0.44141-1.7188 1.6406-0.92188 1.0195-0.66016 1.3438-0.76172 1.2188-0.55859 2.082 0.30078 2 0.14062 1.1836-1.0039 1.3828-1.4414 0.5h-1.3828l-1.0391 0.17969-0.98438 0.54297-0.84766 0.78906-0.40625 1.2734 0.44922 0.96875 1.3438 0.54297 0.81641 0.70703 0.57031 1.2695-0.019532 1.1328-0.40625 1.1172-0.6875 1.1523-0.8125 0.88672-1.4062 0.38672-2.2734 0.24219-1.8828 0.039063-1.6992-0.35938-1.8828-0.64062-1.082-0.34375-1.3594-0.078125-1.4609 0.76172-1.0039 0.35938-1.5 0.14062-1.9219-1.3008-0.85938-0.80078-1.4844-0.82031-1.7305-1.2617-0.21094-1.6836-0.32031-1-0.64062-0.96094-0.51953-1.1211-0.12109-1.2617-0.27734-2.9609-0.72266-1.1211-1.3008 1.0586-0.76172 1.6211-0.37891 1.9844-0.60156 1.7227-0.37891 0.9375-0.76172 0.94141-0.57812 0.96094-0.70312 1.4023-0.5 1.0391-0.98047 1.582-0.78125 1.6641-0.48047 1.1016-1.8008 0.29688-1.8008-0.15625-1.043-0.18359-1.0391 0.042969-1.4219 0.066406-1.5039-0.34766-1.1133-0.23047-1.5703-0.21094-1.3789-0.39844-1.0586-0.34375-1.3633-0.39844-1.7422-0.12109-1.7812-0.039063-0.98047 0.37891-1.1602 1.1016-0.82031 0.60156-0.90234 1.8398-0.039062 1.5039-0.36719 2.2422-0.53906 1.2344-0.71484 1.3281-1.0938 1.2109-1.1953 0.33984h-1.125l-1.2227-0.3125-1.0938-0.25391-1.3125-0.027344-1.2148 0.38281-0.88672 0.69922-0.98047 1.2344-1.1406 2.0312-1.7227 1.2188-1.5 1.375-0.6875 1.2227-0.47266 0.9375-1.8125 0.6875-1.0625-0.26172-0.74219-1.7148-0.54297-1.2227-0.9375-1.2734-0.58594-1.0273-0.69531-1.7539-0.58203-1.0859-0.42969-1.2539-0.49219-1.2031-1.0781-0.28125-0.53906-0.84375-1.7305-3.0469-1.1445-1.5898-2.0586-2.3203-0.82422-1.2227-1.1992-1.5586-1.5234-1.8555-0.86719-0.88281-1.1523-1.4648-1.2109-1.9023-1.168-1.5234-0.62891-1.1719-1.9688-2.6445-1.4141-2.0195-0.86719-1.0859-0.67969-1.0312-1.6719-1.9922-0.83594-1.2578-2.125-2.2031-0.97656-1.2383-1.043-1.1133-1.5352-1.9336-0.96875-1.1719-1.0352-1.1211-2.0234-2.1875-1.0625-1.2227-0.98438-1-0.64453-0.82422-2.2773-2.6133-1.3047-1.6758-1.5664-1.582-1.6211-2.0352-1.3945-1.6211-3.7344-4.0703-1.4805-1.6758-1.4492-1.9688 3.6875-1.1094 131.58-24.227 1.4141 1.8711" fill="none" stroke="#fff" stroke-linecap="round" stroke-linejoin="round" stroke-miterlimit="10" stroke-width="2"/>
<path d="m219.91 1.293 0.023438 0.18359 0.48828 1.0547-0.31641 1.082-0.65625 0.80859 0.37891 0.94141-0.13672 1.0352-0.046875 1.0117-0.007812 1.5273-1.4023-0.46094-1.293 0.30078-0.89062 0.58203-0.37109 1.0039-0.39062 1.1094 0.92188 0.65625 0.097657 1.2266 0.10547 1.0117 0.53516 1.2969-0.20312 1.0039-1.0273 0.21094-0.80078 0.9375 0.47656 1.0742 0.86719 0.94141 0.13281 1.0859-1.1562 0.83594-1.4766 1.7305-0.41797 1.2539-0.48047 1.0391-1.043 1.2227-0.050781 1.2617 0.51953 1.1016-0.67188 1.2695-1.5781-0.35547-0.34766 1.2773 0.63672 1.1602 0.31641 0.98047 1.3203 2.0195 0.0625 1.0273-1.0273 1.5742-0.80078 1.1211-1.25 1.5117-0.70703 1.2812-0.097656 1.3164 0.35156 1.2852 0.70703 1.4453 1.3164 1.4766 1.2188 0.60938 1.9609 0.83594 1.2812 0.54297 0.92969 0.83594 0.72266 1.3438 0.54297 1.0039 0.71094 1.2773 0.54297 1.0703 1.1172 1.0039 0.86719 0.83203 1 1.1484 0.60938 0.99609-0.97266-0.4375-1.6836-0.46875-1.1055-0.31641-1.5234 0.1875-1.1875 0.48438-1.1172-0.30469-1.3438-1.5-0.89062 0.69531-0.81641 1.1094-1.0781 0.52734-1.1484 0.67188-1.1484 0.375-1.2656 0.28125-1.1523 0.46484-0.83594 0.67188-0.59375 0.99219-0.5625 0.96484 0.039063 1.0312 1.1484 0.45312 1.457 0.36328 0.98828 0.78516 0.40625 0.95703 0.48438 1.043 1.1016 0.6875 0.26562 1.0352 0.63281 1.0508-0.10547 1.5469 0.015625 1.1914 0.26562 1.1055 0.32422 1.0117 0.95312 0.67188 0.17969 1.1602-0.21094 0.98438 0.41406 1.168-1.4648 0.57422-0.84375 0.78516-0.74219 0.82422-0.039063 1.0938 0.23438 0.98828-0.27344 1.3164-0.55078 0.91797-0.42188 1.3203 0.054687 1.1797 0.64844 0.9375 0.73438 1.0938 0.77734 0.66797 1.0273 0.53125-0.19141 1.2227-1.1562 0.82031-0.28516 1.1133-0.0625 1.125-0.09375 1.0039 0.52734 1.1133 1.2266 0.21875 0.98828 0.17969 1.0234 0.49609 0.76562 0.875 0.39453 1.0547-0.17969 1.0195-0.45703 0.99219-1.0898 1.2305-1.0195 0.83594-0.74219 0.84375-2.5898 3.4375-1.4688 1.1289-1.3477 0.5-1.3516 0.16016-2.7148-1.1172-0.71094-0.76562-1.0039-0.66797-1.5312-0.82812-1.2891 0.066406-1.8477-1-1.6211 0.015625-1.7812-0.21094-0.91406-0.52734-1.5547-0.28516-1.2852-0.82812-0.84766-0.79297-0.93359-0.44141-1.3047-0.73828-1.1641-0.95312-0.88281-0.87891-0.625-1.2188-0.28516-0.98047-0.40234-1.0664 0.011719-1.043-0.625-1.0156 0.22266-1.0156 0.33594-1.0234 0.25781-1.2422-0.17188-1.4883 0.36328-1.3867 0.023437-1.2383 0.13281-1.6445 0.50781-1.582 0.007813-2.0664-0.48047-1.3867-0.51172-0.89062 0.066406-1.3945-0.066406-2.1797-0.76562-2.4609-0.30078-0.97266-1.3477-3.207-1.2734-2.1445 0.95703-0.29297 0.94922-0.96094-0.41406-2.418 0.35156-2.8008 1.1797-0.16406 0.71484-0.71484 1.0469-1.3945 1.0469-0.625 1.6914 0.14844 1.1914 0.050782 1.1016 0.015625-0.14062-1.2539-0.58984-0.90234-0.66016-1.1367-0.74609-1.1406-1.0586-1.3711-0.92969-1.3828-0.44922-0.92188-0.26953-1.2695-0.32812-1.7695-0.40234-0.9375-0.85547-0.77344-0.17969-2.1914-0.12109-1.0078-0.23828-1.1289-0.76953-1.0352-1.0742-0.52734-0.36719-0.96094 0.085937-1.0547 0.34766-1.2812-0.68359-1.6641-1.0508-0.86328-1.1641-0.5625-0.92578-0.51562-0.23828-1.3633 0.058593-1.2305-0.36719-1.9492-0.59766-1.1719-0.80469-1.9688-0.48047-1.2344-1.2734-1.7422-1.2617-0.375-0.76562-3.8203-0.54688-1.9805-0.14062-2.1562-0.88672-2.1953-1.4141-1.8711 53.594-9.8945z" fill="#ccc" fill-rule="evenodd"/>
<path d="m219.91 1.293 0.023438 0.18359 0.48828 1.0547-0.31641 1.082-0.65625 0.80859 0.37891 0.94141-0.13672 1.0352-0.046875 1.0117-0.007812 1.5273-1.4023-0.46094-1.293 0.30078-0.89062 0.58203-0.37109 1.0039-0.39062 1.1094 0.92188 0.65625 0.097657 1.2266 0.10547 1.0117 0.53516 1.2969-0.20312 1.0039-1.0273 0.21094-0.80078 0.9375 0.47656 1.0742 0.86719 0.94141 0.13281 1.0859-1.1562 0.83594-1.4766 1.7305-0.41797 1.2539-0.48047 1.0391-1.043 1.2227-0.050781 1.2617 0.51953 1.1016-0.67188 1.2695-1.5781-0.35547-0.34766 1.2773 0.63672 1.1602 0.31641 0.98047 1.3203 2.0195 0.0625 1.0273-1.0273 1.5742-0.80078 1.1211-1.25 1.5117-0.70703 1.2812-0.097656 1.3164 0.35156 1.2852 0.70703 1.4453 1.3164 1.4766 1.2188 0.60938 1.9609 0.83594 1.2812 0.54297 0.92969 0.83594 0.72266 1.3438 0.54297 1.0039 0.71094 1.2773 0.54297 1.0703 1.1172 1.0039 0.86719 0.83203 1 1.1484 0.60938 0.99609-0.97266-0.4375-1.6836-0.46875-1.1055-0.31641-1.5234 0.1875-1.1875 0.48438-1.1172-0.30469-1.3438-1.5-0.89062 0.69531-0.81641 1.1094-1.0781 0.52734-1.1484 0.67188-1.1484 0.375-1.2656 0.28125-1.1523 0.46484-0.83594 0.67188-0.59375 0.99219-0.5625 0.96484 0.039063 1.0312 1.1484 0.45312 1.457 0.36328 0.98828 0.78516 0.40625 0.95703 0.48438 1.043 1.1016 0.6875 0.26562 1.0352 0.63281 1.0508-0.10547 1.5469 0.015625 1.1914 0.26562 1.1055 0.32422 1.0117 0.95312 0.67188 0.17969 1.1602-0.21094 0.98438 0.41406 1.168-1.4648 0.57422-0.84375 0.78516-0.74219 0.82422-0.039063 1.0938 0.23438 0.98828-0.27344 1.3164-0.55078 0.91797-0.42188 1.3203 0.054687 1.1797 0.64844 0.9375 0.73438 1.0938 0.77734 0.66797 1.0273 0.53125-0.19141 1.2227-1.1562 0.82031-0.28516 1.1133-0.0625 1.125-0.09375 1.0039 0.52734 1.1133 1.2266 0.21875 0.98828 0.17969 1.0234 0.49609 0.76562 0.875 0.39453 1.0547-0.17969 1.0195-0.45703 0.99219-1.0898 1.2305-1.0195 0.83594-0.74219 0.84375-2.5898 3.4375-1.4688 1.1289-1.3477 0.5-1.3516 0.16016-2.7148-1.1172-0.71094-0.76562-1.0039-0.66797-1.5312-0.82812-1.2891 0.066406-1.8477-1-1.6211 0.015625-1.7812-0.21094-0.91406-0.52734-1.5547-0.28516-1.2852-0.82812-0.84766-0.79297-0.93359-0.44141-1.3047-0.73828-1.1641-0.95312-0.88281-0.87891-0.625-1.2188-0.28516-0.98047-0.40234-1.0664 0.011719-1.043-0.625-1.0156 0.22266-1.0156 0.33594-1.0234 0.25781-1.2422-0.17188-1.4883 0.36328-1.3867 0.023437-1.2383 0.13281-1.6445 0.50781-1.582 0.007813-2.0664-0.48047-1.3867-0.51172-0.89062 0.066406-1.3945-0.066406-2.1797-0.76562-2.4609-0.30078-0.97266-1.3477-3.207-1.2734-2.1445 0.95703-0.29297 0.94922-0.96094-0.41406-2.418 0.35156-2.8008 1.1797-0.16406 0.71484-0.71484 1.0469-1.3945 1.0469-0.625 1.6914 0.14844 1.1914 0.050782 1.1016 0.015625-0.14062-1.2539-0.58984-0.90234-0.66016-1.1367-0.74609-1.1406-1.0586-1.3711-0.92969-1.3828-0.44922-0.92188-0.26953-1.2695-0.32812-1.7695-0.40234-0.9375-0.85547-0.77344-0.17969-2.1914-0.12109-1.0078-0.23828-1.1289-0.76953-1.0352-1.0742-0.52734-0.36719-0.96094 0.085937-1.0547 0.34766-1.2812-0.68359-1.6641-1.0508-0.86328-1.1641-0.5625-0.92578-0.51562-0.23828-1.3633 0.058593-1.2305-0.36719-1.9492-0.59766-1.1719-0.80469-1.9688-0.48047-1.2344-1.2734-1.7422-1.2617-0.375-0.76562-3.8203-0.54688-1.9805-0.14062-2.1562-0.88672-2.1953-1.4141-1.8711 53.594-9.8945 0.11328 0.15625" fill="none" stroke="#fff" stroke-linecap="round" stroke-linejoin="round" stroke-miterlimit="10" stroke-width="2"/>
<path d="m187.84 124.61 0.30859 0.23828 8.3789 9.9883 17.359 20.934 9.7422 10.898 1.4062 32.805 0.95703 20.84 1.5625 26.027 0.082032 1.3828 0.82422 20.48 1.2969 20.508 0.55469 11.551 1.0547 13.105 0.007813 1.8438 0.29688 4.9844-0.16406 5.7734-0.082031 1.1445-0.19141 1.2305-0.41016 1.582-0.63281 1.1875-0.50781 1.4336-0.19141 1.3672v2.2266l0.046875 1.0977-0.39062 1.1016-1.5156 0.21875-1.0781-0.046875-0.94141 0.36328-0.98828 1.1016-1.0273 2.3711-0.87891 2.1016-0.36719 0.98047-0.97656 1.0273-1.2969 0.46484-0.97656-0.21875-0.75781-0.66406-1.0273-1.2227-0.71094-0.87891-0.51953-1.0039-0.85156-0.64844-2.332 1.1289-0.91797 1.2031-0.57031 0.88281-0.40625 1.0273-1.1055 1.3516-1.1289 0.78125-0.35938 1.1406-1.1602 1.9922-0.58594 0.84766-0.8125 0.92578-0.62109 0.83203-0.61328 1.3047-1.3789 3.207-0.35547 1.0078-0.83203 1.4727-0.63281 0.96094-1.1914 1.5977-1.8906 2.1836-0.75 0.99609-0.92969 0.99219-1.0586 1.4023-0.73438 1.2383 0.035157 1.0469 0.73047 1.1172-1.6094 0.22266-1.1914 0.32422h-1.543l-1.8359 0.38672-1.7383 0.38281-1.6055 1.0625-1.0977 0.54688-0.96094 0.86719-0.48438 1.0625-0.23047 1.0586-0.46484 1.7227 3.5664 16.27 0.76953 3.5195 12.227 5.6797 5.4336 2.5273 27.211 27.098 0.12109 1.3867 0.10547 2.0312 0.066407 2.0859 0.19531 3.8203 0.007813 1.0547 0.027343 3.3906 0.054688 1.957 0.015625 2.0586 0.011719 1.3984 0.37109 9.1602 0.03125 2.9062-0.49219 1.0742-9.0156 2.0039-1.8789 2.6211-4.5469 6.4531-4.1641 5.7656-1.5117 2.2461-0.37109 1.6133-1.1836 2.5391-3.9453 7.7812-1.2852-1.0273-1.8438-2.1758-0.77344-0.85547-0.89844-1.0547-2.1992-2.5391-0.93359-1.0312-2.293-2.168-0.59375-0.88672-2.6445-3.0469-1.5977-1.2422-0.89062-0.84375-1.1055-0.87891-0.72656-0.77344-1.1641-1.5469-1.4297-1.3672-1.8281-1.5977-0.68359-0.89062-1.7617-1.707-1-0.78125-1.1602-1.2031-1.1328-1.3984-0.82031-0.73828-1.3945-1.3906-1.2617-1.0977-0.87109-0.59375-1.3281-1.0312-3.293-3.1641-1.125-1.1406-2.2852-1.9102-1.7227-1.668-1.1211-0.82422-0.75-0.72266-1.5195-1.2578-0.91797-0.63281-1.4102-1.3164-1.2852-0.94531-2.0078-1.1719-1.5195-1.3242-2.4922-1.9375-1.6406-1.4219-3.1211-2.2031-1.1172-0.625-2.1016-1.2891-5.0977-3.4688-2.125-0.92188-1.7656-0.45703-1.1328-0.99219-1.0508-0.20703-1.5586 0.007813-1.1875-0.24219-0.94531-0.66016-1.1172-0.40234-0.91797 0.45312-1.0938 0.89453-1.4414 0.99609-1.4023 0.10156-1.1016 0.86328-1.0156 0.36719-0.73828 1.1055-1.4727 0.80469-1.3516 0.38672-1.0352-0.09375-1.1055-0.5-0.85547-1.0039-0.69531-1.3438-1.0547-1.5156-0.36719-1.0703-0.67188-1.1211-1.0742-2.1016-0.10938-1.1602-0.66406-1.1523-0.44531-1.0391 0.24219-1.2656-0.62891-1.5117-0.67188-1.2773-0.65625-0.78516-0.94922-1.2305-0.47266-1.1914-1.1758-1.0703-2.0664-1.1133-0.085938-1.0469-1.1055-0.41016-1.3008-0.49609-0.078125-1.0312-0.44531-2.7695-0.875-1.1406-1.3164-0.97656-0.46484-0.88672-0.09375-1.7109-1.0039-2.1953-0.95312-1.457-1.7383-2.2695-0.62891-1.0195-0.65625-0.94531-1.8906-2.3281-1.7734-0.96484-1.1641 0.16016-1.1016-1.332-1.25-0.66016-1.5469-0.66406-0.97656-0.28125-1.0078 0.066406-0.76172-0.75391 0.30078-1.3047-0.63281-1.2852-1.1055-1.0625-0.76562-0.77734-1.1094-1.0391-0.97266-1.125-1.3945-1.1836-0.69922-0.98047-0.70703-0.87109-1.0078-0.81641-1.5195-1.3633-0.82422-0.61328-1.3086-1.2461-2.2539-2.6758-0.79688-0.63672-2.9258-2.6211-1.0586-1.0898-2.9141-2.6445-1.1758-0.96484-1.6719-1.5391-1.2109-1.4062-0.875-0.57812-1.1328-0.82812-1.5039-0.22266-0.82422-0.58984-1.0352-0.09375-0.99609-1.0039-0.26172-0.96875-0.94141-0.89844-0.90625-0.64453-0.61328-1.1562-0.60547-2.0078-0.63281-1.0039 0.10938-1.2578-0.14844-1.082 0.44141-0.90234 0.37109-1.207 0.015625-1.0977 1.2188-1.4492 1.6328-2.5039 0.019531-1.4062 0.79688-0.85547 0.29297-1.3164-0.30078-1.4062 0.87109-0.89453 0.71484 0.88672 1.1172-0.070312 0.84766-1.1289 0.57422-1.082 1.0898-0.25781 0.89062-0.61328 1.1172-0.042968 1.6289-1.2305 0.71094-1 0.74219-0.8125-0.074219-1.0273 1.4922-0.8125 1.0234-0.19141 0.027344-1.125 0.58203-0.9375-0.31641-1.4062 0.48828-1.4219 1.4453-0.52344 0.26953-2.6055 0.70312-1.3359-0.25781-1.0273 0.96094-1.3477 0.74219-1.3398 0.17578-1.0977-0.10156-1.0547 0.22656-1.7344-0.035157-1.1211-0.078125-1.9414-0.25-1.1758 0.03125-1.1211-0.32812-1.1133-0.95703-2.5781-0.80859-1.7188-0.375-1.2031-0.83984-1.625-1.1367-0.83984-0.67188-1.1875-0.83984-0.63281-0.99219-0.85156-0.35156-1.3203-0.019531-1.3438-0.48828-0.98828 0.41406-1.1094-0.27734-1.1992-1.1523 0.007813-0.89844-1.2891 1.3828-0.4375 1.3359 0.066406 1.2031 0.28516 1.082-0.72266 0.97266-0.77734 1.207 0.53516 1.7773-0.31641 0.77344-0.82422 0.58203-0.92969 1.543-0.68359 0.97266-0.3125 0.69141-1.3945 1.6523-1.4648 0.37891-1.5273-0.074219-1.0391 0.039062-1.4766 0.44531-1.7422 0.10938-2.4258-0.30469-1.4609-1.0742-3.9375-0.44531-1.6836-0.59766-1.6055-0.48047-1.7812-0.55469-1.4531-1.1523-2.043-0.67188-2.0742-0.875-2.0625-1.6211-1.3477-1.1875-0.15625-0.52734-1.168 1.1016-0.71875 1.6445-0.52734-0.58984-1.0156 0.32422-1.0977-0.28906-1.1016 0.46484-1.1914 0.73828-0.77344 1.082 0.26953 0.82422-0.97266 1.207-0.92969 0.46484-1.4062 0.71875-0.8125 0.30469-0.99609 1.1094-1.2383 1.4375 0.5 0.95703 0.55859 0.93359 0.53906 1.0234 0.80469 0.78125 0.94531 1 0.15234 1.2617 0.28906 1.168 1.1328 2.5547-0.054688 2.4766-1.1016 1.2109-0.45703 1.0234-0.67578 0.67969-0.88281 2.1875-0.97656 0.95703-0.32812 1.3438-1.6484 0.90625-1.0273 1.1016 0.054688 1.6367 0.066406 1.2109-0.41016 1.2109 0.62891 0.55469 1.1875 0.83203 0.76953 1.418-0.46094 1.9258 2.5312 2.3789 2.6836-0.66406 0.97266 1.1406 1.2969 1.1289 0.60547 1.2969 0.44531 1.7891 0.875 1.625 0.32031 1.0352 0.23438-0.70312-3.8555 1.8125 3.3359 1.7734-0.76953 1.1992-0.88281 1.1289-0.80078 1.6875 0.11328 1.0234 0.20312 1.3359 0.10938 1.0664 0.023438 1.1211 0.35156 1.4414-0.43359 1.582 0.10547 1.0977-0.47656 0.99219-0.46875 1.3711-0.83594 1.5-1.4102 1.0195-1.1875 1.7969-3.6953 0.92969-0.89453 1.2617 0.53125 1.1094-0.30859 1.2617-0.69531 0.94922-1.1992 1.0078-1.2969 0.94141-2.0742 1.0391-1.1484 0.77734-1.5859 0.67969-2.1836 0.66797-1.5273 0.66406-1.6133 0.77734-1.6094 1.0273 0.74609 1.6992 0.92578 1.6211 0.94141 1.4219 0.62109 0.86328-2.3984 1.918-5.5625 0.38281-1.9648 0.76953-3.3125 0.8125-3.6914 1.918-8.5352 1.7773-8.4883 0.95703-3.9844 0.90234-4.7461 2.6875-15.48 1.4141-5.9961 1.5078-2.2969 1.7656-2.1484 1.4297-2.1406 6.3672-24.164 1.3047-4.5664 4.1484-4.3438 1.4492-1.3906 1.8633-1.5117z" fill="#ccc" fill-rule="evenodd"/>
<path d="m187.84 124.61 0.30859 0.23828 8.3789 9.9883 17.359 20.934 9.7422 10.898 1.4062 32.805 0.95703 20.84 1.5625 26.027 0.082032 1.3828 0.82422 20.48 1.2969 20.508 0.55469 11.551 1.0547 13.105 0.007813 1.8438 0.29688 4.9844-0.16406 5.7734-0.082031 1.1445-0.19141 1.2305-0.41016 1.582-0.63281 1.1875-0.50781 1.4336-0.19141 1.3672v2.2266l0.046875 1.0977-0.39062 1.1016-1.5156 0.21875-1.0781-0.046875-0.94141 0.36328-0.98828 1.1016-1.0273 2.3711-0.87891 2.1016-0.36719 0.98047-0.97656 1.0273-1.2969 0.46484-0.97656-0.21875-0.75781-0.66406-1.0273-1.2227-0.71094-0.87891-0.51953-1.0039-0.85156-0.64844-2.332 1.1289-0.91797 1.2031-0.57031 0.88281-0.40625 1.0273-1.1055 1.3516-1.1289 0.78125-0.35938 1.1406-1.1602 1.9922-0.58594 0.84766-0.8125 0.92578-0.62109 0.83203-0.61328 1.3047-1.3789 3.207-0.35547 1.0078-0.83203 1.4727-0.63281 0.96094-1.1914 1.5977-1.8906 2.1836-0.75 0.99609-0.92969 0.99219-1.0586 1.4023-0.73438 1.2383 0.035157 1.0469 0.73047 1.1172-1.6094 0.22266-1.1914 0.32422h-1.543l-1.8359 0.38672-1.7383 0.38281-1.6055 1.0625-1.0977 0.54688-0.96094 0.86719-0.48438 1.0625-0.23047 1.0586-0.46484 1.7227 3.5664 16.27 0.76953 3.5195 12.227 5.6797 5.4336 2.5273 27.211 27.098 0.12109 1.3867 0.10547 2.0312 0.066407 2.0859 0.19531 3.8203 0.007813 1.0547 0.027343 3.3906 0.054688 1.957 0.015625 2.0586 0.011719 1.3984 0.37109 9.1602 0.03125 2.9062-0.49219 1.0742-9.0156 2.0039-1.8789 2.6211-4.5469 6.4531-4.1641 5.7656-1.5117 2.2461-0.37109 1.6133-1.1836 2.5391-3.9453 7.7812-1.2852-1.0273-1.8438-2.1758-0.77344-0.85547-0.89844-1.0547-2.1992-2.5391-0.93359-1.0312-2.293-2.168-0.59375-0.88672-2.6445-3.0469-1.5977-1.2422-0.89062-0.84375-1.1055-0.87891-0.72656-0.77344-1.1641-1.5469-1.4297-1.3672-1.8281-1.5977-0.68359-0.89062-1.7617-1.707-1-0.78125-1.1602-1.2031-1.1328-1.3984-0.82031-0.73828-1.3945-1.3906-1.2617-1.0977-0.87109-0.59375-1.3281-1.0312-3.293-3.1641-1.125-1.1406-2.2852-1.9102-1.7227-1.668-1.1211-0.82422-0.75-0.72266-1.5195-1.2578-0.91797-0.63281-1.4102-1.3164-1.2852-0.94531-2.0078-1.1719-1.5195-1.3242-2.4922-1.9375-1.6406-1.4219-3.1211-2.2031-1.1172-0.625-2.1016-1.2891-5.0977-3.4688-2.125-0.92188-1.7656-0.45703-1.1328-0.99219-1.0508-0.20703-1.5586 0.007813-1.1875-0.24219-0.94531-0.66016-1.1172-0.40234-0.91797 0.45312-1.0938 0.89453-1.4414 0.99609-1.4023 0.10156-1.1016 0.86328-1.0156 0.36719-0.73828 1.1055-1.4727 0.80469-1.3516 0.38672-1.0352-0.09375-1.1055-0.5-0.85547-1.0039-0.69531-1.3438-1.0547-1.5156-0.36719-1.0703-0.67188-1.1211-1.0742-2.1016-0.10938-1.1602-0.66406-1.1523-0.44531-1.0391 0.24219-1.2656-0.62891-1.5117-0.67188-1.2773-0.65625-0.78516-0.94922-1.2305-0.47266-1.1914-1.1758-1.0703-2.0664-1.1133-0.085938-1.0469-1.1055-0.41016-1.3008-0.49609-0.078125-1.0312-0.44531-2.7695-0.875-1.1406-1.3164-0.97656-0.46484-0.88672-0.09375-1.7109-1.0039-2.1953-0.95312-1.457-1.7383-2.2695-0.62891-1.0195-0.65625-0.94531-1.8906-2.3281-1.7734-0.96484-1.1641 0.16016-1.1016-1.332-1.25-0.66016-1.5469-0.66406-0.97656-0.28125-1.0078 0.066406-0.76172-0.75391 0.30078-1.3047-0.63281-1.2852-1.1055-1.0625-0.76562-0.77734-1.1094-1.0391-0.97266-1.125-1.3945-1.1836-0.69922-0.98047-0.70703-0.87109-1.0078-0.81641-1.5195-1.3633-0.82422-0.61328-1.3086-1.2461-2.2539-2.6758-0.79688-0.63672-2.9258-2.6211-1.0586-1.0898-2.9141-2.6445-1.1758-0.96484-1.6719-1.5391-1.2109-1.4062-0.875-0.57812-1.1328-0.82812-1.5039-0.22266-0.82422-0.58984-1.0352-0.09375-0.99609-1.0039-0.26172-0.96875-0.94141-0.89844-0.90625-0.64453-0.61328-1.1562-0.60547-2.0078-0.63281-1.0039 0.10938-1.2578-0.14844-1.082 0.44141-0.90234 0.37109-1.207 0.015625-1.0977 1.2188-1.4492 1.6328-2.5039 0.019531-1.4062 0.79688-0.85547 0.29297-1.3164-0.30078-1.4062 0.87109-0.89453 0.71484 0.88672 1.1172-0.070312 0.84766-1.1289 0.57422-1.082 1.0898-0.25781 0.89062-0.61328 1.1172-0.042968 1.6289-1.2305 0.71094-1 0.74219-0.8125-0.074219-1.0273 1.4922-0.8125 1.0234-0.19141 0.027344-1.125 0.58203-0.9375-0.31641-1.4062 0.48828-1.4219 1.4453-0.52344 0.26953-2.6055 0.70312-1.3359-0.25781-1.0273 0.96094-1.3477 0.74219-1.3398 0.17578-1.0977-0.10156-1.0547 0.22656-1.7344-0.035157-1.1211-0.078125-1.9414-0.25-1.1758 0.03125-1.1211-0.32812-1.1133-0.95703-2.5781-0.80859-1.7188-0.375-1.2031-0.83984-1.625-1.1367-0.83984-0.67188-1.1875-0.83984-0.63281-0.99219-0.85156-0.35156-1.3203-0.019531-1.3438-0.48828-0.98828 0.41406-1.1094-0.27734-1.1992-1.1523 0.007813-0.89844-1.2891 1.3828-0.4375 1.3359 0.066406 1.2031 0.28516 1.082-0.72266 0.97266-0.77734 1.207 0.53516 1.7773-0.31641 0.77344-0.82422 0.58203-0.92969 1.543-0.68359 0.97266-0.3125 0.69141-1.3945 1.6523-1.4648 0.37891-1.5273-0.074219-1.0391 0.039062-1.4766 0.44531-1.7422 0.10938-2.4258-0.30469-1.4609-1.0742-3.9375-0.44531-1.6836-0.59766-1.6055-0.48047-1.7812-0.55469-1.4531-1.1523-2.043-0.67188-2.0742-0.875-2.0625-1.6211-1.3477-1.1875-0.15625-0.52734-1.168 1.1016-0.71875 1.6445-0.52734-0.58984-1.0156 0.32422-1.0977-0.28906-1.1016 0.46484-1.1914 0.73828-0.77344 1.082 0.26953 0.82422-0.97266 1.207-0.92969 0.46484-1.4062 0.71875-0.8125 0.30469-0.99609 1.1094-1.2383 1.4375 0.5 0.95703 0.55859 0.93359 0.53906 1.0234 0.80469 0.78125 0.94531 1 0.15234 1.2617 0.28906 1.168 1.1328 2.5547-0.054688 2.4766-1.1016 1.2109-0.45703 1.0234-0.67578 0.67969-0.88281 2.1875-0.97656 0.95703-0.32812 1.3438-1.6484 0.90625-1.0273 1.1016 0.054688 1.6367 0.066406 1.2109-0.41016 1.2109 0.62891 0.55469 1.1875 0.83203 0.76953 1.418-0.46094 1.9258 2.5312 2.3789 2.6836-0.66406 0.97266 1.1406 1.2969 1.1289 0.60547 1.2969 0.44531 1.7891 0.875 1.625 0.32031 1.0352 0.23438-0.70312-3.8555 1.8125 3.3359 1.7734-0.76953 1.1992-0.88281 1.1289-0.80078 1.6875 0.11328 1.0234 0.20312 1.3359 0.10938 1.0664 0.023438 1.1211 0.35156 1.4414-0.43359 1.582 0.10547 1.0977-0.47656 0.99219-0.46875 1.3711-0.83594 1.5-1.4102 1.0195-1.1875 1.7969-3.6953 0.92969-0.89453 1.2617 0.53125 1.1094-0.30859 1.2617-0.69531 0.94922-1.1992 1.0078-1.2969 0.94141-2.0742 1.0391-1.1484 0.77734-1.5859 0.67969-2.1836 0.66797-1.5273 0.66406-1.6133 0.77734-1.6094 1.0273 0.74609 1.6992 0.92578 1.6211 0.94141 1.4219 0.62109 0.86328-2.3984 1.918-5.5625 0.38281-1.9648 0.76953-3.3125 0.8125-3.6914 1.918-8.5352 1.7773-8.4883 0.95703-3.9844 0.90234-4.7461 2.6875-15.48 1.4141-5.9961 1.5078-2.2969 1.7656-2.1484 1.4297-2.1406 6.3672-24.164 1.3047-4.5664 4.1484-4.3438 1.4492-1.3906 1.8633-1.5117 0.57031 0.94141" fill="none" stroke="#fff" stroke-linecap="round" stroke-linejoin="round" stroke-miterlimit="10" stroke-width="2"/>
<path d="m228.86 1.9609 27.301 24.848-0.29297 1.4922 0.027343 1.5195 0.62891 2.7578 0.35938 3.1523-0.83594 3.9219-1.6484 5.2305-0.96875 1.2773-2.4727 2.6602-0.70703 0.85156-0.57422 1.0195-0.83203 2.3555-0.34375 0.96875 0.050781 3.4102 0.61719 1.7734 0.16406 1.0898-10.836 13.668 1.3555 0.19922 0.51562 0.91016 0.60938 0.89453-0.16406 1.293 0.46484 0.89062 1.3555-0.085937 0.97656 0.46094 1.9922 0.82422 1.2031-0.40234 1.75-0.26953 1.5938-0.27344 1.0508-1.2031-0.26953 4.6562 1.2422 3.4297-0.78516 1.4414-0.22266 1.0703-0.039063 1.2539 0.73828 1.5547 1.0352 0.21875 0.99609 1.8828 0.55469 1.332 0.96094 0.92188 1.2188-0.074218 1.1055 0.035156 1.0742 0.55469 0.95703 0.73828 1.4062 1.0312 1.1602 1.1523-1.0703 0.57031-1.3086 0.57031-1.6484 3.2422-0.36719 0.9375-0.84766 1.1875-0.97266 0.88281-1.3594 0.55859-1.8203 0.09375-1.1445-0.09375-1.5469-0.46875-0.91406-0.87109-0.50391-1.1133-0.34375-1.332 0.11328-1.207 0.023438-1.0625-0.089844-1.5664-0.011719-1.1094-0.39453-1.0352-0.96875-1.1992-0.75391-0.66406-1.0312-0.90234-1.3047-0.53125-1.2227-0.38672-1.5234-0.65234-1.0195-0.98438-0.73438-1.1562-0.98438-0.55078-1.2812-0.019531-1.2812-0.48047-1.2031-0.39062-1.168-0.16016-0.83203 0.88281-0.55078 1.0156-0.87109 0.69922-0.53125 1.7422 0.19922 1.1523 0.24219 1.0117-0.33203 1.1094 0.14844 1.1758 0.62891 1.3164 0.57422 1.168 0.52344 1.2578-0.22656 1.2617-0.62891 0.83594-0.41406 1.0977-0.97266 0.88281-1.1289 0.25391-1.1562-1.6133-0.25781-1.0586-1.2109-1.0391-1.2344-0.5-1.6602-0.76562-0.82812-1.1055-0.085937-1.6172 0.13672-1.2773-0.11719-1.1328-0.67578-0.96094-0.85547-0.65234-1.0195-0.65234-1.0898-0.25391-1.0859-0.078125-1.4805-0.14844-1.3789-0.10547-0.99609 0.14844-1.0156 0.17188-1.293 0.011719-0.90625-0.48828-0.88281-0.51562-1.0938-0.80078-0.73438-1.0938-0.64844-0.9375-0.054687-1.1797 0.42188-1.3203 0.55078-0.91797 0.27344-1.3164-0.23438-0.98828 0.039063-1.0938 0.74219-0.82422 0.76172-0.72266 1.3359-0.35547-0.21094-1.0859 0.22656-1.1562-0.16016-1.2305-0.98047-0.79297-0.32422-1.0117-0.26562-1.1055-0.015625-1.1914 0.18359-0.99609-0.33984-1.1172-0.50781-1.2031-1.2305-1.0039-0.48438-1.043-0.40625-0.95703-0.98828-0.78516-0.86328-0.58984-1.3438 0.066407-0.49219-1.0781 0.46484-0.98438 0.47656-0.92578 0.84375-0.80078 0.97266-0.45312 0.97266-0.31641 1.1562-0.25781 1.3711-0.54297 1.25-0.69531 0.99609-0.95312 0.36328-1.0703 1.3203 0.80078 1.0078 0.90625 1.6992-0.22656 1.2656-0.38672 1.6641 0.35547 1.6836 0.46875 1.1172 0.77734-0.75391-1.3359-0.95312-1.0352-0.91406-0.94531-1.1172-1.0039-0.54297-1.0703-0.87109-0.77344 0.015625-1.0117-1.1211-1.8398-0.92969-0.83594-1.2812-0.54297-1.9609-0.83594-1.2188-0.60938-1.3164-1.4766-0.70703-1.4453-0.35156-1.2852 0.097656-1.3164 0.70703-1.2812 1.25-1.5117 0.80078-1.1211 0.70312-0.89062 0.26172-1.7109-1.125-1.457-0.35547-1.1328-0.79297-1.5703 0.0625-1.1953 1.3516 0.32422 1.0039-0.375-0.16797-1.4492-0.42188-0.96094 0.92188-1.3984 0.90234-1.7617 0.41797-1.2539 0.80078-1.1875 1.3164-0.99219 0.60938-0.98828-0.79297-0.89844-0.86719-1.0742 0.64844-0.95703 0.65625-0.85938 0.89844-0.54688-0.61719-1.6133-0.10547-1.0117-0.097657-1.2266-0.92188-0.65625 0.39062-1.1094 0.37109-1.0039 0.89062-0.58203 1.0195-0.40625 0.92969 0.76172 0.81641-1.0742-0.046875-1.5312 0.25-1.0742-0.46094-1.0312 0.65625-0.80859 0.31641-1.082-0.76172-0.67969 5.6016-1.5586 1.5039-0.29297z" fill="#ccc" fill-rule="evenodd"/>
<path d="m228.86 1.9609 27.301 24.848-0.29297 1.4922 0.027343 1.5195 0.62891 2.7578 0.35938 3.1523-0.83594 3.9219-1.6484 5.2305-0.96875 1.2773-2.4727 2.6602-0.70703 0.85156-0.57422 1.0195-0.83203 2.3555-0.34375 0.96875 0.050781 3.4102 0.61719 1.7734 0.16406 1.0898-10.836 13.668 1.3555 0.19922 0.51562 0.91016 0.60938 0.89453-0.16406 1.293 0.46484 0.89062 1.3555-0.085937 0.97656 0.46094 1.9922 0.82422 1.2031-0.40234 1.75-0.26953 1.5938-0.27344 1.0508-1.2031-0.26953 4.6562 1.2422 3.4297-0.78516 1.4414-0.22266 1.0703-0.039063 1.2539 0.73828 1.5547 1.0352 0.21875 0.99609 1.8828 0.55469 1.332 0.96094 0.92188 1.2188-0.074218 1.1055 0.035156 1.0742 0.55469 0.95703 0.73828 1.4062 1.0312 1.1602 1.1523-1.0703 0.57031-1.3086 0.57031-1.6484 3.2422-0.36719 0.9375-0.84766 1.1875-0.97266 0.88281-1.3594 0.55859-1.8203 0.09375-1.1445-0.09375-1.5469-0.46875-0.91406-0.87109-0.50391-1.1133-0.34375-1.332 0.11328-1.207 0.023438-1.0625-0.089844-1.5664-0.011719-1.1094-0.39453-1.0352-0.96875-1.1992-0.75391-0.66406-1.0312-0.90234-1.3047-0.53125-1.2227-0.38672-1.5234-0.65234-1.0195-0.98438-0.73438-1.1562-0.98438-0.55078-1.2812-0.019531-1.2812-0.48047-1.2031-0.39062-1.168-0.16016-0.83203 0.88281-0.55078 1.0156-0.87109 0.69922-0.53125 1.7422 0.19922 1.1523 0.24219 1.0117-0.33203 1.1094 0.14844 1.1758 0.62891 1.3164 0.57422 1.168 0.52344 1.2578-0.22656 1.2617-0.62891 0.83594-0.41406 1.0977-0.97266 0.88281-1.1289 0.25391-1.1562-1.6133-0.25781-1.0586-1.2109-1.0391-1.2344-0.5-1.6602-0.76562-0.82812-1.1055-0.085937-1.6172 0.13672-1.2773-0.11719-1.1328-0.67578-0.96094-0.85547-0.65234-1.0195-0.65234-1.0898-0.25391-1.0859-0.078125-1.4805-0.14844-1.3789-0.10547-0.99609 0.14844-1.0156 0.17188-1.293 0.011719-0.90625-0.48828-0.88281-0.51562-1.0938-0.80078-0.73438-1.0938-0.64844-0.9375-0.054687-1.1797 0.42188-1.3203 0.55078-0.91797 0.27344-1.3164-0.23438-0.98828 0.039063-1.0938 0.74219-0.82422 0.76172-0.72266 1.3359-0.35547-0.21094-1.0859 0.22656-1.1562-0.16016-1.2305-0.98047-0.79297-0.32422-1.0117-0.26562-1.1055-0.015625-1.1914 0.18359-0.99609-0.33984-1.1172-0.50781-1.2031-1.2305-1.0039-0.48438-1.043-0.40625-0.95703-0.98828-0.78516-0.86328-0.58984-1.3438 0.066407-0.49219-1.0781 0.46484-0.98438 0.47656-0.92578 0.84375-0.80078 0.97266-0.45312 0.97266-0.31641 1.1562-0.25781 1.3711-0.54297 1.25-0.69531 0.99609-0.95312 0.36328-1.0703 1.3203 0.80078 1.0078 0.90625 1.6992-0.22656 1.2656-0.38672 1.6641 0.35547 1.6836 0.46875 1.1172 0.77734-0.75391-1.3359-0.95312-1.0352-0.91406-0.94531-1.1172-1.0039-0.54297-1.0703-0.87109-0.77344 0.015625-1.0117-1.1211-1.8398-0.92969-0.83594-1.2812-0.54297-1.9609-0.83594-1.2188-0.60938-1.3164-1.4766-0.70703-1.4453-0.35156-1.2852 0.097656-1.3164 0.70703-1.2812 1.25-1.5117 0.80078-1.1211 0.70312-0.89062 0.26172-1.7109-1.125-1.457-0.35547-1.1328-0.79297-1.5703 0.0625-1.1953 1.3516 0.32422 1.0039-0.375-0.16797-1.4492-0.42188-0.96094 0.92188-1.3984 0.90234-1.7617 0.41797-1.2539 0.80078-1.1875 1.3164-0.99219 0.60938-0.98828-0.79297-0.89844-0.86719-1.0742 0.64844-0.95703 0.65625-0.85938 0.89844-0.54688-0.61719-1.6133-0.10547-1.0117-0.097657-1.2266-0.92188-0.65625 0.39062-1.1094 0.37109-1.0039 0.89062-0.58203 1.0195-0.40625 0.92969 0.76172 0.81641-1.0742-0.046875-1.5312 0.25-1.0742-0.46094-1.0312 0.65625-0.80859 0.31641-1.082-0.76172-0.67969 5.6016-1.5586 1.5039-0.29297 2.0977 1.9609" fill="none" stroke="#fff" stroke-linecap="round" stroke-linejoin="round" stroke-miterlimit="10" stroke-width="2"/>
<path d="m178.82 88.992 0.66016 0.57031 0.88672 1.1133 0.92188 0.75391 0.20312 1.1875-0.23438 1.2656-0.23438 1.0977-0.34766 1.2422 0.625 1.0156-0.011719 1.043 0.40234 1.0664 0.28516 0.98047 0.625 1.2188 0.88281 0.87891 1.1641 0.95312 1.3047 0.73828 0.93359 0.44141 0.84766 0.79297 1.2852 0.82812 1.5547 0.28516 0.91406 0.52734-4.8555 9.6562-0.82422 1.5625-9.0625-1.0625 0.15625-7.3711-2.4023-0.71094-5.1758-0.6875-4.8398-0.58203 0.75391-3.875 0.50391-3.6445 0.074219-1.457-0.039062-1.3594-0.83203-1.1914-0.77344-1.0977-0.28125-1.1875 0.26172-1.1172 1.0977-0.92578 1.4375-0.52734 1.0742-0.17188 1.8359-0.09375 1.2461-0.078125 2.418-0.33984 1.5234-0.375 1.9922-0.39844 1.0859-0.94141z" fill="#ccc" fill-rule="evenodd"/>
<path d="m178.82 88.992 0.66016 0.57031 0.88672 1.1133 0.92188 0.75391 0.20312 1.1875-0.23438 1.2656-0.23438 1.0977-0.34766 1.2422 0.625 1.0156-0.011719 1.043 0.40234 1.0664 0.28516 0.98047 0.625 1.2188 0.88281 0.87891 1.1641 0.95312 1.3047 0.73828 0.93359 0.44141 0.84766 0.79297 1.2852 0.82812 1.5547 0.28516 0.91406 0.52734-4.8555 9.6562-0.82422 1.5625-9.0625-1.0625 0.15625-7.3711-2.4023-0.71094-5.1758-0.6875-4.8398-0.58203 0.75391-3.875 0.50391-3.6445 0.074219-1.457-0.039062-1.3594-0.83203-1.1914-0.77344-1.0977-0.28125-1.1875 0.26172-1.1172 1.0977-0.92578 1.4375-0.52734 1.0742-0.17188 1.8359-0.09375 1.2461-0.078125 2.418-0.33984 1.5234-0.375 1.9922-0.39844 1.0859-0.94141 0.95703-0.023437" fill="none" stroke="#fff" stroke-linecap="round" stroke-linejoin="round" stroke-miterlimit="10" stroke-width="2"/>
<path d="m234.04 88.512 0.45703 0.058594 1.0781 0.29688 1.3359 0.47656 1.1367 0.30078 1.1445 0.10547 0.86719 1.1523 0.76953 0.95312 1.0625 0.73047 1.5586 0.50391 1.0742 0.35547 1.2031 0.62891 1.4297 1.3047 0.69922 0.83594 0.62109 1.1836 0.054687 1.3242 0.089844 1.5664-0.023438 1.0625-0.11328 1.207 0.33984 1.3203 0.50781 1.125 0.91406 0.87109 1.5469 0.46875 1.1445 0.09375 1.0742 0.042969 1.6719-0.49219 0.9375-0.62891 0.91406-1.2812 0.76953-1.3008 1.1367-2.8711 0.88281-0.66797 1.4375-0.36328 0.86719-0.55078 0.99609-0.41406 1.4141-0.23828 1.0742-0.066406 1.6797-0.054688 1.043 0.050782 1.7344 0.55859 0.99219 0.45703 1.043 0.28125 0.99219 0.23047 1.0469 0.15234 2.6719-0.10156 1.6562-0.12891 1.8359 0.078125 1.7812-0.20312 1.6055-0.46094 1.375-0.40625 2.1367-0.10156 1.8867 0.050782 1.375-0.17969 1.7031-0.22656 1.6562-0.15625 1.9883-0.074219 1.3477 0.15234 1.4766 0.46094 0.99609 0.17578 1.4492 0.078125 1.375-0.027343 1.5547 0.33203 1.3242 0.99219 0.55859 0.94141 0.76562 1.1719 1.3516 0.84375 1.957-0.027344 1.6055-0.53516 1.0703-0.61328 1.4023-0.53125 1.707-0.34375 0.93359 1.0469 0.45312 1.4023 0.035157 1.1641-0.30469 1.2109-0.50781 1.4766v1.8086l0.48438 0.89062 0.89062 1.1484 1.2891 0.67188 1.8945-0.14062 1.8828-1.6016 0.80469-0.94922 0.98047-0.53125 0.99219-0.58203 1.1953-0.79297 1.1992-0.73828 1.9844-0.6875 1.1133-0.14062 1.0977-0.046875h1.4961l1.9258 0.22266 0.96875 0.4375 1.0898 0.59375 1.0977 0.38281 0.76172 0.71875 0.27344 1.0156 0.69922 1.6289 0.53125 1.2422 0.1875 1.0039 0.039063 1.375 0.16016 1.3438 0.24609 1.0664 1.0508 2.8438 0.054688 1.2773-0.23438 1.0586-0.66406 1.4492-0.33984 1.418-0.039062 1.2617 0.31641 1.3789 0.29297 2.3711-0.17969 1.5039-0.44531 1.2656-0.64062 1.3672-0.61328 1.375-0.46875 1.1523-0.79297 0.77344-2.2227 0.24219-1.1133 0.42969-1.1055 0.82812-0.9375-0.60547-1.1758-0.125-1.2227 0.94922-0.82422 0.89453-1.2969 0.77344-1.2461 0.32422-1.0703 0.87109-1.1797 1.0195-1.1602 0.36328-1.0898 0.60156-0.85938 0.68359-1.0156 0.76953 0.14062 14.41 1.293 69.73 0.58203 31.285-9.1172 150.62-0.097656 1.1094-2.8398-0.77344-1.2109-0.21875-1.3672 0.21875-1.5938 0.53125-1.0391 0.046875-1.8125-0.57812-2.7188-0.94922-3.2578-1.8906-3.2812-2.2695-2.582-1.9102-1.5312-0.69531-3.8867-2.582-1.668-1.5742-2.2227-1.9766-2.3359-0.29297-2.5156 0.25-1.9102-0.42578-1.3477-1.125-1.3789-1.2695-1.7773-1.5234-1.0312-0.85547-2.0234-1.4141-1.1016-1.2383-1.0078-0.44531-1.5508-0.49609-2.0547-1.1016-0.71875-0.69531-0.40234-1.4688-0.65234-0.76562-1.8867-1.9766-2.4961-1.9531-4.8086-2.7148-1.207-0.51172-1.2617-0.22656-1.3242-0.039062-1.4258 0.019531-1.2305 0.22266-1.2578 0.13281-1.9141-0.10547-1.1641-0.26172-2.1211-0.26953-2.043-0.13281-2.6289 0.15625-2.1562 0.3125-1.6641 1.1719-1.6836 0.80469-1.2578 0.72266-2.0156 0.35938-1.5039-0.023437-2.3477-1-1.4844-0.81641-1.0156-0.27734-1.3359-0.29297-1.043 0.17969-1.7539-0.59766h-1.7422l-1.6406-0.30859-1.168-0.35938-1.3828-0.71484-0.81641-1.1992-2.3086-0.97266-0.95312-0.56641-1.8438-0.96094-1.4336-0.58203-1.0039 0.69531-1 1.0273-1.3203 0.52344-0.97656-0.22656-1.5-0.39453-1.0234-0.13281-0.67188-0.82812-0.23047-1.3867 0.73438-1.2383 0.71875-0.94531 1.2695-1.4492 0.75-0.99609 1.8906-2.1836 1.1914-1.5977 0.63281-0.96094 0.57031-0.99219 0.61719-1.4883 1.1641-2.2461 0.37109-1.5 1.0781-1.5977 0.8125-0.92578 0.58594-0.84766 1.0938-1.7617 0.42578-1.3711 1.1289-0.78125 1.1055-1.3516 0.40625-1.0273 0.57031-0.88281 0.69922-0.91016 1.6133-1.3242 1.2344 0.039063 0.76953 0.91797 1.0156 1.4766 1.0273 1.2227 0.75781 0.66406 0.97656 0.21875 1.2969-0.46484 0.97656-1.0273 0.36719-0.98047 0.53516-1.2891 1.0039-2.4258 0.78125-1.3438 1.1758-0.83203h1.418l1.2227-0.074219 0.60938-0.80469 0.027343-1.5391v-2.2266l0.19141-1.3672 0.50781-1.4336 0.63281-1.1875 0.41016-1.582 0.19141-1.2305 0.082031-1.1445 0.16406-5.7734-0.29688-4.9844-0.007813-1.8438-1.0547-13.105-0.55469-11.551-1.2969-20.508-0.82422-20.48-0.082032-1.3828-1.5625-26.027-0.95703-20.84-1.4062-32.805-9.5469-10.66-17.555-21.172-8.1406-9.8164-0.97266-1.4453-0.625-1.3008-0.44531-1.5742-0.44141-1.4531-0.09375-1.0312 0.82422-1.5625 4.8555-9.6562 0.96875 0.24609 2.0977-0.14062 1.8672 1.0234 1.1836-0.10547 1.0742 0.52734 1.7422 0.82812 0.85156 1.0117 2.7148 1.1172 1.3516-0.16016 1.3477-0.5 0.92578-0.58984 2.5508-3.4766 1.3242-1.3438 1.0195-0.83594 0.76172-0.77344 0.57812-0.9375 0.33203-1.0352-0.17969-1.3281-0.73047-0.92969-0.95312-0.56641-1.2539-0.27734-1.2266-0.21875-0.52734-1.1133 0.09375-1.0039 0.0625-1.125 0.28516-1.1133 1.1562-0.82031 1.2695-0.61719 1.293-0.011719 1.0156-0.17188 0.99609-0.14844 1.1328 0.125 1.2344 0.035156 1.2734 0.18359 1.0039 0.082031 1.4102 0.8125 0.85547 0.65234 0.67578 0.96094 0.11719 1.1328-0.13672 1.2773-0.027344 1.125 0.36719 1.1094 2.2344 1.2539 1.2344 0.5 0.99609 0.6875 0.47266 1.4102 0.53906 1.1289 1.0234 0.52734 1.0781-0.5625 0.77734-0.98438 0.52734-1.1523 0.58203-0.82812-0.14844-1.2539-0.53516-1.2266-0.71094-1.5586-0.52734-1.0859 0.125-1.0195 0.18359-1.2031-0.47656-1.0273 0.47656-2.0508 0.73438-0.87109 0.82422-0.69922 0.27344-1.0977z" fill="#ccc" fill-rule="evenodd"/>
<path d="m234.04 88.512 0.45703 0.058594 1.0781 0.29688 1.3359 0.47656 1.1367 0.30078 1.1445 0.10547 0.86719 1.1523 0.76953 0.95312 1.0625 0.73047 1.5586 0.50391 1.0742 0.35547 1.2031 0.62891 1.4297 1.3047 0.69922 0.83594 0.62109 1.1836 0.054687 1.3242 0.089844 1.5664-0.023438 1.0625-0.11328 1.207 0.33984 1.3203 0.50781 1.125 0.91406 0.87109 1.5469 0.46875 1.1445 0.09375 1.0742 0.042969 1.6719-0.49219 0.9375-0.62891 0.91406-1.2812 0.76953-1.3008 1.1367-2.8711 0.88281-0.66797 1.4375-0.36328 0.86719-0.55078 0.99609-0.41406 1.4141-0.23828 1.0742-0.066406 1.6797-0.054688 1.043 0.050782 1.7344 0.55859 0.99219 0.45703 1.043 0.28125 0.99219 0.23047 1.0469 0.15234 2.6719-0.10156 1.6562-0.12891 1.8359 0.078125 1.7812-0.20312 1.6055-0.46094 1.375-0.40625 2.1367-0.10156 1.8867 0.050782 1.375-0.17969 1.7031-0.22656 1.6562-0.15625 1.9883-0.074219 1.3477 0.15234 1.4766 0.46094 0.99609 0.17578 1.4492 0.078125 1.375-0.027343 1.5547 0.33203 1.3242 0.99219 0.55859 0.94141 0.76562 1.1719 1.3516 0.84375 1.957-0.027344 1.6055-0.53516 1.0703-0.61328 1.4023-0.53125 1.707-0.34375 0.93359 1.0469 0.45312 1.4023 0.035157 1.1641-0.30469 1.2109-0.50781 1.4766v1.8086l0.48438 0.89062 0.89062 1.1484 1.2891 0.67188 1.8945-0.14062 1.8828-1.6016 0.80469-0.94922 0.98047-0.53125 0.99219-0.58203 1.1953-0.79297 1.1992-0.73828 1.9844-0.6875 1.1133-0.14062 1.0977-0.046875h1.4961l1.9258 0.22266 0.96875 0.4375 1.0898 0.59375 1.0977 0.38281 0.76172 0.71875 0.27344 1.0156 0.69922 1.6289 0.53125 1.2422 0.1875 1.0039 0.039063 1.375 0.16016 1.3438 0.24609 1.0664 1.0508 2.8438 0.054688 1.2773-0.23438 1.0586-0.66406 1.4492-0.33984 1.418-0.039062 1.2617 0.31641 1.3789 0.29297 2.3711-0.17969 1.5039-0.44531 1.2656-0.64062 1.3672-0.61328 1.375-0.46875 1.1523-0.79297 0.77344-2.2227 0.24219-1.1133 0.42969-1.1055 0.82812-0.9375-0.60547-1.1758-0.125-1.2227 0.94922-0.82422 0.89453-1.2969 0.77344-1.2461 0.32422-1.0703 0.87109-1.1797 1.0195-1.1602 0.36328-1.0898 0.60156-0.85938 0.68359-1.0156 0.76953 0.14062 14.41 1.293 69.73 0.58203 31.285-9.1172 150.62-0.097656 1.1094-2.8398-0.77344-1.2109-0.21875-1.3672 0.21875-1.5938 0.53125-1.0391 0.046875-1.8125-0.57812-2.7188-0.94922-3.2578-1.8906-3.2812-2.2695-2.582-1.9102-1.5312-0.69531-3.8867-2.582-1.668-1.5742-2.2227-1.9766-2.3359-0.29297-2.5156 0.25-1.9102-0.42578-1.3477-1.125-1.3789-1.2695-1.7773-1.5234-1.0312-0.85547-2.0234-1.4141-1.1016-1.2383-1.0078-0.44531-1.5508-0.49609-2.0547-1.1016-0.71875-0.69531-0.40234-1.4688-0.65234-0.76562-1.8867-1.9766-2.4961-1.9531-4.8086-2.7148-1.207-0.51172-1.2617-0.22656-1.3242-0.039062-1.4258 0.019531-1.2305 0.22266-1.2578 0.13281-1.9141-0.10547-1.1641-0.26172-2.1211-0.26953-2.043-0.13281-2.6289 0.15625-2.1562 0.3125-1.6641 1.1719-1.6836 0.80469-1.2578 0.72266-2.0156 0.35938-1.5039-0.023437-2.3477-1-1.4844-0.81641-1.0156-0.27734-1.3359-0.29297-1.043 0.17969-1.7539-0.59766h-1.7422l-1.6406-0.30859-1.168-0.35938-1.3828-0.71484-0.81641-1.1992-2.3086-0.97266-0.95312-0.56641-1.8438-0.96094-1.4336-0.58203-1.0039 0.69531-1 1.0273-1.3203 0.52344-0.97656-0.22656-1.5-0.39453-1.0234-0.13281-0.67188-0.82812-0.23047-1.3867 0.73438-1.2383 0.71875-0.94531 1.2695-1.4492 0.75-0.99609 1.8906-2.1836 1.1914-1.5977 0.63281-0.96094 0.57031-0.99219 0.61719-1.4883 1.1641-2.2461 0.37109-1.5 1.0781-1.5977 0.8125-0.92578 0.58594-0.84766 1.0938-1.7617 0.42578-1.3711 1.1289-0.78125 1.1055-1.3516 0.40625-1.0273 0.57031-0.88281 0.69922-0.91016 1.6133-1.3242 1.2344 0.039063 0.76953 0.91797 1.0156 1.4766 1.0273 1.2227 0.75781 0.66406 0.97656 0.21875 1.2969-0.46484 0.97656-1.0273 0.36719-0.98047 0.53516-1.2891 1.0039-2.4258 0.78125-1.3438 1.1758-0.83203h1.418l1.2227-0.074219 0.60938-0.80469 0.027343-1.5391v-2.2266l0.19141-1.3672 0.50781-1.4336 0.63281-1.1875 0.41016-1.582 0.19141-1.2305 0.082031-1.1445 0.16406-5.7734-0.29688-4.9844-0.007813-1.8438-1.0547-13.105-0.55469-11.551-1.2969-20.508-0.82422-20.48-0.082032-1.3828-1.5625-26.027-0.95703-20.84-1.4062-32.805-9.5469-10.66-17.555-21.172-8.1406-9.8164-0.97266-1.4453-0.625-1.3008-0.44531-1.5742-0.44141-1.4531-0.09375-1.0312 0.82422-1.5625 4.8555-9.6562 0.96875 0.24609 2.0977-0.14062 1.8672 1.0234 1.1836-0.10547 1.0742 0.52734 1.7422 0.82812 0.85156 1.0117 2.7148 1.1172 1.3516-0.16016 1.3477-0.5 0.92578-0.58984 2.5508-3.4766 1.3242-1.3438 1.0195-0.83594 0.76172-0.77344 0.57812-0.9375 0.33203-1.0352-0.17969-1.3281-0.73047-0.92969-0.95312-0.56641-1.2539-0.27734-1.2266-0.21875-0.52734-1.1133 0.09375-1.0039 0.0625-1.125 0.28516-1.1133 1.1562-0.82031 1.2695-0.61719 1.293-0.011719 1.0156-0.17188 0.99609-0.14844 1.1328 0.125 1.2344 0.035156 1.2734 0.18359 1.0039 0.082031 1.4102 0.8125 0.85547 0.65234 0.67578 0.96094 0.11719 1.1328-0.13672 1.2773-0.027344 1.125 0.36719 1.1094 2.2344 1.2539 1.2344 0.5 0.99609 0.6875 0.47266 1.4102 0.53906 1.1289 1.0234 0.52734 1.0781-0.5625 0.77734-0.98438 0.52734-1.1523 0.58203-0.82812-0.14844-1.2539-0.53516-1.2266-0.71094-1.5586-0.52734-1.0859 0.125-1.0195 0.18359-1.2031-0.47656-1.0273 0.47656-2.0508 0.73438-0.87109 0.82422-0.69922 0.27344-1.0977 0.97266-0.27344" fill="none" stroke="#fff" stroke-linecap="round" stroke-linejoin="round" stroke-miterlimit="10" stroke-width="2"/>
<path d="m173.31 63.637 0.72266 0.42188 0.53906 0.94141 0.71484 1.0859 0.94531 0.67578 1.1406 1.4609 1.5703 2.8203 1.3477 3.207 0.30078 0.97266 0.76562 2.4609 0.066406 2.1797-0.066406 1.3945 0.51172 0.89062 0.48047 1.3867 0.023437 1.7695-0.53906 1.8789-0.32031 1.2109 0.37891 1.1289-0.42188 1.043-1.1094 0.10938-0.88672-1.1133-1.1133-0.69531-1.1367 0.84375-2.4453 0.64453-1.5234 0.375-2.418 0.33984-1.2461 0.078125-1.8359 0.09375-1.0742 0.17188-1.4375 0.52734-1.0977 0.92578-0.26172 1.1172 0.28125 1.1875 0.77344 1.0977 0.72266 0.87109 0.14844 1.0938-0.019531 1.3398-0.55859 4.3477-0.74219 3.8125 4.8281 0.64453 5.1758 0.6875 2.4258 0.4375-0.49219 7.6445 9.375 1.0625 0.09375 1.0312 0.44141 1.4531 0.20312 1.0547 0.41016 1.1094-1.5508 2.3164-1.4492 1.3906-3.6836 3.7344-1.7695 5.1758-6.3672 24.164-1.4297 2.1406-1.7656 2.1484-1.5078 2.2969-1.4141 5.9961-2.6875 15.48-0.90234 4.7461-0.95703 3.9844-1.7773 8.4883-1.918 8.5352-0.8125 3.6914-0.76953 3.3125-0.38281 1.9648-1.918 5.5625-0.86328 2.3984-1.4219-0.62109-1.5117-0.92188-1.0273-0.44141-1.207-1.0391 1.6367-1.3086 0.97656-0.71875 1.1484-2.6914 0.28906-1.4727 0.082032-1.375 0.35547-3.3477-0.11328-1.918 0.058594-2.3477-0.18359-1.3047-0.30859-2.4531-0.39062-1.9531-0.46875-2.3711-0.21094-1.9531-0.91797-3.4219-0.44141-1.5586-0.48828-2.5391-0.34766-1.3125-1.1992-2.832-0.14453-1.0469-2.5117-4.7734-0.39453-0.99609-1.0117-2.2383-0.55469-1.6133-0.73047-1.5859-0.54688-0.98047-0.82422-1.6562-0.83203-1.5664-1.957-3.7695-1.1602-2.4453-0.75-1.5742-0.86328-1.3047-0.875-1.4414-1.6133-2.7656-0.62891-0.96875-0.78906-1.5273-1.1602-1.6055-2.4648-2.8711-1.4688-1.9609-1.2461-1.3398-2.8242-3.4414-1.4453-1.5273-1.3359-1.2773-1.6133-1.75-1.3477-1.4492-1.3828-1.3828-0.82422-0.78906-0.86719-0.9375-0.80078-0.68359-0.77344-0.95703-1.0078-1.0742-1.918-2.1719-0.90625-0.91797-1-0.88672-0.65625-0.83594-1.8438-1.7148-2.0898-1.5156-1.3047-1.332-1.9492-1.7656-1.0898-1.1211-2.6992-2.582-1.0586-1.1562-0.66406-0.85547-0.96094-0.96875-0.96094-0.84766-1.207-1.3984-1.1953-1.6797-1.6562-1.7539-0.57812-0.85547-0.67188-0.80078-0.79688-1.4219-0.66406-1.332-1.1094-1.543-1.1719-2.1172-0.32812-0.98828-0.60547-0.84766-0.85938-2.0273-0.40234-1.0859-0.93359-1.4258 1.0664-0.11719 0.62891 0.80078 0.64062 1.8594 0.58203 1.0859 0.69531 1.7539 0.58594 1.0273 0.70312 0.95703 0.77734 1.5391 0.35547 1.1484 0.97656 0.90625 1.6914-0.26562 1.0664-1.4375 0.6875-1.2227 1.5-1.375 1.7227-1.2188 1.1406-2.0312 0.98047-1.2344 0.88672-0.69922 1.2148-0.38281 1.3125 0.027344 1.0938 0.25391 1.2227 0.3125h1.125l1.1953-0.33984 1.0938-1.2109 0.71484-1.3281 0.53906-1.2344 0.36719-2.2422 0.039062-1.5039 0.35938-1.1797 1.3633-1.2617 1.1602-1.1016 0.98047-0.37891 1.7812 0.039063 1.7422 0.12109 1.3633 0.39844 1.0586 0.34375 1.3789 0.39844 1.5703 0.21094 1.1133 0.23047 1.3477 0.33984 1.5781-0.058593 1.0391-0.042969 1.043 0.18359 1.8008 0.15625 1.2734-0.023438 0.84766-0.77734 0.48047-1.3789 1.4414-2.4648 0.5-1.0391 0.70312-1.4023 0.57812-0.96094 0.76172-0.94141 0.37891-0.9375 0.60156-1.7227 0.37891-1.9844 0.76172-1.6211 0.54297-0.9375 1.2227 0.51172 0.53516 3.4492 0.12109 1.2617 0.51953 1.1211 0.64062 0.96094 0.32031 1 0.21094 1.6836 1.0117 1 1.6797 0.64062 1.3828 1.2422 1.1406 0.94141 1.5234 0.35938 1.7617-0.5 0.85938-0.60156 1.7812-0.14062 1.2617 0.40234 1.8828 0.64062 1.6992 0.35938 1.8828-0.039063 1.5625-0.17188 1.5391-0.24609 1.0586-0.57422 0.71094-1.1172 0.57812-1.0781 0.19141-1.1367-0.1875-1.0312-0.80078-1.1797-1.1523-0.6875-0.99609-0.83594 0.039063-1.2148 0.86719-1.0039 1.2539-0.73438 1.0391-0.17969h1.3828l1.4414-0.5 0.73047-1.0508 0.13281-1.5156-0.30078-2 0.23828-1.3203 0.78125-1.6016 0.69922-1.082 0.58984-1.1562 1.6133-1.5234 1.5625-0.98438z" fill="#ccc" fill-rule="evenodd"/>
<path d="m173.31 63.637 0.72266 0.42188 0.53906 0.94141 0.71484 1.0859 0.94531 0.67578 1.1406 1.4609 1.5703 2.8203 1.3477 3.207 0.30078 0.97266 0.76562 2.4609 0.066406 2.1797-0.066406 1.3945 0.51172 0.89062 0.48047 1.3867 0.023437 1.7695-0.53906 1.8789-0.32031 1.2109 0.37891 1.1289-0.42188 1.043-1.1094 0.10938-0.88672-1.1133-1.1133-0.69531-1.1367 0.84375-2.4453 0.64453-1.5234 0.375-2.418 0.33984-1.2461 0.078125-1.8359 0.09375-1.0742 0.17188-1.4375 0.52734-1.0977 0.92578-0.26172 1.1172 0.28125 1.1875 0.77344 1.0977 0.72266 0.87109 0.14844 1.0938-0.019531 1.3398-0.55859 4.3477-0.74219 3.8125 4.8281 0.64453 5.1758 0.6875 2.4258 0.4375-0.49219 7.6445 9.375 1.0625 0.09375 1.0312 0.44141 1.4531 0.20312 1.0547 0.41016 1.1094-1.5508 2.3164-1.4492 1.3906-3.6836 3.7344-1.7695 5.1758-6.3672 24.164-1.4297 2.1406-1.7656 2.1484-1.5078 2.2969-1.4141 5.9961-2.6875 15.48-0.90234 4.7461-0.95703 3.9844-1.7773 8.4883-1.918 8.5352-0.8125 3.6914-0.76953 3.3125-0.38281 1.9648-1.918 5.5625-0.86328 2.3984-1.4219-0.62109-1.5117-0.92188-1.0273-0.44141-1.207-1.0391 1.6367-1.3086 0.97656-0.71875 1.1484-2.6914 0.28906-1.4727 0.082032-1.375 0.35547-3.3477-0.11328-1.918 0.058594-2.3477-0.18359-1.3047-0.30859-2.4531-0.39062-1.9531-0.46875-2.3711-0.21094-1.9531-0.91797-3.4219-0.44141-1.5586-0.48828-2.5391-0.34766-1.3125-1.1992-2.832-0.14453-1.0469-2.5117-4.7734-0.39453-0.99609-1.0117-2.2383-0.55469-1.6133-0.73047-1.5859-0.54688-0.98047-0.82422-1.6562-0.83203-1.5664-1.957-3.7695-1.1602-2.4453-0.75-1.5742-0.86328-1.3047-0.875-1.4414-1.6133-2.7656-0.62891-0.96875-0.78906-1.5273-1.1602-1.6055-2.4648-2.8711-1.4688-1.9609-1.2461-1.3398-2.8242-3.4414-1.4453-1.5273-1.3359-1.2773-1.6133-1.75-1.3477-1.4492-1.3828-1.3828-0.82422-0.78906-0.86719-0.9375-0.80078-0.68359-0.77344-0.95703-1.0078-1.0742-1.918-2.1719-0.90625-0.91797-1-0.88672-0.65625-0.83594-1.8438-1.7148-2.0898-1.5156-1.3047-1.332-1.9492-1.7656-1.0898-1.1211-2.6992-2.582-1.0586-1.1562-0.66406-0.85547-0.96094-0.96875-0.96094-0.84766-1.207-1.3984-1.1953-1.6797-1.6562-1.7539-0.57812-0.85547-0.67188-0.80078-0.79688-1.4219-0.66406-1.332-1.1094-1.543-1.1719-2.1172-0.32812-0.98828-0.60547-0.84766-0.85938-2.0273-0.40234-1.0859-0.93359-1.4258 1.0664-0.11719 0.62891 0.80078 0.64062 1.8594 0.58203 1.0859 0.69531 1.7539 0.58594 1.0273 0.70312 0.95703 0.77734 1.5391 0.35547 1.1484 0.97656 0.90625 1.6914-0.26562 1.0664-1.4375 0.6875-1.2227 1.5-1.375 1.7227-1.2188 1.1406-2.0312 0.98047-1.2344 0.88672-0.69922 1.2148-0.38281 1.3125 0.027344 1.0938 0.25391 1.2227 0.3125h1.125l1.1953-0.33984 1.0938-1.2109 0.71484-1.3281 0.53906-1.2344 0.36719-2.2422 0.039062-1.5039 0.35938-1.1797 1.3633-1.2617 1.1602-1.1016 0.98047-0.37891 1.7812 0.039063 1.7422 0.12109 1.3633 0.39844 1.0586 0.34375 1.3789 0.39844 1.5703 0.21094 1.1133 0.23047 1.3477 0.33984 1.5781-0.058593 1.0391-0.042969 1.043 0.18359 1.8008 0.15625 1.2734-0.023438 0.84766-0.77734 0.48047-1.3789 1.4414-2.4648 0.5-1.0391 0.70312-1.4023 0.57812-0.96094 0.76172-0.94141 0.37891-0.9375 0.60156-1.7227 0.37891-1.9844 0.76172-1.6211 0.54297-0.9375 1.2227 0.51172 0.53516 3.4492 0.12109 1.2617 0.51953 1.1211 0.64062 0.96094 0.32031 1 0.21094 1.6836 1.0117 1 1.6797 0.64062 1.3828 1.2422 1.1406 0.94141 1.5234 0.35938 1.7617-0.5 0.85938-0.60156 1.7812-0.14062 1.2617 0.40234 1.8828 0.64062 1.6992 0.35938 1.8828-0.039063 1.5625-0.17188 1.5391-0.24609 1.0586-0.57422 0.71094-1.1172 0.57812-1.0781 0.19141-1.1367-0.1875-1.0312-0.80078-1.1797-1.1523-0.6875-0.99609-0.83594 0.039063-1.2148 0.86719-1.0039 1.2539-0.73438 1.0391-0.17969h1.3828l1.4414-0.5 0.73047-1.0508 0.13281-1.5156-0.30078-2 0.23828-1.3203 0.78125-1.6016 0.69922-1.082 0.58984-1.1562 1.6133-1.5234 1.5625-0.98438h1.4609" fill="none" stroke="#fff" stroke-linecap="round" stroke-linejoin="round" stroke-miterlimit="10" stroke-width="2"/>
<path d="m219.91 1.293 0.023438 0.18359 0.48828 1.0547-0.31641 1.082-0.65625 0.80859 0.37891 0.94141-0.13672 1.0352-0.046875 1.0117-0.007812 1.5273-1.4023-0.46094-1.293 0.30078-0.89062 0.58203-0.37109 1.0039-0.39062 1.1094 0.92188 0.65625 0.097657 1.2266 0.10547 1.0117 0.53516 1.2969-0.20312 1.0039-1.0273 0.21094-0.80078 0.9375 0.47656 1.0742 0.86719 0.94141 0.13281 1.0859-1.1562 0.83594-1.4766 1.7305-0.41797 1.2539-0.48047 1.0391-1.043 1.2227-0.050781 1.2617 0.51953 1.1016-0.67188 1.2695-1.5781-0.35547-0.34766 1.2773 0.63672 1.1602 0.31641 0.98047 1.3203 2.0195 0.0625 1.0273-1.0273 1.5742-0.80078 1.1211-1.25 1.5117-0.70703 1.2812-0.097656 1.3164 0.35156 1.2852 0.70703 1.4453 1.3164 1.4766 1.2188 0.60938 1.9609 0.83594 1.2812 0.54297 0.92969 0.83594 0.72266 1.3438 0.54297 1.0039 0.71094 1.2773 0.54297 1.0703 1.1172 1.0039 0.86719 0.83203 1 1.1484 0.60938 0.99609-0.97266-0.4375-1.6836-0.46875-1.1055-0.31641-1.5234 0.1875-1.1875 0.48438-1.1172-0.30469-1.3438-1.5-0.89062 0.69531-0.81641 1.1094-1.0781 0.52734-1.1484 0.67188-1.1484 0.375-1.2656 0.28125-1.1523 0.46484-0.83594 0.67188-0.59375 0.99219-0.5625 0.96484 0.039063 1.0312 1.1484 0.45312 1.457 0.36328 0.98828 0.78516 0.40625 0.95703 0.48438 1.043 1.1016 0.6875 0.26562 1.0352 0.63281 1.0508-0.10547 1.5469 0.015625 1.1914 0.26562 1.1055 0.32422 1.0117 0.95312 0.67188 0.17969 1.1602-0.21094 0.98438 0.41406 1.168-1.4648 0.57422-0.84375 0.78516-0.74219 0.82422-0.039063 1.0938 0.23438 0.98828-0.27344 1.3164-0.55078 0.91797-0.42188 1.3203 0.054687 1.1797 0.64844 0.9375 0.73438 1.0938 0.77734 0.66797 1.0273 0.53125-0.19141 1.2227-1.1562 0.82031-0.28516 1.1133-0.0625 1.125-0.09375 1.0039 0.52734 1.1133 1.2266 0.21875 0.98828 0.17969 1.0234 0.49609 0.76562 0.875 0.39453 1.0547-0.17969 1.0195-0.45703 0.99219-1.0898 1.2305-1.0195 0.83594-0.74219 0.84375-2.5898 3.4375-1.4688 1.1289-1.3477 0.5-1.3516 0.16016-2.7148-1.1172-0.71094-0.76562-1.0039-0.66797-1.5312-0.82812-1.2891 0.066406-1.8477-1-1.6211 0.015625-1.7812-0.21094-0.91406-0.52734-1.5547-0.28516-1.2852-0.82812-0.84766-0.79297-0.93359-0.44141-1.3047-0.73828-1.1641-0.95312-0.88281-0.87891-0.625-1.2188-0.28516-0.98047-0.40234-1.0664 0.011719-1.043-0.625-1.0156 0.22266-1.0156 0.33594-1.0234 0.25781-1.2422-0.17188-1.4883 0.36328-1.3867 0.023437-1.2383 0.13281-1.6445 0.50781-1.582 0.007813-2.0664-0.48047-1.3867-0.51172-0.89062 0.066406-1.3945-0.066406-2.1797-0.76562-2.4609-0.30078-0.97266-1.3477-3.207-1.2734-2.1445 0.95703-0.29297 0.94922-0.96094-0.41406-2.418 0.35156-2.8008 1.1797-0.16406 0.71484-0.71484 1.0469-1.3945 1.0469-0.625 1.6914 0.14844 1.1914 0.050782 1.1016 0.015625-0.14062-1.2539-0.58984-0.90234-0.66016-1.1367-0.74609-1.1406-1.0586-1.3711-0.92969-1.3828-0.44922-0.92188-0.26953-1.2695-0.32812-1.7695-0.40234-0.9375-0.85547-0.77344-0.17969-2.1914-0.12109-1.0078-0.23828-1.1289-0.76953-1.0352-1.0742-0.52734-0.36719-0.96094 0.085937-1.0547 0.34766-1.2812-0.68359-1.6641-1.0508-0.86328-1.1641-0.5625-0.92578-0.51562-0.23828-1.3633 0.058593-1.2305-0.36719-1.9492-0.59766-1.1719-0.80469-1.9688-0.48047-1.2344-1.2734-1.7422-1.2617-0.375-0.76562-3.8203-0.54688-1.9805-0.14062-2.1562-0.88672-2.1953-1.4141-1.8711 53.594-9.8945z" fill="#0a5394" fill-rule="evenodd"/>
<path d="m219.91 1.293 0.023438 0.18359 0.48828 1.0547-0.31641 1.082-0.65625 0.80859 0.37891 0.94141-0.13672 1.0352-0.046875 1.0117-0.007812 1.5273-1.4023-0.46094-1.293 0.30078-0.89062 0.58203-0.37109 1.0039-0.39062 1.1094 0.92188 0.65625 0.097657 1.2266 0.10547 1.0117 0.53516 1.2969-0.20312 1.0039-1.0273 0.21094-0.80078 0.9375 0.47656 1.0742 0.86719 0.94141 0.13281 1.0859-1.1562 0.83594-1.4766 1.7305-0.41797 1.2539-0.48047 1.0391-1.043 1.2227-0.050781 1.2617 0.51953 1.1016-0.67188 1.2695-1.5781-0.35547-0.34766 1.2773 0.63672 1.1602 0.31641 0.98047 1.3203 2.0195 0.0625 1.0273-1.0273 1.5742-0.80078 1.1211-1.25 1.5117-0.70703 1.2812-0.097656 1.3164 0.35156 1.2852 0.70703 1.4453 1.3164 1.4766 1.2188 0.60938 1.9609 0.83594 1.2812 0.54297 0.92969 0.83594 0.72266 1.3438 0.54297 1.0039 0.71094 1.2773 0.54297 1.0703 1.1172 1.0039 0.86719 0.83203 1 1.1484 0.60938 0.99609-0.97266-0.4375-1.6836-0.46875-1.1055-0.31641-1.5234 0.1875-1.1875 0.48438-1.1172-0.30469-1.3438-1.5-0.89062 0.69531-0.81641 1.1094-1.0781 0.52734-1.1484 0.67188-1.1484 0.375-1.2656 0.28125-1.1523 0.46484-0.83594 0.67188-0.59375 0.99219-0.5625 0.96484 0.039063 1.0312 1.1484 0.45312 1.457 0.36328 0.98828 0.78516 0.40625 0.95703 0.48438 1.043 1.1016 0.6875 0.26562 1.0352 0.63281 1.0508-0.10547 1.5469 0.015625 1.1914 0.26562 1.1055 0.32422 1.0117 0.95312 0.67188 0.17969 1.1602-0.21094 0.98438 0.41406 1.168-1.4648 0.57422-0.84375 0.78516-0.74219 0.82422-0.039063 1.0938 0.23438 0.98828-0.27344 1.3164-0.55078 0.91797-0.42188 1.3203 0.054687 1.1797 0.64844 0.9375 0.73438 1.0938 0.77734 0.66797 1.0273 0.53125-0.19141 1.2227-1.1562 0.82031-0.28516 1.1133-0.0625 1.125-0.09375 1.0039 0.52734 1.1133 1.2266 0.21875 0.98828 0.17969 1.0234 0.49609 0.76562 0.875 0.39453 1.0547-0.17969 1.0195-0.45703 0.99219-1.0898 1.2305-1.0195 0.83594-0.74219 0.84375-2.5898 3.4375-1.4688 1.1289-1.3477 0.5-1.3516 0.16016-2.7148-1.1172-0.71094-0.76562-1.0039-0.66797-1.5312-0.82812-1.2891 0.066406-1.8477-1-1.6211 0.015625-1.7812-0.21094-0.91406-0.52734-1.5547-0.28516-1.2852-0.82812-0.84766-0.79297-0.93359-0.44141-1.3047-0.73828-1.1641-0.95312-0.88281-0.87891-0.625-1.2188-0.28516-0.98047-0.40234-1.0664 0.011719-1.043-0.625-1.0156 0.22266-1.0156 0.33594-1.0234 0.25781-1.2422-0.17188-1.4883 0.36328-1.3867 0.023437-1.2383 0.13281-1.6445 0.50781-1.582 0.007813-2.0664-0.48047-1.3867-0.51172-0.89062 0.066406-1.3945-0.066406-2.1797-0.76562-2.4609-0.30078-0.97266-1.3477-3.207-1.2734-2.1445 0.95703-0.29297 0.94922-0.96094-0.41406-2.418 0.35156-2.8008 1.1797-0.16406 0.71484-0.71484 1.0469-1.3945 1.0469-0.625 1.6914 0.14844 1.1914 0.050782 1.1016 0.015625-0.14062-1.2539-0.58984-0.90234-0.66016-1.1367-0.74609-1.1406-1.0586-1.3711-0.92969-1.3828-0.44922-0.92188-0.26953-1.2695-0.32812-1.7695-0.40234-0.9375-0.85547-0.77344-0.17969-2.1914-0.12109-1.0078-0.23828-1.1289-0.76953-1.0352-1.0742-0.52734-0.36719-0.96094 0.085937-1.0547 0.34766-1.2812-0.68359-1.6641-1.0508-0.86328-1.1641-0.5625-0.92578-0.51562-0.23828-1.3633 0.058593-1.2305-0.36719-1.9492-0.59766-1.1719-0.80469-1.9688-0.48047-1.2344-1.2734-1.7422-1.2617-0.375-0.76562-3.8203-0.54688-1.9805-0.14062-2.1562-0.88672-2.1953-1.4141-1.8711 53.594-9.8945 0.11328 0.15625" fill="none" stroke="#fff" stroke-linecap="round" stroke-linejoin="round" stroke-miterlimit="10"/>
<path d="m195.27 89.113c0 3.5898-2.9102 6.5-6.5 6.5-3.5898 0-6.5-2.9102-6.5-6.5 0-3.5898 2.9102-6.5 6.5-6.5 3.5898 0 6.5 2.9102 6.5 6.5" fill="#28c028" fill-rule="evenodd" stroke="#000" stroke-linecap="round" stroke-linejoin="round" stroke-miterlimit="10"/>
<path d="m84.285 83.113h-3.6094l-1.4375-3.7344h-6.5781l-1.3594 3.7344h-3.5312l6.4062-16.469h3.5156zm-6.1094-6.5156-2.2812-6.1094-2.2188 6.1094zm7.8281 6.5156v-16.469h4.9844l2.9844 11.234 2.9531-11.234h4.9844v16.469h-3.0938v-12.953l-3.2656 12.953h-3.2031l-3.25-12.953v12.953zm18.531-8.125c0-1.6758 0.25-3.0859 0.75-4.2344 0.375-0.83203 0.88281-1.582 1.5312-2.25 0.64453-0.66406 1.3516-1.1602 2.125-1.4844 1.0312-0.4375 2.2188-0.65625 3.5625-0.65625 2.4141 0 4.3516 0.75781 5.8125 2.2656 1.457 1.5 2.1875 3.5938 2.1875 6.2812 0 2.6562-0.72656 4.7344-2.1719 6.2344-1.4375 1.5-3.3711 2.25-5.7969 2.25-2.4492 0-4.3984-0.74219-5.8438-2.2344-1.4375-1.5-2.1562-3.5547-2.1562-6.1719zm3.4219-0.125c0 1.8672 0.42969 3.2812 1.2969 4.25 0.86328 0.96094 1.957 1.4375 3.2812 1.4375 1.3203 0 2.4062-0.47266 3.25-1.4219 0.85156-0.95703 1.2812-2.3906 1.2812-4.2969 0-1.8945-0.41797-3.3047-1.25-4.2344-0.82422-0.92578-1.918-1.3906-3.2812-1.3906-1.375 0-2.4844 0.47656-3.3281 1.4219-0.83594 0.9375-1.25 2.3516-1.25 4.2344zm18.844 8.25v-13.672h-4.875v-2.7969h13.078v2.7969h-4.875v13.672zm25.188 0h-3.6094l-1.4375-3.7344h-6.5781l-1.3594 3.7344h-3.5312l6.4062-16.469h3.5156zm-6.1094-6.5156-2.2812-6.1094-2.2188 6.1094zm7.875 6.5156v-16.469h5.3438c2.0195 0 3.3359 0.085938 3.9531 0.25 0.9375 0.25 1.7227 0.79297 2.3594 1.625 0.63281 0.82422 0.95312 1.8867 0.95312 3.1875 0 1.0117-0.18359 1.8672-0.54688 2.5625-0.36719 0.6875-0.83594 1.2305-1.4062 1.625-0.5625 0.38672-1.1367 0.64062-1.7188 0.76562-0.79297 0.16797-1.9375 0.25-3.4375 0.25h-2.1719v6.2031zm3.3281-13.672v4.6719h1.8125c1.3125 0 2.1875-0.085937 2.625-0.26562 0.44531-0.17578 0.79688-0.44531 1.0469-0.8125 0.25-0.36328 0.375-0.78906 0.375-1.2812 0-0.59375-0.17969-1.082-0.53125-1.4688-0.35547-0.39453-0.79688-0.64062-1.3281-0.73438-0.39844-0.070312-1.1953-0.10938-2.3906-0.10938zm12.016 13.672v-16.469h12.203v2.7969h-8.875v3.6406h8.2656v2.7812h-8.2656v4.4688h9.2031v2.7812zm0 0" fill="none" stroke="#fff" stroke-linecap="round" stroke-linejoin="round" stroke-miterlimit="10" stroke-width="2"/>
<path d="m84.285 83.113h-3.6094l-1.4375-3.7344h-6.5781l-1.3594 3.7344h-3.5312l6.4062-16.469h3.5156zm-6.1094-6.5156-2.2812-6.1094-2.2188 6.1094zm7.8281 6.5156v-16.469h4.9844l2.9844 11.234 2.9531-11.234h4.9844v16.469h-3.0938v-12.953l-3.2656 12.953h-3.2031l-3.25-12.953v12.953zm18.531-8.125c0-1.6758 0.25-3.0859 0.75-4.2344 0.375-0.83203 0.88281-1.582 1.5312-2.25 0.64453-0.66406 1.3516-1.1602 2.125-1.4844 1.0312-0.4375 2.2188-0.65625 3.5625-0.65625 2.4141 0 4.3516 0.75781 5.8125 2.2656 1.457 1.5 2.1875 3.5938 2.1875 6.2812 0 2.6562-0.72656 4.7344-2.1719 6.2344-1.4375 1.5-3.3711 2.25-5.7969 2.25-2.4492 0-4.3984-0.74219-5.8438-2.2344-1.4375-1.5-2.1562-3.5547-2.1562-6.1719zm3.4219-0.125c0 1.8672 0.42969 3.2812 1.2969 4.25 0.86328 0.96094 1.957 1.4375 3.2812 1.4375 1.3203 0 2.4062-0.47266 3.25-1.4219 0.85156-0.95703 1.2812-2.3906 1.2812-4.2969 0-1.8945-0.41797-3.3047-1.25-4.2344-0.82422-0.92578-1.918-1.3906-3.2812-1.3906-1.375 0-2.4844 0.47656-3.3281 1.4219-0.83594 0.9375-1.25 2.3516-1.25 4.2344zm18.844 8.25v-13.672h-4.875v-2.7969h13.078v2.7969h-4.875v13.672zm25.188 0h-3.6094l-1.4375-3.7344h-6.5781l-1.3594 3.7344h-3.5312l6.4062-16.469h3.5156zm-6.1094-6.5156-2.2812-6.1094-2.2188 6.1094zm7.875 6.5156v-16.469h5.3438c2.0195 0 3.3359 0.085938 3.9531 0.25 0.9375 0.25 1.7227 0.79297 2.3594 1.625 0.63281 0.82422 0.95312 1.8867 0.95312 3.1875 0 1.0117-0.18359 1.8672-0.54688 2.5625-0.36719 0.6875-0.83594 1.2305-1.4062 1.625-0.5625 0.38672-1.1367 0.64062-1.7188 0.76562-0.79297 0.16797-1.9375 0.25-3.4375 0.25h-2.1719v6.2031zm3.3281-13.672v4.6719h1.8125c1.3125 0 2.1875-0.085937 2.625-0.26562 0.44531-0.17578 0.79688-0.44531 1.0469-0.8125 0.25-0.36328 0.375-0.78906 0.375-1.2812 0-0.59375-0.17969-1.082-0.53125-1.4688-0.35547-0.39453-0.79688-0.64062-1.3281-0.73438-0.39844-0.070312-1.1953-0.10938-2.3906-0.10938zm12.016 13.672v-16.469h12.203v2.7969h-8.875v3.6406h8.2656v2.7812h-8.2656v4.4688h9.2031v2.7812z" fill-rule="evenodd"/>
</g>
</svg>
