<?xml version="1.0" encoding="UTF-8"?>
<svg width="500pt" height="470pt" version="1.1" viewBox="0 0 500 470" xmlns="http://www.w3.org/2000/svg">
<g id="a">
<rect width="500" height="470" fill="none"/>
<path d="m156.17 56.758 0.48828 0.26172 1.0078 0.52344 1.5742 0.16016 1.6797 0.36719 1.4922 3.2695 0.66406 1.4531 0.375 1.0156 0.011719 1.0195 0.88672 0.82812-0.28906 1.3242-0.38281 0.92578-0.074218 1.3203 0.65234 1.8086 0.15234 1.0078-0.57812 1.1992-1.3555 0.89062-0.82422 0.76562-0.35938 0.94922-0.03125 1.2383 0.41406 1.0117 1.0312 0.56641 1.2031-0.32812 1.4023-0.53125 1.043-0.88672 0.90234-0.95703 1.2578-0.67578 1.1445-0.15625 1.3047 0.1875 1.2305 0.3125 1.2422 0.30859 0.52344 0.9375-0.51953 1.7539-0.28906 0.98828-0.85156 0.94531-0.64453 0.89844-0.68359 1.3867-0.50781 1.4258-0.35938 0.9375 1.0273 0.42969 1.3086 0.46875 0.89844 0.54297 1.2305-0.27734 17.129 7.9766 20.551 9.2617 9.3945 4.1445 16.641 7.3359 22.637 0.67969 18.906 0.56641 14.711 5.6953 24.781 8.8086 57.043 21.141 1.0078-0.26953 1.043-0.28906 1.0586-0.10156 1.0859-0.039063 1.1719-0.13281 0.97266-0.30078 1.1133-0.36328 1.3438 0.03125 1.4453 0.32422 1.3086-0.003906 1.3438 0.070312 1.3359 0.57422 0.96484 0.50781 0.96875 0.45703 1.2695 0.60938 1.2383 0.6875 1.2148 0.55078 1.1211 0.44141 1.6992 0.61328 1.2383 0.39453 1.0664 0.43359 0.89453 0.63281 1.0781 0.40625 1.1406 0.66797 1.0938 0.49609 1.293 0.050781 1.2578 0.35156 0.71875 0.91797 0.54688 0.95703 0.55078 1.0195 0.54297 1.0664 0.46484 0.92969 0.53125 0.94141 0.78906 0.89844 0.98828 0.48438 1.3477 0.16797 1.1797 0.18359 1.1719 0.37891 1.7539 0.65625 1.0859 0.41016 1.6211 0.57031 0.97266 0.38672 0.82812 0.56641 1.1211 0.60547 1.1367 0.20703 1.1094 0.046875 1.5391 0.58594 1.4453 0.92188 1.043 0.76562 1.6094 1.3672 1.4648 0.92578 1.0938 0.60156 1.0898 0.58594 0.83203 0.67188 2.0273 1.6992 0.88281 0.67578 0.76953 0.67969 0.79688 1.2227 0.75 0.92188 1.332 1.1016 1.4805 1.1836 1.0234 0.60547 1.293 0.61328 0.92578 0.37891 1.4883 0.65234 1.1328 0.5625 1.1641 0.53906 1.668 0.70703 1.332 0.69531 1.2578 0.94922 1.4336 0.52734 0.99609 0.23828 1.2422 0.77734 1.0156 0.97266 2.8711 1.7812 0.89453 0.44922 0.89844 0.58203 1.1719 1.0156 0.85547 0.5625 1.1914 0.64453 0.94922 0.71875 1.0547 0.66797 1.1133 0.64062 0.86328 0.67969 0.63281 0.82812 1.5391 0.9375 1.5664 0.69922 1.2383 0.46484 1.5508 0.67188 1.8281 0.74609 2.2188 1 3.6797 2.2773 2.1289 0.49219 2.6992 0.89844 2.6914 1.1523 3.1484 0.98828 1.4961 0.53125-0.63281 0.88281-0.58203 0.82812-0.66406 1.0039-0.89062 0.98438-1.1484 0.30469-1.3945 0.45703-1.0273 0.9375-0.81641 1.1094-0.46484 0.94141-1.3789 1.0312-1.1562 0.73828-0.41797 1.1094-1.1328 0.37891-1.0391 0.71875-0.79688 1.1172-0.54297 0.87891-0.96094 0.66797-1.2383 1.4219-0.88281 1.4883-0.375 1.0234-0.71484 0.85547-1.2188 0.63281-0.68359 1.6836-1.6562 1.1992-0.93359 1.0586-0.74219 0.94922-0.66406 1.1758-1.4727 0.13281-1.125 0.25391-1.3164 1.1445-1.7852 0.35938-1.0039 1.4453-0.34766 1.2969-0.19531 1.293-0.75781 2.1445-0.18359 1.3867 0.097656 1.3984-3.1914-1.2031-4.3281-0.13672-2.1094 0.17188-2.2148 0.27344-3.2188 0.66016-4.4258 0.72656-3.3906 0.17188h-3.9453l-1.4531-0.13672-2.9414-0.25781-1.6953 0.085938-1.2461 0.41406-1.1055 0.79688-1.5234 1.5234-2.9414 1.4844-1.6602 0.66016-1.1406 0.48438-5.9883 1.7305-2.8242 0.67969-2.1914 0.53125-2.8125 0.79297-1.1953 0.33594-2.2227 0.73828-2.3867 0.37891-2.457 0.48438-1.7305 0.3125-4.1523 1.3516-5.9141 2.7305-7.3672 4.2227-1.6641 1.1172-4.3594 2.5156-2.8359 1.9023-3.3242 2.9414-1.9375 2.3867-1.0898 1.5547-1.875 2.1094-1.0039 0.89453-1.082 1.082-0.67188 1.2109-0.22656 1.418-0.34766 1.9375-0.48438 1.2812-0.62109 1.1055-0.83203 0.72656-1.0742 1.0039-0.82812 0.83203-1.0742 0.89844-1.3125 0.55469-0.93359 0.44922-0.55469 0.93359-0.90234 1.1719-2.0352 2.5977-34.629 50.988-3.5898 4.8906-3.6367 5.2969-5.7773 8.4922-6.9375 9.8945-0.70703 1.1133-2.293 3.7031-7.5742 10.812-3.8711 5.5312-1.6445 2.3477-1.6836 2.5-4.8398 7.1758-4.4531 6.2227-1.332 1.8555-3.9023 5.7617-2.2305 3.2891-1.0352 1.4766-0.92578 1.3281-4.1484 5.9375-3.9961 5.875-0.86719 1.25-1.7148 2.4648-3.4141 4.9023-4.5859 6.5938-1.1758 1.6992-3.082 4.4453-1.1797-0.20703-2.0977-1.0273-1.5938-0.81641-2.5859-1.4297-1.6367-0.89062-1.5117-0.89453-1.1367-0.55469-1.0039-0.5625-1.2188-0.67578-1.0938-0.64453-1.2383-0.59375-1.2617-0.6875-1.6797-0.83594-1.0469-0.52734-1.1523-0.49609-1.4727-0.73828-1.8906-1.0039-2.6875-1.293-1.8047-0.83984-1.0703-0.55469-1.8711-0.80469-0.96094-0.49219-3.5742-1.6484-1.0469-0.58594-1.3242-0.51953-1.0117-0.4375-1.3359-0.51172-0.98828-0.36328-1.2266-0.57031-2.0156-0.8125-1.2305-0.39844-0.98047-0.40625-1.5391-0.59766-0.94531-0.32422-3.043-1.2188-1.168-0.33594-1.625-0.58594-1.2305-0.48047-1.707-0.60547-1.3711-0.58203-2.0156-0.89844-1.0742-0.54688-1.4727-0.65625-1.457-0.72656-2.2148-1.1016-1.4336-0.76172-1.1992-0.72656-1.418-0.92578-2.9648-2.0547-2.0391-1.5625-1.6133-1.3242-1.1328-1.0273-1.5859-1.5508-0.71875-0.77344-1.0898-1.0039-0.72656-0.76562-1.0156-1.2188-0.89062-0.88672-0.6875-0.75781-1.7266-1.6953-1.6172-1.6445-1.2266-1.1602-1.1484-1.0781-1.4766-1.5117-0.83203-0.69141-1.0625-1.0273-1.5352-1.4297-0.82422-0.82422-1.1016-0.96484-0.81641-0.79297-2.0781-1.7695-1.1016-0.80859-1.0703-1.1367-1.668-1.5234-0.99609-0.73438-1.0859-0.99609-1.0117-0.60156-1.7656-1.4219-0.98828-0.85938-1.3828-1.1016-1.2773-0.87891-1.5938-1.1875-2.8164-2.0859-1.1523-0.90234-1.1523-0.83203-1.0742-0.67578-1.7617-1.1797-1.1523-0.85547-1.3047-0.98438-0.85938-0.57422-1.1953-0.74609-1.1133-0.79297-1.5508-0.84375-0.90625-0.68359-1.8281-1.1523-1.2109-0.72656-1.4141-0.97266-1.082-0.67578-1.625-0.94141-1.168-0.76172-1.5898-1.0117-1.5117-0.90234-1.2891-0.82031-0.875-0.53125-0.88672-0.47266-1.4492-0.95312-1.0156-0.5625-1.2734-0.77734-0.92578-0.53906-1.2656-0.80078-1.1992-0.65625-1.5312-0.96484-3.4922-1.9609-0.97266-0.6875-1.2305-0.66406-0.98047-0.60938-1.6836-0.88672-1.2148-0.80469-1.4531-0.87109-1.3516-0.83203-1.2031-0.71484-0.89453-0.57031-2.8359-1.918-1.7969-1.0078-1.3633-0.71094-1.082-0.61328-1.0586-0.53516-1.1367-0.64062-1.4023-0.71094-1.5586-0.92969-0.9375-0.41797-2.793-1.5117-1.2578-0.72656-1.125-0.75-1.7266-0.96484-1.1094-0.71484-1.5156-0.81641-1.3086-0.92969-1.4609-0.95312-1.168-0.82812-1.1836-0.80859-1.5469-1.0781-1.5586-0.87891-1.0117-0.77734-1.207-0.80078-1.2461-0.72656-1.082-0.6875-0.88672-0.54297-1.5703-1.1953-1.0234-0.5-2.168-1.3711-0.99609-0.79688-1.9414-1.5938-1.2812-1.3125-1-0.93359-1.3008-1.3711-0.89453-1.1406-1.0742-1.2344-0.85938-1.3594-0.53516-1.375-0.60938-1.1406 0.10547-1.2109 0.53125-1.0703-0.375-0.97656-0.88672-1.1484-0.63672-0.91797 0.046875-1.3906-0.91406-1.3516-0.97266-0.97266-1.7695-2.0117-2.0312-2.4531-0.69922-0.98438-0.54297-1.0117-0.52344-0.87109-0.625-1.0156-0.64062-1.0859-0.51172-0.99219-1-1.957-0.51953-1.375-0.92578-2.2734-0.28516-1.1641-0.44922-1.0195-0.55859-1.7617-0.65625-1.8164-0.55078-1.6914-0.37109-1.082-0.097656-1.0273 0.32813-1.9648 1.4453-1.4648 0.19922-1.8242-0.38672-2.0156-1.3125-3.8945-0.15625-1.2773-0.15625-1.8398 0.64453-0.94141-0.03125-1.832 0.6875-1.4727 0.64062-1.2266 0.14453-1.9844-0.26953-2.1289 0.0625-1.4297-0.23438-1.7969-0.074218-1.7383 0.26172-1.7656 0.37891-1.1875-0.039063-2.5391-0.20703-1.0352-0.24219-1.1367-0.43359-0.90234-0.55859-1.1289-0.41406-0.95703-0.25781-1.1953 0.8125-0.90234 0.74219-1.1172 0.80469-1.0391 1.5273-1.1562 1.1602-1.0977 0.92969-1.2266 0.73828-1.207 1.9492-2.4922 0.77344-1.082 0.44141-1.3398 0.15234-1.2109 0.72656-1.3203 0.61719-1.0117 0.26953-1.3359 0.10156-1.2656 0.21094-1.3047-0.16406-1.1055 1.8008-0.35156 1.0625-0.39844 1.2305-0.19141 1.1055 0.28516 0.70703 0.91016 1.6367 0.5 1.6836-0.53516 1.4141-1.0781 1.2148-1.3242 0.65234-1.0586 0.65625-1.1758 0.46484-1.1992 0.52344-1.9492-0.19531-1.0664 1.0547-0.41016 1.2305-0.98438 0.86328-1.7969 0.32812-2.1602 0.46484-1.1016 0.60938-1.5703-0.17578-1.1602-0.097656-1.6016-0.41406-1.0312-0.085937-1.1211 0.63672-1.0391 0.72656-0.87891 0.64062-0.78516 1.0195-0.35156 0.96484-0.30469 1.1875-0.03125 0.76562-0.88672 1.3828-0.19141 0.66016 0.96875 1.0898 0.33984 1.6289 1.3164 1.082 0.80859 0.36328 0.96094 1.0625 0.625 1.1914 1.6562 0.77344 1.1719 1.7031 2.7422 1.4062 0.5625 0.48438 0.92188 0.066406 1.2109 0.39844 0.98828 1.1055 1.0117 1.1602 0.97266 1.4688 1.0508 1.1523 0.33984 2.332 1.7422 1.1562 0.70312 0.98828 0.29688 1.5469-0.0625 1.3008-0.45312 0.80469-0.69922 0.13672 1.1016 1.5469 0.84375 1.7305 0.76172 0.70312 0.86328 1.1953 0.082031 1.7617-0.50391 1.1992-0.48438 1.1133-0.23047 1.0156 0.15234 0.09375 1.2266 0.69141 0.86328 0.99609 0.20703 1.6211 0.042968 1.1094-0.03125 1.8945-0.125 1.2891 0.70703 1.5352 0.64453 0.29688 0.97656 1.0781 0.55078 1.5938-0.47266 1.2461-0.18359 1.0859 0.85938 1.1445 0.27734 0.98828 0.19531 1.1445 0.003906 1.4375-0.089844h1.293l1.1523-0.14062 1.5195-0.51953 1.0664-0.42969 1.3203-0.61719 2.0898-0.95703 1.1406-0.37891 1.5312-0.60547 0.97266-0.50781 1.8867-1.2344 1.3828-1.0234 0.80859-0.64844 1.0039-0.59766 1.1758-1.0273 1.6289-1.1992 0.76172-0.67578 0.90234-0.96094 0.85938-1.0781 0.76172-0.66016 1.7344-1.9766 0.95703-1.2227 0.71875-1.2148 0.54688-0.99219 0.51172-1.1094 0.62109-1.0156 0.60547-1.0195 0.30859-1 0.46094-1.7266 0.57031-2.043 0.35938-0.98438 0.80859-1.5586 0.57031-1.3242 0.5625-1 0.70312-1.1406 0.87891-1.2539 0.75781-1.0039 0.92969-1.6836 3.8516-7.3008 0.64844-1.9062 0.47266-2.1797 0.21484-1.5391 0.26172-0.97656 0.48438-1.1875 0.29297-1.1562 0.125-1.3008 0.23438-1.043 0.17188-1.1445 0.16406-1.2852 0.27344-1.3516 0.09375-1.082 0.042969-1.4766 0.10938-1.2656 0.097656-1.5156 0.11328-2.2109 0.11719-1.1602 0.33594-1.8164 0.17188-1.5547 0.070313-1.8867 0.023437-1.5391-0.007812-1.1875 0.15234-1.0195 0.12891-1.7383 0.039062-1.0312-0.0625-1.5977 0.17188-1.3711 0.046875-1.1523-0.10547-1.1602 0.035157-1.5586-0.23438-1.0078-0.0625-2.0938-0.078125-1.5273-0.19531-1.168-0.074219-1.375-0.15625-1.3086-0.16016-1.082-0.30469-1.0703-0.47656-1.8711-0.31641-1.4375-0.66797-1.3633-0.66797-1.7031-0.60156-1.4883-0.48047-1.3672-0.64453-1.3438-0.32812-0.98828-0.25391-1.1797-0.33984-1.1719-0.31641-1.0391-0.36328-1.7148-0.31641-1.7344-0.17969-1.1602-0.65234-1.2852-0.37891-1.1289-0.45312-1.0352-0.32422-1.7852-0.34375-1.0078-0.28906-1.043-0.39062-1.207-0.87891-1.0977-0.50391-1.0234-0.375-1.0234-0.31641-1.3164-0.63672-1.1523-0.40625-1.4922-0.60938-1.3164-0.33984-1.3359-0.53906-0.96875 1.6484-1.1055 1-0.61328 0.93359-0.45312 1.3359-1.1445 1.418-2.3398 1.5391-1.6055 1.207-0.99219 7.7539-5.9062 6.7383-5.4141 1.2617-0.98438 0.96875-1.3125 0.99609-1.5195 0.22656-4.668 1.2344-0.42578 1.3008-0.53516 1.6094-0.93359 0.69922-1.0508 0.51562-0.98047 0.79297-0.91016 0.050781-1.3555 0.37109-0.98828z" fill="#ccc" fill-rule="evenodd"/>
<path d="m156.17 56.758 0.48828 0.26172 1.0078 0.52344 1.5742 0.16016 1.6797 0.36719 1.4922 3.2695 0.66406 1.4531 0.375 1.0156 0.011719 1.0195 0.88672 0.82812-0.28906 1.3242-0.38281 0.92578-0.074218 1.3203 0.65234 1.8086 0.15234 1.0078-0.57812 1.1992-1.3555 0.89062-0.82422 0.76562-0.35938 0.94922-0.03125 1.2383 0.41406 1.0117 1.0312 0.56641 1.2031-0.32812 1.4023-0.53125 1.043-0.88672 0.90234-0.95703 1.2578-0.67578 1.1445-0.15625 1.3047 0.1875 1.2305 0.3125 1.2422 0.30859 0.52344 0.9375-0.51953 1.7539-0.28906 0.98828-0.85156 0.94531-0.64453 0.89844-0.68359 1.3867-0.50781 1.4258-0.35938 0.9375 1.0273 0.42969 1.3086 0.46875 0.89844 0.54297 1.2305-0.27734 17.129 7.9766 20.551 9.2617 9.3945 4.1445 16.641 7.3359 22.637 0.67969 18.906 0.56641 14.711 5.6953 24.781 8.8086 57.043 21.141 1.0078-0.26953 1.043-0.28906 1.0586-0.10156 1.0859-0.039063 1.1719-0.13281 0.97266-0.30078 1.1133-0.36328 1.3438 0.03125 1.4453 0.32422 1.3086-0.003906 1.3438 0.070312 1.3359 0.57422 0.96484 0.50781 0.96875 0.45703 1.2695 0.60938 1.2383 0.6875 1.2148 0.55078 1.1211 0.44141 1.6992 0.61328 1.2383 0.39453 1.0664 0.43359 0.89453 0.63281 1.0781 0.40625 1.1406 0.66797 1.0938 0.49609 1.293 0.050781 1.2578 0.35156 0.71875 0.91797 0.54688 0.95703 0.55078 1.0195 0.54297 1.0664 0.46484 0.92969 0.53125 0.94141 0.78906 0.89844 0.98828 0.48438 1.3477 0.16797 1.1797 0.18359 1.1719 0.37891 1.7539 0.65625 1.0859 0.41016 1.6211 0.57031 0.97266 0.38672 0.82812 0.56641 1.1211 0.60547 1.1367 0.20703 1.1094 0.046875 1.5391 0.58594 1.4453 0.92188 1.043 0.76562 1.6094 1.3672 1.4648 0.92578 1.0938 0.60156 1.0898 0.58594 0.83203 0.67188 2.0273 1.6992 0.88281 0.67578 0.76953 0.67969 0.79688 1.2227 0.75 0.92188 1.332 1.1016 1.4805 1.1836 1.0234 0.60547 1.293 0.61328 0.92578 0.37891 1.4883 0.65234 1.1328 0.5625 1.1641 0.53906 1.668 0.70703 1.332 0.69531 1.2578 0.94922 1.4336 0.52734 0.99609 0.23828 1.2422 0.77734 1.0156 0.97266 2.8711 1.7812 0.89453 0.44922 0.89844 0.58203 1.1719 1.0156 0.85547 0.5625 1.1914 0.64453 0.94922 0.71875 1.0547 0.66797 1.1133 0.64062 0.86328 0.67969 0.63281 0.82812 1.5391 0.9375 1.5664 0.69922 1.2383 0.46484 1.5508 0.67188 1.8281 0.74609 2.2188 1 3.6797 2.2773 2.1289 0.49219 2.6992 0.89844 2.6914 1.1523 3.1484 0.98828 1.4961 0.53125-0.63281 0.88281-0.58203 0.82812-0.66406 1.0039-0.89062 0.98438-1.1484 0.30469-1.3945 0.45703-1.0273 0.9375-0.81641 1.1094-0.46484 0.94141-1.3789 1.0312-1.1562 0.73828-0.41797 1.1094-1.1328 0.37891-1.0391 0.71875-0.79688 1.1172-0.54297 0.87891-0.96094 0.66797-1.2383 1.4219-0.88281 1.4883-0.375 1.0234-0.71484 0.85547-1.2188 0.63281-0.68359 1.6836-1.6562 1.1992-0.93359 1.0586-0.74219 0.94922-0.66406 1.1758-1.4727 0.13281-1.125 0.25391-1.3164 1.1445-1.7852 0.35938-1.0039 1.4453-0.34766 1.2969-0.19531 1.293-0.75781 2.1445-0.18359 1.3867 0.097656 1.3984-3.1914-1.2031-4.3281-0.13672-2.1094 0.17188-2.2148 0.27344-3.2188 0.66016-4.4258 0.72656-3.3906 0.17188h-3.9453l-1.4531-0.13672-2.9414-0.25781-1.6953 0.085938-1.2461 0.41406-1.1055 0.79688-1.5234 1.5234-2.9414 1.4844-1.6602 0.66016-1.1406 0.48438-5.9883 1.7305-2.8242 0.67969-2.1914 0.53125-2.8125 0.79297-1.1953 0.33594-2.2227 0.73828-2.3867 0.37891-2.457 0.48438-1.7305 0.3125-4.1523 1.3516-5.9141 2.7305-7.3672 4.2227-1.6641 1.1172-4.3594 2.5156-2.8359 1.9023-3.3242 2.9414-1.9375 2.3867-1.0898 1.5547-1.875 2.1094-1.0039 0.89453-1.082 1.082-0.67188 1.2109-0.22656 1.418-0.34766 1.9375-0.48438 1.2812-0.62109 1.1055-0.83203 0.72656-1.0742 1.0039-0.82812 0.83203-1.0742 0.89844-1.3125 0.55469-0.93359 0.44922-0.55469 0.93359-0.90234 1.1719-2.0352 2.5977-34.629 50.988-3.5898 4.8906-3.6367 5.2969-5.7773 8.4922-6.9375 9.8945-0.70703 1.1133-2.293 3.7031-7.5742 10.812-3.8711 5.5312-1.6445 2.3477-1.6836 2.5-4.8398 7.1758-4.4531 6.2227-1.332 1.8555-3.9023 5.7617-2.2305 3.2891-1.0352 1.4766-0.92578 1.3281-4.1484 5.9375-3.9961 5.875-0.86719 1.25-1.7148 2.4648-3.4141 4.9023-4.5859 6.5938-1.1758 1.6992-3.082 4.4453-1.1797-0.20703-2.0977-1.0273-1.5938-0.81641-2.5859-1.4297-1.6367-0.89062-1.5117-0.89453-1.1367-0.55469-1.0039-0.5625-1.2188-0.67578-1.0938-0.64453-1.2383-0.59375-1.2617-0.6875-1.6797-0.83594-1.0469-0.52734-1.1523-0.49609-1.4727-0.73828-1.8906-1.0039-2.6875-1.293-1.8047-0.83984-1.0703-0.55469-1.8711-0.80469-0.96094-0.49219-3.5742-1.6484-1.0469-0.58594-1.3242-0.51953-1.0117-0.4375-1.3359-0.51172-0.98828-0.36328-1.2266-0.57031-2.0156-0.8125-1.2305-0.39844-0.98047-0.40625-1.5391-0.59766-0.94531-0.32422-3.043-1.2188-1.168-0.33594-1.625-0.58594-1.2305-0.48047-1.707-0.60547-1.3711-0.58203-2.0156-0.89844-1.0742-0.54688-1.4727-0.65625-1.457-0.72656-2.2148-1.1016-1.4336-0.76172-1.1992-0.72656-1.418-0.92578-2.9648-2.0547-2.0391-1.5625-1.6133-1.3242-1.1328-1.0273-1.5859-1.5508-0.71875-0.77344-1.0898-1.0039-0.72656-0.76562-1.0156-1.2188-0.89062-0.88672-0.6875-0.75781-1.7266-1.6953-1.6172-1.6445-1.2266-1.1602-1.1484-1.0781-1.4766-1.5117-0.83203-0.69141-1.0625-1.0273-1.5352-1.4297-0.82422-0.82422-1.1016-0.96484-0.81641-0.79297-2.0781-1.7695-1.1016-0.80859-1.0703-1.1367-1.668-1.5234-0.99609-0.73438-1.0859-0.99609-1.0117-0.60156-1.7656-1.4219-0.98828-0.85938-1.3828-1.1016-1.2773-0.87891-1.5938-1.1875-2.8164-2.0859-1.1523-0.90234-1.1523-0.83203-1.0742-0.67578-1.7617-1.1797-1.1523-0.85547-1.3047-0.98438-0.85938-0.57422-1.1953-0.74609-1.1133-0.79297-1.5508-0.84375-0.90625-0.68359-1.8281-1.1523-1.2109-0.72656-1.4141-0.97266-1.082-0.67578-1.625-0.94141-1.168-0.76172-1.5898-1.0117-1.5117-0.90234-1.2891-0.82031-0.875-0.53125-0.88672-0.47266-1.4492-0.95312-1.0156-0.5625-1.2734-0.77734-0.92578-0.53906-1.2656-0.80078-1.1992-0.65625-1.5312-0.96484-3.4922-1.9609-0.97266-0.6875-1.2305-0.66406-0.98047-0.60938-1.6836-0.88672-1.2148-0.80469-1.4531-0.87109-1.3516-0.83203-1.2031-0.71484-0.89453-0.57031-2.8359-1.918-1.7969-1.0078-1.3633-0.71094-1.082-0.61328-1.0586-0.53516-1.1367-0.64062-1.4023-0.71094-1.5586-0.92969-0.9375-0.41797-2.793-1.5117-1.2578-0.72656-1.125-0.75-1.7266-0.96484-1.1094-0.71484-1.5156-0.81641-1.3086-0.92969-1.4609-0.95312-1.168-0.82812-1.1836-0.80859-1.5469-1.0781-1.5586-0.87891-1.0117-0.77734-1.207-0.80078-1.2461-0.72656-1.082-0.6875-0.88672-0.54297-1.5703-1.1953-1.0234-0.5-2.168-1.3711-0.99609-0.79688-1.9414-1.5938-1.2812-1.3125-1-0.93359-1.3008-1.3711-0.89453-1.1406-1.0742-1.2344-0.85938-1.3594-0.53516-1.375-0.60938-1.1406 0.10547-1.2109 0.53125-1.0703-0.375-0.97656-0.88672-1.1484-0.63672-0.91797 0.046875-1.3906-0.91406-1.3516-0.97266-0.97266-1.7695-2.0117-2.0312-2.4531-0.69922-0.98438-0.54297-1.0117-0.52344-0.87109-0.625-1.0156-0.64062-1.0859-0.51172-0.99219-1-1.957-0.51953-1.375-0.92578-2.2734-0.28516-1.1641-0.44922-1.0195-0.55859-1.7617-0.65625-1.8164-0.55078-1.6914-0.37109-1.082-0.097656-1.0273 0.32813-1.9648 1.4453-1.4648 0.19922-1.8242-0.38672-2.0156-1.3125-3.8945-0.15625-1.2773-0.15625-1.8398 0.64453-0.94141-0.03125-1.832 0.6875-1.4727 0.64062-1.2266 0.14453-1.9844-0.26953-2.1289 0.0625-1.4297-0.23438-1.7969-0.074218-1.7383 0.26172-1.7656 0.37891-1.1875-0.039063-2.5391-0.20703-1.0352-0.24219-1.1367-0.43359-0.90234-0.55859-1.1289-0.41406-0.95703-0.25781-1.1953 0.8125-0.90234 0.74219-1.1172 0.80469-1.0391 1.5273-1.1562 1.1602-1.0977 0.92969-1.2266 0.73828-1.207 1.9492-2.4922 0.77344-1.082 0.44141-1.3398 0.15234-1.2109 0.72656-1.3203 0.61719-1.0117 0.26953-1.3359 0.10156-1.2656 0.21094-1.3047-0.16406-1.1055 1.8008-0.35156 1.0625-0.39844 1.2305-0.19141 1.1055 0.28516 0.70703 0.91016 1.6367 0.5 1.6836-0.53516 1.4141-1.0781 1.2148-1.3242 0.65234-1.0586 0.65625-1.1758 0.46484-1.1992 0.52344-1.9492-0.19531-1.0664 1.0547-0.41016 1.2305-0.98438 0.86328-1.7969 0.32812-2.1602 0.46484-1.1016 0.60938-1.5703-0.17578-1.1602-0.097656-1.6016-0.41406-1.0312-0.085937-1.1211 0.63672-1.0391 0.72656-0.87891 0.64062-0.78516 1.0195-0.35156 0.96484-0.30469 1.1875-0.03125 0.76562-0.88672 1.3828-0.19141 0.66016 0.96875 1.0898 0.33984 1.6289 1.3164 1.082 0.80859 0.36328 0.96094 1.0625 0.625 1.1914 1.6562 0.77344 1.1719 1.7031 2.7422 1.4062 0.5625 0.48438 0.92188 0.066406 1.2109 0.39844 0.98828 1.1055 1.0117 1.1602 0.97266 1.4688 1.0508 1.1523 0.33984 2.332 1.7422 1.1562 0.70312 0.98828 0.29688 1.5469-0.0625 1.3008-0.45312 0.80469-0.69922 0.13672 1.1016 1.5469 0.84375 1.7305 0.76172 0.70312 0.86328 1.1953 0.082031 1.7617-0.50391 1.1992-0.48438 1.1133-0.23047 1.0156 0.15234 0.09375 1.2266 0.69141 0.86328 0.99609 0.20703 1.6211 0.042968 1.1094-0.03125 1.8945-0.125 1.2891 0.70703 1.5352 0.64453 0.29688 0.97656 1.0781 0.55078 1.5938-0.47266 1.2461-0.18359 1.0859 0.85938 1.1445 0.27734 0.98828 0.19531 1.1445 0.003906 1.4375-0.089844h1.293l1.1523-0.14062 1.5195-0.51953 1.0664-0.42969 1.3203-0.61719 2.0898-0.95703 1.1406-0.37891 1.5312-0.60547 0.97266-0.50781 1.8867-1.2344 1.3828-1.0234 0.80859-0.64844 1.0039-0.59766 1.1758-1.0273 1.6289-1.1992 0.76172-0.67578 0.90234-0.96094 0.85938-1.0781 0.76172-0.66016 1.7344-1.9766 0.95703-1.2227 0.71875-1.2148 0.54688-0.99219 0.51172-1.1094 0.62109-1.0156 0.60547-1.0195 0.30859-1 0.46094-1.7266 0.57031-2.043 0.35938-0.98438 0.80859-1.5586 0.57031-1.3242 0.5625-1 0.70312-1.1406 0.87891-1.2539 0.75781-1.0039 0.92969-1.6836 3.8516-7.3008 0.64844-1.9062 0.47266-2.1797 0.21484-1.5391 0.26172-0.97656 0.48438-1.1875 0.29297-1.1562 0.125-1.3008 0.23438-1.043 0.17188-1.1445 0.16406-1.2852 0.27344-1.3516 0.09375-1.082 0.042969-1.4766 0.10938-1.2656 0.097656-1.5156 0.11328-2.2109 0.11719-1.1602 0.33594-1.8164 0.17188-1.5547 0.070313-1.8867 0.023437-1.5391-0.007812-1.1875 0.15234-1.0195 0.12891-1.7383 0.039062-1.0312-0.0625-1.5977 0.17188-1.3711 0.046875-1.1523-0.10547-1.1602 0.035157-1.5586-0.23438-1.0078-0.0625-2.0938-0.078125-1.5273-0.19531-1.168-0.074219-1.375-0.15625-1.3086-0.16016-1.082-0.30469-1.0703-0.47656-1.8711-0.31641-1.4375-0.66797-1.3633-0.66797-1.7031-0.60156-1.4883-0.48047-1.3672-0.64453-1.3438-0.32812-0.98828-0.25391-1.1797-0.33984-1.1719-0.31641-1.0391-0.36328-1.7148-0.31641-1.7344-0.17969-1.1602-0.65234-1.2852-0.37891-1.1289-0.45312-1.0352-0.32422-1.7852-0.34375-1.0078-0.28906-1.043-0.39062-1.207-0.87891-1.0977-0.50391-1.0234-0.375-1.0234-0.31641-1.3164-0.63672-1.1523-0.40625-1.4922-0.60938-1.3164-0.33984-1.3359-0.53906-0.96875 1.6484-1.1055 1-0.61328 0.93359-0.45312 1.3359-1.1445 1.418-2.3398 1.5391-1.6055 1.207-0.99219 7.7539-5.9062 6.7383-5.4141 1.2617-0.98438 0.96875-1.3125 0.99609-1.5195 0.22656-4.668 1.2344-0.42578 1.3008-0.53516 1.6094-0.93359 0.69922-1.0508 0.51562-0.98047 0.79297-0.91016 0.050781-1.3555 0.37109-0.98828 1.1055 0.085938" fill="none" stroke="#fff" stroke-linecap="round" stroke-linejoin="round" stroke-miterlimit="10" stroke-width="2"/>
<path d="m219.77 62.129 8.9492 2.0859 4.6211-0.66797 16.051-2.9023 4.5547 0.074219 10.895 3.4023 6.8203 2.4648 1.6445 8.7773 2.9922 15.094 2.2109 10.672 1.3203 15.211-18.906-0.56641-22.637-0.67969-16.641-7.3359-9.3945-4.1445-20.551-9.2617-16.816-7.7422-1.0273-0.39844-1.0195 0.41406-0.89844-0.92188-1.9219-0.10938 0.44922-1.3203 0.50781-1.4258 0.68359-1.3867 0.64453-0.89844 0.85156-0.94531 0.28906-0.98828 0.33203-0.98047 0.11328-1.0508 0.066406-1.0742 1.1133-1.0312 0.48047-1.1367-0.84375-0.9375-0.88672-1.043-0.68359-1.2461 0.46484-0.95703 1.1172-0.44922 0.69141-1.0078 1.3359-0.59766h1.2617l1.7422-0.039063 1.1094-0.25 1.8438-0.37109 1.0352-0.48828 0.94922-1.0039 1.5312-0.33203 1.2773-2.4609 2.1406 0.19531 3.3984 0.24219 1.1641 0.125 1.1328 0.13672 1.168-0.74609 2.0508-0.32812 1.1602-0.43359 2.1641-0.16406 1.5312-1.2383z" fill="#ccc" fill-rule="evenodd"/>
<path d="m219.77 62.129 8.9492 2.0859 4.6211-0.66797 16.051-2.9023 4.5547 0.074219 10.895 3.4023 6.8203 2.4648 1.6445 8.7773 2.9922 15.094 2.2109 10.672 1.3203 15.211-18.906-0.56641-22.637-0.67969-16.641-7.3359-9.3945-4.1445-20.551-9.2617-16.816-7.7422-1.0273-0.39844-1.0195 0.41406-0.89844-0.92188-1.9219-0.10938 0.44922-1.3203 0.50781-1.4258 0.68359-1.3867 0.64453-0.89844 0.85156-0.94531 0.28906-0.98828 0.33203-0.98047 0.11328-1.0508 0.066406-1.0742 1.1133-1.0312 0.48047-1.1367-0.84375-0.9375-0.88672-1.043-0.68359-1.2461 0.46484-0.95703 1.1172-0.44922 0.69141-1.0078 1.3359-0.59766h1.2617l1.7422-0.039063 1.1094-0.25 1.8438-0.37109 1.0352-0.48828 0.94922-1.0039 1.5312-0.33203 1.2773-2.4609 2.1406 0.19531 3.3984 0.24219 1.1641 0.125 1.1328 0.13672 1.168-0.74609 2.0508-0.32812 1.1602-0.43359 2.1641-0.16406 1.5312-1.2383 16.367 2.168" fill="none" stroke="#fff" stroke-linecap="round" stroke-linejoin="round" stroke-miterlimit="10" stroke-width="2"/>
<path d="m177.93 44.855 0.44922 0.042969 0.71875 1.0273 0.77344 0.89062-0.26953 1.4219-0.03125 1.4609-0.67578 1.0391-0.26953 1.5156 0.25781 1.1016-0.58203 0.90234-1.1562 0.019531-1.0117 0.35938-0.023437 1.0312 0.79688 1.1289 0.45312 1.168-0.14453 1.3711-0.79297 1.0273-0.09375 1.4922 0.085937 1.0742-0.62109 1.3164 0.054687 1.2578-0.26172 1.4023-0.4375 1.4297-1.0234 0.55469-0.875 0.64453 0.074219 1.0469 1.3789 1.8359 0.83984 0.65625-0.23828 1.0664-0.76562 0.84766-1.1016 0.94922-1.2422-0.30859-1.2305-0.3125-1.3047-0.1875-1.1445 0.15625-1.2578 0.67578-0.90234 0.95703-1.043 0.88672-1.4023 0.53125-1.2031 0.32812-1.0664-0.17969-0.27734-1.1016 0.23047-1.0664-0.23438-0.97656 0.87109-1.0312 1.332-0.76562 0.80078-1.2773-0.10547-1.2305-0.49219-0.90625-0.13672-1.8242 0.43359-1.3242 0.40234-1.0586-0.51172-1.0391-0.5-1.0742-0.375-1.0156 0.64844-1.5547 0.77344-1.0586 0.011719-1.1172 1.2188-2.1562 1.4023-2.3711 0.92188-0.9375 1.082-0.78516 0.70312-1.1445-0.125-1.082-0.035157-1.1562 0.29688-1.418 0.40234-1.043 1.1562-0.11328 1.3555-0.21875h1.0703l1.1055 0.20312 0.93359-0.49609 0.58203-0.97656 0.96094-0.60547z" fill="#ccc" fill-rule="evenodd"/>
<path d="m177.93 44.855 0.44922 0.042969 0.71875 1.0273 0.77344 0.89062-0.26953 1.4219-0.03125 1.4609-0.67578 1.0391-0.26953 1.5156 0.25781 1.1016-0.58203 0.90234-1.1562 0.019531-1.0117 0.35938-0.023437 1.0312 0.79688 1.1289 0.45312 1.168-0.14453 1.3711-0.79297 1.0273-0.09375 1.4922 0.085937 1.0742-0.62109 1.3164 0.054687 1.2578-0.26172 1.4023-0.4375 1.4297-1.0234 0.55469-0.875 0.64453 0.074219 1.0469 1.3789 1.8359 0.83984 0.65625-0.23828 1.0664-0.76562 0.84766-1.1016 0.94922-1.2422-0.30859-1.2305-0.3125-1.3047-0.1875-1.1445 0.15625-1.2578 0.67578-0.90234 0.95703-1.043 0.88672-1.4023 0.53125-1.2031 0.32812-1.0664-0.17969-0.27734-1.1016 0.23047-1.0664-0.23438-0.97656 0.87109-1.0312 1.332-0.76562 0.80078-1.2773-0.10547-1.2305-0.49219-0.90625-0.13672-1.8242 0.43359-1.3242 0.40234-1.0586-0.51172-1.0391-0.5-1.0742-0.375-1.0156 0.64844-1.5547 0.77344-1.0586 0.011719-1.1172 1.2188-2.1562 1.4023-2.3711 0.92188-0.9375 1.082-0.78516 0.70312-1.1445-0.125-1.082-0.035157-1.1562 0.29688-1.418 0.40234-1.043 1.1562-0.11328 1.3555-0.21875h1.0703l1.1055 0.20312 0.93359-0.49609 0.58203-0.97656 0.96094-0.60547 0.38672 0.09375" fill="none" stroke="#fff" stroke-linecap="round" stroke-linejoin="round" stroke-miterlimit="10" stroke-width="2"/>
<path d="m195.15 33.609 7.5273 2.2695 1.6055 0.53906 1.0508 0.36328 3.6172 0.625 2.168-0.45312 1.2188 0.23438 1.2773 0.25 1.0742 0.22266 1.3047 0.26953 2.6211 0.53906 0.98828 0.24609 1.8281 0.45312 1.9688 0.38672 1.25 0.25 0.99219 0.19531 1.0156 0.30859 1.3242 0.39453 1.1094 0.33594 0.83203 2.7578 0.9375 1.1719-1.9844 0.66016-0.10938 1.4492 0.078125 1.2227-0.22266 1.7383-0.58984 1.6289-0.10938 1.0742 0.51953 1.6641 0.22266 2.0352 0.058594 1.9609 0.26953 2.3594 0.35938 1.8047 0.22656 1.1758-9.8164-1.6133-15.98-2.4219-1.3281 0.92578-2.7539 0.73047-1.1602 0.43359-1.668 0.1875-0.94531 0.37891-1.7383 0.37109-1.1641-0.125-3.3984-0.24219-2.1406-0.19531-0.63281 2.2148-1.3008 0.46094-1.207 0.61328-1.6523 0.99609-1.1328 0.24609-1.8203 0.375-1.7422 0.039063h-1.2617l-1.1562-0.21094 0.29688-0.98438-0.21875-1.082 0.69141-1.7148-0.027344-1.2695-0.082031-1.1758 0.64844-0.91406 0.49219-1.1875-0.17969-1.168-0.73438-1.1641-0.47266-0.96094 1.1445-1.0078 1.1562-0.019531 0.58203-0.90234-0.25781-1.1016-0.03125-1.0117 0.73828-1.0352 0.32422-1.0117 0.070312-1.75 0.96094-0.98047 0.76172-0.74219 0.89453-0.96484h1.0352l1.1992-0.27344 0.45703-0.91797 1.1914-0.078125 1.1016 0.41016 1.0352 0.19922 1.0625-0.13672 0.51172-0.96094 0.98828-2.0547 0.79297-1.4062 1.2734-2.1836 1.043-1.7734 0.59375-1.0039 0.44141-0.99609z" fill="#ccc" fill-rule="evenodd"/>
<path d="m195.15 33.609 7.5273 2.2695 1.6055 0.53906 1.0508 0.36328 3.6172 0.625 2.168-0.45312 1.2188 0.23438 1.2773 0.25 1.0742 0.22266 1.3047 0.26953 2.6211 0.53906 0.98828 0.24609 1.8281 0.45312 1.9688 0.38672 1.25 0.25 0.99219 0.19531 1.0156 0.30859 1.3242 0.39453 1.1094 0.33594 0.83203 2.7578 0.9375 1.1719-1.9844 0.66016-0.10938 1.4492 0.078125 1.2227-0.22266 1.7383-0.58984 1.6289-0.10938 1.0742 0.51953 1.6641 0.22266 2.0352 0.058594 1.9609 0.26953 2.3594 0.35938 1.8047 0.22656 1.1758-9.8164-1.6133-15.98-2.4219-1.3281 0.92578-2.7539 0.73047-1.1602 0.43359-1.668 0.1875-0.94531 0.37891-1.7383 0.37109-1.1641-0.125-3.3984-0.24219-2.1406-0.19531-0.63281 2.2148-1.3008 0.46094-1.207 0.61328-1.6523 0.99609-1.1328 0.24609-1.8203 0.375-1.7422 0.039063h-1.2617l-1.1562-0.21094 0.29688-0.98438-0.21875-1.082 0.69141-1.7148-0.027344-1.2695-0.082031-1.1758 0.64844-0.91406 0.49219-1.1875-0.17969-1.168-0.73438-1.1641-0.47266-0.96094 1.1445-1.0078 1.1562-0.019531 0.58203-0.90234-0.25781-1.1016-0.03125-1.0117 0.73828-1.0352 0.32422-1.0117 0.070312-1.75 0.96094-0.98047 0.76172-0.74219 0.89453-0.96484h1.0352l1.1992-0.27344 0.45703-0.91797 1.1914-0.078125 1.1016 0.41016 1.0352 0.19922 1.0625-0.13672 0.51172-0.96094 0.98828-2.0547 0.79297-1.4062 1.2734-2.1836 1.043-1.7734 0.59375-1.0039 0.44141-0.99609 0.085938 0.027344" fill="none" stroke="#fff" stroke-linecap="round" stroke-linejoin="round" stroke-miterlimit="10" stroke-width="2"/>
<path d="m189.3 27.938 0.55078 0.28906 2.1328 1.1211 1.8477 0.55469 0.13281 1.2734 0.57422 1.1523 1.0391 0.30469-0.50781 0.94922-0.44141 0.99609-0.59375 1.0039-1.043 1.7734-0.87109 1.4688-1.1953 2.1211-0.625 1.1523-0.50781 1.3359-0.91797 0.69141-1.2734-0.15234-1-0.36328-1.0391-0.34766-0.80859 1.0508-0.97266 0.39453-1.1211-0.027343-1.2109 1.043-0.76172 0.74219-1.207-0.21484-0.82422-1.2227-0.14453-1.1289 0.36328-1.4609-0.17578-1.1289-0.92578-0.63281-0.9375-0.92188-1.0391-0.54688-0.78125-0.90234-0.53906-1.125-1.043-0.51172 0.72266-1.6172 0.94141-0.34375 0.80469-0.82031 1.2227-0.023438 1.2266-0.13672 1.4648-0.33203 0.80078-0.63672 0.96094-0.33203 0.82422-0.75 0.48047-1.2578 1.1445-0.46484 0.75781-1.0977 1.1133-0.48438 1.168-0.4375z" fill="#ccc" fill-rule="evenodd"/>
<path d="m189.3 27.938 0.55078 0.28906 2.1328 1.1211 1.8477 0.55469 0.13281 1.2734 0.57422 1.1523 1.0391 0.30469-0.50781 0.94922-0.44141 0.99609-0.59375 1.0039-1.043 1.7734-0.87109 1.4688-1.1953 2.1211-0.625 1.1523-0.50781 1.3359-0.91797 0.69141-1.2734-0.15234-1-0.36328-1.0391-0.34766-0.80859 1.0508-0.97266 0.39453-1.1211-0.027343-1.2109 1.043-0.76172 0.74219-1.207-0.21484-0.82422-1.2227-0.14453-1.1289 0.36328-1.4609-0.17578-1.1289-0.92578-0.63281-0.9375-0.92188-1.0391-0.54688-0.78125-0.90234-0.53906-1.125-1.043-0.51172 0.72266-1.6172 0.94141-0.34375 0.80469-0.82031 1.2227-0.023438 1.2266-0.13672 1.4648-0.33203 0.80078-0.63672 0.96094-0.33203 0.82422-0.75 0.48047-1.2578 1.1445-0.46484 0.75781-1.0977 1.1133-0.48438 1.168-0.4375 2.2344 0.003906" fill="none" stroke="#fff" stroke-linecap="round" stroke-linejoin="round" stroke-miterlimit="10" stroke-width="2"/>
<path d="m86.367 2.1719 0.23828 0.12109 8.9727 4.5664 40.27 20.488 30.785-2.2461 4.6406-0.33594 9.6797 1.0469-0.25391 1.1133-0.24609 1.5547-1.1367-0.089844 0.36328 1.0156 1.0312 0.17578 0.84766 0.54688 0.62891 0.78125 0.10938 1.2227-0.94531 0.33984-0.90234 0.44531-1.2656 0.67969-1.1055 0.070313-1.2188 0.26953-1.3906-0.10938-0.85547 0.98438-1.0352 1.0781 0.16406 1.0977 0.96875 0.42969 0.42969 1.1758 0.93359 0.85156 1.0625 0.57031 0.90625 0.75391 0.83594 1.0547-0.30078 1.4062-0.023437 1.2109-1.0156 0.32031-0.96094 0.60547-0.58203 0.97656-0.93359 0.49609-1.1055-0.20312h-1.0703l-1.0586 0.17188-1.0703 0.046875-0.78516 1.1562-0.26172 1.2812 0.050781 1.0352 0.074219 1.3398-0.70312 1.1445-1.082 0.78516-0.92188 0.9375-1.4023 2.3711-1.1562 1.6367 0.003906 1.0977-0.53125 1.2344-0.73828 1.3242-0.89453-0.85938-0.98438-2.7539-2.1875-0.88281-1.1289 0.14453-1.0508-0.60547-0.89062-0.48438-1.1055-0.085938-0.37109 0.98828 0.054688 1.1523-0.71484 0.89453-0.69922 1.1992-0.69922 1.0508-1.0039 0.51172-1.2617 0.69531-1.8789 0.6875-0.22656 4.668-0.99609 1.5195-0.96875 1.3125-1.2617 0.98438-6.5234 5.25-7.875 6.0078-1.3008 1.0547-1.5391 1.6055-0.86719 1.7109-1.2969 1.3398-1.5234 0.88672-1 0.61328-1 0.75-1.0586-0.23828-0.41797-0.98047-0.55469-1.3203-0.69141-1.3984-0.32422-1.0391-0.94922-1.8164-0.77734-1.1172-0.51953-1.2188-0.83984-1.8008-0.38672-0.92969-0.26953-1.0508-0.34375-1.1953-0.16797-1.0078-0.14844-1.125-1.3008-2.4531-1.4219-2.7969-0.58203-1.1797-1.5469-2.4453-0.70703-1.0625-0.80078-1.8008-0.9375-1.293-0.48828-0.96094-1.7656-2.3203-0.65234-0.97656-1-1.5625-0.45703-0.96875-0.87109-1.2188-1.0508-1.2773-0.65625-1.1055-0.60938-1.1172-0.88672-1.0898-1.0742-1.5938-0.95312-0.91797-0.85547-1.4219-0.88281-0.96094-0.80078-0.97266-1.5391-1.9609-0.97266-1.043-0.57812-0.85547-0.69922-0.82031-0.81641-0.91797-1.2656-1.043-0.94922-1.1172-0.58594-0.95703-1.2227-1.0195-1.1992-0.82422-1.8398-1.6289-0.71875-0.71484-1.1133-0.70312-1.2461-1.2617-1.9805-2.4102-1.2109-1.3672-1.207-1.0352-0.92188-0.97656-1.4297-1.7773-1.8672-1.8867 2.0312-4.5273 0.66797-1.4297 1.0586-2.168 2.3398-3.2422 2.5586-3.6289 1.0547-1.4727 5.0586-0.98047z" fill="#ccc" fill-rule="evenodd"/>
<path d="m86.367 2.1719 0.23828 0.12109 8.9727 4.5664 40.27 20.488 30.785-2.2461 4.6406-0.33594 9.6797 1.0469-0.25391 1.1133-0.24609 1.5547-1.1367-0.089844 0.36328 1.0156 1.0312 0.17578 0.84766 0.54688 0.62891 0.78125 0.10938 1.2227-0.94531 0.33984-0.90234 0.44531-1.2656 0.67969-1.1055 0.070313-1.2188 0.26953-1.3906-0.10938-0.85547 0.98438-1.0352 1.0781 0.16406 1.0977 0.96875 0.42969 0.42969 1.1758 0.93359 0.85156 1.0625 0.57031 0.90625 0.75391 0.83594 1.0547-0.30078 1.4062-0.023437 1.2109-1.0156 0.32031-0.96094 0.60547-0.58203 0.97656-0.93359 0.49609-1.1055-0.20312h-1.0703l-1.0586 0.17188-1.0703 0.046875-0.78516 1.1562-0.26172 1.2812 0.050781 1.0352 0.074219 1.3398-0.70312 1.1445-1.082 0.78516-0.92188 0.9375-1.4023 2.3711-1.1562 1.6367 0.003906 1.0977-0.53125 1.2344-0.73828 1.3242-0.89453-0.85938-0.98438-2.7539-2.1875-0.88281-1.1289 0.14453-1.0508-0.60547-0.89062-0.48438-1.1055-0.085938-0.37109 0.98828 0.054688 1.1523-0.71484 0.89453-0.69922 1.1992-0.69922 1.0508-1.0039 0.51172-1.2617 0.69531-1.8789 0.6875-0.22656 4.668-0.99609 1.5195-0.96875 1.3125-1.2617 0.98438-6.5234 5.25-7.875 6.0078-1.3008 1.0547-1.5391 1.6055-0.86719 1.7109-1.2969 1.3398-1.5234 0.88672-1 0.61328-1 0.75-1.0586-0.23828-0.41797-0.98047-0.55469-1.3203-0.69141-1.3984-0.32422-1.0391-0.94922-1.8164-0.77734-1.1172-0.51953-1.2188-0.83984-1.8008-0.38672-0.92969-0.26953-1.0508-0.34375-1.1953-0.16797-1.0078-0.14844-1.125-1.3008-2.4531-1.4219-2.7969-0.58203-1.1797-1.5469-2.4453-0.70703-1.0625-0.80078-1.8008-0.9375-1.293-0.48828-0.96094-1.7656-2.3203-0.65234-0.97656-1-1.5625-0.45703-0.96875-0.87109-1.2188-1.0508-1.2773-0.65625-1.1055-0.60938-1.1172-0.88672-1.0898-1.0742-1.5938-0.95312-0.91797-0.85547-1.4219-0.88281-0.96094-0.80078-0.97266-1.5391-1.9609-0.97266-1.043-0.57812-0.85547-0.69922-0.82031-0.81641-0.91797-1.2656-1.043-0.94922-1.1172-0.58594-0.95703-1.2227-1.0195-1.1992-0.82422-1.8398-1.6289-0.71875-0.71484-1.1133-0.70312-1.2461-1.2617-1.9805-2.4102-1.2109-1.3672-1.207-1.0352-0.92188-0.97656-1.4297-1.7773-1.8672-1.8867 2.0312-4.5273 0.66797-1.4297 1.0586-2.168 2.3398-3.2422 2.5586-3.6289 1.0547-1.4727 5.0586-0.98047 0.60156 0.12109" fill="none" stroke="#fff" stroke-linecap="round" stroke-linejoin="round" stroke-miterlimit="10" stroke-width="2"/>
<path d="m156.17 56.758 0.48828 0.26172 1.0078 0.52344 1.5742 0.16016 1.6797 0.36719 1.4922 3.2695 0.66406 1.4531 0.375 1.0156 0.011719 1.0195 0.88672 0.82812-0.28906 1.3242-0.38281 0.92578-0.074218 1.3203 0.65234 1.8086 0.15234 1.0078-0.57812 1.1992-1.3555 0.89062-0.82422 0.76562-0.35938 0.94922-0.03125 1.2383 0.41406 1.0117 1.0312 0.56641 1.2031-0.32812 1.4023-0.53125 1.043-0.88672 0.90234-0.95703 1.2578-0.67578 1.1445-0.15625 1.3047 0.1875 1.2305 0.3125 1.2422 0.30859 0.52344 0.9375-0.51953 1.7539-0.28906 0.98828-0.85156 0.94531-0.64453 0.89844-0.68359 1.3867-0.50781 1.4258-0.35938 0.9375 1.0273 0.42969 1.3086 0.46875 0.89844 0.54297 1.2305-0.27734 17.129 7.9766 20.551 9.2617 9.3945 4.1445 16.641 7.3359 22.637 0.67969 18.906 0.56641 14.711 5.6953 24.781 8.8086 57.043 21.141 1.0078-0.26953 1.043-0.28906 1.0586-0.10156 1.0859-0.039063 1.1719-0.13281 0.97266-0.30078 1.1133-0.36328 1.3438 0.03125 1.4453 0.32422 1.3086-0.003906 1.3438 0.070312 1.3359 0.57422 0.96484 0.50781 0.96875 0.45703 1.2695 0.60938 1.2383 0.6875 1.2148 0.55078 1.1211 0.44141 1.6992 0.61328 1.2383 0.39453 1.0664 0.43359 0.89453 0.63281 1.0781 0.40625 1.1406 0.66797 1.0938 0.49609 1.293 0.050781 1.2578 0.35156 0.71875 0.91797 0.54688 0.95703 0.55078 1.0195 0.54297 1.0664 0.46484 0.92969 0.53125 0.94141 0.78906 0.89844 0.98828 0.48438 1.3477 0.16797 1.1797 0.18359 1.1719 0.37891 1.7539 0.65625 1.0859 0.41016 1.6211 0.57031 0.97266 0.38672 0.82812 0.56641 1.1211 0.60547 1.1367 0.20703 1.1094 0.046875 1.5391 0.58594 1.4453 0.92188 1.043 0.76562 1.6094 1.3672 1.4648 0.92578 1.0938 0.60156 1.0898 0.58594 0.83203 0.67188 2.0273 1.6992 0.88281 0.67578 0.76953 0.67969 0.79688 1.2227 0.75 0.92188 1.332 1.1016 1.4805 1.1836 1.0234 0.60547 1.293 0.61328 0.92578 0.37891 1.4883 0.65234 1.1328 0.5625 1.1641 0.53906 1.668 0.70703 1.332 0.69531 1.2578 0.94922 1.4336 0.52734 0.99609 0.23828 1.2422 0.77734 1.0156 0.97266 2.8711 1.7812 0.89453 0.44922 0.89844 0.58203 1.1719 1.0156 0.85547 0.5625 1.1914 0.64453 0.94922 0.71875 1.0547 0.66797 1.1133 0.64062 0.86328 0.67969 0.63281 0.82812 1.5391 0.9375 1.5664 0.69922 1.2383 0.46484 1.5508 0.67188 1.8281 0.74609 2.2188 1 3.6797 2.2773 2.1289 0.49219 2.6992 0.89844 2.6914 1.1523 3.1484 0.98828 1.4961 0.53125-0.63281 0.88281-0.58203 0.82812-0.66406 1.0039-0.89062 0.98438-1.1484 0.30469-1.3945 0.45703-1.0273 0.9375-0.81641 1.1094-0.46484 0.94141-1.3789 1.0312-1.1562 0.73828-0.41797 1.1094-1.1328 0.37891-1.0391 0.71875-0.79688 1.1172-0.54297 0.87891-0.96094 0.66797-1.2383 1.4219-0.88281 1.4883-0.375 1.0234-0.71484 0.85547-1.2188 0.63281-0.68359 1.6836-1.6562 1.1992-0.93359 1.0586-0.74219 0.94922-0.66406 1.1758-1.4727 0.13281-1.125 0.25391-1.3164 1.1445-1.7852 0.35938-1.0039 1.4453-0.34766 1.2969-0.19531 1.293-0.75781 2.1445-0.18359 1.3867 0.097656 1.3984-3.1914-1.2031-4.3281-0.13672-2.1094 0.17188-2.2148 0.27344-3.2188 0.66016-4.4258 0.72656-3.3906 0.17188h-3.9453l-1.4531-0.13672-2.9414-0.25781-1.6953 0.085938-1.2461 0.41406-1.1055 0.79688-1.5234 1.5234-2.9414 1.4844-1.6602 0.66016-1.1406 0.48438-5.9883 1.7305-2.8242 0.67969-2.1914 0.53125-2.8125 0.79297-1.1953 0.33594-2.2227 0.73828-2.3867 0.37891-2.457 0.48438-1.7305 0.3125-4.1523 1.3516-5.9141 2.7305-7.3672 4.2227-1.6641 1.1172-4.3594 2.5156-2.8359 1.9023-3.3242 2.9414-1.9375 2.3867-1.0898 1.5547-1.875 2.1094-1.0039 0.89453-1.082 1.082-0.67188 1.2109-0.22656 1.418-0.34766 1.9375-0.48438 1.2812-0.62109 1.1055-0.83203 0.72656-1.0742 1.0039-0.82812 0.83203-1.0742 0.89844-1.3125 0.55469-0.93359 0.44922-0.55469 0.93359-0.90234 1.1719-2.0352 2.5977-34.629 50.988-3.5898 4.8906-3.6367 5.2969-5.7773 8.4922-6.9375 9.8945-0.70703 1.1133-2.293 3.7031-7.5742 10.812-3.8711 5.5312-1.6445 2.3477-1.6836 2.5-4.8398 7.1758-4.4531 6.2227-1.332 1.8555-3.9023 5.7617-2.2305 3.2891-1.0352 1.4766-0.92578 1.3281-4.1484 5.9375-3.9961 5.875-0.86719 1.25-1.7148 2.4648-3.4141 4.9023-4.5859 6.5938-1.1758 1.6992-3.082 4.4453-1.1797-0.20703-2.0977-1.0273-1.5938-0.81641-2.5859-1.4297-1.6367-0.89062-1.5117-0.89453-1.1367-0.55469-1.0039-0.5625-1.2188-0.67578-1.0938-0.64453-1.2383-0.59375-1.2617-0.6875-1.6797-0.83594-1.0469-0.52734-1.1523-0.49609-1.4727-0.73828-1.8906-1.0039-2.6875-1.293-1.8047-0.83984-1.0703-0.55469-1.8711-0.80469-0.96094-0.49219-3.5742-1.6484-1.0469-0.58594-1.3242-0.51953-1.0117-0.4375-1.3359-0.51172-0.98828-0.36328-1.2266-0.57031-2.0156-0.8125-1.2305-0.39844-0.98047-0.40625-1.5391-0.59766-0.94531-0.32422-3.043-1.2188-1.168-0.33594-1.625-0.58594-1.2305-0.48047-1.707-0.60547-1.3711-0.58203-2.0156-0.89844-1.0742-0.54688-1.4727-0.65625-1.457-0.72656-2.2148-1.1016-1.4336-0.76172-1.1992-0.72656-1.418-0.92578-2.9648-2.0547-2.0391-1.5625-1.6133-1.3242-1.1328-1.0273-1.5859-1.5508-0.71875-0.77344-1.0898-1.0039-0.72656-0.76562-1.0156-1.2188-0.89062-0.88672-0.6875-0.75781-1.7266-1.6953-1.6172-1.6445-1.2266-1.1602-1.1484-1.0781-1.4766-1.5117-0.83203-0.69141-1.0625-1.0273-1.5352-1.4297-0.82422-0.82422-1.1016-0.96484-0.81641-0.79297-2.0781-1.7695-1.1016-0.80859-1.0703-1.1367-1.668-1.5234-0.99609-0.73438-1.0859-0.99609-1.0117-0.60156-1.7656-1.4219-0.98828-0.85938-1.3828-1.1016-1.2773-0.87891-1.5938-1.1875-2.8164-2.0859-1.1523-0.90234-1.1523-0.83203-1.0742-0.67578-1.7617-1.1797-1.1523-0.85547-1.3047-0.98438-0.85938-0.57422-1.1953-0.74609-1.1133-0.79297-1.5508-0.84375-0.90625-0.68359-1.8281-1.1523-1.2109-0.72656-1.4141-0.97266-1.082-0.67578-1.625-0.94141-1.168-0.76172-1.5898-1.0117-1.5117-0.90234-1.2891-0.82031-0.875-0.53125-0.88672-0.47266-1.4492-0.95312-1.0156-0.5625-1.2734-0.77734-0.92578-0.53906-1.2656-0.80078-1.1992-0.65625-1.5312-0.96484-3.4922-1.9609-0.97266-0.6875-1.2305-0.66406-0.98047-0.60938-1.6836-0.88672-1.2148-0.80469-1.4531-0.87109-1.3516-0.83203-1.2031-0.71484-0.89453-0.57031-2.8359-1.918-1.7969-1.0078-1.3633-0.71094-1.082-0.61328-1.0586-0.53516-1.1367-0.64062-1.4023-0.71094-1.5586-0.92969-0.9375-0.41797-2.793-1.5117-1.2578-0.72656-1.125-0.75-1.7266-0.96484-1.1094-0.71484-1.5156-0.81641-1.3086-0.92969-1.4609-0.95312-1.168-0.82812-1.1836-0.80859-1.5469-1.0781-1.5586-0.87891-1.0117-0.77734-1.207-0.80078-1.2461-0.72656-1.082-0.6875-0.88672-0.54297-1.5703-1.1953-1.0234-0.5-2.168-1.3711-0.99609-0.79688-1.9414-1.5938-1.2812-1.3125-1-0.93359-1.3008-1.3711-0.89453-1.1406-1.0742-1.2344-0.85938-1.3594-0.53516-1.375-0.60938-1.1406 0.10547-1.2109 0.53125-1.0703-0.375-0.97656-0.88672-1.1484-0.63672-0.91797 0.046875-1.3906-0.91406-1.3516-0.97266-0.97266-1.7695-2.0117-2.0312-2.4531-0.69922-0.98438-0.54297-1.0117-0.52344-0.87109-0.625-1.0156-0.64062-1.0859-0.51172-0.99219-1-1.957-0.51953-1.375-0.92578-2.2734-0.28516-1.1641-0.44922-1.0195-0.55859-1.7617-0.65625-1.8164-0.55078-1.6914-0.37109-1.082-0.097656-1.0273 0.32813-1.9648 1.4453-1.4648 0.19922-1.8242-0.38672-2.0156-1.3125-3.8945-0.15625-1.2773-0.15625-1.8398 0.64453-0.94141-0.03125-1.832 0.6875-1.4727 0.64062-1.2266 0.14453-1.9844-0.26953-2.1289 0.0625-1.4297-0.23438-1.7969-0.074218-1.7383 0.26172-1.7656 0.37891-1.1875-0.039063-2.5391-0.20703-1.0352-0.24219-1.1367-0.43359-0.90234-0.55859-1.1289-0.41406-0.95703-0.25781-1.1953 0.8125-0.90234 0.74219-1.1172 0.80469-1.0391 1.5273-1.1562 1.1602-1.0977 0.92969-1.2266 0.73828-1.207 1.9492-2.4922 0.77344-1.082 0.44141-1.3398 0.15234-1.2109 0.72656-1.3203 0.61719-1.0117 0.26953-1.3359 0.10156-1.2656 0.21094-1.3047-0.16406-1.1055 1.8008-0.35156 1.0625-0.39844 1.2305-0.19141 1.1055 0.28516 0.70703 0.91016 1.6367 0.5 1.6836-0.53516 1.4141-1.0781 1.2148-1.3242 0.65234-1.0586 0.65625-1.1758 0.46484-1.1992 0.52344-1.9492-0.19531-1.0664 1.0547-0.41016 1.2305-0.98438 0.86328-1.7969 0.32812-2.1602 0.46484-1.1016 0.60938-1.5703-0.17578-1.1602-0.097656-1.6016-0.41406-1.0312-0.085937-1.1211 0.63672-1.0391 0.72656-0.87891 0.64062-0.78516 1.0195-0.35156 0.96484-0.30469 1.1875-0.03125 0.76562-0.88672 1.3828-0.19141 0.66016 0.96875 1.0898 0.33984 1.6289 1.3164 1.082 0.80859 0.36328 0.96094 1.0625 0.625 1.1914 1.6562 0.77344 1.1719 1.7031 2.7422 1.4062 0.5625 0.48438 0.92188 0.066406 1.2109 0.39844 0.98828 1.1055 1.0117 1.1602 0.97266 1.4688 1.0508 1.1523 0.33984 2.332 1.7422 1.1562 0.70312 0.98828 0.29688 1.5469-0.0625 1.3008-0.45312 0.80469-0.69922 0.13672 1.1016 1.5469 0.84375 1.7305 0.76172 0.70312 0.86328 1.1953 0.082031 1.7617-0.50391 1.1992-0.48438 1.1133-0.23047 1.0156 0.15234 0.09375 1.2266 0.69141 0.86328 0.99609 0.20703 1.6211 0.042968 1.1094-0.03125 1.8945-0.125 1.2891 0.70703 1.5352 0.64453 0.29688 0.97656 1.0781 0.55078 1.5938-0.47266 1.2461-0.18359 1.0859 0.85938 1.1445 0.27734 0.98828 0.19531 1.1445 0.003906 1.4375-0.089844h1.293l1.1523-0.14062 1.5195-0.51953 1.0664-0.42969 1.3203-0.61719 2.0898-0.95703 1.1406-0.37891 1.5312-0.60547 0.97266-0.50781 1.8867-1.2344 1.3828-1.0234 0.80859-0.64844 1.0039-0.59766 1.1758-1.0273 1.6289-1.1992 0.76172-0.67578 0.90234-0.96094 0.85938-1.0781 0.76172-0.66016 1.7344-1.9766 0.95703-1.2227 0.71875-1.2148 0.54688-0.99219 0.51172-1.1094 0.62109-1.0156 0.60547-1.0195 0.30859-1 0.46094-1.7266 0.57031-2.043 0.35938-0.98438 0.80859-1.5586 0.57031-1.3242 0.5625-1 0.70312-1.1406 0.87891-1.2539 0.75781-1.0039 0.92969-1.6836 3.8516-7.3008 0.64844-1.9062 0.47266-2.1797 0.21484-1.5391 0.26172-0.97656 0.48438-1.1875 0.29297-1.1562 0.125-1.3008 0.23438-1.043 0.17188-1.1445 0.16406-1.2852 0.27344-1.3516 0.09375-1.082 0.042969-1.4766 0.10938-1.2656 0.097656-1.5156 0.11328-2.2109 0.11719-1.1602 0.33594-1.8164 0.17188-1.5547 0.070313-1.8867 0.023437-1.5391-0.007812-1.1875 0.15234-1.0195 0.12891-1.7383 0.039062-1.0312-0.0625-1.5977 0.17188-1.3711 0.046875-1.1523-0.10547-1.1602 0.035157-1.5586-0.23438-1.0078-0.0625-2.0938-0.078125-1.5273-0.19531-1.168-0.074219-1.375-0.15625-1.3086-0.16016-1.082-0.30469-1.0703-0.47656-1.8711-0.31641-1.4375-0.66797-1.3633-0.66797-1.7031-0.60156-1.4883-0.48047-1.3672-0.64453-1.3438-0.32812-0.98828-0.25391-1.1797-0.33984-1.1719-0.31641-1.0391-0.36328-1.7148-0.31641-1.7344-0.17969-1.1602-0.65234-1.2852-0.37891-1.1289-0.45312-1.0352-0.32422-1.7852-0.34375-1.0078-0.28906-1.043-0.39062-1.207-0.87891-1.0977-0.50391-1.0234-0.375-1.0234-0.31641-1.3164-0.63672-1.1523-0.40625-1.4922-0.60938-1.3164-0.33984-1.3359-0.53906-0.96875 1.6484-1.1055 1-0.61328 0.93359-0.45312 1.3359-1.1445 1.418-2.3398 1.5391-1.6055 1.207-0.99219 7.7539-5.9062 6.7383-5.4141 1.2617-0.98438 0.96875-1.3125 0.99609-1.5195 0.22656-4.668 1.2344-0.42578 1.3008-0.53516 1.6094-0.93359 0.69922-1.0508 0.51562-0.98047 0.79297-0.91016 0.050781-1.3555 0.37109-0.98828z" fill="#0a5394" fill-rule="evenodd"/>
<path d="m156.17 56.758 0.48828 0.26172 1.0078 0.52344 1.5742 0.16016 1.6797 0.36719 1.4922 3.2695 0.66406 1.4531 0.375 1.0156 0.011719 1.0195 0.88672 0.82812-0.28906 1.3242-0.38281 0.92578-0.074218 1.3203 0.65234 1.8086 0.15234 1.0078-0.57812 1.1992-1.3555 0.89062-0.82422 0.76562-0.35938 0.94922-0.03125 1.2383 0.41406 1.0117 1.0312 0.56641 1.2031-0.32812 1.4023-0.53125 1.043-0.88672 0.90234-0.95703 1.2578-0.67578 1.1445-0.15625 1.3047 0.1875 1.2305 0.3125 1.2422 0.30859 0.52344 0.9375-0.51953 1.7539-0.28906 0.98828-0.85156 0.94531-0.64453 0.89844-0.68359 1.3867-0.50781 1.4258-0.35938 0.9375 1.0273 0.42969 1.3086 0.46875 0.89844 0.54297 1.2305-0.27734 17.129 7.9766 20.551 9.2617 9.3945 4.1445 16.641 7.3359 22.637 0.67969 18.906 0.56641 14.711 5.6953 24.781 8.8086 57.043 21.141 1.0078-0.26953 1.043-0.28906 1.0586-0.10156 1.0859-0.039063 1.1719-0.13281 0.97266-0.30078 1.1133-0.36328 1.3438 0.03125 1.4453 0.32422 1.3086-0.003906 1.3438 0.070312 1.3359 0.57422 0.96484 0.50781 0.96875 0.45703 1.2695 0.60938 1.2383 0.6875 1.2148 0.55078 1.1211 0.44141 1.6992 0.61328 1.2383 0.39453 1.0664 0.43359 0.89453 0.63281 1.0781 0.40625 1.1406 0.66797 1.0938 0.49609 1.293 0.050781 1.2578 0.35156 0.71875 0.91797 0.54688 0.95703 0.55078 1.0195 0.54297 1.0664 0.46484 0.92969 0.53125 0.94141 0.78906 0.89844 0.98828 0.48438 1.3477 0.16797 1.1797 0.18359 1.1719 0.37891 1.7539 0.65625 1.0859 0.41016 1.6211 0.57031 0.97266 0.38672 0.82812 0.56641 1.1211 0.60547 1.1367 0.20703 1.1094 0.046875 1.5391 0.58594 1.4453 0.92188 1.043 0.76562 1.6094 1.3672 1.4648 0.92578 1.0938 0.60156 1.0898 0.58594 0.83203 0.67188 2.0273 1.6992 0.88281 0.67578 0.76953 0.67969 0.79688 1.2227 0.75 0.92188 1.332 1.1016 1.4805 1.1836 1.0234 0.60547 1.293 0.61328 0.92578 0.37891 1.4883 0.65234 1.1328 0.5625 1.1641 0.53906 1.668 0.70703 1.332 0.69531 1.2578 0.94922 1.4336 0.52734 0.99609 0.23828 1.2422 0.77734 1.0156 0.97266 2.8711 1.7812 0.89453 0.44922 0.89844 0.58203 1.1719 1.0156 0.85547 0.5625 1.1914 0.64453 0.94922 0.71875 1.0547 0.66797 1.1133 0.64062 0.86328 0.67969 0.63281 0.82812 1.5391 0.9375 1.5664 0.69922 1.2383 0.46484 1.5508 0.67188 1.8281 0.74609 2.2188 1 3.6797 2.2773 2.1289 0.49219 2.6992 0.89844 2.6914 1.1523 3.1484 0.98828 1.4961 0.53125-0.63281 0.88281-0.58203 0.82812-0.66406 1.0039-0.89062 0.98438-1.1484 0.30469-1.3945 0.45703-1.0273 0.9375-0.81641 1.1094-0.46484 0.94141-1.3789 1.0312-1.1562 0.73828-0.41797 1.1094-1.1328 0.37891-1.0391 0.71875-0.79688 1.1172-0.54297 0.87891-0.96094 0.66797-1.2383 1.4219-0.88281 1.4883-0.375 1.0234-0.71484 0.85547-1.2188 0.63281-0.68359 1.6836-1.6562 1.1992-0.93359 1.0586-0.74219 0.94922-0.66406 1.1758-1.4727 0.13281-1.125 0.25391-1.3164 1.1445-1.7852 0.35938-1.0039 1.4453-0.34766 1.2969-0.19531 1.293-0.75781 2.1445-0.18359 1.3867 0.097656 1.3984-3.1914-1.2031-4.3281-0.13672-2.1094 0.17188-2.2148 0.27344-3.2188 0.66016-4.4258 0.72656-3.3906 0.17188h-3.9453l-1.4531-0.13672-2.9414-0.25781-1.6953 0.085938-1.2461 0.41406-1.1055 0.79688-1.5234 1.5234-2.9414 1.4844-1.6602 0.66016-1.1406 0.48438-5.9883 1.7305-2.8242 0.67969-2.1914 0.53125-2.8125 0.79297-1.1953 0.33594-2.2227 0.73828-2.3867 0.37891-2.457 0.48438-1.7305 0.3125-4.1523 1.3516-5.9141 2.7305-7.3672 4.2227-1.6641 1.1172-4.3594 2.5156-2.8359 1.9023-3.3242 2.9414-1.9375 2.3867-1.0898 1.5547-1.875 2.1094-1.0039 0.89453-1.082 1.082-0.67188 1.2109-0.22656 1.418-0.34766 1.9375-0.48438 1.2812-0.62109 1.1055-0.83203 0.72656-1.0742 1.0039-0.82812 0.83203-1.0742 0.89844-1.3125 0.55469-0.93359 0.44922-0.55469 0.93359-0.90234 1.1719-2.0352 2.5977-34.629 50.988-3.5898 4.8906-3.6367 5.2969-5.7773 8.4922-6.9375 9.8945-0.70703 1.1133-2.293 3.7031-7.5742 10.812-3.8711 5.5312-1.6445 2.3477-1.6836 2.5-4.8398 7.1758-4.4531 6.2227-1.332 1.8555-3.9023 5.7617-2.2305 3.2891-1.0352 1.4766-0.92578 1.3281-4.1484 5.9375-3.9961 5.875-0.86719 1.25-1.7148 2.4648-3.4141 4.9023-4.5859 6.5938-1.1758 1.6992-3.082 4.4453-1.1797-0.20703-2.0977-1.0273-1.5938-0.81641-2.5859-1.4297-1.6367-0.89062-1.5117-0.89453-1.1367-0.55469-1.0039-0.5625-1.2188-0.67578-1.0938-0.64453-1.2383-0.59375-1.2617-0.6875-1.6797-0.83594-1.0469-0.52734-1.1523-0.49609-1.4727-0.73828-1.8906-1.0039-2.6875-1.293-1.8047-0.83984-1.0703-0.55469-1.8711-0.80469-0.96094-0.49219-3.5742-1.6484-1.0469-0.58594-1.3242-0.51953-1.0117-0.4375-1.3359-0.51172-0.98828-0.36328-1.2266-0.57031-2.0156-0.8125-1.2305-0.39844-0.98047-0.40625-1.5391-0.59766-0.94531-0.32422-3.043-1.2188-1.168-0.33594-1.625-0.58594-1.2305-0.48047-1.707-0.60547-1.3711-0.58203-2.0156-0.89844-1.0742-0.54688-1.4727-0.65625-1.457-0.72656-2.2148-1.1016-1.4336-0.76172-1.1992-0.72656-1.418-0.92578-2.9648-2.0547-2.0391-1.5625-1.6133-1.3242-1.1328-1.0273-1.5859-1.5508-0.71875-0.77344-1.0898-1.0039-0.72656-0.76562-1.0156-1.2188-0.89062-0.88672-0.6875-0.75781-1.7266-1.6953-1.6172-1.6445-1.2266-1.1602-1.1484-1.0781-1.4766-1.5117-0.83203-0.69141-1.0625-1.0273-1.5352-1.4297-0.82422-0.82422-1.1016-0.96484-0.81641-0.79297-2.0781-1.7695-1.1016-0.80859-1.0703-1.1367-1.668-1.5234-0.99609-0.73438-1.0859-0.99609-1.0117-0.60156-1.7656-1.4219-0.98828-0.85938-1.3828-1.1016-1.2773-0.87891-1.5938-1.1875-2.8164-2.0859-1.1523-0.90234-1.1523-0.83203-1.0742-0.67578-1.7617-1.1797-1.1523-0.85547-1.3047-0.98438-0.85938-0.57422-1.1953-0.74609-1.1133-0.79297-1.5508-0.84375-0.90625-0.68359-1.8281-1.1523-1.2109-0.72656-1.4141-0.97266-1.082-0.67578-1.625-0.94141-1.168-0.76172-1.5898-1.0117-1.5117-0.90234-1.2891-0.82031-0.875-0.53125-0.88672-0.47266-1.4492-0.95312-1.0156-0.5625-1.2734-0.77734-0.92578-0.53906-1.2656-0.80078-1.1992-0.65625-1.5312-0.96484-3.4922-1.9609-0.97266-0.6875-1.2305-0.66406-0.98047-0.60938-1.6836-0.88672-1.2148-0.80469-1.4531-0.87109-1.3516-0.83203-1.2031-0.71484-0.89453-0.57031-2.8359-1.918-1.7969-1.0078-1.3633-0.71094-1.082-0.61328-1.0586-0.53516-1.1367-0.64062-1.4023-0.71094-1.5586-0.92969-0.9375-0.41797-2.793-1.5117-1.2578-0.72656-1.125-0.75-1.7266-0.96484-1.1094-0.71484-1.5156-0.81641-1.3086-0.92969-1.4609-0.95312-1.168-0.82812-1.1836-0.80859-1.5469-1.0781-1.5586-0.87891-1.0117-0.77734-1.207-0.80078-1.2461-0.72656-1.082-0.6875-0.88672-0.54297-1.5703-1.1953-1.0234-0.5-2.168-1.3711-0.99609-0.79688-1.9414-1.5938-1.2812-1.3125-1-0.93359-1.3008-1.3711-0.89453-1.1406-1.0742-1.2344-0.85938-1.3594-0.53516-1.375-0.60938-1.1406 0.10547-1.2109 0.53125-1.0703-0.375-0.97656-0.88672-1.1484-0.63672-0.91797 0.046875-1.3906-0.91406-1.3516-0.97266-0.97266-1.7695-2.0117-2.0312-2.4531-0.69922-0.98438-0.54297-1.0117-0.52344-0.87109-0.625-1.0156-0.64062-1.0859-0.51172-0.99219-1-1.957-0.51953-1.375-0.92578-2.2734-0.28516-1.1641-0.44922-1.0195-0.55859-1.7617-0.65625-1.8164-0.55078-1.6914-0.37109-1.082-0.097656-1.0273 0.32813-1.9648 1.4453-1.4648 0.19922-1.8242-0.38672-2.0156-1.3125-3.8945-0.15625-1.2773-0.15625-1.8398 0.64453-0.94141-0.03125-1.832 0.6875-1.4727 0.64062-1.2266 0.14453-1.9844-0.26953-2.1289 0.0625-1.4297-0.23438-1.7969-0.074218-1.7383 0.26172-1.7656 0.37891-1.1875-0.039063-2.5391-0.20703-1.0352-0.24219-1.1367-0.43359-0.90234-0.55859-1.1289-0.41406-0.95703-0.25781-1.1953 0.8125-0.90234 0.74219-1.1172 0.80469-1.0391 1.5273-1.1562 1.1602-1.0977 0.92969-1.2266 0.73828-1.207 1.9492-2.4922 0.77344-1.082 0.44141-1.3398 0.15234-1.2109 0.72656-1.3203 0.61719-1.0117 0.26953-1.3359 0.10156-1.2656 0.21094-1.3047-0.16406-1.1055 1.8008-0.35156 1.0625-0.39844 1.2305-0.19141 1.1055 0.28516 0.70703 0.91016 1.6367 0.5 1.6836-0.53516 1.4141-1.0781 1.2148-1.3242 0.65234-1.0586 0.65625-1.1758 0.46484-1.1992 0.52344-1.9492-0.19531-1.0664 1.0547-0.41016 1.2305-0.98438 0.86328-1.7969 0.32812-2.1602 0.46484-1.1016 0.60938-1.5703-0.17578-1.1602-0.097656-1.6016-0.41406-1.0312-0.085937-1.1211 0.63672-1.0391 0.72656-0.87891 0.64062-0.78516 1.0195-0.35156 0.96484-0.30469 1.1875-0.03125 0.76562-0.88672 1.3828-0.19141 0.66016 0.96875 1.0898 0.33984 1.6289 1.3164 1.082 0.80859 0.36328 0.96094 1.0625 0.625 1.1914 1.6562 0.77344 1.1719 1.7031 2.7422 1.4062 0.5625 0.48438 0.92188 0.066406 1.2109 0.39844 0.98828 1.1055 1.0117 1.1602 0.97266 1.4688 1.0508 1.1523 0.33984 2.332 1.7422 1.1562 0.70312 0.98828 0.29688 1.5469-0.0625 1.3008-0.45312 0.80469-0.69922 0.13672 1.1016 1.5469 0.84375 1.7305 0.76172 0.70312 0.86328 1.1953 0.082031 1.7617-0.50391 1.1992-0.48438 1.1133-0.23047 1.0156 0.15234 0.09375 1.2266 0.69141 0.86328 0.99609 0.20703 1.6211 0.042968 1.1094-0.03125 1.8945-0.125 1.2891 0.70703 1.5352 0.64453 0.29688 0.97656 1.0781 0.55078 1.5938-0.47266 1.2461-0.18359 1.0859 0.85938 1.1445 0.27734 0.98828 0.19531 1.1445 0.003906 1.4375-0.089844h1.293l1.1523-0.14062 1.5195-0.51953 1.0664-0.42969 1.3203-0.61719 2.0898-0.95703 1.1406-0.37891 1.5312-0.60547 0.97266-0.50781 1.8867-1.2344 1.3828-1.0234 0.80859-0.64844 1.0039-0.59766 1.1758-1.0273 1.6289-1.1992 0.76172-0.67578 0.90234-0.96094 0.85938-1.0781 0.76172-0.66016 1.7344-1.9766 0.95703-1.2227 0.71875-1.2148 0.54688-0.99219 0.51172-1.1094 0.62109-1.0156 0.60547-1.0195 0.30859-1 0.46094-1.7266 0.57031-2.043 0.35938-0.98438 0.80859-1.5586 0.57031-1.3242 0.5625-1 0.70312-1.1406 0.87891-1.2539 0.75781-1.0039 0.92969-1.6836 3.8516-7.3008 0.64844-1.9062 0.47266-2.1797 0.21484-1.5391 0.26172-0.97656 0.48438-1.1875 0.29297-1.1562 0.125-1.3008 0.23438-1.043 0.17188-1.1445 0.16406-1.2852 0.27344-1.3516 0.09375-1.082 0.042969-1.4766 0.10938-1.2656 0.097656-1.5156 0.11328-2.2109 0.11719-1.1602 0.33594-1.8164 0.17188-1.5547 0.070313-1.8867 0.023437-1.5391-0.007812-1.1875 0.15234-1.0195 0.12891-1.7383 0.039062-1.0312-0.0625-1.5977 0.17188-1.3711 0.046875-1.1523-0.10547-1.1602 0.035157-1.5586-0.23438-1.0078-0.0625-2.0938-0.078125-1.5273-0.19531-1.168-0.074219-1.375-0.15625-1.3086-0.16016-1.082-0.30469-1.0703-0.47656-1.8711-0.31641-1.4375-0.66797-1.3633-0.66797-1.7031-0.60156-1.4883-0.48047-1.3672-0.64453-1.3438-0.32812-0.98828-0.25391-1.1797-0.33984-1.1719-0.31641-1.0391-0.36328-1.7148-0.31641-1.7344-0.17969-1.1602-0.65234-1.2852-0.37891-1.1289-0.45312-1.0352-0.32422-1.7852-0.34375-1.0078-0.28906-1.043-0.39062-1.207-0.87891-1.0977-0.50391-1.0234-0.375-1.0234-0.31641-1.3164-0.63672-1.1523-0.40625-1.4922-0.60938-1.3164-0.33984-1.3359-0.53906-0.96875 1.6484-1.1055 1-0.61328 0.93359-0.45312 1.3359-1.1445 1.418-2.3398 1.5391-1.6055 1.207-0.99219 7.7539-5.9062 6.7383-5.4141 1.2617-0.98438 0.96875-1.3125 0.99609-1.5195 0.22656-4.668 1.2344-0.42578 1.3008-0.53516 1.6094-0.93359 0.69922-1.0508 0.51562-0.98047 0.79297-0.91016 0.050781-1.3555 0.37109-0.98828 1.1055 0.085938" fill="none" stroke="#fff" stroke-linecap="round" stroke-linejoin="round" stroke-miterlimit="10"/>
<path d="m155.45 96.148c0 3.5898-2.9102 6.5-6.5 6.5s-6.5-2.9102-6.5-6.5c0-3.5898 2.9102-6.5 6.5-6.5s6.5 2.9102 6.5 6.5" fill="#28c028" fill-rule="evenodd" stroke="#000" stroke-linecap="round" stroke-linejoin="round" stroke-miterlimit="10"/>
<path d="m30.043 84.789 3.2344-0.3125c0.19531 1.0859 0.59375 1.8828 1.1875 2.3906 0.59375 0.51172 1.3945 0.76562 2.4062 0.76562 1.0703 0 1.8789-0.22266 2.4219-0.67188 0.53906-0.45703 0.8125-0.98828 0.8125-1.5938 0-0.39453-0.11719-0.72656-0.34375-1-0.23047-0.26953-0.625-0.50391-1.1875-0.70312-0.39844-0.13281-1.2891-0.375-2.6719-0.71875-1.7812-0.44531-3.0312-0.99219-3.75-1.6406-1.0117-0.90625-1.5156-2.0078-1.5156-3.3125 0-0.83203 0.23828-1.6133 0.71875-2.3438 0.47656-0.72656 1.1602-1.2852 2.0469-1.6719 0.89453-0.38281 1.9766-0.57812 3.25-0.57812 2.0625 0 3.6133 0.45312 4.6562 1.3594 1.0508 0.90625 1.6016 2.1172 1.6562 3.625l-3.3281 0.15625c-0.14844-0.84375-0.45312-1.4531-0.92188-1.8281-0.46094-0.375-1.1562-0.5625-2.0938-0.5625-0.96875 0-1.7305 0.20312-2.2812 0.60938-0.34375 0.25-0.51562 0.58984-0.51562 1.0156 0 0.38672 0.16016 0.71875 0.48438 1 0.42578 0.35547 1.4453 0.72656 3.0625 1.1094 1.6133 0.375 2.8047 0.76562 3.5781 1.1719 0.78125 0.40625 1.3906 0.96484 1.8281 1.6719 0.4375 0.71094 0.65625 1.5859 0.65625 2.625 0 0.94922-0.26562 1.8359-0.79688 2.6562-0.52344 0.82422-1.2617 1.4375-2.2188 1.8438-0.96094 0.39453-2.1523 0.59375-3.5781 0.59375-2.0859 0-3.6836-0.47656-4.7969-1.4375-1.1172-0.96875-1.7812-2.375-2-4.2188zm16.188 5.3594v-16.469h12.203v2.7969h-8.875v3.6406h8.2656v2.7812h-8.2656v4.4688h9.2031v2.7812zm25.875-6.0469 3.2344 1.0156c-0.5 1.793-1.3281 3.125-2.4844 4-1.1484 0.875-2.6016 1.3125-4.3594 1.3125-2.1875 0-3.9844-0.74219-5.3906-2.2344-1.4062-1.5-2.1094-3.5469-2.1094-6.1406 0-2.7383 0.70312-4.8633 2.1094-6.375 1.4141-1.5195 3.2812-2.2812 5.5938-2.2812 2.0078 0 3.6445 0.60156 4.9062 1.7969 0.75 0.69922 1.3125 1.7109 1.6875 3.0312l-3.2969 0.78125c-0.19922-0.85156-0.60547-1.5234-1.2188-2.0156-0.61719-0.5-1.3672-0.75-2.25-0.75-1.2188 0-2.2109 0.4375-2.9688 1.3125-0.76172 0.875-1.1406 2.2969-1.1406 4.2656 0 2.0742 0.375 3.5547 1.125 4.4375 0.75 0.88672 1.7227 1.3281 2.9219 1.3281 0.88281 0 1.6445-0.28125 2.2812-0.84375 0.63281-0.5625 1.0859-1.4414 1.3594-2.6406zm6.0938 6.0469v-16.469h3.3281v6.4844h6.5v-6.4844h3.3281v16.469h-3.3281v-7.2031h-6.5v7.2031zm16.578-16.469h3.3125v8.9219c0 1.418 0.039062 2.3359 0.125 2.75 0.14453 0.67969 0.48438 1.2188 1.0156 1.625 0.53906 0.40625 1.2734 0.60938 2.2031 0.60938 0.9375 0 1.6445-0.19141 2.125-0.57812 0.47656-0.38281 0.76562-0.85938 0.85938-1.4219 0.10156-0.5625 0.15625-1.4922 0.15625-2.7969v-9.1094h3.3281v8.6562c0 1.9688-0.09375 3.3672-0.28125 4.1875-0.17969 0.8125-0.50781 1.5-0.98438 2.0625-0.48047 0.5625-1.125 1.0117-1.9375 1.3438-0.8125 0.33203-1.8711 0.5-3.1719 0.5-1.5742 0-2.7656-0.18359-3.5781-0.54688-0.8125-0.36328-1.4531-0.83203-1.9219-1.4062-0.46875-0.58203-0.77734-1.1914-0.92188-1.8281-0.21875-0.94531-0.32812-2.3438-0.32812-4.1875zm16.641 16.469v-16.469h7c1.7578 0 3.0352 0.15234 3.8281 0.45312 0.80078 0.29297 1.4414 0.82031 1.9219 1.5781 0.47656 0.75 0.71875 1.6172 0.71875 2.5938 0 1.2305-0.36719 2.25-1.0938 3.0625-0.73047 0.80469-1.8203 1.3086-3.2656 1.5156 0.71875 0.41797 1.3125 0.88281 1.7812 1.3906 0.46875 0.5 1.0977 1.3867 1.8906 2.6562l2.0156 3.2188h-3.9688l-2.4062-3.5781c-0.85547-1.2812-1.4375-2.0859-1.75-2.4219-0.3125-0.33203-0.64844-0.5625-1-0.6875-0.35547-0.125-0.91406-0.1875-1.6719-0.1875h-0.67188v6.875zm3.3281-9.5h2.4531c1.5938 0 2.5859-0.066407 2.9844-0.20312 0.39453-0.13281 0.70312-0.36328 0.92188-0.6875 0.22656-0.33203 0.34375-0.75 0.34375-1.25 0-0.55078-0.14844-0.99219-0.4375-1.3281-0.29297-0.34375-0.71094-0.5625-1.25-0.65625-0.27344-0.03125-1.0781-0.046875-2.4219-0.046875h-2.5938zm28.109 9.5h-3.6094l-1.4375-3.7344h-6.5781l-1.3594 3.7344h-3.5312l6.4062-16.469h3.5156zm-6.1094-6.5156-2.2812-6.1094-2.2188 6.1094zm0 0" fill="none" stroke="#fff" stroke-linecap="round" stroke-linejoin="round" stroke-miterlimit="10" stroke-width="2"/>
<path d="m30.043 84.789 3.2344-0.3125c0.19531 1.0859 0.59375 1.8828 1.1875 2.3906 0.59375 0.51172 1.3945 0.76562 2.4062 0.76562 1.0703 0 1.8789-0.22266 2.4219-0.67188 0.53906-0.45703 0.8125-0.98828 0.8125-1.5938 0-0.39453-0.11719-0.72656-0.34375-1-0.23047-0.26953-0.625-0.50391-1.1875-0.70312-0.39844-0.13281-1.2891-0.375-2.6719-0.71875-1.7812-0.44531-3.0312-0.99219-3.75-1.6406-1.0117-0.90625-1.5156-2.0078-1.5156-3.3125 0-0.83203 0.23828-1.6133 0.71875-2.3438 0.47656-0.72656 1.1602-1.2852 2.0469-1.6719 0.89453-0.38281 1.9766-0.57812 3.25-0.57812 2.0625 0 3.6133 0.45312 4.6562 1.3594 1.0508 0.90625 1.6016 2.1172 1.6562 3.625l-3.3281 0.15625c-0.14844-0.84375-0.45312-1.4531-0.92188-1.8281-0.46094-0.375-1.1562-0.5625-2.0938-0.5625-0.96875 0-1.7305 0.20312-2.2812 0.60938-0.34375 0.25-0.51562 0.58984-0.51562 1.0156 0 0.38672 0.16016 0.71875 0.48438 1 0.42578 0.35547 1.4453 0.72656 3.0625 1.1094 1.6133 0.375 2.8047 0.76562 3.5781 1.1719 0.78125 0.40625 1.3906 0.96484 1.8281 1.6719 0.4375 0.71094 0.65625 1.5859 0.65625 2.625 0 0.94922-0.26562 1.8359-0.79688 2.6562-0.52344 0.82422-1.2617 1.4375-2.2188 1.8438-0.96094 0.39453-2.1523 0.59375-3.5781 0.59375-2.0859 0-3.6836-0.47656-4.7969-1.4375-1.1172-0.96875-1.7812-2.375-2-4.2188zm16.188 5.3594v-16.469h12.203v2.7969h-8.875v3.6406h8.2656v2.7812h-8.2656v4.4688h9.2031v2.7812zm25.875-6.0469 3.2344 1.0156c-0.5 1.793-1.3281 3.125-2.4844 4-1.1484 0.875-2.6016 1.3125-4.3594 1.3125-2.1875 0-3.9844-0.74219-5.3906-2.2344-1.4062-1.5-2.1094-3.5469-2.1094-6.1406 0-2.7383 0.70312-4.8633 2.1094-6.375 1.4141-1.5195 3.2812-2.2812 5.5938-2.2812 2.0078 0 3.6445 0.60156 4.9062 1.7969 0.75 0.69922 1.3125 1.7109 1.6875 3.0312l-3.2969 0.78125c-0.19922-0.85156-0.60547-1.5234-1.2188-2.0156-0.61719-0.5-1.3672-0.75-2.25-0.75-1.2188 0-2.2109 0.4375-2.9688 1.3125-0.76172 0.875-1.1406 2.2969-1.1406 4.2656 0 2.0742 0.375 3.5547 1.125 4.4375 0.75 0.88672 1.7227 1.3281 2.9219 1.3281 0.88281 0 1.6445-0.28125 2.2812-0.84375 0.63281-0.5625 1.0859-1.4414 1.3594-2.6406zm6.0938 6.0469v-16.469h3.3281v6.4844h6.5v-6.4844h3.3281v16.469h-3.3281v-7.2031h-6.5v7.2031zm16.578-16.469h3.3125v8.9219c0 1.418 0.039062 2.3359 0.125 2.75 0.14453 0.67969 0.48438 1.2188 1.0156 1.625 0.53906 0.40625 1.2734 0.60938 2.2031 0.60938 0.9375 0 1.6445-0.19141 2.125-0.57812 0.47656-0.38281 0.76562-0.85938 0.85938-1.4219 0.10156-0.5625 0.15625-1.4922 0.15625-2.7969v-9.1094h3.3281v8.6562c0 1.9688-0.09375 3.3672-0.28125 4.1875-0.17969 0.8125-0.50781 1.5-0.98438 2.0625-0.48047 0.5625-1.125 1.0117-1.9375 1.3438-0.8125 0.33203-1.8711 0.5-3.1719 0.5-1.5742 0-2.7656-0.18359-3.5781-0.54688-0.8125-0.36328-1.4531-0.83203-1.9219-1.4062-0.46875-0.58203-0.77734-1.1914-0.92188-1.8281-0.21875-0.94531-0.32812-2.3438-0.32812-4.1875zm16.641 16.469v-16.469h7c1.7578 0 3.0352 0.15234 3.8281 0.45312 0.80078 0.29297 1.4414 0.82031 1.9219 1.5781 0.47656 0.75 0.71875 1.6172 0.71875 2.5938 0 1.2305-0.36719 2.25-1.0938 3.0625-0.73047 0.80469-1.8203 1.3086-3.2656 1.5156 0.71875 0.41797 1.3125 0.88281 1.7812 1.3906 0.46875 0.5 1.0977 1.3867 1.8906 2.6562l2.0156 3.2188h-3.9688l-2.4062-3.5781c-0.85547-1.2812-1.4375-2.0859-1.75-2.4219-0.3125-0.33203-0.64844-0.5625-1-0.6875-0.35547-0.125-0.91406-0.1875-1.6719-0.1875h-0.67188v6.875zm3.3281-9.5h2.4531c1.5938 0 2.5859-0.066407 2.9844-0.20312 0.39453-0.13281 0.70312-0.36328 0.92188-0.6875 0.22656-0.33203 0.34375-0.75 0.34375-1.25 0-0.55078-0.14844-0.99219-0.4375-1.3281-0.29297-0.34375-0.71094-0.5625-1.25-0.65625-0.27344-0.03125-1.0781-0.046875-2.4219-0.046875h-2.5938zm28.109 9.5h-3.6094l-1.4375-3.7344h-6.5781l-1.3594 3.7344h-3.5312l6.4062-16.469h3.5156zm-6.1094-6.5156-2.2812-6.1094-2.2188 6.1094z" fill-rule="evenodd"/>
</g>
</svg>
