<?xml version="1.0" encoding="UTF-8"?>
<svg width="380pt" height="500pt" version="1.1" viewBox="0 0 380 500" xmlns="http://www.w3.org/2000/svg">
<g id="a">
<rect width="380" height="500" fill="none"/>
<path d="m227.27 498.07-0.027343-0.015625-0.65625-0.79688-0.69531-0.78125-1.0195-0.089843-1.0781 0.19922-0.92969 0.42578-1.0391-0.09375-1.043-0.23047-0.97656 0.39062-0.75391 0.6875-0.64453 0.82422-1.0078 0.17188-1.0234-0.066407-1.0469-0.3125-0.73828-0.71094-1.332-0.41406-0.48828-0.95312 0.085938-1.0352-0.80078-0.94531-0.69922-1.0312-0.73828-0.8125-0.85938-0.51172-0.96484-0.28516-0.98828 0.14844-0.86328 0.55078-1.0703 0.26562-0.96484 0.37109-1.0977-0.085937-1.1406-0.14062-0.5625-0.88281-1.0352-0.28125-0.69141-0.72656-1.0156-0.32812-1.0664-0.1875-1.0547-0.13281-0.87109-0.77734-0.94531-0.39844-0.83594-0.63672-0.96875-0.3125-1.0352-0.35547-0.80859-0.73047-0.94922-0.46875-0.73828-0.77344-0.89062-0.66016-0.32031-1.0234-1.0391 0.1875-0.60938-0.875-0.17578-0.99219-0.90234-0.51562-0.98438-0.25-0.85547-0.51953-0.76172-0.69922-0.58984-0.82422-0.79297-0.65234-0.91016 0.49219-0.55469-0.87109-0.46094-0.97656-0.0625-1.0586 0.007812-1.0508 0.27734-1.0859 0.21094-1.0039-0.1875-0.99219 0.089844-1.0117-0.87109-0.51562-0.79688-0.72266-0.66016-0.82812-0.85156-0.57031-0.78125-0.72266-0.58203-0.82031-0.83984-0.74609-0.75391-0.80859-0.11328-1.0547-0.23438-1.0586-0.20703-1.1602-1.043-0.54688-1.0508-0.57031-0.042969-1.1016-0.79688-0.67969-0.60156-0.98438-1.0195-0.44531 0.43359-0.96094 0.91797-0.55078 0.84766-0.57031 0.75-0.75781 0.33203-1.1016 0.67188-1.4375 0.96094-0.52734 0.33984-1.4883 0.38281-1.0469-0.074219-1.1406 0.10156-1.0039-0.050781-1.0352 0.09375-1.0703 0.058593-1.3242-0.125-1.2656 0.86719-0.64062 0.73438-0.72656 1.293-0.46094 0.83594-0.875 0.38672-1.0117-0.17578-1.0938 0.73828-0.82422 0.97656-0.22656 0.76562-0.76953 0.058594-1.0234 0.92188-0.67188 1.2891 0.13281 1.0898-0.28516 0.67578-0.76953 0.63281-0.8125-0.03125-1.3086-0.52734-0.98828-0.87891-0.52344-0.39453-1.1094 0.625-1.0742 0.83203-0.74609-0.16016-1.3008-0.21875-1.1172-0.76172-0.82422-0.51953-0.92188-1.0117-0.52734-1.0117-0.125-1.0078-0.41797-1.082-0.39844-0.62891 0.87109-0.93359 0.47266-1 0.097656-1.0859 0.64453-0.67578 1.0469-1.1406-0.17969-0.9375-0.5625-0.76562-0.66406-0.84766-0.55859-1.0039-0.36719-0.97656-0.45703-0.82031-0.90234-0.83203-0.88281-1.0625 0.082031-1.0781-0.47656-0.19531-1.1602-0.79297-0.83594 0.30078-1.2305-0.36328-1.125 0.089844-1.5078-0.57031-1.0039-0.097656-1.1094-0.73828-0.71875-0.99219 0.21484-1.1055-0.72266-0.94531-1.0469-0.52344-0.87109-0.84766-0.65234-0.88672-0.70703-1.0273 0.023437-1.168-0.51562-1.2109-0.5-1.1406-0.41406-1.168-0.55078-0.79688-0.61719-1.168-0.35547-0.91797-0.79688-0.77734-0.70703 0.30469-1.1602 0.58594-0.82812-0.94922-0.38281-0.18359-1.207-0.39062-1.0703-0.67969-1.043-0.76562-0.67188-1.125 0.33594-1.0469 0.125-1.0391-0.47266 0.30469-0.98438-0.63672-0.85547-0.91016-0.55859-1.0039-0.42188 0.42188-1.082 0.44922-1.0039 1.3047-0.13281 0.66016-0.97656 0.71484-0.73828 0.3125-1.1602 0.37109-1.2539 0.39453-1.1641-0.46484-0.90234-0.44531-1.0977 0.28125-0.99609-0.125-1.0859 0.28125-1.082 0.29688-0.96484-0.46484-1.043 0.21094-1.1523 0.71875-0.71484 0.48047-0.9375 0.67969-0.73438 0.042969-1.0156-0.0625-1.0156-0.5-1.1992-1.1055-0.23047-1.0625 0.51562-0.98438 0.39844-1.1016-0.91406 0.019531-1.1797-0.41016-1.1641-1.1133-1.1211-0.71094-0.86328-0.5625-0.92969-0.94531-0.40234-0.37109-0.95312-0.40625-1.5078-0.23047-1.0508 0.39453-0.97266 0.41016-1.0078-0.60547-0.83984 0.39844-1.0117-0.51953-0.91406-0.71094-0.70312-0.84766-0.64453-0.96875-0.65625-0.74609-0.88672-0.23828-1.1172-0.19141-1.0078-0.96094-0.41797-0.77344 0.86328-0.75781 0.67578-1.0586 0.24609-0.97266-0.66797-0.87109-0.52734-1.082 0.12891-1.0312-0.32422-0.625-0.79297-0.98828 0.26953-0.98047-0.77344-0.30859-1.0977-1.0039-0.60547-0.82031-1.3086-0.79688-0.71875-0.99609-0.69922-1.0547-0.0625-0.99219 0.31641-1.0117-0.35547-1.0547 0.46094-1.0195 0.058594-0.97266 0.29688-0.78516 0.64844-1.082 0.007813-0.71094-0.8125-0.76562-0.65625-0.66797 0.78516-0.77734 0.63672-0.89062 0.47656-0.70703 0.82812-0.88672 0.46875-0.80859 0.67578-1.0391 0.14453-0.76953 0.64453-0.92969 0.45312-1.0586-0.007812-1.0312 0.25-0.83203-0.61328-0.55859-0.83594-0.85547-0.62109-1.0195-0.042969-1.0664 0.085938-0.98047-0.24219-0.98828-0.28516-0.58984-0.89453-0.82422-0.89062-0.69531-0.80859-0.035156-1.1875-0.96094 0.61719-1.4922-0.47656-1.0977-0.23828-0.91016-0.48047-0.94141-0.58594 0.19531-1.0938 0.75391-0.75781-0.5625-0.96875-0.078125-1.0547-0.46094-1.0117-0.65234-0.83203-0.28516-0.97656-0.60547-0.79297-0.57812-0.88672-0.4375-0.92188-1.0664-0.20312-0.91016 0.62891-1.0195-0.37891-0.42188-1.0664 0.10547-1.0156 0.050782-1.0039 0.058593-1.0039-0.39062-1.0352-0.62109-1.0078-0.57812-0.93359-0.57422-0.96484-0.49609-1-0.41797-1.4102-0.81641-0.80859-1.082-0.95312-0.62109-0.91406 0.82422-0.625 0.57422-0.85938 0.41406-1.1133 0.37891-0.98047 0.99609-0.55859 1.082-0.47266 0.19141-0.99219 0.25-1-0.019532-1.0938-0.79688-0.70703-0.61328-1.1172-0.5-0.89844 0.066406-1.1445v-1.0469l0.09375-1.1992-0.13281-1.0117-0.39453-1.0703-0.61328-1.0781-0.82422-0.57031-0.67188-0.88672-0.99609-0.44141-1.2852-0.70312-1.2109-0.41406-1.1523-0.63672-0.75781-0.83984-0.78516-0.79688-0.64062-0.96094-1-0.96094-0.19531-1.1875 0.085938-1.2695-0.70703-0.87109-0.30078-0.99219 0.18359-1.1445 0.48828-0.95703-0.59375-0.99219-0.14062-1.2578 0.48828-0.88281 0.82422-0.625 0.83594-0.78125 0.52734-1.2578-0.074218-1.0586-0.6875-0.84766-0.83203-0.75391-0.97266-0.54297-1.2188-0.36719-0.375-1.1406-0.86719-1.3398-0.070313-1.4922 0.29297-1.1211 0.83594-1.1406 0.87891-0.73828 0.15625-1.1641 0.40625-1.2109 0.32422-1.0586 0.71484-0.98828 0.78516-0.69141 0.92969-0.78125 0.72656-0.6875 0.95312 0.4375 1.0078-0.14844 1.0703-0.011719 0.66406-0.94141 0.37109-1.0469-0.125-1.0195-0.63281-0.91016-0.85938-0.69922-0.91406-0.40625-0.55469-0.91016-0.25391-1-0.66406-0.84766 0.23828-0.99219 0.75781-0.68359 0.87109-1.0117 0.35156-0.98828-0.10156-1.0547-0.074219-1.0234-0.69141-0.8125-0.03125-1.0938-0.16406-1.0078-0.16797-1.2344-0.17969-1.0312-0.49609-0.94531 0.60938-0.89453-0.070312-1.0859-0.21484-1.0234 0.050781-1.1914-0.27344-0.96094-0.82422-0.63672-0.72656-0.78516 0.089843-1.0234-0.027343-1.0312-0.09375-1.3086-0.22266-1.1758 0.3125-0.99219 0.035157-1.0391-0.375-0.9375 0.066406-1.0156-0.41406-0.94141-0.35547-0.96094-0.042969-1.0312-0.03125-1.0586-0.09375-1.0547 0.29297-1.0117 0.46875-0.91016 0.50781-0.96094 0.87891-0.57422-0.12891-1.0898-0.42578-1.2461 0.48828-1.0469-0.25391-1.0195-0.61328-0.82422-0.26172-1.0391 0.03125-1.0234 0.35547-1.0625-0.019532-1.0625-0.007812-1.1055-0.39062-0.93359 0.55469-0.83594-0.47266-0.91406 1.1445-0.68359 0.85938-0.60547 0.054688-1.0195 0.019531-1.0391-0.35547-1.0195-0.26953-0.98438 0.26953-1.0312 0.54297-0.91797-0.10938-0.99609-0.66016-0.82812-0.84375-0.54688-0.94141-0.41406-1-0.35938-0.95312-0.39062-0.67188 0.76172-0.39844 1.1055-0.96484 0.33203-0.72656-0.73828-1.0391 0.074219-1.1094-0.28906-0.46484-0.91016-0.43359-1.0117-0.84375-0.65234-0.75781-0.67578-0.8125-0.80078-0.41016-1.1055 0.16406-1.0977-0.52344-0.85547-0.87109-0.5-0.58984-0.92578-0.71484-0.76172-0.44531-0.95703-0.23047-1.0625 0.22656-0.98438 0.54297-0.97266 0.90625-0.43359 1.1797-0.15234 1.1094-0.21875 1.0195 0.1875 0.71875-0.76953 0.96484-0.625 0.86719-0.60938 0.80859-1.1953 0.87891-0.73438 1.0742-0.62891 1.0469 0.12109 0.88672 0.54297-0.41016-1.1211-0.22266-1.0039 1.3398-0.70312 1.1367-0.0625 0.78125 0.73828 0.94141 0.33984 0.79297-0.67578 0.64844-0.76953-0.17969-1.0703-0.61328-0.87109-0.79297-0.76562 0.35547-0.94141-0.55078-0.83594-0.60156-0.92188-0.47266-1.0586-0.42578-1.0039 0.80859-0.65234 0.18359-0.98828 0.26172-1.0117 0.39062-0.99219-0.28125-1.0391-0.32422-0.98047 0.60938-0.85156 1.0234-0.29688 1.0117-0.16016-0.13672-1.0664-0.73438-0.79688 0.058594-1.0781-0.84766-0.55078-0.55469-0.84375 0.32812-1.0039 0.074219-1.0078-0.48828-0.91016 0.85156-0.54688 0.98047-0.41016 0.60938-1.0469 0.66016-0.80859 1.0195-0.67188 1.0312-0.41016 0.73828-0.71875 0.94922-0.37891 0.96875 0.50781 0.69141-0.78516v-1.0703l-0.3125-1.2383 0.097657-1.0664 0.31641-0.97266 1.0156-0.48438 0.89844-0.90625 0.32422-1.3477 0.74219-0.69531 0.50391-0.92969-0.15625-1.0195-0.80469-0.79297-0.37109-0.99219-0.85156-0.60156 0.33594-1.0234 0.125-1.4062 0.73828-0.70703 0.78125-0.86328-0.34766-0.94531-0.3125-1.1484 0.19922-1.0508 0.98438-0.25391 1.0547-0.078125 0.67578-1.0156 1.0312-0.17188 0.53906-0.89062 0.98047-0.36719 0.85547-0.64062 1.0117-0.21484 0.52734-0.92969 0.79688-0.73047 0.90234-0.75391 0.035157-1.3672 0.023437-1.0781 0.69141-0.77344 0.74609-0.71094 0.32031-0.97266-0.87891-0.79297-1.1055-0.26172-1.0078-0.10938-0.88672 0.52734-0.87891-0.49219-0.38672-0.96094-1.0664-0.32422-0.76172-0.85156-0.28125-1.0625-0.69141-0.76172-0.34766-0.94922 0.66406-0.98828 0.78516-0.75 1.0117-0.26953-0.73047-0.6875-0.62891-0.8125 0.46094-0.96094 0.375-1.0117-0.18359-1.0625 0.22656-1.0117 0.71094-0.90234 0.47266-1.2266 0.57422-0.92188 0.92969-0.55859 0.79297-0.9375 0.57812-0.82422-0.09375-1.1602-0.90234-0.75-1.0039-0.10547-0.27344-1.0312 0.39062-1.0117-0.45703-1.0469-0.19922-1.0625-0.57812-0.98047-1.1211-0.14062-1.0273-0.019531-0.58984-0.85156-1.0156-0.33203-1.0273-0.63281-0.070313-1-0.17969-0.99219 0.58984-0.86719 0.74609-0.71875 0.83203-0.64453 1.0312-0.082031 0.29297 0.99219 0.3125 1.0195 0.96875 0.35938 0.85547 0.69141 0.98828-0.16406 1.0117-0.48438 1.0117 0.0625 1.0391 0.17578 0.85156-0.62891 1.0469-0.15625 1.0078-0.14453 1.1289 0.10938 1.0039 0.14453 0.94531 0.34766 0.90234 0.45703 1.0078 0.20703 0.88281 0.48828 0.79297 0.71875 0.59766 0.84375 0.011719-1.0039 0.30859-1.1992 0.40625-1.0703 0.42969-1.1367-0.48047-1.1484-0.3125-1.0234-0.53516-0.875-0.75-0.76562-0.26172-1.0195-0.51562-0.95703-0.38281-1.0664-0.82031-0.76172 0.19531-1.3164-0.16406-1.043-0.066406-1.0039 0.76172-0.70703 0.76562-0.78125 0.074219-1.1016 0.52344-0.89062 0.16406-1.1562 0.085937-1.0195 1.0391-0.31641 0.97266-0.40625 1.0508-0.29297 0.91797 0.58984 0.96094 0.40625 1.0234-0.13281 0.97656-0.51562 0.71875-0.71875 0.45703-1.0234 0.76562-0.72266 0.76953-0.6875 0.82422-0.59766 0.46875-1.0078 0.76172-0.73828 0.90234-0.61328 0.97656-0.57422 1.0078-0.007813 0.58203-0.9375 0.83984-0.55078 1.3477 0.15234 1.0312-0.60156 0.85938-0.54297 0.74609-0.72266-0.003906-1.1758-0.44141-0.90234 0.16406-1.2266 0.54688-1.1641 0.67188-0.85156 1.6484-1.3164 1.2148-0.58203 1.1797-0.65625 1.082-0.26172 0.60547-1.1797 0.69531-0.92188 0.73828-0.71484 0.54297-0.89062 0.76562-0.92188 0.53906-0.89844 0.39453-0.9375-1.0703-0.21484-1.0039-0.14844 0.53516-0.98047 0.46875-0.94141 0.59766-1.0312 0.75-0.71094-0.023438-1.0117 0.73828-0.71875-0.15234-1.0195-0.125-1.0703-0.5625-0.9375 0.86328-0.62109 1.0625-0.27734 0.98047-0.32422 0.99609 0.054688 0.94141 0.66406 0.79688 0.60938 0.45312-0.91016 0.30859-0.98828 0.45312-0.94922-0.41016-1.0391-0.71094-0.92578 0.50781-1.0742 0.78125-0.74219 1.0703-0.32422 1.0938 0.26562 0.70703-0.71875 1.0586 0.24609 1 0.37891 0.23828-1.0469-0.046875-1.0781-0.97266-0.42969-0.87891-0.73438-0.875-0.90625-1.1094-0.51562-1.0586-0.085938-1.1328-0.054687-0.96094-0.39453-0.75-0.74219-0.94531-0.50391 0.32422-1.2148 0.92969-0.58594 0.99219-0.39062 0.91797-0.41406 0.75-0.69922-0.32422-0.94922 0.46094-1.0508 0.34375-0.94531-0.45312-1.043 0.55469-1.0352-0.23438-1.0703-0.019531-1.0234-0.70703-0.70703-0.91016-0.5625 0.37891-1.2969 0.63672-0.77734-0.34375-0.96484-1.1484 0.78906-1.2383 0.10156 0.33984-1.0234 0.90234-0.66406 0.082031-1.0117 12.852 3.793 1.8672 0.51562 1.3828 0.43359 3.2383 0.91016 3.0195 0.93359 11.82 3.5 5.582 1.6523 1.418 0.44531 1.6445 0.48828 2.625 0.83203 1.3906 0.45703 2.5 1.125 9.6562 2.8672 1.2891 0.34375 12.242 3.6719 1.5625 0.41406 3.3242 1.043 1.1641 0.30469 3.3047 1.043 5.3359 1.5742 16.895-6.9688 6.0703-2.5859 0.92969-0.44141 15.891-6.8906 10.516-4.6562 12.367-5.3398 7.582-3.3672 4.9609-2.1367 9.1289-3.9062 5.5742-2.4805 0.94531-0.34766-0.40234 1.0078 0.85547 0.55469 1.0234-0.53516-0.019531 1.1758-0.83594 0.66406 0.95703 0.40625 0.89062 0.53125-0.042968 1.0625-1.0312-0.015625-0.28516 1.0547 0.88672 0.52344-0.31641 1-0.65625 0.78906-0.76562 0.72656 0.57031 0.85547 0.5 0.90625-0.375 1.0156 0.45312 0.91797-0.96875-0.25391-0.80859 0.62109 0.99219 0.23438-0.62109 0.84766-0.50391 0.89453 1.0195 0.17969-0.29297 1.2344 0.89453 0.51953-0.50391 0.92188-0.17969 1 0.94531 0.31641-0.46875 0.90234-0.96484 0.34375 0.57031 0.92578 0.8125 0.73047 0.49219 0.87891 0.36719 0.94531-1.0312 0.28906-0.13281 1.0469 1.0156 0.074219-0.30859 1.1172 0.83203 0.65625 0.44531 0.99609-1.0156 0.41406-0.64062 0.88672-0.011719 1.0938 1.125 0.26562-1.0664 0.12109 0.10547 1.1055-0.27734 1.0156 0.31641 0.96094-1.043-0.019531 0.66406 0.77734 0.22266 1.0977-0.50781 0.9375-0.94531 0.56641-0.81641 0.60156 1.2656 0.35938-0.85156 0.64453 0.21094 1.0742 0.46094 0.95312-0.65234 0.89062-0.60938 0.91797-0.31641 1.0898-0.99219 0.20703 0.79688 0.73828-0.24219 1.0938-0.22266 1.0117-0.875 0.5 0.023438 1.0742 0.3125 1.0625-0.85547 0.74219 0.51562 0.90234-0.90625-0.5625-0.19141 1.0039 0.80078 0.71094 0.10547 1.0117-0.70703-0.81641 0.17969 1.1875-0.33984 1.0625-0.76172 0.67188 0.54297 0.83984-0.25 1.0039-0.41797 0.94141-0.97656 0.47266 0.66016 0.80859-0.40625 1.0664-0.4375-0.95312-0.95312 0.44141-0.38672 0.92969-0.58203-0.83203-0.19531 0.98438-0.18359 0.99219-0.23438 1.0195-0.14062 1.1055 0.039062 1.0273-0.71875 0.95703-0.38281 1.2422-0.070313 1.2383 0.39453 1.043-1-0.089844-1.0156-0.21875-0.30859 1.0898-1.3242 0.042968-0.82812 0.69922-1.0156 0.15625-0.30469 1.0703 1.0039 0.45703-0.33203 0.96484 0.41406 0.94141-0.97266 0.5625-1.0117-0.12109-0.99219 0.58203-0.73438-0.6875-1.1133 0.03125 0.23047-1.0117h-1.0352l-0.88672 0.48438-0.46484 0.96094-1.0391 0.27344-0.042969 1.0742-0.52344 0.87891 0.066406 1.0977 0.78906 0.85938 0.71875 0.81641 0.4375 0.97656 0.83594 0.81641 0.84375 0.5625 0.40234 0.94141 0.44922 0.96875 0.93359 0.38281 1.1289 0.066406 0.90625 0.46875 0.98047 0.33984 0.60938 0.8125 0.96875 0.45312 0.26172 1.0781-0.10547 1.0039-0.20703 1.0195-1.043-0.14453 0.37891 0.99219 0.94531 0.32422 1.0039-0.11328 1.0352-0.22656 0.94531 0.36328 0.55078 0.86328 0.92578 0.48828 1.0078 0.21875 0.96484 0.42578 0.32422 0.98438-0.34375 1.0234-0.96875 0.35547-0.92969 0.69922-0.23438 1.2422-0.26562 1.1133-0.085938 1-0.64453 1.1953-1.0234 0.52734-1.0078 0.38281-1.0156 0.17578-0.54688 0.86719-0.32031 0.94922-0.125 1.0391 0.45312 0.94531-0.21875 1.0273 0.57031 0.89062 0.375 0.94141 0.66406 0.75-0.32422 1.0039-0.10547 1.0391-0.65625 0.75781 0.66406 0.89453 0.77734 0.66797 0.39062 1.0938 0.76172 0.76953 1.0039 0.13281 0.10938 1.0625 0.82422 0.62109 0.52734 1.0117 1.0469 0.14844 1.0195 0.35938 0.88281 0.59375 0.93359 0.40234 0.92188 0.4375 0.23047 1.0039 0.85938 0.66406 0.53125 0.86719-0.066406 1.0039-0.45703 0.99609 0.9375 0.42188 0.16406 1.0469 0.097656 1.0117 0.57031 1.1094 0.76953 0.95703 0.53516 0.88281 0.80078 0.63281 0.8125 0.67969 1.0352 0.33984 0.21875 1.0273-1.0078 0.13672-1.0352 0.28516-0.67188 0.74609 0.4375 0.90625 0.35156 0.97266 0.054687 1.1562 0.32812 0.96484 0.92578 0.49609 0.86328 0.625 0.46094 1.0312-11.227 0.5-4.3789 0.019531-0.86719 0.57422-0.050781 1.0312-1.0898-0.011719-0.89844 0.53906-0.33984 0.94531 0.25 0.98828 0.62891 0.875-0.40625 1.0156-0.59766 0.80859-0.8125 0.58984-0.69922 0.71875-0.4375 0.98438-0.35938 0.97656-0.60547 0.85547 0.44531 0.94531 0.33203 1.0273 0.50781 0.91797 0.61328 0.87109 0.30859 0.99219 0.39453 1.0117 0.57812 0.90234-0.23438 0.99219-0.71875 0.73047-0.87109 0.53906-0.089844 1.0195-1.0586 0.37109-1.0195 0.37109-0.58594 0.95703-0.023438 1.0586-1.2656 0.4375-1.1836 0.21875-0.84375 0.73438-0.57812 0.84766-1.0391 0.28516-1.1016 0.070312-0.61328 0.82812-0.57422 1.2148-0.38281 0.96484-0.53516 1.0586-1.1211 0.53516-0.69141 0.73047-0.32031 1.1367-0.47266 0.91016-0.97656 0.55859-1.0195 0.14062-0.98438 0.25781-0.96094 0.48828 0.87891 0.73047 0.007812 1.082-0.20312 1.0742 0.12891 1-0.25781 1.0273 0.16797 1.1211-0.44531 0.92578-0.96094 0.61328-1.2305 0.29688-0.98828 0.17578-0.98828-0.24609-1.0664-0.26562-1.0898-0.13672-1.0547-0.19141-0.73828 0.72266-0.72656 0.79297-0.33594 1.0039-0.074219 1.0664 0.35156 0.97656 0.0625 1.0781-0.019532 1.0781-0.15234 1.0742-0.69141 0.78516-0.98438 0.3125-0.49219 0.87891-0.76953 0.95312-0.49219 0.87109 0.60938 0.93359-0.20312 1.0273 0.67188 0.84766 0.66797 1 0.96094 0.54688 0.32031 1.0117 0.69531 0.85156-0.29297 1.0898-1.332 1.5938-2.3398 0.40234-0.96484 0.44531-1.3789-0.20703-1.6914 0.14062-1.6836 0.41797-1.1523 0.64062-1.2031 0.86328-0.75391 0.70312-0.89062 0.46875-0.99219 0.71484-0.39844 3.418-0.25391 1.1172 0.11328 0.99609 0.16406 1.0117 0.53906 1.3438 0.76953 1.7773-1.125 4.9258-0.80469 0.70703 0.09375 1.2617-0.1875 1.0078 0.11719 0.99219 0.61719 0.81641 0.33203 0.97266 0.65625 0.8125 0.72266 0.69141 0.76172 0.69531 0.65234 0.83203 0.40234 0.93359 0.31641 1.0547 0.29297 0.96484 0.28516 0.96484 0.41016 0.92578 1.0039-0.21094 0.64062 0.875-0.39453 0.92188 0.5 0.88672 0.44141 0.96094 0.64062 0.76953 0.28906 0.99609 0.1875 1 0.63281 0.84766 0.36328 0.96094 0.77734-0.68359 0.23438 1.0469 0.92969-0.42188 1.0391 0.19922 0.9375 0.38672 0.82031 0.58594 0.44531 0.92188 0.78906 0.65625 0.96094 0.35938 0.62109 0.89844 0.82422 0.58984 0.87891 0.77344 0.70703 0.76172 0.63281 0.87891 1.1914 1.0547 0.62891 0.94531 0.65234 0.87891 0.78906 1.1562 0.40234 1.1719 0.96094 0.45703 0.78906 0.67578 0.60156 0.82031 0.23438 1.043 0.67188 0.99219 0.64062 0.85547-0.95703 0.31641-0.91016-0.48438-0.85156 0.65625-0.78906 0.69531-2.9844-0.64844-0.19531 2.0703-1.3164 1.3789-0.58984 1.2539-0.046875 1.5391-1.3711 1.0703-1.0547-0.82422-1.7891 2.1328-1.0547 1.9922-0.98438 2.1133-1.3672 0.375 1.2188 6.125 1.4688 1.2656-0.42188 2.6484-1.4727 1.0234-4.25-3.7578-0.62891 1.1484-0.93359 1.5156-0.95703 1.5352 0.89844 1.0703-0.81641 1.0234 0.23438 1.0898-0.65234 1.4375-0.77734 1.5547-0.65625 0.80469-1.0977 0.33594-1.0352-0.35938-1.0195-0.25391-0.44141-0.9375-1.0312-0.035156-0.79297-0.61328-0.99609-0.41797-0.90625-0.54297 0.14062-1.0156 1.0391-0.23828 0.58594-0.83594-0.40234-0.92969 0.64062 0.77734 0.56641 0.82812 0.67578 0.78125-0.089844 1.0547 0.94922-0.36719-0.55469-0.85156 0.39844-0.92578-0.23438-0.98828-0.82422-0.76953-0.92578-0.50391-1.0898-0.26562-0.98438 0.21094-0.64453 0.91406-1.0156 0.10547-1.1094-0.13672-1.0078-0.042969-1.0156-0.30078 0.11719 1.0039 0.74609 0.75391 1.0234 0.38281-0.67969 0.82422-1.1172-0.10156-0.60156-0.82031-0.49609-0.89062 0.47266-0.89062 0.011719-1.0898-0.51953-0.86328-0.69531-0.74609-1.0586-0.36719-0.75-0.73828-0.40234-0.98438-0.83984-0.60547-0.48047-0.96484-0.99609-0.60938-0.95703-0.40625-0.66016-0.80469-1.0898-0.23438-0.80078-0.75781-0.95703-0.80469-0.69141-0.78516 0.48828-0.89844 1-0.09375-0.42969-0.95312-1.1875-0.13672-0.77344 0.75781-1.0352 0.097656-0.94141-0.51953-0.12891-1-0.33594-0.95703-0.67578-0.80078-0.80078 0.69922-0.80078 0.73047-0.80469 0.65234-0.85547 0.55469-0.60938-0.80078-0.90625-0.4375-0.73828-0.77344-0.79297-0.82031-0.95312-0.42578 0.42969 0.96875-1.1367 0.14062 0.39844-0.94141-0.70703-0.82422 0.77734-0.65234-0.41016-0.94141-0.94531-0.52734-0.44922-0.9375-0.58594-0.97656 1.0195 0.60938 0.90625 0.44922-0.45312-0.97656-0.63281-0.88672 0.027344-1-0.86328-0.60156-1.043-0.1875-0.78906-0.67188 0.98828-0.48047-0.44141-0.90625-0.62109-0.80469-0.86328-0.57031-0.36328-0.95703-0.87109 0.57031-0.11719-1.0664-0.94922-0.40625-1.0508-0.15234-0.99609-0.10938-0.75 0.71875-1.0234-0.13281-0.55469 0.83594-0.82031 0.57422-0.89062 0.46875-1.0117-0.046875 0.85156 0.60156-0.34375 1.0195 1.0703 0.070312-0.042969 1.0391 1.0352-0.21484 0.98438 0.21094 1.0156-0.085937 0.3125 0.95703 0.79297 0.71094-0.10938 1.0898 0.70703 0.73828-1.0117-0.13672-1.0234-0.0625-0.625-0.82422-0.87109-0.57031-0.94922-0.71875-1.0391-0.40234-0.88672 0.52344-0.20703 0.99609 0.21875 0.99219-1.1289 0.17969-0.99609-0.12891 0.12109 1.0312-0.83594 0.58203-0.52734-0.91016-0.63672-0.80078-0.62109-0.80078-0.96875-0.46875-0.75-0.66797-0.24219-1.0078-0.92188-0.44531-1.0781 0.11328 0.32031 1.0742 0.71875 0.72656-0.042969 1.0859-0.55469-0.83984-0.51172-0.89844-0.78516-0.93359-0.87109 0.54297 0.15625 0.99219-0.98047 0.27734-0.52344 0.90625-0.91406-0.41406-0.60938-0.87109-0.625 0.79688-1.0078 0.19141-0.97266-0.29688 0.61719 0.78906 0.95703 0.32031-1.0234-0.03125-0.94531-0.41797-0.42188 0.99609 0.36719 0.96094 0.64062 0.78125 0.75 0.67578 1.0039 0.17969 0.76562 0.70703 0.85547 0.60938-0.99219-0.20312-0.82812 0.60156-0.78516-0.69141-1.0234-0.1875 0.82812 0.64844 0.92969 0.42188-0.32031 0.94922 0.71875 0.71094 1.0352-0.35938 0.89844-0.43359 0.97266-0.30859-0.12891-1.0156 0.76953-0.74219-0.28906-0.98828 0.625 0.80078-0.73828 0.74609 0.87109 0.57031 1.0195 0.38672 0.89453-0.64062 0.98047 0.3125 0.95703-0.53906 0.90234 0.44531-0.10156 0.99609-1.043-0.16406-0.97656-0.23047-1.0586 0.21484-0.98047 0.47656-0.625 0.82812-1.0273-0.42969-1.0508-0.35938-0.89453 0.57812-0.79297 0.625-0.70312-0.72266-0.94141-0.38281-0.98438-0.38281-0.97266-0.28906-0.50391 0.92188-0.875 0.53906-0.75781 0.69531-0.57031 0.86328-0.007813-1.0312 0.03125-1.1055-0.12109 1.1133-0.44531-0.90234-0.25 0.98438 0.37891 0.96875-0.61328 0.80859-0.82031 0.61719 0.47656 0.91797 0.53125 0.84766-0.42578 0.91016 0.65625 0.87891 0.51953 0.87109 0.8125 0.68359 0.015625 1.0391-0.19922 1.0195 0.47266 0.88281 0.74609 0.72656 0.47656 0.92578 0.37891 0.97266 0.55859 0.84375 0.25-1.0078 0.03125 1.125 0.48828 0.90625 0.32422 0.94922 0.71875 0.70703 0.88281 0.48047 0.55859 0.83594 0.66797 0.79688 0.48828 0.91406 0.13281 1.125 0.61328 0.82422 0.84766 0.60156 0.42969 0.91016 0.67969 0.78516 0.84766 0.65234 0.69531 0.78906 0.56641 0.85156 0.69531 0.73438 0.53906 0.86328-0.88281 0.53516 0.42578 0.91016-0.125 1.1172 0.71094 0.73828 0.023438 1.0195 0.61328 0.81641 0.75781 0.66797 1.0312 0.11719 0.71094-0.71094 1.0117 0.10938 0.42188 0.93359 0.47656 0.90625 0.24609 0.97656-1.0312 0.17578-0.94531-0.46484-0.84766-0.56641-0.81641-0.59766-1 0.007812 0.22266 0.99219 0.72266 0.69141 0.79297 0.62891 0.65625 0.76172 0.91406 0.41406 0.83984 0.60156 0.86328 0.58594 0.8125 0.59766 0.78516 0.625-0.55078 0.83203-1.0039-0.003906-1.0039 0.058594-1.0039-0.10938-0.99609-0.11328-1.0156-0.11719-0.70312-0.73047-0.85938-0.57031-0.89062-0.47656-0.89453-0.5-0.66797-0.75-0.79688-0.61719-0.73828-0.70703-0.64062-0.77734-0.51562-0.88672 0.023438-1.0312 0.007812-1.0664 0.27734-0.96875 0.28906-0.98438-0.73438-0.73438-0.41797-0.91797-0.69531-0.72266-0.84766-0.55859-1.0039-0.36719-0.59766-0.84766-0.67578-0.78516-0.48828-0.88672-0.67188-0.78906-0.55859-0.83203-0.26172-0.97266-1.0039-0.19141-0.89453-0.50781-1.0156 0.027344-0.96094-0.42578-0.085937 1.0312 0.92578-0.37891 0.89844 0.49609 0.97656 0.21484-1.0195 0.21484-0.38672 1.0156-0.61328 0.80469 1.0234 0.19531 0.53906 0.84766-0.37109 1.082-0.98438 0.28125-0.011719 1.0039 0.94922-0.47266 0.86328 0.5625-0.12109 0.99219-0.51562 0.85938-0.60938 0.80078-0.73438 0.98438-0.65625 0.76562-0.1875 1.0664-0.71875 0.73438-1.0117 0.22266-0.45703-0.89844-1.0391 0.1875 0.43359 0.99609 0.41406 0.94141 0.34766 0.96094-0.66406 0.83984-0.80469 0.71094-1.1875-0.089844-0.64844-0.78906-0.87891-0.5-0.90234-0.50391-1.0156-0.0625-0.91406 0.44531-0.3125 0.96484-0.39062 0.9375-0.85156 0.63281-0.25 0.98828 0.34375 0.95312 0.53906 0.83984-0.089844 1.0078-0.83594 0.60938-0.25 1.0039 0.035157 1.043 0.77344 0.67578 0.36328 0.94141 0.625 0.79688 0.87891 0.61719 0.83203-0.55469 0.61719 0.85938 0.74609 0.73828 0.21094 1.0039 0.32422 0.96094-0.88672 0.52344h-1.0508l-1.0508 0.42578-0.003906 1.043-0.31641 0.97266 0.73438 0.70312 0.97656 0.24219 0.39453 0.94922 1.0117 0.12891 0.92188-0.41016 0.77734-0.66797 1-0.21875 0.90234 0.4375 0.81641 0.65234 1.2578 0.42969 0.91016 0.44141 0.98438 0.41016 0.57422 0.81641 1.0469 0.32031 1.0273 0.12109 1.0742-0.12109 0.91797 0.71875 0.24219 0.98047 0.10156 1.0039 0.63672 0.77344 0.875 0.5625 0.42969 0.98438 0.64844 0.76172 1.207 0.066406 0.33984-1.0195 0.4375-0.90234 0.79688 0.84766-0.125-1.0195 0.90625-0.44141 1.2031 0.17578 0.84375 0.65625 0.875 0.64844 1.1289-0.25 0.92969 0.40234 0.87891-0.625-0.070312-1.0664-0.32812-1 0.039062-1-0.86719-0.50391-0.87109 0.60156 0.10156-1.0781-0.52734-0.86328-0.76172-0.76953-0.44141 0.91797-1.0156-0.023438 0.58984-0.81641-0.97656-0.39844-0.44922-0.94531-0.95312 0.3125-0.97266 0.35547-0.57422-0.85156-0.23438-1 0.45703-0.91406 0.34766-0.98047 0.25391-0.98047-0.058594-1.0117 0.23828-1.1523 0.64844-0.79688 0.70703-0.77734 0.74219-0.79688 1.0586 0.20312 0.98047-0.38672 0.36328 1.1172 0.29688 0.98828 0.49609 0.90625 0.98047 0.37891 0.75781 0.78516 0.625 0.875 0.89453 0.62891-0.80859 0.83594-0.26172 1.0391-0.32812 1.4492 0.29688 1.0703 0.40234 1.1836 0.26172 0.98438 0.35156 1.0234 0.77344 0.64062 0.09375 1.0195 0.11719-1.0352 0.89453 0.49219 0.89844 0.63672 0.46484-0.95312 1.0156-0.15625 0.4375 0.91406 1.0469 0.54297 1.0195 0.32812 0.98828 0.17188 0.42969 0.99219 0.39844 0.95312 0.63281 0.87891 0.51953 0.90234 0.70312 0.72656 0.70703 0.70703 0.83594 0.56641 1.0469-0.27344 0.65625 0.79688 1.1484 0.23438 0.98438 0.28125 0.66797 0.74219 0.96484 0.33594 0.88281-0.51172 0.87109 0.52734 1.0039-0.15234 1-0.023437 0.88672-0.49219 0.99609-0.16016 0.93359-0.37891 1 0.042968 0.93359 0.38281 0.82812-0.59375 0.70312 0.74609 0.95312 0.43359 0.92188 0.39062 0.75 0.72266 0.95312 0.3125 0.074219 1.0078 0.44531 0.91016 0.96875-0.35547 0.44141-0.91797 0.60547 0.84375 0.55859 0.84766 0.99219 0.19141-0.25781-1.0352-0.75781-0.70312-0.90234-0.59375-0.94141-0.41016-0.75-0.78906-0.87109-0.58203-0.92188-0.49219-1.0078-0.20703-0.86328-0.68359-0.95703-0.38281-0.98438-0.29297-1.0742-0.39453-1.0078-0.19531-1.0039-0.15234-1.0352-0.054688-1.1055-0.019531-1.1602-0.13672-1-0.046875-1.0195 0.14453-0.94141 0.46484-0.96094-0.31641-1.0352-0.15625-1.0625-0.1875-1.0781-0.007812-0.96875 0.35156-0.92969-0.86328-0.64844-0.99219-0.46484-0.92188-0.26953-0.96875-0.042969-1.0664 0.17969 1.0547 0.27734 0.98828 0.44531 0.94531 0.58984 0.89844 0.95312 0.42969 1.1172-0.066406 1.0039 0.14062 1.2656 0.078125 1.0195-0.17969 1.0195-0.007813 1.2539 0.03125 1.0078 0.007813h1.1055l1.3633 0.12109 1.1328 0.125 1.1758 0.125 1.1758 0.30469 1.0625 0.35156 0.95312 0.34766 1.2266 0.51562 1.0078 0.46094 1.0312 0.48438 0.85938 0.5625 0.9375 0.57422 0.95703 0.375 1.0469 0.003906 1.0039-0.085937 0.99609-0.13281 0.89062 0.86719 0.41406 0.96094 0.082031 1.0391 0.57422 0.83594 0.70703 0.98047 0.79297 1.1445 0.32812 1.1484-0.039063 1.125-0.27344 1.082-0.17188 1.0312-0.17969 1.082-0.53125 0.88672-0.79297 0.68359-0.53516 1.0078-0.94922 0.32422 0.84766-0.60938 0.47656-0.95703 0.75391-1.1484 0.32422-1.1094-0.30469-0.99219 0.10156-1-0.066406-1.1992-1.0039-0.35156-1.0469-0.52734 0.78516 0.65234-0.082031 1.0039-0.94141 0.33984 0.039063 1.0156-0.11719 1.1016-0.18359 1.0117-0.95312 0.39844-0.75781 0.65234 0.42578 0.94922-0.89844 0.50391-0.64062 0.80469-0.84375 0.59375-0.60156 0.82031-0.65625 0.79297-0.78125 0.625 0.28906 0.95703 0.88672 0.59766-0.42188 1.1055-0.55469 0.91406-0.37891-0.94531-0.45703-0.94922-0.32031 1.0586-0.050781 1.1328 0.019531 1.0234 0.55078 1.1016 0.70312 0.73438 0.80469 0.68359 1.2266-0.21484 0.94531-0.45312 1.2461-0.09375 1.0078-0.085937 0.87109-0.87891 0.84375-0.60938 0.80469-0.62109 1.043-0.29688 1.0039 0.21484 0.67969 0.75781 0.96875 0.31641 0.875-0.74609 0.92578-0.44531 0.64062 1.0039-0.47656 0.90625-1.3477 0.24219 0.0625 1.1875 0.72656 0.78125 0.87109 0.82422 0.58594 0.92969 0.91406 0.78516 0.79688 0.73047 0.82422 0.75 0.98438 0.23828 1.4453 0.22266 0.99219 0.12109 1.2617 0.1875 1.1445-0.1875 1.1016-0.054687 0.93359 0.39062 0.19141 0.98828 0.078125 1.0156 0.76953 0.77734 0.50391 0.89453 1.0273 0.089844 0.65625 0.80859 0.92578-0.60547 0.89453-0.76953 0.55859-0.86328 0.003907-1.043 0.80469-0.79688 0.79688 0.6875 1.1836-0.19531 1.0898 0.11328 1.0117-0.38672 1.0273-0.23828 1.2422-0.43359 1.0586-0.042969 1.1016-0.03125 1.0977-0.30078 1.0352-0.32422 1.2227-0.59766 1.3086-0.69531 0.89844-0.45703 0.76953 0.64844 1.043 0.10156 0.42969-0.95703-0.79297-0.70312 1.1133-0.61328 1.2383-0.33203 1.1875-0.78906 1.0586-0.82812 0.80859-1.1758 1.2695 0.66797 1.0195 0.26562 0.97656 0.44141 1.2852 0.92578 1.0273-0.089844 0.035156-1.2812 0.98438-0.78516 1.2188-0.48047 1.1875-0.625 1.0391 0.23438 1.2305 0.51172-0.32031 0.95312-0.30078 0.99609 0.070313 1.0312-0.49219 0.89844 0.19922 0.98828-0.6875 0.83594-0.42578 0.93359-0.33594 0.97266-0.96484-0.33203-0.58203 0.89844-0.53125 0.91797-1.043-0.097657 0.51953-1.0352 0.21484-1.0508 0.4375-0.98828 0.53125-0.88281-0.87891 0.51172-0.71094 0.73047-0.15625 0.98828-0.77344 0.63672-1.0703-0.29297-0.48438 0.91406-0.74219 0.68359-0.93359-0.87891-0.4375-0.95312-1.1328-0.37891-0.82031-0.61328-0.81641 0.59375-0.98438 0.25781-0.050781 1.0078-0.23828 1.0547 0.84766 0.59375 1.0547-0.058594 1.0547 0.21094 0.74219 0.79688 0.68359 0.87109 0.44922 0.96875 0.53516 1.0117 0.53125 0.86328 0.45703 1.0234-0.027344 1.0664 0.14453 1.0781-0.41406 0.94531-0.27734 1.0977-0.22656 1.0273 0.375 0.92969 0.13281 1.0391 0.30078 0.98047-0.73438 0.73047-0.49609 0.88281-0.87891 0.51172-0.28125 1.0938-0.78125 0.78125-0.90625 0.44531-0.55078 0.875-0.65234 0.85156-0.82031 0.66016-0.9375 0.48438-0.55859 0.85547-0.56641 0.9375-0.31641 1.0039-0.22266 0.98828 1 0.22656 1.0039 0.21484 0.13672 0.99609 0.53906 0.87109 0.5625 0.88672 0.31641 0.96094 0.97266 0.63281 0.73438 0.73047 0.71875 0.75391 0.67578 0.73828 0.41797 0.95703-0.1875 1.0625 0.45312 1.0352 0.085938 1.25 0.25 1.1641 0.43359 0.91797 0.85938 0.77734 0.027344 1.3828 0.44922 1.0625 0.85156 0.89844 1.1328 0.87891-1.3906 1.9062-1.0469 0.14062-0.8125 0.62109-0.85938 0.57031-0.9375 0.66797-1.0391-0.007812-1.4414 0.8125-0.97266 0.27344-1.0469 0.60547-2.1055 1.0547-1.2305 0.39062-1.5273 0.26172-1.0781-0.36719-0.99609 0.36328-1.1719 0.91016-2.0078 0.375-1.4609 3.5195-0.003906 1.2461-0.21484 1.8906-0.30469 1.5234-1.0977 0.19141-1.3438 1.6094-0.57031 0.87891-0.71875 1.6055-4.0664 3.0781-0.84766 0.85547-2.6562 2.8477-2.4766 2.6875-2.3164 4.1523 0.51953 1.0586-1.7812 2.2812-0.95312 0.76562-1.9492 0.26953-1 0.14062-0.65234 0.81641-0.65234 0.83203-0.58984 0.86328-0.78516 0.78516 0.26172 1.0078 0.74609 0.66797 0.53906 1.0352 0.66406 0.75391-0.125 1.0859 0.042969 1.6289-1.9688 1.7852-1.8125 1.5156-3.0977 1.1133-1.2227-0.91797-1.4531 0.1875-1.9531 1.668-1.2109 0.875-3.3398 2.4102-5.2383 1.5234-0.6875 1.8281-1.2109 1.1836 0.49219 1.0273-0.72266 0.71094-0.52734 0.92969-1.1016 0.25781-1.082 0.51172-0.61719 0.80078-0.27734 0.98828-0.4375 1.3711-0.69922 2.25-1.3203 1.3633-1-0.23828-0.625 0.94531zm-64.57-176.26 0.046875-0.011719 1-0.38672 0.74219-0.78906 0.77344-0.69922 0.95312-0.33594 1.0352 0.015625 1.0234-0.12891 0.875-0.58594-0.6875-0.73828-0.089844-1-0.66797-0.78516-0.95312-0.33594 1.0664 0.050781 0.32422-1.0078-1.0586 0.12109-1.0039 0.16016-0.88281 0.50391-0.86328 0.51172-1-0.43359-0.87891-0.51953 0.30469-1.0117-0.31641-0.96484-0.32031 0.98438-0.65234 0.78516-0.21875 1 0.16016 1.0234-0.089843 1.1211 0.17188 1.0352 0.66797 0.76953-0.58594 0.85156 0.66016 0.81641 0.41406 0.003906zm31.223-64.34 0.035156-0.03125 0.9375-0.43359 0.98438-0.38672 0.86719 0.80078 0.69922-0.73047 0.92578-0.64453-0.96484-0.25781-0.97656-0.57812-0.72656-0.71875-0.41797-0.91797-0.45703-0.96484-0.625-0.78516-0.070312-1-0.72656-0.72656-1.0508-0.32812-1.0156 0.12109-0.03125 1.0469-0.39844 0.94531-1.0117-0.29297-0.62891-0.80469-0.73047-0.73047-0.12109-1.1289 0.054687-1.0469-0.18359-1.0039-0.76172-0.67188-0.56641-0.83203-0.375 1.0117-0.39062 0.95703-0.28516 0.99609 0.33594 0.99219 0.10156 1.0273 0.33203 1.0078-1.0156-0.11719-1.0078-0.5625-0.5-0.88281-0.99219-0.25781 0.14844 1-0.79688-0.72656-0.27734-1.0781-0.37109-0.95312-0.625-0.82422 0.36719-0.96875-0.71094-0.79688-1.3672-0.11719-0.45703 0.94922-1.0078-0.019532-0.85156 0.55859-0.91406 0.89844-0.88281 0.52734-0.54688 0.90234-1.0078 0.24609-1.1172-0.09375-0.94141 0.38672 0.24219 0.97266-0.058594 1.0586 0.90625 0.42969 0.83203 0.62109 0.97266 0.53906 1.1484 0.59766 1.0938 0.53516 0.95703 0.33203 1.1211-0.078125 1 0.21094 1.0117-0.058594 1.0312 0.25391 1.0938 0.097656 1.1523 0.15234 1.0391 0.40625 0.92578 0.51172 1.0586 0.078125 1.0586-0.09375 1.0977 0.18359 0.73438 0.91797 0.94531 0.54297-0.49219-0.89453-0.43359-0.94531-0.6875-0.83984 0.96875 0.25391 0.60547 0.96094 0.97266-0.32031-0.49219-0.96875 0.87891 0.66406 0.69531 0.82812-0.007813 1.1406 0.67578-0.015625zm25.762 50.125 0.058594 0.019531 0.88672 0.47266 0.66406 0.78125-0.67578 0.82031-0.32031 0.96875-0.98438 0.37891-1.1133 0.007813-0.58594-0.8125-0.32812-0.99609 0.64453-0.78906 0.72656-0.70312 0.98047-0.15625zm2.5234 11.801 0.10156 0.19531 0.49609 0.90625 0.41016 0.92578-0.046875 1.0508-0.003906 1.0547-0.41016 0.91797-0.30078-1.0469-0.375-1-0.4375-0.94141-0.55859-1.1875 0.55859-0.89453 0.45312-0.089844zm-16.617 16.719-0.050781 0.039063-0.64453-0.78125 0.6875-0.74609 0.57031 0.85547-0.50781 0.61719zm15.516-0.25781 0.046875 0.058594 0.80469 0.6875 0.83203 0.69531 0.84766 0.53125-1.0117 0.17188-0.99219-0.20312-1.125 0.34375-0.66406 0.75781 0.19922-0.98828 0.32812-0.98828 0.27344-0.98828 0.44531-0.085938zm87.859 39.703 0.0625 0.054687-0.35938 0.94531-0.97656-0.37109-0.16016-1.0234 1.0586 0.18359 0.24609 0.13281zm14.477 13.273-12.113 6.4805-0.015625-3.0234 0.015625-16.793 3.918 3.7617 1.9648 1.375 6.2305 4.918z" fill="#0a5394" fill-rule="evenodd"/>
<path d="m227.27 498.07-0.027343-0.015625-0.65625-0.79688-0.69531-0.78125-1.0195-0.089843-1.0781 0.19922-0.92969 0.42578-1.0391-0.09375-1.043-0.23047-0.97656 0.39062-0.75391 0.6875-0.64453 0.82422-1.0078 0.17188-1.0234-0.066407-1.0469-0.3125-0.73828-0.71094-1.332-0.41406-0.48828-0.95312 0.085938-1.0352-0.80078-0.94531-0.69922-1.0312-0.73828-0.8125-0.85938-0.51172-0.96484-0.28516-0.98828 0.14844-0.86328 0.55078-1.0703 0.26562-0.96484 0.37109-1.0977-0.085937-1.1406-0.14062-0.5625-0.88281-1.0352-0.28125-0.69141-0.72656-1.0156-0.32812-1.0664-0.1875-1.0547-0.13281-0.87109-0.77734-0.94531-0.39844-0.83594-0.63672-0.96875-0.3125-1.0352-0.35547-0.80859-0.73047-0.94922-0.46875-0.73828-0.77344-0.89062-0.66016-0.32031-1.0234-1.0391 0.1875-0.60938-0.875-0.17578-0.99219-0.90234-0.51562-0.98438-0.25-0.85547-0.51953-0.76172-0.69922-0.58984-0.82422-0.79297-0.65234-0.91016 0.49219-0.55469-0.87109-0.46094-0.97656-0.0625-1.0586 0.007812-1.0508 0.27734-1.0859 0.21094-1.0039-0.1875-0.99219 0.089844-1.0117-0.87109-0.51562-0.79688-0.72266-0.66016-0.82812-0.85156-0.57031-0.78125-0.72266-0.58203-0.82031-0.83984-0.74609-0.75391-0.80859-0.11328-1.0547-0.23438-1.0586-0.20703-1.1602-1.043-0.54688-1.0508-0.57031-0.042969-1.1016-0.79688-0.67969-0.60156-0.98438-1.0195-0.44531 0.43359-0.96094 0.91797-0.55078 0.84766-0.57031 0.75-0.75781 0.33203-1.1016 0.67188-1.4375 0.96094-0.52734 0.33984-1.4883 0.38281-1.0469-0.074219-1.1406 0.10156-1.0039-0.050781-1.0352 0.09375-1.0703 0.058593-1.3242-0.125-1.2656 0.86719-0.64062 0.73438-0.72656 1.293-0.46094 0.83594-0.875 0.38672-1.0117-0.17578-1.0938 0.73828-0.82422 0.97656-0.22656 0.76562-0.76953 0.058594-1.0234 0.92188-0.67188 1.2891 0.13281 1.0898-0.28516 0.67578-0.76953 0.63281-0.8125-0.03125-1.3086-0.52734-0.98828-0.87891-0.52344-0.39453-1.1094 0.625-1.0742 0.83203-0.74609-0.16016-1.3008-0.21875-1.1172-0.76172-0.82422-0.51953-0.92188-1.0117-0.52734-1.0117-0.125-1.0078-0.41797-1.082-0.39844-0.62891 0.87109-0.93359 0.47266-1 0.097656-1.0859 0.64453-0.67578 1.0469-1.1406-0.17969-0.9375-0.5625-0.76562-0.66406-0.84766-0.55859-1.0039-0.36719-0.97656-0.45703-0.82031-0.90234-0.83203-0.88281-1.0625 0.082031-1.0781-0.47656-0.19531-1.1602-0.79297-0.83594 0.30078-1.2305-0.36328-1.125 0.089844-1.5078-0.57031-1.0039-0.097656-1.1094-0.73828-0.71875-0.99219 0.21484-1.1055-0.72266-0.94531-1.0469-0.52344-0.87109-0.84766-0.65234-0.88672-0.70703-1.0273 0.023437-1.168-0.51562-1.2109-0.5-1.1406-0.41406-1.168-0.55078-0.79688-0.61719-1.168-0.35547-0.91797-0.79688-0.77734-0.70703 0.30469-1.1602 0.58594-0.82812-0.94922-0.38281-0.18359-1.207-0.39062-1.0703-0.67969-1.043-0.76562-0.67188-1.125 0.33594-1.0469 0.125-1.0391-0.47266 0.30469-0.98438-0.63672-0.85547-0.91016-0.55859-1.0039-0.42188 0.42188-1.082 0.44922-1.0039 1.3047-0.13281 0.66016-0.97656 0.71484-0.73828 0.3125-1.1602 0.37109-1.2539 0.39453-1.1641-0.46484-0.90234-0.44531-1.0977 0.28125-0.99609-0.125-1.0859 0.28125-1.082 0.29688-0.96484-0.46484-1.043 0.21094-1.1523 0.71875-0.71484 0.48047-0.9375 0.67969-0.73438 0.042969-1.0156-0.0625-1.0156-0.5-1.1992-1.1055-0.23047-1.0625 0.51562-0.98438 0.39844-1.1016-0.91406 0.019531-1.1797-0.41016-1.1641-1.1133-1.1211-0.71094-0.86328-0.5625-0.92969-0.94531-0.40234-0.37109-0.95312-0.40625-1.5078-0.23047-1.0508 0.39453-0.97266 0.41016-1.0078-0.60547-0.83984 0.39844-1.0117-0.51953-0.91406-0.71094-0.70312-0.84766-0.64453-0.96875-0.65625-0.74609-0.88672-0.23828-1.1172-0.19141-1.0078-0.96094-0.41797-0.77344 0.86328-0.75781 0.67578-1.0586 0.24609-0.97266-0.66797-0.87109-0.52734-1.082 0.12891-1.0312-0.32422-0.625-0.79297-0.98828 0.26953-0.98047-0.77344-0.30859-1.0977-1.0039-0.60547-0.82031-1.3086-0.79688-0.71875-0.99609-0.69922-1.0547-0.0625-0.99219 0.31641-1.0117-0.35547-1.0547 0.46094-1.0195 0.058594-0.97266 0.29688-0.78516 0.64844-1.082 0.007813-0.71094-0.8125-0.76562-0.65625-0.66797 0.78516-0.77734 0.63672-0.89062 0.47656-0.70703 0.82812-0.88672 0.46875-0.80859 0.67578-1.0391 0.14453-0.76953 0.64453-0.92969 0.45312-1.0586-0.007812-1.0312 0.25-0.83203-0.61328-0.55859-0.83594-0.85547-0.62109-1.0195-0.042969-1.0664 0.085938-0.98047-0.24219-0.98828-0.28516-0.58984-0.89453-0.82422-0.89062-0.69531-0.80859-0.035156-1.1875-0.96094 0.61719-1.4922-0.47656-1.0977-0.23828-0.91016-0.48047-0.94141-0.58594 0.19531-1.0938 0.75391-0.75781-0.5625-0.96875-0.078125-1.0547-0.46094-1.0117-0.65234-0.83203-0.28516-0.97656-0.60547-0.79297-0.57812-0.88672-0.4375-0.92188-1.0664-0.20312-0.91016 0.62891-1.0195-0.37891-0.42188-1.0664 0.10547-1.0156 0.050782-1.0039 0.058593-1.0039-0.39062-1.0352-0.62109-1.0078-0.57812-0.93359-0.57422-0.96484-0.49609-1-0.41797-1.4102-0.81641-0.80859-1.082-0.95312-0.62109-0.91406 0.82422-0.625 0.57422-0.85938 0.41406-1.1133 0.37891-0.98047 0.99609-0.55859 1.082-0.47266 0.19141-0.99219 0.25-1-0.019532-1.0938-0.79688-0.70703-0.61328-1.1172-0.5-0.89844 0.066406-1.1445v-1.0469l0.09375-1.1992-0.13281-1.0117-0.39453-1.0703-0.61328-1.0781-0.82422-0.57031-0.67188-0.88672-0.99609-0.44141-1.2852-0.70312-1.2109-0.41406-1.1523-0.63672-0.75781-0.83984-0.78516-0.79688-0.64062-0.96094-1-0.96094-0.19531-1.1875 0.085938-1.2695-0.70703-0.87109-0.30078-0.99219 0.18359-1.1445 0.48828-0.95703-0.59375-0.99219-0.14062-1.2578 0.48828-0.88281 0.82422-0.625 0.83594-0.78125 0.52734-1.2578-0.074218-1.0586-0.6875-0.84766-0.83203-0.75391-0.97266-0.54297-1.2188-0.36719-0.375-1.1406-0.86719-1.3398-0.070313-1.4922 0.29297-1.1211 0.83594-1.1406 0.87891-0.73828 0.15625-1.1641 0.40625-1.2109 0.32422-1.0586 0.71484-0.98828 0.78516-0.69141 0.92969-0.78125 0.72656-0.6875 0.95312 0.4375 1.0078-0.14844 1.0703-0.011719 0.66406-0.94141 0.37109-1.0469-0.125-1.0195-0.63281-0.91016-0.85938-0.69922-0.91406-0.40625-0.55469-0.91016-0.25391-1-0.66406-0.84766 0.23828-0.99219 0.75781-0.68359 0.87109-1.0117 0.35156-0.98828-0.10156-1.0547-0.074219-1.0234-0.69141-0.8125-0.03125-1.0938-0.16406-1.0078-0.16797-1.2344-0.17969-1.0312-0.49609-0.94531 0.60938-0.89453-0.070312-1.0859-0.21484-1.0234 0.050781-1.1914-0.27344-0.96094-0.82422-0.63672-0.72656-0.78516 0.089843-1.0234-0.027343-1.0312-0.09375-1.3086-0.22266-1.1758 0.3125-0.99219 0.035157-1.0391-0.375-0.9375 0.066406-1.0156-0.41406-0.94141-0.35547-0.96094-0.042969-1.0312-0.03125-1.0586-0.09375-1.0547 0.29297-1.0117 0.46875-0.91016 0.50781-0.96094 0.87891-0.57422-0.12891-1.0898-0.42578-1.2461 0.48828-1.0469-0.25391-1.0195-0.61328-0.82422-0.26172-1.0391 0.03125-1.0234 0.35547-1.0625-0.019532-1.0625-0.007812-1.1055-0.39062-0.93359 0.55469-0.83594-0.47266-0.91406 1.1445-0.68359 0.85938-0.60547 0.054688-1.0195 0.019531-1.0391-0.35547-1.0195-0.26953-0.98438 0.26953-1.0312 0.54297-0.91797-0.10938-0.99609-0.66016-0.82812-0.84375-0.54688-0.94141-0.41406-1-0.35938-0.95312-0.39062-0.67188 0.76172-0.39844 1.1055-0.96484 0.33203-0.72656-0.73828-1.0391 0.074219-1.1094-0.28906-0.46484-0.91016-0.43359-1.0117-0.84375-0.65234-0.75781-0.67578-0.8125-0.80078-0.41016-1.1055 0.16406-1.0977-0.52344-0.85547-0.87109-0.5-0.58984-0.92578-0.71484-0.76172-0.44531-0.95703-0.23047-1.0625 0.22656-0.98438 0.54297-0.97266 0.90625-0.43359 1.1797-0.15234 1.1094-0.21875 1.0195 0.1875 0.71875-0.76953 0.96484-0.625 0.86719-0.60938 0.80859-1.1953 0.87891-0.73438 1.0742-0.62891 1.0469 0.12109 0.88672 0.54297-0.41016-1.1211-0.22266-1.0039 1.3398-0.70312 1.1367-0.0625 0.78125 0.73828 0.94141 0.33984 0.79297-0.67578 0.64844-0.76953-0.17969-1.0703-0.61328-0.87109-0.79297-0.76562 0.35547-0.94141-0.55078-0.83594-0.60156-0.92188-0.47266-1.0586-0.42578-1.0039 0.80859-0.65234 0.18359-0.98828 0.26172-1.0117 0.39062-0.99219-0.28125-1.0391-0.32422-0.98047 0.60938-0.85156 1.0234-0.29688 1.0117-0.16016-0.13672-1.0664-0.73438-0.79688 0.058594-1.0781-0.84766-0.55078-0.55469-0.84375 0.32812-1.0039 0.074219-1.0078-0.48828-0.91016 0.85156-0.54688 0.98047-0.41016 0.60938-1.0469 0.66016-0.80859 1.0195-0.67188 1.0312-0.41016 0.73828-0.71875 0.94922-0.37891 0.96875 0.50781 0.69141-0.78516v-1.0703l-0.3125-1.2383 0.097657-1.0664 0.31641-0.97266 1.0156-0.48438 0.89844-0.90625 0.32422-1.3477 0.74219-0.69531 0.50391-0.92969-0.15625-1.0195-0.80469-0.79297-0.37109-0.99219-0.85156-0.60156 0.33594-1.0234 0.125-1.4062 0.73828-0.70703 0.78125-0.86328-0.34766-0.94531-0.3125-1.1484 0.19922-1.0508 0.98438-0.25391 1.0547-0.078125 0.67578-1.0156 1.0312-0.17188 0.53906-0.89062 0.98047-0.36719 0.85547-0.64062 1.0117-0.21484 0.52734-0.92969 0.79688-0.73047 0.90234-0.75391 0.035157-1.3672 0.023437-1.0781 0.69141-0.77344 0.74609-0.71094 0.32031-0.97266-0.87891-0.79297-1.1055-0.26172-1.0078-0.10938-0.88672 0.52734-0.87891-0.49219-0.38672-0.96094-1.0664-0.32422-0.76172-0.85156-0.28125-1.0625-0.69141-0.76172-0.34766-0.94922 0.66406-0.98828 0.78516-0.75 1.0117-0.26953-0.73047-0.6875-0.62891-0.8125 0.46094-0.96094 0.375-1.0117-0.18359-1.0625 0.22656-1.0117 0.71094-0.90234 0.47266-1.2266 0.57422-0.92188 0.92969-0.55859 0.79297-0.9375 0.57812-0.82422-0.09375-1.1602-0.90234-0.75-1.0039-0.10547-0.27344-1.0312 0.39062-1.0117-0.45703-1.0469-0.19922-1.0625-0.57812-0.98047-1.1211-0.14062-1.0273-0.019531-0.58984-0.85156-1.0156-0.33203-1.0273-0.63281-0.070313-1-0.17969-0.99219 0.58984-0.86719 0.74609-0.71875 0.83203-0.64453 1.0312-0.082031 0.29297 0.99219 0.3125 1.0195 0.96875 0.35938 0.85547 0.69141 0.98828-0.16406 1.0117-0.48438 1.0117 0.0625 1.0391 0.17578 0.85156-0.62891 1.0469-0.15625 1.0078-0.14453 1.1289 0.10938 1.0039 0.14453 0.94531 0.34766 0.90234 0.45703 1.0078 0.20703 0.88281 0.48828 0.79297 0.71875 0.59766 0.84375 0.011719-1.0039 0.30859-1.1992 0.40625-1.0703 0.42969-1.1367-0.48047-1.1484-0.3125-1.0234-0.53516-0.875-0.75-0.76562-0.26172-1.0195-0.51562-0.95703-0.38281-1.0664-0.82031-0.76172 0.19531-1.3164-0.16406-1.043-0.066406-1.0039 0.76172-0.70703 0.76562-0.78125 0.074219-1.1016 0.52344-0.89062 0.16406-1.1562 0.085937-1.0195 1.0391-0.31641 0.97266-0.40625 1.0508-0.29297 0.91797 0.58984 0.96094 0.40625 1.0234-0.13281 0.97656-0.51562 0.71875-0.71875 0.45703-1.0234 0.76562-0.72266 0.76953-0.6875 0.82422-0.59766 0.46875-1.0078 0.76172-0.73828 0.90234-0.61328 0.97656-0.57422 1.0078-0.007813 0.58203-0.9375 0.83984-0.55078 1.3477 0.15234 1.0312-0.60156 0.85938-0.54297 0.74609-0.72266-0.003906-1.1758-0.44141-0.90234 0.16406-1.2266 0.54688-1.1641 0.67188-0.85156 1.6484-1.3164 1.2148-0.58203 1.1797-0.65625 1.082-0.26172 0.60547-1.1797 0.69531-0.92188 0.73828-0.71484 0.54297-0.89062 0.76562-0.92188 0.53906-0.89844 0.39453-0.9375-1.0703-0.21484-1.0039-0.14844 0.53516-0.98047 0.46875-0.94141 0.59766-1.0312 0.75-0.71094-0.023438-1.0117 0.73828-0.71875-0.15234-1.0195-0.125-1.0703-0.5625-0.9375 0.86328-0.62109 1.0625-0.27734 0.98047-0.32422 0.99609 0.054688 0.94141 0.66406 0.79688 0.60938 0.45312-0.91016 0.30859-0.98828 0.45312-0.94922-0.41016-1.0391-0.71094-0.92578 0.50781-1.0742 0.78125-0.74219 1.0703-0.32422 1.0938 0.26562 0.70703-0.71875 1.0586 0.24609 1 0.37891 0.23828-1.0469-0.046875-1.0781-0.97266-0.42969-0.87891-0.73438-0.875-0.90625-1.1094-0.51562-1.0586-0.085938-1.1328-0.054687-0.96094-0.39453-0.75-0.74219-0.94531-0.50391 0.32422-1.2148 0.92969-0.58594 0.99219-0.39062 0.91797-0.41406 0.75-0.69922-0.32422-0.94922 0.46094-1.0508 0.34375-0.94531-0.45312-1.043 0.55469-1.0352-0.23438-1.0703-0.019531-1.0234-0.70703-0.70703-0.91016-0.5625 0.37891-1.2969 0.63672-0.77734-0.34375-0.96484-1.1484 0.78906-1.2383 0.10156 0.33984-1.0234 0.90234-0.66406 0.082031-1.0117 12.852 3.793 1.8672 0.51562 1.3828 0.43359 3.2383 0.91016 3.0195 0.93359 11.82 3.5 5.582 1.6523 1.418 0.44531 1.6445 0.48828 2.625 0.83203 1.3906 0.45703 2.5 1.125 9.6562 2.8672 1.2891 0.34375 12.242 3.6719 1.5625 0.41406 3.3242 1.043 1.1641 0.30469 3.3047 1.043 5.3359 1.5742 16.895-6.9688 6.0703-2.5859 0.92969-0.44141 15.891-6.8906 10.516-4.6562 12.367-5.3398 7.582-3.3672 4.9609-2.1367 9.1289-3.9062 5.5742-2.4805 0.94531-0.34766-0.40234 1.0078 0.85547 0.55469 1.0234-0.53516-0.019531 1.1758-0.83594 0.66406 0.95703 0.40625 0.89062 0.53125-0.042968 1.0625-1.0312-0.015625-0.28516 1.0547 0.88672 0.52344-0.31641 1-0.65625 0.78906-0.76562 0.72656 0.57031 0.85547 0.5 0.90625-0.375 1.0156 0.45312 0.91797-0.96875-0.25391-0.80859 0.62109 0.99219 0.23438-0.62109 0.84766-0.50391 0.89453 1.0195 0.17969-0.29297 1.2344 0.89453 0.51953-0.50391 0.92188-0.17969 1 0.94531 0.31641-0.46875 0.90234-0.96484 0.34375 0.57031 0.92578 0.8125 0.73047 0.49219 0.87891 0.36719 0.94531-1.0312 0.28906-0.13281 1.0469 1.0156 0.074219-0.30859 1.1172 0.83203 0.65625 0.44531 0.99609-1.0156 0.41406-0.64062 0.88672-0.011719 1.0938 1.125 0.26562-1.0664 0.12109 0.10547 1.1055-0.27734 1.0156 0.31641 0.96094-1.043-0.019531 0.66406 0.77734 0.22266 1.0977-0.50781 0.9375-0.94531 0.56641-0.81641 0.60156 1.2656 0.35938-0.85156 0.64453 0.21094 1.0742 0.46094 0.95312-0.65234 0.89062-0.60938 0.91797-0.31641 1.0898-0.99219 0.20703 0.79688 0.73828-0.24219 1.0938-0.22266 1.0117-0.875 0.5 0.023438 1.0742 0.3125 1.0625-0.85547 0.74219 0.51562 0.90234-0.90625-0.5625-0.19141 1.0039 0.80078 0.71094 0.10547 1.0117-0.70703-0.81641 0.17969 1.1875-0.33984 1.0625-0.76172 0.67188 0.54297 0.83984-0.25 1.0039-0.41797 0.94141-0.97656 0.47266 0.66016 0.80859-0.40625 1.0664-0.4375-0.95312-0.95312 0.44141-0.38672 0.92969-0.58203-0.83203-0.19531 0.98438-0.18359 0.99219-0.23438 1.0195-0.14062 1.1055 0.039062 1.0273-0.71875 0.95703-0.38281 1.2422-0.070313 1.2383 0.39453 1.043-1-0.089844-1.0156-0.21875-0.30859 1.0898-1.3242 0.042968-0.82812 0.69922-1.0156 0.15625-0.30469 1.0703 1.0039 0.45703-0.33203 0.96484 0.41406 0.94141-0.97266 0.5625-1.0117-0.12109-0.99219 0.58203-0.73438-0.6875-1.1133 0.03125 0.23047-1.0117h-1.0352l-0.88672 0.48438-0.46484 0.96094-1.0391 0.27344-0.042969 1.0742-0.52344 0.87891 0.066406 1.0977 0.78906 0.85938 0.71875 0.81641 0.4375 0.97656 0.83594 0.81641 0.84375 0.5625 0.40234 0.94141 0.44922 0.96875 0.93359 0.38281 1.1289 0.066406 0.90625 0.46875 0.98047 0.33984 0.60938 0.8125 0.96875 0.45312 0.26172 1.0781-0.10547 1.0039-0.20703 1.0195-1.043-0.14453 0.37891 0.99219 0.94531 0.32422 1.0039-0.11328 1.0352-0.22656 0.94531 0.36328 0.55078 0.86328 0.92578 0.48828 1.0078 0.21875 0.96484 0.42578 0.32422 0.98438-0.34375 1.0234-0.96875 0.35547-0.92969 0.69922-0.23438 1.2422-0.26562 1.1133-0.085938 1-0.64453 1.1953-1.0234 0.52734-1.0078 0.38281-1.0156 0.17578-0.54688 0.86719-0.32031 0.94922-0.125 1.0391 0.45312 0.94531-0.21875 1.0273 0.57031 0.89062 0.375 0.94141 0.66406 0.75-0.32422 1.0039-0.10547 1.0391-0.65625 0.75781 0.66406 0.89453 0.77734 0.66797 0.39062 1.0938 0.76172 0.76953 1.0039 0.13281 0.10938 1.0625 0.82422 0.62109 0.52734 1.0117 1.0469 0.14844 1.0195 0.35938 0.88281 0.59375 0.93359 0.40234 0.92188 0.4375 0.23047 1.0039 0.85938 0.66406 0.53125 0.86719-0.066406 1.0039-0.45703 0.99609 0.9375 0.42188 0.16406 1.0469 0.097656 1.0117 0.57031 1.1094 0.76953 0.95703 0.53516 0.88281 0.80078 0.63281 0.8125 0.67969 1.0352 0.33984 0.21875 1.0273-1.0078 0.13672-1.0352 0.28516-0.67188 0.74609 0.4375 0.90625 0.35156 0.97266 0.054687 1.1562 0.32812 0.96484 0.92578 0.49609 0.86328 0.625 0.46094 1.0312-11.227 0.5-4.3789 0.019531-0.86719 0.57422-0.050781 1.0312-1.0898-0.011719-0.89844 0.53906-0.33984 0.94531 0.25 0.98828 0.62891 0.875-0.40625 1.0156-0.59766 0.80859-0.8125 0.58984-0.69922 0.71875-0.4375 0.98438-0.35938 0.97656-0.60547 0.85547 0.44531 0.94531 0.33203 1.0273 0.50781 0.91797 0.61328 0.87109 0.30859 0.99219 0.39453 1.0117 0.57812 0.90234-0.23438 0.99219-0.71875 0.73047-0.87109 0.53906-0.089844 1.0195-1.0586 0.37109-1.0195 0.37109-0.58594 0.95703-0.023438 1.0586-1.2656 0.4375-1.1836 0.21875-0.84375 0.73438-0.57812 0.84766-1.0391 0.28516-1.1016 0.070312-0.61328 0.82812-0.57422 1.2148-0.38281 0.96484-0.53516 1.0586-1.1211 0.53516-0.69141 0.73047-0.32031 1.1367-0.47266 0.91016-0.97656 0.55859-1.0195 0.14062-0.98438 0.25781-0.96094 0.48828 0.87891 0.73047 0.007812 1.082-0.20312 1.0742 0.12891 1-0.25781 1.0273 0.16797 1.1211-0.44531 0.92578-0.96094 0.61328-1.2305 0.29688-0.98828 0.17578-0.98828-0.24609-1.0664-0.26562-1.0898-0.13672-1.0547-0.19141-0.73828 0.72266-0.72656 0.79297-0.33594 1.0039-0.074219 1.0664 0.35156 0.97656 0.0625 1.0781-0.019532 1.0781-0.15234 1.0742-0.69141 0.78516-0.98438 0.3125-0.49219 0.87891-0.76953 0.95312-0.49219 0.87109 0.60938 0.93359-0.20312 1.0273 0.67188 0.84766 0.66797 1 0.96094 0.54688 0.32031 1.0117 0.69531 0.85156-0.29297 1.0898-1.332 1.5938-2.3398 0.40234-0.96484 0.44531-1.3789-0.20703-1.6914 0.14062-1.6836 0.41797-1.1523 0.64062-1.2031 0.86328-0.75391 0.70312-0.89062 0.46875-0.99219 0.71484-0.39844 3.418-0.25391 1.1172 0.11328 0.99609 0.16406 1.0117 0.53906 1.3438 0.76953 1.7773-1.125 4.9258-0.80469 0.70703 0.09375 1.2617-0.1875 1.0078 0.11719 0.99219 0.61719 0.81641 0.33203 0.97266 0.65625 0.8125 0.72266 0.69141 0.76172 0.69531 0.65234 0.83203 0.40234 0.93359 0.31641 1.0547 0.29297 0.96484 0.28516 0.96484 0.41016 0.92578 1.0039-0.21094 0.64062 0.875-0.39453 0.92188 0.5 0.88672 0.44141 0.96094 0.64062 0.76953 0.28906 0.99609 0.1875 1 0.63281 0.84766 0.36328 0.96094 0.77734-0.68359 0.23438 1.0469 0.92969-0.42188 1.0391 0.19922 0.9375 0.38672 0.82031 0.58594 0.44531 0.92188 0.78906 0.65625 0.96094 0.35938 0.62109 0.89844 0.82422 0.58984 0.87891 0.77344 0.70703 0.76172 0.63281 0.87891 1.1914 1.0547 0.62891 0.94531 0.65234 0.87891 0.78906 1.1562 0.40234 1.1719 0.96094 0.45703 0.78906 0.67578 0.60156 0.82031 0.23438 1.043 0.67188 0.99219 0.64062 0.85547-0.95703 0.31641-0.91016-0.48438-0.85156 0.65625-0.78906 0.69531-2.9844-0.64844-0.19531 2.0703-1.3164 1.3789-0.58984 1.2539-0.046875 1.5391-1.3711 1.0703-1.0547-0.82422-1.7891 2.1328-1.0547 1.9922-0.98438 2.1133-1.3672 0.375 1.2188 6.125 1.4688 1.2656-0.42188 2.6484-1.4727 1.0234-4.25-3.7578-0.62891 1.1484-0.93359 1.5156-0.95703 1.5352 0.89844 1.0703-0.81641 1.0234 0.23438 1.0898-0.65234 1.4375-0.77734 1.5547-0.65625 0.80469-1.0977 0.33594-1.0352-0.35938-1.0195-0.25391-0.44141-0.9375-1.0312-0.035156-0.79297-0.61328-0.99609-0.41797-0.90625-0.54297 0.14062-1.0156 1.0391-0.23828 0.58594-0.83594-0.40234-0.92969 0.64062 0.77734 0.56641 0.82812 0.67578 0.78125-0.089844 1.0547 0.94922-0.36719-0.55469-0.85156 0.39844-0.92578-0.23438-0.98828-0.82422-0.76953-0.92578-0.50391-1.0898-0.26562-0.98438 0.21094-0.64453 0.91406-1.0156 0.10547-1.1094-0.13672-1.0078-0.042969-1.0156-0.30078 0.11719 1.0039 0.74609 0.75391 1.0234 0.38281-0.67969 0.82422-1.1172-0.10156-0.60156-0.82031-0.49609-0.89062 0.47266-0.89062 0.011719-1.0898-0.51953-0.86328-0.69531-0.74609-1.0586-0.36719-0.75-0.73828-0.40234-0.98438-0.83984-0.60547-0.48047-0.96484-0.99609-0.60938-0.95703-0.40625-0.66016-0.80469-1.0898-0.23438-0.80078-0.75781-0.95703-0.80469-0.69141-0.78516 0.48828-0.89844 1-0.09375-0.42969-0.95312-1.1875-0.13672-0.77344 0.75781-1.0352 0.097656-0.94141-0.51953-0.12891-1-0.33594-0.95703-0.67578-0.80078-0.80078 0.69922-0.80078 0.73047-0.80469 0.65234-0.85547 0.55469-0.60938-0.80078-0.90625-0.4375-0.73828-0.77344-0.79297-0.82031-0.95312-0.42578 0.42969 0.96875-1.1367 0.14062 0.39844-0.94141-0.70703-0.82422 0.77734-0.65234-0.41016-0.94141-0.94531-0.52734-0.44922-0.9375-0.58594-0.97656 1.0195 0.60938 0.90625 0.44922-0.45312-0.97656-0.63281-0.88672 0.027344-1-0.86328-0.60156-1.043-0.1875-0.78906-0.67188 0.98828-0.48047-0.44141-0.90625-0.62109-0.80469-0.86328-0.57031-0.36328-0.95703-0.87109 0.57031-0.11719-1.0664-0.94922-0.40625-1.0508-0.15234-0.99609-0.10938-0.75 0.71875-1.0234-0.13281-0.55469 0.83594-0.82031 0.57422-0.89062 0.46875-1.0117-0.046875 0.85156 0.60156-0.34375 1.0195 1.0703 0.070312-0.042969 1.0391 1.0352-0.21484 0.98438 0.21094 1.0156-0.085937 0.3125 0.95703 0.79297 0.71094-0.10938 1.0898 0.70703 0.73828-1.0117-0.13672-1.0234-0.0625-0.625-0.82422-0.87109-0.57031-0.94922-0.71875-1.0391-0.40234-0.88672 0.52344-0.20703 0.99609 0.21875 0.99219-1.1289 0.17969-0.99609-0.12891 0.12109 1.0312-0.83594 0.58203-0.52734-0.91016-0.63672-0.80078-0.62109-0.80078-0.96875-0.46875-0.75-0.66797-0.24219-1.0078-0.92188-0.44531-1.0781 0.11328 0.32031 1.0742 0.71875 0.72656-0.042969 1.0859-0.55469-0.83984-0.51172-0.89844-0.78516-0.93359-0.87109 0.54297 0.15625 0.99219-0.98047 0.27734-0.52344 0.90625-0.91406-0.41406-0.60938-0.87109-0.625 0.79688-1.0078 0.19141-0.97266-0.29688 0.61719 0.78906 0.95703 0.32031-1.0234-0.03125-0.94531-0.41797-0.42188 0.99609 0.36719 0.96094 0.64062 0.78125 0.75 0.67578 1.0039 0.17969 0.76562 0.70703 0.85547 0.60938-0.99219-0.20312-0.82812 0.60156-0.78516-0.69141-1.0234-0.1875 0.82812 0.64844 0.92969 0.42188-0.32031 0.94922 0.71875 0.71094 1.0352-0.35938 0.89844-0.43359 0.97266-0.30859-0.12891-1.0156 0.76953-0.74219-0.28906-0.98828 0.625 0.80078-0.73828 0.74609 0.87109 0.57031 1.0195 0.38672 0.89453-0.64062 0.98047 0.3125 0.95703-0.53906 0.90234 0.44531-0.10156 0.99609-1.043-0.16406-0.97656-0.23047-1.0586 0.21484-0.98047 0.47656-0.625 0.82812-1.0273-0.42969-1.0508-0.35938-0.89453 0.57812-0.79297 0.625-0.70312-0.72266-0.94141-0.38281-0.98438-0.38281-0.97266-0.28906-0.50391 0.92188-0.875 0.53906-0.75781 0.69531-0.57031 0.86328-0.007813-1.0312 0.03125-1.1055-0.12109 1.1133-0.44531-0.90234-0.25 0.98438 0.37891 0.96875-0.61328 0.80859-0.82031 0.61719 0.47656 0.91797 0.53125 0.84766-0.42578 0.91016 0.65625 0.87891 0.51953 0.87109 0.8125 0.68359 0.015625 1.0391-0.19922 1.0195 0.47266 0.88281 0.74609 0.72656 0.47656 0.92578 0.37891 0.97266 0.55859 0.84375 0.25-1.0078 0.03125 1.125 0.48828 0.90625 0.32422 0.94922 0.71875 0.70703 0.88281 0.48047 0.55859 0.83594 0.66797 0.79688 0.48828 0.91406 0.13281 1.125 0.61328 0.82422 0.84766 0.60156 0.42969 0.91016 0.67969 0.78516 0.84766 0.65234 0.69531 0.78906 0.56641 0.85156 0.69531 0.73438 0.53906 0.86328-0.88281 0.53516 0.42578 0.91016-0.125 1.1172 0.71094 0.73828 0.023438 1.0195 0.61328 0.81641 0.75781 0.66797 1.0312 0.11719 0.71094-0.71094 1.0117 0.10938 0.42188 0.93359 0.47656 0.90625 0.24609 0.97656-1.0312 0.17578-0.94531-0.46484-0.84766-0.56641-0.81641-0.59766-1 0.007812 0.22266 0.99219 0.72266 0.69141 0.79297 0.62891 0.65625 0.76172 0.91406 0.41406 0.83984 0.60156 0.86328 0.58594 0.8125 0.59766 0.78516 0.625-0.55078 0.83203-1.0039-0.003906-1.0039 0.058594-1.0039-0.10938-0.99609-0.11328-1.0156-0.11719-0.70312-0.73047-0.85938-0.57031-0.89062-0.47656-0.89453-0.5-0.66797-0.75-0.79688-0.61719-0.73828-0.70703-0.64062-0.77734-0.51562-0.88672 0.023438-1.0312 0.007812-1.0664 0.27734-0.96875 0.28906-0.98438-0.73438-0.73438-0.41797-0.91797-0.69531-0.72266-0.84766-0.55859-1.0039-0.36719-0.59766-0.84766-0.67578-0.78516-0.48828-0.88672-0.67188-0.78906-0.55859-0.83203-0.26172-0.97266-1.0039-0.19141-0.89453-0.50781-1.0156 0.027344-0.96094-0.42578-0.085937 1.0312 0.92578-0.37891 0.89844 0.49609 0.97656 0.21484-1.0195 0.21484-0.38672 1.0156-0.61328 0.80469 1.0234 0.19531 0.53906 0.84766-0.37109 1.082-0.98438 0.28125-0.011719 1.0039 0.94922-0.47266 0.86328 0.5625-0.12109 0.99219-0.51562 0.85938-0.60938 0.80078-0.73438 0.98438-0.65625 0.76562-0.1875 1.0664-0.71875 0.73438-1.0117 0.22266-0.45703-0.89844-1.0391 0.1875 0.43359 0.99609 0.41406 0.94141 0.34766 0.96094-0.66406 0.83984-0.80469 0.71094-1.1875-0.089844-0.64844-0.78906-0.87891-0.5-0.90234-0.50391-1.0156-0.0625-0.91406 0.44531-0.3125 0.96484-0.39062 0.9375-0.85156 0.63281-0.25 0.98828 0.34375 0.95312 0.53906 0.83984-0.089844 1.0078-0.83594 0.60938-0.25 1.0039 0.035157 1.043 0.77344 0.67578 0.36328 0.94141 0.625 0.79688 0.87891 0.61719 0.83203-0.55469 0.61719 0.85938 0.74609 0.73828 0.21094 1.0039 0.32422 0.96094-0.88672 0.52344h-1.0508l-1.0508 0.42578-0.003906 1.043-0.31641 0.97266 0.73438 0.70312 0.97656 0.24219 0.39453 0.94922 1.0117 0.12891 0.92188-0.41016 0.77734-0.66797 1-0.21875 0.90234 0.4375 0.81641 0.65234 1.2578 0.42969 0.91016 0.44141 0.98438 0.41016 0.57422 0.81641 1.0469 0.32031 1.0273 0.12109 1.0742-0.12109 0.91797 0.71875 0.24219 0.98047 0.10156 1.0039 0.63672 0.77344 0.875 0.5625 0.42969 0.98438 0.64844 0.76172 1.207 0.066406 0.33984-1.0195 0.4375-0.90234 0.79688 0.84766-0.125-1.0195 0.90625-0.44141 1.2031 0.17578 0.84375 0.65625 0.875 0.64844 1.1289-0.25 0.92969 0.40234 0.87891-0.625-0.070312-1.0664-0.32812-1 0.039062-1-0.86719-0.50391-0.87109 0.60156 0.10156-1.0781-0.52734-0.86328-0.76172-0.76953-0.44141 0.91797-1.0156-0.023438 0.58984-0.81641-0.97656-0.39844-0.44922-0.94531-0.95312 0.3125-0.97266 0.35547-0.57422-0.85156-0.23438-1 0.45703-0.91406 0.34766-0.98047 0.25391-0.98047-0.058594-1.0117 0.23828-1.1523 0.64844-0.79688 0.70703-0.77734 0.74219-0.79688 1.0586 0.20312 0.98047-0.38672 0.36328 1.1172 0.29688 0.98828 0.49609 0.90625 0.98047 0.37891 0.75781 0.78516 0.625 0.875 0.89453 0.62891-0.80859 0.83594-0.26172 1.0391-0.32812 1.4492 0.29688 1.0703 0.40234 1.1836 0.26172 0.98438 0.35156 1.0234 0.77344 0.64062 0.09375 1.0195 0.11719-1.0352 0.89453 0.49219 0.89844 0.63672 0.46484-0.95312 1.0156-0.15625 0.4375 0.91406 1.0469 0.54297 1.0195 0.32812 0.98828 0.17188 0.42969 0.99219 0.39844 0.95312 0.63281 0.87891 0.51953 0.90234 0.70312 0.72656 0.70703 0.70703 0.83594 0.56641 1.0469-0.27344 0.65625 0.79688 1.1484 0.23438 0.98438 0.28125 0.66797 0.74219 0.96484 0.33594 0.88281-0.51172 0.87109 0.52734 1.0039-0.15234 1-0.023437 0.88672-0.49219 0.99609-0.16016 0.93359-0.37891 1 0.042968 0.93359 0.38281 0.82812-0.59375 0.70312 0.74609 0.95312 0.43359 0.92188 0.39062 0.75 0.72266 0.95312 0.3125 0.074219 1.0078 0.44531 0.91016 0.96875-0.35547 0.44141-0.91797 0.60547 0.84375 0.55859 0.84766 0.99219 0.19141-0.25781-1.0352-0.75781-0.70312-0.90234-0.59375-0.94141-0.41016-0.75-0.78906-0.87109-0.58203-0.92188-0.49219-1.0078-0.20703-0.86328-0.68359-0.95703-0.38281-0.98438-0.29297-1.0742-0.39453-1.0078-0.19531-1.0039-0.15234-1.0352-0.054688-1.1055-0.019531-1.1602-0.13672-1-0.046875-1.0195 0.14453-0.94141 0.46484-0.96094-0.31641-1.0352-0.15625-1.0625-0.1875-1.0781-0.007812-0.96875 0.35156-0.92969-0.86328-0.64844-0.99219-0.46484-0.92188-0.26953-0.96875-0.042969-1.0664 0.17969 1.0547 0.27734 0.98828 0.44531 0.94531 0.58984 0.89844 0.95312 0.42969 1.1172-0.066406 1.0039 0.14062 1.2656 0.078125 1.0195-0.17969 1.0195-0.007813 1.2539 0.03125 1.0078 0.007813h1.1055l1.3633 0.12109 1.1328 0.125 1.1758 0.125 1.1758 0.30469 1.0625 0.35156 0.95312 0.34766 1.2266 0.51562 1.0078 0.46094 1.0312 0.48438 0.85938 0.5625 0.9375 0.57422 0.95703 0.375 1.0469 0.003906 1.0039-0.085937 0.99609-0.13281 0.89062 0.86719 0.41406 0.96094 0.082031 1.0391 0.57422 0.83594 0.70703 0.98047 0.79297 1.1445 0.32812 1.1484-0.039063 1.125-0.27344 1.082-0.17188 1.0312-0.17969 1.082-0.53125 0.88672-0.79297 0.68359-0.53516 1.0078-0.94922 0.32422 0.84766-0.60938 0.47656-0.95703 0.75391-1.1484 0.32422-1.1094-0.30469-0.99219 0.10156-1-0.066406-1.1992-1.0039-0.35156-1.0469-0.52734 0.78516 0.65234-0.082031 1.0039-0.94141 0.33984 0.039063 1.0156-0.11719 1.1016-0.18359 1.0117-0.95312 0.39844-0.75781 0.65234 0.42578 0.94922-0.89844 0.50391-0.64062 0.80469-0.84375 0.59375-0.60156 0.82031-0.65625 0.79297-0.78125 0.625 0.28906 0.95703 0.88672 0.59766-0.42188 1.1055-0.55469 0.91406-0.37891-0.94531-0.45703-0.94922-0.32031 1.0586-0.050781 1.1328 0.019531 1.0234 0.55078 1.1016 0.70312 0.73438 0.80469 0.68359 1.2266-0.21484 0.94531-0.45312 1.2461-0.09375 1.0078-0.085937 0.87109-0.87891 0.84375-0.60938 0.80469-0.62109 1.043-0.29688 1.0039 0.21484 0.67969 0.75781 0.96875 0.31641 0.875-0.74609 0.92578-0.44531 0.64062 1.0039-0.47656 0.90625-1.3477 0.24219 0.0625 1.1875 0.72656 0.78125 0.87109 0.82422 0.58594 0.92969 0.91406 0.78516 0.79688 0.73047 0.82422 0.75 0.98438 0.23828 1.4453 0.22266 0.99219 0.12109 1.2617 0.1875 1.1445-0.1875 1.1016-0.054687 0.93359 0.39062 0.19141 0.98828 0.078125 1.0156 0.76953 0.77734 0.50391 0.89453 1.0273 0.089844 0.65625 0.80859 0.92578-0.60547 0.89453-0.76953 0.55859-0.86328 0.003907-1.043 0.80469-0.79688 0.79688 0.6875 1.1836-0.19531 1.0898 0.11328 1.0117-0.38672 1.0273-0.23828 1.2422-0.43359 1.0586-0.042969 1.1016-0.03125 1.0977-0.30078 1.0352-0.32422 1.2227-0.59766 1.3086-0.69531 0.89844-0.45703 0.76953 0.64844 1.043 0.10156 0.42969-0.95703-0.79297-0.70312 1.1133-0.61328 1.2383-0.33203 1.1875-0.78906 1.0586-0.82812 0.80859-1.1758 1.2695 0.66797 1.0195 0.26562 0.97656 0.44141 1.2852 0.92578 1.0273-0.089844 0.035156-1.2812 0.98438-0.78516 1.2188-0.48047 1.1875-0.625 1.0391 0.23438 1.2305 0.51172-0.32031 0.95312-0.30078 0.99609 0.070313 1.0312-0.49219 0.89844 0.19922 0.98828-0.6875 0.83594-0.42578 0.93359-0.33594 0.97266-0.96484-0.33203-0.58203 0.89844-0.53125 0.91797-1.043-0.097657 0.51953-1.0352 0.21484-1.0508 0.4375-0.98828 0.53125-0.88281-0.87891 0.51172-0.71094 0.73047-0.15625 0.98828-0.77344 0.63672-1.0703-0.29297-0.48438 0.91406-0.74219 0.68359-0.93359-0.87891-0.4375-0.95312-1.1328-0.37891-0.82031-0.61328-0.81641 0.59375-0.98438 0.25781-0.050781 1.0078-0.23828 1.0547 0.84766 0.59375 1.0547-0.058594 1.0547 0.21094 0.74219 0.79688 0.68359 0.87109 0.44922 0.96875 0.53516 1.0117 0.53125 0.86328 0.45703 1.0234-0.027344 1.0664 0.14453 1.0781-0.41406 0.94531-0.27734 1.0977-0.22656 1.0273 0.375 0.92969 0.13281 1.0391 0.30078 0.98047-0.73438 0.73047-0.49609 0.88281-0.87891 0.51172-0.28125 1.0938-0.78125 0.78125-0.90625 0.44531-0.55078 0.875-0.65234 0.85156-0.82031 0.66016-0.9375 0.48438-0.55859 0.85547-0.56641 0.9375-0.31641 1.0039-0.22266 0.98828 1 0.22656 1.0039 0.21484 0.13672 0.99609 0.53906 0.87109 0.5625 0.88672 0.31641 0.96094 0.97266 0.63281 0.73438 0.73047 0.71875 0.75391 0.67578 0.73828 0.41797 0.95703-0.1875 1.0625 0.45312 1.0352 0.085938 1.25 0.25 1.1641 0.43359 0.91797 0.85938 0.77734 0.027344 1.3828 0.44922 1.0625 0.85156 0.89844 1.1328 0.87891-1.3906 1.9062-1.0469 0.14062-0.8125 0.62109-0.85938 0.57031-0.9375 0.66797-1.0391-0.007812-1.4414 0.8125-0.97266 0.27344-1.0469 0.60547-2.1055 1.0547-1.2305 0.39062-1.5273 0.26172-1.0781-0.36719-0.99609 0.36328-1.1719 0.91016-2.0078 0.375-1.4609 3.5195-0.003906 1.2461-0.21484 1.8906-0.30469 1.5234-1.0977 0.19141-1.3438 1.6094-0.57031 0.87891-0.71875 1.6055-4.0664 3.0781-0.84766 0.85547-2.6562 2.8477-2.4766 2.6875-2.3164 4.1523 0.51953 1.0586-1.7812 2.2812-0.95312 0.76562-1.9492 0.26953-1 0.14062-0.65234 0.81641-0.65234 0.83203-0.58984 0.86328-0.78516 0.78516 0.26172 1.0078 0.74609 0.66797 0.53906 1.0352 0.66406 0.75391-0.125 1.0859 0.042969 1.6289-1.9688 1.7852-1.8125 1.5156-3.0977 1.1133-1.2227-0.91797-1.4531 0.1875-1.9531 1.668-1.2109 0.875-3.3398 2.4102-5.2383 1.5234-0.6875 1.8281-1.2109 1.1836 0.49219 1.0273-0.72266 0.71094-0.52734 0.92969-1.1016 0.25781-1.082 0.51172-0.61719 0.80078-0.27734 0.98828-0.4375 1.3711-0.69922 2.25-1.3203 1.3633-1-0.23828-0.625 0.94531v0.97266m-64.57-176.26 0.046875-0.011719 1-0.38672 0.74219-0.78906 0.77344-0.69922 0.95312-0.33594 1.0352 0.015625 1.0234-0.12891 0.875-0.58594-0.6875-0.73828-0.089844-1-0.66797-0.78516-0.95312-0.33594 1.0664 0.050781 0.32422-1.0078-1.0586 0.12109-1.0039 0.16016-0.88281 0.50391-0.86328 0.51172-1-0.43359-0.87891-0.51953 0.30469-1.0117-0.31641-0.96484-0.32031 0.98438-0.65234 0.78516-0.21875 1 0.16016 1.0234-0.089843 1.1211 0.17188 1.0352 0.66797 0.76953-0.58594 0.85156 0.66016 0.81641 0.41406 0.003906 0.050781-0.019531m31.223-64.34 0.035156-0.03125 0.9375-0.43359 0.98438-0.38672 0.86719 0.80078 0.69922-0.73047 0.92578-0.64453-0.96484-0.25781-0.97656-0.57812-0.72656-0.71875-0.41797-0.91797-0.45703-0.96484-0.625-0.78516-0.070312-1-0.72656-0.72656-1.0508-0.32812-1.0156 0.12109-0.03125 1.0469-0.39844 0.94531-1.0117-0.29297-0.62891-0.80469-0.73047-0.73047-0.12109-1.1289 0.054687-1.0469-0.18359-1.0039-0.76172-0.67188-0.56641-0.83203-0.375 1.0117-0.39062 0.95703-0.28516 0.99609 0.33594 0.99219 0.10156 1.0273 0.33203 1.0078-1.0156-0.11719-1.0078-0.5625-0.5-0.88281-0.99219-0.25781 0.14844 1-0.79688-0.72656-0.27734-1.0781-0.37109-0.95312-0.625-0.82422 0.36719-0.96875-0.71094-0.79688-1.3672-0.11719-0.45703 0.94922-1.0078-0.019532-0.85156 0.55859-0.91406 0.89844-0.88281 0.52734-0.54688 0.90234-1.0078 0.24609-1.1172-0.09375-0.94141 0.38672 0.24219 0.97266-0.058594 1.0586 0.90625 0.42969 0.83203 0.62109 0.97266 0.53906 1.1484 0.59766 1.0938 0.53516 0.95703 0.33203 1.1211-0.078125 1 0.21094 1.0117-0.058594 1.0312 0.25391 1.0938 0.097656 1.1523 0.15234 1.0391 0.40625 0.92578 0.51172 1.0586 0.078125 1.0586-0.09375 1.0977 0.18359 0.73438 0.91797 0.94531 0.54297-0.49219-0.89453-0.43359-0.94531-0.6875-0.83984 0.96875 0.25391 0.60547 0.96094 0.97266-0.32031-0.49219-0.96875 0.87891 0.66406 0.69531 0.82812-0.007813 1.1406 0.67578-0.015625 0.070312-0.035156m25.762 50.125 0.058594 0.019531 0.88672 0.47266 0.66406 0.78125-0.67578 0.82031-0.32031 0.96875-0.98438 0.37891-1.1133 0.007813-0.58594-0.8125-0.32812-0.99609 0.64453-0.78906 0.72656-0.70312 0.98047-0.15625 0.046875 0.007812m2.5234 11.801 0.10156 0.19531 0.49609 0.90625 0.41016 0.92578-0.046875 1.0508-0.003906 1.0547-0.41016 0.91797-0.30078-1.0469-0.375-1-0.4375-0.94141-0.55859-1.1875 0.55859-0.89453 0.45312-0.089844 0.11328 0.10938m-16.617 16.719-0.050781 0.039063-0.64453-0.78125 0.6875-0.74609 0.57031 0.85547-0.50781 0.61719-0.054687 0.015625m15.516-0.25781 0.046875 0.058594 0.80469 0.6875 0.83203 0.69531 0.84766 0.53125-1.0117 0.17188-0.99219-0.20312-1.125 0.34375-0.66406 0.75781 0.19922-0.98828 0.32812-0.98828 0.27344-0.98828 0.44531-0.085938 0.015625 0.007813m87.859 39.703 0.0625 0.054687-0.35938 0.94531-0.97656-0.37109-0.16016-1.0234 1.0586 0.18359 0.24609 0.13281 0.12891 0.078125m14.477 13.273-12.113 6.4805-0.015625-3.0234 0.015625-16.793 3.918 3.7617 1.9648 1.375 6.2305 4.918v3.2812" fill="none" stroke="#fff" stroke-linecap="round" stroke-linejoin="round" stroke-miterlimit="10"/>
<path d="m188.8 329.8c0 3.5898-2.9102 6.5-6.5 6.5-3.5898 0-6.5-2.9102-6.5-6.5s2.9102-6.5 6.5-6.5c3.5898 0 6.5 2.9102 6.5 6.5" fill="#28c028" fill-rule="evenodd" stroke="#000" stroke-linecap="round" stroke-linejoin="round" stroke-miterlimit="10"/>
<path d="m111.52 323.8v-16.469h5.3438c2.0195 0 3.3359 0.085938 3.9531 0.25 0.9375 0.25 1.7227 0.79297 2.3594 1.625 0.63281 0.82422 0.95312 1.8867 0.95312 3.1875 0 1.0117-0.18359 1.8672-0.54688 2.5625-0.36719 0.6875-0.83594 1.2305-1.4062 1.625-0.5625 0.38672-1.1367 0.64062-1.7188 0.76562-0.79297 0.16797-1.9375 0.25-3.4375 0.25h-2.1719v6.2031zm3.3281-13.672v4.6719h1.8125c1.3125 0 2.1875-0.085937 2.625-0.26562 0.44531-0.17578 0.79688-0.44531 1.0469-0.8125 0.25-0.36328 0.375-0.78906 0.375-1.2812 0-0.59375-0.17969-1.082-0.53125-1.4688-0.35547-0.39453-0.79688-0.64062-1.3281-0.73438-0.39844-0.070312-1.1953-0.10938-2.3906-0.10938zm12-2.7969h3.3125v8.9219c0 1.418 0.039063 2.3359 0.125 2.75 0.14453 0.67969 0.48438 1.2188 1.0156 1.625 0.53906 0.40625 1.2734 0.60938 2.2031 0.60938 0.9375 0 1.6445-0.19141 2.125-0.57812 0.47656-0.38281 0.76562-0.85938 0.85938-1.4219 0.10156-0.5625 0.15625-1.4922 0.15625-2.7969v-9.1094h3.3281v8.6562c0 1.9688-0.09375 3.3672-0.28125 4.1875-0.17969 0.8125-0.50781 1.5-0.98438 2.0625-0.48047 0.5625-1.125 1.0117-1.9375 1.3438s-1.8711 0.5-3.1719 0.5c-1.5742 0-2.7656-0.18359-3.5781-0.54688s-1.4531-0.83203-1.9219-1.4062c-0.46875-0.58203-0.77734-1.1914-0.92188-1.8281-0.21875-0.94531-0.32812-2.3438-0.32812-4.1875zm16.656 16.469v-16.469h3.2344l6.75 11v-11h3.0781v16.469h-3.3281l-6.6406-10.734v10.734zm15.906-8.125c0-1.6758 0.25-3.0859 0.75-4.2344 0.375-0.83203 0.88281-1.582 1.5312-2.25 0.64453-0.66406 1.3516-1.1602 2.125-1.4844 1.0312-0.4375 2.2188-0.65625 3.5625-0.65625 2.4141 0 4.3516 0.75781 5.8125 2.2656 1.457 1.5 2.1875 3.5938 2.1875 6.2812 0 2.6562-0.72656 4.7344-2.1719 6.2344-1.4375 1.5-3.3711 2.25-5.7969 2.25-2.4492 0-4.3984-0.74219-5.8438-2.2344-1.4375-1.5-2.1562-3.5547-2.1562-6.1719zm3.4219-0.125c0 1.8672 0.42969 3.2812 1.2969 4.25 0.86328 0.96094 1.957 1.4375 3.2812 1.4375 1.3203 0 2.4062-0.47266 3.25-1.4219 0.85156-0.95703 1.2812-2.3906 1.2812-4.2969 0-1.8945-0.41797-3.3047-1.25-4.2344-0.82422-0.92578-1.918-1.3906-3.2812-1.3906-1.375 0-2.4844 0.47656-3.3281 1.4219-0.83594 0.9375-1.25 2.3516-1.25 4.2344zm0 0" fill="none" stroke="#fff" stroke-linecap="round" stroke-linejoin="round" stroke-miterlimit="10" stroke-width="2"/>
<path d="m111.52 323.8v-16.469h5.3438c2.0195 0 3.3359 0.085938 3.9531 0.25 0.9375 0.25 1.7227 0.79297 2.3594 1.625 0.63281 0.82422 0.95312 1.8867 0.95312 3.1875 0 1.0117-0.18359 1.8672-0.54688 2.5625-0.36719 0.6875-0.83594 1.2305-1.4062 1.625-0.5625 0.38672-1.1367 0.64062-1.7188 0.76562-0.79297 0.16797-1.9375 0.25-3.4375 0.25h-2.1719v6.2031zm3.3281-13.672v4.6719h1.8125c1.3125 0 2.1875-0.085937 2.625-0.26562 0.44531-0.17578 0.79688-0.44531 1.0469-0.8125 0.25-0.36328 0.375-0.78906 0.375-1.2812 0-0.59375-0.17969-1.082-0.53125-1.4688-0.35547-0.39453-0.79688-0.64062-1.3281-0.73438-0.39844-0.070312-1.1953-0.10938-2.3906-0.10938zm12-2.7969h3.3125v8.9219c0 1.418 0.039063 2.3359 0.125 2.75 0.14453 0.67969 0.48438 1.2188 1.0156 1.625 0.53906 0.40625 1.2734 0.60938 2.2031 0.60938 0.9375 0 1.6445-0.19141 2.125-0.57812 0.47656-0.38281 0.76562-0.85938 0.85938-1.4219 0.10156-0.5625 0.15625-1.4922 0.15625-2.7969v-9.1094h3.3281v8.6562c0 1.9688-0.09375 3.3672-0.28125 4.1875-0.17969 0.8125-0.50781 1.5-0.98438 2.0625-0.48047 0.5625-1.125 1.0117-1.9375 1.3438s-1.8711 0.5-3.1719 0.5c-1.5742 0-2.7656-0.18359-3.5781-0.54688s-1.4531-0.83203-1.9219-1.4062c-0.46875-0.58203-0.77734-1.1914-0.92188-1.8281-0.21875-0.94531-0.32812-2.3438-0.32812-4.1875zm16.656 16.469v-16.469h3.2344l6.75 11v-11h3.0781v16.469h-3.3281l-6.6406-10.734v10.734zm15.906-8.125c0-1.6758 0.25-3.0859 0.75-4.2344 0.375-0.83203 0.88281-1.582 1.5312-2.25 0.64453-0.66406 1.3516-1.1602 2.125-1.4844 1.0312-0.4375 2.2188-0.65625 3.5625-0.65625 2.4141 0 4.3516 0.75781 5.8125 2.2656 1.457 1.5 2.1875 3.5938 2.1875 6.2812 0 2.6562-0.72656 4.7344-2.1719 6.2344-1.4375 1.5-3.3711 2.25-5.7969 2.25-2.4492 0-4.3984-0.74219-5.8438-2.2344-1.4375-1.5-2.1562-3.5547-2.1562-6.1719zm3.4219-0.125c0 1.8672 0.42969 3.2812 1.2969 4.25 0.86328 0.96094 1.957 1.4375 3.2812 1.4375 1.3203 0 2.4062-0.47266 3.25-1.4219 0.85156-0.95703 1.2812-2.3906 1.2812-4.2969 0-1.8945-0.41797-3.3047-1.25-4.2344-0.82422-0.92578-1.918-1.3906-3.2812-1.3906-1.375 0-2.4844 0.47656-3.3281 1.4219-0.83594 0.9375-1.25 2.3516-1.25 4.2344z" fill-rule="evenodd"/>
</g>
</svg>
