<?xml version="1.0" encoding="UTF-8"?>
<svg width="395pt" height="500pt" version="1.1" viewBox="0 0 395 500" xmlns="http://www.w3.org/2000/svg">
<g id="a">
<rect width="395" height="500" fill="none"/>
<path d="m169.79 272.09 1.082 0.55859 1.6562 2.1289 2.1797 1.3164 4 1.9297 3.1875 0.83984 0.70312 1.9883 0.33203 1.3906 0.24219 1.0273-0.26953 1.543-0.53516 1.543-0.10547 1.0469-0.34375 1.3867-0.55859 0.95312-1.1016 1.168-1.125 0.89453-0.76172 1.1797 0.40234 1.5977 1.1406 1.2188 0.98438 0.96484 0.85938 2.043 1.0898 2.3047 0.98438 0.92969 0.80078 0.98828 0.34375 0.95312 0.89453 1.7891 1.4648 1.0938 1.1445 1.4297 1.0234 0.34766 1.3867 1.0469 0.69531 1.1523 0.98047 1.5508 0.19141 1.2148-0.078125 1.6172 0.94531 0.84766 1.3516 0.15234 1.4961 0.20312 1.9805 1.0664 1.0117 0.25 0.86328 0.67969 1.1602 1.043 1.2148 0.61328 1.1641 0.55078 0.875 0.60547 1.2891 1.0469 0.65234 0.97266 0.17188 1.0273 0.58203 1.1992 1.3164 1.1328 0.96875 0.46484 0.38672 1.1992 0.55078 1.1211 0.82812 0.92578 1.4609 0.88672 1.25 0.71875 2.7109 2.1016 1.0352 0.32812 1.1328-0.046875 1.0781 0.28906 1.5703-0.039063 1.1797-0.37891 1.0156 0.46484 1.8945 1.2773 1.5664 0.58203 1.1992 0.40234 1.7539-0.14062 1.5547 0.49219 0.57031 0.96094-0.027344 1.3516 1.0273 1.2422 1.2305 1.1875 0.60938 1.2656 0.82031 1.1328 1.0078 1.3906-11.188 12.477-1.2773 1.375-9.3438 10.145-9.9258 17.801 1.7266 3.5273 0.5 1.0234-1.2969 1.7109-6.3359 8.0586-4.0938 3.293-8.3672 1.1562-3.8828 0.65234-0.85156 0.60547-1.3594 1.2852-0.46875 1.0078-1.5234 1.7109-0.70703 0.79688-0.97266 1.3164-0.50781 0.92188-0.99219 0.36328-0.73438 1.0586-0.4375 0.96875-0.050781 1.082-0.98438 0.5625-0.97266 0.75391-0.53125 0.89453-0.80078 0.75-0.75781 0.91797-0.34766 1.1094 0.53516 1.207 1.1719 0.62891 1.6367 0.89844 1.3047 1.0703 0.70312 1 0.35938 1.2305 0.375 1.2773 0.48047 0.96094 1.1719 1.3359 0.94531 1.1289 0.71484 0.875 1.0312 0.98438 0.41016 0.92969-0.32031 1.2188-0.88281 1.0234 0.42188 1.7188 0.17969 6.9844-8.4375 7.668-7.7812 6.5-13.285 4.7734-5.2344-3.9453-2.8242-2.0742-3.418 2.8789-8.3672 7.1562-3.5859 2.5859-1.6055 1.1602-14.324 10.34-22.461 6.5352-2.9414 7.832-0.78125-0.69922-0.51562-2.7266-1.0195-1.2148-1.2539-0.375-1.6836-2.1602-0.80859-1.2266-0.87891-0.78125-0.99609-0.63281-1.0625-0.83984-0.60547-1.6562-0.058594-1.4062-2.0898-1.625-1.5586-1.6211-0.51562-1.4453-0.24609-1.3008 1.1797-2.0938 0.12109-1.1406 0.53906-1.3398 0.25781-1.9648 0.14453-2.918-0.42188-1.8008-1.0703-1.668-2.0312-2.1094-1.2383-0.89844-1.6094-1.4219-1.7773-1.5898 0.28125-1.7734 1.25-1.7305 0.82031-0.92188 0.82812-0.66406 1.4922-1.5742 0.86328-0.50781 1.1562-0.61719 0.9375-0.90625 1.3477-0.73047 1.4023-0.22266 0.97656 0.61719 1.1445 1.0117 0.88281 0.71094 0.99219 0.64844 1.0117 0.28516 1.2773-0.48438 1.4766-1.3086 0.76172-0.81641 1.5469-2.3672 0.64844-0.82031 2.5586-0.14453 1.3828-0.074219 1.0195-0.34766 0.54297-1.1914-0.14844-1.1094 0.42188-1.1953 1.0664-0.25391 1.1562-0.34375 1.4023-0.10547 2.0742 0.046875 0.95312-0.64453 0.59375-1.6992 0.003906-1.6523-0.55859-1.457-0.78516-1.668-0.90234-0.67578-1.1445-0.41016-1.1797-1.4023-0.61719-1.0547-0.19531-1.2422 0.21484-1.4141 0.67578-1.7422 0.69922-0.8125 1.1016-0.71875 0.83594-0.58203 0.32031-0.96484 0.10938-1.0742-0.15625-2.8828 0.64062-2.7305-0.19922-2.3438-0.25-1.8008-0.23438-1.2812-0.62109-0.79297-0.91016-0.64062-0.54297-1.5273-0.15234-1.3945v-1.0664l-0.68359-2.2969-0.51562-1.043-0.53906-1-0.42188-1.2461 0.16797-1.6055-0.14062-1.625 0.22656-1.2422 1.2461-0.13281 1.1445-0.11719 1.582-1.0703 1.1328-0.75781 0.79688-0.83984-0.76562-1.0391-0.28906-1.4922-1.7891-1.9766-0.95312-0.85938-1.0078-1.0469-1.2656-1.6367-0.67188-1.3711-0.17188-1.543-0.47266-1.1992-0.91797-1.5625-0.94141-1.125-1.2617-1.2539-0.85938-0.71875-0.94922-0.50391-0.52344-1.4102-0.89453-1.3125-1.418-1.9883-0.63281-0.78906-0.78516-0.625-0.54297-1.0234 0.44922-1.2266 0.69141-1.5352 0.60156-1.25-0.58984-2.1602 0.097656-1.0742 1.332-0.089844 1.2578-0.5 1.2227-1.3633 0.62891-0.94922 0.14453-1.2148-0.66016-1.4375-1.332-1.8984-0.38281-1.0078-0.66016-1.8438-1.2617-1.8438 0.47656-1.4258 0.65625-0.78516 1.1328-2.3555-0.20703-1.582-0.50391-0.88672-0.16797-1.1367 1.0625-0.74219 1.125-1.0234 0.35156-1.0273 0.67578-1.7031 0.54297-1.668-0.26562-1.0938-1.0938-2.0508-0.42969-1.6094-1.0898-0.86328-1.0938-1.2656-1.0273-0.77344 0.058594-1.1758 1.0195-1.1016 0.1875-0.98438-0.054688-1.8398 0.74609-1.4062 0.65234-0.96875 0.61719-0.98438 0.62109-0.84766 0.78516-0.65625 1.5078-0.76172 1.5352-0.18359 1.0586-0.54688 0.69531-1.6094 0.21875-1.0195 0.22656-1.5039 0.94141-1.0391 0.89844-1.3672 0.42188-1.8359 0.23438-3.082 1.625-0.45312 1.1016-0.089844 0.83984-0.73828 0.68359-0.89062 0.17578-1.0352 0.26172-1.1758 1.3047-0.066406 1.1172-0.62891 1.2188-1.2109 0.95703-0.375 0.69531-0.91797-0.082031-1.1641-0.3125-1.293 0.13672-1.043-0.011719-1.6133 0.90625-1.3945 0.42969-1.6367 0.12109-1.7891 0.78516-0.99609 1.6836-0.28906 0.64844-1.6875-0.0625-1.082 1.3633 0.23047 1.3516 0.20312 1.082-0.76172 1.043-0.69141 1.7305 0.83203 0.67188 0.77344 0.50391 1.2148 0.60156 1.168 0.89062 0.80859 1.4492 0.6875 0.99219 0.82422 1.5391-0.003907 1.3281-0.48438 1.1289-0.13281 1.1836-0.75781 1.0938 0.042969 1.2109 0.76562 1.1211-0.1875 1.6641-0.85156 2.4648-1.1836 1.4844-1.1758 1.4062-1.0391 0.90234-0.52734 1.9805-0.59375 1.8164 0.058594 2.1172 0.53125 1.6211 0.28125 1.5117-0.050781 1.1289-0.26562 1.1562-0.54688 1.5234-1.1875 3.1562-1.9258 1.7227-0.60938 0.69922-0.77734 0.73047-1.2852 0.89453-1.168 1.1133-0.78516 1.2891-0.58203 1.4453-0.27344 1.2227-0.85938 1.4922-0.76172 0.93359-0.97656 1.1406-0.36328z" fill="#ccc" fill-rule="evenodd"/>
<path d="m169.79 272.09 1.082 0.55859 1.6562 2.1289 2.1797 1.3164 4 1.9297 3.1875 0.83984 0.70312 1.9883 0.33203 1.3906 0.24219 1.0273-0.26953 1.543-0.53516 1.543-0.10547 1.0469-0.34375 1.3867-0.55859 0.95312-1.1016 1.168-1.125 0.89453-0.76172 1.1797 0.40234 1.5977 1.1406 1.2188 0.98438 0.96484 0.85938 2.043 1.0898 2.3047 0.98438 0.92969 0.80078 0.98828 0.34375 0.95312 0.89453 1.7891 1.4648 1.0938 1.1445 1.4297 1.0234 0.34766 1.3867 1.0469 0.69531 1.1523 0.98047 1.5508 0.19141 1.2148-0.078125 1.6172 0.94531 0.84766 1.3516 0.15234 1.4961 0.20312 1.9805 1.0664 1.0117 0.25 0.86328 0.67969 1.1602 1.043 1.2148 0.61328 1.1641 0.55078 0.875 0.60547 1.2891 1.0469 0.65234 0.97266 0.17188 1.0273 0.58203 1.1992 1.3164 1.1328 0.96875 0.46484 0.38672 1.1992 0.55078 1.1211 0.82812 0.92578 1.4609 0.88672 1.25 0.71875 2.7109 2.1016 1.0352 0.32812 1.1328-0.046875 1.0781 0.28906 1.5703-0.039063 1.1797-0.37891 1.0156 0.46484 1.8945 1.2773 1.5664 0.58203 1.1992 0.40234 1.7539-0.14062 1.5547 0.49219 0.57031 0.96094-0.027344 1.3516 1.0273 1.2422 1.2305 1.1875 0.60938 1.2656 0.82031 1.1328 1.0078 1.3906-11.188 12.477-1.2773 1.375-9.3438 10.145-9.9258 17.801 1.7266 3.5273 0.5 1.0234-1.2969 1.7109-6.3359 8.0586-4.0938 3.293-8.3672 1.1562-3.8828 0.65234-0.85156 0.60547-1.3594 1.2852-0.46875 1.0078-1.5234 1.7109-0.70703 0.79688-0.97266 1.3164-0.50781 0.92188-0.99219 0.36328-0.73438 1.0586-0.4375 0.96875-0.050781 1.082-0.98438 0.5625-0.97266 0.75391-0.53125 0.89453-0.80078 0.75-0.75781 0.91797-0.34766 1.1094 0.53516 1.207 1.1719 0.62891 1.6367 0.89844 1.3047 1.0703 0.70312 1 0.35938 1.2305 0.375 1.2773 0.48047 0.96094 1.1719 1.3359 0.94531 1.1289 0.71484 0.875 1.0312 0.98438 0.41016 0.92969-0.32031 1.2188-0.88281 1.0234 0.42188 1.7188 0.17969 6.9844-8.4375 7.668-7.7812 6.5-13.285 4.7734-5.2344-3.9453-2.8242-2.0742-3.418 2.8789-8.3672 7.1562-3.5859 2.5859-1.6055 1.1602-14.324 10.34-22.461 6.5352-2.9414 7.832-0.78125-0.69922-0.51562-2.7266-1.0195-1.2148-1.2539-0.375-1.6836-2.1602-0.80859-1.2266-0.87891-0.78125-0.99609-0.63281-1.0625-0.83984-0.60547-1.6562-0.058594-1.4062-2.0898-1.625-1.5586-1.6211-0.51562-1.4453-0.24609-1.3008 1.1797-2.0938 0.12109-1.1406 0.53906-1.3398 0.25781-1.9648 0.14453-2.918-0.42188-1.8008-1.0703-1.668-2.0312-2.1094-1.2383-0.89844-1.6094-1.4219-1.7773-1.5898 0.28125-1.7734 1.25-1.7305 0.82031-0.92188 0.82812-0.66406 1.4922-1.5742 0.86328-0.50781 1.1562-0.61719 0.9375-0.90625 1.3477-0.73047 1.4023-0.22266 0.97656 0.61719 1.1445 1.0117 0.88281 0.71094 0.99219 0.64844 1.0117 0.28516 1.2773-0.48438 1.4766-1.3086 0.76172-0.81641 1.5469-2.3672 0.64844-0.82031 2.5586-0.14453 1.3828-0.074219 1.0195-0.34766 0.54297-1.1914-0.14844-1.1094 0.42188-1.1953 1.0664-0.25391 1.1562-0.34375 1.4023-0.10547 2.0742 0.046875 0.95312-0.64453 0.59375-1.6992 0.003906-1.6523-0.55859-1.457-0.78516-1.668-0.90234-0.67578-1.1445-0.41016-1.1797-1.4023-0.61719-1.0547-0.19531-1.2422 0.21484-1.4141 0.67578-1.7422 0.69922-0.8125 1.1016-0.71875 0.83594-0.58203 0.32031-0.96484 0.10938-1.0742-0.15625-2.8828 0.64062-2.7305-0.19922-2.3438-0.25-1.8008-0.23438-1.2812-0.62109-0.79297-0.91016-0.64062-0.54297-1.5273-0.15234-1.3945v-1.0664l-0.68359-2.2969-0.51562-1.043-0.53906-1-0.42188-1.2461 0.16797-1.6055-0.14062-1.625 0.22656-1.2422 1.2461-0.13281 1.1445-0.11719 1.582-1.0703 1.1328-0.75781 0.79688-0.83984-0.76562-1.0391-0.28906-1.4922-1.7891-1.9766-0.95312-0.85938-1.0078-1.0469-1.2656-1.6367-0.67188-1.3711-0.17188-1.543-0.47266-1.1992-0.91797-1.5625-0.94141-1.125-1.2617-1.2539-0.85938-0.71875-0.94922-0.50391-0.52344-1.4102-0.89453-1.3125-1.418-1.9883-0.63281-0.78906-0.78516-0.625-0.54297-1.0234 0.44922-1.2266 0.69141-1.5352 0.60156-1.25-0.58984-2.1602 0.097656-1.0742 1.332-0.089844 1.2578-0.5 1.2227-1.3633 0.62891-0.94922 0.14453-1.2148-0.66016-1.4375-1.332-1.8984-0.38281-1.0078-0.66016-1.8438-1.2617-1.8438 0.47656-1.4258 0.65625-0.78516 1.1328-2.3555-0.20703-1.582-0.50391-0.88672-0.16797-1.1367 1.0625-0.74219 1.125-1.0234 0.35156-1.0273 0.67578-1.7031 0.54297-1.668-0.26562-1.0938-1.0938-2.0508-0.42969-1.6094-1.0898-0.86328-1.0938-1.2656-1.0273-0.77344 0.058594-1.1758 1.0195-1.1016 0.1875-0.98438-0.054688-1.8398 0.74609-1.4062 0.65234-0.96875 0.61719-0.98438 0.62109-0.84766 0.78516-0.65625 1.5078-0.76172 1.5352-0.18359 1.0586-0.54688 0.69531-1.6094 0.21875-1.0195 0.22656-1.5039 0.94141-1.0391 0.89844-1.3672 0.42188-1.8359 0.23438-3.082 1.625-0.45312 1.1016-0.089844 0.83984-0.73828 0.68359-0.89062 0.17578-1.0352 0.26172-1.1758 1.3047-0.066406 1.1172-0.62891 1.2188-1.2109 0.95703-0.375 0.69531-0.91797-0.082031-1.1641-0.3125-1.293 0.13672-1.043-0.011719-1.6133 0.90625-1.3945 0.42969-1.6367 0.12109-1.7891 0.78516-0.99609 1.6836-0.28906 0.64844-1.6875-0.0625-1.082 1.3633 0.23047 1.3516 0.20312 1.082-0.76172 1.043-0.69141 1.7305 0.83203 0.67188 0.77344 0.50391 1.2148 0.60156 1.168 0.89062 0.80859 1.4492 0.6875 0.99219 0.82422 1.5391-0.003907 1.3281-0.48438 1.1289-0.13281 1.1836-0.75781 1.0938 0.042969 1.2109 0.76562 1.1211-0.1875 1.6641-0.85156 2.4648-1.1836 1.4844-1.1758 1.4062-1.0391 0.90234-0.52734 1.9805-0.59375 1.8164 0.058594 2.1172 0.53125 1.6211 0.28125 1.5117-0.050781 1.1289-0.26562 1.1562-0.54688 1.5234-1.1875 3.1562-1.9258 1.7227-0.60938 0.69922-0.77734 0.73047-1.2852 0.89453-1.168 1.1133-0.78516 1.2891-0.58203 1.4453-0.27344 1.2227-0.85938 1.4922-0.76172 0.93359-0.97656 1.1406-0.36328 0.81641 0.019532" fill="none" stroke="#fff" stroke-linecap="round" stroke-linejoin="round" stroke-miterlimit="10" stroke-width="2"/>
<path d="m212.02 195.77 0.23438 0.24609 0.1875 1.1719 1.0938-0.10547 1.1406 0.23047 0.78906 0.80078 1.0039 1.0078 1.0703 0.14062 0.90234-0.73438 0.95703 0.40625-0.21094 1.1133-0.88672 0.85938 0.35938 0.96094 0.85156 0.71875 0.88281-0.94141-0.23047-1.1523 1.0391-0.023438 0.49609 1.1758 0.91406 0.90234 0.78125 1.0938 0.11719 1.0859 0.89844 0.72266 1.1094 0.097656 0.86328 0.53516 0.52344 1.0977 1.375 0.86328 0.73047 1.0039 0.80859-0.60547 1.1406 0.30469 1.0469 0.15625-0.46875 1.3594-1.1406 0.20312 0.41406 1.0977 1.6133-0.074218 1.0039-0.39453 1.1562 0.09375 0.9375 0.48828 1.0312 0.32422-0.070313 1.2227 0.88281 0.93359 1.0586-0.17969 0.33594-1.0117 0.61328-1.0547h2.3047l1.0859 0.082031 1.0508 0.17969 0.78516 1.0508 0.62109 0.78906 0.74219-0.74609 0.0625-1.1289 0.46484-0.94531 0.86719 0.82031 0.53516 1.0156 1.0391 0.23047 1.0742-0.69922 0.82422-0.76172 0.93359 0.36328-0.33594 1.0234 1.0547 0.36719 0.52344-1.0664 1.2539 0.42969 1.0703-0.48047 0.48828-0.95312 1.1133-0.007812 1.1953 0.51953 0.12891-1.0469 0.80078-0.70312 0.32422 1.0664 0.89062 0.51172 1.1836-0.17969 1.1797 0.14453 1.168 0.63281 0.39844 1.3438-0.8125 1.1719 0.09375 1.0703 1.3984 0.8125 0.95703 0.79297 0.86719 0.80469 0.83203 0.58594 0.58984 1.2422 0.67969 1.0039 0.99219 1.0508 0.94922 0.58203 0.91406 0.96875 0.48828 0.88672 8.8867 5.9727 2.9883 3.2578 2.8008 1.7656 1.1914 0.9375 3.1055 1.2539 2.1445 0.51953 1.6523 0.60938 2.2344 1.4805 2.5234 1.5391 1.2773 0.75391 1.2031 1.1523 1.5859 1.8438 2.4336 0.88672 1.0078 0.44531 0.92188 0.47266 1.2539 0.90625 1.8203 0.17578 1.7188-0.070313 1.2344 0.070313 1.375-0.14453 1.0977-0.046875 1.1914 0.14844 1.1797 0.003906 1.0273 0.17188 0.9375 0.64062 1.5742 0.49609 0.94922 0.76172 0.99219 0.90234 1.3906 0.44531 0.66016 1.082 0.73828 1.1992 0.91406 0.45312 1.0391-0.41797 1.1719 0.11719 1.0781-0.082032 1.1406 0.89844 1.2266 0.11719 1.3711-0.39062 1.125-0.14453 1.0195 0.16406 1.0547 0.074218 1.0938 0.25-0.74609 2.5078-3.7734 1.2305-2.5664 0.82812-1.6172 0.33984-0.90234 0.50391-2.3867 1.6719-1.1914 0.43359-2.4102 0.61719-6.6172 3.8906-2.1523 0.94531-3.125 0.73828-6.5508 1.1211-0.82031-0.8125-1.8516-0.47656-1.9609-0.28125-1.6055 0.25-2.6602 1.3086-0.99219 0.85156-1.832 1.2383-2.207 1.8164-8.6094 1.6016-6.2617 15.098-0.007813 5.332-0.12109 2.4727-0.8125 5.6406-1.3008 6.5312-1.7617 0.33203-2.9531 0.48828-5.7539 6.9023-2.4531 3.7695-0.59375 1.1406-2.457 5.6758-0.50391 0.91016-16.957 12.355-1.0117 1.0039-2.625 2.6641-1-0.99609-0.4375-1.1328-0.85938-1.4492-0.80469-1.1055-1.3438-0.96094-0.31641-1.4922-0.35938-1.2695-0.89453-0.70312-2.3125-0.03125-1.6211-0.40234-1.5664-0.58203-1.6562-1.0117-0.78516-0.65625-1.6484 0.30469-1.5703 0.039063-1.0781-0.28906-1.1328 0.046875-0.96484-0.30859-2.7812-2.1211-1.25-0.71875-1.4609-0.88672-0.82812-0.92578-0.55078-1.1211-0.38672-1.1992-0.96875-0.46484-1.3164-1.1328-0.58203-1.1992-0.17188-1.0273-0.65234-0.97266-1.2891-1.0469-0.875-0.60547-1.1641-0.55078-1.2148-0.61328-0.94922-0.57031-0.51562-0.91016-1.5703-0.49219-1.0586-0.69531-1.8594-0.5625-1.1992-0.023437-1.3164-0.48047-0.43359-1.3438 0.16016-1.6719-0.84375-1.0117-0.5-1.4766-1.3672-1.3203-1.2188-0.46094-1.0547-0.76562-1.8906-1.9102-0.6875-0.93359-0.55078-1.8086-0.80078-0.98828-0.98438-0.92969-1.0898-2.3047-0.58984-1.582-1.2539-1.4258-1.1406-1.2188-0.44531-0.94922 0.80469-1.8281 1.125-0.89453 1.1016-1.168 0.55859-0.95312 0.34375-1.3867 0.10547-1.0469 0.53516-1.543 0.3125-1.0547-0.14844-1.0039-0.42969-1.7188-0.32031-1.5586-3.6094-1.4531-4-1.9297-2.1797-1.3164-1.5664-1.4805 1.0234-2.1211 0.82812-0.84375 0.67578-0.82812 0.91406-0.70312 0.97266-0.89844 0.86719-0.50391 0.8125-0.77344 0.90625-1.0352 1.1094-0.023438 1 0.47656 0.32031 0.97656 0.82812 0.60547 0.97266-0.32422 1.0312-0.24609 1.043 0.125 0.84766-0.55859 1.0078-0.65625 0.44141 0.92578 1.2227 0.44531 0.023437-1.0039 0.26562-1.2891 1.1406-0.62891 0.30469-1.0391-0.054688-1.9492 0.33984-1.2109 0.83203-0.87891 1.207-0.83594 1.2188-1.1797 0.65234-1.0664 1.1094-1.4531 0.60156-0.83594 0.63281-0.78125 0.94141 0.36328 0.72266 1.0977 0.74219 0.78516 1.418-0.19531 1.3164-0.53516 1.1367 0.10156 1.2656 1.0742 1.125 0.96094 0.77344 0.99219 0.9375 0.875 1.7227-0.050781 1.418 0.67188 0.58594 0.99609 0.75 0.99219 1.332 1.0508 0.98828 0.40625 1.1953 0.89062 1.3711 0.66406 1.2266 0.089843 1.1992-0.03125 1.1797 0.37109 1.2539 0.1875 1.1953 0.43359 0.80469 0.85156 0.625 1.4141 0.33984 0.97266 0.28125 1.0898 0.23438 0.98828 0.57031 1.1055 0.625 0.92969 0.95703 0.59766 0.92188 0.53125 1.957 1.1602 1.3164 0.21484 1.7812-0.42578 1.332-0.875 1.0156-1.4297 0.81641-2.0039 0.33203-1.1406 0.37891-1.6719 0.082031-1.875-0.3125-1.5508-0.60938-1.1719-0.32812-1.543 0.34766-1.6016-0.27344-1.1992-0.55469-1.082-1.3359-3.6289-1.2266-2.2461-1.3672-2.3047-0.54688-1.2578-0.42969-1.2578-0.42969-1.2656-0.86719-1.2109-1.0195-0.51562-0.26953-1.1523-0.32812-2.7344-0.10938-1.0938-0.41016-0.94141-1.457-0.050781-1.5156-0.1875-1.9102-0.035156-1.043-0.11719-1.0156-0.35547-1.0391-1.9531-0.6875-0.9375-1.7578-0.74219-0.61328-0.99609 0.50781-2.0273 1.3555-1.7383 1.0898-1.3477 0.21484-1.2031-1.2266-1.2656-1.0781-1.1289-1.125-1.7031-1.4492-1.5977-1.2109-0.71094-0.9375-1.4883-0.125-1.4844 0.085937-1.3398 0.10156-1.8125 0.42578-3.9062-0.039062-1.7773-0.019532-2.0273-0.42578-1.043-1.4102-1.2656-1.2656-1.9023-0.76953-1.3242-0.59375-1.3516-0.55859-1.5273 1.1289-0.16016 0.40234-1.1719 0.99219 0.23438 0.58984 0.88672 1.0234-0.42578 0.375-1.0195z" fill="#ccc" fill-rule="evenodd"/>
<path d="m212.02 195.77 0.23438 0.24609 0.1875 1.1719 1.0938-0.10547 1.1406 0.23047 0.78906 0.80078 1.0039 1.0078 1.0703 0.14062 0.90234-0.73438 0.95703 0.40625-0.21094 1.1133-0.88672 0.85938 0.35938 0.96094 0.85156 0.71875 0.88281-0.94141-0.23047-1.1523 1.0391-0.023438 0.49609 1.1758 0.91406 0.90234 0.78125 1.0938 0.11719 1.0859 0.89844 0.72266 1.1094 0.097656 0.86328 0.53516 0.52344 1.0977 1.375 0.86328 0.73047 1.0039 0.80859-0.60547 1.1406 0.30469 1.0469 0.15625-0.46875 1.3594-1.1406 0.20312 0.41406 1.0977 1.6133-0.074218 1.0039-0.39453 1.1562 0.09375 0.9375 0.48828 1.0312 0.32422-0.070313 1.2227 0.88281 0.93359 1.0586-0.17969 0.33594-1.0117 0.61328-1.0547h2.3047l1.0859 0.082031 1.0508 0.17969 0.78516 1.0508 0.62109 0.78906 0.74219-0.74609 0.0625-1.1289 0.46484-0.94531 0.86719 0.82031 0.53516 1.0156 1.0391 0.23047 1.0742-0.69922 0.82422-0.76172 0.93359 0.36328-0.33594 1.0234 1.0547 0.36719 0.52344-1.0664 1.2539 0.42969 1.0703-0.48047 0.48828-0.95312 1.1133-0.007812 1.1953 0.51953 0.12891-1.0469 0.80078-0.70312 0.32422 1.0664 0.89062 0.51172 1.1836-0.17969 1.1797 0.14453 1.168 0.63281 0.39844 1.3438-0.8125 1.1719 0.09375 1.0703 1.3984 0.8125 0.95703 0.79297 0.86719 0.80469 0.83203 0.58594 0.58984 1.2422 0.67969 1.0039 0.99219 1.0508 0.94922 0.58203 0.91406 0.96875 0.48828 0.88672 8.8867 5.9727 2.9883 3.2578 2.8008 1.7656 1.1914 0.9375 3.1055 1.2539 2.1445 0.51953 1.6523 0.60938 2.2344 1.4805 2.5234 1.5391 1.2773 0.75391 1.2031 1.1523 1.5859 1.8438 2.4336 0.88672 1.0078 0.44531 0.92188 0.47266 1.2539 0.90625 1.8203 0.17578 1.7188-0.070313 1.2344 0.070313 1.375-0.14453 1.0977-0.046875 1.1914 0.14844 1.1797 0.003906 1.0273 0.17188 0.9375 0.64062 1.5742 0.49609 0.94922 0.76172 0.99219 0.90234 1.3906 0.44531 0.66016 1.082 0.73828 1.1992 0.91406 0.45312 1.0391-0.41797 1.1719 0.11719 1.0781-0.082032 1.1406 0.89844 1.2266 0.11719 1.3711-0.39062 1.125-0.14453 1.0195 0.16406 1.0547 0.074218 1.0938 0.25-0.74609 2.5078-3.7734 1.2305-2.5664 0.82812-1.6172 0.33984-0.90234 0.50391-2.3867 1.6719-1.1914 0.43359-2.4102 0.61719-6.6172 3.8906-2.1523 0.94531-3.125 0.73828-6.5508 1.1211-0.82031-0.8125-1.8516-0.47656-1.9609-0.28125-1.6055 0.25-2.6602 1.3086-0.99219 0.85156-1.832 1.2383-2.207 1.8164-8.6094 1.6016-6.2617 15.098-0.007813 5.332-0.12109 2.4727-0.8125 5.6406-1.3008 6.5312-1.7617 0.33203-2.9531 0.48828-5.7539 6.9023-2.4531 3.7695-0.59375 1.1406-2.457 5.6758-0.50391 0.91016-16.957 12.355-1.0117 1.0039-2.625 2.6641-1-0.99609-0.4375-1.1328-0.85938-1.4492-0.80469-1.1055-1.3438-0.96094-0.31641-1.4922-0.35938-1.2695-0.89453-0.70312-2.3125-0.03125-1.6211-0.40234-1.5664-0.58203-1.6562-1.0117-0.78516-0.65625-1.6484 0.30469-1.5703 0.039063-1.0781-0.28906-1.1328 0.046875-0.96484-0.30859-2.7812-2.1211-1.25-0.71875-1.4609-0.88672-0.82812-0.92578-0.55078-1.1211-0.38672-1.1992-0.96875-0.46484-1.3164-1.1328-0.58203-1.1992-0.17188-1.0273-0.65234-0.97266-1.2891-1.0469-0.875-0.60547-1.1641-0.55078-1.2148-0.61328-0.94922-0.57031-0.51562-0.91016-1.5703-0.49219-1.0586-0.69531-1.8594-0.5625-1.1992-0.023437-1.3164-0.48047-0.43359-1.3438 0.16016-1.6719-0.84375-1.0117-0.5-1.4766-1.3672-1.3203-1.2188-0.46094-1.0547-0.76562-1.8906-1.9102-0.6875-0.93359-0.55078-1.8086-0.80078-0.98828-0.98438-0.92969-1.0898-2.3047-0.58984-1.582-1.2539-1.4258-1.1406-1.2188-0.44531-0.94922 0.80469-1.8281 1.125-0.89453 1.1016-1.168 0.55859-0.95312 0.34375-1.3867 0.10547-1.0469 0.53516-1.543 0.3125-1.0547-0.14844-1.0039-0.42969-1.7188-0.32031-1.5586-3.6094-1.4531-4-1.9297-2.1797-1.3164-1.5664-1.4805 1.0234-2.1211 0.82812-0.84375 0.67578-0.82812 0.91406-0.70312 0.97266-0.89844 0.86719-0.50391 0.8125-0.77344 0.90625-1.0352 1.1094-0.023438 1 0.47656 0.32031 0.97656 0.82812 0.60547 0.97266-0.32422 1.0312-0.24609 1.043 0.125 0.84766-0.55859 1.0078-0.65625 0.44141 0.92578 1.2227 0.44531 0.023437-1.0039 0.26562-1.2891 1.1406-0.62891 0.30469-1.0391-0.054688-1.9492 0.33984-1.2109 0.83203-0.87891 1.207-0.83594 1.2188-1.1797 0.65234-1.0664 1.1094-1.4531 0.60156-0.83594 0.63281-0.78125 0.94141 0.36328 0.72266 1.0977 0.74219 0.78516 1.418-0.19531 1.3164-0.53516 1.1367 0.10156 1.2656 1.0742 1.125 0.96094 0.77344 0.99219 0.9375 0.875 1.7227-0.050781 1.418 0.67188 0.58594 0.99609 0.75 0.99219 1.332 1.0508 0.98828 0.40625 1.1953 0.89062 1.3711 0.66406 1.2266 0.089843 1.1992-0.03125 1.1797 0.37109 1.2539 0.1875 1.1953 0.43359 0.80469 0.85156 0.625 1.4141 0.33984 0.97266 0.28125 1.0898 0.23438 0.98828 0.57031 1.1055 0.625 0.92969 0.95703 0.59766 0.92188 0.53125 1.957 1.1602 1.3164 0.21484 1.7812-0.42578 1.332-0.875 1.0156-1.4297 0.81641-2.0039 0.33203-1.1406 0.37891-1.6719 0.082031-1.875-0.3125-1.5508-0.60938-1.1719-0.32812-1.543 0.34766-1.6016-0.27344-1.1992-0.55469-1.082-1.3359-3.6289-1.2266-2.2461-1.3672-2.3047-0.54688-1.2578-0.42969-1.2578-0.42969-1.2656-0.86719-1.2109-1.0195-0.51562-0.26953-1.1523-0.32812-2.7344-0.10938-1.0938-0.41016-0.94141-1.457-0.050781-1.5156-0.1875-1.9102-0.035156-1.043-0.11719-1.0156-0.35547-1.0391-1.9531-0.6875-0.9375-1.7578-0.74219-0.61328-0.99609 0.50781-2.0273 1.3555-1.7383 1.0898-1.3477 0.21484-1.2031-1.2266-1.2656-1.0781-1.1289-1.125-1.7031-1.4492-1.5977-1.2109-0.71094-0.9375-1.4883-0.125-1.4844 0.085937-1.3398 0.10156-1.8125 0.42578-3.9062-0.039062-1.7773-0.019532-2.0273-0.42578-1.043-1.4102-1.2656-1.2656-1.9023-0.76953-1.3242-0.59375-1.3516-0.55859-1.5273 1.1289-0.16016 0.40234-1.1719 0.99219 0.23438 0.58984 0.88672 1.0234-0.42578 0.375-1.0195 0.84375-0.26953" fill="none" stroke="#fff" stroke-linecap="round" stroke-linejoin="round" stroke-miterlimit="10" stroke-width="2"/>
<path d="m181.7 132.12 1.8047 0.63672 1.5195 0.48047 1.582 2.3203 1.9336 0.66797 1.9414 0.49609 1.0312 0.17578 1.4297 0.23828 1.0625 0.85938 4.043 0.19922 1.1602 0.13672 1.2734 0.55859 0.25391 1.043 0.078125 1.2734-0.23438 1.6016 0.625 3.2539 0.89844 1.3242 1.0703 1.0859 1.1875 0.019531 0.79297-0.78125 0.92969-1.832 0.78906-1.9297 0.65625-1.3125h1.7188l1.6758-0.34766 1.2188-1.1875 0.98828-0.93359 0.72266-0.73047 1.4102-0.53906 2.0703-0.074219 1.1133 0.19531 1.2891-0.066407 1.207-0.48828 1.0977 0.023438 0.61719 0.86328 0.44922 1.543 0.24219 2.9336 0.1875 2.332 0.082031 1.793 0.33203 2.3438 0.03125 1.1055-0.27344 1.1328-0.20312 0.99219 0.078125 1.1562 0.26953 1.0352 0.054688 1.3242 0.27734 1.3789 0.30078 1.0547 0.42578 0.92188 0.31641 1.0078 0.14844 1.0273-0.082031 1.0234-0.39844 1.3516-0.41797 1.4102-0.19141 0.98438-0.33203 1.2031-0.20703 0.99219-0.26562 1.5039-0.33984 1.3125-0.23438 1.0938-0.16797 1.3438-0.12891 1.4297-0.22266 1.0156-0.24609 1.0781-0.39062 1.4961-0.1875 1.0508-0.25391 1.4648-0.33984 1.8633-0.35547 1.043-0.42578 1.1953-0.58203 1.0078-0.62109 0.99609-0.66797 1.1758-0.76172 0.83594-1.7305 0.80078-0.91797 0.40234-1.0156 0.35156-0.97656 0.30469-1.1758 0.26562-1.125 0.15234-0.98828 0.18359-0.96875 0.54297-0.67578 0.82812-1 1.7656-0.75391 1.5938 1.0039 1.7266 0.59375 1.3516 0.76953 1.3242 1.2656 1.9023 0.79688 0.80859 0.83203 0.71484 0.22656 2.8125 0.023437 1.1055-0.41016 4.5781-0.10156 1.8125-0.085937 1.3398 0.125 1.4844 0.9375 1.4883 1.2109 0.71094 0.85547 0.85547 1.2969 1.9688 1.1172 1.2031 1.1523 0.97266 0.47656 1.2188-1.25 1.9336-1.4297 1.832-0.40234 1.2227 0.058593 1.4453 1.6211 0.71484 1.2734 1.3203 0.53516 1.4688 0.82812 0.6875 1.7344 0.26953 1.1758-0.21484 1.4102 0.33594 1.3047 0.21484 1.1484-0.085937 0.36328 2.0586 0.32812 2.7344 0.26953 1.1523 1.0195 0.51562 0.86719 1.2109 0.42969 1.2656 0.42969 1.2578 0.54688 1.2578 1.3672 2.3047 1.2266 2.2461 1.3359 3.6289 0.55469 1.082 0.27344 1.1992-0.34766 1.6016-0.125 1.0859 1.0156 1.293 0.35938 1.8867 0.078125 1.168-0.53906 2.3789-0.33203 1.1406-0.81641 2.0039-1.0156 1.4297-1.332 0.875-1.7812 0.42578-1.3164-0.21484-1.2617-0.91406-1.1562-0.55078-0.96094-0.52734-0.88281-0.73828-0.76953-1.5938-0.23438-0.98828-0.28125-1.0898-0.33984-0.97266-0.50391-1.2148-0.92578-1.0508-1.1953-0.43359-1.2539-0.1875-1.1797-0.37109-1.1992 0.03125-1.1094-0.050781-1.4883-0.70312-0.99609-0.78906-1.1875-0.50781-1.332-1.0508-0.75-0.99219-0.58594-0.99609-1.418-0.67188-1.293-0.074219-1.1055-0.3125-0.72266-1.082-1.4375-1.3086-0.6875-0.79297-1.4453-0.37109-1.5859 0.52344-1.418 0.19531-0.74219-0.78516-0.72266-1.0977-0.94141-0.36328-0.63281 0.78125-0.60156 0.83594-0.63672 0.87109-0.77344 1.332-0.81641 1.0273-1.457 0.9375-1.1055 0.84766-0.48047 1.207-0.0625 1.3555 0.039062 1.4961-0.8125 0.9375-0.87891 0.82812-0.09375 1.0312-0.98438 0.3125-0.41797-1.0039-0.97266 0.35547-1.1055 0.84375-1.043-0.125-1.0312 0.24609-0.97266 0.32422-0.82812-0.60547-0.32031-0.97656-1-0.47656h-1.0039l-1.0117 1.0586-0.8125 0.77344-0.86719 0.50391-0.67969 0.75781-1.207 0.84375-0.67578 0.82812-0.82812 0.84375-1.1133 1.4727-1.082-0.55859-1.5742 0.16016-1.3164 1.1602-1.4922 0.76172-1.2227 0.85938-1.4453 0.27344-1.2891 0.58203-1.1133 0.78516-0.89453 1.168-0.73047 1.2852-0.69922 0.77734-1.1445 0.31641-3.7344 2.2188-1.5234 1.1875-1.1562 0.54688-1.1289 0.26562-1.5117 0.050781-1.6211-0.28125-2.1172-0.53125-1.8164-0.058594-1.457 0.28516-1.4258 0.83594-1.4062 1.0391-1.4844 1.1758-1.5938 0.76562-1.6719 0.82812-1.5664 0.61719-1.3242-0.57422-1.3984-0.22266-1.1836 0.75781-1.1289 0.13281-1.3281 0.48438-1.2109 0.082032-0.94141-0.54297-1.0312-0.78906-1.1523-0.57812-0.85547-0.91406-0.57031-1.4375-0.88672-1.293-1.043-0.81641-1.2773 0.28125-1.5352 1.1562-1.3516-0.20312-1.3633-0.23047 0.13281-1.1484-0.67188-1.1602-0.85547-1.9062-0.48047-1.3516-0.52734-1.0547-0.78516-1.707-0.38281-1.4492-0.082031-1.7305-0.046875-1.0938-1.1367-1.1406-1.6445-0.80859-1.0234-0.62109-0.19531-1.4961-1.1172-1.5938-0.75781-0.71875-0.82812-0.76172-1.0078-0.95312-0.49609-1.082-0.35547-1.0078-0.10547-1.4961 0.078125-1.2188 0.023438-1.668 0.078125-1.4297-0.18359-1.293-1.6523-1.7109-0.90234-1.1797-0.33984-1.3438-0.011719-2.0078 0.28906-0.98047 1.1445-0.95703 1.0156-0.89844 0.85156-1.3281 0.66406-1.5273 1.8906-0.9375 2.0703-1.6055 1.1172-0.46875 1.0977 0.38672 1.4844 1.1719 0.98047 0.63672 3.0117 0.66016 2.0898 0.32031h1.4492l1.1094-0.27734 0.78906-0.76562 1.2969-1.6953-0.16016-1.0586-0.41797-0.96484-0.30859-1.3984-0.28516-1.0195-0.082032-1.1016 0.38281-1.1719 0.42969-1.0625-0.035156-1.0898 0.78516-0.77344 0.91406-1.0781 1.168-1.7891 0.78125-0.875 1.6758-1.9297 0.11719-1.1641-1.4023-3.6875-0.73438-1.7812-0.15234-1.1133 0.21094-2.6445 0.039063-1.6094 0.24219-2.0898 0.15234-1.0234 0.52344-1.3945 0.41797-1.0859-0.60156-1.2656-0.44922-0.96094-0.74219-1.4102-0.75391-0.82812 0.089844-1.418 0.30859-1.4023 0.070312-1.3789-0.625-0.92969-0.98438-0.87891-0.90234-0.95703-0.35547-1.0117 1.4102-1.3555 1.3008-0.85938 1.2734-0.84375 1.0156-0.5625 1.457-0.69531 0.55469-1.0742-0.074219-1.2852-0.8125-4.0352-0.42969-4.4492-0.34375-1.8516-0.027343-1.2461 0.26562-2.1289 0.86328-2.4102 1.3047-1.3984 1.3086-0.90234 0.85156-0.53516 1.1836-0.94922 1.0469-1.0859 0.24609-1.9961 0.25391-2.043-0.125-1.1758 1.0742-0.54688 1.918-0.13281 1.4102 0.16016 2.3398-0.21875 1.1289-0.078125 1.7383-0.023438 1.4648-0.023437 1.8516-0.63672 1.2812-1.4648 2.2617 0.070313 2.582-0.23047 1.7422 0.48828 1.6133-0.09375 1.7031-0.74609 1.2188-0.90625 1.0312-0.55469 1.2227-0.26953 1.5703-0.20703 1.332-0.76172 0.93359-1.25 0.35156-1.1797 0.082031-1.2148 0.57422-3.2422 0.38281-1.6875 0.51562-1.6289 0.78906-1.2383 1.6016-1.9102 1.5859-1.9961 1.668-2.7305 1.8398-3.1016 1.2539-1.4336 1.1055-0.83594 0.91797-0.46875 1.418-0.36328 2.0938-0.089844z" fill="#ccc" fill-rule="evenodd"/>
<path d="m181.7 132.12 1.8047 0.63672 1.5195 0.48047 1.582 2.3203 1.9336 0.66797 1.9414 0.49609 1.0312 0.17578 1.4297 0.23828 1.0625 0.85938 4.043 0.19922 1.1602 0.13672 1.2734 0.55859 0.25391 1.043 0.078125 1.2734-0.23438 1.6016 0.625 3.2539 0.89844 1.3242 1.0703 1.0859 1.1875 0.019531 0.79297-0.78125 0.92969-1.832 0.78906-1.9297 0.65625-1.3125h1.7188l1.6758-0.34766 1.2188-1.1875 0.98828-0.93359 0.72266-0.73047 1.4102-0.53906 2.0703-0.074219 1.1133 0.19531 1.2891-0.066407 1.207-0.48828 1.0977 0.023438 0.61719 0.86328 0.44922 1.543 0.24219 2.9336 0.1875 2.332 0.082031 1.793 0.33203 2.3438 0.03125 1.1055-0.27344 1.1328-0.20312 0.99219 0.078125 1.1562 0.26953 1.0352 0.054688 1.3242 0.27734 1.3789 0.30078 1.0547 0.42578 0.92188 0.31641 1.0078 0.14844 1.0273-0.082031 1.0234-0.39844 1.3516-0.41797 1.4102-0.19141 0.98438-0.33203 1.2031-0.20703 0.99219-0.26562 1.5039-0.33984 1.3125-0.23438 1.0938-0.16797 1.3438-0.12891 1.4297-0.22266 1.0156-0.24609 1.0781-0.39062 1.4961-0.1875 1.0508-0.25391 1.4648-0.33984 1.8633-0.35547 1.043-0.42578 1.1953-0.58203 1.0078-0.62109 0.99609-0.66797 1.1758-0.76172 0.83594-1.7305 0.80078-0.91797 0.40234-1.0156 0.35156-0.97656 0.30469-1.1758 0.26562-1.125 0.15234-0.98828 0.18359-0.96875 0.54297-0.67578 0.82812-1 1.7656-0.75391 1.5938 1.0039 1.7266 0.59375 1.3516 0.76953 1.3242 1.2656 1.9023 0.79688 0.80859 0.83203 0.71484 0.22656 2.8125 0.023437 1.1055-0.41016 4.5781-0.10156 1.8125-0.085937 1.3398 0.125 1.4844 0.9375 1.4883 1.2109 0.71094 0.85547 0.85547 1.2969 1.9688 1.1172 1.2031 1.1523 0.97266 0.47656 1.2188-1.25 1.9336-1.4297 1.832-0.40234 1.2227 0.058593 1.4453 1.6211 0.71484 1.2734 1.3203 0.53516 1.4688 0.82812 0.6875 1.7344 0.26953 1.1758-0.21484 1.4102 0.33594 1.3047 0.21484 1.1484-0.085937 0.36328 2.0586 0.32812 2.7344 0.26953 1.1523 1.0195 0.51562 0.86719 1.2109 0.42969 1.2656 0.42969 1.2578 0.54688 1.2578 1.3672 2.3047 1.2266 2.2461 1.3359 3.6289 0.55469 1.082 0.27344 1.1992-0.34766 1.6016-0.125 1.0859 1.0156 1.293 0.35938 1.8867 0.078125 1.168-0.53906 2.3789-0.33203 1.1406-0.81641 2.0039-1.0156 1.4297-1.332 0.875-1.7812 0.42578-1.3164-0.21484-1.2617-0.91406-1.1562-0.55078-0.96094-0.52734-0.88281-0.73828-0.76953-1.5938-0.23438-0.98828-0.28125-1.0898-0.33984-0.97266-0.50391-1.2148-0.92578-1.0508-1.1953-0.43359-1.2539-0.1875-1.1797-0.37109-1.1992 0.03125-1.1094-0.050781-1.4883-0.70312-0.99609-0.78906-1.1875-0.50781-1.332-1.0508-0.75-0.99219-0.58594-0.99609-1.418-0.67188-1.293-0.074219-1.1055-0.3125-0.72266-1.082-1.4375-1.3086-0.6875-0.79297-1.4453-0.37109-1.5859 0.52344-1.418 0.19531-0.74219-0.78516-0.72266-1.0977-0.94141-0.36328-0.63281 0.78125-0.60156 0.83594-0.63672 0.87109-0.77344 1.332-0.81641 1.0273-1.457 0.9375-1.1055 0.84766-0.48047 1.207-0.0625 1.3555 0.039062 1.4961-0.8125 0.9375-0.87891 0.82812-0.09375 1.0312-0.98438 0.3125-0.41797-1.0039-0.97266 0.35547-1.1055 0.84375-1.043-0.125-1.0312 0.24609-0.97266 0.32422-0.82812-0.60547-0.32031-0.97656-1-0.47656h-1.0039l-1.0117 1.0586-0.8125 0.77344-0.86719 0.50391-0.67969 0.75781-1.207 0.84375-0.67578 0.82812-0.82812 0.84375-1.1133 1.4727-1.082-0.55859-1.5742 0.16016-1.3164 1.1602-1.4922 0.76172-1.2227 0.85938-1.4453 0.27344-1.2891 0.58203-1.1133 0.78516-0.89453 1.168-0.73047 1.2852-0.69922 0.77734-1.1445 0.31641-3.7344 2.2188-1.5234 1.1875-1.1562 0.54688-1.1289 0.26562-1.5117 0.050781-1.6211-0.28125-2.1172-0.53125-1.8164-0.058594-1.457 0.28516-1.4258 0.83594-1.4062 1.0391-1.4844 1.1758-1.5938 0.76562-1.6719 0.82812-1.5664 0.61719-1.3242-0.57422-1.3984-0.22266-1.1836 0.75781-1.1289 0.13281-1.3281 0.48438-1.2109 0.082032-0.94141-0.54297-1.0312-0.78906-1.1523-0.57812-0.85547-0.91406-0.57031-1.4375-0.88672-1.293-1.043-0.81641-1.2773 0.28125-1.5352 1.1562-1.3516-0.20312-1.3633-0.23047 0.13281-1.1484-0.67188-1.1602-0.85547-1.9062-0.48047-1.3516-0.52734-1.0547-0.78516-1.707-0.38281-1.4492-0.082031-1.7305-0.046875-1.0938-1.1367-1.1406-1.6445-0.80859-1.0234-0.62109-0.19531-1.4961-1.1172-1.5938-0.75781-0.71875-0.82812-0.76172-1.0078-0.95312-0.49609-1.082-0.35547-1.0078-0.10547-1.4961 0.078125-1.2188 0.023438-1.668 0.078125-1.4297-0.18359-1.293-1.6523-1.7109-0.90234-1.1797-0.33984-1.3438-0.011719-2.0078 0.28906-0.98047 1.1445-0.95703 1.0156-0.89844 0.85156-1.3281 0.66406-1.5273 1.8906-0.9375 2.0703-1.6055 1.1172-0.46875 1.0977 0.38672 1.4844 1.1719 0.98047 0.63672 3.0117 0.66016 2.0898 0.32031h1.4492l1.1094-0.27734 0.78906-0.76562 1.2969-1.6953-0.16016-1.0586-0.41797-0.96484-0.30859-1.3984-0.28516-1.0195-0.082032-1.1016 0.38281-1.1719 0.42969-1.0625-0.035156-1.0898 0.78516-0.77344 0.91406-1.0781 1.168-1.7891 0.78125-0.875 1.6758-1.9297 0.11719-1.1641-1.4023-3.6875-0.73438-1.7812-0.15234-1.1133 0.21094-2.6445 0.039063-1.6094 0.24219-2.0898 0.15234-1.0234 0.52344-1.3945 0.41797-1.0859-0.60156-1.2656-0.44922-0.96094-0.74219-1.4102-0.75391-0.82812 0.089844-1.418 0.30859-1.4023 0.070312-1.3789-0.625-0.92969-0.98438-0.87891-0.90234-0.95703-0.35547-1.0117 1.4102-1.3555 1.3008-0.85938 1.2734-0.84375 1.0156-0.5625 1.457-0.69531 0.55469-1.0742-0.074219-1.2852-0.8125-4.0352-0.42969-4.4492-0.34375-1.8516-0.027343-1.2461 0.26562-2.1289 0.86328-2.4102 1.3047-1.3984 1.3086-0.90234 0.85156-0.53516 1.1836-0.94922 1.0469-1.0859 0.24609-1.9961 0.25391-2.043-0.125-1.1758 1.0742-0.54688 1.918-0.13281 1.4102 0.16016 2.3398-0.21875 1.1289-0.078125 1.7383-0.023438 1.4648-0.023437 1.8516-0.63672 1.2812-1.4648 2.2617 0.070313 2.582-0.23047 1.7422 0.48828 1.6133-0.09375 1.7031-0.74609 1.2188-0.90625 1.0312-0.55469 1.2227-0.26953 1.5703-0.20703 1.332-0.76172 0.93359-1.25 0.35156-1.1797 0.082031-1.2148 0.57422-3.2422 0.38281-1.6875 0.51562-1.6289 0.78906-1.2383 1.6016-1.9102 1.5859-1.9961 1.668-2.7305 1.8398-3.1016 1.2539-1.4336 1.1055-0.83594 0.91797-0.46875 1.418-0.36328 2.0938-0.089844 3.1094 0.84766" fill="none" stroke="#fff" stroke-linecap="round" stroke-linejoin="round" stroke-miterlimit="10" stroke-width="2"/>
<path d="m339.3 181.38 0.20312 0.11328 0.72266 0.83594 0.35547 1.0391 0.71875 0.86328 0.77734 0.69531 0.71875 0.95312 0.71875 0.71875 0.83594 0.86719 0.83984 0.92188 0.89453 0.86719 0.69141 0.86719 0.77734 0.75 0.77734 0.80859 0.66406 0.83594-0.42578 1.707-0.79297 1.3906-0.011719 3.168 1.0859 2.0586 0.84766 2.3828 0.097656 1.5117-0.21094 1.168-0.019532 1.0586 0.51172 1.6172 0.1875 1.1328 0.64062 2.3945 0.24219 1.4648 0.48438 1.6289 0.5625 1.1641 0.80859 1.1367 3.0312 2.4922 0.65625 0.84766 0.28906 1.7227-0.18359 4.2031 0.60938 1.0898 0.80859 2.3594 0.52344 1.1133 1.1055 1.3125 2.5469 2.5312 1.9492 1.6055 2.9023 2.168 1.9414 1.5664-1.9414 1.7969-5.957 4.8164-1.4648 0.69922-1.3203-0.25-1.7188 0.15625-1.332 0.22656-0.97656 0.62891-0.29688 1.2031-0.87109 0.59766-2.2266 1.3398-1.4609 1.1055-2.6445 1.5391-0.86328 0.81641-0.53906 0.91406-1.1367 0.16797-2.8281-0.5-1.1875-0.20312-1.293-0.24609-1.4375-0.23047-1.0547-0.070313-1.4375 0.046875-1.0273 0.23438-1.3711 0.09375-0.73828-0.67969-1.2773-0.20312-1.1641-0.054688-1.2383 0.39453-1.125-0.48047-0.73828-1.1992-0.66016-1.082-1.043-0.28516-1.3398-1.0625-0.94922-0.76172-0.94531-0.53125-0.98438-0.19922-1.2812-0.46875-1.0352-0.082031-1.043-0.25-1.7188 0.11719-1.375 0.14453-1.2344-0.070313-1.7188 0.070313-1.8203-0.17578-1.2539-0.90625-0.92188-0.47266-1.0078-0.44531-2.4336-0.88672-1.5859-1.8438-1.2031-1.1523-1.2773-0.75391-2.5234-1.5391-2.2344-1.4805-1.6523-0.60938-2.1445-0.51953-2.9883-1.2031-0.96094-0.61328 0.33203-2.2617 0.41406-1.0547 0.26172-1.168 1.0781-1.2812 0.4375-1.5 0.71875-1.6875 0.92969-1.2109 1.1172-2.6758-0.12109-1.6641-0.5625-2 0.082032-1.1992 0.46094-2.3242 0.41797-1.0391 0.68359-0.76562 1.0234-0.81641 1.4414-2.0547 1.793-1.8398 1.4648-0.82812 0.92578-0.69531-0.41797-1.1836-0.22266-1.5703 0.21094-1.0625 1.0508-1.457 1.0742-0.57422 1.6289-0.92188 0.80469-0.80078 0.85156-0.57031 1.3203 0.074219 1.1094-0.21484 1.3711-0.09375 1.1328 0.40234 1.6484 0.082031 0.36719-1.3984 0.003906-1.1016 0.027344-1.1328 0.03125-1.2656-0.046875-1.207 0.57031-1.3945-0.09375-1.6445-0.42188-0.97266 0.34766-1.4648 0.30078-1.8164 0.52734-1.4688 0.86719-0.62891 2.8164 0.0625 1.6523 0.42578 1.6289 0.42578 1.1719 0.45312 1.8828 1.0391 1.4492 0.42969 1.6211 0.38672 2-1.0586 0.78125-0.89844 0.83594-1.3711 1.1016 0.12109 1.0156 0.68359 1.0469 0.69531 1.5469 0.49219 1.0508 0.32031 1.0273-0.37109 0.71484-1.8867 0.042969-1.0273 0.83203-1.6562 0.95703-0.54297z" fill="#ccc" fill-rule="evenodd"/>
<path d="m339.3 181.38 0.20312 0.11328 0.72266 0.83594 0.35547 1.0391 0.71875 0.86328 0.77734 0.69531 0.71875 0.95312 0.71875 0.71875 0.83594 0.86719 0.83984 0.92188 0.89453 0.86719 0.69141 0.86719 0.77734 0.75 0.77734 0.80859 0.66406 0.83594-0.42578 1.707-0.79297 1.3906-0.011719 3.168 1.0859 2.0586 0.84766 2.3828 0.097656 1.5117-0.21094 1.168-0.019532 1.0586 0.51172 1.6172 0.1875 1.1328 0.64062 2.3945 0.24219 1.4648 0.48438 1.6289 0.5625 1.1641 0.80859 1.1367 3.0312 2.4922 0.65625 0.84766 0.28906 1.7227-0.18359 4.2031 0.60938 1.0898 0.80859 2.3594 0.52344 1.1133 1.1055 1.3125 2.5469 2.5312 1.9492 1.6055 2.9023 2.168 1.9414 1.5664-1.9414 1.7969-5.957 4.8164-1.4648 0.69922-1.3203-0.25-1.7188 0.15625-1.332 0.22656-0.97656 0.62891-0.29688 1.2031-0.87109 0.59766-2.2266 1.3398-1.4609 1.1055-2.6445 1.5391-0.86328 0.81641-0.53906 0.91406-1.1367 0.16797-2.8281-0.5-1.1875-0.20312-1.293-0.24609-1.4375-0.23047-1.0547-0.070313-1.4375 0.046875-1.0273 0.23438-1.3711 0.09375-0.73828-0.67969-1.2773-0.20312-1.1641-0.054688-1.2383 0.39453-1.125-0.48047-0.73828-1.1992-0.66016-1.082-1.043-0.28516-1.3398-1.0625-0.94922-0.76172-0.94531-0.53125-0.98438-0.19922-1.2812-0.46875-1.0352-0.082031-1.043-0.25-1.7188 0.11719-1.375 0.14453-1.2344-0.070313-1.7188 0.070313-1.8203-0.17578-1.2539-0.90625-0.92188-0.47266-1.0078-0.44531-2.4336-0.88672-1.5859-1.8438-1.2031-1.1523-1.2773-0.75391-2.5234-1.5391-2.2344-1.4805-1.6523-0.60938-2.1445-0.51953-2.9883-1.2031-0.96094-0.61328 0.33203-2.2617 0.41406-1.0547 0.26172-1.168 1.0781-1.2812 0.4375-1.5 0.71875-1.6875 0.92969-1.2109 1.1172-2.6758-0.12109-1.6641-0.5625-2 0.082032-1.1992 0.46094-2.3242 0.41797-1.0391 0.68359-0.76562 1.0234-0.81641 1.4414-2.0547 1.793-1.8398 1.4648-0.82812 0.92578-0.69531-0.41797-1.1836-0.22266-1.5703 0.21094-1.0625 1.0508-1.457 1.0742-0.57422 1.6289-0.92188 0.80469-0.80078 0.85156-0.57031 1.3203 0.074219 1.1094-0.21484 1.3711-0.09375 1.1328 0.40234 1.6484 0.082031 0.36719-1.3984 0.003906-1.1016 0.027344-1.1328 0.03125-1.2656-0.046875-1.207 0.57031-1.3945-0.09375-1.6445-0.42188-0.97266 0.34766-1.4648 0.30078-1.8164 0.52734-1.4688 0.86719-0.62891 2.8164 0.0625 1.6523 0.42578 1.6289 0.42578 1.1719 0.45312 1.8828 1.0391 1.4492 0.42969 1.6211 0.38672 2-1.0586 0.78125-0.89844 0.83594-1.3711 1.1016 0.12109 1.0156 0.68359 1.0469 0.69531 1.5469 0.49219 1.0508 0.32031 1.0273-0.37109 0.71484-1.8867 0.042969-1.0273 0.83203-1.6562 0.95703-0.54297h0.003906" fill="none" stroke="#fff" stroke-linecap="round" stroke-linejoin="round" stroke-miterlimit="10" stroke-width="2"/>
<path d="m298.23 88.391 0.41406 0.25781 0.55469 1.3164-1.3789 2.8242-0.74219 1.2773-0.81641 1.3359-0.41406 1.0078-0.71484 1.6055-0.23828 1.582 0.21094 1.0977 0.57031 1.4336 0.16406 1.0234 0.10156 1.0977-0.14844 1.0508 0.15625 1.2422 0.71094 1.0312 0.65234 1.1641 0.73438 0.88672 1.2266 1.582 1.4453 0.73438 1.1094 0.14062 1.2305-0.20312 0.92578-0.42578 0.74609-0.6875 0.56641-1.6641-0.14844-1.8555-0.55078-1.9492-0.085937-1.9688 0.12109-1.5742 0.91016-1.1133 0.76953-1.2148-1.0352-2.9688-0.035156-1.0078 1.4883 0.11719 2.3125-0.21484 1.832 0.23828 0.96094 0.40234 0.89062 0.59375 1.5 0.26562 1.8086 0.67188 1.9922 0.38281 1.5547 0.125 1.1992 0.32031 5.125 2.3516 2.8828 2.1289 1.3398 1.1016 0.65625 0.91797 2.1523 3.1055 0.57812 0.84375 1.1758 0.20703 1.0469-0.023438 1.6953 0.011719 1.0898-0.089844 1.3945-0.039062 0.18359 1.2812-0.95703 0.50391-1.0508-0.078125-0.85156 1.9297-0.22266 1.4492 0.88281 1.707 0.78125 0.84375 0.94922 0.64844 0.99219 0.54297 0.79688 0.83203 0.5 0.93359-0.089844 1.0781 0.47266 0.98047 0.71484 0.86719 1.0117 0.30859 1.1445-0.13672 0.49219 0.87891-0.1875 1.3984-0.20312 1.4062 0.76953 0.68359-0.24609 0.97266-0.80078 0.84375-0.91016 0.87109-1.0508 0.26172-0.69531-0.74609-0.91406 0.63281-1.0703 0.039062-0.48438-0.96094-0.57422 1.1211 0.19531 1.0391-1.0078 0.15625-0.63281 0.92578 0.16016 1.0156-0.64844 0.82812-0.80859 0.99609-1.082 0.41406-0.73047 0.89844-0.03125 1.082-0.36328 1.1445-1.4648 0.44531-0.94141 0.84766-0.89062 0.70703-1.0273 0.23438-0.085938 1.0117-1.1133-0.019531-0.62891 1.0469-0.27734 1.043-1.0156-0.44922-1.0586-0.054687-0.63281 0.89062-0.27734 1.2344 0.015625 1.2812-1.25 0.71875-1.3633 0.18359-0.86719 0.99609 0.37891 1.0312-0.19531 1.2578-1.1367 0.63281 0.35156 1.0078 1.082 0.15234-0.21094 0.99609-0.76562 1.0078-1.1406 0.92188-0.91797 0.51953 0.29688 1.2109-1.0195 0.35938-0.042969 1.2891 0.0625 1.082 0.14844 1.0078 1.0898 0.36719 1.0391 0.67188 1.1367-0.47266 0.86328-0.60156 1.0859 0.11719 1.0625-0.24609 0.98438 0.62891 1.0625 0.26172-0.45703 0.97266v1.1289l0.83594 0.54688 1.0195 0.23047-0.60156 0.80859 0.12109 1.2109 0.50781 0.92578 0.30078 0.98047 0.47656 0.98047 0.92578 0.43359 0.26953 1.125 0.015625 1.0117 1.2148 0.68359 0.80469 0.93359 0.95703 0.46094 0.26953 1.0117-0.43359 1.0078 0.33594 1.0938 0.55469 1.1055 1.1328 1.1328 1.043 0.69922 1.6641 0.31641 0.94531 0.35547-0.25 0.98438-0.54297 1.0078-0.35156 1.0312-0.30469 1.9102-0.625 0.78516-1.3711 0.10938-1.1914-0.5625-1.3477-0.39844-1.543-1.1328-1.1016-0.12109-0.61719 0.90234-1 1.3672-1.1797 0.78125-1.6953 0.070312-2.1953-0.60938-1.0508-0.84375-2.0039-0.64844-1.6289-0.42578-1.6523-0.42578-1.9141-0.21094-0.99219 0.16406-1.1562 1.2031-0.44922 2.6953-0.33203 1.0391 0.40625 1.3984 0.09375 1.6445-0.57031 1.3945 0.046875 1.207-0.03125 1.2656-0.027344 1.1328-0.003906 1.1016-0.36719 1.3984-1.6484-0.082031-1.1328-0.40234-1.3711 0.09375-1.1094 0.21484-1.3203-0.074219-0.85156 0.57031-0.80469 0.80078-1.6289 0.92188-0.99219 0.49609-0.80078 0.75781-0.54297 1.8398 0.070313 1.0352 0.25391 0.98828-0.054688 1.0156-2.0195 1.2383-1.5664 1.6094-1.668 2.2852-0.82422 0.67969-0.88281 0.90234-0.41797 1.0391-0.31641 1.5898-0.22656 1.9336 0.5625 2 0.15234 1.1836-0.88672 2.2734-1.1914 2.0938-0.30469 1.0195-0.85156 2.168-1.0781 1.2812-0.26172 1.168-0.41406 1.0547-0.67969 1.8867-2.8008-1.7656-2.9883-3.2578-8.8867-5.9727-0.48828-0.88672-0.70312-0.79297-1.1602-0.75781-0.85938-0.77734-0.74609-1.0273-0.42188-1.2773-0.83203-0.61719-0.85547-0.60547-0.72656-0.85547-1.2422-0.52344-0.82422-1.0938 0.47266-0.99219 0.3125-1.375-0.82422-1.0977-1.1367-0.42969-1.1914 0.082032-1.1211 0.078125-0.50781-1.3164-1.0234-0.32812 0.15625 1.1055-0.75781 0.68359-0.92188-0.50781-1.1133 0.33984-0.55859 0.97656-1.1328-0.070313-1.2188 0.31641-0.76562 0.80469-0.27344-1.0703-0.40234-1.0156-1.2773 0.85547-0.9375 0.68359-0.99609-0.074219-0.63281-0.95703-0.75-1.0273-0.66406 0.95312-0.0625 1.1289-0.66406 0.78516-0.69922-0.82812-0.54297-0.93359-1.1562-0.25781-1.2227-0.12109-1.7109-0.16406-1.0312 0.80469-0.27734 1.1953-1.293 0.41016-0.85547-0.68359 0.082031-1.082-0.8125-0.70312-0.96484-0.28516-1.2266-0.39844-1.1641 0.48438-1.1523 0.18359-1.0859-0.50391 0.84766-0.65234 0.88672-0.67578-0.80859-1.0156-0.82422-0.74609-0.53125 1.2891-0.95312-0.51172-1.4453-1.2734-0.68359-0.99609-0.68359-0.92969-1.1562-0.16406-0.98438-0.34375-0.41016-1.2188-0.35938-0.98438-1.0273-0.84766-0.64453-1.2852-0.94531-0.60547-0.082031 1.0938-0.16797 1.1367-1.0039-0.11328-0.80078-0.68359 0.14844-1.0547 0.76562-0.74609-0.023437-1.0938-1.1562-0.035156-0.77344 0.64453-1.3164-0.74219-0.88672-0.69531-0.65625-0.80469-1.3828 0.27734-0.65625-0.85156-0.6875-0.87891-0.82422 1.0664-0.70312 0.72266-1.0703-0.85156-0.99219-0.23438-0.23438 0.99219-0.91797 0.43359-0.46094-1.0469 0.94141-1.875 0.78906-1.1992 1.0391-0.77734 1.2148-0.30859 1-0.12891 1.3398-0.28906 0.97656-0.30469 0.95312-0.32422 0.98047-0.42969 1.6992-0.77344 0.79297-0.86328 0.66797-1.1758 0.55469-0.91016 0.59375-0.92578 0.44531-1.3047 0.39062-1.1016 0.18359-0.98438 0.20703-1.543 0.32031-1.4922 0.46094-1.8555 0.24609-1.0391 0.21484-1.0156 0.13672-1.4688 0.16797-1.3438 0.23438-1.0938 0.25391-1.0117 0.25391-1.0547 0.18359-1.2148 0.26562-1.0391 0.375-1.6211 0.30469-1.0391 0.35156-1.2148 0.25-1.0195-0.10156-1.0977-0.21875-1.1523-0.44922-0.91797-0.42578-1.4102-0.25391-1.082-0.046875-1.3242-0.30078-1.332-0.078125-1.1562 0.20312-0.99219 0.24609-1 0.023437-1.2109-0.35938-2.3711-0.082031-1.793-0.17578-1.4414-0.14062-3.0234-0.26562-1.4531-0.36719-1.0508 0.91406-0.87109 0.92969-0.46094 0.16016-1.0469 1.1133-0.96875 1.0664-0.48047 1.0781-1.082 1.0078-0.50781 1.0938-0.67969 0.99219-0.30469 0.88281-0.5625 0.75391-0.69922 0.50781-1.3164 0.48438-1.6367 0.09375-1.2578 0.78516-1.1211 0.91016-0.57422 0.95312-0.45312 0.91406-0.56641 0.50781-1.0859 0.81641-0.64453 0.67969-1.1016 1.1484-0.042969 1.0312-0.13672 0.91406-0.41406 1.0859-0.45703 1.1445-0.51172 2.0586-0.51562 2.1133-0.80078 1.6016-0.17188 1.7461-0.74219 1.4258 0.011719 1.6562 0.23438 2.6953-1.1992 1.4531-0.79688 2.5352-2.0508 1.2383-0.46875 1.0391 0.72656 1.0352 0.23438 2.2109-0.007812 1.1406-0.25781 1.4258-0.57031 1.1641-0.29688 0.91797-0.54688 1.0391-0.375 1.0234-0.68359 1.0391-0.85156 0.69531-0.87891 0.69922-1.7266 1.25-1.332 1.7305-1.293 1.6406-0.93359 0.91797-0.74219-0.55469-2.3672-0.18359-1.3906 0.85938-1.7031 1.3516-1.2031 0.035156-1.125-0.41406-1.2109 0.023437-1.25 1.0781-0.58984 1.375-0.60938 1.375-0.23438 1.0664-0.61328 1.0664-0.24609 2.2891-0.085938 1.3359-1.5586 0.89844-1.2852 1.0039-0.26172 1.0742-0.10938 2.1133-0.37891z" fill="#ccc" fill-rule="evenodd"/>
<path d="m298.23 88.391 0.41406 0.25781 0.55469 1.3164-1.3789 2.8242-0.74219 1.2773-0.81641 1.3359-0.41406 1.0078-0.71484 1.6055-0.23828 1.582 0.21094 1.0977 0.57031 1.4336 0.16406 1.0234 0.10156 1.0977-0.14844 1.0508 0.15625 1.2422 0.71094 1.0312 0.65234 1.1641 0.73438 0.88672 1.2266 1.582 1.4453 0.73438 1.1094 0.14062 1.2305-0.20312 0.92578-0.42578 0.74609-0.6875 0.56641-1.6641-0.14844-1.8555-0.55078-1.9492-0.085937-1.9688 0.12109-1.5742 0.91016-1.1133 0.76953-1.2148-1.0352-2.9688-0.035156-1.0078 1.4883 0.11719 2.3125-0.21484 1.832 0.23828 0.96094 0.40234 0.89062 0.59375 1.5 0.26562 1.8086 0.67188 1.9922 0.38281 1.5547 0.125 1.1992 0.32031 5.125 2.3516 2.8828 2.1289 1.3398 1.1016 0.65625 0.91797 2.1523 3.1055 0.57812 0.84375 1.1758 0.20703 1.0469-0.023438 1.6953 0.011719 1.0898-0.089844 1.3945-0.039062 0.18359 1.2812-0.95703 0.50391-1.0508-0.078125-0.85156 1.9297-0.22266 1.4492 0.88281 1.707 0.78125 0.84375 0.94922 0.64844 0.99219 0.54297 0.79688 0.83203 0.5 0.93359-0.089844 1.0781 0.47266 0.98047 0.71484 0.86719 1.0117 0.30859 1.1445-0.13672 0.49219 0.87891-0.1875 1.3984-0.20312 1.4062 0.76953 0.68359-0.24609 0.97266-0.80078 0.84375-0.91016 0.87109-1.0508 0.26172-0.69531-0.74609-0.91406 0.63281-1.0703 0.039062-0.48438-0.96094-0.57422 1.1211 0.19531 1.0391-1.0078 0.15625-0.63281 0.92578 0.16016 1.0156-0.64844 0.82812-0.80859 0.99609-1.082 0.41406-0.73047 0.89844-0.03125 1.082-0.36328 1.1445-1.4648 0.44531-0.94141 0.84766-0.89062 0.70703-1.0273 0.23438-0.085938 1.0117-1.1133-0.019531-0.62891 1.0469-0.27734 1.043-1.0156-0.44922-1.0586-0.054687-0.63281 0.89062-0.27734 1.2344 0.015625 1.2812-1.25 0.71875-1.3633 0.18359-0.86719 0.99609 0.37891 1.0312-0.19531 1.2578-1.1367 0.63281 0.35156 1.0078 1.082 0.15234-0.21094 0.99609-0.76562 1.0078-1.1406 0.92188-0.91797 0.51953 0.29688 1.2109-1.0195 0.35938-0.042969 1.2891 0.0625 1.082 0.14844 1.0078 1.0898 0.36719 1.0391 0.67188 1.1367-0.47266 0.86328-0.60156 1.0859 0.11719 1.0625-0.24609 0.98438 0.62891 1.0625 0.26172-0.45703 0.97266v1.1289l0.83594 0.54688 1.0195 0.23047-0.60156 0.80859 0.12109 1.2109 0.50781 0.92578 0.30078 0.98047 0.47656 0.98047 0.92578 0.43359 0.26953 1.125 0.015625 1.0117 1.2148 0.68359 0.80469 0.93359 0.95703 0.46094 0.26953 1.0117-0.43359 1.0078 0.33594 1.0938 0.55469 1.1055 1.1328 1.1328 1.043 0.69922 1.6641 0.31641 0.94531 0.35547-0.25 0.98438-0.54297 1.0078-0.35156 1.0312-0.30469 1.9102-0.625 0.78516-1.3711 0.10938-1.1914-0.5625-1.3477-0.39844-1.543-1.1328-1.1016-0.12109-0.61719 0.90234-1 1.3672-1.1797 0.78125-1.6953 0.070312-2.1953-0.60938-1.0508-0.84375-2.0039-0.64844-1.6289-0.42578-1.6523-0.42578-1.9141-0.21094-0.99219 0.16406-1.1562 1.2031-0.44922 2.6953-0.33203 1.0391 0.40625 1.3984 0.09375 1.6445-0.57031 1.3945 0.046875 1.207-0.03125 1.2656-0.027344 1.1328-0.003906 1.1016-0.36719 1.3984-1.6484-0.082031-1.1328-0.40234-1.3711 0.09375-1.1094 0.21484-1.3203-0.074219-0.85156 0.57031-0.80469 0.80078-1.6289 0.92188-0.99219 0.49609-0.80078 0.75781-0.54297 1.8398 0.070313 1.0352 0.25391 0.98828-0.054688 1.0156-2.0195 1.2383-1.5664 1.6094-1.668 2.2852-0.82422 0.67969-0.88281 0.90234-0.41797 1.0391-0.31641 1.5898-0.22656 1.9336 0.5625 2 0.15234 1.1836-0.88672 2.2734-1.1914 2.0938-0.30469 1.0195-0.85156 2.168-1.0781 1.2812-0.26172 1.168-0.41406 1.0547-0.67969 1.8867-2.8008-1.7656-2.9883-3.2578-8.8867-5.9727-0.48828-0.88672-0.70312-0.79297-1.1602-0.75781-0.85938-0.77734-0.74609-1.0273-0.42188-1.2773-0.83203-0.61719-0.85547-0.60547-0.72656-0.85547-1.2422-0.52344-0.82422-1.0938 0.47266-0.99219 0.3125-1.375-0.82422-1.0977-1.1367-0.42969-1.1914 0.082032-1.1211 0.078125-0.50781-1.3164-1.0234-0.32812 0.15625 1.1055-0.75781 0.68359-0.92188-0.50781-1.1133 0.33984-0.55859 0.97656-1.1328-0.070313-1.2188 0.31641-0.76562 0.80469-0.27344-1.0703-0.40234-1.0156-1.2773 0.85547-0.9375 0.68359-0.99609-0.074219-0.63281-0.95703-0.75-1.0273-0.66406 0.95312-0.0625 1.1289-0.66406 0.78516-0.69922-0.82812-0.54297-0.93359-1.1562-0.25781-1.2227-0.12109-1.7109-0.16406-1.0312 0.80469-0.27734 1.1953-1.293 0.41016-0.85547-0.68359 0.082031-1.082-0.8125-0.70312-0.96484-0.28516-1.2266-0.39844-1.1641 0.48438-1.1523 0.18359-1.0859-0.50391 0.84766-0.65234 0.88672-0.67578-0.80859-1.0156-0.82422-0.74609-0.53125 1.2891-0.95312-0.51172-1.4453-1.2734-0.68359-0.99609-0.68359-0.92969-1.1562-0.16406-0.98438-0.34375-0.41016-1.2188-0.35938-0.98438-1.0273-0.84766-0.64453-1.2852-0.94531-0.60547-0.082031 1.0938-0.16797 1.1367-1.0039-0.11328-0.80078-0.68359 0.14844-1.0547 0.76562-0.74609-0.023437-1.0938-1.1562-0.035156-0.77344 0.64453-1.3164-0.74219-0.88672-0.69531-0.65625-0.80469-1.3828 0.27734-0.65625-0.85156-0.6875-0.87891-0.82422 1.0664-0.70312 0.72266-1.0703-0.85156-0.99219-0.23438-0.23438 0.99219-0.91797 0.43359-0.46094-1.0469 0.94141-1.875 0.78906-1.1992 1.0391-0.77734 1.2148-0.30859 1-0.12891 1.3398-0.28906 0.97656-0.30469 0.95312-0.32422 0.98047-0.42969 1.6992-0.77344 0.79297-0.86328 0.66797-1.1758 0.55469-0.91016 0.59375-0.92578 0.44531-1.3047 0.39062-1.1016 0.18359-0.98438 0.20703-1.543 0.32031-1.4922 0.46094-1.8555 0.24609-1.0391 0.21484-1.0156 0.13672-1.4688 0.16797-1.3438 0.23438-1.0938 0.25391-1.0117 0.25391-1.0547 0.18359-1.2148 0.26562-1.0391 0.375-1.6211 0.30469-1.0391 0.35156-1.2148 0.25-1.0195-0.10156-1.0977-0.21875-1.1523-0.44922-0.91797-0.42578-1.4102-0.25391-1.082-0.046875-1.3242-0.30078-1.332-0.078125-1.1562 0.20312-0.99219 0.24609-1 0.023437-1.2109-0.35938-2.3711-0.082031-1.793-0.17578-1.4414-0.14062-3.0234-0.26562-1.4531-0.36719-1.0508 0.91406-0.87109 0.92969-0.46094 0.16016-1.0469 1.1133-0.96875 1.0664-0.48047 1.0781-1.082 1.0078-0.50781 1.0938-0.67969 0.99219-0.30469 0.88281-0.5625 0.75391-0.69922 0.50781-1.3164 0.48438-1.6367 0.09375-1.2578 0.78516-1.1211 0.91016-0.57422 0.95312-0.45312 0.91406-0.56641 0.50781-1.0859 0.81641-0.64453 0.67969-1.1016 1.1484-0.042969 1.0312-0.13672 0.91406-0.41406 1.0859-0.45703 1.1445-0.51172 2.0586-0.51562 2.1133-0.80078 1.6016-0.17188 1.7461-0.74219 1.4258 0.011719 1.6562 0.23438 2.6953-1.1992 1.4531-0.79688 2.5352-2.0508 1.2383-0.46875 1.0391 0.72656 1.0352 0.23438 2.2109-0.007812 1.1406-0.25781 1.4258-0.57031 1.1641-0.29688 0.91797-0.54688 1.0391-0.375 1.0234-0.68359 1.0391-0.85156 0.69531-0.87891 0.69922-1.7266 1.25-1.332 1.7305-1.293 1.6406-0.93359 0.91797-0.74219-0.55469-2.3672-0.18359-1.3906 0.85938-1.7031 1.3516-1.2031 0.035156-1.125-0.41406-1.2109 0.023437-1.25 1.0781-0.58984 1.375-0.60938 1.375-0.23438 1.0664-0.61328 1.0664-0.24609 2.2891-0.085938 1.3359-1.5586 0.89844-1.2852 1.0039-0.26172 1.0742-0.10938 2.1133-0.37891 0.39453 0.4375" fill="none" stroke="#fff" stroke-linecap="round" stroke-linejoin="round" stroke-miterlimit="10" stroke-width="2"/>
<path d="m220.29 39.832 0.17578 0.15234 0.10938 1.043-0.33203 1.0703 0.11719 1.0352 1.1484-0.78516 0.92578-0.56641 1.3867 0.12109 0.57031 0.98047 0.17578 1.1484-0.75 1.0508-0.5625 0.94531-0.28125 1.5625-0.32812 1.3359 0.94141 1.4531 0.89062 0.85156 0.92969 0.80078 1.4766 1.6875-0.37109 1.4531 0.09375 1.0039 0.89453 0.55078 0.78125 0.63672 1.8047 0.19922 1.0781 0.10938 1.0703-0.027344 1.2227 0.29297 0.82422 0.63672 0.097656 1.0391 0.64062 1.1445 0.98438 0.46484 1.0156 0.38281 0.84375 0.85547 0.99219 0.30469 0.63672-0.99609-0.10547-1.1133 0.65234-1.2227-0.042969-1.6406-0.87891-0.76562-0.40234-1.1289 1.4414-0.76562 1.1133 0.007812 1.4961 0.80078 1.3125-0.42969 0.76172-0.6875 0.15625-1.2148 0.64453-1.2188 0.82422-0.58984 1.3516-1.0664 0.49219-0.89453-1.0117-1.6836-1.1484-0.050781-1.0547 0.17578 1.3906-0.95312 1.5859-0.63281 1.3516-0.53906 0.070313-1.2734 0.44531-0.96875 1.7031-0.019532 0.82812 0.59766-0.76562 0.89062 0.21484 1.0586 1.0898 0.38672 1.2734-0.21484 1.1914-0.38281 2.043-0.078125 1.3359-0.22266 1.3359-0.011719 1.3398 0.41797 1.0586 0.18359 1.3594-0.21875 2.4844-1.0781 1.0039-0.36328 0.56641 0.83203 0.0625 1.1172-0.26562 0.97656-1.0312 0.65234-0.26562 1.0078-0.26562 1.1328 0.17969 1.7656 0.79688 0.62109 0.77344 0.82031-0.52344 1.2695-0.33594 1.1602-0.18359 1.0117-0.23047 1.4961-0.20312 1.3633-0.55859 0.85938-0.71094 1.1211 0.625 0.97266 2.6133 2.4844 1.6719 2.125 1.2461 1.5781 1.1836 1.207 1.1172 0.33984 1.3438-0.28906 1.8047-0.45703 1.1992-0.31641 1.6328 1.5039 1.2773 1.3906 1.0156 0.32031 0.92969 0.75781 1.1445 1.1797 1.1445 0.62109 1.125 0.16406 3.2227 0.92578 0.88672 0.75391 1.0586 0.42188 0.94531 0.82422 2.0352 0.1875 1.3672-0.42188 1.043 0.45312-0.23047 1.7383-0.23047 0.98438 0.40625 1.4961 0.48438 0.91406 0.45312 1.0234 0.1875 1.6484-0.10547 1.3555-1.4375 0.3125-1.2969 0.12891-1.457 0.30859-0.89844 1.2852-0.67188 1.1875-2.9531 0.45703-1.0664 0.24609-1.0664 0.61328-1.375 0.23438-1.375 0.60938-1.0781 0.58984-0.023437 1.25 0.41406 1.2109-0.035156 1.125-1.3516 1.2031-0.85938 1.7031 0.10938 1.0977 0.66797 2.4336-0.95703 0.96875-1.6406 0.93359-0.98438 0.66797-1.3477 1.2539-1.0117 1.5-0.53516 1.3672-1.5352 1.293-1.0234 0.68359-1.0391 0.375-0.91797 0.54688-1.1641 0.29688-1.4258 0.57031-1.1406 0.25781-2.2109 0.007812-1.0352-0.23438-1.0391-0.72656-1.2383 0.46875-2.5352 2.0508-1.4531 0.79688-1.8906 0.83984-2.4609 0.125-1.4258-0.011719-1.7461 0.74219-1.6016 0.17188-2.1133 0.80078-2.0586 0.51562-1.1445 0.51172-1.0859 0.45703-0.91406 0.41406-1.0312 0.13672-1.1484 0.042969-0.67969 1.1016-0.81641 0.64453-0.21875 0.98438-1.0234 0.24219-0.6875 0.73828-1.0625-0.011719-0.91016 1.3516-0.26172 1.75-0.35938 1.3633-0.52734 0.91016-0.54688 0.88281-0.64844 0.78125-1.1719 0.70703-0.96875 0.36719-1.2031 0.53516-0.96484 0.78125-1.1367 0.76562-0.80469 0.65234-0.82031 0.83203-0.17188 1.0273-1.3203 0.14062-1.9844 0.14844-1.207 0.48828-1.2891 0.066407-1.1133-0.19531-1.4844-0.019531-1.2734 0.26953-1.4453 1.0938-0.98828 0.93359-1.2188 1.1875-1.6758 0.34766-1.082-0.17578-1.0039 0.59766-1.0781 2.8203-0.92969 1.832-0.79297 0.78125-1.1875-0.019531-1.0703-1.0859-0.89844-1.3242-0.53125-2.3945 0.14062-2.4609-0.078125-1.2734-0.25391-1.043-1.2734-0.55859-1.1602-0.13672-3.5 0.015625-1.0859-0.83984-1.0156-0.35156-1.9648-0.29688-1.9414-0.49609-1.5859-0.45703-1.3281-1.8828-3.3945-7.0352-1.2227-1.2891-0.91406-1.25-0.97656-1.4883-0.86719-1.3867-0.63281-1.0586-0.59375-1.5-0.57812-1.9258-1.4258-2.0586-1.1289-1.168-1.0117-0.87109-1.0938-0.54688-3.3828-0.51172-1.5312-0.96484-1.3672-1.6445-1.3867-1.4492-1.0117-1.1484-1.2578-1.3398-0.91797-1.6562-0.12109-1.2852 0.38672-1.6875 0.22656-0.99219 0.63281-1.4219 0.65625-1.6797 0.86719-1.918 0.32031-1.9648 0.19141-1.0938 1.0352-1.707 1.3594-0.89062 1.4375-0.81641-0.10156-1.4219-0.71094-1.6133-0.91016-1.0117-1.375-1.5117-1.0898-1.9219 0.28906-1.7031 0.25391-1.1289 0.76953-1.9102 0.69141-0.87891 1.6758-0.625 1.0078-0.066407 1.3008-0.37891 0.61328-1.043 1.5586-1.2109 1.1094-0.41797 1.6289-0.18359 1.1758-0.13281 1.2188-0.13672 1.3906-0.64844 1.5781-1.0156 1.2578-1.0625 1.4336-0.58203 1.1016-0.21094 1.5586-0.29688 0.99609-0.625 0.90234-0.63281 0.70312-0.85156 0.64453-0.99609 0.48438-1.1602 0.53906-1.1562 0.48438-1.1562 0.51953-1.043 0.64844-0.96094 0.8125-0.72266 1.0117-0.88281 0.65234-0.78125 0.61719-0.89453 0.75781-0.92578 1.3438-0.36328 1.1406-0.51172 0.96875-1.0859 0.875-1.0469 0.75781-1.5117-0.074219-2.0352-0.019531-1.2305 0.68359-0.89844 0.53516-0.91406 0.089844-1.2969 0.28125-1.2148 0.85547-1.0938 0.83203-0.68359 1.9492 0.30078 1.9922 0.22266 1.4688 0.28516 2.7461 0.19141 2.1641-1.0078 2.1641-0.31641 1.3281-0.11719 1.2305 0.21094 1.2695-0.38672z" fill="#ccc" fill-rule="evenodd"/>
<path d="m220.29 39.832 0.17578 0.15234 0.10938 1.043-0.33203 1.0703 0.11719 1.0352 1.1484-0.78516 0.92578-0.56641 1.3867 0.12109 0.57031 0.98047 0.17578 1.1484-0.75 1.0508-0.5625 0.94531-0.28125 1.5625-0.32812 1.3359 0.94141 1.4531 0.89062 0.85156 0.92969 0.80078 1.4766 1.6875-0.37109 1.4531 0.09375 1.0039 0.89453 0.55078 0.78125 0.63672 1.8047 0.19922 1.0781 0.10938 1.0703-0.027344 1.2227 0.29297 0.82422 0.63672 0.097656 1.0391 0.64062 1.1445 0.98438 0.46484 1.0156 0.38281 0.84375 0.85547 0.99219 0.30469 0.63672-0.99609-0.10547-1.1133 0.65234-1.2227-0.042969-1.6406-0.87891-0.76562-0.40234-1.1289 1.4414-0.76562 1.1133 0.007812 1.4961 0.80078 1.3125-0.42969 0.76172-0.6875 0.15625-1.2148 0.64453-1.2188 0.82422-0.58984 1.3516-1.0664 0.49219-0.89453-1.0117-1.6836-1.1484-0.050781-1.0547 0.17578 1.3906-0.95312 1.5859-0.63281 1.3516-0.53906 0.070313-1.2734 0.44531-0.96875 1.7031-0.019532 0.82812 0.59766-0.76562 0.89062 0.21484 1.0586 1.0898 0.38672 1.2734-0.21484 1.1914-0.38281 2.043-0.078125 1.3359-0.22266 1.3359-0.011719 1.3398 0.41797 1.0586 0.18359 1.3594-0.21875 2.4844-1.0781 1.0039-0.36328 0.56641 0.83203 0.0625 1.1172-0.26562 0.97656-1.0312 0.65234-0.26562 1.0078-0.26562 1.1328 0.17969 1.7656 0.79688 0.62109 0.77344 0.82031-0.52344 1.2695-0.33594 1.1602-0.18359 1.0117-0.23047 1.4961-0.20312 1.3633-0.55859 0.85938-0.71094 1.1211 0.625 0.97266 2.6133 2.4844 1.6719 2.125 1.2461 1.5781 1.1836 1.207 1.1172 0.33984 1.3438-0.28906 1.8047-0.45703 1.1992-0.31641 1.6328 1.5039 1.2773 1.3906 1.0156 0.32031 0.92969 0.75781 1.1445 1.1797 1.1445 0.62109 1.125 0.16406 3.2227 0.92578 0.88672 0.75391 1.0586 0.42188 0.94531 0.82422 2.0352 0.1875 1.3672-0.42188 1.043 0.45312-0.23047 1.7383-0.23047 0.98438 0.40625 1.4961 0.48438 0.91406 0.45312 1.0234 0.1875 1.6484-0.10547 1.3555-1.4375 0.3125-1.2969 0.12891-1.457 0.30859-0.89844 1.2852-0.67188 1.1875-2.9531 0.45703-1.0664 0.24609-1.0664 0.61328-1.375 0.23438-1.375 0.60938-1.0781 0.58984-0.023437 1.25 0.41406 1.2109-0.035156 1.125-1.3516 1.2031-0.85938 1.7031 0.10938 1.0977 0.66797 2.4336-0.95703 0.96875-1.6406 0.93359-0.98438 0.66797-1.3477 1.2539-1.0117 1.5-0.53516 1.3672-1.5352 1.293-1.0234 0.68359-1.0391 0.375-0.91797 0.54688-1.1641 0.29688-1.4258 0.57031-1.1406 0.25781-2.2109 0.007812-1.0352-0.23438-1.0391-0.72656-1.2383 0.46875-2.5352 2.0508-1.4531 0.79688-1.8906 0.83984-2.4609 0.125-1.4258-0.011719-1.7461 0.74219-1.6016 0.17188-2.1133 0.80078-2.0586 0.51562-1.1445 0.51172-1.0859 0.45703-0.91406 0.41406-1.0312 0.13672-1.1484 0.042969-0.67969 1.1016-0.81641 0.64453-0.21875 0.98438-1.0234 0.24219-0.6875 0.73828-1.0625-0.011719-0.91016 1.3516-0.26172 1.75-0.35938 1.3633-0.52734 0.91016-0.54688 0.88281-0.64844 0.78125-1.1719 0.70703-0.96875 0.36719-1.2031 0.53516-0.96484 0.78125-1.1367 0.76562-0.80469 0.65234-0.82031 0.83203-0.17188 1.0273-1.3203 0.14062-1.9844 0.14844-1.207 0.48828-1.2891 0.066407-1.1133-0.19531-1.4844-0.019531-1.2734 0.26953-1.4453 1.0938-0.98828 0.93359-1.2188 1.1875-1.6758 0.34766-1.082-0.17578-1.0039 0.59766-1.0781 2.8203-0.92969 1.832-0.79297 0.78125-1.1875-0.019531-1.0703-1.0859-0.89844-1.3242-0.53125-2.3945 0.14062-2.4609-0.078125-1.2734-0.25391-1.043-1.2734-0.55859-1.1602-0.13672-3.5 0.015625-1.0859-0.83984-1.0156-0.35156-1.9648-0.29688-1.9414-0.49609-1.5859-0.45703-1.3281-1.8828-3.3945-7.0352-1.2227-1.2891-0.91406-1.25-0.97656-1.4883-0.86719-1.3867-0.63281-1.0586-0.59375-1.5-0.57812-1.9258-1.4258-2.0586-1.1289-1.168-1.0117-0.87109-1.0938-0.54688-3.3828-0.51172-1.5312-0.96484-1.3672-1.6445-1.3867-1.4492-1.0117-1.1484-1.2578-1.3398-0.91797-1.6562-0.12109-1.2852 0.38672-1.6875 0.22656-0.99219 0.63281-1.4219 0.65625-1.6797 0.86719-1.918 0.32031-1.9648 0.19141-1.0938 1.0352-1.707 1.3594-0.89062 1.4375-0.81641-0.10156-1.4219-0.71094-1.6133-0.91016-1.0117-1.375-1.5117-1.0898-1.9219 0.28906-1.7031 0.25391-1.1289 0.76953-1.9102 0.69141-0.87891 1.6758-0.625 1.0078-0.066407 1.3008-0.37891 0.61328-1.043 1.5586-1.2109 1.1094-0.41797 1.6289-0.18359 1.1758-0.13281 1.2188-0.13672 1.3906-0.64844 1.5781-1.0156 1.2578-1.0625 1.4336-0.58203 1.1016-0.21094 1.5586-0.29688 0.99609-0.625 0.90234-0.63281 0.70312-0.85156 0.64453-0.99609 0.48438-1.1602 0.53906-1.1562 0.48438-1.1562 0.51953-1.043 0.64844-0.96094 0.8125-0.72266 1.0117-0.88281 0.65234-0.78125 0.61719-0.89453 0.75781-0.92578 1.3438-0.36328 1.1406-0.51172 0.96875-1.0859 0.875-1.0469 0.75781-1.5117-0.074219-2.0352-0.019531-1.2305 0.68359-0.89844 0.53516-0.91406 0.089844-1.2969 0.28125-1.2148 0.85547-1.0938 0.83203-0.68359 1.9492 0.30078 1.9922 0.22266 1.4688 0.28516 2.7461 0.19141 2.1641-1.0078 2.1641-0.31641 1.3281-0.11719 1.2305 0.21094 1.2695-0.38672 0.58984 0.097656" fill="none" stroke="#fff" stroke-linecap="round" stroke-linejoin="round" stroke-miterlimit="10" stroke-width="2"/>
<path d="m82.07 0.03125 0.44531 0.22266 1.4102 0.70312 0.98828 0.91406 1.4258 1.3398 1.1914 0.97266 0.98438 0.44531 1.6562 0.40234 1.6172-0.20312 0.90234-0.84766 0.93359-0.88672 1.0977-0.84766 0.81641-0.6875 0.96484-0.46094 1.0312-0.24609 1.0859-0.050782 1.1172 0.09375 1.2656-0.058593 1.293 0.57422 0.93359 0.5625 2.1797 0.65625 2.1367 0.25391 1.6055 0.039062 1.8555-0.050781-0.10547 1.625 0.19141 1.1797 0.30078 1.3008 0.46875 0.98047 0.69141 1.0273 0.91016 1.4062 0.83203 0.83203 0.67188 0.86719 0.98047 0.90234 0.99609 0.98828 0.98828 0.92188 1.2383 1.0938 1.5898 0.87891 1.2148 0.16406 1.2695-0.30859 1.9453-1.1758 1.0938-0.92578 0.98047 0.49219 1.1758-0.62109 0.80469-0.89062 1.207-0.79297 0.9375-0.79297 1.7422 0.60938 1.4492 0.58203 0.92188 0.61328 1.0938 0.39062 1.2969-0.33203 1.0195-1.0469 0.99219-0.37109 0.66406-0.83984 0.54688-1.0938 1.5352-1.4531 0.66797-1.2109 0.87109-0.51953 2.0742-0.88281 1.8516-0.75 0.77344-0.88281 0.72266-0.86328 0.94141-0.64062 1.5664-0.089843 1.2812-0.47656 1.1953-0.46875 1.0352 0.015625 0.91797 0.58203 0.75781 0.68359 1.1758-0.13672 1.1094 0.86719 0.79688 1.7695 1.0078 0.625 1.2305 0.51172 1.3633 0.39062 1.5625 0.44141 0.96484-0.28125 0.83594-1.5273 1.2852-0.87109 1.2344-0.72656 0.97266-0.32031 0.94922-0.67969 1.2266-0.69141 0.90234 0.58203-0.16406 1.0586 0.95312 0.45312 0.85547 1.2969 0.45703 0.91406-0.070313 1.1289-1.0312 0.84375-0.60156 1.1289-0.53906 1.0312-1.3281 0.62109-1.0273 0.44141-1.0742-0.57422-2.1562 0.29297-0.82031 0.90625 0.90625 0.76953 0.13672 1.2891-0.32422 1.1641 0.37891 0.97656 0.97266 0.50781 0.54297 0.98438 0.94531 0.87891 0.65234 0.97656 0.92969 0.625 1.1523 0.71094 0.54297 0.93359 1.1172 1.2656 0.71094 0.96484 0.35938 1.3984 0.82031 1.0781 1.6445 1.6758 0.65625 0.85547 1.0859 0.89062 1.1523 0.48828 1.2812 1.6133 1.4102 0.8125 1.2969 1.6328 0.68359 0.91797 0.89062 0.60547 1.3906 0.76562 1.4062 0.46094 1.4961 0.33203 1.3086 0.23047 2.6836 0.36328 3.5195 0.58203 1.7656 0.22266 1.5625 0.14453-0.14453 1.3516-0.62891 0.92578-0.24219 1.2109-0.14453 1.0781-0.66406 1.0781-0.50391 1.8477 0.14062 1.1602-0.47266 1.7891-1.2266 1.6445-0.96875 1.0859-1.1406 0.51172-1.3438 0.36328-0.75781 0.92578-0.61719 0.89453-0.65234 0.78125-0.76953 0.66406-0.83984 0.74609-0.71094 0.77734-0.53906 1.1328-0.49609 1.1562-0.52344 1.1562-0.48438 1.1602-0.48047 0.94141-0.75 0.86719-0.86719 0.77734-1.2852 0.80859-1.5586 0.29688-1.1016 0.21094-1.4336 0.58203-1.2578 1.0625-1.5781 1.0156-1.3906 0.64844-1.207 0.13672-1.1875 0.13281-1.6289 0.18359-1.1094 0.41797-1.0078 0.57422-0.90234 1.2539-0.78516 0.75391-1.7852 0.11719-1.1406 0.35156-1.2266 1.1523-0.54297 1.3477-0.48047 1.6914-0.49609 0.96484 0.91016 2.0195 1.7617 2.1523 0.91016 1.0117 0.71094 1.6133 0.10156 1.4219-1.4375 0.81641-1.3594 0.89062-0.68359 0.77344-0.54297 2.0273-0.19531 1.4258-0.99219 2.457-0.65625 1.6797-0.63281 1.4219-0.22656 0.99219-0.30469 1.0234 0.039062 1.9492 0.46875 1.0859 1.707 1.9102 1.0117 1.1484 1 0.93359 1.7539 2.1602 0.79688 0.85156 4.1172 0.625 1.0938 0.54688 1.0117 0.87109 1.1289 1.168 1.2305 1.6484 0.74609 2.2539 0.62109 1.582 0.63281 1.0586 0.86719 1.3867 0.97656 1.4883 0.91406 1.25 1.2227 1.2891 2.793 6.3867-1.5195-0.48047-1.8047-0.63672-3.1094-0.84766-2.0938 0.089844-1.418 0.36328-0.91797 0.46875-1.1055 0.83594-0.8125 0.82812-2.2812 3.707-1.668 2.7305-1.5859 1.9961-1.0625 1.2852-1.3281 1.8633-0.51562 1.6289-0.38281 1.6875-0.31641 2.4766-0.33984 1.9805-0.35156 1.1797-0.93359 1.25-1.332 0.76172-1.5703 0.20703-1.2227 0.26953-1.0312 0.55469-1.2188 0.90625-1.0352 0.46484-2.2812 0.375-1.7422-0.48828-1.793 0.16797-2.3672-0.21875-1.9648 1.6758-0.91797 0.43359-2.3984 0.22656-1.7383 0.023438-1.1289 0.078125-2.3398 0.21875-1.4102-0.16016-1.0273-0.03125-1.2305 0.32031-1.1133-1.1172-0.62891-0.90234-1.332-1.6953-0.79297-1.1992 0.35547-1.3633 0.58203-0.84375 1.5234-1.625 0.74609-0.85156 0.74609-0.84766 0.61328-1.2031-0.17578-1.4219-0.10938-1.4062-0.12891-2.1836 0.10547-1.8555-0.015625-1.0664-0.34375-1.3789-0.73047-2.4922-0.69531-2.0625-0.96094-1.0938-1.1484-1.3867-0.91797-1.1055-0.51953-1.1133-0.15625-1.3867 0.26172-2.1016-0.875-0.81641-2.3633-0.52344-2.9414-0.40234-2.6719 0.070313-0.99609 0.59375-0.11719 1.9336-0.56641 1.0703-1.125 0.1875-1.6992-0.085937-2.5742 0.34766-1.4414-0.042969-1.1172-0.39453-1.5977-0.90234-0.82812-1.1445-0.71484-1.0195-1.0586-0.82812-0.98438-1.6094-0.55859-1.4219-2.7031-1.1953-1.2812 0.37109-0.67188 0.77344-0.58203 1.832 0.16406 1.7266-1.0195 2.707-1.0039 1.3398-1.6914 1.8047-0.53125 0.97656-1.0859 1.8242-1.4531 0.80078-1.1523-1.6016-0.90625-1.3945-0.43359-1.1484-0.14062-1.1328-0.88281-1.5273-0.78125-0.71484-1.0039 0.125-1.3555 0.72656-1.9375 1.2812-1.3828 1.1641-2.0508 1.8086-1.1719 0.62109-1.0156 0.09375-1.0352-0.32812-1.1055-0.78125-0.625-0.86328-1.4531-0.1875-1.3398 0.097656-2.082-0.42578-1.4766 0.035156-1.5391-0.085937-1.1758-0.79297-1.0938-0.28516-1.3086-0.070313-0.92969-0.51172-3.3477-1.9141-1.3594-0.92969-0.91406 0.44141-0.97266 0.23438-1.0234-0.21094-0.88672 0.48047-0.8125-0.64062-1.043-0.3125-1.2383-0.27344-0.99609-0.32422-1.1172 0.39453-1.125-0.51172-1.0078-0.039062-1.0234-0.55078-1.3164-0.33984-1.2578-0.25781-1.3359 0.074219-1.4414-0.015625-0.94922 0.35938-1.2188-0.78125-0.64453-0.89453-0.78516-0.71875-1.0586-0.027344-0.49219-0.96094-0.59375-1.3867-0.26172-1.3047 0.042968-1.1172 0.17969-1.5547-0.19922-1.2422-0.78906-0.75781-0.80859-0.91016-0.76172-0.97656-0.54688-1.0469-0.33594-1.0625-0.84375-0.91016-1.0117-0.4375-0.76562-0.76953-0.64453-0.96094-0.58984-1.2891-0.019531-1.0508 0.10156-1.1953-0.55078-1.2109-0.80469-0.79297 0.71094-0.73438 0.65234-0.9375 0.99219 0.22656 1.0234-0.17969 0.77734-0.75781 0.66016-0.91797 0.4375-0.95312 0.99609-0.59766 0.59375-0.87891 1.0703-0.48828 1.0195-0.54688 0.43359-0.99219-0.29297-1.4609-0.19141-1.2266-1.0195-0.87891-0.47656-0.94531-0.78516-0.86719-0.45703-1.0938-0.75-0.8125-0.03125-1.3516 0.29297-1.1133 0.37891-1.0625 0.47656-1.0352 0.48828-1.1172 0.95703-0.85938 0.96094-1.2148 1.2578-0.61719 1.1445 0.24219 0.89844 0.92188 1.3047 0.85547 0.98828 0.62891 1.6406 0.79688 1.1016 0.10156 0.16406-1.0234-0.44922-1.2305-0.69141-1.2734-0.38281-0.99609-0.21094-1.1719-0.50391-1.9062-0.625-0.92188 0.47656-1.4805 0.24609-1.1523 0.85156-1.0039 0.99609-0.875 1.0391-0.71484 0.73047-0.74609 0.26953 1.1445 0.83984-0.63672 1.0156 0.019532 1.0195-0.43359 1.0938-0.54297 0.63281-0.82422 0.32031-1.1758 0.76172-0.73438 0.9375-0.74609 1.1797-0.49609 1.0195 0.26562 0.73828 0.76172 1.0625 0.19531 1.2852-0.074219 1.4844 0.18359 1.3672-0.48047 0.49219-0.91016 2.0039-0.28125 1.6016 0.15234 1.1562-0.26172 0.20312-1.4297 0.39062-1.668 0.57031-0.89453 1.2891-0.60938 1.0352 0.011719 1.6562 0.12891 1.0234-0.12891 0.97266-1.1367 0.89844-1.3008 0.20312-1.3906 0.98438-1.6055 0.49219-0.94531 0.625-0.94531 0.60156-1.1914-0.027344-1.543 0.25391-2.3516 0.41797-1.6797-0.011718-1.0352 0.32812-1.0352 1.0859-0.55469 0.63281-1.9492 0.21484-1.3125-1.3516-1.125-0.89844-0.74219-0.46094-1.3555-0.18359-1.7695v-1.0117l0.22656-1.2109 0.46875-0.98828-0.14844-1.4297-0.29297-1.0938 0.058594-1.6562 0.25391-1.0469 0.52734-1.2461 0.70312-0.77344 0.82422-1.4609-0.18359-1.0117 0.47266-1.3242 0.41406-1.5781 0.26562-1.0391-0.078125-1.1602-0.28906-1.0352-0.31641-1 0.11328-1.0117 0.70312-0.84375 0.46484-0.91406 0.57812-1.2148 0.18359-1.0234 0.42578-0.99219-0.125-1.2461 0.3125-0.96094 0.015625-1.2891-0.125-1.0195 0.54688-0.96094 0.43359-1.0625z" fill="#ccc" fill-rule="evenodd"/>
<path d="m82.07 0.03125 0.44531 0.22266 1.4102 0.70312 0.98828 0.91406 1.4258 1.3398 1.1914 0.97266 0.98438 0.44531 1.6562 0.40234 1.6172-0.20312 0.90234-0.84766 0.93359-0.88672 1.0977-0.84766 0.81641-0.6875 0.96484-0.46094 1.0312-0.24609 1.0859-0.050782 1.1172 0.09375 1.2656-0.058593 1.293 0.57422 0.93359 0.5625 2.1797 0.65625 2.1367 0.25391 1.6055 0.039062 1.8555-0.050781-0.10547 1.625 0.19141 1.1797 0.30078 1.3008 0.46875 0.98047 0.69141 1.0273 0.91016 1.4062 0.83203 0.83203 0.67188 0.86719 0.98047 0.90234 0.99609 0.98828 0.98828 0.92188 1.2383 1.0938 1.5898 0.87891 1.2148 0.16406 1.2695-0.30859 1.9453-1.1758 1.0938-0.92578 0.98047 0.49219 1.1758-0.62109 0.80469-0.89062 1.207-0.79297 0.9375-0.79297 1.7422 0.60938 1.4492 0.58203 0.92188 0.61328 1.0938 0.39062 1.2969-0.33203 1.0195-1.0469 0.99219-0.37109 0.66406-0.83984 0.54688-1.0938 1.5352-1.4531 0.66797-1.2109 0.87109-0.51953 2.0742-0.88281 1.8516-0.75 0.77344-0.88281 0.72266-0.86328 0.94141-0.64062 1.5664-0.089843 1.2812-0.47656 1.1953-0.46875 1.0352 0.015625 0.91797 0.58203 0.75781 0.68359 1.1758-0.13672 1.1094 0.86719 0.79688 1.7695 1.0078 0.625 1.2305 0.51172 1.3633 0.39062 1.5625 0.44141 0.96484-0.28125 0.83594-1.5273 1.2852-0.87109 1.2344-0.72656 0.97266-0.32031 0.94922-0.67969 1.2266-0.69141 0.90234 0.58203-0.16406 1.0586 0.95312 0.45312 0.85547 1.2969 0.45703 0.91406-0.070313 1.1289-1.0312 0.84375-0.60156 1.1289-0.53906 1.0312-1.3281 0.62109-1.0273 0.44141-1.0742-0.57422-2.1562 0.29297-0.82031 0.90625 0.90625 0.76953 0.13672 1.2891-0.32422 1.1641 0.37891 0.97656 0.97266 0.50781 0.54297 0.98438 0.94531 0.87891 0.65234 0.97656 0.92969 0.625 1.1523 0.71094 0.54297 0.93359 1.1172 1.2656 0.71094 0.96484 0.35938 1.3984 0.82031 1.0781 1.6445 1.6758 0.65625 0.85547 1.0859 0.89062 1.1523 0.48828 1.2812 1.6133 1.4102 0.8125 1.2969 1.6328 0.68359 0.91797 0.89062 0.60547 1.3906 0.76562 1.4062 0.46094 1.4961 0.33203 1.3086 0.23047 2.6836 0.36328 3.5195 0.58203 1.7656 0.22266 1.5625 0.14453-0.14453 1.3516-0.62891 0.92578-0.24219 1.2109-0.14453 1.0781-0.66406 1.0781-0.50391 1.8477 0.14062 1.1602-0.47266 1.7891-1.2266 1.6445-0.96875 1.0859-1.1406 0.51172-1.3438 0.36328-0.75781 0.92578-0.61719 0.89453-0.65234 0.78125-0.76953 0.66406-0.83984 0.74609-0.71094 0.77734-0.53906 1.1328-0.49609 1.1562-0.52344 1.1562-0.48438 1.1602-0.48047 0.94141-0.75 0.86719-0.86719 0.77734-1.2852 0.80859-1.5586 0.29688-1.1016 0.21094-1.4336 0.58203-1.2578 1.0625-1.5781 1.0156-1.3906 0.64844-1.207 0.13672-1.1875 0.13281-1.6289 0.18359-1.1094 0.41797-1.0078 0.57422-0.90234 1.2539-0.78516 0.75391-1.7852 0.11719-1.1406 0.35156-1.2266 1.1523-0.54297 1.3477-0.48047 1.6914-0.49609 0.96484 0.91016 2.0195 1.7617 2.1523 0.91016 1.0117 0.71094 1.6133 0.10156 1.4219-1.4375 0.81641-1.3594 0.89062-0.68359 0.77344-0.54297 2.0273-0.19531 1.4258-0.99219 2.457-0.65625 1.6797-0.63281 1.4219-0.22656 0.99219-0.30469 1.0234 0.039062 1.9492 0.46875 1.0859 1.707 1.9102 1.0117 1.1484 1 0.93359 1.7539 2.1602 0.79688 0.85156 4.1172 0.625 1.0938 0.54688 1.0117 0.87109 1.1289 1.168 1.2305 1.6484 0.74609 2.2539 0.62109 1.582 0.63281 1.0586 0.86719 1.3867 0.97656 1.4883 0.91406 1.25 1.2227 1.2891 2.793 6.3867-1.5195-0.48047-1.8047-0.63672-3.1094-0.84766-2.0938 0.089844-1.418 0.36328-0.91797 0.46875-1.1055 0.83594-0.8125 0.82812-2.2812 3.707-1.668 2.7305-1.5859 1.9961-1.0625 1.2852-1.3281 1.8633-0.51562 1.6289-0.38281 1.6875-0.31641 2.4766-0.33984 1.9805-0.35156 1.1797-0.93359 1.25-1.332 0.76172-1.5703 0.20703-1.2227 0.26953-1.0312 0.55469-1.2188 0.90625-1.0352 0.46484-2.2812 0.375-1.7422-0.48828-1.793 0.16797-2.3672-0.21875-1.9648 1.6758-0.91797 0.43359-2.3984 0.22656-1.7383 0.023438-1.1289 0.078125-2.3398 0.21875-1.4102-0.16016-1.0273-0.03125-1.2305 0.32031-1.1133-1.1172-0.62891-0.90234-1.332-1.6953-0.79297-1.1992 0.35547-1.3633 0.58203-0.84375 1.5234-1.625 0.74609-0.85156 0.74609-0.84766 0.61328-1.2031-0.17578-1.4219-0.10938-1.4062-0.12891-2.1836 0.10547-1.8555-0.015625-1.0664-0.34375-1.3789-0.73047-2.4922-0.69531-2.0625-0.96094-1.0938-1.1484-1.3867-0.91797-1.1055-0.51953-1.1133-0.15625-1.3867 0.26172-2.1016-0.875-0.81641-2.3633-0.52344-2.9414-0.40234-2.6719 0.070313-0.99609 0.59375-0.11719 1.9336-0.56641 1.0703-1.125 0.1875-1.6992-0.085937-2.5742 0.34766-1.4414-0.042969-1.1172-0.39453-1.5977-0.90234-0.82812-1.1445-0.71484-1.0195-1.0586-0.82812-0.98438-1.6094-0.55859-1.4219-2.7031-1.1953-1.2812 0.37109-0.67188 0.77344-0.58203 1.832 0.16406 1.7266-1.0195 2.707-1.0039 1.3398-1.6914 1.8047-0.53125 0.97656-1.0859 1.8242-1.4531 0.80078-1.1523-1.6016-0.90625-1.3945-0.43359-1.1484-0.14062-1.1328-0.88281-1.5273-0.78125-0.71484-1.0039 0.125-1.3555 0.72656-1.9375 1.2812-1.3828 1.1641-2.0508 1.8086-1.1719 0.62109-1.0156 0.09375-1.0352-0.32812-1.1055-0.78125-0.625-0.86328-1.4531-0.1875-1.3398 0.097656-2.082-0.42578-1.4766 0.035156-1.5391-0.085937-1.1758-0.79297-1.0938-0.28516-1.3086-0.070313-0.92969-0.51172-3.3477-1.9141-1.3594-0.92969-0.91406 0.44141-0.97266 0.23438-1.0234-0.21094-0.88672 0.48047-0.8125-0.64062-1.043-0.3125-1.2383-0.27344-0.99609-0.32422-1.1172 0.39453-1.125-0.51172-1.0078-0.039062-1.0234-0.55078-1.3164-0.33984-1.2578-0.25781-1.3359 0.074219-1.4414-0.015625-0.94922 0.35938-1.2188-0.78125-0.64453-0.89453-0.78516-0.71875-1.0586-0.027344-0.49219-0.96094-0.59375-1.3867-0.26172-1.3047 0.042968-1.1172 0.17969-1.5547-0.19922-1.2422-0.78906-0.75781-0.80859-0.91016-0.76172-0.97656-0.54688-1.0469-0.33594-1.0625-0.84375-0.91016-1.0117-0.4375-0.76562-0.76953-0.64453-0.96094-0.58984-1.2891-0.019531-1.0508 0.10156-1.1953-0.55078-1.2109-0.80469-0.79297 0.71094-0.73438 0.65234-0.9375 0.99219 0.22656 1.0234-0.17969 0.77734-0.75781 0.66016-0.91797 0.4375-0.95312 0.99609-0.59766 0.59375-0.87891 1.0703-0.48828 1.0195-0.54688 0.43359-0.99219-0.29297-1.4609-0.19141-1.2266-1.0195-0.87891-0.47656-0.94531-0.78516-0.86719-0.45703-1.0938-0.75-0.8125-0.03125-1.3516 0.29297-1.1133 0.37891-1.0625 0.47656-1.0352 0.48828-1.1172 0.95703-0.85938 0.96094-1.2148 1.2578-0.61719 1.1445 0.24219 0.89844 0.92188 1.3047 0.85547 0.98828 0.62891 1.6406 0.79688 1.1016 0.10156 0.16406-1.0234-0.44922-1.2305-0.69141-1.2734-0.38281-0.99609-0.21094-1.1719-0.50391-1.9062-0.625-0.92188 0.47656-1.4805 0.24609-1.1523 0.85156-1.0039 0.99609-0.875 1.0391-0.71484 0.73047-0.74609 0.26953 1.1445 0.83984-0.63672 1.0156 0.019532 1.0195-0.43359 1.0938-0.54297 0.63281-0.82422 0.32031-1.1758 0.76172-0.73438 0.9375-0.74609 1.1797-0.49609 1.0195 0.26562 0.73828 0.76172 1.0625 0.19531 1.2852-0.074219 1.4844 0.18359 1.3672-0.48047 0.49219-0.91016 2.0039-0.28125 1.6016 0.15234 1.1562-0.26172 0.20312-1.4297 0.39062-1.668 0.57031-0.89453 1.2891-0.60938 1.0352 0.011719 1.6562 0.12891 1.0234-0.12891 0.97266-1.1367 0.89844-1.3008 0.20312-1.3906 0.98438-1.6055 0.49219-0.94531 0.625-0.94531 0.60156-1.1914-0.027344-1.543 0.25391-2.3516 0.41797-1.6797-0.011718-1.0352 0.32812-1.0352 1.0859-0.55469 0.63281-1.9492 0.21484-1.3125-1.3516-1.125-0.89844-0.74219-0.46094-1.3555-0.18359-1.7695v-1.0117l0.22656-1.2109 0.46875-0.98828-0.14844-1.4297-0.29297-1.0938 0.058594-1.6562 0.25391-1.0469 0.52734-1.2461 0.70312-0.77344 0.82422-1.4609-0.18359-1.0117 0.47266-1.3242 0.41406-1.5781 0.26562-1.0391-0.078125-1.1602-0.28906-1.0352-0.31641-1 0.11328-1.0117 0.70312-0.84375 0.46484-0.91406 0.57812-1.2148 0.18359-1.0234 0.42578-0.99219-0.125-1.2461 0.3125-0.96094 0.015625-1.2891-0.125-1.0195 0.54688-0.96094 0.43359-1.0625 0.66797-0.67578" fill="none" stroke="#fff" stroke-linecap="round" stroke-linejoin="round" stroke-miterlimit="10" stroke-width="2"/>
<path d="m298.23 88.391 0.41406 0.25781 0.55469 1.3164-1.3789 2.8242-0.74219 1.2773-0.81641 1.3359-0.41406 1.0078-0.71484 1.6055-0.23828 1.582 0.21094 1.0977 0.57031 1.4336 0.16406 1.0234 0.10156 1.0977-0.14844 1.0508 0.15625 1.2422 0.71094 1.0312 0.65234 1.1641 0.73438 0.88672 1.2266 1.582 1.4453 0.73438 1.1094 0.14062 1.2305-0.20312 0.92578-0.42578 0.74609-0.6875 0.56641-1.6641-0.14844-1.8555-0.55078-1.9492-0.085937-1.9688 0.12109-1.5742 0.91016-1.1133 0.76953-1.2148-1.0352-2.9688-0.035156-1.0078 1.4883 0.11719 2.3125-0.21484 1.832 0.23828 0.96094 0.40234 0.89062 0.59375 1.5 0.26562 1.8086 0.67188 1.9922 0.38281 1.5547 0.125 1.1992 0.32031 5.125 2.3516 2.8828 2.1289 1.3398 1.1016 0.65625 0.91797 2.1523 3.1055 0.57812 0.84375 1.1758 0.20703 1.0469-0.023438 1.6953 0.011719 1.0898-0.089844 1.3945-0.039062 0.18359 1.2812-0.95703 0.50391-1.0508-0.078125-0.85156 1.9297-0.22266 1.4492 0.88281 1.707 0.78125 0.84375 0.94922 0.64844 0.99219 0.54297 0.79688 0.83203 0.5 0.93359-0.089844 1.0781 0.47266 0.98047 0.71484 0.86719 1.0117 0.30859 1.1445-0.13672 0.49219 0.87891-0.1875 1.3984-0.20312 1.4062 0.76953 0.68359-0.24609 0.97266-0.80078 0.84375-0.91016 0.87109-1.0508 0.26172-0.69531-0.74609-0.91406 0.63281-1.0703 0.039062-0.48438-0.96094-0.57422 1.1211 0.19531 1.0391-1.0078 0.15625-0.63281 0.92578 0.16016 1.0156-0.64844 0.82812-0.80859 0.99609-1.082 0.41406-0.73047 0.89844-0.03125 1.082-0.36328 1.1445-1.4648 0.44531-0.94141 0.84766-0.89062 0.70703-1.0273 0.23438-0.085938 1.0117-1.1133-0.019531-0.62891 1.0469-0.27734 1.043-1.0156-0.44922-1.0586-0.054687-0.63281 0.89062-0.27734 1.2344 0.015625 1.2812-1.25 0.71875-1.3633 0.18359-0.86719 0.99609 0.37891 1.0312-0.19531 1.2578-1.1367 0.63281 0.35156 1.0078 1.082 0.15234-0.21094 0.99609-0.76562 1.0078-1.1406 0.92188-0.91797 0.51953 0.29688 1.2109-1.0195 0.35938-0.042969 1.2891 0.0625 1.082 0.14844 1.0078 1.0898 0.36719 1.0391 0.67188 1.1367-0.47266 0.86328-0.60156 1.0859 0.11719 1.0625-0.24609 0.98438 0.62891 1.0625 0.26172-0.45703 0.97266v1.1289l0.83594 0.54688 1.0195 0.23047-0.60156 0.80859 0.12109 1.2109 0.50781 0.92578 0.30078 0.98047 0.47656 0.98047 0.92578 0.43359 0.26953 1.125 0.015625 1.0117 1.2148 0.68359 0.80469 0.93359 0.95703 0.46094 0.26953 1.0117-0.43359 1.0078 0.33594 1.0938 0.55469 1.1055 1.1328 1.1328 1.043 0.69922 1.6641 0.31641 0.94531 0.35547-0.25 0.98438-0.54297 1.0078-0.35156 1.0312-0.30469 1.9102-0.625 0.78516-1.3711 0.10938-1.1914-0.5625-1.3477-0.39844-1.543-1.1328-1.1016-0.12109-0.61719 0.90234-1 1.3672-1.1797 0.78125-1.6953 0.070312-2.1953-0.60938-1.0508-0.84375-2.0039-0.64844-1.6289-0.42578-1.6523-0.42578-1.9141-0.21094-0.99219 0.16406-1.1562 1.2031-0.44922 2.6953-0.33203 1.0391 0.40625 1.3984 0.09375 1.6445-0.57031 1.3945 0.046875 1.207-0.03125 1.2656-0.027344 1.1328-0.003906 1.1016-0.36719 1.3984-1.6484-0.082031-1.1328-0.40234-1.3711 0.09375-1.1094 0.21484-1.3203-0.074219-0.85156 0.57031-0.80469 0.80078-1.6289 0.92188-0.99219 0.49609-0.80078 0.75781-0.54297 1.8398 0.070313 1.0352 0.25391 0.98828-0.054688 1.0156-2.0195 1.2383-1.5664 1.6094-1.668 2.2852-0.82422 0.67969-0.88281 0.90234-0.41797 1.0391-0.31641 1.5898-0.22656 1.9336 0.5625 2 0.15234 1.1836-0.88672 2.2734-1.1914 2.0938-0.30469 1.0195-0.85156 2.168-1.0781 1.2812-0.26172 1.168-0.41406 1.0547-0.67969 1.8867-2.8008-1.7656-2.9883-3.2578-8.8867-5.9727-0.48828-0.88672-0.70312-0.79297-1.1602-0.75781-0.85938-0.77734-0.74609-1.0273-0.42188-1.2773-0.83203-0.61719-0.85547-0.60547-0.72656-0.85547-1.2422-0.52344-0.82422-1.0938 0.47266-0.99219 0.3125-1.375-0.82422-1.0977-1.1367-0.42969-1.1914 0.082032-1.1211 0.078125-0.50781-1.3164-1.0234-0.32812 0.15625 1.1055-0.75781 0.68359-0.92188-0.50781-1.1133 0.33984-0.55859 0.97656-1.1328-0.070313-1.2188 0.31641-0.76562 0.80469-0.27344-1.0703-0.40234-1.0156-1.2773 0.85547-0.9375 0.68359-0.99609-0.074219-0.63281-0.95703-0.75-1.0273-0.66406 0.95312-0.0625 1.1289-0.66406 0.78516-0.69922-0.82812-0.54297-0.93359-1.1562-0.25781-1.2227-0.12109-1.7109-0.16406-1.0312 0.80469-0.27734 1.1953-1.293 0.41016-0.85547-0.68359 0.082031-1.082-0.8125-0.70312-0.96484-0.28516-1.2266-0.39844-1.1641 0.48438-1.1523 0.18359-1.0859-0.50391 0.84766-0.65234 0.88672-0.67578-0.80859-1.0156-0.82422-0.74609-0.53125 1.2891-0.95312-0.51172-1.4453-1.2734-0.68359-0.99609-0.68359-0.92969-1.1562-0.16406-0.98438-0.34375-0.41016-1.2188-0.35938-0.98438-1.0273-0.84766-0.64453-1.2852-0.94531-0.60547-0.082031 1.0938-0.16797 1.1367-1.0039-0.11328-0.80078-0.68359 0.14844-1.0547 0.76562-0.74609-0.023437-1.0938-1.1562-0.035156-0.77344 0.64453-1.3164-0.74219-0.88672-0.69531-0.65625-0.80469-1.3828 0.27734-0.65625-0.85156-0.6875-0.87891-0.82422 1.0664-0.70312 0.72266-1.0703-0.85156-0.99219-0.23438-0.23438 0.99219-0.91797 0.43359-0.46094-1.0469 0.94141-1.875 0.78906-1.1992 1.0391-0.77734 1.2148-0.30859 1-0.12891 1.3398-0.28906 0.97656-0.30469 0.95312-0.32422 0.98047-0.42969 1.6992-0.77344 0.79297-0.86328 0.66797-1.1758 0.55469-0.91016 0.59375-0.92578 0.44531-1.3047 0.39062-1.1016 0.18359-0.98438 0.20703-1.543 0.32031-1.4922 0.46094-1.8555 0.24609-1.0391 0.21484-1.0156 0.13672-1.4688 0.16797-1.3438 0.23438-1.0938 0.25391-1.0117 0.25391-1.0547 0.18359-1.2148 0.26562-1.0391 0.375-1.6211 0.30469-1.0391 0.35156-1.2148 0.25-1.0195-0.10156-1.0977-0.21875-1.1523-0.44922-0.91797-0.42578-1.4102-0.25391-1.082-0.046875-1.3242-0.30078-1.332-0.078125-1.1562 0.20312-0.99219 0.24609-1 0.023437-1.2109-0.35938-2.3711-0.082031-1.793-0.17578-1.4414-0.14062-3.0234-0.26562-1.4531-0.36719-1.0508 0.91406-0.87109 0.92969-0.46094 0.16016-1.0469 1.1133-0.96875 1.0664-0.48047 1.0781-1.082 1.0078-0.50781 1.0938-0.67969 0.99219-0.30469 0.88281-0.5625 0.75391-0.69922 0.50781-1.3164 0.48438-1.6367 0.09375-1.2578 0.78516-1.1211 0.91016-0.57422 0.95312-0.45312 0.91406-0.56641 0.50781-1.0859 0.81641-0.64453 0.67969-1.1016 1.1484-0.042969 1.0312-0.13672 0.91406-0.41406 1.0859-0.45703 1.1445-0.51172 2.0586-0.51562 2.1133-0.80078 1.6016-0.17188 1.7461-0.74219 1.4258 0.011719 1.6562 0.23438 2.6953-1.1992 1.4531-0.79688 2.5352-2.0508 1.2383-0.46875 1.0391 0.72656 1.0352 0.23438 2.2109-0.007812 1.1406-0.25781 1.4258-0.57031 1.1641-0.29688 0.91797-0.54688 1.0391-0.375 1.0234-0.68359 1.0391-0.85156 0.69531-0.87891 0.69922-1.7266 1.25-1.332 1.7305-1.293 1.6406-0.93359 0.91797-0.74219-0.55469-2.3672-0.18359-1.3906 0.85938-1.7031 1.3516-1.2031 0.035156-1.125-0.41406-1.2109 0.023437-1.25 1.0781-0.58984 1.375-0.60938 1.375-0.23438 1.0664-0.61328 1.0664-0.24609 2.2891-0.085938 1.3359-1.5586 0.89844-1.2852 1.0039-0.26172 1.0742-0.10938 2.1133-0.37891z" fill="#0a5394" fill-rule="evenodd"/>
<path d="m298.23 88.391 0.41406 0.25781 0.55469 1.3164-1.3789 2.8242-0.74219 1.2773-0.81641 1.3359-0.41406 1.0078-0.71484 1.6055-0.23828 1.582 0.21094 1.0977 0.57031 1.4336 0.16406 1.0234 0.10156 1.0977-0.14844 1.0508 0.15625 1.2422 0.71094 1.0312 0.65234 1.1641 0.73438 0.88672 1.2266 1.582 1.4453 0.73438 1.1094 0.14062 1.2305-0.20312 0.92578-0.42578 0.74609-0.6875 0.56641-1.6641-0.14844-1.8555-0.55078-1.9492-0.085937-1.9688 0.12109-1.5742 0.91016-1.1133 0.76953-1.2148-1.0352-2.9688-0.035156-1.0078 1.4883 0.11719 2.3125-0.21484 1.832 0.23828 0.96094 0.40234 0.89062 0.59375 1.5 0.26562 1.8086 0.67188 1.9922 0.38281 1.5547 0.125 1.1992 0.32031 5.125 2.3516 2.8828 2.1289 1.3398 1.1016 0.65625 0.91797 2.1523 3.1055 0.57812 0.84375 1.1758 0.20703 1.0469-0.023438 1.6953 0.011719 1.0898-0.089844 1.3945-0.039062 0.18359 1.2812-0.95703 0.50391-1.0508-0.078125-0.85156 1.9297-0.22266 1.4492 0.88281 1.707 0.78125 0.84375 0.94922 0.64844 0.99219 0.54297 0.79688 0.83203 0.5 0.93359-0.089844 1.0781 0.47266 0.98047 0.71484 0.86719 1.0117 0.30859 1.1445-0.13672 0.49219 0.87891-0.1875 1.3984-0.20312 1.4062 0.76953 0.68359-0.24609 0.97266-0.80078 0.84375-0.91016 0.87109-1.0508 0.26172-0.69531-0.74609-0.91406 0.63281-1.0703 0.039062-0.48438-0.96094-0.57422 1.1211 0.19531 1.0391-1.0078 0.15625-0.63281 0.92578 0.16016 1.0156-0.64844 0.82812-0.80859 0.99609-1.082 0.41406-0.73047 0.89844-0.03125 1.082-0.36328 1.1445-1.4648 0.44531-0.94141 0.84766-0.89062 0.70703-1.0273 0.23438-0.085938 1.0117-1.1133-0.019531-0.62891 1.0469-0.27734 1.043-1.0156-0.44922-1.0586-0.054687-0.63281 0.89062-0.27734 1.2344 0.015625 1.2812-1.25 0.71875-1.3633 0.18359-0.86719 0.99609 0.37891 1.0312-0.19531 1.2578-1.1367 0.63281 0.35156 1.0078 1.082 0.15234-0.21094 0.99609-0.76562 1.0078-1.1406 0.92188-0.91797 0.51953 0.29688 1.2109-1.0195 0.35938-0.042969 1.2891 0.0625 1.082 0.14844 1.0078 1.0898 0.36719 1.0391 0.67188 1.1367-0.47266 0.86328-0.60156 1.0859 0.11719 1.0625-0.24609 0.98438 0.62891 1.0625 0.26172-0.45703 0.97266v1.1289l0.83594 0.54688 1.0195 0.23047-0.60156 0.80859 0.12109 1.2109 0.50781 0.92578 0.30078 0.98047 0.47656 0.98047 0.92578 0.43359 0.26953 1.125 0.015625 1.0117 1.2148 0.68359 0.80469 0.93359 0.95703 0.46094 0.26953 1.0117-0.43359 1.0078 0.33594 1.0938 0.55469 1.1055 1.1328 1.1328 1.043 0.69922 1.6641 0.31641 0.94531 0.35547-0.25 0.98438-0.54297 1.0078-0.35156 1.0312-0.30469 1.9102-0.625 0.78516-1.3711 0.10938-1.1914-0.5625-1.3477-0.39844-1.543-1.1328-1.1016-0.12109-0.61719 0.90234-1 1.3672-1.1797 0.78125-1.6953 0.070312-2.1953-0.60938-1.0508-0.84375-2.0039-0.64844-1.6289-0.42578-1.6523-0.42578-1.9141-0.21094-0.99219 0.16406-1.1562 1.2031-0.44922 2.6953-0.33203 1.0391 0.40625 1.3984 0.09375 1.6445-0.57031 1.3945 0.046875 1.207-0.03125 1.2656-0.027344 1.1328-0.003906 1.1016-0.36719 1.3984-1.6484-0.082031-1.1328-0.40234-1.3711 0.09375-1.1094 0.21484-1.3203-0.074219-0.85156 0.57031-0.80469 0.80078-1.6289 0.92188-0.99219 0.49609-0.80078 0.75781-0.54297 1.8398 0.070313 1.0352 0.25391 0.98828-0.054688 1.0156-2.0195 1.2383-1.5664 1.6094-1.668 2.2852-0.82422 0.67969-0.88281 0.90234-0.41797 1.0391-0.31641 1.5898-0.22656 1.9336 0.5625 2 0.15234 1.1836-0.88672 2.2734-1.1914 2.0938-0.30469 1.0195-0.85156 2.168-1.0781 1.2812-0.26172 1.168-0.41406 1.0547-0.67969 1.8867-2.8008-1.7656-2.9883-3.2578-8.8867-5.9727-0.48828-0.88672-0.70312-0.79297-1.1602-0.75781-0.85938-0.77734-0.74609-1.0273-0.42188-1.2773-0.83203-0.61719-0.85547-0.60547-0.72656-0.85547-1.2422-0.52344-0.82422-1.0938 0.47266-0.99219 0.3125-1.375-0.82422-1.0977-1.1367-0.42969-1.1914 0.082032-1.1211 0.078125-0.50781-1.3164-1.0234-0.32812 0.15625 1.1055-0.75781 0.68359-0.92188-0.50781-1.1133 0.33984-0.55859 0.97656-1.1328-0.070313-1.2188 0.31641-0.76562 0.80469-0.27344-1.0703-0.40234-1.0156-1.2773 0.85547-0.9375 0.68359-0.99609-0.074219-0.63281-0.95703-0.75-1.0273-0.66406 0.95312-0.0625 1.1289-0.66406 0.78516-0.69922-0.82812-0.54297-0.93359-1.1562-0.25781-1.2227-0.12109-1.7109-0.16406-1.0312 0.80469-0.27734 1.1953-1.293 0.41016-0.85547-0.68359 0.082031-1.082-0.8125-0.70312-0.96484-0.28516-1.2266-0.39844-1.1641 0.48438-1.1523 0.18359-1.0859-0.50391 0.84766-0.65234 0.88672-0.67578-0.80859-1.0156-0.82422-0.74609-0.53125 1.2891-0.95312-0.51172-1.4453-1.2734-0.68359-0.99609-0.68359-0.92969-1.1562-0.16406-0.98438-0.34375-0.41016-1.2188-0.35938-0.98438-1.0273-0.84766-0.64453-1.2852-0.94531-0.60547-0.082031 1.0938-0.16797 1.1367-1.0039-0.11328-0.80078-0.68359 0.14844-1.0547 0.76562-0.74609-0.023437-1.0938-1.1562-0.035156-0.77344 0.64453-1.3164-0.74219-0.88672-0.69531-0.65625-0.80469-1.3828 0.27734-0.65625-0.85156-0.6875-0.87891-0.82422 1.0664-0.70312 0.72266-1.0703-0.85156-0.99219-0.23438-0.23438 0.99219-0.91797 0.43359-0.46094-1.0469 0.94141-1.875 0.78906-1.1992 1.0391-0.77734 1.2148-0.30859 1-0.12891 1.3398-0.28906 0.97656-0.30469 0.95312-0.32422 0.98047-0.42969 1.6992-0.77344 0.79297-0.86328 0.66797-1.1758 0.55469-0.91016 0.59375-0.92578 0.44531-1.3047 0.39062-1.1016 0.18359-0.98438 0.20703-1.543 0.32031-1.4922 0.46094-1.8555 0.24609-1.0391 0.21484-1.0156 0.13672-1.4688 0.16797-1.3438 0.23438-1.0938 0.25391-1.0117 0.25391-1.0547 0.18359-1.2148 0.26562-1.0391 0.375-1.6211 0.30469-1.0391 0.35156-1.2148 0.25-1.0195-0.10156-1.0977-0.21875-1.1523-0.44922-0.91797-0.42578-1.4102-0.25391-1.082-0.046875-1.3242-0.30078-1.332-0.078125-1.1562 0.20312-0.99219 0.24609-1 0.023437-1.2109-0.35938-2.3711-0.082031-1.793-0.17578-1.4414-0.14062-3.0234-0.26562-1.4531-0.36719-1.0508 0.91406-0.87109 0.92969-0.46094 0.16016-1.0469 1.1133-0.96875 1.0664-0.48047 1.0781-1.082 1.0078-0.50781 1.0938-0.67969 0.99219-0.30469 0.88281-0.5625 0.75391-0.69922 0.50781-1.3164 0.48438-1.6367 0.09375-1.2578 0.78516-1.1211 0.91016-0.57422 0.95312-0.45312 0.91406-0.56641 0.50781-1.0859 0.81641-0.64453 0.67969-1.1016 1.1484-0.042969 1.0312-0.13672 0.91406-0.41406 1.0859-0.45703 1.1445-0.51172 2.0586-0.51562 2.1133-0.80078 1.6016-0.17188 1.7461-0.74219 1.4258 0.011719 1.6562 0.23438 2.6953-1.1992 1.4531-0.79688 2.5352-2.0508 1.2383-0.46875 1.0391 0.72656 1.0352 0.23438 2.2109-0.007812 1.1406-0.25781 1.4258-0.57031 1.1641-0.29688 0.91797-0.54688 1.0391-0.375 1.0234-0.68359 1.0391-0.85156 0.69531-0.87891 0.69922-1.7266 1.25-1.332 1.7305-1.293 1.6406-0.93359 0.91797-0.74219-0.55469-2.3672-0.18359-1.3906 0.85938-1.7031 1.3516-1.2031 0.035156-1.125-0.41406-1.2109 0.023437-1.25 1.0781-0.58984 1.375-0.60938 1.375-0.23438 1.0664-0.61328 1.0664-0.24609 2.2891-0.085938 1.3359-1.5586 0.89844-1.2852 1.0039-0.26172 1.0742-0.10938 2.1133-0.37891 0.39453 0.4375" fill="none" stroke="#fff" stroke-linecap="round" stroke-linejoin="round" stroke-miterlimit="10"/>
<path d="m322.27 160.89c0 3.5898-2.9102 6.5-6.5 6.5-3.5898 0-6.5-2.9102-6.5-6.5s2.9102-6.5 6.5-6.5c3.5898 0 6.5 2.9102 6.5 6.5" fill="#28c028" fill-rule="evenodd" stroke="#000" stroke-linecap="round" stroke-linejoin="round" stroke-miterlimit="10"/>
<path d="m228.24 154.89v-3l8.6406-10.672h-7.6719v-2.7969h12.062v2.5938l-9.0312 11.094h9.375v2.7812zm15.469 0v-16.469h12.203v2.7969h-8.875v3.6406h8.2656v2.7812h-8.2656v4.4688h9.2031v2.7812zm15.344 0v-16.469h5.3438c2.0195 0 3.3359 0.085937 3.9531 0.25 0.9375 0.25 1.7227 0.79297 2.3594 1.625 0.63281 0.82422 0.95312 1.8867 0.95312 3.1875 0 1.0117-0.18359 1.8672-0.54688 2.5625-0.36719 0.6875-0.83594 1.2305-1.4062 1.625-0.5625 0.38672-1.1367 0.64062-1.7188 0.76562-0.79297 0.16797-1.9375 0.25-3.4375 0.25h-2.1719v6.2031zm3.3281-13.672v4.6719h1.8125c1.3125 0 2.1875-0.085938 2.625-0.26562 0.44531-0.17578 0.79688-0.44531 1.0469-0.8125 0.25-0.36328 0.375-0.78906 0.375-1.2812 0-0.59375-0.17969-1.082-0.53125-1.4688-0.35547-0.39453-0.79688-0.64062-1.3281-0.73438-0.39844-0.070313-1.1953-0.10938-2.3906-0.10938zm11.922 13.672v-16.469h3.3125v16.469zm10.188 0v-13.672h-4.875v-2.7969h13.078v2.7969h-4.875v13.672zm25.188 0h-3.6094l-1.4375-3.7344h-6.5781l-1.3594 3.7344h-3.5312l6.4062-16.469h3.5156zm-6.1094-6.5156-2.2812-6.1094-2.2188 6.1094zm0 0" fill="none" stroke="#fff" stroke-linecap="round" stroke-linejoin="round" stroke-miterlimit="10" stroke-width="2"/>
<path d="m228.24 154.89v-3l8.6406-10.672h-7.6719v-2.7969h12.062v2.5938l-9.0312 11.094h9.375v2.7812zm15.469 0v-16.469h12.203v2.7969h-8.875v3.6406h8.2656v2.7812h-8.2656v4.4688h9.2031v2.7812zm15.344 0v-16.469h5.3438c2.0195 0 3.3359 0.085937 3.9531 0.25 0.9375 0.25 1.7227 0.79297 2.3594 1.625 0.63281 0.82422 0.95312 1.8867 0.95312 3.1875 0 1.0117-0.18359 1.8672-0.54688 2.5625-0.36719 0.6875-0.83594 1.2305-1.4062 1.625-0.5625 0.38672-1.1367 0.64062-1.7188 0.76562-0.79297 0.16797-1.9375 0.25-3.4375 0.25h-2.1719v6.2031zm3.3281-13.672v4.6719h1.8125c1.3125 0 2.1875-0.085938 2.625-0.26562 0.44531-0.17578 0.79688-0.44531 1.0469-0.8125 0.25-0.36328 0.375-0.78906 0.375-1.2812 0-0.59375-0.17969-1.082-0.53125-1.4688-0.35547-0.39453-0.79688-0.64062-1.3281-0.73438-0.39844-0.070313-1.1953-0.10938-2.3906-0.10938zm11.922 13.672v-16.469h3.3125v16.469zm10.188 0v-13.672h-4.875v-2.7969h13.078v2.7969h-4.875v13.672zm25.188 0h-3.6094l-1.4375-3.7344h-6.5781l-1.3594 3.7344h-3.5312l6.4062-16.469h3.5156zm-6.1094-6.5156-2.2812-6.1094-2.2188 6.1094z" fill-rule="evenodd"/>
</g>
</svg>
