<?xml version="1.0" encoding="UTF-8"?>
<svg width="345pt" height="500pt" version="1.1" viewBox="0 0 345 500" xmlns="http://www.w3.org/2000/svg">
<g id="a">
<rect width="345" height="500" fill="none"/>
<path d="m249.89 351.45 0.65625 0.25 0.97266 0.48438 1.2031 0.17188 0.61328 0.96484 0.44141 1.1523-0.44922 1.3945-0.51562 1.1484-0.25 1.25 0.90234 0.89453 1.2578 1.5742 0.60938 0.95703 0.72656 1.582 1.3516 0.91406 0.94531 0.93359 0.70312 0.84375 0.6875 1.168 0.48047 2.0508 0.5 1.0234 0.94531 1.2227 0.75391 0.78516 1.6836 1.5156 0.23438 1.1602 0.83594 0.875-0.51172 1.0859-0.84375 0.56641-1.1836 0.79688-1.4062 0.046875-0.55078 1.0703 0.10547 1.2148-0.125 1.1992 0.71875 1.6797 0.79297 1.8867 0.10156 1.4062 0.11328 1.043 0.40625 1.1406 0.94141 0.66797 0.37891 1.3594 0.1875 1.3477 0.089844 1.0664-0.42188 2.7266 0.11719 2.1562-0.0625 1.0898-0.88281 0.86719-1.3438 1.1445-0.50781 1.3008-0.16016 1.0586 0.60547 1.7148 0.88281 1.0469 1.5312 0.8125 0.58594 1.2461 0.41797 1.0898-0.003906 1.2344-0.44531 1.2695-2.2617 0.44922-1.0469 0.078125-1.3828 0.29688-0.59375 1.043 0.14844 1.1641-0.92969 0.75781-1.3086 0.11328-1.2617-0.015625-1.1367 0.73828-0.87891 1.3945-0.84375 0.98438-1.1055 0.97656-0.95312 0.36328-1.5-0.69922-1.0977-0.86719-0.87891-0.78516-1.3164 0.070313-1.0039 0.54297-1.1367 0.91016-1.0742 0.60938-1.1133 1.1797-1.2344 1.1836-0.93359 1.293-0.21094 1.3242 1.3281 1.1914 1.2031 1.0586 0.92578 0.67188 1.5195 1.5781 0.69141 1.0078 0.33594 1.2109-0.023437 2.5547-0.19141 1.4688-0.40234 1-0.97266 2.418 0.57031 2.0508 0.60547 0.86719 1.7539 1 0.41016 1.6133 0.29688 1.0391 0.94922 0.82422 1.4023 1.0586 0.60547 0.91797 0.75781 1.1523 1.4375 0.73828 0.76172 0.91016 0.375 2.0234-0.68359 1.7852-2.6055 2.5547 1.3633 2.8828-0.9375 1.4766-0.80469 0.625-0.71484 0.98047-0.63281 0.90625-0.09375 1.0625-0.79297 0.68359-1.2188 0.35156-1.1406 0.17969-1 0.22266-1.0117-0.21875-0.78516 0.78516-0.66016 0.83203-1.0039 0.24219-0.97656 0.65625-0.40625 0.92578-0.58594 0.82812 0.027343 1.1992-0.62109 0.83984-0.25781 1.0117-1.4453 4.6641-2.2383 7.2188-4.2422 4.3633-1.4102 0.22656-1.3906-0.94141-0.85938 0.88281-0.44141 1.082-1.1055 1.0117-0.99609 0.58203 0.52734 1.3438 0.47656 1.1992-1.0469 0.066406-0.96484-1.1406-0.03125-1.0352-0.90625-0.62109-0.89844-0.58984 0.12109-1.1133-0.95312-0.96094-0.58203-0.82812-1.3672 0.1875-1.0586 0.63672-0.90234 0.68359-1.4805-0.25-1.082 0.19922-0.90234 0.50391-1.2031 0.054688-0.69922 0.75391-1.0039-0.22266-0.99219 0.22266-0.76172-0.87891-0.90234 0.90234-0.92969-0.5-0.9375-0.84375-1.3125 0.33594-0.92969 0.84375-1.2734 0.023437-0.92578 0.39062-0.71094 0.78906-1.3594 0.33984-0.35156 1.0625-0.15625 1.0508-0.72656 1.207-1.1797 0.39062-1.0508 0.11719-1.1797-0.054688-0.85156 0.55078-1.3438 0.5-0.80859-0.67969-1.2734-0.089844-1.2461 0.027344-1.1719-0.69531-1.2578-0.45703-0.89844-0.76562-0.99219-0.74609-1.082-0.55078-1.0156-0.019531-1.1289-0.54688-1.2031-0.86328-0.97656-1.2695-0.375-1.2734-0.28125-2.082 0.44531-1.0078-0.58594-1.4102-0.82422-1.1875-1.25-1.168-0.49219-1.4805-1.1641-1.2266-0.82812-0.76953-1.2812-0.58984-0.65234-0.84766-0.19141-0.99609-0.91016-0.71094-0.94922-0.46875-0.90234-0.46094-1.0898-0.50781-0.94141-0.37891-1.0547-0.023437-0.96484 0.60547-1.3086 0.039063-1.2344-0.16406-0.95703 0.57031-0.77734 1.0469-1.1016 0.21875-0.8125 0.83984-1.1875 0.12891-1.0195-0.19141-1.1992 0.27734-0.99609 0.75-1.0586 0.082032-1.207-0.37891-1.168-0.082031-0.98828 0.26953-1.7227 0.375-1.1328-0.074218-0.79688-0.75781-0.54688-0.96875-0.85938-1.1602-0.60938-0.98828-1.1016-0.44141-1.0625 0.1875-0.93359-0.35938-1.0312-0.28906-0.71875-0.77734-0.47266-1.2656-0.78125-1.0977-1.2031-0.125-1.2656 0.17578-1.1211-0.023437-0.94531-0.34375-1.043-0.24609-1.0547-0.050781-1.2852-0.027344-1-0.078125-1.1953-0.83594-0.66797-1.0586-1.2773-0.85938-1.0586-0.89453-1.043-0.26172-1.2656-0.10156-1.1484-0.82812-0.86719-0.73438-0.73828-0.82031-1.3242-0.48047-0.78516-0.82031 0.21875-1.3086 0.39844-1.6758 0.089844-1.0117 0.55469-1.6758 0.0625-1.3594-0.085937-1.3672 0.66797-0.77344 1.2148-0.66797 0.125-1.1445 1.2461-0.97656 1.207-0.21875 0.99609-0.375 1.125-1.5312 0.39062-1.4219 0.097656-1.4336 0.80469-0.69141 1.3008-0.41406 0.6875-1.1211 0.89453-0.75 0.88281-1.0039 0.11719-1.0469 0.46094-1.1406 1.0742-1.1641 1.2773-0.89844 0.78125-1.2891 1.0234-0.65234 2.0625-0.27344 1.4414-0.42578 1.1016-0.019531 1.2109-0.019531 1.3086-0.28516 1.168-0.31641 1.7031-0.66016 2.1641-0.22266 1.4883-0.59766 1.7148-0.44531 1.1523-0.77344 1.1797-1.5508 1.5-1.4883 0.77734-0.73438 1.1602-1.2188 0.79297-0.65625-0.25-1.0195-0.78125-0.83594-0.37891-1.2695 1.832-0.81641 1.6133-0.41016 1.0625-1.0781 0.48047-1.0391 0.30078-0.96875 0.44141-1.4219 0.21875-1.0977 0.023437-1.2852 0.12891-1.4727-0.32812-1.8125-0.57812-1.0703 0.13281-1.5625 0.64062-1.2812 0.24609-0.98438 0.015625-1.6523-0.070313-1.0625-0.054687-1.3125 0.23438-1.5273 0.26953-1.5938-0.10547-1.1523 0.054688-1.9922 0.17578-1.1602 0.96875-1.0508 1.1875-0.49219 0.94141-0.91406 0.12109-1.3281 0.90625-0.80469 1.1875-0.19141 1.3438-0.50781 1.8672-0.015625 1.6445-0.0625 2.0117-0.15234 1.582-0.09375 1.3125-0.41016 0.76172-0.83203-0.011718-1.3633 1.7344-0.50391 1.1719-0.26172 1.3047-0.69531 0.96875-0.6875 0.36328-1.1172-0.13672-1.7852 0.20312-1.0664 1.3008-1.1953 0.69531-0.98828 1.6797-0.34766 1.207-0.22656 2.4531 0.19531 2.1406-0.24219 1.9961-0.24609 1.5703-0.32031 1.5273 0.039062 1.582 0.25391 1.207 0.050782 2.1562 0.97656 0.67188-1.0312 0.03125-1.5469 0.085937-1.8047 0.011719-1.8516-0.53516-1.2305 1.0898-0.32031 1.2031 0.11328 1.0273-0.70703 1.5586-1.1914 1.9492-1.2461 1.0391-0.33594 1.4961-0.89844 0.73047-0.77344 0.90234-0.56641 1.1445-0.82812 1.2656-0.90234 0.80469-0.71094 1.0469-1.1484 1.1641-0.34375 1.0625-0.20312 0.27734-0.96875 0.19141-1.7617 0.50391-1.1172 1.0312-1.1602 0.92578-0.96094 1.1211-0.078125 1.5312 0.82812 1.0586 0.41797 1.9492 0.4375 1.0703 0.21875 2.7773-1.543 1.3125-1.3477 0.76953-0.91016 0.69141-0.79297 1.1172-0.57812 1.7266-0.44141 1.4258-0.44531 1.3086-0.066406 2.7031 0.027344 1.5312-0.09375 1.7539-0.058594 1.0312-0.085937z" fill="#ccc" fill-rule="evenodd"/>
<path d="m249.89 351.45 0.65625 0.25 0.97266 0.48438 1.2031 0.17188 0.61328 0.96484 0.44141 1.1523-0.44922 1.3945-0.51562 1.1484-0.25 1.25 0.90234 0.89453 1.2578 1.5742 0.60938 0.95703 0.72656 1.582 1.3516 0.91406 0.94531 0.93359 0.70312 0.84375 0.6875 1.168 0.48047 2.0508 0.5 1.0234 0.94531 1.2227 0.75391 0.78516 1.6836 1.5156 0.23438 1.1602 0.83594 0.875-0.51172 1.0859-0.84375 0.56641-1.1836 0.79688-1.4062 0.046875-0.55078 1.0703 0.10547 1.2148-0.125 1.1992 0.71875 1.6797 0.79297 1.8867 0.10156 1.4062 0.11328 1.043 0.40625 1.1406 0.94141 0.66797 0.37891 1.3594 0.1875 1.3477 0.089844 1.0664-0.42188 2.7266 0.11719 2.1562-0.0625 1.0898-0.88281 0.86719-1.3438 1.1445-0.50781 1.3008-0.16016 1.0586 0.60547 1.7148 0.88281 1.0469 1.5312 0.8125 0.58594 1.2461 0.41797 1.0898-0.003906 1.2344-0.44531 1.2695-2.2617 0.44922-1.0469 0.078125-1.3828 0.29688-0.59375 1.043 0.14844 1.1641-0.92969 0.75781-1.3086 0.11328-1.2617-0.015625-1.1367 0.73828-0.87891 1.3945-0.84375 0.98438-1.1055 0.97656-0.95312 0.36328-1.5-0.69922-1.0977-0.86719-0.87891-0.78516-1.3164 0.070313-1.0039 0.54297-1.1367 0.91016-1.0742 0.60938-1.1133 1.1797-1.2344 1.1836-0.93359 1.293-0.21094 1.3242 1.3281 1.1914 1.2031 1.0586 0.92578 0.67188 1.5195 1.5781 0.69141 1.0078 0.33594 1.2109-0.023437 2.5547-0.19141 1.4688-0.40234 1-0.97266 2.418 0.57031 2.0508 0.60547 0.86719 1.7539 1 0.41016 1.6133 0.29688 1.0391 0.94922 0.82422 1.4023 1.0586 0.60547 0.91797 0.75781 1.1523 1.4375 0.73828 0.76172 0.91016 0.375 2.0234-0.68359 1.7852-2.6055 2.5547 1.3633 2.8828-0.9375 1.4766-0.80469 0.625-0.71484 0.98047-0.63281 0.90625-0.09375 1.0625-0.79297 0.68359-1.2188 0.35156-1.1406 0.17969-1 0.22266-1.0117-0.21875-0.78516 0.78516-0.66016 0.83203-1.0039 0.24219-0.97656 0.65625-0.40625 0.92578-0.58594 0.82812 0.027343 1.1992-0.62109 0.83984-0.25781 1.0117-1.4453 4.6641-2.2383 7.2188-4.2422 4.3633-1.4102 0.22656-1.3906-0.94141-0.85938 0.88281-0.44141 1.082-1.1055 1.0117-0.99609 0.58203 0.52734 1.3438 0.47656 1.1992-1.0469 0.066406-0.96484-1.1406-0.03125-1.0352-0.90625-0.62109-0.89844-0.58984 0.12109-1.1133-0.95312-0.96094-0.58203-0.82812-1.3672 0.1875-1.0586 0.63672-0.90234 0.68359-1.4805-0.25-1.082 0.19922-0.90234 0.50391-1.2031 0.054688-0.69922 0.75391-1.0039-0.22266-0.99219 0.22266-0.76172-0.87891-0.90234 0.90234-0.92969-0.5-0.9375-0.84375-1.3125 0.33594-0.92969 0.84375-1.2734 0.023437-0.92578 0.39062-0.71094 0.78906-1.3594 0.33984-0.35156 1.0625-0.15625 1.0508-0.72656 1.207-1.1797 0.39062-1.0508 0.11719-1.1797-0.054688-0.85156 0.55078-1.3438 0.5-0.80859-0.67969-1.2734-0.089844-1.2461 0.027344-1.1719-0.69531-1.2578-0.45703-0.89844-0.76562-0.99219-0.74609-1.082-0.55078-1.0156-0.019531-1.1289-0.54688-1.2031-0.86328-0.97656-1.2695-0.375-1.2734-0.28125-2.082 0.44531-1.0078-0.58594-1.4102-0.82422-1.1875-1.25-1.168-0.49219-1.4805-1.1641-1.2266-0.82812-0.76953-1.2812-0.58984-0.65234-0.84766-0.19141-0.99609-0.91016-0.71094-0.94922-0.46875-0.90234-0.46094-1.0898-0.50781-0.94141-0.37891-1.0547-0.023437-0.96484 0.60547-1.3086 0.039063-1.2344-0.16406-0.95703 0.57031-0.77734 1.0469-1.1016 0.21875-0.8125 0.83984-1.1875 0.12891-1.0195-0.19141-1.1992 0.27734-0.99609 0.75-1.0586 0.082032-1.207-0.37891-1.168-0.082031-0.98828 0.26953-1.7227 0.375-1.1328-0.074218-0.79688-0.75781-0.54688-0.96875-0.85938-1.1602-0.60938-0.98828-1.1016-0.44141-1.0625 0.1875-0.93359-0.35938-1.0312-0.28906-0.71875-0.77734-0.47266-1.2656-0.78125-1.0977-1.2031-0.125-1.2656 0.17578-1.1211-0.023437-0.94531-0.34375-1.043-0.24609-1.0547-0.050781-1.2852-0.027344-1-0.078125-1.1953-0.83594-0.66797-1.0586-1.2773-0.85938-1.0586-0.89453-1.043-0.26172-1.2656-0.10156-1.1484-0.82812-0.86719-0.73438-0.73828-0.82031-1.3242-0.48047-0.78516-0.82031 0.21875-1.3086 0.39844-1.6758 0.089844-1.0117 0.55469-1.6758 0.0625-1.3594-0.085937-1.3672 0.66797-0.77344 1.2148-0.66797 0.125-1.1445 1.2461-0.97656 1.207-0.21875 0.99609-0.375 1.125-1.5312 0.39062-1.4219 0.097656-1.4336 0.80469-0.69141 1.3008-0.41406 0.6875-1.1211 0.89453-0.75 0.88281-1.0039 0.11719-1.0469 0.46094-1.1406 1.0742-1.1641 1.2773-0.89844 0.78125-1.2891 1.0234-0.65234 2.0625-0.27344 1.4414-0.42578 1.1016-0.019531 1.2109-0.019531 1.3086-0.28516 1.168-0.31641 1.7031-0.66016 2.1641-0.22266 1.4883-0.59766 1.7148-0.44531 1.1523-0.77344 1.1797-1.5508 1.5-1.4883 0.77734-0.73438 1.1602-1.2188 0.79297-0.65625-0.25-1.0195-0.78125-0.83594-0.37891-1.2695 1.832-0.81641 1.6133-0.41016 1.0625-1.0781 0.48047-1.0391 0.30078-0.96875 0.44141-1.4219 0.21875-1.0977 0.023437-1.2852 0.12891-1.4727-0.32812-1.8125-0.57812-1.0703 0.13281-1.5625 0.64062-1.2812 0.24609-0.98438 0.015625-1.6523-0.070313-1.0625-0.054687-1.3125 0.23438-1.5273 0.26953-1.5938-0.10547-1.1523 0.054688-1.9922 0.17578-1.1602 0.96875-1.0508 1.1875-0.49219 0.94141-0.91406 0.12109-1.3281 0.90625-0.80469 1.1875-0.19141 1.3438-0.50781 1.8672-0.015625 1.6445-0.0625 2.0117-0.15234 1.582-0.09375 1.3125-0.41016 0.76172-0.83203-0.011718-1.3633 1.7344-0.50391 1.1719-0.26172 1.3047-0.69531 0.96875-0.6875 0.36328-1.1172-0.13672-1.7852 0.20312-1.0664 1.3008-1.1953 0.69531-0.98828 1.6797-0.34766 1.207-0.22656 2.4531 0.19531 2.1406-0.24219 1.9961-0.24609 1.5703-0.32031 1.5273 0.039062 1.582 0.25391 1.207 0.050782 2.1562 0.97656 0.67188-1.0312 0.03125-1.5469 0.085937-1.8047 0.011719-1.8516-0.53516-1.2305 1.0898-0.32031 1.2031 0.11328 1.0273-0.70703 1.5586-1.1914 1.9492-1.2461 1.0391-0.33594 1.4961-0.89844 0.73047-0.77344 0.90234-0.56641 1.1445-0.82812 1.2656-0.90234 0.80469-0.71094 1.0469-1.1484 1.1641-0.34375 1.0625-0.20312 0.27734-0.96875 0.19141-1.7617 0.50391-1.1172 1.0312-1.1602 0.92578-0.96094 1.1211-0.078125 1.5312 0.82812 1.0586 0.41797 1.9492 0.4375 1.0703 0.21875 2.7773-1.543 1.3125-1.3477 0.76953-0.91016 0.69141-0.79297 1.1172-0.57812 1.7266-0.44141 1.4258-0.44531 1.3086-0.066406 2.7031 0.027344 1.5312-0.09375 1.7539-0.058594 1.0312-0.085937 0.45312 0.007812" fill="none" stroke="#fff" stroke-linecap="round" stroke-linejoin="round" stroke-miterlimit="10" stroke-width="2"/>
<path d="m131.2 203.06 1.6133 0.89453 1.3281 0.63281 1.3164 0.30078 1.7227 0.53906 0.78125 0.74609 1.4727 0.92188 1.25 0.34375 0.86719 0.66016 0.52734 1.4883 0.91406 1.4844 1.6562 0.30469 1.1016 0.32031 1.2305 0.085937 1.0273 0.21094 2 0.97656 1.7031 0.46094 1.0547 0.70312 1.4883 1.7188 0.98828 0.54688 1.5117 0.78906 1.0586-0.03125 1.2969-0.25391 1.3086 0.12891 1.125 0.089844 0.35156 1.1133 1.1055 0.97266 0.57422 0.82812 0.15234 1.2773 0.085937 0.99609-0.82812 1.3086-0.089843 1.1367 0.54297 1.043 1.0547 0.19531 1.0664-0.097656 1.3867 0.75781 1.1797 0.31641 1.0195 0.74609 1.5 0.24219 1.1836 0.16406 0.82031-0.71875 1.8555-0.60547 1.2695-0.30469 1.4297 0.10547 1.207 0.75391 1.5898 0.74609 0.67969 0.8125 0.96875 0.59375 0.48828 0.94141 0.73438 0.79297 0.92578 0.87109 0.41406 0.91406 0.097656 1.0312-0.082031 1.1836 0.91797 1.1719 0.35938 1.1055 0.25781 1.0312 0.79688 1.1055 0.89062 0.54688 1.0391 0.77734 0.82422 0.85156 0.92188 0.60547 0.95703 0.46484 0.89844 0.78906 0.96875 0.38281 1.0625-0.007813 0.86328 0.70703 0.25 1.1289 1.1094 0.60547 1.2891 0.93359 1.0039 0.45703 0.80859 0.72656 0.66797 1.0312 1.0312 0.92188 1.1836-0.21875 1.2422-0.0625 0.82812 0.57031 1.0586-0.21875 1.0977 0.058593 0.76953 0.69531 0.41406 1.1367-0.26953 1.1445-0.61719 0.82031-1.3945 0.96484-0.98047 0.48438 0.03125 1.3008-0.15625 1.3555-0.55078 1.0547-0.8125 0.85938-0.38672 0.98438 0.76562 0.78516-0.066406 1.1797 0.035156 1.3281-0.53125 0.89453-0.26562 1.0664-0.16797 1.0312-0.91406 0.60938-0.69922 0.76172-0.80859 0.94141 0.097656 1.3594-0.32031 1.0703 0.24219 1.0547 0.83984 0.57422 0.97266 0.58594 0.91797 0.87109 1.2422 0.14062 1.0898 0.47656 1.0352 0.046875 0.90234-0.91797 1.668-0.61328 1.0508-0.29688 1.2695 0.16406h1.1016l1.2578 1.0898 1.1914 0.625 1.2188 0.12891 1.3164 0.60547 1.3867 0.027343 1.0586 0.66016 1.1055 0.85938 0.28516 0.97656 1.3242 0.53906 1.2383 0.12109 1.2344-0.097656 1.0742-0.23047 1.0625 0.96094 0.52734 1.1055 1.1367 0.73828 1.1836 0.27344 0.75 0.93359 1.0938-0.070312 0.21875-1.9531 0.14062-1.6367-0.12891-1.0078 0.625-1.5469 0.94141-0.50391 0.875-0.64844 1.4141 0.13281 1.1055 0.019531 1.0234 0.39844 0.91016 0.41797 1.1289 0.23438 1.125 0.039062 1.2461-0.003906 2.5234 0.52344 1.0898-0.070312 1.1094-0.35547 0.9375-0.38281 1.0391-0.37891 2.7461-0.26562 1.1367 0.16016 1.5117-0.035157 1.2188 0.38281 1.0898 0.070312 1.5859-0.15234 1.1406-0.33984 1.6484-0.39453 1.0508-0.25 1.0547 0.046875 1.2539 0.16016 0.44141 0.95312 0.6875 1.1406 0.80078 0.67188 0.82422 0.81641 0.70703 0.88281 0.27344 1.4258 1.4844 0.69141 0.9375 0.64062 0.45703 1.4062 0.058593 1.2969 0.28906 1.0781 0.58594 1.2773 0.71094 1.6992 0.68359 1.5234 0.5 0.86719-0.054688 1.668-0.32031 1.1172-1.4219 0.35938-0.67578 2.082-0.32422 1.2227-0.67578 1.043 0.007813 1.207-0.125 1.0547 0.45312 1.1328-0.65625 1.1133-1.2148 0.58203-0.75391 0.875-0.99219 0.26953-0.66797 0.85547-0.32031 1.1406-0.72266 0.79297-1.0508 0.125-1.0859-0.027344-0.30078 2.6719-0.32031 1.3711-0.66797 1.0234-0.70312 0.77344-0.16797 1.125-0.31641 1.4883-0.91016 0.79297-1.3984 0.23047-1.125 0.56641-1.0508 1.125-0.94922 1.4609-0.55859 1.0508 0.042969 1.375-0.55859 1.2461-0.67578 0.92578 1.0547 0.84375 0.82031 0.94531 0.8125 0.64453 0.32031 1.2031 0.42969 0.99609 0.58594 1.0391-0.40625 1.5625-0.50391 1.2734-0.58203 1.1719-1.0977 0.68359-0.09375 1.082 0.71484 1.2031-0.6875 1.8281-0.57812 0.85938-0.8125 0.71484 1.1445 2.0312 0.49219 1.3789 0.95703 1.6367 0.51562 1.1328 0.19531 1.3828-1.0547 1.4258-0.90234 0.57812-1.0469 0.10156-1-0.097656-1.2031-0.17188-0.97266-0.48438-1.1094-0.25781-1.0312 0.085937-1.7539 0.058594-1.5 0.089844-2.7344-0.023438-1.3086 0.066406-1.4258 0.44531-1.0234 0.32812-1.1367 0.15234-1.375 1.332-0.76953 0.91016-1.3125 1.3477-1.9961 1.4297-1.8516-0.10547-1.3125-0.27344-1.25-0.35156-1.0117-0.95703-1.7227-0.10547-0.87891 0.50391-0.78906 1.1875-0.85547 0.69531-0.44531 1.9258-0.14844 1.5156-1.2383 0.42578-1.1641 0.34375-0.87891 0.92188-0.97266 0.9375-1.2656 0.90234-0.91406 0.47266-0.71094 0.73047-0.89844 0.53125-0.98047 0.95703-1.2344 0.46094-1.8516 1.0938-1.6328 1.0273-1.2266 1.168-1.1406-0.16797-1.0039 0.30859-0.21094 0.98047 0.21094 1.8984-0.007813 1.3945-0.14453 1.9258 0.13281 1.0586-2.0547-0.32031-2.1016-0.32812-1.1094-0.13281-2-0.16016-1.5703 0.32031-1.3477 0.070313-2.0312 0.43359-2.3828-0.14453-1.0859-0.085937-2.0117 0.33594-0.84375 0.56641-1.0703 1.2812-0.89062 0.96094 0.125 1.707-0.097656 1.3398-0.69531 0.88281-1.1172 0.74609-1.8984 0.57031-1.4844 0.10547-0.23828 1.3516-0.3125 1.0664-0.92969 0.41016-2.4141 0.26953-1.1719 0.066406-2.4844 0.14844-1.3828 0.011719-1.0938 0.16016-1.3789 0.53125-1.1172 0.13672-0.35547 1.3242-0.39453 1.2539-1.2305 0.68359-1.0938 0.41016-0.65234 1.9531-0.097657 1.1445 0.125 1.3789-0.097656 1.2383-0.19141 1.7812-0.20312 1.3906 0.13672 1.707-0.015625 1.6523-0.24609 0.98438-0.64062 1.2812-0.13281 1.5625 0.57812 1.0703 0.31641 1.168-0.125 1.6992-0.015625 1.7031-0.21875 1.0977-0.44141 1.4219-0.30078 0.96875-0.48047 1.0391-1.0625 1.0781-1.6133 0.41016-1.0234 0.24609-0.76562 0.95312 0.63281 1.3633 0.83203 0.86328-0.89062 1.1719-1.1602 1.2188-0.77734 0.73438-0.85938 0.80469-1.1719 1.5078-1.2539 1.2031-2.2617 0.74219-1.4883 0.59766-1.2422 0.046875-1.832 0.55859-1.9609 0.59375-1.3086 0.28516-1.2109 0.019531-1.1016 0.019531-1.0586 0.34766-1.8867 0.19141-1.2031 0.35938-0.63672 1.0547-1.0508 1.1016-1.5625 1.2734-0.72266 1.5156-0.11719 1.0469-0.88281 1.0039-0.89453 0.75-0.52734 1.043-1.2227 0.4375-1.043 0.74609-0.097656 1.4336-0.39062 1.4219-0.5625 0.84766-0.9375 0.94141-1.2695 0.14844-1.2695 0.79688-0.60938 1.0391-0.61328 0.80859-1.0938 0.66797-0.19531 1.0742 0.13672 1.2461-0.41406 1.707-0.375 1.8242-0.39844 1.6758-0.21875 1.3086-1.1562 0.35156-1.2344-0.14844-1.1211-0.24219-0.76953-0.67188-0.98047-0.42188-0.64062-0.94922-1.1016-1.0469-1.2461-0.38672-1.2812-0.83984-0.92188-0.57422-0.48438-0.95312-0.96875-0.95312-1.1211-0.5-0.98438-0.49609-0.75-1.1133-0.54297-1.3711-0.17188-1.2344-0.44922-1-1.4102 0.058594-1.0469 0.59375-1.0781 0.10938-0.59375-0.98438-0.75-1.3672-0.31641-1.0625-0.63672-0.80469 0.20312-1.0703-0.23828-1.1211-1.4727-0.16406-0.97656-0.5-1.2383-0.51953-1.2148-0.35547-0.98047-0.32812-1.0234-0.51953-1.2031-0.79297-0.85938-0.53906-1.1875-0.625-0.61328-0.92188-0.44922-1.0938-0.75781-0.76562-0.73047-0.97266-0.09375-1.0039-0.42969-1.1836-0.83984-0.66016-0.72656 0.75391-0.98828-0.44531-0.83984 0.57422-0.86719 0.58203-0.92188 0.55469-1 0.1875-0.66406-1.1836-0.10547-1.082-0.17969-1.1172-0.44141-0.98438-0.67969-1.1367-0.035156-1.0273-0.26953-1.0273-0.0625-1.2109-0.10156-1.0703 0.015625-1.5508 0.09375-1.4844 0.46094-0.91406 0.27344-1.2188 0.15234-1.3398 0.46484-1.4414 0.39062-1.0547-0.15234-1.0156-0.14062-1.0547-0.35156-0.99219-0.17969-1.2266-0.16797-1.125 0.35547-0.98438-0.40625-1.0664-1.1562-0.61719-0.84766-0.62109-1.0586-0.95703-0.9375-0.625-0.79688-0.83203-1.1445-1.0273-0.91016-0.91016-0.33594-1.0742-0.83984-0.58984-1.0352-0.66797-1.0234-0.20312-0.95312-0.76953-0.80469-1.0938-0.99219-1.2227-0.71484-1.0273-0.75781-1.1719-1.6055-1.3203-0.77734-0.73438-1.3398-1.6094-1.082-0.98438-0.85156-0.59375-0.49219-0.96875 0.50781-0.90234 0.47266-0.92188-0.19141-1.1406-0.58203-1.0586 0.019531-1.1875 1.0312-0.83203 0.22266-0.98828-0.82031-0.70312-1.0938-1.1953-1.4219-0.90234-1.9258-0.85547-1.3906-0.44141-1.0898-0.58984-0.88281-0.79297-0.28516-1.9023 0.15234-1.625-0.43359-1.082-1.4336-0.37891-0.69531-0.875-0.51172-1.6562-0.82812-0.87109-1.5469-1.25-0.875-0.51562-1.4336-0.13672-1.1797 0.21094-1.0469-0.51953-0.37891-1.1172 1.0977-0.83203 1.3125-0.33594 1.5898-0.48438 1.3398-0.18359 1.5977-1.582 1.6758-1.1484 1.0352-0.67578 0.98828-0.69531 0.96484-1.0234 0.71094-1.1875 0.36719-1.5039 0.44922-1.5469 0.72656-2.4258 1.4258-2.1875 1.5469-0.96094 1.1914-0.61328 1.2695-0.38281 0.19531-1.043-0.042968-1.1875v-2.2773l0.89453-1.8516 0.34375-1.4961-0.13672-1.3867-0.33984-1.1914 0.23828-1.0703 0.40625-1.2617-0.082032-1.9688-0.039062-1.1641-0.12891-1.1484 0.097656-2.5547 0.20312-1.8789-0.26172-1.7656 0.28516-1.3984 0.16016-1.0742-0.42188-1.7383-0.050782-1.3867 0.36719-1.3984 1.2148-0.45703 1.2695-1.125 0.18359-1.1914 1.3945-0.83594 1.8203-0.73047 1.8516-0.28516 1.2539-0.76562 1.5469-1.3828 1.1289-1.418 0.62891-0.875 0.097656-1.0781 0.51562-1.2969 0.44141-1.0703 0.11328-1.3203-1.0273-0.70703 0.3125-1.1367 1.1914-1.0078 0.76562-0.90234 1.4609-0.29297 1.0273-0.019531 0.90625-0.69531 0.41016-1.2773 0.98438-0.54688 1.0625-0.5625 1.0977-0.60547-0.027344-1.0742-0.96875-0.92578-0.3125-1.1406 0.98828-0.85547 1.125-0.24219 0.97656-0.39062 1.793-0.007813 1.3438 0.30078 2.1445 0.21484 1.1328-0.19531 1.2148-0.79688 1.3359-1.3633 0.82031-1.1016 1.2266-0.65625 0.96094-0.83594-0.15625-1.1172 0.25-1.7891-0.19922-1.4141-0.15625-0.99219-0.33984-1.5195-0.53516-0.90234-0.8125-0.74219-1.4727-1.1836-1.0039-0.53906-1.0938-0.29297-0.16016-1.6016-0.34375-1.6133-0.11328-1.2383 0.62109-1.1562 1.4883-1.0469 0.79688-0.75781 1.0234-1.0469 0.84766-0.58594-0.10547-1.6875-0.40625-2.4805-0.375-1.6445-0.003906-1.1719-0.74219-1.0703-0.39062-1.332-0.89844-0.67188-1.3906-0.85547-0.52734-1.1367-0.48438-1.293-1.332-0.40625-1.2617-0.69141-0.93359-0.99609-0.53906-1.2383-0.035156-1.1641 0.5-1.2617-0.53125-1.957-0.30469-1.1367-0.070312-1.0977-0.4375-1.2461-0.58203-1.3086 0.12891-0.99609 0.76172-1.7812 0.57031-0.94141 1.9766-0.16016 1.3203-0.054687 0.94922-0.33594 1.2148-0.54297 0.85156-1.2852 1.3945-1.7891 3.8672-1.8555 0.90625-0.69141 0.51953-1.3281 0.56641-1.2227 1.3047-0.94141 1.8164-1.4648 0.66406-0.86719 0.91406-1.0156 0.71094-0.78125 1.1602-1.1797 0.71094-1.0352 1.0703-1.4531 0.40234-1.4922-0.039062-1.6719 1.1445-0.98047 1.207-0.25391 1.1953-0.5 1.1797-0.59375 1.75-0.9375 1.5117-0.51953 0.83203-1.2422 0.67969-1.0938 1.3086-0.65234 1.3047-0.8125 0.76172-1.0156 0.74219-0.75781 1.7109-0.23828 1.0039 0.23047 1.5156 1.5508 1.2617 0.042968 1.6562-0.035156 1.0703 0.10938 0.83594-1.0742 1.1445-1.3789 1.4531-1.0352 0.47266-1.1992-0.1875-1.0977 0.26562-1.0664z" fill="#ccc" fill-rule="evenodd"/>
<path d="m131.2 203.06 1.6133 0.89453 1.3281 0.63281 1.3164 0.30078 1.7227 0.53906 0.78125 0.74609 1.4727 0.92188 1.25 0.34375 0.86719 0.66016 0.52734 1.4883 0.91406 1.4844 1.6562 0.30469 1.1016 0.32031 1.2305 0.085937 1.0273 0.21094 2 0.97656 1.7031 0.46094 1.0547 0.70312 1.4883 1.7188 0.98828 0.54688 1.5117 0.78906 1.0586-0.03125 1.2969-0.25391 1.3086 0.12891 1.125 0.089844 0.35156 1.1133 1.1055 0.97266 0.57422 0.82812 0.15234 1.2773 0.085937 0.99609-0.82812 1.3086-0.089843 1.1367 0.54297 1.043 1.0547 0.19531 1.0664-0.097656 1.3867 0.75781 1.1797 0.31641 1.0195 0.74609 1.5 0.24219 1.1836 0.16406 0.82031-0.71875 1.8555-0.60547 1.2695-0.30469 1.4297 0.10547 1.207 0.75391 1.5898 0.74609 0.67969 0.8125 0.96875 0.59375 0.48828 0.94141 0.73438 0.79297 0.92578 0.87109 0.41406 0.91406 0.097656 1.0312-0.082031 1.1836 0.91797 1.1719 0.35938 1.1055 0.25781 1.0312 0.79688 1.1055 0.89062 0.54688 1.0391 0.77734 0.82422 0.85156 0.92188 0.60547 0.95703 0.46484 0.89844 0.78906 0.96875 0.38281 1.0625-0.007813 0.86328 0.70703 0.25 1.1289 1.1094 0.60547 1.2891 0.93359 1.0039 0.45703 0.80859 0.72656 0.66797 1.0312 1.0312 0.92188 1.1836-0.21875 1.2422-0.0625 0.82812 0.57031 1.0586-0.21875 1.0977 0.058593 0.76953 0.69531 0.41406 1.1367-0.26953 1.1445-0.61719 0.82031-1.3945 0.96484-0.98047 0.48438 0.03125 1.3008-0.15625 1.3555-0.55078 1.0547-0.8125 0.85938-0.38672 0.98438 0.76562 0.78516-0.066406 1.1797 0.035156 1.3281-0.53125 0.89453-0.26562 1.0664-0.16797 1.0312-0.91406 0.60938-0.69922 0.76172-0.80859 0.94141 0.097656 1.3594-0.32031 1.0703 0.24219 1.0547 0.83984 0.57422 0.97266 0.58594 0.91797 0.87109 1.2422 0.14062 1.0898 0.47656 1.0352 0.046875 0.90234-0.91797 1.668-0.61328 1.0508-0.29688 1.2695 0.16406h1.1016l1.2578 1.0898 1.1914 0.625 1.2188 0.12891 1.3164 0.60547 1.3867 0.027343 1.0586 0.66016 1.1055 0.85938 0.28516 0.97656 1.3242 0.53906 1.2383 0.12109 1.2344-0.097656 1.0742-0.23047 1.0625 0.96094 0.52734 1.1055 1.1367 0.73828 1.1836 0.27344 0.75 0.93359 1.0938-0.070312 0.21875-1.9531 0.14062-1.6367-0.12891-1.0078 0.625-1.5469 0.94141-0.50391 0.875-0.64844 1.4141 0.13281 1.1055 0.019531 1.0234 0.39844 0.91016 0.41797 1.1289 0.23438 1.125 0.039062 1.2461-0.003906 2.5234 0.52344 1.0898-0.070312 1.1094-0.35547 0.9375-0.38281 1.0391-0.37891 2.7461-0.26562 1.1367 0.16016 1.5117-0.035157 1.2188 0.38281 1.0898 0.070312 1.5859-0.15234 1.1406-0.33984 1.6484-0.39453 1.0508-0.25 1.0547 0.046875 1.2539 0.16016 0.44141 0.95312 0.6875 1.1406 0.80078 0.67188 0.82422 0.81641 0.70703 0.88281 0.27344 1.4258 1.4844 0.69141 0.9375 0.64062 0.45703 1.4062 0.058593 1.2969 0.28906 1.0781 0.58594 1.2773 0.71094 1.6992 0.68359 1.5234 0.5 0.86719-0.054688 1.668-0.32031 1.1172-1.4219 0.35938-0.67578 2.082-0.32422 1.2227-0.67578 1.043 0.007813 1.207-0.125 1.0547 0.45312 1.1328-0.65625 1.1133-1.2148 0.58203-0.75391 0.875-0.99219 0.26953-0.66797 0.85547-0.32031 1.1406-0.72266 0.79297-1.0508 0.125-1.0859-0.027344-0.30078 2.6719-0.32031 1.3711-0.66797 1.0234-0.70312 0.77344-0.16797 1.125-0.31641 1.4883-0.91016 0.79297-1.3984 0.23047-1.125 0.56641-1.0508 1.125-0.94922 1.4609-0.55859 1.0508 0.042969 1.375-0.55859 1.2461-0.67578 0.92578 1.0547 0.84375 0.82031 0.94531 0.8125 0.64453 0.32031 1.2031 0.42969 0.99609 0.58594 1.0391-0.40625 1.5625-0.50391 1.2734-0.58203 1.1719-1.0977 0.68359-0.09375 1.082 0.71484 1.2031-0.6875 1.8281-0.57812 0.85938-0.8125 0.71484 1.1445 2.0312 0.49219 1.3789 0.95703 1.6367 0.51562 1.1328 0.19531 1.3828-1.0547 1.4258-0.90234 0.57812-1.0469 0.10156-1-0.097656-1.2031-0.17188-0.97266-0.48438-1.1094-0.25781-1.0312 0.085937-1.7539 0.058594-1.5 0.089844-2.7344-0.023438-1.3086 0.066406-1.4258 0.44531-1.0234 0.32812-1.1367 0.15234-1.375 1.332-0.76953 0.91016-1.3125 1.3477-1.9961 1.4297-1.8516-0.10547-1.3125-0.27344-1.25-0.35156-1.0117-0.95703-1.7227-0.10547-0.87891 0.50391-0.78906 1.1875-0.85547 0.69531-0.44531 1.9258-0.14844 1.5156-1.2383 0.42578-1.1641 0.34375-0.87891 0.92188-0.97266 0.9375-1.2656 0.90234-0.91406 0.47266-0.71094 0.73047-0.89844 0.53125-0.98047 0.95703-1.2344 0.46094-1.8516 1.0938-1.6328 1.0273-1.2266 1.168-1.1406-0.16797-1.0039 0.30859-0.21094 0.98047 0.21094 1.8984-0.007813 1.3945-0.14453 1.9258 0.13281 1.0586-2.0547-0.32031-2.1016-0.32812-1.1094-0.13281-2-0.16016-1.5703 0.32031-1.3477 0.070313-2.0312 0.43359-2.3828-0.14453-1.0859-0.085937-2.0117 0.33594-0.84375 0.56641-1.0703 1.2812-0.89062 0.96094 0.125 1.707-0.097656 1.3398-0.69531 0.88281-1.1172 0.74609-1.8984 0.57031-1.4844 0.10547-0.23828 1.3516-0.3125 1.0664-0.92969 0.41016-2.4141 0.26953-1.1719 0.066406-2.4844 0.14844-1.3828 0.011719-1.0938 0.16016-1.3789 0.53125-1.1172 0.13672-0.35547 1.3242-0.39453 1.2539-1.2305 0.68359-1.0938 0.41016-0.65234 1.9531-0.097657 1.1445 0.125 1.3789-0.097656 1.2383-0.19141 1.7812-0.20312 1.3906 0.13672 1.707-0.015625 1.6523-0.24609 0.98438-0.64062 1.2812-0.13281 1.5625 0.57812 1.0703 0.31641 1.168-0.125 1.6992-0.015625 1.7031-0.21875 1.0977-0.44141 1.4219-0.30078 0.96875-0.48047 1.0391-1.0625 1.0781-1.6133 0.41016-1.0234 0.24609-0.76562 0.95312 0.63281 1.3633 0.83203 0.86328-0.89062 1.1719-1.1602 1.2188-0.77734 0.73438-0.85938 0.80469-1.1719 1.5078-1.2539 1.2031-2.2617 0.74219-1.4883 0.59766-1.2422 0.046875-1.832 0.55859-1.9609 0.59375-1.3086 0.28516-1.2109 0.019531-1.1016 0.019531-1.0586 0.34766-1.8867 0.19141-1.2031 0.35938-0.63672 1.0547-1.0508 1.1016-1.5625 1.2734-0.72266 1.5156-0.11719 1.0469-0.88281 1.0039-0.89453 0.75-0.52734 1.043-1.2227 0.4375-1.043 0.74609-0.097656 1.4336-0.39062 1.4219-0.5625 0.84766-0.9375 0.94141-1.2695 0.14844-1.2695 0.79688-0.60938 1.0391-0.61328 0.80859-1.0938 0.66797-0.19531 1.0742 0.13672 1.2461-0.41406 1.707-0.375 1.8242-0.39844 1.6758-0.21875 1.3086-1.1562 0.35156-1.2344-0.14844-1.1211-0.24219-0.76953-0.67188-0.98047-0.42188-0.64062-0.94922-1.1016-1.0469-1.2461-0.38672-1.2812-0.83984-0.92188-0.57422-0.48438-0.95312-0.96875-0.95312-1.1211-0.5-0.98438-0.49609-0.75-1.1133-0.54297-1.3711-0.17188-1.2344-0.44922-1-1.4102 0.058594-1.0469 0.59375-1.0781 0.10938-0.59375-0.98438-0.75-1.3672-0.31641-1.0625-0.63672-0.80469 0.20312-1.0703-0.23828-1.1211-1.4727-0.16406-0.97656-0.5-1.2383-0.51953-1.2148-0.35547-0.98047-0.32812-1.0234-0.51953-1.2031-0.79297-0.85938-0.53906-1.1875-0.625-0.61328-0.92188-0.44922-1.0938-0.75781-0.76562-0.73047-0.97266-0.09375-1.0039-0.42969-1.1836-0.83984-0.66016-0.72656 0.75391-0.98828-0.44531-0.83984 0.57422-0.86719 0.58203-0.92188 0.55469-1 0.1875-0.66406-1.1836-0.10547-1.082-0.17969-1.1172-0.44141-0.98438-0.67969-1.1367-0.035156-1.0273-0.26953-1.0273-0.0625-1.2109-0.10156-1.0703 0.015625-1.5508 0.09375-1.4844 0.46094-0.91406 0.27344-1.2188 0.15234-1.3398 0.46484-1.4414 0.39062-1.0547-0.15234-1.0156-0.14062-1.0547-0.35156-0.99219-0.17969-1.2266-0.16797-1.125 0.35547-0.98438-0.40625-1.0664-1.1562-0.61719-0.84766-0.62109-1.0586-0.95703-0.9375-0.625-0.79688-0.83203-1.1445-1.0273-0.91016-0.91016-0.33594-1.0742-0.83984-0.58984-1.0352-0.66797-1.0234-0.20312-0.95312-0.76953-0.80469-1.0938-0.99219-1.2227-0.71484-1.0273-0.75781-1.1719-1.6055-1.3203-0.77734-0.73438-1.3398-1.6094-1.082-0.98438-0.85156-0.59375-0.49219-0.96875 0.50781-0.90234 0.47266-0.92188-0.19141-1.1406-0.58203-1.0586 0.019531-1.1875 1.0312-0.83203 0.22266-0.98828-0.82031-0.70312-1.0938-1.1953-1.4219-0.90234-1.9258-0.85547-1.3906-0.44141-1.0898-0.58984-0.88281-0.79297-0.28516-1.9023 0.15234-1.625-0.43359-1.082-1.4336-0.37891-0.69531-0.875-0.51172-1.6562-0.82812-0.87109-1.5469-1.25-0.875-0.51562-1.4336-0.13672-1.1797 0.21094-1.0469-0.51953-0.37891-1.1172 1.0977-0.83203 1.3125-0.33594 1.5898-0.48438 1.3398-0.18359 1.5977-1.582 1.6758-1.1484 1.0352-0.67578 0.98828-0.69531 0.96484-1.0234 0.71094-1.1875 0.36719-1.5039 0.44922-1.5469 0.72656-2.4258 1.4258-2.1875 1.5469-0.96094 1.1914-0.61328 1.2695-0.38281 0.19531-1.043-0.042968-1.1875v-2.2773l0.89453-1.8516 0.34375-1.4961-0.13672-1.3867-0.33984-1.1914 0.23828-1.0703 0.40625-1.2617-0.082032-1.9688-0.039062-1.1641-0.12891-1.1484 0.097656-2.5547 0.20312-1.8789-0.26172-1.7656 0.28516-1.3984 0.16016-1.0742-0.42188-1.7383-0.050782-1.3867 0.36719-1.3984 1.2148-0.45703 1.2695-1.125 0.18359-1.1914 1.3945-0.83594 1.8203-0.73047 1.8516-0.28516 1.2539-0.76562 1.5469-1.3828 1.1289-1.418 0.62891-0.875 0.097656-1.0781 0.51562-1.2969 0.44141-1.0703 0.11328-1.3203-1.0273-0.70703 0.3125-1.1367 1.1914-1.0078 0.76562-0.90234 1.4609-0.29297 1.0273-0.019531 0.90625-0.69531 0.41016-1.2773 0.98438-0.54688 1.0625-0.5625 1.0977-0.60547-0.027344-1.0742-0.96875-0.92578-0.3125-1.1406 0.98828-0.85547 1.125-0.24219 0.97656-0.39062 1.793-0.007813 1.3438 0.30078 2.1445 0.21484 1.1328-0.19531 1.2148-0.79688 1.3359-1.3633 0.82031-1.1016 1.2266-0.65625 0.96094-0.83594-0.15625-1.1172 0.25-1.7891-0.19922-1.4141-0.15625-0.99219-0.33984-1.5195-0.53516-0.90234-0.8125-0.74219-1.4727-1.1836-1.0039-0.53906-1.0938-0.29297-0.16016-1.6016-0.34375-1.6133-0.11328-1.2383 0.62109-1.1562 1.4883-1.0469 0.79688-0.75781 1.0234-1.0469 0.84766-0.58594-0.10547-1.6875-0.40625-2.4805-0.375-1.6445-0.003906-1.1719-0.74219-1.0703-0.39062-1.332-0.89844-0.67188-1.3906-0.85547-0.52734-1.1367-0.48438-1.293-1.332-0.40625-1.2617-0.69141-0.93359-0.99609-0.53906-1.2383-0.035156-1.1641 0.5-1.2617-0.53125-1.957-0.30469-1.1367-0.070312-1.0977-0.4375-1.2461-0.58203-1.3086 0.12891-0.99609 0.76172-1.7812 0.57031-0.94141 1.9766-0.16016 1.3203-0.054687 0.94922-0.33594 1.2148-0.54297 0.85156-1.2852 1.3945-1.7891 3.8672-1.8555 0.90625-0.69141 0.51953-1.3281 0.56641-1.2227 1.3047-0.94141 1.8164-1.4648 0.66406-0.86719 0.91406-1.0156 0.71094-0.78125 1.1602-1.1797 0.71094-1.0352 1.0703-1.4531 0.40234-1.4922-0.039062-1.6719 1.1445-0.98047 1.207-0.25391 1.1953-0.5 1.1797-0.59375 1.75-0.9375 1.5117-0.51953 0.83203-1.2422 0.67969-1.0938 1.3086-0.65234 1.3047-0.8125 0.76172-1.0156 0.74219-0.75781 1.7109-0.23828 1.0039 0.23047 1.5156 1.5508 1.2617 0.042968 1.6562-0.035156 1.0703 0.10938 0.83594-1.0742 1.1445-1.3789 1.4531-1.0352 0.47266-1.1992-0.1875-1.0977 0.26562-1.0664 0.43359 0.13281" fill="none" stroke="#fff" stroke-linecap="round" stroke-linejoin="round" stroke-miterlimit="10" stroke-width="2"/>
<path d="m215.1 171.99 0.19922 0.42188 0.78516 0.75781 0.96094 0.51562 0.72266 0.92578 1.0352 0.054688 1.0859-0.085938 1.332 0.050781 1.2461 0.20312 0.95703 0.37109 0.79688 0.60547 1.0625-0.078125 1.0547-0.12891 1.1133 0.35156 1.1484 0.27734 0.91406 0.55078 1.0273-0.082031 1.0078-0.3125 1.6992 0.36328 2.1445 1.125 1.0547 0.68359 1.3672 0.070312 0.92578 0.54297 1.1367 0.39844 1.0664-0.12891 1.2891 0.23047 1.6992 0.03125 1.0195 0.050781 1.1602 1.2539 0.97266 0.30859 1.6367-0.53125 1.125-1.0078 1.3516-1.1523 1.0391-0.75391 1.5117-0.80859 1.0508 0.039063 0.66406 0.98047 0.38281 1.4062 1 1.9023 0.63281 1.0938 1.3164-0.49219 0.80859-1.3672 1.6641-2.0781 0.74609-1 0.76562-2.0234-0.125-1.2891 0.4375-1.3711 1.457-0.85547 1.6836 0.44922 0.51953 0.90625 0.97266 1.8047 0.78906 0.61719 0.89453 1.332 0.89844 0.79297 1.3906 0.46094 1.0781 0.035156 1.3867-0.12109 1.1172-0.18359 1.5312-0.035157 0.51172-2.2422 2.7383-0.49609 2.1992 0.30078 1.0547 0.19531 1.2422 0.60938-0.046875 1.3242 0.027344 1.0117 0.38672 1.1875 0.75 0.9375 0.85938 1.0391 0.71875 0.8125 0.51953 1.543 0.54297 1.8633 0.25781 1.0273 0.085937 1.5039-0.054687 2.3164 0.082031 1.0508 0.12891 1.0625-0.45703 0.89844-1.1172 1.2695-1.1367 1.2148-0.69922 1.3398 0.59375 1.207 0.99219 1.2656 0.65234 1.3984 0.19531 1.2812-0.1875 1.5273-0.18359 1.4922-0.78516 0.80859-0.88281 0.71094-1.6133 1.0742-0.97656 1.0469-0.64844 1.8008-0.19922 1.5898 0.28125 2.3164 0.32031 3.3242 0.60938 3.0156-0.015625 1.3164-1.4336 0.96875-1.3516 0.80859-1.332 0.88281-0.99609 0.81641 0.42969 1.1523 0.75391 0.71875 0.80078 0.89453 0.046875 1.2852-0.23047 1.0469-0.066406 1.0586 0.81641 1.1289 0.42969 1.0156 0.69531 0.875-0.35156 1.1328-0.39062 1.0391-0.29297 2.3281-0.03125 1.2031-0.17578 1.4961 0.13281 1.3125 0.54688 1.332 0.83594 2.2305 0.22656 1.0195-1.0781 1.5273-0.79297 0.875-0.66406 0.91016-0.64062 1-0.89844 0.66016 0.019531 1.0352-0.55469 1.2969-0.023438 1.0977 0.32812 1.1797 0.28125 1.0273 0.30078 1.207-0.85547 1.1445-1.5312 0.90625h-1.0859l-1.5625-0.24219-2.2461-0.49219-1.3086-0.98047-1.0312-0.57422-1.1602 0.26562-1.0938 0.95703-1.25 0.63672-0.92578 0.73828-0.56641 1.3047-1.0156 1.0703-0.85547 0.71094-0.20703 2.1992 0.25391 1.0391 0.67578 0.88281 1.0117 0.85547 0.32422 0.95312-0.023437 1.5039-0.019532 1.2461-0.074218 1.3906-1.043 0.31641-1.3477-0.085937-1.0508 0.25-1.6484 0.39453-1.1406 0.33984-1.207 0.19922-1.4688-0.11719-1.043-0.32031-1.2227-0.13281-1.2227-0.042969-2.1602 0.16016-1.4141 0.1875-1.2539 0.52344-1.1016 0.45312-1.3711 0.11719-2.2773-0.50781-1.1641 0.015625-0.98828-0.25781-1.1602-0.24219-1.0625-0.019531-1.0469-0.38672-1.0469 0.035156-1.3242-0.5-0.97656 0.61719-1.2461 0.63672-0.8125 0.84766 0.28516 0.98047-0.082032 1.6523-0.066406 2-0.50391 0.89453-0.97266-0.51562-1.0234-0.78906-1.2852-0.27344-0.89844-1.3047-0.53125-0.93359-1.3164-0.10156-1.0586-0.023438-1.0742 0.058594-1.75-0.30078-0.65625-0.78906-0.57812-1.1445-1.2188-0.83203-1.375 0.082031-1.0039-0.54688-1.3477-0.21094-1.7734-0.76172-0.56641-0.96875-1.0352-0.066407-1.3555-0.19141-1.2305 0.074219-1.5039 0.44531-1.1445 0.84375-0.99219 0.45312-1.168-0.34766-1.6211-0.33203-0.86719-0.60547-0.76953-0.64453-1.0938-0.78125-0.24219-1.0547 0.32031-1.0703-0.16797-1.0039 0.42969-1.0195 0.85938-0.625 0.92188-0.91016 0.44922-1.1445 0.26562-1.0664 0.53125-0.89453-0.035156-1.3281 0.11719-1.0859-0.79688-0.62109 0.36719-1.2422 0.8125-0.85938 0.55078-1.0547 0.16016-1.2148-0.1875-1.1328 1.1328-0.79297 1.2266-0.81641 0.78516-0.96875 0.35156-0.95703-0.35156-1.0234-0.91406-0.99609-1.0977-0.058593-0.71875 0.80078-0.67188-0.95703-1.3516-0.23047-1.1172 0.48438-0.875-0.73438-1.043-1.1055-0.5625-0.875-1.25-0.42578-0.78125-0.71094-1.2227-0.58594-0.85938-0.56641-0.31641-1.1289-0.78125-0.68359-1 0.09375-1.5703-0.30469-0.49219-1.0859-1.0742-0.16797-0.64844-0.78516-0.84375-0.9375-1.0234-0.60938-1.3164-1.2773-0.43359-1.3359-0.35938-1.1055-0.85938-0.76172-0.19922-1.1914 0.125-1.4336-0.41406-0.91406-0.92578-0.87109-0.73438-0.79297-0.48828-0.94141-0.96875-0.59375-0.67969-0.8125-0.96875-0.52734-1.293-0.35156-1.2188-0.64453-1.3711 0.015625-1.5508 0.54688-1.3242 0.79297-1.6289 0.027344-1.2266-0.089844-0.65625-0.86328-1.1133-0.18359-1.6172-0.73047-1.0391-0.25-0.98828 0.1875-1.0859-0.96484 0.16797-1.0039 0.24609-0.99219 0.53906-0.95703-0.15625-1.3828-0.33984-1.0898-0.92188-0.88672-0.65625-1.1914-1.0156-0.50781-1.5156-0.16797-1.2344 0.30859-1.082 0.019531-1.0156-0.25391-0.85547-0.69531-1.7461-1.4922-1.6211-1.3398-1.7031-0.46094-1.7227-0.85156-1.3047-0.33594-1.2305-0.085937-1.1016-0.32031-1.0195-0.007812-1.2148-0.84375-0.52734-1.668-0.76172-1.2344-1.0117-0.25781-1.3633-0.68359-0.92578-0.64844-1.4648-0.90234-1.2695-0.33984-1.5898-0.5625-2.3008-1.168-0.10156-1 1.2812-1.2617 0.46875-1.2344 1.0156-1.6367 0.16406-1.1797 0.67188-0.96875 0.58203-1.2422 0.99219-1.1367 1.1094-0.19531 1.2266 0.21484 0.92969 0.75391 0.74609 0.83203 0.68359 0.91797 1.1484 0.73047 1.1875 0.37891 1.375 0.25781 1.1602 0.16016 2.4414 0.09375 1.4375 0.078125 1.293 0.21484 1.6133 0.32422 0.96094 0.41797 1.4219 0.64844 1.918-0.32422 1.5156-0.058594 1.0195 0.27344 1.6055 0.42969 1.1797 0.32812 1.9258 0.47656 1.1836 0.56641 0.99219 0.76953 2.0312 2.2227 0.41406 2.2266-0.015625 1.0352 1.2383-0.30469 0.64844-1.1914 1.0742-0.53516 0.1875-1.3672-0.51953-1.5859-0.32812-1.0898 1.25-1.0391 0.63281-0.99219 0.49219-1.8828 1.1055-1.0117 1.3828-0.51172 0.76562-1.4766 0.52344-2.0664 0.29688-1.1602 0.79688-1.0859 0.69531-1.418 0.74219-1.5391 0.5625-1.0859 0.41797-1.1055 1.0195-0.74609 0.64844 0.79688 1.1602 2.1367 1.2031 0.78125 1.2773 0.70312 1.457 0.15625 1.2969-0.34766 0.99609-0.17969 1.1992-0.070313 0.91406-0.5 1.2578-0.30078 1.0312 0.09375 1.332-0.125 0.92969-0.81641 1.2695-0.070313 1.207-0.44922 0.90625-0.53125 1.0078-0.38672 1.0625-0.46875 1.0547-0.38672 0.89062-0.46484 1.1406-0.32422 1.1836-0.11328 0.65625-1.0039 0.54297-1.2305 0.57422-1.4727 0.28516-1.0469 0.66016-1.0898 0.64844-0.97656 0.81641-0.62109 1.3047-0.66406 0.97266-0.80469 1.0547-0.55859 0.55078-0.85938 0.45703-0.90234z" fill="#ccc" fill-rule="evenodd"/>
<path d="m215.1 171.99 0.19922 0.42188 0.78516 0.75781 0.96094 0.51562 0.72266 0.92578 1.0352 0.054688 1.0859-0.085938 1.332 0.050781 1.2461 0.20312 0.95703 0.37109 0.79688 0.60547 1.0625-0.078125 1.0547-0.12891 1.1133 0.35156 1.1484 0.27734 0.91406 0.55078 1.0273-0.082031 1.0078-0.3125 1.6992 0.36328 2.1445 1.125 1.0547 0.68359 1.3672 0.070312 0.92578 0.54297 1.1367 0.39844 1.0664-0.12891 1.2891 0.23047 1.6992 0.03125 1.0195 0.050781 1.1602 1.2539 0.97266 0.30859 1.6367-0.53125 1.125-1.0078 1.3516-1.1523 1.0391-0.75391 1.5117-0.80859 1.0508 0.039063 0.66406 0.98047 0.38281 1.4062 1 1.9023 0.63281 1.0938 1.3164-0.49219 0.80859-1.3672 1.6641-2.0781 0.74609-1 0.76562-2.0234-0.125-1.2891 0.4375-1.3711 1.457-0.85547 1.6836 0.44922 0.51953 0.90625 0.97266 1.8047 0.78906 0.61719 0.89453 1.332 0.89844 0.79297 1.3906 0.46094 1.0781 0.035156 1.3867-0.12109 1.1172-0.18359 1.5312-0.035157 0.51172-2.2422 2.7383-0.49609 2.1992 0.30078 1.0547 0.19531 1.2422 0.60938-0.046875 1.3242 0.027344 1.0117 0.38672 1.1875 0.75 0.9375 0.85938 1.0391 0.71875 0.8125 0.51953 1.543 0.54297 1.8633 0.25781 1.0273 0.085937 1.5039-0.054687 2.3164 0.082031 1.0508 0.12891 1.0625-0.45703 0.89844-1.1172 1.2695-1.1367 1.2148-0.69922 1.3398 0.59375 1.207 0.99219 1.2656 0.65234 1.3984 0.19531 1.2812-0.1875 1.5273-0.18359 1.4922-0.78516 0.80859-0.88281 0.71094-1.6133 1.0742-0.97656 1.0469-0.64844 1.8008-0.19922 1.5898 0.28125 2.3164 0.32031 3.3242 0.60938 3.0156-0.015625 1.3164-1.4336 0.96875-1.3516 0.80859-1.332 0.88281-0.99609 0.81641 0.42969 1.1523 0.75391 0.71875 0.80078 0.89453 0.046875 1.2852-0.23047 1.0469-0.066406 1.0586 0.81641 1.1289 0.42969 1.0156 0.69531 0.875-0.35156 1.1328-0.39062 1.0391-0.29297 2.3281-0.03125 1.2031-0.17578 1.4961 0.13281 1.3125 0.54688 1.332 0.83594 2.2305 0.22656 1.0195-1.0781 1.5273-0.79297 0.875-0.66406 0.91016-0.64062 1-0.89844 0.66016 0.019531 1.0352-0.55469 1.2969-0.023438 1.0977 0.32812 1.1797 0.28125 1.0273 0.30078 1.207-0.85547 1.1445-1.5312 0.90625h-1.0859l-1.5625-0.24219-2.2461-0.49219-1.3086-0.98047-1.0312-0.57422-1.1602 0.26562-1.0938 0.95703-1.25 0.63672-0.92578 0.73828-0.56641 1.3047-1.0156 1.0703-0.85547 0.71094-0.20703 2.1992 0.25391 1.0391 0.67578 0.88281 1.0117 0.85547 0.32422 0.95312-0.023437 1.5039-0.019532 1.2461-0.074218 1.3906-1.043 0.31641-1.3477-0.085937-1.0508 0.25-1.6484 0.39453-1.1406 0.33984-1.207 0.19922-1.4688-0.11719-1.043-0.32031-1.2227-0.13281-1.2227-0.042969-2.1602 0.16016-1.4141 0.1875-1.2539 0.52344-1.1016 0.45312-1.3711 0.11719-2.2773-0.50781-1.1641 0.015625-0.98828-0.25781-1.1602-0.24219-1.0625-0.019531-1.0469-0.38672-1.0469 0.035156-1.3242-0.5-0.97656 0.61719-1.2461 0.63672-0.8125 0.84766 0.28516 0.98047-0.082032 1.6523-0.066406 2-0.50391 0.89453-0.97266-0.51562-1.0234-0.78906-1.2852-0.27344-0.89844-1.3047-0.53125-0.93359-1.3164-0.10156-1.0586-0.023438-1.0742 0.058594-1.75-0.30078-0.65625-0.78906-0.57812-1.1445-1.2188-0.83203-1.375 0.082031-1.0039-0.54688-1.3477-0.21094-1.7734-0.76172-0.56641-0.96875-1.0352-0.066407-1.3555-0.19141-1.2305 0.074219-1.5039 0.44531-1.1445 0.84375-0.99219 0.45312-1.168-0.34766-1.6211-0.33203-0.86719-0.60547-0.76953-0.64453-1.0938-0.78125-0.24219-1.0547 0.32031-1.0703-0.16797-1.0039 0.42969-1.0195 0.85938-0.625 0.92188-0.91016 0.44922-1.1445 0.26562-1.0664 0.53125-0.89453-0.035156-1.3281 0.11719-1.0859-0.79688-0.62109 0.36719-1.2422 0.8125-0.85938 0.55078-1.0547 0.16016-1.2148-0.1875-1.1328 1.1328-0.79297 1.2266-0.81641 0.78516-0.96875 0.35156-0.95703-0.35156-1.0234-0.91406-0.99609-1.0977-0.058593-0.71875 0.80078-0.67188-0.95703-1.3516-0.23047-1.1172 0.48438-0.875-0.73438-1.043-1.1055-0.5625-0.875-1.25-0.42578-0.78125-0.71094-1.2227-0.58594-0.85938-0.56641-0.31641-1.1289-0.78125-0.68359-1 0.09375-1.5703-0.30469-0.49219-1.0859-1.0742-0.16797-0.64844-0.78516-0.84375-0.9375-1.0234-0.60938-1.3164-1.2773-0.43359-1.3359-0.35938-1.1055-0.85938-0.76172-0.19922-1.1914 0.125-1.4336-0.41406-0.91406-0.92578-0.87109-0.73438-0.79297-0.48828-0.94141-0.96875-0.59375-0.67969-0.8125-0.96875-0.52734-1.293-0.35156-1.2188-0.64453-1.3711 0.015625-1.5508 0.54688-1.3242 0.79297-1.6289 0.027344-1.2266-0.089844-0.65625-0.86328-1.1133-0.18359-1.6172-0.73047-1.0391-0.25-0.98828 0.1875-1.0859-0.96484 0.16797-1.0039 0.24609-0.99219 0.53906-0.95703-0.15625-1.3828-0.33984-1.0898-0.92188-0.88672-0.65625-1.1914-1.0156-0.50781-1.5156-0.16797-1.2344 0.30859-1.082 0.019531-1.0156-0.25391-0.85547-0.69531-1.7461-1.4922-1.6211-1.3398-1.7031-0.46094-1.7227-0.85156-1.3047-0.33594-1.2305-0.085937-1.1016-0.32031-1.0195-0.007812-1.2148-0.84375-0.52734-1.668-0.76172-1.2344-1.0117-0.25781-1.3633-0.68359-0.92578-0.64844-1.4648-0.90234-1.2695-0.33984-1.5898-0.5625-2.3008-1.168-0.10156-1 1.2812-1.2617 0.46875-1.2344 1.0156-1.6367 0.16406-1.1797 0.67188-0.96875 0.58203-1.2422 0.99219-1.1367 1.1094-0.19531 1.2266 0.21484 0.92969 0.75391 0.74609 0.83203 0.68359 0.91797 1.1484 0.73047 1.1875 0.37891 1.375 0.25781 1.1602 0.16016 2.4414 0.09375 1.4375 0.078125 1.293 0.21484 1.6133 0.32422 0.96094 0.41797 1.4219 0.64844 1.918-0.32422 1.5156-0.058594 1.0195 0.27344 1.6055 0.42969 1.1797 0.32812 1.9258 0.47656 1.1836 0.56641 0.99219 0.76953 2.0312 2.2227 0.41406 2.2266-0.015625 1.0352 1.2383-0.30469 0.64844-1.1914 1.0742-0.53516 0.1875-1.3672-0.51953-1.5859-0.32812-1.0898 1.25-1.0391 0.63281-0.99219 0.49219-1.8828 1.1055-1.0117 1.3828-0.51172 0.76562-1.4766 0.52344-2.0664 0.29688-1.1602 0.79688-1.0859 0.69531-1.418 0.74219-1.5391 0.5625-1.0859 0.41797-1.1055 1.0195-0.74609 0.64844 0.79688 1.1602 2.1367 1.2031 0.78125 1.2773 0.70312 1.457 0.15625 1.2969-0.34766 0.99609-0.17969 1.1992-0.070313 0.91406-0.5 1.2578-0.30078 1.0312 0.09375 1.332-0.125 0.92969-0.81641 1.2695-0.070313 1.207-0.44922 0.90625-0.53125 1.0078-0.38672 1.0625-0.46875 1.0547-0.38672 0.89062-0.46484 1.1406-0.32422 1.1836-0.11328 0.65625-1.0039 0.54297-1.2305 0.57422-1.4727 0.28516-1.0469 0.66016-1.0898 0.64844-0.97656 0.81641-0.62109 1.3047-0.66406 0.97266-0.80469 1.0547-0.55859 0.55078-0.85938 0.45703-0.90234 0.38672 0.10547" fill="none" stroke="#fff" stroke-linecap="round" stroke-linejoin="round" stroke-miterlimit="10" stroke-width="2"/>
<path d="m298.05 16.848 0.16406 0.019532 0.61719 0.87891 0.023438 1.2148-0.58984 1.1836 0.62891 2.1445 0.69922 0.82812 0.78125 1.3008 0.57812 0.86719 0.76562 0.78516 1.0039 1.4844 0.49609 0.87109 0.67578 0.9375 0.90234 1.3711 0.96094 1.3516 0.60547 1.0352 0.32031 1.5195 0.13281 1.1367 0.12109 1.1016-0.097656 1.2305-0.15234 1.2656-0.42578 1.0898-0.44531 2.3789-0.039062 1.918-0.51172 1.3867-0.29297 1.9219-0.28906 1.5391-0.39453 1.1445-0.49219 0.91406-0.81641 0.78906-1.2266 1.1484-1.0039 0.77344-0.71094 0.81641-0.47656 0.91406-0.55078 1.3125-0.84766 0.9375-1.2852 0.32031-1.1875 0.23828 0.89062-0.73047 1.2109-0.46875 0.77344-1.3438 0.76562-1.5078 0.59375-0.97266 0.81641-1.0312 0.5-0.875 1.1055-1.7695 0.62109-1.9023 0.41797-1.6523-0.27344-1.0938-0.90625-0.55078 0.14062-1.2266-0.34766-1.1875 0.046875-1.1406 0.59375-0.94922 0.070312-1.375-0.13281-1.1211-0.0625-1.5898-0.69531-1.0742-0.32031 0.94922-1.0312-0.62891-0.95312-0.32031-0.94531-0.53125-1.1836-0.35156-1.4414-0.85938-1.0547-0.38281 0.52344 0.96484 0.85547 0.60547 0.69922 0.79688 1.2891 0.09375 1.2148 0.39844 1.0234 0.16016-0.40234 1.0781-1.1641 0.5625-0.91797 0.56641-0.042969 1.0391-1.0977 0.24609-1.0273 0.10938-1.0352-0.55078-0.085938 1.4336-0.66406 1.0469 0.31641 0.94922 0.93359 0.53906 0.75781 0.80859 0.35156 0.95703-0.55469 1.0781-0.92969 0.68359-0.72656 0.82422-0.80078 0.64062-0.39844 0.96875 1.3594 0.007812-0.67578 1.1602-0.69531 0.73438-1.4062 0.074218-0.042969 1.0273-1.3477-1.125-0.37891 1.0859 0.91406 0.73438-1 0.21484-0.011719 1.2031 0.62109 0.89844-0.45312 0.92188-0.79297-0.73438-0.94922 0.5625 1.082 0.86719-1.0625 0.14844 1.1758 1.0234-0.95703-0.53125-0.91016 0.53125 0.27734 0.97656-0.96875 0.32422-0.76172 0.83984-0.80859 0.63672-1.2188 0.52344-0.86719 0.71094-0.75781 0.78516-1.1523-0.30078 0.13281 1.4375 0.55859 0.90234-1.125-0.085938-0.42188 0.92188-0.79297 0.62109-0.41797 0.92188-0.76562 0.72266-0.89844 0.45312-0.36328 0.9375-1.0703 0.36328 0.14453 1.0586 0.96094 0.36328-0.47656 0.92188 0.57422 0.90234 0.97656 0.50391 0.80078 0.95312 1.5938 0.62891 0.24609 1.0781-0.83984 0.55859-1.0547 1.082-0.98828 1.293-0.5625 1.1094-0.73047 0.99219-0.57422-0.90234-0.35156-1.2461-0.42188-0.96094-0.91016-0.89844 0.18359-0.98438-0.60938-1.0781-0.26562 0.98047-1.043 0.125-0.089844 1.3906 0.45703 1.1797 0.79688 0.61328-0.74219 0.73828-0.26953 1.2734-0.0625 1.0898-1.3672 0.85938-1.1992-0.027344-1.5938-0.19141-0.99219-0.27344-0.9375-0.49609-1.0469-0.49219-0.84766-1.2734-0.61719-1.4453-0.83203-0.76562-5.6094-4.9727-0.90234-0.80078-1.4219-1.2617-4.3516-3.8594-1.0352 0.027343-1.2852 0.22266-0.37109-1.0039 0.082031-1.1562-0.63672-0.95312-0.79688-1.0273-0.69922-0.75781-0.71484-0.85156-1.0234-0.73828-0.93359-0.54297-1.0586-1.1797-1.1094-0.63672-1.5273-1.2422-0.51562-0.98438 1.1914-0.23828 1.3398-0.0625 1.4414-0.0625 0.99609-0.28516 0.73438-1.1016 0.84375-2.0195 0.85938-1.0938 1.2227-1.2422 1.75-1.3555 1.0391-0.69531h1.1211l1.6289-0.13281 1.082-0.49609 1.0156-0.94531 0.66016-1.3164 0.46484-1.1367 0.71484-0.71875 1.0352-0.16016 0.82812 0.58203 0.09375 1.6797 0.58984 0.98047 1.1211 0.085938 0.86328-0.57031 0.28906-1.2734 0.11328-1.2227 0.98047-1.4766 0.99219-0.59766 1.1172-0.71875 1.0156-0.38281 1.1055-0.33594 0.85547-1.0781 0.16016-1.1328 0.015625-1.2305 0.625-0.89844 1.2969-0.34375 1.5273-0.15234 1.0898-0.45312 1.2773-0.92969 1.0508-0.62109 1.293-0.51953 0.82031-0.76562 1.0312 0.085937 0.93359-0.45703 0.375-1.7461 0.79688-0.80859 1.1953-0.21094 1.1172 0.03125 0.99219-0.24609 1.168-0.32422 1.0977 0.19922 0.98828 0.26953 1.2031-0.43359 0.51953-1.2812-0.32031-1.0898-0.078125-1.0195 1.1641-0.11719 1.1641 0.83203 1.1992 0.35938 1.0898-0.26562 0.95703-0.48828 1.1914-1.4102 0.53125-1.0664 0.16016-1.4805-0.28516-0.96875-0.5625-0.91406 0.074219-1.2656 2.1055-2.2188z" fill="#ccc" fill-rule="evenodd"/>
<path d="m298.05 16.848 0.16406 0.019532 0.61719 0.87891 0.023438 1.2148-0.58984 1.1836 0.62891 2.1445 0.69922 0.82812 0.78125 1.3008 0.57812 0.86719 0.76562 0.78516 1.0039 1.4844 0.49609 0.87109 0.67578 0.9375 0.90234 1.3711 0.96094 1.3516 0.60547 1.0352 0.32031 1.5195 0.13281 1.1367 0.12109 1.1016-0.097656 1.2305-0.15234 1.2656-0.42578 1.0898-0.44531 2.3789-0.039062 1.918-0.51172 1.3867-0.29297 1.9219-0.28906 1.5391-0.39453 1.1445-0.49219 0.91406-0.81641 0.78906-1.2266 1.1484-1.0039 0.77344-0.71094 0.81641-0.47656 0.91406-0.55078 1.3125-0.84766 0.9375-1.2852 0.32031-1.1875 0.23828 0.89062-0.73047 1.2109-0.46875 0.77344-1.3438 0.76562-1.5078 0.59375-0.97266 0.81641-1.0312 0.5-0.875 1.1055-1.7695 0.62109-1.9023 0.41797-1.6523-0.27344-1.0938-0.90625-0.55078 0.14062-1.2266-0.34766-1.1875 0.046875-1.1406 0.59375-0.94922 0.070312-1.375-0.13281-1.1211-0.0625-1.5898-0.69531-1.0742-0.32031 0.94922-1.0312-0.62891-0.95312-0.32031-0.94531-0.53125-1.1836-0.35156-1.4414-0.85938-1.0547-0.38281 0.52344 0.96484 0.85547 0.60547 0.69922 0.79688 1.2891 0.09375 1.2148 0.39844 1.0234 0.16016-0.40234 1.0781-1.1641 0.5625-0.91797 0.56641-0.042969 1.0391-1.0977 0.24609-1.0273 0.10938-1.0352-0.55078-0.085938 1.4336-0.66406 1.0469 0.31641 0.94922 0.93359 0.53906 0.75781 0.80859 0.35156 0.95703-0.55469 1.0781-0.92969 0.68359-0.72656 0.82422-0.80078 0.64062-0.39844 0.96875 1.3594 0.007812-0.67578 1.1602-0.69531 0.73438-1.4062 0.074218-0.042969 1.0273-1.3477-1.125-0.37891 1.0859 0.91406 0.73438-1 0.21484-0.011719 1.2031 0.62109 0.89844-0.45312 0.92188-0.79297-0.73438-0.94922 0.5625 1.082 0.86719-1.0625 0.14844 1.1758 1.0234-0.95703-0.53125-0.91016 0.53125 0.27734 0.97656-0.96875 0.32422-0.76172 0.83984-0.80859 0.63672-1.2188 0.52344-0.86719 0.71094-0.75781 0.78516-1.1523-0.30078 0.13281 1.4375 0.55859 0.90234-1.125-0.085938-0.42188 0.92188-0.79297 0.62109-0.41797 0.92188-0.76562 0.72266-0.89844 0.45312-0.36328 0.9375-1.0703 0.36328 0.14453 1.0586 0.96094 0.36328-0.47656 0.92188 0.57422 0.90234 0.97656 0.50391 0.80078 0.95312 1.5938 0.62891 0.24609 1.0781-0.83984 0.55859-1.0547 1.082-0.98828 1.293-0.5625 1.1094-0.73047 0.99219-0.57422-0.90234-0.35156-1.2461-0.42188-0.96094-0.91016-0.89844 0.18359-0.98438-0.60938-1.0781-0.26562 0.98047-1.043 0.125-0.089844 1.3906 0.45703 1.1797 0.79688 0.61328-0.74219 0.73828-0.26953 1.2734-0.0625 1.0898-1.3672 0.85938-1.1992-0.027344-1.5938-0.19141-0.99219-0.27344-0.9375-0.49609-1.0469-0.49219-0.84766-1.2734-0.61719-1.4453-0.83203-0.76562-5.6094-4.9727-0.90234-0.80078-1.4219-1.2617-4.3516-3.8594-1.0352 0.027343-1.2852 0.22266-0.37109-1.0039 0.082031-1.1562-0.63672-0.95312-0.79688-1.0273-0.69922-0.75781-0.71484-0.85156-1.0234-0.73828-0.93359-0.54297-1.0586-1.1797-1.1094-0.63672-1.5273-1.2422-0.51562-0.98438 1.1914-0.23828 1.3398-0.0625 1.4414-0.0625 0.99609-0.28516 0.73438-1.1016 0.84375-2.0195 0.85938-1.0938 1.2227-1.2422 1.75-1.3555 1.0391-0.69531h1.1211l1.6289-0.13281 1.082-0.49609 1.0156-0.94531 0.66016-1.3164 0.46484-1.1367 0.71484-0.71875 1.0352-0.16016 0.82812 0.58203 0.09375 1.6797 0.58984 0.98047 1.1211 0.085938 0.86328-0.57031 0.28906-1.2734 0.11328-1.2227 0.98047-1.4766 0.99219-0.59766 1.1172-0.71875 1.0156-0.38281 1.1055-0.33594 0.85547-1.0781 0.16016-1.1328 0.015625-1.2305 0.625-0.89844 1.2969-0.34375 1.5273-0.15234 1.0898-0.45312 1.2773-0.92969 1.0508-0.62109 1.293-0.51953 0.82031-0.76562 1.0312 0.085937 0.93359-0.45703 0.375-1.7461 0.79688-0.80859 1.1953-0.21094 1.1172 0.03125 0.99219-0.24609 1.168-0.32422 1.0977 0.19922 0.98828 0.26953 1.2031-0.43359 0.51953-1.2812-0.32031-1.0898-0.078125-1.0195 1.1641-0.11719 1.1641 0.83203 1.1992 0.35938 1.0898-0.26562 0.95703-0.48828 1.1914-1.4102 0.53125-1.0664 0.16016-1.4805-0.28516-0.96875-0.5625-0.91406 0.074219-1.2656 2.1055-2.2188 0.52734 0.65234" fill="none" stroke="#fff" stroke-linecap="round" stroke-linejoin="round" stroke-miterlimit="10" stroke-width="2"/>
<path d="m238.61 0.0039062 1.2031 0.089844 1.3477 0.066406h2.4648l1.3242 0.17188 1.4688 0.0625 1.5664 0.15625 1.3789 0.10156 1.6719 0.33984 1.082 0.007812 2.5273 0.14062 1.4102 0.47656 1.0859 0.19531 1.3281 0.40625 1.6523 0.46094 2.4336 0.77734 1.1836 0.36328 1.2969 0.53516 0.96094 0.3125 1.1211 0.55078 1.2422 0.47266 1.1914 0.53125 1.2148 0.57031 2.0156 0.90625 1.4336 0.625 0.91406 0.48438 0.95312 0.44531 1.6016 0.86328 1.1562 0.93359 1.0664 0.69922 0.93359 0.55859 1 0.58594 1.0938 0.41016 1.0781 0.53125 1.4297 0.30078 1.0508-0.015625h1.4219l1.0234 0.015625 1.3125-0.019531 1.2227-0.28125 1.0664-0.38281 1.0273-0.41797 1.0078 0.28906 1.0664 0.49609 0.73047 0.75391 0.75 0.67969 0.40234 0.94141-1.8398 1.6836-0.40625 1.0977 0.31641 1.0742 0.5 0.95312 0.078125 1.0859-0.36328 1.4688-0.85156 1.3242-0.97656 0.88281-1.3203 0.5-1.3203-0.1875-1.4414-0.99609-1.1641 0.11719 0.078125 1.0195 0.32031 1.0898-0.37891 1.1367-0.86719 0.51953-1.4648-0.21094-1.0977-0.19922-1.168 0.32422-0.99219 0.24609-1.1172-0.03125-1.0625 0.15625-0.86328 0.5625-0.19531 1.3125-0.51562 1.0508-1.0352 0.085938-1.1523 0.39844-0.98438 0.75391-1.6875 0.72266-1.2773 0.92969-1.0898 0.45312-1.2188 0.125-1.1094 0.11328-1.0469 0.87109-0.089844 1.5156-0.16016 1.1328-0.85547 1.0781-1.1055 0.33594-1.0156 0.38281-1.1172 0.71875-0.99219 0.59766-0.80078 1.0898-0.33984 0.95312 0.019531 1.1914-1.125 1.3086-1.1211-0.085938-0.58984-0.98047-0.09375-1.6797-0.82812-0.58203-1.0352 0.16016-0.71484 0.71875-0.46484 1.1367-0.66016 1.3164-1.0156 0.94531-1.082 0.49609-1.0898 0.15234-1.0312-0.039062-1.1562 0.32812-2.2617 1.7422-1.2227 1.2422-0.85938 1.0938-0.70312 1.4258-0.62109 1.582-1.1055 0.35938-1.5859 0.10156-1.3398 0.0625-1.0586 0.10938 0.38281 1.1133 0.82031 0.80859 1.8164 1.0703 0.70703 0.74609 1.2852 0.97656 0.85547 0.57422 0.88281 1.0156 0.69922 0.75781 0.79688 1.0273 0.63672 0.95312-0.082031 1.1562 0.007812 1.0195 1.3281-0.17969 1.0625-0.023437 4.6445 3.7969 1.4219 1.2617 0.90234 0.80078 5.6094 4.9727 0.80469 0.71094 0.64453 1.5 0.53125 1.1953-1.0547 0.11328-1.0273-0.18359-1.0664 0.1875-0.9375 0.42188-0.94922 0.64844-0.77344 1.0391-1.082 0.75781-1.207 0.15234-1.2383-0.30469-1.625-1.0547-1.0664-1.0039-0.73828-0.68359-1.0547-0.52344-0.96875 0.66797-0.58984 1.0625 0.085937 1.125-0.20703 1.0547-0.042969 1.0273-0.21875 1.0312-0.29688 1.0469-0.46484 0.88672-0.67969 1.0508-0.070313 1.1445 0.39844 1.0273-0.007813 1.3203-0.18359 1.0117-0.3125 1.0273-0.17188 1.0234-0.42188 1.2344-0.99609 1.3945-0.25781 1.043-0.078125 1.0156 0.25391 1.043 0.10938 1.0703-0.48828 1.4883 0.10547 2.2305 0.34766 1.0117 1.3867 1.125 0.13281 1.2539-0.47266 1.4531-0.98438 0.57812-0.0625 1.3867-0.3125 1.2539-0.19141 1.7578 0.023438 1.1523-0.91797 1.5977-0.94531 1.4531-0.17188 1.2031-0.80859 1.2656-0.73047 0.84766-1.3125 0.039062-1.4648-0.046875-0.96094 0.45312-0.76562 1.2852 0.20703 1.168-1.1758 0.72656-1.1953-0.11328-1.2539 0.039063-0.61328 0.85156-1.0234 0.35938-1.1055-0.13672-1.7578-0.089844-0.84375-0.86328-1 0.39453-1.0508 0.62891-0.82422 0.67969-0.34375 0.98047-0.86328 0.71875-0.98828 0.375-0.92578 0.56641-0.38281-0.94531-0.93359 0.71484-1.0781 0.82812-0.64844 0.80469-0.34766 1.0117-0.35938 1.1055 0.76562 1.3906 0.078125 1.0352 0.30859 1.0859 0.65234 1.1758 0.34766 1.3906-1.6172-0.14844-1.3047-0.69922-0.97266-0.63672-0.90625-0.83203-1.1797 0.15625-0.84375 0.75781-0.78125 0.80469-0.50781 0.96094-0.63672 1.4375-0.26953 1.0859 0.023437 1.0117 0.75781 0.82812 0.48438 0.89844 0.51172 0.96875 0.85547 0.74219 0.32422 1.4375-0.015625 1.0039-0.86328 0.62109-0.97266 0.46094-0.96094 0.99609-0.6875 0.84766-0.55859 0.84375-0.61719 0.79688-0.92578-0.5-0.98828 0.16406-0.28516 0.99219 0.71094 1.0156 0.12109 1.2031 0.03125 1.0977 0.4375 0.96484 0.64453 0.88281 0.83594 0.62891 0.83203 0.59766 0.37891 0.98438 0.61719 0.98438 0.70312 0.95703 0.85156 0.81641 0.13672 1.3906-0.15234 1.5352 0.027344 1.1836-0.42969 1.2031-0.55078 0.85938-1.0547 0.55859-0.97266 0.80469-1.3047 0.66406-0.81641 0.62109-0.64844 0.97656-0.66016 1.0898-0.28516 1.0469-0.34375 1.043-0.53125 1.0234-0.35938 1.1406-1.0117 0.58984-1-0.089844-1.0234 0.57422-1.2734 0.58984-1.1992 0.41016-1.1602 0.50781-1.1172 0.59375-1.0117 0.46484-1.0156-0.17578-1.043 0.85156-1.4492 0.29688-1.25-0.070313-1.1328 0.25-0.91406 0.57031-1.1758 0.0625-1.1445 0.16797-1.2969 0.34766-1.2852-0.10938-0.96875-0.41016-0.875-0.54297-1.4883-1.8516-0.72266-1.4258-1.4258 0.51172-0.39453 1.0391-0.58594 1.1523-0.74219 1.5391-0.69531 1.418-0.79688 1.0859-0.29688 1.1602-0.35156 1.4688-0.375 1.4531-1.1602 0.82422-1.5625 0.72266-0.60547 1.6719-0.38672 1.2305-1.0703 0.98438-0.66016 0.90625 0.64453 1.6133 0.28906 1.2656-0.77344 1.2031-0.9375 0.77734-0.52344 1.0547-1.0391-0.32031 0.19922-2.2422-2.1992-2.4766-0.72656-0.82422-1.2148-0.83203-1.6172-0.47656-2.0938-0.57422-1.6055-0.42969-1.0195-0.27344-1.2852 0.046875-1.3008 0.12891-1.8633-0.17578-1.3672-0.68359-1.3789-0.28516-1.5273-0.25391-1.2695-0.070312-2.6094-0.10156-1.1602-0.16016-1.375-0.25781-1.1875-0.37891-0.97656-0.39844-0.55469-0.83984-0.79297-0.99219-0.75391-0.75-0.91016-0.44531-1.2422-0.09375-0.23438-1.2578-0.19141-1.1133-0.84375-0.70312-0.88672-0.58203 0.75-0.91797 0.66016-0.86328 0.59375-0.87109 0.83984-0.95703 1.3086-1.168 0.95703-0.48828 0.98438-0.85547 1.2617-1.1641 0.38672-1.082 0.82031-3.0469 0.28125-1.1992 1.3164-1.2578 0.46484-1.0156 0.32812-0.97656-0.28906-1.9922 0.078125-1.3789 0.30859-1.207-0.058593-1 0.51562-1.2734 0.56641-1.0703 0.83594-0.60938 1.207-0.47266 0.97656-0.55078 0.97266-0.61719 0.76953-0.81641 1.0781-0.27734 1.3867 0.33594 1.2734 0.125 1.3047 0.11719 1.082-0.14453 1.1641-0.11328 1.2031 0.33203 1.1133-0.082031 1.1094-0.27344 0.90625-0.58984 0.84375-0.90234 1.0508-0.17578 0.83984-0.64062 0.67969-0.95703 0.50781-1.1211 0.33203-1.1328-0.44922-1.3438 0.39062-0.95703 0.94531-0.46484 0.70312-0.79688 0.32422-0.98047 0.87109-0.97656 1.0039-0.40625-0.60547-0.97266-0.43359-0.92578-0.29297-1.0156-1.0625-0.44531-0.5625-0.91016-0.61328-0.91406-0.98047-0.44141-0.94531-0.53906-0.51953-1.0312 0.60938-0.89062 0.10547-1.0234 0.15625-1.0859-0.38281-1.0117-0.023437-1.1328 0.30078-1.0977 0.82812-1.2227-0.71484-2.3906-0.68359-2.4844 0.28125-1.6289 0.26953-1.4141-0.34375-1.7031-0.40625-2.0469-0.89844-1.7773-0.83203-1.5156-0.027344-1.7891 0.92578-0.96875 1.125-0.33984 1.5859-0.83984 1.8438-0.76953 0.98047-0.55078 1.1719-0.55469 1.2188-0.13672 0.96484-0.58984 0.77344-0.86328 0.83594-0.70703 0.67578-0.86328 0.71094-0.87891 0.11328-1 0.57422-0.98047 0.24219-1.0469 0.86719-0.64844 0.71875-0.76562 0.12891-1.3047 0.011718-1.1953 0.23828-1.1016 0.40625-1.0273-0.035157-1.0547 0.35156-1.0039 0.050781-1.0508 0.48438-1.0312 0.28516-0.98047 0.1875-0.98438 1-0.34766 0.76562 1.2461 0.60547-0.89062 0.69141-0.82031 0.32031-0.96094 0.72656-0.80078 0.89844-0.81641 0.88672-0.56641 1.1914 0.20312 1.0156-0.18359 1.1641 0.003906 1.0664-0.042969 1.1836 0.44141 1.0625 0.83203 1.0898-0.36328 0.91406-0.80859 0.94531-0.65625 1.0469-0.6875 0.55469-1.1641 1.2227-0.023437 0.97266-0.55859 0.79688-0.86719 0.32422-1.0117 0.46484-1.0312 0.10547-1.1836 0.17969-1.1602-0.29297-1.0469 0.19531-1.4805 0.003906-1.625 0.29297-0.98047 1.2266-1.0234 1.0117-0.11719 1.0547-0.49609 0.71094-1.1953 0.48828-0.94141-0.50391-1.0742-0.61328-1.0703 0.011718-1.0234 1.1133-0.35938 1.1992 0.066406 0.35156-1.1367-0.96484-1.2305-0.65625-0.92578 0.30469-1.9336 0.51172-0.90625-0.007812-1.3398 0.91406-0.42188 1.1289 0.21484 0.96094-0.32031 0.88281-0.78906 0.5-1.1992 0.67188-1.1719 1.0195-0.89453 0.91406-0.58984-0.5-0.90234-0.81641-0.89453-1.0469-0.32812-0.72266-0.75781-0.71484-0.80078-0.86719-0.55469-1.1016-0.03125-1.0039-0.58594-0.9375-0.38281-0.65625-0.76562-0.93359-0.49219-1.1367-0.78516-0.70312-0.91016-0.83594-1.3398-0.078125-1.2695 1.2383-0.62109 1.5781-0.36719 1.0781 0.14844h1.4922l0.11719-1.0391 0.13281-1.3906 0.62891-0.875 0.65234-1.0938 0.58984-0.96484 0.98828-0.35938 0.91797-0.47656 1.125 0.29688 1 0.39453 1.0547-0.097656 0.97656-0.66406 0.92578-0.39062 0.76562-0.76562 0.91406-0.42188 0.96875-0.73438 0.70703-0.83984 0.55469-1.3555 0.57422-0.82422 0.12109-1.0391-0.22266-1.0273-0.26562-1.1797 0.22266-1.0898 0.20703-1.082 0.28906-1.5586 0.035156-1.207-0.33203-1.1875-0.019531-1.0508 0.42578-1.0117-0.039062-1.0312-0.30859-0.97266 0.61328-0.81641 0.71875-0.77344 1.0273-0.125 0.89844 0.66016 0.96484 0.51562 0.84766 0.61328 1.0742 0.10938 1.1836 0.10547 1.0234 0.14062 0.94531-0.38672 0.80469-0.75 0.86719-0.52344 0.67188-0.79297 0.98047-0.94922 0.86328-0.62109 0.17969-1.0078 0.31641-1 0.77344-0.79688 0.70703-0.78516 0.007813-1.0273-0.40625-0.94922 0.53125-0.88672 0.3125-0.98828-0.28906-1.0977 0.57031 0.90234 0.99609-0.089844 0.92578-0.48438 0.35938 0.94922 1.1562 0.18359 1.0469-0.25391 0.94531-0.54688 1.0547-0.20312 1.0703-0.21484 1.0039 0.43359 1.0156 0.37891 0.93359-0.36328-0.28516-1.0117 0.68359-0.77344 1.0938 0.18359 0.99609 0.10547 0.94922-0.35938 0.45703-0.90234 1.0273-0.26562 1-0.34766 1.0898 0.058594 1.0195-0.21484 1.0078-0.10938 0.89844 0.45312 1.0234-0.070312 0.67578 0.74609 0.99609-0.30859 0.21875 1.0039 1.0195-0.019531 0.13672-1.0273 0.53906-0.875 0.33594 0.99219 0.71094-0.84375 1.0273 0.32812 1.0469 0.27734 0.37109 1.1094 0.82812 0.61719 0.95703 0.60938 0.91016 0.44531 1.1094 0.21875 0.57812-1.0195 0.9375 0.55078-0.12109 1.1055 0.94922 0.51953 0.91797 0.54688 0.77734 0.78125 0.57812 0.90625 1.082 0.17969 0.79688 0.67969 1.1172 0.11719 0.95703 0.75 0.5 0.875-0.41016 1.0273-0.70703 0.73047 0.50781 0.99609 0.53906 1.0781 0.62891 0.86719 1.0469-0.14062 1.1758-0.30859 0.73047-0.76562 0.45703-0.94922-0.10156-1.0781 0.64062-0.90625 1.0664 0.078125 1.1094-0.070312-0.21094 1.1289-0.14844 1.0273 0.72656 0.80859-0.078125 1.1055 0.55859 0.87891 0.90625 0.48047 1.1055-0.19141 1.0977-0.25781 0.78125 0.72656 1.1367-0.16797 0.33594-0.98047-0.91406-0.94531-0.96875-0.91016-0.87891-0.77734-1.0664-1.0156-0.83984-0.67969-0.98438-0.62891-0.77734-0.66016-1.0273-0.55078-1.2383-0.59766-1.3555-0.28125-0.44922-1.0273-0.71875-0.69531-0.92578-0.71094-0.95703-0.64844-1.1367-0.51172-0.84766-0.85938-0.86719-0.55859-0.9375-0.53906-0.89844-0.49609-1.0352-0.53906-1.2461-0.33984-0.94922 0.57812-0.85938-0.75781-0.57812-0.86719-0.99609-0.62891-0.91406-0.50391-1-0.28906-1.1055-0.55078-0.96875-0.38672-1.2188-0.37109-1.125-0.38672-1.1875-0.42969-1.2266-0.48047-0.99609-0.35938-1.3242-0.34375-1.2461-0.32812-1.207-0.050781-1.1875-0.31641-1.3086-0.19922-1.0156-0.050781-1.168-0.19922-1.125 0.097656-1.0195-0.078125-1.3945 0.019532-1.2734-0.085938-1.2188 0.027344-1.4922-0.41406-1.3008-0.082031-1.1641 0.082031-1.0508-0.19141h-1.5781l-0.88672-0.67969 1.3711-0.13281z" fill="#ccc" fill-rule="evenodd"/>
<path d="m238.61 0.0039062 1.2031 0.089844 1.3477 0.066406h2.4648l1.3242 0.17188 1.4688 0.0625 1.5664 0.15625 1.3789 0.10156 1.6719 0.33984 1.082 0.007812 2.5273 0.14062 1.4102 0.47656 1.0859 0.19531 1.3281 0.40625 1.6523 0.46094 2.4336 0.77734 1.1836 0.36328 1.2969 0.53516 0.96094 0.3125 1.1211 0.55078 1.2422 0.47266 1.1914 0.53125 1.2148 0.57031 2.0156 0.90625 1.4336 0.625 0.91406 0.48438 0.95312 0.44531 1.6016 0.86328 1.1562 0.93359 1.0664 0.69922 0.93359 0.55859 1 0.58594 1.0938 0.41016 1.0781 0.53125 1.4297 0.30078 1.0508-0.015625h1.4219l1.0234 0.015625 1.3125-0.019531 1.2227-0.28125 1.0664-0.38281 1.0273-0.41797 1.0078 0.28906 1.0664 0.49609 0.73047 0.75391 0.75 0.67969 0.40234 0.94141-1.8398 1.6836-0.40625 1.0977 0.31641 1.0742 0.5 0.95312 0.078125 1.0859-0.36328 1.4688-0.85156 1.3242-0.97656 0.88281-1.3203 0.5-1.3203-0.1875-1.4414-0.99609-1.1641 0.11719 0.078125 1.0195 0.32031 1.0898-0.37891 1.1367-0.86719 0.51953-1.4648-0.21094-1.0977-0.19922-1.168 0.32422-0.99219 0.24609-1.1172-0.03125-1.0625 0.15625-0.86328 0.5625-0.19531 1.3125-0.51562 1.0508-1.0352 0.085938-1.1523 0.39844-0.98438 0.75391-1.6875 0.72266-1.2773 0.92969-1.0898 0.45312-1.2188 0.125-1.1094 0.11328-1.0469 0.87109-0.089844 1.5156-0.16016 1.1328-0.85547 1.0781-1.1055 0.33594-1.0156 0.38281-1.1172 0.71875-0.99219 0.59766-0.80078 1.0898-0.33984 0.95312 0.019531 1.1914-1.125 1.3086-1.1211-0.085938-0.58984-0.98047-0.09375-1.6797-0.82812-0.58203-1.0352 0.16016-0.71484 0.71875-0.46484 1.1367-0.66016 1.3164-1.0156 0.94531-1.082 0.49609-1.0898 0.15234-1.0312-0.039062-1.1562 0.32812-2.2617 1.7422-1.2227 1.2422-0.85938 1.0938-0.70312 1.4258-0.62109 1.582-1.1055 0.35938-1.5859 0.10156-1.3398 0.0625-1.0586 0.10938 0.38281 1.1133 0.82031 0.80859 1.8164 1.0703 0.70703 0.74609 1.2852 0.97656 0.85547 0.57422 0.88281 1.0156 0.69922 0.75781 0.79688 1.0273 0.63672 0.95312-0.082031 1.1562 0.007812 1.0195 1.3281-0.17969 1.0625-0.023437 4.6445 3.7969 1.4219 1.2617 0.90234 0.80078 5.6094 4.9727 0.80469 0.71094 0.64453 1.5 0.53125 1.1953-1.0547 0.11328-1.0273-0.18359-1.0664 0.1875-0.9375 0.42188-0.94922 0.64844-0.77344 1.0391-1.082 0.75781-1.207 0.15234-1.2383-0.30469-1.625-1.0547-1.0664-1.0039-0.73828-0.68359-1.0547-0.52344-0.96875 0.66797-0.58984 1.0625 0.085937 1.125-0.20703 1.0547-0.042969 1.0273-0.21875 1.0312-0.29688 1.0469-0.46484 0.88672-0.67969 1.0508-0.070313 1.1445 0.39844 1.0273-0.007813 1.3203-0.18359 1.0117-0.3125 1.0273-0.17188 1.0234-0.42188 1.2344-0.99609 1.3945-0.25781 1.043-0.078125 1.0156 0.25391 1.043 0.10938 1.0703-0.48828 1.4883 0.10547 2.2305 0.34766 1.0117 1.3867 1.125 0.13281 1.2539-0.47266 1.4531-0.98438 0.57812-0.0625 1.3867-0.3125 1.2539-0.19141 1.7578 0.023438 1.1523-0.91797 1.5977-0.94531 1.4531-0.17188 1.2031-0.80859 1.2656-0.73047 0.84766-1.3125 0.039062-1.4648-0.046875-0.96094 0.45312-0.76562 1.2852 0.20703 1.168-1.1758 0.72656-1.1953-0.11328-1.2539 0.039063-0.61328 0.85156-1.0234 0.35938-1.1055-0.13672-1.7578-0.089844-0.84375-0.86328-1 0.39453-1.0508 0.62891-0.82422 0.67969-0.34375 0.98047-0.86328 0.71875-0.98828 0.375-0.92578 0.56641-0.38281-0.94531-0.93359 0.71484-1.0781 0.82812-0.64844 0.80469-0.34766 1.0117-0.35938 1.1055 0.76562 1.3906 0.078125 1.0352 0.30859 1.0859 0.65234 1.1758 0.34766 1.3906-1.6172-0.14844-1.3047-0.69922-0.97266-0.63672-0.90625-0.83203-1.1797 0.15625-0.84375 0.75781-0.78125 0.80469-0.50781 0.96094-0.63672 1.4375-0.26953 1.0859 0.023437 1.0117 0.75781 0.82812 0.48438 0.89844 0.51172 0.96875 0.85547 0.74219 0.32422 1.4375-0.015625 1.0039-0.86328 0.62109-0.97266 0.46094-0.96094 0.99609-0.6875 0.84766-0.55859 0.84375-0.61719 0.79688-0.92578-0.5-0.98828 0.16406-0.28516 0.99219 0.71094 1.0156 0.12109 1.2031 0.03125 1.0977 0.4375 0.96484 0.64453 0.88281 0.83594 0.62891 0.83203 0.59766 0.37891 0.98438 0.61719 0.98438 0.70312 0.95703 0.85156 0.81641 0.13672 1.3906-0.15234 1.5352 0.027344 1.1836-0.42969 1.2031-0.55078 0.85938-1.0547 0.55859-0.97266 0.80469-1.3047 0.66406-0.81641 0.62109-0.64844 0.97656-0.66016 1.0898-0.28516 1.0469-0.34375 1.043-0.53125 1.0234-0.35938 1.1406-1.0117 0.58984-1-0.089844-1.0234 0.57422-1.2734 0.58984-1.1992 0.41016-1.1602 0.50781-1.1172 0.59375-1.0117 0.46484-1.0156-0.17578-1.043 0.85156-1.4492 0.29688-1.25-0.070313-1.1328 0.25-0.91406 0.57031-1.1758 0.0625-1.1445 0.16797-1.2969 0.34766-1.2852-0.10938-0.96875-0.41016-0.875-0.54297-1.4883-1.8516-0.72266-1.4258-1.4258 0.51172-0.39453 1.0391-0.58594 1.1523-0.74219 1.5391-0.69531 1.418-0.79688 1.0859-0.29688 1.1602-0.35156 1.4688-0.375 1.4531-1.1602 0.82422-1.5625 0.72266-0.60547 1.6719-0.38672 1.2305-1.0703 0.98438-0.66016 0.90625 0.64453 1.6133 0.28906 1.2656-0.77344 1.2031-0.9375 0.77734-0.52344 1.0547-1.0391-0.32031 0.19922-2.2422-2.1992-2.4766-0.72656-0.82422-1.2148-0.83203-1.6172-0.47656-2.0938-0.57422-1.6055-0.42969-1.0195-0.27344-1.2852 0.046875-1.3008 0.12891-1.8633-0.17578-1.3672-0.68359-1.3789-0.28516-1.5273-0.25391-1.2695-0.070312-2.6094-0.10156-1.1602-0.16016-1.375-0.25781-1.1875-0.37891-0.97656-0.39844-0.55469-0.83984-0.79297-0.99219-0.75391-0.75-0.91016-0.44531-1.2422-0.09375-0.23438-1.2578-0.19141-1.1133-0.84375-0.70312-0.88672-0.58203 0.75-0.91797 0.66016-0.86328 0.59375-0.87109 0.83984-0.95703 1.3086-1.168 0.95703-0.48828 0.98438-0.85547 1.2617-1.1641 0.38672-1.082 0.82031-3.0469 0.28125-1.1992 1.3164-1.2578 0.46484-1.0156 0.32812-0.97656-0.28906-1.9922 0.078125-1.3789 0.30859-1.207-0.058593-1 0.51562-1.2734 0.56641-1.0703 0.83594-0.60938 1.207-0.47266 0.97656-0.55078 0.97266-0.61719 0.76953-0.81641 1.0781-0.27734 1.3867 0.33594 1.2734 0.125 1.3047 0.11719 1.082-0.14453 1.1641-0.11328 1.2031 0.33203 1.1133-0.082031 1.1094-0.27344 0.90625-0.58984 0.84375-0.90234 1.0508-0.17578 0.83984-0.64062 0.67969-0.95703 0.50781-1.1211 0.33203-1.1328-0.44922-1.3438 0.39062-0.95703 0.94531-0.46484 0.70312-0.79688 0.32422-0.98047 0.87109-0.97656 1.0039-0.40625-0.60547-0.97266-0.43359-0.92578-0.29297-1.0156-1.0625-0.44531-0.5625-0.91016-0.61328-0.91406-0.98047-0.44141-0.94531-0.53906-0.51953-1.0312 0.60938-0.89062 0.10547-1.0234 0.15625-1.0859-0.38281-1.0117-0.023437-1.1328 0.30078-1.0977 0.82812-1.2227-0.71484-2.3906-0.68359-2.4844 0.28125-1.6289 0.26953-1.4141-0.34375-1.7031-0.40625-2.0469-0.89844-1.7773-0.83203-1.5156-0.027344-1.7891 0.92578-0.96875 1.125-0.33984 1.5859-0.83984 1.8438-0.76953 0.98047-0.55078 1.1719-0.55469 1.2188-0.13672 0.96484-0.58984 0.77344-0.86328 0.83594-0.70703 0.67578-0.86328 0.71094-0.87891 0.11328-1 0.57422-0.98047 0.24219-1.0469 0.86719-0.64844 0.71875-0.76562 0.12891-1.3047 0.011718-1.1953 0.23828-1.1016 0.40625-1.0273-0.035157-1.0547 0.35156-1.0039 0.050781-1.0508 0.48438-1.0312 0.28516-0.98047 0.1875-0.98438 1-0.34766 0.76562 1.2461 0.60547-0.89062 0.69141-0.82031 0.32031-0.96094 0.72656-0.80078 0.89844-0.81641 0.88672-0.56641 1.1914 0.20312 1.0156-0.18359 1.1641 0.003906 1.0664-0.042969 1.1836 0.44141 1.0625 0.83203 1.0898-0.36328 0.91406-0.80859 0.94531-0.65625 1.0469-0.6875 0.55469-1.1641 1.2227-0.023437 0.97266-0.55859 0.79688-0.86719 0.32422-1.0117 0.46484-1.0312 0.10547-1.1836 0.17969-1.1602-0.29297-1.0469 0.19531-1.4805 0.003906-1.625 0.29297-0.98047 1.2266-1.0234 1.0117-0.11719 1.0547-0.49609 0.71094-1.1953 0.48828-0.94141-0.50391-1.0742-0.61328-1.0703 0.011718-1.0234 1.1133-0.35938 1.1992 0.066406 0.35156-1.1367-0.96484-1.2305-0.65625-0.92578 0.30469-1.9336 0.51172-0.90625-0.007812-1.3398 0.91406-0.42188 1.1289 0.21484 0.96094-0.32031 0.88281-0.78906 0.5-1.1992 0.67188-1.1719 1.0195-0.89453 0.91406-0.58984-0.5-0.90234-0.81641-0.89453-1.0469-0.32812-0.72266-0.75781-0.71484-0.80078-0.86719-0.55469-1.1016-0.03125-1.0039-0.58594-0.9375-0.38281-0.65625-0.76562-0.93359-0.49219-1.1367-0.78516-0.70312-0.91016-0.83594-1.3398-0.078125-1.2695 1.2383-0.62109 1.5781-0.36719 1.0781 0.14844h1.4922l0.11719-1.0391 0.13281-1.3906 0.62891-0.875 0.65234-1.0938 0.58984-0.96484 0.98828-0.35938 0.91797-0.47656 1.125 0.29688 1 0.39453 1.0547-0.097656 0.97656-0.66406 0.92578-0.39062 0.76562-0.76562 0.91406-0.42188 0.96875-0.73438 0.70703-0.83984 0.55469-1.3555 0.57422-0.82422 0.12109-1.0391-0.22266-1.0273-0.26562-1.1797 0.22266-1.0898 0.20703-1.082 0.28906-1.5586 0.035156-1.207-0.33203-1.1875-0.019531-1.0508 0.42578-1.0117-0.039062-1.0312-0.30859-0.97266 0.61328-0.81641 0.71875-0.77344 1.0273-0.125 0.89844 0.66016 0.96484 0.51562 0.84766 0.61328 1.0742 0.10938 1.1836 0.10547 1.0234 0.14062 0.94531-0.38672 0.80469-0.75 0.86719-0.52344 0.67188-0.79297 0.98047-0.94922 0.86328-0.62109 0.17969-1.0078 0.31641-1 0.77344-0.79688 0.70703-0.78516 0.007813-1.0273-0.40625-0.94922 0.53125-0.88672 0.3125-0.98828-0.28906-1.0977 0.57031 0.90234 0.99609-0.089844 0.92578-0.48438 0.35938 0.94922 1.1562 0.18359 1.0469-0.25391 0.94531-0.54688 1.0547-0.20312 1.0703-0.21484 1.0039 0.43359 1.0156 0.37891 0.93359-0.36328-0.28516-1.0117 0.68359-0.77344 1.0938 0.18359 0.99609 0.10547 0.94922-0.35938 0.45703-0.90234 1.0273-0.26562 1-0.34766 1.0898 0.058594 1.0195-0.21484 1.0078-0.10938 0.89844 0.45312 1.0234-0.070312 0.67578 0.74609 0.99609-0.30859 0.21875 1.0039 1.0195-0.019531 0.13672-1.0273 0.53906-0.875 0.33594 0.99219 0.71094-0.84375 1.0273 0.32812 1.0469 0.27734 0.37109 1.1094 0.82812 0.61719 0.95703 0.60938 0.91016 0.44531 1.1094 0.21875 0.57812-1.0195 0.9375 0.55078-0.12109 1.1055 0.94922 0.51953 0.91797 0.54688 0.77734 0.78125 0.57812 0.90625 1.082 0.17969 0.79688 0.67969 1.1172 0.11719 0.95703 0.75 0.5 0.875-0.41016 1.0273-0.70703 0.73047 0.50781 0.99609 0.53906 1.0781 0.62891 0.86719 1.0469-0.14062 1.1758-0.30859 0.73047-0.76562 0.45703-0.94922-0.10156-1.0781 0.64062-0.90625 1.0664 0.078125 1.1094-0.070312-0.21094 1.1289-0.14844 1.0273 0.72656 0.80859-0.078125 1.1055 0.55859 0.87891 0.90625 0.48047 1.1055-0.19141 1.0977-0.25781 0.78125 0.72656 1.1367-0.16797 0.33594-0.98047-0.91406-0.94531-0.96875-0.91016-0.87891-0.77734-1.0664-1.0156-0.83984-0.67969-0.98438-0.62891-0.77734-0.66016-1.0273-0.55078-1.2383-0.59766-1.3555-0.28125-0.44922-1.0273-0.71875-0.69531-0.92578-0.71094-0.95703-0.64844-1.1367-0.51172-0.84766-0.85938-0.86719-0.55859-0.9375-0.53906-0.89844-0.49609-1.0352-0.53906-1.2461-0.33984-0.94922 0.57812-0.85938-0.75781-0.57812-0.86719-0.99609-0.62891-0.91406-0.50391-1-0.28906-1.1055-0.55078-0.96875-0.38672-1.2188-0.37109-1.125-0.38672-1.1875-0.42969-1.2266-0.48047-0.99609-0.35938-1.3242-0.34375-1.2461-0.32812-1.207-0.050781-1.1875-0.31641-1.3086-0.19922-1.0156-0.050781-1.168-0.19922-1.125 0.097656-1.0195-0.078125-1.3945 0.019532-1.2734-0.085938-1.2188 0.027344-1.4922-0.41406-1.3008-0.082031-1.1641 0.082031-1.0508-0.19141h-1.5781l-0.88672-0.67969 1.3711-0.13281 0.32812 0.0039062" fill="none" stroke="#fff" stroke-linecap="round" stroke-linejoin="round" stroke-miterlimit="10" stroke-width="2"/>
<path d="m238.61 0.0039062 1.2031 0.089844 1.3477 0.066406h2.4648l1.3242 0.17188 1.4688 0.0625 1.5664 0.15625 1.3789 0.10156 1.6719 0.33984 1.082 0.007812 2.5273 0.14062 1.4102 0.47656 1.0859 0.19531 1.3281 0.40625 1.6523 0.46094 2.4336 0.77734 1.1836 0.36328 1.2969 0.53516 0.96094 0.3125 1.1211 0.55078 1.2422 0.47266 1.1914 0.53125 1.2148 0.57031 2.0156 0.90625 1.4336 0.625 0.91406 0.48438 0.95312 0.44531 1.6016 0.86328 1.1562 0.93359 1.0664 0.69922 0.93359 0.55859 1 0.58594 1.0938 0.41016 1.0781 0.53125 1.4297 0.30078 1.0508-0.015625h1.4219l1.0234 0.015625 1.3125-0.019531 1.2227-0.28125 1.0664-0.38281 1.0273-0.41797 1.0078 0.28906 1.0664 0.49609 0.73047 0.75391 0.75 0.67969 0.40234 0.94141-1.8398 1.6836-0.40625 1.0977 0.31641 1.0742 0.5 0.95312 0.078125 1.0859-0.36328 1.4688-0.85156 1.3242-0.97656 0.88281-1.3203 0.5-1.3203-0.1875-1.4414-0.99609-1.1641 0.11719 0.078125 1.0195 0.32031 1.0898-0.37891 1.1367-0.86719 0.51953-1.4648-0.21094-1.0977-0.19922-1.168 0.32422-0.99219 0.24609-1.1172-0.03125-1.0625 0.15625-0.86328 0.5625-0.19531 1.3125-0.51562 1.0508-1.0352 0.085938-1.1523 0.39844-0.98438 0.75391-1.6875 0.72266-1.2773 0.92969-1.0898 0.45312-1.2188 0.125-1.1094 0.11328-1.0469 0.87109-0.089844 1.5156-0.16016 1.1328-0.85547 1.0781-1.1055 0.33594-1.0156 0.38281-1.1172 0.71875-0.99219 0.59766-0.80078 1.0898-0.33984 0.95312 0.019531 1.1914-1.125 1.3086-1.1211-0.085938-0.58984-0.98047-0.09375-1.6797-0.82812-0.58203-1.0352 0.16016-0.71484 0.71875-0.46484 1.1367-0.66016 1.3164-1.0156 0.94531-1.082 0.49609-1.0898 0.15234-1.0312-0.039062-1.1562 0.32812-2.2617 1.7422-1.2227 1.2422-0.85938 1.0938-0.70312 1.4258-0.62109 1.582-1.1055 0.35938-1.5859 0.10156-1.3398 0.0625-1.0586 0.10938 0.38281 1.1133 0.82031 0.80859 1.8164 1.0703 0.70703 0.74609 1.2852 0.97656 0.85547 0.57422 0.88281 1.0156 0.69922 0.75781 0.79688 1.0273 0.63672 0.95312-0.082031 1.1562 0.007812 1.0195 1.3281-0.17969 1.0625-0.023437 4.6445 3.7969 1.4219 1.2617 0.90234 0.80078 5.6094 4.9727 0.80469 0.71094 0.64453 1.5 0.53125 1.1953-1.0547 0.11328-1.0273-0.18359-1.0664 0.1875-0.9375 0.42188-0.94922 0.64844-0.77344 1.0391-1.082 0.75781-1.207 0.15234-1.2383-0.30469-1.625-1.0547-1.0664-1.0039-0.73828-0.68359-1.0547-0.52344-0.96875 0.66797-0.58984 1.0625 0.085937 1.125-0.20703 1.0547-0.042969 1.0273-0.21875 1.0312-0.29688 1.0469-0.46484 0.88672-0.67969 1.0508-0.070313 1.1445 0.39844 1.0273-0.007813 1.3203-0.18359 1.0117-0.3125 1.0273-0.17188 1.0234-0.42188 1.2344-0.99609 1.3945-0.25781 1.043-0.078125 1.0156 0.25391 1.043 0.10938 1.0703-0.48828 1.4883 0.10547 2.2305 0.34766 1.0117 1.3867 1.125 0.13281 1.2539-0.47266 1.4531-0.98438 0.57812-0.0625 1.3867-0.3125 1.2539-0.19141 1.7578 0.023438 1.1523-0.91797 1.5977-0.94531 1.4531-0.17188 1.2031-0.80859 1.2656-0.73047 0.84766-1.3125 0.039062-1.4648-0.046875-0.96094 0.45312-0.76562 1.2852 0.20703 1.168-1.1758 0.72656-1.1953-0.11328-1.2539 0.039063-0.61328 0.85156-1.0234 0.35938-1.1055-0.13672-1.7578-0.089844-0.84375-0.86328-1 0.39453-1.0508 0.62891-0.82422 0.67969-0.34375 0.98047-0.86328 0.71875-0.98828 0.375-0.92578 0.56641-0.38281-0.94531-0.93359 0.71484-1.0781 0.82812-0.64844 0.80469-0.34766 1.0117-0.35938 1.1055 0.76562 1.3906 0.078125 1.0352 0.30859 1.0859 0.65234 1.1758 0.34766 1.3906-1.6172-0.14844-1.3047-0.69922-0.97266-0.63672-0.90625-0.83203-1.1797 0.15625-0.84375 0.75781-0.78125 0.80469-0.50781 0.96094-0.63672 1.4375-0.26953 1.0859 0.023437 1.0117 0.75781 0.82812 0.48438 0.89844 0.51172 0.96875 0.85547 0.74219 0.32422 1.4375-0.015625 1.0039-0.86328 0.62109-0.97266 0.46094-0.96094 0.99609-0.6875 0.84766-0.55859 0.84375-0.61719 0.79688-0.92578-0.5-0.98828 0.16406-0.28516 0.99219 0.71094 1.0156 0.12109 1.2031 0.03125 1.0977 0.4375 0.96484 0.64453 0.88281 0.83594 0.62891 0.83203 0.59766 0.37891 0.98438 0.61719 0.98438 0.70312 0.95703 0.85156 0.81641 0.13672 1.3906-0.15234 1.5352 0.027344 1.1836-0.42969 1.2031-0.55078 0.85938-1.0547 0.55859-0.97266 0.80469-1.3047 0.66406-0.81641 0.62109-0.64844 0.97656-0.66016 1.0898-0.28516 1.0469-0.34375 1.043-0.53125 1.0234-0.35938 1.1406-1.0117 0.58984-1-0.089844-1.0234 0.57422-1.2734 0.58984-1.1992 0.41016-1.1602 0.50781-1.1172 0.59375-1.0117 0.46484-1.0156-0.17578-1.043 0.85156-1.4492 0.29688-1.25-0.070313-1.1328 0.25-0.91406 0.57031-1.1758 0.0625-1.1445 0.16797-1.2969 0.34766-1.2852-0.10938-0.96875-0.41016-0.875-0.54297-1.4883-1.8516-0.72266-1.4258-1.4258 0.51172-0.39453 1.0391-0.58594 1.1523-0.74219 1.5391-0.69531 1.418-0.79688 1.0859-0.29688 1.1602-0.35156 1.4688-0.375 1.4531-1.1602 0.82422-1.5625 0.72266-0.60547 1.6719-0.38672 1.2305-1.0703 0.98438-0.66016 0.90625 0.64453 1.6133 0.28906 1.2656-0.77344 1.2031-0.9375 0.77734-0.52344 1.0547-1.0391-0.32031 0.19922-2.2422-2.1992-2.4766-0.72656-0.82422-1.2148-0.83203-1.6172-0.47656-2.0938-0.57422-1.6055-0.42969-1.0195-0.27344-1.2852 0.046875-1.3008 0.12891-1.8633-0.17578-1.3672-0.68359-1.3789-0.28516-1.5273-0.25391-1.2695-0.070312-2.6094-0.10156-1.1602-0.16016-1.375-0.25781-1.1875-0.37891-0.97656-0.39844-0.55469-0.83984-0.79297-0.99219-0.75391-0.75-0.91016-0.44531-1.2422-0.09375-0.23438-1.2578-0.19141-1.1133-0.84375-0.70312-0.88672-0.58203 0.75-0.91797 0.66016-0.86328 0.59375-0.87109 0.83984-0.95703 1.3086-1.168 0.95703-0.48828 0.98438-0.85547 1.2617-1.1641 0.38672-1.082 0.82031-3.0469 0.28125-1.1992 1.3164-1.2578 0.46484-1.0156 0.32812-0.97656-0.28906-1.9922 0.078125-1.3789 0.30859-1.207-0.058593-1 0.51562-1.2734 0.56641-1.0703 0.83594-0.60938 1.207-0.47266 0.97656-0.55078 0.97266-0.61719 0.76953-0.81641 1.0781-0.27734 1.3867 0.33594 1.2734 0.125 1.3047 0.11719 1.082-0.14453 1.1641-0.11328 1.2031 0.33203 1.1133-0.082031 1.1094-0.27344 0.90625-0.58984 0.84375-0.90234 1.0508-0.17578 0.83984-0.64062 0.67969-0.95703 0.50781-1.1211 0.33203-1.1328-0.44922-1.3438 0.39062-0.95703 0.94531-0.46484 0.70312-0.79688 0.32422-0.98047 0.87109-0.97656 1.0039-0.40625-0.60547-0.97266-0.43359-0.92578-0.29297-1.0156-1.0625-0.44531-0.5625-0.91016-0.61328-0.91406-0.98047-0.44141-0.94531-0.53906-0.51953-1.0312 0.60938-0.89062 0.10547-1.0234 0.15625-1.0859-0.38281-1.0117-0.023437-1.1328 0.30078-1.0977 0.82812-1.2227-0.71484-2.3906-0.68359-2.4844 0.28125-1.6289 0.26953-1.4141-0.34375-1.7031-0.40625-2.0469-0.89844-1.7773-0.83203-1.5156-0.027344-1.7891 0.92578-0.96875 1.125-0.33984 1.5859-0.83984 1.8438-0.76953 0.98047-0.55078 1.1719-0.55469 1.2188-0.13672 0.96484-0.58984 0.77344-0.86328 0.83594-0.70703 0.67578-0.86328 0.71094-0.87891 0.11328-1 0.57422-0.98047 0.24219-1.0469 0.86719-0.64844 0.71875-0.76562 0.12891-1.3047 0.011718-1.1953 0.23828-1.1016 0.40625-1.0273-0.035157-1.0547 0.35156-1.0039 0.050781-1.0508 0.48438-1.0312 0.28516-0.98047 0.1875-0.98438 1-0.34766 0.76562 1.2461 0.60547-0.89062 0.69141-0.82031 0.32031-0.96094 0.72656-0.80078 0.89844-0.81641 0.88672-0.56641 1.1914 0.20312 1.0156-0.18359 1.1641 0.003906 1.0664-0.042969 1.1836 0.44141 1.0625 0.83203 1.0898-0.36328 0.91406-0.80859 0.94531-0.65625 1.0469-0.6875 0.55469-1.1641 1.2227-0.023437 0.97266-0.55859 0.79688-0.86719 0.32422-1.0117 0.46484-1.0312 0.10547-1.1836 0.17969-1.1602-0.29297-1.0469 0.19531-1.4805 0.003906-1.625 0.29297-0.98047 1.2266-1.0234 1.0117-0.11719 1.0547-0.49609 0.71094-1.1953 0.48828-0.94141-0.50391-1.0742-0.61328-1.0703 0.011718-1.0234 1.1133-0.35938 1.1992 0.066406 0.35156-1.1367-0.96484-1.2305-0.65625-0.92578 0.30469-1.9336 0.51172-0.90625-0.007812-1.3398 0.91406-0.42188 1.1289 0.21484 0.96094-0.32031 0.88281-0.78906 0.5-1.1992 0.67188-1.1719 1.0195-0.89453 0.91406-0.58984-0.5-0.90234-0.81641-0.89453-1.0469-0.32812-0.72266-0.75781-0.71484-0.80078-0.86719-0.55469-1.1016-0.03125-1.0039-0.58594-0.9375-0.38281-0.65625-0.76562-0.93359-0.49219-1.1367-0.78516-0.70312-0.91016-0.83594-1.3398-0.078125-1.2695 1.2383-0.62109 1.5781-0.36719 1.0781 0.14844h1.4922l0.11719-1.0391 0.13281-1.3906 0.62891-0.875 0.65234-1.0938 0.58984-0.96484 0.98828-0.35938 0.91797-0.47656 1.125 0.29688 1 0.39453 1.0547-0.097656 0.97656-0.66406 0.92578-0.39062 0.76562-0.76562 0.91406-0.42188 0.96875-0.73438 0.70703-0.83984 0.55469-1.3555 0.57422-0.82422 0.12109-1.0391-0.22266-1.0273-0.26562-1.1797 0.22266-1.0898 0.20703-1.082 0.28906-1.5586 0.035156-1.207-0.33203-1.1875-0.019531-1.0508 0.42578-1.0117-0.039062-1.0312-0.30859-0.97266 0.61328-0.81641 0.71875-0.77344 1.0273-0.125 0.89844 0.66016 0.96484 0.51562 0.84766 0.61328 1.0742 0.10938 1.1836 0.10547 1.0234 0.14062 0.94531-0.38672 0.80469-0.75 0.86719-0.52344 0.67188-0.79297 0.98047-0.94922 0.86328-0.62109 0.17969-1.0078 0.31641-1 0.77344-0.79688 0.70703-0.78516 0.007813-1.0273-0.40625-0.94922 0.53125-0.88672 0.3125-0.98828-0.28906-1.0977 0.57031 0.90234 0.99609-0.089844 0.92578-0.48438 0.35938 0.94922 1.1562 0.18359 1.0469-0.25391 0.94531-0.54688 1.0547-0.20312 1.0703-0.21484 1.0039 0.43359 1.0156 0.37891 0.93359-0.36328-0.28516-1.0117 0.68359-0.77344 1.0938 0.18359 0.99609 0.10547 0.94922-0.35938 0.45703-0.90234 1.0273-0.26562 1-0.34766 1.0898 0.058594 1.0195-0.21484 1.0078-0.10938 0.89844 0.45312 1.0234-0.070312 0.67578 0.74609 0.99609-0.30859 0.21875 1.0039 1.0195-0.019531 0.13672-1.0273 0.53906-0.875 0.33594 0.99219 0.71094-0.84375 1.0273 0.32812 1.0469 0.27734 0.37109 1.1094 0.82812 0.61719 0.95703 0.60938 0.91016 0.44531 1.1094 0.21875 0.57812-1.0195 0.9375 0.55078-0.12109 1.1055 0.94922 0.51953 0.91797 0.54688 0.77734 0.78125 0.57812 0.90625 1.082 0.17969 0.79688 0.67969 1.1172 0.11719 0.95703 0.75 0.5 0.875-0.41016 1.0273-0.70703 0.73047 0.50781 0.99609 0.53906 1.0781 0.62891 0.86719 1.0469-0.14062 1.1758-0.30859 0.73047-0.76562 0.45703-0.94922-0.10156-1.0781 0.64062-0.90625 1.0664 0.078125 1.1094-0.070312-0.21094 1.1289-0.14844 1.0273 0.72656 0.80859-0.078125 1.1055 0.55859 0.87891 0.90625 0.48047 1.1055-0.19141 1.0977-0.25781 0.78125 0.72656 1.1367-0.16797 0.33594-0.98047-0.91406-0.94531-0.96875-0.91016-0.87891-0.77734-1.0664-1.0156-0.83984-0.67969-0.98438-0.62891-0.77734-0.66016-1.0273-0.55078-1.2383-0.59766-1.3555-0.28125-0.44922-1.0273-0.71875-0.69531-0.92578-0.71094-0.95703-0.64844-1.1367-0.51172-0.84766-0.85938-0.86719-0.55859-0.9375-0.53906-0.89844-0.49609-1.0352-0.53906-1.2461-0.33984-0.94922 0.57812-0.85938-0.75781-0.57812-0.86719-0.99609-0.62891-0.91406-0.50391-1-0.28906-1.1055-0.55078-0.96875-0.38672-1.2188-0.37109-1.125-0.38672-1.1875-0.42969-1.2266-0.48047-0.99609-0.35938-1.3242-0.34375-1.2461-0.32812-1.207-0.050781-1.1875-0.31641-1.3086-0.19922-1.0156-0.050781-1.168-0.19922-1.125 0.097656-1.0195-0.078125-1.3945 0.019532-1.2734-0.085938-1.2188 0.027344-1.4922-0.41406-1.3008-0.082031-1.1641 0.082031-1.0508-0.19141h-1.5781l-0.88672-0.67969 1.3711-0.13281z" fill="#0a5394" fill-rule="evenodd"/>
<path d="m238.61 0.0039062 1.2031 0.089844 1.3477 0.066406h2.4648l1.3242 0.17188 1.4688 0.0625 1.5664 0.15625 1.3789 0.10156 1.6719 0.33984 1.082 0.007812 2.5273 0.14062 1.4102 0.47656 1.0859 0.19531 1.3281 0.40625 1.6523 0.46094 2.4336 0.77734 1.1836 0.36328 1.2969 0.53516 0.96094 0.3125 1.1211 0.55078 1.2422 0.47266 1.1914 0.53125 1.2148 0.57031 2.0156 0.90625 1.4336 0.625 0.91406 0.48438 0.95312 0.44531 1.6016 0.86328 1.1562 0.93359 1.0664 0.69922 0.93359 0.55859 1 0.58594 1.0938 0.41016 1.0781 0.53125 1.4297 0.30078 1.0508-0.015625h1.4219l1.0234 0.015625 1.3125-0.019531 1.2227-0.28125 1.0664-0.38281 1.0273-0.41797 1.0078 0.28906 1.0664 0.49609 0.73047 0.75391 0.75 0.67969 0.40234 0.94141-1.8398 1.6836-0.40625 1.0977 0.31641 1.0742 0.5 0.95312 0.078125 1.0859-0.36328 1.4688-0.85156 1.3242-0.97656 0.88281-1.3203 0.5-1.3203-0.1875-1.4414-0.99609-1.1641 0.11719 0.078125 1.0195 0.32031 1.0898-0.37891 1.1367-0.86719 0.51953-1.4648-0.21094-1.0977-0.19922-1.168 0.32422-0.99219 0.24609-1.1172-0.03125-1.0625 0.15625-0.86328 0.5625-0.19531 1.3125-0.51562 1.0508-1.0352 0.085938-1.1523 0.39844-0.98438 0.75391-1.6875 0.72266-1.2773 0.92969-1.0898 0.45312-1.2188 0.125-1.1094 0.11328-1.0469 0.87109-0.089844 1.5156-0.16016 1.1328-0.85547 1.0781-1.1055 0.33594-1.0156 0.38281-1.1172 0.71875-0.99219 0.59766-0.80078 1.0898-0.33984 0.95312 0.019531 1.1914-1.125 1.3086-1.1211-0.085938-0.58984-0.98047-0.09375-1.6797-0.82812-0.58203-1.0352 0.16016-0.71484 0.71875-0.46484 1.1367-0.66016 1.3164-1.0156 0.94531-1.082 0.49609-1.0898 0.15234-1.0312-0.039062-1.1562 0.32812-2.2617 1.7422-1.2227 1.2422-0.85938 1.0938-0.70312 1.4258-0.62109 1.582-1.1055 0.35938-1.5859 0.10156-1.3398 0.0625-1.0586 0.10938 0.38281 1.1133 0.82031 0.80859 1.8164 1.0703 0.70703 0.74609 1.2852 0.97656 0.85547 0.57422 0.88281 1.0156 0.69922 0.75781 0.79688 1.0273 0.63672 0.95312-0.082031 1.1562 0.007812 1.0195 1.3281-0.17969 1.0625-0.023437 4.6445 3.7969 1.4219 1.2617 0.90234 0.80078 5.6094 4.9727 0.80469 0.71094 0.64453 1.5 0.53125 1.1953-1.0547 0.11328-1.0273-0.18359-1.0664 0.1875-0.9375 0.42188-0.94922 0.64844-0.77344 1.0391-1.082 0.75781-1.207 0.15234-1.2383-0.30469-1.625-1.0547-1.0664-1.0039-0.73828-0.68359-1.0547-0.52344-0.96875 0.66797-0.58984 1.0625 0.085937 1.125-0.20703 1.0547-0.042969 1.0273-0.21875 1.0312-0.29688 1.0469-0.46484 0.88672-0.67969 1.0508-0.070313 1.1445 0.39844 1.0273-0.007813 1.3203-0.18359 1.0117-0.3125 1.0273-0.17188 1.0234-0.42188 1.2344-0.99609 1.3945-0.25781 1.043-0.078125 1.0156 0.25391 1.043 0.10938 1.0703-0.48828 1.4883 0.10547 2.2305 0.34766 1.0117 1.3867 1.125 0.13281 1.2539-0.47266 1.4531-0.98438 0.57812-0.0625 1.3867-0.3125 1.2539-0.19141 1.7578 0.023438 1.1523-0.91797 1.5977-0.94531 1.4531-0.17188 1.2031-0.80859 1.2656-0.73047 0.84766-1.3125 0.039062-1.4648-0.046875-0.96094 0.45312-0.76562 1.2852 0.20703 1.168-1.1758 0.72656-1.1953-0.11328-1.2539 0.039063-0.61328 0.85156-1.0234 0.35938-1.1055-0.13672-1.7578-0.089844-0.84375-0.86328-1 0.39453-1.0508 0.62891-0.82422 0.67969-0.34375 0.98047-0.86328 0.71875-0.98828 0.375-0.92578 0.56641-0.38281-0.94531-0.93359 0.71484-1.0781 0.82812-0.64844 0.80469-0.34766 1.0117-0.35938 1.1055 0.76562 1.3906 0.078125 1.0352 0.30859 1.0859 0.65234 1.1758 0.34766 1.3906-1.6172-0.14844-1.3047-0.69922-0.97266-0.63672-0.90625-0.83203-1.1797 0.15625-0.84375 0.75781-0.78125 0.80469-0.50781 0.96094-0.63672 1.4375-0.26953 1.0859 0.023437 1.0117 0.75781 0.82812 0.48438 0.89844 0.51172 0.96875 0.85547 0.74219 0.32422 1.4375-0.015625 1.0039-0.86328 0.62109-0.97266 0.46094-0.96094 0.99609-0.6875 0.84766-0.55859 0.84375-0.61719 0.79688-0.92578-0.5-0.98828 0.16406-0.28516 0.99219 0.71094 1.0156 0.12109 1.2031 0.03125 1.0977 0.4375 0.96484 0.64453 0.88281 0.83594 0.62891 0.83203 0.59766 0.37891 0.98438 0.61719 0.98438 0.70312 0.95703 0.85156 0.81641 0.13672 1.3906-0.15234 1.5352 0.027344 1.1836-0.42969 1.2031-0.55078 0.85938-1.0547 0.55859-0.97266 0.80469-1.3047 0.66406-0.81641 0.62109-0.64844 0.97656-0.66016 1.0898-0.28516 1.0469-0.34375 1.043-0.53125 1.0234-0.35938 1.1406-1.0117 0.58984-1-0.089844-1.0234 0.57422-1.2734 0.58984-1.1992 0.41016-1.1602 0.50781-1.1172 0.59375-1.0117 0.46484-1.0156-0.17578-1.043 0.85156-1.4492 0.29688-1.25-0.070313-1.1328 0.25-0.91406 0.57031-1.1758 0.0625-1.1445 0.16797-1.2969 0.34766-1.2852-0.10938-0.96875-0.41016-0.875-0.54297-1.4883-1.8516-0.72266-1.4258-1.4258 0.51172-0.39453 1.0391-0.58594 1.1523-0.74219 1.5391-0.69531 1.418-0.79688 1.0859-0.29688 1.1602-0.35156 1.4688-0.375 1.4531-1.1602 0.82422-1.5625 0.72266-0.60547 1.6719-0.38672 1.2305-1.0703 0.98438-0.66016 0.90625 0.64453 1.6133 0.28906 1.2656-0.77344 1.2031-0.9375 0.77734-0.52344 1.0547-1.0391-0.32031 0.19922-2.2422-2.1992-2.4766-0.72656-0.82422-1.2148-0.83203-1.6172-0.47656-2.0938-0.57422-1.6055-0.42969-1.0195-0.27344-1.2852 0.046875-1.3008 0.12891-1.8633-0.17578-1.3672-0.68359-1.3789-0.28516-1.5273-0.25391-1.2695-0.070312-2.6094-0.10156-1.1602-0.16016-1.375-0.25781-1.1875-0.37891-0.97656-0.39844-0.55469-0.83984-0.79297-0.99219-0.75391-0.75-0.91016-0.44531-1.2422-0.09375-0.23438-1.2578-0.19141-1.1133-0.84375-0.70312-0.88672-0.58203 0.75-0.91797 0.66016-0.86328 0.59375-0.87109 0.83984-0.95703 1.3086-1.168 0.95703-0.48828 0.98438-0.85547 1.2617-1.1641 0.38672-1.082 0.82031-3.0469 0.28125-1.1992 1.3164-1.2578 0.46484-1.0156 0.32812-0.97656-0.28906-1.9922 0.078125-1.3789 0.30859-1.207-0.058593-1 0.51562-1.2734 0.56641-1.0703 0.83594-0.60938 1.207-0.47266 0.97656-0.55078 0.97266-0.61719 0.76953-0.81641 1.0781-0.27734 1.3867 0.33594 1.2734 0.125 1.3047 0.11719 1.082-0.14453 1.1641-0.11328 1.2031 0.33203 1.1133-0.082031 1.1094-0.27344 0.90625-0.58984 0.84375-0.90234 1.0508-0.17578 0.83984-0.64062 0.67969-0.95703 0.50781-1.1211 0.33203-1.1328-0.44922-1.3438 0.39062-0.95703 0.94531-0.46484 0.70312-0.79688 0.32422-0.98047 0.87109-0.97656 1.0039-0.40625-0.60547-0.97266-0.43359-0.92578-0.29297-1.0156-1.0625-0.44531-0.5625-0.91016-0.61328-0.91406-0.98047-0.44141-0.94531-0.53906-0.51953-1.0312 0.60938-0.89062 0.10547-1.0234 0.15625-1.0859-0.38281-1.0117-0.023437-1.1328 0.30078-1.0977 0.82812-1.2227-0.71484-2.3906-0.68359-2.4844 0.28125-1.6289 0.26953-1.4141-0.34375-1.7031-0.40625-2.0469-0.89844-1.7773-0.83203-1.5156-0.027344-1.7891 0.92578-0.96875 1.125-0.33984 1.5859-0.83984 1.8438-0.76953 0.98047-0.55078 1.1719-0.55469 1.2188-0.13672 0.96484-0.58984 0.77344-0.86328 0.83594-0.70703 0.67578-0.86328 0.71094-0.87891 0.11328-1 0.57422-0.98047 0.24219-1.0469 0.86719-0.64844 0.71875-0.76562 0.12891-1.3047 0.011718-1.1953 0.23828-1.1016 0.40625-1.0273-0.035157-1.0547 0.35156-1.0039 0.050781-1.0508 0.48438-1.0312 0.28516-0.98047 0.1875-0.98438 1-0.34766 0.76562 1.2461 0.60547-0.89062 0.69141-0.82031 0.32031-0.96094 0.72656-0.80078 0.89844-0.81641 0.88672-0.56641 1.1914 0.20312 1.0156-0.18359 1.1641 0.003906 1.0664-0.042969 1.1836 0.44141 1.0625 0.83203 1.0898-0.36328 0.91406-0.80859 0.94531-0.65625 1.0469-0.6875 0.55469-1.1641 1.2227-0.023437 0.97266-0.55859 0.79688-0.86719 0.32422-1.0117 0.46484-1.0312 0.10547-1.1836 0.17969-1.1602-0.29297-1.0469 0.19531-1.4805 0.003906-1.625 0.29297-0.98047 1.2266-1.0234 1.0117-0.11719 1.0547-0.49609 0.71094-1.1953 0.48828-0.94141-0.50391-1.0742-0.61328-1.0703 0.011718-1.0234 1.1133-0.35938 1.1992 0.066406 0.35156-1.1367-0.96484-1.2305-0.65625-0.92578 0.30469-1.9336 0.51172-0.90625-0.007812-1.3398 0.91406-0.42188 1.1289 0.21484 0.96094-0.32031 0.88281-0.78906 0.5-1.1992 0.67188-1.1719 1.0195-0.89453 0.91406-0.58984-0.5-0.90234-0.81641-0.89453-1.0469-0.32812-0.72266-0.75781-0.71484-0.80078-0.86719-0.55469-1.1016-0.03125-1.0039-0.58594-0.9375-0.38281-0.65625-0.76562-0.93359-0.49219-1.1367-0.78516-0.70312-0.91016-0.83594-1.3398-0.078125-1.2695 1.2383-0.62109 1.5781-0.36719 1.0781 0.14844h1.4922l0.11719-1.0391 0.13281-1.3906 0.62891-0.875 0.65234-1.0938 0.58984-0.96484 0.98828-0.35938 0.91797-0.47656 1.125 0.29688 1 0.39453 1.0547-0.097656 0.97656-0.66406 0.92578-0.39062 0.76562-0.76562 0.91406-0.42188 0.96875-0.73438 0.70703-0.83984 0.55469-1.3555 0.57422-0.82422 0.12109-1.0391-0.22266-1.0273-0.26562-1.1797 0.22266-1.0898 0.20703-1.082 0.28906-1.5586 0.035156-1.207-0.33203-1.1875-0.019531-1.0508 0.42578-1.0117-0.039062-1.0312-0.30859-0.97266 0.61328-0.81641 0.71875-0.77344 1.0273-0.125 0.89844 0.66016 0.96484 0.51562 0.84766 0.61328 1.0742 0.10938 1.1836 0.10547 1.0234 0.14062 0.94531-0.38672 0.80469-0.75 0.86719-0.52344 0.67188-0.79297 0.98047-0.94922 0.86328-0.62109 0.17969-1.0078 0.31641-1 0.77344-0.79688 0.70703-0.78516 0.007813-1.0273-0.40625-0.94922 0.53125-0.88672 0.3125-0.98828-0.28906-1.0977 0.57031 0.90234 0.99609-0.089844 0.92578-0.48438 0.35938 0.94922 1.1562 0.18359 1.0469-0.25391 0.94531-0.54688 1.0547-0.20312 1.0703-0.21484 1.0039 0.43359 1.0156 0.37891 0.93359-0.36328-0.28516-1.0117 0.68359-0.77344 1.0938 0.18359 0.99609 0.10547 0.94922-0.35938 0.45703-0.90234 1.0273-0.26562 1-0.34766 1.0898 0.058594 1.0195-0.21484 1.0078-0.10938 0.89844 0.45312 1.0234-0.070312 0.67578 0.74609 0.99609-0.30859 0.21875 1.0039 1.0195-0.019531 0.13672-1.0273 0.53906-0.875 0.33594 0.99219 0.71094-0.84375 1.0273 0.32812 1.0469 0.27734 0.37109 1.1094 0.82812 0.61719 0.95703 0.60938 0.91016 0.44531 1.1094 0.21875 0.57812-1.0195 0.9375 0.55078-0.12109 1.1055 0.94922 0.51953 0.91797 0.54688 0.77734 0.78125 0.57812 0.90625 1.082 0.17969 0.79688 0.67969 1.1172 0.11719 0.95703 0.75 0.5 0.875-0.41016 1.0273-0.70703 0.73047 0.50781 0.99609 0.53906 1.0781 0.62891 0.86719 1.0469-0.14062 1.1758-0.30859 0.73047-0.76562 0.45703-0.94922-0.10156-1.0781 0.64062-0.90625 1.0664 0.078125 1.1094-0.070312-0.21094 1.1289-0.14844 1.0273 0.72656 0.80859-0.078125 1.1055 0.55859 0.87891 0.90625 0.48047 1.1055-0.19141 1.0977-0.25781 0.78125 0.72656 1.1367-0.16797 0.33594-0.98047-0.91406-0.94531-0.96875-0.91016-0.87891-0.77734-1.0664-1.0156-0.83984-0.67969-0.98438-0.62891-0.77734-0.66016-1.0273-0.55078-1.2383-0.59766-1.3555-0.28125-0.44922-1.0273-0.71875-0.69531-0.92578-0.71094-0.95703-0.64844-1.1367-0.51172-0.84766-0.85938-0.86719-0.55859-0.9375-0.53906-0.89844-0.49609-1.0352-0.53906-1.2461-0.33984-0.94922 0.57812-0.85938-0.75781-0.57812-0.86719-0.99609-0.62891-0.91406-0.50391-1-0.28906-1.1055-0.55078-0.96875-0.38672-1.2188-0.37109-1.125-0.38672-1.1875-0.42969-1.2266-0.48047-0.99609-0.35938-1.3242-0.34375-1.2461-0.32812-1.207-0.050781-1.1875-0.31641-1.3086-0.19922-1.0156-0.050781-1.168-0.19922-1.125 0.097656-1.0195-0.078125-1.3945 0.019532-1.2734-0.085938-1.2188 0.027344-1.4922-0.41406-1.3008-0.082031-1.1641 0.082031-1.0508-0.19141h-1.5781l-0.88672-0.67969 1.3711-0.13281 0.32812 0.0039062" fill="none" stroke="#fff" stroke-linecap="round" stroke-linejoin="round" stroke-miterlimit="10"/>
<path d="m233 48.68c0 3.5898-2.9102 6.5-6.5 6.5s-6.5-2.9102-6.5-6.5c0-3.5898 2.9102-6.5 6.5-6.5s6.5 2.9102 6.5 6.5" fill="#28c028" fill-rule="evenodd" stroke="#000" stroke-linecap="round" stroke-linejoin="round" stroke-miterlimit="10"/>
<path d="m154.34 42.68v-16.469h3.3125v16.469zm6.5781 0v-16.328h3.3281v13.547h8.2656v2.7812zm28.797 0h-3.6094l-1.4375-3.7344h-6.5781l-1.3594 3.7344h-3.5312l6.4062-16.469h3.5156zm-6.1094-6.5156-2.2812-6.1094-2.2188 6.1094zm12.078 6.5156-5.8906-16.469h3.6094l4.1719 12.188 4.0312-12.188h3.5156l-5.8906 16.469zm11.141 0v-16.469h12.203v2.7969h-8.875v3.6406h8.2656v2.7812h-8.2656v4.4688h9.2031v2.7812zm0 0" fill="none" stroke="#fff" stroke-linecap="round" stroke-linejoin="round" stroke-miterlimit="10" stroke-width="2"/>
<path d="m154.34 42.68v-16.469h3.3125v16.469zm6.5781 0v-16.328h3.3281v13.547h8.2656v2.7812zm28.797 0h-3.6094l-1.4375-3.7344h-6.5781l-1.3594 3.7344h-3.5312l6.4062-16.469h3.5156zm-6.1094-6.5156-2.2812-6.1094-2.2188 6.1094zm12.078 6.5156-5.8906-16.469h3.6094l4.1719 12.188 4.0312-12.188h3.5156l-5.8906 16.469zm11.141 0v-16.469h12.203v2.7969h-8.875v3.6406h8.2656v2.7812h-8.2656v4.4688h9.2031v2.7812z" fill-rule="evenodd"/>
</g>
</svg>
