<?xml version="1.0" encoding="UTF-8"?>
<svg width="500pt" height="405pt" version="1.1" viewBox="0 0 500 405" xmlns="http://www.w3.org/2000/svg">
<g id="a">
<rect width="500" height="405" fill="none"/>
<path d="m379.74 13.027 3.1133 2.2266 3.1602 1.9648 0.69922 1.0625 0.95312 2.6953 6.2578 9.2266 1.8516 0.96484 1.5898 0.72266 1.1719 0.64844 2.1211 0.43359 1.9648 0.46484 2.3164 0.51953 3.4023 0.49609 1.7227 0.47266 3.9219 1.3008 3.9258 1.4297 2.8047 0.14062 2.168-0.61328 2.1094-1.0273 1.043-0.0625 2.9492 0.83984 2.1758 0.82031 6.2188 5.6094 1.2578 1.5352 0.88672 1.0859 0.82812 1.0391 0.11719 1.4648-0.61328 1.4062-0.55859 3.9609-0.23047 2.9609 0.29688 1.7188 0.82422 1.7227 2.0508 2.8672 0.86719 1.207 1.8711 2.0938 1.418 0.75 3.6289 0.82422 2.3984 1.1641 2.9961 3.0195 1.4844 0.42969 3.207 1.1484 1.9609 0.95703 2.6836 0.64844 1.1484 0.09375 0.99609 0.33203 3.2539 0.39844 2.8125 0.51562 2.6328 1.3867 5.3359 2.8125 1.75 1.4492 1.0273 1.8203 0.98438 2.7031 0.71484 4.0703 0.65234 2.0508 1.125 2.2461 1.6367 1.4219 1.5234 0.71875 1.2773 0.60547 1.7891 1.3125 2.457 3.5508 1.0742 0.99219 1.3281 1.4609 0.72266 1.2656-0.33203 1.293-1.1289 2.457-0.76953 1.2344-0.875 1.1641-1.6836 17.922-11.406 11.926-3.9766 4.1562-0.60156 2.8672-0.51953 3.832-0.42188 13.301-11.844 9.2695-9.1328-7.1367-9.332 11.109-6.1641 7.3438-9.1055 17.262-8.5156 18.262-11.84 3.2461-3.0156 1.9922-2.0586 1.8438-2.0234 2.0234-0.60938 1.2891-0.65234 1.5273-0.52344 1.1875-1.4297 0.94531-3.1055 1.7695-3.3594 1.4453-1.8789 0.90234-1.7617 0.59766-1.1992 0.41406-1.1211-0.39844-0.86719-0.61328-1.2656-1.1211-1.0117-0.53906-1.5508-0.039062-2.0977 0.32812-2.418 0.28906h-5.2031l-1.7578-0.39844-1.0195-0.53516-3.0586-2.5781-1.9766-0.71094-1.5273 0.53125-1.3633 1.0664-1.5781 1.5469-1.4961 1.1719-0.79297 0.61719-3.3438 1.3086h-1.0039l-0.91406-0.45312-2.7852-3.5664-3.0039-1.4219-3.1602-1.9531-0.75-0.86328 0.03125-1.0625 0.058594-2.1289 0.38281-2.0547 0.39062-2.1055 0.46094-2.4727-0.37891-1.9336-0.96484-1.7148-1.5547-1.6328-2.2578-3.3164-3.9492-5.0078-6.2109-4.4453-2.4688-1.4805-1.6211-0.28125-1.5547-0.42578-2.75-1.0586-1.1992-1.4102-1.4141-1.9766-1.6211-2.3984-2.0469-3.0352-2.5391-2.6094-4.5156-3.7383-2.8242-2.7539-3.0312-1.832-7.5195-4.0703-3.418-0.86328-3.0625-1.0977-1.0938-0.17578-3.8555 0.64844-5.1602 0.25391-3.9766 0.79688-2.9141 0.23438-3.2227 0.91797-1.707-0.73438-0.52344-1.6875-0.074219-2.8164-0.35547-1.668-1.4766-3.0352-1.7227-2.6758-1.7305-1.7031-3.1836-2.0039-2.2891-1.3125-1.5469-1.2031-2.293-1.7812-6.4023-5.6289-0.23828-1.0586 1.0039-2.1875 2.1484-2.1094 2.832-2.7852 4.5352-4.2617 3.3672-3.1641 2.1094-1.3516 1.4531-0.9375 1.2109-0.5 5.0586-2.3906 3.5547-1.7812 0.83594-0.91016 0.73047-1.3281 0.027343-1.0742-4.3477-4.9805-1.8086-1.5625-2.5469-1.3867-1.1836-1.2891-0.85547-4.8047-0.99219-8.4453 0.16797-1.3125 1.1445-1.7383-0.10156-2.918-0.32812-1.1758 0.5-1.4258 1.8711-0.625 2.7773 0.3125 2.2188 0.78906 1.8906 1.8438 2.8086-0.5 2.5312-1.7305 1.043-1.2812 1.6992-4.0195 0.88281-1.207 1.2617-1.4492 2.2227-0.41406 3.4375-2.4805 2.7734-2.4102 1.957-1.2969 1.2656-1.2891 1.1289-2.1758 0.80469-2.1797 0.14453-2.4258 0.29688-1.0156 1.6133-3.6328 0.60547-1.0977 0.61328-0.84375 1.0898-0.23828 1.1016-0.10547 0.98828-0.50391 1.2578-0.12109 1.2148 0.33203 1.3086-0.62109 1.3477-0.44531 1.0664-0.35156 1.0977-1.5703 1.1055-1.0547 0.89844-0.76953 1.0547-0.60938 0.98438-1.0742 0.41406-0.92578-0.35156-1.3594-1.2188-1.0156-0.40234-1.1094 0.050782-1.3555 0.80859-1.3828 0.64844-1.3164 0.55078-2.2227 0.41797-1.4805 1.0078-2.1758 0.80078-3.1133 2.2656-3.3984 1.2969-1.0625 2.2227-1.1367 2.293-0.73828 2.9102-2.1484 3.6172-1.3984 0.87891-0.55859 2.918-1.8555 2.3359-0.95703 3.3867-1.3906 1.6836-0.078125 2.1641 0.55078 1.8086 0.085938 4.8906-1.1211 5.168-0.015625 1.3555-0.30078 1.4844-1.0234 0.90625-1.8281 1.625-1.7148 1.3086-0.55859 1.3086-0.375 1.6836-0.11328 1.3594-0.76953 2.7695-2.7188 0.90625-0.42969 2.4102-0.6875 1.4883-1.0156 2-2.3945 1.3398-0.47656z" fill="#ccc" fill-rule="evenodd"/>
<path d="m379.74 13.027 3.1133 2.2266 3.1602 1.9648 0.69922 1.0625 0.95312 2.6953 6.2578 9.2266 1.8516 0.96484 1.5898 0.72266 1.1719 0.64844 2.1211 0.43359 1.9648 0.46484 2.3164 0.51953 3.4023 0.49609 1.7227 0.47266 3.9219 1.3008 3.9258 1.4297 2.8047 0.14062 2.168-0.61328 2.1094-1.0273 1.043-0.0625 2.9492 0.83984 2.1758 0.82031 6.2188 5.6094 1.2578 1.5352 0.88672 1.0859 0.82812 1.0391 0.11719 1.4648-0.61328 1.4062-0.55859 3.9609-0.23047 2.9609 0.29688 1.7188 0.82422 1.7227 2.0508 2.8672 0.86719 1.207 1.8711 2.0938 1.418 0.75 3.6289 0.82422 2.3984 1.1641 2.9961 3.0195 1.4844 0.42969 3.207 1.1484 1.9609 0.95703 2.6836 0.64844 1.1484 0.09375 0.99609 0.33203 3.2539 0.39844 2.8125 0.51562 2.6328 1.3867 5.3359 2.8125 1.75 1.4492 1.0273 1.8203 0.98438 2.7031 0.71484 4.0703 0.65234 2.0508 1.125 2.2461 1.6367 1.4219 1.5234 0.71875 1.2773 0.60547 1.7891 1.3125 2.457 3.5508 1.0742 0.99219 1.3281 1.4609 0.72266 1.2656-0.33203 1.293-1.1289 2.457-0.76953 1.2344-0.875 1.1641-1.6836 17.922-11.406 11.926-3.9766 4.1562-0.60156 2.8672-0.51953 3.832-0.42188 13.301-11.844 9.2695-9.1328-7.1367-9.332 11.109-6.1641 7.3438-9.1055 17.262-8.5156 18.262-11.84 3.2461-3.0156 1.9922-2.0586 1.8438-2.0234 2.0234-0.60938 1.2891-0.65234 1.5273-0.52344 1.1875-1.4297 0.94531-3.1055 1.7695-3.3594 1.4453-1.8789 0.90234-1.7617 0.59766-1.1992 0.41406-1.1211-0.39844-0.86719-0.61328-1.2656-1.1211-1.0117-0.53906-1.5508-0.039062-2.0977 0.32812-2.418 0.28906h-5.2031l-1.7578-0.39844-1.0195-0.53516-3.0586-2.5781-1.9766-0.71094-1.5273 0.53125-1.3633 1.0664-1.5781 1.5469-1.4961 1.1719-0.79297 0.61719-3.3438 1.3086h-1.0039l-0.91406-0.45312-2.7852-3.5664-3.0039-1.4219-3.1602-1.9531-0.75-0.86328 0.03125-1.0625 0.058594-2.1289 0.38281-2.0547 0.39062-2.1055 0.46094-2.4727-0.37891-1.9336-0.96484-1.7148-1.5547-1.6328-2.2578-3.3164-3.9492-5.0078-6.2109-4.4453-2.4688-1.4805-1.6211-0.28125-1.5547-0.42578-2.75-1.0586-1.1992-1.4102-1.4141-1.9766-1.6211-2.3984-2.0469-3.0352-2.5391-2.6094-4.5156-3.7383-2.8242-2.7539-3.0312-1.832-7.5195-4.0703-3.418-0.86328-3.0625-1.0977-1.0938-0.17578-3.8555 0.64844-5.1602 0.25391-3.9766 0.79688-2.9141 0.23438-3.2227 0.91797-1.707-0.73438-0.52344-1.6875-0.074219-2.8164-0.35547-1.668-1.4766-3.0352-1.7227-2.6758-1.7305-1.7031-3.1836-2.0039-2.2891-1.3125-1.5469-1.2031-2.293-1.7812-6.4023-5.6289-0.23828-1.0586 1.0039-2.1875 2.1484-2.1094 2.832-2.7852 4.5352-4.2617 3.3672-3.1641 2.1094-1.3516 1.4531-0.9375 1.2109-0.5 5.0586-2.3906 3.5547-1.7812 0.83594-0.91016 0.73047-1.3281 0.027343-1.0742-4.3477-4.9805-1.8086-1.5625-2.5469-1.3867-1.1836-1.2891-0.85547-4.8047-0.99219-8.4453 0.16797-1.3125 1.1445-1.7383-0.10156-2.918-0.32812-1.1758 0.5-1.4258 1.8711-0.625 2.7773 0.3125 2.2188 0.78906 1.8906 1.8438 2.8086-0.5 2.5312-1.7305 1.043-1.2812 1.6992-4.0195 0.88281-1.207 1.2617-1.4492 2.2227-0.41406 3.4375-2.4805 2.7734-2.4102 1.957-1.2969 1.2656-1.2891 1.1289-2.1758 0.80469-2.1797 0.14453-2.4258 0.29688-1.0156 1.6133-3.6328 0.60547-1.0977 0.61328-0.84375 1.0898-0.23828 1.1016-0.10547 0.98828-0.50391 1.2578-0.12109 1.2148 0.33203 1.3086-0.62109 1.3477-0.44531 1.0664-0.35156 1.0977-1.5703 1.1055-1.0547 0.89844-0.76953 1.0547-0.60938 0.98438-1.0742 0.41406-0.92578-0.35156-1.3594-1.2188-1.0156-0.40234-1.1094 0.050782-1.3555 0.80859-1.3828 0.64844-1.3164 0.55078-2.2227 0.41797-1.4805 1.0078-2.1758 0.80078-3.1133 2.2656-3.3984 1.2969-1.0625 2.2227-1.1367 2.293-0.73828 2.9102-2.1484 3.6172-1.3984 0.87891-0.55859 2.918-1.8555 2.3359-0.95703 3.3867-1.3906 1.6836-0.078125 2.1641 0.55078 1.8086 0.085938 4.8906-1.1211 5.168-0.015625 1.3555-0.30078 1.4844-1.0234 0.90625-1.8281 1.625-1.7148 1.3086-0.55859 1.3086-0.375 1.6836-0.11328 1.3594-0.76953 2.7695-2.7188 0.90625-0.42969 2.4102-0.6875 1.4883-1.0156 2-2.3945 1.3398-0.47656 1.0273 0.046875" fill="none" stroke="#fff" stroke-linecap="round" stroke-linejoin="round" stroke-miterlimit="10" stroke-width="2"/>
<path d="m318.64 293.83 5.2734 2.8789 3.1797 1.9453 6.0586 3.2539 4.6914 2.6914 1.8086 1.2188 3.1367 2.6953 3.1641 3.7812 5.9883 5.3008 2.332 3.1914 5.3711 4.8242 2.5898 3.7539 5.1836 5.5078 1.7852 2.3047 1.6484 1.8945-1.2578 0.44531-9.25 4.207-1.5391 0.67969-0.82812 0.88672 0.26172 1.5938 2.3711 1.418 1.3164 1.9258 0.46875 2.9414 0.046875 2.168 0.19922 1.4844-0.11328 1.1484-3.1172 3.1172-2.6797 4.5039 0.28516 4.707-2.7305 3.2578-4.2891 5.5117-4.5586 5.6016-1.1133 1.3672-2.7305 1.793-0.42969 1.3672-0.85938 1.2891-1.6953 0.14453-0.83203-0.67188-1.0117-0.51953-1.9219-0.50391-1.4688 0.21094-1.0586 0.042968-1.4688-0.32031-1.5703-1.8359-0.98438-0.30859-1.3906-0.43359-1.0273-0.48438-1.082-0.64062-1.8164-0.60547-1.4102-0.035156-1.6055-0.22656-1.0898-0.33984-1.8125-0.32422-1.3242-0.11328-1.1445-0.5625-1.082-0.67578-0.88281-0.8125-0.52734-0.90625 1.3242-0.41406 0.98438-1.0156 0.21484-1.2539-1.3984-2.3828-0.85938-0.90625-1.2695-0.49609-2.332 0.73047-1.4453 0.63672-1.1055 0.082031-1.3086-0.32422-1.1641-0.011718-0.89453-0.68359-1.5-0.43359-1.7266-0.99219-1.1602-1.1055-0.28125-0.97656-0.73047-1.1094-0.51562-0.87891-1.3867-1.3672-1.9492-0.69922-2.1172-0.33203-2.6602-0.35156-1.0117-0.41797-0.86719-0.71484-1.4648-0.98438-2.793-1.3047-1.1133-0.92969-0.82812-0.89453-0.96094-0.92969-0.11719-1.3984-0.007812-1.0742 0.34375-1.1836 0.71094-1.6641 0.67969-1.0312 0.83984-0.94531 0.94922 0.62891 0.44922 1.1562 0.60547 0.92969 0.88672 0.52344 1.1914-0.33984 0.8125-1.3828 0.26953-1.2422 0.91016-1.0781 1.2617-0.625 1.6445-0.64062 0.72656-1.1875-0.22266-1.1328-0.64062-2.1562 0.38281-1.0391 1.3281-0.35938 1.4023 0.15234 1.2734-0.13281 0.80859-1.375-0.29688-1.4922-0.72656-0.99219-0.62891-0.98047-0.71875-1.1641-0.57812-1.9727-0.51562-1.4336 1.0859-0.75 2.1016 1.082 1.4727 2.0117 0.41016 1.2266-0.14453 1.1719 0.24219 1.3086 0.79297 0.84375 1.3008 0.53125 0.19922 1.1367-0.82031 0.95312 0.22656 1.0469 1.5938 0.85938 1.5586 1.5547 0.37891 1.168-0.82031 0.83594-1.1367 0.30078-2.4297 0.003907-0.94531 0.63281 0.019531 1.1133-0.26562 1 0.26953 1.2656 0.76562 0.82031 1.1055-0.21094 0.98047 0.51953 1.293-0.16797 1.2031-0.375 2.0859-0.88281 0.19922-1.6641-0.17578-1.0547 0.42969-1.0234 1.5352-0.25 1.3008 0.8125 0.89062 1.5156-0.875 1.2617 0.097657 1.6289 0.72266 0.78516 0.78906 1.4219 0.72266 0.77734 0.76953 1.043-0.43359 1.3945-1.7148 1.4023-0.74609 1.1836-0.51953 1.5273-0.41406 1.5859 1.4102 1.0977 1.1602 0.050781 0.97656 0.30859 0.95703-1.2031 0.42188-0.95703 0.94922-1.0156 0.625-1.1797 0.41797-1.7734 1.0234-0.45312 1.0781 0.70703 0.29297 1.3984 0.40234 1.0781 1.2617-0.10156 1.8398-0.71875 0.17188-1.0156-1.4883-1.1602-0.86719-0.84766-1-0.58984-1.1836-0.94531-0.96484-1.1523-0.99609-0.5-1.4258-1.2852-0.98438-0.98438-0.31641-1.5703 0.73047-0.97656 1.0625-0.87891-0.17188-1.0078 1.2773-0.011718 1.2461-0.40234 0.78516-0.72266 0.24609-1.0781-1.3438-1.7109-0.035156-1.1953-1.1289-0.21094-0.79297-1.0938-0.32422-1.4141-0.88672-1.6289 1.2695-0.55078 0.94922-1.2461-0.6875-1.3789-0.53125-0.87891-0.64062-1.0352 1.3711-1.1562 1.0938-0.45703 0.85156-1.5625 0.097657-2.4844-0.31641-1.1953-0.80469-0.89453-1.0977-0.91406-1.1562-0.98047-2.3438-2.8984-1.2344-1.9375-0.16406-1.7773 0.9375-2.2852 0.22266-1.2031 0.03125-1.4102-0.26172-1.1602-0.8125-0.88281-1.8984-1.2031-1.0469-0.19141-1.3086-0.62109-1.8906-0.47266-1.0352-0.375-1.0977-0.65234-1.2578-0.60156-1.3203-1.3281-0.54297-0.89844 0.14062-1.5469-0.42188-0.98828-0.007812-1.1562 0.97266-1.5703 0.98828-0.45312 1.7383-0.65234 1.2695 0.011719 1.7188-0.30469h1.7305l1.832 0.73438 1.0352 0.3125 1.1094 0.10156 1.7695 0.50391 1.7305 0.21875 0.69531-0.83203 0.99609-0.30469 0.070313-1.0469-0.3125-1.2773-0.089844-1.1562 0.23047-1.125-0.17969-1.4102-0.48438-1.1445 0.12109-1.4688 0.26953-1.0391z" fill="#ccc" fill-rule="evenodd"/>
<path d="m318.64 293.83 5.2734 2.8789 3.1797 1.9453 6.0586 3.2539 4.6914 2.6914 1.8086 1.2188 3.1367 2.6953 3.1641 3.7812 5.9883 5.3008 2.332 3.1914 5.3711 4.8242 2.5898 3.7539 5.1836 5.5078 1.7852 2.3047 1.6484 1.8945-1.2578 0.44531-9.25 4.207-1.5391 0.67969-0.82812 0.88672 0.26172 1.5938 2.3711 1.418 1.3164 1.9258 0.46875 2.9414 0.046875 2.168 0.19922 1.4844-0.11328 1.1484-3.1172 3.1172-2.6797 4.5039 0.28516 4.707-2.7305 3.2578-4.2891 5.5117-4.5586 5.6016-1.1133 1.3672-2.7305 1.793-0.42969 1.3672-0.85938 1.2891-1.6953 0.14453-0.83203-0.67188-1.0117-0.51953-1.9219-0.50391-1.4688 0.21094-1.0586 0.042968-1.4688-0.32031-1.5703-1.8359-0.98438-0.30859-1.3906-0.43359-1.0273-0.48438-1.082-0.64062-1.8164-0.60547-1.4102-0.035156-1.6055-0.22656-1.0898-0.33984-1.8125-0.32422-1.3242-0.11328-1.1445-0.5625-1.082-0.67578-0.88281-0.8125-0.52734-0.90625 1.3242-0.41406 0.98438-1.0156 0.21484-1.2539-1.3984-2.3828-0.85938-0.90625-1.2695-0.49609-2.332 0.73047-1.4453 0.63672-1.1055 0.082031-1.3086-0.32422-1.1641-0.011718-0.89453-0.68359-1.5-0.43359-1.7266-0.99219-1.1602-1.1055-0.28125-0.97656-0.73047-1.1094-0.51562-0.87891-1.3867-1.3672-1.9492-0.69922-2.1172-0.33203-2.6602-0.35156-1.0117-0.41797-0.86719-0.71484-1.4648-0.98438-2.793-1.3047-1.1133-0.92969-0.82812-0.89453-0.96094-0.92969-0.11719-1.3984-0.007812-1.0742 0.34375-1.1836 0.71094-1.6641 0.67969-1.0312 0.83984-0.94531 0.94922 0.62891 0.44922 1.1562 0.60547 0.92969 0.88672 0.52344 1.1914-0.33984 0.8125-1.3828 0.26953-1.2422 0.91016-1.0781 1.2617-0.625 1.6445-0.64062 0.72656-1.1875-0.22266-1.1328-0.64062-2.1562 0.38281-1.0391 1.3281-0.35938 1.4023 0.15234 1.2734-0.13281 0.80859-1.375-0.29688-1.4922-0.72656-0.99219-0.62891-0.98047-0.71875-1.1641-0.57812-1.9727-0.51562-1.4336 1.0859-0.75 2.1016 1.082 1.4727 2.0117 0.41016 1.2266-0.14453 1.1719 0.24219 1.3086 0.79297 0.84375 1.3008 0.53125 0.19922 1.1367-0.82031 0.95312 0.22656 1.0469 1.5938 0.85938 1.5586 1.5547 0.37891 1.168-0.82031 0.83594-1.1367 0.30078-2.4297 0.003907-0.94531 0.63281 0.019531 1.1133-0.26562 1 0.26953 1.2656 0.76562 0.82031 1.1055-0.21094 0.98047 0.51953 1.293-0.16797 1.2031-0.375 2.0859-0.88281 0.19922-1.6641-0.17578-1.0547 0.42969-1.0234 1.5352-0.25 1.3008 0.8125 0.89062 1.5156-0.875 1.2617 0.097657 1.6289 0.72266 0.78516 0.78906 1.4219 0.72266 0.77734 0.76953 1.043-0.43359 1.3945-1.7148 1.4023-0.74609 1.1836-0.51953 1.5273-0.41406 1.5859 1.4102 1.0977 1.1602 0.050781 0.97656 0.30859 0.95703-1.2031 0.42188-0.95703 0.94922-1.0156 0.625-1.1797 0.41797-1.7734 1.0234-0.45312 1.0781 0.70703 0.29297 1.3984 0.40234 1.0781 1.2617-0.10156 1.8398-0.71875 0.17188-1.0156-1.4883-1.1602-0.86719-0.84766-1-0.58984-1.1836-0.94531-0.96484-1.1523-0.99609-0.5-1.4258-1.2852-0.98438-0.98438-0.31641-1.5703 0.73047-0.97656 1.0625-0.87891-0.17188-1.0078 1.2773-0.011718 1.2461-0.40234 0.78516-0.72266 0.24609-1.0781-1.3438-1.7109-0.035156-1.1953-1.1289-0.21094-0.79297-1.0938-0.32422-1.4141-0.88672-1.6289 1.2695-0.55078 0.94922-1.2461-0.6875-1.3789-0.53125-0.87891-0.64062-1.0352 1.3711-1.1562 1.0938-0.45703 0.85156-1.5625 0.097657-2.4844-0.31641-1.1953-0.80469-0.89453-1.0977-0.91406-1.1562-0.98047-2.3438-2.8984-1.2344-1.9375-0.16406-1.7773 0.9375-2.2852 0.22266-1.2031 0.03125-1.4102-0.26172-1.1602-0.8125-0.88281-1.8984-1.2031-1.0469-0.19141-1.3086-0.62109-1.8906-0.47266-1.0352-0.375-1.0977-0.65234-1.2578-0.60156-1.3203-1.3281-0.54297-0.89844 0.14062-1.5469-0.42188-0.98828-0.007812-1.1562 0.97266-1.5703 0.98828-0.45312 1.7383-0.65234 1.2695 0.011719 1.7188-0.30469h1.7305l1.832 0.73438 1.0352 0.3125 1.1094 0.10156 1.7695 0.50391 1.7305 0.21875 0.69531-0.83203 0.99609-0.30469 0.070313-1.0469-0.3125-1.2773-0.089844-1.1562 0.23047-1.125-0.17969-1.4102-0.48438-1.1445 0.12109-1.4688 0.26953-1.0391 4.0156 2.3828" fill="none" stroke="#fff" stroke-linecap="round" stroke-linejoin="round" stroke-miterlimit="10" stroke-width="2"/>
<path d="m248.15 255.19 2.3867 0.59375 0.95703 0.49609 5.0742 3.2422 2.1523 0.84375 3.6289 1.8984 1.5234 0.79688 1.7461 1.5938 2.2617 2.2617 2.8125 1.5547 2.1367 0.93359 3.3281 1.6719 1.9727 1.1992 3.5508 1.4727 1.3086 0.71094 1.7969 0.97266 2.7656 0.93359 4.1523 1.1602 3.3281 0.48828 2.4688 0.55859 1.5508 0.64844 1.1055 1.1484 0.1875 1.5703-0.21094 2.1562-0.21484 2.1523 0.68359 1 2.0508 0.86328 1.5938 1.5547 2.0977 0.89844 2.3008 0.074219 1.9844 0.0625 3.9922 0.75-0.26953 1.0391-0.12109 1.4688 0.48438 1.1445 0.17969 1.4102-0.23047 1.125 0.089844 1.1562 0.3125 1.2773-0.070313 1.0469-0.99609 0.30469-0.69531 0.83203-1.2969-0.078125-1.9844-0.45312-1.3281-0.29297-1.0352-0.3125-0.90625-0.52344-1.6602-0.26953-2.3008 0.25-1.4961 0.10156-1.1719 0.28125-1.1758 0.52344-1.5391 1.8711 0.007812 1.1562 0.42188 0.98828-0.14062 1.5469 0.54297 0.89844 0.88672 0.99609 1.6914 0.93359 1.0977 0.65234 1.0352 0.375 1.1445 0.24219 2.0547 0.85156 1.0469 0.19141 1.8984 1.2031 0.8125 0.88281 0.26172 1.1602-0.03125 1.4102-0.22266 1.2031-0.59766 1.4609-0.17578 2.6016 1.2344 1.9375 2.3438 2.8984 1.1562 0.98047 1.0977 0.91406 0.80469 0.89453 0.31641 1.1953-0.097657 2.4844-0.85156 1.5625-1.0938 0.45703-1.2422 0.51172-0.79297-0.99609-1.0117-0.45312-1.4648-0.28125-2.2109-1.7031-1.3242-1.0469-0.95703-0.51172-0.96094-0.73047-1.9492-1.0742-2.8125-1.5547-1.3438-0.46094-1.9531-2.0742-0.90234-0.76562-1.2227-0.070313-2.0586-0.375-1.5625 0.27344-1.7305 0.70312-1.0312-0.16797-1.1758-0.26172-1.2617 0.48828-1.1562 0.94922-1.0703-0.11328-1.6367 0.042969-1.168 0.87891-0.67188 1.4141-1.9805 0.68359-0.71094 1.0703-0.011719 1.5781-0.19531 1.1055-0.082031 1.0273-1.9375 1.0469-1.0039 0.41797-1.2695 0.45312-1.3086-0.63672-1.7148-0.53516-1.9336-0.078125-1.1641 0.71484-0.89844 0.82422-2.3398-0.52344-2.7383-0.097656-1.293 0.070312-1.1367-0.25-1.5703-0.64453-1.2578-0.11328-1.0859 0.074218-1.2891-0.68359-1.5977-0.68359-2.0586 0.50391-0.92188 0.73047-0.77734-0.78906-0.95312-0.92578-0.86328-0.50391-1.1641-0.99609-1.2109-0.37891-0.75781 1.0234-0.89844 1.2656-1.1094 0.023438-0.82031-0.63281-0.76172-0.88672-1.0117-0.32031 0.003906 1.3359-1.3477 1.0859-0.59375 0.92188 0.78516 1.2227 0.68359 1.0625 0.36719 1.3086 0.70312 1.1875 1.4375 0.89062 0.89062 0.53516 1.5664 0.69922 1.5117 1.4961 0.46875 1.1328 0.61328 1.6133 1.3906 1.0352 0.58594 0.91406 0.92188 0.82031 2.332 0.50781 1.4414 0.26562 1.2852 0.69141 2.2969 0.12109 0.85156 0.94141-0.5625 1.375-0.48828 0.9375-0.44922 1.6875-0.003906 1.1406-0.57812 1.0234-1.2383 0.0625-1.2188-0.28125-1.4961-0.015625-1.5664 0.36719-1.7812-0.59766-0.875-0.73047-1.4961-0.48438-1.8281-0.003907-1.6172 0.35938-1.2148 0.46875-0.46484 1.1641-0.066406 1.375-0.96484-1.0938 0.078125-1.3164 0.76562-1.4062-0.082031-1.0078-0.50391-1.793-0.80078-0.69922-1.0117-0.55859-0.84375-0.86719-1.3008-0.91016-0.94141-1.2383-1.1797-1.3477-1.1367-0.76953-1.6406-0.77344-0.48047-0.98828 0.32031-1.3516 0.77734-1.2109 0.074219-1.0352-0.21484-1.6992-0.28125-1.6094 0.042969-1.2109 0.83984-0.99219 1.5781-0.39844 1.7305-0.53516 0.76172-0.79297 0.41016-1.4648 0.085937-1.6094-0.074219-2.4531-0.78125-3.3633-0.59375-1.5664-0.375-1.3867-0.30078-1.125-0.52734-0.89844-1.6602-1.4062-1.0156-1.0586 0.73828-1.1875-1.0156-0.26562-1.0234 0.56641-1.207-0.32422-1.1289-1.582-0.91797-1.7383-0.83984-1.2656-1.5-1.3438-2.668-1.1836-1.6484-0.44141-1.7539-0.42969-2.2109-0.46484-1.0742-0.41406-2.0156-0.53906-1.2656-0.81641-1.4883-1.9766-0.42578-1.2891-0.21875-1.3242-1.1094-3.8008-0.73438-2.7773-0.50781-0.93359-1.1367-1.0352-1.5469-1.4375-1.4023-0.54297-0.98828-0.41406-0.88281-0.60547-1.1797-0.86719-0.66016-0.75-0.87891-0.93359-0.81641-0.79688-2.3203-1.7969-1.0195-1.0938-0.30859-1.0469 0.58203-1.0391 0.72656-0.89062 1.2109-0.47656 1.1055-0.32031 1.2969-0.21094 3.5312 0.38281 1.6016 0.007812 2.4141 0.16406 2 0.49219 1.1094 0.38281 1.8438 0.20312 1.0742 0.078125 1.2969-0.18359 1.0039-0.37109 0.91797-1.1562 0.92578-0.58203 1.6094-0.082031 1.5469 0.35156 1.5117 0.47266 1.2656 0.070312 1.6719-0.12109 1.5586 0.33203 1.5195 0.90625 2.0117 0.32422 1.1172-0.16406 1.0547-0.089844 3.6602-0.57812 2.332-0.91406 1.793-2.418 0.72266-2.4492 0.375-0.96875 0.66406-1.707 2.1562-2.8516 0.79688-1.5977 2.5469-5.2188 0.33984-2.4336 0.38672-1.6094 0.67969-1.4141 0.69922-0.78906z" fill="#ccc" fill-rule="evenodd"/>
<path d="m248.15 255.19 2.3867 0.59375 0.95703 0.49609 5.0742 3.2422 2.1523 0.84375 3.6289 1.8984 1.5234 0.79688 1.7461 1.5938 2.2617 2.2617 2.8125 1.5547 2.1367 0.93359 3.3281 1.6719 1.9727 1.1992 3.5508 1.4727 1.3086 0.71094 1.7969 0.97266 2.7656 0.93359 4.1523 1.1602 3.3281 0.48828 2.4688 0.55859 1.5508 0.64844 1.1055 1.1484 0.1875 1.5703-0.21094 2.1562-0.21484 2.1523 0.68359 1 2.0508 0.86328 1.5938 1.5547 2.0977 0.89844 2.3008 0.074219 1.9844 0.0625 3.9922 0.75-0.26953 1.0391-0.12109 1.4688 0.48438 1.1445 0.17969 1.4102-0.23047 1.125 0.089844 1.1562 0.3125 1.2773-0.070313 1.0469-0.99609 0.30469-0.69531 0.83203-1.2969-0.078125-1.9844-0.45312-1.3281-0.29297-1.0352-0.3125-0.90625-0.52344-1.6602-0.26953-2.3008 0.25-1.4961 0.10156-1.1719 0.28125-1.1758 0.52344-1.5391 1.8711 0.007812 1.1562 0.42188 0.98828-0.14062 1.5469 0.54297 0.89844 0.88672 0.99609 1.6914 0.93359 1.0977 0.65234 1.0352 0.375 1.1445 0.24219 2.0547 0.85156 1.0469 0.19141 1.8984 1.2031 0.8125 0.88281 0.26172 1.1602-0.03125 1.4102-0.22266 1.2031-0.59766 1.4609-0.17578 2.6016 1.2344 1.9375 2.3438 2.8984 1.1562 0.98047 1.0977 0.91406 0.80469 0.89453 0.31641 1.1953-0.097657 2.4844-0.85156 1.5625-1.0938 0.45703-1.2422 0.51172-0.79297-0.99609-1.0117-0.45312-1.4648-0.28125-2.2109-1.7031-1.3242-1.0469-0.95703-0.51172-0.96094-0.73047-1.9492-1.0742-2.8125-1.5547-1.3438-0.46094-1.9531-2.0742-0.90234-0.76562-1.2227-0.070313-2.0586-0.375-1.5625 0.27344-1.7305 0.70312-1.0312-0.16797-1.1758-0.26172-1.2617 0.48828-1.1562 0.94922-1.0703-0.11328-1.6367 0.042969-1.168 0.87891-0.67188 1.4141-1.9805 0.68359-0.71094 1.0703-0.011719 1.5781-0.19531 1.1055-0.082031 1.0273-1.9375 1.0469-1.0039 0.41797-1.2695 0.45312-1.3086-0.63672-1.7148-0.53516-1.9336-0.078125-1.1641 0.71484-0.89844 0.82422-2.3398-0.52344-2.7383-0.097656-1.293 0.070312-1.1367-0.25-1.5703-0.64453-1.2578-0.11328-1.0859 0.074218-1.2891-0.68359-1.5977-0.68359-2.0586 0.50391-0.92188 0.73047-0.77734-0.78906-0.95312-0.92578-0.86328-0.50391-1.1641-0.99609-1.2109-0.37891-0.75781 1.0234-0.89844 1.2656-1.1094 0.023438-0.82031-0.63281-0.76172-0.88672-1.0117-0.32031 0.003906 1.3359-1.3477 1.0859-0.59375 0.92188 0.78516 1.2227 0.68359 1.0625 0.36719 1.3086 0.70312 1.1875 1.4375 0.89062 0.89062 0.53516 1.5664 0.69922 1.5117 1.4961 0.46875 1.1328 0.61328 1.6133 1.3906 1.0352 0.58594 0.91406 0.92188 0.82031 2.332 0.50781 1.4414 0.26562 1.2852 0.69141 2.2969 0.12109 0.85156 0.94141-0.5625 1.375-0.48828 0.9375-0.44922 1.6875-0.003906 1.1406-0.57812 1.0234-1.2383 0.0625-1.2188-0.28125-1.4961-0.015625-1.5664 0.36719-1.7812-0.59766-0.875-0.73047-1.4961-0.48438-1.8281-0.003907-1.6172 0.35938-1.2148 0.46875-0.46484 1.1641-0.066406 1.375-0.96484-1.0938 0.078125-1.3164 0.76562-1.4062-0.082031-1.0078-0.50391-1.793-0.80078-0.69922-1.0117-0.55859-0.84375-0.86719-1.3008-0.91016-0.94141-1.2383-1.1797-1.3477-1.1367-0.76953-1.6406-0.77344-0.48047-0.98828 0.32031-1.3516 0.77734-1.2109 0.074219-1.0352-0.21484-1.6992-0.28125-1.6094 0.042969-1.2109 0.83984-0.99219 1.5781-0.39844 1.7305-0.53516 0.76172-0.79297 0.41016-1.4648 0.085937-1.6094-0.074219-2.4531-0.78125-3.3633-0.59375-1.5664-0.375-1.3867-0.30078-1.125-0.52734-0.89844-1.6602-1.4062-1.0156-1.0586 0.73828-1.1875-1.0156-0.26562-1.0234 0.56641-1.207-0.32422-1.1289-1.582-0.91797-1.7383-0.83984-1.2656-1.5-1.3438-2.668-1.1836-1.6484-0.44141-1.7539-0.42969-2.2109-0.46484-1.0742-0.41406-2.0156-0.53906-1.2656-0.81641-1.4883-1.9766-0.42578-1.2891-0.21875-1.3242-1.1094-3.8008-0.73438-2.7773-0.50781-0.93359-1.1367-1.0352-1.5469-1.4375-1.4023-0.54297-0.98828-0.41406-0.88281-0.60547-1.1797-0.86719-0.66016-0.75-0.87891-0.93359-0.81641-0.79688-2.3203-1.7969-1.0195-1.0938-0.30859-1.0469 0.58203-1.0391 0.72656-0.89062 1.2109-0.47656 1.1055-0.32031 1.2969-0.21094 3.5312 0.38281 1.6016 0.007812 2.4141 0.16406 2 0.49219 1.1094 0.38281 1.8438 0.20312 1.0742 0.078125 1.2969-0.18359 1.0039-0.37109 0.91797-1.1562 0.92578-0.58203 1.6094-0.082031 1.5469 0.35156 1.5117 0.47266 1.2656 0.070312 1.6719-0.12109 1.5586 0.33203 1.5195 0.90625 2.0117 0.32422 1.1172-0.16406 1.0547-0.089844 3.6602-0.57812 2.332-0.91406 1.793-2.418 0.72266-2.4492 0.375-0.96875 0.66406-1.707 2.1562-2.8516 0.79688-1.5977 2.5469-5.2188 0.33984-2.4336 0.38672-1.6094 0.67969-1.4141 0.69922-0.78906 1.0859-0.17578" fill="none" stroke="#fff" stroke-linecap="round" stroke-linejoin="round" stroke-miterlimit="10" stroke-width="2"/>
<path d="m272.79 63.504 0.44531 0.14062 1.4766 0.09375 0.99609 0.72266 1.2695 0.34375 0.98047 0.23438 1.1914 0.37891 1.0781-0.33203 1.0859-0.17188 1.2852-0.011719 1.0586-0.21875 1.0742 0.17969 2.0742 0.84375 1.2578-0.089843 1.4102 0.40234 1.4258 0.082032 1.6797 0.49219 0.96875 0.34375h1.0469l1.3555 0.33984 2.2031 0.55859 0.3125 1.3047-1.3945 2.8867-0.51562 1.7617-0.14453 2.4258-0.80469 2.1797-1.1289 2.1758-1.2656 1.2891-1.957 1.2969-2.7734 2.4102-2.6992 2.293-2.1172 0.16016-2.1055 1.8906-0.88281 1.207-1.6992 4.0195-1.043 1.2812-2.5312 1.7305-1.8906 0.82812-2.8086-2.1719-2.2188-0.78906-2.7773-0.3125-1.8711 0.625-0.5 1.4258 0.32812 1.1758 0.30859 2.0195-1.3516 2.6367-0.16797 1.3125 0.99219 8.4453 0.85547 4.8047 1.1836 1.2891 2.4219 1.2773 1.9336 1.6719 3.9805 4.25 0.33984 1.8047-0.73047 1.3281-0.83594 0.91016-3.5547 1.7812-5.0586 2.3906-1.2109 0.5-1.4531 0.9375-2.1094 1.3516-7.9023 7.4258-2.832 2.7852-2.1484 2.1094-1.0039 2.1875 0.23828 1.0586 6.4023 5.6289 2.293 1.7812 1.5469 1.2031 2.2891 1.3125 3.1836 2.0039 1.7305 1.7031 1.7227 2.6758 1.4766 3.0352 0.35547 1.668 0.074219 2.8164 0.52344 1.6875 1.0156 0.65625 3.9141-0.83984 2.9141-0.23438 3.9766-0.79688 5.1602-0.25391 3.8555-0.64844 1.0938 0.17578 3.0586 1.0938 3.4219 0.86719 7.5195 4.0703 3.0312 1.832 2.8242 2.7539 4.5156 3.7383 2.5391 2.6094 2.0469 3.0352 1.6211 2.3984 1.4141 1.9766 1.1992 1.4102 2.75 1.0586 1.5547 0.42578 1.6211 0.28125 2.4688 1.4805 6.2109 4.4453 3.9492 5.0078 2.2578 3.3164 1.5547 1.6328 0.64453 0.95312 0.69922 2.6953-0.46094 2.4727-0.39062 2.1055-0.38281 2.0547-0.058594 2.1289-0.03125 1.0625 0.75 0.86328 3.1602 1.9531 3.0039 1.4219 2.4766 3.2969 1.2227 0.72266h1.0039l3.3438-1.3086 0.79297-0.61719 1.4961-1.1719 1.5781-1.5469 1.3633-1.0664 1.5273-0.53125 1.9766 0.71094 3.0586 2.5781 1.0195 0.53516 1.7578 0.39844h5.2031l2.418-0.28906 2.0977-0.32812 1.5508 0.039062 1.0117 0.53906 1.2656 1.1211 0.86719 0.61328 1.1211 0.39844 1.1914-0.39844 1.7266-0.59766 1.9219-0.91797 3.3594-1.4453 3.1055-1.7695 1.4297-0.94531 0.52344-1.1875 0.64844-1.5156 0.61328-1.3008 2.0234-2.0234 2.0586-1.8438 3.0156-1.9922 10.547 53.004 12.699 10.934 4.918 4.2344-8.543 18.711-12.762 8.8516-36.785-32.508-5.4219 9.9102-6.0625 6.043-2.0078 7.082-5.5 4.1367-2.7891 9.1328-5.3711-4.8242-2.332-3.1914-5.9883-5.3008-3.1641-3.7812-3.1367-2.6953-1.1562-0.77734-5.3438-3.1328-6.0586-3.2539-3.1797-1.9453-5.2734-2.8789-4.0156-2.3828-3.9922-0.75-1.9844-0.0625-2.3008-0.074219-2.0977-0.89844-1.5938-1.5547-2.0508-0.86328-0.68359-1 0.21484-2.1523 0.21094-2.1562-0.1875-1.5703-0.59766-0.93359-2.0586-0.86328-2.4688-0.55859-3.3281-0.48828-4.1523-1.1602-2.7656-0.93359-1.7969-0.97266-1.3086-0.71094-3.5508-1.4727-1.9727-1.1992-3.3281-1.6719-2.1367-0.93359-2.8125-1.5547-2.2617-2.2617-1.7461-1.5938-1.5234-0.79688-3.6289-1.8984-2.1523-0.84375-5.0742-3.2422-0.95703-0.49609-2.3867-0.59375-1.0859 0.17578-0.69922 0.78906-0.67969 1.4141-0.38672 1.6094-0.33984 2.4336-2.5469 5.2188-0.79688 1.5977-2.1562 2.8516-0.66406 1.707-0.375 0.96875-0.72266 2.4492-1.793 2.418-2.293 0.91406-3.6992 0.57812-1.0547 0.089844-1.1172 0.16406-1.2773-0.11328-2.2539-1.1172-1.5586-0.33203-1.6719 0.12109-1.2656-0.070312-1.5117-0.47266-1.5469-0.35156-1.6094 0.082031-0.92578 0.58203-0.91797 1.1562-1.0039 0.37109-1.2969 0.18359-1.0742-0.078125-1.8438-0.20312-1.1094-0.38281-1.3477-0.33203-3.0664-0.32422-1.2773 0.070313-2.9883-0.30859-1.3008-0.12109-1.9688 0.5-1.0273 0.41797-0.90625-1.2969-1.0508-0.52344-1.6289-0.10156-1.2188-0.64844-1.4375-1.3984-1.582-1.4531-1.7188-1.1641-0.93359-0.45312-0.95703-0.32031-1.2734-0.81641-1.2812-1.1992-1.2773-0.89844-1.7461 0.11719-1.2109-0.007812-1.9414-1.1523-0.73438-0.71484-0.71875-0.80859-1.1016-0.92578-0.64453-0.79297-0.20312-1.918 0.67578-1.3867 0.89453-0.48047 0.67188-1.3438 0.003906-1.3242-0.15234-1.0352-0.85547-0.75781-1.0078-0.41797-0.90234-0.625-1.6172 0.21484-0.61328 1.4375-0.5 1.2891-0.93359 0.74609-1.207 0.42969-0.98438 0.93359-2.8789-0.28906-1.2773-0.27344-1.8867-0.83984-0.84766-0.66797-1.0977-2.3281-0.98828-1.4727-0.81641-0.95312-1.3477-0.89453-1.5938-0.55469-1.3945-1.2266-1.707-2.207-2.2383-2.1016-1-0.70703-0.86328-0.93359-0.49219-1.1094-0.77734-1.0352-0.64453-1.1914-1.5781-1.4336-1.2031-0.85156-0.83594-1.0547 0.5625-1.043 1.2461 0.15234 1.7344 1.2617 1.6641-0.92578 1.043-0.70703-0.21094-1.6641-0.75391-0.93359-0.34375-0.95312 0.09375-1.0938 1.293-0.25391 1.168 1.0664 0.91406 0.43359 0.50391-0.99609 2.2188-0.0625 1.3711-0.35938 1.457-0.86719 0.95312-0.39453 0.73438-0.83203 0.30859-0.96094-0.26953-1.2383 0.23438-1.125-1.0547 0.3125-1.1328-0.78125-1.4102-0.74609-0.89062-0.87109-0.51562-1.2031-0.75781-1.0547-0.51562-1.0938-2.4258-0.18359-1.2344-0.1875-1.7148-0.11328-1.1406 0.52344-2.8477 0.42578-0.91016 0.71094-1.3516 0.58203-0.40234 0.95703-0.78906 1.0234 0.75391 1.1992 1.0234 0.51562-0.10156 1.1289-1.0859 0.17578-1.332 0.35547-1.3086-0.11719-1.1875-0.003906-1.4375 0.53125-0.61719 1.0742-0.22266 1.0781-1.8008-0.27734-1.1406-0.13281-1.0898-0.93359-0.98047-0.60547-1.6602 0.13281-1.2734-0.21094-0.93359-0.43359-1.3047-0.14453-2.7852-0.98438-0.89453-1.1055-0.96094-1.6289-0.67188-0.89844-0.41406-0.91016-0.56641-0.97656 0.92188-0.38672 0.98047 0.33984 1.1797 0.66016 1.1406 0.11719 0.41797-2.3477-0.5625-1.7227-1.3125-1.1172-1.207-1.1289-0.99609-0.26562-1.4375-0.042969-1.3516-0.98438 0.17969-1.1719 1.0508 0.023438 0.39062-0.98047 1.1367-0.41797 0.63281-1.1602-1.1406-2.2773-0.92578-0.84375-1.4648-0.44141-1.0312 0.054688-0.86328 1.1836-0.625 1.0234-1.5273-1.293-0.51172-0.97656-0.41016-1.7812 0.22656-1.207-0.23047-2.2422-0.32812-0.96484-1.4648-1.1953-0.53516-1.2773-1.9336-0.33594-1.0703-0.003906-0.40625 1.2812-1.1523 0.96875-1.957 0.83203-0.11719 0.99609 1.0703 0.21094 1.7266 0.77734 0.96875 0.86719 0.24219 0.98438-0.94922 0.83984-1.8711 0.38281-1.3125 0.32812-0.33594 1.0312 1.4062 1.5938 0.58203 0.86719 1.0547 0.60938 1.4648 0.94141 0.82031 0.75-0.51953 0.91016-2.1133-0.72266-1.5938-0.54297-1.625 0.18359-2.9297-0.26953-1.8281 0.64844-0.98828 0.86328-0.45312 1.4141 0.44141 0.98438 0.875 0.90625 0.73828 0.69141-1.6484 0.77344-1.5195 0.59766-1.7461-0.078125-1.6484-0.28125-1.0156-0.23828-1.9414 0.12109-1.9219 0.73438-0.80859 0.89844-0.20312 1.6797 1.1406 0.35156 0.97266 0.98438-0.76562 0.82422-1.2188-0.17969-1.043 0.019531-1.2188-0.41016-1.5469-1.082-1.7148-1.1523-0.73047-0.90234-0.44922-1.1836-0.5-1.5781-0.74609-1.2422-0.61328-1.1836-1.0195-0.78516-3.1367-0.91797-1.8281-0.23047-1.1367-0.49609 1.6133-0.29297 1.1992-0.66797 1.293 0.37109 0.089843-1.2969 0.51172-1.0039-1.0234-0.70703-1.0039-1.1445-0.40234-1.0547-0.93359-0.98438-1.1484 0.011719-0.87891-0.58594-1.6914 0.25391-0.89453 0.68359-1.8828-0.34766-1.3359-0.09375-1.8789-0.38281-1.0195-0.41406-0.32422-1.0703-1.2734-1.2969-1.0859-1.3906-1.2773-2.5391-1.2109-1.1094-0.63672-1.3672-0.69141-0.78516-1.1641-0.37891-1.0312 0.011719-1.1992-0.29688-1.0977 0.10156-1.2305 0.11719-1 0.69141-0.88281 0.84375 0.26562 1.7539 1.1016 1.3906 1.7773 1.5625 2.0078 1.6406 0.82422 1.043-1.5195 0.26172-1.4258 0.11719-0.74609 0.75-0.25 1.0078-0.36719 1.1094-1.7383-0.007813-2.0664-1.1211-2.0742-1.4531-0.87109-0.55078 0.94141-0.39844 0.70312-1.0156-0.375-1.5391-0.78125-1.3008-0.79297-0.94141 2.5742-0.37109 0.6875-1.3008 1.2031-0.57812 0.44922-1.168-0.5-1.5391-1.8516-1.2422-1.25-0.54688-1.0938-0.76953-1.7305-1.9883-0.83984-0.97266-1.6523-1.4258-0.98438-0.73047-1.0117-1.3086 1.457 0.41797 1.5 0.57031 1.4336 0.32422 1.3711 0.58984 2.457 0.95703 1.5039-0.074218 1.0156-1.1953 0.60938-2.0625-0.76562-1.875-0.12891-1.1523-1.1055-1.1133-0.67188-1.1172-0.23047-1.1953-0.25781-1.2344-0.52344-1.1953-1.3906-1.5469-0.94531-0.42578-1.1719-0.050781-1.5586-0.68359-2.2617-1.5664-1.8008-0.50391-0.53125-1.0195-0.33594-1.6211-1.293-3.0703-0.50391-1.6094-0.76562-1.4922-0.54297-1.6094-0.61719-1.4297-0.53125-0.86328-1.8828-2.3047-0.98828-1.3203-0.94141-1.3633-1.3047-1.5547-0.81641-1.1367-0.74219-1.2812 0.066406-1.2266 1.4219 1.2852 0.64453 0.80469 1.5273 1.7383 0.92578 0.79297 0.76953 0.75 1.0508 1.3242 0.79688 0.62109 0.91797 0.57812 2.3516 1.7812 2.1406 2.1484 1.7695 1.0977 0.96875 0.84375 1.9336 1.9688 1.1211 0.70703 1.625-0.39062-0.1875-1.4375-0.5625-1.582-0.57031-1.1875 0.10938-1.1289-0.55859-1.2734-0.82031-1-0.89844-1.1914-0.82031-1.1523-0.95312-0.83594-0.56641-1.3281-0.66016-1.4336-0.32422-1.1602-0.84375-1.1602-1.3242-0.57812-1.0469-0.79297-0.26953-1.0078 0.60547-2.3242 0.14062-1.6055 0.37891-1.1016-0.14844-1.1289 1.0703-0.8125 1.125-0.11328 0.11719-1.1133 0.41406-1.0664-1.4219 0.35938-0.95703-1.9375 0.59766-0.91406-0.082031-1.2617-1.7109-0.10938-1.1875 1.1406-1.043-0.023437-1.0078 0.22266-1.1094-0.1875-1.6797-0.097656-1.0898-0.35156-1.0586-0.47656-2.5781-0.10547-2.2344 0.33203-1.3281-0.48047-1.5938-0.89453-1.9883-1.2344-1.6758-0.71094-0.91797-1.1016-1.043-0.75391-0.16406-1.3203-0.77344-0.8125-1.5352-0.12109-0.63281-0.97266 0.16016-1.0625-0.042968-1.293-0.47266-1.1875-0.45703-1.5781 0.5-0.96875 1.0586-0.042969 0.91797 0.69922 1.7734 0.80469 1.4141 0.84375 2.8672 0.98047 1.5391 0.48828 2.0586-0.27734 1.2148-0.03125 1.957-0.95703 0.77734-1.0312 0.95703-1.2695 1.2188-1.957 2.0195-2.6992 1.1523-0.97266 1.0039-0.84766 1.6484-0.82031 2.5859-0.34375 1.9023 0.03125 1.8711 0.38672 2.0938 0.75 7.0391 2.918 3.5234 2.4141 2.1094 1.082 1.582 1.1094 3.3594 2.0508 3.4961 1.8594 2.1016 1.2969 3.3516 2.8086 5.0898 1.2891 3.0195 1.1367 2.4336 1.457 1.375 1.0078 3.2266 2.3711 8.2227 3.7422 8.0117 4.3281 8.5547 3.7383 3.9258 1.6992 1.7344 1.4414 4.1875 3.0078 5.9023 3.1992 4.2422 1.7773 2.4844 1.2578 1.207 0.26172 1.4062-0.027344 1.4922-0.25391 1.2422-0.20703 0.85156-0.69141 1.1836-0.96094-0.42188-1.207-0.48438-1.3789-0.86328-0.64453-0.32422-1.1875-0.46484-3.6523 0.45703-3.2383-0.42188-4.5625-0.51953-1.7109-0.69531-0.72266-2.3086-1.1602-0.48047-1.2812 0.089844-1.2383 1.0234-1.4258 2.8711-2.8086 6.3008-4.9492 3.7539-1.7891 2.1328-0.66406 1.3828-0.16406 3.1992-2.6016 0.83203-1.2812-0.125-3.1758 0.10938-1.6172 2.5977-5.2461 0.074219-1.9805-0.46094-2.582 0.88281-2.7461 1.1406-1.8672 1.2461-0.77734 1.2422-0.93359 1.6367-0.15234 1.0156 1.0547 0.82812 0.85547 1.3477 0.17969 1.832-0.64844 1.9961-0.77344 1.7734-0.27344 1.1758 0.42188 1.0039 0.94531 0.24219 1.168 1.0469 1.1055 0.77344 0.90625 0.98828 0.61328 1.1055 0.39062 0.86719 0.75391 1.9414 1.9648 1.2383 0.007812 0.98438 0.78516 1.7305 1.0586 0.94531 0.875 1.2773 2.4531 1.0664 1.4805 0.63281 1.0938 0.73438 1.5625 1.4648 1.75 1.5156 1.7578 1.5586 1.168 0.80859 0.60156 4.2305 0.63672 1.9531-0.25391 2.3281-0.63281 2.3672-1.082 1.3633-0.55859 2.1523-0.88672 2.4414-0.40625 2.4922-0.3125 1.1016-0.19531 1.2422 0.027344 1.1328 0.027344 1.7148-0.074219 2.4453-1.7969 1.5547-0.52734 1.4102 0.12109 2.9922 0.71875 3.832 1.1016 1.0547-0.21484 1.2422-0.41016-0.097656-6.4375 0.042969-6.8438 0.25391-1.8242 0.21094-1.5078 0.76562-1.4336 1.3867-2.6094 1.3906-1.918 1.6758-1.125 1.9375-0.57422 1.4375-0.55078 1.6523-0.8125 1.3867-0.38281 1.7969-0.14453 1.7695-1.3164 0.77734-0.76562 2.5312-3.2422 3.9922-2.418 1.1133-0.41016 5.6289-1.6211 1.5195-0.18359 2.8945-0.88672 1.9883-0.86328 3.5508-3.3164 1.3086-1.4102 2.4062-3.2266 1.4648-2.0781 1.375-2.5078 0.35156-3.9648 1.2891-0.3125 1.125-0.16016z" fill="#ccc" fill-rule="evenodd"/>
<path d="m272.79 63.504 0.44531 0.14062 1.4766 0.09375 0.99609 0.72266 1.2695 0.34375 0.98047 0.23438 1.1914 0.37891 1.0781-0.33203 1.0859-0.17188 1.2852-0.011719 1.0586-0.21875 1.0742 0.17969 2.0742 0.84375 1.2578-0.089843 1.4102 0.40234 1.4258 0.082032 1.6797 0.49219 0.96875 0.34375h1.0469l1.3555 0.33984 2.2031 0.55859 0.3125 1.3047-1.3945 2.8867-0.51562 1.7617-0.14453 2.4258-0.80469 2.1797-1.1289 2.1758-1.2656 1.2891-1.957 1.2969-2.7734 2.4102-2.6992 2.293-2.1172 0.16016-2.1055 1.8906-0.88281 1.207-1.6992 4.0195-1.043 1.2812-2.5312 1.7305-1.8906 0.82812-2.8086-2.1719-2.2188-0.78906-2.7773-0.3125-1.8711 0.625-0.5 1.4258 0.32812 1.1758 0.30859 2.0195-1.3516 2.6367-0.16797 1.3125 0.99219 8.4453 0.85547 4.8047 1.1836 1.2891 2.4219 1.2773 1.9336 1.6719 3.9805 4.25 0.33984 1.8047-0.73047 1.3281-0.83594 0.91016-3.5547 1.7812-5.0586 2.3906-1.2109 0.5-1.4531 0.9375-2.1094 1.3516-7.9023 7.4258-2.832 2.7852-2.1484 2.1094-1.0039 2.1875 0.23828 1.0586 6.4023 5.6289 2.293 1.7812 1.5469 1.2031 2.2891 1.3125 3.1836 2.0039 1.7305 1.7031 1.7227 2.6758 1.4766 3.0352 0.35547 1.668 0.074219 2.8164 0.52344 1.6875 1.0156 0.65625 3.9141-0.83984 2.9141-0.23438 3.9766-0.79688 5.1602-0.25391 3.8555-0.64844 1.0938 0.17578 3.0586 1.0938 3.4219 0.86719 7.5195 4.0703 3.0312 1.832 2.8242 2.7539 4.5156 3.7383 2.5391 2.6094 2.0469 3.0352 1.6211 2.3984 1.4141 1.9766 1.1992 1.4102 2.75 1.0586 1.5547 0.42578 1.6211 0.28125 2.4688 1.4805 6.2109 4.4453 3.9492 5.0078 2.2578 3.3164 1.5547 1.6328 0.64453 0.95312 0.69922 2.6953-0.46094 2.4727-0.39062 2.1055-0.38281 2.0547-0.058594 2.1289-0.03125 1.0625 0.75 0.86328 3.1602 1.9531 3.0039 1.4219 2.4766 3.2969 1.2227 0.72266h1.0039l3.3438-1.3086 0.79297-0.61719 1.4961-1.1719 1.5781-1.5469 1.3633-1.0664 1.5273-0.53125 1.9766 0.71094 3.0586 2.5781 1.0195 0.53516 1.7578 0.39844h5.2031l2.418-0.28906 2.0977-0.32812 1.5508 0.039062 1.0117 0.53906 1.2656 1.1211 0.86719 0.61328 1.1211 0.39844 1.1914-0.39844 1.7266-0.59766 1.9219-0.91797 3.3594-1.4453 3.1055-1.7695 1.4297-0.94531 0.52344-1.1875 0.64844-1.5156 0.61328-1.3008 2.0234-2.0234 2.0586-1.8438 3.0156-1.9922 10.547 53.004 12.699 10.934 4.918 4.2344-8.543 18.711-12.762 8.8516-36.785-32.508-5.4219 9.9102-6.0625 6.043-2.0078 7.082-5.5 4.1367-2.7891 9.1328-5.3711-4.8242-2.332-3.1914-5.9883-5.3008-3.1641-3.7812-3.1367-2.6953-1.1562-0.77734-5.3438-3.1328-6.0586-3.2539-3.1797-1.9453-5.2734-2.8789-4.0156-2.3828-3.9922-0.75-1.9844-0.0625-2.3008-0.074219-2.0977-0.89844-1.5938-1.5547-2.0508-0.86328-0.68359-1 0.21484-2.1523 0.21094-2.1562-0.1875-1.5703-0.59766-0.93359-2.0586-0.86328-2.4688-0.55859-3.3281-0.48828-4.1523-1.1602-2.7656-0.93359-1.7969-0.97266-1.3086-0.71094-3.5508-1.4727-1.9727-1.1992-3.3281-1.6719-2.1367-0.93359-2.8125-1.5547-2.2617-2.2617-1.7461-1.5938-1.5234-0.79688-3.6289-1.8984-2.1523-0.84375-5.0742-3.2422-0.95703-0.49609-2.3867-0.59375-1.0859 0.17578-0.69922 0.78906-0.67969 1.4141-0.38672 1.6094-0.33984 2.4336-2.5469 5.2188-0.79688 1.5977-2.1562 2.8516-0.66406 1.707-0.375 0.96875-0.72266 2.4492-1.793 2.418-2.293 0.91406-3.6992 0.57812-1.0547 0.089844-1.1172 0.16406-1.2773-0.11328-2.2539-1.1172-1.5586-0.33203-1.6719 0.12109-1.2656-0.070312-1.5117-0.47266-1.5469-0.35156-1.6094 0.082031-0.92578 0.58203-0.91797 1.1562-1.0039 0.37109-1.2969 0.18359-1.0742-0.078125-1.8438-0.20312-1.1094-0.38281-1.3477-0.33203-3.0664-0.32422-1.2773 0.070313-2.9883-0.30859-1.3008-0.12109-1.9688 0.5-1.0273 0.41797-0.90625-1.2969-1.0508-0.52344-1.6289-0.10156-1.2188-0.64844-1.4375-1.3984-1.582-1.4531-1.7188-1.1641-0.93359-0.45312-0.95703-0.32031-1.2734-0.81641-1.2812-1.1992-1.2773-0.89844-1.7461 0.11719-1.2109-0.007812-1.9414-1.1523-0.73438-0.71484-0.71875-0.80859-1.1016-0.92578-0.64453-0.79297-0.20312-1.918 0.67578-1.3867 0.89453-0.48047 0.67188-1.3438 0.003906-1.3242-0.15234-1.0352-0.85547-0.75781-1.0078-0.41797-0.90234-0.625-1.6172 0.21484-0.61328 1.4375-0.5 1.2891-0.93359 0.74609-1.207 0.42969-0.98438 0.93359-2.8789-0.28906-1.2773-0.27344-1.8867-0.83984-0.84766-0.66797-1.0977-2.3281-0.98828-1.4727-0.81641-0.95312-1.3477-0.89453-1.5938-0.55469-1.3945-1.2266-1.707-2.207-2.2383-2.1016-1-0.70703-0.86328-0.93359-0.49219-1.1094-0.77734-1.0352-0.64453-1.1914-1.5781-1.4336-1.2031-0.85156-0.83594-1.0547 0.5625-1.043 1.2461 0.15234 1.7344 1.2617 1.6641-0.92578 1.043-0.70703-0.21094-1.6641-0.75391-0.93359-0.34375-0.95312 0.09375-1.0938 1.293-0.25391 1.168 1.0664 0.91406 0.43359 0.50391-0.99609 2.2188-0.0625 1.3711-0.35938 1.457-0.86719 0.95312-0.39453 0.73438-0.83203 0.30859-0.96094-0.26953-1.2383 0.23438-1.125-1.0547 0.3125-1.1328-0.78125-1.4102-0.74609-0.89062-0.87109-0.51562-1.2031-0.75781-1.0547-0.51562-1.0938-2.4258-0.18359-1.2344-0.1875-1.7148-0.11328-1.1406 0.52344-2.8477 0.42578-0.91016 0.71094-1.3516 0.58203-0.40234 0.95703-0.78906 1.0234 0.75391 1.1992 1.0234 0.51562-0.10156 1.1289-1.0859 0.17578-1.332 0.35547-1.3086-0.11719-1.1875-0.003906-1.4375 0.53125-0.61719 1.0742-0.22266 1.0781-1.8008-0.27734-1.1406-0.13281-1.0898-0.93359-0.98047-0.60547-1.6602 0.13281-1.2734-0.21094-0.93359-0.43359-1.3047-0.14453-2.7852-0.98438-0.89453-1.1055-0.96094-1.6289-0.67188-0.89844-0.41406-0.91016-0.56641-0.97656 0.92188-0.38672 0.98047 0.33984 1.1797 0.66016 1.1406 0.11719 0.41797-2.3477-0.5625-1.7227-1.3125-1.1172-1.207-1.1289-0.99609-0.26562-1.4375-0.042969-1.3516-0.98438 0.17969-1.1719 1.0508 0.023438 0.39062-0.98047 1.1367-0.41797 0.63281-1.1602-1.1406-2.2773-0.92578-0.84375-1.4648-0.44141-1.0312 0.054688-0.86328 1.1836-0.625 1.0234-1.5273-1.293-0.51172-0.97656-0.41016-1.7812 0.22656-1.207-0.23047-2.2422-0.32812-0.96484-1.4648-1.1953-0.53516-1.2773-1.9336-0.33594-1.0703-0.003906-0.40625 1.2812-1.1523 0.96875-1.957 0.83203-0.11719 0.99609 1.0703 0.21094 1.7266 0.77734 0.96875 0.86719 0.24219 0.98438-0.94922 0.83984-1.8711 0.38281-1.3125 0.32812-0.33594 1.0312 1.4062 1.5938 0.58203 0.86719 1.0547 0.60938 1.4648 0.94141 0.82031 0.75-0.51953 0.91016-2.1133-0.72266-1.5938-0.54297-1.625 0.18359-2.9297-0.26953-1.8281 0.64844-0.98828 0.86328-0.45312 1.4141 0.44141 0.98438 0.875 0.90625 0.73828 0.69141-1.6484 0.77344-1.5195 0.59766-1.7461-0.078125-1.6484-0.28125-1.0156-0.23828-1.9414 0.12109-1.9219 0.73438-0.80859 0.89844-0.20312 1.6797 1.1406 0.35156 0.97266 0.98438-0.76562 0.82422-1.2188-0.17969-1.043 0.019531-1.2188-0.41016-1.5469-1.082-1.7148-1.1523-0.73047-0.90234-0.44922-1.1836-0.5-1.5781-0.74609-1.2422-0.61328-1.1836-1.0195-0.78516-3.1367-0.91797-1.8281-0.23047-1.1367-0.49609 1.6133-0.29297 1.1992-0.66797 1.293 0.37109 0.089843-1.2969 0.51172-1.0039-1.0234-0.70703-1.0039-1.1445-0.40234-1.0547-0.93359-0.98438-1.1484 0.011719-0.87891-0.58594-1.6914 0.25391-0.89453 0.68359-1.8828-0.34766-1.3359-0.09375-1.8789-0.38281-1.0195-0.41406-0.32422-1.0703-1.2734-1.2969-1.0859-1.3906-1.2773-2.5391-1.2109-1.1094-0.63672-1.3672-0.69141-0.78516-1.1641-0.37891-1.0312 0.011719-1.1992-0.29688-1.0977 0.10156-1.2305 0.11719-1 0.69141-0.88281 0.84375 0.26562 1.7539 1.1016 1.3906 1.7773 1.5625 2.0078 1.6406 0.82422 1.043-1.5195 0.26172-1.4258 0.11719-0.74609 0.75-0.25 1.0078-0.36719 1.1094-1.7383-0.007813-2.0664-1.1211-2.0742-1.4531-0.87109-0.55078 0.94141-0.39844 0.70312-1.0156-0.375-1.5391-0.78125-1.3008-0.79297-0.94141 2.5742-0.37109 0.6875-1.3008 1.2031-0.57812 0.44922-1.168-0.5-1.5391-1.8516-1.2422-1.25-0.54688-1.0938-0.76953-1.7305-1.9883-0.83984-0.97266-1.6523-1.4258-0.98438-0.73047-1.0117-1.3086 1.457 0.41797 1.5 0.57031 1.4336 0.32422 1.3711 0.58984 2.457 0.95703 1.5039-0.074218 1.0156-1.1953 0.60938-2.0625-0.76562-1.875-0.12891-1.1523-1.1055-1.1133-0.67188-1.1172-0.23047-1.1953-0.25781-1.2344-0.52344-1.1953-1.3906-1.5469-0.94531-0.42578-1.1719-0.050781-1.5586-0.68359-2.2617-1.5664-1.8008-0.50391-0.53125-1.0195-0.33594-1.6211-1.293-3.0703-0.50391-1.6094-0.76562-1.4922-0.54297-1.6094-0.61719-1.4297-0.53125-0.86328-1.8828-2.3047-0.98828-1.3203-0.94141-1.3633-1.3047-1.5547-0.81641-1.1367-0.74219-1.2812 0.066406-1.2266 1.4219 1.2852 0.64453 0.80469 1.5273 1.7383 0.92578 0.79297 0.76953 0.75 1.0508 1.3242 0.79688 0.62109 0.91797 0.57812 2.3516 1.7812 2.1406 2.1484 1.7695 1.0977 0.96875 0.84375 1.9336 1.9688 1.1211 0.70703 1.625-0.39062-0.1875-1.4375-0.5625-1.582-0.57031-1.1875 0.10938-1.1289-0.55859-1.2734-0.82031-1-0.89844-1.1914-0.82031-1.1523-0.95312-0.83594-0.56641-1.3281-0.66016-1.4336-0.32422-1.1602-0.84375-1.1602-1.3242-0.57812-1.0469-0.79297-0.26953-1.0078 0.60547-2.3242 0.14062-1.6055 0.37891-1.1016-0.14844-1.1289 1.0703-0.8125 1.125-0.11328 0.11719-1.1133 0.41406-1.0664-1.4219 0.35938-0.95703-1.9375 0.59766-0.91406-0.082031-1.2617-1.7109-0.10938-1.1875 1.1406-1.043-0.023437-1.0078 0.22266-1.1094-0.1875-1.6797-0.097656-1.0898-0.35156-1.0586-0.47656-2.5781-0.10547-2.2344 0.33203-1.3281-0.48047-1.5938-0.89453-1.9883-1.2344-1.6758-0.71094-0.91797-1.1016-1.043-0.75391-0.16406-1.3203-0.77344-0.8125-1.5352-0.12109-0.63281-0.97266 0.16016-1.0625-0.042968-1.293-0.47266-1.1875-0.45703-1.5781 0.5-0.96875 1.0586-0.042969 0.91797 0.69922 1.7734 0.80469 1.4141 0.84375 2.8672 0.98047 1.5391 0.48828 2.0586-0.27734 1.2148-0.03125 1.957-0.95703 0.77734-1.0312 0.95703-1.2695 1.2188-1.957 2.0195-2.6992 1.1523-0.97266 1.0039-0.84766 1.6484-0.82031 2.5859-0.34375 1.9023 0.03125 1.8711 0.38672 2.0938 0.75 7.0391 2.918 3.5234 2.4141 2.1094 1.082 1.582 1.1094 3.3594 2.0508 3.4961 1.8594 2.1016 1.2969 3.3516 2.8086 5.0898 1.2891 3.0195 1.1367 2.4336 1.457 1.375 1.0078 3.2266 2.3711 8.2227 3.7422 8.0117 4.3281 8.5547 3.7383 3.9258 1.6992 1.7344 1.4414 4.1875 3.0078 5.9023 3.1992 4.2422 1.7773 2.4844 1.2578 1.207 0.26172 1.4062-0.027344 1.4922-0.25391 1.2422-0.20703 0.85156-0.69141 1.1836-0.96094-0.42188-1.207-0.48438-1.3789-0.86328-0.64453-0.32422-1.1875-0.46484-3.6523 0.45703-3.2383-0.42188-4.5625-0.51953-1.7109-0.69531-0.72266-2.3086-1.1602-0.48047-1.2812 0.089844-1.2383 1.0234-1.4258 2.8711-2.8086 6.3008-4.9492 3.7539-1.7891 2.1328-0.66406 1.3828-0.16406 3.1992-2.6016 0.83203-1.2812-0.125-3.1758 0.10938-1.6172 2.5977-5.2461 0.074219-1.9805-0.46094-2.582 0.88281-2.7461 1.1406-1.8672 1.2461-0.77734 1.2422-0.93359 1.6367-0.15234 1.0156 1.0547 0.82812 0.85547 1.3477 0.17969 1.832-0.64844 1.9961-0.77344 1.7734-0.27344 1.1758 0.42188 1.0039 0.94531 0.24219 1.168 1.0469 1.1055 0.77344 0.90625 0.98828 0.61328 1.1055 0.39062 0.86719 0.75391 1.9414 1.9648 1.2383 0.007812 0.98438 0.78516 1.7305 1.0586 0.94531 0.875 1.2773 2.4531 1.0664 1.4805 0.63281 1.0938 0.73438 1.5625 1.4648 1.75 1.5156 1.7578 1.5586 1.168 0.80859 0.60156 4.2305 0.63672 1.9531-0.25391 2.3281-0.63281 2.3672-1.082 1.3633-0.55859 2.1523-0.88672 2.4414-0.40625 2.4922-0.3125 1.1016-0.19531 1.2422 0.027344 1.1328 0.027344 1.7148-0.074219 2.4453-1.7969 1.5547-0.52734 1.4102 0.12109 2.9922 0.71875 3.832 1.1016 1.0547-0.21484 1.2422-0.41016-0.097656-6.4375 0.042969-6.8438 0.25391-1.8242 0.21094-1.5078 0.76562-1.4336 1.3867-2.6094 1.3906-1.918 1.6758-1.125 1.9375-0.57422 1.4375-0.55078 1.6523-0.8125 1.3867-0.38281 1.7969-0.14453 1.7695-1.3164 0.77734-0.76562 2.5312-3.2422 3.9922-2.418 1.1133-0.41016 5.6289-1.6211 1.5195-0.18359 2.8945-0.88672 1.9883-0.86328 3.5508-3.3164 1.3086-1.4102 2.4062-3.2266 1.4648-2.0781 1.375-2.5078 0.35156-3.9648 1.2891-0.3125 1.125-0.16016 0.63281 0.10938" fill="none" stroke="#fff" stroke-linecap="round" stroke-linejoin="round" stroke-miterlimit="10" stroke-width="2"/>
<path d="m318.64 293.83 5.2734 2.8789 3.1797 1.9453 6.0586 3.2539 4.6914 2.6914 1.8086 1.2188 3.1367 2.6953 3.1641 3.7812 5.9883 5.3008 2.332 3.1914 5.3711 4.8242 2.5898 3.7539 5.1836 5.5078 1.7852 2.3047 1.6484 1.8945-1.2578 0.44531-9.25 4.207-1.5391 0.67969-0.82812 0.88672 0.26172 1.5938 2.3711 1.418 1.3164 1.9258 0.46875 2.9414 0.046875 2.168 0.19922 1.4844-0.11328 1.1484-3.1172 3.1172-2.6797 4.5039 0.28516 4.707-2.7305 3.2578-4.2891 5.5117-4.5586 5.6016-1.1133 1.3672-2.7305 1.793-0.42969 1.3672-0.85938 1.2891-1.6953 0.14453-0.83203-0.67188-1.0117-0.51953-1.9219-0.50391-1.4688 0.21094-1.0586 0.042968-1.4688-0.32031-1.5703-1.8359-0.98438-0.30859-1.3906-0.43359-1.0273-0.48438-1.082-0.64062-1.8164-0.60547-1.4102-0.035156-1.6055-0.22656-1.0898-0.33984-1.8125-0.32422-1.3242-0.11328-1.1445-0.5625-1.082-0.67578-0.88281-0.8125-0.52734-0.90625 1.3242-0.41406 0.98438-1.0156 0.21484-1.2539-1.3984-2.3828-0.85938-0.90625-1.2695-0.49609-2.332 0.73047-1.4453 0.63672-1.1055 0.082031-1.3086-0.32422-1.1641-0.011718-0.89453-0.68359-1.5-0.43359-1.7266-0.99219-1.1602-1.1055-0.28125-0.97656-0.73047-1.1094-0.51562-0.87891-1.3867-1.3672-1.9492-0.69922-2.1172-0.33203-2.6602-0.35156-1.0117-0.41797-0.86719-0.71484-1.4648-0.98438-2.793-1.3047-1.1133-0.92969-0.82812-0.89453-0.96094-0.92969-0.11719-1.3984-0.007812-1.0742 0.34375-1.1836 0.71094-1.6641 0.67969-1.0312 0.83984-0.94531 0.94922 0.62891 0.44922 1.1562 0.60547 0.92969 0.88672 0.52344 1.1914-0.33984 0.8125-1.3828 0.26953-1.2422 0.91016-1.0781 1.2617-0.625 1.6445-0.64062 0.72656-1.1875-0.22266-1.1328-0.64062-2.1562 0.38281-1.0391 1.3281-0.35938 1.4023 0.15234 1.2734-0.13281 0.80859-1.375-0.29688-1.4922-0.72656-0.99219-0.62891-0.98047-0.71875-1.1641-0.57812-1.9727-0.51562-1.4336 1.0859-0.75 2.1016 1.082 1.4727 2.0117 0.41016 1.2266-0.14453 1.1719 0.24219 1.3086 0.79297 0.84375 1.3008 0.53125 0.19922 1.1367-0.82031 0.95312 0.22656 1.0469 1.5938 0.85938 1.5586 1.5547 0.37891 1.168-0.82031 0.83594-1.1367 0.30078-2.4297 0.003907-0.94531 0.63281 0.019531 1.1133-0.26562 1 0.26953 1.2656 0.76562 0.82031 1.1055-0.21094 0.98047 0.51953 1.293-0.16797 1.2031-0.375 2.0859-0.88281 0.19922-1.6641-0.17578-1.0547 0.42969-1.0234 1.5352-0.25 1.3008 0.8125 0.89062 1.5156-0.875 1.2617 0.097657 1.6289 0.72266 0.78516 0.78906 1.4219 0.72266 0.77734 0.76953 1.043-0.43359 1.3945-1.7148 1.4023-0.74609 1.1836-0.51953 1.5273-0.41406 1.5859 1.4102 1.0977 1.1602 0.050781 0.97656 0.30859 0.95703-1.2031 0.42188-0.95703 0.94922-1.0156 0.625-1.1797 0.41797-1.7734 1.0234-0.45312 1.0781 0.70703 0.29297 1.3984 0.40234 1.0781 1.2617-0.10156 1.8398-0.71875 0.17188-1.0156-1.4883-1.1602-0.86719-0.84766-1-0.58984-1.1836-0.94531-0.96484-1.1523-0.99609-0.5-1.4258-1.2852-0.98438-0.98438-0.31641-1.5703 0.73047-0.97656 1.0625-0.87891-0.17188-1.0078 1.2773-0.011718 1.2461-0.40234 0.78516-0.72266 0.24609-1.0781-1.3438-1.7109-0.035156-1.1953-1.1289-0.21094-0.79297-1.0938-0.32422-1.4141-0.88672-1.6289 1.2695-0.55078 0.94922-1.2461-0.6875-1.3789-0.53125-0.87891-0.64062-1.0352 1.3711-1.1562 1.0938-0.45703 0.85156-1.5625 0.097657-2.4844-0.31641-1.1953-0.80469-0.89453-1.0977-0.91406-1.1562-0.98047-2.3438-2.8984-1.2344-1.9375-0.16406-1.7773 0.9375-2.2852 0.22266-1.2031 0.03125-1.4102-0.26172-1.1602-0.8125-0.88281-1.8984-1.2031-1.0469-0.19141-1.3086-0.62109-1.8906-0.47266-1.0352-0.375-1.0977-0.65234-1.2578-0.60156-1.3203-1.3281-0.54297-0.89844 0.14062-1.5469-0.42188-0.98828-0.007812-1.1562 0.97266-1.5703 0.98828-0.45312 1.7383-0.65234 1.2695 0.011719 1.7188-0.30469h1.7305l1.832 0.73438 1.0352 0.3125 1.1094 0.10156 1.7695 0.50391 1.7305 0.21875 0.69531-0.83203 0.99609-0.30469 0.070313-1.0469-0.3125-1.2773-0.089844-1.1562 0.23047-1.125-0.17969-1.4102-0.48438-1.1445 0.12109-1.4688 0.26953-1.0391z" fill="#0a5394" fill-rule="evenodd"/>
<path d="m318.64 293.83 5.2734 2.8789 3.1797 1.9453 6.0586 3.2539 4.6914 2.6914 1.8086 1.2188 3.1367 2.6953 3.1641 3.7812 5.9883 5.3008 2.332 3.1914 5.3711 4.8242 2.5898 3.7539 5.1836 5.5078 1.7852 2.3047 1.6484 1.8945-1.2578 0.44531-9.25 4.207-1.5391 0.67969-0.82812 0.88672 0.26172 1.5938 2.3711 1.418 1.3164 1.9258 0.46875 2.9414 0.046875 2.168 0.19922 1.4844-0.11328 1.1484-3.1172 3.1172-2.6797 4.5039 0.28516 4.707-2.7305 3.2578-4.2891 5.5117-4.5586 5.6016-1.1133 1.3672-2.7305 1.793-0.42969 1.3672-0.85938 1.2891-1.6953 0.14453-0.83203-0.67188-1.0117-0.51953-1.9219-0.50391-1.4688 0.21094-1.0586 0.042968-1.4688-0.32031-1.5703-1.8359-0.98438-0.30859-1.3906-0.43359-1.0273-0.48438-1.082-0.64062-1.8164-0.60547-1.4102-0.035156-1.6055-0.22656-1.0898-0.33984-1.8125-0.32422-1.3242-0.11328-1.1445-0.5625-1.082-0.67578-0.88281-0.8125-0.52734-0.90625 1.3242-0.41406 0.98438-1.0156 0.21484-1.2539-1.3984-2.3828-0.85938-0.90625-1.2695-0.49609-2.332 0.73047-1.4453 0.63672-1.1055 0.082031-1.3086-0.32422-1.1641-0.011718-0.89453-0.68359-1.5-0.43359-1.7266-0.99219-1.1602-1.1055-0.28125-0.97656-0.73047-1.1094-0.51562-0.87891-1.3867-1.3672-1.9492-0.69922-2.1172-0.33203-2.6602-0.35156-1.0117-0.41797-0.86719-0.71484-1.4648-0.98438-2.793-1.3047-1.1133-0.92969-0.82812-0.89453-0.96094-0.92969-0.11719-1.3984-0.007812-1.0742 0.34375-1.1836 0.71094-1.6641 0.67969-1.0312 0.83984-0.94531 0.94922 0.62891 0.44922 1.1562 0.60547 0.92969 0.88672 0.52344 1.1914-0.33984 0.8125-1.3828 0.26953-1.2422 0.91016-1.0781 1.2617-0.625 1.6445-0.64062 0.72656-1.1875-0.22266-1.1328-0.64062-2.1562 0.38281-1.0391 1.3281-0.35938 1.4023 0.15234 1.2734-0.13281 0.80859-1.375-0.29688-1.4922-0.72656-0.99219-0.62891-0.98047-0.71875-1.1641-0.57812-1.9727-0.51562-1.4336 1.0859-0.75 2.1016 1.082 1.4727 2.0117 0.41016 1.2266-0.14453 1.1719 0.24219 1.3086 0.79297 0.84375 1.3008 0.53125 0.19922 1.1367-0.82031 0.95312 0.22656 1.0469 1.5938 0.85938 1.5586 1.5547 0.37891 1.168-0.82031 0.83594-1.1367 0.30078-2.4297 0.003907-0.94531 0.63281 0.019531 1.1133-0.26562 1 0.26953 1.2656 0.76562 0.82031 1.1055-0.21094 0.98047 0.51953 1.293-0.16797 1.2031-0.375 2.0859-0.88281 0.19922-1.6641-0.17578-1.0547 0.42969-1.0234 1.5352-0.25 1.3008 0.8125 0.89062 1.5156-0.875 1.2617 0.097657 1.6289 0.72266 0.78516 0.78906 1.4219 0.72266 0.77734 0.76953 1.043-0.43359 1.3945-1.7148 1.4023-0.74609 1.1836-0.51953 1.5273-0.41406 1.5859 1.4102 1.0977 1.1602 0.050781 0.97656 0.30859 0.95703-1.2031 0.42188-0.95703 0.94922-1.0156 0.625-1.1797 0.41797-1.7734 1.0234-0.45312 1.0781 0.70703 0.29297 1.3984 0.40234 1.0781 1.2617-0.10156 1.8398-0.71875 0.17188-1.0156-1.4883-1.1602-0.86719-0.84766-1-0.58984-1.1836-0.94531-0.96484-1.1523-0.99609-0.5-1.4258-1.2852-0.98438-0.98438-0.31641-1.5703 0.73047-0.97656 1.0625-0.87891-0.17188-1.0078 1.2773-0.011718 1.2461-0.40234 0.78516-0.72266 0.24609-1.0781-1.3438-1.7109-0.035156-1.1953-1.1289-0.21094-0.79297-1.0938-0.32422-1.4141-0.88672-1.6289 1.2695-0.55078 0.94922-1.2461-0.6875-1.3789-0.53125-0.87891-0.64062-1.0352 1.3711-1.1562 1.0938-0.45703 0.85156-1.5625 0.097657-2.4844-0.31641-1.1953-0.80469-0.89453-1.0977-0.91406-1.1562-0.98047-2.3438-2.8984-1.2344-1.9375-0.16406-1.7773 0.9375-2.2852 0.22266-1.2031 0.03125-1.4102-0.26172-1.1602-0.8125-0.88281-1.8984-1.2031-1.0469-0.19141-1.3086-0.62109-1.8906-0.47266-1.0352-0.375-1.0977-0.65234-1.2578-0.60156-1.3203-1.3281-0.54297-0.89844 0.14062-1.5469-0.42188-0.98828-0.007812-1.1562 0.97266-1.5703 0.98828-0.45312 1.7383-0.65234 1.2695 0.011719 1.7188-0.30469h1.7305l1.832 0.73438 1.0352 0.3125 1.1094 0.10156 1.7695 0.50391 1.7305 0.21875 0.69531-0.83203 0.99609-0.30469 0.070313-1.0469-0.3125-1.2773-0.089844-1.1562 0.23047-1.125-0.17969-1.4102-0.48438-1.1445 0.12109-1.4688 0.26953-1.0391 4.0156 2.3828" fill="none" stroke="#fff" stroke-linecap="round" stroke-linejoin="round" stroke-miterlimit="10"/>
<path d="m329.63 367.98c0 3.5898-2.9102 6.5-6.5 6.5-3.5898 0-6.5-2.9102-6.5-6.5s2.9102-6.5 6.5-6.5c3.5898 0 6.5 2.9102 6.5 6.5" fill="#28c028" fill-rule="evenodd" stroke="#000" stroke-linecap="round" stroke-linejoin="round" stroke-miterlimit="10"/>
<path d="m250.97 361.98v-13.672h-4.875v-2.7969h13.078v2.7969h-4.875v13.672zm10.25 0v-16.469h3.3125v16.469zm6.5781 0v-16.328h3.3281v13.547h8.2656v2.7812zm28.797 0h-3.6094l-1.4375-3.7344h-6.5781l-1.3594 3.7344h-3.5312l6.4062-16.469h3.5156zm-6.1094-6.5156-2.2812-6.1094-2.2188 6.1094zm7.9688 6.5156v-16.328h3.3281v13.547h8.2656v2.7812zm13.859 0v-16.469h3.3125v16.469zm0 0" fill="none" stroke="#fff" stroke-linecap="round" stroke-linejoin="round" stroke-miterlimit="10" stroke-width="2"/>
<path d="m250.97 361.98v-13.672h-4.875v-2.7969h13.078v2.7969h-4.875v13.672zm10.25 0v-16.469h3.3125v16.469zm6.5781 0v-16.328h3.3281v13.547h8.2656v2.7812zm28.797 0h-3.6094l-1.4375-3.7344h-6.5781l-1.3594 3.7344h-3.5312l6.4062-16.469h3.5156zm-6.1094-6.5156-2.2812-6.1094-2.2188 6.1094zm7.9688 6.5156v-16.328h3.3281v13.547h8.2656v2.7812zm13.859 0v-16.469h3.3125v16.469z" fill-rule="evenodd"/>
</g>
</svg>
