<?xml version="1.0" encoding="UTF-8"?>
<svg width="500pt" height="410pt" version="1.1" viewBox="0 0 500 410" xmlns="http://www.w3.org/2000/svg">
<g id="a">
<rect width="500" height="410" fill="none"/>
<path d="m361.55 137.93 0.61719 0.73828 1.2344 2.8438 1.2148 1.9727 0.84766 1.5703 0.35547 1.0586 0.53516 2.1289-0.35547 1.5859 0.44141 1.3438 2.5391 4.0234 0.51172 1.0664 0.73047 1.0039 0.83203 1.625 0.82031 1.0586 0.53516 1.0547 1.6406 2.4219 1.5156 2.6992-1.2266 1.5469-0.95312 1.2422-1.0078 1.2578-0.98438 1.1172-0.68359 0.85938-0.86328 1.0352-0.66406 0.85547-1.1445 1.4961-0.60938 0.85938-0.66016 0.78906 0.31641 1.2578 1.6758 0.73047 1.1953-0.050781 0.97656 0.23047-1.0352 1.0586 0.73438 0.71875-0.86719 0.50781 0.50781 0.91406-0.30078 1.1094-0.20703 1.0156-0.56641 1.0195 0.10547 1.1016-0.75781 0.87891-1.1484 0.41797-0.99609 0.90625-1.0234 0.32031-1.043 0.070312-1.1133 0.49609-0.59375 1.3047-0.84375 1.0078-1.0547-0.23828-0.1875 1.1367-0.76953 0.80469-0.71094 0.97656-0.92578-0.49219 0.27734 1.1172-0.68359 0.82812-0.62109 0.88281-1.0039 0.14062-0.22266 1.0234-1.1367-0.16797-0.79688 0.91797 0.042969 1.0469-1.1055 0.097657-1.0625 0.011718-1.0898-0.078125-0.98828 0.53906-0.75391 1.0039-0.050782 1.0039-0.48828 0.97266-0.90234 0.53125-0.45312 1.0703h-1.5469l-1.0117 0.078125-1.4336-0.29688-1.3594-0.75-2.0859-0.26562-1.2539 0.91406-0.64062 0.94531-0.82031 2.2852-1.0391 4.332-0.94531 1.5859-1.0469 0.78125-0.92188 0.55078-1.1133 0.28516-1.2227-0.20312-0.99219-0.29297-1.0156-0.17578-0.80859 0.70312-0.61719 0.84375-0.37891 1.1094-0.71875 0.70703-1.0898 0.4375-1.1445 0.49219-0.37891 1.082-0.19141 1.0195-1.2188 1.8477-0.39062 1.2773-1.5 1.082-1.2617 1.2852-0.51562 1.2812-0.28516 1.0117-0.99609 0.70703-0.63281 0.89062-0.4375 0.99609-0.21094 1.0312-0.92188 0.85156-0.66406 1.0117-0.25 1.1016-1.0508 0.36719-0.75 0.66406-0.67969 0.99609-3.9023-3.4922-0.89844-0.63281-1-0.48438-1.0664-0.28516-1.5625-0.003906-1.0859-0.078125-2.3945-0.19531-3.375-0.38672-1 0.13281-1.6602 0.375-1.5234 0.55078-1.4648 1.1602-0.85547 0.875-2.6484 2.1719-1.9219 0.60938-1.0078 0.15234-1.3125 0.11719-1.8555 0.375-1.6406 1.0312-1.2305 0.47656-0.93359-0.37891-1.0938-1.8359-0.22656-1.1367-0.089843-2.543 0.070312-1.6211 0.4375-1.6133 0.84766-1.0977 1.0391-0.92969 1.4883-0.9375 1.2539-0.96484 1.6289-1.6055 0.46875-1.4453 0.019531-1.3359 1.3516-2.793 0.72266-1.0156 0.75-1.2969 1.793-2.625 1.2617-0.96094 1.4648-0.12891 1.3281 0.23828 1.2617-0.17969 1.5977-0.69141 1.1758-0.58203 1.0078-1.2109 0.59766-1.1367 0.94141-2.7891 0.76953-2.1289 0.50391-1.2461 0.39453-1.5781 0.15234-1.0742-0.50391-1.5586-0.85547-1.0078-2.0547-0.34375-0.84766-0.82422-0.003906-1.3711 0.72656-1.9961 0.71875-2.4883 0.76562-1.0625 0.94922-1.1016 2.2695-0.61719h1.3164l1.0352-0.25781 0.85547-1.4766-0.019531-1.332-0.29688-1.6367-0.90625-2.3086-0.20703-1.6602 0.18359-1.2617 0.23047-1.6172-0.027343-1.332-0.66016-0.89844 0.34375-0.98828 0.10938-1.1094 1.1953-0.69141 1.1953-0.097656 0.73828-0.69922 0.13281-1.0117 0.10547-1.3164 0.34766-0.94922 0.8125-0.73438 0.21484-0.98828 0.93359-0.45312 1.5977 0.27344 1.2891 0.21094 0.59766-0.96875 0.81641-0.75781 0.5-1.0664 0.45703-1.1055 1.1836-0.50781 0.92578-0.80859 0.84766-0.80469 0.40234-0.92188-0.125-1.0938 1.0312-0.34766 1.3047-0.27734 1.1211-0.14062 1.0117 0.23047 0.6875-0.89453 0.83984-0.90234 1.0938-0.40234 0.26562-1.1758 0.18359-1.0625 0.097656-1.0234 0.94531-0.86328 0.33203-1.2188 0.74609-0.71875 0.66797-0.76172 0.25781-1.1562 0.80859-0.73828 1-0.32812 0.99609-0.37891 0.87109-0.86719 0.57031-1.2656 0.82812-0.72656 1.207 0.13281 0.64844 2.2578 0.53516 2.0312 1.4414 1.9453 2.3242 2.2461 1.0078-0.73828 1.3086-1.0586 1.875-1.4883 1.1523-0.9375 1.2383-0.95312 1.2227-0.77344 1.3906-0.87891 1.1133-0.95312 0.73438-0.69531 1.6367-1.1328 1.2734-0.9375 1.2227-1.1172 1.9648-1.4062 1.2227-0.82031 1.1133-0.41406 1.0156-0.65625z" fill="#ccc" fill-rule="evenodd"/>
<path d="m361.55 137.93 0.61719 0.73828 1.2344 2.8438 1.2148 1.9727 0.84766 1.5703 0.35547 1.0586 0.53516 2.1289-0.35547 1.5859 0.44141 1.3438 2.5391 4.0234 0.51172 1.0664 0.73047 1.0039 0.83203 1.625 0.82031 1.0586 0.53516 1.0547 1.6406 2.4219 1.5156 2.6992-1.2266 1.5469-0.95312 1.2422-1.0078 1.2578-0.98438 1.1172-0.68359 0.85938-0.86328 1.0352-0.66406 0.85547-1.1445 1.4961-0.60938 0.85938-0.66016 0.78906 0.31641 1.2578 1.6758 0.73047 1.1953-0.050781 0.97656 0.23047-1.0352 1.0586 0.73438 0.71875-0.86719 0.50781 0.50781 0.91406-0.30078 1.1094-0.20703 1.0156-0.56641 1.0195 0.10547 1.1016-0.75781 0.87891-1.1484 0.41797-0.99609 0.90625-1.0234 0.32031-1.043 0.070312-1.1133 0.49609-0.59375 1.3047-0.84375 1.0078-1.0547-0.23828-0.1875 1.1367-0.76953 0.80469-0.71094 0.97656-0.92578-0.49219 0.27734 1.1172-0.68359 0.82812-0.62109 0.88281-1.0039 0.14062-0.22266 1.0234-1.1367-0.16797-0.79688 0.91797 0.042969 1.0469-1.1055 0.097657-1.0625 0.011718-1.0898-0.078125-0.98828 0.53906-0.75391 1.0039-0.050782 1.0039-0.48828 0.97266-0.90234 0.53125-0.45312 1.0703h-1.5469l-1.0117 0.078125-1.4336-0.29688-1.3594-0.75-2.0859-0.26562-1.2539 0.91406-0.64062 0.94531-0.82031 2.2852-1.0391 4.332-0.94531 1.5859-1.0469 0.78125-0.92188 0.55078-1.1133 0.28516-1.2227-0.20312-0.99219-0.29297-1.0156-0.17578-0.80859 0.70312-0.61719 0.84375-0.37891 1.1094-0.71875 0.70703-1.0898 0.4375-1.1445 0.49219-0.37891 1.082-0.19141 1.0195-1.2188 1.8477-0.39062 1.2773-1.5 1.082-1.2617 1.2852-0.51562 1.2812-0.28516 1.0117-0.99609 0.70703-0.63281 0.89062-0.4375 0.99609-0.21094 1.0312-0.92188 0.85156-0.66406 1.0117-0.25 1.1016-1.0508 0.36719-0.75 0.66406-0.67969 0.99609-3.9023-3.4922-0.89844-0.63281-1-0.48438-1.0664-0.28516-1.5625-0.003906-1.0859-0.078125-2.3945-0.19531-3.375-0.38672-1 0.13281-1.6602 0.375-1.5234 0.55078-1.4648 1.1602-0.85547 0.875-2.6484 2.1719-1.9219 0.60938-1.0078 0.15234-1.3125 0.11719-1.8555 0.375-1.6406 1.0312-1.2305 0.47656-0.93359-0.37891-1.0938-1.8359-0.22656-1.1367-0.089843-2.543 0.070312-1.6211 0.4375-1.6133 0.84766-1.0977 1.0391-0.92969 1.4883-0.9375 1.2539-0.96484 1.6289-1.6055 0.46875-1.4453 0.019531-1.3359 1.3516-2.793 0.72266-1.0156 0.75-1.2969 1.793-2.625 1.2617-0.96094 1.4648-0.12891 1.3281 0.23828 1.2617-0.17969 1.5977-0.69141 1.1758-0.58203 1.0078-1.2109 0.59766-1.1367 0.94141-2.7891 0.76953-2.1289 0.50391-1.2461 0.39453-1.5781 0.15234-1.0742-0.50391-1.5586-0.85547-1.0078-2.0547-0.34375-0.84766-0.82422-0.003906-1.3711 0.72656-1.9961 0.71875-2.4883 0.76562-1.0625 0.94922-1.1016 2.2695-0.61719h1.3164l1.0352-0.25781 0.85547-1.4766-0.019531-1.332-0.29688-1.6367-0.90625-2.3086-0.20703-1.6602 0.18359-1.2617 0.23047-1.6172-0.027343-1.332-0.66016-0.89844 0.34375-0.98828 0.10938-1.1094 1.1953-0.69141 1.1953-0.097656 0.73828-0.69922 0.13281-1.0117 0.10547-1.3164 0.34766-0.94922 0.8125-0.73438 0.21484-0.98828 0.93359-0.45312 1.5977 0.27344 1.2891 0.21094 0.59766-0.96875 0.81641-0.75781 0.5-1.0664 0.45703-1.1055 1.1836-0.50781 0.92578-0.80859 0.84766-0.80469 0.40234-0.92188-0.125-1.0938 1.0312-0.34766 1.3047-0.27734 1.1211-0.14062 1.0117 0.23047 0.6875-0.89453 0.83984-0.90234 1.0938-0.40234 0.26562-1.1758 0.18359-1.0625 0.097656-1.0234 0.94531-0.86328 0.33203-1.2188 0.74609-0.71875 0.66797-0.76172 0.25781-1.1562 0.80859-0.73828 1-0.32812 0.99609-0.37891 0.87109-0.86719 0.57031-1.2656 0.82812-0.72656 1.207 0.13281 0.64844 2.2578 0.53516 2.0312 1.4414 1.9453 2.3242 2.2461 1.0078-0.73828 1.3086-1.0586 1.875-1.4883 1.1523-0.9375 1.2383-0.95312 1.2227-0.77344 1.3906-0.87891 1.1133-0.95312 0.73438-0.69531 1.6367-1.1328 1.2734-0.9375 1.2227-1.1172 1.9648-1.4062 1.2227-0.82031 1.1133-0.41406 1.0156-0.65625 1.8203 0.31641" fill="none" stroke="#fff" stroke-linecap="round" stroke-linejoin="round" stroke-miterlimit="10" stroke-width="2"/>
<path d="m303.03 175.8 0.21094 0.26562 0.33984 1.1094-0.32031 2.2461-0.18359 1.2617 0.20703 1.6602 0.82422 2.1016 0.37891 1.8438 0.019531 1.332-0.85547 1.4766-1.0352 0.25781h-1.3164l-1.4805 0.14062-1.7383 1.5781-0.76562 1.0625-0.71875 2.4883-0.72656 1.9961 0.003906 1.3711 0.84766 0.82422 1.543 0.12109 0.89844 0.53906 0.79688 1.4375 0.023438 1.8867-0.39453 1.5781-0.50391 1.2461-0.71094 1.6836-1 3.2344-0.59766 1.1367-1.0078 1.2109-1.1758 0.58203-1.5977 0.69141-1.2617 0.17969-1.3281-0.23828-1.4648 0.12891-1.2617 0.96094-1.793 2.625-0.75 1.2969-0.72266 1.0156-1.1797 2.25-0.19141 1.8789-0.46875 1.4453-1.6289 1.6055-1.2539 0.96484-1.4883 0.9375-1.0391 0.92969-0.84766 1.0977-0.4375 1.6133-0.070312 1.6211 0.03125 1.6758 0.066406 1.5273-0.84375-0.70703-1.4688-0.72266-2.0469-0.89062-1.3242-0.45703-1.6836-0.41016-1.375-0.18359-1.4766-0.019532-1.3633 0.10156-1.082 0.082031-1.6055 0.69141-1.2891 0.57812-1.1719 0.64062-1.1602 0.56641-1.4258 0.99609-1.4609 1.3242-1.2617 1.3281-1.4609 1.0312-0.5625 1.4922 0.60156 1.3398 0.78906 1.0859 0.90625 1.2148 0.25 1.0078-0.14453 1.4688-1.5742 0.48828-1.0547 0.95703 0.32422 1.7656-0.83203 1.4258-0.78906 0.63672-1.2266 0.74609-1.3008 1.1328-1.0117 0.92969-0.84766 1.5586-0.46094 2.4336-0.72266 2.5039-0.26562 1.1094 0.53125 1.832 0.31641 1.2344 0.88281 1.2773 0.93359 1.1758 1.0508 1.4766 0.56641 0.88672 0.53516 0.95312 0.72656 1.0117 1.207 1.2148 1.6719 1.2773 0.72656 0.89844 0.19531 1.0938 0.46484 1.5977 0.53125 1.3008-1.2812 1.6055-0.45312 1.3555-0.26562 1.2539-0.83984 1.0781-2.5625 0.86719-0.82812 0.60156-0.38672 1.3906 0.53906 2.4766 0.44922 1.0586 0.625 0.98828 0.37891 0.93359 0.085937 1.2148-0.28906 1.3086-1.2305 1.2734-0.56641 1.918-0.8125 1.3047-1.3555 0.82812-0.93359 0.57422-1.2188 0.29297-1.4766 0.14062-0.67578 0.75781-0.88672 2.4883-0.16797 2.0039-0.14062 1.1953-0.88281 1.7656-0.93359 1.1797-0.20312 1.4766 0.43359 1.75 1.3789 3.5273 0.13672 1.4805-0.44922 1.0742-1.4805 0.58594-1.6562 1.0508-1.3164 0.80859-1.375 0.58594-1.0078 0.42578-0.96875 0.39453-2.0039 0.65625-1.7188 0.56641-2.4336 0.53125-1.3867 0.64062-0.98828 0.53906-1.0039 1.0547-1.2109 1.9688-0.67578 1.0898-0.78516 1.4531-0.09375 1.0625 0.027344 1.1797 0.65625 1.0078 0.58984 1.0938 0.875 1.3398 0.50391 0.97266 0.14062 1.4336 0.082031 1.3945-0.19141 1.4023-0.25 1.2812-0.48828 2.1719-0.6875 0.87109-1.1562 0.83203-2.6445 1.1211-2.4609 0.6875-1.9922 0.6875-1.9922 1.6289-1.5195 0.83594-0.61719 1.0859-0.75781 2.0273-0.44922 1.5039-1.6758 1.6602-0.99219 0.94922-0.72656 0.92969-1.418 1.0625-1.1094 0.007813-1.2344-0.30078-1.4961 0.53906-1.3203 0.19922-1.6836 0.21484-1.1055 0.042969-3.2617-0.53125-1.4805 0.14453-1.1211 0.38672-1.2656 0.10156-1.5781 0.15625-1.9844-0.58594-1.7188 1.4375-0.90625 0.67578-0.80078 0.83594-0.99219 0.14062-1.1367 0.011719-1 0.625-0.875 0.85156-0.89844 0.45312-0.79688 0.70312-0.75 0.69141-1.1797 0.027344-2.0781 0.35547-0.82812 0.66016-1.3516-0.92578-1.2109-0.49219-1.2539-0.19531-1.4531 0.015625-0.74609 0.82812-0.98438 0.5625-0.84375 0.54688-1.1406 0.11719-1.3555 0.070313-1.2461 0.078125-1.0156-0.09375-1.4688 0.17188-0.87109 0.51562-1.125 0.49219-1.0469-0.070312-1.1797 0.38672-1.082 0.62109-0.64844 0.88672-0.84375 0.76562-0.74609 0.70312-1.0586 0.11719-0.97656 0.85156-1.0352 0.3125-1.1055-0.13281-0.92188-0.45703-0.5625-0.88281-1.2109-1.2539-0.84375-0.71094-0.73828-1.1094-0.97656-0.69531-0.76953-0.75781-0.69531-0.97266-0.91016-1.0625-0.45703 1.1914-1.207-0.058594-0.35547 1.2578-0.72656 0.8125-1.0781 0.60547-1.2773 0.38672-0.87891 0.86328-1.043 0.78516-0.26172 1.0195-0.81641 0.70703-0.50781 0.88672-1.0156 0.23047-1.3398 0.10156-0.87109 0.52344-0.62891 0.88672-1.1484 0.66016-0.58203 1.3672-0.57031 1.1484-1.0234 0.44531-1.0586-0.35547-1.1484 0.45703-0.83984 1.1367-1.4062 0.37109-1.1484 0.76562-0.46094 1.1797-0.81641 0.59375-1.1328-0.11328-1.1211-0.25-0.96484 0.54688-1.1211 0.38281-0.92969 0.70703-0.91406 0.88672-0.9375 1.1406-0.92969 0.37891-0.97266 0.26172-1.0664 0.058594-0.88672 0.62891-1.1641 0.97266-1.2891 0.0625-1.2578 0.53906-1.1602 0.30469-0.80469-0.85547-1.25 0.16797-0.85938 0.69922-0.98438 0.23047-1.1484 0.10156-1.3711-0.23047-1.5234-1.1719-1.0859-0.37109-0.61719-0.95312-0.48828-1.0078-0.48828-0.89844-0.43359-1.0547-0.69922-0.80078-0.70312-0.75781-1.3633-0.92578-0.98047-0.54297-0.62891-0.85547-1.4414-0.078125-1.2422-0.070313-1.0117 0.36719-1.2344-0.22266-1.0859-0.65625-1.0234-0.48047-1.0586-0.28125-1.3164 0.99609-1.0703 0.63281-0.99219 0.35547-1.2695 0.27734-0.99609-0.24219-0.93359-0.67188-0.30469-1.0273-0.99609-0.61328-1.7617 0.46094-1.332-0.63672-0.66797-1.1836-0.52344-1.2383-0.66016-1.1836-1.1914-0.90625-0.94531-0.60938-1.1367-0.75-0.90625-1.5234-0.78516-1.2188-0.74219-0.76172-1.6211-0.93359-0.85938-1.0469 0.47656-1.6953 0.88281-1.1211-0.26172-1.5039-0.57422-1.0742-0.66797-1.0273-0.95312-1.0742-1.1523-0.73047-1.6172 0.52344-0.35547 2.332-0.33594 1.7891-0.45312 0.95703-1.2656 0.83203-1.2148-0.30859-3.9141-3.6758-1.0039-0.90625-1-0.50391-1.1602-0.19141-1.0898 0.30859-1.5625 0.066406-1.1523-0.44141-1.0898-0.85156-1.1562-0.78125-1.2227 0.20312-0.98438-0.54297-1.4961-1.0195-0.61328-1.3242-0.10547-1.0195 0.82031-2.1758 0.33984-0.95312-0.20703-1.4609 0.81641-1.0547 0.50781-0.91406 2.1758-0.91797 0.85938-0.92969 0.26953-1.3867-0.83594-0.98438-1.1641-0.71484-1.2539-0.035157-0.015625-1.6172 0.87109-0.99219-0.45703-0.95703-1.1797-0.43359-0.039062-1.2539 0.011718-1.3242-0.41406-0.97656-0.89453-1.2305-0.80859-1.1133 0.37109-1.2812-0.33203-1.2109-1.332-0.32422-1.207-0.22656-0.67578-1.1055 0.48047-1.0039-0.75-1.4258-0.59375-1.3594-0.95703-0.94922-0.53125-1.418-0.43359-0.91016-1.1367-0.73438-1.2188-0.67188-1.0312-1.3281-0.082032-1.2422-0.73828-1.4492-0.50391-0.98828-0.46875-1.0859-0.39453-1.1562-1.3516-0.68359-1.1328-0.17969-1.5-0.16406-1.1367-0.28906-0.84766 1.1016-1.2266 0.68359-1.2227 0.72266-1.6797 0.62891-1.9062-0.67969-1.25-0.85938-1.4492-1.1836-0.69922-1.3555-0.33984-1.3281-0.17188-1.4727-0.46875-1.375 0.046875-1.1602 0.65234-0.89453 0.25781-1.2266-0.078125-1.3594 0.48828-1.4141-0.054688-1.168-0.35938-1.3086-0.58594-1.1484 0.12891-1.0156 0.48438-1.1562 1.4023-1.3281 0.81641-0.76172 0.09375-1.2969 0.32422-1.0117 0.41406-1.2148-0.17188-1.0977 0.70312-1.3867 1.1797-0.28906 1.0977-0.20703 0.98828-0.23438 1.5-0.32031 1.0703 0.078125 1.9492-0.24219 1.3555-0.23828 1.1133-1.5859 0.31641-1.3203 1.1484-2.0664 0.65625-0.875 0.87109-0.66797 1.1445-1.0781 1.125-0.69922 0.90234-0.48438 1.1562-0.85156 0.82812-0.87109 0.46484-0.98047 0.24609-1.3125 0.65625-1.1172 1.0781-0.99219 0.71484-1.1484 0.96875-0.77344 0.99219-0.22656 1.0195-0.046875 1.2812 0.23047 1.0586 0.39844 1.2969 0.46875 1.2969 0.70312 1.6875 0.125 1.2109-0.21875 0.75781-0.96484 1.582 0.74219 1.3945 0.92188 1.0781 1.0977 1.1211 0.60547 1.0195 0.40625 0.64062-1.3945-0.09375-1.3164-0.65234-1.6289-0.21484-1.4336v-2.4414l0.16016-1.6992 0.32031-1.3281 2.7578-2.4961 1.543-1.3789 0.84766-0.74219 1.9102-1.6484 1.6484-0.6875 1.2734 0.37109 1.5938 0.47656h1.0586l1.8789 0.70312 1.6016 0.38281 2.3867 0.33594 1.1094-0.20703 1.0078 0.31641 0.57812 1.082 1.2227 0.14062 1.1914 0.14844 0.35547-1.0703 1.7812-0.82422 1.3398-0.32422 0.85156-0.78125 0.50781-0.87891 0.89844-0.59766 1.1992-0.62109 1.3398-0.27344 1.6992-0.34375 1.8984-0.22266 1.0391-0.011719 1.4531 0.71875 1.6016 0.56641 1.1562 0.50781 1.6211 1.5781 0.95312 0.75781 0.90625 0.62109 1.0742 0.86719 1.6641 0.92578 1.0938 0.21484 1.7188 0.69922 1.1797 0.39453 1.5156-1.25 0.54688-0.96094 0.30469-1.4805 0.10547-1 0.94922 0.33984 0.35938 1.1289 0.57031 1.3242 1.0391 0.51953 1.2031-0.125 1.4102 0.26562 1.0195 0.53906 1.375 0.90625 1.3047 0.67578 1.332 0.37891 0.90625 0.44531 1.6328 0.28906 1.1641-0.42969 0.53125-1.4062 1.0625-0.62891 1.0938-0.28125h1.75l1.5312-0.125 0.90625-0.65625 0.71875-0.78125 0.78125-0.96875 1.4062-1.8125 0.81641-0.60156 1.332-0.089844 1.043-0.37891 0.10547-1.5117-0.21484-1.2617 0.14453-1.0977 0.34375-1.2227 0.66406-1.582 0.88672-1.8242 0.5625-1.4297 0.79688-0.88672 1.5781-0.42578 1.3594-0.76172 1.3008-1.1367 1.6602-0.99219 1.0234-0.23047 1.1172-0.5625 1.1172-1.5352 0.51562-1.1484 1.2812-0.67969 1.082-0.10938 0.80859 0.59375 0.91797 1.1914 1.1367 0.70312 1.8008 0.63281 2.207 1 1.0469 0.69141 1.1914 1.207 0.87891 0.6875 1.6328 0.86328 1.8203-0.13672 0.78125-0.92188 0.62109-1.5664 0.59375-1.4844 0.35156-2.1133 1.1133-1.1367 0.94531-0.38281 0.94922-0.37891 1.4688-0.73438 1.3047-0.16406 1.4219-0.0625 2.375-0.63281 0.53125-1.0898 0.87109-0.75391 0.47656-1.1875 0.25391-1.6523 0.38672-1.1094 1.1641-1.0977 0.91016-0.94531 0.48438-1.2266 0.75391-1.3242 1.6133-0.93359 0.92188 0.41016 0.15234 1.0547 0.17188 1.2344 0.015625 1.0039 0.91016 0.89062 1.4219 1.0586 1.6484 1.3867 0.94922 1.2695 0.85156 1.4023 1.6484 1.0898 0.92969 0.5 1.3086-0.47656 1.1172-0.27344 1.5781-0.25 1.0586-0.94922-0.058594-1.2891-1.0469-1.6914-0.41016-1.2578 0.18359-1.2539 0.41016-1.4414 0.70703-0.93359 1.5547-0.96094 0.98828-0.98438 0.58984-1.4609-0.09375-1.0859 0.09375-1.8906 0.24609-1.0547 0.3125-1.0859 0.40234-1.3672 1.1172-2.4492 0.37109-1.1484 0.43359-0.96094 0.92969-0.89844 0.96094-1.0508 0.84375-0.93359 0.27734-0.96484 1.0391-0.37891 1.6602 0.51562 1.0352-0.5 1.1562-0.12891 1.3906-0.23828 0.95703-0.67969-0.71875-0.85547-0.14453-1.1094 0.78906-0.78516 1.0742 0.23828 0.96484-0.28125 1.3789-0.44141 1.1836 0.16406 1.043 0.25781 0.96484-0.28906 0.76953-0.65625 0.85547-0.57031 0.14453-1.1875 0.40234-0.94531 0.94531 0.43359 0.44531 1.0078 0.45703 0.90234 0.87891-0.63672 0.55469-0.97266-0.027344-1.0156 0.085938-1.1484 0.19141-1.0352 1.1484-0.52734 1.0391-0.5625 0.70703-0.88281 1.0586 0.058594 1.1016-0.72266 0.92578-0.47656 1.1797-0.14844 1.0898-0.55078 0.80078-0.87891-0.15234-1.1445 1.1719-0.42578 1.1602-0.21875 1.1172 0.11719 0.82422-0.70312 0.5625-0.83203 1.0352 0.54297 0.95312 0.83594 0.43359 1.0195 0.43359 1.0117 1.1016 0.40625 1.043-0.33594 0.92578 0.73438 0.36719 0.94531 0.65625 1.0742 0.80078 0.79297 0.94922 0.59375 1.168 0.19141 1.2891 0.13281 1.0547 0.42188 0.94531 0.59375 0.5625 1.0469 0.47656 1.2227 0.87109 0.68359 1.1602 0.25391 1.0352 0.097656 1.1055-0.050781 1.375 0.18359 0.93359-0.39062 0.82422-0.82812 1.0078-0.011718 0.74609 0.75 1.0625 0.042968 0.91797-0.53906 0.79297-0.76172 1.0742-0.36328 1.2695 0.066406 1.0508 0.45703 1.0859 0.23047 0.63672 0.875 1.1602-0.20312 0.75781-0.67188 1.2539-0.24219 0.94141 0.43359 1.1797 0.015625 0.90234-0.71094 0.96094-0.40625 0.91797 0.41016 0.39453-1.1133 0.91797-0.47266 1.2812 0.14453 0.97266 0.23828 1.0625-0.082031 1.3438-0.16016 1.0117-0.074219 1.1133-0.41406 0.96875-0.27344 0.64844-1.1016 0.99219-0.44922 1.0352 0.074218 0.97656-0.85547 1.0586-0.50781 0.74609-0.71875 0.25391-1.1211 0.50781-1.1797 0.84375-0.61719 0.49609-1.1758-0.11719-1.1133 0.69141-0.73047 0.63281-0.9375 0.0625-1.0742 0.46484-1.0742 0.92969-0.63672 0.24609-1.1875 0.21094-1.25 1.0547-0.80469 1.2109-0.12891 1.0664 0.24219 0.66797-0.9375 0.21094-1.0352 0.16797-1.0391 0.82422-0.70703 1.0078-0.011719 1.1016 0.11328 1.1133-0.42578 0.6875-0.75781 0.82422-0.83984 1.0273-0.72266 0.39844-1.0664 0.66016-0.8125 0.97656-0.42578 0.55469-0.87891z" fill="#ccc" fill-rule="evenodd"/>
<path d="m303.03 175.8 0.21094 0.26562 0.33984 1.1094-0.32031 2.2461-0.18359 1.2617 0.20703 1.6602 0.82422 2.1016 0.37891 1.8438 0.019531 1.332-0.85547 1.4766-1.0352 0.25781h-1.3164l-1.4805 0.14062-1.7383 1.5781-0.76562 1.0625-0.71875 2.4883-0.72656 1.9961 0.003906 1.3711 0.84766 0.82422 1.543 0.12109 0.89844 0.53906 0.79688 1.4375 0.023438 1.8867-0.39453 1.5781-0.50391 1.2461-0.71094 1.6836-1 3.2344-0.59766 1.1367-1.0078 1.2109-1.1758 0.58203-1.5977 0.69141-1.2617 0.17969-1.3281-0.23828-1.4648 0.12891-1.2617 0.96094-1.793 2.625-0.75 1.2969-0.72266 1.0156-1.1797 2.25-0.19141 1.8789-0.46875 1.4453-1.6289 1.6055-1.2539 0.96484-1.4883 0.9375-1.0391 0.92969-0.84766 1.0977-0.4375 1.6133-0.070312 1.6211 0.03125 1.6758 0.066406 1.5273-0.84375-0.70703-1.4688-0.72266-2.0469-0.89062-1.3242-0.45703-1.6836-0.41016-1.375-0.18359-1.4766-0.019532-1.3633 0.10156-1.082 0.082031-1.6055 0.69141-1.2891 0.57812-1.1719 0.64062-1.1602 0.56641-1.4258 0.99609-1.4609 1.3242-1.2617 1.3281-1.4609 1.0312-0.5625 1.4922 0.60156 1.3398 0.78906 1.0859 0.90625 1.2148 0.25 1.0078-0.14453 1.4688-1.5742 0.48828-1.0547 0.95703 0.32422 1.7656-0.83203 1.4258-0.78906 0.63672-1.2266 0.74609-1.3008 1.1328-1.0117 0.92969-0.84766 1.5586-0.46094 2.4336-0.72266 2.5039-0.26562 1.1094 0.53125 1.832 0.31641 1.2344 0.88281 1.2773 0.93359 1.1758 1.0508 1.4766 0.56641 0.88672 0.53516 0.95312 0.72656 1.0117 1.207 1.2148 1.6719 1.2773 0.72656 0.89844 0.19531 1.0938 0.46484 1.5977 0.53125 1.3008-1.2812 1.6055-0.45312 1.3555-0.26562 1.2539-0.83984 1.0781-2.5625 0.86719-0.82812 0.60156-0.38672 1.3906 0.53906 2.4766 0.44922 1.0586 0.625 0.98828 0.37891 0.93359 0.085937 1.2148-0.28906 1.3086-1.2305 1.2734-0.56641 1.918-0.8125 1.3047-1.3555 0.82812-0.93359 0.57422-1.2188 0.29297-1.4766 0.14062-0.67578 0.75781-0.88672 2.4883-0.16797 2.0039-0.14062 1.1953-0.88281 1.7656-0.93359 1.1797-0.20312 1.4766 0.43359 1.75 1.3789 3.5273 0.13672 1.4805-0.44922 1.0742-1.4805 0.58594-1.6562 1.0508-1.3164 0.80859-1.375 0.58594-1.0078 0.42578-0.96875 0.39453-2.0039 0.65625-1.7188 0.56641-2.4336 0.53125-1.3867 0.64062-0.98828 0.53906-1.0039 1.0547-1.2109 1.9688-0.67578 1.0898-0.78516 1.4531-0.09375 1.0625 0.027344 1.1797 0.65625 1.0078 0.58984 1.0938 0.875 1.3398 0.50391 0.97266 0.14062 1.4336 0.082031 1.3945-0.19141 1.4023-0.25 1.2812-0.48828 2.1719-0.6875 0.87109-1.1562 0.83203-2.6445 1.1211-2.4609 0.6875-1.9922 0.6875-1.9922 1.6289-1.5195 0.83594-0.61719 1.0859-0.75781 2.0273-0.44922 1.5039-1.6758 1.6602-0.99219 0.94922-0.72656 0.92969-1.418 1.0625-1.1094 0.007813-1.2344-0.30078-1.4961 0.53906-1.3203 0.19922-1.6836 0.21484-1.1055 0.042969-3.2617-0.53125-1.4805 0.14453-1.1211 0.38672-1.2656 0.10156-1.5781 0.15625-1.9844-0.58594-1.7188 1.4375-0.90625 0.67578-0.80078 0.83594-0.99219 0.14062-1.1367 0.011719-1 0.625-0.875 0.85156-0.89844 0.45312-0.79688 0.70312-0.75 0.69141-1.1797 0.027344-2.0781 0.35547-0.82812 0.66016-1.3516-0.92578-1.2109-0.49219-1.2539-0.19531-1.4531 0.015625-0.74609 0.82812-0.98438 0.5625-0.84375 0.54688-1.1406 0.11719-1.3555 0.070313-1.2461 0.078125-1.0156-0.09375-1.4688 0.17188-0.87109 0.51562-1.125 0.49219-1.0469-0.070312-1.1797 0.38672-1.082 0.62109-0.64844 0.88672-0.84375 0.76562-0.74609 0.70312-1.0586 0.11719-0.97656 0.85156-1.0352 0.3125-1.1055-0.13281-0.92188-0.45703-0.5625-0.88281-1.2109-1.2539-0.84375-0.71094-0.73828-1.1094-0.97656-0.69531-0.76953-0.75781-0.69531-0.97266-0.91016-1.0625-0.45703 1.1914-1.207-0.058594-0.35547 1.2578-0.72656 0.8125-1.0781 0.60547-1.2773 0.38672-0.87891 0.86328-1.043 0.78516-0.26172 1.0195-0.81641 0.70703-0.50781 0.88672-1.0156 0.23047-1.3398 0.10156-0.87109 0.52344-0.62891 0.88672-1.1484 0.66016-0.58203 1.3672-0.57031 1.1484-1.0234 0.44531-1.0586-0.35547-1.1484 0.45703-0.83984 1.1367-1.4062 0.37109-1.1484 0.76562-0.46094 1.1797-0.81641 0.59375-1.1328-0.11328-1.1211-0.25-0.96484 0.54688-1.1211 0.38281-0.92969 0.70703-0.91406 0.88672-0.9375 1.1406-0.92969 0.37891-0.97266 0.26172-1.0664 0.058594-0.88672 0.62891-1.1641 0.97266-1.2891 0.0625-1.2578 0.53906-1.1602 0.30469-0.80469-0.85547-1.25 0.16797-0.85938 0.69922-0.98438 0.23047-1.1484 0.10156-1.3711-0.23047-1.5234-1.1719-1.0859-0.37109-0.61719-0.95312-0.48828-1.0078-0.48828-0.89844-0.43359-1.0547-0.69922-0.80078-0.70312-0.75781-1.3633-0.92578-0.98047-0.54297-0.62891-0.85547-1.4414-0.078125-1.2422-0.070313-1.0117 0.36719-1.2344-0.22266-1.0859-0.65625-1.0234-0.48047-1.0586-0.28125-1.3164 0.99609-1.0703 0.63281-0.99219 0.35547-1.2695 0.27734-0.99609-0.24219-0.93359-0.67188-0.30469-1.0273-0.99609-0.61328-1.7617 0.46094-1.332-0.63672-0.66797-1.1836-0.52344-1.2383-0.66016-1.1836-1.1914-0.90625-0.94531-0.60938-1.1367-0.75-0.90625-1.5234-0.78516-1.2188-0.74219-0.76172-1.6211-0.93359-0.85938-1.0469 0.47656-1.6953 0.88281-1.1211-0.26172-1.5039-0.57422-1.0742-0.66797-1.0273-0.95312-1.0742-1.1523-0.73047-1.6172 0.52344-0.35547 2.332-0.33594 1.7891-0.45312 0.95703-1.2656 0.83203-1.2148-0.30859-3.9141-3.6758-1.0039-0.90625-1-0.50391-1.1602-0.19141-1.0898 0.30859-1.5625 0.066406-1.1523-0.44141-1.0898-0.85156-1.1562-0.78125-1.2227 0.20312-0.98438-0.54297-1.4961-1.0195-0.61328-1.3242-0.10547-1.0195 0.82031-2.1758 0.33984-0.95312-0.20703-1.4609 0.81641-1.0547 0.50781-0.91406 2.1758-0.91797 0.85938-0.92969 0.26953-1.3867-0.83594-0.98438-1.1641-0.71484-1.2539-0.035157-0.015625-1.6172 0.87109-0.99219-0.45703-0.95703-1.1797-0.43359-0.039062-1.2539 0.011718-1.3242-0.41406-0.97656-0.89453-1.2305-0.80859-1.1133 0.37109-1.2812-0.33203-1.2109-1.332-0.32422-1.207-0.22656-0.67578-1.1055 0.48047-1.0039-0.75-1.4258-0.59375-1.3594-0.95703-0.94922-0.53125-1.418-0.43359-0.91016-1.1367-0.73438-1.2188-0.67188-1.0312-1.3281-0.082032-1.2422-0.73828-1.4492-0.50391-0.98828-0.46875-1.0859-0.39453-1.1562-1.3516-0.68359-1.1328-0.17969-1.5-0.16406-1.1367-0.28906-0.84766 1.1016-1.2266 0.68359-1.2227 0.72266-1.6797 0.62891-1.9062-0.67969-1.25-0.85938-1.4492-1.1836-0.69922-1.3555-0.33984-1.3281-0.17188-1.4727-0.46875-1.375 0.046875-1.1602 0.65234-0.89453 0.25781-1.2266-0.078125-1.3594 0.48828-1.4141-0.054688-1.168-0.35938-1.3086-0.58594-1.1484 0.12891-1.0156 0.48438-1.1562 1.4023-1.3281 0.81641-0.76172 0.09375-1.2969 0.32422-1.0117 0.41406-1.2148-0.17188-1.0977 0.70312-1.3867 1.1797-0.28906 1.0977-0.20703 0.98828-0.23438 1.5-0.32031 1.0703 0.078125 1.9492-0.24219 1.3555-0.23828 1.1133-1.5859 0.31641-1.3203 1.1484-2.0664 0.65625-0.875 0.87109-0.66797 1.1445-1.0781 1.125-0.69922 0.90234-0.48438 1.1562-0.85156 0.82812-0.87109 0.46484-0.98047 0.24609-1.3125 0.65625-1.1172 1.0781-0.99219 0.71484-1.1484 0.96875-0.77344 0.99219-0.22656 1.0195-0.046875 1.2812 0.23047 1.0586 0.39844 1.2969 0.46875 1.2969 0.70312 1.6875 0.125 1.2109-0.21875 0.75781-0.96484 1.582 0.74219 1.3945 0.92188 1.0781 1.0977 1.1211 0.60547 1.0195 0.40625 0.64062-1.3945-0.09375-1.3164-0.65234-1.6289-0.21484-1.4336v-2.4414l0.16016-1.6992 0.32031-1.3281 2.7578-2.4961 1.543-1.3789 0.84766-0.74219 1.9102-1.6484 1.6484-0.6875 1.2734 0.37109 1.5938 0.47656h1.0586l1.8789 0.70312 1.6016 0.38281 2.3867 0.33594 1.1094-0.20703 1.0078 0.31641 0.57812 1.082 1.2227 0.14062 1.1914 0.14844 0.35547-1.0703 1.7812-0.82422 1.3398-0.32422 0.85156-0.78125 0.50781-0.87891 0.89844-0.59766 1.1992-0.62109 1.3398-0.27344 1.6992-0.34375 1.8984-0.22266 1.0391-0.011719 1.4531 0.71875 1.6016 0.56641 1.1562 0.50781 1.6211 1.5781 0.95312 0.75781 0.90625 0.62109 1.0742 0.86719 1.6641 0.92578 1.0938 0.21484 1.7188 0.69922 1.1797 0.39453 1.5156-1.25 0.54688-0.96094 0.30469-1.4805 0.10547-1 0.94922 0.33984 0.35938 1.1289 0.57031 1.3242 1.0391 0.51953 1.2031-0.125 1.4102 0.26562 1.0195 0.53906 1.375 0.90625 1.3047 0.67578 1.332 0.37891 0.90625 0.44531 1.6328 0.28906 1.1641-0.42969 0.53125-1.4062 1.0625-0.62891 1.0938-0.28125h1.75l1.5312-0.125 0.90625-0.65625 0.71875-0.78125 0.78125-0.96875 1.4062-1.8125 0.81641-0.60156 1.332-0.089844 1.043-0.37891 0.10547-1.5117-0.21484-1.2617 0.14453-1.0977 0.34375-1.2227 0.66406-1.582 0.88672-1.8242 0.5625-1.4297 0.79688-0.88672 1.5781-0.42578 1.3594-0.76172 1.3008-1.1367 1.6602-0.99219 1.0234-0.23047 1.1172-0.5625 1.1172-1.5352 0.51562-1.1484 1.2812-0.67969 1.082-0.10938 0.80859 0.59375 0.91797 1.1914 1.1367 0.70312 1.8008 0.63281 2.207 1 1.0469 0.69141 1.1914 1.207 0.87891 0.6875 1.6328 0.86328 1.8203-0.13672 0.78125-0.92188 0.62109-1.5664 0.59375-1.4844 0.35156-2.1133 1.1133-1.1367 0.94531-0.38281 0.94922-0.37891 1.4688-0.73438 1.3047-0.16406 1.4219-0.0625 2.375-0.63281 0.53125-1.0898 0.87109-0.75391 0.47656-1.1875 0.25391-1.6523 0.38672-1.1094 1.1641-1.0977 0.91016-0.94531 0.48438-1.2266 0.75391-1.3242 1.6133-0.93359 0.92188 0.41016 0.15234 1.0547 0.17188 1.2344 0.015625 1.0039 0.91016 0.89062 1.4219 1.0586 1.6484 1.3867 0.94922 1.2695 0.85156 1.4023 1.6484 1.0898 0.92969 0.5 1.3086-0.47656 1.1172-0.27344 1.5781-0.25 1.0586-0.94922-0.058594-1.2891-1.0469-1.6914-0.41016-1.2578 0.18359-1.2539 0.41016-1.4414 0.70703-0.93359 1.5547-0.96094 0.98828-0.98438 0.58984-1.4609-0.09375-1.0859 0.09375-1.8906 0.24609-1.0547 0.3125-1.0859 0.40234-1.3672 1.1172-2.4492 0.37109-1.1484 0.43359-0.96094 0.92969-0.89844 0.96094-1.0508 0.84375-0.93359 0.27734-0.96484 1.0391-0.37891 1.6602 0.51562 1.0352-0.5 1.1562-0.12891 1.3906-0.23828 0.95703-0.67969-0.71875-0.85547-0.14453-1.1094 0.78906-0.78516 1.0742 0.23828 0.96484-0.28125 1.3789-0.44141 1.1836 0.16406 1.043 0.25781 0.96484-0.28906 0.76953-0.65625 0.85547-0.57031 0.14453-1.1875 0.40234-0.94531 0.94531 0.43359 0.44531 1.0078 0.45703 0.90234 0.87891-0.63672 0.55469-0.97266-0.027344-1.0156 0.085938-1.1484 0.19141-1.0352 1.1484-0.52734 1.0391-0.5625 0.70703-0.88281 1.0586 0.058594 1.1016-0.72266 0.92578-0.47656 1.1797-0.14844 1.0898-0.55078 0.80078-0.87891-0.15234-1.1445 1.1719-0.42578 1.1602-0.21875 1.1172 0.11719 0.82422-0.70312 0.5625-0.83203 1.0352 0.54297 0.95312 0.83594 0.43359 1.0195 0.43359 1.0117 1.1016 0.40625 1.043-0.33594 0.92578 0.73438 0.36719 0.94531 0.65625 1.0742 0.80078 0.79297 0.94922 0.59375 1.168 0.19141 1.2891 0.13281 1.0547 0.42188 0.94531 0.59375 0.5625 1.0469 0.47656 1.2227 0.87109 0.68359 1.1602 0.25391 1.0352 0.097656 1.1055-0.050781 1.375 0.18359 0.93359-0.39062 0.82422-0.82812 1.0078-0.011718 0.74609 0.75 1.0625 0.042968 0.91797-0.53906 0.79297-0.76172 1.0742-0.36328 1.2695 0.066406 1.0508 0.45703 1.0859 0.23047 0.63672 0.875 1.1602-0.20312 0.75781-0.67188 1.2539-0.24219 0.94141 0.43359 1.1797 0.015625 0.90234-0.71094 0.96094-0.40625 0.91797 0.41016 0.39453-1.1133 0.91797-0.47266 1.2812 0.14453 0.97266 0.23828 1.0625-0.082031 1.3438-0.16016 1.0117-0.074219 1.1133-0.41406 0.96875-0.27344 0.64844-1.1016 0.99219-0.44922 1.0352 0.074218 0.97656-0.85547 1.0586-0.50781 0.74609-0.71875 0.25391-1.1211 0.50781-1.1797 0.84375-0.61719 0.49609-1.1758-0.11719-1.1133 0.69141-0.73047 0.63281-0.9375 0.0625-1.0742 0.46484-1.0742 0.92969-0.63672 0.24609-1.1875 0.21094-1.25 1.0547-0.80469 1.2109-0.12891 1.0664 0.24219 0.66797-0.9375 0.21094-1.0352 0.16797-1.0391 0.82422-0.70703 1.0078-0.011719 1.1016 0.11328 1.1133-0.42578 0.6875-0.75781 0.82422-0.83984 1.0273-0.72266 0.39844-1.0664 0.66016-0.8125 0.97656-0.42578 0.55469-0.87891 0.83594-0.50781" fill="none" stroke="#fff" stroke-linecap="round" stroke-linejoin="round" stroke-miterlimit="10" stroke-width="2"/>
<path d="m434.11 95.82 0.88281-2.0234-1.7148-4.6172 0.35938-1.2383 2.3359-0.96484 1.4336-0.45703 1.9961-0.39453 5.2266-1.2305 1.9883-0.26562 2.2227-1.0703 1.3164-0.90234 3.6172 0.41016 2.0273 0.14062 2.7422-0.80078 3.9492-3.5352 1.5664-0.625-0.13672 1.6406 0.65625 2.4766 0.125 1.0664-0.51172 1.9453-0.78906 1.2188-0.32812 1.293 0.45703 1.3906 1.3867 1.0039 1.4297 0.23047 1.8242 0.26562 1.1719 0.33203 1.4922 0.77344 1.3906 0.79688 0.94922 0.45703 1.0156 0.65234 0.64844 0.84375 1.0195 0.61328 0.89453 1.125 0.50391 2.3438 0.32812 1.1562 0.30469 1.0703 0.88672 0.68359 1.2773-0.10938 1.0391 0.25 0.64844 1.0664 1.4219 1.6289 0.67578 1.1094-0.23047 1.082-1.2812 1.3086-1.3164 0.88281-0.875 0.55078 0.11719 1.0234 0.11719 1.1797 0.039062 1.043 0.24219 0.98047-0.25391 0.98047 1.0664 1.1094 0.51953 0.94531 0.36328 1.0898 1.918 2.0664 1.3594 1.75 1.0195 0.66797 0.79688 0.875 0.76953 1.4492 0.6875 1.0195 0.91797 1.0391 0.75781 1.1055 0.89453 1.0195 0.86719 1.2734 0.79297 0.80078 1.0195 0.20703 1.3555-0.35156 0.78125 1.2539 1.0703-0.082031 1.0859 0.13672-0.41016 1.4883 0.70703 1.625 0.25 1.5078-0.95312 0.39844-0.90234 0.5-1.8945 0.55469-1.6367-0.27344-0.72656-0.98438-0.51172-0.93359-1.0938 0.55078-1.2852 0.082032-1.1055 0.10156-0.74219 0.73828-0.66016 1.3438-0.78125 0.83984-1.6055 0.72266-1.0859-0.66797-0.066406-1.0469 0.45703-1.2539 0.63672-0.96094 0.035156-1.2422-1.0781-0.86719-1.4023-0.20703-1.3398 0.085937-0.63672 0.92578 0.33594 1.2109-1.2773 1.0469-1.3984 1.4688-1.0234 0.95703-1.1484 0.19141-1.5781-0.32422-1.0703-0.27734-0.99219 1.0547-0.37891 0.96875-1.0859 0.60547 0.99609 0.15234 1.0664-0.35547 1.3711 0.35547 1.6094 0.67188 2.5547 0.52344-0.73438 1.1328-1.082 0.32031-1.3711 0.36328-2.1445 0.3125-1.9258 0.29688-1.168 0.22656-1.5273 0.046875-1.2148 0.039063-2.5781 0.58203-0.67578 0.74219-0.57812 0.82812-0.57422 1.5703-1.1953 1.8945-1.2148 1.4023-4.7891 5.3711-3.1953 2.4609-2.9414 2.2656-2.5625 2.8906-1.8594 2.9688-0.71094 1.4766-1.9609 4.9922-1.4727 2.293-0.94141 1.0859-1 0.83203-0.77734 0.65234-1.2148 0.68359-1.2773 0.53125-1.3711 0.5625-1.1523 0.55859-0.65234 1.6797 0.62109 1.6797 0.41406 1.3984-2.9219-0.26953-3.9883-0.70312-7.8203-0.9375-3.832-0.625-2.5312 0.15625-0.11328 1.0273-1.1836 0.42188-1.1914 0.58594-1 1.3945-0.89453 2.3633-0.51562 1.1836-0.69531 1.043-2.2539 2.7305-0.82422 0.93359-0.69531 0.99609-0.42969 1-0.71094 1.1094-0.57031 0.83594-0.58203 1.3086-1.0703-0.52734-1.1562-0.34375 0.57812-0.84375-0.92969-0.37891 0.67578-0.88672 0.10156-1.1133-0.73438-0.71094 0.94531-1.3555-1.2812-0.375-1.0781 0.03125-0.66016-1.0586-1.1055-0.19141 0.015625-1.2852-0.95703 0.42578-1.1016 0.26953-0.0625-1.2578 1.0781-0.042968 0.43359-1.0625-1.2031 0.097656-0.83203-1.0078-1.043-0.023437-0.078125-1.1758-1.1797-0.45312-0.011719-1.1094-1.4141-0.046875 0.66797-0.89453-1.4492-0.39844-0.003906-1.0703 1.0234-0.66016 0.61719-0.88672-0.66016-0.80469-0.9375-0.34766-0.69531 0.77734 0.14844-1.0547-1.0781 0.035156-0.74609-0.85156 0.42578-0.91016-1.0352 0.015625-0.81641-0.66016-1.043-0.44531-1.1094 0.30078-0.53516 0.93359-1.1094 0.085937-0.6875-0.83984-0.75391-0.69141-1.0469-0.41406-0.078125-1.1875-0.64844-0.95703-0.82812-0.64062-1.2305 0.20312-0.94531-0.46094-0.80859-0.99219-1.082-0.20312-1.3047-0.48047-0.30859 1.0742 0.41016 1.0195 0.011719 1.25-0.60938 0.82812-0.76172 0.70312-1.1641 0.27344-1.3672 0.058594-0.58984-1.5117 0.46094-1.1133 0.77344-1.0703 0.78516-1 0.72266-0.97656 0.88672-1.0664 0.96094-1.2031 0.91406-1.0391 1.0195-1.25 0.94922-1.2656 0.83594-1.0195-1.0625-3.2891-1.6406-2.4219-0.53516-1.0547-0.82031-1.0586-0.83203-1.625-0.73047-1.0039-0.51172-1.0664-2.5391-4.0234-0.44141-1.3438 0.12891-1.2344 17.25-6.125 1.1055-0.33203 10.266-1.5195 1.5742-0.23438 0.6875-1.9297 0.97656-1.543 1.4961-1.3203 0.60938-0.87891 1.8984-3.4766 9.2773-0.10156 5.9375 0.42188 7.2969 0.51562 1.2891-4.1523 2.2031-7.9844 0.31641-1.5312 3.2969 0.57031 2.3477 0.5 2.3281 0.73047 1.4883 0.5625 2.457-4.3516 0.71094-1.6641-0.66797-1.2109 0.015625-1.0078 0.33203-1.2383 0.35938-1.0273 0.23828-1.2109-0.011719-1.3281-1.25-1.3477-0.85156-1.3828-0.61328-1.7695-0.39844-1.4219-0.039062-1.2266 0.089843-1.2109-0.38281-1.1055-1.0664-0.45312-1.0117 1.0938-0.85156 0.94531-1.0234 0.18359-0.98438-0.71875 0.078125-1.1953 0.71875-0.71875 0.63672-0.95703z" fill="#ccc" fill-rule="evenodd"/>
<path d="m434.11 95.82 0.88281-2.0234-1.7148-4.6172 0.35938-1.2383 2.3359-0.96484 1.4336-0.45703 1.9961-0.39453 5.2266-1.2305 1.9883-0.26562 2.2227-1.0703 1.3164-0.90234 3.6172 0.41016 2.0273 0.14062 2.7422-0.80078 3.9492-3.5352 1.5664-0.625-0.13672 1.6406 0.65625 2.4766 0.125 1.0664-0.51172 1.9453-0.78906 1.2188-0.32812 1.293 0.45703 1.3906 1.3867 1.0039 1.4297 0.23047 1.8242 0.26562 1.1719 0.33203 1.4922 0.77344 1.3906 0.79688 0.94922 0.45703 1.0156 0.65234 0.64844 0.84375 1.0195 0.61328 0.89453 1.125 0.50391 2.3438 0.32812 1.1562 0.30469 1.0703 0.88672 0.68359 1.2773-0.10938 1.0391 0.25 0.64844 1.0664 1.4219 1.6289 0.67578 1.1094-0.23047 1.082-1.2812 1.3086-1.3164 0.88281-0.875 0.55078 0.11719 1.0234 0.11719 1.1797 0.039062 1.043 0.24219 0.98047-0.25391 0.98047 1.0664 1.1094 0.51953 0.94531 0.36328 1.0898 1.918 2.0664 1.3594 1.75 1.0195 0.66797 0.79688 0.875 0.76953 1.4492 0.6875 1.0195 0.91797 1.0391 0.75781 1.1055 0.89453 1.0195 0.86719 1.2734 0.79297 0.80078 1.0195 0.20703 1.3555-0.35156 0.78125 1.2539 1.0703-0.082031 1.0859 0.13672-0.41016 1.4883 0.70703 1.625 0.25 1.5078-0.95312 0.39844-0.90234 0.5-1.8945 0.55469-1.6367-0.27344-0.72656-0.98438-0.51172-0.93359-1.0938 0.55078-1.2852 0.082032-1.1055 0.10156-0.74219 0.73828-0.66016 1.3438-0.78125 0.83984-1.6055 0.72266-1.0859-0.66797-0.066406-1.0469 0.45703-1.2539 0.63672-0.96094 0.035156-1.2422-1.0781-0.86719-1.4023-0.20703-1.3398 0.085937-0.63672 0.92578 0.33594 1.2109-1.2773 1.0469-1.3984 1.4688-1.0234 0.95703-1.1484 0.19141-1.5781-0.32422-1.0703-0.27734-0.99219 1.0547-0.37891 0.96875-1.0859 0.60547 0.99609 0.15234 1.0664-0.35547 1.3711 0.35547 1.6094 0.67188 2.5547 0.52344-0.73438 1.1328-1.082 0.32031-1.3711 0.36328-2.1445 0.3125-1.9258 0.29688-1.168 0.22656-1.5273 0.046875-1.2148 0.039063-2.5781 0.58203-0.67578 0.74219-0.57812 0.82812-0.57422 1.5703-1.1953 1.8945-1.2148 1.4023-4.7891 5.3711-3.1953 2.4609-2.9414 2.2656-2.5625 2.8906-1.8594 2.9688-0.71094 1.4766-1.9609 4.9922-1.4727 2.293-0.94141 1.0859-1 0.83203-0.77734 0.65234-1.2148 0.68359-1.2773 0.53125-1.3711 0.5625-1.1523 0.55859-0.65234 1.6797 0.62109 1.6797 0.41406 1.3984-2.9219-0.26953-3.9883-0.70312-7.8203-0.9375-3.832-0.625-2.5312 0.15625-0.11328 1.0273-1.1836 0.42188-1.1914 0.58594-1 1.3945-0.89453 2.3633-0.51562 1.1836-0.69531 1.043-2.2539 2.7305-0.82422 0.93359-0.69531 0.99609-0.42969 1-0.71094 1.1094-0.57031 0.83594-0.58203 1.3086-1.0703-0.52734-1.1562-0.34375 0.57812-0.84375-0.92969-0.37891 0.67578-0.88672 0.10156-1.1133-0.73438-0.71094 0.94531-1.3555-1.2812-0.375-1.0781 0.03125-0.66016-1.0586-1.1055-0.19141 0.015625-1.2852-0.95703 0.42578-1.1016 0.26953-0.0625-1.2578 1.0781-0.042968 0.43359-1.0625-1.2031 0.097656-0.83203-1.0078-1.043-0.023437-0.078125-1.1758-1.1797-0.45312-0.011719-1.1094-1.4141-0.046875 0.66797-0.89453-1.4492-0.39844-0.003906-1.0703 1.0234-0.66016 0.61719-0.88672-0.66016-0.80469-0.9375-0.34766-0.69531 0.77734 0.14844-1.0547-1.0781 0.035156-0.74609-0.85156 0.42578-0.91016-1.0352 0.015625-0.81641-0.66016-1.043-0.44531-1.1094 0.30078-0.53516 0.93359-1.1094 0.085937-0.6875-0.83984-0.75391-0.69141-1.0469-0.41406-0.078125-1.1875-0.64844-0.95703-0.82812-0.64062-1.2305 0.20312-0.94531-0.46094-0.80859-0.99219-1.082-0.20312-1.3047-0.48047-0.30859 1.0742 0.41016 1.0195 0.011719 1.25-0.60938 0.82812-0.76172 0.70312-1.1641 0.27344-1.3672 0.058594-0.58984-1.5117 0.46094-1.1133 0.77344-1.0703 0.78516-1 0.72266-0.97656 0.88672-1.0664 0.96094-1.2031 0.91406-1.0391 1.0195-1.25 0.94922-1.2656 0.83594-1.0195-1.0625-3.2891-1.6406-2.4219-0.53516-1.0547-0.82031-1.0586-0.83203-1.625-0.73047-1.0039-0.51172-1.0664-2.5391-4.0234-0.44141-1.3438 0.12891-1.2344 17.25-6.125 1.1055-0.33203 10.266-1.5195 1.5742-0.23438 0.6875-1.9297 0.97656-1.543 1.4961-1.3203 0.60938-0.87891 1.8984-3.4766 9.2773-0.10156 5.9375 0.42188 7.2969 0.51562 1.2891-4.1523 2.2031-7.9844 0.31641-1.5312 3.2969 0.57031 2.3477 0.5 2.3281 0.73047 1.4883 0.5625 2.457-4.3516 0.71094-1.6641-0.66797-1.2109 0.015625-1.0078 0.33203-1.2383 0.35938-1.0273 0.23828-1.2109-0.011719-1.3281-1.25-1.3477-0.85156-1.3828-0.61328-1.7695-0.39844-1.4219-0.039062-1.2266 0.089843-1.2109-0.38281-1.1055-1.0664-0.45312-1.0117 1.0938-0.85156 0.94531-1.0234 0.18359-0.98438-0.71875 0.078125-1.1953 0.71875-0.71875 0.63672-0.95703-0.15234-0.62109" fill="none" stroke="#fff" stroke-linecap="round" stroke-linejoin="round" stroke-miterlimit="10" stroke-width="2"/>
<path d="m352.09 24.375 0.85547 0.070313 1.9219 0.14453 1.207 0.91406 1.332 1.5195 2.2109 1.3594 0.71484 0.76562-0.14844 1.7969 0.9375 0.98438 1.75 0.15234 1.3008 0.76953 0.55859 1.4297 0.33984 1.7109 0.49219 1.1289 1.3164 0.625 1.1797-0.39062 1.6445-0.082031 2.2422 0.48828 1.4727 1.0039 1.1758 0.64062 1.2812 0.51172 0.91797 0.42969 1.4102 1.3867 1.1719 1.1758 0.68359 1.1719 0.79688 0.92969 1.0391 0.76953-0.47266 1.2266-0.92578 1.082-0.82812 0.85547-0.64453 1.6445-0.65234 1.0938-0.89453 1.1445-0.40625 1.5-0.007812 1.4688-0.36719 1.082 0.35156 1.4375 0.058594 1.4062-0.46875 1.4023 0.61719 1.25 1.082 0.73828 0.85547 0.61328 1.1133 0.67578 1.4453 0.61328 1.7383 0.67969 0.78906 0.70703 2.3594 1.3203 1.9062 1 0.94922 0.57812 0.95312 0.58203 0.94922 0.80078 1.3789 0.48828 1.6094 0.64453 1.3789 0.67969 1.8398 0.26562 1.543 0.86719 1.1133 0.93359 0.88672 0.83594 0.75 0.73828 0.72266 0.73828 1.0352 0.74609 0.32812 0.99219-0.1875 0.98047-0.33984 1.2617-0.26562 1.0781-0.16797 1.1172 0.046875 1.1133 0.21875 1.0547 0.32031 1.8711 0.17969 1.1758 0.15234 0.98828 0.1875 1.1289 0.16797 0.99609 0.16797 0.99219 0.17578 1.0547 0.17969 1.0898 0.16406 1 0.16797 1.0156 0.19531 1.25 0.28125 1.2734 0.17188 1.0859 0.16016 0.98438 1.2812 0.28516 1.4648-0.21875 1.1914-0.17969 1.0352 0.21875 0.59766 0.87109 0.44531 1.1523 1.0078-0.70312 0.71875-0.71484 0.74219-0.71484 0.73047-0.72656 0.89844-0.89844 0.90234-0.91016 0.98047-0.98828 0.72266-0.73828 0.56641-0.86719 0.60156-0.97656 0.53125-0.94922 0.55078-1.1016 0.92969-0.43359-0.042969 1.2461 0.71875 0.98438 1.5898 0.60547 1.168 0.035156 0.94141-0.45312 0.8125-0.67969 1.3867-0.125 1.75 0.15625 1.0938 0.74609 1.9297 0.23047 0.90625 0.54297 0.019531 1.082-0.94141 0.8125-0.46094 1.2227 0.77734 1.0547 1.332-0.14453 0.85156-0.94531 0.75781-0.87891 1.3203 0.23828 0.38281 1.1055-0.089843 1.2109 0.039062 1.2266 0.39844 1.4219 0.35938 1.1172 0.63672 1.4375 1.0938 1.1719 0.63672 1.2891-0.23828 2.0234-0.35938 1.0273-0.33203 1.2383-0.015625 1.0078 0.66797 0.94531-0.33594 1.1406-2.832 5.1406-1.4883-0.5625-2.3281-0.73047-2.3477-0.5-3.2422-0.84375-0.37109 1.8047-2.2031 7.9844-1.2891 4.1523-7.2969-0.51562-5.9375-0.42188-8.9883-0.63672-2.1875 4.2148-0.60938 0.87891-1.4961 1.3203-0.97656 1.543-0.52734 1.9336-1.7344 0.23047-10.266 1.5195-0.95312 0.3125-17.176 5.793-0.53516-2.1289-0.35547-1.0586-0.84766-1.5703-0.64453-1.2188-1.4414-2.8984-0.98047-1.4375-1.207-0.60156-1.6289 0.94141-1.1133 0.41406-1.2227 0.82031-1.9648 1.4062-1.2227 1.1172-1.2734 0.9375-0.86328 0.61719-0.95703 0.66797-0.94141 0.96484-1.4297 0.98828-1.4844 0.89844-1.125 0.84375-0.98828 0.78125-2.0898 1.6836-1.3359 1.0234-1.1914 1.0547-2.5977-2.1602-0.96094-1.1367-1.0156-2.8398 0.015625-2.4453 1.2891-0.30078 1.0664-0.40234 0.97656-0.44141 0.94922-0.88281 0.91797-0.74609 0.74219-1.0234 0.28125-0.98438-0.91797-0.51562-0.18359-1.0273 0.40234-1.0117-0.25781-1.1484-0.58984-0.85156-0.96875-0.32812 0.76562-1.082-0.77344-0.78125-1.2383-0.55859-1.0898-1.8086-0.67969-2.6094-0.15625-1.5117-0.78125-0.83594-1.0977-0.88672-0.78516-0.83594 0.12891-1.2695 0.98438-2.5469 0.085938-1.4727-0.62109-1.3477-1.4961-1.7109-2.3984-2.1406-1.668-1.5156-3.625-2.2305-2.4375-2.0586-1.6445-1.4531 0.27734-1.4453 0.76562-0.75391 0.66797-1.2969 0.21875-1.7773 0.50391-1.4492 0.019532-1.1914 0.85938 0.82031 0.21875-1.3516 0.36719-0.94531 1.0039-0.59375-0.11719-1.1758-0.73828-0.73047 0.21094-1.1328-0.96875 0.52344-0.76953 1.0742-0.61719 0.97266-1.1289 0.39453-1.2969-0.39453-0.98047-0.37891-1.0156-0.32812-0.097656-1.25-0.82422-0.57031-0.95312-0.51172-0.91797-0.54297-0.019532-1.3516-1.043-0.54688-0.8125 0.88672-1.0547 0.21875 0.82031-0.98828 0.42578-0.90625-1.3828-0.30469-1.1289 0.16016-1.0781-0.46875-0.63281-0.82422-0.84375-0.57422-0.17578-1.2461-1.2422-1.293-1.0898-0.26172 0.76953-0.90625 0.32812-1.2539-0.94922-0.38672-0.66797 1.1289-1.0508 0.11328-0.16406-1.1445 0.41016-1.3086 0.83203-0.64453-0.027344-1.1719-1.375-0.14453-1.0469-0.45312 0.42969-1.0391-0.28125-1.1016-0.88672-0.59766-1.0469-0.03125-0.87109-1.1836-0.71094-0.83203-0.94531-0.65625-0.25391-1.3906-0.35156-1.7656-0.5-1.2461-0.64453-1.2891 0.14062-1.2305-0.085938-1.0938 0.46875-1.0859 1.1133-0.32422 1.8008-0.36719 1.1406-0.74609 0.40234-0.99219-0.69141-1.3945-0.39453-1.1836 0.87109-0.51562 0.76953-0.95703 0.53906-1.7852 1.0586-0.58203 1.1172 0.42188 1.4453 0.33594 1.0938 0.57812 1.5781 0.48828 1.2461-0.35547 1.2266-1.1328 0.53516-0.87109 1.2422-1.8477 1.1562-1.0977 1.2148-0.21484 0.97656 0.65234 1.5703 0.80859 3.957 2.2148 1.3867 0.64844 1.0898 0.53516 1.543 0.60156 0.84375 1.2227 1.0352 0.62109 1.1328 1.0625 1.2461 0.003907 1.1641 0.25781 0.67969-0.92969 1.1875-1.3906 1.0391-0.58594 0.71094-0.72266 0.035156-1.543 0.29297-0.98047 0.12891-1.0859 0.035157-2.6523 0.17969-1.0625 0.73047-1.1875 0.046875-1.2461-0.47266-1.2148-0.83594-0.91406-1.6602-1.4453-1.0547-1.0781-0.92188-1.3477-1.3008-1.6719-1.0781-0.96875-0.71875-0.875-0.97656-1-1.5195-0.88672-1.6367-0.75391-1.2148-0.10938 0.32031-1.1016 0.73828-0.91016 0.76172-1.1836 0.54297-2.6094 0.046875-1.8203 0.37109-1.3555 1.9453-0.125h1.2812l1.1562-0.12109 0.66016-1.0781 0.25781-1.4609-0.74609-1.2773 0.125-1.2812 0.51562-1.0859 0.36719-1.2734-0.10938-1.3125-0.023438-1-0.19922-1.6719 0.53125-0.93359 0.9375 1.0703 0.95312 1.2461 1.2266 1.1328 1.3359 1.0703 1.5117 0.59766 1.6914 0.75781 1.4219 1 0.82422 0.78125 0.78125 0.73438 1.332 0.66797 1.4258 0.42188 1.8008 0.37891 1.293 0.80078 2.0117 1.0977 1.4258 0.35156z" fill="#ccc" fill-rule="evenodd"/>
<path d="m352.09 24.375 0.85547 0.070313 1.9219 0.14453 1.207 0.91406 1.332 1.5195 2.2109 1.3594 0.71484 0.76562-0.14844 1.7969 0.9375 0.98438 1.75 0.15234 1.3008 0.76953 0.55859 1.4297 0.33984 1.7109 0.49219 1.1289 1.3164 0.625 1.1797-0.39062 1.6445-0.082031 2.2422 0.48828 1.4727 1.0039 1.1758 0.64062 1.2812 0.51172 0.91797 0.42969 1.4102 1.3867 1.1719 1.1758 0.68359 1.1719 0.79688 0.92969 1.0391 0.76953-0.47266 1.2266-0.92578 1.082-0.82812 0.85547-0.64453 1.6445-0.65234 1.0938-0.89453 1.1445-0.40625 1.5-0.007812 1.4688-0.36719 1.082 0.35156 1.4375 0.058594 1.4062-0.46875 1.4023 0.61719 1.25 1.082 0.73828 0.85547 0.61328 1.1133 0.67578 1.4453 0.61328 1.7383 0.67969 0.78906 0.70703 2.3594 1.3203 1.9062 1 0.94922 0.57812 0.95312 0.58203 0.94922 0.80078 1.3789 0.48828 1.6094 0.64453 1.3789 0.67969 1.8398 0.26562 1.543 0.86719 1.1133 0.93359 0.88672 0.83594 0.75 0.73828 0.72266 0.73828 1.0352 0.74609 0.32812 0.99219-0.1875 0.98047-0.33984 1.2617-0.26562 1.0781-0.16797 1.1172 0.046875 1.1133 0.21875 1.0547 0.32031 1.8711 0.17969 1.1758 0.15234 0.98828 0.1875 1.1289 0.16797 0.99609 0.16797 0.99219 0.17578 1.0547 0.17969 1.0898 0.16406 1 0.16797 1.0156 0.19531 1.25 0.28125 1.2734 0.17188 1.0859 0.16016 0.98438 1.2812 0.28516 1.4648-0.21875 1.1914-0.17969 1.0352 0.21875 0.59766 0.87109 0.44531 1.1523 1.0078-0.70312 0.71875-0.71484 0.74219-0.71484 0.73047-0.72656 0.89844-0.89844 0.90234-0.91016 0.98047-0.98828 0.72266-0.73828 0.56641-0.86719 0.60156-0.97656 0.53125-0.94922 0.55078-1.1016 0.92969-0.43359-0.042969 1.2461 0.71875 0.98438 1.5898 0.60547 1.168 0.035156 0.94141-0.45312 0.8125-0.67969 1.3867-0.125 1.75 0.15625 1.0938 0.74609 1.9297 0.23047 0.90625 0.54297 0.019531 1.082-0.94141 0.8125-0.46094 1.2227 0.77734 1.0547 1.332-0.14453 0.85156-0.94531 0.75781-0.87891 1.3203 0.23828 0.38281 1.1055-0.089843 1.2109 0.039062 1.2266 0.39844 1.4219 0.35938 1.1172 0.63672 1.4375 1.0938 1.1719 0.63672 1.2891-0.23828 2.0234-0.35938 1.0273-0.33203 1.2383-0.015625 1.0078 0.66797 0.94531-0.33594 1.1406-2.832 5.1406-1.4883-0.5625-2.3281-0.73047-2.3477-0.5-3.2422-0.84375-0.37109 1.8047-2.2031 7.9844-1.2891 4.1523-7.2969-0.51562-5.9375-0.42188-8.9883-0.63672-2.1875 4.2148-0.60938 0.87891-1.4961 1.3203-0.97656 1.543-0.52734 1.9336-1.7344 0.23047-10.266 1.5195-0.95312 0.3125-17.176 5.793-0.53516-2.1289-0.35547-1.0586-0.84766-1.5703-0.64453-1.2188-1.4414-2.8984-0.98047-1.4375-1.207-0.60156-1.6289 0.94141-1.1133 0.41406-1.2227 0.82031-1.9648 1.4062-1.2227 1.1172-1.2734 0.9375-0.86328 0.61719-0.95703 0.66797-0.94141 0.96484-1.4297 0.98828-1.4844 0.89844-1.125 0.84375-0.98828 0.78125-2.0898 1.6836-1.3359 1.0234-1.1914 1.0547-2.5977-2.1602-0.96094-1.1367-1.0156-2.8398 0.015625-2.4453 1.2891-0.30078 1.0664-0.40234 0.97656-0.44141 0.94922-0.88281 0.91797-0.74609 0.74219-1.0234 0.28125-0.98438-0.91797-0.51562-0.18359-1.0273 0.40234-1.0117-0.25781-1.1484-0.58984-0.85156-0.96875-0.32812 0.76562-1.082-0.77344-0.78125-1.2383-0.55859-1.0898-1.8086-0.67969-2.6094-0.15625-1.5117-0.78125-0.83594-1.0977-0.88672-0.78516-0.83594 0.12891-1.2695 0.98438-2.5469 0.085938-1.4727-0.62109-1.3477-1.4961-1.7109-2.3984-2.1406-1.668-1.5156-3.625-2.2305-2.4375-2.0586-1.6445-1.4531 0.27734-1.4453 0.76562-0.75391 0.66797-1.2969 0.21875-1.7773 0.50391-1.4492 0.019532-1.1914 0.85938 0.82031 0.21875-1.3516 0.36719-0.94531 1.0039-0.59375-0.11719-1.1758-0.73828-0.73047 0.21094-1.1328-0.96875 0.52344-0.76953 1.0742-0.61719 0.97266-1.1289 0.39453-1.2969-0.39453-0.98047-0.37891-1.0156-0.32812-0.097656-1.25-0.82422-0.57031-0.95312-0.51172-0.91797-0.54297-0.019532-1.3516-1.043-0.54688-0.8125 0.88672-1.0547 0.21875 0.82031-0.98828 0.42578-0.90625-1.3828-0.30469-1.1289 0.16016-1.0781-0.46875-0.63281-0.82422-0.84375-0.57422-0.17578-1.2461-1.2422-1.293-1.0898-0.26172 0.76953-0.90625 0.32812-1.2539-0.94922-0.38672-0.66797 1.1289-1.0508 0.11328-0.16406-1.1445 0.41016-1.3086 0.83203-0.64453-0.027344-1.1719-1.375-0.14453-1.0469-0.45312 0.42969-1.0391-0.28125-1.1016-0.88672-0.59766-1.0469-0.03125-0.87109-1.1836-0.71094-0.83203-0.94531-0.65625-0.25391-1.3906-0.35156-1.7656-0.5-1.2461-0.64453-1.2891 0.14062-1.2305-0.085938-1.0938 0.46875-1.0859 1.1133-0.32422 1.8008-0.36719 1.1406-0.74609 0.40234-0.99219-0.69141-1.3945-0.39453-1.1836 0.87109-0.51562 0.76953-0.95703 0.53906-1.7852 1.0586-0.58203 1.1172 0.42188 1.4453 0.33594 1.0938 0.57812 1.5781 0.48828 1.2461-0.35547 1.2266-1.1328 0.53516-0.87109 1.2422-1.8477 1.1562-1.0977 1.2148-0.21484 0.97656 0.65234 1.5703 0.80859 3.957 2.2148 1.3867 0.64844 1.0898 0.53516 1.543 0.60156 0.84375 1.2227 1.0352 0.62109 1.1328 1.0625 1.2461 0.003907 1.1641 0.25781 0.67969-0.92969 1.1875-1.3906 1.0391-0.58594 0.71094-0.72266 0.035156-1.543 0.29297-0.98047 0.12891-1.0859 0.035157-2.6523 0.17969-1.0625 0.73047-1.1875 0.046875-1.2461-0.47266-1.2148-0.83594-0.91406-1.6602-1.4453-1.0547-1.0781-0.92188-1.3477-1.3008-1.6719-1.0781-0.96875-0.71875-0.875-0.97656-1-1.5195-0.88672-1.6367-0.75391-1.2148-0.10938 0.32031-1.1016 0.73828-0.91016 0.76172-1.1836 0.54297-2.6094 0.046875-1.8203 0.37109-1.3555 1.9453-0.125h1.2812l1.1562-0.12109 0.66016-1.0781 0.25781-1.4609-0.74609-1.2773 0.125-1.2812 0.51562-1.0859 0.36719-1.2734-0.10938-1.3125-0.023438-1-0.19922-1.6719 0.53125-0.93359 0.9375 1.0703 0.95312 1.2461 1.2266 1.1328 1.3359 1.0703 1.5117 0.59766 1.6914 0.75781 1.4219 1 0.82422 0.78125 0.78125 0.73438 1.332 0.66797 1.4258 0.42188 1.8008 0.37891 1.293 0.80078 2.0117 1.0977 1.4258 0.35156 0.40234 0.097656" fill="none" stroke="#fff" stroke-linecap="round" stroke-linejoin="round" stroke-miterlimit="10" stroke-width="2"/>
<path d="m408.08 22.867 4.5312 1.8359 4.1719 2.125 4.5 2.0938 0.36328 0.94531 0.30859 0.95703 1.8906 5.9219 3.5078 8.4297-0.14453 3.3828 0.71094 1.0469 2.1992 3.2422 6.3984-1.2656 1.3867 3.668 2 0.070313 0.375 1.1094 0.32422 1.3516-4.0547-0.46094-1.375 0.22656 1.0977 1.0391 0.15625 1.7656-1.2969 0.37891 5.4688 10.949-3.7695 7.2188 1.6055 3.1914-2.4336 1.7188-1.418 0.83594-0.87891 3.0547-0.42969 1.4805 2.0703 4.457-1.2383 2.1836-0.90625-0.54297-1.3828 0.003906-1.0469-0.58594-1.4258-0.55078-1.7734-0.046875-1.0703 0.69141-1.2148 0.61328-1.168-0.035156-1.3008-0.39844-0.98438-1.1172 0.019532-1.3203-0.92188 0.42188-0.5625 1.1133-0.52734 0.94922-0.60156 0.97656-0.56641 0.86719-0.72266 0.73828-0.86328 0.87891-0.98438 0.99219-0.78906 0.78516-0.75 0.74609-0.81641 0.78906-0.76953 0.76172-0.85938 0.90625-0.52734-1.1914-0.53906-0.94531-1.0391-0.33203-1.0781 0.17188-1.6719 0.24609-1.1875 0.17578-0.28125-1.4414-0.17188-1.0859-0.19531-1.2266-0.23047-0.98047-0.16406-1-0.17188-1.0469-0.16406-1.0039-0.16797-1.0156-0.19922-1.1836-0.20703-1.2148-0.17188-1.0273-0.16797-1.0898-0.17969-1.1758-0.19141-1.3125-0.23828-1.0352-0.16406-1.0234 0.0625-1.1211 0.20312-1.0938 0.3125-1.1094 0.29297-1.1875-0.070312-1.1289-1.1953-1.2031-0.72266-0.73828-0.75-0.73828-0.88672-0.83594-1.1133-0.93359-1.543-0.86719-1.8398-0.26562-1.3789-0.67969-1.6094-0.64453-1.3789-0.48828-0.94922-0.80078-0.95312-0.58203-0.94922-0.57812-1.3477-0.74219-2.918-1.5781-0.78906-0.70703-0.98438-0.42188-1.4766-0.58203-1.2812-0.61328-1.0156-0.60938-1.0469-0.90234-1.0156-0.86719 0.039062-1.2422 0.46875-1.1797-0.48438-1.4727 0.37109-2.0078 0.007812-1.4688 0.40625-1.5 0.89453-1.1445 0.65234-1.0938 0.64062-1.1328 0.46875-1.0508 0.99219-0.98438 0.59766-0.89062 1.293-1.1172 1.6641-1.2148 0.99609-1.2969 0.99219-0.80078 1.3438-1.8047-0.58203-0.86719 0.61719-0.81641 0.8125-0.62109 0.80078-0.63281 0.82812-0.625 0.80859-0.60547 0.68359-0.73828 0.6875-0.76953 0.86328-0.51953 0.875-0.49609 0.73047-0.69922 0.73438-0.68359 0.78906-0.63672 0.80469-0.64453 0.80469-0.63281 0.78906-0.63281 0.78906-0.62109 0.82812-0.55859 0.83594-0.60938 0.79297-0.65234 0.82812-0.55859 0.83984-0.60156 0.82422-0.57031 0.82812-0.62891 0.86328-0.56641 1.0156-0.089844 0.36328-0.9375z" fill="#ccc" fill-rule="evenodd"/>
<path d="m408.08 22.867 4.5312 1.8359 4.1719 2.125 4.5 2.0938 0.36328 0.94531 0.30859 0.95703 1.8906 5.9219 3.5078 8.4297-0.14453 3.3828 0.71094 1.0469 2.1992 3.2422 6.3984-1.2656 1.3867 3.668 2 0.070313 0.375 1.1094 0.32422 1.3516-4.0547-0.46094-1.375 0.22656 1.0977 1.0391 0.15625 1.7656-1.2969 0.37891 5.4688 10.949-3.7695 7.2188 1.6055 3.1914-2.4336 1.7188-1.418 0.83594-0.87891 3.0547-0.42969 1.4805 2.0703 4.457-1.2383 2.1836-0.90625-0.54297-1.3828 0.003906-1.0469-0.58594-1.4258-0.55078-1.7734-0.046875-1.0703 0.69141-1.2148 0.61328-1.168-0.035156-1.3008-0.39844-0.98438-1.1172 0.019532-1.3203-0.92188 0.42188-0.5625 1.1133-0.52734 0.94922-0.60156 0.97656-0.56641 0.86719-0.72266 0.73828-0.86328 0.87891-0.98438 0.99219-0.78906 0.78516-0.75 0.74609-0.81641 0.78906-0.76953 0.76172-0.85938 0.90625-0.52734-1.1914-0.53906-0.94531-1.0391-0.33203-1.0781 0.17188-1.6719 0.24609-1.1875 0.17578-0.28125-1.4414-0.17188-1.0859-0.19531-1.2266-0.23047-0.98047-0.16406-1-0.17188-1.0469-0.16406-1.0039-0.16797-1.0156-0.19922-1.1836-0.20703-1.2148-0.17188-1.0273-0.16797-1.0898-0.17969-1.1758-0.19141-1.3125-0.23828-1.0352-0.16406-1.0234 0.0625-1.1211 0.20312-1.0938 0.3125-1.1094 0.29297-1.1875-0.070312-1.1289-1.1953-1.2031-0.72266-0.73828-0.75-0.73828-0.88672-0.83594-1.1133-0.93359-1.543-0.86719-1.8398-0.26562-1.3789-0.67969-1.6094-0.64453-1.3789-0.48828-0.94922-0.80078-0.95312-0.58203-0.94922-0.57812-1.3477-0.74219-2.918-1.5781-0.78906-0.70703-0.98438-0.42188-1.4766-0.58203-1.2812-0.61328-1.0156-0.60938-1.0469-0.90234-1.0156-0.86719 0.039062-1.2422 0.46875-1.1797-0.48438-1.4727 0.37109-2.0078 0.007812-1.4688 0.40625-1.5 0.89453-1.1445 0.65234-1.0938 0.64062-1.1328 0.46875-1.0508 0.99219-0.98438 0.59766-0.89062 1.293-1.1172 1.6641-1.2148 0.99609-1.2969 0.99219-0.80078 1.3438-1.8047-0.58203-0.86719 0.61719-0.81641 0.8125-0.62109 0.80078-0.63281 0.82812-0.625 0.80859-0.60547 0.68359-0.73828 0.6875-0.76953 0.86328-0.51953 0.875-0.49609 0.73047-0.69922 0.73438-0.68359 0.78906-0.63672 0.80469-0.64453 0.80469-0.63281 0.78906-0.63281 0.78906-0.62109 0.82812-0.55859 0.83594-0.60938 0.79297-0.65234 0.82812-0.55859 0.83984-0.60156 0.82422-0.57031 0.82812-0.62891 0.86328-0.56641 1.0156-0.089844 0.36328-0.9375 0.21484-0.41406" fill="none" stroke="#fff" stroke-linecap="round" stroke-linejoin="round" stroke-miterlimit="10" stroke-width="2"/>
<path d="m361.55 137.93 0.61719 0.73828 1.2344 2.8438 1.2148 1.9727 0.84766 1.5703 0.35547 1.0586 0.53516 2.1289-0.35547 1.5859 0.44141 1.3438 2.5391 4.0234 0.51172 1.0664 0.73047 1.0039 0.83203 1.625 0.82031 1.0586 0.53516 1.0547 1.6406 2.4219 1.5156 2.6992-1.2266 1.5469-0.95312 1.2422-1.0078 1.2578-0.98438 1.1172-0.68359 0.85938-0.86328 1.0352-0.66406 0.85547-1.1445 1.4961-0.60938 0.85938-0.66016 0.78906 0.31641 1.2578 1.6758 0.73047 1.1953-0.050781 0.97656 0.23047-1.0352 1.0586 0.73438 0.71875-0.86719 0.50781 0.50781 0.91406-0.30078 1.1094-0.20703 1.0156-0.56641 1.0195 0.10547 1.1016-0.75781 0.87891-1.1484 0.41797-0.99609 0.90625-1.0234 0.32031-1.043 0.070312-1.1133 0.49609-0.59375 1.3047-0.84375 1.0078-1.0547-0.23828-0.1875 1.1367-0.76953 0.80469-0.71094 0.97656-0.92578-0.49219 0.27734 1.1172-0.68359 0.82812-0.62109 0.88281-1.0039 0.14062-0.22266 1.0234-1.1367-0.16797-0.79688 0.91797 0.042969 1.0469-1.1055 0.097657-1.0625 0.011718-1.0898-0.078125-0.98828 0.53906-0.75391 1.0039-0.050782 1.0039-0.48828 0.97266-0.90234 0.53125-0.45312 1.0703h-1.5469l-1.0117 0.078125-1.4336-0.29688-1.3594-0.75-2.0859-0.26562-1.2539 0.91406-0.64062 0.94531-0.82031 2.2852-1.0391 4.332-0.94531 1.5859-1.0469 0.78125-0.92188 0.55078-1.1133 0.28516-1.2227-0.20312-0.99219-0.29297-1.0156-0.17578-0.80859 0.70312-0.61719 0.84375-0.37891 1.1094-0.71875 0.70703-1.0898 0.4375-1.1445 0.49219-0.37891 1.082-0.19141 1.0195-1.2188 1.8477-0.39062 1.2773-1.5 1.082-1.2617 1.2852-0.51562 1.2812-0.28516 1.0117-0.99609 0.70703-0.63281 0.89062-0.4375 0.99609-0.21094 1.0312-0.92188 0.85156-0.66406 1.0117-0.25 1.1016-1.0508 0.36719-0.75 0.66406-0.67969 0.99609-3.9023-3.4922-0.89844-0.63281-1-0.48438-1.0664-0.28516-1.5625-0.003906-1.0859-0.078125-2.3945-0.19531-3.375-0.38672-1 0.13281-1.6602 0.375-1.5234 0.55078-1.4648 1.1602-0.85547 0.875-2.6484 2.1719-1.9219 0.60938-1.0078 0.15234-1.3125 0.11719-1.8555 0.375-1.6406 1.0312-1.2305 0.47656-0.93359-0.37891-1.0938-1.8359-0.22656-1.1367-0.089843-2.543 0.070312-1.6211 0.4375-1.6133 0.84766-1.0977 1.0391-0.92969 1.4883-0.9375 1.2539-0.96484 1.6289-1.6055 0.46875-1.4453 0.019531-1.3359 1.3516-2.793 0.72266-1.0156 0.75-1.2969 1.793-2.625 1.2617-0.96094 1.4648-0.12891 1.3281 0.23828 1.2617-0.17969 1.5977-0.69141 1.1758-0.58203 1.0078-1.2109 0.59766-1.1367 0.94141-2.7891 0.76953-2.1289 0.50391-1.2461 0.39453-1.5781 0.15234-1.0742-0.50391-1.5586-0.85547-1.0078-2.0547-0.34375-0.84766-0.82422-0.003906-1.3711 0.72656-1.9961 0.71875-2.4883 0.76562-1.0625 0.94922-1.1016 2.2695-0.61719h1.3164l1.0352-0.25781 0.85547-1.4766-0.019531-1.332-0.29688-1.6367-0.90625-2.3086-0.20703-1.6602 0.18359-1.2617 0.23047-1.6172-0.027343-1.332-0.66016-0.89844 0.34375-0.98828 0.10938-1.1094 1.1953-0.69141 1.1953-0.097656 0.73828-0.69922 0.13281-1.0117 0.10547-1.3164 0.34766-0.94922 0.8125-0.73438 0.21484-0.98828 0.93359-0.45312 1.5977 0.27344 1.2891 0.21094 0.59766-0.96875 0.81641-0.75781 0.5-1.0664 0.45703-1.1055 1.1836-0.50781 0.92578-0.80859 0.84766-0.80469 0.40234-0.92188-0.125-1.0938 1.0312-0.34766 1.3047-0.27734 1.1211-0.14062 1.0117 0.23047 0.6875-0.89453 0.83984-0.90234 1.0938-0.40234 0.26562-1.1758 0.18359-1.0625 0.097656-1.0234 0.94531-0.86328 0.33203-1.2188 0.74609-0.71875 0.66797-0.76172 0.25781-1.1562 0.80859-0.73828 1-0.32812 0.99609-0.37891 0.87109-0.86719 0.57031-1.2656 0.82812-0.72656 1.207 0.13281 0.64844 2.2578 0.53516 2.0312 1.4414 1.9453 2.3242 2.2461 1.0078-0.73828 1.3086-1.0586 1.875-1.4883 1.1523-0.9375 1.2383-0.95312 1.2227-0.77344 1.3906-0.87891 1.1133-0.95312 0.73438-0.69531 1.6367-1.1328 1.2734-0.9375 1.2227-1.1172 1.9648-1.4062 1.2227-0.82031 1.1133-0.41406 1.0156-0.65625z" fill="#0a5394" fill-rule="evenodd"/>
<path d="m361.55 137.93 0.61719 0.73828 1.2344 2.8438 1.2148 1.9727 0.84766 1.5703 0.35547 1.0586 0.53516 2.1289-0.35547 1.5859 0.44141 1.3438 2.5391 4.0234 0.51172 1.0664 0.73047 1.0039 0.83203 1.625 0.82031 1.0586 0.53516 1.0547 1.6406 2.4219 1.5156 2.6992-1.2266 1.5469-0.95312 1.2422-1.0078 1.2578-0.98438 1.1172-0.68359 0.85938-0.86328 1.0352-0.66406 0.85547-1.1445 1.4961-0.60938 0.85938-0.66016 0.78906 0.31641 1.2578 1.6758 0.73047 1.1953-0.050781 0.97656 0.23047-1.0352 1.0586 0.73438 0.71875-0.86719 0.50781 0.50781 0.91406-0.30078 1.1094-0.20703 1.0156-0.56641 1.0195 0.10547 1.1016-0.75781 0.87891-1.1484 0.41797-0.99609 0.90625-1.0234 0.32031-1.043 0.070312-1.1133 0.49609-0.59375 1.3047-0.84375 1.0078-1.0547-0.23828-0.1875 1.1367-0.76953 0.80469-0.71094 0.97656-0.92578-0.49219 0.27734 1.1172-0.68359 0.82812-0.62109 0.88281-1.0039 0.14062-0.22266 1.0234-1.1367-0.16797-0.79688 0.91797 0.042969 1.0469-1.1055 0.097657-1.0625 0.011718-1.0898-0.078125-0.98828 0.53906-0.75391 1.0039-0.050782 1.0039-0.48828 0.97266-0.90234 0.53125-0.45312 1.0703h-1.5469l-1.0117 0.078125-1.4336-0.29688-1.3594-0.75-2.0859-0.26562-1.2539 0.91406-0.64062 0.94531-0.82031 2.2852-1.0391 4.332-0.94531 1.5859-1.0469 0.78125-0.92188 0.55078-1.1133 0.28516-1.2227-0.20312-0.99219-0.29297-1.0156-0.17578-0.80859 0.70312-0.61719 0.84375-0.37891 1.1094-0.71875 0.70703-1.0898 0.4375-1.1445 0.49219-0.37891 1.082-0.19141 1.0195-1.2188 1.8477-0.39062 1.2773-1.5 1.082-1.2617 1.2852-0.51562 1.2812-0.28516 1.0117-0.99609 0.70703-0.63281 0.89062-0.4375 0.99609-0.21094 1.0312-0.92188 0.85156-0.66406 1.0117-0.25 1.1016-1.0508 0.36719-0.75 0.66406-0.67969 0.99609-3.9023-3.4922-0.89844-0.63281-1-0.48438-1.0664-0.28516-1.5625-0.003906-1.0859-0.078125-2.3945-0.19531-3.375-0.38672-1 0.13281-1.6602 0.375-1.5234 0.55078-1.4648 1.1602-0.85547 0.875-2.6484 2.1719-1.9219 0.60938-1.0078 0.15234-1.3125 0.11719-1.8555 0.375-1.6406 1.0312-1.2305 0.47656-0.93359-0.37891-1.0938-1.8359-0.22656-1.1367-0.089843-2.543 0.070312-1.6211 0.4375-1.6133 0.84766-1.0977 1.0391-0.92969 1.4883-0.9375 1.2539-0.96484 1.6289-1.6055 0.46875-1.4453 0.019531-1.3359 1.3516-2.793 0.72266-1.0156 0.75-1.2969 1.793-2.625 1.2617-0.96094 1.4648-0.12891 1.3281 0.23828 1.2617-0.17969 1.5977-0.69141 1.1758-0.58203 1.0078-1.2109 0.59766-1.1367 0.94141-2.7891 0.76953-2.1289 0.50391-1.2461 0.39453-1.5781 0.15234-1.0742-0.50391-1.5586-0.85547-1.0078-2.0547-0.34375-0.84766-0.82422-0.003906-1.3711 0.72656-1.9961 0.71875-2.4883 0.76562-1.0625 0.94922-1.1016 2.2695-0.61719h1.3164l1.0352-0.25781 0.85547-1.4766-0.019531-1.332-0.29688-1.6367-0.90625-2.3086-0.20703-1.6602 0.18359-1.2617 0.23047-1.6172-0.027343-1.332-0.66016-0.89844 0.34375-0.98828 0.10938-1.1094 1.1953-0.69141 1.1953-0.097656 0.73828-0.69922 0.13281-1.0117 0.10547-1.3164 0.34766-0.94922 0.8125-0.73438 0.21484-0.98828 0.93359-0.45312 1.5977 0.27344 1.2891 0.21094 0.59766-0.96875 0.81641-0.75781 0.5-1.0664 0.45703-1.1055 1.1836-0.50781 0.92578-0.80859 0.84766-0.80469 0.40234-0.92188-0.125-1.0938 1.0312-0.34766 1.3047-0.27734 1.1211-0.14062 1.0117 0.23047 0.6875-0.89453 0.83984-0.90234 1.0938-0.40234 0.26562-1.1758 0.18359-1.0625 0.097656-1.0234 0.94531-0.86328 0.33203-1.2188 0.74609-0.71875 0.66797-0.76172 0.25781-1.1562 0.80859-0.73828 1-0.32812 0.99609-0.37891 0.87109-0.86719 0.57031-1.2656 0.82812-0.72656 1.207 0.13281 0.64844 2.2578 0.53516 2.0312 1.4414 1.9453 2.3242 2.2461 1.0078-0.73828 1.3086-1.0586 1.875-1.4883 1.1523-0.9375 1.2383-0.95312 1.2227-0.77344 1.3906-0.87891 1.1133-0.95312 0.73438-0.69531 1.6367-1.1328 1.2734-0.9375 1.2227-1.1172 1.9648-1.4062 1.2227-0.82031 1.1133-0.41406 1.0156-0.65625 1.8203 0.31641" fill="none" stroke="#fff" stroke-linecap="round" stroke-linejoin="round" stroke-miterlimit="10"/>
<path d="m313.17 191.23c0 3.5898-2.9102 6.5-6.5 6.5s-6.5-2.9102-6.5-6.5c0-3.5898 2.9102-6.5 6.5-6.5s6.5 2.9102 6.5 6.5" fill="#28c028" fill-rule="evenodd" stroke="#000" stroke-linecap="round" stroke-linejoin="round" stroke-miterlimit="10"/>
<path d="m213.21 179.18 3.2344 1.0156c-0.5 1.793-1.3281 3.125-2.4844 4-1.1484 0.875-2.6016 1.3125-4.3594 1.3125-2.1875 0-3.9844-0.74219-5.3906-2.2344-1.4062-1.5-2.1094-3.5469-2.1094-6.1406 0-2.7383 0.70312-4.8633 2.1094-6.375 1.4141-1.5195 3.2812-2.2812 5.5938-2.2812 2.0078 0 3.6445 0.60156 4.9062 1.7969 0.75 0.69922 1.3125 1.7109 1.6875 3.0312l-3.2969 0.78125c-0.19922-0.85156-0.60547-1.5234-1.2188-2.0156-0.61719-0.5-1.3672-0.75-2.25-0.75-1.2188 0-2.2109 0.4375-2.9688 1.3125-0.76172 0.875-1.1406 2.2969-1.1406 4.2656 0 2.0742 0.375 3.5547 1.125 4.4375 0.75 0.88672 1.7227 1.3281 2.9219 1.3281 0.88281 0 1.6445-0.28125 2.2812-0.84375 0.63281-0.5625 1.0859-1.4414 1.3594-2.6406zm20.922 6.0469h-3.6094l-1.4375-3.7344h-6.5781l-1.3594 3.7344h-3.5312l6.4062-16.469h3.5156zm-6.1094-6.5156-2.2812-6.1094-2.2188 6.1094zm7.8906-9.9531h6.5781c1.3008 0 2.2695 0.058593 2.9062 0.17188 0.64453 0.10547 1.2188 0.32812 1.7188 0.67188 0.50781 0.34375 0.92969 0.80469 1.2656 1.375 0.34375 0.57422 0.51562 1.2188 0.51562 1.9375 0 0.77344-0.21094 1.4805-0.625 2.125-0.41797 0.63672-0.98047 1.1172-1.6875 1.4375 1 0.29297 1.7656 0.79297 2.2969 1.5 0.53906 0.69922 0.8125 1.5273 0.8125 2.4844 0 0.74219-0.17188 1.4648-0.51562 2.1719-0.34375 0.71094-0.82031 1.2773-1.4219 1.7031-0.60547 0.41797-1.3516 0.67969-2.2344 0.78125-0.55469 0.0625-1.8906 0.10156-4.0156 0.10938h-5.5938zm3.3281 2.75v3.7969h2.1719c1.2891 0 2.0977-0.015625 2.4219-0.046875 0.5625-0.070313 1.0039-0.26953 1.3281-0.59375 0.33203-0.32031 0.5-0.75 0.5-1.2812 0-0.50781-0.14062-0.92188-0.42188-1.2344-0.28125-0.32031-0.69922-0.51953-1.25-0.59375-0.33594-0.03125-1.2812-0.046875-2.8438-0.046875zm0 6.5469v4.3906h3.0781c1.1953 0 1.9531-0.03125 2.2656-0.09375 0.5-0.09375 0.90625-0.3125 1.2188-0.65625s0.46875-0.8125 0.46875-1.4062c0-0.48828-0.12109-0.90625-0.35938-1.25-0.24219-0.34375-0.58984-0.59375-1.0469-0.75-0.44922-0.15625-1.4336-0.23438-2.9531-0.23438zm28.109 7.1719h-3.6094l-1.4375-3.7344h-6.5781l-1.3594 3.7344h-3.5312l6.4062-16.469h3.5156zm-6.1094-6.5156-2.2812-6.1094-2.2188 6.1094zm7.9062 6.5156v-16.469h3.2344l6.75 11v-11h3.0781v16.469h-3.3281l-6.6406-10.734v10.734zm31.422 0h-3.6094l-1.4375-3.7344h-6.5781l-1.3594 3.7344h-3.5312l6.4062-16.469h3.5156zm-6.1094-6.5156-2.2812-6.1094-2.2188 6.1094zm0 0" fill="none" stroke="#fff" stroke-linecap="round" stroke-linejoin="round" stroke-miterlimit="10" stroke-width="2"/>
<path d="m213.21 179.18 3.2344 1.0156c-0.5 1.793-1.3281 3.125-2.4844 4-1.1484 0.875-2.6016 1.3125-4.3594 1.3125-2.1875 0-3.9844-0.74219-5.3906-2.2344-1.4062-1.5-2.1094-3.5469-2.1094-6.1406 0-2.7383 0.70312-4.8633 2.1094-6.375 1.4141-1.5195 3.2812-2.2812 5.5938-2.2812 2.0078 0 3.6445 0.60156 4.9062 1.7969 0.75 0.69922 1.3125 1.7109 1.6875 3.0312l-3.2969 0.78125c-0.19922-0.85156-0.60547-1.5234-1.2188-2.0156-0.61719-0.5-1.3672-0.75-2.25-0.75-1.2188 0-2.2109 0.4375-2.9688 1.3125-0.76172 0.875-1.1406 2.2969-1.1406 4.2656 0 2.0742 0.375 3.5547 1.125 4.4375 0.75 0.88672 1.7227 1.3281 2.9219 1.3281 0.88281 0 1.6445-0.28125 2.2812-0.84375 0.63281-0.5625 1.0859-1.4414 1.3594-2.6406zm20.922 6.0469h-3.6094l-1.4375-3.7344h-6.5781l-1.3594 3.7344h-3.5312l6.4062-16.469h3.5156zm-6.1094-6.5156-2.2812-6.1094-2.2188 6.1094zm7.8906-9.9531h6.5781c1.3008 0 2.2695 0.058593 2.9062 0.17188 0.64453 0.10547 1.2188 0.32812 1.7188 0.67188 0.50781 0.34375 0.92969 0.80469 1.2656 1.375 0.34375 0.57422 0.51562 1.2188 0.51562 1.9375 0 0.77344-0.21094 1.4805-0.625 2.125-0.41797 0.63672-0.98047 1.1172-1.6875 1.4375 1 0.29297 1.7656 0.79297 2.2969 1.5 0.53906 0.69922 0.8125 1.5273 0.8125 2.4844 0 0.74219-0.17188 1.4648-0.51562 2.1719-0.34375 0.71094-0.82031 1.2773-1.4219 1.7031-0.60547 0.41797-1.3516 0.67969-2.2344 0.78125-0.55469 0.0625-1.8906 0.10156-4.0156 0.10938h-5.5938zm3.3281 2.75v3.7969h2.1719c1.2891 0 2.0977-0.015625 2.4219-0.046875 0.5625-0.070313 1.0039-0.26953 1.3281-0.59375 0.33203-0.32031 0.5-0.75 0.5-1.2812 0-0.50781-0.14062-0.92188-0.42188-1.2344-0.28125-0.32031-0.69922-0.51953-1.25-0.59375-0.33594-0.03125-1.2812-0.046875-2.8438-0.046875zm0 6.5469v4.3906h3.0781c1.1953 0 1.9531-0.03125 2.2656-0.09375 0.5-0.09375 0.90625-0.3125 1.2188-0.65625s0.46875-0.8125 0.46875-1.4062c0-0.48828-0.12109-0.90625-0.35938-1.25-0.24219-0.34375-0.58984-0.59375-1.0469-0.75-0.44922-0.15625-1.4336-0.23438-2.9531-0.23438zm28.109 7.1719h-3.6094l-1.4375-3.7344h-6.5781l-1.3594 3.7344h-3.5312l6.4062-16.469h3.5156zm-6.1094-6.5156-2.2812-6.1094-2.2188 6.1094zm7.9062 6.5156v-16.469h3.2344l6.75 11v-11h3.0781v16.469h-3.3281l-6.6406-10.734v10.734zm31.422 0h-3.6094l-1.4375-3.7344h-6.5781l-1.3594 3.7344h-3.5312l6.4062-16.469h3.5156zm-6.1094-6.5156-2.2812-6.1094-2.2188 6.1094z" fill-rule="evenodd"/>
</g>
</svg>
