<?xml version="1.0" encoding="UTF-8"?>
<svg width="500pt" height="345pt" version="1.1" viewBox="0 0 500 345" xmlns="http://www.w3.org/2000/svg">
<g id="a">
<rect width="500" height="345" fill="none"/>
<path d="m27.309 119.34 0.25 0.28516 1.3867 1.5547 9.8398 3.0664 3.3438 0.625 1.9375 1.1445 1.6445 2.1133 1.4102 2.5703 2.1836 3.6758 0.32031 1.7266-0.050781 3.5391-0.066406 4.5469 0.39453 7.6016 0.69141 3.7031 0.57812 2.0781 1.2031 2.0977 1.4805 3.8398 2 4.8398 1.1641 3.5508 1.6172 4.7695 1.1484 5.9648 0.46484 2.8633 2.8789 4.1289 0.60938 2.793 0.085938 2.6484-0.69922 1.8516-0.92188 2.4141 0.09375 2.1289-8.2617-2.3711-2.8828-0.42188-1.9883-0.82812-0.95703-0.76562-2.9258-3.0195-1.6211-1.6875-2.2266-0.44531-1.1445-0.63672-3.2773-3.5625-2.0664-2.9258-1.207-1.0156-2.7031 0.59375-1.2734 0.30859-3.4844 0.83594-1.1484 0.33203-2.625 0.75-2.5547-0.35938-1.125-0.52344-1.3945-1.1758-1.6445-1.918-6.8906-8.7383-7.2891-7.1211-1.2305-1.707 0.52344-2.207 0.92188-1.457 1.4375-2.207 0.52344-3.4922 0.30078-2.0352 0.18359-1.2305 0.57422-3.1641 0.38672-1.5312 0.47656-1.4375 0.86328-1.5352 0.47656-1.7266 0.27734-1.0117-1.3242-0.96484-1.6445-0.41797-1.332-1.2969-0.63281-2.168 0.125-2.2305 0.72656-3.0352 0.57812-2.4883 0.87891-0.83984 0.88672-0.58594 0.98047-0.33984 0.89453-0.625-0.21484-1.8789 0.074218-1.1953-0.0625-1.0938-1.3047-2.1094 2.7461-1.4844 4.6719-0.74219 3.582-0.99219 6.793-2.2891 1.0117-0.30859z" fill="#ccc" fill-rule="evenodd"/>
<path d="m27.309 119.34 0.25 0.28516 1.3867 1.5547 9.8398 3.0664 3.3438 0.625 1.9375 1.1445 1.6445 2.1133 1.4102 2.5703 2.1836 3.6758 0.32031 1.7266-0.050781 3.5391-0.066406 4.5469 0.39453 7.6016 0.69141 3.7031 0.57812 2.0781 1.2031 2.0977 1.4805 3.8398 2 4.8398 1.1641 3.5508 1.6172 4.7695 1.1484 5.9648 0.46484 2.8633 2.8789 4.1289 0.60938 2.793 0.085938 2.6484-0.69922 1.8516-0.92188 2.4141 0.09375 2.1289-8.2617-2.3711-2.8828-0.42188-1.9883-0.82812-0.95703-0.76562-2.9258-3.0195-1.6211-1.6875-2.2266-0.44531-1.1445-0.63672-3.2773-3.5625-2.0664-2.9258-1.207-1.0156-2.7031 0.59375-1.2734 0.30859-3.4844 0.83594-1.1484 0.33203-2.625 0.75-2.5547-0.35938-1.125-0.52344-1.3945-1.1758-1.6445-1.918-6.8906-8.7383-7.2891-7.1211-1.2305-1.707 0.52344-2.207 0.92188-1.457 1.4375-2.207 0.52344-3.4922 0.30078-2.0352 0.18359-1.2305 0.57422-3.1641 0.38672-1.5312 0.47656-1.4375 0.86328-1.5352 0.47656-1.7266 0.27734-1.0117-1.3242-0.96484-1.6445-0.41797-1.332-1.2969-0.63281-2.168 0.125-2.2305 0.72656-3.0352 0.57812-2.4883 0.87891-0.83984 0.88672-0.58594 0.98047-0.33984 0.89453-0.625-0.21484-1.8789 0.074218-1.1953-0.0625-1.0938-1.3047-2.1094 2.7461-1.4844 4.6719-0.74219 3.582-0.99219 6.793-2.2891 1.0117-0.30859 2.5547 4.4023" fill="none" stroke="#fff" stroke-linecap="round" stroke-linejoin="round" stroke-miterlimit="10" stroke-width="2"/>
<path d="m191.72 35.055 0.91406 0.63672 12.188 6.3867 2.4023 0.74609 5.75 1.4609 3.0703 0.71484 1.3008 0.30078 2.8047 0.47266 2.9531 1.1875 1.582 0.82031 2.082 2.043 1.6133 0.59375 1.5703 0.57812 1.8359 2.0078 3.9219 2.9805 5.1875 4.0391 4.2969 3.3438 6.9961-4.3242 0.1875 1.5664-0.82422 1.7109-1.0625 2.918 0.26562 6.6875 0.015625 3.8359-0.83984 3.7383-1.3867 2.7383-0.44141 1.5938-3.2695 4.2422-3.0938 2.7695-2.8047 2.0547-2.1445 1.5703-5.3359 4.0938-4.5469 3.7461-1.5078 1.4688-1.3398 2.0078-0.44531 1.5-0.23438 1.918-0.80469 2.1875-0.48047 1.3047-0.12891 1.7539 0.23438 2.1797 1.1211 1.8867 3.1484 1.9141 1.3984 1.1758 0.96484 1.1641 0.54297 1.4844 0.19922 1.0586-0.60938 0.82031-1.0586-1.1367-1.1836-0.42969-1.2656-0.48438-0.42578 1.1641-1.0273 0.52344 0.89062 2.293 0.035156 1.5781-1.293 2.0469-1.1484 0.96094-1.0742 0.96094-0.64453-0.83203 0.070312-1.2344-0.17969-1.7383-0.78906-2.7773-0.64453-0.82422-1.0781-0.13672-1.1406 0.98828-2.4375 0.40234-1.8555-1.0078-1.9102-2.5078-1.5859-0.78516-1.3711-0.21484-1.793 0.34766-1.0156-0.17188-0.41797-1.1406 0.99609-2.1562 0.65234-1.9102 0.375-2.4062-0.03125-1.0078-0.61328-1.0039-1.1094 0.39453-0.99219 0.88672-0.875 0.52344-1.4688 0.046875-1.0703-0.92578-1.1367-2.1367-1.3438-0.89062-1.7734-0.62891-2.7031-1.4648-0.48438-1.8867 0.62109-1.3555 0.046875-1.0039-0.40234-1.0508-0.003906-1.5547-1.3828-1.2344-1.2578-0.44922-1.0703 0.32812-1.4141-0.003906-2.1562 0.55859-0.85547 0.64062-2.0312 0.41016-1.6445 0.003906-1.1406 1.2461 0.21094 1.4297 0.75391 0.66016 1.3906-0.95703 0.16016 1.1055-0.50781 1.3281-0.86328 1.1641-0.33203 1.043-1.043 0.21875-1.4688 0.85547-1.2031-1.0898-1.0352-0.33203-1.6211-0.13281-0.46484 1.7148-3.2773 0.10547-1.8359-0.62891-1.8477-0.21094-1.6055 0.59766-1.0625 1.1406-1.2266 2.1836-0.48828 1.2734-0.23047 1.2344 0.14062 1.9727-0.19922 1.2305 0.82031 2.0938 0.62109 1.0781 0.43359 2.3008-0.37109 1.6328-0.61719 1.4336 0.035156 1.8047-0.46094 1.375-1.2148 1.5352-0.40234 1.4883 1.0625 0.23047 1.8477-0.53906 0.75391 1.3359 1.1211 1.0195 1.0039 3.1133 1.2578-0.0625 1.2344 0.39844 1.0508 1.0586 0.37109 0.97656 2.4141 0.4375 1.9336 0.66406 1.5547 0.035156 1.2383-0.90234 1.2773-0.53516 1.332-0.18359 1.457-1.1328 1.1055 0.44141 1.8203-0.24219 1.5703-1.4258 1.1914-0.89062 0.89453-0.86328 1.0469-0.070313-0.17188 1.5547-0.33984 1.0234 0.11719 1.0312 1.3125 0.98438 1.332 0.21875 1.707 0.53906 2.7383 1.0195 1.1406 0.96484v1.5586l1.1055 1.293 0.64844 0.85938 1.1641 0.875 0.62109 1.2344 0.72656 0.94531 0.42578 1.2344 1.7539 1.3281 1.2188 2.1953 1.4023 1.2344 1.5977 2.1836 1.1211 1.4062 0.58203 0.95312 1.582-0.85547 1.1758-0.20312-0.49219 1.4336-1.0352 1.0586 0.6875 0.85547 1.2773 1.4375 0.5 1.9961 1.0117 1.1953-0.34766 2.7734-0.70312 1.0039-0.53906 2.125-0.34375 1.2148 0.51172 1.293 1.6523 0.91406 0.76562 0.75 0.84375 0.54297 1.582 1.2734 2.125 2.0039 0.76562 0.89062 0.44531 0.92969 0.39844 1.8555 1.1172 1.7539 1.3828 2.8477 1.7422 1.2188 1.168 1.7148 0.75391 2.6992 0.20312 1.3984 2.8711 5.4648 2.0547 3.043 0.16406 1.0547-0.12109 1.2812-0.33594 2.0391-1.1172 0.76953-0.52734 1.0234-0.15625 1.7461-0.96094 1.9336-2.1367 2.4297-0.60547 1.4375 1.7773 2.2461 2.4219 2.9805 0.85938 1.5898 0.41016 1.3203-0.066406 1.2305-0.63281 1.4961-1.2422 1.625-1.6641 1.543-0.73438 0.88281-0.59375 1.5156 0.1875 2.168 0.51953 0.86328-0.89453 0.65625-1.418 0.33203-0.94922-0.91406-0.38281-1.3906 0.28906-2.8984 0.61719-3.4062 0.67969-3.7656-0.48828-2.1406-1.5547-1.8164-9.8438-4.0664-9.6797-2.9883-1.9336-0.25-2.2344 0.50391-3.7461 1.0508-4.293 0.84375-3.6602 0.58984-2.9883 0.33594-1.7695-0.29688-2.4414-1.0508-3.7422-1.2188-3.707-0.085938-5.1406 0.54688-3.8359 0.84375-1.6016 0.33984-5.7109 1.2148-4.1172-0.10156-3.793 0.85938-3.25 0.55859-2.3047 0.24219-5.0742 0.44141-4.8633 0.42188-2.8594-0.14453-1.4922 0.30078-1.4922 0.90234-3.2695 4.1289-1.0742 1.043-1.8984 1.2969-2.0898 0.125-5.207-0.98047-6.0664-1.2656-4.0977-0.023438-1.6797 0.46094-1.2773 0.75781-1.4297 2.2969-1.6836 2.2812-1.1641 1.4648-1.2773 0.6875-7.1641-0.15625-1.8242-0.25-0.93359-0.42188-0.36719-1.7344-1.0625-1.6406-1.0547-0.66797-1.0117-1.1172-0.035156-1.7734 0.30469-1.7031-0.42578-3.7031-1.2148-3.1406-1.25-2.3516-1.0352-3.8281 0.58594-2.5234 0.87109-2.3164-0.1875-1.8945-0.36328-1.0859-0.76172-0.75391-1.0703 0.17188-1.6992 0.64453-1.293 0.47266-1.0859 0.22266-3.1445 0.050781-2.0664-0.53125-1.2969-0.88672-1.1289-1.2266-1.0859-0.78516-1.625-0.29688-1.0859-0.55859-1.1875-1.3789-0.09375-2.1289 0.38281-1.5898 1.0195-1.7148 0.13281-3.6094-0.60938-2.793-2.8789-4.1289-0.46484-2.8633-1.1484-5.9648-1.6172-4.7695-1.0508-3.1094-2.1133-5.2812-1.4805-3.8398-1.2031-2.0977-0.57812-2.0781-0.69141-3.7031-0.39453-7.6016 0.066406-4.5469 0.050781-3.5391-0.32031-1.7266-2.1836-3.6758-1.4102-2.5703-1.6445-2.1133-1.9375-1.1445-3.3438-0.625-9.8398-3.0664-1.3867-1.5547-2.6797-4.7227 2.2539-0.68359 3.4609-1.4648 1.6055-0.45703 1.2266-0.23828 2.7734-1.0312 1.7617-0.42188 1.6172-0.0625 1.4492 0.55859 1.207 1.1914 1.1797 0.59766 2.3281 0.13672 2.2617-0.33594 1.8164-0.54688 1.5391-0.27734 2.9727 0.070313 2.2656-0.26562 3.0625-0.80469 2.4805-0.85156 2.3125-0.65234 1.957-0.72266 1.4648-0.45312 1.0195-0.20312 1.8555-0.17578 1.1875-0.32812 1.4297-0.61328 2.3359-0.82031 2.0703-0.96094 2.0391-1.1953 1.6172-0.82812 1.5508-0.64844 1.6094-0.51172 2.7773-1.3477 3.8594-2.0469 0.89844-0.60156 1.457-0.80078 3.7578-1.6836 3.1914-1.6445 5.1094-2.9062 5.6797-3.5234 1.9336-0.99609 1.6133-0.59375 1.25 0.80469 2.8164 1.0234 3.6523 1.4297 1.9805 0.10156-3.207 0.46875-1.2812-0.039062-2.207-0.875-1.1406-0.20312-1.3086 0.48438-1.7188-0.30078-1.4961-0.082032 2.3438 1.2617 1.4961 0.91797 0.95312 0.32812 1.0938 0.23828 0.96484 0.59766 2.0898 0.42188 1.0391 0.36719 1.2539 0.27734 0.89062-0.54688 0.23828-1.2461 1.4375-0.17578 0.55859 1.3281 0.62891 1.3008 0.90234 0.875 1.9336 0.13281 1.2852-0.14844 1.2344-0.25 1.5625 0.042969 1.3203-0.23047 1.2812 0.10547 1.9609-2.2227 1.1016-1.3867-0.41406-1.3008-1.5117-0.78516-1.1445-0.47656-1.5508-1.2148 0.39062-1.1797 2.0742-0.25781 1.1641-0.55078 1.1445-0.30859-0.085938-1.3477-1.125-1-1.1602-0.52734-0.95312-1.4023-1.6328-0.3125-1.3828-1.1641-0.57812-1.0898-1.5781-1.8359-0.62109-1.0195-0.14453-1.5898 0.49219-1.0703-0.76562-1.875 0.082032-1.2891 0.93359 0.375 1.2539 0.5 6.0039-0.011718 5.0195-0.74609 3.4336-0.91797 10.16-2.7148 13.047-8.668 6.5195-5.3398 5.1094-3.7852 8.9141-12.914z" fill="#ccc" fill-rule="evenodd"/>
<path d="m191.72 35.055 0.91406 0.63672 12.188 6.3867 2.4023 0.74609 5.75 1.4609 3.0703 0.71484 1.3008 0.30078 2.8047 0.47266 2.9531 1.1875 1.582 0.82031 2.082 2.043 1.6133 0.59375 1.5703 0.57812 1.8359 2.0078 3.9219 2.9805 5.1875 4.0391 4.2969 3.3438 6.9961-4.3242 0.1875 1.5664-0.82422 1.7109-1.0625 2.918 0.26562 6.6875 0.015625 3.8359-0.83984 3.7383-1.3867 2.7383-0.44141 1.5938-3.2695 4.2422-3.0938 2.7695-2.8047 2.0547-2.1445 1.5703-5.3359 4.0938-4.5469 3.7461-1.5078 1.4688-1.3398 2.0078-0.44531 1.5-0.23438 1.918-0.80469 2.1875-0.48047 1.3047-0.12891 1.7539 0.23438 2.1797 1.1211 1.8867 3.1484 1.9141 1.3984 1.1758 0.96484 1.1641 0.54297 1.4844 0.19922 1.0586-0.60938 0.82031-1.0586-1.1367-1.1836-0.42969-1.2656-0.48438-0.42578 1.1641-1.0273 0.52344 0.89062 2.293 0.035156 1.5781-1.293 2.0469-1.1484 0.96094-1.0742 0.96094-0.64453-0.83203 0.070312-1.2344-0.17969-1.7383-0.78906-2.7773-0.64453-0.82422-1.0781-0.13672-1.1406 0.98828-2.4375 0.40234-1.8555-1.0078-1.9102-2.5078-1.5859-0.78516-1.3711-0.21484-1.793 0.34766-1.0156-0.17188-0.41797-1.1406 0.99609-2.1562 0.65234-1.9102 0.375-2.4062-0.03125-1.0078-0.61328-1.0039-1.1094 0.39453-0.99219 0.88672-0.875 0.52344-1.4688 0.046875-1.0703-0.92578-1.1367-2.1367-1.3438-0.89062-1.7734-0.62891-2.7031-1.4648-0.48438-1.8867 0.62109-1.3555 0.046875-1.0039-0.40234-1.0508-0.003906-1.5547-1.3828-1.2344-1.2578-0.44922-1.0703 0.32812-1.4141-0.003906-2.1562 0.55859-0.85547 0.64062-2.0312 0.41016-1.6445 0.003906-1.1406 1.2461 0.21094 1.4297 0.75391 0.66016 1.3906-0.95703 0.16016 1.1055-0.50781 1.3281-0.86328 1.1641-0.33203 1.043-1.043 0.21875-1.4688 0.85547-1.2031-1.0898-1.0352-0.33203-1.6211-0.13281-0.46484 1.7148-3.2773 0.10547-1.8359-0.62891-1.8477-0.21094-1.6055 0.59766-1.0625 1.1406-1.2266 2.1836-0.48828 1.2734-0.23047 1.2344 0.14062 1.9727-0.19922 1.2305 0.82031 2.0938 0.62109 1.0781 0.43359 2.3008-0.37109 1.6328-0.61719 1.4336 0.035156 1.8047-0.46094 1.375-1.2148 1.5352-0.40234 1.4883 1.0625 0.23047 1.8477-0.53906 0.75391 1.3359 1.1211 1.0195 1.0039 3.1133 1.2578-0.0625 1.2344 0.39844 1.0508 1.0586 0.37109 0.97656 2.4141 0.4375 1.9336 0.66406 1.5547 0.035156 1.2383-0.90234 1.2773-0.53516 1.332-0.18359 1.457-1.1328 1.1055 0.44141 1.8203-0.24219 1.5703-1.4258 1.1914-0.89062 0.89453-0.86328 1.0469-0.070313-0.17188 1.5547-0.33984 1.0234 0.11719 1.0312 1.3125 0.98438 1.332 0.21875 1.707 0.53906 2.7383 1.0195 1.1406 0.96484v1.5586l1.1055 1.293 0.64844 0.85938 1.1641 0.875 0.62109 1.2344 0.72656 0.94531 0.42578 1.2344 1.7539 1.3281 1.2188 2.1953 1.4023 1.2344 1.5977 2.1836 1.1211 1.4062 0.58203 0.95312 1.582-0.85547 1.1758-0.20312-0.49219 1.4336-1.0352 1.0586 0.6875 0.85547 1.2773 1.4375 0.5 1.9961 1.0117 1.1953-0.34766 2.7734-0.70312 1.0039-0.53906 2.125-0.34375 1.2148 0.51172 1.293 1.6523 0.91406 0.76562 0.75 0.84375 0.54297 1.582 1.2734 2.125 2.0039 0.76562 0.89062 0.44531 0.92969 0.39844 1.8555 1.1172 1.7539 1.3828 2.8477 1.7422 1.2188 1.168 1.7148 0.75391 2.6992 0.20312 1.3984 2.8711 5.4648 2.0547 3.043 0.16406 1.0547-0.12109 1.2812-0.33594 2.0391-1.1172 0.76953-0.52734 1.0234-0.15625 1.7461-0.96094 1.9336-2.1367 2.4297-0.60547 1.4375 1.7773 2.2461 2.4219 2.9805 0.85938 1.5898 0.41016 1.3203-0.066406 1.2305-0.63281 1.4961-1.2422 1.625-1.6641 1.543-0.73438 0.88281-0.59375 1.5156 0.1875 2.168 0.51953 0.86328-0.89453 0.65625-1.418 0.33203-0.94922-0.91406-0.38281-1.3906 0.28906-2.8984 0.61719-3.4062 0.67969-3.7656-0.48828-2.1406-1.5547-1.8164-9.8438-4.0664-9.6797-2.9883-1.9336-0.25-2.2344 0.50391-3.7461 1.0508-4.293 0.84375-3.6602 0.58984-2.9883 0.33594-1.7695-0.29688-2.4414-1.0508-3.7422-1.2188-3.707-0.085938-5.1406 0.54688-3.8359 0.84375-1.6016 0.33984-5.7109 1.2148-4.1172-0.10156-3.793 0.85938-3.25 0.55859-2.3047 0.24219-5.0742 0.44141-4.8633 0.42188-2.8594-0.14453-1.4922 0.30078-1.4922 0.90234-3.2695 4.1289-1.0742 1.043-1.8984 1.2969-2.0898 0.125-5.207-0.98047-6.0664-1.2656-4.0977-0.023438-1.6797 0.46094-1.2773 0.75781-1.4297 2.2969-1.6836 2.2812-1.1641 1.4648-1.2773 0.6875-7.1641-0.15625-1.8242-0.25-0.93359-0.42188-0.36719-1.7344-1.0625-1.6406-1.0547-0.66797-1.0117-1.1172-0.035156-1.7734 0.30469-1.7031-0.42578-3.7031-1.2148-3.1406-1.25-2.3516-1.0352-3.8281 0.58594-2.5234 0.87109-2.3164-0.1875-1.8945-0.36328-1.0859-0.76172-0.75391-1.0703 0.17188-1.6992 0.64453-1.293 0.47266-1.0859 0.22266-3.1445 0.050781-2.0664-0.53125-1.2969-0.88672-1.1289-1.2266-1.0859-0.78516-1.625-0.29688-1.0859-0.55859-1.1875-1.3789-0.09375-2.1289 0.38281-1.5898 1.0195-1.7148 0.13281-3.6094-0.60938-2.793-2.8789-4.1289-0.46484-2.8633-1.1484-5.9648-1.6172-4.7695-1.0508-3.1094-2.1133-5.2812-1.4805-3.8398-1.2031-2.0977-0.57812-2.0781-0.69141-3.7031-0.39453-7.6016 0.066406-4.5469 0.050781-3.5391-0.32031-1.7266-2.1836-3.6758-1.4102-2.5703-1.6445-2.1133-1.9375-1.1445-3.3438-0.625-9.8398-3.0664-1.3867-1.5547-2.6797-4.7227 2.2539-0.68359 3.4609-1.4648 1.6055-0.45703 1.2266-0.23828 2.7734-1.0312 1.7617-0.42188 1.6172-0.0625 1.4492 0.55859 1.207 1.1914 1.1797 0.59766 2.3281 0.13672 2.2617-0.33594 1.8164-0.54688 1.5391-0.27734 2.9727 0.070313 2.2656-0.26562 3.0625-0.80469 2.4805-0.85156 2.3125-0.65234 1.957-0.72266 1.4648-0.45312 1.0195-0.20312 1.8555-0.17578 1.1875-0.32812 1.4297-0.61328 2.3359-0.82031 2.0703-0.96094 2.0391-1.1953 1.6172-0.82812 1.5508-0.64844 1.6094-0.51172 2.7773-1.3477 3.8594-2.0469 0.89844-0.60156 1.457-0.80078 3.7578-1.6836 3.1914-1.6445 5.1094-2.9062 5.6797-3.5234 1.9336-0.99609 1.6133-0.59375 1.25 0.80469 2.8164 1.0234 3.6523 1.4297 1.9805 0.10156-3.207 0.46875-1.2812-0.039062-2.207-0.875-1.1406-0.20312-1.3086 0.48438-1.7188-0.30078-1.4961-0.082032 2.3438 1.2617 1.4961 0.91797 0.95312 0.32812 1.0938 0.23828 0.96484 0.59766 2.0898 0.42188 1.0391 0.36719 1.2539 0.27734 0.89062-0.54688 0.23828-1.2461 1.4375-0.17578 0.55859 1.3281 0.62891 1.3008 0.90234 0.875 1.9336 0.13281 1.2852-0.14844 1.2344-0.25 1.5625 0.042969 1.3203-0.23047 1.2812 0.10547 1.9609-2.2227 1.1016-1.3867-0.41406-1.3008-1.5117-0.78516-1.1445-0.47656-1.5508-1.2148 0.39062-1.1797 2.0742-0.25781 1.1641-0.55078 1.1445-0.30859-0.085938-1.3477-1.125-1-1.1602-0.52734-0.95312-1.4023-1.6328-0.3125-1.3828-1.1641-0.57812-1.0898-1.5781-1.8359-0.62109-1.0195-0.14453-1.5898 0.49219-1.0703-0.76562-1.875 0.082032-1.2891 0.93359 0.375 1.2539 0.5 6.0039-0.011718 5.0195-0.74609 3.4336-0.91797 10.16-2.7148 13.047-8.668 6.5195-5.3398 5.1094-3.7852 8.9141-12.914 0.85156 0.32031" fill="none" stroke="#fff" stroke-linecap="round" stroke-linejoin="round" stroke-miterlimit="10" stroke-width="2"/>
<path d="m366.02 80.863 42.879 41.18 21.586 15.086 52.422 41.383 16.09 12.703v36.066l-133.16 71.246-0.16406-33.246 0.019531-24.438 0.12891-160.17z" fill="#ccc" fill-rule="evenodd"/>
<path d="m366.02 80.863 42.879 41.18 21.586 15.086 52.422 41.383 16.09 12.703v36.066l-133.16 71.246-0.16406-33.246 0.019531-24.438 0.12891-160.17 0.20312 0.19141" fill="none" stroke="#fff" stroke-linecap="round" stroke-linejoin="round" stroke-miterlimit="10" stroke-width="2"/>
<path d="m205.26 217.5 9.6797 2.9883 9.8438 4.0664 1.5547 1.8164 0.48828 2.1406-0.67969 3.7656-0.61719 3.4062-0.28906 2.8984 0.38281 1.3906 0.94922 0.91406 1.418-0.33203 0.89453-0.65234 1.2969 2.4414 0.1875 1.0195-2.2148 2.0469-0.87109-0.63672-1.2305-0.066407 0.023437 2.332-0.96484 2.6719 0.015625 1.4297-0.19531 1.7188 0.55078 2.2734-0.37891 1.8438-0.21094 1.2422-0.44531 1.1133-1.1992 0.91406-1.0156 1.8398 0.19141 1.4062 1.3203 0.97656 0.64453 0.85547 1.3438 2.9727 1.0039 2.9102 0.74609 1.5117 0.17188 2.5547 0.16797 1.7344-0.003906 2.4609 0.41797 1.2969-0.035156 1.8633-0.007812 1.0547 0.53906 1.1836 0.34766 1.5 0.89844 1.6602 0.87891 3.8516 0.63672 1.5469-0.15625 2.3398 0.52734 2.2422-0.035157 1.0508-1.5781 1.293-1.0234 0.94531-0.88672 0.64453-1.6992-0.42578-1-0.33984-2.2383 0.26562-2.3477 0.87891-2.6211 0.83594-1.7422 1.1641-1.4883 1.3984 0.070313 2.3789 2.0156 1.5117 0.88281 0.89844-0.60547 0.92969-1.4219 0.58203-0.79297 1.4297-1.1172 0.55859-1.5234-0.22656-1.0078 0.89062-1.0469 0.85938h-1.1875l-1.1758 1.2383-1.3086 1.5547-0.38281 1.5234-1.25-0.42188-1.3047-0.29297-1.2773 0.29297-1.0117 0.35938-1.125-0.24609-0.89453-0.47266-0.92188-0.43359-0.70312-0.86719-0.53516-1.0742-0.75391-1.3555-0.46094-1.1641 0.039062-1.0742 0.17969-0.99609-0.24219-1.4961-0.60156-1.1133-0.83203-0.88281-0.69141-0.86719-0.94531-0.85547-1.7617-1.0234-1.1641-0.64062-0.85938-0.58594-1.1875-0.80469-1.1133-1.0117-0.6875-0.89453-1.8672-2.6484-0.59766-1.9883-0.19922-1.793 0.76172-1.9219 0.83203-3.2852 0.29688-1.1289 1.0625-0.53125 0.99609 0.13281 1.6914 0.066406 1.4922-0.19922 0.96094-1.0938 0.30078-1.1289 0.16406-1.293-0.92969-0.86328h-1.625l-1.957 0.10156-2.7852 0.23047-4.3477-0.035156-2.3242 0.058594-2.1523 0.14062-1.2305-0.66016-1.4805-2.1641-4.457-6.4844-1.0586-1.4844-1.6797-2.3477-3.4336-2.8281-7.3906-5.457-11.164-5.3438-1.9805-0.68359-2.1562-0.74609-4.8984-0.39453-5.1094-0.98438-2.9766-1.1836-1.6602-0.53516-2.5742-0.46094-1.2773-0.22656-2.2773-1.5195-2.4648-1.0352-4.6953-0.61328-5.9336 0.55859-2.6602-0.63672-1.0547 0.14844-0.17188 1.0781 0.16797 1.6914 2.1289 5.75 0.51562 1.8672-0.62109 1.293-1.3477 1.8164-1.3984 1.3984-0.93359 1.4531-0.3125 4.043 0.22266 5.043 1.0703 2.7383 0.34375 2.2578 0.42188 2.7812-0.039063 1.9727-0.51953 2.1875-0.93359 2.0781-1.9219 1.7617-2.3711 1.0938-3.1484 0.51953-2.8477-0.35938-1.8203-0.46875-1.8789-1.4102-3.1523-4.0625-1.8789-2.2656-1.0195-1.4805-0.65234-1.5-1.8242-2.6484-0.54688-1.6719 0.14844-1.5117 0.1875-1.8945 0.41797-1.5781-0.42188-1.4805 0.13281-1.4141-0.62109-1.7695-1.457-3.668-0.46875-1.9453 0.37891-2.8516 0.15625-2.0781 0.70703-1.8359 1.125-2.2773 1.0625-2.5859 1.4805-2.2969 0.60938-1.125 1.1133-2.0586 0.79688-1.2188 2.6094-5.457 0.89844-1.707 0.96094 0.34766 1.8242 0.25 6.6055 0.375 1.4492-0.58984 1.5508-1.7812 1.6836-2.2812 1.1016-1.7656 0.84766-0.90234 1.4922-0.67578 5.043-0.14844 6.0664 1.2656 5.207 0.98047 1.2891 0.039063 2.6992-1.4609 1.0742-1.043 2.6367-3.4453 2.125-1.5859 1.4922-0.30078 2.8594 0.14453 4.8633-0.42188 5.0742-0.44141 2.3047-0.24219 3.25-0.55859 3.793-0.85938 4.1172 0.10156 5.7109-1.2148 1.6016-0.33984 2.9453-0.72266 6.0312-0.66797 3.707 0.085938 3.7422 1.2188 2.4414 1.0508 1.7695 0.29688 2.9883-0.33594 3.6602-0.58984 4.293-0.84375 3.4922-0.98047 2.4883-0.57422z" fill="#ccc" fill-rule="evenodd"/>
<path d="m205.26 217.5 9.6797 2.9883 9.8438 4.0664 1.5547 1.8164 0.48828 2.1406-0.67969 3.7656-0.61719 3.4062-0.28906 2.8984 0.38281 1.3906 0.94922 0.91406 1.418-0.33203 0.89453-0.65234 1.2969 2.4414 0.1875 1.0195-2.2148 2.0469-0.87109-0.63672-1.2305-0.066407 0.023437 2.332-0.96484 2.6719 0.015625 1.4297-0.19531 1.7188 0.55078 2.2734-0.37891 1.8438-0.21094 1.2422-0.44531 1.1133-1.1992 0.91406-1.0156 1.8398 0.19141 1.4062 1.3203 0.97656 0.64453 0.85547 1.3438 2.9727 1.0039 2.9102 0.74609 1.5117 0.17188 2.5547 0.16797 1.7344-0.003906 2.4609 0.41797 1.2969-0.035156 1.8633-0.007812 1.0547 0.53906 1.1836 0.34766 1.5 0.89844 1.6602 0.87891 3.8516 0.63672 1.5469-0.15625 2.3398 0.52734 2.2422-0.035157 1.0508-1.5781 1.293-1.0234 0.94531-0.88672 0.64453-1.6992-0.42578-1-0.33984-2.2383 0.26562-2.3477 0.87891-2.6211 0.83594-1.7422 1.1641-1.4883 1.3984 0.070313 2.3789 2.0156 1.5117 0.88281 0.89844-0.60547 0.92969-1.4219 0.58203-0.79297 1.4297-1.1172 0.55859-1.5234-0.22656-1.0078 0.89062-1.0469 0.85938h-1.1875l-1.1758 1.2383-1.3086 1.5547-0.38281 1.5234-1.25-0.42188-1.3047-0.29297-1.2773 0.29297-1.0117 0.35938-1.125-0.24609-0.89453-0.47266-0.92188-0.43359-0.70312-0.86719-0.53516-1.0742-0.75391-1.3555-0.46094-1.1641 0.039062-1.0742 0.17969-0.99609-0.24219-1.4961-0.60156-1.1133-0.83203-0.88281-0.69141-0.86719-0.94531-0.85547-1.7617-1.0234-1.1641-0.64062-0.85938-0.58594-1.1875-0.80469-1.1133-1.0117-0.6875-0.89453-1.8672-2.6484-0.59766-1.9883-0.19922-1.793 0.76172-1.9219 0.83203-3.2852 0.29688-1.1289 1.0625-0.53125 0.99609 0.13281 1.6914 0.066406 1.4922-0.19922 0.96094-1.0938 0.30078-1.1289 0.16406-1.293-0.92969-0.86328h-1.625l-1.957 0.10156-2.7852 0.23047-4.3477-0.035156-2.3242 0.058594-2.1523 0.14062-1.2305-0.66016-1.4805-2.1641-4.457-6.4844-1.0586-1.4844-1.6797-2.3477-3.4336-2.8281-7.3906-5.457-11.164-5.3438-1.9805-0.68359-2.1562-0.74609-4.8984-0.39453-5.1094-0.98438-2.9766-1.1836-1.6602-0.53516-2.5742-0.46094-1.2773-0.22656-2.2773-1.5195-2.4648-1.0352-4.6953-0.61328-5.9336 0.55859-2.6602-0.63672-1.0547 0.14844-0.17188 1.0781 0.16797 1.6914 2.1289 5.75 0.51562 1.8672-0.62109 1.293-1.3477 1.8164-1.3984 1.3984-0.93359 1.4531-0.3125 4.043 0.22266 5.043 1.0703 2.7383 0.34375 2.2578 0.42188 2.7812-0.039063 1.9727-0.51953 2.1875-0.93359 2.0781-1.9219 1.7617-2.3711 1.0938-3.1484 0.51953-2.8477-0.35938-1.8203-0.46875-1.8789-1.4102-3.1523-4.0625-1.8789-2.2656-1.0195-1.4805-0.65234-1.5-1.8242-2.6484-0.54688-1.6719 0.14844-1.5117 0.1875-1.8945 0.41797-1.5781-0.42188-1.4805 0.13281-1.4141-0.62109-1.7695-1.457-3.668-0.46875-1.9453 0.37891-2.8516 0.15625-2.0781 0.70703-1.8359 1.125-2.2773 1.0625-2.5859 1.4805-2.2969 0.60938-1.125 1.1133-2.0586 0.79688-1.2188 2.6094-5.457 0.89844-1.707 0.96094 0.34766 1.8242 0.25 6.6055 0.375 1.4492-0.58984 1.5508-1.7812 1.6836-2.2812 1.1016-1.7656 0.84766-0.90234 1.4922-0.67578 5.043-0.14844 6.0664 1.2656 5.207 0.98047 1.2891 0.039063 2.6992-1.4609 1.0742-1.043 2.6367-3.4453 2.125-1.5859 1.4922-0.30078 2.8594 0.14453 4.8633-0.42188 5.0742-0.44141 2.3047-0.24219 3.25-0.55859 3.793-0.85938 4.1172 0.10156 5.7109-1.2148 1.6016-0.33984 2.9453-0.72266 6.0312-0.66797 3.707 0.085938 3.7422 1.2188 2.4414 1.0508 1.7695 0.29688 2.9883-0.33594 3.6602-0.58984 4.293-0.84375 3.4922-0.98047 2.4883-0.57422 1.9336 0.25" fill="none" stroke="#fff" stroke-linecap="round" stroke-linejoin="round" stroke-miterlimit="10" stroke-width="2"/>
<path d="m299.84 91.191-5.25-3.4766-2.0352-1.8711-3.0547-2.5078-1.625-2.7422-2.4922-3.1836-0.73828-1.8633-0.96484-0.90234-0.69531-1.4922-0.027344-1.293-0.46875-1.7578-0.56641-2.1133-0.13281-1.5234 2.1562-0.80859-0.28125-1.4609-0.52344-1.3008 1.6719-1.7891 2.8594-1.6367 1.1406-0.8125 1.7266-1.2305 0.66016-1.1836-1.1406-2.9023-1.6094-4.0781-0.042969-3.1562-0.015625-1.0547 16.492 1.3516 1.4531-0.28906 0.95703-1.8008 0.71875-1.3477 1.0625-1.0312 2.2266 0.92578-0.76953 0.95703 0.45703 1.4688-0.14844 1.0664-0.52734 0.93359 0.74609 1.4062 0.21094 1.3516-1.3867 0.58594-1.1328 0.33984-0.18359 1.0742-0.57031 1.75-0.44922 1.2031-0.28125 1.0742-0.75 1.1758-0.40234 1.2656 0.074219 1.4141-0.40234 1.4805 1.4141 2.3789 1.1289 0.91406 1.0195 0.86719 1.2227 1.2422 0.87891 0.69922 0.054687 1.2617-0.089843 1.1641 1.9219 1.5391 0.89844 0.53125-1.0234 1.0312-1.3711 0.10547-1.332 0.13281-1.9414-0.86719-1.2305-0.64844-1.0898 0.11719-1.1992-0.023437-1.2773 0.35156-0.058593 1.0703 0.40625 1.0156-0.76953 0.70703-1.7344 0.24219-1.2734 0.79297-0.86719 1.1914-0.72656 2.5469-0.69922 1.0391 1.1602 0.9375 1.5234 0.078125 0.85156 0.69141 1.0273 0.33594 1.1367-0.18359 0.625 1.7266 1.168 1.4844-0.24609 1.4922-0.26953 1.6484-1.0352-0.0625-0.39453-1.7812-0.46094-0.98828-0.66406-0.86328-0.82031-0.65625-1.5977-0.88672-2.4844 0.26953 0.45703 2.1367 0.82031 1.5078 0.33203 0.95312 0.28125 1.1523 0.92188 0.51172zm34.523 5.082-0.24219-0.011719-1.2852-0.5625-1.3711-0.52344-1.375-0.8125-0.94141-0.69141-0.91016-1.0469-1.2578-1.0273 0.015625-1.3281-0.22266-1.0312-0.91406-0.94922-0.75391-1.6328-0.84375-0.82812-0.54297-0.97656-0.98047-2.1875-0.22266-1.0352-0.25-1.0195-0.03125-1.1914 0.24219-1.0195 0.72656 1.0195 0.37891 1.4883 1.0469 0.17578 0.19531-1.0156 0.011719-1.7031-0.77344-1.3242-0.33984-1.1836-0.67969-1.0586-0.92578-1.2148-0.13281-1.2109 0.37109-0.96484 2.4727-0.12109 1.1328 0.082032 2.0703 0.5625 1.75 0.44922 1.1758 0.40625 0.9375 0.62109 0.60156 2.0781 0.73828 1.5742 0.99609 1.2773 1.5 0.69141 1.6289 0.89844 1.0664 0.55469 1.4297 0.87109 2.4922 2.6211 0.65625 1.0664 0.24609 0.98828-0.25781 1.0586-0.66797 1.0234-1.6016 0.11328-1.0469-0.79688-1.4023-0.72656-0.99609-0.35156-1.0078 0.26953-0.94531 0.58203 0.015625 1.2227 0.92578 1.2617 0.72656 0.8125-0.41016 1.2539 0.14062 1.4766-0.44141 1.4805-1.6094 1.457z" fill="#ccc" fill-rule="evenodd"/>
<path d="m299.84 91.191-5.25-3.4766-2.0352-1.8711-3.0547-2.5078-1.625-2.7422-2.4922-3.1836-0.73828-1.8633-0.96484-0.90234-0.69531-1.4922-0.027344-1.293-0.46875-1.7578-0.56641-2.1133-0.13281-1.5234 2.1562-0.80859-0.28125-1.4609-0.52344-1.3008 1.6719-1.7891 2.8594-1.6367 1.1406-0.8125 1.7266-1.2305 0.66016-1.1836-1.1406-2.9023-1.6094-4.0781-0.042969-3.1562-0.015625-1.0547 16.492 1.3516 1.4531-0.28906 0.95703-1.8008 0.71875-1.3477 1.0625-1.0312 2.2266 0.92578-0.76953 0.95703 0.45703 1.4688-0.14844 1.0664-0.52734 0.93359 0.74609 1.4062 0.21094 1.3516-1.3867 0.58594-1.1328 0.33984-0.18359 1.0742-0.57031 1.75-0.44922 1.2031-0.28125 1.0742-0.75 1.1758-0.40234 1.2656 0.074219 1.4141-0.40234 1.4805 1.4141 2.3789 1.1289 0.91406 1.0195 0.86719 1.2227 1.2422 0.87891 0.69922 0.054687 1.2617-0.089843 1.1641 1.9219 1.5391 0.89844 0.53125-1.0234 1.0312-1.3711 0.10547-1.332 0.13281-1.9414-0.86719-1.2305-0.64844-1.0898 0.11719-1.1992-0.023437-1.2773 0.35156-0.058593 1.0703 0.40625 1.0156-0.76953 0.70703-1.7344 0.24219-1.2734 0.79297-0.86719 1.1914-0.72656 2.5469-0.69922 1.0391 1.1602 0.9375 1.5234 0.078125 0.85156 0.69141 1.0273 0.33594 1.1367-0.18359 0.625 1.7266 1.168 1.4844-0.24609 1.4922-0.26953 1.6484-1.0352-0.0625-0.39453-1.7812-0.46094-0.98828-0.66406-0.86328-0.82031-0.65625-1.5977-0.88672-2.4844 0.26953 0.45703 2.1367 0.82031 1.5078 0.33203 0.95312 0.28125 1.1523 0.92188 0.51172-0.53906 0.87891m34.523 5.082-0.24219-0.011719-1.2852-0.5625-1.3711-0.52344-1.375-0.8125-0.94141-0.69141-0.91016-1.0469-1.2578-1.0273 0.015625-1.3281-0.22266-1.0312-0.91406-0.94922-0.75391-1.6328-0.84375-0.82812-0.54297-0.97656-0.98047-2.1875-0.22266-1.0352-0.25-1.0195-0.03125-1.1914 0.24219-1.0195 0.72656 1.0195 0.37891 1.4883 1.0469 0.17578 0.19531-1.0156 0.011719-1.7031-0.77344-1.3242-0.33984-1.1836-0.67969-1.0586-0.92578-1.2148-0.13281-1.2109 0.37109-0.96484 2.4727-0.12109 1.1328 0.082032 2.0703 0.5625 1.75 0.44922 1.1758 0.40625 0.9375 0.62109 0.60156 2.0781 0.73828 1.5742 0.99609 1.2773 1.5 0.69141 1.6289 0.89844 1.0664 0.55469 1.4297 0.87109 2.4922 2.6211 0.65625 1.0664 0.24609 0.98828-0.25781 1.0586-0.66797 1.0234-1.6016 0.11328-1.0469-0.79688-1.4023-0.72656-0.99609-0.35156-1.0078 0.26953-0.94531 0.58203 0.015625 1.2227 0.92578 1.2617 0.72656 0.8125-0.41016 1.2539 0.14062 1.4766-0.44141 1.4805-1.6094 1.457-0.30859 0.10938" fill="none" stroke="#fff" stroke-linecap="round" stroke-linejoin="round" stroke-miterlimit="10" stroke-width="2"/>
<path d="m279.44 28.789 0.96484 0.74609 0.6875 1.1992 0.6875 0.73047 0.48047 0.88281 1.4727 3.5703 0.55469 2.207 0.66016 1.9531 1.6641 3.7031 1.7773 1.2695 0.015625 1.0547 0.042969 3.1562 1.6094 4.0781 0.87891 2.2344 0.20312 1.1719-2.3281 1.9102-1.1406 0.8125-2.5039 1.4336-2.1289 1.2617 0.625 2.0312 0.050781 1.0234-1.2539 0.78516-0.53906 1.9844 0.56641 2.1133 0.46875 1.7578 0.027344 1.293 0.69531 1.4922 0.96484 0.90234 0.73828 1.8633 2.4922 3.1836 1.625 2.7422 3.0547 2.5078 2.0352 1.8711 5.25 3.4766-0.36328 1.1562-1.5195 2.6914-0.64062 1.4336-1.293 2.0703-0.67188 2.3164-0.8125 1.4375-1.0273 2.0703-0.83203 2.6875-0.59766 1.332-0.98047 2.6914-1.1094 2.0703-0.40625 2.8633-0.71875 0.94141-1.2148-2.7734-0.47656-1.5117-0.19141-1.0234-1.0234 0.003907-0.35156 1.0859-0.74609 0.89453-0.90625 1.1953 0.42578 1.1914-0.085938 1.1836-0.37109 1.3281-0.19531 1.1406-0.16016 1.4727-0.85156 0.61719-0.98438-0.27344-0.99219-0.92969-0.43359-1.7344-0.23828-1.6211-0.30859-0.96094-0.5-2.1445-0.28125-1.707-1.1641-0.085938-1.1328 0.50781 0.19531 1.5664-0.26172 1.2344 0.22266 1.0352-0.16797 1.5117-0.58984 1.3633-0.69531 1.2539-0.85938 0.89453-1.918 0.58594-0.98047 0.56641 0.74219 1.4492 0.83203 0.66406 0.95312 0.78906-0.35547 1.0156-1.3711 0.44531-1.2383 0.035156-1.0703-0.21094-1.1562 0.33203-0.875 0.51953-0.63672-0.90234-0.85156 1.1641-0.10938 1.1914 1.0977 0.34375 0.45703-0.94141 0.25781 1.7227-0.74609 1.2461-0.80078 0.64062-2.6172 0.64453-1.6445 0.1875-0.98438-0.22266-1.8125-0.35156-2.2188-0.70312-2.2109-0.62891-1.2734-0.86328-0.75391-1.0234 2.0508 0.91406 1.3125-1.5 0.50781-1.1875 0.81641-1.4648 0.72266-1.0312 0.96875-0.93359 0.57422-0.9375 0.45312-1.3984 0.35938-1.957 0.50391-1.2344v-1.9844l0.39844-1.6914 0.82812-1.7422 0.35156-0.95703-0.42578-1.1758 0.28125-1.6289 0.41016-1.1055 1.1523-1.8906 1.6797-1.3203 0.98438-1.168-0.29297-1.6797 0.097657-1.0898 0.71094-1.4766 0.13672-1.1992 0.32812-1.0469 0.69531-3.5859 0.49609-1.2539 0.40625-1.5039 1.1289-1.4609 2.2148-1.2188 0.90234-0.69922 0.57812-0.94141 0.17578-1.3867-1.082-0.89062-1.4844 0.75391-0.87891 0.54688-0.98438 1.1914-1.0898 0.20703-1.5469 0.15625-0.94922 0.72266-0.80078 1.2344-1.1172 1.082-0.11328 1.6836-0.33984 1.2891-0.87109 1.0312-1.3906 0.03125-1.1172 1.0742-0.35938 2.0859 0.35938 1.2148-0.20312 1.2461-0.94141 0.83984-1.25 0.48438-2.0742-0.003906-0.12891 2.3906 0.054687 1.1523-0.64453 2.7617-1.2344 2.2695 0.39062 1.5-1.1523 1.9727-0.95703 1.4883-1.3125 0.35547-1.4375-0.27344-1.0977 0.11328-0.89844-0.46875-0.30859 1.1562-0.36719 1.6484-0.54297 1.25-1.2227 1.0625-1.3398 0.69141-1.8711 0.20312-1.4141-0.47656-1.0156-1.0938-0.62109-1.5195-1.3164-1.2539-1.1094-0.29297h-2.4258l-0.97656 0.38281-0.11328 1.0273-1.25 1.8594-1.3945 0.74219-1.4531-0.003907-1.0234-0.42578-1.5234 0.49219-3.4844-1.6016-1.1211-1.8867-0.23438-2.1797 0.12891-1.7539 0.35547-0.96484 0.92969-2.5273 0.23438-1.918 0.44531-1.5 0.82422-1.2383 2.0234-2.2383 4.5469-3.7461 5.3359-4.0938 2.1445-1.5703 2.8047-2.0547 3.0938-2.7695 2.6211-3.5078 1.0898-2.3281 0.99219-1.957 1.2344-4.5195-0.015625-3.8359-0.32422-5.9531 1.1211-3.6523 0.53125-0.88672 0.10547-2.3906-0.44531-7.793 0.84766-6.293 10.812-8.625 13.254-5.2383 2.4531-2.8359z" fill="#ccc" fill-rule="evenodd"/>
<path d="m279.44 28.789 0.96484 0.74609 0.6875 1.1992 0.6875 0.73047 0.48047 0.88281 1.4727 3.5703 0.55469 2.207 0.66016 1.9531 1.6641 3.7031 1.7773 1.2695 0.015625 1.0547 0.042969 3.1562 1.6094 4.0781 0.87891 2.2344 0.20312 1.1719-2.3281 1.9102-1.1406 0.8125-2.5039 1.4336-2.1289 1.2617 0.625 2.0312 0.050781 1.0234-1.2539 0.78516-0.53906 1.9844 0.56641 2.1133 0.46875 1.7578 0.027344 1.293 0.69531 1.4922 0.96484 0.90234 0.73828 1.8633 2.4922 3.1836 1.625 2.7422 3.0547 2.5078 2.0352 1.8711 5.25 3.4766-0.36328 1.1562-1.5195 2.6914-0.64062 1.4336-1.293 2.0703-0.67188 2.3164-0.8125 1.4375-1.0273 2.0703-0.83203 2.6875-0.59766 1.332-0.98047 2.6914-1.1094 2.0703-0.40625 2.8633-0.71875 0.94141-1.2148-2.7734-0.47656-1.5117-0.19141-1.0234-1.0234 0.003907-0.35156 1.0859-0.74609 0.89453-0.90625 1.1953 0.42578 1.1914-0.085938 1.1836-0.37109 1.3281-0.19531 1.1406-0.16016 1.4727-0.85156 0.61719-0.98438-0.27344-0.99219-0.92969-0.43359-1.7344-0.23828-1.6211-0.30859-0.96094-0.5-2.1445-0.28125-1.707-1.1641-0.085938-1.1328 0.50781 0.19531 1.5664-0.26172 1.2344 0.22266 1.0352-0.16797 1.5117-0.58984 1.3633-0.69531 1.2539-0.85938 0.89453-1.918 0.58594-0.98047 0.56641 0.74219 1.4492 0.83203 0.66406 0.95312 0.78906-0.35547 1.0156-1.3711 0.44531-1.2383 0.035156-1.0703-0.21094-1.1562 0.33203-0.875 0.51953-0.63672-0.90234-0.85156 1.1641-0.10938 1.1914 1.0977 0.34375 0.45703-0.94141 0.25781 1.7227-0.74609 1.2461-0.80078 0.64062-2.6172 0.64453-1.6445 0.1875-0.98438-0.22266-1.8125-0.35156-2.2188-0.70312-2.2109-0.62891-1.2734-0.86328-0.75391-1.0234 2.0508 0.91406 1.3125-1.5 0.50781-1.1875 0.81641-1.4648 0.72266-1.0312 0.96875-0.93359 0.57422-0.9375 0.45312-1.3984 0.35938-1.957 0.50391-1.2344v-1.9844l0.39844-1.6914 0.82812-1.7422 0.35156-0.95703-0.42578-1.1758 0.28125-1.6289 0.41016-1.1055 1.1523-1.8906 1.6797-1.3203 0.98438-1.168-0.29297-1.6797 0.097657-1.0898 0.71094-1.4766 0.13672-1.1992 0.32812-1.0469 0.69531-3.5859 0.49609-1.2539 0.40625-1.5039 1.1289-1.4609 2.2148-1.2188 0.90234-0.69922 0.57812-0.94141 0.17578-1.3867-1.082-0.89062-1.4844 0.75391-0.87891 0.54688-0.98438 1.1914-1.0898 0.20703-1.5469 0.15625-0.94922 0.72266-0.80078 1.2344-1.1172 1.082-0.11328 1.6836-0.33984 1.2891-0.87109 1.0312-1.3906 0.03125-1.1172 1.0742-0.35938 2.0859 0.35938 1.2148-0.20312 1.2461-0.94141 0.83984-1.25 0.48438-2.0742-0.003906-0.12891 2.3906 0.054687 1.1523-0.64453 2.7617-1.2344 2.2695 0.39062 1.5-1.1523 1.9727-0.95703 1.4883-1.3125 0.35547-1.4375-0.27344-1.0977 0.11328-0.89844-0.46875-0.30859 1.1562-0.36719 1.6484-0.54297 1.25-1.2227 1.0625-1.3398 0.69141-1.8711 0.20312-1.4141-0.47656-1.0156-1.0938-0.62109-1.5195-1.3164-1.2539-1.1094-0.29297h-2.4258l-0.97656 0.38281-0.11328 1.0273-1.25 1.8594-1.3945 0.74219-1.4531-0.003907-1.0234-0.42578-1.5234 0.49219-3.4844-1.6016-1.1211-1.8867-0.23438-2.1797 0.12891-1.7539 0.35547-0.96484 0.92969-2.5273 0.23438-1.918 0.44531-1.5 0.82422-1.2383 2.0234-2.2383 4.5469-3.7461 5.3359-4.0938 2.1445-1.5703 2.8047-2.0547 3.0938-2.7695 2.6211-3.5078 1.0898-2.3281 0.99219-1.957 1.2344-4.5195-0.015625-3.8359-0.32422-5.9531 1.1211-3.6523 0.53125-0.88672 0.10547-2.3906-0.44531-7.793 0.84766-6.293 10.812-8.625 13.254-5.2383 2.4531-2.8359 0.32812 0.53125" fill="none" stroke="#fff" stroke-linecap="round" stroke-linejoin="round" stroke-miterlimit="10" stroke-width="2"/>
<path d="m290.4 24.312 1.9297 1.957 1.1211 1.9805 2.2812-0.92578 0.99609 0.30859 1.9961 0.625 1.2227-1.1914 1.332-0.34766 1.4883 0.10547 1.4609 0.26562 1.4141 0.57422 1.1641 0.10547 1.3711 0.17969 1.4062-0.51172 0.80078 1.0625 4.418 3.8711 2.0469 1.207-0.29297 2.4844-0.90234 1.5977-0.25391 1.0703-0.60938 0.96094-1.168 0.49609-1.0664 0.55859-0.90234 1.4102-2.5781-0.22266-1.0625 1.0312-0.71875 1.3477-0.95703 1.8008-1.4531 0.28906-16.492-1.3516-1.7773-1.2695-1.6641-3.7031-0.66016-1.9531-0.55469-2.207-1.4727-3.5703-0.48047-0.88281-0.6875-0.73047-0.6875-1.1992-0.96484-0.74609 1.0781-2.4258 1.0156-0.90234 1.7539-0.039063 3.1094 0.48828 3.4336-1.7617z" fill="#ccc" fill-rule="evenodd"/>
<path d="m290.4 24.312 1.9297 1.957 1.1211 1.9805 2.2812-0.92578 0.99609 0.30859 1.9961 0.625 1.2227-1.1914 1.332-0.34766 1.4883 0.10547 1.4609 0.26562 1.4141 0.57422 1.1641 0.10547 1.3711 0.17969 1.4062-0.51172 0.80078 1.0625 4.418 3.8711 2.0469 1.207-0.29297 2.4844-0.90234 1.5977-0.25391 1.0703-0.60938 0.96094-1.168 0.49609-1.0664 0.55859-0.90234 1.4102-2.5781-0.22266-1.0625 1.0312-0.71875 1.3477-0.95703 1.8008-1.4531 0.28906-16.492-1.3516-1.7773-1.2695-1.6641-3.7031-0.66016-1.9531-0.55469-2.207-1.4727-3.5703-0.48047-0.88281-0.6875-0.73047-0.6875-1.1992-0.96484-0.74609 1.0781-2.4258 1.0156-0.90234 1.7539-0.039063 3.1094 0.48828 3.4336-1.7617 0.56641 0.16406" fill="none" stroke="#fff" stroke-linecap="round" stroke-linejoin="round" stroke-miterlimit="10" stroke-width="2"/>
<path d="m27.309 119.34 0.25 0.28516 1.3867 1.5547 9.8398 3.0664 3.3438 0.625 1.9375 1.1445 1.6445 2.1133 1.4102 2.5703 2.1836 3.6758 0.32031 1.7266-0.050781 3.5391-0.066406 4.5469 0.39453 7.6016 0.69141 3.7031 0.57812 2.0781 1.2031 2.0977 1.4805 3.8398 2 4.8398 1.1641 3.5508 1.6172 4.7695 1.1484 5.9648 0.46484 2.8633 2.8789 4.1289 0.60938 2.793 0.085938 2.6484-0.69922 1.8516-0.92188 2.4141 0.09375 2.1289-8.2617-2.3711-2.8828-0.42188-1.9883-0.82812-0.95703-0.76562-2.9258-3.0195-1.6211-1.6875-2.2266-0.44531-1.1445-0.63672-3.2773-3.5625-2.0664-2.9258-1.207-1.0156-2.7031 0.59375-1.2734 0.30859-3.4844 0.83594-1.1484 0.33203-2.625 0.75-2.5547-0.35938-1.125-0.52344-1.3945-1.1758-1.6445-1.918-6.8906-8.7383-7.2891-7.1211-1.2305-1.707 0.52344-2.207 0.92188-1.457 1.4375-2.207 0.52344-3.4922 0.30078-2.0352 0.18359-1.2305 0.57422-3.1641 0.38672-1.5312 0.47656-1.4375 0.86328-1.5352 0.47656-1.7266 0.27734-1.0117-1.3242-0.96484-1.6445-0.41797-1.332-1.2969-0.63281-2.168 0.125-2.2305 0.72656-3.0352 0.57812-2.4883 0.87891-0.83984 0.88672-0.58594 0.98047-0.33984 0.89453-0.625-0.21484-1.8789 0.074218-1.1953-0.0625-1.0938-1.3047-2.1094 2.7461-1.4844 4.6719-0.74219 3.582-0.99219 6.793-2.2891 1.0117-0.30859z" fill="#0a5394" fill-rule="evenodd"/>
<path d="m27.309 119.34 0.25 0.28516 1.3867 1.5547 9.8398 3.0664 3.3438 0.625 1.9375 1.1445 1.6445 2.1133 1.4102 2.5703 2.1836 3.6758 0.32031 1.7266-0.050781 3.5391-0.066406 4.5469 0.39453 7.6016 0.69141 3.7031 0.57812 2.0781 1.2031 2.0977 1.4805 3.8398 2 4.8398 1.1641 3.5508 1.6172 4.7695 1.1484 5.9648 0.46484 2.8633 2.8789 4.1289 0.60938 2.793 0.085938 2.6484-0.69922 1.8516-0.92188 2.4141 0.09375 2.1289-8.2617-2.3711-2.8828-0.42188-1.9883-0.82812-0.95703-0.76562-2.9258-3.0195-1.6211-1.6875-2.2266-0.44531-1.1445-0.63672-3.2773-3.5625-2.0664-2.9258-1.207-1.0156-2.7031 0.59375-1.2734 0.30859-3.4844 0.83594-1.1484 0.33203-2.625 0.75-2.5547-0.35938-1.125-0.52344-1.3945-1.1758-1.6445-1.918-6.8906-8.7383-7.2891-7.1211-1.2305-1.707 0.52344-2.207 0.92188-1.457 1.4375-2.207 0.52344-3.4922 0.30078-2.0352 0.18359-1.2305 0.57422-3.1641 0.38672-1.5312 0.47656-1.4375 0.86328-1.5352 0.47656-1.7266 0.27734-1.0117-1.3242-0.96484-1.6445-0.41797-1.332-1.2969-0.63281-2.168 0.125-2.2305 0.72656-3.0352 0.57812-2.4883 0.87891-0.83984 0.88672-0.58594 0.98047-0.33984 0.89453-0.625-0.21484-1.8789 0.074218-1.1953-0.0625-1.0938-1.3047-2.1094 2.7461-1.4844 4.6719-0.74219 3.582-0.99219 6.793-2.2891 1.0117-0.30859 2.5547 4.4023" fill="none" stroke="#fff" stroke-linecap="round" stroke-linejoin="round" stroke-miterlimit="10"/>
<path d="m41.742 128.2c0 3.5898-2.9102 6.5-6.5 6.5-3.5898 0-6.5-2.9102-6.5-6.5s2.9102-6.5 6.5-6.5c3.5898 0 6.5 2.9102 6.5 6.5" fill="#28c028" fill-rule="evenodd" stroke="#000" stroke-linecap="round" stroke-linejoin="round" stroke-miterlimit="10"/>
<path d="m42.07 145.88 3.2344-0.3125c0.19531 1.0859 0.59375 1.8828 1.1875 2.3906 0.59375 0.51172 1.3945 0.76562 2.4062 0.76562 1.0703 0 1.8789-0.22266 2.4219-0.67188 0.53906-0.45703 0.8125-0.98828 0.8125-1.5938 0-0.39453-0.11719-0.72656-0.34375-1-0.23047-0.26953-0.625-0.50391-1.1875-0.70312-0.39844-0.13281-1.2891-0.375-2.6719-0.71875-1.7812-0.44531-3.0312-0.99219-3.75-1.6406-1.0117-0.90625-1.5156-2.0078-1.5156-3.3125 0-0.83203 0.23828-1.6133 0.71875-2.3438 0.47656-0.72656 1.1602-1.2852 2.0469-1.6719 0.89453-0.38281 1.9766-0.57812 3.25-0.57812 2.0625 0 3.6133 0.45312 4.6562 1.3594 1.0508 0.90625 1.6016 2.1172 1.6562 3.625l-3.3281 0.15625c-0.14844-0.84375-0.45312-1.4531-0.92188-1.8281-0.46094-0.375-1.1562-0.5625-2.0938-0.5625-0.96875 0-1.7305 0.20312-2.2812 0.60938-0.34375 0.25-0.51562 0.58984-0.51562 1.0156 0 0.38672 0.16016 0.71875 0.48438 1 0.42578 0.35547 1.4453 0.72656 3.0625 1.1094 1.6133 0.375 2.8047 0.76562 3.5781 1.1719 0.78125 0.40625 1.3906 0.96484 1.8281 1.6719 0.4375 0.71094 0.65625 1.5859 0.65625 2.625 0 0.94922-0.26562 1.8359-0.79688 2.6562-0.52344 0.82422-1.2617 1.4375-2.2188 1.8438-0.96094 0.39453-2.1523 0.59375-3.5781 0.59375-2.0859 0-3.6836-0.47656-4.7969-1.4375-1.1172-0.96875-1.7812-2.375-2-4.2188zm31.031 5.3594h-3.6094l-1.4375-3.7344h-6.5781l-1.3594 3.7344h-3.5312l6.4062-16.469h3.5156zm-6.1094-6.5156-2.2812-6.1094-2.2188 6.1094zm7.9062 6.5156v-16.469h3.2344l6.75 11v-11h3.0781v16.469h-3.3281l-6.6406-10.734v10.734zm28.906-16.469h3.3125v10.422c0 1.3672-0.12109 2.418-0.35938 3.1562-0.32422 0.96094-0.90625 1.7305-1.75 2.3125-0.84375 0.57422-1.9609 0.85938-3.3438 0.85938-1.625 0-2.875-0.45312-3.75-1.3594-0.875-0.91406-1.3203-2.2539-1.3281-4.0156l3.1406-0.35938c0.03125 0.94922 0.16406 1.6172 0.40625 2 0.36328 0.59375 0.91016 0.89062 1.6406 0.89062 0.73828 0 1.2578-0.20703 1.5625-0.625 0.3125-0.42578 0.46875-1.3047 0.46875-2.6406zm6.8438 0h3.3125v8.9219c0 1.418 0.039062 2.3359 0.125 2.75 0.14453 0.67969 0.48438 1.2188 1.0156 1.625 0.53906 0.40625 1.2734 0.60938 2.2031 0.60938 0.9375 0 1.6445-0.19141 2.125-0.57812 0.47656-0.38281 0.76562-0.85938 0.85938-1.4219 0.10156-0.5625 0.15625-1.4922 0.15625-2.7969v-9.1094h3.3281v8.6562c0 1.9688-0.09375 3.3672-0.28125 4.1875-0.17969 0.8125-0.50781 1.5-0.98438 2.0625-0.48047 0.5625-1.125 1.0117-1.9375 1.3438s-1.8711 0.5-3.1719 0.5c-1.5742 0-2.7656-0.18359-3.5781-0.54688s-1.4531-0.83203-1.9219-1.4062c-0.46875-0.58203-0.77734-1.1914-0.92188-1.8281-0.21875-0.94531-0.32812-2.3438-0.32812-4.1875zm31.469 16.469h-3.6094l-1.4375-3.7344h-6.5781l-1.3594 3.7344h-3.5312l6.4062-16.469h3.5156zm-6.1094-6.5156-2.2812-6.1094-2.2188 6.1094zm7.9062 6.5156v-16.469h3.2344l6.75 11v-11h3.0781v16.469h-3.3281l-6.6406-10.734v10.734zm-101.02 6.5312h6.0781c1.375 0 2.4219 0.10547 3.1406 0.3125 0.95703 0.29297 1.7812 0.80469 2.4688 1.5312 0.69531 0.71875 1.2227 1.6055 1.5781 2.6562 0.36328 1.0547 0.54688 2.3516 0.54688 3.8906 0 1.3555-0.17188 2.5234-0.51562 3.5-0.40625 1.1992-0.99219 2.1719-1.75 2.9219-0.58594 0.5625-1.3672 1-2.3438 1.3125-0.73047 0.23047-1.7109 0.34375-2.9375 0.34375h-6.2656zm3.3281 2.7969v10.891h2.4844c0.92578 0 1.5977-0.050781 2.0156-0.15625 0.53125-0.13281 0.97266-0.35938 1.3281-0.67188 0.36328-0.32031 0.65625-0.85156 0.875-1.5938 0.22656-0.73828 0.34375-1.7422 0.34375-3.0156 0-1.2695-0.11719-2.2422-0.34375-2.9219-0.21875-0.6875-0.53125-1.2188-0.9375-1.5938-0.40625-0.38281-0.92188-0.64453-1.5469-0.78125-0.46094-0.10156-1.3672-0.15625-2.7188-0.15625zm13.297 13.672v-16.469h12.203v2.7969h-8.875v3.6406h8.2656v2.7812h-8.2656v4.4688h9.2031v2.7812zm32.266-6.0469 3.2344 1.0156c-0.5 1.793-1.3281 3.125-2.4844 4-1.1484 0.875-2.6016 1.3125-4.3594 1.3125-2.1875 0-3.9844-0.74219-5.3906-2.2344-1.4062-1.5-2.1094-3.5469-2.1094-6.1406 0-2.7383 0.70312-4.8633 2.1094-6.375 1.4141-1.5195 3.2812-2.2812 5.5938-2.2812 2.0078 0 3.6445 0.60156 4.9062 1.7969 0.75 0.69922 1.3125 1.7109 1.6875 3.0312l-3.2969 0.78125c-0.19922-0.85156-0.60547-1.5234-1.2188-2.0156-0.61719-0.5-1.3672-0.75-2.25-0.75-1.2188 0-2.2109 0.4375-2.9688 1.3125-0.76172 0.875-1.1406 2.2969-1.1406 4.2656 0 2.0742 0.375 3.5547 1.125 4.4375 0.75 0.88672 1.7227 1.3281 2.9219 1.3281 0.88281 0 1.6445-0.28125 2.2812-0.84375 0.63281-0.5625 1.0859-1.4414 1.3594-2.6406zm6.0625-10.422h3.3125v8.9219c0 1.418 0.039062 2.3359 0.125 2.75 0.14453 0.67969 0.48438 1.2188 1.0156 1.625 0.53906 0.40625 1.2734 0.60938 2.2031 0.60938 0.9375 0 1.6445-0.19141 2.125-0.57812 0.47656-0.38281 0.76562-0.85938 0.85938-1.4219 0.10156-0.5625 0.15625-1.4922 0.15625-2.7969v-9.1094h3.3281v8.6562c0 1.9688-0.09375 3.3672-0.28125 4.1875-0.17969 0.8125-0.50781 1.5-0.98438 2.0625-0.48047 0.5625-1.125 1.0117-1.9375 1.3438s-1.8711 0.5-3.1719 0.5c-1.5742 0-2.7656-0.18359-3.5781-0.54688s-1.4531-0.83203-1.9219-1.4062c-0.46875-0.58203-0.77734-1.1914-0.92188-1.8281-0.21875-0.94531-0.32812-2.3438-0.32812-4.1875zm20.328 16.469v-13.672h-4.875v-2.7969h13.078v2.7969h-4.875v13.672zm10.328-16.469h3.3125v8.9219c0 1.418 0.039062 2.3359 0.125 2.75 0.14453 0.67969 0.48438 1.2188 1.0156 1.625 0.53906 0.40625 1.2734 0.60938 2.2031 0.60938 0.9375 0 1.6445-0.19141 2.125-0.57812 0.47656-0.38281 0.76562-0.85938 0.85938-1.4219 0.10156-0.5625 0.15625-1.4922 0.15625-2.7969v-9.1094h3.3281v8.6562c0 1.9688-0.09375 3.3672-0.28125 4.1875-0.17969 0.8125-0.50781 1.5-0.98438 2.0625-0.48047 0.5625-1.125 1.0117-1.9375 1.3438s-1.8711 0.5-3.1719 0.5c-1.5742 0-2.7656-0.18359-3.5781-0.54688s-1.4531-0.83203-1.9219-1.4062c-0.46875-0.58203-0.77734-1.1914-0.92188-1.8281-0.21875-0.94531-0.32812-2.3438-0.32812-4.1875zm16.641 16.469v-16.469h7c1.7578 0 3.0352 0.15234 3.8281 0.45312 0.80078 0.29297 1.4414 0.82031 1.9219 1.5781 0.47656 0.75 0.71875 1.6172 0.71875 2.5938 0 1.2305-0.36719 2.25-1.0938 3.0625-0.73047 0.80469-1.8203 1.3086-3.2656 1.5156 0.71875 0.41797 1.3125 0.88281 1.7812 1.3906 0.46875 0.5 1.0977 1.3867 1.8906 2.6562l2.0156 3.2188h-3.9688l-2.4062-3.5781c-0.85547-1.2812-1.4375-2.0859-1.75-2.4219-0.3125-0.33203-0.64844-0.5625-1-0.6875-0.35547-0.125-0.91406-0.1875-1.6719-0.1875h-0.67188v6.875zm3.3281-9.5h2.4531c1.5938 0 2.5859-0.066406 2.9844-0.20312 0.39453-0.13281 0.70312-0.36328 0.92188-0.6875 0.22656-0.33203 0.34375-0.75 0.34375-1.25 0-0.55078-0.14844-0.99219-0.4375-1.3281-0.29297-0.34375-0.71094-0.5625-1.25-0.65625-0.27344-0.03125-1.0781-0.046875-2.4219-0.046875h-2.5938zm28.109 9.5h-3.6094l-1.4375-3.7344h-6.5781l-1.3594 3.7344h-3.5312l6.4062-16.469h3.5156zm-6.1094-6.5156-2.2812-6.1094-2.2188 6.1094zm7.875 6.5156v-16.469h5.3438c2.0195 0 3.3359 0.085938 3.9531 0.25 0.9375 0.25 1.7227 0.79297 2.3594 1.625 0.63281 0.82422 0.95312 1.8867 0.95312 3.1875 0 1.0117-0.18359 1.8672-0.54688 2.5625-0.36719 0.6875-0.83594 1.2305-1.4062 1.625-0.5625 0.38672-1.1367 0.64062-1.7188 0.76562-0.79297 0.16797-1.9375 0.25-3.4375 0.25h-2.1719v6.2031zm3.3281-13.672v4.6719h1.8125c1.3125 0 2.1875-0.085937 2.625-0.26562 0.44531-0.17578 0.79688-0.44531 1.0469-0.8125 0.25-0.36328 0.375-0.78906 0.375-1.2812 0-0.59375-0.17969-1.082-0.53125-1.4688-0.35547-0.39453-0.79688-0.64062-1.3281-0.73438-0.39844-0.070312-1.1953-0.10938-2.3906-0.10938zm11.922 13.672v-16.469h3.3125v16.469zm0 0" fill="none" stroke="#fff" stroke-linecap="round" stroke-linejoin="round" stroke-miterlimit="10" stroke-width="2"/>
<path d="m42.07 145.88 3.2344-0.3125c0.19531 1.0859 0.59375 1.8828 1.1875 2.3906 0.59375 0.51172 1.3945 0.76562 2.4062 0.76562 1.0703 0 1.8789-0.22266 2.4219-0.67188 0.53906-0.45703 0.8125-0.98828 0.8125-1.5938 0-0.39453-0.11719-0.72656-0.34375-1-0.23047-0.26953-0.625-0.50391-1.1875-0.70312-0.39844-0.13281-1.2891-0.375-2.6719-0.71875-1.7812-0.44531-3.0312-0.99219-3.75-1.6406-1.0117-0.90625-1.5156-2.0078-1.5156-3.3125 0-0.83203 0.23828-1.6133 0.71875-2.3438 0.47656-0.72656 1.1602-1.2852 2.0469-1.6719 0.89453-0.38281 1.9766-0.57812 3.25-0.57812 2.0625 0 3.6133 0.45312 4.6562 1.3594 1.0508 0.90625 1.6016 2.1172 1.6562 3.625l-3.3281 0.15625c-0.14844-0.84375-0.45312-1.4531-0.92188-1.8281-0.46094-0.375-1.1562-0.5625-2.0938-0.5625-0.96875 0-1.7305 0.20312-2.2812 0.60938-0.34375 0.25-0.51562 0.58984-0.51562 1.0156 0 0.38672 0.16016 0.71875 0.48438 1 0.42578 0.35547 1.4453 0.72656 3.0625 1.1094 1.6133 0.375 2.8047 0.76562 3.5781 1.1719 0.78125 0.40625 1.3906 0.96484 1.8281 1.6719 0.4375 0.71094 0.65625 1.5859 0.65625 2.625 0 0.94922-0.26562 1.8359-0.79688 2.6562-0.52344 0.82422-1.2617 1.4375-2.2188 1.8438-0.96094 0.39453-2.1523 0.59375-3.5781 0.59375-2.0859 0-3.6836-0.47656-4.7969-1.4375-1.1172-0.96875-1.7812-2.375-2-4.2188zm31.031 5.3594h-3.6094l-1.4375-3.7344h-6.5781l-1.3594 3.7344h-3.5312l6.4062-16.469h3.5156zm-6.1094-6.5156-2.2812-6.1094-2.2188 6.1094zm7.9062 6.5156v-16.469h3.2344l6.75 11v-11h3.0781v16.469h-3.3281l-6.6406-10.734v10.734zm28.906-16.469h3.3125v10.422c0 1.3672-0.12109 2.418-0.35938 3.1562-0.32422 0.96094-0.90625 1.7305-1.75 2.3125-0.84375 0.57422-1.9609 0.85938-3.3438 0.85938-1.625 0-2.875-0.45312-3.75-1.3594-0.875-0.91406-1.3203-2.2539-1.3281-4.0156l3.1406-0.35938c0.03125 0.94922 0.16406 1.6172 0.40625 2 0.36328 0.59375 0.91016 0.89062 1.6406 0.89062 0.73828 0 1.2578-0.20703 1.5625-0.625 0.3125-0.42578 0.46875-1.3047 0.46875-2.6406zm6.8438 0h3.3125v8.9219c0 1.418 0.039062 2.3359 0.125 2.75 0.14453 0.67969 0.48438 1.2188 1.0156 1.625 0.53906 0.40625 1.2734 0.60938 2.2031 0.60938 0.9375 0 1.6445-0.19141 2.125-0.57812 0.47656-0.38281 0.76562-0.85938 0.85938-1.4219 0.10156-0.5625 0.15625-1.4922 0.15625-2.7969v-9.1094h3.3281v8.6562c0 1.9688-0.09375 3.3672-0.28125 4.1875-0.17969 0.8125-0.50781 1.5-0.98438 2.0625-0.48047 0.5625-1.125 1.0117-1.9375 1.3438s-1.8711 0.5-3.1719 0.5c-1.5742 0-2.7656-0.18359-3.5781-0.54688s-1.4531-0.83203-1.9219-1.4062c-0.46875-0.58203-0.77734-1.1914-0.92188-1.8281-0.21875-0.94531-0.32812-2.3438-0.32812-4.1875zm31.469 16.469h-3.6094l-1.4375-3.7344h-6.5781l-1.3594 3.7344h-3.5312l6.4062-16.469h3.5156zm-6.1094-6.5156-2.2812-6.1094-2.2188 6.1094zm7.9062 6.5156v-16.469h3.2344l6.75 11v-11h3.0781v16.469h-3.3281l-6.6406-10.734v10.734zm-101.02 6.5312h6.0781c1.375 0 2.4219 0.10547 3.1406 0.3125 0.95703 0.29297 1.7812 0.80469 2.4688 1.5312 0.69531 0.71875 1.2227 1.6055 1.5781 2.6562 0.36328 1.0547 0.54688 2.3516 0.54688 3.8906 0 1.3555-0.17188 2.5234-0.51562 3.5-0.40625 1.1992-0.99219 2.1719-1.75 2.9219-0.58594 0.5625-1.3672 1-2.3438 1.3125-0.73047 0.23047-1.7109 0.34375-2.9375 0.34375h-6.2656zm3.3281 2.7969v10.891h2.4844c0.92578 0 1.5977-0.050781 2.0156-0.15625 0.53125-0.13281 0.97266-0.35938 1.3281-0.67188 0.36328-0.32031 0.65625-0.85156 0.875-1.5938 0.22656-0.73828 0.34375-1.7422 0.34375-3.0156 0-1.2695-0.11719-2.2422-0.34375-2.9219-0.21875-0.6875-0.53125-1.2188-0.9375-1.5938-0.40625-0.38281-0.92188-0.64453-1.5469-0.78125-0.46094-0.10156-1.3672-0.15625-2.7188-0.15625zm13.297 13.672v-16.469h12.203v2.7969h-8.875v3.6406h8.2656v2.7812h-8.2656v4.4688h9.2031v2.7812zm32.266-6.0469 3.2344 1.0156c-0.5 1.793-1.3281 3.125-2.4844 4-1.1484 0.875-2.6016 1.3125-4.3594 1.3125-2.1875 0-3.9844-0.74219-5.3906-2.2344-1.4062-1.5-2.1094-3.5469-2.1094-6.1406 0-2.7383 0.70312-4.8633 2.1094-6.375 1.4141-1.5195 3.2812-2.2812 5.5938-2.2812 2.0078 0 3.6445 0.60156 4.9062 1.7969 0.75 0.69922 1.3125 1.7109 1.6875 3.0312l-3.2969 0.78125c-0.19922-0.85156-0.60547-1.5234-1.2188-2.0156-0.61719-0.5-1.3672-0.75-2.25-0.75-1.2188 0-2.2109 0.4375-2.9688 1.3125-0.76172 0.875-1.1406 2.2969-1.1406 4.2656 0 2.0742 0.375 3.5547 1.125 4.4375 0.75 0.88672 1.7227 1.3281 2.9219 1.3281 0.88281 0 1.6445-0.28125 2.2812-0.84375 0.63281-0.5625 1.0859-1.4414 1.3594-2.6406zm6.0625-10.422h3.3125v8.9219c0 1.418 0.039062 2.3359 0.125 2.75 0.14453 0.67969 0.48438 1.2188 1.0156 1.625 0.53906 0.40625 1.2734 0.60938 2.2031 0.60938 0.9375 0 1.6445-0.19141 2.125-0.57812 0.47656-0.38281 0.76562-0.85938 0.85938-1.4219 0.10156-0.5625 0.15625-1.4922 0.15625-2.7969v-9.1094h3.3281v8.6562c0 1.9688-0.09375 3.3672-0.28125 4.1875-0.17969 0.8125-0.50781 1.5-0.98438 2.0625-0.48047 0.5625-1.125 1.0117-1.9375 1.3438s-1.8711 0.5-3.1719 0.5c-1.5742 0-2.7656-0.18359-3.5781-0.54688s-1.4531-0.83203-1.9219-1.4062c-0.46875-0.58203-0.77734-1.1914-0.92188-1.8281-0.21875-0.94531-0.32812-2.3438-0.32812-4.1875zm20.328 16.469v-13.672h-4.875v-2.7969h13.078v2.7969h-4.875v13.672zm10.328-16.469h3.3125v8.9219c0 1.418 0.039062 2.3359 0.125 2.75 0.14453 0.67969 0.48438 1.2188 1.0156 1.625 0.53906 0.40625 1.2734 0.60938 2.2031 0.60938 0.9375 0 1.6445-0.19141 2.125-0.57812 0.47656-0.38281 0.76562-0.85938 0.85938-1.4219 0.10156-0.5625 0.15625-1.4922 0.15625-2.7969v-9.1094h3.3281v8.6562c0 1.9688-0.09375 3.3672-0.28125 4.1875-0.17969 0.8125-0.50781 1.5-0.98438 2.0625-0.48047 0.5625-1.125 1.0117-1.9375 1.3438s-1.8711 0.5-3.1719 0.5c-1.5742 0-2.7656-0.18359-3.5781-0.54688s-1.4531-0.83203-1.9219-1.4062c-0.46875-0.58203-0.77734-1.1914-0.92188-1.8281-0.21875-0.94531-0.32812-2.3438-0.32812-4.1875zm16.641 16.469v-16.469h7c1.7578 0 3.0352 0.15234 3.8281 0.45312 0.80078 0.29297 1.4414 0.82031 1.9219 1.5781 0.47656 0.75 0.71875 1.6172 0.71875 2.5938 0 1.2305-0.36719 2.25-1.0938 3.0625-0.73047 0.80469-1.8203 1.3086-3.2656 1.5156 0.71875 0.41797 1.3125 0.88281 1.7812 1.3906 0.46875 0.5 1.0977 1.3867 1.8906 2.6562l2.0156 3.2188h-3.9688l-2.4062-3.5781c-0.85547-1.2812-1.4375-2.0859-1.75-2.4219-0.3125-0.33203-0.64844-0.5625-1-0.6875-0.35547-0.125-0.91406-0.1875-1.6719-0.1875h-0.67188v6.875zm3.3281-9.5h2.4531c1.5938 0 2.5859-0.066406 2.9844-0.20312 0.39453-0.13281 0.70312-0.36328 0.92188-0.6875 0.22656-0.33203 0.34375-0.75 0.34375-1.25 0-0.55078-0.14844-0.99219-0.4375-1.3281-0.29297-0.34375-0.71094-0.5625-1.25-0.65625-0.27344-0.03125-1.0781-0.046875-2.4219-0.046875h-2.5938zm28.109 9.5h-3.6094l-1.4375-3.7344h-6.5781l-1.3594 3.7344h-3.5312l6.4062-16.469h3.5156zm-6.1094-6.5156-2.2812-6.1094-2.2188 6.1094zm7.875 6.5156v-16.469h5.3438c2.0195 0 3.3359 0.085938 3.9531 0.25 0.9375 0.25 1.7227 0.79297 2.3594 1.625 0.63281 0.82422 0.95312 1.8867 0.95312 3.1875 0 1.0117-0.18359 1.8672-0.54688 2.5625-0.36719 0.6875-0.83594 1.2305-1.4062 1.625-0.5625 0.38672-1.1367 0.64062-1.7188 0.76562-0.79297 0.16797-1.9375 0.25-3.4375 0.25h-2.1719v6.2031zm3.3281-13.672v4.6719h1.8125c1.3125 0 2.1875-0.085937 2.625-0.26562 0.44531-0.17578 0.79688-0.44531 1.0469-0.8125 0.25-0.36328 0.375-0.78906 0.375-1.2812 0-0.59375-0.17969-1.082-0.53125-1.4688-0.35547-0.39453-0.79688-0.64062-1.3281-0.73438-0.39844-0.070312-1.1953-0.10938-2.3906-0.10938zm11.922 13.672v-16.469h3.3125v16.469z" fill-rule="evenodd"/>
</g>
</svg>
