<?xml version="1.0" encoding="UTF-8"?>
<svg width="415pt" height="500pt" version="1.1" viewBox="0 0 415 500" xmlns="http://www.w3.org/2000/svg">
<g id="a">
<rect width="415" height="500" fill="none"/>
<path d="m50.266 0.67578 0.20312 0.03125 1.0664 0.19531 1.25-0.42188 1.0273-0.14062 0.53516 0.85547 0.76953 1.0742 0.80469 0.66797 1.1797 0.23828 1.0273 0.23438 1.3203 0.84375 0.8125 0.59375 1.9023 0.95703 0.99609 0.29688 0.58594 1.2109 0.73047 0.78125 1.5781 0.25391 1.0352-0.29297 0.91797-1.8594 0.45312-0.90234 0.55078-0.86719 0.83594-0.62891 0.36328-0.94531 0.87891 0.61719 0.56641 0.91406 1.0117 0.39844 0.47656 1.1133 0.84375 0.58203 0.68359 0.93359 1.0078 0.51562 0.76953 0.76953 0.39453 1.1719 0.82422 2.0781 0.31641 1.0156 0.64844 0.85547 0.44922 1.1484-0.035156 1.0625 1.0039 0.60156 0.29297 1.1289-0.69141 0.72266-0.85156 1.0391-0.88281 1.4609 0.45703 0.91016 0.95703 0.36719 0.92969 0.56641 1.1758-0.44531 1.1016-0.33984 1.125 0.48828 0.75 0.84766 0.30469 1.0039-0.046875 1.3203 0.97266 0.58594 1.0938 0.14453 1.2578 0.72266 0.97656-0.29688 0.55078-0.84766 0.83203 0.64844 1.1758 0.29688 1.0156-0.058594 0.40625-1.3945 0.62109-0.94141 1.2656-0.32031 1.3945-0.09375 1.0039-0.21094 1 0.074219 0.20703 1.0352 0.77344 0.66797 1.0312 0.11719 1.1836 0.70312 0.97656 1.3984 0.5 1.0703 1.418-0.41016 1.2227-0.011719 1.125 0.28906 0.97656 0.26172 1.0273 0.074219h1.2461l1.0352-0.34766 1.0117-0.003906 0.48047 1.2461 1.1328 0.44922 0.98438-0.42578 0.70312-0.99219 0.70312-0.72656 1.0508 0.44141 0.90234-0.65625 1.0156 0.78125 0.80078 1.1953 0.90625 0.50391 0.63672 0.79688 0.96094 0.625 0.35156 1.1211 1.25 0.33594 1.2969 0.43359 1.2656 0.60547 0.97656-1.0547 1.125-0.6875 0.80859-0.80078 1.0742 0.19141 1.0391 0.078125 0.89844 0.60938 0.20703 1.0391-0.015625 1.0117 1.1523 0.52734 1.2148 0.28906 1.0117-0.17578 1.4102 0.40625 1.3125 0.40234 1.3008 0.39062 1.0195 0.51172 1.1914 0.71484 1.2266 0.375 0.94922-0.54297 1.2969-0.21875 1.3086 0.41016 1.2383-0.20312 1.0898 0.25 1.0312 0.41016 1.0586 0.26562 0.89062-0.62891 1.1289 0.21484 0.26172 1.2656 0.81641 0.66016 0.48828 1.2188 0.99609 0.64844 0.78125 0.89062 1.1719 0.6875 1.4805 0.58594 1.8594 0.33984 1.1523 0.23438 0.71875 0.73828 0.94141 0.42188 0.90234 0.71875 0.98828 1.1641 0.81641 0.75781 0.99219 0.29688 0.51172 1.0156 1.5195 0.042969 0.84766-0.58203 1.1797-0.011719 0.95703-0.375 1.2266 0.17188 1.0742 0.14062 1.1133 0.19141 0.95703 0.48828 0.85547 1.0039 0.60156 0.87891-0.38281 1.1289-0.35938 1.0977 0.42578 1.3555 0.15234 1.0234 0.53516 1.0508 0.50781 1.1172-0.078125 1.1758-1.0664 0.51562 0.22266 1.1523 0.58594 0.91406 0.30859 0.95312-0.0625 1.3398-0.25391 1.0469 0.24219 1.0391 1.0312 0.83984 1.1602 1.3164 0.79688 0.85547 0.875 0.60938 0.50781 1.1328 1.1211 0.71875 0.72266 0.82031 0.22266 0.98438-0.11328 1.0117 0.78516 1.0859 0.49219 1.6133 0.039062 1.0273 0.63281 0.84375 1.3555-0.023437 1.0195 0.89453v1.3945l0.14453 1.2227-0.17969 1.0156-0.77344 0.92188-0.34766 0.96094 0.023437 1.0117 0.99219 0.77344 1.707 0.089844 1.4492 0.62891 0.98828 0.5625 1.0195 0.17578 1.0664-0.125 0.98828-0.25391 1.8438 0.19141 1.2461-0.046875 1.1406 0.011719 0.83594-0.57422 1.3164-0.5 1.207 0.19922 0.92188-0.47656 1.4141 0.23438 1.1953 0.57422 0.71094 0.89453 1.0117 0.050781 0.94922 0.35938 1.0312-0.27734 1.0117 0.097656 1.9531 0.61719 1.293 0.3125 1.1602 0.17969 1.1328-0.027343 0.99609-0.32422 1.0039-0.35547 0.92969-0.50391 1.0508-0.5625 0.66797-0.86328 1.0508 0.007812 1.0391-0.22656 0.91406-0.51172 1.1055-1.1523 0.91406-0.51953 2.9609-1.5352 1.5859-0.76172 0.92578-0.45312 1.6445-0.80469 2.7578-1.5234 1.2344-0.60547 1.8047 0.44141 1.957 1.207 2.0508 1.75 1.5586 2.0703 0.53906 1.1328 0.54688 1.1562 0.4375 0.91016 0.55469 1.1562 1.1133 2.1562 1.0273 0.51172 0.046875 1.1172 2.1055 1.0625 0.51953 0.88672-0.63672 2.5312 0.20703 1.8438 2.1797 1.9922 1.7539 0.41406 1.7617 0.24609 1.4648 0.41016 2.168 3.4258 0.94531 1.1797 1.4961 2.0938 2.168 2.0078 2.2422 0.46094 3.3828 0.52734 4.4844 0.66016 2.9023 0.042968 1.1797-0.12109 2.293-1.1172 3.1406-1.9141 2.1602-1.9453 2.793-2.6289 0.83984-0.86719 2.7734-2.8672 1.2148-0.44141 2.4531-0.49609 1.0469-0.10938 1.0312-0.12109 1.8828-0.050781 1.6836 0.35156 1.2188 0.83203 1.4219 1.6719 0.96094 1.3672 0.89844 1.3438 0.76172 0.84375 1.1562 0.65625 1.2148 0.34375 1.3906-0.72656 1.4688-0.14453 1.1445 0.050782 1.0469 0.078125 1.2734 0.33984 1.4531 0.32812 1.3867 0.09375 2.0664-0.12109 1.5898-0.85547 0.5625-0.84375 0.81641-1.4023 0.28906-1.2969 0.55078-1.5117 0.91406 0.44922 1.0078-0.070312 0.89844 0.47656 0.375 0.97266 0.71484 0.77344 0.76172 0.70312 0.88672-0.57812 0.65234 0.77734 0.70703 0.75-0.16797 1.0078-0.85156 0.58594 0.48828 0.99609 1.0586-0.17578 0.91797-0.69922 0.78125 0.70703 0.97656-0.28906 0.96484-0.32422 0.96094 0.34375 0.99219-0.21484 0.90234-0.51953 0.95703-0.36328 0.23438-1.0234 0.67578-0.8125 0.54297-0.84375 0.69141-0.73047 0.98828-0.28516 0.79688-0.70703 0.32812-0.95703 0.68359-0.76953 0.99219-0.14844 0.95312 0.48438 1.0078 0.046875 1.0352 0.03125 0.8125-0.60938 0.89062-0.58203 0.97266-0.37109 0.76953-0.65234 0.21875-0.99219 0.22266-0.98438 0.19922-3.4375 0.058594-1.0195 0.55078-1.4727 1.0547-0.90234 1.0078-0.57422 1.4609-0.59375 1.0742-0.28125 0.96484-0.3125 1.793-1.0742 0.89453 3.1758 2.1055 3.8633 0.47656 0.99219 2.1641 5.457 0.50391 3.9102 0.054687 1.7539v1.3086l0.11719 1.6094 0.20703 1.2109 0.58203 0.83594 1.1523 0.92578 2.4648 1.7266 1.1953 1.2227 0.43359 1.3672-0.050781 1.3398 0.046875 1.8984 0.042969 1.8438-0.050782 2.4023-0.44531 1.8789-0.44922 1.0195-0.44141 1.0391-0.67969 0.89062-0.63672 1.0039-0.59766 0.94141-0.73047 0.71484-1.0625 0.80078-0.99219 0.74609-0.78516 0.78516-0.65625 1-0.57422 0.89453-0.46484 0.97266-0.53906 0.92969 0.46875 1.8555 0.16406 1.1328 0.26562 1.1367 0.046875 1.1289 0.38672 1 0.25391 1-0.53906 1-0.015625 1.0898 0.87109 0.59375 0.12891 0.99219-0.058594 1.1328-0.53125 0.94531 0.89453 0.46094 0.49219 1.0898 0.44531 0.93359 0.30469 1.125 0.60938 1.1914-0.50781 0.89844 0.53906 0.85156 0.78125 0.64453 0.67188 0.90234 0.058594 1.0977-0.13281 1.4258 0.20312 1.3555 0.074219 1.2891 0.11328 1.0352 0.34375 1.0273 0.33203 1.125 0.050782 1.5664-0.17578 1.2773-0.26953 0.97266-0.29297 0.98828-0.050781 1.4414 0.089844 1.2305 0.54297 2.7109 0.12109 1.1211 0.23438 1.25 0.14844 1.0195 0.10156 1.3008-0.082031 1.2031-0.16797 1.7734-0.11719 1.1602-0.49219 2.043-0.035156 1.043 0.10938 2.6797 0.066406 1.4844 0.15234 1.1992 0.32812 1.4961 0.10156 1.3984 0.035156 1.457-0.35938 1.1133-0.55469 1.1094-0.69922 1.0859-0.98438 0.55859-0.98047 0.35156-1.1992 0.33203-1.0039 0.40234-0.94141 0.42188-1.5039 0.17969-1.0117 0.38281-1.0664 0.48047-0.22656 1.0273-0.51953 0.98047-1.1211 0.046875-0.82031 0.63281-0.5625 0.86328-1.0391 0.46875-0.95312 0.44922-0.98047 0.41406-1.0039-0.066406-0.92578 0.44141-1.0664 0.10156-0.71484-0.99609-0.46094-0.89844-0.011719-1.0898-0.097656-1.0039-0.98438 0.49219-1.0391-0.13281-0.92969 0.49219-0.79688 0.60547-0.39453 1.0859-0.30859 0.97656-0.44922 0.91797h-1.0195l-0.78125 0.74219-0.36328 1.0273-0.34375 1.0156-0.91797 0.54688-0.98828-0.53125-0.63672-0.80469-0.98438-0.28906-0.6875-0.73828-0.99609-0.18359-1.0664-0.17969-0.84375 0.63672-0.97266-0.26562-1.0195 0.21484-0.9375-0.41406-0.98828 0.28516-1.0039-0.46875-0.97656-0.32031-0.26953-1.0195-0.63672-0.85156-0.94922-0.67578 0.21094-1.0391-1.0391-0.042969-1.0469 0.050782-0.97266 0.28516-0.12891-1.0859-0.78906-0.63672-0.96094-0.42969-0.69922-0.82422-0.81641-0.71875-0.97266-0.28125-1.0156-0.17578-1.0781 0.41797-1-0.16406-0.99219-0.16406-0.83203 0.59766-0.87109-0.625-1.0312 0.015625-0.97656-0.41797-1.0586-0.089843-1.0391-0.039063-0.90234-0.51172-1.0195 0.16406-1.0234 0.21094-1.0273-0.24219-0.91016 0.5-0.95312-0.41016-1.0117-0.16406-0.98047-0.35938-1.2031 0.51953-0.67969 0.82422-0.92969-0.45312-1.0664 0.10156-0.97266 0.42188-0.9375-0.38281-0.9375 0.45703-0.33984 0.96484-1.0547 0.082031-1.1055-0.089843-1.0234 0.45703-1.0039-0.054688-1.043 0.30859-0.80078 0.79297 0.21484 1.1445 0.23828 1.0352 0.87109 1.1953 0.68359 0.92969 0.47266 1.043-0.042968 1.2695 0.39844 1.0625 0.91797 0.72656 0.875 0.99609 0.69141 0.85547 0.75781 0.76953-0.41406 0.98047-0.52344 0.86719 0.3125 1.1172-0.77734 0.83594-1.1328 0.27344-0.92578 0.42578-1.0859 0.28125-0.96484 0.5625-0.44141 1.0039-0.097657 1.293 0.46484 1.3945 0.28516 1.0273 0.41016 1.3477 0.625 0.95312 0.003906 1.2227 0.64453 0.79297 0.27734 1.0117 1.5-0.71094 1.0078 0.57031 0.88281 0.49219 0.36328 1.0977-0.078125 1.1094 0.26172 1.2695 0.10547 1.0781-0.55859 0.83203-0.10547 1.0156-0.10938 1.0547-0.32812 0.99609 0.019531 1.0938-0.125 1.125 0.40625 0.98438-0.48047 1.1328-0.45312 1.125-0.55078 1.0234 0.17188 1.0781-0.34766 1.0547-1.1016 0.16406-1.1172 0.25391-1.0195 0.57812-0.51172 1.1289-0.39844 1.1758-0.33984 1.0625-0.375 1.0156-0.44531 0.96484-0.48047 0.92578-0.97266 0.58594-0.875 0.80859-0.97266 0.52734-0.875 0.51562-1.2148 0.36719-1.0352 0.42969-1.1367-0.25-1.082 0.67578-1.0156 0.66406-0.84766 0.57031-0.98828 0.60938-0.89844 0.53125-0.15625 1.168-0.73438 1.5938-0.89062 0.60938 0.023438 1.0039-0.32031 1.293-0.54688 1.2969-0.40234 0.97266-0.34766 0.94141-0.59766 0.84766-0.80859 0.70312-0.88672 0.69922-1.0117 0.40625-0.58203 0.8125-0.47266 1.1016-0.73047 0.73047-0.99609 0.52734-0.74609 0.78906 0.34766 1.2617 0.78516 0.92578 0.80859 1.0195 0.1875 1.3242-0.40625 1.0781-0.23047 1.3086-0.27734 0.99609-0.47656 1.043-0.30469 0.96875-0.09375 1.0547-0.55859 1.1523-0.14844 1.1367 0.11719 1.0703 0.44922 1.1016 0.60938 0.96875 0.41406 1.0234 0.25391 0.97656 0.87891 1.1172 0.70312 1.0391 0.24219 1.1562 0.48828 1.2266 0.82812 0.78516 0.49609 1.0508 0.78125 1.1445 0.71875 1.1641 0.89844 0.63281 0.80078 0.62891 1.1445 0.11328 1.0312 0.62891 0.56641 1.0859 0.67188 1.0898 0.88672 0.48047 1 1.2344 0.36719 1.2188-0.046875 1.582 0.19922 1.3789 1.0078 0.21484 1.457-0.33594 1.1445-0.042969 0.51172 0.86328 0.10547 1.4727 0.71875 0.78125 0.4375 1.0312-0.50391 0.95312-0.070313 1.0547-0.66797 0.84766 0.12891 1.0391 0.67188 0.78906 0.12109 1.082-0.48438 1.0625-1.1406 0.68359-0.89844 0.70703-0.39062 1.2109 0.25 1.3086 0.19141 1.082 0.035156 1.0625-0.015625 1.0352-0.011718 1.0234-0.050782 1.1836-0.5625 0.91016 0.12891 1.0195 0.24219 1.0469 0.26953 0.98438 1.1406 0.41797 0.64453 1.0156-0.03125 1.043 0.085937 1.2266 0.058594 1.0703 0.33984 0.96484 0.97656 0.30859 1.0273 0.51562 0.84766 0.72656 0.23438 0.99219 0.30078 1.0039 1.0781 0.14453 0.99609 0.31641 0.66016 0.94141 0.30469 1.0234 0.16797 1.1016 0.40234 1.0117 0.77734 0.94922 0.71484 0.86719 0.5625 0.87109 0.125 1.0898 0.74219 0.67188 0.85938 0.76562 0.19531 1.0859 0.63281 1.4375-0.20703 0.98047-0.26562 1 0.45312 0.99219 1.0703 0.10547 1.0859-0.085937 0.76172 0.73047 1.0781 1.3945-0.1875 1.0938-0.97656 0.36719 0.050782 1.0781-0.1875 1.1055 0.015625 1.0859-0.85938 0.60547-0.054688 1.1289 0.45312 0.91406 0.94141 0.41016 1.0078 0.046875 1 0.054688 1.0898-0.13672 0.55469-0.91406 0.91016-0.67969 1.1211-0.011719 1.0781-0.085937 0.78125 0.64062 0.66406 0.77344 0.76562-0.69141 0.53516-0.85547 0.97656-0.37109 0.98047-0.64453 0.97656-0.33984 0.98828-0.47656 1.125-0.039063 0.89453-0.47266 1.0703-0.60938 1.0352-0.36719 0.95312-0.32422 0.63281 1.0977 0.51953 1.0117 0.49609 0.98047 0.88281 0.74609 0.21875 1.0273 0.074219 1.1016 0.35156 0.9375 0.87891 0.71484-0.38281 1.0586-0.29297 1.1992-0.26953 1.0664-0.47266 0.91406-0.16406 1.0859-0.19141 1.1992-0.003906 1.6445-0.039063 1.0039-0.30078 1.0508 0.078125 1.0859-0.16406 1.1914-1.0625 0.039063-0.62891 0.78906-0.74219 0.73828-1.1758-0.12891-1.1289-0.027343-0.87109 0.54297-0.99609 0.24609-1.0195-0.23047-1.1172-0.066406-1.1758 0.20312-1.1914 0.046875-1.0508 0.71094-0.12109 1.1172-0.73438 0.72266-0.98047 0.4375-0.94141 0.61328-0.86328 0.55859 0.78125 0.63672 0.85938 0.71484-0.1875 0.99609 0.69141 0.76562 0.14453 1.0391 0.30469 1.0742-0.28906 1.0273 0.30469 1.0469-0.17969 1.1367-0.22656 1.125-0.25781 1.043-0.33984 1.0078 0.12891 1.3086 0.44531 0.90625 0.47656 1.1328 1.0703 0.48438-0.12109 1.0781 0.5625 1.0078-0.13281 1.0117 0.11719 1.0625 0.40234 1.0078 0.58203 1.1406 0.58984 1.0352-0.55859 0.83203 0.19922 1.0977 0.011718 1.1602-0.042968 1.2539-0.54688 0.83984-0.23047 1.2305-0.6875 0.8125-1.1055 0.72656-1.1406 0.25781-0.82031 0.69531-1.0898-0.19922-1.0938-0.14453-1.0625 0.47266-1.168 0.29297-1.1719 0.39453-1.1367-0.15625-0.75391-0.70312-0.77734 0.63672-1.043 0.41406-0.97656 0.26172-1.0977-0.21094-0.63672 0.77734-1.0039 0.019532-0.94531 0.78906-0.13672 1.0039-1.0195-0.36719-0.53906-1.0742-1.1641-0.15234-0.91016 0.73828-0.96094 0.60938-1.0469-0.3125-1-0.10156-0.65625 0.98828-0.51953 1.0234-0.19141 1.0117-0.16797 1.1914-0.61719 0.8125-0.71484 1.0117-0.78125 0.64844 0.17969 1.1172 0.41797 1.1523-0.36719 1.0469 0.26562 1.3398-0.71875 1.1797-0.68359 0.96484-0.019531 1.0078 0.19531 1-0.82812 0.79688-0.57031 0.89453-0.25781 1.0547-0.36719 1.0391 0.058594 1.0273 0.058593 1.1406 0.14453 1.0273 0.39062 1.043-0.12109 1.125 0.089844 1.1211-0.13672 1.0391-0.24609 1.0234 0.13281 1.0273 0.10547 1.2227-0.082031 1.125-0.34766 1.0352-0.30859 0.96484-0.23438 1.0391 0.1875 1.0195 0.78516 0.71875 0.48828 0.91016 0.16797 1.043-0.21094 1.207 0.48047 0.87891-0.30859 1.0039 0.1875 1.0625 0.26562 0.98828 0.33984 0.99219 0.91406 0.46875 0.61328 0.83203-0.26562 1.0078-0.79688 0.62891-0.98828-0.36719-0.9375 0.41797-0.35938 0.96484-0.93359 0.39453-0.23828 0.97266-0.32422 1.1875-0.59375 0.81641-0.20703 1.125-0.20312 1.0625-0.33594 0.94531 0.45312 0.90625-0.67188 0.78125-0.31641 1.0547-0.42188 1.0078-1.0117-0.19141-0.16016 1.0859 0.042969 1.0938-0.20703 1.0117-0.93359 0.69141-1.0469 0.046875-1.1406 0.37891-0.97266-0.26953-0.86719 0.58594-0.12109 0.99609-0.71094 0.74609-1.0859-0.18359-0.30859 1.0625-0.35156 1.0039-0.95703 0.45312-0.9375 0.77344-0.9375-0.39844 0.23828-1.1211 0.26953-1.043-0.69141-0.84766-0.53125-0.93359 1.0352-0.45312-0.65625-0.96094-0.91797-0.625 0.97656-0.26172 1.1523-0.30078-0.22266-1.0078-0.77734-0.75391-0.62891-0.78516-0.10938-1.0938-0.47266-0.92188-0.82812-0.71875-0.96875-0.4375 0.19922-1.0977 0.16016-1.0703-0.5-0.95312-0.9375 0.35938-0.50781-0.91797 0.9375-0.40234 1.0195 0.625 1.0586-0.070312-0.15234-1.0156-0.29297-1.0508-0.39453-0.95703-1.3516-1.1055-0.94141-0.74609 0.16797-1.082 0.65234-0.80469-0.69141-0.89062-0.21094-1.1836 0.88281-0.92969-0.28906-1.0898-1.1445-0.79297 0.30859-1.1055-0.64453-0.85938-1.0312-0.54688-0.37891-0.9375 0.87109-0.75781-0.86328-1.1562-1.0312-0.097656-1.082 0.71094-0.20703-1.1758-0.10547-1.1367-0.60156-0.90234-0.99219-0.85938-0.26953-1.1367-0.1875-0.98828-0.89844-0.71875-0.28125-1.1094 0.375-0.95703 0.90234-0.90234 0.23438-1.1133-0.92578-0.53906-0.80078-1.1602-0.45312-1.2188 0.62109-0.89062-0.03125-1.1367-0.72656-0.85156 0.074219-1.0312-0.64062-1.0391 0.035156-1.1445-0.12891-1.1758-0.97266-0.83984-1.0625 0.023438-1 0.070312-0.92969-0.85938-0.60547-0.89844-1.0859-0.38281-0.60938 1.2539-0.78516 0.72656-1.082 0.21484-1.2852 1.1758-0.88672 0.6875-1.0352 0.41016-1.0195 0.32031-0.70312 1.082-0.69141 1.3008-0.65625 0.95312-0.80078 0.66406-0.25 1.082-0.38281 1.0938-0.58594 1.1367-0.097657 1.0547-0.32422 0.98828-0.32031 1.168-0.625 1.1523-0.42969 0.98828 0.054687 1.168-0.375 1.1289-0.82031 1.1523-0.51953 1.0156 0.34766 1.1641-1.0273 0.58984-1.0312 0.10938-1.1602 0.26562-1.1562 0.21875-0.097657-1.043-0.23047-1.2227 0.58594-1.082-0.66797-0.89844-0.5-0.94531-0.71484-0.72656-1.0273-0.12109-0.82812-0.71484-0.72656-0.70703-0.79688-0.74219-0.76953-0.66016-0.86328-0.53906-0.45703-0.92969-0.22656-1.0039-1.0039 0.097656-0.85156 0.55078-0.92578 0.41797-0.95312 0.34766-1.1055-0.17188-0.96094 0.41797-1.0078-0.19922-0.97266 0.32812-1.0234 0.18359-1.0156-0.18359-0.99219 0.28516-1.0469-0.035157-1.0156 0.35938-0.98828 0.61719-0.87891 0.66016-0.98047-0.37109-1.0078 0.26562-0.98438 0.41016-0.94922-0.59766-1.0391-0.027343-0.45703 1.0039-0.92969 0.39062-1.0312 0.13672-1.3242-0.12891-0.97266-0.4375-0.76562-0.75-0.875-0.6875-0.93359-0.48828-0.97266 0.64844-0.88281 0.76953-1.0938-0.54688-1.0273-0.10938-1.0117 0.66406-1 0.29297-0.90234-0.60938-1.043 0.15625-1 0.070313-0.71484-1.2461-0.75391-0.72266-1.0195 0.042968-1.0742 0.59375-1.1602 0.41016-1.0273-0.23828-0.94922 0.38281-0.80469 0.66797-0.44141 0.94922-0.42578 0.97656-0.10938 1.1875-0.80859 0.91016-1.0156 0.17969-0.60547 0.92188-0.078125 1.0273-1.0547-0.16016-0.58984-0.85938-1.0156 0.097656-0.81641-0.60156-0.76172 0.73828-0.47266 1.0859-1.0391-0.20703-1.1406 0.375-1.2695 0.26562-1.1289-0.16797-1.1094-0.28516-0.94531-1.1523 0.097656-1.0703-0.94531-0.42578-1.1289-0.54688-0.62109 0.82812-0.96875 0.60156-0.83594 0.80078-1.082-0.019532-0.96094-0.35547-1.2266-0.24219-1.375-1.3984-0.92188-0.79688-1.0938-0.23438-1.1016 0.45703-1.0039-0.28125-0.85938 0.94531-0.58984 0.86719-1.0391 0.042969-1.1367-0.44141-0.66797-0.96094-0.32031-0.98438-1.0039-0.23828-1.0703-0.23047 0.027344-1.0391-1.1328-0.15625-0.75-0.66406-0.48047-1.0273 0.89062-0.68359 0.042969-1.0742 0.75-0.82422-0.027344-1.0469-0.91406-0.76562-1.1445 0.125-0.97656 0.39062-0.63672-0.82031-1.0391-0.27344-1-0.24219-0.89453 0.67969-1.3086-0.25391-1.0977-0.67188 0.37891-1.0312 0.53125-1.043 0.51953-1.1602 0.11719-1.0312-0.41797-1.25 0.94922 0.5625 0.97266 0.52734 1.1719-0.09375 1.1016-0.25391 0.30078-1.0352 1.0781-0.35938 0.35938-0.94922 0.28125-1.0273 0.47266-1.0078 0.14844-1.0508 1.0352-0.4375 1.0547-0.085938 0.37109-0.92969 1.2344-0.011719 0.92578 0.47266 1.0938 0.28516 1.0977 0.21484 1.0469-0.019531 1.0938-0.76562 0.87109-0.55469 0.92969-0.65625 1.1836-0.79297 0.86719-0.51172 0.80078 0.80469 0.3125 0.99609 1.1094-0.13281 1.0312 0.17969 0.9375-0.49219-0.23438-0.98047-0.089844-1.0547 0.73047-0.82422 0.98828-0.14844 1.0664 0.1875 1.0039 0.050781 0.54297-0.97266 0.4375-0.99609 1.1445 0.15625 1.0273-0.18359 0.125-1.0391-0.65234-0.76172 0.45312-1.0508 0.8125-0.72656 0.71094-0.75 0.49609-0.96094 0.17188-1.3203 0.55078-0.85547 0.13281-1.0078-0.375-0.97266 0.49219-0.89453 0.76562-0.66797-0.14844-1.0391-0.21094-1.0195-0.38672-0.94922-0.089844-1.2109-0.70703-0.78906-0.023438-1.2852-0.26953-0.97656-0.69922-1.1797-0.58984-0.85547-0.24609-1.0312 0.16406-1.0586 0.51562-1.0391 0.67578-0.80859 0.55469-0.95312 0.003906-1.043 0.50781-1.0391 0.003906-1.1484-0.46484-0.97656-0.82422-0.64844-0.50391-0.875-0.82031-0.79688-0.70312-0.83984-1.0547-0.18359-0.94531 0.46094-0.98047-0.32812-0.83203-0.72266-0.66406-0.81641-0.71875-0.74219-1.0195-0.35156-1.0156-0.32031-0.83984-0.69141-0.039062-1.168-0.57812-0.92188-0.37891-1.0859-0.45312-1.0547-1.0938-0.35938-0.71094-0.87109-0.38281-0.99609-0.50391-0.97266-0.48438-0.95703-1.0742-0.99609-1.0195-0.44531-1.0859-0.046875-1.2148-0.11719-1.1133-0.25-0.96094-0.29297-1.1172-0.26562-1.0742-0.41406-1.0625-0.24609-1.2969-0.60547-1.0156-0.40625-1.0469-0.21484-1.2539-0.28516-1.0664 0.31641-1.1133 0.53906-0.97656 0.28906-1.0273-0.074219-1.1133 0.003906-0.96875-0.46484-0.87109-0.75-1.1445-0.34375-1.1758 0.14453-1.0703-0.14844-1.0078-0.60938-1.2383-0.59766-1.0117-0.082031-1.0391 0.23047-1.0859-0.30859-1.3594-0.058594-1.1406 0.33203-1.2773 1.6367-0.6875 0.80859-0.57812 1.6445-0.46875 0.97656-1.1602 0.28516-1.0625-0.17188-1.0547 0.007812-1.2305 1.3555-0.87891 0.60547-1.0234-0.039063-0.65625-0.81641-1.0898 0.027344-0.96094 0.32031-0.79688-0.74219-1.1055 0.37109-1.0195-0.26172-1.0938-0.066407-1.0156 0.35156-0.96484 0.41797-1.0352 0.66016-0.91797-0.56641-0.89062-0.44922-0.3125-0.97266 0.42969-1.1055 0.25-1.0039 0.50781-0.875-0.75781-0.67578-0.78516-0.67969-0.66797-0.91406-0.47266-0.88281-0.91797-0.51953-0.73047-0.94922-0.23438-1.0195 0.61719-0.80859 0.35938-1.4453 0.51562-1.0586 1.1836-0.67578-0.12109-1.1641-0.085938-1.2422 0.73438-0.78516-0.17578-1.0156 0.44531-0.89844 0.45703-1.0312 0.76562-0.68359-0.22266-1.0977-0.96094-0.57812-1.1055-0.09375-0.81641-0.65234-0.94531-0.41016-0.96875 0.43359-0.58203-1.2148-0.62109-0.78906-0.58203-1.0195-0.57031-0.94922-0.17969-0.99609-0.72656-1.1992-0.42578-0.91016-0.64844-0.80078 0.96094-0.68359-0.34375-1.0547-0.11719-1.0586-0.94531-0.67578-0.15625-1.0586-0.56641-1.1094-1.0586-0.0625-1.207-0.054687-1.0469-0.45312-0.99219-0.45703-0.76562-0.81641-1.0117-0.5-0.53516-0.89453-0.92578-0.42969-1.0469-0.95312-0.066406-1.0664-1.0898-0.42969-1.0195-0.023438-0.67578-0.83984-0.49219-0.96094 1.0273-0.63672 1.0039-0.53516 0.90625-0.5625 1.0117-0.62109 0.84375-0.70703 0.60547-0.91797 0.71094-0.75391 0.50781-1.1758-0.21094-1.0312-0.070312-1.1328 0.63672-0.77344 0.90625-0.42578 0.86719-0.5 1.0469 0.1875 0.14844-1.2461-0.56641-0.95703-1.0117 0.035157-1.0195 0.41797-1.0039 0.49609-1.0664 0.45703-1.0977-0.17969-0.86328-0.58594-0.61719-0.91406 0.17578-1.125-0.41406-0.92969-0.83984-0.79688-1.0703 0.097657-1.0078-0.1875-0.875-0.51953 0.046875-1.0195 1.0195-0.25 0.67578-0.96094 0.11719-1.0273-0.66016-1.0859 0.49219-0.90234 0.98438-0.38281 1.1406-0.21484 0.82031 0.57812 1.0977-0.15625 0.875-0.51562 0.77734-0.6875-0.32031-1.0547-0.45312-0.92578-0.42578-0.95312-0.88281-0.58203-1.0898-0.027343-1.0039 0.25391-0.71094-0.89453-1.0078 0.23047-1.0078 0.23438-0.95312-0.49219 0.46094-0.90234-0.57422-0.95703 0.46875-0.91797 0.55859-0.87891-0.14844-1.1172 0.62109-0.8125 0.085937-1.0352 0.042969-1.0078 0.089844-1.0273 0.57031-0.96484 0.074219-1.0039-0.98828 0.23438-1.1172 0.082031-0.49609-0.97656-0.79688-0.625-0.47266-0.99609-0.32812-0.98828-0.44922-0.96094-0.49609-0.94922-0.19922-1.0234-0.89844-0.64453-0.89453-0.50391-0.92188-0.5-0.96094-0.46094-0.80078-0.73828-0.90234 0.47656-0.78516-0.77344-0.70703-0.80859-0.54688-0.89062-0.41797-0.96875-0.5-0.875-1.0117-0.26562-0.32031-0.96484 0.25-1.0625 0.43359-1.0195-0.5-0.94922-0.53906-0.99609-0.39844-1.0391-0.24609-1.1172-0.24219-1.2148 0.082031-1.082-0.64453-0.99609 0.65234-0.86719 0.3125-1.2188 0.13281-1.0352 0.17969-1.125-0.40234-0.93359-0.14844-1.0508-0.15625-1.0234-0.22656-1.0547-0.41797-1.1719-0.77344-0.95703 0.15625-1.1133 0.54688-1.0547-0.015625-1.0117-0.83203-0.96484 1.043-0.35156 0.35547-1.1484 0.96094-0.71484 0.86328-0.51562 1.0586-0.12891 0.98047-0.60547 0.58203-0.83984-0.24219-0.98438-0.83984-0.60547-0.39453-0.94531-0.625-1.0039 0.23047-1.2656 0.48047-0.88281-0.78516-0.79688-0.94141-0.39062-1.0352-0.074219-0.54297-1.0078-0.25391-1.0195-0.57031-0.97656-1.1914-0.33594-0.91016-0.62109-1.0352-0.66016-1.0742-0.48047-1.1836-0.38672-0.86328-1.0117-1.1875-0.59766-0.97266-0.49219-0.84375-0.69141-0.9375-0.67969-0.054687-1.0195-0.21484-1.0508-0.5-1.0195 0.72656-0.91406 0.78516-0.75781 0.11719-1.1289-0.94531-0.33594-0.98047-0.53906-0.73047-0.69141-0.63281-1.0156-0.625-0.86328-0.66016-1.0312-0.40234-1-0.36719-1.1289-0.15625-1.2227-0.45312-1.1719 0.34766-1.0742-0.41016-1.0234 0.097656-1.043-1.1562-1.3789-0.078125-1.0117 0.10156-1.1367 0.90625-0.54297 0.85547-0.82422 0.64844-0.92188-0.25391-1.1602 0.85547-1.0977 1.0625-0.95312 1.0625-0.26953 0.80859-1.0078 0.96094-0.94922-0.85938-1.0859-0.63281-0.82812-0.93359-0.79297-0.4375-0.94141-0.55078-0.95703-0.16797-1.0703-0.5-0.9375-0.36328-1.0625-0.36719-1.0078-0.14844-1.4766-0.66406-0.98438-0.50391-1.0898-0.58203-1.1328-0.78906-1.1094-0.64844-1.0469-0.0625-1.0195 0.89844-0.69922 1.1367-0.11328 1.4883-0.30469 0.92969-0.46094-0.15234-1.0234-0.1875-1.1172-0.14062-1.4609-0.63281-0.91797-0.83203-0.58203-0.20312-1.0195 0.26172-1.3477 0.078125-1.0781 0.41406-0.98828 0.28125-1.043-0.28906-1.0547-0.019532-1.1953-0.23047-1.0352 0.57812-0.90234-0.22656-1.207-0.53516-0.94922 0.36328-1.7031 0.62891-0.91797-0.097656-1.0039 1.9922 1.0781 0.99219 0.47266 0.75 0.82812 0.51953 1.0938 0.83984 0.56641 0.92969 0.39453 1.0234 0.18359 1.0391-0.33203 1.1523-0.52734 0.58984-0.96094 0.94141-0.54688 0.72656-1.1562 0.34375-1.2188 0.1875-1.0703 0.64844-0.82422 0.86328-0.89844 0.74609-0.76953 0.80078-0.61719 0.91797-0.63672 1.1641-0.10547 1.2031 0.042968 1.0469 0.19141 1.1055 0.94141 0.83984 0.92969 0.92578 0.58203 0.80078 0.62109 1.0703-0.085937 1.0312 0.54297 0.74609 0.86328 0.32422 1.1875 0.39062 1.0273 0.82422 0.71094 0.46875 1.1602 0.80469 0.69531 1.3555-0.36719 1.0078 0.30078 1.082 0.52344 0.53125-0.84766 1.0195-0.23047 0.96094 0.53516 1.082-0.28516 1.082 0.23047 1.0391 0.86328 1.0117 0.31641 1.0273-0.26562 1.1992-0.32812 1.0586 0.51562 0.8125 0.88672 0.74609 0.92578 0.76953 0.82031 1.1289 0.21484 1.0117 0.36328 0.8125 0.80469 0.67578 1.1484 0.57812 0.87891 0.91406-0.94141 0.35938-1.3672 1.1016-0.57422 0.98047-0.36328 0.089844-1.3789-0.39453-1.1211-0.81641-0.88281-0.48438-1.1992-0.89844-0.93359-0.23828-1.0547-0.16406-1.125-0.8125-0.91797-1.4609-0.53516-0.80469-1.168-0.57031-1.1641-0.75781-0.88672-0.078125-1.1406-0.17188-1.0625 1.1562 0.046875 1.6758 0.046875 1.0391-0.12109 1.1328 0.19531 1.1992-0.14062 0.54688-1.4648 0.57812-0.85156 0.26172-1.0508 0.27734-1.0391 0.77344-0.875 1.1914-0.058594 0.97656-0.31641 1.332-0.63281 0.60156-1.0352 0.875-0.92969 0.26953-1.3516 0.58203-1.4023 0.57812-0.91016-0.070312-1 0.54297-1.6172 0.21484-1.0391-0.33984-1.0781 0.41406-1.2031 0.46875-1.5508 0.74609-0.96094 0.91016-0.77344 0.96094-0.35156 0.64844-0.87891 0.24609-1.207 0.30469-1.207 0.39062-1.0898 1.1836-0.82031 0.78125-0.80078 0.8125-0.73828 0.91016-0.73047-0.20312-1.2266-0.54688-1.4961 0.36328-0.96875-0.85938-1.0508 0.074218-1.0625-0.20703-1.2773-0.27344-1.0586-0.28906-1.0352-0.10547-1.4336 0.61328-0.89453 1.125-0.12891 1.2422 0.41016 1-0.38281 0.58984 1.2148 1.0195-0.015625 0.90234 0.64062 0.16016 1.0859 0.64062 1.043 0.64453 1.1211 0.51562 0.875 0.89062 1.1484 0.88672 0.46875 1.0898-0.58203 1.2773 0.37891 0.97266 0.51172 1.3477-0.23828 1.0977-0.042969 1.0352 0.24219 1.1523-0.43359 0.24609-0.97656 0.77734-0.71875 0.90234-0.89062 0.17578-1.0391 0.75391-0.80469 0.16016-1.0078 0.77734-1.2188 0.57031-1.043 0.082031-1.4414 0.097656-1.1172-0.19922-1.0352-0.45703-0.98047-0.83203-0.76172-0.875-0.76172-0.6875-0.96094-0.78516-0.92578-0.96094-0.54297-0.85547-0.58594 0.30469-1.1484-0.53906-0.875-1.2266-0.70312-1.043-0.69922-0.82031-0.66797-0.95312-0.71875-0.53125-0.96484-0.64453-0.76953-0.65234-0.76953-0.23438-1.3281-0.43359-1 0.18359-1.1836 0.94141-0.64062 0.99219-0.57812-0.40234-1.4102-0.81641-0.80859-0.36328-1.125-0.86328-0.60547-0.55859-1.2227-0.91797-0.46094-0.68359 0.73438-1 0.14844-0.88281-0.51953-0.72266-0.69531-0.94141-0.51562-1.0508 0.19922-1.1445-0.09375-0.87109 0.51172-1.1133-0.88672-0.92578-0.45703-1.2617 0.007812-0.89844-0.53516-0.875-0.52344-0.94141-0.40234-0.64844-0.89062-1.1562-0.69141-1.1406 0.17188-0.99609 0.10547-0.19922-1.5625-0.50781-1.9922-0.62109-1.082-0.39453-0.9375-0.89844-0.46875-0.98047 0.33203-1.0938 0.60156-0.73828-1.0352-0.0625-1.0977-0.66406-0.86328-0.48438-1.0508-0.33203-1.0195-0.51562-0.9375-1.0742-0.60547-1.2539 0.082031-0.91016-0.42969-0.29688 1.0938-0.074218 1.3828-0.98438 0.30469-0.17969 1.1758-0.98047-0.24219-0.69922-0.75781-0.66797-0.84766-0.79297-1.0664-0.625-0.89453-0.44531-1.0781-0.87891-0.57422-0.48828-0.94141-0.51562-1.1094-0.27344-1.1094-1.2148 0.45703-0.73047 0.74219-0.015625 1.3047-0.39062 1.0508-1.332 0.75391-1.1875 0.33984-0.63672 0.88672-0.80469 1.3633-0.30078 1.0742-1.3828 0.75-0.95703 0.50391-1.1289-0.57031-0.22266-1.0156-1.7266-0.27344-0.52344-0.96875-0.29297-1.1172-0.53906-0.85156-1.2852 0.39844-0.99609-0.16797-0.99609 0.67188-0.99609-0.36328-0.73828-0.97656 0.29297-0.98047 0.26172-1.0195-0.035157-1.082-1.0312-0.40234-1.0938-0.19141-0.95703-0.30078-0.80859 0.58984-1-0.35547-1.2734-0.16016-1.0469-0.38281-0.85547-0.95312-1.0938-0.4375-0.88672-0.84375-0.96094-0.46484-0.56641-1.3789 0.26953-1.1367 0.87109-0.55078 0.79688-0.64844 0.52344-1.0508 0.51562-1.3672-0.51562-1.1523-0.48438-1.1055-0.69141-1.7227-0.46484-1.0859-0.20312-1.1016-0.20703-1.2891-0.97266-0.79688-0.91016-0.74219 0.39844-1.2461 0.33203-1.2266-0.49609-1.1797-0.66406-0.98438-0.94141-0.72656-1.1992 0.023438-1.1406-0.003906-1.3555 0.19531-1.3125 0.20312-1.2188-0.52344-0.85547-0.78906-1.0469-0.33984-0.78125-0.73438-1.1562-0.42188-0.52734-1.3594-0.10938-1.4102-0.30859-1.1562-0.25-1.0117 0.003906-1.2695 0.28125-0.97656 0.85547-0.60547-0.48047-1.1172-0.53125-0.88281-0.62109-0.81641 1.0859-0.66016 0.46484-1.1211 0.29297-0.97266-0.58594-1.6484-0.32422-1.0195-0.91016-0.47656-0.47266-1.0625 0.09375-1.0195-0.0625-1.3203 0.54297-1.0078 0.24609-1.0781 1.5781-1.7539 0.71094-1.3008 0.18359-1.0312-0.074218-1.1094 1.0625-1.3008 1.0742-1.3555 0.27734-1.1836 0.019531-1.3242-0.34375-1.2266-0.74609-1.3555-1.0859-0.78516 0.26953-1.0508-0.17578-1.0078-0.49219-0.92969-0.42188-1.0781-0.5625-0.85938-0.45703-1.0195-0.125-1.1172 0.38672-1.0391 0.49219-0.87891 0.29688-1.0781-0.38281-0.99219-0.89844-0.66016-0.58203-0.91797-0.19922-1.4961 0.0625-1.2031 0.77344-1.0508 1.1055-0.5625 1.0352-0.44141 0.027344-1.2461-0.98828-1.0781-0.88672-0.72266-0.74609-0.80078 0.59375-1.0234 1-0.94531 0.92188-0.80078 0.68359-0.80078 0.27734-1.0156 1.2656 0.24609 1.9023 0.90234 1.5625 0.25391 1.2656-0.35156 1.1055-0.27734z" fill="#0a5394" fill-rule="evenodd"/>
<path d="m50.266 0.67578 0.20312 0.03125 1.0664 0.19531 1.25-0.42188 1.0273-0.14062 0.53516 0.85547 0.76953 1.0742 0.80469 0.66797 1.1797 0.23828 1.0273 0.23438 1.3203 0.84375 0.8125 0.59375 1.9023 0.95703 0.99609 0.29688 0.58594 1.2109 0.73047 0.78125 1.5781 0.25391 1.0352-0.29297 0.91797-1.8594 0.45312-0.90234 0.55078-0.86719 0.83594-0.62891 0.36328-0.94531 0.87891 0.61719 0.56641 0.91406 1.0117 0.39844 0.47656 1.1133 0.84375 0.58203 0.68359 0.93359 1.0078 0.51562 0.76953 0.76953 0.39453 1.1719 0.82422 2.0781 0.31641 1.0156 0.64844 0.85547 0.44922 1.1484-0.035156 1.0625 1.0039 0.60156 0.29297 1.1289-0.69141 0.72266-0.85156 1.0391-0.88281 1.4609 0.45703 0.91016 0.95703 0.36719 0.92969 0.56641 1.1758-0.44531 1.1016-0.33984 1.125 0.48828 0.75 0.84766 0.30469 1.0039-0.046875 1.3203 0.97266 0.58594 1.0938 0.14453 1.2578 0.72266 0.97656-0.29688 0.55078-0.84766 0.83203 0.64844 1.1758 0.29688 1.0156-0.058594 0.40625-1.3945 0.62109-0.94141 1.2656-0.32031 1.3945-0.09375 1.0039-0.21094 1 0.074219 0.20703 1.0352 0.77344 0.66797 1.0312 0.11719 1.1836 0.70312 0.97656 1.3984 0.5 1.0703 1.418-0.41016 1.2227-0.011719 1.125 0.28906 0.97656 0.26172 1.0273 0.074219h1.2461l1.0352-0.34766 1.0117-0.003906 0.48047 1.2461 1.1328 0.44922 0.98438-0.42578 0.70312-0.99219 0.70312-0.72656 1.0508 0.44141 0.90234-0.65625 1.0156 0.78125 0.80078 1.1953 0.90625 0.50391 0.63672 0.79688 0.96094 0.625 0.35156 1.1211 1.25 0.33594 1.2969 0.43359 1.2656 0.60547 0.97656-1.0547 1.125-0.6875 0.80859-0.80078 1.0742 0.19141 1.0391 0.078125 0.89844 0.60938 0.20703 1.0391-0.015625 1.0117 1.1523 0.52734 1.2148 0.28906 1.0117-0.17578 1.4102 0.40625 1.3125 0.40234 1.3008 0.39062 1.0195 0.51172 1.1914 0.71484 1.2266 0.375 0.94922-0.54297 1.2969-0.21875 1.3086 0.41016 1.2383-0.20312 1.0898 0.25 1.0312 0.41016 1.0586 0.26562 0.89062-0.62891 1.1289 0.21484 0.26172 1.2656 0.81641 0.66016 0.48828 1.2188 0.99609 0.64844 0.78125 0.89062 1.1719 0.6875 1.4805 0.58594 1.8594 0.33984 1.1523 0.23438 0.71875 0.73828 0.94141 0.42188 0.90234 0.71875 0.98828 1.1641 0.81641 0.75781 0.99219 0.29688 0.51172 1.0156 1.5195 0.042969 0.84766-0.58203 1.1797-0.011719 0.95703-0.375 1.2266 0.17188 1.0742 0.14062 1.1133 0.19141 0.95703 0.48828 0.85547 1.0039 0.60156 0.87891-0.38281 1.1289-0.35938 1.0977 0.42578 1.3555 0.15234 1.0234 0.53516 1.0508 0.50781 1.1172-0.078125 1.1758-1.0664 0.51562 0.22266 1.1523 0.58594 0.91406 0.30859 0.95312-0.0625 1.3398-0.25391 1.0469 0.24219 1.0391 1.0312 0.83984 1.1602 1.3164 0.79688 0.85547 0.875 0.60938 0.50781 1.1328 1.1211 0.71875 0.72266 0.82031 0.22266 0.98438-0.11328 1.0117 0.78516 1.0859 0.49219 1.6133 0.039062 1.0273 0.63281 0.84375 1.3555-0.023437 1.0195 0.89453v1.3945l0.14453 1.2227-0.17969 1.0156-0.77344 0.92188-0.34766 0.96094 0.023437 1.0117 0.99219 0.77344 1.707 0.089844 1.4492 0.62891 0.98828 0.5625 1.0195 0.17578 1.0664-0.125 0.98828-0.25391 1.8438 0.19141 1.2461-0.046875 1.1406 0.011719 0.83594-0.57422 1.3164-0.5 1.207 0.19922 0.92188-0.47656 1.4141 0.23438 1.1953 0.57422 0.71094 0.89453 1.0117 0.050781 0.94922 0.35938 1.0312-0.27734 1.0117 0.097656 1.9531 0.61719 1.293 0.3125 1.1602 0.17969 1.1328-0.027343 0.99609-0.32422 1.0039-0.35547 0.92969-0.50391 1.0508-0.5625 0.66797-0.86328 1.0508 0.007812 1.0391-0.22656 0.91406-0.51172 1.1055-1.1523 0.91406-0.51953 2.9609-1.5352 1.5859-0.76172 0.92578-0.45312 1.6445-0.80469 2.7578-1.5234 1.2344-0.60547 1.8047 0.44141 1.957 1.207 2.0508 1.75 1.5586 2.0703 0.53906 1.1328 0.54688 1.1562 0.4375 0.91016 0.55469 1.1562 1.1133 2.1562 1.0273 0.51172 0.046875 1.1172 2.1055 1.0625 0.51953 0.88672-0.63672 2.5312 0.20703 1.8438 2.1797 1.9922 1.7539 0.41406 1.7617 0.24609 1.4648 0.41016 2.168 3.4258 0.94531 1.1797 1.4961 2.0938 2.168 2.0078 2.2422 0.46094 3.3828 0.52734 4.4844 0.66016 2.9023 0.042968 1.1797-0.12109 2.293-1.1172 3.1406-1.9141 2.1602-1.9453 2.793-2.6289 0.83984-0.86719 2.7734-2.8672 1.2148-0.44141 2.4531-0.49609 1.0469-0.10938 1.0312-0.12109 1.8828-0.050781 1.6836 0.35156 1.2188 0.83203 1.4219 1.6719 0.96094 1.3672 0.89844 1.3438 0.76172 0.84375 1.1562 0.65625 1.2148 0.34375 1.3906-0.72656 1.4688-0.14453 1.1445 0.050782 1.0469 0.078125 1.2734 0.33984 1.4531 0.32812 1.3867 0.09375 2.0664-0.12109 1.5898-0.85547 0.5625-0.84375 0.81641-1.4023 0.28906-1.2969 0.55078-1.5117 0.91406 0.44922 1.0078-0.070312 0.89844 0.47656 0.375 0.97266 0.71484 0.77344 0.76172 0.70312 0.88672-0.57812 0.65234 0.77734 0.70703 0.75-0.16797 1.0078-0.85156 0.58594 0.48828 0.99609 1.0586-0.17578 0.91797-0.69922 0.78125 0.70703 0.97656-0.28906 0.96484-0.32422 0.96094 0.34375 0.99219-0.21484 0.90234-0.51953 0.95703-0.36328 0.23438-1.0234 0.67578-0.8125 0.54297-0.84375 0.69141-0.73047 0.98828-0.28516 0.79688-0.70703 0.32812-0.95703 0.68359-0.76953 0.99219-0.14844 0.95312 0.48438 1.0078 0.046875 1.0352 0.03125 0.8125-0.60938 0.89062-0.58203 0.97266-0.37109 0.76953-0.65234 0.21875-0.99219 0.22266-0.98438 0.19922-3.4375 0.058594-1.0195 0.55078-1.4727 1.0547-0.90234 1.0078-0.57422 1.4609-0.59375 1.0742-0.28125 0.96484-0.3125 1.793-1.0742 0.89453 3.1758 2.1055 3.8633 0.47656 0.99219 2.1641 5.457 0.50391 3.9102 0.054687 1.7539v1.3086l0.11719 1.6094 0.20703 1.2109 0.58203 0.83594 1.1523 0.92578 2.4648 1.7266 1.1953 1.2227 0.43359 1.3672-0.050781 1.3398 0.046875 1.8984 0.042969 1.8438-0.050782 2.4023-0.44531 1.8789-0.44922 1.0195-0.44141 1.0391-0.67969 0.89062-0.63672 1.0039-0.59766 0.94141-0.73047 0.71484-1.0625 0.80078-0.99219 0.74609-0.78516 0.78516-0.65625 1-0.57422 0.89453-0.46484 0.97266-0.53906 0.92969 0.46875 1.8555 0.16406 1.1328 0.26562 1.1367 0.046875 1.1289 0.38672 1 0.25391 1-0.53906 1-0.015625 1.0898 0.87109 0.59375 0.12891 0.99219-0.058594 1.1328-0.53125 0.94531 0.89453 0.46094 0.49219 1.0898 0.44531 0.93359 0.30469 1.125 0.60938 1.1914-0.50781 0.89844 0.53906 0.85156 0.78125 0.64453 0.67188 0.90234 0.058594 1.0977-0.13281 1.4258 0.20312 1.3555 0.074219 1.2891 0.11328 1.0352 0.34375 1.0273 0.33203 1.125 0.050782 1.5664-0.17578 1.2773-0.26953 0.97266-0.29297 0.98828-0.050781 1.4414 0.089844 1.2305 0.54297 2.7109 0.12109 1.1211 0.23438 1.25 0.14844 1.0195 0.10156 1.3008-0.082031 1.2031-0.16797 1.7734-0.11719 1.1602-0.49219 2.043-0.035156 1.043 0.10938 2.6797 0.066406 1.4844 0.15234 1.1992 0.32812 1.4961 0.10156 1.3984 0.035156 1.457-0.35938 1.1133-0.55469 1.1094-0.69922 1.0859-0.98438 0.55859-0.98047 0.35156-1.1992 0.33203-1.0039 0.40234-0.94141 0.42188-1.5039 0.17969-1.0117 0.38281-1.0664 0.48047-0.22656 1.0273-0.51953 0.98047-1.1211 0.046875-0.82031 0.63281-0.5625 0.86328-1.0391 0.46875-0.95312 0.44922-0.98047 0.41406-1.0039-0.066406-0.92578 0.44141-1.0664 0.10156-0.71484-0.99609-0.46094-0.89844-0.011719-1.0898-0.097656-1.0039-0.98438 0.49219-1.0391-0.13281-0.92969 0.49219-0.79688 0.60547-0.39453 1.0859-0.30859 0.97656-0.44922 0.91797h-1.0195l-0.78125 0.74219-0.36328 1.0273-0.34375 1.0156-0.91797 0.54688-0.98828-0.53125-0.63672-0.80469-0.98438-0.28906-0.6875-0.73828-0.99609-0.18359-1.0664-0.17969-0.84375 0.63672-0.97266-0.26562-1.0195 0.21484-0.9375-0.41406-0.98828 0.28516-1.0039-0.46875-0.97656-0.32031-0.26953-1.0195-0.63672-0.85156-0.94922-0.67578 0.21094-1.0391-1.0391-0.042969-1.0469 0.050782-0.97266 0.28516-0.12891-1.0859-0.78906-0.63672-0.96094-0.42969-0.69922-0.82422-0.81641-0.71875-0.97266-0.28125-1.0156-0.17578-1.0781 0.41797-1-0.16406-0.99219-0.16406-0.83203 0.59766-0.87109-0.625-1.0312 0.015625-0.97656-0.41797-1.0586-0.089843-1.0391-0.039063-0.90234-0.51172-1.0195 0.16406-1.0234 0.21094-1.0273-0.24219-0.91016 0.5-0.95312-0.41016-1.0117-0.16406-0.98047-0.35938-1.2031 0.51953-0.67969 0.82422-0.92969-0.45312-1.0664 0.10156-0.97266 0.42188-0.9375-0.38281-0.9375 0.45703-0.33984 0.96484-1.0547 0.082031-1.1055-0.089843-1.0234 0.45703-1.0039-0.054688-1.043 0.30859-0.80078 0.79297 0.21484 1.1445 0.23828 1.0352 0.87109 1.1953 0.68359 0.92969 0.47266 1.043-0.042968 1.2695 0.39844 1.0625 0.91797 0.72656 0.875 0.99609 0.69141 0.85547 0.75781 0.76953-0.41406 0.98047-0.52344 0.86719 0.3125 1.1172-0.77734 0.83594-1.1328 0.27344-0.92578 0.42578-1.0859 0.28125-0.96484 0.5625-0.44141 1.0039-0.097657 1.293 0.46484 1.3945 0.28516 1.0273 0.41016 1.3477 0.625 0.95312 0.003906 1.2227 0.64453 0.79297 0.27734 1.0117 1.5-0.71094 1.0078 0.57031 0.88281 0.49219 0.36328 1.0977-0.078125 1.1094 0.26172 1.2695 0.10547 1.0781-0.55859 0.83203-0.10547 1.0156-0.10938 1.0547-0.32812 0.99609 0.019531 1.0938-0.125 1.125 0.40625 0.98438-0.48047 1.1328-0.45312 1.125-0.55078 1.0234 0.17188 1.0781-0.34766 1.0547-1.1016 0.16406-1.1172 0.25391-1.0195 0.57812-0.51172 1.1289-0.39844 1.1758-0.33984 1.0625-0.375 1.0156-0.44531 0.96484-0.48047 0.92578-0.97266 0.58594-0.875 0.80859-0.97266 0.52734-0.875 0.51562-1.2148 0.36719-1.0352 0.42969-1.1367-0.25-1.082 0.67578-1.0156 0.66406-0.84766 0.57031-0.98828 0.60938-0.89844 0.53125-0.15625 1.168-0.73438 1.5938-0.89062 0.60938 0.023438 1.0039-0.32031 1.293-0.54688 1.2969-0.40234 0.97266-0.34766 0.94141-0.59766 0.84766-0.80859 0.70312-0.88672 0.69922-1.0117 0.40625-0.58203 0.8125-0.47266 1.1016-0.73047 0.73047-0.99609 0.52734-0.74609 0.78906 0.34766 1.2617 0.78516 0.92578 0.80859 1.0195 0.1875 1.3242-0.40625 1.0781-0.23047 1.3086-0.27734 0.99609-0.47656 1.043-0.30469 0.96875-0.09375 1.0547-0.55859 1.1523-0.14844 1.1367 0.11719 1.0703 0.44922 1.1016 0.60938 0.96875 0.41406 1.0234 0.25391 0.97656 0.87891 1.1172 0.70312 1.0391 0.24219 1.1562 0.48828 1.2266 0.82812 0.78516 0.49609 1.0508 0.78125 1.1445 0.71875 1.1641 0.89844 0.63281 0.80078 0.62891 1.1445 0.11328 1.0312 0.62891 0.56641 1.0859 0.67188 1.0898 0.88672 0.48047 1 1.2344 0.36719 1.2188-0.046875 1.582 0.19922 1.3789 1.0078 0.21484 1.457-0.33594 1.1445-0.042969 0.51172 0.86328 0.10547 1.4727 0.71875 0.78125 0.4375 1.0312-0.50391 0.95312-0.070313 1.0547-0.66797 0.84766 0.12891 1.0391 0.67188 0.78906 0.12109 1.082-0.48438 1.0625-1.1406 0.68359-0.89844 0.70703-0.39062 1.2109 0.25 1.3086 0.19141 1.082 0.035156 1.0625-0.015625 1.0352-0.011718 1.0234-0.050782 1.1836-0.5625 0.91016 0.12891 1.0195 0.24219 1.0469 0.26953 0.98438 1.1406 0.41797 0.64453 1.0156-0.03125 1.043 0.085937 1.2266 0.058594 1.0703 0.33984 0.96484 0.97656 0.30859 1.0273 0.51562 0.84766 0.72656 0.23438 0.99219 0.30078 1.0039 1.0781 0.14453 0.99609 0.31641 0.66016 0.94141 0.30469 1.0234 0.16797 1.1016 0.40234 1.0117 0.77734 0.94922 0.71484 0.86719 0.5625 0.87109 0.125 1.0898 0.74219 0.67188 0.85938 0.76562 0.19531 1.0859 0.63281 1.4375-0.20703 0.98047-0.26562 1 0.45312 0.99219 1.0703 0.10547 1.0859-0.085937 0.76172 0.73047 1.0781 1.3945-0.1875 1.0938-0.97656 0.36719 0.050782 1.0781-0.1875 1.1055 0.015625 1.0859-0.85938 0.60547-0.054688 1.1289 0.45312 0.91406 0.94141 0.41016 1.0078 0.046875 1 0.054688 1.0898-0.13672 0.55469-0.91406 0.91016-0.67969 1.1211-0.011719 1.0781-0.085937 0.78125 0.64062 0.66406 0.77344 0.76562-0.69141 0.53516-0.85547 0.97656-0.37109 0.98047-0.64453 0.97656-0.33984 0.98828-0.47656 1.125-0.039063 0.89453-0.47266 1.0703-0.60938 1.0352-0.36719 0.95312-0.32422 0.63281 1.0977 0.51953 1.0117 0.49609 0.98047 0.88281 0.74609 0.21875 1.0273 0.074219 1.1016 0.35156 0.9375 0.87891 0.71484-0.38281 1.0586-0.29297 1.1992-0.26953 1.0664-0.47266 0.91406-0.16406 1.0859-0.19141 1.1992-0.003906 1.6445-0.039063 1.0039-0.30078 1.0508 0.078125 1.0859-0.16406 1.1914-1.0625 0.039063-0.62891 0.78906-0.74219 0.73828-1.1758-0.12891-1.1289-0.027343-0.87109 0.54297-0.99609 0.24609-1.0195-0.23047-1.1172-0.066406-1.1758 0.20312-1.1914 0.046875-1.0508 0.71094-0.12109 1.1172-0.73438 0.72266-0.98047 0.4375-0.94141 0.61328-0.86328 0.55859 0.78125 0.63672 0.85938 0.71484-0.1875 0.99609 0.69141 0.76562 0.14453 1.0391 0.30469 1.0742-0.28906 1.0273 0.30469 1.0469-0.17969 1.1367-0.22656 1.125-0.25781 1.043-0.33984 1.0078 0.12891 1.3086 0.44531 0.90625 0.47656 1.1328 1.0703 0.48438-0.12109 1.0781 0.5625 1.0078-0.13281 1.0117 0.11719 1.0625 0.40234 1.0078 0.58203 1.1406 0.58984 1.0352-0.55859 0.83203 0.19922 1.0977 0.011718 1.1602-0.042968 1.2539-0.54688 0.83984-0.23047 1.2305-0.6875 0.8125-1.1055 0.72656-1.1406 0.25781-0.82031 0.69531-1.0898-0.19922-1.0938-0.14453-1.0625 0.47266-1.168 0.29297-1.1719 0.39453-1.1367-0.15625-0.75391-0.70312-0.77734 0.63672-1.043 0.41406-0.97656 0.26172-1.0977-0.21094-0.63672 0.77734-1.0039 0.019532-0.94531 0.78906-0.13672 1.0039-1.0195-0.36719-0.53906-1.0742-1.1641-0.15234-0.91016 0.73828-0.96094 0.60938-1.0469-0.3125-1-0.10156-0.65625 0.98828-0.51953 1.0234-0.19141 1.0117-0.16797 1.1914-0.61719 0.8125-0.71484 1.0117-0.78125 0.64844 0.17969 1.1172 0.41797 1.1523-0.36719 1.0469 0.26562 1.3398-0.71875 1.1797-0.68359 0.96484-0.019531 1.0078 0.19531 1-0.82812 0.79688-0.57031 0.89453-0.25781 1.0547-0.36719 1.0391 0.058594 1.0273 0.058593 1.1406 0.14453 1.0273 0.39062 1.043-0.12109 1.125 0.089844 1.1211-0.13672 1.0391-0.24609 1.0234 0.13281 1.0273 0.10547 1.2227-0.082031 1.125-0.34766 1.0352-0.30859 0.96484-0.23438 1.0391 0.1875 1.0195 0.78516 0.71875 0.48828 0.91016 0.16797 1.043-0.21094 1.207 0.48047 0.87891-0.30859 1.0039 0.1875 1.0625 0.26562 0.98828 0.33984 0.99219 0.91406 0.46875 0.61328 0.83203-0.26562 1.0078-0.79688 0.62891-0.98828-0.36719-0.9375 0.41797-0.35938 0.96484-0.93359 0.39453-0.23828 0.97266-0.32422 1.1875-0.59375 0.81641-0.20703 1.125-0.20312 1.0625-0.33594 0.94531 0.45312 0.90625-0.67188 0.78125-0.31641 1.0547-0.42188 1.0078-1.0117-0.19141-0.16016 1.0859 0.042969 1.0938-0.20703 1.0117-0.93359 0.69141-1.0469 0.046875-1.1406 0.37891-0.97266-0.26953-0.86719 0.58594-0.12109 0.99609-0.71094 0.74609-1.0859-0.18359-0.30859 1.0625-0.35156 1.0039-0.95703 0.45312-0.9375 0.77344-0.9375-0.39844 0.23828-1.1211 0.26953-1.043-0.69141-0.84766-0.53125-0.93359 1.0352-0.45312-0.65625-0.96094-0.91797-0.625 0.97656-0.26172 1.1523-0.30078-0.22266-1.0078-0.77734-0.75391-0.62891-0.78516-0.10938-1.0938-0.47266-0.92188-0.82812-0.71875-0.96875-0.4375 0.19922-1.0977 0.16016-1.0703-0.5-0.95312-0.9375 0.35938-0.50781-0.91797 0.9375-0.40234 1.0195 0.625 1.0586-0.070312-0.15234-1.0156-0.29297-1.0508-0.39453-0.95703-1.3516-1.1055-0.94141-0.74609 0.16797-1.082 0.65234-0.80469-0.69141-0.89062-0.21094-1.1836 0.88281-0.92969-0.28906-1.0898-1.1445-0.79297 0.30859-1.1055-0.64453-0.85938-1.0312-0.54688-0.37891-0.9375 0.87109-0.75781-0.86328-1.1562-1.0312-0.097656-1.082 0.71094-0.20703-1.1758-0.10547-1.1367-0.60156-0.90234-0.99219-0.85938-0.26953-1.1367-0.1875-0.98828-0.89844-0.71875-0.28125-1.1094 0.375-0.95703 0.90234-0.90234 0.23438-1.1133-0.92578-0.53906-0.80078-1.1602-0.45312-1.2188 0.62109-0.89062-0.03125-1.1367-0.72656-0.85156 0.074219-1.0312-0.64062-1.0391 0.035156-1.1445-0.12891-1.1758-0.97266-0.83984-1.0625 0.023438-1 0.070312-0.92969-0.85938-0.60547-0.89844-1.0859-0.38281-0.60938 1.2539-0.78516 0.72656-1.082 0.21484-1.2852 1.1758-0.88672 0.6875-1.0352 0.41016-1.0195 0.32031-0.70312 1.082-0.69141 1.3008-0.65625 0.95312-0.80078 0.66406-0.25 1.082-0.38281 1.0938-0.58594 1.1367-0.097657 1.0547-0.32422 0.98828-0.32031 1.168-0.625 1.1523-0.42969 0.98828 0.054687 1.168-0.375 1.1289-0.82031 1.1523-0.51953 1.0156 0.34766 1.1641-1.0273 0.58984-1.0312 0.10938-1.1602 0.26562-1.1562 0.21875-0.097657-1.043-0.23047-1.2227 0.58594-1.082-0.66797-0.89844-0.5-0.94531-0.71484-0.72656-1.0273-0.12109-0.82812-0.71484-0.72656-0.70703-0.79688-0.74219-0.76953-0.66016-0.86328-0.53906-0.45703-0.92969-0.22656-1.0039-1.0039 0.097656-0.85156 0.55078-0.92578 0.41797-0.95312 0.34766-1.1055-0.17188-0.96094 0.41797-1.0078-0.19922-0.97266 0.32812-1.0234 0.18359-1.0156-0.18359-0.99219 0.28516-1.0469-0.035157-1.0156 0.35938-0.98828 0.61719-0.87891 0.66016-0.98047-0.37109-1.0078 0.26562-0.98438 0.41016-0.94922-0.59766-1.0391-0.027343-0.45703 1.0039-0.92969 0.39062-1.0312 0.13672-1.3242-0.12891-0.97266-0.4375-0.76562-0.75-0.875-0.6875-0.93359-0.48828-0.97266 0.64844-0.88281 0.76953-1.0938-0.54688-1.0273-0.10938-1.0117 0.66406-1 0.29297-0.90234-0.60938-1.043 0.15625-1 0.070313-0.71484-1.2461-0.75391-0.72266-1.0195 0.042968-1.0742 0.59375-1.1602 0.41016-1.0273-0.23828-0.94922 0.38281-0.80469 0.66797-0.44141 0.94922-0.42578 0.97656-0.10938 1.1875-0.80859 0.91016-1.0156 0.17969-0.60547 0.92188-0.078125 1.0273-1.0547-0.16016-0.58984-0.85938-1.0156 0.097656-0.81641-0.60156-0.76172 0.73828-0.47266 1.0859-1.0391-0.20703-1.1406 0.375-1.2695 0.26562-1.1289-0.16797-1.1094-0.28516-0.94531-1.1523 0.097656-1.0703-0.94531-0.42578-1.1289-0.54688-0.62109 0.82812-0.96875 0.60156-0.83594 0.80078-1.082-0.019532-0.96094-0.35547-1.2266-0.24219-1.375-1.3984-0.92188-0.79688-1.0938-0.23438-1.1016 0.45703-1.0039-0.28125-0.85938 0.94531-0.58984 0.86719-1.0391 0.042969-1.1367-0.44141-0.66797-0.96094-0.32031-0.98438-1.0039-0.23828-1.0703-0.23047 0.027344-1.0391-1.1328-0.15625-0.75-0.66406-0.48047-1.0273 0.89062-0.68359 0.042969-1.0742 0.75-0.82422-0.027344-1.0469-0.91406-0.76562-1.1445 0.125-0.97656 0.39062-0.63672-0.82031-1.0391-0.27344-1-0.24219-0.89453 0.67969-1.3086-0.25391-1.0977-0.67188 0.37891-1.0312 0.53125-1.043 0.51953-1.1602 0.11719-1.0312-0.41797-1.25 0.94922 0.5625 0.97266 0.52734 1.1719-0.09375 1.1016-0.25391 0.30078-1.0352 1.0781-0.35938 0.35938-0.94922 0.28125-1.0273 0.47266-1.0078 0.14844-1.0508 1.0352-0.4375 1.0547-0.085938 0.37109-0.92969 1.2344-0.011719 0.92578 0.47266 1.0938 0.28516 1.0977 0.21484 1.0469-0.019531 1.0938-0.76562 0.87109-0.55469 0.92969-0.65625 1.1836-0.79297 0.86719-0.51172 0.80078 0.80469 0.3125 0.99609 1.1094-0.13281 1.0312 0.17969 0.9375-0.49219-0.23438-0.98047-0.089844-1.0547 0.73047-0.82422 0.98828-0.14844 1.0664 0.1875 1.0039 0.050781 0.54297-0.97266 0.4375-0.99609 1.1445 0.15625 1.0273-0.18359 0.125-1.0391-0.65234-0.76172 0.45312-1.0508 0.8125-0.72656 0.71094-0.75 0.49609-0.96094 0.17188-1.3203 0.55078-0.85547 0.13281-1.0078-0.375-0.97266 0.49219-0.89453 0.76562-0.66797-0.14844-1.0391-0.21094-1.0195-0.38672-0.94922-0.089844-1.2109-0.70703-0.78906-0.023438-1.2852-0.26953-0.97656-0.69922-1.1797-0.58984-0.85547-0.24609-1.0312 0.16406-1.0586 0.51562-1.0391 0.67578-0.80859 0.55469-0.95312 0.003906-1.043 0.50781-1.0391 0.003906-1.1484-0.46484-0.97656-0.82422-0.64844-0.50391-0.875-0.82031-0.79688-0.70312-0.83984-1.0547-0.18359-0.94531 0.46094-0.98047-0.32812-0.83203-0.72266-0.66406-0.81641-0.71875-0.74219-1.0195-0.35156-1.0156-0.32031-0.83984-0.69141-0.039062-1.168-0.57812-0.92188-0.37891-1.0859-0.45312-1.0547-1.0938-0.35938-0.71094-0.87109-0.38281-0.99609-0.50391-0.97266-0.48438-0.95703-1.0742-0.99609-1.0195-0.44531-1.0859-0.046875-1.2148-0.11719-1.1133-0.25-0.96094-0.29297-1.1172-0.26562-1.0742-0.41406-1.0625-0.24609-1.2969-0.60547-1.0156-0.40625-1.0469-0.21484-1.2539-0.28516-1.0664 0.31641-1.1133 0.53906-0.97656 0.28906-1.0273-0.074219-1.1133 0.003906-0.96875-0.46484-0.87109-0.75-1.1445-0.34375-1.1758 0.14453-1.0703-0.14844-1.0078-0.60938-1.2383-0.59766-1.0117-0.082031-1.0391 0.23047-1.0859-0.30859-1.3594-0.058594-1.1406 0.33203-1.2773 1.6367-0.6875 0.80859-0.57812 1.6445-0.46875 0.97656-1.1602 0.28516-1.0625-0.17188-1.0547 0.007812-1.2305 1.3555-0.87891 0.60547-1.0234-0.039063-0.65625-0.81641-1.0898 0.027344-0.96094 0.32031-0.79688-0.74219-1.1055 0.37109-1.0195-0.26172-1.0938-0.066407-1.0156 0.35156-0.96484 0.41797-1.0352 0.66016-0.91797-0.56641-0.89062-0.44922-0.3125-0.97266 0.42969-1.1055 0.25-1.0039 0.50781-0.875-0.75781-0.67578-0.78516-0.67969-0.66797-0.91406-0.47266-0.88281-0.91797-0.51953-0.73047-0.94922-0.23438-1.0195 0.61719-0.80859 0.35938-1.4453 0.51562-1.0586 1.1836-0.67578-0.12109-1.1641-0.085938-1.2422 0.73438-0.78516-0.17578-1.0156 0.44531-0.89844 0.45703-1.0312 0.76562-0.68359-0.22266-1.0977-0.96094-0.57812-1.1055-0.09375-0.81641-0.65234-0.94531-0.41016-0.96875 0.43359-0.58203-1.2148-0.62109-0.78906-0.58203-1.0195-0.57031-0.94922-0.17969-0.99609-0.72656-1.1992-0.42578-0.91016-0.64844-0.80078 0.96094-0.68359-0.34375-1.0547-0.11719-1.0586-0.94531-0.67578-0.15625-1.0586-0.56641-1.1094-1.0586-0.0625-1.207-0.054687-1.0469-0.45312-0.99219-0.45703-0.76562-0.81641-1.0117-0.5-0.53516-0.89453-0.92578-0.42969-1.0469-0.95312-0.066406-1.0664-1.0898-0.42969-1.0195-0.023438-0.67578-0.83984-0.49219-0.96094 1.0273-0.63672 1.0039-0.53516 0.90625-0.5625 1.0117-0.62109 0.84375-0.70703 0.60547-0.91797 0.71094-0.75391 0.50781-1.1758-0.21094-1.0312-0.070312-1.1328 0.63672-0.77344 0.90625-0.42578 0.86719-0.5 1.0469 0.1875 0.14844-1.2461-0.56641-0.95703-1.0117 0.035157-1.0195 0.41797-1.0039 0.49609-1.0664 0.45703-1.0977-0.17969-0.86328-0.58594-0.61719-0.91406 0.17578-1.125-0.41406-0.92969-0.83984-0.79688-1.0703 0.097657-1.0078-0.1875-0.875-0.51953 0.046875-1.0195 1.0195-0.25 0.67578-0.96094 0.11719-1.0273-0.66016-1.0859 0.49219-0.90234 0.98438-0.38281 1.1406-0.21484 0.82031 0.57812 1.0977-0.15625 0.875-0.51562 0.77734-0.6875-0.32031-1.0547-0.45312-0.92578-0.42578-0.95312-0.88281-0.58203-1.0898-0.027343-1.0039 0.25391-0.71094-0.89453-1.0078 0.23047-1.0078 0.23438-0.95312-0.49219 0.46094-0.90234-0.57422-0.95703 0.46875-0.91797 0.55859-0.87891-0.14844-1.1172 0.62109-0.8125 0.085937-1.0352 0.042969-1.0078 0.089844-1.0273 0.57031-0.96484 0.074219-1.0039-0.98828 0.23438-1.1172 0.082031-0.49609-0.97656-0.79688-0.625-0.47266-0.99609-0.32812-0.98828-0.44922-0.96094-0.49609-0.94922-0.19922-1.0234-0.89844-0.64453-0.89453-0.50391-0.92188-0.5-0.96094-0.46094-0.80078-0.73828-0.90234 0.47656-0.78516-0.77344-0.70703-0.80859-0.54688-0.89062-0.41797-0.96875-0.5-0.875-1.0117-0.26562-0.32031-0.96484 0.25-1.0625 0.43359-1.0195-0.5-0.94922-0.53906-0.99609-0.39844-1.0391-0.24609-1.1172-0.24219-1.2148 0.082031-1.082-0.64453-0.99609 0.65234-0.86719 0.3125-1.2188 0.13281-1.0352 0.17969-1.125-0.40234-0.93359-0.14844-1.0508-0.15625-1.0234-0.22656-1.0547-0.41797-1.1719-0.77344-0.95703 0.15625-1.1133 0.54688-1.0547-0.015625-1.0117-0.83203-0.96484 1.043-0.35156 0.35547-1.1484 0.96094-0.71484 0.86328-0.51562 1.0586-0.12891 0.98047-0.60547 0.58203-0.83984-0.24219-0.98438-0.83984-0.60547-0.39453-0.94531-0.625-1.0039 0.23047-1.2656 0.48047-0.88281-0.78516-0.79688-0.94141-0.39062-1.0352-0.074219-0.54297-1.0078-0.25391-1.0195-0.57031-0.97656-1.1914-0.33594-0.91016-0.62109-1.0352-0.66016-1.0742-0.48047-1.1836-0.38672-0.86328-1.0117-1.1875-0.59766-0.97266-0.49219-0.84375-0.69141-0.9375-0.67969-0.054687-1.0195-0.21484-1.0508-0.5-1.0195 0.72656-0.91406 0.78516-0.75781 0.11719-1.1289-0.94531-0.33594-0.98047-0.53906-0.73047-0.69141-0.63281-1.0156-0.625-0.86328-0.66016-1.0312-0.40234-1-0.36719-1.1289-0.15625-1.2227-0.45312-1.1719 0.34766-1.0742-0.41016-1.0234 0.097656-1.043-1.1562-1.3789-0.078125-1.0117 0.10156-1.1367 0.90625-0.54297 0.85547-0.82422 0.64844-0.92188-0.25391-1.1602 0.85547-1.0977 1.0625-0.95312 1.0625-0.26953 0.80859-1.0078 0.96094-0.94922-0.85938-1.0859-0.63281-0.82812-0.93359-0.79297-0.4375-0.94141-0.55078-0.95703-0.16797-1.0703-0.5-0.9375-0.36328-1.0625-0.36719-1.0078-0.14844-1.4766-0.66406-0.98438-0.50391-1.0898-0.58203-1.1328-0.78906-1.1094-0.64844-1.0469-0.0625-1.0195 0.89844-0.69922 1.1367-0.11328 1.4883-0.30469 0.92969-0.46094-0.15234-1.0234-0.1875-1.1172-0.14062-1.4609-0.63281-0.91797-0.83203-0.58203-0.20312-1.0195 0.26172-1.3477 0.078125-1.0781 0.41406-0.98828 0.28125-1.043-0.28906-1.0547-0.019532-1.1953-0.23047-1.0352 0.57812-0.90234-0.22656-1.207-0.53516-0.94922 0.36328-1.7031 0.62891-0.91797-0.097656-1.0039 1.9922 1.0781 0.99219 0.47266 0.75 0.82812 0.51953 1.0938 0.83984 0.56641 0.92969 0.39453 1.0234 0.18359 1.0391-0.33203 1.1523-0.52734 0.58984-0.96094 0.94141-0.54688 0.72656-1.1562 0.34375-1.2188 0.1875-1.0703 0.64844-0.82422 0.86328-0.89844 0.74609-0.76953 0.80078-0.61719 0.91797-0.63672 1.1641-0.10547 1.2031 0.042968 1.0469 0.19141 1.1055 0.94141 0.83984 0.92969 0.92578 0.58203 0.80078 0.62109 1.0703-0.085937 1.0312 0.54297 0.74609 0.86328 0.32422 1.1875 0.39062 1.0273 0.82422 0.71094 0.46875 1.1602 0.80469 0.69531 1.3555-0.36719 1.0078 0.30078 1.082 0.52344 0.53125-0.84766 1.0195-0.23047 0.96094 0.53516 1.082-0.28516 1.082 0.23047 1.0391 0.86328 1.0117 0.31641 1.0273-0.26562 1.1992-0.32812 1.0586 0.51562 0.8125 0.88672 0.74609 0.92578 0.76953 0.82031 1.1289 0.21484 1.0117 0.36328 0.8125 0.80469 0.67578 1.1484 0.57812 0.87891 0.91406-0.94141 0.35938-1.3672 1.1016-0.57422 0.98047-0.36328 0.089844-1.3789-0.39453-1.1211-0.81641-0.88281-0.48438-1.1992-0.89844-0.93359-0.23828-1.0547-0.16406-1.125-0.8125-0.91797-1.4609-0.53516-0.80469-1.168-0.57031-1.1641-0.75781-0.88672-0.078125-1.1406-0.17188-1.0625 1.1562 0.046875 1.6758 0.046875 1.0391-0.12109 1.1328 0.19531 1.1992-0.14062 0.54688-1.4648 0.57812-0.85156 0.26172-1.0508 0.27734-1.0391 0.77344-0.875 1.1914-0.058594 0.97656-0.31641 1.332-0.63281 0.60156-1.0352 0.875-0.92969 0.26953-1.3516 0.58203-1.4023 0.57812-0.91016-0.070312-1 0.54297-1.6172 0.21484-1.0391-0.33984-1.0781 0.41406-1.2031 0.46875-1.5508 0.74609-0.96094 0.91016-0.77344 0.96094-0.35156 0.64844-0.87891 0.24609-1.207 0.30469-1.207 0.39062-1.0898 1.1836-0.82031 0.78125-0.80078 0.8125-0.73828 0.91016-0.73047-0.20312-1.2266-0.54688-1.4961 0.36328-0.96875-0.85938-1.0508 0.074218-1.0625-0.20703-1.2773-0.27344-1.0586-0.28906-1.0352-0.10547-1.4336 0.61328-0.89453 1.125-0.12891 1.2422 0.41016 1-0.38281 0.58984 1.2148 1.0195-0.015625 0.90234 0.64062 0.16016 1.0859 0.64062 1.043 0.64453 1.1211 0.51562 0.875 0.89062 1.1484 0.88672 0.46875 1.0898-0.58203 1.2773 0.37891 0.97266 0.51172 1.3477-0.23828 1.0977-0.042969 1.0352 0.24219 1.1523-0.43359 0.24609-0.97656 0.77734-0.71875 0.90234-0.89062 0.17578-1.0391 0.75391-0.80469 0.16016-1.0078 0.77734-1.2188 0.57031-1.043 0.082031-1.4414 0.097656-1.1172-0.19922-1.0352-0.45703-0.98047-0.83203-0.76172-0.875-0.76172-0.6875-0.96094-0.78516-0.92578-0.96094-0.54297-0.85547-0.58594 0.30469-1.1484-0.53906-0.875-1.2266-0.70312-1.043-0.69922-0.82031-0.66797-0.95312-0.71875-0.53125-0.96484-0.64453-0.76953-0.65234-0.76953-0.23438-1.3281-0.43359-1 0.18359-1.1836 0.94141-0.64062 0.99219-0.57812-0.40234-1.4102-0.81641-0.80859-0.36328-1.125-0.86328-0.60547-0.55859-1.2227-0.91797-0.46094-0.68359 0.73438-1 0.14844-0.88281-0.51953-0.72266-0.69531-0.94141-0.51562-1.0508 0.19922-1.1445-0.09375-0.87109 0.51172-1.1133-0.88672-0.92578-0.45703-1.2617 0.007812-0.89844-0.53516-0.875-0.52344-0.94141-0.40234-0.64844-0.89062-1.1562-0.69141-1.1406 0.17188-0.99609 0.10547-0.19922-1.5625-0.50781-1.9922-0.62109-1.082-0.39453-0.9375-0.89844-0.46875-0.98047 0.33203-1.0938 0.60156-0.73828-1.0352-0.0625-1.0977-0.66406-0.86328-0.48438-1.0508-0.33203-1.0195-0.51562-0.9375-1.0742-0.60547-1.2539 0.082031-0.91016-0.42969-0.29688 1.0938-0.074218 1.3828-0.98438 0.30469-0.17969 1.1758-0.98047-0.24219-0.69922-0.75781-0.66797-0.84766-0.79297-1.0664-0.625-0.89453-0.44531-1.0781-0.87891-0.57422-0.48828-0.94141-0.51562-1.1094-0.27344-1.1094-1.2148 0.45703-0.73047 0.74219-0.015625 1.3047-0.39062 1.0508-1.332 0.75391-1.1875 0.33984-0.63672 0.88672-0.80469 1.3633-0.30078 1.0742-1.3828 0.75-0.95703 0.50391-1.1289-0.57031-0.22266-1.0156-1.7266-0.27344-0.52344-0.96875-0.29297-1.1172-0.53906-0.85156-1.2852 0.39844-0.99609-0.16797-0.99609 0.67188-0.99609-0.36328-0.73828-0.97656 0.29297-0.98047 0.26172-1.0195-0.035157-1.082-1.0312-0.40234-1.0938-0.19141-0.95703-0.30078-0.80859 0.58984-1-0.35547-1.2734-0.16016-1.0469-0.38281-0.85547-0.95312-1.0938-0.4375-0.88672-0.84375-0.96094-0.46484-0.56641-1.3789 0.26953-1.1367 0.87109-0.55078 0.79688-0.64844 0.52344-1.0508 0.51562-1.3672-0.51562-1.1523-0.48438-1.1055-0.69141-1.7227-0.46484-1.0859-0.20312-1.1016-0.20703-1.2891-0.97266-0.79688-0.91016-0.74219 0.39844-1.2461 0.33203-1.2266-0.49609-1.1797-0.66406-0.98438-0.94141-0.72656-1.1992 0.023438-1.1406-0.003906-1.3555 0.19531-1.3125 0.20312-1.2188-0.52344-0.85547-0.78906-1.0469-0.33984-0.78125-0.73438-1.1562-0.42188-0.52734-1.3594-0.10938-1.4102-0.30859-1.1562-0.25-1.0117 0.003906-1.2695 0.28125-0.97656 0.85547-0.60547-0.48047-1.1172-0.53125-0.88281-0.62109-0.81641 1.0859-0.66016 0.46484-1.1211 0.29297-0.97266-0.58594-1.6484-0.32422-1.0195-0.91016-0.47656-0.47266-1.0625 0.09375-1.0195-0.0625-1.3203 0.54297-1.0078 0.24609-1.0781 1.5781-1.7539 0.71094-1.3008 0.18359-1.0312-0.074218-1.1094 1.0625-1.3008 1.0742-1.3555 0.27734-1.1836 0.019531-1.3242-0.34375-1.2266-0.74609-1.3555-1.0859-0.78516 0.26953-1.0508-0.17578-1.0078-0.49219-0.92969-0.42188-1.0781-0.5625-0.85938-0.45703-1.0195-0.125-1.1172 0.38672-1.0391 0.49219-0.87891 0.29688-1.0781-0.38281-0.99219-0.89844-0.66016-0.58203-0.91797-0.19922-1.4961 0.0625-1.2031 0.77344-1.0508 1.1055-0.5625 1.0352-0.44141 0.027344-1.2461-0.98828-1.0781-0.88672-0.72266-0.74609-0.80078 0.59375-1.0234 1-0.94531 0.92188-0.80078 0.68359-0.80078 0.27734-1.0156 1.2656 0.24609 1.9023 0.90234 1.5625 0.25391 1.2656-0.35156 1.1055-0.27734 0.09375-0.16016" fill="none" stroke="#fff" stroke-linecap="round" stroke-linejoin="round" stroke-miterlimit="10"/>
<path d="m163 92.484c0 3.5898-2.9102 6.5-6.5 6.5s-6.5-2.9102-6.5-6.5 2.9102-6.5 6.5-6.5 6.5 2.9102 6.5 6.5" fill="#28c028" fill-rule="evenodd" stroke="#000" stroke-linecap="round" stroke-linejoin="round" stroke-miterlimit="10"/>
<path d="m164.12 115.52v-16.469h4.9844l2.9844 11.234 2.9531-11.234h4.9844v16.469h-3.0938v-12.953l-3.2656 12.953h-3.2031l-3.25-12.953v12.953zm18.531-8.125c0-1.6758 0.25-3.0859 0.75-4.2344 0.375-0.83203 0.88281-1.582 1.5312-2.25 0.64453-0.66406 1.3516-1.1602 2.125-1.4844 1.0312-0.4375 2.2188-0.65625 3.5625-0.65625 2.4141 0 4.3516 0.75781 5.8125 2.2656 1.457 1.5 2.1875 3.5938 2.1875 6.2812 0 2.6562-0.72656 4.7344-2.1719 6.2344-1.4375 1.5-3.3711 2.25-5.7969 2.25-2.4492 0-4.3984-0.74219-5.8438-2.2344-1.4375-1.5-2.1562-3.5547-2.1562-6.1719zm3.4219-0.125c0 1.8672 0.42969 3.2812 1.2969 4.25 0.86328 0.96094 1.957 1.4375 3.2812 1.4375 1.3203 0 2.4062-0.47266 3.25-1.4219 0.85156-0.95703 1.2812-2.3906 1.2812-4.2969 0-1.8945-0.41797-3.3047-1.25-4.2344-0.82422-0.92578-1.918-1.3906-3.2812-1.3906-1.375 0-2.4844 0.47656-3.3281 1.4219-0.83594 0.9375-1.25 2.3516-1.25 4.2344zm19.469 8.25v-6.9219l-6.0312-9.5469h3.8906l3.875 6.5156 3.7969-6.5156h3.8281l-6.0469 9.5625v6.9062zm10.344-8.125c0-1.6758 0.25-3.0859 0.75-4.2344 0.375-0.83203 0.88281-1.582 1.5312-2.25 0.64453-0.66406 1.3516-1.1602 2.125-1.4844 1.0312-0.4375 2.2188-0.65625 3.5625-0.65625 2.4141 0 4.3516 0.75781 5.8125 2.2656 1.457 1.5 2.1875 3.5938 2.1875 6.2812 0 2.6562-0.72656 4.7344-2.1719 6.2344-1.4375 1.5-3.3711 2.25-5.7969 2.25-2.4492 0-4.3984-0.74219-5.8438-2.2344-1.4375-1.5-2.1562-3.5547-2.1562-6.1719zm3.4219-0.125c0 1.8672 0.42969 3.2812 1.2969 4.25 0.86328 0.96094 1.957 1.4375 3.2812 1.4375 1.3203 0 2.4062-0.47266 3.25-1.4219 0.85156-0.95703 1.2812-2.3906 1.2812-4.2969 0-1.8945-0.41797-3.3047-1.25-4.2344-0.82422-0.92578-1.918-1.3906-3.2812-1.3906-1.375 0-2.4844 0.47656-3.3281 1.4219-0.83594 0.9375-1.25 2.3516-1.25 4.2344zm15.156-8.2188h6.5781c1.3008 0 2.2695 0.058594 2.9062 0.17188 0.64453 0.10547 1.2188 0.32812 1.7188 0.67188 0.50781 0.34375 0.92969 0.80469 1.2656 1.375 0.34375 0.57422 0.51562 1.2188 0.51562 1.9375 0 0.77344-0.21094 1.4805-0.625 2.125-0.41797 0.63672-0.98047 1.1172-1.6875 1.4375 1 0.29297 1.7656 0.79297 2.2969 1.5 0.53906 0.69922 0.8125 1.5273 0.8125 2.4844 0 0.74219-0.17188 1.4648-0.51562 2.1719-0.34375 0.71094-0.82031 1.2773-1.4219 1.7031-0.60547 0.41797-1.3516 0.67969-2.2344 0.78125-0.55469 0.0625-1.8906 0.10156-4.0156 0.10938h-5.5938zm3.3281 2.75v3.7969h2.1719c1.2891 0 2.0977-0.015625 2.4219-0.046875 0.5625-0.070312 1.0039-0.26953 1.3281-0.59375 0.33203-0.32031 0.5-0.75 0.5-1.2812 0-0.50781-0.14062-0.92188-0.42188-1.2344-0.28125-0.32031-0.69922-0.51953-1.25-0.59375-0.33594-0.03125-1.2812-0.046875-2.8438-0.046875zm0 6.5469v4.3906h3.0781c1.1953 0 1.9531-0.03125 2.2656-0.09375 0.5-0.09375 0.90625-0.3125 1.2188-0.65625s0.46875-0.8125 0.46875-1.4062c0-0.48828-0.12109-0.90625-0.35938-1.25-0.24219-0.34375-0.58984-0.59375-1.0469-0.75-0.44922-0.15625-1.4336-0.23438-2.9531-0.23438zm28.109 7.1719h-3.6094l-1.4375-3.7344h-6.5781l-1.3594 3.7344h-3.5312l6.4062-16.469h3.5156zm-6.1094-6.5156-2.2812-6.1094-2.2188 6.1094zm7.8281 6.5156v-16.469h4.9844l2.9844 11.234 2.9531-11.234h4.9844v16.469h-3.0938v-12.953l-3.2656 12.953h-3.2031l-3.25-12.953v12.953zm19.219-16.469h6.5781c1.3008 0 2.2695 0.058594 2.9062 0.17188 0.64453 0.10547 1.2188 0.32812 1.7188 0.67188 0.50781 0.34375 0.92969 0.80469 1.2656 1.375 0.34375 0.57422 0.51562 1.2188 0.51562 1.9375 0 0.77344-0.21094 1.4805-0.625 2.125-0.41797 0.63672-0.98047 1.1172-1.6875 1.4375 1 0.29297 1.7656 0.79297 2.2969 1.5 0.53906 0.69922 0.8125 1.5273 0.8125 2.4844 0 0.74219-0.17188 1.4648-0.51562 2.1719-0.34375 0.71094-0.82031 1.2773-1.4219 1.7031-0.60547 0.41797-1.3516 0.67969-2.2344 0.78125-0.55469 0.0625-1.8906 0.10156-4.0156 0.10938h-5.5938zm3.3281 2.75v3.7969h2.1719c1.2891 0 2.0977-0.015625 2.4219-0.046875 0.5625-0.070312 1.0039-0.26953 1.3281-0.59375 0.33203-0.32031 0.5-0.75 0.5-1.2812 0-0.50781-0.14062-0.92188-0.42188-1.2344-0.28125-0.32031-0.69922-0.51953-1.25-0.59375-0.33594-0.03125-1.2812-0.046875-2.8438-0.046875zm0 6.5469v4.3906h3.0781c1.1953 0 1.9531-0.03125 2.2656-0.09375 0.5-0.09375 0.90625-0.3125 1.2188-0.65625s0.46875-0.8125 0.46875-1.4062c0-0.48828-0.12109-0.90625-0.35938-1.25-0.24219-0.34375-0.58984-0.59375-1.0469-0.75-0.44922-0.15625-1.4336-0.23438-2.9531-0.23438zm28.109 7.1719h-3.6094l-1.4375-3.7344h-6.5781l-1.3594 3.7344h-3.5312l6.4062-16.469h3.5156zm-6.1094-6.5156-2.2812-6.1094-2.2188 6.1094zm0 0" fill="none" stroke="#fff" stroke-linecap="round" stroke-linejoin="round" stroke-miterlimit="10" stroke-width="2"/>
<path d="m164.12 115.52v-16.469h4.9844l2.9844 11.234 2.9531-11.234h4.9844v16.469h-3.0938v-12.953l-3.2656 12.953h-3.2031l-3.25-12.953v12.953zm18.531-8.125c0-1.6758 0.25-3.0859 0.75-4.2344 0.375-0.83203 0.88281-1.582 1.5312-2.25 0.64453-0.66406 1.3516-1.1602 2.125-1.4844 1.0312-0.4375 2.2188-0.65625 3.5625-0.65625 2.4141 0 4.3516 0.75781 5.8125 2.2656 1.457 1.5 2.1875 3.5938 2.1875 6.2812 0 2.6562-0.72656 4.7344-2.1719 6.2344-1.4375 1.5-3.3711 2.25-5.7969 2.25-2.4492 0-4.3984-0.74219-5.8438-2.2344-1.4375-1.5-2.1562-3.5547-2.1562-6.1719zm3.4219-0.125c0 1.8672 0.42969 3.2812 1.2969 4.25 0.86328 0.96094 1.957 1.4375 3.2812 1.4375 1.3203 0 2.4062-0.47266 3.25-1.4219 0.85156-0.95703 1.2812-2.3906 1.2812-4.2969 0-1.8945-0.41797-3.3047-1.25-4.2344-0.82422-0.92578-1.918-1.3906-3.2812-1.3906-1.375 0-2.4844 0.47656-3.3281 1.4219-0.83594 0.9375-1.25 2.3516-1.25 4.2344zm19.469 8.25v-6.9219l-6.0312-9.5469h3.8906l3.875 6.5156 3.7969-6.5156h3.8281l-6.0469 9.5625v6.9062zm10.344-8.125c0-1.6758 0.25-3.0859 0.75-4.2344 0.375-0.83203 0.88281-1.582 1.5312-2.25 0.64453-0.66406 1.3516-1.1602 2.125-1.4844 1.0312-0.4375 2.2188-0.65625 3.5625-0.65625 2.4141 0 4.3516 0.75781 5.8125 2.2656 1.457 1.5 2.1875 3.5938 2.1875 6.2812 0 2.6562-0.72656 4.7344-2.1719 6.2344-1.4375 1.5-3.3711 2.25-5.7969 2.25-2.4492 0-4.3984-0.74219-5.8438-2.2344-1.4375-1.5-2.1562-3.5547-2.1562-6.1719zm3.4219-0.125c0 1.8672 0.42969 3.2812 1.2969 4.25 0.86328 0.96094 1.957 1.4375 3.2812 1.4375 1.3203 0 2.4062-0.47266 3.25-1.4219 0.85156-0.95703 1.2812-2.3906 1.2812-4.2969 0-1.8945-0.41797-3.3047-1.25-4.2344-0.82422-0.92578-1.918-1.3906-3.2812-1.3906-1.375 0-2.4844 0.47656-3.3281 1.4219-0.83594 0.9375-1.25 2.3516-1.25 4.2344zm15.156-8.2188h6.5781c1.3008 0 2.2695 0.058594 2.9062 0.17188 0.64453 0.10547 1.2188 0.32812 1.7188 0.67188 0.50781 0.34375 0.92969 0.80469 1.2656 1.375 0.34375 0.57422 0.51562 1.2188 0.51562 1.9375 0 0.77344-0.21094 1.4805-0.625 2.125-0.41797 0.63672-0.98047 1.1172-1.6875 1.4375 1 0.29297 1.7656 0.79297 2.2969 1.5 0.53906 0.69922 0.8125 1.5273 0.8125 2.4844 0 0.74219-0.17188 1.4648-0.51562 2.1719-0.34375 0.71094-0.82031 1.2773-1.4219 1.7031-0.60547 0.41797-1.3516 0.67969-2.2344 0.78125-0.55469 0.0625-1.8906 0.10156-4.0156 0.10938h-5.5938zm3.3281 2.75v3.7969h2.1719c1.2891 0 2.0977-0.015625 2.4219-0.046875 0.5625-0.070312 1.0039-0.26953 1.3281-0.59375 0.33203-0.32031 0.5-0.75 0.5-1.2812 0-0.50781-0.14062-0.92188-0.42188-1.2344-0.28125-0.32031-0.69922-0.51953-1.25-0.59375-0.33594-0.03125-1.2812-0.046875-2.8438-0.046875zm0 6.5469v4.3906h3.0781c1.1953 0 1.9531-0.03125 2.2656-0.09375 0.5-0.09375 0.90625-0.3125 1.2188-0.65625s0.46875-0.8125 0.46875-1.4062c0-0.48828-0.12109-0.90625-0.35938-1.25-0.24219-0.34375-0.58984-0.59375-1.0469-0.75-0.44922-0.15625-1.4336-0.23438-2.9531-0.23438zm28.109 7.1719h-3.6094l-1.4375-3.7344h-6.5781l-1.3594 3.7344h-3.5312l6.4062-16.469h3.5156zm-6.1094-6.5156-2.2812-6.1094-2.2188 6.1094zm7.8281 6.5156v-16.469h4.9844l2.9844 11.234 2.9531-11.234h4.9844v16.469h-3.0938v-12.953l-3.2656 12.953h-3.2031l-3.25-12.953v12.953zm19.219-16.469h6.5781c1.3008 0 2.2695 0.058594 2.9062 0.17188 0.64453 0.10547 1.2188 0.32812 1.7188 0.67188 0.50781 0.34375 0.92969 0.80469 1.2656 1.375 0.34375 0.57422 0.51562 1.2188 0.51562 1.9375 0 0.77344-0.21094 1.4805-0.625 2.125-0.41797 0.63672-0.98047 1.1172-1.6875 1.4375 1 0.29297 1.7656 0.79297 2.2969 1.5 0.53906 0.69922 0.8125 1.5273 0.8125 2.4844 0 0.74219-0.17188 1.4648-0.51562 2.1719-0.34375 0.71094-0.82031 1.2773-1.4219 1.7031-0.60547 0.41797-1.3516 0.67969-2.2344 0.78125-0.55469 0.0625-1.8906 0.10156-4.0156 0.10938h-5.5938zm3.3281 2.75v3.7969h2.1719c1.2891 0 2.0977-0.015625 2.4219-0.046875 0.5625-0.070312 1.0039-0.26953 1.3281-0.59375 0.33203-0.32031 0.5-0.75 0.5-1.2812 0-0.50781-0.14062-0.92188-0.42188-1.2344-0.28125-0.32031-0.69922-0.51953-1.25-0.59375-0.33594-0.03125-1.2812-0.046875-2.8438-0.046875zm0 6.5469v4.3906h3.0781c1.1953 0 1.9531-0.03125 2.2656-0.09375 0.5-0.09375 0.90625-0.3125 1.2188-0.65625s0.46875-0.8125 0.46875-1.4062c0-0.48828-0.12109-0.90625-0.35938-1.25-0.24219-0.34375-0.58984-0.59375-1.0469-0.75-0.44922-0.15625-1.4336-0.23438-2.9531-0.23438zm28.109 7.1719h-3.6094l-1.4375-3.7344h-6.5781l-1.3594 3.7344h-3.5312l6.4062-16.469h3.5156zm-6.1094-6.5156-2.2812-6.1094-2.2188 6.1094z" fill-rule="evenodd"/>
</g>
</svg>
