<?xml version="1.0" encoding="UTF-8"?>
<svg width="345pt" height="500pt" version="1.1" viewBox="0 0 345 500" xmlns="http://www.w3.org/2000/svg">
<g id="a">
<rect width="345" height="500" fill="none"/>
<path d="m137.2 142.76 0.089844 0.015625 1.207 0.078125 0.98047 0.87109 1.7734 0.84766 1.5273 0.50391 0.66406 1.2891 0.875 1.1406 0.13281 1.2266 0.74609 0.80859 1.3828-0.027344 1.2188 0.52734 1.2656 0.32812 0.96484 0.52344 0.4375 1.1562 1.0508 0.55469 0.58594 0.94531 1.8672 1.2383 1.3633 0.92578 0.91016 1.0039-0.20703 1.6172 0.19922 2.6797 0.003906 1.0547 1.0312 1.9766 0.97656 1.418 0.83984 0.72656 1.2383-0.44922 0.99609 0.13672 0.94922 0.99609 0.53125 0.87891 0.34375 1.332 0.17969 1.1719 1.1367 0.83984 0.51172 1.1875 0.14062 1.0859 1.0703 0.58984 0.86328 0.85156 1.7852 1.1133 1.1719 0.3125 1.0703 0.375-0.35938 1.0508 1.0117 1.4219 0.74219 1.5234 0.16016 1.0703-0.011718 1.2734-0.42969 1.1953-0.89062 0.61328-0.85156 1.0703-0.94531 0.76172-0.89062 0.50391-0.96875 0.75-0.60156 1.125-0.125 1.2695 0.097656 1.1836 0.12891 1.3047 0.55078 0.89453 0.16797 1.0586-0.35938 1.0898-0.35547 1.2109-0.23047 1.0312-0.027344 1.2773 0.046875 1.1172-0.09375 1.0469 0.19141 1.3516 0.65234 0.85156 0.625 0.85156 0.38281 1.0312 0.57422 0.82812 0.66016 0.75391 0.42578 1.0703-0.54688 1.6914-0.33203 1.4805-0.15625 1.2539 0.89062 0.55469 1.0664 0.17969 1.3086 0.33594 1.293 0.15625 1.3789-0.019531 1.3008-0.32031 1.0117-0.042968 1.5703-0.42578 1-0.48828 1.2031 0.21094 0.97266 0.48438 1.0117-0.33984 1.2109-0.53906 1.3828-0.54688 1.3594-1.0117 0.54297-0.86328 0.625-1.2617-0.32812-1.2148v-1.0312l0.51172-1.207 0.69531-0.73438 1.0781-0.48828 1.1719 0.042969 1.0156-0.52734 0.042969 1.6328 0.51562 1.2578 0.60156 1.5664 0.57812 0.96875 0.67188 1.0234 0.75781 1.7266-0.066407 1.1484 0.68359 1.2305 0.89062 1.1406 0.91406 1.1445 0.67969 1.0039 0.76172 1.1328 0.26172 1.5664 0.46094 1.2734 0.44141 1.3086 0.51953 0.99609 0.85547 0.57812 0.66406 0.77734 0.63281 0.91016 0.37891 1.2461 1.0781 1.0391 0.53125 1.3125 0.72656 0.77734 0.74219 1.6055 1.1133 0.85938 1.4805 0.97656 0.89062 0.75781 1.0039-0.042969 1.3477 0.27344 1.1797 0.52734 0.94141 0.76562 0.65625 1.5312 1.0391 1.2344 0.83984 1.6992 0.89062 0.60938 1.1172 0.40625 1.2031 0.36328 0.66406 2.1406 0.63672 1.7969 0.11719 1.1406 0.007813 1.0273-0.10156 1.7812 0.1875 1.9414 0.37109 1.1992 1.25 0.41016 1.7969-0.67188 1.8555-0.30078 1.918-0.10156 1.0508 0.41406 0.37109 1.0156 0.24219 1.3086 0.035156 2.0703 0.015625 1.2305 1.1758 0.28125 0.95703 0.68359 0.32031 0.98047-0.17969 1.3359-0.67578 0.80859-0.46484 1.0859 0.050781 1.1836-0.42188 1.1406-0.94922 0.85156-1.1914 0.25 0.53516 1.0977 0.92188 0.78125 0.79688 0.83594 0.55078 1.1992 0.21094 1.4062 0.046875 1.1602-0.4375 0.92188-0.99219 0.82812-1.8867 1.0742-1.1172 0.47656-0.72656 0.97266-0.72656 1.8398-0.09375 1.2617 0.52734 2.0703 0.43359 1.4062-0.28125 1.6797 0.1875 1.0781 0.066406 1.1953 0.03125 1.1641-0.023437 2.1016 0.085937 1.0586-0.19531 1.3633-0.47266 1.0273-0.67969 0.84766 0.25 1.1367 0.035156 1.2539 0.27344 1.1094-0.10547 1.1055 0.003906 1.082 0.85547 0.56641 1.1758 0.63281 1.1641 0.23047 1.082 0.32031 0.058594 1.0234 0.15234 1.0977 0.023438 1.0469-0.042969 1.0312 0.058594 1.0039 0.10547 1.2148 0.28125 1.2422-0.11719 1.3242 0.26562 1.1875 0.74609 0.69141 1.0391 0.30078 0.95312 0.4375 1.0703 0.125 0.83203 0.56641 0.94141 0.50781 0.66016 0.98047 0.40234 1 0.074219 1.0312 0.16797 1.0664 0.44922 0.99219 1.0039-0.019532 1.207 0.32422 0.89062 0.47266 1.1562 0.17578 0.80078 0.78906 0.55859 1.1367 0.45312 0.95703 0.16797 1.1484 0.25 1.2969 0.078125 1.2344 0.33594 1.207 0.73828 0.98828 0.875 0.625 0.49219 0.93359 0.63281 0.85547 0.83594 0.91797 0.37891 1.0547 0.77344 0.73047-0.19922 1.0391 0.44922 1.2031 0.87109 0.69922 1.043 1.2383 0.94531 0.68359 0.86719 0.84766 0.050782 1.3047 0.49219 1.1016 0.19141 1.168 0.52734 1.082 0.26562 1.0273-0.68359 0.98438-0.19922 1.0508-0.34766 1.0039 0.082032 1.043 0.83984 0.99219 0.90234 0.48828 1.1133-0.18359 1.1406 0.11328 1.2734-0.375 1.1133 0.6875 0.67578 1.0039 1.3125 1.0156 0.67188 1.6562 0.51172 1.0234-0.90625 0.85156-0.88281 0.82812-1.1055 0.28906-0.23828 1.1602 0.33984 1.0547 0.082032 1.0352-0.25781 0.99609-0.24609 1.1289 0.24609 1.0977-0.94531 0.56641-0.89062 0.47266-0.16797 1.4766 0.10938 1.0156-0.59375 0.99219 0.84375 0.89062 0.96875 0.32422 0.92969 0.65234 1.2812 0.19922 1.1992-0.015625 1.168 0.16797 1.0273-0.015625 1.2578-0.16016 1.0859-0.1875 0.63281-1.4102 0.87891-0.89453 1.0859-0.70703 1.1094-0.43359 0.97266 0.31641 1.1406-0.29688 1.1094-0.26953 1.1328 0.83594 0.94922 0.76953 0.55078 1.0898 1.1055 0.41016 0.62891-1.0273 0.82031-0.65625 0.24609-1.1055 0.98047-0.47656 1.0898-0.36328 0.95312-0.35938 0.90625-0.69922 1.0547-0.57812 0.91797-0.40625 1.0312-0.50781 0.82031-0.76953 1.1758 0.03125 0.83984-0.58984 0.98047 0.47266 1.1016-0.09375 0.85547-0.58984 0.98438-0.77344 1.375-0.65625 1.2344-0.019531 0.89453-0.73828 0.86719-0.67969 1.0898 0.015625 0.91406 0.90625 0.38672 1.3477 0.60156 0.92969 0.46094 1.1484v1.1367l1.0195 0.87109 1.0977 0.70312 0.71484 0.82812 0.63281 1.0352-0.1875 1.0703 0.18359 1.1875-0.027343 1.0742 0.52734 1.3086 0.69141 1.1992 0.99609 0.53906-0.054687 1.0039-0.40234 1.1523-0.25 1.125-0.33984 1.0352-0.058593 1.0859-0.085938 1.0859-0.63281 1.0117-0.77344 0.92188-0.078125 1.2109-0.24219 1.418-0.15625 1.2461-0.25781 1.4375-0.082031 1.3203 0.074219 2.0508 0.10938 1.1758-0.34375 1.1289-0.32422 1.4297-0.125 1.0781 0.023437 1.3125 0.3125 0.97266-0.39844 1.3555-0.67578 0.92188-1.3281-0.28125-1.1094 0.78906-0.51562 0.92188-0.76953 0.85938-1.0078 0.44531-1.0234-0.29688-1.1094 0.027344-1.0898-0.28125-1.2188 0.23047-1.5547 0.87109-0.72656 0.76953-0.94531 0.4375-1.0234-0.35938-0.99609-0.44141-1.3359 0.38281-1.2773-0.64453-1.1562 0.59375-1.0273-0.066406-1.6523-0.36719-1.3828 0.34375-0.83203 0.5625-1.3242 0.89453-0.64453 1.0039 0.39453 1.293-0.44531 1.1641-0.97266 0.28906-0.84766 0.76953-1.25 0.15625-0.29297 1.0195-1.2656 0.085937-1.4805 0.67969-0.67578 0.78906 1.2148 0.8125 1.457 1.3555 0.76953 1.0977-0.44531 1.1406 0.79688 0.74609 0.61328 1.0664 0.45703 1.207-0.14062 1.0703 0.57812 1.0547 0.035156 1.0039-0.30469 1.1211-0.28906 0.98828 0.30469 1.0039 0.31641 1.1445-0.21875 1.4258-0.16797 1.0234 0.15234 0.98828-0.59766 1.1992-0.64062 1.0625 0.10938 1.0859-0.46094 1.082-0.23438 0.98047-0.10547 1.1211 0.37109 1.5664 0.55469 1.1289 0.41016 1.0156 0.41797 1.3945 1.0234 0.91016 1.0898 0.26172 0.68359 0.75781-0.28516 1.2969 0.38281 1.0039 0.63281 0.84375 0.082031 1.2578-0.26953 1.2031-0.12109 1.2148 0.18359 1.0469 0.83594 1.1016 0.16406 1.3477 0.30078 1.3516 0.89844 0.98438 0.71094 1.0625 0.49609 1.0664-0.042969 1.1289-0.96875 0.50781-0.70703 0.76953 0.90625 1.1523-0.10547 1.3086 0.20703 1.4688 0.24219 1.1133-0.33203 1.4609-0.64453 1.1133-0.5625 0.84766 0.09375 1.3672-0.48047 0.92188-0.9375 0.70703-0.47656 0.96094-0.86328 0.64453-1.4023 0.85156-1.3438 0.65234-0.99609-0.12891-1.1562 0.63281-0.89844 1.1445-1.0859-0.23828-1.0195-0.51172-1.0508 0.050781-0.95312-0.35547-1.0273 0.69141-1.1602 0.27734-1.2383-0.25391-1.1602 0.85547-1.043 0.27734-1.3555 0.53516-1.2891-0.046875-1.0469-0.27734-0.69141-1.4688-0.28906-1.4492-0.23047-1.4336-1.1914-0.47266-1.3594 0.15234-0.57031 0.97656-0.71094 1.8164-0.64453 0.76562-1.6133 0.82031-1.0391 0.12109-0.82422 0.90625-1.2656 0.82031-1.4648 0.76172-1.0078 0.13672-1.0117 0.42578-0.92578 1.1953-0.039062 1.1094-0.32812 0.99219-1.2383-0.058594-0.76562-0.73438-0.60938-1.3711-0.89062-1.2109-1.0625-0.23828-1.2383 0.39062-0.86719 0.54297-1.1172 0.27344-1.6641-0.042969-1.4258-0.47656-1.3516-0.87109-2-0.13281-1 0.35156-1.0625 0.46484-1.4492 0.31641-1.0391-0.09375-1.4102 0.79688-0.95703 0.85156 0.16406 0.99219-0.41406 1.1484-0.92969 1.1484-1.5195 0.625-1.0234 1.3984-0.85547 0.76172-0.48047 0.96484-0.54688 0.97266-0.14453 1.3203 0.37109 1.0312-0.32031 1.082-1.7148-0.27344-1.0508-0.77344-1.6328-1.2969-0.57031-1.0859-0.72656-1.2344-0.59375-1.1211 0.007813-1.2578-0.71094-1.6445-1.5039-2.6484-0.65234-1.4961-0.70703-2.0352-0.097656-1.7344-0.10156-1.2969-0.40234-1.457-1.0195-0.67969-0.90625-0.55859-1.5234-0.74609-1.1836-0.23828-1.1016-0.14062-0.94922-0.55859-1.2344-0.5625-1.207-0.98438-0.41797-1.6641-0.32422-1.6289 0.24609-1.3047-0.40625-1.0039-0.67578-1.7656-0.375-1.5664-0.22266-1.0273-0.78516-1.1523-1.2617-1.75-0.80859-1.5195-0.49609-0.95703-1.1914-0.67969-1.2344-0.44922-0.95703-0.53125-0.44531-1.5391 0.34375-1.6445 0.066406-1.2422-0.75391-1.5938-0.66406-1.4336-0.80469-0.72266-1.1211-0.53906-0.98438 0.48828-1.1211 0.44531-1.5195 0.12891-1.0195 0.042968-1.5156-0.47266-0.60547-0.95703-1.0039-0.53906-1.4883 0.5625-1.4297 0.53516-1.7773-0.066407-1.0742-0.19531-0.96484 0.33594-1.7109 1.2422-1.2383 0.48438-1.5547-0.17969-0.83984-1.9648-0.15625-1.0352-1.0508-0.20703-1.8438-0.015625-1.6641-0.73047-2.082-0.375-1.0977-0.089843-1.4023 0.26172-0.67188-1.8086-0.26953-1.8008 0.14453-2.8516-0.13672-1.3906 0.3125-1.375 1.1367-2.0586 0.64453-1.1719 0.32812-1.3164-0.76562-1.5391-1.2695-1.3008-1.1367-0.83594-1.2734-0.42969-0.86328-0.70312-0.84375-1.0781-1.1367-0.42969-0.92969 0.47656-1.0273 1.3906-1.9883 1.1484-1.4297 0.10547-1.293-0.36719-0.85938-0.75-0.44531-1.4375 0.10156-1.4258 0.625-1.3945-1.2148-0.54297-1.7031-1.0898-1.5-0.8125-1.1758-1.5664-0.95703-1.668-1.4492-2.0703-1.1406-1.3125-1.1953-0.60547-1.6484-0.875-0.59766-0.92969-0.78906-1.0195-1.0195-0.9375-0.69922-0.83203-1.2422-1.3164-1.1094-0.55859-1.1016 0.042968-1.6992 0.027344-1.6328-0.91016-0.95703-1.4609-0.71094-1.0859-0.57031-1.5391 0.23047-0.98047-0.92969-0.63672-1.2891-0.27344-1.4219-1.0625-1.1484-0.33203-1.2539-0.63281-1.5508-0.050782-0.92578-0.39844-0.59375-1.0078-1.3789 0.14844-0.8125-0.98047-0.75-0.69531-1-0.5625-3.3359-0.75781-0.99219-0.22656-2.1289-0.20312-0.70312-0.98047-0.90625-1.25-0.99219-0.53125-1.8086-1.7773-0.19922-0.98047-0.21875-1.0273-0.64062-0.85156-1.1016-0.52734-1.0898-0.37109-0.87891-0.65234-1.043-1.2188-1.1055-0.67578-1.5898-0.58594-1.2656-0.31641-0.74219 0.72266-1.0156 1.1211-1.1797 0.62109-1.3008 0.51953-1.9258-0.046875-2.3516 0.058594-1.3008-0.83203-1.207-1.1211-0.62109-1.0234-0.37109-1.3281-0.59766-0.89062-1.0273-0.19141-1.2969 0.34766-0.24609-1.3789-0.085938-1.5273 0.49609-1.1914-0.007812-1.6328-0.078125-1.0039-0.082032-1.3516-0.30078-1.25-0.72656-0.75-0.49609-0.98438-0.85156-0.76172-1.4883-0.38672-0.11328-1.1641 0.32422-1.0078 0.38281-1.0117-0.17578-1.0078-0.76562-0.94922 0.37891-1.1562 0.60547-1.2891 0.65234-0.95703-0.16406-1.7461-0.33594-1.3281 0.73828-1.0703 0.51953-0.98438 1.3438-0.75 0.90625-0.71094 0.80859-1.1445 0.26172-1.2422 0.95312-1.2148 0.11719-1.0312 0.035156-1.7461-0.625-1.8867-0.66797-1.0273-0.87891-0.625-0.66016-0.75391 0.42188-1.0859-0.33594-1.2695-0.94922-0.44922-1.3008-0.11328-0.875 1.1719-1.2266 0.69141-1.1172-0.007812-0.99219-0.25391 0.14844-1.6758 0.82812-1.5625 0.41016-0.96484-0.32422-1.5117-0.93359-1.4766 0.43359-1.3086 1.1719-1.1641 0.6875-1.4062 0.13672-1.1758-0.32422-1.0898 0.43359-1.0234 0.37891-0.98438 0.12891-1.457 0.25391-1.1016 0.30078-1.2656 0.33984-1.3359 0.66797-1.207 1.1953-1.1914-0.046875-1.1797-0.74609-0.79297-0.44141-1.2344-0.64453-1-0.95703-1.1445-0.92578-1.832-0.44141-0.90234 0.011719-1.1406 0.59375-1.0039 1.3203-1.7422 0.59766-0.89062 0.91406-1.457 0.40234-1.0234 0.17969-1.2148 0.09375-1.5273 0.17578-1.2148 0.39062-1.1953 0.71484-1.4375 0.78516-1.2578 1.5898-1.9648 2.0156-2.043 1.1484-1.2461 0.50781-1.0977 1.8555-0.40234 1.2305-0.25391h1.2344l0.99609-1.1641 0.77734-0.90625 0.82031-0.71875-0.097657-1.2461 0.54688-0.87891 0.625-0.86328 0.16016-1.0195-0.10156-1.3086 0.039063-1.1484-0.019532-1.0781-0.14453-1.0859 0.14453-1.4258-0.16016-1.0508-0.37109-0.96875 0.015625-1.4453-0.39062-1.375-0.375-1.043-1.2539-0.57031-1.207-0.44141-0.44922-1.3164 0.1875-1.0703 0.51953-1.7461 0.38281-1.8555 0.20312-1.1836 0.21484-1.4102 0.39453-1.0781 0.55469-0.83594-0.19141-1.1484-0.17578-0.99609 0.078125-1.0898-0.12109-1.3828-0.38281-1.9961 1.0156-0.46875 1.1523-0.39062 1.1797-0.54297 1.0039-0.625 0.82422-0.73828 1.4141-0.027344 1.0781-0.64062 1.668-0.37891 1.1367 0.24609 1.2617 0.29688 1.1758-0.68359 0.078125-1.3477-0.15234-4.6289-0.70703-3.0703-0.39844-1.9492 0.37109-1.1094 0.96484-1.168 0.60938-1.1289 0.66406-1.1445-0.13281-1.1836-0.16797-0.98828 0.17969-1.1172 1.2266-0.097656 1.3555-0.59375 1.2656-2.0781 0.96484-1.6914 0.15234-1.2695 0.94922-0.98438 0.93359-1.082 0.73828-0.76953 0.66016-0.84375-0.50781-1.9492-1.1719-1.5664-0.19141-1.0391-0.3125-0.97656-0.53516-1.8398-0.25391-1.1445 0.003906-1.207 0.058594-1.3906-0.45703-2.1523-0.3125-1.6406-0.10547-1.2852-0.22656-1.3633-0.44141-1.6602 0.015625-1.4336-0.33203-1.0586-0.074219-1.1328-0.18359-1.2852-0.39062-1.3594-0.15234-1.1953 0.019531-1.1875 0.22266-1.0195 0.089844-1.2188-0.19531-1.0508-0.42188-1.125-0.39844-1.3242-0.003906-1.1914-0.019531-1.0586-0.66016-1.2148-0.26172-1.0195 0.28125-1.1641-0.79688-1.3711-0.15625-1.3359-0.28906-0.99219-0.60156-1.0703-0.35547-1.1797-0.78516-1.2305-0.68359-1.2188-0.94531-1.0156-0.43359-0.91797-0.49609-0.98047 0.77734-0.74219 0.96875-0.64062 0.80859-1.0156 0.79297-0.91406 0.95703-0.82031 0.125-1.2656 0.66797-0.95312 0.71094-0.75391 0.77344-0.68359 0.09375-1.168-0.019531-1.4492 0.015625-1.1211-0.039063-1.0234-0.29297-1.0703 0.23047-0.99609 1.0195-0.45703 1.0117 0.19922 1.1016-0.47266 0.79297-0.90234 0.95703-0.49219 0.96875 0.41016 3.7891 0.35938 2.4961-0.16016 1.0938-0.85938 0.98828-0.30078 2.9648-1.918 2.3789-1.3945 1.0195-0.27734 2.2656-0.019531 2.5898-1.1406 1.8711-1.2031 0.91797-0.58984 1.1797-0.33594 1.0938-0.82812 2.0195-0.76953 1.1836-0.011718 1.0664 0.054687 1.1406-0.22266z" fill="#ccc" fill-rule="evenodd"/>
<path d="m137.2 142.76 0.089844 0.015625 1.207 0.078125 0.98047 0.87109 1.7734 0.84766 1.5273 0.50391 0.66406 1.2891 0.875 1.1406 0.13281 1.2266 0.74609 0.80859 1.3828-0.027344 1.2188 0.52734 1.2656 0.32812 0.96484 0.52344 0.4375 1.1562 1.0508 0.55469 0.58594 0.94531 1.8672 1.2383 1.3633 0.92578 0.91016 1.0039-0.20703 1.6172 0.19922 2.6797 0.003906 1.0547 1.0312 1.9766 0.97656 1.418 0.83984 0.72656 1.2383-0.44922 0.99609 0.13672 0.94922 0.99609 0.53125 0.87891 0.34375 1.332 0.17969 1.1719 1.1367 0.83984 0.51172 1.1875 0.14062 1.0859 1.0703 0.58984 0.86328 0.85156 1.7852 1.1133 1.1719 0.3125 1.0703 0.375-0.35938 1.0508 1.0117 1.4219 0.74219 1.5234 0.16016 1.0703-0.011718 1.2734-0.42969 1.1953-0.89062 0.61328-0.85156 1.0703-0.94531 0.76172-0.89062 0.50391-0.96875 0.75-0.60156 1.125-0.125 1.2695 0.097656 1.1836 0.12891 1.3047 0.55078 0.89453 0.16797 1.0586-0.35938 1.0898-0.35547 1.2109-0.23047 1.0312-0.027344 1.2773 0.046875 1.1172-0.09375 1.0469 0.19141 1.3516 0.65234 0.85156 0.625 0.85156 0.38281 1.0312 0.57422 0.82812 0.66016 0.75391 0.42578 1.0703-0.54688 1.6914-0.33203 1.4805-0.15625 1.2539 0.89062 0.55469 1.0664 0.17969 1.3086 0.33594 1.293 0.15625 1.3789-0.019531 1.3008-0.32031 1.0117-0.042968 1.5703-0.42578 1-0.48828 1.2031 0.21094 0.97266 0.48438 1.0117-0.33984 1.2109-0.53906 1.3828-0.54688 1.3594-1.0117 0.54297-0.86328 0.625-1.2617-0.32812-1.2148v-1.0312l0.51172-1.207 0.69531-0.73438 1.0781-0.48828 1.1719 0.042969 1.0156-0.52734 0.042969 1.6328 0.51562 1.2578 0.60156 1.5664 0.57812 0.96875 0.67188 1.0234 0.75781 1.7266-0.066407 1.1484 0.68359 1.2305 0.89062 1.1406 0.91406 1.1445 0.67969 1.0039 0.76172 1.1328 0.26172 1.5664 0.46094 1.2734 0.44141 1.3086 0.51953 0.99609 0.85547 0.57812 0.66406 0.77734 0.63281 0.91016 0.37891 1.2461 1.0781 1.0391 0.53125 1.3125 0.72656 0.77734 0.74219 1.6055 1.1133 0.85938 1.4805 0.97656 0.89062 0.75781 1.0039-0.042969 1.3477 0.27344 1.1797 0.52734 0.94141 0.76562 0.65625 1.5312 1.0391 1.2344 0.83984 1.6992 0.89062 0.60938 1.1172 0.40625 1.2031 0.36328 0.66406 2.1406 0.63672 1.7969 0.11719 1.1406 0.007813 1.0273-0.10156 1.7812 0.1875 1.9414 0.37109 1.1992 1.25 0.41016 1.7969-0.67188 1.8555-0.30078 1.918-0.10156 1.0508 0.41406 0.37109 1.0156 0.24219 1.3086 0.035156 2.0703 0.015625 1.2305 1.1758 0.28125 0.95703 0.68359 0.32031 0.98047-0.17969 1.3359-0.67578 0.80859-0.46484 1.0859 0.050781 1.1836-0.42188 1.1406-0.94922 0.85156-1.1914 0.25 0.53516 1.0977 0.92188 0.78125 0.79688 0.83594 0.55078 1.1992 0.21094 1.4062 0.046875 1.1602-0.4375 0.92188-0.99219 0.82812-1.8867 1.0742-1.1172 0.47656-0.72656 0.97266-0.72656 1.8398-0.09375 1.2617 0.52734 2.0703 0.43359 1.4062-0.28125 1.6797 0.1875 1.0781 0.066406 1.1953 0.03125 1.1641-0.023437 2.1016 0.085937 1.0586-0.19531 1.3633-0.47266 1.0273-0.67969 0.84766 0.25 1.1367 0.035156 1.2539 0.27344 1.1094-0.10547 1.1055 0.003906 1.082 0.85547 0.56641 1.1758 0.63281 1.1641 0.23047 1.082 0.32031 0.058594 1.0234 0.15234 1.0977 0.023438 1.0469-0.042969 1.0312 0.058594 1.0039 0.10547 1.2148 0.28125 1.2422-0.11719 1.3242 0.26562 1.1875 0.74609 0.69141 1.0391 0.30078 0.95312 0.4375 1.0703 0.125 0.83203 0.56641 0.94141 0.50781 0.66016 0.98047 0.40234 1 0.074219 1.0312 0.16797 1.0664 0.44922 0.99219 1.0039-0.019532 1.207 0.32422 0.89062 0.47266 1.1562 0.17578 0.80078 0.78906 0.55859 1.1367 0.45312 0.95703 0.16797 1.1484 0.25 1.2969 0.078125 1.2344 0.33594 1.207 0.73828 0.98828 0.875 0.625 0.49219 0.93359 0.63281 0.85547 0.83594 0.91797 0.37891 1.0547 0.77344 0.73047-0.19922 1.0391 0.44922 1.2031 0.87109 0.69922 1.043 1.2383 0.94531 0.68359 0.86719 0.84766 0.050782 1.3047 0.49219 1.1016 0.19141 1.168 0.52734 1.082 0.26562 1.0273-0.68359 0.98438-0.19922 1.0508-0.34766 1.0039 0.082032 1.043 0.83984 0.99219 0.90234 0.48828 1.1133-0.18359 1.1406 0.11328 1.2734-0.375 1.1133 0.6875 0.67578 1.0039 1.3125 1.0156 0.67188 1.6562 0.51172 1.0234-0.90625 0.85156-0.88281 0.82812-1.1055 0.28906-0.23828 1.1602 0.33984 1.0547 0.082032 1.0352-0.25781 0.99609-0.24609 1.1289 0.24609 1.0977-0.94531 0.56641-0.89062 0.47266-0.16797 1.4766 0.10938 1.0156-0.59375 0.99219 0.84375 0.89062 0.96875 0.32422 0.92969 0.65234 1.2812 0.19922 1.1992-0.015625 1.168 0.16797 1.0273-0.015625 1.2578-0.16016 1.0859-0.1875 0.63281-1.4102 0.87891-0.89453 1.0859-0.70703 1.1094-0.43359 0.97266 0.31641 1.1406-0.29688 1.1094-0.26953 1.1328 0.83594 0.94922 0.76953 0.55078 1.0898 1.1055 0.41016 0.62891-1.0273 0.82031-0.65625 0.24609-1.1055 0.98047-0.47656 1.0898-0.36328 0.95312-0.35938 0.90625-0.69922 1.0547-0.57812 0.91797-0.40625 1.0312-0.50781 0.82031-0.76953 1.1758 0.03125 0.83984-0.58984 0.98047 0.47266 1.1016-0.09375 0.85547-0.58984 0.98438-0.77344 1.375-0.65625 1.2344-0.019531 0.89453-0.73828 0.86719-0.67969 1.0898 0.015625 0.91406 0.90625 0.38672 1.3477 0.60156 0.92969 0.46094 1.1484v1.1367l1.0195 0.87109 1.0977 0.70312 0.71484 0.82812 0.63281 1.0352-0.1875 1.0703 0.18359 1.1875-0.027343 1.0742 0.52734 1.3086 0.69141 1.1992 0.99609 0.53906-0.054687 1.0039-0.40234 1.1523-0.25 1.125-0.33984 1.0352-0.058593 1.0859-0.085938 1.0859-0.63281 1.0117-0.77344 0.92188-0.078125 1.2109-0.24219 1.418-0.15625 1.2461-0.25781 1.4375-0.082031 1.3203 0.074219 2.0508 0.10938 1.1758-0.34375 1.1289-0.32422 1.4297-0.125 1.0781 0.023437 1.3125 0.3125 0.97266-0.39844 1.3555-0.67578 0.92188-1.3281-0.28125-1.1094 0.78906-0.51562 0.92188-0.76953 0.85938-1.0078 0.44531-1.0234-0.29688-1.1094 0.027344-1.0898-0.28125-1.2188 0.23047-1.5547 0.87109-0.72656 0.76953-0.94531 0.4375-1.0234-0.35938-0.99609-0.44141-1.3359 0.38281-1.2773-0.64453-1.1562 0.59375-1.0273-0.066406-1.6523-0.36719-1.3828 0.34375-0.83203 0.5625-1.3242 0.89453-0.64453 1.0039 0.39453 1.293-0.44531 1.1641-0.97266 0.28906-0.84766 0.76953-1.25 0.15625-0.29297 1.0195-1.2656 0.085937-1.4805 0.67969-0.67578 0.78906 1.2148 0.8125 1.457 1.3555 0.76953 1.0977-0.44531 1.1406 0.79688 0.74609 0.61328 1.0664 0.45703 1.207-0.14062 1.0703 0.57812 1.0547 0.035156 1.0039-0.30469 1.1211-0.28906 0.98828 0.30469 1.0039 0.31641 1.1445-0.21875 1.4258-0.16797 1.0234 0.15234 0.98828-0.59766 1.1992-0.64062 1.0625 0.10938 1.0859-0.46094 1.082-0.23438 0.98047-0.10547 1.1211 0.37109 1.5664 0.55469 1.1289 0.41016 1.0156 0.41797 1.3945 1.0234 0.91016 1.0898 0.26172 0.68359 0.75781-0.28516 1.2969 0.38281 1.0039 0.63281 0.84375 0.082031 1.2578-0.26953 1.2031-0.12109 1.2148 0.18359 1.0469 0.83594 1.1016 0.16406 1.3477 0.30078 1.3516 0.89844 0.98438 0.71094 1.0625 0.49609 1.0664-0.042969 1.1289-0.96875 0.50781-0.70703 0.76953 0.90625 1.1523-0.10547 1.3086 0.20703 1.4688 0.24219 1.1133-0.33203 1.4609-0.64453 1.1133-0.5625 0.84766 0.09375 1.3672-0.48047 0.92188-0.9375 0.70703-0.47656 0.96094-0.86328 0.64453-1.4023 0.85156-1.3438 0.65234-0.99609-0.12891-1.1562 0.63281-0.89844 1.1445-1.0859-0.23828-1.0195-0.51172-1.0508 0.050781-0.95312-0.35547-1.0273 0.69141-1.1602 0.27734-1.2383-0.25391-1.1602 0.85547-1.043 0.27734-1.3555 0.53516-1.2891-0.046875-1.0469-0.27734-0.69141-1.4688-0.28906-1.4492-0.23047-1.4336-1.1914-0.47266-1.3594 0.15234-0.57031 0.97656-0.71094 1.8164-0.64453 0.76562-1.6133 0.82031-1.0391 0.12109-0.82422 0.90625-1.2656 0.82031-1.4648 0.76172-1.0078 0.13672-1.0117 0.42578-0.92578 1.1953-0.039062 1.1094-0.32812 0.99219-1.2383-0.058594-0.76562-0.73438-0.60938-1.3711-0.89062-1.2109-1.0625-0.23828-1.2383 0.39062-0.86719 0.54297-1.1172 0.27344-1.6641-0.042969-1.4258-0.47656-1.3516-0.87109-2-0.13281-1 0.35156-1.0625 0.46484-1.4492 0.31641-1.0391-0.09375-1.4102 0.79688-0.95703 0.85156 0.16406 0.99219-0.41406 1.1484-0.92969 1.1484-1.5195 0.625-1.0234 1.3984-0.85547 0.76172-0.48047 0.96484-0.54688 0.97266-0.14453 1.3203 0.37109 1.0312-0.32031 1.082-1.7148-0.27344-1.0508-0.77344-1.6328-1.2969-0.57031-1.0859-0.72656-1.2344-0.59375-1.1211 0.007813-1.2578-0.71094-1.6445-1.5039-2.6484-0.65234-1.4961-0.70703-2.0352-0.097656-1.7344-0.10156-1.2969-0.40234-1.457-1.0195-0.67969-0.90625-0.55859-1.5234-0.74609-1.1836-0.23828-1.1016-0.14062-0.94922-0.55859-1.2344-0.5625-1.207-0.98438-0.41797-1.6641-0.32422-1.6289 0.24609-1.3047-0.40625-1.0039-0.67578-1.7656-0.375-1.5664-0.22266-1.0273-0.78516-1.1523-1.2617-1.75-0.80859-1.5195-0.49609-0.95703-1.1914-0.67969-1.2344-0.44922-0.95703-0.53125-0.44531-1.5391 0.34375-1.6445 0.066406-1.2422-0.75391-1.5938-0.66406-1.4336-0.80469-0.72266-1.1211-0.53906-0.98438 0.48828-1.1211 0.44531-1.5195 0.12891-1.0195 0.042968-1.5156-0.47266-0.60547-0.95703-1.0039-0.53906-1.4883 0.5625-1.4297 0.53516-1.7773-0.066407-1.0742-0.19531-0.96484 0.33594-1.7109 1.2422-1.2383 0.48438-1.5547-0.17969-0.83984-1.9648-0.15625-1.0352-1.0508-0.20703-1.8438-0.015625-1.6641-0.73047-2.082-0.375-1.0977-0.089843-1.4023 0.26172-0.67188-1.8086-0.26953-1.8008 0.14453-2.8516-0.13672-1.3906 0.3125-1.375 1.1367-2.0586 0.64453-1.1719 0.32812-1.3164-0.76562-1.5391-1.2695-1.3008-1.1367-0.83594-1.2734-0.42969-0.86328-0.70312-0.84375-1.0781-1.1367-0.42969-0.92969 0.47656-1.0273 1.3906-1.9883 1.1484-1.4297 0.10547-1.293-0.36719-0.85938-0.75-0.44531-1.4375 0.10156-1.4258 0.625-1.3945-1.2148-0.54297-1.7031-1.0898-1.5-0.8125-1.1758-1.5664-0.95703-1.668-1.4492-2.0703-1.1406-1.3125-1.1953-0.60547-1.6484-0.875-0.59766-0.92969-0.78906-1.0195-1.0195-0.9375-0.69922-0.83203-1.2422-1.3164-1.1094-0.55859-1.1016 0.042968-1.6992 0.027344-1.6328-0.91016-0.95703-1.4609-0.71094-1.0859-0.57031-1.5391 0.23047-0.98047-0.92969-0.63672-1.2891-0.27344-1.4219-1.0625-1.1484-0.33203-1.2539-0.63281-1.5508-0.050782-0.92578-0.39844-0.59375-1.0078-1.3789 0.14844-0.8125-0.98047-0.75-0.69531-1-0.5625-3.3359-0.75781-0.99219-0.22656-2.1289-0.20312-0.70312-0.98047-0.90625-1.25-0.99219-0.53125-1.8086-1.7773-0.19922-0.98047-0.21875-1.0273-0.64062-0.85156-1.1016-0.52734-1.0898-0.37109-0.87891-0.65234-1.043-1.2188-1.1055-0.67578-1.5898-0.58594-1.2656-0.31641-0.74219 0.72266-1.0156 1.1211-1.1797 0.62109-1.3008 0.51953-1.9258-0.046875-2.3516 0.058594-1.3008-0.83203-1.207-1.1211-0.62109-1.0234-0.37109-1.3281-0.59766-0.89062-1.0273-0.19141-1.2969 0.34766-0.24609-1.3789-0.085938-1.5273 0.49609-1.1914-0.007812-1.6328-0.078125-1.0039-0.082032-1.3516-0.30078-1.25-0.72656-0.75-0.49609-0.98438-0.85156-0.76172-1.4883-0.38672-0.11328-1.1641 0.32422-1.0078 0.38281-1.0117-0.17578-1.0078-0.76562-0.94922 0.37891-1.1562 0.60547-1.2891 0.65234-0.95703-0.16406-1.7461-0.33594-1.3281 0.73828-1.0703 0.51953-0.98438 1.3438-0.75 0.90625-0.71094 0.80859-1.1445 0.26172-1.2422 0.95312-1.2148 0.11719-1.0312 0.035156-1.7461-0.625-1.8867-0.66797-1.0273-0.87891-0.625-0.66016-0.75391 0.42188-1.0859-0.33594-1.2695-0.94922-0.44922-1.3008-0.11328-0.875 1.1719-1.2266 0.69141-1.1172-0.007812-0.99219-0.25391 0.14844-1.6758 0.82812-1.5625 0.41016-0.96484-0.32422-1.5117-0.93359-1.4766 0.43359-1.3086 1.1719-1.1641 0.6875-1.4062 0.13672-1.1758-0.32422-1.0898 0.43359-1.0234 0.37891-0.98438 0.12891-1.457 0.25391-1.1016 0.30078-1.2656 0.33984-1.3359 0.66797-1.207 1.1953-1.1914-0.046875-1.1797-0.74609-0.79297-0.44141-1.2344-0.64453-1-0.95703-1.1445-0.92578-1.832-0.44141-0.90234 0.011719-1.1406 0.59375-1.0039 1.3203-1.7422 0.59766-0.89062 0.91406-1.457 0.40234-1.0234 0.17969-1.2148 0.09375-1.5273 0.17578-1.2148 0.39062-1.1953 0.71484-1.4375 0.78516-1.2578 1.5898-1.9648 2.0156-2.043 1.1484-1.2461 0.50781-1.0977 1.8555-0.40234 1.2305-0.25391h1.2344l0.99609-1.1641 0.77734-0.90625 0.82031-0.71875-0.097657-1.2461 0.54688-0.87891 0.625-0.86328 0.16016-1.0195-0.10156-1.3086 0.039063-1.1484-0.019532-1.0781-0.14453-1.0859 0.14453-1.4258-0.16016-1.0508-0.37109-0.96875 0.015625-1.4453-0.39062-1.375-0.375-1.043-1.2539-0.57031-1.207-0.44141-0.44922-1.3164 0.1875-1.0703 0.51953-1.7461 0.38281-1.8555 0.20312-1.1836 0.21484-1.4102 0.39453-1.0781 0.55469-0.83594-0.19141-1.1484-0.17578-0.99609 0.078125-1.0898-0.12109-1.3828-0.38281-1.9961 1.0156-0.46875 1.1523-0.39062 1.1797-0.54297 1.0039-0.625 0.82422-0.73828 1.4141-0.027344 1.0781-0.64062 1.668-0.37891 1.1367 0.24609 1.2617 0.29688 1.1758-0.68359 0.078125-1.3477-0.15234-4.6289-0.70703-3.0703-0.39844-1.9492 0.37109-1.1094 0.96484-1.168 0.60938-1.1289 0.66406-1.1445-0.13281-1.1836-0.16797-0.98828 0.17969-1.1172 1.2266-0.097656 1.3555-0.59375 1.2656-2.0781 0.96484-1.6914 0.15234-1.2695 0.94922-0.98438 0.93359-1.082 0.73828-0.76953 0.66016-0.84375-0.50781-1.9492-1.1719-1.5664-0.19141-1.0391-0.3125-0.97656-0.53516-1.8398-0.25391-1.1445 0.003906-1.207 0.058594-1.3906-0.45703-2.1523-0.3125-1.6406-0.10547-1.2852-0.22656-1.3633-0.44141-1.6602 0.015625-1.4336-0.33203-1.0586-0.074219-1.1328-0.18359-1.2852-0.39062-1.3594-0.15234-1.1953 0.019531-1.1875 0.22266-1.0195 0.089844-1.2188-0.19531-1.0508-0.42188-1.125-0.39844-1.3242-0.003906-1.1914-0.019531-1.0586-0.66016-1.2148-0.26172-1.0195 0.28125-1.1641-0.79688-1.3711-0.15625-1.3359-0.28906-0.99219-0.60156-1.0703-0.35547-1.1797-0.78516-1.2305-0.68359-1.2188-0.94531-1.0156-0.43359-0.91797-0.49609-0.98047 0.77734-0.74219 0.96875-0.64062 0.80859-1.0156 0.79297-0.91406 0.95703-0.82031 0.125-1.2656 0.66797-0.95312 0.71094-0.75391 0.77344-0.68359 0.09375-1.168-0.019531-1.4492 0.015625-1.1211-0.039063-1.0234-0.29297-1.0703 0.23047-0.99609 1.0195-0.45703 1.0117 0.19922 1.1016-0.47266 0.79297-0.90234 0.95703-0.49219 0.96875 0.41016 3.7891 0.35938 2.4961-0.16016 1.0938-0.85938 0.98828-0.30078 2.9648-1.918 2.3789-1.3945 1.0195-0.27734 2.2656-0.019531 2.5898-1.1406 1.8711-1.2031 0.91797-0.58984 1.1797-0.33594 1.0938-0.82812 2.0195-0.76953 1.1836-0.011718 1.0664 0.054687 1.1406-0.22266 0.73828 0.042969" fill="none" stroke="#fff" stroke-linecap="round" stroke-linejoin="round" stroke-miterlimit="10" stroke-width="2"/>
<path d="m67.316 110.12 22.672 1.2227 9.6016 0.54297-1.1133 0.65234-1.0078 0.30859-2.6055 0.73828-1.6406 0.69922-1.5742 0.52344-0.98438 0.75-0.49219 1.1953-0.46484 1.5508-0.82422 1.5234-0.84375 0.85547-1.2734 0.76562-1.125 0.35547-0.84375 0.90234-1.4102 0.54688-1.5508 0.39453-1.0312 0.007812-0.94141 0.42969-1.5312 0.82031-1.1172 0.94531-0.39062 0.92188 0.33594 1.582 0.21484 1.2617 0.40625 1.4453 0.30469 0.99219 0.17969 1.0547 0.37891 1.3438 0.15234 1.0586 0.34766 1.0664-0.33984 1.0391 0.25781 1.2734 0.39062 1.0664 0.67578 1 0.51953 0.96484 0.26172 1.1289 0.53125 0.92969 0.90625 0.45703-0.015625 1.2773-0.015625 1.0508 0.61719 0.94531 0.58594 1.4805 0.42578 1.1211 0.20703 1.2031-0.30078 1.6016 0.5 1.1406 0.43359 1.0742-0.12109 1.0625 0.97266 0.57031 1.4648 1.1914 0.60938 1.207 0.30859 1.5117 0.83203 0.61719 0.87891 1.3516 0.93359 0.60938 0.60938 0.88281 0.28906 1.0156 0.67969 0.78516 0.6875 1.3242 1.0508 1.1992 0.49609 0.98047 0.43359 0.91797 0.78125 0.75781 0.55859 1.0508 0.79297 0.72266 0.52344 1.4141 0.27734 0.98828 0.53125 1.0234 0.23047 1.4609 0.63672 1.4102 0.089843 1.4609 0.17188 1.3086 0.66016 1.2148 0.019531 1.0586 0.003906 1.1914 0.39844 1.3242 0.42188 1.125 0.19531 1.0508-0.09375 1.0312-0.21484 1.2031-0.023437 1.1914 0.15234 1.1953 0.39062 1.3594 0.33594 0.95312-0.078125 1.4648 0.33203 1.0586-0.015625 1.4336 0.43359 1.4961 0.23438 1.5273 0.10547 1.2852 0.3125 1.6406 0.19922 1.5352 0.41797 1.043-0.22266 2.1719 0.25391 1.1445 0.53516 1.8398 0.3125 0.97656 0.17969 0.99609 0.60938 1.0586 1.043 1.793-0.11328 1.1094-0.80859 0.70312-0.66797 0.89453-1.3789 1.0781-0.27344 1.6016-1.1172 1.9609-0.71094 1.25-1.125 1.1797-1.1719 0.32812-0.96875 0.27344 0.11719 1.8438 0.13281 1.1836-0.66406 1.1445-0.60938 1.1289-0.78125 0.70312-0.48828 0.89453 0.33203 2.6289 0.70703 3.0703 0.12109 3.6328-0.046875 2.3438-1.1758 0.68359-1.0625 0.058594-1.3359-0.60156-1.668 0.37891-1.0781 0.64062-1.4141 0.027344-0.60547-1.1836-0.0625-1.1602 0.019531-1.5195-0.011718-1.2773 0.44141-1.0273 0.20312-1.0859 0.59766-1.4531-0.015625-1.793-0.35547-1.2227 0.22656-0.99609 0.96094-0.46875 0.17578-1.25-0.29688-0.98828 0.22656-1.0898-0.33984-0.99609-0.46484-1.168-0.25-1.0391-0.34375-1.2461-0.46875-0.99609-0.29688-1-0.55469-0.86328-0.042969-1.0078-0.64844-0.77734-0.15234-1.1328-0.039062-1.0156 0.96875-0.32422 0.92188-0.51953-0.44922-1.043 0.16797-1.0078-0.26562-0.98828 0.050781-1.0039-0.77734-0.65234-0.12109-1-0.19922-1.0508-0.55078-1.125-0.27344-1.207-0.33203-1.0664-0.19141-1.1172-0.03125-1.0664-0.007812-1.1523 0.41016-0.91406 0.52344-0.875-0.30859-1.0117 0.25391-1.0234-0.91406-0.47656-0.61719-0.83203-0.72266-1.1016-0.53516-0.85547 0.67969-0.76953 0.61719-0.78516 0.10547-1.1211 0.027344-1.1758 0.93359-0.5625 0.22656-1.4062 0.1875-1.0195 0.050782-1.0195-0.44922-0.89844 0.32422-0.98047-0.03125-1.1602-0.35156-1.1094-0.30469-0.99219 0.64062-0.83203-0.12109-1.0273-0.5-0.96094-0.97656-0.22656 0.042969-1.0078 0.35547-0.94531 0.82812-0.80078 0.66797-0.75781 0.54688-0.89062-0.49609-0.92969 0.37109-0.94922 0.27344-0.98828 1.0586-0.13672-0.007813-1.0508-0.14062-1.1055-0.80859-0.97266-0.38672-1.0039 0.050781-1.1094-0.69922-0.75781-0.46094-0.98438-1.0195 0.078125-0.21484-1.043-0.019531-1.168-0.84766-0.54688-1.0039-0.29688-0.38672-0.99609-0.38672-1.0625-1.0117-0.17969-0.62891-0.89062 0.46094-0.96484-0.085937-1.0195-0.96484-0.64062-1.0352-0.47656-0.83984 0.71094-0.63672-0.92578-0.49219-0.88672-0.37891-1.168-0.70703-0.84766-0.86719-0.54297-0.68359 0.84375-1.0625 0.26172-0.98438-0.23438-0.63672-0.80469-1.0625-0.57031-0.64062-0.77344-0.49609-0.89844-0.56641-0.85547-0.35547-0.98828 0.75391-0.69922-0.20312-0.98438 0.22656-1.0586 0.45312-0.93359 0.89453-0.51953 1.0352-0.32422-0.48828-0.92578 0.59766-0.94141-0.39062-0.97656-0.85547-0.52344 0.15625-0.99219-0.47266-0.95312-0.11719-1.0117-0.42969-1.043-0.55469-0.83594-0.62109-1.0625-0.82031-0.59375-0.027344-1.0977-0.32031-0.95703-0.21094-1.0195-0.125-1.0156-0.69922-1-0.35938-0.95312 0.16797-1.0195-0.23438-1.0391-0.027344-1.1445-0.57031-1-0.64453-0.8125-1.0234-0.25-0.91797-0.53906-0.82812-0.64453-1.1172-0.35156-0.73438-0.75781-1.2617-0.085937-1.1758-0.68359-0.85938-0.67969-0.88281-0.58203-0.44531-1.0078 0.67578-0.99609 0.96094-0.41797 1.0859-0.24609 0.88281-0.98438 0.44531-1.0352 0.46094-0.96484 0.5-1.1562 0.83984-1.1836 1.0234-0.41406 1.4375 0.53906 1.8203-1.0664 0.62109-0.93359 0.16406-1.5234z" fill="#ccc" fill-rule="evenodd"/>
<path d="m67.316 110.12 22.672 1.2227 9.6016 0.54297-1.1133 0.65234-1.0078 0.30859-2.6055 0.73828-1.6406 0.69922-1.5742 0.52344-0.98438 0.75-0.49219 1.1953-0.46484 1.5508-0.82422 1.5234-0.84375 0.85547-1.2734 0.76562-1.125 0.35547-0.84375 0.90234-1.4102 0.54688-1.5508 0.39453-1.0312 0.007812-0.94141 0.42969-1.5312 0.82031-1.1172 0.94531-0.39062 0.92188 0.33594 1.582 0.21484 1.2617 0.40625 1.4453 0.30469 0.99219 0.17969 1.0547 0.37891 1.3438 0.15234 1.0586 0.34766 1.0664-0.33984 1.0391 0.25781 1.2734 0.39062 1.0664 0.67578 1 0.51953 0.96484 0.26172 1.1289 0.53125 0.92969 0.90625 0.45703-0.015625 1.2773-0.015625 1.0508 0.61719 0.94531 0.58594 1.4805 0.42578 1.1211 0.20703 1.2031-0.30078 1.6016 0.5 1.1406 0.43359 1.0742-0.12109 1.0625 0.97266 0.57031 1.4648 1.1914 0.60938 1.207 0.30859 1.5117 0.83203 0.61719 0.87891 1.3516 0.93359 0.60938 0.60938 0.88281 0.28906 1.0156 0.67969 0.78516 0.6875 1.3242 1.0508 1.1992 0.49609 0.98047 0.43359 0.91797 0.78125 0.75781 0.55859 1.0508 0.79297 0.72266 0.52344 1.4141 0.27734 0.98828 0.53125 1.0234 0.23047 1.4609 0.63672 1.4102 0.089843 1.4609 0.17188 1.3086 0.66016 1.2148 0.019531 1.0586 0.003906 1.1914 0.39844 1.3242 0.42188 1.125 0.19531 1.0508-0.09375 1.0312-0.21484 1.2031-0.023437 1.1914 0.15234 1.1953 0.39062 1.3594 0.33594 0.95312-0.078125 1.4648 0.33203 1.0586-0.015625 1.4336 0.43359 1.4961 0.23438 1.5273 0.10547 1.2852 0.3125 1.6406 0.19922 1.5352 0.41797 1.043-0.22266 2.1719 0.25391 1.1445 0.53516 1.8398 0.3125 0.97656 0.17969 0.99609 0.60938 1.0586 1.043 1.793-0.11328 1.1094-0.80859 0.70312-0.66797 0.89453-1.3789 1.0781-0.27344 1.6016-1.1172 1.9609-0.71094 1.25-1.125 1.1797-1.1719 0.32812-0.96875 0.27344 0.11719 1.8438 0.13281 1.1836-0.66406 1.1445-0.60938 1.1289-0.78125 0.70312-0.48828 0.89453 0.33203 2.6289 0.70703 3.0703 0.12109 3.6328-0.046875 2.3438-1.1758 0.68359-1.0625 0.058594-1.3359-0.60156-1.668 0.37891-1.0781 0.64062-1.4141 0.027344-0.60547-1.1836-0.0625-1.1602 0.019531-1.5195-0.011718-1.2773 0.44141-1.0273 0.20312-1.0859 0.59766-1.4531-0.015625-1.793-0.35547-1.2227 0.22656-0.99609 0.96094-0.46875 0.17578-1.25-0.29688-0.98828 0.22656-1.0898-0.33984-0.99609-0.46484-1.168-0.25-1.0391-0.34375-1.2461-0.46875-0.99609-0.29688-1-0.55469-0.86328-0.042969-1.0078-0.64844-0.77734-0.15234-1.1328-0.039062-1.0156 0.96875-0.32422 0.92188-0.51953-0.44922-1.043 0.16797-1.0078-0.26562-0.98828 0.050781-1.0039-0.77734-0.65234-0.12109-1-0.19922-1.0508-0.55078-1.125-0.27344-1.207-0.33203-1.0664-0.19141-1.1172-0.03125-1.0664-0.007812-1.1523 0.41016-0.91406 0.52344-0.875-0.30859-1.0117 0.25391-1.0234-0.91406-0.47656-0.61719-0.83203-0.72266-1.1016-0.53516-0.85547 0.67969-0.76953 0.61719-0.78516 0.10547-1.1211 0.027344-1.1758 0.93359-0.5625 0.22656-1.4062 0.1875-1.0195 0.050782-1.0195-0.44922-0.89844 0.32422-0.98047-0.03125-1.1602-0.35156-1.1094-0.30469-0.99219 0.64062-0.83203-0.12109-1.0273-0.5-0.96094-0.97656-0.22656 0.042969-1.0078 0.35547-0.94531 0.82812-0.80078 0.66797-0.75781 0.54688-0.89062-0.49609-0.92969 0.37109-0.94922 0.27344-0.98828 1.0586-0.13672-0.007813-1.0508-0.14062-1.1055-0.80859-0.97266-0.38672-1.0039 0.050781-1.1094-0.69922-0.75781-0.46094-0.98438-1.0195 0.078125-0.21484-1.043-0.019531-1.168-0.84766-0.54688-1.0039-0.29688-0.38672-0.99609-0.38672-1.0625-1.0117-0.17969-0.62891-0.89062 0.46094-0.96484-0.085937-1.0195-0.96484-0.64062-1.0352-0.47656-0.83984 0.71094-0.63672-0.92578-0.49219-0.88672-0.37891-1.168-0.70703-0.84766-0.86719-0.54297-0.68359 0.84375-1.0625 0.26172-0.98438-0.23438-0.63672-0.80469-1.0625-0.57031-0.64062-0.77344-0.49609-0.89844-0.56641-0.85547-0.35547-0.98828 0.75391-0.69922-0.20312-0.98438 0.22656-1.0586 0.45312-0.93359 0.89453-0.51953 1.0352-0.32422-0.48828-0.92578 0.59766-0.94141-0.39062-0.97656-0.85547-0.52344 0.15625-0.99219-0.47266-0.95312-0.11719-1.0117-0.42969-1.043-0.55469-0.83594-0.62109-1.0625-0.82031-0.59375-0.027344-1.0977-0.32031-0.95703-0.21094-1.0195-0.125-1.0156-0.69922-1-0.35938-0.95312 0.16797-1.0195-0.23438-1.0391-0.027344-1.1445-0.57031-1-0.64453-0.8125-1.0234-0.25-0.91797-0.53906-0.82812-0.64453-1.1172-0.35156-0.73438-0.75781-1.2617-0.085937-1.1758-0.68359-0.85938-0.67969-0.88281-0.58203-0.44531-1.0078 0.67578-0.99609 0.96094-0.41797 1.0859-0.24609 0.88281-0.98438 0.44531-1.0352 0.46094-0.96484 0.5-1.1562 0.83984-1.1836 1.0234-0.41406 1.4375 0.53906 1.8203-1.0664 0.62109-0.93359 0.16406-1.5234 0.77734-0.64062" fill="none" stroke="#fff" stroke-linecap="round" stroke-linejoin="round" stroke-miterlimit="10" stroke-width="2"/>
<path d="m131.18 83.691 0.085937 0.10547-0.14844 1.0664 0.007812 1.293 0.078125 1.0391 0.070313 1.293 0.64844 0.79688 1.1133-0.23438 1.0977 0.11719 0.80078-0.64453 0.81641-0.875 1.0469-0.10547 1.1836-0.09375 0.9375 0.42969 1.0898 0.070313 1.0508-0.25781 1.168-0.27344 1.2227 0.41016 1.9414 0.074219 0.80078 0.69141 0.41406 1.0078 1.0547 0.90625 1.5156 0.88281 1.0078 0.65625 0.62109 0.99219 1.4297-0.37109 1.2812 0.35156 0.97266 0.95703 0.72266 1.082 1.2461 0.55078 1.3164 0.3125 0.94922 1.0547 0.26562 1.0078 0.6875 0.80469 0.79297 0.69531 0.36719 0.95312 1.1211 0.52734 1.6016 0.61719 1.6953 0.015625 1.0703-0.41016 0.85547-0.82812 1.4336 0.023438 1.0352 0.55078 1.1836 0.82031 1.0938 0.27344 1.3008 0.066406 1.2109 0.72266 1.3125-0.46484 1.5781-0.11719 1.2852-0.039062 0.80859-0.58984 1.5117 0.45312 1.207 0.44141 1.9453 1.1445 1.2305 1.1602 0.90625 0.55469 1.1914-0.62891 1.2227-0.14453 1.0625-0.17969 1.1445 0.50391 0.82812 0.63281 1.4844 0.69141 1.168 0.32812 1.7891-0.1875 1.0078-0.050781 1.0625 0.1875 1.4141-0.28516 1.4023-0.21875 1.3164 0.41016 1.4648 0.54688 1.7188 0.34766 0.88281 0.50781 0.375 1.0859 0.058593 1.5312 0.30859 1.1523 0.8125 0.99609 1.0547 0.92969 0.70703 1.3242-0.050781 1.3281-0.42578 1.5859-1.0938 1.5195-0.09375 1.1328 0.042969 1.4141 0.58594 1.0039 0.39453 1.0508 0.34766 1.2383 0.44141 1.375-0.21875 1.0273-0.30469 0.96484-0.42188 0.91016 0.13281 1.1719 0.24609 1.5117-0.32031 1.3711 0.17188 0.99219 0.15625 1.3555 0.25 1.0625-0.29297 1.2305 0.0625 2.2734-0.007813 1.7031 1.2422 1.0391 1.1992 0.35938 1.1445 0.20703 1.0664 0.71875 0.21094 1.6055-0.42188 1.5586-0.31641 1.2383-0.96094 1.3672-0.96094 0.95312-1.1523 0.72656-1.0234 0.76953 1.2422 0.24609-0.03125 1.293-0.39062 1.25-0.24609 1.4922-0.32812 1.0234-0.67188 0.87109-0.55078 1.0117-0.27344 0.98828-0.65234 1.1797-0.13672 1.0391-0.38672 1.0391-1.0781 0.86719-1.0703 0.71484-0.8125 0.94531-1.2812 0.76172-1.1055 0.33203-0.96875 0.5-0.58203 1.1758-0.82031 0.78906-0.55469 1.207-0.79688 1.5039-0.91406 0.75391-1.332 0.68359-0.99609 0.85547-0.68359 0.79688-0.83984 0.71875 0.66797 1.3555 0.50781 1.1367 0.87891 0.86328 1.3086 1.8477 0.90234 1.0273 0.89062 0.83203-0.16016 1.0742-0.49609 1.418-0.52734 1.2617-0.26953 1.3281-0.375 0.97656-0.09375 1.082-0.42969 1.3594-0.39453 1.0664-0.61719 1.3984-0.625 1.9844-0.14844 1.7852-0.57812 1.2422-0.24219 1.0039-0.82812 1 0.15234 1.832-1.0156 0.52734-1.1719-0.042969-1.0781 0.48828-0.69531 0.73438-0.46875 0.93359-0.042968 1.3047 0.32812 1.2148-0.29297 0.99219-0.73047 1.0195-1.207 0.92578-0.94531 0.5625-1.1055 0.30469-1.2969 0.61719-1.3359-0.18359-1.3945-0.37109-1 0.48828-1.1328 0.33984-1.1211 0.085938-1.2383 0.33203-1.0039 0.039062-1.1523-0.10156-1.418-0.23047-1.125-0.16406-1.3164-0.39453-0.15625-1.5781 0.26172-0.97266 0.4375-1.4023-0.015625-1.3555-0.89062-1.2656-0.57422-0.82812-0.38281-1.0312-0.625-0.85156-0.65234-0.85156-0.19922-1.0469 0.10156-1.3516-0.046875-1.1172 0.027344-1.2773 0.23047-1.0312 0.35547-1.2109 0.32031-0.98047-0.12891-1.168-0.55078-0.89453-0.12891-1.3047-0.097656-1.1836 0.050781-1.0195 0.49219-0.93359 0.75-0.91016 1.0547-0.64844 0.98438-0.52734 0.53906-0.88281 1.2461-1.0625 0.58594-1.3047 0.011718-1.2734-0.16016-1.0703-0.74219-1.5234-0.61719-0.80469-0.16797-1.1719-0.9375-0.87109-1.1719-0.3125-0.95312-0.63672-1-0.67188-1.3516-0.89453-0.5-0.94531-0.35938-1.3516-0.85547-0.62891-0.6875-1.1758-0.015625-1.1328-0.50781-1.2109-0.75781-0.79297-0.75-0.75-1.1055 0.050781-1.1641 0.44531-1.5547-2.1836-0.75781-1.1836-0.27734-1.8477-0.24609-1.8945 0.29688-1.8125-0.29688-0.98828-1.3711-1.1758-2.5156-1.5938-0.58594-0.94531-1.0508-0.55469-0.4375-1.1562-0.96484-0.52344-1.2656-0.32812-1.2188-0.52734-1.3828 0.027344-0.74609-0.80859-0.050781-1.125-0.88672-1.0977-0.52734-1.2461-0.91406-0.45703-2.1172-0.73438-0.8125-0.70312-1.4258-0.51172-1.2539-0.14062-1.1406 0.22266-1.0664-0.054687-1.1836 0.011718-1.1953 0.49219-1.918 1.1055-1.1797 0.33594-0.91797 0.58984-1.1133 0.71875-2.543 1.3516-2.082 0.28516-2.0078 0.28516-2.3789 1.3945-2.9648 1.918-0.98828 0.30078-0.83984 0.76172-1.8633 0.20312-4.6758-0.30469-0.96875-0.41016-0.95703 0.49219-0.76562 0.88281-1 0.48438-1.1406-0.19141-1.0195 0.45703-0.23047 0.99609 0.29297 1.0703 0.039063 1.0234-0.015625 1.1211 0.039062 1.0938-0.039062 1.2383-0.84766 0.96875-0.71094 0.75391-0.63672 0.79688 0.097657 1.1641-0.84375 0.72266-0.92969 0.96484-0.74219 1.0273-1.2656 0.93359-0.77734 0.74219-1.0508-1.1992-0.57812-1.1094-0.70312-0.76172-0.375-1.2539-0.60938-0.88281-0.93359-0.60938-0.48438-1.1719-1.2266-0.79688-0.30859-1.5117-0.60938-1.207-0.58203-0.83594-1.1289-0.38281-0.70312-0.98047 0.16797-1.0781-0.76172-0.83594-0.066406-1.6289 0.14453-1.2617-0.34766-1.1641-0.47266-1.4023-0.53125-1.0391-0.57422-0.99609 0.17969-1.1562-0.27734-0.96094-0.90625-0.72266-0.44922-0.99219-0.21094-1.1641-0.70312-0.85938-0.55078-1.0508-0.49609-1.293 0.18359-1.4258-0.12109-1.1914-0.25-1.2812-0.16016-0.99609-0.39844-1.4023-0.30469-0.99219-0.40625-1.4453-0.21484-1.2617-0.33594-1.582 0.39062-0.92188 1.1172-0.94531 1.0664-0.57422 0.91797-0.58203 1.0078-0.0625 1.5742-0.33594 1.2148-0.24609 1.1016-0.89062 1.5508-0.76562 0.90234-0.45312 1.2148-1.168 0.56641-0.89062 0.72266-2.1836 0.49219-1.1953 0.98438-0.75 1.1328-0.375 2.082-0.84766 1.8086-0.49609 1.4805-0.45312 1.125-0.47266 1.4844-0.5 2.8945-1.5352 2.9102-1.1523 1.2031-0.66406 1.168-0.98047 0.73047-1.0781 1.0898-0.91797 2.5469-0.88672 2.0898-0.51953 1.4219-0.60156 1.1875-1.0742 0.42578-1.2344 0.50781-0.99609 0.75781-0.90234 1.6797-0.71484 1.6758-0.33203 0.98047-0.48828 0.90234-0.91797 1.3789-0.64453 0.80078-0.65234-0.14844-1.8008 0.10156-1.7539-0.050781-1.1602 0.28516-1.6523 0.82422-0.69922 1.1367-1.2891 0.53906-0.95312 0.41406-1.0352 0.63672-1.6445z" fill="#ccc" fill-rule="evenodd"/>
<path d="m131.18 83.691 0.085937 0.10547-0.14844 1.0664 0.007812 1.293 0.078125 1.0391 0.070313 1.293 0.64844 0.79688 1.1133-0.23438 1.0977 0.11719 0.80078-0.64453 0.81641-0.875 1.0469-0.10547 1.1836-0.09375 0.9375 0.42969 1.0898 0.070313 1.0508-0.25781 1.168-0.27344 1.2227 0.41016 1.9414 0.074219 0.80078 0.69141 0.41406 1.0078 1.0547 0.90625 1.5156 0.88281 1.0078 0.65625 0.62109 0.99219 1.4297-0.37109 1.2812 0.35156 0.97266 0.95703 0.72266 1.082 1.2461 0.55078 1.3164 0.3125 0.94922 1.0547 0.26562 1.0078 0.6875 0.80469 0.79297 0.69531 0.36719 0.95312 1.1211 0.52734 1.6016 0.61719 1.6953 0.015625 1.0703-0.41016 0.85547-0.82812 1.4336 0.023438 1.0352 0.55078 1.1836 0.82031 1.0938 0.27344 1.3008 0.066406 1.2109 0.72266 1.3125-0.46484 1.5781-0.11719 1.2852-0.039062 0.80859-0.58984 1.5117 0.45312 1.207 0.44141 1.9453 1.1445 1.2305 1.1602 0.90625 0.55469 1.1914-0.62891 1.2227-0.14453 1.0625-0.17969 1.1445 0.50391 0.82812 0.63281 1.4844 0.69141 1.168 0.32812 1.7891-0.1875 1.0078-0.050781 1.0625 0.1875 1.4141-0.28516 1.4023-0.21875 1.3164 0.41016 1.4648 0.54688 1.7188 0.34766 0.88281 0.50781 0.375 1.0859 0.058593 1.5312 0.30859 1.1523 0.8125 0.99609 1.0547 0.92969 0.70703 1.3242-0.050781 1.3281-0.42578 1.5859-1.0938 1.5195-0.09375 1.1328 0.042969 1.4141 0.58594 1.0039 0.39453 1.0508 0.34766 1.2383 0.44141 1.375-0.21875 1.0273-0.30469 0.96484-0.42188 0.91016 0.13281 1.1719 0.24609 1.5117-0.32031 1.3711 0.17188 0.99219 0.15625 1.3555 0.25 1.0625-0.29297 1.2305 0.0625 2.2734-0.007813 1.7031 1.2422 1.0391 1.1992 0.35938 1.1445 0.20703 1.0664 0.71875 0.21094 1.6055-0.42188 1.5586-0.31641 1.2383-0.96094 1.3672-0.96094 0.95312-1.1523 0.72656-1.0234 0.76953 1.2422 0.24609-0.03125 1.293-0.39062 1.25-0.24609 1.4922-0.32812 1.0234-0.67188 0.87109-0.55078 1.0117-0.27344 0.98828-0.65234 1.1797-0.13672 1.0391-0.38672 1.0391-1.0781 0.86719-1.0703 0.71484-0.8125 0.94531-1.2812 0.76172-1.1055 0.33203-0.96875 0.5-0.58203 1.1758-0.82031 0.78906-0.55469 1.207-0.79688 1.5039-0.91406 0.75391-1.332 0.68359-0.99609 0.85547-0.68359 0.79688-0.83984 0.71875 0.66797 1.3555 0.50781 1.1367 0.87891 0.86328 1.3086 1.8477 0.90234 1.0273 0.89062 0.83203-0.16016 1.0742-0.49609 1.418-0.52734 1.2617-0.26953 1.3281-0.375 0.97656-0.09375 1.082-0.42969 1.3594-0.39453 1.0664-0.61719 1.3984-0.625 1.9844-0.14844 1.7852-0.57812 1.2422-0.24219 1.0039-0.82812 1 0.15234 1.832-1.0156 0.52734-1.1719-0.042969-1.0781 0.48828-0.69531 0.73438-0.46875 0.93359-0.042968 1.3047 0.32812 1.2148-0.29297 0.99219-0.73047 1.0195-1.207 0.92578-0.94531 0.5625-1.1055 0.30469-1.2969 0.61719-1.3359-0.18359-1.3945-0.37109-1 0.48828-1.1328 0.33984-1.1211 0.085938-1.2383 0.33203-1.0039 0.039062-1.1523-0.10156-1.418-0.23047-1.125-0.16406-1.3164-0.39453-0.15625-1.5781 0.26172-0.97266 0.4375-1.4023-0.015625-1.3555-0.89062-1.2656-0.57422-0.82812-0.38281-1.0312-0.625-0.85156-0.65234-0.85156-0.19922-1.0469 0.10156-1.3516-0.046875-1.1172 0.027344-1.2773 0.23047-1.0312 0.35547-1.2109 0.32031-0.98047-0.12891-1.168-0.55078-0.89453-0.12891-1.3047-0.097656-1.1836 0.050781-1.0195 0.49219-0.93359 0.75-0.91016 1.0547-0.64844 0.98438-0.52734 0.53906-0.88281 1.2461-1.0625 0.58594-1.3047 0.011718-1.2734-0.16016-1.0703-0.74219-1.5234-0.61719-0.80469-0.16797-1.1719-0.9375-0.87109-1.1719-0.3125-0.95312-0.63672-1-0.67188-1.3516-0.89453-0.5-0.94531-0.35938-1.3516-0.85547-0.62891-0.6875-1.1758-0.015625-1.1328-0.50781-1.2109-0.75781-0.79297-0.75-0.75-1.1055 0.050781-1.1641 0.44531-1.5547-2.1836-0.75781-1.1836-0.27734-1.8477-0.24609-1.8945 0.29688-1.8125-0.29688-0.98828-1.3711-1.1758-2.5156-1.5938-0.58594-0.94531-1.0508-0.55469-0.4375-1.1562-0.96484-0.52344-1.2656-0.32812-1.2188-0.52734-1.3828 0.027344-0.74609-0.80859-0.050781-1.125-0.88672-1.0977-0.52734-1.2461-0.91406-0.45703-2.1172-0.73438-0.8125-0.70312-1.4258-0.51172-1.2539-0.14062-1.1406 0.22266-1.0664-0.054687-1.1836 0.011718-1.1953 0.49219-1.918 1.1055-1.1797 0.33594-0.91797 0.58984-1.1133 0.71875-2.543 1.3516-2.082 0.28516-2.0078 0.28516-2.3789 1.3945-2.9648 1.918-0.98828 0.30078-0.83984 0.76172-1.8633 0.20312-4.6758-0.30469-0.96875-0.41016-0.95703 0.49219-0.76562 0.88281-1 0.48438-1.1406-0.19141-1.0195 0.45703-0.23047 0.99609 0.29297 1.0703 0.039063 1.0234-0.015625 1.1211 0.039062 1.0938-0.039062 1.2383-0.84766 0.96875-0.71094 0.75391-0.63672 0.79688 0.097657 1.1641-0.84375 0.72266-0.92969 0.96484-0.74219 1.0273-1.2656 0.93359-0.77734 0.74219-1.0508-1.1992-0.57812-1.1094-0.70312-0.76172-0.375-1.2539-0.60938-0.88281-0.93359-0.60938-0.48438-1.1719-1.2266-0.79688-0.30859-1.5117-0.60938-1.207-0.58203-0.83594-1.1289-0.38281-0.70312-0.98047 0.16797-1.0781-0.76172-0.83594-0.066406-1.6289 0.14453-1.2617-0.34766-1.1641-0.47266-1.4023-0.53125-1.0391-0.57422-0.99609 0.17969-1.1562-0.27734-0.96094-0.90625-0.72266-0.44922-0.99219-0.21094-1.1641-0.70312-0.85938-0.55078-1.0508-0.49609-1.293 0.18359-1.4258-0.12109-1.1914-0.25-1.2812-0.16016-0.99609-0.39844-1.4023-0.30469-0.99219-0.40625-1.4453-0.21484-1.2617-0.33594-1.582 0.39062-0.92188 1.1172-0.94531 1.0664-0.57422 0.91797-0.58203 1.0078-0.0625 1.5742-0.33594 1.2148-0.24609 1.1016-0.89062 1.5508-0.76562 0.90234-0.45312 1.2148-1.168 0.56641-0.89062 0.72266-2.1836 0.49219-1.1953 0.98438-0.75 1.1328-0.375 2.082-0.84766 1.8086-0.49609 1.4805-0.45312 1.125-0.47266 1.4844-0.5 2.8945-1.5352 2.9102-1.1523 1.2031-0.66406 1.168-0.98047 0.73047-1.0781 1.0898-0.91797 2.5469-0.88672 2.0898-0.51953 1.4219-0.60156 1.1875-1.0742 0.42578-1.2344 0.50781-0.99609 0.75781-0.90234 1.6797-0.71484 1.6758-0.33203 0.98047-0.48828 0.90234-0.91797 1.3789-0.64453 0.80078-0.65234-0.14844-1.8008 0.10156-1.7539-0.050781-1.1602 0.28516-1.6523 0.82422-0.69922 1.1367-1.2891 0.53906-0.95312 0.41406-1.0352 0.63672-1.6445 0.32812 0.30469" fill="none" stroke="#fff" stroke-linecap="round" stroke-linejoin="round" stroke-miterlimit="10" stroke-width="2"/>
<path d="m92.504 66.406 0.17969 0.50391 0.98828 0.375 1.0547-0.34375 0.83984 0.71875 0.089844 1.043 0.46484-0.99219 1.0312-0.015625 0.35156 1.0547 0.64062-0.80469-0.21094 1.3477-0.59375 0.85938 0.43359 0.99219 1.0352 0.39453 0.99219 0.21875 0.24609 1.0352-0.75391 0.96875-0.42578 0.94531 0.36719 0.98047 1.0273 0.27344 1.5156-0.16406 1.0117-0.52344 0.91797-0.50781 0.55469-0.91016 1.1523-0.050781 0.26172 1.082 0.39844 1.1523-0.28906 1.0352 0.21484 1.0469 0.91016-0.42188-0.42578 0.90625 0.49609 0.875-0.27734 1.1211 0.97266-0.26953 0.070313 1.0508 0.67578-0.87891 0.80859-0.59375 0.96484-0.76953-0.074219 1.207 0.39844 0.92188 1.1055 0.125 1.0234-0.27734-0.74609-0.875 0.73438-0.92188 1.1992 0.26172 0.39844 0.9375 0.875 0.625-0.32422 1 1.2383-0.22266 0.54688-0.97656 1.0391 0.69141-0.019531 1.0117-0.73828 0.69141 0.80078 0.66016-1.125 0.19922 0.19141 1.0117 0.75 0.85156 1.0898 0.023438 0.94531 0.51953 0.92188-0.64844 0.56641-0.97266 1.1445-0.078125 1.1719 0.17188 1.1484-0.054687 0.87109 0.63672 1.5 0.81641 1.4766 0.57031-0.17188 1.2578-0.83203 0.70312-0.28516 1.6523 0.050781 1.1602-0.10156 1.7539 0.14844 1.8008-0.80078 0.65234-0.92188 0.42188-1.3594 1.1406-0.98047 0.48828-1.6758 0.33203-1.6797 0.71484-0.75781 0.90234-0.50781 0.99609-0.42578 1.2344-1.1875 1.0742-1.4219 0.60156-2.0898 0.51953-2.5469 0.88672-1.0898 0.91797-0.73047 1.0781-1.168 0.98047-1.2031 0.66406-2.9102 1.1523-2.8945 1.5352-1.0938 0.21094-0.61328-1.5273-0.20703-1.1484-0.23438-1.2891-0.28906-1.7578-0.24219-1.5352-0.19922-1.25-0.43359-2.7148-0.18359-1.168-0.19922-1.2422-0.16797-1.1328-1.082-6.7148-0.50781-3.3477-0.18359-1.2109-0.42188-2.7812-0.15625-1.2852-0.17578-1.1484-0.63672-4.1562-0.35547-2.3125-0.51953-3.6562-0.22656-1.5039-0.16406-1.0703 0.019531-1.5703z" fill="#ccc" fill-rule="evenodd"/>
<path d="m92.504 66.406 0.17969 0.50391 0.98828 0.375 1.0547-0.34375 0.83984 0.71875 0.089844 1.043 0.46484-0.99219 1.0312-0.015625 0.35156 1.0547 0.64062-0.80469-0.21094 1.3477-0.59375 0.85938 0.43359 0.99219 1.0352 0.39453 0.99219 0.21875 0.24609 1.0352-0.75391 0.96875-0.42578 0.94531 0.36719 0.98047 1.0273 0.27344 1.5156-0.16406 1.0117-0.52344 0.91797-0.50781 0.55469-0.91016 1.1523-0.050781 0.26172 1.082 0.39844 1.1523-0.28906 1.0352 0.21484 1.0469 0.91016-0.42188-0.42578 0.90625 0.49609 0.875-0.27734 1.1211 0.97266-0.26953 0.070313 1.0508 0.67578-0.87891 0.80859-0.59375 0.96484-0.76953-0.074219 1.207 0.39844 0.92188 1.1055 0.125 1.0234-0.27734-0.74609-0.875 0.73438-0.92188 1.1992 0.26172 0.39844 0.9375 0.875 0.625-0.32422 1 1.2383-0.22266 0.54688-0.97656 1.0391 0.69141-0.019531 1.0117-0.73828 0.69141 0.80078 0.66016-1.125 0.19922 0.19141 1.0117 0.75 0.85156 1.0898 0.023438 0.94531 0.51953 0.92188-0.64844 0.56641-0.97266 1.1445-0.078125 1.1719 0.17188 1.1484-0.054687 0.87109 0.63672 1.5 0.81641 1.4766 0.57031-0.17188 1.2578-0.83203 0.70312-0.28516 1.6523 0.050781 1.1602-0.10156 1.7539 0.14844 1.8008-0.80078 0.65234-0.92188 0.42188-1.3594 1.1406-0.98047 0.48828-1.6758 0.33203-1.6797 0.71484-0.75781 0.90234-0.50781 0.99609-0.42578 1.2344-1.1875 1.0742-1.4219 0.60156-2.0898 0.51953-2.5469 0.88672-1.0898 0.91797-0.73047 1.0781-1.168 0.98047-1.2031 0.66406-2.9102 1.1523-2.8945 1.5352-1.0938 0.21094-0.61328-1.5273-0.20703-1.1484-0.23438-1.2891-0.28906-1.7578-0.24219-1.5352-0.19922-1.25-0.43359-2.7148-0.18359-1.168-0.19922-1.2422-0.16797-1.1328-1.082-6.7148-0.50781-3.3477-0.18359-1.2109-0.42188-2.7812-0.15625-1.2852-0.17578-1.1484-0.63672-4.1562-0.35547-2.3125-0.51953-3.6562-0.22656-1.5039-0.16406-1.0703 0.019531-1.5703 0.015625 0.050781" fill="none" stroke="#fff" stroke-linecap="round" stroke-linejoin="round" stroke-miterlimit="10" stroke-width="2"/>
<path d="m59.453 43.598 0.20312 0.24219 0.73047 0.82031-0.22266 1.125 0.46875 1.0117 0.96875 0.62109 0.12109 1.0117 0.99219 0.17969 1.0586 0.31641 0.84766 0.90234 1.0742 0.011719 1.1914-0.070313 1.0039 1.0312 0.71484 0.75781-0.19141 1.1641 0.9375 1.1445 0.75781 0.83594 0.73828 0.67578 1.0859 0.41406 1.0859-0.28906 1.168 0.19141 0.89062 0.51562 0.39062 0.94531 0.058594 1.0273 1.6953 0.67188 1.1875 0.17578 1 0.16016 0.9375 0.89844 1.1445 0.027344 1.0273-0.76172 0.80469-0.63672 1.0156-0.011719 1.2109 0.79688 1.4258 0.76172 0.94922 0.58203 1.5156 1.0039 1.0625 0.73828 1.1719 0.59375 0.8125 0.94141 0.89453 0.44922 1.0508-0.050781-0.058594 1.0039-0.51562 0.92969-0.83594-0.73047-0.70312 1.2148 0.29688 1.9492 0.24219 1.6094 0.51953 3.6562 0.28906 1.7383 0.70312 4.7305 0.17578 1.1484 0.15625 1.2852 0.42188 2.7812 0.18359 1.2109 0.50781 3.3477 1.082 6.7148 0.16797 1.1328 0.19922 1.2422 0.17188 1.082 0.29688 1.8594 0.34766 2.1914 0.24219 1.5352 0.21875 1.2188 0.30469 1.8281 0.20703 1.1484 0.53516 1.5391-9.3945-0.53125-22.879-1.2344-0.99219-0.94922-0.37891-1.0625-0.10938-1.2031 0.26953-1.3711 0.51562-1.3477 0.47266-1.8047-0.046875-1.5977-0.67578-0.90625-0.79297-1.2344-0.61719-1.1172 0.80469-0.67969 0.53906-0.88672-0.51562-1.043-0.88281-0.69922-0.67969-1.4023-0.95703-0.50391-0.11328-1.4414-1.2266-0.125-0.035157-1.2539-0.35156-0.96484-0.74609-1.1211-0.46875-1.2539 0.20312-1.168 1.6406-0.69922 1.1836-0.17969 0.53516-1.2266 0.96875-1.4648 0.85156-1.2656 0.23828-1.3438-0.55859-1.4336-1.1406-2.3672-1.1641-2.3164-0.88281-1.1875-0.88281-0.87109-1.1758-1.0273-0.76562-1.1289-1.2461-1.7383-1.9648-3.1406-0.53516-0.86719-0.70703-1.043-1.6758-1.9023-1.5742-2.0156-0.51172-1.5078-1.1367-2.0703-1.7539-1.8711-0.71875-0.98438-1.2578-1.6797-0.59375-0.82422-0.67188-0.92578-1.8125-2.6289 1.9297 0.17969 1.4219 0.27344 1.1797 0.19922 1.0625 0.16406 1.4961 0.039063 1.2539-0.23828 1.0703 0.26562 1.2383-0.67578 1.0195-0.32812 1.0977-0.20703 0.86328-0.51172 1.1406-0.69531 1.0625-0.20703z" fill="#ccc" fill-rule="evenodd"/>
<path d="m59.453 43.598 0.20312 0.24219 0.73047 0.82031-0.22266 1.125 0.46875 1.0117 0.96875 0.62109 0.12109 1.0117 0.99219 0.17969 1.0586 0.31641 0.84766 0.90234 1.0742 0.011719 1.1914-0.070313 1.0039 1.0312 0.71484 0.75781-0.19141 1.1641 0.9375 1.1445 0.75781 0.83594 0.73828 0.67578 1.0859 0.41406 1.0859-0.28906 1.168 0.19141 0.89062 0.51562 0.39062 0.94531 0.058594 1.0273 1.6953 0.67188 1.1875 0.17578 1 0.16016 0.9375 0.89844 1.1445 0.027344 1.0273-0.76172 0.80469-0.63672 1.0156-0.011719 1.2109 0.79688 1.4258 0.76172 0.94922 0.58203 1.5156 1.0039 1.0625 0.73828 1.1719 0.59375 0.8125 0.94141 0.89453 0.44922 1.0508-0.050781-0.058594 1.0039-0.51562 0.92969-0.83594-0.73047-0.70312 1.2148 0.29688 1.9492 0.24219 1.6094 0.51953 3.6562 0.28906 1.7383 0.70312 4.7305 0.17578 1.1484 0.15625 1.2852 0.42188 2.7812 0.18359 1.2109 0.50781 3.3477 1.082 6.7148 0.16797 1.1328 0.19922 1.2422 0.17188 1.082 0.29688 1.8594 0.34766 2.1914 0.24219 1.5352 0.21875 1.2188 0.30469 1.8281 0.20703 1.1484 0.53516 1.5391-9.3945-0.53125-22.879-1.2344-0.99219-0.94922-0.37891-1.0625-0.10938-1.2031 0.26953-1.3711 0.51562-1.3477 0.47266-1.8047-0.046875-1.5977-0.67578-0.90625-0.79297-1.2344-0.61719-1.1172 0.80469-0.67969 0.53906-0.88672-0.51562-1.043-0.88281-0.69922-0.67969-1.4023-0.95703-0.50391-0.11328-1.4414-1.2266-0.125-0.035157-1.2539-0.35156-0.96484-0.74609-1.1211-0.46875-1.2539 0.20312-1.168 1.6406-0.69922 1.1836-0.17969 0.53516-1.2266 0.96875-1.4648 0.85156-1.2656 0.23828-1.3438-0.55859-1.4336-1.1406-2.3672-1.1641-2.3164-0.88281-1.1875-0.88281-0.87109-1.1758-1.0273-0.76562-1.1289-1.2461-1.7383-1.9648-3.1406-0.53516-0.86719-0.70703-1.043-1.6758-1.9023-1.5742-2.0156-0.51172-1.5078-1.1367-2.0703-1.7539-1.8711-0.71875-0.98438-1.2578-1.6797-0.59375-0.82422-0.67188-0.92578-1.8125-2.6289 1.9297 0.17969 1.4219 0.27344 1.1797 0.19922 1.0625 0.16406 1.4961 0.039063 1.2539-0.23828 1.0703 0.26562 1.2383-0.67578 1.0195-0.32812 1.0977-0.20703 0.86328-0.51172 1.1406-0.69531 1.0625-0.20703 0.39844 0.0625" fill="none" stroke="#fff" stroke-linecap="round" stroke-linejoin="round" stroke-miterlimit="10" stroke-width="2"/>
<path d="m99.359 0.050781 0.19531 0.12891 0.88281 0.72266 0.16797 1.1992 0.30859 0.95312 0.32812 1.2812 0.79688 0.71484 0.78906 0.65625 0.72266 0.99609 0.70312 1.0156 0.83594 0.8125 0.21875 1.1797 0.21875 1.3984 0.42969 5.2305 0.20312 2.4688 0.21875 1.4531 1.8555 1.1055 2.5 1.7773 1.2617 1.6367 1.0273 0.53516 1.6406 0.95312 0.89844 0.62109 1.2227 0.82812 0.77734 1.1914-2.1211 0.84766-1.2422 0.82812 0.20703 1.2383 0.63672 1.0039-0.14844 1.1055-0.625 2.2422 0.78906 3.2734-1.2539 1.4141-1.4648 1.0898-4.9375 4.3008-0.92188 0.90625-0.88672 0.94141-1.1289 0.83203-0.94531 0.94141-0.13672 1.5977-0.3125 1.4219-0.74609 1.0586-0.8125 0.69531-0.83203 0.66797-1.3477 0.8125-0.98828 0.22266-1.2656-0.11719-1.1758 0.30859-1.0195 0.25781-0.71875 1.207-0.28125 1.2539-0.67578 0.92578-1.4062 1.0547 0.40234 0.94141 0.38672 1.0234 0.6875 0.80078-1.0859-0.45312-1.6875-0.96484-1.0273-0.71484-1.5508-1.0273-0.94922-0.58203-1.4258-0.76172-1.1758-0.76172-1.0508-0.023438-0.80469 0.63672-1.0273 0.76172-1.1445-0.027344-0.75-0.6875-1.1875-0.37109-1.1875-0.17578-1.2852-0.33984-0.57422-0.9375-0.29297-1.1719-0.88281-0.71094-1.168-0.19141-1.0859 0.28906-1.0859-0.41406-0.73828-0.67578-0.75781-0.83594-0.78516-0.77344 0.066407-1.3477-0.59766-0.89062-0.85938-0.85156-1.0273-0.30859-1.3594 0.23438-0.64453-0.79297-1.2109-0.48047-1.2109-0.22656-0.12109-1.0117-0.96875-0.62109-0.46875-1.0117 0.36328-0.98047-0.87109-0.96484-1.3398-0.25781-0.89453 0.47656-0.86719 0.61719-0.99609 0.33984-1.2891 0.23047-1.0273 0.78125-1.0234-0.035156-1.1094-0.011719-1.5859 0.13281-1.7734-0.18359-1.1797-0.19922-1.4219-0.27344-1.7461-0.16406-0.67578-0.93359-0.62891-1.625-0.32812-1.0234-0.56641-1.793-0.57031-1.375-0.54688-1.1523-1.75-3.5312-0.82812-2.0625-0.40234-1.0039-0.32812-1.0664-0.55859-1.8008-0.3125-1.0039-0.35938-0.96484-0.48828-0.92969 0.15234-1.0352 0.90625-0.70312 1.9336-0.22266 1.1719 0.19531 1.2188 0.10938 0.99219-0.13281 0.98047-0.38672 1.0039-0.050782 1.082-0.082031 1.0469-0.14453 1.0039-0.19141 1.2031 0.30859 0.76562 0.69531 0.51172 0.90234 0.85547 0.66016 0.82422 0.625 0.91797-0.75 0.87891-0.625 1.0312-0.16016 0.26172-1.082 1.1758 0.13281 1.0234-0.29297 0.60547-0.83984 0.5-0.91797 1.0273 0.16016 1.0508-0.43359 1.0156-0.16016 1.0273-0.32812 1.0312-0.27734 0.88672-0.65625 1.0234 0.13672 0.86719-0.60156 0.70703-0.78516 0.63281-0.88281 0.50391-0.94531 0.94531 0.36328 0.97266-0.28125 0.76172-0.80078 1.207 0.33594 0.91797 0.66016 1.043 0.23047 1.1797-0.1875 0.79688 0.69531 0.89062 0.50781 0.51562 0.875 0.69922 0.91406 0.14844 1.0977 1.6016-0.29297 0.84766-0.59375 0.83203-0.80078 0.93359-0.36328 0.89844-0.93359 1.0781-0.46875 0.71875-1.0273 1.0234-0.47266 0.84766-0.58203 0.75391-0.79297 1.0586-0.88281 1.0195-0.30078 1.2422-1.0469 1.2852-1.082 1.5352-1.4102 0.90234-0.83203 0.78906-0.62891 1-0.72656 0.87891-0.61328 0.95703-1.1289 0.66406-0.89844 0.66016-1.1719 0.60547-1.082 0.0625-1.0859 0.066406-1.0781z" fill="#ccc" fill-rule="evenodd"/>
<path d="m99.359 0.050781 0.19531 0.12891 0.88281 0.72266 0.16797 1.1992 0.30859 0.95312 0.32812 1.2812 0.79688 0.71484 0.78906 0.65625 0.72266 0.99609 0.70312 1.0156 0.83594 0.8125 0.21875 1.1797 0.21875 1.3984 0.42969 5.2305 0.20312 2.4688 0.21875 1.4531 1.8555 1.1055 2.5 1.7773 1.2617 1.6367 1.0273 0.53516 1.6406 0.95312 0.89844 0.62109 1.2227 0.82812 0.77734 1.1914-2.1211 0.84766-1.2422 0.82812 0.20703 1.2383 0.63672 1.0039-0.14844 1.1055-0.625 2.2422 0.78906 3.2734-1.2539 1.4141-1.4648 1.0898-4.9375 4.3008-0.92188 0.90625-0.88672 0.94141-1.1289 0.83203-0.94531 0.94141-0.13672 1.5977-0.3125 1.4219-0.74609 1.0586-0.8125 0.69531-0.83203 0.66797-1.3477 0.8125-0.98828 0.22266-1.2656-0.11719-1.1758 0.30859-1.0195 0.25781-0.71875 1.207-0.28125 1.2539-0.67578 0.92578-1.4062 1.0547 0.40234 0.94141 0.38672 1.0234 0.6875 0.80078-1.0859-0.45312-1.6875-0.96484-1.0273-0.71484-1.5508-1.0273-0.94922-0.58203-1.4258-0.76172-1.1758-0.76172-1.0508-0.023438-0.80469 0.63672-1.0273 0.76172-1.1445-0.027344-0.75-0.6875-1.1875-0.37109-1.1875-0.17578-1.2852-0.33984-0.57422-0.9375-0.29297-1.1719-0.88281-0.71094-1.168-0.19141-1.0859 0.28906-1.0859-0.41406-0.73828-0.67578-0.75781-0.83594-0.78516-0.77344 0.066407-1.3477-0.59766-0.89062-0.85938-0.85156-1.0273-0.30859-1.3594 0.23438-0.64453-0.79297-1.2109-0.48047-1.2109-0.22656-0.12109-1.0117-0.96875-0.62109-0.46875-1.0117 0.36328-0.98047-0.87109-0.96484-1.3398-0.25781-0.89453 0.47656-0.86719 0.61719-0.99609 0.33984-1.2891 0.23047-1.0273 0.78125-1.0234-0.035156-1.1094-0.011719-1.5859 0.13281-1.7734-0.18359-1.1797-0.19922-1.4219-0.27344-1.7461-0.16406-0.67578-0.93359-0.62891-1.625-0.32812-1.0234-0.56641-1.793-0.57031-1.375-0.54688-1.1523-1.75-3.5312-0.82812-2.0625-0.40234-1.0039-0.32812-1.0664-0.55859-1.8008-0.3125-1.0039-0.35938-0.96484-0.48828-0.92969 0.15234-1.0352 0.90625-0.70312 1.9336-0.22266 1.1719 0.19531 1.2188 0.10938 0.99219-0.13281 0.98047-0.38672 1.0039-0.050782 1.082-0.082031 1.0469-0.14453 1.0039-0.19141 1.2031 0.30859 0.76562 0.69531 0.51172 0.90234 0.85547 0.66016 0.82422 0.625 0.91797-0.75 0.87891-0.625 1.0312-0.16016 0.26172-1.082 1.1758 0.13281 1.0234-0.29297 0.60547-0.83984 0.5-0.91797 1.0273 0.16016 1.0508-0.43359 1.0156-0.16016 1.0273-0.32812 1.0312-0.27734 0.88672-0.65625 1.0234 0.13672 0.86719-0.60156 0.70703-0.78516 0.63281-0.88281 0.50391-0.94531 0.94531 0.36328 0.97266-0.28125 0.76172-0.80078 1.207 0.33594 0.91797 0.66016 1.043 0.23047 1.1797-0.1875 0.79688 0.69531 0.89062 0.50781 0.51562 0.875 0.69922 0.91406 0.14844 1.0977 1.6016-0.29297 0.84766-0.59375 0.83203-0.80078 0.93359-0.36328 0.89844-0.93359 1.0781-0.46875 0.71875-1.0273 1.0234-0.47266 0.84766-0.58203 0.75391-0.79297 1.0586-0.88281 1.0195-0.30078 1.2422-1.0469 1.2852-1.082 1.5352-1.4102 0.90234-0.83203 0.78906-0.62891 1-0.72656 0.87891-0.61328 0.95703-1.1289 0.66406-0.89844 0.66016-1.1719 0.60547-1.082 0.0625-1.0859 0.066406-1.0781 0.14062-0.32812" fill="none" stroke="#fff" stroke-linecap="round" stroke-linejoin="round" stroke-miterlimit="10" stroke-width="2"/>
<path d="m59.453 43.598 0.20312 0.24219 0.73047 0.82031-0.22266 1.125 0.46875 1.0117 0.96875 0.62109 0.12109 1.0117 0.99219 0.17969 1.0586 0.31641 0.84766 0.90234 1.0742 0.011719 1.1914-0.070313 1.0039 1.0312 0.71484 0.75781-0.19141 1.1641 0.9375 1.1445 0.75781 0.83594 0.73828 0.67578 1.0859 0.41406 1.0859-0.28906 1.168 0.19141 0.89062 0.51562 0.39062 0.94531 0.058594 1.0273 1.6953 0.67188 1.1875 0.17578 1 0.16016 0.9375 0.89844 1.1445 0.027344 1.0273-0.76172 0.80469-0.63672 1.0156-0.011719 1.2109 0.79688 1.4258 0.76172 0.94922 0.58203 1.5156 1.0039 1.0625 0.73828 1.1719 0.59375 0.8125 0.94141 0.89453 0.44922 1.0508-0.050781-0.058594 1.0039-0.51562 0.92969-0.83594-0.73047-0.70312 1.2148 0.29688 1.9492 0.24219 1.6094 0.51953 3.6562 0.28906 1.7383 0.70312 4.7305 0.17578 1.1484 0.15625 1.2852 0.42188 2.7812 0.18359 1.2109 0.50781 3.3477 1.082 6.7148 0.16797 1.1328 0.19922 1.2422 0.17188 1.082 0.29688 1.8594 0.34766 2.1914 0.24219 1.5352 0.21875 1.2188 0.30469 1.8281 0.20703 1.1484 0.53516 1.5391-9.3945-0.53125-22.879-1.2344-0.99219-0.94922-0.37891-1.0625-0.10938-1.2031 0.26953-1.3711 0.51562-1.3477 0.47266-1.8047-0.046875-1.5977-0.67578-0.90625-0.79297-1.2344-0.61719-1.1172 0.80469-0.67969 0.53906-0.88672-0.51562-1.043-0.88281-0.69922-0.67969-1.4023-0.95703-0.50391-0.11328-1.4414-1.2266-0.125-0.035157-1.2539-0.35156-0.96484-0.74609-1.1211-0.46875-1.2539 0.20312-1.168 1.6406-0.69922 1.1836-0.17969 0.53516-1.2266 0.96875-1.4648 0.85156-1.2656 0.23828-1.3438-0.55859-1.4336-1.1406-2.3672-1.1641-2.3164-0.88281-1.1875-0.88281-0.87109-1.1758-1.0273-0.76562-1.1289-1.2461-1.7383-1.9648-3.1406-0.53516-0.86719-0.70703-1.043-1.6758-1.9023-1.5742-2.0156-0.51172-1.5078-1.1367-2.0703-1.7539-1.8711-0.71875-0.98438-1.2578-1.6797-0.59375-0.82422-0.67188-0.92578-1.8125-2.6289 1.9297 0.17969 1.4219 0.27344 1.1797 0.19922 1.0625 0.16406 1.4961 0.039063 1.2539-0.23828 1.0703 0.26562 1.2383-0.67578 1.0195-0.32812 1.0977-0.20703 0.86328-0.51172 1.1406-0.69531 1.0625-0.20703z" fill="#0a5394" fill-rule="evenodd"/>
<path d="m59.453 43.598 0.20312 0.24219 0.73047 0.82031-0.22266 1.125 0.46875 1.0117 0.96875 0.62109 0.12109 1.0117 0.99219 0.17969 1.0586 0.31641 0.84766 0.90234 1.0742 0.011719 1.1914-0.070313 1.0039 1.0312 0.71484 0.75781-0.19141 1.1641 0.9375 1.1445 0.75781 0.83594 0.73828 0.67578 1.0859 0.41406 1.0859-0.28906 1.168 0.19141 0.89062 0.51562 0.39062 0.94531 0.058594 1.0273 1.6953 0.67188 1.1875 0.17578 1 0.16016 0.9375 0.89844 1.1445 0.027344 1.0273-0.76172 0.80469-0.63672 1.0156-0.011719 1.2109 0.79688 1.4258 0.76172 0.94922 0.58203 1.5156 1.0039 1.0625 0.73828 1.1719 0.59375 0.8125 0.94141 0.89453 0.44922 1.0508-0.050781-0.058594 1.0039-0.51562 0.92969-0.83594-0.73047-0.70312 1.2148 0.29688 1.9492 0.24219 1.6094 0.51953 3.6562 0.28906 1.7383 0.70312 4.7305 0.17578 1.1484 0.15625 1.2852 0.42188 2.7812 0.18359 1.2109 0.50781 3.3477 1.082 6.7148 0.16797 1.1328 0.19922 1.2422 0.17188 1.082 0.29688 1.8594 0.34766 2.1914 0.24219 1.5352 0.21875 1.2188 0.30469 1.8281 0.20703 1.1484 0.53516 1.5391-9.3945-0.53125-22.879-1.2344-0.99219-0.94922-0.37891-1.0625-0.10938-1.2031 0.26953-1.3711 0.51562-1.3477 0.47266-1.8047-0.046875-1.5977-0.67578-0.90625-0.79297-1.2344-0.61719-1.1172 0.80469-0.67969 0.53906-0.88672-0.51562-1.043-0.88281-0.69922-0.67969-1.4023-0.95703-0.50391-0.11328-1.4414-1.2266-0.125-0.035157-1.2539-0.35156-0.96484-0.74609-1.1211-0.46875-1.2539 0.20312-1.168 1.6406-0.69922 1.1836-0.17969 0.53516-1.2266 0.96875-1.4648 0.85156-1.2656 0.23828-1.3438-0.55859-1.4336-1.1406-2.3672-1.1641-2.3164-0.88281-1.1875-0.88281-0.87109-1.1758-1.0273-0.76562-1.1289-1.2461-1.7383-1.9648-3.1406-0.53516-0.86719-0.70703-1.043-1.6758-1.9023-1.5742-2.0156-0.51172-1.5078-1.1367-2.0703-1.7539-1.8711-0.71875-0.98438-1.2578-1.6797-0.59375-0.82422-0.67188-0.92578-1.8125-2.6289 1.9297 0.17969 1.4219 0.27344 1.1797 0.19922 1.0625 0.16406 1.4961 0.039063 1.2539-0.23828 1.0703 0.26562 1.2383-0.67578 1.0195-0.32812 1.0977-0.20703 0.86328-0.51172 1.1406-0.69531 1.0625-0.20703 0.39844 0.0625" fill="none" stroke="#fff" stroke-linecap="round" stroke-linejoin="round" stroke-miterlimit="10"/>
<path d="m85.793 98.734c0 3.5898-2.9102 6.5-6.5 6.5s-6.5-2.9102-6.5-6.5 2.9102-6.5 6.5-6.5 6.5 2.9102 6.5 6.5" fill="#28c028" fill-rule="evenodd" stroke="#000" stroke-linecap="round" stroke-linejoin="round" stroke-miterlimit="10"/>
<path d="m86.98 105.31h6.5781c1.3008 0 2.2695 0.058594 2.9062 0.17188 0.64453 0.10547 1.2188 0.32812 1.7188 0.67188 0.50781 0.34375 0.92969 0.80469 1.2656 1.375 0.34375 0.57422 0.51562 1.2188 0.51562 1.9375 0 0.77344-0.21094 1.4805-0.625 2.125-0.41797 0.63672-0.98047 1.1172-1.6875 1.4375 1 0.29297 1.7656 0.79297 2.2969 1.5 0.53906 0.69922 0.8125 1.5273 0.8125 2.4844 0 0.74219-0.17188 1.4648-0.51562 2.1719-0.34375 0.71094-0.82031 1.2773-1.4219 1.7031-0.60547 0.41797-1.3516 0.67969-2.2344 0.78125-0.55469 0.0625-1.8906 0.10156-4.0156 0.10938h-5.5938zm3.3281 2.75v3.7969h2.1719c1.2891 0 2.0977-0.015625 2.4219-0.046875 0.5625-0.070312 1.0039-0.26953 1.3281-0.59375 0.33203-0.32031 0.5-0.75 0.5-1.2812 0-0.50781-0.14062-0.92188-0.42188-1.2344-0.28125-0.32031-0.69922-0.51953-1.25-0.59375-0.33594-0.03125-1.2812-0.046875-2.8438-0.046875zm0 6.5469v4.3906h3.0781c1.1953 0 1.9531-0.03125 2.2656-0.09375 0.5-0.09375 0.90625-0.3125 1.2188-0.65625s0.46875-0.8125 0.46875-1.4062c0-0.48828-0.12109-0.90625-0.35938-1.25-0.24219-0.34375-0.58984-0.59375-1.0469-0.75-0.44922-0.15625-1.4336-0.23438-2.9531-0.23438zm13.266 7.1719v-16.469h12.203v2.7969h-8.875v3.6406h8.2656v2.7812h-8.2656v4.4688h9.2031v2.7812zm15.438 0v-16.328h3.3281v13.547h8.2656v2.7812zm14.047 0v-16.328h3.3281v13.547h8.2656v2.7812zm28.797 0h-3.6094l-1.4375-3.7344h-6.5781l-1.3594 3.7344h-3.5312l6.4062-16.469h3.5156zm-6.1094-6.5156-2.2812-6.1094-2.2188 6.1094zm12.078 6.5156-5.8906-16.469h3.6094l4.1719 12.188 4.0312-12.188h3.5156l-5.8906 16.469zm11.047 0v-16.469h3.3125v16.469zm5.6406-5.3594 3.2344-0.3125c0.19531 1.0859 0.59375 1.8828 1.1875 2.3906 0.59375 0.51172 1.3945 0.76562 2.4062 0.76562 1.0703 0 1.8789-0.22266 2.4219-0.67188 0.53906-0.45703 0.8125-0.98828 0.8125-1.5938 0-0.39453-0.11719-0.72656-0.34375-1-0.23047-0.26953-0.625-0.50391-1.1875-0.70312-0.39844-0.13281-1.2891-0.375-2.6719-0.71875-1.7812-0.44531-3.0312-0.99219-3.75-1.6406-1.0117-0.90625-1.5156-2.0078-1.5156-3.3125 0-0.83203 0.23828-1.6133 0.71875-2.3438 0.47656-0.72656 1.1602-1.2852 2.0469-1.6719 0.89453-0.38281 1.9766-0.57812 3.25-0.57812 2.0625 0 3.6133 0.45312 4.6562 1.3594 1.0508 0.90625 1.6016 2.1172 1.6562 3.625l-3.3281 0.15625c-0.14844-0.84375-0.45312-1.4531-0.92188-1.8281-0.46094-0.375-1.1562-0.5625-2.0938-0.5625-0.96875 0-1.7305 0.20312-2.2812 0.60938-0.34375 0.25-0.51562 0.58984-0.51562 1.0156 0 0.38672 0.16016 0.71875 0.48438 1 0.42578 0.35547 1.4453 0.72656 3.0625 1.1094 1.6133 0.375 2.8047 0.76562 3.5781 1.1719 0.78125 0.40625 1.3906 0.96484 1.8281 1.6719 0.4375 0.71094 0.65625 1.5859 0.65625 2.625 0 0.94922-0.26562 1.8359-0.79688 2.6562-0.52344 0.82422-1.2617 1.4375-2.2188 1.8438-0.96094 0.39453-2.1523 0.59375-3.5781 0.59375-2.0859 0-3.6836-0.47656-4.7969-1.4375-1.1172-0.96875-1.7812-2.375-2-4.2188zm19.891 5.3594v-13.672h-4.875v-2.7969h13.078v2.7969h-4.875v13.672zm25.188 0h-3.6094l-1.4375-3.7344h-6.5781l-1.3594 3.7344h-3.5312l6.4062-16.469h3.5156zm-6.1094-6.5156-2.2812-6.1094-2.2188 6.1094zm0 0" fill="none" stroke="#fff" stroke-linecap="round" stroke-linejoin="round" stroke-miterlimit="10" stroke-width="2"/>
<path d="m86.98 105.31h6.5781c1.3008 0 2.2695 0.058594 2.9062 0.17188 0.64453 0.10547 1.2188 0.32812 1.7188 0.67188 0.50781 0.34375 0.92969 0.80469 1.2656 1.375 0.34375 0.57422 0.51562 1.2188 0.51562 1.9375 0 0.77344-0.21094 1.4805-0.625 2.125-0.41797 0.63672-0.98047 1.1172-1.6875 1.4375 1 0.29297 1.7656 0.79297 2.2969 1.5 0.53906 0.69922 0.8125 1.5273 0.8125 2.4844 0 0.74219-0.17188 1.4648-0.51562 2.1719-0.34375 0.71094-0.82031 1.2773-1.4219 1.7031-0.60547 0.41797-1.3516 0.67969-2.2344 0.78125-0.55469 0.0625-1.8906 0.10156-4.0156 0.10938h-5.5938zm3.3281 2.75v3.7969h2.1719c1.2891 0 2.0977-0.015625 2.4219-0.046875 0.5625-0.070312 1.0039-0.26953 1.3281-0.59375 0.33203-0.32031 0.5-0.75 0.5-1.2812 0-0.50781-0.14062-0.92188-0.42188-1.2344-0.28125-0.32031-0.69922-0.51953-1.25-0.59375-0.33594-0.03125-1.2812-0.046875-2.8438-0.046875zm0 6.5469v4.3906h3.0781c1.1953 0 1.9531-0.03125 2.2656-0.09375 0.5-0.09375 0.90625-0.3125 1.2188-0.65625s0.46875-0.8125 0.46875-1.4062c0-0.48828-0.12109-0.90625-0.35938-1.25-0.24219-0.34375-0.58984-0.59375-1.0469-0.75-0.44922-0.15625-1.4336-0.23438-2.9531-0.23438zm13.266 7.1719v-16.469h12.203v2.7969h-8.875v3.6406h8.2656v2.7812h-8.2656v4.4688h9.2031v2.7812zm15.438 0v-16.328h3.3281v13.547h8.2656v2.7812zm14.047 0v-16.328h3.3281v13.547h8.2656v2.7812zm28.797 0h-3.6094l-1.4375-3.7344h-6.5781l-1.3594 3.7344h-3.5312l6.4062-16.469h3.5156zm-6.1094-6.5156-2.2812-6.1094-2.2188 6.1094zm12.078 6.5156-5.8906-16.469h3.6094l4.1719 12.188 4.0312-12.188h3.5156l-5.8906 16.469zm11.047 0v-16.469h3.3125v16.469zm5.6406-5.3594 3.2344-0.3125c0.19531 1.0859 0.59375 1.8828 1.1875 2.3906 0.59375 0.51172 1.3945 0.76562 2.4062 0.76562 1.0703 0 1.8789-0.22266 2.4219-0.67188 0.53906-0.45703 0.8125-0.98828 0.8125-1.5938 0-0.39453-0.11719-0.72656-0.34375-1-0.23047-0.26953-0.625-0.50391-1.1875-0.70312-0.39844-0.13281-1.2891-0.375-2.6719-0.71875-1.7812-0.44531-3.0312-0.99219-3.75-1.6406-1.0117-0.90625-1.5156-2.0078-1.5156-3.3125 0-0.83203 0.23828-1.6133 0.71875-2.3438 0.47656-0.72656 1.1602-1.2852 2.0469-1.6719 0.89453-0.38281 1.9766-0.57812 3.25-0.57812 2.0625 0 3.6133 0.45312 4.6562 1.3594 1.0508 0.90625 1.6016 2.1172 1.6562 3.625l-3.3281 0.15625c-0.14844-0.84375-0.45312-1.4531-0.92188-1.8281-0.46094-0.375-1.1562-0.5625-2.0938-0.5625-0.96875 0-1.7305 0.20312-2.2812 0.60938-0.34375 0.25-0.51562 0.58984-0.51562 1.0156 0 0.38672 0.16016 0.71875 0.48438 1 0.42578 0.35547 1.4453 0.72656 3.0625 1.1094 1.6133 0.375 2.8047 0.76562 3.5781 1.1719 0.78125 0.40625 1.3906 0.96484 1.8281 1.6719 0.4375 0.71094 0.65625 1.5859 0.65625 2.625 0 0.94922-0.26562 1.8359-0.79688 2.6562-0.52344 0.82422-1.2617 1.4375-2.2188 1.8438-0.96094 0.39453-2.1523 0.59375-3.5781 0.59375-2.0859 0-3.6836-0.47656-4.7969-1.4375-1.1172-0.96875-1.7812-2.375-2-4.2188zm19.891 5.3594v-13.672h-4.875v-2.7969h13.078v2.7969h-4.875v13.672zm25.188 0h-3.6094l-1.4375-3.7344h-6.5781l-1.3594 3.7344h-3.5312l6.4062-16.469h3.5156zm-6.1094-6.5156-2.2812-6.1094-2.2188 6.1094z" fill-rule="evenodd"/>
</g>
</svg>
