<?xml version="1.0" encoding="UTF-8"?>
<svg width="420pt" height="500pt" version="1.1" viewBox="0 0 420 500" xmlns="http://www.w3.org/2000/svg">
<g id="a">
<rect width="420" height="500" fill="none"/>
<path d="m360.89 414.09 0.12109 0.023437 1.2617 0.25781 2.0508 0.12109 1.1211-0.15234 1.1172-0.18359 1.0273 1.0938 0.875 1.1758 0.39453 1.6641 0.33594 1.0156 0.39453 1.1719 0.58594 0.94922 1.207 0.53125 1.5-0.25391 1.1133 0.11328 1.3984 1.1289 0.082031 1.3008 1.0156 0.95703 0.38281 1.4258 0.29688 1.0586-0.90234 0.94531-0.070313 1.2148 0.36328 1-0.15234 1.5117 0.19531 1.0156 0.71094 1.082 1.5625 0.39844 0.92969 0.73438 1.582 1.7227 1.1914 1.0938 0.41797 1.1523 0.019532 1.0938-0.19922 1.6797-0.15234 1.5859-0.12891 1.3633-1.6211 0.95312-1.0664 0.39062-2.1953 0.81641-2.043 0.19531-1.3125 0.57031-1.6797 0.39062-1.0547 0.77734-0.46875 1.1953-0.74609 1.5273-1.1367 0.80469-1.8047 0.62109-1.0547 0.25781-1.625 0.83984-2.0703 1.3281-1.8203 0.47656-1.4102-0.097656-1.8125-0.9375-3.082-1.0352-1.2031-0.66016-1.3438 0.23828-1.7227 1.1211-0.85547 0.6875-0.99219 1.3438-0.89844 0.91016-1.6094 0.48828-1.9023 0.53125-0.99609 0.16797-1.668 0.5625-0.55859 1.1602 0.43359 1.1641-0.71094 0.86719-0.29688 0.98047-0.83984 0.60938-0.8125 1.043-1.3203 0.88672-0.97266 0.72266-0.78906 0.83203-1.4766-0.22656-1.2656-0.21875-0.95312 0.34766-1.0938 1.1445-1.7461 1.0859-0.82812 0.80469-0.52734 1.5039-0.66406 0.79688-1.4141 0.046875-2.1133-0.11328-2.3438-0.22266-0.92969-0.53906-1.043-1-1-0.078125-1.3203 0.39453-0.98047 0.50781-0.86719 0.58984-0.10938 1.0039-0.17188 1.2539-1.6914 0.90234-1.0156 1.0273-0.45312 0.9375 0.10938 1.1641 0.14844 1.3945 0.11328 1.0781 0.37109 1.6367 0.011719 1.2383-0.21484 2.0898-0.16406 2.1172 0.21875 1.1094 0.42188 1.6602-1.0117 1.2969-2.0586 0.84766-1.043 0.36719-1.1289 0.81641-0.84766 1.582-1.9805 1.6797-1.7422 1.0039-1.5781 0.16016-1.4531-0.12891-1.5469-0.25391-1.3555-0.25391-1.0703-0.57422-0.57422-1.1172-0.44531-0.91016-0.73438-1.2461-0.90625-1.8359 0.097656-1.1133 0.25-1.2266-0.14062-1.6367-0.98828-0.86719-0.64062-0.78125-0.40625-1.1445-0.42188-1.0664-0.24609-1-0.92188-1.9336-1.2617-1.5547-0.75391-1.3828-0.72266-1.7969-0.39844-0.99219-0.47656-1.2891-0.76953-1.3867-0.71484-1.4531-0.44531-2.4258-0.36719-2.6992-0.88281-1.4297-1.0352-0.28906-0.66016-1.1133-0.17969-1.4023-0.48828-0.90625-0.61719-1.9414-0.59766-1.8477-0.57422-1.1836-1-0.67188-0.82031-0.83594 0.035156-1.1367-0.30859-1.1992-0.88672-1.668-0.38672-2.0625-0.32031-1.5898-0.60547-1.3125-0.28516-1.0117-0.023438-1.2617-0.60547-2.0117-0.34375-2.4492-1.2891-2.4648-0.92578-0.72656 0.35156-0.95312 0.75391-0.72266 1.0469-0.57812 1.3945-0.35156 1.3047-0.37109 1.0078-1.0625 1.0781-0.69922 1.5078 0.37891 1.3281 1.3438 1.0547 0.80078 0.6875 1.293 0.57422 1.1406 0.57031 1.5273 0.35547 1.0977 0.15234 1.2969-0.089843 2.3281 1.293 1.9883 0.65234 1.2812 0.85156 0.52344 1.2695 0.35547 1.8438 0.31641 1.4297 0.29688 1.6523 0.10156 1.5039-0.19922 1.4414-0.23438 2.293-0.34766 1.9453-0.54297 1.1836-0.72266 0.42578-1.2461 0.53125-1.3281 0.90625-2.3398 0.14062-1.2031-0.1875-1.0039-0.63672-1.9102-1.0586-1.6836-0.68359-1.4648-0.54688-1.9023-0.089844-1.4336-0.26562-2.4258-0.38281-1.3984 0.28125-1.9609 1.1914-1.3008 1.1289-0.49609 2.3555-0.40625 1.3438-0.019532 1.5 0.41797 1.0742-0.35547 1.5234-0.82031 1.3555-1.0781 0.99609-1.375 0.53125-1.8203 0.49609-1.4766 1.4062 0.17578 1.418 0.35156 1.0664 1.2656 0.92188 0.59375 0.94922 0.53906 1.0781 0.33203 0.19922 1.8047-0.14062 1.0898 0.53125 1.7266 1.1641 0.039063 1.0977-1.0195 1.1406-0.25391 1.1523-0.074219 1.3672 0.44922 1.1797 0.14453 1.2578-0.46484 0.88281-0.67188 0.73047-0.83984 1.1641-0.28906 0.66406-1.043 1.6719-0.19141 1.4414-0.32422 1.1016 0.09375 1 0.33984 1.582 1.3633 1.9492 0.57422 1.6953-0.13672 1.0391-0.62109 0.67188-1.1172 1.5547-1.082 1.6523-0.16797 1.4766-0.65625 0.67969-1.0352 1.4961-0.22656 1.4844 0.35156 1.2109 0.89453 1.0312 0.085938 1.1445-0.019531 1.2266-0.375 0.72656-1.1016 0.80078-0.71094 0.9375-1.1875z" fill="#ccc" fill-rule="evenodd"/>
<path d="m360.89 414.09 0.12109 0.023437 1.2617 0.25781 2.0508 0.12109 1.1211-0.15234 1.1172-0.18359 1.0273 1.0938 0.875 1.1758 0.39453 1.6641 0.33594 1.0156 0.39453 1.1719 0.58594 0.94922 1.207 0.53125 1.5-0.25391 1.1133 0.11328 1.3984 1.1289 0.082031 1.3008 1.0156 0.95703 0.38281 1.4258 0.29688 1.0586-0.90234 0.94531-0.070313 1.2148 0.36328 1-0.15234 1.5117 0.19531 1.0156 0.71094 1.082 1.5625 0.39844 0.92969 0.73438 1.582 1.7227 1.1914 1.0938 0.41797 1.1523 0.019532 1.0938-0.19922 1.6797-0.15234 1.5859-0.12891 1.3633-1.6211 0.95312-1.0664 0.39062-2.1953 0.81641-2.043 0.19531-1.3125 0.57031-1.6797 0.39062-1.0547 0.77734-0.46875 1.1953-0.74609 1.5273-1.1367 0.80469-1.8047 0.62109-1.0547 0.25781-1.625 0.83984-2.0703 1.3281-1.8203 0.47656-1.4102-0.097656-1.8125-0.9375-3.082-1.0352-1.2031-0.66016-1.3438 0.23828-1.7227 1.1211-0.85547 0.6875-0.99219 1.3438-0.89844 0.91016-1.6094 0.48828-1.9023 0.53125-0.99609 0.16797-1.668 0.5625-0.55859 1.1602 0.43359 1.1641-0.71094 0.86719-0.29688 0.98047-0.83984 0.60938-0.8125 1.043-1.3203 0.88672-0.97266 0.72266-0.78906 0.83203-1.4766-0.22656-1.2656-0.21875-0.95312 0.34766-1.0938 1.1445-1.7461 1.0859-0.82812 0.80469-0.52734 1.5039-0.66406 0.79688-1.4141 0.046875-2.1133-0.11328-2.3438-0.22266-0.92969-0.53906-1.043-1-1-0.078125-1.3203 0.39453-0.98047 0.50781-0.86719 0.58984-0.10938 1.0039-0.17188 1.2539-1.6914 0.90234-1.0156 1.0273-0.45312 0.9375 0.10938 1.1641 0.14844 1.3945 0.11328 1.0781 0.37109 1.6367 0.011719 1.2383-0.21484 2.0898-0.16406 2.1172 0.21875 1.1094 0.42188 1.6602-1.0117 1.2969-2.0586 0.84766-1.043 0.36719-1.1289 0.81641-0.84766 1.582-1.9805 1.6797-1.7422 1.0039-1.5781 0.16016-1.4531-0.12891-1.5469-0.25391-1.3555-0.25391-1.0703-0.57422-0.57422-1.1172-0.44531-0.91016-0.73438-1.2461-0.90625-1.8359 0.097656-1.1133 0.25-1.2266-0.14062-1.6367-0.98828-0.86719-0.64062-0.78125-0.40625-1.1445-0.42188-1.0664-0.24609-1-0.92188-1.9336-1.2617-1.5547-0.75391-1.3828-0.72266-1.7969-0.39844-0.99219-0.47656-1.2891-0.76953-1.3867-0.71484-1.4531-0.44531-2.4258-0.36719-2.6992-0.88281-1.4297-1.0352-0.28906-0.66016-1.1133-0.17969-1.4023-0.48828-0.90625-0.61719-1.9414-0.59766-1.8477-0.57422-1.1836-1-0.67188-0.82031-0.83594 0.035156-1.1367-0.30859-1.1992-0.88672-1.668-0.38672-2.0625-0.32031-1.5898-0.60547-1.3125-0.28516-1.0117-0.023438-1.2617-0.60547-2.0117-0.34375-2.4492-1.2891-2.4648-0.92578-0.72656 0.35156-0.95312 0.75391-0.72266 1.0469-0.57812 1.3945-0.35156 1.3047-0.37109 1.0078-1.0625 1.0781-0.69922 1.5078 0.37891 1.3281 1.3438 1.0547 0.80078 0.6875 1.293 0.57422 1.1406 0.57031 1.5273 0.35547 1.0977 0.15234 1.2969-0.089843 2.3281 1.293 1.9883 0.65234 1.2812 0.85156 0.52344 1.2695 0.35547 1.8438 0.31641 1.4297 0.29688 1.6523 0.10156 1.5039-0.19922 1.4414-0.23438 2.293-0.34766 1.9453-0.54297 1.1836-0.72266 0.42578-1.2461 0.53125-1.3281 0.90625-2.3398 0.14062-1.2031-0.1875-1.0039-0.63672-1.9102-1.0586-1.6836-0.68359-1.4648-0.54688-1.9023-0.089844-1.4336-0.26562-2.4258-0.38281-1.3984 0.28125-1.9609 1.1914-1.3008 1.1289-0.49609 2.3555-0.40625 1.3438-0.019532 1.5 0.41797 1.0742-0.35547 1.5234-0.82031 1.3555-1.0781 0.99609-1.375 0.53125-1.8203 0.49609-1.4766 1.4062 0.17578 1.418 0.35156 1.0664 1.2656 0.92188 0.59375 0.94922 0.53906 1.0781 0.33203 0.19922 1.8047-0.14062 1.0898 0.53125 1.7266 1.1641 0.039063 1.0977-1.0195 1.1406-0.25391 1.1523-0.074219 1.3672 0.44922 1.1797 0.14453 1.2578-0.46484 0.88281-0.67188 0.73047-0.83984 1.1641-0.28906 0.66406-1.043 1.6719-0.19141 1.4414-0.32422 1.1016 0.09375 1 0.33984 1.582 1.3633 1.9492 0.57422 1.6953-0.13672 1.0391-0.62109 0.67188-1.1172 1.5547-1.082 1.6523-0.16797 1.4766-0.65625 0.67969-1.0352 1.4961-0.22656 1.4844 0.35156 1.2109 0.89453 1.0312 0.085938 1.1445-0.019531 1.2266-0.375 0.72656-1.1016 0.80078-0.71094 0.9375-1.1875 0.83984-0.1875" fill="none" stroke="#fff" stroke-linecap="round" stroke-linejoin="round" stroke-miterlimit="10" stroke-width="2"/>
<path d="m389.5 402.05 0.10156 0.17578 0.53906 1.1055 0.375 1.3359 0.375 0.98828 0.70703 0.77344 0.65625 0.94141 0.39844 1.3633-0.23438 1.4297 0.30469 1.0117 1.457-0.23438 0.9375 0.48047 0.12109 1.4375 0.09375 1.3672 1.2188 0.56641 1.3867 2.1133 0.58594 1.0312 1.7148 1.3633 0.72656 0.70312 0.66016 0.86328-0.54688 1.4492-0.87891 0.74219-1.0508 0.44922-0.51953 0.88281 0.89844 1.6172 1.1758 2.1172 0.67188 0.84375 1.3164 1.7656 0.15234 1.3281-0.0625 1.7852-0.11719 1.8398v1.3594l-0.85156 1.6758-0.95312 1.2617-0.52734 2.6758 0.21484 2.3398 0.74219 2.0742 0.57031 1.3164-0.16016 1.7773-0.47266 1.7383 0.16016 1.2305-0.085938 1.0977-1.125 0.72656-2.1992 1.6484-1.3516 0.42578-1.0977-0.125-1.0508-0.55078-1.6016-0.375-1.043 0.80469-1.332 1.9297-0.63672 1.0898-0.64062 1.5391-0.89844 1.8828-0.42578 1.0508-0.4375 0.96484-0.70703 1.2344-1.0156 0.68359-1.5039 0.24219-1.3125 0.51172-1.1758 0.53906-0.73828 1-0.57031 0.94141-0.46484 0.90625-1.1992-1.8828 0.26562-1.582 0.52734-1.3984v-1.0938l0.074219-1.0898 0.15234-1.207-1.6133-2.2305-0.92188-1.4141-0.44922-1.3125-0.61719-1.1445-0.1875-1.0508-0.82422-2.0195-0.76172-1.4297-0.58984-1.1367-0.41016-1.0391-0.88281-1.7266 1.2656-0.35156 1-0.57031 2.8633-0.38281 2.1953-0.81641 1.0664-0.39062 0.99609-0.45703 0.88672-1.0586-0.13281-1.8008 0.35156-1.4414-0.019532-1.918-0.41797-1.1523-1.1914-1.0938-1.582-1.7227-0.92969-0.73438-1.5625-0.39844-0.71094-1.082-0.19531-1.0156 0.15234-1.5117-0.36328-1 0.070313-1.2148 0.90234-0.94531-0.29688-1.0586-0.38281-1.4258-0.84375-0.76172-0.11328-1.1016-1.5391-1.5234-1.1133-0.11328-1.5 0.25391-1.207-0.53125-0.58594-0.94922-0.39453-1.1719-0.33594-1.0156-0.39453-1.6641-0.875-1.1758 0.9375-0.40234 1.375-1.4766 0.88281-0.96484 1.4688-0.61328 1.3242 0.37891 1.2188 0.22656 1.2227-0.97656 0.54688-1.6445 1.0273-1.3867 1.293-1.4727 1.2852-1.4648 1.0938-0.74219 2.1953-0.14453 1.625-0.70312 1.6992-0.96094 1.418-0.65234 0.84766-0.98047z" fill="#ccc" fill-rule="evenodd"/>
<path d="m389.5 402.05 0.10156 0.17578 0.53906 1.1055 0.375 1.3359 0.375 0.98828 0.70703 0.77344 0.65625 0.94141 0.39844 1.3633-0.23438 1.4297 0.30469 1.0117 1.457-0.23438 0.9375 0.48047 0.12109 1.4375 0.09375 1.3672 1.2188 0.56641 1.3867 2.1133 0.58594 1.0312 1.7148 1.3633 0.72656 0.70312 0.66016 0.86328-0.54688 1.4492-0.87891 0.74219-1.0508 0.44922-0.51953 0.88281 0.89844 1.6172 1.1758 2.1172 0.67188 0.84375 1.3164 1.7656 0.15234 1.3281-0.0625 1.7852-0.11719 1.8398v1.3594l-0.85156 1.6758-0.95312 1.2617-0.52734 2.6758 0.21484 2.3398 0.74219 2.0742 0.57031 1.3164-0.16016 1.7773-0.47266 1.7383 0.16016 1.2305-0.085938 1.0977-1.125 0.72656-2.1992 1.6484-1.3516 0.42578-1.0977-0.125-1.0508-0.55078-1.6016-0.375-1.043 0.80469-1.332 1.9297-0.63672 1.0898-0.64062 1.5391-0.89844 1.8828-0.42578 1.0508-0.4375 0.96484-0.70703 1.2344-1.0156 0.68359-1.5039 0.24219-1.3125 0.51172-1.1758 0.53906-0.73828 1-0.57031 0.94141-0.46484 0.90625-1.1992-1.8828 0.26562-1.582 0.52734-1.3984v-1.0938l0.074219-1.0898 0.15234-1.207-1.6133-2.2305-0.92188-1.4141-0.44922-1.3125-0.61719-1.1445-0.1875-1.0508-0.82422-2.0195-0.76172-1.4297-0.58984-1.1367-0.41016-1.0391-0.88281-1.7266 1.2656-0.35156 1-0.57031 2.8633-0.38281 2.1953-0.81641 1.0664-0.39062 0.99609-0.45703 0.88672-1.0586-0.13281-1.8008 0.35156-1.4414-0.019532-1.918-0.41797-1.1523-1.1914-1.0938-1.582-1.7227-0.92969-0.73438-1.5625-0.39844-0.71094-1.082-0.19531-1.0156 0.15234-1.5117-0.36328-1 0.070313-1.2148 0.90234-0.94531-0.29688-1.0586-0.38281-1.4258-0.84375-0.76172-0.11328-1.1016-1.5391-1.5234-1.1133-0.11328-1.5 0.25391-1.207-0.53125-0.58594-0.94922-0.39453-1.1719-0.33594-1.0156-0.39453-1.6641-0.875-1.1758 0.9375-0.40234 1.375-1.4766 0.88281-0.96484 1.4688-0.61328 1.3242 0.37891 1.2188 0.22656 1.2227-0.97656 0.54688-1.6445 1.0273-1.3867 1.293-1.4727 1.2852-1.4648 1.0938-0.74219 2.1953-0.14453 1.625-0.70312 1.6992-0.96094 1.418-0.65234 0.84766-0.98047 0.44141 0.78125" fill="none" stroke="#fff" stroke-linecap="round" stroke-linejoin="round" stroke-miterlimit="10" stroke-width="2"/>
<path d="m375.48 350.42 0.33203 0.42578 3.2617 3.707 0.86719 1.2031 1.0938 1.7734 4.125 6.5977 1.7617 2.4844 0.72656 1.0078 1.5938 2.3516 2.2852 2.0039 1.7227 1.7031 1.7188 2.3047 2.2695 4.5195 1.8984 3.7773 1.0078 2.582 0.40625 1.043-0.070312 1.2148-0.39453 1.3984-0.69141 1.3281-0.96875 1.1445-1.0859 1.2852-0.78906 1.4961-0.26172 1.5625-0.78906 0.89844-1.4648 0.015625-2.9648 1.1875-1.0703 0.50391-0.79297 0.83984-1 1.4648-1.418 0.65234-0.97266 0.47266-1.4141 0.94922-2.3789 0.37109-1.3047 0.25-1.8281 1.9727-1.293 1.4727-1.0273 1.3867-0.54688 1.6445-0.75391 0.92188-1.6875-0.17188-1.3242-0.37891-1.4688 0.61328-0.88281 0.96484-0.89062 1.125-1.4219 0.75391-0.76562-0.96484-1.3789 0.054688-1.1211 0.15234-1.6016-0.019531-1.3359-0.28516-1.0117-0.11719-1.2617 1.3945-0.80078 0.71094-0.72656 1.1016-0.91797 0.45312-1.4531-0.058594-1.0312-0.085938-1.2109-0.89453-1.4844-0.35156-1.4961 0.22656-0.67969 1.0352-1.4766 0.65625-1.6523 0.16797-1.5547 1.082-0.67188 1.1172-1.0391 0.62109-1.1992 0.097656-2.0898-0.23438-1.4922-1.2578-0.92969-0.57031-1.6172-0.26953-1.4414 0.32422h-1.2188l-0.75781 0.91016-1.0781 0.50391-1.1758 0.94922-0.88281 0.67188-1.2578 0.46484-1.1797-0.14453-1.3672-0.44922-1.1523 0.074219-1.1406 0.25391-1.0977 1.0195-1.1641-0.039063-0.53125-1.7266 0.14062-1.0898 0.15234-1.2031-1.4297-0.93359-0.94922-0.53906-0.92188-0.59375-0.62109-0.92969-1.8633-0.6875-1.4062-0.17578 0.16406-1.3672-0.36328-1.9688-0.085937-1.6289-0.16797-1.3789 0.46484-0.92188 1.0977-0.91016-0.066406-1.2148 0.49609-0.97656 0.085937-2.457-1.1875-1.8516-1.1797-1.4023-0.84375-1.2383-0.074219-1.2656 0.66406-1.2422 2.0352-1.4922 1.1289-0.14844 1.2891 0.19141 1.9258-0.53516h1.4805l1.8633 0.64844 1.8086-0.27734 2.8945-0.63672 0.15234-1.3047 0.62891-1.207 0.64062-1.0312 1.4336-1.5625 0.66016-0.75391 1.1523-1.1133 0.70703-1.0391 0.45703-1.0859 0.88281-2.6289 0.13672-1.168 1.4414 0.12109 1.957-0.058594 1.1875-0.67188 1.043 0.085937 1.0898 0.24219h1.1914l1.4375-0.30859 1.1602-0.61328 0.96484-0.57422 1.5312 0.76953 1.1641 0.054688 0.84375-0.80469 1.2461-0.76953 1.2734-1.4453 0.83203-1.1211-0.64062-1.6094-0.99609-0.98828-0.65234-0.83594-0.89062-1.5586 0.75781-1.0078 1.3633-1 1.2695 0.45703 1.0352-0.57812 1.3906-0.92188 1.5352-0.33594 1.0742-0.57422 0.48828-1.5312 0.21875-1.1133 0.48828-1.2852v-1.3398l0.125-1.832 0.67188-0.9375 0.82422-0.63281 0.9375-0.80859 0.64453-0.82812 1.0781-1.1914 0.75781-0.74219 1.5547-1.2305 3.1367-1.6797 1.5938-1.0664 3.0781-3.5156z" fill="#ccc" fill-rule="evenodd"/>
<path d="m375.48 350.42 0.33203 0.42578 3.2617 3.707 0.86719 1.2031 1.0938 1.7734 4.125 6.5977 1.7617 2.4844 0.72656 1.0078 1.5938 2.3516 2.2852 2.0039 1.7227 1.7031 1.7188 2.3047 2.2695 4.5195 1.8984 3.7773 1.0078 2.582 0.40625 1.043-0.070312 1.2148-0.39453 1.3984-0.69141 1.3281-0.96875 1.1445-1.0859 1.2852-0.78906 1.4961-0.26172 1.5625-0.78906 0.89844-1.4648 0.015625-2.9648 1.1875-1.0703 0.50391-0.79297 0.83984-1 1.4648-1.418 0.65234-0.97266 0.47266-1.4141 0.94922-2.3789 0.37109-1.3047 0.25-1.8281 1.9727-1.293 1.4727-1.0273 1.3867-0.54688 1.6445-0.75391 0.92188-1.6875-0.17188-1.3242-0.37891-1.4688 0.61328-0.88281 0.96484-0.89062 1.125-1.4219 0.75391-0.76562-0.96484-1.3789 0.054688-1.1211 0.15234-1.6016-0.019531-1.3359-0.28516-1.0117-0.11719-1.2617 1.3945-0.80078 0.71094-0.72656 1.1016-0.91797 0.45312-1.4531-0.058594-1.0312-0.085938-1.2109-0.89453-1.4844-0.35156-1.4961 0.22656-0.67969 1.0352-1.4766 0.65625-1.6523 0.16797-1.5547 1.082-0.67188 1.1172-1.0391 0.62109-1.1992 0.097656-2.0898-0.23438-1.4922-1.2578-0.92969-0.57031-1.6172-0.26953-1.4414 0.32422h-1.2188l-0.75781 0.91016-1.0781 0.50391-1.1758 0.94922-0.88281 0.67188-1.2578 0.46484-1.1797-0.14453-1.3672-0.44922-1.1523 0.074219-1.1406 0.25391-1.0977 1.0195-1.1641-0.039063-0.53125-1.7266 0.14062-1.0898 0.15234-1.2031-1.4297-0.93359-0.94922-0.53906-0.92188-0.59375-0.62109-0.92969-1.8633-0.6875-1.4062-0.17578 0.16406-1.3672-0.36328-1.9688-0.085937-1.6289-0.16797-1.3789 0.46484-0.92188 1.0977-0.91016-0.066406-1.2148 0.49609-0.97656 0.085937-2.457-1.1875-1.8516-1.1797-1.4023-0.84375-1.2383-0.074219-1.2656 0.66406-1.2422 2.0352-1.4922 1.1289-0.14844 1.2891 0.19141 1.9258-0.53516h1.4805l1.8633 0.64844 1.8086-0.27734 2.8945-0.63672 0.15234-1.3047 0.62891-1.207 0.64062-1.0312 1.4336-1.5625 0.66016-0.75391 1.1523-1.1133 0.70703-1.0391 0.45703-1.0859 0.88281-2.6289 0.13672-1.168 1.4414 0.12109 1.957-0.058594 1.1875-0.67188 1.043 0.085937 1.0898 0.24219h1.1914l1.4375-0.30859 1.1602-0.61328 0.96484-0.57422 1.5312 0.76953 1.1641 0.054688 0.84375-0.80469 1.2461-0.76953 1.2734-1.4453 0.83203-1.1211-0.64062-1.6094-0.99609-0.98828-0.65234-0.83594-0.89062-1.5586 0.75781-1.0078 1.3633-1 1.2695 0.45703 1.0352-0.57812 1.3906-0.92188 1.5352-0.33594 1.0742-0.57422 0.48828-1.5312 0.21875-1.1133 0.48828-1.2852v-1.3398l0.125-1.832 0.67188-0.9375 0.82422-0.63281 0.9375-0.80859 0.64453-0.82812 1.0781-1.1914 0.75781-0.74219 1.5547-1.2305 3.1367-1.6797 1.5938-1.0664 3.0781-3.5156 2.7422 3.5039" fill="none" stroke="#fff" stroke-linecap="round" stroke-linejoin="round" stroke-miterlimit="10" stroke-width="2"/>
<path d="m314.43 360.08 0.46484 0.18359 0.95312 0.375 0.52344 1.1836 1.3438 0.625 0.97266 0.47266 1.5781-1 0.26953 1.5-0.039062 1.082-0.47266 1.6172 0.76953 0.70312 1.2266-0.18359 0.96875-0.50391 0.38281-0.9375 1.2109 2.3594 0.48438 1.957 0.52734 1.1992 0.007813 1.7305-0.41406 1.9414-0.16797 1.2891-0.92969 0.89844-0.86719 0.82812-2.1055 1.3281-0.37109 1.1562 0.94531 0.66016 1.1602-0.27344 1.8359 0.625 1.2188-0.14844 0.042969-3.2383 0.12109-1.5664 0.44922-1.332 0.85938-0.66016 1.7617 1.9766 0.65625 1.2734 1.7188 1.4688 1.4766 0.63672 0.53906 1.3945-0.13672 1.168-0.88281 2.6289-0.45703 1.0859-0.70703 1.0391-1.1523 1.1133-0.66016 0.75391-1.2227 1.332-0.85156 1.2617-0.62891 1.207-0.15234 1.3047-2.0195 0.44531-1.6875 0.39062-2.1406-0.44922-2.1992-0.12109-0.98047 0.35938-1.6289 0.21875-1.1328-0.26172-1.9453 1.1602-1.0547 0.90625-0.375 1.5352 0.48828 1.207 1.125 1.1914 1.5078 2.0352 0.30469 2.3477-0.39453 1.2227-0.12109 1.4844-0.73438 0.80078-0.89453 1.2578 0.16797 1.3789 0.085937 1.6289 0.36328 1.9688-0.16406 1.3672-0.49609 1.4766-0.53125 1.8203-0.50391 0.89844-1.2891 1.25-2.082 1.125-1.0742 0.35547-1.5-0.41797-1.3438 0.019532-1.9648 0.33984-1.0039 0.33594-1.2539 0.77344-0.75 1.793 0.39844 2.3203 0.26562 2.4258 0.089844 1.4336 0.54688 1.9023 0.68359 1.4648 1.0586 1.6836 0.52344 1.3047 0.1875 1.0117-0.027344 1.8008-0.45312 1.625-0.84375 1.6211-0.56641 1.668-1.1836 0.72266-1.9453 0.54297-2.293 0.34766-1.4414 0.23438-1.5039 0.19922-1.6523-0.10156-1.4297-0.29688-1.8438-0.31641-1.2695-0.35547-0.85156-0.52344-0.65234-1.2812-1.0352-1.25-0.16797-3.0664-0.15234-1.2969-0.35547-1.0977-0.57031-1.5273-0.57422-1.1406-0.6875-1.293-1.0547-0.80078-1.3281-1.3438-1.5078-0.37891-1.0781 0.69922-1.0078 1.0625-1.3047 0.37109-1.3945 0.35156-1.0469 0.57812-0.75391 0.72266-0.625 0.90234-1.4492 0.09375-1.8477 0.91016-1.0117 0.59375-1.0586 0.625-1.6055 0.63281-1.8633 1.2344-2.3867 1.3945-0.89453 1.4414-0.56641 2.0078-1.8828 1.3125-1 0.72266-0.64062 0.83594-0.21484 1.1562-0.11719 1.1602-1.3086 1.2148-1.7109-0.4375-1.2344-0.92578-1.8086-0.28516-2.1719-0.33203-1.3125-0.53516-1.5352-0.625-2.4219-1.3086-0.72266-2.7734-0.042969-1.3086-0.24219-2.1289-0.12109-1.0625 0.19141-1.0078 1.1523-1.0742 1.2422-1.0312 0.61328-1.3945-0.35938-1.2891-1.0312-1.2734-0.19141-1.2227 0.023437-1.1602-0.38281-1.707 0.097656-1.4961 0.88281-0.76953 1.6797-0.64453 1.2891-0.88672 0.82422-1.1016-0.25-2.1016-0.51562-2.7852-0.29688-1.6211 0.54688-1.8594 0.63281-0.86328-0.25391-1.2656-1.3984-1.3438-1.8906-2.3242-1.3477-2.4805-0.43359-0.92578 0.16406-1.125 0.80469-0.71875 1.0078-0.89844 0.33594-1.543 0.14844-1.7539 0.48047-1.2188 0.69141-1.2812 0.78906-1.1562 0.64062-1.1094 0.70703-1.168 0.86719-0.71094 0.94922-0.84375 0.92969-0.75391 0.96484-0.78125 0.74219-0.69531 1.1055-0.26562 0.76562-0.71094 1.0312-0.46484 0.66797-1.1367 0.85547-0.76172 0.89844-0.76172 0.42578-1.0586 0.97656-0.28906 1.0547-0.039062 0.44141-1.0742-0.50781-1.0469-0.375-1.0469 0.20312-1.293 0.41797-0.91406 0.19531-1.2773 0.63672-0.77734 0.58594-1.2305 1.0742-0.625 1.332-1.0117 1.2227-0.875 0.88281-0.50781 1.6914-0.49609 1.7773-0.33984 2.5234-0.125 2.2578 0.41797 3.0898 0.94141 3.0234 0.33594 3.2305-0.015625 2.0312-0.51172 1.4805-1.6523 1.6328-2.6328 1.918-2.0977 1.3555-0.68359 1.0312-0.36328 1.043-0.28906 1.707-0.83984 1.0273-0.57812 2.8281-1.1953 1.0586-0.33984 1.6719-0.14062 1.1875-0.16406 1.2344-0.40234 1.1484 0.40234 0.87109 0.65625 1.3984-0.36719 1.0742-0.42188 0.83984-1.0898 1.3828-0.27734 0.83594-0.71875 1.0391-0.54297 1.3633-0.042969z" fill="#ccc" fill-rule="evenodd"/>
<path d="m314.43 360.08 0.46484 0.18359 0.95312 0.375 0.52344 1.1836 1.3438 0.625 0.97266 0.47266 1.5781-1 0.26953 1.5-0.039062 1.082-0.47266 1.6172 0.76953 0.70312 1.2266-0.18359 0.96875-0.50391 0.38281-0.9375 1.2109 2.3594 0.48438 1.957 0.52734 1.1992 0.007813 1.7305-0.41406 1.9414-0.16797 1.2891-0.92969 0.89844-0.86719 0.82812-2.1055 1.3281-0.37109 1.1562 0.94531 0.66016 1.1602-0.27344 1.8359 0.625 1.2188-0.14844 0.042969-3.2383 0.12109-1.5664 0.44922-1.332 0.85938-0.66016 1.7617 1.9766 0.65625 1.2734 1.7188 1.4688 1.4766 0.63672 0.53906 1.3945-0.13672 1.168-0.88281 2.6289-0.45703 1.0859-0.70703 1.0391-1.1523 1.1133-0.66016 0.75391-1.2227 1.332-0.85156 1.2617-0.62891 1.207-0.15234 1.3047-2.0195 0.44531-1.6875 0.39062-2.1406-0.44922-2.1992-0.12109-0.98047 0.35938-1.6289 0.21875-1.1328-0.26172-1.9453 1.1602-1.0547 0.90625-0.375 1.5352 0.48828 1.207 1.125 1.1914 1.5078 2.0352 0.30469 2.3477-0.39453 1.2227-0.12109 1.4844-0.73438 0.80078-0.89453 1.2578 0.16797 1.3789 0.085937 1.6289 0.36328 1.9688-0.16406 1.3672-0.49609 1.4766-0.53125 1.8203-0.50391 0.89844-1.2891 1.25-2.082 1.125-1.0742 0.35547-1.5-0.41797-1.3438 0.019532-1.9648 0.33984-1.0039 0.33594-1.2539 0.77344-0.75 1.793 0.39844 2.3203 0.26562 2.4258 0.089844 1.4336 0.54688 1.9023 0.68359 1.4648 1.0586 1.6836 0.52344 1.3047 0.1875 1.0117-0.027344 1.8008-0.45312 1.625-0.84375 1.6211-0.56641 1.668-1.1836 0.72266-1.9453 0.54297-2.293 0.34766-1.4414 0.23438-1.5039 0.19922-1.6523-0.10156-1.4297-0.29688-1.8438-0.31641-1.2695-0.35547-0.85156-0.52344-0.65234-1.2812-1.0352-1.25-0.16797-3.0664-0.15234-1.2969-0.35547-1.0977-0.57031-1.5273-0.57422-1.1406-0.6875-1.293-1.0547-0.80078-1.3281-1.3438-1.5078-0.37891-1.0781 0.69922-1.0078 1.0625-1.3047 0.37109-1.3945 0.35156-1.0469 0.57812-0.75391 0.72266-0.625 0.90234-1.4492 0.09375-1.8477 0.91016-1.0117 0.59375-1.0586 0.625-1.6055 0.63281-1.8633 1.2344-2.3867 1.3945-0.89453 1.4414-0.56641 2.0078-1.8828 1.3125-1 0.72266-0.64062 0.83594-0.21484 1.1562-0.11719 1.1602-1.3086 1.2148-1.7109-0.4375-1.2344-0.92578-1.8086-0.28516-2.1719-0.33203-1.3125-0.53516-1.5352-0.625-2.4219-1.3086-0.72266-2.7734-0.042969-1.3086-0.24219-2.1289-0.12109-1.0625 0.19141-1.0078 1.1523-1.0742 1.2422-1.0312 0.61328-1.3945-0.35938-1.2891-1.0312-1.2734-0.19141-1.2227 0.023437-1.1602-0.38281-1.707 0.097656-1.4961 0.88281-0.76953 1.6797-0.64453 1.2891-0.88672 0.82422-1.1016-0.25-2.1016-0.51562-2.7852-0.29688-1.6211 0.54688-1.8594 0.63281-0.86328-0.25391-1.2656-1.3984-1.3438-1.8906-2.3242-1.3477-2.4805-0.43359-0.92578 0.16406-1.125 0.80469-0.71875 1.0078-0.89844 0.33594-1.543 0.14844-1.7539 0.48047-1.2188 0.69141-1.2812 0.78906-1.1562 0.64062-1.1094 0.70703-1.168 0.86719-0.71094 0.94922-0.84375 0.92969-0.75391 0.96484-0.78125 0.74219-0.69531 1.1055-0.26562 0.76562-0.71094 1.0312-0.46484 0.66797-1.1367 0.85547-0.76172 0.89844-0.76172 0.42578-1.0586 0.97656-0.28906 1.0547-0.039062 0.44141-1.0742-0.50781-1.0469-0.375-1.0469 0.20312-1.293 0.41797-0.91406 0.19531-1.2773 0.63672-0.77734 0.58594-1.2305 1.0742-0.625 1.332-1.0117 1.2227-0.875 0.88281-0.50781 1.6914-0.49609 1.7773-0.33984 2.5234-0.125 2.2578 0.41797 3.0898 0.94141 3.0234 0.33594 3.2305-0.015625 2.0312-0.51172 1.4805-1.6523 1.6328-2.6328 1.918-2.0977 1.3555-0.68359 1.0312-0.36328 1.043-0.28906 1.707-0.83984 1.0273-0.57812 2.8281-1.1953 1.0586-0.33984 1.6719-0.14062 1.1875-0.16406 1.2344-0.40234 1.1484 0.40234 0.87109 0.65625 1.3984-0.36719 1.0742-0.42188 0.83984-1.0898 1.3828-0.27734 0.83594-0.71875 1.0391-0.54297 1.3633-0.042969 1.3008 0.23047" fill="none" stroke="#fff" stroke-linecap="round" stroke-linejoin="round" stroke-miterlimit="10" stroke-width="2"/>
<path d="m172.12 229.68 0.32031 0.58984 1.2188 2.2383 0.96094 1.918 1.1562 2.3125 1.6641 2.4766 0.71875 1.5117 1.6094 2.9727 1.3984 2.043 0.59766 0.93359 1.6758 2.4102 1.4219 1.168 1.1836 0.40234 0.78125 0.69531-0.12109 1.0312 0.79688 0.86328 1.1484 0.28516 0.625 0.97266 1 0.67578 0.4375 1.0469 0.89453 0.75 0.74219 0.78516 1.043 1.1914 3.9062 4.1094 5.1055 4.3906 7.8242 7.0391 3.9102 2.9336 2.3828 1.7891 1.4141 1.0625 4.5586 4.0742 1.418 1.7188 3.7656 4.0625 2.8555 2.7422 1.7773 1.7109 2.2969 1.543 3.0391 1.0547 2.668 0.64453 2.0938-0.25391 1.8438-0.22266 0.99219 0.14844 1.2656 0.35156 3.4023 1.2539 3.4844 1.4375 1.1406 0.46875 1.5977 0.66016 1.3125 0.13672 1.3203-0.097656 1.1133-0.16406 1.3828-0.31641 1.9688-0.67969 1.0273-0.41406 0.95703-0.36328 2.6016-0.19922 1.3281 0.027344 2.9531 0.77734 3.6172 2.2305 1.3281 0.72266 0.97656 0.53125 1.0781 0.58594 3.6562 1.8438 2.9766 0.57812 2.1406 0.17578 1.4883 0.625 4.1172 0.89453 1.0117 0.30078 2.8203 0.66016 1.7773 0.12891 1.332-0.089844 2.2734-0.16016 1.0508 0.10547 1.1172 0.10938 2.8398 0.10156 1.1289-0.22656 1.3008-0.68359 1.1641-0.09375 0.91797-0.62109 1.2227-0.32031 1.9336-0.16797 1.332-0.3125 1.5391-0.39453 1.2305 0.66797 1.1602 1.0703 1.3359 1.1992 1.5156 1.0156 1 0.66797 1.6484-0.10156 0.875-0.54297 1.3516-0.4375 1.2695-0.51953 0.73047-0.98047-0.16797-1.5117 0.91406-1.2734 1.2109-0.46094 1.1445-0.23047 0.82812-0.8125 0.83984-1.2188 0.47656-2.2344 0.375-0.97656 0.62109-1.457 0.27344-1.0625-0.1875-1.3945-0.23438-1.1641 0.023438-1.0781 0.22656-1.1094 0.63281-0.85547 0.87891-0.60938 0.70312-1.1602 0.83203-0.62109 0.43359-0.98828 0.57812-1.1836 0.58594-0.87109 0.17188-1.0156 0.5 1.168 0.60547 1.9531 0.98828 3.1836 0.74219 2.4062 0.78906 1.957 1.332 3.3242 3.6914 7.5664 0.48828 0.99219 0.57031 1.2539 0.375 1.1172 0.73438 1.5625 0.89453 2.8125 0.39844 1.2578 0.44922 1.418 1.2266 3.168 0.96094 1.7852 2.168 3.8438 0.98828 0.75 0.66406 0.76172 0.55078 1.1797 0.83984 0.92578 0.78516 1.0703 1.4023 1.9336 1.0508 1.3398 1.4023 1.9219 3.4102 3.6406 2.2188 4.0312 0.99219 2.9414-3.0781 3.5156-1.5938 1.0664-2.4688 1.207-1.4805 1.0469-1.5 1.3984-0.79688 0.88281-0.92578 1.1367-0.9375 0.80859-0.82422 0.63281-0.67188 0.9375-0.125 1.832v1.3398l-0.48828 1.2852-0.21875 1.1133-0.019531 1.0039-0.83594 0.80469-1.5039 0.41406-2.1289 1.1406-0.83203 0.67188-1.1406-0.61328-1.0273 0.54297-1.293 0.81641 0.58594 1.5898 0.40234 1.0273 1.418 1.4766 0.74609 1.1953-0.42578 0.92188-1.1445 1.3711-1.4961 1.0156-0.61328 0.86328-1.0039 0.4375-1.8047-0.66797-1-0.12891-0.84766 0.63672-1.5156 0.91016-1.8984-0.13281-1.0898-0.24219-1.043-0.085937-1.1875 0.67188-1.0273 0.14062-1.5703-0.21875-0.82812-0.87891-1.3281-0.76953-1.9844-1.3789-0.76562-1.1094-1.2461-2.0898-1.1562-0.40625-0.75391 1.1211-0.30078 1.4102 0.14844 3.582-0.87891 0.82031-1.8281-0.59766-1.4062 0.10547-1.1367-0.28125 0.070312-1.2461 2.2852-1.5664 0.86719-0.82812 0.92969-0.89844 0.16797-1.2891 0.16016-1.1172 0.40234-1.8984-0.68359-1.8555-0.48438-1.957-0.63672-2.1328-0.95703 0.71094-0.96875 0.50391-1.2266 0.18359-0.76953-0.70312 0.37109-1.0703 0.085938-1.0234 0.3125-1.3555-1.2461-0.24609-1.1914 0.48438-1.1094-0.83203-1.3125-0.51953-1.0391-1.293-1.7656-0.41406-1.3633 0.042969-1.0391 0.54297-0.83594 0.71875-1.3828 0.27734-0.83984 1.0898-1.0742 0.42188-1.3281 0.38672-0.94141-0.67578-1.1484-0.40234-1.2344 0.40234-1.1875 0.16406-1.2227-0.003906-1.5078 0.48438-1.9375 0.96484-1.918 0.80859-1.3594 0.74609-1.3906 0.38281-1.0312 0.36328-1.3555 0.68359-1.918 2.0977-1.6328 2.6328-1.4805 1.6523-2.0312 0.51172-3.2305 0.015625-3.0234-0.33594-3.0898-0.94141-2.2578-0.41797-2 0.023437-1.4375 0.27734-2.5547 0.66016-0.88281 0.50781-1.2227 0.875-0.87891 0.76562-1.5273 0.83594-0.36328 1.0391-0.94922 0.63281-0.050781 1.5312-0.47266 1.0312-0.14453 1.1445 0.31641 1.1953 0.67578 0.76172-0.53906 1.0156-1.125 0.38281-0.97656 0.28906-0.42578 1.0586-0.89844 0.76172-0.85547 0.76172-0.66797 1.1367-1.0312 0.46484-0.76562 0.71094-1.1055 0.26562-0.74219 0.69531-0.96484 0.78125-0.81641 0.67188-0.73047 0.77344-0.9375 0.37109-0.96875 1.6602-0.64062 1.1094-0.78906 1.1562-0.69141 1.2812-0.48047 1.2188-0.27344 1.3984-2.3789-2.7969-0.75781-1.0586-0.83203-0.69922-2.457-0.40625-1.043-0.023438-3.9492 0.53125-1.5234 0.015625-1.6289 0.015625-1.2031 0.011719-3.8516-0.55469-1.1914-0.17188-1.668-0.51562-3.082-0.96094-3.5469-1.2734-1.4219-0.91016-1.5195-1.9375-1.6914-3.9648-1.9375-4.8789-0.20703-1.1484-0.47656-4.5469-0.078125-5.4844-0.015625-1.1055-0.10156-1.75-0.24609-3.0078-0.10938-1.3047-0.097656-1.2305-1.1172-4.332-2.3008-5.2969-1.8711-3.1719-3.0938-4.1055-0.79297-1.0391-1.1133-1.3633-1.8047-2.2148-0.97266-1.1953-1.1523-1.8516-1.25-3.1836-0.33984-1.0938-0.44141-1.7227-0.22656-2.4453-0.44141-3.6133-0.67969-2.4453-1.1328-1.7539-1.4531-1.5352-1.2812-0.96094-0.21484-1.6133 0.37891-1.4531-0.003907-1.3164-1.1836-1.0898-0.98047-0.69531-0.79297-1.3398-0.25-1.5117-0.011719-1.9727 0.29688-1.7031 0.34375-2.5-0.125-1.4414-1.5977-1.1758-1.8633-0.58594-1.0664-0.55078-0.82422-1 0.73047-1.293 0.96484-1.668 0.86719-2.2109 0.18359-1.2344 0.054687-2.8906-0.03125-1.8359-0.28906-2.1133-0.57031-1.2969-0.33203-1.3438-0.30469-1.9141-0.55859-1.6133-1.1172-2.2188-0.66016-1.4062-0.68359-1.1836-1.3984-1.707-4.2852-3.375-1.3164-0.99609-0.60156-0.85938 0.23828-1.4727 0.57422-1.5 0.5625-1.2188 0.53125-2.3359 0.16797-1.5703-0.027343-1.3164-0.46484-1.6094-0.98047-0.97266-0.76562-1.3672-0.50781-1.4883-0.30859-1.9414-0.039063-1.043-0.35156-1.0781-0.82812-1.6797-1.582-2.8164-0.64453-1.7617-0.26562-1.3867 0.027344-4.3203 0.85938-2.3672 0.875-2.5664 1.2695-1.7344 2.1328-1.3438 1.2891-0.61328 1.2891-0.89453z" fill="#ccc" fill-rule="evenodd"/>
<path d="m172.12 229.68 0.32031 0.58984 1.2188 2.2383 0.96094 1.918 1.1562 2.3125 1.6641 2.4766 0.71875 1.5117 1.6094 2.9727 1.3984 2.043 0.59766 0.93359 1.6758 2.4102 1.4219 1.168 1.1836 0.40234 0.78125 0.69531-0.12109 1.0312 0.79688 0.86328 1.1484 0.28516 0.625 0.97266 1 0.67578 0.4375 1.0469 0.89453 0.75 0.74219 0.78516 1.043 1.1914 3.9062 4.1094 5.1055 4.3906 7.8242 7.0391 3.9102 2.9336 2.3828 1.7891 1.4141 1.0625 4.5586 4.0742 1.418 1.7188 3.7656 4.0625 2.8555 2.7422 1.7773 1.7109 2.2969 1.543 3.0391 1.0547 2.668 0.64453 2.0938-0.25391 1.8438-0.22266 0.99219 0.14844 1.2656 0.35156 3.4023 1.2539 3.4844 1.4375 1.1406 0.46875 1.5977 0.66016 1.3125 0.13672 1.3203-0.097656 1.1133-0.16406 1.3828-0.31641 1.9688-0.67969 1.0273-0.41406 0.95703-0.36328 2.6016-0.19922 1.3281 0.027344 2.9531 0.77734 3.6172 2.2305 1.3281 0.72266 0.97656 0.53125 1.0781 0.58594 3.6562 1.8438 2.9766 0.57812 2.1406 0.17578 1.4883 0.625 4.1172 0.89453 1.0117 0.30078 2.8203 0.66016 1.7773 0.12891 1.332-0.089844 2.2734-0.16016 1.0508 0.10547 1.1172 0.10938 2.8398 0.10156 1.1289-0.22656 1.3008-0.68359 1.1641-0.09375 0.91797-0.62109 1.2227-0.32031 1.9336-0.16797 1.332-0.3125 1.5391-0.39453 1.2305 0.66797 1.1602 1.0703 1.3359 1.1992 1.5156 1.0156 1 0.66797 1.6484-0.10156 0.875-0.54297 1.3516-0.4375 1.2695-0.51953 0.73047-0.98047-0.16797-1.5117 0.91406-1.2734 1.2109-0.46094 1.1445-0.23047 0.82812-0.8125 0.83984-1.2188 0.47656-2.2344 0.375-0.97656 0.62109-1.457 0.27344-1.0625-0.1875-1.3945-0.23438-1.1641 0.023438-1.0781 0.22656-1.1094 0.63281-0.85547 0.87891-0.60938 0.70312-1.1602 0.83203-0.62109 0.43359-0.98828 0.57812-1.1836 0.58594-0.87109 0.17188-1.0156 0.5 1.168 0.60547 1.9531 0.98828 3.1836 0.74219 2.4062 0.78906 1.957 1.332 3.3242 3.6914 7.5664 0.48828 0.99219 0.57031 1.2539 0.375 1.1172 0.73438 1.5625 0.89453 2.8125 0.39844 1.2578 0.44922 1.418 1.2266 3.168 0.96094 1.7852 2.168 3.8438 0.98828 0.75 0.66406 0.76172 0.55078 1.1797 0.83984 0.92578 0.78516 1.0703 1.4023 1.9336 1.0508 1.3398 1.4023 1.9219 3.4102 3.6406 2.2188 4.0312 0.99219 2.9414-3.0781 3.5156-1.5938 1.0664-2.4688 1.207-1.4805 1.0469-1.5 1.3984-0.79688 0.88281-0.92578 1.1367-0.9375 0.80859-0.82422 0.63281-0.67188 0.9375-0.125 1.832v1.3398l-0.48828 1.2852-0.21875 1.1133-0.019531 1.0039-0.83594 0.80469-1.5039 0.41406-2.1289 1.1406-0.83203 0.67188-1.1406-0.61328-1.0273 0.54297-1.293 0.81641 0.58594 1.5898 0.40234 1.0273 1.418 1.4766 0.74609 1.1953-0.42578 0.92188-1.1445 1.3711-1.4961 1.0156-0.61328 0.86328-1.0039 0.4375-1.8047-0.66797-1-0.12891-0.84766 0.63672-1.5156 0.91016-1.8984-0.13281-1.0898-0.24219-1.043-0.085937-1.1875 0.67188-1.0273 0.14062-1.5703-0.21875-0.82812-0.87891-1.3281-0.76953-1.9844-1.3789-0.76562-1.1094-1.2461-2.0898-1.1562-0.40625-0.75391 1.1211-0.30078 1.4102 0.14844 3.582-0.87891 0.82031-1.8281-0.59766-1.4062 0.10547-1.1367-0.28125 0.070312-1.2461 2.2852-1.5664 0.86719-0.82812 0.92969-0.89844 0.16797-1.2891 0.16016-1.1172 0.40234-1.8984-0.68359-1.8555-0.48438-1.957-0.63672-2.1328-0.95703 0.71094-0.96875 0.50391-1.2266 0.18359-0.76953-0.70312 0.37109-1.0703 0.085938-1.0234 0.3125-1.3555-1.2461-0.24609-1.1914 0.48438-1.1094-0.83203-1.3125-0.51953-1.0391-1.293-1.7656-0.41406-1.3633 0.042969-1.0391 0.54297-0.83594 0.71875-1.3828 0.27734-0.83984 1.0898-1.0742 0.42188-1.3281 0.38672-0.94141-0.67578-1.1484-0.40234-1.2344 0.40234-1.1875 0.16406-1.2227-0.003906-1.5078 0.48438-1.9375 0.96484-1.918 0.80859-1.3594 0.74609-1.3906 0.38281-1.0312 0.36328-1.3555 0.68359-1.918 2.0977-1.6328 2.6328-1.4805 1.6523-2.0312 0.51172-3.2305 0.015625-3.0234-0.33594-3.0898-0.94141-2.2578-0.41797-2 0.023437-1.4375 0.27734-2.5547 0.66016-0.88281 0.50781-1.2227 0.875-0.87891 0.76562-1.5273 0.83594-0.36328 1.0391-0.94922 0.63281-0.050781 1.5312-0.47266 1.0312-0.14453 1.1445 0.31641 1.1953 0.67578 0.76172-0.53906 1.0156-1.125 0.38281-0.97656 0.28906-0.42578 1.0586-0.89844 0.76172-0.85547 0.76172-0.66797 1.1367-1.0312 0.46484-0.76562 0.71094-1.1055 0.26562-0.74219 0.69531-0.96484 0.78125-0.81641 0.67188-0.73047 0.77344-0.9375 0.37109-0.96875 1.6602-0.64062 1.1094-0.78906 1.1562-0.69141 1.2812-0.48047 1.2188-0.27344 1.3984-2.3789-2.7969-0.75781-1.0586-0.83203-0.69922-2.457-0.40625-1.043-0.023438-3.9492 0.53125-1.5234 0.015625-1.6289 0.015625-1.2031 0.011719-3.8516-0.55469-1.1914-0.17188-1.668-0.51562-3.082-0.96094-3.5469-1.2734-1.4219-0.91016-1.5195-1.9375-1.6914-3.9648-1.9375-4.8789-0.20703-1.1484-0.47656-4.5469-0.078125-5.4844-0.015625-1.1055-0.10156-1.75-0.24609-3.0078-0.10938-1.3047-0.097656-1.2305-1.1172-4.332-2.3008-5.2969-1.8711-3.1719-3.0938-4.1055-0.79297-1.0391-1.1133-1.3633-1.8047-2.2148-0.97266-1.1953-1.1523-1.8516-1.25-3.1836-0.33984-1.0938-0.44141-1.7227-0.22656-2.4453-0.44141-3.6133-0.67969-2.4453-1.1328-1.7539-1.4531-1.5352-1.2812-0.96094-0.21484-1.6133 0.37891-1.4531-0.003907-1.3164-1.1836-1.0898-0.98047-0.69531-0.79297-1.3398-0.25-1.5117-0.011719-1.9727 0.29688-1.7031 0.34375-2.5-0.125-1.4414-1.5977-1.1758-1.8633-0.58594-1.0664-0.55078-0.82422-1 0.73047-1.293 0.96484-1.668 0.86719-2.2109 0.18359-1.2344 0.054687-2.8906-0.03125-1.8359-0.28906-2.1133-0.57031-1.2969-0.33203-1.3438-0.30469-1.9141-0.55859-1.6133-1.1172-2.2188-0.66016-1.4062-0.68359-1.1836-1.3984-1.707-4.2852-3.375-1.3164-0.99609-0.60156-0.85938 0.23828-1.4727 0.57422-1.5 0.5625-1.2188 0.53125-2.3359 0.16797-1.5703-0.027343-1.3164-0.46484-1.6094-0.98047-0.97266-0.76562-1.3672-0.50781-1.4883-0.30859-1.9414-0.039063-1.043-0.35156-1.0781-0.82812-1.6797-1.582-2.8164-0.64453-1.7617-0.26562-1.3867 0.027344-4.3203 0.85938-2.3672 0.875-2.5664 1.2695-1.7344 2.1328-1.3438 1.2891-0.61328 1.2891-0.89453 2.3438 1.9609" fill="none" stroke="#fff" stroke-linecap="round" stroke-linejoin="round" stroke-miterlimit="10" stroke-width="2"/>
<path d="m32.086 0.33203 0.38672 1.2617 0.76953 1.9258 1.1953 1.6562 1.832 0.28125 1.3359-0.26562 1.8711 0.027344 1.6484 0.82422 0.75 0.71094 0.28125 2.7031 0.25391 1.9141 0.69922 3.6328 2.2148 1.1914 1.2695 1.5195 1.1094 1.582 0.19141 1.3789 1.7227 2.1133 0.33984 1.3906 1.4258 1.4961 1.1797 1.1445 0.96484 1.9453 0.64453 2.1016 0.60156 0.90625 0.90625-0.64062 1.1211-0.39844 2.1445-0.88281 1.4062-0.95703 1.0703-0.59375 1.1328-0.027343 1.2891 0.48047 2.6953 1.0742 1.9883 1.1406 1.8906 0.89844 2.0664-0.23047 1.2695-0.35547 2.0469-0.35938 1.0938-0.31641 1.4062-0.40625 1.3281 0.20312 1.3125 0.95312 1.8516 0.37891 1.2461 0.058594 2.457-0.71875 2.4414-1.0977 0.91797-1.3789-0.33203-1.6445 1.4258-1.6484 0.9375-0.88672 1.1523-1.2109 0.94922-1.2344 1.8594-1.4375 0.79688-0.88672 0.53125-0.9375 0.16797-1.4766v-1.7539l1.4961-1.375 0.21484 1.9766 0.89844 2.5234 1.1758 2.0977 1.4219 1.0508 2.457 1.8984 2.7109 1.9766 1.6992 2.2188 0.61328 3.0078-0.23828 4.2578 0.5 1.25 1.4883 1.1289 1.3477 1.957 1.125 1.0234 2.8867 1.9375 1.0312-0.066406 1.5391-0.85156 0.76953-0.92188 1.8359-0.90625 3.3945-3.7031 2.0312-0.52734 1.125 0.16406 2.2305 0.82812 1.7852 0.91406 1.2578 0.86719 1.0078 0.69531 4.4453 3.0742 3.1836 3.2695 0.91406 0.60938 2.7656 1.5312 3.7891 1.0195 2.8477 0.30469 1.5547 0.019531 1.1562-0.69531 0.75391-1.6133 0.5625-1.207 1.3711-0.74609 2.0391 0.49609 1.1719 0.76562 1.6367 0.94922 1.6094 0.58984 1.8438 0.17969 1.6836-0.019531 1.0352 0.15625 1.8555 0.16406 1.7969 0.1875 2.293 0.95312 4.2344 1.7617 1.8359 0.054687 2.5195-0.41016 1.3008-1.0234 0.44141-1.168 1.0547-0.38281 1.8359 0.32031 1.2188-0.14453 1.3945-1.3633 0.33203-0.97266 0.45312-0.9375 0.65234-0.86719 0.48438-0.89844 0.78906-0.92578 0.28516-2.0391 0.80469-1.7852 0.42188-1.25 0.45703-1.3672 1.2383-0.3125 1.0742-0.44531 1.1953-0.71484 1.4297-0.52734 0.88281-0.49219 1.6016 0.082031 1.207 0.51562 1.0039 0.69141 1.6602 1.9141 0.99609 2.5664 0.38281 1.668 0.49219 0.96094 1.2188 0.88281 1.6875-0.30469 1.0039-0.76953 0.67188 1.4883-0.35938 1.8672 0.27344 1.5859 0.39453 1.6758 0.66016 1.6562 0.46875 0.98828 0.38672 1.6719 0.32812 1.8594 0.51562 2.9414 0.22656 1.6406 0.28516 2.457 0.14453 1.4023 0.39062 2.2266 0.33594 1.2461 1.6953 1.2891 1.5664 1.2617 0.99219 0.32031 0.375 1.4141 1.2539 1.9961 3.8789 6.2031 4.0508 6.4102 0.84766 0.53516 1.0117 0.34375 1.5234 0.61719 1.4609 0.52344 2.043 0.60156 2.0391 0.66797 4.0469 0.98047 1.5078 0.3125 1.1094 0.22656 1.1367 0.22266 1.6602 0.73047 1.2422 0.96875 0.097656 1.6953 0.53906 1.5078 1.2656 1.043 1.4844 0.81641 1.4453 0.21875 1.0312 0.45703 0.35547 1.2539 0.015625 1.2344 0.25 1.3828 1.3242 2.2852 0.25781 1.0039 0.33594 1.0352 1.8672 2.0391 2.2031 2.4023 2.332 2.9531 1.582 1.5664 2.168 1.8398 0.79688 0.86719 0.21484 1.1875 0.21484 1.1836 0.9375 2.1836 0.80078 1.0547 0.41797 0.95312 0.35547 0.94922 0.82812 0.74219 0.64062 0.85156 0.93359 0.52734 0.69531 1.3633 0.52344 0.94141 0.83594 1.1055 0.83203 0.83984 0.54297 1.1875 0.46484 1.6836 0.50391 1.0781 0.36328 0.96484 0.11328 1.0234-0.26562 1.375 1.2578 1.457 0.83984 0.70703-0.11328 1.1836-0.23828 0.99219 0.75781 0.99219 0.80859 1.0078 0.27734 1.3438 0.64453 1.582 0.6875 0.78516 0.85547 0.96484 0.36328 1.793 0.99609 2.8242 0.45312 0.92969 0.47656 1.082 0.25781 1.2617 0.8125 1.2852 0.62109 1.5117 0.53516 1.2383 1.0469 0.66797 0.63281 1.3984 0.85156 1.4844 0.67188 1.2891 0.49219 1.2578-0.23828 0.99609 0.125 1.5547 0.16797 1.1641 0.82812 2.043 0.28516 0.96875 0.30469 1.7578 0.23438 1.1992 0.78516 0.625 0.75781 1.4141 1.918 0.46094 0.67188 0.94141 0.64453 1.1602-0.44922 0.99609 0.76953 1.2227 1.2188 1.0312 1.4141 1.9609 1.1367 1.5117 0.46094 1.2305 0.43359 1.7812 0.18359 2.3086 0.046875 1.5859-0.30078 1.4375 0.25391 1.9258 0.89453 3.2148 0.62891 1.1484 0.58984 2.7305 0.54688 1.4414 0.33203 1.6016 1.4609 2.7812 0.82812 1.3008 0.050781 1.25 0.019532 1.0391 0.76172 1.4414 0.71094 1.0039 0.74609 1.293 0.26172 1.4492-0.0625 1.0312 0.35547 0.97266-1.6055 1.0938-1.3203 0.91016-0.097656 1.3555-0.51172 1.1172-0.22266 1 0.49609 1.293 0.49609 1.1055 0.16016 1.0078 0.48828 1.0078-0.16016 1.0156 0.070313 1.125-0.96484 0.98828 0.28516 1.1953 1.2734 0.53125 0.49609 0.90234 0.27734 1.2266 0.30859 1.918 0.93359 0.89453 1.0273 0.78906 0.39844 1.1953 0.55078 1.2266 0.41406 0.96094 0.8125 1.0156 1.1719 1 1.0742 1.4453 0.0625 1.4727 0.67578 1.3164 1.0234 0.1875 0.63672 1 0.43359 1.2383 1.8711 2.043 0.59766 0.82812 0.83203 0.73047 0.89453 0.67578 0.86328 0.60938 0.96094 0.68359 1.1602 0.91406 1.1719 0.92188 1.7695 1.5898 0.90234 0.85156 0.84375 0.80859 1.0703 1.0742 1.1133 1.4844 0.98047 1.3945 1.3477 1.7305 0.6875 1.3047 1.0938 2.0508 0.38672 1.1641 0.16016 1.1602-0.050781 1.4023-0.15234 0.99219-0.80469 1.8164-0.29297 2.0078 0.73828 1.3555 0.41016 1.1719-0.17188 1.0156-0.58594 0.87109-0.44922 0.90234-0.5625 1.2695-0.83203 0.62109-0.47266 0.94141-1.1094 0.82812-0.63281 0.85547-0.22656 1.1094-0.023438 1.0781 0.23438 1.1641 0.1875 1.3945-0.27344 1.0625-0.62109 1.457-0.375 0.97656-0.19531 1.4922-0.71484 1.3008-0.74219 1.0938-1.2617 0.52734-0.95703 0.28906-1.2461 0.59375-0.0625 1.5703-0.31641 1.5625-1.082 0.5-1.375 0.5625-1.5195 0.73047-1.2422 0.25-1.4062-0.81641-0.9375-0.75781-1.2461-0.74609-1.375-1.3672-1.0352-1.0195-1.457 0.10547-2.0625 0.53906-1.9336 0.16797-1.2227 0.32031-0.91797 0.62109-1.1641 0.09375-1.2773 0.67969-1.1523 0.23047-2.8398-0.10156-1.1172-0.10938-1.0508-0.10547-2.2734 0.16016-1.332 0.089844-1.6016-0.089844-2.2969-0.51172-1.1641-0.32812-3.7656-0.87109-2.3867-0.80859-1.332-0.015625-3.7852-0.73828-2.9492-1.4844-1.4297-0.75-1.332-0.72656-1.3281-0.72266-3.125-2.0859-2.9023-0.83984-1.8711-0.10938-1.6914 0.019531-1.2734 0.25391-1.6211 0.70312-1.4102 0.45312-0.95703 0.48828-1.6914 0.1875-1.7266 0.12891-1.3125-0.13672-1.5977-0.66016-1.1406-0.46875-3.4844-1.4375-3.4023-1.2539-0.96094-0.26562-1.2969-0.23438-1.8438 0.22266-2.0938 0.25391-2.668-0.64453-3.0391-1.0547-2.2969-1.543-1.7773-1.7109-2.2852-2.1914-4.0234-4.2617-1.5078-1.8281-4.7812-4.3164-1.2539-0.94531-1.8633-1.3984-3.9219-2.9414-8.2148-7.2891-5.3828-4.6406-3.9062-4.1094-1.043-1.1914-0.74219-0.78516-0.89453-0.75-0.4375-1.0469-1-0.67578-0.625-0.97266-1.1484-0.28516-0.76562-0.75391 0.089844-1.1406-0.75-0.69141-1.2148-0.40625-1.4219-1.168-1.1953-1.6562-1.0781-1.6875-1.3984-2.043-1.6094-2.9727-0.71875-1.5117-1.6641-2.4766-1.1562-2.3125-0.96094-1.918-1.2188-2.2383-2.2969-2.8906-0.66406-0.80078-0.74219-0.88672-1.5742-1.8359-0.55078-1.9727-0.79297-1.7969-0.78516-1.1836-0.73438-1.3867-0.054687-1.5 0.027344-1.0469-0.58203-2.1094-0.16797-1.3438-0.9375-1.4844-0.73828-0.91016-0.50781-1.582-0.1875-1.2109-0.39453-1.2227-0.68359-0.86328-1.2422-1.1406-2.0117-1.0195-1.5273-0.51953-1.3477-0.43359-1.5938-0.83594-0.77344-0.875-0.57422-1.8398-0.035156-3.3672-0.35547-2.8516-1.1641-2.9258-0.86719-1.8359-1.2617-0.89453-1.5273-0.6875-4.2617-1.0664-0.8125-1.8438v-1.2891l0.21094-1.4688 0.26172-1.8125 0.48047-1.0156 1.2148-0.52344 1.5156-0.98828 1.1484-2.4531 0.42578-1.6406 0.60156-1.8984 0.39062-1.8047 0.22656-2.8281-0.097657-2.2695 0.52734-1.5938 1.2344-1.0391 3.293-1.5391 1.582-0.50391 1.2461-0.19531 1.0312-0.36719-0.57422-2.4727-0.37109-1.668 0.22266-1.4297 0.71484-1.543 0.61328-2.4336 0.25391-1.3594 0.51953-2.793 0.14844-1.4688 0.13672-1.3203-1.1211-0.39844-1.5977 0.6875-1.793 0.92188-1.0625 0.18359-1.3477-0.35938-0.99219-0.69141-0.96875-1.3047-1.4727-2.3789-0.96094-1.4141-0.97656-0.86719-1.2734-0.44922-2.3828-0.38281-2.1133-0.35156-1.2188-0.38672-1.6367-0.79688-2.0625-1.1523-2.6016-1.9844-2.3516-2.1992-2.5156-2.9219-1.2383-1.2266-1.4844-1.9414-1.0781-0.86719-1.2188-0.60156-1.1758-0.75781-0.98047-1.1172-1.8242-2.0859-0.69922-1.6562-0.85156-1.9102-0.90234-2.0898-0.99219-1.4336-1.9336-1.6523-2.375-1.1914-1.4414-0.34375-3.3633-1.7227-2.6133-0.53125-3.6172 0.085937-1.5664 0.57812-2.4141-0.50391-2.0234 0.035156-1.4453-0.77344-0.63672-1.5117-0.33594-2.3867 0.23438-1.043 0.066406-2.2852-0.23438-1.3438-0.77344-0.73828-2.0508-0.70703-1.5469-1.1094-1.4766-1.5469-0.81641-0.99219-0.70703-1.7539-0.56641-1.543-0.42578-1.293v-1.5352l-0.22656-2.5977 0.14062-1.6836-0.042969-2.2969-0.85156-1.707-0.82812-2.3672-1.3281-1.75-0.90625-1.8555-0.86328-1.7773-0.86719-1.1289-0.92969-1-2.082-0.80469-1.8203-0.89062-2.7266-0.91016-0.93359-0.4375-0.50781-1.2617 0.94531-1.3828 0.50781-1.0156-0.49219-1.8203-0.99219-1.4062-1.0781-0.30859-1.0859-0.53125-1.4023-0.57812-2.1719-0.31641-1.332 0.035157-1.5273 0.89453-1.8789 0.67188-1.0469 0.027344-1.0352-0.066407-1.5039-0.875-0.84375-0.99609-0.52344-1.5977-1-1.3008-1.1562-0.56641-1.1914-0.10156-1.2695 0.15234-1.1836-0.26172-1.2656-1.2969-0.6875-0.87891-0.74609-0.94922-1.3242-2.3008-0.59375-1.4766-0.94922-1.4336-1.0781-1.6211-1.2344-1.5859-2.0039-1.4961-1.1836-0.51562-1.7695-0.69141-1.1719-0.56641-1.0234-0.65234-1.0664-0.68359-1.332-0.18359-1.9609 0.95312-1.1875 0.57422-1.1992 0.14844-1.1484-0.14062-0.76953-1.6328-0.82031-1.3047-0.85156-1.4883-0.92578-0.81641-1.0312-1.0273-0.59375-0.96484 0.23828-1.2461 0.44141-1.2617 0.38281-2.0586-0.085937-1.0898-0.55078-1.1484-0.35547-1.5898-0.19531-1.5117-0.89844-2.7266-0.39062-1.1875-0.41797-1.2656-0.33984-1.6719-0.17969-1.4492-0.078125-1.5664-0.16406-2.7188-0.011719-1.082 1.0625-1.7539 1.3867-0.74219 1.7539-0.29688 2.7461-0.21094 1.6562 0.12109 1.1367 0.5625 2.1797 0.94141 0.98047-0.52734 0.87891-0.98828 1.1562-0.33203z" fill="#ccc" fill-rule="evenodd"/>
<path d="m32.086 0.33203 0.38672 1.2617 0.76953 1.9258 1.1953 1.6562 1.832 0.28125 1.3359-0.26562 1.8711 0.027344 1.6484 0.82422 0.75 0.71094 0.28125 2.7031 0.25391 1.9141 0.69922 3.6328 2.2148 1.1914 1.2695 1.5195 1.1094 1.582 0.19141 1.3789 1.7227 2.1133 0.33984 1.3906 1.4258 1.4961 1.1797 1.1445 0.96484 1.9453 0.64453 2.1016 0.60156 0.90625 0.90625-0.64062 1.1211-0.39844 2.1445-0.88281 1.4062-0.95703 1.0703-0.59375 1.1328-0.027343 1.2891 0.48047 2.6953 1.0742 1.9883 1.1406 1.8906 0.89844 2.0664-0.23047 1.2695-0.35547 2.0469-0.35938 1.0938-0.31641 1.4062-0.40625 1.3281 0.20312 1.3125 0.95312 1.8516 0.37891 1.2461 0.058594 2.457-0.71875 2.4414-1.0977 0.91797-1.3789-0.33203-1.6445 1.4258-1.6484 0.9375-0.88672 1.1523-1.2109 0.94922-1.2344 1.8594-1.4375 0.79688-0.88672 0.53125-0.9375 0.16797-1.4766v-1.7539l1.4961-1.375 0.21484 1.9766 0.89844 2.5234 1.1758 2.0977 1.4219 1.0508 2.457 1.8984 2.7109 1.9766 1.6992 2.2188 0.61328 3.0078-0.23828 4.2578 0.5 1.25 1.4883 1.1289 1.3477 1.957 1.125 1.0234 2.8867 1.9375 1.0312-0.066406 1.5391-0.85156 0.76953-0.92188 1.8359-0.90625 3.3945-3.7031 2.0312-0.52734 1.125 0.16406 2.2305 0.82812 1.7852 0.91406 1.2578 0.86719 1.0078 0.69531 4.4453 3.0742 3.1836 3.2695 0.91406 0.60938 2.7656 1.5312 3.7891 1.0195 2.8477 0.30469 1.5547 0.019531 1.1562-0.69531 0.75391-1.6133 0.5625-1.207 1.3711-0.74609 2.0391 0.49609 1.1719 0.76562 1.6367 0.94922 1.6094 0.58984 1.8438 0.17969 1.6836-0.019531 1.0352 0.15625 1.8555 0.16406 1.7969 0.1875 2.293 0.95312 4.2344 1.7617 1.8359 0.054687 2.5195-0.41016 1.3008-1.0234 0.44141-1.168 1.0547-0.38281 1.8359 0.32031 1.2188-0.14453 1.3945-1.3633 0.33203-0.97266 0.45312-0.9375 0.65234-0.86719 0.48438-0.89844 0.78906-0.92578 0.28516-2.0391 0.80469-1.7852 0.42188-1.25 0.45703-1.3672 1.2383-0.3125 1.0742-0.44531 1.1953-0.71484 1.4297-0.52734 0.88281-0.49219 1.6016 0.082031 1.207 0.51562 1.0039 0.69141 1.6602 1.9141 0.99609 2.5664 0.38281 1.668 0.49219 0.96094 1.2188 0.88281 1.6875-0.30469 1.0039-0.76953 0.67188 1.4883-0.35938 1.8672 0.27344 1.5859 0.39453 1.6758 0.66016 1.6562 0.46875 0.98828 0.38672 1.6719 0.32812 1.8594 0.51562 2.9414 0.22656 1.6406 0.28516 2.457 0.14453 1.4023 0.39062 2.2266 0.33594 1.2461 1.6953 1.2891 1.5664 1.2617 0.99219 0.32031 0.375 1.4141 1.2539 1.9961 3.8789 6.2031 4.0508 6.4102 0.84766 0.53516 1.0117 0.34375 1.5234 0.61719 1.4609 0.52344 2.043 0.60156 2.0391 0.66797 4.0469 0.98047 1.5078 0.3125 1.1094 0.22656 1.1367 0.22266 1.6602 0.73047 1.2422 0.96875 0.097656 1.6953 0.53906 1.5078 1.2656 1.043 1.4844 0.81641 1.4453 0.21875 1.0312 0.45703 0.35547 1.2539 0.015625 1.2344 0.25 1.3828 1.3242 2.2852 0.25781 1.0039 0.33594 1.0352 1.8672 2.0391 2.2031 2.4023 2.332 2.9531 1.582 1.5664 2.168 1.8398 0.79688 0.86719 0.21484 1.1875 0.21484 1.1836 0.9375 2.1836 0.80078 1.0547 0.41797 0.95312 0.35547 0.94922 0.82812 0.74219 0.64062 0.85156 0.93359 0.52734 0.69531 1.3633 0.52344 0.94141 0.83594 1.1055 0.83203 0.83984 0.54297 1.1875 0.46484 1.6836 0.50391 1.0781 0.36328 0.96484 0.11328 1.0234-0.26562 1.375 1.2578 1.457 0.83984 0.70703-0.11328 1.1836-0.23828 0.99219 0.75781 0.99219 0.80859 1.0078 0.27734 1.3438 0.64453 1.582 0.6875 0.78516 0.85547 0.96484 0.36328 1.793 0.99609 2.8242 0.45312 0.92969 0.47656 1.082 0.25781 1.2617 0.8125 1.2852 0.62109 1.5117 0.53516 1.2383 1.0469 0.66797 0.63281 1.3984 0.85156 1.4844 0.67188 1.2891 0.49219 1.2578-0.23828 0.99609 0.125 1.5547 0.16797 1.1641 0.82812 2.043 0.28516 0.96875 0.30469 1.7578 0.23438 1.1992 0.78516 0.625 0.75781 1.4141 1.918 0.46094 0.67188 0.94141 0.64453 1.1602-0.44922 0.99609 0.76953 1.2227 1.2188 1.0312 1.4141 1.9609 1.1367 1.5117 0.46094 1.2305 0.43359 1.7812 0.18359 2.3086 0.046875 1.5859-0.30078 1.4375 0.25391 1.9258 0.89453 3.2148 0.62891 1.1484 0.58984 2.7305 0.54688 1.4414 0.33203 1.6016 1.4609 2.7812 0.82812 1.3008 0.050781 1.25 0.019532 1.0391 0.76172 1.4414 0.71094 1.0039 0.74609 1.293 0.26172 1.4492-0.0625 1.0312 0.35547 0.97266-1.6055 1.0938-1.3203 0.91016-0.097656 1.3555-0.51172 1.1172-0.22266 1 0.49609 1.293 0.49609 1.1055 0.16016 1.0078 0.48828 1.0078-0.16016 1.0156 0.070313 1.125-0.96484 0.98828 0.28516 1.1953 1.2734 0.53125 0.49609 0.90234 0.27734 1.2266 0.30859 1.918 0.93359 0.89453 1.0273 0.78906 0.39844 1.1953 0.55078 1.2266 0.41406 0.96094 0.8125 1.0156 1.1719 1 1.0742 1.4453 0.0625 1.4727 0.67578 1.3164 1.0234 0.1875 0.63672 1 0.43359 1.2383 1.8711 2.043 0.59766 0.82812 0.83203 0.73047 0.89453 0.67578 0.86328 0.60938 0.96094 0.68359 1.1602 0.91406 1.1719 0.92188 1.7695 1.5898 0.90234 0.85156 0.84375 0.80859 1.0703 1.0742 1.1133 1.4844 0.98047 1.3945 1.3477 1.7305 0.6875 1.3047 1.0938 2.0508 0.38672 1.1641 0.16016 1.1602-0.050781 1.4023-0.15234 0.99219-0.80469 1.8164-0.29297 2.0078 0.73828 1.3555 0.41016 1.1719-0.17188 1.0156-0.58594 0.87109-0.44922 0.90234-0.5625 1.2695-0.83203 0.62109-0.47266 0.94141-1.1094 0.82812-0.63281 0.85547-0.22656 1.1094-0.023438 1.0781 0.23438 1.1641 0.1875 1.3945-0.27344 1.0625-0.62109 1.457-0.375 0.97656-0.19531 1.4922-0.71484 1.3008-0.74219 1.0938-1.2617 0.52734-0.95703 0.28906-1.2461 0.59375-0.0625 1.5703-0.31641 1.5625-1.082 0.5-1.375 0.5625-1.5195 0.73047-1.2422 0.25-1.4062-0.81641-0.9375-0.75781-1.2461-0.74609-1.375-1.3672-1.0352-1.0195-1.457 0.10547-2.0625 0.53906-1.9336 0.16797-1.2227 0.32031-0.91797 0.62109-1.1641 0.09375-1.2773 0.67969-1.1523 0.23047-2.8398-0.10156-1.1172-0.10938-1.0508-0.10547-2.2734 0.16016-1.332 0.089844-1.6016-0.089844-2.2969-0.51172-1.1641-0.32812-3.7656-0.87109-2.3867-0.80859-1.332-0.015625-3.7852-0.73828-2.9492-1.4844-1.4297-0.75-1.332-0.72656-1.3281-0.72266-3.125-2.0859-2.9023-0.83984-1.8711-0.10938-1.6914 0.019531-1.2734 0.25391-1.6211 0.70312-1.4102 0.45312-0.95703 0.48828-1.6914 0.1875-1.7266 0.12891-1.3125-0.13672-1.5977-0.66016-1.1406-0.46875-3.4844-1.4375-3.4023-1.2539-0.96094-0.26562-1.2969-0.23438-1.8438 0.22266-2.0938 0.25391-2.668-0.64453-3.0391-1.0547-2.2969-1.543-1.7773-1.7109-2.2852-2.1914-4.0234-4.2617-1.5078-1.8281-4.7812-4.3164-1.2539-0.94531-1.8633-1.3984-3.9219-2.9414-8.2148-7.2891-5.3828-4.6406-3.9062-4.1094-1.043-1.1914-0.74219-0.78516-0.89453-0.75-0.4375-1.0469-1-0.67578-0.625-0.97266-1.1484-0.28516-0.76562-0.75391 0.089844-1.1406-0.75-0.69141-1.2148-0.40625-1.4219-1.168-1.1953-1.6562-1.0781-1.6875-1.3984-2.043-1.6094-2.9727-0.71875-1.5117-1.6641-2.4766-1.1562-2.3125-0.96094-1.918-1.2188-2.2383-2.2969-2.8906-0.66406-0.80078-0.74219-0.88672-1.5742-1.8359-0.55078-1.9727-0.79297-1.7969-0.78516-1.1836-0.73438-1.3867-0.054687-1.5 0.027344-1.0469-0.58203-2.1094-0.16797-1.3438-0.9375-1.4844-0.73828-0.91016-0.50781-1.582-0.1875-1.2109-0.39453-1.2227-0.68359-0.86328-1.2422-1.1406-2.0117-1.0195-1.5273-0.51953-1.3477-0.43359-1.5938-0.83594-0.77344-0.875-0.57422-1.8398-0.035156-3.3672-0.35547-2.8516-1.1641-2.9258-0.86719-1.8359-1.2617-0.89453-1.5273-0.6875-4.2617-1.0664-0.8125-1.8438v-1.2891l0.21094-1.4688 0.26172-1.8125 0.48047-1.0156 1.2148-0.52344 1.5156-0.98828 1.1484-2.4531 0.42578-1.6406 0.60156-1.8984 0.39062-1.8047 0.22656-2.8281-0.097657-2.2695 0.52734-1.5938 1.2344-1.0391 3.293-1.5391 1.582-0.50391 1.2461-0.19531 1.0312-0.36719-0.57422-2.4727-0.37109-1.668 0.22266-1.4297 0.71484-1.543 0.61328-2.4336 0.25391-1.3594 0.51953-2.793 0.14844-1.4688 0.13672-1.3203-1.1211-0.39844-1.5977 0.6875-1.793 0.92188-1.0625 0.18359-1.3477-0.35938-0.99219-0.69141-0.96875-1.3047-1.4727-2.3789-0.96094-1.4141-0.97656-0.86719-1.2734-0.44922-2.3828-0.38281-2.1133-0.35156-1.2188-0.38672-1.6367-0.79688-2.0625-1.1523-2.6016-1.9844-2.3516-2.1992-2.5156-2.9219-1.2383-1.2266-1.4844-1.9414-1.0781-0.86719-1.2188-0.60156-1.1758-0.75781-0.98047-1.1172-1.8242-2.0859-0.69922-1.6562-0.85156-1.9102-0.90234-2.0898-0.99219-1.4336-1.9336-1.6523-2.375-1.1914-1.4414-0.34375-3.3633-1.7227-2.6133-0.53125-3.6172 0.085937-1.5664 0.57812-2.4141-0.50391-2.0234 0.035156-1.4453-0.77344-0.63672-1.5117-0.33594-2.3867 0.23438-1.043 0.066406-2.2852-0.23438-1.3438-0.77344-0.73828-2.0508-0.70703-1.5469-1.1094-1.4766-1.5469-0.81641-0.99219-0.70703-1.7539-0.56641-1.543-0.42578-1.293v-1.5352l-0.22656-2.5977 0.14062-1.6836-0.042969-2.2969-0.85156-1.707-0.82812-2.3672-1.3281-1.75-0.90625-1.8555-0.86328-1.7773-0.86719-1.1289-0.92969-1-2.082-0.80469-1.8203-0.89062-2.7266-0.91016-0.93359-0.4375-0.50781-1.2617 0.94531-1.3828 0.50781-1.0156-0.49219-1.8203-0.99219-1.4062-1.0781-0.30859-1.0859-0.53125-1.4023-0.57812-2.1719-0.31641-1.332 0.035157-1.5273 0.89453-1.8789 0.67188-1.0469 0.027344-1.0352-0.066407-1.5039-0.875-0.84375-0.99609-0.52344-1.5977-1-1.3008-1.1562-0.56641-1.1914-0.10156-1.2695 0.15234-1.1836-0.26172-1.2656-1.2969-0.6875-0.87891-0.74609-0.94922-1.3242-2.3008-0.59375-1.4766-0.94922-1.4336-1.0781-1.6211-1.2344-1.5859-2.0039-1.4961-1.1836-0.51562-1.7695-0.69141-1.1719-0.56641-1.0234-0.65234-1.0664-0.68359-1.332-0.18359-1.9609 0.95312-1.1875 0.57422-1.1992 0.14844-1.1484-0.14062-0.76953-1.6328-0.82031-1.3047-0.85156-1.4883-0.92578-0.81641-1.0312-1.0273-0.59375-0.96484 0.23828-1.2461 0.44141-1.2617 0.38281-2.0586-0.085937-1.0898-0.55078-1.1484-0.35547-1.5898-0.19531-1.5117-0.89844-2.7266-0.39062-1.1875-0.41797-1.2656-0.33984-1.6719-0.17969-1.4492-0.078125-1.5664-0.16406-2.7188-0.011719-1.082 1.0625-1.7539 1.3867-0.74219 1.7539-0.29688 2.7461-0.21094 1.6562 0.12109 1.1367 0.5625 2.1797 0.94141 0.98047-0.52734 0.87891-0.98828 1.1562-0.33203 0.98828 0.33203" fill="none" stroke="#fff" stroke-linecap="round" stroke-linejoin="round" stroke-miterlimit="10" stroke-width="2"/>
<path d="m172.12 229.68 0.32031 0.58984 1.2188 2.2383 0.96094 1.918 1.1562 2.3125 1.6641 2.4766 0.71875 1.5117 1.6094 2.9727 1.3984 2.043 0.59766 0.93359 1.6758 2.4102 1.4219 1.168 1.1836 0.40234 0.78125 0.69531-0.12109 1.0312 0.79688 0.86328 1.1484 0.28516 0.625 0.97266 1 0.67578 0.4375 1.0469 0.89453 0.75 0.74219 0.78516 1.043 1.1914 3.9062 4.1094 5.1055 4.3906 7.8242 7.0391 3.9102 2.9336 2.3828 1.7891 1.4141 1.0625 4.5586 4.0742 1.418 1.7188 3.7656 4.0625 2.8555 2.7422 1.7773 1.7109 2.2969 1.543 3.0391 1.0547 2.668 0.64453 2.0938-0.25391 1.8438-0.22266 0.99219 0.14844 1.2656 0.35156 3.4023 1.2539 3.4844 1.4375 1.1406 0.46875 1.5977 0.66016 1.3125 0.13672 1.3203-0.097656 1.1133-0.16406 1.3828-0.31641 1.9688-0.67969 1.0273-0.41406 0.95703-0.36328 2.6016-0.19922 1.3281 0.027344 2.9531 0.77734 3.6172 2.2305 1.3281 0.72266 0.97656 0.53125 1.0781 0.58594 3.6562 1.8438 2.9766 0.57812 2.1406 0.17578 1.4883 0.625 4.1172 0.89453 1.0117 0.30078 2.8203 0.66016 1.7773 0.12891 1.332-0.089844 2.2734-0.16016 1.0508 0.10547 1.1172 0.10938 2.8398 0.10156 1.1289-0.22656 1.3008-0.68359 1.1641-0.09375 0.91797-0.62109 1.2227-0.32031 1.9336-0.16797 1.332-0.3125 1.5391-0.39453 1.2305 0.66797 1.1602 1.0703 1.3359 1.1992 1.5156 1.0156 1 0.66797 1.6484-0.10156 0.875-0.54297 1.3516-0.4375 1.2695-0.51953 0.73047-0.98047-0.16797-1.5117 0.91406-1.2734 1.2109-0.46094 1.1445-0.23047 0.82812-0.8125 0.83984-1.2188 0.47656-2.2344 0.375-0.97656 0.62109-1.457 0.27344-1.0625-0.1875-1.3945-0.23438-1.1641 0.023438-1.0781 0.22656-1.1094 0.63281-0.85547 0.87891-0.60938 0.70312-1.1602 0.83203-0.62109 0.43359-0.98828 0.57812-1.1836 0.58594-0.87109 0.17188-1.0156 0.5 1.168 0.60547 1.9531 0.98828 3.1836 0.74219 2.4062 0.78906 1.957 1.332 3.3242 3.6914 7.5664 0.48828 0.99219 0.57031 1.2539 0.375 1.1172 0.73438 1.5625 0.89453 2.8125 0.39844 1.2578 0.44922 1.418 1.2266 3.168 0.96094 1.7852 2.168 3.8438 0.98828 0.75 0.66406 0.76172 0.55078 1.1797 0.83984 0.92578 0.78516 1.0703 1.4023 1.9336 1.0508 1.3398 1.4023 1.9219 3.4102 3.6406 2.2188 4.0312 0.99219 2.9414-3.0781 3.5156-1.5938 1.0664-2.4688 1.207-1.4805 1.0469-1.5 1.3984-0.79688 0.88281-0.92578 1.1367-0.9375 0.80859-0.82422 0.63281-0.67188 0.9375-0.125 1.832v1.3398l-0.48828 1.2852-0.21875 1.1133-0.019531 1.0039-0.83594 0.80469-1.5039 0.41406-2.1289 1.1406-0.83203 0.67188-1.1406-0.61328-1.0273 0.54297-1.293 0.81641 0.58594 1.5898 0.40234 1.0273 1.418 1.4766 0.74609 1.1953-0.42578 0.92188-1.1445 1.3711-1.4961 1.0156-0.61328 0.86328-1.0039 0.4375-1.8047-0.66797-1-0.12891-0.84766 0.63672-1.5156 0.91016-1.8984-0.13281-1.0898-0.24219-1.043-0.085937-1.1875 0.67188-1.0273 0.14062-1.5703-0.21875-0.82812-0.87891-1.3281-0.76953-1.9844-1.3789-0.76562-1.1094-1.2461-2.0898-1.1562-0.40625-0.75391 1.1211-0.30078 1.4102 0.14844 3.582-0.87891 0.82031-1.8281-0.59766-1.4062 0.10547-1.1367-0.28125 0.070312-1.2461 2.2852-1.5664 0.86719-0.82812 0.92969-0.89844 0.16797-1.2891 0.16016-1.1172 0.40234-1.8984-0.68359-1.8555-0.48438-1.957-0.63672-2.1328-0.95703 0.71094-0.96875 0.50391-1.2266 0.18359-0.76953-0.70312 0.37109-1.0703 0.085938-1.0234 0.3125-1.3555-1.2461-0.24609-1.1914 0.48438-1.1094-0.83203-1.3125-0.51953-1.0391-1.293-1.7656-0.41406-1.3633 0.042969-1.0391 0.54297-0.83594 0.71875-1.3828 0.27734-0.83984 1.0898-1.0742 0.42188-1.3281 0.38672-0.94141-0.67578-1.1484-0.40234-1.2344 0.40234-1.1875 0.16406-1.2227-0.003906-1.5078 0.48438-1.9375 0.96484-1.918 0.80859-1.3594 0.74609-1.3906 0.38281-1.0312 0.36328-1.3555 0.68359-1.918 2.0977-1.6328 2.6328-1.4805 1.6523-2.0312 0.51172-3.2305 0.015625-3.0234-0.33594-3.0898-0.94141-2.2578-0.41797-2 0.023437-1.4375 0.27734-2.5547 0.66016-0.88281 0.50781-1.2227 0.875-0.87891 0.76562-1.5273 0.83594-0.36328 1.0391-0.94922 0.63281-0.050781 1.5312-0.47266 1.0312-0.14453 1.1445 0.31641 1.1953 0.67578 0.76172-0.53906 1.0156-1.125 0.38281-0.97656 0.28906-0.42578 1.0586-0.89844 0.76172-0.85547 0.76172-0.66797 1.1367-1.0312 0.46484-0.76562 0.71094-1.1055 0.26562-0.74219 0.69531-0.96484 0.78125-0.81641 0.67188-0.73047 0.77344-0.9375 0.37109-0.96875 1.6602-0.64062 1.1094-0.78906 1.1562-0.69141 1.2812-0.48047 1.2188-0.27344 1.3984-2.3789-2.7969-0.75781-1.0586-0.83203-0.69922-2.457-0.40625-1.043-0.023438-3.9492 0.53125-1.5234 0.015625-1.6289 0.015625-1.2031 0.011719-3.8516-0.55469-1.1914-0.17188-1.668-0.51562-3.082-0.96094-3.5469-1.2734-1.4219-0.91016-1.5195-1.9375-1.6914-3.9648-1.9375-4.8789-0.20703-1.1484-0.47656-4.5469-0.078125-5.4844-0.015625-1.1055-0.10156-1.75-0.24609-3.0078-0.10938-1.3047-0.097656-1.2305-1.1172-4.332-2.3008-5.2969-1.8711-3.1719-3.0938-4.1055-0.79297-1.0391-1.1133-1.3633-1.8047-2.2148-0.97266-1.1953-1.1523-1.8516-1.25-3.1836-0.33984-1.0938-0.44141-1.7227-0.22656-2.4453-0.44141-3.6133-0.67969-2.4453-1.1328-1.7539-1.4531-1.5352-1.2812-0.96094-0.21484-1.6133 0.37891-1.4531-0.003907-1.3164-1.1836-1.0898-0.98047-0.69531-0.79297-1.3398-0.25-1.5117-0.011719-1.9727 0.29688-1.7031 0.34375-2.5-0.125-1.4414-1.5977-1.1758-1.8633-0.58594-1.0664-0.55078-0.82422-1 0.73047-1.293 0.96484-1.668 0.86719-2.2109 0.18359-1.2344 0.054687-2.8906-0.03125-1.8359-0.28906-2.1133-0.57031-1.2969-0.33203-1.3438-0.30469-1.9141-0.55859-1.6133-1.1172-2.2188-0.66016-1.4062-0.68359-1.1836-1.3984-1.707-4.2852-3.375-1.3164-0.99609-0.60156-0.85938 0.23828-1.4727 0.57422-1.5 0.5625-1.2188 0.53125-2.3359 0.16797-1.5703-0.027343-1.3164-0.46484-1.6094-0.98047-0.97266-0.76562-1.3672-0.50781-1.4883-0.30859-1.9414-0.039063-1.043-0.35156-1.0781-0.82812-1.6797-1.582-2.8164-0.64453-1.7617-0.26562-1.3867 0.027344-4.3203 0.85938-2.3672 0.875-2.5664 1.2695-1.7344 2.1328-1.3438 1.2891-0.61328 1.2891-0.89453z" fill="#0a5394" fill-rule="evenodd"/>
<path d="m172.12 229.68 0.32031 0.58984 1.2188 2.2383 0.96094 1.918 1.1562 2.3125 1.6641 2.4766 0.71875 1.5117 1.6094 2.9727 1.3984 2.043 0.59766 0.93359 1.6758 2.4102 1.4219 1.168 1.1836 0.40234 0.78125 0.69531-0.12109 1.0312 0.79688 0.86328 1.1484 0.28516 0.625 0.97266 1 0.67578 0.4375 1.0469 0.89453 0.75 0.74219 0.78516 1.043 1.1914 3.9062 4.1094 5.1055 4.3906 7.8242 7.0391 3.9102 2.9336 2.3828 1.7891 1.4141 1.0625 4.5586 4.0742 1.418 1.7188 3.7656 4.0625 2.8555 2.7422 1.7773 1.7109 2.2969 1.543 3.0391 1.0547 2.668 0.64453 2.0938-0.25391 1.8438-0.22266 0.99219 0.14844 1.2656 0.35156 3.4023 1.2539 3.4844 1.4375 1.1406 0.46875 1.5977 0.66016 1.3125 0.13672 1.3203-0.097656 1.1133-0.16406 1.3828-0.31641 1.9688-0.67969 1.0273-0.41406 0.95703-0.36328 2.6016-0.19922 1.3281 0.027344 2.9531 0.77734 3.6172 2.2305 1.3281 0.72266 0.97656 0.53125 1.0781 0.58594 3.6562 1.8438 2.9766 0.57812 2.1406 0.17578 1.4883 0.625 4.1172 0.89453 1.0117 0.30078 2.8203 0.66016 1.7773 0.12891 1.332-0.089844 2.2734-0.16016 1.0508 0.10547 1.1172 0.10938 2.8398 0.10156 1.1289-0.22656 1.3008-0.68359 1.1641-0.09375 0.91797-0.62109 1.2227-0.32031 1.9336-0.16797 1.332-0.3125 1.5391-0.39453 1.2305 0.66797 1.1602 1.0703 1.3359 1.1992 1.5156 1.0156 1 0.66797 1.6484-0.10156 0.875-0.54297 1.3516-0.4375 1.2695-0.51953 0.73047-0.98047-0.16797-1.5117 0.91406-1.2734 1.2109-0.46094 1.1445-0.23047 0.82812-0.8125 0.83984-1.2188 0.47656-2.2344 0.375-0.97656 0.62109-1.457 0.27344-1.0625-0.1875-1.3945-0.23438-1.1641 0.023438-1.0781 0.22656-1.1094 0.63281-0.85547 0.87891-0.60938 0.70312-1.1602 0.83203-0.62109 0.43359-0.98828 0.57812-1.1836 0.58594-0.87109 0.17188-1.0156 0.5 1.168 0.60547 1.9531 0.98828 3.1836 0.74219 2.4062 0.78906 1.957 1.332 3.3242 3.6914 7.5664 0.48828 0.99219 0.57031 1.2539 0.375 1.1172 0.73438 1.5625 0.89453 2.8125 0.39844 1.2578 0.44922 1.418 1.2266 3.168 0.96094 1.7852 2.168 3.8438 0.98828 0.75 0.66406 0.76172 0.55078 1.1797 0.83984 0.92578 0.78516 1.0703 1.4023 1.9336 1.0508 1.3398 1.4023 1.9219 3.4102 3.6406 2.2188 4.0312 0.99219 2.9414-3.0781 3.5156-1.5938 1.0664-2.4688 1.207-1.4805 1.0469-1.5 1.3984-0.79688 0.88281-0.92578 1.1367-0.9375 0.80859-0.82422 0.63281-0.67188 0.9375-0.125 1.832v1.3398l-0.48828 1.2852-0.21875 1.1133-0.019531 1.0039-0.83594 0.80469-1.5039 0.41406-2.1289 1.1406-0.83203 0.67188-1.1406-0.61328-1.0273 0.54297-1.293 0.81641 0.58594 1.5898 0.40234 1.0273 1.418 1.4766 0.74609 1.1953-0.42578 0.92188-1.1445 1.3711-1.4961 1.0156-0.61328 0.86328-1.0039 0.4375-1.8047-0.66797-1-0.12891-0.84766 0.63672-1.5156 0.91016-1.8984-0.13281-1.0898-0.24219-1.043-0.085937-1.1875 0.67188-1.0273 0.14062-1.5703-0.21875-0.82812-0.87891-1.3281-0.76953-1.9844-1.3789-0.76562-1.1094-1.2461-2.0898-1.1562-0.40625-0.75391 1.1211-0.30078 1.4102 0.14844 3.582-0.87891 0.82031-1.8281-0.59766-1.4062 0.10547-1.1367-0.28125 0.070312-1.2461 2.2852-1.5664 0.86719-0.82812 0.92969-0.89844 0.16797-1.2891 0.16016-1.1172 0.40234-1.8984-0.68359-1.8555-0.48438-1.957-0.63672-2.1328-0.95703 0.71094-0.96875 0.50391-1.2266 0.18359-0.76953-0.70312 0.37109-1.0703 0.085938-1.0234 0.3125-1.3555-1.2461-0.24609-1.1914 0.48438-1.1094-0.83203-1.3125-0.51953-1.0391-1.293-1.7656-0.41406-1.3633 0.042969-1.0391 0.54297-0.83594 0.71875-1.3828 0.27734-0.83984 1.0898-1.0742 0.42188-1.3281 0.38672-0.94141-0.67578-1.1484-0.40234-1.2344 0.40234-1.1875 0.16406-1.2227-0.003906-1.5078 0.48438-1.9375 0.96484-1.918 0.80859-1.3594 0.74609-1.3906 0.38281-1.0312 0.36328-1.3555 0.68359-1.918 2.0977-1.6328 2.6328-1.4805 1.6523-2.0312 0.51172-3.2305 0.015625-3.0234-0.33594-3.0898-0.94141-2.2578-0.41797-2 0.023437-1.4375 0.27734-2.5547 0.66016-0.88281 0.50781-1.2227 0.875-0.87891 0.76562-1.5273 0.83594-0.36328 1.0391-0.94922 0.63281-0.050781 1.5312-0.47266 1.0312-0.14453 1.1445 0.31641 1.1953 0.67578 0.76172-0.53906 1.0156-1.125 0.38281-0.97656 0.28906-0.42578 1.0586-0.89844 0.76172-0.85547 0.76172-0.66797 1.1367-1.0312 0.46484-0.76562 0.71094-1.1055 0.26562-0.74219 0.69531-0.96484 0.78125-0.81641 0.67188-0.73047 0.77344-0.9375 0.37109-0.96875 1.6602-0.64062 1.1094-0.78906 1.1562-0.69141 1.2812-0.48047 1.2188-0.27344 1.3984-2.3789-2.7969-0.75781-1.0586-0.83203-0.69922-2.457-0.40625-1.043-0.023438-3.9492 0.53125-1.5234 0.015625-1.6289 0.015625-1.2031 0.011719-3.8516-0.55469-1.1914-0.17188-1.668-0.51562-3.082-0.96094-3.5469-1.2734-1.4219-0.91016-1.5195-1.9375-1.6914-3.9648-1.9375-4.8789-0.20703-1.1484-0.47656-4.5469-0.078125-5.4844-0.015625-1.1055-0.10156-1.75-0.24609-3.0078-0.10938-1.3047-0.097656-1.2305-1.1172-4.332-2.3008-5.2969-1.8711-3.1719-3.0938-4.1055-0.79297-1.0391-1.1133-1.3633-1.8047-2.2148-0.97266-1.1953-1.1523-1.8516-1.25-3.1836-0.33984-1.0938-0.44141-1.7227-0.22656-2.4453-0.44141-3.6133-0.67969-2.4453-1.1328-1.7539-1.4531-1.5352-1.2812-0.96094-0.21484-1.6133 0.37891-1.4531-0.003907-1.3164-1.1836-1.0898-0.98047-0.69531-0.79297-1.3398-0.25-1.5117-0.011719-1.9727 0.29688-1.7031 0.34375-2.5-0.125-1.4414-1.5977-1.1758-1.8633-0.58594-1.0664-0.55078-0.82422-1 0.73047-1.293 0.96484-1.668 0.86719-2.2109 0.18359-1.2344 0.054687-2.8906-0.03125-1.8359-0.28906-2.1133-0.57031-1.2969-0.33203-1.3438-0.30469-1.9141-0.55859-1.6133-1.1172-2.2188-0.66016-1.4062-0.68359-1.1836-1.3984-1.707-4.2852-3.375-1.3164-0.99609-0.60156-0.85938 0.23828-1.4727 0.57422-1.5 0.5625-1.2188 0.53125-2.3359 0.16797-1.5703-0.027343-1.3164-0.46484-1.6094-0.98047-0.97266-0.76562-1.3672-0.50781-1.4883-0.30859-1.9414-0.039063-1.043-0.35156-1.0781-0.82812-1.6797-1.582-2.8164-0.64453-1.7617-0.26562-1.3867 0.027344-4.3203 0.85938-2.3672 0.875-2.5664 1.2695-1.7344 2.1328-1.3438 1.2891-0.61328 1.2891-0.89453 2.3438 1.9609" fill="none" stroke="#fff" stroke-linecap="round" stroke-linejoin="round" stroke-miterlimit="10"/>
<path d="m325.63 358.71c0 3.5898-2.9102 6.5-6.5 6.5-3.5898 0-6.5-2.9102-6.5-6.5 0-3.5898 2.9102-6.5 6.5-6.5 3.5898 0 6.5 2.9102 6.5 6.5" fill="#28c028" fill-rule="evenodd" stroke="#000" stroke-linecap="round" stroke-linejoin="round" stroke-miterlimit="10"/>
<path d="m198.93 347.35 3.2344-0.3125c0.19531 1.0859 0.59375 1.8828 1.1875 2.3906 0.59375 0.51172 1.3945 0.76562 2.4062 0.76562 1.0703 0 1.8789-0.22266 2.4219-0.67188 0.53906-0.45703 0.8125-0.98828 0.8125-1.5938 0-0.39453-0.11719-0.72656-0.34375-1-0.23047-0.26953-0.625-0.50391-1.1875-0.70312-0.39844-0.13281-1.2891-0.375-2.6719-0.71875-1.7812-0.44531-3.0312-0.99219-3.75-1.6406-1.0117-0.90625-1.5156-2.0078-1.5156-3.3125 0-0.83203 0.23828-1.6133 0.71875-2.3438 0.47656-0.72656 1.1602-1.2852 2.0469-1.6719 0.89453-0.38281 1.9766-0.57812 3.25-0.57812 2.0625 0 3.6133 0.45312 4.6562 1.3594 1.0508 0.90625 1.6016 2.1172 1.6562 3.625l-3.3281 0.15625c-0.14844-0.84375-0.45312-1.4531-0.92188-1.8281-0.46094-0.375-1.1562-0.5625-2.0938-0.5625-0.96875 0-1.7305 0.20312-2.2812 0.60938-0.34375 0.25-0.51562 0.58984-0.51562 1.0156 0 0.38672 0.16016 0.71875 0.48438 1 0.42578 0.35547 1.4453 0.72656 3.0625 1.1094 1.6133 0.375 2.8047 0.76562 3.5781 1.1719 0.78125 0.40625 1.3906 0.96484 1.8281 1.6719 0.4375 0.71094 0.65625 1.5859 0.65625 2.625 0 0.94922-0.26562 1.8359-0.79688 2.6562-0.52344 0.82422-1.2617 1.4375-2.2188 1.8438-0.96094 0.39453-2.1523 0.59375-3.5781 0.59375-2.0859 0-3.6836-0.47656-4.7969-1.4375-1.1172-0.96875-1.7812-2.375-2-4.2188zm31.031 5.3594h-3.6094l-1.4375-3.7344h-6.5781l-1.3594 3.7344h-3.5312l6.4062-16.469h3.5156zm-6.1094-6.5156-2.2812-6.1094-2.2188 6.1094zm7.875 6.5156v-16.469h5.3438c2.0195 0 3.3359 0.085937 3.9531 0.25 0.9375 0.25 1.7227 0.79297 2.3594 1.625 0.63281 0.82422 0.95312 1.8867 0.95312 3.1875 0 1.0117-0.18359 1.8672-0.54688 2.5625-0.36719 0.6875-0.83594 1.2305-1.4062 1.625-0.5625 0.38672-1.1367 0.64062-1.7188 0.76562-0.79297 0.16797-1.9375 0.25-3.4375 0.25h-2.1719v6.2031zm3.3281-13.672v4.6719h1.8125c1.3125 0 2.1875-0.085938 2.625-0.26562 0.44531-0.17578 0.79688-0.44531 1.0469-0.8125 0.25-0.36328 0.375-0.78906 0.375-1.2812 0-0.59375-0.17969-1.082-0.53125-1.4688-0.35547-0.39453-0.79688-0.64062-1.3281-0.73438-0.39844-0.070313-1.1953-0.10938-2.3906-0.10938zm11.344 5.5469c0-1.6758 0.25-3.0859 0.75-4.2344 0.375-0.83203 0.88281-1.582 1.5312-2.25 0.64453-0.66406 1.3516-1.1602 2.125-1.4844 1.0312-0.4375 2.2188-0.65625 3.5625-0.65625 2.4141 0 4.3516 0.75781 5.8125 2.2656 1.457 1.5 2.1875 3.5938 2.1875 6.2812 0 2.6562-0.72656 4.7344-2.1719 6.2344-1.4375 1.5-3.3711 2.25-5.7969 2.25-2.4492 0-4.3984-0.74219-5.8438-2.2344-1.4375-1.5-2.1562-3.5547-2.1562-6.1719zm3.4219-0.125c0 1.8672 0.42969 3.2812 1.2969 4.25 0.86328 0.96094 1.957 1.4375 3.2812 1.4375 1.3203 0 2.4062-0.47266 3.25-1.4219 0.85156-0.95703 1.2812-2.3906 1.2812-4.2969 0-1.8945-0.41797-3.3047-1.25-4.2344-0.82422-0.92578-1.918-1.3906-3.2812-1.3906-1.375 0-2.4844 0.47656-3.3281 1.4219-0.83594 0.9375-1.25 2.3516-1.25 4.2344zm14.297 2.8906 3.2344-0.3125c0.19531 1.0859 0.59375 1.8828 1.1875 2.3906 0.59375 0.51172 1.3945 0.76562 2.4062 0.76562 1.0703 0 1.8789-0.22266 2.4219-0.67188 0.53906-0.45703 0.8125-0.98828 0.8125-1.5938 0-0.39453-0.11719-0.72656-0.34375-1-0.23047-0.26953-0.625-0.50391-1.1875-0.70312-0.39844-0.13281-1.2891-0.375-2.6719-0.71875-1.7812-0.44531-3.0312-0.99219-3.75-1.6406-1.0117-0.90625-1.5156-2.0078-1.5156-3.3125 0-0.83203 0.23828-1.6133 0.71875-2.3438 0.47656-0.72656 1.1602-1.2852 2.0469-1.6719 0.89453-0.38281 1.9766-0.57812 3.25-0.57812 2.0625 0 3.6133 0.45312 4.6562 1.3594 1.0508 0.90625 1.6016 2.1172 1.6562 3.625l-3.3281 0.15625c-0.14844-0.84375-0.45312-1.4531-0.92188-1.8281-0.46094-0.375-1.1562-0.5625-2.0938-0.5625-0.96875 0-1.7305 0.20312-2.2812 0.60938-0.34375 0.25-0.51562 0.58984-0.51562 1.0156 0 0.38672 0.16016 0.71875 0.48438 1 0.42578 0.35547 1.4453 0.72656 3.0625 1.1094 1.6133 0.375 2.8047 0.76562 3.5781 1.1719 0.78125 0.40625 1.3906 0.96484 1.8281 1.6719 0.4375 0.71094 0.65625 1.5859 0.65625 2.625 0 0.94922-0.26562 1.8359-0.79688 2.6562-0.52344 0.82422-1.2617 1.4375-2.2188 1.8438-0.96094 0.39453-2.1523 0.59375-3.5781 0.59375-2.0859 0-3.6836-0.47656-4.7969-1.4375-1.1172-0.96875-1.7812-2.375-2-4.2188zm15.516-2.7656c0-1.6758 0.25-3.0859 0.75-4.2344 0.375-0.83203 0.88281-1.582 1.5312-2.25 0.64453-0.66406 1.3516-1.1602 2.125-1.4844 1.0312-0.4375 2.2188-0.65625 3.5625-0.65625 2.4141 0 4.3516 0.75781 5.8125 2.2656 1.457 1.5 2.1875 3.5938 2.1875 6.2812 0 2.6562-0.72656 4.7344-2.1719 6.2344-1.4375 1.5-3.3711 2.25-5.7969 2.25-2.4492 0-4.3984-0.74219-5.8438-2.2344-1.4375-1.5-2.1562-3.5547-2.1562-6.1719zm3.4219-0.125c0 1.8672 0.42969 3.2812 1.2969 4.25 0.86328 0.96094 1.957 1.4375 3.2812 1.4375 1.3203 0 2.4062-0.47266 3.25-1.4219 0.85156-0.95703 1.2812-2.3906 1.2812-4.2969 0-1.8945-0.41797-3.3047-1.25-4.2344-0.82422-0.92578-1.918-1.3906-3.2812-1.3906-1.375 0-2.4844 0.47656-3.3281 1.4219-0.83594 0.9375-1.25 2.3516-1.25 4.2344zm29.984 8.25h-3.6094l-1.4375-3.7344h-6.5781l-1.3594 3.7344h-3.5312l6.4062-16.469h3.5156zm-6.1094-6.5156-2.2812-6.1094-2.2188 6.1094zm0 0" fill="none" stroke="#fff" stroke-linecap="round" stroke-linejoin="round" stroke-miterlimit="10" stroke-width="2"/>
<path d="m198.93 347.35 3.2344-0.3125c0.19531 1.0859 0.59375 1.8828 1.1875 2.3906 0.59375 0.51172 1.3945 0.76562 2.4062 0.76562 1.0703 0 1.8789-0.22266 2.4219-0.67188 0.53906-0.45703 0.8125-0.98828 0.8125-1.5938 0-0.39453-0.11719-0.72656-0.34375-1-0.23047-0.26953-0.625-0.50391-1.1875-0.70312-0.39844-0.13281-1.2891-0.375-2.6719-0.71875-1.7812-0.44531-3.0312-0.99219-3.75-1.6406-1.0117-0.90625-1.5156-2.0078-1.5156-3.3125 0-0.83203 0.23828-1.6133 0.71875-2.3438 0.47656-0.72656 1.1602-1.2852 2.0469-1.6719 0.89453-0.38281 1.9766-0.57812 3.25-0.57812 2.0625 0 3.6133 0.45312 4.6562 1.3594 1.0508 0.90625 1.6016 2.1172 1.6562 3.625l-3.3281 0.15625c-0.14844-0.84375-0.45312-1.4531-0.92188-1.8281-0.46094-0.375-1.1562-0.5625-2.0938-0.5625-0.96875 0-1.7305 0.20312-2.2812 0.60938-0.34375 0.25-0.51562 0.58984-0.51562 1.0156 0 0.38672 0.16016 0.71875 0.48438 1 0.42578 0.35547 1.4453 0.72656 3.0625 1.1094 1.6133 0.375 2.8047 0.76562 3.5781 1.1719 0.78125 0.40625 1.3906 0.96484 1.8281 1.6719 0.4375 0.71094 0.65625 1.5859 0.65625 2.625 0 0.94922-0.26562 1.8359-0.79688 2.6562-0.52344 0.82422-1.2617 1.4375-2.2188 1.8438-0.96094 0.39453-2.1523 0.59375-3.5781 0.59375-2.0859 0-3.6836-0.47656-4.7969-1.4375-1.1172-0.96875-1.7812-2.375-2-4.2188zm31.031 5.3594h-3.6094l-1.4375-3.7344h-6.5781l-1.3594 3.7344h-3.5312l6.4062-16.469h3.5156zm-6.1094-6.5156-2.2812-6.1094-2.2188 6.1094zm7.875 6.5156v-16.469h5.3438c2.0195 0 3.3359 0.085937 3.9531 0.25 0.9375 0.25 1.7227 0.79297 2.3594 1.625 0.63281 0.82422 0.95312 1.8867 0.95312 3.1875 0 1.0117-0.18359 1.8672-0.54688 2.5625-0.36719 0.6875-0.83594 1.2305-1.4062 1.625-0.5625 0.38672-1.1367 0.64062-1.7188 0.76562-0.79297 0.16797-1.9375 0.25-3.4375 0.25h-2.1719v6.2031zm3.3281-13.672v4.6719h1.8125c1.3125 0 2.1875-0.085938 2.625-0.26562 0.44531-0.17578 0.79688-0.44531 1.0469-0.8125 0.25-0.36328 0.375-0.78906 0.375-1.2812 0-0.59375-0.17969-1.082-0.53125-1.4688-0.35547-0.39453-0.79688-0.64062-1.3281-0.73438-0.39844-0.070313-1.1953-0.10938-2.3906-0.10938zm11.344 5.5469c0-1.6758 0.25-3.0859 0.75-4.2344 0.375-0.83203 0.88281-1.582 1.5312-2.25 0.64453-0.66406 1.3516-1.1602 2.125-1.4844 1.0312-0.4375 2.2188-0.65625 3.5625-0.65625 2.4141 0 4.3516 0.75781 5.8125 2.2656 1.457 1.5 2.1875 3.5938 2.1875 6.2812 0 2.6562-0.72656 4.7344-2.1719 6.2344-1.4375 1.5-3.3711 2.25-5.7969 2.25-2.4492 0-4.3984-0.74219-5.8438-2.2344-1.4375-1.5-2.1562-3.5547-2.1562-6.1719zm3.4219-0.125c0 1.8672 0.42969 3.2812 1.2969 4.25 0.86328 0.96094 1.957 1.4375 3.2812 1.4375 1.3203 0 2.4062-0.47266 3.25-1.4219 0.85156-0.95703 1.2812-2.3906 1.2812-4.2969 0-1.8945-0.41797-3.3047-1.25-4.2344-0.82422-0.92578-1.918-1.3906-3.2812-1.3906-1.375 0-2.4844 0.47656-3.3281 1.4219-0.83594 0.9375-1.25 2.3516-1.25 4.2344zm14.297 2.8906 3.2344-0.3125c0.19531 1.0859 0.59375 1.8828 1.1875 2.3906 0.59375 0.51172 1.3945 0.76562 2.4062 0.76562 1.0703 0 1.8789-0.22266 2.4219-0.67188 0.53906-0.45703 0.8125-0.98828 0.8125-1.5938 0-0.39453-0.11719-0.72656-0.34375-1-0.23047-0.26953-0.625-0.50391-1.1875-0.70312-0.39844-0.13281-1.2891-0.375-2.6719-0.71875-1.7812-0.44531-3.0312-0.99219-3.75-1.6406-1.0117-0.90625-1.5156-2.0078-1.5156-3.3125 0-0.83203 0.23828-1.6133 0.71875-2.3438 0.47656-0.72656 1.1602-1.2852 2.0469-1.6719 0.89453-0.38281 1.9766-0.57812 3.25-0.57812 2.0625 0 3.6133 0.45312 4.6562 1.3594 1.0508 0.90625 1.6016 2.1172 1.6562 3.625l-3.3281 0.15625c-0.14844-0.84375-0.45312-1.4531-0.92188-1.8281-0.46094-0.375-1.1562-0.5625-2.0938-0.5625-0.96875 0-1.7305 0.20312-2.2812 0.60938-0.34375 0.25-0.51562 0.58984-0.51562 1.0156 0 0.38672 0.16016 0.71875 0.48438 1 0.42578 0.35547 1.4453 0.72656 3.0625 1.1094 1.6133 0.375 2.8047 0.76562 3.5781 1.1719 0.78125 0.40625 1.3906 0.96484 1.8281 1.6719 0.4375 0.71094 0.65625 1.5859 0.65625 2.625 0 0.94922-0.26562 1.8359-0.79688 2.6562-0.52344 0.82422-1.2617 1.4375-2.2188 1.8438-0.96094 0.39453-2.1523 0.59375-3.5781 0.59375-2.0859 0-3.6836-0.47656-4.7969-1.4375-1.1172-0.96875-1.7812-2.375-2-4.2188zm15.516-2.7656c0-1.6758 0.25-3.0859 0.75-4.2344 0.375-0.83203 0.88281-1.582 1.5312-2.25 0.64453-0.66406 1.3516-1.1602 2.125-1.4844 1.0312-0.4375 2.2188-0.65625 3.5625-0.65625 2.4141 0 4.3516 0.75781 5.8125 2.2656 1.457 1.5 2.1875 3.5938 2.1875 6.2812 0 2.6562-0.72656 4.7344-2.1719 6.2344-1.4375 1.5-3.3711 2.25-5.7969 2.25-2.4492 0-4.3984-0.74219-5.8438-2.2344-1.4375-1.5-2.1562-3.5547-2.1562-6.1719zm3.4219-0.125c0 1.8672 0.42969 3.2812 1.2969 4.25 0.86328 0.96094 1.957 1.4375 3.2812 1.4375 1.3203 0 2.4062-0.47266 3.25-1.4219 0.85156-0.95703 1.2812-2.3906 1.2812-4.2969 0-1.8945-0.41797-3.3047-1.25-4.2344-0.82422-0.92578-1.918-1.3906-3.2812-1.3906-1.375 0-2.4844 0.47656-3.3281 1.4219-0.83594 0.9375-1.25 2.3516-1.25 4.2344zm29.984 8.25h-3.6094l-1.4375-3.7344h-6.5781l-1.3594 3.7344h-3.5312l6.4062-16.469h3.5156zm-6.1094-6.5156-2.2812-6.1094-2.2188 6.1094z" fill-rule="evenodd"/>
</g>
</svg>
