<?xml version="1.0" encoding="UTF-8"?>
<svg width="405pt" height="500pt" version="1.1" viewBox="0 0 405 500" xmlns="http://www.w3.org/2000/svg">
<g id="a">
<rect width="405" height="500" fill="none"/>
<path d="m143.95 159.3 1.0977 0.68359 1.3125 0.88281 0.80078 1.6055 0.0625 1.1367 2.3672 1.9023 1.3516 0.52734 1.4922 0.41016 1.1523 0.31641 1.8242 1.1328 2.293 1.6289 1.5781 1.3555 2.1289 1.7852 0.24609 2.4258 1.2031 3.1133 0.14844 2.1953 0.60938 1.7383 0.74609 0.80469 1.3086 1.1406 1.3359 0.48438 2.1914 0.19531 1.0273 0.15625 1.7383 0.69531 0.91797 1.3438 0.90234 1.4492 1.6055 0.60938 1.0586 0.42969-0.097656 1.4492 0.82031 2.4297 0.49219 1.0586 0.14844 2.375-0.24609 1.1484 1.2539 1.9023 1.0078 1.5898 0.26562 1.6797-0.35547 1.5508-0.058593 1.3516 0.96094 1.3906 0.39062 0.91797 0.72656 1.0586 0.90234 0.80469 0.44922 1.0977-0.66797 1.3906-0.25391 1.2539-0.66406 2.2891-0.55859 0.98828-0.75391 0.78906-1.3125 0.87109-1.125 1.0781-1.1445 2.1055 0.007813 1.3359 0.5625 3.4336 0.51172 1.5195 0.17188 1.0781-0.42969 1.082-1.875 3.1328-0.83203 2.3984 0.92578 2.9805 0.10547 1.3867-0.75781 1.4727-0.70703 2.0039-1.5547 1.8594-0.60938 0.96875-1.293 3.0586-0.75 3.2383-0.92188 1.2734-1.4141 0.91406-0.47266 1.1016-0.074219 1.0625 0.91406 3.7539 0.59375 2.5625 0.71484 2.4453 0.03125 2.918 0.83594 2.7422 0.28516 1.7734 0.80469 1.9727 1.5938 1.9062 0.83203 1.543 0.38281 1.1992 2.5703 2.5898 0.78125 1.1758 2.1406 4.0898 1.5391 1.6953 2.3047 1.7227 0.76953 1.168-0.13281 1.9883 0.1875 1.5664-0.50781 1.2539 0.1875 1.2344 0.53906 0.94141 0.10156 1.082-0.45312 1 0.38281 1.2148 0.86719 1.3359 0.83203 0.875 0.61328 0.98047 0.58594 1.9102-0.22266 1.293-0.93359 0.78125-0.66406 1.0039-0.13281 1.3008-0.33203 1.0859-0.83203 0.70703-1.168 0.35547-0.8125 0.88281-1.125 1.3359-0.60156 1.3594-0.35547 1.0195-0.09375 1.957-0.34766 1.6992-0.63281 1.2383-0.24609 1.2734-0.70312 0.86719-1.0117 0.097656-0.85156 0.56641-0.49219 0.95312-0.21875 1.793 0.26953 1.0117-0.58594 1.3164 0.13672 1.1211 0.50781 0.86719 0.27344 3.4766 1.0391 1.5625 0.050781 2.0742-0.27344 1.3281 0.14453 1.3594 0.34766 1.1992 0.33203 1.5039-0.26562 1.707-0.69531 1.1289-0.48438 1.0625-0.98438 1.5312-0.86719 0.90234-0.49219 1.3438-0.11328 1.5352-0.26172 1.0781-1.5156 1.1172-1.2969 1.375-0.5625 0.83203-0.85938 0.64844-1.5391 0.78906-0.66797 1.0859-1.0391 0.48828-1.1445 0.83984-0.90234 0.60938-0.55078 0.85938-1.2344 0.85938-1.293 0.42578-1.3164 1.3516-0.60547 0.83984-0.79688 0.82422-0.63672 0.875-1.418 1.4219-0.57812 1.4414-0.57812 1.1133-0.85938 0.78516-0.78125 1.2812-1.8359 1.207-1.1328 0.62109-1.0273 0.6875-1.2812 0.32422-1.4961 0.96094-1.082 0.63672-0.71484 1.0625-1.0156 0.62109-1.3633 0.46484-1.8242 0.17969-0.59766 1.1211-0.085938 1.1484-1.4609 0.79688-1.3086 0.14844-1.1289 0.61719-1.6055-0.18359-1.2188 0.20312-0.47266 1.1367 0.39062 1.582-0.12891 1.1484-0.50781 1.0117-0.77344 0.8125-1.5898 0.69922-1.0195 0.63672-0.94531 0.35547-0.41406 1.0391-0.58203 1.707 0.17969 0.98828-0.67188 1-0.8125 0.73047-0.48438 1.5312-0.53125 0.84375-0.30469 1.1367-0.83984 0.95312-0.88672 1.0703-1.0586 0.35547-0.90234 0.67188-1.2148 0.28906-1.0703 0.11719-0.71484 0.89453-0.875 0.52344-1.3242-0.027344-0.80469-1.918-3.5859-3.4961-0.96484-1.9883-1.0352-1.4648-0.92578-0.89062-1.168-0.58594-0.67578-1.0898 0.18359-1.8555-0.85547-1.7422-0.33594-2.0977 0.17969-1.3242 1.0156-2.6758-0.17578-1.9648-0.95703-1.9648-2.3125-2.1602-2.2891-2.1406-1.3125-0.96484-3.5547-3.4336-2.9453-2.5078-2.8164-2.7344-4.8594-4.0352-2.707-2.6406-2.3125-1.7891-7.2461-6.6367-2.0781-2.168-8.0273-7.2852-43.008-38.512 2.4609 0.35547 2.2617-0.12109 3.7031 1.1602 2.5039 1.1016 1.6914 0.074218 0.625-0.86328 0.67578-0.98828 0.71875-1.5156 0.41016-0.92969 0.39062-1.0156 0.28125-1.6797 0.53125-1.6133 2.0547-1.0195 2.2656-2.0312 1.0898-0.97656 0.73438-0.75391 1.5508-1.7227 0.89453-1.2227 0.86328-0.79688 1.1484-0.88281 1.9844-0.625 1.7695-1.0625 1.7109-1.5234 1.1133-1.5508 2.4844-4.1133 1.2148-1.6172 0.59766-2.3711 0.62891-1.4531 0.40234-1.0664 0.67969-3.7578 0.77734-2.4648 2.0195-2.1641 2.6484-2.8906 0.85156-1.4492 1.2891-1.5586 1.3633-3.3359 0.56641-1.0195 0.68359-2.2695 0.96094-2.2148 2.1758-2.0977 1.0312-1.4727 2.1211-3.0312 0.47266-1.7812 0.3125-1.8047-0.058593-1.7422-0.60938-1.168 1.1367-1.418 0.49219-1.1953 0.56641-2.2344v-1.7227l0.44922-1.4883 1.2344-1.2734 1.4883-0.72656 2.0977-0.46875 1.293-0.48828 1.2734-0.86328 2.0391-0.23438 2.3672 0.41016 1.4727 0.37109 1.4492 0.53125 1.1758 0.70312 1.5859-0.44922 0.58594-0.96094 0.45312-1.0586 1.2734-1.0156 1.25-0.47266 1.1953-0.058593 1.332-0.019532 1.0781 0.42969 1.7656 0.40234 1.3125 0.070312 1.7422-0.92188 1.3125-0.80078 0.27344-1.375-0.23438-1.5859 0.058594-1.0977 0.23047-1.8594 1.2188-1.8164 0.41016-1.2969-0.13672-1.6484-0.078125-1.5859 0.58984-1.9375 0.56641-1.9219 0.35156-1.0977 1.2305-1.5156 2.0273-1.9023 0.38672-1.2695-1.6836-1.2266-1.8477-2.1953-0.46094-2.2109-0.58984-1.1328-0.30859-1.5-1.2383-2.0117-0.39453-1.2539v-2l-0.019531-1.3125-0.41016-1.0156-0.71875-1.625-1.0078-0.98828-1.3555-0.4375-0.44531-1.1641 0.29297-1.6836 0.039062-1.6641-1.2539-0.88281-1.9375-0.64453-1.3906-0.64844-1.6836-1.6641-0.47266-1.2344-0.48828-1.6836 0.11719-1.0195-0.078125-1.1758 0.097657-1.4297 1.0586-0.82422 0.29297-1.7617-0.019531-1.2734 1.0195 0.19531 0.64453 0.92188 1.1953 1.0586 1.2734 0.60547 2.1562 0.29297 1.1367-0.68359 1.0781-0.60938 1.8789-0.37109h1.0977l1.1562 0.21484 1.3516 0.25391 1.0977 0.29688 1.6055 0.50781 1.8008-0.96094 0.90234-0.64453 1.1172-1.2344 1.4297-1.2148 1.1562-0.39062 1.8203-0.84375 1.5273-0.15625 1.0977 0.35156 1.5547 0.13281 2.2227-0.94922 2.3438 0.054687 0.95312 0.38672 1.4297-0.13281 1.5859-1.4688 1.1758-0.62891 1.332-0.21484 1.7031-0.3125z" fill="#ccc" fill-rule="evenodd"/>
<path d="m143.95 159.3 1.0977 0.68359 1.3125 0.88281 0.80078 1.6055 0.0625 1.1367 2.3672 1.9023 1.3516 0.52734 1.4922 0.41016 1.1523 0.31641 1.8242 1.1328 2.293 1.6289 1.5781 1.3555 2.1289 1.7852 0.24609 2.4258 1.2031 3.1133 0.14844 2.1953 0.60938 1.7383 0.74609 0.80469 1.3086 1.1406 1.3359 0.48438 2.1914 0.19531 1.0273 0.15625 1.7383 0.69531 0.91797 1.3438 0.90234 1.4492 1.6055 0.60938 1.0586 0.42969-0.097656 1.4492 0.82031 2.4297 0.49219 1.0586 0.14844 2.375-0.24609 1.1484 1.2539 1.9023 1.0078 1.5898 0.26562 1.6797-0.35547 1.5508-0.058593 1.3516 0.96094 1.3906 0.39062 0.91797 0.72656 1.0586 0.90234 0.80469 0.44922 1.0977-0.66797 1.3906-0.25391 1.2539-0.66406 2.2891-0.55859 0.98828-0.75391 0.78906-1.3125 0.87109-1.125 1.0781-1.1445 2.1055 0.007813 1.3359 0.5625 3.4336 0.51172 1.5195 0.17188 1.0781-0.42969 1.082-1.875 3.1328-0.83203 2.3984 0.92578 2.9805 0.10547 1.3867-0.75781 1.4727-0.70703 2.0039-1.5547 1.8594-0.60938 0.96875-1.293 3.0586-0.75 3.2383-0.92188 1.2734-1.4141 0.91406-0.47266 1.1016-0.074219 1.0625 0.91406 3.7539 0.59375 2.5625 0.71484 2.4453 0.03125 2.918 0.83594 2.7422 0.28516 1.7734 0.80469 1.9727 1.5938 1.9062 0.83203 1.543 0.38281 1.1992 2.5703 2.5898 0.78125 1.1758 2.1406 4.0898 1.5391 1.6953 2.3047 1.7227 0.76953 1.168-0.13281 1.9883 0.1875 1.5664-0.50781 1.2539 0.1875 1.2344 0.53906 0.94141 0.10156 1.082-0.45312 1 0.38281 1.2148 0.86719 1.3359 0.83203 0.875 0.61328 0.98047 0.58594 1.9102-0.22266 1.293-0.93359 0.78125-0.66406 1.0039-0.13281 1.3008-0.33203 1.0859-0.83203 0.70703-1.168 0.35547-0.8125 0.88281-1.125 1.3359-0.60156 1.3594-0.35547 1.0195-0.09375 1.957-0.34766 1.6992-0.63281 1.2383-0.24609 1.2734-0.70312 0.86719-1.0117 0.097656-0.85156 0.56641-0.49219 0.95312-0.21875 1.793 0.26953 1.0117-0.58594 1.3164 0.13672 1.1211 0.50781 0.86719 0.27344 3.4766 1.0391 1.5625 0.050781 2.0742-0.27344 1.3281 0.14453 1.3594 0.34766 1.1992 0.33203 1.5039-0.26562 1.707-0.69531 1.1289-0.48438 1.0625-0.98438 1.5312-0.86719 0.90234-0.49219 1.3438-0.11328 1.5352-0.26172 1.0781-1.5156 1.1172-1.2969 1.375-0.5625 0.83203-0.85938 0.64844-1.5391 0.78906-0.66797 1.0859-1.0391 0.48828-1.1445 0.83984-0.90234 0.60938-0.55078 0.85938-1.2344 0.85938-1.293 0.42578-1.3164 1.3516-0.60547 0.83984-0.79688 0.82422-0.63672 0.875-1.418 1.4219-0.57812 1.4414-0.57812 1.1133-0.85938 0.78516-0.78125 1.2812-1.8359 1.207-1.1328 0.62109-1.0273 0.6875-1.2812 0.32422-1.4961 0.96094-1.082 0.63672-0.71484 1.0625-1.0156 0.62109-1.3633 0.46484-1.8242 0.17969-0.59766 1.1211-0.085938 1.1484-1.4609 0.79688-1.3086 0.14844-1.1289 0.61719-1.6055-0.18359-1.2188 0.20312-0.47266 1.1367 0.39062 1.582-0.12891 1.1484-0.50781 1.0117-0.77344 0.8125-1.5898 0.69922-1.0195 0.63672-0.94531 0.35547-0.41406 1.0391-0.58203 1.707 0.17969 0.98828-0.67188 1-0.8125 0.73047-0.48438 1.5312-0.53125 0.84375-0.30469 1.1367-0.83984 0.95312-0.88672 1.0703-1.0586 0.35547-0.90234 0.67188-1.2148 0.28906-1.0703 0.11719-0.71484 0.89453-0.875 0.52344-1.3242-0.027344-0.80469-1.918-3.5859-3.4961-0.96484-1.9883-1.0352-1.4648-0.92578-0.89062-1.168-0.58594-0.67578-1.0898 0.18359-1.8555-0.85547-1.7422-0.33594-2.0977 0.17969-1.3242 1.0156-2.6758-0.17578-1.9648-0.95703-1.9648-2.3125-2.1602-2.2891-2.1406-1.3125-0.96484-3.5547-3.4336-2.9453-2.5078-2.8164-2.7344-4.8594-4.0352-2.707-2.6406-2.3125-1.7891-7.2461-6.6367-2.0781-2.168-8.0273-7.2852-43.008-38.512 2.4609 0.35547 2.2617-0.12109 3.7031 1.1602 2.5039 1.1016 1.6914 0.074218 0.625-0.86328 0.67578-0.98828 0.71875-1.5156 0.41016-0.92969 0.39062-1.0156 0.28125-1.6797 0.53125-1.6133 2.0547-1.0195 2.2656-2.0312 1.0898-0.97656 0.73438-0.75391 1.5508-1.7227 0.89453-1.2227 0.86328-0.79688 1.1484-0.88281 1.9844-0.625 1.7695-1.0625 1.7109-1.5234 1.1133-1.5508 2.4844-4.1133 1.2148-1.6172 0.59766-2.3711 0.62891-1.4531 0.40234-1.0664 0.67969-3.7578 0.77734-2.4648 2.0195-2.1641 2.6484-2.8906 0.85156-1.4492 1.2891-1.5586 1.3633-3.3359 0.56641-1.0195 0.68359-2.2695 0.96094-2.2148 2.1758-2.0977 1.0312-1.4727 2.1211-3.0312 0.47266-1.7812 0.3125-1.8047-0.058593-1.7422-0.60938-1.168 1.1367-1.418 0.49219-1.1953 0.56641-2.2344v-1.7227l0.44922-1.4883 1.2344-1.2734 1.4883-0.72656 2.0977-0.46875 1.293-0.48828 1.2734-0.86328 2.0391-0.23438 2.3672 0.41016 1.4727 0.37109 1.4492 0.53125 1.1758 0.70312 1.5859-0.44922 0.58594-0.96094 0.45312-1.0586 1.2734-1.0156 1.25-0.47266 1.1953-0.058593 1.332-0.019532 1.0781 0.42969 1.7656 0.40234 1.3125 0.070312 1.7422-0.92188 1.3125-0.80078 0.27344-1.375-0.23438-1.5859 0.058594-1.0977 0.23047-1.8594 1.2188-1.8164 0.41016-1.2969-0.13672-1.6484-0.078125-1.5859 0.58984-1.9375 0.56641-1.9219 0.35156-1.0977 1.2305-1.5156 2.0273-1.9023 0.38672-1.2695-1.6836-1.2266-1.8477-2.1953-0.46094-2.2109-0.58984-1.1328-0.30859-1.5-1.2383-2.0117-0.39453-1.2539v-2l-0.019531-1.3125-0.41016-1.0156-0.71875-1.625-1.0078-0.98828-1.3555-0.4375-0.44531-1.1641 0.29297-1.6836 0.039062-1.6641-1.2539-0.88281-1.9375-0.64453-1.3906-0.64844-1.6836-1.6641-0.47266-1.2344-0.48828-1.6836 0.11719-1.0195-0.078125-1.1758 0.097657-1.4297 1.0586-0.82422 0.29297-1.7617-0.019531-1.2734 1.0195 0.19531 0.64453 0.92188 1.1953 1.0586 1.2734 0.60547 2.1562 0.29297 1.1367-0.68359 1.0781-0.60938 1.8789-0.37109h1.0977l1.1562 0.21484 1.3516 0.25391 1.0977 0.29688 1.6055 0.50781 1.8008-0.96094 0.90234-0.64453 1.1172-1.2344 1.4297-1.2148 1.1562-0.39062 1.8203-0.84375 1.5273-0.15625 1.0977 0.35156 1.5547 0.13281 2.2227-0.94922 2.3438 0.054687 0.95312 0.38672 1.4297-0.13281 1.5859-1.4688 1.1758-0.62891 1.332-0.21484 1.7031-0.3125 1.3125 0.15625" fill="none" stroke="#fff" stroke-linecap="round" stroke-linejoin="round" stroke-miterlimit="10" stroke-width="2"/>
<path d="m241.48 0.28906 1.3906 0.70703 0.36328 1.4961-0.73828 1.3789-0.92969 1.9102 1.2383 2.2031 1.3047 1.6641 1.5156 1.0703 1.0039 0.12891 1.625 0.0625 1.2422 0.42969 0.96094 1.0469 0.22656 4.7188 0.24219 2.2266 0.48828 1.2344 4 2.5898 4.3516 1.7305 1.3633 0.53906 3.3398 0.4375 1.4062 0.32422 1.0547 0.4375 1.4492 0.34375 2.793 1.2969 1.7969 0.44922 2.7344 0.28906 4.75-0.10938 1.1133-0.25 0.97266-0.34766 1.4531-0.26172 1.582-0.78906 1.0391 0.10547 1.5117 1.2109 1.2461 2.2773 2.168 1.6406 2.2148 1.9844 1.4453-0.035156 2.2109-1.1016 1.8555-0.47266 1.9297 0.10547 1.0156 0.34375 0.91016 0.99219-0.80078 0.97656 0.0625 2.3477 0.10938 1.4961-0.17188 1.6914-0.42969 2.2188-0.23438 2.2227-0.53516 1.1992-1.2383 0.23438-1.3672 0.30078-1.0898 0.68359-0.75781 0.78125-1.0586 0.32812-1.7734 0.55469-0.98438 0.87891-0.875 0.9375-1.0898-0.019532-1.3906-0.94141-1.0664-0.33984-1.0547 0.03125-1.2578-0.30859-1.1992 0.51562-1.3672 0.17969-2.4141 0.60938-3.7227 1.8086-0.93359 0.86719-1.8125 2.1602-0.85156 1.5352-0.57812 1.7695-0.32031 2.9023-1.1992 0.70703-1.5195 0.42578-2.7344-0.32031-1.6445-0.66016-1.1328-0.47266-1.6875-0.53125-1.0117 0.14062-0.97656 0.45703-1.1953 0.85547-0.98438 1.4102-0.86328 0.99219-1.2422 3.9453-1.1016 3.3867-2.1172 4.4453-1.0156 5.7578-0.67578 3.5547-1.3555 3.5586-0.97266 2.0312-0.33984 1.4844-1.1445 1.3125-1.0938 0.73047-0.21875 1.1719 0.63672 1.8633 0.25391 2.2852 0.16797 1.6094-0.46484 3.9375-0.55078 2.5 0.39453 1.0156 0.57812 1.1445 0.36328 1.375 1.207 1.6719 1.1406 1.5234 0.42578 1.3984-0.12891 2.1602-0.33984 1.9883-0.039062 1.8203 1.3516 3.3867 1.9062 3.3477 1.9062 2.2422 3.8086 2.1172 1.6953 1.1445 3.6406 1.0586 3.2188 0.71875 2.1992-0.042969 1.3945-0.58203 0.55469-1.7891v-1.8633l0.29688-1.0586 1.7773-2.3281 2.5-1.7773 2.918-1.3125 1.9062-0.67969 3.4727 0.085938 4.0234 0.21094 3.3867-0.71875 2.707-1.4414 2.0352-1.3125 2.9219-2.625 3.1719-2.4961 1.0586-1.4805 0.59375-1.7383-0.33984-1.1016-0.60156-0.92578 0.6875-1.5703 0.29688-1.2695 0.80469-1.0586 0.21094-1.1875 0.17188-1.1836 0.71875-0.89062 1.0078-1.2695 0.88672-0.69922 1.3242 1.6289 0.67578 0.93359 0.93359 0.67578 1.6914 0.085937 1.0078 0.11719 1.7422 0.64844 2.7812 0.39453 2.3438 0.66016 1.5664 0.67969 1.2266 0.46484 1.1445 0.125 1.0156 0.29688 1.1875 1.2695 0.125 1.6094-0.71875 1.9062-1.4414 1.6914-0.88672 1.6094 0.58984 1.5273 1.3555 0.71875 1.0273 1.8164 0.89062 0.99219 0.40625 1.4062 0.91406 1.2891 1.4414 0.47266 1.3477-0.097657 2.1836-0.44922 1.5391 0.40625 1.6953 1 1.8711 1.5078 1.1367 0.91797 1.6016 1.6953 0.84375 1.6641 0.14844 1.5469 0.53125 1.1523 2.4062 0.73828 1.1914 0.53906 0.85547 0.96875-0.015625 1.1328-0.26172 2.0156-0.027344 1.1289 0.070313 1.8867 0.48047 1.8125 0.96875 1.0586 1.5078 0.97266 1.3516 0.64844 2.6953 0.85547 2.457 0.78125 1.2773 0.875 1.0391 0.92188 1.2891 0.45312 1.1289 1.4062 1.2852 1.207 1.3828 0.99609 0.66406 1.2734-0.75 1.0938-1.332 0.85938-0.66797 0.75781-0.17188 0.99609 0.13281 1.3086 1.0156 1.8594 0.71484 1.1406-0.23047 1.2656-0.91406 1.7852-0.53125 0.91797-0.73047 1.3477 0.73047 0.9375 1.1172 0.89453 1.0312 0.6875 1.1445 0.76172 0.95703 1.1484 2.5977 3.1211 1.5117 1.418 3.1133 2.5625 0.91016 1.2383 0.5625 1.0352 1.1602 1.5273 1.5625 1.9453 0.58594 0.89453 1.1484 1.0703 0.41016 1.0508 0.60938 1.0195-0.90234 0.80469-0.125 1.0156-0.46484 2.5-0.72266 2.4531-0.67578 1.2305v1.4375l0.88672 1.6523 1.2305 2.3281 0.042969 1.1836-0.12891 2.5859 0.21094 1.3945 0.50781 2.0352 0.25391 1.4805 0.085937 1.0156 0.63672 2.582 0.46484 2.8789 0.76172 1.5664 0.29688 0.97656-0.12891 1.2695 0.042969 1.0586-1.2695 1.1836-1.4805 1.6094-2.4141 1.2266-0.97266 0.67969-1.7383 1.3125-1.2695 1.6094-1.0156 1.6094-0.55078 1.7773-0.97266 1.7344-0.38281 0.97266 0.042969 1.5664 0.042968 3.5156-0.12891 1.9062-1.0977 1.5664-0.67969 1.3555-0.59375 1.4805-0.46484 1.6523-1.1836 1.0156-1.1016 1.3125-1.0586 1.0586-0.50781 1.6914 0.29297 1.1797 1.6367 2.293 0.14844 1.0508-2.2695 3.043-0.5625 0.94141-0.4375 1.1758-0.10547 1.5234 0.30469 2.8906 0.23047 6.9883-0.36328 2.918-0.1875 1.5703-1.1445 1.9062 0.042969 1.1016 2.0742 2.3281 0.71875 1.8633-0.50781 2.668 0.38281 2.6641 0.63281 1.6523-0.25391 1.4805-0.32031 1.9414-0.46484 1.2617 1.1406 2.207 1.4492 1.418 1.7422 0.78906 1.0547 0.25781 0.92188 0.58203 0.81641 1.5664-1.3516 0.99219-2.5469-0.15625-3.2578 0.17969-1.2891 0.15234-1.3516 0.6875-1.0977 1.1094-0.28516 4.2578-0.29297 1.9609 0.76562 1.9922 1.4531 1.5938 0.25 1.6445-1.6523 2.9102-0.64453 1.4727-0.84375 1.2188-1.2266 1.3555-2.5078 2.0781-2.1719 3.082-2.2305 1.9922-0.26562 1.1914 0.46875 1.3125 2.293 0.92969 1.3984 0.71875 0.85938 1.1953 0.5625 2.125-0.066407 5.4492 1.1211 2.9336 0.37891 1.8281 0.36719 0.92969 0.40625 2.4219-0.09375 2.3516 0.11719 1.1016 1.8945 2.375 0.88281 1.5859 1.375 3.2461 1.7344 4.0664 1.3125 1.7344 0.50781 1.8633-0.21094 1.6523-0.55078 1.4805-0.42188 1.3984-0.89062 1.1836-1.3125 1.2695-0.63281 1.4414-1.1016 2.2852-1.5234 1.0586-1.5391 0.71875-2.0508 0.80469-1.2422 1.2109-0.98047 1.9805-1.4727 1.6016-2.5859 0.90625-3.6836 1.9805-1.1602 0.41797-1.1562 0.19531-1.8086-0.42578-1.2852-0.082032-0.17188-1.0508-1.3125-1.1445-1.3555-0.33984-1.0586-0.29688-1.0156-0.039062-2.5234-0.20703-2.4336-0.30469-1.7773 0.42578-1.1562 0.98438-0.15625 2.1484-1.1406 0.89062-1.4844-0.59766-1.2461-0.042968-1.8047 0.87109-1.2461 0.48047-1.5586-0.1875-1.9141-1.2461-0.87109-0.875-1.3867-0.81641-2.8555-0.83203-2.1562 1.3906-1.1797 0.375-1.9141 0.32422-1.5391-0.53906-2.0234 0.88281-1.082 1.4609-0.88672 0.64844-3.1602 0.21094-3.1875 1.2695-1.8477-0.16016-1.207 0.90625-0.59375 1.1953-1.707 1.0391-0.81641 0.80469-1.0625-0.03125-1.0391 0.70312-1.0039 0.52734-1.5781 1.0547-1.0273 0.23047-1.0664 0.15625-0.58203 0.89453-0.39453 1.1016-0.85938 0.83984-1.1172 0.34375-1.3711 1.7695-1.1094 0.87109-1.2305-0.097656-1.3242-0.34375-0.13672-1.5 0.011718-2.3242-0.078125-2.0625-0.27734-1.7305 0.38281-2.2305-0.011719-1.8633-1.9258-2.1406-0.42188-0.99219-0.17188-1.4492 0.16406-2.4648 0.61719-2.3125 1.0039-1.9727 0.94922-1.0391 0.36719-2.6914 0.72656-1.3555-0.12109-1.6172-0.91016-0.42188-1.1758-0.14062-1.9062 0.32422-1.7773-1.0195-1.3086-0.5h-3.8594l-1.6641-0.42578-1.7109 0.25391-0.98828 0.48047-2.7891-0.066406-2.9688 0.050781-0.98828-1.1758-2.1055-1.1367-1.2852-1.4766-3.8047-1.5586-3.1562 0.91406-2.4648 0.29688-1.0977 0.57031-0.73438-0.70312-0.875-1.3281-2.5469-1.3203-1.3438-1.1445-0.37109-1.125-3.8945-2.3789-0.9375-1.0977-0.12109-2.4688-0.078125-7.625-0.51172-4.625 2.1445-11.652 0.21875-1.168 0.3125-1.7031v-2.6211l-0.41016-1.7969-0.59766-1.3867-1.4844-0.57031-1.2305 0.47266-1.418 0.75781-2.2422 0.78906-2.2695 0.53125-1.1484-0.0625-1.0078 0.19141-1.0391 0.99219-0.95312 0.80469-1.3984-0.042969-0.94531-0.60938-0.92188-0.46875-0.13672-1.3008-0.12109-1.332-0.375-1.0469 1.9414-1.1484 0.16016-1.3359 0.36328-1.0586 0.12891-1.4375-0.26562-1.3672-0.03125-1.3867-0.31641-1.1055 0.54688-1.0703 0.71875-0.75-0.18359-1.6562-0.36719-1.6484-0.39062-1.1289-1.668-2.0391-0.94141-1.4883-0.85156-0.5625-0.57422-0.91797-0.60547-0.82422-0.6875-0.89062 1.0547-0.99609 1.75 0.050781 1.8164-0.32031 0.80859-0.75 0.35547-1.1562-0.55859-1.8789 0.61328-1.3008 1.0195-0.54297 0.72266-1.1797-0.45312-1.2578-1.0703-0.89453-0.74609-0.99219-1.6992-1.4297-0.34375-1.0352 0.30078-1.5312 0.27734-1.6992 0.40234-1.7695 0.28906-1.0938 0.8125-1.082-0.007813-1.0078-1.1211-0.79297-1.4453-0.1875-0.96094-0.36328-0.54297-1.082 0.57031-1.1523 1.2148-0.875 0.94531-1.2695 0.62109-1.4766 0.18359-1.0117-0.074219-1.4297 0.53516-1.4844 0.75391-0.86719 0.92578-0.57031 1.4297-1.3516 0.61328-1.1133 1.2812-1.5703 0.67969-1.8711 0.18359-2.1875 0.52344-1.0781 0.082031-1.0625-0.33984-1.7578 0.25391-1.0898 0.18359-1.207-0.16016-1.0742 0.35547-1.2891 0.62109-0.80469 1.0859-0.035157 0.035156-1.043-0.15234-1.2578 0.042969-1.0469 0.875-0.6875 0.37891-1.7031 0.16406-1.1289 0.007812-1.0547 0.60547-0.97656 0.29297-1.2656-0.25391-1.582 0.027343-1.1133 0.16797-1.4531 0.25-0.99219 0.10938-1.2578-0.69141-1.2344-0.77344-0.91016 0.53516-1.3477 0.042968-1.1914 0.25781-1.207-0.97656-0.64453-1.4883-0.12891-1.8008-2.4141-0.40234-2.0391-0.89844-1.5977-0.94531-0.69922-0.98438-1.4688-0.81641-2.1328-0.30859-2.4062-1.0703-2.1914-2.1406-2.3125-0.75781-1.0039-0.70312-1.4609-0.89062-1.1914-0.35938-1.9258-0.46094-0.97266-0.6875-0.875-0.69531-0.78906-0.98438-0.67188-1.7344-1.2148-1.4453-0.63672-1.1992-1.1406-2.9492-1.1016-1.1992 0.09375-1.8672-0.81641-0.96094-0.52734-1.6055-0.52734-1.2617 0.16797-1.3594-0.33203-1.1797-0.44141-1.3516-0.64453-1.1641-0.19531-1.6836-0.88281-1.7578-0.66406-2.0234-0.58984-1.3711-0.14453-1.7344-0.29297-0.96875-0.78125-1.9023-1.9727 0.14453-1.4375-0.78516-1.9961-0.82031-2.4297 0.097656-1.4492-1.0586-0.42969-1.6055-0.60938-0.90234-1.4492-0.68359-1.2148-1.3125-0.72266-1.6875-0.25781-2.1914-0.19531-1.3359-0.48438-1.3086-1.1406-0.74609-0.80469-0.60938-1.7383-0.14844-2.1953-1.2031-3.1133-0.082031-1.9883-2.293-2.2227-1.5781-1.3555-2.293-1.6289-1.8242-1.1328-1.1523-0.31641-1.4922-0.41016-1.3516-0.52734-1.957-1.1367-0.47266-1.9023-0.80078-1.6055-0.90625-0.60938-1.5039-0.95703-1.3125-0.15625-1.0312 0.1875-2.0039 0.33984-1.1758 0.62891-0.98047 0.87891-1.4102 0.73828-1.5781-0.40234-1.4336-0.27344-3.1328 1.168-1.5547-0.13281-1.0977-0.35156-1.5273 0.15625-1.0391 0.56641-1.9375 0.66797-1.4297 1.2148-1.1172 1.2344-0.90234 0.64453-1.0391 0.62891-1.5078 0.23438-1.957-0.70703-1.3516-0.25391-1.1562-0.21484h-1.0977l-1.8789 0.37109-1.0781 0.60938-1.1367 0.68359-1.2344 0.039062-2.1953-0.9375-1.1953-1.0586-0.64453-0.92188-0.73828-1.0195 1.0742-1.6289 1.1055-1.3672 1.2461-1.1523 2.9258-3.5977 1.1445-1.7539 0.32812-1.0078 0.25-2.8516 0.56641-1.0781 2.0703-2.3242 0.71484-1.7969 0.18359-2.9922 1.125-2.1875-0.19922-1.6094-0.74219-0.76953-0.91016-0.60938-1.375-0.4375-1.9141-1.0625-3.1484-2.5664-5.3477-4.3711-1.9219-2.0156-0.015625-2.4023 0.73828-1.2188 0.77734-1.1758 1.1758-1.9375 0.14453-1.3672 1.4414-0.75781 1.082 0.0625 1.1562-0.18359 1.0508-1.5234 0.44922-1.0156-0.45312-1.8711-1.332-2.3477-1.4727-0.71094 2.4297-3.5781 1.5977-2.2578 0.65234-1.2539 0.55078-4.832-0.75-2.5742 0.15234-2.0742 1.8398-1.5977 1.0703-0.57031 1.7227-0.60547 2.4062-2.1992 0.19141-2.1133-0.49609-1.5938-1.7461-1.6914-2.6797-2.0586-1.0664-1.293 1.0977-2.7852 0.55078-2.1992-0.39453-1.5039-1.3633-2.7461-0.19922-1.7969-0.36328-2.8516 0.42969-1.0781 2.793-2.0664 1.2109-1.1914 0.75391-1.0312 0.375-0.93359 0.066406-1.1992 0.15625-1.9375 0.17188-1.6758 0.40625-1.9727 0.42969-1.125 0.63672-1.5234 2.4961-0.38672 1.793 0.59766 1.5547-0.35938 3.957-2.9375 1.1875-1.7969 3.3789-1.6602 2.4688-0.12109 1.3789-0.76172 2.918-0.20312 1.4883 0.50391 1.2695-0.76172 2.207-2.6211 0.875-1.5 1.2148-1.2852 0.070313-1.1797 1.3789-0.89062 2.8672-0.36719 1.5078-0.64844 2.4688 0.007812 2.0586-0.48047 1.5469-0.625 3.1562-2.3711 1.0195-1.1797 0.57031-1.0586-0.050781-2.793 0.50781-1.7266 1.0586-1.3125 2.7305-2.3477 1.0625-0.097656 1.0391 0.65625 3.7227-0.92969 2.4297-0.44922 1.5781-0.98438-0.09375-2.1875 2.3398-1.7305 1.5078-0.56641 1.0977-0.09375 0.99219 0.28125 1.5547 1.0938 2.9141 0.15234 1.0391-0.65625 1.25-1.3516 1.2812-0.51172 0.89844-0.60938 1.4922-0.5 1.3477-1.0195 1.9961-0.52344 2.9453-0.29297 3.1094-0.65625 1.5898-0.89453 2.5078-2.0039 0.0625-1.332 0.039062-1.3359 4.75-1.4414 2.6641-0.18359 2.1367 1.9883 2.0352 1.2383 2.3477 0.4375 1.5938 0.67969 2.1484 0.78125 0.88281 0.73438 1.6562-0.49609 1.3438-0.41406 1.4961-0.78906 3.9219-1.2422 1.0117-0.58594 1.1953-1.0078 1.418-0.67969 2.0312-1.1328 1.0273-0.72656 1.0898-0.57812 1.0898-0.097656z" fill="#ccc" fill-rule="evenodd"/>
<path d="m241.48 0.28906 1.3906 0.70703 0.36328 1.4961-0.73828 1.3789-0.92969 1.9102 1.2383 2.2031 1.3047 1.6641 1.5156 1.0703 1.0039 0.12891 1.625 0.0625 1.2422 0.42969 0.96094 1.0469 0.22656 4.7188 0.24219 2.2266 0.48828 1.2344 4 2.5898 4.3516 1.7305 1.3633 0.53906 3.3398 0.4375 1.4062 0.32422 1.0547 0.4375 1.4492 0.34375 2.793 1.2969 1.7969 0.44922 2.7344 0.28906 4.75-0.10938 1.1133-0.25 0.97266-0.34766 1.4531-0.26172 1.582-0.78906 1.0391 0.10547 1.5117 1.2109 1.2461 2.2773 2.168 1.6406 2.2148 1.9844 1.4453-0.035156 2.2109-1.1016 1.8555-0.47266 1.9297 0.10547 1.0156 0.34375 0.91016 0.99219-0.80078 0.97656 0.0625 2.3477 0.10938 1.4961-0.17188 1.6914-0.42969 2.2188-0.23438 2.2227-0.53516 1.1992-1.2383 0.23438-1.3672 0.30078-1.0898 0.68359-0.75781 0.78125-1.0586 0.32812-1.7734 0.55469-0.98438 0.87891-0.875 0.9375-1.0898-0.019532-1.3906-0.94141-1.0664-0.33984-1.0547 0.03125-1.2578-0.30859-1.1992 0.51562-1.3672 0.17969-2.4141 0.60938-3.7227 1.8086-0.93359 0.86719-1.8125 2.1602-0.85156 1.5352-0.57812 1.7695-0.32031 2.9023-1.1992 0.70703-1.5195 0.42578-2.7344-0.32031-1.6445-0.66016-1.1328-0.47266-1.6875-0.53125-1.0117 0.14062-0.97656 0.45703-1.1953 0.85547-0.98438 1.4102-0.86328 0.99219-1.2422 3.9453-1.1016 3.3867-2.1172 4.4453-1.0156 5.7578-0.67578 3.5547-1.3555 3.5586-0.97266 2.0312-0.33984 1.4844-1.1445 1.3125-1.0938 0.73047-0.21875 1.1719 0.63672 1.8633 0.25391 2.2852 0.16797 1.6094-0.46484 3.9375-0.55078 2.5 0.39453 1.0156 0.57812 1.1445 0.36328 1.375 1.207 1.6719 1.1406 1.5234 0.42578 1.3984-0.12891 2.1602-0.33984 1.9883-0.039062 1.8203 1.3516 3.3867 1.9062 3.3477 1.9062 2.2422 3.8086 2.1172 1.6953 1.1445 3.6406 1.0586 3.2188 0.71875 2.1992-0.042969 1.3945-0.58203 0.55469-1.7891v-1.8633l0.29688-1.0586 1.7773-2.3281 2.5-1.7773 2.918-1.3125 1.9062-0.67969 3.4727 0.085938 4.0234 0.21094 3.3867-0.71875 2.707-1.4414 2.0352-1.3125 2.9219-2.625 3.1719-2.4961 1.0586-1.4805 0.59375-1.7383-0.33984-1.1016-0.60156-0.92578 0.6875-1.5703 0.29688-1.2695 0.80469-1.0586 0.21094-1.1875 0.17188-1.1836 0.71875-0.89062 1.0078-1.2695 0.88672-0.69922 1.3242 1.6289 0.67578 0.93359 0.93359 0.67578 1.6914 0.085937 1.0078 0.11719 1.7422 0.64844 2.7812 0.39453 2.3438 0.66016 1.5664 0.67969 1.2266 0.46484 1.1445 0.125 1.0156 0.29688 1.1875 1.2695 0.125 1.6094-0.71875 1.9062-1.4414 1.6914-0.88672 1.6094 0.58984 1.5273 1.3555 0.71875 1.0273 1.8164 0.89062 0.99219 0.40625 1.4062 0.91406 1.2891 1.4414 0.47266 1.3477-0.097657 2.1836-0.44922 1.5391 0.40625 1.6953 1 1.8711 1.5078 1.1367 0.91797 1.6016 1.6953 0.84375 1.6641 0.14844 1.5469 0.53125 1.1523 2.4062 0.73828 1.1914 0.53906 0.85547 0.96875-0.015625 1.1328-0.26172 2.0156-0.027344 1.1289 0.070313 1.8867 0.48047 1.8125 0.96875 1.0586 1.5078 0.97266 1.3516 0.64844 2.6953 0.85547 2.457 0.78125 1.2773 0.875 1.0391 0.92188 1.2891 0.45312 1.1289 1.4062 1.2852 1.207 1.3828 0.99609 0.66406 1.2734-0.75 1.0938-1.332 0.85938-0.66797 0.75781-0.17188 0.99609 0.13281 1.3086 1.0156 1.8594 0.71484 1.1406-0.23047 1.2656-0.91406 1.7852-0.53125 0.91797-0.73047 1.3477 0.73047 0.9375 1.1172 0.89453 1.0312 0.6875 1.1445 0.76172 0.95703 1.1484 2.5977 3.1211 1.5117 1.418 3.1133 2.5625 0.91016 1.2383 0.5625 1.0352 1.1602 1.5273 1.5625 1.9453 0.58594 0.89453 1.1484 1.0703 0.41016 1.0508 0.60938 1.0195-0.90234 0.80469-0.125 1.0156-0.46484 2.5-0.72266 2.4531-0.67578 1.2305v1.4375l0.88672 1.6523 1.2305 2.3281 0.042969 1.1836-0.12891 2.5859 0.21094 1.3945 0.50781 2.0352 0.25391 1.4805 0.085937 1.0156 0.63672 2.582 0.46484 2.8789 0.76172 1.5664 0.29688 0.97656-0.12891 1.2695 0.042969 1.0586-1.2695 1.1836-1.4805 1.6094-2.4141 1.2266-0.97266 0.67969-1.7383 1.3125-1.2695 1.6094-1.0156 1.6094-0.55078 1.7773-0.97266 1.7344-0.38281 0.97266 0.042969 1.5664 0.042968 3.5156-0.12891 1.9062-1.0977 1.5664-0.67969 1.3555-0.59375 1.4805-0.46484 1.6523-1.1836 1.0156-1.1016 1.3125-1.0586 1.0586-0.50781 1.6914 0.29297 1.1797 1.6367 2.293 0.14844 1.0508-2.2695 3.043-0.5625 0.94141-0.4375 1.1758-0.10547 1.5234 0.30469 2.8906 0.23047 6.9883-0.36328 2.918-0.1875 1.5703-1.1445 1.9062 0.042969 1.1016 2.0742 2.3281 0.71875 1.8633-0.50781 2.668 0.38281 2.6641 0.63281 1.6523-0.25391 1.4805-0.32031 1.9414-0.46484 1.2617 1.1406 2.207 1.4492 1.418 1.7422 0.78906 1.0547 0.25781 0.92188 0.58203 0.81641 1.5664-1.3516 0.99219-2.5469-0.15625-3.2578 0.17969-1.2891 0.15234-1.3516 0.6875-1.0977 1.1094-0.28516 4.2578-0.29297 1.9609 0.76562 1.9922 1.4531 1.5938 0.25 1.6445-1.6523 2.9102-0.64453 1.4727-0.84375 1.2188-1.2266 1.3555-2.5078 2.0781-2.1719 3.082-2.2305 1.9922-0.26562 1.1914 0.46875 1.3125 2.293 0.92969 1.3984 0.71875 0.85938 1.1953 0.5625 2.125-0.066407 5.4492 1.1211 2.9336 0.37891 1.8281 0.36719 0.92969 0.40625 2.4219-0.09375 2.3516 0.11719 1.1016 1.8945 2.375 0.88281 1.5859 1.375 3.2461 1.7344 4.0664 1.3125 1.7344 0.50781 1.8633-0.21094 1.6523-0.55078 1.4805-0.42188 1.3984-0.89062 1.1836-1.3125 1.2695-0.63281 1.4414-1.1016 2.2852-1.5234 1.0586-1.5391 0.71875-2.0508 0.80469-1.2422 1.2109-0.98047 1.9805-1.4727 1.6016-2.5859 0.90625-3.6836 1.9805-1.1602 0.41797-1.1562 0.19531-1.8086-0.42578-1.2852-0.082032-0.17188-1.0508-1.3125-1.1445-1.3555-0.33984-1.0586-0.29688-1.0156-0.039062-2.5234-0.20703-2.4336-0.30469-1.7773 0.42578-1.1562 0.98438-0.15625 2.1484-1.1406 0.89062-1.4844-0.59766-1.2461-0.042968-1.8047 0.87109-1.2461 0.48047-1.5586-0.1875-1.9141-1.2461-0.87109-0.875-1.3867-0.81641-2.8555-0.83203-2.1562 1.3906-1.1797 0.375-1.9141 0.32422-1.5391-0.53906-2.0234 0.88281-1.082 1.4609-0.88672 0.64844-3.1602 0.21094-3.1875 1.2695-1.8477-0.16016-1.207 0.90625-0.59375 1.1953-1.707 1.0391-0.81641 0.80469-1.0625-0.03125-1.0391 0.70312-1.0039 0.52734-1.5781 1.0547-1.0273 0.23047-1.0664 0.15625-0.58203 0.89453-0.39453 1.1016-0.85938 0.83984-1.1172 0.34375-1.3711 1.7695-1.1094 0.87109-1.2305-0.097656-1.3242-0.34375-0.13672-1.5 0.011718-2.3242-0.078125-2.0625-0.27734-1.7305 0.38281-2.2305-0.011719-1.8633-1.9258-2.1406-0.42188-0.99219-0.17188-1.4492 0.16406-2.4648 0.61719-2.3125 1.0039-1.9727 0.94922-1.0391 0.36719-2.6914 0.72656-1.3555-0.12109-1.6172-0.91016-0.42188-1.1758-0.14062-1.9062 0.32422-1.7773-1.0195-1.3086-0.5h-3.8594l-1.6641-0.42578-1.7109 0.25391-0.98828 0.48047-2.7891-0.066406-2.9688 0.050781-0.98828-1.1758-2.1055-1.1367-1.2852-1.4766-3.8047-1.5586-3.1562 0.91406-2.4648 0.29688-1.0977 0.57031-0.73438-0.70312-0.875-1.3281-2.5469-1.3203-1.3438-1.1445-0.37109-1.125-3.8945-2.3789-0.9375-1.0977-0.12109-2.4688-0.078125-7.625-0.51172-4.625 2.1445-11.652 0.21875-1.168 0.3125-1.7031v-2.6211l-0.41016-1.7969-0.59766-1.3867-1.4844-0.57031-1.2305 0.47266-1.418 0.75781-2.2422 0.78906-2.2695 0.53125-1.1484-0.0625-1.0078 0.19141-1.0391 0.99219-0.95312 0.80469-1.3984-0.042969-0.94531-0.60938-0.92188-0.46875-0.13672-1.3008-0.12109-1.332-0.375-1.0469 1.9414-1.1484 0.16016-1.3359 0.36328-1.0586 0.12891-1.4375-0.26562-1.3672-0.03125-1.3867-0.31641-1.1055 0.54688-1.0703 0.71875-0.75-0.18359-1.6562-0.36719-1.6484-0.39062-1.1289-1.668-2.0391-0.94141-1.4883-0.85156-0.5625-0.57422-0.91797-0.60547-0.82422-0.6875-0.89062 1.0547-0.99609 1.75 0.050781 1.8164-0.32031 0.80859-0.75 0.35547-1.1562-0.55859-1.8789 0.61328-1.3008 1.0195-0.54297 0.72266-1.1797-0.45312-1.2578-1.0703-0.89453-0.74609-0.99219-1.6992-1.4297-0.34375-1.0352 0.30078-1.5312 0.27734-1.6992 0.40234-1.7695 0.28906-1.0938 0.8125-1.082-0.007813-1.0078-1.1211-0.79297-1.4453-0.1875-0.96094-0.36328-0.54297-1.082 0.57031-1.1523 1.2148-0.875 0.94531-1.2695 0.62109-1.4766 0.18359-1.0117-0.074219-1.4297 0.53516-1.4844 0.75391-0.86719 0.92578-0.57031 1.4297-1.3516 0.61328-1.1133 1.2812-1.5703 0.67969-1.8711 0.18359-2.1875 0.52344-1.0781 0.082031-1.0625-0.33984-1.7578 0.25391-1.0898 0.18359-1.207-0.16016-1.0742 0.35547-1.2891 0.62109-0.80469 1.0859-0.035157 0.035156-1.043-0.15234-1.2578 0.042969-1.0469 0.875-0.6875 0.37891-1.7031 0.16406-1.1289 0.007812-1.0547 0.60547-0.97656 0.29297-1.2656-0.25391-1.582 0.027343-1.1133 0.16797-1.4531 0.25-0.99219 0.10938-1.2578-0.69141-1.2344-0.77344-0.91016 0.53516-1.3477 0.042968-1.1914 0.25781-1.207-0.97656-0.64453-1.4883-0.12891-1.8008-2.4141-0.40234-2.0391-0.89844-1.5977-0.94531-0.69922-0.98438-1.4688-0.81641-2.1328-0.30859-2.4062-1.0703-2.1914-2.1406-2.3125-0.75781-1.0039-0.70312-1.4609-0.89062-1.1914-0.35938-1.9258-0.46094-0.97266-0.6875-0.875-0.69531-0.78906-0.98438-0.67188-1.7344-1.2148-1.4453-0.63672-1.1992-1.1406-2.9492-1.1016-1.1992 0.09375-1.8672-0.81641-0.96094-0.52734-1.6055-0.52734-1.2617 0.16797-1.3594-0.33203-1.1797-0.44141-1.3516-0.64453-1.1641-0.19531-1.6836-0.88281-1.7578-0.66406-2.0234-0.58984-1.3711-0.14453-1.7344-0.29297-0.96875-0.78125-1.9023-1.9727 0.14453-1.4375-0.78516-1.9961-0.82031-2.4297 0.097656-1.4492-1.0586-0.42969-1.6055-0.60938-0.90234-1.4492-0.68359-1.2148-1.3125-0.72266-1.6875-0.25781-2.1914-0.19531-1.3359-0.48438-1.3086-1.1406-0.74609-0.80469-0.60938-1.7383-0.14844-2.1953-1.2031-3.1133-0.082031-1.9883-2.293-2.2227-1.5781-1.3555-2.293-1.6289-1.8242-1.1328-1.1523-0.31641-1.4922-0.41016-1.3516-0.52734-1.957-1.1367-0.47266-1.9023-0.80078-1.6055-0.90625-0.60938-1.5039-0.95703-1.3125-0.15625-1.0312 0.1875-2.0039 0.33984-1.1758 0.62891-0.98047 0.87891-1.4102 0.73828-1.5781-0.40234-1.4336-0.27344-3.1328 1.168-1.5547-0.13281-1.0977-0.35156-1.5273 0.15625-1.0391 0.56641-1.9375 0.66797-1.4297 1.2148-1.1172 1.2344-0.90234 0.64453-1.0391 0.62891-1.5078 0.23438-1.957-0.70703-1.3516-0.25391-1.1562-0.21484h-1.0977l-1.8789 0.37109-1.0781 0.60938-1.1367 0.68359-1.2344 0.039062-2.1953-0.9375-1.1953-1.0586-0.64453-0.92188-0.73828-1.0195 1.0742-1.6289 1.1055-1.3672 1.2461-1.1523 2.9258-3.5977 1.1445-1.7539 0.32812-1.0078 0.25-2.8516 0.56641-1.0781 2.0703-2.3242 0.71484-1.7969 0.18359-2.9922 1.125-2.1875-0.19922-1.6094-0.74219-0.76953-0.91016-0.60938-1.375-0.4375-1.9141-1.0625-3.1484-2.5664-5.3477-4.3711-1.9219-2.0156-0.015625-2.4023 0.73828-1.2188 0.77734-1.1758 1.1758-1.9375 0.14453-1.3672 1.4414-0.75781 1.082 0.0625 1.1562-0.18359 1.0508-1.5234 0.44922-1.0156-0.45312-1.8711-1.332-2.3477-1.4727-0.71094 2.4297-3.5781 1.5977-2.2578 0.65234-1.2539 0.55078-4.832-0.75-2.5742 0.15234-2.0742 1.8398-1.5977 1.0703-0.57031 1.7227-0.60547 2.4062-2.1992 0.19141-2.1133-0.49609-1.5938-1.7461-1.6914-2.6797-2.0586-1.0664-1.293 1.0977-2.7852 0.55078-2.1992-0.39453-1.5039-1.3633-2.7461-0.19922-1.7969-0.36328-2.8516 0.42969-1.0781 2.793-2.0664 1.2109-1.1914 0.75391-1.0312 0.375-0.93359 0.066406-1.1992 0.15625-1.9375 0.17188-1.6758 0.40625-1.9727 0.42969-1.125 0.63672-1.5234 2.4961-0.38672 1.793 0.59766 1.5547-0.35938 3.957-2.9375 1.1875-1.7969 3.3789-1.6602 2.4688-0.12109 1.3789-0.76172 2.918-0.20312 1.4883 0.50391 1.2695-0.76172 2.207-2.6211 0.875-1.5 1.2148-1.2852 0.070313-1.1797 1.3789-0.89062 2.8672-0.36719 1.5078-0.64844 2.4688 0.007812 2.0586-0.48047 1.5469-0.625 3.1562-2.3711 1.0195-1.1797 0.57031-1.0586-0.050781-2.793 0.50781-1.7266 1.0586-1.3125 2.7305-2.3477 1.0625-0.097656 1.0391 0.65625 3.7227-0.92969 2.4297-0.44922 1.5781-0.98438-0.09375-2.1875 2.3398-1.7305 1.5078-0.56641 1.0977-0.09375 0.99219 0.28125 1.5547 1.0938 2.9141 0.15234 1.0391-0.65625 1.25-1.3516 1.2812-0.51172 0.89844-0.60938 1.4922-0.5 1.3477-1.0195 1.9961-0.52344 2.9453-0.29297 3.1094-0.65625 1.5898-0.89453 2.5078-2.0039 0.0625-1.332 0.039062-1.3359 4.75-1.4414 2.6641-0.18359 2.1367 1.9883 2.0352 1.2383 2.3477 0.4375 1.5938 0.67969 2.1484 0.78125 0.88281 0.73438 1.6562-0.49609 1.3438-0.41406 1.4961-0.78906 3.9219-1.2422 1.0117-0.58594 1.1953-1.0078 1.418-0.67969 2.0312-1.1328 1.0273-0.72656 1.0898-0.57812 1.0898-0.097656 1.2383 0.28906" fill="none" stroke="#fff" stroke-linecap="round" stroke-linejoin="round" stroke-miterlimit="10" stroke-width="2"/>
<path d="m179.71 198.73 0.96875 0.78125 1.0547-0.042969 2.0508 0.48047 1.2695 0.51172 2.5117 0.74219 1.2852 0.75391 1.5625 0.32422 1.3516 0.64453 1.1797 0.44141 1.3594 0.33203 1.2617-0.16797 1.6055 0.52734 0.96094 0.52734 1.2461 0.73828 1.1992-0.019531 3.0508 0.74219 0.94531 1.0195 1.4883 0.60156 1.6719 1.2188 1.3945 0.82031 1.0781 1.1562 0.6875 0.875 0.46094 0.97266 0.027344 1.0703 1.2227 2.0469 0.70312 1.4609 0.75781 1.0039 2.1406 2.3125 0.75 1.3398 0.46484 2.3203 0.98047 3.0703 0.65234 1.1484 1.2773 1.0195 0.58594 0.91797 0.47656 2.0156 1.4609 2.5898 1.0977 0.72266 1.6055 0.12891 0.30469 1.0703-0.33984 1.1641-0.042969 1.0859-0.23828 1.1719 0.91016 1.1758 0.50781 1.0469-0.49219 1.875-0.16797 1.4531-0.027343 1.1133 0.29688 1.0977-0.33594 1.0195-0.054687 1.1328-0.62891 0.86328 0.007813 1.4141-0.097656 1.3242-1.0898 1.1562-0.21094 1.4375 0.15234 1.2578-0.035156 1.043-1.0859 0.035157-0.62109 0.80469-0.35547 1.2891 0.16016 1.0742-0.18359 1.207-0.25391 1.0898 0.33984 1.7578-0.082031 1.0625-0.52344 1.0781-0.18359 2.1875-0.61719 1.3398-1.3438 2.1016-0.61328 1.1133-1.4297 1.3516-0.92578 0.57031-0.75391 0.86719-0.49219 0.89062 0.03125 2.0234-0.18359 1.0117-0.62109 1.4766-0.60547 1.0039-1.043 0.57031-0.9375 1.2812-0.015625 1.1641 1.375 0.72266 1.4453 0.1875 1.1211 0.79297 0.007813 1.0078-0.8125 1.082-0.28906 1.0938-0.33203 1.2266-0.058594 1.3594-0.47656 1.9727-0.019531 1.0547 1.5234 1.2812 0.70312 1.1211 1.0742 0.88281 0.66016 0.76562 0.17969 1.4961-1.207 0.875-1.0898 1.2266 0.51953 1.7734-0.29688 1.6328-0.80859 0.75-1.3906 0.34766-1.3359-0.22266-1.1875 0.50391-0.69922 0.85547 1.2852 1.4961 0.57422 0.91797 0.85156 0.5625 0.94141 1.4883 1.2266 1.4336 0.69531 1.1211 0.46875 1.6016 0.26172 1.7734-0.76172 1.293-0.54688 1.0703 0.31641 1.1055 0.03125 1.3867 0.26562 1.3672-0.12891 1.4375-0.36328 1.0586 0.035157 1.1562-1.6914 0.89453-0.070312 1.4805 0.12109 1.332 0.13672 1.3008 0.38281 1.1719 0.19141 1.1289-0.37109 1.0195-0.49219 1.5312-0.32422 1.3008-0.81641 0.9375-0.77344 1.1289-1.3086 0.85156-1.4961 1.6914-1.0781 1.3672-0.69141 0.75391-0.90234 0.5625-1.2969 0.30078-1.2734 0.72266-0.74219 0.82031-1.0508 0.20312-1.3203 0.77734-0.43359 1.9492-0.22656 1.0117-2.0273 2.7383-5.168 6.6523-0.95703 1.6289-0.16797 2.418-0.5625 1.9688 0.22266 2.9219-1.8555 4.1055-1.6094 1.6758-4.1484 2.9766-3.3672 1.4883-1.8008 1.3281-1.2969 0.84375-2.0664 0.015625-2.8047 0.33203-1.3594 0.49219-2.707 1.5781-1.2695 1.3242-1.1211 1.3164-0.42578 1.0547-0.875 1.1953-2.1992 2.1094-1.4414 1.8711-1.9727 1.7656-2.9844 3.9727-1.6953 1.6562-1.6094 0.82031-1.0117 0.84375-0.92969 1.2891-0.27344 1.1016-0.65234 0.82422-0.86328 0.92969-1.1328 0.96094-1.9102 0.45703-3.2344 0.074219-1.1719 0.39062-4.9023 4.5-1.5391-0.66016-2.6289-1.5742-11.152-5.9961-1.0547-0.625-2.0352-0.36719 0.71484-0.89453 1.0703-0.11719 1.2148-0.28906 0.90234-0.67188 1.0586-0.35547 0.62891-0.82422 1.0977-1.1992 0.30469-1.1367 0.53125-0.84375 0.24219-1.043 0.69922-0.86719 0.57812-0.91797 0.44141-0.98828-0.015625-1.3086 0.6875-1.5898 0.89062-0.55859 1.2266-0.71484 1.3906-0.55078 0.97266-0.96094 0.50781-1.0117 0.12891-1.1484-0.30078-1.0352-0.039062-1.1758 1.1797-0.76172 1.4023 0.23438 1.0977-0.18359 1.0352-0.51953 1.8867-0.32422 0.66406-1.0938 0.027344-1.0156 1.5625-0.90625 1.4766-0.32422 1.0117-0.23047 0.91016-0.71484 0.75-1.1211 1.4844-0.83984 1.3281-0.67188 1.0859-0.23047 1.8633-1.2148 1.8359-1.207 0.78125-1.2812 0.85938-0.78516 0.57812-1.1133 0.57812-1.4414 0.91406-0.83203 1.1406-1.4648 0.79688-0.82422 0.60547-0.83984 0.90234-1.0977 0.97656-0.375 1.5469-0.8125 0.76562-0.98828 1.1055-0.83203 1.1445-0.83984 1.0391-0.48828 0.60938-0.99219 1.5977-0.88281 0.85938-0.64844 0.5625-0.83203 0.92578-1.0547 1.3086-0.78906 0.67969-0.91797 0.27344-2.3438 0.36328-1.1484 0.99609-1.0977 0.98438-1.5312 0.48438-1.0625 0.67969-1.0586 0.28125-1.7773-0.33203-1.5039-0.34766-1.1992-0.14453-1.3594 0.27344-1.3281 0.19531-1.2305-0.97266-1.5391-0.58594-4.3438-0.50781-0.86719-0.13672-1.1211 0.58594-1.0039-0.26953-1.3242 0.039062-1.1797 0.40234-1.1133 1.1211-1.0195 1.0117-0.097656 0.70312-0.86719 0.24609-1.2734 0.63281-1.2383 0.34766-1.6992 0.042969-1.457 0.40625-1.5195 0.60156-1.3594 1.125-1.3359 0.8125-0.88281 1.168-0.35547 0.83203-0.70703 0.33203-1.0859 0.13281-1.3008 0.66406-1.0039 0.91406-0.76953 0.32031-1.0156-0.52734-1.3516-0.75-1.8281-0.69531-0.78906-0.97656-0.62109-0.41016-2.0156 0.45312-1-0.10156-1.082-0.52734-0.90625-0.22266-0.98047 0.53125-1.543-0.1875-1.5664 0.09375-1.4102-0.14453-1.293-2.8906-2.1758-1.5391-1.6953-2.1406-4.0898-0.78125-1.1758-2.5703-2.5898-0.38281-1.1992-0.83203-1.543-1.5938-1.9062-0.39062-1.2773-0.69922-2.4688-0.83594-2.7422-0.03125-2.918-0.71484-2.4453-0.59375-2.5625-0.91406-3.7539 0.074219-1.0625 0.47266-1.1016 1.4141-0.91406 0.92188-1.2734 0.75-3.2383 1.043-2.0938 0.85938-1.9336 1.5547-1.8594 0.54688-1.2266 0.91797-2.25-0.10547-1.3867-0.88281-2.4492 0.78906-2.9297 1.875-3.1328 0.42969-1.082-0.17188-1.0781-0.51172-1.5195-0.5625-3.4336-0.007813-1.3359 0.57422-1.3516 1.6953-1.832 1.3125-0.87109 0.75391-0.78906 0.55859-0.98828 0.66406-2.2891 0.25391-1.2539 0.66797-1.3906-0.44922-1.0977-0.90234-0.80469-0.72656-1.0586-0.39062-0.91797-0.96094-1.3906 0.058593-1.3516 0.35547-1.5508-0.26562-1.6797-1.0078-1.5898-0.76562-1.2539-0.63672-1.2461z" fill="#ccc" fill-rule="evenodd"/>
<path d="m179.71 198.73 0.96875 0.78125 1.0547-0.042969 2.0508 0.48047 1.2695 0.51172 2.5117 0.74219 1.2852 0.75391 1.5625 0.32422 1.3516 0.64453 1.1797 0.44141 1.3594 0.33203 1.2617-0.16797 1.6055 0.52734 0.96094 0.52734 1.2461 0.73828 1.1992-0.019531 3.0508 0.74219 0.94531 1.0195 1.4883 0.60156 1.6719 1.2188 1.3945 0.82031 1.0781 1.1562 0.6875 0.875 0.46094 0.97266 0.027344 1.0703 1.2227 2.0469 0.70312 1.4609 0.75781 1.0039 2.1406 2.3125 0.75 1.3398 0.46484 2.3203 0.98047 3.0703 0.65234 1.1484 1.2773 1.0195 0.58594 0.91797 0.47656 2.0156 1.4609 2.5898 1.0977 0.72266 1.6055 0.12891 0.30469 1.0703-0.33984 1.1641-0.042969 1.0859-0.23828 1.1719 0.91016 1.1758 0.50781 1.0469-0.49219 1.875-0.16797 1.4531-0.027343 1.1133 0.29688 1.0977-0.33594 1.0195-0.054687 1.1328-0.62891 0.86328 0.007813 1.4141-0.097656 1.3242-1.0898 1.1562-0.21094 1.4375 0.15234 1.2578-0.035156 1.043-1.0859 0.035157-0.62109 0.80469-0.35547 1.2891 0.16016 1.0742-0.18359 1.207-0.25391 1.0898 0.33984 1.7578-0.082031 1.0625-0.52344 1.0781-0.18359 2.1875-0.61719 1.3398-1.3438 2.1016-0.61328 1.1133-1.4297 1.3516-0.92578 0.57031-0.75391 0.86719-0.49219 0.89062 0.03125 2.0234-0.18359 1.0117-0.62109 1.4766-0.60547 1.0039-1.043 0.57031-0.9375 1.2812-0.015625 1.1641 1.375 0.72266 1.4453 0.1875 1.1211 0.79297 0.007813 1.0078-0.8125 1.082-0.28906 1.0938-0.33203 1.2266-0.058594 1.3594-0.47656 1.9727-0.019531 1.0547 1.5234 1.2812 0.70312 1.1211 1.0742 0.88281 0.66016 0.76562 0.17969 1.4961-1.207 0.875-1.0898 1.2266 0.51953 1.7734-0.29688 1.6328-0.80859 0.75-1.3906 0.34766-1.3359-0.22266-1.1875 0.50391-0.69922 0.85547 1.2852 1.4961 0.57422 0.91797 0.85156 0.5625 0.94141 1.4883 1.2266 1.4336 0.69531 1.1211 0.46875 1.6016 0.26172 1.7734-0.76172 1.293-0.54688 1.0703 0.31641 1.1055 0.03125 1.3867 0.26562 1.3672-0.12891 1.4375-0.36328 1.0586 0.035157 1.1562-1.6914 0.89453-0.070312 1.4805 0.12109 1.332 0.13672 1.3008 0.38281 1.1719 0.19141 1.1289-0.37109 1.0195-0.49219 1.5312-0.32422 1.3008-0.81641 0.9375-0.77344 1.1289-1.3086 0.85156-1.4961 1.6914-1.0781 1.3672-0.69141 0.75391-0.90234 0.5625-1.2969 0.30078-1.2734 0.72266-0.74219 0.82031-1.0508 0.20312-1.3203 0.77734-0.43359 1.9492-0.22656 1.0117-2.0273 2.7383-5.168 6.6523-0.95703 1.6289-0.16797 2.418-0.5625 1.9688 0.22266 2.9219-1.8555 4.1055-1.6094 1.6758-4.1484 2.9766-3.3672 1.4883-1.8008 1.3281-1.2969 0.84375-2.0664 0.015625-2.8047 0.33203-1.3594 0.49219-2.707 1.5781-1.2695 1.3242-1.1211 1.3164-0.42578 1.0547-0.875 1.1953-2.1992 2.1094-1.4414 1.8711-1.9727 1.7656-2.9844 3.9727-1.6953 1.6562-1.6094 0.82031-1.0117 0.84375-0.92969 1.2891-0.27344 1.1016-0.65234 0.82422-0.86328 0.92969-1.1328 0.96094-1.9102 0.45703-3.2344 0.074219-1.1719 0.39062-4.9023 4.5-1.5391-0.66016-2.6289-1.5742-11.152-5.9961-1.0547-0.625-2.0352-0.36719 0.71484-0.89453 1.0703-0.11719 1.2148-0.28906 0.90234-0.67188 1.0586-0.35547 0.62891-0.82422 1.0977-1.1992 0.30469-1.1367 0.53125-0.84375 0.24219-1.043 0.69922-0.86719 0.57812-0.91797 0.44141-0.98828-0.015625-1.3086 0.6875-1.5898 0.89062-0.55859 1.2266-0.71484 1.3906-0.55078 0.97266-0.96094 0.50781-1.0117 0.12891-1.1484-0.30078-1.0352-0.039062-1.1758 1.1797-0.76172 1.4023 0.23438 1.0977-0.18359 1.0352-0.51953 1.8867-0.32422 0.66406-1.0938 0.027344-1.0156 1.5625-0.90625 1.4766-0.32422 1.0117-0.23047 0.91016-0.71484 0.75-1.1211 1.4844-0.83984 1.3281-0.67188 1.0859-0.23047 1.8633-1.2148 1.8359-1.207 0.78125-1.2812 0.85938-0.78516 0.57812-1.1133 0.57812-1.4414 0.91406-0.83203 1.1406-1.4648 0.79688-0.82422 0.60547-0.83984 0.90234-1.0977 0.97656-0.375 1.5469-0.8125 0.76562-0.98828 1.1055-0.83203 1.1445-0.83984 1.0391-0.48828 0.60938-0.99219 1.5977-0.88281 0.85938-0.64844 0.5625-0.83203 0.92578-1.0547 1.3086-0.78906 0.67969-0.91797 0.27344-2.3438 0.36328-1.1484 0.99609-1.0977 0.98438-1.5312 0.48438-1.0625 0.67969-1.0586 0.28125-1.7773-0.33203-1.5039-0.34766-1.1992-0.14453-1.3594 0.27344-1.3281 0.19531-1.2305-0.97266-1.5391-0.58594-4.3438-0.50781-0.86719-0.13672-1.1211 0.58594-1.0039-0.26953-1.3242 0.039062-1.1797 0.40234-1.1133 1.1211-1.0195 1.0117-0.097656 0.70312-0.86719 0.24609-1.2734 0.63281-1.2383 0.34766-1.6992 0.042969-1.457 0.40625-1.5195 0.60156-1.3594 1.125-1.3359 0.8125-0.88281 1.168-0.35547 0.83203-0.70703 0.33203-1.0859 0.13281-1.3008 0.66406-1.0039 0.91406-0.76953 0.32031-1.0156-0.52734-1.3516-0.75-1.8281-0.69531-0.78906-0.97656-0.62109-0.41016-2.0156 0.45312-1-0.10156-1.082-0.52734-0.90625-0.22266-0.98047 0.53125-1.543-0.1875-1.5664 0.09375-1.4102-0.14453-1.293-2.8906-2.1758-1.5391-1.6953-2.1406-4.0898-0.78125-1.1758-2.5703-2.5898-0.38281-1.1992-0.83203-1.543-1.5938-1.9062-0.39062-1.2773-0.69922-2.4688-0.83594-2.7422-0.03125-2.918-0.71484-2.4453-0.59375-2.5625-0.91406-3.7539 0.074219-1.0625 0.47266-1.1016 1.4141-0.91406 0.92188-1.2734 0.75-3.2383 1.043-2.0938 0.85938-1.9336 1.5547-1.8594 0.54688-1.2266 0.91797-2.25-0.10547-1.3867-0.88281-2.4492 0.78906-2.9297 1.875-3.1328 0.42969-1.082-0.17188-1.0781-0.51172-1.5195-0.5625-3.4336-0.007813-1.3359 0.57422-1.3516 1.6953-1.832 1.3125-0.87109 0.75391-0.78906 0.55859-0.98828 0.66406-2.2891 0.25391-1.2539 0.66797-1.3906-0.44922-1.0977-0.90234-0.80469-0.72656-1.0586-0.39062-0.91797-0.96094-1.3906 0.058593-1.3516 0.35547-1.5508-0.26562-1.6797-1.0078-1.5898-0.76562-1.2539-0.63672-1.2461 2.2969 1.4219" fill="none" stroke="#fff" stroke-linecap="round" stroke-linejoin="round" stroke-miterlimit="10" stroke-width="2"/>
<path d="m217.46 408.37 0.24609 0.12891 1.0625 0.77344 0.79297 0.67188 2.4883 1.1289 0.97656 0.375 0.92578 0.73828 0.90234 1.1211 1.5469 0.58594 0.97656 0.39844 1.3008 0.57812 1.0469 0.57812 0.44922 1.125 0.33594 1.1719 1.0078 2.5469 1.7305 2.2461 0.86328 2.5273 1.375 0.94141 0.98047 2.1992 0.83594 1.5859-0.15234 1.3008-1.543 2.0273-1.332 1.7266-0.75781 0.91016-0.066406 1.4102 0.33984 1.4375 0.027344 1.0039-1.0586 2.5625-0.03125 1.3945 0.19922 1.1836v1.1289l0.92969 1.0703 1.1914 0.14453 0.10547 1.1211-0.96484 0.76172-2.2305 1.2266-0.80859 0.66797-0.95312 0.77734-0.78516 1.1602 0.55078 1.3594 1.2773 0.66016 1.168 1.0352 1.2617 0.67188 1.0547 1.4805-1.0156 2.0352-0.09375 1.2344-1.418 0.87109-1.2227 0.42578-2.918-0.55469-2.6953 0.082031-1.2656-0.30859-1.0469 0.27734-1.2109 2.3047-0.34375 2.2188-0.60547 0.80859-0.92188 0.80859-1.4766 0.85938-2.6719 2.5977-1.375 0.49219-1.7617 0.3125-0.96875 0.66797-0.70703 1.2812-1.625 2.1289-1.5742 1.707-1.0938 0.79297-2.0742 0.79297-1.9883 0.65625-1.0508 0.79297-1.082 1.25-0.65234 1.0234v1.3633l-0.042969 1.1289-1.1445 2.8398-1.2539 0.97656-1.9609 1.0195-1.7344 0.99609-1.5312 1.2227-1.9688 1.8633-2.207 1.5859-1.7188 1.4648-2.0781 0.96875 1.1484-1.3516 0.15625-1.0078-0.57812-0.97266-0.79688-0.89062-0.49609-1.1719-0.73828-0.77734-1.5742-1.0938-0.93359-0.71484-1.043-0.19531-1.4023-0.81641-0.73438-0.81641-1.1953-0.71875-1.2656-0.40234-1.3789-0.67969-1.3242-1.1641-1.5156-0.45703-0.875-0.65625-1.3906-1.0039-1.1484-1.2305-1.2188-0.79297-1.7305-0.51562-1.1758-0.46875-1.6172-0.74609-0.94141-1.1914-0.87109-0.67969-1.1602-0.5625-0.95703-0.32422-1.0391-0.70312-1.0625-0.53906-1.3359-1.1875-1.5-0.16016-1.1523-0.23438-1.5703-0.51562-1.4219-1.1289-0.87891-1.1719-0.98047-0.62891-1.5078-0.48047-0.53516-1.1836-0.51562-0.9375 0.023438-1.3945-0.046875-2.2188-1.2227-2.0078-0.72656-1.8594-0.12891-2.5234-0.84766-2.4648-0.12109-1.2031 1.1367-1.457 0.64453-1.0273 1.6328-1.332 3.0117-1.2617 1.5703-2.4961 2.1289-1.8125 1.1875-0.8125 2.0547-0.16406 1.7227-0.49219 3.7891-0.24609 1.7461-0.74219 1.9531-1.6914 1.4102-0.70703 2.1523-1.5664 1.0234-0.5625 1.1445-1.1445 1.8359-0.54688 1.1992-0.84766 0.89844-1.043 0.96875-1.3047 0.82812-0.79688 0.82422-0.95703 1.3203-1.5938 0.62109-1.1719 0.49219-1.0742 0.94141-0.50781 1.4922-1.1875 0.79688-0.69531 0.75391-1.0547 0.66797-1.582 0.75391-1.6367 0.5625-1.3594 0.54688-1.1914 0.88672-1.5469 0.89844-0.87109 1.0508-0.86328 0.75-0.69922 0.44922-1.043 1.0039-1.1797 2.1641-0.57422 1.3047-0.48047 1.8711-0.51953 1.3164-0.13281 3.4688-1.0039 2.1523-1.0977 2.7227-0.011719 2.1133 0.97266 1.7383 0.42578 1.6562 0.38281 1.375 0.23047 1.4922-0.40234 0.62109-1.1328 1.5039-0.46875 1.8633-0.67188z" fill="#ccc" fill-rule="evenodd"/>
<path d="m217.46 408.37 0.24609 0.12891 1.0625 0.77344 0.79297 0.67188 2.4883 1.1289 0.97656 0.375 0.92578 0.73828 0.90234 1.1211 1.5469 0.58594 0.97656 0.39844 1.3008 0.57812 1.0469 0.57812 0.44922 1.125 0.33594 1.1719 1.0078 2.5469 1.7305 2.2461 0.86328 2.5273 1.375 0.94141 0.98047 2.1992 0.83594 1.5859-0.15234 1.3008-1.543 2.0273-1.332 1.7266-0.75781 0.91016-0.066406 1.4102 0.33984 1.4375 0.027344 1.0039-1.0586 2.5625-0.03125 1.3945 0.19922 1.1836v1.1289l0.92969 1.0703 1.1914 0.14453 0.10547 1.1211-0.96484 0.76172-2.2305 1.2266-0.80859 0.66797-0.95312 0.77734-0.78516 1.1602 0.55078 1.3594 1.2773 0.66016 1.168 1.0352 1.2617 0.67188 1.0547 1.4805-1.0156 2.0352-0.09375 1.2344-1.418 0.87109-1.2227 0.42578-2.918-0.55469-2.6953 0.082031-1.2656-0.30859-1.0469 0.27734-1.2109 2.3047-0.34375 2.2188-0.60547 0.80859-0.92188 0.80859-1.4766 0.85938-2.6719 2.5977-1.375 0.49219-1.7617 0.3125-0.96875 0.66797-0.70703 1.2812-1.625 2.1289-1.5742 1.707-1.0938 0.79297-2.0742 0.79297-1.9883 0.65625-1.0508 0.79297-1.082 1.25-0.65234 1.0234v1.3633l-0.042969 1.1289-1.1445 2.8398-1.2539 0.97656-1.9609 1.0195-1.7344 0.99609-1.5312 1.2227-1.9688 1.8633-2.207 1.5859-1.7188 1.4648-2.0781 0.96875 1.1484-1.3516 0.15625-1.0078-0.57812-0.97266-0.79688-0.89062-0.49609-1.1719-0.73828-0.77734-1.5742-1.0938-0.93359-0.71484-1.043-0.19531-1.4023-0.81641-0.73438-0.81641-1.1953-0.71875-1.2656-0.40234-1.3789-0.67969-1.3242-1.1641-1.5156-0.45703-0.875-0.65625-1.3906-1.0039-1.1484-1.2305-1.2188-0.79297-1.7305-0.51562-1.1758-0.46875-1.6172-0.74609-0.94141-1.1914-0.87109-0.67969-1.1602-0.5625-0.95703-0.32422-1.0391-0.70312-1.0625-0.53906-1.3359-1.1875-1.5-0.16016-1.1523-0.23438-1.5703-0.51562-1.4219-1.1289-0.87891-1.1719-0.98047-0.62891-1.5078-0.48047-0.53516-1.1836-0.51562-0.9375 0.023438-1.3945-0.046875-2.2188-1.2227-2.0078-0.72656-1.8594-0.12891-2.5234-0.84766-2.4648-0.12109-1.2031 1.1367-1.457 0.64453-1.0273 1.6328-1.332 3.0117-1.2617 1.5703-2.4961 2.1289-1.8125 1.1875-0.8125 2.0547-0.16406 1.7227-0.49219 3.7891-0.24609 1.7461-0.74219 1.9531-1.6914 1.4102-0.70703 2.1523-1.5664 1.0234-0.5625 1.1445-1.1445 1.8359-0.54688 1.1992-0.84766 0.89844-1.043 0.96875-1.3047 0.82812-0.79688 0.82422-0.95703 1.3203-1.5938 0.62109-1.1719 0.49219-1.0742 0.94141-0.50781 1.4922-1.1875 0.79688-0.69531 0.75391-1.0547 0.66797-1.582 0.75391-1.6367 0.5625-1.3594 0.54688-1.1914 0.88672-1.5469 0.89844-0.87109 1.0508-0.86328 0.75-0.69922 0.44922-1.043 1.0039-1.1797 2.1641-0.57422 1.3047-0.48047 1.8711-0.51953 1.3164-0.13281 3.4688-1.0039 2.1523-1.0977 2.7227-0.011719 2.1133 0.97266 1.7383 0.42578 1.6562 0.38281 1.375 0.23047 1.4922-0.40234 0.62109-1.1328 1.5039-0.46875 1.8633-0.67188 0.34766 0.066407" fill="none" stroke="#fff" stroke-linecap="round" stroke-linejoin="round" stroke-miterlimit="10" stroke-width="2"/>
<path d="m229.45 332.94 0.50391 0.47656 0.59766 1.3867 0.41016 1.7969v2.6211l-0.3125 1.7031-0.21875 1.168-2.1445 11.652 0.51172 4.625-0.09375 6.9219 0.054688 2.5703 1.1758 1.6992 3.5195 1.8203 0.74609 1.6836 1.3438 1.1445 2.5469 1.3203 0.875 1.3281 0.73438 0.70312-1.5234 1.6992-2.9258 2.0781-2.5547 2.7148-1.0977 2.2148 0.035157 3.457-0.94531 2.5039-0.37109 1.5547-0.69922 1.0703-1.4609 0.57031-0.9375 1.3789-0.47266 1.457-1.7305 0.92578-3.9922 0.22266-1.0781 0.27344-2.3945 1.7773-3.5938 1.6875-1.5352 1.3477-0.81641 1.3242 0.097656 1.0195 0.20312 0.98047 0.49609 1.2891 0.94141 0.88281-0.88672 0.94141-2.1992-0.1875-1.6562-0.38281-1.7383-0.42578-2.1133-0.97266-1.9375-0.17578-2.9375 1.2852-2.5547 0.71484-1.4219 0.33594-1.75 0.34766-2.2344 0.73828-1.6562 0.36719-1.5117 1.3867-0.44922 1.043-0.75 0.69922-1.0508 0.86328-0.89844 0.87109-0.60547 0.98438-0.44922 0.89844-0.94141 2.2148-0.75391 1.6367-0.66797 1.582-0.75391 1.0547-0.79688 0.69531-1.4922 1.1875-0.94141 0.50781-0.49219 1.0742-0.62109 1.1719-1.3203 1.5938-0.82422 0.95703-0.82812 0.79688-0.96875 1.3047-0.89844 1.043-1.1133 0.09375-7.5352-4.2305-26.445-14.438 4.2734-5.0156 1.1719-0.39062 3.2344-0.074219 1.9102-0.45703 1.1328-0.96094 0.86328-0.92969 0.65234-0.82422 0.27344-1.1016 0.92969-1.2891 1.0117-0.84375 1.6094-0.82031 1.6953-1.6562 2.9844-3.9727 1.9727-1.7656 1.4414-1.8711 2.1992-2.1094 0.875-1.1953 0.42578-1.0547 1.1211-1.3164 1.2695-1.3242 2.707-1.5781 1.3594-0.49219 2.8047-0.33203 2.0664-0.015625 1.2969-0.84375 1.8008-1.3281 3.3672-1.4883 4.1484-2.9766 1.6094-1.6758 1.6328-3.1484v-3.8789l0.44922-1.293 0.11328-2.3047 1.125-2.418 5.168-6.6523 2.0273-2.7383 0.22656-1.0117 0.007813-1.6367 0.93359-0.76172 0.95312-0.36328 1.1758-0.38281 1.2383-1.1719 1.0898-0.21875 1.6211-0.80078 0.69141-0.75391 1.0781-1.3672 0.70312-1.125 1.6836-1.0039 0.83203-0.97266 0.65625-0.94141 0.75781-1.6094 0.52344-1.5586 0.42578-1.25-0.19141-1.1289 1.1172-0.28516 1.2031 0.33594 1.5156-0.90625 0.87109-0.89453 1.1758-0.28906 1.0078 0.046875 2.4102-0.51562 2.2422-0.78906 1.418-0.75781 1.2305-0.47266z" fill="#ccc" fill-rule="evenodd"/>
<path d="m229.45 332.94 0.50391 0.47656 0.59766 1.3867 0.41016 1.7969v2.6211l-0.3125 1.7031-0.21875 1.168-2.1445 11.652 0.51172 4.625-0.09375 6.9219 0.054688 2.5703 1.1758 1.6992 3.5195 1.8203 0.74609 1.6836 1.3438 1.1445 2.5469 1.3203 0.875 1.3281 0.73438 0.70312-1.5234 1.6992-2.9258 2.0781-2.5547 2.7148-1.0977 2.2148 0.035157 3.457-0.94531 2.5039-0.37109 1.5547-0.69922 1.0703-1.4609 0.57031-0.9375 1.3789-0.47266 1.457-1.7305 0.92578-3.9922 0.22266-1.0781 0.27344-2.3945 1.7773-3.5938 1.6875-1.5352 1.3477-0.81641 1.3242 0.097656 1.0195 0.20312 0.98047 0.49609 1.2891 0.94141 0.88281-0.88672 0.94141-2.1992-0.1875-1.6562-0.38281-1.7383-0.42578-2.1133-0.97266-1.9375-0.17578-2.9375 1.2852-2.5547 0.71484-1.4219 0.33594-1.75 0.34766-2.2344 0.73828-1.6562 0.36719-1.5117 1.3867-0.44922 1.043-0.75 0.69922-1.0508 0.86328-0.89844 0.87109-0.60547 0.98438-0.44922 0.89844-0.94141 2.2148-0.75391 1.6367-0.66797 1.582-0.75391 1.0547-0.79688 0.69531-1.4922 1.1875-0.94141 0.50781-0.49219 1.0742-0.62109 1.1719-1.3203 1.5938-0.82422 0.95703-0.82812 0.79688-0.96875 1.3047-0.89844 1.043-1.1133 0.09375-7.5352-4.2305-26.445-14.438 4.2734-5.0156 1.1719-0.39062 3.2344-0.074219 1.9102-0.45703 1.1328-0.96094 0.86328-0.92969 0.65234-0.82422 0.27344-1.1016 0.92969-1.2891 1.0117-0.84375 1.6094-0.82031 1.6953-1.6562 2.9844-3.9727 1.9727-1.7656 1.4414-1.8711 2.1992-2.1094 0.875-1.1953 0.42578-1.0547 1.1211-1.3164 1.2695-1.3242 2.707-1.5781 1.3594-0.49219 2.8047-0.33203 2.0664-0.015625 1.2969-0.84375 1.8008-1.3281 3.3672-1.4883 4.1484-2.9766 1.6094-1.6758 1.6328-3.1484v-3.8789l0.44922-1.293 0.11328-2.3047 1.125-2.418 5.168-6.6523 2.0273-2.7383 0.22656-1.0117 0.007813-1.6367 0.93359-0.76172 0.95312-0.36328 1.1758-0.38281 1.2383-1.1719 1.0898-0.21875 1.6211-0.80078 0.69141-0.75391 1.0781-1.3672 0.70312-1.125 1.6836-1.0039 0.83203-0.97266 0.65625-0.94141 0.75781-1.6094 0.52344-1.5586 0.42578-1.25-0.19141-1.1289 1.1172-0.28516 1.2031 0.33594 1.5156-0.90625 0.87109-0.89453 1.1758-0.28906 1.0078 0.046875 2.4102-0.51562 2.2422-0.78906 1.418-0.75781 1.2305-0.47266 0.98047 0.09375" fill="none" stroke="#fff" stroke-linecap="round" stroke-linejoin="round" stroke-miterlimit="10" stroke-width="2"/>
<path d="m250.22 377.34 1.2852 1.4766 1.7148 0.67188 0.64062 1.1484 3.707 0.44141 2.043 0.23828 1.7344-0.65234 1.7109-0.25391 1.6641 0.42578h3.8594l1.1523 0.44141 1.9336 1.0781 1.1484-0.39453 1.1289 0.37891 1.5469-0.11719 0.082031 1.2969-0.51953 2.0469 0.046875 1.9844-1.3633 1.7461-1.0039 1.9727-0.61719 2.3125-0.16406 2.4648 0.17188 1.4492 0.42188 0.99219 1.6875 1.6562 0.25 2.3477-0.38281 2.2305 0.27734 1.7305 0.078125 2.0625-0.011718 2.3242-0.070313 1.2695 1.5312 0.57422 0.51953 1.9492-0.26562 1.2344-0.53516 2.1484-1.2422 0.90625-0.87891 0.81641-0.54297 0.91016-0.36328 1.1172-0.54688 1.5547-0.92969 1.25-1.793-0.24609-1.418-0.52344-1.3789-0.066406-1.4961 0.29297-2.0391 0.90625-3.5859 0.21484-1.4648 0.10156-1.332 1.0273-1.6953 1.7578-1.0273 0.81641-1.4805 1.5-1.2148 1.4062-1.7227 0.90625-0.94141 0.39453-0.9375 1.5742 0.27344 1.9961-0.81641 1.0898-1.4844 0.36328-1.3906 0.75781-0.42578 1.6055-0.089844 2.6641-0.48047 2.207-0.25 1.207-1.375 0.65234-1.3086 0.43359-1.1523 0.20703-1.1133 0.058594-1.7383-0.50391-1.1914-0.28125-1.1914-0.14453-0.92969-1.0703v-1.1289l-0.19922-1.1836 0.03125-1.3945 0.83594-1.5938 0.19531-1.9727-0.33984-1.4375 0.066406-1.4102 0.75781-0.91016 1.332-1.7266 1.1797-1.1172 0.51562-2.2109-0.83594-1.5859-0.71094-1.3203-0.875-1.2695-1.6328-3.0781-1.7305-2.2461-1.0078-2.5469-0.33594-1.1719-0.32031-0.95312-1.1758-0.75-1.3008-0.57812-0.97656-0.39844-1.5469-0.58594-0.90234-1.1211-0.92578-0.73828-0.97656-0.375-1.7422-0.80859-0.94141-0.55859-1.1055-0.69922-0.80078-0.63672-1.4844 0.015625-1.4219 0.70703-1.0586 0.69531-1.0938-0.67578-0.49609-1.2891-0.20312-0.98047-0.097656-1.0195 0.81641-1.3242 1.5352-1.3477 3.5938-1.6875 2.3945-1.7773 1.0781-0.27344 3.9922-0.22266 1.0977-0.41406 1.1055-1.9688 0.59766-1.0469 1.8008-0.90234 0.69922-1.0703 0.37109-1.5547 0.94531-2.5039-0.035157-3.457 1.0977-2.2148 2.5547-2.7148 2.332-1.4102 2.1172-2.3672 1.0977-0.57031 2.4648-0.29688 2.3945-0.84766z" fill="#ccc" fill-rule="evenodd"/>
<path d="m250.22 377.34 1.2852 1.4766 1.7148 0.67188 0.64062 1.1484 3.707 0.44141 2.043 0.23828 1.7344-0.65234 1.7109-0.25391 1.6641 0.42578h3.8594l1.1523 0.44141 1.9336 1.0781 1.1484-0.39453 1.1289 0.37891 1.5469-0.11719 0.082031 1.2969-0.51953 2.0469 0.046875 1.9844-1.3633 1.7461-1.0039 1.9727-0.61719 2.3125-0.16406 2.4648 0.17188 1.4492 0.42188 0.99219 1.6875 1.6562 0.25 2.3477-0.38281 2.2305 0.27734 1.7305 0.078125 2.0625-0.011718 2.3242-0.070313 1.2695 1.5312 0.57422 0.51953 1.9492-0.26562 1.2344-0.53516 2.1484-1.2422 0.90625-0.87891 0.81641-0.54297 0.91016-0.36328 1.1172-0.54688 1.5547-0.92969 1.25-1.793-0.24609-1.418-0.52344-1.3789-0.066406-1.4961 0.29297-2.0391 0.90625-3.5859 0.21484-1.4648 0.10156-1.332 1.0273-1.6953 1.7578-1.0273 0.81641-1.4805 1.5-1.2148 1.4062-1.7227 0.90625-0.94141 0.39453-0.9375 1.5742 0.27344 1.9961-0.81641 1.0898-1.4844 0.36328-1.3906 0.75781-0.42578 1.6055-0.089844 2.6641-0.48047 2.207-0.25 1.207-1.375 0.65234-1.3086 0.43359-1.1523 0.20703-1.1133 0.058594-1.7383-0.50391-1.1914-0.28125-1.1914-0.14453-0.92969-1.0703v-1.1289l-0.19922-1.1836 0.03125-1.3945 0.83594-1.5938 0.19531-1.9727-0.33984-1.4375 0.066406-1.4102 0.75781-0.91016 1.332-1.7266 1.1797-1.1172 0.51562-2.2109-0.83594-1.5859-0.71094-1.3203-0.875-1.2695-1.6328-3.0781-1.7305-2.2461-1.0078-2.5469-0.33594-1.1719-0.32031-0.95312-1.1758-0.75-1.3008-0.57812-0.97656-0.39844-1.5469-0.58594-0.90234-1.1211-0.92578-0.73828-0.97656-0.375-1.7422-0.80859-0.94141-0.55859-1.1055-0.69922-0.80078-0.63672-1.4844 0.015625-1.4219 0.70703-1.0586 0.69531-1.0938-0.67578-0.49609-1.2891-0.20312-0.98047-0.097656-1.0195 0.81641-1.3242 1.5352-1.3477 3.5938-1.6875 2.3945-1.7773 1.0781-0.27344 3.9922-0.22266 1.0977-0.41406 1.1055-1.9688 0.59766-1.0469 1.8008-0.90234 0.69922-1.0703 0.37109-1.5547 0.94531-2.5039-0.035157-3.457 1.0977-2.2148 2.5547-2.7148 2.332-1.4102 2.1172-2.3672 1.0977-0.57031 2.4648-0.29688 2.3945-0.84766 4.5664 1.4922" fill="none" stroke="#fff" stroke-linecap="round" stroke-linejoin="round" stroke-miterlimit="10" stroke-width="2"/>
<path d="m143.95 159.3 1.0977 0.68359 1.3125 0.88281 0.80078 1.6055 0.0625 1.1367 2.3672 1.9023 1.3516 0.52734 1.4922 0.41016 1.1523 0.31641 1.8242 1.1328 2.293 1.6289 1.5781 1.3555 2.1289 1.7852 0.24609 2.4258 1.2031 3.1133 0.14844 2.1953 0.60938 1.7383 0.74609 0.80469 1.3086 1.1406 1.3359 0.48438 2.1914 0.19531 1.0273 0.15625 1.7383 0.69531 0.91797 1.3438 0.90234 1.4492 1.6055 0.60938 1.0586 0.42969-0.097656 1.4492 0.82031 2.4297 0.49219 1.0586 0.14844 2.375-0.24609 1.1484 1.2539 1.9023 1.0078 1.5898 0.26562 1.6797-0.35547 1.5508-0.058593 1.3516 0.96094 1.3906 0.39062 0.91797 0.72656 1.0586 0.90234 0.80469 0.44922 1.0977-0.66797 1.3906-0.25391 1.2539-0.66406 2.2891-0.55859 0.98828-0.75391 0.78906-1.3125 0.87109-1.125 1.0781-1.1445 2.1055 0.007813 1.3359 0.5625 3.4336 0.51172 1.5195 0.17188 1.0781-0.42969 1.082-1.875 3.1328-0.83203 2.3984 0.92578 2.9805 0.10547 1.3867-0.75781 1.4727-0.70703 2.0039-1.5547 1.8594-0.60938 0.96875-1.293 3.0586-0.75 3.2383-0.92188 1.2734-1.4141 0.91406-0.47266 1.1016-0.074219 1.0625 0.91406 3.7539 0.59375 2.5625 0.71484 2.4453 0.03125 2.918 0.83594 2.7422 0.28516 1.7734 0.80469 1.9727 1.5938 1.9062 0.83203 1.543 0.38281 1.1992 2.5703 2.5898 0.78125 1.1758 2.1406 4.0898 1.5391 1.6953 2.3047 1.7227 0.76953 1.168-0.13281 1.9883 0.1875 1.5664-0.50781 1.2539 0.1875 1.2344 0.53906 0.94141 0.10156 1.082-0.45312 1 0.38281 1.2148 0.86719 1.3359 0.83203 0.875 0.61328 0.98047 0.58594 1.9102-0.22266 1.293-0.93359 0.78125-0.66406 1.0039-0.13281 1.3008-0.33203 1.0859-0.83203 0.70703-1.168 0.35547-0.8125 0.88281-1.125 1.3359-0.60156 1.3594-0.35547 1.0195-0.09375 1.957-0.34766 1.6992-0.63281 1.2383-0.24609 1.2734-0.70312 0.86719-1.0117 0.097656-0.85156 0.56641-0.49219 0.95312-0.21875 1.793 0.26953 1.0117-0.58594 1.3164 0.13672 1.1211 0.50781 0.86719 0.27344 3.4766 1.0391 1.5625 0.050781 2.0742-0.27344 1.3281 0.14453 1.3594 0.34766 1.1992 0.33203 1.5039-0.26562 1.707-0.69531 1.1289-0.48438 1.0625-0.98438 1.5312-0.86719 0.90234-0.49219 1.3438-0.11328 1.5352-0.26172 1.0781-1.5156 1.1172-1.2969 1.375-0.5625 0.83203-0.85938 0.64844-1.5391 0.78906-0.66797 1.0859-1.0391 0.48828-1.1445 0.83984-0.90234 0.60938-0.55078 0.85938-1.2344 0.85938-1.293 0.42578-1.3164 1.3516-0.60547 0.83984-0.79688 0.82422-0.63672 0.875-1.418 1.4219-0.57812 1.4414-0.57812 1.1133-0.85938 0.78516-0.78125 1.2812-1.8359 1.207-1.1328 0.62109-1.0273 0.6875-1.2812 0.32422-1.4961 0.96094-1.082 0.63672-0.71484 1.0625-1.0156 0.62109-1.3633 0.46484-1.8242 0.17969-0.59766 1.1211-0.085938 1.1484-1.4609 0.79688-1.3086 0.14844-1.1289 0.61719-1.6055-0.18359-1.2188 0.20312-0.47266 1.1367 0.39062 1.582-0.12891 1.1484-0.50781 1.0117-0.77344 0.8125-1.5898 0.69922-1.0195 0.63672-0.94531 0.35547-0.41406 1.0391-0.58203 1.707 0.17969 0.98828-0.67188 1-0.8125 0.73047-0.48438 1.5312-0.53125 0.84375-0.30469 1.1367-0.83984 0.95312-0.88672 1.0703-1.0586 0.35547-0.90234 0.67188-1.2148 0.28906-1.0703 0.11719-0.71484 0.89453-0.875 0.52344-1.3242-0.027344-0.80469-1.918-3.5859-3.4961-0.96484-1.9883-1.0352-1.4648-0.92578-0.89062-1.168-0.58594-0.67578-1.0898 0.18359-1.8555-0.85547-1.7422-0.33594-2.0977 0.17969-1.3242 1.0156-2.6758-0.17578-1.9648-0.95703-1.9648-2.3125-2.1602-2.2891-2.1406-1.3125-0.96484-3.5547-3.4336-2.9453-2.5078-2.8164-2.7344-4.8594-4.0352-2.707-2.6406-2.3125-1.7891-7.2461-6.6367-2.0781-2.168-8.0273-7.2852-43.008-38.512 2.4609 0.35547 2.2617-0.12109 3.7031 1.1602 2.5039 1.1016 1.6914 0.074218 0.625-0.86328 0.67578-0.98828 0.71875-1.5156 0.41016-0.92969 0.39062-1.0156 0.28125-1.6797 0.53125-1.6133 2.0547-1.0195 2.2656-2.0312 1.0898-0.97656 0.73438-0.75391 1.5508-1.7227 0.89453-1.2227 0.86328-0.79688 1.1484-0.88281 1.9844-0.625 1.7695-1.0625 1.7109-1.5234 1.1133-1.5508 2.4844-4.1133 1.2148-1.6172 0.59766-2.3711 0.62891-1.4531 0.40234-1.0664 0.67969-3.7578 0.77734-2.4648 2.0195-2.1641 2.6484-2.8906 0.85156-1.4492 1.2891-1.5586 1.3633-3.3359 0.56641-1.0195 0.68359-2.2695 0.96094-2.2148 2.1758-2.0977 1.0312-1.4727 2.1211-3.0312 0.47266-1.7812 0.3125-1.8047-0.058593-1.7422-0.60938-1.168 1.1367-1.418 0.49219-1.1953 0.56641-2.2344v-1.7227l0.44922-1.4883 1.2344-1.2734 1.4883-0.72656 2.0977-0.46875 1.293-0.48828 1.2734-0.86328 2.0391-0.23438 2.3672 0.41016 1.4727 0.37109 1.4492 0.53125 1.1758 0.70312 1.5859-0.44922 0.58594-0.96094 0.45312-1.0586 1.2734-1.0156 1.25-0.47266 1.1953-0.058593 1.332-0.019532 1.0781 0.42969 1.7656 0.40234 1.3125 0.070312 1.7422-0.92188 1.3125-0.80078 0.27344-1.375-0.23438-1.5859 0.058594-1.0977 0.23047-1.8594 1.2188-1.8164 0.41016-1.2969-0.13672-1.6484-0.078125-1.5859 0.58984-1.9375 0.56641-1.9219 0.35156-1.0977 1.2305-1.5156 2.0273-1.9023 0.38672-1.2695-1.6836-1.2266-1.8477-2.1953-0.46094-2.2109-0.58984-1.1328-0.30859-1.5-1.2383-2.0117-0.39453-1.2539v-2l-0.019531-1.3125-0.41016-1.0156-0.71875-1.625-1.0078-0.98828-1.3555-0.4375-0.44531-1.1641 0.29297-1.6836 0.039062-1.6641-1.2539-0.88281-1.9375-0.64453-1.3906-0.64844-1.6836-1.6641-0.47266-1.2344-0.48828-1.6836 0.11719-1.0195-0.078125-1.1758 0.097657-1.4297 1.0586-0.82422 0.29297-1.7617-0.019531-1.2734 1.0195 0.19531 0.64453 0.92188 1.1953 1.0586 1.2734 0.60547 2.1562 0.29297 1.1367-0.68359 1.0781-0.60938 1.8789-0.37109h1.0977l1.1562 0.21484 1.3516 0.25391 1.0977 0.29688 1.6055 0.50781 1.8008-0.96094 0.90234-0.64453 1.1172-1.2344 1.4297-1.2148 1.1562-0.39062 1.8203-0.84375 1.5273-0.15625 1.0977 0.35156 1.5547 0.13281 2.2227-0.94922 2.3438 0.054687 0.95312 0.38672 1.4297-0.13281 1.5859-1.4688 1.1758-0.62891 1.332-0.21484 1.7031-0.3125z" fill="#0a5394" fill-rule="evenodd"/>
<path d="m143.95 159.3 1.0977 0.68359 1.3125 0.88281 0.80078 1.6055 0.0625 1.1367 2.3672 1.9023 1.3516 0.52734 1.4922 0.41016 1.1523 0.31641 1.8242 1.1328 2.293 1.6289 1.5781 1.3555 2.1289 1.7852 0.24609 2.4258 1.2031 3.1133 0.14844 2.1953 0.60938 1.7383 0.74609 0.80469 1.3086 1.1406 1.3359 0.48438 2.1914 0.19531 1.0273 0.15625 1.7383 0.69531 0.91797 1.3438 0.90234 1.4492 1.6055 0.60938 1.0586 0.42969-0.097656 1.4492 0.82031 2.4297 0.49219 1.0586 0.14844 2.375-0.24609 1.1484 1.2539 1.9023 1.0078 1.5898 0.26562 1.6797-0.35547 1.5508-0.058593 1.3516 0.96094 1.3906 0.39062 0.91797 0.72656 1.0586 0.90234 0.80469 0.44922 1.0977-0.66797 1.3906-0.25391 1.2539-0.66406 2.2891-0.55859 0.98828-0.75391 0.78906-1.3125 0.87109-1.125 1.0781-1.1445 2.1055 0.007813 1.3359 0.5625 3.4336 0.51172 1.5195 0.17188 1.0781-0.42969 1.082-1.875 3.1328-0.83203 2.3984 0.92578 2.9805 0.10547 1.3867-0.75781 1.4727-0.70703 2.0039-1.5547 1.8594-0.60938 0.96875-1.293 3.0586-0.75 3.2383-0.92188 1.2734-1.4141 0.91406-0.47266 1.1016-0.074219 1.0625 0.91406 3.7539 0.59375 2.5625 0.71484 2.4453 0.03125 2.918 0.83594 2.7422 0.28516 1.7734 0.80469 1.9727 1.5938 1.9062 0.83203 1.543 0.38281 1.1992 2.5703 2.5898 0.78125 1.1758 2.1406 4.0898 1.5391 1.6953 2.3047 1.7227 0.76953 1.168-0.13281 1.9883 0.1875 1.5664-0.50781 1.2539 0.1875 1.2344 0.53906 0.94141 0.10156 1.082-0.45312 1 0.38281 1.2148 0.86719 1.3359 0.83203 0.875 0.61328 0.98047 0.58594 1.9102-0.22266 1.293-0.93359 0.78125-0.66406 1.0039-0.13281 1.3008-0.33203 1.0859-0.83203 0.70703-1.168 0.35547-0.8125 0.88281-1.125 1.3359-0.60156 1.3594-0.35547 1.0195-0.09375 1.957-0.34766 1.6992-0.63281 1.2383-0.24609 1.2734-0.70312 0.86719-1.0117 0.097656-0.85156 0.56641-0.49219 0.95312-0.21875 1.793 0.26953 1.0117-0.58594 1.3164 0.13672 1.1211 0.50781 0.86719 0.27344 3.4766 1.0391 1.5625 0.050781 2.0742-0.27344 1.3281 0.14453 1.3594 0.34766 1.1992 0.33203 1.5039-0.26562 1.707-0.69531 1.1289-0.48438 1.0625-0.98438 1.5312-0.86719 0.90234-0.49219 1.3438-0.11328 1.5352-0.26172 1.0781-1.5156 1.1172-1.2969 1.375-0.5625 0.83203-0.85938 0.64844-1.5391 0.78906-0.66797 1.0859-1.0391 0.48828-1.1445 0.83984-0.90234 0.60938-0.55078 0.85938-1.2344 0.85938-1.293 0.42578-1.3164 1.3516-0.60547 0.83984-0.79688 0.82422-0.63672 0.875-1.418 1.4219-0.57812 1.4414-0.57812 1.1133-0.85938 0.78516-0.78125 1.2812-1.8359 1.207-1.1328 0.62109-1.0273 0.6875-1.2812 0.32422-1.4961 0.96094-1.082 0.63672-0.71484 1.0625-1.0156 0.62109-1.3633 0.46484-1.8242 0.17969-0.59766 1.1211-0.085938 1.1484-1.4609 0.79688-1.3086 0.14844-1.1289 0.61719-1.6055-0.18359-1.2188 0.20312-0.47266 1.1367 0.39062 1.582-0.12891 1.1484-0.50781 1.0117-0.77344 0.8125-1.5898 0.69922-1.0195 0.63672-0.94531 0.35547-0.41406 1.0391-0.58203 1.707 0.17969 0.98828-0.67188 1-0.8125 0.73047-0.48438 1.5312-0.53125 0.84375-0.30469 1.1367-0.83984 0.95312-0.88672 1.0703-1.0586 0.35547-0.90234 0.67188-1.2148 0.28906-1.0703 0.11719-0.71484 0.89453-0.875 0.52344-1.3242-0.027344-0.80469-1.918-3.5859-3.4961-0.96484-1.9883-1.0352-1.4648-0.92578-0.89062-1.168-0.58594-0.67578-1.0898 0.18359-1.8555-0.85547-1.7422-0.33594-2.0977 0.17969-1.3242 1.0156-2.6758-0.17578-1.9648-0.95703-1.9648-2.3125-2.1602-2.2891-2.1406-1.3125-0.96484-3.5547-3.4336-2.9453-2.5078-2.8164-2.7344-4.8594-4.0352-2.707-2.6406-2.3125-1.7891-7.2461-6.6367-2.0781-2.168-8.0273-7.2852-43.008-38.512 2.4609 0.35547 2.2617-0.12109 3.7031 1.1602 2.5039 1.1016 1.6914 0.074218 0.625-0.86328 0.67578-0.98828 0.71875-1.5156 0.41016-0.92969 0.39062-1.0156 0.28125-1.6797 0.53125-1.6133 2.0547-1.0195 2.2656-2.0312 1.0898-0.97656 0.73438-0.75391 1.5508-1.7227 0.89453-1.2227 0.86328-0.79688 1.1484-0.88281 1.9844-0.625 1.7695-1.0625 1.7109-1.5234 1.1133-1.5508 2.4844-4.1133 1.2148-1.6172 0.59766-2.3711 0.62891-1.4531 0.40234-1.0664 0.67969-3.7578 0.77734-2.4648 2.0195-2.1641 2.6484-2.8906 0.85156-1.4492 1.2891-1.5586 1.3633-3.3359 0.56641-1.0195 0.68359-2.2695 0.96094-2.2148 2.1758-2.0977 1.0312-1.4727 2.1211-3.0312 0.47266-1.7812 0.3125-1.8047-0.058593-1.7422-0.60938-1.168 1.1367-1.418 0.49219-1.1953 0.56641-2.2344v-1.7227l0.44922-1.4883 1.2344-1.2734 1.4883-0.72656 2.0977-0.46875 1.293-0.48828 1.2734-0.86328 2.0391-0.23438 2.3672 0.41016 1.4727 0.37109 1.4492 0.53125 1.1758 0.70312 1.5859-0.44922 0.58594-0.96094 0.45312-1.0586 1.2734-1.0156 1.25-0.47266 1.1953-0.058593 1.332-0.019532 1.0781 0.42969 1.7656 0.40234 1.3125 0.070312 1.7422-0.92188 1.3125-0.80078 0.27344-1.375-0.23438-1.5859 0.058594-1.0977 0.23047-1.8594 1.2188-1.8164 0.41016-1.2969-0.13672-1.6484-0.078125-1.5859 0.58984-1.9375 0.56641-1.9219 0.35156-1.0977 1.2305-1.5156 2.0273-1.9023 0.38672-1.2695-1.6836-1.2266-1.8477-2.1953-0.46094-2.2109-0.58984-1.1328-0.30859-1.5-1.2383-2.0117-0.39453-1.2539v-2l-0.019531-1.3125-0.41016-1.0156-0.71875-1.625-1.0078-0.98828-1.3555-0.4375-0.44531-1.1641 0.29297-1.6836 0.039062-1.6641-1.2539-0.88281-1.9375-0.64453-1.3906-0.64844-1.6836-1.6641-0.47266-1.2344-0.48828-1.6836 0.11719-1.0195-0.078125-1.1758 0.097657-1.4297 1.0586-0.82422 0.29297-1.7617-0.019531-1.2734 1.0195 0.19531 0.64453 0.92188 1.1953 1.0586 1.2734 0.60547 2.1562 0.29297 1.1367-0.68359 1.0781-0.60938 1.8789-0.37109h1.0977l1.1562 0.21484 1.3516 0.25391 1.0977 0.29688 1.6055 0.50781 1.8008-0.96094 0.90234-0.64453 1.1172-1.2344 1.4297-1.2148 1.1562-0.39062 1.8203-0.84375 1.5273-0.15625 1.0977 0.35156 1.5547 0.13281 2.2227-0.94922 2.3438 0.054687 0.95312 0.38672 1.4297-0.13281 1.5859-1.4688 1.1758-0.62891 1.332-0.21484 1.7031-0.3125 1.3125 0.15625" fill="none" stroke="#fff" stroke-linecap="round" stroke-linejoin="round" stroke-miterlimit="10"/>
<path d="m160.22 341.29c0 3.5898-2.9102 6.5-6.5 6.5-3.5898 0-6.5-2.9102-6.5-6.5 0-3.5898 2.9102-6.5 6.5-6.5 3.5898 0 6.5 2.9102 6.5 6.5" fill="#28c028" fill-rule="evenodd" stroke="#000" stroke-linecap="round" stroke-linejoin="round" stroke-miterlimit="10"/>
<path d="m176.24 364.32h-3.6094l-1.4375-3.7344h-6.5781l-1.3594 3.7344h-3.5312l6.4062-16.469h3.5156zm-6.1094-6.5156-2.2812-6.1094-2.2188 6.1094zm7.9688 6.5156v-16.328h3.3281v13.547h8.2656v2.7812zm17.656 0v-13.672h-4.875v-2.7969h13.078v2.7969h-4.875v13.672zm9.6719-8.125c0-1.6758 0.25-3.0859 0.75-4.2344 0.375-0.83203 0.88281-1.582 1.5312-2.25 0.64453-0.66406 1.3516-1.1602 2.125-1.4844 1.0312-0.4375 2.2188-0.65625 3.5625-0.65625 2.4141 0 4.3516 0.75781 5.8125 2.2656 1.457 1.5 2.1875 3.5938 2.1875 6.2812 0 2.6562-0.72656 4.7344-2.1719 6.2344-1.4375 1.5-3.3711 2.25-5.7969 2.25-2.4492 0-4.3984-0.74219-5.8438-2.2344-1.4375-1.5-2.1562-3.5547-2.1562-6.1719zm3.4219-0.125c0 1.8672 0.42969 3.2812 1.2969 4.25 0.86328 0.96094 1.957 1.4375 3.2812 1.4375 1.3203 0 2.4062-0.47266 3.25-1.4219 0.85156-0.95703 1.2812-2.3906 1.2812-4.2969 0-1.8945-0.41797-3.3047-1.25-4.2344-0.82422-0.92578-1.918-1.3906-3.2812-1.3906-1.375 0-2.4844 0.47656-3.3281 1.4219-0.83594 0.9375-1.25 2.3516-1.25 4.2344zm32.062 2.2031 3.2344 1.0156c-0.5 1.793-1.3281 3.125-2.4844 4-1.1484 0.875-2.6016 1.3125-4.3594 1.3125-2.1875 0-3.9844-0.74219-5.3906-2.2344-1.4062-1.5-2.1094-3.5469-2.1094-6.1406 0-2.7383 0.70312-4.8633 2.1094-6.375 1.4141-1.5195 3.2812-2.2812 5.5938-2.2812 2.0078 0 3.6445 0.60156 4.9062 1.7969 0.75 0.69922 1.3125 1.7109 1.6875 3.0312l-3.2969 0.78125c-0.19922-0.85156-0.60547-1.5234-1.2188-2.0156-0.61719-0.5-1.3672-0.75-2.25-0.75-1.2188 0-2.2109 0.4375-2.9688 1.3125-0.76172 0.875-1.1406 2.2969-1.1406 4.2656 0 2.0742 0.375 3.5547 1.125 4.4375 0.75 0.88672 1.7227 1.3281 2.9219 1.3281 0.88281 0 1.6445-0.28125 2.2812-0.84375 0.63281-0.5625 1.0859-1.4414 1.3594-2.6406zm20.922 6.0469h-3.6094l-1.4375-3.7344h-6.5781l-1.3594 3.7344h-3.5312l6.4062-16.469h3.5156zm-6.1094-6.5156-2.2812-6.1094-2.2188 6.1094zm7.8281 6.5156v-16.469h4.9844l2.9844 11.234 2.9531-11.234h4.9844v16.469h-3.0938v-12.953l-3.2656 12.953h-3.2031l-3.25-12.953v12.953zm19.109 0v-16.469h3.3125v16.469zm6.5781 0v-16.328h3.3281v13.547h8.2656v2.7812zm28.797 0h-3.6094l-1.4375-3.7344h-6.5781l-1.3594 3.7344h-3.5312l6.4062-16.469h3.5156zm-6.1094-6.5156-2.2812-6.1094-2.2188 6.1094zm18.406 0.46875 3.2344 1.0156c-0.5 1.793-1.3281 3.125-2.4844 4-1.1484 0.875-2.6016 1.3125-4.3594 1.3125-2.1875 0-3.9844-0.74219-5.3906-2.2344-1.4062-1.5-2.1094-3.5469-2.1094-6.1406 0-2.7383 0.70312-4.8633 2.1094-6.375 1.4141-1.5195 3.2812-2.2812 5.5938-2.2812 2.0078 0 3.6445 0.60156 4.9062 1.7969 0.75 0.69922 1.3125 1.7109 1.6875 3.0312l-3.2969 0.78125c-0.19922-0.85156-0.60547-1.5234-1.2188-2.0156-0.61719-0.5-1.3672-0.75-2.25-0.75-1.2188 0-2.2109 0.4375-2.9688 1.3125-0.76172 0.875-1.1406 2.2969-1.1406 4.2656 0 2.0742 0.375 3.5547 1.125 4.4375 0.75 0.88672 1.7227 1.3281 2.9219 1.3281 0.88281 0 1.6445-0.28125 2.2812-0.84375 0.63281-0.5625 1.0859-1.4414 1.3594-2.6406zm20.922 6.0469h-3.6094l-1.4375-3.7344h-6.5781l-1.3594 3.7344h-3.5312l6.4062-16.469h3.5156zm-6.1094-6.5156-2.2812-6.1094-2.2188 6.1094zm0 0" fill="none" stroke="#fff" stroke-linecap="round" stroke-linejoin="round" stroke-miterlimit="10" stroke-width="2"/>
<path d="m176.24 364.32h-3.6094l-1.4375-3.7344h-6.5781l-1.3594 3.7344h-3.5312l6.4062-16.469h3.5156zm-6.1094-6.5156-2.2812-6.1094-2.2188 6.1094zm7.9688 6.5156v-16.328h3.3281v13.547h8.2656v2.7812zm17.656 0v-13.672h-4.875v-2.7969h13.078v2.7969h-4.875v13.672zm9.6719-8.125c0-1.6758 0.25-3.0859 0.75-4.2344 0.375-0.83203 0.88281-1.582 1.5312-2.25 0.64453-0.66406 1.3516-1.1602 2.125-1.4844 1.0312-0.4375 2.2188-0.65625 3.5625-0.65625 2.4141 0 4.3516 0.75781 5.8125 2.2656 1.457 1.5 2.1875 3.5938 2.1875 6.2812 0 2.6562-0.72656 4.7344-2.1719 6.2344-1.4375 1.5-3.3711 2.25-5.7969 2.25-2.4492 0-4.3984-0.74219-5.8438-2.2344-1.4375-1.5-2.1562-3.5547-2.1562-6.1719zm3.4219-0.125c0 1.8672 0.42969 3.2812 1.2969 4.25 0.86328 0.96094 1.957 1.4375 3.2812 1.4375 1.3203 0 2.4062-0.47266 3.25-1.4219 0.85156-0.95703 1.2812-2.3906 1.2812-4.2969 0-1.8945-0.41797-3.3047-1.25-4.2344-0.82422-0.92578-1.918-1.3906-3.2812-1.3906-1.375 0-2.4844 0.47656-3.3281 1.4219-0.83594 0.9375-1.25 2.3516-1.25 4.2344zm32.062 2.2031 3.2344 1.0156c-0.5 1.793-1.3281 3.125-2.4844 4-1.1484 0.875-2.6016 1.3125-4.3594 1.3125-2.1875 0-3.9844-0.74219-5.3906-2.2344-1.4062-1.5-2.1094-3.5469-2.1094-6.1406 0-2.7383 0.70312-4.8633 2.1094-6.375 1.4141-1.5195 3.2812-2.2812 5.5938-2.2812 2.0078 0 3.6445 0.60156 4.9062 1.7969 0.75 0.69922 1.3125 1.7109 1.6875 3.0312l-3.2969 0.78125c-0.19922-0.85156-0.60547-1.5234-1.2188-2.0156-0.61719-0.5-1.3672-0.75-2.25-0.75-1.2188 0-2.2109 0.4375-2.9688 1.3125-0.76172 0.875-1.1406 2.2969-1.1406 4.2656 0 2.0742 0.375 3.5547 1.125 4.4375 0.75 0.88672 1.7227 1.3281 2.9219 1.3281 0.88281 0 1.6445-0.28125 2.2812-0.84375 0.63281-0.5625 1.0859-1.4414 1.3594-2.6406zm20.922 6.0469h-3.6094l-1.4375-3.7344h-6.5781l-1.3594 3.7344h-3.5312l6.4062-16.469h3.5156zm-6.1094-6.5156-2.2812-6.1094-2.2188 6.1094zm7.8281 6.5156v-16.469h4.9844l2.9844 11.234 2.9531-11.234h4.9844v16.469h-3.0938v-12.953l-3.2656 12.953h-3.2031l-3.25-12.953v12.953zm19.109 0v-16.469h3.3125v16.469zm6.5781 0v-16.328h3.3281v13.547h8.2656v2.7812zm28.797 0h-3.6094l-1.4375-3.7344h-6.5781l-1.3594 3.7344h-3.5312l6.4062-16.469h3.5156zm-6.1094-6.5156-2.2812-6.1094-2.2188 6.1094zm18.406 0.46875 3.2344 1.0156c-0.5 1.793-1.3281 3.125-2.4844 4-1.1484 0.875-2.6016 1.3125-4.3594 1.3125-2.1875 0-3.9844-0.74219-5.3906-2.2344-1.4062-1.5-2.1094-3.5469-2.1094-6.1406 0-2.7383 0.70312-4.8633 2.1094-6.375 1.4141-1.5195 3.2812-2.2812 5.5938-2.2812 2.0078 0 3.6445 0.60156 4.9062 1.7969 0.75 0.69922 1.3125 1.7109 1.6875 3.0312l-3.2969 0.78125c-0.19922-0.85156-0.60547-1.5234-1.2188-2.0156-0.61719-0.5-1.3672-0.75-2.25-0.75-1.2188 0-2.2109 0.4375-2.9688 1.3125-0.76172 0.875-1.1406 2.2969-1.1406 4.2656 0 2.0742 0.375 3.5547 1.125 4.4375 0.75 0.88672 1.7227 1.3281 2.9219 1.3281 0.88281 0 1.6445-0.28125 2.2812-0.84375 0.63281-0.5625 1.0859-1.4414 1.3594-2.6406zm20.922 6.0469h-3.6094l-1.4375-3.7344h-6.5781l-1.3594 3.7344h-3.5312l6.4062-16.469h3.5156zm-6.1094-6.5156-2.2812-6.1094-2.2188 6.1094z" fill-rule="evenodd"/>
</g>
</svg>
