<?xml version="1.0" encoding="UTF-8"?>
<svg width="500pt" height="490pt" version="1.1" viewBox="0 0 500 490" xmlns="http://www.w3.org/2000/svg">
<g id="a">
<rect width="500" height="490" fill="none"/>
<path d="m275.49 152.61 1.0938 0.98438 2.1133 0.71484 1.7305 0.98047 1.4883-0.34375 1.3242 0.12109 1.3164 0.79688 0.003906 1.1836-0.17188 1.375 0.54688 1.25 1.1445 1.1367-0.082031 1.0859 1.6172 0.18359 1.1562 0.44922 1.1758 0.70703 1.2031 0.38672 0.95703 0.42578 1.7461 0.61719 1.2227 0.43359 1.082 0.71094 0.91797 0.96094 1.3867 0.88281 1.3828 0.79688 0.88672 0.48438 1.6016 0.39453 1.6289-0.53125 1.6133-0.17578 1.1562-0.4375 0.80078-0.63672 2.1289-0.89453h1.9023l1.25-0.55078 1.0352-0.83203 1.5586-0.69141 1.4648-0.33594 2.4062-1.0234 1.1719 0.60547-1.4961 1.8555-0.98828 2.1406-0.23828 1.9297 0.29297 1.3164 1.4883 1.1875-0.26562 1.1055-0.23828 2.0039-0.25391 1.625-0.28125 1.2812-1.0586 1.3945 0.10547 2.207 0.65625 1.4062 0.26953 1.1992-0.16016 1.3047 0.078125 1.0078 0.050781 1.0234-0.47266 1.5938-1.125 0.97656-0.67578 0.78516-0.65625 0.79688-0.9375 0.37891-0.65234 0.88281-0.92188 1.9414-0.37109 1.0078 0.19531 1.2305 0.74219 1.3945 0.13672 1.582-0.42188 0.98438 0.054688 1.0938-0.125 1.4141-0.85547 0.99219-1.25 1.4258-1.1992 1.3633-0.79297 1.0039-0.76562 1.0703-0.3125 0.94922 0.0625 1.0938-0.13672 1.7617-0.53125 1.4844-0.625 1.2617-0.6875 0.92969 0.74609 1.332 0.46094 1.043 0.09375 1.293-0.38281 1.8203-0.054687 1.332 1.1484 0.64844 0.9375 0.375 0.43359 1.1758 0.67969 1.0117 1.0117 1.0117 0.85156 0.58203 1.0977 0.96875 0.33203 1.2812 1.2578 1.0742 0.63672 0.85547 0.82422 1.4688 0.71484 0.72656 1.0039 0.44141 1.3438 0.30859 1.7188 0.34766 1.043 0.64062h1.4766l1.332 0.023437 2.3789-0.57422 1.0117-0.5 1.1172-0.17578 1.3008-0.74219 1.2383-0.42969 1.8125-0.98828 1.3633-0.125 2.8477-2.0117 0.82812-0.95703 0.95312-0.49219 2.3398-0.85938 0.82031-0.84766 2.4492-1.4453 1.3477-1.2422 2.8047-2.3086 0.99609-0.41406 1.125 0.03125 1.1914-0.39844 1.6914-1.8555 0.85938-0.51953 0.67188-1.1406 1.3438-1.0977 2.4609-1.1719 1.8477-0.45312 1.2383-1.6836 1.4375-0.57031 1.2539-0.027344 1.5469 0.75 1.8633 0.41406 1.4805-0.027344 2.6992-0.66016 3.457-1.293 1.8477-0.42188 1.5703 0.28125 1.3477 0.74609 2.0508 1.4727 0.92969 1.4297 2.1992 1.8594 1.1836 0.66016 1.4727 0.46484 1.7773 0.25391 2.2734-0.18359 1.4609-0.30078 0.082031 1.7148-0.31641 1.2383-0.54688 1.0117-1.4375 1.625-1.0547 1.4219-36.23 39.688-22.395 22.723-5.7969 5.2539-2.7031 2.0039-2.6523 1.8359-0.92578 0.81641-2.0273 1.5312-2.2188 1.9414-4.8086 4.0938-4.7539 4.2422-1.0703 1.3203-0.42578 1.0117-1.2461 2.1719-0.77344 1.207-1.2852 1.125-2.1719 1.3203-2.293 1.2812-2.4102 1.3984-2.0234 0.83984-2.6992 1.1289-1.1055 0.67578-0.91406 1-1 0.87891-1.3438 2.5078-0.46875 2.6797 0.46875 2.4492-0.35156 1.0859-1.5938 1.0859-1.0859 1.2461-0.09375 1.9062-0.4375 1.0039-0.625 1.5195-1.1641 1.625-0.64844 0.99609-0.44141 1.2227-0.48047 1.0938-0.57031 1.4961-0.14844 1.0469-0.66406 0.80078-0.47656 1.4688-0.035156 1.5508-0.03125 1.6562-0.26172 1.0742 0.074219 1.3984-0.082032 1.2031-11.742 6.9336-1.1328-0.25-1.6562-0.33984-1.6172-0.33594-1.9883-0.42969-1.4141-0.28906-1.582-0.33984-1.7891-0.39453-1.0469-0.21484-2.5898-0.55078-1.6836-0.375-1.0078-0.19531-1.9219-0.42969-1.9922-0.40234-1.5-0.32422-1.3516-0.28906-1.2695-0.27734-1.1289-0.24219-1.457-0.31641-1.4883-0.30469-1.0508-0.23828-1.0938-0.23047-1.0859-0.23047-1.0039-0.21484-1.1523-0.25391-1.6914-0.35938-1.4766-0.30469-1.3164-0.28516-1.1602-0.25781-1.5078-0.31641-1.457-0.30859-1.1016-0.23438-5.7539-4.9297-2.0352-1.875-2.9609-2.7266-2.8242-2.5938-0.78906-0.84766-0.70312-1.3789-0.007813-1.0508 1.7539-1.6875 0.92578-0.45703 0.84766-1.2344 0.11328-1.25-0.36719-3.0781-0.11719-1.1367-0.15234-1.5-0.69141-1.25-1.168-1.2188-1.6719-0.91016-9.125-5.2578-1.2891-0.42188-1.3281 0.54688-1.4648 1.3672-0.86719 0.6875-0.95312 0.39844-2.6758-0.92188-1.2461-4.4414 0.29688-5.7852 0.17578-4.5195-0.6875-1.875-1.2656-0.26172-1.1133 0.51953-5.1406 5.0664-1.5195 0.30078-1.8086-0.92969-4.0312-4.9336-4.7773-5.5117-12.77-14.617-0.96094-1.1211-1.2266-0.80469-1.0703-0.375-3.4688-0.10938-0.82812-0.57031 0.9375-1.1055 0.84766-1.2578 0.019531-1.3242 0.27344-1.8867 0.11328-2.7266-0.14062-1.2422-0.26562-1.625 0.12891-1.0547 0.12891-1.4688 0.26953-1.2812 0.41016-1.1562 0.75781-1.1992 0.70703-0.89062 0.67969-0.96094 0.85156-0.96875 0.84766-1.2266 0.38281-0.9375 0.29297-1.2617 0.050781-1.0664-0.27344-1.3594 0.003906-1.1367 0.82031-1.6133 0.42969-1.6953 0.22656-1.2148 0.28516-1.0234 0.51953-1.332 0.98047-0.90625 0.8125-1.1641 0.80078-1.3672 0.82031-0.73047 1.3438-1.2031 0.62891-1.1602 0.050781-1.7812 0.10156-1.2266-0.12109-1.4297 0.24609-0.98047 0.76172-1.0742 0.61719-1.1016 0.19531-1.6367-0.25781-1.2461-0.57422-2.0312 0.26172-1.2656 0.84375-1.4688 0.44922-0.98828 0.86328-0.69922 1.1641-0.007813 1.4883-1.0742 1.0352-0.44531 1.2305-1.0664 0.80859-0.95703 1.375-0.86719 0.61719-1.1211 0.66406-0.91016 0.5625-1.1406 0.003906-1.3398 0.63281-0.92578 0.99219-0.88672 1.3398-0.80859 1.2656-0.47266 0.75-0.84375-0.14844-0.99609 0.75781-0.83203 0.86719-0.54297 1.3984-0.28516 1.125-0.25781 0.78906-0.80469 0.75-0.92188 1.293-0.45312 1-0.71875 0.51953-0.88281 1.4414-1.8633 0.70703-0.81641 0.95703-0.55859 0.96875-0.92188 0.53906-2.2461 0.48438-1.0352 1.4336-1.5781 0.88672-1.3477 0.64844-0.76172 0.65625-1.2695 0.57422-0.90625 1.0938-1.2266 0.76562-0.75 1.3359-1.8867 1.2422-1.168 0.94531-0.85156 0.98828-0.51172 0.81641-0.69922 1.0586-0.92969 1.5469-0.98828 1.2344-0.6875 0.71094-0.96484 1.125-1.1836 1.1133-1.0898 0.78125-1.2422 0.5-1.0195 0.39844-1.1328 0.65234-1.043 1.9062-1.2539 1.0625-0.88281 0.82422-0.69922 1.2852-1.0391 0.89453-1 0.57422-1.1875 0.21484-1.0938 0.69922-0.92188 1.4688-0.59375 4.7031 2.668 1.3789 0.33203 1.0352 0.42188 1.1875 0.29688 1.3242 0.20312 0.96484 0.35156 1.2695 0.74219 1.7891 0.09375 1.4648 1.3398 0.89062 0.82422 1.2812-1.2383 0.94141-0.92969 1.4297-2.0938 4.5391-2.2773 2.0898-0.55078 3.7422-1.9727 1.9609-0.46484 1.5625-0.69922 1.1445-0.68359 2.0117-1.5 0.97656-0.53516 1.4688-1.2227 2.7578-1.1133 1.6953-1.1836 3.457-1.8672 2.3242-1.6953 1.3867-0.52344 0.96484-0.65234z" fill="#ccc" fill-rule="evenodd"/>
<path d="m275.49 152.61 1.0938 0.98438 2.1133 0.71484 1.7305 0.98047 1.4883-0.34375 1.3242 0.12109 1.3164 0.79688 0.003906 1.1836-0.17188 1.375 0.54688 1.25 1.1445 1.1367-0.082031 1.0859 1.6172 0.18359 1.1562 0.44922 1.1758 0.70703 1.2031 0.38672 0.95703 0.42578 1.7461 0.61719 1.2227 0.43359 1.082 0.71094 0.91797 0.96094 1.3867 0.88281 1.3828 0.79688 0.88672 0.48438 1.6016 0.39453 1.6289-0.53125 1.6133-0.17578 1.1562-0.4375 0.80078-0.63672 2.1289-0.89453h1.9023l1.25-0.55078 1.0352-0.83203 1.5586-0.69141 1.4648-0.33594 2.4062-1.0234 1.1719 0.60547-1.4961 1.8555-0.98828 2.1406-0.23828 1.9297 0.29297 1.3164 1.4883 1.1875-0.26562 1.1055-0.23828 2.0039-0.25391 1.625-0.28125 1.2812-1.0586 1.3945 0.10547 2.207 0.65625 1.4062 0.26953 1.1992-0.16016 1.3047 0.078125 1.0078 0.050781 1.0234-0.47266 1.5938-1.125 0.97656-0.67578 0.78516-0.65625 0.79688-0.9375 0.37891-0.65234 0.88281-0.92188 1.9414-0.37109 1.0078 0.19531 1.2305 0.74219 1.3945 0.13672 1.582-0.42188 0.98438 0.054688 1.0938-0.125 1.4141-0.85547 0.99219-1.25 1.4258-1.1992 1.3633-0.79297 1.0039-0.76562 1.0703-0.3125 0.94922 0.0625 1.0938-0.13672 1.7617-0.53125 1.4844-0.625 1.2617-0.6875 0.92969 0.74609 1.332 0.46094 1.043 0.09375 1.293-0.38281 1.8203-0.054687 1.332 1.1484 0.64844 0.9375 0.375 0.43359 1.1758 0.67969 1.0117 1.0117 1.0117 0.85156 0.58203 1.0977 0.96875 0.33203 1.2812 1.2578 1.0742 0.63672 0.85547 0.82422 1.4688 0.71484 0.72656 1.0039 0.44141 1.3438 0.30859 1.7188 0.34766 1.043 0.64062h1.4766l1.332 0.023437 2.3789-0.57422 1.0117-0.5 1.1172-0.17578 1.3008-0.74219 1.2383-0.42969 1.8125-0.98828 1.3633-0.125 2.8477-2.0117 0.82812-0.95703 0.95312-0.49219 2.3398-0.85938 0.82031-0.84766 2.4492-1.4453 1.3477-1.2422 2.8047-2.3086 0.99609-0.41406 1.125 0.03125 1.1914-0.39844 1.6914-1.8555 0.85938-0.51953 0.67188-1.1406 1.3438-1.0977 2.4609-1.1719 1.8477-0.45312 1.2383-1.6836 1.4375-0.57031 1.2539-0.027344 1.5469 0.75 1.8633 0.41406 1.4805-0.027344 2.6992-0.66016 3.457-1.293 1.8477-0.42188 1.5703 0.28125 1.3477 0.74609 2.0508 1.4727 0.92969 1.4297 2.1992 1.8594 1.1836 0.66016 1.4727 0.46484 1.7773 0.25391 2.2734-0.18359 1.4609-0.30078 0.082031 1.7148-0.31641 1.2383-0.54688 1.0117-1.4375 1.625-1.0547 1.4219-36.23 39.688-22.395 22.723-5.7969 5.2539-2.7031 2.0039-2.6523 1.8359-0.92578 0.81641-2.0273 1.5312-2.2188 1.9414-4.8086 4.0938-4.7539 4.2422-1.0703 1.3203-0.42578 1.0117-1.2461 2.1719-0.77344 1.207-1.2852 1.125-2.1719 1.3203-2.293 1.2812-2.4102 1.3984-2.0234 0.83984-2.6992 1.1289-1.1055 0.67578-0.91406 1-1 0.87891-1.3438 2.5078-0.46875 2.6797 0.46875 2.4492-0.35156 1.0859-1.5938 1.0859-1.0859 1.2461-0.09375 1.9062-0.4375 1.0039-0.625 1.5195-1.1641 1.625-0.64844 0.99609-0.44141 1.2227-0.48047 1.0938-0.57031 1.4961-0.14844 1.0469-0.66406 0.80078-0.47656 1.4688-0.035156 1.5508-0.03125 1.6562-0.26172 1.0742 0.074219 1.3984-0.082032 1.2031-11.742 6.9336-1.1328-0.25-1.6562-0.33984-1.6172-0.33594-1.9883-0.42969-1.4141-0.28906-1.582-0.33984-1.7891-0.39453-1.0469-0.21484-2.5898-0.55078-1.6836-0.375-1.0078-0.19531-1.9219-0.42969-1.9922-0.40234-1.5-0.32422-1.3516-0.28906-1.2695-0.27734-1.1289-0.24219-1.457-0.31641-1.4883-0.30469-1.0508-0.23828-1.0938-0.23047-1.0859-0.23047-1.0039-0.21484-1.1523-0.25391-1.6914-0.35938-1.4766-0.30469-1.3164-0.28516-1.1602-0.25781-1.5078-0.31641-1.457-0.30859-1.1016-0.23438-5.7539-4.9297-2.0352-1.875-2.9609-2.7266-2.8242-2.5938-0.78906-0.84766-0.70312-1.3789-0.007813-1.0508 1.7539-1.6875 0.92578-0.45703 0.84766-1.2344 0.11328-1.25-0.36719-3.0781-0.11719-1.1367-0.15234-1.5-0.69141-1.25-1.168-1.2188-1.6719-0.91016-9.125-5.2578-1.2891-0.42188-1.3281 0.54688-1.4648 1.3672-0.86719 0.6875-0.95312 0.39844-2.6758-0.92188-1.2461-4.4414 0.29688-5.7852 0.17578-4.5195-0.6875-1.875-1.2656-0.26172-1.1133 0.51953-5.1406 5.0664-1.5195 0.30078-1.8086-0.92969-4.0312-4.9336-4.7773-5.5117-12.77-14.617-0.96094-1.1211-1.2266-0.80469-1.0703-0.375-3.4688-0.10938-0.82812-0.57031 0.9375-1.1055 0.84766-1.2578 0.019531-1.3242 0.27344-1.8867 0.11328-2.7266-0.14062-1.2422-0.26562-1.625 0.12891-1.0547 0.12891-1.4688 0.26953-1.2812 0.41016-1.1562 0.75781-1.1992 0.70703-0.89062 0.67969-0.96094 0.85156-0.96875 0.84766-1.2266 0.38281-0.9375 0.29297-1.2617 0.050781-1.0664-0.27344-1.3594 0.003906-1.1367 0.82031-1.6133 0.42969-1.6953 0.22656-1.2148 0.28516-1.0234 0.51953-1.332 0.98047-0.90625 0.8125-1.1641 0.80078-1.3672 0.82031-0.73047 1.3438-1.2031 0.62891-1.1602 0.050781-1.7812 0.10156-1.2266-0.12109-1.4297 0.24609-0.98047 0.76172-1.0742 0.61719-1.1016 0.19531-1.6367-0.25781-1.2461-0.57422-2.0312 0.26172-1.2656 0.84375-1.4688 0.44922-0.98828 0.86328-0.69922 1.1641-0.007813 1.4883-1.0742 1.0352-0.44531 1.2305-1.0664 0.80859-0.95703 1.375-0.86719 0.61719-1.1211 0.66406-0.91016 0.5625-1.1406 0.003906-1.3398 0.63281-0.92578 0.99219-0.88672 1.3398-0.80859 1.2656-0.47266 0.75-0.84375-0.14844-0.99609 0.75781-0.83203 0.86719-0.54297 1.3984-0.28516 1.125-0.25781 0.78906-0.80469 0.75-0.92188 1.293-0.45312 1-0.71875 0.51953-0.88281 1.4414-1.8633 0.70703-0.81641 0.95703-0.55859 0.96875-0.92188 0.53906-2.2461 0.48438-1.0352 1.4336-1.5781 0.88672-1.3477 0.64844-0.76172 0.65625-1.2695 0.57422-0.90625 1.0938-1.2266 0.76562-0.75 1.3359-1.8867 1.2422-1.168 0.94531-0.85156 0.98828-0.51172 0.81641-0.69922 1.0586-0.92969 1.5469-0.98828 1.2344-0.6875 0.71094-0.96484 1.125-1.1836 1.1133-1.0898 0.78125-1.2422 0.5-1.0195 0.39844-1.1328 0.65234-1.043 1.9062-1.2539 1.0625-0.88281 0.82422-0.69922 1.2852-1.0391 0.89453-1 0.57422-1.1875 0.21484-1.0938 0.69922-0.92188 1.4688-0.59375 4.7031 2.668 1.3789 0.33203 1.0352 0.42188 1.1875 0.29688 1.3242 0.20312 0.96484 0.35156 1.2695 0.74219 1.7891 0.09375 1.4648 1.3398 0.89062 0.82422 1.2812-1.2383 0.94141-0.92969 1.4297-2.0938 4.5391-2.2773 2.0898-0.55078 3.7422-1.9727 1.9609-0.46484 1.5625-0.69922 1.1445-0.68359 2.0117-1.5 0.97656-0.53516 1.4688-1.2227 2.7578-1.1133 1.6953-1.1836 3.457-1.8672 2.3242-1.6953 1.3867-0.52344 0.96484-0.65234 2.9844 0.19141" fill="none" stroke="#fff" stroke-linecap="round" stroke-linejoin="round" stroke-miterlimit="10" stroke-width="2"/>
<path d="m392.41 33.297 6.9375 6.2969 1.7969 1.875 6.2656 5.7383 1.9961 1.543 2.3438 2.2852 4.1992 3.4883 2.4375 2.3633 2.5469 2.168 3.0703 2.9727 1.1328 0.83203 1.9805 1.8516 2 1.8672 0.82812 1.6992 0.14844 1.6992-0.59766 1.8711-0.43359 1.5859 0.28906 1.8125 0.73828 1.5078-0.15625 1.6055 0.58594 0.94141 1.0078 0.50391 0.80078 0.76953 0.89844 1.2656 0.83203 1.7227 3.0977 3.0234 0.34766 1.3398 1.1484 0.48828 1.1016-0.60156 1.2305 0.039063 1.4414 0.82031 9.6406 5.1836 2.2773 1.3594 1.3281 0.57422 23.41 12.926 6.5117 3.6562-1.0664 0.85156-1.5859 1.2617-0.88281 0.48828-1.8594 1.3555-1.2188 0.60938-1.6914 1.4648-1.5078 0.64062-3.2773 0.21094-1.4883 0.42578-1.7773 0.14062-1.0273 0.70312-1.8398 1.5703-1.3594 2.1562-2.6016 1.0938-0.98828 0.75-0.98047 1.2852-0.8125 0.78906-0.066407 1.5117 0.73047 2.1328 0.11328 2.1797 0.62891 1.6094 1.0547 1.7344 0.19531 1.4258-0.17188 1.6992 0.60156 1.4844 0.99219 0.70312 1.0039 0.25 0.79297 0.64453 1.0234 1.2891 1.2969 0.53516 0.94922 0.41016 1.4414-0.10547 1.6016 1.2891 1.0664 0.5625 0.90234 0.60547 1.3633 0.45703 1.2188 0.89844 0.61719 0.95703 1.25 0.48047 1.3633 0.64453 1.4922 0.44141 1.0547 0.6875 0.99609 1.0625 1.1992 0.87109 1.457 0.75 1.207 0.63672 1.4492 1.0625 1.082 0.30078 1.0234 0.44922 0.94922 1.0312 0.99609 0.5625 1.1172 0.3125 0.80469 0.61719 0.83203 0.69531 0.89453 0.56641 0.65625 1.0156 0.57422 0.91016 0.57812 0.81641-0.050781 1.1094-0.99219 1.168-2.1953 0.16406-2.7461-0.19922-2.1289 0.41797-1.5859 0.082031-1.8633-0.10547-2.1133-0.23828-1.1289 0.097657-1.5742-0.37109-1.2773-0.39062-2.2344-0.050781-2.7266 0.22266-3.2188 0.79297-1.832 0.94531-2.4141 0.86328-1.0547 0.88672-0.73828 1.3008-1.5703 1.4961-1.8672 2.1875-1.3281 1.9648-1.6211 0.95703-1.25 0.14844-1.6211-0.097657-1.1172-0.015625-2.2734 0.0625-1.5938 1.0312-1.2305 1.6211-1.6875 0.81641-3.5664-0.46484-0.92578 2.3594-0.76953 1.418-1.082 1.5195-0.34375 1.4766-0.14453 1.5703-0.050781 1.1797-1.0547 1.5938-1.5742 1.4492-1.5703 1.5469-2.0156 1.2031-0.66016 1.543-0.003906 1.6094-0.39062 0.98047-1.0078 0.90234-2.8477 1.3516-2.1367 0.98438-1.1562 0.44141-1.1016 0.17188-1.1797 1.3008-1.375 0.66406-2.1367 0.63672-1.9648 0.92578-1.9023 0.80859-1.7383 0.73828-3.4336 1.2617-3.4883 1.6953-3.0195 1.5938-1.9648 1.0312-2.332 0.93359-0.91016 0.6875-2.8984 0.91016-3.1992 2.2578-1.7617 0.21484-2.2734 0.18359-1.7773-0.25391-1.4727-0.46484-1.1836-0.66016-1.668-1.2383-0.90234-1.5312-2.6094-1.9922-1.3477-0.74609-1.5703-0.28125-1.8477 0.42188-3.457 1.293-1.9375 0.5625-2.2422 0.125-1.8633-0.41406-1.5469-0.75-1.2539 0.027344-1.4375 0.57031-1.2383 1.6836-1.8477 0.45312-2.4609 1.1719-1.3438 1.0977-0.67188 1.1406-0.85938 0.51953-1.6914 1.8555-1.1914 0.39844-1.125-0.03125-0.99609 0.41406-2.2148 1.6562-1.4766 1.1211-2.9102 2.2188-0.82031 0.84766-2.3398 0.85938-0.95312 0.49219-0.82812 0.95703-2.0469 1.7617-2.1641 0.375-1.0312 0.45703-2.0195 0.96094-1.3008 0.74219-1.1172 0.17578-1.0117 0.5-2.3789 0.57422-1.332-0.023437-1.2422 0.097656-1.0625-0.70703-1.0625 0.0625-1.2461-0.67969-1.3867-0.16406-1.0117-0.71875-0.66797-0.94922-0.73438-1.3633-1.3672-1.1562-0.49219-1.293-0.58203-1.0156-0.96875-0.35156-1.0508-1.0938-0.875-0.9375-0.56641-1.457-1.0469-0.54297-0.99609-0.21484-0.097657-1.7656 0.38281-1.8203-0.0625-1.2383-0.49219-1.0977-0.74609-1.332 0.6875-0.92969 0.625-1.2617 0.53125-1.4844 0.37109-1.2617-0.25-1.1992 0.26562-1.3438 0.76562-1.0703 0.79297-1.0039 1.1992-1.3633 1.25-1.4258 0.85547-0.99219 0.125-1.4141-0.054688-1.0938 0.42188-0.98438-0.13672-1.582-0.58594-1.0195-0.36328-1.2734 0.38281-1.3398 0.73047-1.1758 0.375-1.0781 1.1172-0.80859 0.76953-0.67969 0.85156-1.043 1.125-0.97656 0.4375-1.0977-0.015625-1.5195-0.078125-1.0078 0.16016-1.3047-0.26953-1.1992-0.65625-1.4062-0.32422-1.2461 0.82422-1.8867 0.62109-0.92969 0.21875-2.0586 0.11328-1.5156 0.48047-1.2969-0.92188-1.3438-0.76172-1.1289 0.19922-2.6445 0.58984-1.543 1.9102-2.0938-0.55859-0.88281-3.0352 0.94141-1.4648 0.33594-1.5586 0.69141-1.0352 0.83203-1.25 0.55078-1.4492-0.1875-1.8828 0.94531-1.0117 0.27344-1.1055 0.76953-1.332 0.14844-1.5273 0.51172-1.7109 0.09375-1.5547-0.66797-1.5273-0.88672-1.3867-0.88281-0.73047-0.86719-1.2695-0.80469-1.2227-0.43359-1.2148-0.35547-1.0859-0.42578-1.6055-0.64844-0.90234-0.59375-1.125-0.57031-1.1641-0.015625-0.67578-1.2461-1.1445-1.1367-0.54688-1.25 0.17188-1.375-0.003906-1.1836-1.3164-0.79688-1.3242-0.12109-1.4883 0.34375-1.7305-0.98047-2.1133-0.71484-1.0938-0.98438-2.1914-0.36328-1.7578 0.82422-1.3867 0.52344-2.3242 1.6953-3.457 1.8672-1.6953 1.1836-2.7578 1.1133-1.4688 1.2227-0.97656 0.53516-2.0117 1.5-1.1445 0.68359-1.5625 0.69922-1.9609 0.46484-3.7422 1.9727-2.0898 0.55078-3.8125 1.668-2.1562 2.7031-0.94141 0.92969-0.57031 0.84375-1.2773 0.27344-1.207-1.6328-1.8672-0.33984-1.7734-0.90625-0.96484-0.35156-1.3242-0.20312-1.1875-0.29688-1.0352-0.42188-1.3789-0.33203-4.7031-2.668 1.2227-0.59375 0.69141-0.98828 1.3555-1.4062 0.35547-1.0195 0.46094-1.0391 0.71875-1.0039 0.9375-0.82031 1.1367-0.41016 1.668-0.058593 1.4219-0.10547 1.0469-0.39062 1.4062-1.6719 1.4023-1.8398 1.2383-1.0039 1.3398-0.43359 1.9062-0.035156 1.5039-0.73438 0.83594-0.63672 0.66797-2.1367 0.53516-1.9062 0.33594-1.5391 0.14453-2 0.48828-1.9141 1.2734-1.5391 0.73438-1.1016 1.2383-1.0391 1.5938-0.58203 0.55859-0.84375 0.76562-0.69531 1.2383-0.71094 0.20703-0.99609 1.1719-1.0039 0.26953-1.2891 0.65625-1.1367-0.36719-1.1992 0.37891-1.082-1.4492-0.73047-1.8555-1.0586-1.1055-1.3008-0.38672-1.2266-0.38281-1.707-1.2773-1.1094-1.7305-1.1562-0.98828-1.5156-0.74609-1.875-0.57812-1.2305-0.097656-1.0352 0.48438-1.4414-0.058594-1.5469 0.125-2.2812 0.57031-2.0039 1.2344-4.1367 0.375-0.94141 0.19531-1.2812 0.47656-1.2891 0.14844-1.2852 0.10938-1.0195 0.35156-1.1367 0.64844-1.332 0.85938-1.5195 0.30469-1.918 1.2539-2.7227 0.80469-1.2148 1.1484-3.1133 1.8164-2.8945 0.83594-1.7461 1.2578-1.6523 1.1523-1.4531 1.1914-1.082 2.3047-1.7617 2.2617-1.6523 1.582-1.6094 0.51953-0.98047 0.40625-2.0977 0.57422-1.0977 5.0039-4.5508 1.3789-2.0703-0.875-1.2266-1.082-0.28125-1.2188-0.32812-0.96484-0.47266-0.58203-0.90625-0.36719-1.4922v-1.1641l-0.30469-1.8359-0.80078-1.7734-0.21875-1.4727 0.52734-1.1797 0.75781-0.83984 2.1016-0.44531 1.9414-0.15625 1.4727-0.96094 0.76172-1.2812 0.11328-2.2695 0.34375-1.2422 0.3125-1.4219 0.86719-2.1094 0.82422-1.1133 0.98828-1.6953 0.80078-1.3516 0.69141-0.92578 0.92188-1.2188 0.54297-1.1367 0.36328-0.94922 1.5586-0.63672 1.0039-0.19141 0.71875-1.3398v-1.3281l0.44531-1.1797 0.85547-1.2461 1.1367-1.7617 0.14844-1.6094-0.3125-1.2734 0.9375-0.50391 2.7578-0.25391 1.4648-1.2656 1.2305-0.625 1.7109-0.14844 0.82812-0.80859 0.89453-1.5703 1.207-1.1133 1.9961-0.066406 2.5-1.0156 0.99609-0.30859 1.6836-0.92969 1.5898-0.62109 1.5039-0.21484 1.3164 0.40625 1.6641 0.48828 1.4922 0.25781 1.707 0.066406 1.5312-0.3125 1.3555 0.015625 1.2188 0.13281 0.88672 1.0547 0.78125 0.83203 1.3984-0.15625 1.2188-0.69141 2.0117-0.5625 2.8828-1.5234 1.1992-0.11328 0.40625 0.99609 1.3047 0.95312 0.89844 0.87109 1.1445 0.63672 1.9961-0.6875 1.5-1.4922 1.6484-0.46875 1.7773 0.14844 1.7773-0.875 1.4688-0.51953 1.4844-1.3164 0.88672-0.52344 1.1836-0.46875 1.4766-0.29297 2.1133-1.1094 1.168-0.43359 1.8594-1.168 1.1328-0.87891 0.64062-0.78125 1.1328-1.5117z" fill="#ccc" fill-rule="evenodd"/>
<path d="m392.41 33.297 6.9375 6.2969 1.7969 1.875 6.2656 5.7383 1.9961 1.543 2.3438 2.2852 4.1992 3.4883 2.4375 2.3633 2.5469 2.168 3.0703 2.9727 1.1328 0.83203 1.9805 1.8516 2 1.8672 0.82812 1.6992 0.14844 1.6992-0.59766 1.8711-0.43359 1.5859 0.28906 1.8125 0.73828 1.5078-0.15625 1.6055 0.58594 0.94141 1.0078 0.50391 0.80078 0.76953 0.89844 1.2656 0.83203 1.7227 3.0977 3.0234 0.34766 1.3398 1.1484 0.48828 1.1016-0.60156 1.2305 0.039063 1.4414 0.82031 9.6406 5.1836 2.2773 1.3594 1.3281 0.57422 23.41 12.926 6.5117 3.6562-1.0664 0.85156-1.5859 1.2617-0.88281 0.48828-1.8594 1.3555-1.2188 0.60938-1.6914 1.4648-1.5078 0.64062-3.2773 0.21094-1.4883 0.42578-1.7773 0.14062-1.0273 0.70312-1.8398 1.5703-1.3594 2.1562-2.6016 1.0938-0.98828 0.75-0.98047 1.2852-0.8125 0.78906-0.066407 1.5117 0.73047 2.1328 0.11328 2.1797 0.62891 1.6094 1.0547 1.7344 0.19531 1.4258-0.17188 1.6992 0.60156 1.4844 0.99219 0.70312 1.0039 0.25 0.79297 0.64453 1.0234 1.2891 1.2969 0.53516 0.94922 0.41016 1.4414-0.10547 1.6016 1.2891 1.0664 0.5625 0.90234 0.60547 1.3633 0.45703 1.2188 0.89844 0.61719 0.95703 1.25 0.48047 1.3633 0.64453 1.4922 0.44141 1.0547 0.6875 0.99609 1.0625 1.1992 0.87109 1.457 0.75 1.207 0.63672 1.4492 1.0625 1.082 0.30078 1.0234 0.44922 0.94922 1.0312 0.99609 0.5625 1.1172 0.3125 0.80469 0.61719 0.83203 0.69531 0.89453 0.56641 0.65625 1.0156 0.57422 0.91016 0.57812 0.81641-0.050781 1.1094-0.99219 1.168-2.1953 0.16406-2.7461-0.19922-2.1289 0.41797-1.5859 0.082031-1.8633-0.10547-2.1133-0.23828-1.1289 0.097657-1.5742-0.37109-1.2773-0.39062-2.2344-0.050781-2.7266 0.22266-3.2188 0.79297-1.832 0.94531-2.4141 0.86328-1.0547 0.88672-0.73828 1.3008-1.5703 1.4961-1.8672 2.1875-1.3281 1.9648-1.6211 0.95703-1.25 0.14844-1.6211-0.097657-1.1172-0.015625-2.2734 0.0625-1.5938 1.0312-1.2305 1.6211-1.6875 0.81641-3.5664-0.46484-0.92578 2.3594-0.76953 1.418-1.082 1.5195-0.34375 1.4766-0.14453 1.5703-0.050781 1.1797-1.0547 1.5938-1.5742 1.4492-1.5703 1.5469-2.0156 1.2031-0.66016 1.543-0.003906 1.6094-0.39062 0.98047-1.0078 0.90234-2.8477 1.3516-2.1367 0.98438-1.1562 0.44141-1.1016 0.17188-1.1797 1.3008-1.375 0.66406-2.1367 0.63672-1.9648 0.92578-1.9023 0.80859-1.7383 0.73828-3.4336 1.2617-3.4883 1.6953-3.0195 1.5938-1.9648 1.0312-2.332 0.93359-0.91016 0.6875-2.8984 0.91016-3.1992 2.2578-1.7617 0.21484-2.2734 0.18359-1.7773-0.25391-1.4727-0.46484-1.1836-0.66016-1.668-1.2383-0.90234-1.5312-2.6094-1.9922-1.3477-0.74609-1.5703-0.28125-1.8477 0.42188-3.457 1.293-1.9375 0.5625-2.2422 0.125-1.8633-0.41406-1.5469-0.75-1.2539 0.027344-1.4375 0.57031-1.2383 1.6836-1.8477 0.45312-2.4609 1.1719-1.3438 1.0977-0.67188 1.1406-0.85938 0.51953-1.6914 1.8555-1.1914 0.39844-1.125-0.03125-0.99609 0.41406-2.2148 1.6562-1.4766 1.1211-2.9102 2.2188-0.82031 0.84766-2.3398 0.85938-0.95312 0.49219-0.82812 0.95703-2.0469 1.7617-2.1641 0.375-1.0312 0.45703-2.0195 0.96094-1.3008 0.74219-1.1172 0.17578-1.0117 0.5-2.3789 0.57422-1.332-0.023437-1.2422 0.097656-1.0625-0.70703-1.0625 0.0625-1.2461-0.67969-1.3867-0.16406-1.0117-0.71875-0.66797-0.94922-0.73438-1.3633-1.3672-1.1562-0.49219-1.293-0.58203-1.0156-0.96875-0.35156-1.0508-1.0938-0.875-0.9375-0.56641-1.457-1.0469-0.54297-0.99609-0.21484-0.097657-1.7656 0.38281-1.8203-0.0625-1.2383-0.49219-1.0977-0.74609-1.332 0.6875-0.92969 0.625-1.2617 0.53125-1.4844 0.37109-1.2617-0.25-1.1992 0.26562-1.3438 0.76562-1.0703 0.79297-1.0039 1.1992-1.3633 1.25-1.4258 0.85547-0.99219 0.125-1.4141-0.054688-1.0938 0.42188-0.98438-0.13672-1.582-0.58594-1.0195-0.36328-1.2734 0.38281-1.3398 0.73047-1.1758 0.375-1.0781 1.1172-0.80859 0.76953-0.67969 0.85156-1.043 1.125-0.97656 0.4375-1.0977-0.015625-1.5195-0.078125-1.0078 0.16016-1.3047-0.26953-1.1992-0.65625-1.4062-0.32422-1.2461 0.82422-1.8867 0.62109-0.92969 0.21875-2.0586 0.11328-1.5156 0.48047-1.2969-0.92188-1.3438-0.76172-1.1289 0.19922-2.6445 0.58984-1.543 1.9102-2.0938-0.55859-0.88281-3.0352 0.94141-1.4648 0.33594-1.5586 0.69141-1.0352 0.83203-1.25 0.55078-1.4492-0.1875-1.8828 0.94531-1.0117 0.27344-1.1055 0.76953-1.332 0.14844-1.5273 0.51172-1.7109 0.09375-1.5547-0.66797-1.5273-0.88672-1.3867-0.88281-0.73047-0.86719-1.2695-0.80469-1.2227-0.43359-1.2148-0.35547-1.0859-0.42578-1.6055-0.64844-0.90234-0.59375-1.125-0.57031-1.1641-0.015625-0.67578-1.2461-1.1445-1.1367-0.54688-1.25 0.17188-1.375-0.003906-1.1836-1.3164-0.79688-1.3242-0.12109-1.4883 0.34375-1.7305-0.98047-2.1133-0.71484-1.0938-0.98438-2.1914-0.36328-1.7578 0.82422-1.3867 0.52344-2.3242 1.6953-3.457 1.8672-1.6953 1.1836-2.7578 1.1133-1.4688 1.2227-0.97656 0.53516-2.0117 1.5-1.1445 0.68359-1.5625 0.69922-1.9609 0.46484-3.7422 1.9727-2.0898 0.55078-3.8125 1.668-2.1562 2.7031-0.94141 0.92969-0.57031 0.84375-1.2773 0.27344-1.207-1.6328-1.8672-0.33984-1.7734-0.90625-0.96484-0.35156-1.3242-0.20312-1.1875-0.29688-1.0352-0.42188-1.3789-0.33203-4.7031-2.668 1.2227-0.59375 0.69141-0.98828 1.3555-1.4062 0.35547-1.0195 0.46094-1.0391 0.71875-1.0039 0.9375-0.82031 1.1367-0.41016 1.668-0.058593 1.4219-0.10547 1.0469-0.39062 1.4062-1.6719 1.4023-1.8398 1.2383-1.0039 1.3398-0.43359 1.9062-0.035156 1.5039-0.73438 0.83594-0.63672 0.66797-2.1367 0.53516-1.9062 0.33594-1.5391 0.14453-2 0.48828-1.9141 1.2734-1.5391 0.73438-1.1016 1.2383-1.0391 1.5938-0.58203 0.55859-0.84375 0.76562-0.69531 1.2383-0.71094 0.20703-0.99609 1.1719-1.0039 0.26953-1.2891 0.65625-1.1367-0.36719-1.1992 0.37891-1.082-1.4492-0.73047-1.8555-1.0586-1.1055-1.3008-0.38672-1.2266-0.38281-1.707-1.2773-1.1094-1.7305-1.1562-0.98828-1.5156-0.74609-1.875-0.57812-1.2305-0.097656-1.0352 0.48438-1.4414-0.058594-1.5469 0.125-2.2812 0.57031-2.0039 1.2344-4.1367 0.375-0.94141 0.19531-1.2812 0.47656-1.2891 0.14844-1.2852 0.10938-1.0195 0.35156-1.1367 0.64844-1.332 0.85938-1.5195 0.30469-1.918 1.2539-2.7227 0.80469-1.2148 1.1484-3.1133 1.8164-2.8945 0.83594-1.7461 1.2578-1.6523 1.1523-1.4531 1.1914-1.082 2.3047-1.7617 2.2617-1.6523 1.582-1.6094 0.51953-0.98047 0.40625-2.0977 0.57422-1.0977 5.0039-4.5508 1.3789-2.0703-0.875-1.2266-1.082-0.28125-1.2188-0.32812-0.96484-0.47266-0.58203-0.90625-0.36719-1.4922v-1.1641l-0.30469-1.8359-0.80078-1.7734-0.21875-1.4727 0.52734-1.1797 0.75781-0.83984 2.1016-0.44531 1.9414-0.15625 1.4727-0.96094 0.76172-1.2812 0.11328-2.2695 0.34375-1.2422 0.3125-1.4219 0.86719-2.1094 0.82422-1.1133 0.98828-1.6953 0.80078-1.3516 0.69141-0.92578 0.92188-1.2188 0.54297-1.1367 0.36328-0.94922 1.5586-0.63672 1.0039-0.19141 0.71875-1.3398v-1.3281l0.44531-1.1797 0.85547-1.2461 1.1367-1.7617 0.14844-1.6094-0.3125-1.2734 0.9375-0.50391 2.7578-0.25391 1.4648-1.2656 1.2305-0.625 1.7109-0.14844 0.82812-0.80859 0.89453-1.5703 1.207-1.1133 1.9961-0.066406 2.5-1.0156 0.99609-0.30859 1.6836-0.92969 1.5898-0.62109 1.5039-0.21484 1.3164 0.40625 1.6641 0.48828 1.4922 0.25781 1.707 0.066406 1.5312-0.3125 1.3555 0.015625 1.2188 0.13281 0.88672 1.0547 0.78125 0.83203 1.3984-0.15625 1.2188-0.69141 2.0117-0.5625 2.8828-1.5234 1.1992-0.11328 0.40625 0.99609 1.3047 0.95312 0.89844 0.87109 1.1445 0.63672 1.9961-0.6875 1.5-1.4922 1.6484-0.46875 1.7773 0.14844 1.7773-0.875 1.4688-0.51953 1.4844-1.3164 0.88672-0.52344 1.1836-0.46875 1.4766-0.29297 2.1133-1.1094 1.168-0.43359 1.8594-1.168 1.1328-0.87891 0.64062-0.78125 1.1328-1.5117 37.957 32.922" fill="none" stroke="#fff" stroke-linecap="round" stroke-linejoin="round" stroke-miterlimit="10" stroke-width="2"/>
<path d="m146.64 283.31 3.4688 0.10938 1.0703 0.375 1.2266 0.80469 0.96094 1.1211 12.137 14.176 5.4102 5.9531 4.0312 4.9336 1.0938 0.79688 1.5508 0.16406 5.2383-4.8984 1.6992-1.0195 1.2656 0.26172 0.6875 1.875-0.17578 4.5195-0.21875 5.6055 0.72656 3.9414 2.207 1.4531 1.0469 0.089844 1.2539-0.63281 1.2422-1.2461 1.3477-0.96094 1.4805 0.10156 8.9844 5.1406 2.1758 1.25 0.78906 0.67188 0.81641 1.2422 0.48438 2.0508 0.11719 1.1367 0.36719 3.0781-0.11328 1.25-0.84766 1.2344-0.92578 0.45703-1.4453 1.207-0.30078 1.5312 0.42578 0.96875 0.82812 1.1094 3.0625 2.7422 2.9609 2.7266 2.0352 1.875 5.3047 4.7773 1.1562 0.30078 1.2266 0.26172 1.418 0.30078 1.2031 0.25391 1.125 0.24609 1.8008 0.38672 1.5664 0.33984 1.1602 0.24609 1.5117 0.32031 1 0.21484 1.3281 0.27734 1.0508 0.23828 1.4883 0.30469 0.97656 0.21484 1.6094 0.34375 1.2695 0.27734 1.3516 0.28906 1.5 0.32422 1.1719 0.25391 1.7891 0.36719 1.9609 0.40625 1.6836 0.375 1.7461 0.35156 1.8906 0.41406 1.7891 0.39453 1.582 0.33984 1.4141 0.28906 1.0977 0.22656 1.7969 0.39062 1.9375 0.40234 1.0586 0.23438-7.543 4.4727-0.46484 1-0.92969 2.6602-1.1133 1.957-1.8867 1.7344-4.918 3.4414-1.0117 0.91016-2.5703 3.9219-1.9297 1.6406-2.3672 1.6289-1.0078 0.72656-1.0156 1.0938-0.34375 1.2305-0.42188 1.9688-0.92188 1.9688-0.92188 1.5586-3.6719 3.4531-1.1172 0.95703-0.86719 1.0859-0.82031 0.91016-1.1133 1.5586-1.1172 2.1914-2.5156 2.4531-3.2852 3.3633-1.9023 2.0078-0.92578 1.3633-0.96875 1.6914-0.63281 1.3711-0.011719 1.6523-0.72266 1.2812-1.5 0.95703-1.2031 0.67188-0.63672 1.2344-0.10156 1.0977-0.15234 1.0156-0.77344 1.6016-0.67578 1.043-0.34766 1.1484-0.96484 0.95312-0.60156 2.7891-1.1133 0.54688-0.86719 0.76562-1.4453 0.12891-1.2031 0.21484-1.9453 0.43359-1.25 0.19922-2.1875 0.44141-0.62109 0.9375 0.23828 1.3398-0.57031 1.2305-0.97266 1.0664-0.95703 1.2852-0.78906 1.6328-1.6719 0.76172-2.0742 0.76562-1.3398 0.69531-1.5117 1.2734-0.17969 1.3008 0.5625 1.4375-0.82031 2.8594-0.58594 2.5703-1.1953 1.7266-0.74609 0.73438-1.9297 0.75781-0.98047 1.0625-0.14453 1.9844-0.42188 2.0742-0.20312 1.4492 0.35547 1.2227-0.17188 1.3672-0.78906 1.4727-1.1133 2.9492-0.64453 0.82422-0.84375 0.71875-0.5 0.9375-0.66797 1.0547-0.53906 0.91406-0.95312 1.2617-0.97656 1.1641-0.33203 1.0508-0.77344 1.0859-1.0742 0.67578-1.3711 0.17969-0.92969 0.73047-1.2266 0.85547-1.2305 0.57031-0.61328 0.80078-1.0156 0.59375-1.4844-0.12109-1.1094 0.058593-1.3203 0.17578-1.0547 0.60938-1.1719 0.42578-1.1875 0.18359-1.0039 0.82422-1.332-0.30469 0.089844-1.1055 0.17578-0.98828-0.45703-1.1914-0.046875-1.0469-1.0078-0.38672-0.97266-0.81641-0.33594-1.0117-0.61719-0.96875-1.168 0.082031-0.95703 0.44922-0.63672-0.89062-0.31641-1.0625-0.83203-0.58594-0.33984-1.0312-0.98828-0.51953-0.98047 0.30078-0.22266-1.1836-1.5977-0.85156-0.60156-0.85938-0.39453-0.98438-1.1289 0.40625-0.89062-1.0703 0.74609-0.83594 0.73828-1.3867 0.55859-1.3008 0.12891-1.1133 0.015625-1.4922-0.73438-0.94922-0.91797-0.63672-1.6484-1-0.97656 0.23438-1.4961 0.45312-1.0078-0.24219-1.2148 0.046875-0.99609-0.74609-0.59766-0.89062-0.27734-1.4648 0.30078-0.98828 0.51953-1.4062-0.68359-1.5234-0.97266-0.41016-1.0352-0.46875-1.0273 0.011719-1.3906 0.69531-0.69922 0.77734-0.90625 0.89062-0.36328-1-0.78125-0.63672-0.94531-0.32812-0.76172-0.77734 0.35156-1.9766-0.054688-1.0664-0.66406-1.0547-0.63281-1.3125-0.69141-0.92188-0.83594-0.66797-1.4688-0.70312-1.2148-0.53906-1.3555-0.35938-1.5039-0.43359-1.3516-0.26172-1.1523 0.54297-1.0078 0.125-1.2852-0.33594-1.1406-1.4023-0.69531-0.82031-0.91406-1.0039-1.9414-1.6953-1.3867-1.1641-1.7539-1.2266-1.0781-0.78516-1.9844-1.2695-1.2461-0.70703-0.90625-0.68359-0.91016-0.58594-1.043-0.62109-1.4648-0.69531-1.0234-0.375-2.4375-1.5391-1.1484-0.62891-1.1406-0.60547-1.4727-1.0352-0.96875-0.37891-1.0859-0.90625-1.3984-0.80859-1.7227-0.95703-0.91406-0.76172-1.125-0.44922-1.1719-0.09375-0.79688 0.82812-1.6797 0.082031-0.9375 0.51562-1.043 0.55859-0.77734 0.94922-1.1289 0.38672-1.3359-0.16406-1.0391-0.14453-0.96484 0.52344-0.51172 0.99219-1.168 0.50391-0.73828-0.68359-0.71094-0.83984-0.75781 0.67969-0.93359-0.71094-1.1641-0.35938-0.73828-0.86719-1.0664-0.55469-1.0156-0.33594-1.0078 0.86328-0.94531 0.46484-1.0898 0.23828-0.82031-0.8125-1.0195 0.49609-1.8594-0.19922-1.082-0.45703-0.94531-0.51562-0.94922-0.84375-0.6875-1.0664-0.72266-1.0977-1-0.050781-0.96875 0.39453-1.2383-0.125-0.98438 0.28906-0.47656-0.94141-1.3906-0.26953h-1.0039l-0.96484-0.28125-0.92969 0.47656-0.85938-0.66016-1.0273-0.30469-0.92969-0.39844-1.1914 0.29688-1.0586-0.23828-1.0156-0.34375-1.0352 0.054688-1.1406-0.29297-1.1367-0.13281-1.5312-0.44141-1.1406-0.37109-0.96484-0.45703-1.0586-0.20312-1.0547-0.19141-0.17578-1.0391 0.24219-1.3125 0.52344-0.93359-1.043-0.38281-0.57422-1.0742-0.058594-1.0859-0.35547-1.0078-0.98047-0.28906-0.77734-0.83594-0.82812-0.94141-0.50391-1.25 0.007812-1.332-0.54688-0.99219 0.31641-1.6055-0.53125-0.99609-1.125-0.71094-1.9258-1.3945-1.6445-1.168-1.4297-0.97266-1.082-0.60938-2.0938-1.418-1.207-0.75391-1.4492-0.74609-1.2812-0.40234-1.2188-0.87109-1.2617-1.0312-0.91797-0.89453-1.5156-0.98438-1.5703-0.92969-0.98828-0.6875 0.27734-1.2305 0.95312-0.51562 0.98438-0.46094 1.0117-0.52344 0.89453-0.64453 1.0156-0.64453 1.1523-0.86719 1.4062-0.64453 0.55078-2.3438 0.59766-0.83203 0.76953-0.88672 0.64453-1.0391 0.69141-1.418-0.35547-1.9805 0.20703-1.5234 0.46875-1.0195-0.15625-1.5-0.039062-1.0234-0.10547-1.0508-0.11719-1.168-0.21875-0.98438 0.79688-1.6172 0.99609-1.3945 0.90625-0.92578 0.61328-0.95312 0.20312-1.0469 0.42188-1.0781 1.4102-1.0664 0.77344-0.67969 0.83594-1.7812 0.17969-1.7227 1.2148-2.1719 1.3516-1.4609 1.1445-2.2773 0.67188-1.0234 0.36328-1.2773 0.15234-1.1367-0.054688-1.0898-0.38672-2.875 0.54688-2.1172 0.63672-1.3633 2.2578-2.5352 0.77344-0.63672 1.2773-0.73828 1.5508-0.17578 1.3047 0.19922 3.4375 1.707 1.2461-0.87109-0.066406-1.8125 0.16016-1.3164-0.25-1.4414-0.38672-1.2812-0.28906-1.3008-0.38281-1.1875-0.15234-1.0352 0.64062-1.3086 2.6367-1.4531 3.5234-0.90234 1.8867 0.375 2.6406 1.0117 1.8516 1.0664 1.707 0.59766 1.6367-0.35156 1.2539-1.2266 1.4023-1.9258 1.5781-1.75 1.1094-0.87891 2.043-0.46484 3.9141 0.43359 1.0547 0.21875 1.4766 0.33203 1.0547-0.40234 2.2891-1.668 1.1484-1.0117 1.0547-0.53125 1.625 0.57422 1.8594 1.9414 1.9375 0.96094 1.0039-0.41797 0.47266-1.1211 0.61719-0.85156 0.67188-1.5352 0.89453-0.56641 1.3984-1.3516 1.4023-2.8516 1.7227-1.8281 0.34375-3.7695 0.77734-1.793 2.6523-1.3906 1.3594-0.41797 2.4609-1.0508 2.0664 0.089844 0.99219 0.74609 1.3594 1.6133 1.7266 0.99219 1.4492-0.35156 2-0.94922 1.3008-0.67578 1.1055-0.11719 1.4648-0.24609 1.3789-0.83203 1.3242-0.98828 0.80859-0.88281 1.3672-0.37891 1.2891 0.0625 1.5742 0.011718 1.2266-0.039062 1.25 0.15234 1.3984 0.68359 1.3086 0.75781 1.4609 0.73828 1.0234 0.36328 1.3398 0.625 1.1914 0.73438 1.1641 0.58984 1.0977 0.72266 1.2188 0.5625 2.6953 0.97656 1.2305 0.38672 1.75 0.1875 1.207-0.074219 3.3945 0.03125 1 0.042969 1.043 0.027343 1.2109-0.21875 1.2773-0.007812 0.63672-0.77344 0.46094-1.4688 0.30078-0.96875 0.33594-1.1445 0.15234-1.2188 0.125-1.3125 0.23047-1.6758 0.47266-2.6992-0.35547-1.4258-0.16797-1.0742 0.85547-1.5625 0.63672-0.80469 0.22656-1.1406-0.55469-1.2031-0.89062-1.6953 0.007812-1.082 0.29297-1.625 0.77344-2.3984z" fill="#ccc" fill-rule="evenodd"/>
<path d="m146.64 283.31 3.4688 0.10938 1.0703 0.375 1.2266 0.80469 0.96094 1.1211 12.137 14.176 5.4102 5.9531 4.0312 4.9336 1.0938 0.79688 1.5508 0.16406 5.2383-4.8984 1.6992-1.0195 1.2656 0.26172 0.6875 1.875-0.17578 4.5195-0.21875 5.6055 0.72656 3.9414 2.207 1.4531 1.0469 0.089844 1.2539-0.63281 1.2422-1.2461 1.3477-0.96094 1.4805 0.10156 8.9844 5.1406 2.1758 1.25 0.78906 0.67188 0.81641 1.2422 0.48438 2.0508 0.11719 1.1367 0.36719 3.0781-0.11328 1.25-0.84766 1.2344-0.92578 0.45703-1.4453 1.207-0.30078 1.5312 0.42578 0.96875 0.82812 1.1094 3.0625 2.7422 2.9609 2.7266 2.0352 1.875 5.3047 4.7773 1.1562 0.30078 1.2266 0.26172 1.418 0.30078 1.2031 0.25391 1.125 0.24609 1.8008 0.38672 1.5664 0.33984 1.1602 0.24609 1.5117 0.32031 1 0.21484 1.3281 0.27734 1.0508 0.23828 1.4883 0.30469 0.97656 0.21484 1.6094 0.34375 1.2695 0.27734 1.3516 0.28906 1.5 0.32422 1.1719 0.25391 1.7891 0.36719 1.9609 0.40625 1.6836 0.375 1.7461 0.35156 1.8906 0.41406 1.7891 0.39453 1.582 0.33984 1.4141 0.28906 1.0977 0.22656 1.7969 0.39062 1.9375 0.40234 1.0586 0.23438-7.543 4.4727-0.46484 1-0.92969 2.6602-1.1133 1.957-1.8867 1.7344-4.918 3.4414-1.0117 0.91016-2.5703 3.9219-1.9297 1.6406-2.3672 1.6289-1.0078 0.72656-1.0156 1.0938-0.34375 1.2305-0.42188 1.9688-0.92188 1.9688-0.92188 1.5586-3.6719 3.4531-1.1172 0.95703-0.86719 1.0859-0.82031 0.91016-1.1133 1.5586-1.1172 2.1914-2.5156 2.4531-3.2852 3.3633-1.9023 2.0078-0.92578 1.3633-0.96875 1.6914-0.63281 1.3711-0.011719 1.6523-0.72266 1.2812-1.5 0.95703-1.2031 0.67188-0.63672 1.2344-0.10156 1.0977-0.15234 1.0156-0.77344 1.6016-0.67578 1.043-0.34766 1.1484-0.96484 0.95312-0.60156 2.7891-1.1133 0.54688-0.86719 0.76562-1.4453 0.12891-1.2031 0.21484-1.9453 0.43359-1.25 0.19922-2.1875 0.44141-0.62109 0.9375 0.23828 1.3398-0.57031 1.2305-0.97266 1.0664-0.95703 1.2852-0.78906 1.6328-1.6719 0.76172-2.0742 0.76562-1.3398 0.69531-1.5117 1.2734-0.17969 1.3008 0.5625 1.4375-0.82031 2.8594-0.58594 2.5703-1.1953 1.7266-0.74609 0.73438-1.9297 0.75781-0.98047 1.0625-0.14453 1.9844-0.42188 2.0742-0.20312 1.4492 0.35547 1.2227-0.17188 1.3672-0.78906 1.4727-1.1133 2.9492-0.64453 0.82422-0.84375 0.71875-0.5 0.9375-0.66797 1.0547-0.53906 0.91406-0.95312 1.2617-0.97656 1.1641-0.33203 1.0508-0.77344 1.0859-1.0742 0.67578-1.3711 0.17969-0.92969 0.73047-1.2266 0.85547-1.2305 0.57031-0.61328 0.80078-1.0156 0.59375-1.4844-0.12109-1.1094 0.058593-1.3203 0.17578-1.0547 0.60938-1.1719 0.42578-1.1875 0.18359-1.0039 0.82422-1.332-0.30469 0.089844-1.1055 0.17578-0.98828-0.45703-1.1914-0.046875-1.0469-1.0078-0.38672-0.97266-0.81641-0.33594-1.0117-0.61719-0.96875-1.168 0.082031-0.95703 0.44922-0.63672-0.89062-0.31641-1.0625-0.83203-0.58594-0.33984-1.0312-0.98828-0.51953-0.98047 0.30078-0.22266-1.1836-1.5977-0.85156-0.60156-0.85938-0.39453-0.98438-1.1289 0.40625-0.89062-1.0703 0.74609-0.83594 0.73828-1.3867 0.55859-1.3008 0.12891-1.1133 0.015625-1.4922-0.73438-0.94922-0.91797-0.63672-1.6484-1-0.97656 0.23438-1.4961 0.45312-1.0078-0.24219-1.2148 0.046875-0.99609-0.74609-0.59766-0.89062-0.27734-1.4648 0.30078-0.98828 0.51953-1.4062-0.68359-1.5234-0.97266-0.41016-1.0352-0.46875-1.0273 0.011719-1.3906 0.69531-0.69922 0.77734-0.90625 0.89062-0.36328-1-0.78125-0.63672-0.94531-0.32812-0.76172-0.77734 0.35156-1.9766-0.054688-1.0664-0.66406-1.0547-0.63281-1.3125-0.69141-0.92188-0.83594-0.66797-1.4688-0.70312-1.2148-0.53906-1.3555-0.35938-1.5039-0.43359-1.3516-0.26172-1.1523 0.54297-1.0078 0.125-1.2852-0.33594-1.1406-1.4023-0.69531-0.82031-0.91406-1.0039-1.9414-1.6953-1.3867-1.1641-1.7539-1.2266-1.0781-0.78516-1.9844-1.2695-1.2461-0.70703-0.90625-0.68359-0.91016-0.58594-1.043-0.62109-1.4648-0.69531-1.0234-0.375-2.4375-1.5391-1.1484-0.62891-1.1406-0.60547-1.4727-1.0352-0.96875-0.37891-1.0859-0.90625-1.3984-0.80859-1.7227-0.95703-0.91406-0.76172-1.125-0.44922-1.1719-0.09375-0.79688 0.82812-1.6797 0.082031-0.9375 0.51562-1.043 0.55859-0.77734 0.94922-1.1289 0.38672-1.3359-0.16406-1.0391-0.14453-0.96484 0.52344-0.51172 0.99219-1.168 0.50391-0.73828-0.68359-0.71094-0.83984-0.75781 0.67969-0.93359-0.71094-1.1641-0.35938-0.73828-0.86719-1.0664-0.55469-1.0156-0.33594-1.0078 0.86328-0.94531 0.46484-1.0898 0.23828-0.82031-0.8125-1.0195 0.49609-1.8594-0.19922-1.082-0.45703-0.94531-0.51562-0.94922-0.84375-0.6875-1.0664-0.72266-1.0977-1-0.050781-0.96875 0.39453-1.2383-0.125-0.98438 0.28906-0.47656-0.94141-1.3906-0.26953h-1.0039l-0.96484-0.28125-0.92969 0.47656-0.85938-0.66016-1.0273-0.30469-0.92969-0.39844-1.1914 0.29688-1.0586-0.23828-1.0156-0.34375-1.0352 0.054688-1.1406-0.29297-1.1367-0.13281-1.5312-0.44141-1.1406-0.37109-0.96484-0.45703-1.0586-0.20312-1.0547-0.19141-0.17578-1.0391 0.24219-1.3125 0.52344-0.93359-1.043-0.38281-0.57422-1.0742-0.058594-1.0859-0.35547-1.0078-0.98047-0.28906-0.77734-0.83594-0.82812-0.94141-0.50391-1.25 0.007812-1.332-0.54688-0.99219 0.31641-1.6055-0.53125-0.99609-1.125-0.71094-1.9258-1.3945-1.6445-1.168-1.4297-0.97266-1.082-0.60938-2.0938-1.418-1.207-0.75391-1.4492-0.74609-1.2812-0.40234-1.2188-0.87109-1.2617-1.0312-0.91797-0.89453-1.5156-0.98438-1.5703-0.92969-0.98828-0.6875 0.27734-1.2305 0.95312-0.51562 0.98438-0.46094 1.0117-0.52344 0.89453-0.64453 1.0156-0.64453 1.1523-0.86719 1.4062-0.64453 0.55078-2.3438 0.59766-0.83203 0.76953-0.88672 0.64453-1.0391 0.69141-1.418-0.35547-1.9805 0.20703-1.5234 0.46875-1.0195-0.15625-1.5-0.039062-1.0234-0.10547-1.0508-0.11719-1.168-0.21875-0.98438 0.79688-1.6172 0.99609-1.3945 0.90625-0.92578 0.61328-0.95312 0.20312-1.0469 0.42188-1.0781 1.4102-1.0664 0.77344-0.67969 0.83594-1.7812 0.17969-1.7227 1.2148-2.1719 1.3516-1.4609 1.1445-2.2773 0.67188-1.0234 0.36328-1.2773 0.15234-1.1367-0.054688-1.0898-0.38672-2.875 0.54688-2.1172 0.63672-1.3633 2.2578-2.5352 0.77344-0.63672 1.2773-0.73828 1.5508-0.17578 1.3047 0.19922 3.4375 1.707 1.2461-0.87109-0.066406-1.8125 0.16016-1.3164-0.25-1.4414-0.38672-1.2812-0.28906-1.3008-0.38281-1.1875-0.15234-1.0352 0.64062-1.3086 2.6367-1.4531 3.5234-0.90234 1.8867 0.375 2.6406 1.0117 1.8516 1.0664 1.707 0.59766 1.6367-0.35156 1.2539-1.2266 1.4023-1.9258 1.5781-1.75 1.1094-0.87891 2.043-0.46484 3.9141 0.43359 1.0547 0.21875 1.4766 0.33203 1.0547-0.40234 2.2891-1.668 1.1484-1.0117 1.0547-0.53125 1.625 0.57422 1.8594 1.9414 1.9375 0.96094 1.0039-0.41797 0.47266-1.1211 0.61719-0.85156 0.67188-1.5352 0.89453-0.56641 1.3984-1.3516 1.4023-2.8516 1.7227-1.8281 0.34375-3.7695 0.77734-1.793 2.6523-1.3906 1.3594-0.41797 2.4609-1.0508 2.0664 0.089844 0.99219 0.74609 1.3594 1.6133 1.7266 0.99219 1.4492-0.35156 2-0.94922 1.3008-0.67578 1.1055-0.11719 1.4648-0.24609 1.3789-0.83203 1.3242-0.98828 0.80859-0.88281 1.3672-0.37891 1.2891 0.0625 1.5742 0.011718 1.2266-0.039062 1.25 0.15234 1.3984 0.68359 1.3086 0.75781 1.4609 0.73828 1.0234 0.36328 1.3398 0.625 1.1914 0.73438 1.1641 0.58984 1.0977 0.72266 1.2188 0.5625 2.6953 0.97656 1.2305 0.38672 1.75 0.1875 1.207-0.074219 3.3945 0.03125 1 0.042969 1.043 0.027343 1.2109-0.21875 1.2773-0.007812 0.63672-0.77344 0.46094-1.4688 0.30078-0.96875 0.33594-1.1445 0.15234-1.2188 0.125-1.3125 0.23047-1.6758 0.47266-2.6992-0.35547-1.4258-0.16797-1.0742 0.85547-1.5625 0.63672-0.80469 0.22656-1.1406-0.55469-1.2031-0.89062-1.6953 0.007812-1.082 0.29297-1.625 0.77344-2.3984 0.96875 0.13281" fill="none" stroke="#fff" stroke-linecap="round" stroke-linejoin="round" stroke-miterlimit="10" stroke-width="2"/>
<path d="m275.49 152.61 1.0938 0.98438 2.1133 0.71484 1.7305 0.98047 1.4883-0.34375 1.3242 0.12109 1.3164 0.79688 0.003906 1.1836-0.17188 1.375 0.54688 1.25 1.1445 1.1367-0.082031 1.0859 1.6172 0.18359 1.1562 0.44922 1.1758 0.70703 1.2031 0.38672 0.95703 0.42578 1.7461 0.61719 1.2227 0.43359 1.082 0.71094 0.91797 0.96094 1.3867 0.88281 1.3828 0.79688 0.88672 0.48438 1.6016 0.39453 1.6289-0.53125 1.6133-0.17578 1.1562-0.4375 0.80078-0.63672 2.1289-0.89453h1.9023l1.25-0.55078 1.0352-0.83203 1.5586-0.69141 1.4648-0.33594 2.4062-1.0234 1.1719 0.60547-1.4961 1.8555-0.98828 2.1406-0.23828 1.9297 0.29297 1.3164 1.4883 1.1875-0.26562 1.1055-0.23828 2.0039-0.25391 1.625-0.28125 1.2812-1.0586 1.3945 0.10547 2.207 0.65625 1.4062 0.26953 1.1992-0.16016 1.3047 0.078125 1.0078 0.050781 1.0234-0.47266 1.5938-1.125 0.97656-0.67578 0.78516-0.65625 0.79688-0.9375 0.37891-0.65234 0.88281-0.92188 1.9414-0.37109 1.0078 0.19531 1.2305 0.74219 1.3945 0.13672 1.582-0.42188 0.98438 0.054688 1.0938-0.125 1.4141-0.85547 0.99219-1.25 1.4258-1.1992 1.3633-0.79297 1.0039-0.76562 1.0703-0.3125 0.94922 0.0625 1.0938-0.13672 1.7617-0.53125 1.4844-0.625 1.2617-0.6875 0.92969 0.74609 1.332 0.46094 1.043 0.09375 1.293-0.38281 1.8203-0.054687 1.332 1.1484 0.64844 0.9375 0.375 0.43359 1.1758 0.67969 1.0117 1.0117 1.0117 0.85156 0.58203 1.0977 0.96875 0.33203 1.2812 1.2578 1.0742 0.63672 0.85547 0.82422 1.4688 0.71484 0.72656 1.0039 0.44141 1.3438 0.30859 1.7188 0.34766 1.043 0.64062h1.4766l1.332 0.023437 2.3789-0.57422 1.0117-0.5 1.1172-0.17578 1.3008-0.74219 1.2383-0.42969 1.8125-0.98828 1.3633-0.125 2.8477-2.0117 0.82812-0.95703 0.95312-0.49219 2.3398-0.85938 0.82031-0.84766 2.4492-1.4453 1.3477-1.2422 2.8047-2.3086 0.99609-0.41406 1.125 0.03125 1.1914-0.39844 1.6914-1.8555 0.85938-0.51953 0.67188-1.1406 1.3438-1.0977 2.4609-1.1719 1.8477-0.45312 1.2383-1.6836 1.4375-0.57031 1.2539-0.027344 1.5469 0.75 1.8633 0.41406 1.4805-0.027344 2.6992-0.66016 3.457-1.293 1.8477-0.42188 1.5703 0.28125 1.3477 0.74609 2.0508 1.4727 0.92969 1.4297 2.1992 1.8594 1.1836 0.66016 1.4727 0.46484 1.7773 0.25391 2.2734-0.18359 1.4609-0.30078 0.082031 1.7148-0.31641 1.2383-0.54688 1.0117-1.4375 1.625-1.0547 1.4219-36.23 39.688-22.395 22.723-5.7969 5.2539-2.7031 2.0039-2.6523 1.8359-0.92578 0.81641-2.0273 1.5312-2.2188 1.9414-4.8086 4.0938-4.7539 4.2422-1.0703 1.3203-0.42578 1.0117-1.2461 2.1719-0.77344 1.207-1.2852 1.125-2.1719 1.3203-2.293 1.2812-2.4102 1.3984-2.0234 0.83984-2.6992 1.1289-1.1055 0.67578-0.91406 1-1 0.87891-1.3438 2.5078-0.46875 2.6797 0.46875 2.4492-0.35156 1.0859-1.5938 1.0859-1.0859 1.2461-0.09375 1.9062-0.4375 1.0039-0.625 1.5195-1.1641 1.625-0.64844 0.99609-0.44141 1.2227-0.48047 1.0938-0.57031 1.4961-0.14844 1.0469-0.66406 0.80078-0.47656 1.4688-0.035156 1.5508-0.03125 1.6562-0.26172 1.0742 0.074219 1.3984-0.082032 1.2031-11.742 6.9336-1.1328-0.25-1.6562-0.33984-1.6172-0.33594-1.9883-0.42969-1.4141-0.28906-1.582-0.33984-1.7891-0.39453-1.0469-0.21484-2.5898-0.55078-1.6836-0.375-1.0078-0.19531-1.9219-0.42969-1.9922-0.40234-1.5-0.32422-1.3516-0.28906-1.2695-0.27734-1.1289-0.24219-1.457-0.31641-1.4883-0.30469-1.0508-0.23828-1.0938-0.23047-1.0859-0.23047-1.0039-0.21484-1.1523-0.25391-1.6914-0.35938-1.4766-0.30469-1.3164-0.28516-1.1602-0.25781-1.5078-0.31641-1.457-0.30859-1.1016-0.23438-5.7539-4.9297-2.0352-1.875-2.9609-2.7266-2.8242-2.5938-0.78906-0.84766-0.70312-1.3789-0.007813-1.0508 1.7539-1.6875 0.92578-0.45703 0.84766-1.2344 0.11328-1.25-0.36719-3.0781-0.11719-1.1367-0.15234-1.5-0.69141-1.25-1.168-1.2188-1.6719-0.91016-9.125-5.2578-1.2891-0.42188-1.3281 0.54688-1.4648 1.3672-0.86719 0.6875-0.95312 0.39844-2.6758-0.92188-1.2461-4.4414 0.29688-5.7852 0.17578-4.5195-0.6875-1.875-1.2656-0.26172-1.1133 0.51953-5.1406 5.0664-1.5195 0.30078-1.8086-0.92969-4.0312-4.9336-4.7773-5.5117-12.77-14.617-0.96094-1.1211-1.2266-0.80469-1.0703-0.375-3.4688-0.10938-0.82812-0.57031 0.9375-1.1055 0.84766-1.2578 0.019531-1.3242 0.27344-1.8867 0.11328-2.7266-0.14062-1.2422-0.26562-1.625 0.12891-1.0547 0.12891-1.4688 0.26953-1.2812 0.41016-1.1562 0.75781-1.1992 0.70703-0.89062 0.67969-0.96094 0.85156-0.96875 0.84766-1.2266 0.38281-0.9375 0.29297-1.2617 0.050781-1.0664-0.27344-1.3594 0.003906-1.1367 0.82031-1.6133 0.42969-1.6953 0.22656-1.2148 0.28516-1.0234 0.51953-1.332 0.98047-0.90625 0.8125-1.1641 0.80078-1.3672 0.82031-0.73047 1.3438-1.2031 0.62891-1.1602 0.050781-1.7812 0.10156-1.2266-0.12109-1.4297 0.24609-0.98047 0.76172-1.0742 0.61719-1.1016 0.19531-1.6367-0.25781-1.2461-0.57422-2.0312 0.26172-1.2656 0.84375-1.4688 0.44922-0.98828 0.86328-0.69922 1.1641-0.007813 1.4883-1.0742 1.0352-0.44531 1.2305-1.0664 0.80859-0.95703 1.375-0.86719 0.61719-1.1211 0.66406-0.91016 0.5625-1.1406 0.003906-1.3398 0.63281-0.92578 0.99219-0.88672 1.3398-0.80859 1.2656-0.47266 0.75-0.84375-0.14844-0.99609 0.75781-0.83203 0.86719-0.54297 1.3984-0.28516 1.125-0.25781 0.78906-0.80469 0.75-0.92188 1.293-0.45312 1-0.71875 0.51953-0.88281 1.4414-1.8633 0.70703-0.81641 0.95703-0.55859 0.96875-0.92188 0.53906-2.2461 0.48438-1.0352 1.4336-1.5781 0.88672-1.3477 0.64844-0.76172 0.65625-1.2695 0.57422-0.90625 1.0938-1.2266 0.76562-0.75 1.3359-1.8867 1.2422-1.168 0.94531-0.85156 0.98828-0.51172 0.81641-0.69922 1.0586-0.92969 1.5469-0.98828 1.2344-0.6875 0.71094-0.96484 1.125-1.1836 1.1133-1.0898 0.78125-1.2422 0.5-1.0195 0.39844-1.1328 0.65234-1.043 1.9062-1.2539 1.0625-0.88281 0.82422-0.69922 1.2852-1.0391 0.89453-1 0.57422-1.1875 0.21484-1.0938 0.69922-0.92188 1.4688-0.59375 4.7031 2.668 1.3789 0.33203 1.0352 0.42188 1.1875 0.29688 1.3242 0.20312 0.96484 0.35156 1.2695 0.74219 1.7891 0.09375 1.4648 1.3398 0.89062 0.82422 1.2812-1.2383 0.94141-0.92969 1.4297-2.0938 4.5391-2.2773 2.0898-0.55078 3.7422-1.9727 1.9609-0.46484 1.5625-0.69922 1.1445-0.68359 2.0117-1.5 0.97656-0.53516 1.4688-1.2227 2.7578-1.1133 1.6953-1.1836 3.457-1.8672 2.3242-1.6953 1.3867-0.52344 0.96484-0.65234z" fill="#0a5394" fill-rule="evenodd"/>
<path d="m275.49 152.61 1.0938 0.98438 2.1133 0.71484 1.7305 0.98047 1.4883-0.34375 1.3242 0.12109 1.3164 0.79688 0.003906 1.1836-0.17188 1.375 0.54688 1.25 1.1445 1.1367-0.082031 1.0859 1.6172 0.18359 1.1562 0.44922 1.1758 0.70703 1.2031 0.38672 0.95703 0.42578 1.7461 0.61719 1.2227 0.43359 1.082 0.71094 0.91797 0.96094 1.3867 0.88281 1.3828 0.79688 0.88672 0.48438 1.6016 0.39453 1.6289-0.53125 1.6133-0.17578 1.1562-0.4375 0.80078-0.63672 2.1289-0.89453h1.9023l1.25-0.55078 1.0352-0.83203 1.5586-0.69141 1.4648-0.33594 2.4062-1.0234 1.1719 0.60547-1.4961 1.8555-0.98828 2.1406-0.23828 1.9297 0.29297 1.3164 1.4883 1.1875-0.26562 1.1055-0.23828 2.0039-0.25391 1.625-0.28125 1.2812-1.0586 1.3945 0.10547 2.207 0.65625 1.4062 0.26953 1.1992-0.16016 1.3047 0.078125 1.0078 0.050781 1.0234-0.47266 1.5938-1.125 0.97656-0.67578 0.78516-0.65625 0.79688-0.9375 0.37891-0.65234 0.88281-0.92188 1.9414-0.37109 1.0078 0.19531 1.2305 0.74219 1.3945 0.13672 1.582-0.42188 0.98438 0.054688 1.0938-0.125 1.4141-0.85547 0.99219-1.25 1.4258-1.1992 1.3633-0.79297 1.0039-0.76562 1.0703-0.3125 0.94922 0.0625 1.0938-0.13672 1.7617-0.53125 1.4844-0.625 1.2617-0.6875 0.92969 0.74609 1.332 0.46094 1.043 0.09375 1.293-0.38281 1.8203-0.054687 1.332 1.1484 0.64844 0.9375 0.375 0.43359 1.1758 0.67969 1.0117 1.0117 1.0117 0.85156 0.58203 1.0977 0.96875 0.33203 1.2812 1.2578 1.0742 0.63672 0.85547 0.82422 1.4688 0.71484 0.72656 1.0039 0.44141 1.3438 0.30859 1.7188 0.34766 1.043 0.64062h1.4766l1.332 0.023437 2.3789-0.57422 1.0117-0.5 1.1172-0.17578 1.3008-0.74219 1.2383-0.42969 1.8125-0.98828 1.3633-0.125 2.8477-2.0117 0.82812-0.95703 0.95312-0.49219 2.3398-0.85938 0.82031-0.84766 2.4492-1.4453 1.3477-1.2422 2.8047-2.3086 0.99609-0.41406 1.125 0.03125 1.1914-0.39844 1.6914-1.8555 0.85938-0.51953 0.67188-1.1406 1.3438-1.0977 2.4609-1.1719 1.8477-0.45312 1.2383-1.6836 1.4375-0.57031 1.2539-0.027344 1.5469 0.75 1.8633 0.41406 1.4805-0.027344 2.6992-0.66016 3.457-1.293 1.8477-0.42188 1.5703 0.28125 1.3477 0.74609 2.0508 1.4727 0.92969 1.4297 2.1992 1.8594 1.1836 0.66016 1.4727 0.46484 1.7773 0.25391 2.2734-0.18359 1.4609-0.30078 0.082031 1.7148-0.31641 1.2383-0.54688 1.0117-1.4375 1.625-1.0547 1.4219-36.23 39.688-22.395 22.723-5.7969 5.2539-2.7031 2.0039-2.6523 1.8359-0.92578 0.81641-2.0273 1.5312-2.2188 1.9414-4.8086 4.0938-4.7539 4.2422-1.0703 1.3203-0.42578 1.0117-1.2461 2.1719-0.77344 1.207-1.2852 1.125-2.1719 1.3203-2.293 1.2812-2.4102 1.3984-2.0234 0.83984-2.6992 1.1289-1.1055 0.67578-0.91406 1-1 0.87891-1.3438 2.5078-0.46875 2.6797 0.46875 2.4492-0.35156 1.0859-1.5938 1.0859-1.0859 1.2461-0.09375 1.9062-0.4375 1.0039-0.625 1.5195-1.1641 1.625-0.64844 0.99609-0.44141 1.2227-0.48047 1.0938-0.57031 1.4961-0.14844 1.0469-0.66406 0.80078-0.47656 1.4688-0.035156 1.5508-0.03125 1.6562-0.26172 1.0742 0.074219 1.3984-0.082032 1.2031-11.742 6.9336-1.1328-0.25-1.6562-0.33984-1.6172-0.33594-1.9883-0.42969-1.4141-0.28906-1.582-0.33984-1.7891-0.39453-1.0469-0.21484-2.5898-0.55078-1.6836-0.375-1.0078-0.19531-1.9219-0.42969-1.9922-0.40234-1.5-0.32422-1.3516-0.28906-1.2695-0.27734-1.1289-0.24219-1.457-0.31641-1.4883-0.30469-1.0508-0.23828-1.0938-0.23047-1.0859-0.23047-1.0039-0.21484-1.1523-0.25391-1.6914-0.35938-1.4766-0.30469-1.3164-0.28516-1.1602-0.25781-1.5078-0.31641-1.457-0.30859-1.1016-0.23438-5.7539-4.9297-2.0352-1.875-2.9609-2.7266-2.8242-2.5938-0.78906-0.84766-0.70312-1.3789-0.007813-1.0508 1.7539-1.6875 0.92578-0.45703 0.84766-1.2344 0.11328-1.25-0.36719-3.0781-0.11719-1.1367-0.15234-1.5-0.69141-1.25-1.168-1.2188-1.6719-0.91016-9.125-5.2578-1.2891-0.42188-1.3281 0.54688-1.4648 1.3672-0.86719 0.6875-0.95312 0.39844-2.6758-0.92188-1.2461-4.4414 0.29688-5.7852 0.17578-4.5195-0.6875-1.875-1.2656-0.26172-1.1133 0.51953-5.1406 5.0664-1.5195 0.30078-1.8086-0.92969-4.0312-4.9336-4.7773-5.5117-12.77-14.617-0.96094-1.1211-1.2266-0.80469-1.0703-0.375-3.4688-0.10938-0.82812-0.57031 0.9375-1.1055 0.84766-1.2578 0.019531-1.3242 0.27344-1.8867 0.11328-2.7266-0.14062-1.2422-0.26562-1.625 0.12891-1.0547 0.12891-1.4688 0.26953-1.2812 0.41016-1.1562 0.75781-1.1992 0.70703-0.89062 0.67969-0.96094 0.85156-0.96875 0.84766-1.2266 0.38281-0.9375 0.29297-1.2617 0.050781-1.0664-0.27344-1.3594 0.003906-1.1367 0.82031-1.6133 0.42969-1.6953 0.22656-1.2148 0.28516-1.0234 0.51953-1.332 0.98047-0.90625 0.8125-1.1641 0.80078-1.3672 0.82031-0.73047 1.3438-1.2031 0.62891-1.1602 0.050781-1.7812 0.10156-1.2266-0.12109-1.4297 0.24609-0.98047 0.76172-1.0742 0.61719-1.1016 0.19531-1.6367-0.25781-1.2461-0.57422-2.0312 0.26172-1.2656 0.84375-1.4688 0.44922-0.98828 0.86328-0.69922 1.1641-0.007813 1.4883-1.0742 1.0352-0.44531 1.2305-1.0664 0.80859-0.95703 1.375-0.86719 0.61719-1.1211 0.66406-0.91016 0.5625-1.1406 0.003906-1.3398 0.63281-0.92578 0.99219-0.88672 1.3398-0.80859 1.2656-0.47266 0.75-0.84375-0.14844-0.99609 0.75781-0.83203 0.86719-0.54297 1.3984-0.28516 1.125-0.25781 0.78906-0.80469 0.75-0.92188 1.293-0.45312 1-0.71875 0.51953-0.88281 1.4414-1.8633 0.70703-0.81641 0.95703-0.55859 0.96875-0.92188 0.53906-2.2461 0.48438-1.0352 1.4336-1.5781 0.88672-1.3477 0.64844-0.76172 0.65625-1.2695 0.57422-0.90625 1.0938-1.2266 0.76562-0.75 1.3359-1.8867 1.2422-1.168 0.94531-0.85156 0.98828-0.51172 0.81641-0.69922 1.0586-0.92969 1.5469-0.98828 1.2344-0.6875 0.71094-0.96484 1.125-1.1836 1.1133-1.0898 0.78125-1.2422 0.5-1.0195 0.39844-1.1328 0.65234-1.043 1.9062-1.2539 1.0625-0.88281 0.82422-0.69922 1.2852-1.0391 0.89453-1 0.57422-1.1875 0.21484-1.0938 0.69922-0.92188 1.4688-0.59375 4.7031 2.668 1.3789 0.33203 1.0352 0.42188 1.1875 0.29688 1.3242 0.20312 0.96484 0.35156 1.2695 0.74219 1.7891 0.09375 1.4648 1.3398 0.89062 0.82422 1.2812-1.2383 0.94141-0.92969 1.4297-2.0938 4.5391-2.2773 2.0898-0.55078 3.7422-1.9727 1.9609-0.46484 1.5625-0.69922 1.1445-0.68359 2.0117-1.5 0.97656-0.53516 1.4688-1.2227 2.7578-1.1133 1.6953-1.1836 3.457-1.8672 2.3242-1.6953 1.3867-0.52344 0.96484-0.65234 2.9844 0.19141" fill="none" stroke="#fff" stroke-linecap="round" stroke-linejoin="round" stroke-miterlimit="10"/>
<path d="m242.84 262.39c0 3.5898-2.9102 6.5-6.5 6.5s-6.5-2.9102-6.5-6.5 2.9102-6.5 6.5-6.5 6.5 2.9102 6.5 6.5" fill="#28c028" fill-rule="evenodd" stroke="#000" stroke-linecap="round" stroke-linejoin="round" stroke-miterlimit="10"/>
<path d="m114.57 256.39v-16.328h3.3281v13.547h8.2656v2.7812zm13.281-8.125c0-1.6758 0.25-3.0859 0.75-4.2344 0.375-0.83203 0.88281-1.582 1.5312-2.25 0.64453-0.66406 1.3516-1.1602 2.125-1.4844 1.0312-0.4375 2.2188-0.65625 3.5625-0.65625 2.4141 0 4.3516 0.75781 5.8125 2.2656 1.457 1.5 2.1875 3.5938 2.1875 6.2812 0 2.6562-0.72656 4.7344-2.1719 6.2344-1.4375 1.5-3.3711 2.25-5.7969 2.25-2.4492 0-4.3984-0.74219-5.8438-2.2344-1.4375-1.5-2.1562-3.5547-2.1562-6.1719zm3.4219-0.125c0 1.8672 0.42969 3.2812 1.2969 4.25 0.86328 0.96094 1.957 1.4375 3.2812 1.4375 1.3203 0 2.4062-0.47266 3.25-1.4219 0.85156-0.95703 1.2812-2.3906 1.2812-4.2969 0-1.8945-0.41797-3.3047-1.25-4.2344-0.82422-0.92578-1.918-1.3906-3.2812-1.3906-1.375 0-2.4844 0.47656-3.3281 1.4219-0.83594 0.9375-1.25 2.3516-1.25 4.2344zm25.672 2.2031 3.2344 1.0156c-0.5 1.793-1.3281 3.125-2.4844 4-1.1484 0.875-2.6016 1.3125-4.3594 1.3125-2.1875 0-3.9844-0.74219-5.3906-2.2344-1.4062-1.5-2.1094-3.5469-2.1094-6.1406 0-2.7383 0.70312-4.8633 2.1094-6.375 1.4141-1.5195 3.2812-2.2812 5.5938-2.2812 2.0078 0 3.6445 0.60156 4.9062 1.7969 0.75 0.69922 1.3125 1.7109 1.6875 3.0312l-3.2969 0.78125c-0.19922-0.85156-0.60547-1.5234-1.2188-2.0156-0.61719-0.5-1.3672-0.75-2.25-0.75-1.2188 0-2.2109 0.4375-2.9688 1.3125-0.76172 0.875-1.1406 2.2969-1.1406 4.2656 0 2.0742 0.375 3.5547 1.125 4.4375 0.75 0.88672 1.7227 1.3281 2.9219 1.3281 0.88281 0 1.6445-0.28125 2.2812-0.84375 0.63281-0.5625 1.0859-1.4414 1.3594-2.6406zm6.0625-10.422h3.3125v8.9219c0 1.418 0.039062 2.3359 0.125 2.75 0.14453 0.67969 0.48438 1.2188 1.0156 1.625 0.53906 0.40625 1.2734 0.60938 2.2031 0.60938 0.9375 0 1.6445-0.19141 2.125-0.57812 0.47656-0.38281 0.76562-0.85938 0.85938-1.4219 0.10156-0.5625 0.15625-1.4922 0.15625-2.7969v-9.1094h3.3281v8.6562c0 1.9688-0.09375 3.3672-0.28125 4.1875-0.17969 0.8125-0.50781 1.5-0.98438 2.0625-0.48047 0.5625-1.125 1.0117-1.9375 1.3438s-1.8711 0.5-3.1719 0.5c-1.5742 0-2.7656-0.18359-3.5781-0.54688s-1.4531-0.83203-1.9219-1.4062c-0.46875-0.58203-0.77734-1.1914-0.92188-1.8281-0.21875-0.94531-0.32812-2.3438-0.32812-4.1875zm16.578 16.469v-16.469h4.9844l2.9844 11.234 2.9531-11.234h4.9844v16.469h-3.0938v-12.953l-3.2656 12.953h-3.2031l-3.25-12.953v12.953zm19.219-16.469h6.5781c1.3008 0 2.2695 0.058594 2.9062 0.17188 0.64453 0.10547 1.2188 0.32812 1.7188 0.67188 0.50781 0.34375 0.92969 0.80469 1.2656 1.375 0.34375 0.57422 0.51562 1.2188 0.51562 1.9375 0 0.77344-0.21094 1.4805-0.625 2.125-0.41797 0.63672-0.98047 1.1172-1.6875 1.4375 1 0.29297 1.7656 0.79297 2.2969 1.5 0.53906 0.69922 0.8125 1.5273 0.8125 2.4844 0 0.74219-0.17188 1.4648-0.51562 2.1719-0.34375 0.71094-0.82031 1.2773-1.4219 1.7031-0.60547 0.41797-1.3516 0.67969-2.2344 0.78125-0.55469 0.0625-1.8906 0.10156-4.0156 0.10938h-5.5938zm3.3281 2.75v3.7969h2.1719c1.2891 0 2.0977-0.015625 2.4219-0.046875 0.5625-0.070312 1.0039-0.26953 1.3281-0.59375 0.33203-0.32031 0.5-0.75 0.5-1.2812 0-0.50781-0.14062-0.92188-0.42188-1.2344-0.28125-0.32031-0.69922-0.51953-1.25-0.59375-0.33594-0.03125-1.2812-0.046875-2.8438-0.046875zm0 6.5469v4.3906h3.0781c1.1953 0 1.9531-0.03125 2.2656-0.09375 0.5-0.09375 0.90625-0.3125 1.2188-0.65625s0.46875-0.8125 0.46875-1.4062c0-0.48828-0.12109-0.90625-0.35938-1.25-0.24219-0.34375-0.58984-0.59375-1.0469-0.75-0.44922-0.15625-1.4336-0.23438-2.9531-0.23438zm28.109 7.1719h-3.6094l-1.4375-3.7344h-6.5781l-1.3594 3.7344h-3.5312l6.4062-16.469h3.5156zm-6.1094-6.5156-2.2812-6.1094-2.2188 6.1094zm0 0" fill="none" stroke="#fff" stroke-linecap="round" stroke-linejoin="round" stroke-miterlimit="10" stroke-width="2"/>
<path d="m114.57 256.39v-16.328h3.3281v13.547h8.2656v2.7812zm13.281-8.125c0-1.6758 0.25-3.0859 0.75-4.2344 0.375-0.83203 0.88281-1.582 1.5312-2.25 0.64453-0.66406 1.3516-1.1602 2.125-1.4844 1.0312-0.4375 2.2188-0.65625 3.5625-0.65625 2.4141 0 4.3516 0.75781 5.8125 2.2656 1.457 1.5 2.1875 3.5938 2.1875 6.2812 0 2.6562-0.72656 4.7344-2.1719 6.2344-1.4375 1.5-3.3711 2.25-5.7969 2.25-2.4492 0-4.3984-0.74219-5.8438-2.2344-1.4375-1.5-2.1562-3.5547-2.1562-6.1719zm3.4219-0.125c0 1.8672 0.42969 3.2812 1.2969 4.25 0.86328 0.96094 1.957 1.4375 3.2812 1.4375 1.3203 0 2.4062-0.47266 3.25-1.4219 0.85156-0.95703 1.2812-2.3906 1.2812-4.2969 0-1.8945-0.41797-3.3047-1.25-4.2344-0.82422-0.92578-1.918-1.3906-3.2812-1.3906-1.375 0-2.4844 0.47656-3.3281 1.4219-0.83594 0.9375-1.25 2.3516-1.25 4.2344zm25.672 2.2031 3.2344 1.0156c-0.5 1.793-1.3281 3.125-2.4844 4-1.1484 0.875-2.6016 1.3125-4.3594 1.3125-2.1875 0-3.9844-0.74219-5.3906-2.2344-1.4062-1.5-2.1094-3.5469-2.1094-6.1406 0-2.7383 0.70312-4.8633 2.1094-6.375 1.4141-1.5195 3.2812-2.2812 5.5938-2.2812 2.0078 0 3.6445 0.60156 4.9062 1.7969 0.75 0.69922 1.3125 1.7109 1.6875 3.0312l-3.2969 0.78125c-0.19922-0.85156-0.60547-1.5234-1.2188-2.0156-0.61719-0.5-1.3672-0.75-2.25-0.75-1.2188 0-2.2109 0.4375-2.9688 1.3125-0.76172 0.875-1.1406 2.2969-1.1406 4.2656 0 2.0742 0.375 3.5547 1.125 4.4375 0.75 0.88672 1.7227 1.3281 2.9219 1.3281 0.88281 0 1.6445-0.28125 2.2812-0.84375 0.63281-0.5625 1.0859-1.4414 1.3594-2.6406zm6.0625-10.422h3.3125v8.9219c0 1.418 0.039062 2.3359 0.125 2.75 0.14453 0.67969 0.48438 1.2188 1.0156 1.625 0.53906 0.40625 1.2734 0.60938 2.2031 0.60938 0.9375 0 1.6445-0.19141 2.125-0.57812 0.47656-0.38281 0.76562-0.85938 0.85938-1.4219 0.10156-0.5625 0.15625-1.4922 0.15625-2.7969v-9.1094h3.3281v8.6562c0 1.9688-0.09375 3.3672-0.28125 4.1875-0.17969 0.8125-0.50781 1.5-0.98438 2.0625-0.48047 0.5625-1.125 1.0117-1.9375 1.3438s-1.8711 0.5-3.1719 0.5c-1.5742 0-2.7656-0.18359-3.5781-0.54688s-1.4531-0.83203-1.9219-1.4062c-0.46875-0.58203-0.77734-1.1914-0.92188-1.8281-0.21875-0.94531-0.32812-2.3438-0.32812-4.1875zm16.578 16.469v-16.469h4.9844l2.9844 11.234 2.9531-11.234h4.9844v16.469h-3.0938v-12.953l-3.2656 12.953h-3.2031l-3.25-12.953v12.953zm19.219-16.469h6.5781c1.3008 0 2.2695 0.058594 2.9062 0.17188 0.64453 0.10547 1.2188 0.32812 1.7188 0.67188 0.50781 0.34375 0.92969 0.80469 1.2656 1.375 0.34375 0.57422 0.51562 1.2188 0.51562 1.9375 0 0.77344-0.21094 1.4805-0.625 2.125-0.41797 0.63672-0.98047 1.1172-1.6875 1.4375 1 0.29297 1.7656 0.79297 2.2969 1.5 0.53906 0.69922 0.8125 1.5273 0.8125 2.4844 0 0.74219-0.17188 1.4648-0.51562 2.1719-0.34375 0.71094-0.82031 1.2773-1.4219 1.7031-0.60547 0.41797-1.3516 0.67969-2.2344 0.78125-0.55469 0.0625-1.8906 0.10156-4.0156 0.10938h-5.5938zm3.3281 2.75v3.7969h2.1719c1.2891 0 2.0977-0.015625 2.4219-0.046875 0.5625-0.070312 1.0039-0.26953 1.3281-0.59375 0.33203-0.32031 0.5-0.75 0.5-1.2812 0-0.50781-0.14062-0.92188-0.42188-1.2344-0.28125-0.32031-0.69922-0.51953-1.25-0.59375-0.33594-0.03125-1.2812-0.046875-2.8438-0.046875zm0 6.5469v4.3906h3.0781c1.1953 0 1.9531-0.03125 2.2656-0.09375 0.5-0.09375 0.90625-0.3125 1.2188-0.65625s0.46875-0.8125 0.46875-1.4062c0-0.48828-0.12109-0.90625-0.35938-1.25-0.24219-0.34375-0.58984-0.59375-1.0469-0.75-0.44922-0.15625-1.4336-0.23438-2.9531-0.23438zm28.109 7.1719h-3.6094l-1.4375-3.7344h-6.5781l-1.3594 3.7344h-3.5312l6.4062-16.469h3.5156zm-6.1094-6.5156-2.2812-6.1094-2.2188 6.1094z" fill-rule="evenodd"/>
</g>
</svg>
