<?xml version="1.0" encoding="UTF-8"?>
<svg width="500pt" height="475pt" version="1.1" viewBox="0 0 500 475" xmlns="http://www.w3.org/2000/svg">
<g id="a">
<rect width="500" height="475" fill="none"/>
<path d="m462.95 189.61 0.26953 0.019532 1.125-0.44531 1.2266 0.074219 1.582-0.015625 0.95703 0.39844 0.98828 0.16406 0.96484 0.30469 1.2617-0.32812 0.97656 0.22266 1.1094 0.074218 1.1016 0.5625 1.0078 0.28125 1.0195 0.30078 1.0312-0.38281 1.0312 0.32812 1.0156 0.60547 1.4219 0.14453 1.1055 1.0039 0.21484 1.1641 0.050782 1 0.88672 0.87109 1.1758 0.67578 1.1328 0.41797 0.75 0.66406 1.0977 0.027344 1.0312 0.45312 1.0156 0.36719 1.0156 0.18359 0.99609 0.48047 0.73438 0.83594 0.87109 0.90234 0.49609 0.92188 1.0234 0.71094 0.61719 0.8125 0.98047 1.1641 0.20312 1.0273-0.042968 1.0117 0.89844 0.76562 1.0352 0.76172 0.375 11.992-17.746 15.102-7.043 6.0625-5.1406 3.7344-8.7734 6.2305-5.9766 4.3047-14.145 11.039-25.938-3.0469-9.5664-0.86328-3.4609-0.16406-4.2188 6.8438-3.3047 5.125-1.1484 5.3906 0.71094 6.207 0.29297 5.5508 2.9844 2.7969 3.4727 2.7266 0.003907 3.4922 0.035156 3.0938 0.32812 6.5195 0.46094 7.2227 0.46484 9.4922 1.0938 2.1484 1.6445 4.2812 2.4453 6.043 0.48438 1.2266 2.5156 3.0352 1.5117 1.8711 4.6602 5.5273-0.34375 4.7148-0.17969 1.7578-0.64062 6.1992-0.50781 1.1875-1.8477 3.6992-0.60156 1.3125-1.2656 2.7734-1.4766 3.0508-2.0469 4.332-2.7461 5.707-7.8828 16.402-2.8711 3.5117-9.4336 11.668-13.859 10.914-8.0273 8.1875-9.8164 10.008-3.0781 1.1992-2.7969 1-5.4219-0.14062-5.0352 0.03125-5.6836-0.09375-4.8906-0.23047-7.1719 4.0859-4.5898 2.3359-6.1719 3.0039-11.594 5.3633-10.898 0.91797-3.2812 0.22266-15.453-2.6992-5.1523-0.79688-6.1445-0.70703-2.5391-0.015625-3.4492 0.26562-3.1562 0.22656-1.1094 0.41797-1.3086 0.42188-2.8633 0.91406-3.0586 1.5547-2.5312 1.6133-1.918 1.6133-3.1406 2.8359-1.5977 2.4531-1-0.085937-0.95703-0.85547-0.89062-1.0078-0.82031-0.67188-0.97266-0.89453-0.84375-0.64844-1.2422-1.1523-1.2148-0.90625-0.85938-0.70312-0.86328-0.55078-1.3477-1.0859-1.457-0.95312-0.93359-0.65625-0.96875-0.78125-0.86328-0.54688-1.5664-1.1328-1.0781-0.74609-0.875-0.63281-1.7617-1.0469-0.80078-0.65234-0.88672-0.57422-1.2266-0.84766-0.85938-0.75781-1.168-0.70312-1.0547-0.66016-1.0547-0.76953-1.0312-0.65234-0.94922-0.70312-0.93359-0.55469-0.88672-0.71875-1.0508-0.66406-0.94922-0.44922-1.2578-0.875-0.94922-0.60156-0.87109-0.59375-1.0156-0.43359-1.2344-0.60938-0.85938-0.67969-0.91797-0.44531-1.0078-0.71094-0.98438-0.57812-1.0234-0.73828-0.84375-0.60156-1.1328-0.55859-1.3125-0.8125-0.99609-0.44531-1.2148-0.9375-1.1406-0.54297-0.88281-0.62891-0.94531-0.48047-1.2539-0.73047-0.90234-0.51172-0.86328-0.50781-0.90234-0.57422-0.92969-0.41406-0.86328-0.56641-1.25-0.74219-1.082-0.48828-0.91016-0.53906-1.8789-1.1289-0.96875-0.64062-1.2656-0.76172-1.1367-0.75-0.94141-0.39453-1.0742-0.44141-1.125-0.80859-0.91797-0.41016-1.5469-0.80859-0.91016-0.56641-1.3203-0.55469-1.0547-0.51172-0.97266-0.58203-0.86328-0.58203-1.1211-0.60156-0.99219-0.50781-1.1172-0.22656-0.74219-0.67188-1.1758-0.64844-1.0039-0.61719-1.4375-0.73438-1.1211-0.4375-1.0781-0.59766-0.87891-0.57422-0.98828-0.42188-0.96875-0.47266-0.875-0.53906-0.82812-0.65234-0.89844-0.77734-0.98828-1.3789-1.0156-0.39062-0.64453-0.78906-0.92188-0.77344-0.61719-0.78906-0.85938-0.90234-0.96484-0.44922-1.1055-0.070313-0.0625-1.0664-0.48438-0.91797-0.75-0.78516-0.67188-0.96875-0.94922-0.64844-1.2266-0.67969-0.76562-0.67969-0.9375-0.40234-0.55469-1.2227 0.55469-1-0.71094-0.91016-1.2109-1.1172-1.0039-0.66016-0.84766-0.74609-1.0039-0.41406-0.73828-0.90625-0.94922-0.39453-1.0547-0.097656 0.40234-0.94922-0.72266-0.93359-0.79688-0.67188-0.66016-0.99609-1.0156-0.17969-0.92188-0.49219-0.87891-0.69141-1-0.49609-0.81641-0.86328-0.96094-0.54688-0.32812-1.0508-0.89062-0.61328-1.043-0.86328-0.98828-0.61719-1.0664-0.52344-1.0273-0.77344-0.98047-0.43359-0.92969-0.59375-1.0117-0.19922-1.293 0.10938-0.68359-0.74219 0.66016-0.78906-0.58203-1.2969-1.0742-0.66797-1.332-0.64453-0.96875-0.64844-1.0469-0.03125-1.0469-0.23047-1.1641-0.32812-0.98438 0.28516-1.1562-0.52734-0.80078-0.76172-1.0078-0.59766-1.0859-0.125-1.0039 0.035156-0.83984-0.58594-0.78906-0.66797-0.89844-0.51172-0.92578-0.42188-1.0117-0.03125-0.59375-0.83594-0.76562-0.74219-1.0312 0.24219-0.8125-0.83984-0.77344-0.64062-0.54688-0.84375-0.84766 0.55078-0.17578-1.1367 0.16016-1.0508 0.67969-0.92578 0.35547-0.9375 0.39453-1.0117-0.53516-0.89062-0.32031-1.0039-0.80859-0.78516-0.19531-0.99219-0.085938-1.0469 0.94141-0.42969 1.0195-0.30078 1.0781-0.40625 1.2148 0.019532 0.85547-0.54688 0.96484-0.60938 1.0117-0.56641 1.0117-0.47656 0.65625-1.1445 0.69922-0.88672 0.57812-0.94141 0.64062-0.78906 0.75-1.4023 0.46484-1.1016-0.085937-1.2383 0.28906-1.2109 0.078125-1.4219 0.97266-0.65234 1.1758-0.98438 0.44922-1.6328 0.39062-1.3633-0.25-1.1016 0.78906-0.81641 1.3672-0.62891 1.0625-0.42969 0.83203-1.3945 0.68359-0.74609 0.015625-1.2539 1.2656-0.39453 1.5234-0.30469 1.2656-0.16406 0.94531-0.625 0.28906-1.332 0.625-1.0039 0.69531-1.2617 0.11719-1.0117 0.87891-0.91016 0.99219-0.77734 0.074218-1.0781 0.76562-1.4648 1.3516-1.6094 1.5664-1.6055 1.2031-1.1719 0.53125-1.0469 0.92578-1.1758 0.94922-0.97656 1.75-1.6484 0.88281-1.6836 0.36328-1.5312 0.96875-0.86719 1.1289-0.77734 0.92188-0.78516 1.2266-1.8711 2.832-2.0781 0.89844-0.82812 0.53516-0.9375 0.44531-1.2695 4.0625-2.5625 5.6758-3.0781-0.082031-1.1406 0.19922-1.1719-0.023438-1.207 0.54297-1.082 0.27344-1.0859 0.42578-1.0586 0.70312-1.043 0.54297-1.1094 0.25391-1.3945 1.2812-1.1133-0.054688-1.6875 0.22266-1.2773 0.64844-1.1875 0.90625-0.90625 1.8164-0.86328 0.96875-0.40234 1.1484-0.66797 1.0938-0.60938 1.0391-0.63281 0.98438-1.1133 0.59375-1.0352 0.71484-1.1133 2.2695-2.0273 2.2969-1.9531 1.0586-0.92578 0.96875-0.73438 1.707-1.2656 1.2891-0.95703 2.7695-2.5078 10.695-10.852 17.297-18.949 0.95312-1.0898 0.65234-1.4414 1.6328-1.8555 1.3828-0.43359 1.5469-0.77344 0.9375-0.49219 1.4453-0.76172 1.6641-0.8125 1.6406-0.60156 1.7383-0.73828 0.9375-0.44141 1.0195-0.30469 1.0078-0.58594 1.2891-0.64453 1.0234-0.46875 1.3594-0.64453 0.66797-0.90234 0.066406-1.1484 1.2109-0.92969 0.75-0.73828 0.75-0.69141 0.52734-1.3242 0.23828-1.457 0.88281-1.4023 0.44141-1.125 1.3516 0.21875 1.1562-0.38672 0.92578-1.1484 1.1172-0.15234 1.6992 0.058594 0.98438-0.26172 1.0195-1.207 0.89062-1.043 0.75391-0.71484 0.85547-1.043 1.1523-0.41406 2.4102-0.82812 1.3047-0.10938 1.0664 0.027344 1.3594 0.36328 1.5469 0.066406 1.5859 0.027344 1.0781-0.21484 1.3125 0.09375 1.0195-0.078125 0.28906 1.1289 0.75781 1.0156 0.41797 0.92188-0.089844 1.1562-0.12109 1.6094 0.15234 1.1094 0.63672 1.0781 0.47656 1.0664 0.46094 1.0117 0.80078 0.72656-0.32031 0.97266 0.33594 1.0625 0.30859 1.0781 0.70703 0.78125 1.3711 1 1.1289 0.84375 1.0586 0.55859 1.0703 0.30859 0.82812 0.80859 0.55859 1.4727 1.0938 0.65625 0.23438 0.98828 0.015625 1.2617 1.3945 1 1.2578 0.042969 1.3164-0.66406 1.25-0.070312 0.52734 0.91016 0.17578 1.0078 0.24219 1.0273 0.41016 1.1641 0.48438 1.1406-0.078125 1.0117 0.53516 1.2109 0.90234 0.57031 0.90234 0.44141 0.59375 0.83594 1.2188 0.41797 1.2461 0.80078 0.72656 0.82422 0.88281 0.92188 1.043 0.31641 1.1562 0.71875 1 0.625 0.93359 0.45703 1.0273 0.44531 1.0391 0.70312 2.9258 0.53906 1.9883-0.41406 1.25-0.32812 1.2852-0.14453 1.3867-0.023438 1.0586 0.16016 1.9727 0.027344 1.8945 0.097656 1.3281 0.015625 1.7578-0.046875 1.0156-0.20312 1.293-0.5 0.98047 0.375 0.97266 0.77344 0.78516 1.0117 0.84375 1.1445 1.1719-0.39844 0.9375-0.38672 1.0234 0.4375 0.10938 1.2305-0.23438 1.0859v1.0352l-0.12891 1.4023v1.1641l0.40625 0.98047-0.45703 1.0898 0.89062 0.94531 0.89453 0.78125 0.6875 0.96484 0.0625 1.4062-0.32422 1.4336-0.19922 1.1133-0.40234 1.1836-0.73828 1.0273-0.49219 1.0898-0.38672 0.98438-0.19531 1.0703 0.17969 1.1211-0.089844 1.0586-0.21875 1.332-0.13281 1.1211 0.30078 1.2383-0.23047 1.5898-0.1875 1.3672-0.53516 0.89453-0.75781 0.99219-0.78516 0.69922-0.76172 0.94922-0.48438 0.9375-0.62891 0.84766-0.75781 0.95312-0.87109 0.99219-0.78125 0.84375-1.0742 0.66797-0.60156 1.1055-0.61719 0.96484-0.4375 0.95312-1.0391 0.6875-0.47266 0.92578 0.085937 1.0273-0.66797 1.0352-0.58594 0.82422-0.20312 1.1367-0.65625 0.94531-1.0352 0.55469-0.53516 1.2344 0.52344 1.1016 0.60938 0.80078 0.22656 1.1055 0.71875 1.1328 1.2305 0.32031 1.0703 0.19922 0.97266 0.39844 1.5312-0.15625 1.3398-0.31641 1.1406-0.32422 1.6914-0.53125 1.4609-0.089844 1.0156 0.23047 1.2422-0.10156 1.6406-0.15625 2.5977-0.12891 1.1484-0.66406 1.2383-0.28125 0.97266-0.71094 1.375-0.10938 0.94922-0.38672 1.1094-0.51562 0.88672-0.65234 0.85938-0.67188 0.63672-1.0391 0.59766-1.0469 0.67578-0.98828 0.44922-0.9375 0.26562-1.1875 0.11719-1.1172 0.32812-1.0312 0.42188-1.2578 0.49609-1.2461 1.3672-0.77344 0.49609-0.92188 0.61719-0.80469 1.1641-0.066406 1.0703-0.20312 1.0508-0.75391 0.39844-0.93359 1.0156-0.48828 0.61328-1.1719 0.67969-0.77734 1-0.78125 1.0742-0.10156 0.25781-1.25 1.082-0.39453 0.64062-1.3945 0.69141-1.332 0.46484-0.95312 0.68359-0.92578-0.17969-1.2148 0.61328-0.94141 0.76953-0.89844 0.53125-0.95703 1.1641-0.1875 1.4258-0.0625 1.0859-0.023437 1.0195-0.34766 0.90625-0.41797 1.0078-0.44531 0.66016-1.0469 0.78516-1.125-0.17188-1.1641 0.68359-0.875 0.96875-0.52344 0.72266-0.875-0.66797-0.90625-0.39453-1.2266-0.45703-1.4062-0.67578-1.1289 1.0352-1.0234 1.3594-0.22656 0.54297-0.97266 1.2773-0.64453 1.0039 0.042969 0.76953-1.0234 0.77344-0.6875 0.72266-1.2188 0.47266-0.95703 0.46875-1.0977 0.70703-0.72266 1.0469-0.13281 1.2695-0.12109 1.1367-0.39453 0.5-1.0469 0.57422-1.1367 0.89062-0.71094 1.3164 0.56641 0.91797 0.83594 0.99219-0.45312 0.23438-1.0938 1-0.32031 0.90625-0.65625 0.71484-1.0039 1.2031-0.22266 0.34766 1.0664 1.2031 0.44922 1.1484 0.88672 0.42969 1.2227 1.1562-0.375 2.1836 0.082031 2.2891-0.50391 1.1797-0.1875 1.7734-0.65234 1.3789-0.28125 1.0625-0.30859 1.1758 0.17188 1.4688-0.21875 1.0547 0.015625 0.99609 0.4375 0.98828-0.17969 0.54688-1.082 0.37891-1.1719 0.054687-1.0508-0.12891-1.4219-0.75781-1.168-0.11328-1.2578 0.62109-0.94922 0.42969-0.92578-0.21484-1.1133 0.25-1.2344 0.83984-1.0039 0.38672-0.98828 1.0508-0.63281 0.82812-0.63281 0.34766-1.1602 0.003906-1.2656 0.68359-0.96094 0.33984-0.97266 0.48047-1.1562 0.96094-0.69141 0.36328-0.94531 0.72656-0.6875 0.51953-1.0195-0.054688-1.0352-0.79688-1.1797 0.14844-1.3477-0.36719-1.0312 1.4062-0.82812 0.77734-1.1211 0.69141-1.3672 0.41797-1.3398 0.64453-1.0547-0.26953-1.0078-0.035156-1.2969 0.47656-0.91406 1.3281-0.35156 1.0195-0.57812 1.0625-0.41797 1.0195-0.066406 0.98828 0.69922 1.0938 0.27344 1.2266 0.046875 1.1211 0.78125 1 0.14453h1.3008l1.0312-0.023438 1.4805-0.72266 1.2969-0.10156 1.332-0.039062 1.1133-0.30469 0.97656-0.36719 1.2148 0.52344 1.3828 0.25391 1.1914 0.046875 1.082 0.023437 1.2891 0.015625 1.6836-0.039062 1.3672 0.25781 1.2539 0.30469 1.1289 0.53516 1.3242-0.33594 1.5703-0.33984 1.207 0.63281 0.90234 0.61719 1.1211 0.75781 0.63281 1.1562 0.87891 0.55078 1.0664 0.53125 1.4766-0.34766 0.96484-0.50781 0.46875-1.3164 1.543-0.39453 1.3906-0.38672 1.0938-0.91797 0.74219-0.78906-0.10938-1.3477-0.89062-0.81641-1.0195-0.89062-0.71094-0.92578 0.33984-0.96094 1.1523-0.62109 0.98047-0.52734 1.1172-1.0469 1.1367-0.54297 1.2422-0.57031 1.2656-0.58984 0.53125-0.90625 0.58203-1.5195 1.1055-1.4766 0.70703-0.78906 0.94531-0.57422 1.043-0.38281 1.0703 0.12109 0.98047 0.34766 1.3789 0.48047 1.1055 0.20312 1.1367 0.32422 1.4961 0.36328 1.082 0.71484 1.3867-0.14453 1.0781-0.35938 0.85547-0.80859 0.28125-1.0898 0.47266-1.0234 0.41797-1.0039 0.72266-0.82031 0.10938-1.2188 0.76172-0.78516 1.5039-0.09375 0.875 0.54688 0.85156 1.1484z" fill="#ccc" fill-rule="evenodd"/>
<path d="m462.95 189.61 0.26953 0.019532 1.125-0.44531 1.2266 0.074219 1.582-0.015625 0.95703 0.39844 0.98828 0.16406 0.96484 0.30469 1.2617-0.32812 0.97656 0.22266 1.1094 0.074218 1.1016 0.5625 1.0078 0.28125 1.0195 0.30078 1.0312-0.38281 1.0312 0.32812 1.0156 0.60547 1.4219 0.14453 1.1055 1.0039 0.21484 1.1641 0.050782 1 0.88672 0.87109 1.1758 0.67578 1.1328 0.41797 0.75 0.66406 1.0977 0.027344 1.0312 0.45312 1.0156 0.36719 1.0156 0.18359 0.99609 0.48047 0.73438 0.83594 0.87109 0.90234 0.49609 0.92188 1.0234 0.71094 0.61719 0.8125 0.98047 1.1641 0.20312 1.0273-0.042968 1.0117 0.89844 0.76562 1.0352 0.76172 0.375 11.992-17.746 15.102-7.043 6.0625-5.1406 3.7344-8.7734 6.2305-5.9766 4.3047-14.145 11.039-25.938-3.0469-9.5664-0.86328-3.4609-0.16406-4.2188 6.8438-3.3047 5.125-1.1484 5.3906 0.71094 6.207 0.29297 5.5508 2.9844 2.7969 3.4727 2.7266 0.003907 3.4922 0.035156 3.0938 0.32812 6.5195 0.46094 7.2227 0.46484 9.4922 1.0938 2.1484 1.6445 4.2812 2.4453 6.043 0.48438 1.2266 2.5156 3.0352 1.5117 1.8711 4.6602 5.5273-0.34375 4.7148-0.17969 1.7578-0.64062 6.1992-0.50781 1.1875-1.8477 3.6992-0.60156 1.3125-1.2656 2.7734-1.4766 3.0508-2.0469 4.332-2.7461 5.707-7.8828 16.402-2.8711 3.5117-9.4336 11.668-13.859 10.914-8.0273 8.1875-9.8164 10.008-3.0781 1.1992-2.7969 1-5.4219-0.14062-5.0352 0.03125-5.6836-0.09375-4.8906-0.23047-7.1719 4.0859-4.5898 2.3359-6.1719 3.0039-11.594 5.3633-10.898 0.91797-3.2812 0.22266-15.453-2.6992-5.1523-0.79688-6.1445-0.70703-2.5391-0.015625-3.4492 0.26562-3.1562 0.22656-1.1094 0.41797-1.3086 0.42188-2.8633 0.91406-3.0586 1.5547-2.5312 1.6133-1.918 1.6133-3.1406 2.8359-1.5977 2.4531-1-0.085937-0.95703-0.85547-0.89062-1.0078-0.82031-0.67188-0.97266-0.89453-0.84375-0.64844-1.2422-1.1523-1.2148-0.90625-0.85938-0.70312-0.86328-0.55078-1.3477-1.0859-1.457-0.95312-0.93359-0.65625-0.96875-0.78125-0.86328-0.54688-1.5664-1.1328-1.0781-0.74609-0.875-0.63281-1.7617-1.0469-0.80078-0.65234-0.88672-0.57422-1.2266-0.84766-0.85938-0.75781-1.168-0.70312-1.0547-0.66016-1.0547-0.76953-1.0312-0.65234-0.94922-0.70312-0.93359-0.55469-0.88672-0.71875-1.0508-0.66406-0.94922-0.44922-1.2578-0.875-0.94922-0.60156-0.87109-0.59375-1.0156-0.43359-1.2344-0.60938-0.85938-0.67969-0.91797-0.44531-1.0078-0.71094-0.98438-0.57812-1.0234-0.73828-0.84375-0.60156-1.1328-0.55859-1.3125-0.8125-0.99609-0.44531-1.2148-0.9375-1.1406-0.54297-0.88281-0.62891-0.94531-0.48047-1.2539-0.73047-0.90234-0.51172-0.86328-0.50781-0.90234-0.57422-0.92969-0.41406-0.86328-0.56641-1.25-0.74219-1.082-0.48828-0.91016-0.53906-1.8789-1.1289-0.96875-0.64062-1.2656-0.76172-1.1367-0.75-0.94141-0.39453-1.0742-0.44141-1.125-0.80859-0.91797-0.41016-1.5469-0.80859-0.91016-0.56641-1.3203-0.55469-1.0547-0.51172-0.97266-0.58203-0.86328-0.58203-1.1211-0.60156-0.99219-0.50781-1.1172-0.22656-0.74219-0.67188-1.1758-0.64844-1.0039-0.61719-1.4375-0.73438-1.1211-0.4375-1.0781-0.59766-0.87891-0.57422-0.98828-0.42188-0.96875-0.47266-0.875-0.53906-0.82812-0.65234-0.89844-0.77734-0.98828-1.3789-1.0156-0.39062-0.64453-0.78906-0.92188-0.77344-0.61719-0.78906-0.85938-0.90234-0.96484-0.44922-1.1055-0.070313-0.0625-1.0664-0.48438-0.91797-0.75-0.78516-0.67188-0.96875-0.94922-0.64844-1.2266-0.67969-0.76562-0.67969-0.9375-0.40234-0.55469-1.2227 0.55469-1-0.71094-0.91016-1.2109-1.1172-1.0039-0.66016-0.84766-0.74609-1.0039-0.41406-0.73828-0.90625-0.94922-0.39453-1.0547-0.097656 0.40234-0.94922-0.72266-0.93359-0.79688-0.67188-0.66016-0.99609-1.0156-0.17969-0.92188-0.49219-0.87891-0.69141-1-0.49609-0.81641-0.86328-0.96094-0.54688-0.32812-1.0508-0.89062-0.61328-1.043-0.86328-0.98828-0.61719-1.0664-0.52344-1.0273-0.77344-0.98047-0.43359-0.92969-0.59375-1.0117-0.19922-1.293 0.10938-0.68359-0.74219 0.66016-0.78906-0.58203-1.2969-1.0742-0.66797-1.332-0.64453-0.96875-0.64844-1.0469-0.03125-1.0469-0.23047-1.1641-0.32812-0.98438 0.28516-1.1562-0.52734-0.80078-0.76172-1.0078-0.59766-1.0859-0.125-1.0039 0.035156-0.83984-0.58594-0.78906-0.66797-0.89844-0.51172-0.92578-0.42188-1.0117-0.03125-0.59375-0.83594-0.76562-0.74219-1.0312 0.24219-0.8125-0.83984-0.77344-0.64062-0.54688-0.84375-0.84766 0.55078-0.17578-1.1367 0.16016-1.0508 0.67969-0.92578 0.35547-0.9375 0.39453-1.0117-0.53516-0.89062-0.32031-1.0039-0.80859-0.78516-0.19531-0.99219-0.085938-1.0469 0.94141-0.42969 1.0195-0.30078 1.0781-0.40625 1.2148 0.019532 0.85547-0.54688 0.96484-0.60938 1.0117-0.56641 1.0117-0.47656 0.65625-1.1445 0.69922-0.88672 0.57812-0.94141 0.64062-0.78906 0.75-1.4023 0.46484-1.1016-0.085937-1.2383 0.28906-1.2109 0.078125-1.4219 0.97266-0.65234 1.1758-0.98438 0.44922-1.6328 0.39062-1.3633-0.25-1.1016 0.78906-0.81641 1.3672-0.62891 1.0625-0.42969 0.83203-1.3945 0.68359-0.74609 0.015625-1.2539 1.2656-0.39453 1.5234-0.30469 1.2656-0.16406 0.94531-0.625 0.28906-1.332 0.625-1.0039 0.69531-1.2617 0.11719-1.0117 0.87891-0.91016 0.99219-0.77734 0.074218-1.0781 0.76562-1.4648 1.3516-1.6094 1.5664-1.6055 1.2031-1.1719 0.53125-1.0469 0.92578-1.1758 0.94922-0.97656 1.75-1.6484 0.88281-1.6836 0.36328-1.5312 0.96875-0.86719 1.1289-0.77734 0.92188-0.78516 1.2266-1.8711 2.832-2.0781 0.89844-0.82812 0.53516-0.9375 0.44531-1.2695 4.0625-2.5625 5.6758-3.0781-0.082031-1.1406 0.19922-1.1719-0.023438-1.207 0.54297-1.082 0.27344-1.0859 0.42578-1.0586 0.70312-1.043 0.54297-1.1094 0.25391-1.3945 1.2812-1.1133-0.054688-1.6875 0.22266-1.2773 0.64844-1.1875 0.90625-0.90625 1.8164-0.86328 0.96875-0.40234 1.1484-0.66797 1.0938-0.60938 1.0391-0.63281 0.98438-1.1133 0.59375-1.0352 0.71484-1.1133 2.2695-2.0273 2.2969-1.9531 1.0586-0.92578 0.96875-0.73438 1.707-1.2656 1.2891-0.95703 2.7695-2.5078 10.695-10.852 17.297-18.949 0.95312-1.0898 0.65234-1.4414 1.6328-1.8555 1.3828-0.43359 1.5469-0.77344 0.9375-0.49219 1.4453-0.76172 1.6641-0.8125 1.6406-0.60156 1.7383-0.73828 0.9375-0.44141 1.0195-0.30469 1.0078-0.58594 1.2891-0.64453 1.0234-0.46875 1.3594-0.64453 0.66797-0.90234 0.066406-1.1484 1.2109-0.92969 0.75-0.73828 0.75-0.69141 0.52734-1.3242 0.23828-1.457 0.88281-1.4023 0.44141-1.125 1.3516 0.21875 1.1562-0.38672 0.92578-1.1484 1.1172-0.15234 1.6992 0.058594 0.98438-0.26172 1.0195-1.207 0.89062-1.043 0.75391-0.71484 0.85547-1.043 1.1523-0.41406 2.4102-0.82812 1.3047-0.10938 1.0664 0.027344 1.3594 0.36328 1.5469 0.066406 1.5859 0.027344 1.0781-0.21484 1.3125 0.09375 1.0195-0.078125 0.28906 1.1289 0.75781 1.0156 0.41797 0.92188-0.089844 1.1562-0.12109 1.6094 0.15234 1.1094 0.63672 1.0781 0.47656 1.0664 0.46094 1.0117 0.80078 0.72656-0.32031 0.97266 0.33594 1.0625 0.30859 1.0781 0.70703 0.78125 1.3711 1 1.1289 0.84375 1.0586 0.55859 1.0703 0.30859 0.82812 0.80859 0.55859 1.4727 1.0938 0.65625 0.23438 0.98828 0.015625 1.2617 1.3945 1 1.2578 0.042969 1.3164-0.66406 1.25-0.070312 0.52734 0.91016 0.17578 1.0078 0.24219 1.0273 0.41016 1.1641 0.48438 1.1406-0.078125 1.0117 0.53516 1.2109 0.90234 0.57031 0.90234 0.44141 0.59375 0.83594 1.2188 0.41797 1.2461 0.80078 0.72656 0.82422 0.88281 0.92188 1.043 0.31641 1.1562 0.71875 1 0.625 0.93359 0.45703 1.0273 0.44531 1.0391 0.70312 2.9258 0.53906 1.9883-0.41406 1.25-0.32812 1.2852-0.14453 1.3867-0.023438 1.0586 0.16016 1.9727 0.027344 1.8945 0.097656 1.3281 0.015625 1.7578-0.046875 1.0156-0.20312 1.293-0.5 0.98047 0.375 0.97266 0.77344 0.78516 1.0117 0.84375 1.1445 1.1719-0.39844 0.9375-0.38672 1.0234 0.4375 0.10938 1.2305-0.23438 1.0859v1.0352l-0.12891 1.4023v1.1641l0.40625 0.98047-0.45703 1.0898 0.89062 0.94531 0.89453 0.78125 0.6875 0.96484 0.0625 1.4062-0.32422 1.4336-0.19922 1.1133-0.40234 1.1836-0.73828 1.0273-0.49219 1.0898-0.38672 0.98438-0.19531 1.0703 0.17969 1.1211-0.089844 1.0586-0.21875 1.332-0.13281 1.1211 0.30078 1.2383-0.23047 1.5898-0.1875 1.3672-0.53516 0.89453-0.75781 0.99219-0.78516 0.69922-0.76172 0.94922-0.48438 0.9375-0.62891 0.84766-0.75781 0.95312-0.87109 0.99219-0.78125 0.84375-1.0742 0.66797-0.60156 1.1055-0.61719 0.96484-0.4375 0.95312-1.0391 0.6875-0.47266 0.92578 0.085937 1.0273-0.66797 1.0352-0.58594 0.82422-0.20312 1.1367-0.65625 0.94531-1.0352 0.55469-0.53516 1.2344 0.52344 1.1016 0.60938 0.80078 0.22656 1.1055 0.71875 1.1328 1.2305 0.32031 1.0703 0.19922 0.97266 0.39844 1.5312-0.15625 1.3398-0.31641 1.1406-0.32422 1.6914-0.53125 1.4609-0.089844 1.0156 0.23047 1.2422-0.10156 1.6406-0.15625 2.5977-0.12891 1.1484-0.66406 1.2383-0.28125 0.97266-0.71094 1.375-0.10938 0.94922-0.38672 1.1094-0.51562 0.88672-0.65234 0.85938-0.67188 0.63672-1.0391 0.59766-1.0469 0.67578-0.98828 0.44922-0.9375 0.26562-1.1875 0.11719-1.1172 0.32812-1.0312 0.42188-1.2578 0.49609-1.2461 1.3672-0.77344 0.49609-0.92188 0.61719-0.80469 1.1641-0.066406 1.0703-0.20312 1.0508-0.75391 0.39844-0.93359 1.0156-0.48828 0.61328-1.1719 0.67969-0.77734 1-0.78125 1.0742-0.10156 0.25781-1.25 1.082-0.39453 0.64062-1.3945 0.69141-1.332 0.46484-0.95312 0.68359-0.92578-0.17969-1.2148 0.61328-0.94141 0.76953-0.89844 0.53125-0.95703 1.1641-0.1875 1.4258-0.0625 1.0859-0.023437 1.0195-0.34766 0.90625-0.41797 1.0078-0.44531 0.66016-1.0469 0.78516-1.125-0.17188-1.1641 0.68359-0.875 0.96875-0.52344 0.72266-0.875-0.66797-0.90625-0.39453-1.2266-0.45703-1.4062-0.67578-1.1289 1.0352-1.0234 1.3594-0.22656 0.54297-0.97266 1.2773-0.64453 1.0039 0.042969 0.76953-1.0234 0.77344-0.6875 0.72266-1.2188 0.47266-0.95703 0.46875-1.0977 0.70703-0.72266 1.0469-0.13281 1.2695-0.12109 1.1367-0.39453 0.5-1.0469 0.57422-1.1367 0.89062-0.71094 1.3164 0.56641 0.91797 0.83594 0.99219-0.45312 0.23438-1.0938 1-0.32031 0.90625-0.65625 0.71484-1.0039 1.2031-0.22266 0.34766 1.0664 1.2031 0.44922 1.1484 0.88672 0.42969 1.2227 1.1562-0.375 2.1836 0.082031 2.2891-0.50391 1.1797-0.1875 1.7734-0.65234 1.3789-0.28125 1.0625-0.30859 1.1758 0.17188 1.4688-0.21875 1.0547 0.015625 0.99609 0.4375 0.98828-0.17969 0.54688-1.082 0.37891-1.1719 0.054687-1.0508-0.12891-1.4219-0.75781-1.168-0.11328-1.2578 0.62109-0.94922 0.42969-0.92578-0.21484-1.1133 0.25-1.2344 0.83984-1.0039 0.38672-0.98828 1.0508-0.63281 0.82812-0.63281 0.34766-1.1602 0.003906-1.2656 0.68359-0.96094 0.33984-0.97266 0.48047-1.1562 0.96094-0.69141 0.36328-0.94531 0.72656-0.6875 0.51953-1.0195-0.054688-1.0352-0.79688-1.1797 0.14844-1.3477-0.36719-1.0312 1.4062-0.82812 0.77734-1.1211 0.69141-1.3672 0.41797-1.3398 0.64453-1.0547-0.26953-1.0078-0.035156-1.2969 0.47656-0.91406 1.3281-0.35156 1.0195-0.57812 1.0625-0.41797 1.0195-0.066406 0.98828 0.69922 1.0938 0.27344 1.2266 0.046875 1.1211 0.78125 1 0.14453h1.3008l1.0312-0.023438 1.4805-0.72266 1.2969-0.10156 1.332-0.039062 1.1133-0.30469 0.97656-0.36719 1.2148 0.52344 1.3828 0.25391 1.1914 0.046875 1.082 0.023437 1.2891 0.015625 1.6836-0.039062 1.3672 0.25781 1.2539 0.30469 1.1289 0.53516 1.3242-0.33594 1.5703-0.33984 1.207 0.63281 0.90234 0.61719 1.1211 0.75781 0.63281 1.1562 0.87891 0.55078 1.0664 0.53125 1.4766-0.34766 0.96484-0.50781 0.46875-1.3164 1.543-0.39453 1.3906-0.38672 1.0938-0.91797 0.74219-0.78906-0.10938-1.3477-0.89062-0.81641-1.0195-0.89062-0.71094-0.92578 0.33984-0.96094 1.1523-0.62109 0.98047-0.52734 1.1172-1.0469 1.1367-0.54297 1.2422-0.57031 1.2656-0.58984 0.53125-0.90625 0.58203-1.5195 1.1055-1.4766 0.70703-0.78906 0.94531-0.57422 1.043-0.38281 1.0703 0.12109 0.98047 0.34766 1.3789 0.48047 1.1055 0.20312 1.1367 0.32422 1.4961 0.36328 1.082 0.71484 1.3867-0.14453 1.0781-0.35938 0.85547-0.80859 0.28125-1.0898 0.47266-1.0234 0.41797-1.0039 0.72266-0.82031 0.10938-1.2188 0.76172-0.78516 1.5039-0.09375 0.875 0.54688 0.85156 1.1484 0.63281 0.58984" fill="none" stroke="#fff" stroke-linecap="round" stroke-linejoin="round" stroke-miterlimit="10" stroke-width="2"/>
<path d="m260.64 3.8945 0.39062 0.57422 1.1641 1.1289 1.0859 0.078125 0.90625 0.60938 0.09375 1.9492 0.16406 1.1914 1.7891 1.3047 1.7969 0.71484 1.9414 0.40234 1.0156 0.31641 1.7539 0.67578 1.8711 0.30859 1.957-0.046875 1.4648-0.35547 1.0781-0.28125 1.1406 1.4375 0.89453 0.67969 0.91406 0.81641 1.5117-0.46875 1.5625-0.14844 0.64844 0.78516-0.16016 1.1367-0.027344 1.3164-0.27344 1.8359-1.2969 0.71094-1.1992 0.74219-1.1367 0.58984-1.0508 0.11719-1.2109-0.25391-1.0117 0.085937-1.5625 0.32812-1.5391 0.74609-1.1328 1.25-0.58984 1.3633-0.13281 1.1992-1.1211 0.46875-1.1289-0.13281-1.1484-0.46875-1.1133-0.16016-0.89844 0.53906-0.76172 0.99219-0.51172 1.6289-0.45312 1.3984-0.875 1.8359-0.41797 2.3789-0.28125 1.4648-0.55859 1.4688-0.54297 1.4531-0.92578 0.84375 0.17578 1.2539 0.17188 1.6055-0.19141 1.625-0.22656 1.0312 0.55078 1.4609 0.96875 1.3203 0.125 1.4688-0.16016 1.5742 0.5625 1.3984 0.78516 1.3789 0.78516 0.92578 1.5742 0.875 2.2031 0.91016 1.3281 0.29688 1.4844-0.25781 0.22656-1.5078 0.85938-1.3984 1.0312-0.73438 1.2031-0.54297 2.2227-0.24609 1.6602 0.089843 1.3984-0.29688 1.1172-0.59375 2.0469-1.6289 1.3086-1.0312 0.68359-1.3281-0.33203-1.168 0.67969-1.2773 0.45703-1.3477 0.78125-0.8125 0.82422 1.0586 1.0859 0.31641 1.1328 0.3125 1.1484 0.16406 0.96875 0.27344 1.1523 0.47266 1.2422 0.27734 0.19141 1.0859-0.89062 1.4844-0.12109 1.293 0.98047 1.0469 0.53516 0.99219 0.97266 0.72656 1.4609-0.22656 1.332 0.58203 1.2422 1 1.0078 1.3906 0.28125 1.1133 0.99609 0.30469 0.84375 0.62109-0.11328 1.3008 0.015625 1.2422 0.60156 1.1875 1.1797 0.66797 1.1133 0.35547 1.0117 0.32031 0.95703 0.74219 1 0.76953 1.1016 0.91016-0.3125 1.1758-0.62109 0.87891 0.47266 1.3047 0.19922 0.99609-0.59375 1.1133 0.20312 1.1211 1.1562 0.79297 1.4648 1.7617 1.9102 1.6445 0.60938 0.9375 0.57031 0.82422 0.79688 0.97656 0.64062 0.87891-0.17188 1.1719-0.19141 1.0312-0.29688 1.0117-0.28125 1.1016 0.875 1.6445-0.035156 1.5547 0.29688 1.418 0.14062 1.0312 0.26172 1.0625 0.19141 1.1914 0.4375 1.0469-0.19141 1.1211-0.98047 0.99609-0.99609 0.50391-1.1172 0.82422-0.94531 1.3281-0.62891 1.4492-0.14062 1.0508 0.019531 1.4492-0.28125 1.1172-0.50781 0.875-0.4375 1.293-0.94141 0.96094-0.64844 1.1367 0.79688 1.4336-0.875 1.6914-0.45703 1.5 0.12891 1.1953 0.09375 2.8867-0.15234 1.2031-0.54688 1.4336 0.87109 1.418 0.19531 1.1523 0.050781 1.8164 0.15625 1.2969-0.32422 1.3203 0.47266 0.91016 0.97656 0.71094 1.1562 0.54688-0.22266 1.0586-1.0508-0.066406-1.3438 0.074219-1.0898 0.34766-0.57031 2.2148 0.19531 1.6328 0.70312 1.3359-0.68359 1.2031-0.61328 1.1094-1.543 1.418-0.89844 1.2734-0.91797 0.82031 0.082031 1.0352 0.94531 0.38281 0.93359 0.78906 0.20703 3.1289 0.46094 1.2109 0.30859 1.1406 0.16797 0.99609 0.007812 1.4258 0.78516 0.98047 0.46094 0.91016 0.46875 1.0859 0.71875 1.6758 0.75 1.4883-0.3125 1.293-0.54297 1.0664-0.80469 1.1172-0.45312 0.94531-1.2656 0.73438-1.125 0.51562-0.64062 1.1328-1.6758 1.0352-1.5195 0.81641-1.7031 0.078125-1.1445-0.94141-0.99609-0.26172-1.457-0.10156-1.0078-0.125-1.2109 0.58203-0.23828 1.2031-1.4219-0.21484-1.2617 0.55859-1.4336-0.58984-0.92969-0.69922-1.1797-0.34375-0.89062 0.57422-1.2773 0.28906-1.0352-0.20703-0.88281 0.95312-1.6719 0.35547-1.3164 0.52344-1.0977 0.14844-0.44922 0.92578-0.92578 0.38672-0.94141 0.37891-1.0664 0.65234-0.99609 0.31641-0.625 1.0156-1.0273 0.87109-0.75391 1.125-0.32812 1.3945-0.875 0.71094-0.60156 1.4805-1.125 0.41406-1.1523-0.24219-0.94141 0.33594-2 0.24609-1.1523 0.46484-0.69922 0.72656-1.0352 0.95703-0.81641 0.76562-1.0234 0.55078-0.039062 1.2734-0.94922 0.60156-0.75 0.97266-0.035156 1.1016-0.30078 1.4102-1.1094 0.44922-1.2461 0.015625-1.2539 0.54688-0.92188 0.50781-1.0508 1.0742 0.75391 0.83203 1.0039 0.70703 0.46094 0.99609-0.48438 0.96484-1.0898 0.53516-1.2031-0.23047-1.1133 0.035157-1.1094 0.14453-0.4375 1.082-0.30078 0.96094-0.98828 0.6875-1.1055 1.0742-1.293 0.33203-0.69141 0.80469-0.67188 0.87891-1.1016 1.0312-1.6758 0.59766-0.87891 0.84375-0.27344 0.98438-0.48828 1.6406-1.3281 0.82422-1.3477 0.91406-0.8125 0.76953-0.91016 0.65625-1.5703 1.0039 0.53906-0.97266-0.58984-0.94141-0.74219-0.75391-0.78125-0.625-1.0078-0.41797-0.87891-0.66797-1.0117-0.41406-0.83594-0.58203-0.92578-0.49609-0.81641-0.78516-1.2188-0.53906-1.2461-0.53516-0.87891-0.88672-1.082-0.50781-1.1836-0.89453-1.043-0.0625-1.1406-0.64453-0.71875-0.69531-0.84375-0.6875-0.12891-1.1992-0.59766-1.5078-0.35547-1.8125-0.34766-1.0156 0.41797-1.0977 0.94141-0.97266 1.2422-0.52344 0.65234-1.0312 0.875-0.75 1.3398-0.40234 2.2773-0.30078 1.5273-1.0078 1.4688-0.9375 0.89453-0.70312 0.94922-0.39844-3.2656-1.8867-10.918-5.9609-0.89453-0.48438-1.0859-0.65234-4.6055-2.4727-1.2734-0.41016-1.0742 0.054687-1.6484-2.0859-0.62891-1.0586-1.0586-0.97656-0.20312-1.2148-0.49219-1.5859 0.49219-1.6523-0.46875-1.6211-1.8984-1.7734-2.0078-1.8164-1.2148-1.0352-1.1641-1.1328-2.0078-1.6641-1.1172-1.0898-0.95312-0.73828-2.9922-2.7383-0.85938-0.89844-3.3125-3.0078-17.754-15.898 1.0156 0.14844 1.2734 0.085938 1.1875 0.34375 1.0352 0.45312 0.95703-0.32422 0.57422-1.0352 0.40625-1.1055 0.26172-1.0547 1.1914-0.61719 1.0391-1.0469 0.94531-1.0234 0.72266-0.83203 1.2969-0.62109 1.4336-1.0703 1.4883-2.3359 0.74609-1.6484 0.42578-1.0391 0.28125-1.5508 0.32031-1.0195 0.83594-0.89453 1.0898-1.1914 0.88672-1.2422 0.5625-1.375 0.51562-1.3594 0.53516-1.1055 0.75781-0.67578 0.625-0.88672 0.67969-0.97266 0.32031-1.4805-0.25-1.0273 0.64844-1.2539 0.23438-1.6328 0.69531-1.1406 1.4805-0.49219 1.0586-0.55859 1.8203 0.074218 1.2031 0.37109 1.1406 0.10547 0.57422-1.0273 1.3906-0.44531 0.99609 0.17188 1.2695 0.19141 1.0117-0.52344 0.25781-1.043 0.12891-1.5859 0.60547-0.94531 0.011719-1.0195 0.20703-1.457 0.29688-0.98047 0.58984-0.89062 0.83984-0.78516-0.53516-1.0312-0.76172-0.90625-0.4375-1.3789-0.63672-1.4531-0.16406-1.3398-0.47266-1.6328-0.97656-0.58984-0.0625-1.1758-0.5-1.0508-1.375-0.53516-0.89062-1.1953-0.15234-1.1172 0.007813-1.0742 0.55859-1.0664 0.55078-1.5391 0.96875-1.0391 1.2109-1.4883 0.60938-1.1367 0.10156-1.1797 1.0859-1.4023 0.37109-1.9805 0.46484-0.90234-0.38672-0.98047-0.94531-0.43359-2.0898-1.4961-2.207-1.8047-0.79297-0.83203 0.29688-1.4961 0.80859-1.2852 0.65234-0.87891 1.207-0.32422 0.40625-1.125-0.80469-1.3906 0.39453-1.7695 0.66016-0.92969 0.49609-2.5156-0.30859-1.0625 0.33984-1.1562 0.92188-0.59375 1.707-1.1602-0.125-1.5273-0.72266-0.69922-1.1055-0.84766 0.011719-1.6875 0.0625-1.5273-0.5625-1.1328-0.23047-1.918 1.3281-1.3008 0.8125-0.91797 0.28906-1.1016 0.027344-1.2695 0.34766-1.2773 1.293-0.78906 1.3828 0.097656 1.6328-1.2148 1.8828-1.4258 1.0234-0.050781 0.92188-0.42188 1.4648 0.23438 1.4336-1.3984 0.86328-1.1484 0.59766-0.85547 1.1875-0.15234 1.6406-0.26172 1.4883-0.45703 1.3008-0.98047 0.65625-0.92188-0.019531-1.1562 0.64453-1.2539 1.1289-0.96875 1.2031 0.27344 1.1992-0.42578 1.0078-0.1875 0.60938-1.3086 0.96484-0.71484 1.0781-0.27344 1.0508 0.57031 1.2031 0.0625 0.94531-0.82812 0.89844-0.46484 1.1719-0.625 2.043-0.33984 1.2812-0.26953 1.6914-1.1953 0.042968-1.1016 1.9609-0.59766 1.1016-0.074219 0.87891 0.82031 1.8125 0.69141 1.543 0.60156 1.0508 0.10156 1.1719-0.49609 1.6172-0.51562 0.91016-0.65625 1.4258-0.75 0.875-0.53906 1.5352 0.37109-0.15625 1.1875z" fill="#ccc" fill-rule="evenodd"/>
<path d="m260.64 3.8945 0.39062 0.57422 1.1641 1.1289 1.0859 0.078125 0.90625 0.60938 0.09375 1.9492 0.16406 1.1914 1.7891 1.3047 1.7969 0.71484 1.9414 0.40234 1.0156 0.31641 1.7539 0.67578 1.8711 0.30859 1.957-0.046875 1.4648-0.35547 1.0781-0.28125 1.1406 1.4375 0.89453 0.67969 0.91406 0.81641 1.5117-0.46875 1.5625-0.14844 0.64844 0.78516-0.16016 1.1367-0.027344 1.3164-0.27344 1.8359-1.2969 0.71094-1.1992 0.74219-1.1367 0.58984-1.0508 0.11719-1.2109-0.25391-1.0117 0.085937-1.5625 0.32812-1.5391 0.74609-1.1328 1.25-0.58984 1.3633-0.13281 1.1992-1.1211 0.46875-1.1289-0.13281-1.1484-0.46875-1.1133-0.16016-0.89844 0.53906-0.76172 0.99219-0.51172 1.6289-0.45312 1.3984-0.875 1.8359-0.41797 2.3789-0.28125 1.4648-0.55859 1.4688-0.54297 1.4531-0.92578 0.84375 0.17578 1.2539 0.17188 1.6055-0.19141 1.625-0.22656 1.0312 0.55078 1.4609 0.96875 1.3203 0.125 1.4688-0.16016 1.5742 0.5625 1.3984 0.78516 1.3789 0.78516 0.92578 1.5742 0.875 2.2031 0.91016 1.3281 0.29688 1.4844-0.25781 0.22656-1.5078 0.85938-1.3984 1.0312-0.73438 1.2031-0.54297 2.2227-0.24609 1.6602 0.089843 1.3984-0.29688 1.1172-0.59375 2.0469-1.6289 1.3086-1.0312 0.68359-1.3281-0.33203-1.168 0.67969-1.2773 0.45703-1.3477 0.78125-0.8125 0.82422 1.0586 1.0859 0.31641 1.1328 0.3125 1.1484 0.16406 0.96875 0.27344 1.1523 0.47266 1.2422 0.27734 0.19141 1.0859-0.89062 1.4844-0.12109 1.293 0.98047 1.0469 0.53516 0.99219 0.97266 0.72656 1.4609-0.22656 1.332 0.58203 1.2422 1 1.0078 1.3906 0.28125 1.1133 0.99609 0.30469 0.84375 0.62109-0.11328 1.3008 0.015625 1.2422 0.60156 1.1875 1.1797 0.66797 1.1133 0.35547 1.0117 0.32031 0.95703 0.74219 1 0.76953 1.1016 0.91016-0.3125 1.1758-0.62109 0.87891 0.47266 1.3047 0.19922 0.99609-0.59375 1.1133 0.20312 1.1211 1.1562 0.79297 1.4648 1.7617 1.9102 1.6445 0.60938 0.9375 0.57031 0.82422 0.79688 0.97656 0.64062 0.87891-0.17188 1.1719-0.19141 1.0312-0.29688 1.0117-0.28125 1.1016 0.875 1.6445-0.035156 1.5547 0.29688 1.418 0.14062 1.0312 0.26172 1.0625 0.19141 1.1914 0.4375 1.0469-0.19141 1.1211-0.98047 0.99609-0.99609 0.50391-1.1172 0.82422-0.94531 1.3281-0.62891 1.4492-0.14062 1.0508 0.019531 1.4492-0.28125 1.1172-0.50781 0.875-0.4375 1.293-0.94141 0.96094-0.64844 1.1367 0.79688 1.4336-0.875 1.6914-0.45703 1.5 0.12891 1.1953 0.09375 2.8867-0.15234 1.2031-0.54688 1.4336 0.87109 1.418 0.19531 1.1523 0.050781 1.8164 0.15625 1.2969-0.32422 1.3203 0.47266 0.91016 0.97656 0.71094 1.1562 0.54688-0.22266 1.0586-1.0508-0.066406-1.3438 0.074219-1.0898 0.34766-0.57031 2.2148 0.19531 1.6328 0.70312 1.3359-0.68359 1.2031-0.61328 1.1094-1.543 1.418-0.89844 1.2734-0.91797 0.82031 0.082031 1.0352 0.94531 0.38281 0.93359 0.78906 0.20703 3.1289 0.46094 1.2109 0.30859 1.1406 0.16797 0.99609 0.007812 1.4258 0.78516 0.98047 0.46094 0.91016 0.46875 1.0859 0.71875 1.6758 0.75 1.4883-0.3125 1.293-0.54297 1.0664-0.80469 1.1172-0.45312 0.94531-1.2656 0.73438-1.125 0.51562-0.64062 1.1328-1.6758 1.0352-1.5195 0.81641-1.7031 0.078125-1.1445-0.94141-0.99609-0.26172-1.457-0.10156-1.0078-0.125-1.2109 0.58203-0.23828 1.2031-1.4219-0.21484-1.2617 0.55859-1.4336-0.58984-0.92969-0.69922-1.1797-0.34375-0.89062 0.57422-1.2773 0.28906-1.0352-0.20703-0.88281 0.95312-1.6719 0.35547-1.3164 0.52344-1.0977 0.14844-0.44922 0.92578-0.92578 0.38672-0.94141 0.37891-1.0664 0.65234-0.99609 0.31641-0.625 1.0156-1.0273 0.87109-0.75391 1.125-0.32812 1.3945-0.875 0.71094-0.60156 1.4805-1.125 0.41406-1.1523-0.24219-0.94141 0.33594-2 0.24609-1.1523 0.46484-0.69922 0.72656-1.0352 0.95703-0.81641 0.76562-1.0234 0.55078-0.039062 1.2734-0.94922 0.60156-0.75 0.97266-0.035156 1.1016-0.30078 1.4102-1.1094 0.44922-1.2461 0.015625-1.2539 0.54688-0.92188 0.50781-1.0508 1.0742 0.75391 0.83203 1.0039 0.70703 0.46094 0.99609-0.48438 0.96484-1.0898 0.53516-1.2031-0.23047-1.1133 0.035157-1.1094 0.14453-0.4375 1.082-0.30078 0.96094-0.98828 0.6875-1.1055 1.0742-1.293 0.33203-0.69141 0.80469-0.67188 0.87891-1.1016 1.0312-1.6758 0.59766-0.87891 0.84375-0.27344 0.98438-0.48828 1.6406-1.3281 0.82422-1.3477 0.91406-0.8125 0.76953-0.91016 0.65625-1.5703 1.0039 0.53906-0.97266-0.58984-0.94141-0.74219-0.75391-0.78125-0.625-1.0078-0.41797-0.87891-0.66797-1.0117-0.41406-0.83594-0.58203-0.92578-0.49609-0.81641-0.78516-1.2188-0.53906-1.2461-0.53516-0.87891-0.88672-1.082-0.50781-1.1836-0.89453-1.043-0.0625-1.1406-0.64453-0.71875-0.69531-0.84375-0.6875-0.12891-1.1992-0.59766-1.5078-0.35547-1.8125-0.34766-1.0156 0.41797-1.0977 0.94141-0.97266 1.2422-0.52344 0.65234-1.0312 0.875-0.75 1.3398-0.40234 2.2773-0.30078 1.5273-1.0078 1.4688-0.9375 0.89453-0.70312 0.94922-0.39844-3.2656-1.8867-10.918-5.9609-0.89453-0.48438-1.0859-0.65234-4.6055-2.4727-1.2734-0.41016-1.0742 0.054687-1.6484-2.0859-0.62891-1.0586-1.0586-0.97656-0.20312-1.2148-0.49219-1.5859 0.49219-1.6523-0.46875-1.6211-1.8984-1.7734-2.0078-1.8164-1.2148-1.0352-1.1641-1.1328-2.0078-1.6641-1.1172-1.0898-0.95312-0.73828-2.9922-2.7383-0.85938-0.89844-3.3125-3.0078-17.754-15.898 1.0156 0.14844 1.2734 0.085938 1.1875 0.34375 1.0352 0.45312 0.95703-0.32422 0.57422-1.0352 0.40625-1.1055 0.26172-1.0547 1.1914-0.61719 1.0391-1.0469 0.94531-1.0234 0.72266-0.83203 1.2969-0.62109 1.4336-1.0703 1.4883-2.3359 0.74609-1.6484 0.42578-1.0391 0.28125-1.5508 0.32031-1.0195 0.83594-0.89453 1.0898-1.1914 0.88672-1.2422 0.5625-1.375 0.51562-1.3594 0.53516-1.1055 0.75781-0.67578 0.625-0.88672 0.67969-0.97266 0.32031-1.4805-0.25-1.0273 0.64844-1.2539 0.23438-1.6328 0.69531-1.1406 1.4805-0.49219 1.0586-0.55859 1.8203 0.074218 1.2031 0.37109 1.1406 0.10547 0.57422-1.0273 1.3906-0.44531 0.99609 0.17188 1.2695 0.19141 1.0117-0.52344 0.25781-1.043 0.12891-1.5859 0.60547-0.94531 0.011719-1.0195 0.20703-1.457 0.29688-0.98047 0.58984-0.89062 0.83984-0.78516-0.53516-1.0312-0.76172-0.90625-0.4375-1.3789-0.63672-1.4531-0.16406-1.3398-0.47266-1.6328-0.97656-0.58984-0.0625-1.1758-0.5-1.0508-1.375-0.53516-0.89062-1.1953-0.15234-1.1172 0.007813-1.0742 0.55859-1.0664 0.55078-1.5391 0.96875-1.0391 1.2109-1.4883 0.60938-1.1367 0.10156-1.1797 1.0859-1.4023 0.37109-1.9805 0.46484-0.90234-0.38672-0.98047-0.94531-0.43359-2.0898-1.4961-2.207-1.8047-0.79297-0.83203 0.29688-1.4961 0.80859-1.2852 0.65234-0.87891 1.207-0.32422 0.40625-1.125-0.80469-1.3906 0.39453-1.7695 0.66016-0.92969 0.49609-2.5156-0.30859-1.0625 0.33984-1.1562 0.92188-0.59375 1.707-1.1602-0.125-1.5273-0.72266-0.69922-1.1055-0.84766 0.011719-1.6875 0.0625-1.5273-0.5625-1.1328-0.23047-1.918 1.3281-1.3008 0.8125-0.91797 0.28906-1.1016 0.027344-1.2695 0.34766-1.2773 1.293-0.78906 1.3828 0.097656 1.6328-1.2148 1.8828-1.4258 1.0234-0.050781 0.92188-0.42188 1.4648 0.23438 1.4336-1.3984 0.86328-1.1484 0.59766-0.85547 1.1875-0.15234 1.6406-0.26172 1.4883-0.45703 1.3008-0.98047 0.65625-0.92188-0.019531-1.1562 0.64453-1.2539 1.1289-0.96875 1.2031 0.27344 1.1992-0.42578 1.0078-0.1875 0.60938-1.3086 0.96484-0.71484 1.0781-0.27344 1.0508 0.57031 1.2031 0.0625 0.94531-0.82812 0.89844-0.46484 1.1719-0.625 2.043-0.33984 1.2812-0.26953 1.6914-1.1953 0.042968-1.1016 1.9609-0.59766 1.1016-0.074219 0.87891 0.82031 1.8125 0.69141 1.543 0.60156 1.0508 0.10156 1.1719-0.49609 1.6172-0.51562 0.91016-0.65625 1.4258-0.75 0.875-0.53906 1.5352 0.37109-0.15625 1.1875-0.26172 1.125" fill="none" stroke="#fff" stroke-linecap="round" stroke-linejoin="round" stroke-miterlimit="10" stroke-width="2"/>
<path d="m169.19 127.61 17.754 15.898 3.3125 3.0078 0.85938 0.89844 2.9922 2.7383 0.95312 0.73828 1.1172 1.0898 2.0078 1.6641 1.1641 1.1328 1.2148 1.0352 1.4648 1.418 2.4414 2.1719 0.48828 1.2383-0.30469 1.2773-0.070313 1.625 0.27734 1.4844 0.76172 0.69141 0.8125 0.97266 1.875 2.2656 0.71484 0.87109 1.1133-0.26562 5.293 2.8633 1.0859 0.65234 0.89453 0.48438 10.918 5.9609 3.1094 1.7461-1.2656 1.0078-1.3086 0.87891-1.3906 0.99219-2.2852 0.40625-1.5586 0.27344-1.3672 1.082-0.65234 1.0312-1.2422 0.52344-0.94141 0.97266-0.41797 1.0977 0.34766 1.0156 0.054687 1.043 0.80469 1.5977 0.011719 1.4883 0.76172 1.0469 0.95703 0.57422 1.0078 0.72266 1.1406 0.14844 1.0586 0.80469 1.0391 0.5 0.93359 0.79688 0.96094 0.51562 1.1992 0.40625 0.71094 0.71094 0.84375 0.53906 0.98828 0.46094 0.97266 0.71094 1.0078 0.35938 1.0312 0.82812 1.2109 0.70703 0.74219 0.75391 0.58984 0.94141-0.53906 0.97266-1.0469 0.078125-1.3125-0.09375-1.0156 0.19922-1.168 0.12109-1.4883-0.24609-1.2891-0.12891-1.6758-0.21484-1.3047 0.10938-1.5352 0.375-1.3359 0.54688-1.1953 0.74219-1.1055 1.3359-0.89062 1.043-0.63281 0.9375-1.3711 0.53125-1.3086-0.054688-1.0859 0.03125-1.3477 1.2656-1.1562 0.38672-1.3516-0.21875-0.44141 1.125-0.625 0.99219-0.42188 1.1133-0.097656 1.3164-1.2539 1.4531-0.75 0.73828-0.96094 0.57422-0.31641 1.5039-0.66797 0.90234-1.3594 0.64453-1.0234 0.46875-1.0781 0.29297-1.2188 0.9375-1.0195 0.30469-0.9375 0.44141-1.7383 0.73828-1.6406 0.60156-1.6641 0.8125-1.4453 0.76172-0.9375 0.49219-1.1133 0.44531-1.8164 0.76172-1.5312 1.0781-0.25391 1.3672-0.94531 1.2617-17.805 19.629-10.695 10.852-2.7695 2.5078-1.2891 0.95703-1.2656 0.87891-1.4102 1.1211-1.0586 0.92578-2.2969 1.9531-2.2695 2.0273-0.71484 1.1133-0.59375 1.0352-0.98438 1.1133-1.0391 0.63281-1.0938 0.60938-1.1484 0.66797-0.96875 0.40234-1.2891 0.53906-0.80469 0.60156-1.2773 1.8164-0.22266 1.2773 0.22266 1.1719-0.92969 1.0352-0.5625 1.5078-0.50781 1.2031-0.60156 0.83203-0.47656 1.0039-0.5 1.2344-0.44141 0.99609-0.25 0.97266 0.042969 1.1484-0.089844 1.1797-5.6445 3.8867-3.8438 2.0859-0.66406 1.7461-0.53516 0.9375-0.89844 0.82812-2.3477 1.6406-1.7109 2.3086-0.92188 0.78516-1.1289 0.77734-0.76172 0.66797-0.57031 1.7305-0.44141 0.9375-2.1914 2.3945-0.94922 0.97656-0.92578 1.1758-0.53125 1.0469-1.2031 1.1719-1.5664 1.6055-0.91016 0.96094-0.90234 1.457-0.30859 1.4453-0.625 0.84766-1.0117 0.53906-0.35156 1.1133-0.44141 1.25-0.48828 1.0469-0.75 1.7891-0.94531 0.625-1.2656 0.16406-1.5234 0.30469-1.043 0.21094-0.1875 1.0859-0.73438 1.0977-0.60547 1.043-1.0273 0.71484-0.98828 0.36328-1.3633 0.94141 0.18359 1.3086-0.39062 1.3633-0.28125 1.2266-0.57031 0.82422-1.2773 0.71484-0.55469 0.93359-0.1875 1.5117 0.074218 1.2734-0.37891 0.92578-0.60938 1.8398-0.71094 0.73828-0.55859 0.94922-0.71484 1.0391-0.52734 0.89453-0.67188 0.95312-1.1914 0.29688-1.0039 0.75781-0.84766 0.76562-1.0195-0.042969-1.1602 0.10938-1.0625 0.49609-1.0508 0.48047-0.44141-1.0273-0.23438-1.0898-0.9375-0.40234-0.40234-0.9375-1.0312-0.21484-0.51562-0.91016-0.75391-0.73047-0.91016-0.54297-0.95703-0.67188-0.98828-0.47656 0.29297-0.99609 0.42578-1.1445 0.070312-1.2422-0.78906-0.75781-0.92969-0.53906-1.0391 0.39062-1.0586-0.09375-0.76172-0.78125 0.007813-1.1719-0.078125-1.3984-0.95703-0.41797-1.1523 0.33594-0.76953 0.79688-0.71875-0.88672-0.47266-1.3672-0.34375-1.0156-0.63281-1.0664-1.1016-0.65234-1.2266-0.42969-1.3633-0.33203-1.0312 0.32031-1.1602-0.83203-0.76562-0.87109-0.92969-0.80859-1.0273-0.79688-0.98828-0.71875-0.94531-0.60547-1.0273-0.66406-0.93359-0.57812-1-0.42969-1.3516-0.81641-1.0938-0.58984-0.87891-0.58203-0.9375-0.64062-0.94141-0.51953-0.85547-0.57422-1.0938-0.25781-1.1836 0.4375-0.94531 0.51172-0.91016 0.63672-1.1055-0.15234-0.73438 0.73047-1.1016-0.21094-0.99219-0.44922-1.0273-0.54688-1.0156-0.28516-0.83594 0.69922-0.97266-0.36328-1.2344 0.14453-0.96484-0.46484-0.67188-0.78906-0.53125-0.89062-0.97266 0.40234-1.0352 0.070312-0.92188-0.58984-1.0234 0.09375-0.98438-0.21094-1.1797-0.27344-0.98828-0.27734-1.0391-0.11719-1.2734-0.26953-0.96484-0.29688-1.0078-0.23047-0.011719-1.1836-0.52344-1.1406-0.19531-1-0.90625-0.64844-0.57031-0.93359-0.14844-0.99219-0.042969-1.1484-0.89844-0.66406-1.1133-0.80469-1.082-0.76953-0.87109-0.50781-0.94922-0.70312-0.96484-0.47266-1.1914-0.60938-0.82422-0.74219-0.94141-0.64844-1.0352-0.67188 0.40234-0.93359 0.94922-0.46875 0.91406-0.61719 0.95703-0.51953 0.52734-1.3203 0.65234-0.82031 0.53906-0.89062-0.070313-1.2305 0.27734-1.0273-0.078125-1.1016v-1.0117l0.19922-1.5781 0.72266-0.93359 0.51953-0.96875 0.49219-1 1.207-1.3633 0.25-1.1953 1.0625-1.3594 0.54688-1.0898 0.49609-1.0977 0.042968-1.0625-0.18359-1.3711 0.26172-1.0117 1.3828-1.8594 0.97656-0.66016 1.3672 0.011719 1.6406 0.81641 0.5625-1.2812-0.042969-1.3164-0.32422-1.2344-0.25391-1.0625 0.64844-0.875 0.91797-0.44141 1.6797-0.43359 2.1641 0.66406 0.88281 0.50781 1.5977 0.11719 1.2656-1.5039 0.75391-0.83594 1.5078-0.64062 1.8672 0.20703 1.2109 0.26172 1.5938-0.98828 1.0547-0.73438 1.6641 1.1992 0.92188 0.45703 0.70703-0.73438 0.61328-1.1367 1.0977-0.91797 0.66797-1.3594 0.82422-0.875 0.16406-1.8008 1.6367-1.5195 1.8242-0.70312 1.4609 0.40234 0.64844 0.76953 1.5156 0.30469 0.95703-0.45312 1.1484-0.37891 1.3594-0.51562 0.91797-0.78125 1.0586-0.25781h1.0625l1.1797 0.054687 0.93359 0.45703 1.0586 0.58594 1.125 0.46875 1.125 0.63281 0.90234 0.55859 1.4922 0.52344 1.4258 0.27344 2.1953-0.019531 1.1758 0.03125 1.2812-0.19141 0.23047-0.98438 0.30469-1.0117 0.13281-1.207 0.14844-1.1953 0.1875-1.0508-0.25-1.0352 0.71094-1.1328-0.15625-1.1172-0.44141-1.0117 0.16016-1.0898 0.37109-1.1484 0.79688-1.1055 0.30469-2.0703-0.058594-1.5898-0.015625-1.6523 0.33984-1.4922 0.69922-0.99609 0.73047-0.92188 0.58594-1.0312 0.16406-1.1133-0.12891-1.1914 0.56641-1.1289 0.14062-1.0312 0.38281-1.125 0.85547-0.98828 0.67188-0.87109 0.74609-0.70703 0.32422-1.4023-0.007813-1.2695 0.48047-0.98047 0.38672-1.3086-0.39844-1.5625 0.53125-1.3086 0.625-0.80469 1.2656-0.51562 1.082-0.72266 0.73828-0.73047 0.68359-0.86719 0.48828-1.1523 0.65234-1.043 0.99219-0.58203 0.60156-0.80078 0.85156-0.86328 1.043-0.19531 0.74609-0.79688 1-0.45703 0.64453-0.85938 0.67188-0.83594 0.89062-0.61719 0.48828-1.3633 0.91797-1.2461 0.73438-1.0078 0.58594-1.0391 0.73828-0.81641 0.78906-1.0273 0.71484-0.69922 0.98047-0.625 0.80859-0.77734 1.2344-0.6875 0.875-1.0234 0.78125-0.82422 0.40625-0.92969 0.5625-0.96875 1.043-0.72656 0.89062-0.72266 0.81641-0.79688 0.33203-0.98047 0.77344-0.72656 0.97656-0.54688 0.89062-0.98438 0.39062-0.98438 0.66406-0.77344 1.4648-0.32031 1.1797-0.23828 0.67188-0.79688 0.66797-0.87891 1.2305-0.6875 1.6289-0.36719 0.71875-1.3242 0.41406-1.6445 0.082031-1.1016 0.82812-1.5039 0.94531-1.0195 0.89844-0.49609 0.80859-0.72656 0.70703-0.94531 0.54297-0.9375-0.011719-1.1133-0.97266-0.85938-0.98828-0.95312-0.27734-0.99609-0.69922-0.93359-1.3008-1.2773-0.63281-1.4805 0.18359-1.1836 0.035156-1.8281 0.44531-1.2969 0.41406-1.6367 0.27344-1.0625 0.30078-1.2266 0.21875-1.0312 0.71875-1.3594 0.26172-1.2031 0.48438-1.0156 0.45312-0.95312 0.48047-1.1133 0.86719-1.3828 0.99609-1.6211 1.1211-1.2109 1.0977-0.83984 1.082-0.78906 0.75781-0.76953 0.44141-1.4688 2.6641-2.6992 0.65625-0.98828-0.93359-0.71875-1.043-0.38281-0.45312-1.1445-0.074219-1.0273-0.45312-1.2539 0.14453-1.2656 1.3672-0.61328 1.6289-0.53516 0.41797-1.6953 0.3125-1.2695 0.41406-1.0078 0.86719-1.3398 0.71484-1.0898 0.69531-1.125 0.92188-0.75781 0.82031-0.73047 0.21484-1.1953 0.60156-0.95312 0.41797-1.2539 0.69141-0.99219 1.3047-0.16797 0.90625-0.71094 1.2148-0.45703 0.62891-0.96094 1.3281-0.35156 1.1914-0.48828 1.2773-0.58984 1.1562-0.39453 1.7461 0.42188 1.1836 0.14453 1.0742-0.13672 1.2305 0.070313 0.625 0.79297 1.4219-0.29688 2.3359-0.99609 1.3906 0.875 0.97656 0.72266 0.95312-0.32812 0.71484-0.71484 1.6367-0.15234 1.5508-0.66797 1.1289-0.87891 1.2734-0.35938 1.0078-0.53125 1.4453-0.76562 0.84766-0.79297z" fill="#ccc" fill-rule="evenodd"/>
<path d="m169.19 127.61 17.754 15.898 3.3125 3.0078 0.85938 0.89844 2.9922 2.7383 0.95312 0.73828 1.1172 1.0898 2.0078 1.6641 1.1641 1.1328 1.2148 1.0352 1.4648 1.418 2.4414 2.1719 0.48828 1.2383-0.30469 1.2773-0.070313 1.625 0.27734 1.4844 0.76172 0.69141 0.8125 0.97266 1.875 2.2656 0.71484 0.87109 1.1133-0.26562 5.293 2.8633 1.0859 0.65234 0.89453 0.48438 10.918 5.9609 3.1094 1.7461-1.2656 1.0078-1.3086 0.87891-1.3906 0.99219-2.2852 0.40625-1.5586 0.27344-1.3672 1.082-0.65234 1.0312-1.2422 0.52344-0.94141 0.97266-0.41797 1.0977 0.34766 1.0156 0.054687 1.043 0.80469 1.5977 0.011719 1.4883 0.76172 1.0469 0.95703 0.57422 1.0078 0.72266 1.1406 0.14844 1.0586 0.80469 1.0391 0.5 0.93359 0.79688 0.96094 0.51562 1.1992 0.40625 0.71094 0.71094 0.84375 0.53906 0.98828 0.46094 0.97266 0.71094 1.0078 0.35938 1.0312 0.82812 1.2109 0.70703 0.74219 0.75391 0.58984 0.94141-0.53906 0.97266-1.0469 0.078125-1.3125-0.09375-1.0156 0.19922-1.168 0.12109-1.4883-0.24609-1.2891-0.12891-1.6758-0.21484-1.3047 0.10938-1.5352 0.375-1.3359 0.54688-1.1953 0.74219-1.1055 1.3359-0.89062 1.043-0.63281 0.9375-1.3711 0.53125-1.3086-0.054688-1.0859 0.03125-1.3477 1.2656-1.1562 0.38672-1.3516-0.21875-0.44141 1.125-0.625 0.99219-0.42188 1.1133-0.097656 1.3164-1.2539 1.4531-0.75 0.73828-0.96094 0.57422-0.31641 1.5039-0.66797 0.90234-1.3594 0.64453-1.0234 0.46875-1.0781 0.29297-1.2188 0.9375-1.0195 0.30469-0.9375 0.44141-1.7383 0.73828-1.6406 0.60156-1.6641 0.8125-1.4453 0.76172-0.9375 0.49219-1.1133 0.44531-1.8164 0.76172-1.5312 1.0781-0.25391 1.3672-0.94531 1.2617-17.805 19.629-10.695 10.852-2.7695 2.5078-1.2891 0.95703-1.2656 0.87891-1.4102 1.1211-1.0586 0.92578-2.2969 1.9531-2.2695 2.0273-0.71484 1.1133-0.59375 1.0352-0.98438 1.1133-1.0391 0.63281-1.0938 0.60938-1.1484 0.66797-0.96875 0.40234-1.2891 0.53906-0.80469 0.60156-1.2773 1.8164-0.22266 1.2773 0.22266 1.1719-0.92969 1.0352-0.5625 1.5078-0.50781 1.2031-0.60156 0.83203-0.47656 1.0039-0.5 1.2344-0.44141 0.99609-0.25 0.97266 0.042969 1.1484-0.089844 1.1797-5.6445 3.8867-3.8438 2.0859-0.66406 1.7461-0.53516 0.9375-0.89844 0.82812-2.3477 1.6406-1.7109 2.3086-0.92188 0.78516-1.1289 0.77734-0.76172 0.66797-0.57031 1.7305-0.44141 0.9375-2.1914 2.3945-0.94922 0.97656-0.92578 1.1758-0.53125 1.0469-1.2031 1.1719-1.5664 1.6055-0.91016 0.96094-0.90234 1.457-0.30859 1.4453-0.625 0.84766-1.0117 0.53906-0.35156 1.1133-0.44141 1.25-0.48828 1.0469-0.75 1.7891-0.94531 0.625-1.2656 0.16406-1.5234 0.30469-1.043 0.21094-0.1875 1.0859-0.73438 1.0977-0.60547 1.043-1.0273 0.71484-0.98828 0.36328-1.3633 0.94141 0.18359 1.3086-0.39062 1.3633-0.28125 1.2266-0.57031 0.82422-1.2773 0.71484-0.55469 0.93359-0.1875 1.5117 0.074218 1.2734-0.37891 0.92578-0.60938 1.8398-0.71094 0.73828-0.55859 0.94922-0.71484 1.0391-0.52734 0.89453-0.67188 0.95312-1.1914 0.29688-1.0039 0.75781-0.84766 0.76562-1.0195-0.042969-1.1602 0.10938-1.0625 0.49609-1.0508 0.48047-0.44141-1.0273-0.23438-1.0898-0.9375-0.40234-0.40234-0.9375-1.0312-0.21484-0.51562-0.91016-0.75391-0.73047-0.91016-0.54297-0.95703-0.67188-0.98828-0.47656 0.29297-0.99609 0.42578-1.1445 0.070312-1.2422-0.78906-0.75781-0.92969-0.53906-1.0391 0.39062-1.0586-0.09375-0.76172-0.78125 0.007813-1.1719-0.078125-1.3984-0.95703-0.41797-1.1523 0.33594-0.76953 0.79688-0.71875-0.88672-0.47266-1.3672-0.34375-1.0156-0.63281-1.0664-1.1016-0.65234-1.2266-0.42969-1.3633-0.33203-1.0312 0.32031-1.1602-0.83203-0.76562-0.87109-0.92969-0.80859-1.0273-0.79688-0.98828-0.71875-0.94531-0.60547-1.0273-0.66406-0.93359-0.57812-1-0.42969-1.3516-0.81641-1.0938-0.58984-0.87891-0.58203-0.9375-0.64062-0.94141-0.51953-0.85547-0.57422-1.0938-0.25781-1.1836 0.4375-0.94531 0.51172-0.91016 0.63672-1.1055-0.15234-0.73438 0.73047-1.1016-0.21094-0.99219-0.44922-1.0273-0.54688-1.0156-0.28516-0.83594 0.69922-0.97266-0.36328-1.2344 0.14453-0.96484-0.46484-0.67188-0.78906-0.53125-0.89062-0.97266 0.40234-1.0352 0.070312-0.92188-0.58984-1.0234 0.09375-0.98438-0.21094-1.1797-0.27344-0.98828-0.27734-1.0391-0.11719-1.2734-0.26953-0.96484-0.29688-1.0078-0.23047-0.011719-1.1836-0.52344-1.1406-0.19531-1-0.90625-0.64844-0.57031-0.93359-0.14844-0.99219-0.042969-1.1484-0.89844-0.66406-1.1133-0.80469-1.082-0.76953-0.87109-0.50781-0.94922-0.70312-0.96484-0.47266-1.1914-0.60938-0.82422-0.74219-0.94141-0.64844-1.0352-0.67188 0.40234-0.93359 0.94922-0.46875 0.91406-0.61719 0.95703-0.51953 0.52734-1.3203 0.65234-0.82031 0.53906-0.89062-0.070313-1.2305 0.27734-1.0273-0.078125-1.1016v-1.0117l0.19922-1.5781 0.72266-0.93359 0.51953-0.96875 0.49219-1 1.207-1.3633 0.25-1.1953 1.0625-1.3594 0.54688-1.0898 0.49609-1.0977 0.042968-1.0625-0.18359-1.3711 0.26172-1.0117 1.3828-1.8594 0.97656-0.66016 1.3672 0.011719 1.6406 0.81641 0.5625-1.2812-0.042969-1.3164-0.32422-1.2344-0.25391-1.0625 0.64844-0.875 0.91797-0.44141 1.6797-0.43359 2.1641 0.66406 0.88281 0.50781 1.5977 0.11719 1.2656-1.5039 0.75391-0.83594 1.5078-0.64062 1.8672 0.20703 1.2109 0.26172 1.5938-0.98828 1.0547-0.73438 1.6641 1.1992 0.92188 0.45703 0.70703-0.73438 0.61328-1.1367 1.0977-0.91797 0.66797-1.3594 0.82422-0.875 0.16406-1.8008 1.6367-1.5195 1.8242-0.70312 1.4609 0.40234 0.64844 0.76953 1.5156 0.30469 0.95703-0.45312 1.1484-0.37891 1.3594-0.51562 0.91797-0.78125 1.0586-0.25781h1.0625l1.1797 0.054687 0.93359 0.45703 1.0586 0.58594 1.125 0.46875 1.125 0.63281 0.90234 0.55859 1.4922 0.52344 1.4258 0.27344 2.1953-0.019531 1.1758 0.03125 1.2812-0.19141 0.23047-0.98438 0.30469-1.0117 0.13281-1.207 0.14844-1.1953 0.1875-1.0508-0.25-1.0352 0.71094-1.1328-0.15625-1.1172-0.44141-1.0117 0.16016-1.0898 0.37109-1.1484 0.79688-1.1055 0.30469-2.0703-0.058594-1.5898-0.015625-1.6523 0.33984-1.4922 0.69922-0.99609 0.73047-0.92188 0.58594-1.0312 0.16406-1.1133-0.12891-1.1914 0.56641-1.1289 0.14062-1.0312 0.38281-1.125 0.85547-0.98828 0.67188-0.87109 0.74609-0.70703 0.32422-1.4023-0.007813-1.2695 0.48047-0.98047 0.38672-1.3086-0.39844-1.5625 0.53125-1.3086 0.625-0.80469 1.2656-0.51562 1.082-0.72266 0.73828-0.73047 0.68359-0.86719 0.48828-1.1523 0.65234-1.043 0.99219-0.58203 0.60156-0.80078 0.85156-0.86328 1.043-0.19531 0.74609-0.79688 1-0.45703 0.64453-0.85938 0.67188-0.83594 0.89062-0.61719 0.48828-1.3633 0.91797-1.2461 0.73438-1.0078 0.58594-1.0391 0.73828-0.81641 0.78906-1.0273 0.71484-0.69922 0.98047-0.625 0.80859-0.77734 1.2344-0.6875 0.875-1.0234 0.78125-0.82422 0.40625-0.92969 0.5625-0.96875 1.043-0.72656 0.89062-0.72266 0.81641-0.79688 0.33203-0.98047 0.77344-0.72656 0.97656-0.54688 0.89062-0.98438 0.39062-0.98438 0.66406-0.77344 1.4648-0.32031 1.1797-0.23828 0.67188-0.79688 0.66797-0.87891 1.2305-0.6875 1.6289-0.36719 0.71875-1.3242 0.41406-1.6445 0.082031-1.1016 0.82812-1.5039 0.94531-1.0195 0.89844-0.49609 0.80859-0.72656 0.70703-0.94531 0.54297-0.9375-0.011719-1.1133-0.97266-0.85938-0.98828-0.95312-0.27734-0.99609-0.69922-0.93359-1.3008-1.2773-0.63281-1.4805 0.18359-1.1836 0.035156-1.8281 0.44531-1.2969 0.41406-1.6367 0.27344-1.0625 0.30078-1.2266 0.21875-1.0312 0.71875-1.3594 0.26172-1.2031 0.48438-1.0156 0.45312-0.95312 0.48047-1.1133 0.86719-1.3828 0.99609-1.6211 1.1211-1.2109 1.0977-0.83984 1.082-0.78906 0.75781-0.76953 0.44141-1.4688 2.6641-2.6992 0.65625-0.98828-0.93359-0.71875-1.043-0.38281-0.45312-1.1445-0.074219-1.0273-0.45312-1.2539 0.14453-1.2656 1.3672-0.61328 1.6289-0.53516 0.41797-1.6953 0.3125-1.2695 0.41406-1.0078 0.86719-1.3398 0.71484-1.0898 0.69531-1.125 0.92188-0.75781 0.82031-0.73047 0.21484-1.1953 0.60156-0.95312 0.41797-1.2539 0.69141-0.99219 1.3047-0.16797 0.90625-0.71094 1.2148-0.45703 0.62891-0.96094 1.3281-0.35156 1.1914-0.48828 1.2773-0.58984 1.1562-0.39453 1.7461 0.42188 1.1836 0.14453 1.0742-0.13672 1.2305 0.070313 0.625 0.79297 1.4219-0.29688 2.3359-0.99609 1.3906 0.875 0.97656 0.72266 0.95312-0.32812 0.71484-0.71484 1.6367-0.15234 1.5508-0.66797 1.1289-0.87891 1.2734-0.35938 1.0078-0.53125 1.4453-0.76562 0.84766-0.79297 0.91016-0.90234" fill="none" stroke="#fff" stroke-linecap="round" stroke-linejoin="round" stroke-miterlimit="10" stroke-width="2"/>
<path d="m318.43 80.223 0.29297 0.070313 0.97266 0.30859 1.0156 0.55469 0.60156 1.168 0.73047 0.72656 0.76953 0.67188 0.78516 0.82031 1.1289 0.87109 0.87109 0.53516 0.77734 0.70703 0.97656 0.46875-0.4375 1.1055 0.058594 1.1133 0.20703 1.168 0.27734 1.0312 0.17969 1.2344-0.41406 1.3203-0.29688 1.0664-0.34375 1.2227-0.25781 1.0195-0.125 1.0938-0.089844 1.0586 0.074219 1.0352 0.097656 1.2227 0.09375 1.0508 0.48438 0.92188 0.42578 1.082 0.29688 0.99219 0.070313 1.0586 0.53516 0.94531 1.3516-0.22656 0.76172-0.71094 1.0039-0.64844 1.0352 0.14844 0.94531 0.60156 0.066406 1.0977 0.86719 0.71875 0.52734 0.92578 0.65234 1.2344 0.71094 0.94141 1.1289 0.37109 1.0859 0.70703 0.9375 0.53906 1.0703 0.48828 1.2188-0.039063 0.83984 0.70312 1.125-0.011719 0.40625 1.0586 0.042969 1.1094 0.35156 1.0039 0.65625 0.98828 0.49219 0.96094 0.99609 0.085938 1.332-0.73438 0.93359 0.76562 0.20312 1.2344 0.43359 1.0977 0.60156 0.89453 1.0547 0.48438 0.98047 0.48828 0.42969 0.98047 1.0469 0.80469 0.9375 0.63672 1.1641 0.37109 0.88281 0.83594 0.64844 0.94531 1.1211 0.60156 1.0391 0.28516 1.4453 0.34375 1.0977 0.15234 1.0625 0.38281 0.67578 0.75781 0.94922 0.8125 1.4219 0.41406 1.0039 0.21094 0.84766 0.72266 0.86719 0.51172 0.69141 1.0195 0.95703 0.67188 1.3906 0.097656 1.0391 0.039063 1.0781 0.18359 1.0156 0.32422 1.3086-0.15234 1.0586-0.070312 0.71875 0.76953 0.38281 1.0352 0.73438 0.86328 1.1758 0.35938 1.0391-0.054688 1.0859 0.41797 0.69922 1.0898 0.72266 1.1289 0.64453 0.78125 1.0938 0.16016 1.0234-0.17188 1.1484-0.34375 1.1719 0.066406 1.168 0.41016 1.207-0.77344 1.2656-0.14844 1.0117-0.035157 0.85156-0.65234 1.1328-0.18359 0.62109-0.83594 1.0391-0.46875 1.2695 0.10938 0.91016-0.49219 1.2031 0.027344 1.4805 0.65625 1.125 0.4375 1.1602 0.83594 0.37109 1.125 0.8125 0.77734 1.2539 0.75391 0.92969 0.98438 0.39453 1.1875 0.82031 0.58984 0.54688 1.0273 0.6875 0.8125-0.25 1.2812-0.007812 1.2305 0.41406 0.92188 0.40234 1.0977 1.4805 1.3125 1.1367 0.42578 1-0.14844 0.76562 0.85547 1.1484 0.91797 1.0078 0.36328 0.9375 0.55859 1.2969-0.074219 0.78516 0.79297 1.1133-0.48438 1.0469 0.011719 0.95312-0.32422 1.0117-0.22266 1.2188-0.63672 0.60547-1.0312-0.13281-1.0586 1.0117-0.29688 0.89062-0.85156 1.4453-0.26172 1.0586-0.74219 1.0547-0.26953 0.74609 0.67188 1.0625-0.035156 1.0156 0.41797 1.0469-0.22266 1.0117-0.27734 1.0625-0.14453 1.1719-0.51562 1.0195-0.007812 1.1953-0.32422 0.87109-0.53125 0.99219-0.17188 0.87109 0.87109 0.62109 0.84375 0.43359 0.91797 0.92578 0.49609 0.12891 1.4453 1.0234 0.35547 7.875-0.26953 1.918 0.023438 1.7461 0.10156 1.3633 0.16016 1.5156 0.26562 5.7109 1.2852 16.57 12.625 15.629 11.531-0.31641 27.234-0.99609-0.36328-0.70703-0.71484-0.50391-0.89453-0.15625-1.0742-0.49609-1.1719-0.56641-0.82812-0.84375-0.85938-0.79297-0.79688-0.71094-0.91406-0.71094-0.86719-0.96094-0.85938-0.91016-0.42969-1.082-0.18359-1.0234-0.37891-1.2422-0.27344-1.0898-0.54688-1.1992-0.45703-1.1602-0.59766-0.81641-0.62891-0.32031-0.97266-0.14453-1.1562-0.55469-1.0898-1.1211-0.39453-1.1797-0.22266-0.98828-0.69922-1.0781-0.082031-1.0898 0.16016-1.1914-0.20312-0.99219-0.45703-1.2227-0.55078-1.0156-0.074218-1.1133 0.12891-0.96875 0.30469-1.0391-0.30469-1.1211-0.58984-1.2422-0.23828-1.2266 0.22656-1.0469-0.15625-1.1055 0.4375-0.98828-1.0977-1.0938-0.97266-1.0156-0.57031-0.98828 0.78516-0.70312 0.78906 0.023437 1.1055-0.82812 0.75781-0.5 1.1953-0.47656 0.95703-0.27734 1.0273-0.76953 0.71094-1.5703 0.36328-1.0703-0.13281-1.3516-0.63672-1.2266-0.40234-1.6758-0.34375-1.6367-0.55859-0.98047-0.34766-1.0703-0.12109-1.043 0.38281-0.94531 0.57422-0.70703 0.78906-1.1055 1.4766-0.53906 0.92578-0.14453 1.043-1.0234 0.67188-1.2188 0.77734-0.94531 0.35547-1.5391 0.71094-0.92188 0.9375-0.94531 0.57422-0.95703 0.50391-0.11328 1.043 1.0703 0.92969 0.9375 0.86719 0.88672 1.1094-0.90625 1.6055-0.77344 0.73828-1.0781 0.50781-1.3477-0.082031-0.99219 1.2227-0.60938 0.92188-1.2539 0.45703-1.2148 0.035156-1.2031-0.75781-0.62891-0.83984-0.75391-0.80859-1.0781-0.64453-1.0078-0.88281-1.5469-0.32422-1.5977 0.67969-1.2188-0.19141-1.0977-0.38672-1.1055-0.40234-1.5742-0.019531-1.8477 0.078125-1.5156-0.097656-1.1914-0.046875-1-0.0625-1.1367-0.71875-1.4375 0.37109-1.1133 0.30469-1.332 0.039062-1.2695 0.089844-1.5078 0.73438-1.0312 0.023438h-1.3008l-1-0.14453-1.1211-0.78125-1.2266-0.046875-1.0938-0.27344-0.98828-0.69922-1.0195 0.066406-1.0625 0.41797-0.98047 0.57422-1.1602 0.27734-0.85547 0.53906 0.16406 1.0547 0.14062 0.99609 0.14453 1.0352-0.77344 1.1523-0.51562 1.4922-0.67578 1.2695-1.1719 0.92969-0.59766 0.96094 0.10938 1.1328 0.23828 1.3789 0.55469 0.99219-0.12891 1.1602-0.66797 0.75-0.65625 1.1758-0.99219 0.64062-0.55469 0.85547-0.26562 1.2617-0.66406 0.97656-0.15625 1.5469-0.34766 1.1602-0.82812 0.63281-1.0508 0.63281-0.38672 0.98828-0.83984 1.0039-0.29688 0.98828 0.19922 1.043 0.078125 1.0742-0.92969 0.60547-0.26172 0.97266 0.50391 1.1445 0.53906 1.3281-0.035156 1.3789 0.023437 1.2227-0.71094 1.125-1.1641 0.67188-0.99609-0.4375-1.0547-0.015625-1.4688 0.21875-1.1758-0.17188-1.0625 0.30859-1.3789 0.28125-1.7734 0.65234-1.1797 0.1875-2.2891 0.50391-1.2031 0.035156-1.375-0.0625-1.0273-0.4375-0.85547-1.1602-1.293-0.375-0.57812-0.88281-1.0508-0.39453-0.78516 0.79297-0.74609 0.85938-0.97656 0.37109-0.46875 0.94531-0.92969 0.75391-0.84375-0.69141-1.0781-0.69141-1.1758 0.30078-0.41406 0.9375-0.66016 0.79297-0.52344 0.92578-1.1914 0.39844-1.1094-0.074219-1.3555 0.64453-0.57422 0.875-0.60547 1.4727-0.64844 0.94531-0.66016 0.83984-0.8125 0.97656-1.1484 0.125-1.1055 0.15625-0.37891 1.082-1.0352 0.49609-1.2383 0.42578v1.2969l0.60547 1.3828 0.30469 1.3984 0.71094 1.0273-0.60547 1.1445-0.96875 0.52344-0.68359 0.875 0.17188 1.1641-0.78516 1.125-0.66016 1.0469-1.0078 0.44531-0.90625 0.41797-1.0195 0.34766-1.0859 0.023437-1.2188 0.023438-1.1875 0.14062-0.71484 1.043-0.76953 0.89844-0.65234 0.80469 0.21875 1.1211-0.64844 1.1016-0.5 1.0078-0.5625 0.91016-0.28906 1.0195-0.88672 0.80859-0.76172 0.66797-0.44531 0.97656-1.1914 0.12109-0.67188 0.94141-0.83984 1-0.59766 1.0859-0.95703 0.46094-0.61719 1.0156-0.91016 0.71484-1.5-0.22266-1.125 0.95312-0.49609 0.92188-1.0938 0.38281-0.65625 1.0977-0.21484 1.0156-0.30859 1.0273-0.38672 1.0898 0.011719 1.1133-0.50781 1.2695-0.67969 1.0508-0.57812 1.1094-0.64453 0.85938-0.57031 0.90625-1.1133 0.83594-0.92188 0.54688-1.0703 0.27734-1.2031 0.41797-1.0195 0.16797-0.98047 0.70312-1.1758 0.25781-2.3828 0.62109-2.1172-0.011718-1.0352 0.25391-1.1797-0.15625-1.3672-0.070313-1.6836 0.33594-1.3047 0.51953-1.4219 0.27734-1.1602 0.375-0.99609-0.22656-1.1992-0.37109-1.293-0.11328-0.85156-0.5625-0.53516-1.3203-0.51172-1.1445-0.76953-0.82031 0.054688-1.0039 0.77734-0.90625 1-0.69141 0.54297-0.85938 0.023438-1.1758 0.90234-0.96875 0.48047-0.96484-0.26172-1.0898 0.85156-0.79297 0.89844-0.65625 0.39844-1.0273 0.71094-0.95312 0.74219-1.0664 0.87109-0.72266 0.96875-0.94531 0.72656-0.95703 0.78516-0.84375 0.57031-0.94922 0.84375-1.0859 0.65625-0.875 0.96484-0.91406 0.55078-0.97656 0.29297-1.1133 0.18359-1.332 0.0625-1.2969-0.32031-1.1758 0.29688-1.3086 0.21094-1.2461-0.13281-1.2305 0.003906-1.0664 0.46094-1.2422 0.55469-1.2891 0.73828-1.0273 0.40234-1.1836 0.19922-1.1133 0.32422-1.4336-0.13672-1.2344-0.43359-1.0117-0.85547-0.70703-0.98828-0.76172 0.19531-1.0586-0.26562-1.3945v-1.1641l0.12891-1.4023v-1.0352l0.23438-1.0859 0.10938-1.0195-1.2422-0.64844-0.9375 0.38672-0.80078 0.74609-0.75391-0.91016-0.9375-1.3086-1.1094-0.96484-1.1523-0.46875-1.293 0.5-1.0156 0.20312-1.1055 0.046875-1.9805-0.015625-1.8945-0.097656h-1.4883l-1.1758-0.19531-1.2109 0.097656-1.8281 0.078125-1.25 0.32812-0.99609 0.42188-3.0078-0.45312-1.3555-0.40625-1.6211-0.83594-0.93359-0.45703-1-0.625-1.1562-0.71875-1.043-0.31641-0.85938-0.57031-0.75-1.1758-1.2461-0.80078-1.2188-0.41797-0.59375-0.83594-0.90234-0.44141-0.90234-0.57031-0.53516-1.2109 0.078125-1.0117-0.48438-1.1406-0.41016-1.1641-0.24219-1.0273-0.17578-1.0078-0.52734-0.91016-1.25 0.070312-1.3164 0.66406-1.2578-0.042969-1.2773-0.61719-0.125-1.3438-0.24219-1.2891-1.0938-0.65625-0.55859-1.4727-0.82812-0.80859-1.0703-0.30859-1.0586-0.55859-1.1289-0.84375-1.1445-0.875-0.96094-0.51172-0.023437-1.0039-0.59375-1.5312 0.32031-0.97266-0.80078-0.72656-0.46094-1.0117-0.46094-1.0273-0.61719-0.92578-0.20703-1.0938-0.027343-1.1797 0.35547-1.2891-0.21094-1.0234-0.71875-0.82031-0.34375-1.1406 0.59766-0.98438 1.6211-1.2617 0.8125-0.76953 1.3477-0.91406 1.3281-0.82422 0.46484-1.0156 0.023437-1.1875 0.71875-0.9375 1.2539-0.59766 1.3086-0.65625 1.3203-1.582 0.69141-0.80469 1.293-0.33203 1.1055-1.0742 0.98828-0.6875 0.30078-0.96094 0.4375-1.082 1.1094-0.14453 1.1133-0.035157 1.2031 0.23047 1.0898-0.53516 0.48438-0.96484-0.46094-0.99609-1.0039-0.70703-0.75391-0.83203 0.71875-0.80078 0.96484-0.59375 0.90234-0.86719 1.4102 0.20312 1.0156-0.26562 0.67188-0.76562 0.23438-2.0156 0.75-0.97266 0.91797-0.40625-0.082032-1.0195 0.77734-0.8125 1.0352-0.76172 0.78906-0.8125 1.125-1.0625 1.1523-0.46484 1.4805-0.089844 1.4609-0.49219 1.1523 0.24219 1.125-0.41406 0.375-1.1055 0.82422-0.79688 0.49609-1.1758 0.023438-1.1914 1.1758-0.96875 0.88672-0.51562 0.5625-1 1.2148-0.32031 0.92188-0.60938 1-0.49219 0.94922-0.92188 1.2578-0.30859 1.3164-0.52344 1.3047-0.089843 0.8125-0.87109 1.4727-0.14062 1.2773-0.28906 0.89062-0.57422 1.1797 0.34375 0.92969 0.69922 1.1406 0.61719 1.3398-0.48828 1.3398 0.16797 0.47266-0.94531 1.2734-0.89062 1.0078 0.125 1.0391 0.085937 1.2461 0.23828 0.78125 0.94922 1.2773 0.20703 2.4766-1.0703 1.0703-0.375 1.0117-1.4766 1.3594-0.83203 1.2656-0.73438 0.45312-0.94531 0.80469-1.1172 0.54297-1.0664 0.3125-1.293-0.75-1.4883-0.71875-1.6758-0.46875-1.0859-0.46094-0.91016-0.78516-0.98047-0.007812-1.4258-0.16797-0.99609-0.30859-1.1406-0.46094-1.2109 0.027344-2.25-0.58984-1.3711-1.2031-0.49219-0.40234-1.2227 0.91797-0.82031 0.89844-1.2734 1.0352-0.85938 0.85547-1.0625 0.875-1.4336-0.03125-1.0547-0.91406-1.4805 0.097656-2.2617 1.1523-1.0469 1.7578-0.066407 1.168-0.003906 0.22266-1.0586-1.1562-0.54688-0.97656-0.71094-0.47266-0.91016 0.35938-0.98828-0.19141-1.6289-0.15625-1.0977 0.21094-1.1016-1.1562-1.7305 0.45703-1.2422 0.22656-1.8516-0.09375-2.8867-0.12891-1.1953 0.22656-1.1133 1.0859-1.3867-0.65625-1.6367 0.089844-1.1875 0.89062-0.97656 0.68359-1.1016 0.52344-1.1719 0.50781-1.4336-0.019531-1.4492 0.14062-1.0508 0.62891-1.4492 0.94531-1.3281 1.1172-0.82422 0.99609-0.50391 0.98047-0.99609 0.19141-1.1211-0.4375-1.0469-0.19141-1.1914-0.26172-1.0625-0.14062-1.0312-0.29688-1.418 0.050781-1.0664-0.52344-1.4492-0.36719-1.2773 0.57812-1.5195 0.19141-1.0312z" fill="#ccc" fill-rule="evenodd"/>
<path d="m318.43 80.223 0.29297 0.070313 0.97266 0.30859 1.0156 0.55469 0.60156 1.168 0.73047 0.72656 0.76953 0.67188 0.78516 0.82031 1.1289 0.87109 0.87109 0.53516 0.77734 0.70703 0.97656 0.46875-0.4375 1.1055 0.058594 1.1133 0.20703 1.168 0.27734 1.0312 0.17969 1.2344-0.41406 1.3203-0.29688 1.0664-0.34375 1.2227-0.25781 1.0195-0.125 1.0938-0.089844 1.0586 0.074219 1.0352 0.097656 1.2227 0.09375 1.0508 0.48438 0.92188 0.42578 1.082 0.29688 0.99219 0.070313 1.0586 0.53516 0.94531 1.3516-0.22656 0.76172-0.71094 1.0039-0.64844 1.0352 0.14844 0.94531 0.60156 0.066406 1.0977 0.86719 0.71875 0.52734 0.92578 0.65234 1.2344 0.71094 0.94141 1.1289 0.37109 1.0859 0.70703 0.9375 0.53906 1.0703 0.48828 1.2188-0.039063 0.83984 0.70312 1.125-0.011719 0.40625 1.0586 0.042969 1.1094 0.35156 1.0039 0.65625 0.98828 0.49219 0.96094 0.99609 0.085938 1.332-0.73438 0.93359 0.76562 0.20312 1.2344 0.43359 1.0977 0.60156 0.89453 1.0547 0.48438 0.98047 0.48828 0.42969 0.98047 1.0469 0.80469 0.9375 0.63672 1.1641 0.37109 0.88281 0.83594 0.64844 0.94531 1.1211 0.60156 1.0391 0.28516 1.4453 0.34375 1.0977 0.15234 1.0625 0.38281 0.67578 0.75781 0.94922 0.8125 1.4219 0.41406 1.0039 0.21094 0.84766 0.72266 0.86719 0.51172 0.69141 1.0195 0.95703 0.67188 1.3906 0.097656 1.0391 0.039063 1.0781 0.18359 1.0156 0.32422 1.3086-0.15234 1.0586-0.070312 0.71875 0.76953 0.38281 1.0352 0.73438 0.86328 1.1758 0.35938 1.0391-0.054688 1.0859 0.41797 0.69922 1.0898 0.72266 1.1289 0.64453 0.78125 1.0938 0.16016 1.0234-0.17188 1.1484-0.34375 1.1719 0.066406 1.168 0.41016 1.207-0.77344 1.2656-0.14844 1.0117-0.035157 0.85156-0.65234 1.1328-0.18359 0.62109-0.83594 1.0391-0.46875 1.2695 0.10938 0.91016-0.49219 1.2031 0.027344 1.4805 0.65625 1.125 0.4375 1.1602 0.83594 0.37109 1.125 0.8125 0.77734 1.2539 0.75391 0.92969 0.98438 0.39453 1.1875 0.82031 0.58984 0.54688 1.0273 0.6875 0.8125-0.25 1.2812-0.007812 1.2305 0.41406 0.92188 0.40234 1.0977 1.4805 1.3125 1.1367 0.42578 1-0.14844 0.76562 0.85547 1.1484 0.91797 1.0078 0.36328 0.9375 0.55859 1.2969-0.074219 0.78516 0.79297 1.1133-0.48438 1.0469 0.011719 0.95312-0.32422 1.0117-0.22266 1.2188-0.63672 0.60547-1.0312-0.13281-1.0586 1.0117-0.29688 0.89062-0.85156 1.4453-0.26172 1.0586-0.74219 1.0547-0.26953 0.74609 0.67188 1.0625-0.035156 1.0156 0.41797 1.0469-0.22266 1.0117-0.27734 1.0625-0.14453 1.1719-0.51562 1.0195-0.007812 1.1953-0.32422 0.87109-0.53125 0.99219-0.17188 0.87109 0.87109 0.62109 0.84375 0.43359 0.91797 0.92578 0.49609 0.12891 1.4453 1.0234 0.35547 7.875-0.26953 1.918 0.023438 1.7461 0.10156 1.3633 0.16016 1.5156 0.26562 5.7109 1.2852 16.57 12.625 15.629 11.531-0.31641 27.234-0.99609-0.36328-0.70703-0.71484-0.50391-0.89453-0.15625-1.0742-0.49609-1.1719-0.56641-0.82812-0.84375-0.85938-0.79297-0.79688-0.71094-0.91406-0.71094-0.86719-0.96094-0.85938-0.91016-0.42969-1.082-0.18359-1.0234-0.37891-1.2422-0.27344-1.0898-0.54688-1.1992-0.45703-1.1602-0.59766-0.81641-0.62891-0.32031-0.97266-0.14453-1.1562-0.55469-1.0898-1.1211-0.39453-1.1797-0.22266-0.98828-0.69922-1.0781-0.082031-1.0898 0.16016-1.1914-0.20312-0.99219-0.45703-1.2227-0.55078-1.0156-0.074218-1.1133 0.12891-0.96875 0.30469-1.0391-0.30469-1.1211-0.58984-1.2422-0.23828-1.2266 0.22656-1.0469-0.15625-1.1055 0.4375-0.98828-1.0977-1.0938-0.97266-1.0156-0.57031-0.98828 0.78516-0.70312 0.78906 0.023437 1.1055-0.82812 0.75781-0.5 1.1953-0.47656 0.95703-0.27734 1.0273-0.76953 0.71094-1.5703 0.36328-1.0703-0.13281-1.3516-0.63672-1.2266-0.40234-1.6758-0.34375-1.6367-0.55859-0.98047-0.34766-1.0703-0.12109-1.043 0.38281-0.94531 0.57422-0.70703 0.78906-1.1055 1.4766-0.53906 0.92578-0.14453 1.043-1.0234 0.67188-1.2188 0.77734-0.94531 0.35547-1.5391 0.71094-0.92188 0.9375-0.94531 0.57422-0.95703 0.50391-0.11328 1.043 1.0703 0.92969 0.9375 0.86719 0.88672 1.1094-0.90625 1.6055-0.77344 0.73828-1.0781 0.50781-1.3477-0.082031-0.99219 1.2227-0.60938 0.92188-1.2539 0.45703-1.2148 0.035156-1.2031-0.75781-0.62891-0.83984-0.75391-0.80859-1.0781-0.64453-1.0078-0.88281-1.5469-0.32422-1.5977 0.67969-1.2188-0.19141-1.0977-0.38672-1.1055-0.40234-1.5742-0.019531-1.8477 0.078125-1.5156-0.097656-1.1914-0.046875-1-0.0625-1.1367-0.71875-1.4375 0.37109-1.1133 0.30469-1.332 0.039062-1.2695 0.089844-1.5078 0.73438-1.0312 0.023438h-1.3008l-1-0.14453-1.1211-0.78125-1.2266-0.046875-1.0938-0.27344-0.98828-0.69922-1.0195 0.066406-1.0625 0.41797-0.98047 0.57422-1.1602 0.27734-0.85547 0.53906 0.16406 1.0547 0.14062 0.99609 0.14453 1.0352-0.77344 1.1523-0.51562 1.4922-0.67578 1.2695-1.1719 0.92969-0.59766 0.96094 0.10938 1.1328 0.23828 1.3789 0.55469 0.99219-0.12891 1.1602-0.66797 0.75-0.65625 1.1758-0.99219 0.64062-0.55469 0.85547-0.26562 1.2617-0.66406 0.97656-0.15625 1.5469-0.34766 1.1602-0.82812 0.63281-1.0508 0.63281-0.38672 0.98828-0.83984 1.0039-0.29688 0.98828 0.19922 1.043 0.078125 1.0742-0.92969 0.60547-0.26172 0.97266 0.50391 1.1445 0.53906 1.3281-0.035156 1.3789 0.023437 1.2227-0.71094 1.125-1.1641 0.67188-0.99609-0.4375-1.0547-0.015625-1.4688 0.21875-1.1758-0.17188-1.0625 0.30859-1.3789 0.28125-1.7734 0.65234-1.1797 0.1875-2.2891 0.50391-1.2031 0.035156-1.375-0.0625-1.0273-0.4375-0.85547-1.1602-1.293-0.375-0.57812-0.88281-1.0508-0.39453-0.78516 0.79297-0.74609 0.85938-0.97656 0.37109-0.46875 0.94531-0.92969 0.75391-0.84375-0.69141-1.0781-0.69141-1.1758 0.30078-0.41406 0.9375-0.66016 0.79297-0.52344 0.92578-1.1914 0.39844-1.1094-0.074219-1.3555 0.64453-0.57422 0.875-0.60547 1.4727-0.64844 0.94531-0.66016 0.83984-0.8125 0.97656-1.1484 0.125-1.1055 0.15625-0.37891 1.082-1.0352 0.49609-1.2383 0.42578v1.2969l0.60547 1.3828 0.30469 1.3984 0.71094 1.0273-0.60547 1.1445-0.96875 0.52344-0.68359 0.875 0.17188 1.1641-0.78516 1.125-0.66016 1.0469-1.0078 0.44531-0.90625 0.41797-1.0195 0.34766-1.0859 0.023437-1.2188 0.023438-1.1875 0.14062-0.71484 1.043-0.76953 0.89844-0.65234 0.80469 0.21875 1.1211-0.64844 1.1016-0.5 1.0078-0.5625 0.91016-0.28906 1.0195-0.88672 0.80859-0.76172 0.66797-0.44531 0.97656-1.1914 0.12109-0.67188 0.94141-0.83984 1-0.59766 1.0859-0.95703 0.46094-0.61719 1.0156-0.91016 0.71484-1.5-0.22266-1.125 0.95312-0.49609 0.92188-1.0938 0.38281-0.65625 1.0977-0.21484 1.0156-0.30859 1.0273-0.38672 1.0898 0.011719 1.1133-0.50781 1.2695-0.67969 1.0508-0.57812 1.1094-0.64453 0.85938-0.57031 0.90625-1.1133 0.83594-0.92188 0.54688-1.0703 0.27734-1.2031 0.41797-1.0195 0.16797-0.98047 0.70312-1.1758 0.25781-2.3828 0.62109-2.1172-0.011718-1.0352 0.25391-1.1797-0.15625-1.3672-0.070313-1.6836 0.33594-1.3047 0.51953-1.4219 0.27734-1.1602 0.375-0.99609-0.22656-1.1992-0.37109-1.293-0.11328-0.85156-0.5625-0.53516-1.3203-0.51172-1.1445-0.76953-0.82031 0.054688-1.0039 0.77734-0.90625 1-0.69141 0.54297-0.85938 0.023438-1.1758 0.90234-0.96875 0.48047-0.96484-0.26172-1.0898 0.85156-0.79297 0.89844-0.65625 0.39844-1.0273 0.71094-0.95312 0.74219-1.0664 0.87109-0.72266 0.96875-0.94531 0.72656-0.95703 0.78516-0.84375 0.57031-0.94922 0.84375-1.0859 0.65625-0.875 0.96484-0.91406 0.55078-0.97656 0.29297-1.1133 0.18359-1.332 0.0625-1.2969-0.32031-1.1758 0.29688-1.3086 0.21094-1.2461-0.13281-1.2305 0.003906-1.0664 0.46094-1.2422 0.55469-1.2891 0.73828-1.0273 0.40234-1.1836 0.19922-1.1133 0.32422-1.4336-0.13672-1.2344-0.43359-1.0117-0.85547-0.70703-0.98828-0.76172 0.19531-1.0586-0.26562-1.3945v-1.1641l0.12891-1.4023v-1.0352l0.23438-1.0859 0.10938-1.0195-1.2422-0.64844-0.9375 0.38672-0.80078 0.74609-0.75391-0.91016-0.9375-1.3086-1.1094-0.96484-1.1523-0.46875-1.293 0.5-1.0156 0.20312-1.1055 0.046875-1.9805-0.015625-1.8945-0.097656h-1.4883l-1.1758-0.19531-1.2109 0.097656-1.8281 0.078125-1.25 0.32812-0.99609 0.42188-3.0078-0.45312-1.3555-0.40625-1.6211-0.83594-0.93359-0.45703-1-0.625-1.1562-0.71875-1.043-0.31641-0.85938-0.57031-0.75-1.1758-1.2461-0.80078-1.2188-0.41797-0.59375-0.83594-0.90234-0.44141-0.90234-0.57031-0.53516-1.2109 0.078125-1.0117-0.48438-1.1406-0.41016-1.1641-0.24219-1.0273-0.17578-1.0078-0.52734-0.91016-1.25 0.070312-1.3164 0.66406-1.2578-0.042969-1.2773-0.61719-0.125-1.3438-0.24219-1.2891-1.0938-0.65625-0.55859-1.4727-0.82812-0.80859-1.0703-0.30859-1.0586-0.55859-1.1289-0.84375-1.1445-0.875-0.96094-0.51172-0.023437-1.0039-0.59375-1.5312 0.32031-0.97266-0.80078-0.72656-0.46094-1.0117-0.46094-1.0273-0.61719-0.92578-0.20703-1.0938-0.027343-1.1797 0.35547-1.2891-0.21094-1.0234-0.71875-0.82031-0.34375-1.1406 0.59766-0.98438 1.6211-1.2617 0.8125-0.76953 1.3477-0.91406 1.3281-0.82422 0.46484-1.0156 0.023437-1.1875 0.71875-0.9375 1.2539-0.59766 1.3086-0.65625 1.3203-1.582 0.69141-0.80469 1.293-0.33203 1.1055-1.0742 0.98828-0.6875 0.30078-0.96094 0.4375-1.082 1.1094-0.14453 1.1133-0.035157 1.2031 0.23047 1.0898-0.53516 0.48438-0.96484-0.46094-0.99609-1.0039-0.70703-0.75391-0.83203 0.71875-0.80078 0.96484-0.59375 0.90234-0.86719 1.4102 0.20312 1.0156-0.26562 0.67188-0.76562 0.23438-2.0156 0.75-0.97266 0.91797-0.40625-0.082032-1.0195 0.77734-0.8125 1.0352-0.76172 0.78906-0.8125 1.125-1.0625 1.1523-0.46484 1.4805-0.089844 1.4609-0.49219 1.1523 0.24219 1.125-0.41406 0.375-1.1055 0.82422-0.79688 0.49609-1.1758 0.023438-1.1914 1.1758-0.96875 0.88672-0.51562 0.5625-1 1.2148-0.32031 0.92188-0.60938 1-0.49219 0.94922-0.92188 1.2578-0.30859 1.3164-0.52344 1.3047-0.089843 0.8125-0.87109 1.4727-0.14062 1.2773-0.28906 0.89062-0.57422 1.1797 0.34375 0.92969 0.69922 1.1406 0.61719 1.3398-0.48828 1.3398 0.16797 0.47266-0.94531 1.2734-0.89062 1.0078 0.125 1.0391 0.085937 1.2461 0.23828 0.78125 0.94922 1.2773 0.20703 2.4766-1.0703 1.0703-0.375 1.0117-1.4766 1.3594-0.83203 1.2656-0.73438 0.45312-0.94531 0.80469-1.1172 0.54297-1.0664 0.3125-1.293-0.75-1.4883-0.71875-1.6758-0.46875-1.0859-0.46094-0.91016-0.78516-0.98047-0.007812-1.4258-0.16797-0.99609-0.30859-1.1406-0.46094-1.2109 0.027344-2.25-0.58984-1.3711-1.2031-0.49219-0.40234-1.2227 0.91797-0.82031 0.89844-1.2734 1.0352-0.85938 0.85547-1.0625 0.875-1.4336-0.03125-1.0547-0.91406-1.4805 0.097656-2.2617 1.1523-1.0469 1.7578-0.066407 1.168-0.003906 0.22266-1.0586-1.1562-0.54688-0.97656-0.71094-0.47266-0.91016 0.35938-0.98828-0.19141-1.6289-0.15625-1.0977 0.21094-1.1016-1.1562-1.7305 0.45703-1.2422 0.22656-1.8516-0.09375-2.8867-0.12891-1.1953 0.22656-1.1133 1.0859-1.3867-0.65625-1.6367 0.089844-1.1875 0.89062-0.97656 0.68359-1.1016 0.52344-1.1719 0.50781-1.4336-0.019531-1.4492 0.14062-1.0508 0.62891-1.4492 0.94531-1.3281 1.1172-0.82422 0.99609-0.50391 0.98047-0.99609 0.19141-1.1211-0.4375-1.0469-0.19141-1.1914-0.26172-1.0625-0.14062-1.0312-0.29688-1.418 0.050781-1.0664-0.52344-1.4492-0.36719-1.2773 0.57812-1.5195 0.19141-1.0312 0.64453-0.62891" fill="none" stroke="#fff" stroke-linecap="round" stroke-linejoin="round" stroke-miterlimit="10" stroke-width="2"/>
<path d="m169.19 127.61 17.754 15.898 3.3125 3.0078 0.85938 0.89844 2.9922 2.7383 0.95312 0.73828 1.1172 1.0898 2.0078 1.6641 1.1641 1.1328 1.2148 1.0352 1.4648 1.418 2.4414 2.1719 0.48828 1.2383-0.30469 1.2773-0.070313 1.625 0.27734 1.4844 0.76172 0.69141 0.8125 0.97266 1.875 2.2656 0.71484 0.87109 1.1133-0.26562 5.293 2.8633 1.0859 0.65234 0.89453 0.48438 10.918 5.9609 3.1094 1.7461-1.2656 1.0078-1.3086 0.87891-1.3906 0.99219-2.2852 0.40625-1.5586 0.27344-1.3672 1.082-0.65234 1.0312-1.2422 0.52344-0.94141 0.97266-0.41797 1.0977 0.34766 1.0156 0.054687 1.043 0.80469 1.5977 0.011719 1.4883 0.76172 1.0469 0.95703 0.57422 1.0078 0.72266 1.1406 0.14844 1.0586 0.80469 1.0391 0.5 0.93359 0.79688 0.96094 0.51562 1.1992 0.40625 0.71094 0.71094 0.84375 0.53906 0.98828 0.46094 0.97266 0.71094 1.0078 0.35938 1.0312 0.82812 1.2109 0.70703 0.74219 0.75391 0.58984 0.94141-0.53906 0.97266-1.0469 0.078125-1.3125-0.09375-1.0156 0.19922-1.168 0.12109-1.4883-0.24609-1.2891-0.12891-1.6758-0.21484-1.3047 0.10938-1.5352 0.375-1.3359 0.54688-1.1953 0.74219-1.1055 1.3359-0.89062 1.043-0.63281 0.9375-1.3711 0.53125-1.3086-0.054688-1.0859 0.03125-1.3477 1.2656-1.1562 0.38672-1.3516-0.21875-0.44141 1.125-0.625 0.99219-0.42188 1.1133-0.097656 1.3164-1.2539 1.4531-0.75 0.73828-0.96094 0.57422-0.31641 1.5039-0.66797 0.90234-1.3594 0.64453-1.0234 0.46875-1.0781 0.29297-1.2188 0.9375-1.0195 0.30469-0.9375 0.44141-1.7383 0.73828-1.6406 0.60156-1.6641 0.8125-1.4453 0.76172-0.9375 0.49219-1.1133 0.44531-1.8164 0.76172-1.5312 1.0781-0.25391 1.3672-0.94531 1.2617-17.805 19.629-10.695 10.852-2.7695 2.5078-1.2891 0.95703-1.2656 0.87891-1.4102 1.1211-1.0586 0.92578-2.2969 1.9531-2.2695 2.0273-0.71484 1.1133-0.59375 1.0352-0.98438 1.1133-1.0391 0.63281-1.0938 0.60938-1.1484 0.66797-0.96875 0.40234-1.2891 0.53906-0.80469 0.60156-1.2773 1.8164-0.22266 1.2773 0.22266 1.1719-0.92969 1.0352-0.5625 1.5078-0.50781 1.2031-0.60156 0.83203-0.47656 1.0039-0.5 1.2344-0.44141 0.99609-0.25 0.97266 0.042969 1.1484-0.089844 1.1797-5.6445 3.8867-3.8438 2.0859-0.66406 1.7461-0.53516 0.9375-0.89844 0.82812-2.3477 1.6406-1.7109 2.3086-0.92188 0.78516-1.1289 0.77734-0.76172 0.66797-0.57031 1.7305-0.44141 0.9375-2.1914 2.3945-0.94922 0.97656-0.92578 1.1758-0.53125 1.0469-1.2031 1.1719-1.5664 1.6055-0.91016 0.96094-0.90234 1.457-0.30859 1.4453-0.625 0.84766-1.0117 0.53906-0.35156 1.1133-0.44141 1.25-0.48828 1.0469-0.75 1.7891-0.94531 0.625-1.2656 0.16406-1.5234 0.30469-1.043 0.21094-0.1875 1.0859-0.73438 1.0977-0.60547 1.043-1.0273 0.71484-0.98828 0.36328-1.3633 0.94141 0.18359 1.3086-0.39062 1.3633-0.28125 1.2266-0.57031 0.82422-1.2773 0.71484-0.55469 0.93359-0.1875 1.5117 0.074218 1.2734-0.37891 0.92578-0.60938 1.8398-0.71094 0.73828-0.55859 0.94922-0.71484 1.0391-0.52734 0.89453-0.67188 0.95312-1.1914 0.29688-1.0039 0.75781-0.84766 0.76562-1.0195-0.042969-1.1602 0.10938-1.0625 0.49609-1.0508 0.48047-0.44141-1.0273-0.23438-1.0898-0.9375-0.40234-0.40234-0.9375-1.0312-0.21484-0.51562-0.91016-0.75391-0.73047-0.91016-0.54297-0.95703-0.67188-0.98828-0.47656 0.29297-0.99609 0.42578-1.1445 0.070312-1.2422-0.78906-0.75781-0.92969-0.53906-1.0391 0.39062-1.0586-0.09375-0.76172-0.78125 0.007813-1.1719-0.078125-1.3984-0.95703-0.41797-1.1523 0.33594-0.76953 0.79688-0.71875-0.88672-0.47266-1.3672-0.34375-1.0156-0.63281-1.0664-1.1016-0.65234-1.2266-0.42969-1.3633-0.33203-1.0312 0.32031-1.1602-0.83203-0.76562-0.87109-0.92969-0.80859-1.0273-0.79688-0.98828-0.71875-0.94531-0.60547-1.0273-0.66406-0.93359-0.57812-1-0.42969-1.3516-0.81641-1.0938-0.58984-0.87891-0.58203-0.9375-0.64062-0.94141-0.51953-0.85547-0.57422-1.0938-0.25781-1.1836 0.4375-0.94531 0.51172-0.91016 0.63672-1.1055-0.15234-0.73438 0.73047-1.1016-0.21094-0.99219-0.44922-1.0273-0.54688-1.0156-0.28516-0.83594 0.69922-0.97266-0.36328-1.2344 0.14453-0.96484-0.46484-0.67188-0.78906-0.53125-0.89062-0.97266 0.40234-1.0352 0.070312-0.92188-0.58984-1.0234 0.09375-0.98438-0.21094-1.1797-0.27344-0.98828-0.27734-1.0391-0.11719-1.2734-0.26953-0.96484-0.29688-1.0078-0.23047-0.011719-1.1836-0.52344-1.1406-0.19531-1-0.90625-0.64844-0.57031-0.93359-0.14844-0.99219-0.042969-1.1484-0.89844-0.66406-1.1133-0.80469-1.082-0.76953-0.87109-0.50781-0.94922-0.70312-0.96484-0.47266-1.1914-0.60938-0.82422-0.74219-0.94141-0.64844-1.0352-0.67188 0.40234-0.93359 0.94922-0.46875 0.91406-0.61719 0.95703-0.51953 0.52734-1.3203 0.65234-0.82031 0.53906-0.89062-0.070313-1.2305 0.27734-1.0273-0.078125-1.1016v-1.0117l0.19922-1.5781 0.72266-0.93359 0.51953-0.96875 0.49219-1 1.207-1.3633 0.25-1.1953 1.0625-1.3594 0.54688-1.0898 0.49609-1.0977 0.042968-1.0625-0.18359-1.3711 0.26172-1.0117 1.3828-1.8594 0.97656-0.66016 1.3672 0.011719 1.6406 0.81641 0.5625-1.2812-0.042969-1.3164-0.32422-1.2344-0.25391-1.0625 0.64844-0.875 0.91797-0.44141 1.6797-0.43359 2.1641 0.66406 0.88281 0.50781 1.5977 0.11719 1.2656-1.5039 0.75391-0.83594 1.5078-0.64062 1.8672 0.20703 1.2109 0.26172 1.5938-0.98828 1.0547-0.73438 1.6641 1.1992 0.92188 0.45703 0.70703-0.73438 0.61328-1.1367 1.0977-0.91797 0.66797-1.3594 0.82422-0.875 0.16406-1.8008 1.6367-1.5195 1.8242-0.70312 1.4609 0.40234 0.64844 0.76953 1.5156 0.30469 0.95703-0.45312 1.1484-0.37891 1.3594-0.51562 0.91797-0.78125 1.0586-0.25781h1.0625l1.1797 0.054687 0.93359 0.45703 1.0586 0.58594 1.125 0.46875 1.125 0.63281 0.90234 0.55859 1.4922 0.52344 1.4258 0.27344 2.1953-0.019531 1.1758 0.03125 1.2812-0.19141 0.23047-0.98438 0.30469-1.0117 0.13281-1.207 0.14844-1.1953 0.1875-1.0508-0.25-1.0352 0.71094-1.1328-0.15625-1.1172-0.44141-1.0117 0.16016-1.0898 0.37109-1.1484 0.79688-1.1055 0.30469-2.0703-0.058594-1.5898-0.015625-1.6523 0.33984-1.4922 0.69922-0.99609 0.73047-0.92188 0.58594-1.0312 0.16406-1.1133-0.12891-1.1914 0.56641-1.1289 0.14062-1.0312 0.38281-1.125 0.85547-0.98828 0.67188-0.87109 0.74609-0.70703 0.32422-1.4023-0.007813-1.2695 0.48047-0.98047 0.38672-1.3086-0.39844-1.5625 0.53125-1.3086 0.625-0.80469 1.2656-0.51562 1.082-0.72266 0.73828-0.73047 0.68359-0.86719 0.48828-1.1523 0.65234-1.043 0.99219-0.58203 0.60156-0.80078 0.85156-0.86328 1.043-0.19531 0.74609-0.79688 1-0.45703 0.64453-0.85938 0.67188-0.83594 0.89062-0.61719 0.48828-1.3633 0.91797-1.2461 0.73438-1.0078 0.58594-1.0391 0.73828-0.81641 0.78906-1.0273 0.71484-0.69922 0.98047-0.625 0.80859-0.77734 1.2344-0.6875 0.875-1.0234 0.78125-0.82422 0.40625-0.92969 0.5625-0.96875 1.043-0.72656 0.89062-0.72266 0.81641-0.79688 0.33203-0.98047 0.77344-0.72656 0.97656-0.54688 0.89062-0.98438 0.39062-0.98438 0.66406-0.77344 1.4648-0.32031 1.1797-0.23828 0.67188-0.79688 0.66797-0.87891 1.2305-0.6875 1.6289-0.36719 0.71875-1.3242 0.41406-1.6445 0.082031-1.1016 0.82812-1.5039 0.94531-1.0195 0.89844-0.49609 0.80859-0.72656 0.70703-0.94531 0.54297-0.9375-0.011719-1.1133-0.97266-0.85938-0.98828-0.95312-0.27734-0.99609-0.69922-0.93359-1.3008-1.2773-0.63281-1.4805 0.18359-1.1836 0.035156-1.8281 0.44531-1.2969 0.41406-1.6367 0.27344-1.0625 0.30078-1.2266 0.21875-1.0312 0.71875-1.3594 0.26172-1.2031 0.48438-1.0156 0.45312-0.95312 0.48047-1.1133 0.86719-1.3828 0.99609-1.6211 1.1211-1.2109 1.0977-0.83984 1.082-0.78906 0.75781-0.76953 0.44141-1.4688 2.6641-2.6992 0.65625-0.98828-0.93359-0.71875-1.043-0.38281-0.45312-1.1445-0.074219-1.0273-0.45312-1.2539 0.14453-1.2656 1.3672-0.61328 1.6289-0.53516 0.41797-1.6953 0.3125-1.2695 0.41406-1.0078 0.86719-1.3398 0.71484-1.0898 0.69531-1.125 0.92188-0.75781 0.82031-0.73047 0.21484-1.1953 0.60156-0.95312 0.41797-1.2539 0.69141-0.99219 1.3047-0.16797 0.90625-0.71094 1.2148-0.45703 0.62891-0.96094 1.3281-0.35156 1.1914-0.48828 1.2773-0.58984 1.1562-0.39453 1.7461 0.42188 1.1836 0.14453 1.0742-0.13672 1.2305 0.070313 0.625 0.79297 1.4219-0.29688 2.3359-0.99609 1.3906 0.875 0.97656 0.72266 0.95312-0.32812 0.71484-0.71484 1.6367-0.15234 1.5508-0.66797 1.1289-0.87891 1.2734-0.35938 1.0078-0.53125 1.4453-0.76562 0.84766-0.79297z" fill="#0a5394" fill-rule="evenodd"/>
<path d="m169.19 127.61 17.754 15.898 3.3125 3.0078 0.85938 0.89844 2.9922 2.7383 0.95312 0.73828 1.1172 1.0898 2.0078 1.6641 1.1641 1.1328 1.2148 1.0352 1.4648 1.418 2.4414 2.1719 0.48828 1.2383-0.30469 1.2773-0.070313 1.625 0.27734 1.4844 0.76172 0.69141 0.8125 0.97266 1.875 2.2656 0.71484 0.87109 1.1133-0.26562 5.293 2.8633 1.0859 0.65234 0.89453 0.48438 10.918 5.9609 3.1094 1.7461-1.2656 1.0078-1.3086 0.87891-1.3906 0.99219-2.2852 0.40625-1.5586 0.27344-1.3672 1.082-0.65234 1.0312-1.2422 0.52344-0.94141 0.97266-0.41797 1.0977 0.34766 1.0156 0.054687 1.043 0.80469 1.5977 0.011719 1.4883 0.76172 1.0469 0.95703 0.57422 1.0078 0.72266 1.1406 0.14844 1.0586 0.80469 1.0391 0.5 0.93359 0.79688 0.96094 0.51562 1.1992 0.40625 0.71094 0.71094 0.84375 0.53906 0.98828 0.46094 0.97266 0.71094 1.0078 0.35938 1.0312 0.82812 1.2109 0.70703 0.74219 0.75391 0.58984 0.94141-0.53906 0.97266-1.0469 0.078125-1.3125-0.09375-1.0156 0.19922-1.168 0.12109-1.4883-0.24609-1.2891-0.12891-1.6758-0.21484-1.3047 0.10938-1.5352 0.375-1.3359 0.54688-1.1953 0.74219-1.1055 1.3359-0.89062 1.043-0.63281 0.9375-1.3711 0.53125-1.3086-0.054688-1.0859 0.03125-1.3477 1.2656-1.1562 0.38672-1.3516-0.21875-0.44141 1.125-0.625 0.99219-0.42188 1.1133-0.097656 1.3164-1.2539 1.4531-0.75 0.73828-0.96094 0.57422-0.31641 1.5039-0.66797 0.90234-1.3594 0.64453-1.0234 0.46875-1.0781 0.29297-1.2188 0.9375-1.0195 0.30469-0.9375 0.44141-1.7383 0.73828-1.6406 0.60156-1.6641 0.8125-1.4453 0.76172-0.9375 0.49219-1.1133 0.44531-1.8164 0.76172-1.5312 1.0781-0.25391 1.3672-0.94531 1.2617-17.805 19.629-10.695 10.852-2.7695 2.5078-1.2891 0.95703-1.2656 0.87891-1.4102 1.1211-1.0586 0.92578-2.2969 1.9531-2.2695 2.0273-0.71484 1.1133-0.59375 1.0352-0.98438 1.1133-1.0391 0.63281-1.0938 0.60938-1.1484 0.66797-0.96875 0.40234-1.2891 0.53906-0.80469 0.60156-1.2773 1.8164-0.22266 1.2773 0.22266 1.1719-0.92969 1.0352-0.5625 1.5078-0.50781 1.2031-0.60156 0.83203-0.47656 1.0039-0.5 1.2344-0.44141 0.99609-0.25 0.97266 0.042969 1.1484-0.089844 1.1797-5.6445 3.8867-3.8438 2.0859-0.66406 1.7461-0.53516 0.9375-0.89844 0.82812-2.3477 1.6406-1.7109 2.3086-0.92188 0.78516-1.1289 0.77734-0.76172 0.66797-0.57031 1.7305-0.44141 0.9375-2.1914 2.3945-0.94922 0.97656-0.92578 1.1758-0.53125 1.0469-1.2031 1.1719-1.5664 1.6055-0.91016 0.96094-0.90234 1.457-0.30859 1.4453-0.625 0.84766-1.0117 0.53906-0.35156 1.1133-0.44141 1.25-0.48828 1.0469-0.75 1.7891-0.94531 0.625-1.2656 0.16406-1.5234 0.30469-1.043 0.21094-0.1875 1.0859-0.73438 1.0977-0.60547 1.043-1.0273 0.71484-0.98828 0.36328-1.3633 0.94141 0.18359 1.3086-0.39062 1.3633-0.28125 1.2266-0.57031 0.82422-1.2773 0.71484-0.55469 0.93359-0.1875 1.5117 0.074218 1.2734-0.37891 0.92578-0.60938 1.8398-0.71094 0.73828-0.55859 0.94922-0.71484 1.0391-0.52734 0.89453-0.67188 0.95312-1.1914 0.29688-1.0039 0.75781-0.84766 0.76562-1.0195-0.042969-1.1602 0.10938-1.0625 0.49609-1.0508 0.48047-0.44141-1.0273-0.23438-1.0898-0.9375-0.40234-0.40234-0.9375-1.0312-0.21484-0.51562-0.91016-0.75391-0.73047-0.91016-0.54297-0.95703-0.67188-0.98828-0.47656 0.29297-0.99609 0.42578-1.1445 0.070312-1.2422-0.78906-0.75781-0.92969-0.53906-1.0391 0.39062-1.0586-0.09375-0.76172-0.78125 0.007813-1.1719-0.078125-1.3984-0.95703-0.41797-1.1523 0.33594-0.76953 0.79688-0.71875-0.88672-0.47266-1.3672-0.34375-1.0156-0.63281-1.0664-1.1016-0.65234-1.2266-0.42969-1.3633-0.33203-1.0312 0.32031-1.1602-0.83203-0.76562-0.87109-0.92969-0.80859-1.0273-0.79688-0.98828-0.71875-0.94531-0.60547-1.0273-0.66406-0.93359-0.57812-1-0.42969-1.3516-0.81641-1.0938-0.58984-0.87891-0.58203-0.9375-0.64062-0.94141-0.51953-0.85547-0.57422-1.0938-0.25781-1.1836 0.4375-0.94531 0.51172-0.91016 0.63672-1.1055-0.15234-0.73438 0.73047-1.1016-0.21094-0.99219-0.44922-1.0273-0.54688-1.0156-0.28516-0.83594 0.69922-0.97266-0.36328-1.2344 0.14453-0.96484-0.46484-0.67188-0.78906-0.53125-0.89062-0.97266 0.40234-1.0352 0.070312-0.92188-0.58984-1.0234 0.09375-0.98438-0.21094-1.1797-0.27344-0.98828-0.27734-1.0391-0.11719-1.2734-0.26953-0.96484-0.29688-1.0078-0.23047-0.011719-1.1836-0.52344-1.1406-0.19531-1-0.90625-0.64844-0.57031-0.93359-0.14844-0.99219-0.042969-1.1484-0.89844-0.66406-1.1133-0.80469-1.082-0.76953-0.87109-0.50781-0.94922-0.70312-0.96484-0.47266-1.1914-0.60938-0.82422-0.74219-0.94141-0.64844-1.0352-0.67188 0.40234-0.93359 0.94922-0.46875 0.91406-0.61719 0.95703-0.51953 0.52734-1.3203 0.65234-0.82031 0.53906-0.89062-0.070313-1.2305 0.27734-1.0273-0.078125-1.1016v-1.0117l0.19922-1.5781 0.72266-0.93359 0.51953-0.96875 0.49219-1 1.207-1.3633 0.25-1.1953 1.0625-1.3594 0.54688-1.0898 0.49609-1.0977 0.042968-1.0625-0.18359-1.3711 0.26172-1.0117 1.3828-1.8594 0.97656-0.66016 1.3672 0.011719 1.6406 0.81641 0.5625-1.2812-0.042969-1.3164-0.32422-1.2344-0.25391-1.0625 0.64844-0.875 0.91797-0.44141 1.6797-0.43359 2.1641 0.66406 0.88281 0.50781 1.5977 0.11719 1.2656-1.5039 0.75391-0.83594 1.5078-0.64062 1.8672 0.20703 1.2109 0.26172 1.5938-0.98828 1.0547-0.73438 1.6641 1.1992 0.92188 0.45703 0.70703-0.73438 0.61328-1.1367 1.0977-0.91797 0.66797-1.3594 0.82422-0.875 0.16406-1.8008 1.6367-1.5195 1.8242-0.70312 1.4609 0.40234 0.64844 0.76953 1.5156 0.30469 0.95703-0.45312 1.1484-0.37891 1.3594-0.51562 0.91797-0.78125 1.0586-0.25781h1.0625l1.1797 0.054687 0.93359 0.45703 1.0586 0.58594 1.125 0.46875 1.125 0.63281 0.90234 0.55859 1.4922 0.52344 1.4258 0.27344 2.1953-0.019531 1.1758 0.03125 1.2812-0.19141 0.23047-0.98438 0.30469-1.0117 0.13281-1.207 0.14844-1.1953 0.1875-1.0508-0.25-1.0352 0.71094-1.1328-0.15625-1.1172-0.44141-1.0117 0.16016-1.0898 0.37109-1.1484 0.79688-1.1055 0.30469-2.0703-0.058594-1.5898-0.015625-1.6523 0.33984-1.4922 0.69922-0.99609 0.73047-0.92188 0.58594-1.0312 0.16406-1.1133-0.12891-1.1914 0.56641-1.1289 0.14062-1.0312 0.38281-1.125 0.85547-0.98828 0.67188-0.87109 0.74609-0.70703 0.32422-1.4023-0.007813-1.2695 0.48047-0.98047 0.38672-1.3086-0.39844-1.5625 0.53125-1.3086 0.625-0.80469 1.2656-0.51562 1.082-0.72266 0.73828-0.73047 0.68359-0.86719 0.48828-1.1523 0.65234-1.043 0.99219-0.58203 0.60156-0.80078 0.85156-0.86328 1.043-0.19531 0.74609-0.79688 1-0.45703 0.64453-0.85938 0.67188-0.83594 0.89062-0.61719 0.48828-1.3633 0.91797-1.2461 0.73438-1.0078 0.58594-1.0391 0.73828-0.81641 0.78906-1.0273 0.71484-0.69922 0.98047-0.625 0.80859-0.77734 1.2344-0.6875 0.875-1.0234 0.78125-0.82422 0.40625-0.92969 0.5625-0.96875 1.043-0.72656 0.89062-0.72266 0.81641-0.79688 0.33203-0.98047 0.77344-0.72656 0.97656-0.54688 0.89062-0.98438 0.39062-0.98438 0.66406-0.77344 1.4648-0.32031 1.1797-0.23828 0.67188-0.79688 0.66797-0.87891 1.2305-0.6875 1.6289-0.36719 0.71875-1.3242 0.41406-1.6445 0.082031-1.1016 0.82812-1.5039 0.94531-1.0195 0.89844-0.49609 0.80859-0.72656 0.70703-0.94531 0.54297-0.9375-0.011719-1.1133-0.97266-0.85938-0.98828-0.95312-0.27734-0.99609-0.69922-0.93359-1.3008-1.2773-0.63281-1.4805 0.18359-1.1836 0.035156-1.8281 0.44531-1.2969 0.41406-1.6367 0.27344-1.0625 0.30078-1.2266 0.21875-1.0312 0.71875-1.3594 0.26172-1.2031 0.48438-1.0156 0.45312-0.95312 0.48047-1.1133 0.86719-1.3828 0.99609-1.6211 1.1211-1.2109 1.0977-0.83984 1.082-0.78906 0.75781-0.76953 0.44141-1.4688 2.6641-2.6992 0.65625-0.98828-0.93359-0.71875-1.043-0.38281-0.45312-1.1445-0.074219-1.0273-0.45312-1.2539 0.14453-1.2656 1.3672-0.61328 1.6289-0.53516 0.41797-1.6953 0.3125-1.2695 0.41406-1.0078 0.86719-1.3398 0.71484-1.0898 0.69531-1.125 0.92188-0.75781 0.82031-0.73047 0.21484-1.1953 0.60156-0.95312 0.41797-1.2539 0.69141-0.99219 1.3047-0.16797 0.90625-0.71094 1.2148-0.45703 0.62891-0.96094 1.3281-0.35156 1.1914-0.48828 1.2773-0.58984 1.1562-0.39453 1.7461 0.42188 1.1836 0.14453 1.0742-0.13672 1.2305 0.070313 0.625 0.79297 1.4219-0.29688 2.3359-0.99609 1.3906 0.875 0.97656 0.72266 0.95312-0.32812 0.71484-0.71484 1.6367-0.15234 1.5508-0.66797 1.1289-0.87891 1.2734-0.35938 1.0078-0.53125 1.4453-0.76562 0.84766-0.79297 0.91016-0.90234" fill="none" stroke="#fff" stroke-linecap="round" stroke-linejoin="round" stroke-miterlimit="10"/>
<path d="m118.92 252.9c0 3.5898-2.9102 6.5-6.5 6.5s-6.5-2.9102-6.5-6.5 2.9102-6.5 6.5-6.5 6.5 2.9102 6.5 6.5" fill="#28c028" fill-rule="evenodd" stroke="#000" stroke-linecap="round" stroke-linejoin="round" stroke-miterlimit="10"/>
<path d="m120.18 275.93v-16.328h3.3281v13.547h8.2656v2.7812zm13.281-8.125c0-1.6758 0.25-3.0859 0.75-4.2344 0.375-0.83203 0.88281-1.582 1.5312-2.25 0.64453-0.66406 1.3516-1.1602 2.125-1.4844 1.0312-0.4375 2.2188-0.65625 3.5625-0.65625 2.4141 0 4.3516 0.75781 5.8125 2.2656 1.457 1.5 2.1875 3.5938 2.1875 6.2812 0 2.6562-0.72656 4.7344-2.1719 6.2344-1.4375 1.5-3.3711 2.25-5.7969 2.25-2.4492 0-4.3984-0.74219-5.8438-2.2344-1.4375-1.5-2.1562-3.5547-2.1562-6.1719zm3.4219-0.125c0 1.8672 0.42969 3.2812 1.2969 4.25 0.86328 0.96094 1.957 1.4375 3.2812 1.4375 1.3203 0 2.4062-0.47266 3.25-1.4219 0.85156-0.95703 1.2812-2.3906 1.2812-4.2969 0-1.8945-0.41797-3.3047-1.25-4.2344-0.82422-0.92578-1.918-1.3906-3.2812-1.3906-1.375 0-2.4844 0.47656-3.3281 1.4219-0.83594 0.9375-1.25 2.3516-1.25 4.2344zm25.672 2.2031 3.2344 1.0156c-0.5 1.793-1.3281 3.125-2.4844 4-1.1484 0.875-2.6016 1.3125-4.3594 1.3125-2.1875 0-3.9844-0.74219-5.3906-2.2344-1.4062-1.5-2.1094-3.5469-2.1094-6.1406 0-2.7383 0.70312-4.8633 2.1094-6.375 1.4141-1.5195 3.2812-2.2812 5.5938-2.2812 2.0078 0 3.6445 0.60156 4.9062 1.7969 0.75 0.69922 1.3125 1.7109 1.6875 3.0312l-3.2969 0.78125c-0.19922-0.85156-0.60547-1.5234-1.2188-2.0156-0.61719-0.5-1.3672-0.75-2.25-0.75-1.2188 0-2.2109 0.4375-2.9688 1.3125-0.76172 0.875-1.1406 2.2969-1.1406 4.2656 0 2.0742 0.375 3.5547 1.125 4.4375 0.75 0.88672 1.7227 1.3281 2.9219 1.3281 0.88281 0 1.6445-0.28125 2.2812-0.84375 0.63281-0.5625 1.0859-1.4414 1.3594-2.6406zm6.0625-10.422h3.3125v8.9219c0 1.418 0.039062 2.3359 0.125 2.75 0.14453 0.67969 0.48438 1.2188 1.0156 1.625 0.53906 0.40625 1.2734 0.60938 2.2031 0.60938 0.9375 0 1.6445-0.19141 2.125-0.57812 0.47656-0.38281 0.76562-0.85938 0.85938-1.4219 0.10156-0.5625 0.15625-1.4922 0.15625-2.7969v-9.1094h3.3281v8.6562c0 1.9688-0.09375 3.3672-0.28125 4.1875-0.17969 0.8125-0.50781 1.5-0.98438 2.0625-0.48047 0.5625-1.125 1.0117-1.9375 1.3438s-1.8711 0.5-3.1719 0.5c-1.5742 0-2.7656-0.18359-3.5781-0.54688s-1.4531-0.83203-1.9219-1.4062c-0.46875-0.58203-0.77734-1.1914-0.92188-1.8281-0.21875-0.94531-0.32812-2.3438-0.32812-4.1875zm16.578 16.469v-16.469h4.9844l2.9844 11.234 2.9531-11.234h4.9844v16.469h-3.0938v-12.953l-3.2656 12.953h-3.2031l-3.25-12.953v12.953zm19.219-16.469h6.5781c1.3008 0 2.2695 0.058594 2.9062 0.17188 0.64453 0.10547 1.2188 0.32812 1.7188 0.67188 0.50781 0.34375 0.92969 0.80469 1.2656 1.375 0.34375 0.57422 0.51562 1.2188 0.51562 1.9375 0 0.77344-0.21094 1.4805-0.625 2.125-0.41797 0.63672-0.98047 1.1172-1.6875 1.4375 1 0.29297 1.7656 0.79297 2.2969 1.5 0.53906 0.69922 0.8125 1.5273 0.8125 2.4844 0 0.74219-0.17188 1.4648-0.51562 2.1719-0.34375 0.71094-0.82031 1.2773-1.4219 1.7031-0.60547 0.41797-1.3516 0.67969-2.2344 0.78125-0.55469 0.0625-1.8906 0.10156-4.0156 0.10938h-5.5938zm3.3281 2.75v3.7969h2.1719c1.2891 0 2.0977-0.015625 2.4219-0.046875 0.5625-0.070313 1.0039-0.26953 1.3281-0.59375 0.33203-0.32031 0.5-0.75 0.5-1.2812 0-0.50781-0.14062-0.92188-0.42188-1.2344-0.28125-0.32031-0.69922-0.51953-1.25-0.59375-0.33594-0.03125-1.2812-0.046875-2.8438-0.046875zm0 6.5469v4.3906h3.0781c1.1953 0 1.9531-0.03125 2.2656-0.09375 0.5-0.09375 0.90625-0.3125 1.2188-0.65625s0.46875-0.8125 0.46875-1.4062c0-0.48828-0.12109-0.90625-0.35938-1.25-0.24219-0.34375-0.58984-0.59375-1.0469-0.75-0.44922-0.15625-1.4336-0.23438-2.9531-0.23438zm28.109 7.1719h-3.6094l-1.4375-3.7344h-6.5781l-1.3594 3.7344h-3.5312l6.4062-16.469h3.5156zm-6.1094-6.5156-2.2812-6.1094-2.2188 6.1094zm0 0" fill="none" stroke="#fff" stroke-linecap="round" stroke-linejoin="round" stroke-miterlimit="10" stroke-width="2"/>
<path d="m120.18 275.93v-16.328h3.3281v13.547h8.2656v2.7812zm13.281-8.125c0-1.6758 0.25-3.0859 0.75-4.2344 0.375-0.83203 0.88281-1.582 1.5312-2.25 0.64453-0.66406 1.3516-1.1602 2.125-1.4844 1.0312-0.4375 2.2188-0.65625 3.5625-0.65625 2.4141 0 4.3516 0.75781 5.8125 2.2656 1.457 1.5 2.1875 3.5938 2.1875 6.2812 0 2.6562-0.72656 4.7344-2.1719 6.2344-1.4375 1.5-3.3711 2.25-5.7969 2.25-2.4492 0-4.3984-0.74219-5.8438-2.2344-1.4375-1.5-2.1562-3.5547-2.1562-6.1719zm3.4219-0.125c0 1.8672 0.42969 3.2812 1.2969 4.25 0.86328 0.96094 1.957 1.4375 3.2812 1.4375 1.3203 0 2.4062-0.47266 3.25-1.4219 0.85156-0.95703 1.2812-2.3906 1.2812-4.2969 0-1.8945-0.41797-3.3047-1.25-4.2344-0.82422-0.92578-1.918-1.3906-3.2812-1.3906-1.375 0-2.4844 0.47656-3.3281 1.4219-0.83594 0.9375-1.25 2.3516-1.25 4.2344zm25.672 2.2031 3.2344 1.0156c-0.5 1.793-1.3281 3.125-2.4844 4-1.1484 0.875-2.6016 1.3125-4.3594 1.3125-2.1875 0-3.9844-0.74219-5.3906-2.2344-1.4062-1.5-2.1094-3.5469-2.1094-6.1406 0-2.7383 0.70312-4.8633 2.1094-6.375 1.4141-1.5195 3.2812-2.2812 5.5938-2.2812 2.0078 0 3.6445 0.60156 4.9062 1.7969 0.75 0.69922 1.3125 1.7109 1.6875 3.0312l-3.2969 0.78125c-0.19922-0.85156-0.60547-1.5234-1.2188-2.0156-0.61719-0.5-1.3672-0.75-2.25-0.75-1.2188 0-2.2109 0.4375-2.9688 1.3125-0.76172 0.875-1.1406 2.2969-1.1406 4.2656 0 2.0742 0.375 3.5547 1.125 4.4375 0.75 0.88672 1.7227 1.3281 2.9219 1.3281 0.88281 0 1.6445-0.28125 2.2812-0.84375 0.63281-0.5625 1.0859-1.4414 1.3594-2.6406zm6.0625-10.422h3.3125v8.9219c0 1.418 0.039062 2.3359 0.125 2.75 0.14453 0.67969 0.48438 1.2188 1.0156 1.625 0.53906 0.40625 1.2734 0.60938 2.2031 0.60938 0.9375 0 1.6445-0.19141 2.125-0.57812 0.47656-0.38281 0.76562-0.85938 0.85938-1.4219 0.10156-0.5625 0.15625-1.4922 0.15625-2.7969v-9.1094h3.3281v8.6562c0 1.9688-0.09375 3.3672-0.28125 4.1875-0.17969 0.8125-0.50781 1.5-0.98438 2.0625-0.48047 0.5625-1.125 1.0117-1.9375 1.3438s-1.8711 0.5-3.1719 0.5c-1.5742 0-2.7656-0.18359-3.5781-0.54688s-1.4531-0.83203-1.9219-1.4062c-0.46875-0.58203-0.77734-1.1914-0.92188-1.8281-0.21875-0.94531-0.32812-2.3438-0.32812-4.1875zm16.578 16.469v-16.469h4.9844l2.9844 11.234 2.9531-11.234h4.9844v16.469h-3.0938v-12.953l-3.2656 12.953h-3.2031l-3.25-12.953v12.953zm19.219-16.469h6.5781c1.3008 0 2.2695 0.058594 2.9062 0.17188 0.64453 0.10547 1.2188 0.32812 1.7188 0.67188 0.50781 0.34375 0.92969 0.80469 1.2656 1.375 0.34375 0.57422 0.51562 1.2188 0.51562 1.9375 0 0.77344-0.21094 1.4805-0.625 2.125-0.41797 0.63672-0.98047 1.1172-1.6875 1.4375 1 0.29297 1.7656 0.79297 2.2969 1.5 0.53906 0.69922 0.8125 1.5273 0.8125 2.4844 0 0.74219-0.17188 1.4648-0.51562 2.1719-0.34375 0.71094-0.82031 1.2773-1.4219 1.7031-0.60547 0.41797-1.3516 0.67969-2.2344 0.78125-0.55469 0.0625-1.8906 0.10156-4.0156 0.10938h-5.5938zm3.3281 2.75v3.7969h2.1719c1.2891 0 2.0977-0.015625 2.4219-0.046875 0.5625-0.070313 1.0039-0.26953 1.3281-0.59375 0.33203-0.32031 0.5-0.75 0.5-1.2812 0-0.50781-0.14062-0.92188-0.42188-1.2344-0.28125-0.32031-0.69922-0.51953-1.25-0.59375-0.33594-0.03125-1.2812-0.046875-2.8438-0.046875zm0 6.5469v4.3906h3.0781c1.1953 0 1.9531-0.03125 2.2656-0.09375 0.5-0.09375 0.90625-0.3125 1.2188-0.65625s0.46875-0.8125 0.46875-1.4062c0-0.48828-0.12109-0.90625-0.35938-1.25-0.24219-0.34375-0.58984-0.59375-1.0469-0.75-0.44922-0.15625-1.4336-0.23438-2.9531-0.23438zm28.109 7.1719h-3.6094l-1.4375-3.7344h-6.5781l-1.3594 3.7344h-3.5312l6.4062-16.469h3.5156zm-6.1094-6.5156-2.2812-6.1094-2.2188 6.1094z" fill-rule="evenodd"/>
</g>
</svg>
