<?xml version="1.0" encoding="UTF-8"?>
<svg width="380pt" height="500pt" version="1.1" viewBox="0 0 380 500" xmlns="http://www.w3.org/2000/svg">
<g id="a">
<rect width="380" height="500" fill="none"/>
<path d="m202.86 0.125 0.82812 0.30859 1.0938 0.23438 1.1211 0.03125 0.64844 0.86328-0.92969 0.76172-1.0469-0.16016-0.36328-0.94531-0.95703-0.37891-1.1719 0.10156-1.9258 0.20312-1.5273 0.15625-1.2656-0.16797-1.0742 0.21875-0.82422-0.57422-1.3008-0.003906-1.2695 0.51953-1.0664 0.14062-1.6523-0.003906-1.0156 0.24219-0.76953 0.66406-1.8242-0.058594-1.1836 0.41797-1.0898 0.96094-0.44922 1.0508-0.99609 0.44922-1.125 0.19922-1.0312 0.14062-1.9219 0.48047-1.0078 0.40234 2.7305-0.41016 1.6602-0.09375 1.1289-0.5 0.91016-0.58203 0.60156-1.082 1.2734-0.39453-0.91797 0.49609 1.4141-0.097656 1.1914 0.11328 0.73438 0.85938-1.9336 0.49609-1.0156 0.61328-0.96875 0.80469-0.89062 0.96484 0.47656 0.89062 0.86719 0.53125 1.7461-0.42578 1.3281-0.58594 1.25-0.31641 1.7891-0.46484 1.082-0.20703 1.4922 0.19141 0.98047 0.63672 0.40234 1.1172 0.82812 0.94141-0.27734 1.2344-1.0156 0.20312-1 0.082031-1.0156-0.37891-0.17578 1.1562-1.9258 0.35547 0.27734 1.0508-0.99219 0.42578-0.30078 1.0352 0.15234 1.1289-0.86328 0.60938 1.0625 0.066406 1.0117-0.17578 0.32812 1.7695 1.0586-0.39844 0.57812-1.0117 1.1328-0.51562 1.5039-0.19141 1.1328-0.14453 1.4141-0.5625 2.3633-0.66797-0.80859-0.73828 1.0703-0.45312 1.2578 0.21094 1.0781-0.066406 1.0234-0.12891 0.97656-0.67578 1.5195-0.37109 0.75-0.80859 1.2852-0.85547 2.0703-0.76172 1.1211-0.5 0.93359-0.36719 0.96094-0.30078 0.93359-0.49219 1.1055-0.67188 1.582-0.61719 0.95703-0.625 0.98047-0.31641 13.34 45.566 10.691 37.27 0.60938 2.918 0.027344 1.0273-1.3477-0.9375-1.1875-0.55859-1.0586 0.011719-1.5664-0.52344-1.0078-0.19531-1.0234 0.22656-1.1836 0.13281-1.2227 0.36328-0.72656 0.76172-0.51953 0.89844-0.85938 0.60547-1.2031 0.44141-1.1914-0.042969-0.95703-0.54688-0.62109-0.80469-0.20312-1.0977 0.49219-0.98828-0.875-0.94922-1.1055-0.53906-0.77344-0.72656-0.078125-1.0898-0.55859-0.83203-1.3477 0.15234-1.8125-0.90625-1.4414 0.058594-0.86328-0.54688-0.98438-0.84375-0.97656-0.28906-0.76953-0.65625-1-0.66797-1.2031-0.16797-0.875-0.60156-1.5352-1.1055-2.5977-0.77344-1.043 0.074219-1.2031 0.62109-1.3828 0.53516-1.0234 0.1875-1.1289-0.25391-0.97266-0.62109-1.3828-1.332-1.0469-0.23438-0.98438 0.21875-1.2266-0.30469-1.1602-0.61328-1.0039-0.45312-1.0078-0.078125-1.3086 0.41406-2.3984-0.46484-1.1641-0.34766-1.1797-0.51172-1.1133 0.55859-1.4297 0.96094-1.8516 0.12109-1.6875 0.16797-0.92578-0.39453-1.7305-0.45312-1.4219-0.082031-1.0469-0.26562-3.1289-1.7891-1.2422-0.30859-1.4336 0.24609-2.8281 1.3477-1.7734-0.32031-0.96484-0.48438-1.1094-0.78516-0.63672-0.79297-0.046875-1.4961 0.79297-2.0547 0.92578-2.125 0.125-1.0195-0.70703-0.96094-0.96875-0.39844-2.7109-0.92969-0.78125-1.6016 0.89844-1.3086 1.3672-0.39453 2.0938-0.60938 1.0273-0.47656 0.55859-1.1641-1.8906-1.5742-1.0117-0.89453-1.9922-2.6953-1.5-2.4062-1.4805-2.1602-1.7539-1.9258-2.3047-2-1.582-1.4609-0.55469-1.1953-0.17969-3.5781-0.77344-0.74609-1.4961 0.46094-1.2891-0.57031-0.69922-1.4023-1.5312-0.58984-0.99609-0.62109-0.90625-1.0625-0.23828-1.3672 0.82812-1.2227 0.33203-1.0039 0.085938-1.0938-0.83203-0.82812-0.99219-0.39453-2.0312 0.25-0.96094-0.59375 0.19141-1.7031 0.14844-1.0586 0.89062-1.3828 1.0977-0.66797 3.0391-0.39844 1.2891-0.46094 1.4844-1.418 0.26172-1.0312-0.03125-1.1445-0.79297-1.5938-1.5156-0.22656-2.0781 0.53125-1.1602-0.39844 0.125-2.1836-0.71875-1.5312-1.3906-1.0469-1.293-0.70312-0.77734-1.1992h1.3594l0.64062-1.3906 0.71484-0.91016 0.47266-0.90234 0.18359-1.0234 1.168-0.125 1.1875 0.86719 1.0469 0.19922 1.3164 0.44531 1.0352 0.074219 1.1055 0.3125 1.2266 0.61328-1.5352-0.15625-1.3867-0.44141-1.6172-0.18359-1.2891-0.30469-1.168-0.38672-1.1641 0.51953-0.66797 1.2461-0.53516 0.96094 0.54297 0.86719-0.10938-1.0039 1.0469-0.9375 0.61719-0.80078 1.1484 0.15625 1.0977 0.48828 1.9453 0.98047 1.3242 0.27344-1.0703 0.13281-0.97656-0.60156 0.30469 0.95312 1.1133 0.69922 1.1758 0.39453 1 0.26172 1.1094 0.12891 1.0625 0.24219 1.0664 0.30469 1.2188 0.0625 1.1719-0.085938 1.3281-0.17578-1.0234-0.17578-1-0.042969-1.043-0.19531-1.1758-0.26172-1.0625-0.37109-1.0938-0.32422 1.0898-0.28906 1.0664 0.57031 1.2188 0.32422 1.5234 0.19922h1.0859l1.1523-0.26562 1.0195-0.37109 0.97266-0.35938 1.2656-0.42188 1.0859-0.49609 0.91406-0.71094 0.90234-0.58984 1.1133-0.10938-0.88672 0.82031-1.0352 0.41016-0.81641 0.84375 0.28125 1.1016 0.56641-0.83594 0.86719-0.89844 0.79297-0.66406 1.3633-0.94531 1.0547-0.375 2.332-1.2891 0.92578-0.41797 1.0898-0.42969 1.6953-0.77344 1.5781-0.85547 1.4883-0.50781 1.0859-0.4375 1.3711-0.62891 1.2031-0.41016 1.332-0.65625 1.2461-0.42969 2.1172-0.89062 1.2109-0.39062 2.8281-0.73047 1.4766-0.13281 1.0117-0.19531 1.8789 0.089844 1.8711-0.19141 1.8711-0.070312 2.0312-0.15234h1.332z" fill="#ccc" fill-rule="evenodd"/>
<path d="m202.86 0.125 0.82812 0.30859 1.0938 0.23438 1.1211 0.03125 0.64844 0.86328-0.92969 0.76172-1.0469-0.16016-0.36328-0.94531-0.95703-0.37891-1.1719 0.10156-1.9258 0.20312-1.5273 0.15625-1.2656-0.16797-1.0742 0.21875-0.82422-0.57422-1.3008-0.003906-1.2695 0.51953-1.0664 0.14062-1.6523-0.003906-1.0156 0.24219-0.76953 0.66406-1.8242-0.058594-1.1836 0.41797-1.0898 0.96094-0.44922 1.0508-0.99609 0.44922-1.125 0.19922-1.0312 0.14062-1.9219 0.48047-1.0078 0.40234 2.7305-0.41016 1.6602-0.09375 1.1289-0.5 0.91016-0.58203 0.60156-1.082 1.2734-0.39453-0.91797 0.49609 1.4141-0.097656 1.1914 0.11328 0.73438 0.85938-1.9336 0.49609-1.0156 0.61328-0.96875 0.80469-0.89062 0.96484 0.47656 0.89062 0.86719 0.53125 1.7461-0.42578 1.3281-0.58594 1.25-0.31641 1.7891-0.46484 1.082-0.20703 1.4922 0.19141 0.98047 0.63672 0.40234 1.1172 0.82812 0.94141-0.27734 1.2344-1.0156 0.20312-1 0.082031-1.0156-0.37891-0.17578 1.1562-1.9258 0.35547 0.27734 1.0508-0.99219 0.42578-0.30078 1.0352 0.15234 1.1289-0.86328 0.60938 1.0625 0.066406 1.0117-0.17578 0.32812 1.7695 1.0586-0.39844 0.57812-1.0117 1.1328-0.51562 1.5039-0.19141 1.1328-0.14453 1.4141-0.5625 2.3633-0.66797-0.80859-0.73828 1.0703-0.45312 1.2578 0.21094 1.0781-0.066406 1.0234-0.12891 0.97656-0.67578 1.5195-0.37109 0.75-0.80859 1.2852-0.85547 2.0703-0.76172 1.1211-0.5 0.93359-0.36719 0.96094-0.30078 0.93359-0.49219 1.1055-0.67188 1.582-0.61719 0.95703-0.625 0.98047-0.31641 13.34 45.566 10.691 37.27 0.60938 2.918 0.027344 1.0273-1.3477-0.9375-1.1875-0.55859-1.0586 0.011719-1.5664-0.52344-1.0078-0.19531-1.0234 0.22656-1.1836 0.13281-1.2227 0.36328-0.72656 0.76172-0.51953 0.89844-0.85938 0.60547-1.2031 0.44141-1.1914-0.042969-0.95703-0.54688-0.62109-0.80469-0.20312-1.0977 0.49219-0.98828-0.875-0.94922-1.1055-0.53906-0.77344-0.72656-0.078125-1.0898-0.55859-0.83203-1.3477 0.15234-1.8125-0.90625-1.4414 0.058594-0.86328-0.54688-0.98438-0.84375-0.97656-0.28906-0.76953-0.65625-1-0.66797-1.2031-0.16797-0.875-0.60156-1.5352-1.1055-2.5977-0.77344-1.043 0.074219-1.2031 0.62109-1.3828 0.53516-1.0234 0.1875-1.1289-0.25391-0.97266-0.62109-1.3828-1.332-1.0469-0.23438-0.98438 0.21875-1.2266-0.30469-1.1602-0.61328-1.0039-0.45312-1.0078-0.078125-1.3086 0.41406-2.3984-0.46484-1.1641-0.34766-1.1797-0.51172-1.1133 0.55859-1.4297 0.96094-1.8516 0.12109-1.6875 0.16797-0.92578-0.39453-1.7305-0.45312-1.4219-0.082031-1.0469-0.26562-3.1289-1.7891-1.2422-0.30859-1.4336 0.24609-2.8281 1.3477-1.7734-0.32031-0.96484-0.48438-1.1094-0.78516-0.63672-0.79297-0.046875-1.4961 0.79297-2.0547 0.92578-2.125 0.125-1.0195-0.70703-0.96094-0.96875-0.39844-2.7109-0.92969-0.78125-1.6016 0.89844-1.3086 1.3672-0.39453 2.0938-0.60938 1.0273-0.47656 0.55859-1.1641-1.8906-1.5742-1.0117-0.89453-1.9922-2.6953-1.5-2.4062-1.4805-2.1602-1.7539-1.9258-2.3047-2-1.582-1.4609-0.55469-1.1953-0.17969-3.5781-0.77344-0.74609-1.4961 0.46094-1.2891-0.57031-0.69922-1.4023-1.5312-0.58984-0.99609-0.62109-0.90625-1.0625-0.23828-1.3672 0.82812-1.2227 0.33203-1.0039 0.085938-1.0938-0.83203-0.82812-0.99219-0.39453-2.0312 0.25-0.96094-0.59375 0.19141-1.7031 0.14844-1.0586 0.89062-1.3828 1.0977-0.66797 3.0391-0.39844 1.2891-0.46094 1.4844-1.418 0.26172-1.0312-0.03125-1.1445-0.79297-1.5938-1.5156-0.22656-2.0781 0.53125-1.1602-0.39844 0.125-2.1836-0.71875-1.5312-1.3906-1.0469-1.293-0.70312-0.77734-1.1992h1.3594l0.64062-1.3906 0.71484-0.91016 0.47266-0.90234 0.18359-1.0234 1.168-0.125 1.1875 0.86719 1.0469 0.19922 1.3164 0.44531 1.0352 0.074219 1.1055 0.3125 1.2266 0.61328-1.5352-0.15625-1.3867-0.44141-1.6172-0.18359-1.2891-0.30469-1.168-0.38672-1.1641 0.51953-0.66797 1.2461-0.53516 0.96094 0.54297 0.86719-0.10938-1.0039 1.0469-0.9375 0.61719-0.80078 1.1484 0.15625 1.0977 0.48828 1.9453 0.98047 1.3242 0.27344-1.0703 0.13281-0.97656-0.60156 0.30469 0.95312 1.1133 0.69922 1.1758 0.39453 1 0.26172 1.1094 0.12891 1.0625 0.24219 1.0664 0.30469 1.2188 0.0625 1.1719-0.085938 1.3281-0.17578-1.0234-0.17578-1-0.042969-1.043-0.19531-1.1758-0.26172-1.0625-0.37109-1.0938-0.32422 1.0898-0.28906 1.0664 0.57031 1.2188 0.32422 1.5234 0.19922h1.0859l1.1523-0.26562 1.0195-0.37109 0.97266-0.35938 1.2656-0.42188 1.0859-0.49609 0.91406-0.71094 0.90234-0.58984 1.1133-0.10938-0.88672 0.82031-1.0352 0.41016-0.81641 0.84375 0.28125 1.1016 0.56641-0.83594 0.86719-0.89844 0.79297-0.66406 1.3633-0.94531 1.0547-0.375 2.332-1.2891 0.92578-0.41797 1.0898-0.42969 1.6953-0.77344 1.5781-0.85547 1.4883-0.50781 1.0859-0.4375 1.3711-0.62891 1.2031-0.41016 1.332-0.65625 1.2461-0.42969 2.1172-0.89062 1.2109-0.39062 2.8281-0.73047 1.4766-0.13281 1.0117-0.19531 1.8789 0.089844 1.8711-0.19141 1.8711-0.070312 2.0312-0.15234h1.332l1.168 0.125" fill="none" stroke="#fff" stroke-linecap="round" stroke-linejoin="round" stroke-miterlimit="10" stroke-width="2"/>
<path d="m140.34 9.3086 0.125 0.15625-0.89453 1.0586-0.23047 1.8164 1.75 1.0391 1.293 0.70312 1.3906 1.0469 0.55859 0.85156-0.03125 2.3711 1.2266 0.89062 1.1758-0.25391 1.7227-0.23438 1.2031 0.83984 0.31641 2.082-0.26172 1.0312-0.89844 0.97266-1.875 0.90625-2.2109 0.19141-1.9258 0.875-0.89062 1.3828-0.14844 1.0586-0.23828 1.1602 0.4375 0.96094 1.7305 0.03125 1.8633 0.28906 0.83203 0.82812-0.085938 1.0938-0.33203 1.0039-0.82812 1.2227 0.23828 1.3672 0.90625 1.0625 0.99609 0.62109 1.5312 0.58984 0.60156 1.0117 0.83594 0.92969 2.0469-0.42969 0.77344 0.74609 0.17969 3.5781 0.55469 1.1953 1.582 1.4609 2.3047 2 1.7539 1.9258 1.4805 2.1602 1.5 2.4062 1.9922 2.6953 1.0117 0.89453 1.4023 0.9375 0.49609 1.0898-1.5938 1.1875-2.0938 0.60938-1.3672 0.39453-0.89844 1.3086 0.11328 1.043 3.3789 1.4883 0.96875 0.39844 0.70703 0.96094-0.125 1.0195-0.85156 1.9531-0.86719 2.2266 0.046875 1.4961 0.63672 0.79297 1.0156 0.70312 1.0586 0.56641 1.7734 0.32031 3.25 0.49609 0.96484 0.36719 1.375 0.59375 2.1328 1.1797 1.5273 1.5273 0.59766 1.1289 0.56641 1.332 0.074219 1.6484-1.5078 0.51953-2.0547-0.22656-1.2656 0.48438-0.035156 1.5234 0.46094 1.082 2.1289 2.9727-2.9688 0.49609-1.9883 0.83984-1.3438-0.015625-1.0117 0.36328-1.6094 1.2852-1.9727 2.3398-0.92188 0.5625-1.0078 1.0156-0.9375 0.4375-0.72266 0.78125-0.88281 0.92578-1.6016 0.3125-1.1289 0.35547-1.0508 0.37109-1.2812 0.73047-1.0898 0.19531-1.3516 0.56641-1.0898 0.42578-1.0156 1.2773-0.44141 1.2773 0.35547 1.0898-1.2812 1.1172-1.2852-0.074219-1.2891 0.35547-1.0078 0.31641-0.96484 0.89062-1 0.007812-1.7188 0.44531-0.82812 1.3359-0.13672 1.0352-1.4375 0.80469-1.4414 1.1016-0.74609 1.7578-0.67188 1.5312-1.2109 1.5625-0.65234 1.168-1.3203 1.5586-0.81641 2.0938-0.60547 0.8125-0.92578 0.70312-1.0273 0.42578-1.0508-0.56641-1.25-0.011719-1.7383 0.42188-1.1289 0.79688-1.0352 0.82812-1.0078 0.54297-1.0625-0.57812-1.7578-0.17969-1.0391-0.35938-0.83203-0.91016-0.42578-0.97266-0.29688-3.2422-0.21875-0.98438-0.54688-0.90234-2.0273-1.1328-2.0586-1.8789-1.9844-1.6406-1.25-0.57422-1.875-1.2656-0.91016-0.96484-1.3711-0.38281-2.3203-0.65234-0.92578-1.4336-0.91797-1.0547-0.10156-1.1562 0.17188-1.1211 0.91797-0.96484 1.9609-0.83203 1.4492-1.5 0.72656-1.1836 1.2344-0.64844 0.80859-1.0078 0.11328-1.6914-0.066406-1.1484-0.050781-1.3359-0.73828-0.68359-1.0469 0.5-1.1367-0.67969-0.5625-1.7188 0.35547-1.1406-0.63672-1.3594-0.78906-0.8125-0.30078-1.1719-1.0938-1.1094-0.95703-1.1133-0.69922-1.4961-0.20312-1.0781-0.10156-1.9961-0.21484-1.2305-0.64844-1.3164 0.78516-1.0117 1.0391-1.6953 1.4492-2.0508 0.92969-1.6953 1.6914-2.4844 1.2148-1.7305 0.62109-1.2305 1.6875-2.9414 1.0391-2.0391 1.0156-2.2422 1.1367-1.832 0.70312-1.707 1.1523-2.7734 0.44531-1.332 0.65625-1.4727 1.6836-2.8789 0.81641-1.6406 0.63281-1.4219 0.89062-1.5273 0.47266-1.1016 0.6875-1.3398 1.6758-3.2734 0.89062-2.3164 0.41797-1.2422 0.70312-1.6367 1.7422-3.9141 0.47266-0.88281 0.79297-1.2383 0.41797-1.0586 0.8125-1.4219 0.58203-1.2188 1.5664-2.5352 0.92578-2.0156 1.0508-1.8203 0.82422-1.4883 2.0078-3.0898 1.4492-2.0664 0.71094-0.98438 0.8125-0.82422z" fill="#ccc" fill-rule="evenodd"/>
<path d="m140.34 9.3086 0.125 0.15625-0.89453 1.0586-0.23047 1.8164 1.75 1.0391 1.293 0.70312 1.3906 1.0469 0.55859 0.85156-0.03125 2.3711 1.2266 0.89062 1.1758-0.25391 1.7227-0.23438 1.2031 0.83984 0.31641 2.082-0.26172 1.0312-0.89844 0.97266-1.875 0.90625-2.2109 0.19141-1.9258 0.875-0.89062 1.3828-0.14844 1.0586-0.23828 1.1602 0.4375 0.96094 1.7305 0.03125 1.8633 0.28906 0.83203 0.82812-0.085938 1.0938-0.33203 1.0039-0.82812 1.2227 0.23828 1.3672 0.90625 1.0625 0.99609 0.62109 1.5312 0.58984 0.60156 1.0117 0.83594 0.92969 2.0469-0.42969 0.77344 0.74609 0.17969 3.5781 0.55469 1.1953 1.582 1.4609 2.3047 2 1.7539 1.9258 1.4805 2.1602 1.5 2.4062 1.9922 2.6953 1.0117 0.89453 1.4023 0.9375 0.49609 1.0898-1.5938 1.1875-2.0938 0.60938-1.3672 0.39453-0.89844 1.3086 0.11328 1.043 3.3789 1.4883 0.96875 0.39844 0.70703 0.96094-0.125 1.0195-0.85156 1.9531-0.86719 2.2266 0.046875 1.4961 0.63672 0.79297 1.0156 0.70312 1.0586 0.56641 1.7734 0.32031 3.25 0.49609 0.96484 0.36719 1.375 0.59375 2.1328 1.1797 1.5273 1.5273 0.59766 1.1289 0.56641 1.332 0.074219 1.6484-1.5078 0.51953-2.0547-0.22656-1.2656 0.48438-0.035156 1.5234 0.46094 1.082 2.1289 2.9727-2.9688 0.49609-1.9883 0.83984-1.3438-0.015625-1.0117 0.36328-1.6094 1.2852-1.9727 2.3398-0.92188 0.5625-1.0078 1.0156-0.9375 0.4375-0.72266 0.78125-0.88281 0.92578-1.6016 0.3125-1.1289 0.35547-1.0508 0.37109-1.2812 0.73047-1.0898 0.19531-1.3516 0.56641-1.0898 0.42578-1.0156 1.2773-0.44141 1.2773 0.35547 1.0898-1.2812 1.1172-1.2852-0.074219-1.2891 0.35547-1.0078 0.31641-0.96484 0.89062-1 0.007812-1.7188 0.44531-0.82812 1.3359-0.13672 1.0352-1.4375 0.80469-1.4414 1.1016-0.74609 1.7578-0.67188 1.5312-1.2109 1.5625-0.65234 1.168-1.3203 1.5586-0.81641 2.0938-0.60547 0.8125-0.92578 0.70312-1.0273 0.42578-1.0508-0.56641-1.25-0.011719-1.7383 0.42188-1.1289 0.79688-1.0352 0.82812-1.0078 0.54297-1.0625-0.57812-1.7578-0.17969-1.0391-0.35938-0.83203-0.91016-0.42578-0.97266-0.29688-3.2422-0.21875-0.98438-0.54688-0.90234-2.0273-1.1328-2.0586-1.8789-1.9844-1.6406-1.25-0.57422-1.875-1.2656-0.91016-0.96484-1.3711-0.38281-2.3203-0.65234-0.92578-1.4336-0.91797-1.0547-0.10156-1.1562 0.17188-1.1211 0.91797-0.96484 1.9609-0.83203 1.4492-1.5 0.72656-1.1836 1.2344-0.64844 0.80859-1.0078 0.11328-1.6914-0.066406-1.1484-0.050781-1.3359-0.73828-0.68359-1.0469 0.5-1.1367-0.67969-0.5625-1.7188 0.35547-1.1406-0.63672-1.3594-0.78906-0.8125-0.30078-1.1719-1.0938-1.1094-0.95703-1.1133-0.69922-1.4961-0.20312-1.0781-0.10156-1.9961-0.21484-1.2305-0.64844-1.3164 0.78516-1.0117 1.0391-1.6953 1.4492-2.0508 0.92969-1.6953 1.6914-2.4844 1.2148-1.7305 0.62109-1.2305 1.6875-2.9414 1.0391-2.0391 1.0156-2.2422 1.1367-1.832 0.70312-1.707 1.1523-2.7734 0.44531-1.332 0.65625-1.4727 1.6836-2.8789 0.81641-1.6406 0.63281-1.4219 0.89062-1.5273 0.47266-1.1016 0.6875-1.3398 1.6758-3.2734 0.89062-2.3164 0.41797-1.2422 0.70312-1.6367 1.7422-3.9141 0.47266-0.88281 0.79297-1.2383 0.41797-1.0586 0.8125-1.4219 0.58203-1.2188 1.5664-2.5352 0.92578-2.0156 1.0508-1.8203 0.82422-1.4883 2.0078-3.0898 1.4492-2.0664 0.71094-0.98438 0.8125-0.82422 0.38672-0.027344" fill="none" stroke="#fff" stroke-linecap="round" stroke-linejoin="round" stroke-miterlimit="10" stroke-width="2"/>
<path d="m101.71 81.238 0.28516 0.58984 0.21484 1.2305 0.03125 1.0781 0.27344 1.9961 0.69922 1.4961 0.95703 1.1133 1.0938 1.1094 0.14844 1.0234 0.94141 0.96094 0.63672 1.3594-0.35547 1.1406 0.42188 1.3359 0.61328 0.94531 1.3906-0.375 1.0586 0.67578 0.050781 1.3359 0.066406 1.1484 0.20703 1.0977-0.51953 1.3398-1.2422 0.70312-1.1172 0.84766-1.6602 2.043-1.1016 0.53125-1.2031 0.60547-0.74609 1.7812 0.10156 1.1562 0.62891 0.875 0.67969 0.89062 2.2969 1.3281 1.5469 0.13672 0.91406 0.76953 1.5781 1.2812 1.9258 1.0469 1.7891 1.4805 2.2539 2.0391 1.2422 0.69531 1.332 1.3398 0.21875 0.98438 0.29688 3.2422 0.42578 0.97266-1.168 2.6562-1.457 1.9062-0.30859 1.2266-0.14844 1.1094-1.0273 1.6445-1.2461 0.70312-1.082 0.54297-0.94531 0.70703-1.2695 0.82031-1.7031 1.3516-0.42969 1.2617-0.91016 2.0859-1.2891 2.9414 0.28516 1.6211-0.47656 1.082-1.0156 1-0.60547 1.3047 0.035157 1.0742 0.29297 1.1836 0.51562 2.1289-0.125 1.4141-1.4297 1.4648-1.0664 1.6641-0.49609 1.7812-0.77734 1.3477-0.023437 1.0586 0.29297 1.0195-0.15625 1.2656-1 0.10156-1.5039-0.066406-0.79297-0.61328-0.72656-0.71484-1.3125-0.20312-1.9219 1.0625-1 0.3125-0.91797-1.0977-1.4453-1.293-1.1719 0.14062-1.6094-0.21875-1.2031 0.75-1.8164-1.2188-1.5039-1.2734 0.28516-1.3359 0.37891-1.5508 0.20312-1.9219-0.49609-1.1914-0.078125-1.2227 1.543-1.4023 0.64844-0.98438 0.46094-1.8984 0.34766-1.0195-1.3906-1.1562-0.95703-0.76172-0.41016-1.2148-0.35156-1.4336-0.94922-0.53906-1.6367-0.55078-1.5078-1.2969-0.67188-2.2031-0.64062-2.1445 0.007812-1.2227-1.4492-0.79688-0.71094-0.84766-0.75-0.78125-1.1797-0.61719-0.33984-1.1562-1.1055-0.53516-0.70703-1.1133 0.73047-2.1953 1.4766-1.5898-0.71094-1.3086-1.2031-0.53906-1.0469-0.36328-1.2188-0.49609-1.4023-0.20703-0.86328-0.89453 0.78516-1.2617 0.72656-1.2305 0.14062-1.3047 0.54297-1.2031-0.32422-0.96484-0.33594-1-0.44922-1.0312-1.168-1.6289-0.46875-0.95312 0.37891-1.1445 2.3711-1.5078 1-0.74219 0.16016-1.6836-0.96875-2.4375-1.4141-1.9102-1.2695-1.5625 1.1289-0.66797 1.2461-0.26172 1.168 0.46875 1.4023 0.50391 1.0742 0.054688 1.7031-0.66016 1.125-0.58984 1.7539-0.070313 1.0117 0.40234 2.7578 0.15625 0.99219-0.48438 0.9375-0.57422 1.0664-0.80469 0.85156-0.73047 0.90234-0.78125 0.99609-1.0234 1.1523-1.1367 1.8203-2.2969 1.5312-1.7422 0.96875-1.2773 1.2109-1.4141 1.2695-1.7109 0.81641-1.0039 1.2227-1.5078 2.2656-3.2109z" fill="#ccc" fill-rule="evenodd"/>
<path d="m101.71 81.238 0.28516 0.58984 0.21484 1.2305 0.03125 1.0781 0.27344 1.9961 0.69922 1.4961 0.95703 1.1133 1.0938 1.1094 0.14844 1.0234 0.94141 0.96094 0.63672 1.3594-0.35547 1.1406 0.42188 1.3359 0.61328 0.94531 1.3906-0.375 1.0586 0.67578 0.050781 1.3359 0.066406 1.1484 0.20703 1.0977-0.51953 1.3398-1.2422 0.70312-1.1172 0.84766-1.6602 2.043-1.1016 0.53125-1.2031 0.60547-0.74609 1.7812 0.10156 1.1562 0.62891 0.875 0.67969 0.89062 2.2969 1.3281 1.5469 0.13672 0.91406 0.76953 1.5781 1.2812 1.9258 1.0469 1.7891 1.4805 2.2539 2.0391 1.2422 0.69531 1.332 1.3398 0.21875 0.98438 0.29688 3.2422 0.42578 0.97266-1.168 2.6562-1.457 1.9062-0.30859 1.2266-0.14844 1.1094-1.0273 1.6445-1.2461 0.70312-1.082 0.54297-0.94531 0.70703-1.2695 0.82031-1.7031 1.3516-0.42969 1.2617-0.91016 2.0859-1.2891 2.9414 0.28516 1.6211-0.47656 1.082-1.0156 1-0.60547 1.3047 0.035157 1.0742 0.29297 1.1836 0.51562 2.1289-0.125 1.4141-1.4297 1.4648-1.0664 1.6641-0.49609 1.7812-0.77734 1.3477-0.023437 1.0586 0.29297 1.0195-0.15625 1.2656-1 0.10156-1.5039-0.066406-0.79297-0.61328-0.72656-0.71484-1.3125-0.20312-1.9219 1.0625-1 0.3125-0.91797-1.0977-1.4453-1.293-1.1719 0.14062-1.6094-0.21875-1.2031 0.75-1.8164-1.2188-1.5039-1.2734 0.28516-1.3359 0.37891-1.5508 0.20312-1.9219-0.49609-1.1914-0.078125-1.2227 1.543-1.4023 0.64844-0.98438 0.46094-1.8984 0.34766-1.0195-1.3906-1.1562-0.95703-0.76172-0.41016-1.2148-0.35156-1.4336-0.94922-0.53906-1.6367-0.55078-1.5078-1.2969-0.67188-2.2031-0.64062-2.1445 0.007812-1.2227-1.4492-0.79688-0.71094-0.84766-0.75-0.78125-1.1797-0.61719-0.33984-1.1562-1.1055-0.53516-0.70703-1.1133 0.73047-2.1953 1.4766-1.5898-0.71094-1.3086-1.2031-0.53906-1.0469-0.36328-1.2188-0.49609-1.4023-0.20703-0.86328-0.89453 0.78516-1.2617 0.72656-1.2305 0.14062-1.3047 0.54297-1.2031-0.32422-0.96484-0.33594-1-0.44922-1.0312-1.168-1.6289-0.46875-0.95312 0.37891-1.1445 2.3711-1.5078 1-0.74219 0.16016-1.6836-0.96875-2.4375-1.4141-1.9102-1.2695-1.5625 1.1289-0.66797 1.2461-0.26172 1.168 0.46875 1.4023 0.50391 1.0742 0.054688 1.7031-0.66016 1.125-0.58984 1.7539-0.070313 1.0117 0.40234 2.7578 0.15625 0.99219-0.48438 0.9375-0.57422 1.0664-0.80469 0.85156-0.73047 0.90234-0.78125 0.99609-1.0234 1.1523-1.1367 1.8203-2.2969 1.5312-1.7422 0.96875-1.2773 1.2109-1.4141 1.2695-1.7109 0.81641-1.0039 1.2227-1.5078 2.2656-3.2109 0.89844 0.035156" fill="none" stroke="#fff" stroke-linecap="round" stroke-linejoin="round" stroke-miterlimit="10" stroke-width="2"/>
<path d="m182.53 115.98 1.2344 0.16797 2.625-0.41797 1.7812-0.12891 0.85156 0.70312 1.0391 0.70312 1.0938 0.24219 1.2617 0.11328 0.22266 1.3711 0.6875 1.1133 1.0781 0.23047 0.98438 0.65234 0.74219 0.88281 0.875 0.56641 1.1484-0.12109 1.0156 1.6211 1.9531 1.3711 1.0469 0.5625 0.92578 0.39453 0.98047 0.24219 2.3008 0.5625 1.4648 0.36328 1.6641-0.35156 0.98828-0.32422 1.2969-0.12109 1.1406 0.29297 1.3086 0.09375 1.5352-0.82812 1.4688-0.45312 1.8633-0.11328 1.4688-0.16797 3.6133 0.22656 1.2969-0.22656 1.9766-0.56641 1.5781-0.28125 1.6406-0.16797 1.6367 0.28125 1.3516 1.4688 0.56641 1.0156 1.3672 0.80859 1.4414 0.38281 1.0859 0.13281 0.96094 0.82031 3.5625 2.6094 1.2734 1.1133 0.12891 1.0039 0.34766 1.2852 0.78125 1.4336 0.96484 1.7969 1.5938 3.418 0.90625 0.78125 0.44141 0.96094 1.3555 1.9805 0.38281 1.2695 4.2461 3.1172 1 1.4805-0.42969 1.3047-0.14062 1.2227 0.47656 1.9883 1.1602 2.3711 0.62109 1.7617 0.10938 1.3203 0.50781 1.0352 0.92578 0.875 1.9375 1.2227 0.47656 0.92188 1.4961 3.0547 0.23828 1.1445-0.34766 2.5742-0.066406 1.9414 0.28906 1.4492 1.2422 0.67578 0.28125 1.4219-0.0625 2.082 0.52734 1.2891-0.042969 1.3398-0.52344 0.94141-0.15234 2.4766-0.11719 1.9258-0.23828 1.5156 0.79297 0.91406 1.2344-0.039063 1.1602 0.42969 0.43359 1.0703 1.3008 1.043 1.6992 0.97266 1.2383 1.0977 0.82031 0.74609 0.71484 1.1133 0.46094 0.9375 0.60547 0.91406 0.76953 0.73047 1.0508 0.94531 0.98828 0.35156 1.3125 0.11328 0.23438 1.0352 0.76953 0.95703 0.9375 0.50391 0.67188 0.74609-0.49609 0.92188-0.39453 0.97656 0.98047 0.61328 0.83203 0.79688 0.91797 0.70703 1.0273 0.5 0.99219 1.0156 1.5156 0.25781 0.84766 0.72656 0.67578 0.73828 0.20703 1.0078 0.41406 1.1836 0.99219 0.32422 1.0234 0.22266 0.46094 1.0156 0.14062 1.0703-0.39844 0.92578 0.50391 0.88281 1.0508-0.039062 0.21875 1.0156 0.39062 0.97656 0.089844 1.2109 1.0273 1.8125 0.75391 0.96875 1.3242 0.74219 1.2344 0.58984 0.88672 0.48828 0.44922 1.0977 0.73438 0.80469 0.49219 0.96094 0.58984 1.6484 0.054688 1.0625 0.63672 1.25-0.20703 1.5273-1.5586 1.6055-0.22266 1.5273 0.58984 1.2383 1.207 1.2578 1.0391 1.0781 0.53516 1.4805-0.44531 2.5312 0.046875 1.6992 0.42969 3.1641-0.33203 2.5781-0.35156 1.0156-0.20703 1.1289 0.92188 0.89844 0.71094 1.0586-1.3828 2.2773-1.9883 1.1367-0.77344 0.70312-0.59766 1.0938-1.1055 0.97656-0.59375 1.3906 0.54688 1.2344-0.86328 1.5508-0.67578 0.76172 0.88281 0.76172 1.1484-0.039062 0.91797 1.082-0.50391 0.89062-0.48047 1.3359-0.47266 0.88672 0.09375 1.1055 1.2148-0.035156 0.76953 0.65625-0.44141 1.3086 0.5625 1.2031-0.10547 1.4297-0.12891 1.0156 1.0078 0.27344 0.92188-0.48828 1.2422-0.43359 0.94922 0.48047 1.3633-0.73828 0.65625-0.83203 1.1562 0.19531 1.2969-0.10156 1.0938-1.2031 1.0195-0.30469 1.0156 0.55469 0.66016 0.75391 0.61328 1.4023 1.1758 0.64844 1.3047 0.98828 0.82031 0.90234 1.293 0.31641 0.26562-1.3242 1.3438 0.44922 1.4844-0.69531 1.1406 0.17188 1.4062-0.96094 1.5039-0.70703 1.0547-0.074219 0.21484 1.4492-0.39453 1.2227h1.1406l1.1836 0.34766 1.2852 0.58984-0.0625-1.4062 0.33594-1 0.93359-0.36328 1.082 0.34375 0.20312 1.1602 1.3359 0.74219-0.085937 1.3047 1 0.34766 0.92188-0.62891 0.81641 0.91016 0.86328 0.51172 1.0547-0.49219 1.1172 0.125 0.97656 0.70312 0.32031-1.2578 0.62109 1.0703 0.97656 1.1172 0.46484 0.96875-0.45312 0.92578-0.59375 0.82422 0.66016 0.80078 1.1562 0.55469 0.79688 0.72266 0.93359 0.62109 0.53516 1.1094 1.3516 0.24219 0.82031 0.69922 0.95703-0.64844 1.2891 0.23047 1.1172 1.2344 0.91016 0.47266-0.32422 1.2852-1.082 0.51562-1.0234 0.60156-0.70703 0.92188 0.66797 0.76172 0.019531 1.0078-0.82812 1.0039-0.73047 1.4219-1.3398 1.5312-1.0977 0.76953-1.9102 1.3008-0.75781 0.71484-0.69531 1.0625-0.73438 0.85547-0.88672 0.66797-0.92969 0.70312-1.5977 0.89453-1.6719 0.88281-1.2734 0.76953-1.2461 0.375-1.0352-0.14453-1.4102 0.51953-1.3477 1.8086-0.82812 0.89062-0.90234 0.54688-1.1367-0.16797 0.019531-1.1992 0.60156-0.83984-0.62109-0.96875-1.293-0.44141-1.0938 0.10156-1.332 0.46875-0.90625 0.72266-1.1289 0.52734-1.25 0.12109-0.91016-0.80469-0.59375-1.2031-0.1875-1.1094-0.73047-0.75391-0.98047-0.23438-0.91406 0.87891-0.25 1.6211-0.097657 1.1836-1.2812 0.30078-0.96484 0.54688-0.75 1.3086-0.046875 1.7461 0.73047 1.0938 1.7539-0.035156 0.40625 0.97266-0.97266 0.51953-1.0898 0.5625-0.71875 0.69922-0.64844 1.918-0.82422 0.58203-1.2109 0.12109-1.3125 0.20312-0.80469 0.92188 0.09375 1.3711-0.71484 0.73438-0.62109 0.90234-0.47656 1.3828-0.99219 0.55469-1.0391 0.39453-0.91016 0.8125-0.25 1.1367-0.22656 0.99219-0.44141 1.1211-0.30859 0.97266-0.066407 1.2344 0.054688 1.0312-0.92969 0.96484-0.80859 0.90234-0.58594 0.91016-0.33203 1.4141-0.51172 0.99219-0.83594 1.1953-1.0898 0.64062-1.0742 0.38672-0.82422 0.60547-0.47266 1.1094-1.1133 1.4414-1.6211 1.2969-0.95312 0.35547-1.2305-0.078125-1.0586 0.070312-1.332 0.40625-1.7422 0.75781-1.0586 1.2109-1.0781 0.48047-1.3047-0.49609-1.0156-0.41016-1.3008 0.61328-1.1289 0.57812-1.0859 0.85547-0.95703 0.87109-0.92578 0.57031-1.5234 0.63672-1.9141-0.41797-0.97266-0.49609-1.0742-0.64062-0.91406-0.625-0.8125-0.6875-1.1094-0.34375-1.1094-0.14062-1.7656-0.37891-1.1328 0.054688-1.7383 0.007812-1.7266-0.22266-1.9141 0.027344-1.25-0.47266-0.91797-1.1289-1.0195-0.95703-0.61719-1.0781-0.082031-1.1328-0.039062-1.5898-0.53906-0.94531-1.3281-0.48828-1.2773-0.55469-1.5898-1.8828-1.0859-1.2109-0.89062-1.2305-1.293-0.042969-1.3789 1.1211-0.85547 0.72266-1.1289 0.035156-2.7578 0.046875-1.3125-0.11719-0.99609-0.26562-1.2422-0.85156-1.2539-1.8203-0.98438-1.8906-0.66797-1.0664-1.1328-1.1836-1.3125-0.94141-1.2773-0.69141-1.2031-0.14062-1.0938 0.30859-2.2617 1.3711-1.1562 1.0039-1.1445 1.2539-0.67578 0.93359-1.4141 0.17969-1.6406-0.78125-1.3477-0.38672-1.9062 0.17188-2.0039 0.097656-1.8086-0.39453-1.3281-0.84766-1.4766-0.80469-0.95703-0.75781-0.75781-1.1562-0.37891-1.293-0.48438-1.2148 0.058593-1.6055-0.61328-1.418-0.78906-0.69531-0.91797-0.95312 0.25781-1.3828 0.066407-1.1445-0.61328-1.4336-0.77734-0.72656-0.78516-1.1953-0.45703-1.2773-0.54688-1.1914-1.4531-1.9531-0.71094-0.88281-0.75391-0.75391-1.5938-0.875-1.2578-0.33594-1.0469-0.73438-1.2969-0.21484-1.0898-0.003906-1.2109-0.17578-1.3242-0.39453-1.3477-0.33984-2.1133 0.375-1.5898 0.14453-1.7109-0.33984-0.98828-0.85938-0.875-1.0703-1.1562-0.47656-2.0898 0.55469-1.0117 0.60938-0.96875-0.40625 0.15234-1.3047 0.55469-1.6523 0.52734-0.91016-0.27734-1.125-0.71094-0.85156 0.42188-1.582-0.14062-1.1953-1.3828-0.046875-2.0508 0.51953-0.26172-1.457 0.76953-1.4102-0.38672-1.1016-1.4844-0.60156-1.7656 0.007812-1.2695-0.19531-1.0352-1.3242-0.51562-1.0469-0.13281-1.1289 0.078125-1.2227 0.16797-1.0312-0.1875-0.98828-1.168-0.58984-1.418 0.62891-1.1406-0.26172-0.16016-1.6406 0.38672-1.0586-0.21484-1.4766-1.0898-1.1836-1.0234-0.51953-1.543-0.30859-1.0898-0.32812-2.1953-0.23438-1.0586 0.46094-0.95312 0.71875-1.7461 0.26562-1.0625-0.45312-0.82031-0.96875 0.125-1.6914 0.16016-1.0703-0.96875-0.92188-1.0234-0.19922-0.58984-1.0195-0.050781-1.3555 0.13281-1.2031-1.3555-0.92969-0.74219-0.69141-0.67969-1.5586 0.78516-1.5117 0.91016-0.94922 0.60156-0.86719 0.72266-0.75 0.74609-1.168-0.65234-0.98828-0.61719-0.98828 1.2461-2.0273 0.50781-1.0078 0.35938-2.4141 0.65625-0.78125 1.5156-0.51562 1.0625-0.44531 0.77734-1.2109 0.039063-1.1133-0.94141-0.79297-0.92578-0.625-0.83984-0.64844-0.45312-1.0312 0.98047-0.8125 1.5898-0.65625 1.2344-0.28906 1.1055 0.76953 1.1211-0.17969 1.043-0.91797 0.96875-0.43359 1.8125 0.49609 1.9258-0.62891 1.2773-0.46875 1.4883-0.88672 1.5586-1.5859 0.82031-0.65234 1.0625-0.59766 0.96875-0.66016 0.79688-0.75391 1.1562-0.96875 1.1523-0.79297 0.76172-0.69922 0.54297-1.1016-0.12109-1.5469-0.046875-1.2266 0.26172-1.3086-0.52734-1.0859-1.0078-0.22656-1.1953 0.14062-1.3711-0.80469-0.86719-0.58203-1.0859-1.2578-1.457-0.94531-1.1836-0.8125-1.1016-1.4375-1.4922-0.73828-1.7852-0.40234-1.8516-0.51953-1.3672-0.40234-1.7031-0.44531-1.5586-0.66797-1.418-0.67578-1.2617-0.47656-1.1133-0.48438-1.5039-0.72266-1.4336-0.90625-1.1797-0.54688-1.9805-1.5234-2.293-1.2695-1.1562-0.72266-1.0234-0.94922-0.16406-1.6406 0.78906-1.0078 0.66016-0.80859 1.0742-0.67188 1.207-0.042968 2.1094 1.207 0.49609 1 0.90625 0.58984 1.7695 0.59766 0.94531 0.42969 1.375-0.023437 1.4297-0.4375 0.95312-0.76953 0.95312-0.81641 1.1094-0.96094 1.2734 0.042969 0.16406 1.3203-0.097656 1.1289 1.3086 0.55469 1.3477 0.49219 2.0898-0.28906 1.0352-0.49219 0.97266-0.67578 2.3555 1.3789 0.99219 0.75391 1.1836 0.11328 1.082-0.19141 1.9102 0.23828 1.1484-0.039063 0.45703-1.6055 0.050781-1.0703-0.18359-1.1758-0.085937-1.1992-0.43359-1.1133 0.015625-1.0742 0.17969-1.0508v-1.1797l-1.2812-1.2734-1-0.53125-1.1953-0.87109-1.4414-0.48047-1.0664 0.003907-0.57812 1.1484-0.29688 1.3477-0.98828 0.98828-1.5273 0.10938-1.0977-0.39844-0.51953-1.1797-1.1797-1.2422-1.5625-0.625-1.668 0.28125-1.125 0.28906-0.74609-1.4609-0.14844-1.2539 1.8281-0.25781 1.207-0.11719 1.0859-0.32812 1.0664-0.87109 1.0078-0.85938 1.3594-2.2461 1.0508-0.71875 1.6992 0.51172 1.125 0.097656 1.0859-0.94922 0.61719-0.92188 0.60547-1.7422-0.19531-1.5078-0.73438-0.9375-0.375-1.3203 0.26562-1.7227 0.51172-1.5625 0.65625-2.4492 0.35547-1.0078-0.054688-1.7148 0.21094-1.2539 0.74219-1.3086 0.88672-0.67188 1.6055-1.6094 1.8047-1.1641 1.043-0.76172 2.2969-0.31641 0.62109-2.4922 0.44141-1.5234-0.046875-1.0039-1.4023-1.7188-1.0781-0.70703-1.4883-1.6523-0.22656-1.1562 0.77734-1.5742 0.71875-1.1992-0.91406-1.3633-0.9375-0.70703-0.71875-0.77344-1.0742-1.9648-0.94531-3.2539-0.125-1.2188 1.0625-1.6797 1.2812-0.96094 0.98047-1.957 0.46484-1.0977-0.023438-1.0352-0.47266-3.1953-1.0469-2.2891-0.19531-1.9258-0.46875-1.6953-1.4219-1.8594-0.51562-1.3711-0.14844-1.3359-0.042969-1.5195 0.6875-1.4297 2.4219-1.0078 1.6992-0.65625 2.6523-1.2891 2.1914-1.4141 1.375-1.3359 1.3984-2.1992 0.23047-1.1875-0.28125-1.2539-0.32031-1.1289-0.60156-1.4336-0.33203-1.5273z" fill="#ccc" fill-rule="evenodd"/>
<path d="m182.53 115.98 1.2344 0.16797 2.625-0.41797 1.7812-0.12891 0.85156 0.70312 1.0391 0.70312 1.0938 0.24219 1.2617 0.11328 0.22266 1.3711 0.6875 1.1133 1.0781 0.23047 0.98438 0.65234 0.74219 0.88281 0.875 0.56641 1.1484-0.12109 1.0156 1.6211 1.9531 1.3711 1.0469 0.5625 0.92578 0.39453 0.98047 0.24219 2.3008 0.5625 1.4648 0.36328 1.6641-0.35156 0.98828-0.32422 1.2969-0.12109 1.1406 0.29297 1.3086 0.09375 1.5352-0.82812 1.4688-0.45312 1.8633-0.11328 1.4688-0.16797 3.6133 0.22656 1.2969-0.22656 1.9766-0.56641 1.5781-0.28125 1.6406-0.16797 1.6367 0.28125 1.3516 1.4688 0.56641 1.0156 1.3672 0.80859 1.4414 0.38281 1.0859 0.13281 0.96094 0.82031 3.5625 2.6094 1.2734 1.1133 0.12891 1.0039 0.34766 1.2852 0.78125 1.4336 0.96484 1.7969 1.5938 3.418 0.90625 0.78125 0.44141 0.96094 1.3555 1.9805 0.38281 1.2695 4.2461 3.1172 1 1.4805-0.42969 1.3047-0.14062 1.2227 0.47656 1.9883 1.1602 2.3711 0.62109 1.7617 0.10938 1.3203 0.50781 1.0352 0.92578 0.875 1.9375 1.2227 0.47656 0.92188 1.4961 3.0547 0.23828 1.1445-0.34766 2.5742-0.066406 1.9414 0.28906 1.4492 1.2422 0.67578 0.28125 1.4219-0.0625 2.082 0.52734 1.2891-0.042969 1.3398-0.52344 0.94141-0.15234 2.4766-0.11719 1.9258-0.23828 1.5156 0.79297 0.91406 1.2344-0.039063 1.1602 0.42969 0.43359 1.0703 1.3008 1.043 1.6992 0.97266 1.2383 1.0977 0.82031 0.74609 0.71484 1.1133 0.46094 0.9375 0.60547 0.91406 0.76953 0.73047 1.0508 0.94531 0.98828 0.35156 1.3125 0.11328 0.23438 1.0352 0.76953 0.95703 0.9375 0.50391 0.67188 0.74609-0.49609 0.92188-0.39453 0.97656 0.98047 0.61328 0.83203 0.79688 0.91797 0.70703 1.0273 0.5 0.99219 1.0156 1.5156 0.25781 0.84766 0.72656 0.67578 0.73828 0.20703 1.0078 0.41406 1.1836 0.99219 0.32422 1.0234 0.22266 0.46094 1.0156 0.14062 1.0703-0.39844 0.92578 0.50391 0.88281 1.0508-0.039062 0.21875 1.0156 0.39062 0.97656 0.089844 1.2109 1.0273 1.8125 0.75391 0.96875 1.3242 0.74219 1.2344 0.58984 0.88672 0.48828 0.44922 1.0977 0.73438 0.80469 0.49219 0.96094 0.58984 1.6484 0.054688 1.0625 0.63672 1.25-0.20703 1.5273-1.5586 1.6055-0.22266 1.5273 0.58984 1.2383 1.207 1.2578 1.0391 1.0781 0.53516 1.4805-0.44531 2.5312 0.046875 1.6992 0.42969 3.1641-0.33203 2.5781-0.35156 1.0156-0.20703 1.1289 0.92188 0.89844 0.71094 1.0586-1.3828 2.2773-1.9883 1.1367-0.77344 0.70312-0.59766 1.0938-1.1055 0.97656-0.59375 1.3906 0.54688 1.2344-0.86328 1.5508-0.67578 0.76172 0.88281 0.76172 1.1484-0.039062 0.91797 1.082-0.50391 0.89062-0.48047 1.3359-0.47266 0.88672 0.09375 1.1055 1.2148-0.035156 0.76953 0.65625-0.44141 1.3086 0.5625 1.2031-0.10547 1.4297-0.12891 1.0156 1.0078 0.27344 0.92188-0.48828 1.2422-0.43359 0.94922 0.48047 1.3633-0.73828 0.65625-0.83203 1.1562 0.19531 1.2969-0.10156 1.0938-1.2031 1.0195-0.30469 1.0156 0.55469 0.66016 0.75391 0.61328 1.4023 1.1758 0.64844 1.3047 0.98828 0.82031 0.90234 1.293 0.31641 0.26562-1.3242 1.3438 0.44922 1.4844-0.69531 1.1406 0.17188 1.4062-0.96094 1.5039-0.70703 1.0547-0.074219 0.21484 1.4492-0.39453 1.2227h1.1406l1.1836 0.34766 1.2852 0.58984-0.0625-1.4062 0.33594-1 0.93359-0.36328 1.082 0.34375 0.20312 1.1602 1.3359 0.74219-0.085937 1.3047 1 0.34766 0.92188-0.62891 0.81641 0.91016 0.86328 0.51172 1.0547-0.49219 1.1172 0.125 0.97656 0.70312 0.32031-1.2578 0.62109 1.0703 0.97656 1.1172 0.46484 0.96875-0.45312 0.92578-0.59375 0.82422 0.66016 0.80078 1.1562 0.55469 0.79688 0.72266 0.93359 0.62109 0.53516 1.1094 1.3516 0.24219 0.82031 0.69922 0.95703-0.64844 1.2891 0.23047 1.1172 1.2344 0.91016 0.47266-0.32422 1.2852-1.082 0.51562-1.0234 0.60156-0.70703 0.92188 0.66797 0.76172 0.019531 1.0078-0.82812 1.0039-0.73047 1.4219-1.3398 1.5312-1.0977 0.76953-1.9102 1.3008-0.75781 0.71484-0.69531 1.0625-0.73438 0.85547-0.88672 0.66797-0.92969 0.70312-1.5977 0.89453-1.6719 0.88281-1.2734 0.76953-1.2461 0.375-1.0352-0.14453-1.4102 0.51953-1.3477 1.8086-0.82812 0.89062-0.90234 0.54688-1.1367-0.16797 0.019531-1.1992 0.60156-0.83984-0.62109-0.96875-1.293-0.44141-1.0938 0.10156-1.332 0.46875-0.90625 0.72266-1.1289 0.52734-1.25 0.12109-0.91016-0.80469-0.59375-1.2031-0.1875-1.1094-0.73047-0.75391-0.98047-0.23438-0.91406 0.87891-0.25 1.6211-0.097657 1.1836-1.2812 0.30078-0.96484 0.54688-0.75 1.3086-0.046875 1.7461 0.73047 1.0938 1.7539-0.035156 0.40625 0.97266-0.97266 0.51953-1.0898 0.5625-0.71875 0.69922-0.64844 1.918-0.82422 0.58203-1.2109 0.12109-1.3125 0.20312-0.80469 0.92188 0.09375 1.3711-0.71484 0.73438-0.62109 0.90234-0.47656 1.3828-0.99219 0.55469-1.0391 0.39453-0.91016 0.8125-0.25 1.1367-0.22656 0.99219-0.44141 1.1211-0.30859 0.97266-0.066407 1.2344 0.054688 1.0312-0.92969 0.96484-0.80859 0.90234-0.58594 0.91016-0.33203 1.4141-0.51172 0.99219-0.83594 1.1953-1.0898 0.64062-1.0742 0.38672-0.82422 0.60547-0.47266 1.1094-1.1133 1.4414-1.6211 1.2969-0.95312 0.35547-1.2305-0.078125-1.0586 0.070312-1.332 0.40625-1.7422 0.75781-1.0586 1.2109-1.0781 0.48047-1.3047-0.49609-1.0156-0.41016-1.3008 0.61328-1.1289 0.57812-1.0859 0.85547-0.95703 0.87109-0.92578 0.57031-1.5234 0.63672-1.9141-0.41797-0.97266-0.49609-1.0742-0.64062-0.91406-0.625-0.8125-0.6875-1.1094-0.34375-1.1094-0.14062-1.7656-0.37891-1.1328 0.054688-1.7383 0.007812-1.7266-0.22266-1.9141 0.027344-1.25-0.47266-0.91797-1.1289-1.0195-0.95703-0.61719-1.0781-0.082031-1.1328-0.039062-1.5898-0.53906-0.94531-1.3281-0.48828-1.2773-0.55469-1.5898-1.8828-1.0859-1.2109-0.89062-1.2305-1.293-0.042969-1.3789 1.1211-0.85547 0.72266-1.1289 0.035156-2.7578 0.046875-1.3125-0.11719-0.99609-0.26562-1.2422-0.85156-1.2539-1.8203-0.98438-1.8906-0.66797-1.0664-1.1328-1.1836-1.3125-0.94141-1.2773-0.69141-1.2031-0.14062-1.0938 0.30859-2.2617 1.3711-1.1562 1.0039-1.1445 1.2539-0.67578 0.93359-1.4141 0.17969-1.6406-0.78125-1.3477-0.38672-1.9062 0.17188-2.0039 0.097656-1.8086-0.39453-1.3281-0.84766-1.4766-0.80469-0.95703-0.75781-0.75781-1.1562-0.37891-1.293-0.48438-1.2148 0.058593-1.6055-0.61328-1.418-0.78906-0.69531-0.91797-0.95312 0.25781-1.3828 0.066407-1.1445-0.61328-1.4336-0.77734-0.72656-0.78516-1.1953-0.45703-1.2773-0.54688-1.1914-1.4531-1.9531-0.71094-0.88281-0.75391-0.75391-1.5938-0.875-1.2578-0.33594-1.0469-0.73438-1.2969-0.21484-1.0898-0.003906-1.2109-0.17578-1.3242-0.39453-1.3477-0.33984-2.1133 0.375-1.5898 0.14453-1.7109-0.33984-0.98828-0.85938-0.875-1.0703-1.1562-0.47656-2.0898 0.55469-1.0117 0.60938-0.96875-0.40625 0.15234-1.3047 0.55469-1.6523 0.52734-0.91016-0.27734-1.125-0.71094-0.85156 0.42188-1.582-0.14062-1.1953-1.3828-0.046875-2.0508 0.51953-0.26172-1.457 0.76953-1.4102-0.38672-1.1016-1.4844-0.60156-1.7656 0.007812-1.2695-0.19531-1.0352-1.3242-0.51562-1.0469-0.13281-1.1289 0.078125-1.2227 0.16797-1.0312-0.1875-0.98828-1.168-0.58984-1.418 0.62891-1.1406-0.26172-0.16016-1.6406 0.38672-1.0586-0.21484-1.4766-1.0898-1.1836-1.0234-0.51953-1.543-0.30859-1.0898-0.32812-2.1953-0.23438-1.0586 0.46094-0.95312 0.71875-1.7461 0.26562-1.0625-0.45312-0.82031-0.96875 0.125-1.6914 0.16016-1.0703-0.96875-0.92188-1.0234-0.19922-0.58984-1.0195-0.050781-1.3555 0.13281-1.2031-1.3555-0.92969-0.74219-0.69141-0.67969-1.5586 0.78516-1.5117 0.91016-0.94922 0.60156-0.86719 0.72266-0.75 0.74609-1.168-0.65234-0.98828-0.61719-0.98828 1.2461-2.0273 0.50781-1.0078 0.35938-2.4141 0.65625-0.78125 1.5156-0.51562 1.0625-0.44531 0.77734-1.2109 0.039063-1.1133-0.94141-0.79297-0.92578-0.625-0.83984-0.64844-0.45312-1.0312 0.98047-0.8125 1.5898-0.65625 1.2344-0.28906 1.1055 0.76953 1.1211-0.17969 1.043-0.91797 0.96875-0.43359 1.8125 0.49609 1.9258-0.62891 1.2773-0.46875 1.4883-0.88672 1.5586-1.5859 0.82031-0.65234 1.0625-0.59766 0.96875-0.66016 0.79688-0.75391 1.1562-0.96875 1.1523-0.79297 0.76172-0.69922 0.54297-1.1016-0.12109-1.5469-0.046875-1.2266 0.26172-1.3086-0.52734-1.0859-1.0078-0.22656-1.1953 0.14062-1.3711-0.80469-0.86719-0.58203-1.0859-1.2578-1.457-0.94531-1.1836-0.8125-1.1016-1.4375-1.4922-0.73828-1.7852-0.40234-1.8516-0.51953-1.3672-0.40234-1.7031-0.44531-1.5586-0.66797-1.418-0.67578-1.2617-0.47656-1.1133-0.48438-1.5039-0.72266-1.4336-0.90625-1.1797-0.54688-1.9805-1.5234-2.293-1.2695-1.1562-0.72266-1.0234-0.94922-0.16406-1.6406 0.78906-1.0078 0.66016-0.80859 1.0742-0.67188 1.207-0.042968 2.1094 1.207 0.49609 1 0.90625 0.58984 1.7695 0.59766 0.94531 0.42969 1.375-0.023437 1.4297-0.4375 0.95312-0.76953 0.95312-0.81641 1.1094-0.96094 1.2734 0.042969 0.16406 1.3203-0.097656 1.1289 1.3086 0.55469 1.3477 0.49219 2.0898-0.28906 1.0352-0.49219 0.97266-0.67578 2.3555 1.3789 0.99219 0.75391 1.1836 0.11328 1.082-0.19141 1.9102 0.23828 1.1484-0.039063 0.45703-1.6055 0.050781-1.0703-0.18359-1.1758-0.085937-1.1992-0.43359-1.1133 0.015625-1.0742 0.17969-1.0508v-1.1797l-1.2812-1.2734-1-0.53125-1.1953-0.87109-1.4414-0.48047-1.0664 0.003907-0.57812 1.1484-0.29688 1.3477-0.98828 0.98828-1.5273 0.10938-1.0977-0.39844-0.51953-1.1797-1.1797-1.2422-1.5625-0.625-1.668 0.28125-1.125 0.28906-0.74609-1.4609-0.14844-1.2539 1.8281-0.25781 1.207-0.11719 1.0859-0.32812 1.0664-0.87109 1.0078-0.85938 1.3594-2.2461 1.0508-0.71875 1.6992 0.51172 1.125 0.097656 1.0859-0.94922 0.61719-0.92188 0.60547-1.7422-0.19531-1.5078-0.73438-0.9375-0.375-1.3203 0.26562-1.7227 0.51172-1.5625 0.65625-2.4492 0.35547-1.0078-0.054688-1.7148 0.21094-1.2539 0.74219-1.3086 0.88672-0.67188 1.6055-1.6094 1.8047-1.1641 1.043-0.76172 2.2969-0.31641 0.62109-2.4922 0.44141-1.5234-0.046875-1.0039-1.4023-1.7188-1.0781-0.70703-1.4883-1.6523-0.22656-1.1562 0.77734-1.5742 0.71875-1.1992-0.91406-1.3633-0.9375-0.70703-0.71875-0.77344-1.0742-1.9648-0.94531-3.2539-0.125-1.2188 1.0625-1.6797 1.2812-0.96094 0.98047-1.957 0.46484-1.0977-0.023438-1.0352-0.47266-3.1953-1.0469-2.2891-0.19531-1.9258-0.46875-1.6953-1.4219-1.8594-0.51562-1.3711-0.14844-1.3359-0.042969-1.5195 0.6875-1.4297 2.4219-1.0078 1.6992-0.65625 2.6523-1.2891 2.1914-1.4141 1.375-1.3359 1.3984-2.1992 0.23047-1.1875-0.28125-1.2539-0.32031-1.1289-0.60156-1.4336-0.33203-1.5273 0.60938 0.39844" fill="none" stroke="#fff" stroke-linecap="round" stroke-linejoin="round" stroke-miterlimit="10" stroke-width="2"/>
<path d="m178.71 94.16 1.7617 3.1328 1.2891 1.8008 0.73438 1.3164 0.62891 1.8008 0.51953 2.4844 0.13281 1.9102-0.91797 2.8281-0.90234 2.3281-0.12891 1.3711-0.14453 1.5508 0.57031 2.4258 0.60156 1.4336 0.32031 1.1289 0.28125 1.2539-0.23047 1.1875-1.3984 2.1992-1.375 1.3359-2.1914 1.4141-2.6523 1.2891-1.6992 0.65625-1.7148 0.49219-1.1641 1.1875-0.1875 2.2773 0.14844 1.3359 0.51562 1.3711 0.89453 1.2734 0.85938 1.5938 0.085937 1.8516 0.89844 2.1758 0.86719 4.0703 0.023438 1.0352-0.46484 1.0977-0.98047 1.957-1.2812 0.96094-0.85156 0.89844-0.085938 2 0.67188 2.7578 0.90234 1.6445 1.1641 1.5898 0.9375 0.70703 0.84766 0.83203-0.10156 1.1836-1.1875 1.3945 0.085938 1.8828 0.74609 1 1.8203 1.3594 0.90234 0.86719 0.63281 1.3281-0.42188 1.3047-0.21094 2.8125-2.0703 0.54688-1.7852 0.95703-1.8047 1.1641-1.6055 1.6094-0.88672 0.67188-0.74219 1.3086-0.21094 1.2539 0.1875 1.1133-0.48828 1.6094-0.55078 2.1719-0.45703 1.168-0.31641 1.6992v1.5039l0.52734 0.84766 0.6875 1.4023-0.25781 1.8398-0.98438 1.5312-0.69531 0.73438-1.0391 0.23438-1.3906-0.52734-1.3672 0.0625-1.2695 2.0977-0.98828 1-1.0625 1.1289-1.1992 0.51562-1.6758 0.23438-1.4844-0.019531-0.31641 1.0547 0.44141 1.2578 0.95703 0.64844 1.5586-0.47266 1.3945 0.089844 1.582 1.0938 0.70312 1.4648 1.3828 0.73047 1.2695 0.019531 1.2461-1.1172 0.29688-1.3477 0.57812-1.1484 1.0664-0.003907 1.1914 0.375 1.4453 0.97656 1 0.53125 1.0742 0.875 0.27734 0.97266-0.25 1.6562-0.015625 1.0742 0.42188 1.0156 0.097656 1.2969 0.18359 1.1758-0.050781 1.0703-0.14844 0.99219-0.82812 0.70703-1.9805-0.3125-1.6406 0.21094-1.1836-0.11328-0.99219-0.75391-1.5391-1.3516-1.043 0.082031-1.1523 0.78516-1.8125 0.64062-2.2539-0.57031-1.0703-0.20703-0.14062-1.4766-0.042968-1.1016-1.0625-0.42578-1.4414 1.125-0.95312 0.81641-0.95312 0.76953-1.4297 0.4375-1.0352 0.0625-1.2852-0.46875-1.7695-0.59766-0.90625-0.58984-0.49609-1-1.332-0.97656-1.5977-0.29297-1.0234 0.42578-0.94531 1.0664-0.83984 0.63281-0.18359 1.168 1.2695 1.8906 1.1562 0.72266 2.293 1.2695 1.3711 1.1133 1.7891 0.95703 1.4336 0.90625 0.95703 0.44922 1.1016 0.54688 1.8203 0.6875 1.418 0.67578 1.0039 0.45312 1.7031 0.53906 1.9219 0.52344 1.3945 0.375 1.3203 0.35156 1.6602 0.42188 1.3203 1.3711 1.3711 1.1602 1.4102 0.78516 0.84375 0.91016 1.0391 1.0742 1.8359 1.0508 1.1953-0.14062 1.0078 0.22656 0.52734 1.0859-0.26172 1.3086 0.046875 1.2266 0.19531 1.168-0.47656 1.2227-0.90234 0.95703-1.1523 0.79297-1.1562 0.96875-0.79688 0.75391-0.96875 0.66016-1.0625 0.59766-0.82031 0.65234-0.84375 0.95703-2.2031 1.5156-1.2773 0.46875-1.2891 0.61328-1.9453-0.51172-1.1172 0.27344-0.82812 0.64844-1.082 0.74219-1.1094-0.58984-1.1641-0.26172-1.4102 0.64453-1.3828 0.59375-0.46875 0.93359 0.86328 0.85547 1.3711 1.0156 0.94141 0.79297-0.039063 1.1133-0.55469 1.0234-1.2852 0.63281-1.2891 0.38281-0.81641 0.67969-0.28125 1.9531-0.65234 1.7031-1.043 1.6055-0.16797 1.0273 1.0508 0.79688-0.12109 1.1406-0.72266 0.92969-1.043 1.2891-0.72266 0.74219-0.82812 1.2109-0.019532 1.25 1.2969 1.5078 1.1641 0.64453 0.058594 1.4883 0.082031 1.2852 0.32422 1.043 1.2578 0.24609 0.96875 0.92188-0.16016 1.0703-0.30859 1.0469 0.34766 1.0312 1.1289 0.90234 1.8398 0.039063 0.98047-0.5 1.5273-0.85156 1.375-0.023437 1.2891 0.35938 1.4375 0.3125 1.4297 0.52344 0.85547 0.66797 0.74219 1.2812-0.039062 1.1797-0.33594 1.6094 0.42188 1.2227 1.543-0.40234 1.457-0.085938 0.66797 0.94922-0.16797 1.3984-0.078125 1.2227 0.13281 1.1289 0.51562 1.0469 0.38672 1.0156 1.5312 0.48828 1.7383-0.074218 1.3164 0.39062 0.8125 0.72656-0.085938 1.2852-0.57422 1.7773 2.3594-0.046875 1.082-0.089844 0.69531 0.76953-0.72656 1.4258 0.36719 1.1953 0.65234 0.78906-0.24609 1.0938-0.55469 1.2188-0.35156 1.5586 0.17969 1.0781 1.582-0.50781 1.2695-0.53125 1.3242 0.003906 1.3242 0.86328 0.88672 1.1562 1.2891 0.61328 1.6992 0.007812 2.0156-0.46094 2.2188 0.29297 1.3242 0.39453 1.2109 0.17578 1.0898 0.003906 1.2969 0.21484 1.0469 0.73438 1.2578 0.33594 1.082 0.43359 1.2656 1.1953 0.71094 0.88281 1.0664 1.1875 0.93359 1.957 0.45703 1.2773 0.78516 1.1953 0.77734 0.72656 0.59375 1.3516-0.046875 1.2266-0.27344 1.125 0.78906 1.0859 0.93359 0.82031 0.61719 1.0977-0.12891 1.1172 0.14062 1.1367 0.28906 0.99609-0.98438 0.83984-1.0703 0.42188-1.1758 0.95703-0.87109 0.89844-0.53125 0.91016-1.4297 1.3594-1.75 1.0469-1.0742 0.40234-1.3008 0.44922-1.625-0.22266-1.5859-0.20703-1.1367 0.085938-1.2344 0.89062-0.74609 0.94922-0.48828 1.2344-0.75 0.77734-0.91797-0.49609-0.45703-1.0938-0.078125-1.5508-0.69141-1.2031-1.3359-0.38672-0.94141 0.51172-1.25 0.64453-1.0234 0.39844-1.2695 0.31641-1.207 1.0352-1.1289 0.74219-1.3867 0.074219-1.7227 0.70703-1.168 1.2617 0.75391 1.2852 0.30078 1.4062 0.74609 0.76172 1.7656 1.5078-0.55469 0.92578-1.4062 0.44922-0.92578 0.50781-1.1875 0.76562 0.26562 1.2656 0.82812 1.2656 0.42188 1.0234-0.15625 1.0742-0.92188 0.4375-1.4531 0.019531-1.9492-0.21094-1.7773-0.33984-1.0195 0.78125 0.027344 1.293 0.94531 0.9375 0.90625 0.52344 0.96484 0.78516 0.25 1.1094-0.20703 1.2578 0.58594 1.793-0.0625 1.4336-1.3594 1.1836-1.4727 0.83984-1.9922 0.53906-1.4688 0.125-1.7891 0.15625-1.1016-0.19922-1.0391-0.26172-1 0.30078-0.5625 1.5273-0.42578 1.8281-0.023437 1.2539-0.082032 1.2031-0.27734 1.7109-0.66016 1.1445-1.6914 1.0273-1.2383 0.37109-1.6523 0.95312-0.60547 0.80469-0.77734 1.4258 0.71484 1.1992 1.1602 1.0156 1.707 0.57422 0.67578 1.082-0.27344 1.1523-0.92188 1.3672-0.27734 1.6367 0.60156 1.5352 0.59766 1.1523 0.94141 0.86328 0.46484 0.93359-0.21875 1.3477-0.41016 1.1562-0.8125 1.4844-0.96875 1.2695-1.0508 0.20703-0.9375-0.47656-1.3242-0.30859-1.832-0.28516-1.2617-0.027343-1.3359 0.97656-0.21484 1.0312-0.62891 1.1289-1.3711 0.21094-1.0156-0.25391-1.2812 0.49219-1.3555 1.1953-1.1328 0.13281-1.0703 0.35547-0.37109 1.6328-0.71875 0.70703-1.1328-0.42578-1.2227-0.21094-1.5312 0.66016-0.9375 0.70312-0.98438 0.22656-1.0234 0.42578-0.73047 0.79688-1 1.8594-1.0039 0.42578-0.98438-0.35156-1.0469 0.88672-0.64062 1.3398-0.42578 1.0508-1.1562 0.83203-0.91797 0.69922-0.52344 1.0273-0.98438 1.7266-0.34375 1.3477-0.6875 1.3906-0.34766 1.3125 0.48047 2.2656-0.03125 1.2891-0.80469 0.80859-1.2031-0.66016-1.043-0.078125-0.96875 0.43359-0.66797 1.0469-0.50781 1.9336-0.90625 1.9844-0.80469 1.1953-1.4609 1.5625 0.1875 1.6992-0.26172 1.1953-0.77734 0.71094-0.23828 1.2148-0.52344 0.99609-1.6172-0.31641-1.0273 0.20703-0.58203 0.90234 0.019531 1.0703 0.44141 1.1641-0.98828 0.79297-0.41406 1.4375-0.71484 1.5703-1.3984 0.77734-0.94141 0.5-0.26953 0.98438 0.31641 1.0273-0.085937 1.2617-0.97656 0.71094-1.7188-0.16016-1.0156 0.46484-0.80859 0.77734 0.015625 1.6641 0.66797 1.0039 0.8125 0.95312-0.35156 0.98438-1.4648-0.33594-1.418-0.3125-0.58594 0.83984 0.16016 1.4727 0.14062 1.0664 0.78125 1.2031-0.33594 1.0781-1.0273 0.94141-1.0977 0.19531-0.55859 0.83203-1.1172 0.046875-2 1.3984-1.3867 0.32031-1.1367 0.71484 0.33984 0.94922-0.30078 1.125 0.15234 1.2148-0.09375 1.0039-0.625 0.82812-1.0508 0.44531-0.73438 0.875-0.30078 1.3438 0.48828 1.1367-1.2383 0.11328-0.82812-0.85938-1.2148 1.0078-1.3438 1.0156-0.90234 0.71484-1.0117 0.19922-0.17188 1.5898 0.125 1.0234-1.2617 0.20703-0.33984 0.98828-0.78906 0.90234 0.44922 2.207-0.13672 1.582 0.14844 1.25-0.62109 0.78906-1.0508-0.15234-1.4414-0.65625-1.0352 0.62109-1.5195-0.75391-1.0352-0.20703-0.97656 0.24219-1.2695-0.97266-0.875-0.65234 0.019531 1.457 0.31641 1.1562-0.31641 1.2148-0.92969-0.47266-1.0547 0.25781-0.91406 0.61719-0.46094 1.1875-0.47656 1.1172-0.60156 1.0039 0.066407 1.2148-0.26562 1.0352-1.0898 0.48047-0.83984 0.80859-1.0977 0.34375-0.84766 0.54688-1.0352-0.1875-1.3711 0.77344-0.90234 1.2188-1.0977-0.22656-0.80078-0.69141-2.1641-0.11328-1.3438-0.41797-1.2891-0.57812-1.043 0.12891-0.875 0.78906-0.77734-0.79688-1.3633-0.046875-1.3906 0.57422h-1.543l-1.7852 0.18359-0.60547-1.457-0.91016-0.60938-1.0547-0.54297-1.4336-0.71484-1.2227-0.51172-1.1211-0.53516-1.3633-0.96484-0.58984-1.0352-0.98047-1.0352-1.0977-0.48047-1.7812-0.66406-1.0156-0.50781-1.0039-0.63281 2.2188-0.10938 0.92578-0.40625 0.875-1.4766 0.57031-1.0039 0.95312-0.68359 1.293-0.40234 2.1914 0.59375 1 0.10938 0.94141-1.0469 0.69922-0.78516 1.6641-0.55078 1.3398-0.76562 1.0508-1.543 0.73047-1.4453 0.28516-1.0508 1.0352-1.207 1.668-2.4023 0.69922-1.4766 0.35156-1.4336 0.015625-1.7656 1.1445-1.3633-0.11719-1.1523-0.89453-0.67188-0.015625-1.0898 0.32812-1 1.625-0.58203 1.293-0.59766 1.668-0.37109 1.7031-0.1875 1.1172-0.54297 1.1133-0.89062 0.54688-0.84766 0.91406-0.59766 1.6445-0.37109 1.6523 0.26562 1.1602 0.12109 1.4492-0.88672 0.53906-1.207 0.64453-1.1797 1.1992-1.125 1.2422-0.85938 0.57422-1.2734 0.046875-1.2852 0.41797-1.6523 0.83984-0.98828 1.4141-0.62109 0.74609-0.90625-0.0625-1.5273 0.76172-1.082 1.1758-1.4297 1.0508-0.875 1.8047-0.53125 1.4297-1.1484 1.1445-1.2969 3.6367-2.2852 1.6914-2.6016 0.58203-1.3125-0.59766-1.0156-1.293-1.168-0.40625-1.3047 0.4375-0.91406 0.53906-1.7969 0.97656-1.8398 0.94922-1.4219 0.12891-1.2773-0.082031-3.332 0.89062-1.2656 0.66797-0.98438 1.1016-0.31641 1.3398-1.3398 1.1016-0.58984 1.1602-1.0234 1.0469-1.3789 0.55078-1.8906 0.35156-1.1406 1.2188-2.25 0.13672-2.2266-0.058594-1.1523-1.2734-1.4883-0.23828-1.2344 0.93359-1.7109 2.5781-2.9023 0.375-1.2266 0.12109-1.2422 0.14844-1.0625-0.73438-1.6484 0.22266-1.5938 0.41016-0.9375 1.1055-0.43359 1.0938-0.027343 0.61328-0.88672 0.015625-1.6758-0.34375-1.3047-0.77734-1-0.089843-1.0781 0.61328-1.2891 0.43359-1.0938 0.74609-0.77734 1.1406-0.14844 1.168-0.26953 1-0.71875 0.84766-0.60938 0.72266-0.80859 0.91406-1.6797v-2.2266l0.78125-1.3828 1.1289-0.46094 1.1016-2.4648 0.61328-1.9727 0.80859-1.4062 0.92969-0.98828 1.5859-0.71875 2.082-0.13281 1.75 0.41797 1.5898 0.23828 1.2422 0.30078 1.1367-0.25391 0.98828-0.79297 1.3789-0.75781 1.6875-0.62109 1.7539-0.98828 0.57031-0.875 0.33594-1.1602-0.10938-1.4961-0.80859-1.3672-0.93359-0.80469-0.53125-0.88672-0.12891-1.207-0.78516-1.0625-0.70703-0.76172-1.2188-1.9102-1.6953-0.94141-1.1953-0.875-0.51172-1.1914 1.7539-0.48438 1.0625-0.69141-0.015625-1.1602 0.078125-1.4648-0.078125-1.3164-0.042969-1.082-0.070312-1.125-0.03125-1.1602-0.14844-1.832 0.019532-1.0312 0.20703-1.0625 0.85156-0.80469 1.1445-1.0625 0.33984-0.98047-0.12891-1.4023-0.24219-1.0938-0.003907-1.082-0.75-2.1016-1.5898-1.1602-0.80859-0.92188-0.35156-1.2891-0.28125-1.3438-0.36719-1.168-1.5273-1.2383-0.074219-1.7812-0.074218-1.2578-0.57812-1.5938 0.066406-1.3828 0.0625-1.2227-0.16016-1.2383-0.52734-1.457-0.19922-1.1992 0.4375-1.2227 0.72266-0.69531 0.67578-0.82031 0.066406-1.2695-0.54688-1.3516-0.58203-0.90234-0.67578-1.0469-0.85156-1.3828-0.32422-1.3555 0.17578-1.1094 0.5-1.5938 0.54688-1.1758 0.53125-1.3516 0.45312-1.0273 0.35156-1.1445 0.89062-0.89453 1.4336-0.72266 0.70703-0.84766 0.39062-1.2891 0.31641-1.5625 0.50781-1.1836-1.5391-0.83984h-1.0039l-1.875-0.46094-0.85938-0.78125-1.668-0.96875-0.8125-0.58984-0.92188-0.76172-1.0195-0.55859-1.668-1.0312-1.1133-1.3672-1.0352-1.418-0.37109-1.3008 0.38672-1.1445-0.94922-0.86719-1.5273-0.93359-0.97656-1.3789-0.55469-1.0234-0.77734-1.5703v-2.1328l0.32031-0.95703 0.90625-1.0781 1.0156-0.79297 1.4609-1.1445 1.5938-2.3867 0.23047-1.1328 0.66016-1.2383 0.42578-1.7148-0.39453-1.7031-0.80078-0.60547-0.26562-1.2539 0.77734-1.0508 0.64453-0.87109 0.82031-1.3672 0.14453-1.1289-0.046875-1.1094-0.66406-1.1406-0.25391-1.1758 0.38672-1.0469 0.33594-1.0117-0.86719-0.93359-0.82422-0.85547-0.69141-1.3633-0.63672-1.2734-1.1016-1.0352-1.1914-0.21484-1.0938 0.058594-1.0273-0.11328-1.1328 0.67578-1.2969 0.28906-1.1133 0.0625-1.0703 0.074219-1.1367-0.46094-1.0273 0.17969-1.2109 0.22266-5.2812 0.074219-3.7578-0.24219-1.4961-0.046875-0.93359-0.58203-0.94141-0.41797-2.0195 0.52344-1.3047-0.0625-1.207-0.46094-0.72656-1.332-0.52734-1.0781 0.625-0.94141-0.73047-0.83594 0.23828-1.3047 0.023438-1.5234 0.050781-1.4297 0.31641-1.7109-0.10547-1.0469-0.03125-1.4648 0.042968-1.1055 0.66797-1.4492 0.64062-1.3867 0.33594-0.98828 0.28125-2.0078 0.48047-0.89453 0.82422-0.71094 0.25391-1.1719 1.375-1.0195 1.2734-0.82031 0.69141-1.0156 0.66016-1.4336 0.24219-0.98047-0.011719-1.2188-0.11328-1.0938-0.22266-1.0742 0.023437-1.2305 0.625-1.0273 1.5312-0.023438 1.2188-0.019531 1.3867-0.046875 1.2539-0.26953 1.5742 0.074218 1.3438 0.30859 1.7266-0.054687 1.2812-0.30859 2.0156-0.96094 0.47266-1.7305 0.23438-1.1797 0.55469-0.87891 0.69531-1.1133 0.91016-1.4531 0.59766-0.88281-0.5-1.0664-0.53125-0.92969-0.82031-1.7227-0.53516-1.7656-0.11328-1.6484-0.23828-1.8789-0.12891-1.875 0.085937-1.7188 0.16406-3.3672 0.35547-1.582 0.58594-1.0742 0.90625-1.2891 0.050781-1.3594-0.33203-2.4727 0.19141-1.4414-0.17578-1.293-0.31641-1.6406 0.023437-1.0586 0.77734-1.3477 0.49609-1.7812 0.48047-0.93359 1.6484-1.5391 0.49219-2.0703-0.09375-1.4688-0.67188-0.99609-0.078125-1.9219 0.60547-1.3047 1.0156-1 0.47656-1.082-0.34766-1.0195 1.3516-3.543 0.91016-2.0859 0.42969-1.2617 0.8125-1.0625 1.6602-0.82812 0.9375-0.52344 0.93359-0.76953 1.9023-0.94141 0.69141-0.73828 0.48438-2.0156 0.30859-1.2266 1.457-1.9062 1.4766-2.2891 1.5625 0.90234 1.1289 0.19531 1.1641 0.44531 1.4805-0.375 1.0898-0.87891 1.1289-0.79688 1.2695-0.089844 1.0898-0.42188 0.96094 0.32031 1.0898 0.14062 1.0898-0.48828 1.0977-1.2461 0.81641-2.0938 1.3203-1.5586 0.65234-1.168 1.2109-1.5625 0.67188-1.5312 0.74609-1.7578 1.4414-1.1016 1.1172-0.44141 0.45703-1.3984 0.45312-1.0938 1.1797-0.46875 1.418-0.1875 1-0.16016 0.72266-0.96484 2.0352-0.47656 1.2852 0.074219 0.99219-0.1875 0.16016-1.3594-0.039062-1.3359 0.65625-1.1367 1.3633-0.98047 1-0.64844 1.293-0.26172 1.1094-0.39844 1.207-0.49609 0.98438-0.54688 1.6484-0.16797 1.0039-0.42969 0.5625-1.0156 1.5781-0.89844 1.0078-1.0156 0.92188-0.5625 1.9727-2.3398 1.6094-1.2852 1.0117-0.36328 1.3438 0.015625 1.9883-0.83984 2.3086-0.21094z" fill="#ccc" fill-rule="evenodd"/>
<path d="m178.71 94.16 1.7617 3.1328 1.2891 1.8008 0.73438 1.3164 0.62891 1.8008 0.51953 2.4844 0.13281 1.9102-0.91797 2.8281-0.90234 2.3281-0.12891 1.3711-0.14453 1.5508 0.57031 2.4258 0.60156 1.4336 0.32031 1.1289 0.28125 1.2539-0.23047 1.1875-1.3984 2.1992-1.375 1.3359-2.1914 1.4141-2.6523 1.2891-1.6992 0.65625-1.7148 0.49219-1.1641 1.1875-0.1875 2.2773 0.14844 1.3359 0.51562 1.3711 0.89453 1.2734 0.85938 1.5938 0.085937 1.8516 0.89844 2.1758 0.86719 4.0703 0.023438 1.0352-0.46484 1.0977-0.98047 1.957-1.2812 0.96094-0.85156 0.89844-0.085938 2 0.67188 2.7578 0.90234 1.6445 1.1641 1.5898 0.9375 0.70703 0.84766 0.83203-0.10156 1.1836-1.1875 1.3945 0.085938 1.8828 0.74609 1 1.8203 1.3594 0.90234 0.86719 0.63281 1.3281-0.42188 1.3047-0.21094 2.8125-2.0703 0.54688-1.7852 0.95703-1.8047 1.1641-1.6055 1.6094-0.88672 0.67188-0.74219 1.3086-0.21094 1.2539 0.1875 1.1133-0.48828 1.6094-0.55078 2.1719-0.45703 1.168-0.31641 1.6992v1.5039l0.52734 0.84766 0.6875 1.4023-0.25781 1.8398-0.98438 1.5312-0.69531 0.73438-1.0391 0.23438-1.3906-0.52734-1.3672 0.0625-1.2695 2.0977-0.98828 1-1.0625 1.1289-1.1992 0.51562-1.6758 0.23438-1.4844-0.019531-0.31641 1.0547 0.44141 1.2578 0.95703 0.64844 1.5586-0.47266 1.3945 0.089844 1.582 1.0938 0.70312 1.4648 1.3828 0.73047 1.2695 0.019531 1.2461-1.1172 0.29688-1.3477 0.57812-1.1484 1.0664-0.003907 1.1914 0.375 1.4453 0.97656 1 0.53125 1.0742 0.875 0.27734 0.97266-0.25 1.6562-0.015625 1.0742 0.42188 1.0156 0.097656 1.2969 0.18359 1.1758-0.050781 1.0703-0.14844 0.99219-0.82812 0.70703-1.9805-0.3125-1.6406 0.21094-1.1836-0.11328-0.99219-0.75391-1.5391-1.3516-1.043 0.082031-1.1523 0.78516-1.8125 0.64062-2.2539-0.57031-1.0703-0.20703-0.14062-1.4766-0.042968-1.1016-1.0625-0.42578-1.4414 1.125-0.95312 0.81641-0.95312 0.76953-1.4297 0.4375-1.0352 0.0625-1.2852-0.46875-1.7695-0.59766-0.90625-0.58984-0.49609-1-1.332-0.97656-1.5977-0.29297-1.0234 0.42578-0.94531 1.0664-0.83984 0.63281-0.18359 1.168 1.2695 1.8906 1.1562 0.72266 2.293 1.2695 1.3711 1.1133 1.7891 0.95703 1.4336 0.90625 0.95703 0.44922 1.1016 0.54688 1.8203 0.6875 1.418 0.67578 1.0039 0.45312 1.7031 0.53906 1.9219 0.52344 1.3945 0.375 1.3203 0.35156 1.6602 0.42188 1.3203 1.3711 1.3711 1.1602 1.4102 0.78516 0.84375 0.91016 1.0391 1.0742 1.8359 1.0508 1.1953-0.14062 1.0078 0.22656 0.52734 1.0859-0.26172 1.3086 0.046875 1.2266 0.19531 1.168-0.47656 1.2227-0.90234 0.95703-1.1523 0.79297-1.1562 0.96875-0.79688 0.75391-0.96875 0.66016-1.0625 0.59766-0.82031 0.65234-0.84375 0.95703-2.2031 1.5156-1.2773 0.46875-1.2891 0.61328-1.9453-0.51172-1.1172 0.27344-0.82812 0.64844-1.082 0.74219-1.1094-0.58984-1.1641-0.26172-1.4102 0.64453-1.3828 0.59375-0.46875 0.93359 0.86328 0.85547 1.3711 1.0156 0.94141 0.79297-0.039063 1.1133-0.55469 1.0234-1.2852 0.63281-1.2891 0.38281-0.81641 0.67969-0.28125 1.9531-0.65234 1.7031-1.043 1.6055-0.16797 1.0273 1.0508 0.79688-0.12109 1.1406-0.72266 0.92969-1.043 1.2891-0.72266 0.74219-0.82812 1.2109-0.019532 1.25 1.2969 1.5078 1.1641 0.64453 0.058594 1.4883 0.082031 1.2852 0.32422 1.043 1.2578 0.24609 0.96875 0.92188-0.16016 1.0703-0.30859 1.0469 0.34766 1.0312 1.1289 0.90234 1.8398 0.039063 0.98047-0.5 1.5273-0.85156 1.375-0.023437 1.2891 0.35938 1.4375 0.3125 1.4297 0.52344 0.85547 0.66797 0.74219 1.2812-0.039062 1.1797-0.33594 1.6094 0.42188 1.2227 1.543-0.40234 1.457-0.085938 0.66797 0.94922-0.16797 1.3984-0.078125 1.2227 0.13281 1.1289 0.51562 1.0469 0.38672 1.0156 1.5312 0.48828 1.7383-0.074218 1.3164 0.39062 0.8125 0.72656-0.085938 1.2852-0.57422 1.7773 2.3594-0.046875 1.082-0.089844 0.69531 0.76953-0.72656 1.4258 0.36719 1.1953 0.65234 0.78906-0.24609 1.0938-0.55469 1.2188-0.35156 1.5586 0.17969 1.0781 1.582-0.50781 1.2695-0.53125 1.3242 0.003906 1.3242 0.86328 0.88672 1.1562 1.2891 0.61328 1.6992 0.007812 2.0156-0.46094 2.2188 0.29297 1.3242 0.39453 1.2109 0.17578 1.0898 0.003906 1.2969 0.21484 1.0469 0.73438 1.2578 0.33594 1.082 0.43359 1.2656 1.1953 0.71094 0.88281 1.0664 1.1875 0.93359 1.957 0.45703 1.2773 0.78516 1.1953 0.77734 0.72656 0.59375 1.3516-0.046875 1.2266-0.27344 1.125 0.78906 1.0859 0.93359 0.82031 0.61719 1.0977-0.12891 1.1172 0.14062 1.1367 0.28906 0.99609-0.98438 0.83984-1.0703 0.42188-1.1758 0.95703-0.87109 0.89844-0.53125 0.91016-1.4297 1.3594-1.75 1.0469-1.0742 0.40234-1.3008 0.44922-1.625-0.22266-1.5859-0.20703-1.1367 0.085938-1.2344 0.89062-0.74609 0.94922-0.48828 1.2344-0.75 0.77734-0.91797-0.49609-0.45703-1.0938-0.078125-1.5508-0.69141-1.2031-1.3359-0.38672-0.94141 0.51172-1.25 0.64453-1.0234 0.39844-1.2695 0.31641-1.207 1.0352-1.1289 0.74219-1.3867 0.074219-1.7227 0.70703-1.168 1.2617 0.75391 1.2852 0.30078 1.4062 0.74609 0.76172 1.7656 1.5078-0.55469 0.92578-1.4062 0.44922-0.92578 0.50781-1.1875 0.76562 0.26562 1.2656 0.82812 1.2656 0.42188 1.0234-0.15625 1.0742-0.92188 0.4375-1.4531 0.019531-1.9492-0.21094-1.7773-0.33984-1.0195 0.78125 0.027344 1.293 0.94531 0.9375 0.90625 0.52344 0.96484 0.78516 0.25 1.1094-0.20703 1.2578 0.58594 1.793-0.0625 1.4336-1.3594 1.1836-1.4727 0.83984-1.9922 0.53906-1.4688 0.125-1.7891 0.15625-1.1016-0.19922-1.0391-0.26172-1 0.30078-0.5625 1.5273-0.42578 1.8281-0.023437 1.2539-0.082032 1.2031-0.27734 1.7109-0.66016 1.1445-1.6914 1.0273-1.2383 0.37109-1.6523 0.95312-0.60547 0.80469-0.77734 1.4258 0.71484 1.1992 1.1602 1.0156 1.707 0.57422 0.67578 1.082-0.27344 1.1523-0.92188 1.3672-0.27734 1.6367 0.60156 1.5352 0.59766 1.1523 0.94141 0.86328 0.46484 0.93359-0.21875 1.3477-0.41016 1.1562-0.8125 1.4844-0.96875 1.2695-1.0508 0.20703-0.9375-0.47656-1.3242-0.30859-1.832-0.28516-1.2617-0.027343-1.3359 0.97656-0.21484 1.0312-0.62891 1.1289-1.3711 0.21094-1.0156-0.25391-1.2812 0.49219-1.3555 1.1953-1.1328 0.13281-1.0703 0.35547-0.37109 1.6328-0.71875 0.70703-1.1328-0.42578-1.2227-0.21094-1.5312 0.66016-0.9375 0.70312-0.98438 0.22656-1.0234 0.42578-0.73047 0.79688-1 1.8594-1.0039 0.42578-0.98438-0.35156-1.0469 0.88672-0.64062 1.3398-0.42578 1.0508-1.1562 0.83203-0.91797 0.69922-0.52344 1.0273-0.98438 1.7266-0.34375 1.3477-0.6875 1.3906-0.34766 1.3125 0.48047 2.2656-0.03125 1.2891-0.80469 0.80859-1.2031-0.66016-1.043-0.078125-0.96875 0.43359-0.66797 1.0469-0.50781 1.9336-0.90625 1.9844-0.80469 1.1953-1.4609 1.5625 0.1875 1.6992-0.26172 1.1953-0.77734 0.71094-0.23828 1.2148-0.52344 0.99609-1.6172-0.31641-1.0273 0.20703-0.58203 0.90234 0.019531 1.0703 0.44141 1.1641-0.98828 0.79297-0.41406 1.4375-0.71484 1.5703-1.3984 0.77734-0.94141 0.5-0.26953 0.98438 0.31641 1.0273-0.085937 1.2617-0.97656 0.71094-1.7188-0.16016-1.0156 0.46484-0.80859 0.77734 0.015625 1.6641 0.66797 1.0039 0.8125 0.95312-0.35156 0.98438-1.4648-0.33594-1.418-0.3125-0.58594 0.83984 0.16016 1.4727 0.14062 1.0664 0.78125 1.2031-0.33594 1.0781-1.0273 0.94141-1.0977 0.19531-0.55859 0.83203-1.1172 0.046875-2 1.3984-1.3867 0.32031-1.1367 0.71484 0.33984 0.94922-0.30078 1.125 0.15234 1.2148-0.09375 1.0039-0.625 0.82812-1.0508 0.44531-0.73438 0.875-0.30078 1.3438 0.48828 1.1367-1.2383 0.11328-0.82812-0.85938-1.2148 1.0078-1.3438 1.0156-0.90234 0.71484-1.0117 0.19922-0.17188 1.5898 0.125 1.0234-1.2617 0.20703-0.33984 0.98828-0.78906 0.90234 0.44922 2.207-0.13672 1.582 0.14844 1.25-0.62109 0.78906-1.0508-0.15234-1.4414-0.65625-1.0352 0.62109-1.5195-0.75391-1.0352-0.20703-0.97656 0.24219-1.2695-0.97266-0.875-0.65234 0.019531 1.457 0.31641 1.1562-0.31641 1.2148-0.92969-0.47266-1.0547 0.25781-0.91406 0.61719-0.46094 1.1875-0.47656 1.1172-0.60156 1.0039 0.066407 1.2148-0.26562 1.0352-1.0898 0.48047-0.83984 0.80859-1.0977 0.34375-0.84766 0.54688-1.0352-0.1875-1.3711 0.77344-0.90234 1.2188-1.0977-0.22656-0.80078-0.69141-2.1641-0.11328-1.3438-0.41797-1.2891-0.57812-1.043 0.12891-0.875 0.78906-0.77734-0.79688-1.3633-0.046875-1.3906 0.57422h-1.543l-1.7852 0.18359-0.60547-1.457-0.91016-0.60938-1.0547-0.54297-1.4336-0.71484-1.2227-0.51172-1.1211-0.53516-1.3633-0.96484-0.58984-1.0352-0.98047-1.0352-1.0977-0.48047-1.7812-0.66406-1.0156-0.50781-1.0039-0.63281 2.2188-0.10938 0.92578-0.40625 0.875-1.4766 0.57031-1.0039 0.95312-0.68359 1.293-0.40234 2.1914 0.59375 1 0.10938 0.94141-1.0469 0.69922-0.78516 1.6641-0.55078 1.3398-0.76562 1.0508-1.543 0.73047-1.4453 0.28516-1.0508 1.0352-1.207 1.668-2.4023 0.69922-1.4766 0.35156-1.4336 0.015625-1.7656 1.1445-1.3633-0.11719-1.1523-0.89453-0.67188-0.015625-1.0898 0.32812-1 1.625-0.58203 1.293-0.59766 1.668-0.37109 1.7031-0.1875 1.1172-0.54297 1.1133-0.89062 0.54688-0.84766 0.91406-0.59766 1.6445-0.37109 1.6523 0.26562 1.1602 0.12109 1.4492-0.88672 0.53906-1.207 0.64453-1.1797 1.1992-1.125 1.2422-0.85938 0.57422-1.2734 0.046875-1.2852 0.41797-1.6523 0.83984-0.98828 1.4141-0.62109 0.74609-0.90625-0.0625-1.5273 0.76172-1.082 1.1758-1.4297 1.0508-0.875 1.8047-0.53125 1.4297-1.1484 1.1445-1.2969 3.6367-2.2852 1.6914-2.6016 0.58203-1.3125-0.59766-1.0156-1.293-1.168-0.40625-1.3047 0.4375-0.91406 0.53906-1.7969 0.97656-1.8398 0.94922-1.4219 0.12891-1.2773-0.082031-3.332 0.89062-1.2656 0.66797-0.98438 1.1016-0.31641 1.3398-1.3398 1.1016-0.58984 1.1602-1.0234 1.0469-1.3789 0.55078-1.8906 0.35156-1.1406 1.2188-2.25 0.13672-2.2266-0.058594-1.1523-1.2734-1.4883-0.23828-1.2344 0.93359-1.7109 2.5781-2.9023 0.375-1.2266 0.12109-1.2422 0.14844-1.0625-0.73438-1.6484 0.22266-1.5938 0.41016-0.9375 1.1055-0.43359 1.0938-0.027343 0.61328-0.88672 0.015625-1.6758-0.34375-1.3047-0.77734-1-0.089843-1.0781 0.61328-1.2891 0.43359-1.0938 0.74609-0.77734 1.1406-0.14844 1.168-0.26953 1-0.71875 0.84766-0.60938 0.72266-0.80859 0.91406-1.6797v-2.2266l0.78125-1.3828 1.1289-0.46094 1.1016-2.4648 0.61328-1.9727 0.80859-1.4062 0.92969-0.98828 1.5859-0.71875 2.082-0.13281 1.75 0.41797 1.5898 0.23828 1.2422 0.30078 1.1367-0.25391 0.98828-0.79297 1.3789-0.75781 1.6875-0.62109 1.7539-0.98828 0.57031-0.875 0.33594-1.1602-0.10938-1.4961-0.80859-1.3672-0.93359-0.80469-0.53125-0.88672-0.12891-1.207-0.78516-1.0625-0.70703-0.76172-1.2188-1.9102-1.6953-0.94141-1.1953-0.875-0.51172-1.1914 1.7539-0.48438 1.0625-0.69141-0.015625-1.1602 0.078125-1.4648-0.078125-1.3164-0.042969-1.082-0.070312-1.125-0.03125-1.1602-0.14844-1.832 0.019532-1.0312 0.20703-1.0625 0.85156-0.80469 1.1445-1.0625 0.33984-0.98047-0.12891-1.4023-0.24219-1.0938-0.003907-1.082-0.75-2.1016-1.5898-1.1602-0.80859-0.92188-0.35156-1.2891-0.28125-1.3438-0.36719-1.168-1.5273-1.2383-0.074219-1.7812-0.074218-1.2578-0.57812-1.5938 0.066406-1.3828 0.0625-1.2227-0.16016-1.2383-0.52734-1.457-0.19922-1.1992 0.4375-1.2227 0.72266-0.69531 0.67578-0.82031 0.066406-1.2695-0.54688-1.3516-0.58203-0.90234-0.67578-1.0469-0.85156-1.3828-0.32422-1.3555 0.17578-1.1094 0.5-1.5938 0.54688-1.1758 0.53125-1.3516 0.45312-1.0273 0.35156-1.1445 0.89062-0.89453 1.4336-0.72266 0.70703-0.84766 0.39062-1.2891 0.31641-1.5625 0.50781-1.1836-1.5391-0.83984h-1.0039l-1.875-0.46094-0.85938-0.78125-1.668-0.96875-0.8125-0.58984-0.92188-0.76172-1.0195-0.55859-1.668-1.0312-1.1133-1.3672-1.0352-1.418-0.37109-1.3008 0.38672-1.1445-0.94922-0.86719-1.5273-0.93359-0.97656-1.3789-0.55469-1.0234-0.77734-1.5703v-2.1328l0.32031-0.95703 0.90625-1.0781 1.0156-0.79297 1.4609-1.1445 1.5938-2.3867 0.23047-1.1328 0.66016-1.2383 0.42578-1.7148-0.39453-1.7031-0.80078-0.60547-0.26562-1.2539 0.77734-1.0508 0.64453-0.87109 0.82031-1.3672 0.14453-1.1289-0.046875-1.1094-0.66406-1.1406-0.25391-1.1758 0.38672-1.0469 0.33594-1.0117-0.86719-0.93359-0.82422-0.85547-0.69141-1.3633-0.63672-1.2734-1.1016-1.0352-1.1914-0.21484-1.0938 0.058594-1.0273-0.11328-1.1328 0.67578-1.2969 0.28906-1.1133 0.0625-1.0703 0.074219-1.1367-0.46094-1.0273 0.17969-1.2109 0.22266-5.2812 0.074219-3.7578-0.24219-1.4961-0.046875-0.93359-0.58203-0.94141-0.41797-2.0195 0.52344-1.3047-0.0625-1.207-0.46094-0.72656-1.332-0.52734-1.0781 0.625-0.94141-0.73047-0.83594 0.23828-1.3047 0.023438-1.5234 0.050781-1.4297 0.31641-1.7109-0.10547-1.0469-0.03125-1.4648 0.042968-1.1055 0.66797-1.4492 0.64062-1.3867 0.33594-0.98828 0.28125-2.0078 0.48047-0.89453 0.82422-0.71094 0.25391-1.1719 1.375-1.0195 1.2734-0.82031 0.69141-1.0156 0.66016-1.4336 0.24219-0.98047-0.011719-1.2188-0.11328-1.0938-0.22266-1.0742 0.023437-1.2305 0.625-1.0273 1.5312-0.023438 1.2188-0.019531 1.3867-0.046875 1.2539-0.26953 1.5742 0.074218 1.3438 0.30859 1.7266-0.054687 1.2812-0.30859 2.0156-0.96094 0.47266-1.7305 0.23438-1.1797 0.55469-0.87891 0.69531-1.1133 0.91016-1.4531 0.59766-0.88281-0.5-1.0664-0.53125-0.92969-0.82031-1.7227-0.53516-1.7656-0.11328-1.6484-0.23828-1.8789-0.12891-1.875 0.085937-1.7188 0.16406-3.3672 0.35547-1.582 0.58594-1.0742 0.90625-1.2891 0.050781-1.3594-0.33203-2.4727 0.19141-1.4414-0.17578-1.293-0.31641-1.6406 0.023437-1.0586 0.77734-1.3477 0.49609-1.7812 0.48047-0.93359 1.6484-1.5391 0.49219-2.0703-0.09375-1.4688-0.67188-0.99609-0.078125-1.9219 0.60547-1.3047 1.0156-1 0.47656-1.082-0.34766-1.0195 1.3516-3.543 0.91016-2.0859 0.42969-1.2617 0.8125-1.0625 1.6602-0.82812 0.9375-0.52344 0.93359-0.76953 1.9023-0.94141 0.69141-0.73828 0.48438-2.0156 0.30859-1.2266 1.457-1.9062 1.4766-2.2891 1.5625 0.90234 1.1289 0.19531 1.1641 0.44531 1.4805-0.375 1.0898-0.87891 1.1289-0.79688 1.2695-0.089844 1.0898-0.42188 0.96094 0.32031 1.0898 0.14062 1.0898-0.48828 1.0977-1.2461 0.81641-2.0938 1.3203-1.5586 0.65234-1.168 1.2109-1.5625 0.67188-1.5312 0.74609-1.7578 1.4414-1.1016 1.1172-0.44141 0.45703-1.3984 0.45312-1.0938 1.1797-0.46875 1.418-0.1875 1-0.16016 0.72266-0.96484 2.0352-0.47656 1.2852 0.074219 0.99219-0.1875 0.16016-1.3594-0.039062-1.3359 0.65625-1.1367 1.3633-0.98047 1-0.64844 1.293-0.26172 1.1094-0.39844 1.207-0.49609 0.98438-0.54688 1.6484-0.16797 1.0039-0.42969 0.5625-1.0156 1.5781-0.89844 1.0078-1.0156 0.92188-0.5625 1.9727-2.3398 1.6094-1.2852 1.0117-0.36328 1.3438 0.015625 1.9883-0.83984 2.3086-0.21094 1.957 1.8516" fill="none" stroke="#fff" stroke-linecap="round" stroke-linejoin="round" stroke-miterlimit="10" stroke-width="2"/>
<path d="m173.95 75.996 0.28125 0.11328 3.5977 1.7891 1.0469 0.26562 1.4219 0.082031 1.7305 0.45312 0.92578 0.39453 1.6875-0.16797 1.8516-0.12109 1.4297-0.96094 1.1133-0.55859 1.1797 0.51172 1.1641 0.34766 1.5234 0.29688 1.75 0.015625 0.96875-0.29297 1.4766 0.5625 1.1602 0.61328 1.2266 0.30469 0.98438-0.21875 1.0469 0.23438 0.82031 0.76953 0.85938 0.80078 0.9375 0.46094 0.99609 0.18359 1.5625-0.42578 1.0742-0.47656 0.94141-0.49219 3.543 0.74219 1.2578 0.38672 0.68359 1.1406 1.0273 0.125 0.91016 0.49609 1.0039 0.66797 1.125 0.56641 1.0078 0.51953 0.58984 0.82812 1.1055 0.14453 2.0117 0.71484 1.1641 0.042969 1.0508 0.011719 0.39844 1.1406 0.25781 0.98828 0.9375 0.63281 1.543 0.66406-0.19922 1.0938-0.17969 1.1641 0.54297 0.90625 0.82422 0.76953 0.97656 0.26172 1.0234-0.17188 1.2812-0.58984 0.70312-0.83203 0.71875-0.98438 1.0117-0.57812 1.0312 0.15234 0.93359-0.42188 1.0195-0.058594 1.5352 0.32031 0.98438 0.49219 1.1758-0.035156 1.2812 0.94141 0.83984 0.75 1.7969 0.89062 0.8125 0.63281 0.042969 1.0156 0.011719 1.1016 0.87109 0.62891 1.043 0.33984 1.1953 0.99609 1 0.68359 1.1523 0.46484 1.0117 0.19531 1.0156 0.070313 1.1406 0.37891 0.90625 0.82031 1.6992 0.82031 0.94922 0.36328 0.94531 0.90234 0.85547 1.2383-0.039062 1.0977 0.66406 1.0391 1.2344-0.375 0.86328-0.71094 0.9375 0.41797 0.066407 1.0039 0.054687 1.0547 0.58203 1.0039 0.84766 0.76953 0.57031 0.91406 1.4297 0.46094 1.1211 0.54297 1.1289 0.28125 1.4922 1.4414-0.26953 1.0703 0.79688 1.0352-0.066406 1.8125 0.26562 1.1758 0.96484 0.83984 0.86719 0.80859 0.30078 1.3594 0.53516 0.90234-0.11328 1.3945 0.35156 1.6992-0.54688 1.1562-0.58594 0.94141 0.19141 1.0742-0.17969 1.1445-1.375 0.54688-0.51562 1.3984-0.30859 1.5234 0.87109 1.1289 0.35938 1.4648-0.12891 1.168-0.51953 1.2227-0.65625 0.76172 0.36328 1.0039-0.64062 3.2266-0.29688 1.5547 0.070312 1.0312 0.17188 1.2695-0.13672 1.7852-0.28125 1.4844-0.55859 1.6445 0.1875 1.2422 1.1484 1.8008 0.21875 2.207 0.14062 3.8711 0.99609 1.293 0.23047 1.2734-0.007813 1.1875-1.0156 0.99219-0.57422 1.1797-0.0625 1.7578-0.77344 1.0977 0.0625 1.7773 0.38672 1.0078 0.45703 1.0859-0.03125 1.5352 0.80469 1.5742 0.070313 1.1562 0.011719 2.3281 0.25781 1.0312-1.332 1.9492-0.55469 0.95312-0.80078 1.0508-0.65234 1.2617-0.69141 1.1406-0.15234 1.3047 0.17578 1.082 0.078125 1.3047-1.3086-1.5234-1.1602-0.42969-1.2344 0.039063-0.79297-0.91406 0.23828-1.5156 0.11719-1.9258 0.15234-2.4766 0.52344-0.94141 0.042969-1.3398-0.52734-1.2891 0.0625-2.082-0.28125-1.4219-1.2422-0.67578-0.28906-1.4492 0.066406-1.9414 0.34766-2.5742-0.23828-1.1445-1.4961-3.0547-0.47656-0.92188-1.2031-0.57812-1.3711-1.2031-0.79688-1.3516-0.10938-1.3203-0.62109-1.7617-1.1602-2.3711-0.47656-1.9883 0.14062-1.2227 0.42969-1.3047-1-1.4805-3.7852-2.7969-0.76562-0.68359-1.4336-2.8867-0.44141-0.96094-0.90625-0.78125-1.5938-3.418-0.96484-1.7969-0.51172-1.0039-0.61719-1.7148-0.12891-1.0039-1.2734-1.1133-3.1133-2.0664-0.89453-1.0625-1.6016-0.43359-1.4414-0.38281-1.3672-0.80859-0.56641-1.0156-0.67578-1.0156-2.3125-0.73438-1.6406 0.16797-1.5781 0.28125-1.9766 0.56641-1.2969 0.22656-2.9453-0.25-2.1367 0.19141-1.8633 0.11328-1.4688 0.45312-1.5352 0.82812-1.1016-0.03125-1-0.35938-1 0.015625-0.98438 0.21875-2.3125 0.56641-1.4648-0.36328-1.3711-0.33594-1.9102-0.46875-0.92578-0.39453-1.0469-0.5625-1.9531-1.3711-0.73438-1.0742-1.0781-0.45312-1.0391-0.33594-0.92969-1.0859-0.98438-0.65234-1.0781-0.23047-0.6875-1.1133-0.22266-1.3711-1.2617-0.11328-1.0938-0.24219-1.0391-0.70312-0.85156-0.70312-1.0039 0.070312-3.4023 0.47656-1.2344-0.16797-0.84766-1.2969 0.14453-1.5508 0.12891-1.3711 0.87891-2.2109 0.94141-2.9453-0.13281-1.9102-0.51953-2.4844-0.62891-1.8008-0.73438-1.3164-1.2852-1.8008-1.7656-3.1328-1.2969-2.1367-2.1289-2.9727-0.46094-1.082 0.035156-1.5234 1.2656-0.48438 2.0547 0.22656 1.0234-0.12891 0.53906-1.1875-0.69531-2.1836-0.59766-1.1289-1.5273-1.5273-2.0273-1.1445-1.4805-0.62891-0.96484-0.36719-3.25-0.49609 2.1172-1.2695 1.2539-0.25391z" fill="#ccc" fill-rule="evenodd"/>
<path d="m173.95 75.996 0.28125 0.11328 3.5977 1.7891 1.0469 0.26562 1.4219 0.082031 1.7305 0.45312 0.92578 0.39453 1.6875-0.16797 1.8516-0.12109 1.4297-0.96094 1.1133-0.55859 1.1797 0.51172 1.1641 0.34766 1.5234 0.29688 1.75 0.015625 0.96875-0.29297 1.4766 0.5625 1.1602 0.61328 1.2266 0.30469 0.98438-0.21875 1.0469 0.23438 0.82031 0.76953 0.85938 0.80078 0.9375 0.46094 0.99609 0.18359 1.5625-0.42578 1.0742-0.47656 0.94141-0.49219 3.543 0.74219 1.2578 0.38672 0.68359 1.1406 1.0273 0.125 0.91016 0.49609 1.0039 0.66797 1.125 0.56641 1.0078 0.51953 0.58984 0.82812 1.1055 0.14453 2.0117 0.71484 1.1641 0.042969 1.0508 0.011719 0.39844 1.1406 0.25781 0.98828 0.9375 0.63281 1.543 0.66406-0.19922 1.0938-0.17969 1.1641 0.54297 0.90625 0.82422 0.76953 0.97656 0.26172 1.0234-0.17188 1.2812-0.58984 0.70312-0.83203 0.71875-0.98438 1.0117-0.57812 1.0312 0.15234 0.93359-0.42188 1.0195-0.058594 1.5352 0.32031 0.98438 0.49219 1.1758-0.035156 1.2812 0.94141 0.83984 0.75 1.7969 0.89062 0.8125 0.63281 0.042969 1.0156 0.011719 1.1016 0.87109 0.62891 1.043 0.33984 1.1953 0.99609 1 0.68359 1.1523 0.46484 1.0117 0.19531 1.0156 0.070313 1.1406 0.37891 0.90625 0.82031 1.6992 0.82031 0.94922 0.36328 0.94531 0.90234 0.85547 1.2383-0.039062 1.0977 0.66406 1.0391 1.2344-0.375 0.86328-0.71094 0.9375 0.41797 0.066407 1.0039 0.054687 1.0547 0.58203 1.0039 0.84766 0.76953 0.57031 0.91406 1.4297 0.46094 1.1211 0.54297 1.1289 0.28125 1.4922 1.4414-0.26953 1.0703 0.79688 1.0352-0.066406 1.8125 0.26562 1.1758 0.96484 0.83984 0.86719 0.80859 0.30078 1.3594 0.53516 0.90234-0.11328 1.3945 0.35156 1.6992-0.54688 1.1562-0.58594 0.94141 0.19141 1.0742-0.17969 1.1445-1.375 0.54688-0.51562 1.3984-0.30859 1.5234 0.87109 1.1289 0.35938 1.4648-0.12891 1.168-0.51953 1.2227-0.65625 0.76172 0.36328 1.0039-0.64062 3.2266-0.29688 1.5547 0.070312 1.0312 0.17188 1.2695-0.13672 1.7852-0.28125 1.4844-0.55859 1.6445 0.1875 1.2422 1.1484 1.8008 0.21875 2.207 0.14062 3.8711 0.99609 1.293 0.23047 1.2734-0.007813 1.1875-1.0156 0.99219-0.57422 1.1797-0.0625 1.7578-0.77344 1.0977 0.0625 1.7773 0.38672 1.0078 0.45703 1.0859-0.03125 1.5352 0.80469 1.5742 0.070313 1.1562 0.011719 2.3281 0.25781 1.0312-1.332 1.9492-0.55469 0.95312-0.80078 1.0508-0.65234 1.2617-0.69141 1.1406-0.15234 1.3047 0.17578 1.082 0.078125 1.3047-1.3086-1.5234-1.1602-0.42969-1.2344 0.039063-0.79297-0.91406 0.23828-1.5156 0.11719-1.9258 0.15234-2.4766 0.52344-0.94141 0.042969-1.3398-0.52734-1.2891 0.0625-2.082-0.28125-1.4219-1.2422-0.67578-0.28906-1.4492 0.066406-1.9414 0.34766-2.5742-0.23828-1.1445-1.4961-3.0547-0.47656-0.92188-1.2031-0.57812-1.3711-1.2031-0.79688-1.3516-0.10938-1.3203-0.62109-1.7617-1.1602-2.3711-0.47656-1.9883 0.14062-1.2227 0.42969-1.3047-1-1.4805-3.7852-2.7969-0.76562-0.68359-1.4336-2.8867-0.44141-0.96094-0.90625-0.78125-1.5938-3.418-0.96484-1.7969-0.51172-1.0039-0.61719-1.7148-0.12891-1.0039-1.2734-1.1133-3.1133-2.0664-0.89453-1.0625-1.6016-0.43359-1.4414-0.38281-1.3672-0.80859-0.56641-1.0156-0.67578-1.0156-2.3125-0.73438-1.6406 0.16797-1.5781 0.28125-1.9766 0.56641-1.2969 0.22656-2.9453-0.25-2.1367 0.19141-1.8633 0.11328-1.4688 0.45312-1.5352 0.82812-1.1016-0.03125-1-0.35938-1 0.015625-0.98438 0.21875-2.3125 0.56641-1.4648-0.36328-1.3711-0.33594-1.9102-0.46875-0.92578-0.39453-1.0469-0.5625-1.9531-1.3711-0.73438-1.0742-1.0781-0.45312-1.0391-0.33594-0.92969-1.0859-0.98438-0.65234-1.0781-0.23047-0.6875-1.1133-0.22266-1.3711-1.2617-0.11328-1.0938-0.24219-1.0391-0.70312-0.85156-0.70312-1.0039 0.070312-3.4023 0.47656-1.2344-0.16797-0.84766-1.2969 0.14453-1.5508 0.12891-1.3711 0.87891-2.2109 0.94141-2.9453-0.13281-1.9102-0.51953-2.4844-0.62891-1.8008-0.73438-1.3164-1.2852-1.8008-1.7656-3.1328-1.2969-2.1367-2.1289-2.9727-0.46094-1.082 0.035156-1.5234 1.2656-0.48438 2.0547 0.22656 1.0234-0.12891 0.53906-1.1875-0.69531-2.1836-0.59766-1.1289-1.5273-1.5273-2.0273-1.1445-1.4805-0.62891-0.96484-0.36719-3.25-0.49609 2.1172-1.2695 1.2539-0.25391 1.3828 0.125" fill="none" stroke="#fff" stroke-linecap="round" stroke-linejoin="round" stroke-miterlimit="10" stroke-width="2"/>
<path d="m202.86 0.125 0.82812 0.30859 1.0938 0.23438 1.1211 0.03125 0.64844 0.86328-0.92969 0.76172-1.0469-0.16016-0.36328-0.94531-0.95703-0.37891-1.1719 0.10156-1.9258 0.20312-1.5273 0.15625-1.2656-0.16797-1.0742 0.21875-0.82422-0.57422-1.3008-0.003906-1.2695 0.51953-1.0664 0.14062-1.6523-0.003906-1.0156 0.24219-0.76953 0.66406-1.8242-0.058594-1.1836 0.41797-1.0898 0.96094-0.44922 1.0508-0.99609 0.44922-1.125 0.19922-1.0312 0.14062-1.9219 0.48047-1.0078 0.40234 2.7305-0.41016 1.6602-0.09375 1.1289-0.5 0.91016-0.58203 0.60156-1.082 1.2734-0.39453-0.91797 0.49609 1.4141-0.097656 1.1914 0.11328 0.73438 0.85938-1.9336 0.49609-1.0156 0.61328-0.96875 0.80469-0.89062 0.96484 0.47656 0.89062 0.86719 0.53125 1.7461-0.42578 1.3281-0.58594 1.25-0.31641 1.7891-0.46484 1.082-0.20703 1.4922 0.19141 0.98047 0.63672 0.40234 1.1172 0.82812 0.94141-0.27734 1.2344-1.0156 0.20312-1 0.082031-1.0156-0.37891-0.17578 1.1562-1.9258 0.35547 0.27734 1.0508-0.99219 0.42578-0.30078 1.0352 0.15234 1.1289-0.86328 0.60938 1.0625 0.066406 1.0117-0.17578 0.32812 1.7695 1.0586-0.39844 0.57812-1.0117 1.1328-0.51562 1.5039-0.19141 1.1328-0.14453 1.4141-0.5625 2.3633-0.66797-0.80859-0.73828 1.0703-0.45312 1.2578 0.21094 1.0781-0.066406 1.0234-0.12891 0.97656-0.67578 1.5195-0.37109 0.75-0.80859 1.2852-0.85547 2.0703-0.76172 1.1211-0.5 0.93359-0.36719 0.96094-0.30078 0.93359-0.49219 1.1055-0.67188 1.582-0.61719 0.95703-0.625 0.98047-0.31641 13.34 45.566 10.691 37.27 0.60938 2.918 0.027344 1.0273-1.3477-0.9375-1.1875-0.55859-1.0586 0.011719-1.5664-0.52344-1.0078-0.19531-1.0234 0.22656-1.1836 0.13281-1.2227 0.36328-0.72656 0.76172-0.51953 0.89844-0.85938 0.60547-1.2031 0.44141-1.1914-0.042969-0.95703-0.54688-0.62109-0.80469-0.20312-1.0977 0.49219-0.98828-0.875-0.94922-1.1055-0.53906-0.77344-0.72656-0.078125-1.0898-0.55859-0.83203-1.3477 0.15234-1.8125-0.90625-1.4414 0.058594-0.86328-0.54688-0.98438-0.84375-0.97656-0.28906-0.76953-0.65625-1-0.66797-1.2031-0.16797-0.875-0.60156-1.5352-1.1055-2.5977-0.77344-1.043 0.074219-1.2031 0.62109-1.3828 0.53516-1.0234 0.1875-1.1289-0.25391-0.97266-0.62109-1.3828-1.332-1.0469-0.23438-0.98438 0.21875-1.2266-0.30469-1.1602-0.61328-1.0039-0.45312-1.0078-0.078125-1.3086 0.41406-2.3984-0.46484-1.1641-0.34766-1.1797-0.51172-1.1133 0.55859-1.4297 0.96094-1.8516 0.12109-1.6875 0.16797-0.92578-0.39453-1.7305-0.45312-1.4219-0.082031-1.0469-0.26562-3.1289-1.7891-1.2422-0.30859-1.4336 0.24609-2.8281 1.3477-1.7734-0.32031-0.96484-0.48438-1.1094-0.78516-0.63672-0.79297-0.046875-1.4961 0.79297-2.0547 0.92578-2.125 0.125-1.0195-0.70703-0.96094-0.96875-0.39844-2.7109-0.92969-0.78125-1.6016 0.89844-1.3086 1.3672-0.39453 2.0938-0.60938 1.0273-0.47656 0.55859-1.1641-1.8906-1.5742-1.0117-0.89453-1.9922-2.6953-1.5-2.4062-1.4805-2.1602-1.7539-1.9258-2.3047-2-1.582-1.4609-0.55469-1.1953-0.17969-3.5781-0.77344-0.74609-1.4961 0.46094-1.2891-0.57031-0.69922-1.4023-1.5312-0.58984-0.99609-0.62109-0.90625-1.0625-0.23828-1.3672 0.82812-1.2227 0.33203-1.0039 0.085938-1.0938-0.83203-0.82812-0.99219-0.39453-2.0312 0.25-0.96094-0.59375 0.19141-1.7031 0.14844-1.0586 0.89062-1.3828 1.0977-0.66797 3.0391-0.39844 1.2891-0.46094 1.4844-1.418 0.26172-1.0312-0.03125-1.1445-0.79297-1.5938-1.5156-0.22656-2.0781 0.53125-1.1602-0.39844 0.125-2.1836-0.71875-1.5312-1.3906-1.0469-1.293-0.70312-0.77734-1.1992h1.3594l0.64062-1.3906 0.71484-0.91016 0.47266-0.90234 0.18359-1.0234 1.168-0.125 1.1875 0.86719 1.0469 0.19922 1.3164 0.44531 1.0352 0.074219 1.1055 0.3125 1.2266 0.61328-1.5352-0.15625-1.3867-0.44141-1.6172-0.18359-1.2891-0.30469-1.168-0.38672-1.1641 0.51953-0.66797 1.2461-0.53516 0.96094 0.54297 0.86719-0.10938-1.0039 1.0469-0.9375 0.61719-0.80078 1.1484 0.15625 1.0977 0.48828 1.9453 0.98047 1.3242 0.27344-1.0703 0.13281-0.97656-0.60156 0.30469 0.95312 1.1133 0.69922 1.1758 0.39453 1 0.26172 1.1094 0.12891 1.0625 0.24219 1.0664 0.30469 1.2188 0.0625 1.1719-0.085938 1.3281-0.17578-1.0234-0.17578-1-0.042969-1.043-0.19531-1.1758-0.26172-1.0625-0.37109-1.0938-0.32422 1.0898-0.28906 1.0664 0.57031 1.2188 0.32422 1.5234 0.19922h1.0859l1.1523-0.26562 1.0195-0.37109 0.97266-0.35938 1.2656-0.42188 1.0859-0.49609 0.91406-0.71094 0.90234-0.58984 1.1133-0.10938-0.88672 0.82031-1.0352 0.41016-0.81641 0.84375 0.28125 1.1016 0.56641-0.83594 0.86719-0.89844 0.79297-0.66406 1.3633-0.94531 1.0547-0.375 2.332-1.2891 0.92578-0.41797 1.0898-0.42969 1.6953-0.77344 1.5781-0.85547 1.4883-0.50781 1.0859-0.4375 1.3711-0.62891 1.2031-0.41016 1.332-0.65625 1.2461-0.42969 2.1172-0.89062 1.2109-0.39062 2.8281-0.73047 1.4766-0.13281 1.0117-0.19531 1.8789 0.089844 1.8711-0.19141 1.8711-0.070312 2.0312-0.15234h1.332z" fill="#0a5394" fill-rule="evenodd"/>
<path d="m202.86 0.125 0.82812 0.30859 1.0938 0.23438 1.1211 0.03125 0.64844 0.86328-0.92969 0.76172-1.0469-0.16016-0.36328-0.94531-0.95703-0.37891-1.1719 0.10156-1.9258 0.20312-1.5273 0.15625-1.2656-0.16797-1.0742 0.21875-0.82422-0.57422-1.3008-0.003906-1.2695 0.51953-1.0664 0.14062-1.6523-0.003906-1.0156 0.24219-0.76953 0.66406-1.8242-0.058594-1.1836 0.41797-1.0898 0.96094-0.44922 1.0508-0.99609 0.44922-1.125 0.19922-1.0312 0.14062-1.9219 0.48047-1.0078 0.40234 2.7305-0.41016 1.6602-0.09375 1.1289-0.5 0.91016-0.58203 0.60156-1.082 1.2734-0.39453-0.91797 0.49609 1.4141-0.097656 1.1914 0.11328 0.73438 0.85938-1.9336 0.49609-1.0156 0.61328-0.96875 0.80469-0.89062 0.96484 0.47656 0.89062 0.86719 0.53125 1.7461-0.42578 1.3281-0.58594 1.25-0.31641 1.7891-0.46484 1.082-0.20703 1.4922 0.19141 0.98047 0.63672 0.40234 1.1172 0.82812 0.94141-0.27734 1.2344-1.0156 0.20312-1 0.082031-1.0156-0.37891-0.17578 1.1562-1.9258 0.35547 0.27734 1.0508-0.99219 0.42578-0.30078 1.0352 0.15234 1.1289-0.86328 0.60938 1.0625 0.066406 1.0117-0.17578 0.32812 1.7695 1.0586-0.39844 0.57812-1.0117 1.1328-0.51562 1.5039-0.19141 1.1328-0.14453 1.4141-0.5625 2.3633-0.66797-0.80859-0.73828 1.0703-0.45312 1.2578 0.21094 1.0781-0.066406 1.0234-0.12891 0.97656-0.67578 1.5195-0.37109 0.75-0.80859 1.2852-0.85547 2.0703-0.76172 1.1211-0.5 0.93359-0.36719 0.96094-0.30078 0.93359-0.49219 1.1055-0.67188 1.582-0.61719 0.95703-0.625 0.98047-0.31641 13.34 45.566 10.691 37.27 0.60938 2.918 0.027344 1.0273-1.3477-0.9375-1.1875-0.55859-1.0586 0.011719-1.5664-0.52344-1.0078-0.19531-1.0234 0.22656-1.1836 0.13281-1.2227 0.36328-0.72656 0.76172-0.51953 0.89844-0.85938 0.60547-1.2031 0.44141-1.1914-0.042969-0.95703-0.54688-0.62109-0.80469-0.20312-1.0977 0.49219-0.98828-0.875-0.94922-1.1055-0.53906-0.77344-0.72656-0.078125-1.0898-0.55859-0.83203-1.3477 0.15234-1.8125-0.90625-1.4414 0.058594-0.86328-0.54688-0.98438-0.84375-0.97656-0.28906-0.76953-0.65625-1-0.66797-1.2031-0.16797-0.875-0.60156-1.5352-1.1055-2.5977-0.77344-1.043 0.074219-1.2031 0.62109-1.3828 0.53516-1.0234 0.1875-1.1289-0.25391-0.97266-0.62109-1.3828-1.332-1.0469-0.23438-0.98438 0.21875-1.2266-0.30469-1.1602-0.61328-1.0039-0.45312-1.0078-0.078125-1.3086 0.41406-2.3984-0.46484-1.1641-0.34766-1.1797-0.51172-1.1133 0.55859-1.4297 0.96094-1.8516 0.12109-1.6875 0.16797-0.92578-0.39453-1.7305-0.45312-1.4219-0.082031-1.0469-0.26562-3.1289-1.7891-1.2422-0.30859-1.4336 0.24609-2.8281 1.3477-1.7734-0.32031-0.96484-0.48438-1.1094-0.78516-0.63672-0.79297-0.046875-1.4961 0.79297-2.0547 0.92578-2.125 0.125-1.0195-0.70703-0.96094-0.96875-0.39844-2.7109-0.92969-0.78125-1.6016 0.89844-1.3086 1.3672-0.39453 2.0938-0.60938 1.0273-0.47656 0.55859-1.1641-1.8906-1.5742-1.0117-0.89453-1.9922-2.6953-1.5-2.4062-1.4805-2.1602-1.7539-1.9258-2.3047-2-1.582-1.4609-0.55469-1.1953-0.17969-3.5781-0.77344-0.74609-1.4961 0.46094-1.2891-0.57031-0.69922-1.4023-1.5312-0.58984-0.99609-0.62109-0.90625-1.0625-0.23828-1.3672 0.82812-1.2227 0.33203-1.0039 0.085938-1.0938-0.83203-0.82812-0.99219-0.39453-2.0312 0.25-0.96094-0.59375 0.19141-1.7031 0.14844-1.0586 0.89062-1.3828 1.0977-0.66797 3.0391-0.39844 1.2891-0.46094 1.4844-1.418 0.26172-1.0312-0.03125-1.1445-0.79297-1.5938-1.5156-0.22656-2.0781 0.53125-1.1602-0.39844 0.125-2.1836-0.71875-1.5312-1.3906-1.0469-1.293-0.70312-0.77734-1.1992h1.3594l0.64062-1.3906 0.71484-0.91016 0.47266-0.90234 0.18359-1.0234 1.168-0.125 1.1875 0.86719 1.0469 0.19922 1.3164 0.44531 1.0352 0.074219 1.1055 0.3125 1.2266 0.61328-1.5352-0.15625-1.3867-0.44141-1.6172-0.18359-1.2891-0.30469-1.168-0.38672-1.1641 0.51953-0.66797 1.2461-0.53516 0.96094 0.54297 0.86719-0.10938-1.0039 1.0469-0.9375 0.61719-0.80078 1.1484 0.15625 1.0977 0.48828 1.9453 0.98047 1.3242 0.27344-1.0703 0.13281-0.97656-0.60156 0.30469 0.95312 1.1133 0.69922 1.1758 0.39453 1 0.26172 1.1094 0.12891 1.0625 0.24219 1.0664 0.30469 1.2188 0.0625 1.1719-0.085938 1.3281-0.17578-1.0234-0.17578-1-0.042969-1.043-0.19531-1.1758-0.26172-1.0625-0.37109-1.0938-0.32422 1.0898-0.28906 1.0664 0.57031 1.2188 0.32422 1.5234 0.19922h1.0859l1.1523-0.26562 1.0195-0.37109 0.97266-0.35938 1.2656-0.42188 1.0859-0.49609 0.91406-0.71094 0.90234-0.58984 1.1133-0.10938-0.88672 0.82031-1.0352 0.41016-0.81641 0.84375 0.28125 1.1016 0.56641-0.83594 0.86719-0.89844 0.79297-0.66406 1.3633-0.94531 1.0547-0.375 2.332-1.2891 0.92578-0.41797 1.0898-0.42969 1.6953-0.77344 1.5781-0.85547 1.4883-0.50781 1.0859-0.4375 1.3711-0.62891 1.2031-0.41016 1.332-0.65625 1.2461-0.42969 2.1172-0.89062 1.2109-0.39062 2.8281-0.73047 1.4766-0.13281 1.0117-0.19531 1.8789 0.089844 1.8711-0.19141 1.8711-0.070312 2.0312-0.15234h1.332l1.168 0.125" fill="none" stroke="#fff" stroke-linecap="round" stroke-linejoin="round" stroke-miterlimit="10"/>
<path d="m172.24 57.324c0 3.5898-2.9102 6.5-6.5 6.5-3.5898 0-6.5-2.9102-6.5-6.5s2.9102-6.5 6.5-6.5c3.5898 0 6.5 2.9102 6.5 6.5" fill="#28c028" fill-rule="evenodd" stroke="#000" stroke-linecap="round" stroke-linejoin="round" stroke-miterlimit="10"/>
<path d="m68.004 51.324v-13.672h-4.875v-2.7969h13.078v2.7969h-4.875v13.672zm10.328-16.469h3.3125v8.9219c0 1.418 0.039063 2.3359 0.125 2.75 0.14453 0.67969 0.48438 1.2188 1.0156 1.625 0.53906 0.40625 1.2734 0.60938 2.2031 0.60938 0.9375 0 1.6445-0.19141 2.125-0.57812 0.47656-0.38281 0.76562-0.85938 0.85938-1.4219 0.10156-0.5625 0.15625-1.4922 0.15625-2.7969v-9.1094h3.3281v8.6562c0 1.9688-0.09375 3.3672-0.28125 4.1875-0.17969 0.8125-0.50781 1.5-0.98438 2.0625-0.48047 0.5625-1.125 1.0117-1.9375 1.3438s-1.8711 0.5-3.1719 0.5c-1.5742 0-2.7656-0.18359-3.5781-0.54688s-1.4531-0.83203-1.9219-1.4062c-0.46875-0.58203-0.77734-1.1914-0.92188-1.8281-0.21875-0.94531-0.32812-2.3438-0.32812-4.1875zm16.578 16.469v-16.469h4.9844l2.9844 11.234 2.9531-11.234h4.9844v16.469h-3.0938v-12.953l-3.2656 12.953h-3.2031l-3.25-12.953v12.953zm19.219-16.469h6.5781c1.3008 0 2.2695 0.058594 2.9062 0.17188 0.64453 0.10547 1.2188 0.32812 1.7188 0.67188 0.50781 0.34375 0.92969 0.80469 1.2656 1.375 0.34375 0.57422 0.51562 1.2188 0.51562 1.9375 0 0.77344-0.21094 1.4805-0.625 2.125-0.41797 0.63672-0.98047 1.1172-1.6875 1.4375 1 0.29297 1.7656 0.79297 2.2969 1.5 0.53906 0.69922 0.8125 1.5273 0.8125 2.4844 0 0.74219-0.17188 1.4648-0.51562 2.1719-0.34375 0.71094-0.82031 1.2773-1.4219 1.7031-0.60547 0.41797-1.3516 0.67969-2.2344 0.78125-0.55469 0.0625-1.8906 0.10156-4.0156 0.10938h-5.5938zm3.3281 2.75v3.7969h2.1719c1.2891 0 2.0977-0.015625 2.4219-0.046875 0.5625-0.070313 1.0039-0.26953 1.3281-0.59375 0.33203-0.32031 0.5-0.75 0.5-1.2812 0-0.50781-0.14062-0.92188-0.42188-1.2344-0.28125-0.32031-0.69922-0.51953-1.25-0.59375-0.33594-0.03125-1.2812-0.046875-2.8438-0.046875zm0 6.5469v4.3906h3.0781c1.1953 0 1.9531-0.03125 2.2656-0.09375 0.5-0.09375 0.90625-0.3125 1.2188-0.65625s0.46875-0.8125 0.46875-1.4062c0-0.48828-0.12109-0.90625-0.35938-1.25-0.24219-0.34375-0.58984-0.59375-1.0469-0.75-0.44922-0.15625-1.4336-0.23438-2.9531-0.23438zm13.266 7.1719v-16.469h12.203v2.7969h-8.875v3.6406h8.2656v2.7812h-8.2656v4.4688h9.2031v2.7812zm14.5-5.3594 3.2344-0.3125c0.19531 1.0859 0.59375 1.8828 1.1875 2.3906 0.59375 0.51172 1.3945 0.76562 2.4062 0.76562 1.0703 0 1.8789-0.22266 2.4219-0.67188 0.53906-0.45703 0.8125-0.98828 0.8125-1.5938 0-0.39453-0.11719-0.72656-0.34375-1-0.23047-0.26953-0.625-0.50391-1.1875-0.70312-0.39844-0.13281-1.2891-0.375-2.6719-0.71875-1.7812-0.44531-3.0312-0.99219-3.75-1.6406-1.0117-0.90625-1.5156-2.0078-1.5156-3.3125 0-0.83203 0.23828-1.6133 0.71875-2.3438 0.47656-0.72656 1.1602-1.2852 2.0469-1.6719 0.89453-0.38281 1.9766-0.57812 3.25-0.57812 2.0625 0 3.6133 0.45312 4.6562 1.3594 1.0508 0.90625 1.6016 2.1172 1.6562 3.625l-3.3281 0.15625c-0.14844-0.84375-0.45312-1.4531-0.92188-1.8281-0.46094-0.375-1.1562-0.5625-2.0938-0.5625-0.96875 0-1.7305 0.20312-2.2812 0.60938-0.34375 0.25-0.51562 0.58984-0.51562 1.0156 0 0.38672 0.16016 0.71875 0.48438 1 0.42578 0.35547 1.4453 0.72656 3.0625 1.1094 1.6133 0.375 2.8047 0.76562 3.5781 1.1719 0.78125 0.40625 1.3906 0.96484 1.8281 1.6719 0.4375 0.71094 0.65625 1.5859 0.65625 2.625 0 0.94922-0.26562 1.8359-0.79688 2.6562-0.52344 0.82422-1.2617 1.4375-2.2188 1.8438-0.96094 0.39453-2.1523 0.59375-3.5781 0.59375-2.0859 0-3.6836-0.47656-4.7969-1.4375-1.1172-0.96875-1.7812-2.375-2-4.2188zm0 0" fill="none" stroke="#fff" stroke-linecap="round" stroke-linejoin="round" stroke-miterlimit="10" stroke-width="2"/>
<path d="m68.004 51.324v-13.672h-4.875v-2.7969h13.078v2.7969h-4.875v13.672zm10.328-16.469h3.3125v8.9219c0 1.418 0.039063 2.3359 0.125 2.75 0.14453 0.67969 0.48438 1.2188 1.0156 1.625 0.53906 0.40625 1.2734 0.60938 2.2031 0.60938 0.9375 0 1.6445-0.19141 2.125-0.57812 0.47656-0.38281 0.76562-0.85938 0.85938-1.4219 0.10156-0.5625 0.15625-1.4922 0.15625-2.7969v-9.1094h3.3281v8.6562c0 1.9688-0.09375 3.3672-0.28125 4.1875-0.17969 0.8125-0.50781 1.5-0.98438 2.0625-0.48047 0.5625-1.125 1.0117-1.9375 1.3438s-1.8711 0.5-3.1719 0.5c-1.5742 0-2.7656-0.18359-3.5781-0.54688s-1.4531-0.83203-1.9219-1.4062c-0.46875-0.58203-0.77734-1.1914-0.92188-1.8281-0.21875-0.94531-0.32812-2.3438-0.32812-4.1875zm16.578 16.469v-16.469h4.9844l2.9844 11.234 2.9531-11.234h4.9844v16.469h-3.0938v-12.953l-3.2656 12.953h-3.2031l-3.25-12.953v12.953zm19.219-16.469h6.5781c1.3008 0 2.2695 0.058594 2.9062 0.17188 0.64453 0.10547 1.2188 0.32812 1.7188 0.67188 0.50781 0.34375 0.92969 0.80469 1.2656 1.375 0.34375 0.57422 0.51562 1.2188 0.51562 1.9375 0 0.77344-0.21094 1.4805-0.625 2.125-0.41797 0.63672-0.98047 1.1172-1.6875 1.4375 1 0.29297 1.7656 0.79297 2.2969 1.5 0.53906 0.69922 0.8125 1.5273 0.8125 2.4844 0 0.74219-0.17188 1.4648-0.51562 2.1719-0.34375 0.71094-0.82031 1.2773-1.4219 1.7031-0.60547 0.41797-1.3516 0.67969-2.2344 0.78125-0.55469 0.0625-1.8906 0.10156-4.0156 0.10938h-5.5938zm3.3281 2.75v3.7969h2.1719c1.2891 0 2.0977-0.015625 2.4219-0.046875 0.5625-0.070313 1.0039-0.26953 1.3281-0.59375 0.33203-0.32031 0.5-0.75 0.5-1.2812 0-0.50781-0.14062-0.92188-0.42188-1.2344-0.28125-0.32031-0.69922-0.51953-1.25-0.59375-0.33594-0.03125-1.2812-0.046875-2.8438-0.046875zm0 6.5469v4.3906h3.0781c1.1953 0 1.9531-0.03125 2.2656-0.09375 0.5-0.09375 0.90625-0.3125 1.2188-0.65625s0.46875-0.8125 0.46875-1.4062c0-0.48828-0.12109-0.90625-0.35938-1.25-0.24219-0.34375-0.58984-0.59375-1.0469-0.75-0.44922-0.15625-1.4336-0.23438-2.9531-0.23438zm13.266 7.1719v-16.469h12.203v2.7969h-8.875v3.6406h8.2656v2.7812h-8.2656v4.4688h9.2031v2.7812zm14.5-5.3594 3.2344-0.3125c0.19531 1.0859 0.59375 1.8828 1.1875 2.3906 0.59375 0.51172 1.3945 0.76562 2.4062 0.76562 1.0703 0 1.8789-0.22266 2.4219-0.67188 0.53906-0.45703 0.8125-0.98828 0.8125-1.5938 0-0.39453-0.11719-0.72656-0.34375-1-0.23047-0.26953-0.625-0.50391-1.1875-0.70312-0.39844-0.13281-1.2891-0.375-2.6719-0.71875-1.7812-0.44531-3.0312-0.99219-3.75-1.6406-1.0117-0.90625-1.5156-2.0078-1.5156-3.3125 0-0.83203 0.23828-1.6133 0.71875-2.3438 0.47656-0.72656 1.1602-1.2852 2.0469-1.6719 0.89453-0.38281 1.9766-0.57812 3.25-0.57812 2.0625 0 3.6133 0.45312 4.6562 1.3594 1.0508 0.90625 1.6016 2.1172 1.6562 3.625l-3.3281 0.15625c-0.14844-0.84375-0.45312-1.4531-0.92188-1.8281-0.46094-0.375-1.1562-0.5625-2.0938-0.5625-0.96875 0-1.7305 0.20312-2.2812 0.60938-0.34375 0.25-0.51562 0.58984-0.51562 1.0156 0 0.38672 0.16016 0.71875 0.48438 1 0.42578 0.35547 1.4453 0.72656 3.0625 1.1094 1.6133 0.375 2.8047 0.76562 3.5781 1.1719 0.78125 0.40625 1.3906 0.96484 1.8281 1.6719 0.4375 0.71094 0.65625 1.5859 0.65625 2.625 0 0.94922-0.26562 1.8359-0.79688 2.6562-0.52344 0.82422-1.2617 1.4375-2.2188 1.8438-0.96094 0.39453-2.1523 0.59375-3.5781 0.59375-2.0859 0-3.6836-0.47656-4.7969-1.4375-1.1172-0.96875-1.7812-2.375-2-4.2188z" fill-rule="evenodd"/>
</g>
</svg>
