<?xml version="1.0" encoding="UTF-8"?>
<svg width="455pt" height="500pt" version="1.1" viewBox="0 0 455 500" xmlns="http://www.w3.org/2000/svg">
<g id="a">
<rect width="455" height="500" fill="none"/>
<path d="m378.38 2.1914 1.8242 2.4648 0.91406 1.9297 0.33594 1.2188 0.058594 1.1133-0.26172 1.0586-1.293 0.96094-2.4492 1.3164-0.98828 1.3359 0.03125 1.293 1.4492 2.0586 0.69141 0.98047 0.41016 1.1016 0.3125 1.2031 0.62109 1.0938-0.42969 1.207-0.49219 1.0898-0.042969 1.1797-0.44141 1.0547-1.0703 0.95703-0.4375 1.207 0.38672 0.95703 1.3633 0.11328 1.1719 0.35156 1.5703 0.64062 1.2188 0.42969 1.1445 0.30469 1.4766 1.3711-1.2891 1.9297-0.63281 0.875-0.80469 1.8086-0.13672 1.0195 0.91406 1.4414 1.4219 0.6875 0.44141 1.4961 1.0078 0.50781 1.3047 1.0078 0.54297 0.95703 1.7266 0.39062 0.69922 1.0586-0.011719 1.582 0.83203 2.7695 0.30078 1.9297 0.55859 0.91406 0.98438 1.0117 0.96875 0.66406 1.1641 0.57812 1.75 0.37891 0.82812 1.4492 0.15625 1.3906 0.42188 1.0234 1.2344 0.98438 1.1992 0.60547 0.59375 0.88672-0.44922 1.3203-0.59375 2.4531-0.83594 1.2656-1.9922 1.8125-0.21875 1.1211 0.71875 0.82812 0.24219 1.1641-0.26172 1.4258v1.0586l-0.25781 1.2773-0.61719 1.1875 0.019531 1.2578 1.1914 1.1211 2.082 1.6953 1.0078 0.40625 0.88672-0.70703 1.8594-0.18359 1.5547-0.097656 2.4219 1.0664 1.1484 2.1406 1.6172-0.40234 2.4805-1.375 1.6953 0.26562 0.9375 0.92188 1.0195 0.79297 1.9414 0.082032 1.2969-0.13281 0.20703 2.6992 0.32422 2.418 0.12891 2.3594-0.52734 1.293-1.4883 1.9297-0.45703 2.043-0.21484 4.3477-0.046875 1.0234-0.058594 1.1953 0.16406 2.418 0.30859 2.4258 0.14844 2.125 0.6875 2.2812 1.0586 2.2227 0.68359 1.2031 0.64844 1.375-0.76953 1.1406-1.1758 1.8789-0.89844 1.4375-0.71484 1.1289-0.30469 1.5234-0.19531 1.2539-0.41406 0.98047-1.4062 0.82031-1.1992 0.42188-1.0156 0.13281-2.8672 0.33594-1.7344-0.39844-2.0273-0.09375-1.2188 0.34766-1.3281-0.17578-1.4727 0.26172-2.3359-0.085938-0.98047 0.43359-0.43359 1.0078-0.085938 1.1523 0.14062 1.0977 0.34766 1.5 0.015625 2.207-0.3125 1.2695-0.85156 1.8516-0.89453 1.3086-1.1602 0.63281-1.8828 1.293-0.46875 1.3398-1.293 1.543-0.625 1.1523-0.25 1.793-0.54688 2.0742-0.71875 1.5586-0.96875 2.1016-0.039062 1.0273-0.046875 1.1406 0.070312 1.1523 0.125 1.2461-0.26172 1.0508-0.13281 1.2148-0.070313 1.8945-0.12109 1.0234-0.003907 1.4258-0.61719 0.99609-1.4062-0.003907-1.5117-0.71094-1.1953-0.23828-1.625-0.30078-1.25-0.99219-1.1211-0.65625-1.4648 0.03125-1.4141 0.12891-1.7109-0.72266-1.8867-0.71094-1.2617-0.50781-1.0547 0.10938-2.2969 1.1953-1.0664 0.67969-0.66797 1.0234-0.15234 1.1641-0.32422 1.6836-0.89453 1.7109-0.71484 1.2969-0.94531 0.91797-1.1133 0.4375-1.5977 0.21875-1.2812 0.38672-1.5664 0.20312-2.3203-0.035157-1.2812 0.18359-1.3828 0.47266-1.1094 0.15234-1.5 0.50391-2.1211 0.15234-1.9688 0.53906-2.2422-0.74609-1-0.625-1.0039-0.95312-2.3555 0.57422-2.0039 0.23438-1.8711 0.035156-1.4805-0.28906-0.99609-0.71094-0.80469-1.1914-1.043-1.1445-0.94531-1.582-1.1875-0.75391-0.81641-0.74609-0.53906-0.91016-2.4062-0.51953-4.1094 0.125-1.5547-0.007813-2.2812-0.58984-1.1484-0.21875-1.1289-0.066406-3.3516 0.67188-1.1602 0.42188-1.1133 0.60547-1.1445 1.3633 1.1797 2.0898 1.0039 2.332 0.71484 1.3047 0.50391 2.1211 0.18359 2.3398-0.13281 1.4141-0.72266 1.9062-0.72656 1.2109-1.1094 1.3789-0.50781 0.89453 0.70703 1.5742 0.4375 2 0.57031 0.98828 1.1055 0.62891 2.3984 0.45703 3.0156 0.23047 1.3789 0.33984 0.59766 1.4961 1.6641 3.8438 1.3086 0.98828 0.72656 1.0664 0.16016 3.293 0.52344 1.3984 0.125 1.2031 0.33984 1.2656 0.03125 1.1758-0.19141 1.5273-0.54297 2.6914 0.23828 1.3203 0.95703 0.79688 2.1406 1.5391 1.8867 0.76562 1.0156 0.17578 0.91016 0.62109 0.52344 2.0547 0.74609 1.7969 0.89453 1.625 0.14062 1.957-0.03125 1.1641-0.71484 1.4141-1.75 1.9883-0.88672 1.0039-0.125 1.543-0.27734 1.3047-1.1328 1.0195-3.0234 1.3672-0.85938 0.79688-0.49219 0.95312-0.38281 1.418-2.2422 1.2539-1.8789 0.70312-1.6289 1.1289-1.918 1.5742-0.64453 1.293-0.28125 1.25-0.29297 1.1055 0.64844 1.9727-0.050782 2.5391-0.69531 1.3359-0.55078 1.0508-0.95703 0.5625-2.7812 2.9336-1.8086 1.5195-2.6875 1.5-2.2383 0.80078-1.0078 1.25-1.7031 0.82031-1.7031 0.1875-2.0117 0.28516-2.0977 0.32812-1.2734 0.41797-1.1016 0.87891-0.92969 0.66016-1.2422 0.97266-0.70312 1.1133-0.84766 1.0742-1.7578 1.4062-0.92969 1.3086-0.64453 2.6328-0.16016 1.668 1.125 2.7891 0.90625 2.25-0.48828 1.7266-1.4492 2.0898-0.38281 1.7188-0.32812 1.7812-0.59766 1.4609 0.09375 1.2266 0.41797 2.4688-0.3125 2.0977-0.5625 1.125-1.918 1.9453-0.78906 1.1562 0.42188 1.4961 0.56641 1.2969-0.48047 2.6484-0.78906 1.2148-0.96094 1.043-2.875 2.5625-1.3242 0.62109-1.0703 1.043-1.2109 1.9727-0.86719 1.8164-1.2422 2.1914-0.70312 1.2852-0.20312 1.1758-0.29297 1.3828-1.2383 2.4609-2.1758-0.21094-0.91797-0.51172-5.4336-2.0352-2.7891-1.4102-2.4414-1.6953-1.5352-0.90234-1.6367-1.4141-4.4922-1.8906-1.3594-0.066407-1.3984-0.96094-1.6992-1.3789-2.2344-0.25-1.6211-1.043-0.85938-0.55469-2.4062 0.11719-2.375 0.70312-1.5078-0.0625-1.1211-0.89453-1.5391-0.54297-2.4375 0.34766-1.9961 0.35156-1.2109-0.38672-1.3008-0.41016-1.9023-0.83203 1.0039-2.0039 1.1797-1.4961 0.50781-1.1094 2.3945-5.2344 0.32422-1.1914 1.2969-2.0547 1.3008-2.4883 0.75391-0.97266 0.97656-0.86719 0.53906-0.86328 0.75781-0.75781 0.67188-1.0273-0.43359-1.5156-0.54297-0.86719-1.7305-0.53906-1.5117-0.53906-1.5156-1.3008-0.97266-0.32422-1.625-0.86328-2.5938-1.082-0.86719-0.65234-1.4062-0.32422-1.4062-0.53906-0.97266-0.54297-1.3008-0.86328-1.6211-0.43359-1.7305-0.32422h-1.3008l-1.4062-0.32422-1.5117-0.97266-0.97656-0.65234-0.64844-1.5117-0.53906-1.082-0.54297-1.1914 0.32422-2.3789 0.54297-2.0547 0.10938-1.5156-0.43359-1.1914-0.97266-1.8359-2.3828-2.3828-2.4883-2.3906-1.1875-0.97266-1.3008-0.75781-1.082-1.2969-0.91016-14.008-0.82031-0.70703 0.43359-1.1875 2.1328-1.2461 1.0156-0.84766 0.097656-1.9102 1.8867-2.0312 0.32812-1.4219-1.0977-1.1758-1.5508 0.73438-1.082-1.2969 0.1875-1.0391-0.71094-1.3945-0.51562-1.1172 0.59375-1.0508 0.23047-1.6758-25.383-9.9219 0.97266-0.71484 1.8359-0.76562 0.83984-0.64844 1.1641-1.1641 1.5977-1.0625 0.81641-0.84375 0.49219-0.91016 0.62891-1.7734 0.62109-1.0078 0.33984-0.98438 0.4375-1.6875 0.10547-1.0352 0.09375-2.4492-0.21875-1.0312-0.59766-1.6328-0.58984-2.9102 0.09375-2.8477 0.38672-1.8672 0.60547-3.2617 0.52734-1.8984 0.19531-2.7461 0.52734-1.8711 0.62891-3.2656 0.44141-0.95703 0.65234-0.97656 0.93359-1.8438 0.29297-1.4844 1.6016-2.6992 2.2031-3.707 0.625-1.9141 2.5703-4.1211 0.46484-1.0391 0.29297-1.3086 0.76172-2.6562 0.14062-1.4023 0.33594-2.1016 0.48047-1.3633 3.0898-7.168 1.0117-2.375 0.74609-1.8789 1.293-2.6172 0.77734-1.957 1.0195-2.043 0.78516-1.3125 1.0352-2.6719 0.82812-1.4727 1.418-3.1094 0.57812-1.1562 0.98438-1.2539 1.4219-3.9961 0.69141-1.3359 0.78125-1.8477 0.64453-1.3516 0.49219-1.3906 1.4883-2.1797 0.98047-1.0586 0.73828-0.89062 0.51953-1.1016 0.41797-1.293 0.68359-1.6406 0.67578-1.2422 0.87109-0.96094 1.6172-1 1.5781-1.3828 1.793-0.87109 1.4531 0.027344 0.94922-0.46875 1.832-1.457 1.8008-0.53906 1.3008-0.83594 1.0234-0.85938 0.82812-1.0469 0.67578-0.86719 1.1133-1.5586 0.56641-1.0703 0.89062-2.2148 1.4688-1.5391 2.0938-1.7422 0.89062-0.85938 0.8125-0.95312 1.625-1.6992 2.9688-3.5117 1.1953-1.0625 1.5625-0.78906 1.0781-0.12891 1.5547 0.25 1.2734-0.19922 0.87109-0.51172 1.8867-1.332 2.1602-0.69531 3.9453-1.8164 1.082-0.73828 1.6055-0.35938 1.5469 0.59375 1.0117 0.058594 2.3711-0.65234 1.2344-0.17969 1.2266-0.55469 1.0391-0.79297 1.6172-1.543 1.5508-0.97656 1.625-0.625 1.3008-0.875 1.4727-1.1797 2.6328-1.5195 1.7031-1.5 3.625-2.4531 2.3398-1.8203 2.0039-1.2891 0.66797-0.83203 1.3281-0.80859 1.6797-1.4883 2.457-1.8711 1.875-1.4805 0.89844-0.86719 1.2422-0.81641 1.8125-1.2305 1.0742-0.78125 1.2266-0.91016 0.76562-0.72656 1.8281-0.79688 1.4023-0.24219 1.0039 0.070312 1.0156-0.015625 1.0547 0.28125 2.4219-0.39453 1.2852-0.21875 2.0156-0.56641 2.2734-0.85547 2.9141-1.8477 1.4531-1.4609 2.5-3.0156 1.6641-1.4609 1.0781-0.75781 1.2031-0.070312 3.25 1.1797 2.3281 0.34766 1.8125-0.99219 1.8711-0.67969 1.8086-0.35156 1.0195 0.14062 1.4844 0.55078 2.3789-0.17578 1.1602-0.24219 1.0352-0.26172 1.2383-0.84766 1.1523-0.55078 1.2578-0.83203 1.3203-0.53516 1.7617-0.58594 1.5508-1.1055 1.4023-1.2812 2.7344-3.3359 0.80859-1.3477 1.2812-1.4922 1.0312-1.75 1.668-1.9648 0.99219-0.94141 0.87891-1.1172 0.83203-1.25 0.75781-1.0664 0.63672-1.0234 0.66797-1.1016 1.4375-1.5039 1.4062-1z" fill="#ccc" fill-rule="evenodd"/>
<path d="m378.38 2.1914 1.8242 2.4648 0.91406 1.9297 0.33594 1.2188 0.058594 1.1133-0.26172 1.0586-1.293 0.96094-2.4492 1.3164-0.98828 1.3359 0.03125 1.293 1.4492 2.0586 0.69141 0.98047 0.41016 1.1016 0.3125 1.2031 0.62109 1.0938-0.42969 1.207-0.49219 1.0898-0.042969 1.1797-0.44141 1.0547-1.0703 0.95703-0.4375 1.207 0.38672 0.95703 1.3633 0.11328 1.1719 0.35156 1.5703 0.64062 1.2188 0.42969 1.1445 0.30469 1.4766 1.3711-1.2891 1.9297-0.63281 0.875-0.80469 1.8086-0.13672 1.0195 0.91406 1.4414 1.4219 0.6875 0.44141 1.4961 1.0078 0.50781 1.3047 1.0078 0.54297 0.95703 1.7266 0.39062 0.69922 1.0586-0.011719 1.582 0.83203 2.7695 0.30078 1.9297 0.55859 0.91406 0.98438 1.0117 0.96875 0.66406 1.1641 0.57812 1.75 0.37891 0.82812 1.4492 0.15625 1.3906 0.42188 1.0234 1.2344 0.98438 1.1992 0.60547 0.59375 0.88672-0.44922 1.3203-0.59375 2.4531-0.83594 1.2656-1.9922 1.8125-0.21875 1.1211 0.71875 0.82812 0.24219 1.1641-0.26172 1.4258v1.0586l-0.25781 1.2773-0.61719 1.1875 0.019531 1.2578 1.1914 1.1211 2.082 1.6953 1.0078 0.40625 0.88672-0.70703 1.8594-0.18359 1.5547-0.097656 2.4219 1.0664 1.1484 2.1406 1.6172-0.40234 2.4805-1.375 1.6953 0.26562 0.9375 0.92188 1.0195 0.79297 1.9414 0.082032 1.2969-0.13281 0.20703 2.6992 0.32422 2.418 0.12891 2.3594-0.52734 1.293-1.4883 1.9297-0.45703 2.043-0.21484 4.3477-0.046875 1.0234-0.058594 1.1953 0.16406 2.418 0.30859 2.4258 0.14844 2.125 0.6875 2.2812 1.0586 2.2227 0.68359 1.2031 0.64844 1.375-0.76953 1.1406-1.1758 1.8789-0.89844 1.4375-0.71484 1.1289-0.30469 1.5234-0.19531 1.2539-0.41406 0.98047-1.4062 0.82031-1.1992 0.42188-1.0156 0.13281-2.8672 0.33594-1.7344-0.39844-2.0273-0.09375-1.2188 0.34766-1.3281-0.17578-1.4727 0.26172-2.3359-0.085938-0.98047 0.43359-0.43359 1.0078-0.085938 1.1523 0.14062 1.0977 0.34766 1.5 0.015625 2.207-0.3125 1.2695-0.85156 1.8516-0.89453 1.3086-1.1602 0.63281-1.8828 1.293-0.46875 1.3398-1.293 1.543-0.625 1.1523-0.25 1.793-0.54688 2.0742-0.71875 1.5586-0.96875 2.1016-0.039062 1.0273-0.046875 1.1406 0.070312 1.1523 0.125 1.2461-0.26172 1.0508-0.13281 1.2148-0.070313 1.8945-0.12109 1.0234-0.003907 1.4258-0.61719 0.99609-1.4062-0.003907-1.5117-0.71094-1.1953-0.23828-1.625-0.30078-1.25-0.99219-1.1211-0.65625-1.4648 0.03125-1.4141 0.12891-1.7109-0.72266-1.8867-0.71094-1.2617-0.50781-1.0547 0.10938-2.2969 1.1953-1.0664 0.67969-0.66797 1.0234-0.15234 1.1641-0.32422 1.6836-0.89453 1.7109-0.71484 1.2969-0.94531 0.91797-1.1133 0.4375-1.5977 0.21875-1.2812 0.38672-1.5664 0.20312-2.3203-0.035157-1.2812 0.18359-1.3828 0.47266-1.1094 0.15234-1.5 0.50391-2.1211 0.15234-1.9688 0.53906-2.2422-0.74609-1-0.625-1.0039-0.95312-2.3555 0.57422-2.0039 0.23438-1.8711 0.035156-1.4805-0.28906-0.99609-0.71094-0.80469-1.1914-1.043-1.1445-0.94531-1.582-1.1875-0.75391-0.81641-0.74609-0.53906-0.91016-2.4062-0.51953-4.1094 0.125-1.5547-0.007813-2.2812-0.58984-1.1484-0.21875-1.1289-0.066406-3.3516 0.67188-1.1602 0.42188-1.1133 0.60547-1.1445 1.3633 1.1797 2.0898 1.0039 2.332 0.71484 1.3047 0.50391 2.1211 0.18359 2.3398-0.13281 1.4141-0.72266 1.9062-0.72656 1.2109-1.1094 1.3789-0.50781 0.89453 0.70703 1.5742 0.4375 2 0.57031 0.98828 1.1055 0.62891 2.3984 0.45703 3.0156 0.23047 1.3789 0.33984 0.59766 1.4961 1.6641 3.8438 1.3086 0.98828 0.72656 1.0664 0.16016 3.293 0.52344 1.3984 0.125 1.2031 0.33984 1.2656 0.03125 1.1758-0.19141 1.5273-0.54297 2.6914 0.23828 1.3203 0.95703 0.79688 2.1406 1.5391 1.8867 0.76562 1.0156 0.17578 0.91016 0.62109 0.52344 2.0547 0.74609 1.7969 0.89453 1.625 0.14062 1.957-0.03125 1.1641-0.71484 1.4141-1.75 1.9883-0.88672 1.0039-0.125 1.543-0.27734 1.3047-1.1328 1.0195-3.0234 1.3672-0.85938 0.79688-0.49219 0.95312-0.38281 1.418-2.2422 1.2539-1.8789 0.70312-1.6289 1.1289-1.918 1.5742-0.64453 1.293-0.28125 1.25-0.29297 1.1055 0.64844 1.9727-0.050782 2.5391-0.69531 1.3359-0.55078 1.0508-0.95703 0.5625-2.7812 2.9336-1.8086 1.5195-2.6875 1.5-2.2383 0.80078-1.0078 1.25-1.7031 0.82031-1.7031 0.1875-2.0117 0.28516-2.0977 0.32812-1.2734 0.41797-1.1016 0.87891-0.92969 0.66016-1.2422 0.97266-0.70312 1.1133-0.84766 1.0742-1.7578 1.4062-0.92969 1.3086-0.64453 2.6328-0.16016 1.668 1.125 2.7891 0.90625 2.25-0.48828 1.7266-1.4492 2.0898-0.38281 1.7188-0.32812 1.7812-0.59766 1.4609 0.09375 1.2266 0.41797 2.4688-0.3125 2.0977-0.5625 1.125-1.918 1.9453-0.78906 1.1562 0.42188 1.4961 0.56641 1.2969-0.48047 2.6484-0.78906 1.2148-0.96094 1.043-2.875 2.5625-1.3242 0.62109-1.0703 1.043-1.2109 1.9727-0.86719 1.8164-1.2422 2.1914-0.70312 1.2852-0.20312 1.1758-0.29297 1.3828-1.2383 2.4609-2.1758-0.21094-0.91797-0.51172-5.4336-2.0352-2.7891-1.4102-2.4414-1.6953-1.5352-0.90234-1.6367-1.4141-4.4922-1.8906-1.3594-0.066407-1.3984-0.96094-1.6992-1.3789-2.2344-0.25-1.6211-1.043-0.85938-0.55469-2.4062 0.11719-2.375 0.70312-1.5078-0.0625-1.1211-0.89453-1.5391-0.54297-2.4375 0.34766-1.9961 0.35156-1.2109-0.38672-1.3008-0.41016-1.9023-0.83203 1.0039-2.0039 1.1797-1.4961 0.50781-1.1094 2.3945-5.2344 0.32422-1.1914 1.2969-2.0547 1.3008-2.4883 0.75391-0.97266 0.97656-0.86719 0.53906-0.86328 0.75781-0.75781 0.67188-1.0273-0.43359-1.5156-0.54297-0.86719-1.7305-0.53906-1.5117-0.53906-1.5156-1.3008-0.97266-0.32422-1.625-0.86328-2.5938-1.082-0.86719-0.65234-1.4062-0.32422-1.4062-0.53906-0.97266-0.54297-1.3008-0.86328-1.6211-0.43359-1.7305-0.32422h-1.3008l-1.4062-0.32422-1.5117-0.97266-0.97656-0.65234-0.64844-1.5117-0.53906-1.082-0.54297-1.1914 0.32422-2.3789 0.54297-2.0547 0.10938-1.5156-0.43359-1.1914-0.97266-1.8359-2.3828-2.3828-2.4883-2.3906-1.1875-0.97266-1.3008-0.75781-1.082-1.2969-0.91016-14.008-0.82031-0.70703 0.43359-1.1875 2.1328-1.2461 1.0156-0.84766 0.097656-1.9102 1.8867-2.0312 0.32812-1.4219-1.0977-1.1758-1.5508 0.73438-1.082-1.2969 0.1875-1.0391-0.71094-1.3945-0.51562-1.1172 0.59375-1.0508 0.23047-1.6758-25.383-9.9219 0.97266-0.71484 1.8359-0.76562 0.83984-0.64844 1.1641-1.1641 1.5977-1.0625 0.81641-0.84375 0.49219-0.91016 0.62891-1.7734 0.62109-1.0078 0.33984-0.98438 0.4375-1.6875 0.10547-1.0352 0.09375-2.4492-0.21875-1.0312-0.59766-1.6328-0.58984-2.9102 0.09375-2.8477 0.38672-1.8672 0.60547-3.2617 0.52734-1.8984 0.19531-2.7461 0.52734-1.8711 0.62891-3.2656 0.44141-0.95703 0.65234-0.97656 0.93359-1.8438 0.29297-1.4844 1.6016-2.6992 2.2031-3.707 0.625-1.9141 2.5703-4.1211 0.46484-1.0391 0.29297-1.3086 0.76172-2.6562 0.14062-1.4023 0.33594-2.1016 0.48047-1.3633 3.0898-7.168 1.0117-2.375 0.74609-1.8789 1.293-2.6172 0.77734-1.957 1.0195-2.043 0.78516-1.3125 1.0352-2.6719 0.82812-1.4727 1.418-3.1094 0.57812-1.1562 0.98438-1.2539 1.4219-3.9961 0.69141-1.3359 0.78125-1.8477 0.64453-1.3516 0.49219-1.3906 1.4883-2.1797 0.98047-1.0586 0.73828-0.89062 0.51953-1.1016 0.41797-1.293 0.68359-1.6406 0.67578-1.2422 0.87109-0.96094 1.6172-1 1.5781-1.3828 1.793-0.87109 1.4531 0.027344 0.94922-0.46875 1.832-1.457 1.8008-0.53906 1.3008-0.83594 1.0234-0.85938 0.82812-1.0469 0.67578-0.86719 1.1133-1.5586 0.56641-1.0703 0.89062-2.2148 1.4688-1.5391 2.0938-1.7422 0.89062-0.85938 0.8125-0.95312 1.625-1.6992 2.9688-3.5117 1.1953-1.0625 1.5625-0.78906 1.0781-0.12891 1.5547 0.25 1.2734-0.19922 0.87109-0.51172 1.8867-1.332 2.1602-0.69531 3.9453-1.8164 1.082-0.73828 1.6055-0.35938 1.5469 0.59375 1.0117 0.058594 2.3711-0.65234 1.2344-0.17969 1.2266-0.55469 1.0391-0.79297 1.6172-1.543 1.5508-0.97656 1.625-0.625 1.3008-0.875 1.4727-1.1797 2.6328-1.5195 1.7031-1.5 3.625-2.4531 2.3398-1.8203 2.0039-1.2891 0.66797-0.83203 1.3281-0.80859 1.6797-1.4883 2.457-1.8711 1.875-1.4805 0.89844-0.86719 1.2422-0.81641 1.8125-1.2305 1.0742-0.78125 1.2266-0.91016 0.76562-0.72656 1.8281-0.79688 1.4023-0.24219 1.0039 0.070312 1.0156-0.015625 1.0547 0.28125 2.4219-0.39453 1.2852-0.21875 2.0156-0.56641 2.2734-0.85547 2.9141-1.8477 1.4531-1.4609 2.5-3.0156 1.6641-1.4609 1.0781-0.75781 1.2031-0.070312 3.25 1.1797 2.3281 0.34766 1.8125-0.99219 1.8711-0.67969 1.8086-0.35156 1.0195 0.14062 1.4844 0.55078 2.3789-0.17578 1.1602-0.24219 1.0352-0.26172 1.2383-0.84766 1.1523-0.55078 1.2578-0.83203 1.3203-0.53516 1.7617-0.58594 1.5508-1.1055 1.4023-1.2812 2.7344-3.3359 0.80859-1.3477 1.2812-1.4922 1.0312-1.75 1.668-1.9648 0.99219-0.94141 0.87891-1.1172 0.83203-1.25 0.75781-1.0664 0.63672-1.0234 0.66797-1.1016 1.4375-1.5039 1.4062-1 2.1836 1.6875" fill="none" stroke="#fff" stroke-linecap="round" stroke-linejoin="round" stroke-miterlimit="10" stroke-width="2"/>
<path d="m373.8 160.52 0.5625 0.35547 1.8867 0.71094 1 0.47656 1.3008 0.28906 1.7617-0.36719 1.6484 0.82031 1.25 0.99219 1.625 0.30078 1.1953 0.23828 1.5117 0.71094 1.4062 0.003907 1.3516 1.2852-0.8125 1.2148 0.67578 1.3516 0.94922 1.7578 1.5547 0.59375 1.6836 0.082031 1.8867-0.61328 1.3984 0.14062 1.3359 0.83594 2.3398 0.3125 4.8477 0.3125 6.1055 0.023438 1.3203-0.17969 1.3906-0.33203 1.4141-0.125 0.94531 0.59375 1.3867-0.097656 1.4375-0.078125 1.6719-0.37109 0.89062-0.47656 0.96875-0.48438 1.6719 0.27734 1.3945-0.11328 1.5312 0.64453 0.70312 0.96094 0.82031 1.6445 0.5 1.1562 0.83203 1.0625 1.1602 1.0547 0.58594 1.2109-0.66797 1.5586-0.35156 1.1211 0.41406 1.0781 0.85547 1.4766 0.0625 1.4336-0.1875 1.457-1.0625 1.7656-0.82812 1.1211-1.0039 1.3555 0.34375 1.6172 1.0312 0.78516 0.47266 1.0469 0.039063 1.1484-0.55078 1.2539-0.125 1.7031-0.73047 0.85547-0.29688 1.4648-2.0508 3.0781-1.8906 1.4805-1.3086 1.0234-1.168 1.3945-0.41797 1.2344v2.7539l0.45312 1.0039 0.55078 1.0234 0.71484 1.3203 0.78125 1.1172 1.2891 1.3281 1.1641 0.53906 1.1445 0.68359-0.35547 1.5625 0.054687 1.1055 1.6953 2.7539 1.4375 1.7656 1.2461 0.96484 2.2227 1.0859 1.1914 0.98828 1.0469 0.75781 1.418 0.82031 1.2109 1.0078 3.0586 1.0273h1.293l1.0469 0.32812 0.94531 0.75781-0.65625 1.5273-0.41016 2.0156-0.50391 1.6641-0.91406 1.0977-1.8477 0.92969-0.94141 0.76172-0.52344 1.2461-0.39062 1.082-0.5625 1.4531-0.45703 1.1641-0.70703 1.5156-0.375 1.3086-0.45703 1.4961 0.042969 1.7461 1.1016 2.0781 0.6875 0.93359 0.95312 1.4961 0.6875 1.2695 0.33203 0.95703 0.015625 1.2422-0.97266 1.457-0.93359 0.89453-0.48047 0.97656-0.082031 1.1016 0.25781 1.0508 0.67969 1.8789 0.082031 1.1836 0.20703 0.99609-0.16797 0.99609-0.082032 1.7891 0.41406 1.2656 0.375 1.1289 0.054687 1.2812-0.27734 1.4609 2.3438 2.4414 0.47656 1.5078 0.28516 1.4531 0.52734 1.9453 1.0469 1.1914 1.293 0.82031 0.76172 0.67969 0.78125 1.5781 0.18359 1.1289-0.027343 1.1562 0.26172 1.3438 0.20703 0.99609 0.042968 1.1211-0.4375 1.2695-0.98047 0.93359-1.0977 0.95703-0.6875 0.80859-0.082031 1.0859-0.019531 1.3281v1.3906l0.28906 1.6211-0.16797 1.2461 0.19922 1.0586 0.10938 1.082 0.019532 1.1328-0.035157 1.8594 0.082032 1.5586-0.41406 1.0195-1.0586 0.72266-1.3086 0.125-0.95703 0.50391 0.22656 1.0195 0.94531 1.0273 1.0312 0.61719 2.1914 1.2188 1.1523 1.6836 1.332 1.7656 0.93359 0.72656 0.082032 1.6406 0.39453 1.1641 1.0391 0.97656 1.207 1.1836 0.45703 1.1875 0.14453 1.1406-0.16406 1.5977-0.625 1.3945-1.5625 1.1562-1.0859 0.54297-2.1758 0.80078-1.5508 0.77734-0.86719 0.74219-0.94531 0.71484-1.1641 0.097656-1.6016-0.39062-2.0508-0.30859-1.043-0.23047-1.2188-0.30859-1.543 0.019531-1.1445 0.15234-1.0195 0.29297-1.0273 0.63672-0.76953 0.69531-1.1641 1.6406-0.73438 2.0977-0.36328 1.2031-0.64453 2.6484-2.2383 1.1289-0.69922 0.90234-0.30859 3.7578-0.53125 1.2539-0.65234 0.91406-0.92969 1.0469-1.0938 0.78125-0.98438 0.8125-1.0039 0.26953-1.1602 0.23438-1.1211 0.15234-0.89062 0.67969-0.36719 1.0039-0.36719 1.4102-0.69531 0.98438 0.11719 1.3945 0.65625 0.80859 0.52344 1.0469 0.26953 1.1211 0.17188 1.0039-0.19141 1.1602-0.42578 0.92578-1.1211 0.21484-1.4922 0.21484-1.125 1.5898-0.33984 1.0742 0.75391 2.0664 0.25 1.0469-0.19141 1.3711-0.15625 1.6055-0.17188 1.1172-3.6406 4.2148-1.0234 1.4883-0.10547 1.4883 1.5938 2.2578 0.35938 1.9766-0.17969 2.875-0.88672 2.1758-1.0117 1.7812-0.38281 1.7422-0.45703 1.1172-0.72656 1.0508-1.4102 1.4414-1.7773 1.0664-1.0664 1.5742-1.0195 0.45703-1.4219 0.41016-0.86328 1.2695-0.96875 0.50781-0.17969 1.125 0.10547 4.3047-0.16797 1.6484-1.2266 1.8359-1.2578 2.3711-0.28906 1.457-0.97266 2.043 0.09375 1.2383 2.1016 1.957 0.76953 1.3125-0.75 1.6914-2.1836 3.3594-3.75 2.3555-0.94531 0.59375-1.3359 1.5039-1.4453 1.3906-1.7852 0.45703-1.0859 0.49219-1.3555 1.1289-1.5195 1.8477-0.98438 1.3945 0.082031 1.9727-0.96484 1.168-1.8242 0.80078-0.78906 0.76953-0.83594 2.6406-0.0625 1.6602-0.24609 0.98828-1.4375 1.0664-1.6836 1.457-0.89062 1.1797-0.46094 1.0391-0.69922 1.5586-1.0273 1.0273-1.1484 0.082031-1.1914-0.125-1.8281-0.36719-1.2539 0.11328-1.1758 0.39453-0.91797 0.45703-0.65625 0.85156-0.71875 1.0664-1.0312 0.63672-1.4414 0.70312-2.1992 0.23828-1.0156 0.0625-1.1367 0.42188-1.668 0.76562-1 0.42578-1.0977 0.32812-0.68359 0.78516 0.34375 0.94922 0.14453 1.1953 0.94922 0.63672 0.41016 0.91797-1.6172 1.7969-0.22266 1.5391 0.082031 1.2734-0.45312 1.8477-0.90234 1.9102-2.1562 3.1016-0.98438 0.94141-0.71875 1.9727-0.94531 1.8672-1.3555 1.9922-0.82031 0.63672-2.8125 0.88281-1.1484 1.1875-0.49219 0.96484-1.4805 0.53125-2.3945-1.0195-2.6328 0.48828-1.2344 0.88281-0.73828 1.293-0.42969 1.0273-0.69922 0.88281-0.96484 0.49219-2.1953 0.28906-1.6055-0.76172-1.4922-1.5703-0.8125-0.66406-1.4141-0.66406-1.1992-0.75-0.77734-1.3828-0.35156-1.1211-0.8125-0.66406-1.0859 0.16406-1.1836-1.0547-1-1.9648-0.32812-1.2266-0.84375-0.77344-1.4688-0.83984-1.0781-0.74219-1.1211-0.63672-1.3633-0.62891-1.8711-0.51172-1.2773-1.1367-0.89844-0.74219-0.27344-0.99219-1.1484-1.2695-2.0352-1.7227-1.4258-0.28516-1.6367-1.2109-1.0703-0.55078-1.4414 0.55078-1.0703 0.83984-1.3789 0.24219-1.3477 0.23047-1.9062-0.64453-1.6992 0.32422-0.94922 0.46094-1-0.36328 0.25 1.3867-1.6133 0.71875-0.68359 1.1992-1.1016 0.015625-1.2852 0.11328-1.1328 0.55859-1.2578-0.37891-0.23438-1.2148-1.3867-2.1484-0.90625 0.59375-1.1484-0.75-0.94141-0.47266-1.0625-0.97656-1.3086-1.1719v-1.0273l-0.36328-1.043 0.53516-1.1406-0.47656-1.293-1.2656-0.39062-1.0352 0.38281-1.2695-1.0273-0.58594-1.1914-1.5195-0.74219-0.88672 0.49219 0.33594 0.99219 0.050781 1-1.207-0.19922-0.91406 0.45703-1.3203-0.035157-1.2266 0.42578-1.0352 0.17188-0.39453 1.2578-1.0547 0.64062-1.293-0.027344 0.30859-1.4844-0.87891-0.71484-0.30859-1.0703-1.3125-1.4062-0.47656-0.97266-1.1445 0.15234h-1.1328l-1.1133 0.58594-0.66406 0.82031-1.2734 0.57031-1.0273-0.35547-1.0273-0.085937-1.6133-0.25781-0.87891-0.80078-0.65625-1.7617-1.2969-0.76562-1.0234-0.12109-0.5625 0.90625-1.2266-0.86328-1.0664-0.68359-1.4258 0.18359-1.7266-0.33594-1.6289 0.85156-1.5508 0.17188-1.5117 0.35547-1.0859 0.49219-1.1328-0.39844-1.6445-0.17188-1.4688 0.60547 0.050782 1.4805 0.44141 1.3398-1.6055 0.75-1.1719-0.65625-0.77734-0.91406-1.6914 0.74219-1.1641 0.42969-1.043 0.11328-1.3398-0.09375-1.0781-0.39062-2.9961-0.75-1.2656-0.16406-1.332 0.007812-1.5234-1.1289-1.0859-0.83203-1.1055-0.29297-1.0859 0.5-1.3125 0.4375-1.1289 0.25-1.5664 0.59766-1.0703 0.55859-1.1758 0.47656-0.99609 0.53516-1.5977 1.5078-2.0156 0.64844-1.3164 0.30859-1.3711 0.83984-1.875 0.98047-0.98047 0.64453-1.9336 0.14062-1.6797-0.19531-1.4297 0.14062-1.1758 0.86719-0.78516 0.73047-0.86719 0.55859-1.4297 0.39062-1.457 0.36719-1.2617 0.30469-1.2891 0.058593-1.6797-0.28125-1.4297-0.36328-0.875-1.3672-0.99219-0.92578-1.8828-1.5742-0.68359-2.3594-1.2383-1.793-1.0781-1.2383-2.1328-1.4062-1.7031-0.58594-0.90625-0.74609-1.0625-0.63672-1.0664-0.53516-1.8086-0.95703-0.53516-1.3828 0.21484-1.2266 0.37109-1.0625 1.4375-1.1289 1.4375-0.26562 1.0117-0.10938 1.332-0.21094 1.5977-0.32031 0.37109-1.9688 0.21484-1.5977 0.79688-0.85156 1.3828-1.0117 1.0117-0.42578 1.7031-0.69141 1.0664-0.58594 1.1172-0.64062 1.0117-0.63672 1.3828-1.0664 1.5469-1.0625 1.168-0.90625 1.1211-0.66406 1.168-0.96094 0.96094-0.63672 1.4375-0.58594 1.8086-0.69141 2.7617-0.98828 4.7969-3.2734 0.80469-1.5312 0.62891-1.5312-0.90234-2.0469-0.87891-1.3086 0.48438-2.0195 0.90625-1.0703 1.0352-0.55078 0.92188-0.49219 2.2031-1.4609 1.2891-0.70703 0.67188-1.7266 2.4766-1.7891 1.3047-0.75391 1.0625-1.082-2.1875 0.61328-1.5078 0.22656-1.6875 0.14453-0.26953-1.7031 0.054687-1.0664-0.42578-1.543-1.9688-0.32031-2.0234-0.050781-1.7578-0.32031-2.2344-0.74609-0.85156-0.64062-1.1719-0.63672-0.48047-1.332-0.92188-0.55859-1.3398 0.019531-1.8047-0.39062-1.5273-0.47656-1.1641-0.98828-1.707-1.0117-0.90234-0.48047-0.69141-0.90234-0.74609-0.96094-1.2266-1.0625-0.74219-1.4375 0.21094-1.3828 0.69141-1.0664 0.53516-1.2773 0.95703-0.32031 1.3828-0.69141 2.0195-0.69922 1.3359-0.20703 1.8633-1.2773 0.95703-0.85156 1.3828-1.7578 0.41797-1.6055 0.65234-1.1367 1.6562-1.9414 1.3203-1.6328 1.1172-1.7383 0.47656-1.3008 0.39062-1.4688 0.91016-1.5508 1.1992-0.92578 1.3906-0.76953 1.832-0.5 0.99609 0.22266 1.1094-0.054687 1.5547-1.9961 0.44531-1 0.71875-1.2773 1-1.4414 1.2891-1.2891 1.4883-2.2305h2.375l1.5703-0.074219 1.1133-0.48047 1.4805-0.66797 0.89062-1.2578 2.4688-1.9023 3.5156-2.3359 1.3516-0.32031 0.89062-0.81641 0.92578-1.1094 0.67188-1.6797 0.93359-0.4375 2.1914-0.63672 2.168-1.4648 0.89062-0.59375 0.91016-0.75391 2.0156-1.8086 0.89062-0.92578 1-0.37109 1.1484-0.55469 0.8125-0.89062 0.76562-1.3203 1.2734-0.86328 1.5938-1.2227 1.9062-1.5312 1.4297-0.39844 0.92578-0.44141 1.5195-0.81641 2.9258-1.1133 1.5195-0.66406 1.1094-0.51953 2.5664-0.99219 1.457-0.50781 0.95703-0.80078 1.043-1.5625 1.7969-1.4062 1.7656-1.5508 0.90234-0.73828 1.6406-1.1484 1.3125-0.32812 1.3906-0.41016 1.9922-0.13281 1.7812-0.48828 1.168-0.49219 1.5391-1.1094 1.043-2.2734 0.80078-0.61719 0.30859-1.2891-0.19922-1.5117-1.2305-0.86328-0.73438-0.85938-0.015625-1.332 1.2383-2.4609 0.29297-1.3828 0.20312-1.1758 0.70312-1.2852 1.2422-2.1914 0.86719-1.8164 1.2109-1.9727 1.0703-1.043 1.3242-0.62109 2.875-2.5625 0.96094-1.043 0.78906-1.2148 0.38281-2.1133-0.46875-1.832-0.42188-1.4961 0.78906-1.1562 1.918-1.9453 0.5625-1.125 0.3125-2.0977-0.41797-2.4688-0.09375-1.2266 0.39062-0.94922 0.41016-1.6094 0.50781-2.4023 1.4492-2.0898 0.48828-1.7266-0.90625-2.25-1.125-2.7891 0.16016-1.668 0.64453-2.6328 0.92969-1.3086 1.1953-0.85156 1.082-1.1953 0.64062-1.0547 1.6328-1.4648 0.92969-0.66016 1.1016-0.87891 1.2734-0.41797 2.0977-0.32812 2.0117-0.28516 1.7031-0.1875 1.1914-0.47266 0.80078-1.1484 2.957-1.25 2.6875-1.5 1.8086-1.5195 2.5977-2.6641 0.96484-0.61328 0.72656-1.2695 0.69531-1.3359 0.19922-1.8398-0.75781-1.7227 0.25391-2.0547 0.28125-1.25 0.53125-0.96484 2.0312-1.9023 1.6289-1.1289 1.8789-0.70312 1.6211-0.79297 1.0039-1.8789 0.49219-0.95312 0.85938-0.79688 3.0234-1.3672 1.1328-1.0195 0.27734-1.3047 0.125-1.543 0.88672-1.0039 1.75-1.9883 0.71484-1.4141 0.03125-1.1641 0.03125-1.1953-1.0664-2.3867-0.74609-1.7969-0.23828-1.4023-0.78125-1.0039-1.4297-0.44531-1.8867-0.76562-2.1406-1.5391-0.90625-0.65234-0.28906-1.4648 0.54297-2.6914 0.19141-1.5273-0.03125-1.1758-0.33984-1.2656-0.125-1.2031-0.52344-1.3984-0.16016-2.4336-0.15625-1.4023-1.3398-1.0039-1.8438-3.457-0.95703-2.3906-1.3789-0.33984-3.0156-0.23047-2.3984-0.45703-1.1055-0.62891-0.57031-0.98828-0.4375-2-0.70312-1.1758 0.50391-1.293 1.1094-1.3789 0.72656-1.2109 0.72266-1.9062 0.13281-1.4141-0.18359-2.3398-0.50391-2.1211-0.71484-1.3047-1.0039-2.332-0.61719-1.4414 0.58203-2.0117 1.1133-0.60547 1.1602-0.42188 2.4258-0.51953 2.0547-0.085938 1.1484 0.21875 1.4023 0.49609 1.5273 0.12891 5.0156-0.15234 1.5156 0.21875 1.1797 0.55469 1.0664 1.4023 1 0.63281 1.1328 1.7031 1.043 1.1445 0.80469 1.1914 0.99609 0.71094 1.4805 0.28906 1.8711-0.035156 1.0625-0.019532 2.4727-1.0898 1.1289 0.67188 1.6992 1.207 1.2695 0.79688 2.9414-0.58984 2.1211-0.15234 1.5-0.50391 1.1094-0.15234 1.3828-0.47266 1.2812-0.18359 2.3203 0.035157 1.5664-0.20312 1.2812-0.38672 1.5977-0.21875 1.1133-0.4375 0.94531-0.91797 0.71484-1.2969 0.89453-1.7109 0.32422-1.6836 0.15234-1.1641 0.66797-1.0234 1.0664-0.67969 1.4648-0.73047 1.8867-0.57422z" fill="#ccc" fill-rule="evenodd"/>
<path d="m373.8 160.52 0.5625 0.35547 1.8867 0.71094 1 0.47656 1.3008 0.28906 1.7617-0.36719 1.6484 0.82031 1.25 0.99219 1.625 0.30078 1.1953 0.23828 1.5117 0.71094 1.4062 0.003907 1.3516 1.2852-0.8125 1.2148 0.67578 1.3516 0.94922 1.7578 1.5547 0.59375 1.6836 0.082031 1.8867-0.61328 1.3984 0.14062 1.3359 0.83594 2.3398 0.3125 4.8477 0.3125 6.1055 0.023438 1.3203-0.17969 1.3906-0.33203 1.4141-0.125 0.94531 0.59375 1.3867-0.097656 1.4375-0.078125 1.6719-0.37109 0.89062-0.47656 0.96875-0.48438 1.6719 0.27734 1.3945-0.11328 1.5312 0.64453 0.70312 0.96094 0.82031 1.6445 0.5 1.1562 0.83203 1.0625 1.1602 1.0547 0.58594 1.2109-0.66797 1.5586-0.35156 1.1211 0.41406 1.0781 0.85547 1.4766 0.0625 1.4336-0.1875 1.457-1.0625 1.7656-0.82812 1.1211-1.0039 1.3555 0.34375 1.6172 1.0312 0.78516 0.47266 1.0469 0.039063 1.1484-0.55078 1.2539-0.125 1.7031-0.73047 0.85547-0.29688 1.4648-2.0508 3.0781-1.8906 1.4805-1.3086 1.0234-1.168 1.3945-0.41797 1.2344v2.7539l0.45312 1.0039 0.55078 1.0234 0.71484 1.3203 0.78125 1.1172 1.2891 1.3281 1.1641 0.53906 1.1445 0.68359-0.35547 1.5625 0.054687 1.1055 1.6953 2.7539 1.4375 1.7656 1.2461 0.96484 2.2227 1.0859 1.1914 0.98828 1.0469 0.75781 1.418 0.82031 1.2109 1.0078 3.0586 1.0273h1.293l1.0469 0.32812 0.94531 0.75781-0.65625 1.5273-0.41016 2.0156-0.50391 1.6641-0.91406 1.0977-1.8477 0.92969-0.94141 0.76172-0.52344 1.2461-0.39062 1.082-0.5625 1.4531-0.45703 1.1641-0.70703 1.5156-0.375 1.3086-0.45703 1.4961 0.042969 1.7461 1.1016 2.0781 0.6875 0.93359 0.95312 1.4961 0.6875 1.2695 0.33203 0.95703 0.015625 1.2422-0.97266 1.457-0.93359 0.89453-0.48047 0.97656-0.082031 1.1016 0.25781 1.0508 0.67969 1.8789 0.082031 1.1836 0.20703 0.99609-0.16797 0.99609-0.082032 1.7891 0.41406 1.2656 0.375 1.1289 0.054687 1.2812-0.27734 1.4609 2.3438 2.4414 0.47656 1.5078 0.28516 1.4531 0.52734 1.9453 1.0469 1.1914 1.293 0.82031 0.76172 0.67969 0.78125 1.5781 0.18359 1.1289-0.027343 1.1562 0.26172 1.3438 0.20703 0.99609 0.042968 1.1211-0.4375 1.2695-0.98047 0.93359-1.0977 0.95703-0.6875 0.80859-0.082031 1.0859-0.019531 1.3281v1.3906l0.28906 1.6211-0.16797 1.2461 0.19922 1.0586 0.10938 1.082 0.019532 1.1328-0.035157 1.8594 0.082032 1.5586-0.41406 1.0195-1.0586 0.72266-1.3086 0.125-0.95703 0.50391 0.22656 1.0195 0.94531 1.0273 1.0312 0.61719 2.1914 1.2188 1.1523 1.6836 1.332 1.7656 0.93359 0.72656 0.082032 1.6406 0.39453 1.1641 1.0391 0.97656 1.207 1.1836 0.45703 1.1875 0.14453 1.1406-0.16406 1.5977-0.625 1.3945-1.5625 1.1562-1.0859 0.54297-2.1758 0.80078-1.5508 0.77734-0.86719 0.74219-0.94531 0.71484-1.1641 0.097656-1.6016-0.39062-2.0508-0.30859-1.043-0.23047-1.2188-0.30859-1.543 0.019531-1.1445 0.15234-1.0195 0.29297-1.0273 0.63672-0.76953 0.69531-1.1641 1.6406-0.73438 2.0977-0.36328 1.2031-0.64453 2.6484-2.2383 1.1289-0.69922 0.90234-0.30859 3.7578-0.53125 1.2539-0.65234 0.91406-0.92969 1.0469-1.0938 0.78125-0.98438 0.8125-1.0039 0.26953-1.1602 0.23438-1.1211 0.15234-0.89062 0.67969-0.36719 1.0039-0.36719 1.4102-0.69531 0.98438 0.11719 1.3945 0.65625 0.80859 0.52344 1.0469 0.26953 1.1211 0.17188 1.0039-0.19141 1.1602-0.42578 0.92578-1.1211 0.21484-1.4922 0.21484-1.125 1.5898-0.33984 1.0742 0.75391 2.0664 0.25 1.0469-0.19141 1.3711-0.15625 1.6055-0.17188 1.1172-3.6406 4.2148-1.0234 1.4883-0.10547 1.4883 1.5938 2.2578 0.35938 1.9766-0.17969 2.875-0.88672 2.1758-1.0117 1.7812-0.38281 1.7422-0.45703 1.1172-0.72656 1.0508-1.4102 1.4414-1.7773 1.0664-1.0664 1.5742-1.0195 0.45703-1.4219 0.41016-0.86328 1.2695-0.96875 0.50781-0.17969 1.125 0.10547 4.3047-0.16797 1.6484-1.2266 1.8359-1.2578 2.3711-0.28906 1.457-0.97266 2.043 0.09375 1.2383 2.1016 1.957 0.76953 1.3125-0.75 1.6914-2.1836 3.3594-3.75 2.3555-0.94531 0.59375-1.3359 1.5039-1.4453 1.3906-1.7852 0.45703-1.0859 0.49219-1.3555 1.1289-1.5195 1.8477-0.98438 1.3945 0.082031 1.9727-0.96484 1.168-1.8242 0.80078-0.78906 0.76953-0.83594 2.6406-0.0625 1.6602-0.24609 0.98828-1.4375 1.0664-1.6836 1.457-0.89062 1.1797-0.46094 1.0391-0.69922 1.5586-1.0273 1.0273-1.1484 0.082031-1.1914-0.125-1.8281-0.36719-1.2539 0.11328-1.1758 0.39453-0.91797 0.45703-0.65625 0.85156-0.71875 1.0664-1.0312 0.63672-1.4414 0.70312-2.1992 0.23828-1.0156 0.0625-1.1367 0.42188-1.668 0.76562-1 0.42578-1.0977 0.32812-0.68359 0.78516 0.34375 0.94922 0.14453 1.1953 0.94922 0.63672 0.41016 0.91797-1.6172 1.7969-0.22266 1.5391 0.082031 1.2734-0.45312 1.8477-0.90234 1.9102-2.1562 3.1016-0.98438 0.94141-0.71875 1.9727-0.94531 1.8672-1.3555 1.9922-0.82031 0.63672-2.8125 0.88281-1.1484 1.1875-0.49219 0.96484-1.4805 0.53125-2.3945-1.0195-2.6328 0.48828-1.2344 0.88281-0.73828 1.293-0.42969 1.0273-0.69922 0.88281-0.96484 0.49219-2.1953 0.28906-1.6055-0.76172-1.4922-1.5703-0.8125-0.66406-1.4141-0.66406-1.1992-0.75-0.77734-1.3828-0.35156-1.1211-0.8125-0.66406-1.0859 0.16406-1.1836-1.0547-1-1.9648-0.32812-1.2266-0.84375-0.77344-1.4688-0.83984-1.0781-0.74219-1.1211-0.63672-1.3633-0.62891-1.8711-0.51172-1.2773-1.1367-0.89844-0.74219-0.27344-0.99219-1.1484-1.2695-2.0352-1.7227-1.4258-0.28516-1.6367-1.2109-1.0703-0.55078-1.4414 0.55078-1.0703 0.83984-1.3789 0.24219-1.3477 0.23047-1.9062-0.64453-1.6992 0.32422-0.94922 0.46094-1-0.36328 0.25 1.3867-1.6133 0.71875-0.68359 1.1992-1.1016 0.015625-1.2852 0.11328-1.1328 0.55859-1.2578-0.37891-0.23438-1.2148-1.3867-2.1484-0.90625 0.59375-1.1484-0.75-0.94141-0.47266-1.0625-0.97656-1.3086-1.1719v-1.0273l-0.36328-1.043 0.53516-1.1406-0.47656-1.293-1.2656-0.39062-1.0352 0.38281-1.2695-1.0273-0.58594-1.1914-1.5195-0.74219-0.88672 0.49219 0.33594 0.99219 0.050781 1-1.207-0.19922-0.91406 0.45703-1.3203-0.035157-1.2266 0.42578-1.0352 0.17188-0.39453 1.2578-1.0547 0.64062-1.293-0.027344 0.30859-1.4844-0.87891-0.71484-0.30859-1.0703-1.3125-1.4062-0.47656-0.97266-1.1445 0.15234h-1.1328l-1.1133 0.58594-0.66406 0.82031-1.2734 0.57031-1.0273-0.35547-1.0273-0.085937-1.6133-0.25781-0.87891-0.80078-0.65625-1.7617-1.2969-0.76562-1.0234-0.12109-0.5625 0.90625-1.2266-0.86328-1.0664-0.68359-1.4258 0.18359-1.7266-0.33594-1.6289 0.85156-1.5508 0.17188-1.5117 0.35547-1.0859 0.49219-1.1328-0.39844-1.6445-0.17188-1.4688 0.60547 0.050782 1.4805 0.44141 1.3398-1.6055 0.75-1.1719-0.65625-0.77734-0.91406-1.6914 0.74219-1.1641 0.42969-1.043 0.11328-1.3398-0.09375-1.0781-0.39062-2.9961-0.75-1.2656-0.16406-1.332 0.007812-1.5234-1.1289-1.0859-0.83203-1.1055-0.29297-1.0859 0.5-1.3125 0.4375-1.1289 0.25-1.5664 0.59766-1.0703 0.55859-1.1758 0.47656-0.99609 0.53516-1.5977 1.5078-2.0156 0.64844-1.3164 0.30859-1.3711 0.83984-1.875 0.98047-0.98047 0.64453-1.9336 0.14062-1.6797-0.19531-1.4297 0.14062-1.1758 0.86719-0.78516 0.73047-0.86719 0.55859-1.4297 0.39062-1.457 0.36719-1.2617 0.30469-1.2891 0.058593-1.6797-0.28125-1.4297-0.36328-0.875-1.3672-0.99219-0.92578-1.8828-1.5742-0.68359-2.3594-1.2383-1.793-1.0781-1.2383-2.1328-1.4062-1.7031-0.58594-0.90625-0.74609-1.0625-0.63672-1.0664-0.53516-1.8086-0.95703-0.53516-1.3828 0.21484-1.2266 0.37109-1.0625 1.4375-1.1289 1.4375-0.26562 1.0117-0.10938 1.332-0.21094 1.5977-0.32031 0.37109-1.9688 0.21484-1.5977 0.79688-0.85156 1.3828-1.0117 1.0117-0.42578 1.7031-0.69141 1.0664-0.58594 1.1172-0.64062 1.0117-0.63672 1.3828-1.0664 1.5469-1.0625 1.168-0.90625 1.1211-0.66406 1.168-0.96094 0.96094-0.63672 1.4375-0.58594 1.8086-0.69141 2.7617-0.98828 4.7969-3.2734 0.80469-1.5312 0.62891-1.5312-0.90234-2.0469-0.87891-1.3086 0.48438-2.0195 0.90625-1.0703 1.0352-0.55078 0.92188-0.49219 2.2031-1.4609 1.2891-0.70703 0.67188-1.7266 2.4766-1.7891 1.3047-0.75391 1.0625-1.082-2.1875 0.61328-1.5078 0.22656-1.6875 0.14453-0.26953-1.7031 0.054687-1.0664-0.42578-1.543-1.9688-0.32031-2.0234-0.050781-1.7578-0.32031-2.2344-0.74609-0.85156-0.64062-1.1719-0.63672-0.48047-1.332-0.92188-0.55859-1.3398 0.019531-1.8047-0.39062-1.5273-0.47656-1.1641-0.98828-1.707-1.0117-0.90234-0.48047-0.69141-0.90234-0.74609-0.96094-1.2266-1.0625-0.74219-1.4375 0.21094-1.3828 0.69141-1.0664 0.53516-1.2773 0.95703-0.32031 1.3828-0.69141 2.0195-0.69922 1.3359-0.20703 1.8633-1.2773 0.95703-0.85156 1.3828-1.7578 0.41797-1.6055 0.65234-1.1367 1.6562-1.9414 1.3203-1.6328 1.1172-1.7383 0.47656-1.3008 0.39062-1.4688 0.91016-1.5508 1.1992-0.92578 1.3906-0.76953 1.832-0.5 0.99609 0.22266 1.1094-0.054687 1.5547-1.9961 0.44531-1 0.71875-1.2773 1-1.4414 1.2891-1.2891 1.4883-2.2305h2.375l1.5703-0.074219 1.1133-0.48047 1.4805-0.66797 0.89062-1.2578 2.4688-1.9023 3.5156-2.3359 1.3516-0.32031 0.89062-0.81641 0.92578-1.1094 0.67188-1.6797 0.93359-0.4375 2.1914-0.63672 2.168-1.4648 0.89062-0.59375 0.91016-0.75391 2.0156-1.8086 0.89062-0.92578 1-0.37109 1.1484-0.55469 0.8125-0.89062 0.76562-1.3203 1.2734-0.86328 1.5938-1.2227 1.9062-1.5312 1.4297-0.39844 0.92578-0.44141 1.5195-0.81641 2.9258-1.1133 1.5195-0.66406 1.1094-0.51953 2.5664-0.99219 1.457-0.50781 0.95703-0.80078 1.043-1.5625 1.7969-1.4062 1.7656-1.5508 0.90234-0.73828 1.6406-1.1484 1.3125-0.32812 1.3906-0.41016 1.9922-0.13281 1.7812-0.48828 1.168-0.49219 1.5391-1.1094 1.043-2.2734 0.80078-0.61719 0.30859-1.2891-0.19922-1.5117-1.2305-0.86328-0.73438-0.85938-0.015625-1.332 1.2383-2.4609 0.29297-1.3828 0.20312-1.1758 0.70312-1.2852 1.2422-2.1914 0.86719-1.8164 1.2109-1.9727 1.0703-1.043 1.3242-0.62109 2.875-2.5625 0.96094-1.043 0.78906-1.2148 0.38281-2.1133-0.46875-1.832-0.42188-1.4961 0.78906-1.1562 1.918-1.9453 0.5625-1.125 0.3125-2.0977-0.41797-2.4688-0.09375-1.2266 0.39062-0.94922 0.41016-1.6094 0.50781-2.4023 1.4492-2.0898 0.48828-1.7266-0.90625-2.25-1.125-2.7891 0.16016-1.668 0.64453-2.6328 0.92969-1.3086 1.1953-0.85156 1.082-1.1953 0.64062-1.0547 1.6328-1.4648 0.92969-0.66016 1.1016-0.87891 1.2734-0.41797 2.0977-0.32812 2.0117-0.28516 1.7031-0.1875 1.1914-0.47266 0.80078-1.1484 2.957-1.25 2.6875-1.5 1.8086-1.5195 2.5977-2.6641 0.96484-0.61328 0.72656-1.2695 0.69531-1.3359 0.19922-1.8398-0.75781-1.7227 0.25391-2.0547 0.28125-1.25 0.53125-0.96484 2.0312-1.9023 1.6289-1.1289 1.8789-0.70312 1.6211-0.79297 1.0039-1.8789 0.49219-0.95312 0.85938-0.79688 3.0234-1.3672 1.1328-1.0195 0.27734-1.3047 0.125-1.543 0.88672-1.0039 1.75-1.9883 0.71484-1.4141 0.03125-1.1641 0.03125-1.1953-1.0664-2.3867-0.74609-1.7969-0.23828-1.4023-0.78125-1.0039-1.4297-0.44531-1.8867-0.76562-2.1406-1.5391-0.90625-0.65234-0.28906-1.4648 0.54297-2.6914 0.19141-1.5273-0.03125-1.1758-0.33984-1.2656-0.125-1.2031-0.52344-1.3984-0.16016-2.4336-0.15625-1.4023-1.3398-1.0039-1.8438-3.457-0.95703-2.3906-1.3789-0.33984-3.0156-0.23047-2.3984-0.45703-1.1055-0.62891-0.57031-0.98828-0.4375-2-0.70312-1.1758 0.50391-1.293 1.1094-1.3789 0.72656-1.2109 0.72266-1.9062 0.13281-1.4141-0.18359-2.3398-0.50391-2.1211-0.71484-1.3047-1.0039-2.332-0.61719-1.4414 0.58203-2.0117 1.1133-0.60547 1.1602-0.42188 2.4258-0.51953 2.0547-0.085938 1.1484 0.21875 1.4023 0.49609 1.5273 0.12891 5.0156-0.15234 1.5156 0.21875 1.1797 0.55469 1.0664 1.4023 1 0.63281 1.1328 1.7031 1.043 1.1445 0.80469 1.1914 0.99609 0.71094 1.4805 0.28906 1.8711-0.035156 1.0625-0.019532 2.4727-1.0898 1.1289 0.67188 1.6992 1.207 1.2695 0.79688 2.9414-0.58984 2.1211-0.15234 1.5-0.50391 1.1094-0.15234 1.3828-0.47266 1.2812-0.18359 2.3203 0.035157 1.5664-0.20312 1.2812-0.38672 1.5977-0.21875 1.1133-0.4375 0.94531-0.91797 0.71484-1.2969 0.89453-1.7109 0.32422-1.6836 0.15234-1.1641 0.66797-1.0234 1.0664-0.67969 1.4648-0.73047 1.8867-0.57422 0.69922 0.15234" fill="none" stroke="#fff" stroke-linecap="round" stroke-linejoin="round" stroke-miterlimit="10" stroke-width="2"/>
<path d="m197.41 221.11 0.21484 0.97656-0.9375 1.1445 0.41406 1.7227 0.78516 0.77734-0.26172 1.6562 0.43359 1.082 1.2969-0.10938h1.5156l0.49219 1.3008-1.5742 2.375-0.74609 2.4531-0.8125 0.73828-2.0273 1.082-0.74219 1.4609 0.82031 0.70703 0.91016 14.008 1.082 1.2969 1.3008 0.75781 1.1875 0.97266 2.4883 2.3906 2.3828 2.3828 0.97266 1.8359 0.43359 1.1914-0.10938 1.5156-0.21484 1.1875-0.65234 2.3828 0.54297 2.0547 0.53906 1.082 0.64844 1.5117 0.97656 0.65234 0.86328 0.64844 2.0547 0.64844h1.3008l1.7305 0.32422 1.6211 0.43359 1.3008 0.86328 0.97266 0.54297 1.4062 0.53906 1.4062 0.32422 0.86719 0.65234 1.7305 0.97266 2.4883 0.97266 0.97266 0.32422 1.5156 1.3008 1.5117 0.53906 1.7305 0.53906 0.54297 0.86719 0.43359 1.5156-0.67188 1.0273-0.75781 0.75781-0.53906 0.86328-0.97656 0.86719-0.75391 0.97266-1.3008 2.4883-1.2969 2.0547-0.32422 1.1914-2.3945 5.2344-0.50781 1.1094-1.1797 1.4961-1.0039 2.0039 1.2344 0.61719 1.3242 0.42188 1.8555 0.58984 1.9961-0.35156 2.4375-0.34766 1.5391 0.54297 1.1211 0.89453 1.5078 0.0625 2.375-0.70312 1.832-0.25 1.4336 0.6875 1.3047 0.83984 1.6445 0.35156 2.6055 1.4805 1.3984 0.96094 1.3594 0.066407 4.4922 1.8906 1.6367 1.4141 1.5352 0.90234 2.4414 1.6953 2.7891 1.4102 5.4336 2.0352 0.91797 0.51172 2.0039 1.1133 0.92188 1.2891 1.2305 0.86328 0.19922 1.5117-0.30859 1.2891-0.80078 0.61719-0.61328 1.5352-1.293 1.293-1.8438 1.0469-1.1055 0.42969-2.668 0.19141-1.3906 0.41016-1.3125 0.32812-1.6406 1.1484-0.90234 0.73828-1.7656 1.5508-1.7969 1.4062-1.043 1.5625-0.95703 0.80078-1.457 0.50781-1.7578 0.56641-1.1758 0.64844-2.2617 0.96094-2.1133 0.70703-1.6641 0.85156-1.5938 0.8125-0.97656 0.29688-1.6562 1.2227-1.7773 0.85156-1.793 1.6445-0.76562 1.3203-0.8125 0.89062-1.1484 0.55469-1 0.37109-0.89062 0.92578-2.0156 1.8086-0.91016 0.75391-0.89062 0.59375-2.168 1.4648-2.1914 0.63672-0.93359 0.4375-0.44922 1.0469-0.59375 1.2617-1.4453 1.2969-1.3516 0.32031-3.5156 2.3359-2.4688 1.9023-0.89062 1.2578-1.4805 0.66797-1.1133 0.48047-1.0938 0.011719-2.332-0.12891-1.6055 1.9102-1.6914 1.8008-1 1.4414-0.71875 1.2773-0.44531 1-0.80469 1.8438-1.8594 0.20703-0.99609-0.22266-1.2773 0.054688-1.6328 0.875-0.85156 0.79297-1.2188 1.1758-0.53906 1.5703-0.67969 2.0469-1.1172 1.7383-1.3203 1.6328-1.1602 1.3633-1.1484 1.7148-0.41797 1.6055-1.3828 1.7578-0.95703 0.85156-1.8633 1.2773-1.3359 0.20703-2.0195 0.69922-1.3828 0.69141-0.95703 0.32031-0.53516 1.2773-0.69141 1.0664-0.16016 1.0078 0.32031 1.332 0.90625 0.95703 1.4375 1.5469 0.69141 0.90234 0.90234 0.48047 1.707 1.0117 1.1641 0.98828 1.5273 0.47656 1.3672 0.43359 1.5273-0.16406 1.1719 0.66016 0.48047 1.332 1.1719 0.63672 0.85156 0.64062 1.2773 0.48047 2.7148 0.58594 1.0664 0.31641 2.1797-0.21094 1.0664 1.1172 0.050781 1.7578v1.0117l1.957 0.54688 1.5078-0.22656 1.4844-0.51562-0.35938 0.98438-1.3047 0.75391-1.875 1.0977-0.97656 1.6602-0.69141 1.2578-3.0977 1.668-0.92188 0.49219-1.0352 0.55078-0.90625 1.0703-0.5625 1.2539 0.95703 2.0742 0.90234 2.0469-0.62891 1.5312-0.80469 1.5312-4.1992 3.0625-3.3594 1.1992-1.2227 0.42578-1.3867 0.53125-1.5977 0.95703-1.168 0.96094-1.1211 0.66406-1.168 0.90625-0.85156 0.53125-2.0781 1.5977-1.0117 0.63672-1.1172 0.64062-1.0664 0.58594-1.7031 0.69141-1.0117 0.42578-1.3828 1.0117-0.79688 0.85156-0.21484 1.5977-0.10547 1.0625-0.90625 1.2773-2.2891 0.16016-1.0117 0.10938-1.4375 0.26562-1.1172 0.31641-0.69141 1.875-0.21484 1.2266 0.53516 1.3828 1.0117 0.58594 1.8633 0.90625 1.0625 0.63672 0.90625 0.74609 1.7031 0.58594 2.1328 1.4062 1.0781 1.2383 1.2383 1.793 0.26953 1.7188 1.8555 1.9297 1.0938 0.875 0.625 0.92969-1.0938 0.69531-1.5234-0.046875-0.9375 0.46484-0.86328 0.73828-0.93359 0.64062-1.0312 0.074219-1.4297-0.69141-1.0586-0.26953-1.4023-0.29297-1.4023-0.027344-1.2773 0.51562-0.99219 0.66406-1.25 0.10156-1.0078-0.125-1.0312-0.6875-0.88281-0.58984-1.7266 0.19531-1.5508 1.4023-1.168 0.69141-2.043-0.050782-1.0352-0.22266-1.5977 0.17578-2.1914 0.35547-1.8555 0.36328-1.6211 0.17578-1.7383-0.3125-1.668-0.65625-0.6875-0.78906-0.59375-1.082-0.47266-1.4102-0.90234-1.0859-1.2539-0.55469-2.1172-0.74219-1.6719-0.13672-2.2656-0.5-1.1836-1.3281-0.71484-1.0117-0.78516-1.4023-1.9805-1.4258-1.4727-0.66797-2.3086-0.76953-1.7461-0.38281-1.3047-0.44531-2.2148-0.14844-2.3398-0.51562-1.0078-1.2578-0.71484-0.83594-0.76172-0.85938-1.0312-0.76172-1.7266-0.61719-1.4023-0.41797-1.293-0.29688-1.4766-0.29297-1.2305 0.19531-0.66406 1.1328-0.54297 1.2812-0.34375 1.4258-0.52344 1.5-0.70703 1.3047-0.88672 0.71484-1.8945 0.61328-1.3984-0.019531-1.6055-0.98828-1.0078-1.4258-0.66406-1.6523-0.96094-1.4258-0.66406-1.0586-0.58984-1.4258-1.1562-0.44531-1.0352 0.10156-0.96094 0.32031-1.8398 0.80078-0.87109 0.51953-1.0195 0.70312-1.207 0.42969-0.82031 0.71875-1.4258 0.69141-1.6758 0.39062-1.1055 0.25-1.0234 0.007813-1.2539 0.0625-1.6797-0.49609-1.1367-0.5-1.4922-0.14062-1.3008-0.16406-1.1523-0.90234-1.0273-1.0703-1.0078-1.4336-0.12891-1.0039 1.0078-2.3164 1.5938-2.1133 1.2891-1.1602 0.57031-1.3906 0.89062-1.75 0.24609-1.3945 0.45312-1.2422 0.78125-1.1367 0.49219-0.97656 0.48438-1.3281 0.20312-1.9414-0.52734-1.3438-0.78125-1.0742-0.71484-1.207-1.0078-1.4297-1.1523-0.66406-1.2695-0.57031-0.023437-1.1055 0.46875-1.2031 0.007812-1.0742-0.44531-1.25-0.52344-0.96875-1.0312-1.9648-0.48047-1.1758-0.09375-1.2305-0.40625-1.4805-0.9375-0.78516-1.2109-0.19531-1.2852 0.21484-1.5938 0.59375-1.3242-0.17188-1.6133-2.457-0.71094-0.88281-1.168-0.98047-0.97656-0.51172-1.1719-0.49609-0.82422-0.61719-0.83594-1.9219-0.90625-0.88281-1.0156 0.11719-1.7656 0.38281-1.2031 0.27344-0.94922-0.35156-1.8789-2.5508-1.0742-1.0156-1.2695-0.90625-1.3555-0.92578-1.6914-0.078125-1.3906 0.066406-1.4531 0.21484-2.0781 0.9375-1.4883 0.61719-1.0586 0.28516-1.1992 0.43359-1.543 0.003906-1.5469-0.23438-2.1562-0.50391-1.0586-0.48828-1.1211-1.5273-0.73438-1.1836-0.5-0.89844-0.66406-0.92578-0.89844-0.73047-1.5078-0.42969-1.1562-0.26172-1.1016-0.40625-1.0117-0.50781-1.1758-0.96094-0.43359-0.91016-0.43359-1.6094-0.38281-1.1758-0.58594-0.89062-1.2305-1.3008-0.70703-0.71875-0.96484-1.0586-1.0508-0.69922-0.56641-1.0547-0.37109-1.0078-0.50391-1.0273-0.21094-0.98828-0.25391-1.3867-0.75-1.5742-1.2109-2.5586 1.0352-1.3516 0.64453-0.91016 1.8477-2.457 1.3867-1.7422 0.92969-1.1719 0.72266-0.9375 0.81641-1.2031 1.0859-1.4531 1.3672-2.043 1.3516-2.0352 0.92969-1.5469 0.75-1.207 1.4727-2.2148 0.94531-1.668 1.2461-2.2305 0.74219-1.125 0.91797-1.1172 1.2109-1.6406 0.89844-0.98438 1.7148-1.332 0.73438-0.74219 1.0859-1.2734 0.99219-1.3594 1.5117-2.3164 1.2383-2.1172 1.3945-2.6094 0.6875-1.75 0.84375-1.3789 0.60938-1.2188 0.89062-2.1016 0.57031-1.0781 0.51562-1.3398 0.48828-1.1992 0.55078-1.2852 0.32812-0.95703 0.57422-1.3594 0.53516-1.5273 0.62891-1.6797 0.50781-0.89062 0.40234-1.418 0.91016-2.6523 0.91016-1.8594 0.98828-1.7578 0.83594-1.3633 0.90234-2.1094 0.42578-0.96875 0.95703-2.1523 0.375-1.5117 0.83984-2.1172 1.2188-1.9961 1.1055-3.5938 0.28516-1.293 0.67578-1.3906 1.8672-1.7344 1.5312-0.74219 1.1172-0.66016 1.0117-0.32031 1.7305 0.015625 1.2773-0.47656 1.7266-1.2031 1.832-1.8711 1.793-2.5352 0.80078-1.6367 0.46094-0.94141 1.2812-2.0938 1.2812-3.457 0.49219-2.0898 0.44922-1.1016 0.86328-1.3359 0.97656-0.94922 2.0938-0.6875 1.8789-0.14062 1.082-0.46875 3.1836-1.6719 1.9062-1.4219 1.1484-1.1367 0.91797-0.80469 0.80859-0.82812 1.2578-0.91406 1.4766-1.4023 1.5469-1.1055 0.81641-0.80078 2.1133 0.046875 1.3516-0.38672 2.7109-1.5664 2.1172-1.3945 1.6523-1.0742 1.0664-0.53516 1.5469-1.0938 1.8086-1 2.6211-1.6406 1.3438-0.64453 1.4766-0.57812 1.1953-0.70312 1.2422-0.85938 1.2305-1.1484 1.5352-1.2383 1.2461-0.52344 1.0117-0.53906 2.043-1.8594 1.6094-0.78516 2.4453-1.7344 3.5742-1.7422 1.8281-1.0312 1.7617-1.1602 0.87109-0.92188 1.0508-0.82031 1.8164-1.0469 0.99609-0.29688 1.293-0.60938 1.6289-1.7539 1.5039-2.3984 1.0742-1.3516 1.5234-0.77734 1.2812-0.63281 1.4219-1.5078 0.66797-0.92969 1.8438-1.7266 0.86719-0.61328 1.0352-0.29688 2.293-0.91406 1.0859-0.054688 1.4023-0.63281 1.4258-0.11719 1.9297-0.77344 1.8164-0.26172 2.1211-0.76172 1.5508-0.46875 1.2812-0.6875 1.2031-0.88672 1.0156-1.7188 1.3594-1.3672 0.73438-0.92969 1.25-1.1055 2.2266-2.1641 1.8438-1.4219 2.3594-1.1328z" fill="#ccc" fill-rule="evenodd"/>
<path d="m197.41 221.11 0.21484 0.97656-0.9375 1.1445 0.41406 1.7227 0.78516 0.77734-0.26172 1.6562 0.43359 1.082 1.2969-0.10938h1.5156l0.49219 1.3008-1.5742 2.375-0.74609 2.4531-0.8125 0.73828-2.0273 1.082-0.74219 1.4609 0.82031 0.70703 0.91016 14.008 1.082 1.2969 1.3008 0.75781 1.1875 0.97266 2.4883 2.3906 2.3828 2.3828 0.97266 1.8359 0.43359 1.1914-0.10938 1.5156-0.21484 1.1875-0.65234 2.3828 0.54297 2.0547 0.53906 1.082 0.64844 1.5117 0.97656 0.65234 0.86328 0.64844 2.0547 0.64844h1.3008l1.7305 0.32422 1.6211 0.43359 1.3008 0.86328 0.97266 0.54297 1.4062 0.53906 1.4062 0.32422 0.86719 0.65234 1.7305 0.97266 2.4883 0.97266 0.97266 0.32422 1.5156 1.3008 1.5117 0.53906 1.7305 0.53906 0.54297 0.86719 0.43359 1.5156-0.67188 1.0273-0.75781 0.75781-0.53906 0.86328-0.97656 0.86719-0.75391 0.97266-1.3008 2.4883-1.2969 2.0547-0.32422 1.1914-2.3945 5.2344-0.50781 1.1094-1.1797 1.4961-1.0039 2.0039 1.2344 0.61719 1.3242 0.42188 1.8555 0.58984 1.9961-0.35156 2.4375-0.34766 1.5391 0.54297 1.1211 0.89453 1.5078 0.0625 2.375-0.70312 1.832-0.25 1.4336 0.6875 1.3047 0.83984 1.6445 0.35156 2.6055 1.4805 1.3984 0.96094 1.3594 0.066407 4.4922 1.8906 1.6367 1.4141 1.5352 0.90234 2.4414 1.6953 2.7891 1.4102 5.4336 2.0352 0.91797 0.51172 2.0039 1.1133 0.92188 1.2891 1.2305 0.86328 0.19922 1.5117-0.30859 1.2891-0.80078 0.61719-0.61328 1.5352-1.293 1.293-1.8438 1.0469-1.1055 0.42969-2.668 0.19141-1.3906 0.41016-1.3125 0.32812-1.6406 1.1484-0.90234 0.73828-1.7656 1.5508-1.7969 1.4062-1.043 1.5625-0.95703 0.80078-1.457 0.50781-1.7578 0.56641-1.1758 0.64844-2.2617 0.96094-2.1133 0.70703-1.6641 0.85156-1.5938 0.8125-0.97656 0.29688-1.6562 1.2227-1.7773 0.85156-1.793 1.6445-0.76562 1.3203-0.8125 0.89062-1.1484 0.55469-1 0.37109-0.89062 0.92578-2.0156 1.8086-0.91016 0.75391-0.89062 0.59375-2.168 1.4648-2.1914 0.63672-0.93359 0.4375-0.44922 1.0469-0.59375 1.2617-1.4453 1.2969-1.3516 0.32031-3.5156 2.3359-2.4688 1.9023-0.89062 1.2578-1.4805 0.66797-1.1133 0.48047-1.0938 0.011719-2.332-0.12891-1.6055 1.9102-1.6914 1.8008-1 1.4414-0.71875 1.2773-0.44531 1-0.80469 1.8438-1.8594 0.20703-0.99609-0.22266-1.2773 0.054688-1.6328 0.875-0.85156 0.79297-1.2188 1.1758-0.53906 1.5703-0.67969 2.0469-1.1172 1.7383-1.3203 1.6328-1.1602 1.3633-1.1484 1.7148-0.41797 1.6055-1.3828 1.7578-0.95703 0.85156-1.8633 1.2773-1.3359 0.20703-2.0195 0.69922-1.3828 0.69141-0.95703 0.32031-0.53516 1.2773-0.69141 1.0664-0.16016 1.0078 0.32031 1.332 0.90625 0.95703 1.4375 1.5469 0.69141 0.90234 0.90234 0.48047 1.707 1.0117 1.1641 0.98828 1.5273 0.47656 1.3672 0.43359 1.5273-0.16406 1.1719 0.66016 0.48047 1.332 1.1719 0.63672 0.85156 0.64062 1.2773 0.48047 2.7148 0.58594 1.0664 0.31641 2.1797-0.21094 1.0664 1.1172 0.050781 1.7578v1.0117l1.957 0.54688 1.5078-0.22656 1.4844-0.51562-0.35938 0.98438-1.3047 0.75391-1.875 1.0977-0.97656 1.6602-0.69141 1.2578-3.0977 1.668-0.92188 0.49219-1.0352 0.55078-0.90625 1.0703-0.5625 1.2539 0.95703 2.0742 0.90234 2.0469-0.62891 1.5312-0.80469 1.5312-4.1992 3.0625-3.3594 1.1992-1.2227 0.42578-1.3867 0.53125-1.5977 0.95703-1.168 0.96094-1.1211 0.66406-1.168 0.90625-0.85156 0.53125-2.0781 1.5977-1.0117 0.63672-1.1172 0.64062-1.0664 0.58594-1.7031 0.69141-1.0117 0.42578-1.3828 1.0117-0.79688 0.85156-0.21484 1.5977-0.10547 1.0625-0.90625 1.2773-2.2891 0.16016-1.0117 0.10938-1.4375 0.26562-1.1172 0.31641-0.69141 1.875-0.21484 1.2266 0.53516 1.3828 1.0117 0.58594 1.8633 0.90625 1.0625 0.63672 0.90625 0.74609 1.7031 0.58594 2.1328 1.4062 1.0781 1.2383 1.2383 1.793 0.26953 1.7188 1.8555 1.9297 1.0938 0.875 0.625 0.92969-1.0938 0.69531-1.5234-0.046875-0.9375 0.46484-0.86328 0.73828-0.93359 0.64062-1.0312 0.074219-1.4297-0.69141-1.0586-0.26953-1.4023-0.29297-1.4023-0.027344-1.2773 0.51562-0.99219 0.66406-1.25 0.10156-1.0078-0.125-1.0312-0.6875-0.88281-0.58984-1.7266 0.19531-1.5508 1.4023-1.168 0.69141-2.043-0.050782-1.0352-0.22266-1.5977 0.17578-2.1914 0.35547-1.8555 0.36328-1.6211 0.17578-1.7383-0.3125-1.668-0.65625-0.6875-0.78906-0.59375-1.082-0.47266-1.4102-0.90234-1.0859-1.2539-0.55469-2.1172-0.74219-1.6719-0.13672-2.2656-0.5-1.1836-1.3281-0.71484-1.0117-0.78516-1.4023-1.9805-1.4258-1.4727-0.66797-2.3086-0.76953-1.7461-0.38281-1.3047-0.44531-2.2148-0.14844-2.3398-0.51562-1.0078-1.2578-0.71484-0.83594-0.76172-0.85938-1.0312-0.76172-1.7266-0.61719-1.4023-0.41797-1.293-0.29688-1.4766-0.29297-1.2305 0.19531-0.66406 1.1328-0.54297 1.2812-0.34375 1.4258-0.52344 1.5-0.70703 1.3047-0.88672 0.71484-1.8945 0.61328-1.3984-0.019531-1.6055-0.98828-1.0078-1.4258-0.66406-1.6523-0.96094-1.4258-0.66406-1.0586-0.58984-1.4258-1.1562-0.44531-1.0352 0.10156-0.96094 0.32031-1.8398 0.80078-0.87109 0.51953-1.0195 0.70312-1.207 0.42969-0.82031 0.71875-1.4258 0.69141-1.6758 0.39062-1.1055 0.25-1.0234 0.007813-1.2539 0.0625-1.6797-0.49609-1.1367-0.5-1.4922-0.14062-1.3008-0.16406-1.1523-0.90234-1.0273-1.0703-1.0078-1.4336-0.12891-1.0039 1.0078-2.3164 1.5938-2.1133 1.2891-1.1602 0.57031-1.3906 0.89062-1.75 0.24609-1.3945 0.45312-1.2422 0.78125-1.1367 0.49219-0.97656 0.48438-1.3281 0.20312-1.9414-0.52734-1.3438-0.78125-1.0742-0.71484-1.207-1.0078-1.4297-1.1523-0.66406-1.2695-0.57031-0.023437-1.1055 0.46875-1.2031 0.007812-1.0742-0.44531-1.25-0.52344-0.96875-1.0312-1.9648-0.48047-1.1758-0.09375-1.2305-0.40625-1.4805-0.9375-0.78516-1.2109-0.19531-1.2852 0.21484-1.5938 0.59375-1.3242-0.17188-1.6133-2.457-0.71094-0.88281-1.168-0.98047-0.97656-0.51172-1.1719-0.49609-0.82422-0.61719-0.83594-1.9219-0.90625-0.88281-1.0156 0.11719-1.7656 0.38281-1.2031 0.27344-0.94922-0.35156-1.8789-2.5508-1.0742-1.0156-1.2695-0.90625-1.3555-0.92578-1.6914-0.078125-1.3906 0.066406-1.4531 0.21484-2.0781 0.9375-1.4883 0.61719-1.0586 0.28516-1.1992 0.43359-1.543 0.003906-1.5469-0.23438-2.1562-0.50391-1.0586-0.48828-1.1211-1.5273-0.73438-1.1836-0.5-0.89844-0.66406-0.92578-0.89844-0.73047-1.5078-0.42969-1.1562-0.26172-1.1016-0.40625-1.0117-0.50781-1.1758-0.96094-0.43359-0.91016-0.43359-1.6094-0.38281-1.1758-0.58594-0.89062-1.2305-1.3008-0.70703-0.71875-0.96484-1.0586-1.0508-0.69922-0.56641-1.0547-0.37109-1.0078-0.50391-1.0273-0.21094-0.98828-0.25391-1.3867-0.75-1.5742-1.2109-2.5586 1.0352-1.3516 0.64453-0.91016 1.8477-2.457 1.3867-1.7422 0.92969-1.1719 0.72266-0.9375 0.81641-1.2031 1.0859-1.4531 1.3672-2.043 1.3516-2.0352 0.92969-1.5469 0.75-1.207 1.4727-2.2148 0.94531-1.668 1.2461-2.2305 0.74219-1.125 0.91797-1.1172 1.2109-1.6406 0.89844-0.98438 1.7148-1.332 0.73438-0.74219 1.0859-1.2734 0.99219-1.3594 1.5117-2.3164 1.2383-2.1172 1.3945-2.6094 0.6875-1.75 0.84375-1.3789 0.60938-1.2188 0.89062-2.1016 0.57031-1.0781 0.51562-1.3398 0.48828-1.1992 0.55078-1.2852 0.32812-0.95703 0.57422-1.3594 0.53516-1.5273 0.62891-1.6797 0.50781-0.89062 0.40234-1.418 0.91016-2.6523 0.91016-1.8594 0.98828-1.7578 0.83594-1.3633 0.90234-2.1094 0.42578-0.96875 0.95703-2.1523 0.375-1.5117 0.83984-2.1172 1.2188-1.9961 1.1055-3.5938 0.28516-1.293 0.67578-1.3906 1.8672-1.7344 1.5312-0.74219 1.1172-0.66016 1.0117-0.32031 1.7305 0.015625 1.2773-0.47656 1.7266-1.2031 1.832-1.8711 1.793-2.5352 0.80078-1.6367 0.46094-0.94141 1.2812-2.0938 1.2812-3.457 0.49219-2.0898 0.44922-1.1016 0.86328-1.3359 0.97656-0.94922 2.0938-0.6875 1.8789-0.14062 1.082-0.46875 3.1836-1.6719 1.9062-1.4219 1.1484-1.1367 0.91797-0.80469 0.80859-0.82812 1.2578-0.91406 1.4766-1.4023 1.5469-1.1055 0.81641-0.80078 2.1133 0.046875 1.3516-0.38672 2.7109-1.5664 2.1172-1.3945 1.6523-1.0742 1.0664-0.53516 1.5469-1.0938 1.8086-1 2.6211-1.6406 1.3438-0.64453 1.4766-0.57812 1.1953-0.70312 1.2422-0.85938 1.2305-1.1484 1.5352-1.2383 1.2461-0.52344 1.0117-0.53906 2.043-1.8594 1.6094-0.78516 2.4453-1.7344 3.5742-1.7422 1.8281-1.0312 1.7617-1.1602 0.87109-0.92188 1.0508-0.82031 1.8164-1.0469 0.99609-0.29688 1.293-0.60938 1.6289-1.7539 1.5039-2.3984 1.0742-1.3516 1.5234-0.77734 1.2812-0.63281 1.4219-1.5078 0.66797-0.92969 1.8438-1.7266 0.86719-0.61328 1.0352-0.29688 2.293-0.91406 1.0859-0.054688 1.4023-0.63281 1.4258-0.11719 1.9297-0.77344 1.8164-0.26172 2.1211-0.76172 1.5508-0.46875 1.2812-0.6875 1.2031-0.88672 1.0156-1.7188 1.3594-1.3672 0.73438-0.92969 1.25-1.1055 2.2266-2.1641 1.8438-1.4219 2.3594-1.1328 25.383 9.9219" fill="none" stroke="#fff" stroke-linecap="round" stroke-linejoin="round" stroke-miterlimit="10" stroke-width="2"/>
<path d="m373.8 160.52 0.5625 0.35547 1.8867 0.71094 1 0.47656 1.3008 0.28906 1.7617-0.36719 1.6484 0.82031 1.25 0.99219 1.625 0.30078 1.1953 0.23828 1.5117 0.71094 1.4062 0.003907 1.3516 1.2852-0.8125 1.2148 0.67578 1.3516 0.94922 1.7578 1.5547 0.59375 1.6836 0.082031 1.8867-0.61328 1.3984 0.14062 1.3359 0.83594 2.3398 0.3125 4.8477 0.3125 6.1055 0.023438 1.3203-0.17969 1.3906-0.33203 1.4141-0.125 0.94531 0.59375 1.3867-0.097656 1.4375-0.078125 1.6719-0.37109 0.89062-0.47656 0.96875-0.48438 1.6719 0.27734 1.3945-0.11328 1.5312 0.64453 0.70312 0.96094 0.82031 1.6445 0.5 1.1562 0.83203 1.0625 1.1602 1.0547 0.58594 1.2109-0.66797 1.5586-0.35156 1.1211 0.41406 1.0781 0.85547 1.4766 0.0625 1.4336-0.1875 1.457-1.0625 1.7656-0.82812 1.1211-1.0039 1.3555 0.34375 1.6172 1.0312 0.78516 0.47266 1.0469 0.039063 1.1484-0.55078 1.2539-0.125 1.7031-0.73047 0.85547-0.29688 1.4648-2.0508 3.0781-1.8906 1.4805-1.3086 1.0234-1.168 1.3945-0.41797 1.2344v2.7539l0.45312 1.0039 0.55078 1.0234 0.71484 1.3203 0.78125 1.1172 1.2891 1.3281 1.1641 0.53906 1.1445 0.68359-0.35547 1.5625 0.054687 1.1055 1.6953 2.7539 1.4375 1.7656 1.2461 0.96484 2.2227 1.0859 1.1914 0.98828 1.0469 0.75781 1.418 0.82031 1.2109 1.0078 3.0586 1.0273h1.293l1.0469 0.32812 0.94531 0.75781-0.65625 1.5273-0.41016 2.0156-0.50391 1.6641-0.91406 1.0977-1.8477 0.92969-0.94141 0.76172-0.52344 1.2461-0.39062 1.082-0.5625 1.4531-0.45703 1.1641-0.70703 1.5156-0.375 1.3086-0.45703 1.4961 0.042969 1.7461 1.1016 2.0781 0.6875 0.93359 0.95312 1.4961 0.6875 1.2695 0.33203 0.95703 0.015625 1.2422-0.97266 1.457-0.93359 0.89453-0.48047 0.97656-0.082031 1.1016 0.25781 1.0508 0.67969 1.8789 0.082031 1.1836 0.20703 0.99609-0.16797 0.99609-0.082032 1.7891 0.41406 1.2656 0.375 1.1289 0.054687 1.2812-0.27734 1.4609 2.3438 2.4414 0.47656 1.5078 0.28516 1.4531 0.52734 1.9453 1.0469 1.1914 1.293 0.82031 0.76172 0.67969 0.78125 1.5781 0.18359 1.1289-0.027343 1.1562 0.26172 1.3438 0.20703 0.99609 0.042968 1.1211-0.4375 1.2695-0.98047 0.93359-1.0977 0.95703-0.6875 0.80859-0.082031 1.0859-0.019531 1.3281v1.3906l0.28906 1.6211-0.16797 1.2461 0.19922 1.0586 0.10938 1.082 0.019532 1.1328-0.035157 1.8594 0.082032 1.5586-0.41406 1.0195-1.0586 0.72266-1.3086 0.125-0.95703 0.50391 0.22656 1.0195 0.94531 1.0273 1.0312 0.61719 2.1914 1.2188 1.1523 1.6836 1.332 1.7656 0.93359 0.72656 0.082032 1.6406 0.39453 1.1641 1.0391 0.97656 1.207 1.1836 0.45703 1.1875 0.14453 1.1406-0.16406 1.5977-0.625 1.3945-1.5625 1.1562-1.0859 0.54297-2.1758 0.80078-1.5508 0.77734-0.86719 0.74219-0.94531 0.71484-1.1641 0.097656-1.6016-0.39062-2.0508-0.30859-1.043-0.23047-1.2188-0.30859-1.543 0.019531-1.1445 0.15234-1.0195 0.29297-1.0273 0.63672-0.76953 0.69531-1.1641 1.6406-0.73438 2.0977-0.36328 1.2031-0.64453 2.6484-2.2383 1.1289-0.69922 0.90234-0.30859 3.7578-0.53125 1.2539-0.65234 0.91406-0.92969 1.0469-1.0938 0.78125-0.98438 0.8125-1.0039 0.26953-1.1602 0.23438-1.1211 0.15234-0.89062 0.67969-0.36719 1.0039-0.36719 1.4102-0.69531 0.98438 0.11719 1.3945 0.65625 0.80859 0.52344 1.0469 0.26953 1.1211 0.17188 1.0039-0.19141 1.1602-0.42578 0.92578-1.1211 0.21484-1.4922 0.21484-1.125 1.5898-0.33984 1.0742 0.75391 2.0664 0.25 1.0469-0.19141 1.3711-0.15625 1.6055-0.17188 1.1172-3.6406 4.2148-1.0234 1.4883-0.10547 1.4883 1.5938 2.2578 0.35938 1.9766-0.17969 2.875-0.88672 2.1758-1.0117 1.7812-0.38281 1.7422-0.45703 1.1172-0.72656 1.0508-1.4102 1.4414-1.7773 1.0664-1.0664 1.5742-1.0195 0.45703-1.4219 0.41016-0.86328 1.2695-0.96875 0.50781-0.17969 1.125 0.10547 4.3047-0.16797 1.6484-1.2266 1.8359-1.2578 2.3711-0.28906 1.457-0.97266 2.043 0.09375 1.2383 2.1016 1.957 0.76953 1.3125-0.75 1.6914-2.1836 3.3594-3.75 2.3555-0.94531 0.59375-1.3359 1.5039-1.4453 1.3906-1.7852 0.45703-1.0859 0.49219-1.3555 1.1289-1.5195 1.8477-0.98438 1.3945 0.082031 1.9727-0.96484 1.168-1.8242 0.80078-0.78906 0.76953-0.83594 2.6406-0.0625 1.6602-0.24609 0.98828-1.4375 1.0664-1.6836 1.457-0.89062 1.1797-0.46094 1.0391-0.69922 1.5586-1.0273 1.0273-1.1484 0.082031-1.1914-0.125-1.8281-0.36719-1.2539 0.11328-1.1758 0.39453-0.91797 0.45703-0.65625 0.85156-0.71875 1.0664-1.0312 0.63672-1.4414 0.70312-2.1992 0.23828-1.0156 0.0625-1.1367 0.42188-1.668 0.76562-1 0.42578-1.0977 0.32812-0.68359 0.78516 0.34375 0.94922 0.14453 1.1953 0.94922 0.63672 0.41016 0.91797-1.6172 1.7969-0.22266 1.5391 0.082031 1.2734-0.45312 1.8477-0.90234 1.9102-2.1562 3.1016-0.98438 0.94141-0.71875 1.9727-0.94531 1.8672-1.3555 1.9922-0.82031 0.63672-2.8125 0.88281-1.1484 1.1875-0.49219 0.96484-1.4805 0.53125-2.3945-1.0195-2.6328 0.48828-1.2344 0.88281-0.73828 1.293-0.42969 1.0273-0.69922 0.88281-0.96484 0.49219-2.1953 0.28906-1.6055-0.76172-1.4922-1.5703-0.8125-0.66406-1.4141-0.66406-1.1992-0.75-0.77734-1.3828-0.35156-1.1211-0.8125-0.66406-1.0859 0.16406-1.1836-1.0547-1-1.9648-0.32812-1.2266-0.84375-0.77344-1.4688-0.83984-1.0781-0.74219-1.1211-0.63672-1.3633-0.62891-1.8711-0.51172-1.2773-1.1367-0.89844-0.74219-0.27344-0.99219-1.1484-1.2695-2.0352-1.7227-1.4258-0.28516-1.6367-1.2109-1.0703-0.55078-1.4414 0.55078-1.0703 0.83984-1.3789 0.24219-1.3477 0.23047-1.9062-0.64453-1.6992 0.32422-0.94922 0.46094-1-0.36328 0.25 1.3867-1.6133 0.71875-0.68359 1.1992-1.1016 0.015625-1.2852 0.11328-1.1328 0.55859-1.2578-0.37891-0.23438-1.2148-1.3867-2.1484-0.90625 0.59375-1.1484-0.75-0.94141-0.47266-1.0625-0.97656-1.3086-1.1719v-1.0273l-0.36328-1.043 0.53516-1.1406-0.47656-1.293-1.2656-0.39062-1.0352 0.38281-1.2695-1.0273-0.58594-1.1914-1.5195-0.74219-0.88672 0.49219 0.33594 0.99219 0.050781 1-1.207-0.19922-0.91406 0.45703-1.3203-0.035157-1.2266 0.42578-1.0352 0.17188-0.39453 1.2578-1.0547 0.64062-1.293-0.027344 0.30859-1.4844-0.87891-0.71484-0.30859-1.0703-1.3125-1.4062-0.47656-0.97266-1.1445 0.15234h-1.1328l-1.1133 0.58594-0.66406 0.82031-1.2734 0.57031-1.0273-0.35547-1.0273-0.085937-1.6133-0.25781-0.87891-0.80078-0.65625-1.7617-1.2969-0.76562-1.0234-0.12109-0.5625 0.90625-1.2266-0.86328-1.0664-0.68359-1.4258 0.18359-1.7266-0.33594-1.6289 0.85156-1.5508 0.17188-1.5117 0.35547-1.0859 0.49219-1.1328-0.39844-1.6445-0.17188-1.4688 0.60547 0.050782 1.4805 0.44141 1.3398-1.6055 0.75-1.1719-0.65625-0.77734-0.91406-1.6914 0.74219-1.1641 0.42969-1.043 0.11328-1.3398-0.09375-1.0781-0.39062-2.9961-0.75-1.2656-0.16406-1.332 0.007812-1.5234-1.1289-1.0859-0.83203-1.1055-0.29297-1.0859 0.5-1.3125 0.4375-1.1289 0.25-1.5664 0.59766-1.0703 0.55859-1.1758 0.47656-0.99609 0.53516-1.5977 1.5078-2.0156 0.64844-1.3164 0.30859-1.3711 0.83984-1.875 0.98047-0.98047 0.64453-1.9336 0.14062-1.6797-0.19531-1.4297 0.14062-1.1758 0.86719-0.78516 0.73047-0.86719 0.55859-1.4297 0.39062-1.457 0.36719-1.2617 0.30469-1.2891 0.058593-1.6797-0.28125-1.4297-0.36328-0.875-1.3672-0.99219-0.92578-1.8828-1.5742-0.68359-2.3594-1.2383-1.793-1.0781-1.2383-2.1328-1.4062-1.7031-0.58594-0.90625-0.74609-1.0625-0.63672-1.0664-0.53516-1.8086-0.95703-0.53516-1.3828 0.21484-1.2266 0.37109-1.0625 1.4375-1.1289 1.4375-0.26562 1.0117-0.10938 1.332-0.21094 1.5977-0.32031 0.37109-1.9688 0.21484-1.5977 0.79688-0.85156 1.3828-1.0117 1.0117-0.42578 1.7031-0.69141 1.0664-0.58594 1.1172-0.64062 1.0117-0.63672 1.3828-1.0664 1.5469-1.0625 1.168-0.90625 1.1211-0.66406 1.168-0.96094 0.96094-0.63672 1.4375-0.58594 1.8086-0.69141 2.7617-0.98828 4.7969-3.2734 0.80469-1.5312 0.62891-1.5312-0.90234-2.0469-0.87891-1.3086 0.48438-2.0195 0.90625-1.0703 1.0352-0.55078 0.92188-0.49219 2.2031-1.4609 1.2891-0.70703 0.67188-1.7266 2.4766-1.7891 1.3047-0.75391 1.0625-1.082-2.1875 0.61328-1.5078 0.22656-1.6875 0.14453-0.26953-1.7031 0.054687-1.0664-0.42578-1.543-1.9688-0.32031-2.0234-0.050781-1.7578-0.32031-2.2344-0.74609-0.85156-0.64062-1.1719-0.63672-0.48047-1.332-0.92188-0.55859-1.3398 0.019531-1.8047-0.39062-1.5273-0.47656-1.1641-0.98828-1.707-1.0117-0.90234-0.48047-0.69141-0.90234-0.74609-0.96094-1.2266-1.0625-0.74219-1.4375 0.21094-1.3828 0.69141-1.0664 0.53516-1.2773 0.95703-0.32031 1.3828-0.69141 2.0195-0.69922 1.3359-0.20703 1.8633-1.2773 0.95703-0.85156 1.3828-1.7578 0.41797-1.6055 0.65234-1.1367 1.6562-1.9414 1.3203-1.6328 1.1172-1.7383 0.47656-1.3008 0.39062-1.4688 0.91016-1.5508 1.1992-0.92578 1.3906-0.76953 1.832-0.5 0.99609 0.22266 1.1094-0.054687 1.5547-1.9961 0.44531-1 0.71875-1.2773 1-1.4414 1.2891-1.2891 1.4883-2.2305h2.375l1.5703-0.074219 1.1133-0.48047 1.4805-0.66797 0.89062-1.2578 2.4688-1.9023 3.5156-2.3359 1.3516-0.32031 0.89062-0.81641 0.92578-1.1094 0.67188-1.6797 0.93359-0.4375 2.1914-0.63672 2.168-1.4648 0.89062-0.59375 0.91016-0.75391 2.0156-1.8086 0.89062-0.92578 1-0.37109 1.1484-0.55469 0.8125-0.89062 0.76562-1.3203 1.2734-0.86328 1.5938-1.2227 1.9062-1.5312 1.4297-0.39844 0.92578-0.44141 1.5195-0.81641 2.9258-1.1133 1.5195-0.66406 1.1094-0.51953 2.5664-0.99219 1.457-0.50781 0.95703-0.80078 1.043-1.5625 1.7969-1.4062 1.7656-1.5508 0.90234-0.73828 1.6406-1.1484 1.3125-0.32812 1.3906-0.41016 1.9922-0.13281 1.7812-0.48828 1.168-0.49219 1.5391-1.1094 1.043-2.2734 0.80078-0.61719 0.30859-1.2891-0.19922-1.5117-1.2305-0.86328-0.73438-0.85938-0.015625-1.332 1.2383-2.4609 0.29297-1.3828 0.20312-1.1758 0.70312-1.2852 1.2422-2.1914 0.86719-1.8164 1.2109-1.9727 1.0703-1.043 1.3242-0.62109 2.875-2.5625 0.96094-1.043 0.78906-1.2148 0.38281-2.1133-0.46875-1.832-0.42188-1.4961 0.78906-1.1562 1.918-1.9453 0.5625-1.125 0.3125-2.0977-0.41797-2.4688-0.09375-1.2266 0.39062-0.94922 0.41016-1.6094 0.50781-2.4023 1.4492-2.0898 0.48828-1.7266-0.90625-2.25-1.125-2.7891 0.16016-1.668 0.64453-2.6328 0.92969-1.3086 1.1953-0.85156 1.082-1.1953 0.64062-1.0547 1.6328-1.4648 0.92969-0.66016 1.1016-0.87891 1.2734-0.41797 2.0977-0.32812 2.0117-0.28516 1.7031-0.1875 1.1914-0.47266 0.80078-1.1484 2.957-1.25 2.6875-1.5 1.8086-1.5195 2.5977-2.6641 0.96484-0.61328 0.72656-1.2695 0.69531-1.3359 0.19922-1.8398-0.75781-1.7227 0.25391-2.0547 0.28125-1.25 0.53125-0.96484 2.0312-1.9023 1.6289-1.1289 1.8789-0.70312 1.6211-0.79297 1.0039-1.8789 0.49219-0.95312 0.85938-0.79688 3.0234-1.3672 1.1328-1.0195 0.27734-1.3047 0.125-1.543 0.88672-1.0039 1.75-1.9883 0.71484-1.4141 0.03125-1.1641 0.03125-1.1953-1.0664-2.3867-0.74609-1.7969-0.23828-1.4023-0.78125-1.0039-1.4297-0.44531-1.8867-0.76562-2.1406-1.5391-0.90625-0.65234-0.28906-1.4648 0.54297-2.6914 0.19141-1.5273-0.03125-1.1758-0.33984-1.2656-0.125-1.2031-0.52344-1.3984-0.16016-2.4336-0.15625-1.4023-1.3398-1.0039-1.8438-3.457-0.95703-2.3906-1.3789-0.33984-3.0156-0.23047-2.3984-0.45703-1.1055-0.62891-0.57031-0.98828-0.4375-2-0.70312-1.1758 0.50391-1.293 1.1094-1.3789 0.72656-1.2109 0.72266-1.9062 0.13281-1.4141-0.18359-2.3398-0.50391-2.1211-0.71484-1.3047-1.0039-2.332-0.61719-1.4414 0.58203-2.0117 1.1133-0.60547 1.1602-0.42188 2.4258-0.51953 2.0547-0.085938 1.1484 0.21875 1.4023 0.49609 1.5273 0.12891 5.0156-0.15234 1.5156 0.21875 1.1797 0.55469 1.0664 1.4023 1 0.63281 1.1328 1.7031 1.043 1.1445 0.80469 1.1914 0.99609 0.71094 1.4805 0.28906 1.8711-0.035156 1.0625-0.019532 2.4727-1.0898 1.1289 0.67188 1.6992 1.207 1.2695 0.79688 2.9414-0.58984 2.1211-0.15234 1.5-0.50391 1.1094-0.15234 1.3828-0.47266 1.2812-0.18359 2.3203 0.035157 1.5664-0.20312 1.2812-0.38672 1.5977-0.21875 1.1133-0.4375 0.94531-0.91797 0.71484-1.2969 0.89453-1.7109 0.32422-1.6836 0.15234-1.1641 0.66797-1.0234 1.0664-0.67969 1.4648-0.73047 1.8867-0.57422z" fill="#0a5394" fill-rule="evenodd"/>
<path d="m373.8 160.52 0.5625 0.35547 1.8867 0.71094 1 0.47656 1.3008 0.28906 1.7617-0.36719 1.6484 0.82031 1.25 0.99219 1.625 0.30078 1.1953 0.23828 1.5117 0.71094 1.4062 0.003907 1.3516 1.2852-0.8125 1.2148 0.67578 1.3516 0.94922 1.7578 1.5547 0.59375 1.6836 0.082031 1.8867-0.61328 1.3984 0.14062 1.3359 0.83594 2.3398 0.3125 4.8477 0.3125 6.1055 0.023438 1.3203-0.17969 1.3906-0.33203 1.4141-0.125 0.94531 0.59375 1.3867-0.097656 1.4375-0.078125 1.6719-0.37109 0.89062-0.47656 0.96875-0.48438 1.6719 0.27734 1.3945-0.11328 1.5312 0.64453 0.70312 0.96094 0.82031 1.6445 0.5 1.1562 0.83203 1.0625 1.1602 1.0547 0.58594 1.2109-0.66797 1.5586-0.35156 1.1211 0.41406 1.0781 0.85547 1.4766 0.0625 1.4336-0.1875 1.457-1.0625 1.7656-0.82812 1.1211-1.0039 1.3555 0.34375 1.6172 1.0312 0.78516 0.47266 1.0469 0.039063 1.1484-0.55078 1.2539-0.125 1.7031-0.73047 0.85547-0.29688 1.4648-2.0508 3.0781-1.8906 1.4805-1.3086 1.0234-1.168 1.3945-0.41797 1.2344v2.7539l0.45312 1.0039 0.55078 1.0234 0.71484 1.3203 0.78125 1.1172 1.2891 1.3281 1.1641 0.53906 1.1445 0.68359-0.35547 1.5625 0.054687 1.1055 1.6953 2.7539 1.4375 1.7656 1.2461 0.96484 2.2227 1.0859 1.1914 0.98828 1.0469 0.75781 1.418 0.82031 1.2109 1.0078 3.0586 1.0273h1.293l1.0469 0.32812 0.94531 0.75781-0.65625 1.5273-0.41016 2.0156-0.50391 1.6641-0.91406 1.0977-1.8477 0.92969-0.94141 0.76172-0.52344 1.2461-0.39062 1.082-0.5625 1.4531-0.45703 1.1641-0.70703 1.5156-0.375 1.3086-0.45703 1.4961 0.042969 1.7461 1.1016 2.0781 0.6875 0.93359 0.95312 1.4961 0.6875 1.2695 0.33203 0.95703 0.015625 1.2422-0.97266 1.457-0.93359 0.89453-0.48047 0.97656-0.082031 1.1016 0.25781 1.0508 0.67969 1.8789 0.082031 1.1836 0.20703 0.99609-0.16797 0.99609-0.082032 1.7891 0.41406 1.2656 0.375 1.1289 0.054687 1.2812-0.27734 1.4609 2.3438 2.4414 0.47656 1.5078 0.28516 1.4531 0.52734 1.9453 1.0469 1.1914 1.293 0.82031 0.76172 0.67969 0.78125 1.5781 0.18359 1.1289-0.027343 1.1562 0.26172 1.3438 0.20703 0.99609 0.042968 1.1211-0.4375 1.2695-0.98047 0.93359-1.0977 0.95703-0.6875 0.80859-0.082031 1.0859-0.019531 1.3281v1.3906l0.28906 1.6211-0.16797 1.2461 0.19922 1.0586 0.10938 1.082 0.019532 1.1328-0.035157 1.8594 0.082032 1.5586-0.41406 1.0195-1.0586 0.72266-1.3086 0.125-0.95703 0.50391 0.22656 1.0195 0.94531 1.0273 1.0312 0.61719 2.1914 1.2188 1.1523 1.6836 1.332 1.7656 0.93359 0.72656 0.082032 1.6406 0.39453 1.1641 1.0391 0.97656 1.207 1.1836 0.45703 1.1875 0.14453 1.1406-0.16406 1.5977-0.625 1.3945-1.5625 1.1562-1.0859 0.54297-2.1758 0.80078-1.5508 0.77734-0.86719 0.74219-0.94531 0.71484-1.1641 0.097656-1.6016-0.39062-2.0508-0.30859-1.043-0.23047-1.2188-0.30859-1.543 0.019531-1.1445 0.15234-1.0195 0.29297-1.0273 0.63672-0.76953 0.69531-1.1641 1.6406-0.73438 2.0977-0.36328 1.2031-0.64453 2.6484-2.2383 1.1289-0.69922 0.90234-0.30859 3.7578-0.53125 1.2539-0.65234 0.91406-0.92969 1.0469-1.0938 0.78125-0.98438 0.8125-1.0039 0.26953-1.1602 0.23438-1.1211 0.15234-0.89062 0.67969-0.36719 1.0039-0.36719 1.4102-0.69531 0.98438 0.11719 1.3945 0.65625 0.80859 0.52344 1.0469 0.26953 1.1211 0.17188 1.0039-0.19141 1.1602-0.42578 0.92578-1.1211 0.21484-1.4922 0.21484-1.125 1.5898-0.33984 1.0742 0.75391 2.0664 0.25 1.0469-0.19141 1.3711-0.15625 1.6055-0.17188 1.1172-3.6406 4.2148-1.0234 1.4883-0.10547 1.4883 1.5938 2.2578 0.35938 1.9766-0.17969 2.875-0.88672 2.1758-1.0117 1.7812-0.38281 1.7422-0.45703 1.1172-0.72656 1.0508-1.4102 1.4414-1.7773 1.0664-1.0664 1.5742-1.0195 0.45703-1.4219 0.41016-0.86328 1.2695-0.96875 0.50781-0.17969 1.125 0.10547 4.3047-0.16797 1.6484-1.2266 1.8359-1.2578 2.3711-0.28906 1.457-0.97266 2.043 0.09375 1.2383 2.1016 1.957 0.76953 1.3125-0.75 1.6914-2.1836 3.3594-3.75 2.3555-0.94531 0.59375-1.3359 1.5039-1.4453 1.3906-1.7852 0.45703-1.0859 0.49219-1.3555 1.1289-1.5195 1.8477-0.98438 1.3945 0.082031 1.9727-0.96484 1.168-1.8242 0.80078-0.78906 0.76953-0.83594 2.6406-0.0625 1.6602-0.24609 0.98828-1.4375 1.0664-1.6836 1.457-0.89062 1.1797-0.46094 1.0391-0.69922 1.5586-1.0273 1.0273-1.1484 0.082031-1.1914-0.125-1.8281-0.36719-1.2539 0.11328-1.1758 0.39453-0.91797 0.45703-0.65625 0.85156-0.71875 1.0664-1.0312 0.63672-1.4414 0.70312-2.1992 0.23828-1.0156 0.0625-1.1367 0.42188-1.668 0.76562-1 0.42578-1.0977 0.32812-0.68359 0.78516 0.34375 0.94922 0.14453 1.1953 0.94922 0.63672 0.41016 0.91797-1.6172 1.7969-0.22266 1.5391 0.082031 1.2734-0.45312 1.8477-0.90234 1.9102-2.1562 3.1016-0.98438 0.94141-0.71875 1.9727-0.94531 1.8672-1.3555 1.9922-0.82031 0.63672-2.8125 0.88281-1.1484 1.1875-0.49219 0.96484-1.4805 0.53125-2.3945-1.0195-2.6328 0.48828-1.2344 0.88281-0.73828 1.293-0.42969 1.0273-0.69922 0.88281-0.96484 0.49219-2.1953 0.28906-1.6055-0.76172-1.4922-1.5703-0.8125-0.66406-1.4141-0.66406-1.1992-0.75-0.77734-1.3828-0.35156-1.1211-0.8125-0.66406-1.0859 0.16406-1.1836-1.0547-1-1.9648-0.32812-1.2266-0.84375-0.77344-1.4688-0.83984-1.0781-0.74219-1.1211-0.63672-1.3633-0.62891-1.8711-0.51172-1.2773-1.1367-0.89844-0.74219-0.27344-0.99219-1.1484-1.2695-2.0352-1.7227-1.4258-0.28516-1.6367-1.2109-1.0703-0.55078-1.4414 0.55078-1.0703 0.83984-1.3789 0.24219-1.3477 0.23047-1.9062-0.64453-1.6992 0.32422-0.94922 0.46094-1-0.36328 0.25 1.3867-1.6133 0.71875-0.68359 1.1992-1.1016 0.015625-1.2852 0.11328-1.1328 0.55859-1.2578-0.37891-0.23438-1.2148-1.3867-2.1484-0.90625 0.59375-1.1484-0.75-0.94141-0.47266-1.0625-0.97656-1.3086-1.1719v-1.0273l-0.36328-1.043 0.53516-1.1406-0.47656-1.293-1.2656-0.39062-1.0352 0.38281-1.2695-1.0273-0.58594-1.1914-1.5195-0.74219-0.88672 0.49219 0.33594 0.99219 0.050781 1-1.207-0.19922-0.91406 0.45703-1.3203-0.035157-1.2266 0.42578-1.0352 0.17188-0.39453 1.2578-1.0547 0.64062-1.293-0.027344 0.30859-1.4844-0.87891-0.71484-0.30859-1.0703-1.3125-1.4062-0.47656-0.97266-1.1445 0.15234h-1.1328l-1.1133 0.58594-0.66406 0.82031-1.2734 0.57031-1.0273-0.35547-1.0273-0.085937-1.6133-0.25781-0.87891-0.80078-0.65625-1.7617-1.2969-0.76562-1.0234-0.12109-0.5625 0.90625-1.2266-0.86328-1.0664-0.68359-1.4258 0.18359-1.7266-0.33594-1.6289 0.85156-1.5508 0.17188-1.5117 0.35547-1.0859 0.49219-1.1328-0.39844-1.6445-0.17188-1.4688 0.60547 0.050782 1.4805 0.44141 1.3398-1.6055 0.75-1.1719-0.65625-0.77734-0.91406-1.6914 0.74219-1.1641 0.42969-1.043 0.11328-1.3398-0.09375-1.0781-0.39062-2.9961-0.75-1.2656-0.16406-1.332 0.007812-1.5234-1.1289-1.0859-0.83203-1.1055-0.29297-1.0859 0.5-1.3125 0.4375-1.1289 0.25-1.5664 0.59766-1.0703 0.55859-1.1758 0.47656-0.99609 0.53516-1.5977 1.5078-2.0156 0.64844-1.3164 0.30859-1.3711 0.83984-1.875 0.98047-0.98047 0.64453-1.9336 0.14062-1.6797-0.19531-1.4297 0.14062-1.1758 0.86719-0.78516 0.73047-0.86719 0.55859-1.4297 0.39062-1.457 0.36719-1.2617 0.30469-1.2891 0.058593-1.6797-0.28125-1.4297-0.36328-0.875-1.3672-0.99219-0.92578-1.8828-1.5742-0.68359-2.3594-1.2383-1.793-1.0781-1.2383-2.1328-1.4062-1.7031-0.58594-0.90625-0.74609-1.0625-0.63672-1.0664-0.53516-1.8086-0.95703-0.53516-1.3828 0.21484-1.2266 0.37109-1.0625 1.4375-1.1289 1.4375-0.26562 1.0117-0.10938 1.332-0.21094 1.5977-0.32031 0.37109-1.9688 0.21484-1.5977 0.79688-0.85156 1.3828-1.0117 1.0117-0.42578 1.7031-0.69141 1.0664-0.58594 1.1172-0.64062 1.0117-0.63672 1.3828-1.0664 1.5469-1.0625 1.168-0.90625 1.1211-0.66406 1.168-0.96094 0.96094-0.63672 1.4375-0.58594 1.8086-0.69141 2.7617-0.98828 4.7969-3.2734 0.80469-1.5312 0.62891-1.5312-0.90234-2.0469-0.87891-1.3086 0.48438-2.0195 0.90625-1.0703 1.0352-0.55078 0.92188-0.49219 2.2031-1.4609 1.2891-0.70703 0.67188-1.7266 2.4766-1.7891 1.3047-0.75391 1.0625-1.082-2.1875 0.61328-1.5078 0.22656-1.6875 0.14453-0.26953-1.7031 0.054687-1.0664-0.42578-1.543-1.9688-0.32031-2.0234-0.050781-1.7578-0.32031-2.2344-0.74609-0.85156-0.64062-1.1719-0.63672-0.48047-1.332-0.92188-0.55859-1.3398 0.019531-1.8047-0.39062-1.5273-0.47656-1.1641-0.98828-1.707-1.0117-0.90234-0.48047-0.69141-0.90234-0.74609-0.96094-1.2266-1.0625-0.74219-1.4375 0.21094-1.3828 0.69141-1.0664 0.53516-1.2773 0.95703-0.32031 1.3828-0.69141 2.0195-0.69922 1.3359-0.20703 1.8633-1.2773 0.95703-0.85156 1.3828-1.7578 0.41797-1.6055 0.65234-1.1367 1.6562-1.9414 1.3203-1.6328 1.1172-1.7383 0.47656-1.3008 0.39062-1.4688 0.91016-1.5508 1.1992-0.92578 1.3906-0.76953 1.832-0.5 0.99609 0.22266 1.1094-0.054687 1.5547-1.9961 0.44531-1 0.71875-1.2773 1-1.4414 1.2891-1.2891 1.4883-2.2305h2.375l1.5703-0.074219 1.1133-0.48047 1.4805-0.66797 0.89062-1.2578 2.4688-1.9023 3.5156-2.3359 1.3516-0.32031 0.89062-0.81641 0.92578-1.1094 0.67188-1.6797 0.93359-0.4375 2.1914-0.63672 2.168-1.4648 0.89062-0.59375 0.91016-0.75391 2.0156-1.8086 0.89062-0.92578 1-0.37109 1.1484-0.55469 0.8125-0.89062 0.76562-1.3203 1.2734-0.86328 1.5938-1.2227 1.9062-1.5312 1.4297-0.39844 0.92578-0.44141 1.5195-0.81641 2.9258-1.1133 1.5195-0.66406 1.1094-0.51953 2.5664-0.99219 1.457-0.50781 0.95703-0.80078 1.043-1.5625 1.7969-1.4062 1.7656-1.5508 0.90234-0.73828 1.6406-1.1484 1.3125-0.32812 1.3906-0.41016 1.9922-0.13281 1.7812-0.48828 1.168-0.49219 1.5391-1.1094 1.043-2.2734 0.80078-0.61719 0.30859-1.2891-0.19922-1.5117-1.2305-0.86328-0.73438-0.85938-0.015625-1.332 1.2383-2.4609 0.29297-1.3828 0.20312-1.1758 0.70312-1.2852 1.2422-2.1914 0.86719-1.8164 1.2109-1.9727 1.0703-1.043 1.3242-0.62109 2.875-2.5625 0.96094-1.043 0.78906-1.2148 0.38281-2.1133-0.46875-1.832-0.42188-1.4961 0.78906-1.1562 1.918-1.9453 0.5625-1.125 0.3125-2.0977-0.41797-2.4688-0.09375-1.2266 0.39062-0.94922 0.41016-1.6094 0.50781-2.4023 1.4492-2.0898 0.48828-1.7266-0.90625-2.25-1.125-2.7891 0.16016-1.668 0.64453-2.6328 0.92969-1.3086 1.1953-0.85156 1.082-1.1953 0.64062-1.0547 1.6328-1.4648 0.92969-0.66016 1.1016-0.87891 1.2734-0.41797 2.0977-0.32812 2.0117-0.28516 1.7031-0.1875 1.1914-0.47266 0.80078-1.1484 2.957-1.25 2.6875-1.5 1.8086-1.5195 2.5977-2.6641 0.96484-0.61328 0.72656-1.2695 0.69531-1.3359 0.19922-1.8398-0.75781-1.7227 0.25391-2.0547 0.28125-1.25 0.53125-0.96484 2.0312-1.9023 1.6289-1.1289 1.8789-0.70312 1.6211-0.79297 1.0039-1.8789 0.49219-0.95312 0.85938-0.79688 3.0234-1.3672 1.1328-1.0195 0.27734-1.3047 0.125-1.543 0.88672-1.0039 1.75-1.9883 0.71484-1.4141 0.03125-1.1641 0.03125-1.1953-1.0664-2.3867-0.74609-1.7969-0.23828-1.4023-0.78125-1.0039-1.4297-0.44531-1.8867-0.76562-2.1406-1.5391-0.90625-0.65234-0.28906-1.4648 0.54297-2.6914 0.19141-1.5273-0.03125-1.1758-0.33984-1.2656-0.125-1.2031-0.52344-1.3984-0.16016-2.4336-0.15625-1.4023-1.3398-1.0039-1.8438-3.457-0.95703-2.3906-1.3789-0.33984-3.0156-0.23047-2.3984-0.45703-1.1055-0.62891-0.57031-0.98828-0.4375-2-0.70312-1.1758 0.50391-1.293 1.1094-1.3789 0.72656-1.2109 0.72266-1.9062 0.13281-1.4141-0.18359-2.3398-0.50391-2.1211-0.71484-1.3047-1.0039-2.332-0.61719-1.4414 0.58203-2.0117 1.1133-0.60547 1.1602-0.42188 2.4258-0.51953 2.0547-0.085938 1.1484 0.21875 1.4023 0.49609 1.5273 0.12891 5.0156-0.15234 1.5156 0.21875 1.1797 0.55469 1.0664 1.4023 1 0.63281 1.1328 1.7031 1.043 1.1445 0.80469 1.1914 0.99609 0.71094 1.4805 0.28906 1.8711-0.035156 1.0625-0.019532 2.4727-1.0898 1.1289 0.67188 1.6992 1.207 1.2695 0.79688 2.9414-0.58984 2.1211-0.15234 1.5-0.50391 1.1094-0.15234 1.3828-0.47266 1.2812-0.18359 2.3203 0.035157 1.5664-0.20312 1.2812-0.38672 1.5977-0.21875 1.1133-0.4375 0.94531-0.91797 0.71484-1.2969 0.89453-1.7109 0.32422-1.6836 0.15234-1.1641 0.66797-1.0234 1.0664-0.67969 1.4648-0.73047 1.8867-0.57422 0.69922 0.15234" fill="none" stroke="#fff" stroke-linecap="round" stroke-linejoin="round" stroke-miterlimit="10"/>
<path d="m343.24 263.41c0 3.5898-2.9102 6.5-6.5 6.5-3.5898 0-6.5-2.9102-6.5-6.5 0-3.5898 2.9102-6.5 6.5-6.5 3.5898 0 6.5 2.9102 6.5 6.5" fill="#28c028" fill-rule="evenodd" stroke="#000" stroke-linecap="round" stroke-linejoin="round" stroke-miterlimit="10"/>
<path d="m198.55 251.37 3.2344 1.0156c-0.5 1.793-1.3281 3.125-2.4844 4-1.1484 0.875-2.6016 1.3125-4.3594 1.3125-2.1875 0-3.9844-0.74219-5.3906-2.2344-1.4062-1.5-2.1094-3.5469-2.1094-6.1406 0-2.7383 0.70312-4.8633 2.1094-6.375 1.4141-1.5195 3.2812-2.2812 5.5938-2.2812 2.0078 0 3.6445 0.60156 4.9062 1.7969 0.75 0.69922 1.3125 1.7109 1.6875 3.0312l-3.2969 0.78125c-0.19922-0.85156-0.60547-1.5234-1.2188-2.0156-0.61719-0.5-1.3672-0.75-2.25-0.75-1.2188 0-2.2109 0.4375-2.9688 1.3125-0.76172 0.875-1.1406 2.2969-1.1406 4.2656 0 2.0742 0.375 3.5547 1.125 4.4375 0.75 0.88672 1.7227 1.3281 2.9219 1.3281 0.88281 0 1.6445-0.28125 2.2812-0.84375 0.63281-0.5625 1.0859-1.4414 1.3594-2.6406zm20.922 6.0469h-3.6094l-1.4375-3.7344h-6.5781l-1.3594 3.7344h-3.5312l6.4062-16.469h3.5156zm-6.1094-6.5156-2.2812-6.1094-2.2188 6.1094zm7.9062 6.5156v-16.469h3.2344l6.75 11v-11h3.0781v16.469h-3.3281l-6.6406-10.734v10.734zm4.125-17.375h-1.4375v-0.40625c0-0.78125 0.1875-1.3828 0.5625-1.8125 0.38281-0.42578 0.875-0.64062 1.4688-0.64062 0.26953 0 0.51562 0.03125 0.73438 0.09375 0.22656 0.054687 0.64062 0.21484 1.2344 0.48438 0.59375 0.26172 1.0547 0.39062 1.3906 0.39062 0.23828 0 0.4375-0.070313 0.59375-0.21875 0.16406-0.15625 0.27344-0.40625 0.32812-0.75h1.4531c-0.011718 1.0117-0.20312 1.7344-0.57812 2.1719-0.36719 0.42969-0.83984 0.64062-1.4219 0.64062-0.25 0-0.5-0.023438-0.75-0.078125-0.17969-0.039063-0.60938-0.19141-1.2969-0.45312-0.6875-0.26953-1.1875-0.40625-1.5-0.40625-0.24219 0-0.42969 0.074218-0.5625 0.21875-0.13672 0.14844-0.21094 0.40234-0.21875 0.76562zm27.297 17.375h-3.6094l-1.4375-3.7344h-6.5781l-1.3594 3.7344h-3.5312l6.4062-16.469h3.5156zm-6.1094-6.5156-2.2812-6.1094-2.2188 6.1094zm12.078 6.5156-5.8906-16.469h3.6094l4.1719 12.188 4.0312-12.188h3.5156l-5.8906 16.469zm11.141 0v-16.469h12.203v2.7969h-8.875v3.6406h8.2656v2.7812h-8.2656v4.4688h9.2031v2.7812zm15.359 0v-16.469h7c1.7578 0 3.0352 0.15234 3.8281 0.45312 0.80078 0.29297 1.4414 0.82031 1.9219 1.5781 0.47656 0.75 0.71875 1.6172 0.71875 2.5938 0 1.2305-0.36719 2.25-1.0938 3.0625-0.73047 0.80469-1.8203 1.3086-3.2656 1.5156 0.71875 0.41797 1.3125 0.88281 1.7812 1.3906 0.46875 0.5 1.0977 1.3867 1.8906 2.6562l2.0156 3.2188h-3.9688l-2.4062-3.5781c-0.85547-1.2812-1.4375-2.0859-1.75-2.4219-0.3125-0.33203-0.64844-0.5625-1-0.6875-0.35547-0.125-0.91406-0.1875-1.6719-0.1875h-0.67188v6.875zm3.3281-9.5h2.4531c1.5938 0 2.5859-0.066407 2.9844-0.20312 0.39453-0.13281 0.70312-0.36328 0.92188-0.6875 0.22656-0.33203 0.34375-0.75 0.34375-1.25 0-0.55078-0.14844-0.99219-0.4375-1.3281-0.29297-0.34375-0.71094-0.5625-1.25-0.65625-0.27344-0.03125-1.0781-0.046875-2.4219-0.046875h-2.5938zm28.109 9.5h-3.6094l-1.4375-3.7344h-6.5781l-1.3594 3.7344h-3.5312l6.4062-16.469h3.5156zm-6.1094-6.5156-2.2812-6.1094-2.2188 6.1094zm7.9688 6.5156v-16.328h3.3281v13.547h8.2656v2.7812zm0 0" fill="none" stroke="#fff" stroke-linecap="round" stroke-linejoin="round" stroke-miterlimit="10" stroke-width="2"/>
<path d="m198.55 251.37 3.2344 1.0156c-0.5 1.793-1.3281 3.125-2.4844 4-1.1484 0.875-2.6016 1.3125-4.3594 1.3125-2.1875 0-3.9844-0.74219-5.3906-2.2344-1.4062-1.5-2.1094-3.5469-2.1094-6.1406 0-2.7383 0.70312-4.8633 2.1094-6.375 1.4141-1.5195 3.2812-2.2812 5.5938-2.2812 2.0078 0 3.6445 0.60156 4.9062 1.7969 0.75 0.69922 1.3125 1.7109 1.6875 3.0312l-3.2969 0.78125c-0.19922-0.85156-0.60547-1.5234-1.2188-2.0156-0.61719-0.5-1.3672-0.75-2.25-0.75-1.2188 0-2.2109 0.4375-2.9688 1.3125-0.76172 0.875-1.1406 2.2969-1.1406 4.2656 0 2.0742 0.375 3.5547 1.125 4.4375 0.75 0.88672 1.7227 1.3281 2.9219 1.3281 0.88281 0 1.6445-0.28125 2.2812-0.84375 0.63281-0.5625 1.0859-1.4414 1.3594-2.6406zm20.922 6.0469h-3.6094l-1.4375-3.7344h-6.5781l-1.3594 3.7344h-3.5312l6.4062-16.469h3.5156zm-6.1094-6.5156-2.2812-6.1094-2.2188 6.1094zm7.9062 6.5156v-16.469h3.2344l6.75 11v-11h3.0781v16.469h-3.3281l-6.6406-10.734v10.734zm4.125-17.375h-1.4375v-0.40625c0-0.78125 0.1875-1.3828 0.5625-1.8125 0.38281-0.42578 0.875-0.64062 1.4688-0.64062 0.26953 0 0.51562 0.03125 0.73438 0.09375 0.22656 0.054687 0.64062 0.21484 1.2344 0.48438 0.59375 0.26172 1.0547 0.39062 1.3906 0.39062 0.23828 0 0.4375-0.070313 0.59375-0.21875 0.16406-0.15625 0.27344-0.40625 0.32812-0.75h1.4531c-0.011718 1.0117-0.20312 1.7344-0.57812 2.1719-0.36719 0.42969-0.83984 0.64062-1.4219 0.64062-0.25 0-0.5-0.023438-0.75-0.078125-0.17969-0.039063-0.60938-0.19141-1.2969-0.45312-0.6875-0.26953-1.1875-0.40625-1.5-0.40625-0.24219 0-0.42969 0.074218-0.5625 0.21875-0.13672 0.14844-0.21094 0.40234-0.21875 0.76562zm27.297 17.375h-3.6094l-1.4375-3.7344h-6.5781l-1.3594 3.7344h-3.5312l6.4062-16.469h3.5156zm-6.1094-6.5156-2.2812-6.1094-2.2188 6.1094zm12.078 6.5156-5.8906-16.469h3.6094l4.1719 12.188 4.0312-12.188h3.5156l-5.8906 16.469zm11.141 0v-16.469h12.203v2.7969h-8.875v3.6406h8.2656v2.7812h-8.2656v4.4688h9.2031v2.7812zm15.359 0v-16.469h7c1.7578 0 3.0352 0.15234 3.8281 0.45312 0.80078 0.29297 1.4414 0.82031 1.9219 1.5781 0.47656 0.75 0.71875 1.6172 0.71875 2.5938 0 1.2305-0.36719 2.25-1.0938 3.0625-0.73047 0.80469-1.8203 1.3086-3.2656 1.5156 0.71875 0.41797 1.3125 0.88281 1.7812 1.3906 0.46875 0.5 1.0977 1.3867 1.8906 2.6562l2.0156 3.2188h-3.9688l-2.4062-3.5781c-0.85547-1.2812-1.4375-2.0859-1.75-2.4219-0.3125-0.33203-0.64844-0.5625-1-0.6875-0.35547-0.125-0.91406-0.1875-1.6719-0.1875h-0.67188v6.875zm3.3281-9.5h2.4531c1.5938 0 2.5859-0.066407 2.9844-0.20312 0.39453-0.13281 0.70312-0.36328 0.92188-0.6875 0.22656-0.33203 0.34375-0.75 0.34375-1.25 0-0.55078-0.14844-0.99219-0.4375-1.3281-0.29297-0.34375-0.71094-0.5625-1.25-0.65625-0.27344-0.03125-1.0781-0.046875-2.4219-0.046875h-2.5938zm28.109 9.5h-3.6094l-1.4375-3.7344h-6.5781l-1.3594 3.7344h-3.5312l6.4062-16.469h3.5156zm-6.1094-6.5156-2.2812-6.1094-2.2188 6.1094zm7.9688 6.5156v-16.328h3.3281v13.547h8.2656v2.7812z" fill-rule="evenodd"/>
</g>
</svg>
