<?xml version="1.0" encoding="UTF-8"?>
<svg width="500pt" height="410pt" version="1.1" viewBox="0 0 500 410" xmlns="http://www.w3.org/2000/svg">
<g id="a">
<rect width="500" height="410" fill="none"/>
<path d="m179.66 37.824v0.035156l0.1875 1.0234 0.09375 1.0195 0.88672 0.64062 1.0898 0.035156 0.71094 0.75391 0.80078 0.60547 1.0586 0.13672 0.93359 0.52734 0.75391 0.80859 0.95703 0.33594 0.95703 0.3125-0.28516 1.0859-0.054688 1.1094-0.29297 1.0156 0.64062 0.875 0.85156 0.78125 0.75781 0.77344 0.48047 1.0273 0.99219 0.17969 0.96484-0.65625 0.90234 0.44922 0.054688 1.1328 0.53516 0.85156 0.78125 0.80469 0.37109 1.0781 1.0273-0.019531 1.0352 0.011719 1.0156 0.35938 0.94141 0.35156 1.0664 0.26172 0.97656 0.33984 0.97656 0.22266 0.48047 0.92578 1.0039-0.33203 0.98828 0.33203-0.015625 1.0078 0.89453 0.57422 0.89453 0.49219 0.83984 0.58594 0.63672 0.85156-0.17969 1.0273 0.28906 0.96875-0.42578 0.98438 0.085938 1.0156 0.13672 1-0.023437 1.1562-0.0625 1.0117-0.77734 0.78125-0.98438 0.375-1.1562 0.19141-1.0273-0.13672-0.9375 0.36328-0.86719-0.53906-1.0742-0.015625-0.42969-0.96875-0.39844 1.0352 0.54297 0.90625 0.21094 0.99609-0.95703 0.38672-0.55078 0.94141 0.79688 0.64453 0.63672 0.85156 1.0586 0.34375 0.33203 1.0156-0.56641 0.83203 1.0312 0.19531 0.73047 0.69141 1.0156 0.12109 0.95312-0.42578 0.16797 1.2188 0.61328 0.90234 1.0117 0.10547 0.54297 0.92188 0.25 1.0508 0.70703 0.76172 1.0078 0.35547 0.99219-0.15625 0.94922-0.33984 0.51953 0.90625 0.82031 0.625 0.58594 0.88281-0.48047 1.1562-0.32031 1.0352 0.62109 0.85156 0.64453 0.86719 0.29297 1.0586 0.59766 0.83984 0.57812 0.82812 0.62891 0.80469 0.43359 1.1016-0.22656 1.082-0.29688 0.96484-0.36719 0.94922 0.14062 1 0.28516 1.2578 0.058594 1.0742 0.74219 0.76172 0.64844 0.85938 0.23438 1.0039-0.91797 0.47266-0.57812 0.90234 0.96094 0.49609 1.1367-0.015625 0.91016 0.79688 0.94531 0.67578 1.1016 0.49609 0.55469 0.85938-0.61719 1.1055-0.34766 1 0.43359 0.93359 0.55469 0.875-0.37109 0.96484-0.66406 1.1602 0.046875 1.0078 1.0391 0.32031 0.53125 0.93359 0.78516 0.64453 0.99609 0.375 1.0938 0.41797 0.79688 0.85547 0.98438 0.58594 0.69141 0.84375 0.82812 0.69141 0.67969 0.75391 1.3203 0.54297 0.99609 0.51172 0.95703-0.36328 0.83594 0.79688 0.14062 1.0078 0.73438 0.69922 0.12891 1.0625 1.0234-0.47656 0.64844 0.77734 1.0312-0.21484 1.1211 0.40234 1.0039-0.30469 0.41406 0.92188 0.16016 1.0078 0.066407 1.0391 0.011718 1.0039-0.11719 1.0586-0.39844 0.92969-0.023437 1.1992-0.14453 1.1133-0.12109 1.0352-0.28125 1.1055-0.19141 0.98438 0.066406 1.1055 0.30469 0.96484 1.0195-0.18359 0.97656-0.25781 0.58594 0.94141 0.99609 0.72266 0.30078 1.2188 0.48828 0.89453 0.58594 0.82031 1.0312 0.28906 0.82031 0.60547 0.76562 0.69141 0.67578 0.8125 0.96875-0.27344 1.1328 0.15234 1.0039 0.21094 0.97656-0.31641 0.96484 0.29688 1.043-0.078125 0.9375 0.49219 0.77734 0.67578 0.65625 0.87109 0.49609 0.87891 0.85547 0.69141 0.54297 0.875-0.41797 0.96094 0.50391 0.88281 0.41406 0.94141 0.875 0.60938 0.59766 0.80469 0.042969 1.0039 0.21875 1.0117-0.058594 1.0195 0.71094 0.73047 0.64453 0.78516 0.98828 0.35156 0.63281 0.78516-0.011719 1.0312 0.72656 0.69141 0.14453 1.0039 0.51953 0.88281 0.51172 0.88281 0.33203 0.96484 0.96875 0.60547 1.0312 0.28516 1.0195-0.19141 0.95312 0.30469 1.0156-0.070312 0.71094 1.0938 0.68359 0.89844 0.27344 1.0977 0.53516 0.89844 0.34766 1.0117 0.54297 0.94922 1.2852-0.027343 1.0078 0.16797-0.39844 0.98828-0.89062 0.46484-0.30859 1.0078 0.17188 0.99609 0.79688 0.62891 0.18359 1.043 0.1875 1.0156-0.33984 1.0234 0.30859 1.3945 0.27344 0.96094-0.082031 1.0469-0.097657 1.0312-0.28516 1.0508-0.64062 0.90234-0.32812 0.96094-0.83594 0.55469-0.91016 0.48438-0.87891 0.50781-1.0117 0.089844-0.80078 0.64062-0.90234 0.60156-0.92188 0.41797 0.71484 0.71484 0.56641 0.83984 0.59766 0.80469-0.19922 1.0664-0.78125 0.64062-0.92188 0.42969-0.80859 0.66406-1.0391-0.042969-0.89844-0.50781-0.96875 0.39844-0.83984 0.54297-0.48828 0.89062-0.4375 0.90625-0.62109 0.79297-0.85547 0.57812-0.62891 0.86719 0.63281 1.5117-0.20312 1.0078-0.81641 0.63672-1.168-0.13281-0.67969 0.80469-0.93359 0.875-0.60547 0.91016 0.027344 1.0117-1.1172 0.125-1.0273-0.15234-0.8125 0.60547-0.52344 0.9375-0.26953 1.0938 0.35547 0.98047-0.88672 0.75781 1.4336 0.83203 4.2773 0.011719 6.4766 0.015625 5.4922-0.019531 4.0508 0.011719 22.227 0.019531 0.066406 1.0117 0.78516 0.65625 0.86719 0.52734 1.0078-0.015625 0.97266 0.35938 0.96094 0.30859 0.84766 0.53125 1.0117-0.085937 0.95312-0.30078 1.0195-0.046875 0.66797 0.75 1.0352-0.035156 0.96484 0.26562 0.94141 0.40234 0.91797 0.41016 1.0039-0.011719 0.83594 0.59375 0.92969-0.38672 0.63281 0.79688 0.94922 0.41406 0.39062 0.95312 0.92969-0.42969 0.94141-0.39062 1.0312-0.078125 0.875 0.5625 1-0.085938 1.0234 0.089844 0.95703-0.36328 1.0039 0.0625 1.0273-0.066407 1.0078 0.125 0.99219-0.21094 0.78906 0.63281 1.0195 0.41406 0.99609 0.22266 1-0.058594 0.9375 0.375 0.84375 0.56641 0.30469 0.96875 0.55859 0.86328 0.49609 0.89062 0.76562 0.67969 1.0078-0.10547 0.79297-0.64453 1 0.125 0.78906 0.64844-0.003906 1.0586-0.26953 1.0117 0.042969 1.0352-0.17188 1.0156-0.0625 1 0.31641 0.96484 0.79688 0.67188 1.0547 0.039063 0.99219 0.32812-0.32812 0.94922-0.375 0.95703 0.41797 0.95703 0.84375 0.55859-0.23047 1.0938-0.29297 0.99219 0.007813 1.0234-0.35156 1.168-0.24219 1.3242 0.29688 1.2266-0.67188 0.98047 0.73828 0.73047 1.0078 0.33594 0.62109 0.88672 1.0742 0.25 0.61719 0.85156 1.125 0.10547 1.1055-0.0625 1.4453 0.62891 1.1602 0.74609 1.1016 0.39844 0.16797 1.0117-0.43359 0.92969-0.58594 1.0352 0.84375 0.96875-0.14844 1.0234 0.59766 2.0273 1.0117 0.078125-0.23047 1.0391-0.83594 0.9375-0.17578 1.0117-0.97656 0.3125-0.63281 0.78516-0.33203 0.97656 0.39062 0.92188 1.0039 0.27734-0.47656 0.91016 0.74219 0.68359 0.16797 1.0547-0.62891 0.80078-1.375 0.37891-0.42969 0.98828 14.543 0.52734 1.7383-0.058594 10.422 0.066406 1.9688-0.003906 3.8867 0.003906 5.3125-0.03125 2.5312 0.03125 21.422 0.035157 11.727-0.019532 0.72656-0.85156 0.90234-0.66797 0.78125-0.96094 0.96484-0.30469 0.84375 0.66406 0.70312 0.83594 0.91797 0.50781 1.0156 0.007812 0.75781-0.84375 1.1094 0.15234 0.88281-0.57031 1.1992 0.050782 0.28125-1.2461 1.1328 0.15234 1.1758 0.039062 1.3125 0.050781 0.54688-0.85156 0.30078-1.082 1.043-0.33984 0.20703-1.0391 0.26172-1.0273 0.94141-0.32812 0.082031-1.0703 0.55859-0.99609 0.68359-0.79297 0.56641-1.2031 1.0625-0.39062 0.51172-0.89062 0.95703-0.52734 1.1211 0.066406 1-0.007812 0.82812-0.63672 0.91406-0.46484 0.66016-0.78516 0.91797-0.42969 1.0156-0.23438 0.64062-0.77344 0.99219 0.17188 0.91406-0.43359 0.90234 0.43359 1.0078-0.23047 0.98438 0.17578 0.83594-0.58984-0.12109-1.0312 0.33594-0.96484 0.61719-0.875 0.27734-0.98438 0.54297-0.95703 0.83984-0.57031 0.79297-0.63672 0.96875-0.32812 1.0039-0.082031 0.98828-0.15234 0.57031-0.83594 0.73438-0.69141 0.62891-0.78516 0.41797-0.95312 0.59375-0.83984 0.85156-0.54688 0.43359-0.94922 0.6875-0.76562 0.69141-0.78516 0.875-0.58594 1.0391 0.16797 0.45703-0.95312 0.98828-0.16016 0.96484-0.28516 1.0312 0.015625 0.80859-0.59766 0.42578-0.92969 0.26953-0.96484 0.97266-0.26172 0.92578-0.4375 0.79688-0.60938-0.019531-1.0195 0.30469-0.95312-0.10938-1.0078 0.96484-0.51953 1.0117 0.23438 0.93359-0.47656 0.59375-0.82422 0.92969-0.38672 0.91016-0.47656 0.79688-0.68359 1.0039-0.36328 0.83203-0.60938 0.87109-0.57031 0.64453-0.83594 0.73828-0.71484 0.95703-0.36719 0.13281-1.0117 0.65625-0.8125 0.83203-0.55859 0.29297-0.97656 1.0117 0.035157 0.32031-0.95312 0.99609-0.33594 0.875-0.51953 0.90234-0.47656 1.0469-0.074218 0.90625-0.52344 0.67969 0.73438 0.91797-0.53125 1.0234-0.16797 0.92969-0.41797 1.0039 0.16016 0.10938 1.0273-0.6875 0.80078-0.66016 0.82812 0.20312 0.99609-0.85156-0.62109-0.52734 1.043 0.42188 0.94141 0.74609 0.80078 0.5 0.92578-0.875-0.57812-0.58203 1.0156-1.0469-0.035156 0.046875 1.0977-1.0234-0.21484-0.47656 0.93359 0.79297 0.69922-0.93359 0.75-0.98438-0.32812-1.0039-0.24609 0.57422 0.875-0.44922 0.97266 0.92188 0.49219 0.5 0.93359-0.98047 0.45312-0.84766-0.79688-1.0312 0.27734 0.027343-1.0938-0.84375-0.61719-0.53516 0.87891 0.59375 0.84766 0.67969 0.74219-0.46875 0.90234 0.30469 0.97656-0.77344 0.72656 0.30469 0.95703 0.17188 1.0234 0.54297 0.86328 0.50391 0.96094 0.58984 0.8125 0.53125 0.86328 0.98047 0.29297 0.625 0.78516 0.76172 0.67188 0.39453 0.9375 0.25781 1.0078 0.60938 0.79688-0.085937 0.99609-0.53906 0.86328 0.15234 1-0.62109 0.82812 0.25781 0.98828-0.64844 0.82812-0.66797 0.82031-0.82812 0.60547-0.92578-0.47266-0.96484-0.29688-0.44922 0.90625-0.41797 0.96484-1.0234-0.12891-0.92188 0.41406-0.44531 1.0352-0.42188 0.91016 0.089844 1.0312-0.050782 1.0156 0.13281 1.043 0.47266 5.25-0.94141-0.86719-1.2305 0.23438-0.71484 1.3125-0.21875 1.1953-0.0625 1.3008-0.62891 0.8125-0.86328 0.73047 0.17578 1.1875 0.50391 1.2656-0.625 0.83984-0.46484 1.207-0.36328 1.1953 0.62891 0.97266 0.58203 0.93359 0.21484 1.0547 0.48438 0.89453-0.48438 0.90234-0.54688 0.89844-0.77734 0.76172-0.91016 0.44922-0.87109 0.76953-0.70312 0.71875-0.52344 0.96094-0.23438 1.0273 0.22656 1.1875-0.67969 0.78125-0.58203 0.85547-0.89453 0.54297-1.6328 0.74609-0.94141 1.3008-0.73047 0.78516-1.0469 1.0273-0.83594 0.70703-0.97656 0.73047-1.0352 0.87891-0.92969 0.82031-2.2539 0.89844-1.3359 0.35938-1.0781 0.66797-0.98438 0.58203-1.3789 1.4102-0.80078 0.75-1.168 1.0742-1.082 1.0312-2.8633 0.36328-0.73047 0.94922 0.13672 1.2891-0.17188 2.0195-1.2539 1.8398-0.87891 1.7422-0.24219 1.0156-0.57422 1.3633-0.79297 1.0156-0.92578 0.77734-0.52734 1.0352-0.83594 0.5625-0.95312 0.38672-1.0273 0.53125-1.0664 0.20312-1.1055 0.51562-1.0156 0.14453-1.0898-0.027344-1.1016-0.17188-1.0195 0.40234-0.83203 0.58594-0.57031 0.9375-1.1758 0.69922-1.0312 0.12109-0.13672 1.0508-0.054687 1.1016 0.15234 1.1055-0.78906 0.78906-1.0664 0.03125-1.0469 0.41406-0.58984 0.91016-0.34766 1.1172-0.30469 1.1367-0.76172 1.4414 0.085938 1.082 0.99609 0.92969-0.35938 1.0234-0.90625 0.87109-0.82422 0.78125 0.18359 1.1875 0.47656 1.0156 0.67969 0.86719-0.62891 0.78125-0.1875 1.0977 0.41016 1.0469 0.10547 1.0469-0.91406 0.4375-0.28516 0.96875-0.91406 0.41406-0.94531 0.43359-0.88281 0.74219-0.46484 1.2578-0.50781 1.3047 0.003906 1.2734-0.17969 1.3203-0.67188 1.0039-0.72266 0.99219-0.78125 0.625-1.0234 0.16406-0.66797 1.6172-0.10938 0.99609-0.86328 0.51953-1.8516 1.3281-0.37891 0.99219-0.21094 1.0391-1.0117-0.070313-1.125 0.43359-1.0781-0.33203-1.0391 0.35547-1.2383 0.46875-1.207-0.22266-1.2227 0.11719-1.0898 0.13281-1.1445-0.1875-1.0625-0.019531-0.85547 0.61719-1.1289-0.019531-1.0039 0.31641-0.99609-0.25781-0.88672-0.46875-2.5195 0.52734-1.1758 0.058593-1.9648 0.68359-1.2617-0.13672-2.2031 0.48828-2.1016 0.10547-0.89062 0.54688-0.90234-0.62109-0.95703-0.4375-0.82031 0.57812-1.0391-0.35547-0.76172 0.81641-0.36328 1.0156-1.0273-0.58984-1.0078 0.10156-1.2109 0.42188-1.2461-0.15234-1.0898-0.09375-1.0195 0.16406-1.0156 0.125-1.0078-0.003907-1.0352 0.30859-1.293 0.32422-1.0039-0.36719-1.0312-0.30859-1.0781-0.10938-0.88672 0.73438-1.0352-0.16406-1.2617-0.039062-1.0352 0.046875-1.0156-0.27734-1.3242 0.15625-0.94531-0.54297h-1.0156l-0.91406 0.42188-0.95703-0.32422-1 0.058594-0.99219-0.13281-1.207-0.14062-1.0703 0.68359-1.1914 0.25-0.86719 0.82812-1.1406 0.003907-1.1406-0.24609-1.2969-0.11719-1.1797-0.25781-1.5781-0.55078-0.98438-0.53516-1.25-0.10156-0.94531 0.59766-0.28906 1.0156-1.0781 0.1875-1.0742-0.035156 0.28125 1.0547 0.3125 1.1289-0.085938 1.0898-0.66406 0.81641-0.16016 1.0352 0.88281 0.57422 0.66016 1.0547 0.83203 0.67969 1.1133 0.058593 0.93359 0.41406 0.93359 0.57422 0.45703 0.91406-0.14453 1.1406-0.73438 0.75391-0.96875 1.0078-0.66797 0.76953-0.97656 0.41406-0.84766 0.62891-1.0469 0.097656-0.41797 1.4102-0.49219 1.082-0.89062 0.62891 0.12109 1.2773 0.11719 1.2734-0.089844 1.1172-0.011719 1.0117-0.023437 1.168-0.81641 0.68359-0.41797 0.96484-0.24609 1.0586-0.29688 0.96875 0.39062 0.96875 0.24219 1.207 0.28906 1.1953-0.89062 0.65625-1.1406-0.29688-1.043 0.1875-0.73047-0.74219-1.0039-0.22656-0.93359 0.375-1.0352-0.16406 0.10938-1.0352-0.58203-0.86719-0.99219-0.1875-0.80859-0.58594-0.76953 0.66016-0.62891 0.8125-0.86328-0.58594-0.78906 0.64062-1.0156 0.25781-0.85156 0.58594-0.99609 0.097656-1.0273 0.066407-0.36328 1.0898-0.99609 0.24219-0.72266 0.73828-1.0391-0.18359-0.91016 0.41797-0.86328 0.55469-0.59766 0.80469-0.47656 0.88281-1.0156 0.082031-1.0391 0.007812-1.0273 0.1875-0.26562 1-0.85938 0.51172-0.88672-0.47656-0.39453 0.95312 0.019532 1.0469-0.96875-0.27734 0.15234 1.043-0.92969 0.47266-0.62109-0.85156-0.50391 0.86328-0.90625 0.50391-0.79688-0.60547-1.0078 0.078125-0.93359 0.41797-0.84766-0.55859-0.70312 0.72656 0.17969-1.0117-0.48438-0.92578-0.41797 0.99219-0.41406 0.91016-0.042969-1.0391-1.0586-0.15234-0.066406-1.0117-1.0469-0.035156-0.44922-0.91016-0.74609 0.67969-0.63672-0.81641-0.75781-0.71094-0.44141-0.91797-1.0195 0.09375-0.83984 0.67578-0.83203-0.79297-0.96484-0.46094-0.55469-1.0156-0.33203-0.98828 0.51172-0.88672-0.65625 0.76953-0.73438-0.72266-1.0273 0.070312-0.9375 0.40234-0.91406 0.58203-0.69922 0.91797-1.1289 0.37891-1.1445 0.28906-0.13281-1.0312-0.67578 0.87109-1.0234-0.015625-1.1406 0.027343 0.039063 1.043-1.0625-0.10156-1.0234-0.12109 0.81641-0.60547-0.60156-0.83203-0.75391-0.6875-0.9375-0.69531-1.0312 0.23047-0.88672-0.50781-0.79297-0.70312-0.32422 0.97656-0.96484-0.28516-0.9375-0.44141-0.96484-0.30859 0.33984 0.95703-1.082-0.34766 0.34375-0.95312 0.64844-0.79297-1.0781-0.042969-0.80859 0.71094-0.67578-0.73828-1.0781 0.37109 0.80859-0.67969-0.73828-0.75391 0.78516-0.65625 0.80859 0.90234 0.70312-0.76562-0.73438-0.75391-1.0898 0.007813 0.15234-1.0352 1.0586 0.023438 0.20312-0.99219-0.625-0.78125-0.99219-0.32031-0.96094-0.43359-0.015625-1.043-0.61719-1.1016-0.0625-1.0508 0.19531-1.0469-0.41797-0.99219-0.12891-1.0977-0.54297-1.2031-0.44141 1.3086-0.60156 1.4102-0.84375 1.4805-0.88672 1-0.73047 0.77344-0.23047 1.1328-1.1289 0.80859-1.0508 0.55469-1.0742 0.53906-1.082-0.26172-1.625-0.10156-1.2812 0.40625-1.1484 0.49219-1.3164 0.47266-1.668-0.19531-1.1445-0.11328-1.0234-0.14062-1.0742 0.28125-1.0469 0.089844-1.0859-0.11328-0.95703 0.63672-1.2891 0.078125-0.89062 0.46484-0.83594 0.625-1.2031-0.046875-1.0312-0.015625-1.1094 0.17188-1.0625-0.38672-1.0391 0.035157-1.2656 0.085937-1.0273 0.43359-0.74219 0.74609-0.64453 0.88281-0.74219 0.69531-0.89062 0.50781-0.87891 0.61719-0.29297 1.0156-0.64453 0.96875-0.98438 0.57031-0.91797 0.58984-0.90625-0.52344-1.0234-0.3125-1.0781-0.57031-0.97656-0.69141-0.92188-0.85938-0.375-0.97266-0.80859 0.58984-0.80078-0.67188 0.44922-1.0117-0.23047-1.0625 0.57422-0.85547 1-0.61328 0.28516-1.1211 0.085937-1.0977 0.45703-0.99609 0.10547-1.0469 0.22266-1.082 0.23828-1.2695-0.33594-0.95312-0.44922-1.1562 0.097657-1.0352-0.44141-0.99219-0.023437-1.0234-0.40234-1.7422-0.375-1.4922-0.32031-1.0781 0.70703-0.71094-0.19531-1.293-0.26172-1.0352-0.042969-1.043-0.55078-1.1055-0.71484-0.76172-1.0547 0.058594-1.1602-0.57031-1.0977 0.019532-0.92188-0.45312-0.875-0.51172-0.09375-1.1367 0.17578-1.0312-1.0391-0.88672-0.21094-1.0312-0.35938-0.98828 0.03125-1.207-0.52734-0.88281-0.625-1.0117 0.26953-1.4414 0.3125-1.1914-0.09375-1.2109-0.074219-1.0586 0.34766-1.0898 0.27734-1.0469-0.070313-1.168-0.53516-0.84766-0.80859-0.64844-1.3086 0.070312-1.1367-0.25-0.97266-0.53516-0.79297-0.63672-0.82031-0.70703-0.78906-0.64844-0.84375-0.59766-0.78516-0.63281-0.82812-0.5625-0.11719-1.0273-1.0352-0.20703-0.73047-0.71094-0.75391-0.72266-0.98047-0.30078-0.85156-0.97266-1.0352-0.26172-0.77344-0.64844-0.23047-1.1562-1.2422-0.16406-1.082 0.24609-0.82031 0.71875-0.96094 0.41797 0.011719 1.043 0.26953 0.97656-0.22266 1.0234-0.49609 0.91406-1.0234 0.22266-0.99219 0.17969-0.44141 0.95312-0.45312 1.1797-0.14062 1.0625-0.14062 1.0312 0.46094 0.92188-0.10938 1.0547-0.25391 0.97266 0.60938 0.83594-0.55469 0.85938-0.18359 0.98438-0.32812 0.98438-0.28516 0.98047-0.65625 0.77344-0.80859 0.69141-0.60547 0.89844-0.54297 0.88672-0.35547 1.0273-0.035156 1.0234-0.17578 1.3047-0.011718 1.0742-0.20703 1.1016-0.09375 1.1055 0.19531 1.1016 0.039062 1.0117 0.12891 1.0664-0.007813 1.0391-0.046875 1.043-0.12891 1.1094 0.28125 1.1445 0.16406 1.0664-0.12109 1.0586 0.16797 1.0195 0.41016 0.94922-0.90625 0.64844-1.0039-0.0625-1.1797 0.13281-0.61328-0.91406-0.84766-0.63672-0.94922-0.79688-1.1094-0.054687-1.082 0.34766-1.0312 0.34766-0.73047-0.74219-0.65234-0.81641-0.77734-0.65625-0.4375-0.92188-0.17188-1.043-0.089844-1.0039 0.27734-0.97656-0.042969-1.0547-0.26562-1.0586-0.40234-1.043-0.44922-1.668-0.44922-1.2695-0.61328-1.5-0.50391-0.89844-0.99609 0.21484-0.99219-0.33984-1.0508 0.14844-1.0664 0.16016-1.0039 0.019531-1.0625-0.046875-0.94922-0.33203-1.0586-0.19531-1.0547 0.027343-0.97266 0.3125-1.0898-0.20703-0.92578 0.66016-1.2695 0.25781-0.94141-0.43359-0.98438-0.25391-0.87891-0.54688-0.82031 0.73047-0.33203 0.97266-0.19531 0.98828-1.0391 0.53125-1.0156-0.10156-1.2539-0.09375-1.2422-0.046875-1.3867 0.57422-0.92188 0.44141-1.1523 0.23047-0.99609 0.125-1.5586 0.35547-1.7852 1.2422-0.95312 0.51562-1.0195 0.039062-1.0586-0.015625-1.0508-0.38672-0.88281-0.62109-1.0547-0.35156-0.84766-0.57031-0.62891-0.82422-0.87891-0.61719-0.98438-0.82812-0.91016-0.66797-1.1211-0.21094-1.2031 0.066406-1.0234 0.074219-1.0742-0.18359-0.57031-1.25-0.09375-1.1367v-1.3398l-0.49219-0.89844-0.89453-0.625-0.84375-0.54688-0.92188-0.52734-0.85547-0.56641-0.86719-0.64844-0.99219-0.25-0.12891-1.0156 0.86719-0.50391 0.83203-0.59375 1.0273 0.375 1.0547-0.023438 1.0156 0.011719 1.0195 0.29688 0.97656-0.5625 0.80859-0.60547-0.14062-1.0703 0.14453-1.1523-0.29688-0.97656 0.082031-1.0312 1.0586-0.42188 1.25-0.21484 1.0742-0.80859 1.0547-0.60938 0.95312-0.47266 1.0234 0.24219 0.98828-0.17969 1.082-0.0625 0.98438-0.36719 0.61328-1.0625 0.34766-1.1133-0.63281-0.89062-0.34375-0.97656 0.14062-1.1953 1.0469 0.1875 0.98438 0.44922 0.94531-0.38281 0.33203-0.96484 0.96094-0.89844 1.2031-0.39844 0.51172-0.93359 0.86328-0.67188 0.65625-0.80078 0.64844-0.80859 0.57812-0.82422 0.074219-1.0117 1.1211 0.097656 0.99219 0.44141 0.41016-0.99609 0.65234-0.90234 0.91016-0.42969 1.0117-0.10938 0.24609-1.0547 0.58594-0.82031 1.0742 0.082031h1.0195l1.0039 0.40625 1.0977-0.11719 1.0117 0.19531 0.71484 0.71875 0.91797 0.55469 0.57812 0.82812 0.5625 0.84375 0.32422-0.96484-0.027344-1.0742-0.19922-1.0039-0.41797-0.97266-0.050782-1.1484 0.60938-0.83984-0.3125-0.99609-0.42188-0.91016-0.59766-0.9375-0.625-0.85156-0.11328-1.0547-0.46875-1.0312-0.6875-0.92188-0.46875-0.91016-0.42578-0.93359-0.33984-0.96875 0.26953-1.2148-0.91406-0.55469-0.63281-0.92188-0.76172-0.82031-0.85156-0.67969-1.0781-0.43359-0.91797-0.82031-0.77734-0.79688-0.27344-1.1641 0.13672-1.1484 0.019531-1.082 0.23047-1.0312-0.96875-0.60156-0.48438-0.91406-0.089844-1.0664 0.53906-1.5039 0.60156-0.92188 0.78125-0.66016-0.75781-0.82812-0.5-0.87891 0.6875-0.77344 0.98828-0.24219 0.30469-0.96875 0.19922-1.2852 0.33203-1.0508-0.23438-1.0234 0.027344-1.1758-0.53125-0.91016-0.12891-1.0234 0.49609-1.0117-0.13672-1-0.80078-0.74609-0.88672-0.52344-1.0547-0.10156-0.98828-0.35156-1.0781 0.007813-0.99609-0.33203-0.94141-0.39062-0.30859-0.98438 0.007813-1.0898-0.3125-1.1406-0.33594-0.97656-0.90625-0.55078-1.0195-0.14062-0.96484 0.30859-0.91406 0.44531-0.90625-0.45312-0.67188-0.76562-0.51172-1.2969-0.0625-1.0117-0.3125-1.0977-0.47656-0.87891-0.78125-0.70312-1.082-0.375-0.4375-0.91406-0.48047-0.87891 0.33594-0.95312 0.09375-1.0508-0.44141-0.95703-0.57031-0.82031 0.33203-0.98047 0.51172-0.88281 0.27344-1.0664-0.16016-1.1328-0.23828-0.98438 0.38672-1-0.17188-1.4922-0.68359-0.80078-0.73047-0.86328-0.48438-1.0469-1.1328-0.24609-0.50781-0.875 0.15234-1.0234 0.082031-1.1484 0.019532-1.0664 0.14844-1.0195-0.15234-1.0625 0.16406-1.2695 0.10938-1.1523-0.42578-1.1836-0.23828-1.0352-0.31641-0.95703-0.6875-0.74219-0.85938-0.76953-0.28906-1.0703-0.43359-0.99219-0.17578-1.0195-0.42188-0.90625-0.26953-1.0273-0.03125-1.0391-0.13281-0.99609-0.29688-1.0352 0.32031-1.0039 0.003907-1.0039-0.14453-1.043 0.13672-1.1055-1.0977 0.050781-1.0586-0.066406-1.0469 0.03125-0.77344-0.65625-0.99609-0.36328-0.96094-0.38281-1.1055-0.13672-0.31641-1.168 0.085938-1.0898-0.61719-1.1484-0.14844-1.0391-0.51562-0.88672-0.57422-0.91016 0.82812-0.66406 0.41406-1.168-0.42188-1.0938-1.2266-0.10938-1.1133-0.40234-1.0195-0.69922-0.97656-0.23438-1.3086-0.17969-1.0625-0.21875-0.94922-0.375-0.99609-0.78516-0.83984-0.61719-0.99609-0.15234-0.66797-0.76562 0.625-0.80469 0.88672-0.62891 0.82422-0.74609 0.61719-1.0312 1.2852-0.55469 0.19922-0.99609 0.82812-0.66797 1.1602 0.26953 0.87891-0.58594 0.11328-1.1758 0.75-0.78906 0.54688-0.92969 0.52344-1.0312 0.76953-0.8125 0.69922-0.74219-0.16016-1.1055 0.066406-1.4102-0.089844-1.0078-0.78906-0.8125-0.71875-0.78125-0.67578-0.85156-0.83984-2.0508-0.22656-1.6953-0.83594-2.2031-0.31641-1.2188-0.12891-1.3555 0.13672-1.0898-0.11328-1.3164-1.2891-0.43359-1.0156-0.16406-0.98828-0.83594 0.070312-1.1914 0.75781-0.76953 0.84375-0.92188 0.375-1.4531 0.15234-0.98828-0.85547-0.77734-0.60547-1.2227 0.37891-1.2383 0.88281-0.74609 0.64453-1.0664-0.45312-0.91406 0.30078-1.4883 0.19531-2.3086 0.16016-1.0117 0.25-0.97656 0.78125-0.74609 0.48828-0.90625 0.48828-1.3047 0.125-1.6992 0.046875-1.4531 0.31641-1.6133 0.85938-1.0781 1.9062-0.69531 1.0156-1.0938 2.4492-1.6523 1.4258-0.52734 0.57422-1.457 0.27734-1.0664-0.0625-1.0898-0.078125-1.2422-0.082031-1.1758-0.76172-7.4258-0.48438-1.9492-0.1875-1.1758-0.33594-1.0234-0.75-0.875-1.0586-1.0586-0.98047-0.88281-1.1133-0.46484-1.0234-0.03125-1.0859 0.023438-1.6055 0.16406-1.2695 0.33984-1.6445 0.64062-1.0781 0.72266-0.80859 0.63672-0.89062 0.47656-3.5742 1.7227-6.0391 2.9023-4.5 2.7031 0.15234 1.0742 0.14844 1.0039-0.48047 1.2422 0.125 1.1289-0.28516 1.3242 0.011719 1.2969-0.027344 1.6875-0.59766 1.2188-0.67578 0.89062-1.3711 1.1406-1.0117 0.80469-0.89062 0.78516-1.0117 1.2305-2.0625 2.4609-0.72266 0.72656h-1.0898l0.24219 1.5508 0.41016 1.2305 0.94141 0.52344 0.50781 1.0859-0.14453 1.5117-0.41406 0.97266-0.98438 0.18359-1.1602 0.27734-0.94141 0.48047-0.73047 0.77344-0.89062-0.71875-0.49609-1.0117-0.97656-0.96094-0.76562-0.81641-1-0.14062-1.1562-0.47266-1.4883-0.22656-1.0117 0.41406-0.88281 0.55859-1.0742 0.29688-1.3086 0.73828-0.95312 0.88672-0.67969 0.76172-0.80859 0.98047-0.96094 0.83594-0.58984 1.1641-0.027344 1.1289-0.42188 0.98047-0.22656 1.1016 0.21875 1.0391-0.12891 1.0234-0.48047 0.90625-0.58984 0.82422-0.80859 0.85938-0.41797 0.92578-0.85547 0.89844-1.0195 0.42188-0.76953 0.65625-0.66016 0.76562-1.1289 0.125-1.3594 0.23438 0.43359 0.91406 0.24609 1.2344 0.5625 0.96484 0.61328 0.89062 0.62891 0.97656 0.035156 1.168 0.074219 1.2773 0.53125 1.0742 0.12891 1.043-0.32812 1-0.62891 0.91016-0.79688 0.67578-0.91016 0.74219-0.85156 0.83594-0.72266 0.75781-1.1172 0.35938-0.58203 0.91797-0.78125 1.2617-0.44922 0.95703-0.75781 0.84375-1.1406-0.44141-0.97266-0.4375-0.92578-0.41016-0.98047 0.36719-1.0547 0.023438-0.96875 0.38281-1.0273-0.011718-1.0352 0.14844-0.91016-0.60156-1.1523-0.5625-1.0625 0.054687-0.98047-0.21094-1.0352 0.29688-1.0625-0.003907-0.75781 0.96484-0.24609 0.97266-0.29688 0.98438-0.57812 0.89453-0.67578 0.89844-0.78516 1.0352-0.48438 1.0664-0.92578 0.59375-1.1211 0.21484-0.97656 0.44922-1.1719 0.33203-0.96484 0.70703-1.082 0.27734-1.0039 0.027344-1.168-0.0625-1.1289-0.097656-1.4883-0.17969-1.082 0.023438-1.0977-0.11719-1.3477-0.035156-1.0664 0.24609-1.2305-0.0625-0.16016-1.1133-0.69531-0.82031-0.71484-0.82812-0.19141-1.2266-0.78125-1.1172-0.60547-0.85156-0.49609-1.0742-0.49219-1.0586-0.50391-1.1562-0.93359-2.1367-0.82812-0.85547-1.1875-0.95703-0.76172-1.1133-0.61328-0.92188-0.28906-1.2969-0.65625-1.3008-0.51562-0.92188-0.93359-0.51562-0.35938-1.1406-0.13672-1.0352-0.35156-1.1992-0.17969-1.1172 0.050781-1.0742-0.50781-1.0703-0.5-0.90625-0.67188-0.98438-1.1055-0.75-0.22266-1.2891-0.33594-0.99609-0.85156-1.1719-1.0742-0.99609-0.75-0.76562-0.42578-0.96875-0.44922-1.0195 0.22656-1.1953 0.16016-1.0273 0.21484-1.0586-0.24219-1.0547-0.68359-1.0547-0.31641-1.0859-0.26562-1.0781-0.40625-0.99609-0.69922-0.71484-0.625-0.85938-0.20703-0.99609-0.66016-1.0898-0.36719-1-0.23438-1.1094-0.28516-1.0195-0.0625-1.0547 0.22266-1.0625 0.078125-1.0625 0.39844-1.4766-0.11719-1.0391-0.46094-0.88672-0.76172-1.0039-0.32031-1.1445-0.42969-1.1289-0.070312-1.1562 0.59766-0.86719 0.60938-0.85547 0.98047-0.47266 0.64453-0.83594 0.98047-0.48828 0.57031-0.88672 0.60938-0.85547 1.082-0.40625 1.0234-0.24219 0.97656-0.24219 1.0977 0.23438 1.0938-0.11328 0.71484-0.84375 0.70312-0.71875-0.22656-1.1641 0.60156-1 0.85156-0.66406 0.69531-0.92578 0.39453-1.5156 0.36328-1.0508 0.39844-0.95312 0.43359-0.92188-0.015625-1.0781-0.40234-0.95703-0.55469-1.082 0.63672-0.77734 0.69141-0.76562 1-0.14453 1.0508 0.17578 1.0469-0.089843 0.9375-0.41797 1-0.21484 0.30859-1.0117 0.43359-0.95703 0.46094-0.96094-0.050781-1.168 1.0625-0.97656 0.75781-0.74609 1.0039-0.085938 1.2109-0.58203 1.1016-0.42578 1.3125-0.30078 1.0859 0.019532 1.5156 0.10547 1.0469 0.29297 0.86719 0.97266 0.19531 1.0703 0.69922 0.72266 0.74219 0.74219 0.875 0.55469 0.91797 0.81641 0.99219-0.32812 1.1523-0.35547 1.1406-0.28906 1.0273-0.71875 1.2461-0.55859 1.4883-0.25 1.1289 0.066407 0.99609-0.1875 1.0078-0.14453 0.39062-1.0547 0.12891-1-0.050782-1.1641-0.62109-0.79688-1.0781-0.24609-1.1641-0.375-0.87891-0.51953-0.40625-1.1133-1.0703-0.47266-0.89062-0.60156 0.10938-1.0625 0.54688-0.84766-0.19531-1.0117 0.46484-0.89844-0.55469-0.88672-0.48828-1.1953 0.41797-1.0547 0.53906-1.0156 0.89453-0.78125 0.86328-0.58594 0.13281-1.125 0.73047-0.77344 1.0703-0.77344-0.10547-1.0352 0.35938-0.94922 0.90234-0.5625 0.019532-1.1289 0.11719-0.99609 0.77734-0.64453 1.0078 0.41016 1.125-0.10547 1.0625-0.36719 0.34766-0.94141 0.69141-0.85156 0.73828-0.70312 1.0898-0.19922 1.0586-0.40625 1.2383-0.097656 0.79297 0.63281 1.1016-0.10547 0.90625-0.43359 0.87109-0.51172 1 0.082031 0.89453 0.46875 0.96094 0.37891 0.52344 0.87109 0.91797 0.42188 1.0234 0.050781 0.35938-0.96094 0.72266-0.73047 0.93359-0.40234 0.58594-0.875 0.11719-1.0234 0.46094-0.90234 0.36719-0.94531 0.82422-0.59766 0.25391-1.0781-0.42188-0.92969 0.30469-0.98828 0.29688-0.97266-0.015625-1.0664 0.38672-0.94141 1.1875-0.74219 1.2305-0.29688 0.90234-0.625 0.066406-1.0039 0.83203-0.70312 1.4375 0.019531 2.4766-0.44922 2.1602-1.2383 3.3047-0.92578 1.0117 0.67578 1.6367 1.1367 2.1289-0.10938 1.75 2.3047 0.83203 1.5898 0.69531 0.875 0.85938 0.69141 0.55078 0.875 1.1289 1.3945 0.98828 1.168 1.0508 1.3789 1.1016 0.24219 1.6953-0.63672 2.3359-1.7031 1.4219-0.046875 1.2227-0.29297 2.1758-0.71875 1.5078-0.98047 0.62109-1.2773 3.3398-3.7617 1.0273-0.082032 1.0938-0.62891 0.92969-0.73828 1.1211-0.9375 1.1016-0.73438 1.0938-0.3125 1.8945-0.09375 1.0625-0.47656 1.1367-1.8086 0.85156-1.5312 0.21094-1.3242 0.074219-1.1758 0.41797-1.1055 0.70312-1.082 0.73047-1.3359 0.76562-1.1992 0.74219-0.71094 1.1328-1.0352 0.74219-0.82422 0.93359-0.39453 0.98438-0.50391 0.48828-1.582-0.59766-0.875-1.0234-0.11719-1.2461-0.55078-0.94922-0.39844-0.8125-1.2617-0.46484-1.1406-0.54688-0.97656-0.42188-0.92188 0.035156-1.0625 0.77734-0.67578 0.375-0.92969-0.20703-1.2383-0.24609-1-0.48438-0.89062-0.83594-0.55859-0.52344-0.875-1.0469-0.87891-0.60547-0.91406-1.2188-1.2734-0.88672-1.3008-0.54297-0.87109 0.17188-1.9805-0.14453-1.0625-0.25-0.98438 0.19922-1.125 0.25391-1.0391 0.76172-0.96484 0.51953-1.2852 0.77734-2.5938 0.49219-0.92969 1.4023-0.55078 1.1445-0.71484 0.82031-1.6094 0.42188-1.0547 0.4375-2.4219 0.68359-0.81641 0.22266-1.0781 0.67578-0.77734 0.84375-0.82031 0.5625-1.2109-0.11328-1.0078 0.49219-0.89844 0.44922-0.89453 0.96094-0.32812 0.94531-0.75781 1.0156-0.097657 0.98828 0.41797 0.96094 0.37109 0.33594 0.98438 0.34375 1.0312 1.4531 0.30859 1.0156 0.24609 1.0156 0.37891 0.98047 0.57422 0.98828 0.19922 1.1016 0.10156 1.0273-0.050782 1.0273 0.011719 0.48047 0.89453 0.49219 0.875 0.91797 0.42188 0.99609 0.38672 1.0469 0.30859 1.0039 0.22656 1.0312 0.042969 1.0547 0.16797 1.0547 0.046875 1.0391-0.66797 1.0586-0.25 1.1992 0.22266 0.71484 1.0391 1.0312 0.22266 3.5117-0.18359 1.7422 0.56641 1.5898 1 0.99219 0.27344-0.015625 1.0547 0.64844 0.89453 1.2227 0.37891 1.7812 0.9375 0.86328 0.75781 1.0898 0.57031 1.2422 0.88281 1.1055 0.55078 0.97656 0.26953 0.55469 0.89844 0.23047 0.98047-0.19141 1.0234 0.72656 0.76953 1.0117 0.38281 0.39844 1.6641 0.77344 0.71484 1.3359 0.99219z" fill="#0a5394" fill-rule="evenodd"/>
<path d="m179.66 37.824v0.035156l0.1875 1.0234 0.09375 1.0195 0.88672 0.64062 1.0898 0.035156 0.71094 0.75391 0.80078 0.60547 1.0586 0.13672 0.93359 0.52734 0.75391 0.80859 0.95703 0.33594 0.95703 0.3125-0.28516 1.0859-0.054688 1.1094-0.29297 1.0156 0.64062 0.875 0.85156 0.78125 0.75781 0.77344 0.48047 1.0273 0.99219 0.17969 0.96484-0.65625 0.90234 0.44922 0.054688 1.1328 0.53516 0.85156 0.78125 0.80469 0.37109 1.0781 1.0273-0.019531 1.0352 0.011719 1.0156 0.35938 0.94141 0.35156 1.0664 0.26172 0.97656 0.33984 0.97656 0.22266 0.48047 0.92578 1.0039-0.33203 0.98828 0.33203-0.015625 1.0078 0.89453 0.57422 0.89453 0.49219 0.83984 0.58594 0.63672 0.85156-0.17969 1.0273 0.28906 0.96875-0.42578 0.98438 0.085938 1.0156 0.13672 1-0.023437 1.1562-0.0625 1.0117-0.77734 0.78125-0.98438 0.375-1.1562 0.19141-1.0273-0.13672-0.9375 0.36328-0.86719-0.53906-1.0742-0.015625-0.42969-0.96875-0.39844 1.0352 0.54297 0.90625 0.21094 0.99609-0.95703 0.38672-0.55078 0.94141 0.79688 0.64453 0.63672 0.85156 1.0586 0.34375 0.33203 1.0156-0.56641 0.83203 1.0312 0.19531 0.73047 0.69141 1.0156 0.12109 0.95312-0.42578 0.16797 1.2188 0.61328 0.90234 1.0117 0.10547 0.54297 0.92188 0.25 1.0508 0.70703 0.76172 1.0078 0.35547 0.99219-0.15625 0.94922-0.33984 0.51953 0.90625 0.82031 0.625 0.58594 0.88281-0.48047 1.1562-0.32031 1.0352 0.62109 0.85156 0.64453 0.86719 0.29297 1.0586 0.59766 0.83984 0.57812 0.82812 0.62891 0.80469 0.43359 1.1016-0.22656 1.082-0.29688 0.96484-0.36719 0.94922 0.14062 1 0.28516 1.2578 0.058594 1.0742 0.74219 0.76172 0.64844 0.85938 0.23438 1.0039-0.91797 0.47266-0.57812 0.90234 0.96094 0.49609 1.1367-0.015625 0.91016 0.79688 0.94531 0.67578 1.1016 0.49609 0.55469 0.85938-0.61719 1.1055-0.34766 1 0.43359 0.93359 0.55469 0.875-0.37109 0.96484-0.66406 1.1602 0.046875 1.0078 1.0391 0.32031 0.53125 0.93359 0.78516 0.64453 0.99609 0.375 1.0938 0.41797 0.79688 0.85547 0.98438 0.58594 0.69141 0.84375 0.82812 0.69141 0.67969 0.75391 1.3203 0.54297 0.99609 0.51172 0.95703-0.36328 0.83594 0.79688 0.14062 1.0078 0.73438 0.69922 0.12891 1.0625 1.0234-0.47656 0.64844 0.77734 1.0312-0.21484 1.1211 0.40234 1.0039-0.30469 0.41406 0.92188 0.16016 1.0078 0.066407 1.0391 0.011718 1.0039-0.11719 1.0586-0.39844 0.92969-0.023437 1.1992-0.14453 1.1133-0.12109 1.0352-0.28125 1.1055-0.19141 0.98438 0.066406 1.1055 0.30469 0.96484 1.0195-0.18359 0.97656-0.25781 0.58594 0.94141 0.99609 0.72266 0.30078 1.2188 0.48828 0.89453 0.58594 0.82031 1.0312 0.28906 0.82031 0.60547 0.76562 0.69141 0.67578 0.8125 0.96875-0.27344 1.1328 0.15234 1.0039 0.21094 0.97656-0.31641 0.96484 0.29688 1.043-0.078125 0.9375 0.49219 0.77734 0.67578 0.65625 0.87109 0.49609 0.87891 0.85547 0.69141 0.54297 0.875-0.41797 0.96094 0.50391 0.88281 0.41406 0.94141 0.875 0.60938 0.59766 0.80469 0.042969 1.0039 0.21875 1.0117-0.058594 1.0195 0.71094 0.73047 0.64453 0.78516 0.98828 0.35156 0.63281 0.78516-0.011719 1.0312 0.72656 0.69141 0.14453 1.0039 0.51953 0.88281 0.51172 0.88281 0.33203 0.96484 0.96875 0.60547 1.0312 0.28516 1.0195-0.19141 0.95312 0.30469 1.0156-0.070312 0.71094 1.0938 0.68359 0.89844 0.27344 1.0977 0.53516 0.89844 0.34766 1.0117 0.54297 0.94922 1.2852-0.027343 1.0078 0.16797-0.39844 0.98828-0.89062 0.46484-0.30859 1.0078 0.17188 0.99609 0.79688 0.62891 0.18359 1.043 0.1875 1.0156-0.33984 1.0234 0.30859 1.3945 0.27344 0.96094-0.082031 1.0469-0.097657 1.0312-0.28516 1.0508-0.64062 0.90234-0.32812 0.96094-0.83594 0.55469-0.91016 0.48438-0.87891 0.50781-1.0117 0.089844-0.80078 0.64062-0.90234 0.60156-0.92188 0.41797 0.71484 0.71484 0.56641 0.83984 0.59766 0.80469-0.19922 1.0664-0.78125 0.64062-0.92188 0.42969-0.80859 0.66406-1.0391-0.042969-0.89844-0.50781-0.96875 0.39844-0.83984 0.54297-0.48828 0.89062-0.4375 0.90625-0.62109 0.79297-0.85547 0.57812-0.62891 0.86719 0.63281 1.5117-0.20312 1.0078-0.81641 0.63672-1.168-0.13281-0.67969 0.80469-0.93359 0.875-0.60547 0.91016 0.027344 1.0117-1.1172 0.125-1.0273-0.15234-0.8125 0.60547-0.52344 0.9375-0.26953 1.0938 0.35547 0.98047-0.88672 0.75781 1.4336 0.83203 4.2773 0.011719 6.4766 0.015625 5.4922-0.019531 4.0508 0.011719 22.227 0.019531 0.066406 1.0117 0.78516 0.65625 0.86719 0.52734 1.0078-0.015625 0.97266 0.35938 0.96094 0.30859 0.84766 0.53125 1.0117-0.085937 0.95312-0.30078 1.0195-0.046875 0.66797 0.75 1.0352-0.035156 0.96484 0.26562 0.94141 0.40234 0.91797 0.41016 1.0039-0.011719 0.83594 0.59375 0.92969-0.38672 0.63281 0.79688 0.94922 0.41406 0.39062 0.95312 0.92969-0.42969 0.94141-0.39062 1.0312-0.078125 0.875 0.5625 1-0.085938 1.0234 0.089844 0.95703-0.36328 1.0039 0.0625 1.0273-0.066407 1.0078 0.125 0.99219-0.21094 0.78906 0.63281 1.0195 0.41406 0.99609 0.22266 1-0.058594 0.9375 0.375 0.84375 0.56641 0.30469 0.96875 0.55859 0.86328 0.49609 0.89062 0.76562 0.67969 1.0078-0.10547 0.79297-0.64453 1 0.125 0.78906 0.64844-0.003906 1.0586-0.26953 1.0117 0.042969 1.0352-0.17188 1.0156-0.0625 1 0.31641 0.96484 0.79688 0.67188 1.0547 0.039063 0.99219 0.32812-0.32812 0.94922-0.375 0.95703 0.41797 0.95703 0.84375 0.55859-0.23047 1.0938-0.29297 0.99219 0.007813 1.0234-0.35156 1.168-0.24219 1.3242 0.29688 1.2266-0.67188 0.98047 0.73828 0.73047 1.0078 0.33594 0.62109 0.88672 1.0742 0.25 0.61719 0.85156 1.125 0.10547 1.1055-0.0625 1.4453 0.62891 1.1602 0.74609 1.1016 0.39844 0.16797 1.0117-0.43359 0.92969-0.58594 1.0352 0.84375 0.96875-0.14844 1.0234 0.59766 2.0273 1.0117 0.078125-0.23047 1.0391-0.83594 0.9375-0.17578 1.0117-0.97656 0.3125-0.63281 0.78516-0.33203 0.97656 0.39062 0.92188 1.0039 0.27734-0.47656 0.91016 0.74219 0.68359 0.16797 1.0547-0.62891 0.80078-1.375 0.37891-0.42969 0.98828 14.543 0.52734 1.7383-0.058594 10.422 0.066406 1.9688-0.003906 3.8867 0.003906 5.3125-0.03125 2.5312 0.03125 21.422 0.035157 11.727-0.019532 0.72656-0.85156 0.90234-0.66797 0.78125-0.96094 0.96484-0.30469 0.84375 0.66406 0.70312 0.83594 0.91797 0.50781 1.0156 0.007812 0.75781-0.84375 1.1094 0.15234 0.88281-0.57031 1.1992 0.050782 0.28125-1.2461 1.1328 0.15234 1.1758 0.039062 1.3125 0.050781 0.54688-0.85156 0.30078-1.082 1.043-0.33984 0.20703-1.0391 0.26172-1.0273 0.94141-0.32812 0.082031-1.0703 0.55859-0.99609 0.68359-0.79297 0.56641-1.2031 1.0625-0.39062 0.51172-0.89062 0.95703-0.52734 1.1211 0.066406 1-0.007812 0.82812-0.63672 0.91406-0.46484 0.66016-0.78516 0.91797-0.42969 1.0156-0.23438 0.64062-0.77344 0.99219 0.17188 0.91406-0.43359 0.90234 0.43359 1.0078-0.23047 0.98438 0.17578 0.83594-0.58984-0.12109-1.0312 0.33594-0.96484 0.61719-0.875 0.27734-0.98438 0.54297-0.95703 0.83984-0.57031 0.79297-0.63672 0.96875-0.32812 1.0039-0.082031 0.98828-0.15234 0.57031-0.83594 0.73438-0.69141 0.62891-0.78516 0.41797-0.95312 0.59375-0.83984 0.85156-0.54688 0.43359-0.94922 0.6875-0.76562 0.69141-0.78516 0.875-0.58594 1.0391 0.16797 0.45703-0.95312 0.98828-0.16016 0.96484-0.28516 1.0312 0.015625 0.80859-0.59766 0.42578-0.92969 0.26953-0.96484 0.97266-0.26172 0.92578-0.4375 0.79688-0.60938-0.019531-1.0195 0.30469-0.95312-0.10938-1.0078 0.96484-0.51953 1.0117 0.23438 0.93359-0.47656 0.59375-0.82422 0.92969-0.38672 0.91016-0.47656 0.79688-0.68359 1.0039-0.36328 0.83203-0.60938 0.87109-0.57031 0.64453-0.83594 0.73828-0.71484 0.95703-0.36719 0.13281-1.0117 0.65625-0.8125 0.83203-0.55859 0.29297-0.97656 1.0117 0.035157 0.32031-0.95312 0.99609-0.33594 0.875-0.51953 0.90234-0.47656 1.0469-0.074218 0.90625-0.52344 0.67969 0.73438 0.91797-0.53125 1.0234-0.16797 0.92969-0.41797 1.0039 0.16016 0.10938 1.0273-0.6875 0.80078-0.66016 0.82812 0.20312 0.99609-0.85156-0.62109-0.52734 1.043 0.42188 0.94141 0.74609 0.80078 0.5 0.92578-0.875-0.57812-0.58203 1.0156-1.0469-0.035156 0.046875 1.0977-1.0234-0.21484-0.47656 0.93359 0.79297 0.69922-0.93359 0.75-0.98438-0.32812-1.0039-0.24609 0.57422 0.875-0.44922 0.97266 0.92188 0.49219 0.5 0.93359-0.98047 0.45312-0.84766-0.79688-1.0312 0.27734 0.027343-1.0938-0.84375-0.61719-0.53516 0.87891 0.59375 0.84766 0.67969 0.74219-0.46875 0.90234 0.30469 0.97656-0.77344 0.72656 0.30469 0.95703 0.17188 1.0234 0.54297 0.86328 0.50391 0.96094 0.58984 0.8125 0.53125 0.86328 0.98047 0.29297 0.625 0.78516 0.76172 0.67188 0.39453 0.9375 0.25781 1.0078 0.60938 0.79688-0.085937 0.99609-0.53906 0.86328 0.15234 1-0.62109 0.82812 0.25781 0.98828-0.64844 0.82812-0.66797 0.82031-0.82812 0.60547-0.92578-0.47266-0.96484-0.29688-0.44922 0.90625-0.41797 0.96484-1.0234-0.12891-0.92188 0.41406-0.44531 1.0352-0.42188 0.91016 0.089844 1.0312-0.050782 1.0156 0.13281 1.043 0.47266 5.25-0.94141-0.86719-1.2305 0.23438-0.71484 1.3125-0.21875 1.1953-0.0625 1.3008-0.62891 0.8125-0.86328 0.73047 0.17578 1.1875 0.50391 1.2656-0.625 0.83984-0.46484 1.207-0.36328 1.1953 0.62891 0.97266 0.58203 0.93359 0.21484 1.0547 0.48438 0.89453-0.48438 0.90234-0.54688 0.89844-0.77734 0.76172-0.91016 0.44922-0.87109 0.76953-0.70312 0.71875-0.52344 0.96094-0.23438 1.0273 0.22656 1.1875-0.67969 0.78125-0.58203 0.85547-0.89453 0.54297-1.6328 0.74609-0.94141 1.3008-0.73047 0.78516-1.0469 1.0273-0.83594 0.70703-0.97656 0.73047-1.0352 0.87891-0.92969 0.82031-2.2539 0.89844-1.3359 0.35938-1.0781 0.66797-0.98438 0.58203-1.3789 1.4102-0.80078 0.75-1.168 1.0742-1.082 1.0312-2.8633 0.36328-0.73047 0.94922 0.13672 1.2891-0.17188 2.0195-1.2539 1.8398-0.87891 1.7422-0.24219 1.0156-0.57422 1.3633-0.79297 1.0156-0.92578 0.77734-0.52734 1.0352-0.83594 0.5625-0.95312 0.38672-1.0273 0.53125-1.0664 0.20312-1.1055 0.51562-1.0156 0.14453-1.0898-0.027344-1.1016-0.17188-1.0195 0.40234-0.83203 0.58594-0.57031 0.9375-1.1758 0.69922-1.0312 0.12109-0.13672 1.0508-0.054687 1.1016 0.15234 1.1055-0.78906 0.78906-1.0664 0.03125-1.0469 0.41406-0.58984 0.91016-0.34766 1.1172-0.30469 1.1367-0.76172 1.4414 0.085938 1.082 0.99609 0.92969-0.35938 1.0234-0.90625 0.87109-0.82422 0.78125 0.18359 1.1875 0.47656 1.0156 0.67969 0.86719-0.62891 0.78125-0.1875 1.0977 0.41016 1.0469 0.10547 1.0469-0.91406 0.4375-0.28516 0.96875-0.91406 0.41406-0.94531 0.43359-0.88281 0.74219-0.46484 1.2578-0.50781 1.3047 0.003906 1.2734-0.17969 1.3203-0.67188 1.0039-0.72266 0.99219-0.78125 0.625-1.0234 0.16406-0.66797 1.6172-0.10938 0.99609-0.86328 0.51953-1.8516 1.3281-0.37891 0.99219-0.21094 1.0391-1.0117-0.070313-1.125 0.43359-1.0781-0.33203-1.0391 0.35547-1.2383 0.46875-1.207-0.22266-1.2227 0.11719-1.0898 0.13281-1.1445-0.1875-1.0625-0.019531-0.85547 0.61719-1.1289-0.019531-1.0039 0.31641-0.99609-0.25781-0.88672-0.46875-2.5195 0.52734-1.1758 0.058593-1.9648 0.68359-1.2617-0.13672-2.2031 0.48828-2.1016 0.10547-0.89062 0.54688-0.90234-0.62109-0.95703-0.4375-0.82031 0.57812-1.0391-0.35547-0.76172 0.81641-0.36328 1.0156-1.0273-0.58984-1.0078 0.10156-1.2109 0.42188-1.2461-0.15234-1.0898-0.09375-1.0195 0.16406-1.0156 0.125-1.0078-0.003907-1.0352 0.30859-1.293 0.32422-1.0039-0.36719-1.0312-0.30859-1.0781-0.10938-0.88672 0.73438-1.0352-0.16406-1.2617-0.039062-1.0352 0.046875-1.0156-0.27734-1.3242 0.15625-0.94531-0.54297h-1.0156l-0.91406 0.42188-0.95703-0.32422-1 0.058594-0.99219-0.13281-1.207-0.14062-1.0703 0.68359-1.1914 0.25-0.86719 0.82812-1.1406 0.003907-1.1406-0.24609-1.2969-0.11719-1.1797-0.25781-1.5781-0.55078-0.98438-0.53516-1.25-0.10156-0.94531 0.59766-0.28906 1.0156-1.0781 0.1875-1.0742-0.035156 0.28125 1.0547 0.3125 1.1289-0.085938 1.0898-0.66406 0.81641-0.16016 1.0352 0.88281 0.57422 0.66016 1.0547 0.83203 0.67969 1.1133 0.058593 0.93359 0.41406 0.93359 0.57422 0.45703 0.91406-0.14453 1.1406-0.73438 0.75391-0.96875 1.0078-0.66797 0.76953-0.97656 0.41406-0.84766 0.62891-1.0469 0.097656-0.41797 1.4102-0.49219 1.082-0.89062 0.62891 0.12109 1.2773 0.11719 1.2734-0.089844 1.1172-0.011719 1.0117-0.023437 1.168-0.81641 0.68359-0.41797 0.96484-0.24609 1.0586-0.29688 0.96875 0.39062 0.96875 0.24219 1.207 0.28906 1.1953-0.89062 0.65625-1.1406-0.29688-1.043 0.1875-0.73047-0.74219-1.0039-0.22656-0.93359 0.375-1.0352-0.16406 0.10938-1.0352-0.58203-0.86719-0.99219-0.1875-0.80859-0.58594-0.76953 0.66016-0.62891 0.8125-0.86328-0.58594-0.78906 0.64062-1.0156 0.25781-0.85156 0.58594-0.99609 0.097656-1.0273 0.066407-0.36328 1.0898-0.99609 0.24219-0.72266 0.73828-1.0391-0.18359-0.91016 0.41797-0.86328 0.55469-0.59766 0.80469-0.47656 0.88281-1.0156 0.082031-1.0391 0.007812-1.0273 0.1875-0.26562 1-0.85938 0.51172-0.88672-0.47656-0.39453 0.95312 0.019532 1.0469-0.96875-0.27734 0.15234 1.043-0.92969 0.47266-0.62109-0.85156-0.50391 0.86328-0.90625 0.50391-0.79688-0.60547-1.0078 0.078125-0.93359 0.41797-0.84766-0.55859-0.70312 0.72656 0.17969-1.0117-0.48438-0.92578-0.41797 0.99219-0.41406 0.91016-0.042969-1.0391-1.0586-0.15234-0.066406-1.0117-1.0469-0.035156-0.44922-0.91016-0.74609 0.67969-0.63672-0.81641-0.75781-0.71094-0.44141-0.91797-1.0195 0.09375-0.83984 0.67578-0.83203-0.79297-0.96484-0.46094-0.55469-1.0156-0.33203-0.98828 0.51172-0.88672-0.65625 0.76953-0.73438-0.72266-1.0273 0.070312-0.9375 0.40234-0.91406 0.58203-0.69922 0.91797-1.1289 0.37891-1.1445 0.28906-0.13281-1.0312-0.67578 0.87109-1.0234-0.015625-1.1406 0.027343 0.039063 1.043-1.0625-0.10156-1.0234-0.12109 0.81641-0.60547-0.60156-0.83203-0.75391-0.6875-0.9375-0.69531-1.0312 0.23047-0.88672-0.50781-0.79297-0.70312-0.32422 0.97656-0.96484-0.28516-0.9375-0.44141-0.96484-0.30859 0.33984 0.95703-1.082-0.34766 0.34375-0.95312 0.64844-0.79297-1.0781-0.042969-0.80859 0.71094-0.67578-0.73828-1.0781 0.37109 0.80859-0.67969-0.73828-0.75391 0.78516-0.65625 0.80859 0.90234 0.70312-0.76562-0.73438-0.75391-1.0898 0.007813 0.15234-1.0352 1.0586 0.023438 0.20312-0.99219-0.625-0.78125-0.99219-0.32031-0.96094-0.43359-0.015625-1.043-0.61719-1.1016-0.0625-1.0508 0.19531-1.0469-0.41797-0.99219-0.12891-1.0977-0.54297-1.2031-0.44141 1.3086-0.60156 1.4102-0.84375 1.4805-0.88672 1-0.73047 0.77344-0.23047 1.1328-1.1289 0.80859-1.0508 0.55469-1.0742 0.53906-1.082-0.26172-1.625-0.10156-1.2812 0.40625-1.1484 0.49219-1.3164 0.47266-1.668-0.19531-1.1445-0.11328-1.0234-0.14062-1.0742 0.28125-1.0469 0.089844-1.0859-0.11328-0.95703 0.63672-1.2891 0.078125-0.89062 0.46484-0.83594 0.625-1.2031-0.046875-1.0312-0.015625-1.1094 0.17188-1.0625-0.38672-1.0391 0.035157-1.2656 0.085937-1.0273 0.43359-0.74219 0.74609-0.64453 0.88281-0.74219 0.69531-0.89062 0.50781-0.87891 0.61719-0.29297 1.0156-0.64453 0.96875-0.98438 0.57031-0.91797 0.58984-0.90625-0.52344-1.0234-0.3125-1.0781-0.57031-0.97656-0.69141-0.92188-0.85938-0.375-0.97266-0.80859 0.58984-0.80078-0.67188 0.44922-1.0117-0.23047-1.0625 0.57422-0.85547 1-0.61328 0.28516-1.1211 0.085937-1.0977 0.45703-0.99609 0.10547-1.0469 0.22266-1.082 0.23828-1.2695-0.33594-0.95312-0.44922-1.1562 0.097657-1.0352-0.44141-0.99219-0.023437-1.0234-0.40234-1.7422-0.375-1.4922-0.32031-1.0781 0.70703-0.71094-0.19531-1.293-0.26172-1.0352-0.042969-1.043-0.55078-1.1055-0.71484-0.76172-1.0547 0.058594-1.1602-0.57031-1.0977 0.019532-0.92188-0.45312-0.875-0.51172-0.09375-1.1367 0.17578-1.0312-1.0391-0.88672-0.21094-1.0312-0.35938-0.98828 0.03125-1.207-0.52734-0.88281-0.625-1.0117 0.26953-1.4414 0.3125-1.1914-0.09375-1.2109-0.074219-1.0586 0.34766-1.0898 0.27734-1.0469-0.070313-1.168-0.53516-0.84766-0.80859-0.64844-1.3086 0.070312-1.1367-0.25-0.97266-0.53516-0.79297-0.63672-0.82031-0.70703-0.78906-0.64844-0.84375-0.59766-0.78516-0.63281-0.82812-0.5625-0.11719-1.0273-1.0352-0.20703-0.73047-0.71094-0.75391-0.72266-0.98047-0.30078-0.85156-0.97266-1.0352-0.26172-0.77344-0.64844-0.23047-1.1562-1.2422-0.16406-1.082 0.24609-0.82031 0.71875-0.96094 0.41797 0.011719 1.043 0.26953 0.97656-0.22266 1.0234-0.49609 0.91406-1.0234 0.22266-0.99219 0.17969-0.44141 0.95312-0.45312 1.1797-0.14062 1.0625-0.14062 1.0312 0.46094 0.92188-0.10938 1.0547-0.25391 0.97266 0.60938 0.83594-0.55469 0.85938-0.18359 0.98438-0.32812 0.98438-0.28516 0.98047-0.65625 0.77344-0.80859 0.69141-0.60547 0.89844-0.54297 0.88672-0.35547 1.0273-0.035156 1.0234-0.17578 1.3047-0.011718 1.0742-0.20703 1.1016-0.09375 1.1055 0.19531 1.1016 0.039062 1.0117 0.12891 1.0664-0.007813 1.0391-0.046875 1.043-0.12891 1.1094 0.28125 1.1445 0.16406 1.0664-0.12109 1.0586 0.16797 1.0195 0.41016 0.94922-0.90625 0.64844-1.0039-0.0625-1.1797 0.13281-0.61328-0.91406-0.84766-0.63672-0.94922-0.79688-1.1094-0.054687-1.082 0.34766-1.0312 0.34766-0.73047-0.74219-0.65234-0.81641-0.77734-0.65625-0.4375-0.92188-0.17188-1.043-0.089844-1.0039 0.27734-0.97656-0.042969-1.0547-0.26562-1.0586-0.40234-1.043-0.44922-1.668-0.44922-1.2695-0.61328-1.5-0.50391-0.89844-0.99609 0.21484-0.99219-0.33984-1.0508 0.14844-1.0664 0.16016-1.0039 0.019531-1.0625-0.046875-0.94922-0.33203-1.0586-0.19531-1.0547 0.027343-0.97266 0.3125-1.0898-0.20703-0.92578 0.66016-1.2695 0.25781-0.94141-0.43359-0.98438-0.25391-0.87891-0.54688-0.82031 0.73047-0.33203 0.97266-0.19531 0.98828-1.0391 0.53125-1.0156-0.10156-1.2539-0.09375-1.2422-0.046875-1.3867 0.57422-0.92188 0.44141-1.1523 0.23047-0.99609 0.125-1.5586 0.35547-1.7852 1.2422-0.95312 0.51562-1.0195 0.039062-1.0586-0.015625-1.0508-0.38672-0.88281-0.62109-1.0547-0.35156-0.84766-0.57031-0.62891-0.82422-0.87891-0.61719-0.98438-0.82812-0.91016-0.66797-1.1211-0.21094-1.2031 0.066406-1.0234 0.074219-1.0742-0.18359-0.57031-1.25-0.09375-1.1367v-1.3398l-0.49219-0.89844-0.89453-0.625-0.84375-0.54688-0.92188-0.52734-0.85547-0.56641-0.86719-0.64844-0.99219-0.25-0.12891-1.0156 0.86719-0.50391 0.83203-0.59375 1.0273 0.375 1.0547-0.023438 1.0156 0.011719 1.0195 0.29688 0.97656-0.5625 0.80859-0.60547-0.14062-1.0703 0.14453-1.1523-0.29688-0.97656 0.082031-1.0312 1.0586-0.42188 1.25-0.21484 1.0742-0.80859 1.0547-0.60938 0.95312-0.47266 1.0234 0.24219 0.98828-0.17969 1.082-0.0625 0.98438-0.36719 0.61328-1.0625 0.34766-1.1133-0.63281-0.89062-0.34375-0.97656 0.14062-1.1953 1.0469 0.1875 0.98438 0.44922 0.94531-0.38281 0.33203-0.96484 0.96094-0.89844 1.2031-0.39844 0.51172-0.93359 0.86328-0.67188 0.65625-0.80078 0.64844-0.80859 0.57812-0.82422 0.074219-1.0117 1.1211 0.097656 0.99219 0.44141 0.41016-0.99609 0.65234-0.90234 0.91016-0.42969 1.0117-0.10938 0.24609-1.0547 0.58594-0.82031 1.0742 0.082031h1.0195l1.0039 0.40625 1.0977-0.11719 1.0117 0.19531 0.71484 0.71875 0.91797 0.55469 0.57812 0.82812 0.5625 0.84375 0.32422-0.96484-0.027344-1.0742-0.19922-1.0039-0.41797-0.97266-0.050782-1.1484 0.60938-0.83984-0.3125-0.99609-0.42188-0.91016-0.59766-0.9375-0.625-0.85156-0.11328-1.0547-0.46875-1.0312-0.6875-0.92188-0.46875-0.91016-0.42578-0.93359-0.33984-0.96875 0.26953-1.2148-0.91406-0.55469-0.63281-0.92188-0.76172-0.82031-0.85156-0.67969-1.0781-0.43359-0.91797-0.82031-0.77734-0.79688-0.27344-1.1641 0.13672-1.1484 0.019531-1.082 0.23047-1.0312-0.96875-0.60156-0.48438-0.91406-0.089844-1.0664 0.53906-1.5039 0.60156-0.92188 0.78125-0.66016-0.75781-0.82812-0.5-0.87891 0.6875-0.77344 0.98828-0.24219 0.30469-0.96875 0.19922-1.2852 0.33203-1.0508-0.23438-1.0234 0.027344-1.1758-0.53125-0.91016-0.12891-1.0234 0.49609-1.0117-0.13672-1-0.80078-0.74609-0.88672-0.52344-1.0547-0.10156-0.98828-0.35156-1.0781 0.007813-0.99609-0.33203-0.94141-0.39062-0.30859-0.98438 0.007813-1.0898-0.3125-1.1406-0.33594-0.97656-0.90625-0.55078-1.0195-0.14062-0.96484 0.30859-0.91406 0.44531-0.90625-0.45312-0.67188-0.76562-0.51172-1.2969-0.0625-1.0117-0.3125-1.0977-0.47656-0.87891-0.78125-0.70312-1.082-0.375-0.4375-0.91406-0.48047-0.87891 0.33594-0.95312 0.09375-1.0508-0.44141-0.95703-0.57031-0.82031 0.33203-0.98047 0.51172-0.88281 0.27344-1.0664-0.16016-1.1328-0.23828-0.98438 0.38672-1-0.17188-1.4922-0.68359-0.80078-0.73047-0.86328-0.48438-1.0469-1.1328-0.24609-0.50781-0.875 0.15234-1.0234 0.082031-1.1484 0.019532-1.0664 0.14844-1.0195-0.15234-1.0625 0.16406-1.2695 0.10938-1.1523-0.42578-1.1836-0.23828-1.0352-0.31641-0.95703-0.6875-0.74219-0.85938-0.76953-0.28906-1.0703-0.43359-0.99219-0.17578-1.0195-0.42188-0.90625-0.26953-1.0273-0.03125-1.0391-0.13281-0.99609-0.29688-1.0352 0.32031-1.0039 0.003907-1.0039-0.14453-1.043 0.13672-1.1055-1.0977 0.050781-1.0586-0.066406-1.0469 0.03125-0.77344-0.65625-0.99609-0.36328-0.96094-0.38281-1.1055-0.13672-0.31641-1.168 0.085938-1.0898-0.61719-1.1484-0.14844-1.0391-0.51562-0.88672-0.57422-0.91016 0.82812-0.66406 0.41406-1.168-0.42188-1.0938-1.2266-0.10938-1.1133-0.40234-1.0195-0.69922-0.97656-0.23438-1.3086-0.17969-1.0625-0.21875-0.94922-0.375-0.99609-0.78516-0.83984-0.61719-0.99609-0.15234-0.66797-0.76562 0.625-0.80469 0.88672-0.62891 0.82422-0.74609 0.61719-1.0312 1.2852-0.55469 0.19922-0.99609 0.82812-0.66797 1.1602 0.26953 0.87891-0.58594 0.11328-1.1758 0.75-0.78906 0.54688-0.92969 0.52344-1.0312 0.76953-0.8125 0.69922-0.74219-0.16016-1.1055 0.066406-1.4102-0.089844-1.0078-0.78906-0.8125-0.71875-0.78125-0.67578-0.85156-0.83984-2.0508-0.22656-1.6953-0.83594-2.2031-0.31641-1.2188-0.12891-1.3555 0.13672-1.0898-0.11328-1.3164-1.2891-0.43359-1.0156-0.16406-0.98828-0.83594 0.070312-1.1914 0.75781-0.76953 0.84375-0.92188 0.375-1.4531 0.15234-0.98828-0.85547-0.77734-0.60547-1.2227 0.37891-1.2383 0.88281-0.74609 0.64453-1.0664-0.45312-0.91406 0.30078-1.4883 0.19531-2.3086 0.16016-1.0117 0.25-0.97656 0.78125-0.74609 0.48828-0.90625 0.48828-1.3047 0.125-1.6992 0.046875-1.4531 0.31641-1.6133 0.85938-1.0781 1.9062-0.69531 1.0156-1.0938 2.4492-1.6523 1.4258-0.52734 0.57422-1.457 0.27734-1.0664-0.0625-1.0898-0.078125-1.2422-0.082031-1.1758-0.76172-7.4258-0.48438-1.9492-0.1875-1.1758-0.33594-1.0234-0.75-0.875-1.0586-1.0586-0.98047-0.88281-1.1133-0.46484-1.0234-0.03125-1.0859 0.023438-1.6055 0.16406-1.2695 0.33984-1.6445 0.64062-1.0781 0.72266-0.80859 0.63672-0.89062 0.47656-3.5742 1.7227-6.0391 2.9023-4.5 2.7031 0.15234 1.0742 0.14844 1.0039-0.48047 1.2422 0.125 1.1289-0.28516 1.3242 0.011719 1.2969-0.027344 1.6875-0.59766 1.2188-0.67578 0.89062-1.3711 1.1406-1.0117 0.80469-0.89062 0.78516-1.0117 1.2305-2.0625 2.4609-0.72266 0.72656h-1.0898l0.24219 1.5508 0.41016 1.2305 0.94141 0.52344 0.50781 1.0859-0.14453 1.5117-0.41406 0.97266-0.98438 0.18359-1.1602 0.27734-0.94141 0.48047-0.73047 0.77344-0.89062-0.71875-0.49609-1.0117-0.97656-0.96094-0.76562-0.81641-1-0.14062-1.1562-0.47266-1.4883-0.22656-1.0117 0.41406-0.88281 0.55859-1.0742 0.29688-1.3086 0.73828-0.95312 0.88672-0.67969 0.76172-0.80859 0.98047-0.96094 0.83594-0.58984 1.1641-0.027344 1.1289-0.42188 0.98047-0.22656 1.1016 0.21875 1.0391-0.12891 1.0234-0.48047 0.90625-0.58984 0.82422-0.80859 0.85938-0.41797 0.92578-0.85547 0.89844-1.0195 0.42188-0.76953 0.65625-0.66016 0.76562-1.1289 0.125-1.3594 0.23438 0.43359 0.91406 0.24609 1.2344 0.5625 0.96484 0.61328 0.89062 0.62891 0.97656 0.035156 1.168 0.074219 1.2773 0.53125 1.0742 0.12891 1.043-0.32812 1-0.62891 0.91016-0.79688 0.67578-0.91016 0.74219-0.85156 0.83594-0.72266 0.75781-1.1172 0.35938-0.58203 0.91797-0.78125 1.2617-0.44922 0.95703-0.75781 0.84375-1.1406-0.44141-0.97266-0.4375-0.92578-0.41016-0.98047 0.36719-1.0547 0.023438-0.96875 0.38281-1.0273-0.011718-1.0352 0.14844-0.91016-0.60156-1.1523-0.5625-1.0625 0.054687-0.98047-0.21094-1.0352 0.29688-1.0625-0.003907-0.75781 0.96484-0.24609 0.97266-0.29688 0.98438-0.57812 0.89453-0.67578 0.89844-0.78516 1.0352-0.48438 1.0664-0.92578 0.59375-1.1211 0.21484-0.97656 0.44922-1.1719 0.33203-0.96484 0.70703-1.082 0.27734-1.0039 0.027344-1.168-0.0625-1.1289-0.097656-1.4883-0.17969-1.082 0.023438-1.0977-0.11719-1.3477-0.035156-1.0664 0.24609-1.2305-0.0625-0.16016-1.1133-0.69531-0.82031-0.71484-0.82812-0.19141-1.2266-0.78125-1.1172-0.60547-0.85156-0.49609-1.0742-0.49219-1.0586-0.50391-1.1562-0.93359-2.1367-0.82812-0.85547-1.1875-0.95703-0.76172-1.1133-0.61328-0.92188-0.28906-1.2969-0.65625-1.3008-0.51562-0.92188-0.93359-0.51562-0.35938-1.1406-0.13672-1.0352-0.35156-1.1992-0.17969-1.1172 0.050781-1.0742-0.50781-1.0703-0.5-0.90625-0.67188-0.98438-1.1055-0.75-0.22266-1.2891-0.33594-0.99609-0.85156-1.1719-1.0742-0.99609-0.75-0.76562-0.42578-0.96875-0.44922-1.0195 0.22656-1.1953 0.16016-1.0273 0.21484-1.0586-0.24219-1.0547-0.68359-1.0547-0.31641-1.0859-0.26562-1.0781-0.40625-0.99609-0.69922-0.71484-0.625-0.85938-0.20703-0.99609-0.66016-1.0898-0.36719-1-0.23438-1.1094-0.28516-1.0195-0.0625-1.0547 0.22266-1.0625 0.078125-1.0625 0.39844-1.4766-0.11719-1.0391-0.46094-0.88672-0.76172-1.0039-0.32031-1.1445-0.42969-1.1289-0.070312-1.1562 0.59766-0.86719 0.60938-0.85547 0.98047-0.47266 0.64453-0.83594 0.98047-0.48828 0.57031-0.88672 0.60938-0.85547 1.082-0.40625 1.0234-0.24219 0.97656-0.24219 1.0977 0.23438 1.0938-0.11328 0.71484-0.84375 0.70312-0.71875-0.22656-1.1641 0.60156-1 0.85156-0.66406 0.69531-0.92578 0.39453-1.5156 0.36328-1.0508 0.39844-0.95312 0.43359-0.92188-0.015625-1.0781-0.40234-0.95703-0.55469-1.082 0.63672-0.77734 0.69141-0.76562 1-0.14453 1.0508 0.17578 1.0469-0.089843 0.9375-0.41797 1-0.21484 0.30859-1.0117 0.43359-0.95703 0.46094-0.96094-0.050781-1.168 1.0625-0.97656 0.75781-0.74609 1.0039-0.085938 1.2109-0.58203 1.1016-0.42578 1.3125-0.30078 1.0859 0.019532 1.5156 0.10547 1.0469 0.29297 0.86719 0.97266 0.19531 1.0703 0.69922 0.72266 0.74219 0.74219 0.875 0.55469 0.91797 0.81641 0.99219-0.32812 1.1523-0.35547 1.1406-0.28906 1.0273-0.71875 1.2461-0.55859 1.4883-0.25 1.1289 0.066407 0.99609-0.1875 1.0078-0.14453 0.39062-1.0547 0.12891-1-0.050782-1.1641-0.62109-0.79688-1.0781-0.24609-1.1641-0.375-0.87891-0.51953-0.40625-1.1133-1.0703-0.47266-0.89062-0.60156 0.10938-1.0625 0.54688-0.84766-0.19531-1.0117 0.46484-0.89844-0.55469-0.88672-0.48828-1.1953 0.41797-1.0547 0.53906-1.0156 0.89453-0.78125 0.86328-0.58594 0.13281-1.125 0.73047-0.77344 1.0703-0.77344-0.10547-1.0352 0.35938-0.94922 0.90234-0.5625 0.019532-1.1289 0.11719-0.99609 0.77734-0.64453 1.0078 0.41016 1.125-0.10547 1.0625-0.36719 0.34766-0.94141 0.69141-0.85156 0.73828-0.70312 1.0898-0.19922 1.0586-0.40625 1.2383-0.097656 0.79297 0.63281 1.1016-0.10547 0.90625-0.43359 0.87109-0.51172 1 0.082031 0.89453 0.46875 0.96094 0.37891 0.52344 0.87109 0.91797 0.42188 1.0234 0.050781 0.35938-0.96094 0.72266-0.73047 0.93359-0.40234 0.58594-0.875 0.11719-1.0234 0.46094-0.90234 0.36719-0.94531 0.82422-0.59766 0.25391-1.0781-0.42188-0.92969 0.30469-0.98828 0.29688-0.97266-0.015625-1.0664 0.38672-0.94141 1.1875-0.74219 1.2305-0.29688 0.90234-0.625 0.066406-1.0039 0.83203-0.70312 1.4375 0.019531 2.4766-0.44922 2.1602-1.2383 3.3047-0.92578 1.0117 0.67578 1.6367 1.1367 2.1289-0.10938 1.75 2.3047 0.83203 1.5898 0.69531 0.875 0.85938 0.69141 0.55078 0.875 1.1289 1.3945 0.98828 1.168 1.0508 1.3789 1.1016 0.24219 1.6953-0.63672 2.3359-1.7031 1.4219-0.046875 1.2227-0.29297 2.1758-0.71875 1.5078-0.98047 0.62109-1.2773 3.3398-3.7617 1.0273-0.082032 1.0938-0.62891 0.92969-0.73828 1.1211-0.9375 1.1016-0.73438 1.0938-0.3125 1.8945-0.09375 1.0625-0.47656 1.1367-1.8086 0.85156-1.5312 0.21094-1.3242 0.074219-1.1758 0.41797-1.1055 0.70312-1.082 0.73047-1.3359 0.76562-1.1992 0.74219-0.71094 1.1328-1.0352 0.74219-0.82422 0.93359-0.39453 0.98438-0.50391 0.48828-1.582-0.59766-0.875-1.0234-0.11719-1.2461-0.55078-0.94922-0.39844-0.8125-1.2617-0.46484-1.1406-0.54688-0.97656-0.42188-0.92188 0.035156-1.0625 0.77734-0.67578 0.375-0.92969-0.20703-1.2383-0.24609-1-0.48438-0.89062-0.83594-0.55859-0.52344-0.875-1.0469-0.87891-0.60547-0.91406-1.2188-1.2734-0.88672-1.3008-0.54297-0.87109 0.17188-1.9805-0.14453-1.0625-0.25-0.98438 0.19922-1.125 0.25391-1.0391 0.76172-0.96484 0.51953-1.2852 0.77734-2.5938 0.49219-0.92969 1.4023-0.55078 1.1445-0.71484 0.82031-1.6094 0.42188-1.0547 0.4375-2.4219 0.68359-0.81641 0.22266-1.0781 0.67578-0.77734 0.84375-0.82031 0.5625-1.2109-0.11328-1.0078 0.49219-0.89844 0.44922-0.89453 0.96094-0.32812 0.94531-0.75781 1.0156-0.097657 0.98828 0.41797 0.96094 0.37109 0.33594 0.98438 0.34375 1.0312 1.4531 0.30859 1.0156 0.24609 1.0156 0.37891 0.98047 0.57422 0.98828 0.19922 1.1016 0.10156 1.0273-0.050782 1.0273 0.011719 0.48047 0.89453 0.49219 0.875 0.91797 0.42188 0.99609 0.38672 1.0469 0.30859 1.0039 0.22656 1.0312 0.042969 1.0547 0.16797 1.0547 0.046875 1.0391-0.66797 1.0586-0.25 1.1992 0.22266 0.71484 1.0391 1.0312 0.22266 3.5117-0.18359 1.7422 0.56641 1.5898 1 0.99219 0.27344-0.015625 1.0547 0.64844 0.89453 1.2227 0.37891 1.7812 0.9375 0.86328 0.75781 1.0898 0.57031 1.2422 0.88281 1.1055 0.55078 0.97656 0.26953 0.55469 0.89844 0.23047 0.98047-0.19141 1.0234 0.72656 0.76953 1.0117 0.38281 0.39844 1.6641 0.77344 0.71484 1.3359 0.99219 0.72656 0.55469" fill="none" stroke="#fff" stroke-linecap="round" stroke-linejoin="round" stroke-miterlimit="10"/>
<path d="m134.87 114.13c0 3.5898-2.9102 6.5-6.5 6.5-3.5898 0-6.5-2.9102-6.5-6.5 0-3.5898 2.9102-6.5 6.5-6.5 3.5898 0 6.5 2.9102 6.5 6.5" fill="#28c028" fill-rule="evenodd" stroke="#000" stroke-linecap="round" stroke-linejoin="round" stroke-miterlimit="10"/>
<path d="m136.04 137.16v-16.469h5.3438c2.0195 0 3.3359 0.085938 3.9531 0.25 0.9375 0.25 1.7227 0.79297 2.3594 1.625 0.63281 0.82422 0.95312 1.8867 0.95312 3.1875 0 1.0117-0.18359 1.8672-0.54688 2.5625-0.36719 0.6875-0.83594 1.2305-1.4062 1.625-0.5625 0.38672-1.1367 0.64062-1.7188 0.76562-0.79297 0.16797-1.9375 0.25-3.4375 0.25h-2.1719v6.2031zm3.3281-13.672v4.6719h1.8125c1.3125 0 2.1875-0.085937 2.625-0.26562 0.44531-0.17578 0.79688-0.44531 1.0469-0.8125 0.25-0.36328 0.375-0.78906 0.375-1.2812 0-0.59375-0.17969-1.082-0.53125-1.4688-0.35547-0.39453-0.79688-0.64062-1.3281-0.73438-0.39844-0.070312-1.1953-0.10938-2.3906-0.10938zm12-2.7969h3.3125v8.9219c0 1.418 0.039062 2.3359 0.125 2.75 0.14453 0.67969 0.48438 1.2188 1.0156 1.625 0.53906 0.40625 1.2734 0.60938 2.2031 0.60938 0.9375 0 1.6445-0.19141 2.125-0.57812 0.47656-0.38281 0.76562-0.85938 0.85938-1.4219 0.10156-0.5625 0.15625-1.4922 0.15625-2.7969v-9.1094h3.3281v8.6562c0 1.9688-0.09375 3.3672-0.28125 4.1875-0.17969 0.8125-0.50781 1.5-0.98438 2.0625-0.48047 0.5625-1.125 1.0117-1.9375 1.3438-0.8125 0.33203-1.8711 0.5-3.1719 0.5-1.5742 0-2.7656-0.18359-3.5781-0.54688-0.8125-0.36328-1.4531-0.83203-1.9219-1.4062-0.46875-0.58203-0.77734-1.1914-0.92188-1.8281-0.21875-0.94531-0.32812-2.3438-0.32812-4.1875zm27.156 10.422 3.2344 1.0156c-0.5 1.793-1.3281 3.125-2.4844 4-1.1484 0.875-2.6016 1.3125-4.3594 1.3125-2.1875 0-3.9844-0.74219-5.3906-2.2344-1.4062-1.5-2.1094-3.5469-2.1094-6.1406 0-2.7383 0.70312-4.8633 2.1094-6.375 1.4141-1.5195 3.2812-2.2812 5.5938-2.2812 2.0078 0 3.6445 0.60156 4.9062 1.7969 0.75 0.69922 1.3125 1.7109 1.6875 3.0312l-3.2969 0.78125c-0.19922-0.85156-0.60547-1.5234-1.2188-2.0156-0.61719-0.5-1.3672-0.75-2.25-0.75-1.2188 0-2.2109 0.4375-2.9688 1.3125-0.76172 0.875-1.1406 2.2969-1.1406 4.2656 0 2.0742 0.375 3.5547 1.125 4.4375 0.75 0.88672 1.7227 1.3281 2.9219 1.3281 0.88281 0 1.6445-0.28125 2.2812-0.84375 0.63281-0.5625 1.0859-1.4414 1.3594-2.6406zm20.922 6.0469h-3.6094l-1.4375-3.7344h-6.5781l-1.3594 3.7344h-3.5312l6.4062-16.469h3.5156zm-6.1094-6.5156-2.2812-6.1094-2.2188 6.1094zm7.9688 6.5156v-16.328h3.3281v13.547h8.2656v2.7812zm14.047 0v-16.328h3.3281v13.547h8.2656v2.7812zm13.953 0v-16.469h5.3438c2.0195 0 3.3359 0.085938 3.9531 0.25 0.9375 0.25 1.7227 0.79297 2.3594 1.625 0.63281 0.82422 0.95312 1.8867 0.95312 3.1875 0 1.0117-0.18359 1.8672-0.54688 2.5625-0.36719 0.6875-0.83594 1.2305-1.4062 1.625-0.5625 0.38672-1.1367 0.64062-1.7188 0.76562-0.79297 0.16797-1.9375 0.25-3.4375 0.25h-2.1719v6.2031zm3.3281-13.672v4.6719h1.8125c1.3125 0 2.1875-0.085937 2.625-0.26562 0.44531-0.17578 0.79688-0.44531 1.0469-0.8125 0.25-0.36328 0.375-0.78906 0.375-1.2812 0-0.59375-0.17969-1.082-0.53125-1.4688-0.35547-0.39453-0.79688-0.64062-1.3281-0.73438-0.39844-0.070312-1.1953-0.10938-2.3906-0.10938zm26.859 13.672h-3.6094l-1.4375-3.7344h-6.5781l-1.3594 3.7344h-3.5312l6.4062-16.469h3.5156zm-6.1094-6.5156-2.2812-6.1094-2.2188 6.1094zm0 0" fill="none" stroke="#fff" stroke-linecap="round" stroke-linejoin="round" stroke-miterlimit="10" stroke-width="2"/>
<path d="m136.04 137.16v-16.469h5.3438c2.0195 0 3.3359 0.085938 3.9531 0.25 0.9375 0.25 1.7227 0.79297 2.3594 1.625 0.63281 0.82422 0.95312 1.8867 0.95312 3.1875 0 1.0117-0.18359 1.8672-0.54688 2.5625-0.36719 0.6875-0.83594 1.2305-1.4062 1.625-0.5625 0.38672-1.1367 0.64062-1.7188 0.76562-0.79297 0.16797-1.9375 0.25-3.4375 0.25h-2.1719v6.2031zm3.3281-13.672v4.6719h1.8125c1.3125 0 2.1875-0.085937 2.625-0.26562 0.44531-0.17578 0.79688-0.44531 1.0469-0.8125 0.25-0.36328 0.375-0.78906 0.375-1.2812 0-0.59375-0.17969-1.082-0.53125-1.4688-0.35547-0.39453-0.79688-0.64062-1.3281-0.73438-0.39844-0.070312-1.1953-0.10938-2.3906-0.10938zm12-2.7969h3.3125v8.9219c0 1.418 0.039062 2.3359 0.125 2.75 0.14453 0.67969 0.48438 1.2188 1.0156 1.625 0.53906 0.40625 1.2734 0.60938 2.2031 0.60938 0.9375 0 1.6445-0.19141 2.125-0.57812 0.47656-0.38281 0.76562-0.85938 0.85938-1.4219 0.10156-0.5625 0.15625-1.4922 0.15625-2.7969v-9.1094h3.3281v8.6562c0 1.9688-0.09375 3.3672-0.28125 4.1875-0.17969 0.8125-0.50781 1.5-0.98438 2.0625-0.48047 0.5625-1.125 1.0117-1.9375 1.3438-0.8125 0.33203-1.8711 0.5-3.1719 0.5-1.5742 0-2.7656-0.18359-3.5781-0.54688-0.8125-0.36328-1.4531-0.83203-1.9219-1.4062-0.46875-0.58203-0.77734-1.1914-0.92188-1.8281-0.21875-0.94531-0.32812-2.3438-0.32812-4.1875zm27.156 10.422 3.2344 1.0156c-0.5 1.793-1.3281 3.125-2.4844 4-1.1484 0.875-2.6016 1.3125-4.3594 1.3125-2.1875 0-3.9844-0.74219-5.3906-2.2344-1.4062-1.5-2.1094-3.5469-2.1094-6.1406 0-2.7383 0.70312-4.8633 2.1094-6.375 1.4141-1.5195 3.2812-2.2812 5.5938-2.2812 2.0078 0 3.6445 0.60156 4.9062 1.7969 0.75 0.69922 1.3125 1.7109 1.6875 3.0312l-3.2969 0.78125c-0.19922-0.85156-0.60547-1.5234-1.2188-2.0156-0.61719-0.5-1.3672-0.75-2.25-0.75-1.2188 0-2.2109 0.4375-2.9688 1.3125-0.76172 0.875-1.1406 2.2969-1.1406 4.2656 0 2.0742 0.375 3.5547 1.125 4.4375 0.75 0.88672 1.7227 1.3281 2.9219 1.3281 0.88281 0 1.6445-0.28125 2.2812-0.84375 0.63281-0.5625 1.0859-1.4414 1.3594-2.6406zm20.922 6.0469h-3.6094l-1.4375-3.7344h-6.5781l-1.3594 3.7344h-3.5312l6.4062-16.469h3.5156zm-6.1094-6.5156-2.2812-6.1094-2.2188 6.1094zm7.9688 6.5156v-16.328h3.3281v13.547h8.2656v2.7812zm14.047 0v-16.328h3.3281v13.547h8.2656v2.7812zm13.953 0v-16.469h5.3438c2.0195 0 3.3359 0.085938 3.9531 0.25 0.9375 0.25 1.7227 0.79297 2.3594 1.625 0.63281 0.82422 0.95312 1.8867 0.95312 3.1875 0 1.0117-0.18359 1.8672-0.54688 2.5625-0.36719 0.6875-0.83594 1.2305-1.4062 1.625-0.5625 0.38672-1.1367 0.64062-1.7188 0.76562-0.79297 0.16797-1.9375 0.25-3.4375 0.25h-2.1719v6.2031zm3.3281-13.672v4.6719h1.8125c1.3125 0 2.1875-0.085937 2.625-0.26562 0.44531-0.17578 0.79688-0.44531 1.0469-0.8125 0.25-0.36328 0.375-0.78906 0.375-1.2812 0-0.59375-0.17969-1.082-0.53125-1.4688-0.35547-0.39453-0.79688-0.64062-1.3281-0.73438-0.39844-0.070312-1.1953-0.10938-2.3906-0.10938zm26.859 13.672h-3.6094l-1.4375-3.7344h-6.5781l-1.3594 3.7344h-3.5312l6.4062-16.469h3.5156zm-6.1094-6.5156-2.2812-6.1094-2.2188 6.1094z" fill-rule="evenodd"/>
</g>
</svg>
