<?xml version="1.0" encoding="UTF-8"?>
<svg width="500pt" height="420pt" version="1.1" viewBox="0 0 500 420" xmlns="http://www.w3.org/2000/svg">
<g id="a">
<rect width="500" height="420" fill="none"/>
<path d="m469.06 122.92-1.9062 1.1758-2.1172 0.79297-2.4297 0.78516-0.0625 1.2578 1.0586 1.0938 0.52344 1.3047-0.48828 1.3789-1.5508 0.91016-0.039063 1.7344-0.92188 2.3359-1.0039 0.91797-0.36328 0.99609 0.76953 1.3477 0.26562 1.0391-0.046875 1.1133-0.39453 1.4219-1.7148 2.2188-1.2852 1.3008-1.082 0.69922-0.70703 1.0156 0.49219 1.2344 0.69531 1.0039 0.38281 1.1562 0.57422 0.96094 0.42188 1.3516 0.125 1.1328-0.94922 0.83594-1.3008 0.64062-0.15625 1.125-0.70312 1.875-0.75781 1.3906 0.38672 0.92578 1.2461 0.26562 1.0977 0.45312 0.94531 0.79297 0.83203 0.94531 0.57031 0.86328-0.60938 1.3672-1.3867 1.4922 0.65234 1.3906 0.92578 1.125 1.2578 1.0312 1.0469 0.78516-1.5508 0.86719-0.60547 0.83203 0.8125 0.99219-0.98047 0.51172-0.97266 0.26953-0.83984 0.59375-0.60547 0.875-0.47656 1.2539-0.85547 0.65625-0.5 0.94922-1.457 0.42969-1.1055 0.26953-0.38672 1.0391-0.21094 1.1602-0.88672 0.63281-1.1875 0.03125-1.0117 0.42578-0.67578 0.86719-0.21484 0.98438-0.63281 1.1875-0.79688 0.82422-0.73438 1.1133-0.023438 1.3789 0.11719 1.3008 0.35547 1.2109 0.23828 1.375-0.33594 1.1914-1.4844 0.57422-0.85156 1.2969-0.31641 0.96094-1.0547 0.75391-0.93359 0.54297-0.92969 0.64844-1.4375 1.2539-3.0391 0.79688-1.0469 0.60938-0.70312 0.76562-0.82812 2.1875-1.1914 1.5977-1.6523 1.0508-1.4844 0.23047-1.5664 1.418-1.2656 2.6016-1.2695 2.6914-3.207 2.5391-2.9414 0.87891-2.875-0.33203-3.8047-0.67188-2.7617 0.30078-2.2188 0.30078-1.3594-0.003906-1.9414 0.67188-1.5664 1.5664-0.44531 1.5547v1.9492l0.85938 2.082 1.3789 2.543-0.074218 1.582-0.59766 1.4766-1.043 2.5352-1.1953 2.7617-1.043 1.8633-1.9922 0.57031-1.2891-0.27344-2.0898-0.82031-2.3125-0.59375-1.8828 0.042968-1.0117 0.42578-5.2109 0.46094-1.6211 0.35547-1.2852-0.20703-1.0039 0.14062-0.57422 0.91016-0.09375 1.7188 0.47656 1.4297 0.85156 1.8945 0.4375 1.5195 0.87109 1.9609 0.51562 1.1602 0.11328 2.1562-0.67969 1.8125-0.98438 0.60547-0.94531 0.71875-0.94531 0.94531-0.98047 0.83203-1.25 0.49219-1.4023 0.625-1.7422 1.4336-0.5 0.98047-0.26562 1.3594-1.5742 0.95312-0.66797 1.2656 0.62109 1.1211 0.53906 0.85547-1.2539 1.0781-0.28906 1.457-0.24609 1.1914-1.3633-0.25-0.085937 1.1211-0.12891 0.99609-0.74219 0.69141-1.0742 0.35547-0.61719 1.1953-0.19141 1.1875-1.0039 0.42188-0.66016 0.84375-1.1094 0.35156-1.0469 0.87109-1.1523-0.11328-1.4492 0.44531-1.2148 0.26562-0.8125 0.61719-1.1445 0.26562-1.0742-0.12109-0.60547 0.98047-1.25 0.47656-1.0117 0.50391-1.0117 0.11328-1.1445 0.058594-1.0352 0.22266-0.98828-0.30078-1.0117 0.28516-1.3477 0.17969-0.71875 0.8125-1.3828-0.57422-0.94531-0.81641-0.80859 0.73047-1.1875 0.24609-1.2383 0.039063-0.82812 0.61719-0.47266 1.2227-0.71484 1.1875-0.58594 1.1016-0.89844 1.1367-0.80469 1.1641-1.4336 0.058594-1.4336-0.085938-1.1328-0.23828-0.64844 0.97266 0.023437 1.3008 0.25391 1.0469 0.20312 1.2031-0.52734 0.90234-0.30078 1.207 0.60547 1.1953-0.054687 1.3125-0.49219 1.3125-1.0391 0.57422-1.8047 0.26953-1.1172-0.26953-1.1133 0.66406-1.4805 0.10547-0.89844 0.72656-0.71484 1.3164-0.68359 0.73828-0.84766 0.875-0.027344 1.7461-0.96484 2.2578-0.16406 1.7305-0.28125 1.1914-1.8086 2.7539-0.67578 1.6523 0.51172 0.99609 0.85938 0.54688 1.7344 1.1484 0.53516 1.1758-0.35156 1.418-0.63281 1.3789-0.65625 1.2578-1.1289 0.79688-1.2461 0.70703-1.2461 0.84766-1.0117 1.8867-0.035156 1.5234 0.58984 1.5234 0.32031 1.3594 0.85938 1.2383 1.3242 0.73047 0.76953 0.66406-0.23047 1.2188-0.82422 0.875-0.69922 1.0195-0.39062 1.2383 0.30078 1.1992 0.35547 1.2539 0.34375 0.98047 0.42969 1.2188-0.10547 1.0898 0.070312 1.1133-0.53906 0.84766-1.1445-0.03125-0.68359 0.81641 0.92188 1.0703 0.63672 0.96875 0.17578 1.0156-1.0352 0.17969-1.2695 0.67188-1.1641-0.4375-1.082-0.011719-1.0352-0.38672-0.74219 0.70312-0.77734 0.77344-1.1172 0.37109-1.0977 0.20312-0.21094 0.98828-0.48828 0.92188-0.14453 1.043-0.64453 1.0391-0.31641 0.98438-0.83203 2.1094-0.55859 1.4688-0.16797 1.375 0.18359 2.1133-0.019532 1.1523 0.19531 1.1133-0.058594 1.3398-0.44922 1.375-0.65625 0.89453-0.86328 0.83594-0.86719 0.83594-0.88281 0.66797-0.71484 0.86328-0.69922 0.87891-0.82812 0.91016-1.3164 0.36719-1.2695-0.32031-1.0039 0.55469-1.6562 4.207-0.33984 1.0508 0.23438 0.98438-0.24219 1.125-0.69141 0.85938-1.293 0.15234-1.0234-0.28125-0.92188 0.88672-0.86328 0.56641-0.45312 0.90234-0.33984 1.7422-0.625 1.3906-1.2461 0.94922-1.1562 0.64453 0.14844 1.0859-0.32812 1.0859-0.78516 0.68359-1.0781 0.19922-0.95703-0.45703-0.99609-0.14844-1.0078-0.1875-1.2422 1.1094-1.1133-0.066407-0.89844-0.63281-1.7148-0.59766-1.3242 0.29688-0.74609 1.0703-1.6445 0.83203-1.7539 0.44922-1.707-0.32031-1.5938-0.28516-1.0508-0.007812-1.4414 0.29688-1.4805 0.41406-1.5742 0.14844-1.0117-0.24219-0.98828-0.30078-1.0859-0.12109-1.25-0.019531-1.0117-0.19531-1.0078-0.29688-1 0.55469-0.91406 0.62109-0.90625 0.95703-1.0156 0.25391-0.98828-0.375-1.0898 0.066407-1.1641 0.16016-0.97656 0.30469-1 0.38672-0.98828-0.51953-1.0742-0.16797-1.2227-0.042969-1.0938-0.35156-0.4375-0.98438-0.32031-0.99219-1.043-0.25781-0.99609 0.21094-4.4922 2.5703-1.707 0.11328-1.6484-0.39453-1.2969 0.30078-1.5312 0.80859-1.7617 0.96484-1.5938 0.42969-1.4727-0.35938-1.0508-0.19922-1.2031-0.011718-1.3008 0.17188-1.6562 0.3125-1.9688 0.28516-1.3828 0.55859-4.2773 0.30859-0.80859 0.81641-1.1445 0.14453-0.9375 0.55078-1.0703-0.4375-0.73047-1.1211-1.0312-0.16797-1.1406-0.13672-0.41797-0.92969-0.92969 0.60547-0.81641 0.68359-1.0234 0.41406-1.0625 0.082032-0.70703-0.77734-1.1211-0.4375-0.76172 0.86719-0.4375 0.99609-0.96484 0.51562-0.52734 1.2461-0.078125 1.0312-0.32422 1.2109-1.2227-0.25781-0.61719-0.93359-0.65234-1.3555-0.90625-0.85156-1.043 0.17969-0.80859 0.94531-2.2656 1.0547-1.0469 0.10547-1.1328 0.14453-1.5508-0.24609-1.1992-0.31641-1.2852 0.33594-1.2383-0.58984-1.3164-0.66406-0.78125 0.84375-1.0664 0.34766-1.0977-0.24609-1.0312 0.19141-1.1328 0.33594-1.2344 0.089844-1.5273 0.62891-1.2461 0.44922-1.1016 0.64062-0.84766 0.79688-0.23438 1.3086-0.79688 0.64453-1.0273-0.79688-0.69141-0.74609-1.0781-0.79688-0.31641-1.0469-1.2031-0.51953-1.0273 0.027343-1.1016-0.17969-1.0781 0.36328-0.95312-0.49219-0.97656 0.5625-0.86328 0.53125-1.2812 0.066406-1.125-0.20312-2.3672-0.21094-1.1602-0.55078-2.2969 0.4375-1.6719-0.054687-1.168 0.18359-1.3984 0.25391-1.0039-0.78516-0.070312 1.2422-1.1367 0.32812-1.1602-0.03125-0.98438 0.35938-1.1367-0.53906-0.83984-1.0195-1.25-0.15234-1.0938-0.074218-1.0234-0.15234-1.4336-0.11328-1.1016 0.28125-1.1367-0.76172-0.75-0.69141-1.1797 0.042968-0.81641 1.0664-1.2422-0.089844-0.89062-0.54688-1.1602-0.39453-1.5586 0.03125-1.4297-0.82812-1.3242 0.11328-1.9414 1.0664-0.88281 0.73828-1.1602 0.58594-1.6484-0.12109-1.8281-0.13281-0.21484 1.1914-0.83984 1.1641-0.75781 0.91016-1.2812 0.20312-1.2617-0.36719-1.4648-0.16406-1.043-0.13281-1.0391-0.44922-1.4688-0.51953-1.0859-0.34766-1.8555-0.29297-0.97266-0.78125-0.63672-0.92578-1.3789-0.48828-1.3984 0.29297-1.6602 0.29297-1.3594 0.29688-0.88281-1.3711-0.046875-2.0469-1.5117-0.19531-1.2188 1.2188-1.7539 0.58594-1.3516 0.89453-1.2383 0.74219-0.10547 1.0742-0.45703 1.1172-1.4102-0.44922-1.3398-0.32422-0.83203-0.87891-1.3398-0.27344-0.78516 1.3359-1.0156 1.293-1.0586 0.28516-0.86719-0.72266-0.98438-0.23047-1.0898 0.27344-1.0234 0.25781-1.0352 0.85938-0.70312 0.77344-1.2305 0.050781-0.85156-0.80078-0.43359-1.1484-0.8125-0.94141-1.7344-1.6445-1.4141-1.6367-0.55078-0.86328-0.82812-0.72266-0.98047-0.20312-1.0273-0.96484-1.9453-0.89844-0.92969-0.51562-1.1602-0.023438-1.5703 0.47266-1.0469 0.25391-1.625-0.19922-1.0078-0.16016-0.94141 0.46094-0.97656 0.63281-0.83203-0.58984-1.8398 0.42969-0.91016 1.0078-0.90234 0.54297-1.1797-0.28516-0.85938-0.52734-0.35547-1.0273-0.98047-0.42578-0.53906-0.85156-0.79688-0.61328-1.0156-0.13281-0.96484 0.39453-1.1172 0.0625-0.99219-0.15625-2.4453-1.3555-0.95312-0.52734-0.54688-1.0273-0.76953-0.69141-0.99609-0.19922-0.69141-0.77734-0.83203-0.80859-1.9414-1.5117-1.6055-1.4844-1.0156-0.36328-0.9375-0.44531-0.55859-1.2852 0.13672-1.3711 0.054687-1.0508-1.2383-0.88672-1.5273-1.3711-1.3242-0.32422-1.3984-1.1562-0.26953-1.4531-0.96875-1.3711-0.84766-1.4297-0.41797-1.5547 0.49609-2.9375 0.29688-1.5391-0.95312-2.4492-1.3008-2.4062-1.4844-1.5391-1.2305-1.0391-1.9844-1.1367-1.2305-0.64453-1.6094-0.88672-1.2656-1.1523-0.45312-1.3281-0.55078-1.6055-1.375-2.2695-0.63672-1.0352-0.011719-1.1133 0.074219-1.1094 0.36328-0.99609 0.84375-0.69141-0.19922-1.0469-0.36719-0.95312 0.75781-0.94141 0.91016-0.41406 0.98828-0.74609 0.875-1.9648 0.32031-1.2266 0.13672-1.3789-0.19531-1.043-0.32422-1.0078-0.16406-1.3594 0.097657-0.99609 0.23438-1.4688 0.625-1.2656 0.95312-0.9375 0.64844-2.6758 0.59766-2.6055-0.046875-1.7773-0.59766-0.90234 0.24609-1.5117 0.52734-1.4141 0.91797-2.2031 0.875-2.6367 0.5-1.1484 0.078125-1.0508 0.99219-0.50781 2.5273 1.9297 1.2891 0.91016 1.2422 0.35156 1.0938 0.17188 1.8477 0.046875 1.3008-0.63281 0.21484-1.8867-0.36719-1.0312 0.4375-1.0508 1.2109-1.1406 0.24609-1.668 0.12109-1.1055 0.097657-1.3555 0.47266-1.1953 0.39844-1.1914 1.0195-1.1719 0.34766-1.0352-0.36719-1.0352-0.42188-1.2617-0.16016-1.2305-0.042969-1.0859 0.87109-1.4219 0.73438-0.71875 0.34766-1.1836 0.74219-1.293 0.4375-0.92969 0.15625-1-0.27734-1-0.21094-1.4727-1.1016-0.50391-1.9727-0.96484-0.94531-0.67188-1.3516-1.1406-1.0547-1.2305-0.75391-0.89453-1.5703-0.44922-1.1758-0.21875-2.9805-0.31641-1.4688 0.31641-1.3672 0.23047-1.1055-0.23047-1.2461-0.38672-1.5781-0.34766-1.3008-0.42188 0.21094-1.082 1.3203-0.78516 1.8164-0.89062 2.8867-0.89062 2.9844-1.2305 0.51562-0.875 0.63281-1.0625 0.76953-0.83984 0.089844-1.2148-0.15234-1.0625-0.18359-1.2969-0.25391-1.668-0.10938-2.7812-0.48828-0.9375-0.90234-0.46094-0.92969-0.61328-0.60156-0.91797-0.60547-1.0273-0.75-0.76172-0.98438-0.85938-0.79688-0.62891-0.9375-1.0273-0.72656-0.97656-0.50391-1.1406-0.80078-1.2109-0.40625-1.0469 0.070313-1.0898-0.66406-0.87891-0.875-0.49219-1.5195-1.1367-0.96484-1.1758-0.40234-1.4219-0.078125-1.0078-0.089844-1.0352 1.6133-2.043 0.75391-0.76953 0.67969-0.97266 0.20312-1.0508-0.44922-1.3359-0.87891-1.0898-0.68359-0.87891-0.98828-0.48828-0.027344-1.125-0.10547-1.1523 0.32422-1.4766 0.55078-2.1016 0.14062-1.1367 0.30469-1.3164 0.77344-1.3594 0.85156-0.71875 0.78125-0.71875 0.53516-1.1445 0.87891-1.5156 1.0547-1.7773 0.20703-1.0625 0.57422-1.0195 0.75-0.72266 0.42969-1.0234 1.1875-0.40625 1.0469-0.23828 0.47656-0.94922 0.44141-0.89844 0.9375-0.97266 0.8125-0.68359 0.98438-0.39844 0.69141-1.0273 1.3867-0.21875 1.1328-0.58984 1.668-1.0742 1.2031 0.039063 1.0273 0.11719 1.0156-0.55469 1.0586-0.25391 0.97656-0.30469 0.83984-0.57031 0.86328-0.60547 1.5703-0.98438 0.63672-0.92188 0.22656-1.1836 0.042969-1.1641 1.1484-0.0625 1.0703-0.55469 0.84766-0.77734 0.89844-0.44531 0.89844-0.58984 1.1719-1.0977 0.69531-0.94141 0.59766-1 1.1016-0.12891 1.6094 1.0547 1.0078 0.003906 0.82031-0.57422 1.1328-0.11719 0.89844 0.48047 0.78516 0.66797 0.98438 0.19531 0.96875-0.32812 1.0039-0.51953 1.0352 0.35938 0.77734 0.64062 1.8398 0.51562 1.043-0.023438 1.0586-0.42578 1.832 0.5 1.1289 0.26172 0.97266-0.26172 0.95312-0.41797 1.0039 0.17188 0.95312 0.41797 1.1055-0.51172 0.63281-0.77734 0.39062-0.99609 0.15625-1.0352-0.003906-1.0703-0.20703-0.98047 0.91016-0.55078 0.92578-0.46094 1.1328 0.027344 1.0234 0.070313 0.71094-0.75391 0.99219-0.16016 1.0469 0.11328 1.0078 0.20312 1.0391 0.039063 1.9219 0.21484 1.8047 0.38672 1.3125 0.28516 1.3789 0.097656 1.0391-0.19922 0.87109-0.55469 1.043 0.42188 0.97266 0.34375 1.0273-0.51953 0.47266-1.0039 0.37891-1.2148 0.28516-1.1523 0.75781-0.84375 0.80078-0.83594 0.44531-0.98047-0.066406-1.3125 0.074219-1.168 0.039062-1.1055-0.058594-1.3555-0.19922-1.8164-0.46094-1.4062-0.32812-1.2266 0.59375-1.4688 0.80859-1.3047-0.66406-0.98438-0.98828-0.76562-0.85156-0.57031-1.0352-0.42188-1.3984-0.53516-0.75781-0.75391-0.36719-1.0664-0.019531-1.4531-0.68359-1.2617-0.60547-1.8633-0.42969-0.93359-0.98438-0.69141-0.82812-0.88281-0.29297-1.3438-0.27734-1.2148-0.92578-1.4414-0.78906-0.6875-0.015625-1.4102 0.12891-1.0352-0.32422-1.1562 0.64844-0.95703 0.88672-0.61328 0.71094-0.74609 40.301 0.050782 4.7656-0.16016 2.7109 0.019532 25.84 0.16406 5.3945-0.011719 10.645 0.003907 14.559-0.078125 6.9336 0.085937 26.008 0.007813 4.7344 0.015625 27.934 0.066406 32.125-0.046875 0.73047-0.79688 0.96484-0.97266 1.3125-1.3984 0.76172-0.94531 1.418 0.81641 1.0781-0.45312-0.13672-1.5547 0.47656-1.4922 0.58594-0.97266 0.90234-0.59766 1.1562 0.73047 1.4727 0.69922 0.83594 1.125 1.0352 0.95703 0.60156 1.2383 1.5078-0.10156 0.74609 0.89844 1.3086-0.13672 1.4492 0.44141 1.0664 0.52344 0.79297-0.94141 0.58594-1.1211 1.1289 0.32812 2.1211-0.27344 1.25-0.91406 0.76172-0.68359 1.043-0.13672 1.043 0.49609 1.5977-0.19141 1.4258-1.1094 0.125-1.0938-0.77344-1.2109 1.1328-0.36719 1.5898 0.58594 1.1328 0.007812 1.6523-0.21875 1.5039 0.55859 0.78125 0.72266 1.2227-0.51172 1.3945-0.47656 1.043-1.1367-0.18359-1.332 0.23828-1.3516 0.73438-1.1172 1.0195-0.65234 0.92969-0.42578 1.1914-0.078125 0.0625-1.1484 0.21484-1.4648 0.44141-0.94922 0.007812-1.293 0.90234-0.45312 1.2188-0.22266 0.73047-0.80078-0.16406-1.2656 0.38672-1.668 1.168-1.1133 0.35938-1.6055 0.17969-1.0352 1.2227-0.45312 0.875-1.0859 0.79688-1.9805 0.64453-1.1445 1.1328-0.19531 1.4844-0.65234 0.41406-1.3203 0.99219-1.1133 1.4297-1.0859 1.1914-0.36328 1.6797-0.050782 1.0156 0.042969 1.1328 0.09375 1.043 0.33203 1.1602-0.30859 1.125-0.16797 0.097656-1.0469 0.97656-0.53125 1.0039-0.53125 0.89062-0.85156 1.1328-0.097656 0.59375-0.86719 0.53516-1.0273 0.71484-0.76562 0.92969-0.58203 1.1172 0.023437 1.1016-0.29297 1.1367-0.14844 0.90234-0.71484 0.66797-0.96094 0.79688-0.71094 0.92188 0.55469 1.0117 0.23438 1.3516-0.35547 0.97656-0.42969 1.043-0.0625 0.97656 0.29297 0.96875 0.46094 0.76562-0.67969 1.0039 0.30469 1.1172-0.26562 0.94922 0.32812 1.1562-0.078125 1.0078 0.28906 1.043-0.25391 0.52344-1 0.039062-1.0547-0.55469-0.94141 0.61328-0.9375 0.097656-1.0469 0.089844-1.1289 0.73438-0.82031 0.50391-0.97656 0.58984-0.91406 0.78125-1 0.078125-1.0234 0.37891-1.1328 0.61719-1.0078 0.58203-0.82812 0.5-0.96094 0.97266-0.42188 0.75781-0.70703 0.35547-1.0312 0.56641 0.875 0.55078-0.89844 0.71094-0.78516 0.66797-0.77344 0.875 0.5 0.78516-0.67188 1.0078-0.042969 0.96875 0.33984 1.0117-0.30859 1.0391-0.32031 1.0938 0.10938 0.94141-0.38281 0.69531-0.75781 0.55078-0.90625 0.55078-0.95312 0.62891-0.85938 0.96484-0.32812 0.29297-0.96094 0.75391-0.80859 0.46484-0.92188 0.99609-0.16016 0.58984-0.81641-0.10547-1.0078 0.57422-0.93359 0.72266-0.78125 0.36719-0.98828 0.63672-0.91406 0.76562-0.69531 1.0234-0.10547 0.17578-1.0391 0.16406-1.0117 0.84375-0.55078 0.33203-1 1.0156-0.14453 0.53516-0.95312-0.0625-1.0859 1.0508-0.16406 0.77344-0.82031 1-0.30078 0.59375-0.85938 0.9375-0.51953 1.0078 0.14453 1.1172 0.058594 1.1602 0.18359 0.41406-1.0195 0.22656-1.1367 0.007812-1.1094 0.87891 0.67188 1.0195-0.089844 0.96875-0.29688 0.80469-0.64062 0.92969 0.60156 0.90625-0.58203 0.94922-0.53906 0.94141 0.78125 0.94141-0.35547 1.0234-0.12109 0.48047-0.96094 0.76172-0.82422 0.67188-0.78516-0.34766-0.98047 0.97266-0.59766 0.93359-0.37891-0.86328-0.70312 0.55859-0.875 0.625-0.95703 0.93359-0.46484 1.0352 0.10547 0.42578-1.0273 1.0781-0.33203 1.0312 0.15625-0.58203-0.98828 1.125-0.035156 0.96875 0.58984 0.375-1.0312 0.48828-0.88281-0.11328-1.0898-0.13281-1.0195-0.046875-1.0391-0.007813-1.0977 0.89062-0.48047-0.21875-0.98438 0.70703-0.87891-0.88672-0.54297 0.77734-0.80078 0.24609-1.0781 0.99219 0.36719 1.0508-0.44531 0.94922-0.51953 0.66016 0.87109 0.9375 0.56641 0.83594 0.59766 1.0117-0.027344 0.60547-0.80078-0.10938-1.0508-0.57812-0.82812 1.0742 0.054687 0.86719-0.54297 0.37109-1.0625 0.59375-0.84375 1.0039 0.25 0.95312-0.46875h1.0586l0.41406-1.0156 1.0195-0.28516 0.95703-0.42578 0.17969-1.0039 0.98438 0.28516 0.39453-0.94141 0.97266 0.33203 0.99219-0.30078 0.75391-0.73828 0.79297-0.68359 0.72266-0.78516 0.89844-0.57812 0.45703 1.0312 0.56641-0.96094 0.46875-1.0156 1.0977 0.15234-0.48438-0.89062 0.60938-0.91016 1 0.25391-0.003906-1.2109-0.31641-1.043 0.61328-0.81641 1.0586 0.019532 0.53516-0.90234 0.93359 0.41797 0.83984 0.66406 0.20703-1.0703 1.0547-0.28906-0.50391-0.94531-0.44531-0.91797 0.88672-0.53906-0.015625-1.1055 0.89844-0.45703 0.96094-0.49609 0.050781-1.1523 0.875-0.60156 0.625 0.90625 0.40625-0.95703 1.0078-0.36328-0.17578-1.1758 0.46484-0.98438 1.0312-0.18359 1.0742-0.019531 1.082 0.070312 0.19141-0.98828 0.050781-1.1094 0.90234-0.44531-0.64844-0.78125 0.29297-1.043 1.1172-0.29297 0.80078 0.67578 1.0977-0.19531 0.85938-0.81641 1.0586-0.30469 1.0352 0.1875 0.26953-1.0742 0.95703-0.35938 0.95312-0.4375 1.0547 0.46484 1.0508-0.078125 0.96094 0.36328 0.76953-0.875 0.38281-0.92578 0.63281 0.78906 1 0.47266 0.26562 1.0078 1.0117-0.29688 0.81641-0.59375 0.83984-0.80859 0.011718 1.0156 0.43359 1 0.94922-0.65234 0.30859-0.97266 0.83984-0.66016 0.93359-0.38281 0.80078-0.60938 1.0703-0.34375 0.81641 0.67578 1.0898 0.16406 0.89062 0.50391 0.34766 0.95312-0.14453 1.2578-0.44922 0.96484-1.0625 0.78125-1.1875 0.33984-1.1562 0.11328 0.21484 1.957 0.80859 0.98438 0.36719 1.0312-0.98828 0.8125-1.2422 0.19531-0.42969-1.332-0.71875-0.76562-1.0586 0.078125-0.48438 1.0312 0.48438 1.0859 0.011719 1.1172 0.29297 1.2891 0.89453 0.94141 0.89062 0.77734 0.63672 0.82812 0.71484 0.78906 0.72656 0.88672 0.50781 1.1016-0.25391 1.0938-0.51562 0.96094-1.043-1 0.09375-1.2891-0.75-1.0117-0.98828 0.97656-0.60156 1.8125-1.0234 0.49219-0.72266-0.875-1.1289 0.28906 0.21484 1.1914 0.21875 1.1094-0.55859 0.85547-1.4922-0.33594-1.0508-0.40625-1.0273 0.87891-0.31641 1.1836 0.13281 1.25 1.2148 0.35547 0.86719 0.80859-0.15625 1.0703-1.2891 0.83203-1.1211 0.14453-1.6289-0.003906-1.0625-0.88672-0.71484-0.89453-1.2188-0.27734-0.88672 0.72266 0.84375 0.73438 0.78516 0.76172-0.69531 1.5156-0.42578 1.0703-0.050781 1.0586 0.68359 0.76562 1.1406 0.10938 1.1602 0.5 0.62891 0.92578 0.27734 0.97656-0.4375 1.1211-0.98828 0.75391-1.3047-0.31641-1.0078-0.48047-0.77344-0.93359-0.875-1-1.0703 0.12891-1.0547 0.82031-1.0078-0.13281-0.16016-1.0898 0.67578-1.0703 0.09375-1.3125-0.57031-0.85547-1.1211-0.36719-1.0586 0.64453-0.67969 0.96484-0.23438 0.98828-0.17188 1.0273 0.85156 0.70312 0.94922 0.58984 0.80078 0.67578 0.9375 0.73438-0.050782 1.0703-0.007812 1.0234-0.63672 0.77734 0.76953 0.66797-0.12891 1.1016-0.30078 0.96875-0.28906 0.99609-0.77734 0.71484-1.0234 0.44141-0.25781 1.043 0.28906 0.96875 0.96875 0.70312-0.019531 1.1055 0.25391 0.98828 0.59375 0.96094 0.26562 1.0039 0.57031 0.88281 0.13672 1.0898 0.73047 0.74219 0.63672 0.92969 0.53125 0.875 0.82812 0.58984-0.035156 1.082 0.68359 0.99219 0.64062 0.875 0.54297 0.85547 0.90625 0.48828 1.0547-0.20312 1.0352 0.019532 0.91406 0.49219 0.32812 1.0703 0.35938 1.0078 1.0391 0.35156 0.73047 0.89062 0.39844 1.0781 0.35938 1.0469 0.46875 0.96875 0.33203 0.96094 0.18359 1.0273 0.65234 0.83984 0.027344 1.0508 0.94141 0.34375 0.11328 1.0273-0.003906 1-0.10547 1.0625-0.5 0.97266-0.56641 0.84766-0.71875 0.71094 0.625 0.84766-0.30078 0.97266-0.14062 0.99219-0.74219 0.67969-0.60547 0.85547 0.29297 1.082 0.41016 0.91797 0.042969 1.0352-0.63672 0.86719-0.77344 0.82031-0.69922 0.76172-0.21094 1.0742-0.98828 0.48828-0.76953 0.98438-0.86328 0.88281-1.1445 0.22266-0.85938-0.54297-0.94141-0.55859-0.82422-0.57031-0.85547-0.84375-1.0352 0.09375-0.86719 0.5625-0.79688 0.71484-0.125 1.1094 0.12109 1.0469-0.93359 0.77734-0.14844 1.0742-0.82812 0.625-1.3828-0.51953-1.1719-0.16016-1.0469 0.15625-0.97266 0.90625-0.33594 0.98047-0.60547 1.0117-0.39453 1.0234-0.96094 0.29688-0.70312 0.83594 0.625 1.1797 0.22266 1.2617 0.19531 1.0234-0.43359 0.91016 0.4375 1.4297-0.32422 0.98828-0.44141 0.96484 0.30469 1.0391 0.5625 1.043 0.72656 0.69141 0.53906 1.0273z" fill="#ccc" fill-rule="evenodd"/>
<path d="m469.06 122.92-1.9062 1.1758-2.1172 0.79297-2.4297 0.78516-0.0625 1.2578 1.0586 1.0938 0.52344 1.3047-0.48828 1.3789-1.5508 0.91016-0.039063 1.7344-0.92188 2.3359-1.0039 0.91797-0.36328 0.99609 0.76953 1.3477 0.26562 1.0391-0.046875 1.1133-0.39453 1.4219-1.7148 2.2188-1.2852 1.3008-1.082 0.69922-0.70703 1.0156 0.49219 1.2344 0.69531 1.0039 0.38281 1.1562 0.57422 0.96094 0.42188 1.3516 0.125 1.1328-0.94922 0.83594-1.3008 0.64062-0.15625 1.125-0.70312 1.875-0.75781 1.3906 0.38672 0.92578 1.2461 0.26562 1.0977 0.45312 0.94531 0.79297 0.83203 0.94531 0.57031 0.86328-0.60938 1.3672-1.3867 1.4922 0.65234 1.3906 0.92578 1.125 1.2578 1.0312 1.0469 0.78516-1.5508 0.86719-0.60547 0.83203 0.8125 0.99219-0.98047 0.51172-0.97266 0.26953-0.83984 0.59375-0.60547 0.875-0.47656 1.2539-0.85547 0.65625-0.5 0.94922-1.457 0.42969-1.1055 0.26953-0.38672 1.0391-0.21094 1.1602-0.88672 0.63281-1.1875 0.03125-1.0117 0.42578-0.67578 0.86719-0.21484 0.98438-0.63281 1.1875-0.79688 0.82422-0.73438 1.1133-0.023438 1.3789 0.11719 1.3008 0.35547 1.2109 0.23828 1.375-0.33594 1.1914-1.4844 0.57422-0.85156 1.2969-0.31641 0.96094-1.0547 0.75391-0.93359 0.54297-0.92969 0.64844-1.4375 1.2539-3.0391 0.79688-1.0469 0.60938-0.70312 0.76562-0.82812 2.1875-1.1914 1.5977-1.6523 1.0508-1.4844 0.23047-1.5664 1.418-1.2656 2.6016-1.2695 2.6914-3.207 2.5391-2.9414 0.87891-2.875-0.33203-3.8047-0.67188-2.7617 0.30078-2.2188 0.30078-1.3594-0.003906-1.9414 0.67188-1.5664 1.5664-0.44531 1.5547v1.9492l0.85938 2.082 1.3789 2.543-0.074218 1.582-0.59766 1.4766-1.043 2.5352-1.1953 2.7617-1.043 1.8633-1.9922 0.57031-1.2891-0.27344-2.0898-0.82031-2.3125-0.59375-1.8828 0.042968-1.0117 0.42578-5.2109 0.46094-1.6211 0.35547-1.2852-0.20703-1.0039 0.14062-0.57422 0.91016-0.09375 1.7188 0.47656 1.4297 0.85156 1.8945 0.4375 1.5195 0.87109 1.9609 0.51562 1.1602 0.11328 2.1562-0.67969 1.8125-0.98438 0.60547-0.94531 0.71875-0.94531 0.94531-0.98047 0.83203-1.25 0.49219-1.4023 0.625-1.7422 1.4336-0.5 0.98047-0.26562 1.3594-1.5742 0.95312-0.66797 1.2656 0.62109 1.1211 0.53906 0.85547-1.2539 1.0781-0.28906 1.457-0.24609 1.1914-1.3633-0.25-0.085937 1.1211-0.12891 0.99609-0.74219 0.69141-1.0742 0.35547-0.61719 1.1953-0.19141 1.1875-1.0039 0.42188-0.66016 0.84375-1.1094 0.35156-1.0469 0.87109-1.1523-0.11328-1.4492 0.44531-1.2148 0.26562-0.8125 0.61719-1.1445 0.26562-1.0742-0.12109-0.60547 0.98047-1.25 0.47656-1.0117 0.50391-1.0117 0.11328-1.1445 0.058594-1.0352 0.22266-0.98828-0.30078-1.0117 0.28516-1.3477 0.17969-0.71875 0.8125-1.3828-0.57422-0.94531-0.81641-0.80859 0.73047-1.1875 0.24609-1.2383 0.039063-0.82812 0.61719-0.47266 1.2227-0.71484 1.1875-0.58594 1.1016-0.89844 1.1367-0.80469 1.1641-1.4336 0.058594-1.4336-0.085938-1.1328-0.23828-0.64844 0.97266 0.023437 1.3008 0.25391 1.0469 0.20312 1.2031-0.52734 0.90234-0.30078 1.207 0.60547 1.1953-0.054687 1.3125-0.49219 1.3125-1.0391 0.57422-1.8047 0.26953-1.1172-0.26953-1.1133 0.66406-1.4805 0.10547-0.89844 0.72656-0.71484 1.3164-0.68359 0.73828-0.84766 0.875-0.027344 1.7461-0.96484 2.2578-0.16406 1.7305-0.28125 1.1914-1.8086 2.7539-0.67578 1.6523 0.51172 0.99609 0.85938 0.54688 1.7344 1.1484 0.53516 1.1758-0.35156 1.418-0.63281 1.3789-0.65625 1.2578-1.1289 0.79688-1.2461 0.70703-1.2461 0.84766-1.0117 1.8867-0.035156 1.5234 0.58984 1.5234 0.32031 1.3594 0.85938 1.2383 1.3242 0.73047 0.76953 0.66406-0.23047 1.2188-0.82422 0.875-0.69922 1.0195-0.39062 1.2383 0.30078 1.1992 0.35547 1.2539 0.34375 0.98047 0.42969 1.2188-0.10547 1.0898 0.070312 1.1133-0.53906 0.84766-1.1445-0.03125-0.68359 0.81641 0.92188 1.0703 0.63672 0.96875 0.17578 1.0156-1.0352 0.17969-1.2695 0.67188-1.1641-0.4375-1.082-0.011719-1.0352-0.38672-0.74219 0.70312-0.77734 0.77344-1.1172 0.37109-1.0977 0.20312-0.21094 0.98828-0.48828 0.92188-0.14453 1.043-0.64453 1.0391-0.31641 0.98438-0.83203 2.1094-0.55859 1.4688-0.16797 1.375 0.18359 2.1133-0.019532 1.1523 0.19531 1.1133-0.058594 1.3398-0.44922 1.375-0.65625 0.89453-0.86328 0.83594-0.86719 0.83594-0.88281 0.66797-0.71484 0.86328-0.69922 0.87891-0.82812 0.91016-1.3164 0.36719-1.2695-0.32031-1.0039 0.55469-1.6562 4.207-0.33984 1.0508 0.23438 0.98438-0.24219 1.125-0.69141 0.85938-1.293 0.15234-1.0234-0.28125-0.92188 0.88672-0.86328 0.56641-0.45312 0.90234-0.33984 1.7422-0.625 1.3906-1.2461 0.94922-1.1562 0.64453 0.14844 1.0859-0.32812 1.0859-0.78516 0.68359-1.0781 0.19922-0.95703-0.45703-0.99609-0.14844-1.0078-0.1875-1.2422 1.1094-1.1133-0.066407-0.89844-0.63281-1.7148-0.59766-1.3242 0.29688-0.74609 1.0703-1.6445 0.83203-1.7539 0.44922-1.707-0.32031-1.5938-0.28516-1.0508-0.007812-1.4414 0.29688-1.4805 0.41406-1.5742 0.14844-1.0117-0.24219-0.98828-0.30078-1.0859-0.12109-1.25-0.019531-1.0117-0.19531-1.0078-0.29688-1 0.55469-0.91406 0.62109-0.90625 0.95703-1.0156 0.25391-0.98828-0.375-1.0898 0.066407-1.1641 0.16016-0.97656 0.30469-1 0.38672-0.98828-0.51953-1.0742-0.16797-1.2227-0.042969-1.0938-0.35156-0.4375-0.98438-0.32031-0.99219-1.043-0.25781-0.99609 0.21094-4.4922 2.5703-1.707 0.11328-1.6484-0.39453-1.2969 0.30078-1.5312 0.80859-1.7617 0.96484-1.5938 0.42969-1.4727-0.35938-1.0508-0.19922-1.2031-0.011718-1.3008 0.17188-1.6562 0.3125-1.9688 0.28516-1.3828 0.55859-4.2773 0.30859-0.80859 0.81641-1.1445 0.14453-0.9375 0.55078-1.0703-0.4375-0.73047-1.1211-1.0312-0.16797-1.1406-0.13672-0.41797-0.92969-0.92969 0.60547-0.81641 0.68359-1.0234 0.41406-1.0625 0.082032-0.70703-0.77734-1.1211-0.4375-0.76172 0.86719-0.4375 0.99609-0.96484 0.51562-0.52734 1.2461-0.078125 1.0312-0.32422 1.2109-1.2227-0.25781-0.61719-0.93359-0.65234-1.3555-0.90625-0.85156-1.043 0.17969-0.80859 0.94531-2.2656 1.0547-1.0469 0.10547-1.1328 0.14453-1.5508-0.24609-1.1992-0.31641-1.2852 0.33594-1.2383-0.58984-1.3164-0.66406-0.78125 0.84375-1.0664 0.34766-1.0977-0.24609-1.0312 0.19141-1.1328 0.33594-1.2344 0.089844-1.5273 0.62891-1.2461 0.44922-1.1016 0.64062-0.84766 0.79688-0.23438 1.3086-0.79688 0.64453-1.0273-0.79688-0.69141-0.74609-1.0781-0.79688-0.31641-1.0469-1.2031-0.51953-1.0273 0.027343-1.1016-0.17969-1.0781 0.36328-0.95312-0.49219-0.97656 0.5625-0.86328 0.53125-1.2812 0.066406-1.125-0.20312-2.3672-0.21094-1.1602-0.55078-2.2969 0.4375-1.6719-0.054687-1.168 0.18359-1.3984 0.25391-1.0039-0.78516-0.070312 1.2422-1.1367 0.32812-1.1602-0.03125-0.98438 0.35938-1.1367-0.53906-0.83984-1.0195-1.25-0.15234-1.0938-0.074218-1.0234-0.15234-1.4336-0.11328-1.1016 0.28125-1.1367-0.76172-0.75-0.69141-1.1797 0.042968-0.81641 1.0664-1.2422-0.089844-0.89062-0.54688-1.1602-0.39453-1.5586 0.03125-1.4297-0.82812-1.3242 0.11328-1.9414 1.0664-0.88281 0.73828-1.1602 0.58594-1.6484-0.12109-1.8281-0.13281-0.21484 1.1914-0.83984 1.1641-0.75781 0.91016-1.2812 0.20312-1.2617-0.36719-1.4648-0.16406-1.043-0.13281-1.0391-0.44922-1.4688-0.51953-1.0859-0.34766-1.8555-0.29297-0.97266-0.78125-0.63672-0.92578-1.3789-0.48828-1.3984 0.29297-1.6602 0.29297-1.3594 0.29688-0.88281-1.3711-0.046875-2.0469-1.5117-0.19531-1.2188 1.2188-1.7539 0.58594-1.3516 0.89453-1.2383 0.74219-0.10547 1.0742-0.45703 1.1172-1.4102-0.44922-1.3398-0.32422-0.83203-0.87891-1.3398-0.27344-0.78516 1.3359-1.0156 1.293-1.0586 0.28516-0.86719-0.72266-0.98438-0.23047-1.0898 0.27344-1.0234 0.25781-1.0352 0.85938-0.70312 0.77344-1.2305 0.050781-0.85156-0.80078-0.43359-1.1484-0.8125-0.94141-1.7344-1.6445-1.4141-1.6367-0.55078-0.86328-0.82812-0.72266-0.98047-0.20312-1.0273-0.96484-1.9453-0.89844-0.92969-0.51562-1.1602-0.023438-1.5703 0.47266-1.0469 0.25391-1.625-0.19922-1.0078-0.16016-0.94141 0.46094-0.97656 0.63281-0.83203-0.58984-1.8398 0.42969-0.91016 1.0078-0.90234 0.54297-1.1797-0.28516-0.85938-0.52734-0.35547-1.0273-0.98047-0.42578-0.53906-0.85156-0.79688-0.61328-1.0156-0.13281-0.96484 0.39453-1.1172 0.0625-0.99219-0.15625-2.4453-1.3555-0.95312-0.52734-0.54688-1.0273-0.76953-0.69141-0.99609-0.19922-0.69141-0.77734-0.83203-0.80859-1.9414-1.5117-1.6055-1.4844-1.0156-0.36328-0.9375-0.44531-0.55859-1.2852 0.13672-1.3711 0.054687-1.0508-1.2383-0.88672-1.5273-1.3711-1.3242-0.32422-1.3984-1.1562-0.26953-1.4531-0.96875-1.3711-0.84766-1.4297-0.41797-1.5547 0.49609-2.9375 0.29688-1.5391-0.95312-2.4492-1.3008-2.4062-1.4844-1.5391-1.2305-1.0391-1.9844-1.1367-1.2305-0.64453-1.6094-0.88672-1.2656-1.1523-0.45312-1.3281-0.55078-1.6055-1.375-2.2695-0.63672-1.0352-0.011719-1.1133 0.074219-1.1094 0.36328-0.99609 0.84375-0.69141-0.19922-1.0469-0.36719-0.95312 0.75781-0.94141 0.91016-0.41406 0.98828-0.74609 0.875-1.9648 0.32031-1.2266 0.13672-1.3789-0.19531-1.043-0.32422-1.0078-0.16406-1.3594 0.097657-0.99609 0.23438-1.4688 0.625-1.2656 0.95312-0.9375 0.64844-2.6758 0.59766-2.6055-0.046875-1.7773-0.59766-0.90234 0.24609-1.5117 0.52734-1.4141 0.91797-2.2031 0.875-2.6367 0.5-1.1484 0.078125-1.0508 0.99219-0.50781 2.5273 1.9297 1.2891 0.91016 1.2422 0.35156 1.0938 0.17188 1.8477 0.046875 1.3008-0.63281 0.21484-1.8867-0.36719-1.0312 0.4375-1.0508 1.2109-1.1406 0.24609-1.668 0.12109-1.1055 0.097657-1.3555 0.47266-1.1953 0.39844-1.1914 1.0195-1.1719 0.34766-1.0352-0.36719-1.0352-0.42188-1.2617-0.16016-1.2305-0.042969-1.0859 0.87109-1.4219 0.73438-0.71875 0.34766-1.1836 0.74219-1.293 0.4375-0.92969 0.15625-1-0.27734-1-0.21094-1.4727-1.1016-0.50391-1.9727-0.96484-0.94531-0.67188-1.3516-1.1406-1.0547-1.2305-0.75391-0.89453-1.5703-0.44922-1.1758-0.21875-2.9805-0.31641-1.4688 0.31641-1.3672 0.23047-1.1055-0.23047-1.2461-0.38672-1.5781-0.34766-1.3008-0.42188 0.21094-1.082 1.3203-0.78516 1.8164-0.89062 2.8867-0.89062 2.9844-1.2305 0.51562-0.875 0.63281-1.0625 0.76953-0.83984 0.089844-1.2148-0.15234-1.0625-0.18359-1.2969-0.25391-1.668-0.10938-2.7812-0.48828-0.9375-0.90234-0.46094-0.92969-0.61328-0.60156-0.91797-0.60547-1.0273-0.75-0.76172-0.98438-0.85938-0.79688-0.62891-0.9375-1.0273-0.72656-0.97656-0.50391-1.1406-0.80078-1.2109-0.40625-1.0469 0.070313-1.0898-0.66406-0.87891-0.875-0.49219-1.5195-1.1367-0.96484-1.1758-0.40234-1.4219-0.078125-1.0078-0.089844-1.0352 1.6133-2.043 0.75391-0.76953 0.67969-0.97266 0.20312-1.0508-0.44922-1.3359-0.87891-1.0898-0.68359-0.87891-0.98828-0.48828-0.027344-1.125-0.10547-1.1523 0.32422-1.4766 0.55078-2.1016 0.14062-1.1367 0.30469-1.3164 0.77344-1.3594 0.85156-0.71875 0.78125-0.71875 0.53516-1.1445 0.87891-1.5156 1.0547-1.7773 0.20703-1.0625 0.57422-1.0195 0.75-0.72266 0.42969-1.0234 1.1875-0.40625 1.0469-0.23828 0.47656-0.94922 0.44141-0.89844 0.9375-0.97266 0.8125-0.68359 0.98438-0.39844 0.69141-1.0273 1.3867-0.21875 1.1328-0.58984 1.668-1.0742 1.2031 0.039063 1.0273 0.11719 1.0156-0.55469 1.0586-0.25391 0.97656-0.30469 0.83984-0.57031 0.86328-0.60547 1.5703-0.98438 0.63672-0.92188 0.22656-1.1836 0.042969-1.1641 1.1484-0.0625 1.0703-0.55469 0.84766-0.77734 0.89844-0.44531 0.89844-0.58984 1.1719-1.0977 0.69531-0.94141 0.59766-1 1.1016-0.12891 1.6094 1.0547 1.0078 0.003906 0.82031-0.57422 1.1328-0.11719 0.89844 0.48047 0.78516 0.66797 0.98438 0.19531 0.96875-0.32812 1.0039-0.51953 1.0352 0.35938 0.77734 0.64062 1.8398 0.51562 1.043-0.023438 1.0586-0.42578 1.832 0.5 1.1289 0.26172 0.97266-0.26172 0.95312-0.41797 1.0039 0.17188 0.95312 0.41797 1.1055-0.51172 0.63281-0.77734 0.39062-0.99609 0.15625-1.0352-0.003906-1.0703-0.20703-0.98047 0.91016-0.55078 0.92578-0.46094 1.1328 0.027344 1.0234 0.070313 0.71094-0.75391 0.99219-0.16016 1.0469 0.11328 1.0078 0.20312 1.0391 0.039063 1.9219 0.21484 1.8047 0.38672 1.3125 0.28516 1.3789 0.097656 1.0391-0.19922 0.87109-0.55469 1.043 0.42188 0.97266 0.34375 1.0273-0.51953 0.47266-1.0039 0.37891-1.2148 0.28516-1.1523 0.75781-0.84375 0.80078-0.83594 0.44531-0.98047-0.066406-1.3125 0.074219-1.168 0.039062-1.1055-0.058594-1.3555-0.19922-1.8164-0.46094-1.4062-0.32812-1.2266 0.59375-1.4688 0.80859-1.3047-0.66406-0.98438-0.98828-0.76562-0.85156-0.57031-1.0352-0.42188-1.3984-0.53516-0.75781-0.75391-0.36719-1.0664-0.019531-1.4531-0.68359-1.2617-0.60547-1.8633-0.42969-0.93359-0.98438-0.69141-0.82812-0.88281-0.29297-1.3438-0.27734-1.2148-0.92578-1.4414-0.78906-0.6875-0.015625-1.4102 0.12891-1.0352-0.32422-1.1562 0.64844-0.95703 0.88672-0.61328 0.71094-0.74609 40.301 0.050782 4.7656-0.16016 2.7109 0.019532 25.84 0.16406 5.3945-0.011719 10.645 0.003907 14.559-0.078125 6.9336 0.085937 26.008 0.007813 4.7344 0.015625 27.934 0.066406 32.125-0.046875 0.73047-0.79688 0.96484-0.97266 1.3125-1.3984 0.76172-0.94531 1.418 0.81641 1.0781-0.45312-0.13672-1.5547 0.47656-1.4922 0.58594-0.97266 0.90234-0.59766 1.1562 0.73047 1.4727 0.69922 0.83594 1.125 1.0352 0.95703 0.60156 1.2383 1.5078-0.10156 0.74609 0.89844 1.3086-0.13672 1.4492 0.44141 1.0664 0.52344 0.79297-0.94141 0.58594-1.1211 1.1289 0.32812 2.1211-0.27344 1.25-0.91406 0.76172-0.68359 1.043-0.13672 1.043 0.49609 1.5977-0.19141 1.4258-1.1094 0.125-1.0938-0.77344-1.2109 1.1328-0.36719 1.5898 0.58594 1.1328 0.007812 1.6523-0.21875 1.5039 0.55859 0.78125 0.72266 1.2227-0.51172 1.3945-0.47656 1.043-1.1367-0.18359-1.332 0.23828-1.3516 0.73438-1.1172 1.0195-0.65234 0.92969-0.42578 1.1914-0.078125 0.0625-1.1484 0.21484-1.4648 0.44141-0.94922 0.007812-1.293 0.90234-0.45312 1.2188-0.22266 0.73047-0.80078-0.16406-1.2656 0.38672-1.668 1.168-1.1133 0.35938-1.6055 0.17969-1.0352 1.2227-0.45312 0.875-1.0859 0.79688-1.9805 0.64453-1.1445 1.1328-0.19531 1.4844-0.65234 0.41406-1.3203 0.99219-1.1133 1.4297-1.0859 1.1914-0.36328 1.6797-0.050782 1.0156 0.042969 1.1328 0.09375 1.043 0.33203 1.1602-0.30859 1.125-0.16797 0.097656-1.0469 0.97656-0.53125 1.0039-0.53125 0.89062-0.85156 1.1328-0.097656 0.59375-0.86719 0.53516-1.0273 0.71484-0.76562 0.92969-0.58203 1.1172 0.023437 1.1016-0.29297 1.1367-0.14844 0.90234-0.71484 0.66797-0.96094 0.79688-0.71094 0.92188 0.55469 1.0117 0.23438 1.3516-0.35547 0.97656-0.42969 1.043-0.0625 0.97656 0.29297 0.96875 0.46094 0.76562-0.67969 1.0039 0.30469 1.1172-0.26562 0.94922 0.32812 1.1562-0.078125 1.0078 0.28906 1.043-0.25391 0.52344-1 0.039062-1.0547-0.55469-0.94141 0.61328-0.9375 0.097656-1.0469 0.089844-1.1289 0.73438-0.82031 0.50391-0.97656 0.58984-0.91406 0.78125-1 0.078125-1.0234 0.37891-1.1328 0.61719-1.0078 0.58203-0.82812 0.5-0.96094 0.97266-0.42188 0.75781-0.70703 0.35547-1.0312 0.56641 0.875 0.55078-0.89844 0.71094-0.78516 0.66797-0.77344 0.875 0.5 0.78516-0.67188 1.0078-0.042969 0.96875 0.33984 1.0117-0.30859 1.0391-0.32031 1.0938 0.10938 0.94141-0.38281 0.69531-0.75781 0.55078-0.90625 0.55078-0.95312 0.62891-0.85938 0.96484-0.32812 0.29297-0.96094 0.75391-0.80859 0.46484-0.92188 0.99609-0.16016 0.58984-0.81641-0.10547-1.0078 0.57422-0.93359 0.72266-0.78125 0.36719-0.98828 0.63672-0.91406 0.76562-0.69531 1.0234-0.10547 0.17578-1.0391 0.16406-1.0117 0.84375-0.55078 0.33203-1 1.0156-0.14453 0.53516-0.95312-0.0625-1.0859 1.0508-0.16406 0.77344-0.82031 1-0.30078 0.59375-0.85938 0.9375-0.51953 1.0078 0.14453 1.1172 0.058594 1.1602 0.18359 0.41406-1.0195 0.22656-1.1367 0.007812-1.1094 0.87891 0.67188 1.0195-0.089844 0.96875-0.29688 0.80469-0.64062 0.92969 0.60156 0.90625-0.58203 0.94922-0.53906 0.94141 0.78125 0.94141-0.35547 1.0234-0.12109 0.48047-0.96094 0.76172-0.82422 0.67188-0.78516-0.34766-0.98047 0.97266-0.59766 0.93359-0.37891-0.86328-0.70312 0.55859-0.875 0.625-0.95703 0.93359-0.46484 1.0352 0.10547 0.42578-1.0273 1.0781-0.33203 1.0312 0.15625-0.58203-0.98828 1.125-0.035156 0.96875 0.58984 0.375-1.0312 0.48828-0.88281-0.11328-1.0898-0.13281-1.0195-0.046875-1.0391-0.007813-1.0977 0.89062-0.48047-0.21875-0.98438 0.70703-0.87891-0.88672-0.54297 0.77734-0.80078 0.24609-1.0781 0.99219 0.36719 1.0508-0.44531 0.94922-0.51953 0.66016 0.87109 0.9375 0.56641 0.83594 0.59766 1.0117-0.027344 0.60547-0.80078-0.10938-1.0508-0.57812-0.82812 1.0742 0.054687 0.86719-0.54297 0.37109-1.0625 0.59375-0.84375 1.0039 0.25 0.95312-0.46875h1.0586l0.41406-1.0156 1.0195-0.28516 0.95703-0.42578 0.17969-1.0039 0.98438 0.28516 0.39453-0.94141 0.97266 0.33203 0.99219-0.30078 0.75391-0.73828 0.79297-0.68359 0.72266-0.78516 0.89844-0.57812 0.45703 1.0312 0.56641-0.96094 0.46875-1.0156 1.0977 0.15234-0.48438-0.89062 0.60938-0.91016 1 0.25391-0.003906-1.2109-0.31641-1.043 0.61328-0.81641 1.0586 0.019532 0.53516-0.90234 0.93359 0.41797 0.83984 0.66406 0.20703-1.0703 1.0547-0.28906-0.50391-0.94531-0.44531-0.91797 0.88672-0.53906-0.015625-1.1055 0.89844-0.45703 0.96094-0.49609 0.050781-1.1523 0.875-0.60156 0.625 0.90625 0.40625-0.95703 1.0078-0.36328-0.17578-1.1758 0.46484-0.98438 1.0312-0.18359 1.0742-0.019531 1.082 0.070312 0.19141-0.98828 0.050781-1.1094 0.90234-0.44531-0.64844-0.78125 0.29297-1.043 1.1172-0.29297 0.80078 0.67578 1.0977-0.19531 0.85938-0.81641 1.0586-0.30469 1.0352 0.1875 0.26953-1.0742 0.95703-0.35938 0.95312-0.4375 1.0547 0.46484 1.0508-0.078125 0.96094 0.36328 0.76953-0.875 0.38281-0.92578 0.63281 0.78906 1 0.47266 0.26562 1.0078 1.0117-0.29688 0.81641-0.59375 0.83984-0.80859 0.011718 1.0156 0.43359 1 0.94922-0.65234 0.30859-0.97266 0.83984-0.66016 0.93359-0.38281 0.80078-0.60938 1.0703-0.34375 0.81641 0.67578 1.0898 0.16406 0.89062 0.50391 0.34766 0.95312-0.14453 1.2578-0.44922 0.96484-1.0625 0.78125-1.1875 0.33984-1.1562 0.11328 0.21484 1.957 0.80859 0.98438 0.36719 1.0312-0.98828 0.8125-1.2422 0.19531-0.42969-1.332-0.71875-0.76562-1.0586 0.078125-0.48438 1.0312 0.48438 1.0859 0.011719 1.1172 0.29297 1.2891 0.89453 0.94141 0.89062 0.77734 0.63672 0.82812 0.71484 0.78906 0.72656 0.88672 0.50781 1.1016-0.25391 1.0938-0.51562 0.96094-1.043-1 0.09375-1.2891-0.75-1.0117-0.98828 0.97656-0.60156 1.8125-1.0234 0.49219-0.72266-0.875-1.1289 0.28906 0.21484 1.1914 0.21875 1.1094-0.55859 0.85547-1.4922-0.33594-1.0508-0.40625-1.0273 0.87891-0.31641 1.1836 0.13281 1.25 1.2148 0.35547 0.86719 0.80859-0.15625 1.0703-1.2891 0.83203-1.1211 0.14453-1.6289-0.003906-1.0625-0.88672-0.71484-0.89453-1.2188-0.27734-0.88672 0.72266 0.84375 0.73438 0.78516 0.76172-0.69531 1.5156-0.42578 1.0703-0.050781 1.0586 0.68359 0.76562 1.1406 0.10938 1.1602 0.5 0.62891 0.92578 0.27734 0.97656-0.4375 1.1211-0.98828 0.75391-1.3047-0.31641-1.0078-0.48047-0.77344-0.93359-0.875-1-1.0703 0.12891-1.0547 0.82031-1.0078-0.13281-0.16016-1.0898 0.67578-1.0703 0.09375-1.3125-0.57031-0.85547-1.1211-0.36719-1.0586 0.64453-0.67969 0.96484-0.23438 0.98828-0.17188 1.0273 0.85156 0.70312 0.94922 0.58984 0.80078 0.67578 0.9375 0.73438-0.050782 1.0703-0.007812 1.0234-0.63672 0.77734 0.76953 0.66797-0.12891 1.1016-0.30078 0.96875-0.28906 0.99609-0.77734 0.71484-1.0234 0.44141-0.25781 1.043 0.28906 0.96875 0.96875 0.70312-0.019531 1.1055 0.25391 0.98828 0.59375 0.96094 0.26562 1.0039 0.57031 0.88281 0.13672 1.0898 0.73047 0.74219 0.63672 0.92969 0.53125 0.875 0.82812 0.58984-0.035156 1.082 0.68359 0.99219 0.64062 0.875 0.54297 0.85547 0.90625 0.48828 1.0547-0.20312 1.0352 0.019532 0.91406 0.49219 0.32812 1.0703 0.35938 1.0078 1.0391 0.35156 0.73047 0.89062 0.39844 1.0781 0.35938 1.0469 0.46875 0.96875 0.33203 0.96094 0.18359 1.0273 0.65234 0.83984 0.027344 1.0508 0.94141 0.34375 0.11328 1.0273-0.003906 1-0.10547 1.0625-0.5 0.97266-0.56641 0.84766-0.71875 0.71094 0.625 0.84766-0.30078 0.97266-0.14062 0.99219-0.74219 0.67969-0.60547 0.85547 0.29297 1.082 0.41016 0.91797 0.042969 1.0352-0.63672 0.86719-0.77344 0.82031-0.69922 0.76172-0.21094 1.0742-0.98828 0.48828-0.76953 0.98438-0.86328 0.88281-1.1445 0.22266-0.85938-0.54297-0.94141-0.55859-0.82422-0.57031-0.85547-0.84375-1.0352 0.09375-0.86719 0.5625-0.79688 0.71484-0.125 1.1094 0.12109 1.0469-0.93359 0.77734-0.14844 1.0742-0.82812 0.625-1.3828-0.51953-1.1719-0.16016-1.0469 0.15625-0.97266 0.90625-0.33594 0.98047-0.60547 1.0117-0.39453 1.0234-0.96094 0.29688-0.70312 0.83594 0.625 1.1797 0.22266 1.2617 0.19531 1.0234-0.43359 0.91016 0.4375 1.4297-0.32422 0.98828-0.44141 0.96484 0.30469 1.0391 0.5625 1.043 0.72656 0.69141 0.53906 1.0273-0.003906 1.5664" fill="none" stroke="#fff" stroke-linecap="round" stroke-linejoin="round" stroke-miterlimit="10" stroke-width="2"/>
<path d="m469.06 122.92-1.9062 1.1758-2.1172 0.79297-2.4297 0.78516-0.0625 1.2578 1.0586 1.0938 0.52344 1.3047-0.48828 1.3789-1.5508 0.91016-0.039063 1.7344-0.92188 2.3359-1.0039 0.91797-0.36328 0.99609 0.76953 1.3477 0.26562 1.0391-0.046875 1.1133-0.39453 1.4219-1.7148 2.2188-1.2852 1.3008-1.082 0.69922-0.70703 1.0156 0.49219 1.2344 0.69531 1.0039 0.38281 1.1562 0.57422 0.96094 0.42188 1.3516 0.125 1.1328-0.94922 0.83594-1.3008 0.64062-0.15625 1.125-0.70312 1.875-0.75781 1.3906 0.38672 0.92578 1.2461 0.26562 1.0977 0.45312 0.94531 0.79297 0.83203 0.94531 0.57031 0.86328-0.60938 1.3672-1.3867 1.4922 0.65234 1.3906 0.92578 1.125 1.2578 1.0312 1.0469 0.78516-1.5508 0.86719-0.60547 0.83203 0.8125 0.99219-0.98047 0.51172-0.97266 0.26953-0.83984 0.59375-0.60547 0.875-0.47656 1.2539-0.85547 0.65625-0.5 0.94922-1.457 0.42969-1.1055 0.26953-0.38672 1.0391-0.21094 1.1602-0.88672 0.63281-1.1875 0.03125-1.0117 0.42578-0.67578 0.86719-0.21484 0.98438-0.63281 1.1875-0.79688 0.82422-0.73438 1.1133-0.023438 1.3789 0.11719 1.3008 0.35547 1.2109 0.23828 1.375-0.33594 1.1914-1.4844 0.57422-0.85156 1.2969-0.31641 0.96094-1.0547 0.75391-0.93359 0.54297-0.92969 0.64844-1.4375 1.2539-3.0391 0.79688-1.0469 0.60938-0.70312 0.76562-0.82812 2.1875-1.1914 1.5977-1.6523 1.0508-1.4844 0.23047-1.5664 1.418-1.2656 2.6016-1.2695 2.6914-3.207 2.5391-2.9414 0.87891-2.875-0.33203-3.8047-0.67188-2.7617 0.30078-2.2188 0.30078-1.3594-0.003906-1.9414 0.67188-1.5664 1.5664-0.44531 1.5547v1.9492l0.85938 2.082 1.3789 2.543-0.074218 1.582-0.59766 1.4766-1.043 2.5352-1.1953 2.7617-1.043 1.8633-1.9922 0.57031-1.2891-0.27344-2.0898-0.82031-2.3125-0.59375-1.8828 0.042968-1.0117 0.42578-5.2109 0.46094-1.6211 0.35547-1.2852-0.20703-1.0039 0.14062-0.57422 0.91016-0.09375 1.7188 0.47656 1.4297 0.85156 1.8945 0.4375 1.5195 0.87109 1.9609 0.51562 1.1602 0.11328 2.1562-0.67969 1.8125-0.98438 0.60547-0.94531 0.71875-0.94531 0.94531-0.98047 0.83203-1.25 0.49219-1.4023 0.625-1.7422 1.4336-0.5 0.98047-0.26562 1.3594-1.5742 0.95312-0.66797 1.2656 0.62109 1.1211 0.53906 0.85547-1.2539 1.0781-0.28906 1.457-0.24609 1.1914-1.3633-0.25-0.085937 1.1211-0.12891 0.99609-0.74219 0.69141-1.0742 0.35547-0.61719 1.1953-0.19141 1.1875-1.0039 0.42188-0.66016 0.84375-1.1094 0.35156-1.0469 0.87109-1.1523-0.11328-1.4492 0.44531-1.2148 0.26562-0.8125 0.61719-1.1445 0.26562-1.0742-0.12109-0.60547 0.98047-1.25 0.47656-1.0117 0.50391-1.0117 0.11328-1.1445 0.058594-1.0352 0.22266-0.98828-0.30078-1.0117 0.28516-1.3477 0.17969-0.71875 0.8125-1.3828-0.57422-0.94531-0.81641-0.80859 0.73047-1.1875 0.24609-1.2383 0.039063-0.82812 0.61719-0.47266 1.2227-0.71484 1.1875-0.58594 1.1016-0.89844 1.1367-0.80469 1.1641-1.4336 0.058594-1.4336-0.085938-1.1328-0.23828-0.64844 0.97266 0.023437 1.3008 0.25391 1.0469 0.20312 1.2031-0.52734 0.90234-0.30078 1.207 0.60547 1.1953-0.054687 1.3125-0.49219 1.3125-1.0391 0.57422-1.8047 0.26953-1.1172-0.26953-1.1133 0.66406-1.4805 0.10547-0.89844 0.72656-0.71484 1.3164-0.68359 0.73828-0.84766 0.875-0.027344 1.7461-0.96484 2.2578-0.16406 1.7305-0.28125 1.1914-1.8086 2.7539-0.67578 1.6523 0.51172 0.99609 0.85938 0.54688 1.7344 1.1484 0.53516 1.1758-0.35156 1.418-0.63281 1.3789-0.65625 1.2578-1.1289 0.79688-1.2461 0.70703-1.2461 0.84766-1.0117 1.8867-0.035156 1.5234 0.58984 1.5234 0.32031 1.3594 0.85938 1.2383 1.3242 0.73047 0.76953 0.66406-0.23047 1.2188-0.82422 0.875-0.69922 1.0195-0.39062 1.2383 0.30078 1.1992 0.35547 1.2539 0.34375 0.98047 0.42969 1.2188-0.10547 1.0898 0.070312 1.1133-0.53906 0.84766-1.1445-0.03125-0.68359 0.81641 0.92188 1.0703 0.63672 0.96875 0.17578 1.0156-1.0352 0.17969-1.2695 0.67188-1.1641-0.4375-1.082-0.011719-1.0352-0.38672-0.74219 0.70312-0.77734 0.77344-1.1172 0.37109-1.0977 0.20312-0.21094 0.98828-0.48828 0.92188-0.14453 1.043-0.64453 1.0391-0.31641 0.98438-0.83203 2.1094-0.55859 1.4688-0.16797 1.375 0.18359 2.1133-0.019532 1.1523 0.19531 1.1133-0.058594 1.3398-0.44922 1.375-0.65625 0.89453-0.86328 0.83594-0.86719 0.83594-0.88281 0.66797-0.71484 0.86328-0.69922 0.87891-0.82812 0.91016-1.3164 0.36719-1.2695-0.32031-1.0039 0.55469-1.6562 4.207-0.33984 1.0508 0.23438 0.98438-0.24219 1.125-0.69141 0.85938-1.293 0.15234-1.0234-0.28125-0.92188 0.88672-0.86328 0.56641-0.45312 0.90234-0.33984 1.7422-0.625 1.3906-1.2461 0.94922-1.1562 0.64453 0.14844 1.0859-0.32812 1.0859-0.78516 0.68359-1.0781 0.19922-0.95703-0.45703-0.99609-0.14844-1.0078-0.1875-1.2422 1.1094-1.1133-0.066407-0.89844-0.63281-1.7148-0.59766-1.3242 0.29688-0.74609 1.0703-1.6445 0.83203-1.7539 0.44922-1.707-0.32031-1.5938-0.28516-1.0508-0.007812-1.4414 0.29688-1.4805 0.41406-1.5742 0.14844-1.0117-0.24219-0.98828-0.30078-1.0859-0.12109-1.25-0.019531-1.0117-0.19531-1.0078-0.29688-1 0.55469-0.91406 0.62109-0.90625 0.95703-1.0156 0.25391-0.98828-0.375-1.0898 0.066407-1.1641 0.16016-0.97656 0.30469-1 0.38672-0.98828-0.51953-1.0742-0.16797-1.2227-0.042969-1.0938-0.35156-0.4375-0.98438-0.32031-0.99219-1.043-0.25781-0.99609 0.21094-4.4922 2.5703-1.707 0.11328-1.6484-0.39453-1.2969 0.30078-1.5312 0.80859-1.7617 0.96484-1.5938 0.42969-1.4727-0.35938-1.0508-0.19922-1.2031-0.011718-1.3008 0.17188-1.6562 0.3125-1.9688 0.28516-1.3828 0.55859-4.2773 0.30859-0.80859 0.81641-1.1445 0.14453-0.9375 0.55078-1.0703-0.4375-0.73047-1.1211-1.0312-0.16797-1.1406-0.13672-0.41797-0.92969-0.92969 0.60547-0.81641 0.68359-1.0234 0.41406-1.0625 0.082032-0.70703-0.77734-1.1211-0.4375-0.76172 0.86719-0.4375 0.99609-0.96484 0.51562-0.52734 1.2461-0.078125 1.0312-0.32422 1.2109-1.2227-0.25781-0.61719-0.93359-0.65234-1.3555-0.90625-0.85156-1.043 0.17969-0.80859 0.94531-2.2656 1.0547-1.0469 0.10547-1.1328 0.14453-1.5508-0.24609-1.1992-0.31641-1.2852 0.33594-1.2383-0.58984-1.3164-0.66406-0.78125 0.84375-1.0664 0.34766-1.0977-0.24609-1.0312 0.19141-1.1328 0.33594-1.2344 0.089844-1.5273 0.62891-1.2461 0.44922-1.1016 0.64062-0.84766 0.79688-0.23438 1.3086-0.79688 0.64453-1.0273-0.79688-0.69141-0.74609-1.0781-0.79688-0.31641-1.0469-1.2031-0.51953-1.0273 0.027343-1.1016-0.17969-1.0781 0.36328-0.95312-0.49219-0.97656 0.5625-0.86328 0.53125-1.2812 0.066406-1.125-0.20312-2.3672-0.21094-1.1602-0.55078-2.2969 0.4375-1.6719-0.054687-1.168 0.18359-1.3984 0.25391-1.0039-0.78516-0.070312 1.2422-1.1367 0.32812-1.1602-0.03125-0.98438 0.35938-1.1367-0.53906-0.83984-1.0195-1.25-0.15234-1.0938-0.074218-1.0234-0.15234-1.4336-0.11328-1.1016 0.28125-1.1367-0.76172-0.75-0.69141-1.1797 0.042968-0.81641 1.0664-1.2422-0.089844-0.89062-0.54688-1.1602-0.39453-1.5586 0.03125-1.4297-0.82812-1.3242 0.11328-1.9414 1.0664-0.88281 0.73828-1.1602 0.58594-1.6484-0.12109-1.8281-0.13281-0.21484 1.1914-0.83984 1.1641-0.75781 0.91016-1.2812 0.20312-1.2617-0.36719-1.4648-0.16406-1.043-0.13281-1.0391-0.44922-1.4688-0.51953-1.0859-0.34766-1.8555-0.29297-0.97266-0.78125-0.63672-0.92578-1.3789-0.48828-1.3984 0.29297-1.6602 0.29297-1.3594 0.29688-0.88281-1.3711-0.046875-2.0469-1.5117-0.19531-1.2188 1.2188-1.7539 0.58594-1.3516 0.89453-1.2383 0.74219-0.10547 1.0742-0.45703 1.1172-1.4102-0.44922-1.3398-0.32422-0.83203-0.87891-1.3398-0.27344-0.78516 1.3359-1.0156 1.293-1.0586 0.28516-0.86719-0.72266-0.98438-0.23047-1.0898 0.27344-1.0234 0.25781-1.0352 0.85938-0.70312 0.77344-1.2305 0.050781-0.85156-0.80078-0.43359-1.1484-0.8125-0.94141-1.7344-1.6445-1.4141-1.6367-0.55078-0.86328-0.82812-0.72266-0.98047-0.20312-1.0273-0.96484-1.9453-0.89844-0.92969-0.51562-1.1602-0.023438-1.5703 0.47266-1.0469 0.25391-1.625-0.19922-1.0078-0.16016-0.94141 0.46094-0.97656 0.63281-0.83203-0.58984-1.8398 0.42969-0.91016 1.0078-0.90234 0.54297-1.1797-0.28516-0.85938-0.52734-0.35547-1.0273-0.98047-0.42578-0.53906-0.85156-0.79688-0.61328-1.0156-0.13281-0.96484 0.39453-1.1172 0.0625-0.99219-0.15625-2.4453-1.3555-0.95312-0.52734-0.54688-1.0273-0.76953-0.69141-0.99609-0.19922-0.69141-0.77734-0.83203-0.80859-1.9414-1.5117-1.6055-1.4844-1.0156-0.36328-0.9375-0.44531-0.55859-1.2852 0.13672-1.3711 0.054687-1.0508-1.2383-0.88672-1.5273-1.3711-1.3242-0.32422-1.3984-1.1562-0.26953-1.4531-0.96875-1.3711-0.84766-1.4297-0.41797-1.5547 0.49609-2.9375 0.29688-1.5391-0.95312-2.4492-1.3008-2.4062-1.4844-1.5391-1.2305-1.0391-1.9844-1.1367-1.2305-0.64453-1.6094-0.88672-1.2656-1.1523-0.45312-1.3281-0.55078-1.6055-1.375-2.2695-0.63672-1.0352-0.011719-1.1133 0.074219-1.1094 0.36328-0.99609 0.84375-0.69141-0.19922-1.0469-0.36719-0.95312 0.75781-0.94141 0.91016-0.41406 0.98828-0.74609 0.875-1.9648 0.32031-1.2266 0.13672-1.3789-0.19531-1.043-0.32422-1.0078-0.16406-1.3594 0.097657-0.99609 0.23438-1.4688 0.625-1.2656 0.95312-0.9375 0.64844-2.6758 0.59766-2.6055-0.046875-1.7773-0.59766-0.90234 0.24609-1.5117 0.52734-1.4141 0.91797-2.2031 0.875-2.6367 0.5-1.1484 0.078125-1.0508 0.99219-0.50781 2.5273 1.9297 1.2891 0.91016 1.2422 0.35156 1.0938 0.17188 1.8477 0.046875 1.3008-0.63281 0.21484-1.8867-0.36719-1.0312 0.4375-1.0508 1.2109-1.1406 0.24609-1.668 0.12109-1.1055 0.097657-1.3555 0.47266-1.1953 0.39844-1.1914 1.0195-1.1719 0.34766-1.0352-0.36719-1.0352-0.42188-1.2617-0.16016-1.2305-0.042969-1.0859 0.87109-1.4219 0.73438-0.71875 0.34766-1.1836 0.74219-1.293 0.4375-0.92969 0.15625-1-0.27734-1-0.21094-1.4727-1.1016-0.50391-1.9727-0.96484-0.94531-0.67188-1.3516-1.1406-1.0547-1.2305-0.75391-0.89453-1.5703-0.44922-1.1758-0.21875-2.9805-0.31641-1.4688 0.31641-1.3672 0.23047-1.1055-0.23047-1.2461-0.38672-1.5781-0.34766-1.3008-0.42188 0.21094-1.082 1.3203-0.78516 1.8164-0.89062 2.8867-0.89062 2.9844-1.2305 0.51562-0.875 0.63281-1.0625 0.76953-0.83984 0.089844-1.2148-0.15234-1.0625-0.18359-1.2969-0.25391-1.668-0.10938-2.7812-0.48828-0.9375-0.90234-0.46094-0.92969-0.61328-0.60156-0.91797-0.60547-1.0273-0.75-0.76172-0.98438-0.85938-0.79688-0.62891-0.9375-1.0273-0.72656-0.97656-0.50391-1.1406-0.80078-1.2109-0.40625-1.0469 0.070313-1.0898-0.66406-0.87891-0.875-0.49219-1.5195-1.1367-0.96484-1.1758-0.40234-1.4219-0.078125-1.0078-0.089844-1.0352 1.6133-2.043 0.75391-0.76953 0.67969-0.97266 0.20312-1.0508-0.44922-1.3359-0.87891-1.0898-0.68359-0.87891-0.98828-0.48828-0.027344-1.125-0.10547-1.1523 0.32422-1.4766 0.55078-2.1016 0.14062-1.1367 0.30469-1.3164 0.77344-1.3594 0.85156-0.71875 0.78125-0.71875 0.53516-1.1445 0.87891-1.5156 1.0547-1.7773 0.20703-1.0625 0.57422-1.0195 0.75-0.72266 0.42969-1.0234 1.1875-0.40625 1.0469-0.23828 0.47656-0.94922 0.44141-0.89844 0.9375-0.97266 0.8125-0.68359 0.98438-0.39844 0.69141-1.0273 1.3867-0.21875 1.1328-0.58984 1.668-1.0742 1.2031 0.039063 1.0273 0.11719 1.0156-0.55469 1.0586-0.25391 0.97656-0.30469 0.83984-0.57031 0.86328-0.60547 1.5703-0.98438 0.63672-0.92188 0.22656-1.1836 0.042969-1.1641 1.1484-0.0625 1.0703-0.55469 0.84766-0.77734 0.89844-0.44531 0.89844-0.58984 1.1719-1.0977 0.69531-0.94141 0.59766-1 1.1016-0.12891 1.6094 1.0547 1.0078 0.003906 0.82031-0.57422 1.1328-0.11719 0.89844 0.48047 0.78516 0.66797 0.98438 0.19531 0.96875-0.32812 1.0039-0.51953 1.0352 0.35938 0.77734 0.64062 1.8398 0.51562 1.043-0.023438 1.0586-0.42578 1.832 0.5 1.1289 0.26172 0.97266-0.26172 0.95312-0.41797 1.0039 0.17188 0.95312 0.41797 1.1055-0.51172 0.63281-0.77734 0.39062-0.99609 0.15625-1.0352-0.003906-1.0703-0.20703-0.98047 0.91016-0.55078 0.92578-0.46094 1.1328 0.027344 1.0234 0.070313 0.71094-0.75391 0.99219-0.16016 1.0469 0.11328 1.0078 0.20312 1.0391 0.039063 1.9219 0.21484 1.8047 0.38672 1.3125 0.28516 1.3789 0.097656 1.0391-0.19922 0.87109-0.55469 1.043 0.42188 0.97266 0.34375 1.0273-0.51953 0.47266-1.0039 0.37891-1.2148 0.28516-1.1523 0.75781-0.84375 0.80078-0.83594 0.44531-0.98047-0.066406-1.3125 0.074219-1.168 0.039062-1.1055-0.058594-1.3555-0.19922-1.8164-0.46094-1.4062-0.32812-1.2266 0.59375-1.4688 0.80859-1.3047-0.66406-0.98438-0.98828-0.76562-0.85156-0.57031-1.0352-0.42188-1.3984-0.53516-0.75781-0.75391-0.36719-1.0664-0.019531-1.4531-0.68359-1.2617-0.60547-1.8633-0.42969-0.93359-0.98438-0.69141-0.82812-0.88281-0.29297-1.3438-0.27734-1.2148-0.92578-1.4414-0.78906-0.6875-0.015625-1.4102 0.12891-1.0352-0.32422-1.1562 0.64844-0.95703 0.88672-0.61328 0.71094-0.74609 40.301 0.050782 4.7656-0.16016 2.7109 0.019532 25.84 0.16406 5.3945-0.011719 10.645 0.003907 14.559-0.078125 6.9336 0.085937 26.008 0.007813 4.7344 0.015625 27.934 0.066406 32.125-0.046875 0.73047-0.79688 0.96484-0.97266 1.3125-1.3984 0.76172-0.94531 1.418 0.81641 1.0781-0.45312-0.13672-1.5547 0.47656-1.4922 0.58594-0.97266 0.90234-0.59766 1.1562 0.73047 1.4727 0.69922 0.83594 1.125 1.0352 0.95703 0.60156 1.2383 1.5078-0.10156 0.74609 0.89844 1.3086-0.13672 1.4492 0.44141 1.0664 0.52344 0.79297-0.94141 0.58594-1.1211 1.1289 0.32812 2.1211-0.27344 1.25-0.91406 0.76172-0.68359 1.043-0.13672 1.043 0.49609 1.5977-0.19141 1.4258-1.1094 0.125-1.0938-0.77344-1.2109 1.1328-0.36719 1.5898 0.58594 1.1328 0.007812 1.6523-0.21875 1.5039 0.55859 0.78125 0.72266 1.2227-0.51172 1.3945-0.47656 1.043-1.1367-0.18359-1.332 0.23828-1.3516 0.73438-1.1172 1.0195-0.65234 0.92969-0.42578 1.1914-0.078125 0.0625-1.1484 0.21484-1.4648 0.44141-0.94922 0.007812-1.293 0.90234-0.45312 1.2188-0.22266 0.73047-0.80078-0.16406-1.2656 0.38672-1.668 1.168-1.1133 0.35938-1.6055 0.17969-1.0352 1.2227-0.45312 0.875-1.0859 0.79688-1.9805 0.64453-1.1445 1.1328-0.19531 1.4844-0.65234 0.41406-1.3203 0.99219-1.1133 1.4297-1.0859 1.1914-0.36328 1.6797-0.050782 1.0156 0.042969 1.1328 0.09375 1.043 0.33203 1.1602-0.30859 1.125-0.16797 0.097656-1.0469 0.97656-0.53125 1.0039-0.53125 0.89062-0.85156 1.1328-0.097656 0.59375-0.86719 0.53516-1.0273 0.71484-0.76562 0.92969-0.58203 1.1172 0.023437 1.1016-0.29297 1.1367-0.14844 0.90234-0.71484 0.66797-0.96094 0.79688-0.71094 0.92188 0.55469 1.0117 0.23438 1.3516-0.35547 0.97656-0.42969 1.043-0.0625 0.97656 0.29297 0.96875 0.46094 0.76562-0.67969 1.0039 0.30469 1.1172-0.26562 0.94922 0.32812 1.1562-0.078125 1.0078 0.28906 1.043-0.25391 0.52344-1 0.039062-1.0547-0.55469-0.94141 0.61328-0.9375 0.097656-1.0469 0.089844-1.1289 0.73438-0.82031 0.50391-0.97656 0.58984-0.91406 0.78125-1 0.078125-1.0234 0.37891-1.1328 0.61719-1.0078 0.58203-0.82812 0.5-0.96094 0.97266-0.42188 0.75781-0.70703 0.35547-1.0312 0.56641 0.875 0.55078-0.89844 0.71094-0.78516 0.66797-0.77344 0.875 0.5 0.78516-0.67188 1.0078-0.042969 0.96875 0.33984 1.0117-0.30859 1.0391-0.32031 1.0938 0.10938 0.94141-0.38281 0.69531-0.75781 0.55078-0.90625 0.55078-0.95312 0.62891-0.85938 0.96484-0.32812 0.29297-0.96094 0.75391-0.80859 0.46484-0.92188 0.99609-0.16016 0.58984-0.81641-0.10547-1.0078 0.57422-0.93359 0.72266-0.78125 0.36719-0.98828 0.63672-0.91406 0.76562-0.69531 1.0234-0.10547 0.17578-1.0391 0.16406-1.0117 0.84375-0.55078 0.33203-1 1.0156-0.14453 0.53516-0.95312-0.0625-1.0859 1.0508-0.16406 0.77344-0.82031 1-0.30078 0.59375-0.85938 0.9375-0.51953 1.0078 0.14453 1.1172 0.058594 1.1602 0.18359 0.41406-1.0195 0.22656-1.1367 0.007812-1.1094 0.87891 0.67188 1.0195-0.089844 0.96875-0.29688 0.80469-0.64062 0.92969 0.60156 0.90625-0.58203 0.94922-0.53906 0.94141 0.78125 0.94141-0.35547 1.0234-0.12109 0.48047-0.96094 0.76172-0.82422 0.67188-0.78516-0.34766-0.98047 0.97266-0.59766 0.93359-0.37891-0.86328-0.70312 0.55859-0.875 0.625-0.95703 0.93359-0.46484 1.0352 0.10547 0.42578-1.0273 1.0781-0.33203 1.0312 0.15625-0.58203-0.98828 1.125-0.035156 0.96875 0.58984 0.375-1.0312 0.48828-0.88281-0.11328-1.0898-0.13281-1.0195-0.046875-1.0391-0.007813-1.0977 0.89062-0.48047-0.21875-0.98438 0.70703-0.87891-0.88672-0.54297 0.77734-0.80078 0.24609-1.0781 0.99219 0.36719 1.0508-0.44531 0.94922-0.51953 0.66016 0.87109 0.9375 0.56641 0.83594 0.59766 1.0117-0.027344 0.60547-0.80078-0.10938-1.0508-0.57812-0.82812 1.0742 0.054687 0.86719-0.54297 0.37109-1.0625 0.59375-0.84375 1.0039 0.25 0.95312-0.46875h1.0586l0.41406-1.0156 1.0195-0.28516 0.95703-0.42578 0.17969-1.0039 0.98438 0.28516 0.39453-0.94141 0.97266 0.33203 0.99219-0.30078 0.75391-0.73828 0.79297-0.68359 0.72266-0.78516 0.89844-0.57812 0.45703 1.0312 0.56641-0.96094 0.46875-1.0156 1.0977 0.15234-0.48438-0.89062 0.60938-0.91016 1 0.25391-0.003906-1.2109-0.31641-1.043 0.61328-0.81641 1.0586 0.019532 0.53516-0.90234 0.93359 0.41797 0.83984 0.66406 0.20703-1.0703 1.0547-0.28906-0.50391-0.94531-0.44531-0.91797 0.88672-0.53906-0.015625-1.1055 0.89844-0.45703 0.96094-0.49609 0.050781-1.1523 0.875-0.60156 0.625 0.90625 0.40625-0.95703 1.0078-0.36328-0.17578-1.1758 0.46484-0.98438 1.0312-0.18359 1.0742-0.019531 1.082 0.070312 0.19141-0.98828 0.050781-1.1094 0.90234-0.44531-0.64844-0.78125 0.29297-1.043 1.1172-0.29297 0.80078 0.67578 1.0977-0.19531 0.85938-0.81641 1.0586-0.30469 1.0352 0.1875 0.26953-1.0742 0.95703-0.35938 0.95312-0.4375 1.0547 0.46484 1.0508-0.078125 0.96094 0.36328 0.76953-0.875 0.38281-0.92578 0.63281 0.78906 1 0.47266 0.26562 1.0078 1.0117-0.29688 0.81641-0.59375 0.83984-0.80859 0.011718 1.0156 0.43359 1 0.94922-0.65234 0.30859-0.97266 0.83984-0.66016 0.93359-0.38281 0.80078-0.60938 1.0703-0.34375 0.81641 0.67578 1.0898 0.16406 0.89062 0.50391 0.34766 0.95312-0.14453 1.2578-0.44922 0.96484-1.0625 0.78125-1.1875 0.33984-1.1562 0.11328 0.21484 1.957 0.80859 0.98438 0.36719 1.0312-0.98828 0.8125-1.2422 0.19531-0.42969-1.332-0.71875-0.76562-1.0586 0.078125-0.48438 1.0312 0.48438 1.0859 0.011719 1.1172 0.29297 1.2891 0.89453 0.94141 0.89062 0.77734 0.63672 0.82812 0.71484 0.78906 0.72656 0.88672 0.50781 1.1016-0.25391 1.0938-0.51562 0.96094-1.043-1 0.09375-1.2891-0.75-1.0117-0.98828 0.97656-0.60156 1.8125-1.0234 0.49219-0.72266-0.875-1.1289 0.28906 0.21484 1.1914 0.21875 1.1094-0.55859 0.85547-1.4922-0.33594-1.0508-0.40625-1.0273 0.87891-0.31641 1.1836 0.13281 1.25 1.2148 0.35547 0.86719 0.80859-0.15625 1.0703-1.2891 0.83203-1.1211 0.14453-1.6289-0.003906-1.0625-0.88672-0.71484-0.89453-1.2188-0.27734-0.88672 0.72266 0.84375 0.73438 0.78516 0.76172-0.69531 1.5156-0.42578 1.0703-0.050781 1.0586 0.68359 0.76562 1.1406 0.10938 1.1602 0.5 0.62891 0.92578 0.27734 0.97656-0.4375 1.1211-0.98828 0.75391-1.3047-0.31641-1.0078-0.48047-0.77344-0.93359-0.875-1-1.0703 0.12891-1.0547 0.82031-1.0078-0.13281-0.16016-1.0898 0.67578-1.0703 0.09375-1.3125-0.57031-0.85547-1.1211-0.36719-1.0586 0.64453-0.67969 0.96484-0.23438 0.98828-0.17188 1.0273 0.85156 0.70312 0.94922 0.58984 0.80078 0.67578 0.9375 0.73438-0.050782 1.0703-0.007812 1.0234-0.63672 0.77734 0.76953 0.66797-0.12891 1.1016-0.30078 0.96875-0.28906 0.99609-0.77734 0.71484-1.0234 0.44141-0.25781 1.043 0.28906 0.96875 0.96875 0.70312-0.019531 1.1055 0.25391 0.98828 0.59375 0.96094 0.26562 1.0039 0.57031 0.88281 0.13672 1.0898 0.73047 0.74219 0.63672 0.92969 0.53125 0.875 0.82812 0.58984-0.035156 1.082 0.68359 0.99219 0.64062 0.875 0.54297 0.85547 0.90625 0.48828 1.0547-0.20312 1.0352 0.019532 0.91406 0.49219 0.32812 1.0703 0.35938 1.0078 1.0391 0.35156 0.73047 0.89062 0.39844 1.0781 0.35938 1.0469 0.46875 0.96875 0.33203 0.96094 0.18359 1.0273 0.65234 0.83984 0.027344 1.0508 0.94141 0.34375 0.11328 1.0273-0.003906 1-0.10547 1.0625-0.5 0.97266-0.56641 0.84766-0.71875 0.71094 0.625 0.84766-0.30078 0.97266-0.14062 0.99219-0.74219 0.67969-0.60547 0.85547 0.29297 1.082 0.41016 0.91797 0.042969 1.0352-0.63672 0.86719-0.77344 0.82031-0.69922 0.76172-0.21094 1.0742-0.98828 0.48828-0.76953 0.98438-0.86328 0.88281-1.1445 0.22266-0.85938-0.54297-0.94141-0.55859-0.82422-0.57031-0.85547-0.84375-1.0352 0.09375-0.86719 0.5625-0.79688 0.71484-0.125 1.1094 0.12109 1.0469-0.93359 0.77734-0.14844 1.0742-0.82812 0.625-1.3828-0.51953-1.1719-0.16016-1.0469 0.15625-0.97266 0.90625-0.33594 0.98047-0.60547 1.0117-0.39453 1.0234-0.96094 0.29688-0.70312 0.83594 0.625 1.1797 0.22266 1.2617 0.19531 1.0234-0.43359 0.91016 0.4375 1.4297-0.32422 0.98828-0.44141 0.96484 0.30469 1.0391 0.5625 1.043 0.72656 0.69141 0.53906 1.0273z" fill="#0a5394" fill-rule="evenodd"/>
<path d="m469.06 122.92-1.9062 1.1758-2.1172 0.79297-2.4297 0.78516-0.0625 1.2578 1.0586 1.0938 0.52344 1.3047-0.48828 1.3789-1.5508 0.91016-0.039063 1.7344-0.92188 2.3359-1.0039 0.91797-0.36328 0.99609 0.76953 1.3477 0.26562 1.0391-0.046875 1.1133-0.39453 1.4219-1.7148 2.2188-1.2852 1.3008-1.082 0.69922-0.70703 1.0156 0.49219 1.2344 0.69531 1.0039 0.38281 1.1562 0.57422 0.96094 0.42188 1.3516 0.125 1.1328-0.94922 0.83594-1.3008 0.64062-0.15625 1.125-0.70312 1.875-0.75781 1.3906 0.38672 0.92578 1.2461 0.26562 1.0977 0.45312 0.94531 0.79297 0.83203 0.94531 0.57031 0.86328-0.60938 1.3672-1.3867 1.4922 0.65234 1.3906 0.92578 1.125 1.2578 1.0312 1.0469 0.78516-1.5508 0.86719-0.60547 0.83203 0.8125 0.99219-0.98047 0.51172-0.97266 0.26953-0.83984 0.59375-0.60547 0.875-0.47656 1.2539-0.85547 0.65625-0.5 0.94922-1.457 0.42969-1.1055 0.26953-0.38672 1.0391-0.21094 1.1602-0.88672 0.63281-1.1875 0.03125-1.0117 0.42578-0.67578 0.86719-0.21484 0.98438-0.63281 1.1875-0.79688 0.82422-0.73438 1.1133-0.023438 1.3789 0.11719 1.3008 0.35547 1.2109 0.23828 1.375-0.33594 1.1914-1.4844 0.57422-0.85156 1.2969-0.31641 0.96094-1.0547 0.75391-0.93359 0.54297-0.92969 0.64844-1.4375 1.2539-3.0391 0.79688-1.0469 0.60938-0.70312 0.76562-0.82812 2.1875-1.1914 1.5977-1.6523 1.0508-1.4844 0.23047-1.5664 1.418-1.2656 2.6016-1.2695 2.6914-3.207 2.5391-2.9414 0.87891-2.875-0.33203-3.8047-0.67188-2.7617 0.30078-2.2188 0.30078-1.3594-0.003906-1.9414 0.67188-1.5664 1.5664-0.44531 1.5547v1.9492l0.85938 2.082 1.3789 2.543-0.074218 1.582-0.59766 1.4766-1.043 2.5352-1.1953 2.7617-1.043 1.8633-1.9922 0.57031-1.2891-0.27344-2.0898-0.82031-2.3125-0.59375-1.8828 0.042968-1.0117 0.42578-5.2109 0.46094-1.6211 0.35547-1.2852-0.20703-1.0039 0.14062-0.57422 0.91016-0.09375 1.7188 0.47656 1.4297 0.85156 1.8945 0.4375 1.5195 0.87109 1.9609 0.51562 1.1602 0.11328 2.1562-0.67969 1.8125-0.98438 0.60547-0.94531 0.71875-0.94531 0.94531-0.98047 0.83203-1.25 0.49219-1.4023 0.625-1.7422 1.4336-0.5 0.98047-0.26562 1.3594-1.5742 0.95312-0.66797 1.2656 0.62109 1.1211 0.53906 0.85547-1.2539 1.0781-0.28906 1.457-0.24609 1.1914-1.3633-0.25-0.085937 1.1211-0.12891 0.99609-0.74219 0.69141-1.0742 0.35547-0.61719 1.1953-0.19141 1.1875-1.0039 0.42188-0.66016 0.84375-1.1094 0.35156-1.0469 0.87109-1.1523-0.11328-1.4492 0.44531-1.2148 0.26562-0.8125 0.61719-1.1445 0.26562-1.0742-0.12109-0.60547 0.98047-1.25 0.47656-1.0117 0.50391-1.0117 0.11328-1.1445 0.058594-1.0352 0.22266-0.98828-0.30078-1.0117 0.28516-1.3477 0.17969-0.71875 0.8125-1.3828-0.57422-0.94531-0.81641-0.80859 0.73047-1.1875 0.24609-1.2383 0.039063-0.82812 0.61719-0.47266 1.2227-0.71484 1.1875-0.58594 1.1016-0.89844 1.1367-0.80469 1.1641-1.4336 0.058594-1.4336-0.085938-1.1328-0.23828-0.64844 0.97266 0.023437 1.3008 0.25391 1.0469 0.20312 1.2031-0.52734 0.90234-0.30078 1.207 0.60547 1.1953-0.054687 1.3125-0.49219 1.3125-1.0391 0.57422-1.8047 0.26953-1.1172-0.26953-1.1133 0.66406-1.4805 0.10547-0.89844 0.72656-0.71484 1.3164-0.68359 0.73828-0.84766 0.875-0.027344 1.7461-0.96484 2.2578-0.16406 1.7305-0.28125 1.1914-1.8086 2.7539-0.67578 1.6523 0.51172 0.99609 0.85938 0.54688 1.7344 1.1484 0.53516 1.1758-0.35156 1.418-0.63281 1.3789-0.65625 1.2578-1.1289 0.79688-1.2461 0.70703-1.2461 0.84766-1.0117 1.8867-0.035156 1.5234 0.58984 1.5234 0.32031 1.3594 0.85938 1.2383 1.3242 0.73047 0.76953 0.66406-0.23047 1.2188-0.82422 0.875-0.69922 1.0195-0.39062 1.2383 0.30078 1.1992 0.35547 1.2539 0.34375 0.98047 0.42969 1.2188-0.10547 1.0898 0.070312 1.1133-0.53906 0.84766-1.1445-0.03125-0.68359 0.81641 0.92188 1.0703 0.63672 0.96875 0.17578 1.0156-1.0352 0.17969-1.2695 0.67188-1.1641-0.4375-1.082-0.011719-1.0352-0.38672-0.74219 0.70312-0.77734 0.77344-1.1172 0.37109-1.0977 0.20312-0.21094 0.98828-0.48828 0.92188-0.14453 1.043-0.64453 1.0391-0.31641 0.98438-0.83203 2.1094-0.55859 1.4688-0.16797 1.375 0.18359 2.1133-0.019532 1.1523 0.19531 1.1133-0.058594 1.3398-0.44922 1.375-0.65625 0.89453-0.86328 0.83594-0.86719 0.83594-0.88281 0.66797-0.71484 0.86328-0.69922 0.87891-0.82812 0.91016-1.3164 0.36719-1.2695-0.32031-1.0039 0.55469-1.6562 4.207-0.33984 1.0508 0.23438 0.98438-0.24219 1.125-0.69141 0.85938-1.293 0.15234-1.0234-0.28125-0.92188 0.88672-0.86328 0.56641-0.45312 0.90234-0.33984 1.7422-0.625 1.3906-1.2461 0.94922-1.1562 0.64453 0.14844 1.0859-0.32812 1.0859-0.78516 0.68359-1.0781 0.19922-0.95703-0.45703-0.99609-0.14844-1.0078-0.1875-1.2422 1.1094-1.1133-0.066407-0.89844-0.63281-1.7148-0.59766-1.3242 0.29688-0.74609 1.0703-1.6445 0.83203-1.7539 0.44922-1.707-0.32031-1.5938-0.28516-1.0508-0.007812-1.4414 0.29688-1.4805 0.41406-1.5742 0.14844-1.0117-0.24219-0.98828-0.30078-1.0859-0.12109-1.25-0.019531-1.0117-0.19531-1.0078-0.29688-1 0.55469-0.91406 0.62109-0.90625 0.95703-1.0156 0.25391-0.98828-0.375-1.0898 0.066407-1.1641 0.16016-0.97656 0.30469-1 0.38672-0.98828-0.51953-1.0742-0.16797-1.2227-0.042969-1.0938-0.35156-0.4375-0.98438-0.32031-0.99219-1.043-0.25781-0.99609 0.21094-4.4922 2.5703-1.707 0.11328-1.6484-0.39453-1.2969 0.30078-1.5312 0.80859-1.7617 0.96484-1.5938 0.42969-1.4727-0.35938-1.0508-0.19922-1.2031-0.011718-1.3008 0.17188-1.6562 0.3125-1.9688 0.28516-1.3828 0.55859-4.2773 0.30859-0.80859 0.81641-1.1445 0.14453-0.9375 0.55078-1.0703-0.4375-0.73047-1.1211-1.0312-0.16797-1.1406-0.13672-0.41797-0.92969-0.92969 0.60547-0.81641 0.68359-1.0234 0.41406-1.0625 0.082032-0.70703-0.77734-1.1211-0.4375-0.76172 0.86719-0.4375 0.99609-0.96484 0.51562-0.52734 1.2461-0.078125 1.0312-0.32422 1.2109-1.2227-0.25781-0.61719-0.93359-0.65234-1.3555-0.90625-0.85156-1.043 0.17969-0.80859 0.94531-2.2656 1.0547-1.0469 0.10547-1.1328 0.14453-1.5508-0.24609-1.1992-0.31641-1.2852 0.33594-1.2383-0.58984-1.3164-0.66406-0.78125 0.84375-1.0664 0.34766-1.0977-0.24609-1.0312 0.19141-1.1328 0.33594-1.2344 0.089844-1.5273 0.62891-1.2461 0.44922-1.1016 0.64062-0.84766 0.79688-0.23438 1.3086-0.79688 0.64453-1.0273-0.79688-0.69141-0.74609-1.0781-0.79688-0.31641-1.0469-1.2031-0.51953-1.0273 0.027343-1.1016-0.17969-1.0781 0.36328-0.95312-0.49219-0.97656 0.5625-0.86328 0.53125-1.2812 0.066406-1.125-0.20312-2.3672-0.21094-1.1602-0.55078-2.2969 0.4375-1.6719-0.054687-1.168 0.18359-1.3984 0.25391-1.0039-0.78516-0.070312 1.2422-1.1367 0.32812-1.1602-0.03125-0.98438 0.35938-1.1367-0.53906-0.83984-1.0195-1.25-0.15234-1.0938-0.074218-1.0234-0.15234-1.4336-0.11328-1.1016 0.28125-1.1367-0.76172-0.75-0.69141-1.1797 0.042968-0.81641 1.0664-1.2422-0.089844-0.89062-0.54688-1.1602-0.39453-1.5586 0.03125-1.4297-0.82812-1.3242 0.11328-1.9414 1.0664-0.88281 0.73828-1.1602 0.58594-1.6484-0.12109-1.8281-0.13281-0.21484 1.1914-0.83984 1.1641-0.75781 0.91016-1.2812 0.20312-1.2617-0.36719-1.4648-0.16406-1.043-0.13281-1.0391-0.44922-1.4688-0.51953-1.0859-0.34766-1.8555-0.29297-0.97266-0.78125-0.63672-0.92578-1.3789-0.48828-1.3984 0.29297-1.6602 0.29297-1.3594 0.29688-0.88281-1.3711-0.046875-2.0469-1.5117-0.19531-1.2188 1.2188-1.7539 0.58594-1.3516 0.89453-1.2383 0.74219-0.10547 1.0742-0.45703 1.1172-1.4102-0.44922-1.3398-0.32422-0.83203-0.87891-1.3398-0.27344-0.78516 1.3359-1.0156 1.293-1.0586 0.28516-0.86719-0.72266-0.98438-0.23047-1.0898 0.27344-1.0234 0.25781-1.0352 0.85938-0.70312 0.77344-1.2305 0.050781-0.85156-0.80078-0.43359-1.1484-0.8125-0.94141-1.7344-1.6445-1.4141-1.6367-0.55078-0.86328-0.82812-0.72266-0.98047-0.20312-1.0273-0.96484-1.9453-0.89844-0.92969-0.51562-1.1602-0.023438-1.5703 0.47266-1.0469 0.25391-1.625-0.19922-1.0078-0.16016-0.94141 0.46094-0.97656 0.63281-0.83203-0.58984-1.8398 0.42969-0.91016 1.0078-0.90234 0.54297-1.1797-0.28516-0.85938-0.52734-0.35547-1.0273-0.98047-0.42578-0.53906-0.85156-0.79688-0.61328-1.0156-0.13281-0.96484 0.39453-1.1172 0.0625-0.99219-0.15625-2.4453-1.3555-0.95312-0.52734-0.54688-1.0273-0.76953-0.69141-0.99609-0.19922-0.69141-0.77734-0.83203-0.80859-1.9414-1.5117-1.6055-1.4844-1.0156-0.36328-0.9375-0.44531-0.55859-1.2852 0.13672-1.3711 0.054687-1.0508-1.2383-0.88672-1.5273-1.3711-1.3242-0.32422-1.3984-1.1562-0.26953-1.4531-0.96875-1.3711-0.84766-1.4297-0.41797-1.5547 0.49609-2.9375 0.29688-1.5391-0.95312-2.4492-1.3008-2.4062-1.4844-1.5391-1.2305-1.0391-1.9844-1.1367-1.2305-0.64453-1.6094-0.88672-1.2656-1.1523-0.45312-1.3281-0.55078-1.6055-1.375-2.2695-0.63672-1.0352-0.011719-1.1133 0.074219-1.1094 0.36328-0.99609 0.84375-0.69141-0.19922-1.0469-0.36719-0.95312 0.75781-0.94141 0.91016-0.41406 0.98828-0.74609 0.875-1.9648 0.32031-1.2266 0.13672-1.3789-0.19531-1.043-0.32422-1.0078-0.16406-1.3594 0.097657-0.99609 0.23438-1.4688 0.625-1.2656 0.95312-0.9375 0.64844-2.6758 0.59766-2.6055-0.046875-1.7773-0.59766-0.90234 0.24609-1.5117 0.52734-1.4141 0.91797-2.2031 0.875-2.6367 0.5-1.1484 0.078125-1.0508 0.99219-0.50781 2.5273 1.9297 1.2891 0.91016 1.2422 0.35156 1.0938 0.17188 1.8477 0.046875 1.3008-0.63281 0.21484-1.8867-0.36719-1.0312 0.4375-1.0508 1.2109-1.1406 0.24609-1.668 0.12109-1.1055 0.097657-1.3555 0.47266-1.1953 0.39844-1.1914 1.0195-1.1719 0.34766-1.0352-0.36719-1.0352-0.42188-1.2617-0.16016-1.2305-0.042969-1.0859 0.87109-1.4219 0.73438-0.71875 0.34766-1.1836 0.74219-1.293 0.4375-0.92969 0.15625-1-0.27734-1-0.21094-1.4727-1.1016-0.50391-1.9727-0.96484-0.94531-0.67188-1.3516-1.1406-1.0547-1.2305-0.75391-0.89453-1.5703-0.44922-1.1758-0.21875-2.9805-0.31641-1.4688 0.31641-1.3672 0.23047-1.1055-0.23047-1.2461-0.38672-1.5781-0.34766-1.3008-0.42188 0.21094-1.082 1.3203-0.78516 1.8164-0.89062 2.8867-0.89062 2.9844-1.2305 0.51562-0.875 0.63281-1.0625 0.76953-0.83984 0.089844-1.2148-0.15234-1.0625-0.18359-1.2969-0.25391-1.668-0.10938-2.7812-0.48828-0.9375-0.90234-0.46094-0.92969-0.61328-0.60156-0.91797-0.60547-1.0273-0.75-0.76172-0.98438-0.85938-0.79688-0.62891-0.9375-1.0273-0.72656-0.97656-0.50391-1.1406-0.80078-1.2109-0.40625-1.0469 0.070313-1.0898-0.66406-0.87891-0.875-0.49219-1.5195-1.1367-0.96484-1.1758-0.40234-1.4219-0.078125-1.0078-0.089844-1.0352 1.6133-2.043 0.75391-0.76953 0.67969-0.97266 0.20312-1.0508-0.44922-1.3359-0.87891-1.0898-0.68359-0.87891-0.98828-0.48828-0.027344-1.125-0.10547-1.1523 0.32422-1.4766 0.55078-2.1016 0.14062-1.1367 0.30469-1.3164 0.77344-1.3594 0.85156-0.71875 0.78125-0.71875 0.53516-1.1445 0.87891-1.5156 1.0547-1.7773 0.20703-1.0625 0.57422-1.0195 0.75-0.72266 0.42969-1.0234 1.1875-0.40625 1.0469-0.23828 0.47656-0.94922 0.44141-0.89844 0.9375-0.97266 0.8125-0.68359 0.98438-0.39844 0.69141-1.0273 1.3867-0.21875 1.1328-0.58984 1.668-1.0742 1.2031 0.039063 1.0273 0.11719 1.0156-0.55469 1.0586-0.25391 0.97656-0.30469 0.83984-0.57031 0.86328-0.60547 1.5703-0.98438 0.63672-0.92188 0.22656-1.1836 0.042969-1.1641 1.1484-0.0625 1.0703-0.55469 0.84766-0.77734 0.89844-0.44531 0.89844-0.58984 1.1719-1.0977 0.69531-0.94141 0.59766-1 1.1016-0.12891 1.6094 1.0547 1.0078 0.003906 0.82031-0.57422 1.1328-0.11719 0.89844 0.48047 0.78516 0.66797 0.98438 0.19531 0.96875-0.32812 1.0039-0.51953 1.0352 0.35938 0.77734 0.64062 1.8398 0.51562 1.043-0.023438 1.0586-0.42578 1.832 0.5 1.1289 0.26172 0.97266-0.26172 0.95312-0.41797 1.0039 0.17188 0.95312 0.41797 1.1055-0.51172 0.63281-0.77734 0.39062-0.99609 0.15625-1.0352-0.003906-1.0703-0.20703-0.98047 0.91016-0.55078 0.92578-0.46094 1.1328 0.027344 1.0234 0.070313 0.71094-0.75391 0.99219-0.16016 1.0469 0.11328 1.0078 0.20312 1.0391 0.039063 1.9219 0.21484 1.8047 0.38672 1.3125 0.28516 1.3789 0.097656 1.0391-0.19922 0.87109-0.55469 1.043 0.42188 0.97266 0.34375 1.0273-0.51953 0.47266-1.0039 0.37891-1.2148 0.28516-1.1523 0.75781-0.84375 0.80078-0.83594 0.44531-0.98047-0.066406-1.3125 0.074219-1.168 0.039062-1.1055-0.058594-1.3555-0.19922-1.8164-0.46094-1.4062-0.32812-1.2266 0.59375-1.4688 0.80859-1.3047-0.66406-0.98438-0.98828-0.76562-0.85156-0.57031-1.0352-0.42188-1.3984-0.53516-0.75781-0.75391-0.36719-1.0664-0.019531-1.4531-0.68359-1.2617-0.60547-1.8633-0.42969-0.93359-0.98438-0.69141-0.82812-0.88281-0.29297-1.3438-0.27734-1.2148-0.92578-1.4414-0.78906-0.6875-0.015625-1.4102 0.12891-1.0352-0.32422-1.1562 0.64844-0.95703 0.88672-0.61328 0.71094-0.74609 40.301 0.050782 4.7656-0.16016 2.7109 0.019532 25.84 0.16406 5.3945-0.011719 10.645 0.003907 14.559-0.078125 6.9336 0.085937 26.008 0.007813 4.7344 0.015625 27.934 0.066406 32.125-0.046875 0.73047-0.79688 0.96484-0.97266 1.3125-1.3984 0.76172-0.94531 1.418 0.81641 1.0781-0.45312-0.13672-1.5547 0.47656-1.4922 0.58594-0.97266 0.90234-0.59766 1.1562 0.73047 1.4727 0.69922 0.83594 1.125 1.0352 0.95703 0.60156 1.2383 1.5078-0.10156 0.74609 0.89844 1.3086-0.13672 1.4492 0.44141 1.0664 0.52344 0.79297-0.94141 0.58594-1.1211 1.1289 0.32812 2.1211-0.27344 1.25-0.91406 0.76172-0.68359 1.043-0.13672 1.043 0.49609 1.5977-0.19141 1.4258-1.1094 0.125-1.0938-0.77344-1.2109 1.1328-0.36719 1.5898 0.58594 1.1328 0.007812 1.6523-0.21875 1.5039 0.55859 0.78125 0.72266 1.2227-0.51172 1.3945-0.47656 1.043-1.1367-0.18359-1.332 0.23828-1.3516 0.73438-1.1172 1.0195-0.65234 0.92969-0.42578 1.1914-0.078125 0.0625-1.1484 0.21484-1.4648 0.44141-0.94922 0.007812-1.293 0.90234-0.45312 1.2188-0.22266 0.73047-0.80078-0.16406-1.2656 0.38672-1.668 1.168-1.1133 0.35938-1.6055 0.17969-1.0352 1.2227-0.45312 0.875-1.0859 0.79688-1.9805 0.64453-1.1445 1.1328-0.19531 1.4844-0.65234 0.41406-1.3203 0.99219-1.1133 1.4297-1.0859 1.1914-0.36328 1.6797-0.050782 1.0156 0.042969 1.1328 0.09375 1.043 0.33203 1.1602-0.30859 1.125-0.16797 0.097656-1.0469 0.97656-0.53125 1.0039-0.53125 0.89062-0.85156 1.1328-0.097656 0.59375-0.86719 0.53516-1.0273 0.71484-0.76562 0.92969-0.58203 1.1172 0.023437 1.1016-0.29297 1.1367-0.14844 0.90234-0.71484 0.66797-0.96094 0.79688-0.71094 0.92188 0.55469 1.0117 0.23438 1.3516-0.35547 0.97656-0.42969 1.043-0.0625 0.97656 0.29297 0.96875 0.46094 0.76562-0.67969 1.0039 0.30469 1.1172-0.26562 0.94922 0.32812 1.1562-0.078125 1.0078 0.28906 1.043-0.25391 0.52344-1 0.039062-1.0547-0.55469-0.94141 0.61328-0.9375 0.097656-1.0469 0.089844-1.1289 0.73438-0.82031 0.50391-0.97656 0.58984-0.91406 0.78125-1 0.078125-1.0234 0.37891-1.1328 0.61719-1.0078 0.58203-0.82812 0.5-0.96094 0.97266-0.42188 0.75781-0.70703 0.35547-1.0312 0.56641 0.875 0.55078-0.89844 0.71094-0.78516 0.66797-0.77344 0.875 0.5 0.78516-0.67188 1.0078-0.042969 0.96875 0.33984 1.0117-0.30859 1.0391-0.32031 1.0938 0.10938 0.94141-0.38281 0.69531-0.75781 0.55078-0.90625 0.55078-0.95312 0.62891-0.85938 0.96484-0.32812 0.29297-0.96094 0.75391-0.80859 0.46484-0.92188 0.99609-0.16016 0.58984-0.81641-0.10547-1.0078 0.57422-0.93359 0.72266-0.78125 0.36719-0.98828 0.63672-0.91406 0.76562-0.69531 1.0234-0.10547 0.17578-1.0391 0.16406-1.0117 0.84375-0.55078 0.33203-1 1.0156-0.14453 0.53516-0.95312-0.0625-1.0859 1.0508-0.16406 0.77344-0.82031 1-0.30078 0.59375-0.85938 0.9375-0.51953 1.0078 0.14453 1.1172 0.058594 1.1602 0.18359 0.41406-1.0195 0.22656-1.1367 0.007812-1.1094 0.87891 0.67188 1.0195-0.089844 0.96875-0.29688 0.80469-0.64062 0.92969 0.60156 0.90625-0.58203 0.94922-0.53906 0.94141 0.78125 0.94141-0.35547 1.0234-0.12109 0.48047-0.96094 0.76172-0.82422 0.67188-0.78516-0.34766-0.98047 0.97266-0.59766 0.93359-0.37891-0.86328-0.70312 0.55859-0.875 0.625-0.95703 0.93359-0.46484 1.0352 0.10547 0.42578-1.0273 1.0781-0.33203 1.0312 0.15625-0.58203-0.98828 1.125-0.035156 0.96875 0.58984 0.375-1.0312 0.48828-0.88281-0.11328-1.0898-0.13281-1.0195-0.046875-1.0391-0.007813-1.0977 0.89062-0.48047-0.21875-0.98438 0.70703-0.87891-0.88672-0.54297 0.77734-0.80078 0.24609-1.0781 0.99219 0.36719 1.0508-0.44531 0.94922-0.51953 0.66016 0.87109 0.9375 0.56641 0.83594 0.59766 1.0117-0.027344 0.60547-0.80078-0.10938-1.0508-0.57812-0.82812 1.0742 0.054687 0.86719-0.54297 0.37109-1.0625 0.59375-0.84375 1.0039 0.25 0.95312-0.46875h1.0586l0.41406-1.0156 1.0195-0.28516 0.95703-0.42578 0.17969-1.0039 0.98438 0.28516 0.39453-0.94141 0.97266 0.33203 0.99219-0.30078 0.75391-0.73828 0.79297-0.68359 0.72266-0.78516 0.89844-0.57812 0.45703 1.0312 0.56641-0.96094 0.46875-1.0156 1.0977 0.15234-0.48438-0.89062 0.60938-0.91016 1 0.25391-0.003906-1.2109-0.31641-1.043 0.61328-0.81641 1.0586 0.019532 0.53516-0.90234 0.93359 0.41797 0.83984 0.66406 0.20703-1.0703 1.0547-0.28906-0.50391-0.94531-0.44531-0.91797 0.88672-0.53906-0.015625-1.1055 0.89844-0.45703 0.96094-0.49609 0.050781-1.1523 0.875-0.60156 0.625 0.90625 0.40625-0.95703 1.0078-0.36328-0.17578-1.1758 0.46484-0.98438 1.0312-0.18359 1.0742-0.019531 1.082 0.070312 0.19141-0.98828 0.050781-1.1094 0.90234-0.44531-0.64844-0.78125 0.29297-1.043 1.1172-0.29297 0.80078 0.67578 1.0977-0.19531 0.85938-0.81641 1.0586-0.30469 1.0352 0.1875 0.26953-1.0742 0.95703-0.35938 0.95312-0.4375 1.0547 0.46484 1.0508-0.078125 0.96094 0.36328 0.76953-0.875 0.38281-0.92578 0.63281 0.78906 1 0.47266 0.26562 1.0078 1.0117-0.29688 0.81641-0.59375 0.83984-0.80859 0.011718 1.0156 0.43359 1 0.94922-0.65234 0.30859-0.97266 0.83984-0.66016 0.93359-0.38281 0.80078-0.60938 1.0703-0.34375 0.81641 0.67578 1.0898 0.16406 0.89062 0.50391 0.34766 0.95312-0.14453 1.2578-0.44922 0.96484-1.0625 0.78125-1.1875 0.33984-1.1562 0.11328 0.21484 1.957 0.80859 0.98438 0.36719 1.0312-0.98828 0.8125-1.2422 0.19531-0.42969-1.332-0.71875-0.76562-1.0586 0.078125-0.48438 1.0312 0.48438 1.0859 0.011719 1.1172 0.29297 1.2891 0.89453 0.94141 0.89062 0.77734 0.63672 0.82812 0.71484 0.78906 0.72656 0.88672 0.50781 1.1016-0.25391 1.0938-0.51562 0.96094-1.043-1 0.09375-1.2891-0.75-1.0117-0.98828 0.97656-0.60156 1.8125-1.0234 0.49219-0.72266-0.875-1.1289 0.28906 0.21484 1.1914 0.21875 1.1094-0.55859 0.85547-1.4922-0.33594-1.0508-0.40625-1.0273 0.87891-0.31641 1.1836 0.13281 1.25 1.2148 0.35547 0.86719 0.80859-0.15625 1.0703-1.2891 0.83203-1.1211 0.14453-1.6289-0.003906-1.0625-0.88672-0.71484-0.89453-1.2188-0.27734-0.88672 0.72266 0.84375 0.73438 0.78516 0.76172-0.69531 1.5156-0.42578 1.0703-0.050781 1.0586 0.68359 0.76562 1.1406 0.10938 1.1602 0.5 0.62891 0.92578 0.27734 0.97656-0.4375 1.1211-0.98828 0.75391-1.3047-0.31641-1.0078-0.48047-0.77344-0.93359-0.875-1-1.0703 0.12891-1.0547 0.82031-1.0078-0.13281-0.16016-1.0898 0.67578-1.0703 0.09375-1.3125-0.57031-0.85547-1.1211-0.36719-1.0586 0.64453-0.67969 0.96484-0.23438 0.98828-0.17188 1.0273 0.85156 0.70312 0.94922 0.58984 0.80078 0.67578 0.9375 0.73438-0.050782 1.0703-0.007812 1.0234-0.63672 0.77734 0.76953 0.66797-0.12891 1.1016-0.30078 0.96875-0.28906 0.99609-0.77734 0.71484-1.0234 0.44141-0.25781 1.043 0.28906 0.96875 0.96875 0.70312-0.019531 1.1055 0.25391 0.98828 0.59375 0.96094 0.26562 1.0039 0.57031 0.88281 0.13672 1.0898 0.73047 0.74219 0.63672 0.92969 0.53125 0.875 0.82812 0.58984-0.035156 1.082 0.68359 0.99219 0.64062 0.875 0.54297 0.85547 0.90625 0.48828 1.0547-0.20312 1.0352 0.019532 0.91406 0.49219 0.32812 1.0703 0.35938 1.0078 1.0391 0.35156 0.73047 0.89062 0.39844 1.0781 0.35938 1.0469 0.46875 0.96875 0.33203 0.96094 0.18359 1.0273 0.65234 0.83984 0.027344 1.0508 0.94141 0.34375 0.11328 1.0273-0.003906 1-0.10547 1.0625-0.5 0.97266-0.56641 0.84766-0.71875 0.71094 0.625 0.84766-0.30078 0.97266-0.14062 0.99219-0.74219 0.67969-0.60547 0.85547 0.29297 1.082 0.41016 0.91797 0.042969 1.0352-0.63672 0.86719-0.77344 0.82031-0.69922 0.76172-0.21094 1.0742-0.98828 0.48828-0.76953 0.98438-0.86328 0.88281-1.1445 0.22266-0.85938-0.54297-0.94141-0.55859-0.82422-0.57031-0.85547-0.84375-1.0352 0.09375-0.86719 0.5625-0.79688 0.71484-0.125 1.1094 0.12109 1.0469-0.93359 0.77734-0.14844 1.0742-0.82812 0.625-1.3828-0.51953-1.1719-0.16016-1.0469 0.15625-0.97266 0.90625-0.33594 0.98047-0.60547 1.0117-0.39453 1.0234-0.96094 0.29688-0.70312 0.83594 0.625 1.1797 0.22266 1.2617 0.19531 1.0234-0.43359 0.91016 0.4375 1.4297-0.32422 0.98828-0.44141 0.96484 0.30469 1.0391 0.5625 1.043 0.72656 0.69141 0.53906 1.0273-0.003906 1.5664" fill="none" stroke="#fff" stroke-linecap="round" stroke-linejoin="round" stroke-miterlimit="10"/>
<path d="m451.54 97.527c0 3.5898-2.9102 6.5-6.5 6.5s-6.5-2.9102-6.5-6.5 2.9102-6.5 6.5-6.5 6.5 2.9102 6.5 6.5" fill="#28c028" fill-rule="evenodd" stroke="#000" stroke-linecap="round" stroke-linejoin="round" stroke-miterlimit="10"/>
<path d="m298.86 91.527v-16.469h12.203v2.7969h-8.875v3.6406h8.2656v2.7812h-8.2656v4.4688h9.2031v2.7812zm14.5-5.3594 3.2344-0.3125c0.19531 1.0859 0.59375 1.8828 1.1875 2.3906 0.59375 0.51172 1.3945 0.76562 2.4062 0.76562 1.0703 0 1.8789-0.22266 2.4219-0.67188 0.53906-0.45703 0.8125-0.98828 0.8125-1.5938 0-0.39453-0.11719-0.72656-0.34375-1-0.23047-0.26953-0.625-0.50391-1.1875-0.70312-0.39844-0.13281-1.2891-0.375-2.6719-0.71875-1.7812-0.44531-3.0312-0.99219-3.75-1.6406-1.0117-0.90625-1.5156-2.0078-1.5156-3.3125 0-0.83203 0.23828-1.6133 0.71875-2.3438 0.47656-0.72656 1.1602-1.2852 2.0469-1.6719 0.89453-0.38281 1.9766-0.57812 3.25-0.57812 2.0625 0 3.6133 0.45312 4.6562 1.3594 1.0508 0.90625 1.6016 2.1172 1.6562 3.625l-3.3281 0.15625c-0.14844-0.84375-0.45312-1.4531-0.92188-1.8281-0.46094-0.375-1.1562-0.5625-2.0938-0.5625-0.96875 0-1.7305 0.20312-2.2812 0.60938-0.34375 0.25-0.51562 0.58984-0.51562 1.0156 0 0.38672 0.16016 0.71875 0.48438 1 0.42578 0.35547 1.4453 0.72656 3.0625 1.1094 1.6133 0.375 2.8047 0.76562 3.5781 1.1719 0.78125 0.40625 1.3906 0.96484 1.8281 1.6719 0.4375 0.71094 0.65625 1.5859 0.65625 2.625 0 0.94922-0.26562 1.8359-0.79688 2.6562-0.52344 0.82422-1.2617 1.4375-2.2188 1.8438-0.96094 0.39453-2.1523 0.59375-3.5781 0.59375-2.0859 0-3.6836-0.47656-4.7969-1.4375-1.1172-0.96875-1.7812-2.375-2-4.2188zm16.188 5.3594v-16.469h5.3438c2.0195 0 3.3359 0.085937 3.9531 0.25 0.9375 0.25 1.7227 0.79297 2.3594 1.625 0.63281 0.82422 0.95312 1.8867 0.95312 3.1875 0 1.0117-0.18359 1.8672-0.54688 2.5625-0.36719 0.6875-0.83594 1.2305-1.4062 1.625-0.5625 0.38672-1.1367 0.64062-1.7188 0.76562-0.79297 0.16797-1.9375 0.25-3.4375 0.25h-2.1719v6.2031zm3.3281-13.672v4.6719h1.8125c1.3125 0 2.1875-0.085938 2.625-0.26562 0.44531-0.17578 0.79688-0.44531 1.0469-0.8125 0.25-0.36328 0.375-0.78906 0.375-1.2812 0-0.59375-0.17969-1.082-0.53125-1.4688-0.35547-0.39453-0.79688-0.64062-1.3281-0.73438-0.39844-0.070313-1.1953-0.10938-2.3906-0.10938zm12.016 13.672v-16.469h12.203v2.7969h-8.875v3.6406h8.2656v2.7812h-8.2656v4.4688h9.2031v2.7812zm15.359 0v-16.469h7c1.7578 0 3.0352 0.15234 3.8281 0.45312 0.80078 0.29297 1.4414 0.82031 1.9219 1.5781 0.47656 0.75 0.71875 1.6172 0.71875 2.5938 0 1.2305-0.36719 2.25-1.0938 3.0625-0.73047 0.80469-1.8203 1.3086-3.2656 1.5156 0.71875 0.41797 1.3125 0.88281 1.7812 1.3906 0.46875 0.5 1.0977 1.3867 1.8906 2.6562l2.0156 3.2188h-3.9688l-2.4062-3.5781c-0.85547-1.2812-1.4375-2.0859-1.75-2.4219-0.3125-0.33203-0.64844-0.5625-1-0.6875-0.35547-0.125-0.91406-0.1875-1.6719-0.1875h-0.67188v6.875zm3.3281-9.5h2.4531c1.5938 0 2.5859-0.066406 2.9844-0.20312 0.39453-0.13281 0.70312-0.36328 0.92188-0.6875 0.22656-0.33203 0.34375-0.75 0.34375-1.25 0-0.55078-0.14844-0.99219-0.4375-1.3281-0.29297-0.34375-0.71094-0.5625-1.25-0.65625-0.27344-0.03125-1.0781-0.046875-2.4219-0.046875h-2.5938zm28.109 9.5h-3.6094l-1.4375-3.7344h-6.5781l-1.3594 3.7344h-3.5312l6.4062-16.469h3.5156zm-6.1094-6.5156-2.2812-6.1094-2.2188 6.1094zm7.9062 6.5156v-16.469h3.2344l6.75 11v-11h3.0781v16.469h-3.3281l-6.6406-10.734v10.734zm15.156 0v-3l8.6406-10.672h-7.6719v-2.7969h12.062v2.5938l-9.0312 11.094h9.375v2.7812zm30.312 0h-3.6094l-1.4375-3.7344h-6.5781l-1.3594 3.7344h-3.5312l6.4062-16.469h3.5156zm-6.1094-6.5156-2.2812-6.1094-2.2188 6.1094zm0 0" fill="none" stroke="#fff" stroke-linecap="round" stroke-linejoin="round" stroke-miterlimit="10" stroke-width="2"/>
<path d="m298.86 91.527v-16.469h12.203v2.7969h-8.875v3.6406h8.2656v2.7812h-8.2656v4.4688h9.2031v2.7812zm14.5-5.3594 3.2344-0.3125c0.19531 1.0859 0.59375 1.8828 1.1875 2.3906 0.59375 0.51172 1.3945 0.76562 2.4062 0.76562 1.0703 0 1.8789-0.22266 2.4219-0.67188 0.53906-0.45703 0.8125-0.98828 0.8125-1.5938 0-0.39453-0.11719-0.72656-0.34375-1-0.23047-0.26953-0.625-0.50391-1.1875-0.70312-0.39844-0.13281-1.2891-0.375-2.6719-0.71875-1.7812-0.44531-3.0312-0.99219-3.75-1.6406-1.0117-0.90625-1.5156-2.0078-1.5156-3.3125 0-0.83203 0.23828-1.6133 0.71875-2.3438 0.47656-0.72656 1.1602-1.2852 2.0469-1.6719 0.89453-0.38281 1.9766-0.57812 3.25-0.57812 2.0625 0 3.6133 0.45312 4.6562 1.3594 1.0508 0.90625 1.6016 2.1172 1.6562 3.625l-3.3281 0.15625c-0.14844-0.84375-0.45312-1.4531-0.92188-1.8281-0.46094-0.375-1.1562-0.5625-2.0938-0.5625-0.96875 0-1.7305 0.20312-2.2812 0.60938-0.34375 0.25-0.51562 0.58984-0.51562 1.0156 0 0.38672 0.16016 0.71875 0.48438 1 0.42578 0.35547 1.4453 0.72656 3.0625 1.1094 1.6133 0.375 2.8047 0.76562 3.5781 1.1719 0.78125 0.40625 1.3906 0.96484 1.8281 1.6719 0.4375 0.71094 0.65625 1.5859 0.65625 2.625 0 0.94922-0.26562 1.8359-0.79688 2.6562-0.52344 0.82422-1.2617 1.4375-2.2188 1.8438-0.96094 0.39453-2.1523 0.59375-3.5781 0.59375-2.0859 0-3.6836-0.47656-4.7969-1.4375-1.1172-0.96875-1.7812-2.375-2-4.2188zm16.188 5.3594v-16.469h5.3438c2.0195 0 3.3359 0.085937 3.9531 0.25 0.9375 0.25 1.7227 0.79297 2.3594 1.625 0.63281 0.82422 0.95312 1.8867 0.95312 3.1875 0 1.0117-0.18359 1.8672-0.54688 2.5625-0.36719 0.6875-0.83594 1.2305-1.4062 1.625-0.5625 0.38672-1.1367 0.64062-1.7188 0.76562-0.79297 0.16797-1.9375 0.25-3.4375 0.25h-2.1719v6.2031zm3.3281-13.672v4.6719h1.8125c1.3125 0 2.1875-0.085938 2.625-0.26562 0.44531-0.17578 0.79688-0.44531 1.0469-0.8125 0.25-0.36328 0.375-0.78906 0.375-1.2812 0-0.59375-0.17969-1.082-0.53125-1.4688-0.35547-0.39453-0.79688-0.64062-1.3281-0.73438-0.39844-0.070313-1.1953-0.10938-2.3906-0.10938zm12.016 13.672v-16.469h12.203v2.7969h-8.875v3.6406h8.2656v2.7812h-8.2656v4.4688h9.2031v2.7812zm15.359 0v-16.469h7c1.7578 0 3.0352 0.15234 3.8281 0.45312 0.80078 0.29297 1.4414 0.82031 1.9219 1.5781 0.47656 0.75 0.71875 1.6172 0.71875 2.5938 0 1.2305-0.36719 2.25-1.0938 3.0625-0.73047 0.80469-1.8203 1.3086-3.2656 1.5156 0.71875 0.41797 1.3125 0.88281 1.7812 1.3906 0.46875 0.5 1.0977 1.3867 1.8906 2.6562l2.0156 3.2188h-3.9688l-2.4062-3.5781c-0.85547-1.2812-1.4375-2.0859-1.75-2.4219-0.3125-0.33203-0.64844-0.5625-1-0.6875-0.35547-0.125-0.91406-0.1875-1.6719-0.1875h-0.67188v6.875zm3.3281-9.5h2.4531c1.5938 0 2.5859-0.066406 2.9844-0.20312 0.39453-0.13281 0.70312-0.36328 0.92188-0.6875 0.22656-0.33203 0.34375-0.75 0.34375-1.25 0-0.55078-0.14844-0.99219-0.4375-1.3281-0.29297-0.34375-0.71094-0.5625-1.25-0.65625-0.27344-0.03125-1.0781-0.046875-2.4219-0.046875h-2.5938zm28.109 9.5h-3.6094l-1.4375-3.7344h-6.5781l-1.3594 3.7344h-3.5312l6.4062-16.469h3.5156zm-6.1094-6.5156-2.2812-6.1094-2.2188 6.1094zm7.9062 6.5156v-16.469h3.2344l6.75 11v-11h3.0781v16.469h-3.3281l-6.6406-10.734v10.734zm15.156 0v-3l8.6406-10.672h-7.6719v-2.7969h12.062v2.5938l-9.0312 11.094h9.375v2.7812zm30.312 0h-3.6094l-1.4375-3.7344h-6.5781l-1.3594 3.7344h-3.5312l6.4062-16.469h3.5156zm-6.1094-6.5156-2.2812-6.1094-2.2188 6.1094z" fill-rule="evenodd"/>
</g>
</svg>
