<?xml version="1.0" encoding="UTF-8"?>
<svg width="400pt" height="500pt" version="1.1" viewBox="0 0 400 500" xmlns="http://www.w3.org/2000/svg">
<g id="a">
<rect width="400" height="500" fill="none"/>
<path d="m265.78 499-0.10938-0.10547-0.84766-0.67969-0.19922-0.99219-0.85938-0.58984-1.0508-0.36719-0.86328-0.63672-0.85938-0.6875-0.99219-0.26172-0.83594-0.55078-0.94531-0.39453-0.32031-0.95312-1.0039 0.058594-0.90234 0.5-0.33984-0.96875 0.39062-0.96875 0.58203-0.86328 0.51172-0.87109 0.72656-0.73438-0.35156-0.95312-0.73047-0.76172-0.91797-0.41016-1.0117-0.046875-0.33203-0.97266 1.0742-0.20703 0.98438 0.25781 0.81641-0.66406-0.007812-1.0273 0.58594-0.85156-0.35156-0.97266 0.35547-0.94141-0.59766-0.86328-0.67188-0.89062-0.50781-0.85938-0.21875-0.98438 0.94531-0.48828 0.69531 0.75781 1.0195 0.11719 0.80078-0.66016 1.2266 0.070312 0.98438-0.39844 0.66406-0.81641-0.37891-0.94922-0.39844-0.92188 0.62891-0.79297 0.88672-0.69141-0.59375-0.93359-0.23828-1.0742 0.003907-1.0078 0.90234-0.67969 0.89844-0.61719-0.54688-0.89453-0.17969-1.0625 0.35156-0.97266 0.84766-0.62891 1.1758 0.17188 0.60938-1.1172-0.14844-1.0898-0.39453-0.9375-0.125-1.0391-0.19141-0.98047-0.20703-1.0859 1.0469-0.046875 0.87109 0.53906 0.41797-1.0391 0.95312-0.66016 1.0859 0.16797 0.48438-0.88672 0.41406-0.95703-0.019532-1.5508-0.26953-1.2773-0.63672-1.2344-0.52344-0.90625-0.54688-1.0508 0.054687-1.3242-0.10547-1.0898-0.36328-1.0664-0.38672-0.95312-0.10938-1.043-0.44141-0.96094 0.45312-0.89844-0.0625-1.0039-0.28516-0.97656 0.62891 0.8125 0.97656 0.40234 0.64844-0.85938 0.37891-0.95312-0.28516-0.98438 0.62891-0.89844-0.36328-1.082-0.52734-1.0859-1.0938 0.039062-0.45312-0.91016-1.0156-0.21484 0.03125-1.0117 0.93359 0.37891 0.11328-1.1914 1.0312-0.003906 0.24219-1.0273-0.54297-0.86719-1.0938-0.027344-1.0156 0.066406-0.83203-0.62891 0.92188-0.42578 0.21484-1.0312-0.63672-0.94141-0.9375-0.46875-1.0312 0.30078-1.0312 0.20703-0.089844-1.0312 0.38672-1.1016-0.28516-0.97266-0.67188-0.90625-0.51953-0.92578-0.75391-0.875-0.62891-0.86719-0.73047-0.78125-0.73828-0.76172-0.73828-0.69531-0.71094-0.74609 0.59375-0.85547-0.47266-0.89844-0.03125-1.0469-0.79688-0.96875-0.92969-0.57031-0.96875-0.60547-1.0117-0.61719-1.1133-0.49609-0.91797-0.52734-1.0977-0.49219-0.95312-0.47266-0.97656-0.28516-0.78125-0.77734 0.082031-1.0117-0.10938-1.0234 0.58984-0.84375 0.16406-1.2344-0.53125-0.96094-0.73047-0.78906-0.92188-0.59375-1.0234-0.26172-0.94141 0.47266-0.35547 0.9375-0.69922 0.76953 0.31641-0.98047-0.70312-0.78906-0.85547-0.55859 0.070313-1-0.78906-0.71094-0.63281-0.80469 0.14062-1.0352-0.76953-0.70312-0.99219-0.29688-0.25781-1.0547-0.39062-1.0352-0.98438-0.37891-0.29688-1.0312 0.5625-0.875 0.48438-0.88672-0.16016-1.1367-0.54297-0.98828-0.79297-0.81641-0.82031-0.62891-1.0469-0.007812-0.69141-0.86328-0.60156-0.92188-0.78516-0.79688-0.97656-0.80078-0.91406-0.54297-0.81641-0.9375-1.0977-0.71484-0.78125-0.85156-1.0742-0.57031-0.87891-0.62109-1.2266-0.73828-1.0117-0.57422-1.3867-0.57812-1.1406-0.53125-0.94922-0.4375-0.99609-0.39844-0.98047-0.39453-0.98828-0.42969-0.94141-0.44531-0.94922-0.37891-0.94922-0.45703-0.94531-0.44531-0.97266-0.38281-0.9375-0.36719-0.95312-0.35547-0.95703-0.41797-0.91406-0.45703-0.82812-0.57422-0.83594-0.55859-0.82812-0.67969-0.74609-0.76172-0.65234-0.79688-0.64844-0.80469-0.69531-0.82031-0.84375-0.55078-0.80078-0.64062-0.94141-0.67578-0.88281-0.79688-0.96875-0.34375-0.78906-0.68359-0.87891-0.55469-0.86719-0.72656-0.89062-0.5-0.85938-0.57812-0.85547-0.71875-0.92969-0.72656-1.0742-0.66406-0.85547-0.66016-0.87891-0.68359-0.96094-0.50391-0.76953-0.68359-1.0391-0.51172-0.86719-0.5625-0.94922-0.60938-1-0.60547-0.93359-0.51562-1.0508-0.54297-1-0.56641-0.95312-0.53906-1.0469-0.51172-0.94531-0.49219-1.0664-0.49609-1.0469-0.49609-1.0156-0.50781-0.875-0.48828-0.95703-0.44922-1.0039-0.42578-0.91016-0.44531-1.0508-0.42578-0.90234-0.47656-0.96094-0.42578-1.1797-0.46875-1.0273-0.44141-0.97266-0.41797-0.98047-0.41797-1.3125-0.55078-1.0117-0.48828-0.96094-0.45312-1.1875-0.40625-0.92188-0.45703-1.043-0.39062-1.1719-0.51172-0.94531-0.44141-1.1445-0.47266-0.92188-0.40625-0.93359-0.42578-0.94141-0.35938-0.92578-0.40625-0.92188-0.42969-0.94531-0.39062-0.92969-0.39062-0.92188-0.41797-0.96875-0.37109-0.92578-0.4375-0.94531-0.36328-0.93359-0.4375-0.95703-0.39453-0.95312-0.39844-0.95703-0.39062-0.94922-0.44141-0.93359-0.375-0.92969-0.39453-0.93359-0.38672-0.96875-0.375-0.96484-0.34766-1.0039-0.42188-0.96094 0.35156-0.87109-0.55078-0.95703-0.35156 0.26562-1.0156 0.68359-0.73828 0.96094-0.40234-0.039063-1.1094-0.47266-0.92578-0.68359-0.85547-0.69141-0.73047-0.77734-0.65234 0.0625-1.0039 0.35938-0.96484-0.51953-0.92188 0.36328-0.95312-0.19141-1.0391-0.21484-1.0234 0.75391-0.73828 0.93359-0.35938 0.81641-0.64062 0.60547-0.85156 0.011719-1.0586-0.37891-1.0078-0.40625-0.94141-0.60547-0.80469-0.75781-0.65625 0.66016-0.75391 0.73047-0.76172 0.96484-0.29688 1.0234-0.027344 1.0859 0.25391 0.91406-0.5 0.26953-1-0.046875-1.0469 0.125-1.0312 0.26953-0.98047 0.53516-0.89844 0.20703-0.99219 0.0625-1.0039-0.070313-1.0391-0.26562-1.0508-0.51562-0.89453v-1.0117l-0.61719-0.79297-0.5625-0.83594 0.082031-1.0273-0.375-0.95312-0.44531-0.90234-0.57812-0.81641-0.8125-0.67969-0.89844-0.55469-1.375 0.61328 0.76953-1.2305-0.72266-0.71484-0.56641-0.92969-0.66797-0.88281-0.81641-0.62891-0.87891-0.53125-0.92578-0.47656-0.85547-0.5625-0.125-1.0273-0.80859-0.58984-0.93359-0.54688-0.48438-0.90234-0.59766-0.82422-0.78125-0.64844-0.86328-0.54688-0.86719-0.51172-0.82422-0.61719-0.82031-0.59766-0.88281-0.53125-0.42969-0.92969-0.875-0.57031-0.66406-0.78516-0.84766-0.58203-0.94531-0.44531-1.2852-0.57422-0.82422-0.71484-0.79688-0.63281-0.91797-0.4375-0.89844-0.44922-0.92578-0.46094-1.0469-0.13672-0.67578-0.76172-0.89844-0.44141-0.92969-0.44531-0.87891-0.58984-0.96484-0.45312-0.92578-0.40625-0.95312-0.45703-0.99609-0.44531-0.95703-0.48438-0.94531-0.38672-0.97656-0.49609-1.0586-0.30078-0.98828-0.39062-0.86719-0.51562-0.93359-0.42578-0.98438-0.41797-0.93359-0.48047 0.28516-1.3242 1.5273-1.9102 1.3281-0.89844 0.47656-1.6484 0.097656-1.0352-0.1875-1.125 1.8164-0.84766 1.5547-0.19922 5.1289-0.53906-0.042968-1.1406 0.019531-1.1016 0.19141-1.6328 0.14453-1.2305 1.2812-0.26562 3.6484-0.75391 0.60547-1.0742-0.84766-0.66406-1.5117 0.14453-0.09375-1.082-0.76172-3.0078 0.12109-1.4922-1.0391 0.19141-1.3555 0.26953-1.168 0.20703-1.125 0.24219-0.85156-0.98047-0.78516-1.0508 0.28125-2.2539 0.62109-0.91406 0.92578-1.8867 0.054687-1.0664 0.80859-1.7148 1.043-1.6797-0.66406-2.1367-1.0703-0.5625-0.84375-0.78906-0.76562-0.69531 0.0625-1.0156-0.62109-0.79297-1.3008 0.5-0.85156-0.82422-1.6484-2.4258-0.42578-0.95703-0.57812 1.2852-1.3984-0.46484-1.2852-2.3242-1.6055 0.90625-1.2773-0.22266-1.1719-0.63281-0.60938-0.97656 0.22266-1.0469 0.82031-1.1758 0.34766-0.95703 0.54688-1.0586 0.71484-0.99219 0.52344-1.0469-0.046875-1.3555 0.61328-1.1875-0.29297-1.1562-0.73828-0.71094-1.3438-0.73438-1.0312-0.52344 0.47656-0.99219 0.14453-1.1289-0.50391-1.1367-0.17969-1.0039-0.097656-1.0469 0.29688-1.4414-0.44141-0.89844-0.86719-0.99219-0.24219-1.3516-0.38672-0.96094-0.94531-0.71875-0.58594-1.2539-1.2773-1.2148-1.0703-2.3086h1.0547l0.96875 0.30078 0.41016 0.97656 0.51562 0.91016 0.92188 0.49609 1.0117 0.23828 1.0078 0.26562 0.89844 0.49219 1.0664 0.070313 0.96094 0.28906 1.0312 0.34375 0.95312 0.30859 1.0352 0.18359 1.0312 0.25781 1.0352 0.36719 1.2344 0.089843 1.0938 0.089844 0.53906-1.2617-0.18359-1.0039-0.27734-1.5-0.44531-1.5312-2.1445-1.6133-0.35938-0.97656 0.28516-0.97266 0.25391-1.5586 0.11719-1.1914 1.0078-0.76562 0.98828-0.66406 0.70703-0.78125-0.050781-1.3398 0.49609-0.92969 0.47266-1.125 0.73047-1.1406 0.3125-1.4375 0.17188-1.0781 0.10547-1.25 0.16797-1.0312 0.58984-1.1602 0.60547-1.1094-0.4375-2.4688-0.09375-1.168-0.71875-1.2148-0.23438-0.97656 0.19922-1.1758 0.10547-1.5977-0.17188-1.3984-0.32031-1.3516-0.33594-0.96094-0.12109-1.3477-0.87109-1.0508-0.91016-0.61719-0.56641-0.84375-0.69922-1-0.34375-1.1328 0.09375-1.1406-0.03125-1.5664 0.070312-1.2695-0.77734-0.67188-1.082 0.37109-1.0547-0.27344-0.3125-0.95703-0.83203-0.58984-1.1836-0.53516-0.55859-0.89453-0.56641-1.0117-0.85547-1.1055 0.28906-1.0977-0.085937-1.1719-0.28906-1.043-0.89844-1.4141 0.47656-2.5508-1.4258-2.2773-1.0234-0.96875-0.75781-0.78906-1.957-2.2539-0.75391-1.1406-1.4375-0.35938-9.6523-0.4375-0.85938 0.80469-1.0312 0.29297-1.375 0.023438-2.1797 1.3867-1.6523 0.30078-1.3359 1.0977-1.1602 0.36328-1.0352-0.09375-1.2656-0.16406-0.77344-0.91016-0.99219-0.17188-1.2695 0.84375-1.0547 0.70312-1.9219 0.25-1.2461-0.34766-1-0.53125-0.91016 0.9375-0.37109-0.93359 0.53125-0.92188 1.0039-0.19141 1-0.058593 0.67969-0.76562 1.0234-0.09375-0.80859-0.71875-0.89062-0.54297 0.24609-0.99219 0.99609-0.1875 0.98828-0.26953 0.64062-0.77734 0.42578-0.91797-0.29297-0.99219-0.25391-1.0117-0.34766-0.94141-0.69922-0.72656 0.34766-0.9375 0.015625-1.043 0.55078-0.89062-0.68359-0.83594-0.98438-0.34375-0.48047-0.89453 0.54297-0.90625-0.32031-1.0156-0.50391-0.98047-0.60547-0.86719-0.71484-0.79688-0.95312-0.58984-0.72266-0.71875-0.60156-0.80469-0.51172-0.90625-1.0742-0.20312-0.75781 0.65625-0.91406-0.42578-1.082 0.074219 0.48828-0.87891 0.69141-0.79688-0.17578-0.99219 0.042969-1.1133-0.64062-0.79297-0.61719-0.80859 0.34766-0.98828-0.40234-0.96875 0.61719-0.8125 1.0586-0.082031 0.89844-0.44141 0.95312 0.33203 0.37109 0.96875 0.96094 0.4375 0.40625 0.92188 0.66016 0.80469 1.0625 0.14844 1.0312-0.11719 0.77734 0.65625 1.0234 0.28516 0.87891-0.48438 0.66797-0.77344 0.75-0.66797 0.55859-0.85938 0.42578-0.95312 0.5-0.98828 0.45703-0.9375-0.015625-1.0781-0.16797-1.0391-0.0625-1.0156 0.21094-0.99609 0.14062-1.0117 0.070313-1.0195 0.25781-1.0078 0.5-0.96484 0.007813-1.0039 0.56641-0.92188 0.45703-0.99219 0.13281-1.2031-0.23438-1.1172-0.56641-1.0117-0.40625-0.92188-0.42188-0.93359-0.48047-1-0.50781-0.94141-0.71094-0.86719-0.55469-0.90234-0.71875-0.75-0.73828-0.75-0.36719-1.0547-0.25-1.0039-0.70312-0.73438-0.32812-1-0.84766-0.625-0.37891-0.98828-0.31641-0.98828-0.83594-0.66797-0.74609-0.75781-0.55469-0.97656-0.60156-0.82812-0.66406-0.79297-0.67578-0.74219-0.78516-0.77344-0.625-0.83594-0.72656-0.72656-0.83594-0.76953-0.66797-0.76172-0.40625-0.93359 0.625-0.99219 0.94531-0.53125 1.1562 0.44922 0.90625-0.83594 0.29297-1.3281 0.074219-1.4219-0.50391-1.2812 0.17188-1.0039-0.70312-1.2891 2.3867-0.81641 2.8828-1.4453 1.9375-0.60156 1.3125-0.79297 0.92578-1.4219 1.0586-1.4688 2.0859-1.1562 1.1953-0.82812 2.1406-1.2344 1.7539-0.71484 1.6914-0.57812 2.5117-0.097656 1.9883 0.57812 1.4062 0.63672 1.1406 0.85156 0.92578 0.55859 1 0.30859 1.0312-0.69531 1.2461-0.71484 1.5234-1.1953 1.2031-0.097656 1.7578 0.95312 1.3047-0.023438 0.19141-1.0508-0.36328-2.1953-0.77734-1.0625-1.5039-0.95703-0.95312-0.78125-0.085938-1.4219 0.019531-2.332-1.1602-0.76953-1-0.34766-1.2656-1.6211 0.80078-1.8516 1.0625-1.4844 1.1758-1.3125 1.0586-0.69141 1.7578 0.46094 1 0.80859 1.1016 1.082 1.2539 0.30859 1.793-0.11719 2.1406-0.32812 1.4453-0.69141 1.1602-0.8125 0.51953-1.6562-0.019531-1.5234 1.0781-0.71484 0.98438-1.0039 1.3633-1.1797 1.125-0.78906 1.75-1.457 1.4922-1.3008 1.7148-0.75 1.043-0.71484 0.66016-1.332-0.14062-1.4062 0.49609-1.3125 0.14062-1.4258 1.0586-1.4453 0.94531-1.1016 0.40625-1.5625 0.69531-1.6172 0.097656-1.1602 0.035157-1.8125 0.98438-1.3672 1.1953-0.28906 1.7383-0.46484 0.82812-0.61719 1.4453-0.59766 0.79297 1.1172 0.28516 0.98438 1.2383 0.75391 1.7734-0.36719 1.3711-0.67578 1.5234 0.019531 0.95703 0.34375 1.1133 0.95703 1.3789 0.39844 0.73438 0.75 1.1953 1.082 0.83203 0.73047 0.80859 0.63672 0.70703 1.2109 0.83594 0.69531 0.96094 0.54688 4.3828 2.0391 1.5078 0.80078 1.4414 1.6875 0.69531 1.4102 1.0195 1.1172 1.4102 0.71484 1.582 0.86719 1.1953 0.55859 0.98438 0.71484 1 1.293 0.71875 1.2266-0.30078 1.2227-1.2031 0.60156-1.0938 0.58594-0.82031 0.71094-1.2227 1.4414-0.36328 1.2227 0.035156 2.2227-0.45703 1.5156-0.92969 1.0938-0.92969 0.69531-1.0039 0.69141-0.74609 0.89453-0.85938 0.76562-1.8984 2.1719-1.3672 1.6602-1.293 1.2188-0.80469 1.0234-0.73047 1.375 0.71484 0.91797 1.125 0.95312 0.77344 1.8438 0.24219 1.4727 0.046875 1.6523 0.59766 1.6133 0.51172 1.1602 0.69531 1.1797 0.29297 1.1133 0.20312 0.98828 0.3125 1.5664 1.3633-0.14062 1.1953-0.32031 1.1992-0.074219 1.0781 0.10547 1.4883 0.71484 1.7227 1.2109 1.7344 0.84375 2.2305 0.28906 1.6289 0.21484 1.25 0.039063 1.6484-0.36719 0.93359-0.42188 0.94922-0.32031 1.5742 0.23047 1.4336 0.48438 2.2891 0.011719 1.0938-0.16016 1.2266 0.62891 0.25 1.0273-0.39062 1.2188-0.48438 0.90625-1.2578 1.168-0.375 1.0781 0.52734 1.1641 0.60938 1.3242 0.32422 1.0586 0.44141 0.98047 0.34375 1.8008-0.27344 1.7344-0.64844 2.4023-0.60938 1.3906-0.59375 0.89062-0.49609 1.7461 0.79297 1.2305 1.0898-0.23047 1.5898-0.62891 1.9023 0.0625 1.0469 0.44531 1.1016 0.78906 1.6016 0.81641 0.89453 0.53516 0.37109 1.4609 0.67188 1.0078 1.0391 0.58594 1.0586 0.16016 0.34766 1.5195 0.36328 1.2734 0.75781 1.3047 1.0664 1.1523 1.0859 0.76953 0.94141 1.0117 3.0117 0.40234 1.2344 0.36719 1.9062 1.9102 0.9375 0.37109 1.1758-0.61719 1.0039-0.44141 1.8438-0.48438 1.2578-0.35938 1.082-0.72266 1.1562-1.3828 0.83203-0.75781 1.2344-1.1172 0.24219-1.0273-0.054687-1.4648-0.39062-1.8242 0.019531-1 0.59375-1.1172 1.0781-0.18359 1.3203-0.24219 1.2422-0.50391 1.3398-0.22266 1.6328-0.27734 1.4688 0.14844 1.0391-0.11328 1.5234 0.46484 1.043 0.61328 2.1445 1.7891 1.5508 0.24219 1.8984-0.54297 1.3164 1.168 0.6875 1.0234 0.33594 1.4492 1.2617 1.4141 2.0625 0.27734 0.89844 0.60547 1.5195 1.1953 1.3789 0.25781 1.5195 0.097656 1.1133-0.16797 1.3789 0.17578 1.4102 0.10156 1.4492-0.29688 1.3203-0.46484 1.8203-0.10938 1.5781 0.035156 1.1133-0.074219 1.5078-0.42578 0.98438-0.57812 1.8398 0.019531 1.0938 0.6875 1.5078 0.29297 1.3555-0.015625 1.0781 0.11328 1.6172 0.41016 1.8203 0.6875 1.2812 0.42578 1.1602 0.78906 1.0156 0.38281 1.0469 0.59375 0.625 0.91016-0.80859 1.4727-2.7109 2.8555-1.0781 1.375-0.85547 1.1992-1.7812 1.4766-1.4961 1.6953-1.9336 1.6211-1.3125 0.21875-2.3555 0.28906-1.1094 0.28906-1 0.84766-1.2227 1.1758-1.3359 0.86719-1.0195 0.73438-0.51172 0.86719-0.47266 1.2656-1.0391 1.6445-0.97656 1.3789-0.64453 0.84375-2.0898 1.1328-1.1562 0.023437-1.2461-0.24609-1.4648 0.023437-1.2031-0.24219-1.332-0.46875-2.2461-0.44531-1.5977-0.39844-2.0234-0.69141-1.1328-0.085937-1.1797 0.019531-1.3555 0.57812-1.4883-0.375-1.4219-0.28906-2.0664-0.33594-1.3633-0.23828-1.1289-0.027344-1.043 0.10938-1.1992 0.3125-1.5117 0.73438-0.84766 1.2422-0.085937 2.0469 0.15625 1.8008 0.15234 1.6875 0.17969 1.4688 0.023438 1.4453 0.35547 1.6211 0.39844 1.0664 0.46875 1.0234 0.50781 1-1.3555 1.5117-1.293 0.72656-1.0625 0.51562-1.4883 0.53516-1.043 0.86719-1.2695 0.44531-2.3555-0.023437-1.0781 0.39062-1.0117 0.41016-1.332 0.19922-1.0664 0.15625-1.0898-0.19922-1-0.11328-0.40234 1.1562 0.49219 0.93359 0.085937 2.1328-0.019531 1.9141-0.33594 0.97656-1.6836 3.1641-0.85156 1.2734-0.92969 1.1172-0.3125 1.0703 0.44531 1.6133 0.91016 1.1797 0.53125 1.3984 0.87891 1.1211 2.0234 0.59766 1.1914 0.15625 1.6914-0.085937 2.0625-1.0117 0.88281-0.69531 1.5625-0.39844 1.2852-0.19531 0.99219-0.26172 1.4375-0.33984 1.0078 0.015625 1.8789-0.042969 1.0938 0.027344 2.0078-0.18359 1.0352-0.17969 1.2695-0.0625 0.60938 0.85156-0.9375 1.5391-0.58203 2.2734 0.097657 1.2383 0.17188 1.0352-0.058594 1.7656-0.69141 0.84375-2.2812 1.5625-1.0781 0.49609-1.7656 0.59766-1.0938 0.65625-1.2109 1.2656-0.29688 1.293-0.28516 2.0625-0.42969 1.3828-0.69531 1.5078-0.71094 1.2227-0.32812 1.5195 0.51172 1.6953 0.10156 1.6211-0.50781 1.1875-0.21875 1.6289 1.3672 1.5195 0.46875 1.2812-0.12891 1.125-1.0234 0.96875-0.89844 0.63672-1.3906 0.58594-1.5508 0.53906-1.2656 0.65625-0.98438 0.92188-0.45312 1.3398-0.1875 1.4922-0.85547 0.78906 1.1719 0.33203 1.7812 1.1992 1.1953 1.168 0.64453 1.4414 0.86328 1.9688 0.15234 1.4727 0.42969 1.3203 1.5664 0.40234 0.82812-0.89453 0.76953-0.67578 1.6289-1.1953 1.2891-0.24609 1.1367 0.27734 1.7812 0.15234 1.3516 0.27734 2.0273 0.42969 1.1992-0.03125 1.6914-0.70703 2.1797-1.3516 1.5977-0.42969 1.8633-0.21875 1.6562-0.68359 1.3672-0.6875 2.5547-0.57422 1.7617-0.54688 1.2617-0.67969 1.082-0.67969 1.0039-0.61328 1.1523-0.97266 0.82812-1.0039 0.57422-0.86328 1.1523-0.72266 1.1445-0.35938 1.8516 0.019531 1.1562 0.79297 0.91016 1.1445 1.625 1.3242 1.4648 0.85547 0.88672 0.48828 1.0273 0.33984 1.5508 0.30859 1.0703-0.41406 1.0156-1.0742 0.29688-2.082 0.074219-1.3633 1.5039-2.0117 1.4375-1.5898 1.0664-0.64453 0.94141-0.48438 1.2109 0.13281 1 0.50391 1.4375-0.050782 1.9336-0.015625 1.5547 0.23438 1.2422 0.20312 1.2891 0.33203 1.1016-0.12891 1.2734-0.47266 0.96094-0.32031 0.89844-1.0117 0.52344-1.0352 1.1211-1.4219 0.875-0.82031 0.98047-0.64062 1.6523-1.2969 1.0938-0.19531 1.418-0.40625 1.3906-0.76953 1.0742-1.1445 0.95703-0.78516 1.4805-0.95312 1.0156-0.72266 1.7617-0.84766 1.1328-0.52344 1.3164-0.98438 0.72656-0.80078 1.0195-1.1484 1.0078-0.73438 0.71875-0.76953 1.3594-0.48438 1.5703 0.23438 1.2344 0.085937 1.0938-0.63281 0.73828-0.73047 0.95703-1.1367 0.70703-1.0391 0.875-1 0.55078-1.168 0.58594-1.0664 0.28516-1.5352 0.86328-1.1484 0.96484-1.0625 0.46484 1.0898 0.76562 1.0117 1.2539 1.0039 0.95703 1.4023 0.67188 0.78516 0.61719 1.0781 1.9609 0.67578 1.1289 0.64844 0.53516 1.0273 0.90625 0.42969 1.793-0.18359 1.1641-0.35156 1.668 0.66797 1.2422 0.47266 1.2539 0.71094 1.0352 0.87109 0.42188 2.0312 0.83203 1.3203 0.75 0.82031 1.1602 1.2812 0.92578 0.57812 1.5195 1.082 0.84375 0.94531 0.29297 1.0781 0.56641 0.92578 1.3008 0.51172 0.98828 0.20312 1.168 1.3203 0.83594 0.66797 1.293 0.17188 0.33984 1.1094-0.5 1.1719-0.47266 0.90234-0.45312 0.93359 0.55469 1.1094 0.75391 0.83594 1.3711 0.53516 0.84375 0.57812 1.3711 0.97266 1.7734 1.8594 2.2148 2.0391 1.0625 1.1953 0.79688 1.0195 1.3711 1.2383 0.76172 0.89844 0.17969 1.0508 0.12891 1.8203-0.09375 1.457-0.84375 2.125 0.066406 1.5078-0.99609 0.92969-1.0625 0.75-1.2852 0.66406-0.88672 1.7734-0.88281 0.57422-0.92969 0.53125-0.84375 0.92969-1.1055 0.089843-2.3047 0.66406-1.5469-0.042969-1.4141-0.12109-1.6445 1.8477-0.66406 0.83984-0.88672 0.62109-0.75 0.83984-1.7266 0.71094-1.5156-0.17578-1.0547-0.57812-1.6172-0.625-1.0547-0.085937-1.8398-0.15625-1.1992-0.23828-1.9961 1.4609-1.4141 1.1523-1.0664 0.79688-2.0781 0.26562-1.2344-0.25781-1.5117 0.39062-0.44531 1.0156-0.97266 1.5977-1.043 0.80469 0.64453 1.0547 1.1055 1.1055 0.96875 1.1914 1.332 1.4727 0.76562 0.84766 0.95312 1.8164 0.79688 1.8867 0.30859 1.6836-0.10938 1.707 0.62109 1.4844 0.46094 0.92188 0.11328 1.168 0.9375 0.55859 0.87891-0.57422 0.87109 0.55859 1.0977 1.2617 0.87891 0.53516 1.1914 0.67188 2.1094 2.2539 0.88281 0.82812 0.60938 1.0273 1.1016 0.58594 1.832 1.4219 0.79688 0.68359 0.94531 0.57031 0.9375 1.0586 0.80469 1.5 0.68359 1.8125 0.60547 1.8008 0.25 1.2227-0.027344 1.0117-0.23828 1.3516 0.39844 1.375 0.20703 1.0703-0.86719 1.1172-1.3008 1.3789-0.78906 1.2344-0.53906 0.96094-0.96875 1.0352-1.1055 0.78906-1.8008 0.52344-1.8281 0.41016-1.0977 0.33594-1.7773 0.097657-1.5898-0.69531-1.3281-0.57812-1.2344-0.078125-0.85547 1.1406-0.85938 1.2969-1.1562 0.87109-1.1484 1.1445-1.5234 1.293-0.69141 0.83984 0.074219 1.4844 0.67969 1.082 0.16797 1.3906 0.60156 1.5508 1 1.4414 0.73438 0.98438 1.1016 0.23047 1.2461-0.16016 1.1797 0.16016 1.0273 0.34766 1.6797 0.17578 1.0273 0.88672 1.293 1.1445 0.55078 1.0781 0.76172 1.082 0.38281 0.97266 0.92969 0.58203 1.418 0.5625 1.1445 0.57031 1.2266 0.76172 1.1836 0.82031-1.2656 0.95312-1.0625 0.79297-0.84766 0.62109-0.63281 0.78516-1.1914 0.97266-1.457 1.3438 0.23047 1 0.49219 0.87109 0.89844 2.0508 0.29688 1.5938 0.75781 0.88672 0.55859 0.94922 0.71094 1.0742 0.625 1.2422 0.80078 0.76562 0.88672 1.1055 0.96875 0.46484 1.0859 0.72656 0.70312 0.83594 0.26953 1.0156 0.88672 1.3516 0.89844 0.44531 1.3242 0.32031 1.4922-0.066406 1.4844 0.125 1.0703 0.14453-0.38672 1.6172 0.11328 1.625 0.86719 1.5977 0.90625 1.2227 0.55078 1.5938 0.92578 1.4375 1.0664 0.96875 0.3125 1.0039 0.73047 1.6953-0.078125 1.7148 0.41406 1.4961 0.45312 1.1836 0.29297 1.1211 0.99609 1.293 1.9414 0.80859 1.1992 0.85547 0.89062 1.1523 0.33984 0.94531 1.0977 0.99219 1.4648 0.16406 2.1719 0.84766 1.6719 0.71484 1.1523 0.49609 1.043 0.76953 0.43359 1.957-0.046875 1.6172 0.28906 1.9844-0.074219 1.207-1.0391 1.8359-0.65234 0.89453-0.625 1.0156 0.046875 1.543 0.097656 1.8633-0.91797 1.8125-0.50781 0.96484-0.36328 1.2578-0.69922 1.1562-0.75 1.2109-0.3125 1.2773-0.14844 1.7188-1.0391 2.0781-0.71875 1.8789-0.70312 1.1875-1.5703 0.91797-1.7891 1.0859-1.2344 0.53125-1.5938 0.050781-0.98828 0.26562-0.84766 2.0039-0.082031 1.3555-0.14062 1.0195-0.12109 1.7617-0.16797 1.1562-0.21094 1.1367-0.13672 1.375-0.62891 1.1367-0.92188 0.5-1.082 0.8125-0.96875 0.47266-1.0859-0.29688-0.76562 0.84375-0.41797 1.3711-0.65625 0.75-0.51172 1.1719-0.66797 0.89844-0.82812 0.90625-1.1758-0.066406-1-0.011719-0.19531 1.3438-0.57422 0.99609-0.29297 0.96094-0.53125 0.98047-0.074219 1.3398-0.39453 1.1836 0.023437 1.457 0.066406 1.3047-0.72266 1.7188-0.70703 1.4102-0.62109 1.6992 0.054688 1.2344-0.11328 1.0625-0.09375 1.0742 0.98438 0.68359 1.2695 0.47266 0.4375 1.1523 0.78516 0.74219 0.9375 0.44922 1.9258 0.18359 0.96484 0.69922-0.5 1.3711-0.69531 0.86328-0.60938 0.80859-0.99609 1.2695-0.19531 1.2852-0.35938 1.1289-0.48438 0.98438-1.0508 0.93359-1.2305 1.1211-1.1797 0.63281-2.5781 0.83203-1.0508 0.20312-2.2852 0.36719-1.1523-0.12891-1.7109-0.37891-1.5312 0.61719-0.875 0.74219-1.1875 0.48438-1.4531 0.60938-1.0742 0.81641-1.5039 0.50391-1.1211 0.51953-0.75 0.78516-1.2383 0.20703-0.875 1.1797-1.3984 0.33594-1.0625-0.33984-1.5039 0.58203-1.0469 0.085938-1.0039-0.21484-1.3984 0.29688-1.2852 0.67578-1.0234 0.039063-1.0625 0.15625-1.7773-0.49609-1.8945-0.41406-1.082 0.054688-1.8398 0.25781-0.98047 0.51953-0.36328 1.293-0.1875 4.8867 0.58984 3.4453 0.30469 1.7734 0.47266 2.7695 0.29688 1.7188 0.26953 1.6172-1.0508 1.7109-1.293 5.0039 0.96484 2.7734 0.64453 2.7891 1.3516 4.1719-1.4648 3.5469-0.99219 2.9297-0.67578 0.91406-3.8125 1.4844-1.2109 0.88281-0.77734 0.95312-0.73438 2.125-0.32812 1.332-0.25781 1.0352-0.46484 1.3359-1.4805 0.64844-1.3086 1-1.5 0.28516-1.3398 0.80859-2.0664 0.97656-1.207 0.26953-0.98047 0.76562-0.1875 1.1914 0.42969 0.93359 0.73438 0.80469 0.76172 1.3086 0.54688 0.91016 0.95312 2.5078zm1.5781-58.332-0.14453 0.039062z" fill="#0a5394" fill-rule="evenodd"/>
<path d="m265.78 499-0.10938-0.10547-0.84766-0.67969-0.19922-0.99219-0.85938-0.58984-1.0508-0.36719-0.86328-0.63672-0.85938-0.6875-0.99219-0.26172-0.83594-0.55078-0.94531-0.39453-0.32031-0.95312-1.0039 0.058594-0.90234 0.5-0.33984-0.96875 0.39062-0.96875 0.58203-0.86328 0.51172-0.87109 0.72656-0.73438-0.35156-0.95312-0.73047-0.76172-0.91797-0.41016-1.0117-0.046875-0.33203-0.97266 1.0742-0.20703 0.98438 0.25781 0.81641-0.66406-0.007812-1.0273 0.58594-0.85156-0.35156-0.97266 0.35547-0.94141-0.59766-0.86328-0.67188-0.89062-0.50781-0.85938-0.21875-0.98438 0.94531-0.48828 0.69531 0.75781 1.0195 0.11719 0.80078-0.66016 1.2266 0.070312 0.98438-0.39844 0.66406-0.81641-0.37891-0.94922-0.39844-0.92188 0.62891-0.79297 0.88672-0.69141-0.59375-0.93359-0.23828-1.0742 0.003907-1.0078 0.90234-0.67969 0.89844-0.61719-0.54688-0.89453-0.17969-1.0625 0.35156-0.97266 0.84766-0.62891 1.1758 0.17188 0.60938-1.1172-0.14844-1.0898-0.39453-0.9375-0.125-1.0391-0.19141-0.98047-0.20703-1.0859 1.0469-0.046875 0.87109 0.53906 0.41797-1.0391 0.95312-0.66016 1.0859 0.16797 0.48438-0.88672 0.41406-0.95703-0.019532-1.5508-0.26953-1.2773-0.63672-1.2344-0.52344-0.90625-0.54688-1.0508 0.054687-1.3242-0.10547-1.0898-0.36328-1.0664-0.38672-0.95312-0.10938-1.043-0.44141-0.96094 0.45312-0.89844-0.0625-1.0039-0.28516-0.97656 0.62891 0.8125 0.97656 0.40234 0.64844-0.85938 0.37891-0.95312-0.28516-0.98438 0.62891-0.89844-0.36328-1.082-0.52734-1.0859-1.0938 0.039062-0.45312-0.91016-1.0156-0.21484 0.03125-1.0117 0.93359 0.37891 0.11328-1.1914 1.0312-0.003906 0.24219-1.0273-0.54297-0.86719-1.0938-0.027344-1.0156 0.066406-0.83203-0.62891 0.92188-0.42578 0.21484-1.0312-0.63672-0.94141-0.9375-0.46875-1.0312 0.30078-1.0312 0.20703-0.089844-1.0312 0.38672-1.1016-0.28516-0.97266-0.67188-0.90625-0.51953-0.92578-0.75391-0.875-0.62891-0.86719-0.73047-0.78125-0.73828-0.76172-0.73828-0.69531-0.71094-0.74609 0.59375-0.85547-0.47266-0.89844-0.03125-1.0469-0.79688-0.96875-0.92969-0.57031-0.96875-0.60547-1.0117-0.61719-1.1133-0.49609-0.91797-0.52734-1.0977-0.49219-0.95312-0.47266-0.97656-0.28516-0.78125-0.77734 0.082031-1.0117-0.10938-1.0234 0.58984-0.84375 0.16406-1.2344-0.53125-0.96094-0.73047-0.78906-0.92188-0.59375-1.0234-0.26172-0.94141 0.47266-0.35547 0.9375-0.69922 0.76953 0.31641-0.98047-0.70312-0.78906-0.85547-0.55859 0.070313-1-0.78906-0.71094-0.63281-0.80469 0.14062-1.0352-0.76953-0.70312-0.99219-0.29688-0.25781-1.0547-0.39062-1.0352-0.98438-0.37891-0.29688-1.0312 0.5625-0.875 0.48438-0.88672-0.16016-1.1367-0.54297-0.98828-0.79297-0.81641-0.82031-0.62891-1.0469-0.007812-0.69141-0.86328-0.60156-0.92188-0.78516-0.79688-0.97656-0.80078-0.91406-0.54297-0.81641-0.9375-1.0977-0.71484-0.78125-0.85156-1.0742-0.57031-0.87891-0.62109-1.2266-0.73828-1.0117-0.57422-1.3867-0.57812-1.1406-0.53125-0.94922-0.4375-0.99609-0.39844-0.98047-0.39453-0.98828-0.42969-0.94141-0.44531-0.94922-0.37891-0.94922-0.45703-0.94531-0.44531-0.97266-0.38281-0.9375-0.36719-0.95312-0.35547-0.95703-0.41797-0.91406-0.45703-0.82812-0.57422-0.83594-0.55859-0.82812-0.67969-0.74609-0.76172-0.65234-0.79688-0.64844-0.80469-0.69531-0.82031-0.84375-0.55078-0.80078-0.64062-0.94141-0.67578-0.88281-0.79688-0.96875-0.34375-0.78906-0.68359-0.87891-0.55469-0.86719-0.72656-0.89062-0.5-0.85938-0.57812-0.85547-0.71875-0.92969-0.72656-1.0742-0.66406-0.85547-0.66016-0.87891-0.68359-0.96094-0.50391-0.76953-0.68359-1.0391-0.51172-0.86719-0.5625-0.94922-0.60938-1-0.60547-0.93359-0.51562-1.0508-0.54297-1-0.56641-0.95312-0.53906-1.0469-0.51172-0.94531-0.49219-1.0664-0.49609-1.0469-0.49609-1.0156-0.50781-0.875-0.48828-0.95703-0.44922-1.0039-0.42578-0.91016-0.44531-1.0508-0.42578-0.90234-0.47656-0.96094-0.42578-1.1797-0.46875-1.0273-0.44141-0.97266-0.41797-0.98047-0.41797-1.3125-0.55078-1.0117-0.48828-0.96094-0.45312-1.1875-0.40625-0.92188-0.45703-1.043-0.39062-1.1719-0.51172-0.94531-0.44141-1.1445-0.47266-0.92188-0.40625-0.93359-0.42578-0.94141-0.35938-0.92578-0.40625-0.92188-0.42969-0.94531-0.39062-0.92969-0.39062-0.92188-0.41797-0.96875-0.37109-0.92578-0.4375-0.94531-0.36328-0.93359-0.4375-0.95703-0.39453-0.95312-0.39844-0.95703-0.39062-0.94922-0.44141-0.93359-0.375-0.92969-0.39453-0.93359-0.38672-0.96875-0.375-0.96484-0.34766-1.0039-0.42188-0.96094 0.35156-0.87109-0.55078-0.95703-0.35156 0.26562-1.0156 0.68359-0.73828 0.96094-0.40234-0.039063-1.1094-0.47266-0.92578-0.68359-0.85547-0.69141-0.73047-0.77734-0.65234 0.0625-1.0039 0.35938-0.96484-0.51953-0.92188 0.36328-0.95312-0.19141-1.0391-0.21484-1.0234 0.75391-0.73828 0.93359-0.35938 0.81641-0.64062 0.60547-0.85156 0.011719-1.0586-0.37891-1.0078-0.40625-0.94141-0.60547-0.80469-0.75781-0.65625 0.66016-0.75391 0.73047-0.76172 0.96484-0.29688 1.0234-0.027344 1.0859 0.25391 0.91406-0.5 0.26953-1-0.046875-1.0469 0.125-1.0312 0.26953-0.98047 0.53516-0.89844 0.20703-0.99219 0.0625-1.0039-0.070313-1.0391-0.26562-1.0508-0.51562-0.89453v-1.0117l-0.61719-0.79297-0.5625-0.83594 0.082031-1.0273-0.375-0.95312-0.44531-0.90234-0.57812-0.81641-0.8125-0.67969-0.89844-0.55469-1.375 0.61328 0.76953-1.2305-0.72266-0.71484-0.56641-0.92969-0.66797-0.88281-0.81641-0.62891-0.87891-0.53125-0.92578-0.47656-0.85547-0.5625-0.125-1.0273-0.80859-0.58984-0.93359-0.54688-0.48438-0.90234-0.59766-0.82422-0.78125-0.64844-0.86328-0.54688-0.86719-0.51172-0.82422-0.61719-0.82031-0.59766-0.88281-0.53125-0.42969-0.92969-0.875-0.57031-0.66406-0.78516-0.84766-0.58203-0.94531-0.44531-1.2852-0.57422-0.82422-0.71484-0.79688-0.63281-0.91797-0.4375-0.89844-0.44922-0.92578-0.46094-1.0469-0.13672-0.67578-0.76172-0.89844-0.44141-0.92969-0.44531-0.87891-0.58984-0.96484-0.45312-0.92578-0.40625-0.95312-0.45703-0.99609-0.44531-0.95703-0.48438-0.94531-0.38672-0.97656-0.49609-1.0586-0.30078-0.98828-0.39062-0.86719-0.51562-0.93359-0.42578-0.98438-0.41797-0.93359-0.48047 0.28516-1.3242 1.5273-1.9102 1.3281-0.89844 0.47656-1.6484 0.097656-1.0352-0.1875-1.125 1.8164-0.84766 1.5547-0.19922 5.1289-0.53906-0.042968-1.1406 0.019531-1.1016 0.19141-1.6328 0.14453-1.2305 1.2812-0.26562 3.6484-0.75391 0.60547-1.0742-0.84766-0.66406-1.5117 0.14453-0.09375-1.082-0.76172-3.0078 0.12109-1.4922-1.0391 0.19141-1.3555 0.26953-1.168 0.20703-1.125 0.24219-0.85156-0.98047-0.78516-1.0508 0.28125-2.2539 0.62109-0.91406 0.92578-1.8867 0.054687-1.0664 0.80859-1.7148 1.043-1.6797-0.66406-2.1367-1.0703-0.5625-0.84375-0.78906-0.76562-0.69531 0.0625-1.0156-0.62109-0.79297-1.3008 0.5-0.85156-0.82422-1.6484-2.4258-0.42578-0.95703-0.57812 1.2852-1.3984-0.46484-1.2852-2.3242-1.6055 0.90625-1.2773-0.22266-1.1719-0.63281-0.60938-0.97656 0.22266-1.0469 0.82031-1.1758 0.34766-0.95703 0.54688-1.0586 0.71484-0.99219 0.52344-1.0469-0.046875-1.3555 0.61328-1.1875-0.29297-1.1562-0.73828-0.71094-1.3438-0.73438-1.0312-0.52344 0.47656-0.99219 0.14453-1.1289-0.50391-1.1367-0.17969-1.0039-0.097656-1.0469 0.29688-1.4414-0.44141-0.89844-0.86719-0.99219-0.24219-1.3516-0.38672-0.96094-0.94531-0.71875-0.58594-1.2539-1.2773-1.2148-1.0703-2.3086h1.0547l0.96875 0.30078 0.41016 0.97656 0.51562 0.91016 0.92188 0.49609 1.0117 0.23828 1.0078 0.26562 0.89844 0.49219 1.0664 0.070313 0.96094 0.28906 1.0312 0.34375 0.95312 0.30859 1.0352 0.18359 1.0312 0.25781 1.0352 0.36719 1.2344 0.089843 1.0938 0.089844 0.53906-1.2617-0.18359-1.0039-0.27734-1.5-0.44531-1.5312-2.1445-1.6133-0.35938-0.97656 0.28516-0.97266 0.25391-1.5586 0.11719-1.1914 1.0078-0.76562 0.98828-0.66406 0.70703-0.78125-0.050781-1.3398 0.49609-0.92969 0.47266-1.125 0.73047-1.1406 0.3125-1.4375 0.17188-1.0781 0.10547-1.25 0.16797-1.0312 0.58984-1.1602 0.60547-1.1094-0.4375-2.4688-0.09375-1.168-0.71875-1.2148-0.23438-0.97656 0.19922-1.1758 0.10547-1.5977-0.17188-1.3984-0.32031-1.3516-0.33594-0.96094-0.12109-1.3477-0.87109-1.0508-0.91016-0.61719-0.56641-0.84375-0.69922-1-0.34375-1.1328 0.09375-1.1406-0.03125-1.5664 0.070312-1.2695-0.77734-0.67188-1.082 0.37109-1.0547-0.27344-0.3125-0.95703-0.83203-0.58984-1.1836-0.53516-0.55859-0.89453-0.56641-1.0117-0.85547-1.1055 0.28906-1.0977-0.085937-1.1719-0.28906-1.043-0.89844-1.4141 0.47656-2.5508-1.4258-2.2773-1.0234-0.96875-0.75781-0.78906-1.957-2.2539-0.75391-1.1406-1.4375-0.35938-9.6523-0.4375-0.85938 0.80469-1.0312 0.29297-1.375 0.023438-2.1797 1.3867-1.6523 0.30078-1.3359 1.0977-1.1602 0.36328-1.0352-0.09375-1.2656-0.16406-0.77344-0.91016-0.99219-0.17188-1.2695 0.84375-1.0547 0.70312-1.9219 0.25-1.2461-0.34766-1-0.53125-0.91016 0.9375-0.37109-0.93359 0.53125-0.92188 1.0039-0.19141 1-0.058593 0.67969-0.76562 1.0234-0.09375-0.80859-0.71875-0.89062-0.54297 0.24609-0.99219 0.99609-0.1875 0.98828-0.26953 0.64062-0.77734 0.42578-0.91797-0.29297-0.99219-0.25391-1.0117-0.34766-0.94141-0.69922-0.72656 0.34766-0.9375 0.015625-1.043 0.55078-0.89062-0.68359-0.83594-0.98438-0.34375-0.48047-0.89453 0.54297-0.90625-0.32031-1.0156-0.50391-0.98047-0.60547-0.86719-0.71484-0.79688-0.95312-0.58984-0.72266-0.71875-0.60156-0.80469-0.51172-0.90625-1.0742-0.20312-0.75781 0.65625-0.91406-0.42578-1.082 0.074219 0.48828-0.87891 0.69141-0.79688-0.17578-0.99219 0.042969-1.1133-0.64062-0.79297-0.61719-0.80859 0.34766-0.98828-0.40234-0.96875 0.61719-0.8125 1.0586-0.082031 0.89844-0.44141 0.95312 0.33203 0.37109 0.96875 0.96094 0.4375 0.40625 0.92188 0.66016 0.80469 1.0625 0.14844 1.0312-0.11719 0.77734 0.65625 1.0234 0.28516 0.87891-0.48438 0.66797-0.77344 0.75-0.66797 0.55859-0.85938 0.42578-0.95312 0.5-0.98828 0.45703-0.9375-0.015625-1.0781-0.16797-1.0391-0.0625-1.0156 0.21094-0.99609 0.14062-1.0117 0.070313-1.0195 0.25781-1.0078 0.5-0.96484 0.007813-1.0039 0.56641-0.92188 0.45703-0.99219 0.13281-1.2031-0.23438-1.1172-0.56641-1.0117-0.40625-0.92188-0.42188-0.93359-0.48047-1-0.50781-0.94141-0.71094-0.86719-0.55469-0.90234-0.71875-0.75-0.73828-0.75-0.36719-1.0547-0.25-1.0039-0.70312-0.73438-0.32812-1-0.84766-0.625-0.37891-0.98828-0.31641-0.98828-0.83594-0.66797-0.74609-0.75781-0.55469-0.97656-0.60156-0.82812-0.66406-0.79297-0.67578-0.74219-0.78516-0.77344-0.625-0.83594-0.72656-0.72656-0.83594-0.76953-0.66797-0.76172-0.40625-0.93359 0.625-0.99219 0.94531-0.53125 1.1562 0.44922 0.90625-0.83594 0.29297-1.3281 0.074219-1.4219-0.50391-1.2812 0.17188-1.0039-0.70312-1.2891 2.3867-0.81641 2.8828-1.4453 1.9375-0.60156 1.3125-0.79297 0.92578-1.4219 1.0586-1.4688 2.0859-1.1562 1.1953-0.82812 2.1406-1.2344 1.7539-0.71484 1.6914-0.57812 2.5117-0.097656 1.9883 0.57812 1.4062 0.63672 1.1406 0.85156 0.92578 0.55859 1 0.30859 1.0312-0.69531 1.2461-0.71484 1.5234-1.1953 1.2031-0.097656 1.7578 0.95312 1.3047-0.023438 0.19141-1.0508-0.36328-2.1953-0.77734-1.0625-1.5039-0.95703-0.95312-0.78125-0.085938-1.4219 0.019531-2.332-1.1602-0.76953-1-0.34766-1.2656-1.6211 0.80078-1.8516 1.0625-1.4844 1.1758-1.3125 1.0586-0.69141 1.7578 0.46094 1 0.80859 1.1016 1.082 1.2539 0.30859 1.793-0.11719 2.1406-0.32812 1.4453-0.69141 1.1602-0.8125 0.51953-1.6562-0.019531-1.5234 1.0781-0.71484 0.98438-1.0039 1.3633-1.1797 1.125-0.78906 1.75-1.457 1.4922-1.3008 1.7148-0.75 1.043-0.71484 0.66016-1.332-0.14062-1.4062 0.49609-1.3125 0.14062-1.4258 1.0586-1.4453 0.94531-1.1016 0.40625-1.5625 0.69531-1.6172 0.097656-1.1602 0.035157-1.8125 0.98438-1.3672 1.1953-0.28906 1.7383-0.46484 0.82812-0.61719 1.4453-0.59766 0.79297 1.1172 0.28516 0.98438 1.2383 0.75391 1.7734-0.36719 1.3711-0.67578 1.5234 0.019531 0.95703 0.34375 1.1133 0.95703 1.3789 0.39844 0.73438 0.75 1.1953 1.082 0.83203 0.73047 0.80859 0.63672 0.70703 1.2109 0.83594 0.69531 0.96094 0.54688 4.3828 2.0391 1.5078 0.80078 1.4414 1.6875 0.69531 1.4102 1.0195 1.1172 1.4102 0.71484 1.582 0.86719 1.1953 0.55859 0.98438 0.71484 1 1.293 0.71875 1.2266-0.30078 1.2227-1.2031 0.60156-1.0938 0.58594-0.82031 0.71094-1.2227 1.4414-0.36328 1.2227 0.035156 2.2227-0.45703 1.5156-0.92969 1.0938-0.92969 0.69531-1.0039 0.69141-0.74609 0.89453-0.85938 0.76562-1.8984 2.1719-1.3672 1.6602-1.293 1.2188-0.80469 1.0234-0.73047 1.375 0.71484 0.91797 1.125 0.95312 0.77344 1.8438 0.24219 1.4727 0.046875 1.6523 0.59766 1.6133 0.51172 1.1602 0.69531 1.1797 0.29297 1.1133 0.20312 0.98828 0.3125 1.5664 1.3633-0.14062 1.1953-0.32031 1.1992-0.074219 1.0781 0.10547 1.4883 0.71484 1.7227 1.2109 1.7344 0.84375 2.2305 0.28906 1.6289 0.21484 1.25 0.039063 1.6484-0.36719 0.93359-0.42188 0.94922-0.32031 1.5742 0.23047 1.4336 0.48438 2.2891 0.011719 1.0938-0.16016 1.2266 0.62891 0.25 1.0273-0.39062 1.2188-0.48438 0.90625-1.2578 1.168-0.375 1.0781 0.52734 1.1641 0.60938 1.3242 0.32422 1.0586 0.44141 0.98047 0.34375 1.8008-0.27344 1.7344-0.64844 2.4023-0.60938 1.3906-0.59375 0.89062-0.49609 1.7461 0.79297 1.2305 1.0898-0.23047 1.5898-0.62891 1.9023 0.0625 1.0469 0.44531 1.1016 0.78906 1.6016 0.81641 0.89453 0.53516 0.37109 1.4609 0.67188 1.0078 1.0391 0.58594 1.0586 0.16016 0.34766 1.5195 0.36328 1.2734 0.75781 1.3047 1.0664 1.1523 1.0859 0.76953 0.94141 1.0117 3.0117 0.40234 1.2344 0.36719 1.9062 1.9102 0.9375 0.37109 1.1758-0.61719 1.0039-0.44141 1.8438-0.48438 1.2578-0.35938 1.082-0.72266 1.1562-1.3828 0.83203-0.75781 1.2344-1.1172 0.24219-1.0273-0.054687-1.4648-0.39062-1.8242 0.019531-1 0.59375-1.1172 1.0781-0.18359 1.3203-0.24219 1.2422-0.50391 1.3398-0.22266 1.6328-0.27734 1.4688 0.14844 1.0391-0.11328 1.5234 0.46484 1.043 0.61328 2.1445 1.7891 1.5508 0.24219 1.8984-0.54297 1.3164 1.168 0.6875 1.0234 0.33594 1.4492 1.2617 1.4141 2.0625 0.27734 0.89844 0.60547 1.5195 1.1953 1.3789 0.25781 1.5195 0.097656 1.1133-0.16797 1.3789 0.17578 1.4102 0.10156 1.4492-0.29688 1.3203-0.46484 1.8203-0.10938 1.5781 0.035156 1.1133-0.074219 1.5078-0.42578 0.98438-0.57812 1.8398 0.019531 1.0938 0.6875 1.5078 0.29297 1.3555-0.015625 1.0781 0.11328 1.6172 0.41016 1.8203 0.6875 1.2812 0.42578 1.1602 0.78906 1.0156 0.38281 1.0469 0.59375 0.625 0.91016-0.80859 1.4727-2.7109 2.8555-1.0781 1.375-0.85547 1.1992-1.7812 1.4766-1.4961 1.6953-1.9336 1.6211-1.3125 0.21875-2.3555 0.28906-1.1094 0.28906-1 0.84766-1.2227 1.1758-1.3359 0.86719-1.0195 0.73438-0.51172 0.86719-0.47266 1.2656-1.0391 1.6445-0.97656 1.3789-0.64453 0.84375-2.0898 1.1328-1.1562 0.023437-1.2461-0.24609-1.4648 0.023437-1.2031-0.24219-1.332-0.46875-2.2461-0.44531-1.5977-0.39844-2.0234-0.69141-1.1328-0.085937-1.1797 0.019531-1.3555 0.57812-1.4883-0.375-1.4219-0.28906-2.0664-0.33594-1.3633-0.23828-1.1289-0.027344-1.043 0.10938-1.1992 0.3125-1.5117 0.73438-0.84766 1.2422-0.085937 2.0469 0.15625 1.8008 0.15234 1.6875 0.17969 1.4688 0.023438 1.4453 0.35547 1.6211 0.39844 1.0664 0.46875 1.0234 0.50781 1-1.3555 1.5117-1.293 0.72656-1.0625 0.51562-1.4883 0.53516-1.043 0.86719-1.2695 0.44531-2.3555-0.023437-1.0781 0.39062-1.0117 0.41016-1.332 0.19922-1.0664 0.15625-1.0898-0.19922-1-0.11328-0.40234 1.1562 0.49219 0.93359 0.085937 2.1328-0.019531 1.9141-0.33594 0.97656-1.6836 3.1641-0.85156 1.2734-0.92969 1.1172-0.3125 1.0703 0.44531 1.6133 0.91016 1.1797 0.53125 1.3984 0.87891 1.1211 2.0234 0.59766 1.1914 0.15625 1.6914-0.085937 2.0625-1.0117 0.88281-0.69531 1.5625-0.39844 1.2852-0.19531 0.99219-0.26172 1.4375-0.33984 1.0078 0.015625 1.8789-0.042969 1.0938 0.027344 2.0078-0.18359 1.0352-0.17969 1.2695-0.0625 0.60938 0.85156-0.9375 1.5391-0.58203 2.2734 0.097657 1.2383 0.17188 1.0352-0.058594 1.7656-0.69141 0.84375-2.2812 1.5625-1.0781 0.49609-1.7656 0.59766-1.0938 0.65625-1.2109 1.2656-0.29688 1.293-0.28516 2.0625-0.42969 1.3828-0.69531 1.5078-0.71094 1.2227-0.32812 1.5195 0.51172 1.6953 0.10156 1.6211-0.50781 1.1875-0.21875 1.6289 1.3672 1.5195 0.46875 1.2812-0.12891 1.125-1.0234 0.96875-0.89844 0.63672-1.3906 0.58594-1.5508 0.53906-1.2656 0.65625-0.98438 0.92188-0.45312 1.3398-0.1875 1.4922-0.85547 0.78906 1.1719 0.33203 1.7812 1.1992 1.1953 1.168 0.64453 1.4414 0.86328 1.9688 0.15234 1.4727 0.42969 1.3203 1.5664 0.40234 0.82812-0.89453 0.76953-0.67578 1.6289-1.1953 1.2891-0.24609 1.1367 0.27734 1.7812 0.15234 1.3516 0.27734 2.0273 0.42969 1.1992-0.03125 1.6914-0.70703 2.1797-1.3516 1.5977-0.42969 1.8633-0.21875 1.6562-0.68359 1.3672-0.6875 2.5547-0.57422 1.7617-0.54688 1.2617-0.67969 1.082-0.67969 1.0039-0.61328 1.1523-0.97266 0.82812-1.0039 0.57422-0.86328 1.1523-0.72266 1.1445-0.35938 1.8516 0.019531 1.1562 0.79297 0.91016 1.1445 1.625 1.3242 1.4648 0.85547 0.88672 0.48828 1.0273 0.33984 1.5508 0.30859 1.0703-0.41406 1.0156-1.0742 0.29688-2.082 0.074219-1.3633 1.5039-2.0117 1.4375-1.5898 1.0664-0.64453 0.94141-0.48438 1.2109 0.13281 1 0.50391 1.4375-0.050782 1.9336-0.015625 1.5547 0.23438 1.2422 0.20312 1.2891 0.33203 1.1016-0.12891 1.2734-0.47266 0.96094-0.32031 0.89844-1.0117 0.52344-1.0352 1.1211-1.4219 0.875-0.82031 0.98047-0.64062 1.6523-1.2969 1.0938-0.19531 1.418-0.40625 1.3906-0.76953 1.0742-1.1445 0.95703-0.78516 1.4805-0.95312 1.0156-0.72266 1.7617-0.84766 1.1328-0.52344 1.3164-0.98438 0.72656-0.80078 1.0195-1.1484 1.0078-0.73438 0.71875-0.76953 1.3594-0.48438 1.5703 0.23438 1.2344 0.085937 1.0938-0.63281 0.73828-0.73047 0.95703-1.1367 0.70703-1.0391 0.875-1 0.55078-1.168 0.58594-1.0664 0.28516-1.5352 0.86328-1.1484 0.96484-1.0625 0.46484 1.0898 0.76562 1.0117 1.2539 1.0039 0.95703 1.4023 0.67188 0.78516 0.61719 1.0781 1.9609 0.67578 1.1289 0.64844 0.53516 1.0273 0.90625 0.42969 1.793-0.18359 1.1641-0.35156 1.668 0.66797 1.2422 0.47266 1.2539 0.71094 1.0352 0.87109 0.42188 2.0312 0.83203 1.3203 0.75 0.82031 1.1602 1.2812 0.92578 0.57812 1.5195 1.082 0.84375 0.94531 0.29297 1.0781 0.56641 0.92578 1.3008 0.51172 0.98828 0.20312 1.168 1.3203 0.83594 0.66797 1.293 0.17188 0.33984 1.1094-0.5 1.1719-0.47266 0.90234-0.45312 0.93359 0.55469 1.1094 0.75391 0.83594 1.3711 0.53516 0.84375 0.57812 1.3711 0.97266 1.7734 1.8594 2.2148 2.0391 1.0625 1.1953 0.79688 1.0195 1.3711 1.2383 0.76172 0.89844 0.17969 1.0508 0.12891 1.8203-0.09375 1.457-0.84375 2.125 0.066406 1.5078-0.99609 0.92969-1.0625 0.75-1.2852 0.66406-0.88672 1.7734-0.88281 0.57422-0.92969 0.53125-0.84375 0.92969-1.1055 0.089843-2.3047 0.66406-1.5469-0.042969-1.4141-0.12109-1.6445 1.8477-0.66406 0.83984-0.88672 0.62109-0.75 0.83984-1.7266 0.71094-1.5156-0.17578-1.0547-0.57812-1.6172-0.625-1.0547-0.085937-1.8398-0.15625-1.1992-0.23828-1.9961 1.4609-1.4141 1.1523-1.0664 0.79688-2.0781 0.26562-1.2344-0.25781-1.5117 0.39062-0.44531 1.0156-0.97266 1.5977-1.043 0.80469 0.64453 1.0547 1.1055 1.1055 0.96875 1.1914 1.332 1.4727 0.76562 0.84766 0.95312 1.8164 0.79688 1.8867 0.30859 1.6836-0.10938 1.707 0.62109 1.4844 0.46094 0.92188 0.11328 1.168 0.9375 0.55859 0.87891-0.57422 0.87109 0.55859 1.0977 1.2617 0.87891 0.53516 1.1914 0.67188 2.1094 2.2539 0.88281 0.82812 0.60938 1.0273 1.1016 0.58594 1.832 1.4219 0.79688 0.68359 0.94531 0.57031 0.9375 1.0586 0.80469 1.5 0.68359 1.8125 0.60547 1.8008 0.25 1.2227-0.027344 1.0117-0.23828 1.3516 0.39844 1.375 0.20703 1.0703-0.86719 1.1172-1.3008 1.3789-0.78906 1.2344-0.53906 0.96094-0.96875 1.0352-1.1055 0.78906-1.8008 0.52344-1.8281 0.41016-1.0977 0.33594-1.7773 0.097657-1.5898-0.69531-1.3281-0.57812-1.2344-0.078125-0.85547 1.1406-0.85938 1.2969-1.1562 0.87109-1.1484 1.1445-1.5234 1.293-0.69141 0.83984 0.074219 1.4844 0.67969 1.082 0.16797 1.3906 0.60156 1.5508 1 1.4414 0.73438 0.98438 1.1016 0.23047 1.2461-0.16016 1.1797 0.16016 1.0273 0.34766 1.6797 0.17578 1.0273 0.88672 1.293 1.1445 0.55078 1.0781 0.76172 1.082 0.38281 0.97266 0.92969 0.58203 1.418 0.5625 1.1445 0.57031 1.2266 0.76172 1.1836 0.82031-1.2656 0.95312-1.0625 0.79297-0.84766 0.62109-0.63281 0.78516-1.1914 0.97266-1.457 1.3438 0.23047 1 0.49219 0.87109 0.89844 2.0508 0.29688 1.5938 0.75781 0.88672 0.55859 0.94922 0.71094 1.0742 0.625 1.2422 0.80078 0.76562 0.88672 1.1055 0.96875 0.46484 1.0859 0.72656 0.70312 0.83594 0.26953 1.0156 0.88672 1.3516 0.89844 0.44531 1.3242 0.32031 1.4922-0.066406 1.4844 0.125 1.0703 0.14453-0.38672 1.6172 0.11328 1.625 0.86719 1.5977 0.90625 1.2227 0.55078 1.5938 0.92578 1.4375 1.0664 0.96875 0.3125 1.0039 0.73047 1.6953-0.078125 1.7148 0.41406 1.4961 0.45312 1.1836 0.29297 1.1211 0.99609 1.293 1.9414 0.80859 1.1992 0.85547 0.89062 1.1523 0.33984 0.94531 1.0977 0.99219 1.4648 0.16406 2.1719 0.84766 1.6719 0.71484 1.1523 0.49609 1.043 0.76953 0.43359 1.957-0.046875 1.6172 0.28906 1.9844-0.074219 1.207-1.0391 1.8359-0.65234 0.89453-0.625 1.0156 0.046875 1.543 0.097656 1.8633-0.91797 1.8125-0.50781 0.96484-0.36328 1.2578-0.69922 1.1562-0.75 1.2109-0.3125 1.2773-0.14844 1.7188-1.0391 2.0781-0.71875 1.8789-0.70312 1.1875-1.5703 0.91797-1.7891 1.0859-1.2344 0.53125-1.5938 0.050781-0.98828 0.26562-0.84766 2.0039-0.082031 1.3555-0.14062 1.0195-0.12109 1.7617-0.16797 1.1562-0.21094 1.1367-0.13672 1.375-0.62891 1.1367-0.92188 0.5-1.082 0.8125-0.96875 0.47266-1.0859-0.29688-0.76562 0.84375-0.41797 1.3711-0.65625 0.75-0.51172 1.1719-0.66797 0.89844-0.82812 0.90625-1.1758-0.066406-1-0.011719-0.19531 1.3438-0.57422 0.99609-0.29297 0.96094-0.53125 0.98047-0.074219 1.3398-0.39453 1.1836 0.023437 1.457 0.066406 1.3047-0.72266 1.7188-0.70703 1.4102-0.62109 1.6992 0.054688 1.2344-0.11328 1.0625-0.09375 1.0742 0.98438 0.68359 1.2695 0.47266 0.4375 1.1523 0.78516 0.74219 0.9375 0.44922 1.9258 0.18359 0.96484 0.69922-0.5 1.3711-0.69531 0.86328-0.60938 0.80859-0.99609 1.2695-0.19531 1.2852-0.35938 1.1289-0.48438 0.98438-1.0508 0.93359-1.2305 1.1211-1.1797 0.63281-2.5781 0.83203-1.0508 0.20312-2.2852 0.36719-1.1523-0.12891-1.7109-0.37891-1.5312 0.61719-0.875 0.74219-1.1875 0.48438-1.4531 0.60938-1.0742 0.81641-1.5039 0.50391-1.1211 0.51953-0.75 0.78516-1.2383 0.20703-0.875 1.1797-1.3984 0.33594-1.0625-0.33984-1.5039 0.58203-1.0469 0.085938-1.0039-0.21484-1.3984 0.29688-1.2852 0.67578-1.0234 0.039063-1.0625 0.15625-1.7773-0.49609-1.8945-0.41406-1.082 0.054688-1.8398 0.25781-0.98047 0.51953-0.36328 1.293-0.1875 4.8867 0.58984 3.4453 0.30469 1.7734 0.47266 2.7695 0.29688 1.7188 0.26953 1.6172-1.0508 1.7109-1.293 5.0039 0.96484 2.7734 0.64453 2.7891 1.3516 4.1719-1.4648 3.5469-0.99219 2.9297-0.67578 0.91406-3.8125 1.4844-1.2109 0.88281-0.77734 0.95312-0.73438 2.125-0.32812 1.332-0.25781 1.0352-0.46484 1.3359-1.4805 0.64844-1.3086 1-1.5 0.28516-1.3398 0.80859-2.0664 0.97656-1.207 0.26953-0.98047 0.76562-0.1875 1.1914 0.42969 0.93359 0.73438 0.80469 0.76172 1.3086 0.54688 0.91016 0.95312 2.5078 0.25781 1.1992m1.5781-58.332-0.14453 0.039062 0.14453-0.039062" fill="none" stroke="#fff" stroke-linecap="round" stroke-linejoin="round" stroke-miterlimit="10"/>
<path d="m142.33 249.05c0 3.5898-2.9102 6.5-6.5 6.5s-6.5-2.9102-6.5-6.5 2.9102-6.5 6.5-6.5 6.5 2.9102 6.5 6.5" fill="#28c028" fill-rule="evenodd" stroke="#000" stroke-linecap="round" stroke-linejoin="round" stroke-miterlimit="10"/>
<path d="m75.391 243.05v-16.328h3.3281v13.547h8.2656v2.7812zm13.859 0v-16.469h3.3125v16.469zm6.4375 0v-16.469h4.9844l2.9844 11.234 2.9531-11.234h4.9844v16.469h-3.0938v-12.953l-3.2656 12.953h-3.2031l-3.25-12.953v12.953zm34.047 0h-3.6094l-1.4375-3.7344h-6.5781l-1.3594 3.7344h-3.5312l6.4062-16.469h3.5156zm-6.1094-6.5156-2.2812-6.1094-2.2188 6.1094zm0 0" fill="none" stroke="#fff" stroke-linecap="round" stroke-linejoin="round" stroke-miterlimit="10" stroke-width="2"/>
<path d="m75.391 243.05v-16.328h3.3281v13.547h8.2656v2.7812zm13.859 0v-16.469h3.3125v16.469zm6.4375 0v-16.469h4.9844l2.9844 11.234 2.9531-11.234h4.9844v16.469h-3.0938v-12.953l-3.2656 12.953h-3.2031l-3.25-12.953v12.953zm34.047 0h-3.6094l-1.4375-3.7344h-6.5781l-1.3594 3.7344h-3.5312l6.4062-16.469h3.5156zm-6.1094-6.5156-2.2812-6.1094-2.2188 6.1094z" fill-rule="evenodd"/>
</g>
</svg>
